<svg width="1763" height="1046"
    xmlns="http://www.w3.org/2000/svg"
	xmlns:xlink="http://www.w3.org/1999/xlink" xml:space="preserve" overflow="hidden">
	<defs>
		<clipPath id="clip0">
			<rect x="2917" y="346" width="1763" height="1046"/>
		</clipPath>
	</defs>
	<g clip-path="url(#clip0)" transform="translate(-2917 -346)">
		<rect x="2918" y="347" width="1760" height="1043" fill="#FFFFFF" />
		<g>
			<path d="
			M3228.5 974.532 4296.5 974.532
			M3228.5 910.53 4296.5 910.53
			M3228.5 846.528 4296.5 846.528
			M3228.5 781.526 4296.5 781.526
			M3228.5 717.524 4296.5 717.524
			M3228.5 653.522 4296.5 653.522
			M3228.5 589.52 4296.5 589.52
			M3228.5 525.517 4296.5 525.517
			M3228.5 461.515 4296.5 461.515
			M3228.5 397.5 4296.5 397.5" stroke="#D9D9D9" stroke-width="3.4375" stroke-linejoin="round" stroke-miterlimit="10" fill="none" />
		</g>
		<g>
			<path d="M 1038.5 4296.5 1038.5" stroke="#D9D9D9" stroke-width="3.4375" stroke-linejoin="round" stroke-miterlimit="10" fill="none" fill-rule="evenodd" />
		</g>
		<g>
			<text fill="#595959" font-family="Verdana,Open Sans,DejaVu Sans,sans-serif" font-weight="400" font-size="41" transform="matrix(6.12323e-17 -1 1 6.12323e-17 3247.21826171875 1194.1733322143555)">30-Jun</text>
		</g>
		<g>
			<text fill="#595959" font-family="Verdana,Open Sans,DejaVu Sans,sans-serif" font-weight="400" font-size="41" transform="matrix(6.12323e-17 -1 1 6.12323e-17 3330.082801231971 1179.0385665893555)">28-Jul</text>
		</g>
		<g>
			<text fill="#595959" font-family="Verdana,Open Sans,DejaVu Sans,sans-serif" font-weight="400" font-size="41" transform="matrix(6.12323e-17 -1 1 6.12323e-17 3412.5769794170674 1208.66748046875)">25-Aug</text>
		</g>
		<g>
			<text fill="#595959" font-family="Verdana,Open Sans,DejaVu Sans,sans-serif" font-weight="400" font-size="41" transform="matrix(6.12323e-17 -1 1 6.12323e-17 3494.7308255709136 1204.42333984375)">22-Sep</text>
		</g>
		<g>
			<text fill="#595959" font-family="Verdana,Open Sans,DejaVu Sans,sans-serif" font-weight="400" font-size="41" transform="matrix(6.12323e-17 -1 1 6.12323e-17 3572.1800818810098 1201.1401290893555)">20-Oct</text>
		</g>
		<g>
			<text fill="#595959" font-family="Verdana,Open Sans,DejaVu Sans,sans-serif" font-weight="400" font-size="41" transform="matrix(6.12323e-17 -1 1 6.12323e-17 3654.103703425481 1209.70849609375)">17-Nov</text>
		</g>
		<g>
			<text fill="#595959" font-family="Verdana,Open Sans,DejaVu Sans,sans-serif" font-weight="400" font-size="41" transform="matrix(6.12323e-17 -1 1 6.12323e-17 3736.257549579327 1205.3642578125)">15-Dec</text>
		</g>
		<g>
			<text fill="#595959" font-family="Verdana,Open Sans,DejaVu Sans,sans-serif" font-weight="400" font-size="41" transform="matrix(6.12323e-17 -1 1 6.12323e-17 3822.275165264423 1189.9291915893555)">12-Jan</text>
		</g>
		<g>
			<text fill="#595959" font-family="Verdana,Open Sans,DejaVu Sans,sans-serif" font-weight="400" font-size="41" transform="matrix(6.12323e-17 -1 1 6.12323e-17 3901.5061598557695 1203.0419921875)">09-Feb</text>
		</g>
		<g>
			<text fill="#595959" font-family="Verdana,Open Sans,DejaVu Sans,sans-serif" font-weight="400" font-size="41" transform="matrix(6.12323e-17 -1 1 6.12323e-17 3982.9493126502402 1212.0107421875)">09-Mar</text>
		</g>
		<g>
			<text fill="#595959" font-family="Verdana,Open Sans,DejaVu Sans,sans-serif" font-weight="400" font-size="41" transform="matrix(6.12323e-17 -1 1 6.12323e-17 4069.827768179087 1203.2621994018555)">06-Apr</text>
		</g>
		<g>
			<text fill="#595959" font-family="Verdana,Open Sans,DejaVu Sans,sans-serif" font-weight="400" font-size="41" transform="matrix(6.12323e-17 -1 1 6.12323e-17 4151.981614332933 1216.47509765625)">04-May</text>
		</g>
		<g>
			<text fill="#595959" font-family="Verdana,Open Sans,DejaVu Sans,sans-serif" font-weight="400" font-size="41" transform="matrix(6.12323e-17 -1 1 6.12323e-17 4233.064415564904 1194.0131759643555)">01-Jun</text>
		</g>
		<g>
			<text fill="#595959" font-family="Verdana,Open Sans,DejaVu Sans,sans-serif" font-weight="400" font-size="41" transform="matrix(6.12323e-17 -1 1 6.12323e-17 4315.1982421875 1194.0532150268555)">29-Jun</text>
		</g>
		<g>
			<text fill="#595959" font-family="Verdana,Open Sans,DejaVu Sans,sans-serif" font-weight="400" font-size="41" transform="matrix(1 0 0 1 3169.14111328125 1050)">0</text>
		</g>
		<g>
			<text fill="#595959" font-family="Verdana,Open Sans,DejaVu Sans,sans-serif" font-weight="400" font-size="41" transform="matrix(1 0 0 1 3088.5625 922)">3,376</text>
		</g>
		<g>
			<text fill="#595959" font-family="Verdana,Open Sans,DejaVu Sans,sans-serif" font-weight="400" font-size="41" transform="matrix(1 0 0 1 3089.22314453125 794)">6,752</text>
		</g>
		<g>
			<text fill="#595959" font-family="Verdana,Open Sans,DejaVu Sans,sans-serif" font-weight="400" font-size="41" transform="matrix(1 0 0 1 3067.0815505981445 666)">10,127</text>
		</g>
		<g>
			<text fill="#595959" font-family="Verdana,Open Sans,DejaVu Sans,sans-serif" font-weight="400" font-size="41" transform="matrix(1 0 0 1 3067.4018630981445 538)">13,503</text>
		</g>
		<g>
			<text fill="#595959" font-family="Verdana,Open Sans,DejaVu Sans,sans-serif" font-weight="400" font-size="41" transform="matrix(1 0 0 1 3067.2016677856445 410)">16,879</text>
		</g>
		<g>
			<text fill="#595959" font-family="Verdana,Open Sans,DejaVu Sans,sans-serif" font-weight="400" font-size="41" transform="matrix(1 0 0 1 3556.97119140625 1321)">Week Commencing</text>
		</g>
		<g>
			<text fill="#595959" font-family="Verdana,Open Sans,DejaVu Sans,sans-serif" font-weight="400" font-size="46" transform="matrix(6.12323e-17 -1 1 6.12323e-17 3019.73 1011.673828125)">Number of Browser Profiles</text>
		</g>
		<rect x="2918.5" y="347.5" width="1760" height="1043" stroke="#D9D9D9" stroke-width="3.4375" stroke-linejoin="round" stroke-miterlimit="10" fill="none" />
		<g>
			<path d="M3228.5 1038 3249.0384615384614 1038 3269.576923076923 1038 3290.1153846153848 1038 3310.653846153846 1038 3331.1923076923076 1038 3351.730769230769 1038 3372.269230769231 1038 3392.8076923076924 1038 3413.346153846154 1038 3433.8846153846152 1038 3454.423076923077 1038 3474.9615384615386 1038 3495.5 1038 3516.0384615384614 1038 3536.576923076923 1038 3557.1153846153848 1038 3577.653846153846 1038 3598.1923076923076 1038 3618.7307692307695 1038 3639.269230769231 1038 3659.8076923076924 1038 3680.346153846154 1038 3700.8846153846152 1038 3721.423076923077 1038 3741.9615384615386 1038 3762.5 1038 3783.0384615384614 1038 3803.576923076923 1038 3824.1153846153848 1038 3844.653846153846 1038 3865.1923076923076 1038 3885.7307692307695 1038 3906.269230769231 1038 3926.8076923076924 1038 3947.346153846154 1038 3967.8846153846152 1038 3988.423076923077 1038 4008.9615384615386 1038 4029.5 1038 4050.038461538462 1038 4070.576923076923 1038 4091.1153846153848 1038 4111.653846153846 1038 4132.192307692308 1038 4152.7307692307695 1038 4173.2692307692305 1038 4193.807692307692 1038 4214.346153846154 1038 4234.884615384615 1038 4255.423076923077 1038 4275.961538461539 1038 4296.5 1038 4296.5 533.8563895965401 4275.961538461539 534.5768114224777 4255.423076923077 536.0934889507673 4234.884615384615 537.2309970969844 4214.346153846154 538.1789205521654 4193.807692307692 538.747674625274 4173.2692307692305 539.3164286983827 4152.7307692307695 540.4918537828071 4132.192307692308 541.0606078559156 4111.653846153846 541.8568635582676 4091.1153846153848 542.9185378280704 4070.576923076923 543.7527104686296 4050.038461538462 544.7764678002252 4029.5 545.7623081936133 4008.9615384615386 546.7481485870017 3988.423076923077 548.2269091770839 3967.8846153846152 548.9473310030215 3947.346153846154 549.8573375199953 3926.8076923076924 550.5019254695184 3906.269230769231 551.6015166775283 3885.7307692307695 552.5873570709166 3865.1923076923076 553.1181942058179 3844.653846153846 553.9144499081699 3824.1153846153848 554.6348717341075 3803.576923076923 555.4311274364595 3783.0384615384614 555.5827951892885 3762.5 556.0377984477753 3741.9615384615386 556.5686355826767 3721.423076923077 557.554475976065 3700.8846153846152 558.7678179986966 3680.346153846154 560.3603294034007 3659.8076923076924 560.6636649090585 3639.269230769231 561.7253391788613 3618.7307692307695 562.3320101901771 3598.1923076923076 563.734936903845 3577.653846153846 564.3036909769537 3557.1153846153848 565.5928668759998 3536.576923076923 565.7066176906214 3516.0384615384614 566.5407903311807 3495.5 567.526630724569 3474.9615384615386 568.7778896854079 3454.423076923077 569.4603945731383 3433.8846153846152 570.067065584454 3413.346153846154 571.2804076070857 3392.8076923076924 572.0766633094378 3372.269230769231 572.9487528882044 3351.730769230769 573.8966763433853 3331.1923076923076 574.6550151075301 3310.653846153846 575.3754369334677 3290.1153846153848 576.2096095740269 3269.576923076923 576.5887789560993 3249.0384615384614 577.5367024112803 3228.5 578.7879613721193 3228.5 1038Z" fill="#005aa6" opacity="0.9" />
		</g>
		<g>
			<path d="M3228.5 578.7879613721193 3249.0384615384614 577.5367024112803 3269.576923076923 576.5887789560993 3290.1153846153848 576.2096095740269 3310.653846153846 575.3754369334677 3331.1923076923076 574.6550151075301 3351.730769230769 573.8966763433853 3372.269230769231 572.9487528882044 3392.8076923076924 572.0766633094378 3413.346153846154 571.2804076070857 3433.8846153846152 570.067065584454 3454.423076923077 569.4603945731383 3474.9615384615386 568.7778896854079 3495.5 567.526630724569 3516.0384615384614 566.5407903311807 3536.576923076923 565.7066176906214 3557.1153846153848 565.5928668759998 3577.653846153846 564.3036909769537 3598.1923076923076 563.734936903845 3618.7307692307695 562.3320101901771 3639.269230769231 561.7253391788613 3659.8076923076924 560.6636649090585 3680.346153846154 560.3603294034007 3700.8846153846152 558.7678179986966 3721.423076923077 557.554475976065 3741.9615384615386 556.5686355826767 3762.5 556.0377984477753 3783.0384615384614 555.5827951892885 3803.576923076923 555.4311274364595 3824.1153846153848 554.6348717341075 3844.653846153846 553.9144499081699 3865.1923076923076 553.1181942058179 3885.7307692307695 552.5873570709166 3906.269230769231 551.6015166775283 3926.8076923076924 550.5019254695184 3947.346153846154 549.8573375199953 3967.8846153846152 548.9473310030215 3988.423076923077 548.2269091770839 4008.9615384615386 546.7481485870017 4029.5 545.7623081936133 4050.038461538462 544.7764678002252 4070.576923076923 543.7527104686296 4091.1153846153848 542.9185378280704 4111.653846153846 541.8568635582676 4132.192307692308 541.0606078559156 4152.7307692307695 540.4918537828071 4173.2692307692305 539.3164286983827 4193.807692307692 538.747674625274 4214.346153846154 538.1789205521654 4234.884615384615 537.2309970969844 4255.423076923077 536.0934889507673 4275.961538461539 534.5768114224777 4296.5 533.8563895965401 4296.5 398 4275.961538461539 399.0616742698028 4255.423076923077 401.8296107589313 4234.884615384615 403.19462053439185 4214.346153846154 404.483796433438 4193.807692307692 405.16630132116836 4173.2692307692305 406.07630783814216 4152.7307692307695 407.4413176136028 4132.192307692308 408.4271580069909 4111.653846153846 409.37508146217186 4091.1153846153848 410.70217429942534 4070.576923076923 411.7259316310208 4050.038461538462 413.015107530067 4029.5 414.1905326144913 4008.9615384615386 415.44179157533034 3988.423076923077 417.3376384856923 3967.8846153846152 418.20972806445883 3947.346153846154 419.42307008709054 3926.8076923076924 420.446827418686 3906.269230769231 421.8497541323538 3885.7307692307695 423.0251792167783 3865.1923076923076 423.7456010427158 3844.653846153846 425.3001955092126 3824.1153846153848 426.0964512115647 3803.576923076923 427.0443746667457 3783.0384615384614 427.23395935778194 3762.5 427.7647964926832 3741.9615384615386 428.2956336275846 3721.423076923077 429.58480952663075 3700.8846153846152 431.0256531785059 3680.346153846154 432.80774927424613 3659.8076923076924 433.3765033473546 3639.269230769231 434.6656792464008 3618.7307692307695 435.3861010723384 3598.1923076923076 436.9406955388352 3577.653846153846 437.6990343029801 3557.1153846153848 439.1398779548552 3536.576923076923 439.29154570768407 3516.0384615384614 440.391136915694 3495.5 441.49072812370406 3474.9615384615386 442.93157177557913 3454.423076923077 443.76574441613843 3433.8846153846152 444.5240831802831 3413.346153846154 445.8132590793294 3392.8076923076924 446.7990994727176 3372.269230769231 447.7470229278987 3351.730769230769 449.0361988269447 3331.1923076923076 449.870371467504 3310.653846153846 450.818294922685 3290.1153846153848 451.766218377866 3269.576923076923 452.4108063273891 3249.0384615384614 453.662065288228 3228.5 455.1029089401032 3228.5 578.7879613721193Z" fill="#e62d39" opacity="0.9" />
		</g>
		<g>
			<rect x="4372" y="431" width="22.9995" height="23" fill="#005aa6" />
		</g>
		<g>
			<text fill="#595959" font-family="Verdana,Open Sans,DejaVu Sans,sans-serif" font-weight="400" font-size="41" transform="matrix(1 0 0 1 4404.56 454)">Web Browser</text>
		</g>
		<g>
			<rect x="4372" y="508" width="22.9995" height="23" fill="#e62d39" />
		</g>
		<g>
			<text fill="#595959" font-family="Verdana,Open Sans,DejaVu Sans,sans-serif" font-weight="400" font-size="41" transform="matrix(1 0 0 1 4404.56 531)">App</text>
		</g>
	</g>
</svg>
