<svg width="1763" height="1046"
    xmlns="http://www.w3.org/2000/svg"
	xmlns:xlink="http://www.w3.org/1999/xlink" xml:space="preserve" overflow="hidden">
	<defs>
		<clipPath id="clip0">
			<rect x="2917" y="346" width="1763" height="1046"/>
		</clipPath>
	</defs>
	<g clip-path="url(#clip0)" transform="translate(-2917 -346)">
		<rect x="2918" y="347" width="1760" height="1043" fill="#FFFFFF" />
		<g>
			<path d="
			M3228.5 974.532 4296.5 974.532
			M3228.5 910.53 4296.5 910.53
			M3228.5 846.528 4296.5 846.528
			M3228.5 781.526 4296.5 781.526
			M3228.5 717.524 4296.5 717.524
			M3228.5 653.522 4296.5 653.522
			M3228.5 589.52 4296.5 589.52
			M3228.5 525.517 4296.5 525.517
			M3228.5 461.515 4296.5 461.515
			M3228.5 397.5 4296.5 397.5" stroke="#D9D9D9" stroke-width="3.4375" stroke-linejoin="round" stroke-miterlimit="10" fill="none" />
		</g>
		<g>
			<path d="M 1038.5 4296.5 1038.5" stroke="#D9D9D9" stroke-width="3.4375" stroke-linejoin="round" stroke-miterlimit="10" fill="none" fill-rule="evenodd" />
		</g>
		<g>
			<text fill="#595959" font-family="Verdana,Open Sans,DejaVu Sans,sans-serif" font-weight="400" font-size="41" transform="matrix(6.12323e-17 -1 1 6.12323e-17 3248.269287109375 1203.3022384643555)">28-Apr</text>
		</g>
		<g>
			<text fill="#595959" font-family="Verdana,Open Sans,DejaVu Sans,sans-serif" font-weight="400" font-size="41" transform="matrix(6.12323e-17 -1 1 6.12323e-17 3333.709287109375 1216.51513671875)">26-May</text>
		</g>
		<g>
			<text fill="#595959" font-family="Verdana,Open Sans,DejaVu Sans,sans-serif" font-weight="400" font-size="41" transform="matrix(6.12323e-17 -1 1 6.12323e-17 3418.09826171875 1194.1733322143555)">30-Jun</text>
		</g>
		<g>
			<text fill="#595959" font-family="Verdana,Open Sans,DejaVu Sans,sans-serif" font-weight="400" font-size="41" transform="matrix(6.12323e-17 -1 1 6.12323e-17 3504.248955078125 1179.0385665893555)">28-Jul</text>
		</g>
		<g>
			<text fill="#595959" font-family="Verdana,Open Sans,DejaVu Sans,sans-serif" font-weight="400" font-size="41" transform="matrix(6.12323e-17 -1 1 6.12323e-17 3590.029287109375 1208.66748046875)">25-Aug</text>
		</g>
		<g>
			<text fill="#595959" font-family="Verdana,Open Sans,DejaVu Sans,sans-serif" font-weight="400" font-size="41" transform="matrix(6.12323e-17 -1 1 6.12323e-17 3675.469287109375 1204.42333984375)">22-Sep</text>
		</g>
		<g>
			<text fill="#595959" font-family="Verdana,Open Sans,DejaVu Sans,sans-serif" font-weight="400" font-size="41" transform="matrix(6.12323e-17 -1 1 6.12323e-17 3756.204697265625 1201.1401290893555)">20-Oct</text>
		</g>
		<g>
			<text fill="#595959" font-family="Verdana,Open Sans,DejaVu Sans,sans-serif" font-weight="400" font-size="41" transform="matrix(6.12323e-17 -1 1 6.12323e-17 3841.41447265625 1209.70849609375)">17-Nov</text>
		</g>
		<g>
			<text fill="#595959" font-family="Verdana,Open Sans,DejaVu Sans,sans-serif" font-weight="400" font-size="41" transform="matrix(6.12323e-17 -1 1 6.12323e-17 3926.85447265625 1205.3642578125)">15-Dec</text>
		</g>
		<g>
			<text fill="#595959" font-family="Verdana,Open Sans,DejaVu Sans,sans-serif" font-weight="400" font-size="41" transform="matrix(6.12323e-17 -1 1 6.12323e-17 4016.1582421875 1189.9291915893555)">12-Jan</text>
		</g>
		<g>
			<text fill="#595959" font-family="Verdana,Open Sans,DejaVu Sans,sans-serif" font-weight="400" font-size="41" transform="matrix(6.12323e-17 -1 1 6.12323e-17 4098.675390625 1203.0419921875)">09-Feb</text>
		</g>
		<g>
			<text fill="#595959" font-family="Verdana,Open Sans,DejaVu Sans,sans-serif" font-weight="400" font-size="41" transform="matrix(6.12323e-17 -1 1 6.12323e-17 4183.404697265625 1212.0107421875)">09-Mar</text>
		</g>
		<g>
			<text fill="#595959" font-family="Verdana,Open Sans,DejaVu Sans,sans-serif" font-weight="400" font-size="41" transform="matrix(6.12323e-17 -1 1 6.12323e-17 4273.569306640625 1203.2621994018555)">06-Apr</text>
		</g>
		<g>
			<text fill="#595959" font-family="Verdana,Open Sans,DejaVu Sans,sans-serif" font-weight="400" font-size="41" transform="matrix(1 0 0 1 3169.14111328125 1050)">0</text>
		</g>
		<g>
			<text fill="#595959" font-family="Verdana,Open Sans,DejaVu Sans,sans-serif" font-weight="400" font-size="41" transform="matrix(1 0 0 1 3088.7626953125 922)">3,309</text>
		</g>
		<g>
			<text fill="#595959" font-family="Verdana,Open Sans,DejaVu Sans,sans-serif" font-weight="400" font-size="41" transform="matrix(1 0 0 1 3089.14306640625 794)">6,618</text>
		</g>
		<g>
			<text fill="#595959" font-family="Verdana,Open Sans,DejaVu Sans,sans-serif" font-weight="400" font-size="41" transform="matrix(1 0 0 1 3088.802734375 666)">9,926</text>
		</g>
		<g>
			<text fill="#595959" font-family="Verdana,Open Sans,DejaVu Sans,sans-serif" font-weight="400" font-size="41" transform="matrix(1 0 0 1 3067.3618240356445 538)">13,235</text>
		</g>
		<g>
			<text fill="#595959" font-family="Verdana,Open Sans,DejaVu Sans,sans-serif" font-weight="400" font-size="41" transform="matrix(1 0 0 1 3065.8203201293945 410)">16,544</text>
		</g>
		<g>
			<text fill="#595959" font-family="Verdana,Open Sans,DejaVu Sans,sans-serif" font-weight="400" font-size="41" transform="matrix(1 0 0 1 3556.97119140625 1321)">Week Commencing</text>
		</g>
		<g>
			<text fill="#595959" font-family="Verdana,Open Sans,DejaVu Sans,sans-serif" font-weight="400" font-size="46" transform="matrix(6.12323e-17 -1 1 6.12323e-17 3019.73 1011.673828125)">Number of Browser Profiles</text>
		</g>
		<rect x="2918.5" y="347.5" width="1760" height="1043" stroke="#D9D9D9" stroke-width="3.4375" stroke-linejoin="round" stroke-miterlimit="10" fill="none" />
		<g>
			<path d="M3228.5 1038 3249.86 1038 3271.22 1038 3292.58 1038 3313.94 1038 3335.3 1038 3356.66 1038 3378.02 1038 3399.38 1038 3420.74 1038 3442.1 1038 3463.46 1038 3484.82 1038 3506.18 1038 3527.54 1038 3548.9 1038 3570.26 1038 3591.62 1038 3612.98 1038 3634.34 1038 3655.7 1038 3677.06 1038 3698.42 1038 3719.7799999999997 1038 3741.14 1038 3762.5 1038 3783.86 1038 3805.2200000000003 1038 3826.58 1038 3847.94 1038 3869.3 1038 3890.66 1038 3912.02 1038 3933.38 1038 3954.74 1038 3976.1 1038 3997.46 1038 4018.8199999999997 1038 4040.18 1038 4061.54 1038 4082.9 1038 4104.26 1038 4125.62 1038 4146.98 1038 4168.34 1038 4189.7 1038 4211.0599999999995 1038 4232.42 1038 4253.78 1038 4275.139999999999 1038 4296.5 1038 4296.5 532.8936170212766 4275.139999999999 533.7446808510638 4253.78 534.7891682785299 4232.42 535.7949709864604 4211.0599999999995 536.8007736943907 4189.7 538.3094777562862 4168.34 539.044487427466 4146.98 539.972920696325 4125.62 540.6305609284332 4104.26 541.7524177949709 4082.9 542.7582205029014 4061.54 543.2998065764023 4040.18 544.1121856866537 4018.8199999999997 544.8471953578337 3997.46 545.6595744680851 3976.1 545.8143133462281 3954.74 546.2785299806576 3933.38 546.8201160541586 3912.02 547.8259187620889 3890.66 549.063829787234 3869.3 550.6885880077368 3847.94 550.9980657640232 3826.58 552.081237911025 3805.2200000000003 552.7001934235976 3783.86 554.1315280464216 3762.5 554.7117988394584 3741.14 556.027079303675 3719.7799999999997 556.1431334622823 3698.42 556.9941972920697 3677.06 558 3655.7 559.2765957446809 3634.34 559.972920696325 3612.98 560.5918762088975 3591.62 561.8297872340424 3570.26 562.642166344294 3548.9 563.531914893617 3527.54 564.4990328820115 3506.18 565.2727272727273 3484.82 566.007736943907 3463.46 566.8588007736944 3442.1 567.2456479690522 3420.74 568.2127659574468 3399.38 569.4893617021276 3378.02 570.0696324951643 3356.66 571.1914893617021 3335.3 572.5067698259188 3313.94 574.0928433268858 3292.58 575.1760154738878 3271.22 576.2205029013539 3249.86 577.110251450677 3228.5 577.9226305609284 3228.5 1038Z" fill="#005aa6" opacity="0.9" />
		</g>
		<g>
			<path d="M3228.5 577.9226305609284 3249.86 577.110251450677 3271.22 576.2205029013539 3292.58 575.1760154738878 3313.94 574.0928433268858 3335.3 572.5067698259188 3356.66 571.1914893617021 3378.02 570.0696324951643 3399.38 569.4893617021276 3420.74 568.2127659574468 3442.1 567.2456479690522 3463.46 566.8588007736944 3484.82 566.007736943907 3506.18 565.2727272727273 3527.54 564.4990328820115 3548.9 563.531914893617 3570.26 562.642166344294 3591.62 561.8297872340424 3612.98 560.5918762088975 3634.34 559.972920696325 3655.7 559.2765957446809 3677.06 558 3698.42 556.9941972920697 3719.7799999999997 556.1431334622823 3741.14 556.027079303675 3762.5 554.7117988394584 3783.86 554.1315280464216 3805.2200000000003 552.7001934235976 3826.58 552.081237911025 3847.94 550.9980657640232 3869.3 550.6885880077368 3890.66 549.063829787234 3912.02 547.8259187620889 3933.38 546.8201160541586 3954.74 546.2785299806576 3976.1 545.8143133462281 3997.46 545.6595744680851 4018.8199999999997 544.8471953578337 4040.18 544.1121856866537 4061.54 543.2998065764023 4082.9 542.7582205029014 4104.26 541.7524177949709 4125.62 540.6305609284332 4146.98 539.972920696325 4168.34 539.044487427466 4189.7 538.3094777562862 4211.0599999999995 536.8007736943907 4232.42 535.7949709864604 4253.78 534.7891682785299 4275.139999999999 533.7446808510638 4296.5 532.8936170212766 4296.5 397.99999999999994 4275.139999999999 399.0444874274661 4253.78 400.35976789168274 4232.42 401.5589941972921 4211.0599999999995 402.8355899419729 4189.7 404.7698259187621 4168.34 405.659574468085 4146.98 406.8974854932302 4125.62 407.94197292069623 4104.26 409.37330754352024 4082.9 410.5725338491296 4061.54 411.3075435203094 4040.18 412.8936170212765 4018.8199999999997 413.7059961315281 3997.46 414.6731141199226 3976.1 414.86653771760143 3954.74 415.40812379110247 3933.38 415.94970986460345 3912.02 417.2649903288201 3890.66 418.7350096711798 3869.3 420.55319148936155 3847.94 421.13346228239845 3826.58 422.4487427466149 3805.2200000000003 423.18375241779495 3783.86 424.7698259187621 3762.5 425.5435203094778 3741.14 427.0135396518375 3719.7799999999997 427.16827852998057 3698.42 428.2901353965184 3677.06 429.41199226305605 3655.7 430.88201160541587 3634.34 431.7330754352031 3612.98 432.50676982591875 3591.62 433.8220502901353 3570.26 434.82785299806574 3548.9 435.7949709864603 3527.54 437.1102514506769 3506.18 437.9613152804642 3484.82 438.92843326885867 3463.46 439.8955512572534 3442.1 440.5531914893617 3420.74 441.8297872340425 3399.38 443.2998065764022 3378.02 443.99613152804636 3356.66 445.23404255319144 3335.3 446.6653771760155 3313.94 448.7930367504835 3292.58 450.06963249516434 3271.22 451.34622823984523 3249.86 452.3907156673114 3228.5 453.31914893617017 3228.5 577.9226305609284Z" fill="#e62d39" opacity="0.9" />
		</g>
		<g>
			<rect x="4372" y="431" width="22.9995" height="23" fill="#005aa6" />
		</g>
		<g>
			<text fill="#595959" font-family="Verdana,Open Sans,DejaVu Sans,sans-serif" font-weight="400" font-size="41" transform="matrix(1 0 0 1 4404.56 454)">Web Browser</text>
		</g>
		<g>
			<rect x="4372" y="508" width="22.9995" height="23" fill="#e62d39" />
		</g>
		<g>
			<text fill="#595959" font-family="Verdana,Open Sans,DejaVu Sans,sans-serif" font-weight="400" font-size="41" transform="matrix(1 0 0 1 4404.56 531)">App</text>
		</g>
	</g>
</svg>
