<svg width="1763" height="1046"
    xmlns="http://www.w3.org/2000/svg"
	xmlns:xlink="http://www.w3.org/1999/xlink" xml:space="preserve" overflow="hidden">
	<defs>
		<clipPath id="clip0">
			<rect x="2917" y="346" width="1763" height="1046"/>
		</clipPath>
	</defs>
	<g clip-path="url(#clip0)" transform="translate(-2917 -346)">
		<rect x="2918" y="347" width="1760" height="1043" fill="#FFFFFF" />
		<g>
			<path d="
			M3228.5 974.532 4296.5 974.532
			M3228.5 910.53 4296.5 910.53
			M3228.5 846.528 4296.5 846.528
			M3228.5 781.526 4296.5 781.526
			M3228.5 717.524 4296.5 717.524
			M3228.5 653.522 4296.5 653.522
			M3228.5 589.52 4296.5 589.52
			M3228.5 525.517 4296.5 525.517
			M3228.5 461.515 4296.5 461.515
			M3228.5 397.5 4296.5 397.5" stroke="#D9D9D9" stroke-width="3.4375" stroke-linejoin="round" stroke-miterlimit="10" fill="none" />
		</g>
		<g>
			<path d="M 1038.5 4296.5 1038.5" stroke="#D9D9D9" stroke-width="3.4375" stroke-linejoin="round" stroke-miterlimit="10" fill="none" fill-rule="evenodd" />
		</g>
		<g>
			<text fill="#595959" font-family="Verdana,Open Sans,DejaVu Sans,sans-serif" font-weight="400" font-size="41" transform="matrix(6.12323e-17 -1 1 6.12323e-17 3248.269287109375 1208.66748046875)">26-Aug</text>
		</g>
		<g>
			<text fill="#595959" font-family="Verdana,Open Sans,DejaVu Sans,sans-serif" font-weight="400" font-size="41" transform="matrix(6.12323e-17 -1 1 6.12323e-17 3335.452960578763 1204.42333984375)">23-Sep</text>
		</g>
		<g>
			<text fill="#595959" font-family="Verdana,Open Sans,DejaVu Sans,sans-serif" font-weight="400" font-size="41" transform="matrix(6.12323e-17 -1 1 6.12323e-17 3417.9320442044004 1201.1401290893555)">21-Oct</text>
		</g>
		<g>
			<text fill="#595959" font-family="Verdana,Open Sans,DejaVu Sans,sans-serif" font-weight="400" font-size="41" transform="matrix(6.12323e-17 -1 1 6.12323e-17 3505.0956981425384 1209.70849609375)">18-Nov</text>
		</g>
		<g>
			<text fill="#595959" font-family="Verdana,Open Sans,DejaVu Sans,sans-serif" font-weight="400" font-size="41" transform="matrix(6.12323e-17 -1 1 6.12323e-17 3592.279371611926 1207.1259765625)">23-Dec</text>
		</g>
		<g>
			<text fill="#595959" font-family="Verdana,Open Sans,DejaVu Sans,sans-serif" font-weight="400" font-size="41" transform="matrix(6.12323e-17 -1 1 6.12323e-17 3683.136629065689 1191.6909103393555)">20-Jan</text>
		</g>
		<g>
			<text fill="#595959" font-family="Verdana,Open Sans,DejaVu Sans,sans-serif" font-weight="400" font-size="41" transform="matrix(6.12323e-17 -1 1 6.12323e-17 3767.3774314413267 1201.3203125)">17-Feb</text>
		</g>
		<g>
			<text fill="#595959" font-family="Verdana,Open Sans,DejaVu Sans,sans-serif" font-weight="400" font-size="41" transform="matrix(6.12323e-17 -1 1 6.12323e-17 3853.620186941964 1210.2890625)">17-Mar</text>
		</g>
		<g>
			<text fill="#595959" font-family="Verdana,Open Sans,DejaVu Sans,sans-serif" font-weight="400" font-size="41" transform="matrix(6.12323e-17 -1 1 6.12323e-17 3945.608547911352 1201.5405197143555)">14-Apr</text>
		</g>
		<g>
			<text fill="#595959" font-family="Verdana,Open Sans,DejaVu Sans,sans-serif" font-weight="400" font-size="41" transform="matrix(6.12323e-17 -1 1 6.12323e-17 4032.9223483338646 1214.75341796875)">12-May</text>
		</g>
		<g>
			<text fill="#595959" font-family="Verdana,Open Sans,DejaVu Sans,sans-serif" font-weight="400" font-size="41" transform="matrix(6.12323e-17 -1 1 6.12323e-17 4119.034976881378 1192.2914962768555)">16-Jun</text>
		</g>
		<g>
			<text fill="#595959" font-family="Verdana,Open Sans,DejaVu Sans,sans-serif" font-weight="400" font-size="41" transform="matrix(6.12323e-17 -1 1 6.12323e-17 4206.9493632413905 1177.2768478393555)">14-Jul</text>
		</g>
		<g>
			<text fill="#595959" font-family="Verdana,Open Sans,DejaVu Sans,sans-serif" font-weight="400" font-size="41" transform="matrix(6.12323e-17 -1 1 6.12323e-17 4294.3232222576535 1206.90576171875)">11-Aug</text>
		</g>
		<g>
			<text fill="#595959" font-family="Verdana,Open Sans,DejaVu Sans,sans-serif" font-weight="400" font-size="41" transform="matrix(1 0 0 1 3169.14111328125 1050)">0</text>
		</g>
		<g>
			<text fill="#595959" font-family="Verdana,Open Sans,DejaVu Sans,sans-serif" font-weight="400" font-size="41" transform="matrix(1 0 0 1 3088.962890625 922)">3,113</text>
		</g>
		<g>
			<text fill="#595959" font-family="Verdana,Open Sans,DejaVu Sans,sans-serif" font-weight="400" font-size="41" transform="matrix(1 0 0 1 3089.10302734375 794)">6,227</text>
		</g>
		<g>
			<text fill="#595959" font-family="Verdana,Open Sans,DejaVu Sans,sans-serif" font-weight="400" font-size="41" transform="matrix(1 0 0 1 3088.8427734375 666)">9,340</text>
		</g>
		<g>
			<text fill="#595959" font-family="Verdana,Open Sans,DejaVu Sans,sans-serif" font-weight="400" font-size="41" transform="matrix(1 0 0 1 3065.8203201293945 538)">12,454</text>
		</g>
		<g>
			<text fill="#595959" font-family="Verdana,Open Sans,DejaVu Sans,sans-serif" font-weight="400" font-size="41" transform="matrix(1 0 0 1 3067.0815505981445 410)">15,567</text>
		</g>
		<g>
			<text fill="#595959" font-family="Verdana,Open Sans,DejaVu Sans,sans-serif" font-weight="400" font-size="41" transform="matrix(1 0 0 1 3556.97119140625 1321)">Week Commencing</text>
		</g>
		<g>
			<text fill="#595959" font-family="Verdana,Open Sans,DejaVu Sans,sans-serif" font-weight="400" font-size="46" transform="matrix(6.12323e-17 -1 1 6.12323e-17 3019.73 1011.673828125)">Number of Browser Profiles</text>
		</g>
		<rect x="2918.5" y="347.5" width="1760" height="1043" stroke="#D9D9D9" stroke-width="3.4375" stroke-linejoin="round" stroke-miterlimit="10" fill="none" />
		<g>
			<path d="M3228.5 1038 3250.295918367347 1038 3272.091836734694 1038 3293.887755102041 1038 3315.683673469388 1038 3337.4795918367345 1038 3359.2755102040815 1038 3381.0714285714284 1038 3402.8673469387754 1038 3424.6632653061224 1038 3446.4591836734694 1038 3468.2551020408164 1038 3490.0510204081634 1038 3511.8469387755104 1038 3533.6428571428573 1038 3555.4387755102043 1038 3577.234693877551 1038 3599.030612244898 1038 3620.826530612245 1038 3642.622448979592 1038 3664.418367346939 1038 3686.214285714286 1038 3708.0102040816328 1038 3729.8061224489797 1038 3751.6020408163267 1038 3773.3979591836733 1038 3795.1938775510203 1038 3816.9897959183672 1038 3838.785714285714 1038 3860.581632653061 1038 3882.377551020408 1038 3904.173469387755 1038 3925.969387755102 1038 3947.765306122449 1038 3969.5612244897957 1038 3991.357142857143 1038 4013.1530612244896 1038 4034.9489795918366 1038 4056.7448979591836 1038 4078.5408163265306 1038 4100.336734693878 1038 4122.132653061224 1038 4143.928571428572 1038 4165.724489795918 1038 4187.5204081632655 1038 4209.316326530612 1038 4231.1122448979595 1038 4252.908163265306 1038 4274.7040816326535 1038 4296.5 1038 4296.5 533.753838247575 4274.7040816326535 534.7816534977837 4252.908163265306 535.6039056979507 4231.1122448979595 536.3850452881095 4209.316326530612 537.2895227082931 4187.5204081632655 537.7006488083766 4165.724489795918 538.7284640585854 4143.928571428572 540.085180188861 4122.132653061224 540.7018693389863 4100.336734693878 541.8941350292284 4078.5408163265306 543.2919637695124 4056.7448979591836 544.9775807798549 4034.9489795918366 546.1287338600887 4013.1530612244896 547.2387743303141 3991.357142857143 548.1843643605062 3969.5612244897957 549.0477291706816 3947.765306122449 550.034431810882 3925.969387755102 550.9389092310657 3904.173469387755 552.4600758013746 3882.377551020408 553.1178775615083 3860.581632653061 553.775679321642 3838.785714285714 554.5568189118005 3816.9897959183672 555.6668593820261 3795.1938775510203 556.81801246226 3773.3979591836733 557.7224898824436 3751.6020408163267 558.2980664225605 3729.8061224489797 559.2436564527526 3708.0102040816328 560.6414851930365 3686.214285714286 561.2581743431617 3664.418367346939 561.9570887133037 3642.622448979592 562.450440033404 3620.826530612245 563.1904670135543 3599.030612244898 563.6838183336545 3577.234693877551 563.9716066037129 3555.4387755102043 564.917196633905 3533.6428571428573 565.6161110040471 3511.8469387755104 567.1783901843644 3490.0510204081634 568.2062054345731 3468.2551020408164 568.8228945846984 3446.4591836734694 569.4395837348236 3424.6632653061224 570.3440611550074 3402.8673469387754 571.0840881351577 3381.0714285714284 571.7830025052997 3359.2755102040815 572.646367315475 3337.4795918367345 573.9619708357422 3315.683673469388 574.3730969358257 3293.887755102041 575.4420247960429 3272.091836734694 576.3465022162266 3250.295918367347 576.9631913663518 3228.5 577.8676687865357 3228.5 1038Z" fill="#e62d39" opacity="0.9" />
		</g>
		<g>
			<path d="M3228.5 577.8676687865357 3250.295918367347 576.9631913663518 3272.091836734694 576.3465022162266 3293.887755102041 575.4420247960429 3315.683673469388 574.3730969358257 3337.4795918367345 573.9619708357422 3359.2755102040815 572.646367315475 3381.0714285714284 571.7830025052997 3402.8673469387754 571.0840881351577 3424.6632653061224 570.3440611550074 3446.4591836734694 569.4395837348236 3468.2551020408164 568.8228945846984 3490.0510204081634 568.2062054345731 3511.8469387755104 567.1783901843644 3533.6428571428573 565.6161110040471 3555.4387755102043 564.917196633905 3577.234693877551 563.9716066037129 3599.030612244898 563.6838183336545 3620.826530612245 563.1904670135543 3642.622448979592 562.450440033404 3664.418367346939 561.9570887133037 3686.214285714286 561.2581743431617 3708.0102040816328 560.6414851930365 3729.8061224489797 559.2436564527526 3751.6020408163267 558.2980664225605 3773.3979591836733 557.7224898824436 3795.1938775510203 556.81801246226 3816.9897959183672 555.6668593820261 3838.785714285714 554.5568189118005 3860.581632653061 553.775679321642 3882.377551020408 553.1178775615083 3904.173469387755 552.4600758013746 3925.969387755102 550.9389092310657 3947.765306122449 550.034431810882 3969.5612244897957 549.0477291706816 3991.357142857143 548.1843643605062 4013.1530612244896 547.2387743303141 4034.9489795918366 546.1287338600887 4056.7448979591836 544.9775807798549 4078.5408163265306 543.2919637695124 4100.336734693878 541.8941350292284 4122.132653061224 540.7018693389863 4143.928571428572 540.085180188861 4165.724489795918 538.7284640585854 4187.5204081632655 537.7006488083766 4209.316326530612 537.2895227082931 4231.1122448979595 536.3850452881095 4252.908163265306 535.6039056979507 4274.7040816326535 534.7816534977837 4296.5 533.753838247575 4296.5 398 4274.7040816326535 399.3978287402839 4252.908163265306 400.30230616046754 4231.1122448979595 401.3301214106765 4209.316326530612 402.3579366608851 4187.5204081632655 403.0568510310271 4165.724489795918 404.41356716130264 4143.928571428572 405.97584634162007 4122.132653061224 406.71587332177035 4100.336734693878 408.0314768420376 4078.5408163265306 409.55264341234664 4056.7448979591836 411.81383696280596 4034.9489795918366 413.17055309308154 4013.1530612244896 414.52726922335705 3991.357142857143 415.63730969358255 3969.5612244897957 416.624012333783 3947.765306122449 417.81627802402517 3925.969387755102 418.8852058842423 3904.173469387755 420.61193550459296 3882.377551020408 421.4753003147684 3860.581632653061 422.2153272949188 3838.785714285714 423.11980471510236 3816.9897959183672 424.55874606539476 3795.1938775510203 425.8332369756537 3773.3979591836733 426.86105222586235 3751.6020408163267 427.6833044260294 3729.8061224489797 428.87557011627155 3708.0102040816328 430.43784929658887 3686.214285714286 431.2189888867475 3664.418367346939 432.1645789169396 3642.622448979592 432.8634932870816 3620.826530612245 433.72685809725704 3599.030612244898 434.2613220273655 3577.234693877551 434.5491102974239 3555.4387755102043 435.6591507676494 3533.6428571428573 436.5636281878333 3511.8469387755104 438.41369563820905 3490.0510204081634 439.6881865484679 3468.2551020408164 440.5104387486349 3446.4591836734694 441.86715487891047 3424.6632653061224 442.97719534913597 3402.8673469387754 443.8816727693197 3381.0714285714284 444.7450375794951 3359.2755102040815 445.73174021969544 3337.4795918367345 447.1706815699878 3315.683673469388 447.7462581101047 3293.887755102041 449.10297424038026 3272.091836734694 450.21301471060565 3250.295918367347 450.9941543007643 3228.5 452.1041947709899 3228.5 577.8676687865357Z" fill="#005aa6" opacity="0.9" />
		</g>
		<g>
			<rect x="4372" y="431" width="22.9995" height="23" fill="#e62d39" />
		</g>
		<g>
			<text fill="#595959" font-family="Verdana,Open Sans,DejaVu Sans,sans-serif" font-weight="400" font-size="41" transform="matrix(1 0 0 1 4404.56 454)">Web Browser</text>
		</g>
		<g>
			<rect x="4372" y="508" width="22.9995" height="23" fill="#005aa6" />
		</g>
		<g>
			<text fill="#595959" font-family="Verdana,Open Sans,DejaVu Sans,sans-serif" font-weight="400" font-size="41" transform="matrix(1 0 0 1 4404.56 531)">App</text>
		</g>
	</g>
</svg>
