<svg width="1763" height="1046"
    xmlns="http://www.w3.org/2000/svg"
	xmlns:xlink="http://www.w3.org/1999/xlink" xml:space="preserve" overflow="hidden">
	<defs>
		<clipPath id="clip0">
			<rect x="2917" y="346" width="1763" height="1046"/>
		</clipPath>
	</defs>
	<g clip-path="url(#clip0)" transform="translate(-2917 -346)">
		<rect x="2918" y="347" width="1760" height="1043" fill="#FFFFFF" />
		<g>
			<path d="
			M3228.5 974.532 4296.5 974.532
			M3228.5 910.53 4296.5 910.53
			M3228.5 846.528 4296.5 846.528
			M3228.5 781.526 4296.5 781.526
			M3228.5 717.524 4296.5 717.524
			M3228.5 653.522 4296.5 653.522
			M3228.5 589.52 4296.5 589.52
			M3228.5 525.517 4296.5 525.517
			M3228.5 461.515 4296.5 461.515
			M3228.5 397.5 4296.5 397.5" stroke="#D9D9D9" stroke-width="3.4375" stroke-linejoin="round" stroke-miterlimit="10" fill="none" />
		</g>
		<g>
			<path d="M 1038.5 4296.5 1038.5" stroke="#D9D9D9" stroke-width="3.4375" stroke-linejoin="round" stroke-miterlimit="10" fill="none" fill-rule="evenodd" />
		</g>
		<g>
			<text fill="#595959" font-family="Verdana,sans-serif" font-weight="400" font-size="41" transform="matrix(6.12323e-17 -1 1 6.12323e-17 3244.5 1225)">06-Nov</text>
		</g>
		<g>
			<text fill="#595959" font-family="Verdana,sans-serif" font-weight="400" font-size="41" transform="matrix(6.12323e-17 -1 1 6.12323e-17 3313.4032258064517 1224)">20-Nov</text>
		</g>
		<g>
			<text fill="#595959" font-family="Verdana,sans-serif" font-weight="400" font-size="41" transform="matrix(6.12323e-17 -1 1 6.12323e-17 3382.3064516129034 1223)">04-Dec</text>
		</g>
		<g>
			<text fill="#595959" font-family="Verdana,sans-serif" font-weight="400" font-size="41" transform="matrix(6.12323e-17 -1 1 6.12323e-17 3451.2096774193546 1220)">18-Dec</text>
		</g>
		<g>
			<text fill="#595959" font-family="Verdana,sans-serif" font-weight="400" font-size="41" transform="matrix(6.12323e-17 -1 1 6.12323e-17 3520.1129032258063 1210)">01-Jan</text>
		</g>
		<g>
			<text fill="#595959" font-family="Verdana,sans-serif" font-weight="400" font-size="41" transform="matrix(6.12323e-17 -1 1 6.12323e-17 3588.516129032258 1207)">15-Jan</text>
		</g>
		<g>
			<text fill="#595959" font-family="Verdana,sans-serif" font-weight="400" font-size="41" transform="matrix(6.12323e-17 -1 1 6.12323e-17 3657.9193548387098 1210)">29-Jan</text>
		</g>
		<g>
			<text fill="#595959" font-family="Verdana,sans-serif" font-weight="400" font-size="41" transform="matrix(6.12323e-17 -1 1 6.12323e-17 3726.8225806451615 1214)">12-Feb</text>
		</g>
		<g>
			<text fill="#595959" font-family="Verdana,sans-serif" font-weight="400" font-size="41" transform="matrix(6.12323e-17 -1 1 6.12323e-17 3795.7258064516127 1216)">26-Feb</text>
		</g>
		<g>
			<text fill="#595959" font-family="Verdana,sans-serif" font-weight="400" font-size="41" transform="matrix(6.12323e-17 -1 1 6.12323e-17 3864.1290322580644 1221)">11-Mar</text>
		</g>
		<g>
			<text fill="#595959" font-family="Verdana,sans-serif" font-weight="400" font-size="41" transform="matrix(6.12323e-17 -1 1 6.12323e-17 3933.532258064516 1223)">25-Mar</text>
		</g>
		<g>
			<text fill="#595959" font-family="Verdana,sans-serif" font-weight="400" font-size="41" transform="matrix(6.12323e-17 -1 1 6.12323e-17 4005.935483870968 1217)">08-Apr</text>
		</g>
		<g>
			<text fill="#595959" font-family="Verdana,sans-serif" font-weight="400" font-size="41" transform="matrix(6.12323e-17 -1 1 6.12323e-17 4074.8387096774195 1216)">22-Apr</text>
		</g>
		<g>
			<text fill="#595959" font-family="Verdana,sans-serif" font-weight="400" font-size="41" transform="matrix(6.12323e-17 -1 1 6.12323e-17 4143.741935483871 1228)">06-May</text>
		</g>
		<g>
			<text fill="#595959" font-family="Verdana,sans-serif" font-weight="400" font-size="41" transform="matrix(6.12323e-17 -1 1 6.12323e-17 4212.645161290323 1228)">20-May</text>
		</g>
		<g>
			<text fill="#595959" font-family="Verdana,sans-serif" font-weight="400" font-size="41" transform="matrix(6.12323e-17 -1 1 6.12323e-17 4278.048387096775 1211)">03-Jun</text>
		</g>
		<g>
			<text fill="#595959" font-family="Verdana,sans-serif" font-weight="400" font-size="41" transform="matrix(1 0 0 1 3167.5 1050)">0</text>
		</g>
		<g>
			<text fill="#595959" font-family="Verdana,sans-serif" font-weight="400" font-size="41" transform="matrix(1 0 0 1 3074.5 922)">2,807</text>
		</g>
		<g>
			<text fill="#595959" font-family="Verdana,sans-serif" font-weight="400" font-size="41" transform="matrix(1 0 0 1 3074.5 794)">5,614</text>
		</g>
		<g>
			<text fill="#595959" font-family="Verdana,sans-serif" font-weight="400" font-size="41" transform="matrix(1 0 0 1 3073.5 666)">8,420</text>
		</g>
		<g>
			<text fill="#595959" font-family="Verdana,sans-serif" font-weight="400" font-size="41" transform="matrix(1 0 0 1 3050.5 538)">11,227</text>
		</g>
		<g>
			<text fill="#595959" font-family="Verdana,sans-serif" font-weight="400" font-size="41" transform="matrix(1 0 0 1 3050.5 410)">14,034</text>
		</g>
		<g>
			<text fill="#595959" font-family="Verdana,sans-serif" font-weight="400" font-size="41" transform="matrix(1 0 0 1 3544.5 1321)">Week Commencing</text>
		</g>
		<g>
			<text fill="#595959" font-family="Verdana,sans-serif" font-weight="400" font-size="46" transform="matrix(6.12323e-17 -1 1 6.12323e-17 3019.73 1030.75)">Number of Browser Profiles</text>
		</g>
		<rect x="2918.5" y="347.5" width="1760" height="1043" stroke="#D9D9D9" stroke-width="3.4375" stroke-linejoin="round" stroke-miterlimit="10" fill="none" />
		<g>
			<path d="M3228.5 1038 3262.951612903226 1038 3297.4032258064517 1038 3331.8548387096776 1038 3366.3064516129034 1038 3400.758064516129 1038 3435.2096774193546 1038 3469.6612903225805 1038 3504.1129032258063 1038 3538.564516129032 1038 3573.016129032258 1038 3607.467741935484 1038 3641.9193548387098 1038 3676.3709677419356 1038 3710.8225806451615 1038 3745.2741935483873 1038 3779.7258064516127 1038 3814.177419354839 1038 3848.6290322580644 1038 3883.0806451612902 1038 3917.532258064516 1038 3951.983870967742 1038 3986.435483870968 1038 4020.8870967741937 1038 4055.3387096774195 1038 4089.7903225806454 1038 4124.241935483871 1038 4158.693548387097 1038 4193.145161290323 1038 4227.596774193548 1038 4262.048387096775 1038 4296.5 1038 4296.5 535.6770699729229 4262.048387096775 536.8627618640445 4227.596774193548 538.0028502208921 4193.145161290323 539.051731509192 4158.693548387097 539.553370386205 4124.241935483871 540.1462163317658 4089.7903225806454 540.8758728801482 4055.3387096774195 542.2439789083654 4020.8870967741937 543.4752743337609 3986.435483870968 544.7065697591563 3951.983870967742 546.2114863901952 3917.532258064516 547.351574747043 3883.0806451612902 548.4004560353428 3848.6290322580644 549.4949408579165 3814.177419354839 550.9086504204076 3779.7258064516127 553.2344306683768 3745.2741935483873 553.6904660111159 3710.8225806451615 554.0552942853071 3676.3709677419356 556.0162462590852 3641.9193548387098 558.022801767137 3607.467741935484 558.5700441784238 3573.016129032258 559.3909077953542 3538.564516129032 560.0749608094627 3504.1129032258063 560.3485820151062 3469.6612903225805 560.3485820151062 3435.2096774193546 561.1238420977626 3400.758064516129 561.5798774405016 3366.3064516129034 562.1271198517886 3331.8548387096776 563.0391905372667 3297.4032258064517 563.814450619923 3262.951612903226 564.4985036340316 3228.5 565.0001425110447 3228.5 1038Z" fill="#e62d39" opacity="0.9" />
		</g>
		<g>
			<path d="M3228.5 565.0001425110447 3262.951612903226 564.4985036340316 3297.4032258064517 563.814450619923 3331.8548387096776 563.0391905372667 3366.3064516129034 562.1271198517886 3400.758064516129 561.5798774405016 3435.2096774193546 561.1238420977626 3469.6612903225805 560.3485820151062 3504.1129032258063 560.3485820151062 3538.564516129032 560.0749608094627 3573.016129032258 559.3909077953542 3607.467741935484 558.5700441784238 3641.9193548387098 558.022801767137 3676.3709677419356 556.0162462590852 3710.8225806451615 554.0552942853071 3745.2741935483873 553.6904660111159 3779.7258064516127 553.2344306683768 3814.177419354839 550.9086504204076 3848.6290322580644 549.4949408579165 3883.0806451612902 548.4004560353428 3917.532258064516 547.351574747043 3951.983870967742 546.2114863901952 3986.435483870968 544.7065697591563 4020.8870967741937 543.4752743337609 4055.3387096774195 542.2439789083654 4089.7903225806454 540.8758728801482 4124.241935483871 540.1462163317658 4158.693548387097 539.553370386205 4193.145161290323 539.051731509192 4227.596774193548 538.0028502208921 4262.048387096775 536.8627618640445 4296.5 535.6770699729229 4296.5 398 4262.048387096775 399.50491663103895 4227.596774193548 400.8730226592561 4193.145161290323 402.05871455037766 4158.693548387097 402.74276756448626 4124.241935483871 403.47242411286885 4089.7903225806454 404.33889126407297 4055.3387096774195 405.9350149636597 4020.8870967741937 407.39432806042475 3986.435483870968 408.85364115718966 3951.983870967742 410.632178993872 3917.532258064516 412.00028502208926 3883.0806451612902 413.68761579022384 3848.6290322580644 415.3293430240844 3814.177419354839 416.7886561208494 3779.7258064516127 419.3880575744621 3745.2741935483873 419.889696451475 3710.8225806451615 420.43693886276185 3676.3709677419356 422.6715120421834 3641.9193548387098 424.81487815305695 3607.467741935484 425.49893116716544 3573.016129032258 426.5478124554654 3538.564516129032 427.3686760723956 3504.1129032258063 427.7335043465869 3469.6612903225805 427.7335043465869 3435.2096774193546 428.7367821006128 3400.758064516129 429.4208351147214 3366.3064516129034 430.0136810602823 3331.8548387096776 431.01695881430817 3297.4032258064517 431.9290294997862 3262.951612903226 432.93230725381216 3228.5 433.61636026792087 3228.5 565.0001425110447Z" fill="#005aa6" opacity="0.9" />
		</g>
		<g>
			<rect x="4372" y="431" width="22.9995" height="23" fill="#e62d39" />
		</g>
		<g>
			<text fill="#595959" font-family="Verdana,sans-serif" font-weight="400" font-size="41" transform="matrix(1 0 0 1 4404.56 454)">Web Browser</text>
		</g>
		<g>
			<rect x="4372" y="508" width="22.9995" height="23" fill="#005aa6" />
		</g>
		<g>
			<text fill="#595959" font-family="Verdana,sans-serif" font-weight="400" font-size="41" transform="matrix(1 0 0 1 4404.56 531)">App</text>
		</g>
	</g>
</svg>
