<svg width="1763" height="1046"
    xmlns="http://www.w3.org/2000/svg"
	xmlns:xlink="http://www.w3.org/1999/xlink" xml:space="preserve" overflow="hidden">
	<defs>
		<clipPath id="clip0">
			<rect x="2917" y="346" width="1763" height="1046"/>
		</clipPath>
	</defs>
	<g clip-path="url(#clip0)" transform="translate(-2917 -346)">
		<rect x="2918" y="347" width="1760" height="1043" fill="#FFFFFF" />
		<g>
			<path d="
			M3228.5 974.532 4296.5 974.532
			M3228.5 910.53 4296.5 910.53
			M3228.5 846.528 4296.5 846.528
			M3228.5 781.526 4296.5 781.526
			M3228.5 717.524 4296.5 717.524
			M3228.5 653.522 4296.5 653.522
			M3228.5 589.52 4296.5 589.52
			M3228.5 525.517 4296.5 525.517
			M3228.5 461.515 4296.5 461.515
			M3228.5 397.5 4296.5 397.5" stroke="#D9D9D9" stroke-width="3.4375" stroke-linejoin="round" stroke-miterlimit="10" fill="none" />
		</g>
		<g>
			<path d="M 1038.5 4296.5 1038.5" stroke="#D9D9D9" stroke-width="3.4375" stroke-linejoin="round" stroke-miterlimit="10" fill="none" fill-rule="evenodd" />
		</g>
		<g>
			<text fill="#595959" font-family="Verdana,sans-serif" font-weight="400" font-size="41" transform="matrix(6.12323e-17 -1 1 6.12323e-17 3244.5 1225)">06-Nov</text>
		</g>
		<g>
			<text fill="#595959" font-family="Verdana,sans-serif" font-weight="400" font-size="41" transform="matrix(6.12323e-17 -1 1 6.12323e-17 3315.7 1224)">20-Nov</text>
		</g>
		<g>
			<text fill="#595959" font-family="Verdana,sans-serif" font-weight="400" font-size="41" transform="matrix(6.12323e-17 -1 1 6.12323e-17 3386.9 1223)">04-Dec</text>
		</g>
		<g>
			<text fill="#595959" font-family="Verdana,sans-serif" font-weight="400" font-size="41" transform="matrix(6.12323e-17 -1 1 6.12323e-17 3458.1 1220)">18-Dec</text>
		</g>
		<g>
			<text fill="#595959" font-family="Verdana,sans-serif" font-weight="400" font-size="41" transform="matrix(6.12323e-17 -1 1 6.12323e-17 3529.3 1210)">01-Jan</text>
		</g>
		<g>
			<text fill="#595959" font-family="Verdana,sans-serif" font-weight="400" font-size="41" transform="matrix(6.12323e-17 -1 1 6.12323e-17 3600 1207)">15-Jan</text>
		</g>
		<g>
			<text fill="#595959" font-family="Verdana,sans-serif" font-weight="400" font-size="41" transform="matrix(6.12323e-17 -1 1 6.12323e-17 3671.7 1210)">29-Jan</text>
		</g>
		<g>
			<text fill="#595959" font-family="Verdana,sans-serif" font-weight="400" font-size="41" transform="matrix(6.12323e-17 -1 1 6.12323e-17 3742.9 1214)">12-Feb</text>
		</g>
		<g>
			<text fill="#595959" font-family="Verdana,sans-serif" font-weight="400" font-size="41" transform="matrix(6.12323e-17 -1 1 6.12323e-17 3814.1 1216)">26-Feb</text>
		</g>
		<g>
			<text fill="#595959" font-family="Verdana,sans-serif" font-weight="400" font-size="41" transform="matrix(6.12323e-17 -1 1 6.12323e-17 3884.8 1221)">11-Mar</text>
		</g>
		<g>
			<text fill="#595959" font-family="Verdana,sans-serif" font-weight="400" font-size="41" transform="matrix(6.12323e-17 -1 1 6.12323e-17 3956.5 1223)">25-Mar</text>
		</g>
		<g>
			<text fill="#595959" font-family="Verdana,sans-serif" font-weight="400" font-size="41" transform="matrix(6.12323e-17 -1 1 6.12323e-17 4031.2 1217)">08-Apr</text>
		</g>
		<g>
			<text fill="#595959" font-family="Verdana,sans-serif" font-weight="400" font-size="41" transform="matrix(6.12323e-17 -1 1 6.12323e-17 4102.4 1216)">22-Apr</text>
		</g>
		<g>
			<text fill="#595959" font-family="Verdana,sans-serif" font-weight="400" font-size="41" transform="matrix(6.12323e-17 -1 1 6.12323e-17 4173.6 1228)">06-May</text>
		</g>
		<g>
			<text fill="#595959" font-family="Verdana,sans-serif" font-weight="400" font-size="41" transform="matrix(6.12323e-17 -1 1 6.12323e-17 4244.8 1228)">20-May</text>
		</g>
		<g>
			<text fill="#595959" font-family="Verdana,sans-serif" font-weight="400" font-size="41" transform="matrix(6.12323e-17 -1 1 6.12323e-17 4312.5 1211)">03-Jun</text>
		</g>
		<g>
			<text fill="#595959" font-family="Verdana,sans-serif" font-weight="400" font-size="41" transform="matrix(1 0 0 1 3167.5 1050)">0</text>
		</g>
		<g>
			<text fill="#595959" font-family="Verdana,sans-serif" font-weight="400" font-size="41" transform="matrix(1 0 0 1 3074.5 922)">2,800</text>
		</g>
		<g>
			<text fill="#595959" font-family="Verdana,sans-serif" font-weight="400" font-size="41" transform="matrix(1 0 0 1 3075.5 794)">5,600</text>
		</g>
		<g>
			<text fill="#595959" font-family="Verdana,sans-serif" font-weight="400" font-size="41" transform="matrix(1 0 0 1 3075.5 666)">8,401</text>
		</g>
		<g>
			<text fill="#595959" font-family="Verdana,sans-serif" font-weight="400" font-size="41" transform="matrix(1 0 0 1 3052.5 538)">11,201</text>
		</g>
		<g>
			<text fill="#595959" font-family="Verdana,sans-serif" font-weight="400" font-size="41" transform="matrix(1 0 0 1 3052.5 410)">14,001</text>
		</g>
		<g>
			<text fill="#595959" font-family="Verdana,sans-serif" font-weight="400" font-size="41" transform="matrix(1 0 0 1 3544.5 1321)">Week Commencing</text>
		</g>
		<g>
			<text fill="#595959" font-family="Verdana,sans-serif" font-weight="400" font-size="46" transform="matrix(6.12323e-17 -1 1 6.12323e-17 3019.73 1030.75)">Number of Browser Profiles</text>
		</g>
		<rect x="2918.5" y="347.5" width="1760" height="1043" stroke="#D9D9D9" stroke-width="3.4375" stroke-linejoin="round" stroke-miterlimit="10" fill="none" />
		<g>
			<path d="M3228.5 1038 3264.1 1038 3299.7 1038 3335.3 1038 3370.9 1038 3406.5 1038 3442.1 1038 3477.7 1038 3513.3 1038 3548.9 1038 3584.5 1038 3620.1 1038 3655.7 1038 3691.3 1038 3726.9 1038 3762.5 1038 3798.1 1038 3833.7 1038 3869.3 1038 3904.9 1038 3940.5 1038 3976.1 1038 4011.7 1038 4047.3 1038 4082.9 1038 4118.5 1038 4154.1 1038 4189.7 1038 4225.3 1038 4260.9 1038 4296.5 1038 4296.5 535.6815941718448 4260.9 536.8243696878794 4225.3 537.8757231626312 4189.7 538.3785443896865 4154.1 538.9727876580245 4118.5 539.7041639882866 4082.9 541.0754946075281 4047.3 542.3096921648454 4011.7 543.5438897221627 3976.1 545.0523534033284 3940.5 546.1951289193629 3904.9 547.2464823941148 3869.3 548.3435468895079 3833.7 549.7605885293908 3798.1 552.0918505821013 3762.5 552.5489607885152 3726.9 552.9146489536462 3691.3 554.8802228412256 3655.7 556.8915077494464 3620.1 557.440039997143 3584.5 558.2628383686879 3548.9 558.9485036783087 3513.3 559.222769802157 3477.7 559.222769802157 3442.1 559.9998571530605 3406.5 560.4569673594743 3370.9 561.0054996071709 3335.3 561.9197200199985 3299.7 562.6968073709021 3264.1 563.3824726805228 3228.5 563.885293907578 3228.5 1038Z" fill="#e62d39" opacity="0.9" />
		</g>
		<g>
			<path d="M3228.5 563.885293907578 3264.1 563.3824726805228 3299.7 562.6968073709021 3335.3 561.9197200199985 3370.9 561.0054996071709 3406.5 560.4569673594743 3442.1 559.9998571530605 3477.7 559.222769802157 3513.3 559.222769802157 3548.9 558.9485036783087 3584.5 558.2628383686879 3620.1 557.440039997143 3655.7 556.8915077494464 3691.3 554.8802228412256 3726.9 552.9146489536462 3762.5 552.5489607885152 3798.1 552.0918505821013 3833.7 549.7605885293908 3869.3 548.3435468895079 3904.9 547.2464823941148 3940.5 546.1951289193629 3976.1 545.0523534033284 4011.7 543.5438897221627 4047.3 542.3096921648454 4082.9 541.0754946075281 4118.5 539.7041639882866 4154.1 538.9727876580245 4189.7 538.3785443896865 4225.3 537.8757231626312 4260.9 536.8243696878794 4296.5 535.6815941718448 4296.5 398 4260.9 399.37133061924146 4225.3 400.55981715591736 4189.7 401.2454824655382 4154.1 401.97685879580035 4118.5 402.84536818798665 4082.9 404.445253910435 4047.3 405.90800657095923 4011.7 407.3707592314835 3976.1 409.1534890364975 3940.5 410.52481965573884 3904.9 412.2161274194701 3869.3 413.8617241625599 3833.7 415.3244768230841 3798.1 417.9300049996429 3762.5 418.4328262266981 3726.9 418.9813584743947 3691.3 421.22119848582247 3655.7 423.3696164559674 3620.1 424.0552817655881 3584.5 425.10663524033987 3548.9 425.92943361188486 3513.3 426.295121777016 3477.7 426.295121777016 3442.1 427.3007642311263 3406.5 427.9864295407471 3370.9 428.58067280908506 3335.3 429.58631526319544 3299.7 430.50053567602316 3264.1 431.50617813013355 3228.5 432.1918434397543 3228.5 563.885293907578Z" fill="#005aa6" opacity="0.9" />
		</g>
		<g>
			<rect x="4372" y="431" width="22.9995" height="23" fill="#e62d39" />
		</g>
		<g>
			<text fill="#595959" font-family="Verdana,sans-serif" font-weight="400" font-size="41" transform="matrix(1 0 0 1 4404.56 454)">Web Browser</text>
		</g>
		<g>
			<rect x="4372" y="508" width="22.9995" height="23" fill="#005aa6" />
		</g>
		<g>
			<text fill="#595959" font-family="Verdana,sans-serif" font-weight="400" font-size="41" transform="matrix(1 0 0 1 4404.56 531)">App</text>
		</g>
	</g>
</svg>
