<svg width="1763" height="1046"
    xmlns="http://www.w3.org/2000/svg"
	xmlns:xlink="http://www.w3.org/1999/xlink" xml:space="preserve" overflow="hidden">
	<defs>
		<clipPath id="clip0">
			<rect x="2917" y="346" width="1763" height="1046"/>
		</clipPath>
	</defs>
	<g clip-path="url(#clip0)" transform="translate(-2917 -346)">
		<rect x="2918" y="347" width="1760" height="1043" fill="#FFFFFF" />
		<g>
			<path d="
			M3228.5 974.532 4296.5 974.532
			M3228.5 910.53 4296.5 910.53
			M3228.5 846.528 4296.5 846.528
			M3228.5 781.526 4296.5 781.526
			M3228.5 717.524 4296.5 717.524
			M3228.5 653.522 4296.5 653.522
			M3228.5 589.52 4296.5 589.52
			M3228.5 525.517 4296.5 525.517
			M3228.5 461.515 4296.5 461.515
			M3228.5 397.5 4296.5 397.5" stroke="#D9D9D9" stroke-width="3.4375" stroke-linejoin="round" stroke-miterlimit="10" fill="none" />
		</g>
		<g>
			<path d="M 1038.5 4296.5 1038.5" stroke="#D9D9D9" stroke-width="3.4375" stroke-linejoin="round" stroke-miterlimit="10" fill="none" fill-rule="evenodd" />
		</g>
		<g>
			<text fill="#595959" font-family="Verdana,sans-serif" font-weight="400" font-size="41" transform="matrix(6.12323e-17 -1 1 6.12323e-17 3244.5 1217)">05-Feb</text>
		</g>
		<g>
			<text fill="#595959" font-family="Verdana,sans-serif" font-weight="400" font-size="41" transform="matrix(6.12323e-17 -1 1 6.12323e-17 3328.264705882353 1223)">04-Mar</text>
		</g>
		<g>
			<text fill="#595959" font-family="Verdana,sans-serif" font-weight="400" font-size="41" transform="matrix(6.12323e-17 -1 1 6.12323e-17 3415.529411764706 1217)">01-Apr</text>
		</g>
		<g>
			<text fill="#595959" font-family="Verdana,sans-serif" font-weight="400" font-size="41" transform="matrix(6.12323e-17 -1 1 6.12323e-17 3499.294117647059 1216)">29-Apr</text>
		</g>
		<g>
			<text fill="#595959" font-family="Verdana,sans-serif" font-weight="400" font-size="41" transform="matrix(6.12323e-17 -1 1 6.12323e-17 3583.0588235294117 1228)">27-May</text>
		</g>
		<g>
			<text fill="#595959" font-family="Verdana,sans-serif" font-weight="400" font-size="41" transform="matrix(6.12323e-17 -1 1 6.12323e-17 3663.323529411765 1211)">24-Jun</text>
		</g>
		<g>
			<text fill="#595959" font-family="Verdana,sans-serif" font-weight="400" font-size="41" transform="matrix(6.12323e-17 -1 1 6.12323e-17 3747.0882352941176 1196)">22-Jul</text>
		</g>
		<g>
			<text fill="#595959" font-family="Verdana,sans-serif" font-weight="400" font-size="41" transform="matrix(6.12323e-17 -1 1 6.12323e-17 3834.3529411764707 1218)">19-Aug</text>
		</g>
		<g>
			<text fill="#595959" font-family="Verdana,sans-serif" font-weight="400" font-size="41" transform="matrix(6.12323e-17 -1 1 6.12323e-17 3918.1176470588234 1219)">16-Sep</text>
		</g>
		<g>
			<text fill="#595959" font-family="Verdana,sans-serif" font-weight="400" font-size="41" transform="matrix(6.12323e-17 -1 1 6.12323e-17 3998.3823529411766 1213)">14-Oct</text>
		</g>
		<g>
			<text fill="#595959" font-family="Verdana,sans-serif" font-weight="400" font-size="41" transform="matrix(6.12323e-17 -1 1 6.12323e-17 4081.6470588235293 1222)">11-Nov</text>
		</g>
		<g>
			<text fill="#595959" font-family="Verdana,sans-serif" font-weight="400" font-size="41" transform="matrix(6.12323e-17 -1 1 6.12323e-17 4165.411764705882 1220)">16-Dec</text>
		</g>
		<g>
			<text fill="#595959" font-family="Verdana,sans-serif" font-weight="400" font-size="41" transform="matrix(6.12323e-17 -1 1 6.12323e-17 4249.676470588235 1207)">13-Jan</text>
		</g>
		<g>
			<text fill="#595959" font-family="Verdana,sans-serif" font-weight="400" font-size="41" transform="matrix(1 0 0 1 3167.5 1050)">0</text>
		</g>
		<g>
			<text fill="#595959" font-family="Verdana,sans-serif" font-weight="400" font-size="41" transform="matrix(1 0 0 1 3074.5 922)">2,956</text>
		</g>
		<g>
			<text fill="#595959" font-family="Verdana,sans-serif" font-weight="400" font-size="41" transform="matrix(1 0 0 1 3076.5 794)">5,911</text>
		</g>
		<g>
			<text fill="#595959" font-family="Verdana,sans-serif" font-weight="400" font-size="41" transform="matrix(1 0 0 1 3073.5 666)">8,867</text>
		</g>
		<g>
			<text fill="#595959" font-family="Verdana,sans-serif" font-weight="400" font-size="41" transform="matrix(1 0 0 1 3050.5 538)">11,822</text>
		</g>
		<g>
			<text fill="#595959" font-family="Verdana,sans-serif" font-weight="400" font-size="41" transform="matrix(1 0 0 1 3050.5 410)">14,778</text>
		</g>
		<g>
			<text fill="#595959" font-family="Verdana,sans-serif" font-weight="400" font-size="41" transform="matrix(1 0 0 1 3544.5 1321)">Week Commencing</text>
		</g>
		<g>
			<text fill="#595959" font-family="Verdana,sans-serif" font-weight="400" font-size="46" transform="matrix(6.12323e-17 -1 1 6.12323e-17 3019.73 1030.75)">Number of Browser Profiles</text>
		</g>
		<rect x="2918.5" y="347.5" width="1760" height="1043" stroke="#D9D9D9" stroke-width="3.4375" stroke-linejoin="round" stroke-miterlimit="10" fill="none" />
		<g>
			<path d="M3228.5 1038 3249.4411764705883 1038 3270.3823529411766 1038 3291.323529411765 1038 3312.264705882353 1038 3333.205882352941 1038 3354.1470588235293 1038 3375.0882352941176 1038 3396.029411764706 1038 3416.970588235294 1038 3437.9117647058824 1038 3458.8529411764707 1038 3479.794117647059 1038 3500.735294117647 1038 3521.676470588235 1038 3542.6176470588234 1038 3563.5588235294117 1038 3584.5 1038 3605.4411764705883 1038 3626.3823529411766 1038 3647.323529411765 1038 3668.264705882353 1038 3689.205882352941 1038 3710.1470588235293 1038 3731.0882352941176 1038 3752.029411764706 1038 3772.970588235294 1038 3793.9117647058824 1038 3814.8529411764707 1038 3835.7941176470586 1038 3856.735294117647 1038 3877.676470588235 1038 3898.6176470588234 1038 3919.5588235294117 1038 3940.5 1038 3961.4411764705883 1038 3982.3823529411766 1038 4003.323529411765 1038 4024.264705882353 1038 4045.2058823529414 1038 4066.1470588235293 1038 4087.0882352941176 1038 4108.029411764706 1038 4128.970588235294 1038 4149.911764705882 1038 4170.85294117647 1038 4191.794117647059 1038 4212.735294117647 1038 4233.676470588235 1038 4254.617647058823 1038 4275.558823529412 1038 4296.5 1038 4296.5 535.1552307484097 4275.558823529412 535.8048450399242 4254.617647058823 536.5410745703072 4233.676470588235 537.0607660035187 4212.735294117647 537.840303153336 4191.794117647059 538.3599945865476 4170.85294117647 538.6631479225875 4149.911764705882 539.6592231695763 4128.970588235294 540.3954526999594 4108.029411764706 542.0411422384625 4087.0882352941176 543.12383272432 4066.1470588235293 543.7734470158343 4045.2058823529414 544.4230613073487 4024.264705882353 545.3758289349032 4003.323529411765 546.1553660847205 3982.3823529411766 546.8915956151035 3961.4411764705883 547.8010556232236 3940.5 549.1868994451211 3919.5588235294117 549.619975639464 3898.6176470588234 550.7459737447557 3877.676470588235 551.6987413723102 3856.735294117647 552.3483556638246 3835.7941176470586 553.3011232913791 3814.8529411764707 553.8641223440248 3793.9117647058824 554.4704290161051 3772.970588235294 555.4231966436595 3752.029411764706 556.246041412911 3731.0882352941176 557.0255785627284 3710.1470588235293 557.5885776153741 3689.205882352941 558.0216538097171 3668.264705882353 558.4547300040601 3647.323529411765 559.4941128704831 3626.3823529411766 560.2303424008661 3605.4411764705883 560.9665719312491 3584.5 562.0925700365408 3563.5588235294117 563.175260522398 3542.6176470588234 564.1713357693868 3521.676470588235 564.6477195831642 3500.735294117647 565.2107186358099 3479.794117647059 565.9036405467587 3458.8529411764707 567.2028691297875 3437.9117647058824 568.3721748545134 3416.970588235294 569.5414805792393 3396.029411764706 570.9706320205711 3375.0882352941176 572.0533225064285 3354.1470588235293 573.0493977534172 3333.205882352941 574.0887806198402 3312.264705882353 575.4313168223034 3291.323529411765 577.6400054134524 3270.3823529411766 578.0730816077953 3249.4411764705883 578.4195425632697 3228.5 580.2817701989443 3228.5 1038Z" fill="#e62d39" opacity="0.9" />
		</g>
		<g>
			<path d="M3228.5 580.2817701989443 3249.4411764705883 578.4195425632697 3270.3823529411766 578.0730816077953 3291.323529411765 577.6400054134524 3312.264705882353 575.4313168223034 3333.205882352941 574.0887806198402 3354.1470588235293 573.0493977534172 3375.0882352941176 572.0533225064285 3396.029411764706 570.9706320205711 3416.970588235294 569.5414805792393 3437.9117647058824 568.3721748545134 3458.8529411764707 567.2028691297875 3479.794117647059 565.9036405467587 3500.735294117647 565.2107186358099 3521.676470588235 564.6477195831642 3542.6176470588234 564.1713357693868 3563.5588235294117 563.175260522398 3584.5 562.0925700365408 3605.4411764705883 560.9665719312491 3626.3823529411766 560.2303424008661 3647.323529411765 559.4941128704831 3668.264705882353 558.4547300040601 3689.205882352941 558.0216538097171 3710.1470588235293 557.5885776153741 3731.0882352941176 557.0255785627284 3752.029411764706 556.246041412911 3772.970588235294 555.4231966436595 3793.9117647058824 554.4704290161051 3814.8529411764707 553.8641223440248 3835.7941176470586 553.3011232913791 3856.735294117647 552.3483556638246 3877.676470588235 551.6987413723102 3898.6176470588234 550.7459737447557 3919.5588235294117 549.619975639464 3940.5 549.1868994451211 3961.4411764705883 547.8010556232236 3982.3823529411766 546.8915956151035 4003.323529411765 546.1553660847205 4024.264705882353 545.3758289349032 4045.2058823529414 544.4230613073487 4066.1470588235293 543.7734470158343 4087.0882352941176 543.12383272432 4108.029411764706 542.0411422384625 4128.970588235294 540.3954526999594 4149.911764705882 539.6592231695763 4170.85294117647 538.6631479225875 4191.794117647059 538.3599945865476 4212.735294117647 537.840303153336 4233.676470588235 537.0607660035187 4254.617647058823 536.5410745703072 4275.558823529412 535.8048450399242 4296.5 535.1552307484097 4296.5 397.9999999999999 4275.558823529412 398.82284476925156 4254.617647058823 399.8189200162403 4233.676470588235 400.5551495466233 4212.735294117647 401.46460955474345 4191.794117647059 402.0276086073894 4170.85294117647 402.33076194342937 4149.911764705882 403.5000676681552 4128.970588235294 404.4528352957098 4108.029411764706 406.401678170253 4087.0882352941176 407.7442143727162 4066.1470588235293 408.610366761402 4045.2058823529414 410.0395182027337 4024.264705882353 411.2088239274597 4003.323529411765 412.1615915550142 3982.3823529411766 413.07105156313435 3961.4411764705883 414.11043442955736 3940.5 415.6262011097577 3919.5588235294117 416.23250778183774 3898.6176470588234 417.6616592231695 3877.676470588235 418.83096494789555 3856.735294117647 419.65380971714706 3835.7941176470586 420.82311544187303 3814.8529411764707 421.4727297333874 3793.9117647058824 422.38218974150766 3772.970588235294 423.42157260793067 3752.029411764706 424.41764785491944 3731.0882352941176 425.3271078630396 3710.1470588235293 425.89010691568535 3689.205882352941 426.40979834889697 3668.264705882353 427.14602787928004 3647.323529411765 428.35864122344026 3626.3823529411766 429.26810123156037 3605.4411764705883 430.22086885911483 3584.5 431.6500203004466 3563.5588235294117 432.9492488834753 3542.6176470588234 434.07524698876693 3521.676470588235 434.7248612802815 3500.735294117647 435.4177831912301 3479.794117647059 436.24062796048173 3458.8529411764707 437.75639464068206 3437.9117647058824 439.1422384625795 3416.970588235294 440.5280822844768 3396.029411764706 442.2170794424144 3375.0882352941176 443.5163080254432 3354.1470588235293 445.1186899445121 3333.205882352941 446.6777642441466 3312.264705882353 448.0636080660441 3291.323529411765 450.5321423737988 3270.3823529411766 451.0085261875761 3249.4411764705883 451.52821762078764 3228.5 453.65029097306797 3228.5 580.2817701989443Z" fill="#005aa6" opacity="0.9" />
		</g>
		<g>
			<rect x="4372" y="431" width="22.9995" height="23" fill="#e62d39" />
		</g>
		<g>
			<text fill="#595959" font-family="Verdana,sans-serif" font-weight="400" font-size="41" transform="matrix(1 0 0 1 4404.56 454)">Web Browser</text>
		</g>
		<g>
			<rect x="4372" y="508" width="22.9995" height="23" fill="#005aa6" />
		</g>
		<g>
			<text fill="#595959" font-family="Verdana,sans-serif" font-weight="400" font-size="41" transform="matrix(1 0 0 1 4404.56 531)">App</text>
		</g>
	</g>
</svg>
