<svg width="1763" height="1046"
    xmlns="http://www.w3.org/2000/svg"
	xmlns:xlink="http://www.w3.org/1999/xlink" xml:space="preserve" overflow="hidden">
	<defs>
		<clipPath id="clip0">
			<rect x="2917" y="346" width="1763" height="1046"/>
		</clipPath>
	</defs>
	<g clip-path="url(#clip0)" transform="translate(-2917 -346)">
		<rect x="2918" y="347" width="1760" height="1043" fill="#FFFFFF" />
		<g>
			<path d="
			M3228.5 974.532 4296.5 974.532
			M3228.5 910.53 4296.5 910.53
			M3228.5 846.528 4296.5 846.528
			M3228.5 781.526 4296.5 781.526
			M3228.5 717.524 4296.5 717.524
			M3228.5 653.522 4296.5 653.522
			M3228.5 589.52 4296.5 589.52
			M3228.5 525.517 4296.5 525.517
			M3228.5 461.515 4296.5 461.515
			M3228.5 397.5 4296.5 397.5" stroke="#D9D9D9" stroke-width="3.4375" stroke-linejoin="round" stroke-miterlimit="10" fill="none" />
		</g>
		<g>
			<path d="M 1038.5 4296.5 1038.5" stroke="#D9D9D9" stroke-width="3.4375" stroke-linejoin="round" stroke-miterlimit="10" fill="none" fill-rule="evenodd" />
		</g>
		<g>
			<text fill="#595959" font-family="Verdana,sans-serif" font-weight="400" font-size="41" transform="matrix(6.12323e-17 -1 1 6.12323e-17 3244.5 1225)">06-Nov</text>
		</g>
		<g>
			<text fill="#595959" font-family="Verdana,sans-serif" font-weight="400" font-size="41" transform="matrix(6.12323e-17 -1 1 6.12323e-17 3313.4032258064517 1224)">20-Nov</text>
		</g>
		<g>
			<text fill="#595959" font-family="Verdana,sans-serif" font-weight="400" font-size="41" transform="matrix(6.12323e-17 -1 1 6.12323e-17 3382.3064516129034 1223)">04-Dec</text>
		</g>
		<g>
			<text fill="#595959" font-family="Verdana,sans-serif" font-weight="400" font-size="41" transform="matrix(6.12323e-17 -1 1 6.12323e-17 3451.2096774193546 1220)">18-Dec</text>
		</g>
		<g>
			<text fill="#595959" font-family="Verdana,sans-serif" font-weight="400" font-size="41" transform="matrix(6.12323e-17 -1 1 6.12323e-17 3520.1129032258063 1210)">01-Jan</text>
		</g>
		<g>
			<text fill="#595959" font-family="Verdana,sans-serif" font-weight="400" font-size="41" transform="matrix(6.12323e-17 -1 1 6.12323e-17 3588.516129032258 1207)">15-Jan</text>
		</g>
		<g>
			<text fill="#595959" font-family="Verdana,sans-serif" font-weight="400" font-size="41" transform="matrix(6.12323e-17 -1 1 6.12323e-17 3657.9193548387098 1210)">29-Jan</text>
		</g>
		<g>
			<text fill="#595959" font-family="Verdana,sans-serif" font-weight="400" font-size="41" transform="matrix(6.12323e-17 -1 1 6.12323e-17 3726.8225806451615 1214)">12-Feb</text>
		</g>
		<g>
			<text fill="#595959" font-family="Verdana,sans-serif" font-weight="400" font-size="41" transform="matrix(6.12323e-17 -1 1 6.12323e-17 3795.7258064516127 1216)">26-Feb</text>
		</g>
		<g>
			<text fill="#595959" font-family="Verdana,sans-serif" font-weight="400" font-size="41" transform="matrix(6.12323e-17 -1 1 6.12323e-17 3864.1290322580644 1221)">11-Mar</text>
		</g>
		<g>
			<text fill="#595959" font-family="Verdana,sans-serif" font-weight="400" font-size="41" transform="matrix(6.12323e-17 -1 1 6.12323e-17 3933.532258064516 1223)">25-Mar</text>
		</g>
		<g>
			<text fill="#595959" font-family="Verdana,sans-serif" font-weight="400" font-size="41" transform="matrix(6.12323e-17 -1 1 6.12323e-17 4005.935483870968 1217)">08-Apr</text>
		</g>
		<g>
			<text fill="#595959" font-family="Verdana,sans-serif" font-weight="400" font-size="41" transform="matrix(6.12323e-17 -1 1 6.12323e-17 4074.8387096774195 1216)">22-Apr</text>
		</g>
		<g>
			<text fill="#595959" font-family="Verdana,sans-serif" font-weight="400" font-size="41" transform="matrix(6.12323e-17 -1 1 6.12323e-17 4143.741935483871 1228)">06-May</text>
		</g>
		<g>
			<text fill="#595959" font-family="Verdana,sans-serif" font-weight="400" font-size="41" transform="matrix(6.12323e-17 -1 1 6.12323e-17 4212.645161290323 1228)">20-May</text>
		</g>
		<g>
			<text fill="#595959" font-family="Verdana,sans-serif" font-weight="400" font-size="41" transform="matrix(6.12323e-17 -1 1 6.12323e-17 4278.048387096775 1211)">03-Jun</text>
		</g>
		<g>
			<text fill="#595959" font-family="Verdana,sans-serif" font-weight="400" font-size="41" transform="matrix(1 0 0 1 3123.5 1050)">0%</text>
		</g>
		<g>
			<text fill="#595959" font-family="Verdana,sans-serif" font-weight="400" font-size="41" transform="matrix(1 0 0 1 3097.5 922)">20%</text>
		</g>
		<g>
			<text fill="#595959" font-family="Verdana,sans-serif" font-weight="400" font-size="41" transform="matrix(1 0 0 1 3096.5 794)">40%</text>
		</g>
		<g>
			<text fill="#595959" font-family="Verdana,sans-serif" font-weight="400" font-size="41" transform="matrix(1 0 0 1 3097.5 666)">60%</text>
		</g>
		<g>
			<text fill="#595959" font-family="Verdana,sans-serif" font-weight="400" font-size="41" transform="matrix(1 0 0 1 3097.5 538)">80%</text>
		</g>
		<g>
			<text fill="#595959" font-family="Verdana,sans-serif" font-weight="400" font-size="41" transform="matrix(1 0 0 1 3074.5 410)">100%</text>
		</g>
		<g>
			<text fill="#595959" font-family="Verdana,sans-serif" font-weight="400" font-size="41" transform="matrix(1 0 0 1 3544.5 1321)">Week Commencing</text>
		</g>
		<g>
			<text fill="#595959" font-family="Verdana,sans-serif" font-weight="400" font-size="46" transform="matrix(6.12323e-17 -1 1 6.12323e-17 3019.73 965.25)">Requests (% of Total)</text>
		</g>
		<rect x="2918.5" y="347.5" width="1760" height="1043" stroke="#D9D9D9" stroke-width="3.4375" stroke-linejoin="round" stroke-miterlimit="10" fill="none" />
		<g>
			<path d="M3228.5 1038 3262.951612903226 1038 3297.4032258064517 1038 3331.8548387096776 1038 3366.3064516129034 1038 3400.758064516129 1038 3435.2096774193546 1038 3469.6612903225805 1038 3504.1129032258063 1038 3538.564516129032 1038 3573.016129032258 1038 3607.467741935484 1038 3641.9193548387098 1038 3676.3709677419356 1038 3710.8225806451615 1038 3745.2741935483873 1038 3779.7258064516127 1038 3814.177419354839 1038 3848.6290322580644 1038 3883.0806451612902 1038 3917.532258064516 1038 3951.983870967742 1038 3986.435483870968 1038 4020.8870967741937 1038 4055.3387096774195 1038 4089.7903225806454 1038 4124.241935483871 1038 4158.693548387097 1038 4193.145161290323 1038 4227.596774193548 1038 4262.048387096775 1038 4296.5 1038 4296.5 693.279620378092 4262.048387096775 693.7023667945714 4227.596774193548 694.1241584254815 4193.145161290323 694.1818102912466 4158.693548387097 694.1642138907431 4124.241935483871 694.1125422243633 4089.7903225806454 694.1000133322768 4055.3387096774195 694.3187105935212 4020.8870967741937 693.6205909506452 3986.435483870968 692.0050611605195 3951.983870967742 690.3198452220047 3917.532258064516 688.7547930560947 3883.0806451612902 684.6952509793664 3848.6290322580644 679.1608039260515 3814.177419354839 679.6019256256711 3779.7258064516127 682.3213957841157 3745.2741935483873 684.5298935912222 3710.8225806451615 686.5899201687104 3676.3709677419356 685.5922828206933 3641.9193548387098 684.727262331711 3607.467741935484 682.4804542973092 3573.016129032258 682.4034608977785 3538.564516129032 678.1494953370828 3504.1129032258063 677.8971563273623 3469.6612903225805 676.2533828137863 3435.2096774193546 675.2989091940677 3400.758064516129 677.8919622242556 3366.3064516129034 674.1657790475881 3331.8548387096776 672.9058970371336 3297.4032258064517 672.3854431659599 3262.951612903226 672.4810692266187 3228.5 688.8585875798008 3228.5 1038Z" fill="#e62d39" opacity="0.9" />
		</g>
		<g>
			<path d="M3228.5 688.8585875798008 3262.951612903226 672.4810692266187 3297.4032258064517 672.3854431659599 3331.8548387096776 672.9058970371336 3366.3064516129034 674.1657790475881 3400.758064516129 677.8919622242556 3435.2096774193546 675.2989091940677 3469.6612903225805 676.2533828137863 3504.1129032258063 677.8971563273623 3538.564516129032 678.1494953370828 3573.016129032258 682.4034608977785 3607.467741935484 682.4804542973092 3641.9193548387098 684.727262331711 3676.3709677419356 685.5922828206933 3710.8225806451615 686.5899201687104 3745.2741935483873 684.5298935912222 3779.7258064516127 682.3213957841157 3814.177419354839 679.6019256256711 3848.6290322580644 679.1608039260515 3883.0806451612902 684.6952509793664 3917.532258064516 688.7547930560947 3951.983870967742 690.3198452220047 3986.435483870968 692.0050611605195 4020.8870967741937 693.6205909506452 4055.3387096774195 694.3187105935212 4089.7903225806454 694.1000133322768 4124.241935483871 694.1125422243633 4158.693548387097 694.1642138907431 4193.145161290323 694.1818102912466 4227.596774193548 694.1241584254815 4262.048387096775 693.7023667945714 4296.5 693.279620378092 4296.5 437.0430647748583 4262.048387096775 436.55579203505033 4227.596774193548 435.9902777401653 4193.145161290323 435.4750218802621 4158.693548387097 434.9235826881617 4124.241935483871 434.50854774480695 4089.7903225806454 434.2228656036452 4055.3387096774195 433.89359402287107 4020.8870967741937 433.6904179753529 3986.435483870968 433.5882703257375 3951.983870967742 433.47006547647834 3917.532258064516 433.35408809308973 3883.0806451612902 433.21208388667225 3848.6290322580644 422.122193997944 3814.177419354839 421.6503463054078 3779.7258064516127 420.92160217406195 3745.2741935483873 420.29603101333674 3710.8225806451615 419.6100604377933 3676.3709677419356 419.2453958196608 3641.9193548387098 418.88543369630037 3607.467741935484 418.3145443410057 3573.016129032258 418.32121591329116 3538.564516129032 418.1936065785876 3504.1129032258063 417.9836440524953 3469.6612903225805 417.6737817747089 3435.2096774193546 417.3462080305663 3400.758064516129 417.2850488775972 3366.3064516129034 416.91367414087256 3331.8548387096776 416.74196033033303 3297.4032258064517 416.60514588840294 3262.951612903226 416.52074620602923 3228.5 416.17089398429073 3228.5 688.8585875798008Z" fill="#005aa6" opacity="0.9" />
		</g>
		<g>
			<path d="M3228.5 416.17089398429073 3262.951612903226 416.52074620602923 3297.4032258064517 416.60514588840294 3331.8548387096776 416.74196033033303 3366.3064516129034 416.91367414087256 3400.758064516129 417.2850488775972 3435.2096774193546 417.3462080305663 3469.6612903225805 417.6737817747089 3504.1129032258063 417.9836440524953 3538.564516129032 418.1936065785876 3573.016129032258 418.32121591329116 3607.467741935484 418.3145443410057 3641.9193548387098 418.88543369630037 3676.3709677419356 419.2453958196608 3710.8225806451615 419.6100604377933 3745.2741935483873 420.29603101333674 3779.7258064516127 420.92160217406195 3814.177419354839 421.6503463054078 3848.6290322580644 422.122193997944 3883.0806451612902 433.21208388667225 3917.532258064516 433.35408809308973 3951.983870967742 433.47006547647834 3986.435483870968 433.5882703257375 4020.8870967741937 433.6904179753529 4055.3387096774195 433.89359402287107 4089.7903225806454 434.2228656036452 4124.241935483871 434.50854774480695 4158.693548387097 434.9235826881617 4193.145161290323 435.4750218802621 4227.596774193548 435.9902777401653 4262.048387096775 436.55579203505033 4296.5 437.0430647748583 4296.5 397.9999999999999 4262.048387096775 398 4227.596774193548 397.99999999999994 4193.145161290323 398 4158.693548387097 398 4124.241935483871 397.9999999999999 4089.7903225806454 397.9999999999999 4055.3387096774195 398.0000000000001 4020.8870967741937 398 3986.435483870968 397.99999999999994 3951.983870967742 398.00000000000006 3917.532258064516 398 3883.0806451612902 398 3848.6290322580644 398 3814.177419354839 398.00000000000006 3779.7258064516127 398.00000000000006 3745.2741935483873 398.00000000000006 3710.8225806451615 398 3676.3709677419356 397.99999999999994 3641.9193548387098 398 3607.467741935484 398 3573.016129032258 398 3538.564516129032 398 3504.1129032258063 398 3469.6612903225805 398 3435.2096774193546 398 3400.758064516129 398.00000000000006 3366.3064516129034 398 3331.8548387096776 397.99999999999994 3297.4032258064517 398.00000000000006 3262.951612903226 397.9999999999999 3228.5 397.9999999999999 3228.5 416.17089398429073Z" fill="#393d41" opacity="0.9" />
		</g>
		<g>
			<rect x="4372" y="431" width="22.9995" height="23" fill="#e62d39" />
		</g>
		<g>
			<text fill="#595959" font-family="Verdana,sans-serif" font-weight="400" font-size="41" transform="matrix(1 0 0 1 4404.56 454)">Web Browser</text>
		</g>
		<g>
			<rect x="4372" y="508" width="22.9995" height="23" fill="#005aa6" />
		</g>
		<g>
			<text fill="#595959" font-family="Verdana,sans-serif" font-weight="400" font-size="41" transform="matrix(1 0 0 1 4404.56 531)">App</text>
		</g>
		<g>
			<rect x="4372" y="585" width="22.9995" height="23" fill="#393d41" />
		</g>
		<g>
			<text fill="#595959" font-family="Verdana,sans-serif" font-weight="400" font-size="41" transform="matrix(1 0 0 1 4404.56 608)">Unclassified</text>
		</g>
	</g>
</svg>
