<svg width="1763" height="1046"
    xmlns="http://www.w3.org/2000/svg"
	xmlns:xlink="http://www.w3.org/1999/xlink" xml:space="preserve" overflow="hidden">
	<defs>
		<clipPath id="clip0">
			<rect x="2917" y="346" width="1763" height="1046"/>
		</clipPath>
	</defs>
	<g clip-path="url(#clip0)" transform="translate(-2917 -346)">
		<rect x="2918" y="347" width="1760" height="1043" fill="#FFFFFF" />
		<g>
			<path d="
			M3228.5 974.532 4296.5 974.532
			M3228.5 910.53 4296.5 910.53
			M3228.5 846.528 4296.5 846.528
			M3228.5 781.526 4296.5 781.526
			M3228.5 717.524 4296.5 717.524
			M3228.5 653.522 4296.5 653.522
			M3228.5 589.52 4296.5 589.52
			M3228.5 525.517 4296.5 525.517
			M3228.5 461.515 4296.5 461.515
			M3228.5 397.5 4296.5 397.5" stroke="#D9D9D9" stroke-width="3.4375" stroke-linejoin="round" stroke-miterlimit="10" fill="none" />
		</g>
		<g>
			<path d="M 1038.5 4296.5 1038.5" stroke="#D9D9D9" stroke-width="3.4375" stroke-linejoin="round" stroke-miterlimit="10" fill="none" fill-rule="evenodd" />
		</g>
		<g>
			<text fill="#595959" font-family="Verdana,Open Sans,DejaVu Sans,sans-serif" font-weight="400" font-size="41" transform="matrix(6.12323e-17 -1 1 6.12323e-17 3247.21826171875 1191.6909103393555)">20-Jan</text>
		</g>
		<g>
			<text fill="#595959" font-family="Verdana,Open Sans,DejaVu Sans,sans-serif" font-weight="400" font-size="41" transform="matrix(6.12323e-17 -1 1 6.12323e-17 3329.715390625 1201.3203125)">17-Feb</text>
		</g>
		<g>
			<text fill="#595959" font-family="Verdana,Open Sans,DejaVu Sans,sans-serif" font-weight="400" font-size="41" transform="matrix(6.12323e-17 -1 1 6.12323e-17 3414.21447265625 1210.2890625)">17-Mar</text>
		</g>
		<g>
			<text fill="#595959" font-family="Verdana,Open Sans,DejaVu Sans,sans-serif" font-weight="400" font-size="41" transform="matrix(6.12323e-17 -1 1 6.12323e-17 3504.45916015625 1201.5405197143555)">14-Apr</text>
		</g>
		<g>
			<text fill="#595959" font-family="Verdana,Open Sans,DejaVu Sans,sans-serif" font-weight="400" font-size="41" transform="matrix(6.12323e-17 -1 1 6.12323e-17 3590.029287109375 1214.75341796875)">12-May</text>
		</g>
		<g>
			<text fill="#595959" font-family="Verdana,Open Sans,DejaVu Sans,sans-serif" font-weight="400" font-size="41" transform="matrix(6.12323e-17 -1 1 6.12323e-17 3674.3982421875 1192.2914962768555)">16-Jun</text>
		</g>
		<g>
			<text fill="#595959" font-family="Verdana,Open Sans,DejaVu Sans,sans-serif" font-weight="400" font-size="41" transform="matrix(6.12323e-17 -1 1 6.12323e-17 3760.568955078125 1177.2768478393555)">14-Jul</text>
		</g>
		<g>
			<text fill="#595959" font-family="Verdana,Open Sans,DejaVu Sans,sans-serif" font-weight="400" font-size="41" transform="matrix(6.12323e-17 -1 1 6.12323e-17 3846.199140625 1206.90576171875)">11-Aug</text>
		</g>
		<g>
			<text fill="#595959" font-family="Verdana,Open Sans,DejaVu Sans,sans-serif" font-weight="400" font-size="41" transform="matrix(6.12323e-17 -1 1 6.12323e-17 3931.809306640625 1204.38330078125)">08-Sep</text>
		</g>
		<g>
			<text fill="#595959" font-family="Verdana,Open Sans,DejaVu Sans,sans-serif" font-weight="400" font-size="41" transform="matrix(6.12323e-17 -1 1 6.12323e-17 4012.524697265625 1201.1000900268555)">06-Oct</text>
		</g>
		<g>
			<text fill="#595959" font-family="Verdana,Open Sans,DejaVu Sans,sans-serif" font-weight="400" font-size="41" transform="matrix(6.12323e-17 -1 1 6.12323e-17 4097.964697265625 1211.43017578125)">03-Nov</text>
		</g>
		<g>
			<text fill="#595959" font-family="Verdana,Open Sans,DejaVu Sans,sans-serif" font-weight="400" font-size="41" transform="matrix(6.12323e-17 -1 1 6.12323e-17 4183.404697265625 1207.0859375)">01-Dec</text>
		</g>
		<g>
			<text fill="#595959" font-family="Verdana,Open Sans,DejaVu Sans,sans-serif" font-weight="400" font-size="41" transform="matrix(6.12323e-17 -1 1 6.12323e-17 4268.824677734375 1207.1259765625)">29-Dec</text>
		</g>
		<g>
			<text fill="#595959" font-family="Verdana,Open Sans,DejaVu Sans,sans-serif" font-weight="400" font-size="41" transform="matrix(1 0 0 1 3169.14111328125 1050)">0</text>
		</g>
		<g>
			<text fill="#595959" font-family="Verdana,Open Sans,DejaVu Sans,sans-serif" font-weight="400" font-size="41" transform="matrix(1 0 0 1 3088.962890625 922)">3,223</text>
		</g>
		<g>
			<text fill="#595959" font-family="Verdana,Open Sans,DejaVu Sans,sans-serif" font-weight="400" font-size="41" transform="matrix(1 0 0 1 3089.38330078125 794)">6,445</text>
		</g>
		<g>
			<text fill="#595959" font-family="Verdana,Open Sans,DejaVu Sans,sans-serif" font-weight="400" font-size="41" transform="matrix(1 0 0 1 3088.9228515625 666)">9,668</text>
		</g>
		<g>
			<text fill="#595959" font-family="Verdana,Open Sans,DejaVu Sans,sans-serif" font-weight="400" font-size="41" transform="matrix(1 0 0 1 3067.0415115356445 538)">12,890</text>
		</g>
		<g>
			<text fill="#595959" font-family="Verdana,Open Sans,DejaVu Sans,sans-serif" font-weight="400" font-size="41" transform="matrix(1 0 0 1 3067.4018630981445 410)">16,113</text>
		</g>
		<g>
			<text fill="#595959" font-family="Verdana,Open Sans,DejaVu Sans,sans-serif" font-weight="400" font-size="41" transform="matrix(1 0 0 1 3556.97119140625 1321)">Week Commencing</text>
		</g>
		<g>
			<text fill="#595959" font-family="Verdana,Open Sans,DejaVu Sans,sans-serif" font-weight="400" font-size="46" transform="matrix(6.12323e-17 -1 1 6.12323e-17 3019.73 1011.673828125)">Number of Browser Profiles</text>
		</g>
		<rect x="2918.5" y="347.5" width="1760" height="1043" stroke="#D9D9D9" stroke-width="3.4375" stroke-linejoin="round" stroke-miterlimit="10" fill="none" />
		<g>
			<path d="M3228.5 1038 3249.86 1038 3271.22 1038 3292.58 1038 3313.94 1038 3335.3 1038 3356.66 1038 3378.02 1038 3399.38 1038 3420.74 1038 3442.1 1038 3463.46 1038 3484.82 1038 3506.18 1038 3527.54 1038 3548.9 1038 3570.26 1038 3591.62 1038 3612.98 1038 3634.34 1038 3655.7 1038 3677.06 1038 3698.42 1038 3719.7799999999997 1038 3741.14 1038 3762.5 1038 3783.86 1038 3805.2200000000003 1038 3826.58 1038 3847.94 1038 3869.3 1038 3890.66 1038 3912.02 1038 3933.38 1038 3954.74 1038 3976.1 1038 3997.46 1038 4018.8199999999997 1038 4040.18 1038 4061.54 1038 4082.9 1038 4104.26 1038 4125.62 1038 4146.98 1038 4168.34 1038 4189.7 1038 4211.0599999999995 1038 4232.42 1038 4253.78 1038 4275.139999999999 1038 4296.5 1038 4296.5 532.4901632222429 4275.139999999999 532.6490411469 4253.78 533.1256749208712 4232.42 533.6817476571712 4211.0599999999995 534.7144541674425 4189.7 535.9854775646993 4168.34 537.6536957735989 4146.98 537.9714516229132 4125.62 539.0835970955129 4104.26 539.7191087941413 4082.9 541.1887295972197 4061.54 541.7845218146838 4040.18 543.1349841742692 4018.8199999999997 543.254142617762 3997.46 544.1279712033761 3976.1 545.1606777136474 3954.74 546.4714205920685 3933.38 547.1863712530255 3912.02 547.8218829516538 3890.66 549.0929063489108 3869.3 549.9270154533606 3847.94 550.840563520139 3826.58 551.833550549246 3805.2200000000003 552.6279401725315 3783.86 553.3826103146528 3762.5 554.2564389002669 3741.14 554.6536337119096 3719.7799999999997 555.6466207410165 3698.42 556.9573636194377 3677.06 557.5531558369019 3655.7 558.7050207906659 3634.34 560.0554831502513 3612.98 561.6839818779868 3591.62 562.7961273505864 3570.26 563.8685533420219 3548.9 564.7821014088004 3527.54 565.6162105132502 3506.18 566.5694780611927 3484.82 567.4433066468068 3463.46 568.9129274498852 3442.1 569.5484391485136 3420.74 570.1839508471421 3399.38 570.9386209892633 3378.02 572.0110469806988 3356.66 573.1231924532985 3335.3 573.9970210389126 3313.94 574.5530937752126 3292.58 575.4666418419908 3271.22 576.8171042015763 3249.86 577.4128964190405 3228.5 578.0881275988332 3228.5 1038Z" fill="#005aa6" opacity="0.9" />
		</g>
		<g>
			<path d="M3228.5 578.0881275988332 3249.86 577.4128964190405 3271.22 576.8171042015763 3292.58 575.4666418419908 3313.94 574.5530937752126 3335.3 573.9970210389126 3356.66 573.1231924532985 3378.02 572.0110469806988 3399.38 570.9386209892633 3420.74 570.1839508471421 3442.1 569.5484391485136 3463.46 568.9129274498852 3484.82 567.4433066468068 3506.18 566.5694780611927 3527.54 565.6162105132502 3548.9 564.7821014088004 3570.26 563.8685533420219 3591.62 562.7961273505864 3612.98 561.6839818779868 3634.34 560.0554831502513 3655.7 558.7050207906659 3677.06 557.5531558369019 3698.42 556.9573636194377 3719.7799999999997 555.6466207410165 3741.14 554.6536337119096 3762.5 554.2564389002669 3783.86 553.3826103146528 3805.2200000000003 552.6279401725315 3826.58 551.833550549246 3847.94 550.840563520139 3869.3 549.9270154533606 3890.66 549.0929063489108 3912.02 547.8218829516538 3933.38 547.1863712530255 3954.74 546.4714205920685 3976.1 545.1606777136474 3997.46 544.1279712033761 4018.8199999999997 543.254142617762 4040.18 543.1349841742692 4061.54 541.7845218146838 4082.9 541.1887295972197 4104.26 539.7191087941413 4125.62 539.0835970955129 4146.98 537.9714516229132 4168.34 537.6536957735989 4189.7 535.9854775646993 4211.0599999999995 534.7144541674425 4232.42 533.6817476571712 4253.78 533.1256749208712 4275.139999999999 532.6490411469 4296.5 532.4901632222429 4296.5 398 4275.139999999999 398.1985974058214 4253.78 398.75467014212114 4232.42 399.3107428784211 4211.0599999999995 400.6612052380066 4189.7 402.1705455222491 4168.34 404.03736113697005 4146.98 404.6331533544343 4125.62 405.9836157140197 4104.26 406.7382858561409 4082.9 408.3667845838764 4061.54 409.16117420716193 4040.18 410.67051449140445 4018.8199999999997 410.8293924160615 3997.46 411.9812573698255 3976.1 413.13312232358965 3954.74 414.64246260783216 3933.38 415.5162911934463 3912.02 416.31068081673175 3890.66 417.6611431763172 3869.3 418.6938496865884 3847.94 419.68683671569534 3826.58 421.0372990752808 3805.2200000000003 421.91112766089486 3783.86 422.90411469000185 3762.5 423.8971017191088 3741.14 424.57233289890144 3719.7799999999997 425.8830757773226 3698.42 427.3924160615652 3677.06 428.10736672252216 3655.7 429.37839011977906 3634.34 430.84801092285727 3612.98 433.0325823868926 3591.62 434.34332526531364 3570.26 435.6540681437348 3548.9 436.72649413517036 3527.54 437.679761683113 3506.18 438.831626636877 3484.82 439.86433314714816 3463.46 441.53255135604786 3442.1 442.36666046049766 3420.74 443.0816111214548 3399.38 443.9554397070688 3378.02 445.3456215478185 3356.66 446.5769254639111 3335.3 447.569912493018 3313.94 448.36430211630363 3292.58 449.5161670700676 3271.22 451.0255073543101 3249.86 451.7801774964314 3228.5 452.6937255632098 3228.5 578.0881275988332Z" fill="#e62d39" opacity="0.9" />
		</g>
		<g>
			<rect x="4372" y="431" width="22.9995" height="23" fill="#005aa6" />
		</g>
		<g>
			<text fill="#595959" font-family="Verdana,Open Sans,DejaVu Sans,sans-serif" font-weight="400" font-size="41" transform="matrix(1 0 0 1 4404.56 454)">Web Browser</text>
		</g>
		<g>
			<rect x="4372" y="508" width="22.9995" height="23" fill="#e62d39" />
		</g>
		<g>
			<text fill="#595959" font-family="Verdana,Open Sans,DejaVu Sans,sans-serif" font-weight="400" font-size="41" transform="matrix(1 0 0 1 4404.56 531)">App</text>
		</g>
	</g>
</svg>
