<svg width="1763" height="1046"
    xmlns="http://www.w3.org/2000/svg"
	xmlns:xlink="http://www.w3.org/1999/xlink" xml:space="preserve" overflow="hidden">
	<defs>
		<clipPath id="clip0">
			<rect x="2917" y="346" width="1763" height="1046"/>
		</clipPath>
	</defs>
	<g clip-path="url(#clip0)" transform="translate(-2917 -346)">
		<rect x="2918" y="347" width="1760" height="1043" fill="#FFFFFF" />
		<g>
			<path d="
			M3228.5 974.532 4296.5 974.532
			M3228.5 910.53 4296.5 910.53
			M3228.5 846.528 4296.5 846.528
			M3228.5 781.526 4296.5 781.526
			M3228.5 717.524 4296.5 717.524
			M3228.5 653.522 4296.5 653.522
			M3228.5 589.52 4296.5 589.52
			M3228.5 525.517 4296.5 525.517
			M3228.5 461.515 4296.5 461.515
			M3228.5 397.5 4296.5 397.5" stroke="#D9D9D9" stroke-width="3.4375" stroke-linejoin="round" stroke-miterlimit="10" fill="none" />
		</g>
		<g>
			<path d="M 1038.5 4296.5 1038.5" stroke="#D9D9D9" stroke-width="3.4375" stroke-linejoin="round" stroke-miterlimit="10" fill="none" fill-rule="evenodd" />
		</g>
		<g>
			<text fill="#595959" font-family="Verdana,sans-serif" font-weight="400" font-size="41" transform="matrix(6.12323e-17 -1 1 6.12323e-17 3244.5 1225)">06-Nov</text>
		</g>
		<g>
			<text fill="#595959" font-family="Verdana,sans-serif" font-weight="400" font-size="41" transform="matrix(6.12323e-17 -1 1 6.12323e-17 3326.653846153846 1224)">20-Nov</text>
		</g>
		<g>
			<text fill="#595959" font-family="Verdana,sans-serif" font-weight="400" font-size="41" transform="matrix(6.12323e-17 -1 1 6.12323e-17 3408.8076923076924 1223)">04-Dec</text>
		</g>
		<g>
			<text fill="#595959" font-family="Verdana,sans-serif" font-weight="400" font-size="41" transform="matrix(6.12323e-17 -1 1 6.12323e-17 3490.9615384615386 1220)">18-Dec</text>
		</g>
		<g>
			<text fill="#595959" font-family="Verdana,sans-serif" font-weight="400" font-size="41" transform="matrix(6.12323e-17 -1 1 6.12323e-17 3573.1153846153848 1210)">01-Jan</text>
		</g>
		<g>
			<text fill="#595959" font-family="Verdana,sans-serif" font-weight="400" font-size="41" transform="matrix(6.12323e-17 -1 1 6.12323e-17 3654.769230769231 1207)">15-Jan</text>
		</g>
		<g>
			<text fill="#595959" font-family="Verdana,sans-serif" font-weight="400" font-size="41" transform="matrix(6.12323e-17 -1 1 6.12323e-17 3737.423076923077 1210)">29-Jan</text>
		</g>
		<g>
			<text fill="#595959" font-family="Verdana,sans-serif" font-weight="400" font-size="41" transform="matrix(6.12323e-17 -1 1 6.12323e-17 3819.576923076923 1214)">12-Feb</text>
		</g>
		<g>
			<text fill="#595959" font-family="Verdana,sans-serif" font-weight="400" font-size="41" transform="matrix(6.12323e-17 -1 1 6.12323e-17 3901.7307692307695 1216)">26-Feb</text>
		</g>
		<g>
			<text fill="#595959" font-family="Verdana,sans-serif" font-weight="400" font-size="41" transform="matrix(6.12323e-17 -1 1 6.12323e-17 3983.3846153846152 1221)">11-Mar</text>
		</g>
		<g>
			<text fill="#595959" font-family="Verdana,sans-serif" font-weight="400" font-size="41" transform="matrix(6.12323e-17 -1 1 6.12323e-17 4066.038461538462 1223)">25-Mar</text>
		</g>
		<g>
			<text fill="#595959" font-family="Verdana,sans-serif" font-weight="400" font-size="41" transform="matrix(6.12323e-17 -1 1 6.12323e-17 4151.692307692308 1217)">08-Apr</text>
		</g>
		<g>
			<text fill="#595959" font-family="Verdana,sans-serif" font-weight="400" font-size="41" transform="matrix(6.12323e-17 -1 1 6.12323e-17 4233.846153846154 1216)">22-Apr</text>
		</g>
		<g>
			<text fill="#595959" font-family="Verdana,sans-serif" font-weight="400" font-size="41" transform="matrix(6.12323e-17 -1 1 6.12323e-17 4316 1228)">06-May</text>
		</g>
		<g>
			<text fill="#595959" font-family="Verdana,sans-serif" font-weight="400" font-size="41" transform="matrix(1 0 0 1 3167.5 1050)">0</text>
		</g>
		<g>
			<text fill="#595959" font-family="Verdana,sans-serif" font-weight="400" font-size="41" transform="matrix(1 0 0 1 3075.5 922)">2,783</text>
		</g>
		<g>
			<text fill="#595959" font-family="Verdana,sans-serif" font-weight="400" font-size="41" transform="matrix(1 0 0 1 3074.5 794)">5,566</text>
		</g>
		<g>
			<text fill="#595959" font-family="Verdana,sans-serif" font-weight="400" font-size="41" transform="matrix(1 0 0 1 3073.5 666)">8,348</text>
		</g>
		<g>
			<text fill="#595959" font-family="Verdana,sans-serif" font-weight="400" font-size="41" transform="matrix(1 0 0 1 3052.5 538)">11,131</text>
		</g>
		<g>
			<text fill="#595959" font-family="Verdana,sans-serif" font-weight="400" font-size="41" transform="matrix(1 0 0 1 3050.5 410)">13,914</text>
		</g>
		<g>
			<text fill="#595959" font-family="Verdana,sans-serif" font-weight="400" font-size="41" transform="matrix(1 0 0 1 3544.5 1321)">Week Commencing</text>
		</g>
		<g>
			<text fill="#595959" font-family="Verdana,sans-serif" font-weight="400" font-size="46" transform="matrix(6.12323e-17 -1 1 6.12323e-17 3019.73 1030.75)">Number of Browser Profiles</text>
		</g>
		<rect x="2918.5" y="347.5" width="1760" height="1043" stroke="#D9D9D9" stroke-width="3.4375" stroke-linejoin="round" stroke-miterlimit="10" fill="none" />
		<g>
			<path d="M3228.5 1038 3269.576923076923 1038 3310.653846153846 1038 3351.730769230769 1038 3392.8076923076924 1038 3433.8846153846152 1038 3474.9615384615386 1038 3516.0384615384614 1038 3557.1153846153848 1038 3598.1923076923076 1038 3639.269230769231 1038 3680.346153846154 1038 3721.423076923077 1038 3762.5 1038 3803.576923076923 1038 3844.653846153846 1038 3885.7307692307695 1038 3926.8076923076924 1038 3967.8846153846152 1038 4008.9615384615386 1038 4050.038461538462 1038 4091.1153846153848 1038 4132.192307692308 1038 4173.2692307692305 1038 4214.346153846154 1038 4255.423076923077 1038 4296.5 1038 4296.5 535.8525226390685 4255.423076923077 536.588472042547 4214.346153846154 537.9683771740692 4173.2692307692305 539.2102917924392 4132.192307692308 540.4522064108091 4091.1153846153848 541.9701020554837 4050.038461538462 543.1200229984188 4008.9615384615386 544.1779502659192 3967.8846153846152 545.281874371137 3926.8076923076924 546.7077763403765 3885.7307692307695 549.0536150639643 3844.653846153846 549.5135834411384 3803.576923076923 549.8815581428776 3762.5 551.8594221647261 3721.423076923077 553.883283024292 3680.346153846154 554.4352450769009 3639.269230769231 555.2631881558143 3598.1923076923076 555.9531407215754 3557.1153846153848 556.2291217478798 3516.0384615384614 556.2291217478798 3474.9615384615386 557.0110679890757 3433.8846153846152 557.4710363662498 3392.8076923076924 558.0229984188586 3351.730769230769 558.9429351732068 3310.653846153846 559.7248814144027 3269.576923076923 560.4148339801638 3228.5 560.9207991950552 3228.5 1038Z" fill="#e62d39" opacity="0.9" />
		</g>
		<g>
			<path d="M3228.5 560.9207991950552 3269.576923076923 560.4148339801638 3310.653846153846 559.7248814144027 3351.730769230769 558.9429351732068 3392.8076923076924 558.0229984188586 3433.8846153846152 557.4710363662498 3474.9615384615386 557.0110679890757 3516.0384615384614 556.2291217478798 3557.1153846153848 556.2291217478798 3598.1923076923076 555.9531407215754 3639.269230769231 555.2631881558143 3680.346153846154 554.4352450769009 3721.423076923077 553.883283024292 3762.5 551.8594221647261 3803.576923076923 549.8815581428776 3844.653846153846 549.5135834411384 3885.7307692307695 549.0536150639643 3926.8076923076924 546.7077763403765 3967.8846153846152 545.281874371137 4008.9615384615386 544.1779502659192 4050.038461538462 543.1200229984188 4091.1153846153848 541.9701020554837 4132.192307692308 540.4522064108091 4173.2692307692305 539.2102917924392 4214.346153846154 537.9683771740692 4255.423076923077 536.588472042547 4296.5 535.8525226390685 4296.5 397.99999999999994 4255.423076923077 398.87393991663066 4214.346153846154 400.4838292367399 4173.2692307692305 401.9557280436969 4132.192307692308 403.4276268506539 4091.1153846153848 405.22150352163294 4050.038461538462 406.601408653155 4008.9615384615386 408.30329164869914 3967.8846153846152 409.95917780652576 3926.8076923076924 411.4310766134828 3885.7307692307695 414.052896363375 3844.653846153846 414.5588615782665 3803.576923076923 415.11082363087525 3762.5 417.3646686790282 3721.423076923077 419.5265200517464 3680.346153846154 420.2164726175074 3639.269230769231 421.27439988500794 3598.1923076923076 422.1023429639213 3557.1153846153848 422.4703176656605 3516.0384615384614 422.4703176656605 3474.9615384615386 423.4822480954434 3433.8846153846152 424.1722006612045 3392.8076923076924 424.7701595515307 3351.730769230769 425.7820899813138 3310.653846153846 426.7020267356619 3269.576923076923 427.71395716544487 3228.5 428.4039097312059 3228.5 560.9207991950552Z" fill="#005aa6" opacity="0.9" />
		</g>
		<g>
			<rect x="4372" y="431" width="22.9995" height="23" fill="#e62d39" />
		</g>
		<g>
			<text fill="#595959" font-family="Verdana,sans-serif" font-weight="400" font-size="41" transform="matrix(1 0 0 1 4404.56 454)">Web Browser</text>
		</g>
		<g>
			<rect x="4372" y="508" width="22.9995" height="23" fill="#005aa6" />
		</g>
		<g>
			<text fill="#595959" font-family="Verdana,sans-serif" font-weight="400" font-size="41" transform="matrix(1 0 0 1 4404.56 531)">App</text>
		</g>
	</g>
</svg>
