<svg width="1763" height="1046"
    xmlns="http://www.w3.org/2000/svg"
	xmlns:xlink="http://www.w3.org/1999/xlink" xml:space="preserve" overflow="hidden">
	<defs>
		<clipPath id="clip0">
			<rect x="2917" y="346" width="1763" height="1046"/>
		</clipPath>
	</defs>
	<g clip-path="url(#clip0)" transform="translate(-2917 -346)">
		<rect x="2918" y="347" width="1760" height="1043" fill="#FFFFFF" />
		<g>
			<path d="
			M3228.5 974.532 4296.5 974.532
			M3228.5 910.53 4296.5 910.53
			M3228.5 846.528 4296.5 846.528
			M3228.5 781.526 4296.5 781.526
			M3228.5 717.524 4296.5 717.524
			M3228.5 653.522 4296.5 653.522
			M3228.5 589.52 4296.5 589.52
			M3228.5 525.517 4296.5 525.517
			M3228.5 461.515 4296.5 461.515
			M3228.5 397.5 4296.5 397.5" stroke="#D9D9D9" stroke-width="3.4375" stroke-linejoin="round" stroke-miterlimit="10" fill="none" />
		</g>
		<g>
			<path d="M 1038.5 4296.5 1038.5" stroke="#D9D9D9" stroke-width="3.4375" stroke-linejoin="round" stroke-miterlimit="10" fill="none" fill-rule="evenodd" />
		</g>
		<g>
			<text fill="#595959" font-family="Verdana,sans-serif" font-weight="400" font-size="41" transform="matrix(6.12323e-17 -1 1 6.12323e-17 3244.5 1211)">03-Jun</text>
		</g>
		<g>
			<text fill="#595959" font-family="Verdana,sans-serif" font-weight="400" font-size="41" transform="matrix(6.12323e-17 -1 1 6.12323e-17 3329.94 1197)">01-Jul</text>
		</g>
		<g>
			<text fill="#595959" font-family="Verdana,sans-serif" font-weight="400" font-size="41" transform="matrix(6.12323e-17 -1 1 6.12323e-17 3415.38 1196)">29-Jul</text>
		</g>
		<g>
			<text fill="#595959" font-family="Verdana,sans-serif" font-weight="400" font-size="41" transform="matrix(6.12323e-17 -1 1 6.12323e-17 3504.32 1221)">26-Aug</text>
		</g>
		<g>
			<text fill="#595959" font-family="Verdana,sans-serif" font-weight="400" font-size="41" transform="matrix(6.12323e-17 -1 1 6.12323e-17 3589.76 1221)">23-Sep</text>
		</g>
		<g>
			<text fill="#595959" font-family="Verdana,sans-serif" font-weight="400" font-size="41" transform="matrix(6.12323e-17 -1 1 6.12323e-17 3671.7 1215)">21-Oct</text>
		</g>
		<g>
			<text fill="#595959" font-family="Verdana,sans-serif" font-weight="400" font-size="41" transform="matrix(6.12323e-17 -1 1 6.12323e-17 3757.14 1222)">18-Nov</text>
		</g>
		<g>
			<text fill="#595959" font-family="Verdana,sans-serif" font-weight="400" font-size="41" transform="matrix(6.12323e-17 -1 1 6.12323e-17 3842.58 1222)">23-Dec</text>
		</g>
		<g>
			<text fill="#595959" font-family="Verdana,sans-serif" font-weight="400" font-size="41" transform="matrix(6.12323e-17 -1 1 6.12323e-17 3928.02 1210)">20-Jan</text>
		</g>
		<g>
			<text fill="#595959" font-family="Verdana,sans-serif" font-weight="400" font-size="41" transform="matrix(6.12323e-17 -1 1 6.12323e-17 4013.46 1214)">17-Feb</text>
		</g>
		<g>
			<text fill="#595959" font-family="Verdana,sans-serif" font-weight="400" font-size="41" transform="matrix(6.12323e-17 -1 1 6.12323e-17 4098.4 1221)">17-Mar</text>
		</g>
		<g>
			<text fill="#595959" font-family="Verdana,sans-serif" font-weight="400" font-size="41" transform="matrix(6.12323e-17 -1 1 6.12323e-17 4187.84 1214)">14-Apr</text>
		</g>
		<g>
			<text fill="#595959" font-family="Verdana,sans-serif" font-weight="400" font-size="41" transform="matrix(6.12323e-17 -1 1 6.12323e-17 4273.28 1226)">12-May</text>
		</g>
		<g>
			<text fill="#595959" font-family="Verdana,sans-serif" font-weight="400" font-size="41" transform="matrix(1 0 0 1 3167.5 1050)">0</text>
		</g>
		<g>
			<text fill="#595959" font-family="Verdana,sans-serif" font-weight="400" font-size="41" transform="matrix(1 0 0 1 3074.5 922)">3,046</text>
		</g>
		<g>
			<text fill="#595959" font-family="Verdana,sans-serif" font-weight="400" font-size="41" transform="matrix(1 0 0 1 3074.5 794)">6,092</text>
		</g>
		<g>
			<text fill="#595959" font-family="Verdana,sans-serif" font-weight="400" font-size="41" transform="matrix(1 0 0 1 3073.5 666)">9,139</text>
		</g>
		<g>
			<text fill="#595959" font-family="Verdana,sans-serif" font-weight="400" font-size="41" transform="matrix(1 0 0 1 3051.5 538)">12,185</text>
		</g>
		<g>
			<text fill="#595959" font-family="Verdana,sans-serif" font-weight="400" font-size="41" transform="matrix(1 0 0 1 3052.5 410)">15,231</text>
		</g>
		<g>
			<text fill="#595959" font-family="Verdana,sans-serif" font-weight="400" font-size="41" transform="matrix(1 0 0 1 3544.5 1321)">Week Commencing</text>
		</g>
		<g>
			<text fill="#595959" font-family="Verdana,sans-serif" font-weight="400" font-size="46" transform="matrix(6.12323e-17 -1 1 6.12323e-17 3019.73 1030.75)">Number of Browser Profiles</text>
		</g>
		<rect x="2918.5" y="347.5" width="1760" height="1043" stroke="#D9D9D9" stroke-width="3.4375" stroke-linejoin="round" stroke-miterlimit="10" fill="none" />
		<g>
			<path d="M3228.5 1038 3249.86 1038 3271.22 1038 3292.58 1038 3313.94 1038 3335.3 1038 3356.66 1038 3378.02 1038 3399.38 1038 3420.74 1038 3442.1 1038 3463.46 1038 3484.82 1038 3506.18 1038 3527.54 1038 3548.9 1038 3570.26 1038 3591.62 1038 3612.98 1038 3634.34 1038 3655.7 1038 3677.06 1038 3698.42 1038 3719.7799999999997 1038 3741.14 1038 3762.5 1038 3783.86 1038 3805.2200000000003 1038 3826.58 1038 3847.94 1038 3869.3 1038 3890.66 1038 3912.02 1038 3933.38 1038 3954.74 1038 3976.1 1038 3997.46 1038 4018.8199999999997 1038 4040.18 1038 4061.54 1038 4082.9 1038 4104.26 1038 4125.62 1038 4146.98 1038 4168.34 1038 4189.7 1038 4211.0599999999995 1038 4232.42 1038 4253.78 1038 4275.139999999999 1038 4296.5 1038 4296.5 534.1013722014313 4275.139999999999 535.2779200315147 4253.78 536.4124482962379 4232.42 537.3788982995208 4211.0599999999995 538.2613091720833 4189.7 539.2697787407262 4168.34 540.1942091786489 4146.98 541.7489330969734 4125.62 542.4212461427353 4104.26 543.0935591884972 4082.9 543.8919309303394 4061.54 545.0264591950627 4040.18 546.2030070251461 4018.8199999999997 547.1274374630688 3997.46 547.7157113781104 3976.1 548.6821613813933 3954.74 550.1108266036374 3933.38 550.7411200840392 3912.02 551.4554526951613 3890.66 551.9596874794827 3869.3 552.7160396559648 3847.94 553.2202744402863 3826.58 553.5144113978072 3805.2200000000003 554.4808614010899 3783.86 555.1951940122119 3762.5 556.7919374958965 3741.14 557.8424266298996 3719.7799999999997 558.4727201103015 3698.42 559.1030135907032 3677.06 560.027444028626 3655.7 560.783796205108 3634.34 561.4981288162301 3612.98 562.3805396887926 3591.62 563.7251657803165 3570.26 564.1453614339177 3548.9 565.2378701332809 3527.54 566.1623005712036 3506.18 566.7925940516053 3484.82 567.7170244895281 3463.46 568.2632788392095 3442.1 568.8515527542513 3420.74 569.775983192174 3399.38 570.5743549340161 3378.02 571.3307071104983 3356.66 571.8769614601799 3335.3 572.2971571137812 3313.94 572.7173527673824 3292.58 573.7258223360252 3271.22 574.4401549471472 3249.86 575.1544875582694 3228.5 576.2469962576324 3228.5 1038Z" fill="#e62d39" opacity="0.9" />
		</g>
		<g>
			<path d="M3228.5 576.2469962576324 3249.86 575.1544875582694 3271.22 574.4401549471472 3292.58 573.7258223360252 3313.94 572.7173527673824 3335.3 572.2971571137812 3356.66 571.8769614601799 3378.02 571.3307071104983 3399.38 570.5743549340161 3420.74 569.775983192174 3442.1 568.8515527542513 3463.46 568.2632788392095 3484.82 567.7170244895281 3506.18 566.7925940516053 3527.54 566.1623005712036 3548.9 565.2378701332809 3570.26 564.1453614339177 3591.62 563.7251657803165 3612.98 562.3805396887926 3634.34 561.4981288162301 3655.7 560.783796205108 3677.06 560.027444028626 3698.42 559.1030135907032 3719.7799999999997 558.4727201103015 3741.14 557.8424266298996 3762.5 556.7919374958965 3783.86 555.1951940122119 3805.2200000000003 554.4808614010899 3826.58 553.5144113978072 3847.94 553.2202744402863 3869.3 552.7160396559648 3890.66 551.9596874794827 3912.02 551.4554526951613 3933.38 550.7411200840392 3954.74 550.1108266036374 3976.1 548.6821613813933 3997.46 547.7157113781104 4018.8199999999997 547.1274374630688 4040.18 546.2030070251461 4061.54 545.0264591950627 4082.9 543.8919309303394 4104.26 543.0935591884972 4125.62 542.4212461427353 4146.98 541.7489330969734 4168.34 540.1942091786489 4189.7 539.2697787407262 4211.0599999999995 538.2613091720833 4232.42 537.3788982995208 4253.78 536.4124482962379 4275.139999999999 535.2779200315147 4296.5 534.1013722014313 4296.5 398.00000000000006 4275.139999999999 399.38664565688396 4253.78 400.77329131376797 4232.42 401.9078195784913 4211.0599999999995 402.9162891471342 4189.7 404.1348565425777 4168.34 405.22736524194084 4146.98 406.9921869870659 4125.62 407.87459785962847 4104.26 408.6309500361107 4082.9 409.5553804740332 4061.54 411.0260652616374 4040.18 412.3286717878012 4018.8199999999997 413.3791609218042 3997.46 414.21955222900664 3976.1 415.4381196244502 3954.74 417.0348631081348 3933.38 417.8332348499771 3912.02 418.7996848532599 3890.66 419.51401746438194 3869.3 420.3964283369444 3847.94 420.942682686626 3826.58 421.23681964414686 3805.2200000000003 422.3713479088701 3783.86 423.2957783467927 3762.5 425.1866587879981 3741.14 426.48926531416197 3719.7799999999997 427.3296566213644 3698.42 428.71630227824835 3677.06 429.8508305429717 3655.7 430.77526098089425 3634.34 431.6576718534568 3612.98 432.6661414220997 3591.62 434.13682620970394 3570.26 434.72510012474567 3548.9 436.1117457816297 3527.54 437.24627404635294 3506.18 438.04464578819517 3484.82 439.1791740529185 3463.46 439.80946753332023 3442.1 440.6918784058829 3420.74 441.70034797452576 3399.38 442.6667979778084 3378.02 443.549208850371 3356.66 444.09546320005256 3335.3 444.5996979843741 3313.94 445.31403059549615 3292.58 446.49057842557943 3271.22 447.37298929814193 3249.86 448.2974197360646 3228.5 449.6840653929486 3228.5 576.2469962576324Z" fill="#005aa6" opacity="0.9" />
		</g>
		<g>
			<rect x="4372" y="431" width="22.9995" height="23" fill="#e62d39" />
		</g>
		<g>
			<text fill="#595959" font-family="Verdana,sans-serif" font-weight="400" font-size="41" transform="matrix(1 0 0 1 4404.56 454)">Web Browser</text>
		</g>
		<g>
			<rect x="4372" y="508" width="22.9995" height="23" fill="#005aa6" />
		</g>
		<g>
			<text fill="#595959" font-family="Verdana,sans-serif" font-weight="400" font-size="41" transform="matrix(1 0 0 1 4404.56 531)">App</text>
		</g>
	</g>
</svg>
