<svg width="1763" height="1046"
    xmlns="http://www.w3.org/2000/svg"
	xmlns:xlink="http://www.w3.org/1999/xlink" xml:space="preserve" overflow="hidden">
	<defs>
		<clipPath id="clip0">
			<rect x="2917" y="346" width="1763" height="1046"/>
		</clipPath>
	</defs>
	<g clip-path="url(#clip0)" transform="translate(-2917 -346)">
		<rect x="2918" y="347" width="1760" height="1043" fill="#FFFFFF" />
		<g>
			<path d="
			M3228.5 974.532 4296.5 974.532
			M3228.5 910.53 4296.5 910.53
			M3228.5 846.528 4296.5 846.528
			M3228.5 781.526 4296.5 781.526
			M3228.5 717.524 4296.5 717.524
			M3228.5 653.522 4296.5 653.522
			M3228.5 589.52 4296.5 589.52
			M3228.5 525.517 4296.5 525.517
			M3228.5 461.515 4296.5 461.515
			M3228.5 397.5 4296.5 397.5" stroke="#D9D9D9" stroke-width="3.4375" stroke-linejoin="round" stroke-miterlimit="10" fill="none" />
		</g>
		<g>
			<path d="M 1038.5 4296.5 1038.5" stroke="#D9D9D9" stroke-width="3.4375" stroke-linejoin="round" stroke-miterlimit="10" fill="none" fill-rule="evenodd" />
		</g>
		<g>
			<text fill="#595959" font-family="Verdana,sans-serif" font-weight="400" font-size="41" transform="matrix(6.12323e-17 -1 1 6.12323e-17 3244.5 1222)">25-Dec</text>
		</g>
		<g>
			<text fill="#595959" font-family="Verdana,sans-serif" font-weight="400" font-size="41" transform="matrix(6.12323e-17 -1 1 6.12323e-17 3328.264705882353 1210)">22-Jan</text>
		</g>
		<g>
			<text fill="#595959" font-family="Verdana,sans-serif" font-weight="400" font-size="41" transform="matrix(6.12323e-17 -1 1 6.12323e-17 3412.029411764706 1214)">19-Feb</text>
		</g>
		<g>
			<text fill="#595959" font-family="Verdana,sans-serif" font-weight="400" font-size="41" transform="matrix(6.12323e-17 -1 1 6.12323e-17 3495.794117647059 1221)">18-Mar</text>
		</g>
		<g>
			<text fill="#595959" font-family="Verdana,sans-serif" font-weight="400" font-size="41" transform="matrix(6.12323e-17 -1 1 6.12323e-17 3583.0588235294117 1214)">15-Apr</text>
		</g>
		<g>
			<text fill="#595959" font-family="Verdana,sans-serif" font-weight="400" font-size="41" transform="matrix(6.12323e-17 -1 1 6.12323e-17 3666.823529411765 1226)">13-May</text>
		</g>
		<g>
			<text fill="#595959" font-family="Verdana,sans-serif" font-weight="400" font-size="41" transform="matrix(6.12323e-17 -1 1 6.12323e-17 3747.0882352941176 1209)">10-Jun</text>
		</g>
		<g>
			<text fill="#595959" font-family="Verdana,sans-serif" font-weight="400" font-size="41" transform="matrix(6.12323e-17 -1 1 6.12323e-17 3830.8529411764707 1197)">08-Jul</text>
		</g>
		<g>
			<text fill="#595959" font-family="Verdana,sans-serif" font-weight="400" font-size="41" transform="matrix(6.12323e-17 -1 1 6.12323e-17 3918.1176470588234 1221)">05-Aug</text>
		</g>
		<g>
			<text fill="#595959" font-family="Verdana,sans-serif" font-weight="400" font-size="41" transform="matrix(6.12323e-17 -1 1 6.12323e-17 4001.8823529411766 1222)">02-Sep</text>
		</g>
		<g>
			<text fill="#595959" font-family="Verdana,sans-serif" font-weight="400" font-size="41" transform="matrix(6.12323e-17 -1 1 6.12323e-17 4085.6470588235293 1221)">30-Sep</text>
		</g>
		<g>
			<text fill="#595959" font-family="Verdana,sans-serif" font-weight="400" font-size="41" transform="matrix(6.12323e-17 -1 1 6.12323e-17 4165.911764705882 1215)">28-Oct</text>
		</g>
		<g>
			<text fill="#595959" font-family="Verdana,sans-serif" font-weight="400" font-size="41" transform="matrix(6.12323e-17 -1 1 6.12323e-17 4249.676470588235 1224)">25-Nov</text>
		</g>
		<g>
			<text fill="#595959" font-family="Verdana,sans-serif" font-weight="400" font-size="41" transform="matrix(1 0 0 1 3167.5 1050)">0</text>
		</g>
		<g>
			<text fill="#595959" font-family="Verdana,sans-serif" font-weight="400" font-size="41" transform="matrix(1 0 0 1 3074.5 922)">2,936</text>
		</g>
		<g>
			<text fill="#595959" font-family="Verdana,sans-serif" font-weight="400" font-size="41" transform="matrix(1 0 0 1 3076.5 794)">5,871</text>
		</g>
		<g>
			<text fill="#595959" font-family="Verdana,sans-serif" font-weight="400" font-size="41" transform="matrix(1 0 0 1 3073.5 666)">8,807</text>
		</g>
		<g>
			<text fill="#595959" font-family="Verdana,sans-serif" font-weight="400" font-size="41" transform="matrix(1 0 0 1 3050.5 538)">11,742</text>
		</g>
		<g>
			<text fill="#595959" font-family="Verdana,sans-serif" font-weight="400" font-size="41" transform="matrix(1 0 0 1 3050.5 410)">14,678</text>
		</g>
		<g>
			<text fill="#595959" font-family="Verdana,sans-serif" font-weight="400" font-size="41" transform="matrix(1 0 0 1 3544.5 1321)">Week Commencing</text>
		</g>
		<g>
			<text fill="#595959" font-family="Verdana,sans-serif" font-weight="400" font-size="46" transform="matrix(6.12323e-17 -1 1 6.12323e-17 3019.73 1030.75)">Number of Browser Profiles</text>
		</g>
		<rect x="2918.5" y="347.5" width="1760" height="1043" stroke="#D9D9D9" stroke-width="3.4375" stroke-linejoin="round" stroke-miterlimit="10" fill="none" />
		<g>
			<path d="M3228.5 1038 3249.4411764705883 1038 3270.3823529411766 1038 3291.323529411765 1038 3312.264705882353 1038 3333.205882352941 1038 3354.1470588235293 1038 3375.0882352941176 1038 3396.029411764706 1038 3416.970588235294 1038 3437.9117647058824 1038 3458.8529411764707 1038 3479.794117647059 1038 3500.735294117647 1038 3521.676470588235 1038 3542.6176470588234 1038 3563.5588235294117 1038 3584.5 1038 3605.4411764705883 1038 3626.3823529411766 1038 3647.323529411765 1038 3668.264705882353 1038 3689.205882352941 1038 3710.1470588235293 1038 3731.0882352941176 1038 3752.029411764706 1038 3772.970588235294 1038 3793.9117647058824 1038 3814.8529411764707 1038 3835.7941176470586 1038 3856.735294117647 1038 3877.676470588235 1038 3898.6176470588234 1038 3919.5588235294117 1038 3940.5 1038 3961.4411764705883 1038 3982.3823529411766 1038 4003.323529411765 1038 4024.264705882353 1038 4045.2058823529414 1038 4066.1470588235293 1038 4087.0882352941176 1038 4108.029411764706 1038 4128.970588235294 1038 4149.911764705882 1038 4170.85294117647 1038 4191.794117647059 1038 4212.735294117647 1038 4233.676470588235 1038 4254.617647058823 1038 4275.558823529412 1038 4296.5 1038 4296.5 535.261207248944 4275.558823529412 536.2640686742063 4254.617647058823 537.0053140754871 4233.676470588235 538.6622155607031 4212.735294117647 539.7522823272925 4191.794117647059 540.4063223872462 4170.85294117647 541.0603624471999 4149.911764705882 542.0196212017986 4128.970588235294 542.804469273743 4108.029411764706 543.5457146750239 4087.0882352941176 544.461370758959 4066.1470588235293 545.8566562201934 4045.2058823529414 546.2926829268292 4024.264705882353 547.4263523640823 4003.323529411765 548.385611118681 3982.3823529411766 549.0396511786346 3961.4411764705883 549.9989099332333 3940.5 550.5657446518599 3919.5588235294117 551.17618204115 3898.6176470588234 552.1354407957488 3877.676470588235 552.9638915383566 3856.735294117647 553.7487396103011 3835.7941176470586 554.3155743289276 3814.8529411764707 554.7516010355635 3793.9117647058824 555.1876277421992 3772.970588235294 556.2340918381251 3752.029411764706 556.9753372394059 3731.0882352941176 557.7165826406867 3710.1470588235293 558.8502520779398 3689.205882352941 559.9403188445292 3668.264705882353 560.9431802697915 3647.323529411765 561.4228096470908 3626.3823529411766 561.9896443657174 3605.4411764705883 562.6872870963346 3584.5 563.9953672162419 3563.5588235294117 565.1726393241586 3542.6176470588234 566.3499114320753 3521.676470588235 567.7887995639733 3500.735294117647 568.8788663305627 3479.794117647059 569.8817277558251 3458.8529411764707 570.9281918517509 3437.9117647058824 572.2798746423218 3416.970588235294 574.5036108461643 3396.029411764706 574.9396375528001 3375.0882352941176 575.2884589181087 3354.1470588235293 577.1633737566426 3333.205882352941 579.08189126584 3312.264705882353 579.605123313803 3291.323529411765 580.3899713857473 3270.3823529411766 581.044011445701 3249.4411764705883 581.3056274696825 3228.5 581.3056274696825 3228.5 1038Z" fill="#e62d39" opacity="0.9" />
		</g>
		<g>
			<path d="M3228.5 581.3056274696825 3249.4411764705883 581.3056274696825 3270.3823529411766 581.044011445701 3291.323529411765 580.3899713857473 3312.264705882353 579.605123313803 3333.205882352941 579.08189126584 3354.1470588235293 577.1633737566426 3375.0882352941176 575.2884589181087 3396.029411764706 574.9396375528001 3416.970588235294 574.5036108461643 3437.9117647058824 572.2798746423218 3458.8529411764707 570.9281918517509 3479.794117647059 569.8817277558251 3500.735294117647 568.8788663305627 3521.676470588235 567.7887995639733 3542.6176470588234 566.3499114320753 3563.5588235294117 565.1726393241586 3584.5 563.9953672162419 3605.4411764705883 562.6872870963346 3626.3823529411766 561.9896443657174 3647.323529411765 561.4228096470908 3668.264705882353 560.9431802697915 3689.205882352941 559.9403188445292 3710.1470588235293 558.8502520779398 3731.0882352941176 557.7165826406867 3752.029411764706 556.9753372394059 3772.970588235294 556.2340918381251 3793.9117647058824 555.1876277421992 3814.8529411764707 554.7516010355635 3835.7941176470586 554.3155743289276 3856.735294117647 553.7487396103011 3877.676470588235 552.9638915383566 3898.6176470588234 552.1354407957488 3919.5588235294117 551.17618204115 3940.5 550.5657446518599 3961.4411764705883 549.9989099332333 3982.3823529411766 549.0396511786346 4003.323529411765 548.385611118681 4024.264705882353 547.4263523640823 4045.2058823529414 546.2926829268292 4066.1470588235293 545.8566562201934 4087.0882352941176 544.461370758959 4108.029411764706 543.5457146750239 4128.970588235294 542.804469273743 4149.911764705882 542.0196212017986 4170.85294117647 541.0603624471999 4191.794117647059 540.4063223872462 4212.735294117647 539.7522823272925 4233.676470588235 538.6622155607031 4254.617647058823 537.0053140754871 4275.558823529412 536.2640686742063 4296.5 535.261207248944 4296.5 397.99999999999994 4275.558823529412 399.1772721079166 4254.617647058823 400.1365308625153 4233.676470588235 402.09865104237633 4212.735294117647 403.4503338329472 4191.794117647059 404.3223872462188 4170.85294117647 405.76127537811686 4149.911764705882 406.9385474860335 4128.970588235294 407.89780624063224 4108.029411764706 408.8134623245674 4087.0882352941176 409.85992642049325 4066.1470588235293 411.38601989371836 4045.2058823529414 411.99645728300857 4024.264705882353 413.43534541490664 4003.323529411765 414.61261752282326 3982.3823529411766 415.4410682654311 3961.4411764705883 416.6183403733478 3940.5 417.27238043330146 3919.5588235294117 418.1880365172367 3898.6176470588234 419.2345006131626 3877.676470588235 420.23736203842475 3856.735294117647 421.1530181223599 3835.7941176470586 421.71985284098645 3814.8529411764707 422.24308488894945 3793.9117647058824 422.9843302902302 3772.970588235294 424.20520506881047 3752.029411764706 425.1208611527456 3731.0882352941176 426.0801199073443 3710.1470588235293 427.5190080392424 3689.205882352941 428.82708815914975 3668.264705882353 429.9607575964027 3647.323529411765 430.6147976563564 3626.3823529411766 431.31244038697366 3605.4411764705883 432.1408911295816 3584.5 433.6669846028068 3563.5588235294117 435.0622700640414 3542.6176470588234 436.45755552527595 3521.676470588235 438.15805968115546 3500.735294117647 439.46613980106275 3479.794117647059 441.07943861561523 3458.8529411764707 442.6491347595039 3437.9117647058824 444.0444202207385 3416.970588235294 446.5297724485624 3396.029411764706 447.00940182586186 3375.0882352941176 447.5326338738248 3354.1470588235293 449.6691647363401 3333.205882352941 451.71849025752823 3312.264705882353 452.37253031748196 3291.323529411765 453.3753917427442 3270.3823529411766 454.1602398146886 3249.4411764705883 454.5090611799972 3228.5 454.5090611799972 3228.5 581.3056274696825Z" fill="#005aa6" opacity="0.9" />
		</g>
		<g>
			<rect x="4372" y="431" width="22.9995" height="23" fill="#e62d39" />
		</g>
		<g>
			<text fill="#595959" font-family="Verdana,sans-serif" font-weight="400" font-size="41" transform="matrix(1 0 0 1 4404.56 454)">Web Browser</text>
		</g>
		<g>
			<rect x="4372" y="508" width="22.9995" height="23" fill="#005aa6" />
		</g>
		<g>
			<text fill="#595959" font-family="Verdana,sans-serif" font-weight="400" font-size="41" transform="matrix(1 0 0 1 4404.56 531)">App</text>
		</g>
	</g>
</svg>
