<svg width="1763" height="1046"
    xmlns="http://www.w3.org/2000/svg"
	xmlns:xlink="http://www.w3.org/1999/xlink" xml:space="preserve" overflow="hidden">
	<defs>
		<clipPath id="clip0">
			<rect x="2917" y="346" width="1763" height="1046"/>
		</clipPath>
	</defs>
	<g clip-path="url(#clip0)" transform="translate(-2917 -346)">
		<rect x="2918" y="347" width="1760" height="1043" fill="#FFFFFF" />
		<g>
			<path d="
			M3228.5 974.532 4296.5 974.532
			M3228.5 910.53 4296.5 910.53
			M3228.5 846.528 4296.5 846.528
			M3228.5 781.526 4296.5 781.526
			M3228.5 717.524 4296.5 717.524
			M3228.5 653.522 4296.5 653.522
			M3228.5 589.52 4296.5 589.52
			M3228.5 525.517 4296.5 525.517
			M3228.5 461.515 4296.5 461.515
			M3228.5 397.5 4296.5 397.5" stroke="#D9D9D9" stroke-width="3.4375" stroke-linejoin="round" stroke-miterlimit="10" fill="none" />
		</g>
		<g>
			<path d="M 1038.5 4296.5 1038.5" stroke="#D9D9D9" stroke-width="3.4375" stroke-linejoin="round" stroke-miterlimit="10" fill="none" fill-rule="evenodd" />
		</g>
		<g>
			<text fill="#595959" font-family="Verdana,sans-serif" font-weight="400" font-size="41" transform="matrix(6.12323e-17 -1 1 6.12323e-17 3248 1216)">29-Apr</text>
		</g>
		<g>
			<text fill="#595959" font-family="Verdana,sans-serif" font-weight="400" font-size="41" transform="matrix(6.12323e-17 -1 1 6.12323e-17 3331.764705882353 1228)">27-May</text>
		</g>
		<g>
			<text fill="#595959" font-family="Verdana,sans-serif" font-weight="400" font-size="41" transform="matrix(6.12323e-17 -1 1 6.12323e-17 3412.029411764706 1211)">24-Jun</text>
		</g>
		<g>
			<text fill="#595959" font-family="Verdana,sans-serif" font-weight="400" font-size="41" transform="matrix(6.12323e-17 -1 1 6.12323e-17 3495.794117647059 1196)">22-Jul</text>
		</g>
		<g>
			<text fill="#595959" font-family="Verdana,sans-serif" font-weight="400" font-size="41" transform="matrix(6.12323e-17 -1 1 6.12323e-17 3583.0588235294117 1218)">19-Aug</text>
		</g>
		<g>
			<text fill="#595959" font-family="Verdana,sans-serif" font-weight="400" font-size="41" transform="matrix(6.12323e-17 -1 1 6.12323e-17 3666.823529411765 1219)">16-Sep</text>
		</g>
		<g>
			<text fill="#595959" font-family="Verdana,sans-serif" font-weight="400" font-size="41" transform="matrix(6.12323e-17 -1 1 6.12323e-17 3747.0882352941176 1213)">14-Oct</text>
		</g>
		<g>
			<text fill="#595959" font-family="Verdana,sans-serif" font-weight="400" font-size="41" transform="matrix(6.12323e-17 -1 1 6.12323e-17 3830.3529411764707 1222)">11-Nov</text>
		</g>
		<g>
			<text fill="#595959" font-family="Verdana,sans-serif" font-weight="400" font-size="41" transform="matrix(6.12323e-17 -1 1 6.12323e-17 3914.1176470588234 1220)">16-Dec</text>
		</g>
		<g>
			<text fill="#595959" font-family="Verdana,sans-serif" font-weight="400" font-size="41" transform="matrix(6.12323e-17 -1 1 6.12323e-17 3998.3823529411766 1207)">13-Jan</text>
		</g>
		<g>
			<text fill="#595959" font-family="Verdana,sans-serif" font-weight="400" font-size="41" transform="matrix(6.12323e-17 -1 1 6.12323e-17 4082.1470588235293 1214)">10-Feb</text>
		</g>
		<g>
			<text fill="#595959" font-family="Verdana,sans-serif" font-weight="400" font-size="41" transform="matrix(6.12323e-17 -1 1 6.12323e-17 4165.911764705882 1221)">10-Mar</text>
		</g>
		<g>
			<text fill="#595959" font-family="Verdana,sans-serif" font-weight="400" font-size="41" transform="matrix(6.12323e-17 -1 1 6.12323e-17 4253.176470588235 1217)">07-Apr</text>
		</g>
		<g>
			<text fill="#595959" font-family="Verdana,sans-serif" font-weight="400" font-size="41" transform="matrix(1 0 0 1 3167.5 1050)">0</text>
		</g>
		<g>
			<text fill="#595959" font-family="Verdana,sans-serif" font-weight="400" font-size="41" transform="matrix(1 0 0 1 3075.5 922)">3,023</text>
		</g>
		<g>
			<text fill="#595959" font-family="Verdana,sans-serif" font-weight="400" font-size="41" transform="matrix(1 0 0 1 3073.5 794)">6,046</text>
		</g>
		<g>
			<text fill="#595959" font-family="Verdana,sans-serif" font-weight="400" font-size="41" transform="matrix(1 0 0 1 3073.5 666)">9,068</text>
		</g>
		<g>
			<text fill="#595959" font-family="Verdana,sans-serif" font-weight="400" font-size="41" transform="matrix(1 0 0 1 3052.5 538)">12,091</text>
		</g>
		<g>
			<text fill="#595959" font-family="Verdana,sans-serif" font-weight="400" font-size="41" transform="matrix(1 0 0 1 3050.5 410)">15,114</text>
		</g>
		<g>
			<text fill="#595959" font-family="Verdana,sans-serif" font-weight="400" font-size="41" transform="matrix(1 0 0 1 3544.5 1321)">Week Commencing</text>
		</g>
		<g>
			<text fill="#595959" font-family="Verdana,sans-serif" font-weight="400" font-size="46" transform="matrix(6.12323e-17 -1 1 6.12323e-17 3019.73 1030.75)">Number of Browser Profiles</text>
		</g>
		<rect x="2918.5" y="347.5" width="1760" height="1043" stroke="#D9D9D9" stroke-width="3.4375" stroke-linejoin="round" stroke-miterlimit="10" fill="none" />
		<g>
			<path d="M3228.5 1038 3249.4411764705883 1038 3270.3823529411766 1038 3291.323529411765 1038 3312.264705882353 1038 3333.205882352941 1038 3354.1470588235293 1038 3375.0882352941176 1038 3396.029411764706 1038 3416.970588235294 1038 3437.9117647058824 1038 3458.8529411764707 1038 3479.794117647059 1038 3500.735294117647 1038 3521.676470588235 1038 3542.6176470588234 1038 3563.5588235294117 1038 3584.5 1038 3605.4411764705883 1038 3626.3823529411766 1038 3647.323529411765 1038 3668.264705882353 1038 3689.205882352941 1038 3710.1470588235293 1038 3731.0882352941176 1038 3752.029411764706 1038 3772.970588235294 1038 3793.9117647058824 1038 3814.8529411764707 1038 3835.7941176470586 1038 3856.735294117647 1038 3877.676470588235 1038 3898.6176470588234 1038 3919.5588235294117 1038 3940.5 1038 3961.4411764705883 1038 3982.3823529411766 1038 4003.323529411765 1038 4024.264705882353 1038 4045.2058823529414 1038 4066.1470588235293 1038 4087.0882352941176 1038 4108.029411764706 1038 4128.970588235294 1038 4149.911764705882 1038 4170.85294117647 1038 4191.794117647059 1038 4212.735294117647 1038 4233.676470588235 1038 4254.617647058823 1038 4275.558823529412 1038 4296.5 1038 4296.5 534.3927484451501 4275.558823529412 535.4090247452693 4254.617647058823 536.3406113537118 4233.676470588235 537.9073706497288 4212.735294117647 538.5848881831414 4191.794117647059 539.2624057165542 4170.85294117647 540.0669577874818 4149.911764705882 541.2102686251158 4128.970588235294 542.3959243085881 4108.029411764706 543.3275109170306 4087.0882352941176 543.9203387587668 4066.1470588235293 544.8942702130475 4045.2058823529414 546.3339949715496 4024.264705882353 546.969167659124 4003.323529411765 547.689030038375 3982.3823529411766 548.1971681884345 3961.4411764705883 548.959375413524 3940.5 549.4675135635835 3919.5588235294117 549.7639274844515 3898.6176470588234 550.7378589387323 3877.676470588235 551.4577213179833 3856.735294117647 553.0668254598386 3835.7941176470586 554.125446605796 3814.8529411764707 554.7606192933704 3793.9117647058824 555.3957919809448 3772.970588235294 556.3273785893873 3752.029411764706 557.0895858144767 3731.0882352941176 557.8094481937277 3710.1470588235293 558.6986899563319 3689.205882352941 560.0537250231573 3668.264705882353 560.4771734815404 3647.323529411765 561.578139473336 3626.3823529411766 562.5097260817785 3605.4411764705883 563.144898769353 3584.5 564.0764853777955 3563.5588235294117 564.6269683736932 3542.6176470588234 565.2197962154294 3521.676470588235 566.1513828238719 3500.735294117647 566.9559348947996 3479.794117647059 567.7181421198889 3458.8529411764707 568.2686251157867 3437.9117647058824 568.6920735741696 3416.970588235294 569.1155220325527 3396.029411764706 570.1317983326717 3375.0882352941176 570.8516607119227 3354.1470588235293 571.5715230911737 3333.205882352941 572.6724890829694 3312.264705882353 573.7311102289268 3291.323529411765 574.7050416832076 3270.3823529411766 575.1708349874289 3249.4411764705883 575.7213179833268 3228.5 576.3988355167394 3228.5 1038Z" fill="#e62d39" opacity="0.9" />
		</g>
		<g>
			<path d="M3228.5 576.3988355167394 3249.4411764705883 575.7213179833268 3270.3823529411766 575.1708349874289 3291.323529411765 574.7050416832076 3312.264705882353 573.7311102289268 3333.205882352941 572.6724890829694 3354.1470588235293 571.5715230911737 3375.0882352941176 570.8516607119227 3396.029411764706 570.1317983326717 3416.970588235294 569.1155220325527 3437.9117647058824 568.6920735741696 3458.8529411764707 568.2686251157867 3479.794117647059 567.7181421198889 3500.735294117647 566.9559348947996 3521.676470588235 566.1513828238719 3542.6176470588234 565.2197962154294 3563.5588235294117 564.6269683736932 3584.5 564.0764853777955 3605.4411764705883 563.144898769353 3626.3823529411766 562.5097260817785 3647.323529411765 561.578139473336 3668.264705882353 560.4771734815404 3689.205882352941 560.0537250231573 3710.1470588235293 558.6986899563319 3731.0882352941176 557.8094481937277 3752.029411764706 557.0895858144767 3772.970588235294 556.3273785893873 3793.9117647058824 555.3957919809448 3814.8529411764707 554.7606192933704 3835.7941176470586 554.125446605796 3856.735294117647 553.0668254598386 3877.676470588235 551.4577213179833 3898.6176470588234 550.7378589387323 3919.5588235294117 549.7639274844515 3940.5 549.4675135635835 3961.4411764705883 548.959375413524 3982.3823529411766 548.1971681884345 4003.323529411765 547.689030038375 4024.264705882353 546.969167659124 4045.2058823529414 546.3339949715496 4066.1470588235293 544.8942702130475 4087.0882352941176 543.9203387587668 4108.029411764706 543.3275109170306 4128.970588235294 542.3959243085881 4149.911764705882 541.2102686251158 4170.85294117647 540.0669577874818 4191.794117647059 539.2624057165542 4212.735294117647 538.5848881831414 4233.676470588235 537.9073706497288 4254.617647058823 536.3406113537118 4275.558823529412 535.4090247452693 4296.5 534.3927484451501 4296.5 397.9999999999999 4275.558823529412 399.22800052931063 4254.617647058823 400.3289665211063 4233.676470588235 402.10745004631474 4212.735294117647 402.99669180891885 4191.794117647059 403.7588990340082 4170.85294117647 404.69048564245065 4149.911764705882 406.17255524679103 4128.970588235294 407.4852454677782 4108.029411764706 408.54386661373564 4087.0882352941176 409.3907635305016 4066.1470588235293 410.6187640598122 4045.2058823529414 412.2278682016674 4024.264705882353 413.0324202725949 4003.323529411765 414.0063517268757 3982.3823529411766 414.7262141061267 3961.4411764705883 415.61545586873103 3940.5 416.16593886462886 3919.5588235294117 416.46235278549693 3898.6176470588234 417.6056636231309 3877.676470588235 418.53725023157335 3856.735294117647 420.4427682942967 3835.7941176470586 421.7554585152839 3814.8529411764707 422.60235543204976 3793.9117647058824 423.9997353447135 3772.970588235294 425.14304618234746 3752.029411764706 426.07463279079 3731.0882352941176 426.96387455339425 3710.1470588235293 427.98015085351335 3689.205882352941 429.4622204578536 3668.264705882353 430.0550482995899 3647.323529411765 431.4524282122536 3626.3823529411766 432.59573904988747 3605.4411764705883 433.40029112081515 3584.5 434.54360195844924 3563.5588235294117 435.1787746460235 3542.6176470588234 436.0680164086277 3521.676470588235 437.0842927087469 3500.735294117647 438.0582241630277 3479.794117647059 438.94746592563183 3458.8529411764707 439.49794892152966 3437.9117647058824 440.00608707158926 3416.970588235294 440.7259494508404 3396.029411764706 441.91160513431254 3375.0882352941176 442.8008468969167 3354.1470588235293 443.73243350535927 3333.205882352941 445.129813418023 3312.264705882353 446.4001587931719 3291.323529411765 447.50112478496754 3270.3823529411766 448.13629747254197 3249.4411764705883 448.81381500595484 3228.5 449.6183670768823 3228.5 576.3988355167394Z" fill="#005aa6" opacity="0.9" />
		</g>
		<g>
			<rect x="4372" y="431" width="22.9995" height="23" fill="#e62d39" />
		</g>
		<g>
			<text fill="#595959" font-family="Verdana,sans-serif" font-weight="400" font-size="41" transform="matrix(1 0 0 1 4404.56 454)">Web Browser</text>
		</g>
		<g>
			<rect x="4372" y="508" width="22.9995" height="23" fill="#005aa6" />
		</g>
		<g>
			<text fill="#595959" font-family="Verdana,sans-serif" font-weight="400" font-size="41" transform="matrix(1 0 0 1 4404.56 531)">App</text>
		</g>
	</g>
</svg>
