<svg width="1763" height="1046"
    xmlns="http://www.w3.org/2000/svg"
	xmlns:xlink="http://www.w3.org/1999/xlink" xml:space="preserve" overflow="hidden">
	<defs>
		<clipPath id="clip0">
			<rect x="2917" y="346" width="1763" height="1046"/>
		</clipPath>
	</defs>
	<g clip-path="url(#clip0)" transform="translate(-2917 -346)">
		<rect x="2918" y="347" width="1760" height="1043" fill="#FFFFFF" />
		<g>
			<path d="
			M3228.5 974.532 4296.5 974.532
			M3228.5 910.53 4296.5 910.53
			M3228.5 846.528 4296.5 846.528
			M3228.5 781.526 4296.5 781.526
			M3228.5 717.524 4296.5 717.524
			M3228.5 653.522 4296.5 653.522
			M3228.5 589.52 4296.5 589.52
			M3228.5 525.517 4296.5 525.517
			M3228.5 461.515 4296.5 461.515
			M3228.5 397.5 4296.5 397.5" stroke="#D9D9D9" stroke-width="3.4375" stroke-linejoin="round" stroke-miterlimit="10" fill="none" />
		</g>
		<g>
			<path d="M 1038.5 4296.5 1038.5" stroke="#D9D9D9" stroke-width="3.4375" stroke-linejoin="round" stroke-miterlimit="10" fill="none" fill-rule="evenodd" />
		</g>
		<g>
			<text fill="#595959" font-family="Verdana,sans-serif" font-weight="400" font-size="41" transform="matrix(6.12323e-17 -1 1 6.12323e-17 3244.5 1223)">04-Mar</text>
		</g>
		<g>
			<text fill="#595959" font-family="Verdana,sans-serif" font-weight="400" font-size="41" transform="matrix(6.12323e-17 -1 1 6.12323e-17 3331.764705882353 1217)">01-Apr</text>
		</g>
		<g>
			<text fill="#595959" font-family="Verdana,sans-serif" font-weight="400" font-size="41" transform="matrix(6.12323e-17 -1 1 6.12323e-17 3415.529411764706 1216)">29-Apr</text>
		</g>
		<g>
			<text fill="#595959" font-family="Verdana,sans-serif" font-weight="400" font-size="41" transform="matrix(6.12323e-17 -1 1 6.12323e-17 3499.294117647059 1228)">27-May</text>
		</g>
		<g>
			<text fill="#595959" font-family="Verdana,sans-serif" font-weight="400" font-size="41" transform="matrix(6.12323e-17 -1 1 6.12323e-17 3579.5588235294117 1211)">24-Jun</text>
		</g>
		<g>
			<text fill="#595959" font-family="Verdana,sans-serif" font-weight="400" font-size="41" transform="matrix(6.12323e-17 -1 1 6.12323e-17 3663.323529411765 1196)">22-Jul</text>
		</g>
		<g>
			<text fill="#595959" font-family="Verdana,sans-serif" font-weight="400" font-size="41" transform="matrix(6.12323e-17 -1 1 6.12323e-17 3750.5882352941176 1218)">19-Aug</text>
		</g>
		<g>
			<text fill="#595959" font-family="Verdana,sans-serif" font-weight="400" font-size="41" transform="matrix(6.12323e-17 -1 1 6.12323e-17 3834.3529411764707 1219)">16-Sep</text>
		</g>
		<g>
			<text fill="#595959" font-family="Verdana,sans-serif" font-weight="400" font-size="41" transform="matrix(6.12323e-17 -1 1 6.12323e-17 3914.6176470588234 1213)">14-Oct</text>
		</g>
		<g>
			<text fill="#595959" font-family="Verdana,sans-serif" font-weight="400" font-size="41" transform="matrix(6.12323e-17 -1 1 6.12323e-17 3997.8823529411766 1222)">11-Nov</text>
		</g>
		<g>
			<text fill="#595959" font-family="Verdana,sans-serif" font-weight="400" font-size="41" transform="matrix(6.12323e-17 -1 1 6.12323e-17 4081.6470588235293 1220)">16-Dec</text>
		</g>
		<g>
			<text fill="#595959" font-family="Verdana,sans-serif" font-weight="400" font-size="41" transform="matrix(6.12323e-17 -1 1 6.12323e-17 4165.911764705882 1207)">13-Jan</text>
		</g>
		<g>
			<text fill="#595959" font-family="Verdana,sans-serif" font-weight="400" font-size="41" transform="matrix(6.12323e-17 -1 1 6.12323e-17 4249.676470588235 1214)">10-Feb</text>
		</g>
		<g>
			<text fill="#595959" font-family="Verdana,sans-serif" font-weight="400" font-size="41" transform="matrix(1 0 0 1 3167.5 1050)">0</text>
		</g>
		<g>
			<text fill="#595959" font-family="Verdana,sans-serif" font-weight="400" font-size="41" transform="matrix(1 0 0 1 3074.5 922)">2,978</text>
		</g>
		<g>
			<text fill="#595959" font-family="Verdana,sans-serif" font-weight="400" font-size="41" transform="matrix(1 0 0 1 3074.5 794)">5,956</text>
		</g>
		<g>
			<text fill="#595959" font-family="Verdana,sans-serif" font-weight="400" font-size="41" transform="matrix(1 0 0 1 3073.5 666)">8,934</text>
		</g>
		<g>
			<text fill="#595959" font-family="Verdana,sans-serif" font-weight="400" font-size="41" transform="matrix(1 0 0 1 3050.5 538)">11,912</text>
		</g>
		<g>
			<text fill="#595959" font-family="Verdana,sans-serif" font-weight="400" font-size="41" transform="matrix(1 0 0 1 3051.5 410)">14,890</text>
		</g>
		<g>
			<text fill="#595959" font-family="Verdana,sans-serif" font-weight="400" font-size="41" transform="matrix(1 0 0 1 3544.5 1321)">Week Commencing</text>
		</g>
		<g>
			<text fill="#595959" font-family="Verdana,sans-serif" font-weight="400" font-size="46" transform="matrix(6.12323e-17 -1 1 6.12323e-17 3019.73 1030.75)">Number of Browser Profiles</text>
		</g>
		<rect x="2918.5" y="347.5" width="1760" height="1043" stroke="#D9D9D9" stroke-width="3.4375" stroke-linejoin="round" stroke-miterlimit="10" fill="none" />
		<g>
			<path d="M3228.5 1038 3249.4411764705883 1038 3270.3823529411766 1038 3291.323529411765 1038 3312.264705882353 1038 3333.205882352941 1038 3354.1470588235293 1038 3375.0882352941176 1038 3396.029411764706 1038 3416.970588235294 1038 3437.9117647058824 1038 3458.8529411764707 1038 3479.794117647059 1038 3500.735294117647 1038 3521.676470588235 1038 3542.6176470588234 1038 3563.5588235294117 1038 3584.5 1038 3605.4411764705883 1038 3626.3823529411766 1038 3647.323529411765 1038 3668.264705882353 1038 3689.205882352941 1038 3710.1470588235293 1038 3731.0882352941176 1038 3752.029411764706 1038 3772.970588235294 1038 3793.9117647058824 1038 3814.8529411764707 1038 3835.7941176470586 1038 3856.735294117647 1038 3877.676470588235 1038 3898.6176470588234 1038 3919.5588235294117 1038 3940.5 1038 3961.4411764705883 1038 3982.3823529411766 1038 4003.323529411765 1038 4024.264705882353 1038 4045.2058823529414 1038 4066.1470588235293 1038 4087.0882352941176 1038 4108.029411764706 1038 4128.970588235294 1038 4149.911764705882 1038 4170.85294117647 1038 4191.794117647059 1038 4212.735294117647 1038 4233.676470588235 1038 4254.617647058823 1038 4275.558823529412 1038 4296.5 1038 4296.5 534.9402283411686 4275.558823529412 535.8858294157153 4254.617647058823 536.4875755540631 4233.676470588235 537.4761584956346 4212.735294117647 538.9375419744795 4191.794117647059 539.5822699798523 4170.85294117647 540.3129617192747 4149.911764705882 540.8287441235728 4128.970588235294 541.6024177300201 4108.029411764706 542.1182001343184 4087.0882352941176 542.4190732034922 4066.1470588235293 543.4076561450638 4045.2058823529414 544.1383478844862 4024.264705882353 545.7716588314304 4003.323529411765 546.8462055070518 3982.3823529411766 547.4909335124244 3961.4411764705883 548.1356615177972 3940.5 549.0812625923438 3919.5588235294117 549.8549361987912 3898.6176470588234 550.5856279382135 3877.676470588235 551.4882471457354 3856.735294117647 552.8636668905306 3835.7941176470586 553.293485560779 3814.8529411764707 554.411014103425 3793.9117647058824 555.3566151779718 3772.970588235294 556.0013431833445 3752.029411764706 556.9469442578911 3731.0882352941176 557.5057085292142 3710.1470588235293 558.107454667562 3689.205882352941 559.0530557421088 3668.264705882353 559.8697112155809 3647.323529411765 560.6433848220281 3626.3823529411766 561.2021490933512 3605.4411764705883 561.6319677635997 3584.5 562.0617864338483 3563.5588235294117 563.0933512424446 3542.6176470588234 563.824042981867 3521.676470588235 564.5547347212894 3500.735294117647 565.6722632639355 3479.794117647059 566.7468099395567 3458.8529411764707 567.7353928811283 3437.9117647058824 568.2081934184016 3416.970588235294 568.7669576897247 3396.029411764706 569.4546675621223 3375.0882352941176 570.7441235728677 3354.1470588235293 571.9046339825386 3333.205882352941 573.0651443922095 3312.264705882353 574.4835460040294 3291.323529411765 575.5580926796508 3270.3823529411766 576.5466756212222 3249.4411764705883 577.5782404298186 3228.5 578.910678307589 3228.5 1038Z" fill="#e62d39" opacity="0.9" />
		</g>
		<g>
			<path d="M3228.5 578.910678307589 3249.4411764705883 577.5782404298186 3270.3823529411766 576.5466756212222 3291.323529411765 575.5580926796508 3312.264705882353 574.4835460040294 3333.205882352941 573.0651443922095 3354.1470588235293 571.9046339825386 3375.0882352941176 570.7441235728677 3396.029411764706 569.4546675621223 3416.970588235294 568.7669576897247 3437.9117647058824 568.2081934184016 3458.8529411764707 567.7353928811283 3479.794117647059 566.7468099395567 3500.735294117647 565.6722632639355 3521.676470588235 564.5547347212894 3542.6176470588234 563.824042981867 3563.5588235294117 563.0933512424446 3584.5 562.0617864338483 3605.4411764705883 561.6319677635997 3626.3823529411766 561.2021490933512 3647.323529411765 560.6433848220281 3668.264705882353 559.8697112155809 3689.205882352941 559.0530557421088 3710.1470588235293 558.107454667562 3731.0882352941176 557.5057085292142 3752.029411764706 556.9469442578911 3772.970588235294 556.0013431833445 3793.9117647058824 555.3566151779718 3814.8529411764707 554.411014103425 3835.7941176470586 553.293485560779 3856.735294117647 552.8636668905306 3877.676470588235 551.4882471457354 3898.6176470588234 550.5856279382135 3919.5588235294117 549.8549361987912 3940.5 549.0812625923438 3961.4411764705883 548.1356615177972 3982.3823529411766 547.4909335124244 4003.323529411765 546.8462055070518 4024.264705882353 545.7716588314304 4045.2058823529414 544.1383478844862 4066.1470588235293 543.4076561450638 4087.0882352941176 542.4190732034922 4108.029411764706 542.1182001343184 4128.970588235294 541.6024177300201 4149.911764705882 540.8287441235728 4170.85294117647 540.3129617192747 4191.794117647059 539.5822699798523 4212.735294117647 538.9375419744795 4233.676470588235 537.4761584956346 4254.617647058823 536.4875755540631 4275.558823529412 535.8858294157153 4296.5 534.9402283411686 4296.5 398 4275.558823529412 399.07454667562126 4254.617647058823 399.9341840161182 4233.676470588235 401.1806581598388 4212.735294117647 402.813969106783 4191.794117647059 403.63062458025524 4170.85294117647 404.6192075218267 4149.911764705882 405.3498992612491 4128.970588235294 406.2525184687709 4108.029411764706 406.81128274009404 4087.0882352941176 407.11215580926785 4066.1470588235293 408.27266621893887 4045.2058823529414 409.2182672934855 4024.264705882353 411.15245130960363 4003.323529411765 412.4848891873741 3982.3823529411766 413.3445265278709 3961.4411764705883 414.7629281396911 3940.5 415.92343854936195 3919.5588235294117 416.8690396239087 3898.6176470588234 417.77165883143044 3877.676470588235 418.8032236400269 3856.735294117647 420.3075889858966 3835.7941176470586 420.9093351242444 3814.8529411764707 422.32773673606437 3793.9117647058824 423.4882471457354 3772.970588235294 424.3049026192075 3752.029411764706 425.46541302887834 3731.0882352941176 426.1101410342511 3710.1470588235293 427.01276024177287 3689.205882352941 428.04432505036937 3668.264705882353 429.0329079919409 3647.323529411765 429.9355271994626 3626.3823529411766 430.4942914707857 3605.4411764705883 431.01007387508395 3584.5 431.7407656145065 3563.5588235294117 432.94425789120214 3542.6176470588234 433.846877098724 3521.676470588235 434.7924781732706 3500.735294117647 436.21087978509064 3479.794117647059 437.500335795836 3458.8529411764707 438.6178643384822 3437.9117647058824 439.2625923438549 3416.970588235294 439.95030221625257 3396.029411764706 440.7669576897247 3375.0882352941176 442.2713230355944 3354.1470588235293 443.6467427803895 3333.205882352941 445.0221625251846 3312.264705882353 446.69845533915367 3291.323529411765 447.9879113498993 3270.3823529411766 449.5782404298186 3249.4411764705883 451.1255876427132 3228.5 452.5010073875084 3228.5 578.910678307589Z" fill="#005aa6" opacity="0.9" />
		</g>
		<g>
			<rect x="4372" y="431" width="22.9995" height="23" fill="#e62d39" />
		</g>
		<g>
			<text fill="#595959" font-family="Verdana,sans-serif" font-weight="400" font-size="41" transform="matrix(1 0 0 1 4404.56 454)">Web Browser</text>
		</g>
		<g>
			<rect x="4372" y="508" width="22.9995" height="23" fill="#005aa6" />
		</g>
		<g>
			<text fill="#595959" font-family="Verdana,sans-serif" font-weight="400" font-size="41" transform="matrix(1 0 0 1 4404.56 531)">App</text>
		</g>
	</g>
</svg>
