<svg width="1763" height="1046"
    xmlns="http://www.w3.org/2000/svg"
	xmlns:xlink="http://www.w3.org/1999/xlink" xml:space="preserve" overflow="hidden">
	<defs>
		<clipPath id="clip0">
			<rect x="2917" y="346" width="1763" height="1046"/>
		</clipPath>
	</defs>
	<g clip-path="url(#clip0)" transform="translate(-2917 -346)">
		<rect x="2918" y="347" width="1760" height="1043" fill="#FFFFFF" />
		<g>
			<path d="
			M3228.5 974.532 4296.5 974.532
			M3228.5 910.53 4296.5 910.53
			M3228.5 846.528 4296.5 846.528
			M3228.5 781.526 4296.5 781.526
			M3228.5 717.524 4296.5 717.524
			M3228.5 653.522 4296.5 653.522
			M3228.5 589.52 4296.5 589.52
			M3228.5 525.517 4296.5 525.517
			M3228.5 461.515 4296.5 461.515
			M3228.5 397.5 4296.5 397.5" stroke="#D9D9D9" stroke-width="3.4375" stroke-linejoin="round" stroke-miterlimit="10" fill="none" />
		</g>
		<g>
			<path d="M 1038.5 4296.5 1038.5" stroke="#D9D9D9" stroke-width="3.4375" stroke-linejoin="round" stroke-miterlimit="10" fill="none" fill-rule="evenodd" />
		</g>
		<g>
			<text fill="#595959" font-family="Verdana,Open Sans,DejaVu Sans,sans-serif" font-weight="400" font-size="41" transform="matrix(6.12323e-17 -1 1 6.12323e-17 3247.21826171875 1191.6508712768555)">06-Jan</text>
		</g>
		<g>
			<text fill="#595959" font-family="Verdana,Open Sans,DejaVu Sans,sans-serif" font-weight="400" font-size="41" transform="matrix(6.12323e-17 -1 1 6.12323e-17 3328.040096507353 1203.0419921875)">03-Feb</text>
		</g>
		<g>
			<text fill="#595959" font-family="Verdana,Open Sans,DejaVu Sans,sans-serif" font-weight="400" font-size="41" transform="matrix(6.12323e-17 -1 1 6.12323e-17 3411.094109030331 1212.0107421875)">03-Mar</text>
		</g>
		<g>
			<text fill="#595959" font-family="Verdana,Open Sans,DejaVu Sans,sans-serif" font-weight="400" font-size="41" transform="matrix(6.12323e-17 -1 1 6.12323e-17 3494.838795381434 1212.1708984375)">31-Mar</text>
		</g>
		<g>
			<text fill="#595959" font-family="Verdana,Open Sans,DejaVu Sans,sans-serif" font-weight="400" font-size="41" transform="matrix(6.12323e-17 -1 1 6.12323e-17 3583.3281106387867 1203.3022384643555)">28-Apr</text>
		</g>
		<g>
			<text fill="#595959" font-family="Verdana,Open Sans,DejaVu Sans,sans-serif" font-weight="400" font-size="41" transform="matrix(6.12323e-17 -1 1 6.12323e-17 3667.09281652114 1216.51513671875)">26-May</text>
		</g>
		<g>
			<text fill="#595959" font-family="Verdana,Open Sans,DejaVu Sans,sans-serif" font-weight="400" font-size="41" transform="matrix(6.12323e-17 -1 1 6.12323e-17 3749.8064970128676 1194.1733322143555)">30-Jun</text>
		</g>
		<g>
			<text fill="#595959" font-family="Verdana,Open Sans,DejaVu Sans,sans-serif" font-weight="400" font-size="41" transform="matrix(6.12323e-17 -1 1 6.12323e-17 3834.2818962545957 1179.0385665893555)">28-Jul</text>
		</g>
		<g>
			<text fill="#595959" font-family="Verdana,Open Sans,DejaVu Sans,sans-serif" font-weight="400" font-size="41" transform="matrix(6.12323e-17 -1 1 6.12323e-17 3918.3869341681984 1208.66748046875)">25-Aug</text>
		</g>
		<g>
			<text fill="#595959" font-family="Verdana,Open Sans,DejaVu Sans,sans-serif" font-weight="400" font-size="41" transform="matrix(6.12323e-17 -1 1 6.12323e-17 4002.1516400505516 1204.42333984375)">22-Sep</text>
		</g>
		<g>
			<text fill="#595959" font-family="Verdana,Open Sans,DejaVu Sans,sans-serif" font-weight="400" font-size="41" transform="matrix(6.12323e-17 -1 1 6.12323e-17 4081.2117560891543 1201.1401290893555)">20-Oct</text>
		</g>
		<g>
			<text fill="#595959" font-family="Verdana,Open Sans,DejaVu Sans,sans-serif" font-weight="400" font-size="41" transform="matrix(6.12323e-17 -1 1 6.12323e-17 4164.746237362132 1209.70849609375)">17-Nov</text>
		</g>
		<g>
			<text fill="#595959" font-family="Verdana,Open Sans,DejaVu Sans,sans-serif" font-weight="400" font-size="41" transform="matrix(6.12323e-17 -1 1 6.12323e-17 4248.510943244485 1205.3642578125)">15-Dec</text>
		</g>
		<g>
			<text fill="#595959" font-family="Verdana,Open Sans,DejaVu Sans,sans-serif" font-weight="400" font-size="41" transform="matrix(1 0 0 1 3169.14111328125 1050)">0</text>
		</g>
		<g>
			<text fill="#595959" font-family="Verdana,Open Sans,DejaVu Sans,sans-serif" font-weight="400" font-size="41" transform="matrix(1 0 0 1 3088.7626953125 922)">3,222</text>
		</g>
		<g>
			<text fill="#595959" font-family="Verdana,Open Sans,DejaVu Sans,sans-serif" font-weight="400" font-size="41" transform="matrix(1 0 0 1 3089.42333984375 794)">6,443</text>
		</g>
		<g>
			<text fill="#595959" font-family="Verdana,Open Sans,DejaVu Sans,sans-serif" font-weight="400" font-size="41" transform="matrix(1 0 0 1 3089.1630859375 666)">9,665</text>
		</g>
		<g>
			<text fill="#595959" font-family="Verdana,Open Sans,DejaVu Sans,sans-serif" font-weight="400" font-size="41" transform="matrix(1 0 0 1 3067.0014724731445 538)">12,886</text>
		</g>
		<g>
			<text fill="#595959" font-family="Verdana,Open Sans,DejaVu Sans,sans-serif" font-weight="400" font-size="41" transform="matrix(1 0 0 1 3067.1215896606445 410)">16,108</text>
		</g>
		<g>
			<text fill="#595959" font-family="Verdana,Open Sans,DejaVu Sans,sans-serif" font-weight="400" font-size="41" transform="matrix(1 0 0 1 3556.97119140625 1321)">Week Commencing</text>
		</g>
		<g>
			<text fill="#595959" font-family="Verdana,Open Sans,DejaVu Sans,sans-serif" font-weight="400" font-size="46" transform="matrix(6.12323e-17 -1 1 6.12323e-17 3019.73 1011.673828125)">Number of Browser Profiles</text>
		</g>
		<rect x="2918.5" y="347.5" width="1760" height="1043" stroke="#D9D9D9" stroke-width="3.4375" stroke-linejoin="round" stroke-miterlimit="10" fill="none" />
		<g>
			<path d="M3228.5 1038 3249.4411764705883 1038 3270.3823529411766 1038 3291.323529411765 1038 3312.264705882353 1038 3333.205882352941 1038 3354.1470588235293 1038 3375.0882352941176 1038 3396.029411764706 1038 3416.970588235294 1038 3437.9117647058824 1038 3458.8529411764707 1038 3479.794117647059 1038 3500.735294117647 1038 3521.676470588235 1038 3542.6176470588234 1038 3563.5588235294117 1038 3584.5 1038 3605.4411764705883 1038 3626.3823529411766 1038 3647.323529411765 1038 3668.264705882353 1038 3689.205882352941 1038 3710.1470588235293 1038 3731.0882352941176 1038 3752.029411764706 1038 3772.970588235294 1038 3793.9117647058824 1038 3814.8529411764707 1038 3835.7941176470586 1038 3856.735294117647 1038 3877.676470588235 1038 3898.6176470588234 1038 3919.5588235294117 1038 3940.5 1038 3961.4411764705883 1038 3982.3823529411766 1038 4003.323529411765 1038 4024.264705882353 1038 4045.2058823529414 1038 4066.1470588235293 1038 4087.0882352941176 1038 4108.029411764706 1038 4128.970588235294 1038 4149.911764705882 1038 4170.85294117647 1038 4191.794117647059 1038 4212.735294117647 1038 4233.676470588235 1038 4254.617647058823 1038 4275.558823529412 1038 4296.5 1038 4296.5 532.492177799851 4275.558823529412 532.9689595232182 4254.617647058823 533.5252048671467 4233.676470588235 534.5582319344425 4212.735294117647 535.8296498634219 4191.794117647059 537.4983858952073 4170.85294117647 537.8162403774522 4149.911764705882 538.9287310653092 4128.970588235294 539.5644400297988 4108.029411764706 541.0345170101812 4087.0882352941176 541.6304941643903 4066.1470588235293 542.9813757139309 4045.2058823529414 543.1005711447727 4024.264705882353 543.9746709709461 4003.323529411765 545.0076980382419 3982.3823529411766 546.3188477775018 3961.4411764705883 547.0340203625527 3940.5 547.6697293270424 3919.5588235294117 548.9411472560218 3898.6176470588234 549.7755152719145 3877.676470588235 550.6893469083684 3856.735294117647 551.6826421653836 3835.7941176470586 552.4772783709957 3814.8529411764707 553.2321827663272 3793.9117647058824 554.1062825925005 3772.970588235294 554.5036006953067 3752.029411764706 555.4968959523218 3731.0882352941176 556.8080456915818 3710.1470588235293 557.4040228457909 3689.205882352941 558.5562453439284 3668.264705882353 559.907126893469 3647.323529411765 561.5361311149738 3626.3823529411766 562.6486218028308 3605.4411764705883 563.7213806804073 3584.5 564.6352123168612 3563.5588235294117 565.4695803327538 3542.6176470588234 566.4231437794884 3521.676470588235 567.2972436056618 3500.735294117647 568.7673205860442 3479.794117647059 569.4030295505338 3458.8529411764707 570.0387385150236 3437.9117647058824 570.7936429103551 3416.970588235294 571.8664017879314 3396.029411764706 572.9788924757884 3375.0882352941176 573.8529923019616 3354.1470588235293 574.4092376458902 3333.205882352941 575.3230692823441 3312.264705882353 576.6739508318847 3291.323529411765 577.2699279860938 3270.3823529411766 577.9453687608641 3249.4411764705883 578.4221504842315 3228.5 579.1373230692823 3228.5 1038Z" fill="#005aa6" opacity="0.9" />
		</g>
		<g>
			<path d="M3228.5 579.1373230692823 3249.4411764705883 578.4221504842315 3270.3823529411766 577.9453687608641 3291.323529411765 577.2699279860938 3312.264705882353 576.6739508318847 3333.205882352941 575.3230692823441 3354.1470588235293 574.4092376458902 3375.0882352941176 573.8529923019616 3396.029411764706 572.9788924757884 3416.970588235294 571.8664017879314 3437.9117647058824 570.7936429103551 3458.8529411764707 570.0387385150236 3479.794117647059 569.4030295505338 3500.735294117647 568.7673205860442 3521.676470588235 567.2972436056618 3542.6176470588234 566.4231437794884 3563.5588235294117 565.4695803327538 3584.5 564.6352123168612 3605.4411764705883 563.7213806804073 3626.3823529411766 562.6486218028308 3647.323529411765 561.5361311149738 3668.264705882353 559.907126893469 3689.205882352941 558.5562453439284 3710.1470588235293 557.4040228457909 3731.0882352941176 556.8080456915818 3752.029411764706 555.4968959523218 3772.970588235294 554.5036006953067 3793.9117647058824 554.1062825925005 3814.8529411764707 553.2321827663272 3835.7941176470586 552.4772783709957 3856.735294117647 551.6826421653836 3877.676470588235 550.6893469083684 3898.6176470588234 549.7755152719145 3919.5588235294117 548.9411472560218 3940.5 547.6697293270424 3961.4411764705883 547.0340203625527 3982.3823529411766 546.3188477775018 4003.323529411765 545.0076980382419 4024.264705882353 543.9746709709461 4045.2058823529414 543.1005711447727 4066.1470588235293 542.9813757139309 4087.0882352941176 541.6304941643903 4108.029411764706 541.0345170101812 4128.970588235294 539.5644400297988 4149.911764705882 538.9287310653092 4170.85294117647 537.8162403774522 4191.794117647059 537.4983858952073 4212.735294117647 535.8296498634219 4233.676470588235 534.5582319344425 4254.617647058823 533.5252048671467 4275.558823529412 532.9689595232182 4296.5 532.492177799851 4296.5 398 4275.558823529412 398.5562453439285 4254.617647058823 399.11249068785696 4233.676470588235 400.4633722373975 4212.735294117647 401.9731810280606 4191.794117647059 403.840576111249 4170.85294117647 404.4365532654582 4149.911764705882 405.7874348149988 4128.970588235294 406.54233921033017 4108.029411764706 408.171343431835 4087.0882352941176 408.9659796374471 4066.1470588235293 410.47578842811015 4045.2058823529414 410.6347156692326 4024.264705882353 411.7869381673703 4003.323529411765 412.9391606655078 3982.3823529411766 414.44896945617074 3961.4411764705883 415.32306928234414 3940.5 416.11770548795624 3919.5588235294117 417.4685870374969 3898.6176470588234 418.50161410479257 3877.676470588235 419.4949093618077 3856.735294117647 420.84579091134833 3835.7941176470586 421.7198907375216 3814.8529411764707 422.71318599453684 3793.9117647058824 423.7064812515519 3772.970588235294 424.3819220263223 3752.029411764706 425.69307176558226 3731.0882352941176 427.2028805562453 3710.1470588235293 427.91805314129624 3689.205882352941 429.18947107027554 3668.264705882353 430.659548050658 3647.323529411765 432.8447976160913 3626.3823529411766 434.15594735535126 3605.4411764705883 435.4670970946114 3584.5 436.5398559721877 3563.5588235294117 437.49341941892214 3542.6176470588234 438.64564191705983 3521.676470588235 439.6786689843556 3500.735294117647 441.347405016141 3479.794117647059 442.1817730320337 3458.8529411764707 442.8969456170847 3437.9117647058824 443.77104544325795 3416.970588235294 445.16165880307915 3396.029411764706 446.39334492177795 3375.0882352941176 447.386640178793 3354.1470588235293 448.18127638440524 3333.205882352941 449.3334988825428 3312.264705882353 450.84330767320574 3291.323529411765 451.59821206853724 3270.3823529411766 452.51204370499124 3249.4411764705883 453.1874844797616 3228.5 454.02185249565423 3228.5 579.1373230692823Z" fill="#e62d39" opacity="0.9" />
		</g>
		<g>
			<rect x="4372" y="431" width="22.9995" height="23" fill="#005aa6" />
		</g>
		<g>
			<text fill="#595959" font-family="Verdana,Open Sans,DejaVu Sans,sans-serif" font-weight="400" font-size="41" transform="matrix(1 0 0 1 4404.56 454)">Web Browser</text>
		</g>
		<g>
			<rect x="4372" y="508" width="22.9995" height="23" fill="#e62d39" />
		</g>
		<g>
			<text fill="#595959" font-family="Verdana,Open Sans,DejaVu Sans,sans-serif" font-weight="400" font-size="41" transform="matrix(1 0 0 1 4404.56 531)">App</text>
		</g>
	</g>
</svg>
