<svg width="1763" height="1046"
    xmlns="http://www.w3.org/2000/svg"
	xmlns:xlink="http://www.w3.org/1999/xlink" xml:space="preserve" overflow="hidden">
	<defs>
		<clipPath id="clip0">
			<rect x="2917" y="346" width="1763" height="1046"/>
		</clipPath>
	</defs>
	<g clip-path="url(#clip0)" transform="translate(-2917 -346)">
		<rect x="2918" y="347" width="1760" height="1043" fill="#FFFFFF" />
		<g>
			<path d="
			M3228.5 974.532 4296.5 974.532
			M3228.5 910.53 4296.5 910.53
			M3228.5 846.528 4296.5 846.528
			M3228.5 781.526 4296.5 781.526
			M3228.5 717.524 4296.5 717.524
			M3228.5 653.522 4296.5 653.522
			M3228.5 589.52 4296.5 589.52
			M3228.5 525.517 4296.5 525.517
			M3228.5 461.515 4296.5 461.515
			M3228.5 397.5 4296.5 397.5" stroke="#D9D9D9" stroke-width="3.4375" stroke-linejoin="round" stroke-miterlimit="10" fill="none" />
		</g>
		<g>
			<path d="M 1038.5 4296.5 1038.5" stroke="#D9D9D9" stroke-width="3.4375" stroke-linejoin="round" stroke-miterlimit="10" fill="none" fill-rule="evenodd" />
		</g>
		<g>
			<text fill="#595959" font-family="Verdana,Open Sans,DejaVu Sans,sans-serif" font-weight="400" font-size="41" transform="matrix(6.12323e-17 -1 1 6.12323e-17 3248.269287109375 1216.51513671875)">26-May</text>
		</g>
		<g>
			<text fill="#595959" font-family="Verdana,Open Sans,DejaVu Sans,sans-serif" font-weight="400" font-size="41" transform="matrix(6.12323e-17 -1 1 6.12323e-17 3332.65826171875 1194.1733322143555)">30-Jun</text>
		</g>
		<g>
			<text fill="#595959" font-family="Verdana,Open Sans,DejaVu Sans,sans-serif" font-weight="400" font-size="41" transform="matrix(6.12323e-17 -1 1 6.12323e-17 3418.808955078125 1179.0385665893555)">28-Jul</text>
		</g>
		<g>
			<text fill="#595959" font-family="Verdana,Open Sans,DejaVu Sans,sans-serif" font-weight="400" font-size="41" transform="matrix(6.12323e-17 -1 1 6.12323e-17 3504.589287109375 1208.66748046875)">25-Aug</text>
		</g>
		<g>
			<text fill="#595959" font-family="Verdana,Open Sans,DejaVu Sans,sans-serif" font-weight="400" font-size="41" transform="matrix(6.12323e-17 -1 1 6.12323e-17 3590.029287109375 1204.42333984375)">22-Sep</text>
		</g>
		<g>
			<text fill="#595959" font-family="Verdana,Open Sans,DejaVu Sans,sans-serif" font-weight="400" font-size="41" transform="matrix(6.12323e-17 -1 1 6.12323e-17 3670.764697265625 1201.1401290893555)">20-Oct</text>
		</g>
		<g>
			<text fill="#595959" font-family="Verdana,Open Sans,DejaVu Sans,sans-serif" font-weight="400" font-size="41" transform="matrix(6.12323e-17 -1 1 6.12323e-17 3755.97447265625 1209.70849609375)">17-Nov</text>
		</g>
		<g>
			<text fill="#595959" font-family="Verdana,Open Sans,DejaVu Sans,sans-serif" font-weight="400" font-size="41" transform="matrix(6.12323e-17 -1 1 6.12323e-17 3841.41447265625 1205.3642578125)">15-Dec</text>
		</g>
		<g>
			<text fill="#595959" font-family="Verdana,Open Sans,DejaVu Sans,sans-serif" font-weight="400" font-size="41" transform="matrix(6.12323e-17 -1 1 6.12323e-17 3930.7182421875 1189.9291915893555)">12-Jan</text>
		</g>
		<g>
			<text fill="#595959" font-family="Verdana,Open Sans,DejaVu Sans,sans-serif" font-weight="400" font-size="41" transform="matrix(6.12323e-17 -1 1 6.12323e-17 4013.235390625 1203.0419921875)">09-Feb</text>
		</g>
		<g>
			<text fill="#595959" font-family="Verdana,Open Sans,DejaVu Sans,sans-serif" font-weight="400" font-size="41" transform="matrix(6.12323e-17 -1 1 6.12323e-17 4097.964697265625 1212.0107421875)">09-Mar</text>
		</g>
		<g>
			<text fill="#595959" font-family="Verdana,Open Sans,DejaVu Sans,sans-serif" font-weight="400" font-size="41" transform="matrix(6.12323e-17 -1 1 6.12323e-17 4188.129306640625 1203.2621994018555)">06-Apr</text>
		</g>
		<g>
			<text fill="#595959" font-family="Verdana,Open Sans,DejaVu Sans,sans-serif" font-weight="400" font-size="41" transform="matrix(6.12323e-17 -1 1 6.12323e-17 4273.569306640625 1216.47509765625)">04-May</text>
		</g>
		<g>
			<text fill="#595959" font-family="Verdana,Open Sans,DejaVu Sans,sans-serif" font-weight="400" font-size="41" transform="matrix(1 0 0 1 3169.14111328125 1050)">0</text>
		</g>
		<g>
			<text fill="#595959" font-family="Verdana,Open Sans,DejaVu Sans,sans-serif" font-weight="400" font-size="41" transform="matrix(1 0 0 1 3088.962890625 922)">3,333</text>
		</g>
		<g>
			<text fill="#595959" font-family="Verdana,Open Sans,DejaVu Sans,sans-serif" font-weight="400" font-size="41" transform="matrix(1 0 0 1 3089.02294921875 794)">6,666</text>
		</g>
		<g>
			<text fill="#595959" font-family="Verdana,Open Sans,DejaVu Sans,sans-serif" font-weight="400" font-size="41" transform="matrix(1 0 0 1 3067.0415115356445 666)">10,000</text>
		</g>
		<g>
			<text fill="#595959" font-family="Verdana,Open Sans,DejaVu Sans,sans-serif" font-weight="400" font-size="41" transform="matrix(1 0 0 1 3067.4018630981445 538)">13,333</text>
		</g>
		<g>
			<text fill="#595959" font-family="Verdana,Open Sans,DejaVu Sans,sans-serif" font-weight="400" font-size="41" transform="matrix(1 0 0 1 3067.0014724731445 410)">16,666</text>
		</g>
		<g>
			<text fill="#595959" font-family="Verdana,Open Sans,DejaVu Sans,sans-serif" font-weight="400" font-size="41" transform="matrix(1 0 0 1 3556.97119140625 1321)">Week Commencing</text>
		</g>
		<g>
			<text fill="#595959" font-family="Verdana,Open Sans,DejaVu Sans,sans-serif" font-weight="400" font-size="46" transform="matrix(6.12323e-17 -1 1 6.12323e-17 3019.73 1011.673828125)">Number of Browser Profiles</text>
		</g>
		<rect x="2918.5" y="347.5" width="1760" height="1043" stroke="#D9D9D9" stroke-width="3.4375" stroke-linejoin="round" stroke-miterlimit="10" fill="none" />
		<g>
			<path d="M3228.5 1038 3249.86 1038 3271.22 1038 3292.58 1038 3313.94 1038 3335.3 1038 3356.66 1038 3378.02 1038 3399.38 1038 3420.74 1038 3442.1 1038 3463.46 1038 3484.82 1038 3506.18 1038 3527.54 1038 3548.9 1038 3570.26 1038 3591.62 1038 3612.98 1038 3634.34 1038 3655.7 1038 3677.06 1038 3698.42 1038 3719.7799999999997 1038 3741.14 1038 3762.5 1038 3783.86 1038 3805.2200000000003 1038 3826.58 1038 3847.94 1038 3869.3 1038 3890.66 1038 3912.02 1038 3933.38 1038 3954.74 1038 3976.1 1038 3997.46 1038 4018.8199999999997 1038 4040.18 1038 4061.54 1038 4082.9 1038 4104.26 1038 4125.62 1038 4146.98 1038 4168.34 1038 4189.7 1038 4211.0599999999995 1038 4232.42 1038 4253.78 1038 4275.139999999999 1038 4296.5 1038 4296.5 532.9429977199088 4275.139999999999 534.1334453378136 4253.78 534.7094683787352 4232.42 535.5159006360254 4211.0599999999995 536.5911436457459 4189.7 537.4359774390975 4168.34 538.4728189127566 4146.98 539.471258850354 4125.62 540.4696987879515 4104.26 541.9673586943478 4082.9 542.6969878795153 4061.54 543.6186247449898 4040.18 544.2714508580343 4018.8199999999997 545.3850954038162 3997.46 546.3835353414137 3976.1 546.9211568462739 3954.74 547.7275891035642 3933.38 548.4572182887316 3912.02 549.2636505460218 3890.66 549.4172566902677 3869.3 549.8780751230049 3847.94 550.4156966278651 3826.58 551.4141365654626 3805.2200000000003 552.6429857194288 3783.86 554.2558502340094 3762.5 554.563062522501 3741.14 555.6383055322212 3719.7799999999997 556.2527301092043 3698.42 557.6735869434777 3677.06 558.2496099843994 3655.7 559.5552622104884 3634.34 559.6704668186728 3612.98 560.5153006120245 3591.62 561.5137405496221 3570.26 562.7809912396497 3548.9 563.4722188887556 3527.54 564.0866434657387 3506.18 565.3154926197049 3484.82 566.1219248769951 3463.46 567.0051602064083 3442.1 567.9651986079443 3420.74 568.7332293291731 3399.38 569.4628585143406 3378.02 570.3076923076924 3356.66 570.6917076683068 3335.3 571.6517460698428 3313.94 572.9189967598704 3292.58 573.4950198007921 3271.22 574.608664346574 3249.86 575.914316572663 3228.5 577.488779551182 3228.5 1038Z" fill="#005aa6" opacity="0.9" />
		</g>
		<g>
			<path d="M3228.5 577.488779551182 3249.86 575.914316572663 3271.22 574.608664346574 3292.58 573.4950198007921 3313.94 572.9189967598704 3335.3 571.6517460698428 3356.66 570.6917076683068 3378.02 570.3076923076924 3399.38 569.4628585143406 3420.74 568.7332293291731 3442.1 567.9651986079443 3463.46 567.0051602064083 3484.82 566.1219248769951 3506.18 565.3154926197049 3527.54 564.0866434657387 3548.9 563.4722188887556 3570.26 562.7809912396497 3591.62 561.5137405496221 3612.98 560.5153006120245 3634.34 559.6704668186728 3655.7 559.5552622104884 3677.06 558.2496099843994 3698.42 557.6735869434777 3719.7799999999997 556.2527301092043 3741.14 555.6383055322212 3762.5 554.563062522501 3783.86 554.2558502340094 3805.2200000000003 552.6429857194288 3826.58 551.4141365654626 3847.94 550.4156966278651 3869.3 549.8780751230049 3890.66 549.4172566902677 3912.02 549.2636505460218 3933.38 548.4572182887316 3954.74 547.7275891035642 3976.1 546.9211568462739 3997.46 546.3835353414137 4018.8199999999997 545.3850954038162 4040.18 544.2714508580343 4061.54 543.6186247449898 4082.9 542.6969878795153 4104.26 541.9673586943478 4125.62 540.4696987879515 4146.98 539.471258850354 4168.34 538.4728189127566 4189.7 537.4359774390975 4211.0599999999995 536.5911436457459 4232.42 535.5159006360254 4253.78 534.7094683787352 4275.139999999999 534.1334453378136 4296.5 532.9429977199088 4296.5 398 4275.139999999999 399.382455298212 4253.78 400.3808952358095 4232.42 401.34093363734553 4211.0599999999995 402.68498739949604 4189.7 403.7218288731549 4168.34 405.027481099244 4146.98 406.21792871714877 4125.62 407.4851794071763 4104.26 409.40525621024847 4082.9 410.28849153966166 4061.54 411.5173406936277 4040.18 412.5541821672867 4018.8199999999997 413.9750390015601 3997.46 415.1654866194648 3976.1 415.89511580463227 3954.74 417.4695787831514 3933.38 418.2760110404417 3912.02 419.2360494419777 3890.66 419.42805712228494 3869.3 419.96567862714505 3847.94 420.5033001320053 3826.58 421.8089523580943 3805.2200000000003 423.26821072842915 3783.86 425.073082923317 3762.5 425.6491059642387 3741.14 426.95475819032754 3719.7799999999997 427.684387375495 3698.42 429.25885035401416 3677.06 430.02688107524307 3655.7 431.4861394455778 3634.34 431.63974558982363 3612.98 432.7533901356054 3591.62 433.86703468138734 3570.26 435.32629305172213 3548.9 436.1711268450739 3527.54 436.9391575663027 3506.18 438.2448097923918 3484.82 439.2432497299892 3463.46 440.20328813152526 3442.1 441.50894035761434 3420.74 442.353774150966 3399.38 443.31381255250216 3378.02 444.27385095403827 3356.66 444.9266770670827 3335.3 446.1939277571103 3313.94 447.6531861274451 3292.58 448.3444137765511 3271.22 449.57326293051733 3249.86 450.9941197647907 3228.5 453.1062042481699 3228.5 577.488779551182Z" fill="#e62d39" opacity="0.9" />
		</g>
		<g>
			<rect x="4372" y="431" width="22.9995" height="23" fill="#005aa6" />
		</g>
		<g>
			<text fill="#595959" font-family="Verdana,Open Sans,DejaVu Sans,sans-serif" font-weight="400" font-size="41" transform="matrix(1 0 0 1 4404.56 454)">Web Browser</text>
		</g>
		<g>
			<rect x="4372" y="508" width="22.9995" height="23" fill="#e62d39" />
		</g>
		<g>
			<text fill="#595959" font-family="Verdana,Open Sans,DejaVu Sans,sans-serif" font-weight="400" font-size="41" transform="matrix(1 0 0 1 4404.56 531)">App</text>
		</g>
	</g>
</svg>
