<svg width="1763" height="1046"
    xmlns="http://www.w3.org/2000/svg"
	xmlns:xlink="http://www.w3.org/1999/xlink" xml:space="preserve" overflow="hidden">
	<defs>
		<clipPath id="clip0">
			<rect x="2917" y="346" width="1763" height="1046"/>
		</clipPath>
	</defs>
	<g clip-path="url(#clip0)" transform="translate(-2917 -346)">
		<rect x="2918" y="347" width="1760" height="1043" fill="#FFFFFF" />
		<g>
			<path d="
			M3228.5 974.532 4296.5 974.532
			M3228.5 910.53 4296.5 910.53
			M3228.5 846.528 4296.5 846.528
			M3228.5 781.526 4296.5 781.526
			M3228.5 717.524 4296.5 717.524
			M3228.5 653.522 4296.5 653.522
			M3228.5 589.52 4296.5 589.52
			M3228.5 525.517 4296.5 525.517
			M3228.5 461.515 4296.5 461.515
			M3228.5 397.5 4296.5 397.5" stroke="#D9D9D9" stroke-width="3.4375" stroke-linejoin="round" stroke-miterlimit="10" fill="none" />
		</g>
		<g>
			<path d="M 1038.5 4296.5 1038.5" stroke="#D9D9D9" stroke-width="3.4375" stroke-linejoin="round" stroke-miterlimit="10" fill="none" fill-rule="evenodd" />
		</g>
		<g>
			<text fill="#595959" font-family="Verdana,sans-serif" font-weight="400" font-size="41" transform="matrix(6.12323e-17 -1 1 6.12323e-17 3248 1217)">08-Apr</text>
		</g>
		<g>
			<text fill="#595959" font-family="Verdana,sans-serif" font-weight="400" font-size="41" transform="matrix(6.12323e-17 -1 1 6.12323e-17 3331.764705882353 1228)">06-May</text>
		</g>
		<g>
			<text fill="#595959" font-family="Verdana,sans-serif" font-weight="400" font-size="41" transform="matrix(6.12323e-17 -1 1 6.12323e-17 3412.029411764706 1211)">03-Jun</text>
		</g>
		<g>
			<text fill="#595959" font-family="Verdana,sans-serif" font-weight="400" font-size="41" transform="matrix(6.12323e-17 -1 1 6.12323e-17 3495.794117647059 1197)">01-Jul</text>
		</g>
		<g>
			<text fill="#595959" font-family="Verdana,sans-serif" font-weight="400" font-size="41" transform="matrix(6.12323e-17 -1 1 6.12323e-17 3579.5588235294117 1196)">29-Jul</text>
		</g>
		<g>
			<text fill="#595959" font-family="Verdana,sans-serif" font-weight="400" font-size="41" transform="matrix(6.12323e-17 -1 1 6.12323e-17 3666.823529411765 1221)">26-Aug</text>
		</g>
		<g>
			<text fill="#595959" font-family="Verdana,sans-serif" font-weight="400" font-size="41" transform="matrix(6.12323e-17 -1 1 6.12323e-17 3750.5882352941176 1221)">23-Sep</text>
		</g>
		<g>
			<text fill="#595959" font-family="Verdana,sans-serif" font-weight="400" font-size="41" transform="matrix(6.12323e-17 -1 1 6.12323e-17 3830.8529411764707 1215)">21-Oct</text>
		</g>
		<g>
			<text fill="#595959" font-family="Verdana,sans-serif" font-weight="400" font-size="41" transform="matrix(6.12323e-17 -1 1 6.12323e-17 3914.6176470588234 1222)">18-Nov</text>
		</g>
		<g>
			<text fill="#595959" font-family="Verdana,sans-serif" font-weight="400" font-size="41" transform="matrix(6.12323e-17 -1 1 6.12323e-17 3998.3823529411766 1222)">23-Dec</text>
		</g>
		<g>
			<text fill="#595959" font-family="Verdana,sans-serif" font-weight="400" font-size="41" transform="matrix(6.12323e-17 -1 1 6.12323e-17 4082.1470588235293 1210)">20-Jan</text>
		</g>
		<g>
			<text fill="#595959" font-family="Verdana,sans-serif" font-weight="400" font-size="41" transform="matrix(6.12323e-17 -1 1 6.12323e-17 4165.911764705882 1214)">17-Feb</text>
		</g>
		<g>
			<text fill="#595959" font-family="Verdana,sans-serif" font-weight="400" font-size="41" transform="matrix(6.12323e-17 -1 1 6.12323e-17 4249.176470588235 1221)">17-Mar</text>
		</g>
		<g>
			<text fill="#595959" font-family="Verdana,sans-serif" font-weight="400" font-size="41" transform="matrix(1 0 0 1 3167.5 1050)">0</text>
		</g>
		<g>
			<text fill="#595959" font-family="Verdana,sans-serif" font-weight="400" font-size="41" transform="matrix(1 0 0 1 3075.5 922)">3,003</text>
		</g>
		<g>
			<text fill="#595959" font-family="Verdana,sans-serif" font-weight="400" font-size="41" transform="matrix(1 0 0 1 3074.5 794)">6,007</text>
		</g>
		<g>
			<text fill="#595959" font-family="Verdana,sans-serif" font-weight="400" font-size="41" transform="matrix(1 0 0 1 3073.5 666)">9,010</text>
		</g>
		<g>
			<text fill="#595959" font-family="Verdana,sans-serif" font-weight="400" font-size="41" transform="matrix(1 0 0 1 3050.5 538)">12,014</text>
		</g>
		<g>
			<text fill="#595959" font-family="Verdana,sans-serif" font-weight="400" font-size="41" transform="matrix(1 0 0 1 3050.5 410)">15,017</text>
		</g>
		<g>
			<text fill="#595959" font-family="Verdana,sans-serif" font-weight="400" font-size="41" transform="matrix(1 0 0 1 3544.5 1321)">Week Commencing</text>
		</g>
		<g>
			<text fill="#595959" font-family="Verdana,sans-serif" font-weight="400" font-size="46" transform="matrix(6.12323e-17 -1 1 6.12323e-17 3019.73 1030.75)">Number of Browser Profiles</text>
		</g>
		<rect x="2918.5" y="347.5" width="1760" height="1043" stroke="#D9D9D9" stroke-width="3.4375" stroke-linejoin="round" stroke-miterlimit="10" fill="none" />
		<g>
			<path d="M3228.5 1038 3249.4411764705883 1038 3270.3823529411766 1038 3291.323529411765 1038 3312.264705882353 1038 3333.205882352941 1038 3354.1470588235293 1038 3375.0882352941176 1038 3396.029411764706 1038 3416.970588235294 1038 3437.9117647058824 1038 3458.8529411764707 1038 3479.794117647059 1038 3500.735294117647 1038 3521.676470588235 1038 3542.6176470588234 1038 3563.5588235294117 1038 3584.5 1038 3605.4411764705883 1038 3626.3823529411766 1038 3647.323529411765 1038 3668.264705882353 1038 3689.205882352941 1038 3710.1470588235293 1038 3731.0882352941176 1038 3752.029411764706 1038 3772.970588235294 1038 3793.9117647058824 1038 3814.8529411764707 1038 3835.7941176470586 1038 3856.735294117647 1038 3877.676470588235 1038 3898.6176470588234 1038 3919.5588235294117 1038 3940.5 1038 3961.4411764705883 1038 3982.3823529411766 1038 4003.323529411765 1038 4024.264705882353 1038 4045.2058823529414 1038 4066.1470588235293 1038 4087.0882352941176 1038 4108.029411764706 1038 4128.970588235294 1038 4149.911764705882 1038 4170.85294117647 1038 4191.794117647059 1038 4212.735294117647 1038 4233.676470588235 1038 4254.617647058823 1038 4275.558823529412 1038 4296.5 1038 4296.5 534.6770992874742 4275.558823529412 535.3589931411068 4254.617647058823 536.0408869947394 4233.676470588235 536.8506359459279 4212.735294117647 538.0013318239329 4191.794117647059 539.1946460677898 4170.85294117647 540.1322501165346 4149.911764705882 540.7289072384631 4128.970588235294 541.7091296530599 4108.029411764706 543.158154092029 4087.0882352941176 543.7974295798097 4066.1470588235293 544.5219417992942 4045.2058823529414 545.0333621895186 4024.264705882353 545.8004927748552 4003.323529411765 546.3119131650797 3982.3823529411766 546.6102417260438 3961.4411764705883 547.5904641406406 3940.5 548.3149763601252 3919.5588235294117 549.9344742625026 3898.6176470588234 550.9999334088034 3877.676470588235 551.6392088965839 3856.735294117647 552.2784843843644 3835.7941176470586 553.2160884331092 3814.8529411764707 553.9832190184459 3793.9117647058824 554.7077312379304 3772.970588235294 555.6027169208231 3752.029411764706 556.9665046280882 3731.0882352941176 557.3926882866085 3710.1470588235293 558.5007657987614 3689.205882352941 559.4383698475062 3668.264705882353 560.0776453352867 3647.323529411765 561.0152493840314 3626.3823529411766 561.5692881401079 3605.4411764705883 562.1659452620364 3584.5 563.1035493107811 3563.5588235294117 563.9132982619699 3542.6176470588234 564.6804288473064 3521.676470588235 565.2344676033829 3500.735294117647 565.6606512619032 3479.794117647059 566.0868349204236 3458.8529411764707 567.1096757008725 3437.9117647058824 567.834187920357 3416.970588235294 568.5587001398416 3396.029411764706 569.6667776519944 3375.0882352941176 570.7322367982953 3354.1470588235293 571.7124592128921 3333.205882352941 572.1812612372645 3312.264705882353 572.735299993341 3291.323529411765 573.4171938469735 3270.3823529411766 574.6957448225345 3249.4411764705883 575.8464407005395 3228.5 576.9971365785443 3228.5 1038Z" fill="#e62d39" opacity="0.9" />
		</g>
		<g>
			<path d="M3228.5 576.9971365785443 3249.4411764705883 575.8464407005395 3270.3823529411766 574.6957448225345 3291.323529411765 573.4171938469735 3312.264705882353 572.735299993341 3333.205882352941 572.1812612372645 3354.1470588235293 571.7124592128921 3375.0882352941176 570.7322367982953 3396.029411764706 569.6667776519944 3416.970588235294 568.5587001398416 3437.9117647058824 567.834187920357 3458.8529411764707 567.1096757008725 3479.794117647059 566.0868349204236 3500.735294117647 565.6606512619032 3521.676470588235 565.2344676033829 3542.6176470588234 564.6804288473064 3563.5588235294117 563.9132982619699 3584.5 563.1035493107811 3605.4411764705883 562.1659452620364 3626.3823529411766 561.5692881401079 3647.323529411765 561.0152493840314 3668.264705882353 560.0776453352867 3689.205882352941 559.4383698475062 3710.1470588235293 558.5007657987614 3731.0882352941176 557.3926882866085 3752.029411764706 556.9665046280882 3772.970588235294 555.6027169208231 3793.9117647058824 554.7077312379304 3814.8529411764707 553.9832190184459 3835.7941176470586 553.2160884331092 3856.735294117647 552.2784843843644 3877.676470588235 551.6392088965839 3898.6176470588234 550.9999334088034 3919.5588235294117 549.9344742625026 3940.5 548.3149763601252 3961.4411764705883 547.5904641406406 3982.3823529411766 546.6102417260438 4003.323529411765 546.3119131650797 4024.264705882353 545.8004927748552 4045.2058823529414 545.0333621895186 4066.1470588235293 544.5219417992942 4087.0882352941176 543.7974295798097 4108.029411764706 543.158154092029 4128.970588235294 541.7091296530599 4149.911764705882 540.7289072384631 4170.85294117647 540.1322501165346 4191.794117647059 539.1946460677898 4212.735294117647 538.0013318239329 4233.676470588235 536.8506359459279 4254.617647058823 536.0408869947394 4275.558823529412 535.3589931411068 4296.5 534.6770992874742 4296.5 398 4275.558823529412 398.89498568289275 4254.617647058823 399.6621162682294 4233.676470588235 400.59972031697407 4212.735294117647 402.0913631217953 4191.794117647059 403.4125324632083 4170.85294117647 404.4779916095092 4149.911764705882 405.33035892654993 4128.970588235294 406.566291536259 4108.029411764706 408.1857894386362 4087.0882352941176 408.995538389825 4066.1470588235293 409.9757608044217 4045.2058823529414 410.7002730239063 4024.264705882353 411.59525870679903 4003.323529411765 412.1492974628755 3982.3823529411766 412.44762602383963 3961.4411764705883 413.5983219018446 3940.5 414.5359259505894 3919.5588235294117 416.45375241393094 3898.6176470588234 417.77492175534394 3877.676470588235 418.62728907238466 3856.735294117647 420.03369514550184 3835.7941176470586 421.1843910235068 3814.8529411764707 422.1219950722516 3793.9117647058824 423.01698075514423 3772.970588235294 424.0398215355931 3752.029411764706 425.53146434041423 3731.0882352941176 426.12812146234273 3710.1470588235293 427.53452753545986 3689.205882352941 428.6852234134648 3668.264705882353 429.4949723646534 3647.323529411765 430.64566824265836 3626.3823529411766 431.28494373043884 3605.4411764705883 432.1799294133316 3584.5 433.20277019378034 3563.5588235294117 434.1829926083773 3542.6176470588234 435.0779782912699 3521.676470588235 435.6320170473464 3500.735294117647 436.1434374375708 3479.794117647059 436.8679496570554 3458.8529411764707 438.0612639009124 3437.9117647058824 438.95624958380506 3416.970588235294 439.89385363254985 3396.029411764706 441.3002597056669 3375.0882352941176 442.578810681228 3354.1470588235293 443.6868881933809 3333.205882352941 444.3261636811614 3312.264705882353 445.008057534794 3291.323529411765 445.81780648598266 3270.3823529411766 447.3094492908038 3249.4411764705883 448.67323699806894 3228.5 450.037024705334 3228.5 576.9971365785443Z" fill="#005aa6" opacity="0.9" />
		</g>
		<g>
			<rect x="4372" y="431" width="22.9995" height="23" fill="#e62d39" />
		</g>
		<g>
			<text fill="#595959" font-family="Verdana,sans-serif" font-weight="400" font-size="41" transform="matrix(1 0 0 1 4404.56 454)">Web Browser</text>
		</g>
		<g>
			<rect x="4372" y="508" width="22.9995" height="23" fill="#005aa6" />
		</g>
		<g>
			<text fill="#595959" font-family="Verdana,sans-serif" font-weight="400" font-size="41" transform="matrix(1 0 0 1 4404.56 531)">App</text>
		</g>
	</g>
</svg>
