<svg width="1763" height="1046"
    xmlns="http://www.w3.org/2000/svg"
	xmlns:xlink="http://www.w3.org/1999/xlink" xml:space="preserve" overflow="hidden">
	<defs>
		<clipPath id="clip0">
			<rect x="2917" y="346" width="1763" height="1046"/>
		</clipPath>
	</defs>
	<g clip-path="url(#clip0)" transform="translate(-2917 -346)">
		<rect x="2918" y="347" width="1760" height="1043" fill="#FFFFFF" />
		<g>
			<path d="
			M3228.5 974.532 4296.5 974.532
			M3228.5 910.53 4296.5 910.53
			M3228.5 846.528 4296.5 846.528
			M3228.5 781.526 4296.5 781.526
			M3228.5 717.524 4296.5 717.524
			M3228.5 653.522 4296.5 653.522
			M3228.5 589.52 4296.5 589.52
			M3228.5 525.517 4296.5 525.517
			M3228.5 461.515 4296.5 461.515
			M3228.5 397.5 4296.5 397.5" stroke="#D9D9D9" stroke-width="3.4375" stroke-linejoin="round" stroke-miterlimit="10" fill="none" />
		</g>
		<g>
			<path d="M 1038.5 4296.5 1038.5" stroke="#D9D9D9" stroke-width="3.4375" stroke-linejoin="round" stroke-miterlimit="10" fill="none" fill-rule="evenodd" />
		</g>
		<g>
			<text fill="#595959" font-family="Verdana,Open Sans,DejaVu Sans,sans-serif" font-weight="400" font-size="41" transform="matrix(6.12323e-17 -1 1 6.12323e-17 3247.21826171875 1194.0131759643555)">09-Jun</text>
		</g>
		<g>
			<text fill="#595959" font-family="Verdana,Open Sans,DejaVu Sans,sans-serif" font-weight="400" font-size="41" transform="matrix(6.12323e-17 -1 1 6.12323e-17 3331.693660960478 1178.9985275268555)">07-Jul</text>
		</g>
		<g>
			<text fill="#595959" font-family="Verdana,Open Sans,DejaVu Sans,sans-serif" font-weight="400" font-size="41" transform="matrix(6.12323e-17 -1 1 6.12323e-17 3415.818718405331 1208.62744140625)">04-Aug</text>
		</g>
		<g>
			<text fill="#595959" font-family="Verdana,Open Sans,DejaVu Sans,sans-serif" font-weight="400" font-size="41" transform="matrix(6.12323e-17 -1 1 6.12323e-17 3499.583424287684 1204.38330078125)">01-Sep</text>
		</g>
		<g>
			<text fill="#595959" font-family="Verdana,Open Sans,DejaVu Sans,sans-serif" font-weight="400" font-size="41" transform="matrix(6.12323e-17 -1 1 6.12323e-17 3583.3281106387867 1204.42333984375)">29-Sep</text>
		</g>
		<g>
			<text fill="#595959" font-family="Verdana,Open Sans,DejaVu Sans,sans-serif" font-weight="400" font-size="41" transform="matrix(6.12323e-17 -1 1 6.12323e-17 3662.38822667739 1201.1401290893555)">27-Oct</text>
		</g>
		<g>
			<text fill="#595959" font-family="Verdana,Open Sans,DejaVu Sans,sans-serif" font-weight="400" font-size="41" transform="matrix(6.12323e-17 -1 1 6.12323e-17 3746.1329130284926 1211.47021484375)">24-Nov</text>
		</g>
		<g>
			<text fill="#595959" font-family="Verdana,Open Sans,DejaVu Sans,sans-serif" font-weight="400" font-size="41" transform="matrix(6.12323e-17 -1 1 6.12323e-17 3829.8976189108457 1207.1259765625)">22-Dec</text>
		</g>
		<g>
			<text fill="#595959" font-family="Verdana,Open Sans,DejaVu Sans,sans-serif" font-weight="400" font-size="41" transform="matrix(6.12323e-17 -1 1 6.12323e-17 3917.3158892463234 1189.9291915893555)">19-Jan</text>
		</g>
		<g>
			<text fill="#595959" font-family="Verdana,Open Sans,DejaVu Sans,sans-serif" font-weight="400" font-size="41" transform="matrix(6.12323e-17 -1 1 6.12323e-17 3998.1577435661766 1201.3203125)">16-Feb</text>
		</g>
		<g>
			<text fill="#595959" font-family="Verdana,Open Sans,DejaVu Sans,sans-serif" font-weight="400" font-size="41" transform="matrix(6.12323e-17 -1 1 6.12323e-17 4081.1917365579043 1210.2890625)">16-Mar</text>
		</g>
		<g>
			<text fill="#595959" font-family="Verdana,Open Sans,DejaVu Sans,sans-serif" font-weight="400" font-size="41" transform="matrix(6.12323e-17 -1 1 6.12323e-17 4169.681051815257 1201.5405197143555)">13-Apr</text>
		</g>
		<g>
			<text fill="#595959" font-family="Verdana,Open Sans,DejaVu Sans,sans-serif" font-weight="400" font-size="41" transform="matrix(6.12323e-17 -1 1 6.12323e-17 4253.235552619485 1214.75341796875)">11-May</text>
		</g>
		<g>
			<text fill="#595959" font-family="Verdana,Open Sans,DejaVu Sans,sans-serif" font-weight="400" font-size="41" transform="matrix(1 0 0 1 3169.14111328125 1050)">0</text>
		</g>
		<g>
			<text fill="#595959" font-family="Verdana,Open Sans,DejaVu Sans,sans-serif" font-weight="400" font-size="41" transform="matrix(1 0 0 1 3088.7626953125 922)">3,342</text>
		</g>
		<g>
			<text fill="#595959" font-family="Verdana,Open Sans,DejaVu Sans,sans-serif" font-weight="400" font-size="41" transform="matrix(1 0 0 1 3089.42333984375 794)">6,683</text>
		</g>
		<g>
			<text fill="#595959" font-family="Verdana,Open Sans,DejaVu Sans,sans-serif" font-weight="400" font-size="41" transform="matrix(1 0 0 1 3067.3618240356445 666)">10,025</text>
		</g>
		<g>
			<text fill="#595959" font-family="Verdana,Open Sans,DejaVu Sans,sans-serif" font-weight="400" font-size="41" transform="matrix(1 0 0 1 3067.0014724731445 538)">13,366</text>
		</g>
		<g>
			<text fill="#595959" font-family="Verdana,Open Sans,DejaVu Sans,sans-serif" font-weight="400" font-size="41" transform="matrix(1 0 0 1 3067.1215896606445 410)">16,708</text>
		</g>
		<g>
			<text fill="#595959" font-family="Verdana,Open Sans,DejaVu Sans,sans-serif" font-weight="400" font-size="41" transform="matrix(1 0 0 1 3556.97119140625 1321)">Week Commencing</text>
		</g>
		<g>
			<text fill="#595959" font-family="Verdana,Open Sans,DejaVu Sans,sans-serif" font-weight="400" font-size="46" transform="matrix(6.12323e-17 -1 1 6.12323e-17 3019.73 1011.673828125)">Number of Browser Profiles</text>
		</g>
		<rect x="2918.5" y="347.5" width="1760" height="1043" stroke="#D9D9D9" stroke-width="3.4375" stroke-linejoin="round" stroke-miterlimit="10" fill="none" />
		<g>
			<path d="M3228.5 1038 3249.4411764705883 1038 3270.3823529411766 1038 3291.323529411765 1038 3312.264705882353 1038 3333.205882352941 1038 3354.1470588235293 1038 3375.0882352941176 1038 3396.029411764706 1038 3416.970588235294 1038 3437.9117647058824 1038 3458.8529411764707 1038 3479.794117647059 1038 3500.735294117647 1038 3521.676470588235 1038 3542.6176470588234 1038 3563.5588235294117 1038 3584.5 1038 3605.4411764705883 1038 3626.3823529411766 1038 3647.323529411765 1038 3668.264705882353 1038 3689.205882352941 1038 3710.1470588235293 1038 3731.0882352941176 1038 3752.029411764706 1038 3772.970588235294 1038 3793.9117647058824 1038 3814.8529411764707 1038 3835.7941176470586 1038 3856.735294117647 1038 3877.676470588235 1038 3898.6176470588234 1038 3919.5588235294117 1038 3940.5 1038 3961.4411764705883 1038 3982.3823529411766 1038 4003.323529411765 1038 4024.264705882353 1038 4045.2058823529414 1038 4066.1470588235293 1038 4087.0882352941176 1038 4108.029411764706 1038 4128.970588235294 1038 4149.911764705882 1038 4170.85294117647 1038 4191.794117647059 1038 4212.735294117647 1038 4233.676470588235 1038 4254.617647058823 1038 4275.558823529412 1038 4296.5 1038 4296.5 533.0634426621978 4275.558823529412 533.6380177160642 4254.617647058823 534.2125927699306 4233.676470588235 535.4000478812545 4212.735294117647 535.9746229351208 4191.794117647059 536.7790280105339 4170.85294117647 537.8515681110845 4149.911764705882 538.6942781900887 4128.970588235294 539.7285132870481 4108.029411764706 540.7244433804166 4087.0882352941176 541.720373473785 4066.1470588235293 543.2142686138377 4045.2058823529414 543.9420636820685 4024.264705882353 544.8613837682547 4003.323529411765 545.5125688293033 3982.3823529411766 546.623413933445 3961.4411764705883 547.6193440268135 3940.5 548.1556140770888 3919.5588235294117 548.9600191525018 3898.6176470588234 549.6878142207325 3877.676470588235 550.4922192961455 3856.735294117647 550.6454393105099 3835.7941176470586 551.105099353603 3814.8529411764707 551.6413694038783 3793.9117647058824 552.6372994972469 3772.970588235294 553.8630596121618 3752.029411764706 555.4718697629878 3731.0882352941176 555.7783097917165 3710.1470588235293 556.8508498922672 3689.205882352941 557.4637299497247 3668.264705882353 558.8810150825951 3647.323529411765 559.4555901364615 3626.3823529411766 560.7579602585588 3605.4411764705883 560.8728752693321 3584.5 561.7155853483362 3563.5588235294117 562.7115154417045 3542.6176470588234 563.9755805602107 3521.676470588235 564.6650706248504 3500.735294117647 565.2779506823078 3479.794117647059 566.5037107972229 3458.8529411764707 567.3081158726359 3437.9117647058824 568.189130955231 3416.970588235294 569.1467560450084 3396.029411764706 569.9128561168302 3375.0882352941176 570.640651185061 3354.1470588235293 571.483361264065 3333.205882352941 571.8664112999761 3312.264705882353 572.8240363897535 3291.323529411765 574.0881015082596 3270.3823529411766 574.6626765621259 3249.4411764705883 575.7735216662677 3228.5 577.0758917883649 3228.5 1038Z" fill="#005aa6" opacity="0.9" />
		</g>
		<g>
			<path d="M3228.5 577.0758917883649 3249.4411764705883 575.7735216662677 3270.3823529411766 574.6626765621259 3291.323529411765 574.0881015082596 3312.264705882353 572.8240363897535 3333.205882352941 571.8664112999761 3354.1470588235293 571.483361264065 3375.0882352941176 570.640651185061 3396.029411764706 569.9128561168302 3416.970588235294 569.1467560450084 3437.9117647058824 568.189130955231 3458.8529411764707 567.3081158726359 3479.794117647059 566.5037107972229 3500.735294117647 565.2779506823078 3521.676470588235 564.6650706248504 3542.6176470588234 563.9755805602107 3563.5588235294117 562.7115154417045 3584.5 561.7155853483362 3605.4411764705883 560.8728752693321 3626.3823529411766 560.7579602585588 3647.323529411765 559.4555901364615 3668.264705882353 558.8810150825951 3689.205882352941 557.4637299497247 3710.1470588235293 556.8508498922672 3731.0882352941176 555.7783097917165 3752.029411764706 555.4718697629878 3772.970588235294 553.8630596121618 3793.9117647058824 552.6372994972469 3814.8529411764707 551.6413694038783 3835.7941176470586 551.105099353603 3856.735294117647 550.6454393105099 3877.676470588235 550.4922192961455 3898.6176470588234 549.6878142207325 3919.5588235294117 548.9600191525018 3940.5 548.1556140770888 3961.4411764705883 547.6193440268135 3982.3823529411766 546.623413933445 4003.323529411765 545.5125688293033 4024.264705882353 544.8613837682547 4045.2058823529414 543.9420636820685 4066.1470588235293 543.2142686138377 4087.0882352941176 541.720373473785 4108.029411764706 540.7244433804166 4128.970588235294 539.7285132870481 4149.911764705882 538.6942781900887 4170.85294117647 537.8515681110845 4191.794117647059 536.7790280105339 4212.735294117647 535.9746229351208 4233.676470588235 535.4000478812545 4254.617647058823 534.2125927699306 4275.558823529412 533.6380177160642 4296.5 533.0634426621978 4296.5 398 4275.558823529412 398.6894900646397 4254.617647058823 399.6088101508259 4233.676470588235 400.9877902801054 4212.735294117647 401.9837203734737 4191.794117647059 402.9413454632512 4170.85294117647 404.2820205889394 4149.911764705882 405.316255685899 4128.970588235294 406.6186258079962 4108.029411764706 407.8060809193201 4087.0882352941176 409.0701460378262 4066.1470588235293 410.9853962173809 4045.2058823529414 411.86641129997605 4024.264705882353 413.092171414891 4003.323529411765 414.1264065118506 3982.3823529411766 415.5436916447211 3961.4411764705883 416.73114675604495 3940.5 417.45894182427577 3919.5588235294117 419.02944697151065 3898.6176470588234 419.8338520469236 3877.676470588235 420.79147713670096 3856.735294117647 420.98300215465645 3835.7941176470586 421.5192722049317 3814.8529411764707 422.05554225520706 3793.9117647058824 423.35791237730433 3772.970588235294 424.8135025137658 3752.029411764706 426.6138376825473 3731.0882352941176 427.1884127364137 3710.1470588235293 428.4907828585109 3689.205882352941 429.21857792674166 3668.264705882353 430.7890830739765 3647.323529411765 431.55518314579837 3626.3823529411766 433.01077328226 3605.4411764705883 433.1639932966244 3584.5 434.27483840076616 3563.5588235294117 435.3856835049077 3542.6176470588234 436.8412736413694 3521.676470588235 437.6839837203735 3500.735294117647 438.4500837921953 3479.794117647059 439.7524539142926 3458.8529411764707 440.748384007661 3437.9117647058824 441.7060090974383 3416.970588235294 443.0083792195355 3396.029411764706 443.8510892985396 3375.0882352941176 444.8087143883169 3354.1470588235293 445.7663394780942 3333.205882352941 446.41752453914296 3312.264705882353 447.68158965764906 3291.323529411765 449.13717979411064 3270.3823529411766 449.8266698587502 3249.4411764705883 451.05242997366537 3228.5 452.4697151065358 3228.5 577.0758917883649Z" fill="#e62d39" opacity="0.9" />
		</g>
		<g>
			<rect x="4372" y="431" width="22.9995" height="23" fill="#005aa6" />
		</g>
		<g>
			<text fill="#595959" font-family="Verdana,Open Sans,DejaVu Sans,sans-serif" font-weight="400" font-size="41" transform="matrix(1 0 0 1 4404.56 454)">Web Browser</text>
		</g>
		<g>
			<rect x="4372" y="508" width="22.9995" height="23" fill="#e62d39" />
		</g>
		<g>
			<text fill="#595959" font-family="Verdana,Open Sans,DejaVu Sans,sans-serif" font-weight="400" font-size="41" transform="matrix(1 0 0 1 4404.56 531)">App</text>
		</g>
	</g>
</svg>
