<svg width="1763" height="1046"
    xmlns="http://www.w3.org/2000/svg"
	xmlns:xlink="http://www.w3.org/1999/xlink" xml:space="preserve" overflow="hidden">
	<defs>
		<clipPath id="clip0">
			<rect x="2917" y="346" width="1763" height="1046"/>
		</clipPath>
	</defs>
	<g clip-path="url(#clip0)" transform="translate(-2917 -346)">
		<rect x="2918" y="347" width="1760" height="1043" fill="#FFFFFF" />
		<g>
			<path d="
			M3228.5 974.532 4296.5 974.532
			M3228.5 910.53 4296.5 910.53
			M3228.5 846.528 4296.5 846.528
			M3228.5 781.526 4296.5 781.526
			M3228.5 717.524 4296.5 717.524
			M3228.5 653.522 4296.5 653.522
			M3228.5 589.52 4296.5 589.52
			M3228.5 525.517 4296.5 525.517
			M3228.5 461.515 4296.5 461.515
			M3228.5 397.5 4296.5 397.5" stroke="#D9D9D9" stroke-width="3.4375" stroke-linejoin="round" stroke-miterlimit="10" fill="none" />
		</g>
		<g>
			<path d="M 1038.5 4296.5 1038.5" stroke="#D9D9D9" stroke-width="3.4375" stroke-linejoin="round" stroke-miterlimit="10" fill="none" fill-rule="evenodd" />
		</g>
		<g>
			<text fill="#595959" font-family="Verdana,sans-serif" font-weight="400" font-size="41" transform="matrix(6.12323e-17 -1 1 6.12323e-17 3244.5 1225)">06-Nov</text>
		</g>
		<g>
			<text fill="#595959" font-family="Verdana,sans-serif" font-weight="400" font-size="41" transform="matrix(6.12323e-17 -1 1 6.12323e-17 3363.1666666666665 1223)">04-Dec</text>
		</g>
		<g>
			<text fill="#595959" font-family="Verdana,sans-serif" font-weight="400" font-size="41" transform="matrix(6.12323e-17 -1 1 6.12323e-17 3481.8333333333335 1210)">01-Jan</text>
		</g>
		<g>
			<text fill="#595959" font-family="Verdana,sans-serif" font-weight="400" font-size="41" transform="matrix(6.12323e-17 -1 1 6.12323e-17 3600.5 1210)">29-Jan</text>
		</g>
		<g>
			<text fill="#595959" font-family="Verdana,sans-serif" font-weight="400" font-size="41" transform="matrix(6.12323e-17 -1 1 6.12323e-17 3719.1666666666665 1216)">26-Feb</text>
		</g>
		<g>
			<text fill="#595959" font-family="Verdana,sans-serif" font-weight="400" font-size="41" transform="matrix(6.12323e-17 -1 1 6.12323e-17 3837.8333333333335 1223)">25-Mar</text>
		</g>
		<g>
			<text fill="#595959" font-family="Verdana,sans-serif" font-weight="400" font-size="41" transform="matrix(6.12323e-17 -1 1 6.12323e-17 3960 1216)">22-Apr</text>
		</g>
		<g>
			<text fill="#595959" font-family="Verdana,sans-serif" font-weight="400" font-size="41" transform="matrix(6.12323e-17 -1 1 6.12323e-17 4078.666666666667 1228)">20-May</text>
		</g>
		<g>
			<text fill="#595959" font-family="Verdana,sans-serif" font-weight="400" font-size="41" transform="matrix(6.12323e-17 -1 1 6.12323e-17 4193.333333333333 1209)">17-Jun</text>
		</g>
		<g>
			<text fill="#595959" font-family="Verdana,sans-serif" font-weight="400" font-size="41" transform="matrix(6.12323e-17 -1 1 6.12323e-17 4312.5 1194)">15-Jul</text>
		</g>
		<g>
			<text fill="#595959" font-family="Verdana,sans-serif" font-weight="400" font-size="41" transform="matrix(1 0 0 1 3167.5 1050)">0</text>
		</g>
		<g>
			<text fill="#595959" font-family="Verdana,sans-serif" font-weight="400" font-size="41" transform="matrix(1 0 0 1 3074.5 922)">2,827</text>
		</g>
		<g>
			<text fill="#595959" font-family="Verdana,sans-serif" font-weight="400" font-size="41" transform="matrix(1 0 0 1 3074.5 794)">5,654</text>
		</g>
		<g>
			<text fill="#595959" font-family="Verdana,sans-serif" font-weight="400" font-size="41" transform="matrix(1 0 0 1 3073.5 666)">8,480</text>
		</g>
		<g>
			<text fill="#595959" font-family="Verdana,sans-serif" font-weight="400" font-size="41" transform="matrix(1 0 0 1 3050.5 538)">11,307</text>
		</g>
		<g>
			<text fill="#595959" font-family="Verdana,sans-serif" font-weight="400" font-size="41" transform="matrix(1 0 0 1 3050.5 410)">14,134</text>
		</g>
		<g>
			<text fill="#595959" font-family="Verdana,sans-serif" font-weight="400" font-size="41" transform="matrix(1 0 0 1 3544.5 1321)">Week Commencing</text>
		</g>
		<g>
			<text fill="#595959" font-family="Verdana,sans-serif" font-weight="400" font-size="46" transform="matrix(6.12323e-17 -1 1 6.12323e-17 3019.73 1030.75)">Number of Browser Profiles</text>
		</g>
		<rect x="2918.5" y="347.5" width="1760" height="1043" stroke="#D9D9D9" stroke-width="3.4375" stroke-linejoin="round" stroke-miterlimit="10" fill="none" />
		<g>
			<path d="M3228.5 1038 3258.1666666666665 1038 3287.8333333333335 1038 3317.5 1038 3347.1666666666665 1038 3376.8333333333335 1038 3406.5 1038 3436.1666666666665 1038 3465.8333333333335 1038 3495.5 1038 3525.1666666666665 1038 3554.8333333333335 1038 3584.5 1038 3614.1666666666665 1038 3643.8333333333335 1038 3673.5 1038 3703.1666666666665 1038 3732.8333333333335 1038 3762.5 1038 3792.166666666667 1038 3821.8333333333335 1038 3851.5 1038 3881.166666666667 1038 3910.8333333333335 1038 3940.5 1038 3970.166666666667 1038 3999.8333333333335 1038 4029.5 1038 4059.166666666667 1038 4088.8333333333335 1038 4118.5 1038 4148.166666666667 1038 4177.833333333333 1038 4207.5 1038 4237.166666666667 1038 4266.833333333334 1038 4296.5 1038 4296.5 535.69916513372 4266.833333333334 536.1519739634923 4237.166666666667 536.6047827932645 4207.5 537.6915239847176 4177.833333333333 538.4612989953304 4148.166666666667 539.2310740059431 4118.5 540.4083769633507 4088.8333333333335 541.5403990377812 4059.166666666667 542.5818593462573 4029.5 543.0799490590066 3999.8333333333335 543.6686005377105 3970.166666666667 544.3930946653459 3940.5 545.7515211546624 3910.8333333333335 546.9741049950474 3881.166666666667 548.1966888354323 3851.5 549.6909579736805 3821.8333333333335 550.8229800481109 3792.166666666667 551.864440356587 3762.5 552.9511815480402 3732.8333333333335 554.3548889203339 3703.1666666666665 556.6642139521721 3673.5 557.1170227819442 3643.8333333333335 557.479269845762 3614.1666666666665 559.4263478137823 3584.5 561.41870666478 3554.8333333333335 561.9620772605065 3525.1666666666665 562.7771331540964 3495.5 563.4563463987547 3465.8333333333335 563.728031696618 3436.1666666666665 563.728031696618 3406.5 564.4978067072308 3376.8333333333335 564.9506155370029 3347.1666666666665 565.4939861327296 3317.5 566.3996037922739 3287.8333333333335 567.1693788028866 3258.1666666666665 567.8485920475449 3228.5 568.3466817602944 3228.5 1038Z" fill="#e62d39" opacity="0.9" />
		</g>
		<g>
			<path d="M3228.5 568.3466817602944 3258.1666666666665 567.8485920475449 3287.8333333333335 567.1693788028866 3317.5 566.3996037922739 3347.1666666666665 565.4939861327296 3376.8333333333335 564.9506155370029 3406.5 564.4978067072308 3436.1666666666665 563.728031696618 3465.8333333333335 563.728031696618 3495.5 563.4563463987547 3525.1666666666665 562.7771331540964 3554.8333333333335 561.9620772605065 3584.5 561.41870666478 3614.1666666666665 559.4263478137823 3643.8333333333335 557.479269845762 3673.5 557.1170227819442 3703.1666666666665 556.6642139521721 3732.8333333333335 554.3548889203339 3762.5 552.9511815480402 3792.166666666667 551.864440356587 3821.8333333333335 550.8229800481109 3851.5 549.6909579736805 3881.166666666667 548.1966888354323 3910.8333333333335 546.9741049950474 3940.5 545.7515211546624 3970.166666666667 544.3930946653459 3999.8333333333335 543.6686005377105 4029.5 543.0799490590066 4059.166666666667 542.5818593462573 4088.8333333333335 541.5403990377812 4118.5 540.4083769633507 4148.166666666667 539.2310740059431 4177.833333333333 538.4612989953304 4207.5 537.6915239847176 4237.166666666667 536.6047827932645 4266.833333333334 536.1519739634923 4296.5 535.69916513372 4296.5 397.99999999999994 4266.833333333334 398.5433705957266 4237.166666666667 399.3131456063393 4207.5 400.5810103297013 4177.833333333333 401.53190887222297 4148.166666666667 402.5280882977218 4118.5 404.02235743597 4088.8333333333335 405.3807839252865 4059.166666666667 406.5580868826942 4029.5 407.23730012735246 3999.8333333333335 407.96179425498804 3970.166666666667 408.82213103155505 3940.5 410.40696193575764 3910.8333333333335 411.8559501910287 3881.166666666667 413.3049384462997 3851.5 415.0708928824112 3821.8333333333335 416.42931937172773 3792.166666666667 418.1047120418849 3762.5 419.7348238290646 3732.8333333333335 421.1838120843356 3703.1666666666665 423.7648224140371 3673.5 424.26291212678643 3643.8333333333335 424.8062827225131 3614.1666666666665 427.0250459883967 3584.5 429.153247488326 3554.8333333333335 429.83246073298415 3525.1666666666665 430.8739210414602 3495.5 431.68897693505016 3465.8333333333335 432.0512239988679 3436.1666666666665 432.0512239988679 3406.5 433.04740342436673 3376.8333333333335 433.726616669025 3347.1666666666665 434.31526814772883 3317.5 435.3114475732276 3287.8333333333335 436.21706523277203 3258.1666666666665 437.2132446582708 3228.5 437.8924579029291 3228.5 568.3466817602944Z" fill="#005aa6" opacity="0.9" />
		</g>
		<g>
			<rect x="4372" y="431" width="22.9995" height="23" fill="#e62d39" />
		</g>
		<g>
			<text fill="#595959" font-family="Verdana,sans-serif" font-weight="400" font-size="41" transform="matrix(1 0 0 1 4404.56 454)">Web Browser</text>
		</g>
		<g>
			<rect x="4372" y="508" width="22.9995" height="23" fill="#005aa6" />
		</g>
		<g>
			<text fill="#595959" font-family="Verdana,sans-serif" font-weight="400" font-size="41" transform="matrix(1 0 0 1 4404.56 531)">App</text>
		</g>
	</g>
</svg>
