<svg width="1763" height="1046"
    xmlns="http://www.w3.org/2000/svg"
	xmlns:xlink="http://www.w3.org/1999/xlink" xml:space="preserve" overflow="hidden">
	<defs>
		<clipPath id="clip0">
			<rect x="2917" y="346" width="1763" height="1046"/>
		</clipPath>
	</defs>
	<g clip-path="url(#clip0)" transform="translate(-2917 -346)">
		<rect x="2918" y="347" width="1760" height="1043" fill="#FFFFFF" />
		<g>
			<path d="
			M3228.5 974.532 4296.5 974.532
			M3228.5 910.53 4296.5 910.53
			M3228.5 846.528 4296.5 846.528
			M3228.5 781.526 4296.5 781.526
			M3228.5 717.524 4296.5 717.524
			M3228.5 653.522 4296.5 653.522
			M3228.5 589.52 4296.5 589.52
			M3228.5 525.517 4296.5 525.517
			M3228.5 461.515 4296.5 461.515
			M3228.5 397.5 4296.5 397.5" stroke="#D9D9D9" stroke-width="3.4375" stroke-linejoin="round" stroke-miterlimit="10" fill="none" />
		</g>
		<g>
			<path d="M 1038.5 4296.5 1038.5" stroke="#D9D9D9" stroke-width="3.4375" stroke-linejoin="round" stroke-miterlimit="10" fill="none" fill-rule="evenodd" />
		</g>
		<g>
			<text fill="#595959" font-family="Verdana,sans-serif" font-weight="400" font-size="41" transform="matrix(6.12323e-17 -1 1 6.12323e-17 3244.5 1225)">06-Nov</text>
		</g>
		<g>
			<text fill="#595959" font-family="Verdana,sans-serif" font-weight="400" font-size="41" transform="matrix(6.12323e-17 -1 1 6.12323e-17 3318.155172413793 1224)">20-Nov</text>
		</g>
		<g>
			<text fill="#595959" font-family="Verdana,sans-serif" font-weight="400" font-size="41" transform="matrix(6.12323e-17 -1 1 6.12323e-17 3391.810344827586 1223)">04-Dec</text>
		</g>
		<g>
			<text fill="#595959" font-family="Verdana,sans-serif" font-weight="400" font-size="41" transform="matrix(6.12323e-17 -1 1 6.12323e-17 3465.4655172413795 1220)">18-Dec</text>
		</g>
		<g>
			<text fill="#595959" font-family="Verdana,sans-serif" font-weight="400" font-size="41" transform="matrix(6.12323e-17 -1 1 6.12323e-17 3539.1206896551726 1210)">01-Jan</text>
		</g>
		<g>
			<text fill="#595959" font-family="Verdana,sans-serif" font-weight="400" font-size="41" transform="matrix(6.12323e-17 -1 1 6.12323e-17 3612.2758620689656 1207)">15-Jan</text>
		</g>
		<g>
			<text fill="#595959" font-family="Verdana,sans-serif" font-weight="400" font-size="41" transform="matrix(6.12323e-17 -1 1 6.12323e-17 3686.4310344827586 1210)">29-Jan</text>
		</g>
		<g>
			<text fill="#595959" font-family="Verdana,sans-serif" font-weight="400" font-size="41" transform="matrix(6.12323e-17 -1 1 6.12323e-17 3760.0862068965516 1214)">12-Feb</text>
		</g>
		<g>
			<text fill="#595959" font-family="Verdana,sans-serif" font-weight="400" font-size="41" transform="matrix(6.12323e-17 -1 1 6.12323e-17 3833.741379310345 1216)">26-Feb</text>
		</g>
		<g>
			<text fill="#595959" font-family="Verdana,sans-serif" font-weight="400" font-size="41" transform="matrix(6.12323e-17 -1 1 6.12323e-17 3906.896551724138 1221)">11-Mar</text>
		</g>
		<g>
			<text fill="#595959" font-family="Verdana,sans-serif" font-weight="400" font-size="41" transform="matrix(6.12323e-17 -1 1 6.12323e-17 3981.051724137931 1223)">25-Mar</text>
		</g>
		<g>
			<text fill="#595959" font-family="Verdana,sans-serif" font-weight="400" font-size="41" transform="matrix(6.12323e-17 -1 1 6.12323e-17 4058.206896551724 1217)">08-Apr</text>
		</g>
		<g>
			<text fill="#595959" font-family="Verdana,sans-serif" font-weight="400" font-size="41" transform="matrix(6.12323e-17 -1 1 6.12323e-17 4131.862068965517 1216)">22-Apr</text>
		</g>
		<g>
			<text fill="#595959" font-family="Verdana,sans-serif" font-weight="400" font-size="41" transform="matrix(6.12323e-17 -1 1 6.12323e-17 4205.517241379311 1228)">06-May</text>
		</g>
		<g>
			<text fill="#595959" font-family="Verdana,sans-serif" font-weight="400" font-size="41" transform="matrix(6.12323e-17 -1 1 6.12323e-17 4279.172413793103 1228)">20-May</text>
		</g>
		<g>
			<text fill="#595959" font-family="Verdana,sans-serif" font-weight="400" font-size="41" transform="matrix(1 0 0 1 3167.5 1050)">0</text>
		</g>
		<g>
			<text fill="#595959" font-family="Verdana,sans-serif" font-weight="400" font-size="41" transform="matrix(1 0 0 1 3074.5 922)">2,794</text>
		</g>
		<g>
			<text fill="#595959" font-family="Verdana,sans-serif" font-weight="400" font-size="41" transform="matrix(1 0 0 1 3075.5 794)">5,588</text>
		</g>
		<g>
			<text fill="#595959" font-family="Verdana,sans-serif" font-weight="400" font-size="41" transform="matrix(1 0 0 1 3074.5 666)">8,383</text>
		</g>
		<g>
			<text fill="#595959" font-family="Verdana,sans-serif" font-weight="400" font-size="41" transform="matrix(1 0 0 1 3050.5 538)">11,177</text>
		</g>
		<g>
			<text fill="#595959" font-family="Verdana,sans-serif" font-weight="400" font-size="41" transform="matrix(1 0 0 1 3052.5 410)">13,971</text>
		</g>
		<g>
			<text fill="#595959" font-family="Verdana,sans-serif" font-weight="400" font-size="41" transform="matrix(1 0 0 1 3544.5 1321)">Week Commencing</text>
		</g>
		<g>
			<text fill="#595959" font-family="Verdana,sans-serif" font-weight="400" font-size="46" transform="matrix(6.12323e-17 -1 1 6.12323e-17 3019.73 1030.75)">Number of Browser Profiles</text>
		</g>
		<rect x="2918.5" y="347.5" width="1760" height="1043" stroke="#D9D9D9" stroke-width="3.4375" stroke-linejoin="round" stroke-miterlimit="10" fill="none" />
		<g>
			<path d="M3228.5 1038 3265.3275862068967 1038 3302.155172413793 1038 3338.9827586206898 1038 3375.810344827586 1038 3412.637931034483 1038 3449.4655172413795 1038 3486.293103448276 1038 3523.1206896551726 1038 3559.948275862069 1038 3596.7758620689656 1038 3633.6034482758623 1038 3670.4310344827586 1038 3707.2586206896553 1038 3744.0862068965516 1038 3780.9137931034484 1038 3817.741379310345 1038 3854.5689655172414 1038 3891.396551724138 1038 3928.2241379310344 1038 3965.051724137931 1038 4001.879310344828 1038 4038.706896551724 1038 4075.534482758621 1038 4112.362068965517 1038 4149.189655172414 1038 4186.017241379311 1038 4222.8448275862065 1038 4259.672413793103 1038 4296.5 1038 4296.5 535.7481926848473 4259.672413793103 536.801803736311 4222.8448275862065 537.3057046739675 4186.017241379311 537.9012239639253 4149.189655172414 538.6341707823349 4112.362068965517 540.0084460668527 4075.534482758621 541.2452938229189 4038.706896551724 542.482141578985 4001.879310344828 543.9938443919548 3965.051724137931 545.1390737957197 3928.2241379310344 546.1926848471835 3891.396551724138 547.2921050747977 3854.5689655172414 548.7121895354663 3817.741379310345 551.0484575191467 3780.9137931034484 551.5065492806527 3744.0862068965516 551.8730226898576 3707.2586206896553 553.8428172643332 3670.4310344827586 555.8584210149595 3633.6034482758623 556.4081311287667 3596.7758620689656 557.2326962994775 3559.948275862069 557.9198339417364 3523.1206896551726 558.19468899864 3486.293103448276 558.19468899864 3449.4655172413795 558.9734449932002 3412.637931034483 559.4315367547063 3375.810344827586 559.9812468685134 3338.9827586206898 560.8974303915253 3302.155172413793 561.6761863860854 3265.3275862068967 562.3633240283444 3228.5 562.867224966001 3228.5 1038Z" fill="#e62d39" opacity="0.9" />
		</g>
		<g>
			<path d="M3228.5 562.867224966001 3265.3275862068967 562.3633240283444 3302.155172413793 561.6761863860854 3338.9827586206898 560.8974303915253 3375.810344827586 559.9812468685134 3412.637931034483 559.4315367547063 3449.4655172413795 558.9734449932002 3486.293103448276 558.19468899864 3523.1206896551726 558.19468899864 3559.948275862069 557.9198339417364 3596.7758620689656 557.2326962994775 3633.6034482758623 556.4081311287667 3670.4310344827586 555.8584210149595 3707.2586206896553 553.8428172643332 3744.0862068965516 551.8730226898576 3780.9137931034484 551.5065492806527 3817.741379310345 551.0484575191467 3854.5689655172414 548.7121895354663 3891.396551724138 547.2921050747977 3928.2241379310344 546.1926848471835 3965.051724137931 545.1390737957197 4001.879310344828 543.9938443919548 4038.706896551724 542.482141578985 4075.534482758621 541.2452938229189 4112.362068965517 540.0084460668527 4149.189655172414 538.6341707823349 4186.017241379311 537.9012239639253 4222.8448275862065 537.3057046739675 4259.672413793103 536.801803736311 4296.5 535.7481926848473 4296.5 398.0000000000001 4259.672413793103 399.1910385799156 4222.8448275862065 399.8781762221745 4186.017241379311 400.61112304058406 4149.189655172414 401.4814973874455 4112.362068965517 403.08481855271623 4075.534482758621 404.5507121895355 4038.706896551724 406.0166058263545 4001.879310344828 407.8031636962279 3965.051724137931 409.1774389807458 3928.2241379310344 410.87237849831797 3891.396551724138 412.52150883973945 3854.5689655172414 413.9874024765586 3817.741379310345 416.59852551714255 3780.9137931034484 417.1024264547992 3744.0862068965516 417.65213656860647 3707.2586206896553 419.8967861999856 3670.4310344827586 422.04981747906373 3633.6034482758623 422.73695512132275 3596.7758620689656 423.7905661727865 3559.948275862069 424.61513134349724 3523.1206896551726 424.98160475270197 3486.293103448276 424.98160475270197 3449.4655172413795 425.9894066280152 3412.637931034483 426.67654427027423 3375.810344827586 427.2720635602319 3338.9827586206898 428.27986543554505 3302.155172413793 429.19604895855696 3265.3275862068967 430.2038508338702 3228.5 430.8909884761291 3228.5 562.867224966001Z" fill="#005aa6" opacity="0.9" />
		</g>
		<g>
			<rect x="4372" y="431" width="22.9995" height="23" fill="#e62d39" />
		</g>
		<g>
			<text fill="#595959" font-family="Verdana,sans-serif" font-weight="400" font-size="41" transform="matrix(1 0 0 1 4404.56 454)">Web Browser</text>
		</g>
		<g>
			<rect x="4372" y="508" width="22.9995" height="23" fill="#005aa6" />
		</g>
		<g>
			<text fill="#595959" font-family="Verdana,sans-serif" font-weight="400" font-size="41" transform="matrix(1 0 0 1 4404.56 531)">App</text>
		</g>
	</g>
</svg>
