<svg width="1763" height="1046"
    xmlns="http://www.w3.org/2000/svg"
	xmlns:xlink="http://www.w3.org/1999/xlink" xml:space="preserve" overflow="hidden">
	<defs>
		<clipPath id="clip0">
			<rect x="2917" y="346" width="1763" height="1046"/>
		</clipPath>
	</defs>
	<g clip-path="url(#clip0)" transform="translate(-2917 -346)">
		<rect x="2918" y="347" width="1760" height="1043" fill="#FFFFFF" />
		<g>
			<path d="
			M3228.5 974.532 4296.5 974.532
			M3228.5 910.53 4296.5 910.53
			M3228.5 846.528 4296.5 846.528
			M3228.5 781.526 4296.5 781.526
			M3228.5 717.524 4296.5 717.524
			M3228.5 653.522 4296.5 653.522
			M3228.5 589.52 4296.5 589.52
			M3228.5 525.517 4296.5 525.517
			M3228.5 461.515 4296.5 461.515
			M3228.5 397.5 4296.5 397.5" stroke="#D9D9D9" stroke-width="3.4375" stroke-linejoin="round" stroke-miterlimit="10" fill="none" />
		</g>
		<g>
			<path d="M 1038.5 4296.5 1038.5" stroke="#D9D9D9" stroke-width="3.4375" stroke-linejoin="round" stroke-miterlimit="10" fill="none" fill-rule="evenodd" />
		</g>
		<g>
			<text fill="#595959" font-family="Verdana,Open Sans,DejaVu Sans,sans-serif" font-weight="400" font-size="41" transform="matrix(6.12323e-17 -1 1 6.12323e-17 3247.928955078125 1178.9985275268555)">07-Jul</text>
		</g>
		<g>
			<text fill="#595959" font-family="Verdana,Open Sans,DejaVu Sans,sans-serif" font-weight="400" font-size="41" transform="matrix(6.12323e-17 -1 1 6.12323e-17 3330.443152794471 1208.62744140625)">04-Aug</text>
		</g>
		<g>
			<text fill="#595959" font-family="Verdana,Open Sans,DejaVu Sans,sans-serif" font-weight="400" font-size="41" transform="matrix(6.12323e-17 -1 1 6.12323e-17 3412.5969989483174 1204.38330078125)">01-Sep</text>
		</g>
		<g>
			<text fill="#595959" font-family="Verdana,Open Sans,DejaVu Sans,sans-serif" font-weight="400" font-size="41" transform="matrix(6.12323e-17 -1 1 6.12323e-17 3494.7308255709136 1204.42333984375)">29-Sep</text>
		</g>
		<g>
			<text fill="#595959" font-family="Verdana,Open Sans,DejaVu Sans,sans-serif" font-weight="400" font-size="41" transform="matrix(6.12323e-17 -1 1 6.12323e-17 3572.1800818810098 1201.1401290893555)">27-Oct</text>
		</g>
		<g>
			<text fill="#595959" font-family="Verdana,Open Sans,DejaVu Sans,sans-serif" font-weight="400" font-size="41" transform="matrix(6.12323e-17 -1 1 6.12323e-17 3654.313908503606 1211.47021484375)">24-Nov</text>
		</g>
		<g>
			<text fill="#595959" font-family="Verdana,Open Sans,DejaVu Sans,sans-serif" font-weight="400" font-size="41" transform="matrix(6.12323e-17 -1 1 6.12323e-17 3736.467754657452 1207.1259765625)">22-Dec</text>
		</g>
		<g>
			<text fill="#595959" font-family="Verdana,Open Sans,DejaVu Sans,sans-serif" font-weight="400" font-size="41" transform="matrix(6.12323e-17 -1 1 6.12323e-17 3822.275165264423 1189.9291915893555)">19-Jan</text>
		</g>
		<g>
			<text fill="#595959" font-family="Verdana,Open Sans,DejaVu Sans,sans-serif" font-weight="400" font-size="41" transform="matrix(6.12323e-17 -1 1 6.12323e-17 3901.5061598557695 1201.3203125)">16-Feb</text>
		</g>
		<g>
			<text fill="#595959" font-family="Verdana,Open Sans,DejaVu Sans,sans-serif" font-weight="400" font-size="41" transform="matrix(6.12323e-17 -1 1 6.12323e-17 3982.9292931189902 1210.2890625)">16-Mar</text>
		</g>
		<g>
			<text fill="#595959" font-family="Verdana,Open Sans,DejaVu Sans,sans-serif" font-weight="400" font-size="41" transform="matrix(6.12323e-17 -1 1 6.12323e-17 4069.807748647837 1201.5405197143555)">13-Apr</text>
		</g>
		<g>
			<text fill="#595959" font-family="Verdana,Open Sans,DejaVu Sans,sans-serif" font-weight="400" font-size="41" transform="matrix(6.12323e-17 -1 1 6.12323e-17 4151.751389723558 1214.75341796875)">11-May</text>
		</g>
		<g>
			<text fill="#595959" font-family="Verdana,Open Sans,DejaVu Sans,sans-serif" font-weight="400" font-size="41" transform="matrix(6.12323e-17 -1 1 6.12323e-17 4233.064415564904 1194.0131759643555)">08-Jun</text>
		</g>
		<g>
			<text fill="#595959" font-family="Verdana,Open Sans,DejaVu Sans,sans-serif" font-weight="400" font-size="41" transform="matrix(6.12323e-17 -1 1 6.12323e-17 4315.928955078125 1178.9985275268555)">06-Jul</text>
		</g>
		<g>
			<text fill="#595959" font-family="Verdana,Open Sans,DejaVu Sans,sans-serif" font-weight="400" font-size="41" transform="matrix(1 0 0 1 3169.14111328125 1050)">0</text>
		</g>
		<g>
			<text fill="#595959" font-family="Verdana,Open Sans,DejaVu Sans,sans-serif" font-weight="400" font-size="41" transform="matrix(1 0 0 1 3088.7626953125 922)">3,379</text>
		</g>
		<g>
			<text fill="#595959" font-family="Verdana,Open Sans,DejaVu Sans,sans-serif" font-weight="400" font-size="41" transform="matrix(1 0 0 1 3089.14306640625 794)">6,758</text>
		</g>
		<g>
			<text fill="#595959" font-family="Verdana,Open Sans,DejaVu Sans,sans-serif" font-weight="400" font-size="41" transform="matrix(1 0 0 1 3067.0815505981445 666)">10,137</text>
		</g>
		<g>
			<text fill="#595959" font-family="Verdana,Open Sans,DejaVu Sans,sans-serif" font-weight="400" font-size="41" transform="matrix(1 0 0 1 3067.0014724731445 538)">13,516</text>
		</g>
		<g>
			<text fill="#595959" font-family="Verdana,Open Sans,DejaVu Sans,sans-serif" font-weight="400" font-size="41" transform="matrix(1 0 0 1 3067.3618240356445 410)">16,895</text>
		</g>
		<g>
			<text fill="#595959" font-family="Verdana,Open Sans,DejaVu Sans,sans-serif" font-weight="400" font-size="41" transform="matrix(1 0 0 1 3556.97119140625 1321)">Week Commencing</text>
		</g>
		<g>
			<text fill="#595959" font-family="Verdana,Open Sans,DejaVu Sans,sans-serif" font-weight="400" font-size="46" transform="matrix(6.12323e-17 -1 1 6.12323e-17 3019.73 1011.673828125)">Number of Browser Profiles</text>
		</g>
		<rect x="2918.5" y="347.5" width="1760" height="1043" stroke="#D9D9D9" stroke-width="3.4375" stroke-linejoin="round" stroke-miterlimit="10" fill="none" />
		<g>
			<path d="M3228.5 1038 3249.0384615384614 1038 3269.576923076923 1038 3290.1153846153848 1038 3310.653846153846 1038 3331.1923076923076 1038 3351.730769230769 1038 3372.269230769231 1038 3392.8076923076924 1038 3413.346153846154 1038 3433.8846153846152 1038 3454.423076923077 1038 3474.9615384615386 1038 3495.5 1038 3516.0384615384614 1038 3536.576923076923 1038 3557.1153846153848 1038 3577.653846153846 1038 3598.1923076923076 1038 3618.7307692307695 1038 3639.269230769231 1038 3659.8076923076924 1038 3680.346153846154 1038 3700.8846153846152 1038 3721.423076923077 1038 3741.9615384615386 1038 3762.5 1038 3783.0384615384614 1038 3803.576923076923 1038 3824.1153846153848 1038 3844.653846153846 1038 3865.1923076923076 1038 3885.7307692307695 1038 3906.269230769231 1038 3926.8076923076924 1038 3947.346153846154 1038 3967.8846153846152 1038 3988.423076923077 1038 4008.9615384615386 1038 4029.5 1038 4050.038461538462 1038 4070.576923076923 1038 4091.1153846153848 1038 4111.653846153846 1038 4132.192307692308 1038 4152.7307692307695 1038 4173.2692307692305 1038 4193.807692307692 1038 4214.346153846154 1038 4234.884615384615 1038 4255.423076923077 1038 4275.961538461539 1038 4296.5 1038 4296.5 533.8413731873335 4275.961538461539 534.33382657591 4255.423076923077 535.0535661438296 4234.884615384615 536.5688073394494 4214.346153846154 537.7052382361645 4193.807692307692 538.652263983427 4173.2692307692305 539.2204794317845 4152.7307692307695 539.788694880142 4132.192307692308 540.9630068067476 4111.653846153846 541.531222255105 4091.1153846153848 542.3267238828055 4070.576923076923 543.3873927197395 4050.038461538462 544.2207753773305 4029.5 545.2435631843741 4008.9615384615386 546.228469961527 3988.423076923077 547.21337673868 3967.8846153846152 548.6907369044095 3947.346153846154 549.410476472329 3926.8076923076924 550.3196211897011 3906.269230769231 550.9635986978396 3885.7307692307695 552.0621485646641 3865.1923076923076 553.0470553418171 3844.653846153846 553.5773897602841 3824.1153846153848 554.3728913879845 3803.576923076923 555.092630955904 3783.0384615384614 555.8881325836046 3762.5 556.0396567031667 3741.9615384615386 556.4942290618526 3721.423076923077 557.0245634803196 3700.8846153846152 558.0094702574727 3680.346153846154 559.2216632139687 3659.8076923076924 560.8126664693696 3639.269230769231 561.1157147084937 3618.7307692307695 562.1763835454276 3598.1923076923076 562.7824800236756 3577.653846153846 564.1840781296241 3557.1153846153848 564.7522935779816 3536.576923076923 566.0402485942586 3516.0384615384614 566.1538916839302 3495.5 566.9872743415211 3474.9615384615386 567.9721811186741 3454.423076923077 569.2222551050606 3433.8846153846152 569.9041136430897 3413.346153846154 570.5102101213376 3392.8076923076924 571.7224030778336 3372.269230769231 572.5179047055342 3351.730769230769 573.3891683930157 3331.1923076923076 574.3361941402782 3310.653846153846 575.0938147380882 3290.1153846153848 575.8135543060077 3269.576923076923 576.6469369635987 3249.0384615384614 577.0257472625037 3228.5 577.9727730097661 3228.5 1038Z" fill="#005aa6" opacity="0.9" />
		</g>
		<g>
			<path d="M3228.5 577.9727730097661 3249.0384615384614 577.0257472625037 3269.576923076923 576.6469369635987 3290.1153846153848 575.8135543060077 3310.653846153846 575.0938147380882 3331.1923076923076 574.3361941402782 3351.730769230769 573.3891683930157 3372.269230769231 572.5179047055342 3392.8076923076924 571.7224030778336 3413.346153846154 570.5102101213376 3433.8846153846152 569.9041136430897 3454.423076923077 569.2222551050606 3474.9615384615386 567.9721811186741 3495.5 566.9872743415211 3516.0384615384614 566.1538916839302 3536.576923076923 566.0402485942586 3557.1153846153848 564.7522935779816 3577.653846153846 564.1840781296241 3598.1923076923076 562.7824800236756 3618.7307692307695 562.1763835454276 3639.269230769231 561.1157147084937 3659.8076923076924 560.8126664693696 3680.346153846154 559.2216632139687 3700.8846153846152 558.0094702574727 3721.423076923077 557.0245634803196 3741.9615384615386 556.4942290618526 3762.5 556.0396567031667 3783.0384615384614 555.8881325836046 3803.576923076923 555.092630955904 3824.1153846153848 554.3728913879845 3844.653846153846 553.5773897602841 3865.1923076923076 553.0470553418171 3885.7307692307695 552.0621485646641 3906.269230769231 550.9635986978396 3926.8076923076924 550.3196211897011 3947.346153846154 549.410476472329 3967.8846153846152 548.6907369044095 3988.423076923077 547.21337673868 4008.9615384615386 546.228469961527 4029.5 545.2435631843741 4050.038461538462 544.2207753773305 4070.576923076923 543.3873927197395 4091.1153846153848 542.3267238828055 4111.653846153846 541.531222255105 4132.192307692308 540.9630068067476 4152.7307692307695 539.788694880142 4173.2692307692305 539.2204794317845 4193.807692307692 538.652263983427 4214.346153846154 537.7052382361645 4234.884615384615 536.5688073394494 4255.423076923077 535.0535661438296 4275.961538461539 534.33382657591 4296.5 533.8413731873335 4296.5 397.99999999999994 4275.961538461539 398.606096478248 4255.423076923077 399.66676531518203 4234.884615384615 402.4320804971884 4214.346153846154 403.7957975732465 4193.807692307692 405.0837525895235 4173.2692307692305 405.76561112755246 4152.7307692307695 406.67475584492445 4132.192307692308 408.03847292098254 4111.653846153846 409.0233796981355 4091.1153846153848 409.970405445398 4070.576923076923 411.2962414915655 4050.038461538462 412.31902929860894 4029.5 413.6069843148861 4008.9615384615386 414.78129624149153 3988.423076923077 416.031370227878 3967.8846153846152 417.92542172240303 3947.346153846154 418.7966854098845 3926.8076923076924 420.0088783663806 3906.269230769231 421.0316661734241 3885.7307692307695 422.43326427937257 3865.1923076923076 423.6075762059781 3844.653846153846 424.32731577389757 3824.1153846153848 425.880437999408 3803.576923076923 426.6759396271085 3783.0384615384614 427.6229653743711 3762.5 427.8123705238237 3741.9615384615386 428.3427049422906 3721.423076923077 428.87303936075756 3700.8846153846152 430.1609943770347 3680.346153846154 431.6004735128737 3659.8076923076924 433.38088191772704 3639.269230769231 433.9490973660847 3618.7307692307695 435.2370523823616 3598.1923076923076 435.95679195028106 3577.653846153846 437.50991417579166 3557.1153846153848 438.2675347736016 3536.576923076923 439.70701390944066 3516.0384615384614 439.85853802900266 3495.5 440.95708789582716 3474.9615384615386 442.05563776265166 3454.423076923077 443.49511689849066 3433.8846153846152 444.3284995560817 3413.346153846154 445.08612015389167 3392.8076923076924 446.3740751701686 3372.269230769231 447.3589819473217 3351.730769230769 448.3060076945842 3331.1923076923076 449.5939627108612 3310.653846153846 450.4273453684522 3290.1153846153848 451.3743711157148 3269.576923076923 452.3213968629772 3249.0384615384614 452.96537437111573 3228.5 454.2154483575021 3228.5 577.9727730097661Z" fill="#e62d39" opacity="0.9" />
		</g>
		<g>
			<rect x="4372" y="431" width="22.9995" height="23" fill="#005aa6" />
		</g>
		<g>
			<text fill="#595959" font-family="Verdana,Open Sans,DejaVu Sans,sans-serif" font-weight="400" font-size="41" transform="matrix(1 0 0 1 4404.56 454)">Web Browser</text>
		</g>
		<g>
			<rect x="4372" y="508" width="22.9995" height="23" fill="#e62d39" />
		</g>
		<g>
			<text fill="#595959" font-family="Verdana,Open Sans,DejaVu Sans,sans-serif" font-weight="400" font-size="41" transform="matrix(1 0 0 1 4404.56 531)">App</text>
		</g>
	</g>
</svg>
