<svg width="1763" height="1046"
    xmlns="http://www.w3.org/2000/svg"
	xmlns:xlink="http://www.w3.org/1999/xlink" xml:space="preserve" overflow="hidden">
	<defs>
		<clipPath id="clip0">
			<rect x="2917" y="346" width="1763" height="1046"/>
		</clipPath>
	</defs>
	<g clip-path="url(#clip0)" transform="translate(-2917 -346)">
		<rect x="2918" y="347" width="1760" height="1043" fill="#FFFFFF" />
		<g>
			<path d="
			M3228.5 974.532 4296.5 974.532
			M3228.5 910.53 4296.5 910.53
			M3228.5 846.528 4296.5 846.528
			M3228.5 781.526 4296.5 781.526
			M3228.5 717.524 4296.5 717.524
			M3228.5 653.522 4296.5 653.522
			M3228.5 589.52 4296.5 589.52
			M3228.5 525.517 4296.5 525.517
			M3228.5 461.515 4296.5 461.515
			M3228.5 397.5 4296.5 397.5" stroke="#D9D9D9" stroke-width="3.4375" stroke-linejoin="round" stroke-miterlimit="10" fill="none" />
		</g>
		<g>
			<path d="M 1038.5 4296.5 1038.5" stroke="#D9D9D9" stroke-width="3.4375" stroke-linejoin="round" stroke-miterlimit="10" fill="none" fill-rule="evenodd" />
		</g>
		<g>
			<text fill="#595959" font-family="Verdana,Open Sans,DejaVu Sans,sans-serif" font-weight="400" font-size="41" transform="matrix(6.12323e-17 -1 1 6.12323e-17 3243.564697265625 1201.1401290893555)">21-Oct</text>
		</g>
		<g>
			<text fill="#595959" font-family="Verdana,Open Sans,DejaVu Sans,sans-serif" font-weight="400" font-size="41" transform="matrix(6.12323e-17 -1 1 6.12323e-17 3330.728351203763 1209.70849609375)">18-Nov</text>
		</g>
		<g>
			<text fill="#595959" font-family="Verdana,Open Sans,DejaVu Sans,sans-serif" font-weight="400" font-size="41" transform="matrix(6.12323e-17 -1 1 6.12323e-17 3417.9120246731504 1207.1259765625)">23-Dec</text>
		</g>
		<g>
			<text fill="#595959" font-family="Verdana,Open Sans,DejaVu Sans,sans-serif" font-weight="400" font-size="41" transform="matrix(6.12323e-17 -1 1 6.12323e-17 3508.7692821269134 1191.6909103393555)">20-Jan</text>
		</g>
		<g>
			<text fill="#595959" font-family="Verdana,Open Sans,DejaVu Sans,sans-serif" font-weight="400" font-size="41" transform="matrix(6.12323e-17 -1 1 6.12323e-17 3593.010084502551 1201.3203125)">17-Feb</text>
		</g>
		<g>
			<text fill="#595959" font-family="Verdana,Open Sans,DejaVu Sans,sans-serif" font-weight="400" font-size="41" transform="matrix(6.12323e-17 -1 1 6.12323e-17 3679.252840003189 1210.2890625)">17-Mar</text>
		</g>
		<g>
			<text fill="#595959" font-family="Verdana,Open Sans,DejaVu Sans,sans-serif" font-weight="400" font-size="41" transform="matrix(6.12323e-17 -1 1 6.12323e-17 3771.2412009725767 1201.5405197143555)">14-Apr</text>
		</g>
		<g>
			<text fill="#595959" font-family="Verdana,Open Sans,DejaVu Sans,sans-serif" font-weight="400" font-size="41" transform="matrix(6.12323e-17 -1 1 6.12323e-17 3858.555001395089 1214.75341796875)">12-May</text>
		</g>
		<g>
			<text fill="#595959" font-family="Verdana,Open Sans,DejaVu Sans,sans-serif" font-weight="400" font-size="41" transform="matrix(6.12323e-17 -1 1 6.12323e-17 3944.667629942602 1192.2914962768555)">16-Jun</text>
		</g>
		<g>
			<text fill="#595959" font-family="Verdana,Open Sans,DejaVu Sans,sans-serif" font-weight="400" font-size="41" transform="matrix(6.12323e-17 -1 1 6.12323e-17 4032.5820163026146 1177.2768478393555)">14-Jul</text>
		</g>
		<g>
			<text fill="#595959" font-family="Verdana,Open Sans,DejaVu Sans,sans-serif" font-weight="400" font-size="41" transform="matrix(6.12323e-17 -1 1 6.12323e-17 4119.955875318878 1206.90576171875)">11-Aug</text>
		</g>
		<g>
			<text fill="#595959" font-family="Verdana,Open Sans,DejaVu Sans,sans-serif" font-weight="400" font-size="41" transform="matrix(6.12323e-17 -1 1 6.12323e-17 4207.3097148038905 1204.38330078125)">08-Sep</text>
		</g>
		<g>
			<text fill="#595959" font-family="Verdana,Open Sans,DejaVu Sans,sans-serif" font-weight="400" font-size="41" transform="matrix(6.12323e-17 -1 1 6.12323e-17 4289.7687788982785 1201.1000900268555)">06-Oct</text>
		</g>
		<g>
			<text fill="#595959" font-family="Verdana,Open Sans,DejaVu Sans,sans-serif" font-weight="400" font-size="41" transform="matrix(1 0 0 1 3169.14111328125 1050)">0</text>
		</g>
		<g>
			<text fill="#595959" font-family="Verdana,Open Sans,DejaVu Sans,sans-serif" font-weight="400" font-size="41" transform="matrix(1 0 0 1 3088.6826171875 922)">3,158</text>
		</g>
		<g>
			<text fill="#595959" font-family="Verdana,Open Sans,DejaVu Sans,sans-serif" font-weight="400" font-size="41" transform="matrix(1 0 0 1 3089.02294921875 794)">6,316</text>
		</g>
		<g>
			<text fill="#595959" font-family="Verdana,Open Sans,DejaVu Sans,sans-serif" font-weight="400" font-size="41" transform="matrix(1 0 0 1 3087.62158203125 666)">9,474</text>
		</g>
		<g>
			<text fill="#595959" font-family="Verdana,Open Sans,DejaVu Sans,sans-serif" font-weight="400" font-size="41" transform="matrix(1 0 0 1 3067.2016677856445 538)">12,632</text>
		</g>
		<g>
			<text fill="#595959" font-family="Verdana,Open Sans,DejaVu Sans,sans-serif" font-weight="400" font-size="41" transform="matrix(1 0 0 1 3067.0415115356445 410)">15,790</text>
		</g>
		<g>
			<text fill="#595959" font-family="Verdana,Open Sans,DejaVu Sans,sans-serif" font-weight="400" font-size="41" transform="matrix(1 0 0 1 3556.97119140625 1321)">Week Commencing</text>
		</g>
		<g>
			<text fill="#595959" font-family="Verdana,Open Sans,DejaVu Sans,sans-serif" font-weight="400" font-size="46" transform="matrix(6.12323e-17 -1 1 6.12323e-17 3019.73 1011.673828125)">Number of Browser Profiles</text>
		</g>
		<rect x="2918.5" y="347.5" width="1760" height="1043" stroke="#D9D9D9" stroke-width="3.4375" stroke-linejoin="round" stroke-miterlimit="10" fill="none" />
		<g>
			<path d="M3228.5 1038 3250.295918367347 1038 3272.091836734694 1038 3293.887755102041 1038 3315.683673469388 1038 3337.4795918367345 1038 3359.2755102040815 1038 3381.0714285714284 1038 3402.8673469387754 1038 3424.6632653061224 1038 3446.4591836734694 1038 3468.2551020408164 1038 3490.0510204081634 1038 3511.8469387755104 1038 3533.6428571428573 1038 3555.4387755102043 1038 3577.234693877551 1038 3599.030612244898 1038 3620.826530612245 1038 3642.622448979592 1038 3664.418367346939 1038 3686.214285714286 1038 3708.0102040816328 1038 3729.8061224489797 1038 3751.6020408163267 1038 3773.3979591836733 1038 3795.1938775510203 1038 3816.9897959183672 1038 3838.785714285714 1038 3860.581632653061 1038 3882.377551020408 1038 3904.173469387755 1038 3925.969387755102 1038 3947.765306122449 1038 3969.5612244897957 1038 3991.357142857143 1038 4013.1530612244896 1038 4034.9489795918366 1038 4056.7448979591836 1038 4078.5408163265306 1038 4100.336734693878 1038 4122.132653061224 1038 4143.928571428572 1038 4165.724489795918 1038 4187.5204081632655 1038 4209.316326530612 1038 4231.1122448979595 1038 4252.908163265306 1038 4274.7040816326535 1038 4296.5 1038 4296.5 533.1336288790374 4274.7040816326535 534.025332488917 4252.908163265306 535.0791640278658 4231.1122448979595 536.4167194426852 4209.316326530612 537.1462951234959 4187.5204081632655 537.794806839772 4165.724489795918 539.0918302723243 4143.928571428572 539.9430018999367 4122.132653061224 540.8752374920837 4100.336734693878 541.8885370487651 4078.5408163265306 542.6991766941102 4056.7448979591836 543.4692843571881 4034.9489795918366 544.3609879670678 4013.1530612244896 544.7663077897403 3991.357142857143 545.7796073464217 3969.5612244897957 547.1171627612413 3947.765306122449 547.7251424952501 3925.969387755102 548.9005699810007 3904.173469387755 550.2786573780875 3882.377551020408 551.940468651045 3860.581632653061 553.0753641545282 3838.785714285714 554.1697276757441 3816.9897959183672 555.101963267891 3795.1938775510203 555.9531348955035 3773.3979591836733 556.9259024699177 3751.6020408163267 557.8176060797973 3729.8061224489797 559.3172894236859 3708.0102040816328 559.965801139962 3686.214285714286 560.6143128562381 3664.418367346939 561.384420519316 3642.622448979592 562.478784040532 3620.826530612245 563.6136795440152 3599.030612244898 564.5053831538949 3577.234693877551 565.0728309056365 3555.4387755102043 566.0050664977834 3533.6428571428573 567.3831538948702 3511.8469387755104 567.991133628879 3490.0510204081634 568.6801773274224 3468.2551020408164 569.1665611146295 3446.4591836734694 569.8961367954402 3424.6632653061224 570.3825205826472 3402.8673469387754 570.6662444585181 3381.0714285714284 571.598480050665 3359.2755102040815 572.2875237492083 3337.4795918367345 573.8277390753642 3315.683673469388 574.8410386320456 3293.887755102041 575.4490183660545 3272.091836734694 576.0569981000633 3250.295918367347 576.948701709943 3228.5 577.6782773907537 3228.5 1038Z" fill="#e62d39" opacity="0.9" />
		</g>
		<g>
			<path d="M3228.5 577.6782773907537 3250.295918367347 576.948701709943 3272.091836734694 576.0569981000633 3293.887755102041 575.4490183660545 3315.683673469388 574.8410386320456 3337.4795918367345 573.8277390753642 3359.2755102040815 572.2875237492083 3381.0714285714284 571.598480050665 3402.8673469387754 570.6662444585181 3424.6632653061224 570.3825205826472 3446.4591836734694 569.8961367954402 3468.2551020408164 569.1665611146295 3490.0510204081634 568.6801773274224 3511.8469387755104 567.991133628879 3533.6428571428573 567.3831538948702 3555.4387755102043 566.0050664977834 3577.234693877551 565.0728309056365 3599.030612244898 564.5053831538949 3620.826530612245 563.6136795440152 3642.622448979592 562.478784040532 3664.418367346939 561.384420519316 3686.214285714286 560.6143128562381 3708.0102040816328 559.965801139962 3729.8061224489797 559.3172894236859 3751.6020408163267 557.8176060797973 3773.3979591836733 556.9259024699177 3795.1938775510203 555.9531348955035 3816.9897959183672 555.101963267891 3838.785714285714 554.1697276757441 3860.581632653061 553.0753641545282 3882.377551020408 551.940468651045 3904.173469387755 550.2786573780875 3925.969387755102 548.9005699810007 3947.765306122449 547.7251424952501 3969.5612244897957 547.1171627612413 3991.357142857143 545.7796073464217 4013.1530612244896 544.7663077897403 4034.9489795918366 544.3609879670678 4056.7448979591836 543.4692843571881 4078.5408163265306 542.6991766941102 4100.336734693878 541.8885370487651 4122.132653061224 540.8752374920837 4143.928571428572 539.9430018999367 4165.724489795918 539.0918302723243 4187.5204081632655 537.794806839772 4209.316326530612 537.1462951234959 4231.1122448979595 536.4167194426852 4252.908163265306 535.0791640278658 4274.7040816326535 534.025332488917 4296.5 533.1336288790374 4296.5 398 4274.7040816326535 399.17542748575045 4252.908163265306 400.350854971501 4231.1122448979595 401.8910702976567 4209.316326530612 402.78277390753635 4187.5204081632655 403.5934135528816 4165.724489795918 404.97150094996834 4143.928571428572 406.02533248891706 4122.132653061224 407.03863204559855 4100.336734693878 408.4167194426853 4078.5408163265306 409.3084230525649 4056.7448979591836 410.3217226092464 4034.9489795918366 411.33502216592785 4013.1530612244896 412.02406586447114 3991.357142857143 413.3616212792906 3969.5612244897957 414.9018366054465 3947.765306122449 415.63141228625705 3925.969387755102 416.9284357188094 3904.173469387755 418.428119062698 3882.377551020408 420.6573780873971 3860.581632653061 421.99493350221655 3838.785714285714 423.332488917036 3816.9897959183672 424.426852438252 3795.1938775510203 425.3996200126662 3773.3979591836733 426.5750474984167 3751.6020408163267 427.62887903736544 3729.8061224489797 429.33122229259027 3708.0102040816328 430.1823939202026 3686.214285714286 430.9119696010133 3664.418367346939 431.80367321089295 3642.622448979592 433.222292590247 3620.826530612245 434.478784040532 3599.030612244898 435.4920835972134 3577.234693877551 436.30272324255856 3555.4387755102043 437.47815072830906 3533.6428571428573 439.01836605446493 3511.8469387755104 439.7884737175427 3490.0510204081634 440.7207093096896 3468.2551020408164 441.4097530082331 3446.4591836734694 442.26092463584547 3424.6632653061224 442.7878404053198 3402.8673469387754 443.0715642811907 3381.0714285714284 444.1659278024066 3359.2755102040815 445.0576314122862 3337.4795918367345 446.8815706143129 3315.683673469388 448.1380620645979 3293.887755102041 448.948701709943 3272.091836734694 450.28625712476247 3250.295918367347 451.3806206459784 3228.5 452.27232425585817 3228.5 577.6782773907537Z" fill="#005aa6" opacity="0.9" />
		</g>
		<g>
			<rect x="4372" y="431" width="22.9995" height="23" fill="#e62d39" />
		</g>
		<g>
			<text fill="#595959" font-family="Verdana,Open Sans,DejaVu Sans,sans-serif" font-weight="400" font-size="41" transform="matrix(1 0 0 1 4404.56 454)">Web Browser</text>
		</g>
		<g>
			<rect x="4372" y="508" width="22.9995" height="23" fill="#005aa6" />
		</g>
		<g>
			<text fill="#595959" font-family="Verdana,Open Sans,DejaVu Sans,sans-serif" font-weight="400" font-size="41" transform="matrix(1 0 0 1 4404.56 531)">App</text>
		</g>
	</g>
</svg>
