<svg width="1763" height="1046"
    xmlns="http://www.w3.org/2000/svg"
	xmlns:xlink="http://www.w3.org/1999/xlink" xml:space="preserve" overflow="hidden">
	<defs>
		<clipPath id="clip0">
			<rect x="2917" y="346" width="1763" height="1046"/>
		</clipPath>
	</defs>
	<g clip-path="url(#clip0)" transform="translate(-2917 -346)">
		<rect x="2918" y="347" width="1760" height="1043" fill="#FFFFFF" />
		<g>
			<path d="
			M3228.5 974.532 4296.5 974.532
			M3228.5 910.53 4296.5 910.53
			M3228.5 846.528 4296.5 846.528
			M3228.5 781.526 4296.5 781.526
			M3228.5 717.524 4296.5 717.524
			M3228.5 653.522 4296.5 653.522
			M3228.5 589.52 4296.5 589.52
			M3228.5 525.517 4296.5 525.517
			M3228.5 461.515 4296.5 461.515
			M3228.5 397.5 4296.5 397.5" stroke="#D9D9D9" stroke-width="3.4375" stroke-linejoin="round" stroke-miterlimit="10" fill="none" />
		</g>
		<g>
			<path d="M 1038.5 4296.5 1038.5" stroke="#D9D9D9" stroke-width="3.4375" stroke-linejoin="round" stroke-miterlimit="10" fill="none" fill-rule="evenodd" />
		</g>
		<g>
			<text fill="#595959" font-family="Verdana,sans-serif" font-weight="400" font-size="41" transform="matrix(6.12323e-17 -1 1 6.12323e-17 3244.5 1210)">22-Jan</text>
		</g>
		<g>
			<text fill="#595959" font-family="Verdana,sans-serif" font-weight="400" font-size="41" transform="matrix(6.12323e-17 -1 1 6.12323e-17 3328.264705882353 1214)">19-Feb</text>
		</g>
		<g>
			<text fill="#595959" font-family="Verdana,sans-serif" font-weight="400" font-size="41" transform="matrix(6.12323e-17 -1 1 6.12323e-17 3412.029411764706 1221)">18-Mar</text>
		</g>
		<g>
			<text fill="#595959" font-family="Verdana,sans-serif" font-weight="400" font-size="41" transform="matrix(6.12323e-17 -1 1 6.12323e-17 3499.294117647059 1214)">15-Apr</text>
		</g>
		<g>
			<text fill="#595959" font-family="Verdana,sans-serif" font-weight="400" font-size="41" transform="matrix(6.12323e-17 -1 1 6.12323e-17 3583.0588235294117 1226)">13-May</text>
		</g>
		<g>
			<text fill="#595959" font-family="Verdana,sans-serif" font-weight="400" font-size="41" transform="matrix(6.12323e-17 -1 1 6.12323e-17 3663.323529411765 1209)">10-Jun</text>
		</g>
		<g>
			<text fill="#595959" font-family="Verdana,sans-serif" font-weight="400" font-size="41" transform="matrix(6.12323e-17 -1 1 6.12323e-17 3747.0882352941176 1197)">08-Jul</text>
		</g>
		<g>
			<text fill="#595959" font-family="Verdana,sans-serif" font-weight="400" font-size="41" transform="matrix(6.12323e-17 -1 1 6.12323e-17 3834.3529411764707 1221)">05-Aug</text>
		</g>
		<g>
			<text fill="#595959" font-family="Verdana,sans-serif" font-weight="400" font-size="41" transform="matrix(6.12323e-17 -1 1 6.12323e-17 3918.1176470588234 1222)">02-Sep</text>
		</g>
		<g>
			<text fill="#595959" font-family="Verdana,sans-serif" font-weight="400" font-size="41" transform="matrix(6.12323e-17 -1 1 6.12323e-17 4001.8823529411766 1221)">30-Sep</text>
		</g>
		<g>
			<text fill="#595959" font-family="Verdana,sans-serif" font-weight="400" font-size="41" transform="matrix(6.12323e-17 -1 1 6.12323e-17 4082.1470588235293 1215)">28-Oct</text>
		</g>
		<g>
			<text fill="#595959" font-family="Verdana,sans-serif" font-weight="400" font-size="41" transform="matrix(6.12323e-17 -1 1 6.12323e-17 4165.911764705882 1224)">25-Nov</text>
		</g>
		<g>
			<text fill="#595959" font-family="Verdana,sans-serif" font-weight="400" font-size="41" transform="matrix(6.12323e-17 -1 1 6.12323e-17 4249.676470588235 1222)">30-Dec</text>
		</g>
		<g>
			<text fill="#595959" font-family="Verdana,sans-serif" font-weight="400" font-size="41" transform="matrix(1 0 0 1 3167.5 1050)">0</text>
		</g>
		<g>
			<text fill="#595959" font-family="Verdana,sans-serif" font-weight="400" font-size="41" transform="matrix(1 0 0 1 3074.5 922)">2,947</text>
		</g>
		<g>
			<text fill="#595959" font-family="Verdana,sans-serif" font-weight="400" font-size="41" transform="matrix(1 0 0 1 3074.5 794)">5,894</text>
		</g>
		<g>
			<text fill="#595959" font-family="Verdana,sans-serif" font-weight="400" font-size="41" transform="matrix(1 0 0 1 3073.5 666)">8,842</text>
		</g>
		<g>
			<text fill="#595959" font-family="Verdana,sans-serif" font-weight="400" font-size="41" transform="matrix(1 0 0 1 3051.5 538)">11,789</text>
		</g>
		<g>
			<text fill="#595959" font-family="Verdana,sans-serif" font-weight="400" font-size="41" transform="matrix(1 0 0 1 3050.5 410)">14,736</text>
		</g>
		<g>
			<text fill="#595959" font-family="Verdana,sans-serif" font-weight="400" font-size="41" transform="matrix(1 0 0 1 3544.5 1321)">Week Commencing</text>
		</g>
		<g>
			<text fill="#595959" font-family="Verdana,sans-serif" font-weight="400" font-size="46" transform="matrix(6.12323e-17 -1 1 6.12323e-17 3019.73 1030.75)">Number of Browser Profiles</text>
		</g>
		<rect x="2918.5" y="347.5" width="1760" height="1043" stroke="#D9D9D9" stroke-width="3.4375" stroke-linejoin="round" stroke-miterlimit="10" fill="none" />
		<g>
			<path d="M3228.5 1038 3249.4411764705883 1038 3270.3823529411766 1038 3291.323529411765 1038 3312.264705882353 1038 3333.205882352941 1038 3354.1470588235293 1038 3375.0882352941176 1038 3396.029411764706 1038 3416.970588235294 1038 3437.9117647058824 1038 3458.8529411764707 1038 3479.794117647059 1038 3500.735294117647 1038 3521.676470588235 1038 3542.6176470588234 1038 3563.5588235294117 1038 3584.5 1038 3605.4411764705883 1038 3626.3823529411766 1038 3647.323529411765 1038 3668.264705882353 1038 3689.205882352941 1038 3710.1470588235293 1038 3731.0882352941176 1038 3752.029411764706 1038 3772.970588235294 1038 3793.9117647058824 1038 3814.8529411764707 1038 3835.7941176470586 1038 3856.735294117647 1038 3877.676470588235 1038 3898.6176470588234 1038 3919.5588235294117 1038 3940.5 1038 3961.4411764705883 1038 3982.3823529411766 1038 4003.323529411765 1038 4024.264705882353 1038 4045.2058823529414 1038 4066.1470588235293 1038 4087.0882352941176 1038 4108.029411764706 1038 4128.970588235294 1038 4149.911764705882 1038 4170.85294117647 1038 4191.794117647059 1038 4212.735294117647 1038 4233.676470588235 1038 4254.617647058823 1038 4275.558823529412 1038 4296.5 1038 4296.5 535.1118349619978 4275.558823529412 535.6330076004343 4254.617647058823 536.414766558089 4233.676470588235 536.9359391965255 4212.735294117647 537.2399565689468 4191.794117647059 538.2388707926168 4170.85294117647 538.9771986970684 4149.911764705882 540.627578718784 4128.970588235294 541.71335504886 4108.029411764706 542.3648208469056 4087.0882352941176 543.0162866449512 4066.1470588235293 543.971769815418 4045.2058823529414 544.7535287730727 4024.264705882353 545.4918566775244 4003.323529411765 546.4039087947883 3982.3823529411766 547.7937024972855 3961.4411764705883 548.228013029316 3940.5 549.3572204125951 3919.5588235294117 550.3127035830619 3898.6176470588234 550.9641693811075 3877.676470588235 551.9196525515745 3856.735294117647 552.4842562432138 3835.7941176470586 553.0922909880564 3814.8529411764707 554.0477741585233 3793.9117647058824 554.8729641693811 3772.970588235294 555.6547231270358 3752.029411764706 556.2193268186754 3731.0882352941176 556.6536373507058 3710.1470588235293 557.0879478827362 3689.205882352941 558.1302931596092 3668.264705882353 558.8686210640608 3647.323529411765 559.6069489685125 3626.3823529411766 560.7361563517916 3605.4411764705883 561.8219326818676 3584.5 562.8208469055375 3563.5588235294117 563.298588490771 3542.6176470588234 563.8631921824104 3521.676470588235 564.5580890336591 3500.735294117647 565.8610206297503 3479.794117647059 567.0336590662323 3458.8529411764707 568.2062975027145 3437.9117647058824 569.6395222584148 3416.970588235294 570.7252985884908 3396.029411764706 571.7242128121607 3375.0882352941176 572.7665580890337 3354.1470588235293 574.112920738328 3333.205882352941 576.327904451683 3312.264705882353 576.7622149837134 3291.323529411765 577.1096634093377 3270.3823529411766 578.9771986970684 3249.4411764705883 580.8881650380022 3228.5 581.4093376764387 3228.5 1038Z" fill="#e62d39" opacity="0.9" />
		</g>
		<g>
			<path d="M3228.5 581.4093376764387 3249.4411764705883 580.8881650380022 3270.3823529411766 578.9771986970684 3291.323529411765 577.1096634093377 3312.264705882353 576.7622149837134 3333.205882352941 576.327904451683 3354.1470588235293 574.112920738328 3375.0882352941176 572.7665580890337 3396.029411764706 571.7242128121607 3416.970588235294 570.7252985884908 3437.9117647058824 569.6395222584148 3458.8529411764707 568.2062975027145 3479.794117647059 567.0336590662323 3500.735294117647 565.8610206297503 3521.676470588235 564.5580890336591 3542.6176470588234 563.8631921824104 3563.5588235294117 563.298588490771 3584.5 562.8208469055375 3605.4411764705883 561.8219326818676 3626.3823529411766 560.7361563517916 3647.323529411765 559.6069489685125 3668.264705882353 558.8686210640608 3689.205882352941 558.1302931596092 3710.1470588235293 557.0879478827362 3731.0882352941176 556.6536373507058 3752.029411764706 556.2193268186754 3772.970588235294 555.6547231270358 3793.9117647058824 554.8729641693811 3814.8529411764707 554.0477741585233 3835.7941176470586 553.0922909880564 3856.735294117647 552.4842562432138 3877.676470588235 551.9196525515745 3898.6176470588234 550.9641693811075 3919.5588235294117 550.3127035830619 3940.5 549.3572204125951 3961.4411764705883 548.228013029316 3982.3823529411766 547.7937024972855 4003.323529411765 546.4039087947883 4024.264705882353 545.4918566775244 4045.2058823529414 544.7535287730727 4066.1470588235293 543.971769815418 4087.0882352941176 543.0162866449512 4108.029411764706 542.3648208469056 4128.970588235294 541.71335504886 4149.911764705882 540.627578718784 4170.85294117647 538.9771986970684 4191.794117647059 538.2388707926168 4212.735294117647 537.2399565689468 4233.676470588235 536.9359391965255 4254.617647058823 536.414766558089 4275.558823529412 535.6330076004343 4296.5 535.1118349619978 4296.5 398 4275.558823529412 398.7383279044517 4254.617647058823 399.6503800217155 4233.676470588235 400.2149837133551 4212.735294117647 400.5190010857764 4191.794117647059 401.69163952225847 4170.85294117647 402.64712269272525 4149.911764705882 404.60152008686214 4128.970588235294 405.94788273615643 4108.029411764706 406.8165038002172 4087.0882352941176 408.2497285559175 4066.1470588235293 409.4223669923996 4045.2058823529414 410.3778501628665 4024.264705882353 411.28990228013026 4003.323529411765 412.3322475570033 3982.3823529411766 413.85233441910964 3961.4411764705883 414.46036916395224 3940.5 415.89359391965263 3919.5588235294117 417.0662323561346 3898.6176470588234 417.8914223669924 3877.676470588235 419.0640608034746 3856.735294117647 419.7155266015201 3835.7941176470586 420.6275787187839 3814.8529411764707 421.66992399565686 3793.9117647058824 422.66883821932686 3772.970588235294 423.58089033659064 3752.029411764706 424.14549402823025 3731.0882352941176 424.66666666666674 3710.1470588235293 425.40499457111844 3689.205882352941 426.6210640608036 3668.264705882353 427.5331161780673 3647.323529411765 428.4885993485342 3626.3823529411766 429.9218241042346 3605.4411764705883 431.2247557003258 3584.5 432.35396308360475 3563.5588235294117 433.00542888165046 3542.6176470588234 433.70032573289905 3521.676470588235 434.52551574375684 3500.735294117647 436.0456026058632 3479.794117647059 437.4353963083604 3458.8529411764707 438.8251900108578 3437.9117647058824 440.5190010857764 3416.970588235294 441.82193268186757 3396.029411764706 443.42888165038 3375.0882352941176 444.9923995656895 3354.1470588235293 446.3821932681868 3333.205882352941 448.8577633007601 3312.264705882353 449.33550488599354 3291.323529411765 449.85667752443 3270.3823529411766 451.9847991313789 3249.4411764705883 454.02605863192184 3228.5 454.67752442996743 3228.5 581.4093376764387Z" fill="#005aa6" opacity="0.9" />
		</g>
		<g>
			<rect x="4372" y="431" width="22.9995" height="23" fill="#e62d39" />
		</g>
		<g>
			<text fill="#595959" font-family="Verdana,sans-serif" font-weight="400" font-size="41" transform="matrix(1 0 0 1 4404.56 454)">Web Browser</text>
		</g>
		<g>
			<rect x="4372" y="508" width="22.9995" height="23" fill="#005aa6" />
		</g>
		<g>
			<text fill="#595959" font-family="Verdana,sans-serif" font-weight="400" font-size="41" transform="matrix(1 0 0 1 4404.56 531)">App</text>
		</g>
	</g>
</svg>
