<svg width="1763" height="1046"
    xmlns="http://www.w3.org/2000/svg"
	xmlns:xlink="http://www.w3.org/1999/xlink" xml:space="preserve" overflow="hidden">
	<defs>
		<clipPath id="clip0">
			<rect x="2917" y="346" width="1763" height="1046"/>
		</clipPath>
	</defs>
	<g clip-path="url(#clip0)" transform="translate(-2917 -346)">
		<rect x="2918" y="347" width="1760" height="1043" fill="#FFFFFF" />
		<g>
			<path d="
			M3228.5 974.532 4296.5 974.532
			M3228.5 910.53 4296.5 910.53
			M3228.5 846.528 4296.5 846.528
			M3228.5 781.526 4296.5 781.526
			M3228.5 717.524 4296.5 717.524
			M3228.5 653.522 4296.5 653.522
			M3228.5 589.52 4296.5 589.52
			M3228.5 525.517 4296.5 525.517
			M3228.5 461.515 4296.5 461.515
			M3228.5 397.5 4296.5 397.5" stroke="#D9D9D9" stroke-width="3.4375" stroke-linejoin="round" stroke-miterlimit="10" fill="none" />
		</g>
		<g>
			<path d="M 1038.5 4296.5 1038.5" stroke="#D9D9D9" stroke-width="3.4375" stroke-linejoin="round" stroke-miterlimit="10" fill="none" fill-rule="evenodd" />
		</g>
		<g>
			<text fill="#595959" font-family="Verdana,Open Sans,DejaVu Sans,sans-serif" font-weight="400" font-size="41" transform="matrix(6.12323e-17 -1 1 6.12323e-17 3247.1982421875 1192.2914962768555)">16-Jun</text>
		</g>
		<g>
			<text fill="#595959" font-family="Verdana,Open Sans,DejaVu Sans,sans-serif" font-weight="400" font-size="41" transform="matrix(6.12323e-17 -1 1 6.12323e-17 3331.693660960478 1177.2768478393555)">14-Jul</text>
		</g>
		<g>
			<text fill="#595959" font-family="Verdana,Open Sans,DejaVu Sans,sans-serif" font-weight="400" font-size="41" transform="matrix(6.12323e-17 -1 1 6.12323e-17 3415.648552389706 1206.90576171875)">11-Aug</text>
		</g>
		<g>
			<text fill="#595959" font-family="Verdana,Open Sans,DejaVu Sans,sans-serif" font-weight="400" font-size="41" transform="matrix(6.12323e-17 -1 1 6.12323e-17 3499.583424287684 1204.38330078125)">08-Sep</text>
		</g>
		<g>
			<text fill="#595959" font-family="Verdana,Open Sans,DejaVu Sans,sans-serif" font-weight="400" font-size="41" transform="matrix(6.12323e-17 -1 1 6.12323e-17 3578.6235207950367 1201.1000900268555)">06-Oct</text>
		</g>
		<g>
			<text fill="#595959" font-family="Verdana,Open Sans,DejaVu Sans,sans-serif" font-weight="400" font-size="41" transform="matrix(6.12323e-17 -1 1 6.12323e-17 3662.38822667739 1211.43017578125)">03-Nov</text>
		</g>
		<g>
			<text fill="#595959" font-family="Verdana,Open Sans,DejaVu Sans,sans-serif" font-weight="400" font-size="41" transform="matrix(6.12323e-17 -1 1 6.12323e-17 3746.1529325597426 1207.0859375)">01-Dec</text>
		</g>
		<g>
			<text fill="#595959" font-family="Verdana,Open Sans,DejaVu Sans,sans-serif" font-weight="400" font-size="41" transform="matrix(6.12323e-17 -1 1 6.12323e-17 3829.8976189108457 1207.1259765625)">29-Dec</text>
		</g>
		<g>
			<text fill="#595959" font-family="Verdana,Open Sans,DejaVu Sans,sans-serif" font-weight="400" font-size="41" transform="matrix(6.12323e-17 -1 1 6.12323e-17 3917.3158892463234 1191.6909103393555)">26-Jan</text>
		</g>
		<g>
			<text fill="#595959" font-family="Verdana,Open Sans,DejaVu Sans,sans-serif" font-weight="400" font-size="41" transform="matrix(6.12323e-17 -1 1 6.12323e-17 3998.1577435661766 1203.08203125)">23-Feb</text>
		</g>
		<g>
			<text fill="#595959" font-family="Verdana,Open Sans,DejaVu Sans,sans-serif" font-weight="400" font-size="41" transform="matrix(6.12323e-17 -1 1 6.12323e-17 4081.1917365579043 1212.05078125)">23-Mar</text>
		</g>
		<g>
			<text fill="#595959" font-family="Verdana,Open Sans,DejaVu Sans,sans-serif" font-weight="400" font-size="41" transform="matrix(6.12323e-17 -1 1 6.12323e-17 4169.701071346507 1203.3022384643555)">20-Apr</text>
		</g>
		<g>
			<text fill="#595959" font-family="Verdana,Open Sans,DejaVu Sans,sans-serif" font-weight="400" font-size="41" transform="matrix(6.12323e-17 -1 1 6.12323e-17 4253.44575769761 1214.75341796875)">18-May</text>
		</g>
		<g>
			<text fill="#595959" font-family="Verdana,Open Sans,DejaVu Sans,sans-serif" font-weight="400" font-size="41" transform="matrix(1 0 0 1 3169.14111328125 1050)">0</text>
		</g>
		<g>
			<text fill="#595959" font-family="Verdana,Open Sans,DejaVu Sans,sans-serif" font-weight="400" font-size="41" transform="matrix(1 0 0 1 3088.6826171875 922)">3,348</text>
		</g>
		<g>
			<text fill="#595959" font-family="Verdana,Open Sans,DejaVu Sans,sans-serif" font-weight="400" font-size="41" transform="matrix(1 0 0 1 3089.10302734375 794)">6,697</text>
		</g>
		<g>
			<text fill="#595959" font-family="Verdana,Open Sans,DejaVu Sans,sans-serif" font-weight="400" font-size="41" transform="matrix(1 0 0 1 3067.3618240356445 666)">10,045</text>
		</g>
		<g>
			<text fill="#595959" font-family="Verdana,Open Sans,DejaVu Sans,sans-serif" font-weight="400" font-size="41" transform="matrix(1 0 0 1 3065.8203201293945 538)">13,394</text>
		</g>
		<g>
			<text fill="#595959" font-family="Verdana,Open Sans,DejaVu Sans,sans-serif" font-weight="400" font-size="41" transform="matrix(1 0 0 1 3067.2016677856445 410)">16,742</text>
		</g>
		<g>
			<text fill="#595959" font-family="Verdana,Open Sans,DejaVu Sans,sans-serif" font-weight="400" font-size="41" transform="matrix(1 0 0 1 3556.97119140625 1321)">Week Commencing</text>
		</g>
		<g>
			<text fill="#595959" font-family="Verdana,Open Sans,DejaVu Sans,sans-serif" font-weight="400" font-size="46" transform="matrix(6.12323e-17 -1 1 6.12323e-17 3019.73 1011.673828125)">Number of Browser Profiles</text>
		</g>
		<rect x="2918.5" y="347.5" width="1760" height="1043" stroke="#D9D9D9" stroke-width="3.4375" stroke-linejoin="round" stroke-miterlimit="10" fill="none" />
		<g>
			<path d="M3228.5 1038 3249.4411764705883 1038 3270.3823529411766 1038 3291.323529411765 1038 3312.264705882353 1038 3333.205882352941 1038 3354.1470588235293 1038 3375.0882352941176 1038 3396.029411764706 1038 3416.970588235294 1038 3437.9117647058824 1038 3458.8529411764707 1038 3479.794117647059 1038 3500.735294117647 1038 3521.676470588235 1038 3542.6176470588234 1038 3563.5588235294117 1038 3584.5 1038 3605.4411764705883 1038 3626.3823529411766 1038 3647.323529411765 1038 3668.264705882353 1038 3689.205882352941 1038 3710.1470588235293 1038 3731.0882352941176 1038 3752.029411764706 1038 3772.970588235294 1038 3793.9117647058824 1038 3814.8529411764707 1038 3835.7941176470586 1038 3856.735294117647 1038 3877.676470588235 1038 3898.6176470588234 1038 3919.5588235294117 1038 3940.5 1038 3961.4411764705883 1038 3982.3823529411766 1038 4003.323529411765 1038 4024.264705882353 1038 4045.2058823529414 1038 4066.1470588235293 1038 4087.0882352941176 1038 4108.029411764706 1038 4128.970588235294 1038 4149.911764705882 1038 4170.85294117647 1038 4191.794117647059 1038 4212.735294117647 1038 4233.676470588235 1038 4254.617647058823 1038 4275.558823529412 1038 4296.5 1038 4296.5 533.1331979452873 4275.558823529412 534.0888782702186 4254.617647058823 534.6622864651774 4233.676470588235 535.2356946601362 4212.735294117647 536.420738263051 4191.794117647059 536.9941464580098 4170.85294117647 537.7969179309521 4149.911764705882 538.8672798948752 4128.970588235294 539.7082785808147 4108.029411764706 540.7404133317406 4087.0882352941176 541.7343208696691 4066.1470588235293 542.7282284075977 4045.2058823529414 544.2190897144906 4024.264705882353 544.9454067614383 4003.323529411765 545.8628598733724 3982.3823529411766 546.5127224943258 3961.4411764705883 547.6213116712461 3940.5 548.6152192091746 3919.5588235294117 549.1504001911361 3898.6176470588234 549.9531716640784 3877.676470588235 550.6794887110261 3856.735294117647 551.4822601839685 3835.7941176470586 551.6351690359575 3814.8529411764707 552.0938955919246 3793.9117647058824 552.6290765738861 3772.970588235294 553.6229841118146 3752.029411764706 554.8462549277267 3731.0882352941176 556.4517978736113 3710.1470588235293 556.7576155775894 3689.205882352941 557.8279775415124 3668.264705882353 558.4396129494685 3647.323529411765 559.8540198303667 3626.3823529411766 560.4274280253255 3605.4411764705883 561.7271532672321 3584.5 561.8418349062239 3563.5588235294117 562.6828335921634 3542.6176470588234 563.6767411300921 3521.676470588235 564.9382391590013 3500.735294117647 565.6263289929518 3479.794117647059 566.2379644009079 3458.8529411764707 567.46123521682 3437.9117647058824 568.2640066897623 3416.970588235294 569.1432325886991 3396.029411764706 570.0989129136304 3375.0882352941176 570.8634571735754 3354.1470588235293 571.5897742205233 3333.205882352941 572.4307729064628 3312.264705882353 572.8130450364354 3291.323529411765 573.7687253613667 3270.3823529411766 575.030223390276 3249.4411764705883 575.6036315852348 3228.5 576.7122207621551 3228.5 1038Z" fill="#005aa6" opacity="0.9" />
		</g>
		<g>
			<path d="M3228.5 576.7122207621551 3249.4411764705883 575.6036315852348 3270.3823529411766 575.030223390276 3291.323529411765 573.7687253613667 3312.264705882353 572.8130450364354 3333.205882352941 572.4307729064628 3354.1470588235293 571.5897742205233 3375.0882352941176 570.8634571735754 3396.029411764706 570.0989129136304 3416.970588235294 569.1432325886991 3437.9117647058824 568.2640066897623 3458.8529411764707 567.46123521682 3479.794117647059 566.2379644009079 3500.735294117647 565.6263289929518 3521.676470588235 564.9382391590013 3542.6176470588234 563.6767411300921 3563.5588235294117 562.6828335921634 3584.5 561.8418349062239 3605.4411764705883 561.7271532672321 3626.3823529411766 560.4274280253255 3647.323529411765 559.8540198303667 3668.264705882353 558.4396129494685 3689.205882352941 557.8279775415124 3710.1470588235293 556.7576155775894 3731.0882352941176 556.4517978736113 3752.029411764706 554.8462549277267 3772.970588235294 553.6229841118146 3793.9117647058824 552.6290765738861 3814.8529411764707 552.0938955919246 3835.7941176470586 551.6351690359575 3856.735294117647 551.4822601839685 3877.676470588235 550.6794887110261 3898.6176470588234 549.9531716640784 3919.5588235294117 549.1504001911361 3940.5 548.6152192091746 3961.4411764705883 547.6213116712461 3982.3823529411766 546.5127224943258 4003.323529411765 545.8628598733724 4024.264705882353 544.9454067614383 4045.2058823529414 544.2190897144906 4066.1470588235293 542.7282284075977 4087.0882352941176 541.7343208696691 4108.029411764706 540.7404133317406 4128.970588235294 539.7082785808147 4149.911764705882 538.8672798948752 4170.85294117647 537.7969179309521 4191.794117647059 536.9941464580098 4212.735294117647 536.420738263051 4233.676470588235 535.2356946601362 4254.617647058823 534.6622864651774 4275.558823529412 534.0888782702186 4296.5 533.1331979452873 4296.5 398 4275.558823529412 399.2997252419066 4254.617647058823 399.98781507585716 4233.676470588235 400.90526818779125 4212.735294117647 402.2814478556923 4191.794117647059 403.2753553936209 4170.85294117647 404.2310357185521 4149.911764705882 405.56898817345603 4128.970588235294 406.6011229243818 4108.029411764706 407.9008481662884 4087.0882352941176 409.0858917692032 4066.1470588235293 410.3473897981126 4045.2058823529414 412.2587504479752 4024.264705882353 413.137976346912 4003.323529411765 414.36124716282404 3982.3823529411766 415.39338191375 3961.4411764705883 416.80778879464833 3940.5 417.9928323975631 3919.5588235294117 418.7191494445109 3898.6176470588234 420.28646517739816 3877.676470588235 421.08923665034047 3856.735294117647 422.0449169752718 3835.7941176470586 422.23605304025807 3814.8529411764707 422.7712340222197 3793.9117647058824 423.3064150041812 3772.970588235294 424.6061402460877 3752.029411764706 426.0587743399833 3731.0882352941176 427.8554533508542 3710.1470588235293 428.428861545813 3689.205882352941 429.72858678771956 3668.264705882353 430.4549038346674 3647.323529411765 432.02221956755466 3626.3823529411766 432.7867638274997 3605.4411764705883 434.23939792139527 3584.5 434.39230677338435 3563.5588235294117 435.50089595030465 3542.6176470588234 436.60948512722507 3521.676470588235 438.06211922112055 3500.735294117647 438.90311790706005 3479.794117647059 439.6676621670052 3458.8529411764707 440.96738740891175 3437.9117647058824 441.96129494684027 3416.970588235294 442.91697527177166 3396.029411764706 444.21670051367823 3375.0882352941176 445.0576991996177 3354.1470588235293 446.0133795245491 3333.205882352941 446.9690598494804 3312.264705882353 447.6189224704337 3291.323529411765 448.8804204993431 3270.3823529411766 450.3330545932386 3249.4411764705883 451.02114442718914 3228.5 452.24441524310123 3228.5 576.7122207621551Z" fill="#e62d39" opacity="0.9" />
		</g>
		<g>
			<rect x="4372" y="431" width="22.9995" height="23" fill="#005aa6" />
		</g>
		<g>
			<text fill="#595959" font-family="Verdana,Open Sans,DejaVu Sans,sans-serif" font-weight="400" font-size="41" transform="matrix(1 0 0 1 4404.56 454)">Web Browser</text>
		</g>
		<g>
			<rect x="4372" y="508" width="22.9995" height="23" fill="#e62d39" />
		</g>
		<g>
			<text fill="#595959" font-family="Verdana,Open Sans,DejaVu Sans,sans-serif" font-weight="400" font-size="41" transform="matrix(1 0 0 1 4404.56 531)">App</text>
		</g>
	</g>
</svg>
