<svg width="1763" height="1046"
    xmlns="http://www.w3.org/2000/svg"
	xmlns:xlink="http://www.w3.org/1999/xlink" xml:space="preserve" overflow="hidden">
	<defs>
		<clipPath id="clip0">
			<rect x="2917" y="346" width="1763" height="1046"/>
		</clipPath>
	</defs>
	<g clip-path="url(#clip0)" transform="translate(-2917 -346)">
		<rect x="2918" y="347" width="1760" height="1043" fill="#FFFFFF" />
		<g>
			<path d="
			M3228.5 974.532 4296.5 974.532
			M3228.5 910.53 4296.5 910.53
			M3228.5 846.528 4296.5 846.528
			M3228.5 781.526 4296.5 781.526
			M3228.5 717.524 4296.5 717.524
			M3228.5 653.522 4296.5 653.522
			M3228.5 589.52 4296.5 589.52
			M3228.5 525.517 4296.5 525.517
			M3228.5 461.515 4296.5 461.515
			M3228.5 397.5 4296.5 397.5" stroke="#D9D9D9" stroke-width="3.4375" stroke-linejoin="round" stroke-miterlimit="10" fill="none" />
		</g>
		<g>
			<path d="M 1038.5 4296.5 1038.5" stroke="#D9D9D9" stroke-width="3.4375" stroke-linejoin="round" stroke-miterlimit="10" fill="none" fill-rule="evenodd" />
		</g>
		<g>
			<text fill="#595959" font-family="Verdana,Open Sans,DejaVu Sans,sans-serif" font-weight="400" font-size="41" transform="matrix(6.12323e-17 -1 1 6.12323e-17 3244.275390625 1203.08203125)">24-Feb</text>
		</g>
		<g>
			<text fill="#595959" font-family="Verdana,Open Sans,DejaVu Sans,sans-serif" font-weight="400" font-size="41" transform="matrix(6.12323e-17 -1 1 6.12323e-17 3328.984677734375 1212.05078125)">24-Mar</text>
		</g>
		<g>
			<text fill="#595959" font-family="Verdana,Open Sans,DejaVu Sans,sans-serif" font-weight="400" font-size="41" transform="matrix(6.12323e-17 -1 1 6.12323e-17 3419.149287109375 1203.3022384643555)">21-Apr</text>
		</g>
		<g>
			<text fill="#595959" font-family="Verdana,Open Sans,DejaVu Sans,sans-serif" font-weight="400" font-size="41" transform="matrix(6.12323e-17 -1 1 6.12323e-17 3504.589287109375 1214.75341796875)">19-May</text>
		</g>
		<g>
			<text fill="#595959" font-family="Verdana,Open Sans,DejaVu Sans,sans-serif" font-weight="400" font-size="41" transform="matrix(6.12323e-17 -1 1 6.12323e-17 3588.9582421875 1194.0532150268555)">23-Jun</text>
		</g>
		<g>
			<text fill="#595959" font-family="Verdana,Open Sans,DejaVu Sans,sans-serif" font-weight="400" font-size="41" transform="matrix(6.12323e-17 -1 1 6.12323e-17 3675.128955078125 1179.0385665893555)">21-Jul</text>
		</g>
		<g>
			<text fill="#595959" font-family="Verdana,Open Sans,DejaVu Sans,sans-serif" font-weight="400" font-size="41" transform="matrix(6.12323e-17 -1 1 6.12323e-17 3760.909287109375 1206.90576171875)">18-Aug</text>
		</g>
		<g>
			<text fill="#595959" font-family="Verdana,Open Sans,DejaVu Sans,sans-serif" font-weight="400" font-size="41" transform="matrix(6.12323e-17 -1 1 6.12323e-17 3846.349287109375 1202.66162109375)">15-Sep</text>
		</g>
		<g>
			<text fill="#595959" font-family="Verdana,Open Sans,DejaVu Sans,sans-serif" font-weight="400" font-size="41" transform="matrix(6.12323e-17 -1 1 6.12323e-17 3927.084697265625 1199.3784103393555)">13-Oct</text>
		</g>
		<g>
			<text fill="#595959" font-family="Verdana,Open Sans,DejaVu Sans,sans-serif" font-weight="400" font-size="41" transform="matrix(6.12323e-17 -1 1 6.12323e-17 4012.524697265625 1209.70849609375)">10-Nov</text>
		</g>
		<g>
			<text fill="#595959" font-family="Verdana,Open Sans,DejaVu Sans,sans-serif" font-weight="400" font-size="41" transform="matrix(6.12323e-17 -1 1 6.12323e-17 4097.964697265625 1207.0859375)">08-Dec</text>
		</g>
		<g>
			<text fill="#595959" font-family="Verdana,Open Sans,DejaVu Sans,sans-serif" font-weight="400" font-size="41" transform="matrix(6.12323e-17 -1 1 6.12323e-17 4187.05826171875 1191.6508712768555)">05-Jan</text>
		</g>
		<g>
			<text fill="#595959" font-family="Verdana,Open Sans,DejaVu Sans,sans-serif" font-weight="400" font-size="41" transform="matrix(6.12323e-17 -1 1 6.12323e-17 4269.555390625 1203.0419921875)">02-Feb</text>
		</g>
		<g>
			<text fill="#595959" font-family="Verdana,Open Sans,DejaVu Sans,sans-serif" font-weight="400" font-size="41" transform="matrix(1 0 0 1 3169.14111328125 1050)">0</text>
		</g>
		<g>
			<text fill="#595959" font-family="Verdana,Open Sans,DejaVu Sans,sans-serif" font-weight="400" font-size="41" transform="matrix(1 0 0 1 3088.6025390625 922)">3,250</text>
		</g>
		<g>
			<text fill="#595959" font-family="Verdana,Open Sans,DejaVu Sans,sans-serif" font-weight="400" font-size="41" transform="matrix(1 0 0 1 3089.06298828125 794)">6,500</text>
		</g>
		<g>
			<text fill="#595959" font-family="Verdana,Open Sans,DejaVu Sans,sans-serif" font-weight="400" font-size="41" transform="matrix(1 0 0 1 3088.8427734375 666)">9,750</text>
		</g>
		<g>
			<text fill="#595959" font-family="Verdana,Open Sans,DejaVu Sans,sans-serif" font-weight="400" font-size="41" transform="matrix(1 0 0 1 3067.0415115356445 538)">13,000</text>
		</g>
		<g>
			<text fill="#595959" font-family="Verdana,Open Sans,DejaVu Sans,sans-serif" font-weight="400" font-size="41" transform="matrix(1 0 0 1 3067.0415115356445 410)">16,250</text>
		</g>
		<g>
			<text fill="#595959" font-family="Verdana,Open Sans,DejaVu Sans,sans-serif" font-weight="400" font-size="41" transform="matrix(1 0 0 1 3556.97119140625 1321)">Week Commencing</text>
		</g>
		<g>
			<text fill="#595959" font-family="Verdana,Open Sans,DejaVu Sans,sans-serif" font-weight="400" font-size="46" transform="matrix(6.12323e-17 -1 1 6.12323e-17 3019.73 1011.673828125)">Number of Browser Profiles</text>
		</g>
		<rect x="2918.5" y="347.5" width="1760" height="1043" stroke="#D9D9D9" stroke-width="3.4375" stroke-linejoin="round" stroke-miterlimit="10" fill="none" />
		<g>
			<path d="M3228.5 1038 3249.86 1038 3271.22 1038 3292.58 1038 3313.94 1038 3335.3 1038 3356.66 1038 3378.02 1038 3399.38 1038 3420.74 1038 3442.1 1038 3463.46 1038 3484.82 1038 3506.18 1038 3527.54 1038 3548.9 1038 3570.26 1038 3591.62 1038 3612.98 1038 3634.34 1038 3655.7 1038 3677.06 1038 3698.42 1038 3719.7799999999997 1038 3741.14 1038 3762.5 1038 3783.86 1038 3805.2200000000003 1038 3826.58 1038 3847.94 1038 3869.3 1038 3890.66 1038 3912.02 1038 3933.38 1038 3954.74 1038 3976.1 1038 3997.46 1038 4018.8199999999997 1038 4040.18 1038 4061.54 1038 4082.9 1038 4104.26 1038 4125.62 1038 4146.98 1038 4168.34 1038 4189.7 1038 4211.0599999999995 1038 4232.42 1038 4253.78 1038 4275.139999999999 1038 4296.5 1038 4296.5 532.7741538461538 4275.139999999999 533.7981538461538 4253.78 534.3495384615385 4232.42 535.1766153846154 4211.0599999999995 535.924923076923 4189.7 536.752 4168.34 536.9095384615384 4146.98 537.3821538461539 4125.62 537.9335384615384 4104.26 538.9575384615384 4082.9 540.2178461538462 4061.54 541.872 4040.18 542.1870769230769 4018.8199999999997 543.2898461538462 3997.46 543.92 3976.1 545.3772307692308 3954.74 545.968 3933.38 547.3070769230769 3912.02 547.4252307692308 3890.66 548.2916923076923 3869.3 549.3156923076923 3847.94 550.6153846153845 3826.58 551.3243076923077 3805.2200000000003 551.9544615384616 3783.86 553.2147692307692 3762.5 554.0418461538461 3741.14 554.9476923076923 3719.7799999999997 555.9323076923076 3698.42 556.72 3677.06 557.4683076923077 3655.7 558.3347692307692 3634.34 558.7286153846153 3612.98 559.7132307692307 3591.62 561.012923076923 3570.26 561.6036923076923 3548.9 562.7458461538461 3527.54 564.0849230769231 3506.18 565.6996923076923 3484.82 566.8024615384616 3463.46 567.8658461538462 3442.1 568.7716923076923 3420.74 569.5987692307692 3399.38 570.544 3378.02 571.4104615384615 3356.66 572.8676923076923 3335.3 573.4978461538461 3313.94 574.1279999999999 3292.58 574.8763076923076 3271.22 575.9396923076922 3249.86 577.0424615384616 3228.5 577.9089230769231 3228.5 1038Z" fill="#005aa6" opacity="0.9" />
		</g>
		<g>
			<path d="M3228.5 577.9089230769231 3249.86 577.0424615384616 3271.22 575.9396923076922 3292.58 574.8763076923076 3313.94 574.1279999999999 3335.3 573.4978461538461 3356.66 572.8676923076923 3378.02 571.4104615384615 3399.38 570.544 3420.74 569.5987692307692 3442.1 568.7716923076923 3463.46 567.8658461538462 3484.82 566.8024615384616 3506.18 565.6996923076923 3527.54 564.0849230769231 3548.9 562.7458461538461 3570.26 561.6036923076923 3591.62 561.012923076923 3612.98 559.7132307692307 3634.34 558.7286153846153 3655.7 558.3347692307692 3677.06 557.4683076923077 3698.42 556.72 3719.7799999999997 555.9323076923076 3741.14 554.9476923076923 3762.5 554.0418461538461 3783.86 553.2147692307692 3805.2200000000003 551.9544615384616 3826.58 551.3243076923077 3847.94 550.6153846153845 3869.3 549.3156923076923 3890.66 548.2916923076923 3912.02 547.4252307692308 3933.38 547.3070769230769 3954.74 545.968 3976.1 545.3772307692308 3997.46 543.92 4018.8199999999997 543.2898461538462 4040.18 542.1870769230769 4061.54 541.872 4082.9 540.2178461538462 4104.26 538.9575384615384 4125.62 537.9335384615384 4146.98 537.3821538461539 4168.34 536.9095384615384 4189.7 536.752 4211.0599999999995 535.924923076923 4232.42 535.1766153846154 4253.78 534.3495384615385 4275.139999999999 533.7981538461538 4296.5 532.7741538461538 4296.5 398 4275.139999999999 399.22092307692304 4253.78 399.96923076923076 4232.42 401.584 4211.0599999999995 402.4110769230769 4189.7 403.39569230769223 4168.34 403.5926153846153 4146.98 404.144 4125.62 404.69538461538457 4104.26 406.0344615384615 4082.9 407.5310769230769 4061.54 409.3821538461538 4040.18 409.97292307692305 4018.8199999999997 411.312 3997.46 412.0603076923077 3976.1 413.6750769230769 3954.74 414.4627692307692 3933.38 415.9593846153846 3912.02 416.11692307692306 3890.66 417.2590769230769 3869.3 418.4012307692308 3847.94 419.8978461538461 3826.58 420.7643076923077 3805.2200000000003 421.552 3783.86 422.89107692307687 3762.5 423.91507692307687 3741.14 424.89969230769225 3719.7799999999997 426.2387692307692 3698.42 427.1052307692308 3677.06 428.0898461538461 3655.7 429.0744615384615 3634.34 429.7439999999999 3612.98 431.0436923076922 3591.62 432.54030769230764 3570.26 433.24923076923073 3548.9 434.50953846153834 3527.54 435.9667692307693 3506.18 438.1329230769231 3484.82 439.4326153846154 3463.46 440.7323076923077 3442.1 441.7956923076923 3420.74 442.7409230769231 3399.38 443.8830769230769 3378.02 444.9070769230769 3356.66 446.56123076923075 3335.3 447.38830769230765 3313.94 448.0972307692307 3292.58 448.9636923076922 3271.22 450.34215384615374 3249.86 451.56307692307695 3228.5 452.54769230769233 3228.5 577.9089230769231Z" fill="#e62d39" opacity="0.9" />
		</g>
		<g>
			<rect x="4372" y="431" width="22.9995" height="23" fill="#005aa6" />
		</g>
		<g>
			<text fill="#595959" font-family="Verdana,Open Sans,DejaVu Sans,sans-serif" font-weight="400" font-size="41" transform="matrix(1 0 0 1 4404.56 454)">Web Browser</text>
		</g>
		<g>
			<rect x="4372" y="508" width="22.9995" height="23" fill="#e62d39" />
		</g>
		<g>
			<text fill="#595959" font-family="Verdana,Open Sans,DejaVu Sans,sans-serif" font-weight="400" font-size="41" transform="matrix(1 0 0 1 4404.56 531)">App</text>
		</g>
	</g>
</svg>
