<svg width="1763" height="1046"
    xmlns="http://www.w3.org/2000/svg"
	xmlns:xlink="http://www.w3.org/1999/xlink" xml:space="preserve" overflow="hidden">
	<defs>
		<clipPath id="clip0">
			<rect x="2917" y="346" width="1763" height="1046"/>
		</clipPath>
	</defs>
	<g clip-path="url(#clip0)" transform="translate(-2917 -346)">
		<rect x="2918" y="347" width="1760" height="1043" fill="#FFFFFF" />
		<g>
			<path d="
			M3228.5 974.532 4296.5 974.532
			M3228.5 910.53 4296.5 910.53
			M3228.5 846.528 4296.5 846.528
			M3228.5 781.526 4296.5 781.526
			M3228.5 717.524 4296.5 717.524
			M3228.5 653.522 4296.5 653.522
			M3228.5 589.52 4296.5 589.52
			M3228.5 525.517 4296.5 525.517
			M3228.5 461.515 4296.5 461.515
			M3228.5 397.5 4296.5 397.5" stroke="#D9D9D9" stroke-width="3.4375" stroke-linejoin="round" stroke-miterlimit="10" fill="none" />
		</g>
		<g>
			<path d="M 1038.5 4296.5 1038.5" stroke="#D9D9D9" stroke-width="3.4375" stroke-linejoin="round" stroke-miterlimit="10" fill="none" fill-rule="evenodd" />
		</g>
		<g>
			<text fill="#595959" font-family="Verdana,Open Sans,DejaVu Sans,sans-serif" font-weight="400" font-size="41" transform="matrix(6.12323e-17 -1 1 6.12323e-17 3243.544677734375 1205.3642578125)">16-Dec</text>
		</g>
		<g>
			<text fill="#595959" font-family="Verdana,Open Sans,DejaVu Sans,sans-serif" font-weight="400" font-size="41" transform="matrix(6.12323e-17 -1 1 6.12323e-17 3332.6382421875 1189.9291915893555)">13-Jan</text>
		</g>
		<g>
			<text fill="#595959" font-family="Verdana,Open Sans,DejaVu Sans,sans-serif" font-weight="400" font-size="41" transform="matrix(6.12323e-17 -1 1 6.12323e-17 3415.155390625 1201.3203125)">10-Feb</text>
		</g>
		<g>
			<text fill="#595959" font-family="Verdana,Open Sans,DejaVu Sans,sans-serif" font-weight="400" font-size="41" transform="matrix(6.12323e-17 -1 1 6.12323e-17 3499.884697265625 1210.2890625)">10-Mar</text>
		</g>
		<g>
			<text fill="#595959" font-family="Verdana,Open Sans,DejaVu Sans,sans-serif" font-weight="400" font-size="41" transform="matrix(6.12323e-17 -1 1 6.12323e-17 3590.049306640625 1203.2621994018555)">07-Apr</text>
		</g>
		<g>
			<text fill="#595959" font-family="Verdana,Open Sans,DejaVu Sans,sans-serif" font-weight="400" font-size="41" transform="matrix(6.12323e-17 -1 1 6.12323e-17 3675.489306640625 1216.47509765625)">05-May</text>
		</g>
		<g>
			<text fill="#595959" font-family="Verdana,Open Sans,DejaVu Sans,sans-serif" font-weight="400" font-size="41" transform="matrix(6.12323e-17 -1 1 6.12323e-17 3759.85826171875 1194.0131759643555)">09-Jun</text>
		</g>
		<g>
			<text fill="#595959" font-family="Verdana,Open Sans,DejaVu Sans,sans-serif" font-weight="400" font-size="41" transform="matrix(6.12323e-17 -1 1 6.12323e-17 3846.008955078125 1178.9985275268555)">07-Jul</text>
		</g>
		<g>
			<text fill="#595959" font-family="Verdana,Open Sans,DejaVu Sans,sans-serif" font-weight="400" font-size="41" transform="matrix(6.12323e-17 -1 1 6.12323e-17 3931.809306640625 1208.62744140625)">04-Aug</text>
		</g>
		<g>
			<text fill="#595959" font-family="Verdana,Open Sans,DejaVu Sans,sans-serif" font-weight="400" font-size="41" transform="matrix(6.12323e-17 -1 1 6.12323e-17 4017.249306640625 1204.38330078125)">01-Sep</text>
		</g>
		<g>
			<text fill="#595959" font-family="Verdana,Open Sans,DejaVu Sans,sans-serif" font-weight="400" font-size="41" transform="matrix(6.12323e-17 -1 1 6.12323e-17 4102.669287109375 1204.42333984375)">29-Sep</text>
		</g>
		<g>
			<text fill="#595959" font-family="Verdana,Open Sans,DejaVu Sans,sans-serif" font-weight="400" font-size="41" transform="matrix(6.12323e-17 -1 1 6.12323e-17 4183.404697265625 1201.1401290893555)">27-Oct</text>
		</g>
		<g>
			<text fill="#595959" font-family="Verdana,Open Sans,DejaVu Sans,sans-serif" font-weight="400" font-size="41" transform="matrix(6.12323e-17 -1 1 6.12323e-17 4268.824677734375 1211.47021484375)">24-Nov</text>
		</g>
		<g>
			<text fill="#595959" font-family="Verdana,Open Sans,DejaVu Sans,sans-serif" font-weight="400" font-size="41" transform="matrix(1 0 0 1 3169.14111328125 1050)">0</text>
		</g>
		<g>
			<text fill="#595959" font-family="Verdana,Open Sans,DejaVu Sans,sans-serif" font-weight="400" font-size="41" transform="matrix(1 0 0 1 3088.7626953125 922)">3,202</text>
		</g>
		<g>
			<text fill="#595959" font-family="Verdana,Open Sans,DejaVu Sans,sans-serif" font-weight="400" font-size="41" transform="matrix(1 0 0 1 3089.42333984375 794)">6,403</text>
		</g>
		<g>
			<text fill="#595959" font-family="Verdana,Open Sans,DejaVu Sans,sans-serif" font-weight="400" font-size="41" transform="matrix(1 0 0 1 3089.1630859375 666)">9,605</text>
		</g>
		<g>
			<text fill="#595959" font-family="Verdana,Open Sans,DejaVu Sans,sans-serif" font-weight="400" font-size="41" transform="matrix(1 0 0 1 3067.0014724731445 538)">12,806</text>
		</g>
		<g>
			<text fill="#595959" font-family="Verdana,Open Sans,DejaVu Sans,sans-serif" font-weight="400" font-size="41" transform="matrix(1 0 0 1 3067.1215896606445 410)">16,008</text>
		</g>
		<g>
			<text fill="#595959" font-family="Verdana,Open Sans,DejaVu Sans,sans-serif" font-weight="400" font-size="41" transform="matrix(1 0 0 1 3556.97119140625 1321)">Week Commencing</text>
		</g>
		<g>
			<text fill="#595959" font-family="Verdana,Open Sans,DejaVu Sans,sans-serif" font-weight="400" font-size="46" transform="matrix(6.12323e-17 -1 1 6.12323e-17 3019.73 1011.673828125)">Number of Browser Profiles</text>
		</g>
		<rect x="2918.5" y="347.5" width="1760" height="1043" stroke="#D9D9D9" stroke-width="3.4375" stroke-linejoin="round" stroke-miterlimit="10" fill="none" />
		<g>
			<path d="M3228.5 1038 3249.86 1038 3271.22 1038 3292.58 1038 3313.94 1038 3335.3 1038 3356.66 1038 3378.02 1038 3399.38 1038 3420.74 1038 3442.1 1038 3463.46 1038 3484.82 1038 3506.18 1038 3527.54 1038 3548.9 1038 3570.26 1038 3591.62 1038 3612.98 1038 3634.34 1038 3655.7 1038 3677.06 1038 3698.42 1038 3719.7799999999997 1038 3741.14 1038 3762.5 1038 3783.86 1038 3805.2200000000003 1038 3826.58 1038 3847.94 1038 3869.3 1038 3890.66 1038 3912.02 1038 3933.38 1038 3954.74 1038 3976.1 1038 3997.46 1038 4018.8199999999997 1038 4040.18 1038 4061.54 1038 4082.9 1038 4104.26 1038 4125.62 1038 4146.98 1038 4168.34 1038 4189.7 1038 4211.0599999999995 1038 4232.42 1038 4253.78 1038 4275.139999999999 1038 4296.5 1038 4296.5 532.6926536731634 4275.139999999999 534.3718140929535 4253.78 534.6916541729136 4232.42 535.8110944527737 4211.0599999999995 536.4507746126936 4189.7 537.9300349825087 4168.34 538.5297351324338 4146.98 539.8890554722639 4125.62 540.0089955022488 4104.26 540.8885557221389 4082.9 541.928035982009 4061.54 543.247376311844 4040.18 543.9670164917541 4018.8199999999997 544.6066966516742 3997.46 545.8860569715142 3976.1 546.7256371814093 3954.74 547.6451774112943 3933.38 548.6446776611695 3912.02 549.4442778610694 3890.66 550.2038980509744 3869.3 551.0834582708645 3847.94 551.4832583708146 3826.58 552.4827586206897 3805.2200000000003 553.8020989505247 3783.86 554.4017991004498 3762.5 555.5612193903048 3741.14 556.9205397301349 3719.7799999999997 558.55972013993 3698.42 559.6791604197902 3677.06 560.7586206896551 3655.7 561.6781609195402 3634.34 562.5177411294353 3612.98 563.4772613693153 3591.62 564.3568215892053 3570.26 565.8360819590205 3548.9 566.4757621189406 3527.54 567.1154422788605 3506.18 567.8750624687656 3484.82 568.9545227386307 3463.46 570.0739630184908 3442.1 570.9535232383807 3420.74 571.5132433783108 3399.38 572.4327836081959 3378.02 573.7921039480259 3356.66 574.3918040979511 3335.3 575.0714642678661 3313.94 575.5512243878061 3292.58 576.2708645677161 3271.22 576.7506246876562 3249.86 577.0304847576211 3228.5 577.9500249875061 3228.5 1038Z" fill="#005aa6" opacity="0.9" />
		</g>
		<g>
			<path d="M3228.5 577.9500249875061 3249.86 577.0304847576211 3271.22 576.7506246876562 3292.58 576.2708645677161 3313.94 575.5512243878061 3335.3 575.0714642678661 3356.66 574.3918040979511 3378.02 573.7921039480259 3399.38 572.4327836081959 3420.74 571.5132433783108 3442.1 570.9535232383807 3463.46 570.0739630184908 3484.82 568.9545227386307 3506.18 567.8750624687656 3527.54 567.1154422788605 3548.9 566.4757621189406 3570.26 565.8360819590205 3591.62 564.3568215892053 3612.98 563.4772613693153 3634.34 562.5177411294353 3655.7 561.6781609195402 3677.06 560.7586206896551 3698.42 559.6791604197902 3719.7799999999997 558.55972013993 3741.14 556.9205397301349 3762.5 555.5612193903048 3783.86 554.4017991004498 3805.2200000000003 553.8020989505247 3826.58 552.4827586206897 3847.94 551.4832583708146 3869.3 551.0834582708645 3890.66 550.2038980509744 3912.02 549.4442778610694 3933.38 548.6446776611695 3954.74 547.6451774112943 3976.1 546.7256371814093 3997.46 545.8860569715142 4018.8199999999997 544.6066966516742 4040.18 543.9670164917541 4061.54 543.247376311844 4082.9 541.928035982009 4104.26 540.8885557221389 4125.62 540.0089955022488 4146.98 539.8890554722639 4168.34 538.5297351324338 4189.7 537.9300349825087 4211.0599999999995 536.4507746126936 4232.42 535.8110944527737 4253.78 534.6916541729136 4275.139999999999 534.3718140929535 4296.5 532.6926536731634 4296.5 397.99999999999994 4275.139999999999 399.87906046976514 4253.78 400.47876061969015 4232.42 401.8380809595203 4211.0599999999995 402.59770114942523 4189.7 404.23688155922036 4168.34 405.0364817591204 4146.98 406.5557221389305 4125.62 406.71564217891046 4104.26 407.8750624687656 4082.9 409.03448275862064 4061.54 410.55372313843077 4040.18 411.43328335832075 4018.8199999999997 412.23288355822086 3997.46 413.5922038980509 3976.1 414.63168415792103 3954.74 415.631184407796 3933.38 416.99050474762623 3912.02 417.87006496751616 3890.66 418.86956521739125 3869.3 419.8690654672663 3847.94 420.5487256371814 3826.58 421.8680659670165 3805.2200000000003 423.38730634682656 3783.86 424.1069465267367 3762.5 425.38630684657664 3741.14 426.8655672163918 3719.7799999999997 429.064467766117 3698.42 430.3838080959521 3677.06 431.70314842578705 3655.7 432.78260869565213 3634.34 433.74212893553226 3612.98 434.90154922538727 3591.62 435.9410294852573 3570.26 437.6201899050475 3548.9 438.45977011494256 3527.54 439.1794102948526 3506.18 440.05897051474255 3484.82 441.4582708645677 3463.46 442.6976511744128 3442.1 443.69715142428777 3420.74 444.4967516241878 3399.38 445.65617191404294 3378.02 447.17541229385296 3356.66 447.93503248375816 3335.3 448.85457271364317 3313.94 449.5342328835582 3292.58 450.37381309345324 3271.22 450.8935532233884 3249.86 451.1734132933533 3228.5 452.25287356321826 3228.5 577.9500249875061Z" fill="#e62d39" opacity="0.9" />
		</g>
		<g>
			<rect x="4372" y="431" width="22.9995" height="23" fill="#005aa6" />
		</g>
		<g>
			<text fill="#595959" font-family="Verdana,Open Sans,DejaVu Sans,sans-serif" font-weight="400" font-size="41" transform="matrix(1 0 0 1 4404.56 454)">Web Browser</text>
		</g>
		<g>
			<rect x="4372" y="508" width="22.9995" height="23" fill="#e62d39" />
		</g>
		<g>
			<text fill="#595959" font-family="Verdana,Open Sans,DejaVu Sans,sans-serif" font-weight="400" font-size="41" transform="matrix(1 0 0 1 4404.56 531)">App</text>
		</g>
	</g>
</svg>
