<svg width="1763" height="1046"
    xmlns="http://www.w3.org/2000/svg"
	xmlns:xlink="http://www.w3.org/1999/xlink" xml:space="preserve" overflow="hidden">
	<defs>
		<clipPath id="clip0">
			<rect x="2917" y="346" width="1763" height="1046"/>
		</clipPath>
	</defs>
	<g clip-path="url(#clip0)" transform="translate(-2917 -346)">
		<rect x="2918" y="347" width="1760" height="1043" fill="#FFFFFF" />
		<g>
			<path d="
			M3228.5 974.532 4296.5 974.532
			M3228.5 910.53 4296.5 910.53
			M3228.5 846.528 4296.5 846.528
			M3228.5 781.526 4296.5 781.526
			M3228.5 717.524 4296.5 717.524
			M3228.5 653.522 4296.5 653.522
			M3228.5 589.52 4296.5 589.52
			M3228.5 525.517 4296.5 525.517
			M3228.5 461.515 4296.5 461.515
			M3228.5 397.5 4296.5 397.5" stroke="#D9D9D9" stroke-width="3.4375" stroke-linejoin="round" stroke-miterlimit="10" fill="none" />
		</g>
		<g>
			<path d="M 1038.5 4296.5 1038.5" stroke="#D9D9D9" stroke-width="3.4375" stroke-linejoin="round" stroke-miterlimit="10" fill="none" fill-rule="evenodd" />
		</g>
		<g>
			<text fill="#595959" font-family="Verdana,sans-serif" font-weight="400" font-size="41" transform="matrix(6.12323e-17 -1 1 6.12323e-17 3244.5 1225)">06-Nov</text>
		</g>
		<g>
			<text fill="#595959" font-family="Verdana,sans-serif" font-weight="400" font-size="41" transform="matrix(6.12323e-17 -1 1 6.12323e-17 3356.9210526315787 1223)">04-Dec</text>
		</g>
		<g>
			<text fill="#595959" font-family="Verdana,sans-serif" font-weight="400" font-size="41" transform="matrix(6.12323e-17 -1 1 6.12323e-17 3469.342105263158 1210)">01-Jan</text>
		</g>
		<g>
			<text fill="#595959" font-family="Verdana,sans-serif" font-weight="400" font-size="41" transform="matrix(6.12323e-17 -1 1 6.12323e-17 3581.7631578947367 1210)">29-Jan</text>
		</g>
		<g>
			<text fill="#595959" font-family="Verdana,sans-serif" font-weight="400" font-size="41" transform="matrix(6.12323e-17 -1 1 6.12323e-17 3694.184210526316 1216)">26-Feb</text>
		</g>
		<g>
			<text fill="#595959" font-family="Verdana,sans-serif" font-weight="400" font-size="41" transform="matrix(6.12323e-17 -1 1 6.12323e-17 3806.6052631578946 1223)">25-Mar</text>
		</g>
		<g>
			<text fill="#595959" font-family="Verdana,sans-serif" font-weight="400" font-size="41" transform="matrix(6.12323e-17 -1 1 6.12323e-17 3922.5263157894738 1216)">22-Apr</text>
		</g>
		<g>
			<text fill="#595959" font-family="Verdana,sans-serif" font-weight="400" font-size="41" transform="matrix(6.12323e-17 -1 1 6.12323e-17 4034.9473684210525 1228)">20-May</text>
		</g>
		<g>
			<text fill="#595959" font-family="Verdana,sans-serif" font-weight="400" font-size="41" transform="matrix(6.12323e-17 -1 1 6.12323e-17 4143.368421052632 1209)">17-Jun</text>
		</g>
		<g>
			<text fill="#595959" font-family="Verdana,sans-serif" font-weight="400" font-size="41" transform="matrix(6.12323e-17 -1 1 6.12323e-17 4256.289473684211 1194)">15-Jul</text>
		</g>
		<g>
			<text fill="#595959" font-family="Verdana,sans-serif" font-weight="400" font-size="41" transform="matrix(1 0 0 1 3167.5 1050)">0</text>
		</g>
		<g>
			<text fill="#595959" font-family="Verdana,sans-serif" font-weight="400" font-size="41" transform="matrix(1 0 0 1 3074.5 922)">2,834</text>
		</g>
		<g>
			<text fill="#595959" font-family="Verdana,sans-serif" font-weight="400" font-size="41" transform="matrix(1 0 0 1 3075.5 794)">5,667</text>
		</g>
		<g>
			<text fill="#595959" font-family="Verdana,sans-serif" font-weight="400" font-size="41" transform="matrix(1 0 0 1 3075.5 666)">8,501</text>
		</g>
		<g>
			<text fill="#595959" font-family="Verdana,sans-serif" font-weight="400" font-size="41" transform="matrix(1 0 0 1 3050.5 538)">11,334</text>
		</g>
		<g>
			<text fill="#595959" font-family="Verdana,sans-serif" font-weight="400" font-size="41" transform="matrix(1 0 0 1 3050.5 410)">14,168</text>
		</g>
		<g>
			<text fill="#595959" font-family="Verdana,sans-serif" font-weight="400" font-size="41" transform="matrix(1 0 0 1 3544.5 1321)">Week Commencing</text>
		</g>
		<g>
			<text fill="#595959" font-family="Verdana,sans-serif" font-weight="400" font-size="46" transform="matrix(6.12323e-17 -1 1 6.12323e-17 3019.73 1030.75)">Number of Browser Profiles</text>
		</g>
		<rect x="2918.5" y="347.5" width="1760" height="1043" stroke="#D9D9D9" stroke-width="3.4375" stroke-linejoin="round" stroke-miterlimit="10" fill="none" />
		<g>
			<path d="M3228.5 1038 3256.6052631578946 1038 3284.7105263157896 1038 3312.815789473684 1038 3340.9210526315787 1038 3369.0263157894738 1038 3397.1315789473683 1038 3425.2368421052633 1038 3453.342105263158 1038 3481.4473684210525 1038 3509.5526315789475 1038 3537.657894736842 1038 3565.7631578947367 1038 3593.8684210526317 1038 3621.9736842105262 1038 3650.078947368421 1038 3678.184210526316 1038 3706.2894736842104 1038 3734.3947368421054 1038 3762.5 1038 3790.6052631578946 1038 3818.7105263157896 1038 3846.815789473684 1038 3874.921052631579 1038 3903.0263157894738 1038 3931.1315789473683 1038 3959.2368421052633 1038 3987.342105263158 1038 4015.4473684210525 1038 4043.5526315789475 1038 4071.657894736842 1038 4099.763157894737 1038 4127.868421052632 1038 4155.973684210527 1038 4184.078947368421 1038 4212.184210526316 1038 4240.289473684211 1038 4268.394736842105 1038 4296.5 1038 4296.5 535.5042348955393 4268.394736842105 536.317334839074 4240.289473684211 536.9045736871824 4212.184210526316 537.3562958780351 4184.078947368421 537.8080180688877 4155.973684210527 538.892151326934 4127.868421052632 539.6600790513835 4099.763157894737 540.428006775833 4071.657894736842 541.6024844720497 4043.5526315789475 542.7317899491813 4015.4473684210525 543.7707509881423 3987.342105263158 544.2676453980803 3959.2368421052633 544.8548842461887 3931.1315789473683 545.5776397515529 3903.0263157894738 546.9328063241107 3874.921052631579 548.1524562394128 3846.815789473684 549.3721061547149 3818.7105263157896 550.8627893845285 3790.6052631578946 551.9920948616601 3762.5 553.0310559006211 3734.3947368421054 554.1151891586675 3706.2894736842104 555.5155279503106 3678.184210526316 557.819311123659 3650.078947368421 558.2710333145117 3621.9736842105262 558.6324110671937 3593.8684210526317 560.5748164878601 3565.7631578947367 562.5623941276115 3537.657894736842 563.1044607566347 3509.5526315789475 563.9175607001694 3481.4473684210525 564.5951439864484 3453.342105263158 564.8661773009599 3425.2368421052633 564.8661773009599 3397.1315789473683 565.6341050254093 3369.0263157894738 566.085827216262 3340.9210526315787 566.6278938452851 3312.815789473684 567.5313382269904 3284.7105263157896 568.2992659514399 3256.6052631578946 568.9768492377189 3228.5 569.4737436476566 3228.5 1038Z" fill="#e62d39" opacity="0.9" />
		</g>
		<g>
			<path d="M3228.5 569.4737436476566 3256.6052631578946 568.9768492377189 3284.7105263157896 568.2992659514399 3312.815789473684 567.5313382269904 3340.9210526315787 566.6278938452851 3369.0263157894738 566.085827216262 3397.1315789473683 565.6341050254093 3425.2368421052633 564.8661773009599 3453.342105263158 564.8661773009599 3481.4473684210525 564.5951439864484 3509.5526315789475 563.9175607001694 3537.657894736842 563.1044607566347 3565.7631578947367 562.5623941276115 3593.8684210526317 560.5748164878601 3621.9736842105262 558.6324110671937 3650.078947368421 558.2710333145117 3678.184210526316 557.819311123659 3706.2894736842104 555.5155279503106 3734.3947368421054 554.1151891586675 3762.5 553.0310559006211 3790.6052631578946 551.9920948616601 3818.7105263157896 550.8627893845285 3846.815789473684 549.3721061547149 3874.921052631579 548.1524562394128 3903.0263157894738 546.9328063241107 3931.1315789473683 545.5776397515529 3959.2368421052633 544.8548842461887 3987.342105263158 544.2676453980803 4015.4473684210525 543.7707509881423 4043.5526315789475 542.7317899491813 4071.657894736842 541.6024844720497 4099.763157894737 540.428006775833 4127.868421052632 539.6600790513835 4155.973684210527 538.892151326934 4184.078947368421 537.8080180688877 4212.184210526316 537.3562958780351 4240.289473684211 536.9045736871824 4268.394736842105 536.317334839074 4296.5 535.5042348955393 4296.5 398.00000000000006 4268.394736842105 398.9486166007905 4240.289473684211 399.53585544889893 4212.184210526316 400.07792207792215 4184.078947368421 400.8458498023716 4155.973684210527 402.110671936759 4127.868421052632 403.0592885375495 4099.763157894737 404.0530773574253 4071.657894736842 405.54376058723886 4043.5526315789475 406.8989271597968 4015.4473684210525 408.07340485601355 3987.342105263158 408.7509881422926 3959.2368421052633 409.4737436476568 3931.1315789473683 410.33201581027674 3903.0263157894738 411.913043478261 3874.921052631579 413.3585544889893 3846.815789473684 414.8040654997177 3818.7105263157896 416.56578204404286 3790.6052631578946 417.92094861660087 3762.5 419.5923207227555 3734.3947368421054 421.218520609825 3706.2894736842104 422.6640316205534 3678.184210526316 425.2388481084133 3650.078947368421 425.73574251835134 3621.9736842105262 426.27780914737446 3593.8684210526317 428.49124788255233 3565.7631578947367 430.61434217955957 3537.657894736842 431.2919254658385 3509.5526315789475 432.33088650479954 3481.4473684210525 433.1439864483344 3453.342105263158 433.50536420101633 3425.2368421052633 433.50536420101633 3397.1315789473683 434.4991530208921 3369.0263157894738 435.17673630717115 3340.9210526315787 435.76397515527947 3312.815789473684 436.75776397515534 3284.7105263157896 437.6612083568606 3256.6052631578946 438.6549971767364 3228.5 439.33258046301523 3228.5 569.4737436476566Z" fill="#005aa6" opacity="0.9" />
		</g>
		<g>
			<rect x="4372" y="431" width="22.9995" height="23" fill="#e62d39" />
		</g>
		<g>
			<text fill="#595959" font-family="Verdana,sans-serif" font-weight="400" font-size="41" transform="matrix(1 0 0 1 4404.56 454)">Web Browser</text>
		</g>
		<g>
			<rect x="4372" y="508" width="22.9995" height="23" fill="#005aa6" />
		</g>
		<g>
			<text fill="#595959" font-family="Verdana,sans-serif" font-weight="400" font-size="41" transform="matrix(1 0 0 1 4404.56 531)">App</text>
		</g>
	</g>
</svg>
