<svg width="1763" height="1046"
    xmlns="http://www.w3.org/2000/svg"
	xmlns:xlink="http://www.w3.org/1999/xlink" xml:space="preserve" overflow="hidden">
	<defs>
		<clipPath id="clip0">
			<rect x="2917" y="346" width="1763" height="1046"/>
		</clipPath>
	</defs>
	<g clip-path="url(#clip0)" transform="translate(-2917 -346)">
		<rect x="2918" y="347" width="1760" height="1043" fill="#FFFFFF" />
		<g>
			<path d="
			M3228.5 974.532 4296.5 974.532
			M3228.5 910.53 4296.5 910.53
			M3228.5 846.528 4296.5 846.528
			M3228.5 781.526 4296.5 781.526
			M3228.5 717.524 4296.5 717.524
			M3228.5 653.522 4296.5 653.522
			M3228.5 589.52 4296.5 589.52
			M3228.5 525.517 4296.5 525.517
			M3228.5 461.515 4296.5 461.515
			M3228.5 397.5 4296.5 397.5" stroke="#D9D9D9" stroke-width="3.4375" stroke-linejoin="round" stroke-miterlimit="10" fill="none" />
		</g>
		<g>
			<path d="M 1038.5 4296.5 1038.5" stroke="#D9D9D9" stroke-width="3.4375" stroke-linejoin="round" stroke-miterlimit="10" fill="none" fill-rule="evenodd" />
		</g>
		<g>
			<text fill="#595959" font-family="Verdana,sans-serif" font-weight="400" font-size="41" transform="matrix(6.12323e-17 -1 1 6.12323e-17 3244.5 1220)">18-Dec</text>
		</g>
		<g>
			<text fill="#595959" font-family="Verdana,sans-serif" font-weight="400" font-size="41" transform="matrix(6.12323e-17 -1 1 6.12323e-17 3327.764705882353 1207)">15-Jan</text>
		</g>
		<g>
			<text fill="#595959" font-family="Verdana,sans-serif" font-weight="400" font-size="41" transform="matrix(6.12323e-17 -1 1 6.12323e-17 3412.029411764706 1214)">12-Feb</text>
		</g>
		<g>
			<text fill="#595959" font-family="Verdana,sans-serif" font-weight="400" font-size="41" transform="matrix(6.12323e-17 -1 1 6.12323e-17 3495.294117647059 1221)">11-Mar</text>
		</g>
		<g>
			<text fill="#595959" font-family="Verdana,sans-serif" font-weight="400" font-size="41" transform="matrix(6.12323e-17 -1 1 6.12323e-17 3583.0588235294117 1217)">08-Apr</text>
		</g>
		<g>
			<text fill="#595959" font-family="Verdana,sans-serif" font-weight="400" font-size="41" transform="matrix(6.12323e-17 -1 1 6.12323e-17 3666.823529411765 1228)">06-May</text>
		</g>
		<g>
			<text fill="#595959" font-family="Verdana,sans-serif" font-weight="400" font-size="41" transform="matrix(6.12323e-17 -1 1 6.12323e-17 3747.0882352941176 1211)">03-Jun</text>
		</g>
		<g>
			<text fill="#595959" font-family="Verdana,sans-serif" font-weight="400" font-size="41" transform="matrix(6.12323e-17 -1 1 6.12323e-17 3830.8529411764707 1197)">01-Jul</text>
		</g>
		<g>
			<text fill="#595959" font-family="Verdana,sans-serif" font-weight="400" font-size="41" transform="matrix(6.12323e-17 -1 1 6.12323e-17 3914.6176470588234 1196)">29-Jul</text>
		</g>
		<g>
			<text fill="#595959" font-family="Verdana,sans-serif" font-weight="400" font-size="41" transform="matrix(6.12323e-17 -1 1 6.12323e-17 4001.8823529411766 1221)">26-Aug</text>
		</g>
		<g>
			<text fill="#595959" font-family="Verdana,sans-serif" font-weight="400" font-size="41" transform="matrix(6.12323e-17 -1 1 6.12323e-17 4085.6470588235293 1221)">23-Sep</text>
		</g>
		<g>
			<text fill="#595959" font-family="Verdana,sans-serif" font-weight="400" font-size="41" transform="matrix(6.12323e-17 -1 1 6.12323e-17 4165.911764705882 1215)">21-Oct</text>
		</g>
		<g>
			<text fill="#595959" font-family="Verdana,sans-serif" font-weight="400" font-size="41" transform="matrix(6.12323e-17 -1 1 6.12323e-17 4249.676470588235 1222)">18-Nov</text>
		</g>
		<g>
			<text fill="#595959" font-family="Verdana,sans-serif" font-weight="400" font-size="41" transform="matrix(1 0 0 1 3167.5 1050)">0</text>
		</g>
		<g>
			<text fill="#595959" font-family="Verdana,sans-serif" font-weight="400" font-size="41" transform="matrix(1 0 0 1 3074.5 922)">2,930</text>
		</g>
		<g>
			<text fill="#595959" font-family="Verdana,sans-serif" font-weight="400" font-size="41" transform="matrix(1 0 0 1 3075.5 794)">5,860</text>
		</g>
		<g>
			<text fill="#595959" font-family="Verdana,sans-serif" font-weight="400" font-size="41" transform="matrix(1 0 0 1 3075.5 666)">8,791</text>
		</g>
		<g>
			<text fill="#595959" font-family="Verdana,sans-serif" font-weight="400" font-size="41" transform="matrix(1 0 0 1 3052.5 538)">11,721</text>
		</g>
		<g>
			<text fill="#595959" font-family="Verdana,sans-serif" font-weight="400" font-size="41" transform="matrix(1 0 0 1 3052.5 410)">14,651</text>
		</g>
		<g>
			<text fill="#595959" font-family="Verdana,sans-serif" font-weight="400" font-size="41" transform="matrix(1 0 0 1 3544.5 1321)">Week Commencing</text>
		</g>
		<g>
			<text fill="#595959" font-family="Verdana,sans-serif" font-weight="400" font-size="46" transform="matrix(6.12323e-17 -1 1 6.12323e-17 3019.73 1030.75)">Number of Browser Profiles</text>
		</g>
		<rect x="2918.5" y="347.5" width="1760" height="1043" stroke="#D9D9D9" stroke-width="3.4375" stroke-linejoin="round" stroke-miterlimit="10" fill="none" />
		<g>
			<path d="M3228.5 1038 3249.4411764705883 1038 3270.3823529411766 1038 3291.323529411765 1038 3312.264705882353 1038 3333.205882352941 1038 3354.1470588235293 1038 3375.0882352941176 1038 3396.029411764706 1038 3416.970588235294 1038 3437.9117647058824 1038 3458.8529411764707 1038 3479.794117647059 1038 3500.735294117647 1038 3521.676470588235 1038 3542.6176470588234 1038 3563.5588235294117 1038 3584.5 1038 3605.4411764705883 1038 3626.3823529411766 1038 3647.323529411765 1038 3668.264705882353 1038 3689.205882352941 1038 3710.1470588235293 1038 3731.0882352941176 1038 3752.029411764706 1038 3772.970588235294 1038 3793.9117647058824 1038 3814.8529411764707 1038 3835.7941176470586 1038 3856.735294117647 1038 3877.676470588235 1038 3898.6176470588234 1038 3919.5588235294117 1038 3940.5 1038 3961.4411764705883 1038 3982.3823529411766 1038 4003.323529411765 1038 4024.264705882353 1038 4045.2058823529414 1038 4066.1470588235293 1038 4087.0882352941176 1038 4108.029411764706 1038 4128.970588235294 1038 4149.911764705882 1038 4170.85294117647 1038 4191.794117647059 1038 4212.735294117647 1038 4233.676470588235 1038 4254.617647058823 1038 4275.558823529412 1038 4296.5 1038 4296.5 535.3394307555799 4275.558823529412 536.0820421814211 4254.617647058823 537.7419971333015 4233.676470588235 538.8340727595387 4212.735294117647 539.4893181352809 4191.794117647059 540.1445635110232 4170.85294117647 541.1055900621118 4149.911764705882 541.8918845130025 4128.970588235294 542.6344959388439 4108.029411764706 543.551839464883 4087.0882352941176 544.9496962664665 4066.1470588235293 545.3865265169613 4045.2058823529414 546.5222851682479 4024.264705882353 547.4833117193366 4003.323529411765 548.1385570950788 3982.3823529411766 549.0995836461675 3961.4411764705883 549.6674629718109 3940.5 550.2790253225037 3919.5588235294117 551.2400518735923 3898.6176470588234 552.0700293495324 3877.676470588235 552.8563238004233 3856.735294117647 553.4242031260665 3835.7941176470586 553.8610333765614 3814.8529411764707 554.2978636270561 3793.9117647058824 555.3462562282439 3772.970588235294 556.0888676540851 3752.029411764706 556.8314790799263 3731.0882352941176 557.9672377312129 3710.1470588235293 559.05931335745 3689.205882352941 560.0640229335881 3668.264705882353 560.5445362091325 3647.323529411765 561.1124155347759 3626.3823529411766 561.8113439355675 3605.4411764705883 563.1218346870521 3584.5 564.3012763633882 3563.5588235294117 565.4807180397243 3542.6176470588234 566.9222578663573 3521.676470588235 568.0143334925945 3500.735294117647 569.0190430687326 3479.794117647059 570.0674356699202 3458.8529411764707 571.4216094464542 3437.9117647058824 573.6494437239779 3416.970588235294 574.0862739744728 3396.029411764706 574.4357381748687 3375.0882352941176 576.3141082519965 3354.1470588235293 578.2361613541739 3333.205882352941 578.7603576547676 3312.264705882353 579.5466521056583 3291.323529411765 580.2018974814007 3270.3823529411766 580.4639956316976 3249.4411764705883 580.4639956316976 3228.5 581.2066070575388 3228.5 1038Z" fill="#e62d39" opacity="0.9" />
		</g>
		<g>
			<path d="M3228.5 581.2066070575388 3249.4411764705883 580.4639956316976 3270.3823529411766 580.4639956316976 3291.323529411765 580.2018974814007 3312.264705882353 579.5466521056583 3333.205882352941 578.7603576547676 3354.1470588235293 578.2361613541739 3375.0882352941176 576.3141082519965 3396.029411764706 574.4357381748687 3416.970588235294 574.0862739744728 3437.9117647058824 573.6494437239779 3458.8529411764707 571.4216094464542 3479.794117647059 570.0674356699202 3500.735294117647 569.0190430687326 3521.676470588235 568.0143334925945 3542.6176470588234 566.9222578663573 3563.5588235294117 565.4807180397243 3584.5 564.3012763633882 3605.4411764705883 563.1218346870521 3626.3823529411766 561.8113439355675 3647.323529411765 561.1124155347759 3668.264705882353 560.5445362091325 3689.205882352941 560.0640229335881 3710.1470588235293 559.05931335745 3731.0882352941176 557.9672377312129 3752.029411764706 556.8314790799263 3772.970588235294 556.0888676540851 3793.9117647058824 555.3462562282439 3814.8529411764707 554.2978636270561 3835.7941176470586 553.8610333765614 3856.735294117647 553.4242031260665 3877.676470588235 552.8563238004233 3898.6176470588234 552.0700293495324 3919.5588235294117 551.2400518735923 3940.5 550.2790253225037 3961.4411764705883 549.6674629718109 3982.3823529411766 549.0995836461675 4003.323529411765 548.1385570950788 4024.264705882353 547.4833117193366 4045.2058823529414 546.5222851682479 4066.1470588235293 545.3865265169613 4087.0882352941176 544.9496962664665 4108.029411764706 543.551839464883 4128.970588235294 542.6344959388439 4149.911764705882 541.8918845130025 4170.85294117647 541.1055900621118 4191.794117647059 540.1445635110232 4212.735294117647 539.4893181352809 4233.676470588235 538.8340727595387 4254.617647058823 537.7419971333015 4275.558823529412 536.0820421814211 4296.5 535.3394307555799 4296.5 398.00000000000006 4275.558823529412 398.9610265510887 4254.617647058823 400.9267626783155 4233.676470588235 402.2809364548496 4212.735294117647 403.1545969558392 4191.794117647059 404.5961367824723 4170.85294117647 405.77557845880824 4149.911764705882 406.73660500989695 4128.970588235294 407.65394853593625 4108.029411764706 408.70234113712377 4087.0882352941176 410.23124701385575 4066.1470588235293 410.84280936454854 4045.2058823529414 412.2843491911815 4024.264705882353 413.4637908675176 4003.323529411765 414.2937683434577 3982.3823529411766 415.4732100197939 3961.4411764705883 416.1284553955362 3940.5 417.0457989215754 3919.5588235294117 418.094191522763 3898.6176470588234 419.0989010989011 3877.676470588235 420.01624462494044 3856.735294117647 420.5841239505836 3835.7941176470586 421.1083202511775 3814.8529411764707 421.8509316770186 3793.9117647058824 423.0740563784043 3772.970588235294 423.9913999044435 3752.029411764706 424.9524264555321 3731.0882352941176 426.393966282165 3710.1470588235293 427.70445703364965 3689.205882352941 428.8402156849362 3668.264705882353 429.4954610606785 3647.323529411765 430.19438946147034 3626.3823529411766 431.0243669374104 3605.4411764705883 432.5532728141424 3584.5 433.9511296157259 3563.5588235294117 435.34898641730945 3542.6176470588234 437.0526243942394 3521.676470588235 438.36311514572395 3500.735294117647 439.97938707255486 3479.794117647059 441.5519759743363 3458.8529411764707 442.9498327759198 3437.9117647058824 445.4397652037404 3416.970588235294 445.9202784792847 3396.029411764706 446.4444747798786 3375.0882352941176 448.58494300730325 3354.1470588235293 450.63804518462916 3333.205882352941 451.29329056037136 3312.264705882353 452.2980001365094 3291.323529411765 453.0842945874003 3270.3823529411766 453.43375878779614 3249.4411764705883 453.43375878779614 3228.5 454.3947853388848 3228.5 581.2066070575388Z" fill="#005aa6" opacity="0.9" />
		</g>
		<g>
			<rect x="4372" y="431" width="22.9995" height="23" fill="#e62d39" />
		</g>
		<g>
			<text fill="#595959" font-family="Verdana,sans-serif" font-weight="400" font-size="41" transform="matrix(1 0 0 1 4404.56 454)">Web Browser</text>
		</g>
		<g>
			<rect x="4372" y="508" width="22.9995" height="23" fill="#005aa6" />
		</g>
		<g>
			<text fill="#595959" font-family="Verdana,sans-serif" font-weight="400" font-size="41" transform="matrix(1 0 0 1 4404.56 531)">App</text>
		</g>
	</g>
</svg>
