<svg width="1763" height="1046"
    xmlns="http://www.w3.org/2000/svg"
	xmlns:xlink="http://www.w3.org/1999/xlink" xml:space="preserve" overflow="hidden">
	<defs>
		<clipPath id="clip0">
			<rect x="2917" y="346" width="1763" height="1046"/>
		</clipPath>
	</defs>
	<g clip-path="url(#clip0)" transform="translate(-2917 -346)">
		<rect x="2918" y="347" width="1760" height="1043" fill="#FFFFFF" />
		<g>
			<path d="
			M3228.5 974.532 4296.5 974.532
			M3228.5 910.53 4296.5 910.53
			M3228.5 846.528 4296.5 846.528
			M3228.5 781.526 4296.5 781.526
			M3228.5 717.524 4296.5 717.524
			M3228.5 653.522 4296.5 653.522
			M3228.5 589.52 4296.5 589.52
			M3228.5 525.517 4296.5 525.517
			M3228.5 461.515 4296.5 461.515
			M3228.5 397.5 4296.5 397.5" stroke="#D9D9D9" stroke-width="3.4375" stroke-linejoin="round" stroke-miterlimit="10" fill="none" />
		</g>
		<g>
			<path d="M 1038.5 4296.5 1038.5" stroke="#D9D9D9" stroke-width="3.4375" stroke-linejoin="round" stroke-miterlimit="10" fill="none" fill-rule="evenodd" />
		</g>
		<g>
			<text fill="#595959" font-family="Verdana,sans-serif" font-weight="400" font-size="41" transform="matrix(6.12323e-17 -1 1 6.12323e-17 3244.5 1225)">06-Nov</text>
		</g>
		<g>
			<text fill="#595959" font-family="Verdana,sans-serif" font-weight="400" font-size="41" transform="matrix(6.12323e-17 -1 1 6.12323e-17 3354.0384615384614 1223)">04-Dec</text>
		</g>
		<g>
			<text fill="#595959" font-family="Verdana,sans-serif" font-weight="400" font-size="41" transform="matrix(6.12323e-17 -1 1 6.12323e-17 3463.576923076923 1210)">01-Jan</text>
		</g>
		<g>
			<text fill="#595959" font-family="Verdana,sans-serif" font-weight="400" font-size="41" transform="matrix(6.12323e-17 -1 1 6.12323e-17 3573.1153846153848 1210)">29-Jan</text>
		</g>
		<g>
			<text fill="#595959" font-family="Verdana,sans-serif" font-weight="400" font-size="41" transform="matrix(6.12323e-17 -1 1 6.12323e-17 3682.653846153846 1216)">26-Feb</text>
		</g>
		<g>
			<text fill="#595959" font-family="Verdana,sans-serif" font-weight="400" font-size="41" transform="matrix(6.12323e-17 -1 1 6.12323e-17 3792.1923076923076 1223)">25-Mar</text>
		</g>
		<g>
			<text fill="#595959" font-family="Verdana,sans-serif" font-weight="400" font-size="41" transform="matrix(6.12323e-17 -1 1 6.12323e-17 3905.230769230769 1216)">22-Apr</text>
		</g>
		<g>
			<text fill="#595959" font-family="Verdana,sans-serif" font-weight="400" font-size="41" transform="matrix(6.12323e-17 -1 1 6.12323e-17 4014.7692307692305 1228)">20-May</text>
		</g>
		<g>
			<text fill="#595959" font-family="Verdana,sans-serif" font-weight="400" font-size="41" transform="matrix(6.12323e-17 -1 1 6.12323e-17 4120.307692307692 1209)">17-Jun</text>
		</g>
		<g>
			<text fill="#595959" font-family="Verdana,sans-serif" font-weight="400" font-size="41" transform="matrix(6.12323e-17 -1 1 6.12323e-17 4230.346153846154 1194)">15-Jul</text>
		</g>
		<g>
			<text fill="#595959" font-family="Verdana,sans-serif" font-weight="400" font-size="41" transform="matrix(1 0 0 1 3167.5 1050)">0</text>
		</g>
		<g>
			<text fill="#595959" font-family="Verdana,sans-serif" font-weight="400" font-size="41" transform="matrix(1 0 0 1 3074.5 922)">2,838</text>
		</g>
		<g>
			<text fill="#595959" font-family="Verdana,sans-serif" font-weight="400" font-size="41" transform="matrix(1 0 0 1 3074.5 794)">5,676</text>
		</g>
		<g>
			<text fill="#595959" font-family="Verdana,sans-serif" font-weight="400" font-size="41" transform="matrix(1 0 0 1 3074.5 666)">8,515</text>
		</g>
		<g>
			<text fill="#595959" font-family="Verdana,sans-serif" font-weight="400" font-size="41" transform="matrix(1 0 0 1 3051.5 538)">11,353</text>
		</g>
		<g>
			<text fill="#595959" font-family="Verdana,sans-serif" font-weight="400" font-size="41" transform="matrix(1 0 0 1 3052.5 410)">14,191</text>
		</g>
		<g>
			<text fill="#595959" font-family="Verdana,sans-serif" font-weight="400" font-size="41" transform="matrix(1 0 0 1 3544.5 1321)">Week Commencing</text>
		</g>
		<g>
			<text fill="#595959" font-family="Verdana,sans-serif" font-weight="400" font-size="46" transform="matrix(6.12323e-17 -1 1 6.12323e-17 3019.73 1030.75)">Number of Browser Profiles</text>
		</g>
		<rect x="2918.5" y="347.5" width="1760" height="1043" stroke="#D9D9D9" stroke-width="3.4375" stroke-linejoin="round" stroke-miterlimit="10" fill="none" />
		<g>
			<path d="M3228.5 1038 3255.8846153846152 1038 3283.269230769231 1038 3310.653846153846 1038 3338.0384615384614 1038 3365.423076923077 1038 3392.8076923076924 1038 3420.1923076923076 1038 3447.576923076923 1038 3474.9615384615386 1038 3502.346153846154 1038 3529.730769230769 1038 3557.1153846153848 1038 3584.5 1038 3611.8846153846152 1038 3639.269230769231 1038 3666.653846153846 1038 3694.0384615384614 1038 3721.423076923077 1038 3748.8076923076924 1038 3776.1923076923076 1038 3803.576923076923 1038 3830.9615384615386 1038 3858.346153846154 1038 3885.730769230769 1038 3913.1153846153848 1038 3940.5 1038 3967.8846153846152 1038 3995.2692307692305 1038 4022.653846153846 1038 4050.0384615384614 1038 4077.423076923077 1038 4104.807692307692 1038 4132.192307692308 1038 4159.576923076923 1038 4186.961538461538 1038 4214.346153846154 1038 4241.7307692307695 1038 4269.115384615385 1038 4296.5 1038 4296.5 535.4617715453455 4269.115384615385 536.3186526671834 4241.7307692307695 537.1304347826086 4214.346153846154 537.7167218659713 4186.961538461538 538.1677119300965 4159.576923076923 538.6187019942217 4132.192307692308 539.701078148122 4104.807692307692 540.4677612571347 4077.423076923077 541.2344443661475 4050.0384615384614 542.4070185328729 4022.653846153846 543.5344936931858 3995.2692307692305 544.5717708406737 3967.8846153846152 545.0678599112114 3940.5 545.6541469945739 3913.1153846153848 546.3757310971743 3885.730769230769 547.7287012895497 3858.346153846154 548.9463744626876 3830.9615384615386 550.1640476358255 3803.576923076923 551.6523148474384 3776.1923076923076 552.7797900077513 3748.8076923076924 553.8170671552392 3721.423076923077 554.8994433091395 3694.0384615384614 556.2975125079275 3666.653846153846 558.5975618349657 3639.269230769231 559.048551899091 3611.8846153846152 559.4093439503911 3584.5 561.3486012261292 3557.1153846153848 563.3329575082798 3529.730769230769 563.87414558523 3502.346153846154 564.6859277006554 3474.9615384615386 565.362412796843 3447.576923076923 565.6330068353182 3420.1923076923076 565.6330068353182 3392.8076923076924 566.3996899443309 3365.423076923077 566.850680008456 3338.0384615384614 567.3918680854063 3310.653846153846 568.2938482136565 3283.269230769231 569.0605313226692 3255.8846153846152 569.7370164188569 3228.5 570.2331054893946 3228.5 1038Z" fill="#e62d39" opacity="0.9" />
		</g>
		<g>
			<path d="M3228.5 570.2331054893946 3255.8846153846152 569.7370164188569 3283.269230769231 569.0605313226692 3310.653846153846 568.2938482136565 3338.0384615384614 567.3918680854063 3365.423076923077 566.850680008456 3392.8076923076924 566.3996899443309 3420.1923076923076 565.6330068353182 3447.576923076923 565.6330068353182 3474.9615384615386 565.362412796843 3502.346153846154 564.6859277006554 3529.730769230769 563.87414558523 3557.1153846153848 563.3329575082798 3584.5 561.3486012261292 3611.8846153846152 559.4093439503911 3639.269230769231 559.048551899091 3666.653846153846 558.5975618349657 3694.0384615384614 556.2975125079275 3721.423076923077 554.8994433091395 3748.8076923076924 553.8170671552392 3776.1923076923076 552.7797900077513 3803.576923076923 551.6523148474384 3830.9615384615386 550.1640476358255 3858.346153846154 548.9463744626876 3885.730769230769 547.7287012895497 3913.1153846153848 546.3757310971743 3940.5 545.6541469945739 3967.8846153846152 545.0678599112114 3995.2692307692305 544.5717708406737 4022.653846153846 543.5344936931858 4050.0384615384614 542.4070185328729 4077.423076923077 541.2344443661475 4104.807692307692 540.4677612571347 4132.192307692308 539.701078148122 4159.576923076923 538.6187019942217 4186.961538461538 538.1677119300965 4214.346153846154 537.7167218659713 4241.7307692307695 537.1304347826086 4269.115384615385 536.3186526671834 4296.5 535.4617715453455 4296.5 397.9999999999999 4269.115384615385 399.0372771474878 4241.7307692307695 399.98435628215054 4214.346153846154 400.5706433655132 4186.961538461538 401.11183144246354 4159.576923076923 401.8785145514763 4132.192307692308 403.14128673102664 4104.807692307692 404.0883658656894 4077.423076923077 405.0805440067648 4050.0384615384614 406.56881121837785 4022.653846153846 407.9217814107533 3995.2692307692305 409.0943555774787 3967.8846153846152 409.77084067366644 3940.5 410.49242477626655 3913.1153846153848 411.3493058981044 3885.730769230769 412.9277711225424 3858.346153846154 414.3709393277429 3830.9615384615386 415.81410753294335 3803.576923076923 417.57296878303146 3776.1923076923076 418.9259389754069 3748.8076923076924 420.59460221267 3721.423076923077 422.2181664435205 3694.0384615384614 423.661334648721 3666.653846153846 426.2319780142343 3639.269230769231 426.728067084772 3611.8846153846152 427.2692551617222 3584.5 429.4791064759354 3557.1153846153848 431.5987597773236 3529.730769230769 432.2752448735114 3502.346153846154 433.31252202099927 3474.9615384615386 434.1243041364245 3447.576923076923 434.4850961877246 3420.1923076923076 434.4850961877246 3392.8076923076924 435.4772743287999 3365.423076923077 436.15375942498764 3338.0384615384614 436.74004650835036 3310.653846153846 437.7322246494256 3283.269230769231 438.6342047776759 3255.8846153846152 439.62638291875123 3228.5 440.3028680149389 3228.5 570.2331054893946Z" fill="#005aa6" opacity="0.9" />
		</g>
		<g>
			<rect x="4372" y="431" width="22.9995" height="23" fill="#e62d39" />
		</g>
		<g>
			<text fill="#595959" font-family="Verdana,sans-serif" font-weight="400" font-size="41" transform="matrix(1 0 0 1 4404.56 454)">Web Browser</text>
		</g>
		<g>
			<rect x="4372" y="508" width="22.9995" height="23" fill="#005aa6" />
		</g>
		<g>
			<text fill="#595959" font-family="Verdana,sans-serif" font-weight="400" font-size="41" transform="matrix(1 0 0 1 4404.56 531)">App</text>
		</g>
	</g>
</svg>
