<svg width="1763" height="1046"
    xmlns="http://www.w3.org/2000/svg"
	xmlns:xlink="http://www.w3.org/1999/xlink" xml:space="preserve" overflow="hidden">
	<defs>
		<clipPath id="clip0">
			<rect x="2917" y="346" width="1763" height="1046"/>
		</clipPath>
	</defs>
	<g clip-path="url(#clip0)" transform="translate(-2917 -346)">
		<rect x="2918" y="347" width="1760" height="1043" fill="#FFFFFF" />
		<g>
			<path d="
			M3228.5 974.532 4296.5 974.532
			M3228.5 910.53 4296.5 910.53
			M3228.5 846.528 4296.5 846.528
			M3228.5 781.526 4296.5 781.526
			M3228.5 717.524 4296.5 717.524
			M3228.5 653.522 4296.5 653.522
			M3228.5 589.52 4296.5 589.52
			M3228.5 525.517 4296.5 525.517
			M3228.5 461.515 4296.5 461.515
			M3228.5 397.5 4296.5 397.5" stroke="#D9D9D9" stroke-width="3.4375" stroke-linejoin="round" stroke-miterlimit="10" fill="none" />
		</g>
		<g>
			<path d="M 1038.5 4296.5 1038.5" stroke="#D9D9D9" stroke-width="3.4375" stroke-linejoin="round" stroke-miterlimit="10" fill="none" fill-rule="evenodd" />
		</g>
		<g>
			<text fill="#595959" font-family="Verdana,sans-serif" font-weight="400" font-size="41" transform="matrix(6.12323e-17 -1 1 6.12323e-17 3244 1221)">11-Mar</text>
		</g>
		<g>
			<text fill="#595959" font-family="Verdana,sans-serif" font-weight="400" font-size="41" transform="matrix(6.12323e-17 -1 1 6.12323e-17 3331.764705882353 1217)">08-Apr</text>
		</g>
		<g>
			<text fill="#595959" font-family="Verdana,sans-serif" font-weight="400" font-size="41" transform="matrix(6.12323e-17 -1 1 6.12323e-17 3415.529411764706 1228)">06-May</text>
		</g>
		<g>
			<text fill="#595959" font-family="Verdana,sans-serif" font-weight="400" font-size="41" transform="matrix(6.12323e-17 -1 1 6.12323e-17 3495.794117647059 1211)">03-Jun</text>
		</g>
		<g>
			<text fill="#595959" font-family="Verdana,sans-serif" font-weight="400" font-size="41" transform="matrix(6.12323e-17 -1 1 6.12323e-17 3579.5588235294117 1197)">01-Jul</text>
		</g>
		<g>
			<text fill="#595959" font-family="Verdana,sans-serif" font-weight="400" font-size="41" transform="matrix(6.12323e-17 -1 1 6.12323e-17 3663.323529411765 1196)">29-Jul</text>
		</g>
		<g>
			<text fill="#595959" font-family="Verdana,sans-serif" font-weight="400" font-size="41" transform="matrix(6.12323e-17 -1 1 6.12323e-17 3750.5882352941176 1221)">26-Aug</text>
		</g>
		<g>
			<text fill="#595959" font-family="Verdana,sans-serif" font-weight="400" font-size="41" transform="matrix(6.12323e-17 -1 1 6.12323e-17 3834.3529411764707 1221)">23-Sep</text>
		</g>
		<g>
			<text fill="#595959" font-family="Verdana,sans-serif" font-weight="400" font-size="41" transform="matrix(6.12323e-17 -1 1 6.12323e-17 3914.6176470588234 1215)">21-Oct</text>
		</g>
		<g>
			<text fill="#595959" font-family="Verdana,sans-serif" font-weight="400" font-size="41" transform="matrix(6.12323e-17 -1 1 6.12323e-17 3998.3823529411766 1222)">18-Nov</text>
		</g>
		<g>
			<text fill="#595959" font-family="Verdana,sans-serif" font-weight="400" font-size="41" transform="matrix(6.12323e-17 -1 1 6.12323e-17 4082.1470588235293 1222)">23-Dec</text>
		</g>
		<g>
			<text fill="#595959" font-family="Verdana,sans-serif" font-weight="400" font-size="41" transform="matrix(6.12323e-17 -1 1 6.12323e-17 4165.911764705882 1210)">20-Jan</text>
		</g>
		<g>
			<text fill="#595959" font-family="Verdana,sans-serif" font-weight="400" font-size="41" transform="matrix(6.12323e-17 -1 1 6.12323e-17 4249.676470588235 1214)">17-Feb</text>
		</g>
		<g>
			<text fill="#595959" font-family="Verdana,sans-serif" font-weight="400" font-size="41" transform="matrix(1 0 0 1 3123.5 1050)">0%</text>
		</g>
		<g>
			<text fill="#595959" font-family="Verdana,sans-serif" font-weight="400" font-size="41" transform="matrix(1 0 0 1 3097.5 922)">20%</text>
		</g>
		<g>
			<text fill="#595959" font-family="Verdana,sans-serif" font-weight="400" font-size="41" transform="matrix(1 0 0 1 3096.5 794)">40%</text>
		</g>
		<g>
			<text fill="#595959" font-family="Verdana,sans-serif" font-weight="400" font-size="41" transform="matrix(1 0 0 1 3097.5 666)">60%</text>
		</g>
		<g>
			<text fill="#595959" font-family="Verdana,sans-serif" font-weight="400" font-size="41" transform="matrix(1 0 0 1 3097.5 538)">80%</text>
		</g>
		<g>
			<text fill="#595959" font-family="Verdana,sans-serif" font-weight="400" font-size="41" transform="matrix(1 0 0 1 3074.5 410)">100%</text>
		</g>
		<g>
			<text fill="#595959" font-family="Verdana,sans-serif" font-weight="400" font-size="41" transform="matrix(1 0 0 1 3544.5 1321)">Week Commencing</text>
		</g>
		<g>
			<text fill="#595959" font-family="Verdana,sans-serif" font-weight="400" font-size="46" transform="matrix(6.12323e-17 -1 1 6.12323e-17 3019.73 965.25)">Requests (% of Total)</text>
		</g>
		<rect x="2918.5" y="347.5" width="1760" height="1043" stroke="#D9D9D9" stroke-width="3.4375" stroke-linejoin="round" stroke-miterlimit="10" fill="none" />
		<g>
			<path d="M3228.5 1038 3249.4411764705883 1038 3270.3823529411766 1038 3291.323529411765 1038 3312.264705882353 1038 3333.205882352941 1038 3354.1470588235293 1038 3375.0882352941176 1038 3396.029411764706 1038 3416.970588235294 1038 3437.9117647058824 1038 3458.8529411764707 1038 3479.794117647059 1038 3500.735294117647 1038 3521.676470588235 1038 3542.6176470588234 1038 3563.5588235294117 1038 3584.5 1038 3605.4411764705883 1038 3626.3823529411766 1038 3647.323529411765 1038 3668.264705882353 1038 3689.205882352941 1038 3710.1470588235293 1038 3731.0882352941176 1038 3752.029411764706 1038 3772.970588235294 1038 3793.9117647058824 1038 3814.8529411764707 1038 3835.7941176470586 1038 3856.735294117647 1038 3877.676470588235 1038 3898.6176470588234 1038 3919.5588235294117 1038 3940.5 1038 3961.4411764705883 1038 3982.3823529411766 1038 4003.323529411765 1038 4024.264705882353 1038 4045.2058823529414 1038 4066.1470588235293 1038 4087.0882352941176 1038 4108.029411764706 1038 4128.970588235294 1038 4149.911764705882 1038 4170.85294117647 1038 4191.794117647059 1038 4212.735294117647 1038 4233.676470588235 1038 4254.617647058823 1038 4275.558823529412 1038 4296.5 1038 4296.5 584.8421137404707 4275.558823529412 584.3697869147531 4254.617647058823 582.8150128997006 4233.676470588235 582.5177383576936 4212.735294117647 582.3344680120879 4191.794117647059 582.5939821313019 4170.85294117647 581.9303729662242 4149.911764705882 581.2253151836085 4128.970588235294 580.7419087611287 4108.029411764706 580.710243189289 4087.0882352941176 580.6735762948426 4066.1470588235293 580.9280737837942 4045.2058823529414 581.4872454103777 4024.264705882353 582.4062939611431 4003.323529411765 569.6826475023468 3982.3823529411766 569.8912689965251 3961.4411764705883 569.9302361292804 3940.5 569.8349942572809 3919.5588235294117 569.5040370531727 3898.6176470588234 717.6623105620715 3877.676470588235 693.0292117157351 3856.735294117647 692.8367597789183 3835.7941176470586 692.6574656354969 3814.8529411764707 684.2461914870885 3793.9117647058824 684.0344882877787 3772.970588235294 684.1358174388192 3752.029411764706 683.9806402948523 3731.0882352941176 683.9172481230904 3710.1470588235293 683.650703471495 3689.205882352941 683.2253967284606 3668.264705882353 683.0202318089205 3647.323529411765 682.9152439485392 3626.3823529411766 682.6018446393113 3605.4411764705883 682.3232723398903 3584.5 692.0678617680483 3563.5588235294117 692.1617344671945 3542.6176470588234 692.8199164999976 3521.676470588235 693.1175071055251 3500.735294117647 693.279620378092 3479.794117647059 693.7023667945714 3458.8529411764707 694.1241584254815 3437.9117647058824 694.1818102912466 3416.970588235294 694.1642138907431 3396.029411764706 694.1125422243633 3375.0882352941176 694.1000133322768 3354.1470588235293 694.3187105935212 3333.205882352941 693.6205909506452 3312.264705882353 692.0050611605195 3291.323529411765 690.3198452220047 3270.3823529411766 688.7547930560947 3249.4411764705883 684.6952509793664 3228.5 679.1608039260515 3228.5 1038Z" fill="#e62d39" opacity="0.9" />
		</g>
		<g>
			<path d="M3228.5 679.1608039260515 3249.4411764705883 684.6952509793664 3270.3823529411766 688.7547930560947 3291.323529411765 690.3198452220047 3312.264705882353 692.0050611605195 3333.205882352941 693.6205909506452 3354.1470588235293 694.3187105935212 3375.0882352941176 694.1000133322768 3396.029411764706 694.1125422243633 3416.970588235294 694.1642138907431 3437.9117647058824 694.1818102912466 3458.8529411764707 694.1241584254815 3479.794117647059 693.7023667945714 3500.735294117647 693.279620378092 3521.676470588235 693.1175071055251 3542.6176470588234 692.8199164999976 3563.5588235294117 692.1617344671945 3584.5 692.0678617680483 3605.4411764705883 682.3232723398903 3626.3823529411766 682.6018446393113 3647.323529411765 682.9152439485392 3668.264705882353 683.0202318089205 3689.205882352941 683.2253967284606 3710.1470588235293 683.650703471495 3731.0882352941176 683.9172481230904 3752.029411764706 683.9806402948523 3772.970588235294 684.1358174388192 3793.9117647058824 684.0344882877787 3814.8529411764707 684.2461914870885 3835.7941176470586 692.6574656354969 3856.735294117647 692.8367597789183 3877.676470588235 693.0292117157351 3898.6176470588234 717.6623105620715 3919.5588235294117 569.5040370531727 3940.5 569.8349942572809 3961.4411764705883 569.9302361292804 3982.3823529411766 569.8912689965251 4003.323529411765 569.6826475023468 4024.264705882353 582.4062939611431 4045.2058823529414 581.4872454103777 4066.1470588235293 580.9280737837942 4087.0882352941176 580.6735762948426 4108.029411764706 580.710243189289 4128.970588235294 580.7419087611287 4149.911764705882 581.2253151836085 4170.85294117647 581.9303729662242 4191.794117647059 582.5939821313019 4212.735294117647 582.3344680120879 4233.676470588235 582.5177383576936 4254.617647058823 582.8150128997006 4275.558823529412 584.3697869147531 4296.5 584.8421137404707 4296.5 399.60517704227266 4275.558823529412 399.58267002165013 4254.617647058823 398.76939218444284 4233.676470588235 398.748881893379 4212.735294117647 398.75079403491515 4191.794117647059 398.74677273073394 4170.85294117647 398.7411343617605 4149.911764705882 398.7379557747454 4128.970588235294 398.70704867301595 4108.029411764706 398.70882925199004 4087.0882352941176 398.7008574619051 4066.1470588235293 398.68535542850464 4045.2058823529414 398.67102339002776 4024.264705882353 398.67520739706913 4003.323529411765 399.27182314363034 3982.3823529411766 399.262582558681 3961.4411764705883 399.27351700187455 3940.5 399.28077369767425 3919.5588235294117 399.29931326714217 3898.6176470588234 463.6506199133046 3877.676470588235 458.1198955073757 3856.735294117647 457.6909023203396 3835.7941176470586 457.1922376810141 3814.8529411764707 442.93735389999836 3793.9117647058824 442.4560046260649 3772.970588235294 441.9523894028935 3752.029411764706 441.5335721284329 3731.0882352941176 441.085682632276 3710.1470588235293 440.7511233983183 3689.205882352941 440.358904599104 3668.264705882353 439.99162530587694 3647.323529411765 439.5878575638358 3626.3823529411766 439.2709286792896 3605.4411764705883 439.03517502824866 3584.5 438.2387094064713 3563.5588235294117 437.86557118539895 3542.6176470588234 437.9037489834077 3521.676470588235 437.50828716559636 3500.735294117647 437.0430647748583 3479.794117647059 436.55579203505033 3458.8529411764707 435.9902777401653 3437.9117647058824 435.4750218802621 3416.970588235294 434.9235826881617 3396.029411764706 434.50854774480695 3375.0882352941176 434.2228656036452 3354.1470588235293 433.89359402287107 3333.205882352941 433.6904179753529 3312.264705882353 433.5882703257375 3291.323529411765 433.47006547647834 3270.3823529411766 433.35408809308973 3249.4411764705883 433.21208388667225 3228.5 422.122193997944 3228.5 679.1608039260515Z" fill="#005aa6" opacity="0.9" />
		</g>
		<g>
			<path d="M3228.5 422.122193997944 3249.4411764705883 433.21208388667225 3270.3823529411766 433.35408809308973 3291.323529411765 433.47006547647834 3312.264705882353 433.5882703257375 3333.205882352941 433.6904179753529 3354.1470588235293 433.89359402287107 3375.0882352941176 434.2228656036452 3396.029411764706 434.50854774480695 3416.970588235294 434.9235826881617 3437.9117647058824 435.4750218802621 3458.8529411764707 435.9902777401653 3479.794117647059 436.55579203505033 3500.735294117647 437.0430647748583 3521.676470588235 437.50828716559636 3542.6176470588234 437.9037489834077 3563.5588235294117 437.86557118539895 3584.5 438.2387094064713 3605.4411764705883 439.03517502824866 3626.3823529411766 439.2709286792896 3647.323529411765 439.5878575638358 3668.264705882353 439.99162530587694 3689.205882352941 440.358904599104 3710.1470588235293 440.7511233983183 3731.0882352941176 441.085682632276 3752.029411764706 441.5335721284329 3772.970588235294 441.9523894028935 3793.9117647058824 442.4560046260649 3814.8529411764707 442.93735389999836 3835.7941176470586 457.1922376810141 3856.735294117647 457.6909023203396 3877.676470588235 458.1198955073757 3898.6176470588234 463.6506199133046 3919.5588235294117 399.29931326714217 3940.5 399.28077369767425 3961.4411764705883 399.27351700187455 3982.3823529411766 399.262582558681 4003.323529411765 399.27182314363034 4024.264705882353 398.67520739706913 4045.2058823529414 398.67102339002776 4066.1470588235293 398.68535542850464 4087.0882352941176 398.7008574619051 4108.029411764706 398.70882925199004 4128.970588235294 398.70704867301595 4149.911764705882 398.7379557747454 4170.85294117647 398.7411343617605 4191.794117647059 398.74677273073394 4212.735294117647 398.75079403491515 4233.676470588235 398.748881893379 4254.617647058823 398.76939218444284 4275.558823529412 399.58267002165013 4296.5 399.60517704227266 4296.5 398 4275.558823529412 398.00000000000006 4254.617647058823 398 4233.676470588235 397.99999999999994 4212.735294117647 398 4191.794117647059 398 4170.85294117647 397.99999999999994 4149.911764705882 398.00000000000006 4128.970588235294 398 4108.029411764706 398 4087.0882352941176 398.00000000000006 4066.1470588235293 397.99999999999994 4045.2058823529414 398.00000000000006 4024.264705882353 398.00000000000006 4003.323529411765 398 3982.3823529411766 398 3961.4411764705883 398.00000000000006 3940.5 397.99999999999994 3919.5588235294117 398 3898.6176470588234 398 3877.676470588235 398.00000000000006 3856.735294117647 398.00000000000006 3835.7941176470586 398.0000000000001 3814.8529411764707 398 3793.9117647058824 397.99999999999994 3772.970588235294 398.00000000000006 3752.029411764706 397.99999999999994 3731.0882352941176 398 3710.1470588235293 398.00000000000006 3689.205882352941 397.99999999999994 3668.264705882353 398 3647.323529411765 398 3626.3823529411766 397.9999999999999 3605.4411764705883 397.99999999999994 3584.5 398.00000000000006 3563.5588235294117 398 3542.6176470588234 398 3521.676470588235 398.00000000000006 3500.735294117647 397.9999999999999 3479.794117647059 398 3458.8529411764707 397.99999999999994 3437.9117647058824 398 3416.970588235294 398 3396.029411764706 397.9999999999999 3375.0882352941176 397.9999999999999 3354.1470588235293 398.0000000000001 3333.205882352941 398 3312.264705882353 397.99999999999994 3291.323529411765 398.00000000000006 3270.3823529411766 398 3249.4411764705883 398 3228.5 398 3228.5 422.122193997944Z" fill="#393d41" opacity="0.9" />
		</g>
		<g>
			<rect x="4372" y="431" width="22.9995" height="23" fill="#e62d39" />
		</g>
		<g>
			<text fill="#595959" font-family="Verdana,sans-serif" font-weight="400" font-size="41" transform="matrix(1 0 0 1 4404.56 454)">Web Browser</text>
		</g>
		<g>
			<rect x="4372" y="508" width="22.9995" height="23" fill="#005aa6" />
		</g>
		<g>
			<text fill="#595959" font-family="Verdana,sans-serif" font-weight="400" font-size="41" transform="matrix(1 0 0 1 4404.56 531)">App</text>
		</g>
		<g>
			<rect x="4372" y="585" width="22.9995" height="23" fill="#393d41" />
		</g>
		<g>
			<text fill="#595959" font-family="Verdana,sans-serif" font-weight="400" font-size="41" transform="matrix(1 0 0 1 4404.56 608)">Unclassified</text>
		</g>
	</g>
</svg>
