<svg width="1763" height="1046"
    xmlns="http://www.w3.org/2000/svg"
	xmlns:xlink="http://www.w3.org/1999/xlink" xml:space="preserve" overflow="hidden">
	<defs>
		<clipPath id="clip0">
			<rect x="2917" y="346" width="1763" height="1046"/>
		</clipPath>
	</defs>
	<g clip-path="url(#clip0)" transform="translate(-2917 -346)">
		<rect x="2918" y="347" width="1760" height="1043" fill="#FFFFFF" />
		<g>
			<path d="
			M3228.5 974.532 4296.5 974.532
			M3228.5 910.53 4296.5 910.53
			M3228.5 846.528 4296.5 846.528
			M3228.5 781.526 4296.5 781.526
			M3228.5 717.524 4296.5 717.524
			M3228.5 653.522 4296.5 653.522
			M3228.5 589.52 4296.5 589.52
			M3228.5 525.517 4296.5 525.517
			M3228.5 461.515 4296.5 461.515
			M3228.5 397.5 4296.5 397.5" stroke="#D9D9D9" stroke-width="3.4375" stroke-linejoin="round" stroke-miterlimit="10" fill="none" />
		</g>
		<g>
			<path d="M 1038.5 4296.5 1038.5" stroke="#D9D9D9" stroke-width="3.4375" stroke-linejoin="round" stroke-miterlimit="10" fill="none" fill-rule="evenodd" />
		</g>
		<g>
			<text fill="#595959" font-family="Verdana,sans-serif" font-weight="400" font-size="41" transform="matrix(6.12323e-17 -1 1 6.12323e-17 3248 1228)">27-May</text>
		</g>
		<g>
			<text fill="#595959" font-family="Verdana,sans-serif" font-weight="400" font-size="41" transform="matrix(6.12323e-17 -1 1 6.12323e-17 3329.94 1211)">24-Jun</text>
		</g>
		<g>
			<text fill="#595959" font-family="Verdana,sans-serif" font-weight="400" font-size="41" transform="matrix(6.12323e-17 -1 1 6.12323e-17 3415.38 1196)">22-Jul</text>
		</g>
		<g>
			<text fill="#595959" font-family="Verdana,sans-serif" font-weight="400" font-size="41" transform="matrix(6.12323e-17 -1 1 6.12323e-17 3504.32 1218)">19-Aug</text>
		</g>
		<g>
			<text fill="#595959" font-family="Verdana,sans-serif" font-weight="400" font-size="41" transform="matrix(6.12323e-17 -1 1 6.12323e-17 3589.76 1219)">16-Sep</text>
		</g>
		<g>
			<text fill="#595959" font-family="Verdana,sans-serif" font-weight="400" font-size="41" transform="matrix(6.12323e-17 -1 1 6.12323e-17 3671.7 1213)">14-Oct</text>
		</g>
		<g>
			<text fill="#595959" font-family="Verdana,sans-serif" font-weight="400" font-size="41" transform="matrix(6.12323e-17 -1 1 6.12323e-17 3756.64 1222)">11-Nov</text>
		</g>
		<g>
			<text fill="#595959" font-family="Verdana,sans-serif" font-weight="400" font-size="41" transform="matrix(6.12323e-17 -1 1 6.12323e-17 3842.08 1220)">16-Dec</text>
		</g>
		<g>
			<text fill="#595959" font-family="Verdana,sans-serif" font-weight="400" font-size="41" transform="matrix(6.12323e-17 -1 1 6.12323e-17 3928.02 1207)">13-Jan</text>
		</g>
		<g>
			<text fill="#595959" font-family="Verdana,sans-serif" font-weight="400" font-size="41" transform="matrix(6.12323e-17 -1 1 6.12323e-17 4013.46 1214)">10-Feb</text>
		</g>
		<g>
			<text fill="#595959" font-family="Verdana,sans-serif" font-weight="400" font-size="41" transform="matrix(6.12323e-17 -1 1 6.12323e-17 4098.9 1221)">10-Mar</text>
		</g>
		<g>
			<text fill="#595959" font-family="Verdana,sans-serif" font-weight="400" font-size="41" transform="matrix(6.12323e-17 -1 1 6.12323e-17 4187.84 1217)">07-Apr</text>
		</g>
		<g>
			<text fill="#595959" font-family="Verdana,sans-serif" font-weight="400" font-size="41" transform="matrix(6.12323e-17 -1 1 6.12323e-17 4273.28 1228)">05-May</text>
		</g>
		<g>
			<text fill="#595959" font-family="Verdana,sans-serif" font-weight="400" font-size="41" transform="matrix(1 0 0 1 3123.5 1050)">0%</text>
		</g>
		<g>
			<text fill="#595959" font-family="Verdana,sans-serif" font-weight="400" font-size="41" transform="matrix(1 0 0 1 3097.5 922)">20%</text>
		</g>
		<g>
			<text fill="#595959" font-family="Verdana,sans-serif" font-weight="400" font-size="41" transform="matrix(1 0 0 1 3096.5 794)">40%</text>
		</g>
		<g>
			<text fill="#595959" font-family="Verdana,sans-serif" font-weight="400" font-size="41" transform="matrix(1 0 0 1 3097.5 666)">60%</text>
		</g>
		<g>
			<text fill="#595959" font-family="Verdana,sans-serif" font-weight="400" font-size="41" transform="matrix(1 0 0 1 3097.5 538)">80%</text>
		</g>
		<g>
			<text fill="#595959" font-family="Verdana,sans-serif" font-weight="400" font-size="41" transform="matrix(1 0 0 1 3074.5 410)">100%</text>
		</g>
		<g>
			<text fill="#595959" font-family="Verdana,sans-serif" font-weight="400" font-size="41" transform="matrix(1 0 0 1 3544.5 1321)">Week Commencing</text>
		</g>
		<g>
			<text fill="#595959" font-family="Verdana,sans-serif" font-weight="400" font-size="46" transform="matrix(6.12323e-17 -1 1 6.12323e-17 3019.73 965.25)">Requests (% of Total)</text>
		</g>
		<rect x="2918.5" y="347.5" width="1760" height="1043" stroke="#D9D9D9" stroke-width="3.4375" stroke-linejoin="round" stroke-miterlimit="10" fill="none" />
		<g>
			<path d="M3228.5 1038 3249.86 1038 3271.22 1038 3292.58 1038 3313.94 1038 3335.3 1038 3356.66 1038 3378.02 1038 3399.38 1038 3420.74 1038 3442.1 1038 3463.46 1038 3484.82 1038 3506.18 1038 3527.54 1038 3548.9 1038 3570.26 1038 3591.62 1038 3612.98 1038 3634.34 1038 3655.7 1038 3677.06 1038 3698.42 1038 3719.7799999999997 1038 3741.14 1038 3762.5 1038 3783.86 1038 3805.2200000000003 1038 3826.58 1038 3847.94 1038 3869.3 1038 3890.66 1038 3912.02 1038 3933.38 1038 3954.74 1038 3976.1 1038 3997.46 1038 4018.8199999999997 1038 4040.18 1038 4061.54 1038 4082.9 1038 4104.26 1038 4125.62 1038 4146.98 1038 4168.34 1038 4189.7 1038 4211.0599999999995 1038 4232.42 1038 4253.78 1038 4275.139999999999 1038 4296.5 1038 4296.5 636.9751756855164 4275.139999999999 635.4729707714018 4253.78 634.0735967176577 4232.42 632.8947266339228 4211.0599999999995 631.9364864355447 4189.7 630.6938210695101 4168.34 629.5047785696727 4146.98 628.3884215694598 4125.62 626.7876738161085 4104.26 585.3299764795494 4082.9 584.8421137404707 4061.54 584.3697869147531 4040.18 582.8150128997006 4018.8199999999997 582.5177383576936 3997.46 582.3344680120879 3976.1 582.5939821313019 3954.74 581.9303729662242 3933.38 581.2253151836085 3912.02 580.7419087611287 3890.66 580.710243189289 3869.3 580.6735762948426 3847.94 580.9280737837942 3826.58 581.4872454103777 3805.2200000000003 582.4062939611431 3783.86 569.6826475023468 3762.5 569.8912689965251 3741.14 569.9302361292804 3719.7799999999997 569.8349942572809 3698.42 569.5040370531727 3677.06 717.6623105620715 3655.7 693.0292117157351 3634.34 692.8367597789183 3612.98 692.6574656354969 3591.62 684.2461914870885 3570.26 684.0344882877787 3548.9 684.1358174388192 3527.54 683.9806402948523 3506.18 683.9172481230904 3484.82 683.650703471495 3463.46 683.2253967284606 3442.1 683.0202318089205 3420.74 682.9152439485392 3399.38 682.6018446393113 3378.02 682.3232723398903 3356.66 692.0678617680483 3335.3 692.1617344671945 3313.94 692.8199164999976 3292.58 693.1175071055251 3271.22 693.279620378092 3249.86 693.7023667945714 3228.5 694.1241584254815 3228.5 1038Z" fill="#e62d39" opacity="0.9" />
		</g>
		<g>
			<path d="M3228.5 694.1241584254815 3249.86 693.7023667945714 3271.22 693.279620378092 3292.58 693.1175071055251 3313.94 692.8199164999976 3335.3 692.1617344671945 3356.66 692.0678617680483 3378.02 682.3232723398903 3399.38 682.6018446393113 3420.74 682.9152439485392 3442.1 683.0202318089205 3463.46 683.2253967284606 3484.82 683.650703471495 3506.18 683.9172481230904 3527.54 683.9806402948523 3548.9 684.1358174388192 3570.26 684.0344882877787 3591.62 684.2461914870885 3612.98 692.6574656354969 3634.34 692.8367597789183 3655.7 693.0292117157351 3677.06 717.6623105620715 3698.42 569.5040370531727 3719.7799999999997 569.8349942572809 3741.14 569.9302361292804 3762.5 569.8912689965251 3783.86 569.6826475023468 3805.2200000000003 582.4062939611431 3826.58 581.4872454103777 3847.94 580.9280737837942 3869.3 580.6735762948426 3890.66 580.710243189289 3912.02 580.7419087611287 3933.38 581.2253151836085 3954.74 581.9303729662242 3976.1 582.5939821313019 3997.46 582.3344680120879 4018.8199999999997 582.5177383576936 4040.18 582.8150128997006 4061.54 584.3697869147531 4082.9 584.8421137404707 4104.26 585.3299764795494 4125.62 626.7876738161085 4146.98 628.3884215694598 4168.34 629.5047785696727 4189.7 630.6938210695101 4211.0599999999995 631.9364864355447 4232.42 632.8947266339228 4253.78 634.0735967176577 4275.139999999999 635.4729707714018 4296.5 636.9751756855164 4296.5 399.9334041710105 4275.139999999999 399.8797680654118 4253.78 399.8310554200368 4232.42 399.77429194002207 4211.0599999999995 399.72528771121347 4189.7 399.7049408705508 4168.34 400.0041449048839 4146.98 399.9604159100104 4125.62 399.99059261305473 4104.26 399.5837460145528 4082.9 399.60517704227266 4061.54 399.58267002165013 4040.18 398.76939218444284 4018.8199999999997 398.748881893379 3997.46 398.75079403491515 3976.1 398.74677273073394 3954.74 398.7411343617605 3933.38 398.7379557747454 3912.02 398.70704867301595 3890.66 398.70882925199004 3869.3 398.7008574619051 3847.94 398.68535542850464 3826.58 398.67102339002776 3805.2200000000003 398.67520739706913 3783.86 399.27182314363034 3762.5 399.262582558681 3741.14 399.27351700187455 3719.7799999999997 399.28077369767425 3698.42 399.29931326714217 3677.06 463.6506199133046 3655.7 458.1198955073757 3634.34 457.6909023203396 3612.98 457.1922376810141 3591.62 442.93735389999836 3570.26 442.4560046260649 3548.9 441.9523894028935 3527.54 441.5335721284329 3506.18 441.085682632276 3484.82 440.7511233983183 3463.46 440.358904599104 3442.1 439.99162530587694 3420.74 439.5878575638358 3399.38 439.2709286792896 3378.02 439.03517502824866 3356.66 438.2387094064713 3335.3 437.86557118539895 3313.94 437.9037489834077 3292.58 437.50828716559636 3271.22 437.0430647748583 3249.86 436.55579203505033 3228.5 435.9902777401653 3228.5 694.1241584254815Z" fill="#005aa6" opacity="0.9" />
		</g>
		<g>
			<path d="M3228.5 435.9902777401653 3249.86 436.55579203505033 3271.22 437.0430647748583 3292.58 437.50828716559636 3313.94 437.9037489834077 3335.3 437.86557118539895 3356.66 438.2387094064713 3378.02 439.03517502824866 3399.38 439.2709286792896 3420.74 439.5878575638358 3442.1 439.99162530587694 3463.46 440.358904599104 3484.82 440.7511233983183 3506.18 441.085682632276 3527.54 441.5335721284329 3548.9 441.9523894028935 3570.26 442.4560046260649 3591.62 442.93735389999836 3612.98 457.1922376810141 3634.34 457.6909023203396 3655.7 458.1198955073757 3677.06 463.6506199133046 3698.42 399.29931326714217 3719.7799999999997 399.28077369767425 3741.14 399.27351700187455 3762.5 399.262582558681 3783.86 399.27182314363034 3805.2200000000003 398.67520739706913 3826.58 398.67102339002776 3847.94 398.68535542850464 3869.3 398.7008574619051 3890.66 398.70882925199004 3912.02 398.70704867301595 3933.38 398.7379557747454 3954.74 398.7411343617605 3976.1 398.74677273073394 3997.46 398.75079403491515 4018.8199999999997 398.748881893379 4040.18 398.76939218444284 4061.54 399.58267002165013 4082.9 399.60517704227266 4104.26 399.5837460145528 4125.62 399.99059261305473 4146.98 399.9604159100104 4168.34 400.0041449048839 4189.7 399.7049408705508 4211.0599999999995 399.72528771121347 4232.42 399.77429194002207 4253.78 399.8310554200368 4275.139999999999 399.8797680654118 4296.5 399.9334041710105 4296.5 397.99999999999994 4275.139999999999 397.99999999999994 4253.78 397.99999999999994 4232.42 397.9999999999999 4211.0599999999995 397.9999999999999 4189.7 398 4168.34 398.00000000000006 4146.98 397.99999999999994 4125.62 397.99999999999994 4104.26 398.00000000000006 4082.9 398 4061.54 398.00000000000006 4040.18 398 4018.8199999999997 397.99999999999994 3997.46 398 3976.1 398 3954.74 397.99999999999994 3933.38 398.00000000000006 3912.02 398 3890.66 398 3869.3 398.00000000000006 3847.94 397.99999999999994 3826.58 398.00000000000006 3805.2200000000003 398.00000000000006 3783.86 398 3762.5 398 3741.14 398.00000000000006 3719.7799999999997 397.99999999999994 3698.42 398 3677.06 398 3655.7 398.00000000000006 3634.34 398.00000000000006 3612.98 398.0000000000001 3591.62 398 3570.26 397.99999999999994 3548.9 398.00000000000006 3527.54 397.99999999999994 3506.18 398 3484.82 398.00000000000006 3463.46 397.99999999999994 3442.1 398 3420.74 398 3399.38 397.9999999999999 3378.02 397.99999999999994 3356.66 398.00000000000006 3335.3 398 3313.94 398 3292.58 398.00000000000006 3271.22 397.9999999999999 3249.86 398 3228.5 397.99999999999994 3228.5 435.9902777401653Z" fill="#393d41" opacity="0.9" />
		</g>
		<g>
			<rect x="4372" y="431" width="22.9995" height="23" fill="#e62d39" />
		</g>
		<g>
			<text fill="#595959" font-family="Verdana,sans-serif" font-weight="400" font-size="41" transform="matrix(1 0 0 1 4404.56 454)">Web Browser</text>
		</g>
		<g>
			<rect x="4372" y="508" width="22.9995" height="23" fill="#005aa6" />
		</g>
		<g>
			<text fill="#595959" font-family="Verdana,sans-serif" font-weight="400" font-size="41" transform="matrix(1 0 0 1 4404.56 531)">App</text>
		</g>
		<g>
			<rect x="4372" y="585" width="22.9995" height="23" fill="#393d41" />
		</g>
		<g>
			<text fill="#595959" font-family="Verdana,sans-serif" font-weight="400" font-size="41" transform="matrix(1 0 0 1 4404.56 608)">Unclassified</text>
		</g>
	</g>
</svg>
