<svg width="1763" height="1046"
    xmlns="http://www.w3.org/2000/svg"
	xmlns:xlink="http://www.w3.org/1999/xlink" xml:space="preserve" overflow="hidden">
	<defs>
		<clipPath id="clip0">
			<rect x="2917" y="346" width="1763" height="1046"/>
		</clipPath>
	</defs>
	<g clip-path="url(#clip0)" transform="translate(-2917 -346)">
		<rect x="2918" y="347" width="1760" height="1043" fill="#FFFFFF" />
		<g>
			<path d="
			M3228.5 974.532 4296.5 974.532
			M3228.5 910.53 4296.5 910.53
			M3228.5 846.528 4296.5 846.528
			M3228.5 781.526 4296.5 781.526
			M3228.5 717.524 4296.5 717.524
			M3228.5 653.522 4296.5 653.522
			M3228.5 589.52 4296.5 589.52
			M3228.5 525.517 4296.5 525.517
			M3228.5 461.515 4296.5 461.515
			M3228.5 397.5 4296.5 397.5" stroke="#D9D9D9" stroke-width="3.4375" stroke-linejoin="round" stroke-miterlimit="10" fill="none" />
		</g>
		<g>
			<path d="M 1038.5 4296.5 1038.5" stroke="#D9D9D9" stroke-width="3.4375" stroke-linejoin="round" stroke-miterlimit="10" fill="none" fill-rule="evenodd" />
		</g>
		<g>
			<text fill="#595959" font-family="Verdana,sans-serif" font-weight="400" font-size="41" transform="matrix(6.12323e-17 -1 1 6.12323e-17 3244.5 1225)">06-Nov</text>
		</g>
		<g>
			<text fill="#595959" font-family="Verdana,sans-serif" font-weight="400" font-size="41" transform="matrix(6.12323e-17 -1 1 6.12323e-17 3320.785714285714 1224)">20-Nov</text>
		</g>
		<g>
			<text fill="#595959" font-family="Verdana,sans-serif" font-weight="400" font-size="41" transform="matrix(6.12323e-17 -1 1 6.12323e-17 3397.0714285714284 1223)">04-Dec</text>
		</g>
		<g>
			<text fill="#595959" font-family="Verdana,sans-serif" font-weight="400" font-size="41" transform="matrix(6.12323e-17 -1 1 6.12323e-17 3473.357142857143 1220)">18-Dec</text>
		</g>
		<g>
			<text fill="#595959" font-family="Verdana,sans-serif" font-weight="400" font-size="41" transform="matrix(6.12323e-17 -1 1 6.12323e-17 3549.6428571428573 1210)">01-Jan</text>
		</g>
		<g>
			<text fill="#595959" font-family="Verdana,sans-serif" font-weight="400" font-size="41" transform="matrix(6.12323e-17 -1 1 6.12323e-17 3625.4285714285716 1207)">15-Jan</text>
		</g>
		<g>
			<text fill="#595959" font-family="Verdana,sans-serif" font-weight="400" font-size="41" transform="matrix(6.12323e-17 -1 1 6.12323e-17 3702.214285714286 1210)">29-Jan</text>
		</g>
		<g>
			<text fill="#595959" font-family="Verdana,sans-serif" font-weight="400" font-size="41" transform="matrix(6.12323e-17 -1 1 6.12323e-17 3778.5 1214)">12-Feb</text>
		</g>
		<g>
			<text fill="#595959" font-family="Verdana,sans-serif" font-weight="400" font-size="41" transform="matrix(6.12323e-17 -1 1 6.12323e-17 3854.785714285714 1216)">26-Feb</text>
		</g>
		<g>
			<text fill="#595959" font-family="Verdana,sans-serif" font-weight="400" font-size="41" transform="matrix(6.12323e-17 -1 1 6.12323e-17 3930.5714285714284 1221)">11-Mar</text>
		</g>
		<g>
			<text fill="#595959" font-family="Verdana,sans-serif" font-weight="400" font-size="41" transform="matrix(6.12323e-17 -1 1 6.12323e-17 4007.357142857143 1223)">25-Mar</text>
		</g>
		<g>
			<text fill="#595959" font-family="Verdana,sans-serif" font-weight="400" font-size="41" transform="matrix(6.12323e-17 -1 1 6.12323e-17 4087.1428571428573 1217)">08-Apr</text>
		</g>
		<g>
			<text fill="#595959" font-family="Verdana,sans-serif" font-weight="400" font-size="41" transform="matrix(6.12323e-17 -1 1 6.12323e-17 4163.428571428572 1216)">22-Apr</text>
		</g>
		<g>
			<text fill="#595959" font-family="Verdana,sans-serif" font-weight="400" font-size="41" transform="matrix(6.12323e-17 -1 1 6.12323e-17 4239.714285714286 1228)">06-May</text>
		</g>
		<g>
			<text fill="#595959" font-family="Verdana,sans-serif" font-weight="400" font-size="41" transform="matrix(6.12323e-17 -1 1 6.12323e-17 4316 1228)">20-May</text>
		</g>
		<g>
			<text fill="#595959" font-family="Verdana,sans-serif" font-weight="400" font-size="41" transform="matrix(1 0 0 1 3167.5 1050)">0</text>
		</g>
		<g>
			<text fill="#595959" font-family="Verdana,sans-serif" font-weight="400" font-size="41" transform="matrix(1 0 0 1 3074.5 922)">2,789</text>
		</g>
		<g>
			<text fill="#595959" font-family="Verdana,sans-serif" font-weight="400" font-size="41" transform="matrix(1 0 0 1 3075.5 794)">5,578</text>
		</g>
		<g>
			<text fill="#595959" font-family="Verdana,sans-serif" font-weight="400" font-size="41" transform="matrix(1 0 0 1 3073.5 666)">8,367</text>
		</g>
		<g>
			<text fill="#595959" font-family="Verdana,sans-serif" font-weight="400" font-size="41" transform="matrix(1 0 0 1 3050.5 538)">11,156</text>
		</g>
		<g>
			<text fill="#595959" font-family="Verdana,sans-serif" font-weight="400" font-size="41" transform="matrix(1 0 0 1 3051.5 410)">13,945</text>
		</g>
		<g>
			<text fill="#595959" font-family="Verdana,sans-serif" font-weight="400" font-size="41" transform="matrix(1 0 0 1 3544.5 1321)">Week Commencing</text>
		</g>
		<g>
			<text fill="#595959" font-family="Verdana,sans-serif" font-weight="400" font-size="46" transform="matrix(6.12323e-17 -1 1 6.12323e-17 3019.73 1030.75)">Number of Browser Profiles</text>
		</g>
		<rect x="2918.5" y="347.5" width="1760" height="1043" stroke="#D9D9D9" stroke-width="3.4375" stroke-linejoin="round" stroke-miterlimit="10" fill="none" />
		<g>
			<path d="M3228.5 1038 3266.6428571428573 1038 3304.785714285714 1038 3342.9285714285716 1038 3381.0714285714284 1038 3419.214285714286 1038 3457.357142857143 1038 3495.5 1038 3533.6428571428573 1038 3571.785714285714 1038 3609.9285714285716 1038 3648.0714285714284 1038 3686.214285714286 1038 3724.357142857143 1038 3762.5 1038 3800.6428571428573 1038 3838.785714285714 1038 3876.9285714285716 1038 3915.0714285714284 1038 3953.214285714286 1038 3991.357142857143 1038 4029.5 1038 4067.6428571428573 1038 4105.785714285715 1038 4143.928571428572 1038 4182.071428571428 1038 4220.214285714286 1038 4258.357142857143 1038 4296.5 1038 4296.5 535.8673359627106 4258.357142857143 536.3721764073143 4220.214285714286 536.9688060236643 4182.071428571428 537.7031193976336 4143.928571428572 539.0799569738257 4105.785714285715 540.3191107923986 4067.6428571428573 541.5582646109717 4029.5 543.072785944783 3991.357142857143 544.2201505916098 3953.214285714286 545.2757260666906 3915.0714285714284 546.3771961276443 3876.9285714285716 547.7999282897096 3838.785714285714 550.1405521692362 3800.6428571428573 550.599498027967 3762.5 550.9666547149516 3724.357142857143 552.9401219074937 3686.214285714286 554.9594836859089 3648.0714285714284 555.5102187163858 3609.9285714285716 556.3363212621011 3571.785714285714 557.0247400501971 3533.6428571428573 557.3001075654356 3495.5 557.3001075654356 3457.357142857143 558.0803155252779 3419.214285714286 558.5392613840086 3381.0714285714284 559.0899964144854 3342.9285714285716 560.0078881319469 3304.785714285714 560.7880960917892 3266.6428571428573 561.4765148798851 3228.5 561.981355324489 3228.5 1038Z" fill="#e62d39" opacity="0.9" />
		</g>
		<g>
			<path d="M3228.5 561.981355324489 3266.6428571428573 561.4765148798851 3304.785714285714 560.7880960917892 3342.9285714285716 560.0078881319469 3381.0714285714284 559.0899964144854 3419.214285714286 558.5392613840086 3457.357142857143 558.0803155252779 3495.5 557.3001075654356 3533.6428571428573 557.3001075654356 3571.785714285714 557.0247400501971 3609.9285714285716 556.3363212621011 3648.0714285714284 555.5102187163858 3686.214285714286 554.9594836859089 3724.357142857143 552.9401219074937 3762.5 550.9666547149516 3800.6428571428573 550.599498027967 3838.785714285714 550.1405521692362 3876.9285714285716 547.7999282897096 3915.0714285714284 546.3771961276443 3953.214285714286 545.2757260666906 3991.357142857143 544.2201505916098 4029.5 543.072785944783 4067.6428571428573 541.5582646109717 4105.785714285715 540.3191107923986 4143.928571428572 539.0799569738257 4182.071428571428 537.7031193976336 4220.214285714286 536.9688060236643 4258.357142857143 536.3721764073143 4296.5 535.8673359627106 4296.5 398 4258.357142857143 398.688418788096 4220.214285714286 399.4227321620652 4182.071428571428 400.29472929365363 4143.928571428572 401.90103979921116 4105.785714285715 403.36966654714945 4067.6428571428573 404.83829329508785 4029.5 406.62818214413767 3991.357142857143 408.00501972032976 3953.214285714286 409.7031193976336 3915.0714285714284 411.3553244890642 3876.9285714285716 412.82395123700246 3838.785714285714 415.4399426317676 3800.6428571428573 415.94478307637144 3762.5 416.4955181068483 3724.357142857143 418.7443528146289 3686.214285714286 420.9013983506633 3648.0714285714284 421.5898171387594 3609.9285714285716 422.6453926138401 3571.785714285714 423.4714951595553 3533.6428571428573 423.83865184653996 3495.5 423.83865184653996 3457.357142857143 424.8483327357476 3419.214285714286 425.53675152384363 3381.0714285714284 426.1333811401936 3342.9285714285716 427.1430620294011 3304.785714285714 428.06095374686265 3266.6428571428573 429.07063463607017 3228.5 429.75905342416627 3228.5 561.981355324489Z" fill="#005aa6" opacity="0.9" />
		</g>
		<g>
			<rect x="4372" y="431" width="22.9995" height="23" fill="#e62d39" />
		</g>
		<g>
			<text fill="#595959" font-family="Verdana,sans-serif" font-weight="400" font-size="41" transform="matrix(1 0 0 1 4404.56 454)">Web Browser</text>
		</g>
		<g>
			<rect x="4372" y="508" width="22.9995" height="23" fill="#005aa6" />
		</g>
		<g>
			<text fill="#595959" font-family="Verdana,sans-serif" font-weight="400" font-size="41" transform="matrix(1 0 0 1 4404.56 531)">App</text>
		</g>
	</g>
</svg>
