<svg width="1763" height="1046"
    xmlns="http://www.w3.org/2000/svg"
	xmlns:xlink="http://www.w3.org/1999/xlink" xml:space="preserve" overflow="hidden">
	<defs>
		<clipPath id="clip0">
			<rect x="2917" y="346" width="1763" height="1046"/>
		</clipPath>
	</defs>
	<g clip-path="url(#clip0)" transform="translate(-2917 -346)">
		<rect x="2918" y="347" width="1760" height="1043" fill="#FFFFFF" />
		<g>
			<path d="
			M3228.5 974.532 4296.5 974.532
			M3228.5 910.53 4296.5 910.53
			M3228.5 846.528 4296.5 846.528
			M3228.5 781.526 4296.5 781.526
			M3228.5 717.524 4296.5 717.524
			M3228.5 653.522 4296.5 653.522
			M3228.5 589.52 4296.5 589.52
			M3228.5 525.517 4296.5 525.517
			M3228.5 461.515 4296.5 461.515
			M3228.5 397.5 4296.5 397.5" stroke="#D9D9D9" stroke-width="3.4375" stroke-linejoin="round" stroke-miterlimit="10" fill="none" />
		</g>
		<g>
			<path d="M 1038.5 4296.5 1038.5" stroke="#D9D9D9" stroke-width="3.4375" stroke-linejoin="round" stroke-miterlimit="10" fill="none" fill-rule="evenodd" />
		</g>
		<g>
			<text fill="#595959" font-family="Verdana,Open Sans,DejaVu Sans,sans-serif" font-weight="400" font-size="41" transform="matrix(6.12323e-17 -1 1 6.12323e-17 3244.275390625 1203.08203125)">24-Feb</text>
		</g>
		<g>
			<text fill="#595959" font-family="Verdana,Open Sans,DejaVu Sans,sans-serif" font-weight="400" font-size="41" transform="matrix(6.12323e-17 -1 1 6.12323e-17 3327.309383616728 1212.05078125)">24-Mar</text>
		</g>
		<g>
			<text fill="#595959" font-family="Verdana,Open Sans,DejaVu Sans,sans-serif" font-weight="400" font-size="41" transform="matrix(6.12323e-17 -1 1 6.12323e-17 3415.798698874081 1203.3022384643555)">21-Apr</text>
		</g>
		<g>
			<text fill="#595959" font-family="Verdana,Open Sans,DejaVu Sans,sans-serif" font-weight="400" font-size="41" transform="matrix(6.12323e-17 -1 1 6.12323e-17 3499.563404756434 1214.75341796875)">19-May</text>
		</g>
		<g>
			<text fill="#595959" font-family="Verdana,Open Sans,DejaVu Sans,sans-serif" font-weight="400" font-size="41" transform="matrix(6.12323e-17 -1 1 6.12323e-17 3582.2570657169117 1194.0532150268555)">23-Jun</text>
		</g>
		<g>
			<text fill="#595959" font-family="Verdana,Open Sans,DejaVu Sans,sans-serif" font-weight="400" font-size="41" transform="matrix(6.12323e-17 -1 1 6.12323e-17 3666.75248448989 1179.0385665893555)">21-Jul</text>
		</g>
		<g>
			<text fill="#595959" font-family="Verdana,Open Sans,DejaVu Sans,sans-serif" font-weight="400" font-size="41" transform="matrix(6.12323e-17 -1 1 6.12323e-17 3750.8575224034926 1206.90576171875)">18-Aug</text>
		</g>
		<g>
			<text fill="#595959" font-family="Verdana,Open Sans,DejaVu Sans,sans-serif" font-weight="400" font-size="41" transform="matrix(6.12323e-17 -1 1 6.12323e-17 3834.6222282858457 1202.66162109375)">15-Sep</text>
		</g>
		<g>
			<text fill="#595959" font-family="Verdana,Open Sans,DejaVu Sans,sans-serif" font-weight="400" font-size="41" transform="matrix(6.12323e-17 -1 1 6.12323e-17 3913.6823443244484 1199.3784103393555)">13-Oct</text>
		</g>
		<g>
			<text fill="#595959" font-family="Verdana,Open Sans,DejaVu Sans,sans-serif" font-weight="400" font-size="41" transform="matrix(6.12323e-17 -1 1 6.12323e-17 3997.4470502068016 1209.70849609375)">10-Nov</text>
		</g>
		<g>
			<text fill="#595959" font-family="Verdana,Open Sans,DejaVu Sans,sans-serif" font-weight="400" font-size="41" transform="matrix(6.12323e-17 -1 1 6.12323e-17 4081.2117560891543 1207.0859375)">08-Dec</text>
		</g>
		<g>
			<text fill="#595959" font-family="Verdana,Open Sans,DejaVu Sans,sans-serif" font-weight="400" font-size="41" transform="matrix(6.12323e-17 -1 1 6.12323e-17 4168.630026424632 1191.6508712768555)">05-Jan</text>
		</g>
		<g>
			<text fill="#595959" font-family="Verdana,Open Sans,DejaVu Sans,sans-serif" font-weight="400" font-size="41" transform="matrix(6.12323e-17 -1 1 6.12323e-17 4249.451861213235 1203.0419921875)">02-Feb</text>
		</g>
		<g>
			<text fill="#595959" font-family="Verdana,Open Sans,DejaVu Sans,sans-serif" font-weight="400" font-size="41" transform="matrix(1 0 0 1 3135.4482421875 1050)">0%</text>
		</g>
		<g>
			<text fill="#595959" font-family="Verdana,Open Sans,DejaVu Sans,sans-serif" font-weight="400" font-size="41" transform="matrix(1 0 0 1 3111.96533203125 922)">20%</text>
		</g>
		<g>
			<text fill="#595959" font-family="Verdana,Open Sans,DejaVu Sans,sans-serif" font-weight="400" font-size="41" transform="matrix(1 0 0 1 3110.82421875 794)">40%</text>
		</g>
		<g>
			<text fill="#595959" font-family="Verdana,Open Sans,DejaVu Sans,sans-serif" font-weight="400" font-size="41" transform="matrix(1 0 0 1 3112.3056640625 666)">60%</text>
		</g>
		<g>
			<text fill="#595959" font-family="Verdana,Open Sans,DejaVu Sans,sans-serif" font-weight="400" font-size="41" transform="matrix(1 0 0 1 3112.04541015625 538)">80%</text>
		</g>
		<g>
			<text fill="#595959" font-family="Verdana,Open Sans,DejaVu Sans,sans-serif" font-weight="400" font-size="41" transform="matrix(1 0 0 1 3090.2841796875 410)">100%</text>
		</g>
		<g>
			<text fill="#595959" font-family="Verdana,Open Sans,DejaVu Sans,sans-serif" font-weight="400" font-size="41" transform="matrix(1 0 0 1 3556.97119140625 1321)">Week Commencing</text>
		</g>
		<g>
			<text fill="#595959" font-family="Verdana,Open Sans,DejaVu Sans,sans-serif" font-weight="400" font-size="46" transform="matrix(6.12323e-17 -1 1 6.12323e-17 3019.73 936.7665710449219)">Requests (% of Total)</text>
		</g>
		<rect x="2918.5" y="347.5" width="1760" height="1043" stroke="#D9D9D9" stroke-width="3.4375" stroke-linejoin="round" stroke-miterlimit="10" fill="none" />
		<g>
			<path d="M3228.5 1038 3249.4411764705883 1038 3270.3823529411766 1038 3291.323529411765 1038 3312.264705882353 1038 3333.205882352941 1038 3354.1470588235293 1038 3375.0882352941176 1038 3396.029411764706 1038 3416.970588235294 1038 3437.9117647058824 1038 3458.8529411764707 1038 3479.794117647059 1038 3500.735294117647 1038 3521.676470588235 1038 3542.6176470588234 1038 3563.5588235294117 1038 3584.5 1038 3605.4411764705883 1038 3626.3823529411766 1038 3647.323529411765 1038 3668.264705882353 1038 3689.205882352941 1038 3710.1470588235293 1038 3731.0882352941176 1038 3752.029411764706 1038 3772.970588235294 1038 3793.9117647058824 1038 3814.8529411764707 1038 3835.7941176470586 1038 3856.735294117647 1038 3877.676470588235 1038 3898.6176470588234 1038 3919.5588235294117 1038 3940.5 1038 3961.4411764705883 1038 3982.3823529411766 1038 4003.323529411765 1038 4024.264705882353 1038 4045.2058823529414 1038 4066.1470588235293 1038 4087.0882352941176 1038 4108.029411764706 1038 4128.970588235294 1038 4149.911764705882 1038 4170.85294117647 1038 4191.794117647059 1038 4212.735294117647 1038 4233.676470588235 1038 4254.617647058823 1038 4275.558823529412 1038 4296.5 1038 4296.5 646.711535446821 4275.558823529412 646.5953351574117 4254.617647058823 648.9964700856017 4233.676470588235 650.4578201384786 4212.735294117647 650.1826843160547 4191.794117647059 650.9511325988744 4170.85294117647 650.9685000981426 4149.911764705882 652.4520688665375 4128.970588235294 654.2438394166766 4108.029411764706 654.1783595408037 4087.0882352941176 665.1009269843557 4066.1470588235293 665.0687170796807 4045.2058823529414 669.2508046624037 4024.264705882353 668.8015383913383 4003.323529411765 677.0310099621294 3982.3823529411766 715.6326502484551 3961.4411764705883 731.7898269041518 3940.5 731.6946718722857 3919.5588235294117 731.7814057156063 3898.6176470588234 731.7708258099874 3877.676470588235 739.179471336138 3856.735294117647 739.1723277843557 3835.7941176470586 742.0464154901043 3814.8529411764707 744.981700209997 3793.9117647058824 752.0924084860791 3772.970588235294 755.2385923010361 3752.029411764706 755.2502906288946 3731.0882352941176 758.1300732473312 3710.1470588235293 768.0870120946274 3689.205882352941 768.0622682813855 3668.264705882353 768.1168972047803 3647.323529411765 768.2021370143037 3626.3823529411766 769.6067142131767 3605.4411764705883 775.05017459998 3584.5 787.2357258695183 3563.5588235294117 787.3092370373995 3542.6176470588234 790.9650389728295 3521.676470588235 794.0813847270024 3500.735294117647 798.9713729419469 3479.794117647059 800.9582284854941 3458.8529411764707 802.40679729401 3437.9117647058824 803.7574587023792 3416.970588235294 804.8795653060993 3396.029411764706 805.7888012756688 3375.0882352941176 807.0111198010406 3354.1470588235293 808.4993663352112 3333.205882352941 809.5719943405506 3312.264705882353 811.2029187969463 3291.323529411765 852.2537695350034 3270.3823529411766 852.7630633018019 3249.4411764705883 853.2128831068969 3228.5 853.9543792847422 3228.5 1038Z" fill="#e62d39" opacity="0.9" />
		</g>
		<g>
			<path d="M3228.5 853.9543792847422 3249.4411764705883 853.2128831068969 3270.3823529411766 852.7630633018019 3291.323529411765 852.2537695350034 3312.264705882353 811.2029187969463 3333.205882352941 809.5719943405506 3354.1470588235293 808.4993663352112 3375.0882352941176 807.0111198010406 3396.029411764706 805.7888012756688 3416.970588235294 804.8795653060993 3437.9117647058824 803.7574587023792 3458.8529411764707 802.40679729401 3479.794117647059 800.9582284854941 3500.735294117647 798.9713729419469 3521.676470588235 794.0813847270024 3542.6176470588234 790.9650389728295 3563.5588235294117 787.3092370373995 3584.5 787.2357258695183 3605.4411764705883 775.05017459998 3626.3823529411766 769.6067142131767 3647.323529411765 768.2021370143037 3668.264705882353 768.1168972047803 3689.205882352941 768.0622682813855 3710.1470588235293 768.0870120946274 3731.0882352941176 758.1300732473312 3752.029411764706 755.2502906288946 3772.970588235294 755.2385923010361 3793.9117647058824 752.0924084860791 3814.8529411764707 744.981700209997 3835.7941176470586 742.0464154901043 3856.735294117647 739.1723277843557 3877.676470588235 739.179471336138 3898.6176470588234 731.7708258099874 3919.5588235294117 731.7814057156063 3940.5 731.6946718722857 3961.4411764705883 731.7898269041518 3982.3823529411766 715.6326502484551 4003.323529411765 677.0310099621294 4024.264705882353 668.8015383913383 4045.2058823529414 669.2508046624037 4066.1470588235293 665.0687170796807 4087.0882352941176 665.1009269843557 4108.029411764706 654.1783595408037 4128.970588235294 654.2438394166766 4149.911764705882 652.4520688665375 4170.85294117647 650.9685000981426 4191.794117647059 650.9511325988744 4212.735294117647 650.1826843160547 4233.676470588235 650.4578201384786 4254.617647058823 648.9964700856017 4275.558823529412 646.5953351574117 4296.5 646.711535446821 4296.5 405.4853661204658 4275.558823529412 405.49122463683807 4254.617647058823 405.2872977777903 4233.676470588235 405.0542403680629 4212.735294117647 404.8267826278017 4191.794117647059 404.3597305581952 4170.85294117647 404.3606360598039 4149.911764705882 404.3133620715407 4128.970588235294 404.2694390318647 4108.029411764706 404.25532206437714 4087.0882352941176 404.1006016590141 4066.1470588235293 404.09929675944176 4045.2058823529414 404.0956381930635 4024.264705882353 404.12948436436125 4003.323529411765 403.9961122337051 3982.3823529411766 403.3494217541671 3961.4411764705883 402.9248624726996 3940.5 402.9072043922977 3919.5588235294117 402.90877584131425 3898.6176470588234 402.9298471234101 3877.676470588235 402.60349792125623 3856.735294117647 402.6099730048478 3835.7941176470586 402.37217547977207 3814.8529411764707 402.145050233926 3793.9117647058824 401.73578913608276 3772.970588235294 401.57006086206655 3752.029411764706 401.57128950627384 3731.0882352941176 401.4082896460906 3710.1470588235293 400.8924429074875 3689.205882352941 400.88896921768406 3668.264705882353 400.93900012801925 3647.323529411765 401.0268406246156 3626.3823529411766 400.9092568701918 3605.4411764705883 400.9924926084992 3584.5 400.4880580221503 3563.5588235294117 400.49608136003764 3542.6176470588234 400.2916782230466 3521.676470588235 400.1582567110125 3500.735294117647 399.92908991218985 3479.794117647059 399.9334041710106 3458.8529411764707 399.87976806541184 3437.9117647058824 399.8310554200369 3416.970588235294 399.7742919400221 3396.029411764706 399.72528771121347 3375.0882352941176 399.7049408705508 3354.1470588235293 400.00414490488384 3333.205882352941 399.9604159100104 3312.264705882353 399.99059261305484 3291.323529411765 399.58374601455273 3270.3823529411766 399.60517704227266 3249.4411764705883 399.5826700216501 3228.5 398.7693921844428 3228.5 853.9543792847422Z" fill="#005aa6" opacity="0.9" />
		</g>
		<g>
			<path d="M3228.5 398.7693921844428 3249.4411764705883 399.5826700216501 3270.3823529411766 399.60517704227266 3291.323529411765 399.58374601455273 3312.264705882353 399.99059261305484 3333.205882352941 399.9604159100104 3354.1470588235293 400.00414490488384 3375.0882352941176 399.7049408705508 3396.029411764706 399.72528771121347 3416.970588235294 399.7742919400221 3437.9117647058824 399.8310554200369 3458.8529411764707 399.87976806541184 3479.794117647059 399.9334041710106 3500.735294117647 399.92908991218985 3521.676470588235 400.1582567110125 3542.6176470588234 400.2916782230466 3563.5588235294117 400.49608136003764 3584.5 400.4880580221503 3605.4411764705883 400.9924926084992 3626.3823529411766 400.9092568701918 3647.323529411765 401.0268406246156 3668.264705882353 400.93900012801925 3689.205882352941 400.88896921768406 3710.1470588235293 400.8924429074875 3731.0882352941176 401.4082896460906 3752.029411764706 401.57128950627384 3772.970588235294 401.57006086206655 3793.9117647058824 401.73578913608276 3814.8529411764707 402.145050233926 3835.7941176470586 402.37217547977207 3856.735294117647 402.6099730048478 3877.676470588235 402.60349792125623 3898.6176470588234 402.9298471234101 3919.5588235294117 402.90877584131425 3940.5 402.9072043922977 3961.4411764705883 402.9248624726996 3982.3823529411766 403.3494217541671 4003.323529411765 403.9961122337051 4024.264705882353 404.12948436436125 4045.2058823529414 404.0956381930635 4066.1470588235293 404.09929675944176 4087.0882352941176 404.1006016590141 4108.029411764706 404.25532206437714 4128.970588235294 404.2694390318647 4149.911764705882 404.3133620715407 4170.85294117647 404.3606360598039 4191.794117647059 404.3597305581952 4212.735294117647 404.8267826278017 4233.676470588235 405.0542403680629 4254.617647058823 405.2872977777903 4275.558823529412 405.49122463683807 4296.5 405.4853661204658 4296.5 398.00000000000006 4275.558823529412 398 4254.617647058823 398 4233.676470588235 398 4212.735294117647 397.99999999999994 4191.794117647059 397.99999999999994 4170.85294117647 397.99999999999994 4149.911764705882 398.00000000000006 4128.970588235294 398.00000000000006 4108.029411764706 398.0000000000001 4087.0882352941176 397.99999999999994 4066.1470588235293 397.9999999999999 4045.2058823529414 398.0000000000001 4024.264705882353 398 4003.323529411765 398 3982.3823529411766 397.9999999999999 3961.4411764705883 398.00000000000006 3940.5 397.99999999999994 3919.5588235294117 397.9999999999999 3898.6176470588234 398.00000000000006 3877.676470588235 398.00000000000006 3856.735294117647 397.99999999999994 3835.7941176470586 397.99999999999994 3814.8529411764707 397.99999999999994 3793.9117647058824 398 3772.970588235294 397.9999999999999 3752.029411764706 397.99999999999994 3731.0882352941176 397.99999999999994 3710.1470588235293 398 3689.205882352941 398.00000000000006 3668.264705882353 398.00000000000006 3647.323529411765 397.99999999999994 3626.3823529411766 397.99999999999994 3605.4411764705883 397.99999999999994 3584.5 398.0000000000001 3563.5588235294117 398 3542.6176470588234 398.00000000000006 3521.676470588235 398 3500.735294117647 398 3479.794117647059 398 3458.8529411764707 398 3437.9117647058824 398 3416.970588235294 397.99999999999994 3396.029411764706 397.9999999999999 3375.0882352941176 398 3354.1470588235293 398 3333.205882352941 397.99999999999994 3312.264705882353 398.00000000000006 3291.323529411765 398 3270.3823529411766 398 3249.4411764705883 398 3228.5 397.99999999999994 3228.5 398.7693921844428Z" fill="#393d41" opacity="0.9" />
		</g>
		<g>
			<rect x="4372" y="431" width="22.9995" height="23" fill="#e62d39" />
		</g>
		<g>
			<text fill="#595959" font-family="Verdana,Open Sans,DejaVu Sans,sans-serif" font-weight="400" font-size="41" transform="matrix(1 0 0 1 4404.56 454)">App</text>
		</g>
		<g>
			<rect x="4372" y="508" width="22.9995" height="23" fill="#005aa6" />
		</g>
		<g>
			<text fill="#595959" font-family="Verdana,Open Sans,DejaVu Sans,sans-serif" font-weight="400" font-size="41" transform="matrix(1 0 0 1 4404.56 531)">Web Browser</text>
		</g>
		<g>
			<rect x="4372" y="585" width="22.9995" height="23" fill="#393d41" />
		</g>
		<g>
			<text fill="#595959" font-family="Verdana,Open Sans,DejaVu Sans,sans-serif" font-weight="400" font-size="41" transform="matrix(1 0 0 1 4404.56 608)">Unclassified</text>
		</g>
	</g>
</svg>
