<svg width="1763" height="1046"
    xmlns="http://www.w3.org/2000/svg"
	xmlns:xlink="http://www.w3.org/1999/xlink" xml:space="preserve" overflow="hidden">
	<defs>
		<clipPath id="clip0">
			<rect x="2917" y="346" width="1763" height="1046"/>
		</clipPath>
	</defs>
	<g clip-path="url(#clip0)" transform="translate(-2917 -346)">
		<rect x="2918" y="347" width="1760" height="1043" fill="#FFFFFF" />
		<g>
			<path d="
			M3228.5 974.532 4296.5 974.532
			M3228.5 910.53 4296.5 910.53
			M3228.5 846.528 4296.5 846.528
			M3228.5 781.526 4296.5 781.526
			M3228.5 717.524 4296.5 717.524
			M3228.5 653.522 4296.5 653.522
			M3228.5 589.52 4296.5 589.52
			M3228.5 525.517 4296.5 525.517
			M3228.5 461.515 4296.5 461.515
			M3228.5 397.5 4296.5 397.5" stroke="#D9D9D9" stroke-width="3.4375" stroke-linejoin="round" stroke-miterlimit="10" fill="none" />
		</g>
		<g>
			<path d="M 1038.5 4296.5 1038.5" stroke="#D9D9D9" stroke-width="3.4375" stroke-linejoin="round" stroke-miterlimit="10" fill="none" fill-rule="evenodd" />
		</g>
		<g>
			<text fill="#595959" font-family="Verdana,Open Sans,DejaVu Sans,sans-serif" font-weight="400" font-size="41" transform="matrix(6.12323e-17 -1 1 6.12323e-17 3243.564697265625 1210.2890625)">10-Mar</text>
		</g>
		<g>
			<text fill="#595959" font-family="Verdana,Open Sans,DejaVu Sans,sans-serif" font-weight="400" font-size="41" transform="matrix(6.12323e-17 -1 1 6.12323e-17 3333.729306640625 1203.2621994018555)">07-Apr</text>
		</g>
		<g>
			<text fill="#595959" font-family="Verdana,Open Sans,DejaVu Sans,sans-serif" font-weight="400" font-size="41" transform="matrix(6.12323e-17 -1 1 6.12323e-17 3419.169306640625 1216.47509765625)">05-May</text>
		</g>
		<g>
			<text fill="#595959" font-family="Verdana,Open Sans,DejaVu Sans,sans-serif" font-weight="400" font-size="41" transform="matrix(6.12323e-17 -1 1 6.12323e-17 3503.53826171875 1194.0131759643555)">09-Jun</text>
		</g>
		<g>
			<text fill="#595959" font-family="Verdana,Open Sans,DejaVu Sans,sans-serif" font-weight="400" font-size="41" transform="matrix(6.12323e-17 -1 1 6.12323e-17 3589.688955078125 1178.9985275268555)">07-Jul</text>
		</g>
		<g>
			<text fill="#595959" font-family="Verdana,Open Sans,DejaVu Sans,sans-serif" font-weight="400" font-size="41" transform="matrix(6.12323e-17 -1 1 6.12323e-17 3675.489306640625 1208.62744140625)">04-Aug</text>
		</g>
		<g>
			<text fill="#595959" font-family="Verdana,Open Sans,DejaVu Sans,sans-serif" font-weight="400" font-size="41" transform="matrix(6.12323e-17 -1 1 6.12323e-17 3760.929306640625 1204.38330078125)">01-Sep</text>
		</g>
		<g>
			<text fill="#595959" font-family="Verdana,Open Sans,DejaVu Sans,sans-serif" font-weight="400" font-size="41" transform="matrix(6.12323e-17 -1 1 6.12323e-17 3846.349287109375 1204.42333984375)">29-Sep</text>
		</g>
		<g>
			<text fill="#595959" font-family="Verdana,Open Sans,DejaVu Sans,sans-serif" font-weight="400" font-size="41" transform="matrix(6.12323e-17 -1 1 6.12323e-17 3927.084697265625 1201.1401290893555)">27-Oct</text>
		</g>
		<g>
			<text fill="#595959" font-family="Verdana,Open Sans,DejaVu Sans,sans-serif" font-weight="400" font-size="41" transform="matrix(6.12323e-17 -1 1 6.12323e-17 4012.504677734375 1211.47021484375)">24-Nov</text>
		</g>
		<g>
			<text fill="#595959" font-family="Verdana,Open Sans,DejaVu Sans,sans-serif" font-weight="400" font-size="41" transform="matrix(6.12323e-17 -1 1 6.12323e-17 4097.944677734375 1207.1259765625)">22-Dec</text>
		</g>
		<g>
			<text fill="#595959" font-family="Verdana,Open Sans,DejaVu Sans,sans-serif" font-weight="400" font-size="41" transform="matrix(6.12323e-17 -1 1 6.12323e-17 4187.0382421875 1189.9291915893555)">19-Jan</text>
		</g>
		<g>
			<text fill="#595959" font-family="Verdana,Open Sans,DejaVu Sans,sans-serif" font-weight="400" font-size="41" transform="matrix(6.12323e-17 -1 1 6.12323e-17 4269.555390625 1201.3203125)">16-Feb</text>
		</g>
		<g>
			<text fill="#595959" font-family="Verdana,Open Sans,DejaVu Sans,sans-serif" font-weight="400" font-size="41" transform="matrix(1 0 0 1 3169.14111328125 1050)">0</text>
		</g>
		<g>
			<text fill="#595959" font-family="Verdana,Open Sans,DejaVu Sans,sans-serif" font-weight="400" font-size="41" transform="matrix(1 0 0 1 3088.962890625 922)">3,263</text>
		</g>
		<g>
			<text fill="#595959" font-family="Verdana,Open Sans,DejaVu Sans,sans-serif" font-weight="400" font-size="41" transform="matrix(1 0 0 1 3089.02294921875 794)">6,526</text>
		</g>
		<g>
			<text fill="#595959" font-family="Verdana,Open Sans,DejaVu Sans,sans-serif" font-weight="400" font-size="41" transform="matrix(1 0 0 1 3088.9228515625 666)">9,788</text>
		</g>
		<g>
			<text fill="#595959" font-family="Verdana,Open Sans,DejaVu Sans,sans-serif" font-weight="400" font-size="41" transform="matrix(1 0 0 1 3074.1284255981445 538)">13,051</text>
		</g>
		<g>
			<text fill="#595959" font-family="Verdana,Open Sans,DejaVu Sans,sans-serif" font-weight="400" font-size="41" transform="matrix(1 0 0 1 3065.8203201293945 410)">16,314</text>
		</g>
		<g>
			<text fill="#595959" font-family="Verdana,Open Sans,DejaVu Sans,sans-serif" font-weight="400" font-size="41" transform="matrix(1 0 0 1 3556.97119140625 1321)">Week Commencing</text>
		</g>
		<g>
			<text fill="#595959" font-family="Verdana,Open Sans,DejaVu Sans,sans-serif" font-weight="400" font-size="46" transform="matrix(6.12323e-17 -1 1 6.12323e-17 3019.73 1011.673828125)">Number of Browser Profiles</text>
		</g>
		<rect x="2918.5" y="347.5" width="1760" height="1043" stroke="#D9D9D9" stroke-width="3.4375" stroke-linejoin="round" stroke-miterlimit="10" fill="none" />
		<g>
			<path d="M3228.5 1038 3249.86 1038 3271.22 1038 3292.58 1038 3313.94 1038 3335.3 1038 3356.66 1038 3378.02 1038 3399.38 1038 3420.74 1038 3442.1 1038 3463.46 1038 3484.82 1038 3506.18 1038 3527.54 1038 3548.9 1038 3570.26 1038 3591.62 1038 3612.98 1038 3634.34 1038 3655.7 1038 3677.06 1038 3698.42 1038 3719.7799999999997 1038 3741.14 1038 3762.5 1038 3783.86 1038 3805.2200000000003 1038 3826.58 1038 3847.94 1038 3869.3 1038 3890.66 1038 3912.02 1038 3933.38 1038 3954.74 1038 3976.1 1038 3997.46 1038 4018.8199999999997 1038 4040.18 1038 4061.54 1038 4082.9 1038 4104.26 1038 4125.62 1038 4146.98 1038 4168.34 1038 4189.7 1038 4211.0599999999995 1038 4232.42 1038 4253.78 1038 4275.139999999999 1038 4296.5 1038 4296.5 532.9515753340688 4275.139999999999 533.6184871889175 4253.78 534.756160353071 4232.42 535.7761431898982 4211.0599999999995 536.3253647174206 4189.7 537.1491970087042 4168.34 537.8945690817702 4146.98 538.7184013730538 4125.62 538.8753218094887 4104.26 539.3460831187937 4082.9 539.895304646316 4061.54 540.9152874831433 4040.18 542.170650974623 4018.8199999999997 543.8183155571901 3997.46 544.13215643006 3976.1 545.2305994851048 3954.74 545.8582812308447 3933.38 547.3097952678681 3912.02 547.8982469044993 3890.66 549.2320706141963 3869.3 549.3497609415226 3847.94 550.2128233419148 3826.58 551.2328061787422 3805.2200000000003 552.5273997793306 3783.86 553.233541743288 3762.5 553.8612234890278 3741.14 555.1165869805075 3719.7799999999997 555.9404192717911 3698.42 556.8427117812921 3677.06 557.8234645090106 3655.7 558.6080666911855 3634.34 559.3534387642516 3612.98 560.2165011646439 3591.62 560.6088022557312 3570.26 561.5895549834497 3548.9 562.8841485840383 3527.54 563.4726002206694 3506.18 564.6102733848229 3484.82 565.94409709452 3463.46 567.5525315679783 3442.1 568.6509746230231 3420.74 569.7101875689591 3399.38 570.6124800784602 3378.02 571.4363123697437 3356.66 572.3778349883535 3335.3 573.2408973887459 3313.94 574.6924114257693 3292.58 575.3200931715091 3271.22 575.947774917249 3249.86 576.693146990315 3228.5 577.7523599362511 3228.5 1038Z" fill="#005aa6" opacity="0.9" />
		</g>
		<g>
			<path d="M3228.5 577.7523599362511 3249.86 576.693146990315 3271.22 575.947774917249 3292.58 575.3200931715091 3313.94 574.6924114257693 3335.3 573.2408973887459 3356.66 572.3778349883535 3378.02 571.4363123697437 3399.38 570.6124800784602 3420.74 569.7101875689591 3442.1 568.6509746230231 3463.46 567.5525315679783 3484.82 565.94409709452 3506.18 564.6102733848229 3527.54 563.4726002206694 3548.9 562.8841485840383 3570.26 561.5895549834497 3591.62 560.6088022557312 3612.98 560.2165011646439 3634.34 559.3534387642516 3655.7 558.6080666911855 3677.06 557.8234645090106 3698.42 556.8427117812921 3719.7799999999997 555.9404192717911 3741.14 555.1165869805075 3762.5 553.8612234890278 3783.86 553.233541743288 3805.2200000000003 552.5273997793306 3826.58 551.2328061787422 3847.94 550.2128233419148 3869.3 549.3497609415226 3890.66 549.2320706141963 3912.02 547.8982469044993 3933.38 547.3097952678681 3954.74 545.8582812308447 3976.1 545.2305994851048 3997.46 544.13215643006 4018.8199999999997 543.8183155571901 4040.18 542.170650974623 4061.54 540.9152874831433 4082.9 539.895304646316 4104.26 539.3460831187937 4125.62 538.8753218094887 4146.98 538.7184013730538 4168.34 537.8945690817702 4189.7 537.1491970087042 4211.0599999999995 536.3253647174206 4232.42 535.7761431898982 4253.78 534.756160353071 4275.139999999999 533.6184871889175 4296.5 532.9515753340688 4296.5 397.9999999999999 4275.139999999999 399.059212945936 4253.78 400.51072698295945 4232.42 401.72686036533037 4211.0599999999995 402.4722324383964 4189.7 404.0806669118548 4168.34 404.90449920313836 4146.98 405.8852519308569 4125.62 406.0814024764005 4104.26 406.630624003923 4082.9 407.1798455314454 4061.54 408.51366924114257 4040.18 410.00441338727467 4018.8199999999997 411.8482285153855 3997.46 412.4366801520166 3976.1 413.7705038617138 3954.74 414.51587593477996 3933.38 416.12431040823833 3912.02 416.90891259041325 3890.66 418.39965673654524 3869.3 418.55657717298027 3847.94 419.69425033713367 3826.58 420.83192350128724 3805.2200000000003 422.3226676474194 3783.86 423.1857300478117 3762.5 423.97033222998647 3741.14 425.3041559396836 3719.7799999999997 426.324138776511 3698.42 427.30489150422943 3677.06 428.6387152139266 3655.7 429.50177761431905 3634.34 430.48253034203753 3612.98 431.463283069756 3591.62 432.13019492460455 3570.26 433.424788525193 3548.9 434.91553267132525 3527.54 435.6216746352826 3506.18 436.87703812676233 3484.82 438.3285521637856 3463.46 440.48620816476637 3442.1 441.78080176535485 3420.74 443.0753953659433 3399.38 444.13460831187933 3378.02 445.0761309304891 3356.66 446.21380409464257 3335.3 447.2337869314699 3313.94 448.881451514037 3292.58 449.7052838053206 3271.22 450.41142576927797 3249.86 451.2744881696701 3228.5 452.6475419884762 3228.5 577.7523599362511Z" fill="#e62d39" opacity="0.9" />
		</g>
		<g>
			<rect x="4372" y="431" width="22.9995" height="23" fill="#005aa6" />
		</g>
		<g>
			<text fill="#595959" font-family="Verdana,Open Sans,DejaVu Sans,sans-serif" font-weight="400" font-size="41" transform="matrix(1 0 0 1 4404.56 454)">Web Browser</text>
		</g>
		<g>
			<rect x="4372" y="508" width="22.9995" height="23" fill="#e62d39" />
		</g>
		<g>
			<text fill="#595959" font-family="Verdana,Open Sans,DejaVu Sans,sans-serif" font-weight="400" font-size="41" transform="matrix(1 0 0 1 4404.56 531)">App</text>
		</g>
	</g>
</svg>
