<svg width="1763" height="1046"
    xmlns="http://www.w3.org/2000/svg"
	xmlns:xlink="http://www.w3.org/1999/xlink" xml:space="preserve" overflow="hidden">
	<defs>
		<clipPath id="clip0">
			<rect x="2917" y="346" width="1763" height="1046"/>
		</clipPath>
	</defs>
	<g clip-path="url(#clip0)" transform="translate(-2917 -346)">
		<rect x="2918" y="347" width="1760" height="1043" fill="#FFFFFF" />
		<g>
			<path d="
			M3228.5 974.532 4296.5 974.532
			M3228.5 910.53 4296.5 910.53
			M3228.5 846.528 4296.5 846.528
			M3228.5 781.526 4296.5 781.526
			M3228.5 717.524 4296.5 717.524
			M3228.5 653.522 4296.5 653.522
			M3228.5 589.52 4296.5 589.52
			M3228.5 525.517 4296.5 525.517
			M3228.5 461.515 4296.5 461.515
			M3228.5 397.5 4296.5 397.5" stroke="#D9D9D9" stroke-width="3.4375" stroke-linejoin="round" stroke-miterlimit="10" fill="none" />
		</g>
		<g>
			<path d="M 1038.5 4296.5 1038.5" stroke="#D9D9D9" stroke-width="3.4375" stroke-linejoin="round" stroke-miterlimit="10" fill="none" fill-rule="evenodd" />
		</g>
		<g>
			<text fill="#595959" font-family="Verdana,sans-serif" font-weight="400" font-size="41" transform="matrix(6.12323e-17 -1 1 6.12323e-17 3244.5 1225)">06-Nov</text>
		</g>
		<g>
			<text fill="#595959" font-family="Verdana,sans-serif" font-weight="400" font-size="41" transform="matrix(6.12323e-17 -1 1 6.12323e-17 3323.6111111111113 1224)">20-Nov</text>
		</g>
		<g>
			<text fill="#595959" font-family="Verdana,sans-serif" font-weight="400" font-size="41" transform="matrix(6.12323e-17 -1 1 6.12323e-17 3402.722222222222 1223)">04-Dec</text>
		</g>
		<g>
			<text fill="#595959" font-family="Verdana,sans-serif" font-weight="400" font-size="41" transform="matrix(6.12323e-17 -1 1 6.12323e-17 3481.8333333333335 1220)">18-Dec</text>
		</g>
		<g>
			<text fill="#595959" font-family="Verdana,sans-serif" font-weight="400" font-size="41" transform="matrix(6.12323e-17 -1 1 6.12323e-17 3560.9444444444443 1210)">01-Jan</text>
		</g>
		<g>
			<text fill="#595959" font-family="Verdana,sans-serif" font-weight="400" font-size="41" transform="matrix(6.12323e-17 -1 1 6.12323e-17 3639.5555555555557 1207)">15-Jan</text>
		</g>
		<g>
			<text fill="#595959" font-family="Verdana,sans-serif" font-weight="400" font-size="41" transform="matrix(6.12323e-17 -1 1 6.12323e-17 3719.1666666666665 1210)">29-Jan</text>
		</g>
		<g>
			<text fill="#595959" font-family="Verdana,sans-serif" font-weight="400" font-size="41" transform="matrix(6.12323e-17 -1 1 6.12323e-17 3798.277777777778 1214)">12-Feb</text>
		</g>
		<g>
			<text fill="#595959" font-family="Verdana,sans-serif" font-weight="400" font-size="41" transform="matrix(6.12323e-17 -1 1 6.12323e-17 3877.3888888888887 1216)">26-Feb</text>
		</g>
		<g>
			<text fill="#595959" font-family="Verdana,sans-serif" font-weight="400" font-size="41" transform="matrix(6.12323e-17 -1 1 6.12323e-17 3956 1221)">11-Mar</text>
		</g>
		<g>
			<text fill="#595959" font-family="Verdana,sans-serif" font-weight="400" font-size="41" transform="matrix(6.12323e-17 -1 1 6.12323e-17 4035.6111111111113 1223)">25-Mar</text>
		</g>
		<g>
			<text fill="#595959" font-family="Verdana,sans-serif" font-weight="400" font-size="41" transform="matrix(6.12323e-17 -1 1 6.12323e-17 4118.222222222223 1217)">08-Apr</text>
		</g>
		<g>
			<text fill="#595959" font-family="Verdana,sans-serif" font-weight="400" font-size="41" transform="matrix(6.12323e-17 -1 1 6.12323e-17 4197.333333333333 1216)">22-Apr</text>
		</g>
		<g>
			<text fill="#595959" font-family="Verdana,sans-serif" font-weight="400" font-size="41" transform="matrix(6.12323e-17 -1 1 6.12323e-17 4276.444444444444 1228)">06-May</text>
		</g>
		<g>
			<text fill="#595959" font-family="Verdana,sans-serif" font-weight="400" font-size="41" transform="matrix(1 0 0 1 3167.5 1050)">0</text>
		</g>
		<g>
			<text fill="#595959" font-family="Verdana,sans-serif" font-weight="400" font-size="41" transform="matrix(1 0 0 1 3074.5 922)">2,786</text>
		</g>
		<g>
			<text fill="#595959" font-family="Verdana,sans-serif" font-weight="400" font-size="41" transform="matrix(1 0 0 1 3075.5 794)">5,572</text>
		</g>
		<g>
			<text fill="#595959" font-family="Verdana,sans-serif" font-weight="400" font-size="41" transform="matrix(1 0 0 1 3073.5 666)">8,358</text>
		</g>
		<g>
			<text fill="#595959" font-family="Verdana,sans-serif" font-weight="400" font-size="41" transform="matrix(1 0 0 1 3050.5 538)">11,144</text>
		</g>
		<g>
			<text fill="#595959" font-family="Verdana,sans-serif" font-weight="400" font-size="41" transform="matrix(1 0 0 1 3051.5 410)">13,930</text>
		</g>
		<g>
			<text fill="#595959" font-family="Verdana,sans-serif" font-weight="400" font-size="41" transform="matrix(1 0 0 1 3544.5 1321)">Week Commencing</text>
		</g>
		<g>
			<text fill="#595959" font-family="Verdana,sans-serif" font-weight="400" font-size="46" transform="matrix(6.12323e-17 -1 1 6.12323e-17 3019.73 1030.75)">Number of Browser Profiles</text>
		</g>
		<rect x="2918.5" y="347.5" width="1760" height="1043" stroke="#D9D9D9" stroke-width="3.4375" stroke-linejoin="round" stroke-miterlimit="10" fill="none" />
		<g>
			<path d="M3228.5 1038 3268.0555555555557 1038 3307.6111111111113 1038 3347.1666666666665 1038 3386.722222222222 1038 3426.277777777778 1038 3465.8333333333335 1038 3505.3888888888887 1038 3544.9444444444443 1038 3584.5 1038 3624.0555555555557 1038 3663.6111111111113 1038 3703.1666666666665 1038 3742.722222222222 1038 3782.277777777778 1038 3821.8333333333335 1038 3861.3888888888887 1038 3900.9444444444443 1038 3940.5 1038 3980.0555555555557 1038 4019.6111111111113 1038 4059.166666666667 1038 4098.722222222223 1038 4138.277777777777 1038 4177.833333333333 1038 4217.388888888889 1038 4256.944444444444 1038 4296.5 1038 4296.5 535.8320172290021 4256.944444444444 536.4292893036611 4217.388888888889 537.1643933955492 4177.833333333333 538.5427135678392 4138.277777777777 539.7832017229002 4098.722222222223 541.0236898779613 4059.166666666667 542.5398420674803 4019.6111111111113 543.6884422110552 3980.0555555555557 544.7451543431443 3940.5 545.8478104809762 3900.9444444444443 547.2720746590094 3861.3888888888887 549.6152189519023 3821.8333333333335 550.0746590093324 3782.277777777778 550.4422110552764 3742.722222222222 552.4178033022254 3703.1666666666665 554.4393395549174 3663.6111111111113 554.9906676238334 3624.0555555555557 555.8176597272075 3584.5 556.5068198133524 3544.9444444444443 556.7824838478105 3505.3888888888887 556.7824838478105 3465.8333333333335 557.5635319454415 3426.277777777778 558.0229720028715 3386.722222222222 558.5743000717875 3347.1666666666665 559.4931801866476 3307.6111111111113 560.2742282842785 3268.0555555555557 560.9633883704234 3228.5 561.4687724335965 3228.5 1038Z" fill="#e62d39" opacity="0.9" />
		</g>
		<g>
			<path d="M3228.5 561.4687724335965 3268.0555555555557 560.9633883704234 3307.6111111111113 560.2742282842785 3347.1666666666665 559.4931801866476 3386.722222222222 558.5743000717875 3426.277777777778 558.0229720028715 3465.8333333333335 557.5635319454415 3505.3888888888887 556.7824838478105 3544.9444444444443 556.7824838478105 3584.5 556.5068198133524 3624.0555555555557 555.8176597272075 3663.6111111111113 554.9906676238334 3703.1666666666665 554.4393395549174 3742.722222222222 552.4178033022254 3782.277777777778 550.4422110552764 3821.8333333333335 550.0746590093324 3861.3888888888887 549.6152189519023 3900.9444444444443 547.2720746590094 3940.5 545.8478104809762 3980.0555555555557 544.7451543431443 4019.6111111111113 543.6884422110552 4059.166666666667 542.5398420674803 4098.722222222223 541.0236898779613 4138.277777777777 539.7832017229002 4177.833333333333 538.5427135678392 4217.388888888889 537.1643933955492 4256.944444444444 536.4292893036611 4296.5 535.8320172290021 4296.5 397.9999999999999 4256.944444444444 398.73510409188793 4217.388888888889 399.608040201005 4177.833333333333 401.21608040201005 4138.277777777777 402.6862885857861 4098.722222222223 404.1564967695621 4059.166666666667 405.94831299353916 4019.6111111111113 407.3266331658291 3980.0555555555557 409.02656137832025 3940.5 410.6805455850681 3900.9444444444443 412.15075376884425 3861.3888888888887 414.76956209619516 3821.8333333333335 415.2749461593683 3782.277777777778 415.8262742282843 3742.722222222222 418.07753050969126 3703.1666666666665 420.2368987796123 3663.6111111111113 420.9260588657572 3624.0555555555557 421.9827709978464 3584.5 422.80976310122037 3544.9444444444443 423.17731514716434 3505.3888888888887 423.17731514716434 3465.8333333333335 424.1880832735104 3426.277777777778 424.8772433596554 3386.722222222222 425.47451543431447 3347.1666666666665 426.4852835606605 3307.6111111111113 427.4041636755204 3268.0555555555557 428.4149318018664 3228.5 429.10409188801145 3228.5 561.4687724335965Z" fill="#005aa6" opacity="0.9" />
		</g>
		<g>
			<rect x="4372" y="431" width="22.9995" height="23" fill="#e62d39" />
		</g>
		<g>
			<text fill="#595959" font-family="Verdana,sans-serif" font-weight="400" font-size="41" transform="matrix(1 0 0 1 4404.56 454)">Web Browser</text>
		</g>
		<g>
			<rect x="4372" y="508" width="22.9995" height="23" fill="#005aa6" />
		</g>
		<g>
			<text fill="#595959" font-family="Verdana,sans-serif" font-weight="400" font-size="41" transform="matrix(1 0 0 1 4404.56 531)">App</text>
		</g>
	</g>
</svg>
