<svg width="1763" height="1046"
    xmlns="http://www.w3.org/2000/svg"
	xmlns:xlink="http://www.w3.org/1999/xlink" xml:space="preserve" overflow="hidden">
	<defs>
		<clipPath id="clip0">
			<rect x="2917" y="346" width="1763" height="1046"/>
		</clipPath>
	</defs>
	<g clip-path="url(#clip0)" transform="translate(-2917 -346)">
		<rect x="2918" y="347" width="1760" height="1043" fill="#FFFFFF" />
		<g>
			<path d="
			M3228.5 974.532 4296.5 974.532
			M3228.5 910.53 4296.5 910.53
			M3228.5 846.528 4296.5 846.528
			M3228.5 781.526 4296.5 781.526
			M3228.5 717.524 4296.5 717.524
			M3228.5 653.522 4296.5 653.522
			M3228.5 589.52 4296.5 589.52
			M3228.5 525.517 4296.5 525.517
			M3228.5 461.515 4296.5 461.515
			M3228.5 397.5 4296.5 397.5" stroke="#D9D9D9" stroke-width="3.4375" stroke-linejoin="round" stroke-miterlimit="10" fill="none" />
		</g>
		<g>
			<path d="M 1038.5 4296.5 1038.5" stroke="#D9D9D9" stroke-width="3.4375" stroke-linejoin="round" stroke-miterlimit="10" fill="none" fill-rule="evenodd" />
		</g>
		<g>
			<text fill="#595959" font-family="Verdana,sans-serif" font-weight="400" font-size="41" transform="matrix(6.12323e-17 -1 1 6.12323e-17 3244.5 1221)">18-Mar</text>
		</g>
		<g>
			<text fill="#595959" font-family="Verdana,sans-serif" font-weight="400" font-size="41" transform="matrix(6.12323e-17 -1 1 6.12323e-17 3331.764705882353 1214)">15-Apr</text>
		</g>
		<g>
			<text fill="#595959" font-family="Verdana,sans-serif" font-weight="400" font-size="41" transform="matrix(6.12323e-17 -1 1 6.12323e-17 3415.529411764706 1226)">13-May</text>
		</g>
		<g>
			<text fill="#595959" font-family="Verdana,sans-serif" font-weight="400" font-size="41" transform="matrix(6.12323e-17 -1 1 6.12323e-17 3495.794117647059 1209)">10-Jun</text>
		</g>
		<g>
			<text fill="#595959" font-family="Verdana,sans-serif" font-weight="400" font-size="41" transform="matrix(6.12323e-17 -1 1 6.12323e-17 3579.5588235294117 1197)">08-Jul</text>
		</g>
		<g>
			<text fill="#595959" font-family="Verdana,sans-serif" font-weight="400" font-size="41" transform="matrix(6.12323e-17 -1 1 6.12323e-17 3666.823529411765 1221)">05-Aug</text>
		</g>
		<g>
			<text fill="#595959" font-family="Verdana,sans-serif" font-weight="400" font-size="41" transform="matrix(6.12323e-17 -1 1 6.12323e-17 3750.5882352941176 1222)">02-Sep</text>
		</g>
		<g>
			<text fill="#595959" font-family="Verdana,sans-serif" font-weight="400" font-size="41" transform="matrix(6.12323e-17 -1 1 6.12323e-17 3834.3529411764707 1221)">30-Sep</text>
		</g>
		<g>
			<text fill="#595959" font-family="Verdana,sans-serif" font-weight="400" font-size="41" transform="matrix(6.12323e-17 -1 1 6.12323e-17 3914.6176470588234 1215)">28-Oct</text>
		</g>
		<g>
			<text fill="#595959" font-family="Verdana,sans-serif" font-weight="400" font-size="41" transform="matrix(6.12323e-17 -1 1 6.12323e-17 3998.3823529411766 1224)">25-Nov</text>
		</g>
		<g>
			<text fill="#595959" font-family="Verdana,sans-serif" font-weight="400" font-size="41" transform="matrix(6.12323e-17 -1 1 6.12323e-17 4082.1470588235293 1222)">30-Dec</text>
		</g>
		<g>
			<text fill="#595959" font-family="Verdana,sans-serif" font-weight="400" font-size="41" transform="matrix(6.12323e-17 -1 1 6.12323e-17 4165.911764705882 1210)">27-Jan</text>
		</g>
		<g>
			<text fill="#595959" font-family="Verdana,sans-serif" font-weight="400" font-size="41" transform="matrix(6.12323e-17 -1 1 6.12323e-17 4249.676470588235 1216)">24-Feb</text>
		</g>
		<g>
			<text fill="#595959" font-family="Verdana,sans-serif" font-weight="400" font-size="41" transform="matrix(1 0 0 1 3167.5 1050)">0</text>
		</g>
		<g>
			<text fill="#595959" font-family="Verdana,sans-serif" font-weight="400" font-size="41" transform="matrix(1 0 0 1 3076.5 922)">2,991</text>
		</g>
		<g>
			<text fill="#595959" font-family="Verdana,sans-serif" font-weight="400" font-size="41" transform="matrix(1 0 0 1 3075.5 794)">5,982</text>
		</g>
		<g>
			<text fill="#595959" font-family="Verdana,sans-serif" font-weight="400" font-size="41" transform="matrix(1 0 0 1 3073.5 666)">8,974</text>
		</g>
		<g>
			<text fill="#595959" font-family="Verdana,sans-serif" font-weight="400" font-size="41" transform="matrix(1 0 0 1 3051.5 538)">11,965</text>
		</g>
		<g>
			<text fill="#595959" font-family="Verdana,sans-serif" font-weight="400" font-size="41" transform="matrix(1 0 0 1 3050.5 410)">14,956</text>
		</g>
		<g>
			<text fill="#595959" font-family="Verdana,sans-serif" font-weight="400" font-size="41" transform="matrix(1 0 0 1 3544.5 1321)">Week Commencing</text>
		</g>
		<g>
			<text fill="#595959" font-family="Verdana,sans-serif" font-weight="400" font-size="46" transform="matrix(6.12323e-17 -1 1 6.12323e-17 3019.73 1030.75)">Number of Browser Profiles</text>
		</g>
		<rect x="2918.5" y="347.5" width="1760" height="1043" stroke="#D9D9D9" stroke-width="3.4375" stroke-linejoin="round" stroke-miterlimit="10" fill="none" />
		<g>
			<path d="M3228.5 1038 3249.4411764705883 1038 3270.3823529411766 1038 3291.323529411765 1038 3312.264705882353 1038 3333.205882352941 1038 3354.1470588235293 1038 3375.0882352941176 1038 3396.029411764706 1038 3416.970588235294 1038 3437.9117647058824 1038 3458.8529411764707 1038 3479.794117647059 1038 3500.735294117647 1038 3521.676470588235 1038 3542.6176470588234 1038 3563.5588235294117 1038 3584.5 1038 3605.4411764705883 1038 3626.3823529411766 1038 3647.323529411765 1038 3668.264705882353 1038 3689.205882352941 1038 3710.1470588235293 1038 3731.0882352941176 1038 3752.029411764706 1038 3772.970588235294 1038 3793.9117647058824 1038 3814.8529411764707 1038 3835.7941176470586 1038 3856.735294117647 1038 3877.676470588235 1038 3898.6176470588234 1038 3919.5588235294117 1038 3940.5 1038 3961.4411764705883 1038 3982.3823529411766 1038 4003.323529411765 1038 4024.264705882353 1038 4045.2058823529414 1038 4066.1470588235293 1038 4087.0882352941176 1038 4108.029411764706 1038 4128.970588235294 1038 4149.911764705882 1038 4170.85294117647 1038 4191.794117647059 1038 4212.735294117647 1038 4233.676470588235 1038 4254.617647058823 1038 4275.558823529412 1038 4296.5 1038 4296.5 534.8066327895159 4275.558823529412 535.9620219309976 4254.617647058823 537.1602032629046 4233.676470588235 538.1016314522599 4212.735294117647 538.7007221182134 4191.794117647059 539.6849424979941 4170.85294117647 541.1398769724525 4149.911764705882 541.7817598288312 4128.970588235294 542.5092270660605 4108.029411764706 543.0227333511634 4087.0882352941176 543.7929927788178 4066.1470588235293 544.3064990639208 4045.2058823529414 544.6060443968976 4024.264705882353 545.5902647766782 4003.323529411765 546.3177320139075 3982.3823529411766 547.9438352500669 3961.4411764705883 549.013640010698 3940.5 549.6555228670768 3919.5588235294117 550.2974057234554 3898.6176470588234 551.2388339128108 3877.676470588235 552.0090933404654 3856.735294117647 552.7365605776945 3835.7941176470586 553.6351965766248 3814.8529411764707 555.0045466702327 3793.9117647058824 555.4324685744851 3772.970588235294 556.5450655255415 3752.029411764706 557.486493714897 3731.0882352941176 558.1283765712758 3710.1470588235293 559.0698047606311 3689.205882352941 559.6261032361595 3668.264705882353 560.2251939021128 3647.323529411765 561.1666220914683 3626.3823529411766 561.979673709548 3605.4411764705883 562.7499331372024 3584.5 563.3062316127307 3563.5588235294117 563.7341535169832 3542.6176470588234 564.1620754212356 3521.676470588235 565.1890879914415 3500.735294117647 565.9165552286707 3479.794117647059 566.6440224659 3458.8529411764707 567.7566194169564 3437.9117647058824 568.8264241775876 3416.970588235294 569.8106445573683 3396.029411764706 570.281358652046 3375.0882352941176 570.8376571275742 3354.1470588235293 571.5223321743781 3333.205882352941 572.8060978871356 3312.264705882353 573.9614870286173 3291.323529411765 575.116876170099 3270.3823529411766 576.529018454132 3249.4411764705883 577.5988232147633 3228.5 578.583043594544 3228.5 1038Z" fill="#e62d39" opacity="0.9" />
		</g>
		<g>
			<path d="M3228.5 578.583043594544 3249.4411764705883 577.5988232147633 3270.3823529411766 576.529018454132 3291.323529411765 575.116876170099 3312.264705882353 573.9614870286173 3333.205882352941 572.8060978871356 3354.1470588235293 571.5223321743781 3375.0882352941176 570.8376571275742 3396.029411764706 570.281358652046 3416.970588235294 569.8106445573683 3437.9117647058824 568.8264241775876 3458.8529411764707 567.7566194169564 3479.794117647059 566.6440224659 3500.735294117647 565.9165552286707 3521.676470588235 565.1890879914415 3542.6176470588234 564.1620754212356 3563.5588235294117 563.7341535169832 3584.5 563.3062316127307 3605.4411764705883 562.7499331372024 3626.3823529411766 561.979673709548 3647.323529411765 561.1666220914683 3668.264705882353 560.2251939021128 3689.205882352941 559.6261032361595 3710.1470588235293 559.0698047606311 3731.0882352941176 558.1283765712758 3752.029411764706 557.486493714897 3772.970588235294 556.5450655255415 3793.9117647058824 555.4324685744851 3814.8529411764707 555.0045466702327 3835.7941176470586 553.6351965766248 3856.735294117647 552.7365605776945 3877.676470588235 552.0090933404654 3898.6176470588234 551.2388339128108 3919.5588235294117 550.2974057234554 3940.5 549.6555228670768 3961.4411764705883 549.013640010698 3982.3823529411766 547.9438352500669 4003.323529411765 546.3177320139075 4024.264705882353 545.5902647766782 4045.2058823529414 544.6060443968976 4066.1470588235293 544.3064990639208 4087.0882352941176 543.7929927788178 4108.029411764706 543.0227333511634 4128.970588235294 542.5092270660605 4149.911764705882 541.7817598288312 4170.85294117647 541.1398769724525 4191.794117647059 539.6849424979941 4212.735294117647 538.7007221182134 4233.676470588235 538.1016314522599 4254.617647058823 537.1602032629046 4275.558823529412 535.9620219309976 4296.5 534.8066327895159 4296.5 398 4275.558823529412 399.49772666488366 4254.617647058823 400.8242845680664 4233.676470588235 401.8940893286974 4212.735294117647 402.74993313720245 4191.794117647059 403.99090665953463 4170.85294117647 405.61700989569397 4149.911764705882 406.4300615137737 4128.970588235294 407.41428189355446 4108.029411764706 408.14174913078364 4087.0882352941176 409.0403851297138 4066.1470588235293 409.596683605242 4045.2058823529414 409.89622893821877 4024.264705882353 411.05161807970035 4003.323529411765 411.993046269056 3982.3823529411766 413.918694838192 3961.4411764705883 415.2452527413747 3940.5 416.1010965498797 3919.5588235294117 417.51323883391274 3898.6176470588234 418.66862797539443 3877.676470588235 419.61005616474995 3856.735294117647 420.50869216368005 3835.7941176470586 421.5357047338861 3814.8529411764707 423.0334313987697 3793.9117647058824 423.63252206472316 3772.970588235294 425.0446643487563 3752.029411764706 426.200053490238 3731.0882352941176 427.01310510831775 3710.1470588235293 428.1684942497993 3689.205882352941 428.8103771061782 3668.264705882353 429.7090131051082 3647.323529411765 430.73602567531424 3626.3823529411766 431.72024605509495 3605.4411764705883 432.6188820540251 3584.5 433.17518052955336 3563.5588235294117 433.6886868146563 3542.6176470588234 434.41615405188554 3521.676470588235 435.6143353837924 3500.735294117647 436.51297138272264 3479.794117647059 437.4543995720781 3458.8529411764707 438.8665418561112 3437.9117647058824 440.1503075688687 3416.970588235294 441.2629045199251 3396.029411764706 441.90478737630383 3375.0882352941176 442.58946242310776 3354.1470588235293 443.4025140411874 3333.205882352941 444.90024070607114 3312.264705882353 446.26959079967907 3291.323529411765 447.638940893287 3270.3823529411766 449.3078363198715 3249.4411764705883 450.5916020326291 3228.5 452.17491307836326 3228.5 578.583043594544Z" fill="#005aa6" opacity="0.9" />
		</g>
		<g>
			<rect x="4372" y="431" width="22.9995" height="23" fill="#e62d39" />
		</g>
		<g>
			<text fill="#595959" font-family="Verdana,sans-serif" font-weight="400" font-size="41" transform="matrix(1 0 0 1 4404.56 454)">Web Browser</text>
		</g>
		<g>
			<rect x="4372" y="508" width="22.9995" height="23" fill="#005aa6" />
		</g>
		<g>
			<text fill="#595959" font-family="Verdana,sans-serif" font-weight="400" font-size="41" transform="matrix(1 0 0 1 4404.56 531)">App</text>
		</g>
	</g>
</svg>
