<svg width="1763" height="1046"
    xmlns="http://www.w3.org/2000/svg"
	xmlns:xlink="http://www.w3.org/1999/xlink" xml:space="preserve" overflow="hidden">
	<defs>
		<clipPath id="clip0">
			<rect x="2917" y="346" width="1763" height="1046"/>
		</clipPath>
	</defs>
	<g clip-path="url(#clip0)" transform="translate(-2917 -346)">
		<rect x="2918" y="347" width="1760" height="1043" fill="#FFFFFF" />
		<g>
			<path d="
			M3228.5 974.532 4296.5 974.532
			M3228.5 910.53 4296.5 910.53
			M3228.5 846.528 4296.5 846.528
			M3228.5 781.526 4296.5 781.526
			M3228.5 717.524 4296.5 717.524
			M3228.5 653.522 4296.5 653.522
			M3228.5 589.52 4296.5 589.52
			M3228.5 525.517 4296.5 525.517
			M3228.5 461.515 4296.5 461.515
			M3228.5 397.5 4296.5 397.5" stroke="#D9D9D9" stroke-width="3.4375" stroke-linejoin="round" stroke-miterlimit="10" fill="none" />
		</g>
		<g>
			<path d="M 1038.5 4296.5 1038.5" stroke="#D9D9D9" stroke-width="3.4375" stroke-linejoin="round" stroke-miterlimit="10" fill="none" fill-rule="evenodd" />
		</g>
		<g>
			<text fill="#595959" font-family="Verdana,Open Sans,DejaVu Sans,sans-serif" font-weight="400" font-size="41" transform="matrix(6.12323e-17 -1 1 6.12323e-17 3248.269287109375 1203.3022384643555)">21-Apr</text>
		</g>
		<g>
			<text fill="#595959" font-family="Verdana,Open Sans,DejaVu Sans,sans-serif" font-weight="400" font-size="41" transform="matrix(6.12323e-17 -1 1 6.12323e-17 3333.709287109375 1214.75341796875)">19-May</text>
		</g>
		<g>
			<text fill="#595959" font-family="Verdana,Open Sans,DejaVu Sans,sans-serif" font-weight="400" font-size="41" transform="matrix(6.12323e-17 -1 1 6.12323e-17 3418.0782421875 1194.0532150268555)">23-Jun</text>
		</g>
		<g>
			<text fill="#595959" font-family="Verdana,Open Sans,DejaVu Sans,sans-serif" font-weight="400" font-size="41" transform="matrix(6.12323e-17 -1 1 6.12323e-17 3504.248955078125 1179.0385665893555)">21-Jul</text>
		</g>
		<g>
			<text fill="#595959" font-family="Verdana,Open Sans,DejaVu Sans,sans-serif" font-weight="400" font-size="41" transform="matrix(6.12323e-17 -1 1 6.12323e-17 3590.029287109375 1206.90576171875)">18-Aug</text>
		</g>
		<g>
			<text fill="#595959" font-family="Verdana,Open Sans,DejaVu Sans,sans-serif" font-weight="400" font-size="41" transform="matrix(6.12323e-17 -1 1 6.12323e-17 3675.469287109375 1202.66162109375)">15-Sep</text>
		</g>
		<g>
			<text fill="#595959" font-family="Verdana,Open Sans,DejaVu Sans,sans-serif" font-weight="400" font-size="41" transform="matrix(6.12323e-17 -1 1 6.12323e-17 3756.204697265625 1199.3784103393555)">13-Oct</text>
		</g>
		<g>
			<text fill="#595959" font-family="Verdana,Open Sans,DejaVu Sans,sans-serif" font-weight="400" font-size="41" transform="matrix(6.12323e-17 -1 1 6.12323e-17 3841.644697265625 1209.70849609375)">10-Nov</text>
		</g>
		<g>
			<text fill="#595959" font-family="Verdana,Open Sans,DejaVu Sans,sans-serif" font-weight="400" font-size="41" transform="matrix(6.12323e-17 -1 1 6.12323e-17 3927.084697265625 1207.0859375)">08-Dec</text>
		</g>
		<g>
			<text fill="#595959" font-family="Verdana,Open Sans,DejaVu Sans,sans-serif" font-weight="400" font-size="41" transform="matrix(6.12323e-17 -1 1 6.12323e-17 4016.17826171875 1191.6508712768555)">05-Jan</text>
		</g>
		<g>
			<text fill="#595959" font-family="Verdana,Open Sans,DejaVu Sans,sans-serif" font-weight="400" font-size="41" transform="matrix(6.12323e-17 -1 1 6.12323e-17 4098.675390625 1203.0419921875)">02-Feb</text>
		</g>
		<g>
			<text fill="#595959" font-family="Verdana,Open Sans,DejaVu Sans,sans-serif" font-weight="400" font-size="41" transform="matrix(6.12323e-17 -1 1 6.12323e-17 4183.404697265625 1212.0107421875)">02-Mar</text>
		</g>
		<g>
			<text fill="#595959" font-family="Verdana,Open Sans,DejaVu Sans,sans-serif" font-weight="400" font-size="41" transform="matrix(6.12323e-17 -1 1 6.12323e-17 4268.844697265625 1212.1708984375)">30-Mar</text>
		</g>
		<g>
			<text fill="#595959" font-family="Verdana,Open Sans,DejaVu Sans,sans-serif" font-weight="400" font-size="41" transform="matrix(1 0 0 1 3169.14111328125 1050)">0</text>
		</g>
		<g>
			<text fill="#595959" font-family="Verdana,Open Sans,DejaVu Sans,sans-serif" font-weight="400" font-size="41" transform="matrix(1 0 0 1 3088.962890625 922)">3,303</text>
		</g>
		<g>
			<text fill="#595959" font-family="Verdana,Open Sans,DejaVu Sans,sans-serif" font-weight="400" font-size="41" transform="matrix(1 0 0 1 3089.10302734375 794)">6,607</text>
		</g>
		<g>
			<text fill="#595959" font-family="Verdana,Open Sans,DejaVu Sans,sans-serif" font-weight="400" font-size="41" transform="matrix(1 0 0 1 3088.8427734375 666)">9,910</text>
		</g>
		<g>
			<text fill="#595959" font-family="Verdana,Open Sans,DejaVu Sans,sans-serif" font-weight="400" font-size="41" transform="matrix(1 0 0 1 3065.8203201293945 538)">13,214</text>
		</g>
		<g>
			<text fill="#595959" font-family="Verdana,Open Sans,DejaVu Sans,sans-serif" font-weight="400" font-size="41" transform="matrix(1 0 0 1 3067.0815505981445 410)">16,517</text>
		</g>
		<g>
			<text fill="#595959" font-family="Verdana,Open Sans,DejaVu Sans,sans-serif" font-weight="400" font-size="41" transform="matrix(1 0 0 1 3556.97119140625 1321)">Week Commencing</text>
		</g>
		<g>
			<text fill="#595959" font-family="Verdana,Open Sans,DejaVu Sans,sans-serif" font-weight="400" font-size="46" transform="matrix(6.12323e-17 -1 1 6.12323e-17 3019.73 1011.673828125)">Number of Browser Profiles</text>
		</g>
		<rect x="2918.5" y="347.5" width="1760" height="1043" stroke="#D9D9D9" stroke-width="3.4375" stroke-linejoin="round" stroke-miterlimit="10" fill="none" />
		<g>
			<path d="M3228.5 1038 3249.86 1038 3271.22 1038 3292.58 1038 3313.94 1038 3335.3 1038 3356.66 1038 3378.02 1038 3399.38 1038 3420.74 1038 3442.1 1038 3463.46 1038 3484.82 1038 3506.18 1038 3527.54 1038 3548.9 1038 3570.26 1038 3591.62 1038 3612.98 1038 3634.34 1038 3655.7 1038 3677.06 1038 3698.42 1038 3719.7799999999997 1038 3741.14 1038 3762.5 1038 3783.86 1038 3805.2200000000003 1038 3826.58 1038 3847.94 1038 3869.3 1038 3890.66 1038 3912.02 1038 3933.38 1038 3954.74 1038 3976.1 1038 3997.46 1038 4018.8199999999997 1038 4040.18 1038 4061.54 1038 4082.9 1038 4104.26 1038 4125.62 1038 4146.98 1038 4168.34 1038 4189.7 1038 4211.0599999999995 1038 4232.42 1038 4253.78 1038 4275.139999999999 1038 4296.5 1038 4296.5 532.9203850578192 4275.139999999999 533.9665798873888 4253.78 534.9740267603077 4232.42 535.9814736332264 4211.0599999999995 537.4926439426047 4189.7 538.2288551189683 4168.34 539.1588060785857 4146.98 539.817521341648 4125.62 540.9412120845191 4104.26 541.9486589574378 4082.9 542.4911303505479 4061.54 543.3048374402131 4040.18 544.0410486165769 4018.8199999999997 544.854755706242 3997.46 545.009747532845 3976.1 545.4747230126536 3954.74 546.0171944057638 3933.38 547.0246412786826 3912.02 548.2645758915057 3890.66 549.8919900708361 3869.3 550.2019737240419 3847.94 551.2869165102622 3826.58 551.9068838166738 3805.2200000000003 553.3405582127505 3783.86 553.9217775625114 3762.5 555.2392080886359 3741.14 555.3554519585882 3719.7799999999997 556.207907004904 3698.42 557.2153538778228 3677.06 558.4940364472968 3655.7 559.1914996670098 3634.34 559.8114669734214 3612.98 561.0514015862445 3591.62 561.8651086759097 3570.26 562.7563116788763 3548.9 563.7250105951443 3527.54 564.4999697281589 3506.18 565.2361809045226 3484.82 566.0886359508386 3463.46 566.4761155173458 3442.1 567.4448144336138 3420.74 568.7234970030877 3399.38 569.3047163528486 3378.02 570.4284070957196 3356.66 571.7458376218442 3335.3 573.3345038445239 3313.94 574.4194466307441 3292.58 575.4656414603137 3271.22 576.3568444632803 3249.86 577.1705515529454 3228.5 578.1005025125628 3228.5 1038Z" fill="#005aa6" opacity="0.9" />
		</g>
		<g>
			<path d="M3228.5 578.1005025125628 3249.86 577.1705515529454 3271.22 576.3568444632803 3292.58 575.4656414603137 3313.94 574.4194466307441 3335.3 573.3345038445239 3356.66 571.7458376218442 3378.02 570.4284070957196 3399.38 569.3047163528486 3420.74 568.7234970030877 3442.1 567.4448144336138 3463.46 566.4761155173458 3484.82 566.0886359508386 3506.18 565.2361809045226 3527.54 564.4999697281589 3548.9 563.7250105951443 3570.26 562.7563116788763 3591.62 561.8651086759097 3612.98 561.0514015862445 3634.34 559.8114669734214 3655.7 559.1914996670098 3677.06 558.4940364472968 3698.42 557.2153538778228 3719.7799999999997 556.207907004904 3741.14 555.3554519585882 3762.5 555.2392080886359 3783.86 553.9217775625114 3805.2200000000003 553.3405582127505 3826.58 551.9068838166738 3847.94 551.2869165102622 3869.3 550.2019737240419 3890.66 549.8919900708361 3912.02 548.2645758915057 3933.38 547.0246412786826 3954.74 546.0171944057638 3976.1 545.4747230126536 3997.46 545.009747532845 4018.8199999999997 544.854755706242 4040.18 544.0410486165769 4061.54 543.3048374402131 4082.9 542.4911303505479 4104.26 541.9486589574378 4125.62 540.9412120845191 4146.98 539.817521341648 4168.34 539.1588060785857 4189.7 538.2288551189683 4211.0599999999995 537.4926439426047 4232.42 535.9814736332264 4253.78 534.9740267603077 4275.139999999999 533.9665798873888 4296.5 532.9203850578192 4296.5 398 4275.139999999999 399.31743052612467 4253.78 400.51861718229713 4232.42 401.79729975177094 4211.0599999999995 403.7346975843071 4189.7 404.6259005872737 4168.34 405.86583520009685 4146.98 406.9120300296664 4125.62 408.3457044257433 4104.26 409.54689108191565 4082.9 410.2831022582793 4061.54 411.87176848095896 4040.18 412.68547557062425 4018.8199999999997 413.6541744868923 3997.46 413.847914270146 3976.1 414.390385663256 3954.74 414.9328570563662 3933.38 416.2502875824907 3912.02 417.7227099352183 3890.66 419.5438638978022 3869.3 420.1250832475631 3847.94 421.4425137736878 3826.58 422.17872495005156 3805.2200000000003 423.7673911727311 3783.86 424.5423503057456 3762.5 426.014772658473 3741.14 426.1697644850761 3719.7799999999997 427.2934552279469 3698.42 428.41714597081796 3677.06 429.8895683235455 3655.7 430.7420233698614 3634.34 431.51698250287586 3612.98 432.83441302900053 3591.62 433.8418599019193 3570.26 434.8105588181873 3548.9 436.12798934431186 3527.54 436.9804443906279 3506.18 437.9491433068959 3484.82 438.9178422231641 3463.46 439.5765574862263 3442.1 440.85524005570016 3420.74 442.3276624084276 3399.38 443.0251256281407 3378.02 444.265060240964 3356.66 445.6987346370407 3335.3 447.82987225283046 3313.94 449.1085548223043 3292.58 450.3872373917782 3271.22 451.4334322213477 3249.86 452.36338318096506 3228.5 453.487073923836 3228.5 578.1005025125628Z" fill="#e62d39" opacity="0.9" />
		</g>
		<g>
			<rect x="4372" y="431" width="22.9995" height="23" fill="#005aa6" />
		</g>
		<g>
			<text fill="#595959" font-family="Verdana,Open Sans,DejaVu Sans,sans-serif" font-weight="400" font-size="41" transform="matrix(1 0 0 1 4404.56 454)">Web Browser</text>
		</g>
		<g>
			<rect x="4372" y="508" width="22.9995" height="23" fill="#e62d39" />
		</g>
		<g>
			<text fill="#595959" font-family="Verdana,Open Sans,DejaVu Sans,sans-serif" font-weight="400" font-size="41" transform="matrix(1 0 0 1 4404.56 531)">App</text>
		</g>
	</g>
</svg>
