<svg width="1763" height="1046"
    xmlns="http://www.w3.org/2000/svg"
	xmlns:xlink="http://www.w3.org/1999/xlink" xml:space="preserve" overflow="hidden">
	<defs>
		<clipPath id="clip0">
			<rect x="2917" y="346" width="1763" height="1046"/>
		</clipPath>
	</defs>
	<g clip-path="url(#clip0)" transform="translate(-2917 -346)">
		<rect x="2918" y="347" width="1760" height="1043" fill="#FFFFFF" />
		<g>
			<path d="
			M3228.5 974.532 4296.5 974.532
			M3228.5 910.53 4296.5 910.53
			M3228.5 846.528 4296.5 846.528
			M3228.5 781.526 4296.5 781.526
			M3228.5 717.524 4296.5 717.524
			M3228.5 653.522 4296.5 653.522
			M3228.5 589.52 4296.5 589.52
			M3228.5 525.517 4296.5 525.517
			M3228.5 461.515 4296.5 461.515
			M3228.5 397.5 4296.5 397.5" stroke="#D9D9D9" stroke-width="3.4375" stroke-linejoin="round" stroke-miterlimit="10" fill="none" />
		</g>
		<g>
			<path d="M 1038.5 4296.5 1038.5" stroke="#D9D9D9" stroke-width="3.4375" stroke-linejoin="round" stroke-miterlimit="10" fill="none" fill-rule="evenodd" />
		</g>
		<g>
			<text fill="#595959" font-family="Verdana,sans-serif" font-weight="400" font-size="41" transform="matrix(6.12323e-17 -1 1 6.12323e-17 3244.5 1225)">06-Nov</text>
		</g>
		<g>
			<text fill="#595959" font-family="Verdana,sans-serif" font-weight="400" font-size="41" transform="matrix(6.12323e-17 -1 1 6.12323e-17 3359.9594594594596 1223)">04-Dec</text>
		</g>
		<g>
			<text fill="#595959" font-family="Verdana,sans-serif" font-weight="400" font-size="41" transform="matrix(6.12323e-17 -1 1 6.12323e-17 3475.4189189189187 1210)">01-Jan</text>
		</g>
		<g>
			<text fill="#595959" font-family="Verdana,sans-serif" font-weight="400" font-size="41" transform="matrix(6.12323e-17 -1 1 6.12323e-17 3590.8783783783783 1210)">29-Jan</text>
		</g>
		<g>
			<text fill="#595959" font-family="Verdana,sans-serif" font-weight="400" font-size="41" transform="matrix(6.12323e-17 -1 1 6.12323e-17 3706.337837837838 1216)">26-Feb</text>
		</g>
		<g>
			<text fill="#595959" font-family="Verdana,sans-serif" font-weight="400" font-size="41" transform="matrix(6.12323e-17 -1 1 6.12323e-17 3821.7972972972975 1223)">25-Mar</text>
		</g>
		<g>
			<text fill="#595959" font-family="Verdana,sans-serif" font-weight="400" font-size="41" transform="matrix(6.12323e-17 -1 1 6.12323e-17 3940.7567567567567 1216)">22-Apr</text>
		</g>
		<g>
			<text fill="#595959" font-family="Verdana,sans-serif" font-weight="400" font-size="41" transform="matrix(6.12323e-17 -1 1 6.12323e-17 4056.2162162162163 1228)">20-May</text>
		</g>
		<g>
			<text fill="#595959" font-family="Verdana,sans-serif" font-weight="400" font-size="41" transform="matrix(6.12323e-17 -1 1 6.12323e-17 4167.675675675676 1209)">17-Jun</text>
		</g>
		<g>
			<text fill="#595959" font-family="Verdana,sans-serif" font-weight="400" font-size="41" transform="matrix(6.12323e-17 -1 1 6.12323e-17 4283.635135135135 1194)">15-Jul</text>
		</g>
		<g>
			<text fill="#595959" font-family="Verdana,sans-serif" font-weight="400" font-size="41" transform="matrix(1 0 0 1 3123.5 1050)">0%</text>
		</g>
		<g>
			<text fill="#595959" font-family="Verdana,sans-serif" font-weight="400" font-size="41" transform="matrix(1 0 0 1 3097.5 922)">20%</text>
		</g>
		<g>
			<text fill="#595959" font-family="Verdana,sans-serif" font-weight="400" font-size="41" transform="matrix(1 0 0 1 3096.5 794)">40%</text>
		</g>
		<g>
			<text fill="#595959" font-family="Verdana,sans-serif" font-weight="400" font-size="41" transform="matrix(1 0 0 1 3097.5 666)">60%</text>
		</g>
		<g>
			<text fill="#595959" font-family="Verdana,sans-serif" font-weight="400" font-size="41" transform="matrix(1 0 0 1 3097.5 538)">80%</text>
		</g>
		<g>
			<text fill="#595959" font-family="Verdana,sans-serif" font-weight="400" font-size="41" transform="matrix(1 0 0 1 3074.5 410)">100%</text>
		</g>
		<g>
			<text fill="#595959" font-family="Verdana,sans-serif" font-weight="400" font-size="41" transform="matrix(1 0 0 1 3544.5 1321)">Week Commencing</text>
		</g>
		<g>
			<text fill="#595959" font-family="Verdana,sans-serif" font-weight="400" font-size="46" transform="matrix(6.12323e-17 -1 1 6.12323e-17 3019.73 965.25)">Requests (% of Total)</text>
		</g>
		<rect x="2918.5" y="347.5" width="1760" height="1043" stroke="#D9D9D9" stroke-width="3.4375" stroke-linejoin="round" stroke-miterlimit="10" fill="none" />
		<g>
			<path d="M3228.5 1038 3257.364864864865 1038 3286.2297297297296 1038 3315.0945945945946 1038 3343.9594594594596 1038 3372.824324324324 1038 3401.689189189189 1038 3430.554054054054 1038 3459.4189189189187 1038 3488.2837837837837 1038 3517.1486486486488 1038 3546.0135135135133 1038 3574.8783783783783 1038 3603.7432432432433 1038 3632.608108108108 1038 3661.472972972973 1038 3690.337837837838 1038 3719.2027027027025 1038 3748.0675675675675 1038 3776.9324324324325 1038 3805.7972972972975 1038 3834.662162162162 1038 3863.527027027027 1038 3892.3918918918916 1038 3921.2567567567567 1038 3950.1216216216217 1038 3978.9864864864867 1038 4007.8513513513512 1038 4036.7162162162163 1038 4065.581081081081 1038 4094.445945945946 1038 4123.310810810811 1038 4152.175675675676 1038 4181.040540540541 1038 4209.905405405405 1038 4238.77027027027 1038 4267.635135135135 1038 4296.5 1038 4296.5 682.6018446393113 4267.635135135135 682.3232723398903 4238.77027027027 692.0678617680483 4209.905405405405 692.1617344671945 4181.040540540541 692.8199164999976 4152.175675675676 693.1175071055251 4123.310810810811 693.279620378092 4094.445945945946 693.7023667945714 4065.581081081081 694.1241584254815 4036.7162162162163 694.1818102912466 4007.8513513513512 694.1642138907431 3978.9864864864867 694.1125422243633 3950.1216216216217 694.1000133322768 3921.2567567567567 694.3187105935212 3892.3918918918916 693.6205909506452 3863.527027027027 692.0050611605195 3834.662162162162 690.3198452220047 3805.7972972972975 688.7547930560947 3776.9324324324325 684.6952509793664 3748.0675675675675 679.1608039260515 3719.2027027027025 679.6019256256711 3690.337837837838 682.3213957841157 3661.472972972973 684.5298935912222 3632.608108108108 686.5899201687104 3603.7432432432433 685.5922828206933 3574.8783783783783 684.727262331711 3546.0135135135133 682.4804542973092 3517.1486486486488 682.4034608977785 3488.2837837837837 678.1494953370828 3459.4189189189187 677.8971563273623 3430.554054054054 676.2533828137863 3401.689189189189 675.2989091940677 3372.824324324324 677.8919622242556 3343.9594594594596 674.1657790475881 3315.0945945945946 672.9058970371336 3286.2297297297296 672.3854431659599 3257.364864864865 672.4810692266187 3228.5 688.8585875798008 3228.5 1038Z" fill="#e62d39" opacity="0.9" />
		</g>
		<g>
			<path d="M3228.5 688.8585875798008 3257.364864864865 672.4810692266187 3286.2297297297296 672.3854431659599 3315.0945945945946 672.9058970371336 3343.9594594594596 674.1657790475881 3372.824324324324 677.8919622242556 3401.689189189189 675.2989091940677 3430.554054054054 676.2533828137863 3459.4189189189187 677.8971563273623 3488.2837837837837 678.1494953370828 3517.1486486486488 682.4034608977785 3546.0135135135133 682.4804542973092 3574.8783783783783 684.727262331711 3603.7432432432433 685.5922828206933 3632.608108108108 686.5899201687104 3661.472972972973 684.5298935912222 3690.337837837838 682.3213957841157 3719.2027027027025 679.6019256256711 3748.0675675675675 679.1608039260515 3776.9324324324325 684.6952509793664 3805.7972972972975 688.7547930560947 3834.662162162162 690.3198452220047 3863.527027027027 692.0050611605195 3892.3918918918916 693.6205909506452 3921.2567567567567 694.3187105935212 3950.1216216216217 694.1000133322768 3978.9864864864867 694.1125422243633 4007.8513513513512 694.1642138907431 4036.7162162162163 694.1818102912466 4065.581081081081 694.1241584254815 4094.445945945946 693.7023667945714 4123.310810810811 693.279620378092 4152.175675675676 693.1175071055251 4181.040540540541 692.8199164999976 4209.905405405405 692.1617344671945 4238.77027027027 692.0678617680483 4267.635135135135 682.3232723398903 4296.5 682.6018446393113 4296.5 439.2709286792896 4267.635135135135 439.03517502824866 4238.77027027027 438.2387094064713 4209.905405405405 437.86557118539895 4181.040540540541 437.9037489834077 4152.175675675676 437.50828716559636 4123.310810810811 437.0430647748583 4094.445945945946 436.55579203505033 4065.581081081081 435.9902777401653 4036.7162162162163 435.4750218802621 4007.8513513513512 434.9235826881617 3978.9864864864867 434.50854774480695 3950.1216216216217 434.2228656036452 3921.2567567567567 433.89359402287107 3892.3918918918916 433.6904179753529 3863.527027027027 433.5882703257375 3834.662162162162 433.47006547647834 3805.7972972972975 433.35408809308973 3776.9324324324325 433.21208388667225 3748.0675675675675 422.122193997944 3719.2027027027025 421.6503463054078 3690.337837837838 420.92160217406195 3661.472972972973 420.29603101333674 3632.608108108108 419.6100604377933 3603.7432432432433 419.2453958196608 3574.8783783783783 418.88543369630037 3546.0135135135133 418.3145443410057 3517.1486486486488 418.32121591329116 3488.2837837837837 418.1936065785876 3459.4189189189187 417.9836440524953 3430.554054054054 417.6737817747089 3401.689189189189 417.3462080305663 3372.824324324324 417.2850488775972 3343.9594594594596 416.91367414087256 3315.0945945945946 416.74196033033303 3286.2297297297296 416.60514588840294 3257.364864864865 416.52074620602923 3228.5 416.17089398429073 3228.5 688.8585875798008Z" fill="#005aa6" opacity="0.9" />
		</g>
		<g>
			<path d="M3228.5 416.17089398429073 3257.364864864865 416.52074620602923 3286.2297297297296 416.60514588840294 3315.0945945945946 416.74196033033303 3343.9594594594596 416.91367414087256 3372.824324324324 417.2850488775972 3401.689189189189 417.3462080305663 3430.554054054054 417.6737817747089 3459.4189189189187 417.9836440524953 3488.2837837837837 418.1936065785876 3517.1486486486488 418.32121591329116 3546.0135135135133 418.3145443410057 3574.8783783783783 418.88543369630037 3603.7432432432433 419.2453958196608 3632.608108108108 419.6100604377933 3661.472972972973 420.29603101333674 3690.337837837838 420.92160217406195 3719.2027027027025 421.6503463054078 3748.0675675675675 422.122193997944 3776.9324324324325 433.21208388667225 3805.7972972972975 433.35408809308973 3834.662162162162 433.47006547647834 3863.527027027027 433.5882703257375 3892.3918918918916 433.6904179753529 3921.2567567567567 433.89359402287107 3950.1216216216217 434.2228656036452 3978.9864864864867 434.50854774480695 4007.8513513513512 434.9235826881617 4036.7162162162163 435.4750218802621 4065.581081081081 435.9902777401653 4094.445945945946 436.55579203505033 4123.310810810811 437.0430647748583 4152.175675675676 437.50828716559636 4181.040540540541 437.9037489834077 4209.905405405405 437.86557118539895 4238.77027027027 438.2387094064713 4267.635135135135 439.03517502824866 4296.5 439.2709286792896 4296.5 397.9999999999999 4267.635135135135 397.99999999999994 4238.77027027027 398.00000000000006 4209.905405405405 398 4181.040540540541 398 4152.175675675676 398.00000000000006 4123.310810810811 397.9999999999999 4094.445945945946 398 4065.581081081081 397.99999999999994 4036.7162162162163 398 4007.8513513513512 398 3978.9864864864867 397.9999999999999 3950.1216216216217 397.9999999999999 3921.2567567567567 398.0000000000001 3892.3918918918916 398 3863.527027027027 397.99999999999994 3834.662162162162 398.00000000000006 3805.7972972972975 398 3776.9324324324325 398 3748.0675675675675 398 3719.2027027027025 398.00000000000006 3690.337837837838 398.00000000000006 3661.472972972973 398.00000000000006 3632.608108108108 398 3603.7432432432433 397.99999999999994 3574.8783783783783 398 3546.0135135135133 398 3517.1486486486488 398 3488.2837837837837 398 3459.4189189189187 398 3430.554054054054 398 3401.689189189189 398 3372.824324324324 398.00000000000006 3343.9594594594596 398 3315.0945945945946 397.99999999999994 3286.2297297297296 398.00000000000006 3257.364864864865 397.9999999999999 3228.5 397.9999999999999 3228.5 416.17089398429073Z" fill="#393d41" opacity="0.9" />
		</g>
		<g>
			<rect x="4372" y="431" width="22.9995" height="23" fill="#e62d39" />
		</g>
		<g>
			<text fill="#595959" font-family="Verdana,sans-serif" font-weight="400" font-size="41" transform="matrix(1 0 0 1 4404.56 454)">Web Browser</text>
		</g>
		<g>
			<rect x="4372" y="508" width="22.9995" height="23" fill="#005aa6" />
		</g>
		<g>
			<text fill="#595959" font-family="Verdana,sans-serif" font-weight="400" font-size="41" transform="matrix(1 0 0 1 4404.56 531)">App</text>
		</g>
		<g>
			<rect x="4372" y="585" width="22.9995" height="23" fill="#393d41" />
		</g>
		<g>
			<text fill="#595959" font-family="Verdana,sans-serif" font-weight="400" font-size="41" transform="matrix(1 0 0 1 4404.56 608)">Unclassified</text>
		</g>
	</g>
</svg>
