<svg width="1763" height="1046"
    xmlns="http://www.w3.org/2000/svg"
	xmlns:xlink="http://www.w3.org/1999/xlink" xml:space="preserve" overflow="hidden">
	<defs>
		<clipPath id="clip0">
			<rect x="2917" y="346" width="1763" height="1046"/>
		</clipPath>
	</defs>
	<g clip-path="url(#clip0)" transform="translate(-2917 -346)">
		<rect x="2918" y="347" width="1760" height="1043" fill="#FFFFFF" />
		<g>
			<path d="
			M3228.5 974.532 4296.5 974.532
			M3228.5 910.53 4296.5 910.53
			M3228.5 846.528 4296.5 846.528
			M3228.5 781.526 4296.5 781.526
			M3228.5 717.524 4296.5 717.524
			M3228.5 653.522 4296.5 653.522
			M3228.5 589.52 4296.5 589.52
			M3228.5 525.517 4296.5 525.517
			M3228.5 461.515 4296.5 461.515
			M3228.5 397.5 4296.5 397.5" stroke="#D9D9D9" stroke-width="3.4375" stroke-linejoin="round" stroke-miterlimit="10" fill="none" />
		</g>
		<g>
			<path d="M 1038.5 4296.5 1038.5" stroke="#D9D9D9" stroke-width="3.4375" stroke-linejoin="round" stroke-miterlimit="10" fill="none" fill-rule="evenodd" />
		</g>
		<g>
			<text fill="#595959" font-family="Verdana,Open Sans,DejaVu Sans,sans-serif" font-weight="400" font-size="41" transform="matrix(6.12323e-17 -1 1 6.12323e-17 3243.544677734375 1212.1708984375)">31-Mar</text>
		</g>
		<g>
			<text fill="#595959" font-family="Verdana,Open Sans,DejaVu Sans,sans-serif" font-weight="400" font-size="41" transform="matrix(6.12323e-17 -1 1 6.12323e-17 3333.709287109375 1203.3022384643555)">28-Apr</text>
		</g>
		<g>
			<text fill="#595959" font-family="Verdana,Open Sans,DejaVu Sans,sans-serif" font-weight="400" font-size="41" transform="matrix(6.12323e-17 -1 1 6.12323e-17 3419.149287109375 1216.51513671875)">26-May</text>
		</g>
		<g>
			<text fill="#595959" font-family="Verdana,Open Sans,DejaVu Sans,sans-serif" font-weight="400" font-size="41" transform="matrix(6.12323e-17 -1 1 6.12323e-17 3503.53826171875 1194.1733322143555)">30-Jun</text>
		</g>
		<g>
			<text fill="#595959" font-family="Verdana,Open Sans,DejaVu Sans,sans-serif" font-weight="400" font-size="41" transform="matrix(6.12323e-17 -1 1 6.12323e-17 3589.688955078125 1179.0385665893555)">28-Jul</text>
		</g>
		<g>
			<text fill="#595959" font-family="Verdana,Open Sans,DejaVu Sans,sans-serif" font-weight="400" font-size="41" transform="matrix(6.12323e-17 -1 1 6.12323e-17 3675.469287109375 1208.66748046875)">25-Aug</text>
		</g>
		<g>
			<text fill="#595959" font-family="Verdana,Open Sans,DejaVu Sans,sans-serif" font-weight="400" font-size="41" transform="matrix(6.12323e-17 -1 1 6.12323e-17 3760.909287109375 1204.42333984375)">22-Sep</text>
		</g>
		<g>
			<text fill="#595959" font-family="Verdana,Open Sans,DejaVu Sans,sans-serif" font-weight="400" font-size="41" transform="matrix(6.12323e-17 -1 1 6.12323e-17 3841.644697265625 1201.1401290893555)">20-Oct</text>
		</g>
		<g>
			<text fill="#595959" font-family="Verdana,Open Sans,DejaVu Sans,sans-serif" font-weight="400" font-size="41" transform="matrix(6.12323e-17 -1 1 6.12323e-17 3926.85447265625 1209.70849609375)">17-Nov</text>
		</g>
		<g>
			<text fill="#595959" font-family="Verdana,Open Sans,DejaVu Sans,sans-serif" font-weight="400" font-size="41" transform="matrix(6.12323e-17 -1 1 6.12323e-17 4012.29447265625 1205.3642578125)">15-Dec</text>
		</g>
		<g>
			<text fill="#595959" font-family="Verdana,Open Sans,DejaVu Sans,sans-serif" font-weight="400" font-size="41" transform="matrix(6.12323e-17 -1 1 6.12323e-17 4101.5982421875 1189.9291915893555)">12-Jan</text>
		</g>
		<g>
			<text fill="#595959" font-family="Verdana,Open Sans,DejaVu Sans,sans-serif" font-weight="400" font-size="41" transform="matrix(6.12323e-17 -1 1 6.12323e-17 4184.115390625 1203.0419921875)">09-Feb</text>
		</g>
		<g>
			<text fill="#595959" font-family="Verdana,Open Sans,DejaVu Sans,sans-serif" font-weight="400" font-size="41" transform="matrix(6.12323e-17 -1 1 6.12323e-17 4268.844697265625 1212.0107421875)">09-Mar</text>
		</g>
		<g>
			<text fill="#595959" font-family="Verdana,Open Sans,DejaVu Sans,sans-serif" font-weight="400" font-size="41" transform="matrix(1 0 0 1 3169.14111328125 1050)">0</text>
		</g>
		<g>
			<text fill="#595959" font-family="Verdana,Open Sans,DejaVu Sans,sans-serif" font-weight="400" font-size="41" transform="matrix(1 0 0 1 3087.38134765625 922)">3,284</text>
		</g>
		<g>
			<text fill="#595959" font-family="Verdana,Open Sans,DejaVu Sans,sans-serif" font-weight="400" font-size="41" transform="matrix(1 0 0 1 3089.14306640625 794)">6,568</text>
		</g>
		<g>
			<text fill="#595959" font-family="Verdana,Open Sans,DejaVu Sans,sans-serif" font-weight="400" font-size="41" transform="matrix(1 0 0 1 3095.9296875 666)">9,851</text>
		</g>
		<g>
			<text fill="#595959" font-family="Verdana,Open Sans,DejaVu Sans,sans-serif" font-weight="400" font-size="41" transform="matrix(1 0 0 1 3067.3618240356445 538)">13,135</text>
		</g>
		<g>
			<text fill="#595959" font-family="Verdana,Open Sans,DejaVu Sans,sans-serif" font-weight="400" font-size="41" transform="matrix(1 0 0 1 3067.2016677856445 410)">16,419</text>
		</g>
		<g>
			<text fill="#595959" font-family="Verdana,Open Sans,DejaVu Sans,sans-serif" font-weight="400" font-size="41" transform="matrix(1 0 0 1 3556.97119140625 1321)">Week Commencing</text>
		</g>
		<g>
			<text fill="#595959" font-family="Verdana,Open Sans,DejaVu Sans,sans-serif" font-weight="400" font-size="46" transform="matrix(6.12323e-17 -1 1 6.12323e-17 3019.73 1011.673828125)">Number of Browser Profiles</text>
		</g>
		<rect x="2918.5" y="347.5" width="1760" height="1043" stroke="#D9D9D9" stroke-width="3.4375" stroke-linejoin="round" stroke-miterlimit="10" fill="none" />
		<g>
			<path d="M3228.5 1038 3249.86 1038 3271.22 1038 3292.58 1038 3313.94 1038 3335.3 1038 3356.66 1038 3378.02 1038 3399.38 1038 3420.74 1038 3442.1 1038 3463.46 1038 3484.82 1038 3506.18 1038 3527.54 1038 3548.9 1038 3570.26 1038 3591.62 1038 3612.98 1038 3634.34 1038 3655.7 1038 3677.06 1038 3698.42 1038 3719.7799999999997 1038 3741.14 1038 3762.5 1038 3783.86 1038 3805.2200000000003 1038 3826.58 1038 3847.94 1038 3869.3 1038 3890.66 1038 3912.02 1038 3933.38 1038 3954.74 1038 3976.1 1038 3997.46 1038 4018.8199999999997 1038 4040.18 1038 4061.54 1038 4082.9 1038 4104.26 1038 4125.62 1038 4146.98 1038 4168.34 1038 4189.7 1038 4211.0599999999995 1038 4232.42 1038 4253.78 1038 4275.139999999999 1038 4296.5 1038 4296.5 532.985078262988 4275.139999999999 534.505268286741 4253.78 535.2458736829283 4232.42 536.1813752360072 4211.0599999999995 536.844022169438 4189.7 537.9744198794081 4168.34 538.9878798952434 4146.98 539.5335891345393 4125.62 540.3521529934832 4104.26 541.0927583896705 4082.9 541.9113222486144 4061.54 542.0672391741275 4040.18 542.534989950667 4018.8199999999997 543.0806991899628 3997.46 544.0941592057982 3976.1 545.3414946099032 3954.74 546.9786223277911 3933.38 547.2904561788173 3912.02 548.3818746574091 3890.66 549.0055423594616 3869.3 550.4477739204581 3847.94 551.0324623911322 3826.58 552.3577562579937 3805.2200000000003 552.4746939521287 3783.86 553.3322370424509 3762.5 554.3456970582862 3741.14 555.6320116937695 3719.7799999999997 556.3336378585785 3698.42 556.9573055606311 3677.06 558.204640964736 3655.7 559.0232048236799 3634.34 559.9197271453804 3612.98 560.8942079298374 3591.62 561.673792557403 3570.26 562.4143979535904 3548.9 563.2719410439126 3527.54 563.6617333576953 3506.18 564.6362141421524 3484.82 565.9225287776358 3463.46 566.5072172483099 3442.1 567.6376149582801 3420.74 568.9629088251417 3399.38 570.5610573116512 3378.02 571.652475790243 3356.66 572.7049150374567 3335.3 573.6014373591571 3313.94 574.420001218101 3292.58 575.3555027711798 3271.22 576.213045861502 3249.86 577.6552774224983 3228.5 578.2789451245509 3228.5 1038Z" fill="#005aa6" opacity="0.9" />
		</g>
		<g>
			<path d="M3228.5 578.2789451245509 3249.86 577.6552774224983 3271.22 576.213045861502 3292.58 575.3555027711798 3313.94 574.420001218101 3335.3 573.6014373591571 3356.66 572.7049150374567 3378.02 571.652475790243 3399.38 570.5610573116512 3420.74 568.9629088251417 3442.1 567.6376149582801 3463.46 566.5072172483099 3484.82 565.9225287776358 3506.18 564.6362141421524 3527.54 563.6617333576953 3548.9 563.2719410439126 3570.26 562.4143979535904 3591.62 561.673792557403 3612.98 560.8942079298374 3634.34 559.9197271453804 3655.7 559.0232048236799 3677.06 558.204640964736 3698.42 556.9573055606311 3719.7799999999997 556.3336378585785 3741.14 555.6320116937695 3762.5 554.3456970582862 3783.86 553.3322370424509 3805.2200000000003 552.4746939521287 3826.58 552.3577562579937 3847.94 551.0324623911322 3869.3 550.4477739204581 3890.66 549.0055423594616 3912.02 548.3818746574091 3933.38 547.2904561788173 3954.74 546.9786223277911 3976.1 545.3414946099032 3997.46 544.0941592057982 4018.8199999999997 543.0806991899628 4040.18 542.534989950667 4061.54 542.0672391741275 4082.9 541.9113222486144 4104.26 541.0927583896705 4125.62 540.3521529934832 4146.98 539.5335891345393 4168.34 538.9878798952434 4189.7 537.9744198794081 4211.0599999999995 536.844022169438 4232.42 536.1813752360072 4253.78 535.2458736829283 4275.139999999999 534.505268286741 4296.5 532.985078262988 4296.5 398.00000000000006 4275.139999999999 399.94896156891417 4253.78 400.8454838906145 4232.42 402.0928192947197 4211.0599999999995 403.14525854193323 4189.7 404.58749010292956 4168.34 405.79584627565634 4146.98 406.5364516718436 4125.62 408.1346001583531 4104.26 408.953164017297 4082.9 409.92764480175407 4061.54 410.12254095864546 4040.18 410.66825019794146 4018.8199999999997 411.21395943723735 3997.46 412.5392533040989 3976.1 414.02046409647363 3954.74 415.8524879712529 3933.38 416.43717644192714 3912.02 417.7624703087886 3890.66 418.50307570497597 3869.3 420.1012241914856 3847.94 420.8808088190511 3826.58 422.36201961142575 3805.2200000000003 422.51793653693903 3783.86 423.64833424690914 3762.5 424.77873195687926 3741.14 426.25994274925404 3719.7799999999997 427.11748583957615 3698.42 427.8970704671418 3677.06 429.22236433400326 3655.7 430.2358243498386 3634.34 431.2103051342957 3612.98 432.53559900115727 3591.62 433.3931420914794 3570.26 434.3676228759365 3548.9 435.34210366039355 3527.54 436.0047505938242 3506.18 437.29106522930755 3484.82 438.7722760216823 3463.46 439.4739021864913 3442.1 440.72123759059633 3420.74 442.1634691515927 3399.38 444.3073268773982 3378.02 445.5936415128814 3356.66 446.8799561483647 3335.3 447.93239539557834 3313.94 448.86789694865706 3292.58 449.99829465862723 3271.22 451.0117546744626 3249.86 452.64888239235034 3228.5 453.4674462512943 3228.5 578.2789451245509Z" fill="#e62d39" opacity="0.9" />
		</g>
		<g>
			<rect x="4372" y="431" width="22.9995" height="23" fill="#005aa6" />
		</g>
		<g>
			<text fill="#595959" font-family="Verdana,Open Sans,DejaVu Sans,sans-serif" font-weight="400" font-size="41" transform="matrix(1 0 0 1 4404.56 454)">Web Browser</text>
		</g>
		<g>
			<rect x="4372" y="508" width="22.9995" height="23" fill="#e62d39" />
		</g>
		<g>
			<text fill="#595959" font-family="Verdana,Open Sans,DejaVu Sans,sans-serif" font-weight="400" font-size="41" transform="matrix(1 0 0 1 4404.56 531)">App</text>
		</g>
	</g>
</svg>
