<svg width="1763" height="1046"
    xmlns="http://www.w3.org/2000/svg"
	xmlns:xlink="http://www.w3.org/1999/xlink" xml:space="preserve" overflow="hidden">
	<defs>
		<clipPath id="clip0">
			<rect x="2917" y="346" width="1763" height="1046"/>
		</clipPath>
	</defs>
	<g clip-path="url(#clip0)" transform="translate(-2917 -346)">
		<rect x="2918" y="347" width="1760" height="1043" fill="#FFFFFF" />
		<g>
			<path d="
			M3228.5 974.532 4296.5 974.532
			M3228.5 910.53 4296.5 910.53
			M3228.5 846.528 4296.5 846.528
			M3228.5 781.526 4296.5 781.526
			M3228.5 717.524 4296.5 717.524
			M3228.5 653.522 4296.5 653.522
			M3228.5 589.52 4296.5 589.52
			M3228.5 525.517 4296.5 525.517
			M3228.5 461.515 4296.5 461.515
			M3228.5 397.5 4296.5 397.5" stroke="#D9D9D9" stroke-width="3.4375" stroke-linejoin="round" stroke-miterlimit="10" fill="none" />
		</g>
		<g>
			<path d="M 1038.5 4296.5 1038.5" stroke="#D9D9D9" stroke-width="3.4375" stroke-linejoin="round" stroke-miterlimit="10" fill="none" fill-rule="evenodd" />
		</g>
		<g>
			<text fill="#595959" font-family="Verdana,Open Sans,DejaVu Sans,sans-serif" font-weight="400" font-size="41" transform="matrix(6.12323e-17 -1 1 6.12323e-17 3248.289306640625 1216.47509765625)">05-May</text>
		</g>
		<g>
			<text fill="#595959" font-family="Verdana,Open Sans,DejaVu Sans,sans-serif" font-weight="400" font-size="41" transform="matrix(6.12323e-17 -1 1 6.12323e-17 3332.65826171875 1194.0131759643555)">09-Jun</text>
		</g>
		<g>
			<text fill="#595959" font-family="Verdana,Open Sans,DejaVu Sans,sans-serif" font-weight="400" font-size="41" transform="matrix(6.12323e-17 -1 1 6.12323e-17 3418.808955078125 1178.9985275268555)">07-Jul</text>
		</g>
		<g>
			<text fill="#595959" font-family="Verdana,Open Sans,DejaVu Sans,sans-serif" font-weight="400" font-size="41" transform="matrix(6.12323e-17 -1 1 6.12323e-17 3504.609306640625 1208.62744140625)">04-Aug</text>
		</g>
		<g>
			<text fill="#595959" font-family="Verdana,Open Sans,DejaVu Sans,sans-serif" font-weight="400" font-size="41" transform="matrix(6.12323e-17 -1 1 6.12323e-17 3590.049306640625 1204.38330078125)">01-Sep</text>
		</g>
		<g>
			<text fill="#595959" font-family="Verdana,Open Sans,DejaVu Sans,sans-serif" font-weight="400" font-size="41" transform="matrix(6.12323e-17 -1 1 6.12323e-17 3675.469287109375 1204.42333984375)">29-Sep</text>
		</g>
		<g>
			<text fill="#595959" font-family="Verdana,Open Sans,DejaVu Sans,sans-serif" font-weight="400" font-size="41" transform="matrix(6.12323e-17 -1 1 6.12323e-17 3756.204697265625 1201.1401290893555)">27-Oct</text>
		</g>
		<g>
			<text fill="#595959" font-family="Verdana,Open Sans,DejaVu Sans,sans-serif" font-weight="400" font-size="41" transform="matrix(6.12323e-17 -1 1 6.12323e-17 3841.624677734375 1211.47021484375)">24-Nov</text>
		</g>
		<g>
			<text fill="#595959" font-family="Verdana,Open Sans,DejaVu Sans,sans-serif" font-weight="400" font-size="41" transform="matrix(6.12323e-17 -1 1 6.12323e-17 3927.064677734375 1207.1259765625)">22-Dec</text>
		</g>
		<g>
			<text fill="#595959" font-family="Verdana,Open Sans,DejaVu Sans,sans-serif" font-weight="400" font-size="41" transform="matrix(6.12323e-17 -1 1 6.12323e-17 4016.1582421875 1189.9291915893555)">19-Jan</text>
		</g>
		<g>
			<text fill="#595959" font-family="Verdana,Open Sans,DejaVu Sans,sans-serif" font-weight="400" font-size="41" transform="matrix(6.12323e-17 -1 1 6.12323e-17 4098.675390625 1201.3203125)">16-Feb</text>
		</g>
		<g>
			<text fill="#595959" font-family="Verdana,Open Sans,DejaVu Sans,sans-serif" font-weight="400" font-size="41" transform="matrix(6.12323e-17 -1 1 6.12323e-17 4183.384677734375 1210.2890625)">16-Mar</text>
		</g>
		<g>
			<text fill="#595959" font-family="Verdana,Open Sans,DejaVu Sans,sans-serif" font-weight="400" font-size="41" transform="matrix(6.12323e-17 -1 1 6.12323e-17 4273.549287109375 1201.5405197143555)">13-Apr</text>
		</g>
		<g>
			<text fill="#595959" font-family="Verdana,Open Sans,DejaVu Sans,sans-serif" font-weight="400" font-size="41" transform="matrix(1 0 0 1 3169.14111328125 1050)">0</text>
		</g>
		<g>
			<text fill="#595959" font-family="Verdana,Open Sans,DejaVu Sans,sans-serif" font-weight="400" font-size="41" transform="matrix(1 0 0 1 3088.5625 922)">3,316</text>
		</g>
		<g>
			<text fill="#595959" font-family="Verdana,Open Sans,DejaVu Sans,sans-serif" font-weight="400" font-size="41" transform="matrix(1 0 0 1 3089.22314453125 794)">6,632</text>
		</g>
		<g>
			<text fill="#595959" font-family="Verdana,Open Sans,DejaVu Sans,sans-serif" font-weight="400" font-size="41" transform="matrix(1 0 0 1 3088.8828125 666)">9,947</text>
		</g>
		<g>
			<text fill="#595959" font-family="Verdana,Open Sans,DejaVu Sans,sans-serif" font-weight="400" font-size="41" transform="matrix(1 0 0 1 3067.4018630981445 538)">13,263</text>
		</g>
		<g>
			<text fill="#595959" font-family="Verdana,Open Sans,DejaVu Sans,sans-serif" font-weight="400" font-size="41" transform="matrix(1 0 0 1 3067.2016677856445 410)">16,579</text>
		</g>
		<g>
			<text fill="#595959" font-family="Verdana,Open Sans,DejaVu Sans,sans-serif" font-weight="400" font-size="41" transform="matrix(1 0 0 1 3556.97119140625 1321)">Week Commencing</text>
		</g>
		<g>
			<text fill="#595959" font-family="Verdana,Open Sans,DejaVu Sans,sans-serif" font-weight="400" font-size="46" transform="matrix(6.12323e-17 -1 1 6.12323e-17 3019.73 1011.673828125)">Number of Browser Profiles</text>
		</g>
		<rect x="2918.5" y="347.5" width="1760" height="1043" stroke="#D9D9D9" stroke-width="3.4375" stroke-linejoin="round" stroke-miterlimit="10" fill="none" />
		<g>
			<path d="M3228.5 1038 3249.86 1038 3271.22 1038 3292.58 1038 3313.94 1038 3335.3 1038 3356.66 1038 3378.02 1038 3399.38 1038 3420.74 1038 3442.1 1038 3463.46 1038 3484.82 1038 3506.18 1038 3527.54 1038 3548.9 1038 3570.26 1038 3591.62 1038 3612.98 1038 3634.34 1038 3655.7 1038 3677.06 1038 3698.42 1038 3719.7799999999997 1038 3741.14 1038 3762.5 1038 3783.86 1038 3805.2200000000003 1038 3826.58 1038 3847.94 1038 3869.3 1038 3890.66 1038 3912.02 1038 3933.38 1038 3954.74 1038 3976.1 1038 3997.46 1038 4018.8199999999997 1038 4040.18 1038 4061.54 1038 4082.9 1038 4104.26 1038 4125.62 1038 4146.98 1038 4168.34 1038 4189.7 1038 4211.0599999999995 1038 4232.42 1038 4253.78 1038 4275.139999999999 1038 4296.5 1038 4296.5 532.8790638759876 4275.139999999999 533.9599493334943 4253.78 534.8092164786779 4232.42 535.8514988841305 4211.0599999999995 536.8551782375293 4189.7 537.8588575909283 4168.34 539.3643766210266 4146.98 540.097834610049 4125.62 541.0243078593401 4104.26 541.6805597442549 4082.9 542.800048253815 4061.54 543.8037276072139 4040.18 544.3441703359672 4018.8199999999997 545.154834429097 3997.46 545.8882924181194 3976.1 546.6989565112492 3954.74 546.8533687194645 3933.38 547.31660534411 3912.02 547.8570480728633 3890.66 548.8607274262622 3869.3 550.0960250919838 3847.94 551.7173532782435 3826.58 552.0261776946741 3805.2200000000003 553.1070631521804 3783.86 553.7247119850413 3762.5 555.153024911032 3741.14 555.7320706918391 3719.7799999999997 557.0445744616684 3698.42 557.1603836178298 3677.06 558.0096507630135 3655.7 559.0133301164124 3634.34 560.2872308341878 3612.98 560.9820857711563 3591.62 561.5997346040172 3570.26 562.8350322697388 3548.9 563.6456963628686 3527.54 564.5335665601062 3506.18 565.4986428614512 3484.82 566.2707039025273 3463.46 567.0041618915495 3442.1 567.8534290367332 3420.74 568.2394595572713 3399.38 569.2045358586163 3378.02 570.4784365763919 3356.66 571.0574823571989 3335.3 572.1769708667591 3313.94 573.4894746365885 3292.58 575.0721997707944 3271.22 576.1530852283008 3249.86 577.1953676337536 3228.5 578.083237830991 3228.5 1038Z" fill="#005aa6" opacity="0.9" />
		</g>
		<g>
			<path d="M3228.5 578.083237830991 3249.86 577.1953676337536 3271.22 576.1530852283008 3292.58 575.0721997707944 3313.94 573.4894746365885 3335.3 572.1769708667591 3356.66 571.0574823571989 3378.02 570.4784365763919 3399.38 569.2045358586163 3420.74 568.2394595572713 3442.1 567.8534290367332 3463.46 567.0041618915495 3484.82 566.2707039025273 3506.18 565.4986428614512 3527.54 564.5335665601062 3548.9 563.6456963628686 3570.26 562.8350322697388 3591.62 561.5997346040172 3612.98 560.9820857711563 3634.34 560.2872308341878 3655.7 559.0133301164124 3677.06 558.0096507630135 3698.42 557.1603836178298 3719.7799999999997 557.0445744616684 3741.14 555.7320706918391 3762.5 555.153024911032 3783.86 553.7247119850413 3805.2200000000003 553.1070631521804 3826.58 552.0261776946741 3847.94 551.7173532782435 3869.3 550.0960250919838 3890.66 548.8607274262622 3912.02 547.8570480728633 3933.38 547.31660534411 3954.74 546.8533687194645 3976.1 546.6989565112492 3997.46 545.8882924181194 4018.8199999999997 545.154834429097 4040.18 544.3441703359672 4061.54 543.8037276072139 4082.9 542.800048253815 4104.26 541.6805597442549 4125.62 541.0243078593401 4146.98 540.097834610049 4168.34 539.3643766210266 4189.7 537.8588575909283 4211.0599999999995 536.8551782375293 4232.42 535.8514988841305 4253.78 534.8092164786779 4275.139999999999 533.9599493334943 4296.5 532.8790638759876 4296.5 397.99999999999994 4275.139999999999 399.35110682188315 4253.78 400.3933892273358 4232.42 401.70589299716505 4211.0599999999995 402.90258761083294 4189.7 404.1764883286085 4168.34 406.10664093129867 4146.98 406.9945111285362 4125.62 408.22980879425774 4104.26 409.2720911997106 4082.9 410.70040412570114 4061.54 411.897098739369 4040.18 412.63055672839135 4018.8199999999997 414.2132818625972 3997.46 415.0239459557272 3976.1 415.98902225707224 3954.74 416.1820375173413 3933.38 416.7224802460945 3912.02 417.2629229748478 3890.66 418.5754267446771 3869.3 420.0423427227215 3847.94 421.8566861692502 3826.58 422.4357319500574 3805.2200000000003 423.74823571988657 3783.86 424.4816937089088 3762.5 426.0644188431148 3741.14 426.8364798841909 3719.7799999999997 428.30339586223533 3698.42 428.4578080704506 3677.06 429.5772965800109 3655.7 430.6967850895712 3634.34 432.1637010676156 3612.98 433.01296821279936 3591.62 433.78502925387545 3570.26 435.09753302370467 3548.9 436.10121237710354 3527.54 437.0662886784487 3506.18 438.378792448278 3484.82 439.22805959346164 3463.46 440.1931358948067 3442.1 441.1582121961518 3420.74 441.8144640810665 3399.38 443.0883647988419 3378.02 444.55528077688655 3356.66 445.2501357138549 3335.3 446.48543337957653 3313.94 447.9137463055673 3292.58 450.03691416852655 3271.22 451.3108148863019 3249.86 452.5847156040775 3228.5 453.62699800953015 3228.5 578.083237830991Z" fill="#e62d39" opacity="0.9" />
		</g>
		<g>
			<rect x="4372" y="431" width="22.9995" height="23" fill="#005aa6" />
		</g>
		<g>
			<text fill="#595959" font-family="Verdana,Open Sans,DejaVu Sans,sans-serif" font-weight="400" font-size="41" transform="matrix(1 0 0 1 4404.56 454)">Web Browser</text>
		</g>
		<g>
			<rect x="4372" y="508" width="22.9995" height="23" fill="#e62d39" />
		</g>
		<g>
			<text fill="#595959" font-family="Verdana,Open Sans,DejaVu Sans,sans-serif" font-weight="400" font-size="41" transform="matrix(1 0 0 1 4404.56 531)">App</text>
		</g>
	</g>
</svg>
