<svg width="1763" height="1046"
    xmlns="http://www.w3.org/2000/svg"
	xmlns:xlink="http://www.w3.org/1999/xlink" xml:space="preserve" overflow="hidden">
	<defs>
		<clipPath id="clip0">
			<rect x="2917" y="346" width="1763" height="1046"/>
		</clipPath>
	</defs>
	<g clip-path="url(#clip0)" transform="translate(-2917 -346)">
		<rect x="2918" y="347" width="1760" height="1043" fill="#FFFFFF" />
		<g>
			<path d="
			M3228.5 974.532 4296.5 974.532
			M3228.5 910.53 4296.5 910.53
			M3228.5 846.528 4296.5 846.528
			M3228.5 781.526 4296.5 781.526
			M3228.5 717.524 4296.5 717.524
			M3228.5 653.522 4296.5 653.522
			M3228.5 589.52 4296.5 589.52
			M3228.5 525.517 4296.5 525.517
			M3228.5 461.515 4296.5 461.515
			M3228.5 397.5 4296.5 397.5" stroke="#D9D9D9" stroke-width="3.4375" stroke-linejoin="round" stroke-miterlimit="10" fill="none" />
		</g>
		<g>
			<path d="M 1038.5 4296.5 1038.5" stroke="#D9D9D9" stroke-width="3.4375" stroke-linejoin="round" stroke-miterlimit="10" fill="none" fill-rule="evenodd" />
		</g>
		<g>
			<text fill="#595959" font-family="Verdana,Open Sans,DejaVu Sans,sans-serif" font-weight="400" font-size="41" transform="matrix(6.12323e-17 -1 1 6.12323e-17 3244.275390625 1201.3203125)">10-Feb</text>
		</g>
		<g>
			<text fill="#595959" font-family="Verdana,Open Sans,DejaVu Sans,sans-serif" font-weight="400" font-size="41" transform="matrix(6.12323e-17 -1 1 6.12323e-17 3329.004697265625 1210.2890625)">10-Mar</text>
		</g>
		<g>
			<text fill="#595959" font-family="Verdana,Open Sans,DejaVu Sans,sans-serif" font-weight="400" font-size="41" transform="matrix(6.12323e-17 -1 1 6.12323e-17 3419.169306640625 1203.2621994018555)">07-Apr</text>
		</g>
		<g>
			<text fill="#595959" font-family="Verdana,Open Sans,DejaVu Sans,sans-serif" font-weight="400" font-size="41" transform="matrix(6.12323e-17 -1 1 6.12323e-17 3504.609306640625 1216.47509765625)">05-May</text>
		</g>
		<g>
			<text fill="#595959" font-family="Verdana,Open Sans,DejaVu Sans,sans-serif" font-weight="400" font-size="41" transform="matrix(6.12323e-17 -1 1 6.12323e-17 3588.97826171875 1194.0131759643555)">09-Jun</text>
		</g>
		<g>
			<text fill="#595959" font-family="Verdana,Open Sans,DejaVu Sans,sans-serif" font-weight="400" font-size="41" transform="matrix(6.12323e-17 -1 1 6.12323e-17 3675.128955078125 1178.9985275268555)">07-Jul</text>
		</g>
		<g>
			<text fill="#595959" font-family="Verdana,Open Sans,DejaVu Sans,sans-serif" font-weight="400" font-size="41" transform="matrix(6.12323e-17 -1 1 6.12323e-17 3760.929306640625 1208.62744140625)">04-Aug</text>
		</g>
		<g>
			<text fill="#595959" font-family="Verdana,Open Sans,DejaVu Sans,sans-serif" font-weight="400" font-size="41" transform="matrix(6.12323e-17 -1 1 6.12323e-17 3846.369306640625 1204.38330078125)">01-Sep</text>
		</g>
		<g>
			<text fill="#595959" font-family="Verdana,Open Sans,DejaVu Sans,sans-serif" font-weight="400" font-size="41" transform="matrix(6.12323e-17 -1 1 6.12323e-17 3931.789287109375 1204.42333984375)">29-Sep</text>
		</g>
		<g>
			<text fill="#595959" font-family="Verdana,Open Sans,DejaVu Sans,sans-serif" font-weight="400" font-size="41" transform="matrix(6.12323e-17 -1 1 6.12323e-17 4012.524697265625 1201.1401290893555)">27-Oct</text>
		</g>
		<g>
			<text fill="#595959" font-family="Verdana,Open Sans,DejaVu Sans,sans-serif" font-weight="400" font-size="41" transform="matrix(6.12323e-17 -1 1 6.12323e-17 4097.944677734375 1211.47021484375)">24-Nov</text>
		</g>
		<g>
			<text fill="#595959" font-family="Verdana,Open Sans,DejaVu Sans,sans-serif" font-weight="400" font-size="41" transform="matrix(6.12323e-17 -1 1 6.12323e-17 4183.384677734375 1207.1259765625)">22-Dec</text>
		</g>
		<g>
			<text fill="#595959" font-family="Verdana,Open Sans,DejaVu Sans,sans-serif" font-weight="400" font-size="41" transform="matrix(6.12323e-17 -1 1 6.12323e-17 4272.4782421875 1189.9291915893555)">19-Jan</text>
		</g>
		<g>
			<text fill="#595959" font-family="Verdana,Open Sans,DejaVu Sans,sans-serif" font-weight="400" font-size="41" transform="matrix(1 0 0 1 3169.14111328125 1050)">0</text>
		</g>
		<g>
			<text fill="#595959" font-family="Verdana,Open Sans,DejaVu Sans,sans-serif" font-weight="400" font-size="41" transform="matrix(1 0 0 1 3088.6025390625 922)">3,240</text>
		</g>
		<g>
			<text fill="#595959" font-family="Verdana,Open Sans,DejaVu Sans,sans-serif" font-weight="400" font-size="41" transform="matrix(1 0 0 1 3089.06298828125 794)">6,480</text>
		</g>
		<g>
			<text fill="#595959" font-family="Verdana,Open Sans,DejaVu Sans,sans-serif" font-weight="400" font-size="41" transform="matrix(1 0 0 1 3088.8427734375 666)">9,720</text>
		</g>
		<g>
			<text fill="#595959" font-family="Verdana,Open Sans,DejaVu Sans,sans-serif" font-weight="400" font-size="41" transform="matrix(1 0 0 1 3067.0415115356445 538)">12,960</text>
		</g>
		<g>
			<text fill="#595959" font-family="Verdana,Open Sans,DejaVu Sans,sans-serif" font-weight="400" font-size="41" transform="matrix(1 0 0 1 3067.0415115356445 410)">16,200</text>
		</g>
		<g>
			<text fill="#595959" font-family="Verdana,Open Sans,DejaVu Sans,sans-serif" font-weight="400" font-size="41" transform="matrix(1 0 0 1 3556.97119140625 1321)">Week Commencing</text>
		</g>
		<g>
			<text fill="#595959" font-family="Verdana,Open Sans,DejaVu Sans,sans-serif" font-weight="400" font-size="46" transform="matrix(6.12323e-17 -1 1 6.12323e-17 3019.73 1011.673828125)">Number of Browser Profiles</text>
		</g>
		<rect x="2918.5" y="347.5" width="1760" height="1043" stroke="#D9D9D9" stroke-width="3.4375" stroke-linejoin="round" stroke-miterlimit="10" fill="none" />
		<g>
			<path d="M3228.5 1038 3249.86 1038 3271.22 1038 3292.58 1038 3313.94 1038 3335.3 1038 3356.66 1038 3378.02 1038 3399.38 1038 3420.74 1038 3442.1 1038 3463.46 1038 3484.82 1038 3506.18 1038 3527.54 1038 3548.9 1038 3570.26 1038 3591.62 1038 3612.98 1038 3634.34 1038 3655.7 1038 3677.06 1038 3698.42 1038 3719.7799999999997 1038 3741.14 1038 3762.5 1038 3783.86 1038 3805.2200000000003 1038 3826.58 1038 3847.94 1038 3869.3 1038 3890.66 1038 3912.02 1038 3933.38 1038 3954.74 1038 3976.1 1038 3997.46 1038 4018.8199999999997 1038 4040.18 1038 4061.54 1038 4082.9 1038 4104.26 1038 4125.62 1038 4146.98 1038 4168.34 1038 4189.7 1038 4211.0599999999995 1038 4232.42 1038 4253.78 1038 4275.139999999999 1038 4296.5 1038 4296.5 532.795061728395 4275.139999999999 533.6246913580246 4253.78 534.3753086419754 4232.42 535.204938271605 4211.0599999999995 535.3629629629629 4189.7 535.837037037037 4168.34 536.3901234567902 4146.98 537.4172839506173 4125.62 538.6814814814816 4104.26 540.3407407407408 4082.9 540.6567901234569 4061.54 541.762962962963 4040.18 542.3950617283951 4018.8199999999997 543.8567901234568 3997.46 544.4493827160494 3976.1 545.7925925925927 3954.74 545.911111111111 3933.38 546.7802469135802 3912.02 547.8074074074075 3890.66 549.1111111111111 3869.3 549.8222222222223 3847.94 550.4543209876543 3826.58 551.7185185185185 3805.2200000000003 552.5481481481481 3783.86 553.4567901234568 3762.5 554.4444444444445 3741.14 555.2345679012346 3719.7799999999997 555.9851851851852 3698.42 556.8543209876543 3677.06 557.2493827160495 3655.7 558.237037037037 3634.34 559.5407407407408 3612.98 560.1333333333333 3591.62 561.279012345679 3570.26 562.6222222222223 3548.9 564.2419753086419 3527.54 565.3481481481481 3506.18 566.4148148148148 3484.82 567.3234567901235 3463.46 568.1530864197531 3442.1 569.1012345679012 3420.74 569.9703703703703 3399.38 571.4320987654321 3378.02 572.0641975308642 3356.66 572.6962962962963 3335.3 573.4469135802469 3313.94 574.5135802469135 3292.58 575.6197530864197 3271.22 576.4888888888888 3249.86 577.041975308642 3228.5 577.9506172839506 3228.5 1038Z" fill="#005aa6" opacity="0.9" />
		</g>
		<g>
			<path d="M3228.5 577.9506172839506 3249.86 577.041975308642 3271.22 576.4888888888888 3292.58 575.6197530864197 3313.94 574.5135802469135 3335.3 573.4469135802469 3356.66 572.6962962962963 3378.02 572.0641975308642 3399.38 571.4320987654321 3420.74 569.9703703703703 3442.1 569.1012345679012 3463.46 568.1530864197531 3484.82 567.3234567901235 3506.18 566.4148148148148 3527.54 565.3481481481481 3548.9 564.2419753086419 3570.26 562.6222222222223 3591.62 561.279012345679 3612.98 560.1333333333333 3634.34 559.5407407407408 3655.7 558.237037037037 3677.06 557.2493827160495 3698.42 556.8543209876543 3719.7799999999997 555.9851851851852 3741.14 555.2345679012346 3762.5 554.4444444444445 3783.86 553.4567901234568 3805.2200000000003 552.5481481481481 3826.58 551.7185185185185 3847.94 550.4543209876543 3869.3 549.8222222222223 3890.66 549.1111111111111 3912.02 547.8074074074075 3933.38 546.7802469135802 3954.74 545.911111111111 3976.1 545.7925925925927 3997.46 544.4493827160494 4018.8199999999997 543.8567901234568 4040.18 542.3950617283951 4061.54 541.762962962963 4082.9 540.6567901234569 4104.26 540.3407407407408 4125.62 538.6814814814816 4146.98 537.4172839506173 4168.34 536.3901234567902 4189.7 535.837037037037 4211.0599999999995 535.3629629629629 4232.42 535.204938271605 4253.78 534.3753086419754 4275.139999999999 533.6246913580246 4296.5 532.795061728395 4296.5 397.99999999999994 4275.139999999999 399.6197530864197 4253.78 400.44938271604946 4232.42 401.4370370370371 4211.0599999999995 401.6345679012345 4189.7 402.18765432098763 4168.34 402.7407407407408 4146.98 404.0839506172839 4125.62 405.5851851851853 4104.26 407.441975308642 4082.9 408.03456790123465 4061.54 409.37777777777785 4040.18 410.1283950617285 4018.8199999999997 411.7481481481482 3997.46 412.5382716049383 3976.1 414.03950617283954 3954.74 414.19753086419746 3933.38 415.34320987654314 3912.02 416.48888888888894 3890.66 417.9901234567901 3869.3 418.8592592592594 3847.94 419.64938271604944 3826.58 420.9925925925926 3805.2200000000003 422.01975308641977 3783.86 423.0074074074074 3762.5 424.35061728395067 3741.14 425.2197530864198 3719.7799999999997 426.2074074074074 3698.42 427.1950617283951 3677.06 427.8666666666668 3655.7 429.17037037037034 3634.34 430.6716049382717 3612.98 431.3827160493827 3591.62 432.6469135802469 3570.26 434.1086419753087 3548.9 436.2814814814815 3527.54 437.58518518518514 3506.18 438.8888888888889 3484.82 439.9555555555556 3463.46 440.90370370370374 3442.1 442.04938271604937 3420.74 443.0765432098765 3399.38 444.7358024691358 3378.02 445.5654320987655 3356.66 446.27654320987654 3335.3 447.1456790123457 3313.94 448.52839506172836 3292.58 449.753086419753 3271.22 450.74074074074065 3249.86 451.5308641975309 3228.5 452.6765432098765 3228.5 577.9506172839506Z" fill="#e62d39" opacity="0.9" />
		</g>
		<g>
			<rect x="4372" y="431" width="22.9995" height="23" fill="#005aa6" />
		</g>
		<g>
			<text fill="#595959" font-family="Verdana,Open Sans,DejaVu Sans,sans-serif" font-weight="400" font-size="41" transform="matrix(1 0 0 1 4404.56 454)">Web Browser</text>
		</g>
		<g>
			<rect x="4372" y="508" width="22.9995" height="23" fill="#e62d39" />
		</g>
		<g>
			<text fill="#595959" font-family="Verdana,Open Sans,DejaVu Sans,sans-serif" font-weight="400" font-size="41" transform="matrix(1 0 0 1 4404.56 531)">App</text>
		</g>
	</g>
</svg>
