<svg width="1763" height="1046"
    xmlns="http://www.w3.org/2000/svg"
	xmlns:xlink="http://www.w3.org/1999/xlink" xml:space="preserve" overflow="hidden">
	<defs>
		<clipPath id="clip0">
			<rect x="2917" y="346" width="1763" height="1046"/>
		</clipPath>
	</defs>
	<g clip-path="url(#clip0)" transform="translate(-2917 -346)">
		<rect x="2918" y="347" width="1760" height="1043" fill="#FFFFFF" />
		<g>
			<path d="
			M3228.5 974.532 4296.5 974.532
			M3228.5 910.53 4296.5 910.53
			M3228.5 846.528 4296.5 846.528
			M3228.5 781.526 4296.5 781.526
			M3228.5 717.524 4296.5 717.524
			M3228.5 653.522 4296.5 653.522
			M3228.5 589.52 4296.5 589.52
			M3228.5 525.517 4296.5 525.517
			M3228.5 461.515 4296.5 461.515
			M3228.5 397.5 4296.5 397.5" stroke="#D9D9D9" stroke-width="3.4375" stroke-linejoin="round" stroke-miterlimit="10" fill="none" />
		</g>
		<g>
			<path d="M 1038.5 4296.5 1038.5" stroke="#D9D9D9" stroke-width="3.4375" stroke-linejoin="round" stroke-miterlimit="10" fill="none" fill-rule="evenodd" />
		</g>
		<g>
			<text fill="#595959" font-family="Verdana,Open Sans,DejaVu Sans,sans-serif" font-weight="400" font-size="41" transform="matrix(6.12323e-17 -1 1 6.12323e-17 3248.289306640625 1204.38330078125)">08-Sep</text>
		</g>
		<g>
			<text fill="#595959" font-family="Verdana,Open Sans,DejaVu Sans,sans-serif" font-weight="400" font-size="41" transform="matrix(6.12323e-17 -1 1 6.12323e-17 3325.718543419471 1201.1000900268555)">06-Oct</text>
		</g>
		<g>
			<text fill="#595959" font-family="Verdana,Open Sans,DejaVu Sans,sans-serif" font-weight="400" font-size="41" transform="matrix(6.12323e-17 -1 1 6.12323e-17 3407.8723895733174 1211.43017578125)">03-Nov</text>
		</g>
		<g>
			<text fill="#595959" font-family="Verdana,Open Sans,DejaVu Sans,sans-serif" font-weight="400" font-size="41" transform="matrix(6.12323e-17 -1 1 6.12323e-17 3490.0262357271636 1207.0859375)">01-Dec</text>
		</g>
		<g>
			<text fill="#595959" font-family="Verdana,Open Sans,DejaVu Sans,sans-serif" font-weight="400" font-size="41" transform="matrix(6.12323e-17 -1 1 6.12323e-17 3572.1600623497598 1207.1259765625)">29-Dec</text>
		</g>
		<g>
			<text fill="#595959" font-family="Verdana,Open Sans,DejaVu Sans,sans-serif" font-weight="400" font-size="41" transform="matrix(6.12323e-17 -1 1 6.12323e-17 3657.967472956731 1191.6909103393555)">26-Jan</text>
		</g>
		<g>
			<text fill="#595959" font-family="Verdana,Open Sans,DejaVu Sans,sans-serif" font-weight="400" font-size="41" transform="matrix(6.12323e-17 -1 1 6.12323e-17 3737.198467548077 1203.08203125)">23-Feb</text>
		</g>
		<g>
			<text fill="#595959" font-family="Verdana,Open Sans,DejaVu Sans,sans-serif" font-weight="400" font-size="41" transform="matrix(6.12323e-17 -1 1 6.12323e-17 3818.621600811298 1212.05078125)">23-Mar</text>
		</g>
		<g>
			<text fill="#595959" font-family="Verdana,Open Sans,DejaVu Sans,sans-serif" font-weight="400" font-size="41" transform="matrix(6.12323e-17 -1 1 6.12323e-17 3905.5200758713945 1203.3022384643555)">20-Apr</text>
		</g>
		<g>
			<text fill="#595959" font-family="Verdana,Open Sans,DejaVu Sans,sans-serif" font-weight="400" font-size="41" transform="matrix(6.12323e-17 -1 1 6.12323e-17 3987.6539024939902 1214.75341796875)">18-May</text>
		</g>
		<g>
			<text fill="#595959" font-family="Verdana,Open Sans,DejaVu Sans,sans-serif" font-weight="400" font-size="41" transform="matrix(6.12323e-17 -1 1 6.12323e-17 4068.526498647837 1192.2914962768555)">15-Jun</text>
		</g>
		<g>
			<text fill="#595959" font-family="Verdana,Open Sans,DejaVu Sans,sans-serif" font-weight="400" font-size="41" transform="matrix(6.12323e-17 -1 1 6.12323e-17 4151.621262770433 1177.2768478393555)">13-Jul</text>
		</g>
		<g>
			<text fill="#595959" font-family="Verdana,Open Sans,DejaVu Sans,sans-serif" font-weight="400" font-size="41" transform="matrix(6.12323e-17 -1 1 6.12323e-17 4234.135460486779 1206.90576171875)">10-Aug</text>
		</g>
		<g>
			<text fill="#595959" font-family="Verdana,Open Sans,DejaVu Sans,sans-serif" font-weight="400" font-size="41" transform="matrix(6.12323e-17 -1 1 6.12323e-17 4316.289306640625 1204.38330078125)">07-Sep</text>
		</g>
		<g>
			<text fill="#595959" font-family="Verdana,Open Sans,DejaVu Sans,sans-serif" font-weight="400" font-size="41" transform="matrix(1 0 0 1 3169.14111328125 1050)">0</text>
		</g>
		<g>
			<text fill="#595959" font-family="Verdana,Open Sans,DejaVu Sans,sans-serif" font-weight="400" font-size="41" transform="matrix(1 0 0 1 3088.642578125 922)">3,447</text>
		</g>
		<g>
			<text fill="#595959" font-family="Verdana,Open Sans,DejaVu Sans,sans-serif" font-weight="400" font-size="41" transform="matrix(1 0 0 1 3087.841796875 794)">6,894</text>
		</g>
		<g>
			<text fill="#595959" font-family="Verdana,Open Sans,DejaVu Sans,sans-serif" font-weight="400" font-size="41" transform="matrix(1 0 0 1 3074.1284255981445 666)">10,341</text>
		</g>
		<g>
			<text fill="#595959" font-family="Verdana,Open Sans,DejaVu Sans,sans-serif" font-weight="400" font-size="41" transform="matrix(1 0 0 1 3067.1215896606445 538)">13,788</text>
		</g>
		<g>
			<text fill="#595959" font-family="Verdana,Open Sans,DejaVu Sans,sans-serif" font-weight="400" font-size="41" transform="matrix(1 0 0 1 3067.3618240356445 410)">17,235</text>
		</g>
		<g>
			<text fill="#595959" font-family="Verdana,Open Sans,DejaVu Sans,sans-serif" font-weight="400" font-size="41" transform="matrix(1 0 0 1 3556.97119140625 1321)">Week Commencing</text>
		</g>
		<g>
			<text fill="#595959" font-family="Verdana,Open Sans,DejaVu Sans,sans-serif" font-weight="400" font-size="46" transform="matrix(6.12323e-17 -1 1 6.12323e-17 3019.73 1011.673828125)">Number of Browser Profiles</text>
		</g>
		<rect x="2918.5" y="347.5" width="1760" height="1043" stroke="#D9D9D9" stroke-width="3.4375" stroke-linejoin="round" stroke-miterlimit="10" fill="none" />
		<g>
			<path d="M3228.5 1038 3249.0384615384614 1038 3269.576923076923 1038 3290.1153846153848 1038 3310.653846153846 1038 3331.1923076923076 1038 3351.730769230769 1038 3372.269230769231 1038 3392.8076923076924 1038 3413.346153846154 1038 3433.8846153846152 1038 3454.423076923077 1038 3474.9615384615386 1038 3495.5 1038 3516.0384615384614 1038 3536.576923076923 1038 3557.1153846153848 1038 3577.653846153846 1038 3598.1923076923076 1038 3618.7307692307695 1038 3639.269230769231 1038 3659.8076923076924 1038 3680.346153846154 1038 3700.8846153846152 1038 3721.423076923077 1038 3741.9615384615386 1038 3762.5 1038 3783.0384615384614 1038 3803.576923076923 1038 3824.1153846153848 1038 3844.653846153846 1038 3865.1923076923076 1038 3885.7307692307695 1038 3906.269230769231 1038 3926.8076923076924 1038 3947.346153846154 1038 3967.8846153846152 1038 3988.423076923077 1038 4008.9615384615386 1038 4029.5 1038 4050.038461538462 1038 4070.576923076923 1038 4091.1153846153848 1038 4111.653846153846 1038 4132.192307692308 1038 4152.7307692307695 1038 4173.2692307692305 1038 4193.807692307692 1038 4214.346153846154 1038 4234.884615384615 1038 4255.423076923077 1038 4275.961538461539 1038 4296.5 1038 4296.5 534.9120974760662 4275.961538461539 537.6599941978532 4255.423076923077 538.4769364664926 4234.884615384615 539.2196112561647 4214.346153846154 540.1108210037714 4193.807692307692 541.373368146214 4173.2692307692305 542.0046417174354 4152.7307692307695 542.7844502465912 4132.192307692308 543.3414563388453 4111.653846153846 543.7870612126487 4091.1153846153848 544.2697998259356 4070.576923076923 544.9753408761242 4050.038461538462 546.4606904554685 4029.5 547.5747026399767 4008.9615384615386 548.503046127067 3988.423076923077 549.060052219321 3967.8846153846152 549.6170583115752 3947.346153846154 550.7682042355672 3926.8076923076924 551.3252103278212 3906.269230769231 552.105018856977 3885.7307692307695 553.1447635625182 3865.1923076923076 553.9617058311576 3844.653846153846 554.9643167972149 3824.1153846153848 555.9297940237888 3803.576923076923 556.8952712503626 3783.0384615384614 558.3434870902233 3762.5 559.049028140412 3741.9615384615386 559.9402378880186 3721.423076923077 560.5715114592399 3700.8846153846152 561.6483899042646 3680.346153846154 562.6138671308383 3659.8076923076924 563.1337394836089 3639.269230769231 563.9135480127647 3618.7307692307695 564.6190890629532 3598.1923076923076 565.398897592109 3577.653846153846 565.5474325500435 3557.1153846153848 565.9930374238468 3536.576923076923 566.5129097766173 3516.0384615384614 567.4783870031912 3495.5 568.6666666666666 3474.9615384615386 570.2262837249782 3454.423076923077 570.5233536408471 3433.8846153846152 571.5630983463882 3413.346153846154 572.1572381781259 3392.8076923076924 573.5311865390195 3372.269230769231 574.0881926312736 3351.730769230769 575.3507397737162 3331.1923076923076 575.4621409921671 3310.653846153846 576.2790832608065 3290.1153846153848 577.2445604873803 3269.576923076923 578.4699738903394 3249.0384615384614 579.1383812010444 3228.5 579.7325210327822 3228.5 1038Z" fill="#005aa6" opacity="0.9" />
		</g>
		<g>
			<path d="M3228.5 579.7325210327822 3249.0384615384614 579.1383812010444 3269.576923076923 578.4699738903394 3290.1153846153848 577.2445604873803 3310.653846153846 576.2790832608065 3331.1923076923076 575.4621409921671 3351.730769230769 575.3507397737162 3372.269230769231 574.0881926312736 3392.8076923076924 573.5311865390195 3413.346153846154 572.1572381781259 3433.8846153846152 571.5630983463882 3454.423076923077 570.5233536408471 3474.9615384615386 570.2262837249782 3495.5 568.6666666666666 3516.0384615384614 567.4783870031912 3536.576923076923 566.5129097766173 3557.1153846153848 565.9930374238468 3577.653846153846 565.5474325500435 3598.1923076923076 565.398897592109 3618.7307692307695 564.6190890629532 3639.269230769231 563.9135480127647 3659.8076923076924 563.1337394836089 3680.346153846154 562.6138671308383 3700.8846153846152 561.6483899042646 3721.423076923077 560.5715114592399 3741.9615384615386 559.9402378880186 3762.5 559.049028140412 3783.0384615384614 558.3434870902233 3803.576923076923 556.8952712503626 3824.1153846153848 555.9297940237888 3844.653846153846 554.9643167972149 3865.1923076923076 553.9617058311576 3885.7307692307695 553.1447635625182 3906.269230769231 552.105018856977 3926.8076923076924 551.3252103278212 3947.346153846154 550.7682042355672 3967.8846153846152 549.6170583115752 3988.423076923077 549.060052219321 4008.9615384615386 548.503046127067 4029.5 547.5747026399767 4050.038461538462 546.4606904554685 4070.576923076923 544.9753408761242 4091.1153846153848 544.2697998259356 4111.653846153846 543.7870612126487 4132.192307692308 543.3414563388453 4152.7307692307695 542.7844502465912 4173.2692307692305 542.0046417174354 4193.807692307692 541.373368146214 4214.346153846154 540.1108210037714 4234.884615384615 539.2196112561647 4255.423076923077 538.4769364664926 4275.961538461539 537.6599941978532 4296.5 534.9120974760662 4296.5 398 4275.961538461539 401.30490281404116 4255.423076923077 402.5303162170003 4234.884615384615 403.4215259646069 4214.346153846154 405.61241659413986 4193.807692307692 407.0234986945169 4173.2692307692305 407.9147084421236 4152.7307692307695 408.9544531476646 4132.192307692308 409.8085291557876 4111.653846153846 410.6254714244271 4091.1153846153848 411.21961125616474 4070.576923076923 412.25935596170586 4050.038461538462 414.9701189440092 4029.5 416.3069335654192 4008.9615384615386 417.5694807078619 3988.423076923077 418.23788801856676 3967.8846153846152 419.1290977661734 3947.346153846154 420.46591238758344 3926.8076923076924 421.4313896141571 3906.269230769231 422.35973310124746 3885.7307692307695 423.6594139831738 3865.1923076923076 424.6620249492313 3844.653846153846 425.92457209167384 3824.1153846153848 427.07571801566576 3803.576923076923 428.3011314186249 3783.0384615384614 430.1578183928053 3762.5 431.01189440092844 3741.9615384615386 432.2001740644039 3721.423076923077 433.20278503046126 3700.8846153846152 434.5767333913548 3680.346153846154 435.7278793153466 3659.8076923076924 436.4334203655352 3639.269230769231 437.95590368436325 3618.7307692307695 438.7357122135189 3598.1923076923076 439.6640557006092 3577.653846153846 439.8497243980272 3557.1153846153848 440.36959675079777 3536.576923076923 440.88946910356833 3516.0384615384614 442.15201624601104 3495.5 443.56309834638813 3474.9615384615386 445.30838410211777 3454.423076923077 445.86539019437186 3433.8846153846152 447.1279373368146 3413.346153846154 447.8334783870032 3392.8076923076924 449.3559617058312 3372.269230769231 450.09863649550334 3351.730769230769 451.50971859588043 3331.1923076923076 451.65825355381486 3310.653846153846 452.73513199883956 3290.1153846153848 453.8120104438642 3269.576923076923 455.2230925442413 3249.0384615384614 456.0400348128807 3228.5 456.782709602553 3228.5 579.7325210327822Z" fill="#e62d39" opacity="0.9" />
		</g>
		<g>
			<rect x="4372" y="431" width="22.9995" height="23" fill="#005aa6" />
		</g>
		<g>
			<text fill="#595959" font-family="Verdana,Open Sans,DejaVu Sans,sans-serif" font-weight="400" font-size="41" transform="matrix(1 0 0 1 4404.56 454)">Web Browser</text>
		</g>
		<g>
			<rect x="4372" y="508" width="22.9995" height="23" fill="#e62d39" />
		</g>
		<g>
			<text fill="#595959" font-family="Verdana,Open Sans,DejaVu Sans,sans-serif" font-weight="400" font-size="41" transform="matrix(1 0 0 1 4404.56 531)">App</text>
		</g>
	</g>
</svg>
