<svg width="1763" height="1046"
    xmlns="http://www.w3.org/2000/svg"
	xmlns:xlink="http://www.w3.org/1999/xlink" xml:space="preserve" overflow="hidden">
	<defs>
		<clipPath id="clip0">
			<rect x="2917" y="346" width="1763" height="1046"/>
		</clipPath>
	</defs>
	<g clip-path="url(#clip0)" transform="translate(-2917 -346)">
		<rect x="2918" y="347" width="1760" height="1043" fill="#FFFFFF" />
		<g>
			<path d="
			M3228.5 974.532 4296.5 974.532
			M3228.5 910.53 4296.5 910.53
			M3228.5 846.528 4296.5 846.528
			M3228.5 781.526 4296.5 781.526
			M3228.5 717.524 4296.5 717.524
			M3228.5 653.522 4296.5 653.522
			M3228.5 589.52 4296.5 589.52
			M3228.5 525.517 4296.5 525.517
			M3228.5 461.515 4296.5 461.515
			M3228.5 397.5 4296.5 397.5" stroke="#D9D9D9" stroke-width="3.4375" stroke-linejoin="round" stroke-miterlimit="10" fill="none" />
		</g>
		<g>
			<path d="M 1038.5 4296.5 1038.5" stroke="#D9D9D9" stroke-width="3.4375" stroke-linejoin="round" stroke-miterlimit="10" fill="none" fill-rule="evenodd" />
		</g>
		<g>
			<text fill="#595959" font-family="Verdana,Open Sans,DejaVu Sans,sans-serif" font-weight="400" font-size="41" transform="matrix(6.12323e-17 -1 1 6.12323e-17 3243.544677734375 1205.3642578125)">16-Dec</text>
		</g>
		<g>
			<text fill="#595959" font-family="Verdana,Open Sans,DejaVu Sans,sans-serif" font-weight="400" font-size="41" transform="matrix(6.12323e-17 -1 1 6.12323e-17 3332.6382421875 1189.9291915893555)">13-Jan</text>
		</g>
		<g>
			<text fill="#595959" font-family="Verdana,Open Sans,DejaVu Sans,sans-serif" font-weight="400" font-size="41" transform="matrix(6.12323e-17 -1 1 6.12323e-17 3415.155390625 1201.3203125)">10-Feb</text>
		</g>
		<g>
			<text fill="#595959" font-family="Verdana,Open Sans,DejaVu Sans,sans-serif" font-weight="400" font-size="41" transform="matrix(6.12323e-17 -1 1 6.12323e-17 3499.884697265625 1210.2890625)">10-Mar</text>
		</g>
		<g>
			<text fill="#595959" font-family="Verdana,Open Sans,DejaVu Sans,sans-serif" font-weight="400" font-size="41" transform="matrix(6.12323e-17 -1 1 6.12323e-17 3590.049306640625 1203.2621994018555)">07-Apr</text>
		</g>
		<g>
			<text fill="#595959" font-family="Verdana,Open Sans,DejaVu Sans,sans-serif" font-weight="400" font-size="41" transform="matrix(6.12323e-17 -1 1 6.12323e-17 3675.489306640625 1216.47509765625)">05-May</text>
		</g>
		<g>
			<text fill="#595959" font-family="Verdana,Open Sans,DejaVu Sans,sans-serif" font-weight="400" font-size="41" transform="matrix(6.12323e-17 -1 1 6.12323e-17 3759.85826171875 1194.0131759643555)">09-Jun</text>
		</g>
		<g>
			<text fill="#595959" font-family="Verdana,Open Sans,DejaVu Sans,sans-serif" font-weight="400" font-size="41" transform="matrix(6.12323e-17 -1 1 6.12323e-17 3846.008955078125 1178.9985275268555)">07-Jul</text>
		</g>
		<g>
			<text fill="#595959" font-family="Verdana,Open Sans,DejaVu Sans,sans-serif" font-weight="400" font-size="41" transform="matrix(6.12323e-17 -1 1 6.12323e-17 3931.809306640625 1208.62744140625)">04-Aug</text>
		</g>
		<g>
			<text fill="#595959" font-family="Verdana,Open Sans,DejaVu Sans,sans-serif" font-weight="400" font-size="41" transform="matrix(6.12323e-17 -1 1 6.12323e-17 4017.249306640625 1204.38330078125)">01-Sep</text>
		</g>
		<g>
			<text fill="#595959" font-family="Verdana,Open Sans,DejaVu Sans,sans-serif" font-weight="400" font-size="41" transform="matrix(6.12323e-17 -1 1 6.12323e-17 4102.669287109375 1204.42333984375)">29-Sep</text>
		</g>
		<g>
			<text fill="#595959" font-family="Verdana,Open Sans,DejaVu Sans,sans-serif" font-weight="400" font-size="41" transform="matrix(6.12323e-17 -1 1 6.12323e-17 4183.404697265625 1201.1401290893555)">27-Oct</text>
		</g>
		<g>
			<text fill="#595959" font-family="Verdana,Open Sans,DejaVu Sans,sans-serif" font-weight="400" font-size="41" transform="matrix(6.12323e-17 -1 1 6.12323e-17 4268.824677734375 1211.47021484375)">24-Nov</text>
		</g>
		<g>
			<text fill="#595959" font-family="Verdana,Open Sans,DejaVu Sans,sans-serif" font-weight="400" font-size="41" transform="matrix(1 0 0 1 3135.4482421875 1050)">0%</text>
		</g>
		<g>
			<text fill="#595959" font-family="Verdana,Open Sans,DejaVu Sans,sans-serif" font-weight="400" font-size="41" transform="matrix(1 0 0 1 3111.96533203125 922)">20%</text>
		</g>
		<g>
			<text fill="#595959" font-family="Verdana,Open Sans,DejaVu Sans,sans-serif" font-weight="400" font-size="41" transform="matrix(1 0 0 1 3110.82421875 794)">40%</text>
		</g>
		<g>
			<text fill="#595959" font-family="Verdana,Open Sans,DejaVu Sans,sans-serif" font-weight="400" font-size="41" transform="matrix(1 0 0 1 3112.3056640625 666)">60%</text>
		</g>
		<g>
			<text fill="#595959" font-family="Verdana,Open Sans,DejaVu Sans,sans-serif" font-weight="400" font-size="41" transform="matrix(1 0 0 1 3112.04541015625 538)">80%</text>
		</g>
		<g>
			<text fill="#595959" font-family="Verdana,Open Sans,DejaVu Sans,sans-serif" font-weight="400" font-size="41" transform="matrix(1 0 0 1 3090.2841796875 410)">100%</text>
		</g>
		<g>
			<text fill="#595959" font-family="Verdana,Open Sans,DejaVu Sans,sans-serif" font-weight="400" font-size="41" transform="matrix(1 0 0 1 3556.97119140625 1321)">Week Commencing</text>
		</g>
		<g>
			<text fill="#595959" font-family="Verdana,Open Sans,DejaVu Sans,sans-serif" font-weight="400" font-size="46" transform="matrix(6.12323e-17 -1 1 6.12323e-17 3019.73 936.7665710449219)">Requests (% of Total)</text>
		</g>
		<rect x="2918.5" y="347.5" width="1760" height="1043" stroke="#D9D9D9" stroke-width="3.4375" stroke-linejoin="round" stroke-miterlimit="10" fill="none" />
		<g>
			<path d="M3228.5 1038 3249.86 1038 3271.22 1038 3292.58 1038 3313.94 1038 3335.3 1038 3356.66 1038 3378.02 1038 3399.38 1038 3420.74 1038 3442.1 1038 3463.46 1038 3484.82 1038 3506.18 1038 3527.54 1038 3548.9 1038 3570.26 1038 3591.62 1038 3612.98 1038 3634.34 1038 3655.7 1038 3677.06 1038 3698.42 1038 3719.7799999999997 1038 3741.14 1038 3762.5 1038 3783.86 1038 3805.2200000000003 1038 3826.58 1038 3847.94 1038 3869.3 1038 3890.66 1038 3912.02 1038 3933.38 1038 3954.74 1038 3976.1 1038 3997.46 1038 4018.8199999999997 1038 4040.18 1038 4061.54 1038 4082.9 1038 4104.26 1038 4125.62 1038 4146.98 1038 4168.34 1038 4189.7 1038 4211.0599999999995 1038 4232.42 1038 4253.78 1038 4275.139999999999 1038 4296.5 1038 4296.5 665.0687170796807 4275.139999999999 669.2508046624037 4253.78 668.8015383913383 4232.42 677.0310099621294 4211.0599999999995 715.6326502484551 4189.7 731.7898269041518 4168.34 731.6946718722857 4146.98 731.7814057156063 4125.62 731.7708258099874 4104.26 739.179471336138 4082.9 739.1723277843557 4061.54 742.0464154901043 4040.18 744.981700209997 4018.8199999999997 752.0924084860791 3997.46 755.2385923010361 3976.1 755.2502906288946 3954.74 758.1300732473312 3933.38 768.0870120946274 3912.02 768.0622682813855 3890.66 768.1168972047803 3869.3 768.2021370143037 3847.94 769.6067142131767 3826.58 775.05017459998 3805.2200000000003 787.2357258695183 3783.86 787.3092370373995 3762.5 790.9650389728295 3741.14 794.0813847270024 3719.7799999999997 798.9713729419469 3698.42 800.9582284854941 3677.06 802.40679729401 3655.7 803.7574587023792 3634.34 804.8795653060993 3612.98 805.7888012756688 3591.62 807.0111198010406 3570.26 808.4993663352112 3548.9 809.5719943405506 3527.54 811.2029187969463 3506.18 852.2537695350034 3484.82 852.7630633018019 3463.46 853.2128831068969 3442.1 853.9543792847422 3420.74 854.2311435356854 3399.38 854.4163260228272 3378.02 854.152790599432 3356.66 854.8107613955362 3335.3 855.5126405911369 3313.94 855.9651399118873 3292.58 855.998586062701 3271.22 856.0272811670625 3249.86 855.7572816447105 3228.5 855.1837779796501 3228.5 1038Z" fill="#e62d39" opacity="0.9" />
		</g>
		<g>
			<path d="M3228.5 855.1837779796501 3249.86 855.7572816447105 3271.22 856.0272811670625 3292.58 855.998586062701 3313.94 855.9651399118873 3335.3 855.5126405911369 3356.66 854.8107613955362 3378.02 854.152790599432 3399.38 854.4163260228272 3420.74 854.2311435356854 3442.1 853.9543792847422 3463.46 853.2128831068969 3484.82 852.7630633018019 3506.18 852.2537695350034 3527.54 811.2029187969463 3548.9 809.5719943405506 3570.26 808.4993663352112 3591.62 807.0111198010406 3612.98 805.7888012756688 3634.34 804.8795653060993 3655.7 803.7574587023792 3677.06 802.40679729401 3698.42 800.9582284854941 3719.7799999999997 798.9713729419469 3741.14 794.0813847270024 3762.5 790.9650389728295 3783.86 787.3092370373995 3805.2200000000003 787.2357258695183 3826.58 775.05017459998 3847.94 769.6067142131767 3869.3 768.2021370143037 3890.66 768.1168972047803 3912.02 768.0622682813855 3933.38 768.0870120946274 3954.74 758.1300732473312 3976.1 755.2502906288946 3997.46 755.2385923010361 4018.8199999999997 752.0924084860791 4040.18 744.981700209997 4061.54 742.0464154901043 4082.9 739.1723277843557 4104.26 739.179471336138 4125.62 731.7708258099874 4146.98 731.7814057156063 4168.34 731.6946718722857 4189.7 731.7898269041518 4211.0599999999995 715.6326502484551 4232.42 677.0310099621294 4253.78 668.8015383913383 4275.139999999999 669.2508046624037 4296.5 665.0687170796807 4296.5 404.09929675944176 4275.139999999999 404.0956381930635 4253.78 404.12948436436125 4232.42 403.9961122337051 4211.0599999999995 403.3494217541671 4189.7 402.9248624726996 4168.34 402.9072043922977 4146.98 402.90877584131425 4125.62 402.9298471234101 4104.26 402.60349792125623 4082.9 402.6099730048478 4061.54 402.37217547977207 4040.18 402.145050233926 4018.8199999999997 401.73578913608276 3997.46 401.57006086206655 3976.1 401.57128950627384 3954.74 401.4082896460906 3933.38 400.8924429074875 3912.02 400.88896921768406 3890.66 400.93900012801925 3869.3 401.0268406246156 3847.94 400.9092568701918 3826.58 400.9924926084992 3805.2200000000003 400.4880580221503 3783.86 400.49608136003764 3762.5 400.2916782230466 3741.14 400.1582567110125 3719.7799999999997 399.92908991218985 3698.42 399.9334041710106 3677.06 399.87976806541184 3655.7 399.8310554200369 3634.34 399.7742919400221 3612.98 399.72528771121347 3591.62 399.7049408705508 3570.26 400.00414490488384 3548.9 399.9604159100104 3527.54 399.99059261305484 3506.18 399.58374601455273 3484.82 399.60517704227266 3463.46 399.5826700216501 3442.1 398.7693921844428 3420.74 398.74888189337906 3399.38 398.7507940349151 3378.02 398.74677273073394 3356.66 398.74113436176054 3335.3 398.7379557747454 3313.94 398.70704867301595 3292.58 398.70882925199 3271.22 398.70085746190506 3249.86 398.6853554285047 3228.5 398.67102339002776 3228.5 855.1837779796501Z" fill="#005aa6" opacity="0.9" />
		</g>
		<g>
			<path d="M3228.5 398.67102339002776 3249.86 398.6853554285047 3271.22 398.70085746190506 3292.58 398.70882925199 3313.94 398.70704867301595 3335.3 398.7379557747454 3356.66 398.74113436176054 3378.02 398.74677273073394 3399.38 398.7507940349151 3420.74 398.74888189337906 3442.1 398.7693921844428 3463.46 399.5826700216501 3484.82 399.60517704227266 3506.18 399.58374601455273 3527.54 399.99059261305484 3548.9 399.9604159100104 3570.26 400.00414490488384 3591.62 399.7049408705508 3612.98 399.72528771121347 3634.34 399.7742919400221 3655.7 399.8310554200369 3677.06 399.87976806541184 3698.42 399.9334041710106 3719.7799999999997 399.92908991218985 3741.14 400.1582567110125 3762.5 400.2916782230466 3783.86 400.49608136003764 3805.2200000000003 400.4880580221503 3826.58 400.9924926084992 3847.94 400.9092568701918 3869.3 401.0268406246156 3890.66 400.93900012801925 3912.02 400.88896921768406 3933.38 400.8924429074875 3954.74 401.4082896460906 3976.1 401.57128950627384 3997.46 401.57006086206655 4018.8199999999997 401.73578913608276 4040.18 402.145050233926 4061.54 402.37217547977207 4082.9 402.6099730048478 4104.26 402.60349792125623 4125.62 402.9298471234101 4146.98 402.90877584131425 4168.34 402.9072043922977 4189.7 402.9248624726996 4211.0599999999995 403.3494217541671 4232.42 403.9961122337051 4253.78 404.12948436436125 4275.139999999999 404.0956381930635 4296.5 404.09929675944176 4296.5 397.9999999999999 4275.139999999999 398.0000000000001 4253.78 398 4232.42 398 4211.0599999999995 397.9999999999999 4189.7 398.00000000000006 4168.34 397.99999999999994 4146.98 397.9999999999999 4125.62 398.00000000000006 4104.26 398.00000000000006 4082.9 397.99999999999994 4061.54 397.99999999999994 4040.18 397.99999999999994 4018.8199999999997 398 3997.46 397.9999999999999 3976.1 397.99999999999994 3954.74 397.99999999999994 3933.38 398 3912.02 398.00000000000006 3890.66 398.00000000000006 3869.3 397.99999999999994 3847.94 397.99999999999994 3826.58 397.99999999999994 3805.2200000000003 398.0000000000001 3783.86 398 3762.5 398.00000000000006 3741.14 398 3719.7799999999997 398 3698.42 398 3677.06 398 3655.7 398 3634.34 397.99999999999994 3612.98 397.9999999999999 3591.62 398 3570.26 398 3548.9 397.99999999999994 3527.54 398.00000000000006 3506.18 398 3484.82 398 3463.46 398 3442.1 397.99999999999994 3420.74 398 3399.38 397.99999999999994 3378.02 398 3356.66 398 3335.3 398.00000000000006 3313.94 398 3292.58 397.99999999999994 3271.22 398 3249.86 398 3228.5 398.00000000000006 3228.5 398.67102339002776Z" fill="#393d41" opacity="0.9" />
		</g>
		<g>
			<rect x="4372" y="431" width="22.9995" height="23" fill="#e62d39" />
		</g>
		<g>
			<text fill="#595959" font-family="Verdana,Open Sans,DejaVu Sans,sans-serif" font-weight="400" font-size="41" transform="matrix(1 0 0 1 4404.56 454)">App</text>
		</g>
		<g>
			<rect x="4372" y="508" width="22.9995" height="23" fill="#005aa6" />
		</g>
		<g>
			<text fill="#595959" font-family="Verdana,Open Sans,DejaVu Sans,sans-serif" font-weight="400" font-size="41" transform="matrix(1 0 0 1 4404.56 531)">Web Browser</text>
		</g>
		<g>
			<rect x="4372" y="585" width="22.9995" height="23" fill="#393d41" />
		</g>
		<g>
			<text fill="#595959" font-family="Verdana,Open Sans,DejaVu Sans,sans-serif" font-weight="400" font-size="41" transform="matrix(1 0 0 1 4404.56 608)">Unclassified</text>
		</g>
	</g>
</svg>
