<svg width="1763" height="1046"
    xmlns="http://www.w3.org/2000/svg"
	xmlns:xlink="http://www.w3.org/1999/xlink" xml:space="preserve" overflow="hidden">
	<defs>
		<clipPath id="clip0">
			<rect x="2917" y="346" width="1763" height="1046"/>
		</clipPath>
	</defs>
	<g clip-path="url(#clip0)" transform="translate(-2917 -346)">
		<rect x="2918" y="347" width="1760" height="1043" fill="#FFFFFF" />
		<g>
			<path d="
			M3228.5 974.532 4296.5 974.532
			M3228.5 910.53 4296.5 910.53
			M3228.5 846.528 4296.5 846.528
			M3228.5 781.526 4296.5 781.526
			M3228.5 717.524 4296.5 717.524
			M3228.5 653.522 4296.5 653.522
			M3228.5 589.52 4296.5 589.52
			M3228.5 525.517 4296.5 525.517
			M3228.5 461.515 4296.5 461.515
			M3228.5 397.5 4296.5 397.5" stroke="#D9D9D9" stroke-width="3.4375" stroke-linejoin="round" stroke-miterlimit="10" fill="none" />
		</g>
		<g>
			<path d="M 1038.5 4296.5 1038.5" stroke="#D9D9D9" stroke-width="3.4375" stroke-linejoin="round" stroke-miterlimit="10" fill="none" fill-rule="evenodd" />
		</g>
		<g>
			<text fill="#595959" font-family="Verdana,Open Sans,DejaVu Sans,sans-serif" font-weight="400" font-size="41" transform="matrix(6.12323e-17 -1 1 6.12323e-17 3247.21826171875 1194.1733322143555)">30-Jun</text>
		</g>
		<g>
			<text fill="#595959" font-family="Verdana,Open Sans,DejaVu Sans,sans-serif" font-weight="400" font-size="41" transform="matrix(6.12323e-17 -1 1 6.12323e-17 3331.693660960478 1179.0385665893555)">28-Jul</text>
		</g>
		<g>
			<text fill="#595959" font-family="Verdana,Open Sans,DejaVu Sans,sans-serif" font-weight="400" font-size="41" transform="matrix(6.12323e-17 -1 1 6.12323e-17 3415.798698874081 1208.66748046875)">25-Aug</text>
		</g>
		<g>
			<text fill="#595959" font-family="Verdana,Open Sans,DejaVu Sans,sans-serif" font-weight="400" font-size="41" transform="matrix(6.12323e-17 -1 1 6.12323e-17 3499.563404756434 1204.42333984375)">22-Sep</text>
		</g>
		<g>
			<text fill="#595959" font-family="Verdana,Open Sans,DejaVu Sans,sans-serif" font-weight="400" font-size="41" transform="matrix(6.12323e-17 -1 1 6.12323e-17 3578.6235207950367 1201.1401290893555)">20-Oct</text>
		</g>
		<g>
			<text fill="#595959" font-family="Verdana,Open Sans,DejaVu Sans,sans-serif" font-weight="400" font-size="41" transform="matrix(6.12323e-17 -1 1 6.12323e-17 3662.158002068015 1209.70849609375)">17-Nov</text>
		</g>
		<g>
			<text fill="#595959" font-family="Verdana,Open Sans,DejaVu Sans,sans-serif" font-weight="400" font-size="41" transform="matrix(6.12323e-17 -1 1 6.12323e-17 3745.9227079503676 1205.3642578125)">15-Dec</text>
		</g>
		<g>
			<text fill="#595959" font-family="Verdana,Open Sans,DejaVu Sans,sans-serif" font-weight="400" font-size="41" transform="matrix(6.12323e-17 -1 1 6.12323e-17 3833.5511833639707 1189.9291915893555)">12-Jan</text>
		</g>
		<g>
			<text fill="#595959" font-family="Verdana,Open Sans,DejaVu Sans,sans-serif" font-weight="400" font-size="41" transform="matrix(6.12323e-17 -1 1 6.12323e-17 3914.3930376838234 1203.0419921875)">09-Feb</text>
		</g>
		<g>
			<text fill="#595959" font-family="Verdana,Open Sans,DejaVu Sans,sans-serif" font-weight="400" font-size="41" transform="matrix(6.12323e-17 -1 1 6.12323e-17 3997.4470502068016 1212.0107421875)">09-Mar</text>
		</g>
		<g>
			<text fill="#595959" font-family="Verdana,Open Sans,DejaVu Sans,sans-serif" font-weight="400" font-size="41" transform="matrix(6.12323e-17 -1 1 6.12323e-17 4085.9363654641543 1203.2621994018555)">06-Apr</text>
		</g>
		<g>
			<text fill="#595959" font-family="Verdana,Open Sans,DejaVu Sans,sans-serif" font-weight="400" font-size="41" transform="matrix(6.12323e-17 -1 1 6.12323e-17 4169.701071346507 1216.47509765625)">04-May</text>
		</g>
		<g>
			<text fill="#595959" font-family="Verdana,Open Sans,DejaVu Sans,sans-serif" font-weight="400" font-size="41" transform="matrix(6.12323e-17 -1 1 6.12323e-17 4252.394732306985 1194.0131759643555)">01-Jun</text>
		</g>
		<g>
			<text fill="#595959" font-family="Verdana,Open Sans,DejaVu Sans,sans-serif" font-weight="400" font-size="41" transform="matrix(1 0 0 1 3169.14111328125 1050)">0</text>
		</g>
		<g>
			<text fill="#595959" font-family="Verdana,Open Sans,DejaVu Sans,sans-serif" font-weight="400" font-size="41" transform="matrix(1 0 0 1 3088.6025390625 922)">3,370</text>
		</g>
		<g>
			<text fill="#595959" font-family="Verdana,Open Sans,DejaVu Sans,sans-serif" font-weight="400" font-size="41" transform="matrix(1 0 0 1 3089.06298828125 794)">6,740</text>
		</g>
		<g>
			<text fill="#595959" font-family="Verdana,Open Sans,DejaVu Sans,sans-serif" font-weight="400" font-size="41" transform="matrix(1 0 0 1 3074.1284255981445 666)">10,111</text>
		</g>
		<g>
			<text fill="#595959" font-family="Verdana,Open Sans,DejaVu Sans,sans-serif" font-weight="400" font-size="41" transform="matrix(1 0 0 1 3074.1284255981445 538)">13,481</text>
		</g>
		<g>
			<text fill="#595959" font-family="Verdana,Open Sans,DejaVu Sans,sans-serif" font-weight="400" font-size="41" transform="matrix(1 0 0 1 3074.1284255981445 410)">16,851</text>
		</g>
		<g>
			<text fill="#595959" font-family="Verdana,Open Sans,DejaVu Sans,sans-serif" font-weight="400" font-size="41" transform="matrix(1 0 0 1 3556.97119140625 1321)">Week Commencing</text>
		</g>
		<g>
			<text fill="#595959" font-family="Verdana,Open Sans,DejaVu Sans,sans-serif" font-weight="400" font-size="46" transform="matrix(6.12323e-17 -1 1 6.12323e-17 3019.73 1011.673828125)">Number of Browser Profiles</text>
		</g>
		<rect x="2918.5" y="347.5" width="1760" height="1043" stroke="#D9D9D9" stroke-width="3.4375" stroke-linejoin="round" stroke-miterlimit="10" fill="none" />
		<g>
			<path d="M3228.5 1038 3249.4411764705883 1038 3270.3823529411766 1038 3291.323529411765 1038 3312.264705882353 1038 3333.205882352941 1038 3354.1470588235293 1038 3375.0882352941176 1038 3396.029411764706 1038 3416.970588235294 1038 3437.9117647058824 1038 3458.8529411764707 1038 3479.794117647059 1038 3500.735294117647 1038 3521.676470588235 1038 3542.6176470588234 1038 3563.5588235294117 1038 3584.5 1038 3605.4411764705883 1038 3626.3823529411766 1038 3647.323529411765 1038 3668.264705882353 1038 3689.205882352941 1038 3710.1470588235293 1038 3731.0882352941176 1038 3752.029411764706 1038 3772.970588235294 1038 3793.9117647058824 1038 3814.8529411764707 1038 3835.7941176470586 1038 3856.735294117647 1038 3877.676470588235 1038 3898.6176470588234 1038 3919.5588235294117 1038 3940.5 1038 3961.4411764705883 1038 3982.3823529411766 1038 4003.323529411765 1038 4024.264705882353 1038 4045.2058823529414 1038 4066.1470588235293 1038 4087.0882352941176 1038 4108.029411764706 1038 4128.970588235294 1038 4149.911764705882 1038 4170.85294117647 1038 4191.794117647059 1038 4212.735294117647 1038 4233.676470588235 1038 4254.617647058823 1038 4275.558823529412 1038 4296.5 1038 4296.5 533.740312147647 4275.558823529412 535.2595098213756 4254.617647058823 536.3989080766721 4233.676470588235 537.3484066227525 4212.735294117647 537.9181057504006 4191.794117647059 538.4878048780488 4170.85294117647 539.6651830751885 4149.911764705882 540.2348822028366 4128.970588235294 541.0324609815441 4108.029411764706 542.0958993531542 4087.0882352941176 542.9314580737048 4066.1470588235293 543.9569165034716 4045.2058823529414 544.9443949913953 4024.264705882353 545.9318734793187 4003.323529411765 547.4130912112041 3982.3823529411766 548.1347101062252 3961.4411764705883 549.0462287104623 3940.5 549.691887721797 3919.5588235294117 550.7933060352502 3898.6176470588234 551.7807845231737 3877.676470588235 552.3125037089787 3856.735294117647 553.1100824876862 3835.7941176470586 553.8317013827073 3814.8529411764707 554.6292801614147 3793.9117647058824 554.7811999287876 3772.970588235294 555.2369592309062 3752.029411764706 555.7686784167113 3731.0882352941176 556.7561569046347 3710.1470588235293 557.9715150436176 3689.205882352941 559.5666726010327 3668.264705882353 559.8705121357783 3647.323529411765 560.9339505073883 3626.3823529411766 561.5416295768798 3605.4411764705883 562.9468874250787 3584.5 563.516586552727 3563.5588235294117 564.8079045753962 3542.6176470588234 564.9218444009258 3521.676470588235 565.7574031214765 3500.735294117647 566.7448816094001 3479.794117647059 567.998219690226 3458.8529411764707 568.681858643404 3437.9117647058824 569.2895377128955 3416.970588235294 570.5048958518782 3396.029411764706 571.3024746305857 3375.0882352941176 572.1760132929796 3354.1470588235293 573.12551183906 3333.205882352941 573.8851106759244 3312.264705882353 574.6067295709454 3291.323529411765 575.4422882914961 3270.3823529411766 575.8220877099282 3249.4411764705883 576.7715862560085 3228.5 578.0249243368346 3228.5 1038Z" fill="#005aa6" opacity="0.9" />
		</g>
		<g>
			<path d="M3228.5 578.0249243368346 3249.4411764705883 576.7715862560085 3270.3823529411766 575.8220877099282 3291.323529411765 575.4422882914961 3312.264705882353 574.6067295709454 3333.205882352941 573.8851106759244 3354.1470588235293 573.12551183906 3375.0882352941176 572.1760132929796 3396.029411764706 571.3024746305857 3416.970588235294 570.5048958518782 3437.9117647058824 569.2895377128955 3458.8529411764707 568.681858643404 3479.794117647059 567.998219690226 3500.735294117647 566.7448816094001 3521.676470588235 565.7574031214765 3542.6176470588234 564.9218444009258 3563.5588235294117 564.8079045753962 3584.5 563.516586552727 3605.4411764705883 562.9468874250787 3626.3823529411766 561.5416295768798 3647.323529411765 560.9339505073883 3668.264705882353 559.8705121357783 3689.205882352941 559.5666726010327 3710.1470588235293 557.9715150436176 3731.0882352941176 556.7561569046347 3752.029411764706 555.7686784167113 3772.970588235294 555.2369592309062 3793.9117647058824 554.7811999287876 3814.8529411764707 554.6292801614147 3835.7941176470586 553.8317013827073 3856.735294117647 553.1100824876862 3877.676470588235 552.3125037089787 3898.6176470588234 551.7807845231737 3919.5588235294117 550.7933060352502 3940.5 549.691887721797 3961.4411764705883 549.0462287104623 3982.3823529411766 548.1347101062252 4003.323529411765 547.4130912112041 4024.264705882353 545.9318734793187 4045.2058823529414 544.9443949913953 4066.1470588235293 543.9569165034716 4087.0882352941176 542.9314580737048 4108.029411764706 542.0958993531542 4128.970588235294 541.0324609815441 4149.911764705882 540.2348822028366 4170.85294117647 539.6651830751885 4191.794117647059 538.4878048780488 4212.735294117647 537.9181057504006 4233.676470588235 537.3484066227525 4254.617647058823 536.3989080766721 4275.558823529412 535.2595098213756 4296.5 533.740312147647 4296.5 398 4275.558823529412 400.7725357545546 4254.617647058823 402.1398136609105 4233.676470588235 403.43113168357974 4212.735294117647 404.1147706367575 4191.794117647059 405.02628924099463 4170.85294117647 406.3935671473504 4149.911764705882 407.38104563527384 4128.970588235294 408.3305441813542 4108.029411764706 409.65984214586683 4087.0882352941176 410.6853005756335 4066.1470588235293 411.97661859830276 4045.2058823529414 413.1539967954425 4024.264705882353 414.40733487626846 4003.323529411765 416.3063319684292 3982.3823529411766 417.1798706308231 3961.4411764705883 418.39522876980595 3940.5 419.4206871995728 3919.5588235294117 420.8259450477717 3898.6176470588234 422.00332324491126 3877.676470588235 422.7249421399324 3856.735294117647 424.28211975550414 3835.7941176470586 425.0796985342116 3814.8529411764707 426.02919708029196 3793.9117647058824 426.21909678950806 3772.970588235294 426.7508159753131 3752.029411764706 427.2825351611182 3731.0882352941176 428.5738531837873 3710.1470588235293 430.01709097382945 3689.205882352941 431.8021482404606 3668.264705882353 432.3718473681088 3647.323529411765 433.66316539077803 3626.3823529411766 434.3847842857992 3605.4411764705883 435.94196190137086 3584.5 436.70156073823523 3563.5588235294117 438.1447985282773 3542.6176470588234 438.2967182956502 3521.676470588235 439.39813660910335 3500.735294117647 440.49955492255657 3479.794117647059 441.9427927125986 3458.8529411764707 442.7783514331494 3437.9117647058824 443.53795027001377 3416.970588235294 444.82926829268297 3396.029411764706 445.8167467806065 3375.0882352941176 446.7662453266868 3354.1470588235293 448.0575633493561 3333.205882352941 448.8931220699069 3312.264705882353 449.84262061598724 3291.323529411765 450.7921191620676 3270.3823529411766 451.43777817340214 3249.4411764705883 452.6911162542282 3228.5 454.13435404427037 3228.5 578.0249243368346Z" fill="#e62d39" opacity="0.9" />
		</g>
		<g>
			<rect x="4372" y="431" width="22.9995" height="23" fill="#005aa6" />
		</g>
		<g>
			<text fill="#595959" font-family="Verdana,Open Sans,DejaVu Sans,sans-serif" font-weight="400" font-size="41" transform="matrix(1 0 0 1 4404.56 454)">Web Browser</text>
		</g>
		<g>
			<rect x="4372" y="508" width="22.9995" height="23" fill="#e62d39" />
		</g>
		<g>
			<text fill="#595959" font-family="Verdana,Open Sans,DejaVu Sans,sans-serif" font-weight="400" font-size="41" transform="matrix(1 0 0 1 4404.56 531)">App</text>
		</g>
	</g>
</svg>
