<svg width="1763" height="1046"
    xmlns="http://www.w3.org/2000/svg"
	xmlns:xlink="http://www.w3.org/1999/xlink" xml:space="preserve" overflow="hidden">
	<defs>
		<clipPath id="clip0">
			<rect x="2917" y="346" width="1763" height="1046"/>
		</clipPath>
	</defs>
	<g clip-path="url(#clip0)" transform="translate(-2917 -346)">
		<rect x="2918" y="347" width="1760" height="1043" fill="#FFFFFF" />
		<g>
			<path d="
			M3228.5 974.532 4296.5 974.532
			M3228.5 910.53 4296.5 910.53
			M3228.5 846.528 4296.5 846.528
			M3228.5 781.526 4296.5 781.526
			M3228.5 717.524 4296.5 717.524
			M3228.5 653.522 4296.5 653.522
			M3228.5 589.52 4296.5 589.52
			M3228.5 525.517 4296.5 525.517
			M3228.5 461.515 4296.5 461.515
			M3228.5 397.5 4296.5 397.5" stroke="#D9D9D9" stroke-width="3.4375" stroke-linejoin="round" stroke-miterlimit="10" fill="none" />
		</g>
		<g>
			<path d="M 1038.5 4296.5 1038.5" stroke="#D9D9D9" stroke-width="3.4375" stroke-linejoin="round" stroke-miterlimit="10" fill="none" fill-rule="evenodd" />
		</g>
		<g>
			<text fill="#595959" font-family="Verdana,sans-serif" font-weight="400" font-size="41" transform="matrix(6.12323e-17 -1 1 6.12323e-17 3244.5 1225)">06-Nov</text>
		</g>
		<g>
			<text fill="#595959" font-family="Verdana,sans-serif" font-weight="400" font-size="41" transform="matrix(6.12323e-17 -1 1 6.12323e-17 3370.1470588235293 1223)">04-Dec</text>
		</g>
		<g>
			<text fill="#595959" font-family="Verdana,sans-serif" font-weight="400" font-size="41" transform="matrix(6.12323e-17 -1 1 6.12323e-17 3495.794117647059 1210)">01-Jan</text>
		</g>
		<g>
			<text fill="#595959" font-family="Verdana,sans-serif" font-weight="400" font-size="41" transform="matrix(6.12323e-17 -1 1 6.12323e-17 3621.4411764705883 1210)">29-Jan</text>
		</g>
		<g>
			<text fill="#595959" font-family="Verdana,sans-serif" font-weight="400" font-size="41" transform="matrix(6.12323e-17 -1 1 6.12323e-17 3747.0882352941176 1216)">26-Feb</text>
		</g>
		<g>
			<text fill="#595959" font-family="Verdana,sans-serif" font-weight="400" font-size="41" transform="matrix(6.12323e-17 -1 1 6.12323e-17 3872.735294117647 1223)">25-Mar</text>
		</g>
		<g>
			<text fill="#595959" font-family="Verdana,sans-serif" font-weight="400" font-size="41" transform="matrix(6.12323e-17 -1 1 6.12323e-17 4001.8823529411766 1216)">22-Apr</text>
		</g>
		<g>
			<text fill="#595959" font-family="Verdana,sans-serif" font-weight="400" font-size="41" transform="matrix(6.12323e-17 -1 1 6.12323e-17 4127.529411764706 1228)">20-May</text>
		</g>
		<g>
			<text fill="#595959" font-family="Verdana,sans-serif" font-weight="400" font-size="41" transform="matrix(6.12323e-17 -1 1 6.12323e-17 4249.176470588235 1209)">17-Jun</text>
		</g>
		<g>
			<text fill="#595959" font-family="Verdana,sans-serif" font-weight="400" font-size="41" transform="matrix(1 0 0 1 3123.5 1050)">0%</text>
		</g>
		<g>
			<text fill="#595959" font-family="Verdana,sans-serif" font-weight="400" font-size="41" transform="matrix(1 0 0 1 3097.5 922)">20%</text>
		</g>
		<g>
			<text fill="#595959" font-family="Verdana,sans-serif" font-weight="400" font-size="41" transform="matrix(1 0 0 1 3096.5 794)">40%</text>
		</g>
		<g>
			<text fill="#595959" font-family="Verdana,sans-serif" font-weight="400" font-size="41" transform="matrix(1 0 0 1 3097.5 666)">60%</text>
		</g>
		<g>
			<text fill="#595959" font-family="Verdana,sans-serif" font-weight="400" font-size="41" transform="matrix(1 0 0 1 3097.5 538)">80%</text>
		</g>
		<g>
			<text fill="#595959" font-family="Verdana,sans-serif" font-weight="400" font-size="41" transform="matrix(1 0 0 1 3074.5 410)">100%</text>
		</g>
		<g>
			<text fill="#595959" font-family="Verdana,sans-serif" font-weight="400" font-size="41" transform="matrix(1 0 0 1 3544.5 1321)">Week Commencing</text>
		</g>
		<g>
			<text fill="#595959" font-family="Verdana,sans-serif" font-weight="400" font-size="46" transform="matrix(6.12323e-17 -1 1 6.12323e-17 3019.73 965.25)">Requests (% of Total)</text>
		</g>
		<rect x="2918.5" y="347.5" width="1760" height="1043" stroke="#D9D9D9" stroke-width="3.4375" stroke-linejoin="round" stroke-miterlimit="10" fill="none" />
		<g>
			<path d="M3228.5 1038 3259.9117647058824 1038 3291.323529411765 1038 3322.735294117647 1038 3354.1470588235293 1038 3385.5588235294117 1038 3416.970588235294 1038 3448.3823529411766 1038 3479.794117647059 1038 3511.205882352941 1038 3542.6176470588234 1038 3574.029411764706 1038 3605.4411764705883 1038 3636.8529411764707 1038 3668.264705882353 1038 3699.676470588235 1038 3731.0882352941176 1038 3762.5 1038 3793.9117647058824 1038 3825.323529411765 1038 3856.735294117647 1038 3888.1470588235293 1038 3919.5588235294117 1038 3950.970588235294 1038 3982.3823529411766 1038 4013.7941176470586 1038 4045.205882352941 1038 4076.6176470588234 1038 4108.029411764706 1038 4139.441176470588 1038 4170.85294117647 1038 4202.264705882353 1038 4233.676470588235 1038 4265.088235294117 1038 4296.5 1038 4296.5 692.1617344671945 4265.088235294117 692.8199164999976 4233.676470588235 693.1175071055251 4202.264705882353 693.279620378092 4170.85294117647 693.7023667945714 4139.441176470588 694.1241584254815 4108.029411764706 694.1818102912466 4076.6176470588234 694.1642138907431 4045.205882352941 694.1125422243633 4013.7941176470586 694.1000133322768 3982.3823529411766 694.3187105935212 3950.970588235294 693.6205909506452 3919.5588235294117 692.0050611605195 3888.1470588235293 690.3198452220047 3856.735294117647 688.7547930560947 3825.323529411765 684.6952509793664 3793.9117647058824 679.1608039260515 3762.5 679.6019256256711 3731.0882352941176 682.3213957841157 3699.676470588235 684.5298935912222 3668.264705882353 686.5899201687104 3636.8529411764707 685.5922828206933 3605.4411764705883 684.727262331711 3574.029411764706 682.4804542973092 3542.6176470588234 682.4034608977785 3511.205882352941 678.1494953370828 3479.794117647059 677.8971563273623 3448.3823529411766 676.2533828137863 3416.970588235294 675.2989091940677 3385.5588235294117 677.8919622242556 3354.1470588235293 674.1657790475881 3322.735294117647 672.9058970371336 3291.323529411765 672.3854431659599 3259.9117647058824 672.4810692266187 3228.5 688.8585875798008 3228.5 1038Z" fill="#e62d39" opacity="0.9" />
		</g>
		<g>
			<path d="M3228.5 688.8585875798008 3259.9117647058824 672.4810692266187 3291.323529411765 672.3854431659599 3322.735294117647 672.9058970371336 3354.1470588235293 674.1657790475881 3385.5588235294117 677.8919622242556 3416.970588235294 675.2989091940677 3448.3823529411766 676.2533828137863 3479.794117647059 677.8971563273623 3511.205882352941 678.1494953370828 3542.6176470588234 682.4034608977785 3574.029411764706 682.4804542973092 3605.4411764705883 684.727262331711 3636.8529411764707 685.5922828206933 3668.264705882353 686.5899201687104 3699.676470588235 684.5298935912222 3731.0882352941176 682.3213957841157 3762.5 679.6019256256711 3793.9117647058824 679.1608039260515 3825.323529411765 684.6952509793664 3856.735294117647 688.7547930560947 3888.1470588235293 690.3198452220047 3919.5588235294117 692.0050611605195 3950.970588235294 693.6205909506452 3982.3823529411766 694.3187105935212 4013.7941176470586 694.1000133322768 4045.205882352941 694.1125422243633 4076.6176470588234 694.1642138907431 4108.029411764706 694.1818102912466 4139.441176470588 694.1241584254815 4170.85294117647 693.7023667945714 4202.264705882353 693.279620378092 4233.676470588235 693.1175071055251 4265.088235294117 692.8199164999976 4296.5 692.1617344671945 4296.5 437.86557118539895 4265.088235294117 437.9037489834077 4233.676470588235 437.50828716559636 4202.264705882353 437.0430647748583 4170.85294117647 436.55579203505033 4139.441176470588 435.9902777401653 4108.029411764706 435.4750218802621 4076.6176470588234 434.9235826881617 4045.205882352941 434.50854774480695 4013.7941176470586 434.2228656036452 3982.3823529411766 433.89359402287107 3950.970588235294 433.6904179753529 3919.5588235294117 433.5882703257375 3888.1470588235293 433.47006547647834 3856.735294117647 433.35408809308973 3825.323529411765 433.21208388667225 3793.9117647058824 422.122193997944 3762.5 421.6503463054078 3731.0882352941176 420.92160217406195 3699.676470588235 420.29603101333674 3668.264705882353 419.6100604377933 3636.8529411764707 419.2453958196608 3605.4411764705883 418.88543369630037 3574.029411764706 418.3145443410057 3542.6176470588234 418.32121591329116 3511.205882352941 418.1936065785876 3479.794117647059 417.9836440524953 3448.3823529411766 417.6737817747089 3416.970588235294 417.3462080305663 3385.5588235294117 417.2850488775972 3354.1470588235293 416.91367414087256 3322.735294117647 416.74196033033303 3291.323529411765 416.60514588840294 3259.9117647058824 416.52074620602923 3228.5 416.17089398429073 3228.5 688.8585875798008Z" fill="#005aa6" opacity="0.9" />
		</g>
		<g>
			<path d="M3228.5 416.17089398429073 3259.9117647058824 416.52074620602923 3291.323529411765 416.60514588840294 3322.735294117647 416.74196033033303 3354.1470588235293 416.91367414087256 3385.5588235294117 417.2850488775972 3416.970588235294 417.3462080305663 3448.3823529411766 417.6737817747089 3479.794117647059 417.9836440524953 3511.205882352941 418.1936065785876 3542.6176470588234 418.32121591329116 3574.029411764706 418.3145443410057 3605.4411764705883 418.88543369630037 3636.8529411764707 419.2453958196608 3668.264705882353 419.6100604377933 3699.676470588235 420.29603101333674 3731.0882352941176 420.92160217406195 3762.5 421.6503463054078 3793.9117647058824 422.122193997944 3825.323529411765 433.21208388667225 3856.735294117647 433.35408809308973 3888.1470588235293 433.47006547647834 3919.5588235294117 433.5882703257375 3950.970588235294 433.6904179753529 3982.3823529411766 433.89359402287107 4013.7941176470586 434.2228656036452 4045.205882352941 434.50854774480695 4076.6176470588234 434.9235826881617 4108.029411764706 435.4750218802621 4139.441176470588 435.9902777401653 4170.85294117647 436.55579203505033 4202.264705882353 437.0430647748583 4233.676470588235 437.50828716559636 4265.088235294117 437.9037489834077 4296.5 437.86557118539895 4296.5 398 4265.088235294117 398 4233.676470588235 398.00000000000006 4202.264705882353 397.9999999999999 4170.85294117647 398 4139.441176470588 397.99999999999994 4108.029411764706 398 4076.6176470588234 398 4045.205882352941 397.9999999999999 4013.7941176470586 397.9999999999999 3982.3823529411766 398.0000000000001 3950.970588235294 398 3919.5588235294117 397.99999999999994 3888.1470588235293 398.00000000000006 3856.735294117647 398 3825.323529411765 398 3793.9117647058824 398 3762.5 398.00000000000006 3731.0882352941176 398.00000000000006 3699.676470588235 398.00000000000006 3668.264705882353 398 3636.8529411764707 397.99999999999994 3605.4411764705883 398 3574.029411764706 398 3542.6176470588234 398 3511.205882352941 398 3479.794117647059 398 3448.3823529411766 398 3416.970588235294 398 3385.5588235294117 398.00000000000006 3354.1470588235293 398 3322.735294117647 397.99999999999994 3291.323529411765 398.00000000000006 3259.9117647058824 397.9999999999999 3228.5 397.9999999999999 3228.5 416.17089398429073Z" fill="#393d41" opacity="0.9" />
		</g>
		<g>
			<rect x="4372" y="431" width="22.9995" height="23" fill="#e62d39" />
		</g>
		<g>
			<text fill="#595959" font-family="Verdana,sans-serif" font-weight="400" font-size="41" transform="matrix(1 0 0 1 4404.56 454)">Web Browser</text>
		</g>
		<g>
			<rect x="4372" y="508" width="22.9995" height="23" fill="#005aa6" />
		</g>
		<g>
			<text fill="#595959" font-family="Verdana,sans-serif" font-weight="400" font-size="41" transform="matrix(1 0 0 1 4404.56 531)">App</text>
		</g>
		<g>
			<rect x="4372" y="585" width="22.9995" height="23" fill="#393d41" />
		</g>
		<g>
			<text fill="#595959" font-family="Verdana,sans-serif" font-weight="400" font-size="41" transform="matrix(1 0 0 1 4404.56 608)">Unclassified</text>
		</g>
	</g>
</svg>
