<svg width="1763" height="1046"
    xmlns="http://www.w3.org/2000/svg"
	xmlns:xlink="http://www.w3.org/1999/xlink" xml:space="preserve" overflow="hidden">
	<defs>
		<clipPath id="clip0">
			<rect x="2917" y="346" width="1763" height="1046"/>
		</clipPath>
	</defs>
	<g clip-path="url(#clip0)" transform="translate(-2917 -346)">
		<rect x="2918" y="347" width="1760" height="1043" fill="#FFFFFF" />
		<g>
			<path d="
			M3228.5 974.532 4296.5 974.532
			M3228.5 910.53 4296.5 910.53
			M3228.5 846.528 4296.5 846.528
			M3228.5 781.526 4296.5 781.526
			M3228.5 717.524 4296.5 717.524
			M3228.5 653.522 4296.5 653.522
			M3228.5 589.52 4296.5 589.52
			M3228.5 525.517 4296.5 525.517
			M3228.5 461.515 4296.5 461.515
			M3228.5 397.5 4296.5 397.5" stroke="#D9D9D9" stroke-width="3.4375" stroke-linejoin="round" stroke-miterlimit="10" fill="none" />
		</g>
		<g>
			<path d="M 1038.5 4296.5 1038.5" stroke="#D9D9D9" stroke-width="3.4375" stroke-linejoin="round" stroke-miterlimit="10" fill="none" fill-rule="evenodd" />
		</g>
		<g>
			<text fill="#595959" font-family="Verdana,Open Sans,DejaVu Sans,sans-serif" font-weight="400" font-size="41" transform="matrix(6.12323e-17 -1 1 6.12323e-17 3247.928955078125 1177.2768478393555)">15-Jul</text>
		</g>
		<g>
			<text fill="#595959" font-family="Verdana,Open Sans,DejaVu Sans,sans-serif" font-weight="400" font-size="41" transform="matrix(6.12323e-17 -1 1 6.12323e-17 3335.452960578763 1206.90576171875)">12-Aug</text>
		</g>
		<g>
			<text fill="#595959" font-family="Verdana,Open Sans,DejaVu Sans,sans-serif" font-weight="400" font-size="41" transform="matrix(6.12323e-17 -1 1 6.12323e-17 3422.6566535794004 1204.38330078125)">09-Sep</text>
		</g>
		<g>
			<text fill="#595959" font-family="Verdana,Open Sans,DejaVu Sans,sans-serif" font-weight="400" font-size="41" transform="matrix(6.12323e-17 -1 1 6.12323e-17 3505.1157176737884 1201.1000900268555)">07-Oct</text>
		</g>
		<g>
			<text fill="#595959" font-family="Verdana,Open Sans,DejaVu Sans,sans-serif" font-weight="400" font-size="41" transform="matrix(6.12323e-17 -1 1 6.12323e-17 3592.299391143176 1211.43017578125)">04-Nov</text>
		</g>
		<g>
			<text fill="#595959" font-family="Verdana,Open Sans,DejaVu Sans,sans-serif" font-weight="400" font-size="41" transform="matrix(6.12323e-17 -1 1 6.12323e-17 3679.483064612564 1207.0859375)">09-Dec</text>
		</g>
		<g>
			<text fill="#595959" font-family="Verdana,Open Sans,DejaVu Sans,sans-serif" font-weight="400" font-size="41" transform="matrix(6.12323e-17 -1 1 6.12323e-17 3770.3203025350767 1191.6508712768555)">06-Jan</text>
		</g>
		<g>
			<text fill="#595959" font-family="Verdana,Open Sans,DejaVu Sans,sans-serif" font-weight="400" font-size="41" transform="matrix(6.12323e-17 -1 1 6.12323e-17 3854.561104910714 1203.0419921875)">03-Feb</text>
		</g>
		<g>
			<text fill="#595959" font-family="Verdana,Open Sans,DejaVu Sans,sans-serif" font-weight="400" font-size="41" transform="matrix(6.12323e-17 -1 1 6.12323e-17 3941.034085020727 1212.0107421875)">03-Mar</text>
		</g>
		<g>
			<text fill="#595959" font-family="Verdana,Open Sans,DejaVu Sans,sans-serif" font-weight="400" font-size="41" transform="matrix(6.12323e-17 -1 1 6.12323e-17 4028.1977389588646 1212.1708984375)">31-Mar</text>
		</g>
		<g>
			<text fill="#595959" font-family="Verdana,Open Sans,DejaVu Sans,sans-serif" font-weight="400" font-size="41" transform="matrix(6.12323e-17 -1 1 6.12323e-17 4120.106021803253 1203.3022384643555)">28-Apr</text>
		</g>
		<g>
			<text fill="#595959" font-family="Verdana,Open Sans,DejaVu Sans,sans-serif" font-weight="400" font-size="41" transform="matrix(6.12323e-17 -1 1 6.12323e-17 4207.2896952726405 1216.51513671875)">26-May</text>
		</g>
		<g>
			<text fill="#595959" font-family="Verdana,Open Sans,DejaVu Sans,sans-serif" font-weight="400" font-size="41" transform="matrix(6.12323e-17 -1 1 6.12323e-17 4293.4223433514035 1194.1733322143555)">30-Jun</text>
		</g>
		<g>
			<text fill="#595959" font-family="Verdana,Open Sans,DejaVu Sans,sans-serif" font-weight="400" font-size="41" transform="matrix(1 0 0 1 3169.14111328125 1050)">0</text>
		</g>
		<g>
			<text fill="#595959" font-family="Verdana,Open Sans,DejaVu Sans,sans-serif" font-weight="400" font-size="41" transform="matrix(1 0 0 1 3088.7626953125 922)">3,082</text>
		</g>
		<g>
			<text fill="#595959" font-family="Verdana,Open Sans,DejaVu Sans,sans-serif" font-weight="400" font-size="41" transform="matrix(1 0 0 1 3087.841796875 794)">6,164</text>
		</g>
		<g>
			<text fill="#595959" font-family="Verdana,Open Sans,DejaVu Sans,sans-serif" font-weight="400" font-size="41" transform="matrix(1 0 0 1 3088.8828125 666)">9,247</text>
		</g>
		<g>
			<text fill="#595959" font-family="Verdana,Open Sans,DejaVu Sans,sans-serif" font-weight="400" font-size="41" transform="matrix(1 0 0 1 3067.2016677856445 538)">12,329</text>
		</g>
		<g>
			<text fill="#595959" font-family="Verdana,Open Sans,DejaVu Sans,sans-serif" font-weight="400" font-size="41" transform="matrix(1 0 0 1 3074.1284255981445 410)">15,411</text>
		</g>
		<g>
			<text fill="#595959" font-family="Verdana,Open Sans,DejaVu Sans,sans-serif" font-weight="400" font-size="41" transform="matrix(1 0 0 1 3556.97119140625 1321)">Week Commencing</text>
		</g>
		<g>
			<text fill="#595959" font-family="Verdana,Open Sans,DejaVu Sans,sans-serif" font-weight="400" font-size="46" transform="matrix(6.12323e-17 -1 1 6.12323e-17 3019.73 1011.673828125)">Number of Browser Profiles</text>
		</g>
		<rect x="2918.5" y="347.5" width="1760" height="1043" stroke="#D9D9D9" stroke-width="3.4375" stroke-linejoin="round" stroke-miterlimit="10" fill="none" />
		<g>
			<path d="M3228.5 1038 3250.295918367347 1038 3272.091836734694 1038 3293.887755102041 1038 3315.683673469388 1038 3337.4795918367345 1038 3359.2755102040815 1038 3381.0714285714284 1038 3402.8673469387754 1038 3424.6632653061224 1038 3446.4591836734694 1038 3468.2551020408164 1038 3490.0510204081634 1038 3511.8469387755104 1038 3533.6428571428573 1038 3555.4387755102043 1038 3577.234693877551 1038 3599.030612244898 1038 3620.826530612245 1038 3642.622448979592 1038 3664.418367346939 1038 3686.214285714286 1038 3708.0102040816328 1038 3729.8061224489797 1038 3751.6020408163267 1038 3773.3979591836733 1038 3795.1938775510203 1038 3816.9897959183672 1038 3838.785714285714 1038 3860.581632653061 1038 3882.377551020408 1038 3904.173469387755 1038 3925.969387755102 1038 3947.765306122449 1038 3969.5612244897957 1038 3991.357142857143 1038 4013.1530612244896 1038 4034.9489795918366 1038 4056.7448979591836 1038 4078.5408163265306 1038 4100.336734693878 1038 4122.132653061224 1038 4143.928571428572 1038 4165.724489795918 1038 4187.5204081632655 1038 4209.316326530612 1038 4231.1122448979595 1038 4252.908163265306 1038 4274.7040816326535 1038 4296.5 1038 4296.5 533.6745182012849 4274.7040816326535 535.0449678800857 4252.908163265306 535.667899552268 4231.1122448979595 536.8722341184869 4209.316326530612 538.2842125754332 4187.5204081632655 539.9868924793979 4165.724489795918 541.1496982674713 4143.928571428572 542.2709752773993 4122.132653061224 543.2261371747454 4100.336734693878 544.0982415158005 4078.5408163265306 545.094932191292 4056.7448979591836 546.0085653104925 4034.9489795918366 547.5451301018753 4013.1530612244896 548.209590552203 3991.357142857143 548.8740510025307 3969.5612244897957 549.6630977872949 3947.765306122449 550.7843747972229 3925.969387755102 551.9471805852962 3904.173469387755 552.8608137044969 3882.377551020408 553.4422165985336 3860.581632653061 554.3973784958796 3838.785714285714 555.809356952826 3816.9897959183672 556.4322886250081 3795.1938775510203 557.1382778534813 3773.3979591836733 557.636623191227 3751.6020408163267 558.3841411978458 3729.8061224489797 558.8824865355915 3708.0102040816328 559.1731879826099 3686.214285714286 560.128349879956 3664.418367346939 560.834339108429 3642.622448979592 562.4124326779573 3620.826530612245 563.4506521315943 3599.030612244898 564.0735838037765 3577.234693877551 564.6965154759588 3555.4387755102043 565.6101485951593 3533.6428571428573 566.357666601778 3511.8469387755104 567.0636558302512 3490.0510204081634 567.9357601713062 3468.2551020408164 569.2646810719616 3446.4591836734694 569.6799688534164 3424.6632653061224 570.7597170851989 3402.8673469387754 571.6733502043994 3381.0714285714284 572.2962818765817 3359.2755102040815 573.2099149957822 3337.4795918367345 573.7497891116735 3315.683673469388 574.3311920057102 3293.887755102041 575.2448251249108 3272.091836734694 576.0338719096749 3250.295918367347 576.7813899162936 3228.5 577.3212640321849 3228.5 1038Z" fill="#e62d39" opacity="0.9" />
		</g>
		<g>
			<path d="M3228.5 577.3212640321849 3250.295918367347 576.7813899162936 3272.091836734694 576.0338719096749 3293.887755102041 575.2448251249108 3315.683673469388 574.3311920057102 3337.4795918367345 573.7497891116735 3359.2755102040815 573.2099149957822 3381.0714285714284 572.2962818765817 3402.8673469387754 571.6733502043994 3424.6632653061224 570.7597170851989 3446.4591836734694 569.6799688534164 3468.2551020408164 569.2646810719616 3490.0510204081634 567.9357601713062 3511.8469387755104 567.0636558302512 3533.6428571428573 566.357666601778 3555.4387755102043 565.6101485951593 3577.234693877551 564.6965154759588 3599.030612244898 564.0735838037765 3620.826530612245 563.4506521315943 3642.622448979592 562.4124326779573 3664.418367346939 560.834339108429 3686.214285714286 560.128349879956 3708.0102040816328 559.1731879826099 3729.8061224489797 558.8824865355915 3751.6020408163267 558.3841411978458 3773.3979591836733 557.636623191227 3795.1938775510203 557.1382778534813 3816.9897959183672 556.4322886250081 3838.785714285714 555.809356952826 3860.581632653061 554.3973784958796 3882.377551020408 553.4422165985336 3904.173469387755 552.8608137044969 3925.969387755102 551.9471805852962 3947.765306122449 550.7843747972229 3969.5612244897957 549.6630977872949 3991.357142857143 548.8740510025307 4013.1530612244896 548.209590552203 4034.9489795918366 547.5451301018753 4056.7448979591836 546.0085653104925 4078.5408163265306 545.094932191292 4100.336734693878 544.0982415158005 4122.132653061224 543.2261371747454 4143.928571428572 542.2709752773993 4165.724489795918 541.1496982674713 4187.5204081632655 539.9868924793979 4209.316326530612 538.2842125754332 4231.1122448979595 536.8722341184869 4252.908163265306 535.667899552268 4274.7040816326535 535.0449678800857 4296.5 533.6745182012849 4296.5 398.00000000000006 4274.7040816326535 399.5780935695283 4252.908163265306 400.325611576147 4231.1122448979595 401.6545324768024 4209.316326530612 403.19109726818516 4187.5204081632655 405.4751800661865 4165.724489795918 406.8456297449874 4143.928571428572 408.2160794237883 4122.132653061224 409.3373564337163 4100.336734693878 410.33404710920786 4078.5408163265306 411.53838167542665 4056.7448979591836 412.6181299072091 4034.9489795918366 414.3623385893194 4013.1530612244896 415.2344429303745 3991.357142857143 415.9819609369931 3969.5612244897957 416.8955940561937 3947.765306122449 418.3491012912856 3925.969387755102 419.6364934137954 3904.173469387755 420.67471286743245 3882.377551020408 421.50528843034203 3860.581632653061 422.70962299656094 3838.785714285714 424.2877165660892 3816.9897959183672 425.0767633508533 3795.1938775510203 426.0319252481994 3773.3979591836733 426.73791447667253 3751.6020408163267 427.6100188177277 3729.8061224489797 428.1498929336189 3708.0102040816328 428.44059438063726 3686.214285714286 429.56187139056533 3664.418367346939 430.47550450976576 3642.622448979592 432.3442995263124 3620.826530612245 433.6316916488223 3599.030612244898 434.46226721173184 3577.234693877551 435.83271689053277 3555.4387755102043 436.9539939004608 3533.6428571428573 437.8676270196613 3511.8469387755104 438.7397313607164 3490.0510204081634 439.73642203620795 3468.2551020408164 441.1899292712998 3446.4591836734694 441.7713321653365 3424.6632653061224 443.1417818441373 3402.8673469387754 444.26305885406526 3381.0714285714284 445.05210563882946 3359.2755102040815 446.1733826487574 3337.4795918367345 446.79631432093964 3315.683673469388 447.66841866199474 3293.887755102041 448.66510933748623 3272.091836734694 449.6202712348322 3250.295918367347 450.4923755758874 3228.5 451.0322496917787 3228.5 577.3212640321849Z" fill="#005aa6" opacity="0.9" />
		</g>
		<g>
			<rect x="4372" y="431" width="22.9995" height="23" fill="#e62d39" />
		</g>
		<g>
			<text fill="#595959" font-family="Verdana,Open Sans,DejaVu Sans,sans-serif" font-weight="400" font-size="41" transform="matrix(1 0 0 1 4404.56 454)">Web Browser</text>
		</g>
		<g>
			<rect x="4372" y="508" width="22.9995" height="23" fill="#005aa6" />
		</g>
		<g>
			<text fill="#595959" font-family="Verdana,Open Sans,DejaVu Sans,sans-serif" font-weight="400" font-size="41" transform="matrix(1 0 0 1 4404.56 531)">App</text>
		</g>
	</g>
</svg>
