<svg width="1763" height="1046"
    xmlns="http://www.w3.org/2000/svg"
	xmlns:xlink="http://www.w3.org/1999/xlink" xml:space="preserve" overflow="hidden">
	<defs>
		<clipPath id="clip0">
			<rect x="2917" y="346" width="1763" height="1046"/>
		</clipPath>
	</defs>
	<g clip-path="url(#clip0)" transform="translate(-2917 -346)">
		<rect x="2918" y="347" width="1760" height="1043" fill="#FFFFFF" />
		<g>
			<path d="
			M3228.5 974.532 4296.5 974.532
			M3228.5 910.53 4296.5 910.53
			M3228.5 846.528 4296.5 846.528
			M3228.5 781.526 4296.5 781.526
			M3228.5 717.524 4296.5 717.524
			M3228.5 653.522 4296.5 653.522
			M3228.5 589.52 4296.5 589.52
			M3228.5 525.517 4296.5 525.517
			M3228.5 461.515 4296.5 461.515
			M3228.5 397.5 4296.5 397.5" stroke="#D9D9D9" stroke-width="3.4375" stroke-linejoin="round" stroke-miterlimit="10" fill="none" />
		</g>
		<g>
			<path d="M 1038.5 4296.5 1038.5" stroke="#D9D9D9" stroke-width="3.4375" stroke-linejoin="round" stroke-miterlimit="10" fill="none" fill-rule="evenodd" />
		</g>
		<g>
			<text fill="#595959" font-family="Verdana,sans-serif" font-weight="400" font-size="41" transform="matrix(6.12323e-17 -1 1 6.12323e-17 3244.5 1225)">06-Nov</text>
		</g>
		<g>
			<text fill="#595959" font-family="Verdana,sans-serif" font-weight="400" font-size="41" transform="matrix(6.12323e-17 -1 1 6.12323e-17 3351.3 1223)">04-Dec</text>
		</g>
		<g>
			<text fill="#595959" font-family="Verdana,sans-serif" font-weight="400" font-size="41" transform="matrix(6.12323e-17 -1 1 6.12323e-17 3458.1 1210)">01-Jan</text>
		</g>
		<g>
			<text fill="#595959" font-family="Verdana,sans-serif" font-weight="400" font-size="41" transform="matrix(6.12323e-17 -1 1 6.12323e-17 3564.9 1210)">29-Jan</text>
		</g>
		<g>
			<text fill="#595959" font-family="Verdana,sans-serif" font-weight="400" font-size="41" transform="matrix(6.12323e-17 -1 1 6.12323e-17 3671.7 1216)">26-Feb</text>
		</g>
		<g>
			<text fill="#595959" font-family="Verdana,sans-serif" font-weight="400" font-size="41" transform="matrix(6.12323e-17 -1 1 6.12323e-17 3778.5 1223)">25-Mar</text>
		</g>
		<g>
			<text fill="#595959" font-family="Verdana,sans-serif" font-weight="400" font-size="41" transform="matrix(6.12323e-17 -1 1 6.12323e-17 3888.8 1216)">22-Apr</text>
		</g>
		<g>
			<text fill="#595959" font-family="Verdana,sans-serif" font-weight="400" font-size="41" transform="matrix(6.12323e-17 -1 1 6.12323e-17 3995.6 1228)">20-May</text>
		</g>
		<g>
			<text fill="#595959" font-family="Verdana,sans-serif" font-weight="400" font-size="41" transform="matrix(6.12323e-17 -1 1 6.12323e-17 4098.4 1209)">17-Jun</text>
		</g>
		<g>
			<text fill="#595959" font-family="Verdana,sans-serif" font-weight="400" font-size="41" transform="matrix(6.12323e-17 -1 1 6.12323e-17 4205.7 1194)">15-Jul</text>
		</g>
		<g>
			<text fill="#595959" font-family="Verdana,sans-serif" font-weight="400" font-size="41" transform="matrix(6.12323e-17 -1 1 6.12323e-17 4316 1218)">12-Aug</text>
		</g>
		<g>
			<text fill="#595959" font-family="Verdana,sans-serif" font-weight="400" font-size="41" transform="matrix(1 0 0 1 3167.5 1050)">0</text>
		</g>
		<g>
			<text fill="#595959" font-family="Verdana,sans-serif" font-weight="400" font-size="41" transform="matrix(1 0 0 1 3075.5 922)">2,843</text>
		</g>
		<g>
			<text fill="#595959" font-family="Verdana,sans-serif" font-weight="400" font-size="41" transform="matrix(1 0 0 1 3074.5 794)">5,686</text>
		</g>
		<g>
			<text fill="#595959" font-family="Verdana,sans-serif" font-weight="400" font-size="41" transform="matrix(1 0 0 1 3073.5 666)">8,529</text>
		</g>
		<g>
			<text fill="#595959" font-family="Verdana,sans-serif" font-weight="400" font-size="41" transform="matrix(1 0 0 1 3050.5 538)">11,372</text>
		</g>
		<g>
			<text fill="#595959" font-family="Verdana,sans-serif" font-weight="400" font-size="41" transform="matrix(1 0 0 1 3051.5 410)">14,215</text>
		</g>
		<g>
			<text fill="#595959" font-family="Verdana,sans-serif" font-weight="400" font-size="41" transform="matrix(1 0 0 1 3544.5 1321)">Week Commencing</text>
		</g>
		<g>
			<text fill="#595959" font-family="Verdana,sans-serif" font-weight="400" font-size="46" transform="matrix(6.12323e-17 -1 1 6.12323e-17 3019.73 1030.75)">Number of Browser Profiles</text>
		</g>
		<rect x="2918.5" y="347.5" width="1760" height="1043" stroke="#D9D9D9" stroke-width="3.4375" stroke-linejoin="round" stroke-miterlimit="10" fill="none" />
		<g>
			<path d="M3228.5 1038 3255.2 1038 3281.9 1038 3308.6 1038 3335.3 1038 3362 1038 3388.7 1038 3415.4 1038 3442.1 1038 3468.8 1038 3495.5 1038 3522.2 1038 3548.9 1038 3575.6 1038 3602.3 1038 3629 1038 3655.7 1038 3682.4 1038 3709.1 1038 3735.8 1038 3762.5 1038 3789.2 1038 3815.9 1038 3842.6 1038 3869.3 1038 3896 1038 3922.7 1038 3949.4 1038 3976.1 1038 4002.8 1038 4029.5 1038 4056.2 1038 4082.9 1038 4109.6 1038 4136.3 1038 4163 1038 4189.7 1038 4216.4 1038 4243.1 1038 4269.8 1038 4296.5 1038 4296.5 535.3197326767499 4269.8 536.3102356665495 4243.1 537.1656700668309 4216.4 537.9760816039395 4189.7 538.5613788251846 4163 539.0116074569117 4136.3 539.4618360886388 4109.6 540.5423848047838 4082.9 541.3077734787197 4056.2 542.0731621526556 4029.5 543.243756595146 4002.8 544.3693281744636 3976.1 545.4048540274358 3949.4 545.9001055223356 3922.7 546.4854027435807 3896 547.205768554344 3869.3 548.5564544495252 3842.6 549.7720717551881 3815.9 550.9876890608512 3789.2 552.4734435455505 3762.5 553.5990151248682 3735.8 554.6345409778403 3709.1 555.7150896939852 3682.4 557.1107984523392 3655.7 559.4069644741471 3629 559.8571931058741 3602.3 560.2173760112557 3575.6 562.153359127682 3548.9 564.134365107281 3522.2 564.6746394653535 3495.5 565.4850510024621 3468.8 566.1603939500528 3442.1 566.430531129089 3415.4 566.430531129089 3388.7 567.1959198030249 3362 567.646148434752 3335.3 568.1864227928245 3308.6 569.0868800562786 3281.9 569.8522687302145 3255.2 570.5276116778052 3228.5 571.0228631727049 3228.5 1038Z" fill="#e62d39" opacity="0.9" />
		</g>
		<g>
			<path d="M3228.5 571.0228631727049 3255.2 570.5276116778052 3281.9 569.8522687302145 3308.6 569.0868800562786 3335.3 568.1864227928245 3362 567.646148434752 3388.7 567.1959198030249 3415.4 566.430531129089 3442.1 566.430531129089 3468.8 566.1603939500528 3495.5 565.4850510024621 3522.2 564.6746394653535 3548.9 564.134365107281 3575.6 562.153359127682 3602.3 560.2173760112557 3629 559.8571931058741 3655.7 559.4069644741471 3682.4 557.1107984523392 3709.1 555.7150896939852 3735.8 554.6345409778403 3762.5 553.5990151248682 3789.2 552.4734435455505 3815.9 550.9876890608512 3842.6 549.7720717551881 3869.3 548.5564544495252 3896 547.205768554344 3922.7 546.4854027435807 3949.4 545.9001055223356 3976.1 545.4048540274358 4002.8 544.3693281744636 4029.5 543.243756595146 4056.2 542.0731621526556 4082.9 541.3077734787197 4109.6 540.5423848047838 4136.3 539.4618360886388 4163 539.0116074569117 4189.7 538.5613788251846 4216.4 537.9760816039395 4243.1 537.1656700668309 4269.8 536.3102356665495 4296.5 535.3197326767499 4296.5 398 4269.8 399.080548716145 4243.1 400.11607456911725 4216.4 401.06155469574395 4189.7 401.6468519169891 4163 402.1871262750616 4136.3 402.95251494899765 4109.6 404.21315511783337 4082.9 405.15863524446013 4056.2 406.14913823425957 4029.5 407.6348927189589 4002.8 408.98557861413997 3976.1 410.15617305663034 3949.4 410.83151600422093 3922.7 411.5518818149842 3896 412.40731621526555 3869.3 413.9831164263103 3842.6 415.4238480478367 3815.9 416.86457966936325 3789.2 418.62047133309886 3762.5 419.97115722828005 3735.8 421.6370031656701 3709.1 423.25782623988744 3682.4 424.6985578614141 3655.7 427.26486106225826 3629 427.760112557158 3602.3 428.30038691523043 3575.6 430.5065072106929 3548.9 432.62258177981005 3522.2 433.29792472740064 3495.5 434.33345058037276 3468.8 435.1438621174816 3442.1 435.5040450228632 3415.4 435.5040450228632 3388.7 436.4945480126627 3362 437.16989096025327 3335.3 437.7551881814984 3308.6 438.74569117129795 3281.9 439.646148434752 3255.2 440.6366514245516 3228.5 441.31199437214207 3228.5 571.0228631727049Z" fill="#005aa6" opacity="0.9" />
		</g>
		<g>
			<rect x="4372" y="431" width="22.9995" height="23" fill="#e62d39" />
		</g>
		<g>
			<text fill="#595959" font-family="Verdana,sans-serif" font-weight="400" font-size="41" transform="matrix(1 0 0 1 4404.56 454)">Web Browser</text>
		</g>
		<g>
			<rect x="4372" y="508" width="22.9995" height="23" fill="#005aa6" />
		</g>
		<g>
			<text fill="#595959" font-family="Verdana,sans-serif" font-weight="400" font-size="41" transform="matrix(1 0 0 1 4404.56 531)">App</text>
		</g>
	</g>
</svg>
