<svg width="1763" height="1046"
    xmlns="http://www.w3.org/2000/svg"
	xmlns:xlink="http://www.w3.org/1999/xlink" xml:space="preserve" overflow="hidden">
	<defs>
		<clipPath id="clip0">
			<rect x="2917" y="346" width="1763" height="1046"/>
		</clipPath>
	</defs>
	<g clip-path="url(#clip0)" transform="translate(-2917 -346)">
		<rect x="2918" y="347" width="1760" height="1043" fill="#FFFFFF" />
		<g>
			<path d="
			M3228.5 974.532 4296.5 974.532
			M3228.5 910.53 4296.5 910.53
			M3228.5 846.528 4296.5 846.528
			M3228.5 781.526 4296.5 781.526
			M3228.5 717.524 4296.5 717.524
			M3228.5 653.522 4296.5 653.522
			M3228.5 589.52 4296.5 589.52
			M3228.5 525.517 4296.5 525.517
			M3228.5 461.515 4296.5 461.515
			M3228.5 397.5 4296.5 397.5" stroke="#D9D9D9" stroke-width="3.4375" stroke-linejoin="round" stroke-miterlimit="10" fill="none" />
		</g>
		<g>
			<path d="M 1038.5 4296.5 1038.5" stroke="#D9D9D9" stroke-width="3.4375" stroke-linejoin="round" stroke-miterlimit="10" fill="none" fill-rule="evenodd" />
		</g>
		<g>
			<text fill="#595959" font-family="Verdana,Open Sans,DejaVu Sans,sans-serif" font-weight="400" font-size="41" transform="matrix(6.12323e-17 -1 1 6.12323e-17 3247.1982421875 1191.6909103393555)">27-Jan</text>
		</g>
		<g>
			<text fill="#595959" font-family="Verdana,Open Sans,DejaVu Sans,sans-serif" font-weight="400" font-size="41" transform="matrix(6.12323e-17 -1 1 6.12323e-17 3329.715390625 1203.08203125)">24-Feb</text>
		</g>
		<g>
			<text fill="#595959" font-family="Verdana,Open Sans,DejaVu Sans,sans-serif" font-weight="400" font-size="41" transform="matrix(6.12323e-17 -1 1 6.12323e-17 3414.424677734375 1212.05078125)">24-Mar</text>
		</g>
		<g>
			<text fill="#595959" font-family="Verdana,Open Sans,DejaVu Sans,sans-serif" font-weight="400" font-size="41" transform="matrix(6.12323e-17 -1 1 6.12323e-17 3504.589287109375 1203.3022384643555)">21-Apr</text>
		</g>
		<g>
			<text fill="#595959" font-family="Verdana,Open Sans,DejaVu Sans,sans-serif" font-weight="400" font-size="41" transform="matrix(6.12323e-17 -1 1 6.12323e-17 3590.029287109375 1214.75341796875)">19-May</text>
		</g>
		<g>
			<text fill="#595959" font-family="Verdana,Open Sans,DejaVu Sans,sans-serif" font-weight="400" font-size="41" transform="matrix(6.12323e-17 -1 1 6.12323e-17 3674.3982421875 1194.0532150268555)">23-Jun</text>
		</g>
		<g>
			<text fill="#595959" font-family="Verdana,Open Sans,DejaVu Sans,sans-serif" font-weight="400" font-size="41" transform="matrix(6.12323e-17 -1 1 6.12323e-17 3760.568955078125 1179.0385665893555)">21-Jul</text>
		</g>
		<g>
			<text fill="#595959" font-family="Verdana,Open Sans,DejaVu Sans,sans-serif" font-weight="400" font-size="41" transform="matrix(6.12323e-17 -1 1 6.12323e-17 3846.349287109375 1206.90576171875)">18-Aug</text>
		</g>
		<g>
			<text fill="#595959" font-family="Verdana,Open Sans,DejaVu Sans,sans-serif" font-weight="400" font-size="41" transform="matrix(6.12323e-17 -1 1 6.12323e-17 3931.789287109375 1202.66162109375)">15-Sep</text>
		</g>
		<g>
			<text fill="#595959" font-family="Verdana,Open Sans,DejaVu Sans,sans-serif" font-weight="400" font-size="41" transform="matrix(6.12323e-17 -1 1 6.12323e-17 4012.524697265625 1199.3784103393555)">13-Oct</text>
		</g>
		<g>
			<text fill="#595959" font-family="Verdana,Open Sans,DejaVu Sans,sans-serif" font-weight="400" font-size="41" transform="matrix(6.12323e-17 -1 1 6.12323e-17 4097.964697265625 1209.70849609375)">10-Nov</text>
		</g>
		<g>
			<text fill="#595959" font-family="Verdana,Open Sans,DejaVu Sans,sans-serif" font-weight="400" font-size="41" transform="matrix(6.12323e-17 -1 1 6.12323e-17 4183.404697265625 1207.0859375)">08-Dec</text>
		</g>
		<g>
			<text fill="#595959" font-family="Verdana,Open Sans,DejaVu Sans,sans-serif" font-weight="400" font-size="41" transform="matrix(6.12323e-17 -1 1 6.12323e-17 4272.49826171875 1191.6508712768555)">05-Jan</text>
		</g>
		<g>
			<text fill="#595959" font-family="Verdana,Open Sans,DejaVu Sans,sans-serif" font-weight="400" font-size="41" transform="matrix(1 0 0 1 3169.14111328125 1050)">0</text>
		</g>
		<g>
			<text fill="#595959" font-family="Verdana,Open Sans,DejaVu Sans,sans-serif" font-weight="400" font-size="41" transform="matrix(1 0 0 1 3088.6826171875 922)">3,228</text>
		</g>
		<g>
			<text fill="#595959" font-family="Verdana,Open Sans,DejaVu Sans,sans-serif" font-weight="400" font-size="41" transform="matrix(1 0 0 1 3089.38330078125 794)">6,455</text>
		</g>
		<g>
			<text fill="#595959" font-family="Verdana,Open Sans,DejaVu Sans,sans-serif" font-weight="400" font-size="41" transform="matrix(1 0 0 1 3089.203125 666)">9,683</text>
		</g>
		<g>
			<text fill="#595959" font-family="Verdana,Open Sans,DejaVu Sans,sans-serif" font-weight="400" font-size="41" transform="matrix(1 0 0 1 3067.0415115356445 538)">12,910</text>
		</g>
		<g>
			<text fill="#595959" font-family="Verdana,Open Sans,DejaVu Sans,sans-serif" font-weight="400" font-size="41" transform="matrix(1 0 0 1 3067.1215896606445 410)">16,138</text>
		</g>
		<g>
			<text fill="#595959" font-family="Verdana,Open Sans,DejaVu Sans,sans-serif" font-weight="400" font-size="41" transform="matrix(1 0 0 1 3556.97119140625 1321)">Week Commencing</text>
		</g>
		<g>
			<text fill="#595959" font-family="Verdana,Open Sans,DejaVu Sans,sans-serif" font-weight="400" font-size="46" transform="matrix(6.12323e-17 -1 1 6.12323e-17 3019.73 1011.673828125)">Number of Browser Profiles</text>
		</g>
		<rect x="2918.5" y="347.5" width="1760" height="1043" stroke="#D9D9D9" stroke-width="3.4375" stroke-linejoin="round" stroke-miterlimit="10" fill="none" />
		<g>
			<path d="M3228.5 1038 3249.86 1038 3271.22 1038 3292.58 1038 3313.94 1038 3335.3 1038 3356.66 1038 3378.02 1038 3399.38 1038 3420.74 1038 3442.1 1038 3463.46 1038 3484.82 1038 3506.18 1038 3527.54 1038 3548.9 1038 3570.26 1038 3591.62 1038 3612.98 1038 3634.34 1038 3655.7 1038 3677.06 1038 3698.42 1038 3719.7799999999997 1038 3741.14 1038 3762.5 1038 3783.86 1038 3805.2200000000003 1038 3826.58 1038 3847.94 1038 3869.3 1038 3890.66 1038 3912.02 1038 3933.38 1038 3954.74 1038 3976.1 1038 3997.46 1038 4018.8199999999997 1038 4040.18 1038 4061.54 1038 4082.9 1038 4104.26 1038 4125.62 1038 4146.98 1038 4168.34 1038 4189.7 1038 4211.0599999999995 1038 4232.42 1038 4253.78 1038 4275.139999999999 1038 4296.5 1038 4296.5 532.4404511091833 4275.139999999999 533.273268062957 4253.78 533.4318998636759 4232.42 533.9077952658322 4211.0599999999995 534.463006568348 4189.7 535.4941132730203 4168.34 536.7631676787706 4146.98 538.4288015863181 4125.62 538.7460651877557 4104.26 539.8564877927872 4082.9 540.4910149956625 4061.54 541.9583591523113 4040.18 542.5532284050068 4018.8199999999997 543.9015987111167 3997.46 544.0205725616557 3976.1 544.8930474656091 3954.74 545.9241541702813 3933.38 547.2328665262114 3912.02 547.9467096294461 3890.66 548.5812368323212 3869.3 549.8502912380716 3847.94 550.6831081918453 3826.58 551.5952410459785 3805.2200000000003 552.5866898004709 3783.86 553.379848804065 3762.5 554.1333498574793 3741.14 555.0058247614327 3719.7799999999997 555.4024042632296 3698.42 556.3938530177222 3677.06 557.7025653736523 3655.7 558.2974346263477 3634.34 559.4475151815591 3612.98 560.7958854876689 3591.62 562.4218614450366 3570.26 563.5322840500683 3548.9 564.6030487049201 3527.54 565.5151815590532 3506.18 566.347998512827 3484.82 567.2997893171397 3463.46 568.1722642210931 3442.1 569.639608377742 3420.74 570.2741355806172 3399.38 570.9086627834924 3378.02 571.6621638369068 3356.66 572.7329284917586 3335.3 573.8433510967902 3313.94 574.7158260007436 3292.58 575.2710373032594 3271.22 576.1831701573925 3249.86 577.5315404635023 3228.5 578.1264097161978 3228.5 1038Z" fill="#005aa6" opacity="0.9" />
		</g>
		<g>
			<path d="M3228.5 578.1264097161978 3249.86 577.5315404635023 3271.22 576.1831701573925 3292.58 575.2710373032594 3313.94 574.7158260007436 3335.3 573.8433510967902 3356.66 572.7329284917586 3378.02 571.6621638369068 3399.38 570.9086627834924 3420.74 570.2741355806172 3442.1 569.639608377742 3463.46 568.1722642210931 3484.82 567.2997893171397 3506.18 566.347998512827 3527.54 565.5151815590532 3548.9 564.6030487049201 3570.26 563.5322840500683 3591.62 562.4218614450366 3612.98 560.7958854876689 3634.34 559.4475151815591 3655.7 558.2974346263477 3677.06 557.7025653736523 3698.42 556.3938530177222 3719.7799999999997 555.4024042632296 3741.14 555.0058247614327 3762.5 554.1333498574793 3783.86 553.379848804065 3805.2200000000003 552.5866898004709 3826.58 551.5952410459785 3847.94 550.6831081918453 3869.3 549.8502912380716 3890.66 548.5812368323212 3912.02 547.9467096294461 3933.38 547.2328665262114 3954.74 545.9241541702813 3976.1 544.8930474656091 3997.46 544.0205725616557 4018.8199999999997 543.9015987111167 4040.18 542.5532284050068 4061.54 541.9583591523113 4082.9 540.4910149956625 4104.26 539.8564877927872 4125.62 538.7460651877557 4146.98 538.4288015863181 4168.34 536.7631676787706 4189.7 535.4941132730203 4211.0599999999995 534.463006568348 4232.42 533.9077952658322 4253.78 533.4318998636759 4275.139999999999 533.273268062957 4296.5 532.4404511091833 4296.5 398 4275.139999999999 398.99144875449247 4253.78 399.1897385053911 4232.42 399.7449498079068 4211.0599999999995 400.30016111042255 4189.7 401.6485314165325 4168.34 403.15553352336104 4146.98 405.01945718180696 4125.62 405.61432643450246 4104.26 406.9626967406123 4082.9 407.7161977940266 4061.54 409.3421737513943 4040.18 410.13533275498827 4018.8199999999997 411.64233486181683 3997.46 411.80096666253564 3976.1 412.9510472177469 3954.74 414.10112777295825 3933.38 415.6081298797868 3912.02 416.4806047837403 3890.66 417.27376378733425 3869.3 418.622134093444 3847.94 419.65324079811626 3826.58 420.6446895526088 3805.2200000000003 421.99305985871854 3783.86 422.865534762672 3762.5 423.8569835171645 3741.14 424.848432271657 3719.7799999999997 425.5226174247118 3698.42 426.831329780642 3677.06 428.33833188747064 3655.7 429.0521749907051 3634.34 430.3212293964556 3612.98 431.7885735531045 3591.62 433.96976081298806 3570.26 435.27847316891814 3548.9 436.5871855248482 3527.54 437.6579501797001 3506.18 438.609740984013 3484.82 439.7598215392242 3463.46 440.7909282438964 3442.1 442.4565621514438 3420.74 443.28937910521756 3399.38 444.00322220845214 3378.02 444.8756971124056 3356.66 446.26372536869496 3335.3 447.49312182426576 3313.94 448.4845705787583 3292.58 449.2777295823522 3271.22 450.42781013756354 3249.86 451.93481224439216 3228.5 452.6883132978065 3228.5 578.1264097161978Z" fill="#e62d39" opacity="0.9" />
		</g>
		<g>
			<rect x="4372" y="431" width="22.9995" height="23" fill="#005aa6" />
		</g>
		<g>
			<text fill="#595959" font-family="Verdana,Open Sans,DejaVu Sans,sans-serif" font-weight="400" font-size="41" transform="matrix(1 0 0 1 4404.56 454)">Web Browser</text>
		</g>
		<g>
			<rect x="4372" y="508" width="22.9995" height="23" fill="#e62d39" />
		</g>
		<g>
			<text fill="#595959" font-family="Verdana,Open Sans,DejaVu Sans,sans-serif" font-weight="400" font-size="41" transform="matrix(1 0 0 1 4404.56 531)">App</text>
		</g>
	</g>
</svg>
