<svg width="1763" height="1046"
    xmlns="http://www.w3.org/2000/svg"
	xmlns:xlink="http://www.w3.org/1999/xlink" xml:space="preserve" overflow="hidden">
	<defs>
		<clipPath id="clip0">
			<rect x="2917" y="346" width="1763" height="1046"/>
		</clipPath>
	</defs>
	<g clip-path="url(#clip0)" transform="translate(-2917 -346)">
		<rect x="2918" y="347" width="1760" height="1043" fill="#FFFFFF" />
		<g>
			<path d="
			M3228.5 974.532 4296.5 974.532
			M3228.5 910.53 4296.5 910.53
			M3228.5 846.528 4296.5 846.528
			M3228.5 781.526 4296.5 781.526
			M3228.5 717.524 4296.5 717.524
			M3228.5 653.522 4296.5 653.522
			M3228.5 589.52 4296.5 589.52
			M3228.5 525.517 4296.5 525.517
			M3228.5 461.515 4296.5 461.515
			M3228.5 397.5 4296.5 397.5" stroke="#D9D9D9" stroke-width="3.4375" stroke-linejoin="round" stroke-miterlimit="10" fill="none" />
		</g>
		<g>
			<path d="M 1038.5 4296.5 1038.5" stroke="#D9D9D9" stroke-width="3.4375" stroke-linejoin="round" stroke-miterlimit="10" fill="none" fill-rule="evenodd" />
		</g>
		<g>
			<text fill="#595959" font-family="Verdana,sans-serif" font-weight="400" font-size="41" transform="matrix(6.12323e-17 -1 1 6.12323e-17 3244 1207)">15-Jan</text>
		</g>
		<g>
			<text fill="#595959" font-family="Verdana,sans-serif" font-weight="400" font-size="41" transform="matrix(6.12323e-17 -1 1 6.12323e-17 3329.94 1214)">12-Feb</text>
		</g>
		<g>
			<text fill="#595959" font-family="Verdana,sans-serif" font-weight="400" font-size="41" transform="matrix(6.12323e-17 -1 1 6.12323e-17 3414.88 1221)">11-Mar</text>
		</g>
		<g>
			<text fill="#595959" font-family="Verdana,sans-serif" font-weight="400" font-size="41" transform="matrix(6.12323e-17 -1 1 6.12323e-17 3504.32 1217)">08-Apr</text>
		</g>
		<g>
			<text fill="#595959" font-family="Verdana,sans-serif" font-weight="400" font-size="41" transform="matrix(6.12323e-17 -1 1 6.12323e-17 3589.76 1228)">06-May</text>
		</g>
		<g>
			<text fill="#595959" font-family="Verdana,sans-serif" font-weight="400" font-size="41" transform="matrix(6.12323e-17 -1 1 6.12323e-17 3671.7 1211)">03-Jun</text>
		</g>
		<g>
			<text fill="#595959" font-family="Verdana,sans-serif" font-weight="400" font-size="41" transform="matrix(6.12323e-17 -1 1 6.12323e-17 3757.14 1197)">01-Jul</text>
		</g>
		<g>
			<text fill="#595959" font-family="Verdana,sans-serif" font-weight="400" font-size="41" transform="matrix(6.12323e-17 -1 1 6.12323e-17 3842.58 1196)">29-Jul</text>
		</g>
		<g>
			<text fill="#595959" font-family="Verdana,sans-serif" font-weight="400" font-size="41" transform="matrix(6.12323e-17 -1 1 6.12323e-17 3931.52 1221)">26-Aug</text>
		</g>
		<g>
			<text fill="#595959" font-family="Verdana,sans-serif" font-weight="400" font-size="41" transform="matrix(6.12323e-17 -1 1 6.12323e-17 4016.96 1221)">23-Sep</text>
		</g>
		<g>
			<text fill="#595959" font-family="Verdana,sans-serif" font-weight="400" font-size="41" transform="matrix(6.12323e-17 -1 1 6.12323e-17 4098.9 1215)">21-Oct</text>
		</g>
		<g>
			<text fill="#595959" font-family="Verdana,sans-serif" font-weight="400" font-size="41" transform="matrix(6.12323e-17 -1 1 6.12323e-17 4184.34 1222)">18-Nov</text>
		</g>
		<g>
			<text fill="#595959" font-family="Verdana,sans-serif" font-weight="400" font-size="41" transform="matrix(6.12323e-17 -1 1 6.12323e-17 4269.78 1222)">23-Dec</text>
		</g>
		<g>
			<text fill="#595959" font-family="Verdana,sans-serif" font-weight="400" font-size="41" transform="matrix(1 0 0 1 3167.5 1050)">0</text>
		</g>
		<g>
			<text fill="#595959" font-family="Verdana,sans-serif" font-weight="400" font-size="41" transform="matrix(1 0 0 1 3074.5 922)">2,940</text>
		</g>
		<g>
			<text fill="#595959" font-family="Verdana,sans-serif" font-weight="400" font-size="41" transform="matrix(1 0 0 1 3075.5 794)">5,879</text>
		</g>
		<g>
			<text fill="#595959" font-family="Verdana,sans-serif" font-weight="400" font-size="41" transform="matrix(1 0 0 1 3073.5 666)">8,819</text>
		</g>
		<g>
			<text fill="#595959" font-family="Verdana,sans-serif" font-weight="400" font-size="41" transform="matrix(1 0 0 1 3050.5 538)">11,758</text>
		</g>
		<g>
			<text fill="#595959" font-family="Verdana,sans-serif" font-weight="400" font-size="41" transform="matrix(1 0 0 1 3050.5 410)">14,698</text>
		</g>
		<g>
			<text fill="#595959" font-family="Verdana,sans-serif" font-weight="400" font-size="41" transform="matrix(1 0 0 1 3544.5 1321)">Week Commencing</text>
		</g>
		<g>
			<text fill="#595959" font-family="Verdana,sans-serif" font-weight="400" font-size="46" transform="matrix(6.12323e-17 -1 1 6.12323e-17 3019.73 1030.75)">Number of Browser Profiles</text>
		</g>
		<rect x="2918.5" y="347.5" width="1760" height="1043" stroke="#D9D9D9" stroke-width="3.4375" stroke-linejoin="round" stroke-miterlimit="10" fill="none" />
		<g>
			<path d="M3228.5 1038 3249.86 1038 3271.22 1038 3292.58 1038 3313.94 1038 3335.3 1038 3356.66 1038 3378.02 1038 3399.38 1038 3420.74 1038 3442.1 1038 3463.46 1038 3484.82 1038 3506.18 1038 3527.54 1038 3548.9 1038 3570.26 1038 3591.62 1038 3612.98 1038 3634.34 1038 3655.7 1038 3677.06 1038 3698.42 1038 3719.7799999999997 1038 3741.14 1038 3762.5 1038 3783.86 1038 3805.2200000000003 1038 3826.58 1038 3847.94 1038 3869.3 1038 3890.66 1038 3912.02 1038 3933.38 1038 3954.74 1038 3976.1 1038 3997.46 1038 4018.8199999999997 1038 4040.18 1038 4061.54 1038 4082.9 1038 4104.26 1038 4125.62 1038 4146.98 1038 4168.34 1038 4189.7 1038 4211.0599999999995 1038 4232.42 1038 4253.78 1038 4275.139999999999 1038 4296.5 1038 4296.5 535.1179752347259 4275.139999999999 535.6404953054837 4253.78 535.9452986800925 4232.42 536.9467954823785 4211.0599999999995 537.6870322492857 4189.7 539.3416791400191 4168.34 540.4302626207648 4146.98 541.0834127092121 4125.62 541.7365627976596 4104.26 542.6945162607158 4082.9 543.4782963668526 4061.54 544.2185331337597 4040.18 545.132943257586 4018.8199999999997 546.5263301129405 3997.46 546.9617635052389 3976.1 548.0938903252143 3954.74 549.0518437882706 3933.38 549.7049938767179 3912.02 550.6629473397741 3890.66 551.2290107497619 3869.3 551.8386174989795 3847.94 552.7965709620357 3826.58 553.6238944074024 3805.2200000000003 554.4076745135393 3783.86 554.9737379235271 3762.5 555.4091713158252 3741.14 555.8446047081236 3719.7799999999997 556.8896448496394 3698.42 557.6298816165465 3677.06 558.3701183834535 3655.7 559.5022452034291 3634.34 560.5908286841748 3612.98 561.5923254864608 3591.62 562.0713022179889 3570.26 562.6373656279766 3548.9 563.3340590556538 3527.54 564.6403592325487 3506.18 565.816029391754 3484.82 566.9916995509593 3463.46 568.4286297455436 3442.1 569.5172132262893 3420.74 570.5187100285754 3399.38 571.5637501700912 3378.02 572.9135936862158 3356.66 575.1343039869371 3335.3 575.5697373792352 3313.94 575.918084093074 3292.58 577.7904476799565 3271.22 579.7063546060689 3249.86 580.2288746768268 3228.5 581.0126547829636 3228.5 1038Z" fill="#e62d39" opacity="0.9" />
		</g>
		<g>
			<path d="M3228.5 581.0126547829636 3249.86 580.2288746768268 3271.22 579.7063546060689 3292.58 577.7904476799565 3313.94 575.918084093074 3335.3 575.5697373792352 3356.66 575.1343039869371 3378.02 572.9135936862158 3399.38 571.5637501700912 3420.74 570.5187100285754 3442.1 569.5172132262893 3463.46 568.4286297455436 3484.82 566.9916995509593 3506.18 565.816029391754 3527.54 564.6403592325487 3548.9 563.3340590556538 3570.26 562.6373656279766 3591.62 562.0713022179889 3612.98 561.5923254864608 3634.34 560.5908286841748 3655.7 559.5022452034291 3677.06 558.3701183834535 3698.42 557.6298816165465 3719.7799999999997 556.8896448496394 3741.14 555.8446047081236 3762.5 555.4091713158252 3783.86 554.9737379235271 3805.2200000000003 554.4076745135393 3826.58 553.6238944074024 3847.94 552.7965709620357 3869.3 551.8386174989795 3890.66 551.2290107497619 3912.02 550.6629473397741 3933.38 549.7049938767179 3954.74 549.0518437882706 3976.1 548.0938903252143 3997.46 546.9617635052389 4018.8199999999997 546.5263301129405 4040.18 545.132943257586 4061.54 544.2185331337597 4082.9 543.4782963668526 4104.26 542.6945162607158 4125.62 541.7365627976596 4146.98 541.0834127092121 4168.34 540.4302626207648 4189.7 539.3416791400191 4211.0599999999995 537.6870322492857 4232.42 536.9467954823785 4253.78 535.9452986800925 4275.139999999999 535.6404953054837 4296.5 535.1179752347259 4296.5 398.0000000000001 4275.139999999999 398.5660634099877 4253.78 398.8708667845965 4232.42 400.04653694380187 4211.0599999999995 401.00449040685817 4189.7 402.96394067220035 4168.34 404.31378418832503 4146.98 405.1846509729214 4125.62 406.6215811675059 4104.26 407.79725132671115 4082.9 408.75520478976733 4061.54 409.6696149135937 4040.18 410.71465505510946 4018.8199999999997 412.2386719281535 3997.46 412.8482786773711 3976.1 414.2852088719553 3954.74 415.4608790311608 3933.38 416.28820247652743 3912.02 417.46387263573274 3890.66 418.1170227241802 3869.3 419.0314328480066 3847.94 420.0764729895225 3826.58 421.07796979180847 3805.2200000000003 421.99237991563484 3783.86 422.55844332562265 3762.5 423.0809633963804 3741.14 423.8212001632876 3719.7799999999997 425.0404136617226 3698.42 425.95482378554914 3677.06 426.9127772486052 3655.7 428.3497074431896 3634.34 429.65600762008444 3612.98 430.78813444005993 3591.62 431.44128452850737 3570.26 432.1379779561845 3548.9 432.96530140155124 3527.54 434.48931827459523 3506.18 435.88270512994967 3484.82 437.2760919853041 3463.46 438.9742822152674 3442.1 440.2805823921622 3420.74 441.89168594366583 3399.38 443.45924615593964 3378.02 444.8526330112941 3356.66 447.3346033473943 3335.3 447.81358007892226 3313.94 448.3361001496803 3292.58 450.46972377194186 3271.22 452.51626071574367 3249.86 453.16941080419105 3228.5 454.17090760647704 3228.5 581.0126547829636Z" fill="#005aa6" opacity="0.9" />
		</g>
		<g>
			<rect x="4372" y="431" width="22.9995" height="23" fill="#e62d39" />
		</g>
		<g>
			<text fill="#595959" font-family="Verdana,sans-serif" font-weight="400" font-size="41" transform="matrix(1 0 0 1 4404.56 454)">Web Browser</text>
		</g>
		<g>
			<rect x="4372" y="508" width="22.9995" height="23" fill="#005aa6" />
		</g>
		<g>
			<text fill="#595959" font-family="Verdana,sans-serif" font-weight="400" font-size="41" transform="matrix(1 0 0 1 4404.56 531)">App</text>
		</g>
	</g>
</svg>
