<svg width="1763" height="1046"
    xmlns="http://www.w3.org/2000/svg"
	xmlns:xlink="http://www.w3.org/1999/xlink" xml:space="preserve" overflow="hidden">
	<defs>
		<clipPath id="clip0">
			<rect x="2917" y="346" width="1763" height="1046"/>
		</clipPath>
	</defs>
	<g clip-path="url(#clip0)" transform="translate(-2917 -346)">
		<rect x="2918" y="347" width="1760" height="1043" fill="#FFFFFF" />
		<g>
			<path d="
			M3228.5 974.532 4296.5 974.532
			M3228.5 910.53 4296.5 910.53
			M3228.5 846.528 4296.5 846.528
			M3228.5 781.526 4296.5 781.526
			M3228.5 717.524 4296.5 717.524
			M3228.5 653.522 4296.5 653.522
			M3228.5 589.52 4296.5 589.52
			M3228.5 525.517 4296.5 525.517
			M3228.5 461.515 4296.5 461.515
			M3228.5 397.5 4296.5 397.5" stroke="#D9D9D9" stroke-width="3.4375" stroke-linejoin="round" stroke-miterlimit="10" fill="none" />
		</g>
		<g>
			<path d="M 1038.5 4296.5 1038.5" stroke="#D9D9D9" stroke-width="3.4375" stroke-linejoin="round" stroke-miterlimit="10" fill="none" fill-rule="evenodd" />
		</g>
		<g>
			<text fill="#595959" font-family="Verdana,Open Sans,DejaVu Sans,sans-serif" font-weight="400" font-size="41" transform="matrix(6.12323e-17 -1 1 6.12323e-17 3247.21826171875 1194.0131759643555)">09-Jun</text>
		</g>
		<g>
			<text fill="#595959" font-family="Verdana,Open Sans,DejaVu Sans,sans-serif" font-weight="400" font-size="41" transform="matrix(6.12323e-17 -1 1 6.12323e-17 3333.368955078125 1178.9985275268555)">07-Jul</text>
		</g>
		<g>
			<text fill="#595959" font-family="Verdana,Open Sans,DejaVu Sans,sans-serif" font-weight="400" font-size="41" transform="matrix(6.12323e-17 -1 1 6.12323e-17 3419.169306640625 1208.62744140625)">04-Aug</text>
		</g>
		<g>
			<text fill="#595959" font-family="Verdana,Open Sans,DejaVu Sans,sans-serif" font-weight="400" font-size="41" transform="matrix(6.12323e-17 -1 1 6.12323e-17 3504.609306640625 1204.38330078125)">01-Sep</text>
		</g>
		<g>
			<text fill="#595959" font-family="Verdana,Open Sans,DejaVu Sans,sans-serif" font-weight="400" font-size="41" transform="matrix(6.12323e-17 -1 1 6.12323e-17 3590.029287109375 1204.42333984375)">29-Sep</text>
		</g>
		<g>
			<text fill="#595959" font-family="Verdana,Open Sans,DejaVu Sans,sans-serif" font-weight="400" font-size="41" transform="matrix(6.12323e-17 -1 1 6.12323e-17 3670.764697265625 1201.1401290893555)">27-Oct</text>
		</g>
		<g>
			<text fill="#595959" font-family="Verdana,Open Sans,DejaVu Sans,sans-serif" font-weight="400" font-size="41" transform="matrix(6.12323e-17 -1 1 6.12323e-17 3756.184677734375 1211.47021484375)">24-Nov</text>
		</g>
		<g>
			<text fill="#595959" font-family="Verdana,Open Sans,DejaVu Sans,sans-serif" font-weight="400" font-size="41" transform="matrix(6.12323e-17 -1 1 6.12323e-17 3841.624677734375 1207.1259765625)">22-Dec</text>
		</g>
		<g>
			<text fill="#595959" font-family="Verdana,Open Sans,DejaVu Sans,sans-serif" font-weight="400" font-size="41" transform="matrix(6.12323e-17 -1 1 6.12323e-17 3930.7182421875 1189.9291915893555)">19-Jan</text>
		</g>
		<g>
			<text fill="#595959" font-family="Verdana,Open Sans,DejaVu Sans,sans-serif" font-weight="400" font-size="41" transform="matrix(6.12323e-17 -1 1 6.12323e-17 4013.235390625 1201.3203125)">16-Feb</text>
		</g>
		<g>
			<text fill="#595959" font-family="Verdana,Open Sans,DejaVu Sans,sans-serif" font-weight="400" font-size="41" transform="matrix(6.12323e-17 -1 1 6.12323e-17 4097.944677734375 1210.2890625)">16-Mar</text>
		</g>
		<g>
			<text fill="#595959" font-family="Verdana,Open Sans,DejaVu Sans,sans-serif" font-weight="400" font-size="41" transform="matrix(6.12323e-17 -1 1 6.12323e-17 4188.109287109375 1201.5405197143555)">13-Apr</text>
		</g>
		<g>
			<text fill="#595959" font-family="Verdana,Open Sans,DejaVu Sans,sans-serif" font-weight="400" font-size="41" transform="matrix(6.12323e-17 -1 1 6.12323e-17 4273.33908203125 1214.75341796875)">11-May</text>
		</g>
		<g>
			<text fill="#595959" font-family="Verdana,Open Sans,DejaVu Sans,sans-serif" font-weight="400" font-size="41" transform="matrix(1 0 0 1 3169.14111328125 1050)">0</text>
		</g>
		<g>
			<text fill="#595959" font-family="Verdana,Open Sans,DejaVu Sans,sans-serif" font-weight="400" font-size="41" transform="matrix(1 0 0 1 3088.6826171875 922)">3,338</text>
		</g>
		<g>
			<text fill="#595959" font-family="Verdana,Open Sans,DejaVu Sans,sans-serif" font-weight="400" font-size="41" transform="matrix(1 0 0 1 3089.02294921875 794)">6,676</text>
		</g>
		<g>
			<text fill="#595959" font-family="Verdana,Open Sans,DejaVu Sans,sans-serif" font-weight="400" font-size="41" transform="matrix(1 0 0 1 3065.8203201293945 666)">10,014</text>
		</g>
		<g>
			<text fill="#595959" font-family="Verdana,Open Sans,DejaVu Sans,sans-serif" font-weight="400" font-size="41" transform="matrix(1 0 0 1 3067.2016677856445 538)">13,352</text>
		</g>
		<g>
			<text fill="#595959" font-family="Verdana,Open Sans,DejaVu Sans,sans-serif" font-weight="400" font-size="41" transform="matrix(1 0 0 1 3067.0415115356445 410)">16,690</text>
		</g>
		<g>
			<text fill="#595959" font-family="Verdana,Open Sans,DejaVu Sans,sans-serif" font-weight="400" font-size="41" transform="matrix(1 0 0 1 3556.97119140625 1321)">Week Commencing</text>
		</g>
		<g>
			<text fill="#595959" font-family="Verdana,Open Sans,DejaVu Sans,sans-serif" font-weight="400" font-size="46" transform="matrix(6.12323e-17 -1 1 6.12323e-17 3019.73 1011.673828125)">Number of Browser Profiles</text>
		</g>
		<rect x="2918.5" y="347.5" width="1760" height="1043" stroke="#D9D9D9" stroke-width="3.4375" stroke-linejoin="round" stroke-miterlimit="10" fill="none" />
		<g>
			<path d="M3228.5 1038 3249.86 1038 3271.22 1038 3292.58 1038 3313.94 1038 3335.3 1038 3356.66 1038 3378.02 1038 3399.38 1038 3420.74 1038 3442.1 1038 3463.46 1038 3484.82 1038 3506.18 1038 3527.54 1038 3548.9 1038 3570.26 1038 3591.62 1038 3612.98 1038 3634.34 1038 3655.7 1038 3677.06 1038 3698.42 1038 3719.7799999999997 1038 3741.14 1038 3762.5 1038 3783.86 1038 3805.2200000000003 1038 3826.58 1038 3847.94 1038 3869.3 1038 3890.66 1038 3912.02 1038 3933.38 1038 3954.74 1038 3976.1 1038 3997.46 1038 4018.8199999999997 1038 4040.18 1038 4061.54 1038 4082.9 1038 4104.26 1038 4125.62 1038 4146.98 1038 4168.34 1038 4189.7 1038 4211.0599999999995 1038 4232.42 1038 4253.78 1038 4275.139999999999 1038 4296.5 1038 4296.5 533.0940683043739 4275.139999999999 533.6692630317555 4253.78 534.8579988016777 4232.42 535.4331935290593 4211.0599999999995 536.2384661473936 4189.7 537.3121629718394 4168.34 538.1557819053326 4146.98 539.1911324146195 4125.62 540.1881366087478 4104.26 541.1851408028759 4082.9 542.6806470940683 4061.54 543.4092270820851 4040.18 544.3295386458958 4018.8199999999997 544.981426003595 3997.46 546.0934691431995 3976.1 547.0904733373277 3954.74 547.6273217495507 3933.38 548.432594367885 3912.02 549.1611743559017 3890.66 549.9664469742361 3869.3 550.1198322348712 3847.94 550.5799880167765 3826.58 551.1168364289994 3805.2200000000003 552.1138406231275 3783.86 553.3409227082085 3762.5 554.9514679448771 3741.14 555.2582384661473 3719.7799999999997 556.3319352905932 3698.42 556.9454763331337 3677.06 558.3642899940085 3655.7 558.93948472139 3634.34 560.2432594367885 3612.98 560.3582983822648 3591.62 561.201917315758 3570.26 562.1989215098861 3548.9 563.4643499101257 3527.54 564.1545835829838 3506.18 564.7681246255243 3484.82 565.9952067106051 3463.46 566.8004793289394 3442.1 567.6824445775914 3420.74 568.6411024565608 3399.38 569.4080287597363 3378.02 570.1366087477531 3356.66 570.9802276812462 3335.3 571.363690832834 3313.94 572.3223487118034 3292.58 573.5877771120431 3271.22 574.1629718394248 3249.86 575.2750149790293 3228.5 576.5787896944278 3228.5 1038Z" fill="#005aa6" opacity="0.9" />
		</g>
		<g>
			<path d="M3228.5 576.5787896944278 3249.86 575.2750149790293 3271.22 574.1629718394248 3292.58 573.5877771120431 3313.94 572.3223487118034 3335.3 571.363690832834 3356.66 570.9802276812462 3378.02 570.1366087477531 3399.38 569.4080287597363 3420.74 568.6411024565608 3442.1 567.6824445775914 3463.46 566.8004793289394 3484.82 565.9952067106051 3506.18 564.7681246255243 3527.54 564.1545835829838 3548.9 563.4643499101257 3570.26 562.1989215098861 3591.62 561.201917315758 3612.98 560.3582983822648 3634.34 560.2432594367885 3655.7 558.93948472139 3677.06 558.3642899940085 3698.42 556.9454763331337 3719.7799999999997 556.3319352905932 3741.14 555.2582384661473 3762.5 554.9514679448771 3783.86 553.3409227082085 3805.2200000000003 552.1138406231275 3826.58 551.1168364289994 3847.94 550.5799880167765 3869.3 550.1198322348712 3890.66 549.9664469742361 3912.02 549.1611743559017 3933.38 548.432594367885 3954.74 547.6273217495507 3976.1 547.0904733373277 3997.46 546.0934691431995 4018.8199999999997 544.981426003595 4040.18 544.3295386458958 4061.54 543.4092270820851 4082.9 542.6806470940683 4104.26 541.1851408028759 4125.62 540.1881366087478 4146.98 539.1911324146195 4168.34 538.1557819053326 4189.7 537.3121629718394 4211.0599999999995 536.2384661473936 4232.42 535.4331935290593 4253.78 534.8579988016777 4275.139999999999 533.6692630317555 4296.5 533.0940683043739 4296.5 398 4275.139999999999 398.92031156381057 4253.78 400.3007789095267 4232.42 401.29778310365487 4211.0599999999995 402.2564409826243 4189.7 403.5985620131815 4168.34 404.63391252246856 4146.98 405.93768723786695 4125.62 407.12642300778907 4104.26 408.39185140802874 4082.9 410.3091671659676 4061.54 411.1911324146195 4040.18 412.41821449970047 4018.8199999999997 413.4535650089874 3997.46 414.8723786698622 3976.1 416.06111443978426 3954.74 416.7896944278011 3933.38 418.361893349311 3912.02 419.16716596764525 3890.66 420.1258238466147 3869.3 420.31755542240865 3847.94 420.8544038346315 3826.58 421.3912522468544 3805.2200000000003 422.69502696225277 3783.86 424.1521869382864 3762.5 425.95446375074886 3741.14 426.5296584781305 3719.7799999999997 427.833433193529 3698.42 428.5620131815459 3677.06 430.1342121030558 3655.7 430.90113840623127 3634.34 432.3582983822649 3612.98 432.5116836428999 3591.62 433.62372678250455 3570.26 434.73576992210894 3548.9 436.19292989814255 3527.54 437.03654883163574 3506.18 437.80347513481126 3484.82 439.10724985020966 3463.46 440.1042540443379 3442.1 441.06291192330735 3420.74 442.3666866387058 3399.38 443.2103055721989 3378.02 444.16896345116834 3356.66 445.1276213301378 3335.3 445.779508687837 3313.94 447.04493708807667 3292.58 448.5020970641102 3271.22 449.19233073696824 3249.86 450.419412822049 3228.5 451.83822648292386 3228.5 576.5787896944278Z" fill="#e62d39" opacity="0.9" />
		</g>
		<g>
			<rect x="4372" y="431" width="22.9995" height="23" fill="#005aa6" />
		</g>
		<g>
			<text fill="#595959" font-family="Verdana,Open Sans,DejaVu Sans,sans-serif" font-weight="400" font-size="41" transform="matrix(1 0 0 1 4404.56 454)">Web Browser</text>
		</g>
		<g>
			<rect x="4372" y="508" width="22.9995" height="23" fill="#e62d39" />
		</g>
		<g>
			<text fill="#595959" font-family="Verdana,Open Sans,DejaVu Sans,sans-serif" font-weight="400" font-size="41" transform="matrix(1 0 0 1 4404.56 531)">App</text>
		</g>
	</g>
</svg>
