<svg width="1763" height="1046"
    xmlns="http://www.w3.org/2000/svg"
	xmlns:xlink="http://www.w3.org/1999/xlink" xml:space="preserve" overflow="hidden">
	<defs>
		<clipPath id="clip0">
			<rect x="2917" y="346" width="1763" height="1046"/>
		</clipPath>
	</defs>
	<g clip-path="url(#clip0)" transform="translate(-2917 -346)">
		<rect x="2918" y="347" width="1760" height="1043" fill="#FFFFFF" />
		<g>
			<path d="
			M3228.5 974.532 4296.5 974.532
			M3228.5 910.53 4296.5 910.53
			M3228.5 846.528 4296.5 846.528
			M3228.5 781.526 4296.5 781.526
			M3228.5 717.524 4296.5 717.524
			M3228.5 653.522 4296.5 653.522
			M3228.5 589.52 4296.5 589.52
			M3228.5 525.517 4296.5 525.517
			M3228.5 461.515 4296.5 461.515
			M3228.5 397.5 4296.5 397.5" stroke="#D9D9D9" stroke-width="3.4375" stroke-linejoin="round" stroke-miterlimit="10" fill="none" />
		</g>
		<g>
			<path d="M 1038.5 4296.5 1038.5" stroke="#D9D9D9" stroke-width="3.4375" stroke-linejoin="round" stroke-miterlimit="10" fill="none" fill-rule="evenodd" />
		</g>
		<g>
			<text fill="#595959" font-family="Verdana,sans-serif" font-weight="400" font-size="41" transform="matrix(6.12323e-17 -1 1 6.12323e-17 3244.5 1214)">19-Feb</text>
		</g>
		<g>
			<text fill="#595959" font-family="Verdana,sans-serif" font-weight="400" font-size="41" transform="matrix(6.12323e-17 -1 1 6.12323e-17 3328.264705882353 1221)">18-Mar</text>
		</g>
		<g>
			<text fill="#595959" font-family="Verdana,sans-serif" font-weight="400" font-size="41" transform="matrix(6.12323e-17 -1 1 6.12323e-17 3415.529411764706 1214)">15-Apr</text>
		</g>
		<g>
			<text fill="#595959" font-family="Verdana,sans-serif" font-weight="400" font-size="41" transform="matrix(6.12323e-17 -1 1 6.12323e-17 3499.294117647059 1226)">13-May</text>
		</g>
		<g>
			<text fill="#595959" font-family="Verdana,sans-serif" font-weight="400" font-size="41" transform="matrix(6.12323e-17 -1 1 6.12323e-17 3579.5588235294117 1209)">10-Jun</text>
		</g>
		<g>
			<text fill="#595959" font-family="Verdana,sans-serif" font-weight="400" font-size="41" transform="matrix(6.12323e-17 -1 1 6.12323e-17 3663.323529411765 1197)">08-Jul</text>
		</g>
		<g>
			<text fill="#595959" font-family="Verdana,sans-serif" font-weight="400" font-size="41" transform="matrix(6.12323e-17 -1 1 6.12323e-17 3750.5882352941176 1221)">05-Aug</text>
		</g>
		<g>
			<text fill="#595959" font-family="Verdana,sans-serif" font-weight="400" font-size="41" transform="matrix(6.12323e-17 -1 1 6.12323e-17 3834.3529411764707 1222)">02-Sep</text>
		</g>
		<g>
			<text fill="#595959" font-family="Verdana,sans-serif" font-weight="400" font-size="41" transform="matrix(6.12323e-17 -1 1 6.12323e-17 3918.1176470588234 1221)">30-Sep</text>
		</g>
		<g>
			<text fill="#595959" font-family="Verdana,sans-serif" font-weight="400" font-size="41" transform="matrix(6.12323e-17 -1 1 6.12323e-17 3998.3823529411766 1215)">28-Oct</text>
		</g>
		<g>
			<text fill="#595959" font-family="Verdana,sans-serif" font-weight="400" font-size="41" transform="matrix(6.12323e-17 -1 1 6.12323e-17 4082.1470588235293 1224)">25-Nov</text>
		</g>
		<g>
			<text fill="#595959" font-family="Verdana,sans-serif" font-weight="400" font-size="41" transform="matrix(6.12323e-17 -1 1 6.12323e-17 4165.911764705882 1222)">30-Dec</text>
		</g>
		<g>
			<text fill="#595959" font-family="Verdana,sans-serif" font-weight="400" font-size="41" transform="matrix(6.12323e-17 -1 1 6.12323e-17 4249.676470588235 1210)">27-Jan</text>
		</g>
		<g>
			<text fill="#595959" font-family="Verdana,sans-serif" font-weight="400" font-size="41" transform="matrix(1 0 0 1 3167.5 1050)">0</text>
		</g>
		<g>
			<text fill="#595959" font-family="Verdana,sans-serif" font-weight="400" font-size="41" transform="matrix(1 0 0 1 3074.5 922)">2,969</text>
		</g>
		<g>
			<text fill="#595959" font-family="Verdana,sans-serif" font-weight="400" font-size="41" transform="matrix(1 0 0 1 3075.5 794)">5,938</text>
		</g>
		<g>
			<text fill="#595959" font-family="Verdana,sans-serif" font-weight="400" font-size="41" transform="matrix(1 0 0 1 3073.5 666)">8,907</text>
		</g>
		<g>
			<text fill="#595959" font-family="Verdana,sans-serif" font-weight="400" font-size="41" transform="matrix(1 0 0 1 3050.5 538)">11,876</text>
		</g>
		<g>
			<text fill="#595959" font-family="Verdana,sans-serif" font-weight="400" font-size="41" transform="matrix(1 0 0 1 3051.5 410)">14,845</text>
		</g>
		<g>
			<text fill="#595959" font-family="Verdana,sans-serif" font-weight="400" font-size="41" transform="matrix(1 0 0 1 3544.5 1321)">Week Commencing</text>
		</g>
		<g>
			<text fill="#595959" font-family="Verdana,sans-serif" font-weight="400" font-size="46" transform="matrix(6.12323e-17 -1 1 6.12323e-17 3019.73 1030.75)">Number of Browser Profiles</text>
		</g>
		<rect x="2918.5" y="347.5" width="1760" height="1043" stroke="#D9D9D9" stroke-width="3.4375" stroke-linejoin="round" stroke-miterlimit="10" fill="none" />
		<g>
			<path d="M3228.5 1038 3249.4411764705883 1038 3270.3823529411766 1038 3291.323529411765 1038 3312.264705882353 1038 3333.205882352941 1038 3354.1470588235293 1038 3375.0882352941176 1038 3396.029411764706 1038 3416.970588235294 1038 3437.9117647058824 1038 3458.8529411764707 1038 3479.794117647059 1038 3500.735294117647 1038 3521.676470588235 1038 3542.6176470588234 1038 3563.5588235294117 1038 3584.5 1038 3605.4411764705883 1038 3626.3823529411766 1038 3647.323529411765 1038 3668.264705882353 1038 3689.205882352941 1038 3710.1470588235293 1038 3731.0882352941176 1038 3752.029411764706 1038 3772.970588235294 1038 3793.9117647058824 1038 3814.8529411764707 1038 3835.7941176470586 1038 3856.735294117647 1038 3877.676470588235 1038 3898.6176470588234 1038 3919.5588235294117 1038 3940.5 1038 3961.4411764705883 1038 3982.3823529411766 1038 4003.323529411765 1038 4024.264705882353 1038 4045.2058823529414 1038 4066.1470588235293 1038 4087.0882352941176 1038 4108.029411764706 1038 4128.970588235294 1038 4149.911764705882 1038 4170.85294117647 1038 4191.794117647059 1038 4212.735294117647 1038 4233.676470588235 1038 4254.617647058823 1038 4275.558823529412 1038 4296.5 1038 4296.5 534.967329067026 4275.558823529412 535.9589087234759 4254.617647058823 537.4247221286628 4233.676470588235 538.0714045133042 4212.735294117647 538.8043112158975 4191.794117647059 539.3216571236106 4170.85294117647 540.0976759851802 4149.911764705882 540.6150218928933 4128.970588235294 540.9168070057258 4108.029411764706 541.9083866621759 4087.0882352941176 542.6412933647694 4066.1470588235293 544.2795554058605 4045.2058823529414 545.3573593802628 4024.264705882353 546.0040417649041 4003.323529411765 546.6507241495453 3982.3823529411766 547.5991916470192 3961.4411764705883 548.3752105085887 3940.5 549.1081172111822 3919.5588235294117 550.01347254968 3898.6176470588234 551.3930616369148 3877.676470588235 551.8241832266756 3856.735294117647 552.945099360054 3835.7941176470586 553.8935668575277 3814.8529411764707 554.540249242169 3793.9117647058824 555.488716739643 3772.970588235294 556.0491748063321 3752.029411764706 556.6527450319973 3731.0882352941176 557.6012125294712 3710.1470588235293 558.4203435500169 3689.205882352941 559.1963624115864 3668.264705882353 559.7568204782756 3647.323529411765 560.1879420680364 3626.3823529411766 560.6190636577973 3605.4411764705883 561.6537554732233 3584.5 562.3866621758168 3563.5588235294117 563.1195688784103 3542.6176470588234 564.2404850117885 3521.676470588235 565.3182889861906 3500.735294117647 566.3098686426406 3479.794117647059 566.7841023913776 3458.8529411764707 567.3445604580668 3437.9117647058824 568.0343550016842 3416.970588235294 569.3277197709667 3396.029411764706 570.491748063321 3375.0882352941176 571.6557763556752 3354.1470588235293 573.0784776018861 3333.205882352941 574.1562815762884 3312.264705882353 575.1478612327383 3291.323529411765 576.1825530481644 3270.3823529411766 577.5190299764231 3249.4411764705883 579.7177500842034 3228.5 580.1488716739643 3228.5 1038Z" fill="#e62d39" opacity="0.9" />
		</g>
		<g>
			<path d="M3228.5 580.1488716739643 3249.4411764705883 579.7177500842034 3270.3823529411766 577.5190299764231 3291.323529411765 576.1825530481644 3312.264705882353 575.1478612327383 3333.205882352941 574.1562815762884 3354.1470588235293 573.0784776018861 3375.0882352941176 571.6557763556752 3396.029411764706 570.491748063321 3416.970588235294 569.3277197709667 3437.9117647058824 568.0343550016842 3458.8529411764707 567.3445604580668 3479.794117647059 566.7841023913776 3500.735294117647 566.3098686426406 3521.676470588235 565.3182889861906 3542.6176470588234 564.2404850117885 3563.5588235294117 563.1195688784103 3584.5 562.3866621758168 3605.4411764705883 561.6537554732233 3626.3823529411766 560.6190636577973 3647.323529411765 560.1879420680364 3668.264705882353 559.7568204782756 3689.205882352941 559.1963624115864 3710.1470588235293 558.4203435500169 3731.0882352941176 557.6012125294712 3752.029411764706 556.6527450319973 3772.970588235294 556.0491748063321 3793.9117647058824 555.488716739643 3814.8529411764707 554.540249242169 3835.7941176470586 553.8935668575277 3856.735294117647 552.945099360054 3877.676470588235 551.8241832266756 3898.6176470588234 551.3930616369148 3919.5588235294117 550.01347254968 3940.5 549.1081172111822 3961.4411764705883 548.3752105085887 3982.3823529411766 547.5991916470192 4003.323529411765 546.6507241495453 4024.264705882353 546.0040417649041 4045.2058823529414 545.3573593802628 4066.1470588235293 544.2795554058605 4087.0882352941176 542.6412933647694 4108.029411764706 541.9083866621759 4128.970588235294 540.9168070057258 4149.911764705882 540.6150218928933 4170.85294117647 540.0976759851802 4191.794117647059 539.3216571236106 4212.735294117647 538.8043112158975 4233.676470588235 538.0714045133042 4254.617647058823 537.4247221286628 4275.558823529412 535.9589087234759 4296.5 534.967329067026 4296.5 398 4275.558823529412 399.2502526103065 4254.617647058823 400.8885146513977 4233.676470588235 401.70764567194345 4212.735294117647 402.69922532839337 4191.794117647059 403.43213203098685 4170.85294117647 404.33748736948473 4149.911764705882 404.89794543617387 4128.970588235294 405.19973054900635 4108.029411764706 406.3637588413608 4087.0882352941176 407.3122263388347 4066.1470588235293 409.25227349275843 4045.2058823529414 410.58875042101727 4024.264705882353 411.45099360053894 4003.323529411765 412.8736948467498 3982.3823529411766 414.03772313910406 3961.4411764705883 414.98619063657793 3940.5 415.8915459750757 3919.5588235294117 416.9262377905019 3898.6176470588234 418.4351633546649 3877.676470588235 419.03873358033 3856.735294117647 420.461434826541 3835.7941176470586 421.6254631188952 3814.8529411764707 422.4445941394408 3793.9117647058824 423.6086224317952 3772.970588235294 424.2553048164365 3752.029411764706 425.16066015493425 3731.0882352941176 426.19535197036043 3710.1470588235293 427.18693162681046 3689.205882352941 428.0922869653082 3668.264705882353 428.65274503199737 3647.323529411765 429.17009093971035 3626.3823529411766 429.90299764230383 3605.4411764705883 431.11013809363425 3584.5 432.0154934321321 3563.5588235294117 432.96396092960595 3542.6176470588234 434.38666217581675 3521.676470588235 435.68002694509937 3500.735294117647 436.8009430784776 3479.794117647059 437.4476254631189 3458.8529411764707 438.13742000673636 3437.9117647058824 438.956551027282 3416.970588235294 440.465476591445 3396.029411764706 441.8450656786797 3375.0882352941176 443.22465476591435 3354.1470588235293 444.90602896598176 3333.205882352941 446.1993937352645 3312.264705882353 447.79454361737953 3291.323529411765 449.34658134051875 3270.3823529411766 450.7261704277535 3249.4411764705883 453.1835634893904 3228.5 453.65779723812733 3228.5 580.1488716739643Z" fill="#005aa6" opacity="0.9" />
		</g>
		<g>
			<rect x="4372" y="431" width="22.9995" height="23" fill="#e62d39" />
		</g>
		<g>
			<text fill="#595959" font-family="Verdana,sans-serif" font-weight="400" font-size="41" transform="matrix(1 0 0 1 4404.56 454)">Web Browser</text>
		</g>
		<g>
			<rect x="4372" y="508" width="22.9995" height="23" fill="#005aa6" />
		</g>
		<g>
			<text fill="#595959" font-family="Verdana,sans-serif" font-weight="400" font-size="41" transform="matrix(1 0 0 1 4404.56 531)">App</text>
		</g>
	</g>
</svg>
