<svg width="1763" height="1046"
    xmlns="http://www.w3.org/2000/svg"
	xmlns:xlink="http://www.w3.org/1999/xlink" xml:space="preserve" overflow="hidden">
	<defs>
		<clipPath id="clip0">
			<rect x="2917" y="346" width="1763" height="1046"/>
		</clipPath>
	</defs>
	<g clip-path="url(#clip0)" transform="translate(-2917 -346)">
		<rect x="2918" y="347" width="1760" height="1043" fill="#FFFFFF" />
		<g>
			<path d="
			M3228.5 974.532 4296.5 974.532
			M3228.5 910.53 4296.5 910.53
			M3228.5 846.528 4296.5 846.528
			M3228.5 781.526 4296.5 781.526
			M3228.5 717.524 4296.5 717.524
			M3228.5 653.522 4296.5 653.522
			M3228.5 589.52 4296.5 589.52
			M3228.5 525.517 4296.5 525.517
			M3228.5 461.515 4296.5 461.515
			M3228.5 397.5 4296.5 397.5" stroke="#D9D9D9" stroke-width="3.4375" stroke-linejoin="round" stroke-miterlimit="10" fill="none" />
		</g>
		<g>
			<path d="M 1038.5 4296.5 1038.5" stroke="#D9D9D9" stroke-width="3.4375" stroke-linejoin="round" stroke-miterlimit="10" fill="none" fill-rule="evenodd" />
		</g>
		<g>
			<text fill="#595959" font-family="Verdana,Open Sans,DejaVu Sans,sans-serif" font-weight="400" font-size="41" transform="matrix(6.12323e-17 -1 1 6.12323e-17 3247.928955078125 1178.9985275268555)">08-Jul</text>
		</g>
		<g>
			<text fill="#595959" font-family="Verdana,Open Sans,DejaVu Sans,sans-serif" font-weight="400" font-size="41" transform="matrix(6.12323e-17 -1 1 6.12323e-17 3335.472980110013 1208.62744140625)">05-Aug</text>
		</g>
		<g>
			<text fill="#595959" font-family="Verdana,Open Sans,DejaVu Sans,sans-serif" font-weight="400" font-size="41" transform="matrix(6.12323e-17 -1 1 6.12323e-17 3422.6566535794004 1204.38330078125)">02-Sep</text>
		</g>
		<g>
			<text fill="#595959" font-family="Verdana,Open Sans,DejaVu Sans,sans-serif" font-weight="400" font-size="41" transform="matrix(6.12323e-17 -1 1 6.12323e-17 3509.8403270487884 1204.54345703125)">30-Sep</text>
		</g>
		<g>
			<text fill="#595959" font-family="Verdana,Open Sans,DejaVu Sans,sans-serif" font-weight="400" font-size="41" transform="matrix(6.12323e-17 -1 1 6.12323e-17 3592.299391143176 1201.1401290893555)">28-Oct</text>
		</g>
		<g>
			<text fill="#595959" font-family="Verdana,Open Sans,DejaVu Sans,sans-serif" font-weight="400" font-size="41" transform="matrix(6.12323e-17 -1 1 6.12323e-17 3679.463045081314 1211.47021484375)">25-Nov</text>
		</g>
		<g>
			<text fill="#595959" font-family="Verdana,Open Sans,DejaVu Sans,sans-serif" font-weight="400" font-size="41" transform="matrix(6.12323e-17 -1 1 6.12323e-17 3766.6667380819517 1207.24609375)">30-Dec</text>
		</g>
		<g>
			<text fill="#595959" font-family="Verdana,Open Sans,DejaVu Sans,sans-serif" font-weight="400" font-size="41" transform="matrix(6.12323e-17 -1 1 6.12323e-17 3857.483956473214 1191.6909103393555)">27-Jan</text>
		</g>
		<g>
			<text fill="#595959" font-family="Verdana,Open Sans,DejaVu Sans,sans-serif" font-weight="400" font-size="41" transform="matrix(6.12323e-17 -1 1 6.12323e-17 3941.744778380102 1203.08203125)">24-Feb</text>
		</g>
		<g>
			<text fill="#595959" font-family="Verdana,Open Sans,DejaVu Sans,sans-serif" font-weight="400" font-size="41" transform="matrix(6.12323e-17 -1 1 6.12323e-17 4028.1977389588646 1212.05078125)">24-Mar</text>
		</g>
		<g>
			<text fill="#595959" font-family="Verdana,Open Sans,DejaVu Sans,sans-serif" font-weight="400" font-size="41" transform="matrix(6.12323e-17 -1 1 6.12323e-17 4120.106021803253 1203.3022384643555)">21-Apr</text>
		</g>
		<g>
			<text fill="#595959" font-family="Verdana,Open Sans,DejaVu Sans,sans-serif" font-weight="400" font-size="41" transform="matrix(6.12323e-17 -1 1 6.12323e-17 4207.2896952726405 1214.75341796875)">19-May</text>
		</g>
		<g>
			<text fill="#595959" font-family="Verdana,Open Sans,DejaVu Sans,sans-serif" font-weight="400" font-size="41" transform="matrix(6.12323e-17 -1 1 6.12323e-17 4293.4023238201535 1194.0532150268555)">23-Jun</text>
		</g>
		<g>
			<text fill="#595959" font-family="Verdana,Open Sans,DejaVu Sans,sans-serif" font-weight="400" font-size="41" transform="matrix(1 0 0 1 3169.14111328125 1050)">0</text>
		</g>
		<g>
			<text fill="#595959" font-family="Verdana,Open Sans,DejaVu Sans,sans-serif" font-weight="400" font-size="41" transform="matrix(1 0 0 1 3088.9228515625 922)">3,075</text>
		</g>
		<g>
			<text fill="#595959" font-family="Verdana,Open Sans,DejaVu Sans,sans-serif" font-weight="400" font-size="41" transform="matrix(1 0 0 1 3089.22314453125 794)">6,149</text>
		</g>
		<g>
			<text fill="#595959" font-family="Verdana,Open Sans,DejaVu Sans,sans-serif" font-weight="400" font-size="41" transform="matrix(1 0 0 1 3087.62158203125 666)">9,224</text>
		</g>
		<g>
			<text fill="#595959" font-family="Verdana,Open Sans,DejaVu Sans,sans-serif" font-weight="400" font-size="41" transform="matrix(1 0 0 1 3067.1215896606445 538)">12,298</text>
		</g>
		<g>
			<text fill="#595959" font-family="Verdana,Open Sans,DejaVu Sans,sans-serif" font-weight="400" font-size="41" transform="matrix(1 0 0 1 3067.4018630981445 410)">15,373</text>
		</g>
		<g>
			<text fill="#595959" font-family="Verdana,Open Sans,DejaVu Sans,sans-serif" font-weight="400" font-size="41" transform="matrix(1 0 0 1 3556.97119140625 1321)">Week Commencing</text>
		</g>
		<g>
			<text fill="#595959" font-family="Verdana,Open Sans,DejaVu Sans,sans-serif" font-weight="400" font-size="46" transform="matrix(6.12323e-17 -1 1 6.12323e-17 3019.73 1011.673828125)">Number of Browser Profiles</text>
		</g>
		<rect x="2918.5" y="347.5" width="1760" height="1043" stroke="#D9D9D9" stroke-width="3.4375" stroke-linejoin="round" stroke-miterlimit="10" fill="none" />
		<g>
			<path d="M3228.5 1038 3250.295918367347 1038 3272.091836734694 1038 3293.887755102041 1038 3315.683673469388 1038 3337.4795918367345 1038 3359.2755102040815 1038 3381.0714285714284 1038 3402.8673469387754 1038 3424.6632653061224 1038 3446.4591836734694 1038 3468.2551020408164 1038 3490.0510204081634 1038 3511.8469387755104 1038 3533.6428571428573 1038 3555.4387755102043 1038 3577.234693877551 1038 3599.030612244898 1038 3620.826530612245 1038 3642.622448979592 1038 3664.418367346939 1038 3686.214285714286 1038 3708.0102040816328 1038 3729.8061224489797 1038 3751.6020408163267 1038 3773.3979591836733 1038 3795.1938775510203 1038 3816.9897959183672 1038 3838.785714285714 1038 3860.581632653061 1038 3882.377551020408 1038 3904.173469387755 1038 3925.969387755102 1038 3947.765306122449 1038 3969.5612244897957 1038 3991.357142857143 1038 4013.1530612244896 1038 4034.9489795918366 1038 4056.7448979591836 1038 4078.5408163265306 1038 4100.336734693878 1038 4122.132653061224 1038 4143.928571428572 1038 4165.724489795918 1038 4187.5204081632655 1038 4209.316326530612 1038 4231.1122448979595 1038 4252.908163265306 1038 4274.7040816326535 1038 4296.5 1038 4296.5 533.8017303063813 4274.7040816326535 534.4262017823456 4252.908163265306 535.6335133025434 4231.1122448979595 537.0489819813959 4209.316326530612 538.7558706823652 4187.5204081632655 539.921550770832 4165.724489795918 541.0455994275678 4143.928571428572 542.0031223573798 4122.132653061224 542.8773824237298 4100.336734693878 543.8765367852728 4078.5408163265306 544.792428283354 4056.7448979591836 546.3327912573993 4034.9489795918366 546.9988941650946 4013.1530612244896 547.6649970727899 3991.357142857143 548.4559942756781 3969.5612244897957 549.580042932414 3947.765306122449 550.7457230208807 3925.969387755102 551.6616145189619 3904.173469387755 552.2444545631952 3882.377551020408 553.2019774930072 3860.581632653061 554.6174461718597 3838.785714285714 555.241917647824 3816.9897959183672 555.9496519872503 3795.1938775510203 556.4492291680218 3773.3979591836733 557.198594939179 3751.6020408163267 557.6981721199505 3729.8061224489797 557.9895921420673 3708.0102040816328 558.9471150718792 3686.214285714286 559.6548494113056 3664.418367346939 561.2368438170819 3642.622448979592 562.2776296103558 3620.826530612245 562.9021010863202 3599.030612244898 563.5265725622845 3577.234693877551 564.4424640603655 3555.4387755102043 565.1918298315228 3533.6428571428573 565.899564170949 3511.8469387755104 566.7738242372991 3490.0510204081634 568.1060300526897 3468.2551020408164 568.5223443699992 3446.4591836734694 569.6047615950042 3424.6632653061224 570.5206530930852 3402.8673469387754 571.1451245690496 3381.0714285714284 572.0610160671306 3359.2755102040815 572.6022246796331 3337.4795918367345 573.1850647238665 3315.683673469388 574.1009562219476 3293.887755102041 574.8919534248357 3272.091836734694 575.641319195993 3250.295918367347 576.1825278084954 3228.5 576.5988421258049 3228.5 1038Z" fill="#e62d39" opacity="0.9" />
		</g>
		<g>
			<path d="M3228.5 576.5988421258049 3250.295918367347 576.1825278084954 3272.091836734694 575.641319195993 3293.887755102041 574.8919534248357 3315.683673469388 574.1009562219476 3337.4795918367345 573.1850647238665 3359.2755102040815 572.6022246796331 3381.0714285714284 572.0610160671306 3402.8673469387754 571.1451245690496 3424.6632653061224 570.5206530930852 3446.4591836734694 569.6047615950042 3468.2551020408164 568.5223443699992 3490.0510204081634 568.1060300526897 3511.8469387755104 566.7738242372991 3533.6428571428573 565.899564170949 3555.4387755102043 565.1918298315228 3577.234693877551 564.4424640603655 3599.030612244898 563.5265725622845 3620.826530612245 562.9021010863202 3642.622448979592 562.2776296103558 3664.418367346939 561.2368438170819 3686.214285714286 559.6548494113056 3708.0102040816328 558.9471150718792 3729.8061224489797 557.9895921420673 3751.6020408163267 557.6981721199505 3773.3979591836733 557.198594939179 3795.1938775510203 556.4492291680218 3816.9897959183672 555.9496519872503 3838.785714285714 555.241917647824 3860.581632653061 554.6174461718597 3882.377551020408 553.2019774930072 3904.173469387755 552.2444545631952 3925.969387755102 551.6616145189619 3947.765306122449 550.7457230208807 3969.5612244897957 549.580042932414 3991.357142857143 548.4559942756781 4013.1530612244896 547.6649970727899 4034.9489795918366 546.9988941650946 4056.7448979591836 546.3327912573993 4078.5408163265306 544.792428283354 4100.336734693878 543.8765367852728 4122.132653061224 542.8773824237298 4143.928571428572 542.0031223573798 4165.724489795918 541.0455994275678 4187.5204081632655 539.921550770832 4209.316326530612 538.7558706823652 4231.1122448979595 537.0489819813959 4252.908163265306 535.6335133025434 4274.7040816326535 534.4262017823456 4296.5 533.8017303063813 4296.5 397.99999999999994 4274.7040816326535 398.74936577115716 4252.908163265306 400.08157158654785 4231.1122448979595 401.6219345605931 4209.316326530612 403.91166330579586 4187.5204081632655 405.2855005529175 4165.724489795918 406.659337800039 4143.928571428572 407.7833864567748 4122.132653061224 408.7825408183178 4100.336734693878 409.98985233851556 4078.5408163265306 411.0722695635205 4056.7448979591836 412.82078969622063 4034.9489795918366 413.6950497625707 4013.1530612244896 414.4444155337279 3991.357142857143 415.360307031809 3969.5612244897957 416.81740714239254 3947.765306122449 418.10798152605213 3925.969387755102 419.1487673193261 3904.173469387755 419.9813959539452 3882.377551020408 421.188707474143 3860.581632653061 422.7707018799193 3838.785714285714 423.5616990828074 3816.9897959183672 424.5192220126194 3795.1938775510203 425.2269563520457 3773.3979591836733 426.1012164183958 3751.6020408163267 426.64242503089827 3729.8061224489797 426.93384505301503 3708.0102040816328 428.05789370975083 3686.214285714286 428.97378520783195 3664.418367346939 430.8471996357249 3642.622448979592 432.1377740193846 3620.826530612245 432.97040265400375 3599.030612244898 434.3442399011253 3577.234693877551 435.4682885578611 3555.4387755102043 436.38418005594224 3533.6428571428573 437.2584401222923 3511.8469387755104 438.2575944838352 3490.0510204081634 439.7146945944187 3468.2551020408164 440.2975346386521 3446.4591836734694 441.67137188577374 3424.6632653061224 442.79542054250953 3402.8673469387754 443.58641774539774 3381.0714285714284 444.71046640213353 3359.2755102040815 445.3349378780979 3337.4795918367345 446.209197944448 3315.683673469388 447.20835230599107 3293.887755102041 448.165875235803 3272.091836734694 449.04013530215315 3250.295918367347 449.5813439146555 3228.5 450.080921095427 3228.5 576.5988421258049Z" fill="#005aa6" opacity="0.9" />
		</g>
		<g>
			<rect x="4372" y="431" width="22.9995" height="23" fill="#e62d39" />
		</g>
		<g>
			<text fill="#595959" font-family="Verdana,Open Sans,DejaVu Sans,sans-serif" font-weight="400" font-size="41" transform="matrix(1 0 0 1 4404.56 454)">Web Browser</text>
		</g>
		<g>
			<rect x="4372" y="508" width="22.9995" height="23" fill="#005aa6" />
		</g>
		<g>
			<text fill="#595959" font-family="Verdana,Open Sans,DejaVu Sans,sans-serif" font-weight="400" font-size="41" transform="matrix(1 0 0 1 4404.56 531)">App</text>
		</g>
	</g>
</svg>
