<svg width="1763" height="1046"
    xmlns="http://www.w3.org/2000/svg"
	xmlns:xlink="http://www.w3.org/1999/xlink" xml:space="preserve" overflow="hidden">
	<defs>
		<clipPath id="clip0">
			<rect x="2917" y="346" width="1763" height="1046"/>
		</clipPath>
	</defs>
	<g clip-path="url(#clip0)" transform="translate(-2917 -346)">
		<rect x="2918" y="347" width="1760" height="1043" fill="#FFFFFF" />
		<g>
			<path d="
			M3228.5 974.532 4296.5 974.532
			M3228.5 910.53 4296.5 910.53
			M3228.5 846.528 4296.5 846.528
			M3228.5 781.526 4296.5 781.526
			M3228.5 717.524 4296.5 717.524
			M3228.5 653.522 4296.5 653.522
			M3228.5 589.52 4296.5 589.52
			M3228.5 525.517 4296.5 525.517
			M3228.5 461.515 4296.5 461.515
			M3228.5 397.5 4296.5 397.5" stroke="#D9D9D9" stroke-width="3.4375" stroke-linejoin="round" stroke-miterlimit="10" fill="none" />
		</g>
		<g>
			<path d="M 1038.5 4296.5 1038.5" stroke="#D9D9D9" stroke-width="3.4375" stroke-linejoin="round" stroke-miterlimit="10" fill="none" fill-rule="evenodd" />
		</g>
		<g>
			<text fill="#595959" font-family="Verdana,sans-serif" font-weight="400" font-size="41" transform="matrix(6.12323e-17 -1 1 6.12323e-17 3244.5 1225)">06-Nov</text>
		</g>
		<g>
			<text fill="#595959" font-family="Verdana,sans-serif" font-weight="400" font-size="41" transform="matrix(6.12323e-17 -1 1 6.12323e-17 3346.214285714286 1223)">04-Dec</text>
		</g>
		<g>
			<text fill="#595959" font-family="Verdana,sans-serif" font-weight="400" font-size="41" transform="matrix(6.12323e-17 -1 1 6.12323e-17 3447.9285714285716 1210)">01-Jan</text>
		</g>
		<g>
			<text fill="#595959" font-family="Verdana,sans-serif" font-weight="400" font-size="41" transform="matrix(6.12323e-17 -1 1 6.12323e-17 3549.642857142857 1210)">29-Jan</text>
		</g>
		<g>
			<text fill="#595959" font-family="Verdana,sans-serif" font-weight="400" font-size="41" transform="matrix(6.12323e-17 -1 1 6.12323e-17 3651.3571428571427 1216)">26-Feb</text>
		</g>
		<g>
			<text fill="#595959" font-family="Verdana,sans-serif" font-weight="400" font-size="41" transform="matrix(6.12323e-17 -1 1 6.12323e-17 3753.0714285714284 1223)">25-Mar</text>
		</g>
		<g>
			<text fill="#595959" font-family="Verdana,sans-serif" font-weight="400" font-size="41" transform="matrix(6.12323e-17 -1 1 6.12323e-17 3858.285714285714 1216)">22-Apr</text>
		</g>
		<g>
			<text fill="#595959" font-family="Verdana,sans-serif" font-weight="400" font-size="41" transform="matrix(6.12323e-17 -1 1 6.12323e-17 3960 1228)">20-May</text>
		</g>
		<g>
			<text fill="#595959" font-family="Verdana,sans-serif" font-weight="400" font-size="41" transform="matrix(6.12323e-17 -1 1 6.12323e-17 4057.714285714286 1209)">17-Jun</text>
		</g>
		<g>
			<text fill="#595959" font-family="Verdana,sans-serif" font-weight="400" font-size="41" transform="matrix(6.12323e-17 -1 1 6.12323e-17 4159.928571428572 1194)">15-Jul</text>
		</g>
		<g>
			<text fill="#595959" font-family="Verdana,sans-serif" font-weight="400" font-size="41" transform="matrix(6.12323e-17 -1 1 6.12323e-17 4265.142857142857 1218)">12-Aug</text>
		</g>
		<g>
			<text fill="#595959" font-family="Verdana,sans-serif" font-weight="400" font-size="41" transform="matrix(1 0 0 1 3123.5 1050)">0%</text>
		</g>
		<g>
			<text fill="#595959" font-family="Verdana,sans-serif" font-weight="400" font-size="41" transform="matrix(1 0 0 1 3097.5 922)">20%</text>
		</g>
		<g>
			<text fill="#595959" font-family="Verdana,sans-serif" font-weight="400" font-size="41" transform="matrix(1 0 0 1 3096.5 794)">40%</text>
		</g>
		<g>
			<text fill="#595959" font-family="Verdana,sans-serif" font-weight="400" font-size="41" transform="matrix(1 0 0 1 3097.5 666)">60%</text>
		</g>
		<g>
			<text fill="#595959" font-family="Verdana,sans-serif" font-weight="400" font-size="41" transform="matrix(1 0 0 1 3097.5 538)">80%</text>
		</g>
		<g>
			<text fill="#595959" font-family="Verdana,sans-serif" font-weight="400" font-size="41" transform="matrix(1 0 0 1 3074.5 410)">100%</text>
		</g>
		<g>
			<text fill="#595959" font-family="Verdana,sans-serif" font-weight="400" font-size="41" transform="matrix(1 0 0 1 3544.5 1321)">Week Commencing</text>
		</g>
		<g>
			<text fill="#595959" font-family="Verdana,sans-serif" font-weight="400" font-size="46" transform="matrix(6.12323e-17 -1 1 6.12323e-17 3019.73 965.25)">Requests (% of Total)</text>
		</g>
		<rect x="2918.5" y="347.5" width="1760" height="1043" stroke="#D9D9D9" stroke-width="3.4375" stroke-linejoin="round" stroke-miterlimit="10" fill="none" />
		<g>
			<path d="M3228.5 1038 3253.9285714285716 1038 3279.3571428571427 1038 3304.785714285714 1038 3330.214285714286 1038 3355.6428571428573 1038 3381.0714285714284 1038 3406.5 1038 3431.9285714285716 1038 3457.3571428571427 1038 3482.785714285714 1038 3508.214285714286 1038 3533.642857142857 1038 3559.0714285714284 1038 3584.5 1038 3609.9285714285716 1038 3635.3571428571427 1038 3660.785714285714 1038 3686.214285714286 1038 3711.642857142857 1038 3737.0714285714284 1038 3762.5 1038 3787.9285714285716 1038 3813.3571428571427 1038 3838.785714285714 1038 3864.214285714286 1038 3889.642857142857 1038 3915.0714285714284 1038 3940.5 1038 3965.9285714285716 1038 3991.3571428571427 1038 4016.785714285714 1038 4042.214285714286 1038 4067.642857142857 1038 4093.0714285714284 1038 4118.5 1038 4143.928571428572 1038 4169.357142857143 1038 4194.785714285714 1038 4220.214285714285 1038 4245.642857142857 1038 4271.071428571428 1038 4296.5 1038 4296.5 683.9172481230904 4271.071428571428 683.650703471495 4245.642857142857 683.2253967284606 4220.214285714285 683.0202318089205 4194.785714285714 682.9152439485392 4169.357142857143 682.6018446393113 4143.928571428572 682.3232723398903 4118.5 692.0678617680483 4093.0714285714284 692.1617344671945 4067.642857142857 692.8199164999976 4042.214285714286 693.1175071055251 4016.785714285714 693.279620378092 3991.3571428571427 693.7023667945714 3965.9285714285716 694.1241584254815 3940.5 694.1818102912466 3915.0714285714284 694.1642138907431 3889.642857142857 694.1125422243633 3864.214285714286 694.1000133322768 3838.785714285714 694.3187105935212 3813.3571428571427 693.6205909506452 3787.9285714285716 692.0050611605195 3762.5 690.3198452220047 3737.0714285714284 688.7547930560947 3711.642857142857 684.6952509793664 3686.214285714286 679.1608039260515 3660.785714285714 679.6019256256711 3635.3571428571427 682.3213957841157 3609.9285714285716 684.5298935912222 3584.5 686.5899201687104 3559.0714285714284 685.5922828206933 3533.642857142857 684.727262331711 3508.214285714286 682.4804542973092 3482.785714285714 682.4034608977785 3457.3571428571427 678.1494953370828 3431.9285714285716 677.8971563273623 3406.5 676.2533828137863 3381.0714285714284 675.2989091940677 3355.6428571428573 677.8919622242556 3330.214285714286 674.1657790475881 3304.785714285714 672.9058970371336 3279.3571428571427 672.3854431659599 3253.9285714285716 672.4810692266187 3228.5 688.8585875798008 3228.5 1038Z" fill="#e62d39" opacity="0.9" />
		</g>
		<g>
			<path d="M3228.5 688.8585875798008 3253.9285714285716 672.4810692266187 3279.3571428571427 672.3854431659599 3304.785714285714 672.9058970371336 3330.214285714286 674.1657790475881 3355.6428571428573 677.8919622242556 3381.0714285714284 675.2989091940677 3406.5 676.2533828137863 3431.9285714285716 677.8971563273623 3457.3571428571427 678.1494953370828 3482.785714285714 682.4034608977785 3508.214285714286 682.4804542973092 3533.642857142857 684.727262331711 3559.0714285714284 685.5922828206933 3584.5 686.5899201687104 3609.9285714285716 684.5298935912222 3635.3571428571427 682.3213957841157 3660.785714285714 679.6019256256711 3686.214285714286 679.1608039260515 3711.642857142857 684.6952509793664 3737.0714285714284 688.7547930560947 3762.5 690.3198452220047 3787.9285714285716 692.0050611605195 3813.3571428571427 693.6205909506452 3838.785714285714 694.3187105935212 3864.214285714286 694.1000133322768 3889.642857142857 694.1125422243633 3915.0714285714284 694.1642138907431 3940.5 694.1818102912466 3965.9285714285716 694.1241584254815 3991.3571428571427 693.7023667945714 4016.785714285714 693.279620378092 4042.214285714286 693.1175071055251 4067.642857142857 692.8199164999976 4093.0714285714284 692.1617344671945 4118.5 692.0678617680483 4143.928571428572 682.3232723398903 4169.357142857143 682.6018446393113 4194.785714285714 682.9152439485392 4220.214285714285 683.0202318089205 4245.642857142857 683.2253967284606 4271.071428571428 683.650703471495 4296.5 683.9172481230904 4296.5 441.085682632276 4271.071428571428 440.7511233983183 4245.642857142857 440.358904599104 4220.214285714285 439.99162530587694 4194.785714285714 439.5878575638358 4169.357142857143 439.2709286792896 4143.928571428572 439.03517502824866 4118.5 438.2387094064713 4093.0714285714284 437.86557118539895 4067.642857142857 437.9037489834077 4042.214285714286 437.50828716559636 4016.785714285714 437.0430647748583 3991.3571428571427 436.55579203505033 3965.9285714285716 435.9902777401653 3940.5 435.4750218802621 3915.0714285714284 434.9235826881617 3889.642857142857 434.50854774480695 3864.214285714286 434.2228656036452 3838.785714285714 433.89359402287107 3813.3571428571427 433.6904179753529 3787.9285714285716 433.5882703257375 3762.5 433.47006547647834 3737.0714285714284 433.35408809308973 3711.642857142857 433.21208388667225 3686.214285714286 422.122193997944 3660.785714285714 421.6503463054078 3635.3571428571427 420.92160217406195 3609.9285714285716 420.29603101333674 3584.5 419.6100604377933 3559.0714285714284 419.2453958196608 3533.642857142857 418.88543369630037 3508.214285714286 418.3145443410057 3482.785714285714 418.32121591329116 3457.3571428571427 418.1936065785876 3431.9285714285716 417.9836440524953 3406.5 417.6737817747089 3381.0714285714284 417.3462080305663 3355.6428571428573 417.2850488775972 3330.214285714286 416.91367414087256 3304.785714285714 416.74196033033303 3279.3571428571427 416.60514588840294 3253.9285714285716 416.52074620602923 3228.5 416.17089398429073 3228.5 688.8585875798008Z" fill="#005aa6" opacity="0.9" />
		</g>
		<g>
			<path d="M3228.5 416.17089398429073 3253.9285714285716 416.52074620602923 3279.3571428571427 416.60514588840294 3304.785714285714 416.74196033033303 3330.214285714286 416.91367414087256 3355.6428571428573 417.2850488775972 3381.0714285714284 417.3462080305663 3406.5 417.6737817747089 3431.9285714285716 417.9836440524953 3457.3571428571427 418.1936065785876 3482.785714285714 418.32121591329116 3508.214285714286 418.3145443410057 3533.642857142857 418.88543369630037 3559.0714285714284 419.2453958196608 3584.5 419.6100604377933 3609.9285714285716 420.29603101333674 3635.3571428571427 420.92160217406195 3660.785714285714 421.6503463054078 3686.214285714286 422.122193997944 3711.642857142857 433.21208388667225 3737.0714285714284 433.35408809308973 3762.5 433.47006547647834 3787.9285714285716 433.5882703257375 3813.3571428571427 433.6904179753529 3838.785714285714 433.89359402287107 3864.214285714286 434.2228656036452 3889.642857142857 434.50854774480695 3915.0714285714284 434.9235826881617 3940.5 435.4750218802621 3965.9285714285716 435.9902777401653 3991.3571428571427 436.55579203505033 4016.785714285714 437.0430647748583 4042.214285714286 437.50828716559636 4067.642857142857 437.9037489834077 4093.0714285714284 437.86557118539895 4118.5 438.2387094064713 4143.928571428572 439.03517502824866 4169.357142857143 439.2709286792896 4194.785714285714 439.5878575638358 4220.214285714285 439.99162530587694 4245.642857142857 440.358904599104 4271.071428571428 440.7511233983183 4296.5 441.085682632276 4296.5 398 4271.071428571428 398.00000000000006 4245.642857142857 397.99999999999994 4220.214285714285 398 4194.785714285714 398 4169.357142857143 397.9999999999999 4143.928571428572 397.99999999999994 4118.5 398.00000000000006 4093.0714285714284 398 4067.642857142857 398 4042.214285714286 398.00000000000006 4016.785714285714 397.9999999999999 3991.3571428571427 398 3965.9285714285716 397.99999999999994 3940.5 398 3915.0714285714284 398 3889.642857142857 397.9999999999999 3864.214285714286 397.9999999999999 3838.785714285714 398.0000000000001 3813.3571428571427 398 3787.9285714285716 397.99999999999994 3762.5 398.00000000000006 3737.0714285714284 398 3711.642857142857 398 3686.214285714286 398 3660.785714285714 398.00000000000006 3635.3571428571427 398.00000000000006 3609.9285714285716 398.00000000000006 3584.5 398 3559.0714285714284 397.99999999999994 3533.642857142857 398 3508.214285714286 398 3482.785714285714 398 3457.3571428571427 398 3431.9285714285716 398 3406.5 398 3381.0714285714284 398 3355.6428571428573 398.00000000000006 3330.214285714286 398 3304.785714285714 397.99999999999994 3279.3571428571427 398.00000000000006 3253.9285714285716 397.9999999999999 3228.5 397.9999999999999 3228.5 416.17089398429073Z" fill="#393d41" opacity="0.9" />
		</g>
		<g>
			<rect x="4372" y="431" width="22.9995" height="23" fill="#e62d39" />
		</g>
		<g>
			<text fill="#595959" font-family="Verdana,sans-serif" font-weight="400" font-size="41" transform="matrix(1 0 0 1 4404.56 454)">Web Browser</text>
		</g>
		<g>
			<rect x="4372" y="508" width="22.9995" height="23" fill="#005aa6" />
		</g>
		<g>
			<text fill="#595959" font-family="Verdana,sans-serif" font-weight="400" font-size="41" transform="matrix(1 0 0 1 4404.56 531)">App</text>
		</g>
		<g>
			<rect x="4372" y="585" width="22.9995" height="23" fill="#393d41" />
		</g>
		<g>
			<text fill="#595959" font-family="Verdana,sans-serif" font-weight="400" font-size="41" transform="matrix(1 0 0 1 4404.56 608)">Unclassified</text>
		</g>
	</g>
</svg>
