<svg width="1763" height="1046"
    xmlns="http://www.w3.org/2000/svg"
	xmlns:xlink="http://www.w3.org/1999/xlink" xml:space="preserve" overflow="hidden">
	<defs>
		<clipPath id="clip0">
			<rect x="2917" y="346" width="1763" height="1046"/>
		</clipPath>
	</defs>
	<g clip-path="url(#clip0)" transform="translate(-2917 -346)">
		<rect x="2918" y="347" width="1760" height="1043" fill="#FFFFFF" />
		<g>
			<path d="
			M3228.5 974.532 4296.5 974.532
			M3228.5 910.53 4296.5 910.53
			M3228.5 846.528 4296.5 846.528
			M3228.5 781.526 4296.5 781.526
			M3228.5 717.524 4296.5 717.524
			M3228.5 653.522 4296.5 653.522
			M3228.5 589.52 4296.5 589.52
			M3228.5 525.517 4296.5 525.517
			M3228.5 461.515 4296.5 461.515
			M3228.5 397.5 4296.5 397.5" stroke="#D9D9D9" stroke-width="3.4375" stroke-linejoin="round" stroke-miterlimit="10" fill="none" />
		</g>
		<g>
			<path d="M 1038.5 4296.5 1038.5" stroke="#D9D9D9" stroke-width="3.4375" stroke-linejoin="round" stroke-miterlimit="10" fill="none" fill-rule="evenodd" />
		</g>
		<g>
			<text fill="#595959" font-family="Verdana,sans-serif" font-weight="400" font-size="41" transform="matrix(6.12323e-17 -1 1 6.12323e-17 3244.5 1225)">06-Nov</text>
		</g>
		<g>
			<text fill="#595959" font-family="Verdana,sans-serif" font-weight="400" font-size="41" transform="matrix(6.12323e-17 -1 1 6.12323e-17 3343.8488372093025 1223)">04-Dec</text>
		</g>
		<g>
			<text fill="#595959" font-family="Verdana,sans-serif" font-weight="400" font-size="41" transform="matrix(6.12323e-17 -1 1 6.12323e-17 3443.1976744186045 1210)">01-Jan</text>
		</g>
		<g>
			<text fill="#595959" font-family="Verdana,sans-serif" font-weight="400" font-size="41" transform="matrix(6.12323e-17 -1 1 6.12323e-17 3542.546511627907 1210)">29-Jan</text>
		</g>
		<g>
			<text fill="#595959" font-family="Verdana,sans-serif" font-weight="400" font-size="41" transform="matrix(6.12323e-17 -1 1 6.12323e-17 3641.8953488372094 1216)">26-Feb</text>
		</g>
		<g>
			<text fill="#595959" font-family="Verdana,sans-serif" font-weight="400" font-size="41" transform="matrix(6.12323e-17 -1 1 6.12323e-17 3741.2441860465115 1223)">25-Mar</text>
		</g>
		<g>
			<text fill="#595959" font-family="Verdana,sans-serif" font-weight="400" font-size="41" transform="matrix(6.12323e-17 -1 1 6.12323e-17 3844.093023255814 1216)">22-Apr</text>
		</g>
		<g>
			<text fill="#595959" font-family="Verdana,sans-serif" font-weight="400" font-size="41" transform="matrix(6.12323e-17 -1 1 6.12323e-17 3943.4418604651164 1228)">20-May</text>
		</g>
		<g>
			<text fill="#595959" font-family="Verdana,sans-serif" font-weight="400" font-size="41" transform="matrix(6.12323e-17 -1 1 6.12323e-17 4038.790697674419 1209)">17-Jun</text>
		</g>
		<g>
			<text fill="#595959" font-family="Verdana,sans-serif" font-weight="400" font-size="41" transform="matrix(6.12323e-17 -1 1 6.12323e-17 4138.639534883721 1194)">15-Jul</text>
		</g>
		<g>
			<text fill="#595959" font-family="Verdana,sans-serif" font-weight="400" font-size="41" transform="matrix(6.12323e-17 -1 1 6.12323e-17 4241.488372093023 1218)">12-Aug</text>
		</g>
		<g>
			<text fill="#595959" font-family="Verdana,sans-serif" font-weight="400" font-size="41" transform="matrix(1 0 0 1 3167.5 1050)">0</text>
		</g>
		<g>
			<text fill="#595959" font-family="Verdana,sans-serif" font-weight="400" font-size="41" transform="matrix(1 0 0 1 3074.5 922)">2,856</text>
		</g>
		<g>
			<text fill="#595959" font-family="Verdana,sans-serif" font-weight="400" font-size="41" transform="matrix(1 0 0 1 3076.5 794)">5,711</text>
		</g>
		<g>
			<text fill="#595959" font-family="Verdana,sans-serif" font-weight="400" font-size="41" transform="matrix(1 0 0 1 3073.5 666)">8,567</text>
		</g>
		<g>
			<text fill="#595959" font-family="Verdana,sans-serif" font-weight="400" font-size="41" transform="matrix(1 0 0 1 3050.5 538)">11,422</text>
		</g>
		<g>
			<text fill="#595959" font-family="Verdana,sans-serif" font-weight="400" font-size="41" transform="matrix(1 0 0 1 3050.5 410)">14,278</text>
		</g>
		<g>
			<text fill="#595959" font-family="Verdana,sans-serif" font-weight="400" font-size="41" transform="matrix(1 0 0 1 3544.5 1321)">Week Commencing</text>
		</g>
		<g>
			<text fill="#595959" font-family="Verdana,sans-serif" font-weight="400" font-size="46" transform="matrix(6.12323e-17 -1 1 6.12323e-17 3019.73 1030.75)">Number of Browser Profiles</text>
		</g>
		<rect x="2918.5" y="347.5" width="1760" height="1043" stroke="#D9D9D9" stroke-width="3.4375" stroke-linejoin="round" stroke-miterlimit="10" fill="none" />
		<g>
			<path d="M3228.5 1038 3253.3372093023254 1038 3278.1744186046512 1038 3303.0116279069766 1038 3327.8488372093025 1038 3352.686046511628 1038 3377.5232558139533 1038 3402.360465116279 1038 3427.1976744186045 1038 3452.0348837209303 1038 3476.8720930232557 1038 3501.7093023255816 1038 3526.546511627907 1038 3551.383720930233 1038 3576.220930232558 1038 3601.0581395348836 1038 3625.8953488372094 1038 3650.732558139535 1038 3675.5697674418607 1038 3700.406976744186 1038 3725.2441860465115 1038 3750.0813953488373 1038 3774.9186046511627 1038 3799.7558139534885 1038 3824.593023255814 1038 3849.4302325581393 1038 3874.267441860465 1038 3899.104651162791 1038 3923.9418604651164 1038 3948.779069767442 1038 3973.6162790697676 1038 3998.453488372093 1038 4023.290697674419 1038 4048.1279069767443 1038 4072.9651162790697 1038 4097.802325581395 1038 4122.639534883721 1038 4147.476744186047 1038 4172.313953488372 1038 4197.1511627906975 1038 4221.988372093023 1038 4246.825581395349 1038 4271.662790697675 1038 4296.5 1038 4296.5 535.3413643367419 4271.662790697675 536.3274968482981 4246.825581395349 536.9102115142177 4221.988372093023 537.537750385208 4197.1511627906975 538.5238828967642 4172.313953488372 539.3755427931083 4147.476744186047 540.1823784843816 4122.639534883721 540.7650931503011 4097.802325581395 541.2133352010085 4072.9651162790697 541.6615772517159 4048.1279069767443 542.7373581734137 4023.290697674419 543.4993696596161 3998.453488372093 544.2613811458187 3973.6162790697676 545.4268104776579 3948.779069767442 546.5474156044263 3923.9418604651164 547.5783723210534 3899.104651162791 548.0714385768315 3874.267441860465 548.6541532427511 3849.4302325581393 549.371340523883 3824.593023255814 550.7160666760051 3799.7558139534885 551.926320212915 3774.9186046511627 553.136573749825 3750.0813953488373 554.6157725171593 3725.2441860465115 555.7363776439277 3700.406976744186 556.7673343605547 3675.5697674418607 557.8431152822525 3650.732558139535 559.2326656394453 3625.8953488372094 561.5187000980529 3601.0581395348836 561.9669421487604 3576.220930232558 562.3255357893263 3551.383720930233 564.252976607368 3526.546511627907 566.2252416304805 3501.7093023255816 566.7631320913293 3476.8720930232557 567.5699677826026 3452.0348837209303 568.2423308586636 3427.1976744186045 568.5112760890881 3402.360465116279 568.5112760890881 3377.5232558139533 569.2732875752906 3352.686046511628 569.7215296259981 3327.8488372093025 570.2594200868468 3303.0116279069766 571.1559041882617 3278.1744186046512 571.9179156744642 3253.3372093023254 572.5902787505253 3228.5 573.0833450063034 3228.5 1038Z" fill="#e62d39" opacity="0.9" />
		</g>
		<g>
			<path d="M3228.5 573.0833450063034 3253.3372093023254 572.5902787505253 3278.1744186046512 571.9179156744642 3303.0116279069766 571.1559041882617 3327.8488372093025 570.2594200868468 3352.686046511628 569.7215296259981 3377.5232558139533 569.2732875752906 3402.360465116279 568.5112760890881 3427.1976744186045 568.5112760890881 3452.0348837209303 568.2423308586636 3476.8720930232557 567.5699677826026 3501.7093023255816 566.7631320913293 3526.546511627907 566.2252416304805 3551.383720930233 564.252976607368 3576.220930232558 562.3255357893263 3601.0581395348836 561.9669421487604 3625.8953488372094 561.5187000980529 3650.732558139535 559.2326656394453 3675.5697674418607 557.8431152822525 3700.406976744186 556.7673343605547 3725.2441860465115 555.7363776439277 3750.0813953488373 554.6157725171593 3774.9186046511627 553.136573749825 3799.7558139534885 551.926320212915 3824.593023255814 550.7160666760051 3849.4302325581393 549.371340523883 3874.267441860465 548.6541532427511 3899.104651162791 548.0714385768315 3923.9418604651164 547.5783723210534 3948.779069767442 546.5474156044263 3973.6162790697676 545.4268104776579 3998.453488372093 544.2613811458187 4023.290697674419 543.4993696596161 4048.1279069767443 542.7373581734137 4072.9651162790697 541.6615772517159 4097.802325581395 541.2133352010085 4122.639534883721 540.7650931503011 4147.476744186047 540.1823784843816 4172.313953488372 539.3755427931083 4197.1511627906975 538.5238828967642 4221.988372093023 537.537750385208 4246.825581395349 536.9102115142177 4271.662790697675 536.3274968482981 4296.5 535.3413643367419 4296.5 398.00000000000006 4271.662790697675 399.21025353690993 4246.825581395349 399.88261661297105 4221.988372093023 400.82392491945654 4197.1511627906975 401.8997058411542 4172.313953488372 402.93066255778115 4147.476744186047 403.87197086426676 4122.639534883721 404.4546855301863 4097.802325581395 404.9925759910351 4072.9651162790697 405.7545874772377 4048.1279069767443 407.0096652192184 4023.290697674419 407.95097352570383 3998.453488372093 408.93710603726015 3973.6162790697676 410.41630480459446 3948.779069767442 411.7610309567166 3923.9418604651164 412.92646028855586 3899.104651162791 413.5988233646169 3874.267441860465 414.31601064574875 3849.4302325581393 415.16767054209276 3824.593023255814 416.7365177195686 3799.7558139534885 418.17089228183227 3774.9186046511627 419.60526684409587 3750.0813953488373 421.3534108418546 3725.2441860465115 422.6981369939767 3700.406976744186 424.3566325815941 3675.5697674418607 425.9703039641407 3650.732558139535 427.4046785264042 3625.8953488372094 429.9596582154363 3601.0581395348836 430.45272447121454 3576.220930232558 430.9906149320634 3551.383720930233 433.18700098052955 3526.546511627907 435.29373861885415 3501.7093023255816 435.96610169491527 3476.8720930232557 436.9970584115422 3452.0348837209303 437.8038941028155 3427.1976744186045 438.16248774338146 3402.360465116279 438.16248774338146 3377.5232558139533 439.14862025493767 3352.686046511628 439.8209833309988 3327.8488372093025 440.40369799691825 3303.0116279069766 441.38983050847463 3278.1744186046512 442.28631460988936 3253.3372093023254 443.27244712144557 3228.5 443.9448101975066 3228.5 573.0833450063034Z" fill="#005aa6" opacity="0.9" />
		</g>
		<g>
			<rect x="4372" y="431" width="22.9995" height="23" fill="#e62d39" />
		</g>
		<g>
			<text fill="#595959" font-family="Verdana,sans-serif" font-weight="400" font-size="41" transform="matrix(1 0 0 1 4404.56 454)">Web Browser</text>
		</g>
		<g>
			<rect x="4372" y="508" width="22.9995" height="23" fill="#005aa6" />
		</g>
		<g>
			<text fill="#595959" font-family="Verdana,sans-serif" font-weight="400" font-size="41" transform="matrix(1 0 0 1 4404.56 531)">App</text>
		</g>
	</g>
</svg>
