<svg width="1763" height="1046"
    xmlns="http://www.w3.org/2000/svg"
	xmlns:xlink="http://www.w3.org/1999/xlink" xml:space="preserve" overflow="hidden">
	<defs>
		<clipPath id="clip0">
			<rect x="2917" y="346" width="1763" height="1046"/>
		</clipPath>
	</defs>
	<g clip-path="url(#clip0)" transform="translate(-2917 -346)">
		<rect x="2918" y="347" width="1760" height="1043" fill="#FFFFFF" />
		<g>
			<path d="
			M3228.5 974.532 4296.5 974.532
			M3228.5 910.53 4296.5 910.53
			M3228.5 846.528 4296.5 846.528
			M3228.5 781.526 4296.5 781.526
			M3228.5 717.524 4296.5 717.524
			M3228.5 653.522 4296.5 653.522
			M3228.5 589.52 4296.5 589.52
			M3228.5 525.517 4296.5 525.517
			M3228.5 461.515 4296.5 461.515
			M3228.5 397.5 4296.5 397.5" stroke="#D9D9D9" stroke-width="3.4375" stroke-linejoin="round" stroke-miterlimit="10" fill="none" />
		</g>
		<g>
			<path d="M 1038.5 4296.5 1038.5" stroke="#D9D9D9" stroke-width="3.4375" stroke-linejoin="round" stroke-miterlimit="10" fill="none" fill-rule="evenodd" />
		</g>
		<g>
			<text fill="#595959" font-family="Verdana,Open Sans,DejaVu Sans,sans-serif" font-weight="400" font-size="41" transform="matrix(6.12323e-17 -1 1 6.12323e-17 3243.564697265625 1201.1000900268555)">07-Oct</text>
		</g>
		<g>
			<text fill="#595959" font-family="Verdana,Open Sans,DejaVu Sans,sans-serif" font-weight="400" font-size="41" transform="matrix(6.12323e-17 -1 1 6.12323e-17 3329.004697265625 1211.43017578125)">04-Nov</text>
		</g>
		<g>
			<text fill="#595959" font-family="Verdana,Open Sans,DejaVu Sans,sans-serif" font-weight="400" font-size="41" transform="matrix(6.12323e-17 -1 1 6.12323e-17 3414.444697265625 1207.0859375)">09-Dec</text>
		</g>
		<g>
			<text fill="#595959" font-family="Verdana,Open Sans,DejaVu Sans,sans-serif" font-weight="400" font-size="41" transform="matrix(6.12323e-17 -1 1 6.12323e-17 3503.53826171875 1191.6508712768555)">06-Jan</text>
		</g>
		<g>
			<text fill="#595959" font-family="Verdana,Open Sans,DejaVu Sans,sans-serif" font-weight="400" font-size="41" transform="matrix(6.12323e-17 -1 1 6.12323e-17 3586.035390625 1203.0419921875)">03-Feb</text>
		</g>
		<g>
			<text fill="#595959" font-family="Verdana,Open Sans,DejaVu Sans,sans-serif" font-weight="400" font-size="41" transform="matrix(6.12323e-17 -1 1 6.12323e-17 3670.764697265625 1212.0107421875)">03-Mar</text>
		</g>
		<g>
			<text fill="#595959" font-family="Verdana,Open Sans,DejaVu Sans,sans-serif" font-weight="400" font-size="41" transform="matrix(6.12323e-17 -1 1 6.12323e-17 3756.184677734375 1212.1708984375)">31-Mar</text>
		</g>
		<g>
			<text fill="#595959" font-family="Verdana,Open Sans,DejaVu Sans,sans-serif" font-weight="400" font-size="41" transform="matrix(6.12323e-17 -1 1 6.12323e-17 3846.349287109375 1203.3022384643555)">28-Apr</text>
		</g>
		<g>
			<text fill="#595959" font-family="Verdana,Open Sans,DejaVu Sans,sans-serif" font-weight="400" font-size="41" transform="matrix(6.12323e-17 -1 1 6.12323e-17 3931.789287109375 1216.51513671875)">26-May</text>
		</g>
		<g>
			<text fill="#595959" font-family="Verdana,Open Sans,DejaVu Sans,sans-serif" font-weight="400" font-size="41" transform="matrix(6.12323e-17 -1 1 6.12323e-17 4016.17826171875 1194.1733322143555)">30-Jun</text>
		</g>
		<g>
			<text fill="#595959" font-family="Verdana,Open Sans,DejaVu Sans,sans-serif" font-weight="400" font-size="41" transform="matrix(6.12323e-17 -1 1 6.12323e-17 4102.328955078125 1179.0385665893555)">28-Jul</text>
		</g>
		<g>
			<text fill="#595959" font-family="Verdana,Open Sans,DejaVu Sans,sans-serif" font-weight="400" font-size="41" transform="matrix(6.12323e-17 -1 1 6.12323e-17 4188.109287109375 1208.66748046875)">25-Aug</text>
		</g>
		<g>
			<text fill="#595959" font-family="Verdana,Open Sans,DejaVu Sans,sans-serif" font-weight="400" font-size="41" transform="matrix(6.12323e-17 -1 1 6.12323e-17 4273.549287109375 1204.42333984375)">22-Sep</text>
		</g>
		<g>
			<text fill="#595959" font-family="Verdana,Open Sans,DejaVu Sans,sans-serif" font-weight="400" font-size="41" transform="matrix(1 0 0 1 3169.14111328125 1050)">0</text>
		</g>
		<g>
			<text fill="#595959" font-family="Verdana,Open Sans,DejaVu Sans,sans-serif" font-weight="400" font-size="41" transform="matrix(1 0 0 1 3088.7626953125 922)">3,152</text>
		</g>
		<g>
			<text fill="#595959" font-family="Verdana,Open Sans,DejaVu Sans,sans-serif" font-weight="400" font-size="41" transform="matrix(1 0 0 1 3087.841796875 794)">6,304</text>
		</g>
		<g>
			<text fill="#595959" font-family="Verdana,Open Sans,DejaVu Sans,sans-serif" font-weight="400" font-size="41" transform="matrix(1 0 0 1 3088.8828125 666)">9,457</text>
		</g>
		<g>
			<text fill="#595959" font-family="Verdana,Open Sans,DejaVu Sans,sans-serif" font-weight="400" font-size="41" transform="matrix(1 0 0 1 3067.2016677856445 538)">12,609</text>
		</g>
		<g>
			<text fill="#595959" font-family="Verdana,Open Sans,DejaVu Sans,sans-serif" font-weight="400" font-size="41" transform="matrix(1 0 0 1 3074.1284255981445 410)">15,761</text>
		</g>
		<g>
			<text fill="#595959" font-family="Verdana,Open Sans,DejaVu Sans,sans-serif" font-weight="400" font-size="41" transform="matrix(1 0 0 1 3556.97119140625 1321)">Week Commencing</text>
		</g>
		<g>
			<text fill="#595959" font-family="Verdana,Open Sans,DejaVu Sans,sans-serif" font-weight="400" font-size="46" transform="matrix(6.12323e-17 -1 1 6.12323e-17 3019.73 1011.673828125)">Number of Browser Profiles</text>
		</g>
		<rect x="2918.5" y="347.5" width="1760" height="1043" stroke="#D9D9D9" stroke-width="3.4375" stroke-linejoin="round" stroke-miterlimit="10" fill="none" />
		<g>
			<path d="M3228.5 1038 3249.86 1038 3271.22 1038 3292.58 1038 3313.94 1038 3335.3 1038 3356.66 1038 3378.02 1038 3399.38 1038 3420.74 1038 3442.1 1038 3463.46 1038 3484.82 1038 3506.18 1038 3527.54 1038 3548.9 1038 3570.26 1038 3591.62 1038 3612.98 1038 3634.34 1038 3655.7 1038 3677.06 1038 3698.42 1038 3719.7799999999997 1038 3741.14 1038 3762.5 1038 3783.86 1038 3805.2200000000003 1038 3826.58 1038 3847.94 1038 3869.3 1038 3890.66 1038 3912.02 1038 3933.38 1038 3954.74 1038 3976.1 1038 3997.46 1038 4018.8199999999997 1038 4040.18 1038 4061.54 1038 4082.9 1038 4104.26 1038 4125.62 1038 4146.98 1038 4168.34 1038 4189.7 1038 4211.0599999999995 1038 4232.42 1038 4253.78 1038 4275.139999999999 1038 4296.5 1038 4296.5 533.0980267749508 4275.139999999999 534.1537973478839 4253.78 535.4938138442992 4232.42 536.224731933253 4211.0599999999995 536.8744369012118 4189.7 538.1738468371295 4168.34 539.0265846075756 4146.98 539.9605354990165 4125.62 540.9756995114524 4104.26 541.787830721401 4082.9 542.559355370852 4061.54 543.4526997017956 4040.18 543.8587653067698 4018.8199999999997 544.8739293192057 3997.46 546.2139458156208 3976.1 546.8230442230822 3954.74 548.0006344775077 3933.38 549.3812575344205 3912.02 551.0461265148151 3890.66 552.1831102087431 3869.3 553.2794873421738 3847.94 554.2134382336146 3826.58 555.0661760040607 3805.2200000000003 556.040733455999 3783.86 556.9340777869425 3762.5 558.4365205253473 3741.14 559.0862254933063 3719.7799999999997 559.7359304612651 3698.42 560.5074551107164 3677.06 561.6038322441469 3655.7 562.740815938075 3634.34 563.6341602690184 3612.98 564.2026521159825 3591.62 565.1366030074234 3570.26 566.517226064336 3548.9 567.1263244717975 3527.54 567.8166360002538 3506.18 568.303914726223 3484.82 569.0348328151767 3463.46 569.5221115411459 3442.1 569.8063574646278 3420.74 570.7403083560687 3399.38 571.4306198845251 3378.02 572.9736691834274 3356.66 573.9888331958632 3335.3 574.5979316033247 3313.94 575.2070300107862 3292.58 576.1003743417295 3271.22 576.8312924306833 3249.86 577.5216039591396 3228.5 578.3743417295857 3228.5 1038Z" fill="#e62d39" opacity="0.9" />
		</g>
		<g>
			<path d="M3228.5 578.3743417295857 3249.86 577.5216039591396 3271.22 576.8312924306833 3292.58 576.1003743417295 3313.94 575.2070300107862 3335.3 574.5979316033247 3356.66 573.9888331958632 3378.02 572.9736691834274 3399.38 571.4306198845251 3420.74 570.7403083560687 3442.1 569.8063574646278 3463.46 569.5221115411459 3484.82 569.0348328151767 3506.18 568.303914726223 3527.54 567.8166360002538 3548.9 567.1263244717975 3570.26 566.517226064336 3591.62 565.1366030074234 3612.98 564.2026521159825 3634.34 563.6341602690184 3655.7 562.740815938075 3677.06 561.6038322441469 3698.42 560.5074551107164 3719.7799999999997 559.7359304612651 3741.14 559.0862254933063 3762.5 558.4365205253473 3783.86 556.9340777869425 3805.2200000000003 556.040733455999 3826.58 555.0661760040607 3847.94 554.2134382336146 3869.3 553.2794873421738 3890.66 552.1831102087431 3912.02 551.0461265148151 3933.38 549.3812575344205 3954.74 548.0006344775077 3976.1 546.8230442230822 3997.46 546.2139458156208 4018.8199999999997 544.8739293192057 4040.18 543.8587653067698 4061.54 543.4526997017956 4082.9 542.559355370852 4104.26 541.787830721401 4125.62 540.9756995114524 4146.98 539.9605354990165 4168.34 539.0265846075756 4189.7 538.1738468371295 4211.0599999999995 536.8744369012118 4232.42 536.224731933253 4253.78 535.4938138442992 4275.139999999999 534.1537973478839 4296.5 533.0980267749508 4296.5 397.99999999999994 4275.139999999999 399.17759025442535 4253.78 400.7206395533278 4232.42 401.6139838842713 4211.0599999999995 402.4261150942198 4189.7 403.80673815113244 4168.34 404.8625087240657 4146.98 405.8776727365014 4125.62 407.25829579341416 4104.26 408.15164012435764 4082.9 409.16680413679325 4061.54 410.18196814922914 4040.18 410.87227967768536 4018.8199999999997 412.21229617410063 3997.46 413.755345473003 3976.1 414.48626356195666 3954.74 415.7856734978744 3933.38 417.2881162362795 3912.02 419.52147706363814 3890.66 420.8614935600533 3869.3 422.2015100564685 3847.94 423.29788718989914 3826.58 424.2724446418375 3805.2200000000003 425.4500348962629 3783.86 426.5058054691961 3762.5 428.2112810100881 3741.14 429.0640187805343 3719.7799999999997 429.79493686948786 3698.42 430.68828120043145 3677.06 432.1095108178415 3655.7 433.3683141932619 3634.34 434.38347820569754 3612.98 435.1956094156462 3591.62 436.37319967007176 3570.26 437.91624896897406 3548.9 438.68777361842524 3527.54 439.6217245098661 3506.18 440.31203603832245 3484.82 441.16477380876853 3463.46 441.6926590952351 3442.1 441.976905018717 3420.74 443.0732821521476 3399.38 443.96662648309115 3378.02 445.79392170547555 3356.66 447.05272508089587 3335.3 447.8648562908445 3313.94 449.2048727872598 3292.58 450.3012499206903 3271.22 451.19459425163376 3249.86 452.0473320220798 3228.5 453.02188947401817 3228.5 578.3743417295857Z" fill="#005aa6" opacity="0.9" />
		</g>
		<g>
			<rect x="4372" y="431" width="22.9995" height="23" fill="#e62d39" />
		</g>
		<g>
			<text fill="#595959" font-family="Verdana,Open Sans,DejaVu Sans,sans-serif" font-weight="400" font-size="41" transform="matrix(1 0 0 1 4404.56 454)">Web Browser</text>
		</g>
		<g>
			<rect x="4372" y="508" width="22.9995" height="23" fill="#005aa6" />
		</g>
		<g>
			<text fill="#595959" font-family="Verdana,Open Sans,DejaVu Sans,sans-serif" font-weight="400" font-size="41" transform="matrix(1 0 0 1 4404.56 531)">App</text>
		</g>
	</g>
</svg>
