<svg width="1763" height="1046"
    xmlns="http://www.w3.org/2000/svg"
	xmlns:xlink="http://www.w3.org/1999/xlink" xml:space="preserve" overflow="hidden">
	<defs>
		<clipPath id="clip0">
			<rect x="2917" y="346" width="1763" height="1046"/>
		</clipPath>
	</defs>
	<g clip-path="url(#clip0)" transform="translate(-2917 -346)">
		<rect x="2918" y="347" width="1760" height="1043" fill="#FFFFFF" />
		<g>
			<path d="
			M3228.5 974.532 4296.5 974.532
			M3228.5 910.53 4296.5 910.53
			M3228.5 846.528 4296.5 846.528
			M3228.5 781.526 4296.5 781.526
			M3228.5 717.524 4296.5 717.524
			M3228.5 653.522 4296.5 653.522
			M3228.5 589.52 4296.5 589.52
			M3228.5 525.517 4296.5 525.517
			M3228.5 461.515 4296.5 461.515
			M3228.5 397.5 4296.5 397.5" stroke="#D9D9D9" stroke-width="3.4375" stroke-linejoin="round" stroke-miterlimit="10" fill="none" />
		</g>
		<g>
			<path d="M 1038.5 4296.5 1038.5" stroke="#D9D9D9" stroke-width="3.4375" stroke-linejoin="round" stroke-miterlimit="10" fill="none" fill-rule="evenodd" />
		</g>
		<g>
			<text fill="#595959" font-family="Verdana,sans-serif" font-weight="400" font-size="41" transform="matrix(6.12323e-17 -1 1 6.12323e-17 3244.5 1214)">12-Feb</text>
		</g>
		<g>
			<text fill="#595959" font-family="Verdana,sans-serif" font-weight="400" font-size="41" transform="matrix(6.12323e-17 -1 1 6.12323e-17 3327.764705882353 1221)">11-Mar</text>
		</g>
		<g>
			<text fill="#595959" font-family="Verdana,sans-serif" font-weight="400" font-size="41" transform="matrix(6.12323e-17 -1 1 6.12323e-17 3415.529411764706 1217)">08-Apr</text>
		</g>
		<g>
			<text fill="#595959" font-family="Verdana,sans-serif" font-weight="400" font-size="41" transform="matrix(6.12323e-17 -1 1 6.12323e-17 3499.294117647059 1228)">06-May</text>
		</g>
		<g>
			<text fill="#595959" font-family="Verdana,sans-serif" font-weight="400" font-size="41" transform="matrix(6.12323e-17 -1 1 6.12323e-17 3579.5588235294117 1211)">03-Jun</text>
		</g>
		<g>
			<text fill="#595959" font-family="Verdana,sans-serif" font-weight="400" font-size="41" transform="matrix(6.12323e-17 -1 1 6.12323e-17 3663.323529411765 1197)">01-Jul</text>
		</g>
		<g>
			<text fill="#595959" font-family="Verdana,sans-serif" font-weight="400" font-size="41" transform="matrix(6.12323e-17 -1 1 6.12323e-17 3747.0882352941176 1196)">29-Jul</text>
		</g>
		<g>
			<text fill="#595959" font-family="Verdana,sans-serif" font-weight="400" font-size="41" transform="matrix(6.12323e-17 -1 1 6.12323e-17 3834.3529411764707 1221)">26-Aug</text>
		</g>
		<g>
			<text fill="#595959" font-family="Verdana,sans-serif" font-weight="400" font-size="41" transform="matrix(6.12323e-17 -1 1 6.12323e-17 3918.1176470588234 1221)">23-Sep</text>
		</g>
		<g>
			<text fill="#595959" font-family="Verdana,sans-serif" font-weight="400" font-size="41" transform="matrix(6.12323e-17 -1 1 6.12323e-17 3998.3823529411766 1215)">21-Oct</text>
		</g>
		<g>
			<text fill="#595959" font-family="Verdana,sans-serif" font-weight="400" font-size="41" transform="matrix(6.12323e-17 -1 1 6.12323e-17 4082.1470588235293 1222)">18-Nov</text>
		</g>
		<g>
			<text fill="#595959" font-family="Verdana,sans-serif" font-weight="400" font-size="41" transform="matrix(6.12323e-17 -1 1 6.12323e-17 4165.911764705882 1222)">23-Dec</text>
		</g>
		<g>
			<text fill="#595959" font-family="Verdana,sans-serif" font-weight="400" font-size="41" transform="matrix(6.12323e-17 -1 1 6.12323e-17 4249.676470588235 1210)">20-Jan</text>
		</g>
		<g>
			<text fill="#595959" font-family="Verdana,sans-serif" font-weight="400" font-size="41" transform="matrix(1 0 0 1 3167.5 1050)">0</text>
		</g>
		<g>
			<text fill="#595959" font-family="Verdana,sans-serif" font-weight="400" font-size="41" transform="matrix(1 0 0 1 3075.5 922)">2,963</text>
		</g>
		<g>
			<text fill="#595959" font-family="Verdana,sans-serif" font-weight="400" font-size="41" transform="matrix(1 0 0 1 3074.5 794)">5,926</text>
		</g>
		<g>
			<text fill="#595959" font-family="Verdana,sans-serif" font-weight="400" font-size="41" transform="matrix(1 0 0 1 3073.5 666)">8,890</text>
		</g>
		<g>
			<text fill="#595959" font-family="Verdana,sans-serif" font-weight="400" font-size="41" transform="matrix(1 0 0 1 3051.5 538)">11,853</text>
		</g>
		<g>
			<text fill="#595959" font-family="Verdana,sans-serif" font-weight="400" font-size="41" transform="matrix(1 0 0 1 3050.5 410)">14,816</text>
		</g>
		<g>
			<text fill="#595959" font-family="Verdana,sans-serif" font-weight="400" font-size="41" transform="matrix(1 0 0 1 3544.5 1321)">Week Commencing</text>
		</g>
		<g>
			<text fill="#595959" font-family="Verdana,sans-serif" font-weight="400" font-size="46" transform="matrix(6.12323e-17 -1 1 6.12323e-17 3019.73 1030.75)">Number of Browser Profiles</text>
		</g>
		<rect x="2918.5" y="347.5" width="1760" height="1043" stroke="#D9D9D9" stroke-width="3.4375" stroke-linejoin="round" stroke-miterlimit="10" fill="none" />
		<g>
			<path d="M3228.5 1038 3249.4411764705883 1038 3270.3823529411766 1038 3291.323529411765 1038 3312.264705882353 1038 3333.205882352941 1038 3354.1470588235293 1038 3375.0882352941176 1038 3396.029411764706 1038 3416.970588235294 1038 3437.9117647058824 1038 3458.8529411764707 1038 3479.794117647059 1038 3500.735294117647 1038 3521.676470588235 1038 3542.6176470588234 1038 3563.5588235294117 1038 3584.5 1038 3605.4411764705883 1038 3626.3823529411766 1038 3647.323529411765 1038 3668.264705882353 1038 3689.205882352941 1038 3710.1470588235293 1038 3731.0882352941176 1038 3752.029411764706 1038 3772.970588235294 1038 3793.9117647058824 1038 3814.8529411764707 1038 3835.7941176470586 1038 3856.735294117647 1038 3877.676470588235 1038 3898.6176470588234 1038 3919.5588235294117 1038 3940.5 1038 3961.4411764705883 1038 3982.3823529411766 1038 4003.323529411765 1038 4024.264705882353 1038 4045.2058823529414 1038 4066.1470588235293 1038 4087.0882352941176 1038 4108.029411764706 1038 4128.970588235294 1038 4149.911764705882 1038 4170.85294117647 1038 4191.794117647059 1038 4212.735294117647 1038 4233.676470588235 1038 4254.617647058823 1038 4275.558823529412 1038 4296.5 1038 4296.5 534.976241900648 4275.558823529412 536.4449244060476 4254.617647058823 537.0928725701945 4233.676470588235 537.8272138228942 4212.735294117647 538.3455723542118 4191.794117647059 539.1231101511879 4170.85294117647 539.6414686825054 4149.911764705882 539.9438444924406 4128.970588235294 540.9373650107991 4108.029411764706 541.6717062634989 4087.0882352941176 543.3131749460043 4066.1470588235293 544.3930885529157 4045.2058823529414 545.0410367170626 4024.264705882353 545.6889848812095 4003.323529411765 546.6393088552916 3982.3823529411766 547.4168466522679 3961.4411764705883 548.1511879049676 3940.5 549.0583153347732 3919.5588235294117 550.44060475162 3898.6176470588234 550.8725701943845 3877.676470588235 551.9956803455724 3856.735294117647 552.9460043196544 3835.7941176470586 553.5939524838013 3814.8529411764707 554.5442764578834 3793.9117647058824 555.1058315334774 3772.970588235294 555.7105831533478 3752.029411764706 556.6609071274298 3731.0882352941176 557.4816414686825 3710.1470588235293 558.2591792656588 3689.205882352941 558.8207343412528 3668.264705882353 559.2526997840173 3647.323529411765 559.6846652267818 3626.3823529411766 560.7213822894169 3605.4411764705883 561.4557235421166 3584.5 562.1900647948164 3563.5588235294117 563.3131749460043 3542.6176470588234 564.3930885529157 3521.676470588235 565.3866090712743 3500.735294117647 565.8617710583153 3479.794117647059 566.4233261339093 3458.8529411764707 567.1144708423326 3437.9117647058824 568.4103671706264 3416.970588235294 569.5766738660907 3396.029411764706 570.7429805615551 3375.0882352941176 572.1684665226783 3354.1470588235293 573.2483801295896 3333.205882352941 574.2419006479481 3312.264705882353 575.2786177105831 3291.323529411765 576.6177105831534 3270.3823529411766 578.8207343412528 3249.4411764705883 579.2526997840173 3228.5 579.598272138229 3228.5 1038Z" fill="#e62d39" opacity="0.9" />
		</g>
		<g>
			<path d="M3228.5 579.598272138229 3249.4411764705883 579.2526997840173 3270.3823529411766 578.8207343412528 3291.323529411765 576.6177105831534 3312.264705882353 575.2786177105831 3333.205882352941 574.2419006479481 3354.1470588235293 573.2483801295896 3375.0882352941176 572.1684665226783 3396.029411764706 570.7429805615551 3416.970588235294 569.5766738660907 3437.9117647058824 568.4103671706264 3458.8529411764707 567.1144708423326 3479.794117647059 566.4233261339093 3500.735294117647 565.8617710583153 3521.676470588235 565.3866090712743 3542.6176470588234 564.3930885529157 3563.5588235294117 563.3131749460043 3584.5 562.1900647948164 3605.4411764705883 561.4557235421166 3626.3823529411766 560.7213822894169 3647.323529411765 559.6846652267818 3668.264705882353 559.2526997840173 3689.205882352941 558.8207343412528 3710.1470588235293 558.2591792656588 3731.0882352941176 557.4816414686825 3752.029411764706 556.6609071274298 3772.970588235294 555.7105831533478 3793.9117647058824 555.1058315334774 3814.8529411764707 554.5442764578834 3835.7941176470586 553.5939524838013 3856.735294117647 552.9460043196544 3877.676470588235 551.9956803455724 3898.6176470588234 550.8725701943845 3919.5588235294117 550.44060475162 3940.5 549.0583153347732 3961.4411764705883 548.1511879049676 3982.3823529411766 547.4168466522679 4003.323529411765 546.6393088552916 4024.264705882353 545.6889848812095 4045.2058823529414 545.0410367170626 4066.1470588235293 544.3930885529157 4087.0882352941176 543.3131749460043 4108.029411764706 541.6717062634989 4128.970588235294 540.9373650107991 4149.911764705882 539.9438444924406 4170.85294117647 539.6414686825054 4191.794117647059 539.1231101511879 4212.735294117647 538.3455723542118 4233.676470588235 537.8272138228942 4254.617647058823 537.0928725701945 4275.558823529412 536.4449244060476 4296.5 534.976241900648 4296.5 398.00000000000006 4275.558823529412 399.64146868250543 4254.617647058823 400.4622030237582 4233.676470588235 401.45572354211674 4212.735294117647 402.1900647948165 4191.794117647059 403.09719222462206 4170.85294117647 403.658747300216 4149.911764705882 403.96112311015116 4128.970588235294 405.1274298056155 4108.029411764706 406.0777537796976 4087.0882352941176 408.02159827213825 4066.1470588235293 409.3606911447084 4045.2058823529414 410.2246220302376 4024.264705882353 411.65010799136076 4003.323529411765 412.81641468682506 3982.3823529411766 413.7667386609072 3961.4411764705883 414.67386609071275 3940.5 415.71058315334767 3919.5588235294117 417.22246220302384 3898.6176470588234 417.82721382289424 3877.676470588235 419.2526997840173 3856.735294117647 420.41900647948165 3835.7941176470586 421.23974082073437 3814.8529411764707 422.4060475161987 3793.9117647058824 423.0539956803457 3772.970588235294 423.9611231101512 3752.029411764706 424.9978401727862 3731.0882352941176 425.9913606911447 3710.1470588235293 426.89848812095033 3689.205882352941 427.46004319654435 3668.264705882353 427.9784017278618 3647.323529411765 428.71274298056153 3626.3823529411766 429.9222462203024 3605.4411764705883 430.829373650108 3584.5 431.7796976241901 3563.5588235294117 433.2051835853132 3542.6176470588234 434.5010799136069 3521.676470588235 435.6241900647948 3500.735294117647 436.2721382289417 3479.794117647059 436.9632829373651 3458.8529411764707 437.78401727861774 3437.9117647058824 439.2958963282938 3416.970588235294 440.67818574514035 3396.029411764706 442.0604751619871 3375.0882352941176 443.74514038876896 3354.1470588235293 445.0410367170626 3333.205882352941 446.6393088552915 3312.264705882353 448.19438444924407 3291.323529411765 449.5766738660908 3270.3823529411766 452.0388768898489 3249.4411764705883 452.51403887688986 3228.5 453.03239740820743 3228.5 579.598272138229Z" fill="#005aa6" opacity="0.9" />
		</g>
		<g>
			<rect x="4372" y="431" width="22.9995" height="23" fill="#e62d39" />
		</g>
		<g>
			<text fill="#595959" font-family="Verdana,sans-serif" font-weight="400" font-size="41" transform="matrix(1 0 0 1 4404.56 454)">Web Browser</text>
		</g>
		<g>
			<rect x="4372" y="508" width="22.9995" height="23" fill="#005aa6" />
		</g>
		<g>
			<text fill="#595959" font-family="Verdana,sans-serif" font-weight="400" font-size="41" transform="matrix(1 0 0 1 4404.56 531)">App</text>
		</g>
	</g>
</svg>
