<svg width="1763" height="1046"
    xmlns="http://www.w3.org/2000/svg"
	xmlns:xlink="http://www.w3.org/1999/xlink" xml:space="preserve" overflow="hidden">
	<defs>
		<clipPath id="clip0">
			<rect x="2917" y="346" width="1763" height="1046"/>
		</clipPath>
	</defs>
	<g clip-path="url(#clip0)" transform="translate(-2917 -346)">
		<rect x="2918" y="347" width="1760" height="1043" fill="#FFFFFF" />
		<g>
			<path d="
			M3228.5 974.532 4296.5 974.532
			M3228.5 910.53 4296.5 910.53
			M3228.5 846.528 4296.5 846.528
			M3228.5 781.526 4296.5 781.526
			M3228.5 717.524 4296.5 717.524
			M3228.5 653.522 4296.5 653.522
			M3228.5 589.52 4296.5 589.52
			M3228.5 525.517 4296.5 525.517
			M3228.5 461.515 4296.5 461.515
			M3228.5 397.5 4296.5 397.5" stroke="#D9D9D9" stroke-width="3.4375" stroke-linejoin="round" stroke-miterlimit="10" fill="none" />
		</g>
		<g>
			<path d="M 1038.5 4296.5 1038.5" stroke="#D9D9D9" stroke-width="3.4375" stroke-linejoin="round" stroke-miterlimit="10" fill="none" fill-rule="evenodd" />
		</g>
		<g>
			<text fill="#595959" font-family="Verdana,sans-serif" font-weight="400" font-size="41" transform="matrix(6.12323e-17 -1 1 6.12323e-17 3248 1226)">13-May</text>
		</g>
		<g>
			<text fill="#595959" font-family="Verdana,sans-serif" font-weight="400" font-size="41" transform="matrix(6.12323e-17 -1 1 6.12323e-17 3328.264705882353 1209)">10-Jun</text>
		</g>
		<g>
			<text fill="#595959" font-family="Verdana,sans-serif" font-weight="400" font-size="41" transform="matrix(6.12323e-17 -1 1 6.12323e-17 3412.029411764706 1197)">08-Jul</text>
		</g>
		<g>
			<text fill="#595959" font-family="Verdana,sans-serif" font-weight="400" font-size="41" transform="matrix(6.12323e-17 -1 1 6.12323e-17 3499.294117647059 1221)">05-Aug</text>
		</g>
		<g>
			<text fill="#595959" font-family="Verdana,sans-serif" font-weight="400" font-size="41" transform="matrix(6.12323e-17 -1 1 6.12323e-17 3583.0588235294117 1222)">02-Sep</text>
		</g>
		<g>
			<text fill="#595959" font-family="Verdana,sans-serif" font-weight="400" font-size="41" transform="matrix(6.12323e-17 -1 1 6.12323e-17 3666.823529411765 1221)">30-Sep</text>
		</g>
		<g>
			<text fill="#595959" font-family="Verdana,sans-serif" font-weight="400" font-size="41" transform="matrix(6.12323e-17 -1 1 6.12323e-17 3747.0882352941176 1215)">28-Oct</text>
		</g>
		<g>
			<text fill="#595959" font-family="Verdana,sans-serif" font-weight="400" font-size="41" transform="matrix(6.12323e-17 -1 1 6.12323e-17 3830.8529411764707 1224)">25-Nov</text>
		</g>
		<g>
			<text fill="#595959" font-family="Verdana,sans-serif" font-weight="400" font-size="41" transform="matrix(6.12323e-17 -1 1 6.12323e-17 3914.6176470588234 1222)">30-Dec</text>
		</g>
		<g>
			<text fill="#595959" font-family="Verdana,sans-serif" font-weight="400" font-size="41" transform="matrix(6.12323e-17 -1 1 6.12323e-17 3998.3823529411766 1210)">27-Jan</text>
		</g>
		<g>
			<text fill="#595959" font-family="Verdana,sans-serif" font-weight="400" font-size="41" transform="matrix(6.12323e-17 -1 1 6.12323e-17 4082.1470588235293 1216)">24-Feb</text>
		</g>
		<g>
			<text fill="#595959" font-family="Verdana,sans-serif" font-weight="400" font-size="41" transform="matrix(6.12323e-17 -1 1 6.12323e-17 4165.911764705882 1223)">24-Mar</text>
		</g>
		<g>
			<text fill="#595959" font-family="Verdana,sans-serif" font-weight="400" font-size="41" transform="matrix(6.12323e-17 -1 1 6.12323e-17 4253.176470588235 1216)">21-Apr</text>
		</g>
		<g>
			<text fill="#595959" font-family="Verdana,sans-serif" font-weight="400" font-size="41" transform="matrix(1 0 0 1 3167.5 1050)">0</text>
		</g>
		<g>
			<text fill="#595959" font-family="Verdana,sans-serif" font-weight="400" font-size="41" transform="matrix(1 0 0 1 3075.5 922)">3,033</text>
		</g>
		<g>
			<text fill="#595959" font-family="Verdana,sans-serif" font-weight="400" font-size="41" transform="matrix(1 0 0 1 3073.5 794)">6,066</text>
		</g>
		<g>
			<text fill="#595959" font-family="Verdana,sans-serif" font-weight="400" font-size="41" transform="matrix(1 0 0 1 3073.5 666)">9,099</text>
		</g>
		<g>
			<text fill="#595959" font-family="Verdana,sans-serif" font-weight="400" font-size="41" transform="matrix(1 0 0 1 3050.5 538)">12,132</text>
		</g>
		<g>
			<text fill="#595959" font-family="Verdana,sans-serif" font-weight="400" font-size="41" transform="matrix(1 0 0 1 3051.5 410)">15,165</text>
		</g>
		<g>
			<text fill="#595959" font-family="Verdana,sans-serif" font-weight="400" font-size="41" transform="matrix(1 0 0 1 3544.5 1321)">Week Commencing</text>
		</g>
		<g>
			<text fill="#595959" font-family="Verdana,sans-serif" font-weight="400" font-size="46" transform="matrix(6.12323e-17 -1 1 6.12323e-17 3019.73 1030.75)">Number of Browser Profiles</text>
		</g>
		<rect x="2918.5" y="347.5" width="1760" height="1043" stroke="#D9D9D9" stroke-width="3.4375" stroke-linejoin="round" stroke-miterlimit="10" fill="none" />
		<g>
			<path d="M3228.5 1038 3249.4411764705883 1038 3270.3823529411766 1038 3291.323529411765 1038 3312.264705882353 1038 3333.205882352941 1038 3354.1470588235293 1038 3375.0882352941176 1038 3396.029411764706 1038 3416.970588235294 1038 3437.9117647058824 1038 3458.8529411764707 1038 3479.794117647059 1038 3500.735294117647 1038 3521.676470588235 1038 3542.6176470588234 1038 3563.5588235294117 1038 3584.5 1038 3605.4411764705883 1038 3626.3823529411766 1038 3647.323529411765 1038 3668.264705882353 1038 3689.205882352941 1038 3710.1470588235293 1038 3731.0882352941176 1038 3752.029411764706 1038 3772.970588235294 1038 3793.9117647058824 1038 3814.8529411764707 1038 3835.7941176470586 1038 3856.735294117647 1038 3877.676470588235 1038 3898.6176470588234 1038 3919.5588235294117 1038 3940.5 1038 3961.4411764705883 1038 3982.3823529411766 1038 4003.323529411765 1038 4024.264705882353 1038 4045.2058823529414 1038 4066.1470588235293 1038 4087.0882352941176 1038 4108.029411764706 1038 4128.970588235294 1038 4149.911764705882 1038 4170.85294117647 1038 4191.794117647059 1038 4212.735294117647 1038 4233.676470588235 1038 4254.617647058823 1038 4275.558823529412 1038 4296.5 1038 4296.5 534.2294757665677 4275.558823529412 535.2001318826244 4254.617647058823 536.086383119024 4233.676470588235 537.0992416749093 4212.735294117647 538.0276953511375 4191.794117647059 539.5891856247939 4170.85294117647 540.2644246620507 4149.911764705882 540.9396636993076 4128.970588235294 541.7415100560502 4108.029411764706 542.8809759314211 4087.0882352941176 544.0626442466205 4066.1470588235293 544.9910979228487 4045.2058823529414 545.5819320804484 4024.264705882353 546.5525881965051 4003.323529411765 547.9874711506759 3982.3823529411766 548.6205077481042 3961.4411764705883 549.3379492251895 3940.5 549.8443785031322 3919.5588235294117 550.6040224200461 3898.6176470588234 551.1104516979888 3877.676470588235 551.4058687767886 3856.735294117647 552.3765248928453 3835.7941176470586 553.0939663699307 3814.8529411764707 554.6976590834158 3793.9117647058824 555.7527200791296 3772.970588235294 556.3857566765578 3752.029411764706 557.0187932739861 3731.0882352941176 557.9472469502143 3710.1470588235293 558.7068908671283 3689.205882352941 559.4243323442137 3668.264705882353 560.3105835806132 3647.323529411765 561.6610616551269 3626.3823529411766 562.0830860534124 3605.4411764705883 563.1803494889548 3584.5 564.108803165183 3563.5588235294117 564.7418397626113 3542.6176470588234 565.6702934388395 3521.676470588235 566.2189251566106 3500.735294117647 566.8097593142104 3479.794117647059 567.7382129904386 3458.8529411764707 568.540059347181 3437.9117647058824 569.2997032640949 3416.970588235294 569.8483349818662 3396.029411764706 570.2703593801516 3375.0882352941176 570.6923837784373 3354.1470588235293 571.7052423343225 3333.205882352941 572.4226838114079 3312.264705882353 573.1401252884932 3291.323529411765 574.2373887240356 3270.3823529411766 575.2924497197494 3249.4411764705883 576.2631058358061 3228.5 576.7273326739203 3228.5 1038Z" fill="#e62d39" opacity="0.9" />
		</g>
		<g>
			<path d="M3228.5 576.7273326739203 3249.4411764705883 576.2631058358061 3270.3823529411766 575.2924497197494 3291.323529411765 574.2373887240356 3312.264705882353 573.1401252884932 3333.205882352941 572.4226838114079 3354.1470588235293 571.7052423343225 3375.0882352941176 570.6923837784373 3396.029411764706 570.2703593801516 3416.970588235294 569.8483349818662 3437.9117647058824 569.2997032640949 3458.8529411764707 568.540059347181 3479.794117647059 567.7382129904386 3500.735294117647 566.8097593142104 3521.676470588235 566.2189251566106 3542.6176470588234 565.6702934388395 3563.5588235294117 564.7418397626113 3584.5 564.108803165183 3605.4411764705883 563.1803494889548 3626.3823529411766 562.0830860534124 3647.323529411765 561.6610616551269 3668.264705882353 560.3105835806132 3689.205882352941 559.4243323442137 3710.1470588235293 558.7068908671283 3731.0882352941176 557.9472469502143 3752.029411764706 557.0187932739861 3772.970588235294 556.3857566765578 3793.9117647058824 555.7527200791296 3814.8529411764707 554.6976590834158 3835.7941176470586 553.0939663699307 3856.735294117647 552.3765248928453 3877.676470588235 551.4058687767886 3898.6176470588234 551.1104516979888 3919.5588235294117 550.6040224200461 3940.5 549.8443785031322 3961.4411764705883 549.3379492251895 3982.3823529411766 548.6205077481042 4003.323529411765 547.9874711506759 4024.264705882353 546.5525881965051 4045.2058823529414 545.5819320804484 4066.1470588235293 544.9910979228487 4087.0882352941176 544.0626442466205 4108.029411764706 542.8809759314211 4128.970588235294 541.7415100560502 4149.911764705882 540.9396636993076 4170.85294117647 540.2644246620507 4191.794117647059 539.5891856247939 4212.735294117647 538.0276953511375 4233.676470588235 537.0992416749093 4254.617647058823 536.086383119024 4275.558823529412 535.2001318826244 4296.5 534.2294757665677 4296.5 397.99999999999994 4275.558823529412 399.1394658753709 4254.617647058823 400.15232443125615 4233.676470588235 401.3761951862842 4212.735294117647 402.4734586218266 4191.794117647059 404.2459610946257 4170.85294117647 405.13221233102536 4149.911764705882 405.89185624793936 4128.970588235294 406.82030992416753 4108.029411764706 408.2973953181669 4087.0882352941176 409.60567095285194 4066.1470588235293 410.66073194856574 4045.2058823529414 411.5047807451368 4024.264705882353 412.7286515001648 4003.323529411765 414.3323442136499 3982.3823529411766 415.1341905703923 3961.4411764705883 416.104846686449 3940.5 416.8222881635345 3919.5588235294117 417.708539399934 3898.6176470588234 418.2571711177052 3877.676470588235 418.552588196505 3856.735294117647 419.69205407187593 3835.7941176470586 420.62050774810416 3814.8529411764707 422.5196175403891 3793.9117647058824 423.8278931750742 3772.970588235294 424.67194197164514 3752.029411764706 426.06462248598746 3731.0882352941176 427.2040883613584 3710.1470588235293 428.13254203758663 3689.205882352941 429.01879327398615 3668.264705882353 430.03165182987135 3647.323529411765 431.50873722387075 3626.3823529411766 432.09957138147047 3605.4411764705883 433.4922518958127 3584.5 434.6317177711836 3563.5588235294117 435.43356412792616 3542.6176470588234 436.57303000329716 3521.676470588235 437.2060666007253 3500.735294117647 438.092317837125 3479.794117647059 439.1051763930103 3458.8529411764707 440.0758325090669 3437.9117647058824 440.96208374546643 3416.970588235294 441.5107154632377 3396.029411764706 442.0171447411803 3375.0882352941176 442.7345862182658 3354.1470588235293 443.9162545334653 3333.205882352941 444.80250576986487 3312.264705882353 445.7309594460929 3291.323529411765 447.1236399604352 3270.3823529411766 448.3897131552917 3249.4411764705883 449.4869765908341 3228.5 450.12001318826253 3228.5 576.7273326739203Z" fill="#005aa6" opacity="0.9" />
		</g>
		<g>
			<rect x="4372" y="431" width="22.9995" height="23" fill="#e62d39" />
		</g>
		<g>
			<text fill="#595959" font-family="Verdana,sans-serif" font-weight="400" font-size="41" transform="matrix(1 0 0 1 4404.56 454)">Web Browser</text>
		</g>
		<g>
			<rect x="4372" y="508" width="22.9995" height="23" fill="#005aa6" />
		</g>
		<g>
			<text fill="#595959" font-family="Verdana,sans-serif" font-weight="400" font-size="41" transform="matrix(1 0 0 1 4404.56 531)">App</text>
		</g>
	</g>
</svg>
