<svg width="1763" height="1046"
    xmlns="http://www.w3.org/2000/svg"
	xmlns:xlink="http://www.w3.org/1999/xlink" xml:space="preserve" overflow="hidden">
	<defs>
		<clipPath id="clip0">
			<rect x="2917" y="346" width="1763" height="1046"/>
		</clipPath>
	</defs>
	<g clip-path="url(#clip0)" transform="translate(-2917 -346)">
		<rect x="2918" y="347" width="1760" height="1043" fill="#FFFFFF" />
		<g>
			<path d="
			M3228.5 974.532 4296.5 974.532
			M3228.5 910.53 4296.5 910.53
			M3228.5 846.528 4296.5 846.528
			M3228.5 781.526 4296.5 781.526
			M3228.5 717.524 4296.5 717.524
			M3228.5 653.522 4296.5 653.522
			M3228.5 589.52 4296.5 589.52
			M3228.5 525.517 4296.5 525.517
			M3228.5 461.515 4296.5 461.515
			M3228.5 397.5 4296.5 397.5" stroke="#D9D9D9" stroke-width="3.4375" stroke-linejoin="round" stroke-miterlimit="10" fill="none" />
		</g>
		<g>
			<path d="M 1038.5 4296.5 1038.5" stroke="#D9D9D9" stroke-width="3.4375" stroke-linejoin="round" stroke-miterlimit="10" fill="none" fill-rule="evenodd" />
		</g>
		<g>
			<text fill="#595959" font-family="Verdana,Open Sans,DejaVu Sans,sans-serif" font-weight="400" font-size="41" transform="matrix(6.12323e-17 -1 1 6.12323e-17 3247.928955078125 1179.0385665893555)">22-Jul</text>
		</g>
		<g>
			<text fill="#595959" font-family="Verdana,Open Sans,DejaVu Sans,sans-serif" font-weight="400" font-size="41" transform="matrix(6.12323e-17 -1 1 6.12323e-17 3333.709287109375 1206.90576171875)">19-Aug</text>
		</g>
		<g>
			<text fill="#595959" font-family="Verdana,Open Sans,DejaVu Sans,sans-serif" font-weight="400" font-size="41" transform="matrix(6.12323e-17 -1 1 6.12323e-17 3419.149287109375 1202.66162109375)">16-Sep</text>
		</g>
		<g>
			<text fill="#595959" font-family="Verdana,Open Sans,DejaVu Sans,sans-serif" font-weight="400" font-size="41" transform="matrix(6.12323e-17 -1 1 6.12323e-17 3499.884697265625 1199.3784103393555)">14-Oct</text>
		</g>
		<g>
			<text fill="#595959" font-family="Verdana,Open Sans,DejaVu Sans,sans-serif" font-weight="400" font-size="41" transform="matrix(6.12323e-17 -1 1 6.12323e-17 3585.09447265625 1209.70849609375)">11-Nov</text>
		</g>
		<g>
			<text fill="#595959" font-family="Verdana,Open Sans,DejaVu Sans,sans-serif" font-weight="400" font-size="41" transform="matrix(6.12323e-17 -1 1 6.12323e-17 3670.744677734375 1205.3642578125)">16-Dec</text>
		</g>
		<g>
			<text fill="#595959" font-family="Verdana,Open Sans,DejaVu Sans,sans-serif" font-weight="400" font-size="41" transform="matrix(6.12323e-17 -1 1 6.12323e-17 3759.8382421875 1189.9291915893555)">13-Jan</text>
		</g>
		<g>
			<text fill="#595959" font-family="Verdana,Open Sans,DejaVu Sans,sans-serif" font-weight="400" font-size="41" transform="matrix(6.12323e-17 -1 1 6.12323e-17 3842.355390625 1201.3203125)">10-Feb</text>
		</g>
		<g>
			<text fill="#595959" font-family="Verdana,Open Sans,DejaVu Sans,sans-serif" font-weight="400" font-size="41" transform="matrix(6.12323e-17 -1 1 6.12323e-17 3927.084697265625 1210.2890625)">10-Mar</text>
		</g>
		<g>
			<text fill="#595959" font-family="Verdana,Open Sans,DejaVu Sans,sans-serif" font-weight="400" font-size="41" transform="matrix(6.12323e-17 -1 1 6.12323e-17 4017.249306640625 1203.2621994018555)">07-Apr</text>
		</g>
		<g>
			<text fill="#595959" font-family="Verdana,Open Sans,DejaVu Sans,sans-serif" font-weight="400" font-size="41" transform="matrix(6.12323e-17 -1 1 6.12323e-17 4102.689306640625 1216.47509765625)">05-May</text>
		</g>
		<g>
			<text fill="#595959" font-family="Verdana,Open Sans,DejaVu Sans,sans-serif" font-weight="400" font-size="41" transform="matrix(6.12323e-17 -1 1 6.12323e-17 4187.05826171875 1194.0131759643555)">09-Jun</text>
		</g>
		<g>
			<text fill="#595959" font-family="Verdana,Open Sans,DejaVu Sans,sans-serif" font-weight="400" font-size="41" transform="matrix(6.12323e-17 -1 1 6.12323e-17 4273.208955078125 1178.9985275268555)">07-Jul</text>
		</g>
		<g>
			<text fill="#595959" font-family="Verdana,Open Sans,DejaVu Sans,sans-serif" font-weight="400" font-size="41" transform="matrix(1 0 0 1 3169.14111328125 1050)">0</text>
		</g>
		<g>
			<text fill="#595959" font-family="Verdana,Open Sans,DejaVu Sans,sans-serif" font-weight="400" font-size="41" transform="matrix(1 0 0 1 3088.7626953125 922)">3,092</text>
		</g>
		<g>
			<text fill="#595959" font-family="Verdana,Open Sans,DejaVu Sans,sans-serif" font-weight="400" font-size="41" transform="matrix(1 0 0 1 3087.841796875 794)">6,184</text>
		</g>
		<g>
			<text fill="#595959" font-family="Verdana,Open Sans,DejaVu Sans,sans-serif" font-weight="400" font-size="41" transform="matrix(1 0 0 1 3088.8828125 666)">9,277</text>
		</g>
		<g>
			<text fill="#595959" font-family="Verdana,Open Sans,DejaVu Sans,sans-serif" font-weight="400" font-size="41" transform="matrix(1 0 0 1 3067.2016677856445 538)">12,369</text>
		</g>
		<g>
			<text fill="#595959" font-family="Verdana,Open Sans,DejaVu Sans,sans-serif" font-weight="400" font-size="41" transform="matrix(1 0 0 1 3074.1284255981445 410)">15,461</text>
		</g>
		<g>
			<text fill="#595959" font-family="Verdana,Open Sans,DejaVu Sans,sans-serif" font-weight="400" font-size="41" transform="matrix(1 0 0 1 3556.97119140625 1321)">Week Commencing</text>
		</g>
		<g>
			<text fill="#595959" font-family="Verdana,Open Sans,DejaVu Sans,sans-serif" font-weight="400" font-size="46" transform="matrix(6.12323e-17 -1 1 6.12323e-17 3019.73 1011.673828125)">Number of Browser Profiles</text>
		</g>
		<rect x="2918.5" y="347.5" width="1760" height="1043" stroke="#D9D9D9" stroke-width="3.4375" stroke-linejoin="round" stroke-miterlimit="10" fill="none" />
		<g>
			<path d="M3228.5 1038 3249.86 1038 3271.22 1038 3292.58 1038 3313.94 1038 3335.3 1038 3356.66 1038 3378.02 1038 3399.38 1038 3420.74 1038 3442.1 1038 3463.46 1038 3484.82 1038 3506.18 1038 3527.54 1038 3548.9 1038 3570.26 1038 3591.62 1038 3612.98 1038 3634.34 1038 3655.7 1038 3677.06 1038 3698.42 1038 3719.7799999999997 1038 3741.14 1038 3762.5 1038 3783.86 1038 3805.2200000000003 1038 3826.58 1038 3847.94 1038 3869.3 1038 3890.66 1038 3912.02 1038 3933.38 1038 3954.74 1038 3976.1 1038 3997.46 1038 4018.8199999999997 1038 4040.18 1038 4061.54 1038 4082.9 1038 4104.26 1038 4125.62 1038 4146.98 1038 4168.34 1038 4189.7 1038 4211.0599999999995 1038 4232.42 1038 4253.78 1038 4275.139999999999 1038 4296.5 1038 4296.5 533.8566716253799 4275.139999999999 534.2706163896255 4253.78 535.3054783002392 4232.42 536.6714960222496 4211.0599999999995 537.2924131686177 4189.7 538.4928529849299 4168.34 539.9002651833646 4146.98 541.5974387167712 4125.62 542.7564840566587 4104.26 543.8741349201216 4082.9 544.8262078778862 4061.54 545.6954918828019 4040.18 546.688959316991 4018.8199999999997 547.5996377983313 3997.46 549.1312334260397 3976.1 549.7935450488326 3954.74 550.4558566716253 3933.38 551.2423517236919 3912.02 552.3600025871547 3890.66 553.5190479270423 3869.3 554.4297264083823 3847.94 555.0092490783261 3826.58 555.9613220360908 3805.2200000000003 557.3687342345256 3783.86 557.9896513808939 3762.5 558.6933574801112 3741.14 559.1900911972059 3719.7799999999997 559.9351917728477 3698.42 560.4319254899424 3677.06 560.7216868249143 3655.7 561.673759782679 3634.34 562.3774658818963 3612.98 563.9504559860293 3591.62 564.9853178966432 3570.26 565.6062350430113 3548.9 566.2271521893797 3527.54 567.1378306707198 3506.18 567.8829312463617 3484.82 568.5866373455792 3463.46 569.4559213504947 3442.1 570.7805445960805 3420.74 571.194489360326 3399.38 572.2707457473643 3378.02 573.1814242287044 3356.66 573.8023413750727 3335.3 574.7130198564129 3313.94 575.251148049932 3292.58 575.8306707198758 3271.22 576.7413492012159 3249.86 577.5278442532824 3228.5 578.2729448289244 3228.5 1038Z" fill="#e62d39" opacity="0.9" />
		</g>
		<g>
			<path d="M3228.5 578.2729448289244 3249.86 577.5278442532824 3271.22 576.7413492012159 3292.58 575.8306707198758 3313.94 575.251148049932 3335.3 574.7130198564129 3356.66 573.8023413750727 3378.02 573.1814242287044 3399.38 572.2707457473643 3420.74 571.194489360326 3442.1 570.7805445960805 3463.46 569.4559213504947 3484.82 568.5866373455792 3506.18 567.8829312463617 3527.54 567.1378306707198 3548.9 566.2271521893797 3570.26 565.6062350430113 3591.62 564.9853178966432 3612.98 563.9504559860293 3634.34 562.3774658818963 3655.7 561.673759782679 3677.06 560.7216868249143 3698.42 560.4319254899424 3719.7799999999997 559.9351917728477 3741.14 559.1900911972059 3762.5 558.6933574801112 3783.86 557.9896513808939 3805.2200000000003 557.3687342345256 3826.58 555.9613220360908 3847.94 555.0092490783261 3869.3 554.4297264083823 3890.66 553.5190479270423 3912.02 552.3600025871547 3933.38 551.2423517236919 3954.74 550.4558566716253 3976.1 549.7935450488326 3997.46 549.1312334260397 4018.8199999999997 547.5996377983313 4040.18 546.688959316991 4061.54 545.6954918828019 4082.9 544.8262078778862 4104.26 543.8741349201216 4125.62 542.7564840566587 4146.98 541.5974387167712 4168.34 539.9002651833646 4189.7 538.4928529849299 4211.0599999999995 537.2924131686177 4232.42 536.6714960222496 4253.78 535.3054783002392 4275.139999999999 534.2706163896255 4296.5 533.8566716253799 4296.5 397.99999999999994 4275.139999999999 398.70370609921736 4253.78 400.0697238212275 4232.42 401.6427139253606 4211.0599999999995 402.3878145010024 4189.7 403.7124377465882 4168.34 405.2440333742966 4146.98 407.52072957764693 4125.62 408.88674729965715 4104.26 410.2527650216674 4082.9 411.3704158851302 4061.54 412.3638833193196 4040.18 413.56432313563147 4018.8199999999997 414.6405795226699 3997.46 416.37914753250107 3976.1 417.24843153741676 3954.74 417.99353211305856 3933.38 418.9042105943988 3912.02 420.353017269258 3890.66 421.63624603841924 3869.3 422.67110794903294 3847.94 423.4989974775241 3826.58 424.69943729383607 3805.2200000000003 426.2724273979691 3783.86 427.05892245003554 3762.5 428.01099540780024 3741.14 428.7147015070177 3719.7799999999997 429.5839855119331 3698.42 430.12211370545236 3677.06 430.41187504042426 3655.7 431.5295259038872 3634.34 432.4402043852273 3612.98 434.3029558243321 3591.62 435.58618459349333 3570.26 436.41407412198424 3548.9 437.7800918439945 3527.54 438.89774270745744 3506.18 439.8084211887975 3484.82 440.6777051937132 3463.46 441.67117262790237 3442.1 443.11997930276186 3420.74 443.6995019727055 3399.38 445.0655196947157 3378.02 446.1831705581785 3356.66 446.9696656102451 3335.3 448.087316473708 3313.94 448.7082336200762 3292.58 449.57751762499186 3271.22 450.5709850591811 3249.86 451.5230580169458 3228.5 452.3923420218615 3228.5 578.2729448289244Z" fill="#005aa6" opacity="0.9" />
		</g>
		<g>
			<rect x="4372" y="431" width="22.9995" height="23" fill="#e62d39" />
		</g>
		<g>
			<text fill="#595959" font-family="Verdana,Open Sans,DejaVu Sans,sans-serif" font-weight="400" font-size="41" transform="matrix(1 0 0 1 4404.56 454)">Web Browser</text>
		</g>
		<g>
			<rect x="4372" y="508" width="22.9995" height="23" fill="#005aa6" />
		</g>
		<g>
			<text fill="#595959" font-family="Verdana,Open Sans,DejaVu Sans,sans-serif" font-weight="400" font-size="41" transform="matrix(1 0 0 1 4404.56 531)">App</text>
		</g>
	</g>
</svg>
