<svg width="1763" height="1046"
    xmlns="http://www.w3.org/2000/svg"
	xmlns:xlink="http://www.w3.org/1999/xlink" xml:space="preserve" overflow="hidden">
	<defs>
		<clipPath id="clip0">
			<rect x="2917" y="346" width="1763" height="1046"/>
		</clipPath>
	</defs>
	<g clip-path="url(#clip0)" transform="translate(-2917 -346)">
		<rect x="2918" y="347" width="1760" height="1043" fill="#FFFFFF" />
		<g>
			<path d="
			M3228.5 974.532 4296.5 974.532
			M3228.5 910.53 4296.5 910.53
			M3228.5 846.528 4296.5 846.528
			M3228.5 781.526 4296.5 781.526
			M3228.5 717.524 4296.5 717.524
			M3228.5 653.522 4296.5 653.522
			M3228.5 589.52 4296.5 589.52
			M3228.5 525.517 4296.5 525.517
			M3228.5 461.515 4296.5 461.515
			M3228.5 397.5 4296.5 397.5" stroke="#D9D9D9" stroke-width="3.4375" stroke-linejoin="round" stroke-miterlimit="10" fill="none" />
		</g>
		<g>
			<path d="M 1038.5 4296.5 1038.5" stroke="#D9D9D9" stroke-width="3.4375" stroke-linejoin="round" stroke-miterlimit="10" fill="none" fill-rule="evenodd" />
		</g>
		<g>
			<text fill="#595959" font-family="Verdana,Open Sans,DejaVu Sans,sans-serif" font-weight="400" font-size="41" transform="matrix(6.12323e-17 -1 1 6.12323e-17 3248.269287109375 1214.75341796875)">12-May</text>
		</g>
		<g>
			<text fill="#595959" font-family="Verdana,Open Sans,DejaVu Sans,sans-serif" font-weight="400" font-size="41" transform="matrix(6.12323e-17 -1 1 6.12323e-17 3332.6382421875 1192.2914962768555)">16-Jun</text>
		</g>
		<g>
			<text fill="#595959" font-family="Verdana,Open Sans,DejaVu Sans,sans-serif" font-weight="400" font-size="41" transform="matrix(6.12323e-17 -1 1 6.12323e-17 3418.808955078125 1177.2768478393555)">14-Jul</text>
		</g>
		<g>
			<text fill="#595959" font-family="Verdana,Open Sans,DejaVu Sans,sans-serif" font-weight="400" font-size="41" transform="matrix(6.12323e-17 -1 1 6.12323e-17 3504.439140625 1206.90576171875)">11-Aug</text>
		</g>
		<g>
			<text fill="#595959" font-family="Verdana,Open Sans,DejaVu Sans,sans-serif" font-weight="400" font-size="41" transform="matrix(6.12323e-17 -1 1 6.12323e-17 3590.049306640625 1204.38330078125)">08-Sep</text>
		</g>
		<g>
			<text fill="#595959" font-family="Verdana,Open Sans,DejaVu Sans,sans-serif" font-weight="400" font-size="41" transform="matrix(6.12323e-17 -1 1 6.12323e-17 3670.764697265625 1201.1000900268555)">06-Oct</text>
		</g>
		<g>
			<text fill="#595959" font-family="Verdana,Open Sans,DejaVu Sans,sans-serif" font-weight="400" font-size="41" transform="matrix(6.12323e-17 -1 1 6.12323e-17 3756.204697265625 1211.43017578125)">03-Nov</text>
		</g>
		<g>
			<text fill="#595959" font-family="Verdana,Open Sans,DejaVu Sans,sans-serif" font-weight="400" font-size="41" transform="matrix(6.12323e-17 -1 1 6.12323e-17 3841.644697265625 1207.0859375)">01-Dec</text>
		</g>
		<g>
			<text fill="#595959" font-family="Verdana,Open Sans,DejaVu Sans,sans-serif" font-weight="400" font-size="41" transform="matrix(6.12323e-17 -1 1 6.12323e-17 3927.064677734375 1207.1259765625)">29-Dec</text>
		</g>
		<g>
			<text fill="#595959" font-family="Verdana,Open Sans,DejaVu Sans,sans-serif" font-weight="400" font-size="41" transform="matrix(6.12323e-17 -1 1 6.12323e-17 4016.1582421875 1191.6909103393555)">26-Jan</text>
		</g>
		<g>
			<text fill="#595959" font-family="Verdana,Open Sans,DejaVu Sans,sans-serif" font-weight="400" font-size="41" transform="matrix(6.12323e-17 -1 1 6.12323e-17 4098.675390625 1203.08203125)">23-Feb</text>
		</g>
		<g>
			<text fill="#595959" font-family="Verdana,Open Sans,DejaVu Sans,sans-serif" font-weight="400" font-size="41" transform="matrix(6.12323e-17 -1 1 6.12323e-17 4183.384677734375 1212.05078125)">23-Mar</text>
		</g>
		<g>
			<text fill="#595959" font-family="Verdana,Open Sans,DejaVu Sans,sans-serif" font-weight="400" font-size="41" transform="matrix(6.12323e-17 -1 1 6.12323e-17 4273.569306640625 1203.3022384643555)">20-Apr</text>
		</g>
		<g>
			<text fill="#595959" font-family="Verdana,Open Sans,DejaVu Sans,sans-serif" font-weight="400" font-size="41" transform="matrix(1 0 0 1 3169.14111328125 1050)">0</text>
		</g>
		<g>
			<text fill="#595959" font-family="Verdana,Open Sans,DejaVu Sans,sans-serif" font-weight="400" font-size="41" transform="matrix(1 0 0 1 3095.689453125 922)">3,321</text>
		</g>
		<g>
			<text fill="#595959" font-family="Verdana,Open Sans,DejaVu Sans,sans-serif" font-weight="400" font-size="41" transform="matrix(1 0 0 1 3089.22314453125 794)">6,642</text>
		</g>
		<g>
			<text fill="#595959" font-family="Verdana,Open Sans,DejaVu Sans,sans-serif" font-weight="400" font-size="41" transform="matrix(1 0 0 1 3089.0029296875 666)">9,962</text>
		</g>
		<g>
			<text fill="#595959" font-family="Verdana,Open Sans,DejaVu Sans,sans-serif" font-weight="400" font-size="41" transform="matrix(1 0 0 1 3067.4018630981445 538)">13,283</text>
		</g>
		<g>
			<text fill="#595959" font-family="Verdana,Open Sans,DejaVu Sans,sans-serif" font-weight="400" font-size="41" transform="matrix(1 0 0 1 3065.8203201293945 410)">16,604</text>
		</g>
		<g>
			<text fill="#595959" font-family="Verdana,Open Sans,DejaVu Sans,sans-serif" font-weight="400" font-size="41" transform="matrix(1 0 0 1 3556.97119140625 1321)">Week Commencing</text>
		</g>
		<g>
			<text fill="#595959" font-family="Verdana,Open Sans,DejaVu Sans,sans-serif" font-weight="400" font-size="46" transform="matrix(6.12323e-17 -1 1 6.12323e-17 3019.73 1011.673828125)">Number of Browser Profiles</text>
		</g>
		<rect x="2918.5" y="347.5" width="1760" height="1043" stroke="#D9D9D9" stroke-width="3.4375" stroke-linejoin="round" stroke-miterlimit="10" fill="none" />
		<g>
			<path d="M3228.5 1038 3249.86 1038 3271.22 1038 3292.58 1038 3313.94 1038 3335.3 1038 3356.66 1038 3378.02 1038 3399.38 1038 3420.74 1038 3442.1 1038 3463.46 1038 3484.82 1038 3506.18 1038 3527.54 1038 3548.9 1038 3570.26 1038 3591.62 1038 3612.98 1038 3634.34 1038 3655.7 1038 3677.06 1038 3698.42 1038 3719.7799999999997 1038 3741.14 1038 3762.5 1038 3783.86 1038 3805.2200000000003 1038 3826.58 1038 3847.94 1038 3869.3 1038 3890.66 1038 3912.02 1038 3933.38 1038 3954.74 1038 3976.1 1038 3997.46 1038 4018.8199999999997 1038 4040.18 1038 4061.54 1038 4082.9 1038 4104.26 1038 4125.62 1038 4146.98 1038 4168.34 1038 4189.7 1038 4211.0599999999995 1038 4232.42 1038 4253.78 1038 4275.139999999999 1038 4296.5 1038 4296.5 532.8301614068899 4275.139999999999 533.6396049144785 4253.78 534.7188629245966 4232.42 535.5668513611179 4211.0599999999995 536.6075644423031 4189.7 537.6097325945556 4168.34 538.611900746808 4146.98 540.1151529751867 4125.62 540.8475066249098 4104.26 541.7725849192966 4082.9 542.427848711154 4061.54 543.5456516502048 4040.18 544.5478198024573 4018.8199999999997 545.0874488075162 3997.46 545.8968923151049 3976.1 546.6292459648278 3954.74 547.4386894724164 3933.38 547.5928691881475 3912.02 548.0554083353409 3890.66 548.5950373403999 3869.3 549.5972054926524 3847.94 550.8306432185016 3826.58 552.4495302336786 3805.2200000000003 552.757889665141 3783.86 553.8371476752591 3762.5 554.4538665381835 3741.14 555.8800289086967 3719.7799999999997 556.4582028426885 3698.42 557.7687304264033 3677.06 557.8843652132017 3655.7 558.732353649723 3634.34 559.7345218019755 3612.98 561.0065044567575 3591.62 561.7003131775476 3570.26 562.3170320404722 3548.9 563.5504697663214 3527.54 564.3599132739099 3506.18 565.246446639364 3484.82 566.2100698626837 3463.46 566.9809684413394 3442.1 567.7133220910624 3420.74 568.5613105275838 3399.38 568.9467598169117 3378.02 569.9103830402313 3356.66 571.1823656950132 3335.3 571.760539629005 3313.94 572.8783425680559 3292.58 574.1888701517707 3271.22 575.7692122380149 3249.86 576.848470248133 3228.5 577.8891833293183 3228.5 1038Z" fill="#005aa6" opacity="0.9" />
		</g>
		<g>
			<path d="M3228.5 577.8891833293183 3249.86 576.848470248133 3271.22 575.7692122380149 3292.58 574.1888701517707 3313.94 572.8783425680559 3335.3 571.760539629005 3356.66 571.1823656950132 3378.02 569.9103830402313 3399.38 568.9467598169117 3420.74 568.5613105275838 3442.1 567.7133220910624 3463.46 566.9809684413394 3484.82 566.2100698626837 3506.18 565.246446639364 3527.54 564.3599132739099 3548.9 563.5504697663214 3570.26 562.3170320404722 3591.62 561.7003131775476 3612.98 561.0065044567575 3634.34 559.7345218019755 3655.7 558.732353649723 3677.06 557.8843652132017 3698.42 557.7687304264033 3719.7799999999997 556.4582028426885 3741.14 555.8800289086967 3762.5 554.4538665381835 3783.86 553.8371476752591 3805.2200000000003 552.757889665141 3826.58 552.4495302336786 3847.94 550.8306432185016 3869.3 549.5972054926524 3890.66 548.5950373403999 3912.02 548.0554083353409 3933.38 547.5928691881475 3954.74 547.4386894724164 3976.1 546.6292459648278 3997.46 545.8968923151049 4018.8199999999997 545.0874488075162 4040.18 544.5478198024573 4061.54 543.5456516502048 4082.9 542.427848711154 4104.26 541.7725849192966 4125.62 540.8475066249098 4146.98 540.1151529751867 4168.34 538.611900746808 4189.7 537.6097325945556 4211.0599999999995 536.6075644423031 4232.42 535.5668513611179 4253.78 534.7188629245966 4275.139999999999 533.6396049144785 4296.5 532.8301614068899 4296.5 398.00000000000006 4275.139999999999 398.9636232233197 4253.78 400.31269573596734 4232.42 401.35340881715257 4211.0599999999995 402.6639364008673 4189.7 403.85882919778373 4168.34 405.13081185256567 4146.98 407.05805829920496 4125.62 407.94459166465924 4104.26 409.1780293905084 4082.9 410.2187424716936 4061.54 411.64490484220676 4040.18 412.83979763912316 4018.8199999999997 413.57215128884604 3997.46 415.15249337509044 3976.1 415.96193688267886 3954.74 416.92556010599867 3933.38 417.1182847506625 3912.02 417.65791375572155 3890.66 418.1975427607806 3869.3 419.5080703444953 3847.94 420.9727776439412 3826.58 422.7843893037822 3805.2200000000003 423.3625632377741 3783.86 424.6730908214889 3762.5 425.40544447121175 3741.14 426.985786557456 3719.7799999999997 427.75668513611174 3698.42 429.22139243555773 3677.06 429.3755721512889 3655.7 430.4933750903397 3634.34 431.61117802939054 3612.98 433.07588532883653 3591.62 433.9238737653578 3570.26 434.69477234401353 3548.9 436.0052999277283 3527.54 437.00746807998075 3506.18 437.9710913033004 3484.82 439.28161888701516 3463.46 440.1296073235365 3442.1 441.0932305468562 3420.74 442.05685377017596 3399.38 442.71211756203337 3378.02 443.98410021681525 3356.66 445.4488075162611 3335.3 446.1426162370513 3313.94 447.3760539629005 3292.58 448.80221633341375 3271.22 450.9221874247169 3249.86 452.194170079499 3228.5 453.4661527342809 3228.5 577.8891833293183Z" fill="#e62d39" opacity="0.9" />
		</g>
		<g>
			<rect x="4372" y="431" width="22.9995" height="23" fill="#005aa6" />
		</g>
		<g>
			<text fill="#595959" font-family="Verdana,Open Sans,DejaVu Sans,sans-serif" font-weight="400" font-size="41" transform="matrix(1 0 0 1 4404.56 454)">Web Browser</text>
		</g>
		<g>
			<rect x="4372" y="508" width="22.9995" height="23" fill="#e62d39" />
		</g>
		<g>
			<text fill="#595959" font-family="Verdana,Open Sans,DejaVu Sans,sans-serif" font-weight="400" font-size="41" transform="matrix(1 0 0 1 4404.56 531)">App</text>
		</g>
	</g>
</svg>
