<svg width="1763" height="1046"
    xmlns="http://www.w3.org/2000/svg"
	xmlns:xlink="http://www.w3.org/1999/xlink" xml:space="preserve" overflow="hidden">
	<defs>
		<clipPath id="clip0">
			<rect x="2917" y="346" width="1763" height="1046"/>
		</clipPath>
	</defs>
	<g clip-path="url(#clip0)" transform="translate(-2917 -346)">
		<rect x="2918" y="347" width="1760" height="1043" fill="#FFFFFF" />
		<g>
			<path d="
			M3228.5 974.532 4296.5 974.532
			M3228.5 910.53 4296.5 910.53
			M3228.5 846.528 4296.5 846.528
			M3228.5 781.526 4296.5 781.526
			M3228.5 717.524 4296.5 717.524
			M3228.5 653.522 4296.5 653.522
			M3228.5 589.52 4296.5 589.52
			M3228.5 525.517 4296.5 525.517
			M3228.5 461.515 4296.5 461.515
			M3228.5 397.5 4296.5 397.5" stroke="#D9D9D9" stroke-width="3.4375" stroke-linejoin="round" stroke-miterlimit="10" fill="none" />
		</g>
		<g>
			<path d="M 1038.5 4296.5 1038.5" stroke="#D9D9D9" stroke-width="3.4375" stroke-linejoin="round" stroke-miterlimit="10" fill="none" fill-rule="evenodd" />
		</g>
		<g>
			<text fill="#595959" font-family="Verdana,sans-serif" font-weight="400" font-size="41" transform="matrix(6.12323e-17 -1 1 6.12323e-17 3244.5 1227)">06-Nov</text>
		</g>
		<g>
			<text fill="#595959" font-family="Verdana,sans-serif" font-weight="400" font-size="41" transform="matrix(6.12323e-17 -1 1 6.12323e-17 3363.1666666666665 1226)">20-Nov</text>
		</g>
		<g>
			<text fill="#595959" font-family="Verdana,sans-serif" font-weight="400" font-size="41" transform="matrix(6.12323e-17 -1 1 6.12323e-17 3481.8333333333335 1225)">04-Dec</text>
		</g>
		<g>
			<text fill="#595959" font-family="Verdana,sans-serif" font-weight="400" font-size="41" transform="matrix(6.12323e-17 -1 1 6.12323e-17 3600.5 1222)">18-Dec</text>
		</g>
		<g>
			<text fill="#595959" font-family="Verdana,sans-serif" font-weight="400" font-size="41" transform="matrix(6.12323e-17 -1 1 6.12323e-17 3719.1666666666665 1212)">01-Jan</text>
		</g>
		<g>
			<text fill="#595959" font-family="Verdana,sans-serif" font-weight="400" font-size="41" transform="matrix(6.12323e-17 -1 1 6.12323e-17 3837.3333333333335 1209)">15-Jan</text>
		</g>
		<g>
			<text fill="#595959" font-family="Verdana,sans-serif" font-weight="400" font-size="41" transform="matrix(6.12323e-17 -1 1 6.12323e-17 3956.5 1211)">29-Jan</text>
		</g>
		<g>
			<text fill="#595959" font-family="Verdana,sans-serif" font-weight="400" font-size="41" transform="matrix(6.12323e-17 -1 1 6.12323e-17 4075.166666666667 1216)">12-Feb</text>
		</g>
		<g>
			<text fill="#595959" font-family="Verdana,sans-serif" font-weight="400" font-size="41" transform="matrix(6.12323e-17 -1 1 6.12323e-17 4193.833333333333 1218)">26-Feb</text>
		</g>
		<g>
			<text fill="#595959" font-family="Verdana,sans-serif" font-weight="400" font-size="41" transform="matrix(6.12323e-17 -1 1 6.12323e-17 4312 1222)">11-Mar</text>
		</g>
		<g>
			<text fill="#595959" font-family="Verdana,sans-serif" font-weight="400" font-size="41" transform="matrix(1 0 0 1 3167.5 1050)">0</text>
		</g>
		<g>
			<text fill="#595959" font-family="Verdana,sans-serif" font-weight="400" font-size="41" transform="matrix(1 0 0 1 3075.5 922)">2,731</text>
		</g>
		<g>
			<text fill="#595959" font-family="Verdana,sans-serif" font-weight="400" font-size="41" transform="matrix(1 0 0 1 3073.5 794)">5,462</text>
		</g>
		<g>
			<text fill="#595959" font-family="Verdana,sans-serif" font-weight="400" font-size="41" transform="matrix(1 0 0 1 3072.5 666)">8,192</text>
		</g>
		<g>
			<text fill="#595959" font-family="Verdana,sans-serif" font-weight="400" font-size="41" transform="matrix(1 0 0 1 3049.5 538)">10,923</text>
		</g>
		<g>
			<text fill="#595959" font-family="Verdana,sans-serif" font-weight="400" font-size="41" transform="matrix(1 0 0 1 3048.5 410)">13,654</text>
		</g>
		<g>
			<text fill="#595959" font-family="Verdana,sans-serif" font-weight="400" font-size="41" transform="matrix(1 0 0 1 3541.5 1321)">Week Commencing</text>
		</g>
		<g>
			<text fill="#595959" font-family="Verdana,sans-serif" font-weight="400" font-size="46" transform="matrix(6.12323e-17 -1 1 6.12323e-17 3019.73 1035.25)">Number of Browser Profiles</text>
		</g>
		<rect x="2918.5" y="347.5" width="1760" height="1043" stroke="#D9D9D9" stroke-width="3.4375" stroke-linejoin="round" stroke-miterlimit="10" fill="none" />
		<g>
			<path d="M3228.5 1038 3287.8333333333335 1038 3347.1666666666665 1038 3406.5 1038 3465.8333333333335 1038 3525.1666666666665 1038 3584.5 1038 3643.8333333333335 1038 3703.1666666666665 1038 3762.5 1038 3821.8333333333335 1038 3881.166666666667 1038 3940.5 1038 3999.8333333333335 1038 4059.166666666667 1038 4118.5 1038 4177.833333333333 1038 4237.166666666667 1038 4296.5 1038 4296.5 535.8995166251648 4237.166666666667 537.35257067526 4177.833333333333 539.7430789512231 4118.5 540.211806064157 4059.166666666667 540.5867877545043 3999.8333333333335 542.6023143401201 3940.5 544.6647136370295 3881.166666666667 545.2271861725502 3821.8333333333335 546.0708949758313 3762.5 546.7739856452322 3703.1666666666665 547.0552219129925 3643.8333333333335 547.0552219129925 3584.5 547.8520580049802 3525.1666666666665 548.3207851179142 3465.8333333333335 548.8832576534348 3406.5 549.8207118793027 3347.1666666666665 550.6175479712905 3287.8333333333335 551.3206386406914 3228.5 551.8362384649188 3228.5 1038Z" fill="#e62d39" opacity="0.9" />
		</g>
		<g>
			<path d="M3228.5 551.8362384649188 3287.8333333333335 551.3206386406914 3347.1666666666665 550.6175479712905 3406.5 549.8207118793027 3465.8333333333335 548.8832576534348 3525.1666666666665 548.3207851179142 3584.5 547.8520580049802 3643.8333333333335 547.0552219129925 3703.1666666666665 547.0552219129925 3762.5 546.7739856452322 3821.8333333333335 546.0708949758313 3881.166666666667 545.2271861725502 3940.5 544.6647136370295 3999.8333333333335 542.6023143401201 4059.166666666667 540.5867877545043 4118.5 540.211806064157 4177.833333333333 539.7430789512231 4237.166666666667 537.35257067526 4296.5 535.8995166251648 4296.5 398 4237.166666666667 399.4999267613887 4177.833333333333 402.17167130511206 4118.5 402.68727112933936 4059.166666666667 403.2497436648602 3999.8333333333335 405.54650651823636 3940.5 407.749523949026 3881.166666666667 408.4526146184269 3821.8333333333335 409.5306869781749 3762.5 410.374395781456 3703.1666666666665 410.7493774718031 3643.8333333333335 410.7493774718031 3584.5 411.7805771202578 3525.1666666666665 412.48366778965874 3465.8333333333335 413.09301303647277 3406.5 414.12421268492744 3347.1666666666665 415.0616669107954 3287.8333333333335 416.09286655925007 3228.5 416.795957228651 3228.5 551.8362384649188Z" fill="#005aa6" opacity="0.9" />
		</g>
		<g>
			<rect x="4372" y="431" width="22.9995" height="23" fill="#e62d39" />
		</g>
		<g>
			<text fill="#595959" font-family="Verdana,sans-serif" font-weight="400" font-size="41" transform="matrix(1 0 0 1 4404.56 454)">Web Browser</text>
		</g>
		<g>
			<rect x="4372" y="508" width="22.9995" height="23" fill="#005aa6" />
		</g>
		<g>
			<text fill="#595959" font-family="Verdana,sans-serif" font-weight="400" font-size="41" transform="matrix(1 0 0 1 4404.56 531)">App</text>
		</g>
	</g>
</svg>
