<svg width="1763" height="1046"
    xmlns="http://www.w3.org/2000/svg"
	xmlns:xlink="http://www.w3.org/1999/xlink" xml:space="preserve" overflow="hidden">
	<defs>
		<clipPath id="clip0">
			<rect x="2917" y="346" width="1763" height="1046"/>
		</clipPath>
	</defs>
	<g clip-path="url(#clip0)" transform="translate(-2917 -346)">
		<rect x="2918" y="347" width="1760" height="1043" fill="#FFFFFF" />
		<g>
			<path d="
			M3228.5 974.532 4296.5 974.532
			M3228.5 910.53 4296.5 910.53
			M3228.5 846.528 4296.5 846.528
			M3228.5 781.526 4296.5 781.526
			M3228.5 717.524 4296.5 717.524
			M3228.5 653.522 4296.5 653.522
			M3228.5 589.52 4296.5 589.52
			M3228.5 525.517 4296.5 525.517
			M3228.5 461.515 4296.5 461.515
			M3228.5 397.5 4296.5 397.5" stroke="#D9D9D9" stroke-width="3.4375" stroke-linejoin="round" stroke-miterlimit="10" fill="none" />
		</g>
		<g>
			<path d="M 1038.5 4296.5 1038.5" stroke="#D9D9D9" stroke-width="3.4375" stroke-linejoin="round" stroke-miterlimit="10" fill="none" fill-rule="evenodd" />
		</g>
		<g>
			<text fill="#595959" font-family="Verdana,Open Sans,DejaVu Sans,sans-serif" font-weight="400" font-size="41" transform="matrix(6.12323e-17 -1 1 6.12323e-17 3243.544677734375 1207.1259765625)">23-Dec</text>
		</g>
		<g>
			<text fill="#595959" font-family="Verdana,Open Sans,DejaVu Sans,sans-serif" font-weight="400" font-size="41" transform="matrix(6.12323e-17 -1 1 6.12323e-17 3332.65826171875 1191.6909103393555)">20-Jan</text>
		</g>
		<g>
			<text fill="#595959" font-family="Verdana,Open Sans,DejaVu Sans,sans-serif" font-weight="400" font-size="41" transform="matrix(6.12323e-17 -1 1 6.12323e-17 3415.155390625 1201.3203125)">17-Feb</text>
		</g>
		<g>
			<text fill="#595959" font-family="Verdana,Open Sans,DejaVu Sans,sans-serif" font-weight="400" font-size="41" transform="matrix(6.12323e-17 -1 1 6.12323e-17 3499.65447265625 1210.2890625)">17-Mar</text>
		</g>
		<g>
			<text fill="#595959" font-family="Verdana,Open Sans,DejaVu Sans,sans-serif" font-weight="400" font-size="41" transform="matrix(6.12323e-17 -1 1 6.12323e-17 3589.89916015625 1201.5405197143555)">14-Apr</text>
		</g>
		<g>
			<text fill="#595959" font-family="Verdana,Open Sans,DejaVu Sans,sans-serif" font-weight="400" font-size="41" transform="matrix(6.12323e-17 -1 1 6.12323e-17 3675.469287109375 1214.75341796875)">12-May</text>
		</g>
		<g>
			<text fill="#595959" font-family="Verdana,Open Sans,DejaVu Sans,sans-serif" font-weight="400" font-size="41" transform="matrix(6.12323e-17 -1 1 6.12323e-17 3759.8382421875 1192.2914962768555)">16-Jun</text>
		</g>
		<g>
			<text fill="#595959" font-family="Verdana,Open Sans,DejaVu Sans,sans-serif" font-weight="400" font-size="41" transform="matrix(6.12323e-17 -1 1 6.12323e-17 3846.008955078125 1177.2768478393555)">14-Jul</text>
		</g>
		<g>
			<text fill="#595959" font-family="Verdana,Open Sans,DejaVu Sans,sans-serif" font-weight="400" font-size="41" transform="matrix(6.12323e-17 -1 1 6.12323e-17 3931.639140625 1206.90576171875)">11-Aug</text>
		</g>
		<g>
			<text fill="#595959" font-family="Verdana,Open Sans,DejaVu Sans,sans-serif" font-weight="400" font-size="41" transform="matrix(6.12323e-17 -1 1 6.12323e-17 4017.249306640625 1204.38330078125)">08-Sep</text>
		</g>
		<g>
			<text fill="#595959" font-family="Verdana,Open Sans,DejaVu Sans,sans-serif" font-weight="400" font-size="41" transform="matrix(6.12323e-17 -1 1 6.12323e-17 4097.964697265625 1201.1000900268555)">06-Oct</text>
		</g>
		<g>
			<text fill="#595959" font-family="Verdana,Open Sans,DejaVu Sans,sans-serif" font-weight="400" font-size="41" transform="matrix(6.12323e-17 -1 1 6.12323e-17 4183.404697265625 1211.43017578125)">03-Nov</text>
		</g>
		<g>
			<text fill="#595959" font-family="Verdana,Open Sans,DejaVu Sans,sans-serif" font-weight="400" font-size="41" transform="matrix(6.12323e-17 -1 1 6.12323e-17 4268.844697265625 1207.0859375)">01-Dec</text>
		</g>
		<g>
			<text fill="#595959" font-family="Verdana,Open Sans,DejaVu Sans,sans-serif" font-weight="400" font-size="41" transform="matrix(1 0 0 1 3135.4482421875 1050)">0%</text>
		</g>
		<g>
			<text fill="#595959" font-family="Verdana,Open Sans,DejaVu Sans,sans-serif" font-weight="400" font-size="41" transform="matrix(1 0 0 1 3111.96533203125 922)">20%</text>
		</g>
		<g>
			<text fill="#595959" font-family="Verdana,Open Sans,DejaVu Sans,sans-serif" font-weight="400" font-size="41" transform="matrix(1 0 0 1 3110.82421875 794)">40%</text>
		</g>
		<g>
			<text fill="#595959" font-family="Verdana,Open Sans,DejaVu Sans,sans-serif" font-weight="400" font-size="41" transform="matrix(1 0 0 1 3112.3056640625 666)">60%</text>
		</g>
		<g>
			<text fill="#595959" font-family="Verdana,Open Sans,DejaVu Sans,sans-serif" font-weight="400" font-size="41" transform="matrix(1 0 0 1 3112.04541015625 538)">80%</text>
		</g>
		<g>
			<text fill="#595959" font-family="Verdana,Open Sans,DejaVu Sans,sans-serif" font-weight="400" font-size="41" transform="matrix(1 0 0 1 3090.2841796875 410)">100%</text>
		</g>
		<g>
			<text fill="#595959" font-family="Verdana,Open Sans,DejaVu Sans,sans-serif" font-weight="400" font-size="41" transform="matrix(1 0 0 1 3556.97119140625 1321)">Week Commencing</text>
		</g>
		<g>
			<text fill="#595959" font-family="Verdana,Open Sans,DejaVu Sans,sans-serif" font-weight="400" font-size="46" transform="matrix(6.12323e-17 -1 1 6.12323e-17 3019.73 936.7665710449219)">Requests (% of Total)</text>
		</g>
		<rect x="2918.5" y="347.5" width="1760" height="1043" stroke="#D9D9D9" stroke-width="3.4375" stroke-linejoin="round" stroke-miterlimit="10" fill="none" />
		<g>
			<path d="M3228.5 1038 3249.86 1038 3271.22 1038 3292.58 1038 3313.94 1038 3335.3 1038 3356.66 1038 3378.02 1038 3399.38 1038 3420.74 1038 3442.1 1038 3463.46 1038 3484.82 1038 3506.18 1038 3527.54 1038 3548.9 1038 3570.26 1038 3591.62 1038 3612.98 1038 3634.34 1038 3655.7 1038 3677.06 1038 3698.42 1038 3719.7799999999997 1038 3741.14 1038 3762.5 1038 3783.86 1038 3805.2200000000003 1038 3826.58 1038 3847.94 1038 3869.3 1038 3890.66 1038 3912.02 1038 3933.38 1038 3954.74 1038 3976.1 1038 3997.46 1038 4018.8199999999997 1038 4040.18 1038 4061.54 1038 4082.9 1038 4104.26 1038 4125.62 1038 4146.98 1038 4168.34 1038 4189.7 1038 4211.0599999999995 1038 4232.42 1038 4253.78 1038 4275.139999999999 1038 4296.5 1038 4296.5 665.1009269843557 4275.139999999999 665.0687170796807 4253.78 669.2508046624037 4232.42 668.8015383913383 4211.0599999999995 677.0310099621294 4189.7 715.6326502484551 4168.34 731.7898269041518 4146.98 731.6946718722857 4125.62 731.7814057156063 4104.26 731.7708258099874 4082.9 739.179471336138 4061.54 739.1723277843557 4040.18 742.0464154901043 4018.8199999999997 744.981700209997 3997.46 752.0924084860791 3976.1 755.2385923010361 3954.74 755.2502906288946 3933.38 758.1300732473312 3912.02 768.0870120946274 3890.66 768.0622682813855 3869.3 768.1168972047803 3847.94 768.2021370143037 3826.58 769.6067142131767 3805.2200000000003 775.05017459998 3783.86 787.2357258695183 3762.5 787.3092370373995 3741.14 790.9650389728295 3719.7799999999997 794.0813847270024 3698.42 798.9713729419469 3677.06 800.9582284854941 3655.7 802.40679729401 3634.34 803.7574587023792 3612.98 804.8795653060993 3591.62 805.7888012756688 3570.26 807.0111198010406 3548.9 808.4993663352112 3527.54 809.5719943405506 3506.18 811.2029187969463 3484.82 852.2537695350034 3463.46 852.7630633018019 3442.1 853.2128831068969 3420.74 853.9543792847422 3399.38 854.2311435356854 3378.02 854.4163260228272 3356.66 854.152790599432 3335.3 854.8107613955362 3313.94 855.5126405911369 3292.58 855.9651399118873 3271.22 855.998586062701 3249.86 856.0272811670625 3228.5 855.7572816447105 3228.5 1038Z" fill="#e62d39" opacity="0.9" />
		</g>
		<g>
			<path d="M3228.5 855.7572816447105 3249.86 856.0272811670625 3271.22 855.998586062701 3292.58 855.9651399118873 3313.94 855.5126405911369 3335.3 854.8107613955362 3356.66 854.152790599432 3378.02 854.4163260228272 3399.38 854.2311435356854 3420.74 853.9543792847422 3442.1 853.2128831068969 3463.46 852.7630633018019 3484.82 852.2537695350034 3506.18 811.2029187969463 3527.54 809.5719943405506 3548.9 808.4993663352112 3570.26 807.0111198010406 3591.62 805.7888012756688 3612.98 804.8795653060993 3634.34 803.7574587023792 3655.7 802.40679729401 3677.06 800.9582284854941 3698.42 798.9713729419469 3719.7799999999997 794.0813847270024 3741.14 790.9650389728295 3762.5 787.3092370373995 3783.86 787.2357258695183 3805.2200000000003 775.05017459998 3826.58 769.6067142131767 3847.94 768.2021370143037 3869.3 768.1168972047803 3890.66 768.0622682813855 3912.02 768.0870120946274 3933.38 758.1300732473312 3954.74 755.2502906288946 3976.1 755.2385923010361 3997.46 752.0924084860791 4018.8199999999997 744.981700209997 4040.18 742.0464154901043 4061.54 739.1723277843557 4082.9 739.179471336138 4104.26 731.7708258099874 4125.62 731.7814057156063 4146.98 731.6946718722857 4168.34 731.7898269041518 4189.7 715.6326502484551 4211.0599999999995 677.0310099621294 4232.42 668.8015383913383 4253.78 669.2508046624037 4275.139999999999 665.0687170796807 4296.5 665.1009269843557 4296.5 404.1006016590141 4275.139999999999 404.09929675944176 4253.78 404.0956381930635 4232.42 404.12948436436125 4211.0599999999995 403.9961122337051 4189.7 403.3494217541671 4168.34 402.9248624726996 4146.98 402.9072043922977 4125.62 402.90877584131425 4104.26 402.9298471234101 4082.9 402.60349792125623 4061.54 402.6099730048478 4040.18 402.37217547977207 4018.8199999999997 402.145050233926 3997.46 401.73578913608276 3976.1 401.57006086206655 3954.74 401.57128950627384 3933.38 401.4082896460906 3912.02 400.8924429074875 3890.66 400.88896921768406 3869.3 400.93900012801925 3847.94 401.0268406246156 3826.58 400.9092568701918 3805.2200000000003 400.9924926084992 3783.86 400.4880580221503 3762.5 400.49608136003764 3741.14 400.2916782230466 3719.7799999999997 400.1582567110125 3698.42 399.92908991218985 3677.06 399.9334041710106 3655.7 399.87976806541184 3634.34 399.8310554200369 3612.98 399.7742919400221 3591.62 399.72528771121347 3570.26 399.7049408705508 3548.9 400.00414490488384 3527.54 399.9604159100104 3506.18 399.99059261305484 3484.82 399.58374601455273 3463.46 399.60517704227266 3442.1 399.5826700216501 3420.74 398.7693921844428 3399.38 398.74888189337906 3378.02 398.7507940349151 3356.66 398.74677273073394 3335.3 398.74113436176054 3313.94 398.7379557747454 3292.58 398.70704867301595 3271.22 398.70882925199 3249.86 398.70085746190506 3228.5 398.6853554285047 3228.5 855.7572816447105Z" fill="#005aa6" opacity="0.9" />
		</g>
		<g>
			<path d="M3228.5 398.6853554285047 3249.86 398.70085746190506 3271.22 398.70882925199 3292.58 398.70704867301595 3313.94 398.7379557747454 3335.3 398.74113436176054 3356.66 398.74677273073394 3378.02 398.7507940349151 3399.38 398.74888189337906 3420.74 398.7693921844428 3442.1 399.5826700216501 3463.46 399.60517704227266 3484.82 399.58374601455273 3506.18 399.99059261305484 3527.54 399.9604159100104 3548.9 400.00414490488384 3570.26 399.7049408705508 3591.62 399.72528771121347 3612.98 399.7742919400221 3634.34 399.8310554200369 3655.7 399.87976806541184 3677.06 399.9334041710106 3698.42 399.92908991218985 3719.7799999999997 400.1582567110125 3741.14 400.2916782230466 3762.5 400.49608136003764 3783.86 400.4880580221503 3805.2200000000003 400.9924926084992 3826.58 400.9092568701918 3847.94 401.0268406246156 3869.3 400.93900012801925 3890.66 400.88896921768406 3912.02 400.8924429074875 3933.38 401.4082896460906 3954.74 401.57128950627384 3976.1 401.57006086206655 3997.46 401.73578913608276 4018.8199999999997 402.145050233926 4040.18 402.37217547977207 4061.54 402.6099730048478 4082.9 402.60349792125623 4104.26 402.9298471234101 4125.62 402.90877584131425 4146.98 402.9072043922977 4168.34 402.9248624726996 4189.7 403.3494217541671 4211.0599999999995 403.9961122337051 4232.42 404.12948436436125 4253.78 404.0956381930635 4275.139999999999 404.09929675944176 4296.5 404.1006016590141 4296.5 397.99999999999994 4275.139999999999 397.9999999999999 4253.78 398.0000000000001 4232.42 398 4211.0599999999995 398 4189.7 397.9999999999999 4168.34 398.00000000000006 4146.98 397.99999999999994 4125.62 397.9999999999999 4104.26 398.00000000000006 4082.9 398.00000000000006 4061.54 397.99999999999994 4040.18 397.99999999999994 4018.8199999999997 397.99999999999994 3997.46 398 3976.1 397.9999999999999 3954.74 397.99999999999994 3933.38 397.99999999999994 3912.02 398 3890.66 398.00000000000006 3869.3 398.00000000000006 3847.94 397.99999999999994 3826.58 397.99999999999994 3805.2200000000003 397.99999999999994 3783.86 398.0000000000001 3762.5 398 3741.14 398.00000000000006 3719.7799999999997 398 3698.42 398 3677.06 398 3655.7 398 3634.34 398 3612.98 397.99999999999994 3591.62 397.9999999999999 3570.26 398 3548.9 398 3527.54 397.99999999999994 3506.18 398.00000000000006 3484.82 398 3463.46 398 3442.1 398 3420.74 397.99999999999994 3399.38 398 3378.02 397.99999999999994 3356.66 398 3335.3 398 3313.94 398.00000000000006 3292.58 398 3271.22 397.99999999999994 3249.86 398 3228.5 398 3228.5 398.6853554285047Z" fill="#393d41" opacity="0.9" />
		</g>
		<g>
			<rect x="4372" y="431" width="22.9995" height="23" fill="#e62d39" />
		</g>
		<g>
			<text fill="#595959" font-family="Verdana,Open Sans,DejaVu Sans,sans-serif" font-weight="400" font-size="41" transform="matrix(1 0 0 1 4404.56 454)">App</text>
		</g>
		<g>
			<rect x="4372" y="508" width="22.9995" height="23" fill="#005aa6" />
		</g>
		<g>
			<text fill="#595959" font-family="Verdana,Open Sans,DejaVu Sans,sans-serif" font-weight="400" font-size="41" transform="matrix(1 0 0 1 4404.56 531)">Web Browser</text>
		</g>
		<g>
			<rect x="4372" y="585" width="22.9995" height="23" fill="#393d41" />
		</g>
		<g>
			<text fill="#595959" font-family="Verdana,Open Sans,DejaVu Sans,sans-serif" font-weight="400" font-size="41" transform="matrix(1 0 0 1 4404.56 608)">Unclassified</text>
		</g>
	</g>
</svg>
