<svg width="1763" height="1046"
    xmlns="http://www.w3.org/2000/svg"
	xmlns:xlink="http://www.w3.org/1999/xlink" xml:space="preserve" overflow="hidden">
	<defs>
		<clipPath id="clip0">
			<rect x="2917" y="346" width="1763" height="1046"/>
		</clipPath>
	</defs>
	<g clip-path="url(#clip0)" transform="translate(-2917 -346)">
		<rect x="2918" y="347" width="1760" height="1043" fill="#FFFFFF" />
		<g>
			<path d="
			M3228.5 974.532 4296.5 974.532
			M3228.5 910.53 4296.5 910.53
			M3228.5 846.528 4296.5 846.528
			M3228.5 781.526 4296.5 781.526
			M3228.5 717.524 4296.5 717.524
			M3228.5 653.522 4296.5 653.522
			M3228.5 589.52 4296.5 589.52
			M3228.5 525.517 4296.5 525.517
			M3228.5 461.515 4296.5 461.515
			M3228.5 397.5 4296.5 397.5" stroke="#D9D9D9" stroke-width="3.4375" stroke-linejoin="round" stroke-miterlimit="10" fill="none" />
		</g>
		<g>
			<path d="M 1038.5 4296.5 1038.5" stroke="#D9D9D9" stroke-width="3.4375" stroke-linejoin="round" stroke-miterlimit="10" fill="none" fill-rule="evenodd" />
		</g>
		<g>
			<text fill="#595959" font-family="Verdana,Open Sans,DejaVu Sans,sans-serif" font-weight="400" font-size="41" transform="matrix(6.12323e-17 -1 1 6.12323e-17 3243.564697265625 1201.1401290893555)">21-Oct</text>
		</g>
		<g>
			<text fill="#595959" font-family="Verdana,Open Sans,DejaVu Sans,sans-serif" font-weight="400" font-size="41" transform="matrix(6.12323e-17 -1 1 6.12323e-17 3330.728351203763 1209.70849609375)">18-Nov</text>
		</g>
		<g>
			<text fill="#595959" font-family="Verdana,Open Sans,DejaVu Sans,sans-serif" font-weight="400" font-size="41" transform="matrix(6.12323e-17 -1 1 6.12323e-17 3417.9120246731504 1207.1259765625)">23-Dec</text>
		</g>
		<g>
			<text fill="#595959" font-family="Verdana,Open Sans,DejaVu Sans,sans-serif" font-weight="400" font-size="41" transform="matrix(6.12323e-17 -1 1 6.12323e-17 3508.7692821269134 1191.6909103393555)">20-Jan</text>
		</g>
		<g>
			<text fill="#595959" font-family="Verdana,Open Sans,DejaVu Sans,sans-serif" font-weight="400" font-size="41" transform="matrix(6.12323e-17 -1 1 6.12323e-17 3593.010084502551 1201.3203125)">17-Feb</text>
		</g>
		<g>
			<text fill="#595959" font-family="Verdana,Open Sans,DejaVu Sans,sans-serif" font-weight="400" font-size="41" transform="matrix(6.12323e-17 -1 1 6.12323e-17 3679.252840003189 1210.2890625)">17-Mar</text>
		</g>
		<g>
			<text fill="#595959" font-family="Verdana,Open Sans,DejaVu Sans,sans-serif" font-weight="400" font-size="41" transform="matrix(6.12323e-17 -1 1 6.12323e-17 3771.2412009725767 1201.5405197143555)">14-Apr</text>
		</g>
		<g>
			<text fill="#595959" font-family="Verdana,Open Sans,DejaVu Sans,sans-serif" font-weight="400" font-size="41" transform="matrix(6.12323e-17 -1 1 6.12323e-17 3858.555001395089 1214.75341796875)">12-May</text>
		</g>
		<g>
			<text fill="#595959" font-family="Verdana,Open Sans,DejaVu Sans,sans-serif" font-weight="400" font-size="41" transform="matrix(6.12323e-17 -1 1 6.12323e-17 3944.667629942602 1192.2914962768555)">16-Jun</text>
		</g>
		<g>
			<text fill="#595959" font-family="Verdana,Open Sans,DejaVu Sans,sans-serif" font-weight="400" font-size="41" transform="matrix(6.12323e-17 -1 1 6.12323e-17 4032.5820163026146 1177.2768478393555)">14-Jul</text>
		</g>
		<g>
			<text fill="#595959" font-family="Verdana,Open Sans,DejaVu Sans,sans-serif" font-weight="400" font-size="41" transform="matrix(6.12323e-17 -1 1 6.12323e-17 4119.955875318878 1206.90576171875)">11-Aug</text>
		</g>
		<g>
			<text fill="#595959" font-family="Verdana,Open Sans,DejaVu Sans,sans-serif" font-weight="400" font-size="41" transform="matrix(6.12323e-17 -1 1 6.12323e-17 4207.3097148038905 1204.38330078125)">08-Sep</text>
		</g>
		<g>
			<text fill="#595959" font-family="Verdana,Open Sans,DejaVu Sans,sans-serif" font-weight="400" font-size="41" transform="matrix(6.12323e-17 -1 1 6.12323e-17 4289.7687788982785 1201.1000900268555)">06-Oct</text>
		</g>
		<g>
			<text fill="#595959" font-family="Verdana,Open Sans,DejaVu Sans,sans-serif" font-weight="400" font-size="41" transform="matrix(1 0 0 1 3135.4482421875 1050)">0%</text>
		</g>
		<g>
			<text fill="#595959" font-family="Verdana,Open Sans,DejaVu Sans,sans-serif" font-weight="400" font-size="41" transform="matrix(1 0 0 1 3111.96533203125 922)">20%</text>
		</g>
		<g>
			<text fill="#595959" font-family="Verdana,Open Sans,DejaVu Sans,sans-serif" font-weight="400" font-size="41" transform="matrix(1 0 0 1 3110.82421875 794)">40%</text>
		</g>
		<g>
			<text fill="#595959" font-family="Verdana,Open Sans,DejaVu Sans,sans-serif" font-weight="400" font-size="41" transform="matrix(1 0 0 1 3112.3056640625 666)">60%</text>
		</g>
		<g>
			<text fill="#595959" font-family="Verdana,Open Sans,DejaVu Sans,sans-serif" font-weight="400" font-size="41" transform="matrix(1 0 0 1 3112.04541015625 538)">80%</text>
		</g>
		<g>
			<text fill="#595959" font-family="Verdana,Open Sans,DejaVu Sans,sans-serif" font-weight="400" font-size="41" transform="matrix(1 0 0 1 3090.2841796875 410)">100%</text>
		</g>
		<g>
			<text fill="#595959" font-family="Verdana,Open Sans,DejaVu Sans,sans-serif" font-weight="400" font-size="41" transform="matrix(1 0 0 1 3556.97119140625 1321)">Week Commencing</text>
		</g>
		<g>
			<text fill="#595959" font-family="Verdana,Open Sans,DejaVu Sans,sans-serif" font-weight="400" font-size="46" transform="matrix(6.12323e-17 -1 1 6.12323e-17 3019.73 936.7665710449219)">Requests (% of Total)</text>
		</g>
		<rect x="2918.5" y="347.5" width="1760" height="1043" stroke="#D9D9D9" stroke-width="3.4375" stroke-linejoin="round" stroke-miterlimit="10" fill="none" />
		<g>
			<path d="M3228.5 1038 3250.295918367347 1038 3272.091836734694 1038 3293.887755102041 1038 3315.683673469388 1038 3337.4795918367345 1038 3359.2755102040815 1038 3381.0714285714284 1038 3402.8673469387754 1038 3424.6632653061224 1038 3446.4591836734694 1038 3468.2551020408164 1038 3490.0510204081634 1038 3511.8469387755104 1038 3533.6428571428573 1038 3555.4387755102043 1038 3577.234693877551 1038 3599.030612244898 1038 3620.826530612245 1038 3642.622448979592 1038 3664.418367346939 1038 3686.214285714286 1038 3708.0102040816328 1038 3729.8061224489797 1038 3751.6020408163267 1038 3773.3979591836733 1038 3795.1938775510203 1038 3816.9897959183672 1038 3838.785714285714 1038 3860.581632653061 1038 3882.377551020408 1038 3904.173469387755 1038 3925.969387755102 1038 3947.765306122449 1038 3969.5612244897957 1038 3991.357142857143 1038 4013.1530612244896 1038 4034.9489795918366 1038 4056.7448979591836 1038 4078.5408163265306 1038 4100.336734693878 1038 4122.132653061224 1038 4143.928571428572 1038 4165.724489795918 1038 4187.5204081632655 1038 4209.316326530612 1038 4231.1122448979595 1038 4252.908163265306 1038 4274.7040816326535 1038 4296.5 1038 4296.5 709.1590213134227 4274.7040816326535 701.4240265851182 4252.908163265306 701.4376452204921 4231.1122448979595 698.3257599896677 4209.316326530612 695.163350023929 4187.5204081632655 687.6433806500037 4165.724489795918 684.3314685610305 4143.928571428572 684.3209988773792 4122.132653061224 681.2782163987595 4100.336734693878 670.8054308128601 4078.5408163265306 670.8267009362985 4056.7448979591836 670.8221029232388 4034.9489795918366 670.8247036103119 4013.1530612244896 669.3025426570151 3991.357142857143 663.9423180085192 3969.5612244897957 651.252332152632 3947.765306122449 651.1868443226381 3925.969387755102 647.3266392502171 3904.173469387755 644.07687198401 3882.377551020408 638.9577169702429 3860.581632653061 636.9751756855164 3838.785714285714 635.4729707714018 3816.9897959183672 634.0735967176577 3795.1938775510203 632.8947266339228 3773.3979591836733 631.9364864355447 3751.6020408163267 630.6938210695101 3729.8061224489797 629.5047785696727 3708.0102040816328 628.3884215694598 3686.214285714286 626.7876738161085 3664.418367346939 585.3299764795494 3642.622448979592 584.8421137404707 3620.826530612245 584.3697869147531 3599.030612244898 582.8150128997006 3577.234693877551 582.5177383576936 3555.4387755102043 582.3344680120879 3533.6428571428573 582.5939821313019 3511.8469387755104 581.9303729662242 3490.0510204081634 581.2253151836085 3468.2551020408164 580.7419087611287 3446.4591836734694 580.710243189289 3424.6632653061224 580.6735762948426 3402.8673469387754 580.9280737837942 3381.0714285714284 581.4872454103777 3359.2755102040815 582.4062939611431 3337.4795918367345 569.6826475023468 3315.683673469388 569.8912689965251 3293.887755102041 569.9302361292804 3272.091836734694 569.8349942572809 3250.295918367347 569.5040370531727 3228.5 717.6623105620715 3228.5 1038Z" fill="#e62d39" opacity="0.9" />
		</g>
		<g>
			<path d="M3228.5 717.6623105620715 3250.295918367347 569.5040370531727 3272.091836734694 569.8349942572809 3293.887755102041 569.9302361292804 3315.683673469388 569.8912689965251 3337.4795918367345 569.6826475023468 3359.2755102040815 582.4062939611431 3381.0714285714284 581.4872454103777 3402.8673469387754 580.9280737837942 3424.6632653061224 580.6735762948426 3446.4591836734694 580.710243189289 3468.2551020408164 580.7419087611287 3490.0510204081634 581.2253151836085 3511.8469387755104 581.9303729662242 3533.6428571428573 582.5939821313019 3555.4387755102043 582.3344680120879 3577.234693877551 582.5177383576936 3599.030612244898 582.8150128997006 3620.826530612245 584.3697869147531 3642.622448979592 584.8421137404707 3664.418367346939 585.3299764795494 3686.214285714286 626.7876738161085 3708.0102040816328 628.3884215694598 3729.8061224489797 629.5047785696727 3751.6020408163267 630.6938210695101 3773.3979591836733 631.9364864355447 3795.1938775510203 632.8947266339228 3816.9897959183672 634.0735967176577 3838.785714285714 635.4729707714018 3860.581632653061 636.9751756855164 3882.377551020408 638.9577169702429 3904.173469387755 644.07687198401 3925.969387755102 647.3266392502171 3947.765306122449 651.1868443226381 3969.5612244897957 651.252332152632 3991.357142857143 663.9423180085192 4013.1530612244896 669.3025426570151 4034.9489795918366 670.8247036103119 4056.7448979591836 670.8221029232388 4078.5408163265306 670.8267009362985 4100.336734693878 670.8054308128601 4122.132653061224 681.2782163987595 4143.928571428572 684.3209988773792 4165.724489795918 684.3314685610305 4187.5204081632655 687.6433806500037 4209.316326530612 695.163350023929 4231.1122448979595 698.3257599896677 4252.908163265306 701.4376452204921 4274.7040816326535 701.4240265851182 4296.5 709.1590213134227 4296.5 402.92984712341007 4274.7040816326535 402.6034979212562 4252.908163265306 402.6099730048478 4231.1122448979595 402.37217547977207 4209.316326530612 402.145050233926 4187.5204081632655 401.73578913608276 4165.724489795918 401.57006086206667 4143.928571428572 401.57128950627384 4122.132653061224 401.4082896460907 4100.336734693878 400.89244290748746 4078.5408163265306 400.88896921768395 4056.7448979591836 400.9390001280192 4034.9489795918366 401.0268406246156 4013.1530612244896 400.9092568701918 3991.357142857143 400.9924926084992 3969.5612244897957 400.48805802215026 3947.765306122449 400.4960813600376 3925.969387755102 400.2916782230465 3904.173469387755 400.1582567110125 3882.377551020408 399.92908991218985 3860.581632653061 399.9334041710105 3838.785714285714 399.8797680654118 3816.9897959183672 399.8310554200368 3795.1938775510203 399.77429194002207 3773.3979591836733 399.72528771121347 3751.6020408163267 399.7049408705508 3729.8061224489797 400.0041449048839 3708.0102040816328 399.9604159100104 3686.214285714286 399.99059261305473 3664.418367346939 399.5837460145528 3642.622448979592 399.60517704227266 3620.826530612245 399.58267002165013 3599.030612244898 398.76939218444284 3577.234693877551 398.748881893379 3555.4387755102043 398.75079403491515 3533.6428571428573 398.74677273073394 3511.8469387755104 398.7411343617605 3490.0510204081634 398.7379557747454 3468.2551020408164 398.70704867301595 3446.4591836734694 398.70882925199004 3424.6632653061224 398.7008574619051 3402.8673469387754 398.68535542850464 3381.0714285714284 398.67102339002776 3359.2755102040815 398.67520739706913 3337.4795918367345 399.27182314363034 3315.683673469388 399.262582558681 3293.887755102041 399.27351700187455 3272.091836734694 399.28077369767425 3250.295918367347 399.29931326714217 3228.5 463.6506199133046 3228.5 717.6623105620715Z" fill="#005aa6" opacity="0.9" />
		</g>
		<g>
			<path d="M3228.5 463.6506199133046 3250.295918367347 399.29931326714217 3272.091836734694 399.28077369767425 3293.887755102041 399.27351700187455 3315.683673469388 399.262582558681 3337.4795918367345 399.27182314363034 3359.2755102040815 398.67520739706913 3381.0714285714284 398.67102339002776 3402.8673469387754 398.68535542850464 3424.6632653061224 398.7008574619051 3446.4591836734694 398.70882925199004 3468.2551020408164 398.70704867301595 3490.0510204081634 398.7379557747454 3511.8469387755104 398.7411343617605 3533.6428571428573 398.74677273073394 3555.4387755102043 398.75079403491515 3577.234693877551 398.748881893379 3599.030612244898 398.76939218444284 3620.826530612245 399.58267002165013 3642.622448979592 399.60517704227266 3664.418367346939 399.5837460145528 3686.214285714286 399.99059261305473 3708.0102040816328 399.9604159100104 3729.8061224489797 400.0041449048839 3751.6020408163267 399.7049408705508 3773.3979591836733 399.72528771121347 3795.1938775510203 399.77429194002207 3816.9897959183672 399.8310554200368 3838.785714285714 399.8797680654118 3860.581632653061 399.9334041710105 3882.377551020408 399.92908991218985 3904.173469387755 400.1582567110125 3925.969387755102 400.2916782230465 3947.765306122449 400.4960813600376 3969.5612244897957 400.48805802215026 3991.357142857143 400.9924926084992 4013.1530612244896 400.9092568701918 4034.9489795918366 401.0268406246156 4056.7448979591836 400.9390001280192 4078.5408163265306 400.88896921768395 4100.336734693878 400.89244290748746 4122.132653061224 401.4082896460907 4143.928571428572 401.57128950627384 4165.724489795918 401.57006086206667 4187.5204081632655 401.73578913608276 4209.316326530612 402.145050233926 4231.1122448979595 402.37217547977207 4252.908163265306 402.6099730048478 4274.7040816326535 402.6034979212562 4296.5 402.92984712341007 4296.5 398 4274.7040816326535 398 4252.908163265306 397.99999999999994 4231.1122448979595 397.99999999999994 4209.316326530612 397.99999999999994 4187.5204081632655 398 4165.724489795918 398 4143.928571428572 397.99999999999994 4122.132653061224 398 4100.336734693878 397.99999999999994 4078.5408163265306 397.99999999999994 4056.7448979591836 398 4034.9489795918366 397.99999999999994 4013.1530612244896 397.99999999999994 3991.357142857143 397.99999999999994 3969.5612244897957 398.00000000000006 3947.765306122449 397.99999999999994 3925.969387755102 398 3904.173469387755 398 3882.377551020408 398 3860.581632653061 397.99999999999994 3838.785714285714 397.99999999999994 3816.9897959183672 397.99999999999994 3795.1938775510203 397.9999999999999 3773.3979591836733 397.9999999999999 3751.6020408163267 398 3729.8061224489797 398.00000000000006 3708.0102040816328 397.99999999999994 3686.214285714286 397.99999999999994 3664.418367346939 398.00000000000006 3642.622448979592 398 3620.826530612245 398.00000000000006 3599.030612244898 398 3577.234693877551 397.99999999999994 3555.4387755102043 398 3533.6428571428573 398 3511.8469387755104 397.99999999999994 3490.0510204081634 398.00000000000006 3468.2551020408164 398 3446.4591836734694 398 3424.6632653061224 398.00000000000006 3402.8673469387754 397.99999999999994 3381.0714285714284 398.00000000000006 3359.2755102040815 398.00000000000006 3337.4795918367345 398 3315.683673469388 398 3293.887755102041 398.00000000000006 3272.091836734694 397.99999999999994 3250.295918367347 398 3228.5 398 3228.5 463.6506199133046Z" fill="#393d41" opacity="0.9" />
		</g>
		<g>
			<rect x="4372" y="431" width="22.9995" height="23" fill="#e62d39" />
		</g>
		<g>
			<text fill="#595959" font-family="Verdana,Open Sans,DejaVu Sans,sans-serif" font-weight="400" font-size="41" transform="matrix(1 0 0 1 4404.56 454)">Web Browser</text>
		</g>
		<g>
			<rect x="4372" y="508" width="22.9995" height="23" fill="#005aa6" />
		</g>
		<g>
			<text fill="#595959" font-family="Verdana,Open Sans,DejaVu Sans,sans-serif" font-weight="400" font-size="41" transform="matrix(1 0 0 1 4404.56 531)">App</text>
		</g>
		<g>
			<rect x="4372" y="585" width="22.9995" height="23" fill="#393d41" />
		</g>
		<g>
			<text fill="#595959" font-family="Verdana,Open Sans,DejaVu Sans,sans-serif" font-weight="400" font-size="41" transform="matrix(1 0 0 1 4404.56 608)">Unclassified</text>
		</g>
	</g>
</svg>
