<svg width="1763" height="1046"
    xmlns="http://www.w3.org/2000/svg"
	xmlns:xlink="http://www.w3.org/1999/xlink" xml:space="preserve" overflow="hidden">
	<defs>
		<clipPath id="clip0">
			<rect x="2917" y="346" width="1763" height="1046"/>
		</clipPath>
	</defs>
	<g clip-path="url(#clip0)" transform="translate(-2917 -346)">
		<rect x="2918" y="347" width="1760" height="1043" fill="#FFFFFF" />
		<g>
			<path d="
			M3228.5 974.532 4296.5 974.532
			M3228.5 910.53 4296.5 910.53
			M3228.5 846.528 4296.5 846.528
			M3228.5 781.526 4296.5 781.526
			M3228.5 717.524 4296.5 717.524
			M3228.5 653.522 4296.5 653.522
			M3228.5 589.52 4296.5 589.52
			M3228.5 525.517 4296.5 525.517
			M3228.5 461.515 4296.5 461.515
			M3228.5 397.5 4296.5 397.5" stroke="#D9D9D9" stroke-width="3.4375" stroke-linejoin="round" stroke-miterlimit="10" fill="none" />
		</g>
		<g>
			<path d="M 1038.5 4296.5 1038.5" stroke="#D9D9D9" stroke-width="3.4375" stroke-linejoin="round" stroke-miterlimit="10" fill="none" fill-rule="evenodd" />
		</g>
		<g>
			<text fill="#595959" font-family="Verdana,Open Sans,DejaVu Sans,sans-serif" font-weight="400" font-size="41" transform="matrix(6.12323e-17 -1 1 6.12323e-17 3248.269287109375 1203.3022384643555)">21-Apr</text>
		</g>
		<g>
			<text fill="#595959" font-family="Verdana,Open Sans,DejaVu Sans,sans-serif" font-weight="400" font-size="41" transform="matrix(6.12323e-17 -1 1 6.12323e-17 3333.709287109375 1214.75341796875)">19-May</text>
		</g>
		<g>
			<text fill="#595959" font-family="Verdana,Open Sans,DejaVu Sans,sans-serif" font-weight="400" font-size="41" transform="matrix(6.12323e-17 -1 1 6.12323e-17 3418.0782421875 1194.0532150268555)">23-Jun</text>
		</g>
		<g>
			<text fill="#595959" font-family="Verdana,Open Sans,DejaVu Sans,sans-serif" font-weight="400" font-size="41" transform="matrix(6.12323e-17 -1 1 6.12323e-17 3504.248955078125 1179.0385665893555)">21-Jul</text>
		</g>
		<g>
			<text fill="#595959" font-family="Verdana,Open Sans,DejaVu Sans,sans-serif" font-weight="400" font-size="41" transform="matrix(6.12323e-17 -1 1 6.12323e-17 3590.029287109375 1206.90576171875)">18-Aug</text>
		</g>
		<g>
			<text fill="#595959" font-family="Verdana,Open Sans,DejaVu Sans,sans-serif" font-weight="400" font-size="41" transform="matrix(6.12323e-17 -1 1 6.12323e-17 3675.469287109375 1202.66162109375)">15-Sep</text>
		</g>
		<g>
			<text fill="#595959" font-family="Verdana,Open Sans,DejaVu Sans,sans-serif" font-weight="400" font-size="41" transform="matrix(6.12323e-17 -1 1 6.12323e-17 3756.204697265625 1199.3784103393555)">13-Oct</text>
		</g>
		<g>
			<text fill="#595959" font-family="Verdana,Open Sans,DejaVu Sans,sans-serif" font-weight="400" font-size="41" transform="matrix(6.12323e-17 -1 1 6.12323e-17 3841.644697265625 1209.70849609375)">10-Nov</text>
		</g>
		<g>
			<text fill="#595959" font-family="Verdana,Open Sans,DejaVu Sans,sans-serif" font-weight="400" font-size="41" transform="matrix(6.12323e-17 -1 1 6.12323e-17 3927.084697265625 1207.0859375)">08-Dec</text>
		</g>
		<g>
			<text fill="#595959" font-family="Verdana,Open Sans,DejaVu Sans,sans-serif" font-weight="400" font-size="41" transform="matrix(6.12323e-17 -1 1 6.12323e-17 4016.17826171875 1191.6508712768555)">05-Jan</text>
		</g>
		<g>
			<text fill="#595959" font-family="Verdana,Open Sans,DejaVu Sans,sans-serif" font-weight="400" font-size="41" transform="matrix(6.12323e-17 -1 1 6.12323e-17 4098.675390625 1203.0419921875)">02-Feb</text>
		</g>
		<g>
			<text fill="#595959" font-family="Verdana,Open Sans,DejaVu Sans,sans-serif" font-weight="400" font-size="41" transform="matrix(6.12323e-17 -1 1 6.12323e-17 4183.404697265625 1212.0107421875)">02-Mar</text>
		</g>
		<g>
			<text fill="#595959" font-family="Verdana,Open Sans,DejaVu Sans,sans-serif" font-weight="400" font-size="41" transform="matrix(6.12323e-17 -1 1 6.12323e-17 4268.844697265625 1212.1708984375)">30-Mar</text>
		</g>
		<g>
			<text fill="#595959" font-family="Verdana,Open Sans,DejaVu Sans,sans-serif" font-weight="400" font-size="41" transform="matrix(1 0 0 1 3135.4482421875 1050)">0%</text>
		</g>
		<g>
			<text fill="#595959" font-family="Verdana,Open Sans,DejaVu Sans,sans-serif" font-weight="400" font-size="41" transform="matrix(1 0 0 1 3111.96533203125 922)">20%</text>
		</g>
		<g>
			<text fill="#595959" font-family="Verdana,Open Sans,DejaVu Sans,sans-serif" font-weight="400" font-size="41" transform="matrix(1 0 0 1 3110.82421875 794)">40%</text>
		</g>
		<g>
			<text fill="#595959" font-family="Verdana,Open Sans,DejaVu Sans,sans-serif" font-weight="400" font-size="41" transform="matrix(1 0 0 1 3112.3056640625 666)">60%</text>
		</g>
		<g>
			<text fill="#595959" font-family="Verdana,Open Sans,DejaVu Sans,sans-serif" font-weight="400" font-size="41" transform="matrix(1 0 0 1 3112.04541015625 538)">80%</text>
		</g>
		<g>
			<text fill="#595959" font-family="Verdana,Open Sans,DejaVu Sans,sans-serif" font-weight="400" font-size="41" transform="matrix(1 0 0 1 3090.2841796875 410)">100%</text>
		</g>
		<g>
			<text fill="#595959" font-family="Verdana,Open Sans,DejaVu Sans,sans-serif" font-weight="400" font-size="41" transform="matrix(1 0 0 1 3556.97119140625 1321)">Week Commencing</text>
		</g>
		<g>
			<text fill="#595959" font-family="Verdana,Open Sans,DejaVu Sans,sans-serif" font-weight="400" font-size="46" transform="matrix(6.12323e-17 -1 1 6.12323e-17 3019.73 936.7665710449219)">Requests (% of Total)</text>
		</g>
		<rect x="2918.5" y="347.5" width="1760" height="1043" stroke="#D9D9D9" stroke-width="3.4375" stroke-linejoin="round" stroke-miterlimit="10" fill="none" />
		<g>
			<path d="M3228.5 1038 3249.86 1038 3271.22 1038 3292.58 1038 3313.94 1038 3335.3 1038 3356.66 1038 3378.02 1038 3399.38 1038 3420.74 1038 3442.1 1038 3463.46 1038 3484.82 1038 3506.18 1038 3527.54 1038 3548.9 1038 3570.26 1038 3591.62 1038 3612.98 1038 3634.34 1038 3655.7 1038 3677.06 1038 3698.42 1038 3719.7799999999997 1038 3741.14 1038 3762.5 1038 3783.86 1038 3805.2200000000003 1038 3826.58 1038 3847.94 1038 3869.3 1038 3890.66 1038 3912.02 1038 3933.38 1038 3954.74 1038 3976.1 1038 3997.46 1038 4018.8199999999997 1038 4040.18 1038 4061.54 1038 4082.9 1038 4104.26 1038 4125.62 1038 4146.98 1038 4168.34 1038 4189.7 1038 4211.0599999999995 1038 4232.42 1038 4253.78 1038 4275.139999999999 1038 4296.5 1038 4296.5 639.6433470430949 4275.139999999999 641.0825381110685 4253.78 641.3274589400961 4232.42 641.6145313440886 4211.0599999999995 642.4444914583115 4189.7 643.401215888529 4168.34 644.3338442804811 4146.98 646.711535446821 4125.62 646.5953351574117 4104.26 648.9964700856017 4082.9 650.4578201384786 4061.54 650.1826843160547 4040.18 650.9511325988744 4018.8199999999997 650.9685000981426 3997.46 652.4520688665375 3976.1 654.2438394166766 3954.74 654.1783595408037 3933.38 665.1009269843557 3912.02 665.0687170796807 3890.66 669.2508046624037 3869.3 668.8015383913383 3847.94 677.0310099621294 3826.58 715.6326502484551 3805.2200000000003 731.7898269041518 3783.86 731.6946718722857 3762.5 731.7814057156063 3741.14 731.7708258099874 3719.7799999999997 739.179471336138 3698.42 739.1723277843557 3677.06 742.0464154901043 3655.7 744.981700209997 3634.34 752.0924084860791 3612.98 755.2385923010361 3591.62 755.2502906288946 3570.26 758.1300732473312 3548.9 768.0870120946274 3527.54 768.0622682813855 3506.18 768.1168972047803 3484.82 768.2021370143037 3463.46 769.6067142131767 3442.1 775.05017459998 3420.74 787.2357258695183 3399.38 787.3092370373995 3378.02 790.9650389728295 3356.66 794.0813847270024 3335.3 798.9713729419469 3313.94 800.9582284854941 3292.58 802.40679729401 3271.22 803.7574587023792 3249.86 804.8795653060993 3228.5 805.7888012756688 3228.5 1038Z" fill="#e62d39" opacity="0.9" />
		</g>
		<g>
			<path d="M3228.5 805.7888012756688 3249.86 804.8795653060993 3271.22 803.7574587023792 3292.58 802.40679729401 3313.94 800.9582284854941 3335.3 798.9713729419469 3356.66 794.0813847270024 3378.02 790.9650389728295 3399.38 787.3092370373995 3420.74 787.2357258695183 3442.1 775.05017459998 3463.46 769.6067142131767 3484.82 768.2021370143037 3506.18 768.1168972047803 3527.54 768.0622682813855 3548.9 768.0870120946274 3570.26 758.1300732473312 3591.62 755.2502906288946 3612.98 755.2385923010361 3634.34 752.0924084860791 3655.7 744.981700209997 3677.06 742.0464154901043 3698.42 739.1723277843557 3719.7799999999997 739.179471336138 3741.14 731.7708258099874 3762.5 731.7814057156063 3783.86 731.6946718722857 3805.2200000000003 731.7898269041518 3826.58 715.6326502484551 3847.94 677.0310099621294 3869.3 668.8015383913383 3890.66 669.2508046624037 3912.02 665.0687170796807 3933.38 665.1009269843557 3954.74 654.1783595408037 3976.1 654.2438394166766 3997.46 652.4520688665375 4018.8199999999997 650.9685000981426 4040.18 650.9511325988744 4061.54 650.1826843160547 4082.9 650.4578201384786 4104.26 648.9964700856017 4125.62 646.5953351574117 4146.98 646.711535446821 4168.34 644.3338442804811 4189.7 643.401215888529 4211.0599999999995 642.4444914583115 4232.42 641.6145313440886 4253.78 641.3274589400961 4275.139999999999 641.0825381110685 4296.5 639.6433470430949 4296.5 406.47953769377625 4275.139999999999 406.2783088484283 4253.78 406.1475891922515 4232.42 406.0007835357919 4211.0599999999995 405.8580495377305 4189.7 405.75756216085244 4168.34 405.6890755918336 4146.98 405.4853661204658 4125.62 405.49122463683807 4104.26 405.2872977777903 4082.9 405.0542403680629 4061.54 404.8267826278017 4040.18 404.3597305581952 4018.8199999999997 404.3606360598039 3997.46 404.3133620715407 3976.1 404.2694390318647 3954.74 404.25532206437714 3933.38 404.1006016590141 3912.02 404.09929675944176 3890.66 404.0956381930635 3869.3 404.12948436436125 3847.94 403.9961122337051 3826.58 403.3494217541671 3805.2200000000003 402.9248624726996 3783.86 402.9072043922977 3762.5 402.90877584131425 3741.14 402.9298471234101 3719.7799999999997 402.60349792125623 3698.42 402.6099730048478 3677.06 402.37217547977207 3655.7 402.145050233926 3634.34 401.73578913608276 3612.98 401.57006086206655 3591.62 401.57128950627384 3570.26 401.4082896460906 3548.9 400.8924429074875 3527.54 400.88896921768406 3506.18 400.93900012801925 3484.82 401.0268406246156 3463.46 400.9092568701918 3442.1 400.9924926084992 3420.74 400.4880580221503 3399.38 400.49608136003764 3378.02 400.2916782230466 3356.66 400.1582567110125 3335.3 399.92908991218985 3313.94 399.9334041710106 3292.58 399.87976806541184 3271.22 399.8310554200369 3249.86 399.7742919400221 3228.5 399.72528771121347 3228.5 805.7888012756688Z" fill="#005aa6" opacity="0.9" />
		</g>
		<g>
			<path d="M3228.5 399.72528771121347 3249.86 399.7742919400221 3271.22 399.8310554200369 3292.58 399.87976806541184 3313.94 399.9334041710106 3335.3 399.92908991218985 3356.66 400.1582567110125 3378.02 400.2916782230466 3399.38 400.49608136003764 3420.74 400.4880580221503 3442.1 400.9924926084992 3463.46 400.9092568701918 3484.82 401.0268406246156 3506.18 400.93900012801925 3527.54 400.88896921768406 3548.9 400.8924429074875 3570.26 401.4082896460906 3591.62 401.57128950627384 3612.98 401.57006086206655 3634.34 401.73578913608276 3655.7 402.145050233926 3677.06 402.37217547977207 3698.42 402.6099730048478 3719.7799999999997 402.60349792125623 3741.14 402.9298471234101 3762.5 402.90877584131425 3783.86 402.9072043922977 3805.2200000000003 402.9248624726996 3826.58 403.3494217541671 3847.94 403.9961122337051 3869.3 404.12948436436125 3890.66 404.0956381930635 3912.02 404.09929675944176 3933.38 404.1006016590141 3954.74 404.25532206437714 3976.1 404.2694390318647 3997.46 404.3133620715407 4018.8199999999997 404.3606360598039 4040.18 404.3597305581952 4061.54 404.8267826278017 4082.9 405.0542403680629 4104.26 405.2872977777903 4125.62 405.49122463683807 4146.98 405.4853661204658 4168.34 405.6890755918336 4189.7 405.75756216085244 4211.0599999999995 405.8580495377305 4232.42 406.0007835357919 4253.78 406.1475891922515 4275.139999999999 406.2783088484283 4296.5 406.47953769377625 4296.5 397.99999999999994 4275.139999999999 397.99999999999994 4253.78 398 4232.42 398 4211.0599999999995 398 4189.7 398.00000000000006 4168.34 397.99999999999994 4146.98 398.00000000000006 4125.62 398 4104.26 398 4082.9 398 4061.54 397.99999999999994 4040.18 397.99999999999994 4018.8199999999997 397.99999999999994 3997.46 398.00000000000006 3976.1 398.00000000000006 3954.74 398.0000000000001 3933.38 397.99999999999994 3912.02 397.9999999999999 3890.66 398.0000000000001 3869.3 398 3847.94 398 3826.58 397.9999999999999 3805.2200000000003 398.00000000000006 3783.86 397.99999999999994 3762.5 397.9999999999999 3741.14 398.00000000000006 3719.7799999999997 398.00000000000006 3698.42 397.99999999999994 3677.06 397.99999999999994 3655.7 397.99999999999994 3634.34 398 3612.98 397.9999999999999 3591.62 397.99999999999994 3570.26 397.99999999999994 3548.9 398 3527.54 398.00000000000006 3506.18 398.00000000000006 3484.82 397.99999999999994 3463.46 397.99999999999994 3442.1 397.99999999999994 3420.74 398.0000000000001 3399.38 398 3378.02 398.00000000000006 3356.66 398 3335.3 398 3313.94 398 3292.58 398 3271.22 398 3249.86 397.99999999999994 3228.5 397.9999999999999 3228.5 399.72528771121347Z" fill="#393d41" opacity="0.9" />
		</g>
		<g>
			<rect x="4372" y="431" width="22.9995" height="23" fill="#e62d39" />
		</g>
		<g>
			<text fill="#595959" font-family="Verdana,Open Sans,DejaVu Sans,sans-serif" font-weight="400" font-size="41" transform="matrix(1 0 0 1 4404.56 454)">App</text>
		</g>
		<g>
			<rect x="4372" y="508" width="22.9995" height="23" fill="#005aa6" />
		</g>
		<g>
			<text fill="#595959" font-family="Verdana,Open Sans,DejaVu Sans,sans-serif" font-weight="400" font-size="41" transform="matrix(1 0 0 1 4404.56 531)">Web Browser</text>
		</g>
		<g>
			<rect x="4372" y="585" width="22.9995" height="23" fill="#393d41" />
		</g>
		<g>
			<text fill="#595959" font-family="Verdana,Open Sans,DejaVu Sans,sans-serif" font-weight="400" font-size="41" transform="matrix(1 0 0 1 4404.56 608)">Unclassified</text>
		</g>
	</g>
</svg>
