<svg width="1763" height="1046"
    xmlns="http://www.w3.org/2000/svg"
	xmlns:xlink="http://www.w3.org/1999/xlink" xml:space="preserve" overflow="hidden">
	<defs>
		<clipPath id="clip0">
			<rect x="2917" y="346" width="1763" height="1046"/>
		</clipPath>
	</defs>
	<g clip-path="url(#clip0)" transform="translate(-2917 -346)">
		<rect x="2918" y="347" width="1760" height="1043" fill="#FFFFFF" />
		<g>
			<path d="
			M3228.5 974.532 4296.5 974.532
			M3228.5 910.53 4296.5 910.53
			M3228.5 846.528 4296.5 846.528
			M3228.5 781.526 4296.5 781.526
			M3228.5 717.524 4296.5 717.524
			M3228.5 653.522 4296.5 653.522
			M3228.5 589.52 4296.5 589.52
			M3228.5 525.517 4296.5 525.517
			M3228.5 461.515 4296.5 461.515
			M3228.5 397.5 4296.5 397.5" stroke="#D9D9D9" stroke-width="3.4375" stroke-linejoin="round" stroke-miterlimit="10" fill="none" />
		</g>
		<g>
			<path d="M 1038.5 4296.5 1038.5" stroke="#D9D9D9" stroke-width="3.4375" stroke-linejoin="round" stroke-miterlimit="10" fill="none" fill-rule="evenodd" />
		</g>
		<g>
			<text fill="#595959" font-family="Verdana,Open Sans,DejaVu Sans,sans-serif" font-weight="400" font-size="41" transform="matrix(6.12323e-17 -1 1 6.12323e-17 3243.564697265625 1207.24609375)">30-Dec</text>
		</g>
		<g>
			<text fill="#595959" font-family="Verdana,Open Sans,DejaVu Sans,sans-serif" font-weight="400" font-size="41" transform="matrix(6.12323e-17 -1 1 6.12323e-17 3332.6382421875 1191.6909103393555)">27-Jan</text>
		</g>
		<g>
			<text fill="#595959" font-family="Verdana,Open Sans,DejaVu Sans,sans-serif" font-weight="400" font-size="41" transform="matrix(6.12323e-17 -1 1 6.12323e-17 3415.155390625 1203.08203125)">24-Feb</text>
		</g>
		<g>
			<text fill="#595959" font-family="Verdana,Open Sans,DejaVu Sans,sans-serif" font-weight="400" font-size="41" transform="matrix(6.12323e-17 -1 1 6.12323e-17 3499.864677734375 1212.05078125)">24-Mar</text>
		</g>
		<g>
			<text fill="#595959" font-family="Verdana,Open Sans,DejaVu Sans,sans-serif" font-weight="400" font-size="41" transform="matrix(6.12323e-17 -1 1 6.12323e-17 3590.029287109375 1203.3022384643555)">21-Apr</text>
		</g>
		<g>
			<text fill="#595959" font-family="Verdana,Open Sans,DejaVu Sans,sans-serif" font-weight="400" font-size="41" transform="matrix(6.12323e-17 -1 1 6.12323e-17 3675.469287109375 1214.75341796875)">19-May</text>
		</g>
		<g>
			<text fill="#595959" font-family="Verdana,Open Sans,DejaVu Sans,sans-serif" font-weight="400" font-size="41" transform="matrix(6.12323e-17 -1 1 6.12323e-17 3759.8382421875 1194.0532150268555)">23-Jun</text>
		</g>
		<g>
			<text fill="#595959" font-family="Verdana,Open Sans,DejaVu Sans,sans-serif" font-weight="400" font-size="41" transform="matrix(6.12323e-17 -1 1 6.12323e-17 3846.008955078125 1179.0385665893555)">21-Jul</text>
		</g>
		<g>
			<text fill="#595959" font-family="Verdana,Open Sans,DejaVu Sans,sans-serif" font-weight="400" font-size="41" transform="matrix(6.12323e-17 -1 1 6.12323e-17 3931.789287109375 1206.90576171875)">18-Aug</text>
		</g>
		<g>
			<text fill="#595959" font-family="Verdana,Open Sans,DejaVu Sans,sans-serif" font-weight="400" font-size="41" transform="matrix(6.12323e-17 -1 1 6.12323e-17 4017.229287109375 1202.66162109375)">15-Sep</text>
		</g>
		<g>
			<text fill="#595959" font-family="Verdana,Open Sans,DejaVu Sans,sans-serif" font-weight="400" font-size="41" transform="matrix(6.12323e-17 -1 1 6.12323e-17 4097.964697265625 1199.3784103393555)">13-Oct</text>
		</g>
		<g>
			<text fill="#595959" font-family="Verdana,Open Sans,DejaVu Sans,sans-serif" font-weight="400" font-size="41" transform="matrix(6.12323e-17 -1 1 6.12323e-17 4183.404697265625 1209.70849609375)">10-Nov</text>
		</g>
		<g>
			<text fill="#595959" font-family="Verdana,Open Sans,DejaVu Sans,sans-serif" font-weight="400" font-size="41" transform="matrix(6.12323e-17 -1 1 6.12323e-17 4268.844697265625 1207.0859375)">08-Dec</text>
		</g>
		<g>
			<text fill="#595959" font-family="Verdana,Open Sans,DejaVu Sans,sans-serif" font-weight="400" font-size="41" transform="matrix(1 0 0 1 3169.14111328125 1050)">0</text>
		</g>
		<g>
			<text fill="#595959" font-family="Verdana,Open Sans,DejaVu Sans,sans-serif" font-weight="400" font-size="41" transform="matrix(1 0 0 1 3088.5625 922)">3,216</text>
		</g>
		<g>
			<text fill="#595959" font-family="Verdana,Open Sans,DejaVu Sans,sans-serif" font-weight="400" font-size="41" transform="matrix(1 0 0 1 3089.22314453125 794)">6,432</text>
		</g>
		<g>
			<text fill="#595959" font-family="Verdana,Open Sans,DejaVu Sans,sans-serif" font-weight="400" font-size="41" transform="matrix(1 0 0 1 3088.9228515625 666)">9,648</text>
		</g>
		<g>
			<text fill="#595959" font-family="Verdana,Open Sans,DejaVu Sans,sans-serif" font-weight="400" font-size="41" transform="matrix(1 0 0 1 3065.8203201293945 538)">12,864</text>
		</g>
		<g>
			<text fill="#595959" font-family="Verdana,Open Sans,DejaVu Sans,sans-serif" font-weight="400" font-size="41" transform="matrix(1 0 0 1 3067.0415115356445 410)">16,080</text>
		</g>
		<g>
			<text fill="#595959" font-family="Verdana,Open Sans,DejaVu Sans,sans-serif" font-weight="400" font-size="41" transform="matrix(1 0 0 1 3556.97119140625 1321)">Week Commencing</text>
		</g>
		<g>
			<text fill="#595959" font-family="Verdana,Open Sans,DejaVu Sans,sans-serif" font-weight="400" font-size="46" transform="matrix(6.12323e-17 -1 1 6.12323e-17 3019.73 1011.673828125)">Number of Browser Profiles</text>
		</g>
		<rect x="2918.5" y="347.5" width="1760" height="1043" stroke="#D9D9D9" stroke-width="3.4375" stroke-linejoin="round" stroke-miterlimit="10" fill="none" />
		<g>
			<path d="M3228.5 1038 3249.86 1038 3271.22 1038 3292.58 1038 3313.94 1038 3335.3 1038 3356.66 1038 3378.02 1038 3399.38 1038 3420.74 1038 3442.1 1038 3463.46 1038 3484.82 1038 3506.18 1038 3527.54 1038 3548.9 1038 3570.26 1038 3591.62 1038 3612.98 1038 3634.34 1038 3655.7 1038 3677.06 1038 3698.42 1038 3719.7799999999997 1038 3741.14 1038 3762.5 1038 3783.86 1038 3805.2200000000003 1038 3826.58 1038 3847.94 1038 3869.3 1038 3890.66 1038 3912.02 1038 3933.38 1038 3954.74 1038 3976.1 1038 3997.46 1038 4018.8199999999997 1038 4040.18 1038 4061.54 1038 4082.9 1038 4104.26 1038 4125.62 1038 4146.98 1038 4168.34 1038 4189.7 1038 4211.0599999999995 1038 4232.42 1038 4253.78 1038 4275.139999999999 1038 4296.5 1038 4296.5 532.6467661691543 4275.139999999999 533.681592039801 4253.78 534.955223880597 4232.42 536.6268656716418 4211.0599999999995 536.9452736318408 4189.7 538.0597014925373 4168.34 538.6965174129353 4146.98 540.1691542288557 4125.62 540.7661691542289 4104.26 542.1194029850747 4082.9 542.2388059701493 4061.54 543.1144278606965 4040.18 544.1492537313433 4018.8199999999997 545.4626865671642 3997.46 546.1791044776119 3976.1 546.8159203980099 3954.74 548.0895522388059 3933.38 548.9253731343283 3912.02 549.8407960199005 3890.66 550.8358208955224 3869.3 551.6318407960199 3847.94 552.3880597014925 3826.58 553.2636815920398 3805.2200000000003 553.6616915422885 3783.86 554.6567164179105 3762.5 555.9701492537313 3741.14 556.5671641791046 3719.7799999999997 557.721393034826 3698.42 559.0746268656717 3677.06 560.7064676616915 3655.7 561.8208955223881 3634.34 562.8955223880597 3612.98 563.8109452736319 3591.62 564.6467661691543 3570.26 565.6019900497513 3548.9 566.4776119402985 3527.54 567.9502487562189 3506.18 568.5870646766169 3484.82 569.223880597015 3463.46 569.9800995024875 3442.1 571.0547263681592 3420.74 572.1691542288557 3399.38 573.044776119403 3378.02 573.6019900497513 3356.66 574.5174129353234 3335.3 575.8706467661691 3313.94 576.4676616915423 3292.58 577.1442786069651 3271.22 577.6218905472638 3249.86 578.3383084577115 3228.5 578.8159203980099 3228.5 1038Z" fill="#005aa6" opacity="0.9" />
		</g>
		<g>
			<path d="M3228.5 578.8159203980099 3249.86 578.3383084577115 3271.22 577.6218905472638 3292.58 577.1442786069651 3313.94 576.4676616915423 3335.3 575.8706467661691 3356.66 574.5174129353234 3378.02 573.6019900497513 3399.38 573.044776119403 3420.74 572.1691542288557 3442.1 571.0547263681592 3463.46 569.9800995024875 3484.82 569.223880597015 3506.18 568.5870646766169 3527.54 567.9502487562189 3548.9 566.4776119402985 3570.26 565.6019900497513 3591.62 564.6467661691543 3612.98 563.8109452736319 3634.34 562.8955223880597 3655.7 561.8208955223881 3677.06 560.7064676616915 3698.42 559.0746268656717 3719.7799999999997 557.721393034826 3741.14 556.5671641791046 3762.5 555.9701492537313 3783.86 554.6567164179105 3805.2200000000003 553.6616915422885 3826.58 553.2636815920398 3847.94 552.3880597014925 3869.3 551.6318407960199 3890.66 550.8358208955224 3912.02 549.8407960199005 3933.38 548.9253731343283 3954.74 548.0895522388059 3976.1 546.8159203980099 3997.46 546.1791044776119 4018.8199999999997 545.4626865671642 4040.18 544.1492537313433 4061.54 543.1144278606965 4082.9 542.2388059701493 4104.26 542.1194029850747 4125.62 540.7661691542289 4146.98 540.1691542288557 4168.34 538.6965174129353 4189.7 538.0597014925373 4211.0599999999995 536.9452736318408 4232.42 536.6268656716418 4253.78 534.955223880597 4275.139999999999 533.681592039801 4296.5 532.6467661691543 4296.5 398 4275.139999999999 399.35323383084574 4253.78 400.8656716417911 4232.42 402.7363184079602 4211.0599999999995 403.33333333333337 4189.7 404.6865671641791 4168.34 405.4427860696518 4146.98 407.0746268656717 4125.62 407.8706467661692 4104.26 409.38308457711446 4082.9 409.54228855721396 4061.54 410.69651741293535 4040.18 411.85074626865674 4018.8199999999997 413.363184079602 3997.46 414.2388059701492 3976.1 415.0348258706467 3954.74 416.38805970149247 3933.38 417.42288557213925 3912.02 418.4179104477612 3890.66 419.7711442786069 3869.3 420.64676616915426 3847.94 421.641791044776 3826.58 422.636815920398 3805.2200000000003 423.3134328358209 3783.86 424.62686567164184 3762.5 426.139303482587 3741.14 426.8557213930349 3719.7799999999997 428.1293532338309 3698.42 429.6019900497513 3677.06 431.79104477611935 3655.7 433.1044776119404 3634.34 434.4179104477612 3612.98 435.4925373134329 3591.62 436.4477611940299 3570.26 437.6019900497513 3548.9 438.636815920398 3527.54 440.30845771144277 3506.18 441.1442786069652 3484.82 441.860696517413 3463.46 442.73631840796014 3442.1 444.12935323383084 3420.74 445.36318407960204 3399.38 446.35820895522386 3378.02 447.15422885572144 3356.66 448.30845771144277 3335.3 449.820895522388 3313.94 450.5771144278607 3292.58 451.4925373134328 3271.22 452.1691542288558 3249.86 453.0049751243782 3228.5 453.5223880597014 3228.5 578.8159203980099Z" fill="#e62d39" opacity="0.9" />
		</g>
		<g>
			<rect x="4372" y="431" width="22.9995" height="23" fill="#005aa6" />
		</g>
		<g>
			<text fill="#595959" font-family="Verdana,Open Sans,DejaVu Sans,sans-serif" font-weight="400" font-size="41" transform="matrix(1 0 0 1 4404.56 454)">Web Browser</text>
		</g>
		<g>
			<rect x="4372" y="508" width="22.9995" height="23" fill="#e62d39" />
		</g>
		<g>
			<text fill="#595959" font-family="Verdana,Open Sans,DejaVu Sans,sans-serif" font-weight="400" font-size="41" transform="matrix(1 0 0 1 4404.56 531)">App</text>
		</g>
	</g>
</svg>
