<svg width="1763" height="1046"
    xmlns="http://www.w3.org/2000/svg"
	xmlns:xlink="http://www.w3.org/1999/xlink" xml:space="preserve" overflow="hidden">
	<defs>
		<clipPath id="clip0">
			<rect x="2917" y="346" width="1763" height="1046"/>
		</clipPath>
	</defs>
	<g clip-path="url(#clip0)" transform="translate(-2917 -346)">
		<rect x="2918" y="347" width="1760" height="1043" fill="#FFFFFF" />
		<g>
			<path d="
			M3228.5 974.532 4296.5 974.532
			M3228.5 910.53 4296.5 910.53
			M3228.5 846.528 4296.5 846.528
			M3228.5 781.526 4296.5 781.526
			M3228.5 717.524 4296.5 717.524
			M3228.5 653.522 4296.5 653.522
			M3228.5 589.52 4296.5 589.52
			M3228.5 525.517 4296.5 525.517
			M3228.5 461.515 4296.5 461.515
			M3228.5 397.5 4296.5 397.5" stroke="#D9D9D9" stroke-width="3.4375" stroke-linejoin="round" stroke-miterlimit="10" fill="none" />
		</g>
		<g>
			<path d="M 1038.5 4296.5 1038.5" stroke="#D9D9D9" stroke-width="3.4375" stroke-linejoin="round" stroke-miterlimit="10" fill="none" fill-rule="evenodd" />
		</g>
		<g>
			<text fill="#595959" font-family="Verdana,Open Sans,DejaVu Sans,sans-serif" font-weight="400" font-size="41" transform="matrix(6.12323e-17 -1 1 6.12323e-17 3243.544677734375 1212.05078125)">24-Mar</text>
		</g>
		<g>
			<text fill="#595959" font-family="Verdana,Open Sans,DejaVu Sans,sans-serif" font-weight="400" font-size="41" transform="matrix(6.12323e-17 -1 1 6.12323e-17 3333.709287109375 1203.3022384643555)">21-Apr</text>
		</g>
		<g>
			<text fill="#595959" font-family="Verdana,Open Sans,DejaVu Sans,sans-serif" font-weight="400" font-size="41" transform="matrix(6.12323e-17 -1 1 6.12323e-17 3419.149287109375 1214.75341796875)">19-May</text>
		</g>
		<g>
			<text fill="#595959" font-family="Verdana,Open Sans,DejaVu Sans,sans-serif" font-weight="400" font-size="41" transform="matrix(6.12323e-17 -1 1 6.12323e-17 3503.5182421875 1194.0532150268555)">23-Jun</text>
		</g>
		<g>
			<text fill="#595959" font-family="Verdana,Open Sans,DejaVu Sans,sans-serif" font-weight="400" font-size="41" transform="matrix(6.12323e-17 -1 1 6.12323e-17 3589.688955078125 1179.0385665893555)">21-Jul</text>
		</g>
		<g>
			<text fill="#595959" font-family="Verdana,Open Sans,DejaVu Sans,sans-serif" font-weight="400" font-size="41" transform="matrix(6.12323e-17 -1 1 6.12323e-17 3675.469287109375 1206.90576171875)">18-Aug</text>
		</g>
		<g>
			<text fill="#595959" font-family="Verdana,Open Sans,DejaVu Sans,sans-serif" font-weight="400" font-size="41" transform="matrix(6.12323e-17 -1 1 6.12323e-17 3760.909287109375 1202.66162109375)">15-Sep</text>
		</g>
		<g>
			<text fill="#595959" font-family="Verdana,Open Sans,DejaVu Sans,sans-serif" font-weight="400" font-size="41" transform="matrix(6.12323e-17 -1 1 6.12323e-17 3841.644697265625 1199.3784103393555)">13-Oct</text>
		</g>
		<g>
			<text fill="#595959" font-family="Verdana,Open Sans,DejaVu Sans,sans-serif" font-weight="400" font-size="41" transform="matrix(6.12323e-17 -1 1 6.12323e-17 3927.084697265625 1209.70849609375)">10-Nov</text>
		</g>
		<g>
			<text fill="#595959" font-family="Verdana,Open Sans,DejaVu Sans,sans-serif" font-weight="400" font-size="41" transform="matrix(6.12323e-17 -1 1 6.12323e-17 4012.524697265625 1207.0859375)">08-Dec</text>
		</g>
		<g>
			<text fill="#595959" font-family="Verdana,Open Sans,DejaVu Sans,sans-serif" font-weight="400" font-size="41" transform="matrix(6.12323e-17 -1 1 6.12323e-17 4101.61826171875 1191.6508712768555)">05-Jan</text>
		</g>
		<g>
			<text fill="#595959" font-family="Verdana,Open Sans,DejaVu Sans,sans-serif" font-weight="400" font-size="41" transform="matrix(6.12323e-17 -1 1 6.12323e-17 4184.115390625 1203.0419921875)">02-Feb</text>
		</g>
		<g>
			<text fill="#595959" font-family="Verdana,Open Sans,DejaVu Sans,sans-serif" font-weight="400" font-size="41" transform="matrix(6.12323e-17 -1 1 6.12323e-17 4268.844697265625 1212.0107421875)">02-Mar</text>
		</g>
		<g>
			<text fill="#595959" font-family="Verdana,Open Sans,DejaVu Sans,sans-serif" font-weight="400" font-size="41" transform="matrix(1 0 0 1 3169.14111328125 1050)">0</text>
		</g>
		<g>
			<text fill="#595959" font-family="Verdana,Open Sans,DejaVu Sans,sans-serif" font-weight="400" font-size="41" transform="matrix(1 0 0 1 3087.38134765625 922)">3,274</text>
		</g>
		<g>
			<text fill="#595959" font-family="Verdana,Open Sans,DejaVu Sans,sans-serif" font-weight="400" font-size="41" transform="matrix(1 0 0 1 3089.14306640625 794)">6,548</text>
		</g>
		<g>
			<text fill="#595959" font-family="Verdana,Open Sans,DejaVu Sans,sans-serif" font-weight="400" font-size="41" transform="matrix(1 0 0 1 3095.9296875 666)">9,821</text>
		</g>
		<g>
			<text fill="#595959" font-family="Verdana,Open Sans,DejaVu Sans,sans-serif" font-weight="400" font-size="41" transform="matrix(1 0 0 1 3067.3618240356445 538)">13,095</text>
		</g>
		<g>
			<text fill="#595959" font-family="Verdana,Open Sans,DejaVu Sans,sans-serif" font-weight="400" font-size="41" transform="matrix(1 0 0 1 3067.2016677856445 410)">16,369</text>
		</g>
		<g>
			<text fill="#595959" font-family="Verdana,Open Sans,DejaVu Sans,sans-serif" font-weight="400" font-size="41" transform="matrix(1 0 0 1 3556.97119140625 1321)">Week Commencing</text>
		</g>
		<g>
			<text fill="#595959" font-family="Verdana,Open Sans,DejaVu Sans,sans-serif" font-weight="400" font-size="46" transform="matrix(6.12323e-17 -1 1 6.12323e-17 3019.73 1011.673828125)">Number of Browser Profiles</text>
		</g>
		<rect x="2918.5" y="347.5" width="1760" height="1043" stroke="#D9D9D9" stroke-width="3.4375" stroke-linejoin="round" stroke-miterlimit="10" fill="none" />
		<g>
			<path d="M3228.5 1038 3249.86 1038 3271.22 1038 3292.58 1038 3313.94 1038 3335.3 1038 3356.66 1038 3378.02 1038 3399.38 1038 3420.74 1038 3442.1 1038 3463.46 1038 3484.82 1038 3506.18 1038 3527.54 1038 3548.9 1038 3570.26 1038 3591.62 1038 3612.98 1038 3634.34 1038 3655.7 1038 3677.06 1038 3698.42 1038 3719.7799999999997 1038 3741.14 1038 3762.5 1038 3783.86 1038 3805.2200000000003 1038 3826.58 1038 3847.94 1038 3869.3 1038 3890.66 1038 3912.02 1038 3933.38 1038 3954.74 1038 3976.1 1038 3997.46 1038 4018.8199999999997 1038 4040.18 1038 4061.54 1038 4082.9 1038 4104.26 1038 4125.62 1038 4146.98 1038 4168.34 1038 4189.7 1038 4211.0599999999995 1038 4232.42 1038 4253.78 1038 4275.139999999999 1038 4296.5 1038 4296.5 532.9673162685564 4275.139999999999 533.7101838841713 4253.78 534.6485429775796 4232.42 535.3132140020771 4211.0599999999995 536.4470645732788 4189.7 537.4636202578043 4168.34 538.0109963956259 4146.98 538.8320606023581 4125.62 539.5749282179729 4104.26 540.3959924247051 4082.9 540.5523856069399 4061.54 541.0215651536441 4040.18 541.5689412914655 4018.8199999999997 542.5854969759912 3997.46 543.8366424338689 3976.1 545.4787708473334 3954.74 545.7915572118028 3933.38 546.8863094874457 3912.02 547.5118822163846 3890.66 548.9585191520557 3869.3 549.5449935854358 3847.94 550.874335634431 3826.58 550.991630521107 3805.2200000000003 551.8517930233979 3783.86 552.8683487079235 3762.5 554.1585924613598 3741.14 554.862361781416 3719.7799999999997 555.487934510355 3698.42 556.7390799682325 3677.06 557.5601441749649 3655.7 558.4594049728145 3634.34 559.4368623617813 3612.98 560.218828272955 3591.62 560.9616958885698 3570.26 561.8218583908608 3548.9 562.2128413464475 3527.54 563.1902987354144 3506.18 564.4805424888509 3484.82 565.067016922231 3463.46 566.2008674934327 3442.1 567.5302095424277 3420.74 569.1332396603335 3399.38 570.2279919359764 3378.02 571.2836459160608 3356.66 572.1829067139104 3335.3 573.0039709206426 3313.94 573.9423300140509 3292.58 574.8024925163418 3271.22 576.249129452013 3249.86 576.8747021809518 3228.5 577.5002749098905 3228.5 1038Z" fill="#005aa6" opacity="0.9" />
		</g>
		<g>
			<path d="M3228.5 577.5002749098905 3249.86 576.8747021809518 3271.22 576.249129452013 3292.58 574.8024925163418 3313.94 573.9423300140509 3335.3 573.0039709206426 3356.66 572.1829067139104 3378.02 571.2836459160608 3399.38 570.2279919359764 3420.74 569.1332396603335 3442.1 567.5302095424277 3463.46 566.2008674934327 3484.82 565.067016922231 3506.18 564.4805424888509 3527.54 563.1902987354144 3548.9 562.2128413464475 3570.26 561.8218583908608 3591.62 560.9616958885698 3612.98 560.218828272955 3634.34 559.4368623617813 3655.7 558.4594049728145 3677.06 557.5601441749649 3698.42 556.7390799682325 3719.7799999999997 555.487934510355 3741.14 554.862361781416 3762.5 554.1585924613598 3783.86 552.8683487079235 3805.2200000000003 551.8517930233979 3826.58 550.991630521107 3847.94 550.874335634431 3869.3 549.5449935854358 3890.66 548.9585191520557 3912.02 547.5118822163846 3933.38 546.8863094874457 3954.74 545.7915572118028 3976.1 545.4787708473334 3997.46 543.8366424338689 4018.8199999999997 542.5854969759912 4040.18 541.5689412914655 4061.54 541.0215651536441 4082.9 540.5523856069399 4104.26 540.3959924247051 4125.62 539.5749282179729 4146.98 538.8320606023581 4168.34 538.0109963956259 4189.7 537.4636202578043 4211.0599999999995 536.4470645732788 4232.42 535.3132140020771 4253.78 534.6485429775796 4275.139999999999 533.7101838841713 4296.5 532.9673162685564 4296.5 397.99999999999994 4275.139999999999 398.8992607978496 4253.78 400.1504062557273 4232.42 401.2060602358116 4211.0599999999995 402.6526971714827 4189.7 403.86474433380164 4168.34 404.60761194941654 4146.98 406.2106420673223 4125.62 407.0317062740545 4104.26 408.00916366302147 4082.9 408.2046551408149 4061.54 408.7520312786365 4040.18 409.2994074164579 4018.8199999999997 410.628749465453 3997.46 412.11448469668267 3976.1 413.95210458794065 3954.74 414.53857902132074 3933.38 415.8679210703158 3912.02 416.6107886859307 3890.66 418.2138188038365 3869.3 418.99578471501 3847.94 420.48151994623987 3826.58 420.63791312847457 3805.2200000000003 421.7717636996763 3783.86 422.90561427087783 3762.5 424.3913495021076 3741.14 425.2515120043985 3719.7799999999997 426.0334779155721 3698.42 427.36281996456705 3677.06 428.3793756490928 3655.7 429.35683303805973 3634.34 430.6861750870547 3612.98 431.54633758934574 3591.62 432.5237949783126 3570.26 433.5012523672797 3548.9 434.165923391777 3527.54 435.45616714521344 3506.18 436.9419023764433 3484.82 437.64567169649945 3463.46 438.8968171543772 3442.1 440.34345409004817 3420.74 442.4938603457755 3399.38 443.78410409921185 3378.02 445.0743478526482 3356.66 446.13000183273255 3335.3 447.06836092614077 3313.94 448.20221149734243 3292.58 449.2187671818681 3271.22 450.8608955953327 3249.86 451.68195980206485 3228.5 452.385729122121 3228.5 577.5002749098905Z" fill="#e62d39" opacity="0.9" />
		</g>
		<g>
			<rect x="4372" y="431" width="22.9995" height="23" fill="#005aa6" />
		</g>
		<g>
			<text fill="#595959" font-family="Verdana,Open Sans,DejaVu Sans,sans-serif" font-weight="400" font-size="41" transform="matrix(1 0 0 1 4404.56 454)">Web Browser</text>
		</g>
		<g>
			<rect x="4372" y="508" width="22.9995" height="23" fill="#e62d39" />
		</g>
		<g>
			<text fill="#595959" font-family="Verdana,Open Sans,DejaVu Sans,sans-serif" font-weight="400" font-size="41" transform="matrix(1 0 0 1 4404.56 531)">App</text>
		</g>
	</g>
</svg>
