<svg width="1763" height="1046"
    xmlns="http://www.w3.org/2000/svg"
	xmlns:xlink="http://www.w3.org/1999/xlink" xml:space="preserve" overflow="hidden">
	<defs>
		<clipPath id="clip0">
			<rect x="2917" y="346" width="1763" height="1046"/>
		</clipPath>
	</defs>
	<g clip-path="url(#clip0)" transform="translate(-2917 -346)">
		<rect x="2918" y="347" width="1760" height="1043" fill="#FFFFFF" />
		<g>
			<path d="
			M3228.5 974.532 4296.5 974.532
			M3228.5 910.53 4296.5 910.53
			M3228.5 846.528 4296.5 846.528
			M3228.5 781.526 4296.5 781.526
			M3228.5 717.524 4296.5 717.524
			M3228.5 653.522 4296.5 653.522
			M3228.5 589.52 4296.5 589.52
			M3228.5 525.517 4296.5 525.517
			M3228.5 461.515 4296.5 461.515
			M3228.5 397.5 4296.5 397.5" stroke="#D9D9D9" stroke-width="3.4375" stroke-linejoin="round" stroke-miterlimit="10" fill="none" />
		</g>
		<g>
			<path d="M 1038.5 4296.5 1038.5" stroke="#D9D9D9" stroke-width="3.4375" stroke-linejoin="round" stroke-miterlimit="10" fill="none" fill-rule="evenodd" />
		</g>
		<g>
			<text fill="#595959" font-family="Verdana,sans-serif" font-weight="400" font-size="41" transform="matrix(6.12323e-17 -1 1 6.12323e-17 3244.5 1210)">22-Jan</text>
		</g>
		<g>
			<text fill="#595959" font-family="Verdana,sans-serif" font-weight="400" font-size="41" transform="matrix(6.12323e-17 -1 1 6.12323e-17 3328.264705882353 1214)">19-Feb</text>
		</g>
		<g>
			<text fill="#595959" font-family="Verdana,sans-serif" font-weight="400" font-size="41" transform="matrix(6.12323e-17 -1 1 6.12323e-17 3412.029411764706 1221)">18-Mar</text>
		</g>
		<g>
			<text fill="#595959" font-family="Verdana,sans-serif" font-weight="400" font-size="41" transform="matrix(6.12323e-17 -1 1 6.12323e-17 3499.294117647059 1214)">15-Apr</text>
		</g>
		<g>
			<text fill="#595959" font-family="Verdana,sans-serif" font-weight="400" font-size="41" transform="matrix(6.12323e-17 -1 1 6.12323e-17 3583.0588235294117 1226)">13-May</text>
		</g>
		<g>
			<text fill="#595959" font-family="Verdana,sans-serif" font-weight="400" font-size="41" transform="matrix(6.12323e-17 -1 1 6.12323e-17 3663.323529411765 1209)">10-Jun</text>
		</g>
		<g>
			<text fill="#595959" font-family="Verdana,sans-serif" font-weight="400" font-size="41" transform="matrix(6.12323e-17 -1 1 6.12323e-17 3747.0882352941176 1197)">08-Jul</text>
		</g>
		<g>
			<text fill="#595959" font-family="Verdana,sans-serif" font-weight="400" font-size="41" transform="matrix(6.12323e-17 -1 1 6.12323e-17 3834.3529411764707 1221)">05-Aug</text>
		</g>
		<g>
			<text fill="#595959" font-family="Verdana,sans-serif" font-weight="400" font-size="41" transform="matrix(6.12323e-17 -1 1 6.12323e-17 3918.1176470588234 1222)">02-Sep</text>
		</g>
		<g>
			<text fill="#595959" font-family="Verdana,sans-serif" font-weight="400" font-size="41" transform="matrix(6.12323e-17 -1 1 6.12323e-17 4001.8823529411766 1221)">30-Sep</text>
		</g>
		<g>
			<text fill="#595959" font-family="Verdana,sans-serif" font-weight="400" font-size="41" transform="matrix(6.12323e-17 -1 1 6.12323e-17 4082.1470588235293 1215)">28-Oct</text>
		</g>
		<g>
			<text fill="#595959" font-family="Verdana,sans-serif" font-weight="400" font-size="41" transform="matrix(6.12323e-17 -1 1 6.12323e-17 4165.911764705882 1224)">25-Nov</text>
		</g>
		<g>
			<text fill="#595959" font-family="Verdana,sans-serif" font-weight="400" font-size="41" transform="matrix(6.12323e-17 -1 1 6.12323e-17 4249.676470588235 1222)">30-Dec</text>
		</g>
		<g>
			<text fill="#595959" font-family="Verdana,sans-serif" font-weight="400" font-size="41" transform="matrix(1 0 0 1 3123.5 1050)">0%</text>
		</g>
		<g>
			<text fill="#595959" font-family="Verdana,sans-serif" font-weight="400" font-size="41" transform="matrix(1 0 0 1 3097.5 922)">20%</text>
		</g>
		<g>
			<text fill="#595959" font-family="Verdana,sans-serif" font-weight="400" font-size="41" transform="matrix(1 0 0 1 3096.5 794)">40%</text>
		</g>
		<g>
			<text fill="#595959" font-family="Verdana,sans-serif" font-weight="400" font-size="41" transform="matrix(1 0 0 1 3097.5 666)">60%</text>
		</g>
		<g>
			<text fill="#595959" font-family="Verdana,sans-serif" font-weight="400" font-size="41" transform="matrix(1 0 0 1 3097.5 538)">80%</text>
		</g>
		<g>
			<text fill="#595959" font-family="Verdana,sans-serif" font-weight="400" font-size="41" transform="matrix(1 0 0 1 3074.5 410)">100%</text>
		</g>
		<g>
			<text fill="#595959" font-family="Verdana,sans-serif" font-weight="400" font-size="41" transform="matrix(1 0 0 1 3544.5 1321)">Week Commencing</text>
		</g>
		<g>
			<text fill="#595959" font-family="Verdana,sans-serif" font-weight="400" font-size="46" transform="matrix(6.12323e-17 -1 1 6.12323e-17 3019.73 965.25)">Requests (% of Total)</text>
		</g>
		<rect x="2918.5" y="347.5" width="1760" height="1043" stroke="#D9D9D9" stroke-width="3.4375" stroke-linejoin="round" stroke-miterlimit="10" fill="none" />
		<g>
			<path d="M3228.5 1038 3249.4411764705883 1038 3270.3823529411766 1038 3291.323529411765 1038 3312.264705882353 1038 3333.205882352941 1038 3354.1470588235293 1038 3375.0882352941176 1038 3396.029411764706 1038 3416.970588235294 1038 3437.9117647058824 1038 3458.8529411764707 1038 3479.794117647059 1038 3500.735294117647 1038 3521.676470588235 1038 3542.6176470588234 1038 3563.5588235294117 1038 3584.5 1038 3605.4411764705883 1038 3626.3823529411766 1038 3647.323529411765 1038 3668.264705882353 1038 3689.205882352941 1038 3710.1470588235293 1038 3731.0882352941176 1038 3752.029411764706 1038 3772.970588235294 1038 3793.9117647058824 1038 3814.8529411764707 1038 3835.7941176470586 1038 3856.735294117647 1038 3877.676470588235 1038 3898.6176470588234 1038 3919.5588235294117 1038 3940.5 1038 3961.4411764705883 1038 3982.3823529411766 1038 4003.323529411765 1038 4024.264705882353 1038 4045.2058823529414 1038 4066.1470588235293 1038 4087.0882352941176 1038 4108.029411764706 1038 4128.970588235294 1038 4149.911764705882 1038 4170.85294117647 1038 4191.794117647059 1038 4212.735294117647 1038 4233.676470588235 1038 4254.617647058823 1038 4275.558823529412 1038 4296.5 1038 4296.5 581.2253151836085 4275.558823529412 580.7419087611287 4254.617647058823 580.710243189289 4233.676470588235 580.6735762948426 4212.735294117647 580.9280737837942 4191.794117647059 581.4872454103777 4170.85294117647 582.4062939611431 4149.911764705882 569.6826475023468 4128.970588235294 569.8912689965251 4108.029411764706 569.9302361292804 4087.0882352941176 569.8349942572809 4066.1470588235293 569.5040370531727 4045.2058823529414 717.6623105620715 4024.264705882353 693.0292117157351 4003.323529411765 692.8367597789183 3982.3823529411766 692.6574656354969 3961.4411764705883 684.2461914870885 3940.5 684.0344882877787 3919.5588235294117 684.1358174388192 3898.6176470588234 683.9806402948523 3877.676470588235 683.9172481230904 3856.735294117647 683.650703471495 3835.7941176470586 683.2253967284606 3814.8529411764707 683.0202318089205 3793.9117647058824 682.9152439485392 3772.970588235294 682.6018446393113 3752.029411764706 682.3232723398903 3731.0882352941176 692.0678617680483 3710.1470588235293 692.1617344671945 3689.205882352941 692.8199164999976 3668.264705882353 693.1175071055251 3647.323529411765 693.279620378092 3626.3823529411766 693.7023667945714 3605.4411764705883 694.1241584254815 3584.5 694.1818102912466 3563.5588235294117 694.1642138907431 3542.6176470588234 694.1125422243633 3521.676470588235 694.1000133322768 3500.735294117647 694.3187105935212 3479.794117647059 693.6205909506452 3458.8529411764707 692.0050611605195 3437.9117647058824 690.3198452220047 3416.970588235294 688.7547930560947 3396.029411764706 684.6952509793664 3375.0882352941176 679.1608039260515 3354.1470588235293 679.6019256256711 3333.205882352941 682.3213957841157 3312.264705882353 684.5298935912222 3291.323529411765 686.5899201687104 3270.3823529411766 685.5922828206933 3249.4411764705883 684.727262331711 3228.5 682.4804542973092 3228.5 1038Z" fill="#e62d39" opacity="0.9" />
		</g>
		<g>
			<path d="M3228.5 682.4804542973092 3249.4411764705883 684.727262331711 3270.3823529411766 685.5922828206933 3291.323529411765 686.5899201687104 3312.264705882353 684.5298935912222 3333.205882352941 682.3213957841157 3354.1470588235293 679.6019256256711 3375.0882352941176 679.1608039260515 3396.029411764706 684.6952509793664 3416.970588235294 688.7547930560947 3437.9117647058824 690.3198452220047 3458.8529411764707 692.0050611605195 3479.794117647059 693.6205909506452 3500.735294117647 694.3187105935212 3521.676470588235 694.1000133322768 3542.6176470588234 694.1125422243633 3563.5588235294117 694.1642138907431 3584.5 694.1818102912466 3605.4411764705883 694.1241584254815 3626.3823529411766 693.7023667945714 3647.323529411765 693.279620378092 3668.264705882353 693.1175071055251 3689.205882352941 692.8199164999976 3710.1470588235293 692.1617344671945 3731.0882352941176 692.0678617680483 3752.029411764706 682.3232723398903 3772.970588235294 682.6018446393113 3793.9117647058824 682.9152439485392 3814.8529411764707 683.0202318089205 3835.7941176470586 683.2253967284606 3856.735294117647 683.650703471495 3877.676470588235 683.9172481230904 3898.6176470588234 683.9806402948523 3919.5588235294117 684.1358174388192 3940.5 684.0344882877787 3961.4411764705883 684.2461914870885 3982.3823529411766 692.6574656354969 4003.323529411765 692.8367597789183 4024.264705882353 693.0292117157351 4045.2058823529414 717.6623105620715 4066.1470588235293 569.5040370531727 4087.0882352941176 569.8349942572809 4108.029411764706 569.9302361292804 4128.970588235294 569.8912689965251 4149.911764705882 569.6826475023468 4170.85294117647 582.4062939611431 4191.794117647059 581.4872454103777 4212.735294117647 580.9280737837942 4233.676470588235 580.6735762948426 4254.617647058823 580.710243189289 4275.558823529412 580.7419087611287 4296.5 581.2253151836085 4296.5 398.7379557747454 4275.558823529412 398.70704867301595 4254.617647058823 398.70882925199004 4233.676470588235 398.7008574619051 4212.735294117647 398.68535542850464 4191.794117647059 398.67102339002776 4170.85294117647 398.67520739706913 4149.911764705882 399.27182314363034 4128.970588235294 399.262582558681 4108.029411764706 399.27351700187455 4087.0882352941176 399.28077369767425 4066.1470588235293 399.29931326714217 4045.2058823529414 463.6506199133046 4024.264705882353 458.1198955073757 4003.323529411765 457.6909023203396 3982.3823529411766 457.1922376810141 3961.4411764705883 442.93735389999836 3940.5 442.4560046260649 3919.5588235294117 441.9523894028935 3898.6176470588234 441.5335721284329 3877.676470588235 441.085682632276 3856.735294117647 440.7511233983183 3835.7941176470586 440.358904599104 3814.8529411764707 439.99162530587694 3793.9117647058824 439.5878575638358 3772.970588235294 439.2709286792896 3752.029411764706 439.03517502824866 3731.0882352941176 438.2387094064713 3710.1470588235293 437.86557118539895 3689.205882352941 437.9037489834077 3668.264705882353 437.50828716559636 3647.323529411765 437.0430647748583 3626.3823529411766 436.55579203505033 3605.4411764705883 435.9902777401653 3584.5 435.4750218802621 3563.5588235294117 434.9235826881617 3542.6176470588234 434.50854774480695 3521.676470588235 434.2228656036452 3500.735294117647 433.89359402287107 3479.794117647059 433.6904179753529 3458.8529411764707 433.5882703257375 3437.9117647058824 433.47006547647834 3416.970588235294 433.35408809308973 3396.029411764706 433.21208388667225 3375.0882352941176 422.122193997944 3354.1470588235293 421.6503463054078 3333.205882352941 420.92160217406195 3312.264705882353 420.29603101333674 3291.323529411765 419.6100604377933 3270.3823529411766 419.2453958196608 3249.4411764705883 418.88543369630037 3228.5 418.3145443410057 3228.5 682.4804542973092Z" fill="#005aa6" opacity="0.9" />
		</g>
		<g>
			<path d="M3228.5 418.3145443410057 3249.4411764705883 418.88543369630037 3270.3823529411766 419.2453958196608 3291.323529411765 419.6100604377933 3312.264705882353 420.29603101333674 3333.205882352941 420.92160217406195 3354.1470588235293 421.6503463054078 3375.0882352941176 422.122193997944 3396.029411764706 433.21208388667225 3416.970588235294 433.35408809308973 3437.9117647058824 433.47006547647834 3458.8529411764707 433.5882703257375 3479.794117647059 433.6904179753529 3500.735294117647 433.89359402287107 3521.676470588235 434.2228656036452 3542.6176470588234 434.50854774480695 3563.5588235294117 434.9235826881617 3584.5 435.4750218802621 3605.4411764705883 435.9902777401653 3626.3823529411766 436.55579203505033 3647.323529411765 437.0430647748583 3668.264705882353 437.50828716559636 3689.205882352941 437.9037489834077 3710.1470588235293 437.86557118539895 3731.0882352941176 438.2387094064713 3752.029411764706 439.03517502824866 3772.970588235294 439.2709286792896 3793.9117647058824 439.5878575638358 3814.8529411764707 439.99162530587694 3835.7941176470586 440.358904599104 3856.735294117647 440.7511233983183 3877.676470588235 441.085682632276 3898.6176470588234 441.5335721284329 3919.5588235294117 441.9523894028935 3940.5 442.4560046260649 3961.4411764705883 442.93735389999836 3982.3823529411766 457.1922376810141 4003.323529411765 457.6909023203396 4024.264705882353 458.1198955073757 4045.2058823529414 463.6506199133046 4066.1470588235293 399.29931326714217 4087.0882352941176 399.28077369767425 4108.029411764706 399.27351700187455 4128.970588235294 399.262582558681 4149.911764705882 399.27182314363034 4170.85294117647 398.67520739706913 4191.794117647059 398.67102339002776 4212.735294117647 398.68535542850464 4233.676470588235 398.7008574619051 4254.617647058823 398.70882925199004 4275.558823529412 398.70704867301595 4296.5 398.7379557747454 4296.5 398.00000000000006 4275.558823529412 398 4254.617647058823 398 4233.676470588235 398.00000000000006 4212.735294117647 397.99999999999994 4191.794117647059 398.00000000000006 4170.85294117647 398.00000000000006 4149.911764705882 398 4128.970588235294 398 4108.029411764706 398.00000000000006 4087.0882352941176 397.99999999999994 4066.1470588235293 398 4045.2058823529414 398 4024.264705882353 398.00000000000006 4003.323529411765 398.00000000000006 3982.3823529411766 398.0000000000001 3961.4411764705883 398 3940.5 397.99999999999994 3919.5588235294117 398.00000000000006 3898.6176470588234 397.99999999999994 3877.676470588235 398 3856.735294117647 398.00000000000006 3835.7941176470586 397.99999999999994 3814.8529411764707 398 3793.9117647058824 398 3772.970588235294 397.9999999999999 3752.029411764706 397.99999999999994 3731.0882352941176 398.00000000000006 3710.1470588235293 398 3689.205882352941 398 3668.264705882353 398.00000000000006 3647.323529411765 397.9999999999999 3626.3823529411766 398 3605.4411764705883 397.99999999999994 3584.5 398 3563.5588235294117 398 3542.6176470588234 397.9999999999999 3521.676470588235 397.9999999999999 3500.735294117647 398.0000000000001 3479.794117647059 398 3458.8529411764707 397.99999999999994 3437.9117647058824 398.00000000000006 3416.970588235294 398 3396.029411764706 398 3375.0882352941176 398 3354.1470588235293 398.00000000000006 3333.205882352941 398.00000000000006 3312.264705882353 398.00000000000006 3291.323529411765 398 3270.3823529411766 397.99999999999994 3249.4411764705883 398 3228.5 398 3228.5 418.3145443410057Z" fill="#393d41" opacity="0.9" />
		</g>
		<g>
			<rect x="4372" y="431" width="22.9995" height="23" fill="#e62d39" />
		</g>
		<g>
			<text fill="#595959" font-family="Verdana,sans-serif" font-weight="400" font-size="41" transform="matrix(1 0 0 1 4404.56 454)">Web Browser</text>
		</g>
		<g>
			<rect x="4372" y="508" width="22.9995" height="23" fill="#005aa6" />
		</g>
		<g>
			<text fill="#595959" font-family="Verdana,sans-serif" font-weight="400" font-size="41" transform="matrix(1 0 0 1 4404.56 531)">App</text>
		</g>
		<g>
			<rect x="4372" y="585" width="22.9995" height="23" fill="#393d41" />
		</g>
		<g>
			<text fill="#595959" font-family="Verdana,sans-serif" font-weight="400" font-size="41" transform="matrix(1 0 0 1 4404.56 608)">Unclassified</text>
		</g>
	</g>
</svg>
