<svg width="1763" height="1046"
    xmlns="http://www.w3.org/2000/svg"
	xmlns:xlink="http://www.w3.org/1999/xlink" xml:space="preserve" overflow="hidden">
	<defs>
		<clipPath id="clip0">
			<rect x="2917" y="346" width="1763" height="1046"/>
		</clipPath>
	</defs>
	<g clip-path="url(#clip0)" transform="translate(-2917 -346)">
		<rect x="2918" y="347" width="1760" height="1043" fill="#FFFFFF" />
		<g>
			<path d="
			M3228.5 974.532 4296.5 974.532
			M3228.5 910.53 4296.5 910.53
			M3228.5 846.528 4296.5 846.528
			M3228.5 781.526 4296.5 781.526
			M3228.5 717.524 4296.5 717.524
			M3228.5 653.522 4296.5 653.522
			M3228.5 589.52 4296.5 589.52
			M3228.5 525.517 4296.5 525.517
			M3228.5 461.515 4296.5 461.515
			M3228.5 397.5 4296.5 397.5" stroke="#D9D9D9" stroke-width="3.4375" stroke-linejoin="round" stroke-miterlimit="10" fill="none" />
		</g>
		<g>
			<path d="M 1038.5 4296.5 1038.5" stroke="#D9D9D9" stroke-width="3.4375" stroke-linejoin="round" stroke-miterlimit="10" fill="none" fill-rule="evenodd" />
		</g>
		<g>
			<text fill="#595959" font-family="Verdana,Open Sans,DejaVu Sans,sans-serif" font-weight="400" font-size="41" transform="matrix(6.12323e-17 -1 1 6.12323e-17 3243.564697265625 1201.1000900268555)">07-Oct</text>
		</g>
		<g>
			<text fill="#595959" font-family="Verdana,Open Sans,DejaVu Sans,sans-serif" font-weight="400" font-size="41" transform="matrix(6.12323e-17 -1 1 6.12323e-17 3330.748370735013 1211.43017578125)">04-Nov</text>
		</g>
		<g>
			<text fill="#595959" font-family="Verdana,Open Sans,DejaVu Sans,sans-serif" font-weight="400" font-size="41" transform="matrix(6.12323e-17 -1 1 6.12323e-17 3417.9320442044004 1207.0859375)">09-Dec</text>
		</g>
		<g>
			<text fill="#595959" font-family="Verdana,Open Sans,DejaVu Sans,sans-serif" font-weight="400" font-size="41" transform="matrix(6.12323e-17 -1 1 6.12323e-17 3508.7692821269134 1191.6508712768555)">06-Jan</text>
		</g>
		<g>
			<text fill="#595959" font-family="Verdana,Open Sans,DejaVu Sans,sans-serif" font-weight="400" font-size="41" transform="matrix(6.12323e-17 -1 1 6.12323e-17 3593.010084502551 1203.0419921875)">03-Feb</text>
		</g>
		<g>
			<text fill="#595959" font-family="Verdana,Open Sans,DejaVu Sans,sans-serif" font-weight="400" font-size="41" transform="matrix(6.12323e-17 -1 1 6.12323e-17 3679.483064612564 1212.0107421875)">03-Mar</text>
		</g>
		<g>
			<text fill="#595959" font-family="Verdana,Open Sans,DejaVu Sans,sans-serif" font-weight="400" font-size="41" transform="matrix(6.12323e-17 -1 1 6.12323e-17 3766.6467185507017 1212.1708984375)">31-Mar</text>
		</g>
		<g>
			<text fill="#595959" font-family="Verdana,Open Sans,DejaVu Sans,sans-serif" font-weight="400" font-size="41" transform="matrix(6.12323e-17 -1 1 6.12323e-17 3858.555001395089 1203.3022384643555)">28-Apr</text>
		</g>
		<g>
			<text fill="#595959" font-family="Verdana,Open Sans,DejaVu Sans,sans-serif" font-weight="400" font-size="41" transform="matrix(6.12323e-17 -1 1 6.12323e-17 3945.738674864477 1216.51513671875)">26-May</text>
		</g>
		<g>
			<text fill="#595959" font-family="Verdana,Open Sans,DejaVu Sans,sans-serif" font-weight="400" font-size="41" transform="matrix(6.12323e-17 -1 1 6.12323e-17 4031.8713229432396 1194.1733322143555)">30-Jun</text>
		</g>
		<g>
			<text fill="#595959" font-family="Verdana,Open Sans,DejaVu Sans,sans-serif" font-weight="400" font-size="41" transform="matrix(6.12323e-17 -1 1 6.12323e-17 4119.765689772003 1179.0385665893555)">28-Jul</text>
		</g>
		<g>
			<text fill="#595959" font-family="Verdana,Open Sans,DejaVu Sans,sans-serif" font-weight="400" font-size="41" transform="matrix(6.12323e-17 -1 1 6.12323e-17 4207.2896952726405 1208.66748046875)">25-Aug</text>
		</g>
		<g>
			<text fill="#595959" font-family="Verdana,Open Sans,DejaVu Sans,sans-serif" font-weight="400" font-size="41" transform="matrix(6.12323e-17 -1 1 6.12323e-17 4294.4733687420285 1204.42333984375)">22-Sep</text>
		</g>
		<g>
			<text fill="#595959" font-family="Verdana,Open Sans,DejaVu Sans,sans-serif" font-weight="400" font-size="41" transform="matrix(1 0 0 1 3169.14111328125 1050)">0</text>
		</g>
		<g>
			<text fill="#595959" font-family="Verdana,Open Sans,DejaVu Sans,sans-serif" font-weight="400" font-size="41" transform="matrix(1 0 0 1 3088.5625 922)">3,146</text>
		</g>
		<g>
			<text fill="#595959" font-family="Verdana,Open Sans,DejaVu Sans,sans-serif" font-weight="400" font-size="41" transform="matrix(1 0 0 1 3089.42333984375 794)">6,293</text>
		</g>
		<g>
			<text fill="#595959" font-family="Verdana,Open Sans,DejaVu Sans,sans-serif" font-weight="400" font-size="41" transform="matrix(1 0 0 1 3089.0029296875 666)">9,439</text>
		</g>
		<g>
			<text fill="#595959" font-family="Verdana,Open Sans,DejaVu Sans,sans-serif" font-weight="400" font-size="41" transform="matrix(1 0 0 1 3067.0014724731445 538)">12,586</text>
		</g>
		<g>
			<text fill="#595959" font-family="Verdana,Open Sans,DejaVu Sans,sans-serif" font-weight="400" font-size="41" transform="matrix(1 0 0 1 3067.2016677856445 410)">15,732</text>
		</g>
		<g>
			<text fill="#595959" font-family="Verdana,Open Sans,DejaVu Sans,sans-serif" font-weight="400" font-size="41" transform="matrix(1 0 0 1 3556.97119140625 1321)">Week Commencing</text>
		</g>
		<g>
			<text fill="#595959" font-family="Verdana,Open Sans,DejaVu Sans,sans-serif" font-weight="400" font-size="46" transform="matrix(6.12323e-17 -1 1 6.12323e-17 3019.73 1011.673828125)">Number of Browser Profiles</text>
		</g>
		<rect x="2918.5" y="347.5" width="1760" height="1043" stroke="#D9D9D9" stroke-width="3.4375" stroke-linejoin="round" stroke-miterlimit="10" fill="none" />
		<g>
			<path d="M3228.5 1038 3250.295918367347 1038 3272.091836734694 1038 3293.887755102041 1038 3315.683673469388 1038 3337.4795918367345 1038 3359.2755102040815 1038 3381.0714285714284 1038 3402.8673469387754 1038 3424.6632653061224 1038 3446.4591836734694 1038 3468.2551020408164 1038 3490.0510204081634 1038 3511.8469387755104 1038 3533.6428571428573 1038 3555.4387755102043 1038 3577.234693877551 1038 3599.030612244898 1038 3620.826530612245 1038 3642.622448979592 1038 3664.418367346939 1038 3686.214285714286 1038 3708.0102040816328 1038 3729.8061224489797 1038 3751.6020408163267 1038 3773.3979591836733 1038 3795.1938775510203 1038 3816.9897959183672 1038 3838.785714285714 1038 3860.581632653061 1038 3882.377551020408 1038 3904.173469387755 1038 3925.969387755102 1038 3947.765306122449 1038 3969.5612244897957 1038 3991.357142857143 1038 4013.1530612244896 1038 4034.9489795918366 1038 4056.7448979591836 1038 4078.5408163265306 1038 4100.336734693878 1038 4122.132653061224 1038 4143.928571428572 1038 4165.724489795918 1038 4187.5204081632655 1038 4209.316326530612 1038 4231.1122448979595 1038 4252.908163265306 1038 4274.7040816326535 1038 4296.5 1038 4296.5 533.2250190694126 4274.7040816326535 534.5675057208238 4252.908163265306 535.299771167048 4231.1122448979595 535.950673785914 4209.316326530612 537.2524790236461 4187.5204081632655 538.1067887109077 4165.724489795918 539.0424612255276 4143.928571428572 540.0594965675057 4122.132653061224 540.8731248410882 4100.336734693878 541.6460717009916 4078.5408163265306 542.5410628019324 4056.7448979591836 542.9478769387235 4034.9489795918366 543.9649122807017 4013.1530612244896 545.3073989321128 3991.357142857143 545.9176201372998 3969.5612244897957 547.0973811339943 3947.765306122449 548.4805491990846 3925.969387755102 550.1484871599288 3904.173469387755 551.2875667429444 3882.377551020408 552.3859649122807 3860.581632653061 553.3216374269006 3838.785714285714 554.1759471141622 3816.9897959183672 555.1523010424612 3795.1938775510203 556.0472921434019 3773.3979591836733 557.5525044495296 3751.6020408163267 558.2034070683956 3729.8061224489797 558.8543096872615 3708.0102040816328 559.627256547165 3686.214285714286 560.7256547165014 3664.418367346939 561.8647342995168 3642.622448979592 562.7597254004577 3620.826530612245 563.3292651919653 3599.030612244898 564.2649377065852 3577.234693877551 565.6481057716755 3555.4387755102043 566.2583269768625 3533.6428571428573 566.9499110094075 3511.8469387755104 567.438087973557 3490.0510204081634 568.1703534197813 3468.2551020408164 568.6585303839308 3446.4591836734694 568.9433002796848 3424.6632653061224 569.8789727943046 3402.8673469387754 570.5705568268497 3381.0714285714284 572.1164505466564 3359.2755102040815 573.1334858886346 3337.4795918367345 573.7437070938215 3315.683673469388 574.3539282990084 3293.887755102041 575.248919399949 3272.091836734694 575.9811848461734 3250.295918367347 576.6727688787184 3228.5 577.5270785659801 3228.5 1038Z" fill="#e62d39" opacity="0.9" />
		</g>
		<g>
			<path d="M3228.5 577.5270785659801 3250.295918367347 576.6727688787184 3272.091836734694 575.9811848461734 3293.887755102041 575.248919399949 3315.683673469388 574.3539282990084 3337.4795918367345 573.7437070938215 3359.2755102040815 573.1334858886346 3381.0714285714284 572.1164505466564 3402.8673469387754 570.5705568268497 3424.6632653061224 569.8789727943046 3446.4591836734694 568.9433002796848 3468.2551020408164 568.6585303839308 3490.0510204081634 568.1703534197813 3511.8469387755104 567.438087973557 3533.6428571428573 566.9499110094075 3555.4387755102043 566.2583269768625 3577.234693877551 565.6481057716755 3599.030612244898 564.2649377065852 3620.826530612245 563.3292651919653 3642.622448979592 562.7597254004577 3664.418367346939 561.8647342995168 3686.214285714286 560.7256547165014 3708.0102040816328 559.627256547165 3729.8061224489797 558.8543096872615 3751.6020408163267 558.2034070683956 3773.3979591836733 557.5525044495296 3795.1938775510203 556.0472921434019 3816.9897959183672 555.1523010424612 3838.785714285714 554.1759471141622 3860.581632653061 553.3216374269006 3882.377551020408 552.3859649122807 3904.173469387755 551.2875667429444 3925.969387755102 550.1484871599288 3947.765306122449 548.4805491990846 3969.5612244897957 547.0973811339943 3991.357142857143 545.9176201372998 4013.1530612244896 545.3073989321128 4034.9489795918366 543.9649122807017 4056.7448979591836 542.9478769387235 4078.5408163265306 542.5410628019324 4100.336734693878 541.6460717009916 4122.132653061224 540.8731248410882 4143.928571428572 540.0594965675057 4165.724489795918 539.0424612255276 4187.5204081632655 538.1067887109077 4209.316326530612 537.2524790236461 4231.1122448979595 535.950673785914 4252.908163265306 535.299771167048 4274.7040816326535 534.5675057208238 4296.5 533.2250190694126 4296.5 397.99999999999994 4274.7040816326535 399.5458937198067 4252.908163265306 400.44088482074744 4231.1122448979595 401.2545130943299 4209.316326530612 402.63768115942025 4187.5204081632655 403.6953979150776 4165.724489795918 404.71243325705575 4143.928571428572 406.09560132214585 4122.132653061224 406.9905924230866 4100.336734693878 408.0076277650648 4078.5408163265306 409.024663107043 4056.7448979591836 409.716247139588 4034.9489795918366 411.05873379099916 4013.1530612244896 412.6046275108059 3991.357142857143 413.3368929570303 3969.5612244897957 414.6386981947621 3947.765306122449 416.1439105008899 3925.969387755102 418.38138825324177 3904.173469387755 419.723874904653 3882.377551020408 421.066361556064 3860.581632653061 422.1647597254004 3838.785714285714 423.14111365369945 3816.9897959183672 424.3208746503941 3795.1938775510203 425.3785914060513 3773.3979591836733 427.08721078057454 3751.6020408163267 427.9415204678362 3729.8061224489797 428.67378591406043 3708.0102040816328 429.5687770150012 3686.214285714286 430.9926264937706 3664.418367346939 432.25375031782346 3642.622448979592 433.2707856598017 3620.826530612245 434.0844139333841 3599.030612244898 435.26417493007875 3577.234693877551 436.8100686498856 3555.4387755102043 437.583015509789 3533.6428571428573 438.5186880244088 3511.8469387755104 439.2102720569539 3490.0510204081634 440.0645817442156 3468.2551020408164 440.5934401220442 3446.4591836734694 440.87821001779815 3424.6632653061224 441.97660818713445 3402.8673469387754 442.87159928807523 3381.0714285714284 444.7022629036358 3359.2755102040815 445.96338672768877 3337.4795918367345 446.77701500127125 3315.683673469388 448.11950165268246 3293.887755102041 449.2178998220187 3272.091836734694 450.11289092295954 3250.295918367347 450.9672006102211 3228.5 451.9435545385202 3228.5 577.5270785659801Z" fill="#005aa6" opacity="0.9" />
		</g>
		<g>
			<rect x="4372" y="431" width="22.9995" height="23" fill="#e62d39" />
		</g>
		<g>
			<text fill="#595959" font-family="Verdana,Open Sans,DejaVu Sans,sans-serif" font-weight="400" font-size="41" transform="matrix(1 0 0 1 4404.56 454)">Web Browser</text>
		</g>
		<g>
			<rect x="4372" y="508" width="22.9995" height="23" fill="#005aa6" />
		</g>
		<g>
			<text fill="#595959" font-family="Verdana,Open Sans,DejaVu Sans,sans-serif" font-weight="400" font-size="41" transform="matrix(1 0 0 1 4404.56 531)">App</text>
		</g>
	</g>
</svg>
