<svg width="1763" height="1046"
    xmlns="http://www.w3.org/2000/svg"
	xmlns:xlink="http://www.w3.org/1999/xlink" xml:space="preserve" overflow="hidden">
	<defs>
		<clipPath id="clip0">
			<rect x="2917" y="346" width="1763" height="1046"/>
		</clipPath>
	</defs>
	<g clip-path="url(#clip0)" transform="translate(-2917 -346)">
		<rect x="2918" y="347" width="1760" height="1043" fill="#FFFFFF" />
		<g>
			<path d="
			M3228.5 974.532 4296.5 974.532
			M3228.5 910.53 4296.5 910.53
			M3228.5 846.528 4296.5 846.528
			M3228.5 781.526 4296.5 781.526
			M3228.5 717.524 4296.5 717.524
			M3228.5 653.522 4296.5 653.522
			M3228.5 589.52 4296.5 589.52
			M3228.5 525.517 4296.5 525.517
			M3228.5 461.515 4296.5 461.515
			M3228.5 397.5 4296.5 397.5" stroke="#D9D9D9" stroke-width="3.4375" stroke-linejoin="round" stroke-miterlimit="10" fill="none" />
		</g>
		<g>
			<path d="M 1038.5 4296.5 1038.5" stroke="#D9D9D9" stroke-width="3.4375" stroke-linejoin="round" stroke-miterlimit="10" fill="none" fill-rule="evenodd" />
		</g>
		<g>
			<text fill="#595959" font-family="Verdana,Open Sans,DejaVu Sans,sans-serif" font-weight="400" font-size="41" transform="matrix(6.12323e-17 -1 1 6.12323e-17 3248.269287109375 1204.42333984375)">23-Sep</text>
		</g>
		<g>
			<text fill="#595959" font-family="Verdana,Open Sans,DejaVu Sans,sans-serif" font-weight="400" font-size="41" transform="matrix(6.12323e-17 -1 1 6.12323e-17 3330.748370735013 1201.1401290893555)">21-Oct</text>
		</g>
		<g>
			<text fill="#595959" font-family="Verdana,Open Sans,DejaVu Sans,sans-serif" font-weight="400" font-size="41" transform="matrix(6.12323e-17 -1 1 6.12323e-17 3417.9120246731504 1209.70849609375)">18-Nov</text>
		</g>
		<g>
			<text fill="#595959" font-family="Verdana,Open Sans,DejaVu Sans,sans-serif" font-weight="400" font-size="41" transform="matrix(6.12323e-17 -1 1 6.12323e-17 3505.0956981425384 1207.1259765625)">23-Dec</text>
		</g>
		<g>
			<text fill="#595959" font-family="Verdana,Open Sans,DejaVu Sans,sans-serif" font-weight="400" font-size="41" transform="matrix(6.12323e-17 -1 1 6.12323e-17 3595.952955596301 1191.6909103393555)">20-Jan</text>
		</g>
		<g>
			<text fill="#595959" font-family="Verdana,Open Sans,DejaVu Sans,sans-serif" font-weight="400" font-size="41" transform="matrix(6.12323e-17 -1 1 6.12323e-17 3680.193757971939 1201.3203125)">17-Feb</text>
		</g>
		<g>
			<text fill="#595959" font-family="Verdana,Open Sans,DejaVu Sans,sans-serif" font-weight="400" font-size="41" transform="matrix(6.12323e-17 -1 1 6.12323e-17 3766.4365134725767 1210.2890625)">17-Mar</text>
		</g>
		<g>
			<text fill="#595959" font-family="Verdana,Open Sans,DejaVu Sans,sans-serif" font-weight="400" font-size="41" transform="matrix(6.12323e-17 -1 1 6.12323e-17 3858.424874441964 1201.5405197143555)">14-Apr</text>
		</g>
		<g>
			<text fill="#595959" font-family="Verdana,Open Sans,DejaVu Sans,sans-serif" font-weight="400" font-size="41" transform="matrix(6.12323e-17 -1 1 6.12323e-17 3945.738674864477 1214.75341796875)">12-May</text>
		</g>
		<g>
			<text fill="#595959" font-family="Verdana,Open Sans,DejaVu Sans,sans-serif" font-weight="400" font-size="41" transform="matrix(6.12323e-17 -1 1 6.12323e-17 4031.8513034119896 1192.2914962768555)">16-Jun</text>
		</g>
		<g>
			<text fill="#595959" font-family="Verdana,Open Sans,DejaVu Sans,sans-serif" font-weight="400" font-size="41" transform="matrix(6.12323e-17 -1 1 6.12323e-17 4119.765689772003 1177.2768478393555)">14-Jul</text>
		</g>
		<g>
			<text fill="#595959" font-family="Verdana,Open Sans,DejaVu Sans,sans-serif" font-weight="400" font-size="41" transform="matrix(6.12323e-17 -1 1 6.12323e-17 4207.1395487882655 1206.90576171875)">11-Aug</text>
		</g>
		<g>
			<text fill="#595959" font-family="Verdana,Open Sans,DejaVu Sans,sans-serif" font-weight="400" font-size="41" transform="matrix(6.12323e-17 -1 1 6.12323e-17 4294.4933882732785 1204.38330078125)">08-Sep</text>
		</g>
		<g>
			<text fill="#595959" font-family="Verdana,Open Sans,DejaVu Sans,sans-serif" font-weight="400" font-size="41" transform="matrix(1 0 0 1 3169.14111328125 1050)">0</text>
		</g>
		<g>
			<text fill="#595959" font-family="Verdana,Open Sans,DejaVu Sans,sans-serif" font-weight="400" font-size="41" transform="matrix(1 0 0 1 3087.38134765625 922)">3,134</text>
		</g>
		<g>
			<text fill="#595959" font-family="Verdana,Open Sans,DejaVu Sans,sans-serif" font-weight="400" font-size="41" transform="matrix(1 0 0 1 3089.22314453125 794)">6,269</text>
		</g>
		<g>
			<text fill="#595959" font-family="Verdana,Open Sans,DejaVu Sans,sans-serif" font-weight="400" font-size="41" transform="matrix(1 0 0 1 3089.203125 666)">9,403</text>
		</g>
		<g>
			<text fill="#595959" font-family="Verdana,Open Sans,DejaVu Sans,sans-serif" font-weight="400" font-size="41" transform="matrix(1 0 0 1 3067.1215896606445 538)">12,538</text>
		</g>
		<g>
			<text fill="#595959" font-family="Verdana,Open Sans,DejaVu Sans,sans-serif" font-weight="400" font-size="41" transform="matrix(1 0 0 1 3067.2016677856445 410)">15,672</text>
		</g>
		<g>
			<text fill="#595959" font-family="Verdana,Open Sans,DejaVu Sans,sans-serif" font-weight="400" font-size="41" transform="matrix(1 0 0 1 3556.97119140625 1321)">Week Commencing</text>
		</g>
		<g>
			<text fill="#595959" font-family="Verdana,Open Sans,DejaVu Sans,sans-serif" font-weight="400" font-size="46" transform="matrix(6.12323e-17 -1 1 6.12323e-17 3019.73 1011.673828125)">Number of Browser Profiles</text>
		</g>
		<rect x="2918.5" y="347.5" width="1760" height="1043" stroke="#D9D9D9" stroke-width="3.4375" stroke-linejoin="round" stroke-miterlimit="10" fill="none" />
		<g>
			<path d="M3228.5 1038 3250.295918367347 1038 3272.091836734694 1038 3293.887755102041 1038 3315.683673469388 1038 3337.4795918367345 1038 3359.2755102040815 1038 3381.0714285714284 1038 3402.8673469387754 1038 3424.6632653061224 1038 3446.4591836734694 1038 3468.2551020408164 1038 3490.0510204081634 1038 3511.8469387755104 1038 3533.6428571428573 1038 3555.4387755102043 1038 3577.234693877551 1038 3599.030612244898 1038 3620.826530612245 1038 3642.622448979592 1038 3664.418367346939 1038 3686.214285714286 1038 3708.0102040816328 1038 3729.8061224489797 1038 3751.6020408163267 1038 3773.3979591836733 1038 3795.1938775510203 1038 3816.9897959183672 1038 3838.785714285714 1038 3860.581632653061 1038 3882.377551020408 1038 3904.173469387755 1038 3925.969387755102 1038 3947.765306122449 1038 3969.5612244897957 1038 3991.357142857143 1038 4013.1530612244896 1038 4034.9489795918366 1038 4056.7448979591836 1038 4078.5408163265306 1038 4100.336734693878 1038 4122.132653061224 1038 4143.928571428572 1038 4165.724489795918 1038 4187.5204081632655 1038 4209.316326530612 1038 4231.1122448979595 1038 4252.908163265306 1038 4274.7040816326535 1038 4296.5 1038 4296.5 533.375191424196 4274.7040816326535 534.0285860132722 4252.908163265306 535.3353751914242 4231.1122448979595 536.1929555895865 4209.316326530612 537.1322103113835 4187.5204081632655 538.1531393568148 4165.724489795918 538.9698825931598 4143.928571428572 539.7457886676876 4122.132653061224 540.6442062276672 4100.336734693878 541.0525778458398 4078.5408163265306 542.0735068912711 4056.7448979591836 543.4211332312404 4034.9489795918366 544.0336906584993 4013.1530612244896 545.2179683511996 3991.357142857143 546.6064318529862 3969.5612244897957 548.2807554874937 3947.765306122449 549.4241960183767 3925.969387755102 550.5267993874427 3904.173469387755 551.4660541092394 3882.377551020408 552.3236345074017 3860.581632653061 553.3037263910159 3838.785714285714 554.2021439509954 3816.9897959183672 555.7131189382338 3795.1938775510203 556.3665135273098 3773.3979591836733 557.019908116386 3751.6020408163267 557.7958141909137 3729.8061224489797 558.8984175599796 3708.0102040816328 560.0418580908627 3686.214285714286 560.9402756508423 3664.418367346939 561.5119959162839 3642.622448979592 562.4512506380806 3620.826530612245 563.8397141398673 3599.030612244898 564.4522715671261 3577.234693877551 565.1465033180194 3555.4387755102043 565.6365492598264 3533.6428571428573 566.371618172537 3511.8469387755104 566.8616641143441 3490.0510204081634 567.1475242470649 3468.2551020408164 568.0867789688616 3446.4591836734694 568.7810107197549 3424.6632653061224 570.3328228688106 3402.8673469387754 571.3537519142419 3381.0714285714284 571.9663093415008 3359.2755102040815 572.5788667687596 3337.4795918367345 573.4772843287392 3315.683673469388 574.2123532414498 3293.887755102041 574.906584992343 3272.091836734694 575.7641653905054 3250.295918367347 577.0709545686575 3228.5 577.47932618683 3228.5 1038Z" fill="#e62d39" opacity="0.9" />
		</g>
		<g>
			<path d="M3228.5 577.47932618683 3250.295918367347 577.0709545686575 3272.091836734694 575.7641653905054 3293.887755102041 574.906584992343 3315.683673469388 574.2123532414498 3337.4795918367345 573.4772843287392 3359.2755102040815 572.5788667687596 3381.0714285714284 571.9663093415008 3402.8673469387754 571.3537519142419 3424.6632653061224 570.3328228688106 3446.4591836734694 568.7810107197549 3468.2551020408164 568.0867789688616 3490.0510204081634 567.1475242470649 3511.8469387755104 566.8616641143441 3533.6428571428573 566.371618172537 3555.4387755102043 565.6365492598264 3577.234693877551 565.1465033180194 3599.030612244898 564.4522715671261 3620.826530612245 563.8397141398673 3642.622448979592 562.4512506380806 3664.418367346939 561.5119959162839 3686.214285714286 560.9402756508423 3708.0102040816328 560.0418580908627 3729.8061224489797 558.8984175599796 3751.6020408163267 557.7958141909137 3773.3979591836733 557.019908116386 3795.1938775510203 556.3665135273098 3816.9897959183672 555.7131189382338 3838.785714285714 554.2021439509954 3860.581632653061 553.3037263910159 3882.377551020408 552.3236345074017 3904.173469387755 551.4660541092394 3925.969387755102 550.5267993874427 3947.765306122449 549.4241960183767 3969.5612244897957 548.2807554874937 3991.357142857143 546.6064318529862 4013.1530612244896 545.2179683511996 4034.9489795918366 544.0336906584993 4056.7448979591836 543.4211332312404 4078.5408163265306 542.0735068912711 4100.336734693878 541.0525778458398 4122.132653061224 540.6442062276672 4143.928571428572 539.7457886676876 4165.724489795918 538.9698825931598 4187.5204081632655 538.1531393568148 4209.316326530612 537.1322103113835 4231.1122448979595 536.1929555895865 4252.908163265306 535.3353751914242 4274.7040816326535 534.0285860132722 4296.5 533.375191424196 4296.5 398 4274.7040816326535 398.81674323634513 4252.908163265306 400.20520673813166 4231.1122448979595 401.2669729453803 4209.316326530612 402.28790199081175 4187.5204081632655 403.6763654925984 4165.724489795918 404.5747830525779 4143.928571428572 405.59571209800924 4122.132653061224 406.6166411434405 4100.336734693878 407.3108728943339 4078.5408163265306 408.65849923430324 4056.7448979591836 410.2103113833589 4034.9489795918366 410.94538029606946 4013.1530612244896 412.25216947422155 3991.357142857143 413.76314446146 3969.5612244897957 416.009188361409 3947.765306122449 417.3568147013783 3925.969387755102 418.70444104134776 3904.173469387755 419.8070444104135 3882.377551020408 420.78713629402756 3860.581632653061 421.97141398672795 3838.785714285714 423.0331801939765 3816.9897959183672 424.74834099030124 3795.1938775510203 425.6059213884635 3773.3979591836733 426.34099030117414 3751.6020408163267 427.2394078611536 3729.8061224489797 428.66870852475756 3708.0102040816328 429.9346605410924 3686.214285714286 430.95558958652373 3664.418367346939 431.7723328228689 3642.622448979592 432.9566105155692 3620.826530612245 434.50842266462485 3599.030612244898 435.28432873915267 3577.234693877551 436.2235834609495 3555.4387755102043 436.91781521184276 3533.6428571428573 437.77539561000503 3511.8469387755104 438.30627871362947 3490.0510204081634 438.5921388463503 3468.2551020408164 439.694742215416 3446.4591836734694 440.5931597753956 3424.6632653061224 442.430832057172 3402.8673469387754 443.6967840735068 3381.0714285714284 444.51352730985207 3359.2755102040815 445.8611536498213 3337.4795918367345 446.96375701888724 3315.683673469388 447.86217457886687 3293.887755102041 448.7197549770291 3272.091836734694 449.6998468606432 3250.295918367347 451.12914752424706 3228.5 451.70086778968863 3228.5 577.47932618683Z" fill="#005aa6" opacity="0.9" />
		</g>
		<g>
			<rect x="4372" y="431" width="22.9995" height="23" fill="#e62d39" />
		</g>
		<g>
			<text fill="#595959" font-family="Verdana,Open Sans,DejaVu Sans,sans-serif" font-weight="400" font-size="41" transform="matrix(1 0 0 1 4404.56 454)">Web Browser</text>
		</g>
		<g>
			<rect x="4372" y="508" width="22.9995" height="23" fill="#005aa6" />
		</g>
		<g>
			<text fill="#595959" font-family="Verdana,Open Sans,DejaVu Sans,sans-serif" font-weight="400" font-size="41" transform="matrix(1 0 0 1 4404.56 531)">App</text>
		</g>
	</g>
</svg>
