<svg width="1763" height="1046"
    xmlns="http://www.w3.org/2000/svg"
	xmlns:xlink="http://www.w3.org/1999/xlink" xml:space="preserve" overflow="hidden">
	<defs>
		<clipPath id="clip0">
			<rect x="2917" y="346" width="1763" height="1046"/>
		</clipPath>
	</defs>
	<g clip-path="url(#clip0)" transform="translate(-2917 -346)">
		<rect x="2918" y="347" width="1760" height="1043" fill="#FFFFFF" />
		<g>
			<path d="
			M3228.5 974.532 4296.5 974.532
			M3228.5 910.53 4296.5 910.53
			M3228.5 846.528 4296.5 846.528
			M3228.5 781.526 4296.5 781.526
			M3228.5 717.524 4296.5 717.524
			M3228.5 653.522 4296.5 653.522
			M3228.5 589.52 4296.5 589.52
			M3228.5 525.517 4296.5 525.517
			M3228.5 461.515 4296.5 461.515
			M3228.5 397.5 4296.5 397.5" stroke="#D9D9D9" stroke-width="3.4375" stroke-linejoin="round" stroke-miterlimit="10" fill="none" />
		</g>
		<g>
			<path d="M 1038.5 4296.5 1038.5" stroke="#D9D9D9" stroke-width="3.4375" stroke-linejoin="round" stroke-miterlimit="10" fill="none" fill-rule="evenodd" />
		</g>
		<g>
			<text fill="#595959" font-family="Verdana,sans-serif" font-weight="400" font-size="41" transform="matrix(6.12323e-17 -1 1 6.12323e-17 3248 1228)">27-May</text>
		</g>
		<g>
			<text fill="#595959" font-family="Verdana,sans-serif" font-weight="400" font-size="41" transform="matrix(6.12323e-17 -1 1 6.12323e-17 3329.94 1211)">24-Jun</text>
		</g>
		<g>
			<text fill="#595959" font-family="Verdana,sans-serif" font-weight="400" font-size="41" transform="matrix(6.12323e-17 -1 1 6.12323e-17 3415.38 1196)">22-Jul</text>
		</g>
		<g>
			<text fill="#595959" font-family="Verdana,sans-serif" font-weight="400" font-size="41" transform="matrix(6.12323e-17 -1 1 6.12323e-17 3504.32 1218)">19-Aug</text>
		</g>
		<g>
			<text fill="#595959" font-family="Verdana,sans-serif" font-weight="400" font-size="41" transform="matrix(6.12323e-17 -1 1 6.12323e-17 3589.76 1219)">16-Sep</text>
		</g>
		<g>
			<text fill="#595959" font-family="Verdana,sans-serif" font-weight="400" font-size="41" transform="matrix(6.12323e-17 -1 1 6.12323e-17 3671.7 1213)">14-Oct</text>
		</g>
		<g>
			<text fill="#595959" font-family="Verdana,sans-serif" font-weight="400" font-size="41" transform="matrix(6.12323e-17 -1 1 6.12323e-17 3756.64 1222)">11-Nov</text>
		</g>
		<g>
			<text fill="#595959" font-family="Verdana,sans-serif" font-weight="400" font-size="41" transform="matrix(6.12323e-17 -1 1 6.12323e-17 3842.08 1220)">16-Dec</text>
		</g>
		<g>
			<text fill="#595959" font-family="Verdana,sans-serif" font-weight="400" font-size="41" transform="matrix(6.12323e-17 -1 1 6.12323e-17 3928.02 1207)">13-Jan</text>
		</g>
		<g>
			<text fill="#595959" font-family="Verdana,sans-serif" font-weight="400" font-size="41" transform="matrix(6.12323e-17 -1 1 6.12323e-17 4013.46 1214)">10-Feb</text>
		</g>
		<g>
			<text fill="#595959" font-family="Verdana,sans-serif" font-weight="400" font-size="41" transform="matrix(6.12323e-17 -1 1 6.12323e-17 4098.9 1221)">10-Mar</text>
		</g>
		<g>
			<text fill="#595959" font-family="Verdana,sans-serif" font-weight="400" font-size="41" transform="matrix(6.12323e-17 -1 1 6.12323e-17 4187.84 1217)">07-Apr</text>
		</g>
		<g>
			<text fill="#595959" font-family="Verdana,sans-serif" font-weight="400" font-size="41" transform="matrix(6.12323e-17 -1 1 6.12323e-17 4273.28 1228)">05-May</text>
		</g>
		<g>
			<text fill="#595959" font-family="Verdana,sans-serif" font-weight="400" font-size="41" transform="matrix(1 0 0 1 3167.5 1050)">0</text>
		</g>
		<g>
			<text fill="#595959" font-family="Verdana,sans-serif" font-weight="400" font-size="41" transform="matrix(1 0 0 1 3074.5 922)">3,040</text>
		</g>
		<g>
			<text fill="#595959" font-family="Verdana,sans-serif" font-weight="400" font-size="41" transform="matrix(1 0 0 1 3074.5 794)">6,079</text>
		</g>
		<g>
			<text fill="#595959" font-family="Verdana,sans-serif" font-weight="400" font-size="41" transform="matrix(1 0 0 1 3073.5 666)">9,119</text>
		</g>
		<g>
			<text fill="#595959" font-family="Verdana,sans-serif" font-weight="400" font-size="41" transform="matrix(1 0 0 1 3050.5 538)">12,158</text>
		</g>
		<g>
			<text fill="#595959" font-family="Verdana,sans-serif" font-weight="400" font-size="41" transform="matrix(1 0 0 1 3050.5 410)">15,198</text>
		</g>
		<g>
			<text fill="#595959" font-family="Verdana,sans-serif" font-weight="400" font-size="41" transform="matrix(1 0 0 1 3544.5 1321)">Week Commencing</text>
		</g>
		<g>
			<text fill="#595959" font-family="Verdana,sans-serif" font-weight="400" font-size="46" transform="matrix(6.12323e-17 -1 1 6.12323e-17 3019.73 1030.75)">Number of Browser Profiles</text>
		</g>
		<rect x="2918.5" y="347.5" width="1760" height="1043" stroke="#D9D9D9" stroke-width="3.4375" stroke-linejoin="round" stroke-miterlimit="10" fill="none" />
		<g>
			<path d="M3228.5 1038 3249.86 1038 3271.22 1038 3292.58 1038 3313.94 1038 3335.3 1038 3356.66 1038 3378.02 1038 3399.38 1038 3420.74 1038 3442.1 1038 3463.46 1038 3484.82 1038 3506.18 1038 3527.54 1038 3548.9 1038 3570.26 1038 3591.62 1038 3612.98 1038 3634.34 1038 3655.7 1038 3677.06 1038 3698.42 1038 3719.7799999999997 1038 3741.14 1038 3762.5 1038 3783.86 1038 3805.2200000000003 1038 3826.58 1038 3847.94 1038 3869.3 1038 3890.66 1038 3912.02 1038 3933.38 1038 3954.74 1038 3976.1 1038 3997.46 1038 4018.8199999999997 1038 4040.18 1038 4061.54 1038 4082.9 1038 4104.26 1038 4125.62 1038 4146.98 1038 4168.34 1038 4189.7 1038 4211.0599999999995 1038 4232.42 1038 4253.78 1038 4275.139999999999 1038 4296.5 1038 4296.5 534.1863403079353 4275.139999999999 535.3233320173707 4253.78 536.2918805105935 4232.42 537.17620739571 4211.0599999999995 538.1868666929859 4189.7 539.1133043821555 4168.34 540.6714041321227 4146.98 541.3451769969734 4125.62 542.0189498618239 4104.26 542.8190551388341 4082.9 543.9560468482696 4061.54 545.1351493617581 4040.18 546.0615870509278 4018.8199999999997 546.651138307672 3997.46 547.6196868008949 3976.1 549.0514541387024 3954.74 549.6831161994999 3933.38 550.3989998684037 3912.02 550.9043295170418 3890.66 551.6623239899986 3869.3 552.1676536386367 3847.94 552.4624292670088 3826.58 553.4309777602316 3805.2200000000003 554.1468614291355 3783.86 555.7470719831556 3762.5 556.7998420844848 3741.14 557.4315041452822 3719.7799999999997 558.0631662060798 3698.42 558.9896038952494 3677.06 559.7475983682064 3655.7 560.4634820371101 3634.34 561.3478089222266 3612.98 562.6953546519278 3591.62 563.1164626924595 3570.26 564.2113435978417 3548.9 565.1377812870114 3527.54 565.7694433478089 3506.18 566.6958810369786 3484.82 567.2433214896697 3463.46 567.8328727464141 3442.1 568.7593104355836 3420.74 569.5594157125938 3399.38 570.3174101855507 3378.02 570.8648506382419 3356.66 571.2859586787736 3335.3 571.7070667193052 3313.94 572.7177260165811 3292.58 573.433609685485 3271.22 574.1494933543887 3249.86 575.244374259771 3228.5 576.2971443611002 3228.5 1038Z" fill="#e62d39" opacity="0.9" />
		</g>
		<g>
			<path d="M3228.5 576.2971443611002 3249.86 575.244374259771 3271.22 574.1494933543887 3292.58 573.433609685485 3313.94 572.7177260165811 3335.3 571.7070667193052 3356.66 571.2859586787736 3378.02 570.8648506382419 3399.38 570.3174101855507 3420.74 569.5594157125938 3442.1 568.7593104355836 3463.46 567.8328727464141 3484.82 567.2433214896697 3506.18 566.6958810369786 3527.54 565.7694433478089 3548.9 565.1377812870114 3570.26 564.2113435978417 3591.62 563.1164626924595 3612.98 562.6953546519278 3634.34 561.3478089222266 3655.7 560.4634820371101 3677.06 559.7475983682064 3698.42 558.9896038952494 3719.7799999999997 558.0631662060798 3741.14 557.4315041452822 3762.5 556.7998420844848 3783.86 555.7470719831556 3805.2200000000003 554.1468614291355 3826.58 553.4309777602316 3847.94 552.4624292670088 3869.3 552.1676536386367 3890.66 551.6623239899986 3912.02 550.9043295170418 3933.38 550.3989998684037 3954.74 549.6831161994999 3976.1 549.0514541387024 3997.46 547.6196868008949 4018.8199999999997 546.651138307672 4040.18 546.0615870509278 4061.54 545.1351493617581 4082.9 543.9560468482696 4104.26 542.8190551388341 4125.62 542.0189498618239 4146.98 541.3451769969734 4168.34 540.6714041321227 4189.7 539.1133043821555 4211.0599999999995 538.1868666929859 4232.42 537.17620739571 4253.78 536.2918805105935 4275.139999999999 535.3233320173707 4296.5 534.1863403079353 4296.5 398.00000000000006 4275.139999999999 399.3896565337544 4253.78 400.5266482431899 4232.42 401.53730754046586 4211.0599999999995 402.75852085800756 4189.7 403.8534017633899 4168.34 405.62205553362287 4146.98 406.50638241873935 4125.62 407.26437689169626 4104.26 408.1908145808659 4082.9 409.6646927227267 4061.54 410.9701276483747 4040.18 412.02289774970393 4018.8199999999997 412.86511383076714 3997.46 414.086327148309 3976.1 415.6865377023292 3954.74 416.4866429793393 3933.38 417.4551914725622 3912.02 418.1710751414661 3890.66 419.0554020265824 3869.3 419.6028424792736 3847.94 419.8976181076457 3826.58 421.0346098170812 3805.2200000000003 421.9610475062509 3783.86 423.85603368864315 3762.5 425.1614686142914 3741.14 426.00368469535465 3719.7799999999997 427.3933412291092 3698.42 428.5303329385446 3677.06 429.45677062771415 3655.7 430.34109751283063 3634.34 431.35175681010656 3612.98 432.8256349519673 3591.62 433.4151862087117 3570.26 434.804842742466 3548.9 435.9418344519015 3527.54 436.7419397289117 3506.18 437.8789314383472 3484.82 438.51059349914465 3463.46 439.3949203842611 3442.1 440.40557968153706 3420.74 441.3741281747599 3399.38 442.25845505987627 3378.02 442.80589551256753 3356.66 443.31122516120547 3335.3 444.0271088301092 3313.94 445.2062113435978 3292.58 446.0905382287143 3271.22 447.0169759178839 3249.86 448.40663245163836 3228.5 449.6699565732334 3228.5 576.2971443611002Z" fill="#005aa6" opacity="0.9" />
		</g>
		<g>
			<rect x="4372" y="431" width="22.9995" height="23" fill="#e62d39" />
		</g>
		<g>
			<text fill="#595959" font-family="Verdana,sans-serif" font-weight="400" font-size="41" transform="matrix(1 0 0 1 4404.56 454)">Web Browser</text>
		</g>
		<g>
			<rect x="4372" y="508" width="22.9995" height="23" fill="#005aa6" />
		</g>
		<g>
			<text fill="#595959" font-family="Verdana,sans-serif" font-weight="400" font-size="41" transform="matrix(1 0 0 1 4404.56 531)">App</text>
		</g>
	</g>
</svg>
