<svg width="1763" height="1046"
    xmlns="http://www.w3.org/2000/svg"
	xmlns:xlink="http://www.w3.org/1999/xlink" xml:space="preserve" overflow="hidden">
	<defs>
		<clipPath id="clip0">
			<rect x="2917" y="346" width="1763" height="1046"/>
		</clipPath>
	</defs>
	<g clip-path="url(#clip0)" transform="translate(-2917 -346)">
		<rect x="2918" y="347" width="1760" height="1043" fill="#FFFFFF" />
		<g>
			<path d="
			M3228.5 974.532 4296.5 974.532
			M3228.5 910.53 4296.5 910.53
			M3228.5 846.528 4296.5 846.528
			M3228.5 781.526 4296.5 781.526
			M3228.5 717.524 4296.5 717.524
			M3228.5 653.522 4296.5 653.522
			M3228.5 589.52 4296.5 589.52
			M3228.5 525.517 4296.5 525.517
			M3228.5 461.515 4296.5 461.515
			M3228.5 397.5 4296.5 397.5" stroke="#D9D9D9" stroke-width="3.4375" stroke-linejoin="round" stroke-miterlimit="10" fill="none" />
		</g>
		<g>
			<path d="M 1038.5 4296.5 1038.5" stroke="#D9D9D9" stroke-width="3.4375" stroke-linejoin="round" stroke-miterlimit="10" fill="none" fill-rule="evenodd" />
		</g>
		<g>
			<text fill="#595959" font-family="Verdana,sans-serif" font-weight="400" font-size="41" transform="matrix(6.12323e-17 -1 1 6.12323e-17 3244.5 1210)">29-Jan</text>
		</g>
		<g>
			<text fill="#595959" font-family="Verdana,sans-serif" font-weight="400" font-size="41" transform="matrix(6.12323e-17 -1 1 6.12323e-17 3328.264705882353 1216)">26-Feb</text>
		</g>
		<g>
			<text fill="#595959" font-family="Verdana,sans-serif" font-weight="400" font-size="41" transform="matrix(6.12323e-17 -1 1 6.12323e-17 3412.029411764706 1223)">25-Mar</text>
		</g>
		<g>
			<text fill="#595959" font-family="Verdana,sans-serif" font-weight="400" font-size="41" transform="matrix(6.12323e-17 -1 1 6.12323e-17 3499.294117647059 1216)">22-Apr</text>
		</g>
		<g>
			<text fill="#595959" font-family="Verdana,sans-serif" font-weight="400" font-size="41" transform="matrix(6.12323e-17 -1 1 6.12323e-17 3583.0588235294117 1228)">20-May</text>
		</g>
		<g>
			<text fill="#595959" font-family="Verdana,sans-serif" font-weight="400" font-size="41" transform="matrix(6.12323e-17 -1 1 6.12323e-17 3662.823529411765 1209)">17-Jun</text>
		</g>
		<g>
			<text fill="#595959" font-family="Verdana,sans-serif" font-weight="400" font-size="41" transform="matrix(6.12323e-17 -1 1 6.12323e-17 3747.0882352941176 1194)">15-Jul</text>
		</g>
		<g>
			<text fill="#595959" font-family="Verdana,sans-serif" font-weight="400" font-size="41" transform="matrix(6.12323e-17 -1 1 6.12323e-17 3834.3529411764707 1218)">12-Aug</text>
		</g>
		<g>
			<text fill="#595959" font-family="Verdana,sans-serif" font-weight="400" font-size="41" transform="matrix(6.12323e-17 -1 1 6.12323e-17 3918.1176470588234 1222)">09-Sep</text>
		</g>
		<g>
			<text fill="#595959" font-family="Verdana,sans-serif" font-weight="400" font-size="41" transform="matrix(6.12323e-17 -1 1 6.12323e-17 3998.3823529411766 1215)">07-Oct</text>
		</g>
		<g>
			<text fill="#595959" font-family="Verdana,sans-serif" font-weight="400" font-size="41" transform="matrix(6.12323e-17 -1 1 6.12323e-17 4082.1470588235293 1225)">04-Nov</text>
		</g>
		<g>
			<text fill="#595959" font-family="Verdana,sans-serif" font-weight="400" font-size="41" transform="matrix(6.12323e-17 -1 1 6.12323e-17 4165.911764705882 1223)">09-Dec</text>
		</g>
		<g>
			<text fill="#595959" font-family="Verdana,sans-serif" font-weight="400" font-size="41" transform="matrix(6.12323e-17 -1 1 6.12323e-17 4249.676470588235 1210)">06-Jan</text>
		</g>
		<g>
			<text fill="#595959" font-family="Verdana,sans-serif" font-weight="400" font-size="41" transform="matrix(1 0 0 1 3123.5 1050)">0%</text>
		</g>
		<g>
			<text fill="#595959" font-family="Verdana,sans-serif" font-weight="400" font-size="41" transform="matrix(1 0 0 1 3097.5 922)">20%</text>
		</g>
		<g>
			<text fill="#595959" font-family="Verdana,sans-serif" font-weight="400" font-size="41" transform="matrix(1 0 0 1 3096.5 794)">40%</text>
		</g>
		<g>
			<text fill="#595959" font-family="Verdana,sans-serif" font-weight="400" font-size="41" transform="matrix(1 0 0 1 3097.5 666)">60%</text>
		</g>
		<g>
			<text fill="#595959" font-family="Verdana,sans-serif" font-weight="400" font-size="41" transform="matrix(1 0 0 1 3097.5 538)">80%</text>
		</g>
		<g>
			<text fill="#595959" font-family="Verdana,sans-serif" font-weight="400" font-size="41" transform="matrix(1 0 0 1 3074.5 410)">100%</text>
		</g>
		<g>
			<text fill="#595959" font-family="Verdana,sans-serif" font-weight="400" font-size="41" transform="matrix(1 0 0 1 3544.5 1321)">Week Commencing</text>
		</g>
		<g>
			<text fill="#595959" font-family="Verdana,sans-serif" font-weight="400" font-size="46" transform="matrix(6.12323e-17 -1 1 6.12323e-17 3019.73 965.25)">Requests (% of Total)</text>
		</g>
		<rect x="2918.5" y="347.5" width="1760" height="1043" stroke="#D9D9D9" stroke-width="3.4375" stroke-linejoin="round" stroke-miterlimit="10" fill="none" />
		<g>
			<path d="M3228.5 1038 3249.4411764705883 1038 3270.3823529411766 1038 3291.323529411765 1038 3312.264705882353 1038 3333.205882352941 1038 3354.1470588235293 1038 3375.0882352941176 1038 3396.029411764706 1038 3416.970588235294 1038 3437.9117647058824 1038 3458.8529411764707 1038 3479.794117647059 1038 3500.735294117647 1038 3521.676470588235 1038 3542.6176470588234 1038 3563.5588235294117 1038 3584.5 1038 3605.4411764705883 1038 3626.3823529411766 1038 3647.323529411765 1038 3668.264705882353 1038 3689.205882352941 1038 3710.1470588235293 1038 3731.0882352941176 1038 3752.029411764706 1038 3772.970588235294 1038 3793.9117647058824 1038 3814.8529411764707 1038 3835.7941176470586 1038 3856.735294117647 1038 3877.676470588235 1038 3898.6176470588234 1038 3919.5588235294117 1038 3940.5 1038 3961.4411764705883 1038 3982.3823529411766 1038 4003.323529411765 1038 4024.264705882353 1038 4045.2058823529414 1038 4066.1470588235293 1038 4087.0882352941176 1038 4108.029411764706 1038 4128.970588235294 1038 4149.911764705882 1038 4170.85294117647 1038 4191.794117647059 1038 4212.735294117647 1038 4233.676470588235 1038 4254.617647058823 1038 4275.558823529412 1038 4296.5 1038 4296.5 581.9303729662242 4275.558823529412 581.2253151836085 4254.617647058823 580.7419087611287 4233.676470588235 580.710243189289 4212.735294117647 580.6735762948426 4191.794117647059 580.9280737837942 4170.85294117647 581.4872454103777 4149.911764705882 582.4062939611431 4128.970588235294 569.6826475023468 4108.029411764706 569.8912689965251 4087.0882352941176 569.9302361292804 4066.1470588235293 569.8349942572809 4045.2058823529414 569.5040370531727 4024.264705882353 717.6623105620715 4003.323529411765 693.0292117157351 3982.3823529411766 692.8367597789183 3961.4411764705883 692.6574656354969 3940.5 684.2461914870885 3919.5588235294117 684.0344882877787 3898.6176470588234 684.1358174388192 3877.676470588235 683.9806402948523 3856.735294117647 683.9172481230904 3835.7941176470586 683.650703471495 3814.8529411764707 683.2253967284606 3793.9117647058824 683.0202318089205 3772.970588235294 682.9152439485392 3752.029411764706 682.6018446393113 3731.0882352941176 682.3232723398903 3710.1470588235293 692.0678617680483 3689.205882352941 692.1617344671945 3668.264705882353 692.8199164999976 3647.323529411765 693.1175071055251 3626.3823529411766 693.279620378092 3605.4411764705883 693.7023667945714 3584.5 694.1241584254815 3563.5588235294117 694.1818102912466 3542.6176470588234 694.1642138907431 3521.676470588235 694.1125422243633 3500.735294117647 694.1000133322768 3479.794117647059 694.3187105935212 3458.8529411764707 693.6205909506452 3437.9117647058824 692.0050611605195 3416.970588235294 690.3198452220047 3396.029411764706 688.7547930560947 3375.0882352941176 684.6952509793664 3354.1470588235293 679.1608039260515 3333.205882352941 679.6019256256711 3312.264705882353 682.3213957841157 3291.323529411765 684.5298935912222 3270.3823529411766 686.5899201687104 3249.4411764705883 685.5922828206933 3228.5 684.727262331711 3228.5 1038Z" fill="#e62d39" opacity="0.9" />
		</g>
		<g>
			<path d="M3228.5 684.727262331711 3249.4411764705883 685.5922828206933 3270.3823529411766 686.5899201687104 3291.323529411765 684.5298935912222 3312.264705882353 682.3213957841157 3333.205882352941 679.6019256256711 3354.1470588235293 679.1608039260515 3375.0882352941176 684.6952509793664 3396.029411764706 688.7547930560947 3416.970588235294 690.3198452220047 3437.9117647058824 692.0050611605195 3458.8529411764707 693.6205909506452 3479.794117647059 694.3187105935212 3500.735294117647 694.1000133322768 3521.676470588235 694.1125422243633 3542.6176470588234 694.1642138907431 3563.5588235294117 694.1818102912466 3584.5 694.1241584254815 3605.4411764705883 693.7023667945714 3626.3823529411766 693.279620378092 3647.323529411765 693.1175071055251 3668.264705882353 692.8199164999976 3689.205882352941 692.1617344671945 3710.1470588235293 692.0678617680483 3731.0882352941176 682.3232723398903 3752.029411764706 682.6018446393113 3772.970588235294 682.9152439485392 3793.9117647058824 683.0202318089205 3814.8529411764707 683.2253967284606 3835.7941176470586 683.650703471495 3856.735294117647 683.9172481230904 3877.676470588235 683.9806402948523 3898.6176470588234 684.1358174388192 3919.5588235294117 684.0344882877787 3940.5 684.2461914870885 3961.4411764705883 692.6574656354969 3982.3823529411766 692.8367597789183 4003.323529411765 693.0292117157351 4024.264705882353 717.6623105620715 4045.2058823529414 569.5040370531727 4066.1470588235293 569.8349942572809 4087.0882352941176 569.9302361292804 4108.029411764706 569.8912689965251 4128.970588235294 569.6826475023468 4149.911764705882 582.4062939611431 4170.85294117647 581.4872454103777 4191.794117647059 580.9280737837942 4212.735294117647 580.6735762948426 4233.676470588235 580.710243189289 4254.617647058823 580.7419087611287 4275.558823529412 581.2253151836085 4296.5 581.9303729662242 4296.5 398.7411343617605 4275.558823529412 398.7379557747454 4254.617647058823 398.70704867301595 4233.676470588235 398.70882925199004 4212.735294117647 398.7008574619051 4191.794117647059 398.68535542850464 4170.85294117647 398.67102339002776 4149.911764705882 398.67520739706913 4128.970588235294 399.27182314363034 4108.029411764706 399.262582558681 4087.0882352941176 399.27351700187455 4066.1470588235293 399.28077369767425 4045.2058823529414 399.29931326714217 4024.264705882353 463.6506199133046 4003.323529411765 458.1198955073757 3982.3823529411766 457.6909023203396 3961.4411764705883 457.1922376810141 3940.5 442.93735389999836 3919.5588235294117 442.4560046260649 3898.6176470588234 441.9523894028935 3877.676470588235 441.5335721284329 3856.735294117647 441.085682632276 3835.7941176470586 440.7511233983183 3814.8529411764707 440.358904599104 3793.9117647058824 439.99162530587694 3772.970588235294 439.5878575638358 3752.029411764706 439.2709286792896 3731.0882352941176 439.03517502824866 3710.1470588235293 438.2387094064713 3689.205882352941 437.86557118539895 3668.264705882353 437.9037489834077 3647.323529411765 437.50828716559636 3626.3823529411766 437.0430647748583 3605.4411764705883 436.55579203505033 3584.5 435.9902777401653 3563.5588235294117 435.4750218802621 3542.6176470588234 434.9235826881617 3521.676470588235 434.50854774480695 3500.735294117647 434.2228656036452 3479.794117647059 433.89359402287107 3458.8529411764707 433.6904179753529 3437.9117647058824 433.5882703257375 3416.970588235294 433.47006547647834 3396.029411764706 433.35408809308973 3375.0882352941176 433.21208388667225 3354.1470588235293 422.122193997944 3333.205882352941 421.6503463054078 3312.264705882353 420.92160217406195 3291.323529411765 420.29603101333674 3270.3823529411766 419.6100604377933 3249.4411764705883 419.2453958196608 3228.5 418.88543369630037 3228.5 684.727262331711Z" fill="#005aa6" opacity="0.9" />
		</g>
		<g>
			<path d="M3228.5 418.88543369630037 3249.4411764705883 419.2453958196608 3270.3823529411766 419.6100604377933 3291.323529411765 420.29603101333674 3312.264705882353 420.92160217406195 3333.205882352941 421.6503463054078 3354.1470588235293 422.122193997944 3375.0882352941176 433.21208388667225 3396.029411764706 433.35408809308973 3416.970588235294 433.47006547647834 3437.9117647058824 433.5882703257375 3458.8529411764707 433.6904179753529 3479.794117647059 433.89359402287107 3500.735294117647 434.2228656036452 3521.676470588235 434.50854774480695 3542.6176470588234 434.9235826881617 3563.5588235294117 435.4750218802621 3584.5 435.9902777401653 3605.4411764705883 436.55579203505033 3626.3823529411766 437.0430647748583 3647.323529411765 437.50828716559636 3668.264705882353 437.9037489834077 3689.205882352941 437.86557118539895 3710.1470588235293 438.2387094064713 3731.0882352941176 439.03517502824866 3752.029411764706 439.2709286792896 3772.970588235294 439.5878575638358 3793.9117647058824 439.99162530587694 3814.8529411764707 440.358904599104 3835.7941176470586 440.7511233983183 3856.735294117647 441.085682632276 3877.676470588235 441.5335721284329 3898.6176470588234 441.9523894028935 3919.5588235294117 442.4560046260649 3940.5 442.93735389999836 3961.4411764705883 457.1922376810141 3982.3823529411766 457.6909023203396 4003.323529411765 458.1198955073757 4024.264705882353 463.6506199133046 4045.2058823529414 399.29931326714217 4066.1470588235293 399.28077369767425 4087.0882352941176 399.27351700187455 4108.029411764706 399.262582558681 4128.970588235294 399.27182314363034 4149.911764705882 398.67520739706913 4170.85294117647 398.67102339002776 4191.794117647059 398.68535542850464 4212.735294117647 398.7008574619051 4233.676470588235 398.70882925199004 4254.617647058823 398.70704867301595 4275.558823529412 398.7379557747454 4296.5 398.7411343617605 4296.5 397.99999999999994 4275.558823529412 398.00000000000006 4254.617647058823 398 4233.676470588235 398 4212.735294117647 398.00000000000006 4191.794117647059 397.99999999999994 4170.85294117647 398.00000000000006 4149.911764705882 398.00000000000006 4128.970588235294 398 4108.029411764706 398 4087.0882352941176 398.00000000000006 4066.1470588235293 397.99999999999994 4045.2058823529414 398 4024.264705882353 398 4003.323529411765 398.00000000000006 3982.3823529411766 398.00000000000006 3961.4411764705883 398.0000000000001 3940.5 398 3919.5588235294117 397.99999999999994 3898.6176470588234 398.00000000000006 3877.676470588235 397.99999999999994 3856.735294117647 398 3835.7941176470586 398.00000000000006 3814.8529411764707 397.99999999999994 3793.9117647058824 398 3772.970588235294 398 3752.029411764706 397.9999999999999 3731.0882352941176 397.99999999999994 3710.1470588235293 398.00000000000006 3689.205882352941 398 3668.264705882353 398 3647.323529411765 398.00000000000006 3626.3823529411766 397.9999999999999 3605.4411764705883 398 3584.5 397.99999999999994 3563.5588235294117 398 3542.6176470588234 398 3521.676470588235 397.9999999999999 3500.735294117647 397.9999999999999 3479.794117647059 398.0000000000001 3458.8529411764707 398 3437.9117647058824 397.99999999999994 3416.970588235294 398.00000000000006 3396.029411764706 398 3375.0882352941176 398 3354.1470588235293 398 3333.205882352941 398.00000000000006 3312.264705882353 398.00000000000006 3291.323529411765 398.00000000000006 3270.3823529411766 398 3249.4411764705883 397.99999999999994 3228.5 398 3228.5 418.88543369630037Z" fill="#393d41" opacity="0.9" />
		</g>
		<g>
			<rect x="4372" y="431" width="22.9995" height="23" fill="#e62d39" />
		</g>
		<g>
			<text fill="#595959" font-family="Verdana,sans-serif" font-weight="400" font-size="41" transform="matrix(1 0 0 1 4404.56 454)">Web Browser</text>
		</g>
		<g>
			<rect x="4372" y="508" width="22.9995" height="23" fill="#005aa6" />
		</g>
		<g>
			<text fill="#595959" font-family="Verdana,sans-serif" font-weight="400" font-size="41" transform="matrix(1 0 0 1 4404.56 531)">App</text>
		</g>
		<g>
			<rect x="4372" y="585" width="22.9995" height="23" fill="#393d41" />
		</g>
		<g>
			<text fill="#595959" font-family="Verdana,sans-serif" font-weight="400" font-size="41" transform="matrix(1 0 0 1 4404.56 608)">Unclassified</text>
		</g>
	</g>
</svg>
