<svg width="1763" height="1046"
    xmlns="http://www.w3.org/2000/svg"
	xmlns:xlink="http://www.w3.org/1999/xlink" xml:space="preserve" overflow="hidden">
	<defs>
		<clipPath id="clip0">
			<rect x="2917" y="346" width="1763" height="1046"/>
		</clipPath>
	</defs>
	<g clip-path="url(#clip0)" transform="translate(-2917 -346)">
		<rect x="2918" y="347" width="1760" height="1043" fill="#FFFFFF" />
		<g>
			<path d="
			M3228.5 974.532 4296.5 974.532
			M3228.5 910.53 4296.5 910.53
			M3228.5 846.528 4296.5 846.528
			M3228.5 781.526 4296.5 781.526
			M3228.5 717.524 4296.5 717.524
			M3228.5 653.522 4296.5 653.522
			M3228.5 589.52 4296.5 589.52
			M3228.5 525.517 4296.5 525.517
			M3228.5 461.515 4296.5 461.515
			M3228.5 397.5 4296.5 397.5" stroke="#D9D9D9" stroke-width="3.4375" stroke-linejoin="round" stroke-miterlimit="10" fill="none" />
		</g>
		<g>
			<path d="M 1038.5 4296.5 1038.5" stroke="#D9D9D9" stroke-width="3.4375" stroke-linejoin="round" stroke-miterlimit="10" fill="none" fill-rule="evenodd" />
		</g>
		<g>
			<text fill="#595959" font-family="Verdana,Open Sans,DejaVu Sans,sans-serif" font-weight="400" font-size="41" transform="matrix(6.12323e-17 -1 1 6.12323e-17 3247.928955078125 1179.0385665893555)">22-Jul</text>
		</g>
		<g>
			<text fill="#595959" font-family="Verdana,Open Sans,DejaVu Sans,sans-serif" font-weight="400" font-size="41" transform="matrix(6.12323e-17 -1 1 6.12323e-17 3333.709287109375 1206.90576171875)">19-Aug</text>
		</g>
		<g>
			<text fill="#595959" font-family="Verdana,Open Sans,DejaVu Sans,sans-serif" font-weight="400" font-size="41" transform="matrix(6.12323e-17 -1 1 6.12323e-17 3419.149287109375 1202.66162109375)">16-Sep</text>
		</g>
		<g>
			<text fill="#595959" font-family="Verdana,Open Sans,DejaVu Sans,sans-serif" font-weight="400" font-size="41" transform="matrix(6.12323e-17 -1 1 6.12323e-17 3499.884697265625 1199.3784103393555)">14-Oct</text>
		</g>
		<g>
			<text fill="#595959" font-family="Verdana,Open Sans,DejaVu Sans,sans-serif" font-weight="400" font-size="41" transform="matrix(6.12323e-17 -1 1 6.12323e-17 3585.09447265625 1209.70849609375)">11-Nov</text>
		</g>
		<g>
			<text fill="#595959" font-family="Verdana,Open Sans,DejaVu Sans,sans-serif" font-weight="400" font-size="41" transform="matrix(6.12323e-17 -1 1 6.12323e-17 3670.744677734375 1205.3642578125)">16-Dec</text>
		</g>
		<g>
			<text fill="#595959" font-family="Verdana,Open Sans,DejaVu Sans,sans-serif" font-weight="400" font-size="41" transform="matrix(6.12323e-17 -1 1 6.12323e-17 3759.8382421875 1189.9291915893555)">13-Jan</text>
		</g>
		<g>
			<text fill="#595959" font-family="Verdana,Open Sans,DejaVu Sans,sans-serif" font-weight="400" font-size="41" transform="matrix(6.12323e-17 -1 1 6.12323e-17 3842.355390625 1201.3203125)">10-Feb</text>
		</g>
		<g>
			<text fill="#595959" font-family="Verdana,Open Sans,DejaVu Sans,sans-serif" font-weight="400" font-size="41" transform="matrix(6.12323e-17 -1 1 6.12323e-17 3927.084697265625 1210.2890625)">10-Mar</text>
		</g>
		<g>
			<text fill="#595959" font-family="Verdana,Open Sans,DejaVu Sans,sans-serif" font-weight="400" font-size="41" transform="matrix(6.12323e-17 -1 1 6.12323e-17 4017.249306640625 1203.2621994018555)">07-Apr</text>
		</g>
		<g>
			<text fill="#595959" font-family="Verdana,Open Sans,DejaVu Sans,sans-serif" font-weight="400" font-size="41" transform="matrix(6.12323e-17 -1 1 6.12323e-17 4102.689306640625 1216.47509765625)">05-May</text>
		</g>
		<g>
			<text fill="#595959" font-family="Verdana,Open Sans,DejaVu Sans,sans-serif" font-weight="400" font-size="41" transform="matrix(6.12323e-17 -1 1 6.12323e-17 4187.05826171875 1194.0131759643555)">09-Jun</text>
		</g>
		<g>
			<text fill="#595959" font-family="Verdana,Open Sans,DejaVu Sans,sans-serif" font-weight="400" font-size="41" transform="matrix(6.12323e-17 -1 1 6.12323e-17 4273.208955078125 1178.9985275268555)">07-Jul</text>
		</g>
		<g>
			<text fill="#595959" font-family="Verdana,Open Sans,DejaVu Sans,sans-serif" font-weight="400" font-size="41" transform="matrix(1 0 0 1 3135.4482421875 1050)">0%</text>
		</g>
		<g>
			<text fill="#595959" font-family="Verdana,Open Sans,DejaVu Sans,sans-serif" font-weight="400" font-size="41" transform="matrix(1 0 0 1 3111.96533203125 922)">20%</text>
		</g>
		<g>
			<text fill="#595959" font-family="Verdana,Open Sans,DejaVu Sans,sans-serif" font-weight="400" font-size="41" transform="matrix(1 0 0 1 3110.82421875 794)">40%</text>
		</g>
		<g>
			<text fill="#595959" font-family="Verdana,Open Sans,DejaVu Sans,sans-serif" font-weight="400" font-size="41" transform="matrix(1 0 0 1 3112.3056640625 666)">60%</text>
		</g>
		<g>
			<text fill="#595959" font-family="Verdana,Open Sans,DejaVu Sans,sans-serif" font-weight="400" font-size="41" transform="matrix(1 0 0 1 3112.04541015625 538)">80%</text>
		</g>
		<g>
			<text fill="#595959" font-family="Verdana,Open Sans,DejaVu Sans,sans-serif" font-weight="400" font-size="41" transform="matrix(1 0 0 1 3090.2841796875 410)">100%</text>
		</g>
		<g>
			<text fill="#595959" font-family="Verdana,Open Sans,DejaVu Sans,sans-serif" font-weight="400" font-size="41" transform="matrix(1 0 0 1 3556.97119140625 1321)">Week Commencing</text>
		</g>
		<g>
			<text fill="#595959" font-family="Verdana,Open Sans,DejaVu Sans,sans-serif" font-weight="400" font-size="46" transform="matrix(6.12323e-17 -1 1 6.12323e-17 3019.73 936.7665710449219)">Requests (% of Total)</text>
		</g>
		<rect x="2918.5" y="347.5" width="1760" height="1043" stroke="#D9D9D9" stroke-width="3.4375" stroke-linejoin="round" stroke-miterlimit="10" fill="none" />
		<g>
			<path d="M3228.5 1038 3249.86 1038 3271.22 1038 3292.58 1038 3313.94 1038 3335.3 1038 3356.66 1038 3378.02 1038 3399.38 1038 3420.74 1038 3442.1 1038 3463.46 1038 3484.82 1038 3506.18 1038 3527.54 1038 3548.9 1038 3570.26 1038 3591.62 1038 3612.98 1038 3634.34 1038 3655.7 1038 3677.06 1038 3698.42 1038 3719.7799999999997 1038 3741.14 1038 3762.5 1038 3783.86 1038 3805.2200000000003 1038 3826.58 1038 3847.94 1038 3869.3 1038 3890.66 1038 3912.02 1038 3933.38 1038 3954.74 1038 3976.1 1038 3997.46 1038 4018.8199999999997 1038 4040.18 1038 4061.54 1038 4082.9 1038 4104.26 1038 4125.62 1038 4146.98 1038 4168.34 1038 4189.7 1038 4211.0599999999995 1038 4232.42 1038 4253.78 1038 4275.139999999999 1038 4296.5 1038 4296.5 670.8247036103119 4275.139999999999 669.3025426570151 4253.78 663.9423180085192 4232.42 651.252332152632 4211.0599999999995 651.1868443226381 4189.7 647.3266392502171 4168.34 644.07687198401 4146.98 638.9577169702429 4125.62 636.9751756855164 4104.26 635.4729707714018 4082.9 634.0735967176577 4061.54 632.8947266339228 4040.18 631.9364864355447 4018.8199999999997 630.6938210695101 3997.46 629.5047785696727 3976.1 628.3884215694598 3954.74 626.7876738161085 3933.38 585.3299764795494 3912.02 584.8421137404707 3890.66 584.3697869147531 3869.3 582.8150128997006 3847.94 582.5177383576936 3826.58 582.3344680120879 3805.2200000000003 582.5939821313019 3783.86 581.9303729662242 3762.5 581.2253151836085 3741.14 580.7419087611287 3719.7799999999997 580.710243189289 3698.42 580.6735762948426 3677.06 580.9280737837942 3655.7 581.4872454103777 3634.34 582.4062939611431 3612.98 569.6826475023468 3591.62 569.8912689965251 3570.26 569.9302361292804 3548.9 569.8349942572809 3527.54 569.5040370531727 3506.18 717.6623105620715 3484.82 693.0292117157351 3463.46 692.8367597789183 3442.1 692.6574656354969 3420.74 684.2461914870885 3399.38 684.0344882877787 3378.02 684.1358174388192 3356.66 683.9806402948523 3335.3 683.9172481230904 3313.94 683.650703471495 3292.58 683.2253967284606 3271.22 683.0202318089205 3249.86 682.9152439485392 3228.5 682.6018446393113 3228.5 1038Z" fill="#e62d39" opacity="0.9" />
		</g>
		<g>
			<path d="M3228.5 682.6018446393113 3249.86 682.9152439485392 3271.22 683.0202318089205 3292.58 683.2253967284606 3313.94 683.650703471495 3335.3 683.9172481230904 3356.66 683.9806402948523 3378.02 684.1358174388192 3399.38 684.0344882877787 3420.74 684.2461914870885 3442.1 692.6574656354969 3463.46 692.8367597789183 3484.82 693.0292117157351 3506.18 717.6623105620715 3527.54 569.5040370531727 3548.9 569.8349942572809 3570.26 569.9302361292804 3591.62 569.8912689965251 3612.98 569.6826475023468 3634.34 582.4062939611431 3655.7 581.4872454103777 3677.06 580.9280737837942 3698.42 580.6735762948426 3719.7799999999997 580.710243189289 3741.14 580.7419087611287 3762.5 581.2253151836085 3783.86 581.9303729662242 3805.2200000000003 582.5939821313019 3826.58 582.3344680120879 3847.94 582.5177383576936 3869.3 582.8150128997006 3890.66 584.3697869147531 3912.02 584.8421137404707 3933.38 585.3299764795494 3954.74 626.7876738161085 3976.1 628.3884215694598 3997.46 629.5047785696727 4018.8199999999997 630.6938210695101 4040.18 631.9364864355447 4061.54 632.8947266339228 4082.9 634.0735967176577 4104.26 635.4729707714018 4125.62 636.9751756855164 4146.98 638.9577169702429 4168.34 644.07687198401 4189.7 647.3266392502171 4211.0599999999995 651.1868443226381 4232.42 651.252332152632 4253.78 663.9423180085192 4275.139999999999 669.3025426570151 4296.5 670.8247036103119 4296.5 401.0268406246156 4275.139999999999 400.9092568701918 4253.78 400.9924926084992 4232.42 400.48805802215026 4211.0599999999995 400.4960813600376 4189.7 400.2916782230465 4168.34 400.1582567110125 4146.98 399.92908991218985 4125.62 399.9334041710105 4104.26 399.8797680654118 4082.9 399.8310554200368 4061.54 399.77429194002207 4040.18 399.72528771121347 4018.8199999999997 399.7049408705508 3997.46 400.0041449048839 3976.1 399.9604159100104 3954.74 399.99059261305473 3933.38 399.5837460145528 3912.02 399.60517704227266 3890.66 399.58267002165013 3869.3 398.76939218444284 3847.94 398.748881893379 3826.58 398.75079403491515 3805.2200000000003 398.74677273073394 3783.86 398.7411343617605 3762.5 398.7379557747454 3741.14 398.70704867301595 3719.7799999999997 398.70882925199004 3698.42 398.7008574619051 3677.06 398.68535542850464 3655.7 398.67102339002776 3634.34 398.67520739706913 3612.98 399.27182314363034 3591.62 399.262582558681 3570.26 399.27351700187455 3548.9 399.28077369767425 3527.54 399.29931326714217 3506.18 463.6506199133046 3484.82 458.1198955073757 3463.46 457.6909023203396 3442.1 457.1922376810141 3420.74 442.93735389999836 3399.38 442.4560046260649 3378.02 441.9523894028935 3356.66 441.5335721284329 3335.3 441.085682632276 3313.94 440.7511233983183 3292.58 440.358904599104 3271.22 439.99162530587694 3249.86 439.5878575638358 3228.5 439.2709286792896 3228.5 682.6018446393113Z" fill="#005aa6" opacity="0.9" />
		</g>
		<g>
			<path d="M3228.5 439.2709286792896 3249.86 439.5878575638358 3271.22 439.99162530587694 3292.58 440.358904599104 3313.94 440.7511233983183 3335.3 441.085682632276 3356.66 441.5335721284329 3378.02 441.9523894028935 3399.38 442.4560046260649 3420.74 442.93735389999836 3442.1 457.1922376810141 3463.46 457.6909023203396 3484.82 458.1198955073757 3506.18 463.6506199133046 3527.54 399.29931326714217 3548.9 399.28077369767425 3570.26 399.27351700187455 3591.62 399.262582558681 3612.98 399.27182314363034 3634.34 398.67520739706913 3655.7 398.67102339002776 3677.06 398.68535542850464 3698.42 398.7008574619051 3719.7799999999997 398.70882925199004 3741.14 398.70704867301595 3762.5 398.7379557747454 3783.86 398.7411343617605 3805.2200000000003 398.74677273073394 3826.58 398.75079403491515 3847.94 398.748881893379 3869.3 398.76939218444284 3890.66 399.58267002165013 3912.02 399.60517704227266 3933.38 399.5837460145528 3954.74 399.99059261305473 3976.1 399.9604159100104 3997.46 400.0041449048839 4018.8199999999997 399.7049408705508 4040.18 399.72528771121347 4061.54 399.77429194002207 4082.9 399.8310554200368 4104.26 399.8797680654118 4125.62 399.9334041710105 4146.98 399.92908991218985 4168.34 400.1582567110125 4189.7 400.2916782230465 4211.0599999999995 400.4960813600376 4232.42 400.48805802215026 4253.78 400.9924926084992 4275.139999999999 400.9092568701918 4296.5 401.0268406246156 4296.5 397.99999999999994 4275.139999999999 397.99999999999994 4253.78 397.99999999999994 4232.42 398.00000000000006 4211.0599999999995 397.99999999999994 4189.7 398 4168.34 398 4146.98 398 4125.62 397.99999999999994 4104.26 397.99999999999994 4082.9 397.99999999999994 4061.54 397.9999999999999 4040.18 397.9999999999999 4018.8199999999997 398 3997.46 398.00000000000006 3976.1 397.99999999999994 3954.74 397.99999999999994 3933.38 398.00000000000006 3912.02 398 3890.66 398.00000000000006 3869.3 398 3847.94 397.99999999999994 3826.58 398 3805.2200000000003 398 3783.86 397.99999999999994 3762.5 398.00000000000006 3741.14 398 3719.7799999999997 398 3698.42 398.00000000000006 3677.06 397.99999999999994 3655.7 398.00000000000006 3634.34 398.00000000000006 3612.98 398 3591.62 398 3570.26 398.00000000000006 3548.9 397.99999999999994 3527.54 398 3506.18 398 3484.82 398.00000000000006 3463.46 398.00000000000006 3442.1 398.0000000000001 3420.74 398 3399.38 397.99999999999994 3378.02 398.00000000000006 3356.66 397.99999999999994 3335.3 398 3313.94 398.00000000000006 3292.58 397.99999999999994 3271.22 398 3249.86 398 3228.5 397.9999999999999 3228.5 439.2709286792896Z" fill="#393d41" opacity="0.9" />
		</g>
		<g>
			<rect x="4372" y="431" width="22.9995" height="23" fill="#e62d39" />
		</g>
		<g>
			<text fill="#595959" font-family="Verdana,Open Sans,DejaVu Sans,sans-serif" font-weight="400" font-size="41" transform="matrix(1 0 0 1 4404.56 454)">Web Browser</text>
		</g>
		<g>
			<rect x="4372" y="508" width="22.9995" height="23" fill="#005aa6" />
		</g>
		<g>
			<text fill="#595959" font-family="Verdana,Open Sans,DejaVu Sans,sans-serif" font-weight="400" font-size="41" transform="matrix(1 0 0 1 4404.56 531)">App</text>
		</g>
		<g>
			<rect x="4372" y="585" width="22.9995" height="23" fill="#393d41" />
		</g>
		<g>
			<text fill="#595959" font-family="Verdana,Open Sans,DejaVu Sans,sans-serif" font-weight="400" font-size="41" transform="matrix(1 0 0 1 4404.56 608)">Unclassified</text>
		</g>
	</g>
</svg>
