<svg width="1763" height="1046"
    xmlns="http://www.w3.org/2000/svg"
	xmlns:xlink="http://www.w3.org/1999/xlink" xml:space="preserve" overflow="hidden">
	<defs>
		<clipPath id="clip0">
			<rect x="2917" y="346" width="1763" height="1046"/>
		</clipPath>
	</defs>
	<g clip-path="url(#clip0)" transform="translate(-2917 -346)">
		<rect x="2918" y="347" width="1760" height="1043" fill="#FFFFFF" />
		<g>
			<path d="
			M3228.5 974.532 4296.5 974.532
			M3228.5 910.53 4296.5 910.53
			M3228.5 846.528 4296.5 846.528
			M3228.5 781.526 4296.5 781.526
			M3228.5 717.524 4296.5 717.524
			M3228.5 653.522 4296.5 653.522
			M3228.5 589.52 4296.5 589.52
			M3228.5 525.517 4296.5 525.517
			M3228.5 461.515 4296.5 461.515
			M3228.5 397.5 4296.5 397.5" stroke="#D9D9D9" stroke-width="3.4375" stroke-linejoin="round" stroke-miterlimit="10" fill="none" />
		</g>
		<g>
			<path d="M 1038.5 4296.5 1038.5" stroke="#D9D9D9" stroke-width="3.4375" stroke-linejoin="round" stroke-miterlimit="10" fill="none" fill-rule="evenodd" />
		</g>
		<g>
			<text fill="#595959" font-family="Verdana,sans-serif" font-weight="400" font-size="41" transform="matrix(6.12323e-17 -1 1 6.12323e-17 3248 1228)">06-May</text>
		</g>
		<g>
			<text fill="#595959" font-family="Verdana,sans-serif" font-weight="400" font-size="41" transform="matrix(6.12323e-17 -1 1 6.12323e-17 3328.264705882353 1211)">03-Jun</text>
		</g>
		<g>
			<text fill="#595959" font-family="Verdana,sans-serif" font-weight="400" font-size="41" transform="matrix(6.12323e-17 -1 1 6.12323e-17 3412.029411764706 1197)">01-Jul</text>
		</g>
		<g>
			<text fill="#595959" font-family="Verdana,sans-serif" font-weight="400" font-size="41" transform="matrix(6.12323e-17 -1 1 6.12323e-17 3495.794117647059 1196)">29-Jul</text>
		</g>
		<g>
			<text fill="#595959" font-family="Verdana,sans-serif" font-weight="400" font-size="41" transform="matrix(6.12323e-17 -1 1 6.12323e-17 3583.0588235294117 1221)">26-Aug</text>
		</g>
		<g>
			<text fill="#595959" font-family="Verdana,sans-serif" font-weight="400" font-size="41" transform="matrix(6.12323e-17 -1 1 6.12323e-17 3666.823529411765 1221)">23-Sep</text>
		</g>
		<g>
			<text fill="#595959" font-family="Verdana,sans-serif" font-weight="400" font-size="41" transform="matrix(6.12323e-17 -1 1 6.12323e-17 3747.0882352941176 1215)">21-Oct</text>
		</g>
		<g>
			<text fill="#595959" font-family="Verdana,sans-serif" font-weight="400" font-size="41" transform="matrix(6.12323e-17 -1 1 6.12323e-17 3830.8529411764707 1222)">18-Nov</text>
		</g>
		<g>
			<text fill="#595959" font-family="Verdana,sans-serif" font-weight="400" font-size="41" transform="matrix(6.12323e-17 -1 1 6.12323e-17 3914.6176470588234 1222)">23-Dec</text>
		</g>
		<g>
			<text fill="#595959" font-family="Verdana,sans-serif" font-weight="400" font-size="41" transform="matrix(6.12323e-17 -1 1 6.12323e-17 3998.3823529411766 1210)">20-Jan</text>
		</g>
		<g>
			<text fill="#595959" font-family="Verdana,sans-serif" font-weight="400" font-size="41" transform="matrix(6.12323e-17 -1 1 6.12323e-17 4082.1470588235293 1214)">17-Feb</text>
		</g>
		<g>
			<text fill="#595959" font-family="Verdana,sans-serif" font-weight="400" font-size="41" transform="matrix(6.12323e-17 -1 1 6.12323e-17 4165.411764705882 1221)">17-Mar</text>
		</g>
		<g>
			<text fill="#595959" font-family="Verdana,sans-serif" font-weight="400" font-size="41" transform="matrix(6.12323e-17 -1 1 6.12323e-17 4253.176470588235 1214)">14-Apr</text>
		</g>
		<g>
			<text fill="#595959" font-family="Verdana,sans-serif" font-weight="400" font-size="41" transform="matrix(1 0 0 1 3167.5 1050)">0</text>
		</g>
		<g>
			<text fill="#595959" font-family="Verdana,sans-serif" font-weight="400" font-size="41" transform="matrix(1 0 0 1 3074.5 922)">3,028</text>
		</g>
		<g>
			<text fill="#595959" font-family="Verdana,sans-serif" font-weight="400" font-size="41" transform="matrix(1 0 0 1 3074.5 794)">6,055</text>
		</g>
		<g>
			<text fill="#595959" font-family="Verdana,sans-serif" font-weight="400" font-size="41" transform="matrix(1 0 0 1 3074.5 666)">9,083</text>
		</g>
		<g>
			<text fill="#595959" font-family="Verdana,sans-serif" font-weight="400" font-size="41" transform="matrix(1 0 0 1 3051.5 538)">12,110</text>
		</g>
		<g>
			<text fill="#595959" font-family="Verdana,sans-serif" font-weight="400" font-size="41" transform="matrix(1 0 0 1 3050.5 410)">15,138</text>
		</g>
		<g>
			<text fill="#595959" font-family="Verdana,sans-serif" font-weight="400" font-size="41" transform="matrix(1 0 0 1 3544.5 1321)">Week Commencing</text>
		</g>
		<g>
			<text fill="#595959" font-family="Verdana,sans-serif" font-weight="400" font-size="46" transform="matrix(6.12323e-17 -1 1 6.12323e-17 3019.73 1030.75)">Number of Browser Profiles</text>
		</g>
		<rect x="2918.5" y="347.5" width="1760" height="1043" stroke="#D9D9D9" stroke-width="3.4375" stroke-linejoin="round" stroke-miterlimit="10" fill="none" />
		<g>
			<path d="M3228.5 1038 3249.4411764705883 1038 3270.3823529411766 1038 3291.323529411765 1038 3312.264705882353 1038 3333.205882352941 1038 3354.1470588235293 1038 3375.0882352941176 1038 3396.029411764706 1038 3416.970588235294 1038 3437.9117647058824 1038 3458.8529411764707 1038 3479.794117647059 1038 3500.735294117647 1038 3521.676470588235 1038 3542.6176470588234 1038 3563.5588235294117 1038 3584.5 1038 3605.4411764705883 1038 3626.3823529411766 1038 3647.323529411765 1038 3668.264705882353 1038 3689.205882352941 1038 3710.1470588235293 1038 3731.0882352941176 1038 3752.029411764706 1038 3772.970588235294 1038 3793.9117647058824 1038 3814.8529411764707 1038 3835.7941176470586 1038 3856.735294117647 1038 3877.676470588235 1038 3898.6176470588234 1038 3919.5588235294117 1038 3940.5 1038 3961.4411764705883 1038 3982.3823529411766 1038 4003.323529411765 1038 4024.264705882353 1038 4045.2058823529414 1038 4066.1470588235293 1038 4087.0882352941176 1038 4108.029411764706 1038 4128.970588235294 1038 4149.911764705882 1038 4170.85294117647 1038 4191.794117647059 1038 4212.735294117647 1038 4233.676470588235 1038 4254.617647058823 1038 4275.558823529412 1038 4296.5 1038 4296.5 534.3033425815828 4275.558823529412 535.1911745276786 4254.617647058823 536.2058396089312 4233.676470588235 537.1359492667459 4212.735294117647 538.7002246003435 4191.794117647059 539.3766679878452 4170.85294117647 540.0531113753468 4149.911764705882 540.8563878980051 4128.970588235294 541.9978861144141 4108.029411764706 543.181662042542 4087.0882352941176 544.1117717003567 4066.1470588235293 544.7036596644207 4045.2058823529414 545.6760470339543 4024.264705882353 547.1134892323953 4003.323529411765 547.7476549081781 3982.3823529411766 548.4663760073986 3961.4411764705883 548.9737085480249 3940.5 549.7347073589642 3919.5588235294117 550.2420398995905 3898.6176470588234 550.5379838816225 3877.676470588235 551.5103712511561 3856.735294117647 552.2290923503765 3835.7941176470586 553.835645395693 3814.8529411764707 554.8925881886644 3793.9117647058824 555.5267538644471 3772.970588235294 556.1609195402299 3752.029411764706 557.0910291980447 3731.0882352941176 557.852028008984 3710.1470588235293 558.5707491082046 3689.205882352941 559.4585810543005 3668.264705882353 560.8114678293038 3647.323529411765 561.2342449464923 3626.3823529411766 562.3334654511825 3605.4411764705883 563.2635751089972 3584.5 563.89774078478 3563.5588235294117 564.8278504425948 3542.6176470588234 565.3774606949398 3521.676470588235 565.9693486590038 3500.735294117647 566.8994583168186 3479.794117647059 567.7027348394768 3458.8529411764707 568.4637336504162 3437.9117647058824 569.0133439027613 3416.970588235294 569.4361210199498 3396.029411764706 569.8588981371383 3375.0882352941176 570.8735632183908 3354.1470588235293 571.5922843176113 3333.205882352941 572.3110054168319 3312.264705882353 573.4102259215219 3291.323529411765 574.4671687144934 3270.3823529411766 575.4395560840269 3249.4411764705883 575.9046109129343 3228.5 576.4542211652795 3228.5 1038Z" fill="#e62d39" opacity="0.9" />
		</g>
		<g>
			<path d="M3228.5 576.4542211652795 3249.4411764705883 575.9046109129343 3270.3823529411766 575.4395560840269 3291.323529411765 574.4671687144934 3312.264705882353 573.4102259215219 3333.205882352941 572.3110054168319 3354.1470588235293 571.5922843176113 3375.0882352941176 570.8735632183908 3396.029411764706 569.8588981371383 3416.970588235294 569.4361210199498 3437.9117647058824 569.0133439027613 3458.8529411764707 568.4637336504162 3479.794117647059 567.7027348394768 3500.735294117647 566.8994583168186 3521.676470588235 565.9693486590038 3542.6176470588234 565.3774606949398 3563.5588235294117 564.8278504425948 3584.5 563.89774078478 3605.4411764705883 563.2635751089972 3626.3823529411766 562.3334654511825 3647.323529411765 561.2342449464923 3668.264705882353 560.8114678293038 3689.205882352941 559.4585810543005 3710.1470588235293 558.5707491082046 3731.0882352941176 557.852028008984 3752.029411764706 557.0910291980447 3772.970588235294 556.1609195402299 3793.9117647058824 555.5267538644471 3814.8529411764707 554.8925881886644 3835.7941176470586 553.835645395693 3856.735294117647 552.2290923503765 3877.676470588235 551.5103712511561 3898.6176470588234 550.5379838816225 3919.5588235294117 550.2420398995905 3940.5 549.7347073589642 3961.4411764705883 548.9737085480249 3982.3823529411766 548.4663760073986 4003.323529411765 547.7476549081781 4024.264705882353 547.1134892323953 4045.2058823529414 545.6760470339543 4066.1470588235293 544.7036596644207 4087.0882352941176 544.1117717003567 4108.029411764706 543.181662042542 4128.970588235294 541.9978861144141 4149.911764705882 540.8563878980051 4170.85294117647 540.0531113753468 4191.794117647059 539.3766679878452 4212.735294117647 538.7002246003435 4233.676470588235 537.1359492667459 4254.617647058823 536.2058396089312 4275.558823529412 535.1911745276786 4296.5 534.3033425815828 4296.5 398 4275.558823529412 399.0146650812525 4254.617647058823 400.24071872109926 4233.676470588235 401.3399392257894 4212.735294117647 403.11560311798127 4191.794117647059 404.00343506407717 4170.85294117647 404.7644338750165 4149.911764705882 405.6945435328314 4128.970588235294 407.1742634429912 4108.029411764706 408.4848725062757 4087.0882352941176 409.54181529924693 4066.1470588235293 410.387369533624 4045.2058823529414 411.6134231734708 4024.264705882353 413.21997621878717 4003.323529411765 414.0232527414454 3982.3823529411766 414.995640110979 3961.4411764705883 415.7143612101995 3940.5 416.60219315629547 3919.5588235294117 417.1518034086406 3898.6176470588234 417.4477473906726 3877.676470588235 418.5892456070816 3856.735294117647 419.51935526489626 3835.7941176470586 421.4218522922447 3814.8529411764707 422.7324613555292 3793.9117647058824 423.57801558990616 3772.970588235294 424.97318007662835 3752.029411764706 426.1146782930374 3731.0882352941176 427.0447879508522 3710.1470588235293 427.93261989694815 3689.205882352941 428.94728497820057 3668.264705882353 430.42700488836044 3647.323529411765 431.01889285242436 3626.3823529411766 432.41405733914655 3605.4411764705883 433.55555555555554 3584.5 434.35883207821377 3563.5588235294117 435.5003302946228 3542.6176470588234 436.1344959704055 3521.676470588235 437.02232791650147 3500.735294117647 438.036992997754 3479.794117647059 439.0093803672876 3458.8529411764707 439.89721231338353 3437.9117647058824 440.44682256572867 3416.970588235294 440.9541551063549 3396.029411764706 441.6728762055754 3375.0882352941176 442.8566521337033 3354.1470588235293 443.7444840797992 3333.205882352941 444.67459373761403 3312.264705882353 446.06975822433606 3291.323529411765 447.33808957590173 3270.3823529411766 448.4373100805918 3249.4411764705883 449.0714757563747 3228.5 449.7479191438764 3228.5 576.4542211652795Z" fill="#005aa6" opacity="0.9" />
		</g>
		<g>
			<rect x="4372" y="431" width="22.9995" height="23" fill="#e62d39" />
		</g>
		<g>
			<text fill="#595959" font-family="Verdana,sans-serif" font-weight="400" font-size="41" transform="matrix(1 0 0 1 4404.56 454)">Web Browser</text>
		</g>
		<g>
			<rect x="4372" y="508" width="22.9995" height="23" fill="#005aa6" />
		</g>
		<g>
			<text fill="#595959" font-family="Verdana,sans-serif" font-weight="400" font-size="41" transform="matrix(1 0 0 1 4404.56 531)">App</text>
		</g>
	</g>
</svg>
