<svg width="1763" height="1046"
    xmlns="http://www.w3.org/2000/svg"
	xmlns:xlink="http://www.w3.org/1999/xlink" xml:space="preserve" overflow="hidden">
	<defs>
		<clipPath id="clip0">
			<rect x="2917" y="346" width="1763" height="1046"/>
		</clipPath>
	</defs>
	<g clip-path="url(#clip0)" transform="translate(-2917 -346)">
		<rect x="2918" y="347" width="1760" height="1043" fill="#FFFFFF" />
		<g>
			<path d="
			M3228.5 974.532 4296.5 974.532
			M3228.5 910.53 4296.5 910.53
			M3228.5 846.528 4296.5 846.528
			M3228.5 781.526 4296.5 781.526
			M3228.5 717.524 4296.5 717.524
			M3228.5 653.522 4296.5 653.522
			M3228.5 589.52 4296.5 589.52
			M3228.5 525.517 4296.5 525.517
			M3228.5 461.515 4296.5 461.515
			M3228.5 397.5 4296.5 397.5" stroke="#D9D9D9" stroke-width="3.4375" stroke-linejoin="round" stroke-miterlimit="10" fill="none" />
		</g>
		<g>
			<path d="M 1038.5 4296.5 1038.5" stroke="#D9D9D9" stroke-width="3.4375" stroke-linejoin="round" stroke-miterlimit="10" fill="none" fill-rule="evenodd" />
		</g>
		<g>
			<text fill="#595959" font-family="Verdana,Open Sans,DejaVu Sans,sans-serif" font-weight="400" font-size="41" transform="matrix(6.12323e-17 -1 1 6.12323e-17 3248.269287109375 1214.75341796875)">19-May</text>
		</g>
		<g>
			<text fill="#595959" font-family="Verdana,Open Sans,DejaVu Sans,sans-serif" font-weight="400" font-size="41" transform="matrix(6.12323e-17 -1 1 6.12323e-17 3332.6382421875 1194.0532150268555)">23-Jun</text>
		</g>
		<g>
			<text fill="#595959" font-family="Verdana,Open Sans,DejaVu Sans,sans-serif" font-weight="400" font-size="41" transform="matrix(6.12323e-17 -1 1 6.12323e-17 3418.808955078125 1179.0385665893555)">21-Jul</text>
		</g>
		<g>
			<text fill="#595959" font-family="Verdana,Open Sans,DejaVu Sans,sans-serif" font-weight="400" font-size="41" transform="matrix(6.12323e-17 -1 1 6.12323e-17 3504.589287109375 1206.90576171875)">18-Aug</text>
		</g>
		<g>
			<text fill="#595959" font-family="Verdana,Open Sans,DejaVu Sans,sans-serif" font-weight="400" font-size="41" transform="matrix(6.12323e-17 -1 1 6.12323e-17 3590.029287109375 1202.66162109375)">15-Sep</text>
		</g>
		<g>
			<text fill="#595959" font-family="Verdana,Open Sans,DejaVu Sans,sans-serif" font-weight="400" font-size="41" transform="matrix(6.12323e-17 -1 1 6.12323e-17 3670.764697265625 1199.3784103393555)">13-Oct</text>
		</g>
		<g>
			<text fill="#595959" font-family="Verdana,Open Sans,DejaVu Sans,sans-serif" font-weight="400" font-size="41" transform="matrix(6.12323e-17 -1 1 6.12323e-17 3756.204697265625 1209.70849609375)">10-Nov</text>
		</g>
		<g>
			<text fill="#595959" font-family="Verdana,Open Sans,DejaVu Sans,sans-serif" font-weight="400" font-size="41" transform="matrix(6.12323e-17 -1 1 6.12323e-17 3841.644697265625 1207.0859375)">08-Dec</text>
		</g>
		<g>
			<text fill="#595959" font-family="Verdana,Open Sans,DejaVu Sans,sans-serif" font-weight="400" font-size="41" transform="matrix(6.12323e-17 -1 1 6.12323e-17 3930.73826171875 1191.6508712768555)">05-Jan</text>
		</g>
		<g>
			<text fill="#595959" font-family="Verdana,Open Sans,DejaVu Sans,sans-serif" font-weight="400" font-size="41" transform="matrix(6.12323e-17 -1 1 6.12323e-17 4013.235390625 1203.0419921875)">02-Feb</text>
		</g>
		<g>
			<text fill="#595959" font-family="Verdana,Open Sans,DejaVu Sans,sans-serif" font-weight="400" font-size="41" transform="matrix(6.12323e-17 -1 1 6.12323e-17 4097.964697265625 1212.0107421875)">02-Mar</text>
		</g>
		<g>
			<text fill="#595959" font-family="Verdana,Open Sans,DejaVu Sans,sans-serif" font-weight="400" font-size="41" transform="matrix(6.12323e-17 -1 1 6.12323e-17 4183.404697265625 1212.1708984375)">30-Mar</text>
		</g>
		<g>
			<text fill="#595959" font-family="Verdana,Open Sans,DejaVu Sans,sans-serif" font-weight="400" font-size="41" transform="matrix(6.12323e-17 -1 1 6.12323e-17 4273.549287109375 1203.3022384643555)">27-Apr</text>
		</g>
		<g>
			<text fill="#595959" font-family="Verdana,Open Sans,DejaVu Sans,sans-serif" font-weight="400" font-size="41" transform="matrix(1 0 0 1 3169.14111328125 1050)">0</text>
		</g>
		<g>
			<text fill="#595959" font-family="Verdana,Open Sans,DejaVu Sans,sans-serif" font-weight="400" font-size="41" transform="matrix(1 0 0 1 3088.5625 922)">3,326</text>
		</g>
		<g>
			<text fill="#595959" font-family="Verdana,Open Sans,DejaVu Sans,sans-serif" font-weight="400" font-size="41" transform="matrix(1 0 0 1 3089.22314453125 794)">6,652</text>
		</g>
		<g>
			<text fill="#595959" font-family="Verdana,Open Sans,DejaVu Sans,sans-serif" font-weight="400" font-size="41" transform="matrix(1 0 0 1 3088.9228515625 666)">9,978</text>
		</g>
		<g>
			<text fill="#595959" font-family="Verdana,Open Sans,DejaVu Sans,sans-serif" font-weight="400" font-size="41" transform="matrix(1 0 0 1 3065.8203201293945 538)">13,304</text>
		</g>
		<g>
			<text fill="#595959" font-family="Verdana,Open Sans,DejaVu Sans,sans-serif" font-weight="400" font-size="41" transform="matrix(1 0 0 1 3067.0415115356445 410)">16,630</text>
		</g>
		<g>
			<text fill="#595959" font-family="Verdana,Open Sans,DejaVu Sans,sans-serif" font-weight="400" font-size="41" transform="matrix(1 0 0 1 3556.97119140625 1321)">Week Commencing</text>
		</g>
		<g>
			<text fill="#595959" font-family="Verdana,Open Sans,DejaVu Sans,sans-serif" font-weight="400" font-size="46" transform="matrix(6.12323e-17 -1 1 6.12323e-17 3019.73 1011.673828125)">Number of Browser Profiles</text>
		</g>
		<rect x="2918.5" y="347.5" width="1760" height="1043" stroke="#D9D9D9" stroke-width="3.4375" stroke-linejoin="round" stroke-miterlimit="10" fill="none" />
		<g>
			<path d="M3228.5 1038 3249.86 1038 3271.22 1038 3292.58 1038 3313.94 1038 3335.3 1038 3356.66 1038 3378.02 1038 3399.38 1038 3420.74 1038 3442.1 1038 3463.46 1038 3484.82 1038 3506.18 1038 3527.54 1038 3548.9 1038 3570.26 1038 3591.62 1038 3612.98 1038 3634.34 1038 3655.7 1038 3677.06 1038 3698.42 1038 3719.7799999999997 1038 3741.14 1038 3762.5 1038 3783.86 1038 3805.2200000000003 1038 3826.58 1038 3847.94 1038 3869.3 1038 3890.66 1038 3912.02 1038 3933.38 1038 3954.74 1038 3976.1 1038 3997.46 1038 4018.8199999999997 1038 4040.18 1038 4061.54 1038 4082.9 1038 4104.26 1038 4125.62 1038 4146.98 1038 4168.34 1038 4189.7 1038 4211.0599999999995 1038 4232.42 1038 4253.78 1038 4275.139999999999 1038 4296.5 1038 4296.5 533.0426939266385 4275.139999999999 533.6199639206254 4253.78 534.4281419122069 4232.42 535.5057125676487 4211.0599999999995 536.3523752254961 4189.7 537.3914612146723 4168.34 538.3920625375827 4146.98 539.392663860493 4125.62 540.8935658448586 4104.26 541.6247745039086 4082.9 542.5484064942874 4061.54 543.2026458208057 4040.18 544.3187011425135 4018.8199999999997 545.3193024654239 3997.46 545.8580877931449 3976.1 546.6662657847264 3954.74 547.3974744437762 3933.38 548.2056524353577 3912.02 548.3595911004209 3890.66 548.8214070956103 3869.3 549.3601924233312 3847.94 550.3607937462417 3826.58 551.5923030667468 3805.2200000000003 553.2086590499098 3783.86 553.5165363800361 3762.5 554.594107035478 3741.14 555.2098616957305 3719.7799999999997 556.6337943475646 3698.42 557.2110643415514 3677.06 558.519542994588 3655.7 558.6349969933854 3634.34 559.4816596512327 3612.98 560.4822609741432 3591.62 561.752254960914 3570.26 562.4449789536982 3548.9 563.0607336139507 3527.54 564.2922429344558 3506.18 565.1004209260373 3484.82 565.9855682501503 3463.46 566.9476849067948 3442.1 567.7173782321106 3420.74 568.4485868911605 3399.38 569.2952495490078 3378.02 569.6800962116656 3356.66 570.6422128683103 3335.3 571.9122068550812 3313.94 572.489476849068 3292.58 573.6055321707756 3271.22 574.9140108238123 3249.86 576.4918821407095 3228.5 577.5694527961515 3228.5 1038Z" fill="#005aa6" opacity="0.9" />
		</g>
		<g>
			<path d="M3228.5 577.5694527961515 3249.86 576.4918821407095 3271.22 574.9140108238123 3292.58 573.6055321707756 3313.94 572.489476849068 3335.3 571.9122068550812 3356.66 570.6422128683103 3378.02 569.6800962116656 3399.38 569.2952495490078 3420.74 568.4485868911605 3442.1 567.7173782321106 3463.46 566.9476849067948 3484.82 565.9855682501503 3506.18 565.1004209260373 3527.54 564.2922429344558 3548.9 563.0607336139507 3570.26 562.4449789536982 3591.62 561.752254960914 3612.98 560.4822609741432 3634.34 559.4816596512327 3655.7 558.6349969933854 3677.06 558.519542994588 3698.42 557.2110643415514 3719.7799999999997 556.6337943475646 3741.14 555.2098616957305 3762.5 554.594107035478 3783.86 553.5165363800361 3805.2200000000003 553.2086590499098 3826.58 551.5923030667468 3847.94 550.3607937462417 3869.3 549.3601924233312 3890.66 548.8214070956103 3912.02 548.3595911004209 3933.38 548.2056524353577 3954.74 547.3974744437762 3976.1 546.6662657847264 3997.46 545.8580877931449 4018.8199999999997 545.3193024654239 4040.18 544.3187011425135 4061.54 543.2026458208057 4082.9 542.5484064942874 4104.26 541.6247745039086 4125.62 540.8935658448586 4146.98 539.392663860493 4168.34 538.3920625375827 4189.7 537.3914612146723 4211.0599999999995 536.3523752254961 4232.42 535.5057125676487 4253.78 534.4281419122069 4275.139999999999 533.6199639206254 4296.5 533.0426939266385 4296.5 397.99999999999994 4275.139999999999 399.0006013229105 4253.78 399.96271797955507 4232.42 401.3096812988574 4211.0599999999995 402.3487672880336 4189.7 403.65724594107036 4168.34 404.85027059530967 4146.98 406.1202645820805 4125.62 408.0444978953697 4104.26 408.92964521948284 4082.9 410.16115453998793 4061.54 411.20024052916415 4040.18 412.6241731809982 4018.8199999999997 413.8171978352375 3997.46 414.5484064942874 3976.1 416.12627781118465 3954.74 416.934455802766 3933.38 417.8965724594106 3912.02 418.08899579073955 3890.66 418.6277811184606 3869.3 419.1665664461815 3847.94 420.4750450992183 3826.58 421.93746241731805 3805.2200000000003 423.74624173180996 3783.86 424.3235117257967 3762.5 425.6319903788334 3741.14 426.36319903788325 3719.7799999999997 427.9410703547805 3698.42 428.7107636800962 3677.06 430.173180998196 3655.7 430.32711966325905 3634.34 431.4431749849669 3612.98 432.55923030667475 3591.62 434.02164762477446 3570.26 434.8683102826218 3548.9 435.63800360793743 3527.54 436.9464822609741 3506.18 437.94708358388453 3484.82 438.9092002405291 3463.46 440.21767889356573 3442.1 441.06434155141307 3420.74 442.0264582080577 3399.38 442.9885748647024 3378.02 443.6428141912206 3356.66 444.91280817799156 3335.3 446.3752254960914 3313.94 447.0679494888755 3292.58 448.29945880938055 3271.22 449.7233914612146 3249.86 451.8400481058328 3228.5 453.1100420926037 3228.5 577.5694527961515Z" fill="#e62d39" opacity="0.9" />
		</g>
		<g>
			<rect x="4372" y="431" width="22.9995" height="23" fill="#005aa6" />
		</g>
		<g>
			<text fill="#595959" font-family="Verdana,Open Sans,DejaVu Sans,sans-serif" font-weight="400" font-size="41" transform="matrix(1 0 0 1 4404.56 454)">Web Browser</text>
		</g>
		<g>
			<rect x="4372" y="508" width="22.9995" height="23" fill="#e62d39" />
		</g>
		<g>
			<text fill="#595959" font-family="Verdana,Open Sans,DejaVu Sans,sans-serif" font-weight="400" font-size="41" transform="matrix(1 0 0 1 4404.56 531)">App</text>
		</g>
	</g>
</svg>
