<svg width="1763" height="1046"
    xmlns="http://www.w3.org/2000/svg"
	xmlns:xlink="http://www.w3.org/1999/xlink" xml:space="preserve" overflow="hidden">
	<defs>
		<clipPath id="clip0">
			<rect x="2917" y="346" width="1763" height="1046"/>
		</clipPath>
	</defs>
	<g clip-path="url(#clip0)" transform="translate(-2917 -346)">
		<rect x="2918" y="347" width="1760" height="1043" fill="#FFFFFF" />
		<g>
			<path d="
			M3228.5 974.532 4296.5 974.532
			M3228.5 910.53 4296.5 910.53
			M3228.5 846.528 4296.5 846.528
			M3228.5 781.526 4296.5 781.526
			M3228.5 717.524 4296.5 717.524
			M3228.5 653.522 4296.5 653.522
			M3228.5 589.52 4296.5 589.52
			M3228.5 525.517 4296.5 525.517
			M3228.5 461.515 4296.5 461.515
			M3228.5 397.5 4296.5 397.5" stroke="#D9D9D9" stroke-width="3.4375" stroke-linejoin="round" stroke-miterlimit="10" fill="none" />
		</g>
		<g>
			<path d="M 1038.5 4296.5 1038.5" stroke="#D9D9D9" stroke-width="3.4375" stroke-linejoin="round" stroke-miterlimit="10" fill="none" fill-rule="evenodd" />
		</g>
		<g>
			<text fill="#595959" font-family="Verdana,Open Sans,DejaVu Sans,sans-serif" font-weight="400" font-size="41" transform="matrix(6.12323e-17 -1 1 6.12323e-17 3244.275390625 1203.08203125)">24-Feb</text>
		</g>
		<g>
			<text fill="#595959" font-family="Verdana,Open Sans,DejaVu Sans,sans-serif" font-weight="400" font-size="41" transform="matrix(6.12323e-17 -1 1 6.12323e-17 3327.309383616728 1212.05078125)">24-Mar</text>
		</g>
		<g>
			<text fill="#595959" font-family="Verdana,Open Sans,DejaVu Sans,sans-serif" font-weight="400" font-size="41" transform="matrix(6.12323e-17 -1 1 6.12323e-17 3415.798698874081 1203.3022384643555)">21-Apr</text>
		</g>
		<g>
			<text fill="#595959" font-family="Verdana,Open Sans,DejaVu Sans,sans-serif" font-weight="400" font-size="41" transform="matrix(6.12323e-17 -1 1 6.12323e-17 3499.563404756434 1214.75341796875)">19-May</text>
		</g>
		<g>
			<text fill="#595959" font-family="Verdana,Open Sans,DejaVu Sans,sans-serif" font-weight="400" font-size="41" transform="matrix(6.12323e-17 -1 1 6.12323e-17 3582.2570657169117 1194.0532150268555)">23-Jun</text>
		</g>
		<g>
			<text fill="#595959" font-family="Verdana,Open Sans,DejaVu Sans,sans-serif" font-weight="400" font-size="41" transform="matrix(6.12323e-17 -1 1 6.12323e-17 3666.75248448989 1179.0385665893555)">21-Jul</text>
		</g>
		<g>
			<text fill="#595959" font-family="Verdana,Open Sans,DejaVu Sans,sans-serif" font-weight="400" font-size="41" transform="matrix(6.12323e-17 -1 1 6.12323e-17 3750.8575224034926 1206.90576171875)">18-Aug</text>
		</g>
		<g>
			<text fill="#595959" font-family="Verdana,Open Sans,DejaVu Sans,sans-serif" font-weight="400" font-size="41" transform="matrix(6.12323e-17 -1 1 6.12323e-17 3834.6222282858457 1202.66162109375)">15-Sep</text>
		</g>
		<g>
			<text fill="#595959" font-family="Verdana,Open Sans,DejaVu Sans,sans-serif" font-weight="400" font-size="41" transform="matrix(6.12323e-17 -1 1 6.12323e-17 3913.6823443244484 1199.3784103393555)">13-Oct</text>
		</g>
		<g>
			<text fill="#595959" font-family="Verdana,Open Sans,DejaVu Sans,sans-serif" font-weight="400" font-size="41" transform="matrix(6.12323e-17 -1 1 6.12323e-17 3997.4470502068016 1209.70849609375)">10-Nov</text>
		</g>
		<g>
			<text fill="#595959" font-family="Verdana,Open Sans,DejaVu Sans,sans-serif" font-weight="400" font-size="41" transform="matrix(6.12323e-17 -1 1 6.12323e-17 4081.2117560891543 1207.0859375)">08-Dec</text>
		</g>
		<g>
			<text fill="#595959" font-family="Verdana,Open Sans,DejaVu Sans,sans-serif" font-weight="400" font-size="41" transform="matrix(6.12323e-17 -1 1 6.12323e-17 4168.630026424632 1191.6508712768555)">05-Jan</text>
		</g>
		<g>
			<text fill="#595959" font-family="Verdana,Open Sans,DejaVu Sans,sans-serif" font-weight="400" font-size="41" transform="matrix(6.12323e-17 -1 1 6.12323e-17 4249.451861213235 1203.0419921875)">02-Feb</text>
		</g>
		<g>
			<text fill="#595959" font-family="Verdana,Open Sans,DejaVu Sans,sans-serif" font-weight="400" font-size="41" transform="matrix(1 0 0 1 3169.14111328125 1050)">0</text>
		</g>
		<g>
			<text fill="#595959" font-family="Verdana,Open Sans,DejaVu Sans,sans-serif" font-weight="400" font-size="41" transform="matrix(1 0 0 1 3088.642578125 922)">3,257</text>
		</g>
		<g>
			<text fill="#595959" font-family="Verdana,Open Sans,DejaVu Sans,sans-serif" font-weight="400" font-size="41" transform="matrix(1 0 0 1 3089.38330078125 794)">6,515</text>
		</g>
		<g>
			<text fill="#595959" font-family="Verdana,Open Sans,DejaVu Sans,sans-serif" font-weight="400" font-size="41" transform="matrix(1 0 0 1 3089.0029296875 666)">9,772</text>
		</g>
		<g>
			<text fill="#595959" font-family="Verdana,Open Sans,DejaVu Sans,sans-serif" font-weight="400" font-size="41" transform="matrix(1 0 0 1 3067.0415115356445 538)">13,030</text>
		</g>
		<g>
			<text fill="#595959" font-family="Verdana,Open Sans,DejaVu Sans,sans-serif" font-weight="400" font-size="41" transform="matrix(1 0 0 1 3067.0815505981445 410)">16,287</text>
		</g>
		<g>
			<text fill="#595959" font-family="Verdana,Open Sans,DejaVu Sans,sans-serif" font-weight="400" font-size="41" transform="matrix(1 0 0 1 3556.97119140625 1321)">Week Commencing</text>
		</g>
		<g>
			<text fill="#595959" font-family="Verdana,Open Sans,DejaVu Sans,sans-serif" font-weight="400" font-size="46" transform="matrix(6.12323e-17 -1 1 6.12323e-17 3019.73 1011.673828125)">Number of Browser Profiles</text>
		</g>
		<rect x="2918.5" y="347.5" width="1760" height="1043" stroke="#D9D9D9" stroke-width="3.4375" stroke-linejoin="round" stroke-miterlimit="10" fill="none" />
		<g>
			<path d="M3228.5 1038 3249.4411764705883 1038 3270.3823529411766 1038 3291.323529411765 1038 3312.264705882353 1038 3333.205882352941 1038 3354.1470588235293 1038 3375.0882352941176 1038 3396.029411764706 1038 3416.970588235294 1038 3437.9117647058824 1038 3458.8529411764707 1038 3479.794117647059 1038 3500.735294117647 1038 3521.676470588235 1038 3542.6176470588234 1038 3563.5588235294117 1038 3584.5 1038 3605.4411764705883 1038 3626.3823529411766 1038 3647.323529411765 1038 3668.264705882353 1038 3689.205882352941 1038 3710.1470588235293 1038 3731.0882352941176 1038 3752.029411764706 1038 3772.970588235294 1038 3793.9117647058824 1038 3814.8529411764707 1038 3835.7941176470586 1038 3856.735294117647 1038 3877.676470588235 1038 3898.6176470588234 1038 3919.5588235294117 1038 3940.5 1038 3961.4411764705883 1038 3982.3823529411766 1038 4003.323529411765 1038 4024.264705882353 1038 4045.2058823529414 1038 4066.1470588235293 1038 4087.0882352941176 1038 4108.029411764706 1038 4128.970588235294 1038 4149.911764705882 1038 4170.85294117647 1038 4191.794117647059 1038 4212.735294117647 1038 4233.676470588235 1038 4254.617647058823 1038 4275.558823529412 1038 4296.5 1038 4296.5 532.7823417449499 4275.558823529412 533.9219009025603 4254.617647058823 534.943574630073 4233.676470588235 535.4937066371953 4212.735294117647 536.3189046478786 4191.794117647059 537.0655123718302 4170.85294117647 537.8907103825136 4149.911764705882 538.0478909559771 4128.970588235294 538.5194326763676 4108.029411764706 539.06956468349 4087.0882352941176 540.0912384110027 4066.1470588235293 541.3486829987106 4045.2058823529414 542.9990790200773 4024.264705882353 543.3134401670043 4003.323529411765 544.4137041812488 3982.3823529411766 545.0424264751027 3961.4411764705883 546.4963467796401 3940.5 547.0857739301283 3919.5588235294117 548.421808804568 3898.6176470588234 548.5396942346656 3877.676470588235 549.404187388715 3856.735294117647 550.4258611162277 3835.7941176470586 551.7226008473015 3814.8529411764707 552.4299134278872 3793.9117647058824 553.0586357217412 3772.970588235294 554.3160803094493 3752.029411764706 555.1412783201326 3731.0882352941176 556.0450666175477 3710.1470588235293 557.0274452016945 3689.205882352941 557.8133480690121 3668.264705882353 558.5599557929637 3647.323529411765 559.4244489470129 3626.3823529411766 559.8174003806716 3605.4411764705883 560.7997789648185 3584.5 562.0965186958924 3563.5588235294117 562.6859458463805 3542.6176470588234 563.8255050039909 3521.676470588235 565.1615398784306 3500.735294117647 566.7726407564314 3479.794117647059 567.872904770676 3458.8529411764707 568.9338736415546 3437.9117647058824 569.8376619389696 3416.970588235294 570.662859949653 3396.029411764706 571.605943390434 3375.0882352941176 572.4704365444833 3354.1470588235293 573.9243568490207 3333.205882352941 574.5530791428746 3312.264705882353 575.1818014367286 3291.323529411765 575.9284091606803 3270.3823529411766 576.9893780315589 3249.4411764705883 578.0896420458034 3228.5 578.9541351998525 3228.5 1038Z" fill="#005aa6" opacity="0.9" />
		</g>
		<g>
			<path d="M3228.5 578.9541351998525 3249.4411764705883 578.0896420458034 3270.3823529411766 576.9893780315589 3291.323529411765 575.9284091606803 3312.264705882353 575.1818014367286 3333.205882352941 574.5530791428746 3354.1470588235293 573.9243568490207 3375.0882352941176 572.4704365444833 3396.029411764706 571.605943390434 3416.970588235294 570.662859949653 3437.9117647058824 569.8376619389696 3458.8529411764707 568.9338736415546 3479.794117647059 567.872904770676 3500.735294117647 566.7726407564314 3521.676470588235 565.1615398784306 3542.6176470588234 563.8255050039909 3563.5588235294117 562.6859458463805 3584.5 562.0965186958924 3605.4411764705883 560.7997789648185 3626.3823529411766 559.8174003806716 3647.323529411765 559.4244489470129 3668.264705882353 558.5599557929637 3689.205882352941 557.8133480690121 3710.1470588235293 557.0274452016945 3731.0882352941176 556.0450666175477 3752.029411764706 555.1412783201326 3772.970588235294 554.3160803094493 3793.9117647058824 553.0586357217412 3814.8529411764707 552.4299134278872 3835.7941176470586 551.7226008473015 3856.735294117647 550.4258611162277 3877.676470588235 549.404187388715 3898.6176470588234 548.5396942346656 3919.5588235294117 548.421808804568 3940.5 547.0857739301283 3961.4411764705883 546.4963467796401 3982.3823529411766 545.0424264751027 4003.323529411765 544.4137041812488 4024.264705882353 543.3134401670043 4045.2058823529414 542.9990790200773 4066.1470588235293 541.3486829987106 4087.0882352941176 540.0912384110027 4108.029411764706 539.06956468349 4128.970588235294 538.5194326763676 4149.911764705882 538.0478909559771 4170.85294117647 537.8907103825136 4191.794117647059 537.0655123718302 4212.735294117647 536.3189046478786 4233.676470588235 535.4937066371953 4254.617647058823 534.943574630073 4275.558823529412 533.9219009025603 4296.5 532.7823417449499 4296.5 397.99999999999994 4275.558823529412 399.45392030453735 4254.617647058823 400.67206974887944 4233.676470588235 401.41867747283106 4212.735294117647 403.0297783508319 4191.794117647059 403.85497636151524 4170.85294117647 404.8373549456621 4149.911764705882 405.0338306624915 4128.970588235294 405.58396266961375 4108.029411764706 406.1340946767361 4087.0882352941176 407.4701295511758 4066.1470588235293 408.963344999079 4045.2058823529414 410.810216737275 4024.264705882353 411.39964388776315 4003.323529411765 412.73567876220295 3982.3823529411766 413.4822864861545 3961.4411764705883 415.0933873641554 3940.5 415.87929023147296 3919.5588235294117 417.3725056793761 3898.6176470588234 417.5296862528396 3877.676470588235 418.66924541045006 3856.735294117647 419.8088045680604 3835.7941176470586 421.3020200159636 3814.8529411764707 422.16651317001276 3793.9117647058824 422.9524160373303 3772.970588235294 424.28845091177016 3752.029411764706 425.3101246392829 3731.0882352941176 426.29250322342966 3710.1470588235293 427.62853809786935 3689.205882352941 428.49303125191875 3668.264705882353 429.4754098360655 3647.323529411765 430.4577884202124 3626.3823529411766 431.1258058574322 3605.4411764705883 432.4225455885061 3584.5 433.91576103640944 3563.5588235294117 434.62307361699504 3542.6176470588234 435.8805182047031 3521.676470588235 437.3344385092405 3500.735294117647 439.4956713943635 3479.794117647059 440.7924111254374 3458.8529411764707 442.08915085651125 3437.9117647058824 443.15011972738984 3416.970588235294 444.0932031681708 3396.029411764706 445.23276232578127 3375.0882352941176 446.25443605329394 3354.1470588235293 447.90483207466076 3333.205882352941 448.730030085344 3312.264705882353 449.4373426659298 3291.323529411765 450.30183581997915 3270.3823529411766 451.6771658377847 3249.4411764705883 452.8953152821269 3228.5 453.8776938662736 3228.5 578.9541351998525Z" fill="#e62d39" opacity="0.9" />
		</g>
		<g>
			<rect x="4372" y="431" width="22.9995" height="23" fill="#005aa6" />
		</g>
		<g>
			<text fill="#595959" font-family="Verdana,Open Sans,DejaVu Sans,sans-serif" font-weight="400" font-size="41" transform="matrix(1 0 0 1 4404.56 454)">Web Browser</text>
		</g>
		<g>
			<rect x="4372" y="508" width="22.9995" height="23" fill="#e62d39" />
		</g>
		<g>
			<text fill="#595959" font-family="Verdana,Open Sans,DejaVu Sans,sans-serif" font-weight="400" font-size="41" transform="matrix(1 0 0 1 4404.56 531)">App</text>
		</g>
	</g>
</svg>
