<svg width="1763" height="1046"
    xmlns="http://www.w3.org/2000/svg"
	xmlns:xlink="http://www.w3.org/1999/xlink" xml:space="preserve" overflow="hidden">
	<defs>
		<clipPath id="clip0">
			<rect x="2917" y="346" width="1763" height="1046"/>
		</clipPath>
	</defs>
	<g clip-path="url(#clip0)" transform="translate(-2917 -346)">
		<rect x="2918" y="347" width="1760" height="1043" fill="#FFFFFF" />
		<g>
			<path d="
			M3228.5 974.532 4296.5 974.532
			M3228.5 910.53 4296.5 910.53
			M3228.5 846.528 4296.5 846.528
			M3228.5 781.526 4296.5 781.526
			M3228.5 717.524 4296.5 717.524
			M3228.5 653.522 4296.5 653.522
			M3228.5 589.52 4296.5 589.52
			M3228.5 525.517 4296.5 525.517
			M3228.5 461.515 4296.5 461.515
			M3228.5 397.5 4296.5 397.5" stroke="#D9D9D9" stroke-width="3.4375" stroke-linejoin="round" stroke-miterlimit="10" fill="none" />
		</g>
		<g>
			<path d="M 1038.5 4296.5 1038.5" stroke="#D9D9D9" stroke-width="3.4375" stroke-linejoin="round" stroke-miterlimit="10" fill="none" fill-rule="evenodd" />
		</g>
		<g>
			<text fill="#595959" font-family="Verdana,Open Sans,DejaVu Sans,sans-serif" font-weight="400" font-size="41" transform="matrix(6.12323e-17 -1 1 6.12323e-17 3248.289306640625 1204.54345703125)">30-Sep</text>
		</g>
		<g>
			<text fill="#595959" font-family="Verdana,Open Sans,DejaVu Sans,sans-serif" font-weight="400" font-size="41" transform="matrix(6.12323e-17 -1 1 6.12323e-17 3330.748370735013 1201.1401290893555)">28-Oct</text>
		</g>
		<g>
			<text fill="#595959" font-family="Verdana,Open Sans,DejaVu Sans,sans-serif" font-weight="400" font-size="41" transform="matrix(6.12323e-17 -1 1 6.12323e-17 3417.9120246731504 1211.47021484375)">25-Nov</text>
		</g>
		<g>
			<text fill="#595959" font-family="Verdana,Open Sans,DejaVu Sans,sans-serif" font-weight="400" font-size="41" transform="matrix(6.12323e-17 -1 1 6.12323e-17 3505.1157176737884 1207.24609375)">30-Dec</text>
		</g>
		<g>
			<text fill="#595959" font-family="Verdana,Open Sans,DejaVu Sans,sans-serif" font-weight="400" font-size="41" transform="matrix(6.12323e-17 -1 1 6.12323e-17 3595.932936065051 1191.6909103393555)">27-Jan</text>
		</g>
		<g>
			<text fill="#595959" font-family="Verdana,Open Sans,DejaVu Sans,sans-serif" font-weight="400" font-size="41" transform="matrix(6.12323e-17 -1 1 6.12323e-17 3680.193757971939 1203.08203125)">24-Feb</text>
		</g>
		<g>
			<text fill="#595959" font-family="Verdana,Open Sans,DejaVu Sans,sans-serif" font-weight="400" font-size="41" transform="matrix(6.12323e-17 -1 1 6.12323e-17 3766.6467185507017 1212.05078125)">24-Mar</text>
		</g>
		<g>
			<text fill="#595959" font-family="Verdana,Open Sans,DejaVu Sans,sans-serif" font-weight="400" font-size="41" transform="matrix(6.12323e-17 -1 1 6.12323e-17 3858.555001395089 1203.3022384643555)">21-Apr</text>
		</g>
		<g>
			<text fill="#595959" font-family="Verdana,Open Sans,DejaVu Sans,sans-serif" font-weight="400" font-size="41" transform="matrix(6.12323e-17 -1 1 6.12323e-17 3945.738674864477 1214.75341796875)">19-May</text>
		</g>
		<g>
			<text fill="#595959" font-family="Verdana,Open Sans,DejaVu Sans,sans-serif" font-weight="400" font-size="41" transform="matrix(6.12323e-17 -1 1 6.12323e-17 4031.8513034119896 1194.0532150268555)">23-Jun</text>
		</g>
		<g>
			<text fill="#595959" font-family="Verdana,Open Sans,DejaVu Sans,sans-serif" font-weight="400" font-size="41" transform="matrix(6.12323e-17 -1 1 6.12323e-17 4119.765689772003 1179.0385665893555)">21-Jul</text>
		</g>
		<g>
			<text fill="#595959" font-family="Verdana,Open Sans,DejaVu Sans,sans-serif" font-weight="400" font-size="41" transform="matrix(6.12323e-17 -1 1 6.12323e-17 4207.2896952726405 1206.90576171875)">18-Aug</text>
		</g>
		<g>
			<text fill="#595959" font-family="Verdana,Open Sans,DejaVu Sans,sans-serif" font-weight="400" font-size="41" transform="matrix(6.12323e-17 -1 1 6.12323e-17 4294.4733687420285 1202.66162109375)">15-Sep</text>
		</g>
		<g>
			<text fill="#595959" font-family="Verdana,Open Sans,DejaVu Sans,sans-serif" font-weight="400" font-size="41" transform="matrix(1 0 0 1 3169.14111328125 1050)">0</text>
		</g>
		<g>
			<text fill="#595959" font-family="Verdana,Open Sans,DejaVu Sans,sans-serif" font-weight="400" font-size="41" transform="matrix(1 0 0 1 3088.7626953125 922)">3,139</text>
		</g>
		<g>
			<text fill="#595959" font-family="Verdana,Open Sans,DejaVu Sans,sans-serif" font-weight="400" font-size="41" transform="matrix(1 0 0 1 3089.14306640625 794)">6,278</text>
		</g>
		<g>
			<text fill="#595959" font-family="Verdana,Open Sans,DejaVu Sans,sans-serif" font-weight="400" font-size="41" transform="matrix(1 0 0 1 3088.802734375 666)">9,416</text>
		</g>
		<g>
			<text fill="#595959" font-family="Verdana,Open Sans,DejaVu Sans,sans-serif" font-weight="400" font-size="41" transform="matrix(1 0 0 1 3067.3618240356445 538)">12,555</text>
		</g>
		<g>
			<text fill="#595959" font-family="Verdana,Open Sans,DejaVu Sans,sans-serif" font-weight="400" font-size="41" transform="matrix(1 0 0 1 3065.8203201293945 410)">15,694</text>
		</g>
		<g>
			<text fill="#595959" font-family="Verdana,Open Sans,DejaVu Sans,sans-serif" font-weight="400" font-size="41" transform="matrix(1 0 0 1 3556.97119140625 1321)">Week Commencing</text>
		</g>
		<g>
			<text fill="#595959" font-family="Verdana,Open Sans,DejaVu Sans,sans-serif" font-weight="400" font-size="46" transform="matrix(6.12323e-17 -1 1 6.12323e-17 3019.73 1011.673828125)">Number of Browser Profiles</text>
		</g>
		<rect x="2918.5" y="347.5" width="1760" height="1043" stroke="#D9D9D9" stroke-width="3.4375" stroke-linejoin="round" stroke-miterlimit="10" fill="none" />
		<g>
			<path d="M3228.5 1038 3250.295918367347 1038 3272.091836734694 1038 3293.887755102041 1038 3315.683673469388 1038 3337.4795918367345 1038 3359.2755102040815 1038 3381.0714285714284 1038 3402.8673469387754 1038 3424.6632653061224 1038 3446.4591836734694 1038 3468.2551020408164 1038 3490.0510204081634 1038 3511.8469387755104 1038 3533.6428571428573 1038 3555.4387755102043 1038 3577.234693877551 1038 3599.030612244898 1038 3620.826530612245 1038 3642.622448979592 1038 3664.418367346939 1038 3686.214285714286 1038 3708.0102040816328 1038 3729.8061224489797 1038 3751.6020408163267 1038 3773.3979591836733 1038 3795.1938775510203 1038 3816.9897959183672 1038 3838.785714285714 1038 3860.581632653061 1038 3882.377551020408 1038 3904.173469387755 1038 3925.969387755102 1038 3947.765306122449 1038 3969.5612244897957 1038 3991.357142857143 1038 4013.1530612244896 1038 4034.9489795918366 1038 4056.7448979591836 1038 4078.5408163265306 1038 4100.336734693878 1038 4122.132653061224 1038 4143.928571428572 1038 4165.724489795918 1038 4187.5204081632655 1038 4209.316326530612 1038 4231.1122448979595 1038 4252.908163265306 1038 4274.7040816326535 1038 4296.5 1038 4296.5 533.3485408436345 4274.7040816326535 534.0825793296801 4252.908163265306 534.7350579839429 4231.1122448979595 536.0400152924684 4209.316326530612 536.8963935261884 4187.5204081632655 537.8343315916911 4165.724489795918 538.8538294889767 4143.928571428572 539.6694278068051 4122.132653061224 540.4442462087422 4100.336734693878 541.3414043583534 4078.5408163265306 541.7492035172677 4056.7448979591836 542.7687014145533 4034.9489795918366 544.1144386389703 4013.1530612244896 544.7261373773416 3991.357142857143 545.9087549381929 3969.5612244897957 547.2952720785013 3947.765306122449 548.9672486300497 3925.969387755102 550.1090862750095 3904.173469387755 551.210144004078 3882.377551020408 552.1480820695807 3860.581632653061 553.0044603033007 3838.785714285714 553.9831782846948 3816.9897959183672 554.8803364343061 3795.1938775510203 556.3891933222887 3773.3979591836733 557.0416719765515 3751.6020408163267 557.6941506308143 3729.8061224489797 558.4689690327514 3708.0102040816328 559.5700267618197 3686.214285714286 560.7118644067796 3664.418367346939 561.609022556391 3642.622448979592 562.1799413788708 3620.826530612245 563.1178794443736 3599.030612244898 564.504396584682 3577.234693877551 565.1160953230533 3555.4387755102043 565.8093538932076 3533.6428571428573 566.2987128839047 3511.8469387755104 567.0327513699503 3490.0510204081634 567.5221103606473 3468.2551020408164 567.8075697718873 3446.4591836734694 568.74550783739 3424.6632653061224 569.4387664075443 3402.8673469387754 570.9884032114184 3381.0714285714284 572.0079011087039 3359.2755102040815 572.6195998470753 3337.4795918367345 573.2312985854467 3315.683673469388 574.128456735058 3293.887755102041 574.8624952211036 3272.091836734694 575.5557537912578 3250.295918367347 576.4121320249776 3228.5 577.7170893335033 3228.5 1038Z" fill="#e62d39" opacity="0.9" />
		</g>
		<g>
			<path d="M3228.5 577.7170893335033 3250.295918367347 576.4121320249776 3272.091836734694 575.5557537912578 3293.887755102041 574.8624952211036 3315.683673469388 574.128456735058 3337.4795918367345 573.2312985854467 3359.2755102040815 572.6195998470753 3381.0714285714284 572.0079011087039 3402.8673469387754 570.9884032114184 3424.6632653061224 569.4387664075443 3446.4591836734694 568.74550783739 3468.2551020408164 567.8075697718873 3490.0510204081634 567.5221103606473 3511.8469387755104 567.0327513699503 3533.6428571428573 566.2987128839047 3555.4387755102043 565.8093538932076 3577.234693877551 565.1160953230533 3599.030612244898 564.504396584682 3620.826530612245 563.1178794443736 3642.622448979592 562.1799413788708 3664.418367346939 561.609022556391 3686.214285714286 560.7118644067796 3708.0102040816328 559.5700267618197 3729.8061224489797 558.4689690327514 3751.6020408163267 557.6941506308143 3773.3979591836733 557.0416719765515 3795.1938775510203 556.3891933222887 3816.9897959183672 554.8803364343061 3838.785714285714 553.9831782846948 3860.581632653061 553.0044603033007 3882.377551020408 552.1480820695807 3904.173469387755 551.210144004078 3925.969387755102 550.1090862750095 3947.765306122449 548.9672486300497 3969.5612244897957 547.2952720785013 3991.357142857143 545.9087549381929 4013.1530612244896 544.7261373773416 4034.9489795918366 544.1144386389703 4056.7448979591836 542.7687014145533 4078.5408163265306 541.7492035172677 4100.336734693878 541.3414043583534 4122.132653061224 540.4442462087422 4143.928571428572 539.6694278068051 4165.724489795918 538.8538294889767 4187.5204081632655 537.8343315916911 4209.316326530612 536.8963935261884 4231.1122448979595 536.0400152924684 4252.908163265306 534.7350579839429 4274.7040816326535 534.0825793296801 4296.5 533.3485408436345 4296.5 398 4274.7040816326535 398.8971581496113 4252.908163265306 399.7127564674397 4231.1122448979595 401.09927360774816 4209.316326530612 402.1595514209252 4187.5204081632655 403.1790493182108 4165.724489795918 404.56556645851913 4143.928571428572 405.46272460813043 4122.132653061224 406.48222250541613 4100.336734693878 407.5017204027016 4078.5408163265306 408.1949789728558 4056.7448979591836 409.54071619727284 4034.9489795918366 411.0903530011469 4013.1530612244896 411.82439148719254 3991.357142857143 413.1293487957181 3969.5612244897957 414.6382056837007 3947.765306122449 416.881101057729 3925.969387755102 418.226838282146 3904.173469387755 419.572575506563 3882.377551020408 420.6736332356314 3860.581632653061 421.6523512170256 3838.785714285714 422.83496877787684 3816.9897959183672 423.8952465910538 3795.1938775510203 425.60800305849364 3773.3979591836733 426.4643812922135 3751.6020408163267 427.1984197782592 3729.8061224489797 428.0955779278705 3708.0102040816328 429.5228749840702 3686.214285714286 430.78705237670437 3664.418367346939 431.80655027399007 3642.622448979592 432.6221485918184 3620.826530612245 433.8047661526697 3599.030612244898 435.3544029565438 3577.234693877551 436.12922135848083 3555.4387755102043 437.06715942398364 3533.6428571428573 437.7604179941379 3511.8469387755104 438.61679622785783 3490.0510204081634 439.14693513444615 3468.2551020408164 439.4323945456862 3446.4591836734694 440.5334522747546 3424.6632653061224 441.430610424366 3402.8673469387754 443.26570663948 3381.0714285714284 444.52988403211407 3359.2755102040815 445.3454823499426 3337.4795918367345 446.6912195743596 3315.683673469388 447.792277303428 3293.887755102041 448.6894354530393 3272.091836734694 449.54581368675923 3250.295918367347 450.5245316681533 3228.5 451.9518287243533 3228.5 577.7170893335033Z" fill="#005aa6" opacity="0.9" />
		</g>
		<g>
			<rect x="4372" y="431" width="22.9995" height="23" fill="#e62d39" />
		</g>
		<g>
			<text fill="#595959" font-family="Verdana,Open Sans,DejaVu Sans,sans-serif" font-weight="400" font-size="41" transform="matrix(1 0 0 1 4404.56 454)">Web Browser</text>
		</g>
		<g>
			<rect x="4372" y="508" width="22.9995" height="23" fill="#005aa6" />
		</g>
		<g>
			<text fill="#595959" font-family="Verdana,Open Sans,DejaVu Sans,sans-serif" font-weight="400" font-size="41" transform="matrix(1 0 0 1 4404.56 531)">App</text>
		</g>
	</g>
</svg>
