<svg width="1763" height="1046"
    xmlns="http://www.w3.org/2000/svg"
	xmlns:xlink="http://www.w3.org/1999/xlink" xml:space="preserve" overflow="hidden">
	<defs>
		<clipPath id="clip0">
			<rect x="2917" y="346" width="1763" height="1046"/>
		</clipPath>
	</defs>
	<g clip-path="url(#clip0)" transform="translate(-2917 -346)">
		<rect x="2918" y="347" width="1760" height="1043" fill="#FFFFFF" />
		<g>
			<path d="
			M3228.5 974.532 4296.5 974.532
			M3228.5 910.53 4296.5 910.53
			M3228.5 846.528 4296.5 846.528
			M3228.5 781.526 4296.5 781.526
			M3228.5 717.524 4296.5 717.524
			M3228.5 653.522 4296.5 653.522
			M3228.5 589.52 4296.5 589.52
			M3228.5 525.517 4296.5 525.517
			M3228.5 461.515 4296.5 461.515
			M3228.5 397.5 4296.5 397.5" stroke="#D9D9D9" stroke-width="3.4375" stroke-linejoin="round" stroke-miterlimit="10" fill="none" />
		</g>
		<g>
			<path d="M 1038.5 4296.5 1038.5" stroke="#D9D9D9" stroke-width="3.4375" stroke-linejoin="round" stroke-miterlimit="10" fill="none" fill-rule="evenodd" />
		</g>
		<g>
			<text fill="#595959" font-family="Verdana,Open Sans,DejaVu Sans,sans-serif" font-weight="400" font-size="41" transform="matrix(6.12323e-17 -1 1 6.12323e-17 3247.928955078125 1179.0385665893555)">22-Jul</text>
		</g>
		<g>
			<text fill="#595959" font-family="Verdana,Open Sans,DejaVu Sans,sans-serif" font-weight="400" font-size="41" transform="matrix(6.12323e-17 -1 1 6.12323e-17 3335.452960578763 1206.90576171875)">19-Aug</text>
		</g>
		<g>
			<text fill="#595959" font-family="Verdana,Open Sans,DejaVu Sans,sans-serif" font-weight="400" font-size="41" transform="matrix(6.12323e-17 -1 1 6.12323e-17 3422.6366340481504 1202.66162109375)">16-Sep</text>
		</g>
		<g>
			<text fill="#595959" font-family="Verdana,Open Sans,DejaVu Sans,sans-serif" font-weight="400" font-size="41" transform="matrix(6.12323e-17 -1 1 6.12323e-17 3505.1157176737884 1199.3784103393555)">14-Oct</text>
		</g>
		<g>
			<text fill="#595959" font-family="Verdana,Open Sans,DejaVu Sans,sans-serif" font-weight="400" font-size="41" transform="matrix(6.12323e-17 -1 1 6.12323e-17 3592.069166533801 1209.70849609375)">11-Nov</text>
		</g>
		<g>
			<text fill="#595959" font-family="Verdana,Open Sans,DejaVu Sans,sans-serif" font-weight="400" font-size="41" transform="matrix(6.12323e-17 -1 1 6.12323e-17 3679.463045081314 1205.3642578125)">16-Dec</text>
		</g>
		<g>
			<text fill="#595959" font-family="Verdana,Open Sans,DejaVu Sans,sans-serif" font-weight="400" font-size="41" transform="matrix(6.12323e-17 -1 1 6.12323e-17 3770.3002830038267 1189.9291915893555)">13-Jan</text>
		</g>
		<g>
			<text fill="#595959" font-family="Verdana,Open Sans,DejaVu Sans,sans-serif" font-weight="400" font-size="41" transform="matrix(6.12323e-17 -1 1 6.12323e-17 3854.561104910714 1201.3203125)">10-Feb</text>
		</g>
		<g>
			<text fill="#595959" font-family="Verdana,Open Sans,DejaVu Sans,sans-serif" font-weight="400" font-size="41" transform="matrix(6.12323e-17 -1 1 6.12323e-17 3941.034085020727 1210.2890625)">10-Mar</text>
		</g>
		<g>
			<text fill="#595959" font-family="Verdana,Open Sans,DejaVu Sans,sans-serif" font-weight="400" font-size="41" transform="matrix(6.12323e-17 -1 1 6.12323e-17 4032.9423678651146 1203.2621994018555)">07-Apr</text>
		</g>
		<g>
			<text fill="#595959" font-family="Verdana,Open Sans,DejaVu Sans,sans-serif" font-weight="400" font-size="41" transform="matrix(6.12323e-17 -1 1 6.12323e-17 4120.126041334503 1216.47509765625)">05-May</text>
		</g>
		<g>
			<text fill="#595959" font-family="Verdana,Open Sans,DejaVu Sans,sans-serif" font-weight="400" font-size="41" transform="matrix(6.12323e-17 -1 1 6.12323e-17 4206.2386698820155 1194.0131759643555)">09-Jun</text>
		</g>
		<g>
			<text fill="#595959" font-family="Verdana,Open Sans,DejaVu Sans,sans-serif" font-weight="400" font-size="41" transform="matrix(6.12323e-17 -1 1 6.12323e-17 4294.1330367107785 1178.9985275268555)">07-Jul</text>
		</g>
		<g>
			<text fill="#595959" font-family="Verdana,Open Sans,DejaVu Sans,sans-serif" font-weight="400" font-size="41" transform="matrix(1 0 0 1 3169.14111328125 1050)">0</text>
		</g>
		<g>
			<text fill="#595959" font-family="Verdana,Open Sans,DejaVu Sans,sans-serif" font-weight="400" font-size="41" transform="matrix(1 0 0 1 3088.7626953125 922)">3,089</text>
		</g>
		<g>
			<text fill="#595959" font-family="Verdana,Open Sans,DejaVu Sans,sans-serif" font-weight="400" font-size="41" transform="matrix(1 0 0 1 3089.14306640625 794)">6,178</text>
		</g>
		<g>
			<text fill="#595959" font-family="Verdana,Open Sans,DejaVu Sans,sans-serif" font-weight="400" font-size="41" transform="matrix(1 0 0 1 3088.802734375 666)">9,266</text>
		</g>
		<g>
			<text fill="#595959" font-family="Verdana,Open Sans,DejaVu Sans,sans-serif" font-weight="400" font-size="41" transform="matrix(1 0 0 1 3067.3618240356445 538)">12,355</text>
		</g>
		<g>
			<text fill="#595959" font-family="Verdana,Open Sans,DejaVu Sans,sans-serif" font-weight="400" font-size="41" transform="matrix(1 0 0 1 3065.8203201293945 410)">15,444</text>
		</g>
		<g>
			<text fill="#595959" font-family="Verdana,Open Sans,DejaVu Sans,sans-serif" font-weight="400" font-size="41" transform="matrix(1 0 0 1 3556.97119140625 1321)">Week Commencing</text>
		</g>
		<g>
			<text fill="#595959" font-family="Verdana,Open Sans,DejaVu Sans,sans-serif" font-weight="400" font-size="46" transform="matrix(6.12323e-17 -1 1 6.12323e-17 3019.73 1011.673828125)">Number of Browser Profiles</text>
		</g>
		<rect x="2918.5" y="347.5" width="1760" height="1043" stroke="#D9D9D9" stroke-width="3.4375" stroke-linejoin="round" stroke-miterlimit="10" fill="none" />
		<g>
			<path d="M3228.5 1038 3250.295918367347 1038 3272.091836734694 1038 3293.887755102041 1038 3315.683673469388 1038 3337.4795918367345 1038 3359.2755102040815 1038 3381.0714285714284 1038 3402.8673469387754 1038 3424.6632653061224 1038 3446.4591836734694 1038 3468.2551020408164 1038 3490.0510204081634 1038 3511.8469387755104 1038 3533.6428571428573 1038 3555.4387755102043 1038 3577.234693877551 1038 3599.030612244898 1038 3620.826530612245 1038 3642.622448979592 1038 3664.418367346939 1038 3686.214285714286 1038 3708.0102040816328 1038 3729.8061224489797 1038 3751.6020408163267 1038 3773.3979591836733 1038 3795.1938775510203 1038 3816.9897959183672 1038 3838.785714285714 1038 3860.581632653061 1038 3882.377551020408 1038 3904.173469387755 1038 3925.969387755102 1038 3947.765306122449 1038 3969.5612244897957 1038 3991.357142857143 1038 4013.1530612244896 1038 4034.9489795918366 1038 4056.7448979591836 1038 4078.5408163265306 1038 4100.336734693878 1038 4122.132653061224 1038 4143.928571428572 1038 4165.724489795918 1038 4187.5204081632655 1038 4209.316326530612 1038 4231.1122448979595 1038 4252.908163265306 1038 4274.7040816326535 1038 4296.5 1038 4296.5 533.7161357161358 4274.7040816326535 534.7521367521367 4252.908163265306 536.1196581196582 4231.1122448979595 536.7412587412588 4209.316326530612 537.94301994302 4187.5204081632655 539.3519813519814 4165.724489795918 541.0510230510231 4143.928571428572 542.2113442113442 4122.132653061224 543.3302253302254 4100.336734693878 544.2833462833463 4078.5408163265306 545.1535871535872 4056.7448979591836 546.1481481481482 4034.9489795918366 547.0598290598291 4013.1530612244896 548.5931105931106 3991.357142857143 549.2561512561513 3969.5612244897957 549.9191919191919 3947.765306122449 550.7065527065527 3925.969387755102 551.8254338254338 3904.173469387755 552.985754985755 3882.377551020408 553.8974358974359 3860.581632653061 554.4775964775965 3838.785714285714 555.4307174307174 3816.9897959183672 556.8396788396789 3795.1938775510203 557.4612794612794 3773.3979591836733 558.1657601657603 3751.6020408163267 558.6630406630406 3729.8061224489797 559.4089614089614 3708.0102040816328 559.9062419062419 3686.214285714286 560.1963221963222 3664.418367346939 561.1494431494432 3642.622448979592 561.8539238539239 3620.826530612245 563.4286454286455 3599.030612244898 564.4646464646464 3577.234693877551 565.0862470862471 3555.4387755102043 565.7078477078478 3533.6428571428573 566.6195286195286 3511.8469387755104 567.3654493654494 3490.0510204081634 568.06993006993 3468.2551020408164 568.9401709401709 3446.4591836734694 570.2662522662523 3424.6632653061224 570.6806526806527 3402.8673469387754 571.7580937580938 3381.0714285714284 572.6697746697747 3359.2755102040815 573.2913752913753 3337.4795918367345 574.2030562030562 3315.683673469388 574.7417767417768 3293.887755102041 575.3219373219374 3272.091836734694 576.2336182336182 3250.295918367347 577.020979020979 3228.5 577.7668997668998 3228.5 1038Z" fill="#e62d39" opacity="0.9" />
		</g>
		<g>
			<path d="M3228.5 577.7668997668998 3250.295918367347 577.020979020979 3272.091836734694 576.2336182336182 3293.887755102041 575.3219373219374 3315.683673469388 574.7417767417768 3337.4795918367345 574.2030562030562 3359.2755102040815 573.2913752913753 3381.0714285714284 572.6697746697747 3402.8673469387754 571.7580937580938 3424.6632653061224 570.6806526806527 3446.4591836734694 570.2662522662523 3468.2551020408164 568.9401709401709 3490.0510204081634 568.06993006993 3511.8469387755104 567.3654493654494 3533.6428571428573 566.6195286195286 3555.4387755102043 565.7078477078478 3577.234693877551 565.0862470862471 3599.030612244898 564.4646464646464 3620.826530612245 563.4286454286455 3642.622448979592 561.8539238539239 3664.418367346939 561.1494431494432 3686.214285714286 560.1963221963222 3708.0102040816328 559.9062419062419 3729.8061224489797 559.4089614089614 3751.6020408163267 558.6630406630406 3773.3979591836733 558.1657601657603 3795.1938775510203 557.4612794612794 3816.9897959183672 556.8396788396789 3838.785714285714 555.4307174307174 3860.581632653061 554.4775964775965 3882.377551020408 553.8974358974359 3904.173469387755 552.985754985755 3925.969387755102 551.8254338254338 3947.765306122449 550.7065527065527 3969.5612244897957 549.9191919191919 3991.357142857143 549.2561512561513 4013.1530612244896 548.5931105931106 4034.9489795918366 547.0598290598291 4056.7448979591836 546.1481481481482 4078.5408163265306 545.1535871535872 4100.336734693878 544.2833462833463 4122.132653061224 543.3302253302254 4143.928571428572 542.2113442113442 4165.724489795918 541.0510230510231 4187.5204081632655 539.3519813519814 4209.316326530612 537.94301994302 4231.1122448979595 536.7412587412588 4252.908163265306 536.1196581196582 4274.7040816326535 534.7521367521367 4296.5 533.7161357161358 4296.5 398.0000000000001 4274.7040816326535 399.36752136752136 4252.908163265306 400.94224294224307 4231.1122448979595 401.68816368816374 4209.316326530612 403.01424501424503 4187.5204081632655 404.5475265475266 4165.724489795918 406.82672882672887 4143.928571428572 408.19425019425023 4122.132653061224 409.56177156177165 4100.336734693878 410.6806526806527 4078.5408163265306 411.67521367521374 4056.7448979591836 412.8769748769749 4034.9489795918366 413.954415954416 4013.1530612244896 415.6948976948977 3991.357142857143 416.56513856513857 3969.5612244897957 417.31105931105935 3947.765306122449 418.2227402227402 3925.969387755102 419.6731416731417 3904.173469387755 420.9577829577829 3882.377551020408 421.993783993784 3860.581632653061 422.8225848225849 3838.785714285714 424.0243460243461 3816.9897959183672 425.59906759906767 3795.1938775510203 426.3864283864284 3773.3979591836733 427.3395493395494 3751.6020408163267 428.04403004403 3729.8061224489797 428.91427091427096 3708.0102040816328 429.45299145299145 3686.214285714286 429.7430717430717 3664.418367346939 430.8619528619529 3642.622448979592 431.77363377363383 3620.826530612245 433.6384356384357 3599.030612244898 434.9230769230769 3577.234693877551 435.7518777518778 3555.4387755102043 437.1193991193992 3533.6428571428573 438.23828023828025 3511.8469387755104 439.1499611499612 3490.0510204081634 440.02020202020196 3468.2551020408164 441.014763014763 3446.4591836734694 442.46516446516455 3424.6632653061224 443.04532504532506 3402.8673469387754 444.4128464128464 3381.0714285714284 445.5317275317276 3359.2755102040815 446.31908831908834 3337.4795918367345 447.43796943796946 3315.683673469388 448.0595700595701 3293.887755102041 448.929810929811 3272.091836734694 449.92437192437194 3250.295918367347 450.87749287749284 3228.5 451.7477337477338 3228.5 577.7668997668998Z" fill="#005aa6" opacity="0.9" />
		</g>
		<g>
			<rect x="4372" y="431" width="22.9995" height="23" fill="#e62d39" />
		</g>
		<g>
			<text fill="#595959" font-family="Verdana,Open Sans,DejaVu Sans,sans-serif" font-weight="400" font-size="41" transform="matrix(1 0 0 1 4404.56 454)">Web Browser</text>
		</g>
		<g>
			<rect x="4372" y="508" width="22.9995" height="23" fill="#005aa6" />
		</g>
		<g>
			<text fill="#595959" font-family="Verdana,Open Sans,DejaVu Sans,sans-serif" font-weight="400" font-size="41" transform="matrix(1 0 0 1 4404.56 531)">App</text>
		</g>
	</g>
</svg>
