<svg width="1763" height="1046"
    xmlns="http://www.w3.org/2000/svg"
	xmlns:xlink="http://www.w3.org/1999/xlink" xml:space="preserve" overflow="hidden">
	<defs>
		<clipPath id="clip0">
			<rect x="2917" y="346" width="1763" height="1046"/>
		</clipPath>
	</defs>
	<g clip-path="url(#clip0)" transform="translate(-2917 -346)">
		<rect x="2918" y="347" width="1760" height="1043" fill="#FFFFFF" />
		<g>
			<path d="
			M3228.5 974.532 4296.5 974.532
			M3228.5 910.53 4296.5 910.53
			M3228.5 846.528 4296.5 846.528
			M3228.5 781.526 4296.5 781.526
			M3228.5 717.524 4296.5 717.524
			M3228.5 653.522 4296.5 653.522
			M3228.5 589.52 4296.5 589.52
			M3228.5 525.517 4296.5 525.517
			M3228.5 461.515 4296.5 461.515
			M3228.5 397.5 4296.5 397.5" stroke="#D9D9D9" stroke-width="3.4375" stroke-linejoin="round" stroke-miterlimit="10" fill="none" />
		</g>
		<g>
			<path d="M 1038.5 4296.5 1038.5" stroke="#D9D9D9" stroke-width="3.4375" stroke-linejoin="round" stroke-miterlimit="10" fill="none" fill-rule="evenodd" />
		</g>
		<g>
			<text fill="#595959" font-family="Verdana,sans-serif" font-weight="400" font-size="41" transform="matrix(6.12323e-17 -1 1 6.12323e-17 3244.5 1227)">06-Nov</text>
		</g>
		<g>
			<text fill="#595959" font-family="Verdana,sans-serif" font-weight="400" font-size="41" transform="matrix(6.12323e-17 -1 1 6.12323e-17 3346.214285714286 1226)">20-Nov</text>
		</g>
		<g>
			<text fill="#595959" font-family="Verdana,sans-serif" font-weight="400" font-size="41" transform="matrix(6.12323e-17 -1 1 6.12323e-17 3447.9285714285716 1225)">04-Dec</text>
		</g>
		<g>
			<text fill="#595959" font-family="Verdana,sans-serif" font-weight="400" font-size="41" transform="matrix(6.12323e-17 -1 1 6.12323e-17 3549.642857142857 1222)">18-Dec</text>
		</g>
		<g>
			<text fill="#595959" font-family="Verdana,sans-serif" font-weight="400" font-size="41" transform="matrix(6.12323e-17 -1 1 6.12323e-17 3651.3571428571427 1212)">01-Jan</text>
		</g>
		<g>
			<text fill="#595959" font-family="Verdana,sans-serif" font-weight="400" font-size="41" transform="matrix(6.12323e-17 -1 1 6.12323e-17 3752.5714285714284 1209)">15-Jan</text>
		</g>
		<g>
			<text fill="#595959" font-family="Verdana,sans-serif" font-weight="400" font-size="41" transform="matrix(6.12323e-17 -1 1 6.12323e-17 3854.785714285714 1211)">29-Jan</text>
		</g>
		<g>
			<text fill="#595959" font-family="Verdana,sans-serif" font-weight="400" font-size="41" transform="matrix(6.12323e-17 -1 1 6.12323e-17 3956.5 1216)">12-Feb</text>
		</g>
		<g>
			<text fill="#595959" font-family="Verdana,sans-serif" font-weight="400" font-size="41" transform="matrix(6.12323e-17 -1 1 6.12323e-17 4058.214285714286 1218)">26-Feb</text>
		</g>
		<g>
			<text fill="#595959" font-family="Verdana,sans-serif" font-weight="400" font-size="41" transform="matrix(6.12323e-17 -1 1 6.12323e-17 4159.428571428572 1222)">11-Mar</text>
		</g>
		<g>
			<text fill="#595959" font-family="Verdana,sans-serif" font-weight="400" font-size="41" transform="matrix(6.12323e-17 -1 1 6.12323e-17 4261.642857142857 1225)">25-Mar</text>
		</g>
		<g>
			<text fill="#595959" font-family="Verdana,sans-serif" font-weight="400" font-size="41" transform="matrix(1 0 0 1 3167.5 1050)">0</text>
		</g>
		<g>
			<text fill="#595959" font-family="Verdana,sans-serif" font-weight="400" font-size="41" transform="matrix(1 0 0 1 3075.5 922)">2,751</text>
		</g>
		<g>
			<text fill="#595959" font-family="Verdana,sans-serif" font-weight="400" font-size="41" transform="matrix(1 0 0 1 3074.5 794)">5,503</text>
		</g>
		<g>
			<text fill="#595959" font-family="Verdana,sans-serif" font-weight="400" font-size="41" transform="matrix(1 0 0 1 3071.5 666)">8,254</text>
		</g>
		<g>
			<text fill="#595959" font-family="Verdana,sans-serif" font-weight="400" font-size="41" transform="matrix(1 0 0 1 3048.5 538)">11,006</text>
		</g>
		<g>
			<text fill="#595959" font-family="Verdana,sans-serif" font-weight="400" font-size="41" transform="matrix(1 0 0 1 3049.5 410)">13,757</text>
		</g>
		<g>
			<text fill="#595959" font-family="Verdana,sans-serif" font-weight="400" font-size="41" transform="matrix(1 0 0 1 3541.5 1321)">Week Commencing</text>
		</g>
		<g>
			<text fill="#595959" font-family="Verdana,sans-serif" font-weight="400" font-size="46" transform="matrix(6.12323e-17 -1 1 6.12323e-17 3019.73 1035.25)">Number of Browser Profiles</text>
		</g>
		<rect x="2918.5" y="347.5" width="1760" height="1043" stroke="#D9D9D9" stroke-width="3.4375" stroke-linejoin="round" stroke-miterlimit="10" fill="none" />
		<g>
			<path d="M3228.5 1038 3279.3571428571427 1038 3330.214285714286 1038 3381.0714285714284 1038 3431.9285714285716 1038 3482.785714285714 1038 3533.642857142857 1038 3584.5 1038 3635.3571428571427 1038 3686.214285714286 1038 3737.0714285714284 1038 3787.9285714285716 1038 3838.785714285714 1038 3889.642857142857 1038 3940.5 1038 3991.3571428571427 1038 4042.214285714286 1038 4093.0714285714284 1038 4143.928571428572 1038 4194.785714285714 1038 4245.642857142857 1038 4296.5 1038 4296.5 536.3092243948536 4245.642857142857 537.472268663226 4194.785714285714 538.5422693901287 4143.928571428572 539.6587918877663 4093.0714285714284 541.1009667805481 4042.214285714286 543.4735770880279 3991.3571428571427 543.9387947953769 3940.5 544.3109689612561 3889.642857142857 546.3114051028567 3838.785714285714 548.3583630151923 3787.9285714285716 548.916624264011 3737.0714285714284 549.7540161372392 3686.214285714286 550.4518426982627 3635.3571428571427 550.7309733226721 3584.5 550.7309733226721 3533.642857142857 551.5218434251653 3482.785714285714 551.9870611325143 3431.9285714285716 552.5453223813331 3381.0714285714284 553.4757577960311 3330.214285714286 554.2666278985243 3279.3571428571427 554.9644544595478 3228.5 555.4761939376317 3228.5 1038Z" fill="#e62d39" opacity="0.9" />
		</g>
		<g>
			<path d="M3228.5 555.4761939376317 3279.3571428571427 554.9644544595478 3330.214285714286 554.2666278985243 3381.0714285714284 553.4757577960311 3431.9285714285716 552.5453223813331 3482.785714285714 551.9870611325143 3533.642857142857 551.5218434251653 3584.5 550.7309733226721 3635.3571428571427 550.7309733226721 3686.214285714286 550.4518426982627 3737.0714285714284 549.7540161372392 3787.9285714285716 548.916624264011 3838.785714285714 548.3583630151923 3889.642857142857 546.3114051028567 3940.5 544.3109689612561 3991.3571428571427 543.9387947953769 4042.214285714286 543.4735770880279 4093.0714285714284 541.1009667805481 4143.928571428572 539.6587918877663 4194.785714285714 538.5422693901287 4245.642857142857 537.472268663226 4296.5 536.3092243948536 4296.5 398 4245.642857142857 399.395653122047 4194.785714285714 401.11695863923825 4143.928571428572 402.7917423856946 4093.0714285714284 404.28043904921134 4042.214285714286 406.93217998110055 3991.3571428571427 407.44391945918443 3940.5 408.0021807080032 3889.642857142857 410.28174747401323 3838.785714285714 412.46827069855345 3787.9285714285716 413.16609725957693 3737.0714285714284 414.2360979864796 3686.214285714286 415.07348985970776 3635.3571428571427 415.44566402558695 3584.5 415.44566402558695 3533.642857142857 416.4691429817547 3482.785714285714 417.1669695427782 3431.9285714285716 417.77175256233187 3381.0714285714284 418.79523151849963 3330.214285714286 419.7256669331976 3279.3571428571427 420.74914588936537 3228.5 421.44697245038884 3228.5 555.4761939376317Z" fill="#005aa6" opacity="0.9" />
		</g>
		<g>
			<rect x="4372" y="431" width="22.9995" height="23" fill="#e62d39" />
		</g>
		<g>
			<text fill="#595959" font-family="Verdana,sans-serif" font-weight="400" font-size="41" transform="matrix(1 0 0 1 4404.56 454)">Web Browser</text>
		</g>
		<g>
			<rect x="4372" y="508" width="22.9995" height="23" fill="#005aa6" />
		</g>
		<g>
			<text fill="#595959" font-family="Verdana,sans-serif" font-weight="400" font-size="41" transform="matrix(1 0 0 1 4404.56 531)">App</text>
		</g>
	</g>
</svg>
