<svg width="1763" height="1046"
    xmlns="http://www.w3.org/2000/svg"
	xmlns:xlink="http://www.w3.org/1999/xlink" xml:space="preserve" overflow="hidden">
	<defs>
		<clipPath id="clip0">
			<rect x="2917" y="346" width="1763" height="1046"/>
		</clipPath>
	</defs>
	<g clip-path="url(#clip0)" transform="translate(-2917 -346)">
		<rect x="2918" y="347" width="1760" height="1043" fill="#FFFFFF" />
		<g>
			<path d="
			M3228.5 974.532 4296.5 974.532
			M3228.5 910.53 4296.5 910.53
			M3228.5 846.528 4296.5 846.528
			M3228.5 781.526 4296.5 781.526
			M3228.5 717.524 4296.5 717.524
			M3228.5 653.522 4296.5 653.522
			M3228.5 589.52 4296.5 589.52
			M3228.5 525.517 4296.5 525.517
			M3228.5 461.515 4296.5 461.515
			M3228.5 397.5 4296.5 397.5" stroke="#D9D9D9" stroke-width="3.4375" stroke-linejoin="round" stroke-miterlimit="10" fill="none" />
		</g>
		<g>
			<path d="M 1038.5 4296.5 1038.5" stroke="#D9D9D9" stroke-width="3.4375" stroke-linejoin="round" stroke-miterlimit="10" fill="none" fill-rule="evenodd" />
		</g>
		<g>
			<text fill="#595959" font-family="Verdana,sans-serif" font-weight="400" font-size="41" transform="matrix(6.12323e-17 -1 1 6.12323e-17 3244.5 1225)">06-Nov</text>
		</g>
		<g>
			<text fill="#595959" font-family="Verdana,sans-serif" font-weight="400" font-size="41" transform="matrix(6.12323e-17 -1 1 6.12323e-17 3354.0384615384614 1223)">04-Dec</text>
		</g>
		<g>
			<text fill="#595959" font-family="Verdana,sans-serif" font-weight="400" font-size="41" transform="matrix(6.12323e-17 -1 1 6.12323e-17 3463.576923076923 1210)">01-Jan</text>
		</g>
		<g>
			<text fill="#595959" font-family="Verdana,sans-serif" font-weight="400" font-size="41" transform="matrix(6.12323e-17 -1 1 6.12323e-17 3573.1153846153848 1210)">29-Jan</text>
		</g>
		<g>
			<text fill="#595959" font-family="Verdana,sans-serif" font-weight="400" font-size="41" transform="matrix(6.12323e-17 -1 1 6.12323e-17 3682.653846153846 1216)">26-Feb</text>
		</g>
		<g>
			<text fill="#595959" font-family="Verdana,sans-serif" font-weight="400" font-size="41" transform="matrix(6.12323e-17 -1 1 6.12323e-17 3792.1923076923076 1223)">25-Mar</text>
		</g>
		<g>
			<text fill="#595959" font-family="Verdana,sans-serif" font-weight="400" font-size="41" transform="matrix(6.12323e-17 -1 1 6.12323e-17 3905.230769230769 1216)">22-Apr</text>
		</g>
		<g>
			<text fill="#595959" font-family="Verdana,sans-serif" font-weight="400" font-size="41" transform="matrix(6.12323e-17 -1 1 6.12323e-17 4014.7692307692305 1228)">20-May</text>
		</g>
		<g>
			<text fill="#595959" font-family="Verdana,sans-serif" font-weight="400" font-size="41" transform="matrix(6.12323e-17 -1 1 6.12323e-17 4120.307692307692 1209)">17-Jun</text>
		</g>
		<g>
			<text fill="#595959" font-family="Verdana,sans-serif" font-weight="400" font-size="41" transform="matrix(6.12323e-17 -1 1 6.12323e-17 4230.346153846154 1194)">15-Jul</text>
		</g>
		<g>
			<text fill="#595959" font-family="Verdana,sans-serif" font-weight="400" font-size="41" transform="matrix(1 0 0 1 3123.5 1050)">0%</text>
		</g>
		<g>
			<text fill="#595959" font-family="Verdana,sans-serif" font-weight="400" font-size="41" transform="matrix(1 0 0 1 3097.5 922)">20%</text>
		</g>
		<g>
			<text fill="#595959" font-family="Verdana,sans-serif" font-weight="400" font-size="41" transform="matrix(1 0 0 1 3096.5 794)">40%</text>
		</g>
		<g>
			<text fill="#595959" font-family="Verdana,sans-serif" font-weight="400" font-size="41" transform="matrix(1 0 0 1 3097.5 666)">60%</text>
		</g>
		<g>
			<text fill="#595959" font-family="Verdana,sans-serif" font-weight="400" font-size="41" transform="matrix(1 0 0 1 3097.5 538)">80%</text>
		</g>
		<g>
			<text fill="#595959" font-family="Verdana,sans-serif" font-weight="400" font-size="41" transform="matrix(1 0 0 1 3074.5 410)">100%</text>
		</g>
		<g>
			<text fill="#595959" font-family="Verdana,sans-serif" font-weight="400" font-size="41" transform="matrix(1 0 0 1 3544.5 1321)">Week Commencing</text>
		</g>
		<g>
			<text fill="#595959" font-family="Verdana,sans-serif" font-weight="400" font-size="46" transform="matrix(6.12323e-17 -1 1 6.12323e-17 3019.73 965.25)">Requests (% of Total)</text>
		</g>
		<rect x="2918.5" y="347.5" width="1760" height="1043" stroke="#D9D9D9" stroke-width="3.4375" stroke-linejoin="round" stroke-miterlimit="10" fill="none" />
		<g>
			<path d="M3228.5 1038 3255.8846153846152 1038 3283.269230769231 1038 3310.653846153846 1038 3338.0384615384614 1038 3365.423076923077 1038 3392.8076923076924 1038 3420.1923076923076 1038 3447.576923076923 1038 3474.9615384615386 1038 3502.346153846154 1038 3529.730769230769 1038 3557.1153846153848 1038 3584.5 1038 3611.8846153846152 1038 3639.269230769231 1038 3666.653846153846 1038 3694.0384615384614 1038 3721.423076923077 1038 3748.8076923076924 1038 3776.1923076923076 1038 3803.576923076923 1038 3830.9615384615386 1038 3858.346153846154 1038 3885.730769230769 1038 3913.1153846153848 1038 3940.5 1038 3967.8846153846152 1038 3995.2692307692305 1038 4022.653846153846 1038 4050.0384615384614 1038 4077.423076923077 1038 4104.807692307692 1038 4132.192307692308 1038 4159.576923076923 1038 4186.961538461538 1038 4214.346153846154 1038 4241.7307692307695 1038 4269.115384615385 1038 4296.5 1038 4296.5 683.0202318089205 4269.115384615385 682.9152439485392 4241.7307692307695 682.6018446393113 4214.346153846154 682.3232723398903 4186.961538461538 692.0678617680483 4159.576923076923 692.1617344671945 4132.192307692308 692.8199164999976 4104.807692307692 693.1175071055251 4077.423076923077 693.279620378092 4050.0384615384614 693.7023667945714 4022.653846153846 694.1241584254815 3995.2692307692305 694.1818102912466 3967.8846153846152 694.1642138907431 3940.5 694.1125422243633 3913.1153846153848 694.1000133322768 3885.730769230769 694.3187105935212 3858.346153846154 693.6205909506452 3830.9615384615386 692.0050611605195 3803.576923076923 690.3198452220047 3776.1923076923076 688.7547930560947 3748.8076923076924 684.6952509793664 3721.423076923077 679.1608039260515 3694.0384615384614 679.6019256256711 3666.653846153846 682.3213957841157 3639.269230769231 684.5298935912222 3611.8846153846152 686.5899201687104 3584.5 685.5922828206933 3557.1153846153848 684.727262331711 3529.730769230769 682.4804542973092 3502.346153846154 682.4034608977785 3474.9615384615386 678.1494953370828 3447.576923076923 677.8971563273623 3420.1923076923076 676.2533828137863 3392.8076923076924 675.2989091940677 3365.423076923077 677.8919622242556 3338.0384615384614 674.1657790475881 3310.653846153846 672.9058970371336 3283.269230769231 672.3854431659599 3255.8846153846152 672.4810692266187 3228.5 688.8585875798008 3228.5 1038Z" fill="#e62d39" opacity="0.9" />
		</g>
		<g>
			<path d="M3228.5 688.8585875798008 3255.8846153846152 672.4810692266187 3283.269230769231 672.3854431659599 3310.653846153846 672.9058970371336 3338.0384615384614 674.1657790475881 3365.423076923077 677.8919622242556 3392.8076923076924 675.2989091940677 3420.1923076923076 676.2533828137863 3447.576923076923 677.8971563273623 3474.9615384615386 678.1494953370828 3502.346153846154 682.4034608977785 3529.730769230769 682.4804542973092 3557.1153846153848 684.727262331711 3584.5 685.5922828206933 3611.8846153846152 686.5899201687104 3639.269230769231 684.5298935912222 3666.653846153846 682.3213957841157 3694.0384615384614 679.6019256256711 3721.423076923077 679.1608039260515 3748.8076923076924 684.6952509793664 3776.1923076923076 688.7547930560947 3803.576923076923 690.3198452220047 3830.9615384615386 692.0050611605195 3858.346153846154 693.6205909506452 3885.730769230769 694.3187105935212 3913.1153846153848 694.1000133322768 3940.5 694.1125422243633 3967.8846153846152 694.1642138907431 3995.2692307692305 694.1818102912466 4022.653846153846 694.1241584254815 4050.0384615384614 693.7023667945714 4077.423076923077 693.279620378092 4104.807692307692 693.1175071055251 4132.192307692308 692.8199164999976 4159.576923076923 692.1617344671945 4186.961538461538 692.0678617680483 4214.346153846154 682.3232723398903 4241.7307692307695 682.6018446393113 4269.115384615385 682.9152439485392 4296.5 683.0202318089205 4296.5 439.99162530587694 4269.115384615385 439.5878575638358 4241.7307692307695 439.2709286792896 4214.346153846154 439.03517502824866 4186.961538461538 438.2387094064713 4159.576923076923 437.86557118539895 4132.192307692308 437.9037489834077 4104.807692307692 437.50828716559636 4077.423076923077 437.0430647748583 4050.0384615384614 436.55579203505033 4022.653846153846 435.9902777401653 3995.2692307692305 435.4750218802621 3967.8846153846152 434.9235826881617 3940.5 434.50854774480695 3913.1153846153848 434.2228656036452 3885.730769230769 433.89359402287107 3858.346153846154 433.6904179753529 3830.9615384615386 433.5882703257375 3803.576923076923 433.47006547647834 3776.1923076923076 433.35408809308973 3748.8076923076924 433.21208388667225 3721.423076923077 422.122193997944 3694.0384615384614 421.6503463054078 3666.653846153846 420.92160217406195 3639.269230769231 420.29603101333674 3611.8846153846152 419.6100604377933 3584.5 419.2453958196608 3557.1153846153848 418.88543369630037 3529.730769230769 418.3145443410057 3502.346153846154 418.32121591329116 3474.9615384615386 418.1936065785876 3447.576923076923 417.9836440524953 3420.1923076923076 417.6737817747089 3392.8076923076924 417.3462080305663 3365.423076923077 417.2850488775972 3338.0384615384614 416.91367414087256 3310.653846153846 416.74196033033303 3283.269230769231 416.60514588840294 3255.8846153846152 416.52074620602923 3228.5 416.17089398429073 3228.5 688.8585875798008Z" fill="#005aa6" opacity="0.9" />
		</g>
		<g>
			<path d="M3228.5 416.17089398429073 3255.8846153846152 416.52074620602923 3283.269230769231 416.60514588840294 3310.653846153846 416.74196033033303 3338.0384615384614 416.91367414087256 3365.423076923077 417.2850488775972 3392.8076923076924 417.3462080305663 3420.1923076923076 417.6737817747089 3447.576923076923 417.9836440524953 3474.9615384615386 418.1936065785876 3502.346153846154 418.32121591329116 3529.730769230769 418.3145443410057 3557.1153846153848 418.88543369630037 3584.5 419.2453958196608 3611.8846153846152 419.6100604377933 3639.269230769231 420.29603101333674 3666.653846153846 420.92160217406195 3694.0384615384614 421.6503463054078 3721.423076923077 422.122193997944 3748.8076923076924 433.21208388667225 3776.1923076923076 433.35408809308973 3803.576923076923 433.47006547647834 3830.9615384615386 433.5882703257375 3858.346153846154 433.6904179753529 3885.730769230769 433.89359402287107 3913.1153846153848 434.2228656036452 3940.5 434.50854774480695 3967.8846153846152 434.9235826881617 3995.2692307692305 435.4750218802621 4022.653846153846 435.9902777401653 4050.0384615384614 436.55579203505033 4077.423076923077 437.0430647748583 4104.807692307692 437.50828716559636 4132.192307692308 437.9037489834077 4159.576923076923 437.86557118539895 4186.961538461538 438.2387094064713 4214.346153846154 439.03517502824866 4241.7307692307695 439.2709286792896 4269.115384615385 439.5878575638358 4296.5 439.99162530587694 4296.5 398 4269.115384615385 398 4241.7307692307695 397.9999999999999 4214.346153846154 397.99999999999994 4186.961538461538 398.00000000000006 4159.576923076923 398 4132.192307692308 398 4104.807692307692 398.00000000000006 4077.423076923077 397.9999999999999 4050.0384615384614 398 4022.653846153846 397.99999999999994 3995.2692307692305 398 3967.8846153846152 398 3940.5 397.9999999999999 3913.1153846153848 397.9999999999999 3885.730769230769 398.0000000000001 3858.346153846154 398 3830.9615384615386 397.99999999999994 3803.576923076923 398.00000000000006 3776.1923076923076 398 3748.8076923076924 398 3721.423076923077 398 3694.0384615384614 398.00000000000006 3666.653846153846 398.00000000000006 3639.269230769231 398.00000000000006 3611.8846153846152 398 3584.5 397.99999999999994 3557.1153846153848 398 3529.730769230769 398 3502.346153846154 398 3474.9615384615386 398 3447.576923076923 398 3420.1923076923076 398 3392.8076923076924 398 3365.423076923077 398.00000000000006 3338.0384615384614 398 3310.653846153846 397.99999999999994 3283.269230769231 398.00000000000006 3255.8846153846152 397.9999999999999 3228.5 397.9999999999999 3228.5 416.17089398429073Z" fill="#393d41" opacity="0.9" />
		</g>
		<g>
			<rect x="4372" y="431" width="22.9995" height="23" fill="#e62d39" />
		</g>
		<g>
			<text fill="#595959" font-family="Verdana,sans-serif" font-weight="400" font-size="41" transform="matrix(1 0 0 1 4404.56 454)">Web Browser</text>
		</g>
		<g>
			<rect x="4372" y="508" width="22.9995" height="23" fill="#005aa6" />
		</g>
		<g>
			<text fill="#595959" font-family="Verdana,sans-serif" font-weight="400" font-size="41" transform="matrix(1 0 0 1 4404.56 531)">App</text>
		</g>
		<g>
			<rect x="4372" y="585" width="22.9995" height="23" fill="#393d41" />
		</g>
		<g>
			<text fill="#595959" font-family="Verdana,sans-serif" font-weight="400" font-size="41" transform="matrix(1 0 0 1 4404.56 608)">Unclassified</text>
		</g>
	</g>
</svg>
