<svg width="1763" height="1046"
    xmlns="http://www.w3.org/2000/svg"
	xmlns:xlink="http://www.w3.org/1999/xlink" xml:space="preserve" overflow="hidden">
	<defs>
		<clipPath id="clip0">
			<rect x="2917" y="346" width="1763" height="1046"/>
		</clipPath>
	</defs>
	<g clip-path="url(#clip0)" transform="translate(-2917 -346)">
		<rect x="2918" y="347" width="1760" height="1043" fill="#FFFFFF" />
		<g>
			<path d="
			M3228.5 974.532 4296.5 974.532
			M3228.5 910.53 4296.5 910.53
			M3228.5 846.528 4296.5 846.528
			M3228.5 781.526 4296.5 781.526
			M3228.5 717.524 4296.5 717.524
			M3228.5 653.522 4296.5 653.522
			M3228.5 589.52 4296.5 589.52
			M3228.5 525.517 4296.5 525.517
			M3228.5 461.515 4296.5 461.515
			M3228.5 397.5 4296.5 397.5" stroke="#D9D9D9" stroke-width="3.4375" stroke-linejoin="round" stroke-miterlimit="10" fill="none" />
		</g>
		<g>
			<path d="M 1038.5 4296.5 1038.5" stroke="#D9D9D9" stroke-width="3.4375" stroke-linejoin="round" stroke-miterlimit="10" fill="none" fill-rule="evenodd" />
		</g>
		<g>
			<text fill="#595959" font-family="Verdana,Open Sans,DejaVu Sans,sans-serif" font-weight="400" font-size="41" transform="matrix(6.12323e-17 -1 1 6.12323e-17 3243.544677734375 1209.70849609375)">18-Nov</text>
		</g>
		<g>
			<text fill="#595959" font-family="Verdana,Open Sans,DejaVu Sans,sans-serif" font-weight="400" font-size="41" transform="matrix(6.12323e-17 -1 1 6.12323e-17 3330.728351203763 1207.1259765625)">23-Dec</text>
		</g>
		<g>
			<text fill="#595959" font-family="Verdana,Open Sans,DejaVu Sans,sans-serif" font-weight="400" font-size="41" transform="matrix(6.12323e-17 -1 1 6.12323e-17 3421.5856086575254 1191.6909103393555)">20-Jan</text>
		</g>
		<g>
			<text fill="#595959" font-family="Verdana,Open Sans,DejaVu Sans,sans-serif" font-weight="400" font-size="41" transform="matrix(6.12323e-17 -1 1 6.12323e-17 3505.8264110331634 1201.3203125)">17-Feb</text>
		</g>
		<g>
			<text fill="#595959" font-family="Verdana,Open Sans,DejaVu Sans,sans-serif" font-weight="400" font-size="41" transform="matrix(6.12323e-17 -1 1 6.12323e-17 3592.069166533801 1210.2890625)">17-Mar</text>
		</g>
		<g>
			<text fill="#595959" font-family="Verdana,Open Sans,DejaVu Sans,sans-serif" font-weight="400" font-size="41" transform="matrix(6.12323e-17 -1 1 6.12323e-17 3684.057527503189 1201.5405197143555)">14-Apr</text>
		</g>
		<g>
			<text fill="#595959" font-family="Verdana,Open Sans,DejaVu Sans,sans-serif" font-weight="400" font-size="41" transform="matrix(6.12323e-17 -1 1 6.12323e-17 3771.3713279257017 1214.75341796875)">12-May</text>
		</g>
		<g>
			<text fill="#595959" font-family="Verdana,Open Sans,DejaVu Sans,sans-serif" font-weight="400" font-size="41" transform="matrix(6.12323e-17 -1 1 6.12323e-17 3857.483956473214 1192.2914962768555)">16-Jun</text>
		</g>
		<g>
			<text fill="#595959" font-family="Verdana,Open Sans,DejaVu Sans,sans-serif" font-weight="400" font-size="41" transform="matrix(6.12323e-17 -1 1 6.12323e-17 3945.398342833227 1177.2768478393555)">14-Jul</text>
		</g>
		<g>
			<text fill="#595959" font-family="Verdana,Open Sans,DejaVu Sans,sans-serif" font-weight="400" font-size="41" transform="matrix(6.12323e-17 -1 1 6.12323e-17 4032.7722018494896 1206.90576171875)">11-Aug</text>
		</g>
		<g>
			<text fill="#595959" font-family="Verdana,Open Sans,DejaVu Sans,sans-serif" font-weight="400" font-size="41" transform="matrix(6.12323e-17 -1 1 6.12323e-17 4120.126041334503 1204.38330078125)">08-Sep</text>
		</g>
		<g>
			<text fill="#595959" font-family="Verdana,Open Sans,DejaVu Sans,sans-serif" font-weight="400" font-size="41" transform="matrix(6.12323e-17 -1 1 6.12323e-17 4202.5851054288905 1201.1000900268555)">06-Oct</text>
		</g>
		<g>
			<text fill="#595959" font-family="Verdana,Open Sans,DejaVu Sans,sans-serif" font-weight="400" font-size="41" transform="matrix(6.12323e-17 -1 1 6.12323e-17 4289.7687788982785 1211.43017578125)">03-Nov</text>
		</g>
		<g>
			<text fill="#595959" font-family="Verdana,Open Sans,DejaVu Sans,sans-serif" font-weight="400" font-size="41" transform="matrix(1 0 0 1 3169.14111328125 1050)">0</text>
		</g>
		<g>
			<text fill="#595959" font-family="Verdana,Open Sans,DejaVu Sans,sans-serif" font-weight="400" font-size="41" transform="matrix(1 0 0 1 3088.7626953125 922)">3,179</text>
		</g>
		<g>
			<text fill="#595959" font-family="Verdana,Open Sans,DejaVu Sans,sans-serif" font-weight="400" font-size="41" transform="matrix(1 0 0 1 3089.10302734375 794)">6,357</text>
		</g>
		<g>
			<text fill="#595959" font-family="Verdana,Open Sans,DejaVu Sans,sans-serif" font-weight="400" font-size="41" transform="matrix(1 0 0 1 3088.802734375 666)">9,536</text>
		</g>
		<g>
			<text fill="#595959" font-family="Verdana,Open Sans,DejaVu Sans,sans-serif" font-weight="400" font-size="41" transform="matrix(1 0 0 1 3065.8203201293945 538)">12,714</text>
		</g>
		<g>
			<text fill="#595959" font-family="Verdana,Open Sans,DejaVu Sans,sans-serif" font-weight="400" font-size="41" transform="matrix(1 0 0 1 3067.4018630981445 410)">15,893</text>
		</g>
		<g>
			<text fill="#595959" font-family="Verdana,Open Sans,DejaVu Sans,sans-serif" font-weight="400" font-size="41" transform="matrix(1 0 0 1 3556.97119140625 1321)">Week Commencing</text>
		</g>
		<g>
			<text fill="#595959" font-family="Verdana,Open Sans,DejaVu Sans,sans-serif" font-weight="400" font-size="46" transform="matrix(6.12323e-17 -1 1 6.12323e-17 3019.73 1011.673828125)">Number of Browser Profiles</text>
		</g>
		<rect x="2918.5" y="347.5" width="1760" height="1043" stroke="#D9D9D9" stroke-width="3.4375" stroke-linejoin="round" stroke-miterlimit="10" fill="none" />
		<g>
			<path d="M3228.5 1038 3250.295918367347 1038 3272.091836734694 1038 3293.887755102041 1038 3315.683673469388 1038 3337.4795918367345 1038 3359.2755102040815 1038 3381.0714285714284 1038 3402.8673469387754 1038 3424.6632653061224 1038 3446.4591836734694 1038 3468.2551020408164 1038 3490.0510204081634 1038 3511.8469387755104 1038 3533.6428571428573 1038 3555.4387755102043 1038 3577.234693877551 1038 3599.030612244898 1038 3620.826530612245 1038 3642.622448979592 1038 3664.418367346939 1038 3686.214285714286 1038 3708.0102040816328 1038 3729.8061224489797 1038 3751.6020408163267 1038 3773.3979591836733 1038 3795.1938775510203 1038 3816.9897959183672 1038 3838.785714285714 1038 3860.581632653061 1038 3882.377551020408 1038 3904.173469387755 1038 3925.969387755102 1038 3947.765306122449 1038 3969.5612244897957 1038 3991.357142857143 1038 4013.1530612244896 1038 4034.9489795918366 1038 4056.7448979591836 1038 4078.5408163265306 1038 4100.336734693878 1038 4122.132653061224 1038 4143.928571428572 1038 4165.724489795918 1038 4187.5204081632655 1038 4209.316326530612 1038 4231.1122448979595 1038 4252.908163265306 1038 4274.7040816326535 1038 4296.5 1038 4296.5 532.8216195809476 4274.7040816326535 534.3115837161015 4252.908163265306 534.915623230353 4231.1122448979595 536.2847794626566 4209.316326530612 536.4055873655068 4187.5204081632655 537.2915119864092 4165.724489795918 538.3385138111119 4143.928571428572 539.6674007424654 4122.132653061224 540.3922481595671 4100.336734693878 541.0365569747688 4078.5408163265306 542.3251746051722 4056.7448979591836 543.1708299251243 4034.9489795918366 544.0970238469768 4013.1530612244896 545.1037563707293 3991.357142857143 545.9091423897314 3969.5612244897957 546.6742591077833 3947.765306122449 547.5601837286856 3925.969387755102 547.9628767381867 3904.173469387755 548.9696092619392 3882.377551020408 550.2984961932927 3860.581632653061 550.9025357075443 3838.785714285714 552.0703454350972 3816.9897959183672 553.4395016674008 3795.1938775510203 555.0905430063551 3773.3979591836733 556.2180834329579 3751.6020408163267 557.3053545586108 3729.8061224489797 558.2315484804631 3708.0102040816328 559.0772038004153 3686.214285714286 560.0436670232178 3664.418367346939 560.9295916441201 3642.622448979592 562.4195557792739 3620.826530612245 563.0638645944756 3599.030612244898 563.7081734096773 3577.234693877551 564.4732901277292 3555.4387755102043 565.560561253382 3533.6428571428573 566.6881016799849 3511.8469387755104 567.5740263008872 3490.0510204081634 568.1377965141887 3468.2551020408164 569.0639904360411 3446.4591836734694 570.4331466683445 3424.6632653061224 571.0371861825961 3402.8673469387754 571.721764298748 3381.0714285714284 572.2049959101491 3359.2755102040815 572.9298433272511 3337.4795918367345 573.4130749386522 3315.683673469388 573.694960045303 3293.887755102041 574.6211539671554 3272.091836734694 575.3057320833071 3250.295918367347 576.835965519411 3228.5 577.8426980431636 3228.5 1038Z" fill="#005aa6" opacity="0.9" />
		</g>
		<g>
			<path d="M3228.5 577.8426980431636 3250.295918367347 576.835965519411 3272.091836734694 575.3057320833071 3293.887755102041 574.6211539671554 3315.683673469388 573.694960045303 3337.4795918367345 573.4130749386522 3359.2755102040815 572.9298433272511 3381.0714285714284 572.2049959101491 3402.8673469387754 571.721764298748 3424.6632653061224 571.0371861825961 3446.4591836734694 570.4331466683445 3468.2551020408164 569.0639904360411 3490.0510204081634 568.1377965141887 3511.8469387755104 567.5740263008872 3533.6428571428573 566.6881016799849 3555.4387755102043 565.560561253382 3577.234693877551 564.4732901277292 3599.030612244898 563.7081734096773 3620.826530612245 563.0638645944756 3642.622448979592 562.4195557792739 3664.418367346939 560.9295916441201 3686.214285714286 560.0436670232178 3708.0102040816328 559.0772038004153 3729.8061224489797 558.2315484804631 3751.6020408163267 557.3053545586108 3773.3979591836733 556.2180834329579 3795.1938775510203 555.0905430063551 3816.9897959183672 553.4395016674008 3838.785714285714 552.0703454350972 3860.581632653061 550.9025357075443 3882.377551020408 550.2984961932927 3904.173469387755 548.9696092619392 3925.969387755102 547.9628767381867 3947.765306122449 547.5601837286856 3969.5612244897957 546.6742591077833 3991.357142857143 545.9091423897314 4013.1530612244896 545.1037563707293 4034.9489795918366 544.0970238469768 4056.7448979591836 543.1708299251243 4078.5408163265306 542.3251746051722 4100.336734693878 541.0365569747688 4122.132653061224 540.3922481595671 4143.928571428572 539.6674007424654 4165.724489795918 538.3385138111119 4187.5204081632655 537.2915119864092 4209.316326530612 536.4055873655068 4231.1122448979595 536.2847794626566 4252.908163265306 534.915623230353 4274.7040816326535 534.3115837161015 4296.5 532.8216195809476 4296.5 398.00000000000006 4274.7040816326535 399.6510413389543 4252.908163265306 400.4564273579564 4231.1122448979595 401.9866607940604 4209.316326530612 402.14773799786065 4187.5204081632655 403.3155477254138 4165.724489795918 404.48335745296674 4143.928571428572 406.01359088907077 4122.132653061224 406.89951550997296 4100.336734693878 407.7049015289751 4078.5408163265306 409.0740577612786 4056.7448979591836 410.12105958598124 4034.9489795918366 411.12779210973395 4013.1530612244896 412.4969483420375 3991.357142857143 413.38287296293976 3969.5612244897957 414.3896054866923 3947.765306122449 415.3963380104449 3925.969387755102 416.08091612659666 3904.173469387755 417.40980305795006 3882.377551020408 418.9400364940541 3860.581632653061 419.6648839111559 3838.785714285714 420.9535015415592 3816.9897959183672 422.4434656767131 3795.1938775510203 424.65827722896887 3773.3979591836733 425.98716416032215 3751.6020408163267 427.3160510916757 3729.8061224489797 428.40332221732837 3708.0102040816328 429.36978544013095 3686.214285714286 430.537595167684 3664.418367346939 431.58459699238665 3642.622448979592 433.2759076322909 3620.826530612245 434.12156295224315 3599.030612244898 434.8464103693451 3577.234693877551 435.7323349902473 3555.4387755102043 437.141760523501 3533.6428571428573 438.3901088529542 3511.8469387755104 439.3968413767068 3490.0510204081634 440.2022273957089 3468.2551020408164 441.3700371232619 3446.4591836734694 442.90027055936577 3424.6632653061224 443.6653872774177 3402.8673469387754 444.59158119927025 3381.0714285714284 445.2761593154219 3359.2755102040815 446.12181463537416 3337.4795918367345 446.64531554772543 3315.683673469388 446.9272006543762 3293.887755102041 448.01447178002894 3272.091836734694 448.90039640093124 3250.295918367347 450.7125149436859 3228.5 451.9608632731391 3228.5 577.8426980431636Z" fill="#e62d39" opacity="0.9" />
		</g>
		<g>
			<rect x="4372" y="431" width="22.9995" height="23" fill="#005aa6" />
		</g>
		<g>
			<text fill="#595959" font-family="Verdana,Open Sans,DejaVu Sans,sans-serif" font-weight="400" font-size="41" transform="matrix(1 0 0 1 4404.56 454)">Web Browser</text>
		</g>
		<g>
			<rect x="4372" y="508" width="22.9995" height="23" fill="#e62d39" />
		</g>
		<g>
			<text fill="#595959" font-family="Verdana,Open Sans,DejaVu Sans,sans-serif" font-weight="400" font-size="41" transform="matrix(1 0 0 1 4404.56 531)">App</text>
		</g>
	</g>
</svg>
