<svg width="1763" height="1046"
    xmlns="http://www.w3.org/2000/svg"
	xmlns:xlink="http://www.w3.org/1999/xlink" xml:space="preserve" overflow="hidden">
	<defs>
		<clipPath id="clip0">
			<rect x="2917" y="346" width="1763" height="1046"/>
		</clipPath>
	</defs>
	<g clip-path="url(#clip0)" transform="translate(-2917 -346)">
		<rect x="2918" y="347" width="1760" height="1043" fill="#FFFFFF" />
		<g>
			<path d="
			M3228.5 974.532 4296.5 974.532
			M3228.5 910.53 4296.5 910.53
			M3228.5 846.528 4296.5 846.528
			M3228.5 781.526 4296.5 781.526
			M3228.5 717.524 4296.5 717.524
			M3228.5 653.522 4296.5 653.522
			M3228.5 589.52 4296.5 589.52
			M3228.5 525.517 4296.5 525.517
			M3228.5 461.515 4296.5 461.515
			M3228.5 397.5 4296.5 397.5" stroke="#D9D9D9" stroke-width="3.4375" stroke-linejoin="round" stroke-miterlimit="10" fill="none" />
		</g>
		<g>
			<path d="M 1038.5 4296.5 1038.5" stroke="#D9D9D9" stroke-width="3.4375" stroke-linejoin="round" stroke-miterlimit="10" fill="none" fill-rule="evenodd" />
		</g>
		<g>
			<text fill="#595959" font-family="Verdana,Open Sans,DejaVu Sans,sans-serif" font-weight="400" font-size="41" transform="matrix(6.12323e-17 -1 1 6.12323e-17 3248.269287109375 1206.90576171875)">19-Aug</text>
		</g>
		<g>
			<text fill="#595959" font-family="Verdana,Open Sans,DejaVu Sans,sans-serif" font-weight="400" font-size="41" transform="matrix(6.12323e-17 -1 1 6.12323e-17 3335.452960578763 1202.66162109375)">16-Sep</text>
		</g>
		<g>
			<text fill="#595959" font-family="Verdana,Open Sans,DejaVu Sans,sans-serif" font-weight="400" font-size="41" transform="matrix(6.12323e-17 -1 1 6.12323e-17 3417.9320442044004 1199.3784103393555)">14-Oct</text>
		</g>
		<g>
			<text fill="#595959" font-family="Verdana,Open Sans,DejaVu Sans,sans-serif" font-weight="400" font-size="41" transform="matrix(6.12323e-17 -1 1 6.12323e-17 3504.8854930644134 1209.70849609375)">11-Nov</text>
		</g>
		<g>
			<text fill="#595959" font-family="Verdana,Open Sans,DejaVu Sans,sans-serif" font-weight="400" font-size="41" transform="matrix(6.12323e-17 -1 1 6.12323e-17 3592.279371611926 1205.3642578125)">16-Dec</text>
		</g>
		<g>
			<text fill="#595959" font-family="Verdana,Open Sans,DejaVu Sans,sans-serif" font-weight="400" font-size="41" transform="matrix(6.12323e-17 -1 1 6.12323e-17 3683.116609534439 1189.9291915893555)">13-Jan</text>
		</g>
		<g>
			<text fill="#595959" font-family="Verdana,Open Sans,DejaVu Sans,sans-serif" font-weight="400" font-size="41" transform="matrix(6.12323e-17 -1 1 6.12323e-17 3767.3774314413267 1201.3203125)">10-Feb</text>
		</g>
		<g>
			<text fill="#595959" font-family="Verdana,Open Sans,DejaVu Sans,sans-serif" font-weight="400" font-size="41" transform="matrix(6.12323e-17 -1 1 6.12323e-17 3853.850411551339 1210.2890625)">10-Mar</text>
		</g>
		<g>
			<text fill="#595959" font-family="Verdana,Open Sans,DejaVu Sans,sans-serif" font-weight="400" font-size="41" transform="matrix(6.12323e-17 -1 1 6.12323e-17 3945.758694395727 1203.2621994018555)">07-Apr</text>
		</g>
		<g>
			<text fill="#595959" font-family="Verdana,Open Sans,DejaVu Sans,sans-serif" font-weight="400" font-size="41" transform="matrix(6.12323e-17 -1 1 6.12323e-17 4032.9423678651146 1216.47509765625)">05-May</text>
		</g>
		<g>
			<text fill="#595959" font-family="Verdana,Open Sans,DejaVu Sans,sans-serif" font-weight="400" font-size="41" transform="matrix(6.12323e-17 -1 1 6.12323e-17 4119.054996412628 1194.0131759643555)">09-Jun</text>
		</g>
		<g>
			<text fill="#595959" font-family="Verdana,Open Sans,DejaVu Sans,sans-serif" font-weight="400" font-size="41" transform="matrix(6.12323e-17 -1 1 6.12323e-17 4206.9493632413905 1178.9985275268555)">07-Jul</text>
		</g>
		<g>
			<text fill="#595959" font-family="Verdana,Open Sans,DejaVu Sans,sans-serif" font-weight="400" font-size="41" transform="matrix(6.12323e-17 -1 1 6.12323e-17 4294.4933882732785 1208.62744140625)">04-Aug</text>
		</g>
		<g>
			<text fill="#595959" font-family="Verdana,Open Sans,DejaVu Sans,sans-serif" font-weight="400" font-size="41" transform="matrix(1 0 0 1 3169.14111328125 1050)">0</text>
		</g>
		<g>
			<text fill="#595959" font-family="Verdana,Open Sans,DejaVu Sans,sans-serif" font-weight="400" font-size="41" transform="matrix(1 0 0 1 3088.642578125 922)">3,107</text>
		</g>
		<g>
			<text fill="#595959" font-family="Verdana,Open Sans,DejaVu Sans,sans-serif" font-weight="400" font-size="41" transform="matrix(1 0 0 1 3089.42333984375 794)">6,213</text>
		</g>
		<g>
			<text fill="#595959" font-family="Verdana,Open Sans,DejaVu Sans,sans-serif" font-weight="400" font-size="41" transform="matrix(1 0 0 1 3088.8427734375 666)">9,320</text>
		</g>
		<g>
			<text fill="#595959" font-family="Verdana,Open Sans,DejaVu Sans,sans-serif" font-weight="400" font-size="41" transform="matrix(1 0 0 1 3067.0014724731445 538)">12,426</text>
		</g>
		<g>
			<text fill="#595959" font-family="Verdana,Open Sans,DejaVu Sans,sans-serif" font-weight="400" font-size="41" transform="matrix(1 0 0 1 3067.4018630981445 410)">15,533</text>
		</g>
		<g>
			<text fill="#595959" font-family="Verdana,Open Sans,DejaVu Sans,sans-serif" font-weight="400" font-size="41" transform="matrix(1 0 0 1 3556.97119140625 1321)">Week Commencing</text>
		</g>
		<g>
			<text fill="#595959" font-family="Verdana,Open Sans,DejaVu Sans,sans-serif" font-weight="400" font-size="46" transform="matrix(6.12323e-17 -1 1 6.12323e-17 3019.73 1011.673828125)">Number of Browser Profiles</text>
		</g>
		<rect x="2918.5" y="347.5" width="1760" height="1043" stroke="#D9D9D9" stroke-width="3.4375" stroke-linejoin="round" stroke-miterlimit="10" fill="none" />
		<g>
			<path d="M3228.5 1038 3250.295918367347 1038 3272.091836734694 1038 3293.887755102041 1038 3315.683673469388 1038 3337.4795918367345 1038 3359.2755102040815 1038 3381.0714285714284 1038 3402.8673469387754 1038 3424.6632653061224 1038 3446.4591836734694 1038 3468.2551020408164 1038 3490.0510204081634 1038 3511.8469387755104 1038 3533.6428571428573 1038 3555.4387755102043 1038 3577.234693877551 1038 3599.030612244898 1038 3620.826530612245 1038 3642.622448979592 1038 3664.418367346939 1038 3686.214285714286 1038 3708.0102040816328 1038 3729.8061224489797 1038 3751.6020408163267 1038 3773.3979591836733 1038 3795.1938775510203 1038 3816.9897959183672 1038 3838.785714285714 1038 3860.581632653061 1038 3882.377551020408 1038 3904.173469387755 1038 3925.969387755102 1038 3947.765306122449 1038 3969.5612244897957 1038 3991.357142857143 1038 4013.1530612244896 1038 4034.9489795918366 1038 4056.7448979591836 1038 4078.5408163265306 1038 4100.336734693878 1038 4122.132653061224 1038 4143.928571428572 1038 4165.724489795918 1038 4187.5204081632655 1038 4209.316326530612 1038 4231.1122448979595 1038 4252.908163265306 1038 4274.7040816326535 1038 4296.5 1038 4296.5 533.6801648104037 4274.7040816326535 534.5042168286873 4252.908163265306 535.2870662460568 4231.1122448979595 536.1935234661688 4209.316326530612 536.6055494753107 4187.5204081632655 537.6356144981652 4165.724489795918 538.9953003283332 4143.928571428572 539.613339342046 4122.132653061224 540.8082147685573 4100.336734693878 542.2091031996395 4078.5408163265306 543.898409837121 4056.7448979591836 545.052082662718 4034.9489795918366 546.164552887401 4013.1530612244896 547.1122127084273 3991.357142857143 547.977467327625 3969.5612244897957 548.9663297495654 3947.765306122449 549.8727869696775 3925.969387755102 551.3972832035022 3904.173469387755 552.0565248181292 3882.377551020408 552.715766432756 3860.581632653061 553.4986158501256 3838.785714285714 554.6110860748086 3816.9897959183672 555.7647589004056 3795.1938775510203 556.6712161205176 3773.3979591836733 557.2480525333162 3751.6020408163267 558.1957123543424 3729.8061224489797 559.5966007854246 3708.0102040816328 560.2146397991373 3686.214285714286 560.9150840146784 3664.418367346939 561.4095152256486 3642.622448979592 562.1511620421039 3620.826530612245 562.6455932530741 3599.030612244898 562.9340114594734 3577.234693877551 563.8816712804996 3555.4387755102043 564.5821154960406 3533.6428571428573 566.1478143307796 3511.8469387755104 567.1778793536341 3490.0510204081634 567.795918367347 3468.2551020408164 568.4139573810596 3446.4591836734694 569.3204146011717 3424.6632653061224 570.062061417627 3402.8673469387754 570.7625056331681 3381.0714285714284 571.627760252366 3359.2755102040815 572.9462434816198 3337.4795918367345 573.3582694907616 3315.683673469388 574.4295371145304 3293.887755102041 575.3359943346424 3272.091836734694 575.9540333483551 3250.295918367347 576.8604905684672 3228.5 577.3961243803515 3228.5 1038Z" fill="#e62d39" opacity="0.9" />
		</g>
		<g>
			<path d="M3228.5 577.3961243803515 3250.295918367347 576.8604905684672 3272.091836734694 575.9540333483551 3293.887755102041 575.3359943346424 3315.683673469388 574.4295371145304 3337.4795918367345 573.3582694907616 3359.2755102040815 572.9462434816198 3381.0714285714284 571.627760252366 3402.8673469387754 570.7625056331681 3424.6632653061224 570.062061417627 3446.4591836734694 569.3204146011717 3468.2551020408164 568.4139573810596 3490.0510204081634 567.795918367347 3511.8469387755104 567.1778793536341 3533.6428571428573 566.1478143307796 3555.4387755102043 564.5821154960406 3577.234693877551 563.8816712804996 3599.030612244898 562.9340114594734 3620.826530612245 562.6455932530741 3642.622448979592 562.1511620421039 3664.418367346939 561.4095152256486 3686.214285714286 560.9150840146784 3708.0102040816328 560.2146397991373 3729.8061224489797 559.5966007854246 3751.6020408163267 558.1957123543424 3773.3979591836733 557.2480525333162 3795.1938775510203 556.6712161205176 3816.9897959183672 555.7647589004056 3838.785714285714 554.6110860748086 3860.581632653061 553.4986158501256 3882.377551020408 552.715766432756 3904.173469387755 552.0565248181292 3925.969387755102 551.3972832035022 3947.765306122449 549.8727869696775 3969.5612244897957 548.9663297495654 3991.357142857143 547.977467327625 4013.1530612244896 547.1122127084273 4034.9489795918366 546.164552887401 4056.7448979591836 545.052082662718 4078.5408163265306 543.898409837121 4100.336734693878 542.2091031996395 4122.132653061224 540.8082147685573 4143.928571428572 539.613339342046 4165.724489795918 538.9953003283332 4187.5204081632655 537.6356144981652 4209.316326530612 536.6055494753107 4231.1122448979595 536.1935234661688 4252.908163265306 535.2870662460568 4274.7040816326535 534.5042168286873 4296.5 533.6801648104037 4296.5 398 4274.7040816326535 398.906457220112 4252.908163265306 399.93652224296665 4231.1122448979595 400.9665872658212 4209.316326530612 401.6670314813623 4187.5204081632655 403.02671731153026 4165.724489795918 404.5924161462692 4143.928571428572 405.3340629627245 4122.132653061224 406.65254619197833 4100.336734693878 408.1770424258031 4078.5408163265306 410.4431854760832 4056.7448979591836 411.8028713062512 4034.9489795918366 413.1625571364192 4013.1530612244896 414.27502736110216 3991.357142857143 415.26388978304254 3969.5612244897957 416.4587652095538 3947.765306122449 417.5300328333226 3925.969387755102 419.26054207171825 3904.173469387755 420.1257966909162 3882.377551020408 420.8674435073714 3860.581632653061 421.77390072748346 3838.785714285714 423.2159917594799 3816.9897959183672 424.4932723878195 3795.1938775510203 425.523337410674 3773.3979591836733 426.34738942895774 3751.6020408163267 427.54226485546906 3729.8061224489797 429.10796369020795 3708.0102040816328 429.8908131075774 3686.214285714286 430.8384729286036 3664.418367346939 431.53891714414476 3642.622448979592 432.40417176334256 3620.826530612245 432.93980557522696 3599.030612244898 433.2282237816262 3577.234693877551 434.3406940063092 3555.4387755102043 435.2471512264211 3533.6428571428573 437.10126826755936 3511.8469387755104 438.378548895899 3490.0510204081634 439.20260091418277 3468.2551020408164 440.5622867443507 3446.4591836734694 441.6747569690337 3424.6632653061224 442.58121418914567 3402.8673469387754 443.4464688083435 3381.0714285714284 444.43533123028396 3359.2755102040815 445.87742226228033 3337.4795918367345 446.45425867507885 3315.683673469388 447.8139445052469 3293.887755102041 448.9264147299298 3272.091836734694 449.7092641472993 3250.295918367347 450.8217343719823 3228.5 451.43977338569493 3228.5 577.3961243803515Z" fill="#005aa6" opacity="0.9" />
		</g>
		<g>
			<rect x="4372" y="431" width="22.9995" height="23" fill="#e62d39" />
		</g>
		<g>
			<text fill="#595959" font-family="Verdana,Open Sans,DejaVu Sans,sans-serif" font-weight="400" font-size="41" transform="matrix(1 0 0 1 4404.56 454)">Web Browser</text>
		</g>
		<g>
			<rect x="4372" y="508" width="22.9995" height="23" fill="#005aa6" />
		</g>
		<g>
			<text fill="#595959" font-family="Verdana,Open Sans,DejaVu Sans,sans-serif" font-weight="400" font-size="41" transform="matrix(1 0 0 1 4404.56 531)">App</text>
		</g>
	</g>
</svg>
