<svg width="1763" height="1046"
    xmlns="http://www.w3.org/2000/svg"
	xmlns:xlink="http://www.w3.org/1999/xlink" xml:space="preserve" overflow="hidden">
	<defs>
		<clipPath id="clip0">
			<rect x="2917" y="346" width="1763" height="1046"/>
		</clipPath>
	</defs>
	<g clip-path="url(#clip0)" transform="translate(-2917 -346)">
		<rect x="2918" y="347" width="1760" height="1043" fill="#FFFFFF" />
		<g>
			<path d="
			M3228.5 974.532 4296.5 974.532
			M3228.5 910.53 4296.5 910.53
			M3228.5 846.528 4296.5 846.528
			M3228.5 781.526 4296.5 781.526
			M3228.5 717.524 4296.5 717.524
			M3228.5 653.522 4296.5 653.522
			M3228.5 589.52 4296.5 589.52
			M3228.5 525.517 4296.5 525.517
			M3228.5 461.515 4296.5 461.515
			M3228.5 397.5 4296.5 397.5" stroke="#D9D9D9" stroke-width="3.4375" stroke-linejoin="round" stroke-miterlimit="10" fill="none" />
		</g>
		<g>
			<path d="M 1038.5 4296.5 1038.5" stroke="#D9D9D9" stroke-width="3.4375" stroke-linejoin="round" stroke-miterlimit="10" fill="none" fill-rule="evenodd" />
		</g>
		<g>
			<text fill="#595959" font-family="Verdana,sans-serif" font-weight="400" font-size="41" transform="matrix(6.12323e-17 -1 1 6.12323e-17 3244.5 1210)">22-Jan</text>
		</g>
		<g>
			<text fill="#595959" font-family="Verdana,sans-serif" font-weight="400" font-size="41" transform="matrix(6.12323e-17 -1 1 6.12323e-17 3329.94 1214)">19-Feb</text>
		</g>
		<g>
			<text fill="#595959" font-family="Verdana,sans-serif" font-weight="400" font-size="41" transform="matrix(6.12323e-17 -1 1 6.12323e-17 3415.38 1221)">18-Mar</text>
		</g>
		<g>
			<text fill="#595959" font-family="Verdana,sans-serif" font-weight="400" font-size="41" transform="matrix(6.12323e-17 -1 1 6.12323e-17 3504.32 1214)">15-Apr</text>
		</g>
		<g>
			<text fill="#595959" font-family="Verdana,sans-serif" font-weight="400" font-size="41" transform="matrix(6.12323e-17 -1 1 6.12323e-17 3589.76 1226)">13-May</text>
		</g>
		<g>
			<text fill="#595959" font-family="Verdana,sans-serif" font-weight="400" font-size="41" transform="matrix(6.12323e-17 -1 1 6.12323e-17 3671.7 1209)">10-Jun</text>
		</g>
		<g>
			<text fill="#595959" font-family="Verdana,sans-serif" font-weight="400" font-size="41" transform="matrix(6.12323e-17 -1 1 6.12323e-17 3757.14 1197)">08-Jul</text>
		</g>
		<g>
			<text fill="#595959" font-family="Verdana,sans-serif" font-weight="400" font-size="41" transform="matrix(6.12323e-17 -1 1 6.12323e-17 3846.08 1221)">05-Aug</text>
		</g>
		<g>
			<text fill="#595959" font-family="Verdana,sans-serif" font-weight="400" font-size="41" transform="matrix(6.12323e-17 -1 1 6.12323e-17 3931.52 1222)">02-Sep</text>
		</g>
		<g>
			<text fill="#595959" font-family="Verdana,sans-serif" font-weight="400" font-size="41" transform="matrix(6.12323e-17 -1 1 6.12323e-17 4016.96 1221)">30-Sep</text>
		</g>
		<g>
			<text fill="#595959" font-family="Verdana,sans-serif" font-weight="400" font-size="41" transform="matrix(6.12323e-17 -1 1 6.12323e-17 4098.9 1215)">28-Oct</text>
		</g>
		<g>
			<text fill="#595959" font-family="Verdana,sans-serif" font-weight="400" font-size="41" transform="matrix(6.12323e-17 -1 1 6.12323e-17 4184.34 1224)">25-Nov</text>
		</g>
		<g>
			<text fill="#595959" font-family="Verdana,sans-serif" font-weight="400" font-size="41" transform="matrix(6.12323e-17 -1 1 6.12323e-17 4269.78 1222)">30-Dec</text>
		</g>
		<g>
			<text fill="#595959" font-family="Verdana,sans-serif" font-weight="400" font-size="41" transform="matrix(1 0 0 1 3167.5 1050)">0</text>
		</g>
		<g>
			<text fill="#595959" font-family="Verdana,sans-serif" font-weight="400" font-size="41" transform="matrix(1 0 0 1 3074.5 922)">2,944</text>
		</g>
		<g>
			<text fill="#595959" font-family="Verdana,sans-serif" font-weight="400" font-size="41" transform="matrix(1 0 0 1 3075.5 794)">5,888</text>
		</g>
		<g>
			<text fill="#595959" font-family="Verdana,sans-serif" font-weight="400" font-size="41" transform="matrix(1 0 0 1 3075.5 666)">8,831</text>
		</g>
		<g>
			<text fill="#595959" font-family="Verdana,sans-serif" font-weight="400" font-size="41" transform="matrix(1 0 0 1 3051.5 538)">11,775</text>
		</g>
		<g>
			<text fill="#595959" font-family="Verdana,sans-serif" font-weight="400" font-size="41" transform="matrix(1 0 0 1 3051.5 410)">14,719</text>
		</g>
		<g>
			<text fill="#595959" font-family="Verdana,sans-serif" font-weight="400" font-size="41" transform="matrix(1 0 0 1 3544.5 1321)">Week Commencing</text>
		</g>
		<g>
			<text fill="#595959" font-family="Verdana,sans-serif" font-weight="400" font-size="46" transform="matrix(6.12323e-17 -1 1 6.12323e-17 3019.73 1030.75)">Number of Browser Profiles</text>
		</g>
		<rect x="2918.5" y="347.5" width="1760" height="1043" stroke="#D9D9D9" stroke-width="3.4375" stroke-linejoin="round" stroke-miterlimit="10" fill="none" />
		<g>
			<path d="M3228.5 1038 3249.86 1038 3271.22 1038 3292.58 1038 3313.94 1038 3335.3 1038 3356.66 1038 3378.02 1038 3399.38 1038 3420.74 1038 3442.1 1038 3463.46 1038 3484.82 1038 3506.18 1038 3527.54 1038 3548.9 1038 3570.26 1038 3591.62 1038 3612.98 1038 3634.34 1038 3655.7 1038 3677.06 1038 3698.42 1038 3719.7799999999997 1038 3741.14 1038 3762.5 1038 3783.86 1038 3805.2200000000003 1038 3826.58 1038 3847.94 1038 3869.3 1038 3890.66 1038 3912.02 1038 3933.38 1038 3954.74 1038 3976.1 1038 3997.46 1038 4018.8199999999997 1038 4040.18 1038 4061.54 1038 4082.9 1038 4104.26 1038 4125.62 1038 4146.98 1038 4168.34 1038 4189.7 1038 4211.0599999999995 1038 4232.42 1038 4253.78 1038 4275.139999999999 1038 4296.5 1038 4296.5 535.0527889122902 4275.139999999999 535.8354507779061 4253.78 536.3572253549834 4232.42 536.6615938582784 4211.0599999999995 537.6616617976765 4189.7 538.400842448536 4168.34 540.0531286092805 4146.98 541.1401589781915 4125.62 541.792377199538 4104.26 542.4445954208845 4082.9 543.4011821455263 4061.54 544.1838440111421 4040.18 544.9230246620016 4018.8199999999997 545.8361301718867 3997.46 547.2275290440928 3976.1 547.6623411916571 3954.74 548.7928527753245 3933.38 549.749439499966 3912.02 550.4016577213126 3890.66 551.3582444459541 3869.3 551.923500237788 3847.94 552.5322372443779 3826.58 553.4888239690197 3805.2200000000003 554.314967049392 3783.86 555.0976289150078 3762.5 555.6628847068415 3741.14 556.0976968544059 3719.7799999999997 556.5325090019703 3698.42 557.5760581561248 3677.06 558.3152388069841 3655.7 559.0544194578436 3634.34 560.1849310415109 3612.98 561.2719614104219 3591.62 562.27202934982 3570.26 562.7503227121408 3548.9 563.3155785039744 3527.54 564.0112779400774 3506.18 565.3157143827706 3484.82 566.4897071811944 3463.46 567.6636999796182 3442.1 569.0985800665806 3420.74 570.1856104354915 3399.38 571.1856783748897 3378.02 572.2292275290441 3356.66 573.5771451864937 3335.3 575.794687139072 3313.94 576.2294992866364 3292.58 576.5773490046879 3271.22 578.4470412392146 3249.86 580.3602146884979 3228.5 580.8819892655752 3228.5 1038Z" fill="#e62d39" opacity="0.9" />
		</g>
		<g>
			<path d="M3228.5 580.8819892655752 3249.86 580.3602146884979 3271.22 578.4470412392146 3292.58 576.5773490046879 3313.94 576.2294992866364 3335.3 575.794687139072 3356.66 573.5771451864937 3378.02 572.2292275290441 3399.38 571.1856783748897 3420.74 570.1856104354915 3442.1 569.0985800665806 3463.46 567.6636999796182 3484.82 566.4897071811944 3506.18 565.3157143827706 3527.54 564.0112779400774 3548.9 563.3155785039744 3570.26 562.7503227121408 3591.62 562.27202934982 3612.98 561.2719614104219 3634.34 560.1849310415109 3655.7 559.0544194578436 3677.06 558.3152388069841 3698.42 557.5760581561248 3719.7799999999997 556.5325090019703 3741.14 556.0976968544059 3762.5 555.6628847068415 3783.86 555.0976289150078 3805.2200000000003 554.314967049392 3826.58 553.4888239690197 3847.94 552.5322372443779 3869.3 551.923500237788 3890.66 551.3582444459541 3912.02 550.4016577213126 3933.38 549.749439499966 3954.74 548.7928527753245 3976.1 547.6623411916571 3997.46 547.2275290440928 4018.8199999999997 545.8361301718867 4040.18 544.9230246620016 4061.54 544.1838440111421 4082.9 543.4011821455263 4104.26 542.4445954208845 4125.62 541.792377199538 4146.98 541.1401589781915 4168.34 540.0531286092805 4189.7 538.400842448536 4211.0599999999995 537.6616617976765 4232.42 536.6615938582784 4253.78 536.3572253549834 4275.139999999999 535.8354507779061 4296.5 535.0527889122902 4296.5 398 4275.139999999999 398.91310550988516 4253.78 399.4783613017189 4232.42 399.7827298050139 4211.0599999999995 400.9567226034378 4189.7 401.91330932807944 4168.34 403.86996399211904 4146.98 405.21788164956865 4125.62 406.08750594469734 4104.26 407.5223860316597 4082.9 408.69637883008363 4061.54 409.65296555472526 4040.18 410.56607106461047 4018.8199999999997 411.60962021876486 3997.46 413.13146273524023 3976.1 413.74019974183034 3954.74 415.17507982879283 3933.38 416.3490726272165 3912.02 417.1752157075889 3890.66 418.3492085060126 3869.3 419.0014267273592 3847.94 419.9145322372443 3826.58 420.9580813913989 3805.2200000000003 421.9581493307969 3783.86 422.8712548406821 3762.5 423.4365106325158 3741.14 423.958285209593 3719.7799999999997 424.69746586045255 3698.42 425.91493987363276 3677.06 426.82804538351786 3655.7 427.7846321081595 3634.34 429.2195121951219 3612.98 430.52394863781507 3591.62 431.6544602214824 3570.26 432.306678442829 3548.9 433.00237787893195 3527.54 433.8285209593043 3506.18 435.35036347577966 3484.82 436.7417623479856 3463.46 438.1331612201916 3442.1 439.82892859569256 3420.74 441.1333650383857 3399.38 442.742169984374 3378.02 444.3074937156057 3356.66 445.6988925878117 3335.3 448.1773218289287 3313.94 448.65561519124947 3292.58 449.17738976832675 3271.22 451.30796929139206 3249.86 453.35158638494465 3228.5 454.0038046062912 3228.5 580.8819892655752Z" fill="#005aa6" opacity="0.9" />
		</g>
		<g>
			<rect x="4372" y="431" width="22.9995" height="23" fill="#e62d39" />
		</g>
		<g>
			<text fill="#595959" font-family="Verdana,sans-serif" font-weight="400" font-size="41" transform="matrix(1 0 0 1 4404.56 454)">Web Browser</text>
		</g>
		<g>
			<rect x="4372" y="508" width="22.9995" height="23" fill="#005aa6" />
		</g>
		<g>
			<text fill="#595959" font-family="Verdana,sans-serif" font-weight="400" font-size="41" transform="matrix(1 0 0 1 4404.56 531)">App</text>
		</g>
	</g>
</svg>
