<svg width="1763" height="1046"
    xmlns="http://www.w3.org/2000/svg"
	xmlns:xlink="http://www.w3.org/1999/xlink" xml:space="preserve" overflow="hidden">
	<defs>
		<clipPath id="clip0">
			<rect x="2917" y="346" width="1763" height="1046"/>
		</clipPath>
	</defs>
	<g clip-path="url(#clip0)" transform="translate(-2917 -346)">
		<rect x="2918" y="347" width="1760" height="1043" fill="#FFFFFF" />
		<g>
			<path d="
			M3228.5 974.532 4296.5 974.532
			M3228.5 910.53 4296.5 910.53
			M3228.5 846.528 4296.5 846.528
			M3228.5 781.526 4296.5 781.526
			M3228.5 717.524 4296.5 717.524
			M3228.5 653.522 4296.5 653.522
			M3228.5 589.52 4296.5 589.52
			M3228.5 525.517 4296.5 525.517
			M3228.5 461.515 4296.5 461.515
			M3228.5 397.5 4296.5 397.5" stroke="#D9D9D9" stroke-width="3.4375" stroke-linejoin="round" stroke-miterlimit="10" fill="none" />
		</g>
		<g>
			<path d="M 1038.5 4296.5 1038.5" stroke="#D9D9D9" stroke-width="3.4375" stroke-linejoin="round" stroke-miterlimit="10" fill="none" fill-rule="evenodd" />
		</g>
		<g>
			<text fill="#595959" font-family="Verdana,sans-serif" font-weight="400" font-size="41" transform="matrix(6.12323e-17 -1 1 6.12323e-17 3244.5 1225)">06-Nov</text>
		</g>
		<g>
			<text fill="#595959" font-family="Verdana,sans-serif" font-weight="400" font-size="41" transform="matrix(6.12323e-17 -1 1 6.12323e-17 3326.653846153846 1224)">20-Nov</text>
		</g>
		<g>
			<text fill="#595959" font-family="Verdana,sans-serif" font-weight="400" font-size="41" transform="matrix(6.12323e-17 -1 1 6.12323e-17 3408.8076923076924 1223)">04-Dec</text>
		</g>
		<g>
			<text fill="#595959" font-family="Verdana,sans-serif" font-weight="400" font-size="41" transform="matrix(6.12323e-17 -1 1 6.12323e-17 3490.9615384615386 1220)">18-Dec</text>
		</g>
		<g>
			<text fill="#595959" font-family="Verdana,sans-serif" font-weight="400" font-size="41" transform="matrix(6.12323e-17 -1 1 6.12323e-17 3573.1153846153848 1210)">01-Jan</text>
		</g>
		<g>
			<text fill="#595959" font-family="Verdana,sans-serif" font-weight="400" font-size="41" transform="matrix(6.12323e-17 -1 1 6.12323e-17 3654.769230769231 1207)">15-Jan</text>
		</g>
		<g>
			<text fill="#595959" font-family="Verdana,sans-serif" font-weight="400" font-size="41" transform="matrix(6.12323e-17 -1 1 6.12323e-17 3737.423076923077 1210)">29-Jan</text>
		</g>
		<g>
			<text fill="#595959" font-family="Verdana,sans-serif" font-weight="400" font-size="41" transform="matrix(6.12323e-17 -1 1 6.12323e-17 3819.576923076923 1214)">12-Feb</text>
		</g>
		<g>
			<text fill="#595959" font-family="Verdana,sans-serif" font-weight="400" font-size="41" transform="matrix(6.12323e-17 -1 1 6.12323e-17 3901.7307692307695 1216)">26-Feb</text>
		</g>
		<g>
			<text fill="#595959" font-family="Verdana,sans-serif" font-weight="400" font-size="41" transform="matrix(6.12323e-17 -1 1 6.12323e-17 3983.3846153846152 1221)">11-Mar</text>
		</g>
		<g>
			<text fill="#595959" font-family="Verdana,sans-serif" font-weight="400" font-size="41" transform="matrix(6.12323e-17 -1 1 6.12323e-17 4066.038461538462 1223)">25-Mar</text>
		</g>
		<g>
			<text fill="#595959" font-family="Verdana,sans-serif" font-weight="400" font-size="41" transform="matrix(6.12323e-17 -1 1 6.12323e-17 4151.692307692308 1217)">08-Apr</text>
		</g>
		<g>
			<text fill="#595959" font-family="Verdana,sans-serif" font-weight="400" font-size="41" transform="matrix(6.12323e-17 -1 1 6.12323e-17 4233.846153846154 1216)">22-Apr</text>
		</g>
		<g>
			<text fill="#595959" font-family="Verdana,sans-serif" font-weight="400" font-size="41" transform="matrix(6.12323e-17 -1 1 6.12323e-17 4316 1228)">06-May</text>
		</g>
		<g>
			<text fill="#595959" font-family="Verdana,sans-serif" font-weight="400" font-size="41" transform="matrix(1 0 0 1 3123.5 1050)">0%</text>
		</g>
		<g>
			<text fill="#595959" font-family="Verdana,sans-serif" font-weight="400" font-size="41" transform="matrix(1 0 0 1 3097.5 922)">20%</text>
		</g>
		<g>
			<text fill="#595959" font-family="Verdana,sans-serif" font-weight="400" font-size="41" transform="matrix(1 0 0 1 3096.5 794)">40%</text>
		</g>
		<g>
			<text fill="#595959" font-family="Verdana,sans-serif" font-weight="400" font-size="41" transform="matrix(1 0 0 1 3097.5 666)">60%</text>
		</g>
		<g>
			<text fill="#595959" font-family="Verdana,sans-serif" font-weight="400" font-size="41" transform="matrix(1 0 0 1 3097.5 538)">80%</text>
		</g>
		<g>
			<text fill="#595959" font-family="Verdana,sans-serif" font-weight="400" font-size="41" transform="matrix(1 0 0 1 3074.5 410)">100%</text>
		</g>
		<g>
			<text fill="#595959" font-family="Verdana,sans-serif" font-weight="400" font-size="41" transform="matrix(1 0 0 1 3544.5 1321)">Week Commencing</text>
		</g>
		<g>
			<text fill="#595959" font-family="Verdana,sans-serif" font-weight="400" font-size="46" transform="matrix(6.12323e-17 -1 1 6.12323e-17 3019.73 965.25)">Requests (% of Total)</text>
		</g>
		<rect x="2918.5" y="347.5" width="1760" height="1043" stroke="#D9D9D9" stroke-width="3.4375" stroke-linejoin="round" stroke-miterlimit="10" fill="none" />
		<g>
			<path d="M3228.5 1038 3269.576923076923 1038 3310.653846153846 1038 3351.730769230769 1038 3392.8076923076924 1038 3433.8846153846152 1038 3474.9615384615386 1038 3516.0384615384614 1038 3557.1153846153848 1038 3598.1923076923076 1038 3639.269230769231 1038 3680.346153846154 1038 3721.423076923077 1038 3762.5 1038 3803.576923076923 1038 3844.653846153846 1038 3885.7307692307695 1038 3926.8076923076924 1038 3967.8846153846152 1038 4008.9615384615386 1038 4050.038461538462 1038 4091.1153846153848 1038 4132.192307692308 1038 4173.2692307692305 1038 4214.346153846154 1038 4255.423076923077 1038 4296.5 1038 4296.5 694.1125422243633 4255.423076923077 694.1000133322768 4214.346153846154 694.3187105935212 4173.2692307692305 693.6205909506452 4132.192307692308 692.0050611605195 4091.1153846153848 690.3198452220047 4050.038461538462 688.7547930560947 4008.9615384615386 684.6952509793664 3967.8846153846152 679.1608039260515 3926.8076923076924 679.6019256256711 3885.7307692307695 682.3213957841157 3844.653846153846 684.5298935912222 3803.576923076923 686.5899201687104 3762.5 685.5922828206933 3721.423076923077 684.727262331711 3680.346153846154 682.4804542973092 3639.269230769231 682.4034608977785 3598.1923076923076 678.1494953370828 3557.1153846153848 677.8971563273623 3516.0384615384614 676.2533828137863 3474.9615384615386 675.2989091940677 3433.8846153846152 677.8919622242556 3392.8076923076924 674.1657790475881 3351.730769230769 672.9058970371336 3310.653846153846 672.3854431659599 3269.576923076923 672.4810692266187 3228.5 688.8585875798008 3228.5 1038Z" fill="#e62d39" opacity="0.9" />
		</g>
		<g>
			<path d="M3228.5 688.8585875798008 3269.576923076923 672.4810692266187 3310.653846153846 672.3854431659599 3351.730769230769 672.9058970371336 3392.8076923076924 674.1657790475881 3433.8846153846152 677.8919622242556 3474.9615384615386 675.2989091940677 3516.0384615384614 676.2533828137863 3557.1153846153848 677.8971563273623 3598.1923076923076 678.1494953370828 3639.269230769231 682.4034608977785 3680.346153846154 682.4804542973092 3721.423076923077 684.727262331711 3762.5 685.5922828206933 3803.576923076923 686.5899201687104 3844.653846153846 684.5298935912222 3885.7307692307695 682.3213957841157 3926.8076923076924 679.6019256256711 3967.8846153846152 679.1608039260515 4008.9615384615386 684.6952509793664 4050.038461538462 688.7547930560947 4091.1153846153848 690.3198452220047 4132.192307692308 692.0050611605195 4173.2692307692305 693.6205909506452 4214.346153846154 694.3187105935212 4255.423076923077 694.1000133322768 4296.5 694.1125422243633 4296.5 434.50854774480695 4255.423076923077 434.2228656036452 4214.346153846154 433.89359402287107 4173.2692307692305 433.6904179753529 4132.192307692308 433.5882703257375 4091.1153846153848 433.47006547647834 4050.038461538462 433.35408809308973 4008.9615384615386 433.21208388667225 3967.8846153846152 422.122193997944 3926.8076923076924 421.6503463054078 3885.7307692307695 420.92160217406195 3844.653846153846 420.29603101333674 3803.576923076923 419.6100604377933 3762.5 419.2453958196608 3721.423076923077 418.88543369630037 3680.346153846154 418.3145443410057 3639.269230769231 418.32121591329116 3598.1923076923076 418.1936065785876 3557.1153846153848 417.9836440524953 3516.0384615384614 417.6737817747089 3474.9615384615386 417.3462080305663 3433.8846153846152 417.2850488775972 3392.8076923076924 416.91367414087256 3351.730769230769 416.74196033033303 3310.653846153846 416.60514588840294 3269.576923076923 416.52074620602923 3228.5 416.17089398429073 3228.5 688.8585875798008Z" fill="#005aa6" opacity="0.9" />
		</g>
		<g>
			<path d="M3228.5 416.17089398429073 3269.576923076923 416.52074620602923 3310.653846153846 416.60514588840294 3351.730769230769 416.74196033033303 3392.8076923076924 416.91367414087256 3433.8846153846152 417.2850488775972 3474.9615384615386 417.3462080305663 3516.0384615384614 417.6737817747089 3557.1153846153848 417.9836440524953 3598.1923076923076 418.1936065785876 3639.269230769231 418.32121591329116 3680.346153846154 418.3145443410057 3721.423076923077 418.88543369630037 3762.5 419.2453958196608 3803.576923076923 419.6100604377933 3844.653846153846 420.29603101333674 3885.7307692307695 420.92160217406195 3926.8076923076924 421.6503463054078 3967.8846153846152 422.122193997944 4008.9615384615386 433.21208388667225 4050.038461538462 433.35408809308973 4091.1153846153848 433.47006547647834 4132.192307692308 433.5882703257375 4173.2692307692305 433.6904179753529 4214.346153846154 433.89359402287107 4255.423076923077 434.2228656036452 4296.5 434.50854774480695 4296.5 397.9999999999999 4255.423076923077 397.9999999999999 4214.346153846154 398.0000000000001 4173.2692307692305 398 4132.192307692308 397.99999999999994 4091.1153846153848 398.00000000000006 4050.038461538462 398 4008.9615384615386 398 3967.8846153846152 398 3926.8076923076924 398.00000000000006 3885.7307692307695 398.00000000000006 3844.653846153846 398.00000000000006 3803.576923076923 398 3762.5 397.99999999999994 3721.423076923077 398 3680.346153846154 398 3639.269230769231 398 3598.1923076923076 398 3557.1153846153848 398 3516.0384615384614 398 3474.9615384615386 398 3433.8846153846152 398.00000000000006 3392.8076923076924 398 3351.730769230769 397.99999999999994 3310.653846153846 398.00000000000006 3269.576923076923 397.9999999999999 3228.5 397.9999999999999 3228.5 416.17089398429073Z" fill="#393d41" opacity="0.9" />
		</g>
		<g>
			<rect x="4372" y="431" width="22.9995" height="23" fill="#e62d39" />
		</g>
		<g>
			<text fill="#595959" font-family="Verdana,sans-serif" font-weight="400" font-size="41" transform="matrix(1 0 0 1 4404.56 454)">Web Browser</text>
		</g>
		<g>
			<rect x="4372" y="508" width="22.9995" height="23" fill="#005aa6" />
		</g>
		<g>
			<text fill="#595959" font-family="Verdana,sans-serif" font-weight="400" font-size="41" transform="matrix(1 0 0 1 4404.56 531)">App</text>
		</g>
		<g>
			<rect x="4372" y="585" width="22.9995" height="23" fill="#393d41" />
		</g>
		<g>
			<text fill="#595959" font-family="Verdana,sans-serif" font-weight="400" font-size="41" transform="matrix(1 0 0 1 4404.56 608)">Unclassified</text>
		</g>
	</g>
</svg>
