<svg width="1763" height="1046"
    xmlns="http://www.w3.org/2000/svg"
	xmlns:xlink="http://www.w3.org/1999/xlink" xml:space="preserve" overflow="hidden">
	<defs>
		<clipPath id="clip0">
			<rect x="2917" y="346" width="1763" height="1046"/>
		</clipPath>
	</defs>
	<g clip-path="url(#clip0)" transform="translate(-2917 -346)">
		<rect x="2918" y="347" width="1760" height="1043" fill="#FFFFFF" />
		<g>
			<path d="
			M3228.5 974.532 4296.5 974.532
			M3228.5 910.53 4296.5 910.53
			M3228.5 846.528 4296.5 846.528
			M3228.5 781.526 4296.5 781.526
			M3228.5 717.524 4296.5 717.524
			M3228.5 653.522 4296.5 653.522
			M3228.5 589.52 4296.5 589.52
			M3228.5 525.517 4296.5 525.517
			M3228.5 461.515 4296.5 461.515
			M3228.5 397.5 4296.5 397.5" stroke="#D9D9D9" stroke-width="3.4375" stroke-linejoin="round" stroke-miterlimit="10" fill="none" />
		</g>
		<g>
			<path d="M 1038.5 4296.5 1038.5" stroke="#D9D9D9" stroke-width="3.4375" stroke-linejoin="round" stroke-miterlimit="10" fill="none" fill-rule="evenodd" />
		</g>
		<g>
			<text fill="#595959" font-family="Verdana,Open Sans,DejaVu Sans,sans-serif" font-weight="400" font-size="41" transform="matrix(6.12323e-17 -1 1 6.12323e-17 3247.21826171875 1191.6909103393555)">20-Jan</text>
		</g>
		<g>
			<text fill="#595959" font-family="Verdana,Open Sans,DejaVu Sans,sans-serif" font-weight="400" font-size="41" transform="matrix(6.12323e-17 -1 1 6.12323e-17 3329.715390625 1201.3203125)">17-Feb</text>
		</g>
		<g>
			<text fill="#595959" font-family="Verdana,Open Sans,DejaVu Sans,sans-serif" font-weight="400" font-size="41" transform="matrix(6.12323e-17 -1 1 6.12323e-17 3414.21447265625 1210.2890625)">17-Mar</text>
		</g>
		<g>
			<text fill="#595959" font-family="Verdana,Open Sans,DejaVu Sans,sans-serif" font-weight="400" font-size="41" transform="matrix(6.12323e-17 -1 1 6.12323e-17 3504.45916015625 1201.5405197143555)">14-Apr</text>
		</g>
		<g>
			<text fill="#595959" font-family="Verdana,Open Sans,DejaVu Sans,sans-serif" font-weight="400" font-size="41" transform="matrix(6.12323e-17 -1 1 6.12323e-17 3590.029287109375 1214.75341796875)">12-May</text>
		</g>
		<g>
			<text fill="#595959" font-family="Verdana,Open Sans,DejaVu Sans,sans-serif" font-weight="400" font-size="41" transform="matrix(6.12323e-17 -1 1 6.12323e-17 3674.3982421875 1192.2914962768555)">16-Jun</text>
		</g>
		<g>
			<text fill="#595959" font-family="Verdana,Open Sans,DejaVu Sans,sans-serif" font-weight="400" font-size="41" transform="matrix(6.12323e-17 -1 1 6.12323e-17 3760.568955078125 1177.2768478393555)">14-Jul</text>
		</g>
		<g>
			<text fill="#595959" font-family="Verdana,Open Sans,DejaVu Sans,sans-serif" font-weight="400" font-size="41" transform="matrix(6.12323e-17 -1 1 6.12323e-17 3846.199140625 1206.90576171875)">11-Aug</text>
		</g>
		<g>
			<text fill="#595959" font-family="Verdana,Open Sans,DejaVu Sans,sans-serif" font-weight="400" font-size="41" transform="matrix(6.12323e-17 -1 1 6.12323e-17 3931.809306640625 1204.38330078125)">08-Sep</text>
		</g>
		<g>
			<text fill="#595959" font-family="Verdana,Open Sans,DejaVu Sans,sans-serif" font-weight="400" font-size="41" transform="matrix(6.12323e-17 -1 1 6.12323e-17 4012.524697265625 1201.1000900268555)">06-Oct</text>
		</g>
		<g>
			<text fill="#595959" font-family="Verdana,Open Sans,DejaVu Sans,sans-serif" font-weight="400" font-size="41" transform="matrix(6.12323e-17 -1 1 6.12323e-17 4097.964697265625 1211.43017578125)">03-Nov</text>
		</g>
		<g>
			<text fill="#595959" font-family="Verdana,Open Sans,DejaVu Sans,sans-serif" font-weight="400" font-size="41" transform="matrix(6.12323e-17 -1 1 6.12323e-17 4183.404697265625 1207.0859375)">01-Dec</text>
		</g>
		<g>
			<text fill="#595959" font-family="Verdana,Open Sans,DejaVu Sans,sans-serif" font-weight="400" font-size="41" transform="matrix(6.12323e-17 -1 1 6.12323e-17 4268.824677734375 1207.1259765625)">29-Dec</text>
		</g>
		<g>
			<text fill="#595959" font-family="Verdana,Open Sans,DejaVu Sans,sans-serif" font-weight="400" font-size="41" transform="matrix(1 0 0 1 3135.4482421875 1050)">0%</text>
		</g>
		<g>
			<text fill="#595959" font-family="Verdana,Open Sans,DejaVu Sans,sans-serif" font-weight="400" font-size="41" transform="matrix(1 0 0 1 3111.96533203125 922)">20%</text>
		</g>
		<g>
			<text fill="#595959" font-family="Verdana,Open Sans,DejaVu Sans,sans-serif" font-weight="400" font-size="41" transform="matrix(1 0 0 1 3110.82421875 794)">40%</text>
		</g>
		<g>
			<text fill="#595959" font-family="Verdana,Open Sans,DejaVu Sans,sans-serif" font-weight="400" font-size="41" transform="matrix(1 0 0 1 3112.3056640625 666)">60%</text>
		</g>
		<g>
			<text fill="#595959" font-family="Verdana,Open Sans,DejaVu Sans,sans-serif" font-weight="400" font-size="41" transform="matrix(1 0 0 1 3112.04541015625 538)">80%</text>
		</g>
		<g>
			<text fill="#595959" font-family="Verdana,Open Sans,DejaVu Sans,sans-serif" font-weight="400" font-size="41" transform="matrix(1 0 0 1 3090.2841796875 410)">100%</text>
		</g>
		<g>
			<text fill="#595959" font-family="Verdana,Open Sans,DejaVu Sans,sans-serif" font-weight="400" font-size="41" transform="matrix(1 0 0 1 3556.97119140625 1321)">Week Commencing</text>
		</g>
		<g>
			<text fill="#595959" font-family="Verdana,Open Sans,DejaVu Sans,sans-serif" font-weight="400" font-size="46" transform="matrix(6.12323e-17 -1 1 6.12323e-17 3019.73 936.7665710449219)">Requests (% of Total)</text>
		</g>
		<rect x="2918.5" y="347.5" width="1760" height="1043" stroke="#D9D9D9" stroke-width="3.4375" stroke-linejoin="round" stroke-miterlimit="10" fill="none" />
		<g>
			<path d="M3228.5 1038 3249.86 1038 3271.22 1038 3292.58 1038 3313.94 1038 3335.3 1038 3356.66 1038 3378.02 1038 3399.38 1038 3420.74 1038 3442.1 1038 3463.46 1038 3484.82 1038 3506.18 1038 3527.54 1038 3548.9 1038 3570.26 1038 3591.62 1038 3612.98 1038 3634.34 1038 3655.7 1038 3677.06 1038 3698.42 1038 3719.7799999999997 1038 3741.14 1038 3762.5 1038 3783.86 1038 3805.2200000000003 1038 3826.58 1038 3847.94 1038 3869.3 1038 3890.66 1038 3912.02 1038 3933.38 1038 3954.74 1038 3976.1 1038 3997.46 1038 4018.8199999999997 1038 4040.18 1038 4061.54 1038 4082.9 1038 4104.26 1038 4125.62 1038 4146.98 1038 4168.34 1038 4189.7 1038 4211.0599999999995 1038 4232.42 1038 4253.78 1038 4275.139999999999 1038 4296.5 1038 4296.5 650.9685000981426 4275.139999999999 652.4520688665375 4253.78 654.2438394166766 4232.42 654.1783595408037 4211.0599999999995 665.1009269843557 4189.7 665.0687170796807 4168.34 669.2508046624037 4146.98 668.8015383913383 4125.62 677.0310099621294 4104.26 715.6326502484551 4082.9 731.7898269041518 4061.54 731.6946718722857 4040.18 731.7814057156063 4018.8199999999997 731.7708258099874 3997.46 739.179471336138 3976.1 739.1723277843557 3954.74 742.0464154901043 3933.38 744.981700209997 3912.02 752.0924084860791 3890.66 755.2385923010361 3869.3 755.2502906288946 3847.94 758.1300732473312 3826.58 768.0870120946274 3805.2200000000003 768.0622682813855 3783.86 768.1168972047803 3762.5 768.2021370143037 3741.14 769.6067142131767 3719.7799999999997 775.05017459998 3698.42 787.2357258695183 3677.06 787.3092370373995 3655.7 790.9650389728295 3634.34 794.0813847270024 3612.98 798.9713729419469 3591.62 800.9582284854941 3570.26 802.40679729401 3548.9 803.7574587023792 3527.54 804.8795653060993 3506.18 805.7888012756688 3484.82 807.0111198010406 3463.46 808.4993663352112 3442.1 809.5719943405506 3420.74 811.2029187969463 3399.38 852.2537695350034 3378.02 852.7630633018019 3356.66 853.2128831068969 3335.3 853.9543792847422 3313.94 854.2311435356854 3292.58 854.4163260228272 3271.22 854.152790599432 3249.86 854.8107613955362 3228.5 855.5126405911369 3228.5 1038Z" fill="#e62d39" opacity="0.9" />
		</g>
		<g>
			<path d="M3228.5 855.5126405911369 3249.86 854.8107613955362 3271.22 854.152790599432 3292.58 854.4163260228272 3313.94 854.2311435356854 3335.3 853.9543792847422 3356.66 853.2128831068969 3378.02 852.7630633018019 3399.38 852.2537695350034 3420.74 811.2029187969463 3442.1 809.5719943405506 3463.46 808.4993663352112 3484.82 807.0111198010406 3506.18 805.7888012756688 3527.54 804.8795653060993 3548.9 803.7574587023792 3570.26 802.40679729401 3591.62 800.9582284854941 3612.98 798.9713729419469 3634.34 794.0813847270024 3655.7 790.9650389728295 3677.06 787.3092370373995 3698.42 787.2357258695183 3719.7799999999997 775.05017459998 3741.14 769.6067142131767 3762.5 768.2021370143037 3783.86 768.1168972047803 3805.2200000000003 768.0622682813855 3826.58 768.0870120946274 3847.94 758.1300732473312 3869.3 755.2502906288946 3890.66 755.2385923010361 3912.02 752.0924084860791 3933.38 744.981700209997 3954.74 742.0464154901043 3976.1 739.1723277843557 3997.46 739.179471336138 4018.8199999999997 731.7708258099874 4040.18 731.7814057156063 4061.54 731.6946718722857 4082.9 731.7898269041518 4104.26 715.6326502484551 4125.62 677.0310099621294 4146.98 668.8015383913383 4168.34 669.2508046624037 4189.7 665.0687170796807 4211.0599999999995 665.1009269843557 4232.42 654.1783595408037 4253.78 654.2438394166766 4275.139999999999 652.4520688665375 4296.5 650.9685000981426 4296.5 404.3606360598039 4275.139999999999 404.3133620715407 4253.78 404.2694390318647 4232.42 404.25532206437714 4211.0599999999995 404.1006016590141 4189.7 404.09929675944176 4168.34 404.0956381930635 4146.98 404.12948436436125 4125.62 403.9961122337051 4104.26 403.3494217541671 4082.9 402.9248624726996 4061.54 402.9072043922977 4040.18 402.90877584131425 4018.8199999999997 402.9298471234101 3997.46 402.60349792125623 3976.1 402.6099730048478 3954.74 402.37217547977207 3933.38 402.145050233926 3912.02 401.73578913608276 3890.66 401.57006086206655 3869.3 401.57128950627384 3847.94 401.4082896460906 3826.58 400.8924429074875 3805.2200000000003 400.88896921768406 3783.86 400.93900012801925 3762.5 401.0268406246156 3741.14 400.9092568701918 3719.7799999999997 400.9924926084992 3698.42 400.4880580221503 3677.06 400.49608136003764 3655.7 400.2916782230466 3634.34 400.1582567110125 3612.98 399.92908991218985 3591.62 399.9334041710106 3570.26 399.87976806541184 3548.9 399.8310554200369 3527.54 399.7742919400221 3506.18 399.72528771121347 3484.82 399.7049408705508 3463.46 400.00414490488384 3442.1 399.9604159100104 3420.74 399.99059261305484 3399.38 399.58374601455273 3378.02 399.60517704227266 3356.66 399.5826700216501 3335.3 398.7693921844428 3313.94 398.74888189337906 3292.58 398.7507940349151 3271.22 398.74677273073394 3249.86 398.74113436176054 3228.5 398.7379557747454 3228.5 855.5126405911369Z" fill="#005aa6" opacity="0.9" />
		</g>
		<g>
			<path d="M3228.5 398.7379557747454 3249.86 398.74113436176054 3271.22 398.74677273073394 3292.58 398.7507940349151 3313.94 398.74888189337906 3335.3 398.7693921844428 3356.66 399.5826700216501 3378.02 399.60517704227266 3399.38 399.58374601455273 3420.74 399.99059261305484 3442.1 399.9604159100104 3463.46 400.00414490488384 3484.82 399.7049408705508 3506.18 399.72528771121347 3527.54 399.7742919400221 3548.9 399.8310554200369 3570.26 399.87976806541184 3591.62 399.9334041710106 3612.98 399.92908991218985 3634.34 400.1582567110125 3655.7 400.2916782230466 3677.06 400.49608136003764 3698.42 400.4880580221503 3719.7799999999997 400.9924926084992 3741.14 400.9092568701918 3762.5 401.0268406246156 3783.86 400.93900012801925 3805.2200000000003 400.88896921768406 3826.58 400.8924429074875 3847.94 401.4082896460906 3869.3 401.57128950627384 3890.66 401.57006086206655 3912.02 401.73578913608276 3933.38 402.145050233926 3954.74 402.37217547977207 3976.1 402.6099730048478 3997.46 402.60349792125623 4018.8199999999997 402.9298471234101 4040.18 402.90877584131425 4061.54 402.9072043922977 4082.9 402.9248624726996 4104.26 403.3494217541671 4125.62 403.9961122337051 4146.98 404.12948436436125 4168.34 404.0956381930635 4189.7 404.09929675944176 4211.0599999999995 404.1006016590141 4232.42 404.25532206437714 4253.78 404.2694390318647 4275.139999999999 404.3133620715407 4296.5 404.3606360598039 4296.5 397.99999999999994 4275.139999999999 398.00000000000006 4253.78 398.00000000000006 4232.42 398.0000000000001 4211.0599999999995 397.99999999999994 4189.7 397.9999999999999 4168.34 398.0000000000001 4146.98 398 4125.62 398 4104.26 397.9999999999999 4082.9 398.00000000000006 4061.54 397.99999999999994 4040.18 397.9999999999999 4018.8199999999997 398.00000000000006 3997.46 398.00000000000006 3976.1 397.99999999999994 3954.74 397.99999999999994 3933.38 397.99999999999994 3912.02 398 3890.66 397.9999999999999 3869.3 397.99999999999994 3847.94 397.99999999999994 3826.58 398 3805.2200000000003 398.00000000000006 3783.86 398.00000000000006 3762.5 397.99999999999994 3741.14 397.99999999999994 3719.7799999999997 397.99999999999994 3698.42 398.0000000000001 3677.06 398 3655.7 398.00000000000006 3634.34 398 3612.98 398 3591.62 398 3570.26 398 3548.9 398 3527.54 397.99999999999994 3506.18 397.9999999999999 3484.82 398 3463.46 398 3442.1 397.99999999999994 3420.74 398.00000000000006 3399.38 398 3378.02 398 3356.66 398 3335.3 397.99999999999994 3313.94 398 3292.58 397.99999999999994 3271.22 398 3249.86 398 3228.5 398.00000000000006 3228.5 398.7379557747454Z" fill="#393d41" opacity="0.9" />
		</g>
		<g>
			<rect x="4372" y="431" width="22.9995" height="23" fill="#e62d39" />
		</g>
		<g>
			<text fill="#595959" font-family="Verdana,Open Sans,DejaVu Sans,sans-serif" font-weight="400" font-size="41" transform="matrix(1 0 0 1 4404.56 454)">App</text>
		</g>
		<g>
			<rect x="4372" y="508" width="22.9995" height="23" fill="#005aa6" />
		</g>
		<g>
			<text fill="#595959" font-family="Verdana,Open Sans,DejaVu Sans,sans-serif" font-weight="400" font-size="41" transform="matrix(1 0 0 1 4404.56 531)">Web Browser</text>
		</g>
		<g>
			<rect x="4372" y="585" width="22.9995" height="23" fill="#393d41" />
		</g>
		<g>
			<text fill="#595959" font-family="Verdana,Open Sans,DejaVu Sans,sans-serif" font-weight="400" font-size="41" transform="matrix(1 0 0 1 4404.56 608)">Unclassified</text>
		</g>
	</g>
</svg>
