<svg width="1763" height="1046"
    xmlns="http://www.w3.org/2000/svg"
	xmlns:xlink="http://www.w3.org/1999/xlink" xml:space="preserve" overflow="hidden">
	<defs>
		<clipPath id="clip0">
			<rect x="2917" y="346" width="1763" height="1046"/>
		</clipPath>
	</defs>
	<g clip-path="url(#clip0)" transform="translate(-2917 -346)">
		<rect x="2918" y="347" width="1760" height="1043" fill="#FFFFFF" />
		<g>
			<path d="
			M3228.5 974.532 4296.5 974.532
			M3228.5 910.53 4296.5 910.53
			M3228.5 846.528 4296.5 846.528
			M3228.5 781.526 4296.5 781.526
			M3228.5 717.524 4296.5 717.524
			M3228.5 653.522 4296.5 653.522
			M3228.5 589.52 4296.5 589.52
			M3228.5 525.517 4296.5 525.517
			M3228.5 461.515 4296.5 461.515
			M3228.5 397.5 4296.5 397.5" stroke="#D9D9D9" stroke-width="3.4375" stroke-linejoin="round" stroke-miterlimit="10" fill="none" />
		</g>
		<g>
			<path d="M 1038.5 4296.5 1038.5" stroke="#D9D9D9" stroke-width="3.4375" stroke-linejoin="round" stroke-miterlimit="10" fill="none" fill-rule="evenodd" />
		</g>
		<g>
			<text fill="#595959" font-family="Verdana,sans-serif" font-weight="400" font-size="41" transform="matrix(6.12323e-17 -1 1 6.12323e-17 3244.5 1225)">06-Nov</text>
		</g>
		<g>
			<text fill="#595959" font-family="Verdana,sans-serif" font-weight="400" font-size="41" transform="matrix(6.12323e-17 -1 1 6.12323e-17 3346.214285714286 1223)">04-Dec</text>
		</g>
		<g>
			<text fill="#595959" font-family="Verdana,sans-serif" font-weight="400" font-size="41" transform="matrix(6.12323e-17 -1 1 6.12323e-17 3447.9285714285716 1210)">01-Jan</text>
		</g>
		<g>
			<text fill="#595959" font-family="Verdana,sans-serif" font-weight="400" font-size="41" transform="matrix(6.12323e-17 -1 1 6.12323e-17 3549.642857142857 1210)">29-Jan</text>
		</g>
		<g>
			<text fill="#595959" font-family="Verdana,sans-serif" font-weight="400" font-size="41" transform="matrix(6.12323e-17 -1 1 6.12323e-17 3651.3571428571427 1216)">26-Feb</text>
		</g>
		<g>
			<text fill="#595959" font-family="Verdana,sans-serif" font-weight="400" font-size="41" transform="matrix(6.12323e-17 -1 1 6.12323e-17 3753.0714285714284 1223)">25-Mar</text>
		</g>
		<g>
			<text fill="#595959" font-family="Verdana,sans-serif" font-weight="400" font-size="41" transform="matrix(6.12323e-17 -1 1 6.12323e-17 3858.285714285714 1216)">22-Apr</text>
		</g>
		<g>
			<text fill="#595959" font-family="Verdana,sans-serif" font-weight="400" font-size="41" transform="matrix(6.12323e-17 -1 1 6.12323e-17 3960 1228)">20-May</text>
		</g>
		<g>
			<text fill="#595959" font-family="Verdana,sans-serif" font-weight="400" font-size="41" transform="matrix(6.12323e-17 -1 1 6.12323e-17 4057.714285714286 1209)">17-Jun</text>
		</g>
		<g>
			<text fill="#595959" font-family="Verdana,sans-serif" font-weight="400" font-size="41" transform="matrix(6.12323e-17 -1 1 6.12323e-17 4159.928571428572 1194)">15-Jul</text>
		</g>
		<g>
			<text fill="#595959" font-family="Verdana,sans-serif" font-weight="400" font-size="41" transform="matrix(6.12323e-17 -1 1 6.12323e-17 4265.142857142857 1218)">12-Aug</text>
		</g>
		<g>
			<text fill="#595959" font-family="Verdana,sans-serif" font-weight="400" font-size="41" transform="matrix(1 0 0 1 3167.5 1050)">0</text>
		</g>
		<g>
			<text fill="#595959" font-family="Verdana,sans-serif" font-weight="400" font-size="41" transform="matrix(1 0 0 1 3074.5 922)">2,850</text>
		</g>
		<g>
			<text fill="#595959" font-family="Verdana,sans-serif" font-weight="400" font-size="41" transform="matrix(1 0 0 1 3075.5 794)">5,700</text>
		</g>
		<g>
			<text fill="#595959" font-family="Verdana,sans-serif" font-weight="400" font-size="41" transform="matrix(1 0 0 1 3075.5 666)">8,551</text>
		</g>
		<g>
			<text fill="#595959" font-family="Verdana,sans-serif" font-weight="400" font-size="41" transform="matrix(1 0 0 1 3052.5 538)">11,401</text>
		</g>
		<g>
			<text fill="#595959" font-family="Verdana,sans-serif" font-weight="400" font-size="41" transform="matrix(1 0 0 1 3052.5 410)">14,251</text>
		</g>
		<g>
			<text fill="#595959" font-family="Verdana,sans-serif" font-weight="400" font-size="41" transform="matrix(1 0 0 1 3544.5 1321)">Week Commencing</text>
		</g>
		<g>
			<text fill="#595959" font-family="Verdana,sans-serif" font-weight="400" font-size="46" transform="matrix(6.12323e-17 -1 1 6.12323e-17 3019.73 1030.75)">Number of Browser Profiles</text>
		</g>
		<rect x="2918.5" y="347.5" width="1760" height="1043" stroke="#D9D9D9" stroke-width="3.4375" stroke-linejoin="round" stroke-miterlimit="10" fill="none" />
		<g>
			<path d="M3228.5 1038 3253.9285714285716 1038 3279.3571428571427 1038 3304.785714285714 1038 3330.214285714286 1038 3355.6428571428573 1038 3381.0714285714284 1038 3406.5 1038 3431.9285714285716 1038 3457.3571428571427 1038 3482.785714285714 1038 3508.214285714286 1038 3533.642857142857 1038 3559.0714285714284 1038 3584.5 1038 3609.9285714285716 1038 3635.3571428571427 1038 3660.785714285714 1038 3686.214285714286 1038 3711.642857142857 1038 3737.0714285714284 1038 3762.5 1038 3787.9285714285716 1038 3813.3571428571427 1038 3838.785714285714 1038 3864.214285714286 1038 3889.642857142857 1038 3915.0714285714284 1038 3940.5 1038 3965.9285714285716 1038 3991.3571428571427 1038 4016.785714285714 1038 4042.214285714286 1038 4067.642857142857 1038 4093.0714285714284 1038 4118.5 1038 4143.928571428572 1038 4169.357142857143 1038 4194.785714285714 1038 4220.214285714285 1038 4245.642857142857 1038 4271.071428571428 1038 4296.5 1038 4296.5 535.377026173602 4271.071428571428 535.9608448529928 4245.642857142857 536.5895726615677 4220.214285714285 537.5775735036138 4194.785714285714 538.4308469581083 4169.357142857143 539.2392112834187 4143.928571428572 539.8230299628096 4118.5 540.2721212546488 4093.0714285714284 540.721212546488 4067.642857142857 541.799031646902 4042.214285714286 542.5624868430286 4016.785714285714 543.3259420391552 3991.3571428571427 544.4935793979371 3965.9285714285716 545.616307627535 3940.5 546.6492175987651 3915.0714285714284 547.143218019788 3889.642857142857 547.727036699179 3864.214285714286 548.4455827661218 3838.785714285714 549.7928566416392 3813.3571428571427 551.0054031296049 3787.9285714285716 552.2179496175708 3762.5 553.69995088064 3737.0714285714284 554.8226791102379 3711.642857142857 555.855589081468 3686.214285714286 556.933408181882 3660.785714285714 558.3255911865834 3635.3571428571427 560.6159567749633 3609.9285714285716 561.0650480668023 3584.5 561.4243211002737 3559.0714285714284 563.3554136551821 3533.642857142857 565.3314153392745 3508.214285714286 565.8703248894815 3482.785714285714 566.678689214792 3457.3571428571427 567.3523261525507 3431.9285714285716 567.6217809276543 3406.5 567.6217809276543 3381.0714285714284 568.3852361237808 3355.6428571428573 568.83432741562 3330.214285714286 569.373236965827 3304.785714285714 570.2714195495053 3279.3571428571427 571.0348747456319 3253.9285714285716 571.7085116833907 3228.5 572.2025121044137 3228.5 1038Z" fill="#e62d39" opacity="0.9" />
		</g>
		<g>
			<path d="M3228.5 572.2025121044137 3253.9285714285716 571.7085116833907 3279.3571428571427 571.0348747456319 3304.785714285714 570.2714195495053 3330.214285714286 569.373236965827 3355.6428571428573 568.83432741562 3381.0714285714284 568.3852361237808 3406.5 567.6217809276543 3431.9285714285716 567.6217809276543 3457.3571428571427 567.3523261525507 3482.785714285714 566.678689214792 3508.214285714286 565.8703248894815 3533.642857142857 565.3314153392745 3559.0714285714284 563.3554136551821 3584.5 561.4243211002737 3609.9285714285716 561.0650480668023 3635.3571428571427 560.6159567749633 3660.785714285714 558.3255911865834 3686.214285714286 556.933408181882 3711.642857142857 555.855589081468 3737.0714285714284 554.8226791102379 3762.5 553.69995088064 3787.9285714285716 552.2179496175708 3813.3571428571427 551.0054031296049 3838.785714285714 549.7928566416392 3864.214285714286 548.4455827661218 3889.642857142857 547.727036699179 3915.0714285714284 547.143218019788 3940.5 546.6492175987651 3965.9285714285716 545.616307627535 3991.3571428571427 544.4935793979371 4016.785714285714 543.3259420391552 4042.214285714286 542.5624868430286 4067.642857142857 541.799031646902 4093.0714285714284 540.721212546488 4118.5 540.2721212546488 4143.928571428572 539.8230299628096 4169.357142857143 539.2392112834187 4194.785714285714 538.4308469581083 4220.214285714285 537.5775735036138 4245.642857142857 536.5895726615677 4271.071428571428 535.9608448529928 4296.5 535.377026173602 4296.5 398.0000000000001 4271.071428571428 398.6736369377587 4245.642857142857 399.6167286506211 4220.214285714285 400.6945477510351 4194.785714285714 401.72745772226517 4169.357142857143 402.67054943512744 4143.928571428572 403.25436811451834 4118.5 403.79327766472534 4093.0714285714284 404.5567328608519 4067.642857142857 405.8141884780016 4042.214285714286 406.75728019086387 4016.785714285714 407.74528103291 3991.3571428571427 409.2272822959793 3965.9285714285716 410.57455617149685 3940.5 411.74219353027866 3915.0714285714284 412.41583046803726 3889.642857142857 413.13437653498005 3864.214285714286 413.98764998947456 3838.785714285714 415.5594695109115 3813.3571428571427 416.9965616447969 3787.9285714285716 418.43365377868224 3762.5 420.18510981685506 3737.0714285714284 421.5323836923725 3711.642857142857 423.19402147217744 3686.214285714286 424.8107501227984 3660.785714285714 426.2478422566838 3635.3571428571427 428.8076626201671 3609.9285714285716 429.30166304119007 3584.5 429.8405725913971 3559.0714285714284 432.04111992140906 3533.642857142857 434.15184899305314 3508.214285714286 434.8254859308119 3482.785714285714 435.85839590204205 3457.3571428571427 436.6667602273525 3431.9285714285716 437.0260332608239 3406.5 437.0260332608239 3381.0714285714284 438.01403410287 3355.6428571428573 438.6876710406288 3330.214285714286 439.2714897200197 3304.785714285714 440.2594905620658 3279.3571428571427 441.1576731457442 3253.9285714285716 442.1456739877904 3228.5 442.8193109255491 3228.5 572.2025121044137Z" fill="#005aa6" opacity="0.9" />
		</g>
		<g>
			<rect x="4372" y="431" width="22.9995" height="23" fill="#e62d39" />
		</g>
		<g>
			<text fill="#595959" font-family="Verdana,sans-serif" font-weight="400" font-size="41" transform="matrix(1 0 0 1 4404.56 454)">Web Browser</text>
		</g>
		<g>
			<rect x="4372" y="508" width="22.9995" height="23" fill="#005aa6" />
		</g>
		<g>
			<text fill="#595959" font-family="Verdana,sans-serif" font-weight="400" font-size="41" transform="matrix(1 0 0 1 4404.56 531)">App</text>
		</g>
	</g>
</svg>
