<svg width="1763" height="1046"
    xmlns="http://www.w3.org/2000/svg"
	xmlns:xlink="http://www.w3.org/1999/xlink" xml:space="preserve" overflow="hidden">
	<defs>
		<clipPath id="clip0">
			<rect x="2917" y="346" width="1763" height="1046"/>
		</clipPath>
	</defs>
	<g clip-path="url(#clip0)" transform="translate(-2917 -346)">
		<rect x="2918" y="347" width="1760" height="1043" fill="#FFFFFF" />
		<g>
			<path d="
			M3228.5 974.532 4296.5 974.532
			M3228.5 910.53 4296.5 910.53
			M3228.5 846.528 4296.5 846.528
			M3228.5 781.526 4296.5 781.526
			M3228.5 717.524 4296.5 717.524
			M3228.5 653.522 4296.5 653.522
			M3228.5 589.52 4296.5 589.52
			M3228.5 525.517 4296.5 525.517
			M3228.5 461.515 4296.5 461.515
			M3228.5 397.5 4296.5 397.5" stroke="#D9D9D9" stroke-width="3.4375" stroke-linejoin="round" stroke-miterlimit="10" fill="none" />
		</g>
		<g>
			<path d="M 1038.5 4296.5 1038.5" stroke="#D9D9D9" stroke-width="3.4375" stroke-linejoin="round" stroke-miterlimit="10" fill="none" fill-rule="evenodd" />
		</g>
		<g>
			<text fill="#595959" font-family="Verdana,Open Sans,DejaVu Sans,sans-serif" font-weight="400" font-size="41" transform="matrix(6.12323e-17 -1 1 6.12323e-17 3247.928955078125 1179.0385665893555)">29-Jul</text>
		</g>
		<g>
			<text fill="#595959" font-family="Verdana,Open Sans,DejaVu Sans,sans-serif" font-weight="400" font-size="41" transform="matrix(6.12323e-17 -1 1 6.12323e-17 3333.709287109375 1208.66748046875)">26-Aug</text>
		</g>
		<g>
			<text fill="#595959" font-family="Verdana,Open Sans,DejaVu Sans,sans-serif" font-weight="400" font-size="41" transform="matrix(6.12323e-17 -1 1 6.12323e-17 3419.149287109375 1204.42333984375)">23-Sep</text>
		</g>
		<g>
			<text fill="#595959" font-family="Verdana,Open Sans,DejaVu Sans,sans-serif" font-weight="400" font-size="41" transform="matrix(6.12323e-17 -1 1 6.12323e-17 3499.884697265625 1201.1401290893555)">21-Oct</text>
		</g>
		<g>
			<text fill="#595959" font-family="Verdana,Open Sans,DejaVu Sans,sans-serif" font-weight="400" font-size="41" transform="matrix(6.12323e-17 -1 1 6.12323e-17 3585.304677734375 1209.70849609375)">18-Nov</text>
		</g>
		<g>
			<text fill="#595959" font-family="Verdana,Open Sans,DejaVu Sans,sans-serif" font-weight="400" font-size="41" transform="matrix(6.12323e-17 -1 1 6.12323e-17 3670.744677734375 1207.1259765625)">23-Dec</text>
		</g>
		<g>
			<text fill="#595959" font-family="Verdana,Open Sans,DejaVu Sans,sans-serif" font-weight="400" font-size="41" transform="matrix(6.12323e-17 -1 1 6.12323e-17 3759.85826171875 1191.6909103393555)">20-Jan</text>
		</g>
		<g>
			<text fill="#595959" font-family="Verdana,Open Sans,DejaVu Sans,sans-serif" font-weight="400" font-size="41" transform="matrix(6.12323e-17 -1 1 6.12323e-17 3842.355390625 1201.3203125)">17-Feb</text>
		</g>
		<g>
			<text fill="#595959" font-family="Verdana,Open Sans,DejaVu Sans,sans-serif" font-weight="400" font-size="41" transform="matrix(6.12323e-17 -1 1 6.12323e-17 3926.85447265625 1210.2890625)">17-Mar</text>
		</g>
		<g>
			<text fill="#595959" font-family="Verdana,Open Sans,DejaVu Sans,sans-serif" font-weight="400" font-size="41" transform="matrix(6.12323e-17 -1 1 6.12323e-17 4017.09916015625 1201.5405197143555)">14-Apr</text>
		</g>
		<g>
			<text fill="#595959" font-family="Verdana,Open Sans,DejaVu Sans,sans-serif" font-weight="400" font-size="41" transform="matrix(6.12323e-17 -1 1 6.12323e-17 4102.669287109375 1214.75341796875)">12-May</text>
		</g>
		<g>
			<text fill="#595959" font-family="Verdana,Open Sans,DejaVu Sans,sans-serif" font-weight="400" font-size="41" transform="matrix(6.12323e-17 -1 1 6.12323e-17 4187.0382421875 1192.2914962768555)">16-Jun</text>
		</g>
		<g>
			<text fill="#595959" font-family="Verdana,Open Sans,DejaVu Sans,sans-serif" font-weight="400" font-size="41" transform="matrix(6.12323e-17 -1 1 6.12323e-17 4273.208955078125 1177.2768478393555)">14-Jul</text>
		</g>
		<g>
			<text fill="#595959" font-family="Verdana,Open Sans,DejaVu Sans,sans-serif" font-weight="400" font-size="41" transform="matrix(1 0 0 1 3169.14111328125 1050)">0</text>
		</g>
		<g>
			<text fill="#595959" font-family="Verdana,Open Sans,DejaVu Sans,sans-serif" font-weight="400" font-size="41" transform="matrix(1 0 0 1 3088.642578125 922)">3,097</text>
		</g>
		<g>
			<text fill="#595959" font-family="Verdana,Open Sans,DejaVu Sans,sans-serif" font-weight="400" font-size="41" transform="matrix(1 0 0 1 3087.841796875 794)">6,194</text>
		</g>
		<g>
			<text fill="#595959" font-family="Verdana,Open Sans,DejaVu Sans,sans-serif" font-weight="400" font-size="41" transform="matrix(1 0 0 1 3089.0029296875 666)">9,292</text>
		</g>
		<g>
			<text fill="#595959" font-family="Verdana,Open Sans,DejaVu Sans,sans-serif" font-weight="400" font-size="41" transform="matrix(1 0 0 1 3067.2016677856445 538)">12,389</text>
		</g>
		<g>
			<text fill="#595959" font-family="Verdana,Open Sans,DejaVu Sans,sans-serif" font-weight="400" font-size="41" transform="matrix(1 0 0 1 3067.0014724731445 410)">15,486</text>
		</g>
		<g>
			<text fill="#595959" font-family="Verdana,Open Sans,DejaVu Sans,sans-serif" font-weight="400" font-size="41" transform="matrix(1 0 0 1 3556.97119140625 1321)">Week Commencing</text>
		</g>
		<g>
			<text fill="#595959" font-family="Verdana,Open Sans,DejaVu Sans,sans-serif" font-weight="400" font-size="46" transform="matrix(6.12323e-17 -1 1 6.12323e-17 3019.73 1011.673828125)">Number of Browser Profiles</text>
		</g>
		<rect x="2918.5" y="347.5" width="1760" height="1043" stroke="#D9D9D9" stroke-width="3.4375" stroke-linejoin="round" stroke-miterlimit="10" fill="none" />
		<g>
			<path d="M3228.5 1038 3249.86 1038 3271.22 1038 3292.58 1038 3313.94 1038 3335.3 1038 3356.66 1038 3378.02 1038 3399.38 1038 3420.74 1038 3442.1 1038 3463.46 1038 3484.82 1038 3506.18 1038 3527.54 1038 3548.9 1038 3570.26 1038 3591.62 1038 3612.98 1038 3634.34 1038 3655.7 1038 3677.06 1038 3698.42 1038 3719.7799999999997 1038 3741.14 1038 3762.5 1038 3783.86 1038 3805.2200000000003 1038 3826.58 1038 3847.94 1038 3869.3 1038 3890.66 1038 3912.02 1038 3933.38 1038 3954.74 1038 3976.1 1038 3997.46 1038 4018.8199999999997 1038 4040.18 1038 4061.54 1038 4082.9 1038 4104.26 1038 4125.62 1038 4146.98 1038 4168.34 1038 4189.7 1038 4211.0599999999995 1038 4232.42 1038 4253.78 1038 4275.139999999999 1038 4296.5 1038 4296.5 533.7613328167378 4275.139999999999 534.6705411339275 4253.78 535.083817641741 4232.42 536.1170089112748 4211.0599999999995 537.4808213870593 4189.7 538.1007361487796 4168.34 539.2992380214388 4146.98 540.7043781480047 4125.62 542.3988118300401 4104.26 543.5559860519179 4082.9 544.6718326230143 4061.54 545.6223685909854 4040.18 546.4902492573938 4018.8199999999997 547.4821128761462 3997.46 548.3913211933359 3976.1 549.920444272246 3954.74 550.5816866847476 3933.38 551.2429290972491 3912.02 552.0281544620948 3890.66 553.1440010331913 3869.3 554.3011752550692 3847.94 555.2103835722589 3826.58 555.7889706831977 3805.2200000000003 556.7395066511688 3783.86 558.1446467777348 3762.5 558.764561539455 3741.14 559.4671316027379 3719.7799999999997 559.9630634121143 3698.42 560.7069611261785 3677.06 561.2028929355547 3655.7 561.4921864910242 3634.34 562.4427224589953 3612.98 563.1452925222782 3591.62 564.7157432519696 3570.26 565.7489345215033 3548.9 566.3688492832237 3527.54 566.9887640449439 3506.18 567.8979723621336 3484.82 568.6418700761978 3463.46 569.3444401394809 3442.1 570.2123208058892 3420.74 571.5348056308924 3399.38 571.948082138706 3378.02 573.0226010590211 3356.66 573.9318093762108 3335.3 574.551724137931 3313.94 575.4609324551208 3292.58 575.9981919152783 3271.22 576.5767790262173 3249.86 577.485987343407 3228.5 578.2712127082527 3228.5 1038Z" fill="#e62d39" opacity="0.9" />
		</g>
		<g>
			<path d="M3228.5 578.2712127082527 3249.86 577.485987343407 3271.22 576.5767790262173 3292.58 575.9981919152783 3313.94 575.4609324551208 3335.3 574.551724137931 3356.66 573.9318093762108 3378.02 573.0226010590211 3399.38 571.948082138706 3420.74 571.5348056308924 3442.1 570.2123208058892 3463.46 569.3444401394809 3484.82 568.6418700761978 3506.18 567.8979723621336 3527.54 566.9887640449439 3548.9 566.3688492832237 3570.26 565.7489345215033 3591.62 564.7157432519696 3612.98 563.1452925222782 3634.34 562.4427224589953 3655.7 561.4921864910242 3677.06 561.2028929355547 3698.42 560.7069611261785 3719.7799999999997 559.9630634121143 3741.14 559.4671316027379 3762.5 558.764561539455 3783.86 558.1446467777348 3805.2200000000003 556.7395066511688 3826.58 555.7889706831977 3847.94 555.2103835722589 3869.3 554.3011752550692 3890.66 553.1440010331913 3912.02 552.0281544620948 3933.38 551.2429290972491 3954.74 550.5816866847476 3976.1 549.920444272246 3997.46 548.3913211933359 4018.8199999999997 547.4821128761462 4040.18 546.4902492573938 4061.54 545.6223685909854 4082.9 544.6718326230143 4104.26 543.5559860519179 4125.62 542.3988118300401 4146.98 540.7043781480047 4168.34 539.2992380214388 4189.7 538.1007361487796 4211.0599999999995 537.4808213870593 4232.42 536.1170089112748 4253.78 535.083817641741 4275.139999999999 534.6705411339275 4296.5 533.7613328167378 4296.5 398.0000000000001 4275.139999999999 399.03319126953386 4253.78 399.7357613328168 4232.42 401.09957380860135 4211.0599999999995 402.67002453829275 4189.7 403.413922252357 4168.34 404.73640707736024 4146.98 406.26553015627024 4125.62 408.5385509492446 4104.26 409.9023634250291 4082.9 411.26617590081366 4061.54 412.3820224719101 4040.18 413.37388609066255 4018.8199999999997 414.5723879633217 3997.46 415.6469068836368 3976.1 417.3826682164537 3954.74 418.25054888286206 3933.38 418.9944465969262 3912.02 419.903654914116 3890.66 421.3501226914633 3869.3 422.63127986568526 3847.94 423.66447113521906 3826.58 424.4910241508459 3805.2200000000003 425.6895260235051 3783.86 427.2599767531965 3762.5 428.04520211804214 3741.14 428.99573808601315 3719.7799999999997 429.6983081492962 3698.42 430.56618881570455 3677.06 431.1034482758621 3655.7 431.3927418313316 3634.34 432.508588402428 3612.98 433.41779671961774 3591.62 435.2775410047785 3570.26 436.55869817900043 3548.9 437.3852511946275 3527.54 438.74906367041206 3506.18 439.86491024150854 3484.82 440.7741185586982 3463.46 441.6419992251066 3442.1 442.63386284385905 3420.74 444.0803306212062 3399.38 444.65891773214526 3378.02 446.0227302079298 3356.66 447.13857677902627 3335.3 447.9238021438719 3313.94 449.0396487149684 3292.58 449.6595634766886 3271.22 450.5274441430971 3249.86 451.5193077618495 3228.5 452.4698437298206 3228.5 578.2712127082527Z" fill="#005aa6" opacity="0.9" />
		</g>
		<g>
			<rect x="4372" y="431" width="22.9995" height="23" fill="#e62d39" />
		</g>
		<g>
			<text fill="#595959" font-family="Verdana,Open Sans,DejaVu Sans,sans-serif" font-weight="400" font-size="41" transform="matrix(1 0 0 1 4404.56 454)">Web Browser</text>
		</g>
		<g>
			<rect x="4372" y="508" width="22.9995" height="23" fill="#005aa6" />
		</g>
		<g>
			<text fill="#595959" font-family="Verdana,Open Sans,DejaVu Sans,sans-serif" font-weight="400" font-size="41" transform="matrix(1 0 0 1 4404.56 531)">App</text>
		</g>
	</g>
</svg>
