<svg width="1763" height="1046"
    xmlns="http://www.w3.org/2000/svg"
	xmlns:xlink="http://www.w3.org/1999/xlink" xml:space="preserve" overflow="hidden">
	<defs>
		<clipPath id="clip0">
			<rect x="2917" y="346" width="1763" height="1046"/>
		</clipPath>
	</defs>
	<g clip-path="url(#clip0)" transform="translate(-2917 -346)">
		<rect x="2918" y="347" width="1760" height="1043" fill="#FFFFFF" />
		<g>
			<path d="
			M3228.5 974.532 4296.5 974.532
			M3228.5 910.53 4296.5 910.53
			M3228.5 846.528 4296.5 846.528
			M3228.5 781.526 4296.5 781.526
			M3228.5 717.524 4296.5 717.524
			M3228.5 653.522 4296.5 653.522
			M3228.5 589.52 4296.5 589.52
			M3228.5 525.517 4296.5 525.517
			M3228.5 461.515 4296.5 461.515
			M3228.5 397.5 4296.5 397.5" stroke="#D9D9D9" stroke-width="3.4375" stroke-linejoin="round" stroke-miterlimit="10" fill="none" />
		</g>
		<g>
			<path d="M 1038.5 4296.5 1038.5" stroke="#D9D9D9" stroke-width="3.4375" stroke-linejoin="round" stroke-miterlimit="10" fill="none" fill-rule="evenodd" />
		</g>
		<g>
			<text fill="#595959" font-family="Verdana,sans-serif" font-weight="400" font-size="41" transform="matrix(6.12323e-17 -1 1 6.12323e-17 3244 1221)">11-Mar</text>
		</g>
		<g>
			<text fill="#595959" font-family="Verdana,sans-serif" font-weight="400" font-size="41" transform="matrix(6.12323e-17 -1 1 6.12323e-17 3331.764705882353 1217)">08-Apr</text>
		</g>
		<g>
			<text fill="#595959" font-family="Verdana,sans-serif" font-weight="400" font-size="41" transform="matrix(6.12323e-17 -1 1 6.12323e-17 3415.529411764706 1228)">06-May</text>
		</g>
		<g>
			<text fill="#595959" font-family="Verdana,sans-serif" font-weight="400" font-size="41" transform="matrix(6.12323e-17 -1 1 6.12323e-17 3495.794117647059 1211)">03-Jun</text>
		</g>
		<g>
			<text fill="#595959" font-family="Verdana,sans-serif" font-weight="400" font-size="41" transform="matrix(6.12323e-17 -1 1 6.12323e-17 3579.5588235294117 1197)">01-Jul</text>
		</g>
		<g>
			<text fill="#595959" font-family="Verdana,sans-serif" font-weight="400" font-size="41" transform="matrix(6.12323e-17 -1 1 6.12323e-17 3663.323529411765 1196)">29-Jul</text>
		</g>
		<g>
			<text fill="#595959" font-family="Verdana,sans-serif" font-weight="400" font-size="41" transform="matrix(6.12323e-17 -1 1 6.12323e-17 3750.5882352941176 1221)">26-Aug</text>
		</g>
		<g>
			<text fill="#595959" font-family="Verdana,sans-serif" font-weight="400" font-size="41" transform="matrix(6.12323e-17 -1 1 6.12323e-17 3834.3529411764707 1221)">23-Sep</text>
		</g>
		<g>
			<text fill="#595959" font-family="Verdana,sans-serif" font-weight="400" font-size="41" transform="matrix(6.12323e-17 -1 1 6.12323e-17 3914.6176470588234 1215)">21-Oct</text>
		</g>
		<g>
			<text fill="#595959" font-family="Verdana,sans-serif" font-weight="400" font-size="41" transform="matrix(6.12323e-17 -1 1 6.12323e-17 3998.3823529411766 1222)">18-Nov</text>
		</g>
		<g>
			<text fill="#595959" font-family="Verdana,sans-serif" font-weight="400" font-size="41" transform="matrix(6.12323e-17 -1 1 6.12323e-17 4082.1470588235293 1222)">23-Dec</text>
		</g>
		<g>
			<text fill="#595959" font-family="Verdana,sans-serif" font-weight="400" font-size="41" transform="matrix(6.12323e-17 -1 1 6.12323e-17 4165.911764705882 1210)">20-Jan</text>
		</g>
		<g>
			<text fill="#595959" font-family="Verdana,sans-serif" font-weight="400" font-size="41" transform="matrix(6.12323e-17 -1 1 6.12323e-17 4249.676470588235 1214)">17-Feb</text>
		</g>
		<g>
			<text fill="#595959" font-family="Verdana,sans-serif" font-weight="400" font-size="41" transform="matrix(1 0 0 1 3167.5 1050)">0</text>
		</g>
		<g>
			<text fill="#595959" font-family="Verdana,sans-serif" font-weight="400" font-size="41" transform="matrix(1 0 0 1 3074.5 922)">2,984</text>
		</g>
		<g>
			<text fill="#595959" font-family="Verdana,sans-serif" font-weight="400" font-size="41" transform="matrix(1 0 0 1 3075.5 794)">5,968</text>
		</g>
		<g>
			<text fill="#595959" font-family="Verdana,sans-serif" font-weight="400" font-size="41" transform="matrix(1 0 0 1 3074.5 666)">8,953</text>
		</g>
		<g>
			<text fill="#595959" font-family="Verdana,sans-serif" font-weight="400" font-size="41" transform="matrix(1 0 0 1 3050.5 538)">11,937</text>
		</g>
		<g>
			<text fill="#595959" font-family="Verdana,sans-serif" font-weight="400" font-size="41" transform="matrix(1 0 0 1 3052.5 410)">14,921</text>
		</g>
		<g>
			<text fill="#595959" font-family="Verdana,sans-serif" font-weight="400" font-size="41" transform="matrix(1 0 0 1 3544.5 1321)">Week Commencing</text>
		</g>
		<g>
			<text fill="#595959" font-family="Verdana,sans-serif" font-weight="400" font-size="46" transform="matrix(6.12323e-17 -1 1 6.12323e-17 3019.73 1030.75)">Number of Browser Profiles</text>
		</g>
		<rect x="2918.5" y="347.5" width="1760" height="1043" stroke="#D9D9D9" stroke-width="3.4375" stroke-linejoin="round" stroke-miterlimit="10" fill="none" />
		<g>
			<path d="M3228.5 1038 3249.4411764705883 1038 3270.3823529411766 1038 3291.323529411765 1038 3312.264705882353 1038 3333.205882352941 1038 3354.1470588235293 1038 3375.0882352941176 1038 3396.029411764706 1038 3416.970588235294 1038 3437.9117647058824 1038 3458.8529411764707 1038 3479.794117647059 1038 3500.735294117647 1038 3521.676470588235 1038 3542.6176470588234 1038 3563.5588235294117 1038 3584.5 1038 3605.4411764705883 1038 3626.3823529411766 1038 3647.323529411765 1038 3668.264705882353 1038 3689.205882352941 1038 3710.1470588235293 1038 3731.0882352941176 1038 3752.029411764706 1038 3772.970588235294 1038 3793.9117647058824 1038 3814.8529411764707 1038 3835.7941176470586 1038 3856.735294117647 1038 3877.676470588235 1038 3898.6176470588234 1038 3919.5588235294117 1038 3940.5 1038 3961.4411764705883 1038 3982.3823529411766 1038 4003.323529411765 1038 4024.264705882353 1038 4045.2058823529414 1038 4066.1470588235293 1038 4087.0882352941176 1038 4108.029411764706 1038 4128.970588235294 1038 4149.911764705882 1038 4170.85294117647 1038 4191.794117647059 1038 4212.735294117647 1038 4233.676470588235 1038 4254.617647058823 1038 4275.558823529412 1038 4296.5 1038 4296.5 534.7843978285638 4275.558823529412 535.9853897191877 4254.617647058823 536.9290262046779 4233.676470588235 537.52952214999 4212.735294117647 538.5160512030025 4191.794117647059 539.9743984987601 4170.85294117647 540.6177870115944 4149.911764705882 541.3469606594732 4128.970588235294 541.8616714697407 4108.029411764706 542.6337376851418 4087.0882352941176 543.1484484954092 4066.1470588235293 543.4486964680652 4045.2058823529414 544.4352255210777 4024.264705882353 545.1643991689565 4003.323529411765 546.7943167348033 3982.3823529411766 547.8666309228604 3961.4411764705883 548.5100194356946 3940.5 549.1534079485289 3919.5588235294117 550.0970444340192 3898.6176470588234 550.8691106494202 3877.676470588235 551.5982842972992 3856.735294117647 552.4990282152671 3835.7941176470586 553.8715903759802 3814.8529411764707 554.300516051203 3793.9117647058824 555.4157228067825 3772.970588235294 556.3593592922726 3752.029411764706 557.002747805107 3731.0882352941176 557.9463842905972 3710.1470588235293 558.5039876683868 3689.205882352941 559.1044836136989 3668.264705882353 560.0481200991891 3647.323529411765 560.8630788821124 3626.3823529411766 561.6351450975136 3605.4411764705883 562.1927484753032 3584.5 562.6216741505261 3563.5588235294117 563.050599825749 3542.6176470588234 564.0800214462838 3521.676470588235 564.8091950941625 3500.735294117647 565.5383687420415 3479.794117647059 566.6535754976207 3458.8529411764707 567.7258896856779 3437.9117647058824 568.7124187386905 3416.970588235294 569.1842369814356 3396.029411764706 569.7418403592253 3375.0882352941176 570.4281214395818 3354.1470588235293 571.7148984652504 3333.205882352941 572.872997788352 3312.264705882353 574.0310971114536 3291.323529411765 575.446551839689 3270.3823529411766 576.5188660277461 3249.4411764705883 577.5053950807587 3228.5 578.5348167012935 3228.5 1038Z" fill="#e62d39" opacity="0.9" />
		</g>
		<g>
			<path d="M3228.5 578.5348167012935 3249.4411764705883 577.5053950807587 3270.3823529411766 576.5188660277461 3291.323529411765 575.446551839689 3312.264705882353 574.0310971114536 3333.205882352941 572.872997788352 3354.1470588235293 571.7148984652504 3375.0882352941176 570.4281214395818 3396.029411764706 569.7418403592253 3416.970588235294 569.1842369814356 3437.9117647058824 568.7124187386905 3458.8529411764707 567.7258896856779 3479.794117647059 566.6535754976207 3500.735294117647 565.5383687420415 3521.676470588235 564.8091950941625 3542.6176470588234 564.0800214462838 3563.5588235294117 563.050599825749 3584.5 562.6216741505261 3605.4411764705883 562.1927484753032 3626.3823529411766 561.6351450975136 3647.323529411765 560.8630788821124 3668.264705882353 560.0481200991891 3689.205882352941 559.1044836136989 3710.1470588235293 558.5039876683868 3731.0882352941176 557.9463842905972 3752.029411764706 557.002747805107 3772.970588235294 556.3593592922726 3793.9117647058824 555.4157228067825 3814.8529411764707 554.300516051203 3835.7941176470586 553.8715903759802 3856.735294117647 552.4990282152671 3877.676470588235 551.5982842972992 3898.6176470588234 550.8691106494202 3919.5588235294117 550.0970444340192 3940.5 549.1534079485289 3961.4411764705883 548.5100194356946 3982.3823529411766 547.8666309228604 4003.323529411765 546.7943167348033 4024.264705882353 545.1643991689565 4045.2058823529414 544.4352255210777 4066.1470588235293 543.4486964680652 4087.0882352941176 543.1484484954092 4108.029411764706 542.6337376851418 4128.970588235294 541.8616714697407 4149.911764705882 541.3469606594732 4170.85294117647 540.6177870115944 4191.794117647059 539.9743984987601 4212.735294117647 538.5160512030025 4233.676470588235 537.52952214999 4254.617647058823 536.9290262046779 4275.558823529412 535.9853897191877 4296.5 534.7843978285638 4296.5 398 4275.558823529412 399.3296695931907 4254.617647058823 400.40198378124785 4233.676470588235 401.25983513169365 4212.735294117647 402.5037195898398 4191.794117647059 404.13363715568664 4170.85294117647 404.94859593860997 4149.911764705882 405.9351249916225 4128.970588235294 406.66429863950145 4108.029411764706 407.5650425574694 4087.0882352941176 408.1226459352591 4066.1470588235293 408.4228939079151 4045.2058823529414 409.5809932310167 4024.264705882353 410.5246297165069 4003.323529411765 412.4547952550097 3982.3823529411766 413.7844648482005 3961.4411764705883 414.6423161986462 3940.5 416.0577709268815 3919.5588235294117 417.21587024998325 3898.6176470588234 418.1595067354734 3877.676470588235 419.0602506534415 3856.735294117647 420.08967227397636 3835.7941176470586 421.5909121372563 3814.8529411764707 422.19140808256816 3793.9117647058824 423.60686281080365 3772.970588235294 424.7649621339052 3752.029411764706 425.57992091682877 3731.0882352941176 426.73802023993034 3710.1470588235293 427.3814087527645 3689.205882352941 428.2821526707326 3668.264705882353 429.31157429126733 3647.323529411765 430.2981033442798 3626.3823529411766 431.1988472622479 3605.4411764705883 431.75645064003754 3584.5 432.27116145030493 3563.5588235294117 433.0003350981839 3542.6176470588234 434.20132698880775 3521.676470588235 435.1020709067756 3500.735294117647 436.04570739226597 3479.794117647059 437.4611621205013 3458.8529411764707 438.7479391461698 3437.9117647058824 439.8631459017493 3416.970588235294 440.5065344145835 3396.029411764706 441.1928154949401 3375.0882352941176 442.0077742778634 3354.1470588235293 443.50901414114344 3333.205882352941 444.88157630185646 3312.264705882353 446.2541384625695 3291.323529411765 447.92694859593865 3270.3823529411766 449.21372562160707 3249.4411764705883 450.8007506199317 3228.5 452.34488305073387 3228.5 578.5348167012935Z" fill="#005aa6" opacity="0.9" />
		</g>
		<g>
			<rect x="4372" y="431" width="22.9995" height="23" fill="#e62d39" />
		</g>
		<g>
			<text fill="#595959" font-family="Verdana,sans-serif" font-weight="400" font-size="41" transform="matrix(1 0 0 1 4404.56 454)">Web Browser</text>
		</g>
		<g>
			<rect x="4372" y="508" width="22.9995" height="23" fill="#005aa6" />
		</g>
		<g>
			<text fill="#595959" font-family="Verdana,sans-serif" font-weight="400" font-size="41" transform="matrix(1 0 0 1 4404.56 531)">App</text>
		</g>
	</g>
</svg>
