<svg width="1763" height="1046"
    xmlns="http://www.w3.org/2000/svg"
	xmlns:xlink="http://www.w3.org/1999/xlink" xml:space="preserve" overflow="hidden">
	<defs>
		<clipPath id="clip0">
			<rect x="2917" y="346" width="1763" height="1046"/>
		</clipPath>
	</defs>
	<g clip-path="url(#clip0)" transform="translate(-2917 -346)">
		<rect x="2918" y="347" width="1760" height="1043" fill="#FFFFFF" />
		<g>
			<path d="
			M3228.5 974.532 4296.5 974.532
			M3228.5 910.53 4296.5 910.53
			M3228.5 846.528 4296.5 846.528
			M3228.5 781.526 4296.5 781.526
			M3228.5 717.524 4296.5 717.524
			M3228.5 653.522 4296.5 653.522
			M3228.5 589.52 4296.5 589.52
			M3228.5 525.517 4296.5 525.517
			M3228.5 461.515 4296.5 461.515
			M3228.5 397.5 4296.5 397.5" stroke="#D9D9D9" stroke-width="3.4375" stroke-linejoin="round" stroke-miterlimit="10" fill="none" />
		</g>
		<g>
			<path d="M 1038.5 4296.5 1038.5" stroke="#D9D9D9" stroke-width="3.4375" stroke-linejoin="round" stroke-miterlimit="10" fill="none" fill-rule="evenodd" />
		</g>
		<g>
			<text fill="#595959" font-family="Verdana,sans-serif" font-weight="400" font-size="41" transform="matrix(6.12323e-17 -1 1 6.12323e-17 3244.5 1225)">06-Nov</text>
		</g>
		<g>
			<text fill="#595959" font-family="Verdana,sans-serif" font-weight="400" font-size="41" transform="matrix(6.12323e-17 -1 1 6.12323e-17 3363.1666666666665 1223)">04-Dec</text>
		</g>
		<g>
			<text fill="#595959" font-family="Verdana,sans-serif" font-weight="400" font-size="41" transform="matrix(6.12323e-17 -1 1 6.12323e-17 3481.8333333333335 1210)">01-Jan</text>
		</g>
		<g>
			<text fill="#595959" font-family="Verdana,sans-serif" font-weight="400" font-size="41" transform="matrix(6.12323e-17 -1 1 6.12323e-17 3600.5 1210)">29-Jan</text>
		</g>
		<g>
			<text fill="#595959" font-family="Verdana,sans-serif" font-weight="400" font-size="41" transform="matrix(6.12323e-17 -1 1 6.12323e-17 3719.1666666666665 1216)">26-Feb</text>
		</g>
		<g>
			<text fill="#595959" font-family="Verdana,sans-serif" font-weight="400" font-size="41" transform="matrix(6.12323e-17 -1 1 6.12323e-17 3837.8333333333335 1223)">25-Mar</text>
		</g>
		<g>
			<text fill="#595959" font-family="Verdana,sans-serif" font-weight="400" font-size="41" transform="matrix(6.12323e-17 -1 1 6.12323e-17 3960 1216)">22-Apr</text>
		</g>
		<g>
			<text fill="#595959" font-family="Verdana,sans-serif" font-weight="400" font-size="41" transform="matrix(6.12323e-17 -1 1 6.12323e-17 4078.666666666667 1228)">20-May</text>
		</g>
		<g>
			<text fill="#595959" font-family="Verdana,sans-serif" font-weight="400" font-size="41" transform="matrix(6.12323e-17 -1 1 6.12323e-17 4193.333333333333 1209)">17-Jun</text>
		</g>
		<g>
			<text fill="#595959" font-family="Verdana,sans-serif" font-weight="400" font-size="41" transform="matrix(6.12323e-17 -1 1 6.12323e-17 4312.5 1194)">15-Jul</text>
		</g>
		<g>
			<text fill="#595959" font-family="Verdana,sans-serif" font-weight="400" font-size="41" transform="matrix(1 0 0 1 3123.5 1050)">0%</text>
		</g>
		<g>
			<text fill="#595959" font-family="Verdana,sans-serif" font-weight="400" font-size="41" transform="matrix(1 0 0 1 3097.5 922)">20%</text>
		</g>
		<g>
			<text fill="#595959" font-family="Verdana,sans-serif" font-weight="400" font-size="41" transform="matrix(1 0 0 1 3096.5 794)">40%</text>
		</g>
		<g>
			<text fill="#595959" font-family="Verdana,sans-serif" font-weight="400" font-size="41" transform="matrix(1 0 0 1 3097.5 666)">60%</text>
		</g>
		<g>
			<text fill="#595959" font-family="Verdana,sans-serif" font-weight="400" font-size="41" transform="matrix(1 0 0 1 3097.5 538)">80%</text>
		</g>
		<g>
			<text fill="#595959" font-family="Verdana,sans-serif" font-weight="400" font-size="41" transform="matrix(1 0 0 1 3074.5 410)">100%</text>
		</g>
		<g>
			<text fill="#595959" font-family="Verdana,sans-serif" font-weight="400" font-size="41" transform="matrix(1 0 0 1 3544.5 1321)">Week Commencing</text>
		</g>
		<g>
			<text fill="#595959" font-family="Verdana,sans-serif" font-weight="400" font-size="46" transform="matrix(6.12323e-17 -1 1 6.12323e-17 3019.73 965.25)">Requests (% of Total)</text>
		</g>
		<rect x="2918.5" y="347.5" width="1760" height="1043" stroke="#D9D9D9" stroke-width="3.4375" stroke-linejoin="round" stroke-miterlimit="10" fill="none" />
		<g>
			<path d="M3228.5 1038 3258.1666666666665 1038 3287.8333333333335 1038 3317.5 1038 3347.1666666666665 1038 3376.8333333333335 1038 3406.5 1038 3436.1666666666665 1038 3465.8333333333335 1038 3495.5 1038 3525.1666666666665 1038 3554.8333333333335 1038 3584.5 1038 3614.1666666666665 1038 3643.8333333333335 1038 3673.5 1038 3703.1666666666665 1038 3732.8333333333335 1038 3762.5 1038 3792.166666666667 1038 3821.8333333333335 1038 3851.5 1038 3881.166666666667 1038 3910.8333333333335 1038 3940.5 1038 3970.166666666667 1038 3999.8333333333335 1038 4029.5 1038 4059.166666666667 1038 4088.8333333333335 1038 4118.5 1038 4148.166666666667 1038 4177.833333333333 1038 4207.5 1038 4237.166666666667 1038 4266.833333333334 1038 4296.5 1038 4296.5 682.3232723398903 4266.833333333334 692.0678617680483 4237.166666666667 692.1617344671945 4207.5 692.8199164999976 4177.833333333333 693.1175071055251 4148.166666666667 693.279620378092 4118.5 693.7023667945714 4088.8333333333335 694.1241584254815 4059.166666666667 694.1818102912466 4029.5 694.1642138907431 3999.8333333333335 694.1125422243633 3970.166666666667 694.1000133322768 3940.5 694.3187105935212 3910.8333333333335 693.6205909506452 3881.166666666667 692.0050611605195 3851.5 690.3198452220047 3821.8333333333335 688.7547930560947 3792.166666666667 684.6952509793664 3762.5 679.1608039260515 3732.8333333333335 679.6019256256711 3703.1666666666665 682.3213957841157 3673.5 684.5298935912222 3643.8333333333335 686.5899201687104 3614.1666666666665 685.5922828206933 3584.5 684.727262331711 3554.8333333333335 682.4804542973092 3525.1666666666665 682.4034608977785 3495.5 678.1494953370828 3465.8333333333335 677.8971563273623 3436.1666666666665 676.2533828137863 3406.5 675.2989091940677 3376.8333333333335 677.8919622242556 3347.1666666666665 674.1657790475881 3317.5 672.9058970371336 3287.8333333333335 672.3854431659599 3258.1666666666665 672.4810692266187 3228.5 688.8585875798008 3228.5 1038Z" fill="#e62d39" opacity="0.9" />
		</g>
		<g>
			<path d="M3228.5 688.8585875798008 3258.1666666666665 672.4810692266187 3287.8333333333335 672.3854431659599 3317.5 672.9058970371336 3347.1666666666665 674.1657790475881 3376.8333333333335 677.8919622242556 3406.5 675.2989091940677 3436.1666666666665 676.2533828137863 3465.8333333333335 677.8971563273623 3495.5 678.1494953370828 3525.1666666666665 682.4034608977785 3554.8333333333335 682.4804542973092 3584.5 684.727262331711 3614.1666666666665 685.5922828206933 3643.8333333333335 686.5899201687104 3673.5 684.5298935912222 3703.1666666666665 682.3213957841157 3732.8333333333335 679.6019256256711 3762.5 679.1608039260515 3792.166666666667 684.6952509793664 3821.8333333333335 688.7547930560947 3851.5 690.3198452220047 3881.166666666667 692.0050611605195 3910.8333333333335 693.6205909506452 3940.5 694.3187105935212 3970.166666666667 694.1000133322768 3999.8333333333335 694.1125422243633 4029.5 694.1642138907431 4059.166666666667 694.1818102912466 4088.8333333333335 694.1241584254815 4118.5 693.7023667945714 4148.166666666667 693.279620378092 4177.833333333333 693.1175071055251 4207.5 692.8199164999976 4237.166666666667 692.1617344671945 4266.833333333334 692.0678617680483 4296.5 682.3232723398903 4296.5 439.03517502824866 4266.833333333334 438.2387094064713 4237.166666666667 437.86557118539895 4207.5 437.9037489834077 4177.833333333333 437.50828716559636 4148.166666666667 437.0430647748583 4118.5 436.55579203505033 4088.8333333333335 435.9902777401653 4059.166666666667 435.4750218802621 4029.5 434.9235826881617 3999.8333333333335 434.50854774480695 3970.166666666667 434.2228656036452 3940.5 433.89359402287107 3910.8333333333335 433.6904179753529 3881.166666666667 433.5882703257375 3851.5 433.47006547647834 3821.8333333333335 433.35408809308973 3792.166666666667 433.21208388667225 3762.5 422.122193997944 3732.8333333333335 421.6503463054078 3703.1666666666665 420.92160217406195 3673.5 420.29603101333674 3643.8333333333335 419.6100604377933 3614.1666666666665 419.2453958196608 3584.5 418.88543369630037 3554.8333333333335 418.3145443410057 3525.1666666666665 418.32121591329116 3495.5 418.1936065785876 3465.8333333333335 417.9836440524953 3436.1666666666665 417.6737817747089 3406.5 417.3462080305663 3376.8333333333335 417.2850488775972 3347.1666666666665 416.91367414087256 3317.5 416.74196033033303 3287.8333333333335 416.60514588840294 3258.1666666666665 416.52074620602923 3228.5 416.17089398429073 3228.5 688.8585875798008Z" fill="#005aa6" opacity="0.9" />
		</g>
		<g>
			<path d="M3228.5 416.17089398429073 3258.1666666666665 416.52074620602923 3287.8333333333335 416.60514588840294 3317.5 416.74196033033303 3347.1666666666665 416.91367414087256 3376.8333333333335 417.2850488775972 3406.5 417.3462080305663 3436.1666666666665 417.6737817747089 3465.8333333333335 417.9836440524953 3495.5 418.1936065785876 3525.1666666666665 418.32121591329116 3554.8333333333335 418.3145443410057 3584.5 418.88543369630037 3614.1666666666665 419.2453958196608 3643.8333333333335 419.6100604377933 3673.5 420.29603101333674 3703.1666666666665 420.92160217406195 3732.8333333333335 421.6503463054078 3762.5 422.122193997944 3792.166666666667 433.21208388667225 3821.8333333333335 433.35408809308973 3851.5 433.47006547647834 3881.166666666667 433.5882703257375 3910.8333333333335 433.6904179753529 3940.5 433.89359402287107 3970.166666666667 434.2228656036452 3999.8333333333335 434.50854774480695 4029.5 434.9235826881617 4059.166666666667 435.4750218802621 4088.8333333333335 435.9902777401653 4118.5 436.55579203505033 4148.166666666667 437.0430647748583 4177.833333333333 437.50828716559636 4207.5 437.9037489834077 4237.166666666667 437.86557118539895 4266.833333333334 438.2387094064713 4296.5 439.03517502824866 4296.5 397.99999999999994 4266.833333333334 398.00000000000006 4237.166666666667 398 4207.5 398 4177.833333333333 398.00000000000006 4148.166666666667 397.9999999999999 4118.5 398 4088.8333333333335 397.99999999999994 4059.166666666667 398 4029.5 398 3999.8333333333335 397.9999999999999 3970.166666666667 397.9999999999999 3940.5 398.0000000000001 3910.8333333333335 398 3881.166666666667 397.99999999999994 3851.5 398.00000000000006 3821.8333333333335 398 3792.166666666667 398 3762.5 398 3732.8333333333335 398.00000000000006 3703.1666666666665 398.00000000000006 3673.5 398.00000000000006 3643.8333333333335 398 3614.1666666666665 397.99999999999994 3584.5 398 3554.8333333333335 398 3525.1666666666665 398 3495.5 398 3465.8333333333335 398 3436.1666666666665 398 3406.5 398 3376.8333333333335 398.00000000000006 3347.1666666666665 398 3317.5 397.99999999999994 3287.8333333333335 398.00000000000006 3258.1666666666665 397.9999999999999 3228.5 397.9999999999999 3228.5 416.17089398429073Z" fill="#393d41" opacity="0.9" />
		</g>
		<g>
			<rect x="4372" y="431" width="22.9995" height="23" fill="#e62d39" />
		</g>
		<g>
			<text fill="#595959" font-family="Verdana,sans-serif" font-weight="400" font-size="41" transform="matrix(1 0 0 1 4404.56 454)">Web Browser</text>
		</g>
		<g>
			<rect x="4372" y="508" width="22.9995" height="23" fill="#005aa6" />
		</g>
		<g>
			<text fill="#595959" font-family="Verdana,sans-serif" font-weight="400" font-size="41" transform="matrix(1 0 0 1 4404.56 531)">App</text>
		</g>
		<g>
			<rect x="4372" y="585" width="22.9995" height="23" fill="#393d41" />
		</g>
		<g>
			<text fill="#595959" font-family="Verdana,sans-serif" font-weight="400" font-size="41" transform="matrix(1 0 0 1 4404.56 608)">Unclassified</text>
		</g>
	</g>
</svg>
