<svg width="1763" height="1046"
    xmlns="http://www.w3.org/2000/svg"
	xmlns:xlink="http://www.w3.org/1999/xlink" xml:space="preserve" overflow="hidden">
	<defs>
		<clipPath id="clip0">
			<rect x="2917" y="346" width="1763" height="1046"/>
		</clipPath>
	</defs>
	<g clip-path="url(#clip0)" transform="translate(-2917 -346)">
		<rect x="2918" y="347" width="1760" height="1043" fill="#FFFFFF" />
		<g>
			<path d="
			M3228.5 974.532 4296.5 974.532
			M3228.5 910.53 4296.5 910.53
			M3228.5 846.528 4296.5 846.528
			M3228.5 781.526 4296.5 781.526
			M3228.5 717.524 4296.5 717.524
			M3228.5 653.522 4296.5 653.522
			M3228.5 589.52 4296.5 589.52
			M3228.5 525.517 4296.5 525.517
			M3228.5 461.515 4296.5 461.515
			M3228.5 397.5 4296.5 397.5" stroke="#D9D9D9" stroke-width="3.4375" stroke-linejoin="round" stroke-miterlimit="10" fill="none" />
		</g>
		<g>
			<path d="M 1038.5 4296.5 1038.5" stroke="#D9D9D9" stroke-width="3.4375" stroke-linejoin="round" stroke-miterlimit="10" fill="none" fill-rule="evenodd" />
		</g>
		<g>
			<text fill="#595959" font-family="Verdana,sans-serif" font-weight="400" font-size="41" transform="matrix(6.12323e-17 -1 1 6.12323e-17 3244.5 1225)">06-Nov</text>
		</g>
		<g>
			<text fill="#595959" font-family="Verdana,sans-serif" font-weight="400" font-size="41" transform="matrix(6.12323e-17 -1 1 6.12323e-17 3370.1470588235293 1223)">04-Dec</text>
		</g>
		<g>
			<text fill="#595959" font-family="Verdana,sans-serif" font-weight="400" font-size="41" transform="matrix(6.12323e-17 -1 1 6.12323e-17 3495.794117647059 1210)">01-Jan</text>
		</g>
		<g>
			<text fill="#595959" font-family="Verdana,sans-serif" font-weight="400" font-size="41" transform="matrix(6.12323e-17 -1 1 6.12323e-17 3621.4411764705883 1210)">29-Jan</text>
		</g>
		<g>
			<text fill="#595959" font-family="Verdana,sans-serif" font-weight="400" font-size="41" transform="matrix(6.12323e-17 -1 1 6.12323e-17 3747.0882352941176 1216)">26-Feb</text>
		</g>
		<g>
			<text fill="#595959" font-family="Verdana,sans-serif" font-weight="400" font-size="41" transform="matrix(6.12323e-17 -1 1 6.12323e-17 3872.735294117647 1223)">25-Mar</text>
		</g>
		<g>
			<text fill="#595959" font-family="Verdana,sans-serif" font-weight="400" font-size="41" transform="matrix(6.12323e-17 -1 1 6.12323e-17 4001.8823529411766 1216)">22-Apr</text>
		</g>
		<g>
			<text fill="#595959" font-family="Verdana,sans-serif" font-weight="400" font-size="41" transform="matrix(6.12323e-17 -1 1 6.12323e-17 4127.529411764706 1228)">20-May</text>
		</g>
		<g>
			<text fill="#595959" font-family="Verdana,sans-serif" font-weight="400" font-size="41" transform="matrix(6.12323e-17 -1 1 6.12323e-17 4249.176470588235 1209)">17-Jun</text>
		</g>
		<g>
			<text fill="#595959" font-family="Verdana,sans-serif" font-weight="400" font-size="41" transform="matrix(1 0 0 1 3167.5 1050)">0</text>
		</g>
		<g>
			<text fill="#595959" font-family="Verdana,sans-serif" font-weight="400" font-size="41" transform="matrix(1 0 0 1 3076.5 922)">2,821</text>
		</g>
		<g>
			<text fill="#595959" font-family="Verdana,sans-serif" font-weight="400" font-size="41" transform="matrix(1 0 0 1 3075.5 794)">5,642</text>
		</g>
		<g>
			<text fill="#595959" font-family="Verdana,sans-serif" font-weight="400" font-size="41" transform="matrix(1 0 0 1 3074.5 666)">8,463</text>
		</g>
		<g>
			<text fill="#595959" font-family="Verdana,sans-serif" font-weight="400" font-size="41" transform="matrix(1 0 0 1 3050.5 538)">11,284</text>
		</g>
		<g>
			<text fill="#595959" font-family="Verdana,sans-serif" font-weight="400" font-size="41" transform="matrix(1 0 0 1 3051.5 410)">14,105</text>
		</g>
		<g>
			<text fill="#595959" font-family="Verdana,sans-serif" font-weight="400" font-size="41" transform="matrix(1 0 0 1 3544.5 1321)">Week Commencing</text>
		</g>
		<g>
			<text fill="#595959" font-family="Verdana,sans-serif" font-weight="400" font-size="46" transform="matrix(6.12323e-17 -1 1 6.12323e-17 3019.73 1030.75)">Number of Browser Profiles</text>
		</g>
		<rect x="2918.5" y="347.5" width="1760" height="1043" stroke="#D9D9D9" stroke-width="3.4375" stroke-linejoin="round" stroke-miterlimit="10" fill="none" />
		<g>
			<path d="M3228.5 1038 3259.9117647058824 1038 3291.323529411765 1038 3322.735294117647 1038 3354.1470588235293 1038 3385.5588235294117 1038 3416.970588235294 1038 3448.3823529411766 1038 3479.794117647059 1038 3511.205882352941 1038 3542.6176470588234 1038 3574.029411764706 1038 3605.4411764705883 1038 3636.8529411764707 1038 3668.264705882353 1038 3699.676470588235 1038 3731.0882352941176 1038 3762.5 1038 3793.9117647058824 1038 3825.323529411765 1038 3856.735294117647 1038 3888.1470588235293 1038 3919.5588235294117 1038 3950.970588235294 1038 3982.3823529411766 1038 4013.7941176470586 1038 4045.205882352941 1038 4076.6176470588234 1038 4108.029411764706 1038 4139.441176470588 1038 4170.85294117647 1038 4202.264705882353 1038 4233.676470588235 1038 4265.088235294117 1038 4296.5 1038 4296.5 535.5739099610067 4265.088235294117 536.6628855015952 4233.676470588235 537.4342431761786 4202.264705882353 538.2056008507622 4170.85294117647 539.3853243530663 4139.441176470588 540.5196738745126 4108.029411764706 541.5632754342432 4076.6176470588234 542.0623892236795 4045.205882352941 542.6522509748316 4013.7941176470586 543.3782346685573 3982.3823529411766 544.7394540942928 3950.970588235294 545.9645515774548 3919.5588235294117 547.1896490606168 3888.1470588235293 548.6869904289259 3856.735294117647 549.8213399503722 3825.323529411765 550.8649415101029 3793.9117647058824 551.9539170506912 3762.5 553.3605104572846 3731.0882352941176 555.6745834810351 3699.676470588235 556.1283232896136 3668.264705882353 556.4913151364765 3636.8529411764707 558.442396313364 3605.4411764705883 560.4388514711095 3574.029411764706 560.9833392414038 3542.6176470588234 561.8000708968451 3511.205882352941 562.4806806097129 3479.794117647059 562.75292449486 3448.3823529411766 562.75292449486 3416.970588235294 563.5242821694435 3385.5588235294117 563.978021978022 3354.1470588235293 564.5225097483162 3322.735294117647 565.4299893654733 3291.323529411765 566.2013470400567 3259.9117647058824 566.8819567529245 3228.5 567.3810705423609 3228.5 1038Z" fill="#e62d39" opacity="0.9" />
		</g>
		<g>
			<path d="M3228.5 567.3810705423609 3259.9117647058824 566.8819567529245 3291.323529411765 566.2013470400567 3322.735294117647 565.4299893654733 3354.1470588235293 564.5225097483162 3385.5588235294117 563.978021978022 3416.970588235294 563.5242821694435 3448.3823529411766 562.75292449486 3479.794117647059 562.75292449486 3511.205882352941 562.4806806097129 3542.6176470588234 561.8000708968451 3574.029411764706 560.9833392414038 3605.4411764705883 560.4388514711095 3636.8529411764707 558.442396313364 3668.264705882353 556.4913151364765 3699.676470588235 556.1283232896136 3731.0882352941176 555.6745834810351 3762.5 553.3605104572846 3793.9117647058824 551.9539170506912 3825.323529411765 550.8649415101029 3856.735294117647 549.8213399503722 3888.1470588235293 548.6869904289259 3919.5588235294117 547.1896490606168 3950.970588235294 545.9645515774548 3982.3823529411766 544.7394540942928 4013.7941176470586 543.3782346685573 4045.205882352941 542.6522509748316 4076.6176470588234 542.0623892236795 4108.029411764706 541.5632754342432 4139.441176470588 540.5196738745126 4170.85294117647 539.3853243530663 4202.264705882353 538.2056008507622 4233.676470588235 537.4342431761786 4265.088235294117 536.6628855015952 4296.5 535.5739099610067 4296.5 398 4265.088235294117 399.2704714640198 4233.676470588235 400.2233250620347 4202.264705882353 401.2215526409075 4170.85294117647 402.71889400921657 4139.441176470588 404.0801134349522 4108.029411764706 405.25983693725635 4076.6176470588234 405.940446650124 4045.205882352941 406.6664303438497 4013.7941176470586 407.52853598014894 3982.3823529411766 409.11662531017373 3950.970588235294 410.568592697625 3919.5588235294117 412.0205600850762 3888.1470588235293 413.79014533853245 3856.735294117647 415.151364764268 3825.323529411765 416.8302020560086 3793.9117647058824 418.4636653668911 3762.5 419.91563275434237 3731.0882352941176 422.50194966324 3699.676470588235 423.00106345267636 3668.264705882353 423.54555122297063 3636.8529411764707 425.76887628500526 3605.4411764705883 427.9014533853243 3574.029411764706 428.5820630981922 3542.6176470588234 429.62566465792275 3511.205882352941 430.44239631336404 3479.794117647059 430.8053881602269 3448.3823529411766 430.8053881602269 3416.970588235294 431.80361573909966 3385.5588235294117 432.4842254519674 3354.1470588235293 433.07408720311946 3322.735294117647 434.0723147819922 3291.323529411765 434.9797943991492 3259.9117647058824 435.97802197802196 3228.5 436.6586316908898 3228.5 567.3810705423609Z" fill="#005aa6" opacity="0.9" />
		</g>
		<g>
			<rect x="4372" y="431" width="22.9995" height="23" fill="#e62d39" />
		</g>
		<g>
			<text fill="#595959" font-family="Verdana,sans-serif" font-weight="400" font-size="41" transform="matrix(1 0 0 1 4404.56 454)">Web Browser</text>
		</g>
		<g>
			<rect x="4372" y="508" width="22.9995" height="23" fill="#005aa6" />
		</g>
		<g>
			<text fill="#595959" font-family="Verdana,sans-serif" font-weight="400" font-size="41" transform="matrix(1 0 0 1 4404.56 531)">App</text>
		</g>
	</g>
</svg>
