<svg width="1763" height="1046"
    xmlns="http://www.w3.org/2000/svg"
	xmlns:xlink="http://www.w3.org/1999/xlink" xml:space="preserve" overflow="hidden">
	<defs>
		<clipPath id="clip0">
			<rect x="2917" y="346" width="1763" height="1046"/>
		</clipPath>
	</defs>
	<g clip-path="url(#clip0)" transform="translate(-2917 -346)">
		<rect x="2918" y="347" width="1760" height="1043" fill="#FFFFFF" />
		<g>
			<path d="
			M3228.5 974.532 4296.5 974.532
			M3228.5 910.53 4296.5 910.53
			M3228.5 846.528 4296.5 846.528
			M3228.5 781.526 4296.5 781.526
			M3228.5 717.524 4296.5 717.524
			M3228.5 653.522 4296.5 653.522
			M3228.5 589.52 4296.5 589.52
			M3228.5 525.517 4296.5 525.517
			M3228.5 461.515 4296.5 461.515
			M3228.5 397.5 4296.5 397.5" stroke="#D9D9D9" stroke-width="3.4375" stroke-linejoin="round" stroke-miterlimit="10" fill="none" />
		</g>
		<g>
			<path d="M 1038.5 4296.5 1038.5" stroke="#D9D9D9" stroke-width="3.4375" stroke-linejoin="round" stroke-miterlimit="10" fill="none" fill-rule="evenodd" />
		</g>
		<g>
			<text fill="#595959" font-family="Verdana,sans-serif" font-weight="400" font-size="41" transform="matrix(6.12323e-17 -1 1 6.12323e-17 3244.5 1225)">06-Nov</text>
		</g>
		<g>
			<text fill="#595959" font-family="Verdana,sans-serif" font-weight="400" font-size="41" transform="matrix(6.12323e-17 -1 1 6.12323e-17 3373.9545454545455 1223)">04-Dec</text>
		</g>
		<g>
			<text fill="#595959" font-family="Verdana,sans-serif" font-weight="400" font-size="41" transform="matrix(6.12323e-17 -1 1 6.12323e-17 3503.409090909091 1210)">01-Jan</text>
		</g>
		<g>
			<text fill="#595959" font-family="Verdana,sans-serif" font-weight="400" font-size="41" transform="matrix(6.12323e-17 -1 1 6.12323e-17 3632.8636363636365 1210)">29-Jan</text>
		</g>
		<g>
			<text fill="#595959" font-family="Verdana,sans-serif" font-weight="400" font-size="41" transform="matrix(6.12323e-17 -1 1 6.12323e-17 3762.318181818182 1216)">26-Feb</text>
		</g>
		<g>
			<text fill="#595959" font-family="Verdana,sans-serif" font-weight="400" font-size="41" transform="matrix(6.12323e-17 -1 1 6.12323e-17 3891.7727272727275 1223)">25-Mar</text>
		</g>
		<g>
			<text fill="#595959" font-family="Verdana,sans-serif" font-weight="400" font-size="41" transform="matrix(6.12323e-17 -1 1 6.12323e-17 4024.727272727273 1216)">22-Apr</text>
		</g>
		<g>
			<text fill="#595959" font-family="Verdana,sans-serif" font-weight="400" font-size="41" transform="matrix(6.12323e-17 -1 1 6.12323e-17 4154.181818181818 1228)">20-May</text>
		</g>
		<g>
			<text fill="#595959" font-family="Verdana,sans-serif" font-weight="400" font-size="41" transform="matrix(6.12323e-17 -1 1 6.12323e-17 4279.636363636364 1209)">17-Jun</text>
		</g>
		<g>
			<text fill="#595959" font-family="Verdana,sans-serif" font-weight="400" font-size="41" transform="matrix(1 0 0 1 3167.5 1050)">0</text>
		</g>
		<g>
			<text fill="#595959" font-family="Verdana,sans-serif" font-weight="400" font-size="41" transform="matrix(1 0 0 1 3074.5 922)">2,815</text>
		</g>
		<g>
			<text fill="#595959" font-family="Verdana,sans-serif" font-weight="400" font-size="41" transform="matrix(1 0 0 1 3076.5 794)">5,631</text>
		</g>
		<g>
			<text fill="#595959" font-family="Verdana,sans-serif" font-weight="400" font-size="41" transform="matrix(1 0 0 1 3073.5 666)">8,446</text>
		</g>
		<g>
			<text fill="#595959" font-family="Verdana,sans-serif" font-weight="400" font-size="41" transform="matrix(1 0 0 1 3050.5 538)">11,262</text>
		</g>
		<g>
			<text fill="#595959" font-family="Verdana,sans-serif" font-weight="400" font-size="41" transform="matrix(1 0 0 1 3050.5 410)">14,077</text>
		</g>
		<g>
			<text fill="#595959" font-family="Verdana,sans-serif" font-weight="400" font-size="41" transform="matrix(1 0 0 1 3544.5 1321)">Week Commencing</text>
		</g>
		<g>
			<text fill="#595959" font-family="Verdana,sans-serif" font-weight="400" font-size="46" transform="matrix(6.12323e-17 -1 1 6.12323e-17 3019.73 1030.75)">Number of Browser Profiles</text>
		</g>
		<rect x="2918.5" y="347.5" width="1760" height="1043" stroke="#D9D9D9" stroke-width="3.4375" stroke-linejoin="round" stroke-miterlimit="10" fill="none" />
		<g>
			<path d="M3228.5 1038 3260.8636363636365 1038 3293.2272727272725 1038 3325.590909090909 1038 3357.9545454545455 1038 3390.318181818182 1038 3422.681818181818 1038 3455.0454545454545 1038 3487.409090909091 1038 3519.7727272727275 1038 3552.1363636363635 1038 3584.5 1038 3616.8636363636365 1038 3649.227272727273 1038 3681.590909090909 1038 3713.9545454545455 1038 3746.318181818182 1038 3778.681818181818 1038 3811.0454545454545 1038 3843.409090909091 1038 3875.7727272727275 1038 3908.136363636364 1038 3940.5 1038 3972.8636363636365 1038 4005.227272727273 1038 4037.590909090909 1038 4069.9545454545455 1038 4102.318181818182 1038 4134.681818181818 1038 4167.045454545455 1038 4199.409090909091 1038 4231.772727272727 1038 4264.136363636364 1038 4296.5 1038 4296.5 535.6656958158699 4264.136363636364 536.4385877672801 4231.772727272727 537.21147971869 4199.409090909091 538.3935497620232 4167.045454545455 539.5301555729204 4134.681818181818 540.5758329189458 4102.318181818182 541.0759394757406 4069.9545454545455 541.6669744974072 4037.590909090909 542.3944022163814 4005.227272727273 543.758329189458 3972.8636363636365 544.985863465227 3940.5 546.213397740996 3908.136363636364 547.7137174113802 3875.7727272727275 548.8503232222774 3843.409090909091 549.896000568303 3811.0454545454545 550.9871421467642 3778.681818181818 552.3965333522767 3746.318181818182 554.7152092065071 3713.9545454545455 555.169851530866 3681.590909090909 555.533565390353 3649.227272727273 557.4885273850963 3616.8636363636365 559.4889536122754 3584.5 560.034524401506 3552.1363636363635 560.8528805853521 3519.7727272727275 561.5348440718903 3487.409090909091 561.8076294665057 3455.0454545454545 561.8076294665057 3422.681818181818 562.5805214179159 3390.318181818182 563.0351637422747 3357.9545454545455 563.5807345315053 3325.590909090909 564.490019180223 3293.2272727272725 565.2629111316332 3260.8636363636365 565.9448746181715 3228.5 566.4449811749663 3228.5 1038Z" fill="#e62d39" opacity="0.9" />
		</g>
		<g>
			<path d="M3228.5 566.4449811749663 3260.8636363636365 565.9448746181715 3293.2272727272725 565.2629111316332 3325.590909090909 564.490019180223 3357.9545454545455 563.5807345315053 3390.318181818182 563.0351637422747 3422.681818181818 562.5805214179159 3455.0454545454545 561.8076294665057 3487.409090909091 561.8076294665057 3519.7727272727275 561.5348440718903 3552.1363636363635 560.8528805853521 3584.5 560.034524401506 3616.8636363636365 559.4889536122754 3649.227272727273 557.4885273850963 3681.590909090909 555.533565390353 3713.9545454545455 555.169851530866 3746.318181818182 554.7152092065071 3778.681818181818 552.3965333522767 3811.0454545454545 550.9871421467642 3843.409090909091 549.896000568303 3875.7727272727275 548.8503232222774 3908.136363636364 547.7137174113802 3940.5 546.213397740996 3972.8636363636365 544.985863465227 4005.227272727273 543.758329189458 4037.590909090909 542.3944022163814 4069.9545454545455 541.6669744974072 4102.318181818182 541.0759394757406 4134.681818181818 540.5758329189458 4167.045454545455 539.5301555729204 4199.409090909091 538.3935497620232 4231.772727272727 537.21147971869 4264.136363636364 536.4385877672801 4296.5 535.6656958158699 4296.5 398 4264.136363636364 398.95474888115376 4231.772727272727 399.9549619947432 4199.409090909091 401.4552816651276 4167.045454545455 402.81920863820426 4134.681818181818 404.0012786815373 4102.318181818182 404.6832421680756 4069.9545454545455 405.41066988704983 4037.590909090909 406.2744903033318 4005.227272727273 407.86573843858775 3972.8636363636365 409.32059387653624 3940.5 410.7754493144847 3908.136363636364 412.54855437948424 3875.7727272727275 413.9124813525609 3843.409090909091 415.59465795268886 3811.0454545454545 417.23137032038073 3778.681818181818 418.68622575832916 3746.318181818182 421.27768700717485 3713.9545454545455 421.7777935639697 3681.590909090909 422.32336435320025 3649.227272727273 424.5511117425588 3616.8636363636365 426.68793066704563 3584.5 427.3698941535839 3552.1363636363635 428.41557149960937 3519.7727272727275 429.2339276834553 3487.409090909091 429.59764154294237 3455.0454545454545 429.59764154294237 3422.681818181818 430.59785465653204 3390.318181818182 431.2798181430703 3357.9545454545455 431.8708531647368 3325.590909090909 432.87106627832634 3293.2272727272725 433.7803509270442 3260.8636363636365 434.7805640406337 3228.5 435.462527527172 3228.5 566.4449811749663Z" fill="#005aa6" opacity="0.9" />
		</g>
		<g>
			<rect x="4372" y="431" width="22.9995" height="23" fill="#e62d39" />
		</g>
		<g>
			<text fill="#595959" font-family="Verdana,sans-serif" font-weight="400" font-size="41" transform="matrix(1 0 0 1 4404.56 454)">Web Browser</text>
		</g>
		<g>
			<rect x="4372" y="508" width="22.9995" height="23" fill="#005aa6" />
		</g>
		<g>
			<text fill="#595959" font-family="Verdana,sans-serif" font-weight="400" font-size="41" transform="matrix(1 0 0 1 4404.56 531)">App</text>
		</g>
	</g>
</svg>
