<svg width="1763" height="1046"
    xmlns="http://www.w3.org/2000/svg"
	xmlns:xlink="http://www.w3.org/1999/xlink" xml:space="preserve" overflow="hidden">
	<defs>
		<clipPath id="clip0">
			<rect x="2917" y="346" width="1763" height="1046"/>
		</clipPath>
	</defs>
	<g clip-path="url(#clip0)" transform="translate(-2917 -346)">
		<rect x="2918" y="347" width="1760" height="1043" fill="#FFFFFF" />
		<g>
			<path d="
			M3228.5 974.532 4296.5 974.532
			M3228.5 910.53 4296.5 910.53
			M3228.5 846.528 4296.5 846.528
			M3228.5 781.526 4296.5 781.526
			M3228.5 717.524 4296.5 717.524
			M3228.5 653.522 4296.5 653.522
			M3228.5 589.52 4296.5 589.52
			M3228.5 525.517 4296.5 525.517
			M3228.5 461.515 4296.5 461.515
			M3228.5 397.5 4296.5 397.5" stroke="#D9D9D9" stroke-width="3.4375" stroke-linejoin="round" stroke-miterlimit="10" fill="none" />
		</g>
		<g>
			<path d="M 1038.5 4296.5 1038.5" stroke="#D9D9D9" stroke-width="3.4375" stroke-linejoin="round" stroke-miterlimit="10" fill="none" fill-rule="evenodd" />
		</g>
		<g>
			<text fill="#595959" font-family="Verdana,sans-serif" font-weight="400" font-size="41" transform="matrix(6.12323e-17 -1 1 6.12323e-17 3244.5 1225)">06-Nov</text>
		</g>
		<g>
			<text fill="#595959" font-family="Verdana,sans-serif" font-weight="400" font-size="41" transform="matrix(6.12323e-17 -1 1 6.12323e-17 3366.557142857143 1223)">04-Dec</text>
		</g>
		<g>
			<text fill="#595959" font-family="Verdana,sans-serif" font-weight="400" font-size="41" transform="matrix(6.12323e-17 -1 1 6.12323e-17 3488.614285714286 1210)">01-Jan</text>
		</g>
		<g>
			<text fill="#595959" font-family="Verdana,sans-serif" font-weight="400" font-size="41" transform="matrix(6.12323e-17 -1 1 6.12323e-17 3610.671428571429 1210)">29-Jan</text>
		</g>
		<g>
			<text fill="#595959" font-family="Verdana,sans-serif" font-weight="400" font-size="41" transform="matrix(6.12323e-17 -1 1 6.12323e-17 3732.7285714285713 1216)">26-Feb</text>
		</g>
		<g>
			<text fill="#595959" font-family="Verdana,sans-serif" font-weight="400" font-size="41" transform="matrix(6.12323e-17 -1 1 6.12323e-17 3854.785714285714 1223)">25-Mar</text>
		</g>
		<g>
			<text fill="#595959" font-family="Verdana,sans-serif" font-weight="400" font-size="41" transform="matrix(6.12323e-17 -1 1 6.12323e-17 3980.342857142857 1216)">22-Apr</text>
		</g>
		<g>
			<text fill="#595959" font-family="Verdana,sans-serif" font-weight="400" font-size="41" transform="matrix(6.12323e-17 -1 1 6.12323e-17 4102.4 1228)">20-May</text>
		</g>
		<g>
			<text fill="#595959" font-family="Verdana,sans-serif" font-weight="400" font-size="41" transform="matrix(6.12323e-17 -1 1 6.12323e-17 4220.457142857143 1209)">17-Jun</text>
		</g>
		<g>
			<text fill="#595959" font-family="Verdana,sans-serif" font-weight="400" font-size="41" transform="matrix(1 0 0 1 3167.5 1050)">0</text>
		</g>
		<g>
			<text fill="#595959" font-family="Verdana,sans-serif" font-weight="400" font-size="41" transform="matrix(1 0 0 1 3074.5 922)">2,824</text>
		</g>
		<g>
			<text fill="#595959" font-family="Verdana,sans-serif" font-weight="400" font-size="41" transform="matrix(1 0 0 1 3075.5 794)">5,649</text>
		</g>
		<g>
			<text fill="#595959" font-family="Verdana,sans-serif" font-weight="400" font-size="41" transform="matrix(1 0 0 1 3074.5 666)">8,473</text>
		</g>
		<g>
			<text fill="#595959" font-family="Verdana,sans-serif" font-weight="400" font-size="41" transform="matrix(1 0 0 1 3050.5 538)">11,298</text>
		</g>
		<g>
			<text fill="#595959" font-family="Verdana,sans-serif" font-weight="400" font-size="41" transform="matrix(1 0 0 1 3050.5 410)">14,122</text>
		</g>
		<g>
			<text fill="#595959" font-family="Verdana,sans-serif" font-weight="400" font-size="41" transform="matrix(1 0 0 1 3544.5 1321)">Week Commencing</text>
		</g>
		<g>
			<text fill="#595959" font-family="Verdana,sans-serif" font-weight="400" font-size="46" transform="matrix(6.12323e-17 -1 1 6.12323e-17 3019.73 1030.75)">Number of Browser Profiles</text>
		</g>
		<rect x="2918.5" y="347.5" width="1760" height="1043" stroke="#D9D9D9" stroke-width="3.4375" stroke-linejoin="round" stroke-miterlimit="10" fill="none" />
		<g>
			<path d="M3228.5 1038 3259.0142857142855 1038 3289.5285714285715 1038 3320.042857142857 1038 3350.557142857143 1038 3381.0714285714284 1038 3411.5857142857144 1038 3442.1 1038 3472.614285714286 1038 3503.1285714285714 1038 3533.6428571428573 1038 3564.157142857143 1038 3594.671428571429 1038 3625.1857142857143 1038 3655.7 1038 3686.214285714286 1038 3716.7285714285713 1038 3747.2428571428572 1038 3777.7571428571428 1038 3808.2714285714287 1038 3838.785714285714 1038 3869.3 1038 3899.8142857142857 1038 3930.328571428571 1038 3960.842857142857 1038 3991.357142857143 1038 4021.8714285714286 1038 4052.385714285714 1038 4082.9 1038 4113.414285714286 1038 4143.928571428572 1038 4174.442857142857 1038 4204.957142857143 1038 4235.471428571429 1038 4265.9857142857145 1038 4296.5 1038 4296.5 535.7255346268234 4265.9857142857145 536.1787282254638 4235.471428571429 537.2663928622009 4204.957142857143 538.0368219798895 4174.442857142857 538.8072510975783 4143.928571428572 539.9855544540434 4113.414285714286 541.1185384506443 4082.9 542.1608837275173 4052.385714285714 542.6593966860219 4021.8714285714286 543.2485483642544 3991.357142857143 543.9736581220791 3960.842857142857 545.3332389180002 3930.328571428571 546.5568616343294 3899.8142857142857 547.7804843506585 3869.3 549.2760232261719 3838.785714285714 550.409007222773 3808.2714285714287 551.451352499646 3777.7571428571428 552.539017136383 3747.2428571428572 553.9439172921683 3716.7285714285713 556.2552046452345 3686.214285714286 556.7083982438749 3655.7 557.0709531227872 3625.1857142857143 559.0196855969409 3594.671428571429 561.0137374309588 3564.157142857143 561.5575697493273 3533.6428571428573 562.3733182268801 3503.1285714285714 563.0531086248407 3472.614285714286 563.3250247840249 3442.1 563.3250247840249 3411.5857142857144 564.0954539017137 3381.0714285714284 564.548647500354 3350.557142857143 565.0924798187226 3320.042857142857 565.9988670160035 3289.5285714285715 566.7692961336921 3259.0142857142855 567.4490865316527 3228.5 567.9475994901572 3228.5 1038Z" fill="#e62d39" opacity="0.9" />
		</g>
		<g>
			<path d="M3228.5 567.9475994901572 3259.0142857142855 567.4490865316527 3289.5285714285715 566.7692961336921 3320.042857142857 565.9988670160035 3350.557142857143 565.0924798187226 3381.0714285714284 564.548647500354 3411.5857142857144 564.0954539017137 3442.1 563.3250247840249 3472.614285714286 563.3250247840249 3503.1285714285714 563.0531086248407 3533.6428571428573 562.3733182268801 3564.157142857143 561.5575697493273 3594.671428571429 561.0137374309588 3625.1857142857143 559.0196855969409 3655.7 557.0709531227872 3686.214285714286 556.7083982438749 3716.7285714285713 556.2552046452345 3747.2428571428572 553.9439172921683 3777.7571428571428 552.539017136383 3808.2714285714287 551.451352499646 3838.785714285714 550.409007222773 3869.3 549.2760232261719 3899.8142857142857 547.7804843506585 3930.328571428571 546.5568616343294 3960.842857142857 545.3332389180002 3991.357142857143 543.9736581220791 4021.8714285714286 543.2485483642544 4052.385714285714 542.6593966860219 4082.9 542.1608837275173 4113.414285714286 541.1185384506443 4143.928571428572 539.9855544540434 4174.442857142857 538.8072510975783 4204.957142857143 538.0368219798895 4235.471428571429 537.2663928622009 4265.9857142857145 536.1787282254638 4296.5 535.7255346268234 4296.5 398.00000000000006 4265.9857142857145 398.77042911768876 4235.471428571429 400.03937119388195 4204.957142857143 400.99107775102675 4174.442857142857 401.9881036680357 4143.928571428572 403.48364254354914 4113.414285714286 404.8432233394703 4082.9 406.02152669593545 4052.385714285714 406.70131709389614 4021.8714285714286 407.42642685172075 3991.357142857143 408.2874946891376 3960.842857142857 409.8736722843789 3930.328571428571 411.32389180002826 3899.8142857142857 412.77411131567766 3869.3 414.5415663503753 3838.785714285714 415.9011471462966 3808.2714285714287 417.5779634612661 3777.7571428571428 419.2094604163717 3747.2428571428572 420.65967993202105 3716.7285714285713 423.24288344427146 3686.214285714286 423.7413964027759 3655.7 424.28522872114434 3625.1857142857143 426.5058773544823 3594.671428571429 428.63588726809235 3564.157142857143 429.315677666053 3533.6428571428573 430.35802294292597 3503.1285714285714 431.1737714204787 3472.614285714286 431.536326299391 3442.1 431.536326299391 3411.5857142857144 432.5333522164 3381.0714285714284 433.21314261436055 3350.557142857143 433.80229429259316 3320.042857142857 434.7993202096021 3289.5285714285715 435.7057074068829 3259.0142857142855 436.7027333238918 3228.5 437.3825237218525 3228.5 567.9475994901572Z" fill="#005aa6" opacity="0.9" />
		</g>
		<g>
			<rect x="4372" y="431" width="22.9995" height="23" fill="#e62d39" />
		</g>
		<g>
			<text fill="#595959" font-family="Verdana,sans-serif" font-weight="400" font-size="41" transform="matrix(1 0 0 1 4404.56 454)">Web Browser</text>
		</g>
		<g>
			<rect x="4372" y="508" width="22.9995" height="23" fill="#005aa6" />
		</g>
		<g>
			<text fill="#595959" font-family="Verdana,sans-serif" font-weight="400" font-size="41" transform="matrix(1 0 0 1 4404.56 531)">App</text>
		</g>
	</g>
</svg>
