<svg width="1763" height="1046"
    xmlns="http://www.w3.org/2000/svg"
	xmlns:xlink="http://www.w3.org/1999/xlink" xml:space="preserve" overflow="hidden">
	<defs>
		<clipPath id="clip0">
			<rect x="2917" y="346" width="1763" height="1046"/>
		</clipPath>
	</defs>
	<g clip-path="url(#clip0)" transform="translate(-2917 -346)">
		<rect x="2918" y="347" width="1760" height="1043" fill="#FFFFFF" />
		<g>
			<path d="
			M3228.5 974.532 4296.5 974.532
			M3228.5 910.53 4296.5 910.53
			M3228.5 846.528 4296.5 846.528
			M3228.5 781.526 4296.5 781.526
			M3228.5 717.524 4296.5 717.524
			M3228.5 653.522 4296.5 653.522
			M3228.5 589.52 4296.5 589.52
			M3228.5 525.517 4296.5 525.517
			M3228.5 461.515 4296.5 461.515
			M3228.5 397.5 4296.5 397.5" stroke="#D9D9D9" stroke-width="3.4375" stroke-linejoin="round" stroke-miterlimit="10" fill="none" />
		</g>
		<g>
			<path d="M 1038.5 4296.5 1038.5" stroke="#D9D9D9" stroke-width="3.4375" stroke-linejoin="round" stroke-miterlimit="10" fill="none" fill-rule="evenodd" />
		</g>
		<g>
			<text fill="#595959" font-family="Verdana,sans-serif" font-weight="400" font-size="41" transform="matrix(6.12323e-17 -1 1 6.12323e-17 3244.5 1227)">06-Nov</text>
		</g>
		<g>
			<text fill="#595959" font-family="Verdana,sans-serif" font-weight="400" font-size="41" transform="matrix(6.12323e-17 -1 1 6.12323e-17 3329.94 1226)">20-Nov</text>
		</g>
		<g>
			<text fill="#595959" font-family="Verdana,sans-serif" font-weight="400" font-size="41" transform="matrix(6.12323e-17 -1 1 6.12323e-17 3415.38 1225)">04-Dec</text>
		</g>
		<g>
			<text fill="#595959" font-family="Verdana,sans-serif" font-weight="400" font-size="41" transform="matrix(6.12323e-17 -1 1 6.12323e-17 3500.82 1222)">18-Dec</text>
		</g>
		<g>
			<text fill="#595959" font-family="Verdana,sans-serif" font-weight="400" font-size="41" transform="matrix(6.12323e-17 -1 1 6.12323e-17 3586.26 1212)">01-Jan</text>
		</g>
		<g>
			<text fill="#595959" font-family="Verdana,sans-serif" font-weight="400" font-size="41" transform="matrix(6.12323e-17 -1 1 6.12323e-17 3671.2 1209)">15-Jan</text>
		</g>
		<g>
			<text fill="#595959" font-family="Verdana,sans-serif" font-weight="400" font-size="41" transform="matrix(6.12323e-17 -1 1 6.12323e-17 3757.14 1211)">29-Jan</text>
		</g>
		<g>
			<text fill="#595959" font-family="Verdana,sans-serif" font-weight="400" font-size="41" transform="matrix(6.12323e-17 -1 1 6.12323e-17 3842.58 1216)">12-Feb</text>
		</g>
		<g>
			<text fill="#595959" font-family="Verdana,sans-serif" font-weight="400" font-size="41" transform="matrix(6.12323e-17 -1 1 6.12323e-17 3928.02 1218)">26-Feb</text>
		</g>
		<g>
			<text fill="#595959" font-family="Verdana,sans-serif" font-weight="400" font-size="41" transform="matrix(6.12323e-17 -1 1 6.12323e-17 4012.96 1222)">11-Mar</text>
		</g>
		<g>
			<text fill="#595959" font-family="Verdana,sans-serif" font-weight="400" font-size="41" transform="matrix(6.12323e-17 -1 1 6.12323e-17 4098.9 1225)">25-Mar</text>
		</g>
		<g>
			<text fill="#595959" font-family="Verdana,sans-serif" font-weight="400" font-size="41" transform="matrix(6.12323e-17 -1 1 6.12323e-17 4187.84 1218)">08-Apr</text>
		</g>
		<g>
			<text fill="#595959" font-family="Verdana,sans-serif" font-weight="400" font-size="41" transform="matrix(6.12323e-17 -1 1 6.12323e-17 4273.28 1218)">22-Apr</text>
		</g>
		<g>
			<text fill="#595959" font-family="Verdana,sans-serif" font-weight="400" font-size="41" transform="matrix(1 0 0 1 3167.5 1050)">0</text>
		</g>
		<g>
			<text fill="#595959" font-family="Verdana,sans-serif" font-weight="400" font-size="41" transform="matrix(1 0 0 1 3073.5 922)">2,779</text>
		</g>
		<g>
			<text fill="#595959" font-family="Verdana,sans-serif" font-weight="400" font-size="41" transform="matrix(1 0 0 1 3073.5 794)">5,558</text>
		</g>
		<g>
			<text fill="#595959" font-family="Verdana,sans-serif" font-weight="400" font-size="41" transform="matrix(1 0 0 1 3072.5 666)">8,337</text>
		</g>
		<g>
			<text fill="#595959" font-family="Verdana,sans-serif" font-weight="400" font-size="41" transform="matrix(1 0 0 1 3048.5 538)">11,116</text>
		</g>
		<g>
			<text fill="#595959" font-family="Verdana,sans-serif" font-weight="400" font-size="41" transform="matrix(1 0 0 1 3049.5 410)">13,895</text>
		</g>
		<g>
			<text fill="#595959" font-family="Verdana,sans-serif" font-weight="400" font-size="41" transform="matrix(1 0 0 1 3541.5 1321)">Week Commencing</text>
		</g>
		<g>
			<text fill="#595959" font-family="Verdana,sans-serif" font-weight="400" font-size="46" transform="matrix(6.12323e-17 -1 1 6.12323e-17 3019.73 1035.25)">Number of Browser Profiles</text>
		</g>
		<rect x="2918.5" y="347.5" width="1760" height="1043" stroke="#D9D9D9" stroke-width="3.4375" stroke-linejoin="round" stroke-miterlimit="10" fill="none" />
		<g>
			<path d="M3228.5 1038 3271.22 1038 3313.94 1038 3356.66 1038 3399.38 1038 3442.1 1038 3484.82 1038 3527.54 1038 3570.26 1038 3612.98 1038 3655.7 1038 3698.42 1038 3741.14 1038 3783.86 1038 3826.58 1038 3869.3 1038 3912.02 1038 3954.74 1038 3997.46 1038 4040.18 1038 4082.9 1038 4125.62 1038 4168.34 1038 4211.0599999999995 1038 4253.78 1038 4296.5 1038 4296.5 535.9028427491903 4253.78 537.2846347607053 4211.0599999999995 538.5282475710687 4168.34 539.7718603814321 4125.62 541.2918315940987 4082.9 542.4433249370277 4040.18 543.5026988125226 3997.46 544.6081324217345 3954.74 546.0359841669665 3912.02 548.3850305865419 3869.3 548.8456279237137 3826.58 549.2141057934509 3783.86 551.194674343289 3741.14 553.2213026268442 3698.42 553.7740194314501 3655.7 554.6030946383592 3612.98 555.2939906441165 3570.26 555.5703490464196 3527.54 555.5703490464196 3484.82 556.3533645196114 3442.1 556.8139618567831 3399.38 557.366678661389 3356.66 558.2878733357322 3313.94 559.0708888089241 3271.22 559.7617848146815 3228.5 560.2684418855704 3228.5 1038Z" fill="#e62d39" opacity="0.9" />
		</g>
		<g>
			<path d="M3228.5 560.2684418855704 3271.22 559.7617848146815 3313.94 559.0708888089241 3356.66 558.2878733357322 3399.38 557.366678661389 3442.1 556.8139618567831 3484.82 556.3533645196114 3527.54 555.5703490464196 3570.26 555.5703490464196 3612.98 555.2939906441165 3655.7 554.6030946383592 3698.42 553.7740194314501 3741.14 553.2213026268442 3783.86 551.194674343289 3826.58 549.2141057934509 3869.3 548.8456279237137 3912.02 548.3850305865419 3954.74 546.0359841669665 3997.46 544.6081324217345 4040.18 543.5026988125226 4082.9 542.4433249370277 4125.62 541.2918315940987 4168.34 539.7718603814321 4211.0599999999995 538.5282475710687 4253.78 537.2846347607053 4296.5 535.9028427491903 4296.5 398 4253.78 399.6120906801008 4211.0599999999995 401.08600215905005 4168.34 402.5599136379992 4125.62 404.35624325296874 4082.9 405.73803526448364 4040.18 407.4422454120188 3997.46 409.1003958258367 3954.74 410.57430730478586 3912.02 413.1997121266643 3869.3 413.70636919755316 3826.58 414.2590860021591 3783.86 416.5160129543001 3741.14 418.6808204390069 3698.42 419.3717164447643 3655.7 420.43109032025916 3612.98 421.26016552716806 3570.26 421.6286433969053 3527.54 421.6286433969053 3484.82 422.6419575386831 3442.1 423.33285354444047 3399.38 423.9316300827636 3356.66 424.94494422454113 3313.94 425.8661388988845 3271.22 426.87945304066204 3228.5 427.5703490464196 3228.5 560.2684418855704Z" fill="#005aa6" opacity="0.9" />
		</g>
		<g>
			<rect x="4372" y="431" width="22.9995" height="23" fill="#e62d39" />
		</g>
		<g>
			<text fill="#595959" font-family="Verdana,sans-serif" font-weight="400" font-size="41" transform="matrix(1 0 0 1 4404.56 454)">Web Browser</text>
		</g>
		<g>
			<rect x="4372" y="508" width="22.9995" height="23" fill="#005aa6" />
		</g>
		<g>
			<text fill="#595959" font-family="Verdana,sans-serif" font-weight="400" font-size="41" transform="matrix(1 0 0 1 4404.56 531)">App</text>
		</g>
	</g>
</svg>
