<svg width="1763" height="1046"
    xmlns="http://www.w3.org/2000/svg"
	xmlns:xlink="http://www.w3.org/1999/xlink" xml:space="preserve" overflow="hidden">
	<defs>
		<clipPath id="clip0">
			<rect x="2917" y="346" width="1763" height="1046"/>
		</clipPath>
	</defs>
	<g clip-path="url(#clip0)" transform="translate(-2917 -346)">
		<rect x="2918" y="347" width="1760" height="1043" fill="#FFFFFF" />
		<g>
			<path d="
			M3228.5 974.532 4296.5 974.532
			M3228.5 910.53 4296.5 910.53
			M3228.5 846.528 4296.5 846.528
			M3228.5 781.526 4296.5 781.526
			M3228.5 717.524 4296.5 717.524
			M3228.5 653.522 4296.5 653.522
			M3228.5 589.52 4296.5 589.52
			M3228.5 525.517 4296.5 525.517
			M3228.5 461.515 4296.5 461.515
			M3228.5 397.5 4296.5 397.5" stroke="#D9D9D9" stroke-width="3.4375" stroke-linejoin="round" stroke-miterlimit="10" fill="none" />
		</g>
		<g>
			<path d="M 1038.5 4296.5 1038.5" stroke="#D9D9D9" stroke-width="3.4375" stroke-linejoin="round" stroke-miterlimit="10" fill="none" fill-rule="evenodd" />
		</g>
		<g>
			<text fill="#595959" font-family="Verdana,Open Sans,DejaVu Sans,sans-serif" font-weight="400" font-size="41" transform="matrix(6.12323e-17 -1 1 6.12323e-17 3243.564697265625 1201.1401290893555)">28-Oct</text>
		</g>
		<g>
			<text fill="#595959" font-family="Verdana,Open Sans,DejaVu Sans,sans-serif" font-weight="400" font-size="41" transform="matrix(6.12323e-17 -1 1 6.12323e-17 3328.984677734375 1211.47021484375)">25-Nov</text>
		</g>
		<g>
			<text fill="#595959" font-family="Verdana,Open Sans,DejaVu Sans,sans-serif" font-weight="400" font-size="41" transform="matrix(6.12323e-17 -1 1 6.12323e-17 3414.444697265625 1207.24609375)">30-Dec</text>
		</g>
		<g>
			<text fill="#595959" font-family="Verdana,Open Sans,DejaVu Sans,sans-serif" font-weight="400" font-size="41" transform="matrix(6.12323e-17 -1 1 6.12323e-17 3503.5182421875 1191.6909103393555)">27-Jan</text>
		</g>
		<g>
			<text fill="#595959" font-family="Verdana,Open Sans,DejaVu Sans,sans-serif" font-weight="400" font-size="41" transform="matrix(6.12323e-17 -1 1 6.12323e-17 3586.035390625 1203.08203125)">24-Feb</text>
		</g>
		<g>
			<text fill="#595959" font-family="Verdana,Open Sans,DejaVu Sans,sans-serif" font-weight="400" font-size="41" transform="matrix(6.12323e-17 -1 1 6.12323e-17 3670.744677734375 1212.05078125)">24-Mar</text>
		</g>
		<g>
			<text fill="#595959" font-family="Verdana,Open Sans,DejaVu Sans,sans-serif" font-weight="400" font-size="41" transform="matrix(6.12323e-17 -1 1 6.12323e-17 3760.909287109375 1203.3022384643555)">21-Apr</text>
		</g>
		<g>
			<text fill="#595959" font-family="Verdana,Open Sans,DejaVu Sans,sans-serif" font-weight="400" font-size="41" transform="matrix(6.12323e-17 -1 1 6.12323e-17 3846.349287109375 1214.75341796875)">19-May</text>
		</g>
		<g>
			<text fill="#595959" font-family="Verdana,Open Sans,DejaVu Sans,sans-serif" font-weight="400" font-size="41" transform="matrix(6.12323e-17 -1 1 6.12323e-17 3930.7182421875 1194.0532150268555)">23-Jun</text>
		</g>
		<g>
			<text fill="#595959" font-family="Verdana,Open Sans,DejaVu Sans,sans-serif" font-weight="400" font-size="41" transform="matrix(6.12323e-17 -1 1 6.12323e-17 4016.888955078125 1179.0385665893555)">21-Jul</text>
		</g>
		<g>
			<text fill="#595959" font-family="Verdana,Open Sans,DejaVu Sans,sans-serif" font-weight="400" font-size="41" transform="matrix(6.12323e-17 -1 1 6.12323e-17 4102.669287109375 1206.90576171875)">18-Aug</text>
		</g>
		<g>
			<text fill="#595959" font-family="Verdana,Open Sans,DejaVu Sans,sans-serif" font-weight="400" font-size="41" transform="matrix(6.12323e-17 -1 1 6.12323e-17 4188.109287109375 1202.66162109375)">15-Sep</text>
		</g>
		<g>
			<text fill="#595959" font-family="Verdana,Open Sans,DejaVu Sans,sans-serif" font-weight="400" font-size="41" transform="matrix(6.12323e-17 -1 1 6.12323e-17 4268.844697265625 1199.3784103393555)">13-Oct</text>
		</g>
		<g>
			<text fill="#595959" font-family="Verdana,Open Sans,DejaVu Sans,sans-serif" font-weight="400" font-size="41" transform="matrix(1 0 0 1 3169.14111328125 1050)">0</text>
		</g>
		<g>
			<text fill="#595959" font-family="Verdana,Open Sans,DejaVu Sans,sans-serif" font-weight="400" font-size="41" transform="matrix(1 0 0 1 3088.5625 922)">3,166</text>
		</g>
		<g>
			<text fill="#595959" font-family="Verdana,Open Sans,DejaVu Sans,sans-serif" font-weight="400" font-size="41" transform="matrix(1 0 0 1 3089.42333984375 794)">6,333</text>
		</g>
		<g>
			<text fill="#595959" font-family="Verdana,Open Sans,DejaVu Sans,sans-serif" font-weight="400" font-size="41" transform="matrix(1 0 0 1 3089.0029296875 666)">9,499</text>
		</g>
		<g>
			<text fill="#595959" font-family="Verdana,Open Sans,DejaVu Sans,sans-serif" font-weight="400" font-size="41" transform="matrix(1 0 0 1 3067.0014724731445 538)">12,666</text>
		</g>
		<g>
			<text fill="#595959" font-family="Verdana,Open Sans,DejaVu Sans,sans-serif" font-weight="400" font-size="41" transform="matrix(1 0 0 1 3067.2016677856445 410)">15,832</text>
		</g>
		<g>
			<text fill="#595959" font-family="Verdana,Open Sans,DejaVu Sans,sans-serif" font-weight="400" font-size="41" transform="matrix(1 0 0 1 3556.97119140625 1321)">Week Commencing</text>
		</g>
		<g>
			<text fill="#595959" font-family="Verdana,Open Sans,DejaVu Sans,sans-serif" font-weight="400" font-size="46" transform="matrix(6.12323e-17 -1 1 6.12323e-17 3019.73 1011.673828125)">Number of Browser Profiles</text>
		</g>
		<rect x="2918.5" y="347.5" width="1760" height="1043" stroke="#D9D9D9" stroke-width="3.4375" stroke-linejoin="round" stroke-miterlimit="10" fill="none" />
		<g>
			<path d="M3228.5 1038 3249.86 1038 3271.22 1038 3292.58 1038 3313.94 1038 3335.3 1038 3356.66 1038 3378.02 1038 3399.38 1038 3420.74 1038 3442.1 1038 3463.46 1038 3484.82 1038 3506.18 1038 3527.54 1038 3548.9 1038 3570.26 1038 3591.62 1038 3612.98 1038 3634.34 1038 3655.7 1038 3677.06 1038 3698.42 1038 3719.7799999999997 1038 3741.14 1038 3762.5 1038 3783.86 1038 3805.2200000000003 1038 3826.58 1038 3847.94 1038 3869.3 1038 3890.66 1038 3912.02 1038 3933.38 1038 3954.74 1038 3976.1 1038 3997.46 1038 4018.8199999999997 1038 4040.18 1038 4061.54 1038 4082.9 1038 4104.26 1038 4125.62 1038 4146.98 1038 4168.34 1038 4189.7 1038 4211.0599999999995 1038 4232.42 1038 4253.78 1038 4275.139999999999 1038 4296.5 1038 4296.5 532.977261243052 4275.139999999999 534.3516927741283 4253.78 534.4729661445174 4232.42 535.3623041940374 4211.0599999999995 536.4133400707428 4189.7 537.7473471450228 4168.34 538.4749873673572 4146.98 539.121778676099 4125.62 540.4153612935826 4104.26 541.2642748863062 4082.9 542.1940373926225 4061.54 543.2046488125316 4040.18 544.0131379484587 4018.8199999999997 544.7812026275897 3997.46 545.6705406771096 3976.1 546.0747852450733 3954.74 547.0853966649822 3933.38 548.4194037392622 3912.02 549.0257705912077 3890.66 550.1980798383022 3869.3 551.5725113693784 3847.94 553.2299140980292 3826.58 554.3617988883275 3805.2200000000003 555.4532592218292 3783.86 556.3830217281455 3762.5 557.2319353208691 3741.14 558.2021222839818 3719.7799999999997 559.0914603335018 3698.42 560.5871652349672 3677.06 561.2339565437089 3655.7 561.8807478524507 3634.34 562.6488125315816 3612.98 563.7402728650834 3591.62 564.8721576553814 3570.26 565.7614957049014 3548.9 566.3274381000506 3527.54 567.2572006063668 3506.18 568.6316321374431 3484.82 569.2379989893886 3463.46 569.9252147549266 3442.1 570.410308236483 3420.74 571.1379484588176 3399.38 571.6230419403739 3378.02 571.9060131379484 3356.66 572.8357756442647 3335.3 573.5229914098029 3313.94 575.0591207680646 3292.58 576.0697321879737 3271.22 576.6760990399191 3249.86 577.2824658918646 3228.5 578.1718039413845 3228.5 1038Z" fill="#e62d39" opacity="0.9" />
		</g>
		<g>
			<path d="M3228.5 578.1718039413845 3249.86 577.2824658918646 3271.22 576.6760990399191 3292.58 576.0697321879737 3313.94 575.0591207680646 3335.3 573.5229914098029 3356.66 572.8357756442647 3378.02 571.9060131379484 3399.38 571.6230419403739 3420.74 571.1379484588176 3442.1 570.410308236483 3463.46 569.9252147549266 3484.82 569.2379989893886 3506.18 568.6316321374431 3527.54 567.2572006063668 3548.9 566.3274381000506 3570.26 565.7614957049014 3591.62 564.8721576553814 3612.98 563.7402728650834 3634.34 562.6488125315816 3655.7 561.8807478524507 3677.06 561.2339565437089 3698.42 560.5871652349672 3719.7799999999997 559.0914603335018 3741.14 558.2021222839818 3762.5 557.2319353208691 3783.86 556.3830217281455 3805.2200000000003 555.4532592218292 3826.58 554.3617988883275 3847.94 553.2299140980292 3869.3 551.5725113693784 3890.66 550.1980798383022 3912.02 549.0257705912077 3933.38 548.4194037392622 3954.74 547.0853966649822 3976.1 546.0747852450733 3997.46 545.6705406771096 4018.8199999999997 544.7812026275897 4040.18 544.0131379484587 4061.54 543.2046488125316 4082.9 542.1940373926225 4104.26 541.2642748863062 4125.62 540.4153612935826 4146.98 539.121778676099 4168.34 538.4749873673572 4189.7 537.7473471450228 4211.0599999999995 536.4133400707428 4232.42 535.3623041940374 4253.78 534.4729661445174 4275.139999999999 534.3516927741283 4296.5 532.977261243052 4296.5 397.99999999999994 4275.139999999999 399.53612935826175 4253.78 399.6978271854472 4232.42 400.8701364325417 4211.0599999999995 402.0424456796362 4189.7 403.57857503789796 4168.34 404.46791308741786 4146.98 405.27640222334503 4125.62 406.65083375442134 4104.26 407.70186963112684 4082.9 408.7124810510358 4061.54 410.0869125821122 4040.18 410.97625063163207 4018.8199999999997 411.98686205154115 3997.46 412.9974734714501 3976.1 413.68468923698833 3954.74 415.01869631126823 3933.38 416.55482566953 3912.02 417.2824658918646 3890.66 418.5760485093482 3869.3 420.07175341081347 3847.94 422.2950985346133 3826.58 423.6291056088934 3805.2200000000003 424.9631126831733 3783.86 426.0545730166751 3762.5 427.02475997978775 3741.14 428.19706922688226 3719.7799999999997 429.2481051035877 3698.42 430.9459322890349 3677.06 431.7948458817584 3655.7 432.5224861040929 3634.34 433.4118241536129 3612.98 434.8266801414856 3591.62 436.0798383021728 3570.26 437.09044972208187 3548.9 437.89893885800916 3527.54 439.07124810510356 3506.18 440.6073774633653 3484.82 441.37544214249624 3463.46 442.30520464881243 3442.1 442.99242041435065 3420.74 443.8413340070743 3399.38 444.36685194542696 3378.02 444.64982314300147 3356.66 445.7412834765032 3335.3 446.6306215260232 3313.94 448.4497220818595 3292.58 449.7028802425467 3271.22 450.51136937847394 3249.86 451.84537645275395 3228.5 452.93683678625564 3228.5 578.1718039413845Z" fill="#005aa6" opacity="0.9" />
		</g>
		<g>
			<rect x="4372" y="431" width="22.9995" height="23" fill="#e62d39" />
		</g>
		<g>
			<text fill="#595959" font-family="Verdana,Open Sans,DejaVu Sans,sans-serif" font-weight="400" font-size="41" transform="matrix(1 0 0 1 4404.56 454)">Web Browser</text>
		</g>
		<g>
			<rect x="4372" y="508" width="22.9995" height="23" fill="#005aa6" />
		</g>
		<g>
			<text fill="#595959" font-family="Verdana,Open Sans,DejaVu Sans,sans-serif" font-weight="400" font-size="41" transform="matrix(1 0 0 1 4404.56 531)">App</text>
		</g>
	</g>
</svg>
