<svg width="1763" height="1046"
    xmlns="http://www.w3.org/2000/svg"
	xmlns:xlink="http://www.w3.org/1999/xlink" xml:space="preserve" overflow="hidden">
	<defs>
		<clipPath id="clip0">
			<rect x="2917" y="346" width="1763" height="1046"/>
		</clipPath>
	</defs>
	<g clip-path="url(#clip0)" transform="translate(-2917 -346)">
		<rect x="2918" y="347" width="1760" height="1043" fill="#FFFFFF" />
		<g>
			<path d="
			M3228.5 974.532 4296.5 974.532
			M3228.5 910.53 4296.5 910.53
			M3228.5 846.528 4296.5 846.528
			M3228.5 781.526 4296.5 781.526
			M3228.5 717.524 4296.5 717.524
			M3228.5 653.522 4296.5 653.522
			M3228.5 589.52 4296.5 589.52
			M3228.5 525.517 4296.5 525.517
			M3228.5 461.515 4296.5 461.515
			M3228.5 397.5 4296.5 397.5" stroke="#D9D9D9" stroke-width="3.4375" stroke-linejoin="round" stroke-miterlimit="10" fill="none" />
		</g>
		<g>
			<path d="M 1038.5 4296.5 1038.5" stroke="#D9D9D9" stroke-width="3.4375" stroke-linejoin="round" stroke-miterlimit="10" fill="none" fill-rule="evenodd" />
		</g>
		<g>
			<text fill="#595959" font-family="Verdana,sans-serif" font-weight="400" font-size="41" transform="matrix(6.12323e-17 -1 1 6.12323e-17 3248 1226)">13-May</text>
		</g>
		<g>
			<text fill="#595959" font-family="Verdana,sans-serif" font-weight="400" font-size="41" transform="matrix(6.12323e-17 -1 1 6.12323e-17 3328.264705882353 1209)">10-Jun</text>
		</g>
		<g>
			<text fill="#595959" font-family="Verdana,sans-serif" font-weight="400" font-size="41" transform="matrix(6.12323e-17 -1 1 6.12323e-17 3412.029411764706 1197)">08-Jul</text>
		</g>
		<g>
			<text fill="#595959" font-family="Verdana,sans-serif" font-weight="400" font-size="41" transform="matrix(6.12323e-17 -1 1 6.12323e-17 3499.294117647059 1221)">05-Aug</text>
		</g>
		<g>
			<text fill="#595959" font-family="Verdana,sans-serif" font-weight="400" font-size="41" transform="matrix(6.12323e-17 -1 1 6.12323e-17 3583.0588235294117 1222)">02-Sep</text>
		</g>
		<g>
			<text fill="#595959" font-family="Verdana,sans-serif" font-weight="400" font-size="41" transform="matrix(6.12323e-17 -1 1 6.12323e-17 3666.823529411765 1221)">30-Sep</text>
		</g>
		<g>
			<text fill="#595959" font-family="Verdana,sans-serif" font-weight="400" font-size="41" transform="matrix(6.12323e-17 -1 1 6.12323e-17 3747.0882352941176 1215)">28-Oct</text>
		</g>
		<g>
			<text fill="#595959" font-family="Verdana,sans-serif" font-weight="400" font-size="41" transform="matrix(6.12323e-17 -1 1 6.12323e-17 3830.8529411764707 1224)">25-Nov</text>
		</g>
		<g>
			<text fill="#595959" font-family="Verdana,sans-serif" font-weight="400" font-size="41" transform="matrix(6.12323e-17 -1 1 6.12323e-17 3914.6176470588234 1222)">30-Dec</text>
		</g>
		<g>
			<text fill="#595959" font-family="Verdana,sans-serif" font-weight="400" font-size="41" transform="matrix(6.12323e-17 -1 1 6.12323e-17 3998.3823529411766 1210)">27-Jan</text>
		</g>
		<g>
			<text fill="#595959" font-family="Verdana,sans-serif" font-weight="400" font-size="41" transform="matrix(6.12323e-17 -1 1 6.12323e-17 4082.1470588235293 1216)">24-Feb</text>
		</g>
		<g>
			<text fill="#595959" font-family="Verdana,sans-serif" font-weight="400" font-size="41" transform="matrix(6.12323e-17 -1 1 6.12323e-17 4165.911764705882 1223)">24-Mar</text>
		</g>
		<g>
			<text fill="#595959" font-family="Verdana,sans-serif" font-weight="400" font-size="41" transform="matrix(6.12323e-17 -1 1 6.12323e-17 4253.176470588235 1216)">21-Apr</text>
		</g>
		<g>
			<text fill="#595959" font-family="Verdana,sans-serif" font-weight="400" font-size="41" transform="matrix(1 0 0 1 3123.5 1050)">0%</text>
		</g>
		<g>
			<text fill="#595959" font-family="Verdana,sans-serif" font-weight="400" font-size="41" transform="matrix(1 0 0 1 3097.5 922)">20%</text>
		</g>
		<g>
			<text fill="#595959" font-family="Verdana,sans-serif" font-weight="400" font-size="41" transform="matrix(1 0 0 1 3096.5 794)">40%</text>
		</g>
		<g>
			<text fill="#595959" font-family="Verdana,sans-serif" font-weight="400" font-size="41" transform="matrix(1 0 0 1 3097.5 666)">60%</text>
		</g>
		<g>
			<text fill="#595959" font-family="Verdana,sans-serif" font-weight="400" font-size="41" transform="matrix(1 0 0 1 3097.5 538)">80%</text>
		</g>
		<g>
			<text fill="#595959" font-family="Verdana,sans-serif" font-weight="400" font-size="41" transform="matrix(1 0 0 1 3074.5 410)">100%</text>
		</g>
		<g>
			<text fill="#595959" font-family="Verdana,sans-serif" font-weight="400" font-size="41" transform="matrix(1 0 0 1 3544.5 1321)">Week Commencing</text>
		</g>
		<g>
			<text fill="#595959" font-family="Verdana,sans-serif" font-weight="400" font-size="46" transform="matrix(6.12323e-17 -1 1 6.12323e-17 3019.73 965.25)">Requests (% of Total)</text>
		</g>
		<rect x="2918.5" y="347.5" width="1760" height="1043" stroke="#D9D9D9" stroke-width="3.4375" stroke-linejoin="round" stroke-miterlimit="10" fill="none" />
		<g>
			<path d="M3228.5 1038 3249.4411764705883 1038 3270.3823529411766 1038 3291.323529411765 1038 3312.264705882353 1038 3333.205882352941 1038 3354.1470588235293 1038 3375.0882352941176 1038 3396.029411764706 1038 3416.970588235294 1038 3437.9117647058824 1038 3458.8529411764707 1038 3479.794117647059 1038 3500.735294117647 1038 3521.676470588235 1038 3542.6176470588234 1038 3563.5588235294117 1038 3584.5 1038 3605.4411764705883 1038 3626.3823529411766 1038 3647.323529411765 1038 3668.264705882353 1038 3689.205882352941 1038 3710.1470588235293 1038 3731.0882352941176 1038 3752.029411764706 1038 3772.970588235294 1038 3793.9117647058824 1038 3814.8529411764707 1038 3835.7941176470586 1038 3856.735294117647 1038 3877.676470588235 1038 3898.6176470588234 1038 3919.5588235294117 1038 3940.5 1038 3961.4411764705883 1038 3982.3823529411766 1038 4003.323529411765 1038 4024.264705882353 1038 4045.2058823529414 1038 4066.1470588235293 1038 4087.0882352941176 1038 4108.029411764706 1038 4128.970588235294 1038 4149.911764705882 1038 4170.85294117647 1038 4191.794117647059 1038 4212.735294117647 1038 4233.676470588235 1038 4254.617647058823 1038 4275.558823529412 1038 4296.5 1038 4296.5 635.4729707714018 4275.558823529412 634.0735967176577 4254.617647058823 632.8947266339228 4233.676470588235 631.9364864355447 4212.735294117647 630.6938210695101 4191.794117647059 629.5047785696727 4170.85294117647 628.3884215694598 4149.911764705882 626.7876738161085 4128.970588235294 585.3299764795494 4108.029411764706 584.8421137404707 4087.0882352941176 584.3697869147531 4066.1470588235293 582.8150128997006 4045.2058823529414 582.5177383576936 4024.264705882353 582.3344680120879 4003.323529411765 582.5939821313019 3982.3823529411766 581.9303729662242 3961.4411764705883 581.2253151836085 3940.5 580.7419087611287 3919.5588235294117 580.710243189289 3898.6176470588234 580.6735762948426 3877.676470588235 580.9280737837942 3856.735294117647 581.4872454103777 3835.7941176470586 582.4062939611431 3814.8529411764707 569.6826475023468 3793.9117647058824 569.8912689965251 3772.970588235294 569.9302361292804 3752.029411764706 569.8349942572809 3731.0882352941176 569.5040370531727 3710.1470588235293 717.6623105620715 3689.205882352941 693.0292117157351 3668.264705882353 692.8367597789183 3647.323529411765 692.6574656354969 3626.3823529411766 684.2461914870885 3605.4411764705883 684.0344882877787 3584.5 684.1358174388192 3563.5588235294117 683.9806402948523 3542.6176470588234 683.9172481230904 3521.676470588235 683.650703471495 3500.735294117647 683.2253967284606 3479.794117647059 683.0202318089205 3458.8529411764707 682.9152439485392 3437.9117647058824 682.6018446393113 3416.970588235294 682.3232723398903 3396.029411764706 692.0678617680483 3375.0882352941176 692.1617344671945 3354.1470588235293 692.8199164999976 3333.205882352941 693.1175071055251 3312.264705882353 693.279620378092 3291.323529411765 693.7023667945714 3270.3823529411766 694.1241584254815 3249.4411764705883 694.1818102912466 3228.5 694.1642138907431 3228.5 1038Z" fill="#e62d39" opacity="0.9" />
		</g>
		<g>
			<path d="M3228.5 694.1642138907431 3249.4411764705883 694.1818102912466 3270.3823529411766 694.1241584254815 3291.323529411765 693.7023667945714 3312.264705882353 693.279620378092 3333.205882352941 693.1175071055251 3354.1470588235293 692.8199164999976 3375.0882352941176 692.1617344671945 3396.029411764706 692.0678617680483 3416.970588235294 682.3232723398903 3437.9117647058824 682.6018446393113 3458.8529411764707 682.9152439485392 3479.794117647059 683.0202318089205 3500.735294117647 683.2253967284606 3521.676470588235 683.650703471495 3542.6176470588234 683.9172481230904 3563.5588235294117 683.9806402948523 3584.5 684.1358174388192 3605.4411764705883 684.0344882877787 3626.3823529411766 684.2461914870885 3647.323529411765 692.6574656354969 3668.264705882353 692.8367597789183 3689.205882352941 693.0292117157351 3710.1470588235293 717.6623105620715 3731.0882352941176 569.5040370531727 3752.029411764706 569.8349942572809 3772.970588235294 569.9302361292804 3793.9117647058824 569.8912689965251 3814.8529411764707 569.6826475023468 3835.7941176470586 582.4062939611431 3856.735294117647 581.4872454103777 3877.676470588235 580.9280737837942 3898.6176470588234 580.6735762948426 3919.5588235294117 580.710243189289 3940.5 580.7419087611287 3961.4411764705883 581.2253151836085 3982.3823529411766 581.9303729662242 4003.323529411765 582.5939821313019 4024.264705882353 582.3344680120879 4045.2058823529414 582.5177383576936 4066.1470588235293 582.8150128997006 4087.0882352941176 584.3697869147531 4108.029411764706 584.8421137404707 4128.970588235294 585.3299764795494 4149.911764705882 626.7876738161085 4170.85294117647 628.3884215694598 4191.794117647059 629.5047785696727 4212.735294117647 630.6938210695101 4233.676470588235 631.9364864355447 4254.617647058823 632.8947266339228 4275.558823529412 634.0735967176577 4296.5 635.4729707714018 4296.5 399.8797680654118 4275.558823529412 399.8310554200368 4254.617647058823 399.77429194002207 4233.676470588235 399.72528771121347 4212.735294117647 399.7049408705508 4191.794117647059 400.0041449048839 4170.85294117647 399.9604159100104 4149.911764705882 399.99059261305473 4128.970588235294 399.5837460145528 4108.029411764706 399.60517704227266 4087.0882352941176 399.58267002165013 4066.1470588235293 398.76939218444284 4045.2058823529414 398.748881893379 4024.264705882353 398.75079403491515 4003.323529411765 398.74677273073394 3982.3823529411766 398.7411343617605 3961.4411764705883 398.7379557747454 3940.5 398.70704867301595 3919.5588235294117 398.70882925199004 3898.6176470588234 398.7008574619051 3877.676470588235 398.68535542850464 3856.735294117647 398.67102339002776 3835.7941176470586 398.67520739706913 3814.8529411764707 399.27182314363034 3793.9117647058824 399.262582558681 3772.970588235294 399.27351700187455 3752.029411764706 399.28077369767425 3731.0882352941176 399.29931326714217 3710.1470588235293 463.6506199133046 3689.205882352941 458.1198955073757 3668.264705882353 457.6909023203396 3647.323529411765 457.1922376810141 3626.3823529411766 442.93735389999836 3605.4411764705883 442.4560046260649 3584.5 441.9523894028935 3563.5588235294117 441.5335721284329 3542.6176470588234 441.085682632276 3521.676470588235 440.7511233983183 3500.735294117647 440.358904599104 3479.794117647059 439.99162530587694 3458.8529411764707 439.5878575638358 3437.9117647058824 439.2709286792896 3416.970588235294 439.03517502824866 3396.029411764706 438.2387094064713 3375.0882352941176 437.86557118539895 3354.1470588235293 437.9037489834077 3333.205882352941 437.50828716559636 3312.264705882353 437.0430647748583 3291.323529411765 436.55579203505033 3270.3823529411766 435.9902777401653 3249.4411764705883 435.4750218802621 3228.5 434.9235826881617 3228.5 694.1642138907431Z" fill="#005aa6" opacity="0.9" />
		</g>
		<g>
			<path d="M3228.5 434.9235826881617 3249.4411764705883 435.4750218802621 3270.3823529411766 435.9902777401653 3291.323529411765 436.55579203505033 3312.264705882353 437.0430647748583 3333.205882352941 437.50828716559636 3354.1470588235293 437.9037489834077 3375.0882352941176 437.86557118539895 3396.029411764706 438.2387094064713 3416.970588235294 439.03517502824866 3437.9117647058824 439.2709286792896 3458.8529411764707 439.5878575638358 3479.794117647059 439.99162530587694 3500.735294117647 440.358904599104 3521.676470588235 440.7511233983183 3542.6176470588234 441.085682632276 3563.5588235294117 441.5335721284329 3584.5 441.9523894028935 3605.4411764705883 442.4560046260649 3626.3823529411766 442.93735389999836 3647.323529411765 457.1922376810141 3668.264705882353 457.6909023203396 3689.205882352941 458.1198955073757 3710.1470588235293 463.6506199133046 3731.0882352941176 399.29931326714217 3752.029411764706 399.28077369767425 3772.970588235294 399.27351700187455 3793.9117647058824 399.262582558681 3814.8529411764707 399.27182314363034 3835.7941176470586 398.67520739706913 3856.735294117647 398.67102339002776 3877.676470588235 398.68535542850464 3898.6176470588234 398.7008574619051 3919.5588235294117 398.70882925199004 3940.5 398.70704867301595 3961.4411764705883 398.7379557747454 3982.3823529411766 398.7411343617605 4003.323529411765 398.74677273073394 4024.264705882353 398.75079403491515 4045.2058823529414 398.748881893379 4066.1470588235293 398.76939218444284 4087.0882352941176 399.58267002165013 4108.029411764706 399.60517704227266 4128.970588235294 399.5837460145528 4149.911764705882 399.99059261305473 4170.85294117647 399.9604159100104 4191.794117647059 400.0041449048839 4212.735294117647 399.7049408705508 4233.676470588235 399.72528771121347 4254.617647058823 399.77429194002207 4275.558823529412 399.8310554200368 4296.5 399.8797680654118 4296.5 397.99999999999994 4275.558823529412 397.99999999999994 4254.617647058823 397.9999999999999 4233.676470588235 397.9999999999999 4212.735294117647 398 4191.794117647059 398.00000000000006 4170.85294117647 397.99999999999994 4149.911764705882 397.99999999999994 4128.970588235294 398.00000000000006 4108.029411764706 398 4087.0882352941176 398.00000000000006 4066.1470588235293 398 4045.2058823529414 397.99999999999994 4024.264705882353 398 4003.323529411765 398 3982.3823529411766 397.99999999999994 3961.4411764705883 398.00000000000006 3940.5 398 3919.5588235294117 398 3898.6176470588234 398.00000000000006 3877.676470588235 397.99999999999994 3856.735294117647 398.00000000000006 3835.7941176470586 398.00000000000006 3814.8529411764707 398 3793.9117647058824 398 3772.970588235294 398.00000000000006 3752.029411764706 397.99999999999994 3731.0882352941176 398 3710.1470588235293 398 3689.205882352941 398.00000000000006 3668.264705882353 398.00000000000006 3647.323529411765 398.0000000000001 3626.3823529411766 398 3605.4411764705883 397.99999999999994 3584.5 398.00000000000006 3563.5588235294117 397.99999999999994 3542.6176470588234 398 3521.676470588235 398.00000000000006 3500.735294117647 397.99999999999994 3479.794117647059 398 3458.8529411764707 398 3437.9117647058824 397.9999999999999 3416.970588235294 397.99999999999994 3396.029411764706 398.00000000000006 3375.0882352941176 398 3354.1470588235293 398 3333.205882352941 398.00000000000006 3312.264705882353 397.9999999999999 3291.323529411765 398 3270.3823529411766 397.99999999999994 3249.4411764705883 398 3228.5 398 3228.5 434.9235826881617Z" fill="#393d41" opacity="0.9" />
		</g>
		<g>
			<rect x="4372" y="431" width="22.9995" height="23" fill="#e62d39" />
		</g>
		<g>
			<text fill="#595959" font-family="Verdana,sans-serif" font-weight="400" font-size="41" transform="matrix(1 0 0 1 4404.56 454)">Web Browser</text>
		</g>
		<g>
			<rect x="4372" y="508" width="22.9995" height="23" fill="#005aa6" />
		</g>
		<g>
			<text fill="#595959" font-family="Verdana,sans-serif" font-weight="400" font-size="41" transform="matrix(1 0 0 1 4404.56 531)">App</text>
		</g>
		<g>
			<rect x="4372" y="585" width="22.9995" height="23" fill="#393d41" />
		</g>
		<g>
			<text fill="#595959" font-family="Verdana,sans-serif" font-weight="400" font-size="41" transform="matrix(1 0 0 1 4404.56 608)">Unclassified</text>
		</g>
	</g>
</svg>
