<svg width="1763" height="1046"
    xmlns="http://www.w3.org/2000/svg"
	xmlns:xlink="http://www.w3.org/1999/xlink" xml:space="preserve" overflow="hidden">
	<defs>
		<clipPath id="clip0">
			<rect x="2917" y="346" width="1763" height="1046"/>
		</clipPath>
	</defs>
	<g clip-path="url(#clip0)" transform="translate(-2917 -346)">
		<rect x="2918" y="347" width="1760" height="1043" fill="#FFFFFF" />
		<g>
			<path d="
			M3228.5 974.532 4296.5 974.532
			M3228.5 910.53 4296.5 910.53
			M3228.5 846.528 4296.5 846.528
			M3228.5 781.526 4296.5 781.526
			M3228.5 717.524 4296.5 717.524
			M3228.5 653.522 4296.5 653.522
			M3228.5 589.52 4296.5 589.52
			M3228.5 525.517 4296.5 525.517
			M3228.5 461.515 4296.5 461.515
			M3228.5 397.5 4296.5 397.5" stroke="#D9D9D9" stroke-width="3.4375" stroke-linejoin="round" stroke-miterlimit="10" fill="none" />
		</g>
		<g>
			<path d="M 1038.5 4296.5 1038.5" stroke="#D9D9D9" stroke-width="3.4375" stroke-linejoin="round" stroke-miterlimit="10" fill="none" fill-rule="evenodd" />
		</g>
		<g>
			<text fill="#595959" font-family="Verdana,Open Sans,DejaVu Sans,sans-serif" font-weight="400" font-size="41" transform="matrix(6.12323e-17 -1 1 6.12323e-17 3247.21826171875 1191.6508712768555)">06-Jan</text>
		</g>
		<g>
			<text fill="#595959" font-family="Verdana,Open Sans,DejaVu Sans,sans-serif" font-weight="400" font-size="41" transform="matrix(6.12323e-17 -1 1 6.12323e-17 3329.715390625 1203.0419921875)">03-Feb</text>
		</g>
		<g>
			<text fill="#595959" font-family="Verdana,Open Sans,DejaVu Sans,sans-serif" font-weight="400" font-size="41" transform="matrix(6.12323e-17 -1 1 6.12323e-17 3414.444697265625 1212.0107421875)">03-Mar</text>
		</g>
		<g>
			<text fill="#595959" font-family="Verdana,Open Sans,DejaVu Sans,sans-serif" font-weight="400" font-size="41" transform="matrix(6.12323e-17 -1 1 6.12323e-17 3499.864677734375 1212.1708984375)">31-Mar</text>
		</g>
		<g>
			<text fill="#595959" font-family="Verdana,Open Sans,DejaVu Sans,sans-serif" font-weight="400" font-size="41" transform="matrix(6.12323e-17 -1 1 6.12323e-17 3590.029287109375 1203.3022384643555)">28-Apr</text>
		</g>
		<g>
			<text fill="#595959" font-family="Verdana,Open Sans,DejaVu Sans,sans-serif" font-weight="400" font-size="41" transform="matrix(6.12323e-17 -1 1 6.12323e-17 3675.469287109375 1216.51513671875)">26-May</text>
		</g>
		<g>
			<text fill="#595959" font-family="Verdana,Open Sans,DejaVu Sans,sans-serif" font-weight="400" font-size="41" transform="matrix(6.12323e-17 -1 1 6.12323e-17 3759.85826171875 1194.1733322143555)">30-Jun</text>
		</g>
		<g>
			<text fill="#595959" font-family="Verdana,Open Sans,DejaVu Sans,sans-serif" font-weight="400" font-size="41" transform="matrix(6.12323e-17 -1 1 6.12323e-17 3846.008955078125 1179.0385665893555)">28-Jul</text>
		</g>
		<g>
			<text fill="#595959" font-family="Verdana,Open Sans,DejaVu Sans,sans-serif" font-weight="400" font-size="41" transform="matrix(6.12323e-17 -1 1 6.12323e-17 3931.789287109375 1208.66748046875)">25-Aug</text>
		</g>
		<g>
			<text fill="#595959" font-family="Verdana,Open Sans,DejaVu Sans,sans-serif" font-weight="400" font-size="41" transform="matrix(6.12323e-17 -1 1 6.12323e-17 4017.229287109375 1204.42333984375)">22-Sep</text>
		</g>
		<g>
			<text fill="#595959" font-family="Verdana,Open Sans,DejaVu Sans,sans-serif" font-weight="400" font-size="41" transform="matrix(6.12323e-17 -1 1 6.12323e-17 4097.964697265625 1201.1401290893555)">20-Oct</text>
		</g>
		<g>
			<text fill="#595959" font-family="Verdana,Open Sans,DejaVu Sans,sans-serif" font-weight="400" font-size="41" transform="matrix(6.12323e-17 -1 1 6.12323e-17 4183.17447265625 1209.70849609375)">17-Nov</text>
		</g>
		<g>
			<text fill="#595959" font-family="Verdana,Open Sans,DejaVu Sans,sans-serif" font-weight="400" font-size="41" transform="matrix(6.12323e-17 -1 1 6.12323e-17 4268.61447265625 1205.3642578125)">15-Dec</text>
		</g>
		<g>
			<text fill="#595959" font-family="Verdana,Open Sans,DejaVu Sans,sans-serif" font-weight="400" font-size="41" transform="matrix(1 0 0 1 3169.14111328125 1050)">0</text>
		</g>
		<g>
			<text fill="#595959" font-family="Verdana,Open Sans,DejaVu Sans,sans-serif" font-weight="400" font-size="41" transform="matrix(1 0 0 1 3088.7626953125 922)">3,219</text>
		</g>
		<g>
			<text fill="#595959" font-family="Verdana,Open Sans,DejaVu Sans,sans-serif" font-weight="400" font-size="41" transform="matrix(1 0 0 1 3089.14306640625 794)">6,438</text>
		</g>
		<g>
			<text fill="#595959" font-family="Verdana,Open Sans,DejaVu Sans,sans-serif" font-weight="400" font-size="41" transform="matrix(1 0 0 1 3088.802734375 666)">9,656</text>
		</g>
		<g>
			<text fill="#595959" font-family="Verdana,Open Sans,DejaVu Sans,sans-serif" font-weight="400" font-size="41" transform="matrix(1 0 0 1 3067.3618240356445 538)">12,875</text>
		</g>
		<g>
			<text fill="#595959" font-family="Verdana,Open Sans,DejaVu Sans,sans-serif" font-weight="400" font-size="41" transform="matrix(1 0 0 1 3065.8203201293945 410)">16,094</text>
		</g>
		<g>
			<text fill="#595959" font-family="Verdana,Open Sans,DejaVu Sans,sans-serif" font-weight="400" font-size="41" transform="matrix(1 0 0 1 3556.97119140625 1321)">Week Commencing</text>
		</g>
		<g>
			<text fill="#595959" font-family="Verdana,Open Sans,DejaVu Sans,sans-serif" font-weight="400" font-size="46" transform="matrix(6.12323e-17 -1 1 6.12323e-17 3019.73 1011.673828125)">Number of Browser Profiles</text>
		</g>
		<rect x="2918.5" y="347.5" width="1760" height="1043" stroke="#D9D9D9" stroke-width="3.4375" stroke-linejoin="round" stroke-miterlimit="10" fill="none" />
		<g>
			<path d="M3228.5 1038 3249.86 1038 3271.22 1038 3292.58 1038 3313.94 1038 3335.3 1038 3356.66 1038 3378.02 1038 3399.38 1038 3420.74 1038 3442.1 1038 3463.46 1038 3484.82 1038 3506.18 1038 3527.54 1038 3548.9 1038 3570.26 1038 3591.62 1038 3612.98 1038 3634.34 1038 3655.7 1038 3677.06 1038 3698.42 1038 3719.7799999999997 1038 3741.14 1038 3762.5 1038 3783.86 1038 3805.2200000000003 1038 3826.58 1038 3847.94 1038 3869.3 1038 3890.66 1038 3912.02 1038 3933.38 1038 3954.74 1038 3976.1 1038 3997.46 1038 4018.8199999999997 1038 4040.18 1038 4061.54 1038 4082.9 1038 4104.26 1038 4125.62 1038 4146.98 1038 4168.34 1038 4189.7 1038 4211.0599999999995 1038 4232.42 1038 4253.78 1038 4275.139999999999 1038 4296.5 1038 4296.5 532.5296383745494 4275.139999999999 533.0863675904063 4253.78 534.1202932769977 4232.42 535.3928171989562 4211.0599999999995 537.0630048465266 4189.7 537.3811358270164 4168.34 538.49459425873 4146.98 539.1308562197091 4125.62 540.6022120044737 4104.26 541.1987075928918 4082.9 542.5507642599727 4061.54 542.6700633776563 4040.18 543.5449235740027 4018.8199999999997 544.5788492605941 3997.46 545.8911395551137 3976.1 546.6069342612154 3954.74 547.2431962221947 3933.38 548.5157201441531 3912.02 549.3508139679384 3890.66 550.265440536846 3869.3 551.2595998508762 3847.94 552.0549273021002 3826.58 552.810488380763 3805.2200000000003 553.6853485771095 3783.86 554.0830123027215 3762.5 555.0771716167516 3741.14 556.3894619112713 3719.7799999999997 556.9859574996893 3698.42 558.1391823039642 3677.06 559.491238971045 3655.7 561.1216602460545 3634.34 562.2351186777681 3612.98 563.3088107369206 3591.62 564.2234373058283 3570.26 565.0585311296136 3548.9 566.0129240710824 3527.54 566.8877842674289 3506.18 568.3591400521934 3484.82 568.9954020131727 3463.46 569.6316639741519 3442.1 570.3872250528148 3420.74 571.4609171119672 3399.38 572.5743755436808 3378.02 573.4492357400273 3356.66 574.0059649558841 3335.3 574.9205915247919 3313.94 576.2726481918728 3292.58 576.8691437802909 3271.22 577.5451721138313 3249.86 578.0223685845657 3228.5 578.7381632906673 3228.5 1038Z" fill="#005aa6" opacity="0.9" />
		</g>
		<g>
			<path d="M3228.5 578.7381632906673 3249.86 578.0223685845657 3271.22 577.5451721138313 3292.58 576.8691437802909 3313.94 576.2726481918728 3335.3 574.9205915247919 3356.66 574.0059649558841 3378.02 573.4492357400273 3399.38 572.5743755436808 3420.74 571.4609171119672 3442.1 570.3872250528148 3463.46 569.6316639741519 3484.82 568.9954020131727 3506.18 568.3591400521934 3527.54 566.8877842674289 3548.9 566.0129240710824 3570.26 565.0585311296136 3591.62 564.2234373058283 3612.98 563.3088107369206 3634.34 562.2351186777681 3655.7 561.1216602460545 3677.06 559.491238971045 3698.42 558.1391823039642 3719.7799999999997 556.9859574996893 3741.14 556.3894619112713 3762.5 555.0771716167516 3783.86 554.0830123027215 3805.2200000000003 553.6853485771095 3826.58 552.810488380763 3847.94 552.0549273021002 3869.3 551.2595998508762 3890.66 550.265440536846 3912.02 549.3508139679384 3933.38 548.5157201441531 3954.74 547.2431962221947 3976.1 546.6069342612154 3997.46 545.8911395551137 4018.8199999999997 544.5788492605941 4040.18 543.5449235740027 4061.54 542.6700633776563 4082.9 542.5507642599727 4104.26 541.1987075928918 4125.62 540.6022120044737 4146.98 539.1308562197091 4168.34 538.49459425873 4189.7 537.3811358270164 4211.0599999999995 537.0630048465266 4232.42 535.3928171989562 4253.78 534.1202932769977 4275.139999999999 533.0863675904063 4296.5 532.5296383745494 4296.5 397.9999999999999 4275.139999999999 398.55672921585676 4253.78 399.90878588293776 4232.42 401.4199080402635 4211.0599999999995 403.28892755064 4189.7 403.8854231390581 4168.34 405.23747980613894 4146.98 405.9930408848017 4125.62 407.6234621598111 4104.26 408.4187896110352 4082.9 409.92991176836085 4061.54 410.0889772586057 4040.18 411.24220206288055 4018.8199999999997 412.39542686715555 3997.46 413.90654902448114 3976.1 414.7814092208277 3954.74 415.57673667205177 3933.38 416.92879333913254 3912.02 417.9627190257239 3890.66 418.95687833975387 3869.3 420.3089350068349 3847.94 421.1837952031813 3826.58 422.17795451721133 3805.2200000000003 423.17211383124146 3783.86 423.8481421647819 3762.5 425.1604324593016 3741.14 426.6715546166273 3719.7799999999997 427.38734932272894 3698.42 428.65987324468745 3677.06 430.1312290294519 3655.7 432.3183795203182 3634.34 433.6306698148378 3612.98 434.9429601093575 3591.62 436.01665216851 3570.26 436.97104510997895 3548.9 438.1242699142537 3527.54 439.15819560084503 3506.18 440.8283832484156 3484.82 441.66347707220086 3463.46 442.37927177830255 3442.1 443.254131974649 3420.74 444.6459550142911 3399.38 445.8787125636883 3378.02 446.8728718777184 3356.66 447.66819932894236 3335.3 448.8214241332174 3313.94 450.3325462905431 3292.58 451.088107369206 3271.22 452.00273393811364 3249.86 452.678762271654 3228.5 453.5138560954393 3228.5 578.7381632906673Z" fill="#e62d39" opacity="0.9" />
		</g>
		<g>
			<rect x="4372" y="431" width="22.9995" height="23" fill="#005aa6" />
		</g>
		<g>
			<text fill="#595959" font-family="Verdana,Open Sans,DejaVu Sans,sans-serif" font-weight="400" font-size="41" transform="matrix(1 0 0 1 4404.56 454)">Web Browser</text>
		</g>
		<g>
			<rect x="4372" y="508" width="22.9995" height="23" fill="#e62d39" />
		</g>
		<g>
			<text fill="#595959" font-family="Verdana,Open Sans,DejaVu Sans,sans-serif" font-weight="400" font-size="41" transform="matrix(1 0 0 1 4404.56 531)">App</text>
		</g>
	</g>
</svg>
