<svg width="1763" height="1046"
    xmlns="http://www.w3.org/2000/svg"
	xmlns:xlink="http://www.w3.org/1999/xlink" xml:space="preserve" overflow="hidden">
	<defs>
		<clipPath id="clip0">
			<rect x="2917" y="346" width="1763" height="1046"/>
		</clipPath>
	</defs>
	<g clip-path="url(#clip0)" transform="translate(-2917 -346)">
		<rect x="2918" y="347" width="1760" height="1043" fill="#FFFFFF" />
		<g>
			<path d="
			M3228.5 974.532 4296.5 974.532
			M3228.5 910.53 4296.5 910.53
			M3228.5 846.528 4296.5 846.528
			M3228.5 781.526 4296.5 781.526
			M3228.5 717.524 4296.5 717.524
			M3228.5 653.522 4296.5 653.522
			M3228.5 589.52 4296.5 589.52
			M3228.5 525.517 4296.5 525.517
			M3228.5 461.515 4296.5 461.515
			M3228.5 397.5 4296.5 397.5" stroke="#D9D9D9" stroke-width="3.4375" stroke-linejoin="round" stroke-miterlimit="10" fill="none" />
		</g>
		<g>
			<path d="M 1038.5 4296.5 1038.5" stroke="#D9D9D9" stroke-width="3.4375" stroke-linejoin="round" stroke-miterlimit="10" fill="none" fill-rule="evenodd" />
		</g>
		<g>
			<text fill="#595959" font-family="Verdana,Open Sans,DejaVu Sans,sans-serif" font-weight="400" font-size="41" transform="matrix(6.12323e-17 -1 1 6.12323e-17 3243.564697265625 1207.0859375)">09-Dec</text>
		</g>
		<g>
			<text fill="#595959" font-family="Verdana,Open Sans,DejaVu Sans,sans-serif" font-weight="400" font-size="41" transform="matrix(6.12323e-17 -1 1 6.12323e-17 3334.401935188138 1191.6508712768555)">06-Jan</text>
		</g>
		<g>
			<text fill="#595959" font-family="Verdana,Open Sans,DejaVu Sans,sans-serif" font-weight="400" font-size="41" transform="matrix(6.12323e-17 -1 1 6.12323e-17 3418.6427375637754 1203.0419921875)">03-Feb</text>
		</g>
		<g>
			<text fill="#595959" font-family="Verdana,Open Sans,DejaVu Sans,sans-serif" font-weight="400" font-size="41" transform="matrix(6.12323e-17 -1 1 6.12323e-17 3505.1157176737884 1212.0107421875)">03-Mar</text>
		</g>
		<g>
			<text fill="#595959" font-family="Verdana,Open Sans,DejaVu Sans,sans-serif" font-weight="400" font-size="41" transform="matrix(6.12323e-17 -1 1 6.12323e-17 3592.279371611926 1212.1708984375)">31-Mar</text>
		</g>
		<g>
			<text fill="#595959" font-family="Verdana,Open Sans,DejaVu Sans,sans-serif" font-weight="400" font-size="41" transform="matrix(6.12323e-17 -1 1 6.12323e-17 3684.187654456314 1203.3022384643555)">28-Apr</text>
		</g>
		<g>
			<text fill="#595959" font-family="Verdana,Open Sans,DejaVu Sans,sans-serif" font-weight="400" font-size="41" transform="matrix(6.12323e-17 -1 1 6.12323e-17 3771.3713279257017 1216.51513671875)">26-May</text>
		</g>
		<g>
			<text fill="#595959" font-family="Verdana,Open Sans,DejaVu Sans,sans-serif" font-weight="400" font-size="41" transform="matrix(6.12323e-17 -1 1 6.12323e-17 3857.503976004464 1194.1733322143555)">30-Jun</text>
		</g>
		<g>
			<text fill="#595959" font-family="Verdana,Open Sans,DejaVu Sans,sans-serif" font-weight="400" font-size="41" transform="matrix(6.12323e-17 -1 1 6.12323e-17 3945.398342833227 1179.0385665893555)">28-Jul</text>
		</g>
		<g>
			<text fill="#595959" font-family="Verdana,Open Sans,DejaVu Sans,sans-serif" font-weight="400" font-size="41" transform="matrix(6.12323e-17 -1 1 6.12323e-17 4032.9223483338646 1208.66748046875)">25-Aug</text>
		</g>
		<g>
			<text fill="#595959" font-family="Verdana,Open Sans,DejaVu Sans,sans-serif" font-weight="400" font-size="41" transform="matrix(6.12323e-17 -1 1 6.12323e-17 4120.106021803253 1204.42333984375)">22-Sep</text>
		</g>
		<g>
			<text fill="#595959" font-family="Verdana,Open Sans,DejaVu Sans,sans-serif" font-weight="400" font-size="41" transform="matrix(6.12323e-17 -1 1 6.12323e-17 4202.5851054288905 1201.1401290893555)">20-Oct</text>
		</g>
		<g>
			<text fill="#595959" font-family="Verdana,Open Sans,DejaVu Sans,sans-serif" font-weight="400" font-size="41" transform="matrix(6.12323e-17 -1 1 6.12323e-17 4289.5385542889035 1209.70849609375)">17-Nov</text>
		</g>
		<g>
			<text fill="#595959" font-family="Verdana,Open Sans,DejaVu Sans,sans-serif" font-weight="400" font-size="41" transform="matrix(1 0 0 1 3169.14111328125 1050)">0</text>
		</g>
		<g>
			<text fill="#595959" font-family="Verdana,Open Sans,DejaVu Sans,sans-serif" font-weight="400" font-size="41" transform="matrix(1 0 0 1 3088.7626953125 922)">3,189</text>
		</g>
		<g>
			<text fill="#595959" font-family="Verdana,Open Sans,DejaVu Sans,sans-serif" font-weight="400" font-size="41" transform="matrix(1 0 0 1 3089.14306640625 794)">6,378</text>
		</g>
		<g>
			<text fill="#595959" font-family="Verdana,Open Sans,DejaVu Sans,sans-serif" font-weight="400" font-size="41" transform="matrix(1 0 0 1 3088.9228515625 666)">9,568</text>
		</g>
		<g>
			<text fill="#595959" font-family="Verdana,Open Sans,DejaVu Sans,sans-serif" font-weight="400" font-size="41" transform="matrix(1 0 0 1 3067.0815505981445 538)">12,757</text>
		</g>
		<g>
			<text fill="#595959" font-family="Verdana,Open Sans,DejaVu Sans,sans-serif" font-weight="400" font-size="41" transform="matrix(1 0 0 1 3067.0014724731445 410)">15,946</text>
		</g>
		<g>
			<text fill="#595959" font-family="Verdana,Open Sans,DejaVu Sans,sans-serif" font-weight="400" font-size="41" transform="matrix(1 0 0 1 3556.97119140625 1321)">Week Commencing</text>
		</g>
		<g>
			<text fill="#595959" font-family="Verdana,Open Sans,DejaVu Sans,sans-serif" font-weight="400" font-size="46" transform="matrix(6.12323e-17 -1 1 6.12323e-17 3019.73 1011.673828125)">Number of Browser Profiles</text>
		</g>
		<rect x="2918.5" y="347.5" width="1760" height="1043" stroke="#D9D9D9" stroke-width="3.4375" stroke-linejoin="round" stroke-miterlimit="10" fill="none" />
		<g>
			<path d="M3228.5 1038 3250.295918367347 1038 3272.091836734694 1038 3293.887755102041 1038 3315.683673469388 1038 3337.4795918367345 1038 3359.2755102040815 1038 3381.0714285714284 1038 3402.8673469387754 1038 3424.6632653061224 1038 3446.4591836734694 1038 3468.2551020408164 1038 3490.0510204081634 1038 3511.8469387755104 1038 3533.6428571428573 1038 3555.4387755102043 1038 3577.234693877551 1038 3599.030612244898 1038 3620.826530612245 1038 3642.622448979592 1038 3664.418367346939 1038 3686.214285714286 1038 3708.0102040816328 1038 3729.8061224489797 1038 3751.6020408163267 1038 3773.3979591836733 1038 3795.1938775510203 1038 3816.9897959183672 1038 3838.785714285714 1038 3860.581632653061 1038 3882.377551020408 1038 3904.173469387755 1038 3925.969387755102 1038 3947.765306122449 1038 3969.5612244897957 1038 3991.357142857143 1038 4013.1530612244896 1038 4034.9489795918366 1038 4056.7448979591836 1038 4078.5408163265306 1038 4100.336734693878 1038 4122.132653061224 1038 4143.928571428572 1038 4165.724489795918 1038 4187.5204081632655 1038 4209.316326530612 1038 4231.1122448979595 1038 4252.908163265306 1038 4274.7040816326535 1038 4296.5 1038 4296.5 532.7347297127806 4274.7040816326535 533.858522513483 4252.908163265306 534.50068982817 4231.1122448979595 535.985701743384 4209.316326530612 536.587733600903 4187.5204081632655 537.952339144613 4165.724489795918 538.0727455161168 4143.928571428572 538.9557255738116 4122.132653061224 539.9992474601781 4100.336734693878 541.3237175467202 4078.5408163265306 542.046155775743 4056.7448979591836 542.6883230904302 4034.9489795918366 543.9726577198044 4013.1530612244896 544.8155023203311 3991.357142857143 545.7386178351937 3969.5612244897957 546.7420042643923 3947.765306122449 547.5447134077511 3925.969387755102 548.307287093942 3904.173469387755 549.1902671516368 3882.377551020408 549.5916217233162 3860.581632653061 550.5950081525148 3838.785714285714 551.9194782390568 3816.9897959183672 552.5215100965759 3795.1938775510203 553.6854383544462 3773.3979591836733 555.0500438981562 3751.6020408163267 556.6955976420419 3729.8061224489797 557.8193904427442 3708.0102040816328 558.9030477862786 3686.214285714286 559.8261633011414 3664.418367346939 560.6690079016681 3642.622448979592 561.6322588736987 3620.826530612245 562.5152389313935 3599.030612244898 564.0002508466073 3577.234693877551 564.6424181612944 3555.4387755102043 565.2845854759814 3533.6428571428573 566.0471591621723 3511.8469387755104 567.1308165057067 3490.0510204081634 568.2546093064091 3468.2551020408164 569.1375893641039 3446.4591836734694 569.699485764455 3424.6632653061224 570.6226012793177 3402.8673469387754 571.9872068230277 3381.0714285714284 572.5892386805468 3359.2755102040815 573.2715414524018 3337.4795918367345 573.753166938417 3315.683673469388 574.4756051674401 3293.887755102041 574.9572306534553 3272.091836734694 575.238178853631 3250.295918367347 576.1612943684936 3228.5 576.8435971403487 3228.5 1038Z" fill="#005aa6" opacity="0.9" />
		</g>
		<g>
			<path d="M3228.5 576.8435971403487 3250.295918367347 576.1612943684936 3272.091836734694 575.238178853631 3293.887755102041 574.9572306534553 3315.683673469388 574.4756051674401 3337.4795918367345 573.753166938417 3359.2755102040815 573.2715414524018 3381.0714285714284 572.5892386805468 3402.8673469387754 571.9872068230277 3424.6632653061224 570.6226012793177 3446.4591836734694 569.699485764455 3468.2551020408164 569.1375893641039 3490.0510204081634 568.2546093064091 3511.8469387755104 567.1308165057067 3533.6428571428573 566.0471591621723 3555.4387755102043 565.2845854759814 3577.234693877551 564.6424181612944 3599.030612244898 564.0002508466073 3620.826530612245 562.5152389313935 3642.622448979592 561.6322588736987 3664.418367346939 560.6690079016681 3686.214285714286 559.8261633011414 3708.0102040816328 558.9030477862786 3729.8061224489797 557.8193904427442 3751.6020408163267 556.6955976420419 3773.3979591836733 555.0500438981562 3795.1938775510203 553.6854383544462 3816.9897959183672 552.5215100965759 3838.785714285714 551.9194782390568 3860.581632653061 550.5950081525148 3882.377551020408 549.5916217233162 3904.173469387755 549.1902671516368 3925.969387755102 548.307287093942 3947.765306122449 547.5447134077511 3969.5612244897957 546.7420042643923 3991.357142857143 545.7386178351937 4013.1530612244896 544.8155023203311 4034.9489795918366 543.9726577198044 4056.7448979591836 542.6883230904302 4078.5408163265306 542.046155775743 4100.336734693878 541.3237175467202 4122.132653061224 539.9992474601781 4143.928571428572 538.9557255738116 4165.724489795918 538.0727455161168 4187.5204081632655 537.952339144613 4209.316326530612 536.587733600903 4231.1122448979595 535.985701743384 4252.908163265306 534.50068982817 4274.7040816326535 533.858522513483 4296.5 532.7347297127806 4296.5 397.9999999999999 4274.7040816326535 399.36460554371 4252.908163265306 400.1271792299009 4231.1122448979595 401.77273297378656 4209.316326530612 402.5754421171453 4187.5204081632655 404.1005894895271 4165.724489795918 404.26113131819886 4143.928571428572 405.4250595760692 4122.132653061224 406.58898783393954 4100.336734693878 408.1141352063214 4078.5408163265306 408.997115264016 4056.7448979591836 409.7998244073749 4034.9489795918366 411.1644299510849 4013.1530612244896 412.2079518374514 3991.357142857143 413.21133826664993 3969.5612244897957 414.57594381035995 3947.765306122449 415.4589238680546 3925.969387755102 416.4623102972532 3904.173469387755 417.4656967264518 3882.377551020408 418.1479994983067 3860.581632653061 419.4724695848489 3838.785714285714 420.99761695723066 3816.9897959183672 421.7200551862535 3795.1938775510203 423.0043898156277 3773.3979591836733 424.48940173084156 3751.6020408163267 426.6968518750784 3729.8061224489797 428.0213219616204 3708.0102040816328 429.3457920481625 3686.214285714286 430.429449391697 3664.418367346939 431.39270036372756 3642.622448979592 432.55662862159784 3620.826530612245 433.6001505079644 3599.030612244898 435.2858397090179 3577.234693877551 436.1286843095447 3555.4387755102043 436.85112253856767 3533.6428571428573 437.73410259626235 3511.8469387755104 439.13884359714024 3490.0510204081634 440.3830427693465 3468.2551020408164 441.3864291985451 3446.4591836734694 442.1891383419038 3424.6632653061224 443.3530665997742 3402.8673469387754 444.878213972156 3381.0714285714284 445.6407876583469 3359.2755102040815 446.56390317320955 3337.4795918367345 447.2462059450645 3315.683673469388 448.08905054559136 3293.887755102041 448.6108114887745 3272.091836734694 448.8917596889502 3250.295918367347 449.97541703248453 3228.5 450.8583970901794 3228.5 576.8435971403487Z" fill="#e62d39" opacity="0.9" />
		</g>
		<g>
			<rect x="4372" y="431" width="22.9995" height="23" fill="#005aa6" />
		</g>
		<g>
			<text fill="#595959" font-family="Verdana,Open Sans,DejaVu Sans,sans-serif" font-weight="400" font-size="41" transform="matrix(1 0 0 1 4404.56 454)">Web Browser</text>
		</g>
		<g>
			<rect x="4372" y="508" width="22.9995" height="23" fill="#e62d39" />
		</g>
		<g>
			<text fill="#595959" font-family="Verdana,Open Sans,DejaVu Sans,sans-serif" font-weight="400" font-size="41" transform="matrix(1 0 0 1 4404.56 531)">App</text>
		</g>
	</g>
</svg>
