<svg width="1763" height="1046"
    xmlns="http://www.w3.org/2000/svg"
	xmlns:xlink="http://www.w3.org/1999/xlink" xml:space="preserve" overflow="hidden">
	<defs>
		<clipPath id="clip0">
			<rect x="2917" y="346" width="1763" height="1046"/>
		</clipPath>
	</defs>
	<g clip-path="url(#clip0)" transform="translate(-2917 -346)">
		<rect x="2918" y="347" width="1760" height="1043" fill="#FFFFFF" />
		<g>
			<path d="
			M3228.5 974.532 4296.5 974.532
			M3228.5 910.53 4296.5 910.53
			M3228.5 846.528 4296.5 846.528
			M3228.5 781.526 4296.5 781.526
			M3228.5 717.524 4296.5 717.524
			M3228.5 653.522 4296.5 653.522
			M3228.5 589.52 4296.5 589.52
			M3228.5 525.517 4296.5 525.517
			M3228.5 461.515 4296.5 461.515
			M3228.5 397.5 4296.5 397.5" stroke="#D9D9D9" stroke-width="3.4375" stroke-linejoin="round" stroke-miterlimit="10" fill="none" />
		</g>
		<g>
			<path d="M 1038.5 4296.5 1038.5" stroke="#D9D9D9" stroke-width="3.4375" stroke-linejoin="round" stroke-miterlimit="10" fill="none" fill-rule="evenodd" />
		</g>
		<g>
			<text fill="#595959" font-family="Verdana,sans-serif" font-weight="400" font-size="41" transform="matrix(6.12323e-17 -1 1 6.12323e-17 3248 1217)">08-Apr</text>
		</g>
		<g>
			<text fill="#595959" font-family="Verdana,sans-serif" font-weight="400" font-size="41" transform="matrix(6.12323e-17 -1 1 6.12323e-17 3331.764705882353 1228)">06-May</text>
		</g>
		<g>
			<text fill="#595959" font-family="Verdana,sans-serif" font-weight="400" font-size="41" transform="matrix(6.12323e-17 -1 1 6.12323e-17 3412.029411764706 1211)">03-Jun</text>
		</g>
		<g>
			<text fill="#595959" font-family="Verdana,sans-serif" font-weight="400" font-size="41" transform="matrix(6.12323e-17 -1 1 6.12323e-17 3495.794117647059 1197)">01-Jul</text>
		</g>
		<g>
			<text fill="#595959" font-family="Verdana,sans-serif" font-weight="400" font-size="41" transform="matrix(6.12323e-17 -1 1 6.12323e-17 3579.5588235294117 1196)">29-Jul</text>
		</g>
		<g>
			<text fill="#595959" font-family="Verdana,sans-serif" font-weight="400" font-size="41" transform="matrix(6.12323e-17 -1 1 6.12323e-17 3666.823529411765 1221)">26-Aug</text>
		</g>
		<g>
			<text fill="#595959" font-family="Verdana,sans-serif" font-weight="400" font-size="41" transform="matrix(6.12323e-17 -1 1 6.12323e-17 3750.5882352941176 1221)">23-Sep</text>
		</g>
		<g>
			<text fill="#595959" font-family="Verdana,sans-serif" font-weight="400" font-size="41" transform="matrix(6.12323e-17 -1 1 6.12323e-17 3830.8529411764707 1215)">21-Oct</text>
		</g>
		<g>
			<text fill="#595959" font-family="Verdana,sans-serif" font-weight="400" font-size="41" transform="matrix(6.12323e-17 -1 1 6.12323e-17 3914.6176470588234 1222)">18-Nov</text>
		</g>
		<g>
			<text fill="#595959" font-family="Verdana,sans-serif" font-weight="400" font-size="41" transform="matrix(6.12323e-17 -1 1 6.12323e-17 3998.3823529411766 1222)">23-Dec</text>
		</g>
		<g>
			<text fill="#595959" font-family="Verdana,sans-serif" font-weight="400" font-size="41" transform="matrix(6.12323e-17 -1 1 6.12323e-17 4082.1470588235293 1210)">20-Jan</text>
		</g>
		<g>
			<text fill="#595959" font-family="Verdana,sans-serif" font-weight="400" font-size="41" transform="matrix(6.12323e-17 -1 1 6.12323e-17 4165.911764705882 1214)">17-Feb</text>
		</g>
		<g>
			<text fill="#595959" font-family="Verdana,sans-serif" font-weight="400" font-size="41" transform="matrix(6.12323e-17 -1 1 6.12323e-17 4249.176470588235 1221)">17-Mar</text>
		</g>
		<g>
			<text fill="#595959" font-family="Verdana,sans-serif" font-weight="400" font-size="41" transform="matrix(1 0 0 1 3123.5 1050)">0%</text>
		</g>
		<g>
			<text fill="#595959" font-family="Verdana,sans-serif" font-weight="400" font-size="41" transform="matrix(1 0 0 1 3097.5 922)">20%</text>
		</g>
		<g>
			<text fill="#595959" font-family="Verdana,sans-serif" font-weight="400" font-size="41" transform="matrix(1 0 0 1 3096.5 794)">40%</text>
		</g>
		<g>
			<text fill="#595959" font-family="Verdana,sans-serif" font-weight="400" font-size="41" transform="matrix(1 0 0 1 3097.5 666)">60%</text>
		</g>
		<g>
			<text fill="#595959" font-family="Verdana,sans-serif" font-weight="400" font-size="41" transform="matrix(1 0 0 1 3097.5 538)">80%</text>
		</g>
		<g>
			<text fill="#595959" font-family="Verdana,sans-serif" font-weight="400" font-size="41" transform="matrix(1 0 0 1 3074.5 410)">100%</text>
		</g>
		<g>
			<text fill="#595959" font-family="Verdana,sans-serif" font-weight="400" font-size="41" transform="matrix(1 0 0 1 3544.5 1321)">Week Commencing</text>
		</g>
		<g>
			<text fill="#595959" font-family="Verdana,sans-serif" font-weight="400" font-size="46" transform="matrix(6.12323e-17 -1 1 6.12323e-17 3019.73 965.25)">Requests (% of Total)</text>
		</g>
		<rect x="2918.5" y="347.5" width="1760" height="1043" stroke="#D9D9D9" stroke-width="3.4375" stroke-linejoin="round" stroke-miterlimit="10" fill="none" />
		<g>
			<path d="M3228.5 1038 3249.4411764705883 1038 3270.3823529411766 1038 3291.323529411765 1038 3312.264705882353 1038 3333.205882352941 1038 3354.1470588235293 1038 3375.0882352941176 1038 3396.029411764706 1038 3416.970588235294 1038 3437.9117647058824 1038 3458.8529411764707 1038 3479.794117647059 1038 3500.735294117647 1038 3521.676470588235 1038 3542.6176470588234 1038 3563.5588235294117 1038 3584.5 1038 3605.4411764705883 1038 3626.3823529411766 1038 3647.323529411765 1038 3668.264705882353 1038 3689.205882352941 1038 3710.1470588235293 1038 3731.0882352941176 1038 3752.029411764706 1038 3772.970588235294 1038 3793.9117647058824 1038 3814.8529411764707 1038 3835.7941176470586 1038 3856.735294117647 1038 3877.676470588235 1038 3898.6176470588234 1038 3919.5588235294117 1038 3940.5 1038 3961.4411764705883 1038 3982.3823529411766 1038 4003.323529411765 1038 4024.264705882353 1038 4045.2058823529414 1038 4066.1470588235293 1038 4087.0882352941176 1038 4108.029411764706 1038 4128.970588235294 1038 4149.911764705882 1038 4170.85294117647 1038 4191.794117647059 1038 4212.735294117647 1038 4233.676470588235 1038 4254.617647058823 1038 4275.558823529412 1038 4296.5 1038 4296.5 629.5047785696727 4275.558823529412 628.3884215694598 4254.617647058823 626.7876738161085 4233.676470588235 585.3299764795494 4212.735294117647 584.8421137404707 4191.794117647059 584.3697869147531 4170.85294117647 582.8150128997006 4149.911764705882 582.5177383576936 4128.970588235294 582.3344680120879 4108.029411764706 582.5939821313019 4087.0882352941176 581.9303729662242 4066.1470588235293 581.2253151836085 4045.2058823529414 580.7419087611287 4024.264705882353 580.710243189289 4003.323529411765 580.6735762948426 3982.3823529411766 580.9280737837942 3961.4411764705883 581.4872454103777 3940.5 582.4062939611431 3919.5588235294117 569.6826475023468 3898.6176470588234 569.8912689965251 3877.676470588235 569.9302361292804 3856.735294117647 569.8349942572809 3835.7941176470586 569.5040370531727 3814.8529411764707 717.6623105620715 3793.9117647058824 693.0292117157351 3772.970588235294 692.8367597789183 3752.029411764706 692.6574656354969 3731.0882352941176 684.2461914870885 3710.1470588235293 684.0344882877787 3689.205882352941 684.1358174388192 3668.264705882353 683.9806402948523 3647.323529411765 683.9172481230904 3626.3823529411766 683.650703471495 3605.4411764705883 683.2253967284606 3584.5 683.0202318089205 3563.5588235294117 682.9152439485392 3542.6176470588234 682.6018446393113 3521.676470588235 682.3232723398903 3500.735294117647 692.0678617680483 3479.794117647059 692.1617344671945 3458.8529411764707 692.8199164999976 3437.9117647058824 693.1175071055251 3416.970588235294 693.279620378092 3396.029411764706 693.7023667945714 3375.0882352941176 694.1241584254815 3354.1470588235293 694.1818102912466 3333.205882352941 694.1642138907431 3312.264705882353 694.1125422243633 3291.323529411765 694.1000133322768 3270.3823529411766 694.3187105935212 3249.4411764705883 693.6205909506452 3228.5 692.0050611605195 3228.5 1038Z" fill="#e62d39" opacity="0.9" />
		</g>
		<g>
			<path d="M3228.5 692.0050611605195 3249.4411764705883 693.6205909506452 3270.3823529411766 694.3187105935212 3291.323529411765 694.1000133322768 3312.264705882353 694.1125422243633 3333.205882352941 694.1642138907431 3354.1470588235293 694.1818102912466 3375.0882352941176 694.1241584254815 3396.029411764706 693.7023667945714 3416.970588235294 693.279620378092 3437.9117647058824 693.1175071055251 3458.8529411764707 692.8199164999976 3479.794117647059 692.1617344671945 3500.735294117647 692.0678617680483 3521.676470588235 682.3232723398903 3542.6176470588234 682.6018446393113 3563.5588235294117 682.9152439485392 3584.5 683.0202318089205 3605.4411764705883 683.2253967284606 3626.3823529411766 683.650703471495 3647.323529411765 683.9172481230904 3668.264705882353 683.9806402948523 3689.205882352941 684.1358174388192 3710.1470588235293 684.0344882877787 3731.0882352941176 684.2461914870885 3752.029411764706 692.6574656354969 3772.970588235294 692.8367597789183 3793.9117647058824 693.0292117157351 3814.8529411764707 717.6623105620715 3835.7941176470586 569.5040370531727 3856.735294117647 569.8349942572809 3877.676470588235 569.9302361292804 3898.6176470588234 569.8912689965251 3919.5588235294117 569.6826475023468 3940.5 582.4062939611431 3961.4411764705883 581.4872454103777 3982.3823529411766 580.9280737837942 4003.323529411765 580.6735762948426 4024.264705882353 580.710243189289 4045.2058823529414 580.7419087611287 4066.1470588235293 581.2253151836085 4087.0882352941176 581.9303729662242 4108.029411764706 582.5939821313019 4128.970588235294 582.3344680120879 4149.911764705882 582.5177383576936 4170.85294117647 582.8150128997006 4191.794117647059 584.3697869147531 4212.735294117647 584.8421137404707 4233.676470588235 585.3299764795494 4254.617647058823 626.7876738161085 4275.558823529412 628.3884215694598 4296.5 629.5047785696727 4296.5 400.0041449048839 4275.558823529412 399.9604159100104 4254.617647058823 399.99059261305473 4233.676470588235 399.5837460145528 4212.735294117647 399.60517704227266 4191.794117647059 399.58267002165013 4170.85294117647 398.76939218444284 4149.911764705882 398.748881893379 4128.970588235294 398.75079403491515 4108.029411764706 398.74677273073394 4087.0882352941176 398.7411343617605 4066.1470588235293 398.7379557747454 4045.2058823529414 398.70704867301595 4024.264705882353 398.70882925199004 4003.323529411765 398.7008574619051 3982.3823529411766 398.68535542850464 3961.4411764705883 398.67102339002776 3940.5 398.67520739706913 3919.5588235294117 399.27182314363034 3898.6176470588234 399.262582558681 3877.676470588235 399.27351700187455 3856.735294117647 399.28077369767425 3835.7941176470586 399.29931326714217 3814.8529411764707 463.6506199133046 3793.9117647058824 458.1198955073757 3772.970588235294 457.6909023203396 3752.029411764706 457.1922376810141 3731.0882352941176 442.93735389999836 3710.1470588235293 442.4560046260649 3689.205882352941 441.9523894028935 3668.264705882353 441.5335721284329 3647.323529411765 441.085682632276 3626.3823529411766 440.7511233983183 3605.4411764705883 440.358904599104 3584.5 439.99162530587694 3563.5588235294117 439.5878575638358 3542.6176470588234 439.2709286792896 3521.676470588235 439.03517502824866 3500.735294117647 438.2387094064713 3479.794117647059 437.86557118539895 3458.8529411764707 437.9037489834077 3437.9117647058824 437.50828716559636 3416.970588235294 437.0430647748583 3396.029411764706 436.55579203505033 3375.0882352941176 435.9902777401653 3354.1470588235293 435.4750218802621 3333.205882352941 434.9235826881617 3312.264705882353 434.50854774480695 3291.323529411765 434.2228656036452 3270.3823529411766 433.89359402287107 3249.4411764705883 433.6904179753529 3228.5 433.5882703257375 3228.5 692.0050611605195Z" fill="#005aa6" opacity="0.9" />
		</g>
		<g>
			<path d="M3228.5 433.5882703257375 3249.4411764705883 433.6904179753529 3270.3823529411766 433.89359402287107 3291.323529411765 434.2228656036452 3312.264705882353 434.50854774480695 3333.205882352941 434.9235826881617 3354.1470588235293 435.4750218802621 3375.0882352941176 435.9902777401653 3396.029411764706 436.55579203505033 3416.970588235294 437.0430647748583 3437.9117647058824 437.50828716559636 3458.8529411764707 437.9037489834077 3479.794117647059 437.86557118539895 3500.735294117647 438.2387094064713 3521.676470588235 439.03517502824866 3542.6176470588234 439.2709286792896 3563.5588235294117 439.5878575638358 3584.5 439.99162530587694 3605.4411764705883 440.358904599104 3626.3823529411766 440.7511233983183 3647.323529411765 441.085682632276 3668.264705882353 441.5335721284329 3689.205882352941 441.9523894028935 3710.1470588235293 442.4560046260649 3731.0882352941176 442.93735389999836 3752.029411764706 457.1922376810141 3772.970588235294 457.6909023203396 3793.9117647058824 458.1198955073757 3814.8529411764707 463.6506199133046 3835.7941176470586 399.29931326714217 3856.735294117647 399.28077369767425 3877.676470588235 399.27351700187455 3898.6176470588234 399.262582558681 3919.5588235294117 399.27182314363034 3940.5 398.67520739706913 3961.4411764705883 398.67102339002776 3982.3823529411766 398.68535542850464 4003.323529411765 398.7008574619051 4024.264705882353 398.70882925199004 4045.2058823529414 398.70704867301595 4066.1470588235293 398.7379557747454 4087.0882352941176 398.7411343617605 4108.029411764706 398.74677273073394 4128.970588235294 398.75079403491515 4149.911764705882 398.748881893379 4170.85294117647 398.76939218444284 4191.794117647059 399.58267002165013 4212.735294117647 399.60517704227266 4233.676470588235 399.5837460145528 4254.617647058823 399.99059261305473 4275.558823529412 399.9604159100104 4296.5 400.0041449048839 4296.5 398.00000000000006 4275.558823529412 397.99999999999994 4254.617647058823 397.99999999999994 4233.676470588235 398.00000000000006 4212.735294117647 398 4191.794117647059 398.00000000000006 4170.85294117647 398 4149.911764705882 397.99999999999994 4128.970588235294 398 4108.029411764706 398 4087.0882352941176 397.99999999999994 4066.1470588235293 398.00000000000006 4045.2058823529414 398 4024.264705882353 398 4003.323529411765 398.00000000000006 3982.3823529411766 397.99999999999994 3961.4411764705883 398.00000000000006 3940.5 398.00000000000006 3919.5588235294117 398 3898.6176470588234 398 3877.676470588235 398.00000000000006 3856.735294117647 397.99999999999994 3835.7941176470586 398 3814.8529411764707 398 3793.9117647058824 398.00000000000006 3772.970588235294 398.00000000000006 3752.029411764706 398.0000000000001 3731.0882352941176 398 3710.1470588235293 397.99999999999994 3689.205882352941 398.00000000000006 3668.264705882353 397.99999999999994 3647.323529411765 398 3626.3823529411766 398.00000000000006 3605.4411764705883 397.99999999999994 3584.5 398 3563.5588235294117 398 3542.6176470588234 397.9999999999999 3521.676470588235 397.99999999999994 3500.735294117647 398.00000000000006 3479.794117647059 398 3458.8529411764707 398 3437.9117647058824 398.00000000000006 3416.970588235294 397.9999999999999 3396.029411764706 398 3375.0882352941176 397.99999999999994 3354.1470588235293 398 3333.205882352941 398 3312.264705882353 397.9999999999999 3291.323529411765 397.9999999999999 3270.3823529411766 398.0000000000001 3249.4411764705883 398 3228.5 397.99999999999994 3228.5 433.5882703257375Z" fill="#393d41" opacity="0.9" />
		</g>
		<g>
			<rect x="4372" y="431" width="22.9995" height="23" fill="#e62d39" />
		</g>
		<g>
			<text fill="#595959" font-family="Verdana,sans-serif" font-weight="400" font-size="41" transform="matrix(1 0 0 1 4404.56 454)">Web Browser</text>
		</g>
		<g>
			<rect x="4372" y="508" width="22.9995" height="23" fill="#005aa6" />
		</g>
		<g>
			<text fill="#595959" font-family="Verdana,sans-serif" font-weight="400" font-size="41" transform="matrix(1 0 0 1 4404.56 531)">App</text>
		</g>
		<g>
			<rect x="4372" y="585" width="22.9995" height="23" fill="#393d41" />
		</g>
		<g>
			<text fill="#595959" font-family="Verdana,sans-serif" font-weight="400" font-size="41" transform="matrix(1 0 0 1 4404.56 608)">Unclassified</text>
		</g>
	</g>
</svg>
