<svg width="1763" height="1046"
    xmlns="http://www.w3.org/2000/svg"
	xmlns:xlink="http://www.w3.org/1999/xlink" xml:space="preserve" overflow="hidden">
	<defs>
		<clipPath id="clip0">
			<rect x="2917" y="346" width="1763" height="1046"/>
		</clipPath>
	</defs>
	<g clip-path="url(#clip0)" transform="translate(-2917 -346)">
		<rect x="2918" y="347" width="1760" height="1043" fill="#FFFFFF" />
		<g>
			<path d="
			M3228.5 974.532 4296.5 974.532
			M3228.5 910.53 4296.5 910.53
			M3228.5 846.528 4296.5 846.528
			M3228.5 781.526 4296.5 781.526
			M3228.5 717.524 4296.5 717.524
			M3228.5 653.522 4296.5 653.522
			M3228.5 589.52 4296.5 589.52
			M3228.5 525.517 4296.5 525.517
			M3228.5 461.515 4296.5 461.515
			M3228.5 397.5 4296.5 397.5" stroke="#D9D9D9" stroke-width="3.4375" stroke-linejoin="round" stroke-miterlimit="10" fill="none" />
		</g>
		<g>
			<path d="M 1038.5 4296.5 1038.5" stroke="#D9D9D9" stroke-width="3.4375" stroke-linejoin="round" stroke-miterlimit="10" fill="none" fill-rule="evenodd" />
		</g>
		<g>
			<text fill="#595959" font-family="Verdana,Open Sans,DejaVu Sans,sans-serif" font-weight="400" font-size="41" transform="matrix(6.12323e-17 -1 1 6.12323e-17 3247.928955078125 1178.9985275268555)">07-Jul</text>
		</g>
		<g>
			<text fill="#595959" font-family="Verdana,Open Sans,DejaVu Sans,sans-serif" font-weight="400" font-size="41" transform="matrix(6.12323e-17 -1 1 6.12323e-17 3330.443152794471 1208.62744140625)">04-Aug</text>
		</g>
		<g>
			<text fill="#595959" font-family="Verdana,Open Sans,DejaVu Sans,sans-serif" font-weight="400" font-size="41" transform="matrix(6.12323e-17 -1 1 6.12323e-17 3412.5969989483174 1204.38330078125)">01-Sep</text>
		</g>
		<g>
			<text fill="#595959" font-family="Verdana,Open Sans,DejaVu Sans,sans-serif" font-weight="400" font-size="41" transform="matrix(6.12323e-17 -1 1 6.12323e-17 3494.7308255709136 1204.42333984375)">29-Sep</text>
		</g>
		<g>
			<text fill="#595959" font-family="Verdana,Open Sans,DejaVu Sans,sans-serif" font-weight="400" font-size="41" transform="matrix(6.12323e-17 -1 1 6.12323e-17 3572.1800818810098 1201.1401290893555)">27-Oct</text>
		</g>
		<g>
			<text fill="#595959" font-family="Verdana,Open Sans,DejaVu Sans,sans-serif" font-weight="400" font-size="41" transform="matrix(6.12323e-17 -1 1 6.12323e-17 3654.313908503606 1211.47021484375)">24-Nov</text>
		</g>
		<g>
			<text fill="#595959" font-family="Verdana,Open Sans,DejaVu Sans,sans-serif" font-weight="400" font-size="41" transform="matrix(6.12323e-17 -1 1 6.12323e-17 3736.467754657452 1207.1259765625)">22-Dec</text>
		</g>
		<g>
			<text fill="#595959" font-family="Verdana,Open Sans,DejaVu Sans,sans-serif" font-weight="400" font-size="41" transform="matrix(6.12323e-17 -1 1 6.12323e-17 3822.275165264423 1189.9291915893555)">19-Jan</text>
		</g>
		<g>
			<text fill="#595959" font-family="Verdana,Open Sans,DejaVu Sans,sans-serif" font-weight="400" font-size="41" transform="matrix(6.12323e-17 -1 1 6.12323e-17 3901.5061598557695 1201.3203125)">16-Feb</text>
		</g>
		<g>
			<text fill="#595959" font-family="Verdana,Open Sans,DejaVu Sans,sans-serif" font-weight="400" font-size="41" transform="matrix(6.12323e-17 -1 1 6.12323e-17 3982.9292931189902 1210.2890625)">16-Mar</text>
		</g>
		<g>
			<text fill="#595959" font-family="Verdana,Open Sans,DejaVu Sans,sans-serif" font-weight="400" font-size="41" transform="matrix(6.12323e-17 -1 1 6.12323e-17 4069.807748647837 1201.5405197143555)">13-Apr</text>
		</g>
		<g>
			<text fill="#595959" font-family="Verdana,Open Sans,DejaVu Sans,sans-serif" font-weight="400" font-size="41" transform="matrix(6.12323e-17 -1 1 6.12323e-17 4151.751389723558 1214.75341796875)">11-May</text>
		</g>
		<g>
			<text fill="#595959" font-family="Verdana,Open Sans,DejaVu Sans,sans-serif" font-weight="400" font-size="41" transform="matrix(6.12323e-17 -1 1 6.12323e-17 4233.064415564904 1194.0131759643555)">08-Jun</text>
		</g>
		<g>
			<text fill="#595959" font-family="Verdana,Open Sans,DejaVu Sans,sans-serif" font-weight="400" font-size="41" transform="matrix(6.12323e-17 -1 1 6.12323e-17 4315.928955078125 1178.9985275268555)">06-Jul</text>
		</g>
		<g>
			<text fill="#595959" font-family="Verdana,Open Sans,DejaVu Sans,sans-serif" font-weight="400" font-size="41" transform="matrix(1 0 0 1 3135.4482421875 1050)">0%</text>
		</g>
		<g>
			<text fill="#595959" font-family="Verdana,Open Sans,DejaVu Sans,sans-serif" font-weight="400" font-size="41" transform="matrix(1 0 0 1 3111.96533203125 922)">20%</text>
		</g>
		<g>
			<text fill="#595959" font-family="Verdana,Open Sans,DejaVu Sans,sans-serif" font-weight="400" font-size="41" transform="matrix(1 0 0 1 3110.82421875 794)">40%</text>
		</g>
		<g>
			<text fill="#595959" font-family="Verdana,Open Sans,DejaVu Sans,sans-serif" font-weight="400" font-size="41" transform="matrix(1 0 0 1 3112.3056640625 666)">60%</text>
		</g>
		<g>
			<text fill="#595959" font-family="Verdana,Open Sans,DejaVu Sans,sans-serif" font-weight="400" font-size="41" transform="matrix(1 0 0 1 3112.04541015625 538)">80%</text>
		</g>
		<g>
			<text fill="#595959" font-family="Verdana,Open Sans,DejaVu Sans,sans-serif" font-weight="400" font-size="41" transform="matrix(1 0 0 1 3090.2841796875 410)">100%</text>
		</g>
		<g>
			<text fill="#595959" font-family="Verdana,Open Sans,DejaVu Sans,sans-serif" font-weight="400" font-size="41" transform="matrix(1 0 0 1 3556.97119140625 1321)">Week Commencing</text>
		</g>
		<g>
			<text fill="#595959" font-family="Verdana,Open Sans,DejaVu Sans,sans-serif" font-weight="400" font-size="46" transform="matrix(6.12323e-17 -1 1 6.12323e-17 3019.73 936.7665710449219)">Requests (% of Total)</text>
		</g>
		<rect x="2918.5" y="347.5" width="1760" height="1043" stroke="#D9D9D9" stroke-width="3.4375" stroke-linejoin="round" stroke-miterlimit="10" fill="none" />
		<g>
			<path d="M3228.5 1038 3249.0384615384614 1038 3269.576923076923 1038 3290.1153846153848 1038 3310.653846153846 1038 3331.1923076923076 1038 3351.730769230769 1038 3372.269230769231 1038 3392.8076923076924 1038 3413.346153846154 1038 3433.8846153846152 1038 3454.423076923077 1038 3474.9615384615386 1038 3495.5 1038 3516.0384615384614 1038 3536.576923076923 1038 3557.1153846153848 1038 3577.653846153846 1038 3598.1923076923076 1038 3618.7307692307695 1038 3639.269230769231 1038 3659.8076923076924 1038 3680.346153846154 1038 3700.8846153846152 1038 3721.423076923077 1038 3741.9615384615386 1038 3762.5 1038 3783.0384615384614 1038 3803.576923076923 1038 3824.1153846153848 1038 3844.653846153846 1038 3865.1923076923076 1038 3885.7307692307695 1038 3906.269230769231 1038 3926.8076923076924 1038 3947.346153846154 1038 3967.8846153846152 1038 3988.423076923077 1038 4008.9615384615386 1038 4029.5 1038 4050.038461538462 1038 4070.576923076923 1038 4091.1153846153848 1038 4111.653846153846 1038 4132.192307692308 1038 4152.7307692307695 1038 4173.2692307692305 1038 4193.807692307692 1038 4214.346153846154 1038 4234.884615384615 1038 4255.423076923077 1038 4275.961538461539 1038 4296.5 1038 4296.5 646.8114973182403 4275.961538461539 646.8950577396355 4255.423076923077 644.079254095949 4234.884615384615 642.7292472893881 4214.346153846154 641.8202862493038 4193.807692307692 641.9480866676806 4173.2692307692305 642.0313795477604 4152.7307692307695 642.039984670155 4132.192307692308 641.7883242512185 4111.653846153846 641.6386088112265 4091.1153846153848 641.5584180917222 4070.576923076923 641.2396613478342 4050.038461538462 639.6433470430949 4029.5 641.0825381110685 4008.9615384615386 641.3274589400961 3988.423076923077 641.6145313440886 3967.8846153846152 642.4444914583115 3947.346153846154 643.401215888529 3926.8076923076924 644.3338442804811 3906.269230769231 646.711535446821 3885.7307692307695 646.5953351574117 3865.1923076923076 648.9964700856017 3844.653846153846 650.4578201384786 3824.1153846153848 650.1826843160547 3803.576923076923 650.9511325988744 3783.0384615384614 650.9685000981426 3762.5 652.4520688665375 3741.9615384615386 654.2438394166766 3721.423076923077 654.1783595408037 3700.8846153846152 665.1009269843557 3680.346153846154 665.0687170796807 3659.8076923076924 669.2508046624037 3639.269230769231 668.8015383913383 3618.7307692307695 677.0310099621294 3598.1923076923076 715.6326502484551 3577.653846153846 731.7898269041518 3557.1153846153848 731.6946718722857 3536.576923076923 731.7814057156063 3516.0384615384614 731.7708258099874 3495.5 739.179471336138 3474.9615384615386 739.1723277843557 3454.423076923077 742.0464154901043 3433.8846153846152 744.981700209997 3413.346153846154 752.0924084860791 3392.8076923076924 755.2385923010361 3372.269230769231 755.2502906288946 3351.730769230769 758.1300732473312 3331.1923076923076 768.0870120946274 3310.653846153846 768.0622682813855 3290.1153846153848 768.1168972047803 3269.576923076923 768.2021370143037 3249.0384615384614 769.6067142131767 3228.5 775.05017459998 3228.5 1038Z" fill="#e62d39" opacity="0.9" />
		</g>
		<g>
			<path d="M3228.5 775.05017459998 3249.0384615384614 769.6067142131767 3269.576923076923 768.2021370143037 3290.1153846153848 768.1168972047803 3310.653846153846 768.0622682813855 3331.1923076923076 768.0870120946274 3351.730769230769 758.1300732473312 3372.269230769231 755.2502906288946 3392.8076923076924 755.2385923010361 3413.346153846154 752.0924084860791 3433.8846153846152 744.981700209997 3454.423076923077 742.0464154901043 3474.9615384615386 739.1723277843557 3495.5 739.179471336138 3516.0384615384614 731.7708258099874 3536.576923076923 731.7814057156063 3557.1153846153848 731.6946718722857 3577.653846153846 731.7898269041518 3598.1923076923076 715.6326502484551 3618.7307692307695 677.0310099621294 3639.269230769231 668.8015383913383 3659.8076923076924 669.2508046624037 3680.346153846154 665.0687170796807 3700.8846153846152 665.1009269843557 3721.423076923077 654.1783595408037 3741.9615384615386 654.2438394166766 3762.5 652.4520688665375 3783.0384615384614 650.9685000981426 3803.576923076923 650.9511325988744 3824.1153846153848 650.1826843160547 3844.653846153846 650.4578201384786 3865.1923076923076 648.9964700856017 3885.7307692307695 646.5953351574117 3906.269230769231 646.711535446821 3926.8076923076924 644.3338442804811 3947.346153846154 643.401215888529 3967.8846153846152 642.4444914583115 3988.423076923077 641.6145313440886 4008.9615384615386 641.3274589400961 4029.5 641.0825381110685 4050.038461538462 639.6433470430949 4070.576923076923 641.2396613478342 4091.1153846153848 641.5584180917222 4111.653846153846 641.6386088112265 4132.192307692308 641.7883242512185 4152.7307692307695 642.039984670155 4173.2692307692305 642.0313795477604 4193.807692307692 641.9480866676806 4214.346153846154 641.8202862493038 4234.884615384615 642.7292472893881 4255.423076923077 644.079254095949 4275.961538461539 646.8950577396355 4296.5 646.8114973182403 4296.5 406.6290284448494 4275.961538461539 406.7429350633368 4255.423076923077 406.7436296706727 4234.884615384615 406.7813542428996 4214.346153846154 406.6698565401598 4193.807692307692 406.4177132957925 4173.2692307692305 406.61254799064136 4152.7307692307695 406.61593787153623 4132.192307692308 406.42043828437977 4111.653846153846 406.25830937946154 4091.1153846153848 406.1024336272774 4070.576923076923 405.9225420999001 4050.038461538462 406.47953769377625 4029.5 406.2783088484283 4008.9615384615386 406.1475891922515 3988.423076923077 406.0007835357919 3967.8846153846152 405.8580495377305 3947.346153846154 405.75756216085244 3926.8076923076924 405.6890755918336 3906.269230769231 405.4853661204658 3885.7307692307695 405.49122463683807 3865.1923076923076 405.2872977777903 3844.653846153846 405.0542403680629 3824.1153846153848 404.8267826278017 3803.576923076923 404.3597305581952 3783.0384615384614 404.3606360598039 3762.5 404.3133620715407 3741.9615384615386 404.2694390318647 3721.423076923077 404.25532206437714 3700.8846153846152 404.1006016590141 3680.346153846154 404.09929675944176 3659.8076923076924 404.0956381930635 3639.269230769231 404.12948436436125 3618.7307692307695 403.9961122337051 3598.1923076923076 403.3494217541671 3577.653846153846 402.9248624726996 3557.1153846153848 402.9072043922977 3536.576923076923 402.90877584131425 3516.0384615384614 402.9298471234101 3495.5 402.60349792125623 3474.9615384615386 402.6099730048478 3454.423076923077 402.37217547977207 3433.8846153846152 402.145050233926 3413.346153846154 401.73578913608276 3392.8076923076924 401.57006086206655 3372.269230769231 401.57128950627384 3351.730769230769 401.4082896460906 3331.1923076923076 400.8924429074875 3310.653846153846 400.88896921768406 3290.1153846153848 400.93900012801925 3269.576923076923 401.0268406246156 3249.0384615384614 400.9092568701918 3228.5 400.9924926084992 3228.5 775.05017459998Z" fill="#005aa6" opacity="0.9" />
		</g>
		<g>
			<path d="M3228.5 400.9924926084992 3249.0384615384614 400.9092568701918 3269.576923076923 401.0268406246156 3290.1153846153848 400.93900012801925 3310.653846153846 400.88896921768406 3331.1923076923076 400.8924429074875 3351.730769230769 401.4082896460906 3372.269230769231 401.57128950627384 3392.8076923076924 401.57006086206655 3413.346153846154 401.73578913608276 3433.8846153846152 402.145050233926 3454.423076923077 402.37217547977207 3474.9615384615386 402.6099730048478 3495.5 402.60349792125623 3516.0384615384614 402.9298471234101 3536.576923076923 402.90877584131425 3557.1153846153848 402.9072043922977 3577.653846153846 402.9248624726996 3598.1923076923076 403.3494217541671 3618.7307692307695 403.9961122337051 3639.269230769231 404.12948436436125 3659.8076923076924 404.0956381930635 3680.346153846154 404.09929675944176 3700.8846153846152 404.1006016590141 3721.423076923077 404.25532206437714 3741.9615384615386 404.2694390318647 3762.5 404.3133620715407 3783.0384615384614 404.3606360598039 3803.576923076923 404.3597305581952 3824.1153846153848 404.8267826278017 3844.653846153846 405.0542403680629 3865.1923076923076 405.2872977777903 3885.7307692307695 405.49122463683807 3906.269230769231 405.4853661204658 3926.8076923076924 405.6890755918336 3947.346153846154 405.75756216085244 3967.8846153846152 405.8580495377305 3988.423076923077 406.0007835357919 4008.9615384615386 406.1475891922515 4029.5 406.2783088484283 4050.038461538462 406.47953769377625 4070.576923076923 405.9225420999001 4091.1153846153848 406.1024336272774 4111.653846153846 406.25830937946154 4132.192307692308 406.42043828437977 4152.7307692307695 406.61593787153623 4173.2692307692305 406.61254799064136 4193.807692307692 406.4177132957925 4214.346153846154 406.6698565401598 4234.884615384615 406.7813542428996 4255.423076923077 406.7436296706727 4275.961538461539 406.7429350633368 4296.5 406.6290284448494 4296.5 397.99999999999994 4275.961538461539 398 4255.423076923077 398.00000000000006 4234.884615384615 397.9999999999999 4214.346153846154 398 4193.807692307692 398.00000000000006 4173.2692307692305 398.00000000000006 4152.7307692307695 397.99999999999994 4132.192307692308 398 4111.653846153846 398 4091.1153846153848 397.9999999999999 4070.576923076923 398 4050.038461538462 397.99999999999994 4029.5 397.99999999999994 4008.9615384615386 398 3988.423076923077 398 3967.8846153846152 398 3947.346153846154 398.00000000000006 3926.8076923076924 397.99999999999994 3906.269230769231 398.00000000000006 3885.7307692307695 398 3865.1923076923076 398 3844.653846153846 398 3824.1153846153848 397.99999999999994 3803.576923076923 397.99999999999994 3783.0384615384614 397.99999999999994 3762.5 398.00000000000006 3741.9615384615386 398.00000000000006 3721.423076923077 398.0000000000001 3700.8846153846152 397.99999999999994 3680.346153846154 397.9999999999999 3659.8076923076924 398.0000000000001 3639.269230769231 398 3618.7307692307695 398 3598.1923076923076 397.9999999999999 3577.653846153846 398.00000000000006 3557.1153846153848 397.99999999999994 3536.576923076923 397.9999999999999 3516.0384615384614 398.00000000000006 3495.5 398.00000000000006 3474.9615384615386 397.99999999999994 3454.423076923077 397.99999999999994 3433.8846153846152 397.99999999999994 3413.346153846154 398 3392.8076923076924 397.9999999999999 3372.269230769231 397.99999999999994 3351.730769230769 397.99999999999994 3331.1923076923076 398 3310.653846153846 398.00000000000006 3290.1153846153848 398.00000000000006 3269.576923076923 397.99999999999994 3249.0384615384614 397.99999999999994 3228.5 397.99999999999994 3228.5 400.9924926084992Z" fill="#393d41" opacity="0.9" />
		</g>
		<g>
			<rect x="4372" y="431" width="22.9995" height="23" fill="#e62d39" />
		</g>
		<g>
			<text fill="#595959" font-family="Verdana,Open Sans,DejaVu Sans,sans-serif" font-weight="400" font-size="41" transform="matrix(1 0 0 1 4404.56 454)">App</text>
		</g>
		<g>
			<rect x="4372" y="508" width="22.9995" height="23" fill="#005aa6" />
		</g>
		<g>
			<text fill="#595959" font-family="Verdana,Open Sans,DejaVu Sans,sans-serif" font-weight="400" font-size="41" transform="matrix(1 0 0 1 4404.56 531)">Web Browser</text>
		</g>
		<g>
			<rect x="4372" y="585" width="22.9995" height="23" fill="#393d41" />
		</g>
		<g>
			<text fill="#595959" font-family="Verdana,Open Sans,DejaVu Sans,sans-serif" font-weight="400" font-size="41" transform="matrix(1 0 0 1 4404.56 608)">Unclassified</text>
		</g>
	</g>
</svg>
