<svg width="1763" height="1046"
    xmlns="http://www.w3.org/2000/svg"
	xmlns:xlink="http://www.w3.org/1999/xlink" xml:space="preserve" overflow="hidden">
	<defs>
		<clipPath id="clip0">
			<rect x="2917" y="346" width="1763" height="1046"/>
		</clipPath>
	</defs>
	<g clip-path="url(#clip0)" transform="translate(-2917 -346)">
		<rect x="2918" y="347" width="1760" height="1043" fill="#FFFFFF" />
		<g>
			<path d="
			M3228.5 974.532 4296.5 974.532
			M3228.5 910.53 4296.5 910.53
			M3228.5 846.528 4296.5 846.528
			M3228.5 781.526 4296.5 781.526
			M3228.5 717.524 4296.5 717.524
			M3228.5 653.522 4296.5 653.522
			M3228.5 589.52 4296.5 589.52
			M3228.5 525.517 4296.5 525.517
			M3228.5 461.515 4296.5 461.515
			M3228.5 397.5 4296.5 397.5" stroke="#D9D9D9" stroke-width="3.4375" stroke-linejoin="round" stroke-miterlimit="10" fill="none" />
		</g>
		<g>
			<path d="M 1038.5 4296.5 1038.5" stroke="#D9D9D9" stroke-width="3.4375" stroke-linejoin="round" stroke-miterlimit="10" fill="none" fill-rule="evenodd" />
		</g>
		<g>
			<text fill="#595959" font-family="Verdana,Open Sans,DejaVu Sans,sans-serif" font-weight="400" font-size="41" transform="matrix(6.12323e-17 -1 1 6.12323e-17 3247.928955078125 1178.9985275268555)">01-Jul</text>
		</g>
		<g>
			<text fill="#595959" font-family="Verdana,Open Sans,DejaVu Sans,sans-serif" font-weight="400" font-size="41" transform="matrix(6.12323e-17 -1 1 6.12323e-17 3335.112628547513 1179.0385665893555)">29-Jul</text>
		</g>
		<g>
			<text fill="#595959" font-family="Verdana,Open Sans,DejaVu Sans,sans-serif" font-weight="400" font-size="41" transform="matrix(6.12323e-17 -1 1 6.12323e-17 3422.6366340481504 1208.66748046875)">26-Aug</text>
		</g>
		<g>
			<text fill="#595959" font-family="Verdana,Open Sans,DejaVu Sans,sans-serif" font-weight="400" font-size="41" transform="matrix(6.12323e-17 -1 1 6.12323e-17 3509.8203075175384 1204.42333984375)">23-Sep</text>
		</g>
		<g>
			<text fill="#595959" font-family="Verdana,Open Sans,DejaVu Sans,sans-serif" font-weight="400" font-size="41" transform="matrix(6.12323e-17 -1 1 6.12323e-17 3592.299391143176 1201.1401290893555)">21-Oct</text>
		</g>
		<g>
			<text fill="#595959" font-family="Verdana,Open Sans,DejaVu Sans,sans-serif" font-weight="400" font-size="41" transform="matrix(6.12323e-17 -1 1 6.12323e-17 3679.463045081314 1209.70849609375)">18-Nov</text>
		</g>
		<g>
			<text fill="#595959" font-family="Verdana,Open Sans,DejaVu Sans,sans-serif" font-weight="400" font-size="41" transform="matrix(6.12323e-17 -1 1 6.12323e-17 3766.6467185507017 1207.1259765625)">23-Dec</text>
		</g>
		<g>
			<text fill="#595959" font-family="Verdana,Open Sans,DejaVu Sans,sans-serif" font-weight="400" font-size="41" transform="matrix(6.12323e-17 -1 1 6.12323e-17 3857.503976004464 1191.6909103393555)">20-Jan</text>
		</g>
		<g>
			<text fill="#595959" font-family="Verdana,Open Sans,DejaVu Sans,sans-serif" font-weight="400" font-size="41" transform="matrix(6.12323e-17 -1 1 6.12323e-17 3941.744778380102 1201.3203125)">17-Feb</text>
		</g>
		<g>
			<text fill="#595959" font-family="Verdana,Open Sans,DejaVu Sans,sans-serif" font-weight="400" font-size="41" transform="matrix(6.12323e-17 -1 1 6.12323e-17 4027.9875338807396 1210.2890625)">17-Mar</text>
		</g>
		<g>
			<text fill="#595959" font-family="Verdana,Open Sans,DejaVu Sans,sans-serif" font-weight="400" font-size="41" transform="matrix(6.12323e-17 -1 1 6.12323e-17 4119.975894850128 1201.5405197143555)">14-Apr</text>
		</g>
		<g>
			<text fill="#595959" font-family="Verdana,Open Sans,DejaVu Sans,sans-serif" font-weight="400" font-size="41" transform="matrix(6.12323e-17 -1 1 6.12323e-17 4207.2896952726405 1214.75341796875)">12-May</text>
		</g>
		<g>
			<text fill="#595959" font-family="Verdana,Open Sans,DejaVu Sans,sans-serif" font-weight="400" font-size="41" transform="matrix(6.12323e-17 -1 1 6.12323e-17 4293.4023238201535 1192.2914962768555)">16-Jun</text>
		</g>
		<g>
			<text fill="#595959" font-family="Verdana,Open Sans,DejaVu Sans,sans-serif" font-weight="400" font-size="41" transform="matrix(1 0 0 1 3169.14111328125 1050)">0</text>
		</g>
		<g>
			<text fill="#595959" font-family="Verdana,Open Sans,DejaVu Sans,sans-serif" font-weight="400" font-size="41" transform="matrix(1 0 0 1 3095.689453125 922)">3,071</text>
		</g>
		<g>
			<text fill="#595959" font-family="Verdana,Open Sans,DejaVu Sans,sans-serif" font-weight="400" font-size="41" transform="matrix(1 0 0 1 3089.22314453125 794)">6,142</text>
		</g>
		<g>
			<text fill="#595959" font-family="Verdana,Open Sans,DejaVu Sans,sans-serif" font-weight="400" font-size="41" transform="matrix(1 0 0 1 3089.203125 666)">9,213</text>
		</g>
		<g>
			<text fill="#595959" font-family="Verdana,Open Sans,DejaVu Sans,sans-serif" font-weight="400" font-size="41" transform="matrix(1 0 0 1 3065.8203201293945 538)">12,284</text>
		</g>
		<g>
			<text fill="#595959" font-family="Verdana,Open Sans,DejaVu Sans,sans-serif" font-weight="400" font-size="41" transform="matrix(1 0 0 1 3067.3618240356445 410)">15,355</text>
		</g>
		<g>
			<text fill="#595959" font-family="Verdana,Open Sans,DejaVu Sans,sans-serif" font-weight="400" font-size="41" transform="matrix(1 0 0 1 3556.97119140625 1321)">Week Commencing</text>
		</g>
		<g>
			<text fill="#595959" font-family="Verdana,Open Sans,DejaVu Sans,sans-serif" font-weight="400" font-size="46" transform="matrix(6.12323e-17 -1 1 6.12323e-17 3019.73 1011.673828125)">Number of Browser Profiles</text>
		</g>
		<rect x="2918.5" y="347.5" width="1760" height="1043" stroke="#D9D9D9" stroke-width="3.4375" stroke-linejoin="round" stroke-miterlimit="10" fill="none" />
		<g>
			<path d="M3228.5 1038 3250.295918367347 1038 3272.091836734694 1038 3293.887755102041 1038 3315.683673469388 1038 3337.4795918367345 1038 3359.2755102040815 1038 3381.0714285714284 1038 3402.8673469387754 1038 3424.6632653061224 1038 3446.4591836734694 1038 3468.2551020408164 1038 3490.0510204081634 1038 3511.8469387755104 1038 3533.6428571428573 1038 3555.4387755102043 1038 3577.234693877551 1038 3599.030612244898 1038 3620.826530612245 1038 3642.622448979592 1038 3664.418367346939 1038 3686.214285714286 1038 3708.0102040816328 1038 3729.8061224489797 1038 3751.6020408163267 1038 3773.3979591836733 1038 3795.1938775510203 1038 3816.9897959183672 1038 3838.785714285714 1038 3860.581632653061 1038 3882.377551020408 1038 3904.173469387755 1038 3925.969387755102 1038 3947.765306122449 1038 3969.5612244897957 1038 3991.357142857143 1038 4013.1530612244896 1038 4034.9489795918366 1038 4056.7448979591836 1038 4078.5408163265306 1038 4100.336734693878 1038 4122.132653061224 1038 4143.928571428572 1038 4165.724489795918 1038 4187.5204081632655 1038 4209.316326530612 1038 4231.1122448979595 1038 4252.908163265306 1038 4274.7040816326535 1038 4296.5 1038 4296.5 533.8358840768478 4274.7040816326535 535.0446108759361 4252.908163265306 536.4617388472809 4231.1122448979595 538.1706284597851 4209.316326530612 539.337675024422 4187.5204081632655 540.4630413546076 4165.724489795918 541.4216867469879 4143.928571428572 542.2969716704656 4122.132653061224 543.2972972972973 4100.336734693878 544.2142624552263 4078.5408163265306 545.7564311299251 4056.7448979591836 546.4233148811461 4034.9489795918366 547.0901986323672 4013.1530612244896 547.8821230869423 3991.357142857143 549.007489417128 3969.5612244897957 550.1745359817648 3947.765306122449 551.091501139694 3925.969387755102 551.6750244220123 3904.173469387755 552.6336698143926 3882.377551020408 554.0507977857376 3860.581632653061 554.6760013025073 3838.785714285714 555.3845652881797 3816.9897959183672 555.8847281015956 3795.1938775510203 556.6349723217193 3773.3979591836733 557.1351351351351 3751.6020408163267 557.4268967762944 3729.8061224489797 558.3855421686746 3708.0102040816328 559.0941061543471 3686.214285714286 560.6779550634972 3664.418367346939 561.7199609247803 3642.622448979592 562.34516444155 3620.826530612245 562.9703679583197 3599.030612244898 563.8873331162488 3577.234693877551 564.6375773363725 3555.4387755102043 565.3461413220449 3533.6428571428573 566.2214262455226 3511.8469387755104 567.5551937479647 3490.0510204081634 567.971996092478 3468.2551020408164 569.0556821882124 3446.4591836734694 569.9726473461412 3424.6632653061224 570.5978508629111 3402.8673469387754 571.51481602084 3381.0714285714284 572.0566590687072 3359.2755102040815 572.6401823510257 3337.4795918367345 573.5571475089547 3315.683673469388 574.3490719635297 3293.887755102041 575.0993161836535 3272.091836734694 575.6411592315206 3250.295918367347 576.0579615760339 3228.5 576.474763920547 3228.5 1038Z" fill="#e62d39" opacity="0.9" />
		</g>
		<g>
			<path d="M3228.5 576.474763920547 3250.295918367347 576.0579615760339 3272.091836734694 575.6411592315206 3293.887755102041 575.0993161836535 3315.683673469388 574.3490719635297 3337.4795918367345 573.5571475089547 3359.2755102040815 572.6401823510257 3381.0714285714284 572.0566590687072 3402.8673469387754 571.51481602084 3424.6632653061224 570.5978508629111 3446.4591836734694 569.9726473461412 3468.2551020408164 569.0556821882124 3490.0510204081634 567.971996092478 3511.8469387755104 567.5551937479647 3533.6428571428573 566.2214262455226 3555.4387755102043 565.3461413220449 3577.234693877551 564.6375773363725 3599.030612244898 563.8873331162488 3620.826530612245 562.9703679583197 3642.622448979592 562.34516444155 3664.418367346939 561.7199609247803 3686.214285714286 560.6779550634972 3708.0102040816328 559.0941061543471 3729.8061224489797 558.3855421686746 3751.6020408163267 557.4268967762944 3773.3979591836733 557.1351351351351 3795.1938775510203 556.6349723217193 3816.9897959183672 555.8847281015956 3838.785714285714 555.3845652881797 3860.581632653061 554.6760013025073 3882.377551020408 554.0507977857376 3904.173469387755 552.6336698143926 3925.969387755102 551.6750244220123 3947.765306122449 551.091501139694 3969.5612244897957 550.1745359817648 3991.357142857143 549.007489417128 4013.1530612244896 547.8821230869423 4034.9489795918366 547.0901986323672 4056.7448979591836 546.4233148811461 4078.5408163265306 545.7564311299251 4100.336734693878 544.2142624552263 4122.132653061224 543.2972972972973 4143.928571428572 542.2969716704656 4165.724489795918 541.4216867469879 4187.5204081632655 540.4630413546076 4209.316326530612 539.337675024422 4231.1122448979595 538.1706284597851 4252.908163265306 536.4617388472809 4274.7040816326535 535.0446108759361 4296.5 533.8358840768478 4296.5 397.9999999999999 4274.7040816326535 399.33376750244213 4252.908163265306 400.8759361771409 4231.1122448979595 403.1683490719636 4209.316326530612 404.543796808857 4187.5204081632655 405.9192445457506 4165.724489795918 407.04461087593614 4143.928571428572 408.04493650276777 4122.132653061224 409.253663301856 4100.336734693878 410.3373493975903 4078.5408163265306 412.08791924454573 4056.7448979591836 412.96320416802337 4034.9489795918366 413.71344838814707 4013.1530612244896 414.63041354607617 3991.357142857143 416.0892217518724 3969.5612244897957 417.3813090198632 3947.765306122449 418.4233148811462 3925.969387755102 419.25691957017244 3904.173469387755 420.46564636926075 3882.377551020408 422.049495278411 3860.581632653061 422.84141973298597 3838.785714285714 423.8000651253663 3816.9897959183672 424.5086291110387 3795.1938775510203 425.38391403451635 3773.3979591836733 425.92575708238354 3751.6020408163267 426.2175187235428 3729.8061224489797 427.34288505372837 3708.0102040816328 428.2598502116574 3686.214285714286 430.13546076196667 3664.418367346939 431.42754802995773 3642.622448979592 432.261152718984 3620.826530612245 433.63660045587744 3599.030612244898 434.76196678606317 3577.234693877551 435.67893194399215 3555.4387755102043 436.55421686746985 3533.6428571428573 437.5545424943015 3511.8469387755104 439.0133507000976 3490.0510204081634 439.5968739824161 3468.2551020408164 440.9723217193097 3446.4591836734694 442.09768804949516 3424.6632653061224 442.88961250407027 3402.8673469387754 444.0149788342559 3381.0714285714284 444.6401823510256 3359.2755102040815 445.5154672745034 3337.4795918367345 446.51579290133503 3315.683673469388 447.4744382937153 3293.887755102041 448.34972321719306 3272.091836734694 448.8915662650602 3250.295918367347 449.3917290784761 3228.5 450.10029306414845 3228.5 576.474763920547Z" fill="#005aa6" opacity="0.9" />
		</g>
		<g>
			<rect x="4372" y="431" width="22.9995" height="23" fill="#e62d39" />
		</g>
		<g>
			<text fill="#595959" font-family="Verdana,Open Sans,DejaVu Sans,sans-serif" font-weight="400" font-size="41" transform="matrix(1 0 0 1 4404.56 454)">Web Browser</text>
		</g>
		<g>
			<rect x="4372" y="508" width="22.9995" height="23" fill="#005aa6" />
		</g>
		<g>
			<text fill="#595959" font-family="Verdana,Open Sans,DejaVu Sans,sans-serif" font-weight="400" font-size="41" transform="matrix(1 0 0 1 4404.56 531)">App</text>
		</g>
	</g>
</svg>
