<svg width="1763" height="1046"
    xmlns="http://www.w3.org/2000/svg"
	xmlns:xlink="http://www.w3.org/1999/xlink" xml:space="preserve" overflow="hidden">
	<defs>
		<clipPath id="clip0">
			<rect x="2917" y="346" width="1763" height="1046"/>
		</clipPath>
	</defs>
	<g clip-path="url(#clip0)" transform="translate(-2917 -346)">
		<rect x="2918" y="347" width="1760" height="1043" fill="#FFFFFF" />
		<g>
			<path d="
			M3228.5 974.532 4296.5 974.532
			M3228.5 910.53 4296.5 910.53
			M3228.5 846.528 4296.5 846.528
			M3228.5 781.526 4296.5 781.526
			M3228.5 717.524 4296.5 717.524
			M3228.5 653.522 4296.5 653.522
			M3228.5 589.52 4296.5 589.52
			M3228.5 525.517 4296.5 525.517
			M3228.5 461.515 4296.5 461.515
			M3228.5 397.5 4296.5 397.5" stroke="#D9D9D9" stroke-width="3.4375" stroke-linejoin="round" stroke-miterlimit="10" fill="none" />
		</g>
		<g>
			<path d="M 1038.5 4296.5 1038.5" stroke="#D9D9D9" stroke-width="3.4375" stroke-linejoin="round" stroke-miterlimit="10" fill="none" fill-rule="evenodd" />
		</g>
		<g>
			<text fill="#595959" font-family="Verdana,Open Sans,DejaVu Sans,sans-serif" font-weight="400" font-size="41" transform="matrix(6.12323e-17 -1 1 6.12323e-17 3247.928955078125 1179.0385665893555)">21-Jul</text>
		</g>
		<g>
			<text fill="#595959" font-family="Verdana,Open Sans,DejaVu Sans,sans-serif" font-weight="400" font-size="41" transform="matrix(6.12323e-17 -1 1 6.12323e-17 3330.423133263221 1206.90576171875)">18-Aug</text>
		</g>
		<g>
			<text fill="#595959" font-family="Verdana,Open Sans,DejaVu Sans,sans-serif" font-weight="400" font-size="41" transform="matrix(6.12323e-17 -1 1 6.12323e-17 3412.5769794170674 1202.66162109375)">15-Sep</text>
		</g>
		<g>
			<text fill="#595959" font-family="Verdana,Open Sans,DejaVu Sans,sans-serif" font-weight="400" font-size="41" transform="matrix(6.12323e-17 -1 1 6.12323e-17 3490.0262357271636 1199.3784103393555)">13-Oct</text>
		</g>
		<g>
			<text fill="#595959" font-family="Verdana,Open Sans,DejaVu Sans,sans-serif" font-weight="400" font-size="41" transform="matrix(6.12323e-17 -1 1 6.12323e-17 3572.1800818810098 1209.70849609375)">10-Nov</text>
		</g>
		<g>
			<text fill="#595959" font-family="Verdana,Open Sans,DejaVu Sans,sans-serif" font-weight="400" font-size="41" transform="matrix(6.12323e-17 -1 1 6.12323e-17 3654.333928034856 1207.0859375)">08-Dec</text>
		</g>
		<g>
			<text fill="#595959" font-family="Verdana,Open Sans,DejaVu Sans,sans-serif" font-weight="400" font-size="41" transform="matrix(6.12323e-17 -1 1 6.12323e-17 3740.141338641827 1191.6508712768555)">05-Jan</text>
		</g>
		<g>
			<text fill="#595959" font-family="Verdana,Open Sans,DejaVu Sans,sans-serif" font-weight="400" font-size="41" transform="matrix(6.12323e-17 -1 1 6.12323e-17 3819.352313701923 1203.0419921875)">02-Feb</text>
		</g>
		<g>
			<text fill="#595959" font-family="Verdana,Open Sans,DejaVu Sans,sans-serif" font-weight="400" font-size="41" transform="matrix(6.12323e-17 -1 1 6.12323e-17 3900.7954664963945 1212.0107421875)">02-Mar</text>
		</g>
		<g>
			<text fill="#595959" font-family="Verdana,Open Sans,DejaVu Sans,sans-serif" font-weight="400" font-size="41" transform="matrix(6.12323e-17 -1 1 6.12323e-17 3982.9493126502402 1212.1708984375)">30-Mar</text>
		</g>
		<g>
			<text fill="#595959" font-family="Verdana,Open Sans,DejaVu Sans,sans-serif" font-weight="400" font-size="41" transform="matrix(6.12323e-17 -1 1 6.12323e-17 4069.807748647837 1203.3022384643555)">27-Apr</text>
		</g>
		<g>
			<text fill="#595959" font-family="Verdana,Open Sans,DejaVu Sans,sans-serif" font-weight="400" font-size="41" transform="matrix(6.12323e-17 -1 1 6.12323e-17 4151.961594801683 1216.51513671875)">25-May</text>
		</g>
		<g>
			<text fill="#595959" font-family="Verdana,Open Sans,DejaVu Sans,sans-serif" font-weight="400" font-size="41" transform="matrix(6.12323e-17 -1 1 6.12323e-17 4233.044396033654 1194.0532150268555)">22-Jun</text>
		</g>
		<g>
			<text fill="#595959" font-family="Verdana,Open Sans,DejaVu Sans,sans-serif" font-weight="400" font-size="41" transform="matrix(6.12323e-17 -1 1 6.12323e-17 4315.928955078125 1179.0385665893555)">20-Jul</text>
		</g>
		<g>
			<text fill="#595959" font-family="Verdana,Open Sans,DejaVu Sans,sans-serif" font-weight="400" font-size="41" transform="matrix(1 0 0 1 3169.14111328125 1050)">0</text>
		</g>
		<g>
			<text fill="#595959" font-family="Verdana,Open Sans,DejaVu Sans,sans-serif" font-weight="400" font-size="41" transform="matrix(1 0 0 1 3088.6826171875 922)">3,388</text>
		</g>
		<g>
			<text fill="#595959" font-family="Verdana,Open Sans,DejaVu Sans,sans-serif" font-weight="400" font-size="41" transform="matrix(1 0 0 1 3089.02294921875 794)">6,776</text>
		</g>
		<g>
			<text fill="#595959" font-family="Verdana,Open Sans,DejaVu Sans,sans-serif" font-weight="400" font-size="41" transform="matrix(1 0 0 1 3065.8203201293945 666)">10,164</text>
		</g>
		<g>
			<text fill="#595959" font-family="Verdana,Open Sans,DejaVu Sans,sans-serif" font-weight="400" font-size="41" transform="matrix(1 0 0 1 3067.2016677856445 538)">13,552</text>
		</g>
		<g>
			<text fill="#595959" font-family="Verdana,Open Sans,DejaVu Sans,sans-serif" font-weight="400" font-size="41" transform="matrix(1 0 0 1 3067.0415115356445 410)">16,940</text>
		</g>
		<g>
			<text fill="#595959" font-family="Verdana,Open Sans,DejaVu Sans,sans-serif" font-weight="400" font-size="41" transform="matrix(1 0 0 1 3556.97119140625 1321)">Week Commencing</text>
		</g>
		<g>
			<text fill="#595959" font-family="Verdana,Open Sans,DejaVu Sans,sans-serif" font-weight="400" font-size="46" transform="matrix(6.12323e-17 -1 1 6.12323e-17 3019.73 1011.673828125)">Number of Browser Profiles</text>
		</g>
		<rect x="2918.5" y="347.5" width="1760" height="1043" stroke="#D9D9D9" stroke-width="3.4375" stroke-linejoin="round" stroke-miterlimit="10" fill="none" />
		<g>
			<path d="M3228.5 1038 3249.0384615384614 1038 3269.576923076923 1038 3290.1153846153848 1038 3310.653846153846 1038 3331.1923076923076 1038 3351.730769230769 1038 3372.269230769231 1038 3392.8076923076924 1038 3413.346153846154 1038 3433.8846153846152 1038 3454.423076923077 1038 3474.9615384615386 1038 3495.5 1038 3516.0384615384614 1038 3536.576923076923 1038 3557.1153846153848 1038 3577.653846153846 1038 3598.1923076923076 1038 3618.7307692307695 1038 3639.269230769231 1038 3659.8076923076924 1038 3680.346153846154 1038 3700.8846153846152 1038 3721.423076923077 1038 3741.9615384615386 1038 3762.5 1038 3783.0384615384614 1038 3803.576923076923 1038 3824.1153846153848 1038 3844.653846153846 1038 3865.1923076923076 1038 3885.7307692307695 1038 3906.269230769231 1038 3926.8076923076924 1038 3947.346153846154 1038 3967.8846153846152 1038 3988.423076923077 1038 4008.9615384615386 1038 4029.5 1038 4050.038461538462 1038 4070.576923076923 1038 4091.1153846153848 1038 4111.653846153846 1038 4132.192307692308 1038 4152.7307692307695 1038 4173.2692307692305 1038 4193.807692307692 1038 4214.346153846154 1038 4234.884615384615 1038 4255.423076923077 1038 4275.961538461539 1038 4296.5 1038 4296.5 534.1605667060212 4275.961538461539 534.7272727272727 4255.423076923077 535.1806375442738 4234.884615384615 535.6717827626919 4214.346153846154 536.3896103896104 4193.807692307692 537.900826446281 4173.2692307692305 539.034238488784 4152.7307692307695 539.9787485242031 4132.192307692308 540.5454545454545 4111.653846153846 541.112160566706 4091.1153846153848 542.2833530106258 4070.576923076923 542.8500590318772 4050.038461538462 543.6434474616293 4029.5 544.7012987012988 4008.9615384615386 545.5324675324675 3988.423076923077 546.5525383707202 3967.8846153846152 547.5348288075561 3947.346153846154 548.517119244392 3926.8076923076924 549.9905548996458 3906.269230769231 550.7083825265644 3885.7307692307695 551.6151121605667 3865.1923076923076 552.2573789846517 3844.653846153846 553.3530106257379 3824.1153846153848 554.3353010625738 3803.576923076923 554.8642266824086 3783.0384615384614 555.6576151121606 3762.5 556.3754427390791 3741.9615384615386 557.1688311688313 3721.423076923077 557.3199527744982 3700.8846153846152 557.7733175914994 3680.346153846154 558.3022432113341 3659.8076923076924 559.28453364817 3639.269230769231 560.4935064935065 3618.7307692307695 562.0802833530106 3598.1923076923076 562.3825265643447 3577.653846153846 563.4403778040141 3557.1153846153848 564.0448642266824 3536.576923076923 565.4427390791027 3516.0384615384614 566.0094451003542 3495.5 567.2939787485243 3474.9615384615386 567.4073199527745 3454.423076923077 568.2384887839434 3433.8846153846152 569.2207792207793 3413.346153846154 570.4675324675325 3392.8076923076924 571.1475796930342 3372.269230769231 571.7520661157025 3351.730769230769 572.961038961039 3331.1923076923076 573.7544273907911 3310.653846153846 574.6233766233767 3290.1153846153848 575.5678866587957 3269.576923076923 576.3234946871311 3249.0384615384614 577.0413223140497 3228.5 577.8724911452184 3228.5 1038Z" fill="#005aa6" opacity="0.9" />
		</g>
		<g>
			<path d="M3228.5 577.8724911452184 3249.0384615384614 577.0413223140497 3269.576923076923 576.3234946871311 3290.1153846153848 575.5678866587957 3310.653846153846 574.6233766233767 3331.1923076923076 573.7544273907911 3351.730769230769 572.961038961039 3372.269230769231 571.7520661157025 3392.8076923076924 571.1475796930342 3413.346153846154 570.4675324675325 3433.8846153846152 569.2207792207793 3454.423076923077 568.2384887839434 3474.9615384615386 567.4073199527745 3495.5 567.2939787485243 3516.0384615384614 566.0094451003542 3536.576923076923 565.4427390791027 3557.1153846153848 564.0448642266824 3577.653846153846 563.4403778040141 3598.1923076923076 562.3825265643447 3618.7307692307695 562.0802833530106 3639.269230769231 560.4935064935065 3659.8076923076924 559.28453364817 3680.346153846154 558.3022432113341 3700.8846153846152 557.7733175914994 3721.423076923077 557.3199527744982 3741.9615384615386 557.1688311688313 3762.5 556.3754427390791 3783.0384615384614 555.6576151121606 3803.576923076923 554.8642266824086 3824.1153846153848 554.3353010625738 3844.653846153846 553.3530106257379 3865.1923076923076 552.2573789846517 3885.7307692307695 551.6151121605667 3906.269230769231 550.7083825265644 3926.8076923076924 549.9905548996458 3947.346153846154 548.517119244392 3967.8846153846152 547.5348288075561 3988.423076923077 546.5525383707202 4008.9615384615386 545.5324675324675 4029.5 544.7012987012988 4050.038461538462 543.6434474616293 4070.576923076923 542.8500590318772 4091.1153846153848 542.2833530106258 4111.653846153846 541.112160566706 4132.192307692308 540.5454545454545 4152.7307692307695 539.9787485242031 4173.2692307692305 539.034238488784 4193.807692307692 537.900826446281 4214.346153846154 536.3896103896104 4234.884615384615 535.6717827626919 4255.423076923077 535.1806375442738 4275.961538461539 534.7272727272727 4296.5 534.1605667060212 4296.5 397.99999999999994 4275.961538461539 398.86894923258563 4255.423076923077 399.7001180637544 4234.884615384615 400.3046044864227 4214.346153846154 401.3624557260921 4193.807692307692 404.120425029516 4173.2692307692305 405.48051948051955 4152.7307692307695 406.7650531286895 4132.192307692308 407.44510035419125 4111.653846153846 408.3518299881937 4091.1153846153848 409.7119244391972 4070.576923076923 410.6942148760331 4050.038461538462 411.6387249114522 4029.5 412.9610389610391 4008.9615384615386 413.98110979929163 3988.423076923077 415.2656434474616 3967.8846153846152 416.4368358913814 3947.346153846154 417.6835891381346 3926.8076923076924 419.57260920897284 3906.269230769231 420.44155844155847 3885.7307692307695 421.65053128689493 3865.1923076923076 422.67060212514764 3844.653846153846 424.06847697756785 3824.1153846153848 425.2396694214876 3803.576923076923 425.95749704840625 3783.0384615384614 427.5064935064935 3762.5 428.2998819362455 3741.9615384615386 429.2443919716648 3721.423076923077 429.43329397874857 3700.8846153846152 429.96221959858326 3680.346153846154 430.49114521841796 3659.8076923076924 431.775678866588 3639.269230769231 433.2113341204251 3618.7307692307695 434.987012987013 3598.1923076923076 435.55371900826447 3577.653846153846 436.83825265643446 3557.1153846153848 437.556080283353 3536.576923076923 439.10507674144037 3516.0384615384614 439.86068476977573 3495.5 441.29634002361286 3474.9615384615386 441.4474616292798 3454.423076923077 442.54309327036606 3433.8846153846152 443.63872491145224 3413.346153846154 445.07438016528926 3392.8076923076924 445.9055489964581 3372.269230769231 446.66115702479345 3351.730769230769 447.94569067296345 3331.1923076923076 448.92798110979936 3310.653846153846 449.8724911452185 3290.1153846153848 451.1570247933884 3269.576923076923 451.9881936245573 3249.0384615384614 452.9327036599765 3228.5 453.87721369539554 3228.5 577.8724911452184Z" fill="#e62d39" opacity="0.9" />
		</g>
		<g>
			<rect x="4372" y="431" width="22.9995" height="23" fill="#005aa6" />
		</g>
		<g>
			<text fill="#595959" font-family="Verdana,Open Sans,DejaVu Sans,sans-serif" font-weight="400" font-size="41" transform="matrix(1 0 0 1 4404.56 454)">Web Browser</text>
		</g>
		<g>
			<rect x="4372" y="508" width="22.9995" height="23" fill="#e62d39" />
		</g>
		<g>
			<text fill="#595959" font-family="Verdana,Open Sans,DejaVu Sans,sans-serif" font-weight="400" font-size="41" transform="matrix(1 0 0 1 4404.56 531)">App</text>
		</g>
	</g>
</svg>
