<svg width="1763" height="1046"
    xmlns="http://www.w3.org/2000/svg"
	xmlns:xlink="http://www.w3.org/1999/xlink" xml:space="preserve" overflow="hidden">
	<defs>
		<clipPath id="clip0">
			<rect x="2917" y="346" width="1763" height="1046"/>
		</clipPath>
	</defs>
	<g clip-path="url(#clip0)" transform="translate(-2917 -346)">
		<rect x="2918" y="347" width="1760" height="1043" fill="#FFFFFF" />
		<g>
			<path d="
			M3228.5 974.532 4296.5 974.532
			M3228.5 910.53 4296.5 910.53
			M3228.5 846.528 4296.5 846.528
			M3228.5 781.526 4296.5 781.526
			M3228.5 717.524 4296.5 717.524
			M3228.5 653.522 4296.5 653.522
			M3228.5 589.52 4296.5 589.52
			M3228.5 525.517 4296.5 525.517
			M3228.5 461.515 4296.5 461.515
			M3228.5 397.5 4296.5 397.5" stroke="#D9D9D9" stroke-width="3.4375" stroke-linejoin="round" stroke-miterlimit="10" fill="none" />
		</g>
		<g>
			<path d="M 1038.5 4296.5 1038.5" stroke="#D9D9D9" stroke-width="3.4375" stroke-linejoin="round" stroke-miterlimit="10" fill="none" fill-rule="evenodd" />
		</g>
		<g>
			<text fill="#595959" font-family="Verdana,Open Sans,DejaVu Sans,sans-serif" font-weight="400" font-size="41" transform="matrix(6.12323e-17 -1 1 6.12323e-17 3243.564697265625 1201.1401290893555)">21-Oct</text>
		</g>
		<g>
			<text fill="#595959" font-family="Verdana,Open Sans,DejaVu Sans,sans-serif" font-weight="400" font-size="41" transform="matrix(6.12323e-17 -1 1 6.12323e-17 3328.984677734375 1209.70849609375)">18-Nov</text>
		</g>
		<g>
			<text fill="#595959" font-family="Verdana,Open Sans,DejaVu Sans,sans-serif" font-weight="400" font-size="41" transform="matrix(6.12323e-17 -1 1 6.12323e-17 3414.424677734375 1207.1259765625)">23-Dec</text>
		</g>
		<g>
			<text fill="#595959" font-family="Verdana,Open Sans,DejaVu Sans,sans-serif" font-weight="400" font-size="41" transform="matrix(6.12323e-17 -1 1 6.12323e-17 3503.53826171875 1191.6909103393555)">20-Jan</text>
		</g>
		<g>
			<text fill="#595959" font-family="Verdana,Open Sans,DejaVu Sans,sans-serif" font-weight="400" font-size="41" transform="matrix(6.12323e-17 -1 1 6.12323e-17 3586.035390625 1201.3203125)">17-Feb</text>
		</g>
		<g>
			<text fill="#595959" font-family="Verdana,Open Sans,DejaVu Sans,sans-serif" font-weight="400" font-size="41" transform="matrix(6.12323e-17 -1 1 6.12323e-17 3670.53447265625 1210.2890625)">17-Mar</text>
		</g>
		<g>
			<text fill="#595959" font-family="Verdana,Open Sans,DejaVu Sans,sans-serif" font-weight="400" font-size="41" transform="matrix(6.12323e-17 -1 1 6.12323e-17 3760.77916015625 1201.5405197143555)">14-Apr</text>
		</g>
		<g>
			<text fill="#595959" font-family="Verdana,Open Sans,DejaVu Sans,sans-serif" font-weight="400" font-size="41" transform="matrix(6.12323e-17 -1 1 6.12323e-17 3846.349287109375 1214.75341796875)">12-May</text>
		</g>
		<g>
			<text fill="#595959" font-family="Verdana,Open Sans,DejaVu Sans,sans-serif" font-weight="400" font-size="41" transform="matrix(6.12323e-17 -1 1 6.12323e-17 3930.7182421875 1192.2914962768555)">16-Jun</text>
		</g>
		<g>
			<text fill="#595959" font-family="Verdana,Open Sans,DejaVu Sans,sans-serif" font-weight="400" font-size="41" transform="matrix(6.12323e-17 -1 1 6.12323e-17 4016.888955078125 1177.2768478393555)">14-Jul</text>
		</g>
		<g>
			<text fill="#595959" font-family="Verdana,Open Sans,DejaVu Sans,sans-serif" font-weight="400" font-size="41" transform="matrix(6.12323e-17 -1 1 6.12323e-17 4102.519140625 1206.90576171875)">11-Aug</text>
		</g>
		<g>
			<text fill="#595959" font-family="Verdana,Open Sans,DejaVu Sans,sans-serif" font-weight="400" font-size="41" transform="matrix(6.12323e-17 -1 1 6.12323e-17 4188.129306640625 1204.38330078125)">08-Sep</text>
		</g>
		<g>
			<text fill="#595959" font-family="Verdana,Open Sans,DejaVu Sans,sans-serif" font-weight="400" font-size="41" transform="matrix(6.12323e-17 -1 1 6.12323e-17 4268.844697265625 1201.1000900268555)">06-Oct</text>
		</g>
		<g>
			<text fill="#595959" font-family="Verdana,Open Sans,DejaVu Sans,sans-serif" font-weight="400" font-size="41" transform="matrix(1 0 0 1 3169.14111328125 1050)">0</text>
		</g>
		<g>
			<text fill="#595959" font-family="Verdana,Open Sans,DejaVu Sans,sans-serif" font-weight="400" font-size="41" transform="matrix(1 0 0 1 3088.7626953125 922)">3,159</text>
		</g>
		<g>
			<text fill="#595959" font-family="Verdana,Open Sans,DejaVu Sans,sans-serif" font-weight="400" font-size="41" transform="matrix(1 0 0 1 3089.14306640625 794)">6,318</text>
		</g>
		<g>
			<text fill="#595959" font-family="Verdana,Open Sans,DejaVu Sans,sans-serif" font-weight="400" font-size="41" transform="matrix(1 0 0 1 3088.802734375 666)">9,476</text>
		</g>
		<g>
			<text fill="#595959" font-family="Verdana,Open Sans,DejaVu Sans,sans-serif" font-weight="400" font-size="41" transform="matrix(1 0 0 1 3067.3618240356445 538)">12,635</text>
		</g>
		<g>
			<text fill="#595959" font-family="Verdana,Open Sans,DejaVu Sans,sans-serif" font-weight="400" font-size="41" transform="matrix(1 0 0 1 3065.8203201293945 410)">15,794</text>
		</g>
		<g>
			<text fill="#595959" font-family="Verdana,Open Sans,DejaVu Sans,sans-serif" font-weight="400" font-size="41" transform="matrix(1 0 0 1 3556.97119140625 1321)">Week Commencing</text>
		</g>
		<g>
			<text fill="#595959" font-family="Verdana,Open Sans,DejaVu Sans,sans-serif" font-weight="400" font-size="46" transform="matrix(6.12323e-17 -1 1 6.12323e-17 3019.73 1011.673828125)">Number of Browser Profiles</text>
		</g>
		<rect x="2918.5" y="347.5" width="1760" height="1043" stroke="#D9D9D9" stroke-width="3.4375" stroke-linejoin="round" stroke-miterlimit="10" fill="none" />
		<g>
			<path d="M3228.5 1038 3249.86 1038 3271.22 1038 3292.58 1038 3313.94 1038 3335.3 1038 3356.66 1038 3378.02 1038 3399.38 1038 3420.74 1038 3442.1 1038 3463.46 1038 3484.82 1038 3506.18 1038 3527.54 1038 3548.9 1038 3570.26 1038 3591.62 1038 3612.98 1038 3634.34 1038 3655.7 1038 3677.06 1038 3698.42 1038 3719.7799999999997 1038 3741.14 1038 3762.5 1038 3783.86 1038 3805.2200000000003 1038 3826.58 1038 3847.94 1038 3869.3 1038 3890.66 1038 3912.02 1038 3933.38 1038 3954.74 1038 3976.1 1038 3997.46 1038 4018.8199999999997 1038 4040.18 1038 4061.54 1038 4082.9 1038 4104.26 1038 4125.62 1038 4146.98 1038 4168.34 1038 4189.7 1038 4211.0599999999995 1038 4232.42 1038 4253.78 1038 4275.139999999999 1038 4296.5 1038 4296.5 533.1399265543878 4275.139999999999 533.261491705711 4253.78 534.1529694820817 4232.42 535.2065341268835 4211.0599999999995 536.5437507914398 4189.7 537.2731416993795 4168.34 537.9214891731037 4146.98 539.2181841205521 4125.62 540.0691401798151 4104.26 541.0011396732937 4082.9 542.0141826009876 4061.54 542.8246169431429 4040.18 543.5945295681904 4018.8199999999997 544.4860073445611 3997.46 544.8912245156389 3976.1 545.9042674433329 3954.74 547.241484107889 3933.38 547.8493098645055 3912.02 549.0244396606306 3890.66 550.4021780422945 3869.3 552.0635684437127 3847.94 553.1981765227301 3826.58 554.2922628846397 3805.2200000000003 555.2242623781183 3783.86 556.0752184373812 3762.5 557.0477396479675 3741.14 557.9392174243383 3719.7799999999997 559.4385209573255 3698.42 560.0868684310498 3677.06 560.7352159047739 3655.7 561.5051285298214 3634.34 562.599214891731 3612.98 563.7338229707484 3591.62 564.6253007471191 3570.26 565.1926047866277 3548.9 566.1246042801063 3527.54 567.5023426617703 3506.18 568.1101684183867 3484.82 568.7990376092187 3463.46 569.2852982145118 3442.1 570.0146891224515 3420.74 570.5009497277447 3399.38 570.784601747499 3378.02 571.7166012409775 3356.66 572.4054704318096 3335.3 573.9452956819046 3313.94 574.9583386095985 3292.58 575.5661643662149 3271.22 576.1739901228314 3249.86 577.0654678992022 3228.5 577.794858807142 3228.5 1038Z" fill="#e62d39" opacity="0.9" />
		</g>
		<g>
			<path d="M3228.5 577.794858807142 3249.86 577.0654678992022 3271.22 576.1739901228314 3292.58 575.5661643662149 3313.94 574.9583386095985 3335.3 573.9452956819046 3356.66 572.4054704318096 3378.02 571.7166012409775 3399.38 570.784601747499 3420.74 570.5009497277447 3442.1 570.0146891224515 3463.46 569.2852982145118 3484.82 568.7990376092187 3506.18 568.1101684183867 3527.54 567.5023426617703 3548.9 566.1246042801063 3570.26 565.1926047866277 3591.62 564.6253007471191 3612.98 563.7338229707484 3634.34 562.599214891731 3655.7 561.5051285298214 3677.06 560.7352159047739 3698.42 560.0868684310498 3719.7799999999997 559.4385209573255 3741.14 557.9392174243383 3762.5 557.0477396479675 3783.86 556.0752184373812 3805.2200000000003 555.2242623781183 3826.58 554.2922628846397 3847.94 553.1981765227301 3869.3 552.0635684437127 3890.66 550.4021780422945 3912.02 549.0244396606306 3933.38 547.8493098645055 3954.74 547.241484107889 3976.1 545.9042674433329 3997.46 544.8912245156389 4018.8199999999997 544.4860073445611 4040.18 543.5945295681904 4061.54 542.8246169431429 4082.9 542.0141826009876 4104.26 541.0011396732937 4125.62 540.0691401798151 4146.98 539.2181841205521 4168.34 537.9214891731037 4189.7 537.2731416993795 4211.0599999999995 536.5437507914398 4232.42 535.2065341268835 4253.78 534.1529694820817 4275.139999999999 533.261491705711 4296.5 533.1399265543878 4296.5 398 4275.139999999999 398.16208686843106 4253.78 399.3372166645561 4232.42 400.51234646068116 4211.0599999999995 402.0521717107763 4189.7 402.943649487147 4168.34 403.7540838293023 4146.98 405.1318222109662 4125.62 406.185386855768 4104.26 407.1984297834621 4082.9 408.57616816512586 4061.54 409.4676459414967 4040.18 410.4806888691908 4018.8199999999997 411.4937317968848 3997.46 412.1826009877169 3976.1 413.519817652273 3954.74 415.05964290236795 3933.38 415.78903381030767 3912.02 417.0857287577561 3890.66 418.58503229074324 3869.3 420.81372673167016 3847.94 422.15094339622635 3826.58 423.48816006078255 3805.2200000000003 424.58224642269215 3783.86 425.55476763327835 3762.5 426.72989742940354 3741.14 427.7834620742053 3719.7799999999997 429.48537419273134 3698.42 430.3363302519944 3677.06 431.06572115993407 3655.7 431.95719893630485 3634.34 433.3754590350766 3612.98 434.63163226541724 3591.62 435.6446751931113 3570.26 436.45510953526644 3548.9 437.6302393313915 3527.54 439.1700645814866 3506.18 439.9399772065341 3484.82 440.8719767000126 3463.46 441.56084589084463 3442.1 442.4118019501076 3420.74 442.9385842725085 3399.38 443.2222362922628 3378.02 444.3163226541724 3356.66 445.2078004305433 3335.3 447.0312777003926 3313.94 448.28745093073314 3292.58 449.09788527288833 3271.22 450.43510193744453 3249.86 451.52918829935413 3228.5 452.42066607572497 3228.5 577.794858807142Z" fill="#005aa6" opacity="0.9" />
		</g>
		<g>
			<rect x="4372" y="431" width="22.9995" height="23" fill="#e62d39" />
		</g>
		<g>
			<text fill="#595959" font-family="Verdana,Open Sans,DejaVu Sans,sans-serif" font-weight="400" font-size="41" transform="matrix(1 0 0 1 4404.56 454)">Web Browser</text>
		</g>
		<g>
			<rect x="4372" y="508" width="22.9995" height="23" fill="#005aa6" />
		</g>
		<g>
			<text fill="#595959" font-family="Verdana,Open Sans,DejaVu Sans,sans-serif" font-weight="400" font-size="41" transform="matrix(1 0 0 1 4404.56 531)">App</text>
		</g>
	</g>
</svg>
