<svg width="1763" height="1046"
    xmlns="http://www.w3.org/2000/svg"
	xmlns:xlink="http://www.w3.org/1999/xlink" xml:space="preserve" overflow="hidden">
	<defs>
		<clipPath id="clip0">
			<rect x="2917" y="346" width="1763" height="1046"/>
		</clipPath>
	</defs>
	<g clip-path="url(#clip0)" transform="translate(-2917 -346)">
		<rect x="2918" y="347" width="1760" height="1043" fill="#FFFFFF" />
		<g>
			<path d="
			M3228.5 974.532 4296.5 974.532
			M3228.5 910.53 4296.5 910.53
			M3228.5 846.528 4296.5 846.528
			M3228.5 781.526 4296.5 781.526
			M3228.5 717.524 4296.5 717.524
			M3228.5 653.522 4296.5 653.522
			M3228.5 589.52 4296.5 589.52
			M3228.5 525.517 4296.5 525.517
			M3228.5 461.515 4296.5 461.515
			M3228.5 397.5 4296.5 397.5" stroke="#D9D9D9" stroke-width="3.4375" stroke-linejoin="round" stroke-miterlimit="10" fill="none" />
		</g>
		<g>
			<path d="M 1038.5 4296.5 1038.5" stroke="#D9D9D9" stroke-width="3.4375" stroke-linejoin="round" stroke-miterlimit="10" fill="none" fill-rule="evenodd" />
		</g>
		<g>
			<text fill="#595959" font-family="Verdana,sans-serif" font-weight="400" font-size="41" transform="matrix(6.12323e-17 -1 1 6.12323e-17 3244.5 1225)">06-Nov</text>
		</g>
		<g>
			<text fill="#595959" font-family="Verdana,sans-serif" font-weight="400" font-size="41" transform="matrix(6.12323e-17 -1 1 6.12323e-17 3359.9594594594596 1223)">04-Dec</text>
		</g>
		<g>
			<text fill="#595959" font-family="Verdana,sans-serif" font-weight="400" font-size="41" transform="matrix(6.12323e-17 -1 1 6.12323e-17 3475.4189189189187 1210)">01-Jan</text>
		</g>
		<g>
			<text fill="#595959" font-family="Verdana,sans-serif" font-weight="400" font-size="41" transform="matrix(6.12323e-17 -1 1 6.12323e-17 3590.8783783783783 1210)">29-Jan</text>
		</g>
		<g>
			<text fill="#595959" font-family="Verdana,sans-serif" font-weight="400" font-size="41" transform="matrix(6.12323e-17 -1 1 6.12323e-17 3706.337837837838 1216)">26-Feb</text>
		</g>
		<g>
			<text fill="#595959" font-family="Verdana,sans-serif" font-weight="400" font-size="41" transform="matrix(6.12323e-17 -1 1 6.12323e-17 3821.7972972972975 1223)">25-Mar</text>
		</g>
		<g>
			<text fill="#595959" font-family="Verdana,sans-serif" font-weight="400" font-size="41" transform="matrix(6.12323e-17 -1 1 6.12323e-17 3940.7567567567567 1216)">22-Apr</text>
		</g>
		<g>
			<text fill="#595959" font-family="Verdana,sans-serif" font-weight="400" font-size="41" transform="matrix(6.12323e-17 -1 1 6.12323e-17 4056.2162162162163 1228)">20-May</text>
		</g>
		<g>
			<text fill="#595959" font-family="Verdana,sans-serif" font-weight="400" font-size="41" transform="matrix(6.12323e-17 -1 1 6.12323e-17 4167.675675675676 1209)">17-Jun</text>
		</g>
		<g>
			<text fill="#595959" font-family="Verdana,sans-serif" font-weight="400" font-size="41" transform="matrix(6.12323e-17 -1 1 6.12323e-17 4283.635135135135 1194)">15-Jul</text>
		</g>
		<g>
			<text fill="#595959" font-family="Verdana,sans-serif" font-weight="400" font-size="41" transform="matrix(1 0 0 1 3167.5 1050)">0</text>
		</g>
		<g>
			<text fill="#595959" font-family="Verdana,sans-serif" font-weight="400" font-size="41" transform="matrix(1 0 0 1 3074.5 922)">2,829</text>
		</g>
		<g>
			<text fill="#595959" font-family="Verdana,sans-serif" font-weight="400" font-size="41" transform="matrix(1 0 0 1 3075.5 794)">5,659</text>
		</g>
		<g>
			<text fill="#595959" font-family="Verdana,sans-serif" font-weight="400" font-size="41" transform="matrix(1 0 0 1 3073.5 666)">8,488</text>
		</g>
		<g>
			<text fill="#595959" font-family="Verdana,sans-serif" font-weight="400" font-size="41" transform="matrix(1 0 0 1 3050.5 538)">11,318</text>
		</g>
		<g>
			<text fill="#595959" font-family="Verdana,sans-serif" font-weight="400" font-size="41" transform="matrix(1 0 0 1 3050.5 410)">14,147</text>
		</g>
		<g>
			<text fill="#595959" font-family="Verdana,sans-serif" font-weight="400" font-size="41" transform="matrix(1 0 0 1 3544.5 1321)">Week Commencing</text>
		</g>
		<g>
			<text fill="#595959" font-family="Verdana,sans-serif" font-weight="400" font-size="46" transform="matrix(6.12323e-17 -1 1 6.12323e-17 3019.73 1030.75)">Number of Browser Profiles</text>
		</g>
		<rect x="2918.5" y="347.5" width="1760" height="1043" stroke="#D9D9D9" stroke-width="3.4375" stroke-linejoin="round" stroke-miterlimit="10" fill="none" />
		<g>
			<path d="M3228.5 1038 3257.364864864865 1038 3286.2297297297296 1038 3315.0945945945946 1038 3343.9594594594596 1038 3372.824324324324 1038 3401.689189189189 1038 3430.554054054054 1038 3459.4189189189187 1038 3488.2837837837837 1038 3517.1486486486488 1038 3546.0135135135133 1038 3574.8783783783783 1038 3603.7432432432433 1038 3632.608108108108 1038 3661.472972972973 1038 3690.337837837838 1038 3719.2027027027025 1038 3748.0675675675675 1038 3776.9324324324325 1038 3805.7972972972975 1038 3834.662162162162 1038 3863.527027027027 1038 3892.3918918918916 1038 3921.2567567567567 1038 3950.1216216216217 1038 3978.9864864864867 1038 4007.8513513513512 1038 4036.7162162162163 1038 4065.581081081081 1038 4094.445945945946 1038 4123.310810810811 1038 4152.175675675676 1038 4181.040540540541 1038 4209.905405405405 1038 4238.77027027027 1038 4267.635135135135 1038 4296.5 1038 4296.5 535.5726302396267 4267.635135135135 536.160740793101 4238.77027027027 536.6131335265427 4209.905405405405 537.0655262599844 4181.040540540541 538.1512688202446 4152.175675675676 538.9203364670955 4123.310810810811 539.6894041139465 4094.445945945946 540.8656252208948 4065.581081081081 541.9966070544992 4036.7162162162163 543.0371103414152 4007.8513513513512 543.534742348201 3978.9864864864867 544.1228529016753 3950.1216216216217 544.8466812751819 3921.2567567567567 546.2038594755072 3892.3918918918916 547.4253198557998 3863.527027027027 548.6467802360925 3834.662162162162 550.1396762564501 3805.7972972972975 551.2706580900544 3776.9324324324325 552.3111613769704 3748.0675675675675 553.3969039372305 3719.2027027027025 554.7993214108999 3690.337837837838 557.1065243514527 3661.472972972973 557.5589170848943 3632.608108108108 557.9208312716477 3603.7432432432433 559.8661200254471 3574.8783783783783 561.8566480525906 3546.0135135135133 562.3995193327207 3517.1486486486488 563.2138262529159 3488.2837837837837 563.8924153530784 3459.4189189189187 564.1638509931433 3430.554054054054 564.1638509931433 3401.689189189189 564.9329186399943 3372.824324324324 565.385311373436 3343.9594594594596 565.9281826535662 3315.0945945945946 566.8329681204496 3286.2297297297296 567.6020357673005 3257.364864864865 568.2806248674631 3228.5 568.7782568742489 3228.5 1038Z" fill="#e62d39" opacity="0.9" />
		</g>
		<g>
			<path d="M3228.5 568.7782568742489 3257.364864864865 568.2806248674631 3286.2297297297296 567.6020357673005 3315.0945945945946 566.8329681204496 3343.9594594594596 565.9281826535662 3372.824324324324 565.385311373436 3401.689189189189 564.9329186399943 3430.554054054054 564.1638509931433 3459.4189189189187 564.1638509931433 3488.2837837837837 563.8924153530784 3517.1486486486488 563.2138262529159 3546.0135135135133 562.3995193327207 3574.8783783783783 561.8566480525906 3603.7432432432433 559.8661200254471 3632.608108108108 557.9208312716477 3661.472972972973 557.5589170848943 3690.337837837838 557.1065243514527 3719.2027027027025 554.7993214108999 3748.0675675675675 553.3969039372305 3776.9324324324325 552.3111613769704 3805.7972972972975 551.2706580900544 3834.662162162162 550.1396762564501 3863.527027027027 548.6467802360925 3892.3918918918916 547.4253198557998 3921.2567567567567 546.2038594755072 3950.1216216216217 544.8466812751819 3978.9864864864867 544.1228529016753 4007.8513513513512 543.534742348201 4036.7162162162163 543.0371103414152 4065.581081081081 541.9966070544992 4094.445945945946 540.8656252208948 4123.310810810811 539.6894041139465 4152.175675675676 538.9203364670955 4181.040540540541 538.1512688202446 4209.905405405405 537.0655262599844 4238.77027027027 536.6131335265427 4267.635135135135 536.160740793101 4296.5 535.5726302396267 4296.5 397.99999999999994 4267.635135135135 398.5881105534742 4238.77027027027 399.13098183360427 4209.905405405405 399.90004948045515 4181.040540540541 401.166749134092 4152.175675675676 402.1167738743196 4123.310810810811 403.11203788789146 4094.445945945946 404.604933908249 4065.581081081081 405.9621121085743 4036.7162162162163 407.1383332155228 4007.8513513513512 407.81692231568525 3978.9864864864867 408.54075068919207 3950.1216216216217 409.40029688273125 3921.2567567567567 410.9836714497774 3892.3918918918916 412.4313281967908 3863.527027027027 413.8789849438043 3834.662162162162 415.64331660422704 3805.7972972972975 417.0004948045522 3776.9324324324325 418.67434791828657 3748.0675675675675 420.3029617586767 3719.2027027027025 421.75061850569034 3690.337837837838 424.3292570863081 3661.472972972973 424.826889093094 3632.608108108108 425.369760373224 3603.7432432432433 427.58648476708845 3574.8783783783783 429.7127306142644 3546.0135135135133 430.3913197144271 3517.1486486486488 431.4318230013431 3488.2837837837837 432.2461299215381 3459.4189189189187 432.60804410829144 3430.554054054054 432.60804410829144 3401.689189189189 433.6033081218633 3372.824324324324 434.2818972220258 3343.9594594594596 434.8700077755002 3315.0945945945946 435.86527178907187 3286.2297297297296 436.7700572559554 3257.364864864865 437.76532126952713 3228.5 438.4439103696896 3228.5 568.7782568742489Z" fill="#005aa6" opacity="0.9" />
		</g>
		<g>
			<rect x="4372" y="431" width="22.9995" height="23" fill="#e62d39" />
		</g>
		<g>
			<text fill="#595959" font-family="Verdana,sans-serif" font-weight="400" font-size="41" transform="matrix(1 0 0 1 4404.56 454)">Web Browser</text>
		</g>
		<g>
			<rect x="4372" y="508" width="22.9995" height="23" fill="#005aa6" />
		</g>
		<g>
			<text fill="#595959" font-family="Verdana,sans-serif" font-weight="400" font-size="41" transform="matrix(1 0 0 1 4404.56 531)">App</text>
		</g>
	</g>
</svg>
