<svg width="1763" height="1046"
    xmlns="http://www.w3.org/2000/svg"
	xmlns:xlink="http://www.w3.org/1999/xlink" xml:space="preserve" overflow="hidden">
	<defs>
		<clipPath id="clip0">
			<rect x="2917" y="346" width="1763" height="1046"/>
		</clipPath>
	</defs>
	<g clip-path="url(#clip0)" transform="translate(-2917 -346)">
		<rect x="2918" y="347" width="1760" height="1043" fill="#FFFFFF" />
		<g>
			<path d="
			M3228.5 974.532 4296.5 974.532
			M3228.5 910.53 4296.5 910.53
			M3228.5 846.528 4296.5 846.528
			M3228.5 781.526 4296.5 781.526
			M3228.5 717.524 4296.5 717.524
			M3228.5 653.522 4296.5 653.522
			M3228.5 589.52 4296.5 589.52
			M3228.5 525.517 4296.5 525.517
			M3228.5 461.515 4296.5 461.515
			M3228.5 397.5 4296.5 397.5" stroke="#D9D9D9" stroke-width="3.4375" stroke-linejoin="round" stroke-miterlimit="10" fill="none" />
		</g>
		<g>
			<path d="M 1038.5 4296.5 1038.5" stroke="#D9D9D9" stroke-width="3.4375" stroke-linejoin="round" stroke-miterlimit="10" fill="none" fill-rule="evenodd" />
		</g>
		<g>
			<text fill="#595959" font-family="Verdana,Open Sans,DejaVu Sans,sans-serif" font-weight="400" font-size="41" transform="matrix(6.12323e-17 -1 1 6.12323e-17 3247.928955078125 1177.2768478393555)">14-Jul</text>
		</g>
		<g>
			<text fill="#595959" font-family="Verdana,Open Sans,DejaVu Sans,sans-serif" font-weight="400" font-size="41" transform="matrix(6.12323e-17 -1 1 6.12323e-17 3330.272986778846 1206.90576171875)">11-Aug</text>
		</g>
		<g>
			<text fill="#595959" font-family="Verdana,Open Sans,DejaVu Sans,sans-serif" font-weight="400" font-size="41" transform="matrix(6.12323e-17 -1 1 6.12323e-17 3412.5969989483174 1204.38330078125)">08-Sep</text>
		</g>
		<g>
			<text fill="#595959" font-family="Verdana,Open Sans,DejaVu Sans,sans-serif" font-weight="400" font-size="41" transform="matrix(6.12323e-17 -1 1 6.12323e-17 3490.0262357271636 1201.1000900268555)">06-Oct</text>
		</g>
		<g>
			<text fill="#595959" font-family="Verdana,Open Sans,DejaVu Sans,sans-serif" font-weight="400" font-size="41" transform="matrix(6.12323e-17 -1 1 6.12323e-17 3572.1800818810098 1211.43017578125)">03-Nov</text>
		</g>
		<g>
			<text fill="#595959" font-family="Verdana,Open Sans,DejaVu Sans,sans-serif" font-weight="400" font-size="41" transform="matrix(6.12323e-17 -1 1 6.12323e-17 3654.333928034856 1207.0859375)">01-Dec</text>
		</g>
		<g>
			<text fill="#595959" font-family="Verdana,Open Sans,DejaVu Sans,sans-serif" font-weight="400" font-size="41" transform="matrix(6.12323e-17 -1 1 6.12323e-17 3736.467754657452 1207.1259765625)">29-Dec</text>
		</g>
		<g>
			<text fill="#595959" font-family="Verdana,Open Sans,DejaVu Sans,sans-serif" font-weight="400" font-size="41" transform="matrix(6.12323e-17 -1 1 6.12323e-17 3822.275165264423 1191.6909103393555)">26-Jan</text>
		</g>
		<g>
			<text fill="#595959" font-family="Verdana,Open Sans,DejaVu Sans,sans-serif" font-weight="400" font-size="41" transform="matrix(6.12323e-17 -1 1 6.12323e-17 3901.5061598557695 1203.08203125)">23-Feb</text>
		</g>
		<g>
			<text fill="#595959" font-family="Verdana,Open Sans,DejaVu Sans,sans-serif" font-weight="400" font-size="41" transform="matrix(6.12323e-17 -1 1 6.12323e-17 3982.9292931189902 1212.05078125)">23-Mar</text>
		</g>
		<g>
			<text fill="#595959" font-family="Verdana,Open Sans,DejaVu Sans,sans-serif" font-weight="400" font-size="41" transform="matrix(6.12323e-17 -1 1 6.12323e-17 4069.827768179087 1203.3022384643555)">20-Apr</text>
		</g>
		<g>
			<text fill="#595959" font-family="Verdana,Open Sans,DejaVu Sans,sans-serif" font-weight="400" font-size="41" transform="matrix(6.12323e-17 -1 1 6.12323e-17 4151.961594801683 1214.75341796875)">18-May</text>
		</g>
		<g>
			<text fill="#595959" font-family="Verdana,Open Sans,DejaVu Sans,sans-serif" font-weight="400" font-size="41" transform="matrix(6.12323e-17 -1 1 6.12323e-17 4232.834190955529 1192.2914962768555)">15-Jun</text>
		</g>
		<g>
			<text fill="#595959" font-family="Verdana,Open Sans,DejaVu Sans,sans-serif" font-weight="400" font-size="41" transform="matrix(6.12323e-17 -1 1 6.12323e-17 4315.928955078125 1177.2768478393555)">13-Jul</text>
		</g>
		<g>
			<text fill="#595959" font-family="Verdana,Open Sans,DejaVu Sans,sans-serif" font-weight="400" font-size="41" transform="matrix(1 0 0 1 3169.14111328125 1050)">0</text>
		</g>
		<g>
			<text fill="#595959" font-family="Verdana,Open Sans,DejaVu Sans,sans-serif" font-weight="400" font-size="41" transform="matrix(1 0 0 1 3088.962890625 922)">3,383</text>
		</g>
		<g>
			<text fill="#595959" font-family="Verdana,Open Sans,DejaVu Sans,sans-serif" font-weight="400" font-size="41" transform="matrix(1 0 0 1 3089.10302734375 794)">6,767</text>
		</g>
		<g>
			<text fill="#595959" font-family="Verdana,Open Sans,DejaVu Sans,sans-serif" font-weight="400" font-size="41" transform="matrix(1 0 0 1 3067.0415115356445 666)">10,150</text>
		</g>
		<g>
			<text fill="#595959" font-family="Verdana,Open Sans,DejaVu Sans,sans-serif" font-weight="400" font-size="41" transform="matrix(1 0 0 1 3065.8203201293945 538)">13,534</text>
		</g>
		<g>
			<text fill="#595959" font-family="Verdana,Open Sans,DejaVu Sans,sans-serif" font-weight="400" font-size="41" transform="matrix(1 0 0 1 3067.0815505981445 410)">16,917</text>
		</g>
		<g>
			<text fill="#595959" font-family="Verdana,Open Sans,DejaVu Sans,sans-serif" font-weight="400" font-size="41" transform="matrix(1 0 0 1 3556.97119140625 1321)">Week Commencing</text>
		</g>
		<g>
			<text fill="#595959" font-family="Verdana,Open Sans,DejaVu Sans,sans-serif" font-weight="400" font-size="46" transform="matrix(6.12323e-17 -1 1 6.12323e-17 3019.73 1011.673828125)">Number of Browser Profiles</text>
		</g>
		<rect x="2918.5" y="347.5" width="1760" height="1043" stroke="#D9D9D9" stroke-width="3.4375" stroke-linejoin="round" stroke-miterlimit="10" fill="none" />
		<g>
			<path d="M3228.5 1038 3249.0384615384614 1038 3269.576923076923 1038 3290.1153846153848 1038 3310.653846153846 1038 3331.1923076923076 1038 3351.730769230769 1038 3372.269230769231 1038 3392.8076923076924 1038 3413.346153846154 1038 3433.8846153846152 1038 3454.423076923077 1038 3474.9615384615386 1038 3495.5 1038 3516.0384615384614 1038 3536.576923076923 1038 3557.1153846153848 1038 3577.653846153846 1038 3598.1923076923076 1038 3618.7307692307695 1038 3639.269230769231 1038 3659.8076923076924 1038 3680.346153846154 1038 3700.8846153846152 1038 3721.423076923077 1038 3741.9615384615386 1038 3762.5 1038 3783.0384615384614 1038 3803.576923076923 1038 3824.1153846153848 1038 3844.653846153846 1038 3865.1923076923076 1038 3885.7307692307695 1038 3906.269230769231 1038 3926.8076923076924 1038 3947.346153846154 1038 3967.8846153846152 1038 3988.423076923077 1038 4008.9615384615386 1038 4029.5 1038 4050.038461538462 1038 4070.576923076923 1038 4091.1153846153848 1038 4111.653846153846 1038 4132.192307692308 1038 4152.7307692307695 1038 4173.2692307692305 1038 4193.807692307692 1038 4214.346153846154 1038 4234.884615384615 1038 4255.423076923077 1038 4275.961538461539 1038 4296.5 1038 4296.5 534.0430336348052 4275.961538461539 534.497014837146 4255.423076923077 534.9888278063487 4234.884615384615 535.7076313767217 4214.346153846154 537.2209020511912 4193.807692307692 538.3558550570433 4173.2692307692305 539.3016492285867 4152.7307692307695 539.8691257315127 4132.192307692308 540.4366022344387 4111.653846153846 541.6093870071526 4091.1153846153848 542.1768635100786 4070.576923076923 542.9713306141751 4050.038461538462 544.0306200863038 4029.5 544.862918957262 4008.9615384615386 545.8843766625289 3988.423076923077 546.868002600934 3967.8846153846152 547.8516285393391 3947.346153846154 549.3270674469469 3926.8076923076924 550.0458710173199 3906.269230769231 550.9538334220015 3885.7307692307695 551.5969734586511 3865.1923076923076 552.6940946976415 3844.653846153846 553.6777206360466 3824.1153846153848 554.2073653721109 3803.576923076923 555.0018324762074 3783.0384615384614 555.7206360465805 3762.5 556.5151031506769 3741.9615384615386 556.6664302181239 3721.423076923077 557.1204114204646 3700.8846153846152 557.650056156529 3680.346153846154 558.6336820949341 3659.8076923076924 559.8442986345096 3639.269230769231 561.4332328427026 3618.7307692307695 561.7358869775965 3598.1923076923076 562.7951764497252 3577.653846153846 563.4004847195129 3557.1153846153848 564.8002600933971 3536.576923076923 565.3677365963233 3516.0384615384614 566.6540166696223 3495.5 566.7675119702076 3474.9615384615386 567.5998108411657 3454.423076923077 568.5834367795709 3433.8846153846152 569.8318850860082 3413.346153846154 570.5128568895195 3392.8076923076924 571.1181651593072 3372.269230769231 572.3287816988827 3351.730769230769 573.1232488029793 3331.1923076923076 573.9933794407992 3310.653846153846 574.9391736123426 3290.1153846153848 575.6958089495774 3269.576923076923 576.4146125199504 3249.0384615384614 577.2469113909085 3228.5 577.625229059526 3228.5 1038Z" fill="#005aa6" opacity="0.9" />
		</g>
		<g>
			<path d="M3228.5 577.625229059526 3249.0384615384614 577.2469113909085 3269.576923076923 576.4146125199504 3290.1153846153848 575.6958089495774 3310.653846153846 574.9391736123426 3331.1923076923076 573.9933794407992 3351.730769230769 573.1232488029793 3372.269230769231 572.3287816988827 3392.8076923076924 571.1181651593072 3413.346153846154 570.5128568895195 3433.8846153846152 569.8318850860082 3454.423076923077 568.5834367795709 3474.9615384615386 567.5998108411657 3495.5 566.7675119702076 3516.0384615384614 566.6540166696223 3536.576923076923 565.3677365963233 3557.1153846153848 564.8002600933971 3577.653846153846 563.4004847195129 3598.1923076923076 562.7951764497252 3618.7307692307695 561.7358869775965 3639.269230769231 561.4332328427026 3659.8076923076924 559.8442986345096 3680.346153846154 558.6336820949341 3700.8846153846152 557.650056156529 3721.423076923077 557.1204114204646 3741.9615384615386 556.6664302181239 3762.5 556.5151031506769 3783.0384615384614 555.7206360465805 3803.576923076923 555.0018324762074 3824.1153846153848 554.2073653721109 3844.653846153846 553.6777206360466 3865.1923076923076 552.6940946976415 3885.7307692307695 551.5969734586511 3906.269230769231 550.9538334220015 3926.8076923076924 550.0458710173199 3947.346153846154 549.3270674469469 3967.8846153846152 547.8516285393391 3988.423076923077 546.868002600934 4008.9615384615386 545.8843766625289 4029.5 544.862918957262 4050.038461538462 544.0306200863038 4070.576923076923 542.9713306141751 4091.1153846153848 542.1768635100786 4111.653846153846 541.6093870071526 4132.192307692308 540.4366022344387 4152.7307692307695 539.8691257315127 4173.2692307692305 539.3016492285867 4193.807692307692 538.3558550570433 4214.346153846154 537.2209020511912 4234.884615384615 535.7076313767217 4255.423076923077 534.9888278063487 4275.961538461539 534.497014837146 4296.5 534.0430336348052 4296.5 397.99999999999994 4275.961538461539 398.8322988709582 4255.423076923077 399.4376071407461 4234.884615384615 400.4968966128747 4214.346153846154 403.2586155937814 4193.807692307692 404.620559200804 4173.2692307692305 405.90683927410305 4152.7307692307695 406.5878110776142 4132.192307692308 407.49577348229593 4111.653846153846 408.85771708931844 4091.1153846153848 409.8413430277236 4070.576923076923 410.7871371992671 4050.038461538462 412.1112490394279 4029.5 413.1327067446947 4008.9615384615386 414.4189868179938 3988.423076923077 415.5917715907076 3967.8846153846152 416.8402198971449 3947.346153846154 418.73180824023177 3926.8076923076924 419.60193887805167 3906.269230769231 420.8125554176272 3885.7307692307695 421.83401312289413 3865.1923076923076 423.23378849677846 3844.653846153846 424.40657326949224 3824.1153846153848 425.1253768398652 3803.576923076923 426.6764792811964 3783.0384615384614 427.470946385293 3762.5 428.4167405568363 3741.9615384615386 428.6058993911451 3721.423076923077 429.1355441272093 3700.8846153846152 429.66518886327367 3680.346153846154 430.9514689365727 3659.8076923076924 432.3890760773187 3639.269230769231 434.1671691198203 3618.7307692307695 434.7346456227463 3598.1923076923076 436.0209256960455 3577.653846153846 436.73972926641835 3557.1153846153848 438.2908317077496 3536.576923076923 439.04746704498444 3516.0384615384614 440.4850741857303 3495.5 440.6364012531774 3474.9615384615386 441.7335224921676 3454.423076923077 442.83064373115803 3433.8846153846152 444.2682508719041 3413.346153846154 445.1005497428623 3392.8076923076924 445.85718508009694 3372.269230769231 447.14346515339594 3351.730769230769 448.1270910918012 3331.1923076923076 449.0728852633446 3310.653846153846 450.3591653366436 3290.1153846153848 451.19146420760194 3269.576923076923 452.13725837914535 3249.0384615384614 453.08305255068865 3228.5 453.72619258733823 3228.5 577.625229059526Z" fill="#e62d39" opacity="0.9" />
		</g>
		<g>
			<rect x="4372" y="431" width="22.9995" height="23" fill="#005aa6" />
		</g>
		<g>
			<text fill="#595959" font-family="Verdana,Open Sans,DejaVu Sans,sans-serif" font-weight="400" font-size="41" transform="matrix(1 0 0 1 4404.56 454)">Web Browser</text>
		</g>
		<g>
			<rect x="4372" y="508" width="22.9995" height="23" fill="#e62d39" />
		</g>
		<g>
			<text fill="#595959" font-family="Verdana,Open Sans,DejaVu Sans,sans-serif" font-weight="400" font-size="41" transform="matrix(1 0 0 1 4404.56 531)">App</text>
		</g>
	</g>
</svg>
