<svg width="1763" height="1046"
    xmlns="http://www.w3.org/2000/svg"
	xmlns:xlink="http://www.w3.org/1999/xlink" xml:space="preserve" overflow="hidden">
	<defs>
		<clipPath id="clip0">
			<rect x="2917" y="346" width="1763" height="1046"/>
		</clipPath>
	</defs>
	<g clip-path="url(#clip0)" transform="translate(-2917 -346)">
		<rect x="2918" y="347" width="1760" height="1043" fill="#FFFFFF" />
		<g>
			<path d="
			M3228.5 974.532 4296.5 974.532
			M3228.5 910.53 4296.5 910.53
			M3228.5 846.528 4296.5 846.528
			M3228.5 781.526 4296.5 781.526
			M3228.5 717.524 4296.5 717.524
			M3228.5 653.522 4296.5 653.522
			M3228.5 589.52 4296.5 589.52
			M3228.5 525.517 4296.5 525.517
			M3228.5 461.515 4296.5 461.515
			M3228.5 397.5 4296.5 397.5" stroke="#D9D9D9" stroke-width="3.4375" stroke-linejoin="round" stroke-miterlimit="10" fill="none" />
		</g>
		<g>
			<path d="M 1038.5 4296.5 1038.5" stroke="#D9D9D9" stroke-width="3.4375" stroke-linejoin="round" stroke-miterlimit="10" fill="none" fill-rule="evenodd" />
		</g>
		<g>
			<text fill="#595959" font-family="Verdana,Open Sans,DejaVu Sans,sans-serif" font-weight="400" font-size="41" transform="matrix(6.12323e-17 -1 1 6.12323e-17 3243.564697265625 1207.0859375)">09-Dec</text>
		</g>
		<g>
			<text fill="#595959" font-family="Verdana,Open Sans,DejaVu Sans,sans-serif" font-weight="400" font-size="41" transform="matrix(6.12323e-17 -1 1 6.12323e-17 3332.65826171875 1191.6508712768555)">06-Jan</text>
		</g>
		<g>
			<text fill="#595959" font-family="Verdana,Open Sans,DejaVu Sans,sans-serif" font-weight="400" font-size="41" transform="matrix(6.12323e-17 -1 1 6.12323e-17 3415.155390625 1203.0419921875)">03-Feb</text>
		</g>
		<g>
			<text fill="#595959" font-family="Verdana,Open Sans,DejaVu Sans,sans-serif" font-weight="400" font-size="41" transform="matrix(6.12323e-17 -1 1 6.12323e-17 3499.884697265625 1212.0107421875)">03-Mar</text>
		</g>
		<g>
			<text fill="#595959" font-family="Verdana,Open Sans,DejaVu Sans,sans-serif" font-weight="400" font-size="41" transform="matrix(6.12323e-17 -1 1 6.12323e-17 3585.304677734375 1212.1708984375)">31-Mar</text>
		</g>
		<g>
			<text fill="#595959" font-family="Verdana,Open Sans,DejaVu Sans,sans-serif" font-weight="400" font-size="41" transform="matrix(6.12323e-17 -1 1 6.12323e-17 3675.469287109375 1203.3022384643555)">28-Apr</text>
		</g>
		<g>
			<text fill="#595959" font-family="Verdana,Open Sans,DejaVu Sans,sans-serif" font-weight="400" font-size="41" transform="matrix(6.12323e-17 -1 1 6.12323e-17 3760.909287109375 1216.51513671875)">26-May</text>
		</g>
		<g>
			<text fill="#595959" font-family="Verdana,Open Sans,DejaVu Sans,sans-serif" font-weight="400" font-size="41" transform="matrix(6.12323e-17 -1 1 6.12323e-17 3845.29826171875 1194.1733322143555)">30-Jun</text>
		</g>
		<g>
			<text fill="#595959" font-family="Verdana,Open Sans,DejaVu Sans,sans-serif" font-weight="400" font-size="41" transform="matrix(6.12323e-17 -1 1 6.12323e-17 3931.448955078125 1179.0385665893555)">28-Jul</text>
		</g>
		<g>
			<text fill="#595959" font-family="Verdana,Open Sans,DejaVu Sans,sans-serif" font-weight="400" font-size="41" transform="matrix(6.12323e-17 -1 1 6.12323e-17 4017.229287109375 1208.66748046875)">25-Aug</text>
		</g>
		<g>
			<text fill="#595959" font-family="Verdana,Open Sans,DejaVu Sans,sans-serif" font-weight="400" font-size="41" transform="matrix(6.12323e-17 -1 1 6.12323e-17 4102.669287109375 1204.42333984375)">22-Sep</text>
		</g>
		<g>
			<text fill="#595959" font-family="Verdana,Open Sans,DejaVu Sans,sans-serif" font-weight="400" font-size="41" transform="matrix(6.12323e-17 -1 1 6.12323e-17 4183.404697265625 1201.1401290893555)">20-Oct</text>
		</g>
		<g>
			<text fill="#595959" font-family="Verdana,Open Sans,DejaVu Sans,sans-serif" font-weight="400" font-size="41" transform="matrix(6.12323e-17 -1 1 6.12323e-17 4268.61447265625 1209.70849609375)">17-Nov</text>
		</g>
		<g>
			<text fill="#595959" font-family="Verdana,Open Sans,DejaVu Sans,sans-serif" font-weight="400" font-size="41" transform="matrix(1 0 0 1 3169.14111328125 1050)">0</text>
		</g>
		<g>
			<text fill="#595959" font-family="Verdana,Open Sans,DejaVu Sans,sans-serif" font-weight="400" font-size="41" transform="matrix(1 0 0 1 3088.7626953125 922)">3,192</text>
		</g>
		<g>
			<text fill="#595959" font-family="Verdana,Open Sans,DejaVu Sans,sans-serif" font-weight="400" font-size="41" transform="matrix(1 0 0 1 3087.841796875 794)">6,384</text>
		</g>
		<g>
			<text fill="#595959" font-family="Verdana,Open Sans,DejaVu Sans,sans-serif" font-weight="400" font-size="41" transform="matrix(1 0 0 1 3088.8828125 666)">9,577</text>
		</g>
		<g>
			<text fill="#595959" font-family="Verdana,Open Sans,DejaVu Sans,sans-serif" font-weight="400" font-size="41" transform="matrix(1 0 0 1 3067.2016677856445 538)">12,769</text>
		</g>
		<g>
			<text fill="#595959" font-family="Verdana,Open Sans,DejaVu Sans,sans-serif" font-weight="400" font-size="41" transform="matrix(1 0 0 1 3074.1284255981445 410)">15,961</text>
		</g>
		<g>
			<text fill="#595959" font-family="Verdana,Open Sans,DejaVu Sans,sans-serif" font-weight="400" font-size="41" transform="matrix(1 0 0 1 3556.97119140625 1321)">Week Commencing</text>
		</g>
		<g>
			<text fill="#595959" font-family="Verdana,Open Sans,DejaVu Sans,sans-serif" font-weight="400" font-size="46" transform="matrix(6.12323e-17 -1 1 6.12323e-17 3019.73 1011.673828125)">Number of Browser Profiles</text>
		</g>
		<rect x="2918.5" y="347.5" width="1760" height="1043" stroke="#D9D9D9" stroke-width="3.4375" stroke-linejoin="round" stroke-miterlimit="10" fill="none" />
		<g>
			<path d="M3228.5 1038 3249.86 1038 3271.22 1038 3292.58 1038 3313.94 1038 3335.3 1038 3356.66 1038 3378.02 1038 3399.38 1038 3420.74 1038 3442.1 1038 3463.46 1038 3484.82 1038 3506.18 1038 3527.54 1038 3548.9 1038 3570.26 1038 3591.62 1038 3612.98 1038 3634.34 1038 3655.7 1038 3677.06 1038 3698.42 1038 3719.7799999999997 1038 3741.14 1038 3762.5 1038 3783.86 1038 3805.2200000000003 1038 3826.58 1038 3847.94 1038 3869.3 1038 3890.66 1038 3912.02 1038 3933.38 1038 3954.74 1038 3976.1 1038 3997.46 1038 4018.8199999999997 1038 4040.18 1038 4061.54 1038 4082.9 1038 4104.26 1038 4125.62 1038 4146.98 1038 4168.34 1038 4189.7 1038 4211.0599999999995 1038 4232.42 1038 4253.78 1038 4275.139999999999 1038 4296.5 1038 4296.5 532.8887914291086 4275.139999999999 533.209573335004 4253.78 534.3323100056388 4232.42 534.97387381743 4211.0599999999995 536.4574901321973 4189.7 537.0589562057515 4168.34 538.4222793058079 4146.98 538.5425725205188 4125.62 539.4247227617318 4104.26 540.4672639558926 4082.9 541.790489317712 4061.54 542.5122486059771 4040.18 543.1538124177683 4018.8199999999997 544.4369400413508 3997.46 545.2789925443268 3976.1 546.2012405237767 3954.74 547.2036839797006 3933.38 548.0056387444396 3912.02 548.7674957709417 3890.66 549.6496460121547 3869.3 550.0506233945241 3847.94 551.053066850448 3826.58 552.3762922122675 3805.2200000000003 552.9777582858217 3783.86 554.1405926946934 3762.5 555.5039157947497 3741.14 557.1479230624648 3719.7799999999997 558.2706597330995 3698.42 559.3532986654972 3677.06 560.2755466449471 3655.7 561.1175991479231 3634.34 562.07994486561 3612.98 562.962095106823 3591.62 564.4457114215902 3570.26 565.0872752333814 3548.9 565.7288390451727 3527.54 566.4906960716747 3506.18 567.5733350040725 3484.82 568.6960716747071 3463.46 569.57822191592 3442.1 570.1395902512375 3420.74 571.0618382306873 3399.38 572.4251613307438 3378.02 573.026627404298 3356.66 573.7082889543262 3335.3 574.1894618131696 3313.94 574.9112211014348 3292.58 575.3923939602782 3271.22 575.6730781279368 3249.86 576.5953261073868 3228.5 577.276987657415 3228.5 1038Z" fill="#005aa6" opacity="0.9" />
		</g>
		<g>
			<path d="M3228.5 577.276987657415 3249.86 576.5953261073868 3271.22 575.6730781279368 3292.58 575.3923939602782 3313.94 574.9112211014348 3335.3 574.1894618131696 3356.66 573.7082889543262 3378.02 573.026627404298 3399.38 572.4251613307438 3420.74 571.0618382306873 3442.1 570.1395902512375 3463.46 569.57822191592 3484.82 568.6960716747071 3506.18 567.5733350040725 3527.54 566.4906960716747 3548.9 565.7288390451727 3570.26 565.0872752333814 3591.62 564.4457114215902 3612.98 562.962095106823 3634.34 562.07994486561 3655.7 561.1175991479231 3677.06 560.2755466449471 3698.42 559.3532986654972 3719.7799999999997 558.2706597330995 3741.14 557.1479230624648 3762.5 555.5039157947497 3783.86 554.1405926946934 3805.2200000000003 552.9777582858217 3826.58 552.3762922122675 3847.94 551.053066850448 3869.3 550.0506233945241 3890.66 549.6496460121547 3912.02 548.7674957709417 3933.38 548.0056387444396 3954.74 547.2036839797006 3976.1 546.2012405237767 3997.46 545.2789925443268 4018.8199999999997 544.4369400413508 4040.18 543.1538124177683 4061.54 542.5122486059771 4082.9 541.790489317712 4104.26 540.4672639558926 4125.62 539.4247227617318 4146.98 538.5425725205188 4168.34 538.4222793058079 4189.7 537.0589562057515 4211.0599999999995 536.4574901321973 4232.42 534.97387381743 4253.78 534.3323100056388 4275.139999999999 533.209573335004 4296.5 532.8887914291086 4296.5 398.0000000000001 4275.139999999999 398.60146607355426 4253.78 399.9647891736107 4232.42 400.7266462001128 4211.0599999999995 402.37065346782794 4189.7 403.1726082325669 4168.34 404.6963222855711 4146.98 404.8567132385189 4125.62 406.0195476473906 4104.26 407.1823820562622 4082.9 408.70609610926635 4061.54 409.5882463504794 4040.18 410.39020111521836 4018.8199999999997 411.75352421527475 3997.46 412.7960654094355 3976.1 413.79850886535934 3954.74 415.1618319654158 3933.38 416.0439822066287 3912.02 417.04642566255245 3890.66 418.0488691184763 3869.3 418.73053066850446 3847.94 420.05375603032394 3826.58 421.5774700833282 3805.2200000000003 422.29922937159324 3783.86 423.5823569951758 3762.5 425.06597330994293 3741.14 427.2713489129754 3719.7799999999997 428.59457427479487 3698.42 429.9177996366143 3677.06 431.000438569012 3655.7 431.9627842866989 3634.34 433.1256186955705 3612.98 434.1681598897313 3591.62 435.85226489568333 3570.26 436.69431739865934 3548.9 437.41607668692444 3527.54 438.2982269281374 3506.18 439.7016477664308 3484.82 440.94467765177626 3463.46 441.9471211077 3442.1 442.7490758724391 3420.74 443.91191028131067 3399.38 445.435624334315 3378.02 446.197481360817 3356.66 447.119729340267 3335.3 447.8013908902951 3313.94 448.6434433932711 3292.58 449.1647139903516 3271.22 449.44539815801016 3249.86 450.5280370904079 3228.5 451.41018733162093 3228.5 577.276987657415Z" fill="#e62d39" opacity="0.9" />
		</g>
		<g>
			<rect x="4372" y="431" width="22.9995" height="23" fill="#005aa6" />
		</g>
		<g>
			<text fill="#595959" font-family="Verdana,Open Sans,DejaVu Sans,sans-serif" font-weight="400" font-size="41" transform="matrix(1 0 0 1 4404.56 454)">Web Browser</text>
		</g>
		<g>
			<rect x="4372" y="508" width="22.9995" height="23" fill="#e62d39" />
		</g>
		<g>
			<text fill="#595959" font-family="Verdana,Open Sans,DejaVu Sans,sans-serif" font-weight="400" font-size="41" transform="matrix(1 0 0 1 4404.56 531)">App</text>
		</g>
	</g>
</svg>
