<svg width="1763" height="1046"
    xmlns="http://www.w3.org/2000/svg"
	xmlns:xlink="http://www.w3.org/1999/xlink" xml:space="preserve" overflow="hidden">
	<defs>
		<clipPath id="clip0">
			<rect x="2917" y="346" width="1763" height="1046"/>
		</clipPath>
	</defs>
	<g clip-path="url(#clip0)" transform="translate(-2917 -346)">
		<rect x="2918" y="347" width="1760" height="1043" fill="#FFFFFF" />
		<g>
			<path d="
			M3228.5 974.532 4296.5 974.532
			M3228.5 910.53 4296.5 910.53
			M3228.5 846.528 4296.5 846.528
			M3228.5 781.526 4296.5 781.526
			M3228.5 717.524 4296.5 717.524
			M3228.5 653.522 4296.5 653.522
			M3228.5 589.52 4296.5 589.52
			M3228.5 525.517 4296.5 525.517
			M3228.5 461.515 4296.5 461.515
			M3228.5 397.5 4296.5 397.5" stroke="#D9D9D9" stroke-width="3.4375" stroke-linejoin="round" stroke-miterlimit="10" fill="none" />
		</g>
		<g>
			<path d="M 1038.5 4296.5 1038.5" stroke="#D9D9D9" stroke-width="3.4375" stroke-linejoin="round" stroke-miterlimit="10" fill="none" fill-rule="evenodd" />
		</g>
		<g>
			<text fill="#595959" font-family="Verdana,Open Sans,DejaVu Sans,sans-serif" font-weight="400" font-size="41" transform="matrix(6.12323e-17 -1 1 6.12323e-17 3248.13916015625 1201.5405197143555)">14-Apr</text>
		</g>
		<g>
			<text fill="#595959" font-family="Verdana,Open Sans,DejaVu Sans,sans-serif" font-weight="400" font-size="41" transform="matrix(6.12323e-17 -1 1 6.12323e-17 3333.709287109375 1214.75341796875)">12-May</text>
		</g>
		<g>
			<text fill="#595959" font-family="Verdana,Open Sans,DejaVu Sans,sans-serif" font-weight="400" font-size="41" transform="matrix(6.12323e-17 -1 1 6.12323e-17 3418.0782421875 1192.2914962768555)">16-Jun</text>
		</g>
		<g>
			<text fill="#595959" font-family="Verdana,Open Sans,DejaVu Sans,sans-serif" font-weight="400" font-size="41" transform="matrix(6.12323e-17 -1 1 6.12323e-17 3504.248955078125 1177.2768478393555)">14-Jul</text>
		</g>
		<g>
			<text fill="#595959" font-family="Verdana,Open Sans,DejaVu Sans,sans-serif" font-weight="400" font-size="41" transform="matrix(6.12323e-17 -1 1 6.12323e-17 3589.879140625 1206.90576171875)">11-Aug</text>
		</g>
		<g>
			<text fill="#595959" font-family="Verdana,Open Sans,DejaVu Sans,sans-serif" font-weight="400" font-size="41" transform="matrix(6.12323e-17 -1 1 6.12323e-17 3675.489306640625 1204.38330078125)">08-Sep</text>
		</g>
		<g>
			<text fill="#595959" font-family="Verdana,Open Sans,DejaVu Sans,sans-serif" font-weight="400" font-size="41" transform="matrix(6.12323e-17 -1 1 6.12323e-17 3756.204697265625 1201.1000900268555)">06-Oct</text>
		</g>
		<g>
			<text fill="#595959" font-family="Verdana,Open Sans,DejaVu Sans,sans-serif" font-weight="400" font-size="41" transform="matrix(6.12323e-17 -1 1 6.12323e-17 3841.644697265625 1211.43017578125)">03-Nov</text>
		</g>
		<g>
			<text fill="#595959" font-family="Verdana,Open Sans,DejaVu Sans,sans-serif" font-weight="400" font-size="41" transform="matrix(6.12323e-17 -1 1 6.12323e-17 3927.084697265625 1207.0859375)">01-Dec</text>
		</g>
		<g>
			<text fill="#595959" font-family="Verdana,Open Sans,DejaVu Sans,sans-serif" font-weight="400" font-size="41" transform="matrix(6.12323e-17 -1 1 6.12323e-17 4012.504677734375 1207.1259765625)">29-Dec</text>
		</g>
		<g>
			<text fill="#595959" font-family="Verdana,Open Sans,DejaVu Sans,sans-serif" font-weight="400" font-size="41" transform="matrix(6.12323e-17 -1 1 6.12323e-17 4101.5982421875 1191.6909103393555)">26-Jan</text>
		</g>
		<g>
			<text fill="#595959" font-family="Verdana,Open Sans,DejaVu Sans,sans-serif" font-weight="400" font-size="41" transform="matrix(6.12323e-17 -1 1 6.12323e-17 4184.115390625 1203.08203125)">23-Feb</text>
		</g>
		<g>
			<text fill="#595959" font-family="Verdana,Open Sans,DejaVu Sans,sans-serif" font-weight="400" font-size="41" transform="matrix(6.12323e-17 -1 1 6.12323e-17 4268.824677734375 1212.05078125)">23-Mar</text>
		</g>
		<g>
			<text fill="#595959" font-family="Verdana,Open Sans,DejaVu Sans,sans-serif" font-weight="400" font-size="41" transform="matrix(1 0 0 1 3169.14111328125 1050)">0</text>
		</g>
		<g>
			<text fill="#595959" font-family="Verdana,Open Sans,DejaVu Sans,sans-serif" font-weight="400" font-size="41" transform="matrix(1 0 0 1 3088.642578125 922)">3,297</text>
		</g>
		<g>
			<text fill="#595959" font-family="Verdana,Open Sans,DejaVu Sans,sans-serif" font-weight="400" font-size="41" transform="matrix(1 0 0 1 3089.42333984375 794)">6,593</text>
		</g>
		<g>
			<text fill="#595959" font-family="Verdana,Open Sans,DejaVu Sans,sans-serif" font-weight="400" font-size="41" transform="matrix(1 0 0 1 3088.8427734375 666)">9,890</text>
		</g>
		<g>
			<text fill="#595959" font-family="Verdana,Open Sans,DejaVu Sans,sans-serif" font-weight="400" font-size="41" transform="matrix(1 0 0 1 3067.0014724731445 538)">13,186</text>
		</g>
		<g>
			<text fill="#595959" font-family="Verdana,Open Sans,DejaVu Sans,sans-serif" font-weight="400" font-size="41" transform="matrix(1 0 0 1 3067.4018630981445 410)">16,483</text>
		</g>
		<g>
			<text fill="#595959" font-family="Verdana,Open Sans,DejaVu Sans,sans-serif" font-weight="400" font-size="41" transform="matrix(1 0 0 1 3556.97119140625 1321)">Week Commencing</text>
		</g>
		<g>
			<text fill="#595959" font-family="Verdana,Open Sans,DejaVu Sans,sans-serif" font-weight="400" font-size="46" transform="matrix(6.12323e-17 -1 1 6.12323e-17 3019.73 1011.673828125)">Number of Browser Profiles</text>
		</g>
		<rect x="2918.5" y="347.5" width="1760" height="1043" stroke="#D9D9D9" stroke-width="3.4375" stroke-linejoin="round" stroke-miterlimit="10" fill="none" />
		<g>
			<path d="M3228.5 1038 3249.86 1038 3271.22 1038 3292.58 1038 3313.94 1038 3335.3 1038 3356.66 1038 3378.02 1038 3399.38 1038 3420.74 1038 3442.1 1038 3463.46 1038 3484.82 1038 3506.18 1038 3527.54 1038 3548.9 1038 3570.26 1038 3591.62 1038 3612.98 1038 3634.34 1038 3655.7 1038 3677.06 1038 3698.42 1038 3719.7799999999997 1038 3741.14 1038 3762.5 1038 3783.86 1038 3805.2200000000003 1038 3826.58 1038 3847.94 1038 3869.3 1038 3890.66 1038 3912.02 1038 3933.38 1038 3954.74 1038 3976.1 1038 3997.46 1038 4018.8199999999997 1038 4040.18 1038 4061.54 1038 4082.9 1038 4104.26 1038 4125.62 1038 4146.98 1038 4168.34 1038 4189.7 1038 4211.0599999999995 1038 4232.42 1038 4253.78 1038 4275.139999999999 1038 4296.5 1038 4296.5 532.9268943760237 4275.139999999999 533.9364193411393 4253.78 534.9459443062549 4232.42 536.4602317539283 4211.0599999999995 537.1979615361281 4189.7 538.1298307346963 4168.34 538.7899047503488 4146.98 539.9159133652854 4125.62 540.925438330401 4104.26 541.4690286962325 4082.9 542.2844142449796 4061.54 543.0221440271796 4040.18 543.8375295759267 4018.8199999999997 543.9928411090214 3997.46 544.4587757083054 3976.1 545.002366074137 3954.74 546.0118910392525 3933.38 547.2543833040102 3912.02 548.8851544015046 3890.66 549.1957774676939 3869.3 550.2829581993569 3847.94 550.9042043317357 3826.58 552.3408360128617 3805.2200000000003 552.9232542619668 3783.86 554.2434022932719 3762.5 554.3598859430929 3741.14 555.2140993751137 3719.7799999999997 556.2236243402293 3698.42 557.5049444882607 3677.06 558.2038463871868 3655.7 558.8250925195656 3634.34 560.0675847843232 3612.98 560.8829703330705 3591.62 561.776011648365 3570.26 562.7467087302068 3548.9 563.5232663956804 3527.54 564.2609961778803 3506.18 565.1152096099011 3484.82 565.503488442638 3463.46 566.4741855244797 3442.1 567.755505672511 3420.74 568.3379239216163 3399.38 569.4639325365529 3378.02 570.7840805678578 3356.66 572.3760237820785 3335.3 573.4632045137414 3313.94 574.5115573621307 3292.58 575.4045986774252 3271.22 576.2199842261724 3249.86 577.1518534247407 3228.5 578.0060668567614 3228.5 1038Z" fill="#005aa6" opacity="0.9" />
		</g>
		<g>
			<path d="M3228.5 578.0060668567614 3249.86 577.1518534247407 3271.22 576.2199842261724 3292.58 575.4045986774252 3313.94 574.5115573621307 3335.3 573.4632045137414 3356.66 572.3760237820785 3378.02 570.7840805678578 3399.38 569.4639325365529 3420.74 568.3379239216163 3442.1 567.755505672511 3463.46 566.4741855244797 3484.82 565.503488442638 3506.18 565.1152096099011 3527.54 564.2609961778803 3548.9 563.5232663956804 3570.26 562.7467087302068 3591.62 561.776011648365 3612.98 560.8829703330705 3634.34 560.0675847843232 3655.7 558.8250925195656 3677.06 558.2038463871868 3698.42 557.5049444882607 3719.7799999999997 556.2236243402293 3741.14 555.2140993751137 3762.5 554.3598859430929 3783.86 554.2434022932719 3805.2200000000003 552.9232542619668 3826.58 552.3408360128617 3847.94 550.9042043317357 3869.3 550.2829581993569 3890.66 549.1957774676939 3912.02 548.8851544015046 3933.38 547.2543833040102 3954.74 546.0118910392525 3976.1 545.002366074137 3997.46 544.4587757083054 4018.8199999999997 543.9928411090214 4040.18 543.8375295759267 4061.54 543.0221440271796 4082.9 542.2844142449796 4104.26 541.4690286962325 4125.62 540.925438330401 4146.98 539.9159133652854 4168.34 538.7899047503488 4189.7 538.1298307346963 4211.0599999999995 537.1979615361281 4232.42 536.4602317539283 4253.78 534.9459443062549 4275.139999999999 533.9364193411393 4296.5 532.9268943760237 4296.5 397.9999999999999 4275.139999999999 399.2036643814839 4253.78 400.4849845295152 4232.42 402.426378693199 4211.0599999999995 403.3194200084936 4189.7 404.56191227325115 4168.34 405.6102651216404 4146.98 407.04689680276647 4125.62 408.2505611842504 4104.26 408.98829096645034 4082.9 410.58023418067097 4061.54 411.3956197294183 4040.18 412.3663168112601 4018.8199999999997 412.5604562276284 3997.46 413.1040465934598 3976.1 413.64763695929133 3954.74 414.96778499059633 3933.38 416.443244554996 3912.02 418.26815506885885 3890.66 418.8505733179639 3869.3 420.17072134926894 3847.94 420.90845113146884 3826.58 422.5003943456895 3805.2200000000003 423.27695201116296 3783.86 424.7524115755627 3762.5 424.90772310865736 3741.14 426.033731723594 3719.7799999999997 427.1597403385306 3698.42 428.6351999029303 3677.06 429.4894133349511 3655.7 430.26597100042466 3634.34 431.58611903172965 3612.98 432.5956439968453 3591.62 433.5663410786872 3570.26 434.88648910999206 3548.9 435.74070254201297 3527.54 436.71139962385496 3506.18 437.6820967056967 3484.82 438.34217072134936 3463.46 439.62349086938053 3442.1 441.09895043378026 3420.74 441.7978523327065 3399.38 443.0403445974641 3378.02 444.4769762785901 3356.66 446.6125098586422 3335.3 447.8938300066735 3313.94 449.17515015470485 3292.58 450.22350300309404 3271.22 451.1553722016623 3249.86 452.281380816599 3228.5 453.2909057817144 3228.5 578.0060668567614Z" fill="#e62d39" opacity="0.9" />
		</g>
		<g>
			<rect x="4372" y="431" width="22.9995" height="23" fill="#005aa6" />
		</g>
		<g>
			<text fill="#595959" font-family="Verdana,Open Sans,DejaVu Sans,sans-serif" font-weight="400" font-size="41" transform="matrix(1 0 0 1 4404.56 454)">Web Browser</text>
		</g>
		<g>
			<rect x="4372" y="508" width="22.9995" height="23" fill="#e62d39" />
		</g>
		<g>
			<text fill="#595959" font-family="Verdana,Open Sans,DejaVu Sans,sans-serif" font-weight="400" font-size="41" transform="matrix(1 0 0 1 4404.56 531)">App</text>
		</g>
	</g>
</svg>
