<svg width="1763" height="1046"
    xmlns="http://www.w3.org/2000/svg"
	xmlns:xlink="http://www.w3.org/1999/xlink" xml:space="preserve" overflow="hidden">
	<defs>
		<clipPath id="clip0">
			<rect x="2917" y="346" width="1763" height="1046"/>
		</clipPath>
	</defs>
	<g clip-path="url(#clip0)" transform="translate(-2917 -346)">
		<rect x="2918" y="347" width="1760" height="1043" fill="#FFFFFF" />
		<g>
			<path d="
			M3228.5 974.532 4296.5 974.532
			M3228.5 910.53 4296.5 910.53
			M3228.5 846.528 4296.5 846.528
			M3228.5 781.526 4296.5 781.526
			M3228.5 717.524 4296.5 717.524
			M3228.5 653.522 4296.5 653.522
			M3228.5 589.52 4296.5 589.52
			M3228.5 525.517 4296.5 525.517
			M3228.5 461.515 4296.5 461.515
			M3228.5 397.5 4296.5 397.5" stroke="#D9D9D9" stroke-width="3.4375" stroke-linejoin="round" stroke-miterlimit="10" fill="none" />
		</g>
		<g>
			<path d="M 1038.5 4296.5 1038.5" stroke="#D9D9D9" stroke-width="3.4375" stroke-linejoin="round" stroke-miterlimit="10" fill="none" fill-rule="evenodd" />
		</g>
		<g>
			<text fill="#595959" font-family="Verdana,Open Sans,DejaVu Sans,sans-serif" font-weight="400" font-size="41" transform="matrix(6.12323e-17 -1 1 6.12323e-17 3243.544677734375 1212.1708984375)">31-Mar</text>
		</g>
		<g>
			<text fill="#595959" font-family="Verdana,Open Sans,DejaVu Sans,sans-serif" font-weight="400" font-size="41" transform="matrix(6.12323e-17 -1 1 6.12323e-17 3332.033992991728 1203.3022384643555)">28-Apr</text>
		</g>
		<g>
			<text fill="#595959" font-family="Verdana,Open Sans,DejaVu Sans,sans-serif" font-weight="400" font-size="41" transform="matrix(6.12323e-17 -1 1 6.12323e-17 3415.798698874081 1216.51513671875)">26-May</text>
		</g>
		<g>
			<text fill="#595959" font-family="Verdana,Open Sans,DejaVu Sans,sans-serif" font-weight="400" font-size="41" transform="matrix(6.12323e-17 -1 1 6.12323e-17 3498.512379365809 1194.1733322143555)">30-Jun</text>
		</g>
		<g>
			<text fill="#595959" font-family="Verdana,Open Sans,DejaVu Sans,sans-serif" font-weight="400" font-size="41" transform="matrix(6.12323e-17 -1 1 6.12323e-17 3582.9877786075367 1179.0385665893555)">28-Jul</text>
		</g>
		<g>
			<text fill="#595959" font-family="Verdana,Open Sans,DejaVu Sans,sans-serif" font-weight="400" font-size="41" transform="matrix(6.12323e-17 -1 1 6.12323e-17 3667.09281652114 1208.66748046875)">25-Aug</text>
		</g>
		<g>
			<text fill="#595959" font-family="Verdana,Open Sans,DejaVu Sans,sans-serif" font-weight="400" font-size="41" transform="matrix(6.12323e-17 -1 1 6.12323e-17 3750.8575224034926 1204.42333984375)">22-Sep</text>
		</g>
		<g>
			<text fill="#595959" font-family="Verdana,Open Sans,DejaVu Sans,sans-serif" font-weight="400" font-size="41" transform="matrix(6.12323e-17 -1 1 6.12323e-17 3829.9176384420957 1201.1401290893555)">20-Oct</text>
		</g>
		<g>
			<text fill="#595959" font-family="Verdana,Open Sans,DejaVu Sans,sans-serif" font-weight="400" font-size="41" transform="matrix(6.12323e-17 -1 1 6.12323e-17 3913.4521197150734 1209.70849609375)">17-Nov</text>
		</g>
		<g>
			<text fill="#595959" font-family="Verdana,Open Sans,DejaVu Sans,sans-serif" font-weight="400" font-size="41" transform="matrix(6.12323e-17 -1 1 6.12323e-17 3997.2168255974266 1205.3642578125)">15-Dec</text>
		</g>
		<g>
			<text fill="#595959" font-family="Verdana,Open Sans,DejaVu Sans,sans-serif" font-weight="400" font-size="41" transform="matrix(6.12323e-17 -1 1 6.12323e-17 4084.8453010110293 1189.9291915893555)">12-Jan</text>
		</g>
		<g>
			<text fill="#595959" font-family="Verdana,Open Sans,DejaVu Sans,sans-serif" font-weight="400" font-size="41" transform="matrix(6.12323e-17 -1 1 6.12323e-17 4165.687155330882 1203.0419921875)">09-Feb</text>
		</g>
		<g>
			<text fill="#595959" font-family="Verdana,Open Sans,DejaVu Sans,sans-serif" font-weight="400" font-size="41" transform="matrix(6.12323e-17 -1 1 6.12323e-17 4248.74116785386 1212.0107421875)">09-Mar</text>
		</g>
		<g>
			<text fill="#595959" font-family="Verdana,Open Sans,DejaVu Sans,sans-serif" font-weight="400" font-size="41" transform="matrix(1 0 0 1 3135.4482421875 1050)">0%</text>
		</g>
		<g>
			<text fill="#595959" font-family="Verdana,Open Sans,DejaVu Sans,sans-serif" font-weight="400" font-size="41" transform="matrix(1 0 0 1 3111.96533203125 922)">20%</text>
		</g>
		<g>
			<text fill="#595959" font-family="Verdana,Open Sans,DejaVu Sans,sans-serif" font-weight="400" font-size="41" transform="matrix(1 0 0 1 3110.82421875 794)">40%</text>
		</g>
		<g>
			<text fill="#595959" font-family="Verdana,Open Sans,DejaVu Sans,sans-serif" font-weight="400" font-size="41" transform="matrix(1 0 0 1 3112.3056640625 666)">60%</text>
		</g>
		<g>
			<text fill="#595959" font-family="Verdana,Open Sans,DejaVu Sans,sans-serif" font-weight="400" font-size="41" transform="matrix(1 0 0 1 3112.04541015625 538)">80%</text>
		</g>
		<g>
			<text fill="#595959" font-family="Verdana,Open Sans,DejaVu Sans,sans-serif" font-weight="400" font-size="41" transform="matrix(1 0 0 1 3090.2841796875 410)">100%</text>
		</g>
		<g>
			<text fill="#595959" font-family="Verdana,Open Sans,DejaVu Sans,sans-serif" font-weight="400" font-size="41" transform="matrix(1 0 0 1 3556.97119140625 1321)">Week Commencing</text>
		</g>
		<g>
			<text fill="#595959" font-family="Verdana,Open Sans,DejaVu Sans,sans-serif" font-weight="400" font-size="46" transform="matrix(6.12323e-17 -1 1 6.12323e-17 3019.73 936.7665710449219)">Requests (% of Total)</text>
		</g>
		<rect x="2918.5" y="347.5" width="1760" height="1043" stroke="#D9D9D9" stroke-width="3.4375" stroke-linejoin="round" stroke-miterlimit="10" fill="none" />
		<g>
			<path d="M3228.5 1038 3249.4411764705883 1038 3270.3823529411766 1038 3291.323529411765 1038 3312.264705882353 1038 3333.205882352941 1038 3354.1470588235293 1038 3375.0882352941176 1038 3396.029411764706 1038 3416.970588235294 1038 3437.9117647058824 1038 3458.8529411764707 1038 3479.794117647059 1038 3500.735294117647 1038 3521.676470588235 1038 3542.6176470588234 1038 3563.5588235294117 1038 3584.5 1038 3605.4411764705883 1038 3626.3823529411766 1038 3647.323529411765 1038 3668.264705882353 1038 3689.205882352941 1038 3710.1470588235293 1038 3731.0882352941176 1038 3752.029411764706 1038 3772.970588235294 1038 3793.9117647058824 1038 3814.8529411764707 1038 3835.7941176470586 1038 3856.735294117647 1038 3877.676470588235 1038 3898.6176470588234 1038 3919.5588235294117 1038 3940.5 1038 3961.4411764705883 1038 3982.3823529411766 1038 4003.323529411765 1038 4024.264705882353 1038 4045.2058823529414 1038 4066.1470588235293 1038 4087.0882352941176 1038 4108.029411764706 1038 4128.970588235294 1038 4149.911764705882 1038 4170.85294117647 1038 4191.794117647059 1038 4212.735294117647 1038 4233.676470588235 1038 4254.617647058823 1038 4275.558823529412 1038 4296.5 1038 4296.5 641.3274589400961 4275.558823529412 641.6145313440886 4254.617647058823 642.4444914583115 4233.676470588235 643.401215888529 4212.735294117647 644.3338442804811 4191.794117647059 646.711535446821 4170.85294117647 646.5953351574117 4149.911764705882 648.9964700856017 4128.970588235294 650.4578201384786 4108.029411764706 650.1826843160547 4087.0882352941176 650.9511325988744 4066.1470588235293 650.9685000981426 4045.2058823529414 652.4520688665375 4024.264705882353 654.2438394166766 4003.323529411765 654.1783595408037 3982.3823529411766 665.1009269843557 3961.4411764705883 665.0687170796807 3940.5 669.2508046624037 3919.5588235294117 668.8015383913383 3898.6176470588234 677.0310099621294 3877.676470588235 715.6326502484551 3856.735294117647 731.7898269041518 3835.7941176470586 731.6946718722857 3814.8529411764707 731.7814057156063 3793.9117647058824 731.7708258099874 3772.970588235294 739.179471336138 3752.029411764706 739.1723277843557 3731.0882352941176 742.0464154901043 3710.1470588235293 744.981700209997 3689.205882352941 752.0924084860791 3668.264705882353 755.2385923010361 3647.323529411765 755.2502906288946 3626.3823529411766 758.1300732473312 3605.4411764705883 768.0870120946274 3584.5 768.0622682813855 3563.5588235294117 768.1168972047803 3542.6176470588234 768.2021370143037 3521.676470588235 769.6067142131767 3500.735294117647 775.05017459998 3479.794117647059 787.2357258695183 3458.8529411764707 787.3092370373995 3437.9117647058824 790.9650389728295 3416.970588235294 794.0813847270024 3396.029411764706 798.9713729419469 3375.0882352941176 800.9582284854941 3354.1470588235293 802.40679729401 3333.205882352941 803.7574587023792 3312.264705882353 804.8795653060993 3291.323529411765 805.7888012756688 3270.3823529411766 807.0111198010406 3249.4411764705883 808.4993663352112 3228.5 809.5719943405506 3228.5 1038Z" fill="#e62d39" opacity="0.9" />
		</g>
		<g>
			<path d="M3228.5 809.5719943405506 3249.4411764705883 808.4993663352112 3270.3823529411766 807.0111198010406 3291.323529411765 805.7888012756688 3312.264705882353 804.8795653060993 3333.205882352941 803.7574587023792 3354.1470588235293 802.40679729401 3375.0882352941176 800.9582284854941 3396.029411764706 798.9713729419469 3416.970588235294 794.0813847270024 3437.9117647058824 790.9650389728295 3458.8529411764707 787.3092370373995 3479.794117647059 787.2357258695183 3500.735294117647 775.05017459998 3521.676470588235 769.6067142131767 3542.6176470588234 768.2021370143037 3563.5588235294117 768.1168972047803 3584.5 768.0622682813855 3605.4411764705883 768.0870120946274 3626.3823529411766 758.1300732473312 3647.323529411765 755.2502906288946 3668.264705882353 755.2385923010361 3689.205882352941 752.0924084860791 3710.1470588235293 744.981700209997 3731.0882352941176 742.0464154901043 3752.029411764706 739.1723277843557 3772.970588235294 739.179471336138 3793.9117647058824 731.7708258099874 3814.8529411764707 731.7814057156063 3835.7941176470586 731.6946718722857 3856.735294117647 731.7898269041518 3877.676470588235 715.6326502484551 3898.6176470588234 677.0310099621294 3919.5588235294117 668.8015383913383 3940.5 669.2508046624037 3961.4411764705883 665.0687170796807 3982.3823529411766 665.1009269843557 4003.323529411765 654.1783595408037 4024.264705882353 654.2438394166766 4045.2058823529414 652.4520688665375 4066.1470588235293 650.9685000981426 4087.0882352941176 650.9511325988744 4108.029411764706 650.1826843160547 4128.970588235294 650.4578201384786 4149.911764705882 648.9964700856017 4170.85294117647 646.5953351574117 4191.794117647059 646.711535446821 4212.735294117647 644.3338442804811 4233.676470588235 643.401215888529 4254.617647058823 642.4444914583115 4275.558823529412 641.6145313440886 4296.5 641.3274589400961 4296.5 406.1475891922515 4275.558823529412 406.0007835357919 4254.617647058823 405.8580495377305 4233.676470588235 405.75756216085244 4212.735294117647 405.6890755918336 4191.794117647059 405.4853661204658 4170.85294117647 405.49122463683807 4149.911764705882 405.2872977777903 4128.970588235294 405.0542403680629 4108.029411764706 404.8267826278017 4087.0882352941176 404.3597305581952 4066.1470588235293 404.3606360598039 4045.2058823529414 404.3133620715407 4024.264705882353 404.2694390318647 4003.323529411765 404.25532206437714 3982.3823529411766 404.1006016590141 3961.4411764705883 404.09929675944176 3940.5 404.0956381930635 3919.5588235294117 404.12948436436125 3898.6176470588234 403.9961122337051 3877.676470588235 403.3494217541671 3856.735294117647 402.9248624726996 3835.7941176470586 402.9072043922977 3814.8529411764707 402.90877584131425 3793.9117647058824 402.9298471234101 3772.970588235294 402.60349792125623 3752.029411764706 402.6099730048478 3731.0882352941176 402.37217547977207 3710.1470588235293 402.145050233926 3689.205882352941 401.73578913608276 3668.264705882353 401.57006086206655 3647.323529411765 401.57128950627384 3626.3823529411766 401.4082896460906 3605.4411764705883 400.8924429074875 3584.5 400.88896921768406 3563.5588235294117 400.93900012801925 3542.6176470588234 401.0268406246156 3521.676470588235 400.9092568701918 3500.735294117647 400.9924926084992 3479.794117647059 400.4880580221503 3458.8529411764707 400.49608136003764 3437.9117647058824 400.2916782230466 3416.970588235294 400.1582567110125 3396.029411764706 399.92908991218985 3375.0882352941176 399.9334041710106 3354.1470588235293 399.87976806541184 3333.205882352941 399.8310554200369 3312.264705882353 399.7742919400221 3291.323529411765 399.72528771121347 3270.3823529411766 399.7049408705508 3249.4411764705883 400.00414490488384 3228.5 399.9604159100104 3228.5 809.5719943405506Z" fill="#005aa6" opacity="0.9" />
		</g>
		<g>
			<path d="M3228.5 399.9604159100104 3249.4411764705883 400.00414490488384 3270.3823529411766 399.7049408705508 3291.323529411765 399.72528771121347 3312.264705882353 399.7742919400221 3333.205882352941 399.8310554200369 3354.1470588235293 399.87976806541184 3375.0882352941176 399.9334041710106 3396.029411764706 399.92908991218985 3416.970588235294 400.1582567110125 3437.9117647058824 400.2916782230466 3458.8529411764707 400.49608136003764 3479.794117647059 400.4880580221503 3500.735294117647 400.9924926084992 3521.676470588235 400.9092568701918 3542.6176470588234 401.0268406246156 3563.5588235294117 400.93900012801925 3584.5 400.88896921768406 3605.4411764705883 400.8924429074875 3626.3823529411766 401.4082896460906 3647.323529411765 401.57128950627384 3668.264705882353 401.57006086206655 3689.205882352941 401.73578913608276 3710.1470588235293 402.145050233926 3731.0882352941176 402.37217547977207 3752.029411764706 402.6099730048478 3772.970588235294 402.60349792125623 3793.9117647058824 402.9298471234101 3814.8529411764707 402.90877584131425 3835.7941176470586 402.9072043922977 3856.735294117647 402.9248624726996 3877.676470588235 403.3494217541671 3898.6176470588234 403.9961122337051 3919.5588235294117 404.12948436436125 3940.5 404.0956381930635 3961.4411764705883 404.09929675944176 3982.3823529411766 404.1006016590141 4003.323529411765 404.25532206437714 4024.264705882353 404.2694390318647 4045.2058823529414 404.3133620715407 4066.1470588235293 404.3606360598039 4087.0882352941176 404.3597305581952 4108.029411764706 404.8267826278017 4128.970588235294 405.0542403680629 4149.911764705882 405.2872977777903 4170.85294117647 405.49122463683807 4191.794117647059 405.4853661204658 4212.735294117647 405.6890755918336 4233.676470588235 405.75756216085244 4254.617647058823 405.8580495377305 4275.558823529412 406.0007835357919 4296.5 406.1475891922515 4296.5 398 4275.558823529412 398 4254.617647058823 398 4233.676470588235 398.00000000000006 4212.735294117647 397.99999999999994 4191.794117647059 398.00000000000006 4170.85294117647 398 4149.911764705882 398 4128.970588235294 398 4108.029411764706 397.99999999999994 4087.0882352941176 397.99999999999994 4066.1470588235293 397.99999999999994 4045.2058823529414 398.00000000000006 4024.264705882353 398.00000000000006 4003.323529411765 398.0000000000001 3982.3823529411766 397.99999999999994 3961.4411764705883 397.9999999999999 3940.5 398.0000000000001 3919.5588235294117 398 3898.6176470588234 398 3877.676470588235 397.9999999999999 3856.735294117647 398.00000000000006 3835.7941176470586 397.99999999999994 3814.8529411764707 397.9999999999999 3793.9117647058824 398.00000000000006 3772.970588235294 398.00000000000006 3752.029411764706 397.99999999999994 3731.0882352941176 397.99999999999994 3710.1470588235293 397.99999999999994 3689.205882352941 398 3668.264705882353 397.9999999999999 3647.323529411765 397.99999999999994 3626.3823529411766 397.99999999999994 3605.4411764705883 398 3584.5 398.00000000000006 3563.5588235294117 398.00000000000006 3542.6176470588234 397.99999999999994 3521.676470588235 397.99999999999994 3500.735294117647 397.99999999999994 3479.794117647059 398.0000000000001 3458.8529411764707 398 3437.9117647058824 398.00000000000006 3416.970588235294 398 3396.029411764706 398 3375.0882352941176 398 3354.1470588235293 398 3333.205882352941 398 3312.264705882353 397.99999999999994 3291.323529411765 397.9999999999999 3270.3823529411766 398 3249.4411764705883 398 3228.5 397.99999999999994 3228.5 399.9604159100104Z" fill="#393d41" opacity="0.9" />
		</g>
		<g>
			<rect x="4372" y="431" width="22.9995" height="23" fill="#e62d39" />
		</g>
		<g>
			<text fill="#595959" font-family="Verdana,Open Sans,DejaVu Sans,sans-serif" font-weight="400" font-size="41" transform="matrix(1 0 0 1 4404.56 454)">App</text>
		</g>
		<g>
			<rect x="4372" y="508" width="22.9995" height="23" fill="#005aa6" />
		</g>
		<g>
			<text fill="#595959" font-family="Verdana,Open Sans,DejaVu Sans,sans-serif" font-weight="400" font-size="41" transform="matrix(1 0 0 1 4404.56 531)">Web Browser</text>
		</g>
		<g>
			<rect x="4372" y="585" width="22.9995" height="23" fill="#393d41" />
		</g>
		<g>
			<text fill="#595959" font-family="Verdana,Open Sans,DejaVu Sans,sans-serif" font-weight="400" font-size="41" transform="matrix(1 0 0 1 4404.56 608)">Unclassified</text>
		</g>
	</g>
</svg>
