<svg width="1763" height="1046"
    xmlns="http://www.w3.org/2000/svg"
	xmlns:xlink="http://www.w3.org/1999/xlink" xml:space="preserve" overflow="hidden">
	<defs>
		<clipPath id="clip0">
			<rect x="2917" y="346" width="1763" height="1046"/>
		</clipPath>
	</defs>
	<g clip-path="url(#clip0)" transform="translate(-2917 -346)">
		<rect x="2918" y="347" width="1760" height="1043" fill="#FFFFFF" />
		<g>
			<path d="
			M3228.5 974.532 4296.5 974.532
			M3228.5 910.53 4296.5 910.53
			M3228.5 846.528 4296.5 846.528
			M3228.5 781.526 4296.5 781.526
			M3228.5 717.524 4296.5 717.524
			M3228.5 653.522 4296.5 653.522
			M3228.5 589.52 4296.5 589.52
			M3228.5 525.517 4296.5 525.517
			M3228.5 461.515 4296.5 461.515
			M3228.5 397.5 4296.5 397.5" stroke="#D9D9D9" stroke-width="3.4375" stroke-linejoin="round" stroke-miterlimit="10" fill="none" />
		</g>
		<g>
			<path d="M 1038.5 4296.5 1038.5" stroke="#D9D9D9" stroke-width="3.4375" stroke-linejoin="round" stroke-miterlimit="10" fill="none" fill-rule="evenodd" />
		</g>
		<g>
			<text fill="#595959" font-family="Verdana,Open Sans,DejaVu Sans,sans-serif" font-weight="400" font-size="41" transform="matrix(6.12323e-17 -1 1 6.12323e-17 3248.269287109375 1206.90576171875)">12-Aug</text>
		</g>
		<g>
			<text fill="#595959" font-family="Verdana,Open Sans,DejaVu Sans,sans-serif" font-weight="400" font-size="41" transform="matrix(6.12323e-17 -1 1 6.12323e-17 3335.472980110013 1204.38330078125)">09-Sep</text>
		</g>
		<g>
			<text fill="#595959" font-family="Verdana,Open Sans,DejaVu Sans,sans-serif" font-weight="400" font-size="41" transform="matrix(6.12323e-17 -1 1 6.12323e-17 3417.9320442044004 1201.1000900268555)">07-Oct</text>
		</g>
		<g>
			<text fill="#595959" font-family="Verdana,Open Sans,DejaVu Sans,sans-serif" font-weight="400" font-size="41" transform="matrix(6.12323e-17 -1 1 6.12323e-17 3505.1157176737884 1211.43017578125)">04-Nov</text>
		</g>
		<g>
			<text fill="#595959" font-family="Verdana,Open Sans,DejaVu Sans,sans-serif" font-weight="400" font-size="41" transform="matrix(6.12323e-17 -1 1 6.12323e-17 3592.299391143176 1207.0859375)">09-Dec</text>
		</g>
		<g>
			<text fill="#595959" font-family="Verdana,Open Sans,DejaVu Sans,sans-serif" font-weight="400" font-size="41" transform="matrix(6.12323e-17 -1 1 6.12323e-17 3683.136629065689 1191.6508712768555)">06-Jan</text>
		</g>
		<g>
			<text fill="#595959" font-family="Verdana,Open Sans,DejaVu Sans,sans-serif" font-weight="400" font-size="41" transform="matrix(6.12323e-17 -1 1 6.12323e-17 3767.3774314413267 1203.0419921875)">03-Feb</text>
		</g>
		<g>
			<text fill="#595959" font-family="Verdana,Open Sans,DejaVu Sans,sans-serif" font-weight="400" font-size="41" transform="matrix(6.12323e-17 -1 1 6.12323e-17 3853.850411551339 1212.0107421875)">03-Mar</text>
		</g>
		<g>
			<text fill="#595959" font-family="Verdana,Open Sans,DejaVu Sans,sans-serif" font-weight="400" font-size="41" transform="matrix(6.12323e-17 -1 1 6.12323e-17 3941.014065489477 1212.1708984375)">31-Mar</text>
		</g>
		<g>
			<text fill="#595959" font-family="Verdana,Open Sans,DejaVu Sans,sans-serif" font-weight="400" font-size="41" transform="matrix(6.12323e-17 -1 1 6.12323e-17 4032.9223483338646 1203.3022384643555)">28-Apr</text>
		</g>
		<g>
			<text fill="#595959" font-family="Verdana,Open Sans,DejaVu Sans,sans-serif" font-weight="400" font-size="41" transform="matrix(6.12323e-17 -1 1 6.12323e-17 4120.106021803253 1216.51513671875)">26-May</text>
		</g>
		<g>
			<text fill="#595959" font-family="Verdana,Open Sans,DejaVu Sans,sans-serif" font-weight="400" font-size="41" transform="matrix(6.12323e-17 -1 1 6.12323e-17 4206.2386698820155 1194.1733322143555)">30-Jun</text>
		</g>
		<g>
			<text fill="#595959" font-family="Verdana,Open Sans,DejaVu Sans,sans-serif" font-weight="400" font-size="41" transform="matrix(6.12323e-17 -1 1 6.12323e-17 4294.1330367107785 1179.0385665893555)">28-Jul</text>
		</g>
		<g>
			<text fill="#595959" font-family="Verdana,Open Sans,DejaVu Sans,sans-serif" font-weight="400" font-size="41" transform="matrix(1 0 0 1 3169.14111328125 1050)">0</text>
		</g>
		<g>
			<text fill="#595959" font-family="Verdana,Open Sans,DejaVu Sans,sans-serif" font-weight="400" font-size="41" transform="matrix(1 0 0 1 3088.7626953125 922)">3,102</text>
		</g>
		<g>
			<text fill="#595959" font-family="Verdana,Open Sans,DejaVu Sans,sans-serif" font-weight="400" font-size="41" transform="matrix(1 0 0 1 3087.841796875 794)">6,204</text>
		</g>
		<g>
			<text fill="#595959" font-family="Verdana,Open Sans,DejaVu Sans,sans-serif" font-weight="400" font-size="41" transform="matrix(1 0 0 1 3088.8828125 666)">9,307</text>
		</g>
		<g>
			<text fill="#595959" font-family="Verdana,Open Sans,DejaVu Sans,sans-serif" font-weight="400" font-size="41" transform="matrix(1 0 0 1 3067.2016677856445 538)">12,409</text>
		</g>
		<g>
			<text fill="#595959" font-family="Verdana,Open Sans,DejaVu Sans,sans-serif" font-weight="400" font-size="41" transform="matrix(1 0 0 1 3074.1284255981445 410)">15,511</text>
		</g>
		<g>
			<text fill="#595959" font-family="Verdana,Open Sans,DejaVu Sans,sans-serif" font-weight="400" font-size="41" transform="matrix(1 0 0 1 3556.97119140625 1321)">Week Commencing</text>
		</g>
		<g>
			<text fill="#595959" font-family="Verdana,Open Sans,DejaVu Sans,sans-serif" font-weight="400" font-size="46" transform="matrix(6.12323e-17 -1 1 6.12323e-17 3019.73 1011.673828125)">Number of Browser Profiles</text>
		</g>
		<rect x="2918.5" y="347.5" width="1760" height="1043" stroke="#D9D9D9" stroke-width="3.4375" stroke-linejoin="round" stroke-miterlimit="10" fill="none" />
		<g>
			<path d="M3228.5 1038 3250.295918367347 1038 3272.091836734694 1038 3293.887755102041 1038 3315.683673469388 1038 3337.4795918367345 1038 3359.2755102040815 1038 3381.0714285714284 1038 3402.8673469387754 1038 3424.6632653061224 1038 3446.4591836734694 1038 3468.2551020408164 1038 3490.0510204081634 1038 3511.8469387755104 1038 3533.6428571428573 1038 3555.4387755102043 1038 3577.234693877551 1038 3599.030612244898 1038 3620.826530612245 1038 3642.622448979592 1038 3664.418367346939 1038 3686.214285714286 1038 3708.0102040816328 1038 3729.8061224489797 1038 3751.6020408163267 1038 3773.3979591836733 1038 3795.1938775510203 1038 3816.9897959183672 1038 3838.785714285714 1038 3860.581632653061 1038 3882.377551020408 1038 3904.173469387755 1038 3925.969387755102 1038 3947.765306122449 1038 3969.5612244897957 1038 3991.357142857143 1038 4013.1530612244896 1038 4034.9489795918366 1038 4056.7448979591836 1038 4078.5408163265306 1038 4100.336734693878 1038 4122.132653061224 1038 4143.928571428572 1038 4165.724489795918 1038 4187.5204081632655 1038 4209.316326530612 1038 4231.1122448979595 1038 4252.908163265306 1038 4274.7040816326535 1038 4296.5 1038 4296.5 533.7900844561923 4274.7040816326535 534.5740442266779 4252.908163265306 535.4817871188188 4231.1122448979595 535.8943975243376 4209.316326530612 536.9259235381342 4187.5204081632655 538.2875378763458 4165.724489795918 538.9064534846239 4143.928571428572 540.103023660628 4122.132653061224 541.5058990393914 4100.336734693878 543.1976017020179 4078.5408163265306 544.3529108374702 4056.7448979591836 545.4669589323705 4034.9489795918366 546.4159628650634 4013.1530612244896 547.2824447166527 3991.357142857143 548.2727096898975 3969.5612244897957 549.1804525820385 3947.765306122449 550.7071110824576 3925.969387755102 551.3672877312874 3904.173469387755 552.0274643801173 3882.377551020408 552.8114241506028 3860.581632653061 553.9254722455032 3838.785714285714 555.0807813809554 3816.9897959183672 555.9885242730966 3795.1938775510203 556.5661788408227 3773.3979591836733 557.5151827735156 3751.6020408163267 558.918058152279 3729.8061224489797 559.536973760557 3708.0102040816328 560.2384114499387 3686.214285714286 560.7335439365611 3664.418367346939 561.4762426664947 3642.622448979592 561.9713751531172 3620.826530612245 562.2602024369802 3599.030612244898 563.2092063696731 3577.234693877551 563.9106440590549 3555.4387755102043 565.4785636000258 3533.6428571428573 566.5100896138224 3511.8469387755104 567.1290052221004 3490.0510204081634 567.7479208303785 3468.2551020408164 568.6556637225194 3446.4591836734694 569.3983624524531 3424.6632653061224 570.0998001418347 3402.8673469387754 570.966281993424 3381.0714285714284 572.2866352910837 3359.2755102040815 572.6992456966024 3337.4795918367345 573.772032750951 3315.683673469388 574.679775643092 3293.887755102041 575.29869125137 3272.091836734694 576.206434143511 3250.295918367347 576.7428276706853 3228.5 577.3204822384114 3228.5 1038Z" fill="#e62d39" opacity="0.9" />
		</g>
		<g>
			<path d="M3228.5 577.3204822384114 3250.295918367347 576.7428276706853 3272.091836734694 576.206434143511 3293.887755102041 575.29869125137 3315.683673469388 574.679775643092 3337.4795918367345 573.772032750951 3359.2755102040815 572.6992456966024 3381.0714285714284 572.2866352910837 3402.8673469387754 570.966281993424 3424.6632653061224 570.0998001418347 3446.4591836734694 569.3983624524531 3468.2551020408164 568.6556637225194 3490.0510204081634 567.7479208303785 3511.8469387755104 567.1290052221004 3533.6428571428573 566.5100896138224 3555.4387755102043 565.4785636000258 3577.234693877551 563.9106440590549 3599.030612244898 563.2092063696731 3620.826530612245 562.2602024369802 3642.622448979592 561.9713751531172 3664.418367346939 561.4762426664947 3686.214285714286 560.7335439365611 3708.0102040816328 560.2384114499387 3729.8061224489797 559.536973760557 3751.6020408163267 558.918058152279 3773.3979591836733 557.5151827735156 3795.1938775510203 556.5661788408227 3816.9897959183672 555.9885242730966 3838.785714285714 555.0807813809554 3860.581632653061 553.9254722455032 3882.377551020408 552.8114241506028 3904.173469387755 552.0274643801173 3925.969387755102 551.3672877312874 3947.765306122449 550.7071110824576 3969.5612244897957 549.1804525820385 3991.357142857143 548.2727096898975 4013.1530612244896 547.2824447166527 4034.9489795918366 546.4159628650634 4056.7448979591836 545.4669589323705 4078.5408163265306 544.3529108374702 4100.336734693878 543.1976017020179 4122.132653061224 541.5058990393914 4143.928571428572 540.103023660628 4165.724489795918 538.9064534846239 4187.5204081632655 538.2875378763458 4209.316326530612 536.9259235381342 4231.1122448979595 535.8943975243376 4252.908163265306 535.4817871188188 4274.7040816326535 534.5740442266779 4296.5 533.7900844561923 4296.5 397.9999999999999 4274.7040816326535 399.0315260137967 4252.908163265306 400.06305202759324 4231.1122448979595 400.76448971697505 4209.316326530612 402.1261040551866 4187.5204081632655 403.69402359615754 4165.724489795918 404.43672232609117 4143.928571428572 405.7570756237509 4122.132653061224 407.2837341241699 4100.336734693878 409.55309135452256 4078.5408163265306 410.9147056927342 4056.7448979591836 412.2763200309457 4034.9489795918366 413.39036812584607 4013.1530612244896 414.3806330990909 3991.357142857143 415.57720327509514 3969.5612244897957 416.64999032944354 3947.765306122449 418.38295403262197 3925.969387755102 419.24943588421115 3904.173469387755 419.9921346141448 3882.377551020408 420.8998775062858 3860.581632653061 422.3440139256012 3838.785714285714 423.62310618270897 3816.9897959183672 424.65463219650576 3795.1938775510203 425.47985300754306 3773.3979591836733 426.6764231835472 3751.6020408163267 428.244342724518 3729.8061224489797 429.02830249500346 3708.0102040816328 429.97730642769636 3686.214285714286 430.67874411707817 3664.418367346939 431.5452259686674 3642.622448979592 432.08161949584166 3620.826530612245 432.3704467797047 3599.030612244898 433.48449487460505 3577.234693877551 434.39223776674623 3555.4387755102043 436.2489845915802 3533.6428571428573 437.528076848688 3511.8469387755104 438.35329765972534 3490.0510204081634 439.71491199793695 3468.2551020408164 440.82896009283724 3446.4591836734694 441.73670298497836 3424.6632653061224 442.6031848365675 3402.8673469387754 443.59344980981234 3381.0714285714284 445.03758622912767 3359.2755102040815 445.61524079685375 3337.4795918367345 446.9768551350655 3315.683673469388 448.09090322996576 3293.887755102041 448.8748630004513 3272.091836734694 449.9889110953517 3250.295918367347 450.60782670362966 3228.5 451.47430855521884 3228.5 577.3204822384114Z" fill="#005aa6" opacity="0.9" />
		</g>
		<g>
			<rect x="4372" y="431" width="22.9995" height="23" fill="#e62d39" />
		</g>
		<g>
			<text fill="#595959" font-family="Verdana,Open Sans,DejaVu Sans,sans-serif" font-weight="400" font-size="41" transform="matrix(1 0 0 1 4404.56 454)">Web Browser</text>
		</g>
		<g>
			<rect x="4372" y="508" width="22.9995" height="23" fill="#005aa6" />
		</g>
		<g>
			<text fill="#595959" font-family="Verdana,Open Sans,DejaVu Sans,sans-serif" font-weight="400" font-size="41" transform="matrix(1 0 0 1 4404.56 531)">App</text>
		</g>
	</g>
</svg>
