<svg width="1763" height="1046"
    xmlns="http://www.w3.org/2000/svg"
	xmlns:xlink="http://www.w3.org/1999/xlink" xml:space="preserve" overflow="hidden">
	<defs>
		<clipPath id="clip0">
			<rect x="2917" y="346" width="1763" height="1046"/>
		</clipPath>
	</defs>
	<g clip-path="url(#clip0)" transform="translate(-2917 -346)">
		<rect x="2918" y="347" width="1760" height="1043" fill="#FFFFFF" />
		<g>
			<path d="
			M3228.5 974.532 4296.5 974.532
			M3228.5 910.53 4296.5 910.53
			M3228.5 846.528 4296.5 846.528
			M3228.5 781.526 4296.5 781.526
			M3228.5 717.524 4296.5 717.524
			M3228.5 653.522 4296.5 653.522
			M3228.5 589.52 4296.5 589.52
			M3228.5 525.517 4296.5 525.517
			M3228.5 461.515 4296.5 461.515
			M3228.5 397.5 4296.5 397.5" stroke="#D9D9D9" stroke-width="3.4375" stroke-linejoin="round" stroke-miterlimit="10" fill="none" />
		</g>
		<g>
			<path d="M 1038.5 4296.5 1038.5" stroke="#D9D9D9" stroke-width="3.4375" stroke-linejoin="round" stroke-miterlimit="10" fill="none" fill-rule="evenodd" />
		</g>
		<g>
			<text fill="#595959" font-family="Verdana,Open Sans,DejaVu Sans,sans-serif" font-weight="400" font-size="41" transform="matrix(6.12323e-17 -1 1 6.12323e-17 3248.269287109375 1202.66162109375)">16-Sep</text>
		</g>
		<g>
			<text fill="#595959" font-family="Verdana,Open Sans,DejaVu Sans,sans-serif" font-weight="400" font-size="41" transform="matrix(6.12323e-17 -1 1 6.12323e-17 3330.748370735013 1199.3784103393555)">14-Oct</text>
		</g>
		<g>
			<text fill="#595959" font-family="Verdana,Open Sans,DejaVu Sans,sans-serif" font-weight="400" font-size="41" transform="matrix(6.12323e-17 -1 1 6.12323e-17 3417.7018195950254 1209.70849609375)">11-Nov</text>
		</g>
		<g>
			<text fill="#595959" font-family="Verdana,Open Sans,DejaVu Sans,sans-serif" font-weight="400" font-size="41" transform="matrix(6.12323e-17 -1 1 6.12323e-17 3505.0956981425384 1205.3642578125)">16-Dec</text>
		</g>
		<g>
			<text fill="#595959" font-family="Verdana,Open Sans,DejaVu Sans,sans-serif" font-weight="400" font-size="41" transform="matrix(6.12323e-17 -1 1 6.12323e-17 3595.932936065051 1189.9291915893555)">13-Jan</text>
		</g>
		<g>
			<text fill="#595959" font-family="Verdana,Open Sans,DejaVu Sans,sans-serif" font-weight="400" font-size="41" transform="matrix(6.12323e-17 -1 1 6.12323e-17 3680.193757971939 1201.3203125)">10-Feb</text>
		</g>
		<g>
			<text fill="#595959" font-family="Verdana,Open Sans,DejaVu Sans,sans-serif" font-weight="400" font-size="41" transform="matrix(6.12323e-17 -1 1 6.12323e-17 3766.6667380819517 1210.2890625)">10-Mar</text>
		</g>
		<g>
			<text fill="#595959" font-family="Verdana,Open Sans,DejaVu Sans,sans-serif" font-weight="400" font-size="41" transform="matrix(6.12323e-17 -1 1 6.12323e-17 3858.575020926339 1203.2621994018555)">07-Apr</text>
		</g>
		<g>
			<text fill="#595959" font-family="Verdana,Open Sans,DejaVu Sans,sans-serif" font-weight="400" font-size="41" transform="matrix(6.12323e-17 -1 1 6.12323e-17 3945.758694395727 1216.47509765625)">05-May</text>
		</g>
		<g>
			<text fill="#595959" font-family="Verdana,Open Sans,DejaVu Sans,sans-serif" font-weight="400" font-size="41" transform="matrix(6.12323e-17 -1 1 6.12323e-17 4031.8713229432396 1194.0131759643555)">09-Jun</text>
		</g>
		<g>
			<text fill="#595959" font-family="Verdana,Open Sans,DejaVu Sans,sans-serif" font-weight="400" font-size="41" transform="matrix(6.12323e-17 -1 1 6.12323e-17 4119.765689772003 1178.9985275268555)">07-Jul</text>
		</g>
		<g>
			<text fill="#595959" font-family="Verdana,Open Sans,DejaVu Sans,sans-serif" font-weight="400" font-size="41" transform="matrix(6.12323e-17 -1 1 6.12323e-17 4207.3097148038905 1208.62744140625)">04-Aug</text>
		</g>
		<g>
			<text fill="#595959" font-family="Verdana,Open Sans,DejaVu Sans,sans-serif" font-weight="400" font-size="41" transform="matrix(6.12323e-17 -1 1 6.12323e-17 4294.4933882732785 1204.38330078125)">01-Sep</text>
		</g>
		<g>
			<text fill="#595959" font-family="Verdana,Open Sans,DejaVu Sans,sans-serif" font-weight="400" font-size="41" transform="matrix(1 0 0 1 3169.14111328125 1050)">0</text>
		</g>
		<g>
			<text fill="#595959" font-family="Verdana,Open Sans,DejaVu Sans,sans-serif" font-weight="400" font-size="41" transform="matrix(1 0 0 1 3088.6025390625 922)">3,130</text>
		</g>
		<g>
			<text fill="#595959" font-family="Verdana,Open Sans,DejaVu Sans,sans-serif" font-weight="400" font-size="41" transform="matrix(1 0 0 1 3096.14990234375 794)">6,261</text>
		</g>
		<g>
			<text fill="#595959" font-family="Verdana,Open Sans,DejaVu Sans,sans-serif" font-weight="400" font-size="41" transform="matrix(1 0 0 1 3095.9296875 666)">9,391</text>
		</g>
		<g>
			<text fill="#595959" font-family="Verdana,Open Sans,DejaVu Sans,sans-serif" font-weight="400" font-size="41" transform="matrix(1 0 0 1 3067.2016677856445 538)">12,522</text>
		</g>
		<g>
			<text fill="#595959" font-family="Verdana,Open Sans,DejaVu Sans,sans-serif" font-weight="400" font-size="41" transform="matrix(1 0 0 1 3067.2016677856445 410)">15,652</text>
		</g>
		<g>
			<text fill="#595959" font-family="Verdana,Open Sans,DejaVu Sans,sans-serif" font-weight="400" font-size="41" transform="matrix(1 0 0 1 3556.97119140625 1321)">Week Commencing</text>
		</g>
		<g>
			<text fill="#595959" font-family="Verdana,Open Sans,DejaVu Sans,sans-serif" font-weight="400" font-size="46" transform="matrix(6.12323e-17 -1 1 6.12323e-17 3019.73 1011.673828125)">Number of Browser Profiles</text>
		</g>
		<rect x="2918.5" y="347.5" width="1760" height="1043" stroke="#D9D9D9" stroke-width="3.4375" stroke-linejoin="round" stroke-miterlimit="10" fill="none" />
		<g>
			<path d="M3228.5 1038 3250.295918367347 1038 3272.091836734694 1038 3293.887755102041 1038 3315.683673469388 1038 3337.4795918367345 1038 3359.2755102040815 1038 3381.0714285714284 1038 3402.8673469387754 1038 3424.6632653061224 1038 3446.4591836734694 1038 3468.2551020408164 1038 3490.0510204081634 1038 3511.8469387755104 1038 3533.6428571428573 1038 3555.4387755102043 1038 3577.234693877551 1038 3599.030612244898 1038 3620.826530612245 1038 3642.622448979592 1038 3664.418367346939 1038 3686.214285714286 1038 3708.0102040816328 1038 3729.8061224489797 1038 3751.6020408163267 1038 3773.3979591836733 1038 3795.1938775510203 1038 3816.9897959183672 1038 3838.785714285714 1038 3860.581632653061 1038 3882.377551020408 1038 3904.173469387755 1038 3925.969387755102 1038 3947.765306122449 1038 3969.5612244897957 1038 3991.357142857143 1038 4013.1530612244896 1038 4034.9489795918366 1038 4056.7448979591836 1038 4078.5408163265306 1038 4100.336734693878 1038 4122.132653061224 1038 4143.928571428572 1038 4165.724489795918 1038 4187.5204081632655 1038 4209.316326530612 1038 4231.1122448979595 1038 4252.908163265306 1038 4274.7040816326535 1038 4296.5 1038 4296.5 533.3846153846155 4274.7040816326535 534.693074367493 4252.908163265306 535.5517505750064 4231.1122448979595 536.4922054689497 4209.316326530612 537.5144390493228 4187.5204081632655 538.3322259136213 4165.724489795918 539.1091234347049 4143.928571428572 540.0086889854332 4122.132653061224 540.4175824175825 4100.336734693878 541.4398159979555 4078.5408163265306 542.7891643240481 4056.7448979591836 543.402504472272 4034.9489795918366 544.5882954255048 4013.1530612244896 545.9785330948122 3991.357142857143 547.6549961666242 3969.5612244897957 548.799897776642 3947.765306122449 549.903910043445 3925.969387755102 550.8443649373883 3904.173469387755 551.7030411449016 3882.377551020408 552.6843853820599 3860.581632653061 553.5839509327882 3838.785714285714 555.0968566317404 3816.9897959183672 555.7510861231792 3795.1938775510203 556.405315614618 3773.3979591836733 557.1822131357015 3751.6020408163267 558.2862254025044 3729.8061224489797 559.4311270125224 3708.0102040816328 560.3306925632508 3686.214285714286 560.9031433682596 3664.418367346939 561.8435982622029 3642.622448979592 563.2338359315104 3620.826530612245 563.8471760797343 3599.030612244898 564.542294914388 3577.234693877551 565.032967032967 3555.4387755102043 565.7689752108357 3533.6428571428573 566.2596473294147 3511.8469387755104 566.5458727319193 3490.0510204081634 567.4863276258625 3468.2551020408164 568.1814464605163 3446.4591836734694 569.7352415026834 3424.6632653061224 570.7574750830565 3402.8673469387754 571.3708152312804 3381.0714285714284 571.9841553795043 3359.2755102040815 572.8837209302326 3337.4795918367345 573.6197291081012 3315.683673469388 574.314847942755 3293.887755102041 575.1735241502683 3272.091836734694 576.481983133146 3250.295918367347 576.8908765652952 3228.5 577.9539994888833 3228.5 1038Z" fill="#e62d39" opacity="0.9" />
		</g>
		<g>
			<path d="M3228.5 577.9539994888833 3250.295918367347 576.8908765652952 3272.091836734694 576.481983133146 3293.887755102041 575.1735241502683 3315.683673469388 574.314847942755 3337.4795918367345 573.6197291081012 3359.2755102040815 572.8837209302326 3381.0714285714284 571.9841553795043 3402.8673469387754 571.3708152312804 3424.6632653061224 570.7574750830565 3446.4591836734694 569.7352415026834 3468.2551020408164 568.1814464605163 3490.0510204081634 567.4863276258625 3511.8469387755104 566.5458727319193 3533.6428571428573 566.2596473294147 3555.4387755102043 565.7689752108357 3577.234693877551 565.032967032967 3599.030612244898 564.542294914388 3620.826530612245 563.8471760797343 3642.622448979592 563.2338359315104 3664.418367346939 561.8435982622029 3686.214285714286 560.9031433682596 3708.0102040816328 560.3306925632508 3729.8061224489797 559.4311270125224 3751.6020408163267 558.2862254025044 3773.3979591836733 557.1822131357015 3795.1938775510203 556.405315614618 3816.9897959183672 555.7510861231792 3838.785714285714 555.0968566317404 3860.581632653061 553.5839509327882 3882.377551020408 552.6843853820599 3904.173469387755 551.7030411449016 3925.969387755102 550.8443649373883 3947.765306122449 549.903910043445 3969.5612244897957 548.799897776642 3991.357142857143 547.6549961666242 4013.1530612244896 545.9785330948122 4034.9489795918366 544.5882954255048 4056.7448979591836 543.402504472272 4078.5408163265306 542.7891643240481 4100.336734693878 541.4398159979555 4122.132653061224 540.4175824175825 4143.928571428572 540.0086889854332 4165.724489795918 539.1091234347049 4187.5204081632655 538.3322259136213 4209.316326530612 537.5144390493228 4231.1122448979595 536.4922054689497 4252.908163265306 535.5517505750064 4274.7040816326535 534.693074367493 4296.5 533.3846153846155 4296.5 398.0000000000001 4274.7040816326535 399.39023766930745 4252.908163265306 400.4533605928955 4231.1122448979595 401.47559417326863 4209.316326530612 402.8658318425761 4187.5204081632655 403.7653973933044 4165.724489795918 404.78763097367755 4143.928571428572 405.8098645540506 4122.132653061224 406.50498338870443 4100.336734693878 407.8543317147968 4078.5408163265306 409.40812675696407 4056.7448979591836 410.14413493483266 4034.9489795918366 411.4525939177103 4013.1530612244896 412.96549961666244 3991.357142857143 415.2144134934834 3969.5612244897957 416.5637618195758 3947.765306122449 417.9131101456683 3925.969387755102 419.01712241247134 3904.173469387755 419.99846664962945 3882.377551020408 421.1842576028623 3860.581632653061 422.24738052645034 3838.785714285714 423.9647329414771 3816.9897959183672 424.82340914899066 3795.1938775510203 425.5594173268592 3773.3979591836733 426.4589828775876 3751.6020408163267 427.8901098901099 3729.8061224489797 429.1576795297726 3708.0102040816328 430.1799131101457 3686.214285714286 430.9976999744441 3664.418367346939 432.183490927677 3642.622448979592 433.73728596984415 3620.826530612245 434.51418349092773 3599.030612244898 435.45463838487103 3577.234693877551 436.14975721952464 3555.4387755102043 437.00843342703814 3533.6428571428573 437.5399948888321 3511.8469387755104 437.82622029133665 3490.0510204081634 438.93023255813955 3468.2551020408164 439.829798108868 3446.4591836734694 441.66981855353947 3424.6632653061224 442.9373881932022 3402.8673469387754 443.7551750575007 3381.0714285714284 445.10452338359323 3359.2755102040815 446.20853565039613 3337.4795918367345 447.10810120112444 3315.683673469388 447.966777408638 3293.887755102041 448.9481216457961 3272.091836734694 450.3792486583185 3250.295918367347 450.95169946332743 3228.5 452.30104778941995 3228.5 577.9539994888833Z" fill="#005aa6" opacity="0.9" />
		</g>
		<g>
			<rect x="4372" y="431" width="22.9995" height="23" fill="#e62d39" />
		</g>
		<g>
			<text fill="#595959" font-family="Verdana,Open Sans,DejaVu Sans,sans-serif" font-weight="400" font-size="41" transform="matrix(1 0 0 1 4404.56 454)">Web Browser</text>
		</g>
		<g>
			<rect x="4372" y="508" width="22.9995" height="23" fill="#005aa6" />
		</g>
		<g>
			<text fill="#595959" font-family="Verdana,Open Sans,DejaVu Sans,sans-serif" font-weight="400" font-size="41" transform="matrix(1 0 0 1 4404.56 531)">App</text>
		</g>
	</g>
</svg>
