<svg width="1763" height="1046"
    xmlns="http://www.w3.org/2000/svg"
	xmlns:xlink="http://www.w3.org/1999/xlink" xml:space="preserve" overflow="hidden">
	<defs>
		<clipPath id="clip0">
			<rect x="2917" y="346" width="1763" height="1046"/>
		</clipPath>
	</defs>
	<g clip-path="url(#clip0)" transform="translate(-2917 -346)">
		<rect x="2918" y="347" width="1760" height="1043" fill="#FFFFFF" />
		<g>
			<path d="
			M3228.5 974.532 4296.5 974.532
			M3228.5 910.53 4296.5 910.53
			M3228.5 846.528 4296.5 846.528
			M3228.5 781.526 4296.5 781.526
			M3228.5 717.524 4296.5 717.524
			M3228.5 653.522 4296.5 653.522
			M3228.5 589.52 4296.5 589.52
			M3228.5 525.517 4296.5 525.517
			M3228.5 461.515 4296.5 461.515
			M3228.5 397.5 4296.5 397.5" stroke="#D9D9D9" stroke-width="3.4375" stroke-linejoin="round" stroke-miterlimit="10" fill="none" />
		</g>
		<g>
			<path d="M 1038.5 4296.5 1038.5" stroke="#D9D9D9" stroke-width="3.4375" stroke-linejoin="round" stroke-miterlimit="10" fill="none" fill-rule="evenodd" />
		</g>
		<g>
			<text fill="#595959" font-family="Verdana,Open Sans,DejaVu Sans,sans-serif" font-weight="400" font-size="41" transform="matrix(6.12323e-17 -1 1 6.12323e-17 3244.275390625 1203.0419921875)">03-Feb</text>
		</g>
		<g>
			<text fill="#595959" font-family="Verdana,Open Sans,DejaVu Sans,sans-serif" font-weight="400" font-size="41" transform="matrix(6.12323e-17 -1 1 6.12323e-17 3329.004697265625 1212.0107421875)">03-Mar</text>
		</g>
		<g>
			<text fill="#595959" font-family="Verdana,Open Sans,DejaVu Sans,sans-serif" font-weight="400" font-size="41" transform="matrix(6.12323e-17 -1 1 6.12323e-17 3414.424677734375 1212.1708984375)">31-Mar</text>
		</g>
		<g>
			<text fill="#595959" font-family="Verdana,Open Sans,DejaVu Sans,sans-serif" font-weight="400" font-size="41" transform="matrix(6.12323e-17 -1 1 6.12323e-17 3504.589287109375 1203.3022384643555)">28-Apr</text>
		</g>
		<g>
			<text fill="#595959" font-family="Verdana,Open Sans,DejaVu Sans,sans-serif" font-weight="400" font-size="41" transform="matrix(6.12323e-17 -1 1 6.12323e-17 3590.029287109375 1216.51513671875)">26-May</text>
		</g>
		<g>
			<text fill="#595959" font-family="Verdana,Open Sans,DejaVu Sans,sans-serif" font-weight="400" font-size="41" transform="matrix(6.12323e-17 -1 1 6.12323e-17 3674.41826171875 1194.1733322143555)">30-Jun</text>
		</g>
		<g>
			<text fill="#595959" font-family="Verdana,Open Sans,DejaVu Sans,sans-serif" font-weight="400" font-size="41" transform="matrix(6.12323e-17 -1 1 6.12323e-17 3760.568955078125 1179.0385665893555)">28-Jul</text>
		</g>
		<g>
			<text fill="#595959" font-family="Verdana,Open Sans,DejaVu Sans,sans-serif" font-weight="400" font-size="41" transform="matrix(6.12323e-17 -1 1 6.12323e-17 3846.349287109375 1208.66748046875)">25-Aug</text>
		</g>
		<g>
			<text fill="#595959" font-family="Verdana,Open Sans,DejaVu Sans,sans-serif" font-weight="400" font-size="41" transform="matrix(6.12323e-17 -1 1 6.12323e-17 3931.789287109375 1204.42333984375)">22-Sep</text>
		</g>
		<g>
			<text fill="#595959" font-family="Verdana,Open Sans,DejaVu Sans,sans-serif" font-weight="400" font-size="41" transform="matrix(6.12323e-17 -1 1 6.12323e-17 4012.524697265625 1201.1401290893555)">20-Oct</text>
		</g>
		<g>
			<text fill="#595959" font-family="Verdana,Open Sans,DejaVu Sans,sans-serif" font-weight="400" font-size="41" transform="matrix(6.12323e-17 -1 1 6.12323e-17 4097.73447265625 1209.70849609375)">17-Nov</text>
		</g>
		<g>
			<text fill="#595959" font-family="Verdana,Open Sans,DejaVu Sans,sans-serif" font-weight="400" font-size="41" transform="matrix(6.12323e-17 -1 1 6.12323e-17 4183.17447265625 1205.3642578125)">15-Dec</text>
		</g>
		<g>
			<text fill="#595959" font-family="Verdana,Open Sans,DejaVu Sans,sans-serif" font-weight="400" font-size="41" transform="matrix(6.12323e-17 -1 1 6.12323e-17 4272.4782421875 1189.9291915893555)">12-Jan</text>
		</g>
		<g>
			<text fill="#595959" font-family="Verdana,Open Sans,DejaVu Sans,sans-serif" font-weight="400" font-size="41" transform="matrix(1 0 0 1 3169.14111328125 1050)">0</text>
		</g>
		<g>
			<text fill="#595959" font-family="Verdana,Open Sans,DejaVu Sans,sans-serif" font-weight="400" font-size="41" transform="matrix(1 0 0 1 3088.7626953125 922)">3,232</text>
		</g>
		<g>
			<text fill="#595959" font-family="Verdana,Open Sans,DejaVu Sans,sans-serif" font-weight="400" font-size="41" transform="matrix(1 0 0 1 3087.841796875 794)">6,464</text>
		</g>
		<g>
			<text fill="#595959" font-family="Verdana,Open Sans,DejaVu Sans,sans-serif" font-weight="400" font-size="41" transform="matrix(1 0 0 1 3089.1630859375 666)">9,695</text>
		</g>
		<g>
			<text fill="#595959" font-family="Verdana,Open Sans,DejaVu Sans,sans-serif" font-weight="400" font-size="41" transform="matrix(1 0 0 1 3067.0815505981445 538)">12,927</text>
		</g>
		<g>
			<text fill="#595959" font-family="Verdana,Open Sans,DejaVu Sans,sans-serif" font-weight="400" font-size="41" transform="matrix(1 0 0 1 3067.2016677856445 410)">16,159</text>
		</g>
		<g>
			<text fill="#595959" font-family="Verdana,Open Sans,DejaVu Sans,sans-serif" font-weight="400" font-size="41" transform="matrix(1 0 0 1 3556.97119140625 1321)">Week Commencing</text>
		</g>
		<g>
			<text fill="#595959" font-family="Verdana,Open Sans,DejaVu Sans,sans-serif" font-weight="400" font-size="46" transform="matrix(6.12323e-17 -1 1 6.12323e-17 3019.73 1011.673828125)">Number of Browser Profiles</text>
		</g>
		<rect x="2918.5" y="347.5" width="1760" height="1043" stroke="#D9D9D9" stroke-width="3.4375" stroke-linejoin="round" stroke-miterlimit="10" fill="none" />
		<g>
			<path d="M3228.5 1038 3249.86 1038 3271.22 1038 3292.58 1038 3313.94 1038 3335.3 1038 3356.66 1038 3378.02 1038 3399.38 1038 3420.74 1038 3442.1 1038 3463.46 1038 3484.82 1038 3506.18 1038 3527.54 1038 3548.9 1038 3570.26 1038 3591.62 1038 3612.98 1038 3634.34 1038 3655.7 1038 3677.06 1038 3698.42 1038 3719.7799999999997 1038 3741.14 1038 3762.5 1038 3783.86 1038 3805.2200000000003 1038 3826.58 1038 3847.94 1038 3869.3 1038 3890.66 1038 3912.02 1038 3933.38 1038 3954.74 1038 3976.1 1038 3997.46 1038 4018.8199999999997 1038 4040.18 1038 4061.54 1038 4082.9 1038 4104.26 1038 4125.62 1038 4146.98 1038 4168.34 1038 4189.7 1038 4211.0599999999995 1038 4232.42 1038 4253.78 1038 4275.139999999999 1038 4296.5 1038 4296.5 532.3449470883099 4275.139999999999 533.0974689027787 4253.78 533.929203539823 4232.42 534.0876291849743 4211.0599999999995 534.5629061204284 4189.7 535.1173958784578 4168.34 536.1471625719414 4146.98 537.4145677331519 4125.62 539.0780370072406 4104.26 539.3948882975433 4082.9 540.5038678136024 4061.54 541.1375703942076 4040.18 542.6030076118573 4018.8199999999997 543.1971037811746 3997.46 544.5437217649608 3976.1 544.6625409988242 3954.74 545.5338820471563 3933.38 546.5636487406399 3912.02 547.8706603131382 3890.66 548.583575716319 3869.3 549.2172782969244 3847.94 550.4846834581349 3826.58 551.3164180951792 3805.2200000000003 552.2273655547992 3783.86 553.2175258369948 3762.5 554.0096540627515 3741.14 554.7621758772202 3719.7799999999997 555.6335169255524 3698.42 556.0295810384307 3677.06 557.0197413206263 3655.7 558.3267528931246 3634.34 558.920849062442 3612.98 560.069434989789 3591.62 561.4160529735751 3570.26 563.039915836376 3548.9 564.1488953524351 3527.54 565.2182684572065 3506.18 566.1292159168265 3484.82 566.9609505538709 3463.46 567.9115044247787 3442.1 568.7828454731109 3420.74 570.2482826907606 3399.38 570.8819852713658 3378.02 571.515687851971 3356.66 572.2682096664398 3335.3 573.3375827712111 3313.94 574.4465622872704 3292.58 575.3179033356025 3271.22 575.8723930936321 3249.86 576.7833405532521 3228.5 578.1299585370382 3228.5 1038Z" fill="#005aa6" opacity="0.9" />
		</g>
		<g>
			<path d="M3228.5 578.1299585370382 3249.86 576.7833405532521 3271.22 575.8723930936321 3292.58 575.3179033356025 3313.94 574.4465622872704 3335.3 573.3375827712111 3356.66 572.2682096664398 3378.02 571.515687851971 3399.38 570.8819852713658 3420.74 570.2482826907606 3442.1 568.7828454731109 3463.46 567.9115044247787 3484.82 566.9609505538709 3506.18 566.1292159168265 3527.54 565.2182684572065 3548.9 564.1488953524351 3570.26 563.039915836376 3591.62 561.4160529735751 3612.98 560.069434989789 3634.34 558.920849062442 3655.7 558.3267528931246 3677.06 557.0197413206263 3698.42 556.0295810384307 3719.7799999999997 555.6335169255524 3741.14 554.7621758772202 3762.5 554.0096540627515 3783.86 553.2175258369948 3805.2200000000003 552.2273655547992 3826.58 551.3164180951792 3847.94 550.4846834581349 3869.3 549.2172782969244 3890.66 548.583575716319 3912.02 547.8706603131382 3933.38 546.5636487406399 3954.74 545.5338820471563 3976.1 544.6625409988242 3997.46 544.5437217649608 4018.8199999999997 543.1971037811746 4040.18 542.6030076118573 4061.54 541.1375703942076 4082.9 540.5038678136024 4104.26 539.3948882975433 4125.62 539.0780370072406 4146.98 537.4145677331519 4168.34 536.1471625719414 4189.7 535.1173958784578 4211.0599999999995 534.5629061204284 4232.42 534.0876291849743 4253.78 533.929203539823 4275.139999999999 533.0974689027787 4296.5 532.3449470883099 4296.5 398 4275.139999999999 398.8317346370444 4253.78 399.82189491924004 4232.42 400.01992697567914 4211.0599999999995 400.57441673370886 4189.7 401.12890649173835 4168.34 402.4755244755246 4146.98 403.980568104462 4125.62 405.84206943498987 4104.26 406.43616560430735 4082.9 407.78278358809337 4061.54 408.53530540256213 4040.18 410.15916826536306 4018.8199999999997 410.9512964911196 3997.46 412.456340120057 3976.1 412.61476576520823 3954.74 413.7633516925552 3933.38 414.91193761990223 3912.02 416.41698124883965 3890.66 417.2883222971718 3869.3 418.08045052292846 3847.94 419.42706850671465 3826.58 420.45683520019804 3805.2200000000003 421.44699548239373 3783.86 422.79361346617975 3762.5 423.6649545145121 3741.14 424.65511479670784 3719.7799999999997 425.64527507890347 3698.42 426.3185840707966 3677.06 427.6255956432948 3655.7 429.1306392722323 3634.34 429.8435546754131 3612.98 431.1109598366236 3591.62 432.57639705427323 3570.26 434.7547496751037 3548.9 436.0617612476019 3527.54 437.3687728201002 3506.18 438.4381459248716 3484.82 439.3886997957795 3463.46 440.5372857231264 3442.1 441.5670524166099 3420.74 443.23052169069865 3399.38 444.06225632774306 3378.02 444.77517173092394 3356.66 445.6465127792562 3335.3 447.0327371743302 3313.94 448.26053592425285 3292.58 449.2506962064485 3271.22 450.04282443220507 3249.86 451.191410359552 3228.5 452.6964539884894 3228.5 578.1299585370382Z" fill="#e62d39" opacity="0.9" />
		</g>
		<g>
			<rect x="4372" y="431" width="22.9995" height="23" fill="#005aa6" />
		</g>
		<g>
			<text fill="#595959" font-family="Verdana,Open Sans,DejaVu Sans,sans-serif" font-weight="400" font-size="41" transform="matrix(1 0 0 1 4404.56 454)">Web Browser</text>
		</g>
		<g>
			<rect x="4372" y="508" width="22.9995" height="23" fill="#e62d39" />
		</g>
		<g>
			<text fill="#595959" font-family="Verdana,Open Sans,DejaVu Sans,sans-serif" font-weight="400" font-size="41" transform="matrix(1 0 0 1 4404.56 531)">App</text>
		</g>
	</g>
</svg>
