<svg width="1763" height="1046"
    xmlns="http://www.w3.org/2000/svg"
	xmlns:xlink="http://www.w3.org/1999/xlink" xml:space="preserve" overflow="hidden">
	<defs>
		<clipPath id="clip0">
			<rect x="2917" y="346" width="1763" height="1046"/>
		</clipPath>
	</defs>
	<g clip-path="url(#clip0)" transform="translate(-2917 -346)">
		<rect x="2918" y="347" width="1760" height="1043" fill="#FFFFFF" />
		<g>
			<path d="
			M3228.5 974.532 4296.5 974.532
			M3228.5 910.53 4296.5 910.53
			M3228.5 846.528 4296.5 846.528
			M3228.5 781.526 4296.5 781.526
			M3228.5 717.524 4296.5 717.524
			M3228.5 653.522 4296.5 653.522
			M3228.5 589.52 4296.5 589.52
			M3228.5 525.517 4296.5 525.517
			M3228.5 461.515 4296.5 461.515
			M3228.5 397.5 4296.5 397.5" stroke="#D9D9D9" stroke-width="3.4375" stroke-linejoin="round" stroke-miterlimit="10" fill="none" />
		</g>
		<g>
			<path d="M 1038.5 4296.5 1038.5" stroke="#D9D9D9" stroke-width="3.4375" stroke-linejoin="round" stroke-miterlimit="10" fill="none" fill-rule="evenodd" />
		</g>
		<g>
			<text fill="#595959" font-family="Verdana,Open Sans,DejaVu Sans,sans-serif" font-weight="400" font-size="41" transform="matrix(6.12323e-17 -1 1 6.12323e-17 3243.544677734375 1207.1259765625)">23-Dec</text>
		</g>
		<g>
			<text fill="#595959" font-family="Verdana,Open Sans,DejaVu Sans,sans-serif" font-weight="400" font-size="41" transform="matrix(6.12323e-17 -1 1 6.12323e-17 3332.65826171875 1191.6909103393555)">20-Jan</text>
		</g>
		<g>
			<text fill="#595959" font-family="Verdana,Open Sans,DejaVu Sans,sans-serif" font-weight="400" font-size="41" transform="matrix(6.12323e-17 -1 1 6.12323e-17 3415.155390625 1201.3203125)">17-Feb</text>
		</g>
		<g>
			<text fill="#595959" font-family="Verdana,Open Sans,DejaVu Sans,sans-serif" font-weight="400" font-size="41" transform="matrix(6.12323e-17 -1 1 6.12323e-17 3499.65447265625 1210.2890625)">17-Mar</text>
		</g>
		<g>
			<text fill="#595959" font-family="Verdana,Open Sans,DejaVu Sans,sans-serif" font-weight="400" font-size="41" transform="matrix(6.12323e-17 -1 1 6.12323e-17 3589.89916015625 1201.5405197143555)">14-Apr</text>
		</g>
		<g>
			<text fill="#595959" font-family="Verdana,Open Sans,DejaVu Sans,sans-serif" font-weight="400" font-size="41" transform="matrix(6.12323e-17 -1 1 6.12323e-17 3675.469287109375 1214.75341796875)">12-May</text>
		</g>
		<g>
			<text fill="#595959" font-family="Verdana,Open Sans,DejaVu Sans,sans-serif" font-weight="400" font-size="41" transform="matrix(6.12323e-17 -1 1 6.12323e-17 3759.8382421875 1192.2914962768555)">16-Jun</text>
		</g>
		<g>
			<text fill="#595959" font-family="Verdana,Open Sans,DejaVu Sans,sans-serif" font-weight="400" font-size="41" transform="matrix(6.12323e-17 -1 1 6.12323e-17 3846.008955078125 1177.2768478393555)">14-Jul</text>
		</g>
		<g>
			<text fill="#595959" font-family="Verdana,Open Sans,DejaVu Sans,sans-serif" font-weight="400" font-size="41" transform="matrix(6.12323e-17 -1 1 6.12323e-17 3931.639140625 1206.90576171875)">11-Aug</text>
		</g>
		<g>
			<text fill="#595959" font-family="Verdana,Open Sans,DejaVu Sans,sans-serif" font-weight="400" font-size="41" transform="matrix(6.12323e-17 -1 1 6.12323e-17 4017.249306640625 1204.38330078125)">08-Sep</text>
		</g>
		<g>
			<text fill="#595959" font-family="Verdana,Open Sans,DejaVu Sans,sans-serif" font-weight="400" font-size="41" transform="matrix(6.12323e-17 -1 1 6.12323e-17 4097.964697265625 1201.1000900268555)">06-Oct</text>
		</g>
		<g>
			<text fill="#595959" font-family="Verdana,Open Sans,DejaVu Sans,sans-serif" font-weight="400" font-size="41" transform="matrix(6.12323e-17 -1 1 6.12323e-17 4183.404697265625 1211.43017578125)">03-Nov</text>
		</g>
		<g>
			<text fill="#595959" font-family="Verdana,Open Sans,DejaVu Sans,sans-serif" font-weight="400" font-size="41" transform="matrix(6.12323e-17 -1 1 6.12323e-17 4268.844697265625 1207.0859375)">01-Dec</text>
		</g>
		<g>
			<text fill="#595959" font-family="Verdana,Open Sans,DejaVu Sans,sans-serif" font-weight="400" font-size="41" transform="matrix(1 0 0 1 3169.14111328125 1050)">0</text>
		</g>
		<g>
			<text fill="#595959" font-family="Verdana,Open Sans,DejaVu Sans,sans-serif" font-weight="400" font-size="41" transform="matrix(1 0 0 1 3088.7626953125 922)">3,209</text>
		</g>
		<g>
			<text fill="#595959" font-family="Verdana,Open Sans,DejaVu Sans,sans-serif" font-weight="400" font-size="41" transform="matrix(1 0 0 1 3089.14306640625 794)">6,418</text>
		</g>
		<g>
			<text fill="#595959" font-family="Verdana,Open Sans,DejaVu Sans,sans-serif" font-weight="400" font-size="41" transform="matrix(1 0 0 1 3088.9228515625 666)">9,628</text>
		</g>
		<g>
			<text fill="#595959" font-family="Verdana,Open Sans,DejaVu Sans,sans-serif" font-weight="400" font-size="41" transform="matrix(1 0 0 1 3067.0815505981445 538)">12,837</text>
		</g>
		<g>
			<text fill="#595959" font-family="Verdana,Open Sans,DejaVu Sans,sans-serif" font-weight="400" font-size="41" transform="matrix(1 0 0 1 3067.0014724731445 410)">16,046</text>
		</g>
		<g>
			<text fill="#595959" font-family="Verdana,Open Sans,DejaVu Sans,sans-serif" font-weight="400" font-size="41" transform="matrix(1 0 0 1 3556.97119140625 1321)">Week Commencing</text>
		</g>
		<g>
			<text fill="#595959" font-family="Verdana,Open Sans,DejaVu Sans,sans-serif" font-weight="400" font-size="46" transform="matrix(6.12323e-17 -1 1 6.12323e-17 3019.73 1011.673828125)">Number of Browser Profiles</text>
		</g>
		<rect x="2918.5" y="347.5" width="1760" height="1043" stroke="#D9D9D9" stroke-width="3.4375" stroke-linejoin="round" stroke-miterlimit="10" fill="none" />
		<g>
			<path d="M3228.5 1038 3249.86 1038 3271.22 1038 3292.58 1038 3313.94 1038 3335.3 1038 3356.66 1038 3378.02 1038 3399.38 1038 3420.74 1038 3442.1 1038 3463.46 1038 3484.82 1038 3506.18 1038 3527.54 1038 3548.9 1038 3570.26 1038 3591.62 1038 3612.98 1038 3634.34 1038 3655.7 1038 3677.06 1038 3698.42 1038 3719.7799999999997 1038 3741.14 1038 3762.5 1038 3783.86 1038 3805.2200000000003 1038 3826.58 1038 3847.94 1038 3869.3 1038 3890.66 1038 3912.02 1038 3933.38 1038 3954.74 1038 3976.1 1038 3997.46 1038 4018.8199999999997 1038 4040.18 1038 4061.54 1038 4082.9 1038 4104.26 1038 4125.62 1038 4146.98 1038 4168.34 1038 4189.7 1038 4211.0599999999995 1038 4232.42 1038 4253.78 1038 4275.139999999999 1038 4296.5 1038 4296.5 532.6129876604762 4275.139999999999 533.8893182101458 4253.78 535.5645020565873 4232.42 535.8835846940046 4211.0599999999995 537.0003739249657 4189.7 537.6385391998006 4168.34 539.1142963978562 4146.98 539.7125763430138 4125.62 541.0686775520378 4104.26 541.1883335410694 4082.9 542.0658107939673 4061.54 543.1028293655739 4040.18 544.4190452449209 4018.8199999999997 545.1369811791101 3997.46 545.7751464539449 3976.1 547.0514770036145 3954.74 547.8890689268353 3933.38 548.8064315094105 3912.02 549.8035647513399 3890.66 550.6012713448833 3869.3 551.3590926087497 3847.94 552.2365698616477 3826.58 552.6354231584195 3805.2200000000003 553.6325564003489 3783.86 554.9487722796958 3762.5 555.5470522248536 3741.14 556.7037267854917 3719.7799999999997 558.0598279945157 3698.42 559.69512651128 3677.06 560.811915742241 3655.7 561.8888196435248 3634.34 562.8061822261 3612.98 563.6437741493207 3591.62 564.601022061573 3570.26 565.4784993144708 3548.9 566.9542565125264 3527.54 567.5924217873612 3506.18 568.2305870621962 3484.82 568.9884083260625 3463.46 570.0653122273463 3442.1 571.1821014583073 3420.74 572.0595787112052 3399.38 572.6179733266857 3378.02 573.5353359092608 3356.66 574.8914371182849 3335.3 575.4897170634426 3313.94 576.1677676679546 3292.58 576.6463916240807 3271.22 577.3643275582699 3249.86 577.8429515143961 3228.5 578.1221488221363 3228.5 1038Z" fill="#005aa6" opacity="0.9" />
		</g>
		<g>
			<path d="M3228.5 578.1221488221363 3249.86 577.8429515143961 3271.22 577.3643275582699 3292.58 576.6463916240807 3313.94 576.1677676679546 3335.3 575.4897170634426 3356.66 574.8914371182849 3378.02 573.5353359092608 3399.38 572.6179733266857 3420.74 572.0595787112052 3442.1 571.1821014583073 3463.46 570.0653122273463 3484.82 568.9884083260625 3506.18 568.2305870621962 3527.54 567.5924217873612 3548.9 566.9542565125264 3570.26 565.4784993144708 3591.62 564.601022061573 3612.98 563.6437741493207 3634.34 562.8061822261 3655.7 561.8888196435248 3677.06 560.811915742241 3698.42 559.69512651128 3719.7799999999997 558.0598279945157 3741.14 556.7037267854917 3762.5 555.5470522248536 3783.86 554.9487722796958 3805.2200000000003 553.6325564003489 3826.58 552.6354231584195 3847.94 552.2365698616477 3869.3 551.3590926087497 3890.66 550.6012713448833 3912.02 549.8035647513399 3933.38 548.8064315094105 3954.74 547.8890689268353 3976.1 547.0514770036145 3997.46 545.7751464539449 4018.8199999999997 545.1369811791101 4040.18 544.4190452449209 4061.54 543.1028293655739 4082.9 542.0658107939673 4104.26 541.1883335410694 4125.62 541.0686775520378 4146.98 539.7125763430138 4168.34 539.1142963978562 4189.7 537.6385391998006 4211.0599999999995 537.0003739249657 4232.42 535.8835846940046 4253.78 535.5645020565873 4275.139999999999 533.8893182101458 4296.5 532.6129876604762 4296.5 398 4275.139999999999 399.5156425277327 4253.78 401.39025302256016 4232.42 401.9885329677177 4211.0599999999995 403.34463417674186 4189.7 404.1024554406082 4168.34 405.73775395737255 4146.98 406.535460550916 4125.62 408.0511030786488 4104.26 408.21064439735756 4082.9 409.36731895799574 4061.54 410.5239935186339 4040.18 412.0396360463667 4018.8199999999997 412.91711329926466 3997.46 413.7148198928081 3976.1 415.07092110183214 3954.74 416.1079396734388 3933.38 417.1050729153683 3912.02 418.4611741243923 3890.66 419.33865137729015 3869.3 420.3357846192196 3847.94 421.3329178611491 3826.58 422.01096846566116 3805.2200000000003 423.327184345008 3783.86 424.84282687274083 3762.5 425.56076280693014 3741.14 426.83709335659967 3719.7799999999997 428.31285055465526 3698.42 430.5065436869001 3677.06 431.822759566247 3655.7 433.1389754455938 3634.34 434.2158793468777 3612.98 435.17312725913 3591.62 436.32980181976814 3570.26 437.3668203913747 3548.9 439.0420042378162 3527.54 439.8795961610369 3506.18 440.59753209522614 3484.82 441.4750093481241 3463.46 442.8709958868253 3442.1 444.1074411068179 3420.74 445.10457434874724 3399.38 445.9022809422909 3378.02 447.05895550292894 3356.66 448.57459803066183 3335.3 449.3324192945283 3313.94 450.2497818771033 3292.58 450.92783248161527 3271.22 451.76542440483604 3249.86 452.2839336906394 3228.5 452.5631309983796 3228.5 578.1221488221363Z" fill="#e62d39" opacity="0.9" />
		</g>
		<g>
			<rect x="4372" y="431" width="22.9995" height="23" fill="#005aa6" />
		</g>
		<g>
			<text fill="#595959" font-family="Verdana,Open Sans,DejaVu Sans,sans-serif" font-weight="400" font-size="41" transform="matrix(1 0 0 1 4404.56 454)">Web Browser</text>
		</g>
		<g>
			<rect x="4372" y="508" width="22.9995" height="23" fill="#e62d39" />
		</g>
		<g>
			<text fill="#595959" font-family="Verdana,Open Sans,DejaVu Sans,sans-serif" font-weight="400" font-size="41" transform="matrix(1 0 0 1 4404.56 531)">App</text>
		</g>
	</g>
</svg>
