<svg width="1763" height="1046"
    xmlns="http://www.w3.org/2000/svg"
	xmlns:xlink="http://www.w3.org/1999/xlink" xml:space="preserve" overflow="hidden">
	<defs>
		<clipPath id="clip0">
			<rect x="2917" y="346" width="1763" height="1046"/>
		</clipPath>
	</defs>
	<g clip-path="url(#clip0)" transform="translate(-2917 -346)">
		<rect x="2918" y="347" width="1760" height="1043" fill="#FFFFFF" />
		<g>
			<path d="
			M3228.5 974.532 4296.5 974.532
			M3228.5 910.53 4296.5 910.53
			M3228.5 846.528 4296.5 846.528
			M3228.5 781.526 4296.5 781.526
			M3228.5 717.524 4296.5 717.524
			M3228.5 653.522 4296.5 653.522
			M3228.5 589.52 4296.5 589.52
			M3228.5 525.517 4296.5 525.517
			M3228.5 461.515 4296.5 461.515
			M3228.5 397.5 4296.5 397.5" stroke="#D9D9D9" stroke-width="3.4375" stroke-linejoin="round" stroke-miterlimit="10" fill="none" />
		</g>
		<g>
			<path d="M 1038.5 4296.5 1038.5" stroke="#D9D9D9" stroke-width="3.4375" stroke-linejoin="round" stroke-miterlimit="10" fill="none" fill-rule="evenodd" />
		</g>
		<g>
			<text fill="#595959" font-family="Verdana,sans-serif" font-weight="400" font-size="41" transform="matrix(6.12323e-17 -1 1 6.12323e-17 3248 1216)">22-Apr</text>
		</g>
		<g>
			<text fill="#595959" font-family="Verdana,sans-serif" font-weight="400" font-size="41" transform="matrix(6.12323e-17 -1 1 6.12323e-17 3331.764705882353 1228)">20-May</text>
		</g>
		<g>
			<text fill="#595959" font-family="Verdana,sans-serif" font-weight="400" font-size="41" transform="matrix(6.12323e-17 -1 1 6.12323e-17 3411.529411764706 1209)">17-Jun</text>
		</g>
		<g>
			<text fill="#595959" font-family="Verdana,sans-serif" font-weight="400" font-size="41" transform="matrix(6.12323e-17 -1 1 6.12323e-17 3495.794117647059 1194)">15-Jul</text>
		</g>
		<g>
			<text fill="#595959" font-family="Verdana,sans-serif" font-weight="400" font-size="41" transform="matrix(6.12323e-17 -1 1 6.12323e-17 3583.0588235294117 1218)">12-Aug</text>
		</g>
		<g>
			<text fill="#595959" font-family="Verdana,sans-serif" font-weight="400" font-size="41" transform="matrix(6.12323e-17 -1 1 6.12323e-17 3666.823529411765 1222)">09-Sep</text>
		</g>
		<g>
			<text fill="#595959" font-family="Verdana,sans-serif" font-weight="400" font-size="41" transform="matrix(6.12323e-17 -1 1 6.12323e-17 3747.0882352941176 1215)">07-Oct</text>
		</g>
		<g>
			<text fill="#595959" font-family="Verdana,sans-serif" font-weight="400" font-size="41" transform="matrix(6.12323e-17 -1 1 6.12323e-17 3830.8529411764707 1225)">04-Nov</text>
		</g>
		<g>
			<text fill="#595959" font-family="Verdana,sans-serif" font-weight="400" font-size="41" transform="matrix(6.12323e-17 -1 1 6.12323e-17 3914.6176470588234 1223)">09-Dec</text>
		</g>
		<g>
			<text fill="#595959" font-family="Verdana,sans-serif" font-weight="400" font-size="41" transform="matrix(6.12323e-17 -1 1 6.12323e-17 3998.3823529411766 1210)">06-Jan</text>
		</g>
		<g>
			<text fill="#595959" font-family="Verdana,sans-serif" font-weight="400" font-size="41" transform="matrix(6.12323e-17 -1 1 6.12323e-17 4082.1470588235293 1217)">03-Feb</text>
		</g>
		<g>
			<text fill="#595959" font-family="Verdana,sans-serif" font-weight="400" font-size="41" transform="matrix(6.12323e-17 -1 1 6.12323e-17 4165.911764705882 1223)">03-Mar</text>
		</g>
		<g>
			<text fill="#595959" font-family="Verdana,sans-serif" font-weight="400" font-size="41" transform="matrix(6.12323e-17 -1 1 6.12323e-17 4249.676470588235 1223)">31-Mar</text>
		</g>
		<g>
			<text fill="#595959" font-family="Verdana,sans-serif" font-weight="400" font-size="41" transform="matrix(1 0 0 1 3167.5 1050)">0</text>
		</g>
		<g>
			<text fill="#595959" font-family="Verdana,sans-serif" font-weight="400" font-size="41" transform="matrix(1 0 0 1 3074.5 922)">3,017</text>
		</g>
		<g>
			<text fill="#595959" font-family="Verdana,sans-serif" font-weight="400" font-size="41" transform="matrix(1 0 0 1 3073.5 794)">6,034</text>
		</g>
		<g>
			<text fill="#595959" font-family="Verdana,sans-serif" font-weight="400" font-size="41" transform="matrix(1 0 0 1 3075.5 666)">9,051</text>
		</g>
		<g>
			<text fill="#595959" font-family="Verdana,sans-serif" font-weight="400" font-size="41" transform="matrix(1 0 0 1 3050.5 538)">12,068</text>
		</g>
		<g>
			<text fill="#595959" font-family="Verdana,sans-serif" font-weight="400" font-size="41" transform="matrix(1 0 0 1 3051.5 410)">15,085</text>
		</g>
		<g>
			<text fill="#595959" font-family="Verdana,sans-serif" font-weight="400" font-size="41" transform="matrix(1 0 0 1 3544.5 1321)">Week Commencing</text>
		</g>
		<g>
			<text fill="#595959" font-family="Verdana,sans-serif" font-weight="400" font-size="46" transform="matrix(6.12323e-17 -1 1 6.12323e-17 3019.73 1030.75)">Number of Browser Profiles</text>
		</g>
		<rect x="2918.5" y="347.5" width="1760" height="1043" stroke="#D9D9D9" stroke-width="3.4375" stroke-linejoin="round" stroke-miterlimit="10" fill="none" />
		<g>
			<path d="M3228.5 1038 3249.4411764705883 1038 3270.3823529411766 1038 3291.323529411765 1038 3312.264705882353 1038 3333.205882352941 1038 3354.1470588235293 1038 3375.0882352941176 1038 3396.029411764706 1038 3416.970588235294 1038 3437.9117647058824 1038 3458.8529411764707 1038 3479.794117647059 1038 3500.735294117647 1038 3521.676470588235 1038 3542.6176470588234 1038 3563.5588235294117 1038 3584.5 1038 3605.4411764705883 1038 3626.3823529411766 1038 3647.323529411765 1038 3668.264705882353 1038 3689.205882352941 1038 3710.1470588235293 1038 3731.0882352941176 1038 3752.029411764706 1038 3772.970588235294 1038 3793.9117647058824 1038 3814.8529411764707 1038 3835.7941176470586 1038 3856.735294117647 1038 3877.676470588235 1038 3898.6176470588234 1038 3919.5588235294117 1038 3940.5 1038 3961.4411764705883 1038 3982.3823529411766 1038 4003.323529411765 1038 4024.264705882353 1038 4045.2058823529414 1038 4066.1470588235293 1038 4087.0882352941176 1038 4108.029411764706 1038 4128.970588235294 1038 4149.911764705882 1038 4170.85294117647 1038 4191.794117647059 1038 4212.735294117647 1038 4233.676470588235 1038 4254.617647058823 1038 4275.558823529412 1038 4296.5 1038 4296.5 534.4428239973483 4275.558823529412 535.3762015246934 4254.617647058823 536.9459728206828 4233.676470588235 537.6247928405701 4212.735294117647 538.3036128604574 4191.794117647059 539.1097116340736 4170.85294117647 540.2552204176334 4149.911764705882 541.4431554524363 4128.970588235294 542.3765329797812 4108.029411764706 542.9705004971827 4087.0882352941176 543.9463042757707 4066.1470588235293 545.3887968180312 4045.2058823529414 546.0251905866755 4024.264705882353 546.7464368578057 4003.323529411765 547.2555518727213 3982.3823529411766 548.0192243950945 3961.4411764705883 548.52833941001 3940.5 548.8253231687106 3919.5588235294117 549.8011269472986 3898.6176470588234 550.5223732184289 3877.676470588235 552.1345707656612 3856.735294117647 553.1952270467352 3835.7941176470586 553.8316208153796 3814.8529411764707 554.4680145840239 3793.9117647058824 555.401392111369 3772.970588235294 556.1650646337421 3752.029411764706 556.8863109048724 3731.0882352941176 557.7772621809745 3710.1470588235293 559.1349022207492 3689.205882352941 559.5591647331787 3668.264705882353 560.6622472654956 3647.323529411765 561.5956247928407 3626.3823529411766 562.2320185614849 3605.4411764705883 563.16539608883 3584.5 563.7169373549884 3563.5588235294117 564.3109048723898 3542.6176470588234 565.2442823997349 3521.676470588235 566.0503811733511 3500.735294117647 566.8140536957243 3479.794117647059 567.3655949618827 3458.8529411764707 567.7898574743123 3437.9117647058824 568.2141199867418 3416.970588235294 569.2323500165728 3396.029411764706 569.953596287703 3375.0882352941176 570.6748425588332 3354.1470588235293 571.7779250911501 3333.205882352941 572.8385813722241 3312.264705882353 573.8143851508121 3291.323529411765 574.2810739144846 3270.3823529411766 574.8326151806431 3249.4411764705883 575.5114352005303 3228.5 576.784222737819 3228.5 1038Z" fill="#e62d39" opacity="0.9" />
		</g>
		<g>
			<path d="M3228.5 576.784222737819 3249.4411764705883 575.5114352005303 3270.3823529411766 574.8326151806431 3291.323529411765 574.2810739144846 3312.264705882353 573.8143851508121 3333.205882352941 572.8385813722241 3354.1470588235293 571.7779250911501 3375.0882352941176 570.6748425588332 3396.029411764706 569.953596287703 3416.970588235294 569.2323500165728 3437.9117647058824 568.2141199867418 3458.8529411764707 567.7898574743123 3479.794117647059 567.3655949618827 3500.735294117647 566.8140536957243 3521.676470588235 566.0503811733511 3542.6176470588234 565.2442823997349 3563.5588235294117 564.3109048723898 3584.5 563.7169373549884 3605.4411764705883 563.16539608883 3626.3823529411766 562.2320185614849 3647.323529411765 561.5956247928407 3668.264705882353 560.6622472654956 3689.205882352941 559.5591647331787 3710.1470588235293 559.1349022207492 3731.0882352941176 557.7772621809745 3752.029411764706 556.8863109048724 3772.970588235294 556.1650646337421 3793.9117647058824 555.401392111369 3814.8529411764707 554.4680145840239 3835.7941176470586 553.8316208153796 3856.735294117647 553.1952270467352 3877.676470588235 552.1345707656612 3898.6176470588234 550.5223732184289 3919.5588235294117 549.8011269472986 3940.5 548.8253231687106 3961.4411764705883 548.52833941001 3982.3823529411766 548.0192243950945 4003.323529411765 547.2555518727213 4024.264705882353 546.7464368578057 4045.2058823529414 546.0251905866755 4066.1470588235293 545.3887968180312 4087.0882352941176 543.9463042757707 4108.029411764706 542.9705004971827 4128.970588235294 542.3765329797812 4149.911764705882 541.4431554524363 4170.85294117647 540.2552204176334 4191.794117647059 539.1097116340736 4212.735294117647 538.3036128604574 4233.676470588235 537.6247928405701 4254.617647058823 536.9459728206828 4275.558823529412 535.3762015246934 4296.5 534.4428239973483 4296.5 398 4275.558823529412 399.10308253231693 4254.617647058823 400.884985084521 4233.676470588235 401.7759363606231 4212.735294117647 402.5396088829964 4191.794117647059 403.47298641034143 4170.85294117647 404.95790520384486 4149.911764705882 406.27311899237657 4128.970588235294 407.33377527345044 4108.029411764706 408.18230029830966 4087.0882352941176 409.41266158435536 4066.1470588235293 411.02485913158773 4045.2058823529414 411.8309579052039 4024.264705882353 412.8067616837918 4003.323529411765 413.52800795492215 3982.3823529411766 414.41895923102425 3961.4411764705883 414.9705004971827 3940.5 415.26748425588335 3919.5588235294117 416.4129930394431 3898.6176470588234 417.3463705667882 3877.676470588235 419.25555187272124 3856.735294117647 420.57076566125295 3835.7941176470586 421.41929068611205 3814.8529411764707 422.8193569771296 3793.9117647058824 423.96486576068946 3772.970588235294 424.89824328803445 3752.029411764706 425.78919456413655 3731.0882352941176 426.80742459396754 3710.1470588235293 428.2923433874711 3689.205882352941 428.88631090487246 3668.264705882353 430.28637719589005 3647.323529411765 431.43188597944993 3626.3823529411766 432.2379847530659 3605.4411764705883 433.3834935366258 3584.5 434.0198873052702 3563.5588235294117 434.9108385813722 3542.6176470588234 435.9290686112032 3521.676470588235 436.90487238979125 3500.735294117647 437.7958236658933 3479.794117647059 438.34736493205173 3458.8529411764707 438.8564799469672 3437.9117647058824 439.5777262180975 3416.970588235294 440.76566125290026 3396.029411764706 441.65661252900236 3375.0882352941176 442.58999005634735 3354.1470588235293 443.9900563473649 3333.205882352941 445.26284388465365 3312.264705882353 446.3659264169705 3291.323529411765 447.0023201856149 3270.3823529411766 447.68114020550223 3249.4411764705883 448.4872389791183 3228.5 449.9721577726218 3228.5 576.784222737819Z" fill="#005aa6" opacity="0.9" />
		</g>
		<g>
			<rect x="4372" y="431" width="22.9995" height="23" fill="#e62d39" />
		</g>
		<g>
			<text fill="#595959" font-family="Verdana,sans-serif" font-weight="400" font-size="41" transform="matrix(1 0 0 1 4404.56 454)">Web Browser</text>
		</g>
		<g>
			<rect x="4372" y="508" width="22.9995" height="23" fill="#005aa6" />
		</g>
		<g>
			<text fill="#595959" font-family="Verdana,sans-serif" font-weight="400" font-size="41" transform="matrix(1 0 0 1 4404.56 531)">App</text>
		</g>
	</g>
</svg>
