<svg width="1763" height="1046"
    xmlns="http://www.w3.org/2000/svg"
	xmlns:xlink="http://www.w3.org/1999/xlink" xml:space="preserve" overflow="hidden">
	<defs>
		<clipPath id="clip0">
			<rect x="2917" y="346" width="1763" height="1046"/>
		</clipPath>
	</defs>
	<g clip-path="url(#clip0)" transform="translate(-2917 -346)">
		<rect x="2918" y="347" width="1760" height="1043" fill="#FFFFFF" />
		<g>
			<path d="
			M3228.5 974.532 4296.5 974.532
			M3228.5 910.53 4296.5 910.53
			M3228.5 846.528 4296.5 846.528
			M3228.5 781.526 4296.5 781.526
			M3228.5 717.524 4296.5 717.524
			M3228.5 653.522 4296.5 653.522
			M3228.5 589.52 4296.5 589.52
			M3228.5 525.517 4296.5 525.517
			M3228.5 461.515 4296.5 461.515
			M3228.5 397.5 4296.5 397.5" stroke="#D9D9D9" stroke-width="3.4375" stroke-linejoin="round" stroke-miterlimit="10" fill="none" />
		</g>
		<g>
			<path d="M 1038.5 4296.5 1038.5" stroke="#D9D9D9" stroke-width="3.4375" stroke-linejoin="round" stroke-miterlimit="10" fill="none" fill-rule="evenodd" />
		</g>
		<g>
			<text fill="#595959" font-family="Verdana,sans-serif" font-weight="400" font-size="41" transform="matrix(6.12323e-17 -1 1 6.12323e-17 3244.5 1216)">26-Feb</text>
		</g>
		<g>
			<text fill="#595959" font-family="Verdana,sans-serif" font-weight="400" font-size="41" transform="matrix(6.12323e-17 -1 1 6.12323e-17 3328.264705882353 1223)">25-Mar</text>
		</g>
		<g>
			<text fill="#595959" font-family="Verdana,sans-serif" font-weight="400" font-size="41" transform="matrix(6.12323e-17 -1 1 6.12323e-17 3415.529411764706 1216)">22-Apr</text>
		</g>
		<g>
			<text fill="#595959" font-family="Verdana,sans-serif" font-weight="400" font-size="41" transform="matrix(6.12323e-17 -1 1 6.12323e-17 3499.294117647059 1228)">20-May</text>
		</g>
		<g>
			<text fill="#595959" font-family="Verdana,sans-serif" font-weight="400" font-size="41" transform="matrix(6.12323e-17 -1 1 6.12323e-17 3579.0588235294117 1209)">17-Jun</text>
		</g>
		<g>
			<text fill="#595959" font-family="Verdana,sans-serif" font-weight="400" font-size="41" transform="matrix(6.12323e-17 -1 1 6.12323e-17 3663.323529411765 1194)">15-Jul</text>
		</g>
		<g>
			<text fill="#595959" font-family="Verdana,sans-serif" font-weight="400" font-size="41" transform="matrix(6.12323e-17 -1 1 6.12323e-17 3750.5882352941176 1218)">12-Aug</text>
		</g>
		<g>
			<text fill="#595959" font-family="Verdana,sans-serif" font-weight="400" font-size="41" transform="matrix(6.12323e-17 -1 1 6.12323e-17 3834.3529411764707 1222)">09-Sep</text>
		</g>
		<g>
			<text fill="#595959" font-family="Verdana,sans-serif" font-weight="400" font-size="41" transform="matrix(6.12323e-17 -1 1 6.12323e-17 3914.6176470588234 1215)">07-Oct</text>
		</g>
		<g>
			<text fill="#595959" font-family="Verdana,sans-serif" font-weight="400" font-size="41" transform="matrix(6.12323e-17 -1 1 6.12323e-17 3998.3823529411766 1225)">04-Nov</text>
		</g>
		<g>
			<text fill="#595959" font-family="Verdana,sans-serif" font-weight="400" font-size="41" transform="matrix(6.12323e-17 -1 1 6.12323e-17 4082.1470588235293 1223)">09-Dec</text>
		</g>
		<g>
			<text fill="#595959" font-family="Verdana,sans-serif" font-weight="400" font-size="41" transform="matrix(6.12323e-17 -1 1 6.12323e-17 4165.911764705882 1210)">06-Jan</text>
		</g>
		<g>
			<text fill="#595959" font-family="Verdana,sans-serif" font-weight="400" font-size="41" transform="matrix(6.12323e-17 -1 1 6.12323e-17 4249.676470588235 1217)">03-Feb</text>
		</g>
		<g>
			<text fill="#595959" font-family="Verdana,sans-serif" font-weight="400" font-size="41" transform="matrix(1 0 0 1 3167.5 1050)">0</text>
		</g>
		<g>
			<text fill="#595959" font-family="Verdana,sans-serif" font-weight="400" font-size="41" transform="matrix(1 0 0 1 3075.5 922)">2,973</text>
		</g>
		<g>
			<text fill="#595959" font-family="Verdana,sans-serif" font-weight="400" font-size="41" transform="matrix(1 0 0 1 3074.5 794)">5,946</text>
		</g>
		<g>
			<text fill="#595959" font-family="Verdana,sans-serif" font-weight="400" font-size="41" transform="matrix(1 0 0 1 3073.5 666)">8,919</text>
		</g>
		<g>
			<text fill="#595959" font-family="Verdana,sans-serif" font-weight="400" font-size="41" transform="matrix(1 0 0 1 3050.5 538)">11,892</text>
		</g>
		<g>
			<text fill="#595959" font-family="Verdana,sans-serif" font-weight="400" font-size="41" transform="matrix(1 0 0 1 3051.5 410)">14,865</text>
		</g>
		<g>
			<text fill="#595959" font-family="Verdana,sans-serif" font-weight="400" font-size="41" transform="matrix(1 0 0 1 3544.5 1321)">Week Commencing</text>
		</g>
		<g>
			<text fill="#595959" font-family="Verdana,sans-serif" font-weight="400" font-size="46" transform="matrix(6.12323e-17 -1 1 6.12323e-17 3019.73 1030.75)">Number of Browser Profiles</text>
		</g>
		<rect x="2918.5" y="347.5" width="1760" height="1043" stroke="#D9D9D9" stroke-width="3.4375" stroke-linejoin="round" stroke-miterlimit="10" fill="none" />
		<g>
			<path d="M3228.5 1038 3249.4411764705883 1038 3270.3823529411766 1038 3291.323529411765 1038 3312.264705882353 1038 3333.205882352941 1038 3354.1470588235293 1038 3375.0882352941176 1038 3396.029411764706 1038 3416.970588235294 1038 3437.9117647058824 1038 3458.8529411764707 1038 3479.794117647059 1038 3500.735294117647 1038 3521.676470588235 1038 3542.6176470588234 1038 3563.5588235294117 1038 3584.5 1038 3605.4411764705883 1038 3626.3823529411766 1038 3647.323529411765 1038 3668.264705882353 1038 3689.205882352941 1038 3710.1470588235293 1038 3731.0882352941176 1038 3752.029411764706 1038 3772.970588235294 1038 3793.9117647058824 1038 3814.8529411764707 1038 3835.7941176470586 1038 3856.735294117647 1038 3877.676470588235 1038 3898.6176470588234 1038 3919.5588235294117 1038 3940.5 1038 3961.4411764705883 1038 3982.3823529411766 1038 4003.323529411765 1038 4024.264705882353 1038 4045.2058823529414 1038 4066.1470588235293 1038 4087.0882352941176 1038 4108.029411764706 1038 4128.970588235294 1038 4149.911764705882 1038 4170.85294117647 1038 4191.794117647059 1038 4212.735294117647 1038 4233.676470588235 1038 4254.617647058823 1038 4275.558823529412 1038 4296.5 1038 4296.5 535.0413723511604 4275.558823529412 535.6441305079045 4254.617647058823 536.6343760511268 4233.676470588235 538.0982172889337 4212.735294117647 538.7440295997309 4191.794117647059 539.4759502186344 4170.85294117647 539.9926000672722 4149.911764705882 540.7675748402287 4128.970588235294 541.2842246888665 4108.029411764706 541.5856037672385 4087.0882352941176 542.5758493104609 4066.1470588235293 543.3077699293642 4045.2058823529414 544.9438277833838 4024.264705882353 546.0201816347123 4003.323529411765 546.6659939455096 3982.3823529411766 547.3118062563067 3961.4411764705883 548.258997645476 3940.5 549.0339724184325 3919.5588235294117 549.765893037336 3898.6176470588234 550.6700302724521 3877.676470588235 552.0477632021527 3856.735294117647 552.4783047426841 3835.7941176470586 553.597712748066 3814.8529411764707 554.5449041372351 3793.9117647058824 555.1907164480323 3772.970588235294 556.1379078372015 3752.029411764706 556.6976118398924 3731.0882352941176 557.3003699966364 3710.1470588235293 558.2475613858055 3689.205882352941 559.0655903128154 3668.264705882353 559.8405650857719 3647.323529411765 560.4002690884629 3626.3823529411766 560.8308106289943 3605.4411764705883 561.2613521695257 3584.5 562.2946518668011 3563.5588235294117 563.0265724857047 3542.6176470588234 563.7584931046081 3521.676470588235 564.8779011099899 3500.735294117647 565.9542549613186 3479.794117647059 566.9445005045409 3458.8529411764707 567.4180961991254 3437.9117647058824 567.9778002018163 3416.970588235294 568.6666666666667 3396.029411764706 569.9582912882611 3375.0882352941176 571.120753447696 3354.1470588235293 572.2832156071308 3333.205882352941 573.7040026908846 3312.264705882353 574.7803565422132 3291.323529411765 575.7706020854356 3270.3823529411766 576.8039017827111 3249.4411764705883 578.1385805583586 3228.5 580.3343424150689 3228.5 1038Z" fill="#e62d39" opacity="0.9" />
		</g>
		<g>
			<path d="M3228.5 580.3343424150689 3249.4411764705883 578.1385805583586 3270.3823529411766 576.8039017827111 3291.323529411765 575.7706020854356 3312.264705882353 574.7803565422132 3333.205882352941 573.7040026908846 3354.1470588235293 572.2832156071308 3375.0882352941176 571.120753447696 3396.029411764706 569.9582912882611 3416.970588235294 568.6666666666667 3437.9117647058824 567.9778002018163 3458.8529411764707 567.4180961991254 3479.794117647059 566.9445005045409 3500.735294117647 565.9542549613186 3521.676470588235 564.8779011099899 3542.6176470588234 563.7584931046081 3563.5588235294117 563.0265724857047 3584.5 562.2946518668011 3605.4411764705883 561.2613521695257 3626.3823529411766 560.8308106289943 3647.323529411765 560.4002690884629 3668.264705882353 559.8405650857719 3689.205882352941 559.0655903128154 3710.1470588235293 558.2475613858055 3731.0882352941176 557.3003699966364 3752.029411764706 556.6976118398924 3772.970588235294 556.1379078372015 3793.9117647058824 555.1907164480323 3814.8529411764707 554.5449041372351 3835.7941176470586 553.597712748066 3856.735294117647 552.4783047426841 3877.676470588235 552.0477632021527 3898.6176470588234 550.6700302724521 3919.5588235294117 549.765893037336 3940.5 549.0339724184325 3961.4411764705883 548.258997645476 3982.3823529411766 547.3118062563067 4003.323529411765 546.6659939455096 4024.264705882353 546.0201816347123 4045.2058823529414 544.9438277833838 4066.1470588235293 543.3077699293642 4087.0882352941176 542.5758493104609 4108.029411764706 541.5856037672385 4128.970588235294 541.2842246888665 4149.911764705882 540.7675748402287 4170.85294117647 539.9926000672722 4191.794117647059 539.4759502186344 4212.735294117647 538.7440295997309 4233.676470588235 538.0982172889337 4254.617647058823 536.6343760511268 4275.558823529412 535.6441305079045 4296.5 535.0413723511604 4296.5 397.9999999999999 4275.558823529412 398.86108308106293 4254.617647058823 400.10965354860406 4233.676470588235 401.74571140262356 4212.735294117647 402.56374032963333 4191.794117647059 403.55398587285566 4170.85294117647 404.2859064917592 4149.911764705882 405.19004372687516 4128.970588235294 405.74974772956614 4108.029411764706 406.0511268079381 4087.0882352941176 407.2135889673731 4066.1470588235293 408.16078035654215 4045.2058823529414 410.0982172889337 4024.264705882353 411.4328960645812 4003.323529411765 412.29397914564413 3982.3823529411766 413.7147662293978 3961.4411764705883 414.8772283888329 3940.5 415.82441977800204 3919.5588235294117 416.72855701311806 3898.6176470588234 417.76185671039354 3877.676470588235 419.26875210225364 3856.735294117647 419.87151025899766 3835.7941176470586 421.29229734275145 3814.8529411764707 422.45475950218633 3793.9117647058824 423.2727884291961 3772.970588235294 424.43525058863105 3752.029411764706 425.08106289942816 3731.0882352941176 425.98520013454424 3710.1470588235293 427.01849983181967 3689.205882352941 428.0087453750421 3668.264705882353 428.912882610158 3647.323529411765 429.472586612849 3626.3823529411766 429.9892364614867 3605.4411764705883 430.7211570803902 3584.5 431.92667339387816 3563.5588235294117 432.8308106289943 3542.6176470588234 433.7780020181634 3521.676470588235 435.19878910191727 3500.735294117647 436.49041372351167 3479.794117647059 437.6098217288934 3458.8529411764707 438.25563403969056 3437.9117647058824 438.9445005045408 3416.970588235294 439.76252943155066 3396.029411764706 441.26942482341076 3375.0882352941176 442.6471577531114 3354.1470588235293 444.02489068281193 3333.205882352941 445.70400269088464 3312.264705882353 446.9956273124789 3291.323529411765 448.5886310124454 3270.3823529411766 450.1385805583586 3249.4411764705883 451.51631348805927 3228.5 453.97040026908843 3228.5 580.3343424150689Z" fill="#005aa6" opacity="0.9" />
		</g>
		<g>
			<rect x="4372" y="431" width="22.9995" height="23" fill="#e62d39" />
		</g>
		<g>
			<text fill="#595959" font-family="Verdana,sans-serif" font-weight="400" font-size="41" transform="matrix(1 0 0 1 4404.56 454)">Web Browser</text>
		</g>
		<g>
			<rect x="4372" y="508" width="22.9995" height="23" fill="#005aa6" />
		</g>
		<g>
			<text fill="#595959" font-family="Verdana,sans-serif" font-weight="400" font-size="41" transform="matrix(1 0 0 1 4404.56 531)">App</text>
		</g>
	</g>
</svg>
