<svg width="1763" height="1046"
    xmlns="http://www.w3.org/2000/svg"
	xmlns:xlink="http://www.w3.org/1999/xlink" xml:space="preserve" overflow="hidden">
	<defs>
		<clipPath id="clip0">
			<rect x="2917" y="346" width="1763" height="1046"/>
		</clipPath>
	</defs>
	<g clip-path="url(#clip0)" transform="translate(-2917 -346)">
		<rect x="2918" y="347" width="1760" height="1043" fill="#FFFFFF" />
		<g>
			<path d="
			M3228.5 974.532 4296.5 974.532
			M3228.5 910.53 4296.5 910.53
			M3228.5 846.528 4296.5 846.528
			M3228.5 781.526 4296.5 781.526
			M3228.5 717.524 4296.5 717.524
			M3228.5 653.522 4296.5 653.522
			M3228.5 589.52 4296.5 589.52
			M3228.5 525.517 4296.5 525.517
			M3228.5 461.515 4296.5 461.515
			M3228.5 397.5 4296.5 397.5" stroke="#D9D9D9" stroke-width="3.4375" stroke-linejoin="round" stroke-miterlimit="10" fill="none" />
		</g>
		<g>
			<path d="M 1038.5 4296.5 1038.5" stroke="#D9D9D9" stroke-width="3.4375" stroke-linejoin="round" stroke-miterlimit="10" fill="none" fill-rule="evenodd" />
		</g>
		<g>
			<text fill="#595959" font-family="Verdana,sans-serif" font-weight="400" font-size="41" transform="matrix(6.12323e-17 -1 1 6.12323e-17 3244.5 1227)">06-Nov</text>
		</g>
		<g>
			<text fill="#595959" font-family="Verdana,sans-serif" font-weight="400" font-size="41" transform="matrix(6.12323e-17 -1 1 6.12323e-17 3370.1470588235293 1226)">20-Nov</text>
		</g>
		<g>
			<text fill="#595959" font-family="Verdana,sans-serif" font-weight="400" font-size="41" transform="matrix(6.12323e-17 -1 1 6.12323e-17 3495.794117647059 1225)">04-Dec</text>
		</g>
		<g>
			<text fill="#595959" font-family="Verdana,sans-serif" font-weight="400" font-size="41" transform="matrix(6.12323e-17 -1 1 6.12323e-17 3621.4411764705883 1222)">18-Dec</text>
		</g>
		<g>
			<text fill="#595959" font-family="Verdana,sans-serif" font-weight="400" font-size="41" transform="matrix(6.12323e-17 -1 1 6.12323e-17 3747.0882352941176 1212)">01-Jan</text>
		</g>
		<g>
			<text fill="#595959" font-family="Verdana,sans-serif" font-weight="400" font-size="41" transform="matrix(6.12323e-17 -1 1 6.12323e-17 3872.235294117647 1209)">15-Jan</text>
		</g>
		<g>
			<text fill="#595959" font-family="Verdana,sans-serif" font-weight="400" font-size="41" transform="matrix(6.12323e-17 -1 1 6.12323e-17 3998.3823529411766 1211)">29-Jan</text>
		</g>
		<g>
			<text fill="#595959" font-family="Verdana,sans-serif" font-weight="400" font-size="41" transform="matrix(6.12323e-17 -1 1 6.12323e-17 4124.029411764706 1216)">12-Feb</text>
		</g>
		<g>
			<text fill="#595959" font-family="Verdana,sans-serif" font-weight="400" font-size="41" transform="matrix(6.12323e-17 -1 1 6.12323e-17 4249.676470588235 1218)">26-Feb</text>
		</g>
		<g>
			<text fill="#595959" font-family="Verdana,sans-serif" font-weight="400" font-size="41" transform="matrix(1 0 0 1 3167.5 1050)">0</text>
		</g>
		<g>
			<text fill="#595959" font-family="Verdana,sans-serif" font-weight="400" font-size="41" transform="matrix(1 0 0 1 3072.5 922)">2,724</text>
		</g>
		<g>
			<text fill="#595959" font-family="Verdana,sans-serif" font-weight="400" font-size="41" transform="matrix(1 0 0 1 3073.5 794)">5,449</text>
		</g>
		<g>
			<text fill="#595959" font-family="Verdana,sans-serif" font-weight="400" font-size="41" transform="matrix(1 0 0 1 3073.5 666)">8,173</text>
		</g>
		<g>
			<text fill="#595959" font-family="Verdana,sans-serif" font-weight="400" font-size="41" transform="matrix(1 0 0 1 3049.5 538)">10,898</text>
		</g>
		<g>
			<text fill="#595959" font-family="Verdana,sans-serif" font-weight="400" font-size="41" transform="matrix(1 0 0 1 3049.5 410)">13,622</text>
		</g>
		<g>
			<text fill="#595959" font-family="Verdana,sans-serif" font-weight="400" font-size="41" transform="matrix(1 0 0 1 3541.5 1321)">Week Commencing</text>
		</g>
		<g>
			<text fill="#595959" font-family="Verdana,sans-serif" font-weight="400" font-size="46" transform="matrix(6.12323e-17 -1 1 6.12323e-17 3019.73 1035.25)">Number of Browser Profiles</text>
		</g>
		<rect x="2918.5" y="347.5" width="1760" height="1043" stroke="#D9D9D9" stroke-width="3.4375" stroke-linejoin="round" stroke-miterlimit="10" fill="none" />
		<g>
			<path d="M3228.5 1038 3291.323529411765 1038 3354.1470588235293 1038 3416.970588235294 1038 3479.794117647059 1038 3542.6176470588234 1038 3605.4411764705883 1038 3668.264705882353 1038 3731.0882352941176 1038 3793.9117647058824 1038 3856.735294117647 1038 3919.5588235294117 1038 3982.3823529411766 1038 4045.205882352941 1038 4108.029411764706 1038 4170.85294117647 1038 4233.676470588235 1038 4296.5 1038 4296.5 536.1764792247834 4233.676470588235 538.5726031419763 4170.85294117647 539.0424313610336 4108.029411764706 539.4182939362795 4045.205882352941 541.4385552782264 3982.3823529411766 543.505799442079 3919.5588235294117 544.0695933049478 3856.735294117647 544.9152840992513 3793.9117647058824 545.6200264278373 3731.0882352941176 545.9019233592718 3668.264705882353 545.9019233592718 3605.4411764705883 546.7006313316693 3542.6176470588234 547.1704595507267 3479.794117647059 547.7342534135956 3416.970588235294 548.6739098517105 3354.1470588235293 549.472617824108 3291.323529411765 550.1773601526942 3228.5 550.6941711936573 3228.5 1038Z" fill="#e62d39" opacity="0.9" />
		</g>
		<g>
			<path d="M3228.5 550.6941711936573 3291.323529411765 550.1773601526942 3354.1470588235293 549.472617824108 3416.970588235294 548.6739098517105 3479.794117647059 547.7342534135956 3542.6176470588234 547.1704595507267 3605.4411764705883 546.7006313316693 3668.264705882353 545.9019233592718 3731.0882352941176 545.9019233592718 3793.9117647058824 545.6200264278373 3856.735294117647 544.9152840992513 3919.5588235294117 544.0695933049478 3982.3823529411766 543.505799442079 4045.205882352941 541.4385552782264 4108.029411764706 539.4182939362795 4170.85294117647 539.0424313610336 4233.676470588235 538.5726031419763 4296.5 536.1764792247834 4296.5 398 4233.676470588235 400.6780208486273 4170.85294117647 401.1948318895903 4108.029411764706 401.75862575245924 4045.205882352941 404.0607840258406 3982.3823529411766 406.26897665541037 3919.5588235294117 406.97371898399643 3856.735294117647 408.05432388782856 3793.9117647058824 408.90001468213177 3731.0882352941176 409.27587725737783 3668.264705882353 409.27587725737783 3605.4411764705883 410.309499339304 3542.6176470588234 411.01424166789013 3479.794117647059 411.6250183526648 3416.970588235294 412.6586404345911 3354.1470588235293 413.5982968727059 3291.323529411765 414.6319189546322 3228.5 415.3366612832183 3228.5 550.6941711936573Z" fill="#005aa6" opacity="0.9" />
		</g>
		<g>
			<rect x="4372" y="431" width="22.9995" height="23" fill="#e62d39" />
		</g>
		<g>
			<text fill="#595959" font-family="Verdana,sans-serif" font-weight="400" font-size="41" transform="matrix(1 0 0 1 4404.56 454)">Web Browser</text>
		</g>
		<g>
			<rect x="4372" y="508" width="22.9995" height="23" fill="#005aa6" />
		</g>
		<g>
			<text fill="#595959" font-family="Verdana,sans-serif" font-weight="400" font-size="41" transform="matrix(1 0 0 1 4404.56 531)">App</text>
		</g>
	</g>
</svg>
