<svg width="1763" height="1046"
    xmlns="http://www.w3.org/2000/svg"
	xmlns:xlink="http://www.w3.org/1999/xlink" xml:space="preserve" overflow="hidden">
	<defs>
		<clipPath id="clip0">
			<rect x="2917" y="346" width="1763" height="1046"/>
		</clipPath>
	</defs>
	<g clip-path="url(#clip0)" transform="translate(-2917 -346)">
		<rect x="2918" y="347" width="1760" height="1043" fill="#FFFFFF" />
		<g>
			<path d="
			M3228.5 974.532 4296.5 974.532
			M3228.5 910.53 4296.5 910.53
			M3228.5 846.528 4296.5 846.528
			M3228.5 781.526 4296.5 781.526
			M3228.5 717.524 4296.5 717.524
			M3228.5 653.522 4296.5 653.522
			M3228.5 589.52 4296.5 589.52
			M3228.5 525.517 4296.5 525.517
			M3228.5 461.515 4296.5 461.515
			M3228.5 397.5 4296.5 397.5" stroke="#D9D9D9" stroke-width="3.4375" stroke-linejoin="round" stroke-miterlimit="10" fill="none" />
		</g>
		<g>
			<path d="M 1038.5 4296.5 1038.5" stroke="#D9D9D9" stroke-width="3.4375" stroke-linejoin="round" stroke-miterlimit="10" fill="none" fill-rule="evenodd" />
		</g>
		<g>
			<text fill="#595959" font-family="Verdana,Open Sans,DejaVu Sans,sans-serif" font-weight="400" font-size="41" transform="matrix(6.12323e-17 -1 1 6.12323e-17 3248.269287109375 1214.75341796875)">19-May</text>
		</g>
		<g>
			<text fill="#595959" font-family="Verdana,Open Sans,DejaVu Sans,sans-serif" font-weight="400" font-size="41" transform="matrix(6.12323e-17 -1 1 6.12323e-17 3332.6382421875 1194.0532150268555)">23-Jun</text>
		</g>
		<g>
			<text fill="#595959" font-family="Verdana,Open Sans,DejaVu Sans,sans-serif" font-weight="400" font-size="41" transform="matrix(6.12323e-17 -1 1 6.12323e-17 3418.808955078125 1179.0385665893555)">21-Jul</text>
		</g>
		<g>
			<text fill="#595959" font-family="Verdana,Open Sans,DejaVu Sans,sans-serif" font-weight="400" font-size="41" transform="matrix(6.12323e-17 -1 1 6.12323e-17 3504.589287109375 1206.90576171875)">18-Aug</text>
		</g>
		<g>
			<text fill="#595959" font-family="Verdana,Open Sans,DejaVu Sans,sans-serif" font-weight="400" font-size="41" transform="matrix(6.12323e-17 -1 1 6.12323e-17 3590.029287109375 1202.66162109375)">15-Sep</text>
		</g>
		<g>
			<text fill="#595959" font-family="Verdana,Open Sans,DejaVu Sans,sans-serif" font-weight="400" font-size="41" transform="matrix(6.12323e-17 -1 1 6.12323e-17 3670.764697265625 1199.3784103393555)">13-Oct</text>
		</g>
		<g>
			<text fill="#595959" font-family="Verdana,Open Sans,DejaVu Sans,sans-serif" font-weight="400" font-size="41" transform="matrix(6.12323e-17 -1 1 6.12323e-17 3756.204697265625 1209.70849609375)">10-Nov</text>
		</g>
		<g>
			<text fill="#595959" font-family="Verdana,Open Sans,DejaVu Sans,sans-serif" font-weight="400" font-size="41" transform="matrix(6.12323e-17 -1 1 6.12323e-17 3841.644697265625 1207.0859375)">08-Dec</text>
		</g>
		<g>
			<text fill="#595959" font-family="Verdana,Open Sans,DejaVu Sans,sans-serif" font-weight="400" font-size="41" transform="matrix(6.12323e-17 -1 1 6.12323e-17 3930.73826171875 1191.6508712768555)">05-Jan</text>
		</g>
		<g>
			<text fill="#595959" font-family="Verdana,Open Sans,DejaVu Sans,sans-serif" font-weight="400" font-size="41" transform="matrix(6.12323e-17 -1 1 6.12323e-17 4013.235390625 1203.0419921875)">02-Feb</text>
		</g>
		<g>
			<text fill="#595959" font-family="Verdana,Open Sans,DejaVu Sans,sans-serif" font-weight="400" font-size="41" transform="matrix(6.12323e-17 -1 1 6.12323e-17 4097.964697265625 1212.0107421875)">02-Mar</text>
		</g>
		<g>
			<text fill="#595959" font-family="Verdana,Open Sans,DejaVu Sans,sans-serif" font-weight="400" font-size="41" transform="matrix(6.12323e-17 -1 1 6.12323e-17 4183.404697265625 1212.1708984375)">30-Mar</text>
		</g>
		<g>
			<text fill="#595959" font-family="Verdana,Open Sans,DejaVu Sans,sans-serif" font-weight="400" font-size="41" transform="matrix(6.12323e-17 -1 1 6.12323e-17 4273.549287109375 1203.3022384643555)">27-Apr</text>
		</g>
		<g>
			<text fill="#595959" font-family="Verdana,Open Sans,DejaVu Sans,sans-serif" font-weight="400" font-size="41" transform="matrix(1 0 0 1 3135.4482421875 1050)">0%</text>
		</g>
		<g>
			<text fill="#595959" font-family="Verdana,Open Sans,DejaVu Sans,sans-serif" font-weight="400" font-size="41" transform="matrix(1 0 0 1 3111.96533203125 922)">20%</text>
		</g>
		<g>
			<text fill="#595959" font-family="Verdana,Open Sans,DejaVu Sans,sans-serif" font-weight="400" font-size="41" transform="matrix(1 0 0 1 3110.82421875 794)">40%</text>
		</g>
		<g>
			<text fill="#595959" font-family="Verdana,Open Sans,DejaVu Sans,sans-serif" font-weight="400" font-size="41" transform="matrix(1 0 0 1 3112.3056640625 666)">60%</text>
		</g>
		<g>
			<text fill="#595959" font-family="Verdana,Open Sans,DejaVu Sans,sans-serif" font-weight="400" font-size="41" transform="matrix(1 0 0 1 3112.04541015625 538)">80%</text>
		</g>
		<g>
			<text fill="#595959" font-family="Verdana,Open Sans,DejaVu Sans,sans-serif" font-weight="400" font-size="41" transform="matrix(1 0 0 1 3090.2841796875 410)">100%</text>
		</g>
		<g>
			<text fill="#595959" font-family="Verdana,Open Sans,DejaVu Sans,sans-serif" font-weight="400" font-size="41" transform="matrix(1 0 0 1 3556.97119140625 1321)">Week Commencing</text>
		</g>
		<g>
			<text fill="#595959" font-family="Verdana,Open Sans,DejaVu Sans,sans-serif" font-weight="400" font-size="46" transform="matrix(6.12323e-17 -1 1 6.12323e-17 3019.73 936.7665710449219)">Requests (% of Total)</text>
		</g>
		<rect x="2918.5" y="347.5" width="1760" height="1043" stroke="#D9D9D9" stroke-width="3.4375" stroke-linejoin="round" stroke-miterlimit="10" fill="none" />
		<g>
			<path d="M3228.5 1038 3249.86 1038 3271.22 1038 3292.58 1038 3313.94 1038 3335.3 1038 3356.66 1038 3378.02 1038 3399.38 1038 3420.74 1038 3442.1 1038 3463.46 1038 3484.82 1038 3506.18 1038 3527.54 1038 3548.9 1038 3570.26 1038 3591.62 1038 3612.98 1038 3634.34 1038 3655.7 1038 3677.06 1038 3698.42 1038 3719.7799999999997 1038 3741.14 1038 3762.5 1038 3783.86 1038 3805.2200000000003 1038 3826.58 1038 3847.94 1038 3869.3 1038 3890.66 1038 3912.02 1038 3933.38 1038 3954.74 1038 3976.1 1038 3997.46 1038 4018.8199999999997 1038 4040.18 1038 4061.54 1038 4082.9 1038 4104.26 1038 4125.62 1038 4146.98 1038 4168.34 1038 4189.7 1038 4211.0599999999995 1038 4232.42 1038 4253.78 1038 4275.139999999999 1038 4296.5 1038 4296.5 641.7883242512185 4275.139999999999 641.6386088112265 4253.78 641.5584180917222 4232.42 641.2396613478342 4211.0599999999995 639.6433470430949 4189.7 641.0825381110685 4168.34 641.3274589400961 4146.98 641.6145313440886 4125.62 642.4444914583115 4104.26 643.401215888529 4082.9 644.3338442804811 4061.54 646.711535446821 4040.18 646.5953351574117 4018.8199999999997 648.9964700856017 3997.46 650.4578201384786 3976.1 650.1826843160547 3954.74 650.9511325988744 3933.38 650.9685000981426 3912.02 652.4520688665375 3890.66 654.2438394166766 3869.3 654.1783595408037 3847.94 665.1009269843557 3826.58 665.0687170796807 3805.2200000000003 669.2508046624037 3783.86 668.8015383913383 3762.5 677.0310099621294 3741.14 715.6326502484551 3719.7799999999997 731.7898269041518 3698.42 731.6946718722857 3677.06 731.7814057156063 3655.7 731.7708258099874 3634.34 739.179471336138 3612.98 739.1723277843557 3591.62 742.0464154901043 3570.26 744.981700209997 3548.9 752.0924084860791 3527.54 755.2385923010361 3506.18 755.2502906288946 3484.82 758.1300732473312 3463.46 768.0870120946274 3442.1 768.0622682813855 3420.74 768.1168972047803 3399.38 768.2021370143037 3378.02 769.6067142131767 3356.66 775.05017459998 3335.3 787.2357258695183 3313.94 787.3092370373995 3292.58 790.9650389728295 3271.22 794.0813847270024 3249.86 798.9713729419469 3228.5 800.9582284854941 3228.5 1038Z" fill="#e62d39" opacity="0.9" />
		</g>
		<g>
			<path d="M3228.5 800.9582284854941 3249.86 798.9713729419469 3271.22 794.0813847270024 3292.58 790.9650389728295 3313.94 787.3092370373995 3335.3 787.2357258695183 3356.66 775.05017459998 3378.02 769.6067142131767 3399.38 768.2021370143037 3420.74 768.1168972047803 3442.1 768.0622682813855 3463.46 768.0870120946274 3484.82 758.1300732473312 3506.18 755.2502906288946 3527.54 755.2385923010361 3548.9 752.0924084860791 3570.26 744.981700209997 3591.62 742.0464154901043 3612.98 739.1723277843557 3634.34 739.179471336138 3655.7 731.7708258099874 3677.06 731.7814057156063 3698.42 731.6946718722857 3719.7799999999997 731.7898269041518 3741.14 715.6326502484551 3762.5 677.0310099621294 3783.86 668.8015383913383 3805.2200000000003 669.2508046624037 3826.58 665.0687170796807 3847.94 665.1009269843557 3869.3 654.1783595408037 3890.66 654.2438394166766 3912.02 652.4520688665375 3933.38 650.9685000981426 3954.74 650.9511325988744 3976.1 650.1826843160547 3997.46 650.4578201384786 4018.8199999999997 648.9964700856017 4040.18 646.5953351574117 4061.54 646.711535446821 4082.9 644.3338442804811 4104.26 643.401215888529 4125.62 642.4444914583115 4146.98 641.6145313440886 4168.34 641.3274589400961 4189.7 641.0825381110685 4211.0599999999995 639.6433470430949 4232.42 641.2396613478342 4253.78 641.5584180917222 4275.139999999999 641.6386088112265 4296.5 641.7883242512185 4296.5 406.42043828437977 4275.139999999999 406.25830937946154 4253.78 406.1024336272774 4232.42 405.9225420999001 4211.0599999999995 406.47953769377625 4189.7 406.2783088484283 4168.34 406.1475891922515 4146.98 406.0007835357919 4125.62 405.8580495377305 4104.26 405.75756216085244 4082.9 405.6890755918336 4061.54 405.4853661204658 4040.18 405.49122463683807 4018.8199999999997 405.2872977777903 3997.46 405.0542403680629 3976.1 404.8267826278017 3954.74 404.3597305581952 3933.38 404.3606360598039 3912.02 404.3133620715407 3890.66 404.2694390318647 3869.3 404.25532206437714 3847.94 404.1006016590141 3826.58 404.09929675944176 3805.2200000000003 404.0956381930635 3783.86 404.12948436436125 3762.5 403.9961122337051 3741.14 403.3494217541671 3719.7799999999997 402.9248624726996 3698.42 402.9072043922977 3677.06 402.90877584131425 3655.7 402.9298471234101 3634.34 402.60349792125623 3612.98 402.6099730048478 3591.62 402.37217547977207 3570.26 402.145050233926 3548.9 401.73578913608276 3527.54 401.57006086206655 3506.18 401.57128950627384 3484.82 401.4082896460906 3463.46 400.8924429074875 3442.1 400.88896921768406 3420.74 400.93900012801925 3399.38 401.0268406246156 3378.02 400.9092568701918 3356.66 400.9924926084992 3335.3 400.4880580221503 3313.94 400.49608136003764 3292.58 400.2916782230466 3271.22 400.1582567110125 3249.86 399.92908991218985 3228.5 399.9334041710106 3228.5 800.9582284854941Z" fill="#005aa6" opacity="0.9" />
		</g>
		<g>
			<path d="M3228.5 399.9334041710106 3249.86 399.92908991218985 3271.22 400.1582567110125 3292.58 400.2916782230466 3313.94 400.49608136003764 3335.3 400.4880580221503 3356.66 400.9924926084992 3378.02 400.9092568701918 3399.38 401.0268406246156 3420.74 400.93900012801925 3442.1 400.88896921768406 3463.46 400.8924429074875 3484.82 401.4082896460906 3506.18 401.57128950627384 3527.54 401.57006086206655 3548.9 401.73578913608276 3570.26 402.145050233926 3591.62 402.37217547977207 3612.98 402.6099730048478 3634.34 402.60349792125623 3655.7 402.9298471234101 3677.06 402.90877584131425 3698.42 402.9072043922977 3719.7799999999997 402.9248624726996 3741.14 403.3494217541671 3762.5 403.9961122337051 3783.86 404.12948436436125 3805.2200000000003 404.0956381930635 3826.58 404.09929675944176 3847.94 404.1006016590141 3869.3 404.25532206437714 3890.66 404.2694390318647 3912.02 404.3133620715407 3933.38 404.3606360598039 3954.74 404.3597305581952 3976.1 404.8267826278017 3997.46 405.0542403680629 4018.8199999999997 405.2872977777903 4040.18 405.49122463683807 4061.54 405.4853661204658 4082.9 405.6890755918336 4104.26 405.75756216085244 4125.62 405.8580495377305 4146.98 406.0007835357919 4168.34 406.1475891922515 4189.7 406.2783088484283 4211.0599999999995 406.47953769377625 4232.42 405.9225420999001 4253.78 406.1024336272774 4275.139999999999 406.25830937946154 4296.5 406.42043828437977 4296.5 398 4275.139999999999 398 4253.78 397.9999999999999 4232.42 398 4211.0599999999995 397.99999999999994 4189.7 397.99999999999994 4168.34 398 4146.98 398 4125.62 398 4104.26 398.00000000000006 4082.9 397.99999999999994 4061.54 398.00000000000006 4040.18 398 4018.8199999999997 398 3997.46 398 3976.1 397.99999999999994 3954.74 397.99999999999994 3933.38 397.99999999999994 3912.02 398.00000000000006 3890.66 398.00000000000006 3869.3 398.0000000000001 3847.94 397.99999999999994 3826.58 397.9999999999999 3805.2200000000003 398.0000000000001 3783.86 398 3762.5 398 3741.14 397.9999999999999 3719.7799999999997 398.00000000000006 3698.42 397.99999999999994 3677.06 397.9999999999999 3655.7 398.00000000000006 3634.34 398.00000000000006 3612.98 397.99999999999994 3591.62 397.99999999999994 3570.26 397.99999999999994 3548.9 398 3527.54 397.9999999999999 3506.18 397.99999999999994 3484.82 397.99999999999994 3463.46 398 3442.1 398.00000000000006 3420.74 398.00000000000006 3399.38 397.99999999999994 3378.02 397.99999999999994 3356.66 397.99999999999994 3335.3 398.0000000000001 3313.94 398 3292.58 398.00000000000006 3271.22 398 3249.86 398 3228.5 398 3228.5 399.9334041710106Z" fill="#393d41" opacity="0.9" />
		</g>
		<g>
			<rect x="4372" y="431" width="22.9995" height="23" fill="#e62d39" />
		</g>
		<g>
			<text fill="#595959" font-family="Verdana,Open Sans,DejaVu Sans,sans-serif" font-weight="400" font-size="41" transform="matrix(1 0 0 1 4404.56 454)">App</text>
		</g>
		<g>
			<rect x="4372" y="508" width="22.9995" height="23" fill="#005aa6" />
		</g>
		<g>
			<text fill="#595959" font-family="Verdana,Open Sans,DejaVu Sans,sans-serif" font-weight="400" font-size="41" transform="matrix(1 0 0 1 4404.56 531)">Web Browser</text>
		</g>
		<g>
			<rect x="4372" y="585" width="22.9995" height="23" fill="#393d41" />
		</g>
		<g>
			<text fill="#595959" font-family="Verdana,Open Sans,DejaVu Sans,sans-serif" font-weight="400" font-size="41" transform="matrix(1 0 0 1 4404.56 608)">Unclassified</text>
		</g>
	</g>
</svg>
