<svg width="1763" height="1046"
    xmlns="http://www.w3.org/2000/svg"
	xmlns:xlink="http://www.w3.org/1999/xlink" xml:space="preserve" overflow="hidden">
	<defs>
		<clipPath id="clip0">
			<rect x="2917" y="346" width="1763" height="1046"/>
		</clipPath>
	</defs>
	<g clip-path="url(#clip0)" transform="translate(-2917 -346)">
		<rect x="2918" y="347" width="1760" height="1043" fill="#FFFFFF" />
		<g>
			<path d="
			M3228.5 974.532 4296.5 974.532
			M3228.5 910.53 4296.5 910.53
			M3228.5 846.528 4296.5 846.528
			M3228.5 781.526 4296.5 781.526
			M3228.5 717.524 4296.5 717.524
			M3228.5 653.522 4296.5 653.522
			M3228.5 589.52 4296.5 589.52
			M3228.5 525.517 4296.5 525.517
			M3228.5 461.515 4296.5 461.515
			M3228.5 397.5 4296.5 397.5" stroke="#D9D9D9" stroke-width="3.4375" stroke-linejoin="round" stroke-miterlimit="10" fill="none" />
		</g>
		<g>
			<path d="M 1038.5 4296.5 1038.5" stroke="#D9D9D9" stroke-width="3.4375" stroke-linejoin="round" stroke-miterlimit="10" fill="none" fill-rule="evenodd" />
		</g>
		<g>
			<text fill="#595959" font-family="Verdana,sans-serif" font-weight="400" font-size="41" transform="matrix(6.12323e-17 -1 1 6.12323e-17 3244.5 1227)">06-Nov</text>
		</g>
		<g>
			<text fill="#595959" font-family="Verdana,sans-serif" font-weight="400" font-size="41" transform="matrix(6.12323e-17 -1 1 6.12323e-17 3356.9210526315787 1226)">20-Nov</text>
		</g>
		<g>
			<text fill="#595959" font-family="Verdana,sans-serif" font-weight="400" font-size="41" transform="matrix(6.12323e-17 -1 1 6.12323e-17 3469.342105263158 1225)">04-Dec</text>
		</g>
		<g>
			<text fill="#595959" font-family="Verdana,sans-serif" font-weight="400" font-size="41" transform="matrix(6.12323e-17 -1 1 6.12323e-17 3581.7631578947367 1222)">18-Dec</text>
		</g>
		<g>
			<text fill="#595959" font-family="Verdana,sans-serif" font-weight="400" font-size="41" transform="matrix(6.12323e-17 -1 1 6.12323e-17 3694.184210526316 1212)">01-Jan</text>
		</g>
		<g>
			<text fill="#595959" font-family="Verdana,sans-serif" font-weight="400" font-size="41" transform="matrix(6.12323e-17 -1 1 6.12323e-17 3806.1052631578946 1209)">15-Jan</text>
		</g>
		<g>
			<text fill="#595959" font-family="Verdana,sans-serif" font-weight="400" font-size="41" transform="matrix(6.12323e-17 -1 1 6.12323e-17 3919.0263157894738 1211)">29-Jan</text>
		</g>
		<g>
			<text fill="#595959" font-family="Verdana,sans-serif" font-weight="400" font-size="41" transform="matrix(6.12323e-17 -1 1 6.12323e-17 4031.4473684210525 1216)">12-Feb</text>
		</g>
		<g>
			<text fill="#595959" font-family="Verdana,sans-serif" font-weight="400" font-size="41" transform="matrix(6.12323e-17 -1 1 6.12323e-17 4143.868421052632 1218)">26-Feb</text>
		</g>
		<g>
			<text fill="#595959" font-family="Verdana,sans-serif" font-weight="400" font-size="41" transform="matrix(6.12323e-17 -1 1 6.12323e-17 4255.789473684211 1222)">11-Mar</text>
		</g>
		<g>
			<text fill="#595959" font-family="Verdana,sans-serif" font-weight="400" font-size="41" transform="matrix(1 0 0 1 3167.5 1050)">0</text>
		</g>
		<g>
			<text fill="#595959" font-family="Verdana,sans-serif" font-weight="400" font-size="41" transform="matrix(1 0 0 1 3073.5 922)">2,738</text>
		</g>
		<g>
			<text fill="#595959" font-family="Verdana,sans-serif" font-weight="400" font-size="41" transform="matrix(1 0 0 1 3073.5 794)">5,476</text>
		</g>
		<g>
			<text fill="#595959" font-family="Verdana,sans-serif" font-weight="400" font-size="41" transform="matrix(1 0 0 1 3071.5 666)">8,214</text>
		</g>
		<g>
			<text fill="#595959" font-family="Verdana,sans-serif" font-weight="400" font-size="41" transform="matrix(1 0 0 1 3049.5 538)">10,952</text>
		</g>
		<g>
			<text fill="#595959" font-family="Verdana,sans-serif" font-weight="400" font-size="41" transform="matrix(1 0 0 1 3049.5 410)">13,690</text>
		</g>
		<g>
			<text fill="#595959" font-family="Verdana,sans-serif" font-weight="400" font-size="41" transform="matrix(1 0 0 1 3541.5 1321)">Week Commencing</text>
		</g>
		<g>
			<text fill="#595959" font-family="Verdana,sans-serif" font-weight="400" font-size="46" transform="matrix(6.12323e-17 -1 1 6.12323e-17 3019.73 1035.25)">Number of Browser Profiles</text>
		</g>
		<rect x="2918.5" y="347.5" width="1760" height="1043" stroke="#D9D9D9" stroke-width="3.4375" stroke-linejoin="round" stroke-miterlimit="10" fill="none" />
		<g>
			<path d="M3228.5 1038 3284.7105263157896 1038 3340.9210526315787 1038 3397.1315789473683 1038 3453.342105263158 1038 3509.5526315789475 1038 3565.7631578947367 1038 3621.9736842105262 1038 3678.184210526316 1038 3734.3947368421054 1038 3790.6052631578946 1038 3846.815789473684 1038 3903.0263157894738 1038 3959.2368421052633 1038 4015.4473684210525 1038 4071.657894736842 1038 4127.868421052632 1038 4184.078947368421 1038 4240.289473684211 1038 4296.5 1038 4296.5 536.0978816654492 4240.289473684211 537.2198685171659 4184.078947368421 538.6691015339663 4127.868421052632 541.0533235938642 4071.657894736842 541.5208181154127 4015.4473684210525 541.8948137326515 3959.2368421052633 543.9050401753104 3903.0263157894738 545.9620160701242 3846.815789473684 546.5230094959825 3790.6052631578946 547.3644996347699 3734.3947368421054 548.0657414170928 3678.184210526316 548.3462381300219 3621.9736842105262 548.3462381300219 3565.7631578947367 549.1409788166545 3509.5526315789475 549.6084733382031 3453.342105263158 550.1694667640613 3397.1315789473683 551.1044558071585 3340.9210526315787 551.8991964937911 3284.7105263157896 552.6004382761139 3228.5 553.1146822498174 3228.5 1038Z" fill="#e62d39" opacity="0.9" />
		</g>
		<g>
			<path d="M3228.5 553.1146822498174 3284.7105263157896 552.6004382761139 3340.9210526315787 551.8991964937911 3397.1315789473683 551.1044558071585 3453.342105263158 550.1694667640613 3509.5526315789475 549.6084733382031 3565.7631578947367 549.1409788166545 3621.9736842105262 548.3462381300219 3678.184210526316 548.3462381300219 3734.3947368421054 548.0657414170928 3790.6052631578946 547.3644996347699 3846.815789473684 546.5230094959825 3903.0263157894738 545.9620160701242 3959.2368421052633 543.9050401753104 4015.4473684210525 541.8948137326515 4071.657894736842 541.5208181154127 4127.868421052632 541.0533235938642 4184.078947368421 538.6691015339663 4240.289473684211 537.2198685171659 4296.5 536.0978816654492 4296.5 398 4240.289473684211 399.6829802775749 4184.078947368421 401.17896274653026 4127.868421052632 403.84368151935723 4071.657894736842 404.35792549306063 4015.4473684210525 404.91891891891885 3959.2368421052633 407.2096420745069 3903.0263157894738 409.40686632578524 3846.815789473684 410.1081081081081 3790.6052631578946 411.18334550766986 3734.3947368421054 412.0248356464573 3678.184210526316 412.39883126369614 3621.9736842105262 412.39883126369614 3565.7631578947367 413.42731921110305 3509.5526315789475 414.12856099342594 3453.342105263158 414.73630387143896 3397.1315789473683 415.7647918188459 3340.9210526315787 416.69978086194305 3284.7105263157896 417.72826880934986 3228.5 418.42951059167274 3228.5 553.1146822498174Z" fill="#005aa6" opacity="0.9" />
		</g>
		<g>
			<rect x="4372" y="431" width="22.9995" height="23" fill="#e62d39" />
		</g>
		<g>
			<text fill="#595959" font-family="Verdana,sans-serif" font-weight="400" font-size="41" transform="matrix(1 0 0 1 4404.56 454)">Web Browser</text>
		</g>
		<g>
			<rect x="4372" y="508" width="22.9995" height="23" fill="#005aa6" />
		</g>
		<g>
			<text fill="#595959" font-family="Verdana,sans-serif" font-weight="400" font-size="41" transform="matrix(1 0 0 1 4404.56 531)">App</text>
		</g>
	</g>
</svg>
