<svg width="1763" height="1046"
    xmlns="http://www.w3.org/2000/svg"
	xmlns:xlink="http://www.w3.org/1999/xlink" xml:space="preserve" overflow="hidden">
	<defs>
		<clipPath id="clip0">
			<rect x="2917" y="346" width="1763" height="1046"/>
		</clipPath>
	</defs>
	<g clip-path="url(#clip0)" transform="translate(-2917 -346)">
		<rect x="2918" y="347" width="1760" height="1043" fill="#FFFFFF" />
		<g>
			<path d="
			M3228.5 974.532 4296.5 974.532
			M3228.5 910.53 4296.5 910.53
			M3228.5 846.528 4296.5 846.528
			M3228.5 781.526 4296.5 781.526
			M3228.5 717.524 4296.5 717.524
			M3228.5 653.522 4296.5 653.522
			M3228.5 589.52 4296.5 589.52
			M3228.5 525.517 4296.5 525.517
			M3228.5 461.515 4296.5 461.515
			M3228.5 397.5 4296.5 397.5" stroke="#D9D9D9" stroke-width="3.4375" stroke-linejoin="round" stroke-miterlimit="10" fill="none" />
		</g>
		<g>
			<path d="M 1038.5 4296.5 1038.5" stroke="#D9D9D9" stroke-width="3.4375" stroke-linejoin="round" stroke-miterlimit="10" fill="none" fill-rule="evenodd" />
		</g>
		<g>
			<text fill="#595959" font-family="Verdana,Open Sans,DejaVu Sans,sans-serif" font-weight="400" font-size="41" transform="matrix(6.12323e-17 -1 1 6.12323e-17 3243.33447265625 1210.2890625)">17-Mar</text>
		</g>
		<g>
			<text fill="#595959" font-family="Verdana,Open Sans,DejaVu Sans,sans-serif" font-weight="400" font-size="41" transform="matrix(6.12323e-17 -1 1 6.12323e-17 3333.57916015625 1201.5405197143555)">14-Apr</text>
		</g>
		<g>
			<text fill="#595959" font-family="Verdana,Open Sans,DejaVu Sans,sans-serif" font-weight="400" font-size="41" transform="matrix(6.12323e-17 -1 1 6.12323e-17 3419.149287109375 1214.75341796875)">12-May</text>
		</g>
		<g>
			<text fill="#595959" font-family="Verdana,Open Sans,DejaVu Sans,sans-serif" font-weight="400" font-size="41" transform="matrix(6.12323e-17 -1 1 6.12323e-17 3503.5182421875 1192.2914962768555)">16-Jun</text>
		</g>
		<g>
			<text fill="#595959" font-family="Verdana,Open Sans,DejaVu Sans,sans-serif" font-weight="400" font-size="41" transform="matrix(6.12323e-17 -1 1 6.12323e-17 3589.688955078125 1177.2768478393555)">14-Jul</text>
		</g>
		<g>
			<text fill="#595959" font-family="Verdana,Open Sans,DejaVu Sans,sans-serif" font-weight="400" font-size="41" transform="matrix(6.12323e-17 -1 1 6.12323e-17 3675.319140625 1206.90576171875)">11-Aug</text>
		</g>
		<g>
			<text fill="#595959" font-family="Verdana,Open Sans,DejaVu Sans,sans-serif" font-weight="400" font-size="41" transform="matrix(6.12323e-17 -1 1 6.12323e-17 3760.929306640625 1204.38330078125)">08-Sep</text>
		</g>
		<g>
			<text fill="#595959" font-family="Verdana,Open Sans,DejaVu Sans,sans-serif" font-weight="400" font-size="41" transform="matrix(6.12323e-17 -1 1 6.12323e-17 3841.644697265625 1201.1000900268555)">06-Oct</text>
		</g>
		<g>
			<text fill="#595959" font-family="Verdana,Open Sans,DejaVu Sans,sans-serif" font-weight="400" font-size="41" transform="matrix(6.12323e-17 -1 1 6.12323e-17 3927.084697265625 1211.43017578125)">03-Nov</text>
		</g>
		<g>
			<text fill="#595959" font-family="Verdana,Open Sans,DejaVu Sans,sans-serif" font-weight="400" font-size="41" transform="matrix(6.12323e-17 -1 1 6.12323e-17 4012.524697265625 1207.0859375)">01-Dec</text>
		</g>
		<g>
			<text fill="#595959" font-family="Verdana,Open Sans,DejaVu Sans,sans-serif" font-weight="400" font-size="41" transform="matrix(6.12323e-17 -1 1 6.12323e-17 4097.944677734375 1207.1259765625)">29-Dec</text>
		</g>
		<g>
			<text fill="#595959" font-family="Verdana,Open Sans,DejaVu Sans,sans-serif" font-weight="400" font-size="41" transform="matrix(6.12323e-17 -1 1 6.12323e-17 4187.0382421875 1191.6909103393555)">26-Jan</text>
		</g>
		<g>
			<text fill="#595959" font-family="Verdana,Open Sans,DejaVu Sans,sans-serif" font-weight="400" font-size="41" transform="matrix(6.12323e-17 -1 1 6.12323e-17 4269.555390625 1203.08203125)">23-Feb</text>
		</g>
		<g>
			<text fill="#595959" font-family="Verdana,Open Sans,DejaVu Sans,sans-serif" font-weight="400" font-size="41" transform="matrix(1 0 0 1 3135.4482421875 1050)">0%</text>
		</g>
		<g>
			<text fill="#595959" font-family="Verdana,Open Sans,DejaVu Sans,sans-serif" font-weight="400" font-size="41" transform="matrix(1 0 0 1 3111.96533203125 922)">20%</text>
		</g>
		<g>
			<text fill="#595959" font-family="Verdana,Open Sans,DejaVu Sans,sans-serif" font-weight="400" font-size="41" transform="matrix(1 0 0 1 3110.82421875 794)">40%</text>
		</g>
		<g>
			<text fill="#595959" font-family="Verdana,Open Sans,DejaVu Sans,sans-serif" font-weight="400" font-size="41" transform="matrix(1 0 0 1 3112.3056640625 666)">60%</text>
		</g>
		<g>
			<text fill="#595959" font-family="Verdana,Open Sans,DejaVu Sans,sans-serif" font-weight="400" font-size="41" transform="matrix(1 0 0 1 3112.04541015625 538)">80%</text>
		</g>
		<g>
			<text fill="#595959" font-family="Verdana,Open Sans,DejaVu Sans,sans-serif" font-weight="400" font-size="41" transform="matrix(1 0 0 1 3090.2841796875 410)">100%</text>
		</g>
		<g>
			<text fill="#595959" font-family="Verdana,Open Sans,DejaVu Sans,sans-serif" font-weight="400" font-size="41" transform="matrix(1 0 0 1 3556.97119140625 1321)">Week Commencing</text>
		</g>
		<g>
			<text fill="#595959" font-family="Verdana,Open Sans,DejaVu Sans,sans-serif" font-weight="400" font-size="46" transform="matrix(6.12323e-17 -1 1 6.12323e-17 3019.73 936.7665710449219)">Requests (% of Total)</text>
		</g>
		<rect x="2918.5" y="347.5" width="1760" height="1043" stroke="#D9D9D9" stroke-width="3.4375" stroke-linejoin="round" stroke-miterlimit="10" fill="none" />
		<g>
			<path d="M3228.5 1038 3249.86 1038 3271.22 1038 3292.58 1038 3313.94 1038 3335.3 1038 3356.66 1038 3378.02 1038 3399.38 1038 3420.74 1038 3442.1 1038 3463.46 1038 3484.82 1038 3506.18 1038 3527.54 1038 3548.9 1038 3570.26 1038 3591.62 1038 3612.98 1038 3634.34 1038 3655.7 1038 3677.06 1038 3698.42 1038 3719.7799999999997 1038 3741.14 1038 3762.5 1038 3783.86 1038 3805.2200000000003 1038 3826.58 1038 3847.94 1038 3869.3 1038 3890.66 1038 3912.02 1038 3933.38 1038 3954.74 1038 3976.1 1038 3997.46 1038 4018.8199999999997 1038 4040.18 1038 4061.54 1038 4082.9 1038 4104.26 1038 4125.62 1038 4146.98 1038 4168.34 1038 4189.7 1038 4211.0599999999995 1038 4232.42 1038 4253.78 1038 4275.139999999999 1038 4296.5 1038 4296.5 643.401215888529 4275.139999999999 644.3338442804811 4253.78 646.711535446821 4232.42 646.5953351574117 4211.0599999999995 648.9964700856017 4189.7 650.4578201384786 4168.34 650.1826843160547 4146.98 650.9511325988744 4125.62 650.9685000981426 4104.26 652.4520688665375 4082.9 654.2438394166766 4061.54 654.1783595408037 4040.18 665.1009269843557 4018.8199999999997 665.0687170796807 3997.46 669.2508046624037 3976.1 668.8015383913383 3954.74 677.0310099621294 3933.38 715.6326502484551 3912.02 731.7898269041518 3890.66 731.6946718722857 3869.3 731.7814057156063 3847.94 731.7708258099874 3826.58 739.179471336138 3805.2200000000003 739.1723277843557 3783.86 742.0464154901043 3762.5 744.981700209997 3741.14 752.0924084860791 3719.7799999999997 755.2385923010361 3698.42 755.2502906288946 3677.06 758.1300732473312 3655.7 768.0870120946274 3634.34 768.0622682813855 3612.98 768.1168972047803 3591.62 768.2021370143037 3570.26 769.6067142131767 3548.9 775.05017459998 3527.54 787.2357258695183 3506.18 787.3092370373995 3484.82 790.9650389728295 3463.46 794.0813847270024 3442.1 798.9713729419469 3420.74 800.9582284854941 3399.38 802.40679729401 3378.02 803.7574587023792 3356.66 804.8795653060993 3335.3 805.7888012756688 3313.94 807.0111198010406 3292.58 808.4993663352112 3271.22 809.5719943405506 3249.86 811.2029187969463 3228.5 852.2537695350034 3228.5 1038Z" fill="#e62d39" opacity="0.9" />
		</g>
		<g>
			<path d="M3228.5 852.2537695350034 3249.86 811.2029187969463 3271.22 809.5719943405506 3292.58 808.4993663352112 3313.94 807.0111198010406 3335.3 805.7888012756688 3356.66 804.8795653060993 3378.02 803.7574587023792 3399.38 802.40679729401 3420.74 800.9582284854941 3442.1 798.9713729419469 3463.46 794.0813847270024 3484.82 790.9650389728295 3506.18 787.3092370373995 3527.54 787.2357258695183 3548.9 775.05017459998 3570.26 769.6067142131767 3591.62 768.2021370143037 3612.98 768.1168972047803 3634.34 768.0622682813855 3655.7 768.0870120946274 3677.06 758.1300732473312 3698.42 755.2502906288946 3719.7799999999997 755.2385923010361 3741.14 752.0924084860791 3762.5 744.981700209997 3783.86 742.0464154901043 3805.2200000000003 739.1723277843557 3826.58 739.179471336138 3847.94 731.7708258099874 3869.3 731.7814057156063 3890.66 731.6946718722857 3912.02 731.7898269041518 3933.38 715.6326502484551 3954.74 677.0310099621294 3976.1 668.8015383913383 3997.46 669.2508046624037 4018.8199999999997 665.0687170796807 4040.18 665.1009269843557 4061.54 654.1783595408037 4082.9 654.2438394166766 4104.26 652.4520688665375 4125.62 650.9685000981426 4146.98 650.9511325988744 4168.34 650.1826843160547 4189.7 650.4578201384786 4211.0599999999995 648.9964700856017 4232.42 646.5953351574117 4253.78 646.711535446821 4275.139999999999 644.3338442804811 4296.5 643.401215888529 4296.5 405.75756216085244 4275.139999999999 405.6890755918336 4253.78 405.4853661204658 4232.42 405.49122463683807 4211.0599999999995 405.2872977777903 4189.7 405.0542403680629 4168.34 404.8267826278017 4146.98 404.3597305581952 4125.62 404.3606360598039 4104.26 404.3133620715407 4082.9 404.2694390318647 4061.54 404.25532206437714 4040.18 404.1006016590141 4018.8199999999997 404.09929675944176 3997.46 404.0956381930635 3976.1 404.12948436436125 3954.74 403.9961122337051 3933.38 403.3494217541671 3912.02 402.9248624726996 3890.66 402.9072043922977 3869.3 402.90877584131425 3847.94 402.9298471234101 3826.58 402.60349792125623 3805.2200000000003 402.6099730048478 3783.86 402.37217547977207 3762.5 402.145050233926 3741.14 401.73578913608276 3719.7799999999997 401.57006086206655 3698.42 401.57128950627384 3677.06 401.4082896460906 3655.7 400.8924429074875 3634.34 400.88896921768406 3612.98 400.93900012801925 3591.62 401.0268406246156 3570.26 400.9092568701918 3548.9 400.9924926084992 3527.54 400.4880580221503 3506.18 400.49608136003764 3484.82 400.2916782230466 3463.46 400.1582567110125 3442.1 399.92908991218985 3420.74 399.9334041710106 3399.38 399.87976806541184 3378.02 399.8310554200369 3356.66 399.7742919400221 3335.3 399.72528771121347 3313.94 399.7049408705508 3292.58 400.00414490488384 3271.22 399.9604159100104 3249.86 399.99059261305484 3228.5 399.58374601455273 3228.5 852.2537695350034Z" fill="#005aa6" opacity="0.9" />
		</g>
		<g>
			<path d="M3228.5 399.58374601455273 3249.86 399.99059261305484 3271.22 399.9604159100104 3292.58 400.00414490488384 3313.94 399.7049408705508 3335.3 399.72528771121347 3356.66 399.7742919400221 3378.02 399.8310554200369 3399.38 399.87976806541184 3420.74 399.9334041710106 3442.1 399.92908991218985 3463.46 400.1582567110125 3484.82 400.2916782230466 3506.18 400.49608136003764 3527.54 400.4880580221503 3548.9 400.9924926084992 3570.26 400.9092568701918 3591.62 401.0268406246156 3612.98 400.93900012801925 3634.34 400.88896921768406 3655.7 400.8924429074875 3677.06 401.4082896460906 3698.42 401.57128950627384 3719.7799999999997 401.57006086206655 3741.14 401.73578913608276 3762.5 402.145050233926 3783.86 402.37217547977207 3805.2200000000003 402.6099730048478 3826.58 402.60349792125623 3847.94 402.9298471234101 3869.3 402.90877584131425 3890.66 402.9072043922977 3912.02 402.9248624726996 3933.38 403.3494217541671 3954.74 403.9961122337051 3976.1 404.12948436436125 3997.46 404.0956381930635 4018.8199999999997 404.09929675944176 4040.18 404.1006016590141 4061.54 404.25532206437714 4082.9 404.2694390318647 4104.26 404.3133620715407 4125.62 404.3606360598039 4146.98 404.3597305581952 4168.34 404.8267826278017 4189.7 405.0542403680629 4211.0599999999995 405.2872977777903 4232.42 405.49122463683807 4253.78 405.4853661204658 4275.139999999999 405.6890755918336 4296.5 405.75756216085244 4296.5 398.00000000000006 4275.139999999999 397.99999999999994 4253.78 398.00000000000006 4232.42 398 4211.0599999999995 398 4189.7 398 4168.34 397.99999999999994 4146.98 397.99999999999994 4125.62 397.99999999999994 4104.26 398.00000000000006 4082.9 398.00000000000006 4061.54 398.0000000000001 4040.18 397.99999999999994 4018.8199999999997 397.9999999999999 3997.46 398.0000000000001 3976.1 398 3954.74 398 3933.38 397.9999999999999 3912.02 398.00000000000006 3890.66 397.99999999999994 3869.3 397.9999999999999 3847.94 398.00000000000006 3826.58 398.00000000000006 3805.2200000000003 397.99999999999994 3783.86 397.99999999999994 3762.5 397.99999999999994 3741.14 398 3719.7799999999997 397.9999999999999 3698.42 397.99999999999994 3677.06 397.99999999999994 3655.7 398 3634.34 398.00000000000006 3612.98 398.00000000000006 3591.62 397.99999999999994 3570.26 397.99999999999994 3548.9 397.99999999999994 3527.54 398.0000000000001 3506.18 398 3484.82 398.00000000000006 3463.46 398 3442.1 398 3420.74 398 3399.38 398 3378.02 398 3356.66 397.99999999999994 3335.3 397.9999999999999 3313.94 398 3292.58 398 3271.22 397.99999999999994 3249.86 398.00000000000006 3228.5 398 3228.5 399.58374601455273Z" fill="#393d41" opacity="0.9" />
		</g>
		<g>
			<rect x="4372" y="431" width="22.9995" height="23" fill="#e62d39" />
		</g>
		<g>
			<text fill="#595959" font-family="Verdana,Open Sans,DejaVu Sans,sans-serif" font-weight="400" font-size="41" transform="matrix(1 0 0 1 4404.56 454)">App</text>
		</g>
		<g>
			<rect x="4372" y="508" width="22.9995" height="23" fill="#005aa6" />
		</g>
		<g>
			<text fill="#595959" font-family="Verdana,Open Sans,DejaVu Sans,sans-serif" font-weight="400" font-size="41" transform="matrix(1 0 0 1 4404.56 531)">Web Browser</text>
		</g>
		<g>
			<rect x="4372" y="585" width="22.9995" height="23" fill="#393d41" />
		</g>
		<g>
			<text fill="#595959" font-family="Verdana,Open Sans,DejaVu Sans,sans-serif" font-weight="400" font-size="41" transform="matrix(1 0 0 1 4404.56 608)">Unclassified</text>
		</g>
	</g>
</svg>
