<svg width="1763" height="1046"
    xmlns="http://www.w3.org/2000/svg"
	xmlns:xlink="http://www.w3.org/1999/xlink" xml:space="preserve" overflow="hidden">
	<defs>
		<clipPath id="clip0">
			<rect x="2917" y="346" width="1763" height="1046"/>
		</clipPath>
	</defs>
	<g clip-path="url(#clip0)" transform="translate(-2917 -346)">
		<rect x="2918" y="347" width="1760" height="1043" fill="#FFFFFF" />
		<g>
			<path d="
			M3228.5 974.532 4296.5 974.532
			M3228.5 910.53 4296.5 910.53
			M3228.5 846.528 4296.5 846.528
			M3228.5 781.526 4296.5 781.526
			M3228.5 717.524 4296.5 717.524
			M3228.5 653.522 4296.5 653.522
			M3228.5 589.52 4296.5 589.52
			M3228.5 525.517 4296.5 525.517
			M3228.5 461.515 4296.5 461.515
			M3228.5 397.5 4296.5 397.5" stroke="#D9D9D9" stroke-width="3.4375" stroke-linejoin="round" stroke-miterlimit="10" fill="none" />
		</g>
		<g>
			<path d="M 1038.5 4296.5 1038.5" stroke="#D9D9D9" stroke-width="3.4375" stroke-linejoin="round" stroke-miterlimit="10" fill="none" fill-rule="evenodd" />
		</g>
		<g>
			<text fill="#595959" font-family="Verdana,Open Sans,DejaVu Sans,sans-serif" font-weight="400" font-size="41" transform="matrix(6.12323e-17 -1 1 6.12323e-17 3243.564697265625 1207.0859375)">09-Dec</text>
		</g>
		<g>
			<text fill="#595959" font-family="Verdana,Open Sans,DejaVu Sans,sans-serif" font-weight="400" font-size="41" transform="matrix(6.12323e-17 -1 1 6.12323e-17 3334.401935188138 1191.6508712768555)">06-Jan</text>
		</g>
		<g>
			<text fill="#595959" font-family="Verdana,Open Sans,DejaVu Sans,sans-serif" font-weight="400" font-size="41" transform="matrix(6.12323e-17 -1 1 6.12323e-17 3418.6427375637754 1203.0419921875)">03-Feb</text>
		</g>
		<g>
			<text fill="#595959" font-family="Verdana,Open Sans,DejaVu Sans,sans-serif" font-weight="400" font-size="41" transform="matrix(6.12323e-17 -1 1 6.12323e-17 3505.1157176737884 1212.0107421875)">03-Mar</text>
		</g>
		<g>
			<text fill="#595959" font-family="Verdana,Open Sans,DejaVu Sans,sans-serif" font-weight="400" font-size="41" transform="matrix(6.12323e-17 -1 1 6.12323e-17 3592.279371611926 1212.1708984375)">31-Mar</text>
		</g>
		<g>
			<text fill="#595959" font-family="Verdana,Open Sans,DejaVu Sans,sans-serif" font-weight="400" font-size="41" transform="matrix(6.12323e-17 -1 1 6.12323e-17 3684.187654456314 1203.3022384643555)">28-Apr</text>
		</g>
		<g>
			<text fill="#595959" font-family="Verdana,Open Sans,DejaVu Sans,sans-serif" font-weight="400" font-size="41" transform="matrix(6.12323e-17 -1 1 6.12323e-17 3771.3713279257017 1216.51513671875)">26-May</text>
		</g>
		<g>
			<text fill="#595959" font-family="Verdana,Open Sans,DejaVu Sans,sans-serif" font-weight="400" font-size="41" transform="matrix(6.12323e-17 -1 1 6.12323e-17 3857.503976004464 1194.1733322143555)">30-Jun</text>
		</g>
		<g>
			<text fill="#595959" font-family="Verdana,Open Sans,DejaVu Sans,sans-serif" font-weight="400" font-size="41" transform="matrix(6.12323e-17 -1 1 6.12323e-17 3945.398342833227 1179.0385665893555)">28-Jul</text>
		</g>
		<g>
			<text fill="#595959" font-family="Verdana,Open Sans,DejaVu Sans,sans-serif" font-weight="400" font-size="41" transform="matrix(6.12323e-17 -1 1 6.12323e-17 4032.9223483338646 1208.66748046875)">25-Aug</text>
		</g>
		<g>
			<text fill="#595959" font-family="Verdana,Open Sans,DejaVu Sans,sans-serif" font-weight="400" font-size="41" transform="matrix(6.12323e-17 -1 1 6.12323e-17 4120.106021803253 1204.42333984375)">22-Sep</text>
		</g>
		<g>
			<text fill="#595959" font-family="Verdana,Open Sans,DejaVu Sans,sans-serif" font-weight="400" font-size="41" transform="matrix(6.12323e-17 -1 1 6.12323e-17 4202.5851054288905 1201.1401290893555)">20-Oct</text>
		</g>
		<g>
			<text fill="#595959" font-family="Verdana,Open Sans,DejaVu Sans,sans-serif" font-weight="400" font-size="41" transform="matrix(6.12323e-17 -1 1 6.12323e-17 4289.5385542889035 1209.70849609375)">17-Nov</text>
		</g>
		<g>
			<text fill="#595959" font-family="Verdana,Open Sans,DejaVu Sans,sans-serif" font-weight="400" font-size="41" transform="matrix(1 0 0 1 3135.4482421875 1050)">0%</text>
		</g>
		<g>
			<text fill="#595959" font-family="Verdana,Open Sans,DejaVu Sans,sans-serif" font-weight="400" font-size="41" transform="matrix(1 0 0 1 3111.96533203125 922)">20%</text>
		</g>
		<g>
			<text fill="#595959" font-family="Verdana,Open Sans,DejaVu Sans,sans-serif" font-weight="400" font-size="41" transform="matrix(1 0 0 1 3110.82421875 794)">40%</text>
		</g>
		<g>
			<text fill="#595959" font-family="Verdana,Open Sans,DejaVu Sans,sans-serif" font-weight="400" font-size="41" transform="matrix(1 0 0 1 3112.3056640625 666)">60%</text>
		</g>
		<g>
			<text fill="#595959" font-family="Verdana,Open Sans,DejaVu Sans,sans-serif" font-weight="400" font-size="41" transform="matrix(1 0 0 1 3112.04541015625 538)">80%</text>
		</g>
		<g>
			<text fill="#595959" font-family="Verdana,Open Sans,DejaVu Sans,sans-serif" font-weight="400" font-size="41" transform="matrix(1 0 0 1 3090.2841796875 410)">100%</text>
		</g>
		<g>
			<text fill="#595959" font-family="Verdana,Open Sans,DejaVu Sans,sans-serif" font-weight="400" font-size="41" transform="matrix(1 0 0 1 3556.97119140625 1321)">Week Commencing</text>
		</g>
		<g>
			<text fill="#595959" font-family="Verdana,Open Sans,DejaVu Sans,sans-serif" font-weight="400" font-size="46" transform="matrix(6.12323e-17 -1 1 6.12323e-17 3019.73 936.7665710449219)">Requests (% of Total)</text>
		</g>
		<rect x="2918.5" y="347.5" width="1760" height="1043" stroke="#D9D9D9" stroke-width="3.4375" stroke-linejoin="round" stroke-miterlimit="10" fill="none" />
		<g>
			<path d="M3228.5 1038 3250.295918367347 1038 3272.091836734694 1038 3293.887755102041 1038 3315.683673469388 1038 3337.4795918367345 1038 3359.2755102040815 1038 3381.0714285714284 1038 3402.8673469387754 1038 3424.6632653061224 1038 3446.4591836734694 1038 3468.2551020408164 1038 3490.0510204081634 1038 3511.8469387755104 1038 3533.6428571428573 1038 3555.4387755102043 1038 3577.234693877551 1038 3599.030612244898 1038 3620.826530612245 1038 3642.622448979592 1038 3664.418367346939 1038 3686.214285714286 1038 3708.0102040816328 1038 3729.8061224489797 1038 3751.6020408163267 1038 3773.3979591836733 1038 3795.1938775510203 1038 3816.9897959183672 1038 3838.785714285714 1038 3860.581632653061 1038 3882.377551020408 1038 3904.173469387755 1038 3925.969387755102 1038 3947.765306122449 1038 3969.5612244897957 1038 3991.357142857143 1038 4013.1530612244896 1038 4034.9489795918366 1038 4056.7448979591836 1038 4078.5408163265306 1038 4100.336734693878 1038 4122.132653061224 1038 4143.928571428572 1038 4165.724489795918 1038 4187.5204081632655 1038 4209.316326530612 1038 4231.1122448979595 1038 4252.908163265306 1038 4274.7040816326535 1038 4296.5 1038 4296.5 668.8015383913383 4274.7040816326535 677.0310099621294 4252.908163265306 715.6326502484551 4231.1122448979595 731.7898269041518 4209.316326530612 731.6946718722857 4187.5204081632655 731.7814057156063 4165.724489795918 731.7708258099874 4143.928571428572 739.179471336138 4122.132653061224 739.1723277843557 4100.336734693878 742.0464154901043 4078.5408163265306 744.981700209997 4056.7448979591836 752.0924084860791 4034.9489795918366 755.2385923010361 4013.1530612244896 755.2502906288946 3991.357142857143 758.1300732473312 3969.5612244897957 768.0870120946274 3947.765306122449 768.0622682813855 3925.969387755102 768.1168972047803 3904.173469387755 768.2021370143037 3882.377551020408 769.6067142131767 3860.581632653061 775.05017459998 3838.785714285714 787.2357258695183 3816.9897959183672 787.3092370373995 3795.1938775510203 790.9650389728295 3773.3979591836733 794.0813847270024 3751.6020408163267 798.9713729419469 3729.8061224489797 800.9582284854941 3708.0102040816328 802.40679729401 3686.214285714286 803.7574587023792 3664.418367346939 804.8795653060993 3642.622448979592 805.7888012756688 3620.826530612245 807.0111198010406 3599.030612244898 808.4993663352112 3577.234693877551 809.5719943405506 3555.4387755102043 811.2029187969463 3533.6428571428573 852.2537695350034 3511.8469387755104 852.7630633018019 3490.0510204081634 853.2128831068969 3468.2551020408164 853.9543792847422 3446.4591836734694 854.2311435356854 3424.6632653061224 854.4163260228272 3402.8673469387754 854.152790599432 3381.0714285714284 854.8107613955362 3359.2755102040815 855.5126405911369 3337.4795918367345 855.9651399118873 3315.683673469388 855.998586062701 3293.887755102041 856.0272811670625 3272.091836734694 855.7572816447105 3250.295918367347 855.1837779796501 3228.5 854.268913435926 3228.5 1038Z" fill="#e62d39" opacity="0.9" />
		</g>
		<g>
			<path d="M3228.5 854.268913435926 3250.295918367347 855.1837779796501 3272.091836734694 855.7572816447105 3293.887755102041 856.0272811670625 3315.683673469388 855.998586062701 3337.4795918367345 855.9651399118873 3359.2755102040815 855.5126405911369 3381.0714285714284 854.8107613955362 3402.8673469387754 854.152790599432 3424.6632653061224 854.4163260228272 3446.4591836734694 854.2311435356854 3468.2551020408164 853.9543792847422 3490.0510204081634 853.2128831068969 3511.8469387755104 852.7630633018019 3533.6428571428573 852.2537695350034 3555.4387755102043 811.2029187969463 3577.234693877551 809.5719943405506 3599.030612244898 808.4993663352112 3620.826530612245 807.0111198010406 3642.622448979592 805.7888012756688 3664.418367346939 804.8795653060993 3686.214285714286 803.7574587023792 3708.0102040816328 802.40679729401 3729.8061224489797 800.9582284854941 3751.6020408163267 798.9713729419469 3773.3979591836733 794.0813847270024 3795.1938775510203 790.9650389728295 3816.9897959183672 787.3092370373995 3838.785714285714 787.2357258695183 3860.581632653061 775.05017459998 3882.377551020408 769.6067142131767 3904.173469387755 768.2021370143037 3925.969387755102 768.1168972047803 3947.765306122449 768.0622682813855 3969.5612244897957 768.0870120946274 3991.357142857143 758.1300732473312 4013.1530612244896 755.2502906288946 4034.9489795918366 755.2385923010361 4056.7448979591836 752.0924084860791 4078.5408163265306 744.981700209997 4100.336734693878 742.0464154901043 4122.132653061224 739.1723277843557 4143.928571428572 739.179471336138 4165.724489795918 731.7708258099874 4187.5204081632655 731.7814057156063 4209.316326530612 731.6946718722857 4231.1122448979595 731.7898269041518 4252.908163265306 715.6326502484551 4274.7040816326535 677.0310099621294 4296.5 668.8015383913383 4296.5 404.12948436436125 4274.7040816326535 403.9961122337051 4252.908163265306 403.3494217541671 4231.1122448979595 402.9248624726996 4209.316326530612 402.9072043922977 4187.5204081632655 402.90877584131425 4165.724489795918 402.9298471234101 4143.928571428572 402.60349792125623 4122.132653061224 402.6099730048478 4100.336734693878 402.37217547977207 4078.5408163265306 402.145050233926 4056.7448979591836 401.73578913608276 4034.9489795918366 401.57006086206655 4013.1530612244896 401.57128950627384 3991.357142857143 401.4082896460906 3969.5612244897957 400.8924429074875 3947.765306122449 400.88896921768406 3925.969387755102 400.93900012801925 3904.173469387755 401.0268406246156 3882.377551020408 400.9092568701918 3860.581632653061 400.9924926084992 3838.785714285714 400.4880580221503 3816.9897959183672 400.49608136003764 3795.1938775510203 400.2916782230466 3773.3979591836733 400.1582567110125 3751.6020408163267 399.92908991218985 3729.8061224489797 399.9334041710106 3708.0102040816328 399.87976806541184 3686.214285714286 399.8310554200369 3664.418367346939 399.7742919400221 3642.622448979592 399.72528771121347 3620.826530612245 399.7049408705508 3599.030612244898 400.00414490488384 3577.234693877551 399.9604159100104 3555.4387755102043 399.99059261305484 3533.6428571428573 399.58374601455273 3511.8469387755104 399.60517704227266 3490.0510204081634 399.5826700216501 3468.2551020408164 398.7693921844428 3446.4591836734694 398.74888189337906 3424.6632653061224 398.7507940349151 3402.8673469387754 398.74677273073394 3381.0714285714284 398.74113436176054 3359.2755102040815 398.7379557747454 3337.4795918367345 398.70704867301595 3315.683673469388 398.70882925199 3293.887755102041 398.70085746190506 3272.091836734694 398.6853554285047 3250.295918367347 398.67102339002776 3228.5 398.67520739706913 3228.5 854.268913435926Z" fill="#005aa6" opacity="0.9" />
		</g>
		<g>
			<path d="M3228.5 398.67520739706913 3250.295918367347 398.67102339002776 3272.091836734694 398.6853554285047 3293.887755102041 398.70085746190506 3315.683673469388 398.70882925199 3337.4795918367345 398.70704867301595 3359.2755102040815 398.7379557747454 3381.0714285714284 398.74113436176054 3402.8673469387754 398.74677273073394 3424.6632653061224 398.7507940349151 3446.4591836734694 398.74888189337906 3468.2551020408164 398.7693921844428 3490.0510204081634 399.5826700216501 3511.8469387755104 399.60517704227266 3533.6428571428573 399.58374601455273 3555.4387755102043 399.99059261305484 3577.234693877551 399.9604159100104 3599.030612244898 400.00414490488384 3620.826530612245 399.7049408705508 3642.622448979592 399.72528771121347 3664.418367346939 399.7742919400221 3686.214285714286 399.8310554200369 3708.0102040816328 399.87976806541184 3729.8061224489797 399.9334041710106 3751.6020408163267 399.92908991218985 3773.3979591836733 400.1582567110125 3795.1938775510203 400.2916782230466 3816.9897959183672 400.49608136003764 3838.785714285714 400.4880580221503 3860.581632653061 400.9924926084992 3882.377551020408 400.9092568701918 3904.173469387755 401.0268406246156 3925.969387755102 400.93900012801925 3947.765306122449 400.88896921768406 3969.5612244897957 400.8924429074875 3991.357142857143 401.4082896460906 4013.1530612244896 401.57128950627384 4034.9489795918366 401.57006086206655 4056.7448979591836 401.73578913608276 4078.5408163265306 402.145050233926 4100.336734693878 402.37217547977207 4122.132653061224 402.6099730048478 4143.928571428572 402.60349792125623 4165.724489795918 402.9298471234101 4187.5204081632655 402.90877584131425 4209.316326530612 402.9072043922977 4231.1122448979595 402.9248624726996 4252.908163265306 403.3494217541671 4274.7040816326535 403.9961122337051 4296.5 404.12948436436125 4296.5 398 4274.7040816326535 398 4252.908163265306 397.9999999999999 4231.1122448979595 398.00000000000006 4209.316326530612 397.99999999999994 4187.5204081632655 397.9999999999999 4165.724489795918 398.00000000000006 4143.928571428572 398.00000000000006 4122.132653061224 397.99999999999994 4100.336734693878 397.99999999999994 4078.5408163265306 397.99999999999994 4056.7448979591836 398 4034.9489795918366 397.9999999999999 4013.1530612244896 397.99999999999994 3991.357142857143 397.99999999999994 3969.5612244897957 398 3947.765306122449 398.00000000000006 3925.969387755102 398.00000000000006 3904.173469387755 397.99999999999994 3882.377551020408 397.99999999999994 3860.581632653061 397.99999999999994 3838.785714285714 398.0000000000001 3816.9897959183672 398 3795.1938775510203 398.00000000000006 3773.3979591836733 398 3751.6020408163267 398 3729.8061224489797 398 3708.0102040816328 398 3686.214285714286 398 3664.418367346939 397.99999999999994 3642.622448979592 397.9999999999999 3620.826530612245 398 3599.030612244898 398 3577.234693877551 397.99999999999994 3555.4387755102043 398.00000000000006 3533.6428571428573 398 3511.8469387755104 398 3490.0510204081634 398 3468.2551020408164 397.99999999999994 3446.4591836734694 398 3424.6632653061224 397.99999999999994 3402.8673469387754 398 3381.0714285714284 398 3359.2755102040815 398.00000000000006 3337.4795918367345 398 3315.683673469388 397.99999999999994 3293.887755102041 398 3272.091836734694 398 3250.295918367347 398.00000000000006 3228.5 398.00000000000006 3228.5 398.67520739706913Z" fill="#393d41" opacity="0.9" />
		</g>
		<g>
			<rect x="4372" y="431" width="22.9995" height="23" fill="#e62d39" />
		</g>
		<g>
			<text fill="#595959" font-family="Verdana,Open Sans,DejaVu Sans,sans-serif" font-weight="400" font-size="41" transform="matrix(1 0 0 1 4404.56 454)">App</text>
		</g>
		<g>
			<rect x="4372" y="508" width="22.9995" height="23" fill="#005aa6" />
		</g>
		<g>
			<text fill="#595959" font-family="Verdana,Open Sans,DejaVu Sans,sans-serif" font-weight="400" font-size="41" transform="matrix(1 0 0 1 4404.56 531)">Web Browser</text>
		</g>
		<g>
			<rect x="4372" y="585" width="22.9995" height="23" fill="#393d41" />
		</g>
		<g>
			<text fill="#595959" font-family="Verdana,Open Sans,DejaVu Sans,sans-serif" font-weight="400" font-size="41" transform="matrix(1 0 0 1 4404.56 608)">Unclassified</text>
		</g>
	</g>
</svg>
