<svg width="1763" height="1046"
    xmlns="http://www.w3.org/2000/svg"
	xmlns:xlink="http://www.w3.org/1999/xlink" xml:space="preserve" overflow="hidden">
	<defs>
		<clipPath id="clip0">
			<rect x="2917" y="346" width="1763" height="1046"/>
		</clipPath>
	</defs>
	<g clip-path="url(#clip0)" transform="translate(-2917 -346)">
		<rect x="2918" y="347" width="1760" height="1043" fill="#FFFFFF" />
		<g>
			<path d="
			M3228.5 974.532 4296.5 974.532
			M3228.5 910.53 4296.5 910.53
			M3228.5 846.528 4296.5 846.528
			M3228.5 781.526 4296.5 781.526
			M3228.5 717.524 4296.5 717.524
			M3228.5 653.522 4296.5 653.522
			M3228.5 589.52 4296.5 589.52
			M3228.5 525.517 4296.5 525.517
			M3228.5 461.515 4296.5 461.515
			M3228.5 397.5 4296.5 397.5" stroke="#D9D9D9" stroke-width="3.4375" stroke-linejoin="round" stroke-miterlimit="10" fill="none" />
		</g>
		<g>
			<path d="M 1038.5 4296.5 1038.5" stroke="#D9D9D9" stroke-width="3.4375" stroke-linejoin="round" stroke-miterlimit="10" fill="none" fill-rule="evenodd" />
		</g>
		<g>
			<text fill="#595959" font-family="Verdana,sans-serif" font-weight="400" font-size="41" transform="matrix(6.12323e-17 -1 1 6.12323e-17 3244.5 1227)">06-Nov</text>
		</g>
		<g>
			<text fill="#595959" font-family="Verdana,sans-serif" font-weight="400" font-size="41" transform="matrix(6.12323e-17 -1 1 6.12323e-17 3337.3695652173915 1226)">20-Nov</text>
		</g>
		<g>
			<text fill="#595959" font-family="Verdana,sans-serif" font-weight="400" font-size="41" transform="matrix(6.12323e-17 -1 1 6.12323e-17 3430.2391304347825 1225)">04-Dec</text>
		</g>
		<g>
			<text fill="#595959" font-family="Verdana,sans-serif" font-weight="400" font-size="41" transform="matrix(6.12323e-17 -1 1 6.12323e-17 3523.108695652174 1222)">18-Dec</text>
		</g>
		<g>
			<text fill="#595959" font-family="Verdana,sans-serif" font-weight="400" font-size="41" transform="matrix(6.12323e-17 -1 1 6.12323e-17 3615.978260869565 1212)">01-Jan</text>
		</g>
		<g>
			<text fill="#595959" font-family="Verdana,sans-serif" font-weight="400" font-size="41" transform="matrix(6.12323e-17 -1 1 6.12323e-17 3708.3478260869565 1209)">15-Jan</text>
		</g>
		<g>
			<text fill="#595959" font-family="Verdana,sans-serif" font-weight="400" font-size="41" transform="matrix(6.12323e-17 -1 1 6.12323e-17 3801.717391304348 1211)">29-Jan</text>
		</g>
		<g>
			<text fill="#595959" font-family="Verdana,sans-serif" font-weight="400" font-size="41" transform="matrix(6.12323e-17 -1 1 6.12323e-17 3894.586956521739 1216)">12-Feb</text>
		</g>
		<g>
			<text fill="#595959" font-family="Verdana,sans-serif" font-weight="400" font-size="41" transform="matrix(6.12323e-17 -1 1 6.12323e-17 3987.4565217391305 1218)">26-Feb</text>
		</g>
		<g>
			<text fill="#595959" font-family="Verdana,sans-serif" font-weight="400" font-size="41" transform="matrix(6.12323e-17 -1 1 6.12323e-17 4079.8260869565215 1222)">11-Mar</text>
		</g>
		<g>
			<text fill="#595959" font-family="Verdana,sans-serif" font-weight="400" font-size="41" transform="matrix(6.12323e-17 -1 1 6.12323e-17 4173.195652173913 1225)">25-Mar</text>
		</g>
		<g>
			<text fill="#595959" font-family="Verdana,sans-serif" font-weight="400" font-size="41" transform="matrix(6.12323e-17 -1 1 6.12323e-17 4269.565217391304 1218)">08-Apr</text>
		</g>
		<g>
			<text fill="#595959" font-family="Verdana,sans-serif" font-weight="400" font-size="41" transform="matrix(1 0 0 1 3167.5 1050)">0</text>
		</g>
		<g>
			<text fill="#595959" font-family="Verdana,sans-serif" font-weight="400" font-size="41" transform="matrix(1 0 0 1 3072.5 922)">2,766</text>
		</g>
		<g>
			<text fill="#595959" font-family="Verdana,sans-serif" font-weight="400" font-size="41" transform="matrix(1 0 0 1 3075.5 794)">5,531</text>
		</g>
		<g>
			<text fill="#595959" font-family="Verdana,sans-serif" font-weight="400" font-size="41" transform="matrix(1 0 0 1 3072.5 666)">8,297</text>
		</g>
		<g>
			<text fill="#595959" font-family="Verdana,sans-serif" font-weight="400" font-size="41" transform="matrix(1 0 0 1 3049.5 538)">11,062</text>
		</g>
		<g>
			<text fill="#595959" font-family="Verdana,sans-serif" font-weight="400" font-size="41" transform="matrix(1 0 0 1 3049.5 410)">13,828</text>
		</g>
		<g>
			<text fill="#595959" font-family="Verdana,sans-serif" font-weight="400" font-size="41" transform="matrix(1 0 0 1 3541.5 1321)">Week Commencing</text>
		</g>
		<g>
			<text fill="#595959" font-family="Verdana,sans-serif" font-weight="400" font-size="46" transform="matrix(6.12323e-17 -1 1 6.12323e-17 3019.73 1035.25)">Number of Browser Profiles</text>
		</g>
		<rect x="2918.5" y="347.5" width="1760" height="1043" stroke="#D9D9D9" stroke-width="3.4375" stroke-linejoin="round" stroke-miterlimit="10" fill="none" />
		<g>
			<path d="M3228.5 1038 3274.9347826086955 1038 3321.3695652173915 1038 3367.804347826087 1038 3414.2391304347825 1038 3460.673913043478 1038 3507.108695652174 1038 3553.5434782608695 1038 3599.978260869565 1038 3646.413043478261 1038 3692.8478260869565 1038 3739.282608695652 1038 3785.717391304348 1038 3832.1521739130435 1038 3878.586956521739 1038 3925.021739130435 1038 3971.4565217391305 1038 4017.891304347826 1038 4064.3260869565215 1038 4110.760869565217 1038 4157.195652173913 1038 4203.630434782609 1038 4250.065217391304 1038 4296.5 1038 4296.5 536.1081862886896 4250.065217391304 537.3578247035001 4203.630434782609 538.8851605438241 4157.195652173913 540.0422331501302 4110.760869565217 541.1067399479317 4064.3260869565215 542.2175296499855 4017.891304347826 543.6522996818051 3971.4565217391305 546.0127277986694 3925.021739130435 546.4755568411917 3878.586956521739 546.8458200752098 3832.1521739130435 548.8359849580561 3785.717391304348 550.8724327451548 3739.282608695652 551.4278275961816 3692.8478260869565 552.260919872722 3646.413043478261 552.9551634365056 3599.978260869565 553.232860862019 3553.5434782608695 553.232860862019 3507.108695652174 554.0196702343071 3460.673913043478 554.4824992768296 3414.2391304347825 555.0378941278565 3367.804347826087 555.9635522129013 3321.3695652173915 556.7503615851895 3274.9347826086955 557.4446051489731 3228.5 557.9537170957477 3228.5 1038Z" fill="#e62d39" opacity="0.9" />
		</g>
		<g>
			<path d="M3228.5 557.9537170957477 3274.9347826086955 557.4446051489731 3321.3695652173915 556.7503615851895 3367.804347826087 555.9635522129013 3414.2391304347825 555.0378941278565 3460.673913043478 554.4824992768296 3507.108695652174 554.0196702343071 3553.5434782608695 553.232860862019 3599.978260869565 553.232860862019 3646.413043478261 552.9551634365056 3692.8478260869565 552.260919872722 3739.282608695652 551.4278275961816 3785.717391304348 550.8724327451548 3832.1521739130435 548.8359849580561 3878.586956521739 546.8458200752098 3925.021739130435 546.4755568411917 3971.4565217391305 546.0127277986694 4017.891304347826 543.6522996818051 4064.3260869565215 542.2175296499855 4110.760869565217 541.1067399479317 4157.195652173913 540.0422331501302 4203.630434782609 538.8851605438241 4250.065217391304 537.3578247035001 4296.5 536.1081862886896 4296.5 397.99999999999994 4250.065217391304 399.4810529360717 4203.630434782609 401.28608620190914 4157.195652173913 402.6745733294764 4110.760869565217 404.38704078680934 4064.3260869565215 406.05322533989005 4017.891304347826 407.5342782759618 3971.4565217391305 410.1724038183396 3925.021739130435 410.6815157651142 3878.586956521739 411.2369106161412 3832.1521739130435 413.50477292450097 3785.717391304348 415.6800694243564 3739.282608695652 416.37431298813993 3692.8478260869565 417.4388197859415 3646.413043478261 418.2719120624819 3599.978260869565 418.6421752964998 3553.5434782608695 418.6421752964998 3507.108695652174 419.6603991900491 3460.673913043478 420.35464275383276 3414.2391304347825 420.9563205091119 3367.804347826087 421.9745444026612 3321.3695652173915 422.9002024877061 3274.9347826086955 423.9184263812554 3228.5 424.612669945039 3228.5 557.9537170957477Z" fill="#005aa6" opacity="0.9" />
		</g>
		<g>
			<rect x="4372" y="431" width="22.9995" height="23" fill="#e62d39" />
		</g>
		<g>
			<text fill="#595959" font-family="Verdana,sans-serif" font-weight="400" font-size="41" transform="matrix(1 0 0 1 4404.56 454)">Web Browser</text>
		</g>
		<g>
			<rect x="4372" y="508" width="22.9995" height="23" fill="#005aa6" />
		</g>
		<g>
			<text fill="#595959" font-family="Verdana,sans-serif" font-weight="400" font-size="41" transform="matrix(1 0 0 1 4404.56 531)">App</text>
		</g>
	</g>
</svg>
