<svg width="1763" height="1046"
    xmlns="http://www.w3.org/2000/svg"
	xmlns:xlink="http://www.w3.org/1999/xlink" xml:space="preserve" overflow="hidden">
	<defs>
		<clipPath id="clip0">
			<rect x="2917" y="346" width="1763" height="1046"/>
		</clipPath>
	</defs>
	<g clip-path="url(#clip0)" transform="translate(-2917 -346)">
		<rect x="2918" y="347" width="1760" height="1043" fill="#FFFFFF" />
		<g>
			<path d="
			M3228.5 974.532 4296.5 974.532
			M3228.5 910.53 4296.5 910.53
			M3228.5 846.528 4296.5 846.528
			M3228.5 781.526 4296.5 781.526
			M3228.5 717.524 4296.5 717.524
			M3228.5 653.522 4296.5 653.522
			M3228.5 589.52 4296.5 589.52
			M3228.5 525.517 4296.5 525.517
			M3228.5 461.515 4296.5 461.515
			M3228.5 397.5 4296.5 397.5" stroke="#D9D9D9" stroke-width="3.4375" stroke-linejoin="round" stroke-miterlimit="10" fill="none" />
		</g>
		<g>
			<path d="M 1038.5 4296.5 1038.5" stroke="#D9D9D9" stroke-width="3.4375" stroke-linejoin="round" stroke-miterlimit="10" fill="none" fill-rule="evenodd" />
		</g>
		<g>
			<text fill="#595959" font-family="Verdana,sans-serif" font-weight="400" font-size="41" transform="matrix(6.12323e-17 -1 1 6.12323e-17 3244.5 1210)">01-Jan</text>
		</g>
		<g>
			<text fill="#595959" font-family="Verdana,sans-serif" font-weight="400" font-size="41" transform="matrix(6.12323e-17 -1 1 6.12323e-17 3328.264705882353 1210)">29-Jan</text>
		</g>
		<g>
			<text fill="#595959" font-family="Verdana,sans-serif" font-weight="400" font-size="41" transform="matrix(6.12323e-17 -1 1 6.12323e-17 3412.029411764706 1216)">26-Feb</text>
		</g>
		<g>
			<text fill="#595959" font-family="Verdana,sans-serif" font-weight="400" font-size="41" transform="matrix(6.12323e-17 -1 1 6.12323e-17 3495.794117647059 1223)">25-Mar</text>
		</g>
		<g>
			<text fill="#595959" font-family="Verdana,sans-serif" font-weight="400" font-size="41" transform="matrix(6.12323e-17 -1 1 6.12323e-17 3583.0588235294117 1216)">22-Apr</text>
		</g>
		<g>
			<text fill="#595959" font-family="Verdana,sans-serif" font-weight="400" font-size="41" transform="matrix(6.12323e-17 -1 1 6.12323e-17 3666.823529411765 1228)">20-May</text>
		</g>
		<g>
			<text fill="#595959" font-family="Verdana,sans-serif" font-weight="400" font-size="41" transform="matrix(6.12323e-17 -1 1 6.12323e-17 3746.5882352941176 1209)">17-Jun</text>
		</g>
		<g>
			<text fill="#595959" font-family="Verdana,sans-serif" font-weight="400" font-size="41" transform="matrix(6.12323e-17 -1 1 6.12323e-17 3830.8529411764707 1194)">15-Jul</text>
		</g>
		<g>
			<text fill="#595959" font-family="Verdana,sans-serif" font-weight="400" font-size="41" transform="matrix(6.12323e-17 -1 1 6.12323e-17 3918.1176470588234 1218)">12-Aug</text>
		</g>
		<g>
			<text fill="#595959" font-family="Verdana,sans-serif" font-weight="400" font-size="41" transform="matrix(6.12323e-17 -1 1 6.12323e-17 4001.8823529411766 1222)">09-Sep</text>
		</g>
		<g>
			<text fill="#595959" font-family="Verdana,sans-serif" font-weight="400" font-size="41" transform="matrix(6.12323e-17 -1 1 6.12323e-17 4082.1470588235293 1215)">07-Oct</text>
		</g>
		<g>
			<text fill="#595959" font-family="Verdana,sans-serif" font-weight="400" font-size="41" transform="matrix(6.12323e-17 -1 1 6.12323e-17 4165.911764705882 1225)">04-Nov</text>
		</g>
		<g>
			<text fill="#595959" font-family="Verdana,sans-serif" font-weight="400" font-size="41" transform="matrix(6.12323e-17 -1 1 6.12323e-17 4249.676470588235 1223)">09-Dec</text>
		</g>
		<g>
			<text fill="#595959" font-family="Verdana,sans-serif" font-weight="400" font-size="41" transform="matrix(1 0 0 1 3167.5 1050)">0</text>
		</g>
		<g>
			<text fill="#595959" font-family="Verdana,sans-serif" font-weight="400" font-size="41" transform="matrix(1 0 0 1 3074.5 922)">2,937</text>
		</g>
		<g>
			<text fill="#595959" font-family="Verdana,sans-serif" font-weight="400" font-size="41" transform="matrix(1 0 0 1 3074.5 794)">5,874</text>
		</g>
		<g>
			<text fill="#595959" font-family="Verdana,sans-serif" font-weight="400" font-size="41" transform="matrix(1 0 0 1 3075.5 666)">8,811</text>
		</g>
		<g>
			<text fill="#595959" font-family="Verdana,sans-serif" font-weight="400" font-size="41" transform="matrix(1 0 0 1 3050.5 538)">11,748</text>
		</g>
		<g>
			<text fill="#595959" font-family="Verdana,sans-serif" font-weight="400" font-size="41" transform="matrix(1 0 0 1 3051.5 410)">14,685</text>
		</g>
		<g>
			<text fill="#595959" font-family="Verdana,sans-serif" font-weight="400" font-size="41" transform="matrix(1 0 0 1 3544.5 1321)">Week Commencing</text>
		</g>
		<g>
			<text fill="#595959" font-family="Verdana,sans-serif" font-weight="400" font-size="46" transform="matrix(6.12323e-17 -1 1 6.12323e-17 3019.73 1030.75)">Number of Browser Profiles</text>
		</g>
		<rect x="2918.5" y="347.5" width="1760" height="1043" stroke="#D9D9D9" stroke-width="3.4375" stroke-linejoin="round" stroke-miterlimit="10" fill="none" />
		<g>
			<path d="M3228.5 1038 3249.4411764705883 1038 3270.3823529411766 1038 3291.323529411765 1038 3312.264705882353 1038 3333.205882352941 1038 3354.1470588235293 1038 3375.0882352941176 1038 3396.029411764706 1038 3416.970588235294 1038 3437.9117647058824 1038 3458.8529411764707 1038 3479.794117647059 1038 3500.735294117647 1038 3521.676470588235 1038 3542.6176470588234 1038 3563.5588235294117 1038 3584.5 1038 3605.4411764705883 1038 3626.3823529411766 1038 3647.323529411765 1038 3668.264705882353 1038 3689.205882352941 1038 3710.1470588235293 1038 3731.0882352941176 1038 3752.029411764706 1038 3772.970588235294 1038 3793.9117647058824 1038 3814.8529411764707 1038 3835.7941176470586 1038 3856.735294117647 1038 3877.676470588235 1038 3898.6176470588234 1038 3919.5588235294117 1038 3940.5 1038 3961.4411764705883 1038 3982.3823529411766 1038 4003.323529411765 1038 4024.264705882353 1038 4045.2058823529414 1038 4066.1470588235293 1038 4087.0882352941176 1038 4108.029411764706 1038 4128.970588235294 1038 4149.911764705882 1038 4170.85294117647 1038 4191.794117647059 1038 4212.735294117647 1038 4233.676470588235 1038 4254.617647058823 1038 4275.558823529412 1038 4296.5 1038 4296.5 535.1957780047668 4275.558823529412 535.5008512087164 4254.617647058823 536.5032345931222 4233.676470588235 537.2441266598571 4212.735294117647 538.9002383384407 4191.794117647059 539.9897854954036 4170.85294117647 540.6435137895812 4149.911764705882 541.297242083759 4128.970588235294 542.2560435818864 4108.029411764706 543.0405175348997 4087.0882352941176 543.7814096016343 4066.1470588235293 544.6966292134832 4045.2058823529414 546.0912495743958 4024.264705882353 546.5270684371808 4003.323529411765 547.6601974804223 3982.3823529411766 548.6189989785496 3961.4411764705883 549.2727272727273 3940.5 550.2315287708547 3919.5588235294117 550.7980932924754 3898.6176470588234 551.4082397003746 3877.676470588235 552.367041198502 3856.735294117647 553.1950970377936 3835.7941176470586 553.9795709908069 3814.8529411764707 554.5461355124277 3793.9117647058824 554.9819543752128 3772.970588235294 555.4177732379981 3752.029411764706 556.4637385086824 3731.0882352941176 557.2046305754171 3710.1470588235293 557.9455226421519 3689.205882352941 559.0786516853933 3668.264705882353 560.1681988423561 3647.323529411765 561.170582226762 3626.3823529411766 561.6499829758257 3605.4411764705883 562.2165474974464 3584.5 562.9138576779027 3563.5588235294117 564.2213142662581 3542.6176470588234 565.398025195778 3521.676470588235 566.5747361252979 3500.735294117647 568.012938372489 3479.794117647059 569.1024855294519 3458.8529411764707 570.1048689138577 3437.9117647058824 571.1508341845421 3416.970588235294 572.5018726591761 3396.029411764706 574.7245488593803 3375.0882352941176 575.1603677221656 3354.1470588235293 575.5090228123936 3333.205882352941 577.3830439223698 3312.264705882353 579.3006469186245 3291.323529411765 579.8236295539666 3270.3823529411766 580.6081035069799 3249.4411764705883 581.2618318011577 3228.5 581.5233231188288 3228.5 1038Z" fill="#e62d39" opacity="0.9" />
		</g>
		<g>
			<path d="M3228.5 581.5233231188288 3249.4411764705883 581.2618318011577 3270.3823529411766 580.6081035069799 3291.323529411765 579.8236295539666 3312.264705882353 579.3006469186245 3333.205882352941 577.3830439223698 3354.1470588235293 575.5090228123936 3375.0882352941176 575.1603677221656 3396.029411764706 574.7245488593803 3416.970588235294 572.5018726591761 3437.9117647058824 571.1508341845421 3458.8529411764707 570.1048689138577 3479.794117647059 569.1024855294519 3500.735294117647 568.012938372489 3521.676470588235 566.5747361252979 3542.6176470588234 565.398025195778 3563.5588235294117 564.2213142662581 3584.5 562.9138576779027 3605.4411764705883 562.2165474974464 3626.3823529411766 561.6499829758257 3647.323529411765 561.170582226762 3668.264705882353 560.1681988423561 3689.205882352941 559.0786516853933 3710.1470588235293 557.9455226421519 3731.0882352941176 557.2046305754171 3752.029411764706 556.4637385086824 3772.970588235294 555.4177732379981 3793.9117647058824 554.9819543752128 3814.8529411764707 554.5461355124277 3835.7941176470586 553.9795709908069 3856.735294117647 553.1950970377936 3877.676470588235 552.367041198502 3898.6176470588234 551.4082397003746 3919.5588235294117 550.7980932924754 3940.5 550.2315287708547 3961.4411764705883 549.2727272727273 3982.3823529411766 548.6189989785496 4003.323529411765 547.6601974804223 4024.264705882353 546.5270684371808 4045.2058823529414 546.0912495743958 4066.1470588235293 544.6966292134832 4087.0882352941176 543.7814096016343 4108.029411764706 543.0405175348997 4128.970588235294 542.2560435818864 4149.911764705882 541.297242083759 4170.85294117647 540.6435137895812 4191.794117647059 539.9897854954036 4212.735294117647 538.9002383384407 4233.676470588235 537.2441266598571 4254.617647058823 536.5032345931222 4275.558823529412 535.5008512087164 4296.5 535.1957780047668 4296.5 398 4275.558823529412 398.30507320394963 4254.617647058823 399.48178413346955 4233.676470588235 400.44058563159695 4212.735294117647 402.40177051413013 4191.794117647059 403.7528089887642 4170.85294117647 404.62444671433434 4149.911764705882 406.06264896152544 4128.970588235294 407.2393598910454 4108.029411764706 408.19816138917275 4087.0882352941176 409.1133810010215 4066.1470588235293 410.1593462717059 4045.2058823529414 411.684712291454 4024.264705882353 412.2948586993531 4003.323529411765 413.73306094654424 3982.3823529411766 414.90977187606404 3961.4411764705883 415.7378277153558 3940.5 416.91453864487573 3919.5588235294117 417.56826693905356 3898.6176470588234 418.4834865509023 3877.676470588235 419.52945182158675 3856.735294117647 420.5318352059925 3835.7941176470586 421.44705481784126 3814.8529411764707 422.013619339462 3793.9117647058824 422.5366019748042 3772.970588235294 423.2774940415391 3752.029411764706 424.4977868573375 3731.0882352941176 425.41300646918626 3710.1470588235293 426.37180796731366 3689.205882352941 427.8100102145047 3668.264705882353 429.11746680286 3647.323529411765 430.2505958461015 3626.3823529411766 430.9043241402792 3605.4411764705883 431.60163432073546 3584.5 432.42969016002735 3563.5588235294117 433.9550561797753 3542.6176470588234 435.3496765406878 3521.676470588235 436.74429690160025 3500.735294117647 438.4439904664624 3479.794117647059 439.7514470548179 3458.8529411764707 441.3639768471229 3437.9117647058824 442.9329247531495 3416.970588235294 444.3275451140621 3396.029411764706 446.8117126319373 3375.0882352941176 447.29111338100114 3354.1470588235293 447.8140960163432 3333.205882352941 449.9496084439905 3312.264705882353 451.99795709908074 3291.323529411765 452.6516853932584 3270.3823529411766 453.6540687776643 3249.4411764705883 454.43854273067757 3228.5 454.78719782090576 3228.5 581.5233231188288Z" fill="#005aa6" opacity="0.9" />
		</g>
		<g>
			<rect x="4372" y="431" width="22.9995" height="23" fill="#e62d39" />
		</g>
		<g>
			<text fill="#595959" font-family="Verdana,sans-serif" font-weight="400" font-size="41" transform="matrix(1 0 0 1 4404.56 454)">Web Browser</text>
		</g>
		<g>
			<rect x="4372" y="508" width="22.9995" height="23" fill="#005aa6" />
		</g>
		<g>
			<text fill="#595959" font-family="Verdana,sans-serif" font-weight="400" font-size="41" transform="matrix(1 0 0 1 4404.56 531)">App</text>
		</g>
	</g>
</svg>
