<svg width="1763" height="1046"
    xmlns="http://www.w3.org/2000/svg"
	xmlns:xlink="http://www.w3.org/1999/xlink" xml:space="preserve" overflow="hidden">
	<defs>
		<clipPath id="clip0">
			<rect x="2917" y="346" width="1763" height="1046"/>
		</clipPath>
	</defs>
	<g clip-path="url(#clip0)" transform="translate(-2917 -346)">
		<rect x="2918" y="347" width="1760" height="1043" fill="#FFFFFF" />
		<g>
			<path d="
			M3228.5 974.532 4296.5 974.532
			M3228.5 910.53 4296.5 910.53
			M3228.5 846.528 4296.5 846.528
			M3228.5 781.526 4296.5 781.526
			M3228.5 717.524 4296.5 717.524
			M3228.5 653.522 4296.5 653.522
			M3228.5 589.52 4296.5 589.52
			M3228.5 525.517 4296.5 525.517
			M3228.5 461.515 4296.5 461.515
			M3228.5 397.5 4296.5 397.5" stroke="#D9D9D9" stroke-width="3.4375" stroke-linejoin="round" stroke-miterlimit="10" fill="none" />
		</g>
		<g>
			<path d="M 1038.5 4296.5 1038.5" stroke="#D9D9D9" stroke-width="3.4375" stroke-linejoin="round" stroke-miterlimit="10" fill="none" fill-rule="evenodd" />
		</g>
		<g>
			<text fill="#595959" font-family="Verdana,sans-serif" font-weight="400" font-size="41" transform="matrix(6.12323e-17 -1 1 6.12323e-17 3244.5 1225)">06-Nov</text>
		</g>
		<g>
			<text fill="#595959" font-family="Verdana,sans-serif" font-weight="400" font-size="41" transform="matrix(6.12323e-17 -1 1 6.12323e-17 3348.6951219512193 1223)">04-Dec</text>
		</g>
		<g>
			<text fill="#595959" font-family="Verdana,sans-serif" font-weight="400" font-size="41" transform="matrix(6.12323e-17 -1 1 6.12323e-17 3452.890243902439 1210)">01-Jan</text>
		</g>
		<g>
			<text fill="#595959" font-family="Verdana,sans-serif" font-weight="400" font-size="41" transform="matrix(6.12323e-17 -1 1 6.12323e-17 3557.0853658536585 1210)">29-Jan</text>
		</g>
		<g>
			<text fill="#595959" font-family="Verdana,sans-serif" font-weight="400" font-size="41" transform="matrix(6.12323e-17 -1 1 6.12323e-17 3661.2804878048782 1216)">26-Feb</text>
		</g>
		<g>
			<text fill="#595959" font-family="Verdana,sans-serif" font-weight="400" font-size="41" transform="matrix(6.12323e-17 -1 1 6.12323e-17 3765.4756097560976 1223)">25-Mar</text>
		</g>
		<g>
			<text fill="#595959" font-family="Verdana,sans-serif" font-weight="400" font-size="41" transform="matrix(6.12323e-17 -1 1 6.12323e-17 3873.170731707317 1216)">22-Apr</text>
		</g>
		<g>
			<text fill="#595959" font-family="Verdana,sans-serif" font-weight="400" font-size="41" transform="matrix(6.12323e-17 -1 1 6.12323e-17 3977.3658536585363 1228)">20-May</text>
		</g>
		<g>
			<text fill="#595959" font-family="Verdana,sans-serif" font-weight="400" font-size="41" transform="matrix(6.12323e-17 -1 1 6.12323e-17 4077.560975609756 1209)">17-Jun</text>
		</g>
		<g>
			<text fill="#595959" font-family="Verdana,sans-serif" font-weight="400" font-size="41" transform="matrix(6.12323e-17 -1 1 6.12323e-17 4182.256097560976 1194)">15-Jul</text>
		</g>
		<g>
			<text fill="#595959" font-family="Verdana,sans-serif" font-weight="400" font-size="41" transform="matrix(6.12323e-17 -1 1 6.12323e-17 4289.951219512195 1218)">12-Aug</text>
		</g>
		<g>
			<text fill="#595959" font-family="Verdana,sans-serif" font-weight="400" font-size="41" transform="matrix(1 0 0 1 3167.5 1050)">0</text>
		</g>
		<g>
			<text fill="#595959" font-family="Verdana,sans-serif" font-weight="400" font-size="41" transform="matrix(1 0 0 1 3074.5 922)">2,847</text>
		</g>
		<g>
			<text fill="#595959" font-family="Verdana,sans-serif" font-weight="400" font-size="41" transform="matrix(1 0 0 1 3074.5 794)">5,694</text>
		</g>
		<g>
			<text fill="#595959" font-family="Verdana,sans-serif" font-weight="400" font-size="41" transform="matrix(1 0 0 1 3073.5 666)">8,542</text>
		</g>
		<g>
			<text fill="#595959" font-family="Verdana,sans-serif" font-weight="400" font-size="41" transform="matrix(1 0 0 1 3051.5 538)">11,389</text>
		</g>
		<g>
			<text fill="#595959" font-family="Verdana,sans-serif" font-weight="400" font-size="41" transform="matrix(1 0 0 1 3050.5 410)">14,236</text>
		</g>
		<g>
			<text fill="#595959" font-family="Verdana,sans-serif" font-weight="400" font-size="41" transform="matrix(1 0 0 1 3544.5 1321)">Week Commencing</text>
		</g>
		<g>
			<text fill="#595959" font-family="Verdana,sans-serif" font-weight="400" font-size="46" transform="matrix(6.12323e-17 -1 1 6.12323e-17 3019.73 1030.75)">Number of Browser Profiles</text>
		</g>
		<rect x="2918.5" y="347.5" width="1760" height="1043" stroke="#D9D9D9" stroke-width="3.4375" stroke-linejoin="round" stroke-miterlimit="10" fill="none" />
		<g>
			<path d="M3228.5 1038 3254.548780487805 1038 3280.5975609756097 1038 3306.6463414634145 1038 3332.6951219512193 1038 3358.743902439024 1038 3384.7926829268295 1038 3410.8414634146343 1038 3436.890243902439 1038 3462.939024390244 1038 3488.987804878049 1038 3515.0365853658536 1038 3541.0853658536585 1038 3567.1341463414633 1038 3593.182926829268 1038 3619.231707317073 1038 3645.2804878048782 1038 3671.329268292683 1038 3697.378048780488 1038 3723.4268292682927 1038 3749.4756097560976 1038 3775.5243902439024 1038 3801.5731707317073 1038 3827.621951219512 1038 3853.670731707317 1038 3879.7195121951218 1038 3905.7682926829266 1038 3931.8170731707314 1038 3957.8658536585363 1038 3983.9146341463415 1038 4009.9634146341464 1038 4036.012195121951 1038 4062.060975609756 1038 4088.109756097561 1038 4114.158536585366 1038 4140.207317073171 1038 4166.256097560976 1038 4192.304878048781 1038 4218.3536585365855 1038 4244.40243902439 1038 4270.451219512195 1038 4296.5 1038 4296.5 535.4318628828323 4270.451219512195 536.0612531610003 4244.40243902439 537.050295026693 4218.3536585365855 537.9044675470639 4192.304878048781 538.7136836189941 4166.256097560976 539.2981174487215 4140.207317073171 539.7476819331273 4114.158536585366 540.197246417533 4088.109756097561 541.2762011801068 4062.060975609756 542.0404608035965 4036.012195121951 542.8047204270863 4009.9634146341464 543.9735880865412 3983.9146341463415 545.0974992975555 3957.8658536585363 546.1314976116887 3931.8170731707314 546.626018544535 3905.7682926829266 547.2104523742624 3879.7195121951218 547.9297555493116 3853.670731707317 549.2784490025288 3827.621951219512 550.4922731104243 3801.5731707317073 551.7060972183198 3775.5243902439024 553.1896600168586 3749.4756097560976 554.313571227873 3723.4268292682927 555.3475695420062 3697.378048780488 556.42652430458 3671.329268292683 557.8201742062377 3645.2804878048782 560.112953076707 3619.231707317073 560.5625175611127 3593.182926829268 560.9221691486373 3567.1341463414633 562.8552964315819 3541.0853658536585 564.8333801629672 3515.0365853658536 565.372857544254 3488.987804878049 566.1820736161844 3462.939024390244 566.856420342793 3436.890243902439 567.1261590334364 3410.8414634146343 567.1261590334364 3384.7926829268295 567.8904186569262 3358.743902439024 568.3399831413319 3332.6951219512193 568.8794605226187 3306.6463414634145 569.7785894914302 3280.5975609756097 570.5428491149199 3254.548780487805 571.2171958415286 3228.5 571.7117167743748 3228.5 1038Z" fill="#e62d39" opacity="0.9" />
		</g>
		<g>
			<path d="M3228.5 571.7117167743748 3254.548780487805 571.2171958415286 3280.5975609756097 570.5428491149199 3306.6463414634145 569.7785894914302 3332.6951219512193 568.8794605226187 3358.743902439024 568.3399831413319 3384.7926829268295 567.8904186569262 3410.8414634146343 567.1261590334364 3436.890243902439 567.1261590334364 3462.939024390244 566.856420342793 3488.987804878049 566.1820736161844 3515.0365853658536 565.372857544254 3541.0853658536585 564.8333801629672 3567.1341463414633 562.8552964315819 3593.182926829268 560.9221691486373 3619.231707317073 560.5625175611127 3645.2804878048782 560.112953076707 3671.329268292683 557.8201742062377 3697.378048780488 556.42652430458 3723.4268292682927 555.3475695420062 3749.4756097560976 554.313571227873 3775.5243902439024 553.1896600168586 3801.5731707317073 551.7060972183198 3827.621951219512 550.4922731104243 3853.670731707317 549.2784490025288 3879.7195121951218 547.9297555493116 3905.7682926829266 547.2104523742624 3931.8170731707314 546.626018544535 3957.8658536585363 546.1314976116887 3983.9146341463415 545.0974992975555 4009.9634146341464 543.9735880865412 4036.012195121951 542.8047204270863 4062.060975609756 542.0404608035965 4088.109756097561 541.2762011801068 4114.158536585366 540.197246417533 4140.207317073171 539.7476819331273 4166.256097560976 539.2981174487215 4192.304878048781 538.7136836189941 4218.3536585365855 537.9044675470639 4244.40243902439 537.050295026693 4270.451219512195 536.0612531610003 4296.5 535.4318628828323 4296.5 398.0000000000001 4270.451219512195 398.94408541725204 4244.40243902439 400.0230401798259 4218.3536585365855 401.05703849395906 4192.304878048781 402.00112391121104 4166.256097560976 402.5855577409385 4140.207317073171 403.12503512222537 4114.158536585366 403.8892947457151 4088.109756097561 405.1480753020512 4062.060975609756 406.09216071930314 4036.012195121951 407.0812025849958 4009.9634146341464 408.5647653835348 3983.9146341463415 409.9134588367519 3957.8658536585363 411.08232649620686 3931.8170731707314 411.7566732228154 3905.7682926829266 412.4759763978646 3879.7195121951218 413.33014891823547 3853.670731707317 414.9036246136555 3827.621951219512 416.3422309637539 3801.5731707317073 417.7808373138522 3775.5243902439024 419.5341388030345 3749.4756097560976 420.8828322562518 3723.4268292682927 422.54622084855305 3697.378048780488 424.1646529924136 3671.329268292683 425.60325934251193 3645.2804878048782 428.16577690362465 3619.231707317073 428.66029783647093 3593.182926829268 429.19977521775786 3567.1341463414633 431.4026411913459 3541.0853658536585 433.51559426805284 3515.0365853658536 434.1899409946614 3488.987804878049 435.2239393087947 3462.939024390244 436.03315538072496 3436.890243902439 436.3928069682495 3410.8414634146343 436.3928069682495 3384.7926829268295 437.3818488339422 3358.743902439024 438.0561955605508 3332.6951219512193 438.64062939027815 3306.6463414634145 439.62967125597083 3280.5975609756097 440.52880022478223 3254.548780487805 441.5178420904749 3228.5 442.1921888170835 3228.5 571.7117167743748Z" fill="#005aa6" opacity="0.9" />
		</g>
		<g>
			<rect x="4372" y="431" width="22.9995" height="23" fill="#e62d39" />
		</g>
		<g>
			<text fill="#595959" font-family="Verdana,sans-serif" font-weight="400" font-size="41" transform="matrix(1 0 0 1 4404.56 454)">Web Browser</text>
		</g>
		<g>
			<rect x="4372" y="508" width="22.9995" height="23" fill="#005aa6" />
		</g>
		<g>
			<text fill="#595959" font-family="Verdana,sans-serif" font-weight="400" font-size="41" transform="matrix(1 0 0 1 4404.56 531)">App</text>
		</g>
	</g>
</svg>
