<svg width="1763" height="1046"
    xmlns="http://www.w3.org/2000/svg"
	xmlns:xlink="http://www.w3.org/1999/xlink" xml:space="preserve" overflow="hidden">
	<defs>
		<clipPath id="clip0">
			<rect x="2917" y="346" width="1763" height="1046"/>
		</clipPath>
	</defs>
	<g clip-path="url(#clip0)" transform="translate(-2917 -346)">
		<rect x="2918" y="347" width="1760" height="1043" fill="#FFFFFF" />
		<g>
			<path d="
			M3228.5 974.532 4296.5 974.532
			M3228.5 910.53 4296.5 910.53
			M3228.5 846.528 4296.5 846.528
			M3228.5 781.526 4296.5 781.526
			M3228.5 717.524 4296.5 717.524
			M3228.5 653.522 4296.5 653.522
			M3228.5 589.52 4296.5 589.52
			M3228.5 525.517 4296.5 525.517
			M3228.5 461.515 4296.5 461.515
			M3228.5 397.5 4296.5 397.5" stroke="#D9D9D9" stroke-width="3.4375" stroke-linejoin="round" stroke-miterlimit="10" fill="none" />
		</g>
		<g>
			<path d="M 1038.5 4296.5 1038.5" stroke="#D9D9D9" stroke-width="3.4375" stroke-linejoin="round" stroke-miterlimit="10" fill="none" fill-rule="evenodd" />
		</g>
		<g>
			<text fill="#595959" font-family="Verdana,Open Sans,DejaVu Sans,sans-serif" font-weight="400" font-size="41" transform="matrix(6.12323e-17 -1 1 6.12323e-17 3248.269287109375 1216.51513671875)">26-May</text>
		</g>
		<g>
			<text fill="#595959" font-family="Verdana,Open Sans,DejaVu Sans,sans-serif" font-weight="400" font-size="41" transform="matrix(6.12323e-17 -1 1 6.12323e-17 3332.65826171875 1194.1733322143555)">30-Jun</text>
		</g>
		<g>
			<text fill="#595959" font-family="Verdana,Open Sans,DejaVu Sans,sans-serif" font-weight="400" font-size="41" transform="matrix(6.12323e-17 -1 1 6.12323e-17 3418.808955078125 1179.0385665893555)">28-Jul</text>
		</g>
		<g>
			<text fill="#595959" font-family="Verdana,Open Sans,DejaVu Sans,sans-serif" font-weight="400" font-size="41" transform="matrix(6.12323e-17 -1 1 6.12323e-17 3504.589287109375 1208.66748046875)">25-Aug</text>
		</g>
		<g>
			<text fill="#595959" font-family="Verdana,Open Sans,DejaVu Sans,sans-serif" font-weight="400" font-size="41" transform="matrix(6.12323e-17 -1 1 6.12323e-17 3590.029287109375 1204.42333984375)">22-Sep</text>
		</g>
		<g>
			<text fill="#595959" font-family="Verdana,Open Sans,DejaVu Sans,sans-serif" font-weight="400" font-size="41" transform="matrix(6.12323e-17 -1 1 6.12323e-17 3670.764697265625 1201.1401290893555)">20-Oct</text>
		</g>
		<g>
			<text fill="#595959" font-family="Verdana,Open Sans,DejaVu Sans,sans-serif" font-weight="400" font-size="41" transform="matrix(6.12323e-17 -1 1 6.12323e-17 3755.97447265625 1209.70849609375)">17-Nov</text>
		</g>
		<g>
			<text fill="#595959" font-family="Verdana,Open Sans,DejaVu Sans,sans-serif" font-weight="400" font-size="41" transform="matrix(6.12323e-17 -1 1 6.12323e-17 3841.41447265625 1205.3642578125)">15-Dec</text>
		</g>
		<g>
			<text fill="#595959" font-family="Verdana,Open Sans,DejaVu Sans,sans-serif" font-weight="400" font-size="41" transform="matrix(6.12323e-17 -1 1 6.12323e-17 3930.7182421875 1189.9291915893555)">12-Jan</text>
		</g>
		<g>
			<text fill="#595959" font-family="Verdana,Open Sans,DejaVu Sans,sans-serif" font-weight="400" font-size="41" transform="matrix(6.12323e-17 -1 1 6.12323e-17 4013.235390625 1203.0419921875)">09-Feb</text>
		</g>
		<g>
			<text fill="#595959" font-family="Verdana,Open Sans,DejaVu Sans,sans-serif" font-weight="400" font-size="41" transform="matrix(6.12323e-17 -1 1 6.12323e-17 4097.964697265625 1212.0107421875)">09-Mar</text>
		</g>
		<g>
			<text fill="#595959" font-family="Verdana,Open Sans,DejaVu Sans,sans-serif" font-weight="400" font-size="41" transform="matrix(6.12323e-17 -1 1 6.12323e-17 4188.129306640625 1203.2621994018555)">06-Apr</text>
		</g>
		<g>
			<text fill="#595959" font-family="Verdana,Open Sans,DejaVu Sans,sans-serif" font-weight="400" font-size="41" transform="matrix(6.12323e-17 -1 1 6.12323e-17 4273.569306640625 1216.47509765625)">04-May</text>
		</g>
		<g>
			<text fill="#595959" font-family="Verdana,Open Sans,DejaVu Sans,sans-serif" font-weight="400" font-size="41" transform="matrix(1 0 0 1 3135.4482421875 1050)">0%</text>
		</g>
		<g>
			<text fill="#595959" font-family="Verdana,Open Sans,DejaVu Sans,sans-serif" font-weight="400" font-size="41" transform="matrix(1 0 0 1 3111.96533203125 922)">20%</text>
		</g>
		<g>
			<text fill="#595959" font-family="Verdana,Open Sans,DejaVu Sans,sans-serif" font-weight="400" font-size="41" transform="matrix(1 0 0 1 3110.82421875 794)">40%</text>
		</g>
		<g>
			<text fill="#595959" font-family="Verdana,Open Sans,DejaVu Sans,sans-serif" font-weight="400" font-size="41" transform="matrix(1 0 0 1 3112.3056640625 666)">60%</text>
		</g>
		<g>
			<text fill="#595959" font-family="Verdana,Open Sans,DejaVu Sans,sans-serif" font-weight="400" font-size="41" transform="matrix(1 0 0 1 3112.04541015625 538)">80%</text>
		</g>
		<g>
			<text fill="#595959" font-family="Verdana,Open Sans,DejaVu Sans,sans-serif" font-weight="400" font-size="41" transform="matrix(1 0 0 1 3090.2841796875 410)">100%</text>
		</g>
		<g>
			<text fill="#595959" font-family="Verdana,Open Sans,DejaVu Sans,sans-serif" font-weight="400" font-size="41" transform="matrix(1 0 0 1 3556.97119140625 1321)">Week Commencing</text>
		</g>
		<g>
			<text fill="#595959" font-family="Verdana,Open Sans,DejaVu Sans,sans-serif" font-weight="400" font-size="46" transform="matrix(6.12323e-17 -1 1 6.12323e-17 3019.73 936.7665710449219)">Requests (% of Total)</text>
		</g>
		<rect x="2918.5" y="347.5" width="1760" height="1043" stroke="#D9D9D9" stroke-width="3.4375" stroke-linejoin="round" stroke-miterlimit="10" fill="none" />
		<g>
			<path d="M3228.5 1038 3249.86 1038 3271.22 1038 3292.58 1038 3313.94 1038 3335.3 1038 3356.66 1038 3378.02 1038 3399.38 1038 3420.74 1038 3442.1 1038 3463.46 1038 3484.82 1038 3506.18 1038 3527.54 1038 3548.9 1038 3570.26 1038 3591.62 1038 3612.98 1038 3634.34 1038 3655.7 1038 3677.06 1038 3698.42 1038 3719.7799999999997 1038 3741.14 1038 3762.5 1038 3783.86 1038 3805.2200000000003 1038 3826.58 1038 3847.94 1038 3869.3 1038 3890.66 1038 3912.02 1038 3933.38 1038 3954.74 1038 3976.1 1038 3997.46 1038 4018.8199999999997 1038 4040.18 1038 4061.54 1038 4082.9 1038 4104.26 1038 4125.62 1038 4146.98 1038 4168.34 1038 4189.7 1038 4211.0599999999995 1038 4232.42 1038 4253.78 1038 4275.139999999999 1038 4296.5 1038 4296.5 642.039984670155 4275.139999999999 641.7883242512185 4253.78 641.6386088112265 4232.42 641.5584180917222 4211.0599999999995 641.2396613478342 4189.7 639.6433470430949 4168.34 641.0825381110685 4146.98 641.3274589400961 4125.62 641.6145313440886 4104.26 642.4444914583115 4082.9 643.401215888529 4061.54 644.3338442804811 4040.18 646.711535446821 4018.8199999999997 646.5953351574117 3997.46 648.9964700856017 3976.1 650.4578201384786 3954.74 650.1826843160547 3933.38 650.9511325988744 3912.02 650.9685000981426 3890.66 652.4520688665375 3869.3 654.2438394166766 3847.94 654.1783595408037 3826.58 665.1009269843557 3805.2200000000003 665.0687170796807 3783.86 669.2508046624037 3762.5 668.8015383913383 3741.14 677.0310099621294 3719.7799999999997 715.6326502484551 3698.42 731.7898269041518 3677.06 731.6946718722857 3655.7 731.7814057156063 3634.34 731.7708258099874 3612.98 739.179471336138 3591.62 739.1723277843557 3570.26 742.0464154901043 3548.9 744.981700209997 3527.54 752.0924084860791 3506.18 755.2385923010361 3484.82 755.2502906288946 3463.46 758.1300732473312 3442.1 768.0870120946274 3420.74 768.0622682813855 3399.38 768.1168972047803 3378.02 768.2021370143037 3356.66 769.6067142131767 3335.3 775.05017459998 3313.94 787.2357258695183 3292.58 787.3092370373995 3271.22 790.9650389728295 3249.86 794.0813847270024 3228.5 798.9713729419469 3228.5 1038Z" fill="#e62d39" opacity="0.9" />
		</g>
		<g>
			<path d="M3228.5 798.9713729419469 3249.86 794.0813847270024 3271.22 790.9650389728295 3292.58 787.3092370373995 3313.94 787.2357258695183 3335.3 775.05017459998 3356.66 769.6067142131767 3378.02 768.2021370143037 3399.38 768.1168972047803 3420.74 768.0622682813855 3442.1 768.0870120946274 3463.46 758.1300732473312 3484.82 755.2502906288946 3506.18 755.2385923010361 3527.54 752.0924084860791 3548.9 744.981700209997 3570.26 742.0464154901043 3591.62 739.1723277843557 3612.98 739.179471336138 3634.34 731.7708258099874 3655.7 731.7814057156063 3677.06 731.6946718722857 3698.42 731.7898269041518 3719.7799999999997 715.6326502484551 3741.14 677.0310099621294 3762.5 668.8015383913383 3783.86 669.2508046624037 3805.2200000000003 665.0687170796807 3826.58 665.1009269843557 3847.94 654.1783595408037 3869.3 654.2438394166766 3890.66 652.4520688665375 3912.02 650.9685000981426 3933.38 650.9511325988744 3954.74 650.1826843160547 3976.1 650.4578201384786 3997.46 648.9964700856017 4018.8199999999997 646.5953351574117 4040.18 646.711535446821 4061.54 644.3338442804811 4082.9 643.401215888529 4104.26 642.4444914583115 4125.62 641.6145313440886 4146.98 641.3274589400961 4168.34 641.0825381110685 4189.7 639.6433470430949 4211.0599999999995 641.2396613478342 4232.42 641.5584180917222 4253.78 641.6386088112265 4275.139999999999 641.7883242512185 4296.5 642.039984670155 4296.5 406.61593787153623 4275.139999999999 406.42043828437977 4253.78 406.25830937946154 4232.42 406.1024336272774 4211.0599999999995 405.9225420999001 4189.7 406.47953769377625 4168.34 406.2783088484283 4146.98 406.1475891922515 4125.62 406.0007835357919 4104.26 405.8580495377305 4082.9 405.75756216085244 4061.54 405.6890755918336 4040.18 405.4853661204658 4018.8199999999997 405.49122463683807 3997.46 405.2872977777903 3976.1 405.0542403680629 3954.74 404.8267826278017 3933.38 404.3597305581952 3912.02 404.3606360598039 3890.66 404.3133620715407 3869.3 404.2694390318647 3847.94 404.25532206437714 3826.58 404.1006016590141 3805.2200000000003 404.09929675944176 3783.86 404.0956381930635 3762.5 404.12948436436125 3741.14 403.9961122337051 3719.7799999999997 403.3494217541671 3698.42 402.9248624726996 3677.06 402.9072043922977 3655.7 402.90877584131425 3634.34 402.9298471234101 3612.98 402.60349792125623 3591.62 402.6099730048478 3570.26 402.37217547977207 3548.9 402.145050233926 3527.54 401.73578913608276 3506.18 401.57006086206655 3484.82 401.57128950627384 3463.46 401.4082896460906 3442.1 400.8924429074875 3420.74 400.88896921768406 3399.38 400.93900012801925 3378.02 401.0268406246156 3356.66 400.9092568701918 3335.3 400.9924926084992 3313.94 400.4880580221503 3292.58 400.49608136003764 3271.22 400.2916782230466 3249.86 400.1582567110125 3228.5 399.92908991218985 3228.5 798.9713729419469Z" fill="#005aa6" opacity="0.9" />
		</g>
		<g>
			<path d="M3228.5 399.92908991218985 3249.86 400.1582567110125 3271.22 400.2916782230466 3292.58 400.49608136003764 3313.94 400.4880580221503 3335.3 400.9924926084992 3356.66 400.9092568701918 3378.02 401.0268406246156 3399.38 400.93900012801925 3420.74 400.88896921768406 3442.1 400.8924429074875 3463.46 401.4082896460906 3484.82 401.57128950627384 3506.18 401.57006086206655 3527.54 401.73578913608276 3548.9 402.145050233926 3570.26 402.37217547977207 3591.62 402.6099730048478 3612.98 402.60349792125623 3634.34 402.9298471234101 3655.7 402.90877584131425 3677.06 402.9072043922977 3698.42 402.9248624726996 3719.7799999999997 403.3494217541671 3741.14 403.9961122337051 3762.5 404.12948436436125 3783.86 404.0956381930635 3805.2200000000003 404.09929675944176 3826.58 404.1006016590141 3847.94 404.25532206437714 3869.3 404.2694390318647 3890.66 404.3133620715407 3912.02 404.3606360598039 3933.38 404.3597305581952 3954.74 404.8267826278017 3976.1 405.0542403680629 3997.46 405.2872977777903 4018.8199999999997 405.49122463683807 4040.18 405.4853661204658 4061.54 405.6890755918336 4082.9 405.75756216085244 4104.26 405.8580495377305 4125.62 406.0007835357919 4146.98 406.1475891922515 4168.34 406.2783088484283 4189.7 406.47953769377625 4211.0599999999995 405.9225420999001 4232.42 406.1024336272774 4253.78 406.25830937946154 4275.139999999999 406.42043828437977 4296.5 406.61593787153623 4296.5 397.99999999999994 4275.139999999999 398 4253.78 398 4232.42 397.9999999999999 4211.0599999999995 398 4189.7 397.99999999999994 4168.34 397.99999999999994 4146.98 398 4125.62 398 4104.26 398 4082.9 398.00000000000006 4061.54 397.99999999999994 4040.18 398.00000000000006 4018.8199999999997 398 3997.46 398 3976.1 398 3954.74 397.99999999999994 3933.38 397.99999999999994 3912.02 397.99999999999994 3890.66 398.00000000000006 3869.3 398.00000000000006 3847.94 398.0000000000001 3826.58 397.99999999999994 3805.2200000000003 397.9999999999999 3783.86 398.0000000000001 3762.5 398 3741.14 398 3719.7799999999997 397.9999999999999 3698.42 398.00000000000006 3677.06 397.99999999999994 3655.7 397.9999999999999 3634.34 398.00000000000006 3612.98 398.00000000000006 3591.62 397.99999999999994 3570.26 397.99999999999994 3548.9 397.99999999999994 3527.54 398 3506.18 397.9999999999999 3484.82 397.99999999999994 3463.46 397.99999999999994 3442.1 398 3420.74 398.00000000000006 3399.38 398.00000000000006 3378.02 397.99999999999994 3356.66 397.99999999999994 3335.3 397.99999999999994 3313.94 398.0000000000001 3292.58 398 3271.22 398.00000000000006 3249.86 398 3228.5 398 3228.5 399.92908991218985Z" fill="#393d41" opacity="0.9" />
		</g>
		<g>
			<rect x="4372" y="431" width="22.9995" height="23" fill="#e62d39" />
		</g>
		<g>
			<text fill="#595959" font-family="Verdana,Open Sans,DejaVu Sans,sans-serif" font-weight="400" font-size="41" transform="matrix(1 0 0 1 4404.56 454)">App</text>
		</g>
		<g>
			<rect x="4372" y="508" width="22.9995" height="23" fill="#005aa6" />
		</g>
		<g>
			<text fill="#595959" font-family="Verdana,Open Sans,DejaVu Sans,sans-serif" font-weight="400" font-size="41" transform="matrix(1 0 0 1 4404.56 531)">Web Browser</text>
		</g>
		<g>
			<rect x="4372" y="585" width="22.9995" height="23" fill="#393d41" />
		</g>
		<g>
			<text fill="#595959" font-family="Verdana,Open Sans,DejaVu Sans,sans-serif" font-weight="400" font-size="41" transform="matrix(1 0 0 1 4404.56 608)">Unclassified</text>
		</g>
	</g>
</svg>
