<svg width="1763" height="1046"
    xmlns="http://www.w3.org/2000/svg"
	xmlns:xlink="http://www.w3.org/1999/xlink" xml:space="preserve" overflow="hidden">
	<defs>
		<clipPath id="clip0">
			<rect x="2917" y="346" width="1763" height="1046"/>
		</clipPath>
	</defs>
	<g clip-path="url(#clip0)" transform="translate(-2917 -346)">
		<rect x="2918" y="347" width="1760" height="1043" fill="#FFFFFF" />
		<g>
			<path d="
			M3228.5 974.532 4296.5 974.532
			M3228.5 910.53 4296.5 910.53
			M3228.5 846.528 4296.5 846.528
			M3228.5 781.526 4296.5 781.526
			M3228.5 717.524 4296.5 717.524
			M3228.5 653.522 4296.5 653.522
			M3228.5 589.52 4296.5 589.52
			M3228.5 525.517 4296.5 525.517
			M3228.5 461.515 4296.5 461.515
			M3228.5 397.5 4296.5 397.5" stroke="#D9D9D9" stroke-width="3.4375" stroke-linejoin="round" stroke-miterlimit="10" fill="none" />
		</g>
		<g>
			<path d="M 1038.5 4296.5 1038.5" stroke="#D9D9D9" stroke-width="3.4375" stroke-linejoin="round" stroke-miterlimit="10" fill="none" fill-rule="evenodd" />
		</g>
		<g>
			<text fill="#595959" font-family="Verdana,Open Sans,DejaVu Sans,sans-serif" font-weight="400" font-size="41" transform="matrix(6.12323e-17 -1 1 6.12323e-17 3248.13916015625 1201.5405197143555)">14-Apr</text>
		</g>
		<g>
			<text fill="#595959" font-family="Verdana,Open Sans,DejaVu Sans,sans-serif" font-weight="400" font-size="41" transform="matrix(6.12323e-17 -1 1 6.12323e-17 3333.709287109375 1214.75341796875)">12-May</text>
		</g>
		<g>
			<text fill="#595959" font-family="Verdana,Open Sans,DejaVu Sans,sans-serif" font-weight="400" font-size="41" transform="matrix(6.12323e-17 -1 1 6.12323e-17 3418.0782421875 1192.2914962768555)">16-Jun</text>
		</g>
		<g>
			<text fill="#595959" font-family="Verdana,Open Sans,DejaVu Sans,sans-serif" font-weight="400" font-size="41" transform="matrix(6.12323e-17 -1 1 6.12323e-17 3504.248955078125 1177.2768478393555)">14-Jul</text>
		</g>
		<g>
			<text fill="#595959" font-family="Verdana,Open Sans,DejaVu Sans,sans-serif" font-weight="400" font-size="41" transform="matrix(6.12323e-17 -1 1 6.12323e-17 3589.879140625 1206.90576171875)">11-Aug</text>
		</g>
		<g>
			<text fill="#595959" font-family="Verdana,Open Sans,DejaVu Sans,sans-serif" font-weight="400" font-size="41" transform="matrix(6.12323e-17 -1 1 6.12323e-17 3675.489306640625 1204.38330078125)">08-Sep</text>
		</g>
		<g>
			<text fill="#595959" font-family="Verdana,Open Sans,DejaVu Sans,sans-serif" font-weight="400" font-size="41" transform="matrix(6.12323e-17 -1 1 6.12323e-17 3756.204697265625 1201.1000900268555)">06-Oct</text>
		</g>
		<g>
			<text fill="#595959" font-family="Verdana,Open Sans,DejaVu Sans,sans-serif" font-weight="400" font-size="41" transform="matrix(6.12323e-17 -1 1 6.12323e-17 3841.644697265625 1211.43017578125)">03-Nov</text>
		</g>
		<g>
			<text fill="#595959" font-family="Verdana,Open Sans,DejaVu Sans,sans-serif" font-weight="400" font-size="41" transform="matrix(6.12323e-17 -1 1 6.12323e-17 3927.084697265625 1207.0859375)">01-Dec</text>
		</g>
		<g>
			<text fill="#595959" font-family="Verdana,Open Sans,DejaVu Sans,sans-serif" font-weight="400" font-size="41" transform="matrix(6.12323e-17 -1 1 6.12323e-17 4012.504677734375 1207.1259765625)">29-Dec</text>
		</g>
		<g>
			<text fill="#595959" font-family="Verdana,Open Sans,DejaVu Sans,sans-serif" font-weight="400" font-size="41" transform="matrix(6.12323e-17 -1 1 6.12323e-17 4101.5982421875 1191.6909103393555)">26-Jan</text>
		</g>
		<g>
			<text fill="#595959" font-family="Verdana,Open Sans,DejaVu Sans,sans-serif" font-weight="400" font-size="41" transform="matrix(6.12323e-17 -1 1 6.12323e-17 4184.115390625 1203.08203125)">23-Feb</text>
		</g>
		<g>
			<text fill="#595959" font-family="Verdana,Open Sans,DejaVu Sans,sans-serif" font-weight="400" font-size="41" transform="matrix(6.12323e-17 -1 1 6.12323e-17 4268.824677734375 1212.05078125)">23-Mar</text>
		</g>
		<g>
			<text fill="#595959" font-family="Verdana,Open Sans,DejaVu Sans,sans-serif" font-weight="400" font-size="41" transform="matrix(1 0 0 1 3135.4482421875 1050)">0%</text>
		</g>
		<g>
			<text fill="#595959" font-family="Verdana,Open Sans,DejaVu Sans,sans-serif" font-weight="400" font-size="41" transform="matrix(1 0 0 1 3111.96533203125 922)">20%</text>
		</g>
		<g>
			<text fill="#595959" font-family="Verdana,Open Sans,DejaVu Sans,sans-serif" font-weight="400" font-size="41" transform="matrix(1 0 0 1 3110.82421875 794)">40%</text>
		</g>
		<g>
			<text fill="#595959" font-family="Verdana,Open Sans,DejaVu Sans,sans-serif" font-weight="400" font-size="41" transform="matrix(1 0 0 1 3112.3056640625 666)">60%</text>
		</g>
		<g>
			<text fill="#595959" font-family="Verdana,Open Sans,DejaVu Sans,sans-serif" font-weight="400" font-size="41" transform="matrix(1 0 0 1 3112.04541015625 538)">80%</text>
		</g>
		<g>
			<text fill="#595959" font-family="Verdana,Open Sans,DejaVu Sans,sans-serif" font-weight="400" font-size="41" transform="matrix(1 0 0 1 3090.2841796875 410)">100%</text>
		</g>
		<g>
			<text fill="#595959" font-family="Verdana,Open Sans,DejaVu Sans,sans-serif" font-weight="400" font-size="41" transform="matrix(1 0 0 1 3556.97119140625 1321)">Week Commencing</text>
		</g>
		<g>
			<text fill="#595959" font-family="Verdana,Open Sans,DejaVu Sans,sans-serif" font-weight="400" font-size="46" transform="matrix(6.12323e-17 -1 1 6.12323e-17 3019.73 936.7665710449219)">Requests (% of Total)</text>
		</g>
		<rect x="2918.5" y="347.5" width="1760" height="1043" stroke="#D9D9D9" stroke-width="3.4375" stroke-linejoin="round" stroke-miterlimit="10" fill="none" />
		<g>
			<path d="M3228.5 1038 3249.86 1038 3271.22 1038 3292.58 1038 3313.94 1038 3335.3 1038 3356.66 1038 3378.02 1038 3399.38 1038 3420.74 1038 3442.1 1038 3463.46 1038 3484.82 1038 3506.18 1038 3527.54 1038 3548.9 1038 3570.26 1038 3591.62 1038 3612.98 1038 3634.34 1038 3655.7 1038 3677.06 1038 3698.42 1038 3719.7799999999997 1038 3741.14 1038 3762.5 1038 3783.86 1038 3805.2200000000003 1038 3826.58 1038 3847.94 1038 3869.3 1038 3890.66 1038 3912.02 1038 3933.38 1038 3954.74 1038 3976.1 1038 3997.46 1038 4018.8199999999997 1038 4040.18 1038 4061.54 1038 4082.9 1038 4104.26 1038 4125.62 1038 4146.98 1038 4168.34 1038 4189.7 1038 4211.0599999999995 1038 4232.42 1038 4253.78 1038 4275.139999999999 1038 4296.5 1038 4296.5 641.0825381110685 4275.139999999999 641.3274589400961 4253.78 641.6145313440886 4232.42 642.4444914583115 4211.0599999999995 643.401215888529 4189.7 644.3338442804811 4168.34 646.711535446821 4146.98 646.5953351574117 4125.62 648.9964700856017 4104.26 650.4578201384786 4082.9 650.1826843160547 4061.54 650.9511325988744 4040.18 650.9685000981426 4018.8199999999997 652.4520688665375 3997.46 654.2438394166766 3976.1 654.1783595408037 3954.74 665.1009269843557 3933.38 665.0687170796807 3912.02 669.2508046624037 3890.66 668.8015383913383 3869.3 677.0310099621294 3847.94 715.6326502484551 3826.58 731.7898269041518 3805.2200000000003 731.6946718722857 3783.86 731.7814057156063 3762.5 731.7708258099874 3741.14 739.179471336138 3719.7799999999997 739.1723277843557 3698.42 742.0464154901043 3677.06 744.981700209997 3655.7 752.0924084860791 3634.34 755.2385923010361 3612.98 755.2502906288946 3591.62 758.1300732473312 3570.26 768.0870120946274 3548.9 768.0622682813855 3527.54 768.1168972047803 3506.18 768.2021370143037 3484.82 769.6067142131767 3463.46 775.05017459998 3442.1 787.2357258695183 3420.74 787.3092370373995 3399.38 790.9650389728295 3378.02 794.0813847270024 3356.66 798.9713729419469 3335.3 800.9582284854941 3313.94 802.40679729401 3292.58 803.7574587023792 3271.22 804.8795653060993 3249.86 805.7888012756688 3228.5 807.0111198010406 3228.5 1038Z" fill="#e62d39" opacity="0.9" />
		</g>
		<g>
			<path d="M3228.5 807.0111198010406 3249.86 805.7888012756688 3271.22 804.8795653060993 3292.58 803.7574587023792 3313.94 802.40679729401 3335.3 800.9582284854941 3356.66 798.9713729419469 3378.02 794.0813847270024 3399.38 790.9650389728295 3420.74 787.3092370373995 3442.1 787.2357258695183 3463.46 775.05017459998 3484.82 769.6067142131767 3506.18 768.2021370143037 3527.54 768.1168972047803 3548.9 768.0622682813855 3570.26 768.0870120946274 3591.62 758.1300732473312 3612.98 755.2502906288946 3634.34 755.2385923010361 3655.7 752.0924084860791 3677.06 744.981700209997 3698.42 742.0464154901043 3719.7799999999997 739.1723277843557 3741.14 739.179471336138 3762.5 731.7708258099874 3783.86 731.7814057156063 3805.2200000000003 731.6946718722857 3826.58 731.7898269041518 3847.94 715.6326502484551 3869.3 677.0310099621294 3890.66 668.8015383913383 3912.02 669.2508046624037 3933.38 665.0687170796807 3954.74 665.1009269843557 3976.1 654.1783595408037 3997.46 654.2438394166766 4018.8199999999997 652.4520688665375 4040.18 650.9685000981426 4061.54 650.9511325988744 4082.9 650.1826843160547 4104.26 650.4578201384786 4125.62 648.9964700856017 4146.98 646.5953351574117 4168.34 646.711535446821 4189.7 644.3338442804811 4211.0599999999995 643.401215888529 4232.42 642.4444914583115 4253.78 641.6145313440886 4275.139999999999 641.3274589400961 4296.5 641.0825381110685 4296.5 406.2783088484283 4275.139999999999 406.1475891922515 4253.78 406.0007835357919 4232.42 405.8580495377305 4211.0599999999995 405.75756216085244 4189.7 405.6890755918336 4168.34 405.4853661204658 4146.98 405.49122463683807 4125.62 405.2872977777903 4104.26 405.0542403680629 4082.9 404.8267826278017 4061.54 404.3597305581952 4040.18 404.3606360598039 4018.8199999999997 404.3133620715407 3997.46 404.2694390318647 3976.1 404.25532206437714 3954.74 404.1006016590141 3933.38 404.09929675944176 3912.02 404.0956381930635 3890.66 404.12948436436125 3869.3 403.9961122337051 3847.94 403.3494217541671 3826.58 402.9248624726996 3805.2200000000003 402.9072043922977 3783.86 402.90877584131425 3762.5 402.9298471234101 3741.14 402.60349792125623 3719.7799999999997 402.6099730048478 3698.42 402.37217547977207 3677.06 402.145050233926 3655.7 401.73578913608276 3634.34 401.57006086206655 3612.98 401.57128950627384 3591.62 401.4082896460906 3570.26 400.8924429074875 3548.9 400.88896921768406 3527.54 400.93900012801925 3506.18 401.0268406246156 3484.82 400.9092568701918 3463.46 400.9924926084992 3442.1 400.4880580221503 3420.74 400.49608136003764 3399.38 400.2916782230466 3378.02 400.1582567110125 3356.66 399.92908991218985 3335.3 399.9334041710106 3313.94 399.87976806541184 3292.58 399.8310554200369 3271.22 399.7742919400221 3249.86 399.72528771121347 3228.5 399.7049408705508 3228.5 807.0111198010406Z" fill="#005aa6" opacity="0.9" />
		</g>
		<g>
			<path d="M3228.5 399.7049408705508 3249.86 399.72528771121347 3271.22 399.7742919400221 3292.58 399.8310554200369 3313.94 399.87976806541184 3335.3 399.9334041710106 3356.66 399.92908991218985 3378.02 400.1582567110125 3399.38 400.2916782230466 3420.74 400.49608136003764 3442.1 400.4880580221503 3463.46 400.9924926084992 3484.82 400.9092568701918 3506.18 401.0268406246156 3527.54 400.93900012801925 3548.9 400.88896921768406 3570.26 400.8924429074875 3591.62 401.4082896460906 3612.98 401.57128950627384 3634.34 401.57006086206655 3655.7 401.73578913608276 3677.06 402.145050233926 3698.42 402.37217547977207 3719.7799999999997 402.6099730048478 3741.14 402.60349792125623 3762.5 402.9298471234101 3783.86 402.90877584131425 3805.2200000000003 402.9072043922977 3826.58 402.9248624726996 3847.94 403.3494217541671 3869.3 403.9961122337051 3890.66 404.12948436436125 3912.02 404.0956381930635 3933.38 404.09929675944176 3954.74 404.1006016590141 3976.1 404.25532206437714 3997.46 404.2694390318647 4018.8199999999997 404.3133620715407 4040.18 404.3606360598039 4061.54 404.3597305581952 4082.9 404.8267826278017 4104.26 405.0542403680629 4125.62 405.2872977777903 4146.98 405.49122463683807 4168.34 405.4853661204658 4189.7 405.6890755918336 4211.0599999999995 405.75756216085244 4232.42 405.8580495377305 4253.78 406.0007835357919 4275.139999999999 406.1475891922515 4296.5 406.2783088484283 4296.5 397.99999999999994 4275.139999999999 398 4253.78 398 4232.42 398 4211.0599999999995 398.00000000000006 4189.7 397.99999999999994 4168.34 398.00000000000006 4146.98 398 4125.62 398 4104.26 398 4082.9 397.99999999999994 4061.54 397.99999999999994 4040.18 397.99999999999994 4018.8199999999997 398.00000000000006 3997.46 398.00000000000006 3976.1 398.0000000000001 3954.74 397.99999999999994 3933.38 397.9999999999999 3912.02 398.0000000000001 3890.66 398 3869.3 398 3847.94 397.9999999999999 3826.58 398.00000000000006 3805.2200000000003 397.99999999999994 3783.86 397.9999999999999 3762.5 398.00000000000006 3741.14 398.00000000000006 3719.7799999999997 397.99999999999994 3698.42 397.99999999999994 3677.06 397.99999999999994 3655.7 398 3634.34 397.9999999999999 3612.98 397.99999999999994 3591.62 397.99999999999994 3570.26 398 3548.9 398.00000000000006 3527.54 398.00000000000006 3506.18 397.99999999999994 3484.82 397.99999999999994 3463.46 397.99999999999994 3442.1 398.0000000000001 3420.74 398 3399.38 398.00000000000006 3378.02 398 3356.66 398 3335.3 398 3313.94 398 3292.58 398 3271.22 397.99999999999994 3249.86 397.9999999999999 3228.5 398 3228.5 399.7049408705508Z" fill="#393d41" opacity="0.9" />
		</g>
		<g>
			<rect x="4372" y="431" width="22.9995" height="23" fill="#e62d39" />
		</g>
		<g>
			<text fill="#595959" font-family="Verdana,Open Sans,DejaVu Sans,sans-serif" font-weight="400" font-size="41" transform="matrix(1 0 0 1 4404.56 454)">App</text>
		</g>
		<g>
			<rect x="4372" y="508" width="22.9995" height="23" fill="#005aa6" />
		</g>
		<g>
			<text fill="#595959" font-family="Verdana,Open Sans,DejaVu Sans,sans-serif" font-weight="400" font-size="41" transform="matrix(1 0 0 1 4404.56 531)">Web Browser</text>
		</g>
		<g>
			<rect x="4372" y="585" width="22.9995" height="23" fill="#393d41" />
		</g>
		<g>
			<text fill="#595959" font-family="Verdana,Open Sans,DejaVu Sans,sans-serif" font-weight="400" font-size="41" transform="matrix(1 0 0 1 4404.56 608)">Unclassified</text>
		</g>
	</g>
</svg>
