<svg width="1763" height="1046"
    xmlns="http://www.w3.org/2000/svg"
	xmlns:xlink="http://www.w3.org/1999/xlink" xml:space="preserve" overflow="hidden">
	<defs>
		<clipPath id="clip0">
			<rect x="2917" y="346" width="1763" height="1046"/>
		</clipPath>
	</defs>
	<g clip-path="url(#clip0)" transform="translate(-2917 -346)">
		<rect x="2918" y="347" width="1760" height="1043" fill="#FFFFFF" />
		<g>
			<path d="
			M3228.5 974.532 4296.5 974.532
			M3228.5 910.53 4296.5 910.53
			M3228.5 846.528 4296.5 846.528
			M3228.5 781.526 4296.5 781.526
			M3228.5 717.524 4296.5 717.524
			M3228.5 653.522 4296.5 653.522
			M3228.5 589.52 4296.5 589.52
			M3228.5 525.517 4296.5 525.517
			M3228.5 461.515 4296.5 461.515
			M3228.5 397.5 4296.5 397.5" stroke="#D9D9D9" stroke-width="3.4375" stroke-linejoin="round" stroke-miterlimit="10" fill="none" />
		</g>
		<g>
			<path d="M 1038.5 4296.5 1038.5" stroke="#D9D9D9" stroke-width="3.4375" stroke-linejoin="round" stroke-miterlimit="10" fill="none" fill-rule="evenodd" />
		</g>
		<g>
			<text fill="#595959" font-family="Verdana,Open Sans,DejaVu Sans,sans-serif" font-weight="400" font-size="41" transform="matrix(6.12323e-17 -1 1 6.12323e-17 3243.33447265625 1210.2890625)">17-Mar</text>
		</g>
		<g>
			<text fill="#595959" font-family="Verdana,Open Sans,DejaVu Sans,sans-serif" font-weight="400" font-size="41" transform="matrix(6.12323e-17 -1 1 6.12323e-17 3333.57916015625 1201.5405197143555)">14-Apr</text>
		</g>
		<g>
			<text fill="#595959" font-family="Verdana,Open Sans,DejaVu Sans,sans-serif" font-weight="400" font-size="41" transform="matrix(6.12323e-17 -1 1 6.12323e-17 3419.149287109375 1214.75341796875)">12-May</text>
		</g>
		<g>
			<text fill="#595959" font-family="Verdana,Open Sans,DejaVu Sans,sans-serif" font-weight="400" font-size="41" transform="matrix(6.12323e-17 -1 1 6.12323e-17 3503.5182421875 1192.2914962768555)">16-Jun</text>
		</g>
		<g>
			<text fill="#595959" font-family="Verdana,Open Sans,DejaVu Sans,sans-serif" font-weight="400" font-size="41" transform="matrix(6.12323e-17 -1 1 6.12323e-17 3589.688955078125 1177.2768478393555)">14-Jul</text>
		</g>
		<g>
			<text fill="#595959" font-family="Verdana,Open Sans,DejaVu Sans,sans-serif" font-weight="400" font-size="41" transform="matrix(6.12323e-17 -1 1 6.12323e-17 3675.319140625 1206.90576171875)">11-Aug</text>
		</g>
		<g>
			<text fill="#595959" font-family="Verdana,Open Sans,DejaVu Sans,sans-serif" font-weight="400" font-size="41" transform="matrix(6.12323e-17 -1 1 6.12323e-17 3760.929306640625 1204.38330078125)">08-Sep</text>
		</g>
		<g>
			<text fill="#595959" font-family="Verdana,Open Sans,DejaVu Sans,sans-serif" font-weight="400" font-size="41" transform="matrix(6.12323e-17 -1 1 6.12323e-17 3841.644697265625 1201.1000900268555)">06-Oct</text>
		</g>
		<g>
			<text fill="#595959" font-family="Verdana,Open Sans,DejaVu Sans,sans-serif" font-weight="400" font-size="41" transform="matrix(6.12323e-17 -1 1 6.12323e-17 3927.084697265625 1211.43017578125)">03-Nov</text>
		</g>
		<g>
			<text fill="#595959" font-family="Verdana,Open Sans,DejaVu Sans,sans-serif" font-weight="400" font-size="41" transform="matrix(6.12323e-17 -1 1 6.12323e-17 4012.524697265625 1207.0859375)">01-Dec</text>
		</g>
		<g>
			<text fill="#595959" font-family="Verdana,Open Sans,DejaVu Sans,sans-serif" font-weight="400" font-size="41" transform="matrix(6.12323e-17 -1 1 6.12323e-17 4097.944677734375 1207.1259765625)">29-Dec</text>
		</g>
		<g>
			<text fill="#595959" font-family="Verdana,Open Sans,DejaVu Sans,sans-serif" font-weight="400" font-size="41" transform="matrix(6.12323e-17 -1 1 6.12323e-17 4187.0382421875 1191.6909103393555)">26-Jan</text>
		</g>
		<g>
			<text fill="#595959" font-family="Verdana,Open Sans,DejaVu Sans,sans-serif" font-weight="400" font-size="41" transform="matrix(6.12323e-17 -1 1 6.12323e-17 4269.555390625 1203.08203125)">23-Feb</text>
		</g>
		<g>
			<text fill="#595959" font-family="Verdana,Open Sans,DejaVu Sans,sans-serif" font-weight="400" font-size="41" transform="matrix(1 0 0 1 3169.14111328125 1050)">0</text>
		</g>
		<g>
			<text fill="#595959" font-family="Verdana,Open Sans,DejaVu Sans,sans-serif" font-weight="400" font-size="41" transform="matrix(1 0 0 1 3088.7626953125 922)">3,269</text>
		</g>
		<g>
			<text fill="#595959" font-family="Verdana,Open Sans,DejaVu Sans,sans-serif" font-weight="400" font-size="41" transform="matrix(1 0 0 1 3089.14306640625 794)">6,538</text>
		</g>
		<g>
			<text fill="#595959" font-family="Verdana,Open Sans,DejaVu Sans,sans-serif" font-weight="400" font-size="41" transform="matrix(1 0 0 1 3088.9228515625 666)">9,808</text>
		</g>
		<g>
			<text fill="#595959" font-family="Verdana,Open Sans,DejaVu Sans,sans-serif" font-weight="400" font-size="41" transform="matrix(1 0 0 1 3067.0815505981445 538)">13,077</text>
		</g>
		<g>
			<text fill="#595959" font-family="Verdana,Open Sans,DejaVu Sans,sans-serif" font-weight="400" font-size="41" transform="matrix(1 0 0 1 3067.0014724731445 410)">16,346</text>
		</g>
		<g>
			<text fill="#595959" font-family="Verdana,Open Sans,DejaVu Sans,sans-serif" font-weight="400" font-size="41" transform="matrix(1 0 0 1 3556.97119140625 1321)">Week Commencing</text>
		</g>
		<g>
			<text fill="#595959" font-family="Verdana,Open Sans,DejaVu Sans,sans-serif" font-weight="400" font-size="46" transform="matrix(6.12323e-17 -1 1 6.12323e-17 3019.73 1011.673828125)">Number of Browser Profiles</text>
		</g>
		<rect x="2918.5" y="347.5" width="1760" height="1043" stroke="#D9D9D9" stroke-width="3.4375" stroke-linejoin="round" stroke-miterlimit="10" fill="none" />
		<g>
			<path d="M3228.5 1038 3249.86 1038 3271.22 1038 3292.58 1038 3313.94 1038 3335.3 1038 3356.66 1038 3378.02 1038 3399.38 1038 3420.74 1038 3442.1 1038 3463.46 1038 3484.82 1038 3506.18 1038 3527.54 1038 3548.9 1038 3570.26 1038 3591.62 1038 3612.98 1038 3634.34 1038 3655.7 1038 3677.06 1038 3698.42 1038 3719.7799999999997 1038 3741.14 1038 3762.5 1038 3783.86 1038 3805.2200000000003 1038 3826.58 1038 3847.94 1038 3869.3 1038 3890.66 1038 3912.02 1038 3933.38 1038 3954.74 1038 3976.1 1038 3997.46 1038 4018.8199999999997 1038 4040.18 1038 4061.54 1038 4082.9 1038 4104.26 1038 4125.62 1038 4146.98 1038 4168.34 1038 4189.7 1038 4211.0599999999995 1038 4232.42 1038 4253.78 1038 4275.139999999999 1038 4296.5 1038 4296.5 533.0006117704637 4275.139999999999 533.9402912027408 4253.78 534.6058974672703 4232.42 535.7413434479383 4211.0599999999995 536.7593294995718 4189.7 537.3074758350667 4168.34 538.129695338309 4146.98 538.873608222195 4125.62 539.6958277254374 4104.26 539.8524409641502 4082.9 540.3222806802887 4061.54 540.8704270157837 4040.18 541.8884130674171 4018.8199999999997 543.1413189771198 3997.46 544.7857579836045 3976.1 545.0989844610302 3954.74 546.19527713202 3933.38 546.8217300868714 3912.02 548.2704025449651 3890.66 548.8577021901383 3869.3 550.1889147191973 3847.94 550.3063746482319 3826.58 551.1677474611525 3805.2200000000003 552.185733512786 3783.86 553.4777927321669 3762.5 554.1825523063746 3741.14 554.809005261226 3719.7799999999997 556.0619111709286 3698.42 556.884130674171 3677.06 557.7846567967699 3655.7 558.763489538725 3634.34 559.5465557322892 3612.98 560.2904686161752 3591.62 561.1518414290958 3570.26 561.5433745258779 3548.9 562.5222072678331 3527.54 563.814266487214 3506.18 564.4015661323872 3484.82 565.5370121130552 3463.46 566.8682246421142 3442.1 568.4735103389208 3420.74 569.5698030099106 3399.38 570.6269423712223 3378.02 571.5274684938211 3356.66 572.3496879970635 3335.3 573.2893674293405 3313.94 574.1507402422611 3292.58 575.5994127003548 3271.22 576.2258656552062 3249.86 576.8523186100575 3228.5 577.5962314939435 3228.5 1038Z" fill="#005aa6" opacity="0.9" />
		</g>
		<g>
			<path d="M3228.5 577.5962314939435 3249.86 576.8523186100575 3271.22 576.2258656552062 3292.58 575.5994127003548 3313.94 574.1507402422611 3335.3 573.2893674293405 3356.66 572.3496879970635 3378.02 571.5274684938211 3399.38 570.6269423712223 3420.74 569.5698030099106 3442.1 568.4735103389208 3463.46 566.8682246421142 3484.82 565.5370121130552 3506.18 564.4015661323872 3527.54 563.814266487214 3548.9 562.5222072678331 3570.26 561.5433745258779 3591.62 561.1518414290958 3612.98 560.2904686161752 3634.34 559.5465557322892 3655.7 558.763489538725 3677.06 557.7846567967699 3698.42 556.884130674171 3719.7799999999997 556.0619111709286 3741.14 554.809005261226 3762.5 554.1825523063746 3783.86 553.4777927321669 3805.2200000000003 552.185733512786 3826.58 551.1677474611525 3847.94 550.3063746482319 3869.3 550.1889147191973 3890.66 548.8577021901383 3912.02 548.2704025449651 3933.38 546.8217300868714 3954.74 546.19527713202 3976.1 545.0989844610302 3997.46 544.7857579836045 4018.8199999999997 543.1413189771198 4040.18 541.8884130674171 4061.54 540.8704270157837 4082.9 540.3222806802887 4104.26 539.8524409641502 4125.62 539.6958277254374 4146.98 538.873608222195 4168.34 538.129695338309 4189.7 537.3074758350667 4211.0599999999995 536.7593294995718 4232.42 535.7413434479383 4253.78 534.6058974672703 4275.139999999999 533.9402912027408 4296.5 533.0006117704637 4296.5 398 4275.139999999999 399.25290590970275 4253.78 400.31004527101436 4232.42 401.75871772910807 4211.0599999999995 402.97247032913253 4189.7 403.7163832130185 4168.34 405.321668909825 4146.98 406.1438884130674 4125.62 407.12272115502265 4104.26 407.31848770341367 4082.9 407.86663403890856 4061.54 408.4147803744035 4040.18 409.7459929034626 4018.8199999999997 411.23381867123453 3997.46 413.07402422611034 3976.1 413.66132387128346 3954.74 414.99253640034254 3933.38 415.73644928422857 3912.02 417.3417349810351 3890.66 418.1248011745993 3869.3 419.6126269423712 3847.94 419.769240181084 3826.58 420.90468616175207 3805.2200000000003 422.04013214242013 3783.86 423.5279579101921 3762.5 424.3893307231127 3741.14 425.1723969166769 3719.7799999999997 426.50360944573595 3698.42 427.5215954973694 3677.06 428.50042823932466 3655.7 429.83164076838364 3634.34 430.6930135813043 3612.98 431.6718463232595 3591.62 432.6506790652148 3570.26 433.31628532974423 3548.9 434.60834454912515 3527.54 436.0961703168971 3506.18 436.80092989110494 3484.82 438.0538358008075 3463.46 439.50250825890123 3442.1 441.65594029120274 3420.74 442.9479995105836 3399.38 444.2400587299645 3378.02 445.2971980912761 3356.66 446.2368775235532 3335.3 447.3723235042212 3313.94 448.3903095558546 3292.58 450.0347485623394 3271.22 450.8569680655819 3249.86 451.5617276397896 3228.5 452.4231004527102 3228.5 577.5962314939435Z" fill="#e62d39" opacity="0.9" />
		</g>
		<g>
			<rect x="4372" y="431" width="22.9995" height="23" fill="#005aa6" />
		</g>
		<g>
			<text fill="#595959" font-family="Verdana,Open Sans,DejaVu Sans,sans-serif" font-weight="400" font-size="41" transform="matrix(1 0 0 1 4404.56 454)">Web Browser</text>
		</g>
		<g>
			<rect x="4372" y="508" width="22.9995" height="23" fill="#e62d39" />
		</g>
		<g>
			<text fill="#595959" font-family="Verdana,Open Sans,DejaVu Sans,sans-serif" font-weight="400" font-size="41" transform="matrix(1 0 0 1 4404.56 531)">App</text>
		</g>
	</g>
</svg>
