<svg width="1763" height="1046"
    xmlns="http://www.w3.org/2000/svg"
	xmlns:xlink="http://www.w3.org/1999/xlink" xml:space="preserve" overflow="hidden">
	<defs>
		<clipPath id="clip0">
			<rect x="2917" y="346" width="1763" height="1046"/>
		</clipPath>
	</defs>
	<g clip-path="url(#clip0)" transform="translate(-2917 -346)">
		<rect x="2918" y="347" width="1760" height="1043" fill="#FFFFFF" />
		<g>
			<path d="
			M3228.5 974.532 4296.5 974.532
			M3228.5 910.53 4296.5 910.53
			M3228.5 846.528 4296.5 846.528
			M3228.5 781.526 4296.5 781.526
			M3228.5 717.524 4296.5 717.524
			M3228.5 653.522 4296.5 653.522
			M3228.5 589.52 4296.5 589.52
			M3228.5 525.517 4296.5 525.517
			M3228.5 461.515 4296.5 461.515
			M3228.5 397.5 4296.5 397.5" stroke="#D9D9D9" stroke-width="3.4375" stroke-linejoin="round" stroke-miterlimit="10" fill="none" />
		</g>
		<g>
			<path d="M 1038.5 4296.5 1038.5" stroke="#D9D9D9" stroke-width="3.4375" stroke-linejoin="round" stroke-miterlimit="10" fill="none" fill-rule="evenodd" />
		</g>
		<g>
			<text fill="#595959" font-family="Verdana,Open Sans,DejaVu Sans,sans-serif" font-weight="400" font-size="41" transform="matrix(6.12323e-17 -1 1 6.12323e-17 3243.564697265625 1201.1401290893555)">21-Oct</text>
		</g>
		<g>
			<text fill="#595959" font-family="Verdana,Open Sans,DejaVu Sans,sans-serif" font-weight="400" font-size="41" transform="matrix(6.12323e-17 -1 1 6.12323e-17 3328.984677734375 1209.70849609375)">18-Nov</text>
		</g>
		<g>
			<text fill="#595959" font-family="Verdana,Open Sans,DejaVu Sans,sans-serif" font-weight="400" font-size="41" transform="matrix(6.12323e-17 -1 1 6.12323e-17 3414.424677734375 1207.1259765625)">23-Dec</text>
		</g>
		<g>
			<text fill="#595959" font-family="Verdana,Open Sans,DejaVu Sans,sans-serif" font-weight="400" font-size="41" transform="matrix(6.12323e-17 -1 1 6.12323e-17 3503.53826171875 1191.6909103393555)">20-Jan</text>
		</g>
		<g>
			<text fill="#595959" font-family="Verdana,Open Sans,DejaVu Sans,sans-serif" font-weight="400" font-size="41" transform="matrix(6.12323e-17 -1 1 6.12323e-17 3586.035390625 1201.3203125)">17-Feb</text>
		</g>
		<g>
			<text fill="#595959" font-family="Verdana,Open Sans,DejaVu Sans,sans-serif" font-weight="400" font-size="41" transform="matrix(6.12323e-17 -1 1 6.12323e-17 3670.53447265625 1210.2890625)">17-Mar</text>
		</g>
		<g>
			<text fill="#595959" font-family="Verdana,Open Sans,DejaVu Sans,sans-serif" font-weight="400" font-size="41" transform="matrix(6.12323e-17 -1 1 6.12323e-17 3760.77916015625 1201.5405197143555)">14-Apr</text>
		</g>
		<g>
			<text fill="#595959" font-family="Verdana,Open Sans,DejaVu Sans,sans-serif" font-weight="400" font-size="41" transform="matrix(6.12323e-17 -1 1 6.12323e-17 3846.349287109375 1214.75341796875)">12-May</text>
		</g>
		<g>
			<text fill="#595959" font-family="Verdana,Open Sans,DejaVu Sans,sans-serif" font-weight="400" font-size="41" transform="matrix(6.12323e-17 -1 1 6.12323e-17 3930.7182421875 1192.2914962768555)">16-Jun</text>
		</g>
		<g>
			<text fill="#595959" font-family="Verdana,Open Sans,DejaVu Sans,sans-serif" font-weight="400" font-size="41" transform="matrix(6.12323e-17 -1 1 6.12323e-17 4016.888955078125 1177.2768478393555)">14-Jul</text>
		</g>
		<g>
			<text fill="#595959" font-family="Verdana,Open Sans,DejaVu Sans,sans-serif" font-weight="400" font-size="41" transform="matrix(6.12323e-17 -1 1 6.12323e-17 4102.519140625 1206.90576171875)">11-Aug</text>
		</g>
		<g>
			<text fill="#595959" font-family="Verdana,Open Sans,DejaVu Sans,sans-serif" font-weight="400" font-size="41" transform="matrix(6.12323e-17 -1 1 6.12323e-17 4188.129306640625 1204.38330078125)">08-Sep</text>
		</g>
		<g>
			<text fill="#595959" font-family="Verdana,Open Sans,DejaVu Sans,sans-serif" font-weight="400" font-size="41" transform="matrix(6.12323e-17 -1 1 6.12323e-17 4268.844697265625 1201.1000900268555)">06-Oct</text>
		</g>
		<g>
			<text fill="#595959" font-family="Verdana,Open Sans,DejaVu Sans,sans-serif" font-weight="400" font-size="41" transform="matrix(1 0 0 1 3135.4482421875 1050)">0%</text>
		</g>
		<g>
			<text fill="#595959" font-family="Verdana,Open Sans,DejaVu Sans,sans-serif" font-weight="400" font-size="41" transform="matrix(1 0 0 1 3111.96533203125 922)">20%</text>
		</g>
		<g>
			<text fill="#595959" font-family="Verdana,Open Sans,DejaVu Sans,sans-serif" font-weight="400" font-size="41" transform="matrix(1 0 0 1 3110.82421875 794)">40%</text>
		</g>
		<g>
			<text fill="#595959" font-family="Verdana,Open Sans,DejaVu Sans,sans-serif" font-weight="400" font-size="41" transform="matrix(1 0 0 1 3112.3056640625 666)">60%</text>
		</g>
		<g>
			<text fill="#595959" font-family="Verdana,Open Sans,DejaVu Sans,sans-serif" font-weight="400" font-size="41" transform="matrix(1 0 0 1 3112.04541015625 538)">80%</text>
		</g>
		<g>
			<text fill="#595959" font-family="Verdana,Open Sans,DejaVu Sans,sans-serif" font-weight="400" font-size="41" transform="matrix(1 0 0 1 3090.2841796875 410)">100%</text>
		</g>
		<g>
			<text fill="#595959" font-family="Verdana,Open Sans,DejaVu Sans,sans-serif" font-weight="400" font-size="41" transform="matrix(1 0 0 1 3556.97119140625 1321)">Week Commencing</text>
		</g>
		<g>
			<text fill="#595959" font-family="Verdana,Open Sans,DejaVu Sans,sans-serif" font-weight="400" font-size="46" transform="matrix(6.12323e-17 -1 1 6.12323e-17 3019.73 936.7665710449219)">Requests (% of Total)</text>
		</g>
		<rect x="2918.5" y="347.5" width="1760" height="1043" stroke="#D9D9D9" stroke-width="3.4375" stroke-linejoin="round" stroke-miterlimit="10" fill="none" />
		<g>
			<path d="M3228.5 1038 3249.86 1038 3271.22 1038 3292.58 1038 3313.94 1038 3335.3 1038 3356.66 1038 3378.02 1038 3399.38 1038 3420.74 1038 3442.1 1038 3463.46 1038 3484.82 1038 3506.18 1038 3527.54 1038 3548.9 1038 3570.26 1038 3591.62 1038 3612.98 1038 3634.34 1038 3655.7 1038 3677.06 1038 3698.42 1038 3719.7799999999997 1038 3741.14 1038 3762.5 1038 3783.86 1038 3805.2200000000003 1038 3826.58 1038 3847.94 1038 3869.3 1038 3890.66 1038 3912.02 1038 3933.38 1038 3954.74 1038 3976.1 1038 3997.46 1038 4018.8199999999997 1038 4040.18 1038 4061.54 1038 4082.9 1038 4104.26 1038 4125.62 1038 4146.98 1038 4168.34 1038 4189.7 1038 4211.0599999999995 1038 4232.42 1038 4253.78 1038 4275.139999999999 1038 4296.5 1038 4296.5 709.127370125708 4275.139999999999 709.1590213134227 4253.78 701.4240265851182 4232.42 701.4376452204921 4211.0599999999995 698.3257599896677 4189.7 695.163350023929 4168.34 687.6433806500037 4146.98 684.3314685610305 4125.62 684.3209988773792 4104.26 681.2782163987595 4082.9 670.8054308128601 4061.54 670.8267009362985 4040.18 670.8221029232388 4018.8199999999997 670.8247036103119 3997.46 669.3025426570151 3976.1 663.9423180085192 3954.74 651.252332152632 3933.38 651.1868443226381 3912.02 647.3266392502171 3890.66 644.07687198401 3869.3 638.9577169702429 3847.94 636.9751756855164 3826.58 635.4729707714018 3805.2200000000003 634.0735967176577 3783.86 632.8947266339228 3762.5 631.9364864355447 3741.14 630.6938210695101 3719.7799999999997 629.5047785696727 3698.42 628.3884215694598 3677.06 626.7876738161085 3655.7 585.3299764795494 3634.34 584.8421137404707 3612.98 584.3697869147531 3591.62 582.8150128997006 3570.26 582.5177383576936 3548.9 582.3344680120879 3527.54 582.5939821313019 3506.18 581.9303729662242 3484.82 581.2253151836085 3463.46 580.7419087611287 3442.1 580.710243189289 3420.74 580.6735762948426 3399.38 580.9280737837942 3378.02 581.4872454103777 3356.66 582.4062939611431 3335.3 569.6826475023468 3313.94 569.8912689965251 3292.58 569.9302361292804 3271.22 569.8349942572809 3249.86 569.5040370531727 3228.5 717.6623105620715 3228.5 1038Z" fill="#e62d39" opacity="0.9" />
		</g>
		<g>
			<path d="M3228.5 717.6623105620715 3249.86 569.5040370531727 3271.22 569.8349942572809 3292.58 569.9302361292804 3313.94 569.8912689965251 3335.3 569.6826475023468 3356.66 582.4062939611431 3378.02 581.4872454103777 3399.38 580.9280737837942 3420.74 580.6735762948426 3442.1 580.710243189289 3463.46 580.7419087611287 3484.82 581.2253151836085 3506.18 581.9303729662242 3527.54 582.5939821313019 3548.9 582.3344680120879 3570.26 582.5177383576936 3591.62 582.8150128997006 3612.98 584.3697869147531 3634.34 584.8421137404707 3655.7 585.3299764795494 3677.06 626.7876738161085 3698.42 628.3884215694598 3719.7799999999997 629.5047785696727 3741.14 630.6938210695101 3762.5 631.9364864355447 3783.86 632.8947266339228 3805.2200000000003 634.0735967176577 3826.58 635.4729707714018 3847.94 636.9751756855164 3869.3 638.9577169702429 3890.66 644.07687198401 3912.02 647.3266392502171 3933.38 651.1868443226381 3954.74 651.252332152632 3976.1 663.9423180085192 3997.46 669.3025426570151 4018.8199999999997 670.8247036103119 4040.18 670.8221029232388 4061.54 670.8267009362985 4082.9 670.8054308128601 4104.26 681.2782163987595 4125.62 684.3209988773792 4146.98 684.3314685610305 4168.34 687.6433806500037 4189.7 695.163350023929 4211.0599999999995 698.3257599896677 4232.42 701.4376452204921 4253.78 701.4240265851182 4275.139999999999 709.1590213134227 4296.5 709.127370125708 4296.5 402.9087758413143 4275.139999999999 402.92984712341007 4253.78 402.6034979212562 4232.42 402.6099730048478 4211.0599999999995 402.37217547977207 4189.7 402.145050233926 4168.34 401.73578913608276 4146.98 401.57006086206667 4125.62 401.57128950627384 4104.26 401.4082896460907 4082.9 400.89244290748746 4061.54 400.88896921768395 4040.18 400.9390001280192 4018.8199999999997 401.0268406246156 3997.46 400.9092568701918 3976.1 400.9924926084992 3954.74 400.48805802215026 3933.38 400.4960813600376 3912.02 400.2916782230465 3890.66 400.1582567110125 3869.3 399.92908991218985 3847.94 399.9334041710105 3826.58 399.8797680654118 3805.2200000000003 399.8310554200368 3783.86 399.77429194002207 3762.5 399.72528771121347 3741.14 399.7049408705508 3719.7799999999997 400.0041449048839 3698.42 399.9604159100104 3677.06 399.99059261305473 3655.7 399.5837460145528 3634.34 399.60517704227266 3612.98 399.58267002165013 3591.62 398.76939218444284 3570.26 398.748881893379 3548.9 398.75079403491515 3527.54 398.74677273073394 3506.18 398.7411343617605 3484.82 398.7379557747454 3463.46 398.70704867301595 3442.1 398.70882925199004 3420.74 398.7008574619051 3399.38 398.68535542850464 3378.02 398.67102339002776 3356.66 398.67520739706913 3335.3 399.27182314363034 3313.94 399.262582558681 3292.58 399.27351700187455 3271.22 399.28077369767425 3249.86 399.29931326714217 3228.5 463.6506199133046 3228.5 717.6623105620715Z" fill="#005aa6" opacity="0.9" />
		</g>
		<g>
			<path d="M3228.5 463.6506199133046 3249.86 399.29931326714217 3271.22 399.28077369767425 3292.58 399.27351700187455 3313.94 399.262582558681 3335.3 399.27182314363034 3356.66 398.67520739706913 3378.02 398.67102339002776 3399.38 398.68535542850464 3420.74 398.7008574619051 3442.1 398.70882925199004 3463.46 398.70704867301595 3484.82 398.7379557747454 3506.18 398.7411343617605 3527.54 398.74677273073394 3548.9 398.75079403491515 3570.26 398.748881893379 3591.62 398.76939218444284 3612.98 399.58267002165013 3634.34 399.60517704227266 3655.7 399.5837460145528 3677.06 399.99059261305473 3698.42 399.9604159100104 3719.7799999999997 400.0041449048839 3741.14 399.7049408705508 3762.5 399.72528771121347 3783.86 399.77429194002207 3805.2200000000003 399.8310554200368 3826.58 399.8797680654118 3847.94 399.9334041710105 3869.3 399.92908991218985 3890.66 400.1582567110125 3912.02 400.2916782230465 3933.38 400.4960813600376 3954.74 400.48805802215026 3976.1 400.9924926084992 3997.46 400.9092568701918 4018.8199999999997 401.0268406246156 4040.18 400.9390001280192 4061.54 400.88896921768395 4082.9 400.89244290748746 4104.26 401.4082896460907 4125.62 401.57128950627384 4146.98 401.57006086206667 4168.34 401.73578913608276 4189.7 402.145050233926 4211.0599999999995 402.37217547977207 4232.42 402.6099730048478 4253.78 402.6034979212562 4275.139999999999 402.92984712341007 4296.5 402.9087758413143 4296.5 397.99999999999994 4275.139999999999 398 4253.78 398 4232.42 397.99999999999994 4211.0599999999995 397.99999999999994 4189.7 397.99999999999994 4168.34 398 4146.98 398 4125.62 397.99999999999994 4104.26 398 4082.9 397.99999999999994 4061.54 397.99999999999994 4040.18 398 4018.8199999999997 397.99999999999994 3997.46 397.99999999999994 3976.1 397.99999999999994 3954.74 398.00000000000006 3933.38 397.99999999999994 3912.02 398 3890.66 398 3869.3 398 3847.94 397.99999999999994 3826.58 397.99999999999994 3805.2200000000003 397.99999999999994 3783.86 397.9999999999999 3762.5 397.9999999999999 3741.14 398 3719.7799999999997 398.00000000000006 3698.42 397.99999999999994 3677.06 397.99999999999994 3655.7 398.00000000000006 3634.34 398 3612.98 398.00000000000006 3591.62 398 3570.26 397.99999999999994 3548.9 398 3527.54 398 3506.18 397.99999999999994 3484.82 398.00000000000006 3463.46 398 3442.1 398 3420.74 398.00000000000006 3399.38 397.99999999999994 3378.02 398.00000000000006 3356.66 398.00000000000006 3335.3 398 3313.94 398 3292.58 398.00000000000006 3271.22 397.99999999999994 3249.86 398 3228.5 398 3228.5 463.6506199133046Z" fill="#393d41" opacity="0.9" />
		</g>
		<g>
			<rect x="4372" y="431" width="22.9995" height="23" fill="#e62d39" />
		</g>
		<g>
			<text fill="#595959" font-family="Verdana,Open Sans,DejaVu Sans,sans-serif" font-weight="400" font-size="41" transform="matrix(1 0 0 1 4404.56 454)">Web Browser</text>
		</g>
		<g>
			<rect x="4372" y="508" width="22.9995" height="23" fill="#005aa6" />
		</g>
		<g>
			<text fill="#595959" font-family="Verdana,Open Sans,DejaVu Sans,sans-serif" font-weight="400" font-size="41" transform="matrix(1 0 0 1 4404.56 531)">App</text>
		</g>
		<g>
			<rect x="4372" y="585" width="22.9995" height="23" fill="#393d41" />
		</g>
		<g>
			<text fill="#595959" font-family="Verdana,Open Sans,DejaVu Sans,sans-serif" font-weight="400" font-size="41" transform="matrix(1 0 0 1 4404.56 608)">Unclassified</text>
		</g>
	</g>
</svg>
