<svg width="1763" height="1046"
    xmlns="http://www.w3.org/2000/svg"
	xmlns:xlink="http://www.w3.org/1999/xlink" xml:space="preserve" overflow="hidden">
	<defs>
		<clipPath id="clip0">
			<rect x="2917" y="346" width="1763" height="1046"/>
		</clipPath>
	</defs>
	<g clip-path="url(#clip0)" transform="translate(-2917 -346)">
		<rect x="2918" y="347" width="1760" height="1043" fill="#FFFFFF" />
		<g>
			<path d="
			M3228.5 974.532 4296.5 974.532
			M3228.5 910.53 4296.5 910.53
			M3228.5 846.528 4296.5 846.528
			M3228.5 781.526 4296.5 781.526
			M3228.5 717.524 4296.5 717.524
			M3228.5 653.522 4296.5 653.522
			M3228.5 589.52 4296.5 589.52
			M3228.5 525.517 4296.5 525.517
			M3228.5 461.515 4296.5 461.515
			M3228.5 397.5 4296.5 397.5" stroke="#D9D9D9" stroke-width="3.4375" stroke-linejoin="round" stroke-miterlimit="10" fill="none" />
		</g>
		<g>
			<path d="M 1038.5 4296.5 1038.5" stroke="#D9D9D9" stroke-width="3.4375" stroke-linejoin="round" stroke-miterlimit="10" fill="none" fill-rule="evenodd" />
		</g>
		<g>
			<text fill="#595959" font-family="Verdana,Open Sans,DejaVu Sans,sans-serif" font-weight="400" font-size="41" transform="matrix(6.12323e-17 -1 1 6.12323e-17 3247.1982421875 1192.2914962768555)">16-Jun</text>
		</g>
		<g>
			<text fill="#595959" font-family="Verdana,Open Sans,DejaVu Sans,sans-serif" font-weight="400" font-size="41" transform="matrix(6.12323e-17 -1 1 6.12323e-17 3330.082801231971 1177.2768478393555)">14-Jul</text>
		</g>
		<g>
			<text fill="#595959" font-family="Verdana,Open Sans,DejaVu Sans,sans-serif" font-weight="400" font-size="41" transform="matrix(6.12323e-17 -1 1 6.12323e-17 3412.4268329326924 1206.90576171875)">11-Aug</text>
		</g>
		<g>
			<text fill="#595959" font-family="Verdana,Open Sans,DejaVu Sans,sans-serif" font-weight="400" font-size="41" transform="matrix(6.12323e-17 -1 1 6.12323e-17 3494.7508451021636 1204.38330078125)">08-Sep</text>
		</g>
		<g>
			<text fill="#595959" font-family="Verdana,Open Sans,DejaVu Sans,sans-serif" font-weight="400" font-size="41" transform="matrix(6.12323e-17 -1 1 6.12323e-17 3572.1800818810098 1201.1000900268555)">06-Oct</text>
		</g>
		<g>
			<text fill="#595959" font-family="Verdana,Open Sans,DejaVu Sans,sans-serif" font-weight="400" font-size="41" transform="matrix(6.12323e-17 -1 1 6.12323e-17 3654.333928034856 1211.43017578125)">03-Nov</text>
		</g>
		<g>
			<text fill="#595959" font-family="Verdana,Open Sans,DejaVu Sans,sans-serif" font-weight="400" font-size="41" transform="matrix(6.12323e-17 -1 1 6.12323e-17 3736.487774188702 1207.0859375)">01-Dec</text>
		</g>
		<g>
			<text fill="#595959" font-family="Verdana,Open Sans,DejaVu Sans,sans-serif" font-weight="400" font-size="41" transform="matrix(6.12323e-17 -1 1 6.12323e-17 3818.621600811298 1207.1259765625)">29-Dec</text>
		</g>
		<g>
			<text fill="#595959" font-family="Verdana,Open Sans,DejaVu Sans,sans-serif" font-weight="400" font-size="41" transform="matrix(6.12323e-17 -1 1 6.12323e-17 3904.4290114182695 1191.6909103393555)">26-Jan</text>
		</g>
		<g>
			<text fill="#595959" font-family="Verdana,Open Sans,DejaVu Sans,sans-serif" font-weight="400" font-size="41" transform="matrix(6.12323e-17 -1 1 6.12323e-17 3983.6600060096152 1203.08203125)">23-Feb</text>
		</g>
		<g>
			<text fill="#595959" font-family="Verdana,Open Sans,DejaVu Sans,sans-serif" font-weight="400" font-size="41" transform="matrix(6.12323e-17 -1 1 6.12323e-17 4065.083139272837 1212.05078125)">23-Mar</text>
		</g>
		<g>
			<text fill="#595959" font-family="Verdana,Open Sans,DejaVu Sans,sans-serif" font-weight="400" font-size="41" transform="matrix(6.12323e-17 -1 1 6.12323e-17 4151.981614332933 1203.3022384643555)">20-Apr</text>
		</g>
		<g>
			<text fill="#595959" font-family="Verdana,Open Sans,DejaVu Sans,sans-serif" font-weight="400" font-size="41" transform="matrix(6.12323e-17 -1 1 6.12323e-17 4234.115440955529 1214.75341796875)">18-May</text>
		</g>
		<g>
			<text fill="#595959" font-family="Verdana,Open Sans,DejaVu Sans,sans-serif" font-weight="400" font-size="41" transform="matrix(6.12323e-17 -1 1 6.12323e-17 4314.988037109375 1192.2914962768555)">15-Jun</text>
		</g>
		<g>
			<text fill="#595959" font-family="Verdana,Open Sans,DejaVu Sans,sans-serif" font-weight="400" font-size="41" transform="matrix(1 0 0 1 3169.14111328125 1050)">0</text>
		</g>
		<g>
			<text fill="#595959" font-family="Verdana,Open Sans,DejaVu Sans,sans-serif" font-weight="400" font-size="41" transform="matrix(1 0 0 1 3088.5625 922)">3,356</text>
		</g>
		<g>
			<text fill="#595959" font-family="Verdana,Open Sans,DejaVu Sans,sans-serif" font-weight="400" font-size="41" transform="matrix(1 0 0 1 3096.14990234375 794)">6,711</text>
		</g>
		<g>
			<text fill="#595959" font-family="Verdana,Open Sans,DejaVu Sans,sans-serif" font-weight="400" font-size="41" transform="matrix(1 0 0 1 3067.0815505981445 666)">10,067</text>
		</g>
		<g>
			<text fill="#595959" font-family="Verdana,Open Sans,DejaVu Sans,sans-serif" font-weight="400" font-size="41" transform="matrix(1 0 0 1 3067.2016677856445 538)">13,422</text>
		</g>
		<g>
			<text fill="#595959" font-family="Verdana,Open Sans,DejaVu Sans,sans-serif" font-weight="400" font-size="41" transform="matrix(1 0 0 1 3067.1215896606445 410)">16,778</text>
		</g>
		<g>
			<text fill="#595959" font-family="Verdana,Open Sans,DejaVu Sans,sans-serif" font-weight="400" font-size="41" transform="matrix(1 0 0 1 3556.97119140625 1321)">Week Commencing</text>
		</g>
		<g>
			<text fill="#595959" font-family="Verdana,Open Sans,DejaVu Sans,sans-serif" font-weight="400" font-size="46" transform="matrix(6.12323e-17 -1 1 6.12323e-17 3019.73 1011.673828125)">Number of Browser Profiles</text>
		</g>
		<rect x="2918.5" y="347.5" width="1760" height="1043" stroke="#D9D9D9" stroke-width="3.4375" stroke-linejoin="round" stroke-miterlimit="10" fill="none" />
		<g>
			<path d="M3228.5 1038 3249.0384615384614 1038 3269.576923076923 1038 3290.1153846153848 1038 3310.653846153846 1038 3331.1923076923076 1038 3351.730769230769 1038 3372.269230769231 1038 3392.8076923076924 1038 3413.346153846154 1038 3433.8846153846152 1038 3454.423076923077 1038 3474.9615384615386 1038 3495.5 1038 3516.0384615384614 1038 3536.576923076923 1038 3557.1153846153848 1038 3577.653846153846 1038 3598.1923076923076 1038 3618.7307692307695 1038 3639.269230769231 1038 3659.8076923076924 1038 3680.346153846154 1038 3700.8846153846152 1038 3721.423076923077 1038 3741.9615384615386 1038 3762.5 1038 3783.0384615384614 1038 3803.576923076923 1038 3824.1153846153848 1038 3844.653846153846 1038 3865.1923076923076 1038 3885.7307692307695 1038 3906.269230769231 1038 3926.8076923076924 1038 3947.346153846154 1038 3967.8846153846152 1038 3988.423076923077 1038 4008.9615384615386 1038 4029.5 1038 4050.038461538462 1038 4070.576923076923 1038 4091.1153846153848 1038 4111.653846153846 1038 4132.192307692308 1038 4152.7307692307695 1038 4173.2692307692305 1038 4193.807692307692 1038 4214.346153846154 1038 4234.884615384615 1038 4255.423076923077 1038 4275.961538461539 1038 4296.5 1038 4296.5 533.0721182500895 4275.961538461539 534.2164739539874 4255.423076923077 535.1701037072357 4234.884615384615 535.7422815591847 4214.346153846154 536.3144594111336 4193.807692307692 537.4969603051616 4173.2692307692305 538.0691381571105 4152.7307692307695 538.870187149839 4132.192307692308 539.9382524734772 4111.653846153846 540.7774466563357 4091.1153846153848 541.8073667898439 4070.576923076923 542.7991417332221 4050.038461538462 543.7909166766003 4029.5 545.2785790916677 4008.9615384615386 546.0033377041364 3988.423076923077 546.9188222672548 3967.8846153846152 547.5672904994635 3947.346153846154 548.6735010132315 3926.8076923076924 549.6652759566098 3906.269230769231 550.1993086184289 3885.7307692307695 551.0003576111575 3865.1923076923076 551.7251162236262 3844.653846153846 552.5261652163547 3824.1153846153848 552.6787459768746 3803.576923076923 553.1364882584337 3783.0384615384614 553.6705209202528 3762.5 554.662295863631 3741.9615384615386 555.8829419477888 3721.423076923077 557.4850399332458 3700.8846153846152 557.7902014542854 3680.346153846154 558.8582667779235 3659.8076923076924 559.4685898200023 3639.269230769231 560.8799618548098 3618.7307692307695 561.4521397067588 3598.1923076923076 562.7490761711765 3577.653846153846 562.8635117415663 3557.1153846153848 563.7027059244249 3536.576923076923 564.6944808678031 3516.0384615384614 565.9532721420908 3495.5 566.6398855644296 3474.9615384615386 567.2502086065085 3454.423076923077 568.4708546906663 3433.8846153846152 569.271903683395 3413.346153846154 570.1492430563833 3392.8076923076924 571.1028728096317 3372.269230769231 571.8657766122303 3351.730769230769 572.590535224699 3331.1923076923076 573.4297294075575 3310.653846153846 573.8111813088568 3290.1153846153848 574.7648110621051 3269.576923076923 576.023602336393 3249.0384615384614 576.5957801883419 3228.5 577.7019907021099 3228.5 1038Z" fill="#005aa6" opacity="0.9" />
		</g>
		<g>
			<path d="M3228.5 577.7019907021099 3249.0384615384614 576.5957801883419 3269.576923076923 576.023602336393 3290.1153846153848 574.7648110621051 3310.653846153846 573.8111813088568 3331.1923076923076 573.4297294075575 3351.730769230769 572.590535224699 3372.269230769231 571.8657766122303 3392.8076923076924 571.1028728096317 3413.346153846154 570.1492430563833 3433.8846153846152 569.271903683395 3454.423076923077 568.4708546906663 3474.9615384615386 567.2502086065085 3495.5 566.6398855644296 3516.0384615384614 565.9532721420908 3536.576923076923 564.6944808678031 3557.1153846153848 563.7027059244249 3577.653846153846 562.8635117415663 3598.1923076923076 562.7490761711765 3618.7307692307695 561.4521397067588 3639.269230769231 560.8799618548098 3659.8076923076924 559.4685898200023 3680.346153846154 558.8582667779235 3700.8846153846152 557.7902014542854 3721.423076923077 557.4850399332458 3741.9615384615386 555.8829419477888 3762.5 554.662295863631 3783.0384615384614 553.6705209202528 3803.576923076923 553.1364882584337 3824.1153846153848 552.6787459768746 3844.653846153846 552.5261652163547 3865.1923076923076 551.7251162236262 3885.7307692307695 551.0003576111575 3906.269230769231 550.1993086184289 3926.8076923076924 549.6652759566098 3947.346153846154 548.6735010132315 3967.8846153846152 547.5672904994635 3988.423076923077 546.9188222672548 4008.9615384615386 546.0033377041364 4029.5 545.2785790916677 4050.038461538462 543.7909166766003 4070.576923076923 542.7991417332221 4091.1153846153848 541.8073667898439 4111.653846153846 540.7774466563357 4132.192307692308 539.9382524734772 4152.7307692307695 538.870187149839 4173.2692307692305 538.0691381571105 4193.807692307692 537.4969603051616 4214.346153846154 536.3144594111336 4234.884615384615 535.7422815591847 4255.423076923077 535.1701037072357 4275.961538461539 534.2164739539874 4296.5 533.0721182500895 4296.5 398.0000000000001 4275.961538461539 399.37322684467756 4255.423076923077 400.6701633090953 4234.884615384615 401.356776731434 4214.346153846154 402.2722612945524 4193.807692307692 403.64548813923 4173.2692307692305 404.6372630826082 4152.7307692307695 405.5908928358564 4132.192307692308 406.9259744904041 4111.653846153846 407.9558946239123 4091.1153846153848 409.25283108832997 4070.576923076923 410.43533198235787 4050.038461538462 411.69412325664564 4029.5 413.6013827631422 4008.9615384615386 414.4787221361306 3988.423076923077 415.69936822028853 3967.8846153846152 416.7292883537966 3947.346153846154 418.14066038860403 3926.8076923076924 419.323161282632 3906.269230769231 420.0479198951007 3885.7307692307695 421.61187269042796 3865.1923076923076 422.41292168315647 3844.653846153846 423.36655143640473 3824.1153846153848 423.55727738705457 3803.576923076923 424.09131004887354 3783.0384615384614 424.6253427106926 3762.5 425.92227917511036 3741.9615384615386 427.37179640004774 3721.423076923077 429.1646203361544 3700.8846153846152 429.7367981881034 3680.346153846154 431.0337346525212 3659.8076923076924 431.7584932649898 3639.269230769231 433.322446060317 3618.7307692307695 434.0853498629157 3598.1923076923076 435.5348670878531 3577.653846153846 435.6874478483728 3557.1153846153848 436.79365836214095 3536.576923076923 437.89986887590896 3516.0384615384614 439.3493861008463 3495.5 440.1885802837049 3474.9615384615386 440.9514840863035 3454.423076923077 442.24842055072116 3433.8846153846152 443.24019549409945 3413.346153846154 444.19382524734766 3392.8076923076924 445.4907617117654 3372.269230769231 446.32995589462394 3351.730769230769 447.2835856478722 3331.1923076923076 448.23721540112047 3310.653846153846 448.88568363332934 3290.1153846153848 450.14447490761705 3269.576923076923 451.5939921325546 3249.0384615384614 452.2806055548933 3228.5 453.50125163905113 3228.5 577.7019907021099Z" fill="#e62d39" opacity="0.9" />
		</g>
		<g>
			<rect x="4372" y="431" width="22.9995" height="23" fill="#005aa6" />
		</g>
		<g>
			<text fill="#595959" font-family="Verdana,Open Sans,DejaVu Sans,sans-serif" font-weight="400" font-size="41" transform="matrix(1 0 0 1 4404.56 454)">Web Browser</text>
		</g>
		<g>
			<rect x="4372" y="508" width="22.9995" height="23" fill="#e62d39" />
		</g>
		<g>
			<text fill="#595959" font-family="Verdana,Open Sans,DejaVu Sans,sans-serif" font-weight="400" font-size="41" transform="matrix(1 0 0 1 4404.56 531)">App</text>
		</g>
	</g>
</svg>
