<svg width="1763" height="1046"
    xmlns="http://www.w3.org/2000/svg"
	xmlns:xlink="http://www.w3.org/1999/xlink" xml:space="preserve" overflow="hidden">
	<defs>
		<clipPath id="clip0">
			<rect x="2917" y="346" width="1763" height="1046"/>
		</clipPath>
	</defs>
	<g clip-path="url(#clip0)" transform="translate(-2917 -346)">
		<rect x="2918" y="347" width="1760" height="1043" fill="#FFFFFF" />
		<g>
			<path d="
			M3228.5 974.532 4296.5 974.532
			M3228.5 910.53 4296.5 910.53
			M3228.5 846.528 4296.5 846.528
			M3228.5 781.526 4296.5 781.526
			M3228.5 717.524 4296.5 717.524
			M3228.5 653.522 4296.5 653.522
			M3228.5 589.52 4296.5 589.52
			M3228.5 525.517 4296.5 525.517
			M3228.5 461.515 4296.5 461.515
			M3228.5 397.5 4296.5 397.5" stroke="#D9D9D9" stroke-width="3.4375" stroke-linejoin="round" stroke-miterlimit="10" fill="none" />
		</g>
		<g>
			<path d="M 1038.5 4296.5 1038.5" stroke="#D9D9D9" stroke-width="3.4375" stroke-linejoin="round" stroke-miterlimit="10" fill="none" fill-rule="evenodd" />
		</g>
		<g>
			<text fill="#595959" font-family="Verdana,sans-serif" font-weight="400" font-size="41" transform="matrix(6.12323e-17 -1 1 6.12323e-17 3244.5 1210)">29-Jan</text>
		</g>
		<g>
			<text fill="#595959" font-family="Verdana,sans-serif" font-weight="400" font-size="41" transform="matrix(6.12323e-17 -1 1 6.12323e-17 3328.264705882353 1216)">26-Feb</text>
		</g>
		<g>
			<text fill="#595959" font-family="Verdana,sans-serif" font-weight="400" font-size="41" transform="matrix(6.12323e-17 -1 1 6.12323e-17 3412.029411764706 1223)">25-Mar</text>
		</g>
		<g>
			<text fill="#595959" font-family="Verdana,sans-serif" font-weight="400" font-size="41" transform="matrix(6.12323e-17 -1 1 6.12323e-17 3499.294117647059 1216)">22-Apr</text>
		</g>
		<g>
			<text fill="#595959" font-family="Verdana,sans-serif" font-weight="400" font-size="41" transform="matrix(6.12323e-17 -1 1 6.12323e-17 3583.0588235294117 1228)">20-May</text>
		</g>
		<g>
			<text fill="#595959" font-family="Verdana,sans-serif" font-weight="400" font-size="41" transform="matrix(6.12323e-17 -1 1 6.12323e-17 3662.823529411765 1209)">17-Jun</text>
		</g>
		<g>
			<text fill="#595959" font-family="Verdana,sans-serif" font-weight="400" font-size="41" transform="matrix(6.12323e-17 -1 1 6.12323e-17 3747.0882352941176 1194)">15-Jul</text>
		</g>
		<g>
			<text fill="#595959" font-family="Verdana,sans-serif" font-weight="400" font-size="41" transform="matrix(6.12323e-17 -1 1 6.12323e-17 3834.3529411764707 1218)">12-Aug</text>
		</g>
		<g>
			<text fill="#595959" font-family="Verdana,sans-serif" font-weight="400" font-size="41" transform="matrix(6.12323e-17 -1 1 6.12323e-17 3918.1176470588234 1222)">09-Sep</text>
		</g>
		<g>
			<text fill="#595959" font-family="Verdana,sans-serif" font-weight="400" font-size="41" transform="matrix(6.12323e-17 -1 1 6.12323e-17 3998.3823529411766 1215)">07-Oct</text>
		</g>
		<g>
			<text fill="#595959" font-family="Verdana,sans-serif" font-weight="400" font-size="41" transform="matrix(6.12323e-17 -1 1 6.12323e-17 4082.1470588235293 1225)">04-Nov</text>
		</g>
		<g>
			<text fill="#595959" font-family="Verdana,sans-serif" font-weight="400" font-size="41" transform="matrix(6.12323e-17 -1 1 6.12323e-17 4165.911764705882 1223)">09-Dec</text>
		</g>
		<g>
			<text fill="#595959" font-family="Verdana,sans-serif" font-weight="400" font-size="41" transform="matrix(6.12323e-17 -1 1 6.12323e-17 4249.676470588235 1210)">06-Jan</text>
		</g>
		<g>
			<text fill="#595959" font-family="Verdana,sans-serif" font-weight="400" font-size="41" transform="matrix(1 0 0 1 3167.5 1050)">0</text>
		</g>
		<g>
			<text fill="#595959" font-family="Verdana,sans-serif" font-weight="400" font-size="41" transform="matrix(1 0 0 1 3074.5 922)">2,952</text>
		</g>
		<g>
			<text fill="#595959" font-family="Verdana,sans-serif" font-weight="400" font-size="41" transform="matrix(1 0 0 1 3074.5 794)">5,904</text>
		</g>
		<g>
			<text fill="#595959" font-family="Verdana,sans-serif" font-weight="400" font-size="41" transform="matrix(1 0 0 1 3074.5 666)">8,855</text>
		</g>
		<g>
			<text fill="#595959" font-family="Verdana,sans-serif" font-weight="400" font-size="41" transform="matrix(1 0 0 1 3050.5 538)">11,807</text>
		</g>
		<g>
			<text fill="#595959" font-family="Verdana,sans-serif" font-weight="400" font-size="41" transform="matrix(1 0 0 1 3051.5 410)">14,759</text>
		</g>
		<g>
			<text fill="#595959" font-family="Verdana,sans-serif" font-weight="400" font-size="41" transform="matrix(1 0 0 1 3544.5 1321)">Week Commencing</text>
		</g>
		<g>
			<text fill="#595959" font-family="Verdana,sans-serif" font-weight="400" font-size="46" transform="matrix(6.12323e-17 -1 1 6.12323e-17 3019.73 1030.75)">Number of Browser Profiles</text>
		</g>
		<rect x="2918.5" y="347.5" width="1760" height="1043" stroke="#D9D9D9" stroke-width="3.4375" stroke-linejoin="round" stroke-miterlimit="10" fill="none" />
		<g>
			<path d="M3228.5 1038 3249.4411764705883 1038 3270.3823529411766 1038 3291.323529411765 1038 3312.264705882353 1038 3333.205882352941 1038 3354.1470588235293 1038 3375.0882352941176 1038 3396.029411764706 1038 3416.970588235294 1038 3437.9117647058824 1038 3458.8529411764707 1038 3479.794117647059 1038 3500.735294117647 1038 3521.676470588235 1038 3542.6176470588234 1038 3563.5588235294117 1038 3584.5 1038 3605.4411764705883 1038 3626.3823529411766 1038 3647.323529411765 1038 3668.264705882353 1038 3689.205882352941 1038 3710.1470588235293 1038 3731.0882352941176 1038 3752.029411764706 1038 3772.970588235294 1038 3793.9117647058824 1038 3814.8529411764707 1038 3835.7941176470586 1038 3856.735294117647 1038 3877.676470588235 1038 3898.6176470588234 1038 3919.5588235294117 1038 3940.5 1038 3961.4411764705883 1038 3982.3823529411766 1038 4003.323529411765 1038 4024.264705882353 1038 4045.2058823529414 1038 4066.1470588235293 1038 4087.0882352941176 1038 4108.029411764706 1038 4128.970588235294 1038 4149.911764705882 1038 4170.85294117647 1038 4191.794117647059 1038 4212.735294117647 1038 4233.676470588235 1038 4254.617647058823 1038 4275.558823529412 1038 4296.5 1038 4296.5 535.1583440612508 4275.558823529412 535.895521376787 4254.617647058823 536.4158818348126 4233.676470588235 537.1964225218511 4212.735294117647 537.7167829798767 4191.794117647059 538.0203265803916 4170.85294117647 539.0176841249407 4149.911764705882 539.754861440477 4128.970588235294 541.402669557558 4108.029411764706 542.4867538451115 4087.0882352941176 543.1372044176435 4066.1470588235293 543.7876549901755 4045.2058823529414 544.7416491632225 4024.264705882353 545.5221898502609 4003.323529411765 546.2593671657971 3982.3823529411766 547.1699979673419 3961.4411764705883 548.5576258554103 3940.5 548.9912595704316 3919.5588235294117 550.1187072294871 3898.6176470588234 551.072701402534 3877.676470588235 551.723151975066 3856.735294117647 552.677146148113 3835.7941176470586 553.2408699776408 3814.8529411764707 553.8479571786706 3793.9117647058824 554.8019513517177 3772.970588235294 555.6258554102582 3752.029411764706 556.4063960972966 3731.0882352941176 556.9701199268243 3710.1470588235293 557.4037536418457 3689.205882352941 557.837387356867 3668.264705882353 558.8781082729182 3647.323529411765 559.6152855884545 3626.3823529411766 560.3524629039907 3605.4411764705883 561.4799105630464 3584.5 562.5639948505997 3563.5588235294117 563.5613523951488 3542.6176470588234 564.0383494816722 3521.676470588235 564.6020733112 3500.735294117647 565.2958872552341 3479.794117647059 566.5967884002981 3458.8529411764707 567.7675994308557 3437.9117647058824 568.9384104614134 3416.970588235294 570.3694017209839 3396.029411764706 571.4534860085372 3375.0882352941176 572.4508435530863 3354.1470588235293 573.4915644691375 3333.205882352941 574.8358289857036 3312.264705882353 577.0473609323125 3291.323529411765 577.4809946473338 3270.3823529411766 577.827901619351 3249.4411764705883 579.6925265939426 3228.5 581.6005149400366 3228.5 1038Z" fill="#e62d39" opacity="0.9" />
		</g>
		<g>
			<path d="M3228.5 581.6005149400366 3249.4411764705883 579.6925265939426 3270.3823529411766 577.827901619351 3291.323529411765 577.4809946473338 3312.264705882353 577.0473609323125 3333.205882352941 574.8358289857036 3354.1470588235293 573.4915644691375 3375.0882352941176 572.4508435530863 3396.029411764706 571.4534860085372 3416.970588235294 570.3694017209839 3437.9117647058824 568.9384104614134 3458.8529411764707 567.7675994308557 3479.794117647059 566.5967884002981 3500.735294117647 565.2958872552341 3521.676470588235 564.6020733112 3542.6176470588234 564.0383494816722 3563.5588235294117 563.5613523951488 3584.5 562.5639948505997 3605.4411764705883 561.4799105630464 3626.3823529411766 560.3524629039907 3647.323529411765 559.6152855884545 3668.264705882353 558.8781082729182 3689.205882352941 557.837387356867 3710.1470588235293 557.4037536418457 3731.0882352941176 556.9701199268243 3752.029411764706 556.4063960972966 3772.970588235294 555.6258554102582 3793.9117647058824 554.8019513517177 3814.8529411764707 553.8479571786706 3835.7941176470586 553.2408699776408 3856.735294117647 552.677146148113 3877.676470588235 551.723151975066 3898.6176470588234 551.072701402534 3919.5588235294117 550.1187072294871 3940.5 548.9912595704316 3961.4411764705883 548.5576258554103 3982.3823529411766 547.1699979673419 4003.323529411765 546.2593671657971 4024.264705882353 545.5221898502609 4045.2058823529414 544.7416491632225 4066.1470588235293 543.7876549901755 4087.0882352941176 543.1372044176435 4108.029411764706 542.4867538451115 4128.970588235294 541.402669557558 4149.911764705882 539.754861440477 4170.85294117647 539.0176841249407 4191.794117647059 538.0203265803916 4212.735294117647 537.7167829798767 4233.676470588235 537.1964225218511 4254.617647058823 536.4158818348126 4275.558823529412 535.895521376787 4296.5 535.1583440612508 4296.5 398 4275.558823529412 398.997357544549 4254.617647058823 399.7345348600853 4233.676470588235 400.64516566163024 4212.735294117647 401.20888949115795 4191.794117647059 401.51243309167285 4170.85294117647 402.6832441222305 4149.911764705882 403.6372382952775 4128.970588235294 405.58859001287345 4108.029411764706 406.9328545294397 4087.0882352941176 407.80012195948234 4066.1470588235293 409.23111321905276 4045.2058823529414 410.4019242496105 4024.264705882353 411.3559184226574 4003.323529411765 412.2665492242022 3982.3823529411766 413.3072701402534 3961.4411764705883 414.82498814282815 3940.5 415.43207534385795 3919.5588235294117 416.8630666034284 3898.6176470588234 418.033877633986 3877.676470588235 418.85778169252654 3856.735294117647 420.0285927230842 3835.7941176470586 420.67904329561634 3814.8529411764707 421.58967409716104 3793.9117647058824 422.63039501321236 3772.970588235294 423.62775255776137 3752.029411764706 424.5383833593062 3731.0882352941176 425.1021071888339 3710.1470588235293 425.6224676468596 3689.205882352941 426.3596449623958 3668.264705882353 427.5738193644556 3647.323529411765 428.48445016600044 3626.3823529411766 429.4384443390473 3605.4411764705883 430.8694355986179 3584.5 432.1703367436819 3563.5588235294117 433.2977844027374 3542.6176470588234 433.9482349752693 3521.676470588235 434.64204891930353 3500.735294117647 435.46595297784404 3479.794117647059 436.98367098041876 3458.8529411764707 438.37129886848703 3437.9117647058824 439.7589267565553 3416.970588235294 441.45009824513863 3396.029411764706 442.75099939020265 3375.0882352941176 444.3554441357816 3354.1470588235293 445.91652550985845 3333.205882352941 447.3041533979267 3312.264705882353 449.77586557354834 3291.323529411765 450.25286266007174 3270.3823529411766 450.7732231180975 3249.4411764705883 452.89802832170193 3228.5 454.9361067823024 3228.5 581.6005149400366Z" fill="#005aa6" opacity="0.9" />
		</g>
		<g>
			<rect x="4372" y="431" width="22.9995" height="23" fill="#e62d39" />
		</g>
		<g>
			<text fill="#595959" font-family="Verdana,sans-serif" font-weight="400" font-size="41" transform="matrix(1 0 0 1 4404.56 454)">Web Browser</text>
		</g>
		<g>
			<rect x="4372" y="508" width="22.9995" height="23" fill="#005aa6" />
		</g>
		<g>
			<text fill="#595959" font-family="Verdana,sans-serif" font-weight="400" font-size="41" transform="matrix(1 0 0 1 4404.56 531)">App</text>
		</g>
	</g>
</svg>
