<svg width="1763" height="1046"
    xmlns="http://www.w3.org/2000/svg"
	xmlns:xlink="http://www.w3.org/1999/xlink" xml:space="preserve" overflow="hidden">
	<defs>
		<clipPath id="clip0">
			<rect x="2917" y="346" width="1763" height="1046"/>
		</clipPath>
	</defs>
	<g clip-path="url(#clip0)" transform="translate(-2917 -346)">
		<rect x="2918" y="347" width="1760" height="1043" fill="#FFFFFF" />
		<g>
			<path d="
			M3228.5 974.532 4296.5 974.532
			M3228.5 910.53 4296.5 910.53
			M3228.5 846.528 4296.5 846.528
			M3228.5 781.526 4296.5 781.526
			M3228.5 717.524 4296.5 717.524
			M3228.5 653.522 4296.5 653.522
			M3228.5 589.52 4296.5 589.52
			M3228.5 525.517 4296.5 525.517
			M3228.5 461.515 4296.5 461.515
			M3228.5 397.5 4296.5 397.5" stroke="#D9D9D9" stroke-width="3.4375" stroke-linejoin="round" stroke-miterlimit="10" fill="none" />
		</g>
		<g>
			<path d="M 1038.5 4296.5 1038.5" stroke="#D9D9D9" stroke-width="3.4375" stroke-linejoin="round" stroke-miterlimit="10" fill="none" fill-rule="evenodd" />
		</g>
		<g>
			<text fill="#595959" font-family="Verdana,Open Sans,DejaVu Sans,sans-serif" font-weight="400" font-size="41" transform="matrix(6.12323e-17 -1 1 6.12323e-17 3243.544677734375 1211.47021484375)">25-Nov</text>
		</g>
		<g>
			<text fill="#595959" font-family="Verdana,Open Sans,DejaVu Sans,sans-serif" font-weight="400" font-size="41" transform="matrix(6.12323e-17 -1 1 6.12323e-17 3330.748370735013 1207.24609375)">30-Dec</text>
		</g>
		<g>
			<text fill="#595959" font-family="Verdana,Open Sans,DejaVu Sans,sans-serif" font-weight="400" font-size="41" transform="matrix(6.12323e-17 -1 1 6.12323e-17 3421.5655891262754 1191.6909103393555)">27-Jan</text>
		</g>
		<g>
			<text fill="#595959" font-family="Verdana,Open Sans,DejaVu Sans,sans-serif" font-weight="400" font-size="41" transform="matrix(6.12323e-17 -1 1 6.12323e-17 3505.8264110331634 1203.08203125)">24-Feb</text>
		</g>
		<g>
			<text fill="#595959" font-family="Verdana,Open Sans,DejaVu Sans,sans-serif" font-weight="400" font-size="41" transform="matrix(6.12323e-17 -1 1 6.12323e-17 3592.279371611926 1212.05078125)">24-Mar</text>
		</g>
		<g>
			<text fill="#595959" font-family="Verdana,Open Sans,DejaVu Sans,sans-serif" font-weight="400" font-size="41" transform="matrix(6.12323e-17 -1 1 6.12323e-17 3684.187654456314 1203.3022384643555)">21-Apr</text>
		</g>
		<g>
			<text fill="#595959" font-family="Verdana,Open Sans,DejaVu Sans,sans-serif" font-weight="400" font-size="41" transform="matrix(6.12323e-17 -1 1 6.12323e-17 3771.3713279257017 1214.75341796875)">19-May</text>
		</g>
		<g>
			<text fill="#595959" font-family="Verdana,Open Sans,DejaVu Sans,sans-serif" font-weight="400" font-size="41" transform="matrix(6.12323e-17 -1 1 6.12323e-17 3857.483956473214 1194.0532150268555)">23-Jun</text>
		</g>
		<g>
			<text fill="#595959" font-family="Verdana,Open Sans,DejaVu Sans,sans-serif" font-weight="400" font-size="41" transform="matrix(6.12323e-17 -1 1 6.12323e-17 3945.398342833227 1179.0385665893555)">21-Jul</text>
		</g>
		<g>
			<text fill="#595959" font-family="Verdana,Open Sans,DejaVu Sans,sans-serif" font-weight="400" font-size="41" transform="matrix(6.12323e-17 -1 1 6.12323e-17 4032.9223483338646 1206.90576171875)">18-Aug</text>
		</g>
		<g>
			<text fill="#595959" font-family="Verdana,Open Sans,DejaVu Sans,sans-serif" font-weight="400" font-size="41" transform="matrix(6.12323e-17 -1 1 6.12323e-17 4120.106021803253 1202.66162109375)">15-Sep</text>
		</g>
		<g>
			<text fill="#595959" font-family="Verdana,Open Sans,DejaVu Sans,sans-serif" font-weight="400" font-size="41" transform="matrix(6.12323e-17 -1 1 6.12323e-17 4202.5851054288905 1199.3784103393555)">13-Oct</text>
		</g>
		<g>
			<text fill="#595959" font-family="Verdana,Open Sans,DejaVu Sans,sans-serif" font-weight="400" font-size="41" transform="matrix(6.12323e-17 -1 1 6.12323e-17 4289.7687788982785 1209.70849609375)">10-Nov</text>
		</g>
		<g>
			<text fill="#595959" font-family="Verdana,Open Sans,DejaVu Sans,sans-serif" font-weight="400" font-size="41" transform="matrix(1 0 0 1 3169.14111328125 1050)">0</text>
		</g>
		<g>
			<text fill="#595959" font-family="Verdana,Open Sans,DejaVu Sans,sans-serif" font-weight="400" font-size="41" transform="matrix(1 0 0 1 3088.7626953125 922)">3,182</text>
		</g>
		<g>
			<text fill="#595959" font-family="Verdana,Open Sans,DejaVu Sans,sans-serif" font-weight="400" font-size="41" transform="matrix(1 0 0 1 3089.38330078125 794)">6,365</text>
		</g>
		<g>
			<text fill="#595959" font-family="Verdana,Open Sans,DejaVu Sans,sans-serif" font-weight="400" font-size="41" transform="matrix(1 0 0 1 3088.8828125 666)">9,547</text>
		</g>
		<g>
			<text fill="#595959" font-family="Verdana,Open Sans,DejaVu Sans,sans-serif" font-weight="400" font-size="41" transform="matrix(1 0 0 1 3067.0415115356445 538)">12,730</text>
		</g>
		<g>
			<text fill="#595959" font-family="Verdana,Open Sans,DejaVu Sans,sans-serif" font-weight="400" font-size="41" transform="matrix(1 0 0 1 3067.2016677856445 410)">15,912</text>
		</g>
		<g>
			<text fill="#595959" font-family="Verdana,Open Sans,DejaVu Sans,sans-serif" font-weight="400" font-size="41" transform="matrix(1 0 0 1 3556.97119140625 1321)">Week Commencing</text>
		</g>
		<g>
			<text fill="#595959" font-family="Verdana,Open Sans,DejaVu Sans,sans-serif" font-weight="400" font-size="46" transform="matrix(6.12323e-17 -1 1 6.12323e-17 3019.73 1011.673828125)">Number of Browser Profiles</text>
		</g>
		<rect x="2918.5" y="347.5" width="1760" height="1043" stroke="#D9D9D9" stroke-width="3.4375" stroke-linejoin="round" stroke-miterlimit="10" fill="none" />
		<g>
			<path d="M3228.5 1038 3250.295918367347 1038 3272.091836734694 1038 3293.887755102041 1038 3315.683673469388 1038 3337.4795918367345 1038 3359.2755102040815 1038 3381.0714285714284 1038 3402.8673469387754 1038 3424.6632653061224 1038 3446.4591836734694 1038 3468.2551020408164 1038 3490.0510204081634 1038 3511.8469387755104 1038 3533.6428571428573 1038 3555.4387755102043 1038 3577.234693877551 1038 3599.030612244898 1038 3620.826530612245 1038 3642.622448979592 1038 3664.418367346939 1038 3686.214285714286 1038 3708.0102040816328 1038 3729.8061224489797 1038 3751.6020408163267 1038 3773.3979591836733 1038 3795.1938775510203 1038 3816.9897959183672 1038 3838.785714285714 1038 3860.581632653061 1038 3882.377551020408 1038 3904.173469387755 1038 3925.969387755102 1038 3947.765306122449 1038 3969.5612244897957 1038 3991.357142857143 1038 4013.1530612244896 1038 4034.9489795918366 1038 4056.7448979591836 1038 4078.5408163265306 1038 4100.336734693878 1038 4122.132653061224 1038 4143.928571428572 1038 4165.724489795918 1038 4187.5204081632655 1038 4209.316326530612 1038 4231.1122448979595 1038 4252.908163265306 1038 4274.7040816326535 1038 4296.5 1038 4296.5 532.7812971342382 4274.7040816326535 533.4248366013071 4252.908163265306 534.9130216189039 4231.1122448979595 535.516339869281 4209.316326530612 536.8838612368024 4187.5204081632655 537.0045248868778 4165.724489795918 537.8893916540975 4143.928571428572 538.9351432880844 4122.132653061224 540.262443438914 4100.336734693878 540.9864253393664 4078.5408163265306 541.6299648064353 4056.7448979591836 542.917043740573 4034.9489795918366 543.761689291101 4013.1530612244896 544.6867772750126 3991.357142857143 545.6923076923076 3969.5612244897957 546.4967320261437 3947.765306122449 547.2609351432881 3925.969387755102 548.1458019105078 3904.173469387755 548.5480140774258 3882.377551020408 549.5535444947209 3860.581632653061 550.8808446455505 3838.785714285714 551.4841628959275 3816.9897959183672 552.6505781799899 3795.1938775510203 554.0180995475113 3773.3979591836733 555.6671694318752 3751.6020408163267 556.7933634992457 3729.8061224489797 557.8793363499245 3708.0102040816328 558.8044243338361 3686.214285714286 559.649069884364 3664.418367346939 560.6143790849674 3642.622448979592 561.499245852187 3620.826530612245 562.9874308697838 3599.030612244898 563.6309703368527 3577.234693877551 564.2745098039215 3555.4387755102043 565.0387129210658 3533.6428571428573 566.1246857717446 3511.8469387755104 567.2508798391151 3490.0510204081634 568.1357466063348 3468.2551020408164 568.6988436400201 3446.4591836734694 569.6239316239316 3424.6632653061224 570.9914529914529 3402.8673469387754 571.59477124183 3381.0714285714284 572.2785319255906 3359.2755102040815 572.7611865258923 3337.4795918367345 573.4851684263449 3315.683673469388 573.9678230266466 3293.887755102041 574.2493715434891 3272.091836734694 575.1744595274007 3250.295918367347 575.8582202111613 3228.5 577.38662644545 3228.5 1038Z" fill="#005aa6" opacity="0.9" />
		</g>
		<g>
			<path d="M3228.5 577.38662644545 3250.295918367347 575.8582202111613 3272.091836734694 575.1744595274007 3293.887755102041 574.2493715434891 3315.683673469388 573.9678230266466 3337.4795918367345 573.4851684263449 3359.2755102040815 572.7611865258923 3381.0714285714284 572.2785319255906 3402.8673469387754 571.59477124183 3424.6632653061224 570.9914529914529 3446.4591836734694 569.6239316239316 3468.2551020408164 568.6988436400201 3490.0510204081634 568.1357466063348 3511.8469387755104 567.2508798391151 3533.6428571428573 566.1246857717446 3555.4387755102043 565.0387129210658 3577.234693877551 564.2745098039215 3599.030612244898 563.6309703368527 3620.826530612245 562.9874308697838 3642.622448979592 561.499245852187 3664.418367346939 560.6143790849674 3686.214285714286 559.649069884364 3708.0102040816328 558.8044243338361 3729.8061224489797 557.8793363499245 3751.6020408163267 556.7933634992457 3773.3979591836733 555.6671694318752 3795.1938775510203 554.0180995475113 3816.9897959183672 552.6505781799899 3838.785714285714 551.4841628959275 3860.581632653061 550.8808446455505 3882.377551020408 549.5535444947209 3904.173469387755 548.5480140774258 3925.969387755102 548.1458019105078 3947.765306122449 547.2609351432881 3969.5612244897957 546.4967320261437 3991.357142857143 545.6923076923076 4013.1530612244896 544.6867772750126 4034.9489795918366 543.761689291101 4056.7448979591836 542.917043740573 4078.5408163265306 541.6299648064353 4100.336734693878 540.9864253393664 4122.132653061224 540.262443438914 4143.928571428572 538.9351432880844 4165.724489795918 537.8893916540975 4187.5204081632655 537.0045248868778 4209.316326530612 536.8838612368024 4231.1122448979595 535.516339869281 4252.908163265306 534.9130216189039 4274.7040816326535 533.4248366013071 4296.5 532.7812971342382 4296.5 397.9999999999999 4274.7040816326535 398.76420311714423 4252.908163265306 400.4132730015083 4231.1122448979595 401.21769733534427 4209.316326530612 402.74610356963296 4187.5204081632655 402.9069884364002 4165.724489795918 404.07340372046247 4143.928571428572 405.23981900452486 4122.132653061224 406.76822523881344 4100.336734693878 407.65309200603303 4078.5408163265306 408.45751633986913 4056.7448979591836 409.8250377073905 4034.9489795918366 410.87078934137753 4013.1530612244896 411.8763197586727 3991.357142857143 413.24384112619396 3969.5612244897957 414.12870789341366 3947.765306122449 415.13423831070884 3925.969387755102 416.139768728004 3904.173469387755 416.82352941176464 3882.377551020408 418.15082956259414 3860.581632653061 419.67923579688284 3838.785714285714 420.4032176973352 3816.9897959183672 421.6902966314731 3795.1938775510203 423.1784816490698 3773.3979591836733 425.390648567119 3751.6020408163267 426.7179487179486 3729.8061224489797 428.04524886877823 3708.0102040816328 429.131221719457 3686.214285714286 430.09653092006033 3664.418367346939 431.2629462041227 3642.622448979592 432.30869783810954 3620.826530612245 433.9979889391654 3599.030612244898 434.8426344896933 3577.234693877551 435.5666163901458 3555.4387755102043 436.45148315736543 3533.6428571428573 437.85922574157865 3511.8469387755104 439.1060834590246 3490.0510204081634 440.1116138763197 3468.2551020408164 440.9160382101558 3446.4591836734694 442.0824534942182 3424.6632653061224 443.6108597285067 3402.8673469387754 444.37506284565103 3381.0714285714284 445.3001508295625 3359.2755102040815 445.98391151332316 3337.4795918367345 446.8285570638512 3315.683673469388 447.35143288084464 3293.887755102041 447.6329813976872 3272.091836734694 448.718954248366 3250.295918367347 449.60382101558565 3228.5 451.413775766717 3228.5 577.38662644545Z" fill="#e62d39" opacity="0.9" />
		</g>
		<g>
			<rect x="4372" y="431" width="22.9995" height="23" fill="#005aa6" />
		</g>
		<g>
			<text fill="#595959" font-family="Verdana,Open Sans,DejaVu Sans,sans-serif" font-weight="400" font-size="41" transform="matrix(1 0 0 1 4404.56 454)">Web Browser</text>
		</g>
		<g>
			<rect x="4372" y="508" width="22.9995" height="23" fill="#e62d39" />
		</g>
		<g>
			<text fill="#595959" font-family="Verdana,Open Sans,DejaVu Sans,sans-serif" font-weight="400" font-size="41" transform="matrix(1 0 0 1 4404.56 531)">App</text>
		</g>
	</g>
</svg>
