<svg width="1763" height="1046"
    xmlns="http://www.w3.org/2000/svg"
	xmlns:xlink="http://www.w3.org/1999/xlink" xml:space="preserve" overflow="hidden">
	<defs>
		<clipPath id="clip0">
			<rect x="2917" y="346" width="1763" height="1046"/>
		</clipPath>
	</defs>
	<g clip-path="url(#clip0)" transform="translate(-2917 -346)">
		<rect x="2918" y="347" width="1760" height="1043" fill="#FFFFFF" />
		<g>
			<path d="
			M3228.5 974.532 4296.5 974.532
			M3228.5 910.53 4296.5 910.53
			M3228.5 846.528 4296.5 846.528
			M3228.5 781.526 4296.5 781.526
			M3228.5 717.524 4296.5 717.524
			M3228.5 653.522 4296.5 653.522
			M3228.5 589.52 4296.5 589.52
			M3228.5 525.517 4296.5 525.517
			M3228.5 461.515 4296.5 461.515
			M3228.5 397.5 4296.5 397.5" stroke="#D9D9D9" stroke-width="3.4375" stroke-linejoin="round" stroke-miterlimit="10" fill="none" />
		</g>
		<g>
			<path d="M 1038.5 4296.5 1038.5" stroke="#D9D9D9" stroke-width="3.4375" stroke-linejoin="round" stroke-miterlimit="10" fill="none" fill-rule="evenodd" />
		</g>
		<g>
			<text fill="#595959" font-family="Verdana,Open Sans,DejaVu Sans,sans-serif" font-weight="400" font-size="41" transform="matrix(6.12323e-17 -1 1 6.12323e-17 3243.564697265625 1211.43017578125)">04-Nov</text>
		</g>
		<g>
			<text fill="#595959" font-family="Verdana,Open Sans,DejaVu Sans,sans-serif" font-weight="400" font-size="41" transform="matrix(6.12323e-17 -1 1 6.12323e-17 3329.004697265625 1207.0859375)">09-Dec</text>
		</g>
		<g>
			<text fill="#595959" font-family="Verdana,Open Sans,DejaVu Sans,sans-serif" font-weight="400" font-size="41" transform="matrix(6.12323e-17 -1 1 6.12323e-17 3418.09826171875 1191.6508712768555)">06-Jan</text>
		</g>
		<g>
			<text fill="#595959" font-family="Verdana,Open Sans,DejaVu Sans,sans-serif" font-weight="400" font-size="41" transform="matrix(6.12323e-17 -1 1 6.12323e-17 3500.595390625 1203.0419921875)">03-Feb</text>
		</g>
		<g>
			<text fill="#595959" font-family="Verdana,Open Sans,DejaVu Sans,sans-serif" font-weight="400" font-size="41" transform="matrix(6.12323e-17 -1 1 6.12323e-17 3585.324697265625 1212.0107421875)">03-Mar</text>
		</g>
		<g>
			<text fill="#595959" font-family="Verdana,Open Sans,DejaVu Sans,sans-serif" font-weight="400" font-size="41" transform="matrix(6.12323e-17 -1 1 6.12323e-17 3670.744677734375 1212.1708984375)">31-Mar</text>
		</g>
		<g>
			<text fill="#595959" font-family="Verdana,Open Sans,DejaVu Sans,sans-serif" font-weight="400" font-size="41" transform="matrix(6.12323e-17 -1 1 6.12323e-17 3760.909287109375 1203.3022384643555)">28-Apr</text>
		</g>
		<g>
			<text fill="#595959" font-family="Verdana,Open Sans,DejaVu Sans,sans-serif" font-weight="400" font-size="41" transform="matrix(6.12323e-17 -1 1 6.12323e-17 3846.349287109375 1216.51513671875)">26-May</text>
		</g>
		<g>
			<text fill="#595959" font-family="Verdana,Open Sans,DejaVu Sans,sans-serif" font-weight="400" font-size="41" transform="matrix(6.12323e-17 -1 1 6.12323e-17 3930.73826171875 1194.1733322143555)">30-Jun</text>
		</g>
		<g>
			<text fill="#595959" font-family="Verdana,Open Sans,DejaVu Sans,sans-serif" font-weight="400" font-size="41" transform="matrix(6.12323e-17 -1 1 6.12323e-17 4016.888955078125 1179.0385665893555)">28-Jul</text>
		</g>
		<g>
			<text fill="#595959" font-family="Verdana,Open Sans,DejaVu Sans,sans-serif" font-weight="400" font-size="41" transform="matrix(6.12323e-17 -1 1 6.12323e-17 4102.669287109375 1208.66748046875)">25-Aug</text>
		</g>
		<g>
			<text fill="#595959" font-family="Verdana,Open Sans,DejaVu Sans,sans-serif" font-weight="400" font-size="41" transform="matrix(6.12323e-17 -1 1 6.12323e-17 4188.109287109375 1204.42333984375)">22-Sep</text>
		</g>
		<g>
			<text fill="#595959" font-family="Verdana,Open Sans,DejaVu Sans,sans-serif" font-weight="400" font-size="41" transform="matrix(6.12323e-17 -1 1 6.12323e-17 4268.844697265625 1201.1401290893555)">20-Oct</text>
		</g>
		<g>
			<text fill="#595959" font-family="Verdana,Open Sans,DejaVu Sans,sans-serif" font-weight="400" font-size="41" transform="matrix(1 0 0 1 3169.14111328125 1050)">0</text>
		</g>
		<g>
			<text fill="#595959" font-family="Verdana,Open Sans,DejaVu Sans,sans-serif" font-weight="400" font-size="41" transform="matrix(1 0 0 1 3088.6025390625 922)">3,170</text>
		</g>
		<g>
			<text fill="#595959" font-family="Verdana,Open Sans,DejaVu Sans,sans-serif" font-weight="400" font-size="41" transform="matrix(1 0 0 1 3096.14990234375 794)">6,341</text>
		</g>
		<g>
			<text fill="#595959" font-family="Verdana,Open Sans,DejaVu Sans,sans-serif" font-weight="400" font-size="41" transform="matrix(1 0 0 1 3095.9296875 666)">9,511</text>
		</g>
		<g>
			<text fill="#595959" font-family="Verdana,Open Sans,DejaVu Sans,sans-serif" font-weight="400" font-size="41" transform="matrix(1 0 0 1 3067.2016677856445 538)">12,682</text>
		</g>
		<g>
			<text fill="#595959" font-family="Verdana,Open Sans,DejaVu Sans,sans-serif" font-weight="400" font-size="41" transform="matrix(1 0 0 1 3067.2016677856445 410)">15,852</text>
		</g>
		<g>
			<text fill="#595959" font-family="Verdana,Open Sans,DejaVu Sans,sans-serif" font-weight="400" font-size="41" transform="matrix(1 0 0 1 3556.97119140625 1321)">Week Commencing</text>
		</g>
		<g>
			<text fill="#595959" font-family="Verdana,Open Sans,DejaVu Sans,sans-serif" font-weight="400" font-size="46" transform="matrix(6.12323e-17 -1 1 6.12323e-17 3019.73 1011.673828125)">Number of Browser Profiles</text>
		</g>
		<rect x="2918.5" y="347.5" width="1760" height="1043" stroke="#D9D9D9" stroke-width="3.4375" stroke-linejoin="round" stroke-miterlimit="10" fill="none" />
		<g>
			<path d="M3228.5 1038 3249.86 1038 3271.22 1038 3292.58 1038 3313.94 1038 3335.3 1038 3356.66 1038 3378.02 1038 3399.38 1038 3420.74 1038 3442.1 1038 3463.46 1038 3484.82 1038 3506.18 1038 3527.54 1038 3548.9 1038 3570.26 1038 3591.62 1038 3612.98 1038 3634.34 1038 3655.7 1038 3677.06 1038 3698.42 1038 3719.7799999999997 1038 3741.14 1038 3762.5 1038 3783.86 1038 3805.2200000000003 1038 3826.58 1038 3847.94 1038 3869.3 1038 3890.66 1038 3912.02 1038 3933.38 1038 3954.74 1038 3976.1 1038 3997.46 1038 4018.8199999999997 1038 4040.18 1038 4061.54 1038 4082.9 1038 4104.26 1038 4125.62 1038 4146.98 1038 4168.34 1038 4189.7 1038 4211.0599999999995 1038 4232.42 1038 4253.78 1038 4275.139999999999 1038 4296.5 1038 4296.5 533.0088316931617 4275.139999999999 533.6144335099672 4253.78 534.987130961393 4232.42 535.108251324754 4211.0599999999995 535.9964673227353 4189.7 537.0461771385314 4168.34 538.3785011355035 4146.98 539.10522331567 4125.62 539.7511985869291 4104.26 541.0431491294473 4082.9 541.890991672975 4061.54 542.81958112541 4040.18 543.8289174867525 4018.8199999999997 544.6363865758265 3997.46 545.4034822104466 3976.1 546.291698208428 3954.74 546.695432752965 3933.38 547.7047691143073 3912.02 549.0370931112793 3890.66 549.6426949280848 3869.3 550.813525107242 3847.94 552.1862225586676 3826.58 553.8415341912693 3805.2200000000003 554.9719909159728 3783.86 556.0620741862226 3762.5 556.9906636386576 3741.14 557.8385061821853 3719.7799999999997 558.807469089074 3698.42 559.6956850870553 3677.06 561.189502901842 3655.7 561.8354781731011 3634.34 562.4814534443603 3612.98 563.2485490789805 3591.62 564.3386323492305 3570.26 565.4690890739339 3548.9 566.3573050719152 3527.54 566.922533434267 3506.18 567.851122886702 3484.82 569.2238203381277 3463.46 569.8294221549331 3442.1 570.515770880646 3420.74 571.0002523340904 3399.38 571.7269745142569 3378.02 572.2114559677012 3356.66 572.4940701488771 3335.3 573.4226596013121 3313.94 574.109008327025 3292.58 575.6431995962655 3271.22 576.6525359576078 3249.86 577.2581377744134 3228.5 577.8637395912187 3228.5 1038Z" fill="#e62d39" opacity="0.9" />
		</g>
		<g>
			<path d="M3228.5 577.8637395912187 3249.86 577.2581377744134 3271.22 576.6525359576078 3292.58 575.6431995962655 3313.94 574.109008327025 3335.3 573.4226596013121 3356.66 572.4940701488771 3378.02 572.2114559677012 3399.38 571.7269745142569 3420.74 571.0002523340904 3442.1 570.515770880646 3463.46 569.8294221549331 3484.82 569.2238203381277 3506.18 567.851122886702 3527.54 566.922533434267 3548.9 566.3573050719152 3570.26 565.4690890739339 3591.62 564.3386323492305 3612.98 563.2485490789805 3634.34 562.4814534443603 3655.7 561.8354781731011 3677.06 561.189502901842 3698.42 559.6956850870553 3719.7799999999997 558.807469089074 3741.14 557.8385061821853 3762.5 556.9906636386576 3783.86 556.0620741862226 3805.2200000000003 554.9719909159728 3826.58 553.8415341912693 3847.94 552.1862225586676 3869.3 550.813525107242 3890.66 549.6426949280848 3912.02 549.0370931112793 3933.38 547.7047691143073 3954.74 546.695432752965 3976.1 546.291698208428 3997.46 545.4034822104466 4018.8199999999997 544.6363865758265 4040.18 543.8289174867525 4061.54 542.81958112541 4082.9 541.890991672975 4104.26 541.0431491294473 4125.62 539.7511985869291 4146.98 539.10522331567 4168.34 538.3785011355035 4189.7 537.0461771385314 4211.0599999999995 535.9964673227353 4232.42 535.108251324754 4253.78 534.987130961393 4275.139999999999 533.6144335099672 4296.5 533.0088316931617 4296.5 398 4275.139999999999 398.80746908907395 4253.78 400.34166035831447 4232.42 400.50315417612916 4211.0599999999995 401.6739843552864 4189.7 402.8448145344436 4168.34 404.37900580368415 4146.98 405.2672218016654 4125.62 406.07469089073936 4104.26 407.44738834216497 4082.9 408.49709815796115 4061.54 409.5064345193035 4040.18 410.8791319707293 4018.8199999999997 411.7673479687106 3997.46 412.77668433005294 3976.1 413.78602069139544 3954.74 414.4723694171083 3933.38 415.8046934140802 3912.02 417.3388846833207 3890.66 418.06560686348723 3869.3 419.3575574060055 3847.94 420.8513752207923 3826.58 423.07191521574566 3805.2200000000003 424.4042392127177 3783.86 425.7365632096897 3762.5 426.8266464799394 3741.14 427.79560938682823 3719.7799999999997 428.9664395659854 3698.42 430.0161493817815 3677.06 431.71183446883674 3655.7 432.5596770123643 3634.34 433.2863991925309 3612.98 434.1746151905122 3591.62 435.58768609639174 3570.26 436.83926318445623 3548.9 437.8485995457986 3527.54 438.65606863487267 3506.18 439.8268988140298 3484.82 441.36109008327026 3463.46 442.12818571789046 3442.1 443.0567751703255 3420.74 443.74312389603847 3399.38 444.590966439566 3378.02 445.115821347464 3356.66 445.3984355286399 3335.3 446.48851879888974 3313.94 447.37673479687106 3292.58 449.19354024728744 3271.22 450.44511733535194 3249.86 451.252586424426 3228.5 452.5849104213979 3228.5 577.8637395912187Z" fill="#005aa6" opacity="0.9" />
		</g>
		<g>
			<rect x="4372" y="431" width="22.9995" height="23" fill="#e62d39" />
		</g>
		<g>
			<text fill="#595959" font-family="Verdana,Open Sans,DejaVu Sans,sans-serif" font-weight="400" font-size="41" transform="matrix(1 0 0 1 4404.56 454)">Web Browser</text>
		</g>
		<g>
			<rect x="4372" y="508" width="22.9995" height="23" fill="#005aa6" />
		</g>
		<g>
			<text fill="#595959" font-family="Verdana,Open Sans,DejaVu Sans,sans-serif" font-weight="400" font-size="41" transform="matrix(1 0 0 1 4404.56 531)">App</text>
		</g>
	</g>
</svg>
