<svg width="1763" height="1046"
    xmlns="http://www.w3.org/2000/svg"
	xmlns:xlink="http://www.w3.org/1999/xlink" xml:space="preserve" overflow="hidden">
	<defs>
		<clipPath id="clip0">
			<rect x="2917" y="346" width="1763" height="1046"/>
		</clipPath>
	</defs>
	<g clip-path="url(#clip0)" transform="translate(-2917 -346)">
		<rect x="2918" y="347" width="1760" height="1043" fill="#FFFFFF" />
		<g>
			<path d="
			M3228.5 974.532 4296.5 974.532
			M3228.5 910.53 4296.5 910.53
			M3228.5 846.528 4296.5 846.528
			M3228.5 781.526 4296.5 781.526
			M3228.5 717.524 4296.5 717.524
			M3228.5 653.522 4296.5 653.522
			M3228.5 589.52 4296.5 589.52
			M3228.5 525.517 4296.5 525.517
			M3228.5 461.515 4296.5 461.515
			M3228.5 397.5 4296.5 397.5" stroke="#D9D9D9" stroke-width="3.4375" stroke-linejoin="round" stroke-miterlimit="10" fill="none" />
		</g>
		<g>
			<path d="M 1038.5 4296.5 1038.5" stroke="#D9D9D9" stroke-width="3.4375" stroke-linejoin="round" stroke-miterlimit="10" fill="none" fill-rule="evenodd" />
		</g>
		<g>
			<text fill="#595959" font-family="Verdana,Open Sans,DejaVu Sans,sans-serif" font-weight="400" font-size="41" transform="matrix(6.12323e-17 -1 1 6.12323e-17 3243.544677734375 1212.1708984375)">31-Mar</text>
		</g>
		<g>
			<text fill="#595959" font-family="Verdana,Open Sans,DejaVu Sans,sans-serif" font-weight="400" font-size="41" transform="matrix(6.12323e-17 -1 1 6.12323e-17 3332.033992991728 1203.3022384643555)">28-Apr</text>
		</g>
		<g>
			<text fill="#595959" font-family="Verdana,Open Sans,DejaVu Sans,sans-serif" font-weight="400" font-size="41" transform="matrix(6.12323e-17 -1 1 6.12323e-17 3415.798698874081 1216.51513671875)">26-May</text>
		</g>
		<g>
			<text fill="#595959" font-family="Verdana,Open Sans,DejaVu Sans,sans-serif" font-weight="400" font-size="41" transform="matrix(6.12323e-17 -1 1 6.12323e-17 3498.512379365809 1194.1733322143555)">30-Jun</text>
		</g>
		<g>
			<text fill="#595959" font-family="Verdana,Open Sans,DejaVu Sans,sans-serif" font-weight="400" font-size="41" transform="matrix(6.12323e-17 -1 1 6.12323e-17 3582.9877786075367 1179.0385665893555)">28-Jul</text>
		</g>
		<g>
			<text fill="#595959" font-family="Verdana,Open Sans,DejaVu Sans,sans-serif" font-weight="400" font-size="41" transform="matrix(6.12323e-17 -1 1 6.12323e-17 3667.09281652114 1208.66748046875)">25-Aug</text>
		</g>
		<g>
			<text fill="#595959" font-family="Verdana,Open Sans,DejaVu Sans,sans-serif" font-weight="400" font-size="41" transform="matrix(6.12323e-17 -1 1 6.12323e-17 3750.8575224034926 1204.42333984375)">22-Sep</text>
		</g>
		<g>
			<text fill="#595959" font-family="Verdana,Open Sans,DejaVu Sans,sans-serif" font-weight="400" font-size="41" transform="matrix(6.12323e-17 -1 1 6.12323e-17 3829.9176384420957 1201.1401290893555)">20-Oct</text>
		</g>
		<g>
			<text fill="#595959" font-family="Verdana,Open Sans,DejaVu Sans,sans-serif" font-weight="400" font-size="41" transform="matrix(6.12323e-17 -1 1 6.12323e-17 3913.4521197150734 1209.70849609375)">17-Nov</text>
		</g>
		<g>
			<text fill="#595959" font-family="Verdana,Open Sans,DejaVu Sans,sans-serif" font-weight="400" font-size="41" transform="matrix(6.12323e-17 -1 1 6.12323e-17 3997.2168255974266 1205.3642578125)">15-Dec</text>
		</g>
		<g>
			<text fill="#595959" font-family="Verdana,Open Sans,DejaVu Sans,sans-serif" font-weight="400" font-size="41" transform="matrix(6.12323e-17 -1 1 6.12323e-17 4084.8453010110293 1189.9291915893555)">12-Jan</text>
		</g>
		<g>
			<text fill="#595959" font-family="Verdana,Open Sans,DejaVu Sans,sans-serif" font-weight="400" font-size="41" transform="matrix(6.12323e-17 -1 1 6.12323e-17 4165.687155330882 1203.0419921875)">09-Feb</text>
		</g>
		<g>
			<text fill="#595959" font-family="Verdana,Open Sans,DejaVu Sans,sans-serif" font-weight="400" font-size="41" transform="matrix(6.12323e-17 -1 1 6.12323e-17 4248.74116785386 1212.0107421875)">09-Mar</text>
		</g>
		<g>
			<text fill="#595959" font-family="Verdana,Open Sans,DejaVu Sans,sans-serif" font-weight="400" font-size="41" transform="matrix(1 0 0 1 3169.14111328125 1050)">0</text>
		</g>
		<g>
			<text fill="#595959" font-family="Verdana,Open Sans,DejaVu Sans,sans-serif" font-weight="400" font-size="41" transform="matrix(1 0 0 1 3088.6025390625 922)">3,290</text>
		</g>
		<g>
			<text fill="#595959" font-family="Verdana,Open Sans,DejaVu Sans,sans-serif" font-weight="400" font-size="41" transform="matrix(1 0 0 1 3096.14990234375 794)">6,581</text>
		</g>
		<g>
			<text fill="#595959" font-family="Verdana,Open Sans,DejaVu Sans,sans-serif" font-weight="400" font-size="41" transform="matrix(1 0 0 1 3095.9296875 666)">9,871</text>
		</g>
		<g>
			<text fill="#595959" font-family="Verdana,Open Sans,DejaVu Sans,sans-serif" font-weight="400" font-size="41" transform="matrix(1 0 0 1 3067.2016677856445 538)">13,162</text>
		</g>
		<g>
			<text fill="#595959" font-family="Verdana,Open Sans,DejaVu Sans,sans-serif" font-weight="400" font-size="41" transform="matrix(1 0 0 1 3067.2016677856445 410)">16,452</text>
		</g>
		<g>
			<text fill="#595959" font-family="Verdana,Open Sans,DejaVu Sans,sans-serif" font-weight="400" font-size="41" transform="matrix(1 0 0 1 3556.97119140625 1321)">Week Commencing</text>
		</g>
		<g>
			<text fill="#595959" font-family="Verdana,Open Sans,DejaVu Sans,sans-serif" font-weight="400" font-size="46" transform="matrix(6.12323e-17 -1 1 6.12323e-17 3019.73 1011.673828125)">Number of Browser Profiles</text>
		</g>
		<rect x="2918.5" y="347.5" width="1760" height="1043" stroke="#D9D9D9" stroke-width="3.4375" stroke-linejoin="round" stroke-miterlimit="10" fill="none" />
		<g>
			<path d="M3228.5 1038 3249.4411764705883 1038 3270.3823529411766 1038 3291.323529411765 1038 3312.264705882353 1038 3333.205882352941 1038 3354.1470588235293 1038 3375.0882352941176 1038 3396.029411764706 1038 3416.970588235294 1038 3437.9117647058824 1038 3458.8529411764707 1038 3479.794117647059 1038 3500.735294117647 1038 3521.676470588235 1038 3542.6176470588234 1038 3563.5588235294117 1038 3584.5 1038 3605.4411764705883 1038 3626.3823529411766 1038 3647.323529411765 1038 3668.264705882353 1038 3689.205882352941 1038 3710.1470588235293 1038 3731.0882352941176 1038 3752.029411764706 1038 3772.970588235294 1038 3793.9117647058824 1038 3814.8529411764707 1038 3835.7941176470586 1038 3856.735294117647 1038 3877.676470588235 1038 3898.6176470588234 1038 3919.5588235294117 1038 3940.5 1038 3961.4411764705883 1038 3982.3823529411766 1038 4003.323529411765 1038 4024.264705882353 1038 4045.2058823529414 1038 4066.1470588235293 1038 4087.0882352941176 1038 4108.029411764706 1038 4128.970588235294 1038 4149.911764705882 1038 4170.85294117647 1038 4191.794117647059 1038 4212.735294117647 1038 4233.676470588235 1038 4254.617647058823 1038 4275.558823529412 1038 4296.5 1038 4296.5 532.9866277656212 4275.558823529412 533.9980549477267 4254.617647058823 535.515195720885 4233.676470588235 536.2543155847313 4212.735294117647 537.1879406759056 4191.794117647059 537.8492584488208 4170.85294117647 538.9773887673231 4149.911764705882 539.9888159494286 4128.970588235294 540.5334305859469 4108.029411764706 541.3503525407245 4087.0882352941176 542.0894724045709 4066.1470588235293 542.9063943593484 4045.2058823529414 543.0619985412108 4024.264705882353 543.528811086798 4003.323529411765 544.0734257233163 3982.3823529411766 545.0848529054218 3961.4411764705883 546.3296863603209 3940.5 547.963530269876 3919.5588235294117 548.2747386336007 3898.6176470588234 549.3639679066375 3877.676470588235 549.986384634087 3856.735294117647 551.4257233163141 3835.7941176470586 552.0092389982981 3814.8529411764707 553.3318745441284 3793.9117647058824 553.4485776805252 3772.970588235294 554.3044006807683 3752.029411764706 555.3158278628738 3731.0882352941176 556.5995623632384 3710.1470588235293 557.2997811816192 3689.205882352941 557.9221979090688 3668.264705882353 559.1670313639679 3647.323529411765 559.9839533187454 3626.3823529411766 560.8786773644542 3605.4411764705883 561.851203501094 3584.5 562.629224410406 3563.5588235294117 563.3683442742524 3542.6176470588234 564.2241672744955 3521.676470588235 564.6131777291514 3500.735294117647 565.5857038657914 3479.794117647059 566.8694383661561 3458.8529411764707 567.4529540481401 3437.9117647058824 568.5810843666424 3416.970588235294 569.9037199124726 3396.029411764706 571.4986627765621 3375.0882352941176 572.5878920495988 3354.1470588235293 573.6382202771699 3333.205882352941 574.5329443228786 3312.264705882353 575.3498662776562 3291.323529411765 576.2834913688305 3270.3823529411766 577.1393143690736 3249.4411764705883 578.5786530513008 3228.5 579.2010697787503 3228.5 1038Z" fill="#005aa6" opacity="0.9" />
		</g>
		<g>
			<path d="M3228.5 579.2010697787503 3249.4411764705883 578.5786530513008 3270.3823529411766 577.1393143690736 3291.323529411765 576.2834913688305 3312.264705882353 575.3498662776562 3333.205882352941 574.5329443228786 3354.1470588235293 573.6382202771699 3375.0882352941176 572.5878920495988 3396.029411764706 571.4986627765621 3416.970588235294 569.9037199124726 3437.9117647058824 568.5810843666424 3458.8529411764707 567.4529540481401 3479.794117647059 566.8694383661561 3500.735294117647 565.5857038657914 3521.676470588235 564.6131777291514 3542.6176470588234 564.2241672744955 3563.5588235294117 563.3683442742524 3584.5 562.629224410406 3605.4411764705883 561.851203501094 3626.3823529411766 560.8786773644542 3647.323529411765 559.9839533187454 3668.264705882353 559.1670313639679 3689.205882352941 557.9221979090688 3710.1470588235293 557.2997811816192 3731.0882352941176 556.5995623632384 3752.029411764706 555.3158278628738 3772.970588235294 554.3044006807683 3793.9117647058824 553.4485776805252 3814.8529411764707 553.3318745441284 3835.7941176470586 552.0092389982981 3856.735294117647 551.4257233163141 3877.676470588235 549.986384634087 3898.6176470588234 549.3639679066375 3919.5588235294117 548.2747386336007 3940.5 547.963530269876 3961.4411764705883 546.3296863603209 3982.3823529411766 545.0848529054218 4003.323529411765 544.0734257233163 4024.264705882353 543.528811086798 4045.2058823529414 543.0619985412108 4066.1470588235293 542.9063943593484 4087.0882352941176 542.0894724045709 4108.029411764706 541.3503525407245 4128.970588235294 540.5334305859469 4149.911764705882 539.9888159494286 4170.85294117647 538.9773887673231 4191.794117647059 537.8492584488208 4212.735294117647 537.1879406759056 4233.676470588235 536.2543155847313 4254.617647058823 535.515195720885 4275.558823529412 533.9980549477267 4296.5 532.9866277656212 4296.5 398 4275.558823529412 399.28373450036463 4254.617647058823 401.2287867736445 4233.676470588235 402.1235108193532 4212.735294117647 403.36834427425225 4191.794117647059 404.4186725018235 4170.85294117647 405.8580111840505 4149.911764705882 407.06394359348405 4128.970588235294 407.8030634573303 4108.029411764706 409.39800632141987 4087.0882352941176 410.2149282761974 4066.1470588235293 411.1874544128373 4045.2058823529414 411.3819596401653 4024.264705882353 411.9265742766837 4003.323529411765 412.471188913202 3982.3823529411766 413.7938244590323 3961.4411764705883 415.272064186725 3940.5 417.100413323608 3919.5588235294117 417.68392900559195 3898.6176470588234 419.00656455142234 3877.676470588235 419.74568441526867 3856.735294117647 421.34062727935816 3835.7941176470586 422.1186481886701 3814.8529411764707 423.59688791636273 3793.9117647058824 423.75249209822516 3772.970588235294 424.8806224167274 3752.029411764706 426.00875273522973 3731.0882352941176 427.48699246292233 3710.1470588235293 428.3428154631655 3689.205882352941 429.12083637247747 3668.264705882353 430.4434719183078 3647.323529411765 431.4548991004133 3626.3823529411766 432.4274252370533 3605.4411764705883 433.75006078288345 3584.5 434.6058837831266 3563.5588235294117 435.5784099197666 3542.6176470588234 436.5509360564065 3521.676470588235 437.2122538293216 3500.735294117647 438.4959883296864 3479.794117647059 439.9742280573791 3458.8529411764707 440.6744468757598 3437.9117647058824 441.91928033065886 3416.970588235294 443.3586190128859 3396.029411764706 445.49817651349383 3375.0882352941176 446.7819110138585 3354.1470588235293 448.06564551422315 3333.205882352941 449.1159737417943 3312.264705882353 450.0495988329687 3291.323529411765 451.1777291514709 3270.3823529411766 452.1891563335764 3249.4411764705883 453.82300024313156 3228.5 454.639922197909 3228.5 579.2010697787503Z" fill="#e62d39" opacity="0.9" />
		</g>
		<g>
			<rect x="4372" y="431" width="22.9995" height="23" fill="#005aa6" />
		</g>
		<g>
			<text fill="#595959" font-family="Verdana,Open Sans,DejaVu Sans,sans-serif" font-weight="400" font-size="41" transform="matrix(1 0 0 1 4404.56 454)">Web Browser</text>
		</g>
		<g>
			<rect x="4372" y="508" width="22.9995" height="23" fill="#e62d39" />
		</g>
		<g>
			<text fill="#595959" font-family="Verdana,Open Sans,DejaVu Sans,sans-serif" font-weight="400" font-size="41" transform="matrix(1 0 0 1 4404.56 531)">App</text>
		</g>
	</g>
</svg>
