<svg width="1763" height="1046"
    xmlns="http://www.w3.org/2000/svg"
	xmlns:xlink="http://www.w3.org/1999/xlink" xml:space="preserve" overflow="hidden">
	<defs>
		<clipPath id="clip0">
			<rect x="2917" y="346" width="1763" height="1046"/>
		</clipPath>
	</defs>
	<g clip-path="url(#clip0)" transform="translate(-2917 -346)">
		<rect x="2918" y="347" width="1760" height="1043" fill="#FFFFFF" />
		<g>
			<path d="
			M3228.5 974.532 4296.5 974.532
			M3228.5 910.53 4296.5 910.53
			M3228.5 846.528 4296.5 846.528
			M3228.5 781.526 4296.5 781.526
			M3228.5 717.524 4296.5 717.524
			M3228.5 653.522 4296.5 653.522
			M3228.5 589.52 4296.5 589.52
			M3228.5 525.517 4296.5 525.517
			M3228.5 461.515 4296.5 461.515
			M3228.5 397.5 4296.5 397.5" stroke="#D9D9D9" stroke-width="3.4375" stroke-linejoin="round" stroke-miterlimit="10" fill="none" />
		</g>
		<g>
			<path d="M 1038.5 4296.5 1038.5" stroke="#D9D9D9" stroke-width="3.4375" stroke-linejoin="round" stroke-miterlimit="10" fill="none" fill-rule="evenodd" />
		</g>
		<g>
			<text fill="#595959" font-family="Verdana,Open Sans,DejaVu Sans,sans-serif" font-weight="400" font-size="41" transform="matrix(6.12323e-17 -1 1 6.12323e-17 3247.21826171875 1194.1733322143555)">30-Jun</text>
		</g>
		<g>
			<text fill="#595959" font-family="Verdana,Open Sans,DejaVu Sans,sans-serif" font-weight="400" font-size="41" transform="matrix(6.12323e-17 -1 1 6.12323e-17 3331.693660960478 1179.0385665893555)">28-Jul</text>
		</g>
		<g>
			<text fill="#595959" font-family="Verdana,Open Sans,DejaVu Sans,sans-serif" font-weight="400" font-size="41" transform="matrix(6.12323e-17 -1 1 6.12323e-17 3415.798698874081 1208.66748046875)">25-Aug</text>
		</g>
		<g>
			<text fill="#595959" font-family="Verdana,Open Sans,DejaVu Sans,sans-serif" font-weight="400" font-size="41" transform="matrix(6.12323e-17 -1 1 6.12323e-17 3499.563404756434 1204.42333984375)">22-Sep</text>
		</g>
		<g>
			<text fill="#595959" font-family="Verdana,Open Sans,DejaVu Sans,sans-serif" font-weight="400" font-size="41" transform="matrix(6.12323e-17 -1 1 6.12323e-17 3578.6235207950367 1201.1401290893555)">20-Oct</text>
		</g>
		<g>
			<text fill="#595959" font-family="Verdana,Open Sans,DejaVu Sans,sans-serif" font-weight="400" font-size="41" transform="matrix(6.12323e-17 -1 1 6.12323e-17 3662.158002068015 1209.70849609375)">17-Nov</text>
		</g>
		<g>
			<text fill="#595959" font-family="Verdana,Open Sans,DejaVu Sans,sans-serif" font-weight="400" font-size="41" transform="matrix(6.12323e-17 -1 1 6.12323e-17 3745.9227079503676 1205.3642578125)">15-Dec</text>
		</g>
		<g>
			<text fill="#595959" font-family="Verdana,Open Sans,DejaVu Sans,sans-serif" font-weight="400" font-size="41" transform="matrix(6.12323e-17 -1 1 6.12323e-17 3833.5511833639707 1189.9291915893555)">12-Jan</text>
		</g>
		<g>
			<text fill="#595959" font-family="Verdana,Open Sans,DejaVu Sans,sans-serif" font-weight="400" font-size="41" transform="matrix(6.12323e-17 -1 1 6.12323e-17 3914.3930376838234 1203.0419921875)">09-Feb</text>
		</g>
		<g>
			<text fill="#595959" font-family="Verdana,Open Sans,DejaVu Sans,sans-serif" font-weight="400" font-size="41" transform="matrix(6.12323e-17 -1 1 6.12323e-17 3997.4470502068016 1212.0107421875)">09-Mar</text>
		</g>
		<g>
			<text fill="#595959" font-family="Verdana,Open Sans,DejaVu Sans,sans-serif" font-weight="400" font-size="41" transform="matrix(6.12323e-17 -1 1 6.12323e-17 4085.9363654641543 1203.2621994018555)">06-Apr</text>
		</g>
		<g>
			<text fill="#595959" font-family="Verdana,Open Sans,DejaVu Sans,sans-serif" font-weight="400" font-size="41" transform="matrix(6.12323e-17 -1 1 6.12323e-17 4169.701071346507 1216.47509765625)">04-May</text>
		</g>
		<g>
			<text fill="#595959" font-family="Verdana,Open Sans,DejaVu Sans,sans-serif" font-weight="400" font-size="41" transform="matrix(6.12323e-17 -1 1 6.12323e-17 4252.394732306985 1194.0131759643555)">01-Jun</text>
		</g>
		<g>
			<text fill="#595959" font-family="Verdana,Open Sans,DejaVu Sans,sans-serif" font-weight="400" font-size="41" transform="matrix(1 0 0 1 3135.4482421875 1050)">0%</text>
		</g>
		<g>
			<text fill="#595959" font-family="Verdana,Open Sans,DejaVu Sans,sans-serif" font-weight="400" font-size="41" transform="matrix(1 0 0 1 3111.96533203125 922)">20%</text>
		</g>
		<g>
			<text fill="#595959" font-family="Verdana,Open Sans,DejaVu Sans,sans-serif" font-weight="400" font-size="41" transform="matrix(1 0 0 1 3110.82421875 794)">40%</text>
		</g>
		<g>
			<text fill="#595959" font-family="Verdana,Open Sans,DejaVu Sans,sans-serif" font-weight="400" font-size="41" transform="matrix(1 0 0 1 3112.3056640625 666)">60%</text>
		</g>
		<g>
			<text fill="#595959" font-family="Verdana,Open Sans,DejaVu Sans,sans-serif" font-weight="400" font-size="41" transform="matrix(1 0 0 1 3112.04541015625 538)">80%</text>
		</g>
		<g>
			<text fill="#595959" font-family="Verdana,Open Sans,DejaVu Sans,sans-serif" font-weight="400" font-size="41" transform="matrix(1 0 0 1 3090.2841796875 410)">100%</text>
		</g>
		<g>
			<text fill="#595959" font-family="Verdana,Open Sans,DejaVu Sans,sans-serif" font-weight="400" font-size="41" transform="matrix(1 0 0 1 3556.97119140625 1321)">Week Commencing</text>
		</g>
		<g>
			<text fill="#595959" font-family="Verdana,Open Sans,DejaVu Sans,sans-serif" font-weight="400" font-size="46" transform="matrix(6.12323e-17 -1 1 6.12323e-17 3019.73 936.7665710449219)">Requests (% of Total)</text>
		</g>
		<rect x="2918.5" y="347.5" width="1760" height="1043" stroke="#D9D9D9" stroke-width="3.4375" stroke-linejoin="round" stroke-miterlimit="10" fill="none" />
		<g>
			<path d="M3228.5 1038 3249.4411764705883 1038 3270.3823529411766 1038 3291.323529411765 1038 3312.264705882353 1038 3333.205882352941 1038 3354.1470588235293 1038 3375.0882352941176 1038 3396.029411764706 1038 3416.970588235294 1038 3437.9117647058824 1038 3458.8529411764707 1038 3479.794117647059 1038 3500.735294117647 1038 3521.676470588235 1038 3542.6176470588234 1038 3563.5588235294117 1038 3584.5 1038 3605.4411764705883 1038 3626.3823529411766 1038 3647.323529411765 1038 3668.264705882353 1038 3689.205882352941 1038 3710.1470588235293 1038 3731.0882352941176 1038 3752.029411764706 1038 3772.970588235294 1038 3793.9117647058824 1038 3814.8529411764707 1038 3835.7941176470586 1038 3856.735294117647 1038 3877.676470588235 1038 3898.6176470588234 1038 3919.5588235294117 1038 3940.5 1038 3961.4411764705883 1038 3982.3823529411766 1038 4003.323529411765 1038 4024.264705882353 1038 4045.2058823529414 1038 4066.1470588235293 1038 4087.0882352941176 1038 4108.029411764706 1038 4128.970588235294 1038 4149.911764705882 1038 4170.85294117647 1038 4191.794117647059 1038 4212.735294117647 1038 4233.676470588235 1038 4254.617647058823 1038 4275.558823529412 1038 4296.5 1038 4296.5 644.079254095949 4275.558823529412 642.7292472893881 4254.617647058823 641.8202862493038 4233.676470588235 641.9480866676806 4212.735294117647 642.0313795477604 4191.794117647059 642.039984670155 4170.85294117647 641.7883242512185 4149.911764705882 641.6386088112265 4128.970588235294 641.5584180917222 4108.029411764706 641.2396613478342 4087.0882352941176 639.6433470430949 4066.1470588235293 641.0825381110685 4045.2058823529414 641.3274589400961 4024.264705882353 641.6145313440886 4003.323529411765 642.4444914583115 3982.3823529411766 643.401215888529 3961.4411764705883 644.3338442804811 3940.5 646.711535446821 3919.5588235294117 646.5953351574117 3898.6176470588234 648.9964700856017 3877.676470588235 650.4578201384786 3856.735294117647 650.1826843160547 3835.7941176470586 650.9511325988744 3814.8529411764707 650.9685000981426 3793.9117647058824 652.4520688665375 3772.970588235294 654.2438394166766 3752.029411764706 654.1783595408037 3731.0882352941176 665.1009269843557 3710.1470588235293 665.0687170796807 3689.205882352941 669.2508046624037 3668.264705882353 668.8015383913383 3647.323529411765 677.0310099621294 3626.3823529411766 715.6326502484551 3605.4411764705883 731.7898269041518 3584.5 731.6946718722857 3563.5588235294117 731.7814057156063 3542.6176470588234 731.7708258099874 3521.676470588235 739.179471336138 3500.735294117647 739.1723277843557 3479.794117647059 742.0464154901043 3458.8529411764707 744.981700209997 3437.9117647058824 752.0924084860791 3416.970588235294 755.2385923010361 3396.029411764706 755.2502906288946 3375.0882352941176 758.1300732473312 3354.1470588235293 768.0870120946274 3333.205882352941 768.0622682813855 3312.264705882353 768.1168972047803 3291.323529411765 768.2021370143037 3270.3823529411766 769.6067142131767 3249.4411764705883 775.05017459998 3228.5 787.2357258695183 3228.5 1038Z" fill="#e62d39" opacity="0.9" />
		</g>
		<g>
			<path d="M3228.5 787.2357258695183 3249.4411764705883 775.05017459998 3270.3823529411766 769.6067142131767 3291.323529411765 768.2021370143037 3312.264705882353 768.1168972047803 3333.205882352941 768.0622682813855 3354.1470588235293 768.0870120946274 3375.0882352941176 758.1300732473312 3396.029411764706 755.2502906288946 3416.970588235294 755.2385923010361 3437.9117647058824 752.0924084860791 3458.8529411764707 744.981700209997 3479.794117647059 742.0464154901043 3500.735294117647 739.1723277843557 3521.676470588235 739.179471336138 3542.6176470588234 731.7708258099874 3563.5588235294117 731.7814057156063 3584.5 731.6946718722857 3605.4411764705883 731.7898269041518 3626.3823529411766 715.6326502484551 3647.323529411765 677.0310099621294 3668.264705882353 668.8015383913383 3689.205882352941 669.2508046624037 3710.1470588235293 665.0687170796807 3731.0882352941176 665.1009269843557 3752.029411764706 654.1783595408037 3772.970588235294 654.2438394166766 3793.9117647058824 652.4520688665375 3814.8529411764707 650.9685000981426 3835.7941176470586 650.9511325988744 3856.735294117647 650.1826843160547 3877.676470588235 650.4578201384786 3898.6176470588234 648.9964700856017 3919.5588235294117 646.5953351574117 3940.5 646.711535446821 3961.4411764705883 644.3338442804811 3982.3823529411766 643.401215888529 4003.323529411765 642.4444914583115 4024.264705882353 641.6145313440886 4045.2058823529414 641.3274589400961 4066.1470588235293 641.0825381110685 4087.0882352941176 639.6433470430949 4108.029411764706 641.2396613478342 4128.970588235294 641.5584180917222 4149.911764705882 641.6386088112265 4170.85294117647 641.7883242512185 4191.794117647059 642.039984670155 4212.735294117647 642.0313795477604 4233.676470588235 641.9480866676806 4254.617647058823 641.8202862493038 4275.558823529412 642.7292472893881 4296.5 644.079254095949 4296.5 406.7436296706727 4275.558823529412 406.7813542428996 4254.617647058823 406.6698565401598 4233.676470588235 406.4177132957925 4212.735294117647 406.61254799064136 4191.794117647059 406.61593787153623 4170.85294117647 406.42043828437977 4149.911764705882 406.25830937946154 4128.970588235294 406.1024336272774 4108.029411764706 405.9225420999001 4087.0882352941176 406.47953769377625 4066.1470588235293 406.2783088484283 4045.2058823529414 406.1475891922515 4024.264705882353 406.0007835357919 4003.323529411765 405.8580495377305 3982.3823529411766 405.75756216085244 3961.4411764705883 405.6890755918336 3940.5 405.4853661204658 3919.5588235294117 405.49122463683807 3898.6176470588234 405.2872977777903 3877.676470588235 405.0542403680629 3856.735294117647 404.8267826278017 3835.7941176470586 404.3597305581952 3814.8529411764707 404.3606360598039 3793.9117647058824 404.3133620715407 3772.970588235294 404.2694390318647 3752.029411764706 404.25532206437714 3731.0882352941176 404.1006016590141 3710.1470588235293 404.09929675944176 3689.205882352941 404.0956381930635 3668.264705882353 404.12948436436125 3647.323529411765 403.9961122337051 3626.3823529411766 403.3494217541671 3605.4411764705883 402.9248624726996 3584.5 402.9072043922977 3563.5588235294117 402.90877584131425 3542.6176470588234 402.9298471234101 3521.676470588235 402.60349792125623 3500.735294117647 402.6099730048478 3479.794117647059 402.37217547977207 3458.8529411764707 402.145050233926 3437.9117647058824 401.73578913608276 3416.970588235294 401.57006086206655 3396.029411764706 401.57128950627384 3375.0882352941176 401.4082896460906 3354.1470588235293 400.8924429074875 3333.205882352941 400.88896921768406 3312.264705882353 400.93900012801925 3291.323529411765 401.0268406246156 3270.3823529411766 400.9092568701918 3249.4411764705883 400.9924926084992 3228.5 400.4880580221503 3228.5 787.2357258695183Z" fill="#005aa6" opacity="0.9" />
		</g>
		<g>
			<path d="M3228.5 400.4880580221503 3249.4411764705883 400.9924926084992 3270.3823529411766 400.9092568701918 3291.323529411765 401.0268406246156 3312.264705882353 400.93900012801925 3333.205882352941 400.88896921768406 3354.1470588235293 400.8924429074875 3375.0882352941176 401.4082896460906 3396.029411764706 401.57128950627384 3416.970588235294 401.57006086206655 3437.9117647058824 401.73578913608276 3458.8529411764707 402.145050233926 3479.794117647059 402.37217547977207 3500.735294117647 402.6099730048478 3521.676470588235 402.60349792125623 3542.6176470588234 402.9298471234101 3563.5588235294117 402.90877584131425 3584.5 402.9072043922977 3605.4411764705883 402.9248624726996 3626.3823529411766 403.3494217541671 3647.323529411765 403.9961122337051 3668.264705882353 404.12948436436125 3689.205882352941 404.0956381930635 3710.1470588235293 404.09929675944176 3731.0882352941176 404.1006016590141 3752.029411764706 404.25532206437714 3772.970588235294 404.2694390318647 3793.9117647058824 404.3133620715407 3814.8529411764707 404.3606360598039 3835.7941176470586 404.3597305581952 3856.735294117647 404.8267826278017 3877.676470588235 405.0542403680629 3898.6176470588234 405.2872977777903 3919.5588235294117 405.49122463683807 3940.5 405.4853661204658 3961.4411764705883 405.6890755918336 3982.3823529411766 405.75756216085244 4003.323529411765 405.8580495377305 4024.264705882353 406.0007835357919 4045.2058823529414 406.1475891922515 4066.1470588235293 406.2783088484283 4087.0882352941176 406.47953769377625 4108.029411764706 405.9225420999001 4128.970588235294 406.1024336272774 4149.911764705882 406.25830937946154 4170.85294117647 406.42043828437977 4191.794117647059 406.61593787153623 4212.735294117647 406.61254799064136 4233.676470588235 406.4177132957925 4254.617647058823 406.6698565401598 4275.558823529412 406.7813542428996 4296.5 406.7436296706727 4296.5 398.00000000000006 4275.558823529412 397.9999999999999 4254.617647058823 398 4233.676470588235 398.00000000000006 4212.735294117647 398.00000000000006 4191.794117647059 397.99999999999994 4170.85294117647 398 4149.911764705882 398 4128.970588235294 397.9999999999999 4108.029411764706 398 4087.0882352941176 397.99999999999994 4066.1470588235293 397.99999999999994 4045.2058823529414 398 4024.264705882353 398 4003.323529411765 398 3982.3823529411766 398.00000000000006 3961.4411764705883 397.99999999999994 3940.5 398.00000000000006 3919.5588235294117 398 3898.6176470588234 398 3877.676470588235 398 3856.735294117647 397.99999999999994 3835.7941176470586 397.99999999999994 3814.8529411764707 397.99999999999994 3793.9117647058824 398.00000000000006 3772.970588235294 398.00000000000006 3752.029411764706 398.0000000000001 3731.0882352941176 397.99999999999994 3710.1470588235293 397.9999999999999 3689.205882352941 398.0000000000001 3668.264705882353 398 3647.323529411765 398 3626.3823529411766 397.9999999999999 3605.4411764705883 398.00000000000006 3584.5 397.99999999999994 3563.5588235294117 397.9999999999999 3542.6176470588234 398.00000000000006 3521.676470588235 398.00000000000006 3500.735294117647 397.99999999999994 3479.794117647059 397.99999999999994 3458.8529411764707 397.99999999999994 3437.9117647058824 398 3416.970588235294 397.9999999999999 3396.029411764706 397.99999999999994 3375.0882352941176 397.99999999999994 3354.1470588235293 398 3333.205882352941 398.00000000000006 3312.264705882353 398.00000000000006 3291.323529411765 397.99999999999994 3270.3823529411766 397.99999999999994 3249.4411764705883 397.99999999999994 3228.5 398.0000000000001 3228.5 400.4880580221503Z" fill="#393d41" opacity="0.9" />
		</g>
		<g>
			<rect x="4372" y="431" width="22.9995" height="23" fill="#e62d39" />
		</g>
		<g>
			<text fill="#595959" font-family="Verdana,Open Sans,DejaVu Sans,sans-serif" font-weight="400" font-size="41" transform="matrix(1 0 0 1 4404.56 454)">App</text>
		</g>
		<g>
			<rect x="4372" y="508" width="22.9995" height="23" fill="#005aa6" />
		</g>
		<g>
			<text fill="#595959" font-family="Verdana,Open Sans,DejaVu Sans,sans-serif" font-weight="400" font-size="41" transform="matrix(1 0 0 1 4404.56 531)">Web Browser</text>
		</g>
		<g>
			<rect x="4372" y="585" width="22.9995" height="23" fill="#393d41" />
		</g>
		<g>
			<text fill="#595959" font-family="Verdana,Open Sans,DejaVu Sans,sans-serif" font-weight="400" font-size="41" transform="matrix(1 0 0 1 4404.56 608)">Unclassified</text>
		</g>
	</g>
</svg>
