<svg width="1763" height="1046"
    xmlns="http://www.w3.org/2000/svg"
	xmlns:xlink="http://www.w3.org/1999/xlink" xml:space="preserve" overflow="hidden">
	<defs>
		<clipPath id="clip0">
			<rect x="2917" y="346" width="1763" height="1046"/>
		</clipPath>
	</defs>
	<g clip-path="url(#clip0)" transform="translate(-2917 -346)">
		<rect x="2918" y="347" width="1760" height="1043" fill="#FFFFFF" />
		<g>
			<path d="
			M3228.5 974.532 4296.5 974.532
			M3228.5 910.53 4296.5 910.53
			M3228.5 846.528 4296.5 846.528
			M3228.5 781.526 4296.5 781.526
			M3228.5 717.524 4296.5 717.524
			M3228.5 653.522 4296.5 653.522
			M3228.5 589.52 4296.5 589.52
			M3228.5 525.517 4296.5 525.517
			M3228.5 461.515 4296.5 461.515
			M3228.5 397.5 4296.5 397.5" stroke="#D9D9D9" stroke-width="3.4375" stroke-linejoin="round" stroke-miterlimit="10" fill="none" />
		</g>
		<g>
			<path d="M 1038.5 4296.5 1038.5" stroke="#D9D9D9" stroke-width="3.4375" stroke-linejoin="round" stroke-miterlimit="10" fill="none" fill-rule="evenodd" />
		</g>
		<g>
			<text fill="#595959" font-family="Verdana,Open Sans,DejaVu Sans,sans-serif" font-weight="400" font-size="41" transform="matrix(6.12323e-17 -1 1 6.12323e-17 3248.269287109375 1204.42333984375)">23-Sep</text>
		</g>
		<g>
			<text fill="#595959" font-family="Verdana,Open Sans,DejaVu Sans,sans-serif" font-weight="400" font-size="41" transform="matrix(6.12323e-17 -1 1 6.12323e-17 3330.748370735013 1201.1401290893555)">21-Oct</text>
		</g>
		<g>
			<text fill="#595959" font-family="Verdana,Open Sans,DejaVu Sans,sans-serif" font-weight="400" font-size="41" transform="matrix(6.12323e-17 -1 1 6.12323e-17 3417.9120246731504 1209.70849609375)">18-Nov</text>
		</g>
		<g>
			<text fill="#595959" font-family="Verdana,Open Sans,DejaVu Sans,sans-serif" font-weight="400" font-size="41" transform="matrix(6.12323e-17 -1 1 6.12323e-17 3505.0956981425384 1207.1259765625)">23-Dec</text>
		</g>
		<g>
			<text fill="#595959" font-family="Verdana,Open Sans,DejaVu Sans,sans-serif" font-weight="400" font-size="41" transform="matrix(6.12323e-17 -1 1 6.12323e-17 3595.952955596301 1191.6909103393555)">20-Jan</text>
		</g>
		<g>
			<text fill="#595959" font-family="Verdana,Open Sans,DejaVu Sans,sans-serif" font-weight="400" font-size="41" transform="matrix(6.12323e-17 -1 1 6.12323e-17 3680.193757971939 1201.3203125)">17-Feb</text>
		</g>
		<g>
			<text fill="#595959" font-family="Verdana,Open Sans,DejaVu Sans,sans-serif" font-weight="400" font-size="41" transform="matrix(6.12323e-17 -1 1 6.12323e-17 3766.4365134725767 1210.2890625)">17-Mar</text>
		</g>
		<g>
			<text fill="#595959" font-family="Verdana,Open Sans,DejaVu Sans,sans-serif" font-weight="400" font-size="41" transform="matrix(6.12323e-17 -1 1 6.12323e-17 3858.424874441964 1201.5405197143555)">14-Apr</text>
		</g>
		<g>
			<text fill="#595959" font-family="Verdana,Open Sans,DejaVu Sans,sans-serif" font-weight="400" font-size="41" transform="matrix(6.12323e-17 -1 1 6.12323e-17 3945.738674864477 1214.75341796875)">12-May</text>
		</g>
		<g>
			<text fill="#595959" font-family="Verdana,Open Sans,DejaVu Sans,sans-serif" font-weight="400" font-size="41" transform="matrix(6.12323e-17 -1 1 6.12323e-17 4031.8513034119896 1192.2914962768555)">16-Jun</text>
		</g>
		<g>
			<text fill="#595959" font-family="Verdana,Open Sans,DejaVu Sans,sans-serif" font-weight="400" font-size="41" transform="matrix(6.12323e-17 -1 1 6.12323e-17 4119.765689772003 1177.2768478393555)">14-Jul</text>
		</g>
		<g>
			<text fill="#595959" font-family="Verdana,Open Sans,DejaVu Sans,sans-serif" font-weight="400" font-size="41" transform="matrix(6.12323e-17 -1 1 6.12323e-17 4207.1395487882655 1206.90576171875)">11-Aug</text>
		</g>
		<g>
			<text fill="#595959" font-family="Verdana,Open Sans,DejaVu Sans,sans-serif" font-weight="400" font-size="41" transform="matrix(6.12323e-17 -1 1 6.12323e-17 4294.4933882732785 1204.38330078125)">08-Sep</text>
		</g>
		<g>
			<text fill="#595959" font-family="Verdana,Open Sans,DejaVu Sans,sans-serif" font-weight="400" font-size="41" transform="matrix(1 0 0 1 3135.4482421875 1050)">0%</text>
		</g>
		<g>
			<text fill="#595959" font-family="Verdana,Open Sans,DejaVu Sans,sans-serif" font-weight="400" font-size="41" transform="matrix(1 0 0 1 3111.96533203125 922)">20%</text>
		</g>
		<g>
			<text fill="#595959" font-family="Verdana,Open Sans,DejaVu Sans,sans-serif" font-weight="400" font-size="41" transform="matrix(1 0 0 1 3110.82421875 794)">40%</text>
		</g>
		<g>
			<text fill="#595959" font-family="Verdana,Open Sans,DejaVu Sans,sans-serif" font-weight="400" font-size="41" transform="matrix(1 0 0 1 3112.3056640625 666)">60%</text>
		</g>
		<g>
			<text fill="#595959" font-family="Verdana,Open Sans,DejaVu Sans,sans-serif" font-weight="400" font-size="41" transform="matrix(1 0 0 1 3112.04541015625 538)">80%</text>
		</g>
		<g>
			<text fill="#595959" font-family="Verdana,Open Sans,DejaVu Sans,sans-serif" font-weight="400" font-size="41" transform="matrix(1 0 0 1 3090.2841796875 410)">100%</text>
		</g>
		<g>
			<text fill="#595959" font-family="Verdana,Open Sans,DejaVu Sans,sans-serif" font-weight="400" font-size="41" transform="matrix(1 0 0 1 3556.97119140625 1321)">Week Commencing</text>
		</g>
		<g>
			<text fill="#595959" font-family="Verdana,Open Sans,DejaVu Sans,sans-serif" font-weight="400" font-size="46" transform="matrix(6.12323e-17 -1 1 6.12323e-17 3019.73 936.7665710449219)">Requests (% of Total)</text>
		</g>
		<rect x="2918.5" y="347.5" width="1760" height="1043" stroke="#D9D9D9" stroke-width="3.4375" stroke-linejoin="round" stroke-miterlimit="10" fill="none" />
		<g>
			<path d="M3228.5 1038 3250.295918367347 1038 3272.091836734694 1038 3293.887755102041 1038 3315.683673469388 1038 3337.4795918367345 1038 3359.2755102040815 1038 3381.0714285714284 1038 3402.8673469387754 1038 3424.6632653061224 1038 3446.4591836734694 1038 3468.2551020408164 1038 3490.0510204081634 1038 3511.8469387755104 1038 3533.6428571428573 1038 3555.4387755102043 1038 3577.234693877551 1038 3599.030612244898 1038 3620.826530612245 1038 3642.622448979592 1038 3664.418367346939 1038 3686.214285714286 1038 3708.0102040816328 1038 3729.8061224489797 1038 3751.6020408163267 1038 3773.3979591836733 1038 3795.1938775510203 1038 3816.9897959183672 1038 3838.785714285714 1038 3860.581632653061 1038 3882.377551020408 1038 3904.173469387755 1038 3925.969387755102 1038 3947.765306122449 1038 3969.5612244897957 1038 3991.357142857143 1038 4013.1530612244896 1038 4034.9489795918366 1038 4056.7448979591836 1038 4078.5408163265306 1038 4100.336734693878 1038 4122.132653061224 1038 4143.928571428572 1038 4165.724489795918 1038 4187.5204081632655 1038 4209.316326530612 1038 4231.1122448979595 1038 4252.908163265306 1038 4274.7040816326535 1038 4296.5 1038 4296.5 695.163350023929 4274.7040816326535 687.6433806500037 4252.908163265306 684.3314685610305 4231.1122448979595 684.3209988773792 4209.316326530612 681.2782163987595 4187.5204081632655 670.8054308128601 4165.724489795918 670.8267009362985 4143.928571428572 670.8221029232388 4122.132653061224 670.8247036103119 4100.336734693878 669.3025426570151 4078.5408163265306 663.9423180085192 4056.7448979591836 651.252332152632 4034.9489795918366 651.1868443226381 4013.1530612244896 647.3266392502171 3991.357142857143 644.07687198401 3969.5612244897957 638.9577169702429 3947.765306122449 636.9751756855164 3925.969387755102 635.4729707714018 3904.173469387755 634.0735967176577 3882.377551020408 632.8947266339228 3860.581632653061 631.9364864355447 3838.785714285714 630.6938210695101 3816.9897959183672 629.5047785696727 3795.1938775510203 628.3884215694598 3773.3979591836733 626.7876738161085 3751.6020408163267 585.3299764795494 3729.8061224489797 584.8421137404707 3708.0102040816328 584.3697869147531 3686.214285714286 582.8150128997006 3664.418367346939 582.5177383576936 3642.622448979592 582.3344680120879 3620.826530612245 582.5939821313019 3599.030612244898 581.9303729662242 3577.234693877551 581.2253151836085 3555.4387755102043 580.7419087611287 3533.6428571428573 580.710243189289 3511.8469387755104 580.6735762948426 3490.0510204081634 580.9280737837942 3468.2551020408164 581.4872454103777 3446.4591836734694 582.4062939611431 3424.6632653061224 569.6826475023468 3402.8673469387754 569.8912689965251 3381.0714285714284 569.9302361292804 3359.2755102040815 569.8349942572809 3337.4795918367345 569.5040370531727 3315.683673469388 717.6623105620715 3293.887755102041 693.0292117157351 3272.091836734694 692.8367597789183 3250.295918367347 692.6574656354969 3228.5 684.2461914870885 3228.5 1038Z" fill="#e62d39" opacity="0.9" />
		</g>
		<g>
			<path d="M3228.5 684.2461914870885 3250.295918367347 692.6574656354969 3272.091836734694 692.8367597789183 3293.887755102041 693.0292117157351 3315.683673469388 717.6623105620715 3337.4795918367345 569.5040370531727 3359.2755102040815 569.8349942572809 3381.0714285714284 569.9302361292804 3402.8673469387754 569.8912689965251 3424.6632653061224 569.6826475023468 3446.4591836734694 582.4062939611431 3468.2551020408164 581.4872454103777 3490.0510204081634 580.9280737837942 3511.8469387755104 580.6735762948426 3533.6428571428573 580.710243189289 3555.4387755102043 580.7419087611287 3577.234693877551 581.2253151836085 3599.030612244898 581.9303729662242 3620.826530612245 582.5939821313019 3642.622448979592 582.3344680120879 3664.418367346939 582.5177383576936 3686.214285714286 582.8150128997006 3708.0102040816328 584.3697869147531 3729.8061224489797 584.8421137404707 3751.6020408163267 585.3299764795494 3773.3979591836733 626.7876738161085 3795.1938775510203 628.3884215694598 3816.9897959183672 629.5047785696727 3838.785714285714 630.6938210695101 3860.581632653061 631.9364864355447 3882.377551020408 632.8947266339228 3904.173469387755 634.0735967176577 3925.969387755102 635.4729707714018 3947.765306122449 636.9751756855164 3969.5612244897957 638.9577169702429 3991.357142857143 644.07687198401 4013.1530612244896 647.3266392502171 4034.9489795918366 651.1868443226381 4056.7448979591836 651.252332152632 4078.5408163265306 663.9423180085192 4100.336734693878 669.3025426570151 4122.132653061224 670.8247036103119 4143.928571428572 670.8221029232388 4165.724489795918 670.8267009362985 4187.5204081632655 670.8054308128601 4209.316326530612 681.2782163987595 4231.1122448979595 684.3209988773792 4252.908163265306 684.3314685610305 4274.7040816326535 687.6433806500037 4296.5 695.163350023929 4296.5 402.145050233926 4274.7040816326535 401.73578913608276 4252.908163265306 401.57006086206667 4231.1122448979595 401.57128950627384 4209.316326530612 401.4082896460907 4187.5204081632655 400.89244290748746 4165.724489795918 400.88896921768395 4143.928571428572 400.9390001280192 4122.132653061224 401.0268406246156 4100.336734693878 400.9092568701918 4078.5408163265306 400.9924926084992 4056.7448979591836 400.48805802215026 4034.9489795918366 400.4960813600376 4013.1530612244896 400.2916782230465 3991.357142857143 400.1582567110125 3969.5612244897957 399.92908991218985 3947.765306122449 399.9334041710105 3925.969387755102 399.8797680654118 3904.173469387755 399.8310554200368 3882.377551020408 399.77429194002207 3860.581632653061 399.72528771121347 3838.785714285714 399.7049408705508 3816.9897959183672 400.0041449048839 3795.1938775510203 399.9604159100104 3773.3979591836733 399.99059261305473 3751.6020408163267 399.5837460145528 3729.8061224489797 399.60517704227266 3708.0102040816328 399.58267002165013 3686.214285714286 398.76939218444284 3664.418367346939 398.748881893379 3642.622448979592 398.75079403491515 3620.826530612245 398.74677273073394 3599.030612244898 398.7411343617605 3577.234693877551 398.7379557747454 3555.4387755102043 398.70704867301595 3533.6428571428573 398.70882925199004 3511.8469387755104 398.7008574619051 3490.0510204081634 398.68535542850464 3468.2551020408164 398.67102339002776 3446.4591836734694 398.67520739706913 3424.6632653061224 399.27182314363034 3402.8673469387754 399.262582558681 3381.0714285714284 399.27351700187455 3359.2755102040815 399.28077369767425 3337.4795918367345 399.29931326714217 3315.683673469388 463.6506199133046 3293.887755102041 458.1198955073757 3272.091836734694 457.6909023203396 3250.295918367347 457.1922376810141 3228.5 442.93735389999836 3228.5 684.2461914870885Z" fill="#005aa6" opacity="0.9" />
		</g>
		<g>
			<path d="M3228.5 442.93735389999836 3250.295918367347 457.1922376810141 3272.091836734694 457.6909023203396 3293.887755102041 458.1198955073757 3315.683673469388 463.6506199133046 3337.4795918367345 399.29931326714217 3359.2755102040815 399.28077369767425 3381.0714285714284 399.27351700187455 3402.8673469387754 399.262582558681 3424.6632653061224 399.27182314363034 3446.4591836734694 398.67520739706913 3468.2551020408164 398.67102339002776 3490.0510204081634 398.68535542850464 3511.8469387755104 398.7008574619051 3533.6428571428573 398.70882925199004 3555.4387755102043 398.70704867301595 3577.234693877551 398.7379557747454 3599.030612244898 398.7411343617605 3620.826530612245 398.74677273073394 3642.622448979592 398.75079403491515 3664.418367346939 398.748881893379 3686.214285714286 398.76939218444284 3708.0102040816328 399.58267002165013 3729.8061224489797 399.60517704227266 3751.6020408163267 399.5837460145528 3773.3979591836733 399.99059261305473 3795.1938775510203 399.9604159100104 3816.9897959183672 400.0041449048839 3838.785714285714 399.7049408705508 3860.581632653061 399.72528771121347 3882.377551020408 399.77429194002207 3904.173469387755 399.8310554200368 3925.969387755102 399.8797680654118 3947.765306122449 399.9334041710105 3969.5612244897957 399.92908991218985 3991.357142857143 400.1582567110125 4013.1530612244896 400.2916782230465 4034.9489795918366 400.4960813600376 4056.7448979591836 400.48805802215026 4078.5408163265306 400.9924926084992 4100.336734693878 400.9092568701918 4122.132653061224 401.0268406246156 4143.928571428572 400.9390001280192 4165.724489795918 400.88896921768395 4187.5204081632655 400.89244290748746 4209.316326530612 401.4082896460907 4231.1122448979595 401.57128950627384 4252.908163265306 401.57006086206667 4274.7040816326535 401.73578913608276 4296.5 402.145050233926 4296.5 397.99999999999994 4274.7040816326535 398 4252.908163265306 398 4231.1122448979595 397.99999999999994 4209.316326530612 398 4187.5204081632655 397.99999999999994 4165.724489795918 397.99999999999994 4143.928571428572 398 4122.132653061224 397.99999999999994 4100.336734693878 397.99999999999994 4078.5408163265306 397.99999999999994 4056.7448979591836 398.00000000000006 4034.9489795918366 397.99999999999994 4013.1530612244896 398 3991.357142857143 398 3969.5612244897957 398 3947.765306122449 397.99999999999994 3925.969387755102 397.99999999999994 3904.173469387755 397.99999999999994 3882.377551020408 397.9999999999999 3860.581632653061 397.9999999999999 3838.785714285714 398 3816.9897959183672 398.00000000000006 3795.1938775510203 397.99999999999994 3773.3979591836733 397.99999999999994 3751.6020408163267 398.00000000000006 3729.8061224489797 398 3708.0102040816328 398.00000000000006 3686.214285714286 398 3664.418367346939 397.99999999999994 3642.622448979592 398 3620.826530612245 398 3599.030612244898 397.99999999999994 3577.234693877551 398.00000000000006 3555.4387755102043 398 3533.6428571428573 398 3511.8469387755104 398.00000000000006 3490.0510204081634 397.99999999999994 3468.2551020408164 398.00000000000006 3446.4591836734694 398.00000000000006 3424.6632653061224 398 3402.8673469387754 398 3381.0714285714284 398.00000000000006 3359.2755102040815 397.99999999999994 3337.4795918367345 398 3315.683673469388 398 3293.887755102041 398.00000000000006 3272.091836734694 398.00000000000006 3250.295918367347 398.0000000000001 3228.5 398 3228.5 442.93735389999836Z" fill="#393d41" opacity="0.9" />
		</g>
		<g>
			<rect x="4372" y="431" width="22.9995" height="23" fill="#e62d39" />
		</g>
		<g>
			<text fill="#595959" font-family="Verdana,Open Sans,DejaVu Sans,sans-serif" font-weight="400" font-size="41" transform="matrix(1 0 0 1 4404.56 454)">Web Browser</text>
		</g>
		<g>
			<rect x="4372" y="508" width="22.9995" height="23" fill="#005aa6" />
		</g>
		<g>
			<text fill="#595959" font-family="Verdana,Open Sans,DejaVu Sans,sans-serif" font-weight="400" font-size="41" transform="matrix(1 0 0 1 4404.56 531)">App</text>
		</g>
		<g>
			<rect x="4372" y="585" width="22.9995" height="23" fill="#393d41" />
		</g>
		<g>
			<text fill="#595959" font-family="Verdana,Open Sans,DejaVu Sans,sans-serif" font-weight="400" font-size="41" transform="matrix(1 0 0 1 4404.56 608)">Unclassified</text>
		</g>
	</g>
</svg>
