<svg width="1763" height="1046"
    xmlns="http://www.w3.org/2000/svg"
	xmlns:xlink="http://www.w3.org/1999/xlink" xml:space="preserve" overflow="hidden">
	<defs>
		<clipPath id="clip0">
			<rect x="2917" y="346" width="1763" height="1046"/>
		</clipPath>
	</defs>
	<g clip-path="url(#clip0)" transform="translate(-2917 -346)">
		<rect x="2918" y="347" width="1760" height="1043" fill="#FFFFFF" />
		<g>
			<path d="
			M3228.5 974.532 4296.5 974.532
			M3228.5 910.53 4296.5 910.53
			M3228.5 846.528 4296.5 846.528
			M3228.5 781.526 4296.5 781.526
			M3228.5 717.524 4296.5 717.524
			M3228.5 653.522 4296.5 653.522
			M3228.5 589.52 4296.5 589.52
			M3228.5 525.517 4296.5 525.517
			M3228.5 461.515 4296.5 461.515
			M3228.5 397.5 4296.5 397.5" stroke="#D9D9D9" stroke-width="3.4375" stroke-linejoin="round" stroke-miterlimit="10" fill="none" />
		</g>
		<g>
			<path d="M 1038.5 4296.5 1038.5" stroke="#D9D9D9" stroke-width="3.4375" stroke-linejoin="round" stroke-miterlimit="10" fill="none" fill-rule="evenodd" />
		</g>
		<g>
			<text fill="#595959" font-family="Verdana,Open Sans,DejaVu Sans,sans-serif" font-weight="400" font-size="41" transform="matrix(6.12323e-17 -1 1 6.12323e-17 3244.275390625 1201.3203125)">17-Feb</text>
		</g>
		<g>
			<text fill="#595959" font-family="Verdana,Open Sans,DejaVu Sans,sans-serif" font-weight="400" font-size="41" transform="matrix(6.12323e-17 -1 1 6.12323e-17 3328.77447265625 1210.2890625)">17-Mar</text>
		</g>
		<g>
			<text fill="#595959" font-family="Verdana,Open Sans,DejaVu Sans,sans-serif" font-weight="400" font-size="41" transform="matrix(6.12323e-17 -1 1 6.12323e-17 3419.01916015625 1201.5405197143555)">14-Apr</text>
		</g>
		<g>
			<text fill="#595959" font-family="Verdana,Open Sans,DejaVu Sans,sans-serif" font-weight="400" font-size="41" transform="matrix(6.12323e-17 -1 1 6.12323e-17 3504.589287109375 1214.75341796875)">12-May</text>
		</g>
		<g>
			<text fill="#595959" font-family="Verdana,Open Sans,DejaVu Sans,sans-serif" font-weight="400" font-size="41" transform="matrix(6.12323e-17 -1 1 6.12323e-17 3588.9582421875 1192.2914962768555)">16-Jun</text>
		</g>
		<g>
			<text fill="#595959" font-family="Verdana,Open Sans,DejaVu Sans,sans-serif" font-weight="400" font-size="41" transform="matrix(6.12323e-17 -1 1 6.12323e-17 3675.128955078125 1177.2768478393555)">14-Jul</text>
		</g>
		<g>
			<text fill="#595959" font-family="Verdana,Open Sans,DejaVu Sans,sans-serif" font-weight="400" font-size="41" transform="matrix(6.12323e-17 -1 1 6.12323e-17 3760.759140625 1206.90576171875)">11-Aug</text>
		</g>
		<g>
			<text fill="#595959" font-family="Verdana,Open Sans,DejaVu Sans,sans-serif" font-weight="400" font-size="41" transform="matrix(6.12323e-17 -1 1 6.12323e-17 3846.369306640625 1204.38330078125)">08-Sep</text>
		</g>
		<g>
			<text fill="#595959" font-family="Verdana,Open Sans,DejaVu Sans,sans-serif" font-weight="400" font-size="41" transform="matrix(6.12323e-17 -1 1 6.12323e-17 3927.084697265625 1201.1000900268555)">06-Oct</text>
		</g>
		<g>
			<text fill="#595959" font-family="Verdana,Open Sans,DejaVu Sans,sans-serif" font-weight="400" font-size="41" transform="matrix(6.12323e-17 -1 1 6.12323e-17 4012.524697265625 1211.43017578125)">03-Nov</text>
		</g>
		<g>
			<text fill="#595959" font-family="Verdana,Open Sans,DejaVu Sans,sans-serif" font-weight="400" font-size="41" transform="matrix(6.12323e-17 -1 1 6.12323e-17 4097.964697265625 1207.0859375)">01-Dec</text>
		</g>
		<g>
			<text fill="#595959" font-family="Verdana,Open Sans,DejaVu Sans,sans-serif" font-weight="400" font-size="41" transform="matrix(6.12323e-17 -1 1 6.12323e-17 4183.384677734375 1207.1259765625)">29-Dec</text>
		</g>
		<g>
			<text fill="#595959" font-family="Verdana,Open Sans,DejaVu Sans,sans-serif" font-weight="400" font-size="41" transform="matrix(6.12323e-17 -1 1 6.12323e-17 4272.4782421875 1191.6909103393555)">26-Jan</text>
		</g>
		<g>
			<text fill="#595959" font-family="Verdana,Open Sans,DejaVu Sans,sans-serif" font-weight="400" font-size="41" transform="matrix(1 0 0 1 3169.14111328125 1050)">0</text>
		</g>
		<g>
			<text fill="#595959" font-family="Verdana,Open Sans,DejaVu Sans,sans-serif" font-weight="400" font-size="41" transform="matrix(1 0 0 1 3087.38134765625 922)">3,244</text>
		</g>
		<g>
			<text fill="#595959" font-family="Verdana,Open Sans,DejaVu Sans,sans-serif" font-weight="400" font-size="41" transform="matrix(1 0 0 1 3089.14306640625 794)">6,488</text>
		</g>
		<g>
			<text fill="#595959" font-family="Verdana,Open Sans,DejaVu Sans,sans-serif" font-weight="400" font-size="41" transform="matrix(1 0 0 1 3095.9296875 666)">9,731</text>
		</g>
		<g>
			<text fill="#595959" font-family="Verdana,Open Sans,DejaVu Sans,sans-serif" font-weight="400" font-size="41" transform="matrix(1 0 0 1 3067.3618240356445 538)">12,975</text>
		</g>
		<g>
			<text fill="#595959" font-family="Verdana,Open Sans,DejaVu Sans,sans-serif" font-weight="400" font-size="41" transform="matrix(1 0 0 1 3067.2016677856445 410)">16,219</text>
		</g>
		<g>
			<text fill="#595959" font-family="Verdana,Open Sans,DejaVu Sans,sans-serif" font-weight="400" font-size="41" transform="matrix(1 0 0 1 3556.97119140625 1321)">Week Commencing</text>
		</g>
		<g>
			<text fill="#595959" font-family="Verdana,Open Sans,DejaVu Sans,sans-serif" font-weight="400" font-size="46" transform="matrix(6.12323e-17 -1 1 6.12323e-17 3019.73 1011.673828125)">Number of Browser Profiles</text>
		</g>
		<rect x="2918.5" y="347.5" width="1760" height="1043" stroke="#D9D9D9" stroke-width="3.4375" stroke-linejoin="round" stroke-miterlimit="10" fill="none" />
		<g>
			<path d="M3228.5 1038 3249.86 1038 3271.22 1038 3292.58 1038 3313.94 1038 3335.3 1038 3356.66 1038 3378.02 1038 3399.38 1038 3420.74 1038 3442.1 1038 3463.46 1038 3484.82 1038 3506.18 1038 3527.54 1038 3548.9 1038 3570.26 1038 3591.62 1038 3612.98 1038 3634.34 1038 3655.7 1038 3677.06 1038 3698.42 1038 3719.7799999999997 1038 3741.14 1038 3762.5 1038 3783.86 1038 3805.2200000000003 1038 3826.58 1038 3847.94 1038 3869.3 1038 3890.66 1038 3912.02 1038 3933.38 1038 3954.74 1038 3976.1 1038 3997.46 1038 4018.8199999999997 1038 4040.18 1038 4061.54 1038 4082.9 1038 4104.26 1038 4125.62 1038 4146.98 1038 4168.34 1038 4189.7 1038 4211.0599999999995 1038 4232.42 1038 4253.78 1038 4275.139999999999 1038 4296.5 1038 4296.5 532.8344534188298 4275.139999999999 533.3868919168876 4253.78 534.2155496639743 4232.42 534.9652876256243 4211.0599999999995 535.793945372711 4189.7 535.9517849435847 4168.34 536.4253036562056 4146.98 536.9777421542635 4125.62 538.0036993649423 4104.26 539.2664159319318 4082.9 540.9237314261052 4061.54 541.2394105678525 4040.18 542.3442875639682 4018.8199999999997 542.9756458474628 3997.46 544.4356618780444 3976.1 545.0275602688205 3954.74 546.3691966212467 3933.38 546.487576299402 3912.02 547.3556939392072 3890.66 548.381651149886 3869.3 549.6838276095937 3847.94 550.3941056785252 3826.58 551.0254639620199 3805.2200000000003 552.2881805290092 3783.86 553.1168382760959 3762.5 554.0244158086196 3741.14 555.0109131265799 3719.7799999999997 555.8001109809484 3698.42 556.5498489425981 3677.06 557.4179665824033 3655.7 557.8125655095876 3634.34 558.7990628275479 3612.98 560.1012392872558 3591.62 560.6931376780319 3570.26 561.837474566866 3548.9 563.1791109192923 3527.54 564.7969665207472 3506.18 565.901843516863 3484.82 566.9672606202603 3463.46 567.8748381527838 3442.1 568.7034958998705 3420.74 569.6505333251125 3399.38 570.5186509649177 3378.02 571.9786669954991 3356.66 572.6100252789938 3335.3 573.2413835624884 3313.94 573.9911215241384 3292.58 575.0565386275357 3271.22 576.1614156236512 3249.86 577.0295332634564 3228.5 577.5819717615143 3228.5 1038Z" fill="#005aa6" opacity="0.9" />
		</g>
		<g>
			<path d="M3228.5 577.5819717615143 3249.86 577.0295332634564 3271.22 576.1614156236512 3292.58 575.0565386275357 3313.94 573.9911215241384 3335.3 573.2413835624884 3356.66 572.6100252789938 3378.02 571.9786669954991 3399.38 570.5186509649177 3420.74 569.6505333251125 3442.1 568.7034958998705 3463.46 567.8748381527838 3484.82 566.9672606202603 3506.18 565.901843516863 3527.54 564.7969665207472 3548.9 563.1791109192923 3570.26 561.837474566866 3591.62 560.6931376780319 3612.98 560.1012392872558 3634.34 558.7990628275479 3655.7 557.8125655095876 3677.06 557.4179665824033 3698.42 556.5498489425981 3719.7799999999997 555.8001109809484 3741.14 555.0109131265799 3762.5 554.0244158086196 3783.86 553.1168382760959 3805.2200000000003 552.2881805290092 3826.58 551.0254639620199 3847.94 550.3941056785252 3869.3 549.6838276095937 3890.66 548.381651149886 3912.02 547.3556939392072 3933.38 546.487576299402 3954.74 546.3691966212467 3976.1 545.0275602688205 3997.46 544.4356618780444 4018.8199999999997 542.9756458474628 4040.18 542.3442875639682 4061.54 541.2394105678525 4082.9 540.9237314261052 4104.26 539.2664159319318 4125.62 538.0036993649423 4146.98 536.9777421542635 4168.34 536.4253036562056 4189.7 535.9517849435847 4211.0599999999995 535.793945372711 4232.42 534.9652876256243 4253.78 534.2155496639743 4275.139999999999 533.3868919168876 4296.5 532.8344534188298 4296.5 398 4275.139999999999 398.74973796165 4253.78 400.367593563105 4232.42 401.1962513101918 4211.0599999999995 402.18274862815224 4189.7 402.38004809174424 4168.34 402.932486589802 4146.98 403.4849250878599 4125.62 404.8265614402861 4104.26 406.326037363586 4082.9 408.1806523213515 4061.54 408.7725507121277 4040.18 410.114187064554 4018.8199999999997 410.8639250262038 3997.46 412.481780627659 3976.1 413.2709784820272 3954.74 414.7704544053271 3933.38 414.92829397620085 3912.02 416.07263086503497 3890.66 417.21696775386897 3869.3 418.71644367716874 3847.94 419.5845613169739 3826.58 420.3737591713423 3805.2200000000003 421.71539552376845 3783.86 422.7413527344472 3762.5 423.7278500524077 3741.14 425.0694864048338 3719.7799999999997 425.9376040446391 3698.42 426.92410136259934 3677.06 427.9105986805598 3655.7 428.581416856773 3634.34 429.88359331648064 3612.98 431.38306923978064 3591.62 432.093347308712 3570.26 433.35606387570135 3548.9 434.8160799062829 3527.54 436.9863740057956 3506.18 438.2885504655035 3484.82 439.59072692521124 3463.46 440.6561440286085 3442.1 441.6031814538504 3420.74 442.74751834268454 3399.38 443.77347555336337 3378.02 445.43079104753684 3356.66 446.2594487946236 3335.3 446.9697268635551 3313.94 447.8378445033603 3292.58 449.2189407485049 3271.22 450.44219742277573 3249.86 451.42869474073615 3228.5 452.21789259510456 3228.5 577.5819717615143Z" fill="#e62d39" opacity="0.9" />
		</g>
		<g>
			<rect x="4372" y="431" width="22.9995" height="23" fill="#005aa6" />
		</g>
		<g>
			<text fill="#595959" font-family="Verdana,Open Sans,DejaVu Sans,sans-serif" font-weight="400" font-size="41" transform="matrix(1 0 0 1 4404.56 454)">Web Browser</text>
		</g>
		<g>
			<rect x="4372" y="508" width="22.9995" height="23" fill="#e62d39" />
		</g>
		<g>
			<text fill="#595959" font-family="Verdana,Open Sans,DejaVu Sans,sans-serif" font-weight="400" font-size="41" transform="matrix(1 0 0 1 4404.56 531)">App</text>
		</g>
	</g>
</svg>
