<svg width="1763" height="1046"
    xmlns="http://www.w3.org/2000/svg"
	xmlns:xlink="http://www.w3.org/1999/xlink" xml:space="preserve" overflow="hidden">
	<defs>
		<clipPath id="clip0">
			<rect x="2917" y="346" width="1763" height="1046"/>
		</clipPath>
	</defs>
	<g clip-path="url(#clip0)" transform="translate(-2917 -346)">
		<rect x="2918" y="347" width="1760" height="1043" fill="#FFFFFF" />
		<g>
			<path d="
			M3228.5 974.532 4296.5 974.532
			M3228.5 910.53 4296.5 910.53
			M3228.5 846.528 4296.5 846.528
			M3228.5 781.526 4296.5 781.526
			M3228.5 717.524 4296.5 717.524
			M3228.5 653.522 4296.5 653.522
			M3228.5 589.52 4296.5 589.52
			M3228.5 525.517 4296.5 525.517
			M3228.5 461.515 4296.5 461.515
			M3228.5 397.5 4296.5 397.5" stroke="#D9D9D9" stroke-width="3.4375" stroke-linejoin="round" stroke-miterlimit="10" fill="none" />
		</g>
		<g>
			<path d="M 1038.5 4296.5 1038.5" stroke="#D9D9D9" stroke-width="3.4375" stroke-linejoin="round" stroke-miterlimit="10" fill="none" fill-rule="evenodd" />
		</g>
		<g>
			<text fill="#595959" font-family="Verdana,sans-serif" font-weight="400" font-size="41" transform="matrix(6.12323e-17 -1 1 6.12323e-17 3248 1214)">15-Apr</text>
		</g>
		<g>
			<text fill="#595959" font-family="Verdana,sans-serif" font-weight="400" font-size="41" transform="matrix(6.12323e-17 -1 1 6.12323e-17 3331.764705882353 1226)">13-May</text>
		</g>
		<g>
			<text fill="#595959" font-family="Verdana,sans-serif" font-weight="400" font-size="41" transform="matrix(6.12323e-17 -1 1 6.12323e-17 3412.029411764706 1209)">10-Jun</text>
		</g>
		<g>
			<text fill="#595959" font-family="Verdana,sans-serif" font-weight="400" font-size="41" transform="matrix(6.12323e-17 -1 1 6.12323e-17 3495.794117647059 1197)">08-Jul</text>
		</g>
		<g>
			<text fill="#595959" font-family="Verdana,sans-serif" font-weight="400" font-size="41" transform="matrix(6.12323e-17 -1 1 6.12323e-17 3583.0588235294117 1221)">05-Aug</text>
		</g>
		<g>
			<text fill="#595959" font-family="Verdana,sans-serif" font-weight="400" font-size="41" transform="matrix(6.12323e-17 -1 1 6.12323e-17 3666.823529411765 1222)">02-Sep</text>
		</g>
		<g>
			<text fill="#595959" font-family="Verdana,sans-serif" font-weight="400" font-size="41" transform="matrix(6.12323e-17 -1 1 6.12323e-17 3750.5882352941176 1221)">30-Sep</text>
		</g>
		<g>
			<text fill="#595959" font-family="Verdana,sans-serif" font-weight="400" font-size="41" transform="matrix(6.12323e-17 -1 1 6.12323e-17 3830.8529411764707 1215)">28-Oct</text>
		</g>
		<g>
			<text fill="#595959" font-family="Verdana,sans-serif" font-weight="400" font-size="41" transform="matrix(6.12323e-17 -1 1 6.12323e-17 3914.6176470588234 1224)">25-Nov</text>
		</g>
		<g>
			<text fill="#595959" font-family="Verdana,sans-serif" font-weight="400" font-size="41" transform="matrix(6.12323e-17 -1 1 6.12323e-17 3998.3823529411766 1222)">30-Dec</text>
		</g>
		<g>
			<text fill="#595959" font-family="Verdana,sans-serif" font-weight="400" font-size="41" transform="matrix(6.12323e-17 -1 1 6.12323e-17 4082.1470588235293 1210)">27-Jan</text>
		</g>
		<g>
			<text fill="#595959" font-family="Verdana,sans-serif" font-weight="400" font-size="41" transform="matrix(6.12323e-17 -1 1 6.12323e-17 4165.911764705882 1216)">24-Feb</text>
		</g>
		<g>
			<text fill="#595959" font-family="Verdana,sans-serif" font-weight="400" font-size="41" transform="matrix(6.12323e-17 -1 1 6.12323e-17 4249.676470588235 1223)">24-Mar</text>
		</g>
		<g>
			<text fill="#595959" font-family="Verdana,sans-serif" font-weight="400" font-size="41" transform="matrix(1 0 0 1 3167.5 1050)">0</text>
		</g>
		<g>
			<text fill="#595959" font-family="Verdana,sans-serif" font-weight="400" font-size="41" transform="matrix(1 0 0 1 3074.5 922)">3,012</text>
		</g>
		<g>
			<text fill="#595959" font-family="Verdana,sans-serif" font-weight="400" font-size="41" transform="matrix(1 0 0 1 3073.5 794)">6,024</text>
		</g>
		<g>
			<text fill="#595959" font-family="Verdana,sans-serif" font-weight="400" font-size="41" transform="matrix(1 0 0 1 3073.5 666)">9,035</text>
		</g>
		<g>
			<text fill="#595959" font-family="Verdana,sans-serif" font-weight="400" font-size="41" transform="matrix(1 0 0 1 3050.5 538)">12,047</text>
		</g>
		<g>
			<text fill="#595959" font-family="Verdana,sans-serif" font-weight="400" font-size="41" transform="matrix(1 0 0 1 3051.5 410)">15,059</text>
		</g>
		<g>
			<text fill="#595959" font-family="Verdana,sans-serif" font-weight="400" font-size="41" transform="matrix(1 0 0 1 3544.5 1321)">Week Commencing</text>
		</g>
		<g>
			<text fill="#595959" font-family="Verdana,sans-serif" font-weight="400" font-size="46" transform="matrix(6.12323e-17 -1 1 6.12323e-17 3019.73 1030.75)">Number of Browser Profiles</text>
		</g>
		<rect x="2918.5" y="347.5" width="1760" height="1043" stroke="#D9D9D9" stroke-width="3.4375" stroke-linejoin="round" stroke-miterlimit="10" fill="none" />
		<g>
			<path d="M3228.5 1038 3249.4411764705883 1038 3270.3823529411766 1038 3291.323529411765 1038 3312.264705882353 1038 3333.205882352941 1038 3354.1470588235293 1038 3375.0882352941176 1038 3396.029411764706 1038 3416.970588235294 1038 3437.9117647058824 1038 3458.8529411764707 1038 3479.794117647059 1038 3500.735294117647 1038 3521.676470588235 1038 3542.6176470588234 1038 3563.5588235294117 1038 3584.5 1038 3605.4411764705883 1038 3626.3823529411766 1038 3647.323529411765 1038 3668.264705882353 1038 3689.205882352941 1038 3710.1470588235293 1038 3731.0882352941176 1038 3752.029411764706 1038 3772.970588235294 1038 3793.9117647058824 1038 3814.8529411764707 1038 3835.7941176470586 1038 3856.735294117647 1038 3877.676470588235 1038 3898.6176470588234 1038 3919.5588235294117 1038 3940.5 1038 3961.4411764705883 1038 3982.3823529411766 1038 4003.323529411765 1038 4024.264705882353 1038 4045.2058823529414 1038 4066.1470588235293 1038 4087.0882352941176 1038 4108.029411764706 1038 4128.970588235294 1038 4149.911764705882 1038 4170.85294117647 1038 4191.794117647059 1038 4212.735294117647 1038 4233.676470588235 1038 4254.617647058823 1038 4275.558823529412 1038 4296.5 1038 4296.5 534.5084002921841 4275.558823529412 536.0808818646656 4254.617647058823 536.760873896009 4233.676470588235 537.4408659273524 4212.735294117647 538.2483564645727 4191.794117647059 539.3958430174646 4170.85294117647 540.5858290723156 4149.911764705882 541.5208181154127 4128.970588235294 542.1158111428381 4108.029411764706 543.0932996878943 4087.0882352941176 544.5382827544989 4066.1470588235293 545.1757752838835 4045.2058823529414 545.8982668171857 4024.264705882353 546.4082608406933 4003.323529411765 547.1732518759545 3982.3823529411766 547.6832458994621 3961.4411764705883 547.9807424131748 3940.5 548.958230958231 3919.5588235294117 549.6807224915333 3898.6176470588234 551.2957035659738 3877.676470588235 552.3581911149479 3856.735294117647 552.9956836443323 3835.7941176470586 553.6331761737167 3814.8529411764707 554.5681652168139 3793.9117647058824 555.3331562520752 3772.970588235294 556.0556477853775 3752.029411764706 556.9481373265157 3731.0882352941176 558.3081213892025 3710.1470588235293 558.7331164087921 3689.205882352941 559.8381034597251 3668.264705882353 560.7730925028222 3647.323529411765 561.4105850322067 3626.3823529411766 562.3455740753038 3605.4411764705883 562.8980676007702 3584.5 563.4930606281957 3563.5588235294117 564.4280496712929 3542.6176470588234 565.2355402085132 3521.676470588235 566.0005312437745 3500.735294117647 566.5530247692409 3479.794117647059 566.9780197888306 3458.8529411764707 567.4030148084203 3437.9117647058824 568.4230028554352 3416.970588235294 569.1454943887377 3396.029411764706 569.8679859220399 3375.0882352941176 570.9729729729729 3354.1470588235293 572.035460521947 3333.205882352941 573.0129490670031 3312.264705882353 573.4804435885517 3291.323529411765 574.0329371140182 3270.3823529411766 574.7129291453616 3249.4411764705883 575.9879142041304 3228.5 577.1354007570224 3228.5 1038Z" fill="#e62d39" opacity="0.9" />
		</g>
		<g>
			<path d="M3228.5 577.1354007570224 3249.4411764705883 575.9879142041304 3270.3823529411766 574.7129291453616 3291.323529411765 574.0329371140182 3312.264705882353 573.4804435885517 3333.205882352941 573.0129490670031 3354.1470588235293 572.035460521947 3375.0882352941176 570.9729729729729 3396.029411764706 569.8679859220399 3416.970588235294 569.1454943887377 3437.9117647058824 568.4230028554352 3458.8529411764707 567.4030148084203 3479.794117647059 566.9780197888306 3500.735294117647 566.5530247692409 3521.676470588235 566.0005312437745 3542.6176470588234 565.2355402085132 3563.5588235294117 564.4280496712929 3584.5 563.4930606281957 3605.4411764705883 562.8980676007702 3626.3823529411766 562.3455740753038 3647.323529411765 561.4105850322067 3668.264705882353 560.7730925028222 3689.205882352941 559.8381034597251 3710.1470588235293 558.7331164087921 3731.0882352941176 558.3081213892025 3752.029411764706 556.9481373265157 3772.970588235294 556.0556477853775 3793.9117647058824 555.3331562520752 3814.8529411764707 554.5681652168139 3835.7941176470586 553.6331761737167 3856.735294117647 552.9956836443323 3877.676470588235 552.3581911149479 3898.6176470588234 551.2957035659738 3919.5588235294117 549.6807224915333 3940.5 548.958230958231 3961.4411764705883 547.9807424131748 3982.3823529411766 547.6832458994621 4003.323529411765 547.1732518759545 4024.264705882353 546.4082608406933 4045.2058823529414 545.8982668171857 4066.1470588235293 545.1757752838835 4087.0882352941176 544.5382827544989 4108.029411764706 543.0932996878943 4128.970588235294 542.1158111428381 4149.911764705882 541.5208181154127 4170.85294117647 540.5858290723156 4191.794117647059 539.3958430174646 4212.735294117647 538.2483564645727 4233.676470588235 537.4408659273524 4254.617647058823 536.760873896009 4275.558823529412 536.0808818646656 4296.5 534.5084002921841 4296.5 398 4275.558823529412 399.7849790822763 4254.617647058823 400.67746862341454 4233.676470588235 401.4424596586759 4212.735294117647 402.377448701773 4191.794117647059 403.8649312703366 4170.85294117647 405.18241583106453 4149.911764705882 406.2449033800385 4128.970588235294 407.09489341921767 4108.029411764706 408.3273789760276 4087.0882352941176 409.9423600504681 4066.1470588235293 410.74985058768846 4045.2058823529414 411.7273391327445 4024.264705882353 412.44983066604686 4003.323529411765 413.342320207185 3982.3823529411766 413.8948137326516 3961.4411764705883 414.19231024636423 3940.5 415.33979679925625 3919.5588235294117 416.27478584235337 3898.6176470588234 418.1872634305066 3877.676470588235 419.50474799123447 3856.735294117647 420.3547380304137 3835.7941176470586 421.75722159505943 3814.8529411764707 422.9047081479514 3793.9117647058824 423.8396971910486 3772.970588235294 424.7321867321867 3752.029411764706 425.7521747792018 3731.0882352941176 427.2396573477655 3710.1470588235293 427.8346503751909 3689.205882352941 429.2371339398366 3668.264705882353 430.3846204927286 3647.323529411765 431.1921110299489 3626.3823529411766 432.33959758284084 3605.4411764705883 432.97709011222514 3584.5 433.8695796533634 3563.5588235294117 434.8895677003785 3542.6176470588234 435.8670562454346 3521.676470588235 436.75954578657286 3500.735294117647 437.31203931203925 3479.794117647059 437.82203333554685 3458.8529411764707 438.54452486884924 3437.9117647058824 439.7345109237001 3416.970588235294 440.6270004648384 3396.029411764706 441.5619895079354 3375.0882352941176 442.9644730725811 3354.1470588235293 444.23945813135003 3333.205882352941 445.344445182283 3312.264705882353 445.98193771166746 3291.323529411765 446.6619297430108 3270.3823529411766 447.46942028023113 3249.4411764705883 448.95690284879475 3228.5 450.31688691148145 3228.5 577.1354007570224Z" fill="#005aa6" opacity="0.9" />
		</g>
		<g>
			<rect x="4372" y="431" width="22.9995" height="23" fill="#e62d39" />
		</g>
		<g>
			<text fill="#595959" font-family="Verdana,sans-serif" font-weight="400" font-size="41" transform="matrix(1 0 0 1 4404.56 454)">Web Browser</text>
		</g>
		<g>
			<rect x="4372" y="508" width="22.9995" height="23" fill="#005aa6" />
		</g>
		<g>
			<text fill="#595959" font-family="Verdana,sans-serif" font-weight="400" font-size="41" transform="matrix(1 0 0 1 4404.56 531)">App</text>
		</g>
	</g>
</svg>
