<svg width="1763" height="1046"
    xmlns="http://www.w3.org/2000/svg"
	xmlns:xlink="http://www.w3.org/1999/xlink" xml:space="preserve" overflow="hidden">
	<defs>
		<clipPath id="clip0">
			<rect x="2917" y="346" width="1763" height="1046"/>
		</clipPath>
	</defs>
	<g clip-path="url(#clip0)" transform="translate(-2917 -346)">
		<rect x="2918" y="347" width="1760" height="1043" fill="#FFFFFF" />
		<g>
			<path d="
			M3228.5 974.532 4296.5 974.532
			M3228.5 910.53 4296.5 910.53
			M3228.5 846.528 4296.5 846.528
			M3228.5 781.526 4296.5 781.526
			M3228.5 717.524 4296.5 717.524
			M3228.5 653.522 4296.5 653.522
			M3228.5 589.52 4296.5 589.52
			M3228.5 525.517 4296.5 525.517
			M3228.5 461.515 4296.5 461.515
			M3228.5 397.5 4296.5 397.5" stroke="#D9D9D9" stroke-width="3.4375" stroke-linejoin="round" stroke-miterlimit="10" fill="none" />
		</g>
		<g>
			<path d="M 1038.5 4296.5 1038.5" stroke="#D9D9D9" stroke-width="3.4375" stroke-linejoin="round" stroke-miterlimit="10" fill="none" fill-rule="evenodd" />
		</g>
		<g>
			<text fill="#595959" font-family="Verdana,sans-serif" font-weight="400" font-size="41" transform="matrix(6.12323e-17 -1 1 6.12323e-17 3244.5 1227)">06-Nov</text>
		</g>
		<g>
			<text fill="#595959" font-family="Verdana,sans-serif" font-weight="400" font-size="41" transform="matrix(6.12323e-17 -1 1 6.12323e-17 3341.590909090909 1226)">20-Nov</text>
		</g>
		<g>
			<text fill="#595959" font-family="Verdana,sans-serif" font-weight="400" font-size="41" transform="matrix(6.12323e-17 -1 1 6.12323e-17 3438.681818181818 1225)">04-Dec</text>
		</g>
		<g>
			<text fill="#595959" font-family="Verdana,sans-serif" font-weight="400" font-size="41" transform="matrix(6.12323e-17 -1 1 6.12323e-17 3535.772727272727 1222)">18-Dec</text>
		</g>
		<g>
			<text fill="#595959" font-family="Verdana,sans-serif" font-weight="400" font-size="41" transform="matrix(6.12323e-17 -1 1 6.12323e-17 3632.8636363636365 1212)">01-Jan</text>
		</g>
		<g>
			<text fill="#595959" font-family="Verdana,sans-serif" font-weight="400" font-size="41" transform="matrix(6.12323e-17 -1 1 6.12323e-17 3729.4545454545455 1209)">15-Jan</text>
		</g>
		<g>
			<text fill="#595959" font-family="Verdana,sans-serif" font-weight="400" font-size="41" transform="matrix(6.12323e-17 -1 1 6.12323e-17 3827.0454545454545 1211)">29-Jan</text>
		</g>
		<g>
			<text fill="#595959" font-family="Verdana,sans-serif" font-weight="400" font-size="41" transform="matrix(6.12323e-17 -1 1 6.12323e-17 3924.1363636363635 1216)">12-Feb</text>
		</g>
		<g>
			<text fill="#595959" font-family="Verdana,sans-serif" font-weight="400" font-size="41" transform="matrix(6.12323e-17 -1 1 6.12323e-17 4021.227272727273 1218)">26-Feb</text>
		</g>
		<g>
			<text fill="#595959" font-family="Verdana,sans-serif" font-weight="400" font-size="41" transform="matrix(6.12323e-17 -1 1 6.12323e-17 4117.818181818182 1222)">11-Mar</text>
		</g>
		<g>
			<text fill="#595959" font-family="Verdana,sans-serif" font-weight="400" font-size="41" transform="matrix(6.12323e-17 -1 1 6.12323e-17 4215.409090909091 1225)">25-Mar</text>
		</g>
		<g>
			<text fill="#595959" font-family="Verdana,sans-serif" font-weight="400" font-size="41" transform="matrix(6.12323e-17 -1 1 6.12323e-17 4316 1218)">08-Apr</text>
		</g>
		<g>
			<text fill="#595959" font-family="Verdana,sans-serif" font-weight="400" font-size="41" transform="matrix(1 0 0 1 3167.5 1050)">0</text>
		</g>
		<g>
			<text fill="#595959" font-family="Verdana,sans-serif" font-weight="400" font-size="41" transform="matrix(1 0 0 1 3073.5 922)">2,759</text>
		</g>
		<g>
			<text fill="#595959" font-family="Verdana,sans-serif" font-weight="400" font-size="41" transform="matrix(1 0 0 1 3073.5 794)">5,518</text>
		</g>
		<g>
			<text fill="#595959" font-family="Verdana,sans-serif" font-weight="400" font-size="41" transform="matrix(1 0 0 1 3072.5 666)">8,278</text>
		</g>
		<g>
			<text fill="#595959" font-family="Verdana,sans-serif" font-weight="400" font-size="41" transform="matrix(1 0 0 1 3049.5 538)">11,037</text>
		</g>
		<g>
			<text fill="#595959" font-family="Verdana,sans-serif" font-weight="400" font-size="41" transform="matrix(1 0 0 1 3048.5 410)">13,796</text>
		</g>
		<g>
			<text fill="#595959" font-family="Verdana,sans-serif" font-weight="400" font-size="41" transform="matrix(1 0 0 1 3541.5 1321)">Week Commencing</text>
		</g>
		<g>
			<text fill="#595959" font-family="Verdana,sans-serif" font-weight="400" font-size="46" transform="matrix(6.12323e-17 -1 1 6.12323e-17 3019.73 1035.25)">Number of Browser Profiles</text>
		</g>
		<rect x="2918.5" y="347.5" width="1760" height="1043" stroke="#D9D9D9" stroke-width="3.4375" stroke-linejoin="round" stroke-miterlimit="10" fill="none" />
		<g>
			<path d="M3228.5 1038 3277.0454545454545 1038 3325.590909090909 1038 3374.1363636363635 1038 3422.681818181818 1038 3471.227272727273 1038 3519.772727272727 1038 3568.318181818182 1038 3616.8636363636365 1038 3665.409090909091 1038 3713.9545454545455 1038 3762.5 1038 3811.0454545454545 1038 3859.590909090909 1038 3908.1363636363635 1038 3956.681818181818 1038 4005.227272727273 1038 4053.772727272727 1038 4102.318181818182 1038 4150.863636363636 1038 4199.409090909091 1038 4247.954545454546 1038 4296.5 1038 4296.5 536.1965787184691 4247.954545454546 537.7274572339809 4199.409090909091 538.8872136851262 4150.863636363636 539.9541896201797 4102.318181818182 541.0675558132792 4053.772727272727 542.5056538126994 4005.227272727273 544.8715569730357 3956.681818181818 545.3354595534938 3908.1363636363635 545.7065816178603 3859.590909090909 547.7013627138301 3811.0454545454545 549.7425340678458 3762.5 550.2992171643955 3713.9545454545455 551.13424180922 3665.409090909091 551.8300956799072 3616.8636363636365 552.1084372281821 3568.318181818182 552.1084372281821 3519.772727272727 552.8970716149609 3471.227272727273 553.360974195419 3422.681818181818 553.9176572919687 3374.1363636363635 554.8454624528849 3325.590909090909 555.6340968396637 3277.0454545454545 556.3299507103509 3228.5 556.8402435488547 3228.5 1038Z" fill="#e62d39" opacity="0.9" />
		</g>
		<g>
			<path d="M3228.5 556.8402435488547 3277.0454545454545 556.3299507103509 3325.590909090909 555.6340968396637 3374.1363636363635 554.8454624528849 3422.681818181818 553.9176572919687 3471.227272727273 553.360974195419 3519.772727272727 552.8970716149609 3568.318181818182 552.1084372281821 3616.8636363636365 552.1084372281821 3665.409090909091 551.8300956799072 3713.9545454545455 551.13424180922 3762.5 550.2992171643955 3811.0454545454545 549.7425340678458 3859.590909090909 547.7013627138301 3908.1363636363635 545.7065816178603 3956.681818181818 545.3354595534938 4005.227272727273 544.8715569730357 4053.772727272727 542.5056538126994 4102.318181818182 541.0675558132792 4150.863636363636 539.9541896201797 4199.409090909091 538.8872136851262 4247.954545454546 537.7274572339809 4296.5 536.1965787184691 4296.5 398 4247.954545454546 399.8092200637866 4199.409090909091 401.200927805161 4150.863636363636 402.9173673528559 4102.318181818182 404.5874166425051 4053.772727272727 406.07190489997106 4005.227272727273 408.7161496085822 3956.681818181818 409.22644244708613 3908.1363636363635 409.78312554363583 3859.590909090909 412.05624818788056 3811.0454545454545 414.2365903160337 3762.5 414.9324441867208 3713.9545454545455 415.9994201217744 3665.409090909091 416.83444476659906 3616.8636363636365 417.2055668309655 3568.318181818182 417.2055668309655 3519.772727272727 418.2261525079733 3471.227272727273 418.9220063786605 3422.681818181818 419.525079733256 3374.1363636363635 420.5456654102639 3325.590909090909 421.4734705711801 3277.0454545454545 422.4940562481879 3228.5 423.189910118875 3228.5 556.8402435488547Z" fill="#005aa6" opacity="0.9" />
		</g>
		<g>
			<rect x="4372" y="431" width="22.9995" height="23" fill="#e62d39" />
		</g>
		<g>
			<text fill="#595959" font-family="Verdana,sans-serif" font-weight="400" font-size="41" transform="matrix(1 0 0 1 4404.56 454)">Web Browser</text>
		</g>
		<g>
			<rect x="4372" y="508" width="22.9995" height="23" fill="#005aa6" />
		</g>
		<g>
			<text fill="#595959" font-family="Verdana,sans-serif" font-weight="400" font-size="41" transform="matrix(1 0 0 1 4404.56 531)">App</text>
		</g>
	</g>
</svg>
