<svg width="1763" height="1046"
    xmlns="http://www.w3.org/2000/svg"
	xmlns:xlink="http://www.w3.org/1999/xlink" xml:space="preserve" overflow="hidden">
	<defs>
		<clipPath id="clip0">
			<rect x="2917" y="346" width="1763" height="1046"/>
		</clipPath>
	</defs>
	<g clip-path="url(#clip0)" transform="translate(-2917 -346)">
		<rect x="2918" y="347" width="1760" height="1043" fill="#FFFFFF" />
		<g>
			<path d="
			M3228.5 974.532 4296.5 974.532
			M3228.5 910.53 4296.5 910.53
			M3228.5 846.528 4296.5 846.528
			M3228.5 781.526 4296.5 781.526
			M3228.5 717.524 4296.5 717.524
			M3228.5 653.522 4296.5 653.522
			M3228.5 589.52 4296.5 589.52
			M3228.5 525.517 4296.5 525.517
			M3228.5 461.515 4296.5 461.515
			M3228.5 397.5 4296.5 397.5" stroke="#D9D9D9" stroke-width="3.4375" stroke-linejoin="round" stroke-miterlimit="10" fill="none" />
		</g>
		<g>
			<path d="M 1038.5 4296.5 1038.5" stroke="#D9D9D9" stroke-width="3.4375" stroke-linejoin="round" stroke-miterlimit="10" fill="none" fill-rule="evenodd" />
		</g>
		<g>
			<text fill="#595959" font-family="Verdana,Open Sans,DejaVu Sans,sans-serif" font-weight="400" font-size="41" transform="matrix(6.12323e-17 -1 1 6.12323e-17 3243.564697265625 1201.1401290893555)">21-Oct</text>
		</g>
		<g>
			<text fill="#595959" font-family="Verdana,Open Sans,DejaVu Sans,sans-serif" font-weight="400" font-size="41" transform="matrix(6.12323e-17 -1 1 6.12323e-17 3330.728351203763 1209.70849609375)">18-Nov</text>
		</g>
		<g>
			<text fill="#595959" font-family="Verdana,Open Sans,DejaVu Sans,sans-serif" font-weight="400" font-size="41" transform="matrix(6.12323e-17 -1 1 6.12323e-17 3417.9120246731504 1207.1259765625)">23-Dec</text>
		</g>
		<g>
			<text fill="#595959" font-family="Verdana,Open Sans,DejaVu Sans,sans-serif" font-weight="400" font-size="41" transform="matrix(6.12323e-17 -1 1 6.12323e-17 3508.7692821269134 1191.6909103393555)">20-Jan</text>
		</g>
		<g>
			<text fill="#595959" font-family="Verdana,Open Sans,DejaVu Sans,sans-serif" font-weight="400" font-size="41" transform="matrix(6.12323e-17 -1 1 6.12323e-17 3593.010084502551 1201.3203125)">17-Feb</text>
		</g>
		<g>
			<text fill="#595959" font-family="Verdana,Open Sans,DejaVu Sans,sans-serif" font-weight="400" font-size="41" transform="matrix(6.12323e-17 -1 1 6.12323e-17 3679.252840003189 1210.2890625)">17-Mar</text>
		</g>
		<g>
			<text fill="#595959" font-family="Verdana,Open Sans,DejaVu Sans,sans-serif" font-weight="400" font-size="41" transform="matrix(6.12323e-17 -1 1 6.12323e-17 3771.2412009725767 1201.5405197143555)">14-Apr</text>
		</g>
		<g>
			<text fill="#595959" font-family="Verdana,Open Sans,DejaVu Sans,sans-serif" font-weight="400" font-size="41" transform="matrix(6.12323e-17 -1 1 6.12323e-17 3858.555001395089 1214.75341796875)">12-May</text>
		</g>
		<g>
			<text fill="#595959" font-family="Verdana,Open Sans,DejaVu Sans,sans-serif" font-weight="400" font-size="41" transform="matrix(6.12323e-17 -1 1 6.12323e-17 3944.667629942602 1192.2914962768555)">16-Jun</text>
		</g>
		<g>
			<text fill="#595959" font-family="Verdana,Open Sans,DejaVu Sans,sans-serif" font-weight="400" font-size="41" transform="matrix(6.12323e-17 -1 1 6.12323e-17 4032.5820163026146 1177.2768478393555)">14-Jul</text>
		</g>
		<g>
			<text fill="#595959" font-family="Verdana,Open Sans,DejaVu Sans,sans-serif" font-weight="400" font-size="41" transform="matrix(6.12323e-17 -1 1 6.12323e-17 4119.955875318878 1206.90576171875)">11-Aug</text>
		</g>
		<g>
			<text fill="#595959" font-family="Verdana,Open Sans,DejaVu Sans,sans-serif" font-weight="400" font-size="41" transform="matrix(6.12323e-17 -1 1 6.12323e-17 4207.3097148038905 1204.38330078125)">08-Sep</text>
		</g>
		<g>
			<text fill="#595959" font-family="Verdana,Open Sans,DejaVu Sans,sans-serif" font-weight="400" font-size="41" transform="matrix(6.12323e-17 -1 1 6.12323e-17 4289.7687788982785 1201.1000900268555)">06-Oct</text>
		</g>
		<g>
			<text fill="#595959" font-family="Verdana,Open Sans,DejaVu Sans,sans-serif" font-weight="400" font-size="41" transform="matrix(1 0 0 1 3169.14111328125 1050)">0</text>
		</g>
		<g>
			<text fill="#595959" font-family="Verdana,Open Sans,DejaVu Sans,sans-serif" font-weight="400" font-size="41" transform="matrix(1 0 0 1 3121.07421875 922)">420</text>
		</g>
		<g>
			<text fill="#595959" font-family="Verdana,Open Sans,DejaVu Sans,sans-serif" font-weight="400" font-size="41" transform="matrix(1 0 0 1 3122.29541015625 794)">840</text>
		</g>
		<g>
			<text fill="#595959" font-family="Verdana,Open Sans,DejaVu Sans,sans-serif" font-weight="400" font-size="41" transform="matrix(1 0 0 1 3097.5712890625 666)">1,261</text>
		</g>
		<g>
			<text fill="#595959" font-family="Verdana,Open Sans,DejaVu Sans,sans-serif" font-weight="400" font-size="41" transform="matrix(1 0 0 1 3097.5712890625 538)">1,681</text>
		</g>
		<g>
			<text fill="#595959" font-family="Verdana,Open Sans,DejaVu Sans,sans-serif" font-weight="400" font-size="41" transform="matrix(1 0 0 1 3095.8095703125 410)">2,101</text>
		</g>
		<g>
			<text fill="#595959" font-family="Verdana,Open Sans,DejaVu Sans,sans-serif" font-weight="400" font-size="41" transform="matrix(1 0 0 1 3556.97119140625 1321)">Week Commencing</text>
		</g>
		<g>
			<text fill="#595959" font-family="Verdana,Open Sans,DejaVu Sans,sans-serif" font-weight="400" font-size="46" transform="matrix(6.12323e-17 -1 1 6.12323e-17 3019.73 953.7919921875)">Number of OS Profiles</text>
		</g>
		<rect x="2918.5" y="347.5" width="1760" height="1043" stroke="#D9D9D9" stroke-width="3.4375" stroke-linejoin="round" stroke-miterlimit="10" fill="none" />
		<g>
			<path d="M3228.5 1038 3250.295918367347 1038 3272.091836734694 1038 3293.887755102041 1038 3315.683673469388 1038 3337.4795918367345 1038 3359.2755102040815 1038 3381.0714285714284 1038 3402.8673469387754 1038 3424.6632653061224 1038 3446.4591836734694 1038 3468.2551020408164 1038 3490.0510204081634 1038 3511.8469387755104 1038 3533.6428571428573 1038 3555.4387755102043 1038 3577.234693877551 1038 3599.030612244898 1038 3620.826530612245 1038 3642.622448979592 1038 3664.418367346939 1038 3686.214285714286 1038 3708.0102040816328 1038 3729.8061224489797 1038 3751.6020408163267 1038 3773.3979591836733 1038 3795.1938775510203 1038 3816.9897959183672 1038 3838.785714285714 1038 3860.581632653061 1038 3882.377551020408 1038 3904.173469387755 1038 3925.969387755102 1038 3947.765306122449 1038 3969.5612244897957 1038 3991.357142857143 1038 4013.1530612244896 1038 4034.9489795918366 1038 4056.7448979591836 1038 4078.5408163265306 1038 4100.336734693878 1038 4122.132653061224 1038 4143.928571428572 1038 4165.724489795918 1038 4187.5204081632655 1038 4209.316326530612 1038 4231.1122448979595 1038 4252.908163265306 1038 4274.7040816326535 1038 4296.5 1038 4296.5 702.6168491194669 4274.7040816326535 703.2260828177059 4252.908163265306 704.7491670633033 4231.1122448979595 705.6630176106617 4209.316326530612 705.967634459781 4187.5204081632655 705.967634459781 4165.724489795918 706.2722513089005 4143.928571428572 706.2722513089005 4122.132653061224 706.2722513089005 4100.336734693878 706.57686815802 4078.5408163265306 707.4907187053784 4056.7448979591836 707.4907187053784 4034.9489795918366 707.7953355544978 4013.1530612244896 708.0999524036174 3991.357142857143 708.7091861018563 3969.5612244897957 709.0138029509758 3947.765306122449 709.0138029509758 3925.969387755102 709.6230366492147 3904.173469387755 711.1461208948119 3882.377551020408 713.2784388386483 3860.581632653061 713.2784388386483 3838.785714285714 713.2784388386483 3816.9897959183672 713.5830556877677 3795.1938775510203 713.2784388386483 3773.3979591836733 713.5830556877677 3751.6020408163267 713.8876725368873 3729.8061224489797 713.8876725368873 3708.0102040816328 714.8015230842457 3686.214285714286 715.4107567824846 3664.418367346939 716.0199904807234 3642.622448979592 716.0199904807234 3620.826530612245 717.2384578772014 3599.030612244898 717.8476915754403 3577.234693877551 717.8476915754403 3555.4387755102043 718.4569252736792 3533.6428571428573 719.0661589719182 3511.8469387755104 719.6753926701571 3490.0510204081634 720.284626368396 3468.2551020408164 720.5892432175156 3446.4591836734694 720.5892432175156 3424.6632653061224 720.5892432175156 3402.8673469387754 720.5892432175156 3381.0714285714284 721.1984769157544 3359.2755102040815 721.1984769157544 3337.4795918367345 721.8077106139933 3315.683673469388 722.4169443122323 3293.887755102041 722.7215611613517 3272.091836734694 723.0261780104712 3250.295918367347 723.0261780104712 3228.5 723.3307948595907 3228.5 1038Z" fill="#f48c7d" opacity="0.9" />
		</g>
		<g>
			<path d="M3228.5 723.3307948595907 3250.295918367347 723.0261780104712 3272.091836734694 723.0261780104712 3293.887755102041 722.7215611613517 3315.683673469388 722.4169443122323 3337.4795918367345 721.8077106139933 3359.2755102040815 721.1984769157544 3381.0714285714284 721.1984769157544 3402.8673469387754 720.5892432175156 3424.6632653061224 720.5892432175156 3446.4591836734694 720.5892432175156 3468.2551020408164 720.5892432175156 3490.0510204081634 720.284626368396 3511.8469387755104 719.6753926701571 3533.6428571428573 719.0661589719182 3555.4387755102043 718.4569252736792 3577.234693877551 717.8476915754403 3599.030612244898 717.8476915754403 3620.826530612245 717.2384578772014 3642.622448979592 716.0199904807234 3664.418367346939 716.0199904807234 3686.214285714286 715.4107567824846 3708.0102040816328 714.8015230842457 3729.8061224489797 713.8876725368873 3751.6020408163267 713.8876725368873 3773.3979591836733 713.5830556877677 3795.1938775510203 713.2784388386483 3816.9897959183672 713.5830556877677 3838.785714285714 713.2784388386483 3860.581632653061 713.2784388386483 3882.377551020408 713.2784388386483 3904.173469387755 711.1461208948119 3925.969387755102 709.6230366492147 3947.765306122449 709.0138029509758 3969.5612244897957 709.0138029509758 3991.357142857143 708.7091861018563 4013.1530612244896 708.0999524036174 4034.9489795918366 707.7953355544978 4056.7448979591836 707.4907187053784 4078.5408163265306 707.4907187053784 4100.336734693878 706.57686815802 4122.132653061224 706.2722513089005 4143.928571428572 706.2722513089005 4165.724489795918 706.2722513089005 4187.5204081632655 705.967634459781 4209.316326530612 705.967634459781 4231.1122448979595 705.6630176106617 4252.908163265306 704.7491670633033 4274.7040816326535 703.2260828177059 4296.5 702.6168491194669 4296.5 551.2222751070918 4274.7040816326535 551.8315088053308 4252.908163265306 556.4007615421228 4231.1122448979595 557.6192289386007 4209.316326530612 557.9238457877201 4187.5204081632655 559.751546882437 4165.724489795918 560.3607805806759 4143.928571428572 560.3607805806759 4122.132653061224 561.2746311280343 4100.336734693878 561.8838648262732 4078.5408163265306 563.1023322227511 4056.7448979591836 563.1023322227511 4034.9489795918366 563.71156592099 4013.1530612244896 564.0161827701096 3991.357142857143 564.6254164683485 3969.5612244897957 564.930033317468 3947.765306122449 564.930033317468 3925.969387755102 566.1485007139457 3904.173469387755 568.5854355069014 3882.377551020408 571.0223702998572 3860.581632653061 571.6316039980961 3838.785714285714 570.7177534507377 3816.9897959183672 572.850071394574 3795.1938775510203 572.5454545454546 3773.3979591836733 572.850071394574 3751.6020408163267 573.7639219419325 3729.8061224489797 573.7639219419325 3708.0102040816328 576.5054735840076 3686.214285714286 577.419324131366 3664.418367346939 578.0285578296049 3642.622448979592 578.6377915278439 3620.826530612245 579.8562589243219 3599.030612244898 581.0747263207996 3577.234693877551 581.0747263207996 3555.4387755102043 582.5978105663969 3533.6428571428573 583.2070442646359 3511.8469387755104 583.8162779628749 3490.0510204081634 584.7301285102332 3468.2551020408164 585.0347453593528 3446.4591836734694 585.6439790575917 3424.6632653061224 585.6439790575917 3402.8673469387754 585.6439790575917 3381.0714285714284 586.8624464540695 3359.2755102040815 587.167063303189 3337.4795918367345 587.7762970014279 3315.683673469388 589.6039980961448 3293.887755102041 589.9086149452642 3272.091836734694 590.2132317943837 3250.295918367347 591.127082341742 3228.5 592.0409328891005 3228.5 723.3307948595907Z" fill="#005aa6" opacity="0.9" />
		</g>
		<g>
			<path d="M3228.5 592.0409328891005 3250.295918367347 591.127082341742 3272.091836734694 590.2132317943837 3293.887755102041 589.9086149452642 3315.683673469388 589.6039980961448 3337.4795918367345 587.7762970014279 3359.2755102040815 587.167063303189 3381.0714285714284 586.8624464540695 3402.8673469387754 585.6439790575917 3424.6632653061224 585.6439790575917 3446.4591836734694 585.6439790575917 3468.2551020408164 585.0347453593528 3490.0510204081634 584.7301285102332 3511.8469387755104 583.8162779628749 3533.6428571428573 583.2070442646359 3555.4387755102043 582.5978105663969 3577.234693877551 581.0747263207996 3599.030612244898 581.0747263207996 3620.826530612245 579.8562589243219 3642.622448979592 578.6377915278439 3664.418367346939 578.0285578296049 3686.214285714286 577.419324131366 3708.0102040816328 576.5054735840076 3729.8061224489797 573.7639219419325 3751.6020408163267 573.7639219419325 3773.3979591836733 572.850071394574 3795.1938775510203 572.5454545454546 3816.9897959183672 572.850071394574 3838.785714285714 570.7177534507377 3860.581632653061 571.6316039980961 3882.377551020408 571.0223702998572 3904.173469387755 568.5854355069014 3925.969387755102 566.1485007139457 3947.765306122449 564.930033317468 3969.5612244897957 564.930033317468 3991.357142857143 564.6254164683485 4013.1530612244896 564.0161827701096 4034.9489795918366 563.71156592099 4056.7448979591836 563.1023322227511 4078.5408163265306 563.1023322227511 4100.336734693878 561.8838648262732 4122.132653061224 561.2746311280343 4143.928571428572 560.3607805806759 4165.724489795918 560.3607805806759 4187.5204081632655 559.751546882437 4209.316326530612 557.9238457877201 4231.1122448979595 557.6192289386007 4252.908163265306 556.4007615421228 4274.7040816326535 551.8315088053308 4296.5 551.2222751070918 4296.5 493.9543074726321 4274.7040816326535 494.5635411708711 4252.908163265306 499.1327939076631 4231.1122448979595 500.35126130414096 4209.316326530612 500.65587815326035 4187.5204081632655 502.4835792479772 4165.724489795918 503.0928129462161 4143.928571428572 503.0928129462161 4122.132653061224 504.0066634935746 4100.336734693878 504.6158971918135 4078.5408163265306 505.83436458829135 4056.7448979591836 505.83436458829135 4034.9489795918366 506.44359828653023 4013.1530612244896 506.74821513564984 3991.357142857143 507.3574488338887 3969.5612244897957 507.6620656830082 3947.765306122449 507.6620656830082 3925.969387755102 508.880533079486 3904.173469387755 511.3174678724416 3882.377551020408 513.7544026653975 3860.581632653061 514.3636363636364 3838.785714285714 513.449785816278 3816.9897959183672 515.5821037601143 3795.1938775510203 515.2774869109949 3773.3979591836733 515.5821037601143 3751.6020408163267 516.4959543074727 3729.8061224489797 516.4959543074727 3708.0102040816328 519.2375059495479 3686.214285714286 520.1513564969063 3664.418367346939 520.7605901951451 3642.622448979592 521.3698238933841 3620.826530612245 522.5882912898621 3599.030612244898 523.8067586863399 3577.234693877551 523.8067586863399 3555.4387755102043 525.3298429319372 3533.6428571428573 525.9390766301761 3511.8469387755104 526.5483103284151 3490.0510204081634 527.4621608757734 3468.2551020408164 527.766777724893 3446.4591836734694 528.3760114231319 3424.6632653061224 528.3760114231319 3402.8673469387754 528.3760114231319 3381.0714285714284 529.5944788196098 3359.2755102040815 529.8990956687293 3337.4795918367345 530.5083293669682 3315.683673469388 532.6406473108045 3293.887755102041 532.9452641599239 3272.091836734694 533.2498810090433 3250.295918367347 534.1637315564017 3228.5 535.0775821037603 3228.5 592.0409328891005Z" fill="#e62d39" opacity="0.9" />
		</g>
		<g>
			<path d="M3228.5 535.0775821037603 3250.295918367347 534.1637315564017 3272.091836734694 533.2498810090433 3293.887755102041 532.9452641599239 3315.683673469388 532.6406473108045 3337.4795918367345 530.5083293669682 3359.2755102040815 529.8990956687293 3381.0714285714284 529.5944788196098 3402.8673469387754 528.3760114231319 3424.6632653061224 528.3760114231319 3446.4591836734694 528.3760114231319 3468.2551020408164 527.766777724893 3490.0510204081634 527.4621608757734 3511.8469387755104 526.5483103284151 3533.6428571428573 525.9390766301761 3555.4387755102043 525.3298429319372 3577.234693877551 523.8067586863399 3599.030612244898 523.8067586863399 3620.826530612245 522.5882912898621 3642.622448979592 521.3698238933841 3664.418367346939 520.7605901951451 3686.214285714286 520.1513564969063 3708.0102040816328 519.2375059495479 3729.8061224489797 516.4959543074727 3751.6020408163267 516.4959543074727 3773.3979591836733 515.5821037601143 3795.1938775510203 515.2774869109949 3816.9897959183672 515.5821037601143 3838.785714285714 513.449785816278 3860.581632653061 514.3636363636364 3882.377551020408 513.7544026653975 3904.173469387755 511.3174678724416 3925.969387755102 508.880533079486 3947.765306122449 507.6620656830082 3969.5612244897957 507.6620656830082 3991.357142857143 507.3574488338887 4013.1530612244896 506.74821513564984 4034.9489795918366 506.44359828653023 4056.7448979591836 505.83436458829135 4078.5408163265306 505.83436458829135 4100.336734693878 504.6158971918135 4122.132653061224 504.0066634935746 4143.928571428572 503.0928129462161 4165.724489795918 503.0928129462161 4187.5204081632655 502.4835792479772 4209.316326530612 500.65587815326035 4231.1122448979595 500.35126130414096 4252.908163265306 499.1327939076631 4274.7040816326535 494.5635411708711 4296.5 493.9543074726321 4296.5 437.6001903855307 4274.7040816326535 438.51404093288915 4252.908163265306 443.9971442170396 4231.1122448979595 445.5202284626369 4209.316326530612 445.8248453117563 4187.5204081632655 447.65254640647316 4165.724489795918 448.26178010471205 4143.928571428572 448.26178010471205 4122.132653061224 450.089481199429 4100.336734693878 451.0033317467873 4078.5408163265306 452.5264159923846 4056.7448979591836 453.13564969062355 4034.9489795918366 453.74488338886243 4013.1530612244896 454.04950023798204 3991.357142857143 454.6587339362209 3969.5612244897957 454.9633507853404 3947.765306122449 454.9633507853404 3925.969387755102 456.4864350309377 3904.173469387755 459.22798667301277 3882.377551020408 461.66492146596863 3860.581632653061 462.88338886244645 3838.785714285714 461.9695383150881 3816.9897959183672 464.10185625892433 3795.1938775510203 463.79723940980494 3773.3979591836733 464.10185625892433 3751.6020408163267 465.3203236554023 3729.8061224489797 465.3203236554023 3708.0102040816328 468.97572584483584 3686.214285714286 469.8895763921942 3664.418367346939 470.4988100904331 3642.622448979592 471.4126606377916 3620.826530612245 472.6311280342696 3599.030612244898 474.1542122798668 3577.234693877551 474.7634459781057 3555.4387755102043 476.5911470728224 3533.6428571428573 477.80961446930036 3511.8469387755104 478.41884816753935 3490.0510204081634 479.3326987148976 3468.2551020408164 479.63731556401723 3446.4591836734694 480.2465492622561 3424.6632653061224 480.2465492622561 3402.8673469387754 480.2465492622561 3381.0714285714284 482.3788672060924 3359.2755102040815 482.6834840552119 3337.4795918367345 483.2927177534508 3315.683673469388 485.7296525464066 3293.887755102041 485.72965254640656 3272.091836734694 486.03426939552594 3250.295918367347 487.25273679200376 3228.5 488.47120418848186 3228.5 535.0775821037603Z" fill="#f6a118" opacity="0.9" />
		</g>
		<g>
			<path d="M3228.5 488.47120418848186 3250.295918367347 487.25273679200376 3272.091836734694 486.03426939552594 3293.887755102041 485.72965254640656 3315.683673469388 485.7296525464066 3337.4795918367345 483.2927177534508 3359.2755102040815 482.6834840552119 3381.0714285714284 482.3788672060924 3402.8673469387754 480.2465492622561 3424.6632653061224 480.2465492622561 3446.4591836734694 480.2465492622561 3468.2551020408164 479.63731556401723 3490.0510204081634 479.3326987148976 3511.8469387755104 478.41884816753935 3533.6428571428573 477.80961446930036 3555.4387755102043 476.5911470728224 3577.234693877551 474.7634459781057 3599.030612244898 474.1542122798668 3620.826530612245 472.6311280342696 3642.622448979592 471.4126606377916 3664.418367346939 470.4988100904331 3686.214285714286 469.8895763921942 3708.0102040816328 468.97572584483584 3729.8061224489797 465.3203236554023 3751.6020408163267 465.3203236554023 3773.3979591836733 464.10185625892433 3795.1938775510203 463.79723940980494 3816.9897959183672 464.10185625892433 3838.785714285714 461.9695383150881 3860.581632653061 462.88338886244645 3882.377551020408 461.66492146596863 3904.173469387755 459.22798667301277 3925.969387755102 456.4864350309377 3947.765306122449 454.9633507853404 3969.5612244897957 454.9633507853404 3991.357142857143 454.6587339362209 4013.1530612244896 454.04950023798204 4034.9489795918366 453.74488338886243 4056.7448979591836 453.13564969062355 4078.5408163265306 452.5264159923846 4100.336734693878 451.0033317467873 4122.132653061224 450.089481199429 4143.928571428572 448.26178010471205 4165.724489795918 448.26178010471205 4187.5204081632655 447.65254640647316 4209.316326530612 445.8248453117563 4231.1122448979595 445.5202284626369 4252.908163265306 443.9971442170396 4274.7040816326535 438.51404093288915 4296.5 437.6001903855307 4296.5 411.0985245121371 4274.7040816326535 412.0123750594955 4252.908163265306 417.49547834364597 4231.1122448979595 419.0185625892433 4209.316326530612 419.3231794383627 4187.5204081632655 421.15088053307954 4165.724489795918 421.7601142313184 4143.928571428572 421.7601142313184 4122.132653061224 423.58781532603535 4100.336734693878 424.5016658733937 4078.5408163265306 426.024750118991 4056.7448979591836 426.63398381722993 4034.9489795918366 427.2432175154688 4013.1530612244896 427.5478343645884 3991.357142857143 428.1570680628273 3969.5612244897957 428.4616849119468 3947.765306122449 428.4616849119468 3925.969387755102 429.98476915754406 3904.173469387755 432.72632079961915 3882.377551020408 435.163255592575 3860.581632653061 436.38172298905283 3838.785714285714 435.46787244169445 3816.9897959183672 437.90480723465015 3795.1938775510203 437.90480723465026 3773.3979591836733 438.20942408376965 3751.6020408163267 439.42789148024764 3729.8061224489797 439.42789148024764 3708.0102040816328 443.08329366968115 3686.214285714286 443.99714421703953 3664.418367346939 444.6063779152784 3642.622448979592 445.5202284626369 3620.826530612245 447.04331270823434 3599.030612244898 448.56639695383154 3577.234693877551 449.1756306520705 3555.4387755102043 451.0033317467872 3533.6428571428573 452.2217991432651 3511.8469387755104 452.8310328415041 3490.0510204081634 453.7448833888624 3468.2551020408164 454.049500237982 3446.4591836734694 454.65873393622087 3424.6632653061224 454.65873393622087 3402.8673469387754 454.65873393622087 3381.0714285714284 456.7910518800572 3359.2755102040815 457.0956687291767 3337.4795918367345 457.70490242741556 3315.683673469388 460.1418372203714 3293.887755102041 460.1418372203713 3272.091836734694 460.4464540694907 3250.295918367347 461.6649214659685 3228.5 462.8833888624466 3228.5 488.47120418848186Z" fill="#fdd5a4" opacity="0.9" />
		</g>
		<g>
			<path d="M3228.5 462.8833888624466 3250.295918367347 461.6649214659685 3272.091836734694 460.4464540694907 3293.887755102041 460.1418372203713 3315.683673469388 460.1418372203714 3337.4795918367345 457.70490242741556 3359.2755102040815 457.0956687291767 3381.0714285714284 456.7910518800572 3402.8673469387754 454.65873393622087 3424.6632653061224 454.65873393622087 3446.4591836734694 454.65873393622087 3468.2551020408164 454.049500237982 3490.0510204081634 453.7448833888624 3511.8469387755104 452.8310328415041 3533.6428571428573 452.2217991432651 3555.4387755102043 451.0033317467872 3577.234693877551 449.1756306520705 3599.030612244898 448.56639695383154 3620.826530612245 447.04331270823434 3642.622448979592 445.5202284626369 3664.418367346939 444.6063779152784 3686.214285714286 443.99714421703953 3708.0102040816328 443.08329366968115 3729.8061224489797 439.42789148024764 3751.6020408163267 439.42789148024764 3773.3979591836733 438.20942408376965 3795.1938775510203 437.90480723465026 3816.9897959183672 437.90480723465015 3838.785714285714 435.46787244169445 3860.581632653061 436.38172298905283 3882.377551020408 435.163255592575 3904.173469387755 432.72632079961915 3925.969387755102 429.98476915754406 3947.765306122449 428.4616849119468 3969.5612244897957 428.4616849119468 3991.357142857143 428.1570680628273 4013.1530612244896 427.5478343645884 4034.9489795918366 427.2432175154688 4056.7448979591836 426.63398381722993 4078.5408163265306 426.024750118991 4100.336734693878 424.5016658733937 4122.132653061224 423.58781532603535 4143.928571428572 421.7601142313184 4165.724489795918 421.7601142313184 4187.5204081632655 421.15088053307954 4209.316326530612 419.3231794383627 4231.1122448979595 419.0185625892433 4252.908163265306 417.49547834364597 4274.7040816326535 412.0123750594955 4296.5 411.0985245121371 4296.5 398 4274.7040816326535 398.91385054735844 4252.908163265306 404.3969538315089 4231.1122448979595 405.9200380771062 4209.316326530612 406.2246549262256 4187.5204081632655 408.05235602094245 4165.724489795918 408.66158971918134 4143.928571428572 408.66158971918134 4122.132653061224 410.48929081389826 4100.336734693878 411.4031413612566 4078.5408163265306 412.9262256068539 4056.7448979591836 413.53545930509284 4034.9489795918366 414.1446930033317 4013.1530612244896 414.44930985245134 3991.357142857143 415.0585435506902 3969.5612244897957 415.3631603998097 3947.765306122449 415.3631603998097 3925.969387755102 416.886244645407 3904.173469387755 419.62779628748206 3882.377551020408 422.0647310804379 3860.581632653061 423.28319847691574 3838.785714285714 422.36934792955736 3816.9897959183672 424.80628272251306 3795.1938775510203 424.8062827225132 3773.3979591836733 425.11089957163256 3751.6020408163267 426.32936696811055 3729.8061224489797 426.32936696811055 3708.0102040816328 429.98476915754406 3686.214285714286 430.89861970490244 3664.418367346939 431.5078534031413 3642.622448979592 432.4217039504998 3620.826530612245 433.94478819609725 3599.030612244898 435.46787244169445 3577.234693877551 436.0771061399334 3555.4387755102043 437.9048072346501 3533.6428571428573 439.123274631128 3511.8469387755104 439.732508329367 3490.0510204081634 440.6463588767253 3468.2551020408164 440.9509757258449 3446.4591836734694 441.5602094240838 3424.6632653061224 441.5602094240838 3402.8673469387754 441.5602094240838 3381.0714285714284 443.6925273679201 3359.2755102040815 443.9971442170396 3337.4795918367345 444.6063779152785 3315.683673469388 447.0433127082343 3293.887755102041 447.0433127082342 3272.091836734694 447.3479295573536 3250.295918367347 446.7386958591146 3228.5 447.9571632555927 3228.5 462.8833888624466Z" fill="#55c0e9" opacity="0.9" />
		</g>
		<g>
			<rect x="4372" y="431" width="22.9995" height="23" fill="#f48c7d" />
		</g>
		<g>
			<text fill="#595959" font-family="Verdana,Open Sans,DejaVu Sans,sans-serif" font-weight="400" font-size="41" transform="matrix(1 0 0 1 4404.56 454)">Other</text>
		</g>
		<g>
			<rect x="4372" y="508" width="22.9995" height="23" fill="#005aa6" />
		</g>
		<g>
			<text fill="#595959" font-family="Verdana,Open Sans,DejaVu Sans,sans-serif" font-weight="400" font-size="41" transform="matrix(1 0 0 1 4404.56 531)">iOS</text>
		</g>
		<g>
			<rect x="4372" y="585" width="22.9995" height="23" fill="#e62d39" />
		</g>
		<g>
			<text fill="#595959" font-family="Verdana,Open Sans,DejaVu Sans,sans-serif" font-weight="400" font-size="41" transform="matrix(1 0 0 1 4404.56 608)">Android</text>
		</g>
		<g>
			<rect x="4372" y="662" width="22.9995" height="23" fill="#f6a118" />
		</g>
		<g>
			<text fill="#595959" font-family="Verdana,Open Sans,DejaVu Sans,sans-serif" font-weight="400" font-size="41" transform="matrix(1 0 0 1 4404.56 685)">macOS</text>
		</g>
		<g>
			<rect x="4372" y="739" width="22.9995" height="23" fill="#fdd5a4" />
		</g>
		<g>
			<text fill="#595959" font-family="Verdana,Open Sans,DejaVu Sans,sans-serif" font-weight="400" font-size="41" transform="matrix(1 0 0 1 4404.56 762)">Linux</text>
		</g>
		<g>
			<rect x="4372" y="816" width="22.9995" height="23" fill="#55c0e9" />
		</g>
		<g>
			<text fill="#595959" font-family="Verdana,Open Sans,DejaVu Sans,sans-serif" font-weight="400" font-size="41" transform="matrix(1 0 0 1 4404.56 839)">Windows</text>
		</g>
	</g>
</svg>
