<svg width="1763" height="1046"
    xmlns="http://www.w3.org/2000/svg"
	xmlns:xlink="http://www.w3.org/1999/xlink" xml:space="preserve" overflow="hidden">
	<defs>
		<clipPath id="clip0">
			<rect x="2917" y="346" width="1763" height="1046"/>
		</clipPath>
	</defs>
	<g clip-path="url(#clip0)" transform="translate(-2917 -346)">
		<rect x="2918" y="347" width="1760" height="1043" fill="#FFFFFF" />
		<g>
			<path d="
			M3228.5 974.532 4296.5 974.532
			M3228.5 910.53 4296.5 910.53
			M3228.5 846.528 4296.5 846.528
			M3228.5 781.526 4296.5 781.526
			M3228.5 717.524 4296.5 717.524
			M3228.5 653.522 4296.5 653.522
			M3228.5 589.52 4296.5 589.52
			M3228.5 525.517 4296.5 525.517
			M3228.5 461.515 4296.5 461.515
			M3228.5 397.5 4296.5 397.5" stroke="#D9D9D9" stroke-width="3.4375" stroke-linejoin="round" stroke-miterlimit="10" fill="none" />
		</g>
		<g>
			<path d="M 1038.5 4296.5 1038.5" stroke="#D9D9D9" stroke-width="3.4375" stroke-linejoin="round" stroke-miterlimit="10" fill="none" fill-rule="evenodd" />
		</g>
		<g>
			<text fill="#595959" font-family="Verdana,sans-serif" font-weight="400" font-size="41" transform="matrix(6.12323e-17 -1 1 6.12323e-17 3244.5 1225)">06-Nov</text>
		</g>
		<g>
			<text fill="#595959" font-family="Verdana,sans-serif" font-weight="400" font-size="41" transform="matrix(6.12323e-17 -1 1 6.12323e-17 3313.4032258064517 1224)">20-Nov</text>
		</g>
		<g>
			<text fill="#595959" font-family="Verdana,sans-serif" font-weight="400" font-size="41" transform="matrix(6.12323e-17 -1 1 6.12323e-17 3382.3064516129034 1223)">04-Dec</text>
		</g>
		<g>
			<text fill="#595959" font-family="Verdana,sans-serif" font-weight="400" font-size="41" transform="matrix(6.12323e-17 -1 1 6.12323e-17 3451.2096774193546 1220)">18-Dec</text>
		</g>
		<g>
			<text fill="#595959" font-family="Verdana,sans-serif" font-weight="400" font-size="41" transform="matrix(6.12323e-17 -1 1 6.12323e-17 3520.1129032258063 1210)">01-Jan</text>
		</g>
		<g>
			<text fill="#595959" font-family="Verdana,sans-serif" font-weight="400" font-size="41" transform="matrix(6.12323e-17 -1 1 6.12323e-17 3588.516129032258 1207)">15-Jan</text>
		</g>
		<g>
			<text fill="#595959" font-family="Verdana,sans-serif" font-weight="400" font-size="41" transform="matrix(6.12323e-17 -1 1 6.12323e-17 3657.9193548387098 1210)">29-Jan</text>
		</g>
		<g>
			<text fill="#595959" font-family="Verdana,sans-serif" font-weight="400" font-size="41" transform="matrix(6.12323e-17 -1 1 6.12323e-17 3726.8225806451615 1214)">12-Feb</text>
		</g>
		<g>
			<text fill="#595959" font-family="Verdana,sans-serif" font-weight="400" font-size="41" transform="matrix(6.12323e-17 -1 1 6.12323e-17 3795.7258064516127 1216)">26-Feb</text>
		</g>
		<g>
			<text fill="#595959" font-family="Verdana,sans-serif" font-weight="400" font-size="41" transform="matrix(6.12323e-17 -1 1 6.12323e-17 3864.1290322580644 1221)">11-Mar</text>
		</g>
		<g>
			<text fill="#595959" font-family="Verdana,sans-serif" font-weight="400" font-size="41" transform="matrix(6.12323e-17 -1 1 6.12323e-17 3933.532258064516 1223)">25-Mar</text>
		</g>
		<g>
			<text fill="#595959" font-family="Verdana,sans-serif" font-weight="400" font-size="41" transform="matrix(6.12323e-17 -1 1 6.12323e-17 4005.935483870968 1217)">08-Apr</text>
		</g>
		<g>
			<text fill="#595959" font-family="Verdana,sans-serif" font-weight="400" font-size="41" transform="matrix(6.12323e-17 -1 1 6.12323e-17 4074.8387096774195 1216)">22-Apr</text>
		</g>
		<g>
			<text fill="#595959" font-family="Verdana,sans-serif" font-weight="400" font-size="41" transform="matrix(6.12323e-17 -1 1 6.12323e-17 4143.741935483871 1228)">06-May</text>
		</g>
		<g>
			<text fill="#595959" font-family="Verdana,sans-serif" font-weight="400" font-size="41" transform="matrix(6.12323e-17 -1 1 6.12323e-17 4212.645161290323 1228)">20-May</text>
		</g>
		<g>
			<text fill="#595959" font-family="Verdana,sans-serif" font-weight="400" font-size="41" transform="matrix(6.12323e-17 -1 1 6.12323e-17 4278.048387096775 1211)">03-Jun</text>
		</g>
		<g>
			<text fill="#595959" font-family="Verdana,sans-serif" font-weight="400" font-size="41" transform="matrix(1 0 0 1 3167.5 1050)">0</text>
		</g>
		<g>
			<text fill="#595959" font-family="Verdana,sans-serif" font-weight="400" font-size="41" transform="matrix(1 0 0 1 3116.5 922)">375</text>
		</g>
		<g>
			<text fill="#595959" font-family="Verdana,sans-serif" font-weight="400" font-size="41" transform="matrix(1 0 0 1 3115.5 794)">749</text>
		</g>
		<g>
			<text fill="#595959" font-family="Verdana,sans-serif" font-weight="400" font-size="41" transform="matrix(1 0 0 1 3076.5 666)">1,124</text>
		</g>
		<g>
			<text fill="#595959" font-family="Verdana,sans-serif" font-weight="400" font-size="41" transform="matrix(1 0 0 1 3076.5 538)">1,498</text>
		</g>
		<g>
			<text fill="#595959" font-family="Verdana,sans-serif" font-weight="400" font-size="41" transform="matrix(1 0 0 1 3077.5 410)">1,873</text>
		</g>
		<g>
			<text fill="#595959" font-family="Verdana,sans-serif" font-weight="400" font-size="41" transform="matrix(1 0 0 1 3544.5 1321)">Week Commencing</text>
		</g>
		<g>
			<text fill="#595959" font-family="Verdana,sans-serif" font-weight="400" font-size="46" transform="matrix(6.12323e-17 -1 1 6.12323e-17 3019.73 970.75)">Number of OS Profiles</text>
		</g>
		<rect x="2918.5" y="347.5" width="1760" height="1043" stroke="#D9D9D9" stroke-width="3.4375" stroke-linejoin="round" stroke-miterlimit="10" fill="none" />
		<g>
			<path d="M3228.5 1038 3262.951612903226 1038 3297.4032258064517 1038 3331.8548387096776 1038 3366.3064516129034 1038 3400.758064516129 1038 3435.2096774193546 1038 3469.6612903225805 1038 3504.1129032258063 1038 3538.564516129032 1038 3573.016129032258 1038 3607.467741935484 1038 3641.9193548387098 1038 3676.3709677419356 1038 3710.8225806451615 1038 3745.2741935483873 1038 3779.7258064516127 1038 3814.177419354839 1038 3848.6290322580644 1038 3883.0806451612902 1038 3917.532258064516 1038 3951.983870967742 1038 3986.435483870968 1038 4020.8870967741937 1038 4055.3387096774195 1038 4089.7903225806454 1038 4124.241935483871 1038 4158.693548387097 1038 4193.145161290323 1038 4227.596774193548 1038 4262.048387096775 1038 4296.5 1038 4296.5 696.9855846235985 4262.048387096775 697.6689802455953 4227.596774193548 699.0357714895889 4193.145161290323 699.7191671115856 4158.693548387097 700.0608649225841 4124.241935483871 700.4025627335825 4089.7903225806454 700.4025627335825 4055.3387096774195 700.7442605445808 4020.8870967741937 701.0859583555794 3986.435483870968 701.0859583555794 3951.983870967742 702.1110517885745 3917.532258064516 703.1361452215697 3883.0806451612902 704.5029364655633 3848.6290322580644 705.5280298985584 3814.177419354839 705.5280298985584 3779.7258064516127 706.894821142552 3745.2741935483873 706.894821142552 3710.8225806451615 706.894821142552 3676.3709677419356 707.9199145755472 3641.9193548387098 708.2616123865457 3607.467741935484 708.603310197544 3573.016129032258 709.6284036305392 3538.564516129032 709.9701014415376 3504.1129032258063 710.311799252536 3469.6612903225805 710.311799252536 3435.2096774193546 710.311799252536 3400.758064516129 710.311799252536 3366.3064516129034 712.3619861185264 3331.8548387096776 712.7036839295248 3297.4032258064517 713.3870795515215 3262.951612903226 713.3870795515215 3228.5 714.0704751735184 3228.5 1038Z" fill="#fdd5a4" opacity="0.9" />
		</g>
		<g>
			<path d="M3228.5 714.0704751735184 3262.951612903226 713.3870795515215 3297.4032258064517 713.3870795515215 3331.8548387096776 712.7036839295248 3366.3064516129034 712.3619861185264 3400.758064516129 710.311799252536 3435.2096774193546 710.311799252536 3469.6612903225805 710.311799252536 3504.1129032258063 710.311799252536 3538.564516129032 709.9701014415376 3573.016129032258 709.6284036305392 3607.467741935484 708.603310197544 3641.9193548387098 708.2616123865457 3676.3709677419356 707.9199145755472 3710.8225806451615 706.894821142552 3745.2741935483873 706.894821142552 3779.7258064516127 706.894821142552 3814.177419354839 705.5280298985584 3848.6290322580644 705.5280298985584 3883.0806451612902 704.5029364655633 3917.532258064516 703.1361452215697 3951.983870967742 702.1110517885745 3986.435483870968 701.0859583555794 4020.8870967741937 701.0859583555794 4055.3387096774195 700.7442605445808 4089.7903225806454 700.4025627335825 4124.241935483871 700.4025627335825 4158.693548387097 700.0608649225841 4193.145161290323 699.7191671115856 4227.596774193548 699.0357714895889 4262.048387096775 697.6689802455953 4296.5 696.9855846235985 4296.5 555.8643886812599 4262.048387096775 556.5477843032568 4227.596774193548 557.9145755472505 4193.145161290323 559.281366791244 4158.693548387097 560.3064602242391 4124.241935483871 560.6481580352377 4089.7903225806454 560.6481580352377 4055.3387096774195 561.3315536572343 4020.8870967741937 562.0149492792312 3986.435483870968 562.0149492792312 3951.983870967742 563.3817405232248 3917.532258064516 565.7736252002136 3883.0806451612902 567.1404164442072 3848.6290322580644 568.1655098772023 3814.177419354839 569.5323011211959 3779.7258064516127 570.8990923651895 3745.2741935483873 570.8990923651895 3710.8225806451615 571.2407901761878 3676.3709677419356 572.9492792311798 3641.9193548387098 573.6326748531768 3607.467741935484 574.6577682861719 3573.016129032258 576.3662573411639 3538.564516129032 576.7079551521623 3504.1129032258063 577.0496529631607 3469.6612903225805 577.0496529631607 3435.2096774193546 578.7581420181527 3400.758064516129 579.4415376401495 3366.3064516129034 581.8334223171382 3331.8548387096776 583.2002135611318 3297.4032258064517 583.8836091831286 3262.951612903226 584.225306994127 3228.5 585.5920982381206 3228.5 714.0704751735184Z" fill="#e62d39" opacity="0.9" />
		</g>
		<g>
			<path d="M3228.5 585.5920982381206 3262.951612903226 584.225306994127 3297.4032258064517 583.8836091831286 3331.8548387096776 583.2002135611318 3366.3064516129034 581.8334223171382 3400.758064516129 579.4415376401495 3435.2096774193546 578.7581420181527 3469.6612903225805 577.0496529631607 3504.1129032258063 577.0496529631607 3538.564516129032 576.7079551521623 3573.016129032258 576.3662573411639 3607.467741935484 574.6577682861719 3641.9193548387098 573.6326748531768 3676.3709677419356 572.9492792311798 3710.8225806451615 571.2407901761878 3745.2741935483873 570.8990923651895 3779.7258064516127 570.8990923651895 3814.177419354839 569.5323011211959 3848.6290322580644 568.1655098772023 3883.0806451612902 567.1404164442072 3917.532258064516 565.7736252002136 3951.983870967742 563.3817405232248 3986.435483870968 562.0149492792312 4020.8870967741937 562.0149492792312 4055.3387096774195 561.3315536572343 4089.7903225806454 560.6481580352377 4124.241935483871 560.6481580352377 4158.693548387097 560.3064602242391 4193.145161290323 559.281366791244 4227.596774193548 557.9145755472505 4262.048387096775 556.5477843032568 4296.5 555.8643886812599 4296.5 491.96689802455944 4262.048387096775 492.6502936465563 4227.596774193548 494.7004805125468 4193.145161290323 496.06727175654026 4158.693548387097 497.0923651895354 4124.241935483871 497.7757608115324 4089.7903225806454 497.7757608115324 4055.3387096774195 498.459156433529 4020.8870967741937 499.142552055526 3986.435483870968 499.142552055526 3951.983870967742 500.50934329951957 3917.532258064516 502.9012279765083 3883.0806451612902 504.2680192205019 3848.6290322580644 505.2931126534971 3814.177419354839 506.65990389749066 3779.7258064516127 508.02669514148425 3745.2741935483873 508.02669514148425 3710.8225806451615 508.36839295248257 3676.3709677419356 510.0768820074746 3641.9193548387098 510.76027762947155 3607.467741935484 511.7853710624666 3573.016129032258 513.4938601174586 3538.564516129032 513.835557928457 3504.1129032258063 514.1772557394554 3469.6612903225805 514.1772557394554 3435.2096774193546 515.8857447944474 3400.758064516129 516.5691404164442 3366.3064516129034 518.9610250934329 3331.8548387096776 520.3278163374265 3297.4032258064517 521.0112119594232 3262.951612903226 521.3529097704217 3228.5 522.7197010144153 3228.5 585.5920982381206Z" fill="#005aa6" opacity="0.9" />
		</g>
		<g>
			<path d="M3228.5 522.7197010144153 3262.951612903226 521.3529097704217 3297.4032258064517 521.0112119594232 3331.8548387096776 520.3278163374265 3366.3064516129034 518.9610250934329 3400.758064516129 516.5691404164442 3435.2096774193546 515.8857447944474 3469.6612903225805 514.1772557394554 3504.1129032258063 514.1772557394554 3538.564516129032 513.835557928457 3573.016129032258 513.4938601174586 3607.467741935484 511.7853710624666 3641.9193548387098 510.76027762947155 3676.3709677419356 510.0768820074746 3710.8225806451615 508.36839295248257 3745.2741935483873 508.02669514148425 3779.7258064516127 508.02669514148425 3814.177419354839 506.65990389749066 3848.6290322580644 505.2931126534971 3883.0806451612902 504.2680192205019 3917.532258064516 502.9012279765083 3951.983870967742 500.50934329951957 3986.435483870968 499.142552055526 4020.8870967741937 499.142552055526 4055.3387096774195 498.459156433529 4089.7903225806454 497.7757608115324 4124.241935483871 497.7757608115324 4158.693548387097 497.0923651895354 4193.145161290323 496.06727175654026 4227.596774193548 494.7004805125468 4262.048387096775 492.6502936465563 4296.5 491.96689802455944 4296.5 442.4207154297917 4262.048387096775 443.10411105178855 4227.596774193548 445.15429791777905 4193.145161290323 446.5210891617725 4158.693548387097 448.2295782167645 4124.241935483871 448.91297383876145 4089.7903225806454 448.91297383876145 4055.3387096774195 449.59636946075807 4020.8870967741937 450.27976508275503 3986.435483870968 450.27976508275503 3951.983870967742 451.988254137747 3917.532258064516 455.06353443673254 3883.0806451612902 456.4303256807261 3848.6290322580644 457.4554191137213 3814.177419354839 458.8222103577149 3779.7258064516127 460.5306994127069 3745.2741935483873 460.8723972237053 3710.8225806451615 461.89749065670037 3676.3709677419356 463.9476775226908 3641.9193548387098 464.6310731446878 3607.467741935484 465.6561665776828 3573.016129032258 467.70635344367315 3538.564516129032 468.0480512546716 3504.1129032258063 468.38974906567 3469.6612903225805 468.38974906567 3435.2096774193546 471.12333155365724 3400.758064516129 472.1484249866524 3366.3064516129034 474.54030966364115 3331.8548387096776 476.2487987186331 3297.4032258064517 477.2738921516283 3262.951612903226 477.95728777362507 3228.5 480.00747463961545 3228.5 522.7197010144153Z" fill="#f6a118" opacity="0.9" />
		</g>
		<g>
			<path d="M3228.5 480.00747463961545 3262.951612903226 477.95728777362507 3297.4032258064517 477.2738921516283 3331.8548387096776 476.2487987186331 3366.3064516129034 474.54030966364115 3400.758064516129 472.1484249866524 3435.2096774193546 471.12333155365724 3469.6612903225805 468.38974906567 3504.1129032258063 468.38974906567 3538.564516129032 468.0480512546716 3573.016129032258 467.70635344367315 3607.467741935484 465.6561665776828 3641.9193548387098 464.6310731446878 3676.3709677419356 463.9476775226908 3710.8225806451615 461.89749065670037 3745.2741935483873 460.8723972237053 3779.7258064516127 460.5306994127069 3814.177419354839 458.8222103577149 3848.6290322580644 457.4554191137213 3883.0806451612902 456.4303256807261 3917.532258064516 455.06353443673254 3951.983870967742 451.988254137747 3986.435483870968 450.27976508275503 4020.8870967741937 450.27976508275503 4055.3387096774195 449.59636946075807 4089.7903225806454 448.91297383876145 4124.241935483871 448.91297383876145 4158.693548387097 448.2295782167645 4193.145161290323 446.5210891617725 4227.596774193548 445.15429791777905 4262.048387096775 443.10411105178855 4296.5 442.4207154297917 4296.5 414.05979711692464 4262.048387096775 414.7431927389215 4227.596774193548 416.793379604912 4193.145161290323 418.16017084890547 4158.693548387097 419.8686599038974 4124.241935483871 420.5520555258944 4089.7903225806454 420.8937533368928 4055.3387096774195 421.57714895888944 4020.8870967741937 422.2605445808864 3986.435483870968 422.2605445808864 3951.983870967742 423.9690336358783 3917.532258064516 427.0443139348639 3883.0806451612902 428.4111051788575 3848.6290322580644 429.43619861185266 3814.177419354839 430.80298985584625 3779.7258064516127 432.51147891083826 3745.2741935483873 432.8531767218367 3710.8225806451615 433.87827015483174 3676.3709677419356 435.9284570208222 3641.9193548387098 436.61185264281914 3607.467741935484 437.6369460758142 3573.016129032258 439.6871329418045 3538.564516129032 440.02883075280295 3504.1129032258063 440.3705285638014 3469.6612903225805 440.3705285638014 3435.2096774193546 443.10411105178855 3400.758064516129 444.1292044847837 3366.3064516129034 446.52108916177247 3331.8548387096776 448.2295782167645 3297.4032258064517 449.25467164975964 3262.951612903226 449.9380672717564 3228.5 451.9882541377468 3228.5 480.00747463961545Z" fill="#f48c7d" opacity="0.9" />
		</g>
		<g>
			<path d="M3228.5 451.9882541377468 3262.951612903226 449.9380672717564 3297.4032258064517 449.25467164975964 3331.8548387096776 448.2295782167645 3366.3064516129034 446.52108916177247 3400.758064516129 444.1292044847837 3435.2096774193546 443.10411105178855 3469.6612903225805 440.3705285638014 3504.1129032258063 440.3705285638014 3538.564516129032 440.02883075280295 3573.016129032258 439.6871329418045 3607.467741935484 437.6369460758142 3641.9193548387098 436.61185264281914 3676.3709677419356 435.9284570208222 3710.8225806451615 433.87827015483174 3745.2741935483873 432.8531767218367 3779.7258064516127 432.51147891083826 3814.177419354839 430.80298985584625 3848.6290322580644 429.43619861185266 3883.0806451612902 428.4111051788575 3917.532258064516 427.0443139348639 3951.983870967742 423.9690336358783 3986.435483870968 422.2605445808864 4020.8870967741937 422.2605445808864 4055.3387096774195 421.57714895888944 4089.7903225806454 420.8937533368928 4124.241935483871 420.5520555258944 4158.693548387097 419.8686599038974 4193.145161290323 418.16017084890547 4227.596774193548 416.793379604912 4262.048387096775 414.7431927389215 4296.5 414.05979711692464 4296.5 397.99999999999994 4262.048387096775 398.34169781099837 4227.596774193548 401.07528029898566 4193.145161290323 402.44207154297914 4158.693548387097 404.1505605979711 4124.241935483871 404.83395621996806 4089.7903225806454 405.1756540309665 4055.3387096774195 405.8590496529631 4020.8870967741937 406.5424452749601 3986.435483870968 406.5424452749601 3951.983870967742 408.250934329952 3917.532258064516 411.3262146289376 3883.0806451612902 412.69300587293117 3848.6290322580644 413.71809930592633 3814.177419354839 415.0848905499199 3779.7258064516127 416.79337960491193 3745.2741935483873 417.13507741591036 3710.8225806451615 418.1601708489054 3676.3709677419356 420.21035771489585 3641.9193548387098 420.8937533368928 3607.467741935484 421.91884676988786 3573.016129032258 423.9690336358782 3538.564516129032 424.3107314468766 3504.1129032258063 424.65242925787504 3469.6612903225805 424.65242925787504 3435.2096774193546 427.3860117458622 3400.758064516129 428.4111051788574 3366.3064516129034 430.80298985584614 3331.8548387096776 432.51147891083815 3297.4032258064517 433.5365723438333 3262.951612903226 434.21996796583005 3228.5 436.2701548318205 3228.5 451.9882541377468Z" fill="#55c0e9" opacity="0.9" />
		</g>
		<g>
			<rect x="4372" y="431" width="22.9995" height="23" fill="#fdd5a4" />
		</g>
		<g>
			<text fill="#595959" font-family="Verdana,sans-serif" font-weight="400" font-size="41" transform="matrix(1 0 0 1 4404.56 454)">Other</text>
		</g>
		<g>
			<rect x="4372" y="508" width="22.9995" height="23" fill="#e62d39" />
		</g>
		<g>
			<text fill="#595959" font-family="Verdana,sans-serif" font-weight="400" font-size="41" transform="matrix(1 0 0 1 4404.56 531)">iOS</text>
		</g>
		<g>
			<rect x="4372" y="585" width="22.9995" height="23" fill="#005aa6" />
		</g>
		<g>
			<text fill="#595959" font-family="Verdana,sans-serif" font-weight="400" font-size="41" transform="matrix(1 0 0 1 4404.56 608)">Android</text>
		</g>
		<g>
			<rect x="4372" y="662" width="22.9995" height="23" fill="#f6a118" />
		</g>
		<g>
			<text fill="#595959" font-family="Verdana,sans-serif" font-weight="400" font-size="41" transform="matrix(1 0 0 1 4404.56 685)">macOS</text>
		</g>
		<g>
			<rect x="4372" y="739" width="22.9995" height="23" fill="#f48c7d" />
		</g>
		<g>
			<text fill="#595959" font-family="Verdana,sans-serif" font-weight="400" font-size="41" transform="matrix(1 0 0 1 4404.56 762)">Linux</text>
		</g>
		<g>
			<rect x="4372" y="816" width="22.9995" height="23" fill="#55c0e9" />
		</g>
		<g>
			<text fill="#595959" font-family="Verdana,sans-serif" font-weight="400" font-size="41" transform="matrix(1 0 0 1 4404.56 839)">Windows</text>
		</g>
	</g>
</svg>
