<svg width="1763" height="1046"
    xmlns="http://www.w3.org/2000/svg"
	xmlns:xlink="http://www.w3.org/1999/xlink" xml:space="preserve" overflow="hidden">
	<defs>
		<clipPath id="clip0">
			<rect x="2917" y="346" width="1763" height="1046"/>
		</clipPath>
	</defs>
	<g clip-path="url(#clip0)" transform="translate(-2917 -346)">
		<rect x="2918" y="347" width="1760" height="1043" fill="#FFFFFF" />
		<g>
			<path d="
			M3228.5 974.532 4296.5 974.532
			M3228.5 910.53 4296.5 910.53
			M3228.5 846.528 4296.5 846.528
			M3228.5 781.526 4296.5 781.526
			M3228.5 717.524 4296.5 717.524
			M3228.5 653.522 4296.5 653.522
			M3228.5 589.52 4296.5 589.52
			M3228.5 525.517 4296.5 525.517
			M3228.5 461.515 4296.5 461.515
			M3228.5 397.5 4296.5 397.5" stroke="#D9D9D9" stroke-width="3.4375" stroke-linejoin="round" stroke-miterlimit="10" fill="none" />
		</g>
		<g>
			<path d="M 1038.5 4296.5 1038.5" stroke="#D9D9D9" stroke-width="3.4375" stroke-linejoin="round" stroke-miterlimit="10" fill="none" fill-rule="evenodd" />
		</g>
		<g>
			<text fill="#595959" font-family="Verdana,sans-serif" font-weight="400" font-size="41" transform="matrix(6.12323e-17 -1 1 6.12323e-17 3244.5 1225)">06-Nov</text>
		</g>
		<g>
			<text fill="#595959" font-family="Verdana,sans-serif" font-weight="400" font-size="41" transform="matrix(6.12323e-17 -1 1 6.12323e-17 3311.25 1224)">20-Nov</text>
		</g>
		<g>
			<text fill="#595959" font-family="Verdana,sans-serif" font-weight="400" font-size="41" transform="matrix(6.12323e-17 -1 1 6.12323e-17 3378 1223)">04-Dec</text>
		</g>
		<g>
			<text fill="#595959" font-family="Verdana,sans-serif" font-weight="400" font-size="41" transform="matrix(6.12323e-17 -1 1 6.12323e-17 3444.75 1220)">18-Dec</text>
		</g>
		<g>
			<text fill="#595959" font-family="Verdana,sans-serif" font-weight="400" font-size="41" transform="matrix(6.12323e-17 -1 1 6.12323e-17 3511.5 1210)">01-Jan</text>
		</g>
		<g>
			<text fill="#595959" font-family="Verdana,sans-serif" font-weight="400" font-size="41" transform="matrix(6.12323e-17 -1 1 6.12323e-17 3577.75 1207)">15-Jan</text>
		</g>
		<g>
			<text fill="#595959" font-family="Verdana,sans-serif" font-weight="400" font-size="41" transform="matrix(6.12323e-17 -1 1 6.12323e-17 3645 1210)">29-Jan</text>
		</g>
		<g>
			<text fill="#595959" font-family="Verdana,sans-serif" font-weight="400" font-size="41" transform="matrix(6.12323e-17 -1 1 6.12323e-17 3711.75 1214)">12-Feb</text>
		</g>
		<g>
			<text fill="#595959" font-family="Verdana,sans-serif" font-weight="400" font-size="41" transform="matrix(6.12323e-17 -1 1 6.12323e-17 3778.5 1216)">26-Feb</text>
		</g>
		<g>
			<text fill="#595959" font-family="Verdana,sans-serif" font-weight="400" font-size="41" transform="matrix(6.12323e-17 -1 1 6.12323e-17 3844.75 1221)">11-Mar</text>
		</g>
		<g>
			<text fill="#595959" font-family="Verdana,sans-serif" font-weight="400" font-size="41" transform="matrix(6.12323e-17 -1 1 6.12323e-17 3912 1223)">25-Mar</text>
		</g>
		<g>
			<text fill="#595959" font-family="Verdana,sans-serif" font-weight="400" font-size="41" transform="matrix(6.12323e-17 -1 1 6.12323e-17 3982.25 1217)">08-Apr</text>
		</g>
		<g>
			<text fill="#595959" font-family="Verdana,sans-serif" font-weight="400" font-size="41" transform="matrix(6.12323e-17 -1 1 6.12323e-17 4049 1216)">22-Apr</text>
		</g>
		<g>
			<text fill="#595959" font-family="Verdana,sans-serif" font-weight="400" font-size="41" transform="matrix(6.12323e-17 -1 1 6.12323e-17 4115.75 1228)">06-May</text>
		</g>
		<g>
			<text fill="#595959" font-family="Verdana,sans-serif" font-weight="400" font-size="41" transform="matrix(6.12323e-17 -1 1 6.12323e-17 4182.5 1228)">20-May</text>
		</g>
		<g>
			<text fill="#595959" font-family="Verdana,sans-serif" font-weight="400" font-size="41" transform="matrix(6.12323e-17 -1 1 6.12323e-17 4245.75 1211)">03-Jun</text>
		</g>
		<g>
			<text fill="#595959" font-family="Verdana,sans-serif" font-weight="400" font-size="41" transform="matrix(6.12323e-17 -1 1 6.12323e-17 4312 1209)">17-Jun</text>
		</g>
		<g>
			<text fill="#595959" font-family="Verdana,sans-serif" font-weight="400" font-size="41" transform="matrix(1 0 0 1 3167.5 1050)">0</text>
		</g>
		<g>
			<text fill="#595959" font-family="Verdana,sans-serif" font-weight="400" font-size="41" transform="matrix(1 0 0 1 3115.5 922)">376</text>
		</g>
		<g>
			<text fill="#595959" font-family="Verdana,sans-serif" font-weight="400" font-size="41" transform="matrix(1 0 0 1 3115.5 794)">752</text>
		</g>
		<g>
			<text fill="#595959" font-family="Verdana,sans-serif" font-weight="400" font-size="41" transform="matrix(1 0 0 1 3076.5 666)">1,128</text>
		</g>
		<g>
			<text fill="#595959" font-family="Verdana,sans-serif" font-weight="400" font-size="41" transform="matrix(1 0 0 1 3076.5 538)">1,504</text>
		</g>
		<g>
			<text fill="#595959" font-family="Verdana,sans-serif" font-weight="400" font-size="41" transform="matrix(1 0 0 1 3077.5 410)">1,880</text>
		</g>
		<g>
			<text fill="#595959" font-family="Verdana,sans-serif" font-weight="400" font-size="41" transform="matrix(1 0 0 1 3544.5 1321)">Week Commencing</text>
		</g>
		<g>
			<text fill="#595959" font-family="Verdana,sans-serif" font-weight="400" font-size="46" transform="matrix(6.12323e-17 -1 1 6.12323e-17 3019.73 970.75)">Number of OS Profiles</text>
		</g>
		<rect x="2918.5" y="347.5" width="1760" height="1043" stroke="#D9D9D9" stroke-width="3.4375" stroke-linejoin="round" stroke-miterlimit="10" fill="none" />
		<g>
			<path d="M3228.5 1038 3261.875 1038 3295.25 1038 3328.625 1038 3362 1038 3395.375 1038 3428.75 1038 3462.125 1038 3495.5 1038 3528.875 1038 3562.25 1038 3595.625 1038 3629 1038 3662.375 1038 3695.75 1038 3729.125 1038 3762.5 1038 3795.875 1038 3829.25 1038 3862.625 1038 3896 1038 3929.375 1038 3962.75 1038 3996.125 1038 4029.5 1038 4062.875 1038 4096.25 1038 4129.625 1038 4163 1038 4196.375 1038 4229.75 1038 4263.125 1038 4296.5 1038 4296.5 697.2340425531916 4263.125 698.2553191489362 4229.75 698.936170212766 4196.375 700.2978723404256 4163 700.9787234042553 4129.625 701.3191489361702 4096.25 701.6595744680851 4062.875 701.6595744680851 4029.5 702 3996.125 702.3404255319149 3962.75 702.3404255319149 3929.375 703.3617021276596 3896 704.3829787234042 3862.625 705.7446808510638 3829.25 706.7659574468084 3795.875 706.7659574468084 3762.5 708.1276595744681 3729.125 708.1276595744681 3695.75 708.1276595744681 3662.375 709.1489361702128 3629 709.4893617021277 3595.625 709.8297872340426 3562.25 710.8510638297872 3528.875 711.1914893617021 3495.5 711.5319148936171 3462.125 711.5319148936171 3428.75 711.5319148936171 3395.375 711.5319148936171 3362 713.5744680851064 3328.625 713.9148936170213 3295.25 714.5957446808511 3261.875 714.5957446808511 3228.5 715.2765957446809 3228.5 1038Z" fill="#fdd5a4" opacity="0.9" />
		</g>
		<g>
			<path d="M3228.5 715.2765957446809 3261.875 714.5957446808511 3295.25 714.5957446808511 3328.625 713.9148936170213 3362 713.5744680851064 3395.375 711.5319148936171 3428.75 711.5319148936171 3462.125 711.5319148936171 3495.5 711.5319148936171 3528.875 711.1914893617021 3562.25 710.8510638297872 3595.625 709.8297872340426 3629 709.4893617021277 3662.375 709.1489361702128 3695.75 708.1276595744681 3729.125 708.1276595744681 3762.5 708.1276595744681 3795.875 706.7659574468084 3829.25 706.7659574468084 3862.625 705.7446808510638 3896 704.3829787234042 3929.375 703.3617021276596 3962.75 702.3404255319149 3996.125 702.3404255319149 4029.5 702 4062.875 701.6595744680851 4096.25 701.6595744680851 4129.625 701.3191489361702 4163 700.9787234042553 4196.375 700.2978723404256 4229.75 698.936170212766 4263.125 698.2553191489362 4296.5 697.2340425531916 4296.5 555.6170212765958 4263.125 557.6595744680851 4229.75 558.3404255319149 4196.375 559.7021276595744 4163 561.063829787234 4129.625 562.0851063829788 4096.25 562.4255319148937 4062.875 562.4255319148937 4029.5 563.1063829787234 3996.125 563.7872340425532 3962.75 563.7872340425532 3929.375 565.1489361702128 3896 567.531914893617 3862.625 568.8936170212766 3829.25 569.9148936170212 3795.875 571.2765957446808 3762.5 572.6382978723404 3729.125 572.6382978723404 3695.75 572.9787234042553 3662.375 574.6808510638298 3629 575.3617021276596 3595.625 576.3829787234042 3562.25 578.0851063829787 3528.875 578.4255319148936 3495.5 578.7659574468087 3462.125 578.7659574468087 3428.75 580.4680851063831 3395.375 581.1489361702129 3362 583.5319148936171 3328.625 584.8936170212767 3295.25 585.5744680851064 3261.875 585.9148936170213 3228.5 587.2765957446809 3228.5 715.2765957446809Z" fill="#e62d39" opacity="0.9" />
		</g>
		<g>
			<path d="M3228.5 587.2765957446809 3261.875 585.9148936170213 3295.25 585.5744680851064 3328.625 584.8936170212767 3362 583.5319148936171 3395.375 581.1489361702129 3428.75 580.4680851063831 3462.125 578.7659574468087 3495.5 578.7659574468087 3528.875 578.4255319148936 3562.25 578.0851063829787 3595.625 576.3829787234042 3629 575.3617021276596 3662.375 574.6808510638298 3695.75 572.9787234042553 3729.125 572.6382978723404 3762.5 572.6382978723404 3795.875 571.2765957446808 3829.25 569.9148936170212 3862.625 568.8936170212766 3896 567.531914893617 3929.375 565.1489361702128 3962.75 563.7872340425532 3996.125 563.7872340425532 4029.5 563.1063829787234 4062.875 562.4255319148937 4096.25 562.4255319148937 4129.625 562.0851063829788 4163 561.063829787234 4196.375 559.7021276595744 4229.75 558.3404255319149 4263.125 557.6595744680851 4296.5 555.6170212765958 4296.5 491.95744680851067 4263.125 494 4229.75 494.6808510638298 4196.375 496.7234042553191 4163 498.08510638297867 4129.625 499.10638297872345 4096.25 499.7872340425532 4062.875 499.7872340425532 4029.5 500.468085106383 3996.125 501.1489361702128 3962.75 501.1489361702128 3929.375 502.51063829787233 3896 504.89361702127655 3862.625 506.2553191489361 3829.25 507.2765957446808 3795.875 508.63829787234033 3762.5 510 3729.125 510 3695.75 510.3404255319149 3662.375 512.0425531914893 3629 512.7234042553191 3595.625 513.7446808510638 3562.25 515.4468085106382 3528.875 515.7872340425531 3495.5 516.1276595744682 3462.125 516.1276595744682 3428.75 517.8297872340427 3395.375 518.5106382978724 3362 520.8936170212767 3328.625 522.2553191489362 3295.25 522.936170212766 3261.875 523.2765957446809 3228.5 524.6382978723404 3228.5 587.2765957446809Z" fill="#005aa6" opacity="0.9" />
		</g>
		<g>
			<path d="M3228.5 524.6382978723404 3261.875 523.2765957446809 3295.25 522.936170212766 3328.625 522.2553191489362 3362 520.8936170212767 3395.375 518.5106382978724 3428.75 517.8297872340427 3462.125 516.1276595744682 3495.5 516.1276595744682 3528.875 515.7872340425531 3562.25 515.4468085106382 3595.625 513.7446808510638 3629 512.7234042553191 3662.375 512.0425531914893 3695.75 510.3404255319149 3729.125 510 3762.5 510 3795.875 508.63829787234033 3829.25 507.2765957446808 3862.625 506.2553191489361 3896 504.89361702127655 3929.375 502.51063829787233 3962.75 501.1489361702128 3996.125 501.1489361702128 4029.5 500.468085106383 4062.875 499.7872340425532 4096.25 499.7872340425532 4129.625 499.10638297872345 4163 498.08510638297867 4196.375 496.7234042553191 4229.75 494.6808510638298 4263.125 494 4296.5 491.95744680851067 4296.5 442.2553191489362 4263.125 444.63829787234044 4229.75 445.3191489361702 4196.375 447.36170212765956 4163 448.7234042553191 4129.625 450.42553191489367 4096.25 451.10638297872345 4062.875 451.10638297872345 4029.5 451.7872340425532 3996.125 452.468085106383 3962.75 452.468085106383 3929.375 454.17021276595744 3896 457.23404255319144 3862.625 458.595744680851 3829.25 459.61702127659566 3795.875 460.9787234042552 3762.5 462.6808510638298 3729.125 463.02127659574467 3695.75 464.04255319148933 3662.375 466.08510638297867 3629 466.76595744680844 3595.625 467.7872340425531 3562.25 469.8297872340425 3528.875 470.1702127659574 3495.5 470.5106382978725 3462.125 470.5106382978725 3428.75 473.2340425531916 3395.375 474.2553191489363 3362 476.6382978723405 3328.625 478.34042553191495 3295.25 479.3617021276596 3261.875 480.0425531914894 3228.5 482.0851063829787 3228.5 524.6382978723404Z" fill="#f6a118" opacity="0.9" />
		</g>
		<g>
			<path d="M3228.5 482.0851063829787 3261.875 480.0425531914894 3295.25 479.3617021276596 3328.625 478.34042553191495 3362 476.6382978723405 3395.375 474.2553191489363 3428.75 473.2340425531916 3462.125 470.5106382978725 3495.5 470.5106382978725 3528.875 470.1702127659574 3562.25 469.8297872340425 3595.625 467.7872340425531 3629 466.76595744680844 3662.375 466.08510638297867 3695.75 464.04255319148933 3729.125 463.02127659574467 3762.5 462.6808510638298 3795.875 460.9787234042552 3829.25 459.61702127659566 3862.625 458.595744680851 3896 457.23404255319144 3929.375 454.17021276595744 3962.75 452.468085106383 3996.125 452.468085106383 4029.5 451.7872340425532 4062.875 451.10638297872345 4096.25 451.10638297872345 4129.625 450.42553191489367 4163 448.7234042553191 4196.375 447.36170212765956 4229.75 445.3191489361702 4263.125 444.63829787234044 4296.5 442.2553191489362 4296.5 414.00000000000006 4263.125 416.3829787234043 4229.75 417.06382978723406 4196.375 419.1063829787234 4163 420.46808510638294 4129.625 422.1702127659575 4096.25 422.8510638297873 4062.875 423.19148936170217 4029.5 423.87234042553195 3996.125 424.5531914893617 3962.75 424.5531914893617 3929.375 426.25531914893617 3896 429.31914893617017 3862.625 430.6808510638297 3829.25 431.7021276595744 3795.875 433.06382978723394 3762.5 434.7659574468085 3729.125 435.1063829787234 3695.75 436.12765957446805 3662.375 438.1702127659574 3629 438.85106382978717 3595.625 439.87234042553183 3562.25 441.9148936170212 3528.875 442.2553191489361 3495.5 442.5957446808512 3462.125 442.5957446808512 3428.75 445.31914893617034 3395.375 446.340425531915 3362 448.7234042553192 3328.625 450.42553191489367 3295.25 451.44680851063833 3261.875 452.1276595744681 3228.5 454.17021276595744 3228.5 482.0851063829787Z" fill="#f48c7d" opacity="0.9" />
		</g>
		<g>
			<path d="M3228.5 454.17021276595744 3261.875 452.1276595744681 3295.25 451.44680851063833 3328.625 450.42553191489367 3362 448.7234042553192 3395.375 446.340425531915 3428.75 445.31914893617034 3462.125 442.5957446808512 3495.5 442.5957446808512 3528.875 442.2553191489361 3562.25 441.9148936170212 3595.625 439.87234042553183 3629 438.85106382978717 3662.375 438.1702127659574 3695.75 436.12765957446805 3729.125 435.1063829787234 3762.5 434.7659574468085 3795.875 433.06382978723394 3829.25 431.7021276595744 3862.625 430.6808510638297 3896 429.31914893617017 3929.375 426.25531914893617 3962.75 424.5531914893617 3996.125 424.5531914893617 4029.5 423.87234042553195 4062.875 423.19148936170217 4096.25 422.8510638297873 4129.625 422.1702127659575 4163 420.46808510638294 4196.375 419.1063829787234 4229.75 417.06382978723406 4263.125 416.3829787234043 4296.5 414.00000000000006 4296.5 398.00000000000006 4263.125 400.3829787234043 4229.75 400.72340425531917 4196.375 403.4468085106383 4163 404.80851063829783 4129.625 406.5106382978724 4096.25 407.19148936170217 4062.875 407.53191489361706 4029.5 408.21276595744683 3996.125 408.8936170212766 3962.75 408.8936170212766 3929.375 410.59574468085106 3896 413.65957446808505 3862.625 415.0212765957446 3829.25 416.0425531914893 3795.875 417.40425531914883 3762.5 419.1063829787234 3729.125 419.4468085106383 3695.75 420.46808510638294 3662.375 422.5106382978723 3629 423.19148936170205 3595.625 424.2127659574467 3562.25 426.2553191489361 3528.875 426.595744680851 3495.5 426.9361702127661 3462.125 426.9361702127661 3428.75 429.6595744680852 3395.375 430.6808510638299 3362 433.0638297872341 3328.625 434.76595744680856 3295.25 435.7872340425532 3261.875 436.468085106383 3228.5 438.51063829787233 3228.5 454.17021276595744Z" fill="#55c0e9" opacity="0.9" />
		</g>
		<g>
			<rect x="4372" y="431" width="22.9995" height="23" fill="#fdd5a4" />
		</g>
		<g>
			<text fill="#595959" font-family="Verdana,sans-serif" font-weight="400" font-size="41" transform="matrix(1 0 0 1 4404.56 454)">Other</text>
		</g>
		<g>
			<rect x="4372" y="508" width="22.9995" height="23" fill="#e62d39" />
		</g>
		<g>
			<text fill="#595959" font-family="Verdana,sans-serif" font-weight="400" font-size="41" transform="matrix(1 0 0 1 4404.56 531)">iOS</text>
		</g>
		<g>
			<rect x="4372" y="585" width="22.9995" height="23" fill="#005aa6" />
		</g>
		<g>
			<text fill="#595959" font-family="Verdana,sans-serif" font-weight="400" font-size="41" transform="matrix(1 0 0 1 4404.56 608)">Android</text>
		</g>
		<g>
			<rect x="4372" y="662" width="22.9995" height="23" fill="#f6a118" />
		</g>
		<g>
			<text fill="#595959" font-family="Verdana,sans-serif" font-weight="400" font-size="41" transform="matrix(1 0 0 1 4404.56 685)">macOS</text>
		</g>
		<g>
			<rect x="4372" y="739" width="22.9995" height="23" fill="#f48c7d" />
		</g>
		<g>
			<text fill="#595959" font-family="Verdana,sans-serif" font-weight="400" font-size="41" transform="matrix(1 0 0 1 4404.56 762)">Linux</text>
		</g>
		<g>
			<rect x="4372" y="816" width="22.9995" height="23" fill="#55c0e9" />
		</g>
		<g>
			<text fill="#595959" font-family="Verdana,sans-serif" font-weight="400" font-size="41" transform="matrix(1 0 0 1 4404.56 839)">Windows</text>
		</g>
	</g>
</svg>
