<svg width="1763" height="1046"
    xmlns="http://www.w3.org/2000/svg"
	xmlns:xlink="http://www.w3.org/1999/xlink" xml:space="preserve" overflow="hidden">
	<defs>
		<clipPath id="clip0">
			<rect x="2917" y="346" width="1763" height="1046"/>
		</clipPath>
	</defs>
	<g clip-path="url(#clip0)" transform="translate(-2917 -346)">
		<rect x="2918" y="347" width="1760" height="1043" fill="#FFFFFF" />
		<g>
			<path d="
			M3228.5 974.532 4296.5 974.532
			M3228.5 910.53 4296.5 910.53
			M3228.5 846.528 4296.5 846.528
			M3228.5 781.526 4296.5 781.526
			M3228.5 717.524 4296.5 717.524
			M3228.5 653.522 4296.5 653.522
			M3228.5 589.52 4296.5 589.52
			M3228.5 525.517 4296.5 525.517
			M3228.5 461.515 4296.5 461.515
			M3228.5 397.5 4296.5 397.5" stroke="#D9D9D9" stroke-width="3.4375" stroke-linejoin="round" stroke-miterlimit="10" fill="none" />
		</g>
		<g>
			<path d="M 1038.5 4296.5 1038.5" stroke="#D9D9D9" stroke-width="3.4375" stroke-linejoin="round" stroke-miterlimit="10" fill="none" fill-rule="evenodd" />
		</g>
		<g>
			<text fill="#595959" font-family="Verdana,sans-serif" font-weight="400" font-size="41" transform="matrix(6.12323e-17 -1 1 6.12323e-17 3244.5 1225)">06-Nov</text>
		</g>
		<g>
			<text fill="#595959" font-family="Verdana,sans-serif" font-weight="400" font-size="41" transform="matrix(6.12323e-17 -1 1 6.12323e-17 3359.9594594594596 1223)">04-Dec</text>
		</g>
		<g>
			<text fill="#595959" font-family="Verdana,sans-serif" font-weight="400" font-size="41" transform="matrix(6.12323e-17 -1 1 6.12323e-17 3475.4189189189187 1210)">01-Jan</text>
		</g>
		<g>
			<text fill="#595959" font-family="Verdana,sans-serif" font-weight="400" font-size="41" transform="matrix(6.12323e-17 -1 1 6.12323e-17 3590.8783783783783 1210)">29-Jan</text>
		</g>
		<g>
			<text fill="#595959" font-family="Verdana,sans-serif" font-weight="400" font-size="41" transform="matrix(6.12323e-17 -1 1 6.12323e-17 3706.337837837838 1216)">26-Feb</text>
		</g>
		<g>
			<text fill="#595959" font-family="Verdana,sans-serif" font-weight="400" font-size="41" transform="matrix(6.12323e-17 -1 1 6.12323e-17 3821.7972972972975 1223)">25-Mar</text>
		</g>
		<g>
			<text fill="#595959" font-family="Verdana,sans-serif" font-weight="400" font-size="41" transform="matrix(6.12323e-17 -1 1 6.12323e-17 3940.7567567567567 1216)">22-Apr</text>
		</g>
		<g>
			<text fill="#595959" font-family="Verdana,sans-serif" font-weight="400" font-size="41" transform="matrix(6.12323e-17 -1 1 6.12323e-17 4056.2162162162163 1228)">20-May</text>
		</g>
		<g>
			<text fill="#595959" font-family="Verdana,sans-serif" font-weight="400" font-size="41" transform="matrix(6.12323e-17 -1 1 6.12323e-17 4167.675675675676 1209)">17-Jun</text>
		</g>
		<g>
			<text fill="#595959" font-family="Verdana,sans-serif" font-weight="400" font-size="41" transform="matrix(6.12323e-17 -1 1 6.12323e-17 4283.635135135135 1194)">15-Jul</text>
		</g>
		<g>
			<text fill="#595959" font-family="Verdana,sans-serif" font-weight="400" font-size="41" transform="matrix(1 0 0 1 3167.5 1050)">0</text>
		</g>
		<g>
			<text fill="#595959" font-family="Verdana,sans-serif" font-weight="400" font-size="41" transform="matrix(1 0 0 1 3115.5 922)">379</text>
		</g>
		<g>
			<text fill="#595959" font-family="Verdana,sans-serif" font-weight="400" font-size="41" transform="matrix(1 0 0 1 3115.5 794)">758</text>
		</g>
		<g>
			<text fill="#595959" font-family="Verdana,sans-serif" font-weight="400" font-size="41" transform="matrix(1 0 0 1 3076.5 666)">1,137</text>
		</g>
		<g>
			<text fill="#595959" font-family="Verdana,sans-serif" font-weight="400" font-size="41" transform="matrix(1 0 0 1 3076.5 538)">1,516</text>
		</g>
		<g>
			<text fill="#595959" font-family="Verdana,sans-serif" font-weight="400" font-size="41" transform="matrix(1 0 0 1 3077.5 410)">1,895</text>
		</g>
		<g>
			<text fill="#595959" font-family="Verdana,sans-serif" font-weight="400" font-size="41" transform="matrix(1 0 0 1 3544.5 1321)">Week Commencing</text>
		</g>
		<g>
			<text fill="#595959" font-family="Verdana,sans-serif" font-weight="400" font-size="46" transform="matrix(6.12323e-17 -1 1 6.12323e-17 3019.73 970.75)">Number of OS Profiles</text>
		</g>
		<rect x="2918.5" y="347.5" width="1760" height="1043" stroke="#D9D9D9" stroke-width="3.4375" stroke-linejoin="round" stroke-miterlimit="10" fill="none" />
		<g>
			<path d="M3228.5 1038 3257.364864864865 1038 3286.2297297297296 1038 3315.0945945945946 1038 3343.9594594594596 1038 3372.824324324324 1038 3401.689189189189 1038 3430.554054054054 1038 3459.4189189189187 1038 3488.2837837837837 1038 3517.1486486486488 1038 3546.0135135135133 1038 3574.8783783783783 1038 3603.7432432432433 1038 3632.608108108108 1038 3661.472972972973 1038 3690.337837837838 1038 3719.2027027027025 1038 3748.0675675675675 1038 3776.9324324324325 1038 3805.7972972972975 1038 3834.662162162162 1038 3863.527027027027 1038 3892.3918918918916 1038 3921.2567567567567 1038 3950.1216216216217 1038 3978.9864864864867 1038 4007.8513513513512 1038 4036.7162162162163 1038 4065.581081081081 1038 4094.445945945946 1038 4123.310810810811 1038 4152.175675675676 1038 4181.040540540541 1038 4209.905405405405 1038 4238.77027027027 1038 4267.635135135135 1038 4296.5 1038 4296.5 695.8786279683377 4267.635135135135 695.8786279683377 4238.77027027027 696.2163588390501 4209.905405405405 699.2559366754617 4181.040540540541 699.2559366754617 4152.175675675676 699.9313984168866 4123.310810810811 700.9445910290237 4094.445945945946 701.6200527704486 4065.581081081081 702.9709762532982 4036.7162162162163 703.646437994723 4007.8513513513512 703.9841688654353 3978.9864864864867 704.3218997361478 3950.1216216216217 704.3218997361478 3921.2567567567567 704.6596306068602 3892.3918918918916 704.9973614775726 3863.527027027027 704.9973614775726 3834.662162162162 706.0105540897098 3805.7972972972975 707.0237467018469 3776.9324324324325 708.3746701846966 3748.0675675675675 709.3878627968338 3719.2027027027025 709.3878627968338 3690.337837837838 710.7387862796834 3661.472972972973 710.7387862796834 3632.608108108108 710.7387862796834 3603.7432432432433 711.7519788918206 3574.8783783783783 712.089709762533 3546.0135135135133 712.4274406332454 3517.1486486486488 713.4406332453825 3488.2837837837837 713.778364116095 3459.4189189189187 714.1160949868074 3430.554054054054 714.1160949868074 3401.689189189189 714.1160949868074 3372.824324324324 714.1160949868074 3343.9594594594596 716.1424802110819 3315.0945945945946 716.4802110817942 3286.2297297297296 717.155672823219 3257.364864864865 717.155672823219 3228.5 717.8311345646439 3228.5 1038Z" fill="#fdd5a4" opacity="0.9" />
		</g>
		<g>
			<path d="M3228.5 717.8311345646439 3257.364864864865 717.155672823219 3286.2297297297296 717.155672823219 3315.0945945945946 716.4802110817942 3343.9594594594596 716.1424802110819 3372.824324324324 714.1160949868074 3401.689189189189 714.1160949868074 3430.554054054054 714.1160949868074 3459.4189189189187 714.1160949868074 3488.2837837837837 713.778364116095 3517.1486486486488 713.4406332453825 3546.0135135135133 712.4274406332454 3574.8783783783783 712.089709762533 3603.7432432432433 711.7519788918206 3632.608108108108 710.7387862796834 3661.472972972973 710.7387862796834 3690.337837837838 710.7387862796834 3719.2027027027025 709.3878627968338 3748.0675675675675 709.3878627968338 3776.9324324324325 708.3746701846966 3805.7972972972975 707.0237467018469 3834.662162162162 706.0105540897098 3863.527027027027 704.9973614775726 3892.3918918918916 704.9973614775726 3921.2567567567567 704.6596306068602 3950.1216216216217 704.3218997361478 3978.9864864864867 704.3218997361478 4007.8513513513512 703.9841688654353 4036.7162162162163 703.646437994723 4065.581081081081 702.9709762532982 4094.445945945946 701.6200527704486 4123.310810810811 700.9445910290237 4152.175675675676 699.9313984168866 4181.040540540541 699.2559366754617 4209.905405405405 699.2559366754617 4238.77027027027 696.2163588390501 4267.635135135135 695.8786279683377 4296.5 695.8786279683377 4296.5 555.0448548812665 4267.635135135135 555.0448548812665 4238.77027027027 555.3825857519789 4209.905405405405 558.4221635883905 4181.040540540541 558.4221635883905 4152.175675675676 559.4353562005278 4123.310810810811 561.4617414248021 4094.445945945946 562.137203166227 4065.581081081081 563.4881266490765 4036.7162162162163 564.8390501319261 4007.8513513513512 565.8522427440632 3978.9864864864867 566.1899736147757 3950.1216216216217 566.1899736147757 3921.2567567567567 566.8654353562006 3892.3918918918916 567.5408970976254 3863.527027027027 567.5408970976254 3834.662162162162 568.8918205804749 3805.7972972972975 571.2559366754617 3776.9324324324325 572.6068601583114 3748.0675675675675 573.6200527704486 3719.2027027027025 574.9709762532982 3690.337837837838 576.3218997361478 3661.472972972973 576.3218997361478 3632.608108108108 576.6596306068602 3603.7432432432433 578.3482849604222 3574.8783783783783 579.0237467018469 3546.0135135135133 580.0369393139842 3517.1486486486488 581.7255936675461 3488.2837837837837 582.0633245382586 3459.4189189189187 582.401055408971 3430.554054054054 582.401055408971 3401.689189189189 584.089709762533 3372.824324324324 584.7651715039578 3343.9594594594596 587.1292875989446 3315.0945945945946 588.4802110817942 3286.2297297297296 589.155672823219 3257.364864864865 589.4934036939314 3228.5 590.8443271767811 3228.5 717.8311345646439Z" fill="#e62d39" opacity="0.9" />
		</g>
		<g>
			<path d="M3228.5 590.8443271767811 3257.364864864865 589.4934036939314 3286.2297297297296 589.155672823219 3315.0945945945946 588.4802110817942 3343.9594594594596 587.1292875989446 3372.824324324324 584.7651715039578 3401.689189189189 584.089709762533 3430.554054054054 582.401055408971 3459.4189189189187 582.401055408971 3488.2837837837837 582.0633245382586 3517.1486486486488 581.7255936675461 3546.0135135135133 580.0369393139842 3574.8783783783783 579.0237467018469 3603.7432432432433 578.3482849604222 3632.608108108108 576.6596306068602 3661.472972972973 576.3218997361478 3690.337837837838 576.3218997361478 3719.2027027027025 574.9709762532982 3748.0675675675675 573.6200527704486 3776.9324324324325 572.6068601583114 3805.7972972972975 571.2559366754617 3834.662162162162 568.8918205804749 3863.527027027027 567.5408970976254 3892.3918918918916 567.5408970976254 3921.2567567567567 566.8654353562006 3950.1216216216217 566.1899736147757 3978.9864864864867 566.1899736147757 4007.8513513513512 565.8522427440632 4036.7162162162163 564.8390501319261 4065.581081081081 563.4881266490765 4094.445945945946 562.137203166227 4123.310810810811 561.4617414248021 4152.175675675676 559.4353562005278 4181.040540540541 558.4221635883905 4209.905405405405 558.4221635883905 4238.77027027027 555.3825857519789 4267.635135135135 555.0448548812665 4296.5 555.0448548812665 4296.5 491.8891820580475 4267.635135135135 491.8891820580475 4238.77027027027 492.22691292875993 4209.905405405405 495.2664907651715 4181.040540540541 495.2664907651715 4152.175675675676 496.27968337730886 4123.310810810811 498.3060686015831 4094.445945945946 498.981530343008 4065.581081081081 501.00791556728234 4036.7162162162163 502.3588390501319 4007.8513513513512 503.372031662269 3978.9864864864867 504.0474934036939 3950.1216216216217 504.0474934036939 3921.2567567567567 504.7229551451188 3892.3918918918916 505.3984168865436 3863.527027027027 505.3984168865436 3834.662162162162 506.74934036939317 3805.7972972972975 509.11345646437996 3776.9324324324325 510.46437994722965 3748.0675675675675 511.4775725593669 3719.2027027027025 512.8284960422164 3690.337837837838 514.179419525066 3661.472972972973 514.179419525066 3632.608108108108 514.5171503957785 3603.7432432432433 516.2058047493405 3574.8783783783783 516.8812664907651 3546.0135135135133 517.8944591029025 3517.1486486486488 519.5831134564644 3488.2837837837837 519.9208443271768 3459.4189189189187 520.2585751978893 3430.554054054054 520.2585751978893 3401.689189189189 521.9472295514512 3372.824324324324 522.6226912928761 3343.9594594594596 524.9868073878629 3315.0945945945946 526.3377308707124 3286.2297297297296 527.0131926121372 3257.364864864865 527.3509234828497 3228.5 528.7018469656994 3228.5 590.8443271767811Z" fill="#005aa6" opacity="0.9" />
		</g>
		<g>
			<path d="M3228.5 528.7018469656994 3257.364864864865 527.3509234828497 3286.2297297297296 527.0131926121372 3315.0945945945946 526.3377308707124 3343.9594594594596 524.9868073878629 3372.824324324324 522.6226912928761 3401.689189189189 521.9472295514512 3430.554054054054 520.2585751978893 3459.4189189189187 520.2585751978893 3488.2837837837837 519.9208443271768 3517.1486486486488 519.5831134564644 3546.0135135135133 517.8944591029025 3574.8783783783783 516.8812664907651 3603.7432432432433 516.2058047493405 3632.608108108108 514.5171503957785 3661.472972972973 514.179419525066 3690.337837837838 514.179419525066 3719.2027027027025 512.8284960422164 3748.0675675675675 511.4775725593669 3776.9324324324325 510.46437994722965 3805.7972972972975 509.11345646437996 3834.662162162162 506.74934036939317 3863.527027027027 505.3984168865436 3892.3918918918916 505.3984168865436 3921.2567567567567 504.7229551451188 3950.1216216216217 504.0474934036939 3978.9864864864867 504.0474934036939 4007.8513513513512 503.372031662269 4036.7162162162163 502.3588390501319 4065.581081081081 501.00791556728234 4094.445945945946 498.981530343008 4123.310810810811 498.3060686015831 4152.175675675676 496.27968337730886 4181.040540540541 495.2664907651715 4209.905405405405 495.2664907651715 4238.77027027027 492.22691292875993 4267.635135135135 491.8891820580475 4296.5 491.8891820580475 4296.5 442.58047493403694 4267.635135135135 442.58047493403694 4238.77027027027 442.580474934037 4209.905405405405 445.6200527704486 4181.040540540541 445.6200527704486 4152.175675675676 446.9709762532983 4123.310810810811 449.33509234828495 4094.445945945946 450.01055408970984 4065.581081081081 452.0369393139842 4036.7162162162163 453.38786279683376 4007.8513513513512 455.07651715039566 3978.9864864864867 455.75197889182056 3950.1216216216217 455.75197889182056 3921.2567567567567 456.42744063324545 3892.3918918918916 457.10290237467024 3863.527027027027 457.10290237467024 3834.662162162162 458.7915567282322 3805.7972972972975 461.83113456464383 3776.9324324324325 463.1820580474935 3748.0675675675675 464.19525065963074 3719.2027027027025 465.5461741424803 3690.337837837838 467.23482849604227 3661.472972972973 467.57255936675466 3632.608108108108 468.5857519788919 3603.7432432432433 470.61213720316636 3574.8783783783783 471.287598944591 3546.0135135135133 472.30079155672837 3517.1486486486488 474.32717678100266 3488.2837837837837 474.6649076517151 3459.4189189189187 475.00263852242756 3430.554054054054 475.00263852242756 3401.689189189189 477.70448548812664 3372.824324324324 478.7176781002639 3343.9594594594596 481.0817941952507 3315.0945945945946 482.77044854881274 3286.2297297297296 483.7836411609499 3257.364864864865 484.45910290237475 3228.5 486.4854881266492 3228.5 528.7018469656994Z" fill="#f6a118" opacity="0.9" />
		</g>
		<g>
			<path d="M3228.5 486.4854881266492 3257.364864864865 484.45910290237475 3286.2297297297296 483.7836411609499 3315.0945945945946 482.77044854881274 3343.9594594594596 481.0817941952507 3372.824324324324 478.7176781002639 3401.689189189189 477.70448548812664 3430.554054054054 475.00263852242756 3459.4189189189187 475.00263852242756 3488.2837837837837 474.6649076517151 3517.1486486486488 474.32717678100266 3546.0135135135133 472.30079155672837 3574.8783783783783 471.287598944591 3603.7432432432433 470.61213720316636 3632.608108108108 468.5857519788919 3661.472972972973 467.57255936675466 3690.337837837838 467.23482849604227 3719.2027027027025 465.5461741424803 3748.0675675675675 464.19525065963074 3776.9324324324325 463.1820580474935 3805.7972972972975 461.83113456464383 3834.662162162162 458.7915567282322 3863.527027027027 457.10290237467024 3892.3918918918916 457.10290237467024 3921.2567567567567 456.42744063324545 3950.1216216216217 455.75197889182056 3978.9864864864867 455.75197889182056 4007.8513513513512 455.07651715039566 4036.7162162162163 453.38786279683376 4065.581081081081 452.0369393139842 4094.445945945946 450.01055408970984 4123.310810810811 449.33509234828495 4152.175675675676 446.9709762532983 4181.040540540541 445.6200527704486 4209.905405405405 445.6200527704486 4238.77027027027 442.580474934037 4267.635135135135 442.58047493403694 4296.5 442.58047493403694 4296.5 414.54881266490764 4267.635135135135 414.54881266490764 4238.77027027027 414.5488126649077 4209.905405405405 417.5883905013193 4181.040540540541 417.5883905013193 4152.175675675676 418.939313984169 4123.310810810811 421.30343007915565 4094.445945945946 421.97889182058054 4065.581081081081 424.0052770448549 4036.7162162162163 425.35620052770446 4007.8513513513512 427.04485488126636 3978.9864864864867 427.72031662269126 3950.1216216216217 428.05804749340365 3921.2567567567567 428.73350923482855 3892.3918918918916 429.40897097625333 3863.527027027027 429.40897097625333 3834.662162162162 431.0976253298153 3805.7972972972975 434.1372031662269 3776.9324324324325 435.4881266490766 3748.0675675675675 436.50131926121384 3719.2027027027025 437.8522427440634 3690.337837837838 439.54089709762536 3661.472972972973 439.87862796833775 3632.608108108108 440.891820580475 3603.7432432432433 442.91820580474945 3574.8783783783783 443.5936675461741 3546.0135135135133 444.60686015831146 3517.1486486486488 446.63324538258576 3488.2837837837837 446.9709762532982 3459.4189189189187 447.30870712401065 3430.554054054054 447.30870712401065 3401.689189189189 450.01055408970973 3372.824324324324 451.023746701847 3343.9594594594596 453.3878627968338 3315.0945945945946 455.07651715039583 3286.2297297297296 456.089709762533 3257.364864864865 456.76517150395784 3228.5 458.7915567282323 3228.5 486.4854881266492Z" fill="#f48c7d" opacity="0.9" />
		</g>
		<g>
			<path d="M3228.5 458.7915567282323 3257.364864864865 456.76517150395784 3286.2297297297296 456.089709762533 3315.0945945945946 455.07651715039583 3343.9594594594596 453.3878627968338 3372.824324324324 451.023746701847 3401.689189189189 450.01055408970973 3430.554054054054 447.30870712401065 3459.4189189189187 447.30870712401065 3488.2837837837837 446.9709762532982 3517.1486486486488 446.63324538258576 3546.0135135135133 444.60686015831146 3574.8783783783783 443.5936675461741 3603.7432432432433 442.91820580474945 3632.608108108108 440.891820580475 3661.472972972973 439.87862796833775 3690.337837837838 439.54089709762536 3719.2027027027025 437.8522427440634 3748.0675675675675 436.50131926121384 3776.9324324324325 435.4881266490766 3805.7972972972975 434.1372031662269 3834.662162162162 431.0976253298153 3863.527027027027 429.40897097625333 3892.3918918918916 429.40897097625333 3921.2567567567567 428.73350923482855 3950.1216216216217 428.05804749340365 3978.9864864864867 427.72031662269126 4007.8513513513512 427.04485488126636 4036.7162162162163 425.35620052770446 4065.581081081081 424.0052770448549 4094.445945945946 421.97889182058054 4123.310810810811 421.30343007915565 4152.175675675676 418.939313984169 4181.040540540541 417.5883905013193 4209.905405405405 417.5883905013193 4238.77027027027 414.5488126649077 4267.635135135135 414.54881266490764 4296.5 414.54881266490764 4296.5 398 4267.635135135135 398 4238.77027027027 398.67546174142484 4209.905405405405 401.7150395778364 4181.040540540541 401.7150395778364 4152.175675675676 403.06596306068616 4123.310810810811 405.4300791556728 4094.445945945946 405.7678100263853 4065.581081081081 408.4696569920844 4036.7162162162163 409.820580474934 4007.8513513513512 411.5092348284959 3978.9864864864867 412.1846965699208 3950.1216216216217 412.5224274406332 3921.2567567567567 413.1978891820581 3892.3918918918916 413.87335092348286 3863.527027027027 413.87335092348286 3834.662162162162 415.5620052770448 3805.7972972972975 418.60158311345646 3776.9324324324325 419.95250659630614 3748.0675675675675 420.96569920844337 3719.2027027027025 422.31662269129293 3690.337837837838 424.0052770448549 3661.472972972973 424.3430079155673 3632.608108108108 425.3562005277045 3603.7432432432433 427.382585751979 3574.8783783783783 428.05804749340365 3546.0135135135133 429.071240105541 3517.1486486486488 431.0976253298153 3488.2837837837837 431.43535620052774 3459.4189189189187 431.7730870712402 3430.554054054054 431.7730870712402 3401.689189189189 434.47493403693926 3372.824324324324 435.48812664907655 3343.9594594594596 437.85224274406335 3315.0945945945946 439.54089709762536 3286.2297297297296 440.55408970976254 3257.364864864865 441.2295514511874 3228.5 443.25593667546184 3228.5 458.7915567282323Z" fill="#55c0e9" opacity="0.9" />
		</g>
		<g>
			<rect x="4372" y="431" width="22.9995" height="23" fill="#fdd5a4" />
		</g>
		<g>
			<text fill="#595959" font-family="Verdana,sans-serif" font-weight="400" font-size="41" transform="matrix(1 0 0 1 4404.56 454)">Other</text>
		</g>
		<g>
			<rect x="4372" y="508" width="22.9995" height="23" fill="#e62d39" />
		</g>
		<g>
			<text fill="#595959" font-family="Verdana,sans-serif" font-weight="400" font-size="41" transform="matrix(1 0 0 1 4404.56 531)">iOS</text>
		</g>
		<g>
			<rect x="4372" y="585" width="22.9995" height="23" fill="#005aa6" />
		</g>
		<g>
			<text fill="#595959" font-family="Verdana,sans-serif" font-weight="400" font-size="41" transform="matrix(1 0 0 1 4404.56 608)">Android</text>
		</g>
		<g>
			<rect x="4372" y="662" width="22.9995" height="23" fill="#f6a118" />
		</g>
		<g>
			<text fill="#595959" font-family="Verdana,sans-serif" font-weight="400" font-size="41" transform="matrix(1 0 0 1 4404.56 685)">macOS</text>
		</g>
		<g>
			<rect x="4372" y="739" width="22.9995" height="23" fill="#f48c7d" />
		</g>
		<g>
			<text fill="#595959" font-family="Verdana,sans-serif" font-weight="400" font-size="41" transform="matrix(1 0 0 1 4404.56 762)">Linux</text>
		</g>
		<g>
			<rect x="4372" y="816" width="22.9995" height="23" fill="#55c0e9" />
		</g>
		<g>
			<text fill="#595959" font-family="Verdana,sans-serif" font-weight="400" font-size="41" transform="matrix(1 0 0 1 4404.56 839)">Windows</text>
		</g>
	</g>
</svg>
