<svg width="1763" height="1046"
    xmlns="http://www.w3.org/2000/svg"
	xmlns:xlink="http://www.w3.org/1999/xlink" xml:space="preserve" overflow="hidden">
	<defs>
		<clipPath id="clip0">
			<rect x="2917" y="346" width="1763" height="1046"/>
		</clipPath>
	</defs>
	<g clip-path="url(#clip0)" transform="translate(-2917 -346)">
		<rect x="2918" y="347" width="1760" height="1043" fill="#FFFFFF" />
		<g>
			<path d="
			M3228.5 974.532 4296.5 974.532
			M3228.5 910.53 4296.5 910.53
			M3228.5 846.528 4296.5 846.528
			M3228.5 781.526 4296.5 781.526
			M3228.5 717.524 4296.5 717.524
			M3228.5 653.522 4296.5 653.522
			M3228.5 589.52 4296.5 589.52
			M3228.5 525.517 4296.5 525.517
			M3228.5 461.515 4296.5 461.515
			M3228.5 397.5 4296.5 397.5" stroke="#D9D9D9" stroke-width="3.4375" stroke-linejoin="round" stroke-miterlimit="10" fill="none" />
		</g>
		<g>
			<path d="M 1038.5 4296.5 1038.5" stroke="#D9D9D9" stroke-width="3.4375" stroke-linejoin="round" stroke-miterlimit="10" fill="none" fill-rule="evenodd" />
		</g>
		<g>
			<text fill="#595959" font-family="Verdana,Open Sans,DejaVu Sans,sans-serif" font-weight="400" font-size="41" transform="matrix(6.12323e-17 -1 1 6.12323e-17 3247.928955078125 1177.2768478393555)">14-Jul</text>
		</g>
		<g>
			<text fill="#595959" font-family="Verdana,Open Sans,DejaVu Sans,sans-serif" font-weight="400" font-size="41" transform="matrix(6.12323e-17 -1 1 6.12323e-17 3330.272986778846 1206.90576171875)">11-Aug</text>
		</g>
		<g>
			<text fill="#595959" font-family="Verdana,Open Sans,DejaVu Sans,sans-serif" font-weight="400" font-size="41" transform="matrix(6.12323e-17 -1 1 6.12323e-17 3412.5969989483174 1204.38330078125)">08-Sep</text>
		</g>
		<g>
			<text fill="#595959" font-family="Verdana,Open Sans,DejaVu Sans,sans-serif" font-weight="400" font-size="41" transform="matrix(6.12323e-17 -1 1 6.12323e-17 3490.0262357271636 1201.1000900268555)">06-Oct</text>
		</g>
		<g>
			<text fill="#595959" font-family="Verdana,Open Sans,DejaVu Sans,sans-serif" font-weight="400" font-size="41" transform="matrix(6.12323e-17 -1 1 6.12323e-17 3572.1800818810098 1211.43017578125)">03-Nov</text>
		</g>
		<g>
			<text fill="#595959" font-family="Verdana,Open Sans,DejaVu Sans,sans-serif" font-weight="400" font-size="41" transform="matrix(6.12323e-17 -1 1 6.12323e-17 3654.333928034856 1207.0859375)">01-Dec</text>
		</g>
		<g>
			<text fill="#595959" font-family="Verdana,Open Sans,DejaVu Sans,sans-serif" font-weight="400" font-size="41" transform="matrix(6.12323e-17 -1 1 6.12323e-17 3736.467754657452 1207.1259765625)">29-Dec</text>
		</g>
		<g>
			<text fill="#595959" font-family="Verdana,Open Sans,DejaVu Sans,sans-serif" font-weight="400" font-size="41" transform="matrix(6.12323e-17 -1 1 6.12323e-17 3822.275165264423 1191.6909103393555)">26-Jan</text>
		</g>
		<g>
			<text fill="#595959" font-family="Verdana,Open Sans,DejaVu Sans,sans-serif" font-weight="400" font-size="41" transform="matrix(6.12323e-17 -1 1 6.12323e-17 3901.5061598557695 1203.08203125)">23-Feb</text>
		</g>
		<g>
			<text fill="#595959" font-family="Verdana,Open Sans,DejaVu Sans,sans-serif" font-weight="400" font-size="41" transform="matrix(6.12323e-17 -1 1 6.12323e-17 3982.9292931189902 1212.05078125)">23-Mar</text>
		</g>
		<g>
			<text fill="#595959" font-family="Verdana,Open Sans,DejaVu Sans,sans-serif" font-weight="400" font-size="41" transform="matrix(6.12323e-17 -1 1 6.12323e-17 4069.827768179087 1203.3022384643555)">20-Apr</text>
		</g>
		<g>
			<text fill="#595959" font-family="Verdana,Open Sans,DejaVu Sans,sans-serif" font-weight="400" font-size="41" transform="matrix(6.12323e-17 -1 1 6.12323e-17 4151.961594801683 1214.75341796875)">18-May</text>
		</g>
		<g>
			<text fill="#595959" font-family="Verdana,Open Sans,DejaVu Sans,sans-serif" font-weight="400" font-size="41" transform="matrix(6.12323e-17 -1 1 6.12323e-17 4232.834190955529 1192.2914962768555)">15-Jun</text>
		</g>
		<g>
			<text fill="#595959" font-family="Verdana,Open Sans,DejaVu Sans,sans-serif" font-weight="400" font-size="41" transform="matrix(6.12323e-17 -1 1 6.12323e-17 4315.928955078125 1177.2768478393555)">13-Jul</text>
		</g>
		<g>
			<text fill="#595959" font-family="Verdana,Open Sans,DejaVu Sans,sans-serif" font-weight="400" font-size="41" transform="matrix(1 0 0 1 3169.14111328125 1050)">0</text>
		</g>
		<g>
			<text fill="#595959" font-family="Verdana,Open Sans,DejaVu Sans,sans-serif" font-weight="400" font-size="41" transform="matrix(1 0 0 1 3121.234375 922)">452</text>
		</g>
		<g>
			<text fill="#595959" font-family="Verdana,Open Sans,DejaVu Sans,sans-serif" font-weight="400" font-size="41" transform="matrix(1 0 0 1 3121.1142578125 794)">904</text>
		</g>
		<g>
			<text fill="#595959" font-family="Verdana,Open Sans,DejaVu Sans,sans-serif" font-weight="400" font-size="41" transform="matrix(1 0 0 1 3090.4443359375 666)">1,356</text>
		</g>
		<g>
			<text fill="#595959" font-family="Verdana,Open Sans,DejaVu Sans,sans-serif" font-weight="400" font-size="41" transform="matrix(1 0 0 1 3090.564453125 538)">1,808</text>
		</g>
		<g>
			<text fill="#595959" font-family="Verdana,Open Sans,DejaVu Sans,sans-serif" font-weight="400" font-size="41" transform="matrix(1 0 0 1 3088.72265625 410)">2,260</text>
		</g>
		<g>
			<text fill="#595959" font-family="Verdana,Open Sans,DejaVu Sans,sans-serif" font-weight="400" font-size="41" transform="matrix(1 0 0 1 3556.97119140625 1321)">Week Commencing</text>
		</g>
		<g>
			<text fill="#595959" font-family="Verdana,Open Sans,DejaVu Sans,sans-serif" font-weight="400" font-size="46" transform="matrix(6.12323e-17 -1 1 6.12323e-17 3019.73 953.7919921875)">Number of OS Profiles</text>
		</g>
		<rect x="2918.5" y="347.5" width="1760" height="1043" stroke="#D9D9D9" stroke-width="3.4375" stroke-linejoin="round" stroke-miterlimit="10" fill="none" />
		<g>
			<path d="M3228.5 1038 3249.0384615384614 1038 3269.576923076923 1038 3290.1153846153848 1038 3310.653846153846 1038 3331.1923076923076 1038 3351.730769230769 1038 3372.269230769231 1038 3392.8076923076924 1038 3413.346153846154 1038 3433.8846153846152 1038 3454.423076923077 1038 3474.9615384615386 1038 3495.5 1038 3516.0384615384614 1038 3536.576923076923 1038 3557.1153846153848 1038 3577.653846153846 1038 3598.1923076923076 1038 3618.7307692307695 1038 3639.269230769231 1038 3659.8076923076924 1038 3680.346153846154 1038 3700.8846153846152 1038 3721.423076923077 1038 3741.9615384615386 1038 3762.5 1038 3783.0384615384614 1038 3803.576923076923 1038 3824.1153846153848 1038 3844.653846153846 1038 3865.1923076923076 1038 3885.7307692307695 1038 3906.269230769231 1038 3926.8076923076924 1038 3947.346153846154 1038 3967.8846153846152 1038 3988.423076923077 1038 4008.9615384615386 1038 4029.5 1038 4050.038461538462 1038 4070.576923076923 1038 4091.1153846153848 1038 4111.653846153846 1038 4132.192307692308 1038 4152.7307692307695 1038 4173.2692307692305 1038 4193.807692307692 1038 4214.346153846154 1038 4234.884615384615 1038 4255.423076923077 1038 4275.961538461539 1038 4296.5 1038 4296.5 710.070796460177 4275.961538461539 710.070796460177 4255.423076923077 710.637168141593 4234.884615384615 710.9203539823009 4214.346153846154 711.4867256637168 4193.807692307692 712.0530973451328 4173.2692307692305 712.6194690265487 4152.7307692307695 713.1858407079646 4132.192307692308 713.1858407079646 4111.653846153846 713.4690265486726 4091.1153846153848 713.4690265486726 4070.576923076923 713.4690265486726 4050.038461538462 713.7522123893805 4029.5 714.0353982300885 4008.9615384615386 714.0353982300885 3988.423076923077 715.1681415929204 3967.8846153846152 716.8672566371681 3947.346153846154 717.433628318584 3926.8076923076924 717.433628318584 3906.269230769231 717.716814159292 3885.7307692307695 718 3865.1923076923076 718.8495575221239 3844.653846153846 719.4159292035398 3824.1153846153848 720.2654867256638 3803.576923076923 721.1150442477876 3783.0384615384614 721.3982300884956 3762.5 721.6814159292035 3741.9615384615386 721.6814159292035 3721.423076923077 722.2477876106195 3700.8846153846152 722.5309734513274 3680.346153846154 723.0973451327434 3659.8076923076924 723.0973451327434 3639.269230769231 723.3805309734514 3618.7307692307695 723.6637168141592 3598.1923076923076 723.9469026548672 3577.653846153846 724.7964601769911 3557.1153846153848 725.646017699115 3536.576923076923 725.929203539823 3516.0384615384614 726.212389380531 3495.5 726.212389380531 3474.9615384615386 726.7787610619469 3454.423076923077 728.1946902654868 3433.8846153846152 729.0442477876106 3413.346153846154 729.3274336283187 3392.8076923076924 729.3274336283187 3372.269230769231 729.6106194690266 3351.730769230769 729.6106194690266 3331.1923076923076 729.6106194690266 3310.653846153846 729.8938053097345 3290.1153846153848 730.7433628318583 3269.576923076923 730.7433628318583 3249.0384615384614 731.0265486725664 3228.5 731.3097345132744 3228.5 1038Z" fill="#f48c7d" opacity="0.9" />
		</g>
		<g>
			<path d="M3228.5 731.3097345132744 3249.0384615384614 731.0265486725664 3269.576923076923 730.7433628318583 3290.1153846153848 730.7433628318583 3310.653846153846 729.8938053097345 3331.1923076923076 729.6106194690266 3351.730769230769 729.6106194690266 3372.269230769231 729.6106194690266 3392.8076923076924 729.3274336283187 3413.346153846154 729.3274336283187 3433.8846153846152 729.0442477876106 3454.423076923077 728.1946902654868 3474.9615384615386 726.7787610619469 3495.5 726.212389380531 3516.0384615384614 726.212389380531 3536.576923076923 725.929203539823 3557.1153846153848 725.646017699115 3577.653846153846 724.7964601769911 3598.1923076923076 723.9469026548672 3618.7307692307695 723.6637168141592 3639.269230769231 723.3805309734514 3659.8076923076924 723.0973451327434 3680.346153846154 723.0973451327434 3700.8846153846152 722.5309734513274 3721.423076923077 722.2477876106195 3741.9615384615386 721.6814159292035 3762.5 721.6814159292035 3783.0384615384614 721.3982300884956 3803.576923076923 721.1150442477876 3824.1153846153848 720.2654867256638 3844.653846153846 719.4159292035398 3865.1923076923076 718.8495575221239 3885.7307692307695 718 3906.269230769231 717.716814159292 3926.8076923076924 717.433628318584 3947.346153846154 717.433628318584 3967.8846153846152 716.8672566371681 3988.423076923077 715.1681415929204 4008.9615384615386 714.0353982300885 4029.5 714.0353982300885 4050.038461538462 713.7522123893805 4070.576923076923 713.4690265486726 4091.1153846153848 713.4690265486726 4111.653846153846 713.4690265486726 4132.192307692308 713.1858407079646 4152.7307692307695 713.1858407079646 4173.2692307692305 712.6194690265487 4193.807692307692 712.0530973451328 4214.346153846154 711.4867256637168 4234.884615384615 710.9203539823009 4255.423076923077 710.637168141593 4275.961538461539 710.070796460177 4296.5 710.070796460177 4296.5 548.0884955752213 4275.961538461539 548.0884955752213 4255.423076923077 549.7876106194691 4234.884615384615 550.070796460177 4214.346153846154 550.637168141593 4193.807692307692 552.3362831858408 4173.2692307692305 553.4690265486726 4152.7307692307695 555.1681415929204 4132.192307692308 555.1681415929204 4111.653846153846 557.433628318584 4091.1153846153848 557.433628318584 4070.576923076923 557.433628318584 4050.038461538462 559.4159292035398 4029.5 559.6991150442478 4008.9615384615386 560.8318584070796 3988.423076923077 563.0973451327434 3967.8846153846152 565.362831858407 3947.346153846154 565.929203539823 3926.8076923076924 567.0619469026549 3906.269230769231 568.7610619469026 3885.7307692307695 569.0442477876106 3865.1923076923076 570.4601769911504 3844.653846153846 571.0265486725664 3824.1153846153848 573.0088495575221 3803.576923076923 577.2566371681417 3783.0384615384614 577.5398230088496 3762.5 578.1061946902654 3741.9615384615386 578.1061946902654 3721.423076923077 578.6725663716815 3700.8846153846152 578.9557522123894 3680.346153846154 580.9380530973451 3659.8076923076924 580.0884955752213 3639.269230769231 580.9380530973452 3618.7307692307695 581.221238938053 3598.1923076923076 581.5044247787611 3577.653846153846 582.3539823008849 3557.1153846153848 584.3362831858407 3536.576923076923 585.1858407079646 3516.0384615384614 585.4690265486727 3495.5 585.4690265486727 3474.9615384615386 586.0353982300885 3454.423076923077 590.283185840708 3433.8846153846152 591.4159292035398 3413.346153846154 591.6991150442478 3392.8076923076924 593.3982300884957 3372.269230769231 593.9646017699115 3351.730769230769 593.9646017699115 3331.1923076923076 594.8141592920354 3310.653846153846 595.3805309734513 3290.1153846153848 596.5132743362831 3269.576923076923 596.5132743362831 3249.0384615384614 597.0796460176991 3228.5 597.3628318584072 3228.5 731.3097345132744Z" fill="#005aa6" opacity="0.9" />
		</g>
		<g>
			<path d="M3228.5 597.3628318584072 3249.0384615384614 597.0796460176991 3269.576923076923 596.5132743362831 3290.1153846153848 596.5132743362831 3310.653846153846 595.3805309734513 3331.1923076923076 594.8141592920354 3351.730769230769 593.9646017699115 3372.269230769231 593.9646017699115 3392.8076923076924 593.3982300884957 3413.346153846154 591.6991150442478 3433.8846153846152 591.4159292035398 3454.423076923077 590.283185840708 3474.9615384615386 586.0353982300885 3495.5 585.4690265486727 3516.0384615384614 585.4690265486727 3536.576923076923 585.1858407079646 3557.1153846153848 584.3362831858407 3577.653846153846 582.3539823008849 3598.1923076923076 581.5044247787611 3618.7307692307695 581.221238938053 3639.269230769231 580.9380530973452 3659.8076923076924 580.0884955752213 3680.346153846154 580.9380530973451 3700.8846153846152 578.9557522123894 3721.423076923077 578.6725663716815 3741.9615384615386 578.1061946902654 3762.5 578.1061946902654 3783.0384615384614 577.5398230088496 3803.576923076923 577.2566371681417 3824.1153846153848 573.0088495575221 3844.653846153846 571.0265486725664 3865.1923076923076 570.4601769911504 3885.7307692307695 569.0442477876106 3906.269230769231 568.7610619469026 3926.8076923076924 567.0619469026549 3947.346153846154 565.929203539823 3967.8846153846152 565.362831858407 3988.423076923077 563.0973451327434 4008.9615384615386 560.8318584070796 4029.5 559.6991150442478 4050.038461538462 559.4159292035398 4070.576923076923 557.433628318584 4091.1153846153848 557.433628318584 4111.653846153846 557.433628318584 4132.192307692308 555.1681415929204 4152.7307692307695 555.1681415929204 4173.2692307692305 553.4690265486726 4193.807692307692 552.3362831858408 4214.346153846154 550.637168141593 4234.884615384615 550.070796460177 4255.423076923077 549.7876106194691 4275.961538461539 548.0884955752213 4296.5 548.0884955752213 4296.5 489.18584070796464 4275.961538461539 489.18584070796464 4255.423076923077 491.1681415929204 4234.884615384615 491.4513274336283 4214.346153846154 492.01769911504425 4193.807692307692 494.00000000000006 4173.2692307692305 495.4159292035398 4152.7307692307695 497.3982300884956 4132.192307692308 497.3982300884956 4111.653846153846 500.2300884955752 4091.1153846153848 500.2300884955752 4070.576923076923 500.2300884955752 4050.038461538462 502.21238938053096 4029.5 502.495575221239 4008.9615384615386 503.91150442477874 3988.423076923077 506.46017699115043 3967.8846153846152 509.00884955752207 3947.346153846154 509.575221238938 3926.8076923076924 510.9911504424779 3906.269230769231 513.2566371681415 3885.7307692307695 513.5398230088496 3865.1923076923076 515.2389380530973 3844.653846153846 516.6548672566372 3824.1153846153848 518.9203539823009 3803.576923076923 523.1681415929204 3783.0384615384614 523.4513274336283 3762.5 524.0176991150441 3741.9615384615386 524.0176991150441 3721.423076923077 524.5840707964602 3700.8846153846152 524.8672566371681 3680.346153846154 527.1327433628319 3659.8076923076924 526.283185840708 3639.269230769231 527.132743362832 3618.7307692307695 527.4159292035398 3598.1923076923076 527.6991150442478 3577.653846153846 529.1150442477876 3557.1153846153848 531.9469026548672 3536.576923076923 532.7964601769912 3516.0384615384614 533.0796460176992 3495.5 533.0796460176992 3474.9615384615386 533.929203539823 3454.423076923077 539.0265486725664 3433.8846153846152 540.4424778761062 3413.346153846154 540.7256637168142 3392.8076923076924 542.424778761062 3372.269230769231 542.9911504424779 3351.730769230769 542.9911504424779 3331.1923076923076 544.6902654867256 3310.653846153846 545.5398230088496 3290.1153846153848 546.9557522123893 3269.576923076923 547.5221238938052 3249.0384615384614 548.0884955752213 3228.5 548.3716814159293 3228.5 597.3628318584072Z" fill="#f6a118" opacity="0.9" />
		</g>
		<g>
			<path d="M3228.5 548.3716814159293 3249.0384615384614 548.0884955752213 3269.576923076923 547.5221238938052 3290.1153846153848 546.9557522123893 3310.653846153846 545.5398230088496 3331.1923076923076 544.6902654867256 3351.730769230769 542.9911504424779 3372.269230769231 542.9911504424779 3392.8076923076924 542.424778761062 3413.346153846154 540.7256637168142 3433.8846153846152 540.4424778761062 3454.423076923077 539.0265486725664 3474.9615384615386 533.929203539823 3495.5 533.0796460176992 3516.0384615384614 533.0796460176992 3536.576923076923 532.7964601769912 3557.1153846153848 531.9469026548672 3577.653846153846 529.1150442477876 3598.1923076923076 527.6991150442478 3618.7307692307695 527.4159292035398 3639.269230769231 527.132743362832 3659.8076923076924 526.283185840708 3680.346153846154 527.1327433628319 3700.8846153846152 524.8672566371681 3721.423076923077 524.5840707964602 3741.9615384615386 524.0176991150441 3762.5 524.0176991150441 3783.0384615384614 523.4513274336283 3803.576923076923 523.1681415929204 3824.1153846153848 518.9203539823009 3844.653846153846 516.6548672566372 3865.1923076923076 515.2389380530973 3885.7307692307695 513.5398230088496 3906.269230769231 513.2566371681415 3926.8076923076924 510.9911504424779 3947.346153846154 509.575221238938 3967.8846153846152 509.00884955752207 3988.423076923077 506.46017699115043 4008.9615384615386 503.91150442477874 4029.5 502.495575221239 4050.038461538462 502.21238938053096 4070.576923076923 500.2300884955752 4091.1153846153848 500.2300884955752 4111.653846153846 500.2300884955752 4132.192307692308 497.3982300884956 4152.7307692307695 497.3982300884956 4173.2692307692305 495.4159292035398 4193.807692307692 494.00000000000006 4214.346153846154 492.01769911504425 4234.884615384615 491.4513274336283 4255.423076923077 491.1681415929204 4275.961538461539 489.18584070796464 4296.5 489.18584070796464 4296.5 435.66371681415933 4275.961538461539 435.66371681415933 4255.423076923077 437.6460176991151 4234.884615384615 437.929203539823 4214.346153846154 438.49557522123894 4193.807692307692 440.47787610619474 4173.2692307692305 441.8938053097345 4152.7307692307695 443.8761061946903 4132.192307692308 443.8761061946903 4111.653846153846 446.7079646017699 4091.1153846153848 446.7079646017699 4070.576923076923 446.7079646017699 4050.038461538462 448.69026548672565 4029.5 448.9734513274337 4008.9615384615386 450.3893805309734 3988.423076923077 452.9380530973451 3967.8846153846152 455.48672566371675 3947.346153846154 456.0530973451327 3926.8076923076924 457.46902654867256 3906.269230769231 459.7345132743362 3885.7307692307695 460.01769911504425 3865.1923076923076 461.99999999999994 3844.653846153846 463.41592920353986 3824.1153846153848 465.6814159292035 3803.576923076923 469.92920353982305 3783.0384615384614 470.21238938053096 3762.5 470.7787610619468 3741.9615384615386 470.7787610619468 3721.423076923077 471.34513274336285 3700.8846153846152 471.62831858407077 3680.346153846154 473.89380530973455 3659.8076923076924 473.0442477876107 3639.269230769231 473.89380530973466 3618.7307692307695 474.17699115044246 3598.1923076923076 474.4601769911505 3577.653846153846 475.8761061946903 3557.1153846153848 478.7079646017699 3536.576923076923 479.5575221238939 3516.0384615384614 479.8407079646019 3495.5 479.8407079646019 3474.9615384615386 480.69026548672565 3454.423076923077 485.78761061946904 3433.8846153846152 487.20353982300884 3413.346153846154 487.48672566371687 3392.8076923076924 489.1858407079647 3372.269230769231 489.75221238938053 3351.730769230769 489.75221238938053 3331.1923076923076 491.45132743362825 3310.653846153846 492.3008849557522 3290.1153846153848 493.7168141592919 3269.576923076923 494.28318584070786 3249.0384615384614 494.8495575221239 3228.5 495.13274336283195 3228.5 548.3716814159293Z" fill="#e62d39" opacity="0.9" />
		</g>
		<g>
			<path d="M3228.5 495.13274336283195 3249.0384615384614 494.8495575221239 3269.576923076923 494.28318584070786 3290.1153846153848 493.7168141592919 3310.653846153846 492.3008849557522 3331.1923076923076 491.45132743362825 3351.730769230769 489.75221238938053 3372.269230769231 489.75221238938053 3392.8076923076924 489.1858407079647 3413.346153846154 487.48672566371687 3433.8846153846152 487.20353982300884 3454.423076923077 485.78761061946904 3474.9615384615386 480.69026548672565 3495.5 479.8407079646019 3516.0384615384614 479.8407079646019 3536.576923076923 479.5575221238939 3557.1153846153848 478.7079646017699 3577.653846153846 475.8761061946903 3598.1923076923076 474.4601769911505 3618.7307692307695 474.17699115044246 3639.269230769231 473.89380530973466 3659.8076923076924 473.0442477876107 3680.346153846154 473.89380530973455 3700.8846153846152 471.62831858407077 3721.423076923077 471.34513274336285 3741.9615384615386 470.7787610619468 3762.5 470.7787610619468 3783.0384615384614 470.21238938053096 3803.576923076923 469.92920353982305 3824.1153846153848 465.6814159292035 3844.653846153846 463.41592920353986 3865.1923076923076 461.99999999999994 3885.7307692307695 460.01769911504425 3906.269230769231 459.7345132743362 3926.8076923076924 457.46902654867256 3947.346153846154 456.0530973451327 3967.8846153846152 455.48672566371675 3988.423076923077 452.9380530973451 4008.9615384615386 450.3893805309734 4029.5 448.9734513274337 4050.038461538462 448.69026548672565 4070.576923076923 446.7079646017699 4091.1153846153848 446.7079646017699 4111.653846153846 446.7079646017699 4132.192307692308 443.8761061946903 4152.7307692307695 443.8761061946903 4173.2692307692305 441.8938053097345 4193.807692307692 440.47787610619474 4214.346153846154 438.49557522123894 4234.884615384615 437.929203539823 4255.423076923077 437.6460176991151 4275.961538461539 435.66371681415933 4296.5 435.66371681415933 4296.5 410.4601769911505 4275.961538461539 410.4601769911505 4255.423076923077 412.44247787610624 4234.884615384615 412.72566371681415 4214.346153846154 413.57522123893807 4193.807692307692 415.5575221238939 4173.2692307692305 416.9734513274336 4152.7307692307695 418.9557522123894 4132.192307692308 418.9557522123894 4111.653846153846 421.78761061946904 4091.1153846153848 421.78761061946904 4070.576923076923 421.78761061946904 4050.038461538462 423.7699115044248 4029.5 424.0530973451328 4008.9615384615386 425.46902654867256 3988.423076923077 428.01769911504425 3967.8846153846152 430.5663716814159 3947.346153846154 431.13274336283183 3926.8076923076924 432.5486725663717 3906.269230769231 434.81415929203536 3885.7307692307695 435.0973451327434 3865.1923076923076 437.0796460176991 3844.653846153846 438.495575221239 3824.1153846153848 440.76106194690266 3803.576923076923 445.0088495575222 3783.0384615384614 445.2920353982301 3762.5 445.85840707964593 3741.9615384615386 445.85840707964593 3721.423076923077 446.424778761062 3700.8846153846152 446.7079646017699 3680.346153846154 448.9734513274337 3659.8076923076924 448.1238938053098 3639.269230769231 448.9734513274338 3618.7307692307695 449.2566371681416 3598.1923076923076 449.5398230088496 3577.653846153846 450.9557522123894 3557.1153846153848 453.78761061946904 3536.576923076923 454.637168141593 3516.0384615384614 454.92035398230104 3495.5 455.203539823009 3474.9615384615386 456.05309734513276 3454.423076923077 461.15044247787614 3433.8846153846152 462.56637168141594 3413.346153846154 462.849557522124 3392.8076923076924 464.5486725663718 3372.269230769231 465.11504424778764 3351.730769230769 465.11504424778764 3331.1923076923076 466.81415929203536 3310.653846153846 467.66371681415933 3290.1153846153848 469.079646017699 3269.576923076923 469.64601769911496 3249.0384615384614 470.212389380531 3228.5 470.49557522123905 3228.5 495.13274336283195Z" fill="#fdd5a4" opacity="0.9" />
		</g>
		<g>
			<path d="M3228.5 470.49557522123905 3249.0384615384614 470.212389380531 3269.576923076923 469.64601769911496 3290.1153846153848 469.079646017699 3310.653846153846 467.66371681415933 3331.1923076923076 466.81415929203536 3351.730769230769 465.11504424778764 3372.269230769231 465.11504424778764 3392.8076923076924 464.5486725663718 3413.346153846154 462.849557522124 3433.8846153846152 462.56637168141594 3454.423076923077 461.15044247787614 3474.9615384615386 456.05309734513276 3495.5 455.203539823009 3516.0384615384614 454.92035398230104 3536.576923076923 454.637168141593 3557.1153846153848 453.78761061946904 3577.653846153846 450.9557522123894 3598.1923076923076 449.5398230088496 3618.7307692307695 449.2566371681416 3639.269230769231 448.9734513274338 3659.8076923076924 448.1238938053098 3680.346153846154 448.9734513274337 3700.8846153846152 446.7079646017699 3721.423076923077 446.424778761062 3741.9615384615386 445.85840707964593 3762.5 445.85840707964593 3783.0384615384614 445.2920353982301 3803.576923076923 445.0088495575222 3824.1153846153848 440.76106194690266 3844.653846153846 438.495575221239 3865.1923076923076 437.0796460176991 3885.7307692307695 435.0973451327434 3906.269230769231 434.81415929203536 3926.8076923076924 432.5486725663717 3947.346153846154 431.13274336283183 3967.8846153846152 430.5663716814159 3988.423076923077 428.01769911504425 4008.9615384615386 425.46902654867256 4029.5 424.0530973451328 4050.038461538462 423.7699115044248 4070.576923076923 421.78761061946904 4091.1153846153848 421.78761061946904 4111.653846153846 421.78761061946904 4132.192307692308 418.9557522123894 4152.7307692307695 418.9557522123894 4173.2692307692305 416.9734513274336 4193.807692307692 415.5575221238939 4214.346153846154 413.57522123893807 4234.884615384615 412.72566371681415 4255.423076923077 412.44247787610624 4275.961538461539 410.4601769911505 4296.5 410.4601769911505 4296.5 398.00000000000006 4275.961538461539 398.00000000000006 4255.423076923077 399.9823008849558 4234.884615384615 400.2654867256637 4214.346153846154 401.11504424778764 4193.807692307692 403.09734513274344 4173.2692307692305 404.5132743362832 4152.7307692307695 406.495575221239 4132.192307692308 406.495575221239 4111.653846153846 409.3274336283186 4091.1153846153848 409.3274336283186 4070.576923076923 409.3274336283186 4050.038461538462 411.30973451327435 4029.5 411.5929203539824 4008.9615384615386 413.0088495575221 3988.423076923077 415.5575221238938 3967.8846153846152 418.10619469026545 3947.346153846154 418.6725663716814 3926.8076923076924 420.08849557522126 3906.269230769231 422.3539823008849 3885.7307692307695 422.63716814159295 3865.1923076923076 424.61946902654864 3844.653846153846 426.31858407079653 3824.1153846153848 428.5840707964602 3803.576923076923 432.8318584070797 3783.0384615384614 433.11504424778764 3762.5 433.68141592920347 3741.9615384615386 433.68141592920347 3721.423076923077 434.2477876106195 3700.8846153846152 434.53097345132744 3680.346153846154 436.7964601769912 3659.8076923076924 435.94690265486736 3639.269230769231 436.79646017699133 3618.7307692307695 437.07964601769913 3598.1923076923076 437.36283185840716 3577.653846153846 438.77876106194697 3557.1153846153848 441.6106194690266 3536.576923076923 442.46017699115055 3516.0384615384614 442.7433628318586 3495.5 443.02654867256655 3474.9615384615386 443.8761061946903 3454.423076923077 448.9734513274337 3433.8846153846152 450.3893805309735 3413.346153846154 450.6725663716815 3392.8076923076924 452.37168141592934 3372.269230769231 452.9380530973452 3351.730769230769 452.9380530973452 3331.1923076923076 454.6371681415929 3310.653846153846 455.48672566371687 3290.1153846153848 456.90265486725656 3269.576923076923 457.4690265486725 3249.0384615384614 458.03539823008856 3228.5 458.3185840707966 3228.5 470.49557522123905Z" fill="#55c0e9" opacity="0.9" />
		</g>
		<g>
			<rect x="4372" y="431" width="22.9995" height="23" fill="#f48c7d" />
		</g>
		<g>
			<text fill="#595959" font-family="Verdana,Open Sans,DejaVu Sans,sans-serif" font-weight="400" font-size="41" transform="matrix(1 0 0 1 4404.56 454)">Other</text>
		</g>
		<g>
			<rect x="4372" y="508" width="22.9995" height="23" fill="#005aa6" />
		</g>
		<g>
			<text fill="#595959" font-family="Verdana,Open Sans,DejaVu Sans,sans-serif" font-weight="400" font-size="41" transform="matrix(1 0 0 1 4404.56 531)">iOS</text>
		</g>
		<g>
			<rect x="4372" y="585" width="22.9995" height="23" fill="#f6a118" />
		</g>
		<g>
			<text fill="#595959" font-family="Verdana,Open Sans,DejaVu Sans,sans-serif" font-weight="400" font-size="41" transform="matrix(1 0 0 1 4404.56 608)">macOS</text>
		</g>
		<g>
			<rect x="4372" y="662" width="22.9995" height="23" fill="#e62d39" />
		</g>
		<g>
			<text fill="#595959" font-family="Verdana,Open Sans,DejaVu Sans,sans-serif" font-weight="400" font-size="41" transform="matrix(1 0 0 1 4404.56 685)">Android</text>
		</g>
		<g>
			<rect x="4372" y="739" width="22.9995" height="23" fill="#fdd5a4" />
		</g>
		<g>
			<text fill="#595959" font-family="Verdana,Open Sans,DejaVu Sans,sans-serif" font-weight="400" font-size="41" transform="matrix(1 0 0 1 4404.56 762)">Linux</text>
		</g>
		<g>
			<rect x="4372" y="816" width="22.9995" height="23" fill="#55c0e9" />
		</g>
		<g>
			<text fill="#595959" font-family="Verdana,Open Sans,DejaVu Sans,sans-serif" font-weight="400" font-size="41" transform="matrix(1 0 0 1 4404.56 839)">Windows</text>
		</g>
	</g>
</svg>
