<svg width="1763" height="1046"
    xmlns="http://www.w3.org/2000/svg"
	xmlns:xlink="http://www.w3.org/1999/xlink" xml:space="preserve" overflow="hidden">
	<defs>
		<clipPath id="clip0">
			<rect x="2917" y="346" width="1763" height="1046"/>
		</clipPath>
	</defs>
	<g clip-path="url(#clip0)" transform="translate(-2917 -346)">
		<rect x="2918" y="347" width="1760" height="1043" fill="#FFFFFF" />
		<g>
			<path d="
			M3228.5 974.532 4296.5 974.532
			M3228.5 910.53 4296.5 910.53
			M3228.5 846.528 4296.5 846.528
			M3228.5 781.526 4296.5 781.526
			M3228.5 717.524 4296.5 717.524
			M3228.5 653.522 4296.5 653.522
			M3228.5 589.52 4296.5 589.52
			M3228.5 525.517 4296.5 525.517
			M3228.5 461.515 4296.5 461.515
			M3228.5 397.5 4296.5 397.5" stroke="#D9D9D9" stroke-width="3.4375" stroke-linejoin="round" stroke-miterlimit="10" fill="none" />
		</g>
		<g>
			<path d="M 1038.5 4296.5 1038.5" stroke="#D9D9D9" stroke-width="3.4375" stroke-linejoin="round" stroke-miterlimit="10" fill="none" fill-rule="evenodd" />
		</g>
		<g>
			<text fill="#595959" font-family="Verdana,sans-serif" font-weight="400" font-size="41" transform="matrix(6.12323e-17 -1 1 6.12323e-17 3244.5 1210)">22-Jan</text>
		</g>
		<g>
			<text fill="#595959" font-family="Verdana,sans-serif" font-weight="400" font-size="41" transform="matrix(6.12323e-17 -1 1 6.12323e-17 3328.264705882353 1214)">19-Feb</text>
		</g>
		<g>
			<text fill="#595959" font-family="Verdana,sans-serif" font-weight="400" font-size="41" transform="matrix(6.12323e-17 -1 1 6.12323e-17 3412.029411764706 1221)">18-Mar</text>
		</g>
		<g>
			<text fill="#595959" font-family="Verdana,sans-serif" font-weight="400" font-size="41" transform="matrix(6.12323e-17 -1 1 6.12323e-17 3499.294117647059 1214)">15-Apr</text>
		</g>
		<g>
			<text fill="#595959" font-family="Verdana,sans-serif" font-weight="400" font-size="41" transform="matrix(6.12323e-17 -1 1 6.12323e-17 3583.0588235294117 1226)">13-May</text>
		</g>
		<g>
			<text fill="#595959" font-family="Verdana,sans-serif" font-weight="400" font-size="41" transform="matrix(6.12323e-17 -1 1 6.12323e-17 3663.323529411765 1209)">10-Jun</text>
		</g>
		<g>
			<text fill="#595959" font-family="Verdana,sans-serif" font-weight="400" font-size="41" transform="matrix(6.12323e-17 -1 1 6.12323e-17 3747.0882352941176 1197)">08-Jul</text>
		</g>
		<g>
			<text fill="#595959" font-family="Verdana,sans-serif" font-weight="400" font-size="41" transform="matrix(6.12323e-17 -1 1 6.12323e-17 3834.3529411764707 1221)">05-Aug</text>
		</g>
		<g>
			<text fill="#595959" font-family="Verdana,sans-serif" font-weight="400" font-size="41" transform="matrix(6.12323e-17 -1 1 6.12323e-17 3918.1176470588234 1222)">02-Sep</text>
		</g>
		<g>
			<text fill="#595959" font-family="Verdana,sans-serif" font-weight="400" font-size="41" transform="matrix(6.12323e-17 -1 1 6.12323e-17 4001.8823529411766 1221)">30-Sep</text>
		</g>
		<g>
			<text fill="#595959" font-family="Verdana,sans-serif" font-weight="400" font-size="41" transform="matrix(6.12323e-17 -1 1 6.12323e-17 4082.1470588235293 1215)">28-Oct</text>
		</g>
		<g>
			<text fill="#595959" font-family="Verdana,sans-serif" font-weight="400" font-size="41" transform="matrix(6.12323e-17 -1 1 6.12323e-17 4165.911764705882 1224)">25-Nov</text>
		</g>
		<g>
			<text fill="#595959" font-family="Verdana,sans-serif" font-weight="400" font-size="41" transform="matrix(6.12323e-17 -1 1 6.12323e-17 4249.676470588235 1222)">30-Dec</text>
		</g>
		<g>
			<text fill="#595959" font-family="Verdana,sans-serif" font-weight="400" font-size="41" transform="matrix(1 0 0 1 3167.5 1050)">0</text>
		</g>
		<g>
			<text fill="#595959" font-family="Verdana,sans-serif" font-weight="400" font-size="41" transform="matrix(1 0 0 1 3115.5 922)">392</text>
		</g>
		<g>
			<text fill="#595959" font-family="Verdana,sans-serif" font-weight="400" font-size="41" transform="matrix(1 0 0 1 3114.5 794)">784</text>
		</g>
		<g>
			<text fill="#595959" font-family="Verdana,sans-serif" font-weight="400" font-size="41" transform="matrix(1 0 0 1 3076.5 666)">1,177</text>
		</g>
		<g>
			<text fill="#595959" font-family="Verdana,sans-serif" font-weight="400" font-size="41" transform="matrix(1 0 0 1 3077.5 538)">1,569</text>
		</g>
		<g>
			<text fill="#595959" font-family="Verdana,sans-serif" font-weight="400" font-size="41" transform="matrix(1 0 0 1 3078.5 410)">1,961</text>
		</g>
		<g>
			<text fill="#595959" font-family="Verdana,sans-serif" font-weight="400" font-size="41" transform="matrix(1 0 0 1 3544.5 1321)">Week Commencing</text>
		</g>
		<g>
			<text fill="#595959" font-family="Verdana,sans-serif" font-weight="400" font-size="46" transform="matrix(6.12323e-17 -1 1 6.12323e-17 3019.73 970.75)">Number of OS Profiles</text>
		</g>
		<rect x="2918.5" y="347.5" width="1760" height="1043" stroke="#D9D9D9" stroke-width="3.4375" stroke-linejoin="round" stroke-miterlimit="10" fill="none" />
		<g>
			<path d="M3228.5 1038 3249.4411764705883 1038 3270.3823529411766 1038 3291.323529411765 1038 3312.264705882353 1038 3333.205882352941 1038 3354.1470588235293 1038 3375.0882352941176 1038 3396.029411764706 1038 3416.970588235294 1038 3437.9117647058824 1038 3458.8529411764707 1038 3479.794117647059 1038 3500.735294117647 1038 3521.676470588235 1038 3542.6176470588234 1038 3563.5588235294117 1038 3584.5 1038 3605.4411764705883 1038 3626.3823529411766 1038 3647.323529411765 1038 3668.264705882353 1038 3689.205882352941 1038 3710.1470588235293 1038 3731.0882352941176 1038 3752.029411764706 1038 3772.970588235294 1038 3793.9117647058824 1038 3814.8529411764707 1038 3835.7941176470586 1038 3856.735294117647 1038 3877.676470588235 1038 3898.6176470588234 1038 3919.5588235294117 1038 3940.5 1038 3961.4411764705883 1038 3982.3823529411766 1038 4003.323529411765 1038 4024.264705882353 1038 4045.2058823529414 1038 4066.1470588235293 1038 4087.0882352941176 1038 4108.029411764706 1038 4128.970588235294 1038 4149.911764705882 1038 4170.85294117647 1038 4191.794117647059 1038 4212.735294117647 1038 4233.676470588235 1038 4254.617647058823 1038 4275.558823529412 1038 4296.5 1038 4296.5 697.6022437531872 4275.558823529412 697.9286078531361 4254.617647058823 697.9286078531361 4233.676470588235 697.9286078531361 4212.735294117647 697.9286078531361 4191.794117647059 698.5813360530342 4170.85294117647 698.5813360530342 4149.911764705882 699.2340642529322 4128.970588235294 699.8867924528302 4108.029411764706 700.2131565527792 4087.0882352941176 700.5395206527282 4066.1470588235293 700.5395206527282 4045.2058823529414 700.8658847526772 4024.264705882353 700.8658847526772 4003.323529411765 702.4977052524223 3982.3823529411766 702.8240693523712 3961.4411764705883 703.8031616522183 3940.5 704.1295257521672 3919.5588235294117 705.1086180520142 3898.6176470588234 705.7613462519123 3877.676470588235 705.7613462519123 3856.735294117647 706.0877103518612 3835.7941176470586 706.0877103518612 3814.8529411764707 706.4140744518103 3793.9117647058824 706.4140744518103 3772.970588235294 707.3931667516573 3752.029411764706 707.3931667516573 3731.0882352941176 707.7195308516064 3710.1470588235293 710.6568077511474 3689.205882352941 710.6568077511474 3668.264705882353 711.3095359510454 3647.323529411765 712.2886282508923 3626.3823529411766 712.9413564507904 3605.4411764705883 714.2468128505864 3584.5 714.8995410504845 3563.5588235294117 715.2259051504334 3542.6176470588234 715.5522692503824 3521.676470588235 715.5522692503824 3500.735294117647 715.8786333503315 3479.794117647059 716.2049974502804 3458.8529411764707 716.2049974502804 3437.9117647058824 717.1840897501274 3416.970588235294 718.1631820499745 3396.029411764706 719.4686384497705 3375.0882352941176 720.4477307496176 3354.1470588235293 720.4477307496176 3333.205882352941 721.7531871494136 3312.264705882353 721.7531871494136 3291.323529411765 721.7531871494136 3270.3823529411766 722.7322794492607 3249.4411764705883 723.0586435492096 3228.5 723.3850076491585 3228.5 1038Z" fill="#fdd5a4" opacity="0.9" />
		</g>
		<g>
			<path d="M3228.5 723.3850076491585 3249.4411764705883 723.0586435492096 3270.3823529411766 722.7322794492607 3291.323529411765 721.7531871494136 3312.264705882353 721.7531871494136 3333.205882352941 721.7531871494136 3354.1470588235293 720.4477307496176 3375.0882352941176 720.4477307496176 3396.029411764706 719.4686384497705 3416.970588235294 718.1631820499745 3437.9117647058824 717.1840897501274 3458.8529411764707 716.2049974502804 3479.794117647059 716.2049974502804 3500.735294117647 715.8786333503315 3521.676470588235 715.5522692503824 3542.6176470588234 715.5522692503824 3563.5588235294117 715.2259051504334 3584.5 714.8995410504845 3605.4411764705883 714.2468128505864 3626.3823529411766 712.9413564507904 3647.323529411765 712.2886282508923 3668.264705882353 711.3095359510454 3689.205882352941 710.6568077511474 3710.1470588235293 710.6568077511474 3731.0882352941176 707.7195308516064 3752.029411764706 707.3931667516573 3772.970588235294 707.3931667516573 3793.9117647058824 706.4140744518103 3814.8529411764707 706.4140744518103 3835.7941176470586 706.0877103518612 3856.735294117647 706.0877103518612 3877.676470588235 705.7613462519123 3898.6176470588234 705.7613462519123 3919.5588235294117 705.1086180520142 3940.5 704.1295257521672 3961.4411764705883 703.8031616522183 3982.3823529411766 702.8240693523712 4003.323529411765 702.4977052524223 4024.264705882353 700.8658847526772 4045.2058823529414 700.8658847526772 4066.1470588235293 700.5395206527282 4087.0882352941176 700.5395206527282 4108.029411764706 700.2131565527792 4128.970588235294 699.8867924528302 4149.911764705882 699.2340642529322 4170.85294117647 698.5813360530342 4191.794117647059 698.5813360530342 4212.735294117647 697.9286078531361 4233.676470588235 697.9286078531361 4254.617647058823 697.9286078531361 4275.558823529412 697.9286078531361 4296.5 697.6022437531872 4296.5 552.3702192758797 4275.558823529412 552.6965833758286 4254.617647058823 553.3493115757266 4233.676470588235 553.3493115757266 4212.735294117647 553.3493115757266 4191.794117647059 554.6547679755226 4170.85294117647 554.9811320754717 4149.911764705882 555.6338602753697 4128.970588235294 557.5920448750637 4108.029411764706 557.9184089750128 4087.0882352941176 558.2447730749618 4066.1470588235293 559.2238653748088 4045.2058823529414 560.2029576746557 4024.264705882353 560.2029576746557 4003.323529411765 561.8347781744009 3982.3823529411766 562.8138704742478 3961.4411764705883 563.7929627740948 3940.5 564.1193268740437 3919.5588235294117 565.7511473737889 3898.6176470588234 566.403875573687 3877.676470588235 566.403875573687 3856.735294117647 566.7302396736359 3835.7941176470586 566.7302396736359 3814.8529411764707 568.3620601733809 3793.9117647058824 569.9938806731259 3772.970588235294 571.299337072922 3752.029411764706 571.299337072922 3731.0882352941176 571.625701172871 3710.1470588235293 574.5629780724121 3689.205882352941 574.5629780724121 3668.264705882353 575.5420703722591 3647.323529411765 577.5002549719529 3626.3823529411766 578.152983171851 3605.4411764705883 579.458439571647 3584.5 580.7638959714432 3563.5588235294117 581.7429882712901 3542.6176470588234 582.0693523712391 3521.676470588235 582.0693523712391 3500.735294117647 582.7220805711372 3479.794117647059 583.3748087710351 3458.8529411764707 583.3748087710351 3437.9117647058824 584.6802651708311 3416.970588235294 586.9648138704742 3396.029411764706 588.2702702702703 3375.0882352941176 589.2493625701173 3354.1470588235293 590.5548189699133 3333.205882352941 591.8602753697094 3312.264705882353 591.8602753697094 3291.323529411765 592.1866394696584 3270.3823529411766 593.8184599694034 3249.4411764705883 594.4711881693014 3228.5 595.4502804691483 3228.5 723.3850076491585Z" fill="#e62d39" opacity="0.9" />
		</g>
		<g>
			<path d="M3228.5 595.4502804691483 3249.4411764705883 594.4711881693014 3270.3823529411766 593.8184599694034 3291.323529411765 592.1866394696584 3312.264705882353 591.8602753697094 3333.205882352941 591.8602753697094 3354.1470588235293 590.5548189699133 3375.0882352941176 589.2493625701173 3396.029411764706 588.2702702702703 3416.970588235294 586.9648138704742 3437.9117647058824 584.6802651708311 3458.8529411764707 583.3748087710351 3479.794117647059 583.3748087710351 3500.735294117647 582.7220805711372 3521.676470588235 582.0693523712391 3542.6176470588234 582.0693523712391 3563.5588235294117 581.7429882712901 3584.5 580.7638959714432 3605.4411764705883 579.458439571647 3626.3823529411766 578.152983171851 3647.323529411765 577.5002549719529 3668.264705882353 575.5420703722591 3689.205882352941 574.5629780724121 3710.1470588235293 574.5629780724121 3731.0882352941176 571.625701172871 3752.029411764706 571.299337072922 3772.970588235294 571.299337072922 3793.9117647058824 569.9938806731259 3814.8529411764707 568.3620601733809 3835.7941176470586 566.7302396736359 3856.735294117647 566.7302396736359 3877.676470588235 566.403875573687 3898.6176470588234 566.403875573687 3919.5588235294117 565.7511473737889 3940.5 564.1193268740437 3961.4411764705883 563.7929627740948 3982.3823529411766 562.8138704742478 4003.323529411765 561.8347781744009 4024.264705882353 560.2029576746557 4045.2058823529414 560.2029576746557 4066.1470588235293 559.2238653748088 4087.0882352941176 558.2447730749618 4108.029411764706 557.9184089750128 4128.970588235294 557.5920448750637 4149.911764705882 555.6338602753697 4170.85294117647 554.9811320754717 4191.794117647059 554.6547679755226 4212.735294117647 553.3493115757266 4233.676470588235 553.3493115757266 4254.617647058823 553.3493115757266 4275.558823529412 552.6965833758286 4296.5 552.3702192758797 4296.5 491.0137684854666 4275.558823529412 491.3401325854155 4254.617647058823 491.9928607853135 4233.676470588235 491.9928607853135 4212.735294117647 491.9928607853135 4191.794117647059 493.29831718510957 4170.85294117647 493.6246812850586 4149.911764705882 494.2774094849566 4128.970588235294 496.5619581845997 4108.029411764706 496.88832228454874 4087.0882352941176 497.2146863844978 4066.1470588235293 498.1937786843448 4045.2058823529414 499.1728709841917 4024.264705882353 499.1728709841917 4003.323529411765 500.80469148393684 3982.3823529411766 501.78378378378375 3961.4411764705883 502.7628760836308 3940.5 503.0892401835797 3919.5588235294117 504.7210606833248 3898.6176470588234 505.3737888832229 3877.676470588235 505.3737888832229 3856.735294117647 505.70015298317185 3835.7941176470586 505.70015298317185 3814.8529411764707 507.33197348291685 3793.9117647058824 508.96379398266185 3772.970588235294 510.2692503824579 3752.029411764706 510.2692503824579 3731.0882352941176 510.595614482407 3710.1470588235293 513.532891381948 3689.205882352941 513.532891381948 3668.264705882353 514.5119836817951 3647.323529411765 516.4701682814889 3626.3823529411766 517.122896481387 3605.4411764705883 519.0810810810809 3584.5 520.3865374808771 3563.5588235294117 521.365629780724 3542.6176470588234 522.0183579806221 3521.676470588235 522.0183579806221 3500.735294117647 522.6710861805202 3479.794117647059 523.3238143804181 3458.8529411764707 523.3238143804181 3437.9117647058824 524.6292707802141 3416.970588235294 526.9138194798572 3396.029411764706 528.2192758796533 3375.0882352941176 529.1983681795003 3354.1470588235293 530.5038245792963 3333.205882352941 531.8092809790924 3312.264705882353 531.8092809790924 3291.323529411765 532.1356450790414 3270.3823529411766 533.7674655787864 3249.4411764705883 534.4201937786844 3228.5 535.3992860785313 3228.5 595.4502804691483Z" fill="#005aa6" opacity="0.9" />
		</g>
		<g>
			<path d="M3228.5 535.3992860785313 3249.4411764705883 534.4201937786844 3270.3823529411766 533.7674655787864 3291.323529411765 532.1356450790414 3312.264705882353 531.8092809790924 3333.205882352941 531.8092809790924 3354.1470588235293 530.5038245792963 3375.0882352941176 529.1983681795003 3396.029411764706 528.2192758796533 3416.970588235294 526.9138194798572 3437.9117647058824 524.6292707802141 3458.8529411764707 523.3238143804181 3479.794117647059 523.3238143804181 3500.735294117647 522.6710861805202 3521.676470588235 522.0183579806221 3542.6176470588234 522.0183579806221 3563.5588235294117 521.365629780724 3584.5 520.3865374808771 3605.4411764705883 519.0810810810809 3626.3823529411766 517.122896481387 3647.323529411765 516.4701682814889 3668.264705882353 514.5119836817951 3689.205882352941 513.532891381948 3710.1470588235293 513.532891381948 3731.0882352941176 510.595614482407 3752.029411764706 510.2692503824579 3772.970588235294 510.2692503824579 3793.9117647058824 508.96379398266185 3814.8529411764707 507.33197348291685 3835.7941176470586 505.70015298317185 3856.735294117647 505.70015298317185 3877.676470588235 505.3737888832229 3898.6176470588234 505.3737888832229 3919.5588235294117 504.7210606833248 3940.5 503.0892401835797 3961.4411764705883 502.7628760836308 3982.3823529411766 501.78378378378375 4003.323529411765 500.80469148393684 4024.264705882353 499.1728709841917 4045.2058823529414 499.1728709841917 4066.1470588235293 498.1937786843448 4087.0882352941176 497.2146863844978 4108.029411764706 496.88832228454874 4128.970588235294 496.5619581845997 4149.911764705882 494.2774094849566 4170.85294117647 493.6246812850586 4191.794117647059 493.29831718510957 4212.735294117647 491.9928607853135 4233.676470588235 491.9928607853135 4254.617647058823 491.9928607853135 4275.558823529412 491.3401325854155 4296.5 491.0137684854666 4296.5 439.4482406935237 4275.558823529412 439.77460479347263 4254.617647058823 440.4273329933706 4233.676470588235 440.4273329933706 4212.735294117647 440.4273329933706 4191.794117647059 442.7118816930137 4170.85294117647 443.03824579296275 4149.911764705882 443.69097399286073 4128.970588235294 446.3018867924528 4108.029411764706 446.3018867924529 4087.0882352941176 446.6282508924019 4066.1470588235293 447.93370729219794 4045.2058823529414 449.23916369199384 4024.264705882353 449.5655277919429 4003.323529411765 451.523712391637 3982.3823529411766 452.5028046914839 3961.4411764705883 453.4818969913309 3940.5 454.13462519122885 3919.5588235294117 455.76644569097397 3898.6176470588234 456.41917389087206 3877.676470588235 456.41917389087206 3856.735294117647 456.745537990821 3835.7941176470586 456.419173890872 3814.8529411764707 459.03008669046403 3793.9117647058824 461.314635390107 3772.970588235294 462.6200917899031 3752.029411764706 462.6200917899031 3731.0882352941176 462.62009178990314 3710.1470588235293 465.5573686894442 3689.205882352941 465.5573686894442 3668.264705882353 466.86282508924023 3647.323529411765 469.1473737888831 3626.3823529411766 469.8001019887812 3605.4411764705883 471.75828658847513 3584.5 473.0637429882713 3563.5588235294117 474.6955634880162 3542.6176470588234 475.3482916879143 3521.676470588235 475.3482916879143 3500.735294117647 476.0010198878124 3479.794117647059 476.65374808771026 3458.8529411764707 476.65374808771026 3437.9117647058824 478.2855685874554 3416.970588235294 481.22284548699645 3396.029411764706 482.5283018867925 3375.0882352941176 483.50739418663954 3354.1470588235293 484.8128505864355 3333.205882352941 486.44467108618056 3312.264705882353 486.7710351861296 3291.323529411765 487.75012748597663 3270.3823529411766 489.7083120856706 3249.4411764705883 490.3610402855686 3228.5 491.3401325854155 3228.5 535.3992860785313Z" fill="#f6a118" opacity="0.9" />
		</g>
		<g>
			<path d="M3228.5 491.3401325854155 3249.4411764705883 490.3610402855686 3270.3823529411766 489.7083120856706 3291.323529411765 487.75012748597663 3312.264705882353 486.7710351861296 3333.205882352941 486.44467108618056 3354.1470588235293 484.8128505864355 3375.0882352941176 483.50739418663954 3396.029411764706 482.5283018867925 3416.970588235294 481.22284548699645 3437.9117647058824 478.2855685874554 3458.8529411764707 476.65374808771026 3479.794117647059 476.65374808771026 3500.735294117647 476.0010198878124 3521.676470588235 475.3482916879143 3542.6176470588234 475.3482916879143 3563.5588235294117 474.6955634880162 3584.5 473.0637429882713 3605.4411764705883 471.75828658847513 3626.3823529411766 469.8001019887812 3647.323529411765 469.1473737888831 3668.264705882353 466.86282508924023 3689.205882352941 465.5573686894442 3710.1470588235293 465.5573686894442 3731.0882352941176 462.62009178990314 3752.029411764706 462.6200917899031 3772.970588235294 462.6200917899031 3793.9117647058824 461.314635390107 3814.8529411764707 459.03008669046403 3835.7941176470586 456.419173890872 3856.735294117647 456.745537990821 3877.676470588235 456.41917389087206 3898.6176470588234 456.41917389087206 3919.5588235294117 455.76644569097397 3940.5 454.13462519122885 3961.4411764705883 453.4818969913309 3982.3823529411766 452.5028046914839 4003.323529411765 451.523712391637 4024.264705882353 449.5655277919429 4045.2058823529414 449.23916369199384 4066.1470588235293 447.93370729219794 4087.0882352941176 446.6282508924019 4108.029411764706 446.3018867924529 4128.970588235294 446.3018867924528 4149.911764705882 443.69097399286073 4170.85294117647 443.03824579296275 4191.794117647059 442.7118816930137 4212.735294117647 440.4273329933706 4233.676470588235 440.4273329933706 4254.617647058823 440.4273329933706 4275.558823529412 439.77460479347263 4296.5 439.4482406935237 4296.5 412.0336562978072 4275.558823529412 412.36002039775616 4254.617647058823 413.01274859765414 4233.676470588235 413.01274859765414 4212.735294117647 413.01274859765414 4191.794117647059 415.29729729729723 4170.85294117647 415.6236613972463 4149.911764705882 416.27638959714426 4128.970588235294 418.88730239673635 4108.029411764706 418.8873023967364 4087.0882352941176 419.21366649668545 4066.1470588235293 420.51912289648146 4045.2058823529414 421.82457929627736 4024.264705882353 422.4773074961754 4003.323529411765 424.4354920958695 3982.3823529411766 425.4145843957164 3961.4411764705883 426.39367669556344 3940.5 427.04640489546136 3919.5588235294117 428.6782253952065 3898.6176470588234 429.3309535951046 3877.676470588235 429.3309535951046 3856.735294117647 429.6573176950535 3835.7941176470586 429.3309535951045 3814.8529411764707 431.94186639469655 3793.9117647058824 434.22641509433953 3772.970588235294 435.5318714941356 3752.029411764706 435.5318714941356 3731.0882352941176 435.53187149413566 3710.1470588235293 438.46914839367673 3689.205882352941 438.46914839367673 3668.264705882353 439.77460479347275 3647.323529411765 442.0591534931156 3626.3823529411766 442.7118816930137 3605.4411764705883 444.67006629270765 3584.5 445.97552269250383 3563.5588235294117 447.6073431922487 3542.6176470588234 448.2600713921468 3521.676470588235 448.58643549209586 3500.735294117647 449.23916369199395 3479.794117647059 449.8918918918918 3458.8529411764707 449.8918918918918 3437.9117647058824 451.52371239163693 3416.970588235294 454.460989291178 3396.029411764706 455.7664456909741 3375.0882352941176 456.7455379908211 3354.1470588235293 458.05099439061706 3333.205882352941 459.6828148903621 3312.264705882353 460.00917899031117 3291.323529411765 460.9882712901582 3270.3823529411766 462.9464558898522 3249.4411764705883 463.59918408975017 3228.5 464.5782763895971 3228.5 491.3401325854155Z" fill="#f48c7d" opacity="0.9" />
		</g>
		<g>
			<path d="M3228.5 464.5782763895971 3249.4411764705883 463.59918408975017 3270.3823529411766 462.9464558898522 3291.323529411765 460.9882712901582 3312.264705882353 460.00917899031117 3333.205882352941 459.6828148903621 3354.1470588235293 458.05099439061706 3375.0882352941176 456.7455379908211 3396.029411764706 455.7664456909741 3416.970588235294 454.460989291178 3437.9117647058824 451.52371239163693 3458.8529411764707 449.8918918918918 3479.794117647059 449.8918918918918 3500.735294117647 449.23916369199395 3521.676470588235 448.58643549209586 3542.6176470588234 448.2600713921468 3563.5588235294117 447.6073431922487 3584.5 445.97552269250383 3605.4411764705883 444.67006629270765 3626.3823529411766 442.7118816930137 3647.323529411765 442.0591534931156 3668.264705882353 439.77460479347275 3689.205882352941 438.46914839367673 3710.1470588235293 438.46914839367673 3731.0882352941176 435.53187149413566 3752.029411764706 435.5318714941356 3772.970588235294 435.5318714941356 3793.9117647058824 434.22641509433953 3814.8529411764707 431.94186639469655 3835.7941176470586 429.3309535951045 3856.735294117647 429.6573176950535 3877.676470588235 429.3309535951046 3898.6176470588234 429.3309535951046 3919.5588235294117 428.6782253952065 3940.5 427.04640489546136 3961.4411764705883 426.39367669556344 3982.3823529411766 425.4145843957164 4003.323529411765 424.4354920958695 4024.264705882353 422.4773074961754 4045.2058823529414 421.82457929627736 4066.1470588235293 420.51912289648146 4087.0882352941176 419.21366649668545 4108.029411764706 418.8873023967364 4128.970588235294 418.88730239673635 4149.911764705882 416.27638959714426 4170.85294117647 415.6236613972463 4191.794117647059 415.29729729729723 4212.735294117647 413.01274859765414 4233.676470588235 413.01274859765414 4254.617647058823 413.01274859765414 4275.558823529412 412.36002039775616 4296.5 412.0336562978072 4296.5 398 4275.558823529412 398.32636409994893 4254.617647058823 398.9790922998469 4233.676470588235 398.9790922998469 4212.735294117647 398.9790922998469 4191.794117647059 401.26364099949 4170.85294117647 401.59000509943905 4149.911764705882 402.24273329933703 4128.970588235294 404.8536460989291 4108.029411764706 404.8536460989292 4087.0882352941176 405.1800101988782 4066.1470588235293 404.5272819989802 4045.2058823529414 405.8327383987761 4024.264705882353 406.4854665986741 4003.323529411765 408.44365119836823 3982.3823529411766 409.42274349821514 3961.4411764705883 410.40183579806217 3940.5 411.0545639979601 3919.5588235294117 412.6863844977052 3898.6176470588234 413.3391126976033 3877.676470588235 413.3391126976033 3856.735294117647 413.66547679755223 3835.7941176470586 413.33911269760324 3814.8529411764707 415.95002549719527 3793.9117647058824 418.23457419683825 3772.970588235294 419.5400305966343 3752.029411764706 419.5400305966343 3731.0882352941176 420.1927587965324 3710.1470588235293 423.1300356960735 3689.205882352941 423.1300356960735 3668.264705882353 424.4354920958695 3647.323529411765 426.7200407955124 3626.3823529411766 427.0464048954614 3605.4411764705883 429.6573176950534 3584.5 430.9627740948496 3563.5588235294117 432.59459459459447 3542.6176470588234 433.24732279449256 3521.676470588235 433.5736868944416 3500.735294117647 434.2264150943397 3479.794117647059 434.87914329423756 3458.8529411764707 434.87914329423756 3437.9117647058824 436.5109637939827 3416.970588235294 439.44824069352376 3396.029411764706 440.75369709331983 3375.0882352941176 441.73278939316685 3354.1470588235293 443.0382457929628 3333.205882352941 444.6700662927079 3312.264705882353 444.9964303926569 3291.323529411765 445.97552269250394 3270.3823529411766 447.93370729219794 3249.4411764705883 448.5864354920959 3228.5 449.5655277919428 3228.5 464.5782763895971Z" fill="#55c0e9" opacity="0.9" />
		</g>
		<g>
			<rect x="4372" y="431" width="22.9995" height="23" fill="#fdd5a4" />
		</g>
		<g>
			<text fill="#595959" font-family="Verdana,sans-serif" font-weight="400" font-size="41" transform="matrix(1 0 0 1 4404.56 454)">Other</text>
		</g>
		<g>
			<rect x="4372" y="508" width="22.9995" height="23" fill="#e62d39" />
		</g>
		<g>
			<text fill="#595959" font-family="Verdana,sans-serif" font-weight="400" font-size="41" transform="matrix(1 0 0 1 4404.56 531)">iOS</text>
		</g>
		<g>
			<rect x="4372" y="585" width="22.9995" height="23" fill="#005aa6" />
		</g>
		<g>
			<text fill="#595959" font-family="Verdana,sans-serif" font-weight="400" font-size="41" transform="matrix(1 0 0 1 4404.56 608)">Android</text>
		</g>
		<g>
			<rect x="4372" y="662" width="22.9995" height="23" fill="#f6a118" />
		</g>
		<g>
			<text fill="#595959" font-family="Verdana,sans-serif" font-weight="400" font-size="41" transform="matrix(1 0 0 1 4404.56 685)">macOS</text>
		</g>
		<g>
			<rect x="4372" y="739" width="22.9995" height="23" fill="#f48c7d" />
		</g>
		<g>
			<text fill="#595959" font-family="Verdana,sans-serif" font-weight="400" font-size="41" transform="matrix(1 0 0 1 4404.56 762)">Linux</text>
		</g>
		<g>
			<rect x="4372" y="816" width="22.9995" height="23" fill="#55c0e9" />
		</g>
		<g>
			<text fill="#595959" font-family="Verdana,sans-serif" font-weight="400" font-size="41" transform="matrix(1 0 0 1 4404.56 839)">Windows</text>
		</g>
	</g>
</svg>
