<svg width="1763" height="1046"
    xmlns="http://www.w3.org/2000/svg"
	xmlns:xlink="http://www.w3.org/1999/xlink" xml:space="preserve" overflow="hidden">
	<defs>
		<clipPath id="clip0">
			<rect x="2917" y="346" width="1763" height="1046"/>
		</clipPath>
	</defs>
	<g clip-path="url(#clip0)" transform="translate(-2917 -346)">
		<rect x="2918" y="347" width="1760" height="1043" fill="#FFFFFF" />
		<g>
			<path d="
			M3228.5 974.532 4296.5 974.532
			M3228.5 910.53 4296.5 910.53
			M3228.5 846.528 4296.5 846.528
			M3228.5 781.526 4296.5 781.526
			M3228.5 717.524 4296.5 717.524
			M3228.5 653.522 4296.5 653.522
			M3228.5 589.52 4296.5 589.52
			M3228.5 525.517 4296.5 525.517
			M3228.5 461.515 4296.5 461.515
			M3228.5 397.5 4296.5 397.5" stroke="#D9D9D9" stroke-width="3.4375" stroke-linejoin="round" stroke-miterlimit="10" fill="none" />
		</g>
		<g>
			<path d="M 1038.5 4296.5 1038.5" stroke="#D9D9D9" stroke-width="3.4375" stroke-linejoin="round" stroke-miterlimit="10" fill="none" fill-rule="evenodd" />
		</g>
		<g>
			<text fill="#595959" font-family="Verdana,sans-serif" font-weight="400" font-size="41" transform="matrix(6.12323e-17 -1 1 6.12323e-17 3248 1226)">13-May</text>
		</g>
		<g>
			<text fill="#595959" font-family="Verdana,sans-serif" font-weight="400" font-size="41" transform="matrix(6.12323e-17 -1 1 6.12323e-17 3328.264705882353 1209)">10-Jun</text>
		</g>
		<g>
			<text fill="#595959" font-family="Verdana,sans-serif" font-weight="400" font-size="41" transform="matrix(6.12323e-17 -1 1 6.12323e-17 3412.029411764706 1197)">08-Jul</text>
		</g>
		<g>
			<text fill="#595959" font-family="Verdana,sans-serif" font-weight="400" font-size="41" transform="matrix(6.12323e-17 -1 1 6.12323e-17 3499.294117647059 1221)">05-Aug</text>
		</g>
		<g>
			<text fill="#595959" font-family="Verdana,sans-serif" font-weight="400" font-size="41" transform="matrix(6.12323e-17 -1 1 6.12323e-17 3583.0588235294117 1222)">02-Sep</text>
		</g>
		<g>
			<text fill="#595959" font-family="Verdana,sans-serif" font-weight="400" font-size="41" transform="matrix(6.12323e-17 -1 1 6.12323e-17 3666.823529411765 1221)">30-Sep</text>
		</g>
		<g>
			<text fill="#595959" font-family="Verdana,sans-serif" font-weight="400" font-size="41" transform="matrix(6.12323e-17 -1 1 6.12323e-17 3747.0882352941176 1215)">28-Oct</text>
		</g>
		<g>
			<text fill="#595959" font-family="Verdana,sans-serif" font-weight="400" font-size="41" transform="matrix(6.12323e-17 -1 1 6.12323e-17 3830.8529411764707 1224)">25-Nov</text>
		</g>
		<g>
			<text fill="#595959" font-family="Verdana,sans-serif" font-weight="400" font-size="41" transform="matrix(6.12323e-17 -1 1 6.12323e-17 3914.6176470588234 1222)">30-Dec</text>
		</g>
		<g>
			<text fill="#595959" font-family="Verdana,sans-serif" font-weight="400" font-size="41" transform="matrix(6.12323e-17 -1 1 6.12323e-17 3998.3823529411766 1210)">27-Jan</text>
		</g>
		<g>
			<text fill="#595959" font-family="Verdana,sans-serif" font-weight="400" font-size="41" transform="matrix(6.12323e-17 -1 1 6.12323e-17 4082.1470588235293 1216)">24-Feb</text>
		</g>
		<g>
			<text fill="#595959" font-family="Verdana,sans-serif" font-weight="400" font-size="41" transform="matrix(6.12323e-17 -1 1 6.12323e-17 4165.911764705882 1223)">24-Mar</text>
		</g>
		<g>
			<text fill="#595959" font-family="Verdana,sans-serif" font-weight="400" font-size="41" transform="matrix(6.12323e-17 -1 1 6.12323e-17 4253.176470588235 1216)">21-Apr</text>
		</g>
		<g>
			<text fill="#595959" font-family="Verdana,sans-serif" font-weight="400" font-size="41" transform="matrix(1 0 0 1 3167.5 1050)">0</text>
		</g>
		<g>
			<text fill="#595959" font-family="Verdana,sans-serif" font-weight="400" font-size="41" transform="matrix(1 0 0 1 3113.5 922)">404</text>
		</g>
		<g>
			<text fill="#595959" font-family="Verdana,sans-serif" font-weight="400" font-size="41" transform="matrix(1 0 0 1 3114.5 794)">808</text>
		</g>
		<g>
			<text fill="#595959" font-family="Verdana,sans-serif" font-weight="400" font-size="41" transform="matrix(1 0 0 1 3077.5 666)">1,213</text>
		</g>
		<g>
			<text fill="#595959" font-family="Verdana,sans-serif" font-weight="400" font-size="41" transform="matrix(1 0 0 1 3076.5 538)">1,617</text>
		</g>
		<g>
			<text fill="#595959" font-family="Verdana,sans-serif" font-weight="400" font-size="41" transform="matrix(1 0 0 1 3076.5 410)">2,021</text>
		</g>
		<g>
			<text fill="#595959" font-family="Verdana,sans-serif" font-weight="400" font-size="41" transform="matrix(1 0 0 1 3544.5 1321)">Week Commencing</text>
		</g>
		<g>
			<text fill="#595959" font-family="Verdana,sans-serif" font-weight="400" font-size="46" transform="matrix(6.12323e-17 -1 1 6.12323e-17 3019.73 970.75)">Number of OS Profiles</text>
		</g>
		<rect x="2918.5" y="347.5" width="1760" height="1043" stroke="#D9D9D9" stroke-width="3.4375" stroke-linejoin="round" stroke-miterlimit="10" fill="none" />
		<g>
			<path d="M3228.5 1038 3249.4411764705883 1038 3270.3823529411766 1038 3291.323529411765 1038 3312.264705882353 1038 3333.205882352941 1038 3354.1470588235293 1038 3375.0882352941176 1038 3396.029411764706 1038 3416.970588235294 1038 3437.9117647058824 1038 3458.8529411764707 1038 3479.794117647059 1038 3500.735294117647 1038 3521.676470588235 1038 3542.6176470588234 1038 3563.5588235294117 1038 3584.5 1038 3605.4411764705883 1038 3626.3823529411766 1038 3647.323529411765 1038 3668.264705882353 1038 3689.205882352941 1038 3710.1470588235293 1038 3731.0882352941176 1038 3752.029411764706 1038 3772.970588235294 1038 3793.9117647058824 1038 3814.8529411764707 1038 3835.7941176470586 1038 3856.735294117647 1038 3877.676470588235 1038 3898.6176470588234 1038 3919.5588235294117 1038 3940.5 1038 3961.4411764705883 1038 3982.3823529411766 1038 4003.323529411765 1038 4024.264705882353 1038 4045.2058823529414 1038 4066.1470588235293 1038 4087.0882352941176 1038 4108.029411764706 1038 4128.970588235294 1038 4149.911764705882 1038 4170.85294117647 1038 4191.794117647059 1038 4212.735294117647 1038 4233.676470588235 1038 4254.617647058823 1038 4275.558823529412 1038 4296.5 1038 4296.5 700.4245423057893 4275.558823529412 700.7412172191985 4254.617647058823 700.4245423057893 4233.676470588235 700.7412172191985 4212.735294117647 701.0578921326077 4191.794117647059 701.0578921326077 4170.85294117647 702.0079168728353 4149.911764705882 702.6412666996537 4128.970588235294 703.2746165264721 4108.029411764706 703.2746165264721 4087.0882352941176 704.5413161801089 4066.1470588235293 705.1746660069273 4045.2058823529414 705.1746660069273 4024.264705882353 705.8080158337457 4003.323529411765 706.4413656605641 3982.3823529411766 707.0747154873825 3961.4411764705883 707.7080653142009 3940.5 708.0247402276101 3919.5588235294117 708.0247402276101 3898.6176470588234 708.0247402276101 3877.676470588235 708.0247402276101 3856.735294117647 708.6580900544285 3835.7941176470586 708.6580900544285 3814.8529411764707 709.291439881247 3793.9117647058824 709.9247897080654 3772.970588235294 710.2414646214745 3752.029411764706 710.5581395348838 3731.0882352941176 710.5581395348838 3710.1470588235293 710.8748144482929 3689.205882352941 710.8748144482929 3668.264705882353 712.458189015339 3647.323529411765 712.7748639287481 3626.3823529411766 713.7248886689758 3605.4411764705883 714.0415635823849 3584.5 714.9915883226126 3563.5588235294117 715.624938149431 3542.6176470588234 715.624938149431 3521.676470588235 715.9416130628401 3500.735294117647 715.9416130628401 3479.794117647059 716.2582879762494 3458.8529411764707 716.2582879762494 3437.9117647058824 717.2083127164769 3416.970588235294 717.2083127164769 3396.029411764706 717.5249876298863 3375.0882352941176 720.3750618505691 3354.1470588235293 720.3750618505691 3333.205882352941 721.0084116773875 3312.264705882353 721.9584364176151 3291.323529411765 722.5917862444335 3270.3823529411766 723.8584858980703 3249.4411764705883 724.4918357248887 3228.5 724.8085106382979 3228.5 1038Z" fill="#fdd5a4" opacity="0.9" />
		</g>
		<g>
			<path d="M3228.5 724.8085106382979 3249.4411764705883 724.4918357248887 3270.3823529411766 723.8584858980703 3291.323529411765 722.5917862444335 3312.264705882353 721.9584364176151 3333.205882352941 721.0084116773875 3354.1470588235293 720.3750618505691 3375.0882352941176 720.3750618505691 3396.029411764706 717.5249876298863 3416.970588235294 717.2083127164769 3437.9117647058824 717.2083127164769 3458.8529411764707 716.2582879762494 3479.794117647059 716.2582879762494 3500.735294117647 715.9416130628401 3521.676470588235 715.9416130628401 3542.6176470588234 715.624938149431 3563.5588235294117 715.624938149431 3584.5 714.9915883226126 3605.4411764705883 714.0415635823849 3626.3823529411766 713.7248886689758 3647.323529411765 712.7748639287481 3668.264705882353 712.458189015339 3689.205882352941 710.8748144482929 3710.1470588235293 710.8748144482929 3731.0882352941176 710.5581395348838 3752.029411764706 710.5581395348838 3772.970588235294 710.2414646214745 3793.9117647058824 709.9247897080654 3814.8529411764707 709.291439881247 3835.7941176470586 708.6580900544285 3856.735294117647 708.6580900544285 3877.676470588235 708.0247402276101 3898.6176470588234 708.0247402276101 3919.5588235294117 708.0247402276101 3940.5 708.0247402276101 3961.4411764705883 707.7080653142009 3982.3823529411766 707.0747154873825 4003.323529411765 706.4413656605641 4024.264705882353 705.8080158337457 4045.2058823529414 705.1746660069273 4066.1470588235293 705.1746660069273 4087.0882352941176 704.5413161801089 4108.029411764706 703.2746165264721 4128.970588235294 703.2746165264721 4149.911764705882 702.6412666996537 4170.85294117647 702.0079168728353 4191.794117647059 701.0578921326077 4212.735294117647 701.0578921326077 4233.676470588235 700.7412172191985 4254.617647058823 700.4245423057893 4275.558823529412 700.7412172191985 4296.5 700.4245423057893 4296.5 552.2206828302822 4275.558823529412 554.4374072241465 4254.617647058823 554.1207323107374 4233.676470588235 554.4374072241465 4212.735294117647 555.3874319643742 4191.794117647059 555.3874319643742 4170.85294117647 558.237506185057 4149.911764705882 559.1875309252846 4128.970588235294 559.820880752103 4108.029411764706 560.4542305789214 4087.0882352941176 561.7209302325582 4066.1470588235293 562.987629886195 4045.2058823529414 562.987629886195 4024.264705882353 564.571004453241 4003.323529411765 565.2043542800594 3982.3823529411766 565.8377041068778 3961.4411764705883 566.7877288471054 3940.5 567.1044037605146 3919.5588235294117 567.737753587333 3898.6176470588234 567.737753587333 3877.676470588235 567.737753587333 3856.735294117647 569.0044532409698 3835.7941176470586 569.321128154379 3814.8529411764707 569.9544779811976 3793.9117647058824 571.8545274616528 3772.970588235294 572.1712023750619 3752.029411764706 572.4878772884712 3731.0882352941176 573.4379020286988 3710.1470588235293 574.3879267689263 3689.205882352941 574.3879267689263 3668.264705882353 575.9713013359724 3647.323529411765 576.9213260761999 3626.3823529411766 577.8713508164276 3605.4411764705883 578.1880257298367 3584.5 579.7714002968828 3563.5588235294117 580.4047501237012 3542.6176470588234 580.4047501237012 3521.676470588235 580.7214250371103 3500.735294117647 580.7214250371103 3479.794117647059 582.3047996041564 3458.8529411764707 583.8881741712024 3437.9117647058824 585.1548738248391 3416.970588235294 585.1548738248391 3396.029411764706 585.4715487382484 3375.0882352941176 588.3216229589312 3354.1470588235293 588.3216229589312 3333.205882352941 589.2716476991588 3312.264705882353 591.1716971796141 3291.323529411765 591.8050470064325 3270.3823529411766 593.0717466600693 3249.4411764705883 594.3384463137061 3228.5 595.2884710539338 3228.5 724.8085106382979Z" fill="#e62d39" opacity="0.9" />
		</g>
		<g>
			<path d="M3228.5 595.2884710539338 3249.4411764705883 594.3384463137061 3270.3823529411766 593.0717466600693 3291.323529411765 591.8050470064325 3312.264705882353 591.1716971796141 3333.205882352941 589.2716476991588 3354.1470588235293 588.3216229589312 3375.0882352941176 588.3216229589312 3396.029411764706 585.4715487382484 3416.970588235294 585.1548738248391 3437.9117647058824 585.1548738248391 3458.8529411764707 583.8881741712024 3479.794117647059 582.3047996041564 3500.735294117647 580.7214250371103 3521.676470588235 580.7214250371103 3542.6176470588234 580.4047501237012 3563.5588235294117 580.4047501237012 3584.5 579.7714002968828 3605.4411764705883 578.1880257298367 3626.3823529411766 577.8713508164276 3647.323529411765 576.9213260761999 3668.264705882353 575.9713013359724 3689.205882352941 574.3879267689263 3710.1470588235293 574.3879267689263 3731.0882352941176 573.4379020286988 3752.029411764706 572.4878772884712 3772.970588235294 572.1712023750619 3793.9117647058824 571.8545274616528 3814.8529411764707 569.9544779811976 3835.7941176470586 569.321128154379 3856.735294117647 569.0044532409698 3877.676470588235 567.737753587333 3898.6176470588234 567.737753587333 3919.5588235294117 567.737753587333 3940.5 567.1044037605146 3961.4411764705883 566.7877288471054 3982.3823529411766 565.8377041068778 4003.323529411765 565.2043542800594 4024.264705882353 564.571004453241 4045.2058823529414 562.987629886195 4066.1470588235293 562.987629886195 4087.0882352941176 561.7209302325582 4108.029411764706 560.4542305789214 4128.970588235294 559.820880752103 4149.911764705882 559.1875309252846 4170.85294117647 558.237506185057 4191.794117647059 555.3874319643742 4212.735294117647 555.3874319643742 4233.676470588235 554.4374072241465 4254.617647058823 554.1207323107374 4275.558823529412 554.4374072241465 4296.5 552.2206828302822 4296.5 492.68579910935193 4275.558823529412 494.90252350321623 4254.617647058823 494.58584858980714 4233.676470588235 494.90252350321623 4212.735294117647 495.85254824344395 4191.794117647059 495.85254824344395 4170.85294117647 498.70262246412676 4149.911764705882 499.65264720435437 4128.970588235294 500.28599703117277 4108.029411764706 500.9193468579912 4087.0882352941176 502.186046511628 4066.1470588235293 503.4527461652648 4045.2058823529414 503.4527461652648 4024.264705882353 505.0361207323108 4003.323529411765 505.6694705591292 3982.3823529411766 506.3028203859476 3961.4411764705883 507.2528451261752 3940.5 507.5695200395844 3919.5588235294117 508.2028698664028 3898.6176470588234 508.2028698664028 3877.676470588235 508.2028698664028 3856.735294117647 509.4695695200396 3835.7941176470586 509.7862444334488 3814.8529411764707 510.41959426026733 3793.9117647058824 512.6363186541317 3772.970588235294 512.9529935675408 3752.029411764706 513.2696684809501 3731.0882352941176 514.2196932211777 3710.1470588235293 515.1697179614052 3689.205882352941 515.1697179614052 3668.264705882353 516.7530925284514 3647.323529411765 517.7031172686789 3626.3823529411766 518.6531420089066 3605.4411764705883 518.9698169223157 3584.5 520.5531914893618 3563.5588235294117 521.1865413161802 3542.6176470588234 521.1865413161802 3521.676470588235 521.5032162295893 3500.735294117647 521.5032162295893 3479.794117647059 523.0865907966354 3458.8529411764707 524.6699653636814 3437.9117647058824 525.9366650173181 3416.970588235294 525.9366650173181 3396.029411764706 526.2533399307274 3375.0882352941176 529.1034141514102 3354.1470588235293 529.1034141514102 3333.205882352941 530.0534388916378 3312.264705882353 531.953488372093 3291.323529411765 532.5868381989114 3270.3823529411766 534.4868876793666 3249.4411764705883 535.7535873330035 3228.5 536.7036120732312 3228.5 595.2884710539338Z" fill="#005aa6" opacity="0.9" />
		</g>
		<g>
			<path d="M3228.5 536.7036120732312 3249.4411764705883 535.7535873330035 3270.3823529411766 534.4868876793666 3291.323529411765 532.5868381989114 3312.264705882353 531.953488372093 3333.205882352941 530.0534388916378 3354.1470588235293 529.1034141514102 3375.0882352941176 529.1034141514102 3396.029411764706 526.2533399307274 3416.970588235294 525.9366650173181 3437.9117647058824 525.9366650173181 3458.8529411764707 524.6699653636814 3479.794117647059 523.0865907966354 3500.735294117647 521.5032162295893 3521.676470588235 521.5032162295893 3542.6176470588234 521.1865413161802 3563.5588235294117 521.1865413161802 3584.5 520.5531914893618 3605.4411764705883 518.9698169223157 3626.3823529411766 518.6531420089066 3647.323529411765 517.7031172686789 3668.264705882353 516.7530925284514 3689.205882352941 515.1697179614052 3710.1470588235293 515.1697179614052 3731.0882352941176 514.2196932211777 3752.029411764706 513.2696684809501 3772.970588235294 512.9529935675408 3793.9117647058824 512.6363186541317 3814.8529411764707 510.41959426026733 3835.7941176470586 509.7862444334488 3856.735294117647 509.4695695200396 3877.676470588235 508.2028698664028 3898.6176470588234 508.2028698664028 3919.5588235294117 508.2028698664028 3940.5 507.5695200395844 3961.4411764705883 507.2528451261752 3982.3823529411766 506.3028203859476 4003.323529411765 505.6694705591292 4024.264705882353 505.0361207323108 4045.2058823529414 503.4527461652648 4066.1470588235293 503.4527461652648 4087.0882352941176 502.186046511628 4108.029411764706 500.9193468579912 4128.970588235294 500.28599703117277 4149.911764705882 499.65264720435437 4170.85294117647 498.70262246412676 4191.794117647059 495.85254824344395 4212.735294117647 495.85254824344395 4233.676470588235 494.90252350321623 4254.617647058823 494.58584858980714 4275.558823529412 494.90252350321623 4296.5 492.68579910935193 4296.5 439.16773874319654 4275.558823529412 441.38446313706083 4254.617647058823 441.06778822365175 4233.676470588235 441.38446313706083 4212.735294117647 442.6511627906978 4191.794117647059 442.6511627906978 4170.85294117647 446.45126175160823 4149.911764705882 447.40128649183583 4128.970588235294 448.03463631865424 4108.029411764706 448.98466105888184 4087.0882352941176 450.25136071251865 4066.1470588235293 451.83473527956465 4045.2058823529414 452.46808510638306 4024.264705882353 454.36813458683827 4003.323529411765 455.6348342404751 3982.3823529411766 456.2681840672935 3961.4411764705883 457.2182088075211 3940.5 457.5348837209303 3919.5588235294117 458.1682335477487 3898.6176470588234 458.1682335477487 3877.676470588235 458.1682335477487 3856.735294117647 460.3849579416131 3835.7941176470586 460.7016328550223 3814.8529411764707 461.3349826818408 3793.9117647058824 463.8683819891144 3772.970588235294 463.8683819891143 3752.029411764706 464.1850569025236 3731.0882352941176 465.45175655616043 3710.1470588235293 466.7184562097971 3689.205882352941 467.0351311232063 3668.264705882353 468.93518060366165 3647.323529411765 469.88520534388914 3626.3823529411766 470.83523008411686 3605.4411764705883 471.46857991093515 3584.5 473.05195447798127 3563.5588235294117 473.6853043047997 3542.6176470588234 473.6853043047997 3521.676470588235 474.00197921820876 3500.735294117647 473.68530430479956 3479.794117647059 476.2187036120733 3458.8529411764707 478.4354280059377 3437.9117647058824 479.7021276595744 3416.970588235294 479.7021276595744 3396.029411764706 479.7021276595745 3375.0882352941176 482.5522018802573 3354.1470588235293 482.5522018802573 3333.205882352941 483.8189015338941 3312.264705882353 486.03562592775853 3291.323529411765 486.66897575457693 3270.3823529411766 488.56902523503214 3249.4411764705883 489.83572488866895 3228.5 491.41909945571507 3228.5 536.7036120732312Z" fill="#f6a118" opacity="0.9" />
		</g>
		<g>
			<path d="M3228.5 491.41909945571507 3249.4411764705883 489.83572488866895 3270.3823529411766 488.56902523503214 3291.323529411765 486.66897575457693 3312.264705882353 486.03562592775853 3333.205882352941 483.8189015338941 3354.1470588235293 482.5522018802573 3375.0882352941176 482.5522018802573 3396.029411764706 479.7021276595745 3416.970588235294 479.7021276595744 3437.9117647058824 479.7021276595744 3458.8529411764707 478.4354280059377 3479.794117647059 476.2187036120733 3500.735294117647 473.68530430479956 3521.676470588235 474.00197921820876 3542.6176470588234 473.6853043047997 3563.5588235294117 473.6853043047997 3584.5 473.05195447798127 3605.4411764705883 471.46857991093515 3626.3823529411766 470.83523008411686 3647.323529411765 469.88520534388914 3668.264705882353 468.93518060366165 3689.205882352941 467.0351311232063 3710.1470588235293 466.7184562097971 3731.0882352941176 465.45175655616043 3752.029411764706 464.1850569025236 3772.970588235294 463.8683819891143 3793.9117647058824 463.8683819891144 3814.8529411764707 461.3349826818408 3835.7941176470586 460.7016328550223 3856.735294117647 460.3849579416131 3877.676470588235 458.1682335477487 3898.6176470588234 458.1682335477487 3919.5588235294117 458.1682335477487 3940.5 457.5348837209303 3961.4411764705883 457.2182088075211 3982.3823529411766 456.2681840672935 4003.323529411765 455.6348342404751 4024.264705882353 454.36813458683827 4045.2058823529414 452.46808510638306 4066.1470588235293 451.83473527956465 4087.0882352941176 450.25136071251865 4108.029411764706 448.98466105888184 4128.970588235294 448.03463631865424 4149.911764705882 447.40128649183583 4170.85294117647 446.45126175160823 4191.794117647059 442.6511627906978 4212.735294117647 442.6511627906978 4233.676470588235 441.38446313706083 4254.617647058823 441.06778822365175 4275.558823529412 441.38446313706083 4296.5 439.16773874319654 4296.5 411.61702127659584 4275.558823529412 414.15042058386933 4254.617647058823 414.15042058386945 4233.676470588235 414.46709549727854 4212.735294117647 415.7337951509155 4191.794117647059 415.7337951509155 4170.85294117647 419.53389411182593 4149.911764705882 420.48391885205353 4128.970588235294 421.11726867887194 4108.029411764706 422.06729341909954 4087.0882352941176 423.65066798614555 4066.1470588235293 425.23404255319156 4045.2058823529414 425.86739238000996 4024.264705882353 427.76744186046517 4003.323529411765 429.034141514102 3982.3823529411766 429.6674913409204 3961.4411764705883 430.617516081148 3940.5 430.9341909945572 3919.5588235294117 431.5675408213756 3898.6176470588234 431.5675408213756 3877.676470588235 431.5675408213756 3856.735294117647 433.78426521524 3835.7941176470586 434.1009401286492 3814.8529411764707 434.7342899554677 3793.9117647058824 437.2676892627413 3772.970588235294 437.2676892627412 3752.029411764706 437.58436417615053 3731.0882352941176 438.85106382978734 3710.1470588235293 440.117763483424 3689.205882352941 440.75111331024243 3668.264705882353 442.65116279069775 3647.323529411765 443.60118753092524 3626.3823529411766 444.55121227115296 3605.4411764705883 445.18456209797125 3584.5 446.7679366650174 3563.5588235294117 447.4012864918358 3542.6176470588234 447.4012864918358 3521.676470588235 447.71796140524486 3500.735294117647 447.40128649183566 3479.794117647059 449.9346857991094 3458.8529411764707 452.1514101929738 3437.9117647058824 453.4181098466105 3416.970588235294 453.4181098466105 3396.029411764706 453.4181098466106 3375.0882352941176 456.2681840672934 3354.1470588235293 456.2681840672934 3333.205882352941 457.5348837209302 3312.264705882353 459.75160811479464 3291.323529411765 460.38495794161304 3270.3823529411766 462.28500742206825 3249.4411764705883 463.55170707570505 3228.5 465.1350816427512 3228.5 491.41909945571507Z" fill="#f48c7d" opacity="0.9" />
		</g>
		<g>
			<path d="M3228.5 465.1350816427512 3249.4411764705883 463.55170707570505 3270.3823529411766 462.28500742206825 3291.323529411765 460.38495794161304 3312.264705882353 459.75160811479464 3333.205882352941 457.5348837209302 3354.1470588235293 456.2681840672934 3375.0882352941176 456.2681840672934 3396.029411764706 453.4181098466106 3416.970588235294 453.4181098466105 3437.9117647058824 453.4181098466105 3458.8529411764707 452.1514101929738 3479.794117647059 449.9346857991094 3500.735294117647 447.40128649183566 3521.676470588235 447.71796140524486 3542.6176470588234 447.4012864918358 3563.5588235294117 447.4012864918358 3584.5 446.7679366650174 3605.4411764705883 445.18456209797125 3626.3823529411766 444.55121227115296 3647.323529411765 443.60118753092524 3668.264705882353 442.65116279069775 3689.205882352941 440.75111331024243 3710.1470588235293 440.117763483424 3731.0882352941176 438.85106382978734 3752.029411764706 437.58436417615053 3772.970588235294 437.2676892627412 3793.9117647058824 437.2676892627413 3814.8529411764707 434.7342899554677 3835.7941176470586 434.1009401286492 3856.735294117647 433.78426521524 3877.676470588235 431.5675408213756 3898.6176470588234 431.5675408213756 3919.5588235294117 431.5675408213756 3940.5 430.9341909945572 3961.4411764705883 430.617516081148 3982.3823529411766 429.6674913409204 4003.323529411765 429.034141514102 4024.264705882353 427.76744186046517 4045.2058823529414 425.86739238000996 4066.1470588235293 425.23404255319156 4087.0882352941176 423.65066798614555 4108.029411764706 422.06729341909954 4128.970588235294 421.11726867887194 4149.911764705882 420.48391885205353 4170.85294117647 419.53389411182593 4191.794117647059 415.7337951509155 4212.735294117647 415.7337951509155 4233.676470588235 414.46709549727854 4254.617647058823 414.15042058386945 4275.558823529412 414.15042058386933 4296.5 411.61702127659584 4296.5 398.0000000000001 4275.558823529412 400.5333993072736 4254.617647058823 400.5333993072737 4233.676470588235 400.8500742206828 4212.735294117647 402.1167738743198 4191.794117647059 402.1167738743198 4170.85294117647 405.9168728352302 4149.911764705882 406.8668975754578 4128.970588235294 407.5002474022762 4108.029411764706 408.4502721425038 4087.0882352941176 410.0336467095498 4066.1470588235293 411.61702127659584 4045.2058823529414 412.25037110341424 4024.264705882353 414.15042058386945 4003.323529411765 415.41712023750625 3982.3823529411766 416.05047006432466 3961.4411764705883 417.00049480455226 3940.5 417.31716971796146 3919.5588235294117 417.95051954477987 3898.6176470588234 417.95051954477987 3877.676470588235 417.95051954477987 3856.735294117647 420.1672439386443 3835.7941176470586 420.4839188520535 3814.8529411764707 421.117268678872 3793.9117647058824 423.6506679861456 3772.970588235294 423.6506679861455 3752.029411764706 423.9673428995548 3731.0882352941176 423.33399307273635 3710.1470588235293 424.60069272637304 3689.205882352941 425.23404255319144 3668.264705882353 427.13409203364677 3647.323529411765 428.08411677387426 3626.3823529411766 429.034141514102 3605.4411764705883 429.66749134092026 3584.5 431.2508659079664 3563.5588235294117 431.8842157347848 3542.6176470588234 431.8842157347848 3521.676470588235 432.2008906481939 3500.735294117647 431.8842157347847 3479.794117647059 434.4176150420584 3458.8529411764707 436.6343394359228 3437.9117647058824 437.9010390895595 3416.970588235294 437.9010390895595 3396.029411764706 438.534388916378 3375.0882352941176 441.38446313706083 3354.1470588235293 441.38446313706083 3333.205882352941 442.65116279069764 3312.264705882353 444.86788718456205 3291.323529411765 445.18456209797125 3270.3823529411766 447.7179614052449 3249.4411764705883 448.9846610588817 3228.5 450.56803562592785 3228.5 465.1350816427512Z" fill="#55c0e9" opacity="0.9" />
		</g>
		<g>
			<rect x="4372" y="431" width="22.9995" height="23" fill="#fdd5a4" />
		</g>
		<g>
			<text fill="#595959" font-family="Verdana,sans-serif" font-weight="400" font-size="41" transform="matrix(1 0 0 1 4404.56 454)">Other</text>
		</g>
		<g>
			<rect x="4372" y="508" width="22.9995" height="23" fill="#e62d39" />
		</g>
		<g>
			<text fill="#595959" font-family="Verdana,sans-serif" font-weight="400" font-size="41" transform="matrix(1 0 0 1 4404.56 531)">iOS</text>
		</g>
		<g>
			<rect x="4372" y="585" width="22.9995" height="23" fill="#005aa6" />
		</g>
		<g>
			<text fill="#595959" font-family="Verdana,sans-serif" font-weight="400" font-size="41" transform="matrix(1 0 0 1 4404.56 608)">Android</text>
		</g>
		<g>
			<rect x="4372" y="662" width="22.9995" height="23" fill="#f6a118" />
		</g>
		<g>
			<text fill="#595959" font-family="Verdana,sans-serif" font-weight="400" font-size="41" transform="matrix(1 0 0 1 4404.56 685)">macOS</text>
		</g>
		<g>
			<rect x="4372" y="739" width="22.9995" height="23" fill="#f48c7d" />
		</g>
		<g>
			<text fill="#595959" font-family="Verdana,sans-serif" font-weight="400" font-size="41" transform="matrix(1 0 0 1 4404.56 762)">Linux</text>
		</g>
		<g>
			<rect x="4372" y="816" width="22.9995" height="23" fill="#55c0e9" />
		</g>
		<g>
			<text fill="#595959" font-family="Verdana,sans-serif" font-weight="400" font-size="41" transform="matrix(1 0 0 1 4404.56 839)">Windows</text>
		</g>
	</g>
</svg>
