<svg width="1763" height="1046"
    xmlns="http://www.w3.org/2000/svg"
	xmlns:xlink="http://www.w3.org/1999/xlink" xml:space="preserve" overflow="hidden">
	<defs>
		<clipPath id="clip0">
			<rect x="2917" y="346" width="1763" height="1046"/>
		</clipPath>
	</defs>
	<g clip-path="url(#clip0)" transform="translate(-2917 -346)">
		<rect x="2918" y="347" width="1760" height="1043" fill="#FFFFFF" />
		<g>
			<path d="
			M3228.5 974.532 4296.5 974.532
			M3228.5 910.53 4296.5 910.53
			M3228.5 846.528 4296.5 846.528
			M3228.5 781.526 4296.5 781.526
			M3228.5 717.524 4296.5 717.524
			M3228.5 653.522 4296.5 653.522
			M3228.5 589.52 4296.5 589.52
			M3228.5 525.517 4296.5 525.517
			M3228.5 461.515 4296.5 461.515
			M3228.5 397.5 4296.5 397.5" stroke="#D9D9D9" stroke-width="3.4375" stroke-linejoin="round" stroke-miterlimit="10" fill="none" />
		</g>
		<g>
			<path d="M 1038.5 4296.5 1038.5" stroke="#D9D9D9" stroke-width="3.4375" stroke-linejoin="round" stroke-miterlimit="10" fill="none" fill-rule="evenodd" />
		</g>
		<g>
			<text fill="#595959" font-family="Verdana,sans-serif" font-weight="400" font-size="41" transform="matrix(6.12323e-17 -1 1 6.12323e-17 3244.5 1225)">06-Nov</text>
		</g>
		<g>
			<text fill="#595959" font-family="Verdana,sans-serif" font-weight="400" font-size="41" transform="matrix(6.12323e-17 -1 1 6.12323e-17 3354.0384615384614 1223)">04-Dec</text>
		</g>
		<g>
			<text fill="#595959" font-family="Verdana,sans-serif" font-weight="400" font-size="41" transform="matrix(6.12323e-17 -1 1 6.12323e-17 3463.576923076923 1210)">01-Jan</text>
		</g>
		<g>
			<text fill="#595959" font-family="Verdana,sans-serif" font-weight="400" font-size="41" transform="matrix(6.12323e-17 -1 1 6.12323e-17 3573.1153846153848 1210)">29-Jan</text>
		</g>
		<g>
			<text fill="#595959" font-family="Verdana,sans-serif" font-weight="400" font-size="41" transform="matrix(6.12323e-17 -1 1 6.12323e-17 3682.653846153846 1216)">26-Feb</text>
		</g>
		<g>
			<text fill="#595959" font-family="Verdana,sans-serif" font-weight="400" font-size="41" transform="matrix(6.12323e-17 -1 1 6.12323e-17 3792.1923076923076 1223)">25-Mar</text>
		</g>
		<g>
			<text fill="#595959" font-family="Verdana,sans-serif" font-weight="400" font-size="41" transform="matrix(6.12323e-17 -1 1 6.12323e-17 3905.230769230769 1216)">22-Apr</text>
		</g>
		<g>
			<text fill="#595959" font-family="Verdana,sans-serif" font-weight="400" font-size="41" transform="matrix(6.12323e-17 -1 1 6.12323e-17 4014.7692307692305 1228)">20-May</text>
		</g>
		<g>
			<text fill="#595959" font-family="Verdana,sans-serif" font-weight="400" font-size="41" transform="matrix(6.12323e-17 -1 1 6.12323e-17 4120.307692307692 1209)">17-Jun</text>
		</g>
		<g>
			<text fill="#595959" font-family="Verdana,sans-serif" font-weight="400" font-size="41" transform="matrix(6.12323e-17 -1 1 6.12323e-17 4230.346153846154 1194)">15-Jul</text>
		</g>
		<g>
			<text fill="#595959" font-family="Verdana,sans-serif" font-weight="400" font-size="41" transform="matrix(1 0 0 1 3167.5 1050)">0</text>
		</g>
		<g>
			<text fill="#595959" font-family="Verdana,sans-serif" font-weight="400" font-size="41" transform="matrix(1 0 0 1 3117.5 922)">381</text>
		</g>
		<g>
			<text fill="#595959" font-family="Verdana,sans-serif" font-weight="400" font-size="41" transform="matrix(1 0 0 1 3115.5 794)">762</text>
		</g>
		<g>
			<text fill="#595959" font-family="Verdana,sans-serif" font-weight="400" font-size="41" transform="matrix(1 0 0 1 3076.5 666)">1,144</text>
		</g>
		<g>
			<text fill="#595959" font-family="Verdana,sans-serif" font-weight="400" font-size="41" transform="matrix(1 0 0 1 3077.5 538)">1,525</text>
		</g>
		<g>
			<text fill="#595959" font-family="Verdana,sans-serif" font-weight="400" font-size="41" transform="matrix(1 0 0 1 3076.5 410)">1,906</text>
		</g>
		<g>
			<text fill="#595959" font-family="Verdana,sans-serif" font-weight="400" font-size="41" transform="matrix(1 0 0 1 3544.5 1321)">Week Commencing</text>
		</g>
		<g>
			<text fill="#595959" font-family="Verdana,sans-serif" font-weight="400" font-size="46" transform="matrix(6.12323e-17 -1 1 6.12323e-17 3019.73 970.75)">Number of OS Profiles</text>
		</g>
		<rect x="2918.5" y="347.5" width="1760" height="1043" stroke="#D9D9D9" stroke-width="3.4375" stroke-linejoin="round" stroke-miterlimit="10" fill="none" />
		<g>
			<path d="M3228.5 1038 3255.8846153846152 1038 3283.269230769231 1038 3310.653846153846 1038 3338.0384615384614 1038 3365.423076923077 1038 3392.8076923076924 1038 3420.1923076923076 1038 3447.576923076923 1038 3474.9615384615386 1038 3502.346153846154 1038 3529.730769230769 1038 3557.1153846153848 1038 3584.5 1038 3611.8846153846152 1038 3639.269230769231 1038 3666.653846153846 1038 3694.0384615384614 1038 3721.423076923077 1038 3748.8076923076924 1038 3776.1923076923076 1038 3803.576923076923 1038 3830.9615384615386 1038 3858.346153846154 1038 3885.730769230769 1038 3913.1153846153848 1038 3940.5 1038 3967.8846153846152 1038 3995.2692307692305 1038 4022.653846153846 1038 4050.0384615384614 1038 4077.423076923077 1038 4104.807692307692 1038 4132.192307692308 1038 4159.576923076923 1038 4186.961538461538 1038 4214.346153846154 1038 4241.7307692307695 1038 4269.115384615385 1038 4296.5 1038 4296.5 696.8457502623295 4269.115384615385 696.8457502623295 4241.7307692307695 697.8530954879329 4214.346153846154 697.8530954879329 4186.961538461538 698.1888772298007 4159.576923076923 701.2109129066107 4132.192307692308 701.2109129066107 4104.807692307692 701.8824763903463 4077.423076923077 702.8898216159496 4050.0384615384614 703.5613850996851 4022.653846153846 704.9045120671564 3995.2692307692305 705.5760755508919 3967.8846153846152 705.9118572927598 3940.5 706.2476390346276 3913.1153846153848 706.2476390346276 3885.730769230769 706.5834207764954 3858.346153846154 706.9192025183631 3830.9615384615386 706.9192025183631 3803.576923076923 707.9265477439665 3776.1923076923076 708.9338929695698 3748.8076923076924 710.2770199370409 3721.423076923077 711.2843651626442 3694.0384615384614 711.2843651626442 3666.653846153846 712.6274921301155 3639.269230769231 712.6274921301155 3611.8846153846152 712.6274921301155 3584.5 713.6348373557188 3557.1153846153848 713.9706190975866 3529.730769230769 714.3064008394545 3502.346153846154 715.3137460650578 3474.9615384615386 715.6495278069256 3447.576923076923 715.9853095487933 3420.1923076923076 715.9853095487933 3392.8076923076924 715.9853095487933 3365.423076923077 715.9853095487933 3338.0384615384614 718 3310.653846153846 718.3357817418678 3283.269230769231 719.0073452256033 3255.8846153846152 719.0073452256033 3228.5 719.6789087093389 3228.5 1038Z" fill="#fdd5a4" opacity="0.9" />
		</g>
		<g>
			<path d="M3228.5 719.6789087093389 3255.8846153846152 719.0073452256033 3283.269230769231 719.0073452256033 3310.653846153846 718.3357817418678 3338.0384615384614 718 3365.423076923077 715.9853095487933 3392.8076923076924 715.9853095487933 3420.1923076923076 715.9853095487933 3447.576923076923 715.9853095487933 3474.9615384615386 715.6495278069256 3502.346153846154 715.3137460650578 3529.730769230769 714.3064008394545 3557.1153846153848 713.9706190975866 3584.5 713.6348373557188 3611.8846153846152 712.6274921301155 3639.269230769231 712.6274921301155 3666.653846153846 712.6274921301155 3694.0384615384614 711.2843651626442 3721.423076923077 711.2843651626442 3748.8076923076924 710.2770199370409 3776.1923076923076 708.9338929695698 3803.576923076923 707.9265477439665 3830.9615384615386 706.9192025183631 3858.346153846154 706.9192025183631 3885.730769230769 706.5834207764954 3913.1153846153848 706.2476390346276 3940.5 706.2476390346276 3967.8846153846152 705.9118572927598 3995.2692307692305 705.5760755508919 4022.653846153846 704.9045120671564 4050.0384615384614 703.5613850996851 4077.423076923077 702.8898216159496 4104.807692307692 701.8824763903463 4132.192307692308 701.2109129066107 4159.576923076923 701.2109129066107 4186.961538461538 698.1888772298007 4214.346153846154 697.8530954879329 4241.7307692307695 697.8530954879329 4269.115384615385 696.8457502623295 4296.5 696.8457502623295 4296.5 554.810073452256 4269.115384615385 556.488982161595 4241.7307692307695 557.8321091290662 4214.346153846154 557.8321091290662 4186.961538461538 558.167890870934 4159.576923076923 561.189926547744 4132.192307692308 561.189926547744 4104.807692307692 562.1972717733473 4077.423076923077 564.211962224554 4050.0384615384614 564.8835257082895 4022.653846153846 566.2266526757608 3995.2692307692305 567.5697796432319 3967.8846153846152 568.5771248688354 3940.5 568.9129066107032 3913.1153846153848 568.9129066107032 3885.730769230769 569.5844700944388 3858.346153846154 570.2560335781743 3830.9615384615386 570.2560335781743 3803.576923076923 571.5991605456454 3776.1923076923076 573.9496327387199 3748.8076923076924 575.292759706191 3721.423076923077 576.3001049317943 3694.0384615384614 577.6432318992654 3666.653846153846 578.9863588667366 3639.269230769231 578.9863588667366 3611.8846153846152 579.3221406086045 3584.5 581.0010493179434 3557.1153846153848 581.672612801679 3529.730769230769 582.6799580272824 3502.346153846154 584.3588667366213 3474.9615384615386 584.6946484784891 3447.576923076923 585.0304302203568 3420.1923076923076 585.0304302203568 3392.8076923076924 586.7093389296957 3365.423076923077 587.3809024134314 3338.0384615384614 589.7313746065058 3310.653846153846 591.0745015739769 3283.269230769231 591.7460650577125 3255.8846153846152 592.0818467995803 3228.5 593.4249737670514 3228.5 719.6789087093389Z" fill="#e62d39" opacity="0.9" />
		</g>
		<g>
			<path d="M3228.5 593.4249737670514 3255.8846153846152 592.0818467995803 3283.269230769231 591.7460650577125 3310.653846153846 591.0745015739769 3338.0384615384614 589.7313746065058 3365.423076923077 587.3809024134314 3392.8076923076924 586.7093389296957 3420.1923076923076 585.0304302203568 3447.576923076923 585.0304302203568 3474.9615384615386 584.6946484784891 3502.346153846154 584.3588667366213 3529.730769230769 582.6799580272824 3557.1153846153848 581.672612801679 3584.5 581.0010493179434 3611.8846153846152 579.3221406086045 3639.269230769231 578.9863588667366 3666.653846153846 578.9863588667366 3694.0384615384614 577.6432318992654 3721.423076923077 576.3001049317943 3748.8076923076924 575.292759706191 3776.1923076923076 573.9496327387199 3803.576923076923 571.5991605456454 3830.9615384615386 570.2560335781743 3858.346153846154 570.2560335781743 3885.730769230769 569.5844700944388 3913.1153846153848 568.9129066107032 3940.5 568.9129066107032 3967.8846153846152 568.5771248688354 3995.2692307692305 567.5697796432319 4022.653846153846 566.2266526757608 4050.0384615384614 564.8835257082895 4077.423076923077 564.211962224554 4104.807692307692 562.1972717733473 4132.192307692308 561.189926547744 4159.576923076923 561.189926547744 4186.961538461538 558.167890870934 4214.346153846154 557.8321091290662 4241.7307692307695 557.8321091290662 4269.115384615385 556.488982161595 4296.5 554.810073452256 4296.5 492.01888772298 4269.115384615385 493.697796432319 4241.7307692307695 495.04092339979024 4214.346153846154 495.04092339979024 4186.961538461538 495.376705141658 4159.576923076923 498.398740818468 4132.192307692308 498.398740818468 4104.807692307692 499.40608604407134 4077.423076923077 501.420776495278 4050.0384615384614 502.09233997901356 4022.653846153846 504.10703043022033 3995.2692307692305 505.45015739769144 3967.8846153846152 506.457502623295 3940.5 507.1290661070306 3913.1153846153848 507.1290661070306 3885.730769230769 507.80062959076616 3858.346153846154 508.4721930745017 3830.9615384615386 508.4721930745017 3803.576923076923 509.8153200419728 3776.1923076923076 512.1657922350472 3748.8076923076924 513.5089192025183 3721.423076923077 514.5162644281216 3694.0384615384614 515.8593913955928 3666.653846153846 517.202518363064 3639.269230769231 517.202518363064 3611.8846153846152 517.5383001049319 3584.5 519.2172088142707 3557.1153846153848 519.8887722980063 3529.730769230769 520.8961175236097 3502.346153846154 522.5750262329486 3474.9615384615386 522.9108079748164 3447.576923076923 523.2465897166842 3420.1923076923076 523.2465897166842 3392.8076923076924 524.9254984260231 3365.423076923077 525.5970619097587 3338.0384615384614 527.9475341028332 3310.653846153846 529.2906610703043 3283.269230769231 529.9622245540398 3255.8846153846152 530.2980062959076 3228.5 531.6411332633787 3228.5 593.4249737670514Z" fill="#005aa6" opacity="0.9" />
		</g>
		<g>
			<path d="M3228.5 531.6411332633787 3255.8846153846152 530.2980062959076 3283.269230769231 529.9622245540398 3310.653846153846 529.2906610703043 3338.0384615384614 527.9475341028332 3365.423076923077 525.5970619097587 3392.8076923076924 524.9254984260231 3420.1923076923076 523.2465897166842 3447.576923076923 523.2465897166842 3474.9615384615386 522.9108079748164 3502.346153846154 522.5750262329486 3529.730769230769 520.8961175236097 3557.1153846153848 519.8887722980063 3584.5 519.2172088142707 3611.8846153846152 517.5383001049319 3639.269230769231 517.202518363064 3666.653846153846 517.202518363064 3694.0384615384614 515.8593913955928 3721.423076923077 514.5162644281216 3748.8076923076924 513.5089192025183 3776.1923076923076 512.1657922350472 3803.576923076923 509.8153200419728 3830.9615384615386 508.4721930745017 3858.346153846154 508.4721930745017 3885.730769230769 507.80062959076616 3913.1153846153848 507.1290661070306 3940.5 507.1290661070306 3967.8846153846152 506.457502623295 3995.2692307692305 505.45015739769144 4022.653846153846 504.10703043022033 4050.0384615384614 502.09233997901356 4077.423076923077 501.420776495278 4104.807692307692 499.40608604407134 4132.192307692308 498.398740818468 4159.576923076923 498.398740818468 4186.961538461538 495.376705141658 4214.346153846154 495.04092339979024 4241.7307692307695 495.04092339979024 4269.115384615385 493.697796432319 4296.5 492.01888772298 4296.5 442.3231899265477 4269.115384615385 444.6736621196223 4241.7307692307695 446.0167890870935 4214.346153846154 446.0167890870935 4186.961538461538 446.0167890870935 4159.576923076923 449.0388247639035 4132.192307692308 449.0388247639035 4104.807692307692 450.3819517313746 4077.423076923077 452.73242392444905 4050.0384615384614 453.4039874081846 4022.653846153846 455.4186778593914 3995.2692307692305 456.7618048268625 3967.8846153846152 458.4407135362016 3940.5 459.1122770199372 3913.1153846153848 459.1122770199372 3885.730769230769 459.78384050367276 3858.346153846154 460.4554039874083 3830.9615384615386 460.4554039874083 3803.576923076923 462.1343126967472 3776.1923076923076 465.1563483735572 3748.8076923076924 466.4994753410283 3721.423076923077 467.50682056663163 3694.0384615384614 468.84994753410274 3666.653846153846 470.52885624344174 3639.269230769231 470.8646379853095 3611.8846153846152 471.87198321091296 3584.5 473.8866736621196 3557.1153846153848 474.5582371458552 3529.730769230769 475.5655823714586 3502.346153846154 477.58027282266534 3474.9615384615386 477.9160545645331 3447.576923076923 478.2518363064009 3420.1923076923076 478.2518363064009 3392.8076923076924 480.9380902413431 3365.423076923077 481.94543546694655 3338.0384615384614 484.295907660021 3310.653846153846 485.9748163693599 3283.269230769231 486.98216159496326 3255.8846153846152 487.6537250786988 3228.5 489.6684155299055 3228.5 531.6411332633787Z" fill="#f6a118" opacity="0.9" />
		</g>
		<g>
			<path d="M3228.5 489.6684155299055 3255.8846153846152 487.6537250786988 3283.269230769231 486.98216159496326 3310.653846153846 485.9748163693599 3338.0384615384614 484.295907660021 3365.423076923077 481.94543546694655 3392.8076923076924 480.9380902413431 3420.1923076923076 478.2518363064009 3447.576923076923 478.2518363064009 3474.9615384615386 477.9160545645331 3502.346153846154 477.58027282266534 3529.730769230769 475.5655823714586 3557.1153846153848 474.5582371458552 3584.5 473.8866736621196 3611.8846153846152 471.87198321091296 3639.269230769231 470.8646379853095 3666.653846153846 470.52885624344174 3694.0384615384614 468.84994753410274 3721.423076923077 467.50682056663163 3748.8076923076924 466.4994753410283 3776.1923076923076 465.1563483735572 3803.576923076923 462.1343126967472 3830.9615384615386 460.4554039874083 3858.346153846154 460.4554039874083 3885.730769230769 459.78384050367276 3913.1153846153848 459.1122770199372 3940.5 459.1122770199372 3967.8846153846152 458.4407135362016 3995.2692307692305 456.7618048268625 4022.653846153846 455.4186778593914 4050.0384615384614 453.4039874081846 4077.423076923077 452.73242392444905 4104.807692307692 450.3819517313746 4132.192307692308 449.0388247639035 4159.576923076923 449.0388247639035 4186.961538461538 446.0167890870935 4214.346153846154 446.0167890870935 4241.7307692307695 446.0167890870935 4269.115384615385 444.6736621196223 4296.5 442.3231899265477 4296.5 414.45330535152146 4269.115384615385 416.8037775445961 4241.7307692307695 418.1469045120673 4214.346153846154 418.1469045120673 4186.961538461538 418.1469045120673 4159.576923076923 421.1689401888773 4132.192307692308 421.1689401888773 4104.807692307692 422.5120671563484 4077.423076923077 424.86253934942283 4050.0384615384614 425.5341028331584 4022.653846153846 427.54879328436516 3995.2692307692305 428.89192025183627 3967.8846153846152 430.5708289611754 3940.5 431.242392444911 3913.1153846153848 431.57817418677877 3885.730769230769 432.2497376705143 3858.346153846154 432.9213011542499 3830.9615384615386 432.9213011542499 3803.576923076923 434.60020986358876 3776.1923076923076 437.62224554039875 3748.8076923076924 438.96537250786986 3721.423076923077 439.9727177334732 3694.0384615384614 441.3158447009443 3666.653846153846 442.9947534102833 3639.269230769231 443.33053515215107 3611.8846153846152 444.3378803777545 3584.5 446.3525708289612 3557.1153846153848 447.02413431269673 3529.730769230769 448.0314795383002 3502.346153846154 450.0461699895069 3474.9615384615386 450.38195173137467 3447.576923076923 450.71773347324245 3420.1923076923076 450.71773347324245 3392.8076923076924 453.40398740818466 3365.423076923077 454.4113326337881 3338.0384615384614 456.76180482686254 3310.653846153846 458.4407135362015 3283.269230769231 459.4480587618048 3255.8846153846152 460.11962224554037 3228.5 462.13431269674703 3228.5 489.6684155299055Z" fill="#f48c7d" opacity="0.9" />
		</g>
		<g>
			<path d="M3228.5 462.13431269674703 3255.8846153846152 460.11962224554037 3283.269230769231 459.4480587618048 3310.653846153846 458.4407135362015 3338.0384615384614 456.76180482686254 3365.423076923077 454.4113326337881 3392.8076923076924 453.40398740818466 3420.1923076923076 450.71773347324245 3447.576923076923 450.71773347324245 3474.9615384615386 450.38195173137467 3502.346153846154 450.0461699895069 3529.730769230769 448.0314795383002 3557.1153846153848 447.02413431269673 3584.5 446.3525708289612 3611.8846153846152 444.3378803777545 3639.269230769231 443.33053515215107 3666.653846153846 442.9947534102833 3694.0384615384614 441.3158447009443 3721.423076923077 439.9727177334732 3748.8076923076924 438.96537250786986 3776.1923076923076 437.62224554039875 3803.576923076923 434.60020986358876 3830.9615384615386 432.9213011542499 3858.346153846154 432.9213011542499 3885.730769230769 432.2497376705143 3913.1153846153848 431.57817418677877 3940.5 431.242392444911 3967.8846153846152 430.5708289611754 3995.2692307692305 428.89192025183627 4022.653846153846 427.54879328436516 4050.0384615384614 425.5341028331584 4077.423076923077 424.86253934942283 4104.807692307692 422.5120671563484 4132.192307692308 421.1689401888773 4159.576923076923 421.1689401888773 4186.961538461538 418.1469045120673 4214.346153846154 418.1469045120673 4241.7307692307695 418.1469045120673 4269.115384615385 416.8037775445961 4296.5 414.45330535152146 4296.5 397.99999999999994 4269.115384615385 400.35047219307455 4241.7307692307695 401.6935991605458 4214.346153846154 401.6935991605458 4186.961538461538 402.3651626442814 4159.576923076923 405.3871983210914 4132.192307692308 405.3871983210914 4104.807692307692 406.7303252885625 4077.423076923077 409.0807974816369 4050.0384615384614 409.41657922350464 4022.653846153846 412.102833158447 3995.2692307692305 413.44596012591813 3967.8846153846152 415.12486883525725 3940.5 415.79643231899286 3913.1153846153848 416.13221406086063 3885.730769230769 416.8037775445962 3858.346153846154 417.47534102833174 3830.9615384615386 417.47534102833174 3803.576923076923 419.1542497376706 3776.1923076923076 422.1762854144806 3748.8076923076924 423.5194123819517 3721.423076923077 424.52675760755506 3694.0384615384614 425.86988457502616 3666.653846153846 427.54879328436516 3639.269230769231 427.88457502623294 3611.8846153846152 428.8919202518364 3584.5 430.90661070304304 3557.1153846153848 431.5781741867786 3529.730769230769 432.58551941238204 3502.346153846154 434.60020986358876 3474.9615384615386 434.93599160545654 3447.576923076923 435.2717733473243 3420.1923076923076 435.2717733473243 3392.8076923076924 437.9580272822665 3365.423076923077 438.96537250787 3338.0384615384614 441.3158447009444 3310.653846153846 442.99475341028335 3283.269230769231 444.0020986358867 3255.8846153846152 444.67366211962224 3228.5 446.6883525708289 3228.5 462.13431269674703Z" fill="#55c0e9" opacity="0.9" />
		</g>
		<g>
			<rect x="4372" y="431" width="22.9995" height="23" fill="#fdd5a4" />
		</g>
		<g>
			<text fill="#595959" font-family="Verdana,sans-serif" font-weight="400" font-size="41" transform="matrix(1 0 0 1 4404.56 454)">Other</text>
		</g>
		<g>
			<rect x="4372" y="508" width="22.9995" height="23" fill="#e62d39" />
		</g>
		<g>
			<text fill="#595959" font-family="Verdana,sans-serif" font-weight="400" font-size="41" transform="matrix(1 0 0 1 4404.56 531)">iOS</text>
		</g>
		<g>
			<rect x="4372" y="585" width="22.9995" height="23" fill="#005aa6" />
		</g>
		<g>
			<text fill="#595959" font-family="Verdana,sans-serif" font-weight="400" font-size="41" transform="matrix(1 0 0 1 4404.56 608)">Android</text>
		</g>
		<g>
			<rect x="4372" y="662" width="22.9995" height="23" fill="#f6a118" />
		</g>
		<g>
			<text fill="#595959" font-family="Verdana,sans-serif" font-weight="400" font-size="41" transform="matrix(1 0 0 1 4404.56 685)">macOS</text>
		</g>
		<g>
			<rect x="4372" y="739" width="22.9995" height="23" fill="#f48c7d" />
		</g>
		<g>
			<text fill="#595959" font-family="Verdana,sans-serif" font-weight="400" font-size="41" transform="matrix(1 0 0 1 4404.56 762)">Linux</text>
		</g>
		<g>
			<rect x="4372" y="816" width="22.9995" height="23" fill="#55c0e9" />
		</g>
		<g>
			<text fill="#595959" font-family="Verdana,sans-serif" font-weight="400" font-size="41" transform="matrix(1 0 0 1 4404.56 839)">Windows</text>
		</g>
	</g>
</svg>
