<svg width="1763" height="1046"
    xmlns="http://www.w3.org/2000/svg"
	xmlns:xlink="http://www.w3.org/1999/xlink" xml:space="preserve" overflow="hidden">
	<defs>
		<clipPath id="clip0">
			<rect x="2917" y="346" width="1763" height="1046"/>
		</clipPath>
	</defs>
	<g clip-path="url(#clip0)" transform="translate(-2917 -346)">
		<rect x="2918" y="347" width="1760" height="1043" fill="#FFFFFF" />
		<g>
			<path d="
			M3228.5 974.532 4296.5 974.532
			M3228.5 910.53 4296.5 910.53
			M3228.5 846.528 4296.5 846.528
			M3228.5 781.526 4296.5 781.526
			M3228.5 717.524 4296.5 717.524
			M3228.5 653.522 4296.5 653.522
			M3228.5 589.52 4296.5 589.52
			M3228.5 525.517 4296.5 525.517
			M3228.5 461.515 4296.5 461.515
			M3228.5 397.5 4296.5 397.5" stroke="#D9D9D9" stroke-width="3.4375" stroke-linejoin="round" stroke-miterlimit="10" fill="none" />
		</g>
		<g>
			<path d="M 1038.5 4296.5 1038.5" stroke="#D9D9D9" stroke-width="3.4375" stroke-linejoin="round" stroke-miterlimit="10" fill="none" fill-rule="evenodd" />
		</g>
		<g>
			<text fill="#595959" font-family="Verdana,sans-serif" font-weight="400" font-size="41" transform="matrix(6.12323e-17 -1 1 6.12323e-17 3244 1207)">15-Jan</text>
		</g>
		<g>
			<text fill="#595959" font-family="Verdana,sans-serif" font-weight="400" font-size="41" transform="matrix(6.12323e-17 -1 1 6.12323e-17 3329.94 1214)">12-Feb</text>
		</g>
		<g>
			<text fill="#595959" font-family="Verdana,sans-serif" font-weight="400" font-size="41" transform="matrix(6.12323e-17 -1 1 6.12323e-17 3414.88 1221)">11-Mar</text>
		</g>
		<g>
			<text fill="#595959" font-family="Verdana,sans-serif" font-weight="400" font-size="41" transform="matrix(6.12323e-17 -1 1 6.12323e-17 3504.32 1217)">08-Apr</text>
		</g>
		<g>
			<text fill="#595959" font-family="Verdana,sans-serif" font-weight="400" font-size="41" transform="matrix(6.12323e-17 -1 1 6.12323e-17 3589.76 1228)">06-May</text>
		</g>
		<g>
			<text fill="#595959" font-family="Verdana,sans-serif" font-weight="400" font-size="41" transform="matrix(6.12323e-17 -1 1 6.12323e-17 3671.7 1211)">03-Jun</text>
		</g>
		<g>
			<text fill="#595959" font-family="Verdana,sans-serif" font-weight="400" font-size="41" transform="matrix(6.12323e-17 -1 1 6.12323e-17 3757.14 1197)">01-Jul</text>
		</g>
		<g>
			<text fill="#595959" font-family="Verdana,sans-serif" font-weight="400" font-size="41" transform="matrix(6.12323e-17 -1 1 6.12323e-17 3842.58 1196)">29-Jul</text>
		</g>
		<g>
			<text fill="#595959" font-family="Verdana,sans-serif" font-weight="400" font-size="41" transform="matrix(6.12323e-17 -1 1 6.12323e-17 3931.52 1221)">26-Aug</text>
		</g>
		<g>
			<text fill="#595959" font-family="Verdana,sans-serif" font-weight="400" font-size="41" transform="matrix(6.12323e-17 -1 1 6.12323e-17 4016.96 1221)">23-Sep</text>
		</g>
		<g>
			<text fill="#595959" font-family="Verdana,sans-serif" font-weight="400" font-size="41" transform="matrix(6.12323e-17 -1 1 6.12323e-17 4098.9 1215)">21-Oct</text>
		</g>
		<g>
			<text fill="#595959" font-family="Verdana,sans-serif" font-weight="400" font-size="41" transform="matrix(6.12323e-17 -1 1 6.12323e-17 4184.34 1222)">18-Nov</text>
		</g>
		<g>
			<text fill="#595959" font-family="Verdana,sans-serif" font-weight="400" font-size="41" transform="matrix(6.12323e-17 -1 1 6.12323e-17 4269.78 1222)">23-Dec</text>
		</g>
		<g>
			<text fill="#595959" font-family="Verdana,sans-serif" font-weight="400" font-size="41" transform="matrix(1 0 0 1 3167.5 1050)">0</text>
		</g>
		<g>
			<text fill="#595959" font-family="Verdana,sans-serif" font-weight="400" font-size="41" transform="matrix(1 0 0 1 3115.5 922)">392</text>
		</g>
		<g>
			<text fill="#595959" font-family="Verdana,sans-serif" font-weight="400" font-size="41" transform="matrix(1 0 0 1 3115.5 794)">783</text>
		</g>
		<g>
			<text fill="#595959" font-family="Verdana,sans-serif" font-weight="400" font-size="41" transform="matrix(1 0 0 1 3077.5 666)">1,175</text>
		</g>
		<g>
			<text fill="#595959" font-family="Verdana,sans-serif" font-weight="400" font-size="41" transform="matrix(1 0 0 1 3076.5 538)">1,566</text>
		</g>
		<g>
			<text fill="#595959" font-family="Verdana,sans-serif" font-weight="400" font-size="41" transform="matrix(1 0 0 1 3076.5 410)">1,958</text>
		</g>
		<g>
			<text fill="#595959" font-family="Verdana,sans-serif" font-weight="400" font-size="41" transform="matrix(1 0 0 1 3544.5 1321)">Week Commencing</text>
		</g>
		<g>
			<text fill="#595959" font-family="Verdana,sans-serif" font-weight="400" font-size="46" transform="matrix(6.12323e-17 -1 1 6.12323e-17 3019.73 970.75)">Number of OS Profiles</text>
		</g>
		<rect x="2918.5" y="347.5" width="1760" height="1043" stroke="#D9D9D9" stroke-width="3.4375" stroke-linejoin="round" stroke-miterlimit="10" fill="none" />
		<g>
			<path d="M3228.5 1038 3249.86 1038 3271.22 1038 3292.58 1038 3313.94 1038 3335.3 1038 3356.66 1038 3378.02 1038 3399.38 1038 3420.74 1038 3442.1 1038 3463.46 1038 3484.82 1038 3506.18 1038 3527.54 1038 3548.9 1038 3570.26 1038 3591.62 1038 3612.98 1038 3634.34 1038 3655.7 1038 3677.06 1038 3698.42 1038 3719.7799999999997 1038 3741.14 1038 3762.5 1038 3783.86 1038 3805.2200000000003 1038 3826.58 1038 3847.94 1038 3869.3 1038 3890.66 1038 3912.02 1038 3933.38 1038 3954.74 1038 3976.1 1038 3997.46 1038 4018.8199999999997 1038 4040.18 1038 4061.54 1038 4082.9 1038 4104.26 1038 4125.62 1038 4146.98 1038 4168.34 1038 4189.7 1038 4211.0599999999995 1038 4232.42 1038 4253.78 1038 4275.139999999999 1038 4296.5 1038 4296.5 697.4075587334014 4275.139999999999 697.4075587334014 4253.78 697.4075587334014 4232.42 698.0612870275792 4211.0599999999995 698.0612870275792 4189.7 698.7150153217569 4168.34 699.3687436159346 4146.98 699.6956077630234 4125.62 700.0224719101124 4104.26 700.0224719101124 4082.9 700.3493360572013 4061.54 700.3493360572013 4040.18 701.9836567926455 4018.8199999999997 702.3105209397345 3997.46 703.291113381001 3976.1 703.6179775280899 3954.74 704.5985699693565 3933.38 705.2522982635342 3912.02 705.2522982635342 3890.66 705.5791624106231 3869.3 705.5791624106231 3847.94 705.906026557712 3826.58 705.906026557712 3805.2200000000003 706.8866189989785 3783.86 706.8866189989785 3762.5 707.2134831460673 3741.14 710.1552604698672 3719.7799999999997 710.1552604698672 3698.42 710.8089887640449 3677.06 711.7895812053116 3655.7 712.4433094994893 3634.34 713.7507660878448 3612.98 714.4044943820224 3591.62 714.7313585291113 3570.26 715.0582226762002 3548.9 715.0582226762002 3527.54 715.3850868232892 3506.18 715.711950970378 3484.82 715.711950970378 3463.46 716.6925434116445 3442.1 717.6731358529112 3420.74 718.9805924412666 3399.38 719.9611848825332 3378.02 719.9611848825332 3356.66 721.2686414708887 3335.3 721.2686414708887 3313.94 721.2686414708887 3292.58 722.2492339121552 3271.22 722.5760980592441 3249.86 722.902962206333 3228.5 723.8835546475996 3228.5 1038Z" fill="#fdd5a4" opacity="0.9" />
		</g>
		<g>
			<path d="M3228.5 723.8835546475996 3249.86 722.902962206333 3271.22 722.5760980592441 3292.58 722.2492339121552 3313.94 721.2686414708887 3335.3 721.2686414708887 3356.66 721.2686414708887 3378.02 719.9611848825332 3399.38 719.9611848825332 3420.74 718.9805924412666 3442.1 717.6731358529112 3463.46 716.6925434116445 3484.82 715.711950970378 3506.18 715.711950970378 3527.54 715.3850868232892 3548.9 715.0582226762002 3570.26 715.0582226762002 3591.62 714.7313585291113 3612.98 714.4044943820224 3634.34 713.7507660878448 3655.7 712.4433094994893 3677.06 711.7895812053116 3698.42 710.8089887640449 3719.7799999999997 710.1552604698672 3741.14 710.1552604698672 3762.5 707.2134831460673 3783.86 706.8866189989785 3805.2200000000003 706.8866189989785 3826.58 705.906026557712 3847.94 705.906026557712 3869.3 705.5791624106231 3890.66 705.5791624106231 3912.02 705.2522982635342 3933.38 705.2522982635342 3954.74 704.5985699693565 3976.1 703.6179775280899 3997.46 703.291113381001 4018.8199999999997 702.3105209397345 4040.18 701.9836567926455 4061.54 700.3493360572013 4082.9 700.3493360572013 4104.26 700.0224719101124 4125.62 700.0224719101124 4146.98 699.6956077630234 4168.34 699.3687436159346 4189.7 698.7150153217569 4211.0599999999995 698.0612870275792 4232.42 698.0612870275792 4253.78 697.4075587334014 4275.139999999999 697.4075587334014 4296.5 697.4075587334014 4296.5 552.6067415730337 4275.139999999999 552.6067415730337 4253.78 552.6067415730337 4232.42 553.9141981613892 4211.0599999999995 554.241062308478 4189.7 554.8947906026558 4168.34 556.855975485189 4146.98 557.1828396322778 4125.62 557.5097037793666 4104.26 558.4902962206334 4082.9 559.4708886619 4061.54 559.4708886619 4040.18 561.1052093973442 4018.8199999999997 562.0858018386109 3997.46 563.0663942798774 3976.1 563.3932584269663 3954.74 565.0275791624106 3933.38 565.6813074565882 3912.02 565.6813074565882 3890.66 566.0081716036773 3869.3 566.0081716036773 3847.94 567.6424923391216 3826.58 569.276813074566 3805.2200000000003 570.5842696629213 3783.86 570.5842696629213 3762.5 570.9111338100101 3741.14 573.85291113381 3719.7799999999997 573.85291113381 3698.42 574.8335035750765 3677.06 576.7946884576099 3655.7 577.4484167517876 3634.34 578.7558733401431 3612.98 580.0633299284984 3591.62 581.043922369765 3570.26 581.370786516854 3548.9 581.370786516854 3527.54 582.0245148110317 3506.18 582.6782431052095 3484.82 582.6782431052095 3463.46 583.9856996935648 3442.1 586.2737487231869 3420.74 587.5812053115424 3399.38 588.561797752809 3378.02 589.8692543411644 3356.66 591.1767109295199 3335.3 591.1767109295199 3313.94 591.5035750766089 3292.58 593.1378958120531 3271.22 593.7916241062309 3249.86 594.7722165474975 3228.5 596.4065372829417 3228.5 723.8835546475996Z" fill="#e62d39" opacity="0.9" />
		</g>
		<g>
			<path d="M3228.5 596.4065372829417 3249.86 594.7722165474975 3271.22 593.7916241062309 3292.58 593.1378958120531 3313.94 591.5035750766089 3335.3 591.1767109295199 3356.66 591.1767109295199 3378.02 589.8692543411644 3399.38 588.561797752809 3420.74 587.5812053115424 3442.1 586.2737487231869 3463.46 583.9856996935648 3484.82 582.6782431052095 3506.18 582.6782431052095 3527.54 582.0245148110317 3548.9 581.370786516854 3570.26 581.370786516854 3591.62 581.043922369765 3612.98 580.0633299284984 3634.34 578.7558733401431 3655.7 577.4484167517876 3677.06 576.7946884576099 3698.42 574.8335035750765 3719.7799999999997 573.85291113381 3741.14 573.85291113381 3762.5 570.9111338100101 3783.86 570.5842696629213 3805.2200000000003 570.5842696629213 3826.58 569.276813074566 3847.94 567.6424923391216 3869.3 566.0081716036773 3890.66 566.0081716036773 3912.02 565.6813074565882 3933.38 565.6813074565882 3954.74 565.0275791624106 3976.1 563.3932584269663 3997.46 563.0663942798774 4018.8199999999997 562.0858018386109 4040.18 561.1052093973442 4061.54 559.4708886619 4082.9 559.4708886619 4104.26 558.4902962206334 4125.62 557.5097037793666 4146.98 557.1828396322778 4168.34 556.855975485189 4189.7 554.8947906026558 4211.0599999999995 554.241062308478 4232.42 553.9141981613892 4253.78 552.6067415730337 4275.139999999999 552.6067415730337 4296.5 552.6067415730337 4296.5 491.1562819203268 4275.139999999999 491.1562819203268 4253.78 491.1562819203268 4232.42 492.46373850868235 4211.0599999999995 492.7906026557712 4189.7 493.44433094994895 4168.34 495.732379979571 4146.98 496.05924412665985 4125.62 496.3861082737487 4104.26 497.3667007150154 4082.9 498.347293156282 4061.54 498.347293156282 4040.18 499.9816138917262 4018.8199999999997 500.96220633299293 3997.46 501.9427987742594 3976.1 502.26966292134836 3954.74 503.9039836567926 3933.38 504.55771195097026 3912.02 504.55771195097026 3890.66 504.8845760980593 3869.3 504.8845760980593 3847.94 506.5188968335037 3826.58 508.15321756894804 3805.2200000000003 509.46067415730334 3783.86 509.46067415730334 3762.5 509.78753830439217 3741.14 512.729315628192 3719.7799999999997 512.729315628192 3698.42 513.7099080694585 3677.06 515.6710929519919 3655.7 516.3248212461696 3634.34 518.2860061287029 3612.98 519.5934627170582 3591.62 520.5740551583248 3570.26 521.2277834525025 3548.9 521.2277834525025 3527.54 521.8815117466804 3506.18 522.5352400408581 3484.82 522.5352400408581 3463.46 523.8426966292134 3442.1 526.1307456588356 3420.74 527.4382022471909 3399.38 528.4187946884576 3378.02 529.726251276813 3356.66 531.0337078651685 3335.3 531.0337078651685 3313.94 531.3605720122575 3292.58 532.9948927477017 3271.22 533.6486210418796 3249.86 534.629213483146 3228.5 536.2635342185904 3228.5 596.4065372829417Z" fill="#005aa6" opacity="0.9" />
		</g>
		<g>
			<path d="M3228.5 536.2635342185904 3249.86 534.629213483146 3271.22 533.6486210418796 3292.58 532.9948927477017 3313.94 531.3605720122575 3335.3 531.0337078651685 3356.66 531.0337078651685 3378.02 529.726251276813 3399.38 528.4187946884576 3420.74 527.4382022471909 3442.1 526.1307456588356 3463.46 523.8426966292134 3484.82 522.5352400408581 3506.18 522.5352400408581 3527.54 521.8815117466804 3548.9 521.2277834525025 3570.26 521.2277834525025 3591.62 520.5740551583248 3612.98 519.5934627170582 3634.34 518.2860061287029 3655.7 516.3248212461696 3677.06 515.6710929519919 3698.42 513.7099080694585 3719.7799999999997 512.729315628192 3741.14 512.729315628192 3762.5 509.78753830439217 3783.86 509.46067415730334 3805.2200000000003 509.46067415730334 3826.58 508.15321756894804 3847.94 506.5188968335037 3869.3 504.8845760980593 3890.66 504.8845760980593 3912.02 504.55771195097026 3933.38 504.55771195097026 3954.74 503.9039836567926 3976.1 502.26966292134836 3997.46 501.9427987742594 4018.8199999999997 500.96220633299293 4040.18 499.9816138917262 4061.54 498.347293156282 4082.9 498.347293156282 4104.26 497.3667007150154 4125.62 496.3861082737487 4146.98 496.05924412665985 4168.34 495.732379979571 4189.7 493.44433094994895 4211.0599999999995 492.7906026557712 4232.42 492.46373850868235 4253.78 491.1562819203268 4275.139999999999 491.1562819203268 4296.5 491.1562819203268 4296.5 439.51174668028597 4275.139999999999 439.51174668028597 4253.78 439.51174668028597 4232.42 441.7997957099081 4211.0599999999995 442.1266598569969 4189.7 442.7803881511747 4168.34 445.39530132788565 4146.98 445.3953013278856 4125.62 445.7221654749744 4104.26 447.02962206333 4082.9 448.33707865168543 4061.54 448.6639427987743 4040.18 450.62512768130745 4018.8199999999997 451.60572012257416 3997.46 452.58631256384064 3976.1 453.2400408580184 3954.74 454.87436159346265 3933.38 455.5280898876403 3912.02 455.5280898876403 3890.66 455.85495403472936 3869.3 455.52808988764053 3847.94 458.1430030643515 3826.58 460.43105209397356 3805.2200000000003 461.73850868232887 3783.86 461.73850868232887 3762.5 461.73850868232887 3741.14 464.68028600612865 3719.7799999999997 464.68028600612865 3698.42 465.987742594484 3677.06 468.2757916241063 3655.7 468.929519918284 3634.34 470.8907048008173 3612.98 472.1981613891726 3591.62 473.8324821246169 3570.26 474.48621041879466 3548.9 474.48621041879466 3527.54 475.13993871297254 3506.18 475.7936670071502 3484.82 475.7936670071502 3463.46 477.4279877425944 3442.1 480.36976506639434 3420.74 481.67722165474964 3399.38 482.65781409601635 3378.02 483.96527068437166 3356.66 485.5995914198161 3335.3 485.92645556690496 3313.94 486.9070480081717 3292.58 488.86823289070475 3271.22 489.5219611848826 3249.86 490.5025536261491 3228.5 492.46373850868235 3228.5 536.2635342185904Z" fill="#f6a118" opacity="0.9" />
		</g>
		<g>
			<path d="M3228.5 492.46373850868235 3249.86 490.5025536261491 3271.22 489.5219611848826 3292.58 488.86823289070475 3313.94 486.9070480081717 3335.3 485.92645556690496 3356.66 485.5995914198161 3378.02 483.96527068437166 3399.38 482.65781409601635 3420.74 481.67722165474964 3442.1 480.36976506639434 3463.46 477.4279877425944 3484.82 475.7936670071502 3506.18 475.7936670071502 3527.54 475.13993871297254 3548.9 474.48621041879466 3570.26 474.48621041879466 3591.62 473.8324821246169 3612.98 472.1981613891726 3634.34 470.8907048008173 3655.7 468.929519918284 3677.06 468.2757916241063 3698.42 465.987742594484 3719.7799999999997 464.68028600612865 3741.14 464.68028600612865 3762.5 461.73850868232887 3783.86 461.73850868232887 3805.2200000000003 461.73850868232887 3826.58 460.43105209397356 3847.94 458.1430030643515 3869.3 455.52808988764053 3890.66 455.85495403472936 3912.02 455.5280898876403 3933.38 455.5280898876403 3954.74 454.87436159346265 3976.1 453.2400408580184 3997.46 452.58631256384064 4018.8199999999997 451.60572012257416 4040.18 450.62512768130745 4061.54 448.6639427987743 4082.9 448.33707865168543 4104.26 447.02962206333 4125.62 445.7221654749744 4146.98 445.3953013278856 4168.34 445.39530132788565 4189.7 442.7803881511747 4211.0599999999995 442.1266598569969 4232.42 441.7997957099081 4253.78 439.51174668028597 4275.139999999999 439.51174668028597 4296.5 439.51174668028597 4296.5 412.0551583248212 4275.139999999999 412.0551583248212 4253.78 412.0551583248212 4232.42 414.34320735444334 4211.0599999999995 414.67007150153216 4189.7 415.32379979570993 4168.34 417.9387129724209 4146.98 417.93871297242083 4125.62 418.26557711950966 4104.26 419.57303370786525 4082.9 420.88049029622067 4061.54 421.53421859039844 4040.18 423.49540347293157 4018.8199999999997 424.4759959141983 3997.46 425.45658835546476 3976.1 426.1103166496425 3954.74 427.7446373850868 3933.38 428.39836567926443 3912.02 428.39836567926443 3890.66 428.7252298263535 3869.3 428.39836567926466 3847.94 431.0132788559756 3826.58 433.3013278855977 3805.2200000000003 434.608784473953 3783.86 434.608784473953 3762.5 434.608784473953 3741.14 437.5505617977528 3719.7799999999997 437.5505617977528 3698.42 438.85801838610814 3677.06 441.14606741573044 3655.7 441.7997957099081 3634.34 443.7609805924414 3612.98 445.0684371807967 3591.62 446.702757916241 3570.26 447.3564862104188 3548.9 447.6833503575076 3527.54 448.3370786516855 3506.18 448.99080694586314 3484.82 448.99080694586314 3463.46 450.62512768130733 3442.1 453.5669050051073 3420.74 454.8743615934626 3399.38 455.8549540347293 3378.02 457.1624106230846 3356.66 458.79673135852903 3335.3 459.1235955056179 3313.94 460.1041879468847 3292.58 462.0653728294177 3271.22 462.7191011235956 3249.86 463.69969356486206 3228.5 465.6608784473953 3228.5 492.46373850868235Z" fill="#f48c7d" opacity="0.9" />
		</g>
		<g>
			<path d="M3228.5 465.6608784473953 3249.86 463.69969356486206 3271.22 462.7191011235956 3292.58 462.0653728294177 3313.94 460.1041879468847 3335.3 459.1235955056179 3356.66 458.79673135852903 3378.02 457.1624106230846 3399.38 455.8549540347293 3420.74 454.8743615934626 3442.1 453.5669050051073 3463.46 450.62512768130733 3484.82 448.99080694586314 3506.18 448.99080694586314 3527.54 448.3370786516855 3548.9 447.6833503575076 3570.26 447.3564862104188 3591.62 446.702757916241 3612.98 445.0684371807967 3634.34 443.7609805924414 3655.7 441.7997957099081 3677.06 441.14606741573044 3698.42 438.85801838610814 3719.7799999999997 437.5505617977528 3741.14 437.5505617977528 3762.5 434.608784473953 3783.86 434.608784473953 3805.2200000000003 434.608784473953 3826.58 433.3013278855977 3847.94 431.0132788559756 3869.3 428.39836567926466 3890.66 428.7252298263535 3912.02 428.39836567926443 3933.38 428.39836567926443 3954.74 427.7446373850868 3976.1 426.1103166496425 3997.46 425.45658835546476 4018.8199999999997 424.4759959141983 4040.18 423.49540347293157 4061.54 421.53421859039844 4082.9 420.88049029622067 4104.26 419.57303370786525 4125.62 418.26557711950966 4146.98 417.93871297242083 4168.34 417.9387129724209 4189.7 415.32379979570993 4211.0599999999995 414.67007150153216 4232.42 414.34320735444334 4253.78 412.0551583248212 4275.139999999999 412.0551583248212 4296.5 412.0551583248212 4296.5 397.99999999999994 4275.139999999999 397.99999999999994 4253.78 397.99999999999994 4232.42 400.2880490296221 4211.0599999999995 400.6149131767109 4189.7 401.26864147088867 4168.34 403.8835546475996 4146.98 403.88355464759957 4125.62 404.2104187946884 4104.26 403.5566905005108 4082.9 404.8641470888662 4061.54 405.517875383044 4040.18 407.4790602655771 4018.8199999999997 408.4596527068438 3997.46 409.4402451481103 3976.1 410.0939734422881 3954.74 411.7282941777323 3933.38 412.38202247191 3912.02 412.38202247191 3890.66 412.70888661899903 3869.3 412.3820224719102 3847.94 414.99693564862116 3826.58 417.28498467824323 3805.2200000000003 418.59244126659854 3783.86 418.59244126659854 3762.5 419.2461695607763 3741.14 422.1879468845761 3719.7799999999997 422.1879468845761 3698.42 423.49540347293146 3677.06 425.78345250255376 3655.7 426.1103166496425 3634.34 428.72522982635354 3612.98 430.03268641470885 3591.62 431.66700715015315 3570.26 432.3207354443309 3548.9 432.64759959141975 3527.54 433.30132788559763 3506.18 433.9550561797753 3484.82 433.9550561797753 3463.46 435.5893769152195 3442.1 438.53115423901943 3420.74 439.83861082737474 3399.38 440.81920326864144 3378.02 442.12665985699675 3356.66 443.7609805924412 3335.3 444.08784473953006 3313.94 445.0684371807968 3292.58 447.02962206332984 3271.22 447.6833503575077 3249.86 448.6639427987742 3228.5 450.62512768130745 3228.5 465.6608784473953Z" fill="#55c0e9" opacity="0.9" />
		</g>
		<g>
			<rect x="4372" y="431" width="22.9995" height="23" fill="#fdd5a4" />
		</g>
		<g>
			<text fill="#595959" font-family="Verdana,sans-serif" font-weight="400" font-size="41" transform="matrix(1 0 0 1 4404.56 454)">Other</text>
		</g>
		<g>
			<rect x="4372" y="508" width="22.9995" height="23" fill="#e62d39" />
		</g>
		<g>
			<text fill="#595959" font-family="Verdana,sans-serif" font-weight="400" font-size="41" transform="matrix(1 0 0 1 4404.56 531)">iOS</text>
		</g>
		<g>
			<rect x="4372" y="585" width="22.9995" height="23" fill="#005aa6" />
		</g>
		<g>
			<text fill="#595959" font-family="Verdana,sans-serif" font-weight="400" font-size="41" transform="matrix(1 0 0 1 4404.56 608)">Android</text>
		</g>
		<g>
			<rect x="4372" y="662" width="22.9995" height="23" fill="#f6a118" />
		</g>
		<g>
			<text fill="#595959" font-family="Verdana,sans-serif" font-weight="400" font-size="41" transform="matrix(1 0 0 1 4404.56 685)">macOS</text>
		</g>
		<g>
			<rect x="4372" y="739" width="22.9995" height="23" fill="#f48c7d" />
		</g>
		<g>
			<text fill="#595959" font-family="Verdana,sans-serif" font-weight="400" font-size="41" transform="matrix(1 0 0 1 4404.56 762)">Linux</text>
		</g>
		<g>
			<rect x="4372" y="816" width="22.9995" height="23" fill="#55c0e9" />
		</g>
		<g>
			<text fill="#595959" font-family="Verdana,sans-serif" font-weight="400" font-size="41" transform="matrix(1 0 0 1 4404.56 839)">Windows</text>
		</g>
	</g>
</svg>
