<svg width="1763" height="1046"
    xmlns="http://www.w3.org/2000/svg"
	xmlns:xlink="http://www.w3.org/1999/xlink" xml:space="preserve" overflow="hidden">
	<defs>
		<clipPath id="clip0">
			<rect x="2917" y="346" width="1763" height="1046"/>
		</clipPath>
	</defs>
	<g clip-path="url(#clip0)" transform="translate(-2917 -346)">
		<rect x="2918" y="347" width="1760" height="1043" fill="#FFFFFF" />
		<g>
			<path d="
			M3228.5 974.532 4296.5 974.532
			M3228.5 910.53 4296.5 910.53
			M3228.5 846.528 4296.5 846.528
			M3228.5 781.526 4296.5 781.526
			M3228.5 717.524 4296.5 717.524
			M3228.5 653.522 4296.5 653.522
			M3228.5 589.52 4296.5 589.52
			M3228.5 525.517 4296.5 525.517
			M3228.5 461.515 4296.5 461.515
			M3228.5 397.5 4296.5 397.5" stroke="#D9D9D9" stroke-width="3.4375" stroke-linejoin="round" stroke-miterlimit="10" fill="none" />
		</g>
		<g>
			<path d="M 1038.5 4296.5 1038.5" stroke="#D9D9D9" stroke-width="3.4375" stroke-linejoin="round" stroke-miterlimit="10" fill="none" fill-rule="evenodd" />
		</g>
		<g>
			<text fill="#595959" font-family="Verdana,sans-serif" font-weight="400" font-size="41" transform="matrix(6.12323e-17 -1 1 6.12323e-17 3244.5 1227)">06-Nov</text>
		</g>
		<g>
			<text fill="#595959" font-family="Verdana,sans-serif" font-weight="400" font-size="41" transform="matrix(6.12323e-17 -1 1 6.12323e-17 3341.590909090909 1226)">20-Nov</text>
		</g>
		<g>
			<text fill="#595959" font-family="Verdana,sans-serif" font-weight="400" font-size="41" transform="matrix(6.12323e-17 -1 1 6.12323e-17 3438.681818181818 1225)">04-Dec</text>
		</g>
		<g>
			<text fill="#595959" font-family="Verdana,sans-serif" font-weight="400" font-size="41" transform="matrix(6.12323e-17 -1 1 6.12323e-17 3535.772727272727 1222)">18-Dec</text>
		</g>
		<g>
			<text fill="#595959" font-family="Verdana,sans-serif" font-weight="400" font-size="41" transform="matrix(6.12323e-17 -1 1 6.12323e-17 3632.8636363636365 1212)">01-Jan</text>
		</g>
		<g>
			<text fill="#595959" font-family="Verdana,sans-serif" font-weight="400" font-size="41" transform="matrix(6.12323e-17 -1 1 6.12323e-17 3729.4545454545455 1209)">15-Jan</text>
		</g>
		<g>
			<text fill="#595959" font-family="Verdana,sans-serif" font-weight="400" font-size="41" transform="matrix(6.12323e-17 -1 1 6.12323e-17 3827.0454545454545 1211)">29-Jan</text>
		</g>
		<g>
			<text fill="#595959" font-family="Verdana,sans-serif" font-weight="400" font-size="41" transform="matrix(6.12323e-17 -1 1 6.12323e-17 3924.1363636363635 1216)">12-Feb</text>
		</g>
		<g>
			<text fill="#595959" font-family="Verdana,sans-serif" font-weight="400" font-size="41" transform="matrix(6.12323e-17 -1 1 6.12323e-17 4021.227272727273 1218)">26-Feb</text>
		</g>
		<g>
			<text fill="#595959" font-family="Verdana,sans-serif" font-weight="400" font-size="41" transform="matrix(6.12323e-17 -1 1 6.12323e-17 4117.818181818182 1222)">11-Mar</text>
		</g>
		<g>
			<text fill="#595959" font-family="Verdana,sans-serif" font-weight="400" font-size="41" transform="matrix(6.12323e-17 -1 1 6.12323e-17 4215.409090909091 1225)">25-Mar</text>
		</g>
		<g>
			<text fill="#595959" font-family="Verdana,sans-serif" font-weight="400" font-size="41" transform="matrix(6.12323e-17 -1 1 6.12323e-17 4316 1218)">08-Apr</text>
		</g>
		<g>
			<text fill="#595959" font-family="Verdana,sans-serif" font-weight="400" font-size="41" transform="matrix(1 0 0 1 3167.5 1050)">0</text>
		</g>
		<g>
			<text fill="#595959" font-family="Verdana,sans-serif" font-weight="400" font-size="41" transform="matrix(1 0 0 1 3115.5 922)">370</text>
		</g>
		<g>
			<text fill="#595959" font-family="Verdana,sans-serif" font-weight="400" font-size="41" transform="matrix(1 0 0 1 3114.5 794)">739</text>
		</g>
		<g>
			<text fill="#595959" font-family="Verdana,sans-serif" font-weight="400" font-size="41" transform="matrix(1 0 0 1 3075.5 666)">1,109</text>
		</g>
		<g>
			<text fill="#595959" font-family="Verdana,sans-serif" font-weight="400" font-size="41" transform="matrix(1 0 0 1 3075.5 538)">1,478</text>
		</g>
		<g>
			<text fill="#595959" font-family="Verdana,sans-serif" font-weight="400" font-size="41" transform="matrix(1 0 0 1 3075.5 410)">1,848</text>
		</g>
		<g>
			<text fill="#595959" font-family="Verdana,sans-serif" font-weight="400" font-size="41" transform="matrix(1 0 0 1 3541.5 1321)">Week Commencing</text>
		</g>
		<g>
			<text fill="#595959" font-family="Verdana,sans-serif" font-weight="400" font-size="46" transform="matrix(6.12323e-17 -1 1 6.12323e-17 3019.73 974.25)">Number of OS Profiles</text>
		</g>
		<rect x="2918.5" y="347.5" width="1760" height="1043" stroke="#D9D9D9" stroke-width="3.4375" stroke-linejoin="round" stroke-miterlimit="10" fill="none" />
		<g>
			<path d="M3228.5 1038 3277.0454545454545 1038 3325.590909090909 1038 3374.1363636363635 1038 3422.681818181818 1038 3471.227272727273 1038 3519.772727272727 1038 3568.318181818182 1038 3616.8636363636365 1038 3665.409090909091 1038 3713.9545454545455 1038 3762.5 1038 3811.0454545454545 1038 3859.590909090909 1038 3908.1363636363635 1038 3956.681818181818 1038 4005.227272727273 1038 4053.772727272727 1038 4102.318181818182 1038 4150.863636363636 1038 4199.409090909091 1038 4247.954545454546 1038 4296.5 1038 4296.5 696.5281385281385 4247.954545454546 697.5670995670996 4199.409090909091 698.6060606060606 4150.863636363636 699.991341991342 4102.318181818182 701.030303030303 4053.772727272727 701.030303030303 4005.227272727273 702.4155844155844 3956.681818181818 702.4155844155844 3908.1363636363635 702.4155844155844 3859.590909090909 703.4545454545455 3811.0454545454545 703.8008658008658 3762.5 704.1471861471862 3713.9545454545455 705.1861471861472 3665.409090909091 705.5324675324675 3616.8636363636365 705.8787878787879 3568.318181818182 705.8787878787879 3519.772727272727 705.8787878787879 3471.227272727273 705.8787878787879 3422.681818181818 707.95670995671 3374.1363636363635 708.3030303030303 3325.590909090909 708.9956709956709 3277.0454545454545 708.9956709956709 3228.5 709.6883116883117 3228.5 1038Z" fill="#fdd5a4" opacity="0.9" />
		</g>
		<g>
			<path d="M3228.5 709.6883116883117 3277.0454545454545 708.9956709956709 3325.590909090909 708.9956709956709 3374.1363636363635 708.3030303030303 3422.681818181818 707.95670995671 3471.227272727273 705.8787878787879 3519.772727272727 705.8787878787879 3568.318181818182 705.8787878787879 3616.8636363636365 705.8787878787879 3665.409090909091 705.5324675324675 3713.9545454545455 705.1861471861472 3762.5 704.1471861471862 3811.0454545454545 703.8008658008658 3859.590909090909 703.4545454545455 3908.1363636363635 702.4155844155844 3956.681818181818 702.4155844155844 4005.227272727273 702.4155844155844 4053.772727272727 701.030303030303 4102.318181818182 701.030303030303 4150.863636363636 699.991341991342 4199.409090909091 698.6060606060606 4247.954545454546 697.5670995670996 4296.5 696.5281385281385 4296.5 555.5757575757575 4247.954545454546 556.961038961039 4199.409090909091 559.3852813852814 4150.863636363636 560.7705627705627 4102.318181818182 561.8095238095239 4053.772727272727 563.1948051948052 4005.227272727273 564.5800865800866 3956.681818181818 564.5800865800866 3908.1363636363635 564.9264069264069 3859.590909090909 566.6580086580087 3811.0454545454545 567.3506493506494 3762.5 568.3896103896104 3713.9545454545455 570.1212121212121 3665.409090909091 570.4675324675325 3616.8636363636365 570.8138528138528 3568.318181818182 570.8138528138528 3519.772727272727 572.5454545454545 3471.227272727273 573.2380952380952 3422.681818181818 575.6623376623377 3374.1363636363635 577.047619047619 3325.590909090909 577.7402597402597 3277.0454545454545 578.08658008658 3228.5 579.4718614718615 3228.5 709.6883116883117Z" fill="#e62d39" opacity="0.9" />
		</g>
		<g>
			<path d="M3228.5 579.4718614718615 3277.0454545454545 578.08658008658 3325.590909090909 577.7402597402597 3374.1363636363635 577.047619047619 3422.681818181818 575.6623376623377 3471.227272727273 573.2380952380952 3519.772727272727 572.5454545454545 3568.318181818182 570.8138528138528 3616.8636363636365 570.8138528138528 3665.409090909091 570.4675324675325 3713.9545454545455 570.1212121212121 3762.5 568.3896103896104 3811.0454545454545 567.3506493506494 3859.590909090909 566.6580086580087 3908.1363636363635 564.9264069264069 3956.681818181818 564.5800865800866 4005.227272727273 564.5800865800866 4053.772727272727 563.1948051948052 4102.318181818182 561.8095238095239 4150.863636363636 560.7705627705627 4199.409090909091 559.3852813852814 4247.954545454546 556.961038961039 4296.5 555.5757575757575 4296.5 491.85281385281377 4247.954545454546 493.23809523809524 4199.409090909091 495.6623376623376 4150.863636363636 497.047619047619 4102.318181818182 498.0865800865801 4053.772727272727 499.4718614718615 4005.227272727273 500.85714285714283 3956.681818181818 500.85714285714283 3908.1363636363635 501.2034632034632 3859.590909090909 502.935064935065 3811.0454545454545 503.62770562770567 3762.5 504.6666666666667 3713.9545454545455 506.3982683982684 3665.409090909091 506.7445887445887 3616.8636363636365 507.09090909090907 3568.318181818182 507.09090909090907 3519.772727272727 508.82251082251076 3471.227272727273 509.51515151515144 3422.681818181818 511.93939393939394 3374.1363636363635 513.3246753246754 3325.590909090909 514.017316017316 3277.0454545454545 514.3636363636364 3228.5 515.7489177489178 3228.5 579.4718614718615Z" fill="#005aa6" opacity="0.9" />
		</g>
		<g>
			<path d="M3228.5 515.7489177489178 3277.0454545454545 514.3636363636364 3325.590909090909 514.017316017316 3374.1363636363635 513.3246753246754 3422.681818181818 511.93939393939394 3471.227272727273 509.51515151515144 3519.772727272727 508.82251082251076 3568.318181818182 507.09090909090907 3616.8636363636365 507.09090909090907 3665.409090909091 506.7445887445887 3713.9545454545455 506.3982683982684 3762.5 504.6666666666667 3811.0454545454545 503.62770562770567 3859.590909090909 502.935064935065 3908.1363636363635 501.2034632034632 3956.681818181818 500.85714285714283 4005.227272727273 500.85714285714283 4053.772727272727 499.4718614718615 4102.318181818182 498.0865800865801 4150.863636363636 497.047619047619 4199.409090909091 495.6623376623376 4247.954545454546 493.23809523809524 4296.5 491.85281385281377 4296.5 442.32900432900425 4247.954545454546 444.06060606060606 4199.409090909091 447.1774891774891 4150.863636363636 448.5627705627705 4102.318181818182 449.6017316017316 4053.772727272727 450.987012987013 4005.227272727273 452.7186147186147 3956.681818181818 453.06493506493507 3908.1363636363635 454.1038961038961 3859.590909090909 456.18181818181824 3811.0454545454545 456.8744588744589 3762.5 457.91341991341994 3713.9545454545455 459.991341991342 3665.409090909091 460.3376623376623 3616.8636363636365 460.68398268398266 3568.318181818182 460.68398268398266 3519.772727272727 463.4545454545454 3471.227272727273 464.4935064935064 3422.681818181818 466.9177489177489 3374.1363636363635 468.6493506493507 3325.590909090909 469.6883116883117 3277.0454545454545 470.3809523809524 3228.5 472.45887445887456 3228.5 515.7489177489178Z" fill="#f6a118" opacity="0.9" />
		</g>
		<g>
			<path d="M3228.5 472.45887445887456 3277.0454545454545 470.3809523809524 3325.590909090909 469.6883116883117 3374.1363636363635 468.6493506493507 3422.681818181818 466.9177489177489 3471.227272727273 464.4935064935064 3519.772727272727 463.4545454545454 3568.318181818182 460.68398268398266 3616.8636363636365 460.68398268398266 3665.409090909091 460.3376623376623 3713.9545454545455 459.991341991342 3762.5 457.91341991341994 3811.0454545454545 456.8744588744589 3859.590909090909 456.18181818181824 3908.1363636363635 454.1038961038961 3956.681818181818 453.06493506493507 4005.227272727273 452.7186147186147 4053.772727272727 450.987012987013 4102.318181818182 449.6017316017316 4150.863636363636 448.5627705627705 4199.409090909091 447.1774891774891 4247.954545454546 444.06060606060606 4296.5 442.32900432900425 4296.5 413.93073593073586 4247.954545454546 415.6623376623377 4199.409090909091 418.77922077922074 4150.863636363636 420.1645021645021 4102.318181818182 421.20346320346323 4053.772727272727 422.5887445887446 4005.227272727273 424.3203463203463 3956.681818181818 424.6666666666667 3908.1363636363635 425.7056277056277 3859.590909090909 427.78354978354986 3811.0454545454545 428.47619047619054 3762.5 429.51515151515156 3713.9545454545455 431.5930735930736 3665.409090909091 431.93939393939394 3616.8636363636365 432.2857142857143 3568.318181818182 432.2857142857143 3519.772727272727 435.056277056277 3471.227272727273 436.095238095238 3422.681818181818 438.5194805194805 3374.1363636363635 440.2510822510823 3325.590909090909 441.29004329004334 3277.0454545454545 441.982683982684 3228.5 444.0606060606062 3228.5 472.45887445887456Z" fill="#f48c7d" opacity="0.9" />
		</g>
		<g>
			<path d="M3228.5 444.0606060606062 3277.0454545454545 441.982683982684 3325.590909090909 441.29004329004334 3374.1363636363635 440.2510822510823 3422.681818181818 438.5194805194805 3471.227272727273 436.095238095238 3519.772727272727 435.056277056277 3568.318181818182 432.2857142857143 3616.8636363636365 432.2857142857143 3665.409090909091 431.93939393939394 3713.9545454545455 431.5930735930736 3762.5 429.51515151515156 3811.0454545454545 428.47619047619054 3859.590909090909 427.78354978354986 3908.1363636363635 425.7056277056277 3956.681818181818 424.6666666666667 4005.227272727273 424.3203463203463 4053.772727272727 422.5887445887446 4102.318181818182 421.20346320346323 4150.863636363636 420.1645021645021 4199.409090909091 418.77922077922074 4247.954545454546 415.6623376623377 4296.5 413.93073593073586 4296.5 397.99999999999994 4247.954545454546 399.73160173160176 4199.409090909091 402.8484848484848 4150.863636363636 404.2337662337662 4102.318181818182 405.2727272727273 4053.772727272727 406.65800865800867 4005.227272727273 408.38961038961037 3956.681818181818 408.73593073593076 3908.1363636363635 409.7748917748918 3859.590909090909 411.85281385281394 3811.0454545454545 412.5454545454546 3762.5 413.58441558441564 3713.9545454545455 415.6623376623377 3665.409090909091 416.008658008658 3616.8636363636365 416.35497835497836 3568.318181818182 416.35497835497836 3519.772727272727 419.1255411255411 3471.227272727273 420.1645021645021 3422.681818181818 422.5887445887446 3374.1363636363635 424.3203463203464 3325.590909090909 425.3593073593074 3277.0454545454545 426.0519480519481 3228.5 428.12987012987026 3228.5 444.0606060606062Z" fill="#55c0e9" opacity="0.9" />
		</g>
		<g>
			<rect x="4372" y="431" width="22.9995" height="23" fill="#fdd5a4" />
		</g>
		<g>
			<text fill="#595959" font-family="Verdana,sans-serif" font-weight="400" font-size="41" transform="matrix(1 0 0 1 4404.56 454)">Other</text>
		</g>
		<g>
			<rect x="4372" y="508" width="22.9995" height="23" fill="#e62d39" />
		</g>
		<g>
			<text fill="#595959" font-family="Verdana,sans-serif" font-weight="400" font-size="41" transform="matrix(1 0 0 1 4404.56 531)">iOS</text>
		</g>
		<g>
			<rect x="4372" y="585" width="22.9995" height="23" fill="#005aa6" />
		</g>
		<g>
			<text fill="#595959" font-family="Verdana,sans-serif" font-weight="400" font-size="41" transform="matrix(1 0 0 1 4404.56 608)">Android</text>
		</g>
		<g>
			<rect x="4372" y="662" width="22.9995" height="23" fill="#f6a118" />
		</g>
		<g>
			<text fill="#595959" font-family="Verdana,sans-serif" font-weight="400" font-size="41" transform="matrix(1 0 0 1 4404.56 685)">macOS</text>
		</g>
		<g>
			<rect x="4372" y="739" width="22.9995" height="23" fill="#f48c7d" />
		</g>
		<g>
			<text fill="#595959" font-family="Verdana,sans-serif" font-weight="400" font-size="41" transform="matrix(1 0 0 1 4404.56 762)">Linux</text>
		</g>
		<g>
			<rect x="4372" y="816" width="22.9995" height="23" fill="#55c0e9" />
		</g>
		<g>
			<text fill="#595959" font-family="Verdana,sans-serif" font-weight="400" font-size="41" transform="matrix(1 0 0 1 4404.56 839)">Windows</text>
		</g>
	</g>
</svg>
