<svg width="1763" height="1046"
    xmlns="http://www.w3.org/2000/svg"
	xmlns:xlink="http://www.w3.org/1999/xlink" xml:space="preserve" overflow="hidden">
	<defs>
		<clipPath id="clip0">
			<rect x="2917" y="346" width="1763" height="1046"/>
		</clipPath>
	</defs>
	<g clip-path="url(#clip0)" transform="translate(-2917 -346)">
		<rect x="2918" y="347" width="1760" height="1043" fill="#FFFFFF" />
		<g>
			<path d="
			M3228.5 974.532 4296.5 974.532
			M3228.5 910.53 4296.5 910.53
			M3228.5 846.528 4296.5 846.528
			M3228.5 781.526 4296.5 781.526
			M3228.5 717.524 4296.5 717.524
			M3228.5 653.522 4296.5 653.522
			M3228.5 589.52 4296.5 589.52
			M3228.5 525.517 4296.5 525.517
			M3228.5 461.515 4296.5 461.515
			M3228.5 397.5 4296.5 397.5" stroke="#D9D9D9" stroke-width="3.4375" stroke-linejoin="round" stroke-miterlimit="10" fill="none" />
		</g>
		<g>
			<path d="M 1038.5 4296.5 1038.5" stroke="#D9D9D9" stroke-width="3.4375" stroke-linejoin="round" stroke-miterlimit="10" fill="none" fill-rule="evenodd" />
		</g>
		<g>
			<text fill="#595959" font-family="Verdana,sans-serif" font-weight="400" font-size="41" transform="matrix(6.12323e-17 -1 1 6.12323e-17 3244.5 1225)">06-Nov</text>
		</g>
		<g>
			<text fill="#595959" font-family="Verdana,sans-serif" font-weight="400" font-size="41" transform="matrix(6.12323e-17 -1 1 6.12323e-17 3315.7 1224)">20-Nov</text>
		</g>
		<g>
			<text fill="#595959" font-family="Verdana,sans-serif" font-weight="400" font-size="41" transform="matrix(6.12323e-17 -1 1 6.12323e-17 3386.9 1223)">04-Dec</text>
		</g>
		<g>
			<text fill="#595959" font-family="Verdana,sans-serif" font-weight="400" font-size="41" transform="matrix(6.12323e-17 -1 1 6.12323e-17 3458.1 1220)">18-Dec</text>
		</g>
		<g>
			<text fill="#595959" font-family="Verdana,sans-serif" font-weight="400" font-size="41" transform="matrix(6.12323e-17 -1 1 6.12323e-17 3529.3 1210)">01-Jan</text>
		</g>
		<g>
			<text fill="#595959" font-family="Verdana,sans-serif" font-weight="400" font-size="41" transform="matrix(6.12323e-17 -1 1 6.12323e-17 3600 1207)">15-Jan</text>
		</g>
		<g>
			<text fill="#595959" font-family="Verdana,sans-serif" font-weight="400" font-size="41" transform="matrix(6.12323e-17 -1 1 6.12323e-17 3671.7 1210)">29-Jan</text>
		</g>
		<g>
			<text fill="#595959" font-family="Verdana,sans-serif" font-weight="400" font-size="41" transform="matrix(6.12323e-17 -1 1 6.12323e-17 3742.9 1214)">12-Feb</text>
		</g>
		<g>
			<text fill="#595959" font-family="Verdana,sans-serif" font-weight="400" font-size="41" transform="matrix(6.12323e-17 -1 1 6.12323e-17 3814.1 1216)">26-Feb</text>
		</g>
		<g>
			<text fill="#595959" font-family="Verdana,sans-serif" font-weight="400" font-size="41" transform="matrix(6.12323e-17 -1 1 6.12323e-17 3884.8 1221)">11-Mar</text>
		</g>
		<g>
			<text fill="#595959" font-family="Verdana,sans-serif" font-weight="400" font-size="41" transform="matrix(6.12323e-17 -1 1 6.12323e-17 3956.5 1223)">25-Mar</text>
		</g>
		<g>
			<text fill="#595959" font-family="Verdana,sans-serif" font-weight="400" font-size="41" transform="matrix(6.12323e-17 -1 1 6.12323e-17 4031.2 1217)">08-Apr</text>
		</g>
		<g>
			<text fill="#595959" font-family="Verdana,sans-serif" font-weight="400" font-size="41" transform="matrix(6.12323e-17 -1 1 6.12323e-17 4102.4 1216)">22-Apr</text>
		</g>
		<g>
			<text fill="#595959" font-family="Verdana,sans-serif" font-weight="400" font-size="41" transform="matrix(6.12323e-17 -1 1 6.12323e-17 4173.6 1228)">06-May</text>
		</g>
		<g>
			<text fill="#595959" font-family="Verdana,sans-serif" font-weight="400" font-size="41" transform="matrix(6.12323e-17 -1 1 6.12323e-17 4244.8 1228)">20-May</text>
		</g>
		<g>
			<text fill="#595959" font-family="Verdana,sans-serif" font-weight="400" font-size="41" transform="matrix(6.12323e-17 -1 1 6.12323e-17 4312.5 1211)">03-Jun</text>
		</g>
		<g>
			<text fill="#595959" font-family="Verdana,sans-serif" font-weight="400" font-size="41" transform="matrix(1 0 0 1 3167.5 1050)">0</text>
		</g>
		<g>
			<text fill="#595959" font-family="Verdana,sans-serif" font-weight="400" font-size="41" transform="matrix(1 0 0 1 3115.5 922)">374</text>
		</g>
		<g>
			<text fill="#595959" font-family="Verdana,sans-serif" font-weight="400" font-size="41" transform="matrix(1 0 0 1 3115.5 794)">749</text>
		</g>
		<g>
			<text fill="#595959" font-family="Verdana,sans-serif" font-weight="400" font-size="41" transform="matrix(1 0 0 1 3077.5 666)">1,123</text>
		</g>
		<g>
			<text fill="#595959" font-family="Verdana,sans-serif" font-weight="400" font-size="41" transform="matrix(1 0 0 1 3076.5 538)">1,498</text>
		</g>
		<g>
			<text fill="#595959" font-family="Verdana,sans-serif" font-weight="400" font-size="41" transform="matrix(1 0 0 1 3077.5 410)">1,872</text>
		</g>
		<g>
			<text fill="#595959" font-family="Verdana,sans-serif" font-weight="400" font-size="41" transform="matrix(1 0 0 1 3544.5 1321)">Week Commencing</text>
		</g>
		<g>
			<text fill="#595959" font-family="Verdana,sans-serif" font-weight="400" font-size="46" transform="matrix(6.12323e-17 -1 1 6.12323e-17 3019.73 970.75)">Number of OS Profiles</text>
		</g>
		<rect x="2918.5" y="347.5" width="1760" height="1043" stroke="#D9D9D9" stroke-width="3.4375" stroke-linejoin="round" stroke-miterlimit="10" fill="none" />
		<g>
			<path d="M3228.5 1038 3264.1 1038 3299.7 1038 3335.3 1038 3370.9 1038 3406.5 1038 3442.1 1038 3477.7 1038 3513.3 1038 3548.9 1038 3584.5 1038 3620.1 1038 3655.7 1038 3691.3 1038 3726.9 1038 3762.5 1038 3798.1 1038 3833.7 1038 3869.3 1038 3904.9 1038 3940.5 1038 3976.1 1038 4011.7 1038 4047.3 1038 4082.9 1038 4118.5 1038 4154.1 1038 4189.7 1038 4225.3 1038 4260.9 1038 4296.5 1038 4296.5 697.4871794871794 4260.9 698.8547008547009 4225.3 699.5384615384615 4189.7 699.8803418803418 4154.1 700.2222222222222 4118.5 700.2222222222222 4082.9 700.5641025641025 4047.3 700.9059829059829 4011.7 700.9059829059829 3976.1 701.9316239316239 3940.5 702.9572649572649 3904.9 704.3247863247864 3869.3 705.3504273504274 3833.7 705.3504273504274 3798.1 706.7179487179487 3762.5 706.7179487179487 3726.9 706.7179487179487 3691.3 707.7435897435897 3655.7 708.0854700854701 3620.1 708.4273504273503 3584.5 709.4529914529915 3548.9 709.7948717948718 3513.3 710.1367521367522 3477.7 710.1367521367522 3442.1 710.1367521367522 3406.5 710.1367521367522 3370.9 712.1880341880342 3335.3 712.5299145299145 3299.7 713.2136752136753 3264.1 713.2136752136753 3228.5 713.8974358974359 3228.5 1038Z" fill="#fdd5a4" opacity="0.9" />
		</g>
		<g>
			<path d="M3228.5 713.8974358974359 3264.1 713.2136752136753 3299.7 713.2136752136753 3335.3 712.5299145299145 3370.9 712.1880341880342 3406.5 710.1367521367522 3442.1 710.1367521367522 3477.7 710.1367521367522 3513.3 710.1367521367522 3548.9 709.7948717948718 3584.5 709.4529914529915 3620.1 708.4273504273503 3655.7 708.0854700854701 3691.3 707.7435897435897 3726.9 706.7179487179487 3762.5 706.7179487179487 3798.1 706.7179487179487 3833.7 705.3504273504274 3869.3 705.3504273504274 3904.9 704.3247863247864 3940.5 702.9572649572649 3976.1 701.9316239316239 4011.7 700.9059829059829 4047.3 700.9059829059829 4082.9 700.5641025641025 4118.5 700.2222222222222 4154.1 700.2222222222222 4189.7 699.8803418803418 4225.3 699.5384615384615 4260.9 698.8547008547009 4296.5 697.4871794871794 4296.5 556.2905982905983 4260.9 557.6581196581197 4225.3 559.025641025641 4189.7 560.051282051282 4154.1 560.3931623931624 4118.5 560.3931623931624 4082.9 561.0769230769231 4047.3 561.7606837606838 4011.7 561.7606837606838 3976.1 563.1282051282051 3940.5 565.5213675213674 3904.9 566.8888888888889 3869.3 567.9145299145299 3833.7 569.2820512820513 3798.1 570.6495726495726 3762.5 570.6495726495726 3726.9 570.991452991453 3691.3 572.7008547008547 3655.7 573.3846153846154 3620.1 574.4102564102564 3584.5 576.1196581196581 3548.9 576.4615384615385 3513.3 576.8034188034188 3477.7 576.8034188034188 3442.1 578.5128205128206 3406.5 579.1965811965813 3370.9 581.5897435897436 3335.3 582.957264957265 3299.7 583.6410256410257 3264.1 583.982905982906 3228.5 585.3504273504274 3228.5 713.8974358974359Z" fill="#e62d39" opacity="0.9" />
		</g>
		<g>
			<path d="M3228.5 585.3504273504274 3264.1 583.982905982906 3299.7 583.6410256410257 3335.3 582.957264957265 3370.9 581.5897435897436 3406.5 579.1965811965813 3442.1 578.5128205128206 3477.7 576.8034188034188 3513.3 576.8034188034188 3548.9 576.4615384615385 3584.5 576.1196581196581 3620.1 574.4102564102564 3655.7 573.3846153846154 3691.3 572.7008547008547 3726.9 570.991452991453 3762.5 570.6495726495726 3798.1 570.6495726495726 3833.7 569.2820512820513 3869.3 567.9145299145299 3904.9 566.8888888888889 3940.5 565.5213675213674 3976.1 563.1282051282051 4011.7 561.7606837606838 4047.3 561.7606837606838 4082.9 561.0769230769231 4118.5 560.3931623931624 4154.1 560.3931623931624 4189.7 560.051282051282 4225.3 559.025641025641 4260.9 557.6581196581197 4296.5 556.2905982905983 4296.5 492.35897435897436 4260.9 494.41025641025647 4225.3 495.7777777777777 4189.7 496.8034188034187 4154.1 497.48717948717945 4118.5 497.48717948717945 4082.9 498.1709401709402 4047.3 498.8547008547009 4011.7 498.8547008547009 3976.1 500.2222222222222 3940.5 502.6153846153845 3904.9 503.982905982906 3869.3 505.008547008547 3833.7 506.37606837606836 3798.1 507.7435897435897 3762.5 507.7435897435897 3726.9 508.0854700854701 3691.3 509.7948717948718 3655.7 510.47863247863245 3620.1 511.50427350427344 3584.5 513.2136752136752 3548.9 513.5555555555555 3513.3 513.8974358974359 3477.7 513.8974358974359 3442.1 515.6068376068376 3406.5 516.2905982905984 3370.9 518.6837606837607 3335.3 520.0512820512821 3299.7 520.7350427350428 3264.1 521.0769230769231 3228.5 522.4444444444445 3228.5 585.3504273504274Z" fill="#005aa6" opacity="0.9" />
		</g>
		<g>
			<path d="M3228.5 522.4444444444445 3264.1 521.0769230769231 3299.7 520.7350427350428 3335.3 520.0512820512821 3370.9 518.6837606837607 3406.5 516.2905982905984 3442.1 515.6068376068376 3477.7 513.8974358974359 3513.3 513.8974358974359 3548.9 513.5555555555555 3584.5 513.2136752136752 3620.1 511.50427350427344 3655.7 510.47863247863245 3691.3 509.7948717948718 3726.9 508.0854700854701 3762.5 507.7435897435897 3798.1 507.7435897435897 3833.7 506.37606837606836 3869.3 505.008547008547 3904.9 503.982905982906 3940.5 502.6153846153845 3976.1 500.2222222222222 4011.7 498.8547008547009 4047.3 498.8547008547009 4082.9 498.1709401709402 4118.5 497.48717948717945 4154.1 497.48717948717945 4189.7 496.8034188034187 4225.3 495.7777777777777 4260.9 494.41025641025647 4296.5 492.35897435897436 4296.5 442.78632478632477 4260.9 444.83760683760687 4225.3 446.2051282051281 4189.7 447.9145299145298 4154.1 448.59829059829053 4118.5 448.59829059829053 4082.9 449.28205128205127 4047.3 449.965811965812 4011.7 449.965811965812 3976.1 451.6752136752136 3940.5 454.75213675213666 3904.9 456.11965811965814 3869.3 457.14529914529913 3833.7 458.5128205128205 3798.1 460.2222222222222 3762.5 460.56410256410254 3726.9 461.5897435897436 3691.3 463.6410256410257 3655.7 464.3247863247863 3620.1 465.3504273504273 3584.5 467.40170940170935 3548.9 467.7435897435897 3513.3 468.0854700854701 3477.7 468.0854700854701 3442.1 470.8205128205129 3406.5 471.8461538461539 3370.9 474.2393162393163 3335.3 475.948717948718 3299.7 476.97435897435906 3264.1 477.6581196581197 3228.5 479.70940170940173 3228.5 522.4444444444445Z" fill="#f6a118" opacity="0.9" />
		</g>
		<g>
			<path d="M3228.5 479.70940170940173 3264.1 477.6581196581197 3299.7 476.97435897435906 3335.3 475.948717948718 3370.9 474.2393162393163 3406.5 471.8461538461539 3442.1 470.8205128205129 3477.7 468.0854700854701 3513.3 468.0854700854701 3548.9 467.7435897435897 3584.5 467.40170940170935 3620.1 465.3504273504273 3655.7 464.3247863247863 3691.3 463.6410256410257 3726.9 461.5897435897436 3762.5 460.56410256410254 3798.1 460.2222222222222 3833.7 458.5128205128205 3869.3 457.14529914529913 3904.9 456.11965811965814 3940.5 454.75213675213666 3976.1 451.6752136752136 4011.7 449.965811965812 4047.3 449.965811965812 4082.9 449.28205128205127 4118.5 448.59829059829053 4154.1 448.59829059829053 4189.7 447.9145299145298 4225.3 446.2051282051281 4260.9 444.83760683760687 4296.5 442.78632478632477 4296.5 414.4102564102564 4260.9 416.4615384615385 4225.3 417.82905982905976 4189.7 419.53846153846143 4154.1 420.2222222222222 4118.5 420.5641025641025 4082.9 421.2478632478632 4047.3 421.93162393162396 4011.7 421.93162393162396 3976.1 423.6410256410256 3940.5 426.7179487179486 3904.9 428.0854700854701 3869.3 429.1111111111111 3833.7 430.47863247863245 3798.1 432.1880341880341 3762.5 432.5299145299145 3726.9 433.55555555555554 3691.3 435.60683760683764 3655.7 436.29059829059827 3620.1 437.31623931623926 3584.5 439.3675213675213 3548.9 439.7094017094017 3513.3 440.05128205128204 3477.7 440.05128205128204 3442.1 442.7863247863248 3406.5 443.8119658119659 3370.9 446.20512820512823 3335.3 447.91452991452996 3299.7 448.940170940171 3264.1 449.62393162393164 3228.5 451.6752136752137 3228.5 479.70940170940173Z" fill="#f48c7d" opacity="0.9" />
		</g>
		<g>
			<path d="M3228.5 451.6752136752137 3264.1 449.62393162393164 3299.7 448.940170940171 3335.3 447.91452991452996 3370.9 446.20512820512823 3406.5 443.8119658119659 3442.1 442.7863247863248 3477.7 440.05128205128204 3513.3 440.05128205128204 3548.9 439.7094017094017 3584.5 439.3675213675213 3620.1 437.31623931623926 3655.7 436.29059829059827 3691.3 435.60683760683764 3726.9 433.55555555555554 3762.5 432.5299145299145 3798.1 432.1880341880341 3833.7 430.47863247863245 3869.3 429.1111111111111 3904.9 428.0854700854701 3940.5 426.7179487179486 3976.1 423.6410256410256 4011.7 421.93162393162396 4047.3 421.93162393162396 4082.9 421.2478632478632 4118.5 420.5641025641025 4154.1 420.2222222222222 4189.7 419.53846153846143 4225.3 417.82905982905976 4260.9 416.4615384615385 4296.5 414.4102564102564 4296.5 398 4260.9 400.7350427350428 4225.3 402.10256410256403 4189.7 403.8119658119657 4154.1 404.49572649572644 4118.5 404.83760683760676 4082.9 405.5213675213675 4047.3 406.20512820512823 4011.7 406.20512820512823 3976.1 407.91452991452985 3940.5 410.9914529914529 3904.9 412.35897435897436 3869.3 413.38461538461536 3833.7 414.7521367521367 3798.1 416.4615384615384 3762.5 416.80341880341877 3726.9 417.8290598290598 3691.3 419.8803418803419 3655.7 420.56410256410254 3620.1 421.58974358974353 3584.5 423.6410256410256 3548.9 423.98290598290595 3513.3 424.3247863247863 3477.7 424.3247863247863 3442.1 427.0598290598291 3406.5 428.08547008547015 3370.9 430.4786324786325 3335.3 432.18803418803424 3299.7 433.2136752136753 3264.1 433.8974358974359 3228.5 435.94871794871796 3228.5 451.6752136752137Z" fill="#55c0e9" opacity="0.9" />
		</g>
		<g>
			<rect x="4372" y="431" width="22.9995" height="23" fill="#fdd5a4" />
		</g>
		<g>
			<text fill="#595959" font-family="Verdana,sans-serif" font-weight="400" font-size="41" transform="matrix(1 0 0 1 4404.56 454)">Other</text>
		</g>
		<g>
			<rect x="4372" y="508" width="22.9995" height="23" fill="#e62d39" />
		</g>
		<g>
			<text fill="#595959" font-family="Verdana,sans-serif" font-weight="400" font-size="41" transform="matrix(1 0 0 1 4404.56 531)">iOS</text>
		</g>
		<g>
			<rect x="4372" y="585" width="22.9995" height="23" fill="#005aa6" />
		</g>
		<g>
			<text fill="#595959" font-family="Verdana,sans-serif" font-weight="400" font-size="41" transform="matrix(1 0 0 1 4404.56 608)">Android</text>
		</g>
		<g>
			<rect x="4372" y="662" width="22.9995" height="23" fill="#f6a118" />
		</g>
		<g>
			<text fill="#595959" font-family="Verdana,sans-serif" font-weight="400" font-size="41" transform="matrix(1 0 0 1 4404.56 685)">macOS</text>
		</g>
		<g>
			<rect x="4372" y="739" width="22.9995" height="23" fill="#f48c7d" />
		</g>
		<g>
			<text fill="#595959" font-family="Verdana,sans-serif" font-weight="400" font-size="41" transform="matrix(1 0 0 1 4404.56 762)">Linux</text>
		</g>
		<g>
			<rect x="4372" y="816" width="22.9995" height="23" fill="#55c0e9" />
		</g>
		<g>
			<text fill="#595959" font-family="Verdana,sans-serif" font-weight="400" font-size="41" transform="matrix(1 0 0 1 4404.56 839)">Windows</text>
		</g>
	</g>
</svg>
