<svg width="1763" height="1046"
    xmlns="http://www.w3.org/2000/svg"
	xmlns:xlink="http://www.w3.org/1999/xlink" xml:space="preserve" overflow="hidden">
	<defs>
		<clipPath id="clip0">
			<rect x="2917" y="346" width="1763" height="1046"/>
		</clipPath>
	</defs>
	<g clip-path="url(#clip0)" transform="translate(-2917 -346)">
		<rect x="2918" y="347" width="1760" height="1043" fill="#FFFFFF" />
		<g>
			<path d="
			M3228.5 974.532 4296.5 974.532
			M3228.5 910.53 4296.5 910.53
			M3228.5 846.528 4296.5 846.528
			M3228.5 781.526 4296.5 781.526
			M3228.5 717.524 4296.5 717.524
			M3228.5 653.522 4296.5 653.522
			M3228.5 589.52 4296.5 589.52
			M3228.5 525.517 4296.5 525.517
			M3228.5 461.515 4296.5 461.515
			M3228.5 397.5 4296.5 397.5" stroke="#D9D9D9" stroke-width="3.4375" stroke-linejoin="round" stroke-miterlimit="10" fill="none" />
		</g>
		<g>
			<path d="M 1038.5 4296.5 1038.5" stroke="#D9D9D9" stroke-width="3.4375" stroke-linejoin="round" stroke-miterlimit="10" fill="none" fill-rule="evenodd" />
		</g>
		<g>
			<text fill="#595959" font-family="Verdana,Open Sans,DejaVu Sans,sans-serif" font-weight="400" font-size="41" transform="matrix(6.12323e-17 -1 1 6.12323e-17 3243.564697265625 1201.1000900268555)">07-Oct</text>
		</g>
		<g>
			<text fill="#595959" font-family="Verdana,Open Sans,DejaVu Sans,sans-serif" font-weight="400" font-size="41" transform="matrix(6.12323e-17 -1 1 6.12323e-17 3330.748370735013 1211.43017578125)">04-Nov</text>
		</g>
		<g>
			<text fill="#595959" font-family="Verdana,Open Sans,DejaVu Sans,sans-serif" font-weight="400" font-size="41" transform="matrix(6.12323e-17 -1 1 6.12323e-17 3417.9320442044004 1207.0859375)">09-Dec</text>
		</g>
		<g>
			<text fill="#595959" font-family="Verdana,Open Sans,DejaVu Sans,sans-serif" font-weight="400" font-size="41" transform="matrix(6.12323e-17 -1 1 6.12323e-17 3508.7692821269134 1191.6508712768555)">06-Jan</text>
		</g>
		<g>
			<text fill="#595959" font-family="Verdana,Open Sans,DejaVu Sans,sans-serif" font-weight="400" font-size="41" transform="matrix(6.12323e-17 -1 1 6.12323e-17 3593.010084502551 1203.0419921875)">03-Feb</text>
		</g>
		<g>
			<text fill="#595959" font-family="Verdana,Open Sans,DejaVu Sans,sans-serif" font-weight="400" font-size="41" transform="matrix(6.12323e-17 -1 1 6.12323e-17 3679.483064612564 1212.0107421875)">03-Mar</text>
		</g>
		<g>
			<text fill="#595959" font-family="Verdana,Open Sans,DejaVu Sans,sans-serif" font-weight="400" font-size="41" transform="matrix(6.12323e-17 -1 1 6.12323e-17 3766.6467185507017 1212.1708984375)">31-Mar</text>
		</g>
		<g>
			<text fill="#595959" font-family="Verdana,Open Sans,DejaVu Sans,sans-serif" font-weight="400" font-size="41" transform="matrix(6.12323e-17 -1 1 6.12323e-17 3858.555001395089 1203.3022384643555)">28-Apr</text>
		</g>
		<g>
			<text fill="#595959" font-family="Verdana,Open Sans,DejaVu Sans,sans-serif" font-weight="400" font-size="41" transform="matrix(6.12323e-17 -1 1 6.12323e-17 3945.738674864477 1216.51513671875)">26-May</text>
		</g>
		<g>
			<text fill="#595959" font-family="Verdana,Open Sans,DejaVu Sans,sans-serif" font-weight="400" font-size="41" transform="matrix(6.12323e-17 -1 1 6.12323e-17 4031.8713229432396 1194.1733322143555)">30-Jun</text>
		</g>
		<g>
			<text fill="#595959" font-family="Verdana,Open Sans,DejaVu Sans,sans-serif" font-weight="400" font-size="41" transform="matrix(6.12323e-17 -1 1 6.12323e-17 4119.765689772003 1179.0385665893555)">28-Jul</text>
		</g>
		<g>
			<text fill="#595959" font-family="Verdana,Open Sans,DejaVu Sans,sans-serif" font-weight="400" font-size="41" transform="matrix(6.12323e-17 -1 1 6.12323e-17 4207.2896952726405 1208.66748046875)">25-Aug</text>
		</g>
		<g>
			<text fill="#595959" font-family="Verdana,Open Sans,DejaVu Sans,sans-serif" font-weight="400" font-size="41" transform="matrix(6.12323e-17 -1 1 6.12323e-17 4294.4733687420285 1204.42333984375)">22-Sep</text>
		</g>
		<g>
			<text fill="#595959" font-family="Verdana,Open Sans,DejaVu Sans,sans-serif" font-weight="400" font-size="41" transform="matrix(1 0 0 1 3169.14111328125 1050)">0</text>
		</g>
		<g>
			<text fill="#595959" font-family="Verdana,Open Sans,DejaVu Sans,sans-serif" font-weight="400" font-size="41" transform="matrix(1 0 0 1 3121.0341796875 922)">416</text>
		</g>
		<g>
			<text fill="#595959" font-family="Verdana,Open Sans,DejaVu Sans,sans-serif" font-weight="400" font-size="41" transform="matrix(1 0 0 1 3122.45556640625 794)">832</text>
		</g>
		<g>
			<text fill="#595959" font-family="Verdana,Open Sans,DejaVu Sans,sans-serif" font-weight="400" font-size="41" transform="matrix(1 0 0 1 3090.564453125 666)">1,248</text>
		</g>
		<g>
			<text fill="#595959" font-family="Verdana,Open Sans,DejaVu Sans,sans-serif" font-weight="400" font-size="41" transform="matrix(1 0 0 1 3089.26318359375 538)">1,664</text>
		</g>
		<g>
			<text fill="#595959" font-family="Verdana,Open Sans,DejaVu Sans,sans-serif" font-weight="400" font-size="41" transform="matrix(1 0 0 1 3088.72265625 410)">2,080</text>
		</g>
		<g>
			<text fill="#595959" font-family="Verdana,Open Sans,DejaVu Sans,sans-serif" font-weight="400" font-size="41" transform="matrix(1 0 0 1 3556.97119140625 1321)">Week Commencing</text>
		</g>
		<g>
			<text fill="#595959" font-family="Verdana,Open Sans,DejaVu Sans,sans-serif" font-weight="400" font-size="46" transform="matrix(6.12323e-17 -1 1 6.12323e-17 3019.73 953.7919921875)">Number of OS Profiles</text>
		</g>
		<rect x="2918.5" y="347.5" width="1760" height="1043" stroke="#D9D9D9" stroke-width="3.4375" stroke-linejoin="round" stroke-miterlimit="10" fill="none" />
		<g>
			<path d="M3228.5 1038 3250.295918367347 1038 3272.091836734694 1038 3293.887755102041 1038 3315.683673469388 1038 3337.4795918367345 1038 3359.2755102040815 1038 3381.0714285714284 1038 3402.8673469387754 1038 3424.6632653061224 1038 3446.4591836734694 1038 3468.2551020408164 1038 3490.0510204081634 1038 3511.8469387755104 1038 3533.6428571428573 1038 3555.4387755102043 1038 3577.234693877551 1038 3599.030612244898 1038 3620.826530612245 1038 3642.622448979592 1038 3664.418367346939 1038 3686.214285714286 1038 3708.0102040816328 1038 3729.8061224489797 1038 3751.6020408163267 1038 3773.3979591836733 1038 3795.1938775510203 1038 3816.9897959183672 1038 3838.785714285714 1038 3860.581632653061 1038 3882.377551020408 1038 3904.173469387755 1038 3925.969387755102 1038 3947.765306122449 1038 3969.5612244897957 1038 3991.357142857143 1038 4013.1530612244896 1038 4034.9489795918366 1038 4056.7448979591836 1038 4078.5408163265306 1038 4100.336734693878 1038 4122.132653061224 1038 4143.928571428572 1038 4165.724489795918 1038 4187.5204081632655 1038 4209.316326530612 1038 4231.1122448979595 1038 4252.908163265306 1038 4274.7040816326535 1038 4296.5 1038 4296.5 701.3846153846154 4274.7040816326535 702.3076923076923 4252.908163265306 702.6153846153845 4231.1122448979595 702.6153846153845 4209.316326530612 702.9230769230769 4187.5204081632655 702.9230769230769 4165.724489795918 702.9230769230769 4143.928571428572 703.2307692307693 4122.132653061224 704.1538461538462 4100.336734693878 704.1538461538462 4078.5408163265306 704.4615384615385 4056.7448979591836 704.7692307692307 4034.9489795918366 705.3846153846154 4013.1530612244896 705.6923076923076 3991.357142857143 705.6923076923076 3969.5612244897957 706.3076923076923 3947.765306122449 707.8461538461538 3925.969387755102 710 3904.173469387755 710 3882.377551020408 710 3860.581632653061 710.3076923076923 3838.785714285714 710 3816.9897959183672 710.3076923076923 3795.1938775510203 710.6153846153845 3773.3979591836733 710.6153846153845 3751.6020408163267 711.5384615384615 3729.8061224489797 712.1538461538462 3708.0102040816328 712.7692307692307 3686.214285714286 712.7692307692307 3664.418367346939 714 3642.622448979592 714.6153846153845 3620.826530612245 714.6153846153845 3599.030612244898 715.2307692307693 3577.234693877551 715.8461538461538 3555.4387755102043 716.4615384615385 3533.6428571428573 717.0769230769231 3511.8469387755104 717.3846153846154 3490.0510204081634 717.3846153846154 3468.2551020408164 717.3846153846154 3446.4591836734694 717.3846153846154 3424.6632653061224 718 3402.8673469387754 718 3381.0714285714284 718.6153846153845 3359.2755102040815 719.2307692307693 3337.4795918367345 719.5384615384615 3315.683673469388 719.8461538461538 3293.887755102041 719.8461538461538 3272.091836734694 720.1538461538462 3250.295918367347 720.1538461538462 3228.5 721.6923076923076 3228.5 1038Z" fill="#f48c7d" opacity="0.9" />
		</g>
		<g>
			<path d="M3228.5 721.6923076923076 3250.295918367347 720.1538461538462 3272.091836734694 720.1538461538462 3293.887755102041 719.8461538461538 3315.683673469388 719.8461538461538 3337.4795918367345 719.5384615384615 3359.2755102040815 719.2307692307693 3381.0714285714284 718.6153846153845 3402.8673469387754 718 3424.6632653061224 718 3446.4591836734694 717.3846153846154 3468.2551020408164 717.3846153846154 3490.0510204081634 717.3846153846154 3511.8469387755104 717.3846153846154 3533.6428571428573 717.0769230769231 3555.4387755102043 716.4615384615385 3577.234693877551 715.8461538461538 3599.030612244898 715.2307692307693 3620.826530612245 714.6153846153845 3642.622448979592 714.6153846153845 3664.418367346939 714 3686.214285714286 712.7692307692307 3708.0102040816328 712.7692307692307 3729.8061224489797 712.1538461538462 3751.6020408163267 711.5384615384615 3773.3979591836733 710.6153846153845 3795.1938775510203 710.6153846153845 3816.9897959183672 710.3076923076923 3838.785714285714 710 3860.581632653061 710.3076923076923 3882.377551020408 710 3904.173469387755 710 3925.969387755102 710 3947.765306122449 707.8461538461538 3969.5612244897957 706.3076923076923 3991.357142857143 705.6923076923076 4013.1530612244896 705.6923076923076 4034.9489795918366 705.3846153846154 4056.7448979591836 704.7692307692307 4078.5408163265306 704.4615384615385 4100.336734693878 704.1538461538462 4122.132653061224 704.1538461538462 4143.928571428572 703.2307692307693 4165.724489795918 702.9230769230769 4187.5204081632655 702.9230769230769 4209.316326530612 702.9230769230769 4231.1122448979595 702.6153846153845 4252.908163265306 702.6153846153845 4274.7040816326535 702.3076923076923 4296.5 701.3846153846154 4296.5 551.5384615384614 4274.7040816326535 552.7692307692307 4252.908163265306 553.076923076923 4231.1122448979595 554.9230769230768 4209.316326530612 555.5384615384615 4187.5204081632655 555.5384615384615 4165.724489795918 556.4615384615385 4143.928571428572 557.0769230769231 4122.132653061224 558.3076923076924 4100.336734693878 558.3076923076924 4078.5408163265306 558.9230769230769 4056.7448979591836 559.2307692307692 4034.9489795918366 559.8461538461538 4013.1530612244896 560.1538461538461 3991.357142857143 560.1538461538461 3969.5612244897957 561.3846153846154 3947.765306122449 563.8461538461538 3925.969387755102 566.3076923076923 3904.173469387755 566.9230769230769 3882.377551020408 566 3860.581632653061 568.1538461538461 3838.785714285714 567.8461538461538 3816.9897959183672 568.1538461538461 3795.1938775510203 569.076923076923 3773.3979591836733 569.076923076923 3751.6020408163267 571.8461538461538 3729.8061224489797 572.7692307692308 3708.0102040816328 573.3846153846154 3686.214285714286 574 3664.418367346939 575.2307692307693 3642.622448979592 576.4615384615383 3620.826530612245 576.4615384615383 3599.030612244898 578 3577.234693877551 578.6153846153845 3555.4387755102043 579.2307692307693 3533.6428571428573 580.1538461538462 3511.8469387755104 580.4615384615385 3490.0510204081634 581.0769230769231 3468.2551020408164 581.0769230769231 3446.4591836734694 581.0769230769231 3424.6632653061224 582.3076923076923 3402.8673469387754 582.6153846153846 3381.0714285714284 583.2307692307692 3359.2755102040815 585.0769230769231 3337.4795918367345 585.3846153846154 3315.683673469388 585.6923076923076 3293.887755102041 586.6153846153845 3272.091836734694 587.5384615384615 3250.295918367347 587.5384615384615 3228.5 589.076923076923 3228.5 721.6923076923076Z" fill="#005aa6" opacity="0.9" />
		</g>
		<g>
			<path d="M3228.5 589.076923076923 3250.295918367347 587.5384615384615 3272.091836734694 587.5384615384615 3293.887755102041 586.6153846153845 3315.683673469388 585.6923076923076 3337.4795918367345 585.3846153846154 3359.2755102040815 585.0769230769231 3381.0714285714284 583.2307692307692 3402.8673469387754 582.6153846153846 3424.6632653061224 582.3076923076923 3446.4591836734694 581.0769230769231 3468.2551020408164 581.0769230769231 3490.0510204081634 581.0769230769231 3511.8469387755104 580.4615384615385 3533.6428571428573 580.1538461538462 3555.4387755102043 579.2307692307693 3577.234693877551 578.6153846153845 3599.030612244898 578 3620.826530612245 576.4615384615383 3642.622448979592 576.4615384615383 3664.418367346939 575.2307692307693 3686.214285714286 574 3708.0102040816328 573.3846153846154 3729.8061224489797 572.7692307692308 3751.6020408163267 571.8461538461538 3773.3979591836733 569.076923076923 3795.1938775510203 569.076923076923 3816.9897959183672 568.1538461538461 3838.785714285714 567.8461538461538 3860.581632653061 568.1538461538461 3882.377551020408 566 3904.173469387755 566.9230769230769 3925.969387755102 566.3076923076923 3947.765306122449 563.8461538461538 3969.5612244897957 561.3846153846154 3991.357142857143 560.1538461538461 4013.1530612244896 560.1538461538461 4034.9489795918366 559.8461538461538 4056.7448979591836 559.2307692307692 4078.5408163265306 558.9230769230769 4100.336734693878 558.3076923076924 4122.132653061224 558.3076923076924 4143.928571428572 557.0769230769231 4165.724489795918 556.4615384615385 4187.5204081632655 555.5384615384615 4209.316326530612 555.5384615384615 4231.1122448979595 554.9230769230768 4252.908163265306 553.076923076923 4274.7040816326535 552.7692307692307 4296.5 551.5384615384614 4296.5 493.69230769230757 4274.7040816326535 494.92307692307685 4252.908163265306 495.2307692307691 4231.1122448979595 497.0769230769229 4209.316326530612 497.6923076923077 4187.5204081632655 497.6923076923077 4165.724489795918 498.6153846153846 4143.928571428572 499.2307692307692 4122.132653061224 500.4615384615385 4100.336734693878 500.4615384615385 4078.5408163265306 501.07692307692304 4056.7448979591836 501.3846153846153 4034.9489795918366 501.99999999999994 4013.1530612244896 502.3076923076922 3991.357142857143 502.3076923076922 3969.5612244897957 503.5384615384615 3947.765306122449 505.99999999999994 3925.969387755102 508.4615384615384 3904.173469387755 509.07692307692304 3882.377551020408 508.15384615384613 3860.581632653061 510.3076923076922 3838.785714285714 509.99999999999994 3816.9897959183672 510.3076923076922 3795.1938775510203 511.2307692307691 3773.3979591836733 511.2307692307691 3751.6020408163267 514 3729.8061224489797 514.923076923077 3708.0102040816328 515.5384615384615 3686.214285714286 516.1538461538462 3664.418367346939 517.3846153846155 3642.622448979592 518.6153846153845 3620.826530612245 518.6153846153845 3599.030612244898 520.1538461538462 3577.234693877551 520.7692307692307 3555.4387755102043 521.3846153846155 3533.6428571428573 522.3076923076924 3511.8469387755104 522.6153846153846 3490.0510204081634 523.2307692307693 3468.2551020408164 523.2307692307693 3446.4591836734694 523.2307692307693 3424.6632653061224 524.4615384615385 3402.8673469387754 524.7692307692308 3381.0714285714284 525.3846153846154 3359.2755102040815 527.5384615384615 3337.4795918367345 527.8461538461538 3315.683673469388 528.1538461538461 3293.887755102041 529.076923076923 3272.091836734694 530 3250.295918367347 530 3228.5 531.5384615384614 3228.5 589.076923076923Z" fill="#e62d39" opacity="0.9" />
		</g>
		<g>
			<path d="M3228.5 531.5384615384614 3250.295918367347 530 3272.091836734694 530 3293.887755102041 529.076923076923 3315.683673469388 528.1538461538461 3337.4795918367345 527.8461538461538 3359.2755102040815 527.5384615384615 3381.0714285714284 525.3846153846154 3402.8673469387754 524.7692307692308 3424.6632653061224 524.4615384615385 3446.4591836734694 523.2307692307693 3468.2551020408164 523.2307692307693 3490.0510204081634 523.2307692307693 3511.8469387755104 522.6153846153846 3533.6428571428573 522.3076923076924 3555.4387755102043 521.3846153846155 3577.234693877551 520.7692307692307 3599.030612244898 520.1538461538462 3620.826530612245 518.6153846153845 3642.622448979592 518.6153846153845 3664.418367346939 517.3846153846155 3686.214285714286 516.1538461538462 3708.0102040816328 515.5384615384615 3729.8061224489797 514.923076923077 3751.6020408163267 514 3773.3979591836733 511.2307692307691 3795.1938775510203 511.2307692307691 3816.9897959183672 510.3076923076922 3838.785714285714 509.99999999999994 3860.581632653061 510.3076923076922 3882.377551020408 508.15384615384613 3904.173469387755 509.07692307692304 3925.969387755102 508.4615384615384 3947.765306122449 505.99999999999994 3969.5612244897957 503.5384615384615 3991.357142857143 502.3076923076922 4013.1530612244896 502.3076923076922 4034.9489795918366 501.99999999999994 4056.7448979591836 501.3846153846153 4078.5408163265306 501.07692307692304 4100.336734693878 500.4615384615385 4122.132653061224 500.4615384615385 4143.928571428572 499.2307692307692 4165.724489795918 498.6153846153846 4187.5204081632655 497.6923076923077 4209.316326530612 497.6923076923077 4231.1122448979595 497.0769230769229 4252.908163265306 495.2307692307691 4274.7040816326535 494.92307692307685 4296.5 493.69230769230757 4296.5 437.9999999999999 4274.7040816326535 439.53846153846143 4252.908163265306 439.8461538461537 4231.1122448979595 441.6923076923075 4209.316326530612 442.30769230769226 4187.5204081632655 442.30769230769226 4165.724489795918 444.15384615384613 4143.928571428572 445.0769230769231 4122.132653061224 446.61538461538464 4100.336734693878 447.2307692307693 4078.5408163265306 447.8461538461538 4056.7448979591836 448.1538461538461 4034.9489795918366 448.7692307692307 4013.1530612244896 449.076923076923 3991.357142857143 449.076923076923 3969.5612244897957 450.6153846153846 3947.765306122449 453.3846153846153 3925.969387755102 455.84615384615375 3904.173469387755 457.07692307692304 3882.377551020408 456.15384615384613 3860.581632653061 458.3076923076922 3838.785714285714 457.99999999999994 3816.9897959183672 458.3076923076922 3795.1938775510203 459.53846153846143 3773.3979591836733 459.53846153846143 3751.6020408163267 463.2307692307692 3729.8061224489797 464.15384615384625 3708.0102040816328 464.7692307692308 3686.214285714286 465.69230769230774 3664.418367346939 466.923076923077 3642.622448979592 468.4615384615384 3620.826530612245 469.076923076923 3599.030612244898 470.92307692307696 3577.234693877551 472.1538461538461 3555.4387755102043 472.76923076923083 3533.6428571428573 473.69230769230774 3511.8469387755104 474 3490.0510204081634 474.61538461538464 3468.2551020408164 474.61538461538464 3446.4591836734694 474.61538461538464 3424.6632653061224 476.7692307692308 3402.8673469387754 477.07692307692315 3381.0714285714284 477.6923076923077 3359.2755102040815 480.1538461538462 3337.4795918367345 480.15384615384613 3315.683673469388 480.4615384615384 3293.887755102041 481.6923076923076 3272.091836734694 482.9230769230769 3250.295918367347 483.2307692307692 3228.5 485.076923076923 3228.5 531.5384615384614Z" fill="#f6a118" opacity="0.9" />
		</g>
		<g>
			<path d="M3228.5 485.076923076923 3250.295918367347 483.2307692307692 3272.091836734694 482.9230769230769 3293.887755102041 481.6923076923076 3315.683673469388 480.4615384615384 3337.4795918367345 480.15384615384613 3359.2755102040815 480.1538461538462 3381.0714285714284 477.6923076923077 3402.8673469387754 477.07692307692315 3424.6632653061224 476.7692307692308 3446.4591836734694 474.61538461538464 3468.2551020408164 474.61538461538464 3490.0510204081634 474.61538461538464 3511.8469387755104 474 3533.6428571428573 473.69230769230774 3555.4387755102043 472.76923076923083 3577.234693877551 472.1538461538461 3599.030612244898 470.92307692307696 3620.826530612245 469.076923076923 3642.622448979592 468.4615384615384 3664.418367346939 466.923076923077 3686.214285714286 465.69230769230774 3708.0102040816328 464.7692307692308 3729.8061224489797 464.15384615384625 3751.6020408163267 463.2307692307692 3773.3979591836733 459.53846153846143 3795.1938775510203 459.53846153846143 3816.9897959183672 458.3076923076922 3838.785714285714 457.99999999999994 3860.581632653061 458.3076923076922 3882.377551020408 456.15384615384613 3904.173469387755 457.07692307692304 3925.969387755102 455.84615384615375 3947.765306122449 453.3846153846153 3969.5612244897957 450.6153846153846 3991.357142857143 449.076923076923 4013.1530612244896 449.076923076923 4034.9489795918366 448.7692307692307 4056.7448979591836 448.1538461538461 4078.5408163265306 447.8461538461538 4100.336734693878 447.2307692307693 4122.132653061224 446.61538461538464 4143.928571428572 445.0769230769231 4165.724489795918 444.15384615384613 4187.5204081632655 442.30769230769226 4209.316326530612 442.30769230769226 4231.1122448979595 441.6923076923075 4252.908163265306 439.8461538461537 4274.7040816326535 439.53846153846143 4296.5 437.9999999999999 4296.5 411.2307692307691 4274.7040816326535 412.76923076923066 4252.908163265306 413.0769230769229 4231.1122448979595 414.92307692307674 4209.316326530612 415.5384615384615 4187.5204081632655 415.5384615384615 4165.724489795918 417.38461538461536 4143.928571428572 418.3076923076923 4122.132653061224 419.84615384615387 4100.336734693878 420.4615384615385 4078.5408163265306 421.07692307692304 4056.7448979591836 421.3846153846153 4034.9489795918366 421.99999999999994 4013.1530612244896 422.3076923076922 3991.357142857143 422.3076923076922 3969.5612244897957 423.8461538461538 3947.765306122449 426.6153846153845 3925.969387755102 429.076923076923 3904.173469387755 430.30769230769226 3882.377551020408 429.38461538461536 3860.581632653061 431.84615384615375 3838.785714285714 431.8461538461538 3816.9897959183672 432.1538461538461 3795.1938775510203 433.3846153846153 3773.3979591836733 433.3846153846153 3751.6020408163267 437.0769230769231 3729.8061224489797 438.0000000000001 3708.0102040816328 438.61538461538464 3686.214285714286 439.5384615384616 3664.418367346939 441.07692307692315 3642.622448979592 442.6153846153845 3620.826530612245 443.2307692307691 3599.030612244898 445.0769230769231 3577.234693877551 446.3076923076922 3555.4387755102043 446.92307692307696 3533.6428571428573 447.84615384615387 3511.8469387755104 448.15384615384613 3490.0510204081634 448.7692307692308 3468.2551020408164 448.7692307692308 3446.4591836734694 448.7692307692308 3424.6632653061224 450.9230769230769 3402.8673469387754 451.2307692307693 3381.0714285714284 451.8461538461538 3359.2755102040815 454.3076923076923 3337.4795918367345 454.30769230769226 3315.683673469388 454.6153846153845 3293.887755102041 455.84615384615375 3272.091836734694 457.07692307692304 3250.295918367347 457.6923076923077 3228.5 459.53846153846143 3228.5 485.076923076923Z" fill="#fdd5a4" opacity="0.9" />
		</g>
		<g>
			<path d="M3228.5 459.53846153846143 3250.295918367347 457.6923076923077 3272.091836734694 457.07692307692304 3293.887755102041 455.84615384615375 3315.683673469388 454.6153846153845 3337.4795918367345 454.30769230769226 3359.2755102040815 454.3076923076923 3381.0714285714284 451.8461538461538 3402.8673469387754 451.2307692307693 3424.6632653061224 450.9230769230769 3446.4591836734694 448.7692307692308 3468.2551020408164 448.7692307692308 3490.0510204081634 448.7692307692308 3511.8469387755104 448.15384615384613 3533.6428571428573 447.84615384615387 3555.4387755102043 446.92307692307696 3577.234693877551 446.3076923076922 3599.030612244898 445.0769230769231 3620.826530612245 443.2307692307691 3642.622448979592 442.6153846153845 3664.418367346939 441.07692307692315 3686.214285714286 439.5384615384616 3708.0102040816328 438.61538461538464 3729.8061224489797 438.0000000000001 3751.6020408163267 437.0769230769231 3773.3979591836733 433.3846153846153 3795.1938775510203 433.3846153846153 3816.9897959183672 432.1538461538461 3838.785714285714 431.8461538461538 3860.581632653061 431.84615384615375 3882.377551020408 429.38461538461536 3904.173469387755 430.30769230769226 3925.969387755102 429.076923076923 3947.765306122449 426.6153846153845 3969.5612244897957 423.8461538461538 3991.357142857143 422.3076923076922 4013.1530612244896 422.3076923076922 4034.9489795918366 421.99999999999994 4056.7448979591836 421.3846153846153 4078.5408163265306 421.07692307692304 4100.336734693878 420.4615384615385 4122.132653061224 419.84615384615387 4143.928571428572 418.3076923076923 4165.724489795918 417.38461538461536 4187.5204081632655 415.5384615384615 4209.316326530612 415.5384615384615 4231.1122448979595 414.92307692307674 4252.908163265306 413.0769230769229 4274.7040816326535 412.76923076923066 4296.5 411.2307692307691 4296.5 397.9999999999999 4274.7040816326535 399.53846153846143 4252.908163265306 399.8461538461537 4231.1122448979595 401.6923076923075 4209.316326530612 402.30769230769226 4187.5204081632655 402.30769230769226 4165.724489795918 404.15384615384613 4143.928571428572 405.0769230769231 4122.132653061224 406.61538461538464 4100.336734693878 407.2307692307693 4078.5408163265306 407.8461538461538 4056.7448979591836 408.1538461538461 4034.9489795918366 408.7692307692307 4013.1530612244896 409.076923076923 3991.357142857143 409.076923076923 3969.5612244897957 410.6153846153846 3947.765306122449 413.3846153846153 3925.969387755102 415.84615384615375 3904.173469387755 417.07692307692304 3882.377551020408 416.15384615384613 3860.581632653061 418.6153846153845 3838.785714285714 418.6153846153846 3816.9897959183672 418.92307692307685 3795.1938775510203 420.1538461538461 3773.3979591836733 420.1538461538461 3751.6020408163267 423.84615384615387 3729.8061224489797 424.7692307692309 3708.0102040816328 425.3846153846154 3686.214285714286 426.3076923076924 3664.418367346939 427.8461538461539 3642.622448979592 429.3846153846153 3620.826530612245 429.9999999999999 3599.030612244898 431.84615384615387 3577.234693877551 433.076923076923 3555.4387755102043 433.69230769230774 3533.6428571428573 434.61538461538464 3511.8469387755104 434.9230769230769 3490.0510204081634 435.53846153846155 3468.2551020408164 435.53846153846155 3446.4591836734694 435.53846153846155 3424.6632653061224 437.6923076923077 3402.8673469387754 438.00000000000006 3381.0714285714284 438.6153846153846 3359.2755102040815 441.0769230769231 3337.4795918367345 441.07692307692304 3315.683673469388 441.3846153846153 3293.887755102041 440.76923076923066 3272.091836734694 441.99999999999994 3250.295918367347 442.6153846153846 3228.5 444.46153846153834 3228.5 459.53846153846143Z" fill="#55c0e9" opacity="0.9" />
		</g>
		<g>
			<rect x="4372" y="431" width="22.9995" height="23" fill="#f48c7d" />
		</g>
		<g>
			<text fill="#595959" font-family="Verdana,Open Sans,DejaVu Sans,sans-serif" font-weight="400" font-size="41" transform="matrix(1 0 0 1 4404.56 454)">Other</text>
		</g>
		<g>
			<rect x="4372" y="508" width="22.9995" height="23" fill="#005aa6" />
		</g>
		<g>
			<text fill="#595959" font-family="Verdana,Open Sans,DejaVu Sans,sans-serif" font-weight="400" font-size="41" transform="matrix(1 0 0 1 4404.56 531)">iOS</text>
		</g>
		<g>
			<rect x="4372" y="585" width="22.9995" height="23" fill="#e62d39" />
		</g>
		<g>
			<text fill="#595959" font-family="Verdana,Open Sans,DejaVu Sans,sans-serif" font-weight="400" font-size="41" transform="matrix(1 0 0 1 4404.56 608)">Android</text>
		</g>
		<g>
			<rect x="4372" y="662" width="22.9995" height="23" fill="#f6a118" />
		</g>
		<g>
			<text fill="#595959" font-family="Verdana,Open Sans,DejaVu Sans,sans-serif" font-weight="400" font-size="41" transform="matrix(1 0 0 1 4404.56 685)">macOS</text>
		</g>
		<g>
			<rect x="4372" y="739" width="22.9995" height="23" fill="#fdd5a4" />
		</g>
		<g>
			<text fill="#595959" font-family="Verdana,Open Sans,DejaVu Sans,sans-serif" font-weight="400" font-size="41" transform="matrix(1 0 0 1 4404.56 762)">Linux</text>
		</g>
		<g>
			<rect x="4372" y="816" width="22.9995" height="23" fill="#55c0e9" />
		</g>
		<g>
			<text fill="#595959" font-family="Verdana,Open Sans,DejaVu Sans,sans-serif" font-weight="400" font-size="41" transform="matrix(1 0 0 1 4404.56 839)">Windows</text>
		</g>
	</g>
</svg>
