<svg width="1763" height="1046"
    xmlns="http://www.w3.org/2000/svg"
	xmlns:xlink="http://www.w3.org/1999/xlink" xml:space="preserve" overflow="hidden">
	<defs>
		<clipPath id="clip0">
			<rect x="2917" y="346" width="1763" height="1046"/>
		</clipPath>
	</defs>
	<g clip-path="url(#clip0)" transform="translate(-2917 -346)">
		<rect x="2918" y="347" width="1760" height="1043" fill="#FFFFFF" />
		<g>
			<path d="
			M3228.5 974.532 4296.5 974.532
			M3228.5 910.53 4296.5 910.53
			M3228.5 846.528 4296.5 846.528
			M3228.5 781.526 4296.5 781.526
			M3228.5 717.524 4296.5 717.524
			M3228.5 653.522 4296.5 653.522
			M3228.5 589.52 4296.5 589.52
			M3228.5 525.517 4296.5 525.517
			M3228.5 461.515 4296.5 461.515
			M3228.5 397.5 4296.5 397.5" stroke="#D9D9D9" stroke-width="3.4375" stroke-linejoin="round" stroke-miterlimit="10" fill="none" />
		</g>
		<g>
			<path d="M 1038.5 4296.5 1038.5" stroke="#D9D9D9" stroke-width="3.4375" stroke-linejoin="round" stroke-miterlimit="10" fill="none" fill-rule="evenodd" />
		</g>
		<g>
			<text fill="#595959" font-family="Verdana,sans-serif" font-weight="400" font-size="41" transform="matrix(6.12323e-17 -1 1 6.12323e-17 3244.5 1225)">06-Nov</text>
		</g>
		<g>
			<text fill="#595959" font-family="Verdana,sans-serif" font-weight="400" font-size="41" transform="matrix(6.12323e-17 -1 1 6.12323e-17 3351.3 1223)">04-Dec</text>
		</g>
		<g>
			<text fill="#595959" font-family="Verdana,sans-serif" font-weight="400" font-size="41" transform="matrix(6.12323e-17 -1 1 6.12323e-17 3458.1 1210)">01-Jan</text>
		</g>
		<g>
			<text fill="#595959" font-family="Verdana,sans-serif" font-weight="400" font-size="41" transform="matrix(6.12323e-17 -1 1 6.12323e-17 3564.9 1210)">29-Jan</text>
		</g>
		<g>
			<text fill="#595959" font-family="Verdana,sans-serif" font-weight="400" font-size="41" transform="matrix(6.12323e-17 -1 1 6.12323e-17 3671.7 1216)">26-Feb</text>
		</g>
		<g>
			<text fill="#595959" font-family="Verdana,sans-serif" font-weight="400" font-size="41" transform="matrix(6.12323e-17 -1 1 6.12323e-17 3778.5 1223)">25-Mar</text>
		</g>
		<g>
			<text fill="#595959" font-family="Verdana,sans-serif" font-weight="400" font-size="41" transform="matrix(6.12323e-17 -1 1 6.12323e-17 3888.8 1216)">22-Apr</text>
		</g>
		<g>
			<text fill="#595959" font-family="Verdana,sans-serif" font-weight="400" font-size="41" transform="matrix(6.12323e-17 -1 1 6.12323e-17 3995.6 1228)">20-May</text>
		</g>
		<g>
			<text fill="#595959" font-family="Verdana,sans-serif" font-weight="400" font-size="41" transform="matrix(6.12323e-17 -1 1 6.12323e-17 4098.4 1209)">17-Jun</text>
		</g>
		<g>
			<text fill="#595959" font-family="Verdana,sans-serif" font-weight="400" font-size="41" transform="matrix(6.12323e-17 -1 1 6.12323e-17 4205.7 1194)">15-Jul</text>
		</g>
		<g>
			<text fill="#595959" font-family="Verdana,sans-serif" font-weight="400" font-size="41" transform="matrix(6.12323e-17 -1 1 6.12323e-17 4316 1218)">12-Aug</text>
		</g>
		<g>
			<text fill="#595959" font-family="Verdana,sans-serif" font-weight="400" font-size="41" transform="matrix(1 0 0 1 3167.5 1050)">0</text>
		</g>
		<g>
			<text fill="#595959" font-family="Verdana,sans-serif" font-weight="400" font-size="41" transform="matrix(1 0 0 1 3116.5 922)">383</text>
		</g>
		<g>
			<text fill="#595959" font-family="Verdana,sans-serif" font-weight="400" font-size="41" transform="matrix(1 0 0 1 3115.5 794)">766</text>
		</g>
		<g>
			<text fill="#595959" font-family="Verdana,sans-serif" font-weight="400" font-size="41" transform="matrix(1 0 0 1 3076.5 666)">1,148</text>
		</g>
		<g>
			<text fill="#595959" font-family="Verdana,sans-serif" font-weight="400" font-size="41" transform="matrix(1 0 0 1 3078.5 538)">1,531</text>
		</g>
		<g>
			<text fill="#595959" font-family="Verdana,sans-serif" font-weight="400" font-size="41" transform="matrix(1 0 0 1 3076.5 410)">1,914</text>
		</g>
		<g>
			<text fill="#595959" font-family="Verdana,sans-serif" font-weight="400" font-size="41" transform="matrix(1 0 0 1 3544.5 1321)">Week Commencing</text>
		</g>
		<g>
			<text fill="#595959" font-family="Verdana,sans-serif" font-weight="400" font-size="46" transform="matrix(6.12323e-17 -1 1 6.12323e-17 3019.73 970.75)">Number of OS Profiles</text>
		</g>
		<rect x="2918.5" y="347.5" width="1760" height="1043" stroke="#D9D9D9" stroke-width="3.4375" stroke-linejoin="round" stroke-miterlimit="10" fill="none" />
		<g>
			<path d="M3228.5 1038 3255.2 1038 3281.9 1038 3308.6 1038 3335.3 1038 3362 1038 3388.7 1038 3415.4 1038 3442.1 1038 3468.8 1038 3495.5 1038 3522.2 1038 3548.9 1038 3575.6 1038 3602.3 1038 3629 1038 3655.7 1038 3682.4 1038 3709.1 1038 3735.8 1038 3762.5 1038 3789.2 1038 3815.9 1038 3842.6 1038 3869.3 1038 3896 1038 3922.7 1038 3949.4 1038 3976.1 1038 4002.8 1038 4029.5 1038 4056.2 1038 4082.9 1038 4109.6 1038 4136.3 1038 4163 1038 4189.7 1038 4216.4 1038 4243.1 1038 4269.8 1038 4296.5 1038 4296.5 697.937304075235 4269.8 698.2716823406479 4243.1 698.2716823406479 4216.4 699.2748171368861 4189.7 699.2748171368861 4163 699.6091954022988 4136.3 702.6185997910136 4109.6 702.6185997910136 4082.9 703.2873563218391 4056.2 704.2904911180774 4029.5 704.9592476489029 4002.8 706.2967607105538 3976.1 706.9655172413793 3949.4 707.299895506792 3922.7 707.6342737722048 3896 707.6342737722048 3869.3 707.9686520376176 3842.6 708.3030303030303 3815.9 708.3030303030303 3789.2 709.3061650992686 3762.5 710.3092998955068 3735.8 711.6468129571579 3709.1 712.649947753396 3682.4 712.649947753396 3655.7 713.987460815047 3629 713.987460815047 3602.3 713.987460815047 3575.6 714.9905956112852 3548.9 715.324973876698 3522.2 715.6593521421107 3495.5 716.662486938349 3468.8 716.9968652037617 3442.1 717.3312434691745 3415.4 717.3312434691745 3388.7 717.3312434691745 3362 717.3312434691745 3335.3 719.337513061651 3308.6 719.6718913270638 3281.9 720.3406478578893 3255.2 720.3406478578893 3228.5 721.0094043887148 3228.5 1038Z" fill="#fdd5a4" opacity="0.9" />
		</g>
		<g>
			<path d="M3228.5 721.0094043887148 3255.2 720.3406478578893 3281.9 720.3406478578893 3308.6 719.6718913270638 3335.3 719.337513061651 3362 717.3312434691745 3388.7 717.3312434691745 3415.4 717.3312434691745 3442.1 717.3312434691745 3468.8 716.9968652037617 3495.5 716.662486938349 3522.2 715.6593521421107 3548.9 715.324973876698 3575.6 714.9905956112852 3602.3 713.987460815047 3629 713.987460815047 3655.7 713.987460815047 3682.4 712.649947753396 3709.1 712.649947753396 3735.8 711.6468129571579 3762.5 710.3092998955068 3789.2 709.3061650992686 3815.9 708.3030303030303 3842.6 708.3030303030303 3869.3 707.9686520376176 3896 707.6342737722048 3922.7 707.6342737722048 3949.4 707.299895506792 3976.1 706.9655172413793 4002.8 706.2967607105538 4029.5 704.9592476489029 4056.2 704.2904911180774 4082.9 703.2873563218391 4109.6 702.6185997910136 4136.3 702.6185997910136 4163 699.6091954022988 4189.7 699.2748171368861 4216.4 699.2748171368861 4243.1 698.2716823406479 4269.8 698.2716823406479 4296.5 697.937304075235 4296.5 555.1577847439916 4269.8 556.8296760710555 4243.1 558.5015673981192 4216.4 559.8390804597701 4189.7 559.8390804597701 4163 560.1734587251829 4136.3 563.1828631138976 4109.6 563.1828631138976 4082.9 564.1859979101358 4056.2 566.1922675026124 4029.5 566.8610240334378 4002.8 568.1985370950888 3976.1 569.5360501567397 3949.4 570.5391849529781 3922.7 570.8735632183908 3896 570.8735632183908 3869.3 571.5423197492164 3842.6 572.2110762800418 3815.9 572.2110762800418 3789.2 573.5485893416928 3762.5 575.889237199582 3735.8 577.2267502612331 3709.1 578.2298850574712 3682.4 579.5673981191222 3655.7 580.9049111807733 3629 580.9049111807733 3602.3 581.239289446186 3575.6 582.9111807732497 3548.9 583.5799373040752 3522.2 584.5830721003134 3495.5 586.2549634273772 3468.8 586.5893416927898 3442.1 586.9237199582027 3415.4 586.9237199582027 3388.7 588.5956112852665 3362 589.264367816092 3335.3 591.6050156739811 3308.6 592.9425287356322 3281.9 593.6112852664577 3255.2 593.9456635318704 3228.5 595.2831765935215 3228.5 721.0094043887148Z" fill="#e62d39" opacity="0.9" />
		</g>
		<g>
			<path d="M3228.5 595.2831765935215 3255.2 593.9456635318704 3281.9 593.6112852664577 3308.6 592.9425287356322 3335.3 591.6050156739811 3362 589.264367816092 3388.7 588.5956112852665 3415.4 586.9237199582027 3442.1 586.9237199582027 3468.8 586.5893416927898 3495.5 586.2549634273772 3522.2 584.5830721003134 3548.9 583.5799373040752 3575.6 582.9111807732497 3602.3 581.239289446186 3629 580.9049111807733 3655.7 580.9049111807733 3682.4 579.5673981191222 3709.1 578.2298850574712 3735.8 577.2267502612331 3762.5 575.889237199582 3789.2 573.5485893416928 3815.9 572.2110762800418 3842.6 572.2110762800418 3869.3 571.5423197492164 3896 570.8735632183908 3922.7 570.8735632183908 3949.4 570.5391849529781 3976.1 569.5360501567397 4002.8 568.1985370950888 4029.5 566.8610240334378 4056.2 566.1922675026124 4082.9 564.1859979101358 4109.6 563.1828631138976 4136.3 563.1828631138976 4163 560.1734587251829 4189.7 559.8390804597701 4216.4 559.8390804597701 4243.1 558.5015673981192 4269.8 556.8296760710555 4296.5 555.1577847439916 4296.5 492.62904911180766 4269.8 494.3009404388716 4243.1 495.97283176593527 4216.4 497.3103448275862 4189.7 497.3103448275862 4163 497.64472309299896 4136.3 500.6541274817137 4109.6 500.6541274817137 4082.9 501.65726227795193 4056.2 503.66353187042847 4029.5 504.33228840125395 4002.8 506.3385579937304 3976.1 507.6760710553813 3949.4 508.67920585161966 3922.7 509.34796238244513 3896 509.34796238244513 3869.3 510.0167189132707 3842.6 510.6854754440961 3815.9 510.6854754440961 3789.2 512.0229885057472 3762.5 514.3636363636364 3735.8 515.7011494252874 3709.1 516.7042842215255 3682.4 518.0417972831766 3655.7 519.3793103448277 3629 519.3793103448277 3602.3 519.7136886102404 3575.6 521.3855799373041 3548.9 522.0543364681296 3522.2 523.0574712643678 3495.5 524.7293625914316 3468.8 525.0637408568442 3442.1 525.3981191222571 3415.4 525.3981191222571 3388.7 527.0700104493209 3362 527.7387669801464 3335.3 530.0794148380355 3308.6 531.4169278996866 3281.9 532.0856844305121 3255.2 532.4200626959248 3228.5 533.7575757575759 3228.5 595.2831765935215Z" fill="#005aa6" opacity="0.9" />
		</g>
		<g>
			<path d="M3228.5 533.7575757575759 3255.2 532.4200626959248 3281.9 532.0856844305121 3308.6 531.4169278996866 3335.3 530.0794148380355 3362 527.7387669801464 3388.7 527.0700104493209 3415.4 525.3981191222571 3442.1 525.3981191222571 3468.8 525.0637408568442 3495.5 524.7293625914316 3522.2 523.0574712643678 3548.9 522.0543364681296 3575.6 521.3855799373041 3602.3 519.7136886102404 3629 519.3793103448277 3655.7 519.3793103448277 3682.4 518.0417972831766 3709.1 516.7042842215255 3735.8 515.7011494252874 3762.5 514.3636363636364 3789.2 512.0229885057472 3815.9 510.6854754440961 3842.6 510.6854754440961 3869.3 510.0167189132707 3896 509.34796238244513 3922.7 509.34796238244513 3949.4 508.67920585161966 3976.1 507.6760710553813 4002.8 506.3385579937304 4029.5 504.33228840125395 4056.2 503.66353187042847 4082.9 501.65726227795193 4109.6 500.6541274817137 4136.3 500.6541274817137 4163 497.64472309299896 4189.7 497.3103448275862 4216.4 497.3103448275862 4243.1 495.97283176593527 4269.8 494.3009404388716 4296.5 492.62904911180766 4296.5 442.1379310344827 4269.8 444.81295715778487 4243.1 447.15360501567403 4216.4 448.491118077325 4189.7 448.491118077325 4163 448.491118077325 4136.3 451.50052246603974 4109.6 451.50052246603974 4082.9 452.8380355276907 4056.2 455.17868338558 4029.5 455.84743991640545 4002.8 457.8537095088819 3976.1 459.19122257053283 3949.4 460.8631138975967 3922.7 461.53187042842217 3896 461.53187042842217 3869.3 462.20062695924776 3842.6 462.8693834900731 3815.9 462.8693834900731 3789.2 464.541274817137 3762.5 467.5506792058516 3735.8 468.8881922675027 3709.1 469.8913270637408 3682.4 471.22884012539186 3655.7 472.90073145245566 3629 473.23510971786845 3602.3 474.23824451410667 3575.6 476.2445141065831 3548.9 476.9132706374086 3522.2 477.9164054336468 3495.5 479.92267502612333 3468.8 480.25705329153595 3442.1 480.5914315569488 3415.4 480.5914315569488 3388.7 483.2664576802509 3362 484.2695924764891 3335.3 486.61024033437826 3308.6 488.28213166144207 3281.9 489.2852664576803 3255.2 489.95402298850576 3228.5 491.96029258098235 3228.5 533.7575757575759Z" fill="#f6a118" opacity="0.9" />
		</g>
		<g>
			<path d="M3228.5 491.96029258098235 3255.2 489.95402298850576 3281.9 489.2852664576803 3308.6 488.28213166144207 3335.3 486.61024033437826 3362 484.2695924764891 3388.7 483.2664576802509 3415.4 480.5914315569488 3442.1 480.5914315569488 3468.8 480.25705329153595 3495.5 479.92267502612333 3522.2 477.9164054336468 3548.9 476.9132706374086 3575.6 476.2445141065831 3602.3 474.23824451410667 3629 473.23510971786845 3655.7 472.90073145245566 3682.4 471.22884012539186 3709.1 469.8913270637408 3735.8 468.8881922675027 3762.5 467.5506792058516 3789.2 464.541274817137 3815.9 462.8693834900731 3842.6 462.8693834900731 3869.3 462.20062695924776 3896 461.53187042842217 3922.7 461.53187042842217 3949.4 460.8631138975967 3976.1 459.19122257053283 4002.8 457.8537095088819 4029.5 455.84743991640545 4056.2 455.17868338558 4082.9 452.8380355276907 4109.6 451.50052246603974 4136.3 451.50052246603974 4163 448.491118077325 4189.7 448.491118077325 4216.4 448.491118077325 4243.1 447.15360501567403 4269.8 444.81295715778487 4296.5 442.1379310344827 4296.5 414.38453500522456 4269.8 417.05956112852675 4243.1 419.4002089864159 4216.4 420.73772204806687 4189.7 420.73772204806687 4163 420.73772204806687 4136.3 423.7471264367816 4109.6 423.7471264367816 4082.9 425.0846394984326 4056.2 427.42528735632186 4029.5 428.09404388714734 4002.8 430.10031347962376 3976.1 431.4378265412747 3949.4 433.1097178683386 3922.7 433.77847439916405 3896 434.1128526645768 3869.3 434.7816091954024 3842.6 435.45036572622774 3815.9 435.45036572622774 3789.2 437.1222570532916 3762.5 440.13166144200625 3735.8 441.4691745036573 3709.1 442.4723092998954 3682.4 443.8098223615465 3655.7 445.4817136886103 3629 445.8160919540231 3602.3 446.8192267502613 3575.6 448.8254963427377 3548.9 449.4942528735632 3522.2 450.4973876698014 3495.5 452.50365726227795 3468.8 452.8380355276906 3442.1 453.17241379310343 3415.4 453.17241379310343 3388.7 455.8474399164055 3362 456.8505747126437 3335.3 459.1912225705329 3308.6 460.8631138975967 3281.9 461.8662486938349 3255.2 462.5350052246604 3228.5 464.541274817137 3228.5 491.96029258098235Z" fill="#f48c7d" opacity="0.9" />
		</g>
		<g>
			<path d="M3228.5 464.541274817137 3255.2 462.5350052246604 3281.9 461.8662486938349 3308.6 460.8631138975967 3335.3 459.1912225705329 3362 456.8505747126437 3388.7 455.8474399164055 3415.4 453.17241379310343 3442.1 453.17241379310343 3468.8 452.8380355276906 3495.5 452.50365726227795 3522.2 450.4973876698014 3548.9 449.4942528735632 3575.6 448.8254963427377 3602.3 446.8192267502613 3629 445.8160919540231 3655.7 445.4817136886103 3682.4 443.8098223615465 3709.1 442.4723092998954 3735.8 441.4691745036573 3762.5 440.13166144200625 3789.2 437.1222570532916 3815.9 435.45036572622774 3842.6 435.45036572622774 3869.3 434.7816091954024 3896 434.1128526645768 3922.7 433.77847439916405 3949.4 433.1097178683386 3976.1 431.4378265412747 4002.8 430.10031347962376 4029.5 428.09404388714734 4056.2 427.42528735632186 4082.9 425.0846394984326 4109.6 423.7471264367816 4136.3 423.7471264367816 4163 420.73772204806687 4189.7 420.73772204806687 4216.4 420.73772204806687 4243.1 419.4002089864159 4269.8 417.05956112852675 4296.5 414.38453500522456 4296.5 397.9999999999999 4269.8 400.6750261233021 4243.1 403.01567398119124 4216.4 404.3531870428422 4189.7 404.3531870428422 4163 405.0219435736677 4136.3 408.0313479623825 4109.6 408.0313479623825 4082.9 409.36886102403344 4056.2 411.7095088819227 4029.5 412.04388714733545 4002.8 414.71891327063736 3976.1 416.0564263322883 3949.4 417.7283176593522 3922.7 418.39707419017765 3896 418.7314524555904 3869.3 419.400208986416 3842.6 420.06896551724134 3815.9 420.06896551724134 3789.2 421.7408568443052 3762.5 424.75026123301984 3735.8 426.0877742946709 3709.1 427.090909090909 3682.4 428.4284221525601 3655.7 430.1003134796239 3629 430.4346917450367 3602.3 431.4378265412749 3575.6 433.4440961337513 3548.9 434.1128526645768 3522.2 435.115987460815 3495.5 437.12225705329155 3468.8 437.4566353187042 3442.1 437.791013584117 3415.4 437.791013584117 3388.7 440.4660397074191 3362 441.4691745036573 3335.3 443.8098223615465 3308.6 445.4817136886103 3281.9 446.4848484848485 3255.2 447.153605015674 3228.5 449.1598746081506 3228.5 464.541274817137Z" fill="#55c0e9" opacity="0.9" />
		</g>
		<g>
			<rect x="4372" y="431" width="22.9995" height="23" fill="#fdd5a4" />
		</g>
		<g>
			<text fill="#595959" font-family="Verdana,sans-serif" font-weight="400" font-size="41" transform="matrix(1 0 0 1 4404.56 454)">Other</text>
		</g>
		<g>
			<rect x="4372" y="508" width="22.9995" height="23" fill="#e62d39" />
		</g>
		<g>
			<text fill="#595959" font-family="Verdana,sans-serif" font-weight="400" font-size="41" transform="matrix(1 0 0 1 4404.56 531)">iOS</text>
		</g>
		<g>
			<rect x="4372" y="585" width="22.9995" height="23" fill="#005aa6" />
		</g>
		<g>
			<text fill="#595959" font-family="Verdana,sans-serif" font-weight="400" font-size="41" transform="matrix(1 0 0 1 4404.56 608)">Android</text>
		</g>
		<g>
			<rect x="4372" y="662" width="22.9995" height="23" fill="#f6a118" />
		</g>
		<g>
			<text fill="#595959" font-family="Verdana,sans-serif" font-weight="400" font-size="41" transform="matrix(1 0 0 1 4404.56 685)">macOS</text>
		</g>
		<g>
			<rect x="4372" y="739" width="22.9995" height="23" fill="#f48c7d" />
		</g>
		<g>
			<text fill="#595959" font-family="Verdana,sans-serif" font-weight="400" font-size="41" transform="matrix(1 0 0 1 4404.56 762)">Linux</text>
		</g>
		<g>
			<rect x="4372" y="816" width="22.9995" height="23" fill="#55c0e9" />
		</g>
		<g>
			<text fill="#595959" font-family="Verdana,sans-serif" font-weight="400" font-size="41" transform="matrix(1 0 0 1 4404.56 839)">Windows</text>
		</g>
	</g>
</svg>
