<svg width="1763" height="1046"
    xmlns="http://www.w3.org/2000/svg"
	xmlns:xlink="http://www.w3.org/1999/xlink" xml:space="preserve" overflow="hidden">
	<defs>
		<clipPath id="clip0">
			<rect x="2917" y="346" width="1763" height="1046"/>
		</clipPath>
	</defs>
	<g clip-path="url(#clip0)" transform="translate(-2917 -346)">
		<rect x="2918" y="347" width="1760" height="1043" fill="#FFFFFF" />
		<g>
			<path d="
			M3228.5 974.532 4296.5 974.532
			M3228.5 910.53 4296.5 910.53
			M3228.5 846.528 4296.5 846.528
			M3228.5 781.526 4296.5 781.526
			M3228.5 717.524 4296.5 717.524
			M3228.5 653.522 4296.5 653.522
			M3228.5 589.52 4296.5 589.52
			M3228.5 525.517 4296.5 525.517
			M3228.5 461.515 4296.5 461.515
			M3228.5 397.5 4296.5 397.5" stroke="#D9D9D9" stroke-width="3.4375" stroke-linejoin="round" stroke-miterlimit="10" fill="none" />
		</g>
		<g>
			<path d="M 1038.5 4296.5 1038.5" stroke="#D9D9D9" stroke-width="3.4375" stroke-linejoin="round" stroke-miterlimit="10" fill="none" fill-rule="evenodd" />
		</g>
		<g>
			<text fill="#595959" font-family="Verdana,Open Sans,DejaVu Sans,sans-serif" font-weight="400" font-size="41" transform="matrix(6.12323e-17 -1 1 6.12323e-17 3243.544677734375 1205.3642578125)">16-Dec</text>
		</g>
		<g>
			<text fill="#595959" font-family="Verdana,Open Sans,DejaVu Sans,sans-serif" font-weight="400" font-size="41" transform="matrix(6.12323e-17 -1 1 6.12323e-17 3332.6382421875 1189.9291915893555)">13-Jan</text>
		</g>
		<g>
			<text fill="#595959" font-family="Verdana,Open Sans,DejaVu Sans,sans-serif" font-weight="400" font-size="41" transform="matrix(6.12323e-17 -1 1 6.12323e-17 3415.155390625 1201.3203125)">10-Feb</text>
		</g>
		<g>
			<text fill="#595959" font-family="Verdana,Open Sans,DejaVu Sans,sans-serif" font-weight="400" font-size="41" transform="matrix(6.12323e-17 -1 1 6.12323e-17 3499.884697265625 1210.2890625)">10-Mar</text>
		</g>
		<g>
			<text fill="#595959" font-family="Verdana,Open Sans,DejaVu Sans,sans-serif" font-weight="400" font-size="41" transform="matrix(6.12323e-17 -1 1 6.12323e-17 3590.049306640625 1203.2621994018555)">07-Apr</text>
		</g>
		<g>
			<text fill="#595959" font-family="Verdana,Open Sans,DejaVu Sans,sans-serif" font-weight="400" font-size="41" transform="matrix(6.12323e-17 -1 1 6.12323e-17 3675.489306640625 1216.47509765625)">05-May</text>
		</g>
		<g>
			<text fill="#595959" font-family="Verdana,Open Sans,DejaVu Sans,sans-serif" font-weight="400" font-size="41" transform="matrix(6.12323e-17 -1 1 6.12323e-17 3759.85826171875 1194.0131759643555)">09-Jun</text>
		</g>
		<g>
			<text fill="#595959" font-family="Verdana,Open Sans,DejaVu Sans,sans-serif" font-weight="400" font-size="41" transform="matrix(6.12323e-17 -1 1 6.12323e-17 3846.008955078125 1178.9985275268555)">07-Jul</text>
		</g>
		<g>
			<text fill="#595959" font-family="Verdana,Open Sans,DejaVu Sans,sans-serif" font-weight="400" font-size="41" transform="matrix(6.12323e-17 -1 1 6.12323e-17 3931.809306640625 1208.62744140625)">04-Aug</text>
		</g>
		<g>
			<text fill="#595959" font-family="Verdana,Open Sans,DejaVu Sans,sans-serif" font-weight="400" font-size="41" transform="matrix(6.12323e-17 -1 1 6.12323e-17 4017.249306640625 1204.38330078125)">01-Sep</text>
		</g>
		<g>
			<text fill="#595959" font-family="Verdana,Open Sans,DejaVu Sans,sans-serif" font-weight="400" font-size="41" transform="matrix(6.12323e-17 -1 1 6.12323e-17 4102.669287109375 1204.42333984375)">29-Sep</text>
		</g>
		<g>
			<text fill="#595959" font-family="Verdana,Open Sans,DejaVu Sans,sans-serif" font-weight="400" font-size="41" transform="matrix(6.12323e-17 -1 1 6.12323e-17 4183.404697265625 1201.1401290893555)">27-Oct</text>
		</g>
		<g>
			<text fill="#595959" font-family="Verdana,Open Sans,DejaVu Sans,sans-serif" font-weight="400" font-size="41" transform="matrix(6.12323e-17 -1 1 6.12323e-17 4268.824677734375 1211.47021484375)">24-Nov</text>
		</g>
		<g>
			<text fill="#595959" font-family="Verdana,Open Sans,DejaVu Sans,sans-serif" font-weight="400" font-size="41" transform="matrix(1 0 0 1 3169.14111328125 1050)">0</text>
		</g>
		<g>
			<text fill="#595959" font-family="Verdana,Open Sans,DejaVu Sans,sans-serif" font-weight="400" font-size="41" transform="matrix(1 0 0 1 3121.39453125 922)">425</text>
		</g>
		<g>
			<text fill="#595959" font-family="Verdana,Open Sans,DejaVu Sans,sans-serif" font-weight="400" font-size="41" transform="matrix(1 0 0 1 3122.29541015625 794)">850</text>
		</g>
		<g>
			<text fill="#595959" font-family="Verdana,Open Sans,DejaVu Sans,sans-serif" font-weight="400" font-size="41" transform="matrix(1 0 0 1 3090.4443359375 666)">1,276</text>
		</g>
		<g>
			<text fill="#595959" font-family="Verdana,Open Sans,DejaVu Sans,sans-serif" font-weight="400" font-size="41" transform="matrix(1 0 0 1 3097.5712890625 538)">1,701</text>
		</g>
		<g>
			<text fill="#595959" font-family="Verdana,Open Sans,DejaVu Sans,sans-serif" font-weight="400" font-size="41" transform="matrix(1 0 0 1 3088.6826171875 410)">2,126</text>
		</g>
		<g>
			<text fill="#595959" font-family="Verdana,Open Sans,DejaVu Sans,sans-serif" font-weight="400" font-size="41" transform="matrix(1 0 0 1 3556.97119140625 1321)">Week Commencing</text>
		</g>
		<g>
			<text fill="#595959" font-family="Verdana,Open Sans,DejaVu Sans,sans-serif" font-weight="400" font-size="46" transform="matrix(6.12323e-17 -1 1 6.12323e-17 3019.73 953.7919921875)">Number of OS Profiles</text>
		</g>
		<rect x="2918.5" y="347.5" width="1760" height="1043" stroke="#D9D9D9" stroke-width="3.4375" stroke-linejoin="round" stroke-miterlimit="10" fill="none" />
		<g>
			<path d="M3228.5 1038 3249.86 1038 3271.22 1038 3292.58 1038 3313.94 1038 3335.3 1038 3356.66 1038 3378.02 1038 3399.38 1038 3420.74 1038 3442.1 1038 3463.46 1038 3484.82 1038 3506.18 1038 3527.54 1038 3548.9 1038 3570.26 1038 3591.62 1038 3612.98 1038 3634.34 1038 3655.7 1038 3677.06 1038 3698.42 1038 3719.7799999999997 1038 3741.14 1038 3762.5 1038 3783.86 1038 3805.2200000000003 1038 3826.58 1038 3847.94 1038 3869.3 1038 3890.66 1038 3912.02 1038 3933.38 1038 3954.74 1038 3976.1 1038 3997.46 1038 4018.8199999999997 1038 4040.18 1038 4061.54 1038 4082.9 1038 4104.26 1038 4125.62 1038 4146.98 1038 4168.34 1038 4189.7 1038 4211.0599999999995 1038 4232.42 1038 4253.78 1038 4275.139999999999 1038 4296.5 1038 4296.5 703.2492944496707 4275.139999999999 703.5503292568203 4253.78 703.8513640639699 4232.42 704.1523988711194 4211.0599999999995 705.0555032925682 4189.7 705.958607714017 4168.34 706.2596425211666 4146.98 706.5606773283162 4125.62 706.5606773283162 4104.26 707.1627469426153 4082.9 708.6679209783631 4061.54 709.5710253998119 4040.18 709.8720602069615 4018.8199999999997 709.8720602069615 3997.46 710.173095014111 3976.1 710.173095014111 3954.74 710.173095014111 3933.38 710.4741298212606 3912.02 711.3772342427094 3890.66 711.3772342427094 3869.3 711.678269049859 3847.94 711.9793038570085 3826.58 712.5813734713076 3805.2200000000003 712.8824082784572 3783.86 712.8824082784572 3762.5 713.4844778927563 3741.14 714.9896519285043 3719.7799999999997 717.0968955785513 3698.42 717.0968955785513 3677.06 717.0968955785513 3655.7 717.3979303857009 3634.34 717.0968955785513 3612.98 717.3979303857009 3591.62 717.6989651928504 3570.26 717.6989651928504 3548.9 718.6020696142991 3527.54 719.2041392285983 3506.18 719.8062088428975 3484.82 719.8062088428975 3463.46 721.0103480714959 3442.1 721.612417685795 3420.74 721.612417685795 3399.38 722.2144873000941 3378.02 722.8165569143932 3356.66 723.4186265286924 3335.3 724.0206961429915 3313.94 724.3217309501412 3292.58 724.3217309501412 3271.22 724.3217309501412 3249.86 724.3217309501412 3228.5 724.9238005644403 3228.5 1038Z" fill="#f48c7d" opacity="0.9" />
		</g>
		<g>
			<path d="M3228.5 724.9238005644403 3249.86 724.3217309501412 3271.22 724.3217309501412 3292.58 724.3217309501412 3313.94 724.3217309501412 3335.3 724.0206961429915 3356.66 723.4186265286924 3378.02 722.8165569143932 3399.38 722.2144873000941 3420.74 721.612417685795 3442.1 721.612417685795 3463.46 721.0103480714959 3484.82 719.8062088428975 3506.18 719.8062088428975 3527.54 719.2041392285983 3548.9 718.6020696142991 3570.26 717.6989651928504 3591.62 717.6989651928504 3612.98 717.3979303857009 3634.34 717.0968955785513 3655.7 717.3979303857009 3677.06 717.0968955785513 3698.42 717.0968955785513 3719.7799999999997 717.0968955785513 3741.14 714.9896519285043 3762.5 713.4844778927563 3783.86 712.8824082784572 3805.2200000000003 712.8824082784572 3826.58 712.5813734713076 3847.94 711.9793038570085 3869.3 711.678269049859 3890.66 711.3772342427094 3912.02 711.3772342427094 3933.38 710.4741298212606 3954.74 710.173095014111 3976.1 710.173095014111 3997.46 710.173095014111 4018.8199999999997 709.8720602069615 4040.18 709.8720602069615 4061.54 709.5710253998119 4082.9 708.6679209783631 4104.26 707.1627469426153 4125.62 706.5606773283162 4146.98 706.5606773283162 4168.34 706.2596425211666 4189.7 705.958607714017 4211.0599999999995 705.0555032925682 4232.42 704.1523988711194 4253.78 703.8513640639699 4275.139999999999 703.5503292568203 4296.5 703.2492944496707 4296.5 551.2267168391345 4275.139999999999 552.1298212605832 4253.78 552.4308560677327 4232.42 552.7318908748823 4211.0599999999995 553.6349952963312 4189.7 555.7422389463783 4168.34 556.645343367827 4146.98 556.9463781749765 4125.62 556.9463781749765 4104.26 557.5484477892757 4082.9 562.0639698965192 4061.54 563.2681091251177 4040.18 563.5691439322673 4018.8199999999997 565.3753527751646 3997.46 565.9774223894638 3976.1 565.9774223894638 3954.74 566.8805268109126 3933.38 567.4825964252117 3912.02 568.68673565381 3890.66 568.68673565381 3869.3 569.2888052681092 3847.94 569.5898400752587 3826.58 570.1919096895579 3805.2200000000003 570.4929444967074 3783.86 570.4929444967074 3762.5 571.6970837253057 3741.14 574.1053621825024 3719.7799999999997 576.513640639699 3698.42 577.1157102539981 3677.06 576.2126058325495 3655.7 578.3198494825965 3634.34 578.018814675447 3612.98 578.3198494825965 3591.62 579.2229539040452 3570.26 579.2229539040452 3548.9 581.9322671683913 3527.54 582.8353715898401 3506.18 583.4374412041393 3484.82 584.0395108184384 3463.46 585.2436500470368 3442.1 586.447789275635 3420.74 586.447789275635 3399.38 587.952963311383 3378.02 588.5550329256821 3356.66 589.1571025399812 3335.3 590.0602069614299 3313.94 590.3612417685796 3292.58 590.9633113828787 3271.22 590.9633113828787 3249.86 590.9633113828787 3228.5 592.167450611477 3228.5 724.9238005644403Z" fill="#005aa6" opacity="0.9" />
		</g>
		<g>
			<path d="M3228.5 592.167450611477 3249.86 590.9633113828787 3271.22 590.9633113828787 3292.58 590.9633113828787 3313.94 590.3612417685796 3335.3 590.0602069614299 3356.66 589.1571025399812 3378.02 588.5550329256821 3399.38 587.952963311383 3420.74 586.447789275635 3442.1 586.447789275635 3463.46 585.2436500470368 3484.82 584.0395108184384 3506.18 583.4374412041393 3527.54 582.8353715898401 3548.9 581.9322671683913 3570.26 579.2229539040452 3591.62 579.2229539040452 3612.98 578.3198494825965 3634.34 578.018814675447 3655.7 578.3198494825965 3677.06 576.2126058325495 3698.42 577.1157102539981 3719.7799999999997 576.513640639699 3741.14 574.1053621825024 3762.5 571.6970837253057 3783.86 570.4929444967074 3805.2200000000003 570.4929444967074 3826.58 570.1919096895579 3847.94 569.5898400752587 3869.3 569.2888052681092 3890.66 568.68673565381 3912.02 568.68673565381 3933.38 567.4825964252117 3954.74 566.8805268109126 3976.1 565.9774223894638 3997.46 565.9774223894638 4018.8199999999997 565.3753527751646 4040.18 563.5691439322673 4061.54 563.2681091251177 4082.9 562.0639698965192 4104.26 557.5484477892757 4125.62 556.9463781749765 4146.98 556.9463781749765 4168.34 556.645343367827 4189.7 555.7422389463783 4211.0599999999995 553.6349952963312 4232.42 552.7318908748823 4253.78 552.4308560677327 4275.139999999999 552.1298212605832 4296.5 551.2267168391345 4296.5 494.03010348071496 4275.139999999999 494.93320790216364 4253.78 495.2342427093132 4232.42 495.53527751646277 4211.0599999999995 497.0404515522108 4189.7 500.0507996237066 4168.34 500.9539040451553 4146.98 501.25493885230486 4125.62 501.25493885230486 4104.26 502.15804327375355 4082.9 507.57666980244585 4061.54 509.0818438381939 4040.18 509.38287864534345 4018.8199999999997 511.18908748824083 3997.46 511.79115710253996 3976.1 511.79115710253996 3954.74 513.5973659454374 3933.38 514.5004703668862 3912.02 516.0056444026342 3890.66 516.6077140169333 3869.3 517.2097836312324 3847.94 517.510818438382 3826.58 518.1128880526811 3805.2200000000003 518.4139228598307 3783.86 518.4139228598307 3762.5 519.9190968955785 3741.14 522.6284101599248 3719.7799999999997 525.0366886171214 3698.42 526.2408278457197 3677.06 525.337723424271 3655.7 527.444967074318 3634.34 527.1439322671685 3612.98 527.444967074318 3591.62 528.6491063029164 3570.26 528.6491063029164 3548.9 532.2615239887111 3527.54 533.1646284101599 3506.18 533.7666980244592 3484.82 534.6698024459079 3463.46 535.8739416745062 3442.1 537.379115710254 3420.74 537.9811853245532 3399.38 539.7873941674507 3378.02 540.991533396049 3356.66 541.5936030103481 3335.3 542.4967074317968 3313.94 542.7977422389465 3292.58 543.3998118532456 3271.22 543.3998118532456 3249.86 543.3998118532456 3228.5 545.5070555032926 3228.5 592.167450611477Z" fill="#f6a118" opacity="0.9" />
		</g>
		<g>
			<path d="M3228.5 545.5070555032926 3249.86 543.3998118532456 3271.22 543.3998118532456 3292.58 543.3998118532456 3313.94 542.7977422389465 3335.3 542.4967074317968 3356.66 541.5936030103481 3378.02 540.991533396049 3399.38 539.7873941674507 3420.74 537.9811853245532 3442.1 537.379115710254 3463.46 535.8739416745062 3484.82 534.6698024459079 3506.18 533.7666980244592 3527.54 533.1646284101599 3548.9 532.2615239887111 3570.26 528.6491063029164 3591.62 528.6491063029164 3612.98 527.444967074318 3634.34 527.1439322671685 3655.7 527.444967074318 3677.06 525.337723424271 3698.42 526.2408278457197 3719.7799999999997 525.0366886171214 3741.14 522.6284101599248 3762.5 519.9190968955785 3783.86 518.4139228598307 3805.2200000000003 518.4139228598307 3826.58 518.1128880526811 3847.94 517.510818438382 3869.3 517.2097836312324 3890.66 516.6077140169333 3912.02 516.0056444026342 3933.38 514.5004703668862 3954.74 513.5973659454374 3976.1 511.79115710253996 3997.46 511.79115710253996 4018.8199999999997 511.18908748824083 4040.18 509.38287864534345 4061.54 509.0818438381939 4082.9 507.57666980244585 4104.26 502.15804327375355 4125.62 501.25493885230486 4146.98 501.25493885230486 4168.34 500.9539040451553 4189.7 500.0507996237066 4211.0599999999995 497.0404515522108 4232.42 495.53527751646277 4253.78 495.2342427093132 4275.139999999999 494.93320790216364 4296.5 494.03010348071496 4296.5 437.43555973659454 4275.139999999999 438.33866415804323 4253.78 438.6396989651928 4232.42 438.94073377234236 4211.0599999999995 440.4459078080904 4189.7 443.4562558795862 4168.34 444.3593603010349 4146.98 444.66039510818445 4125.62 444.66039510818445 4104.26 445.56349952963313 4082.9 450.98212605832543 4061.54 452.4873000940735 4040.18 452.78833490122304 4018.8199999999997 454.5945437441204 3997.46 455.19661335841954 3976.1 455.19661335841954 3954.74 457.00282220131703 3933.38 457.90592662276583 3912.02 459.41110065851376 3890.66 460.0131702728129 3869.3 460.615239887112 3847.94 460.9162746942616 3826.58 461.5183443085607 3805.2200000000003 461.81937911571026 3783.86 461.81937911571026 3762.5 463.3245531514581 3741.14 466.03386641580437 3719.7799999999997 468.442144873001 3698.42 469.64628410159924 3677.06 468.74317968015055 3655.7 470.8504233301976 3634.34 470.54938852304804 3612.98 470.8504233301976 3591.62 472.05456255879596 3570.26 472.05456255879596 3548.9 475.6669802445907 3527.54 476.5700846660395 3506.18 477.17215428033876 3484.82 478.07525870178745 3463.46 479.2793979303858 3442.1 480.7845719661336 3420.74 481.38664158043275 3399.38 483.19285042333024 3378.02 484.3969896519286 3356.66 484.99905926622773 3335.3 485.9021636876764 3313.94 486.2031984948261 3292.58 486.8052681091252 3271.22 486.8052681091252 3249.86 486.8052681091252 3228.5 488.91251175917216 3228.5 545.5070555032926Z" fill="#e62d39" opacity="0.9" />
		</g>
		<g>
			<path d="M3228.5 488.91251175917216 3249.86 486.8052681091252 3271.22 486.8052681091252 3292.58 486.8052681091252 3313.94 486.2031984948261 3335.3 485.9021636876764 3356.66 484.99905926622773 3378.02 484.3969896519286 3399.38 483.19285042333024 3420.74 481.38664158043275 3442.1 480.7845719661336 3463.46 479.2793979303858 3484.82 478.07525870178745 3506.18 477.17215428033876 3527.54 476.5700846660395 3548.9 475.6669802445907 3570.26 472.05456255879596 3591.62 472.05456255879596 3612.98 470.8504233301976 3634.34 470.54938852304804 3655.7 470.8504233301976 3677.06 468.74317968015055 3698.42 469.64628410159924 3719.7799999999997 468.442144873001 3741.14 466.03386641580437 3762.5 463.3245531514581 3783.86 461.81937911571026 3805.2200000000003 461.81937911571026 3826.58 461.5183443085607 3847.94 460.9162746942616 3869.3 460.615239887112 3890.66 460.0131702728129 3912.02 459.41110065851376 3933.38 457.90592662276583 3954.74 457.00282220131703 3976.1 455.19661335841954 3997.46 455.19661335841954 4018.8199999999997 454.5945437441204 4040.18 452.78833490122304 4061.54 452.4873000940735 4082.9 450.98212605832543 4104.26 445.56349952963313 4125.62 444.66039510818445 4146.98 444.66039510818445 4168.34 444.3593603010349 4189.7 443.4562558795862 4211.0599999999995 440.4459078080904 4232.42 438.94073377234236 4253.78 438.6396989651928 4275.139999999999 438.33866415804323 4296.5 437.43555973659454 4296.5 410.94449670743177 4275.139999999999 411.84760112888046 4253.78 412.14863593603 4232.42 412.4496707431796 4211.0599999999995 413.9548447789276 4189.7 416.9651928504235 4168.34 417.86829727187217 4146.98 418.16933207902173 4125.62 418.4703668861713 4104.26 419.37347130762 4082.9 424.7920978363123 4061.54 426.2972718720603 4040.18 426.5983066792099 4018.8199999999997 428.40451552210726 3997.46 429.0065851364064 3976.1 429.0065851364064 3954.74 430.8127939793039 3933.38 431.7158984007527 3912.02 433.2210724365006 3890.66 433.82314205079973 3869.3 434.42521166509886 3847.94 434.7262464722484 3826.58 435.32831608654755 3805.2200000000003 435.6293508936971 3783.86 435.6293508936971 3762.5 437.1345249294449 3741.14 439.8438381937912 3719.7799999999997 442.25211665098783 3698.42 443.4562558795861 3677.06 442.5531514581374 3655.7 444.961429915334 3634.34 444.961429915334 3612.98 445.26246472248357 3591.62 446.46660395108194 3570.26 446.46660395108194 3548.9 450.0790216368767 3527.54 450.9821260583255 3506.18 451.58419567262473 3484.82 452.4873000940734 3463.46 453.9924741298214 3442.1 455.4976481655692 3420.74 456.09971777986834 3399.38 457.90592662276583 3378.02 459.1100658513642 3356.66 459.7121354656633 3335.3 460.615239887112 3313.94 460.9162746942617 3292.58 461.5183443085608 3271.22 461.5183443085608 3249.86 461.5183443085608 3228.5 463.62558795860775 3228.5 488.91251175917216Z" fill="#fdd5a4" opacity="0.9" />
		</g>
		<g>
			<path d="M3228.5 463.62558795860775 3249.86 461.5183443085608 3271.22 461.5183443085608 3292.58 461.5183443085608 3313.94 460.9162746942617 3335.3 460.615239887112 3356.66 459.7121354656633 3378.02 459.1100658513642 3399.38 457.90592662276583 3420.74 456.09971777986834 3442.1 455.4976481655692 3463.46 453.9924741298214 3484.82 452.4873000940734 3506.18 451.58419567262473 3527.54 450.9821260583255 3548.9 450.0790216368767 3570.26 446.46660395108194 3591.62 446.46660395108194 3612.98 445.26246472248357 3634.34 444.961429915334 3655.7 444.961429915334 3677.06 442.5531514581374 3698.42 443.4562558795861 3719.7799999999997 442.25211665098783 3741.14 439.8438381937912 3762.5 437.1345249294449 3783.86 435.6293508936971 3805.2200000000003 435.6293508936971 3826.58 435.32831608654755 3847.94 434.7262464722484 3869.3 434.42521166509886 3890.66 433.82314205079973 3912.02 433.2210724365006 3933.38 431.7158984007527 3954.74 430.8127939793039 3976.1 429.0065851364064 3997.46 429.0065851364064 4018.8199999999997 428.40451552210726 4040.18 426.5983066792099 4061.54 426.2972718720603 4082.9 424.7920978363123 4104.26 419.37347130762 4125.62 418.4703668861713 4146.98 418.16933207902173 4168.34 417.86829727187217 4189.7 416.9651928504235 4211.0599999999995 413.9548447789276 4232.42 412.4496707431796 4253.78 412.14863593603 4275.139999999999 411.84760112888046 4296.5 410.94449670743177 4296.5 398 4275.139999999999 398.9031044214487 4253.78 399.20413922859825 4232.42 399.5051740357478 4211.0599999999995 401.01034807149586 4189.7 404.0206961429917 4168.34 404.9238005644404 4146.98 405.22483537158996 4125.62 405.5258701787395 4104.26 406.4289746001882 4082.9 411.84760112888046 4061.54 413.3527751646285 4040.18 413.65380997177806 4018.8199999999997 415.46001881467544 3997.46 416.06208842897456 3976.1 416.06208842897456 3954.74 417.86829727187205 3933.38 418.77140169332085 3912.02 420.2765757290688 3890.66 420.8786453433679 3869.3 421.48071495766703 3847.94 421.7817497648166 3826.58 422.3838193791157 3805.2200000000003 422.6848541862653 3783.86 422.6848541862653 3762.5 424.1900282220131 3741.14 426.8993414863594 3719.7799999999997 429.307619943556 3698.42 430.51175917215426 3677.06 429.60865475070557 3655.7 432.0169332079022 3634.34 432.0169332079022 3612.98 432.31796801505175 3591.62 433.5221072436501 3570.26 433.5221072436501 3548.9 437.13452492944486 3527.54 438.03762935089367 3506.18 438.6396989651929 3484.82 439.5428033866416 3463.46 441.04797742238964 3442.1 442.55315145813745 3420.74 443.1552210724366 3399.38 444.96142991533407 3378.02 446.16556914393243 3356.66 446.76763875823156 3335.3 447.67074317968024 3313.94 447.9717779868299 3292.58 448.57384760112905 3271.22 448.57384760112905 3249.86 448.57384760112905 3228.5 450.681091251176 3228.5 463.62558795860775Z" fill="#55c0e9" opacity="0.9" />
		</g>
		<g>
			<rect x="4372" y="431" width="22.9995" height="23" fill="#f48c7d" />
		</g>
		<g>
			<text fill="#595959" font-family="Verdana,Open Sans,DejaVu Sans,sans-serif" font-weight="400" font-size="41" transform="matrix(1 0 0 1 4404.56 454)">Other</text>
		</g>
		<g>
			<rect x="4372" y="508" width="22.9995" height="23" fill="#005aa6" />
		</g>
		<g>
			<text fill="#595959" font-family="Verdana,Open Sans,DejaVu Sans,sans-serif" font-weight="400" font-size="41" transform="matrix(1 0 0 1 4404.56 531)">iOS</text>
		</g>
		<g>
			<rect x="4372" y="585" width="22.9995" height="23" fill="#f6a118" />
		</g>
		<g>
			<text fill="#595959" font-family="Verdana,Open Sans,DejaVu Sans,sans-serif" font-weight="400" font-size="41" transform="matrix(1 0 0 1 4404.56 608)">macOS</text>
		</g>
		<g>
			<rect x="4372" y="662" width="22.9995" height="23" fill="#e62d39" />
		</g>
		<g>
			<text fill="#595959" font-family="Verdana,Open Sans,DejaVu Sans,sans-serif" font-weight="400" font-size="41" transform="matrix(1 0 0 1 4404.56 685)">Android</text>
		</g>
		<g>
			<rect x="4372" y="739" width="22.9995" height="23" fill="#fdd5a4" />
		</g>
		<g>
			<text fill="#595959" font-family="Verdana,Open Sans,DejaVu Sans,sans-serif" font-weight="400" font-size="41" transform="matrix(1 0 0 1 4404.56 762)">Linux</text>
		</g>
		<g>
			<rect x="4372" y="816" width="22.9995" height="23" fill="#55c0e9" />
		</g>
		<g>
			<text fill="#595959" font-family="Verdana,Open Sans,DejaVu Sans,sans-serif" font-weight="400" font-size="41" transform="matrix(1 0 0 1 4404.56 839)">Windows</text>
		</g>
	</g>
</svg>
