<svg width="1763" height="1046"
    xmlns="http://www.w3.org/2000/svg"
	xmlns:xlink="http://www.w3.org/1999/xlink" xml:space="preserve" overflow="hidden">
	<defs>
		<clipPath id="clip0">
			<rect x="2917" y="346" width="1763" height="1046"/>
		</clipPath>
	</defs>
	<g clip-path="url(#clip0)" transform="translate(-2917 -346)">
		<rect x="2918" y="347" width="1760" height="1043" fill="#FFFFFF" />
		<g>
			<path d="
			M3228.5 974.532 4296.5 974.532
			M3228.5 910.53 4296.5 910.53
			M3228.5 846.528 4296.5 846.528
			M3228.5 781.526 4296.5 781.526
			M3228.5 717.524 4296.5 717.524
			M3228.5 653.522 4296.5 653.522
			M3228.5 589.52 4296.5 589.52
			M3228.5 525.517 4296.5 525.517
			M3228.5 461.515 4296.5 461.515
			M3228.5 397.5 4296.5 397.5" stroke="#D9D9D9" stroke-width="3.4375" stroke-linejoin="round" stroke-miterlimit="10" fill="none" />
		</g>
		<g>
			<path d="M 1038.5 4296.5 1038.5" stroke="#D9D9D9" stroke-width="3.4375" stroke-linejoin="round" stroke-miterlimit="10" fill="none" fill-rule="evenodd" />
		</g>
		<g>
			<text fill="#595959" font-family="Verdana,Open Sans,DejaVu Sans,sans-serif" font-weight="400" font-size="41" transform="matrix(6.12323e-17 -1 1 6.12323e-17 3243.564697265625 1201.1401290893555)">21-Oct</text>
		</g>
		<g>
			<text fill="#595959" font-family="Verdana,Open Sans,DejaVu Sans,sans-serif" font-weight="400" font-size="41" transform="matrix(6.12323e-17 -1 1 6.12323e-17 3328.984677734375 1209.70849609375)">18-Nov</text>
		</g>
		<g>
			<text fill="#595959" font-family="Verdana,Open Sans,DejaVu Sans,sans-serif" font-weight="400" font-size="41" transform="matrix(6.12323e-17 -1 1 6.12323e-17 3414.424677734375 1207.1259765625)">23-Dec</text>
		</g>
		<g>
			<text fill="#595959" font-family="Verdana,Open Sans,DejaVu Sans,sans-serif" font-weight="400" font-size="41" transform="matrix(6.12323e-17 -1 1 6.12323e-17 3503.53826171875 1191.6909103393555)">20-Jan</text>
		</g>
		<g>
			<text fill="#595959" font-family="Verdana,Open Sans,DejaVu Sans,sans-serif" font-weight="400" font-size="41" transform="matrix(6.12323e-17 -1 1 6.12323e-17 3586.035390625 1201.3203125)">17-Feb</text>
		</g>
		<g>
			<text fill="#595959" font-family="Verdana,Open Sans,DejaVu Sans,sans-serif" font-weight="400" font-size="41" transform="matrix(6.12323e-17 -1 1 6.12323e-17 3670.53447265625 1210.2890625)">17-Mar</text>
		</g>
		<g>
			<text fill="#595959" font-family="Verdana,Open Sans,DejaVu Sans,sans-serif" font-weight="400" font-size="41" transform="matrix(6.12323e-17 -1 1 6.12323e-17 3760.77916015625 1201.5405197143555)">14-Apr</text>
		</g>
		<g>
			<text fill="#595959" font-family="Verdana,Open Sans,DejaVu Sans,sans-serif" font-weight="400" font-size="41" transform="matrix(6.12323e-17 -1 1 6.12323e-17 3846.349287109375 1214.75341796875)">12-May</text>
		</g>
		<g>
			<text fill="#595959" font-family="Verdana,Open Sans,DejaVu Sans,sans-serif" font-weight="400" font-size="41" transform="matrix(6.12323e-17 -1 1 6.12323e-17 3930.7182421875 1192.2914962768555)">16-Jun</text>
		</g>
		<g>
			<text fill="#595959" font-family="Verdana,Open Sans,DejaVu Sans,sans-serif" font-weight="400" font-size="41" transform="matrix(6.12323e-17 -1 1 6.12323e-17 4016.888955078125 1177.2768478393555)">14-Jul</text>
		</g>
		<g>
			<text fill="#595959" font-family="Verdana,Open Sans,DejaVu Sans,sans-serif" font-weight="400" font-size="41" transform="matrix(6.12323e-17 -1 1 6.12323e-17 4102.519140625 1206.90576171875)">11-Aug</text>
		</g>
		<g>
			<text fill="#595959" font-family="Verdana,Open Sans,DejaVu Sans,sans-serif" font-weight="400" font-size="41" transform="matrix(6.12323e-17 -1 1 6.12323e-17 4188.129306640625 1204.38330078125)">08-Sep</text>
		</g>
		<g>
			<text fill="#595959" font-family="Verdana,Open Sans,DejaVu Sans,sans-serif" font-weight="400" font-size="41" transform="matrix(6.12323e-17 -1 1 6.12323e-17 4268.844697265625 1201.1000900268555)">06-Oct</text>
		</g>
		<g>
			<text fill="#595959" font-family="Verdana,Open Sans,DejaVu Sans,sans-serif" font-weight="400" font-size="41" transform="matrix(1 0 0 1 3169.14111328125 1050)">0</text>
		</g>
		<g>
			<text fill="#595959" font-family="Verdana,Open Sans,DejaVu Sans,sans-serif" font-weight="400" font-size="41" transform="matrix(1 0 0 1 3121.07421875 922)">420</text>
		</g>
		<g>
			<text fill="#595959" font-family="Verdana,Open Sans,DejaVu Sans,sans-serif" font-weight="400" font-size="41" transform="matrix(1 0 0 1 3129.3823280334473 794)">841</text>
		</g>
		<g>
			<text fill="#595959" font-family="Verdana,Open Sans,DejaVu Sans,sans-serif" font-weight="400" font-size="41" transform="matrix(1 0 0 1 3097.5712890625 666)">1,261</text>
		</g>
		<g>
			<text fill="#595959" font-family="Verdana,Open Sans,DejaVu Sans,sans-serif" font-weight="400" font-size="41" transform="matrix(1 0 0 1 3090.64453125 538)">1,682</text>
		</g>
		<g>
			<text fill="#595959" font-family="Verdana,Open Sans,DejaVu Sans,sans-serif" font-weight="400" font-size="41" transform="matrix(1 0 0 1 3088.8828125 410)">2,102</text>
		</g>
		<g>
			<text fill="#595959" font-family="Verdana,Open Sans,DejaVu Sans,sans-serif" font-weight="400" font-size="41" transform="matrix(1 0 0 1 3556.97119140625 1321)">Week Commencing</text>
		</g>
		<g>
			<text fill="#595959" font-family="Verdana,Open Sans,DejaVu Sans,sans-serif" font-weight="400" font-size="46" transform="matrix(6.12323e-17 -1 1 6.12323e-17 3019.73 953.7919921875)">Number of OS Profiles</text>
		</g>
		<rect x="2918.5" y="347.5" width="1760" height="1043" stroke="#D9D9D9" stroke-width="3.4375" stroke-linejoin="round" stroke-miterlimit="10" fill="none" />
		<g>
			<path d="M3228.5 1038 3249.86 1038 3271.22 1038 3292.58 1038 3313.94 1038 3335.3 1038 3356.66 1038 3378.02 1038 3399.38 1038 3420.74 1038 3442.1 1038 3463.46 1038 3484.82 1038 3506.18 1038 3527.54 1038 3548.9 1038 3570.26 1038 3591.62 1038 3612.98 1038 3634.34 1038 3655.7 1038 3677.06 1038 3698.42 1038 3719.7799999999997 1038 3741.14 1038 3762.5 1038 3783.86 1038 3805.2200000000003 1038 3826.58 1038 3847.94 1038 3869.3 1038 3890.66 1038 3912.02 1038 3933.38 1038 3954.74 1038 3976.1 1038 3997.46 1038 4018.8199999999997 1038 4040.18 1038 4061.54 1038 4082.9 1038 4104.26 1038 4125.62 1038 4146.98 1038 4168.34 1038 4189.7 1038 4211.0599999999995 1038 4232.42 1038 4253.78 1038 4275.139999999999 1038 4296.5 1038 4296.5 702.7764034253092 4275.139999999999 702.7764034253092 4253.78 703.3853472882969 4232.42 704.907706945766 4211.0599999999995 705.8211227402473 4189.7 706.1255946717413 4168.34 706.1255946717413 4146.98 706.430066603235 4125.62 706.430066603235 4104.26 706.430066603235 4082.9 706.7345385347288 4061.54 707.6479543292103 4040.18 707.6479543292103 4018.8199999999997 707.9524262607041 3997.46 708.2568981921979 3976.1 708.8658420551856 3954.74 709.1703139866794 3933.38 709.1703139866794 3912.02 709.7792578496669 3890.66 711.3016175071361 3869.3 713.4329210275928 3847.94 713.4329210275928 3826.58 713.4329210275928 3805.2200000000003 713.7373929590866 3783.86 713.4329210275928 3762.5 713.7373929590866 3741.14 714.0418648905804 3719.7799999999997 714.0418648905804 3698.42 714.9552806850618 3677.06 715.5642245480494 3655.7 716.1731684110371 3634.34 716.1731684110371 3612.98 717.3910561370124 3591.62 718 3570.26 718 3548.9 718.6089438629876 3527.54 719.2178877259753 3506.18 719.8268315889629 3484.82 720.4357754519506 3463.46 720.7402473834443 3442.1 720.7402473834443 3420.74 720.7402473834443 3399.38 720.7402473834443 3378.02 721.3491912464319 3356.66 721.3491912464319 3335.3 721.9581351094196 3313.94 722.5670789724072 3292.58 722.871550903901 3271.22 723.1760228353949 3249.86 723.1760228353949 3228.5 723.4804947668887 3228.5 1038Z" fill="#f48c7d" opacity="0.9" />
		</g>
		<g>
			<path d="M3228.5 723.4804947668887 3249.86 723.1760228353949 3271.22 723.1760228353949 3292.58 722.871550903901 3313.94 722.5670789724072 3335.3 721.9581351094196 3356.66 721.3491912464319 3378.02 721.3491912464319 3399.38 720.7402473834443 3420.74 720.7402473834443 3442.1 720.7402473834443 3463.46 720.7402473834443 3484.82 720.4357754519506 3506.18 719.8268315889629 3527.54 719.2178877259753 3548.9 718.6089438629876 3570.26 718 3591.62 718 3612.98 717.3910561370124 3634.34 716.1731684110371 3655.7 716.1731684110371 3677.06 715.5642245480494 3698.42 714.9552806850618 3719.7799999999997 714.0418648905804 3741.14 714.0418648905804 3762.5 713.7373929590866 3783.86 713.4329210275928 3805.2200000000003 713.7373929590866 3826.58 713.4329210275928 3847.94 713.4329210275928 3869.3 713.4329210275928 3890.66 711.3016175071361 3912.02 709.7792578496669 3933.38 709.1703139866794 3954.74 709.1703139866794 3976.1 708.8658420551856 3997.46 708.2568981921979 4018.8199999999997 707.9524262607041 4040.18 707.6479543292103 4061.54 707.6479543292103 4082.9 706.7345385347288 4104.26 706.430066603235 4125.62 706.430066603235 4146.98 706.430066603235 4168.34 706.1255946717413 4189.7 706.1255946717413 4211.0599999999995 705.8211227402473 4232.42 704.907706945766 4253.78 703.3853472882969 4275.139999999999 702.7764034253092 4296.5 702.7764034253092 4296.5 551.453853472883 4275.139999999999 551.453853472883 4253.78 552.0627973358706 4232.42 556.6298763082779 4211.0599999999995 557.847764034253 4189.7 558.152235965747 4168.34 559.9790675547099 4146.98 560.5880114176974 4125.62 560.5880114176974 4104.26 561.5014272121789 4082.9 562.1103710751665 4061.54 563.3282588011418 4040.18 563.3282588011418 4018.8199999999997 563.9372026641295 3997.46 564.2416745956232 3976.1 564.8506184586108 3954.74 565.1550903901048 3933.38 565.1550903901048 3912.02 566.3729781160798 3890.66 568.8087535680305 3869.3 571.244529019981 3847.94 571.8534728829686 3826.58 570.9400570884872 3805.2200000000003 573.0713606089439 3783.86 572.7668886774501 3762.5 573.0713606089439 3741.14 573.9847764034254 3719.7799999999997 573.9847764034254 3698.42 576.7250237868695 3677.06 577.638439581351 3655.7 578.2473834443387 3634.34 578.8563273073263 3612.98 580.0742150333016 3591.62 581.2921027592769 3570.26 581.2921027592769 3548.9 582.814462416746 3527.54 583.4234062797336 3506.18 584.0323501427213 3484.82 584.9457659372027 3463.46 585.2502378686964 3442.1 585.8591817316841 3420.74 585.8591817316841 3399.38 585.8591817316841 3378.02 587.0770694576593 3356.66 587.3815413891532 3335.3 587.9904852521408 3313.94 589.8173168411037 3292.58 590.1217887725975 3271.22 590.4262607040913 3249.86 591.3396764985728 3228.5 592.2530922930542 3228.5 723.4804947668887Z" fill="#005aa6" opacity="0.9" />
		</g>
		<g>
			<path d="M3228.5 592.2530922930542 3249.86 591.3396764985728 3271.22 590.4262607040913 3292.58 590.1217887725975 3313.94 589.8173168411037 3335.3 587.9904852521408 3356.66 587.3815413891532 3378.02 587.0770694576593 3399.38 585.8591817316841 3420.74 585.8591817316841 3442.1 585.8591817316841 3463.46 585.2502378686964 3484.82 584.9457659372027 3506.18 584.0323501427213 3527.54 583.4234062797336 3548.9 582.814462416746 3570.26 581.2921027592769 3591.62 581.2921027592769 3612.98 580.0742150333016 3634.34 578.8563273073263 3655.7 578.2473834443387 3677.06 577.638439581351 3698.42 576.7250237868695 3719.7799999999997 573.9847764034254 3741.14 573.9847764034254 3762.5 573.0713606089439 3783.86 572.7668886774501 3805.2200000000003 573.0713606089439 3826.58 570.9400570884872 3847.94 571.8534728829686 3869.3 571.244529019981 3890.66 568.8087535680305 3912.02 566.3729781160798 3933.38 565.1550903901048 3954.74 565.1550903901048 3976.1 564.8506184586108 3997.46 564.2416745956232 4018.8199999999997 563.9372026641295 4040.18 563.3282588011418 4061.54 563.3282588011418 4082.9 562.1103710751665 4104.26 561.5014272121789 4125.62 560.5880114176974 4146.98 560.5880114176974 4168.34 559.9790675547099 4189.7 558.152235965747 4211.0599999999995 557.847764034253 4232.42 556.6298763082779 4253.78 552.0627973358706 4275.139999999999 551.453853472883 4296.5 551.453853472883 4296.5 494.2131303520457 4275.139999999999 494.2131303520457 4253.78 494.82207421503335 4232.42 499.38915318744057 4211.0599999999995 500.60704091341574 4189.7 500.9115128449097 4168.34 502.7383444338726 4146.98 503.34728829686014 4125.62 503.34728829686014 4104.26 504.2607040913416 4082.9 504.86964795432925 4061.54 506.08753568030454 4040.18 506.08753568030454 4018.8199999999997 506.6964795432922 3997.46 507.0009514747859 3976.1 507.60989533777354 3954.74 507.9143672692675 3933.38 507.9143672692675 3912.02 509.13225499524253 3890.66 511.5680304471932 3869.3 514.0038058991437 3847.94 514.6127497621313 3826.58 513.6993339676499 3805.2200000000003 515.8306374881066 3783.86 515.5261655566128 3762.5 515.8306374881066 3741.14 516.7440532825881 3719.7799999999997 516.7440532825881 3698.42 519.4843006660323 3677.06 520.3977164605137 3655.7 521.0066603235014 3634.34 521.615604186489 3612.98 522.8334919124643 3591.62 524.0513796384396 3570.26 524.0513796384396 3548.9 525.5737392959087 3527.54 526.1826831588963 3506.18 526.791627021884 3484.82 527.7050428163654 3463.46 528.0095147478592 3442.1 528.6184586108468 3420.74 528.6184586108468 3399.38 528.6184586108468 3378.02 529.836346336822 3356.66 530.1408182683159 3335.3 530.7497621313036 3313.94 532.8810656517602 3292.58 533.185537583254 3271.22 533.4900095147478 3249.86 534.4034253092293 3228.5 535.3168411037108 3228.5 592.2530922930542Z" fill="#e62d39" opacity="0.9" />
		</g>
		<g>
			<path d="M3228.5 535.3168411037108 3249.86 534.4034253092293 3271.22 533.4900095147478 3292.58 533.185537583254 3313.94 532.8810656517602 3335.3 530.7497621313036 3356.66 530.1408182683159 3378.02 529.836346336822 3399.38 528.6184586108468 3420.74 528.6184586108468 3442.1 528.6184586108468 3463.46 528.0095147478592 3484.82 527.7050428163654 3506.18 526.791627021884 3527.54 526.1826831588963 3548.9 525.5737392959087 3570.26 524.0513796384396 3591.62 524.0513796384396 3612.98 522.8334919124643 3634.34 521.615604186489 3655.7 521.0066603235014 3677.06 520.3977164605137 3698.42 519.4843006660323 3719.7799999999997 516.7440532825881 3741.14 516.7440532825881 3762.5 515.8306374881066 3783.86 515.5261655566128 3805.2200000000003 515.8306374881066 3826.58 513.6993339676499 3847.94 514.6127497621313 3869.3 514.0038058991437 3890.66 511.5680304471932 3912.02 509.13225499524253 3933.38 507.9143672692675 3954.74 507.9143672692675 3976.1 507.60989533777354 3997.46 507.0009514747859 4018.8199999999997 506.6964795432922 4040.18 506.08753568030454 4061.54 506.08753568030454 4082.9 504.86964795432925 4104.26 504.2607040913416 4125.62 503.34728829686014 4146.98 503.34728829686014 4168.34 502.7383444338726 4189.7 500.9115128449097 4211.0599999999995 500.60704091341574 4232.42 499.38915318744057 4253.78 494.82207421503335 4275.139999999999 494.2131303520457 4296.5 494.2131303520457 4296.5 437.8858230256899 4275.139999999999 437.8858230256899 4253.78 438.7992388201713 4232.42 444.27973358706 4211.0599999999995 445.802093244529 4189.7 446.1065651760229 4168.34 447.93339676498584 4146.98 448.5423406279734 4125.62 448.5423406279734 4104.26 450.3691722169363 4082.9 451.2825880114177 4061.54 452.8049476688868 4040.18 453.41389153187447 4018.8199999999997 454.0228353948621 3997.46 454.3273073263558 3976.1 454.93625118934347 3954.74 455.2407231208374 3933.38 455.2407231208374 3912.02 456.7630827783063 3890.66 459.5033301617508 3869.3 461.93910561370126 3847.94 463.15699333967655 3826.58 462.2435775451951 3805.2200000000003 464.37488106565183 3783.86 464.070409134158 3762.5 464.37488106565183 3741.14 465.5927687916271 3719.7799999999997 465.5927687916271 3698.42 469.2464319695527 3677.06 470.15984776403417 3655.7 470.7687916270218 3634.34 471.6822074215033 3612.98 472.90009514747857 3591.62 474.4224548049477 3570.26 475.0313986679353 3548.9 476.85823025689825 3527.54 478.0761179828735 3506.18 478.6850618458611 3484.82 479.5984776403426 3463.46 479.9029495718363 3442.1 480.51189343482395 3420.74 480.51189343482395 3399.38 480.51189343482395 3378.02 482.6431969552806 3356.66 482.9476688867745 3335.3 483.55661274976217 3313.94 485.99238820171263 3292.58 485.99238820171263 3271.22 486.29686013320645 3249.86 487.51474785918174 3228.5 488.732635585157 3228.5 535.3168411037108Z" fill="#f6a118" opacity="0.9" />
		</g>
		<g>
			<path d="M3228.5 488.732635585157 3249.86 487.51474785918174 3271.22 486.29686013320645 3292.58 485.99238820171263 3313.94 485.99238820171263 3335.3 483.55661274976217 3356.66 482.9476688867745 3378.02 482.6431969552806 3399.38 480.51189343482395 3420.74 480.51189343482395 3442.1 480.51189343482395 3463.46 479.9029495718363 3484.82 479.5984776403426 3506.18 478.6850618458611 3527.54 478.0761179828735 3548.9 476.85823025689825 3570.26 475.0313986679353 3591.62 474.4224548049477 3612.98 472.90009514747857 3634.34 471.6822074215033 3655.7 470.7687916270218 3677.06 470.15984776403417 3698.42 469.2464319695527 3719.7799999999997 465.5927687916271 3741.14 465.5927687916271 3762.5 464.37488106565183 3783.86 464.070409134158 3805.2200000000003 464.37488106565183 3826.58 462.2435775451951 3847.94 463.15699333967655 3869.3 461.93910561370126 3890.66 459.5033301617508 3912.02 456.7630827783063 3933.38 455.2407231208374 3954.74 455.2407231208374 3976.1 454.93625118934347 3997.46 454.3273073263558 4018.8199999999997 454.0228353948621 4040.18 453.41389153187447 4061.54 452.8049476688868 4082.9 451.2825880114177 4104.26 450.3691722169363 4125.62 448.5423406279734 4146.98 448.5423406279734 4168.34 447.93339676498584 4189.7 446.1065651760229 4211.0599999999995 445.802093244529 4232.42 444.27973358706 4253.78 438.7992388201713 4275.139999999999 437.8858230256899 4296.5 437.8858230256899 4296.5 411.0922930542341 4275.139999999999 411.39676498572794 4253.78 412.31018078020935 4232.42 417.79067554709803 4211.0599999999995 419.31303520456703 4189.7 419.61750713606096 4168.34 421.4443387250239 4146.98 422.0532825880114 4125.62 422.0532825880114 4104.26 423.88011417697436 4082.9 424.79352997145577 4061.54 426.3158896289249 4040.18 426.9248334919125 4018.8199999999997 427.53377735490017 3997.46 427.8382492863939 3976.1 428.4471931493815 3954.74 428.75166508087545 3933.38 428.75166508087545 3912.02 430.27402473834434 3890.66 433.01427212178885 3869.3 435.4500475737393 3847.94 436.6679352997146 3826.58 435.75451950523313 3805.2200000000003 438.1902949571837 3783.86 438.1902949571837 3762.5 438.49476688867753 3741.14 439.7126546146528 3719.7799999999997 439.7126546146528 3698.42 443.3663177925784 3677.06 444.27973358705987 3655.7 444.8886774500475 3634.34 445.802093244529 3612.98 447.3244529019981 3591.62 448.8468125594672 3570.26 449.45575642245484 3548.9 451.2825880114178 3527.54 452.500475737393 3506.18 453.10941960038065 3484.82 454.0228353948621 3463.46 454.3273073263558 3442.1 454.93625118934347 3420.74 454.93625118934347 3399.38 454.93625118934347 3378.02 457.0675547098001 3356.66 457.37202664129404 3335.3 457.9809705042817 3313.94 460.41674595623215 3292.58 460.41674595623215 3271.22 460.72121788772597 3249.86 461.93910561370126 3228.5 463.15699333967655 3228.5 488.732635585157Z" fill="#fdd5a4" opacity="0.9" />
		</g>
		<g>
			<path d="M3228.5 463.15699333967655 3249.86 461.93910561370126 3271.22 460.72121788772597 3292.58 460.41674595623215 3313.94 460.41674595623215 3335.3 457.9809705042817 3356.66 457.37202664129404 3378.02 457.0675547098001 3399.38 454.93625118934347 3420.74 454.93625118934347 3442.1 454.93625118934347 3463.46 454.3273073263558 3484.82 454.0228353948621 3506.18 453.10941960038065 3527.54 452.500475737393 3548.9 451.2825880114178 3570.26 449.45575642245484 3591.62 448.8468125594672 3612.98 447.3244529019981 3634.34 445.802093244529 3655.7 444.8886774500475 3677.06 444.27973358705987 3698.42 443.3663177925784 3719.7799999999997 439.7126546146528 3741.14 439.7126546146528 3762.5 438.49476688867753 3783.86 438.1902949571837 3805.2200000000003 438.1902949571837 3826.58 435.75451950523313 3847.94 436.6679352997146 3869.3 435.4500475737393 3890.66 433.01427212178885 3912.02 430.27402473834434 3933.38 428.75166508087545 3954.74 428.75166508087545 3976.1 428.4471931493815 3997.46 427.8382492863939 4018.8199999999997 427.53377735490017 4040.18 426.9248334919125 4061.54 426.3158896289249 4082.9 424.79352997145577 4104.26 423.88011417697436 4125.62 422.0532825880114 4146.98 422.0532825880114 4168.34 421.4443387250239 4189.7 419.61750713606096 4211.0599999999995 419.31303520456703 4232.42 417.79067554709803 4253.78 412.31018078020935 4275.139999999999 411.39676498572794 4296.5 411.0922930542341 4296.5 398.00000000000006 4275.139999999999 398.3044719314939 4253.78 399.2178877259753 4232.42 404.69838249286397 4211.0599999999995 406.22074215033297 4189.7 406.5252140818269 4168.34 408.35204567078983 4146.98 408.96098953377737 4125.62 408.96098953377737 4104.26 410.7878211227403 4082.9 411.7012369172217 4061.54 413.2235965746908 4040.18 413.83254043767846 4018.8199999999997 414.4414843006661 3997.46 414.7459562321598 3976.1 415.35490009514746 3954.74 415.6593720266414 3933.38 415.6593720266414 3912.02 417.1817316841103 3890.66 419.9219790675548 3869.3 422.35775451950525 3847.94 423.57564224548054 3826.58 422.66222645099907 3805.2200000000003 425.09800190294965 3783.86 425.09800190294965 3762.5 425.40247383444347 3741.14 426.62036156041876 3719.7799999999997 426.62036156041876 3698.42 430.27402473834434 3677.06 431.1874405328258 3655.7 431.79638439581345 3634.34 432.7098001902949 3612.98 434.232159847764 3591.62 435.75451950523313 3570.26 436.3634633682208 3548.9 438.1902949571837 3527.54 439.40818268315894 3506.18 440.0171265461466 3484.82 440.93054234062805 3463.46 441.23501427212176 3442.1 441.8439581351094 3420.74 441.8439581351094 3399.38 441.8439581351094 3378.02 443.97526165556604 3356.66 444.27973358706 3335.3 444.8886774500476 3313.94 447.3244529019981 3292.58 447.3244529019981 3271.22 447.6289248334919 3249.86 447.0199809705043 3228.5 448.2378686964796 3228.5 463.15699333967655Z" fill="#55c0e9" opacity="0.9" />
		</g>
		<g>
			<rect x="4372" y="431" width="22.9995" height="23" fill="#f48c7d" />
		</g>
		<g>
			<text fill="#595959" font-family="Verdana,Open Sans,DejaVu Sans,sans-serif" font-weight="400" font-size="41" transform="matrix(1 0 0 1 4404.56 454)">Other</text>
		</g>
		<g>
			<rect x="4372" y="508" width="22.9995" height="23" fill="#005aa6" />
		</g>
		<g>
			<text fill="#595959" font-family="Verdana,Open Sans,DejaVu Sans,sans-serif" font-weight="400" font-size="41" transform="matrix(1 0 0 1 4404.56 531)">iOS</text>
		</g>
		<g>
			<rect x="4372" y="585" width="22.9995" height="23" fill="#e62d39" />
		</g>
		<g>
			<text fill="#595959" font-family="Verdana,Open Sans,DejaVu Sans,sans-serif" font-weight="400" font-size="41" transform="matrix(1 0 0 1 4404.56 608)">Android</text>
		</g>
		<g>
			<rect x="4372" y="662" width="22.9995" height="23" fill="#f6a118" />
		</g>
		<g>
			<text fill="#595959" font-family="Verdana,Open Sans,DejaVu Sans,sans-serif" font-weight="400" font-size="41" transform="matrix(1 0 0 1 4404.56 685)">macOS</text>
		</g>
		<g>
			<rect x="4372" y="739" width="22.9995" height="23" fill="#fdd5a4" />
		</g>
		<g>
			<text fill="#595959" font-family="Verdana,Open Sans,DejaVu Sans,sans-serif" font-weight="400" font-size="41" transform="matrix(1 0 0 1 4404.56 762)">Linux</text>
		</g>
		<g>
			<rect x="4372" y="816" width="22.9995" height="23" fill="#55c0e9" />
		</g>
		<g>
			<text fill="#595959" font-family="Verdana,Open Sans,DejaVu Sans,sans-serif" font-weight="400" font-size="41" transform="matrix(1 0 0 1 4404.56 839)">Windows</text>
		</g>
	</g>
</svg>
