<svg width="1763" height="1046"
    xmlns="http://www.w3.org/2000/svg"
	xmlns:xlink="http://www.w3.org/1999/xlink" xml:space="preserve" overflow="hidden">
	<defs>
		<clipPath id="clip0">
			<rect x="2917" y="346" width="1763" height="1046"/>
		</clipPath>
	</defs>
	<g clip-path="url(#clip0)" transform="translate(-2917 -346)">
		<rect x="2918" y="347" width="1760" height="1043" fill="#FFFFFF" />
		<g>
			<path d="
			M3228.5 974.532 4296.5 974.532
			M3228.5 910.53 4296.5 910.53
			M3228.5 846.528 4296.5 846.528
			M3228.5 781.526 4296.5 781.526
			M3228.5 717.524 4296.5 717.524
			M3228.5 653.522 4296.5 653.522
			M3228.5 589.52 4296.5 589.52
			M3228.5 525.517 4296.5 525.517
			M3228.5 461.515 4296.5 461.515
			M3228.5 397.5 4296.5 397.5" stroke="#D9D9D9" stroke-width="3.4375" stroke-linejoin="round" stroke-miterlimit="10" fill="none" />
		</g>
		<g>
			<path d="M 1038.5 4296.5 1038.5" stroke="#D9D9D9" stroke-width="3.4375" stroke-linejoin="round" stroke-miterlimit="10" fill="none" fill-rule="evenodd" />
		</g>
		<g>
			<text fill="#595959" font-family="Verdana,sans-serif" font-weight="400" font-size="41" transform="matrix(6.12323e-17 -1 1 6.12323e-17 3244.5 1225)">06-Nov</text>
		</g>
		<g>
			<text fill="#595959" font-family="Verdana,sans-serif" font-weight="400" font-size="41" transform="matrix(6.12323e-17 -1 1 6.12323e-17 3356.9210526315787 1223)">04-Dec</text>
		</g>
		<g>
			<text fill="#595959" font-family="Verdana,sans-serif" font-weight="400" font-size="41" transform="matrix(6.12323e-17 -1 1 6.12323e-17 3469.342105263158 1210)">01-Jan</text>
		</g>
		<g>
			<text fill="#595959" font-family="Verdana,sans-serif" font-weight="400" font-size="41" transform="matrix(6.12323e-17 -1 1 6.12323e-17 3581.7631578947367 1210)">29-Jan</text>
		</g>
		<g>
			<text fill="#595959" font-family="Verdana,sans-serif" font-weight="400" font-size="41" transform="matrix(6.12323e-17 -1 1 6.12323e-17 3694.184210526316 1216)">26-Feb</text>
		</g>
		<g>
			<text fill="#595959" font-family="Verdana,sans-serif" font-weight="400" font-size="41" transform="matrix(6.12323e-17 -1 1 6.12323e-17 3806.6052631578946 1223)">25-Mar</text>
		</g>
		<g>
			<text fill="#595959" font-family="Verdana,sans-serif" font-weight="400" font-size="41" transform="matrix(6.12323e-17 -1 1 6.12323e-17 3922.5263157894738 1216)">22-Apr</text>
		</g>
		<g>
			<text fill="#595959" font-family="Verdana,sans-serif" font-weight="400" font-size="41" transform="matrix(6.12323e-17 -1 1 6.12323e-17 4034.9473684210525 1228)">20-May</text>
		</g>
		<g>
			<text fill="#595959" font-family="Verdana,sans-serif" font-weight="400" font-size="41" transform="matrix(6.12323e-17 -1 1 6.12323e-17 4143.368421052632 1209)">17-Jun</text>
		</g>
		<g>
			<text fill="#595959" font-family="Verdana,sans-serif" font-weight="400" font-size="41" transform="matrix(6.12323e-17 -1 1 6.12323e-17 4256.289473684211 1194)">15-Jul</text>
		</g>
		<g>
			<text fill="#595959" font-family="Verdana,sans-serif" font-weight="400" font-size="41" transform="matrix(1 0 0 1 3167.5 1050)">0</text>
		</g>
		<g>
			<text fill="#595959" font-family="Verdana,sans-serif" font-weight="400" font-size="41" transform="matrix(1 0 0 1 3115.5 922)">380</text>
		</g>
		<g>
			<text fill="#595959" font-family="Verdana,sans-serif" font-weight="400" font-size="41" transform="matrix(1 0 0 1 3115.5 794)">760</text>
		</g>
		<g>
			<text fill="#595959" font-family="Verdana,sans-serif" font-weight="400" font-size="41" transform="matrix(1 0 0 1 3077.5 666)">1,139</text>
		</g>
		<g>
			<text fill="#595959" font-family="Verdana,sans-serif" font-weight="400" font-size="41" transform="matrix(1 0 0 1 3077.5 538)">1,519</text>
		</g>
		<g>
			<text fill="#595959" font-family="Verdana,sans-serif" font-weight="400" font-size="41" transform="matrix(1 0 0 1 3077.5 410)">1,899</text>
		</g>
		<g>
			<text fill="#595959" font-family="Verdana,sans-serif" font-weight="400" font-size="41" transform="matrix(1 0 0 1 3544.5 1321)">Week Commencing</text>
		</g>
		<g>
			<text fill="#595959" font-family="Verdana,sans-serif" font-weight="400" font-size="46" transform="matrix(6.12323e-17 -1 1 6.12323e-17 3019.73 970.75)">Number of OS Profiles</text>
		</g>
		<rect x="2918.5" y="347.5" width="1760" height="1043" stroke="#D9D9D9" stroke-width="3.4375" stroke-linejoin="round" stroke-miterlimit="10" fill="none" />
		<g>
			<path d="M3228.5 1038 3256.6052631578946 1038 3284.7105263157896 1038 3312.815789473684 1038 3340.9210526315787 1038 3369.0263157894738 1038 3397.1315789473683 1038 3425.2368421052633 1038 3453.342105263158 1038 3481.4473684210525 1038 3509.5526315789475 1038 3537.657894736842 1038 3565.7631578947367 1038 3593.8684210526317 1038 3621.9736842105262 1038 3650.078947368421 1038 3678.184210526316 1038 3706.2894736842104 1038 3734.3947368421054 1038 3762.5 1038 3790.6052631578946 1038 3818.7105263157896 1038 3846.815789473684 1038 3874.921052631579 1038 3903.0263157894738 1038 3931.1315789473683 1038 3959.2368421052633 1038 3987.342105263158 1038 4015.4473684210525 1038 4043.5526315789475 1038 4071.657894736842 1038 4099.763157894737 1038 4127.868421052632 1038 4155.973684210527 1038 4184.078947368421 1038 4212.184210526316 1038 4240.289473684211 1038 4268.394736842105 1038 4296.5 1038 4296.5 695.5882043180621 4268.394736842105 696.5992627698788 4240.289473684211 696.5992627698788 4212.184210526316 696.9362822538178 4184.078947368421 699.969457609268 4155.973684210527 699.969457609268 4127.868421052632 700.6434965771459 4099.763157894737 701.6545550289626 4071.657894736842 702.3285939968405 4043.5526315789475 703.676671932596 4015.4473684210525 704.3507109004739 3987.342105263158 704.6877303844128 3959.2368421052633 705.0247498683518 3931.1315789473683 705.0247498683518 3903.0263157894738 705.3617693522906 3874.921052631579 705.6987888362296 3846.815789473684 705.6987888362296 3818.7105263157896 706.7098472880464 3790.6052631578946 707.7209057398632 3762.5 709.0689836756187 3734.3947368421054 710.0800421274355 3706.2894736842104 710.0800421274355 3678.184210526316 711.4281200631912 3650.078947368421 711.4281200631912 3621.9736842105262 711.4281200631912 3593.8684210526317 712.4391785150078 3565.7631578947367 712.7761979989468 3537.657894736842 713.1132174828857 3509.5526315789475 714.1242759347024 3481.4473684210525 714.4612954186414 3453.342105263158 714.7983149025803 3425.2368421052633 714.7983149025803 3397.1315789473683 714.7983149025803 3369.0263157894738 714.7983149025803 3340.9210526315787 716.8204318062137 3312.815789473684 717.1574512901527 3284.7105263157896 717.8314902580305 3256.6052631578946 717.8314902580305 3228.5 718.5055292259083 3228.5 1038Z" fill="#fdd5a4" opacity="0.9" />
		</g>
		<g>
			<path d="M3228.5 718.5055292259083 3256.6052631578946 717.8314902580305 3284.7105263157896 717.8314902580305 3312.815789473684 717.1574512901527 3340.9210526315787 716.8204318062137 3369.0263157894738 714.7983149025803 3397.1315789473683 714.7983149025803 3425.2368421052633 714.7983149025803 3453.342105263158 714.7983149025803 3481.4473684210525 714.4612954186414 3509.5526315789475 714.1242759347024 3537.657894736842 713.1132174828857 3565.7631578947367 712.7761979989468 3593.8684210526317 712.4391785150078 3621.9736842105262 711.4281200631912 3650.078947368421 711.4281200631912 3678.184210526316 711.4281200631912 3706.2894736842104 710.0800421274355 3734.3947368421054 710.0800421274355 3762.5 709.0689836756187 3790.6052631578946 707.7209057398632 3818.7105263157896 706.7098472880464 3846.815789473684 705.6987888362296 3874.921052631579 705.6987888362296 3903.0263157894738 705.3617693522906 3931.1315789473683 705.0247498683518 3959.2368421052633 705.0247498683518 3987.342105263158 704.6877303844128 4015.4473684210525 704.3507109004739 4043.5526315789475 703.676671932596 4071.657894736842 702.3285939968405 4099.763157894737 701.6545550289626 4127.868421052632 700.6434965771459 4155.973684210527 699.969457609268 4184.078947368421 699.969457609268 4212.184210526316 696.9362822538178 4240.289473684211 696.5992627698788 4268.394736842105 696.5992627698788 4296.5 695.5882043180621 4296.5 554.7140600315956 4268.394736842105 556.0621379673512 4240.289473684211 556.0621379673512 4212.184210526316 556.3991574512902 4184.078947368421 559.4323328067404 4155.973684210527 559.4323328067404 4127.868421052632 560.4433912585572 4099.763157894737 562.4655081621906 4071.657894736842 563.1395471300684 4043.5526315789475 564.487625065824 4015.4473684210525 565.8357030015798 3987.342105263158 566.8467614533965 3959.2368421052633 567.1837809373355 3931.1315789473683 567.1837809373355 3903.0263157894738 567.8578199052132 3874.921052631579 568.5318588730911 3846.815789473684 568.5318588730911 3818.7105263157896 569.8799368088468 3790.6052631578946 572.2390731964192 3762.5 573.5871511321748 3734.3947368421054 574.5982095839915 3706.2894736842104 575.9462875197472 3678.184210526316 577.2943654555029 3650.078947368421 577.2943654555029 3621.9736842105262 577.6313849394418 3593.8684210526317 579.3164823591363 3565.7631578947367 579.9905213270142 3537.657894736842 581.001579778831 3509.5526315789475 582.6866771985254 3481.4473684210525 583.0236966824644 3453.342105263158 583.3607161664033 3425.2368421052633 583.3607161664033 3397.1315789473683 585.0458135860979 3369.0263157894738 585.7198525539757 3340.9210526315787 588.0789889415481 3312.815789473684 589.4270668773038 3284.7105263157896 590.1011058451816 3256.6052631578946 590.4381253291206 3228.5 591.7862032648761 3228.5 718.5055292259083Z" fill="#e62d39" opacity="0.9" />
		</g>
		<g>
			<path d="M3228.5 591.7862032648761 3256.6052631578946 590.4381253291206 3284.7105263157896 590.1011058451816 3312.815789473684 589.4270668773038 3340.9210526315787 588.0789889415481 3369.0263157894738 585.7198525539757 3397.1315789473683 585.0458135860979 3425.2368421052633 583.3607161664033 3453.342105263158 583.3607161664033 3481.4473684210525 583.0236966824644 3509.5526315789475 582.6866771985254 3537.657894736842 581.001579778831 3565.7631578947367 579.9905213270142 3593.8684210526317 579.3164823591363 3621.9736842105262 577.6313849394418 3650.078947368421 577.2943654555029 3678.184210526316 577.2943654555029 3706.2894736842104 575.9462875197472 3734.3947368421054 574.5982095839915 3762.5 573.5871511321748 3790.6052631578946 572.2390731964192 3818.7105263157896 569.8799368088468 3846.815789473684 568.5318588730911 3874.921052631579 568.5318588730911 3903.0263157894738 567.8578199052132 3931.1315789473683 567.1837809373355 3959.2368421052633 567.1837809373355 3987.342105263158 566.8467614533965 4015.4473684210525 565.8357030015798 4043.5526315789475 564.487625065824 4071.657894736842 563.1395471300684 4099.763157894737 562.4655081621906 4127.868421052632 560.4433912585572 4155.973684210527 559.4323328067404 4184.078947368421 559.4323328067404 4212.184210526316 556.3991574512902 4240.289473684211 556.0621379673512 4268.394736842105 556.0621379673512 4296.5 554.7140600315956 4296.5 491.6914165350185 4268.394736842105 493.03949447077406 4240.289473684211 493.03949447077406 4212.184210526316 493.37651395471306 4184.078947368421 496.4096893101633 4155.973684210527 496.4096893101633 4127.868421052632 497.42074776198007 4099.763157894737 499.4428646656135 4071.657894736842 500.1169036334913 4043.5526315789475 502.1390205371247 4015.4473684210525 503.48709847288046 3987.342105263158 504.49815692469724 3959.2368421052633 505.17219589257513 3931.1315789473683 505.17219589257513 3903.0263157894738 505.8462348604528 3874.921052631579 506.5202738283307 3846.815789473684 506.5202738283307 3818.7105263157896 507.86835176408636 3790.6052631578946 510.2274881516588 3762.5 511.57556608741436 3734.3947368421054 512.5866245392311 3706.2894736842104 513.9347024749868 3678.184210526316 515.2827804107425 3650.078947368421 515.2827804107425 3621.9736842105262 515.6197998946814 3593.8684210526317 517.3048973143759 3565.7631578947367 517.9789362822538 3537.657894736842 518.9899947340706 3509.5526315789475 520.675092153765 3481.4473684210525 521.012111637704 3453.342105263158 521.3491311216429 3425.2368421052633 521.3491311216429 3397.1315789473683 523.0342285413375 3369.0263157894738 523.7082675092153 3340.9210526315787 526.0674038967877 3312.815789473684 527.4154818325434 3284.7105263157896 528.0895208004212 3256.6052631578946 528.4265402843602 3228.5 529.7746182201157 3228.5 591.7862032648761Z" fill="#005aa6" opacity="0.9" />
		</g>
		<g>
			<path d="M3228.5 529.7746182201157 3256.6052631578946 528.4265402843602 3284.7105263157896 528.0895208004212 3312.815789473684 527.4154818325434 3340.9210526315787 526.0674038967877 3369.0263157894738 523.7082675092153 3397.1315789473683 523.0342285413375 3425.2368421052633 521.3491311216429 3453.342105263158 521.3491311216429 3481.4473684210525 521.012111637704 3509.5526315789475 520.675092153765 3537.657894736842 518.9899947340706 3565.7631578947367 517.9789362822538 3593.8684210526317 517.3048973143759 3621.9736842105262 515.6197998946814 3650.078947368421 515.2827804107425 3678.184210526316 515.2827804107425 3706.2894736842104 513.9347024749868 3734.3947368421054 512.5866245392311 3762.5 511.57556608741436 3790.6052631578946 510.2274881516588 3818.7105263157896 507.86835176408636 3846.815789473684 506.5202738283307 3874.921052631579 506.5202738283307 3903.0263157894738 505.8462348604528 3931.1315789473683 505.17219589257513 3959.2368421052633 505.17219589257513 3987.342105263158 504.49815692469724 4015.4473684210525 503.48709847288046 4043.5526315789475 502.1390205371247 4071.657894736842 500.1169036334913 4099.763157894737 499.4428646656135 4127.868421052632 497.42074776198007 4155.973684210527 496.4096893101633 4184.078947368421 496.4096893101633 4212.184210526316 493.37651395471306 4240.289473684211 493.03949447077406 4268.394736842105 493.03949447077406 4296.5 491.6914165350185 4296.5 442.4865718799369 4268.394736842105 443.83464981569244 4240.289473684211 443.83464981569244 4212.184210526316 443.8346498156925 4184.078947368421 446.8678251711427 4155.973684210527 446.8678251711427 4127.868421052632 448.21590310689845 4099.763157894737 450.5750394944708 4071.657894736842 451.24907846234856 4043.5526315789475 453.27119536598195 4015.4473684210525 454.61927330173773 3987.342105263158 456.30437072143235 3959.2368421052633 456.97840968931024 3931.1315789473683 456.97840968931024 3903.0263157894738 457.6524486571879 3874.921052631579 458.3264876250658 3846.815789473684 458.3264876250658 3818.7105263157896 460.0115850447604 3790.6052631578946 463.0447604002107 3762.5 464.39283833596625 3734.3947368421054 465.403896787783 3706.2894736842104 466.7519747235387 3678.184210526316 468.43707214323325 3650.078947368421 468.7740916271722 3621.9736842105262 469.78515007898886 3593.8684210526317 471.80726698262237 3565.7631578947367 472.48130595050026 3537.657894736842 473.49236440231704 3509.5526315789475 475.5144813059504 3481.4473684210525 475.8515007898894 3453.342105263158 476.1885202738283 3425.2368421052633 476.1885202738283 3397.1315789473683 478.8846761453396 3369.0263157894738 479.89573459715626 3340.9210526315787 482.2548709847287 3312.815789473684 483.9399684044233 3284.7105263157896 484.95102685624 3256.6052631578946 485.62506582411794 3228.5 487.64718272775133 3228.5 529.7746182201157Z" fill="#f6a118" opacity="0.9" />
		</g>
		<g>
			<path d="M3228.5 487.64718272775133 3256.6052631578946 485.62506582411794 3284.7105263157896 484.95102685624 3312.815789473684 483.9399684044233 3340.9210526315787 482.2548709847287 3369.0263157894738 479.89573459715626 3397.1315789473683 478.8846761453396 3425.2368421052633 476.1885202738283 3453.342105263158 476.1885202738283 3481.4473684210525 475.8515007898894 3509.5526315789475 475.5144813059504 3537.657894736842 473.49236440231704 3565.7631578947367 472.48130595050026 3593.8684210526317 471.80726698262237 3621.9736842105262 469.78515007898886 3650.078947368421 468.7740916271722 3678.184210526316 468.43707214323325 3706.2894736842104 466.7519747235387 3734.3947368421054 465.403896787783 3762.5 464.39283833596625 3790.6052631578946 463.0447604002107 3818.7105263157896 460.0115850447604 3846.815789473684 458.3264876250658 3874.921052631579 458.3264876250658 3903.0263157894738 457.6524486571879 3931.1315789473683 456.97840968931024 3959.2368421052633 456.97840968931024 3987.342105263158 456.30437072143235 4015.4473684210525 454.61927330173773 4043.5526315789475 453.27119536598195 4071.657894736842 451.24907846234856 4099.763157894737 450.5750394944708 4127.868421052632 448.21590310689845 4155.973684210527 446.8678251711427 4184.078947368421 446.8678251711427 4212.184210526316 443.8346498156925 4240.289473684211 443.83464981569244 4268.394736842105 443.83464981569244 4296.5 442.4865718799369 4296.5 414.5139547130069 4268.394736842105 415.86203264876247 4240.289473684211 415.86203264876247 4212.184210526316 415.8620326487625 4184.078947368421 418.89520800421275 4155.973684210527 418.89520800421275 4127.868421052632 420.2432859399685 4099.763157894737 422.6024223275408 4071.657894736842 423.2764612954186 4043.5526315789475 425.298578199052 4015.4473684210525 426.64665613480776 3987.342105263158 428.33175355450237 3959.2368421052633 429.00579252238026 3931.1315789473683 429.3428120063192 3903.0263157894738 430.01685097419687 3874.921052631579 430.69088994207476 3846.815789473684 430.69088994207476 3818.7105263157896 432.3759873617694 3790.6052631578946 435.40916271721966 3762.5 436.7572406529752 3734.3947368421054 437.768299104792 3706.2894736842104 439.11637704054766 3678.184210526316 440.8014744602422 3650.078947368421 441.13849394418116 3621.9736842105262 442.14955239599783 3593.8684210526317 444.17166929963133 3565.7631578947367 444.8457082675092 3537.657894736842 445.856766719326 3509.5526315789475 447.8788836229594 3481.4473684210525 448.2159031068984 3453.342105263158 448.5529225908373 3425.2368421052633 448.5529225908373 3397.1315789473683 451.24907846234856 3369.0263157894738 452.26013691416523 3340.9210526315787 454.6192733017377 3312.815789473684 456.3043707214323 3284.7105263157896 457.31542917324896 3256.6052631578946 457.9894681411269 3228.5 460.0115850447603 3228.5 487.64718272775133Z" fill="#f48c7d" opacity="0.9" />
		</g>
		<g>
			<path d="M3228.5 460.0115850447603 3256.6052631578946 457.9894681411269 3284.7105263157896 457.31542917324896 3312.815789473684 456.3043707214323 3340.9210526315787 454.6192733017377 3369.0263157894738 452.26013691416523 3397.1315789473683 451.24907846234856 3425.2368421052633 448.5529225908373 3453.342105263158 448.5529225908373 3481.4473684210525 448.2159031068984 3509.5526315789475 447.8788836229594 3537.657894736842 445.856766719326 3565.7631578947367 444.8457082675092 3593.8684210526317 444.17166929963133 3621.9736842105262 442.14955239599783 3650.078947368421 441.13849394418116 3678.184210526316 440.8014744602422 3706.2894736842104 439.11637704054766 3734.3947368421054 437.768299104792 3762.5 436.7572406529752 3790.6052631578946 435.40916271721966 3818.7105263157896 432.3759873617694 3846.815789473684 430.69088994207476 3874.921052631579 430.69088994207476 3903.0263157894738 430.01685097419687 3931.1315789473683 429.3428120063192 3959.2368421052633 429.00579252238026 3987.342105263158 428.33175355450237 4015.4473684210525 426.64665613480776 4043.5526315789475 425.298578199052 4071.657894736842 423.2764612954186 4099.763157894737 422.6024223275408 4127.868421052632 420.2432859399685 4155.973684210527 418.89520800421275 4184.078947368421 418.89520800421275 4212.184210526316 415.8620326487625 4240.289473684211 415.86203264876247 4268.394736842105 415.86203264876247 4296.5 414.5139547130069 4296.5 398.00000000000006 4268.394736842105 399.3480779357556 4240.289473684211 399.3480779357556 4212.184210526316 400.0221169036335 4184.078947368421 403.0552922590837 4155.973684210527 403.0552922590837 4127.868421052632 404.40337019483945 4099.763157894737 406.7625065824118 4071.657894736842 407.0995260663507 4043.5526315789475 409.7956819378619 4015.4473684210525 411.1437598736177 3987.342105263158 412.8288572933123 3959.2368421052633 413.5028962611902 3931.1315789473683 413.83991574512913 3903.0263157894738 414.5139547130068 3874.921052631579 415.1879936808847 3846.815789473684 415.1879936808847 3818.7105263157896 416.8730911005793 3790.6052631578946 419.9062664560296 3762.5 421.25434439178514 3734.3947368421054 422.2654028436019 3706.2894736842104 423.6134807793576 3678.184210526316 425.29857819905214 3650.078947368421 425.6355976829911 3621.9736842105262 426.64665613480776 3593.8684210526317 428.66877303844126 3565.7631578947367 429.34281200631915 3537.657894736842 430.35387045813593 3509.5526315789475 432.3759873617693 3481.4473684210525 432.7130068457083 3453.342105263158 433.0500263296472 3425.2368421052633 433.0500263296472 3397.1315789473683 435.7461822011585 3369.0263157894738 436.75724065297516 3340.9210526315787 439.1163770405476 3312.815789473684 440.8014744602422 3284.7105263157896 441.8125329120589 3256.6052631578946 442.48657187993683 3228.5 444.5086887835702 3228.5 460.0115850447603Z" fill="#55c0e9" opacity="0.9" />
		</g>
		<g>
			<rect x="4372" y="431" width="22.9995" height="23" fill="#fdd5a4" />
		</g>
		<g>
			<text fill="#595959" font-family="Verdana,sans-serif" font-weight="400" font-size="41" transform="matrix(1 0 0 1 4404.56 454)">Other</text>
		</g>
		<g>
			<rect x="4372" y="508" width="22.9995" height="23" fill="#e62d39" />
		</g>
		<g>
			<text fill="#595959" font-family="Verdana,sans-serif" font-weight="400" font-size="41" transform="matrix(1 0 0 1 4404.56 531)">iOS</text>
		</g>
		<g>
			<rect x="4372" y="585" width="22.9995" height="23" fill="#005aa6" />
		</g>
		<g>
			<text fill="#595959" font-family="Verdana,sans-serif" font-weight="400" font-size="41" transform="matrix(1 0 0 1 4404.56 608)">Android</text>
		</g>
		<g>
			<rect x="4372" y="662" width="22.9995" height="23" fill="#f6a118" />
		</g>
		<g>
			<text fill="#595959" font-family="Verdana,sans-serif" font-weight="400" font-size="41" transform="matrix(1 0 0 1 4404.56 685)">macOS</text>
		</g>
		<g>
			<rect x="4372" y="739" width="22.9995" height="23" fill="#f48c7d" />
		</g>
		<g>
			<text fill="#595959" font-family="Verdana,sans-serif" font-weight="400" font-size="41" transform="matrix(1 0 0 1 4404.56 762)">Linux</text>
		</g>
		<g>
			<rect x="4372" y="816" width="22.9995" height="23" fill="#55c0e9" />
		</g>
		<g>
			<text fill="#595959" font-family="Verdana,sans-serif" font-weight="400" font-size="41" transform="matrix(1 0 0 1 4404.56 839)">Windows</text>
		</g>
	</g>
</svg>
