<svg width="1763" height="1046"
    xmlns="http://www.w3.org/2000/svg"
	xmlns:xlink="http://www.w3.org/1999/xlink" xml:space="preserve" overflow="hidden">
	<defs>
		<clipPath id="clip0">
			<rect x="2917" y="346" width="1763" height="1046"/>
		</clipPath>
	</defs>
	<g clip-path="url(#clip0)" transform="translate(-2917 -346)">
		<rect x="2918" y="347" width="1760" height="1043" fill="#FFFFFF" />
		<g>
			<path d="
			M3228.5 974.532 4296.5 974.532
			M3228.5 910.53 4296.5 910.53
			M3228.5 846.528 4296.5 846.528
			M3228.5 781.526 4296.5 781.526
			M3228.5 717.524 4296.5 717.524
			M3228.5 653.522 4296.5 653.522
			M3228.5 589.52 4296.5 589.52
			M3228.5 525.517 4296.5 525.517
			M3228.5 461.515 4296.5 461.515
			M3228.5 397.5 4296.5 397.5" stroke="#D9D9D9" stroke-width="3.4375" stroke-linejoin="round" stroke-miterlimit="10" fill="none" />
		</g>
		<g>
			<path d="M 1038.5 4296.5 1038.5" stroke="#D9D9D9" stroke-width="3.4375" stroke-linejoin="round" stroke-miterlimit="10" fill="none" fill-rule="evenodd" />
		</g>
		<g>
			<text fill="#595959" font-family="Verdana,sans-serif" font-weight="400" font-size="41" transform="matrix(6.12323e-17 -1 1 6.12323e-17 3244.5 1225)">06-Nov</text>
		</g>
		<g>
			<text fill="#595959" font-family="Verdana,sans-serif" font-weight="400" font-size="41" transform="matrix(6.12323e-17 -1 1 6.12323e-17 3370.1470588235293 1223)">04-Dec</text>
		</g>
		<g>
			<text fill="#595959" font-family="Verdana,sans-serif" font-weight="400" font-size="41" transform="matrix(6.12323e-17 -1 1 6.12323e-17 3495.794117647059 1210)">01-Jan</text>
		</g>
		<g>
			<text fill="#595959" font-family="Verdana,sans-serif" font-weight="400" font-size="41" transform="matrix(6.12323e-17 -1 1 6.12323e-17 3621.4411764705883 1210)">29-Jan</text>
		</g>
		<g>
			<text fill="#595959" font-family="Verdana,sans-serif" font-weight="400" font-size="41" transform="matrix(6.12323e-17 -1 1 6.12323e-17 3747.0882352941176 1216)">26-Feb</text>
		</g>
		<g>
			<text fill="#595959" font-family="Verdana,sans-serif" font-weight="400" font-size="41" transform="matrix(6.12323e-17 -1 1 6.12323e-17 3872.735294117647 1223)">25-Mar</text>
		</g>
		<g>
			<text fill="#595959" font-family="Verdana,sans-serif" font-weight="400" font-size="41" transform="matrix(6.12323e-17 -1 1 6.12323e-17 4001.8823529411766 1216)">22-Apr</text>
		</g>
		<g>
			<text fill="#595959" font-family="Verdana,sans-serif" font-weight="400" font-size="41" transform="matrix(6.12323e-17 -1 1 6.12323e-17 4127.529411764706 1228)">20-May</text>
		</g>
		<g>
			<text fill="#595959" font-family="Verdana,sans-serif" font-weight="400" font-size="41" transform="matrix(6.12323e-17 -1 1 6.12323e-17 4249.176470588235 1209)">17-Jun</text>
		</g>
		<g>
			<text fill="#595959" font-family="Verdana,sans-serif" font-weight="400" font-size="41" transform="matrix(1 0 0 1 3167.5 1050)">0</text>
		</g>
		<g>
			<text fill="#595959" font-family="Verdana,sans-serif" font-weight="400" font-size="41" transform="matrix(1 0 0 1 3115.5 922)">377</text>
		</g>
		<g>
			<text fill="#595959" font-family="Verdana,sans-serif" font-weight="400" font-size="41" transform="matrix(1 0 0 1 3114.5 794)">754</text>
		</g>
		<g>
			<text fill="#595959" font-family="Verdana,sans-serif" font-weight="400" font-size="41" transform="matrix(1 0 0 1 3077.5 666)">1,130</text>
		</g>
		<g>
			<text fill="#595959" font-family="Verdana,sans-serif" font-weight="400" font-size="41" transform="matrix(1 0 0 1 3076.5 538)">1,507</text>
		</g>
		<g>
			<text fill="#595959" font-family="Verdana,sans-serif" font-weight="400" font-size="41" transform="matrix(1 0 0 1 3076.5 410)">1,884</text>
		</g>
		<g>
			<text fill="#595959" font-family="Verdana,sans-serif" font-weight="400" font-size="41" transform="matrix(1 0 0 1 3544.5 1321)">Week Commencing</text>
		</g>
		<g>
			<text fill="#595959" font-family="Verdana,sans-serif" font-weight="400" font-size="46" transform="matrix(6.12323e-17 -1 1 6.12323e-17 3019.73 970.75)">Number of OS Profiles</text>
		</g>
		<rect x="2918.5" y="347.5" width="1760" height="1043" stroke="#D9D9D9" stroke-width="3.4375" stroke-linejoin="round" stroke-miterlimit="10" fill="none" />
		<g>
			<path d="M3228.5 1038 3259.9117647058824 1038 3291.323529411765 1038 3322.735294117647 1038 3354.1470588235293 1038 3385.5588235294117 1038 3416.970588235294 1038 3448.3823529411766 1038 3479.794117647059 1038 3511.205882352941 1038 3542.6176470588234 1038 3574.029411764706 1038 3605.4411764705883 1038 3636.8529411764707 1038 3668.264705882353 1038 3699.676470588235 1038 3731.0882352941176 1038 3762.5 1038 3793.9117647058824 1038 3825.323529411765 1038 3856.735294117647 1038 3888.1470588235293 1038 3919.5588235294117 1038 3950.970588235294 1038 3982.3823529411766 1038 4013.7941176470586 1038 4045.205882352941 1038 4076.6176470588234 1038 4108.029411764706 1038 4139.441176470588 1038 4170.85294117647 1038 4202.264705882353 1038 4233.676470588235 1038 4265.088235294117 1038 4296.5 1038 4296.5 697.2781316348196 4265.088235294117 697.2781316348196 4233.676470588235 697.9575371549894 4202.264705882353 698.9766454352441 4170.85294117647 699.656050955414 4139.441176470588 701.0148619957538 4108.029411764706 701.6942675159236 4076.6176470588234 702.0339702760085 4045.205882352941 702.3736730360935 4013.7941176470586 702.3736730360935 3982.3823529411766 702.7133757961783 3950.970588235294 703.0530785562632 3919.5588235294117 703.0530785562632 3888.1470588235293 704.0721868365181 3856.735294117647 705.0912951167729 3825.323529411765 706.4501061571125 3793.9117647058824 707.4692144373673 3762.5 707.4692144373673 3731.0882352941176 708.828025477707 3699.676470588235 708.828025477707 3668.264705882353 708.828025477707 3636.8529411764707 709.8471337579617 3605.4411764705883 710.1868365180467 3574.029411764706 710.5265392781316 3542.6176470588234 711.5456475583865 3511.205882352941 711.8853503184714 3479.794117647059 712.2250530785564 3448.3823529411766 712.2250530785564 3416.970588235294 712.2250530785564 3385.5588235294117 712.2250530785564 3354.1470588235293 714.2632696390658 3322.735294117647 714.6029723991508 3291.323529411765 715.2823779193207 3259.9117647058824 715.2823779193207 3228.5 715.9617834394905 3228.5 1038Z" fill="#fdd5a4" opacity="0.9" />
		</g>
		<g>
			<path d="M3228.5 715.9617834394905 3259.9117647058824 715.2823779193207 3291.323529411765 715.2823779193207 3322.735294117647 714.6029723991508 3354.1470588235293 714.2632696390658 3385.5588235294117 712.2250530785564 3416.970588235294 712.2250530785564 3448.3823529411766 712.2250530785564 3479.794117647059 712.2250530785564 3511.205882352941 711.8853503184714 3542.6176470588234 711.5456475583865 3574.029411764706 710.5265392781316 3605.4411764705883 710.1868365180467 3636.8529411764707 709.8471337579617 3668.264705882353 708.828025477707 3699.676470588235 708.828025477707 3731.0882352941176 708.828025477707 3762.5 707.4692144373673 3793.9117647058824 707.4692144373673 3825.323529411765 706.4501061571125 3856.735294117647 705.0912951167729 3888.1470588235293 704.0721868365181 3919.5588235294117 703.0530785562632 3950.970588235294 703.0530785562632 3982.3823529411766 702.7133757961783 4013.7941176470586 702.3736730360935 4045.205882352941 702.3736730360935 4076.6176470588234 702.0339702760085 4108.029411764706 701.6942675159236 4139.441176470588 701.0148619957538 4170.85294117647 699.656050955414 4202.264705882353 698.9766454352441 4233.676470588235 697.9575371549894 4265.088235294117 697.2781316348196 4296.5 697.2781316348196 4296.5 555.6220806794056 4265.088235294117 555.6220806794056 4233.676470588235 556.6411889596603 4202.264705882353 558.6794055201698 4170.85294117647 559.3588110403397 4139.441176470588 560.7176220806795 4108.029411764706 562.0764331210191 4076.6176470588234 563.095541401274 4045.205882352941 563.4352441613589 4013.7941176470586 563.4352441613589 3982.3823529411766 564.1146496815286 3950.970588235294 564.7940552016985 3919.5588235294117 564.7940552016985 3888.1470588235293 566.1528662420383 3856.735294117647 568.5307855626328 3825.323529411765 569.8895966029723 3793.9117647058824 570.9087048832272 3762.5 572.2675159235669 3731.0882352941176 573.6263269639066 3699.676470588235 573.6263269639066 3668.264705882353 573.9660297239915 3636.8529411764707 575.6645435244161 3605.4411764705883 576.343949044586 3574.029411764706 577.3630573248407 3542.6176470588234 579.0615711252655 3511.205882352941 579.4012738853504 3479.794117647059 579.7409766454354 3448.3823529411766 579.7409766454354 3416.970588235294 581.43949044586 3385.5588235294117 582.1188959660299 3354.1470588235293 584.4968152866243 3322.735294117647 585.8556263269639 3291.323529411765 586.5350318471338 3259.9117647058824 586.8747346072188 3228.5 588.2335456475585 3228.5 715.9617834394905Z" fill="#e62d39" opacity="0.9" />
		</g>
		<g>
			<path d="M3228.5 588.2335456475585 3259.9117647058824 586.8747346072188 3291.323529411765 586.5350318471338 3322.735294117647 585.8556263269639 3354.1470588235293 584.4968152866243 3385.5588235294117 582.1188959660299 3416.970588235294 581.43949044586 3448.3823529411766 579.7409766454354 3479.794117647059 579.7409766454354 3511.205882352941 579.4012738853504 3542.6176470588234 579.0615711252655 3574.029411764706 577.3630573248407 3605.4411764705883 576.343949044586 3636.8529411764707 575.6645435244161 3668.264705882353 573.9660297239915 3699.676470588235 573.6263269639066 3731.0882352941176 573.6263269639066 3762.5 572.2675159235669 3793.9117647058824 570.9087048832272 3825.323529411765 569.8895966029723 3856.735294117647 568.5307855626328 3888.1470588235293 566.1528662420383 3919.5588235294117 564.7940552016985 3950.970588235294 564.7940552016985 3982.3823529411766 564.1146496815286 4013.7941176470586 563.4352441613589 4045.205882352941 563.4352441613589 4076.6176470588234 563.095541401274 4108.029411764706 562.0764331210191 4139.441176470588 560.7176220806795 4170.85294117647 559.3588110403397 4202.264705882353 558.6794055201698 4233.676470588235 556.6411889596603 4265.088235294117 555.6220806794056 4296.5 555.6220806794056 4296.5 492.0976645435245 4265.088235294117 492.0976645435245 4233.676470588235 493.11677282377923 4202.264705882353 495.1549893842887 4170.85294117647 495.8343949044586 4139.441176470588 497.8726114649682 4108.029411764706 499.2314225053079 4076.6176470588234 500.2505307855627 4045.205882352941 500.9299363057326 4013.7941176470586 500.9299363057326 3982.3823529411766 501.6093418259023 3950.970588235294 502.28874734607217 3919.5588235294117 502.28874734607217 3888.1470588235293 503.64755838641196 3856.735294117647 506.0254777070065 3825.323529411765 507.38428874734603 3793.9117647058824 508.4033970276009 3762.5 509.76220806794055 3731.0882352941176 511.12101910828034 3699.676470588235 511.12101910828034 3668.264705882353 511.46072186836517 3636.8529411764707 513.1592356687897 3605.4411764705883 513.8386411889596 3574.029411764706 514.8577494692144 3542.6176470588234 516.5562632696391 3511.205882352941 516.895966029724 3479.794117647059 517.235668789809 3448.3823529411766 517.235668789809 3416.970588235294 518.9341825902336 3385.5588235294117 519.6135881104035 3354.1470588235293 521.9915074309979 3322.735294117647 523.3503184713376 3291.323529411765 524.0297239915075 3259.9117647058824 524.3694267515924 3228.5 525.7282377919321 3228.5 588.2335456475585Z" fill="#005aa6" opacity="0.9" />
		</g>
		<g>
			<path d="M3228.5 525.7282377919321 3259.9117647058824 524.3694267515924 3291.323529411765 524.0297239915075 3322.735294117647 523.3503184713376 3354.1470588235293 521.9915074309979 3385.5588235294117 519.6135881104035 3416.970588235294 518.9341825902336 3448.3823529411766 517.235668789809 3479.794117647059 517.235668789809 3511.205882352941 516.895966029724 3542.6176470588234 516.5562632696391 3574.029411764706 514.8577494692144 3605.4411764705883 513.8386411889596 3636.8529411764707 513.1592356687897 3668.264705882353 511.46072186836517 3699.676470588235 511.12101910828034 3731.0882352941176 511.12101910828034 3762.5 509.76220806794055 3793.9117647058824 508.4033970276009 3825.323529411765 507.38428874734603 3856.735294117647 506.0254777070065 3888.1470588235293 503.64755838641196 3919.5588235294117 502.28874734607217 3950.970588235294 502.28874734607217 3982.3823529411766 501.6093418259023 4013.7941176470586 500.9299363057326 4045.205882352941 500.9299363057326 4076.6176470588234 500.2505307855627 4108.029411764706 499.2314225053079 4139.441176470588 497.8726114649682 4170.85294117647 495.8343949044586 4202.264705882353 495.1549893842887 4233.676470588235 493.11677282377923 4265.088235294117 492.0976645435245 4296.5 492.0976645435245 4296.5 442.16135881104043 4265.088235294117 442.16135881104043 4233.676470588235 443.5201698513801 4202.264705882353 445.89808917197445 4170.85294117647 446.57749469214434 4139.441176470588 448.61571125265397 4108.029411764706 449.97452229299364 4076.6176470588234 451.6730360934183 4045.205882352941 452.3524416135882 4013.7941176470586 452.3524416135882 3982.3823529411766 453.0318471337579 3950.970588235294 453.7112526539278 3919.5588235294117 453.7112526539278 3888.1470588235293 455.4097664543525 3856.735294117647 458.46709129511686 3825.323529411765 459.8259023354564 3793.9117647058824 460.84501061571126 3762.5 462.20382165605093 3731.0882352941176 463.90233545647567 3699.676470588235 464.2420382165606 3668.264705882353 465.2611464968153 3636.8529411764707 467.29936305732474 3605.4411764705883 467.97876857749463 3574.029411764706 468.99787685774936 3542.6176470588234 471.03609341825904 3511.205882352941 471.375796178344 3479.794117647059 471.71549893842894 3448.3823529411766 471.71549893842894 3416.970588235294 474.43312101910834 3385.5588235294117 475.4522292993632 3354.1470588235293 477.8301486199576 3322.735294117647 479.52866242038215 3291.323529411765 480.547770700637 3259.9117647058824 481.2271762208069 3228.5 483.2653927813164 3228.5 525.7282377919321Z" fill="#f6a118" opacity="0.9" />
		</g>
		<g>
			<path d="M3228.5 483.2653927813164 3259.9117647058824 481.2271762208069 3291.323529411765 480.547770700637 3322.735294117647 479.52866242038215 3354.1470588235293 477.8301486199576 3385.5588235294117 475.4522292993632 3416.970588235294 474.43312101910834 3448.3823529411766 471.71549893842894 3479.794117647059 471.71549893842894 3511.205882352941 471.375796178344 3542.6176470588234 471.03609341825904 3574.029411764706 468.99787685774936 3605.4411764705883 467.97876857749463 3636.8529411764707 467.29936305732474 3668.264705882353 465.2611464968153 3699.676470588235 464.2420382165606 3731.0882352941176 463.90233545647567 3762.5 462.20382165605093 3793.9117647058824 460.84501061571126 3825.323529411765 459.8259023354564 3856.735294117647 458.46709129511686 3888.1470588235293 455.4097664543525 3919.5588235294117 453.7112526539278 3950.970588235294 453.7112526539278 3982.3823529411766 453.0318471337579 4013.7941176470586 452.3524416135882 4045.205882352941 452.3524416135882 4076.6176470588234 451.6730360934183 4108.029411764706 449.97452229299364 4139.441176470588 448.61571125265397 4170.85294117647 446.57749469214434 4202.264705882353 445.89808917197445 4233.676470588235 443.5201698513801 4265.088235294117 442.16135881104043 4296.5 442.16135881104043 4296.5 413.9660297239916 4265.088235294117 413.9660297239916 4233.676470588235 415.32484076433127 4202.264705882353 417.7027600849256 4170.85294117647 418.3821656050955 4139.441176470588 420.42038216560513 4108.029411764706 421.7791932059448 4076.6176470588234 423.4777070063695 4045.205882352941 424.1571125265394 4013.7941176470586 424.4968152866243 3982.3823529411766 425.176220806794 3950.970588235294 425.8556263269639 3919.5588235294117 425.8556263269639 3888.1470588235293 427.5541401273886 3856.735294117647 430.611464968153 3825.323529411765 431.97027600849253 3793.9117647058824 432.9893842887474 3762.5 434.34819532908705 3731.0882352941176 436.0467091295118 3699.676470588235 436.38641188959673 3668.264705882353 437.4055201698514 3636.8529411764707 439.44373673036085 3605.4411764705883 440.12314225053075 3574.029411764706 441.1422505307855 3542.6176470588234 443.18046709129516 3511.205882352941 443.5201698513801 3479.794117647059 443.85987261146505 3448.3823529411766 443.85987261146505 3416.970588235294 446.57749469214446 3385.5588235294117 447.5966029723993 3354.1470588235293 449.9745222929937 3322.735294117647 451.67303609341826 3291.323529411765 452.6921443736731 3259.9117647058824 453.371549893843 3228.5 455.4097664543525 3228.5 483.2653927813164Z" fill="#f48c7d" opacity="0.9" />
		</g>
		<g>
			<path d="M3228.5 455.4097664543525 3259.9117647058824 453.371549893843 3291.323529411765 452.6921443736731 3322.735294117647 451.67303609341826 3354.1470588235293 449.9745222929937 3385.5588235294117 447.5966029723993 3416.970588235294 446.57749469214446 3448.3823529411766 443.85987261146505 3479.794117647059 443.85987261146505 3511.205882352941 443.5201698513801 3542.6176470588234 443.18046709129516 3574.029411764706 441.1422505307855 3605.4411764705883 440.12314225053075 3636.8529411764707 439.44373673036085 3668.264705882353 437.4055201698514 3699.676470588235 436.38641188959673 3731.0882352941176 436.0467091295118 3762.5 434.34819532908705 3793.9117647058824 432.9893842887474 3825.323529411765 431.97027600849253 3856.735294117647 430.611464968153 3888.1470588235293 427.5541401273886 3919.5588235294117 425.8556263269639 3950.970588235294 425.8556263269639 3982.3823529411766 425.176220806794 4013.7941176470586 424.4968152866243 4045.205882352941 424.1571125265394 4076.6176470588234 423.4777070063695 4108.029411764706 421.7791932059448 4139.441176470588 420.42038216560513 4170.85294117647 418.3821656050955 4202.264705882353 417.7027600849256 4233.676470588235 415.32484076433127 4265.088235294117 413.9660297239916 4296.5 413.9660297239916 4296.5 398.0000000000001 4265.088235294117 398.0000000000001 4233.676470588235 399.3588110403398 4202.264705882353 401.73673036093413 4170.85294117647 402.0764331210191 4139.441176470588 404.79405520169854 4108.029411764706 406.1528662420382 4076.6176470588234 407.8513800424629 4045.205882352941 408.5307855626328 4013.7941176470586 408.87048832271773 3982.3823529411766 409.5498938428874 3950.970588235294 410.2292993630573 3919.5588235294117 410.2292993630573 3888.1470588235293 411.927813163482 3856.735294117647 414.9851380042464 3825.323529411765 416.34394904458594 3793.9117647058824 417.3630573248408 3762.5 418.72186836518046 3731.0882352941176 420.4203821656052 3699.676470588235 420.76008492569014 3668.264705882353 421.7791932059448 3636.8529411764707 423.81740976645426 3605.4411764705883 424.49681528662416 3574.029411764706 425.5159235668789 3542.6176470588234 427.55414012738856 3511.205882352941 427.8938428874735 3479.794117647059 428.23354564755846 3448.3823529411766 428.23354564755846 3416.970588235294 430.95116772823786 3385.5588235294117 431.9702760084927 3354.1470588235293 434.3481953290871 3322.735294117647 436.04670912951167 3291.323529411765 437.0658174097665 3259.9117647058824 437.7452229299364 3228.5 439.7834394904459 3228.5 455.4097664543525Z" fill="#55c0e9" opacity="0.9" />
		</g>
		<g>
			<rect x="4372" y="431" width="22.9995" height="23" fill="#fdd5a4" />
		</g>
		<g>
			<text fill="#595959" font-family="Verdana,sans-serif" font-weight="400" font-size="41" transform="matrix(1 0 0 1 4404.56 454)">Other</text>
		</g>
		<g>
			<rect x="4372" y="508" width="22.9995" height="23" fill="#e62d39" />
		</g>
		<g>
			<text fill="#595959" font-family="Verdana,sans-serif" font-weight="400" font-size="41" transform="matrix(1 0 0 1 4404.56 531)">iOS</text>
		</g>
		<g>
			<rect x="4372" y="585" width="22.9995" height="23" fill="#005aa6" />
		</g>
		<g>
			<text fill="#595959" font-family="Verdana,sans-serif" font-weight="400" font-size="41" transform="matrix(1 0 0 1 4404.56 608)">Android</text>
		</g>
		<g>
			<rect x="4372" y="662" width="22.9995" height="23" fill="#f6a118" />
		</g>
		<g>
			<text fill="#595959" font-family="Verdana,sans-serif" font-weight="400" font-size="41" transform="matrix(1 0 0 1 4404.56 685)">macOS</text>
		</g>
		<g>
			<rect x="4372" y="739" width="22.9995" height="23" fill="#f48c7d" />
		</g>
		<g>
			<text fill="#595959" font-family="Verdana,sans-serif" font-weight="400" font-size="41" transform="matrix(1 0 0 1 4404.56 762)">Linux</text>
		</g>
		<g>
			<rect x="4372" y="816" width="22.9995" height="23" fill="#55c0e9" />
		</g>
		<g>
			<text fill="#595959" font-family="Verdana,sans-serif" font-weight="400" font-size="41" transform="matrix(1 0 0 1 4404.56 839)">Windows</text>
		</g>
	</g>
</svg>
