<svg width="1763" height="1046"
    xmlns="http://www.w3.org/2000/svg"
	xmlns:xlink="http://www.w3.org/1999/xlink" xml:space="preserve" overflow="hidden">
	<defs>
		<clipPath id="clip0">
			<rect x="2917" y="346" width="1763" height="1046"/>
		</clipPath>
	</defs>
	<g clip-path="url(#clip0)" transform="translate(-2917 -346)">
		<rect x="2918" y="347" width="1760" height="1043" fill="#FFFFFF" />
		<g>
			<path d="
			M3228.5 974.532 4296.5 974.532
			M3228.5 910.53 4296.5 910.53
			M3228.5 846.528 4296.5 846.528
			M3228.5 781.526 4296.5 781.526
			M3228.5 717.524 4296.5 717.524
			M3228.5 653.522 4296.5 653.522
			M3228.5 589.52 4296.5 589.52
			M3228.5 525.517 4296.5 525.517
			M3228.5 461.515 4296.5 461.515
			M3228.5 397.5 4296.5 397.5" stroke="#D9D9D9" stroke-width="3.4375" stroke-linejoin="round" stroke-miterlimit="10" fill="none" />
		</g>
		<g>
			<path d="M 1038.5 4296.5 1038.5" stroke="#D9D9D9" stroke-width="3.4375" stroke-linejoin="round" stroke-miterlimit="10" fill="none" fill-rule="evenodd" />
		</g>
		<g>
			<text fill="#595959" font-family="Verdana,Open Sans,DejaVu Sans,sans-serif" font-weight="400" font-size="41" transform="matrix(6.12323e-17 -1 1 6.12323e-17 3247.1982421875 1192.2914962768555)">16-Jun</text>
		</g>
		<g>
			<text fill="#595959" font-family="Verdana,Open Sans,DejaVu Sans,sans-serif" font-weight="400" font-size="41" transform="matrix(6.12323e-17 -1 1 6.12323e-17 3331.693660960478 1177.2768478393555)">14-Jul</text>
		</g>
		<g>
			<text fill="#595959" font-family="Verdana,Open Sans,DejaVu Sans,sans-serif" font-weight="400" font-size="41" transform="matrix(6.12323e-17 -1 1 6.12323e-17 3415.648552389706 1206.90576171875)">11-Aug</text>
		</g>
		<g>
			<text fill="#595959" font-family="Verdana,Open Sans,DejaVu Sans,sans-serif" font-weight="400" font-size="41" transform="matrix(6.12323e-17 -1 1 6.12323e-17 3499.583424287684 1204.38330078125)">08-Sep</text>
		</g>
		<g>
			<text fill="#595959" font-family="Verdana,Open Sans,DejaVu Sans,sans-serif" font-weight="400" font-size="41" transform="matrix(6.12323e-17 -1 1 6.12323e-17 3578.6235207950367 1201.1000900268555)">06-Oct</text>
		</g>
		<g>
			<text fill="#595959" font-family="Verdana,Open Sans,DejaVu Sans,sans-serif" font-weight="400" font-size="41" transform="matrix(6.12323e-17 -1 1 6.12323e-17 3662.38822667739 1211.43017578125)">03-Nov</text>
		</g>
		<g>
			<text fill="#595959" font-family="Verdana,Open Sans,DejaVu Sans,sans-serif" font-weight="400" font-size="41" transform="matrix(6.12323e-17 -1 1 6.12323e-17 3746.1529325597426 1207.0859375)">01-Dec</text>
		</g>
		<g>
			<text fill="#595959" font-family="Verdana,Open Sans,DejaVu Sans,sans-serif" font-weight="400" font-size="41" transform="matrix(6.12323e-17 -1 1 6.12323e-17 3829.8976189108457 1207.1259765625)">29-Dec</text>
		</g>
		<g>
			<text fill="#595959" font-family="Verdana,Open Sans,DejaVu Sans,sans-serif" font-weight="400" font-size="41" transform="matrix(6.12323e-17 -1 1 6.12323e-17 3917.3158892463234 1191.6909103393555)">26-Jan</text>
		</g>
		<g>
			<text fill="#595959" font-family="Verdana,Open Sans,DejaVu Sans,sans-serif" font-weight="400" font-size="41" transform="matrix(6.12323e-17 -1 1 6.12323e-17 3998.1577435661766 1203.08203125)">23-Feb</text>
		</g>
		<g>
			<text fill="#595959" font-family="Verdana,Open Sans,DejaVu Sans,sans-serif" font-weight="400" font-size="41" transform="matrix(6.12323e-17 -1 1 6.12323e-17 4081.1917365579043 1212.05078125)">23-Mar</text>
		</g>
		<g>
			<text fill="#595959" font-family="Verdana,Open Sans,DejaVu Sans,sans-serif" font-weight="400" font-size="41" transform="matrix(6.12323e-17 -1 1 6.12323e-17 4169.701071346507 1203.3022384643555)">20-Apr</text>
		</g>
		<g>
			<text fill="#595959" font-family="Verdana,Open Sans,DejaVu Sans,sans-serif" font-weight="400" font-size="41" transform="matrix(6.12323e-17 -1 1 6.12323e-17 4253.44575769761 1214.75341796875)">18-May</text>
		</g>
		<g>
			<text fill="#595959" font-family="Verdana,Open Sans,DejaVu Sans,sans-serif" font-weight="400" font-size="41" transform="matrix(1 0 0 1 3169.14111328125 1050)">0</text>
		</g>
		<g>
			<text fill="#595959" font-family="Verdana,Open Sans,DejaVu Sans,sans-serif" font-weight="400" font-size="41" transform="matrix(1 0 0 1 3121.154296875 922)">448</text>
		</g>
		<g>
			<text fill="#595959" font-family="Verdana,Open Sans,DejaVu Sans,sans-serif" font-weight="400" font-size="41" transform="matrix(1 0 0 1 3122.33544921875 794)">897</text>
		</g>
		<g>
			<text fill="#595959" font-family="Verdana,Open Sans,DejaVu Sans,sans-serif" font-weight="400" font-size="41" transform="matrix(1 0 0 1 3090.8046875 666)">1,345</text>
		</g>
		<g>
			<text fill="#595959" font-family="Verdana,Open Sans,DejaVu Sans,sans-serif" font-weight="400" font-size="41" transform="matrix(1 0 0 1 3089.26318359375 538)">1,794</text>
		</g>
		<g>
			<text fill="#595959" font-family="Verdana,Open Sans,DejaVu Sans,sans-serif" font-weight="400" font-size="41" transform="matrix(1 0 0 1 3088.8828125 410)">2,242</text>
		</g>
		<g>
			<text fill="#595959" font-family="Verdana,Open Sans,DejaVu Sans,sans-serif" font-weight="400" font-size="41" transform="matrix(1 0 0 1 3556.97119140625 1321)">Week Commencing</text>
		</g>
		<g>
			<text fill="#595959" font-family="Verdana,Open Sans,DejaVu Sans,sans-serif" font-weight="400" font-size="46" transform="matrix(6.12323e-17 -1 1 6.12323e-17 3019.73 953.7919921875)">Number of OS Profiles</text>
		</g>
		<rect x="2918.5" y="347.5" width="1760" height="1043" stroke="#D9D9D9" stroke-width="3.4375" stroke-linejoin="round" stroke-miterlimit="10" fill="none" />
		<g>
			<path d="M3228.5 1038 3249.4411764705883 1038 3270.3823529411766 1038 3291.323529411765 1038 3312.264705882353 1038 3333.205882352941 1038 3354.1470588235293 1038 3375.0882352941176 1038 3396.029411764706 1038 3416.970588235294 1038 3437.9117647058824 1038 3458.8529411764707 1038 3479.794117647059 1038 3500.735294117647 1038 3521.676470588235 1038 3542.6176470588234 1038 3563.5588235294117 1038 3584.5 1038 3605.4411764705883 1038 3626.3823529411766 1038 3647.323529411765 1038 3668.264705882353 1038 3689.205882352941 1038 3710.1470588235293 1038 3731.0882352941176 1038 3752.029411764706 1038 3772.970588235294 1038 3793.9117647058824 1038 3814.8529411764707 1038 3835.7941176470586 1038 3856.735294117647 1038 3877.676470588235 1038 3898.6176470588234 1038 3919.5588235294117 1038 3940.5 1038 3961.4411764705883 1038 3982.3823529411766 1038 4003.323529411765 1038 4024.264705882353 1038 4045.2058823529414 1038 4066.1470588235293 1038 4087.0882352941176 1038 4108.029411764706 1038 4128.970588235294 1038 4149.911764705882 1038 4170.85294117647 1038 4191.794117647059 1038 4212.735294117647 1038 4233.676470588235 1038 4254.617647058823 1038 4275.558823529412 1038 4296.5 1038 4296.5 709.436217662801 4275.558823529412 710.007136485281 4254.617647058823 710.5780553077609 4233.676470588235 710.5780553077609 4212.735294117647 710.8635147190009 4191.794117647059 710.8635147190009 4170.85294117647 710.8635147190009 4149.911764705882 711.1489741302408 4128.970588235294 711.4344335414808 4108.029411764706 711.4344335414808 4087.0882352941176 712.5762711864406 4066.1470588235293 714.2890276538805 4045.2058823529414 714.8599464763604 4024.264705882353 714.8599464763604 4003.323529411765 715.1454058876004 3982.3823529411766 715.4308652988403 3961.4411764705883 716.2872435325602 3940.5 716.8581623550401 3919.5588235294117 717.71454058876 3898.6176470588234 718.5709188224799 3877.676470588235 718.8563782337199 3856.735294117647 719.1418376449599 3835.7941176470586 719.1418376449599 3814.8529411764707 719.7127564674397 3793.9117647058824 719.9982158786797 3772.970588235294 720.5691347011597 3752.029411764706 720.5691347011597 3731.0882352941176 720.8545941123996 3710.1470588235293 721.1400535236396 3689.205882352941 721.4255129348796 3668.264705882353 722.2818911685995 3647.323529411765 723.1382694023193 3626.3823529411766 723.4237288135594 3605.4411764705883 723.7091882247993 3584.5 723.7091882247993 3563.5588235294117 724.2801070472792 3542.6176470588234 725.707404103479 3521.676470588235 726.563782337199 3500.735294117647 726.8492417484389 3479.794117647059 726.8492417484389 3458.8529411764707 727.1347011596788 3437.9117647058824 727.1347011596788 3416.970588235294 727.1347011596788 3396.029411764706 727.4201605709188 3375.0882352941176 728.2765388046387 3354.1470588235293 728.2765388046387 3333.205882352941 728.5619982158787 3312.264705882353 728.8474576271186 3291.323529411765 729.4183764495986 3270.3823529411766 729.7038358608386 3249.4411764705883 729.7038358608386 3228.5 730.2747546833184 3228.5 1038Z" fill="#f48c7d" opacity="0.9" />
		</g>
		<g>
			<path d="M3228.5 730.2747546833184 3249.4411764705883 729.7038358608386 3270.3823529411766 729.7038358608386 3291.323529411765 729.4183764495986 3312.264705882353 728.8474576271186 3333.205882352941 728.5619982158787 3354.1470588235293 728.2765388046387 3375.0882352941176 728.2765388046387 3396.029411764706 727.4201605709188 3416.970588235294 727.1347011596788 3437.9117647058824 727.1347011596788 3458.8529411764707 727.1347011596788 3479.794117647059 726.8492417484389 3500.735294117647 726.8492417484389 3521.676470588235 726.563782337199 3542.6176470588234 725.707404103479 3563.5588235294117 724.2801070472792 3584.5 723.7091882247993 3605.4411764705883 723.7091882247993 3626.3823529411766 723.4237288135594 3647.323529411765 723.1382694023193 3668.264705882353 722.2818911685995 3689.205882352941 721.4255129348796 3710.1470588235293 721.1400535236396 3731.0882352941176 720.8545941123996 3752.029411764706 720.5691347011597 3772.970588235294 720.5691347011597 3793.9117647058824 719.9982158786797 3814.8529411764707 719.7127564674397 3835.7941176470586 719.1418376449599 3856.735294117647 719.1418376449599 3877.676470588235 718.8563782337199 3898.6176470588234 718.5709188224799 3919.5588235294117 717.71454058876 3940.5 716.8581623550401 3961.4411764705883 716.2872435325602 3982.3823529411766 715.4308652988403 4003.323529411765 715.1454058876004 4024.264705882353 714.8599464763604 4045.2058823529414 714.8599464763604 4066.1470588235293 714.2890276538805 4087.0882352941176 712.5762711864406 4108.029411764706 711.4344335414808 4128.970588235294 711.4344335414808 4149.911764705882 711.1489741302408 4170.85294117647 710.8635147190009 4191.794117647059 710.8635147190009 4212.735294117647 710.8635147190009 4233.676470588235 710.5780553077609 4254.617647058823 710.5780553077609 4275.558823529412 710.007136485281 4296.5 709.436217662801 4296.5 548.4371097234612 4275.558823529412 549.578947368421 4254.617647058823 551.2917038358607 4233.676470588235 551.2917038358607 4212.735294117647 553.5753791257806 4191.794117647059 553.5753791257806 4170.85294117647 553.5753791257806 4149.911764705882 555.5735950044602 4128.970588235294 555.8590544157003 4108.029411764706 557.00089206066 4087.0882352941176 559.2845673505798 4066.1470588235293 561.5682426404995 4045.2058823529414 562.1391614629795 4024.264705882353 563.2809991079394 4003.323529411765 564.9937555753792 3982.3823529411766 565.2792149866191 3961.4411764705883 566.7065120428189 3940.5 567.2774308652988 3919.5588235294117 569.2756467439785 3898.6176470588234 573.557537912578 3877.676470588235 573.8429973238179 3856.735294117647 574.413916146298 3835.7941176470586 574.413916146298 3814.8529411764707 574.9848349687778 3793.9117647058824 575.2702943800178 3772.970588235294 577.2685102586976 3752.029411764706 576.4121320249777 3731.0882352941176 577.2685102586975 3710.1470588235293 577.5539696699375 3689.205882352941 577.8394290811775 3668.264705882353 578.6958073148974 3647.323529411765 580.6940231935771 3626.3823529411766 581.5504014272971 3605.4411764705883 581.835860838537 3584.5 581.835860838537 3563.5588235294117 582.4067796610169 3542.6176470588234 586.6886708296164 3521.676470588235 587.8305084745763 3500.735294117647 588.1159678858162 3479.794117647059 589.828724353256 3458.8529411764707 590.399643175736 3437.9117647058824 590.399643175736 3416.970588235294 591.2560214094558 3396.029411764706 591.8269402319357 3375.0882352941176 592.9687778768956 3354.1470588235293 592.9687778768956 3333.205882352941 593.5396966993756 3312.264705882353 593.8251561106155 3291.323529411765 594.3960749330954 3270.3823529411766 594.6815343443354 3249.4411764705883 594.6815343443354 3228.5 595.8233719892952 3228.5 730.2747546833184Z" fill="#005aa6" opacity="0.9" />
		</g>
		<g>
			<path d="M3228.5 595.8233719892952 3249.4411764705883 594.6815343443354 3270.3823529411766 594.6815343443354 3291.323529411765 594.3960749330954 3312.264705882353 593.8251561106155 3333.205882352941 593.5396966993756 3354.1470588235293 592.9687778768956 3375.0882352941176 592.9687778768956 3396.029411764706 591.8269402319357 3416.970588235294 591.2560214094558 3437.9117647058824 590.399643175736 3458.8529411764707 590.399643175736 3479.794117647059 589.828724353256 3500.735294117647 588.1159678858162 3521.676470588235 587.8305084745763 3542.6176470588234 586.6886708296164 3563.5588235294117 582.4067796610169 3584.5 581.835860838537 3605.4411764705883 581.835860838537 3626.3823529411766 581.5504014272971 3647.323529411765 580.6940231935771 3668.264705882353 578.6958073148974 3689.205882352941 577.8394290811775 3710.1470588235293 577.5539696699375 3731.0882352941176 577.2685102586975 3752.029411764706 576.4121320249777 3772.970588235294 577.2685102586976 3793.9117647058824 575.2702943800178 3814.8529411764707 574.9848349687778 3835.7941176470586 574.413916146298 3856.735294117647 574.413916146298 3877.676470588235 573.8429973238179 3898.6176470588234 573.557537912578 3919.5588235294117 569.2756467439785 3940.5 567.2774308652988 3961.4411764705883 566.7065120428189 3982.3823529411766 565.2792149866191 4003.323529411765 564.9937555753792 4024.264705882353 563.2809991079394 4045.2058823529414 562.1391614629795 4066.1470588235293 561.5682426404995 4087.0882352941176 559.2845673505798 4108.029411764706 557.00089206066 4128.970588235294 555.8590544157003 4149.911764705882 555.5735950044602 4170.85294117647 553.5753791257806 4191.794117647059 553.5753791257806 4212.735294117647 553.5753791257806 4233.676470588235 551.2917038358607 4254.617647058823 551.2917038358607 4275.558823529412 549.578947368421 4296.5 548.4371097234612 4296.5 489.6324710080285 4275.558823529412 491.05976806422836 4254.617647058823 493.05798394290804 4233.676470588235 493.05798394290804 4212.735294117647 495.9125780553078 4191.794117647059 495.9125780553078 4170.85294117647 495.9125780553078 4149.911764705882 497.9107939339874 4128.970588235294 498.19625334522743 4108.029411764706 499.6235504014272 4087.0882352941176 502.1926851025869 4066.1470588235293 504.7618198037466 4045.2058823529414 505.33273862622656 4024.264705882353 506.7600356824264 4003.323529411765 509.04371097234616 3982.3823529411766 509.3291703835861 3961.4411764705883 511.04192685102583 3940.5 512.4692239072257 3919.5588235294117 514.7528991971453 3898.6176470588234 519.0347903657448 3877.676470588235 519.3202497769847 3856.735294117647 519.8911685994648 3835.7941176470586 519.8911685994648 3814.8529411764707 520.4620874219446 3793.9117647058824 520.7475468331846 3772.970588235294 523.0312221231044 3752.029411764706 522.1748438893845 3731.0882352941176 523.0312221231043 3710.1470588235293 523.3166815343443 3689.205882352941 523.6021409455843 3668.264705882353 525.0294380017841 3647.323529411765 527.8840321141837 3626.3823529411766 528.7404103479037 3605.4411764705883 529.0258697591436 3584.5 529.0258697591436 3563.5588235294117 529.8822479928634 3542.6176470588234 535.0205173951829 3521.676470588235 536.4478144513827 3500.735294117647 536.7332738626226 3479.794117647059 538.4460303300624 3458.8529411764707 539.0169491525423 3437.9117647058824 539.0169491525423 3416.970588235294 540.7297056199822 3396.029411764706 541.586083853702 3375.0882352941176 543.0133809099019 3354.1470588235293 543.5842997323817 3333.205882352941 544.1552185548617 3312.264705882353 544.4406779661016 3291.323529411765 545.0115967885815 3270.3823529411766 545.2970561998216 3249.4411764705883 545.2970561998216 3228.5 546.7243532560213 3228.5 595.8233719892952Z" fill="#f6a118" opacity="0.9" />
		</g>
		<g>
			<path d="M3228.5 546.7243532560213 3249.4411764705883 545.2970561998216 3270.3823529411766 545.2970561998216 3291.323529411765 545.0115967885815 3312.264705882353 544.4406779661016 3333.205882352941 544.1552185548617 3354.1470588235293 543.5842997323817 3375.0882352941176 543.0133809099019 3396.029411764706 541.586083853702 3416.970588235294 540.7297056199822 3437.9117647058824 539.0169491525423 3458.8529411764707 539.0169491525423 3479.794117647059 538.4460303300624 3500.735294117647 536.7332738626226 3521.676470588235 536.4478144513827 3542.6176470588234 535.0205173951829 3563.5588235294117 529.8822479928634 3584.5 529.0258697591436 3605.4411764705883 529.0258697591436 3626.3823529411766 528.7404103479037 3647.323529411765 527.8840321141837 3668.264705882353 525.0294380017841 3689.205882352941 523.6021409455843 3710.1470588235293 523.3166815343443 3731.0882352941176 523.0312221231043 3752.029411764706 522.1748438893845 3772.970588235294 523.0312221231044 3793.9117647058824 520.7475468331846 3814.8529411764707 520.4620874219446 3835.7941176470586 519.8911685994648 3856.735294117647 519.8911685994648 3877.676470588235 519.3202497769847 3898.6176470588234 519.0347903657448 3919.5588235294117 514.7528991971453 3940.5 512.4692239072257 3961.4411764705883 511.04192685102583 3982.3823529411766 509.3291703835861 4003.323529411765 509.04371097234616 4024.264705882353 506.7600356824264 4045.2058823529414 505.33273862622656 4066.1470588235293 504.7618198037466 4087.0882352941176 502.1926851025869 4108.029411764706 499.6235504014272 4128.970588235294 498.19625334522743 4149.911764705882 497.9107939339874 4170.85294117647 495.9125780553078 4191.794117647059 495.9125780553078 4212.735294117647 495.9125780553078 4233.676470588235 493.05798394290804 4254.617647058823 493.05798394290804 4275.558823529412 491.05976806422836 4296.5 489.6324710080285 4296.5 435.68064228367524 4275.558823529412 437.1079393398751 4254.617647058823 439.10615521855476 4233.676470588235 439.10615521855476 4212.735294117647 441.9607493309545 4191.794117647059 441.9607493309545 4170.85294117647 441.9607493309545 4149.911764705882 443.95896520963413 4128.970588235294 444.24442462087416 4108.029411764706 445.67172167707395 4087.0882352941176 448.2408563782336 4066.1470588235293 450.80999107939334 4045.2058823529414 451.3809099018733 4024.264705882353 452.80820695807313 4003.323529411765 455.0918822479929 3982.3823529411766 455.3773416592328 3961.4411764705883 457.3755575379125 3940.5 458.8028545941124 3919.5588235294117 461.086529884032 3898.6176470588234 465.3684210526315 3877.676470588235 465.6538804638714 3856.735294117647 466.22479928635147 3835.7941176470586 466.22479928635147 3814.8529411764707 466.7957181088313 3793.9117647058824 467.0811775200713 3772.970588235294 469.3648528099911 3752.029411764706 468.5084745762712 3731.0882352941176 469.36485280999096 3710.1470588235293 469.650312221231 3689.205882352941 469.935771632471 3668.264705882353 471.3630686886708 3647.323529411765 474.2176628010704 3626.3823529411766 475.07404103479035 3605.4411764705883 475.35950044603027 3584.5 475.35950044603027 3563.5588235294117 476.2158786797501 3542.6176470588234 481.35414808206957 3521.676470588235 482.78144513826936 3500.735294117647 483.0669045495093 3479.794117647059 484.7796610169491 3458.8529411764707 485.35057983942903 3437.9117647058824 485.35057983942903 3416.970588235294 487.06333630686885 3396.029411764706 487.9197145405887 3375.0882352941176 489.3470115967886 3354.1470588235293 489.91793041926843 3333.205882352941 490.48884924174837 3312.264705882353 490.7743086529883 3291.323529411765 491.3452274754682 3270.3823529411766 491.63068688670825 3249.4411764705883 491.63068688670825 3228.5 493.05798394290804 3228.5 546.7243532560213Z" fill="#e62d39" opacity="0.9" />
		</g>
		<g>
			<path d="M3228.5 493.05798394290804 3249.4411764705883 491.63068688670825 3270.3823529411766 491.63068688670825 3291.323529411765 491.3452274754682 3312.264705882353 490.7743086529883 3333.205882352941 490.48884924174837 3354.1470588235293 489.91793041926843 3375.0882352941176 489.3470115967886 3396.029411764706 487.9197145405887 3416.970588235294 487.06333630686885 3437.9117647058824 485.35057983942903 3458.8529411764707 485.35057983942903 3479.794117647059 484.7796610169491 3500.735294117647 483.0669045495093 3521.676470588235 482.78144513826936 3542.6176470588234 481.35414808206957 3563.5588235294117 476.2158786797501 3584.5 475.35950044603027 3605.4411764705883 475.35950044603027 3626.3823529411766 475.07404103479035 3647.323529411765 474.2176628010704 3668.264705882353 471.3630686886708 3689.205882352941 469.935771632471 3710.1470588235293 469.650312221231 3731.0882352941176 469.36485280999096 3752.029411764706 468.5084745762712 3772.970588235294 469.3648528099911 3793.9117647058824 467.0811775200713 3814.8529411764707 466.7957181088313 3835.7941176470586 466.22479928635147 3856.735294117647 466.22479928635147 3877.676470588235 465.6538804638714 3898.6176470588234 465.3684210526315 3919.5588235294117 461.086529884032 3940.5 458.8028545941124 3961.4411764705883 457.3755575379125 3982.3823529411766 455.3773416592328 4003.323529411765 455.0918822479929 4024.264705882353 452.80820695807313 4045.2058823529414 451.3809099018733 4066.1470588235293 450.80999107939334 4087.0882352941176 448.2408563782336 4108.029411764706 445.67172167707395 4128.970588235294 444.24442462087416 4149.911764705882 443.95896520963413 4170.85294117647 441.9607493309545 4191.794117647059 441.9607493309545 4212.735294117647 441.9607493309545 4233.676470588235 439.10615521855476 4254.617647058823 439.10615521855476 4275.558823529412 437.1079393398751 4296.5 435.68064228367524 4296.5 410.5602140945584 4275.558823529412 411.9875111507582 4254.617647058823 413.9857270294379 4233.676470588235 413.9857270294379 4212.735294117647 416.84032114183765 4191.794117647059 416.84032114183765 4170.85294117647 416.84032114183765 4149.911764705882 418.83853702051726 4128.970588235294 419.1239964317573 4108.029411764706 420.5512934879571 4087.0882352941176 423.12042818911675 4066.1470588235293 425.6895628902765 4045.2058823529414 426.2604817127564 4024.264705882353 427.68777876895626 4003.323529411765 429.971454058876 3982.3823529411766 430.25691347011593 3961.4411764705883 432.25512934879566 3940.5 433.6824264049955 3919.5588235294117 435.96610169491515 3898.6176470588234 440.24799286351464 3877.676470588235 440.53345227475455 3856.735294117647 441.1043710972346 3835.7941176470586 441.1043710972346 3814.8529411764707 441.67528991971443 3793.9117647058824 441.96074933095446 3772.970588235294 444.2444246208742 3752.029411764706 443.38804638715436 3731.0882352941176 444.2444246208741 3710.1470588235293 444.5298840321141 3689.205882352941 444.81534344335415 3668.264705882353 446.24264049955394 3647.323529411765 449.0972346119535 3626.3823529411766 449.9536128456735 3605.4411764705883 450.2390722569134 3584.5 450.5245316681534 3563.5588235294117 451.3809099018732 3542.6176470588234 456.5191793041927 3521.676470588235 457.94647636039247 3500.735294117647 458.2319357716324 3479.794117647059 459.9446922390722 3458.8529411764707 460.51561106155214 3437.9117647058824 460.51561106155214 3416.970588235294 462.22836752899195 3396.029411764706 463.0847457627118 3375.0882352941176 464.5120428189117 3354.1470588235293 465.08296164139153 3333.205882352941 465.6538804638715 3312.264705882353 465.9393398751114 3291.323529411765 466.5102586975913 3270.3823529411766 466.79571810883135 3249.4411764705883 466.79571810883135 3228.5 468.22301516503114 3228.5 493.05798394290804Z" fill="#fdd5a4" opacity="0.9" />
		</g>
		<g>
			<path d="M3228.5 468.22301516503114 3249.4411764705883 466.79571810883135 3270.3823529411766 466.79571810883135 3291.323529411765 466.5102586975913 3312.264705882353 465.9393398751114 3333.205882352941 465.6538804638715 3354.1470588235293 465.08296164139153 3375.0882352941176 464.5120428189117 3396.029411764706 463.0847457627118 3416.970588235294 462.22836752899195 3437.9117647058824 460.51561106155214 3458.8529411764707 460.51561106155214 3479.794117647059 459.9446922390722 3500.735294117647 458.2319357716324 3521.676470588235 457.94647636039247 3542.6176470588234 456.5191793041927 3563.5588235294117 451.3809099018732 3584.5 450.5245316681534 3605.4411764705883 450.2390722569134 3626.3823529411766 449.9536128456735 3647.323529411765 449.0972346119535 3668.264705882353 446.24264049955394 3689.205882352941 444.81534344335415 3710.1470588235293 444.5298840321141 3731.0882352941176 444.2444246208741 3752.029411764706 443.38804638715436 3772.970588235294 444.2444246208742 3793.9117647058824 441.96074933095446 3814.8529411764707 441.67528991971443 3835.7941176470586 441.1043710972346 3856.735294117647 441.1043710972346 3877.676470588235 440.53345227475455 3898.6176470588234 440.24799286351464 3919.5588235294117 435.96610169491515 3940.5 433.6824264049955 3961.4411764705883 432.25512934879566 3982.3823529411766 430.25691347011593 4003.323529411765 429.971454058876 4024.264705882353 427.68777876895626 4045.2058823529414 426.2604817127564 4066.1470588235293 425.6895628902765 4087.0882352941176 423.12042818911675 4108.029411764706 420.5512934879571 4128.970588235294 419.1239964317573 4149.911764705882 418.83853702051726 4170.85294117647 416.84032114183765 4191.794117647059 416.84032114183765 4212.735294117647 416.84032114183765 4233.676470588235 413.9857270294379 4254.617647058823 413.9857270294379 4275.558823529412 411.9875111507582 4296.5 410.5602140945584 4296.5 397.99999999999994 4275.558823529412 399.4272970561998 4254.617647058823 401.42551293487946 4233.676470588235 401.42551293487946 4212.735294117647 404.2801070472792 4191.794117647059 404.2801070472792 4170.85294117647 404.2801070472792 4149.911764705882 406.27832292595883 4128.970588235294 406.56378233719886 4108.029411764706 407.99107939339865 4087.0882352941176 410.5602140945583 4066.1470588235293 413.12934879571804 4045.2058823529414 413.700267618198 4024.264705882353 415.12756467439783 4003.323529411765 417.4112399643176 3982.3823529411766 417.6966993755575 3961.4411764705883 419.69491525423723 3940.5 421.40767172167705 3919.5588235294117 423.6913470115967 3898.6176470588234 427.9732381801962 3877.676470588235 428.2586975914361 3856.735294117647 428.82961641391614 3835.7941176470586 428.82961641391614 3814.8529411764707 429.40053523639597 3793.9117647058824 429.685994647636 3772.970588235294 431.96966993755575 3752.029411764706 431.1132917038359 3731.0882352941176 431.96966993755564 3710.1470588235293 432.25512934879566 3689.205882352941 432.5405887600357 3668.264705882353 433.9678858162355 3647.323529411765 436.82247992863506 3626.3823529411766 437.678858162355 3605.4411764705883 437.96431757359494 3584.5 438.2497769848349 3563.5588235294117 439.10615521855476 3542.6176470588234 444.2444246208742 3521.676470588235 445.671721677074 3500.735294117647 445.9571810883139 3479.794117647059 447.66993755575373 3458.8529411764707 448.2408563782337 3437.9117647058824 448.2408563782337 3416.970588235294 449.9536128456735 3396.029411764706 450.80999107939334 3375.0882352941176 452.23728813559325 3354.1470588235293 452.8082069580731 3333.205882352941 453.379125780553 3312.264705882353 453.6645851917929 3291.323529411765 454.23550401427286 3270.3823529411766 454.5209634255129 3249.4411764705883 454.5209634255129 3228.5 455.9482604817127 3228.5 468.22301516503114Z" fill="#55c0e9" opacity="0.9" />
		</g>
		<g>
			<rect x="4372" y="431" width="22.9995" height="23" fill="#f48c7d" />
		</g>
		<g>
			<text fill="#595959" font-family="Verdana,Open Sans,DejaVu Sans,sans-serif" font-weight="400" font-size="41" transform="matrix(1 0 0 1 4404.56 454)">Other</text>
		</g>
		<g>
			<rect x="4372" y="508" width="22.9995" height="23" fill="#005aa6" />
		</g>
		<g>
			<text fill="#595959" font-family="Verdana,Open Sans,DejaVu Sans,sans-serif" font-weight="400" font-size="41" transform="matrix(1 0 0 1 4404.56 531)">iOS</text>
		</g>
		<g>
			<rect x="4372" y="585" width="22.9995" height="23" fill="#f6a118" />
		</g>
		<g>
			<text fill="#595959" font-family="Verdana,Open Sans,DejaVu Sans,sans-serif" font-weight="400" font-size="41" transform="matrix(1 0 0 1 4404.56 608)">macOS</text>
		</g>
		<g>
			<rect x="4372" y="662" width="22.9995" height="23" fill="#e62d39" />
		</g>
		<g>
			<text fill="#595959" font-family="Verdana,Open Sans,DejaVu Sans,sans-serif" font-weight="400" font-size="41" transform="matrix(1 0 0 1 4404.56 685)">Android</text>
		</g>
		<g>
			<rect x="4372" y="739" width="22.9995" height="23" fill="#fdd5a4" />
		</g>
		<g>
			<text fill="#595959" font-family="Verdana,Open Sans,DejaVu Sans,sans-serif" font-weight="400" font-size="41" transform="matrix(1 0 0 1 4404.56 762)">Linux</text>
		</g>
		<g>
			<rect x="4372" y="816" width="22.9995" height="23" fill="#55c0e9" />
		</g>
		<g>
			<text fill="#595959" font-family="Verdana,Open Sans,DejaVu Sans,sans-serif" font-weight="400" font-size="41" transform="matrix(1 0 0 1 4404.56 839)">Windows</text>
		</g>
	</g>
</svg>
