<svg width="1763" height="1046"
    xmlns="http://www.w3.org/2000/svg"
	xmlns:xlink="http://www.w3.org/1999/xlink" xml:space="preserve" overflow="hidden">
	<defs>
		<clipPath id="clip0">
			<rect x="2917" y="346" width="1763" height="1046"/>
		</clipPath>
	</defs>
	<g clip-path="url(#clip0)" transform="translate(-2917 -346)">
		<rect x="2918" y="347" width="1760" height="1043" fill="#FFFFFF" />
		<g>
			<path d="
			M3228.5 974.532 4296.5 974.532
			M3228.5 910.53 4296.5 910.53
			M3228.5 846.528 4296.5 846.528
			M3228.5 781.526 4296.5 781.526
			M3228.5 717.524 4296.5 717.524
			M3228.5 653.522 4296.5 653.522
			M3228.5 589.52 4296.5 589.52
			M3228.5 525.517 4296.5 525.517
			M3228.5 461.515 4296.5 461.515
			M3228.5 397.5 4296.5 397.5" stroke="#D9D9D9" stroke-width="3.4375" stroke-linejoin="round" stroke-miterlimit="10" fill="none" />
		</g>
		<g>
			<path d="M 1038.5 4296.5 1038.5" stroke="#D9D9D9" stroke-width="3.4375" stroke-linejoin="round" stroke-miterlimit="10" fill="none" fill-rule="evenodd" />
		</g>
		<g>
			<text fill="#595959" font-family="Verdana,sans-serif" font-weight="400" font-size="41" transform="matrix(6.12323e-17 -1 1 6.12323e-17 3244.5 1216)">26-Feb</text>
		</g>
		<g>
			<text fill="#595959" font-family="Verdana,sans-serif" font-weight="400" font-size="41" transform="matrix(6.12323e-17 -1 1 6.12323e-17 3328.264705882353 1223)">25-Mar</text>
		</g>
		<g>
			<text fill="#595959" font-family="Verdana,sans-serif" font-weight="400" font-size="41" transform="matrix(6.12323e-17 -1 1 6.12323e-17 3415.529411764706 1216)">22-Apr</text>
		</g>
		<g>
			<text fill="#595959" font-family="Verdana,sans-serif" font-weight="400" font-size="41" transform="matrix(6.12323e-17 -1 1 6.12323e-17 3499.294117647059 1228)">20-May</text>
		</g>
		<g>
			<text fill="#595959" font-family="Verdana,sans-serif" font-weight="400" font-size="41" transform="matrix(6.12323e-17 -1 1 6.12323e-17 3579.0588235294117 1209)">17-Jun</text>
		</g>
		<g>
			<text fill="#595959" font-family="Verdana,sans-serif" font-weight="400" font-size="41" transform="matrix(6.12323e-17 -1 1 6.12323e-17 3663.323529411765 1194)">15-Jul</text>
		</g>
		<g>
			<text fill="#595959" font-family="Verdana,sans-serif" font-weight="400" font-size="41" transform="matrix(6.12323e-17 -1 1 6.12323e-17 3750.5882352941176 1218)">12-Aug</text>
		</g>
		<g>
			<text fill="#595959" font-family="Verdana,sans-serif" font-weight="400" font-size="41" transform="matrix(6.12323e-17 -1 1 6.12323e-17 3834.3529411764707 1222)">09-Sep</text>
		</g>
		<g>
			<text fill="#595959" font-family="Verdana,sans-serif" font-weight="400" font-size="41" transform="matrix(6.12323e-17 -1 1 6.12323e-17 3914.6176470588234 1215)">07-Oct</text>
		</g>
		<g>
			<text fill="#595959" font-family="Verdana,sans-serif" font-weight="400" font-size="41" transform="matrix(6.12323e-17 -1 1 6.12323e-17 3998.3823529411766 1225)">04-Nov</text>
		</g>
		<g>
			<text fill="#595959" font-family="Verdana,sans-serif" font-weight="400" font-size="41" transform="matrix(6.12323e-17 -1 1 6.12323e-17 4082.1470588235293 1223)">09-Dec</text>
		</g>
		<g>
			<text fill="#595959" font-family="Verdana,sans-serif" font-weight="400" font-size="41" transform="matrix(6.12323e-17 -1 1 6.12323e-17 4165.911764705882 1210)">06-Jan</text>
		</g>
		<g>
			<text fill="#595959" font-family="Verdana,sans-serif" font-weight="400" font-size="41" transform="matrix(6.12323e-17 -1 1 6.12323e-17 4249.676470588235 1217)">03-Feb</text>
		</g>
		<g>
			<text fill="#595959" font-family="Verdana,sans-serif" font-weight="400" font-size="41" transform="matrix(1 0 0 1 3167.5 1050)">0</text>
		</g>
		<g>
			<text fill="#595959" font-family="Verdana,sans-serif" font-weight="400" font-size="41" transform="matrix(1 0 0 1 3115.5 922)">396</text>
		</g>
		<g>
			<text fill="#595959" font-family="Verdana,sans-serif" font-weight="400" font-size="41" transform="matrix(1 0 0 1 3117.5 794)">791</text>
		</g>
		<g>
			<text fill="#595959" font-family="Verdana,sans-serif" font-weight="400" font-size="41" transform="matrix(1 0 0 1 3076.5 666)">1,187</text>
		</g>
		<g>
			<text fill="#595959" font-family="Verdana,sans-serif" font-weight="400" font-size="41" transform="matrix(1 0 0 1 3077.5 538)">1,582</text>
		</g>
		<g>
			<text fill="#595959" font-family="Verdana,sans-serif" font-weight="400" font-size="41" transform="matrix(1 0 0 1 3076.5 410)">1,978</text>
		</g>
		<g>
			<text fill="#595959" font-family="Verdana,sans-serif" font-weight="400" font-size="41" transform="matrix(1 0 0 1 3544.5 1321)">Week Commencing</text>
		</g>
		<g>
			<text fill="#595959" font-family="Verdana,sans-serif" font-weight="400" font-size="46" transform="matrix(6.12323e-17 -1 1 6.12323e-17 3019.73 970.75)">Number of OS Profiles</text>
		</g>
		<rect x="2918.5" y="347.5" width="1760" height="1043" stroke="#D9D9D9" stroke-width="3.4375" stroke-linejoin="round" stroke-miterlimit="10" fill="none" />
		<g>
			<path d="M3228.5 1038 3249.4411764705883 1038 3270.3823529411766 1038 3291.323529411765 1038 3312.264705882353 1038 3333.205882352941 1038 3354.1470588235293 1038 3375.0882352941176 1038 3396.029411764706 1038 3416.970588235294 1038 3437.9117647058824 1038 3458.8529411764707 1038 3479.794117647059 1038 3500.735294117647 1038 3521.676470588235 1038 3542.6176470588234 1038 3563.5588235294117 1038 3584.5 1038 3605.4411764705883 1038 3626.3823529411766 1038 3647.323529411765 1038 3668.264705882353 1038 3689.205882352941 1038 3710.1470588235293 1038 3731.0882352941176 1038 3752.029411764706 1038 3772.970588235294 1038 3793.9117647058824 1038 3814.8529411764707 1038 3835.7941176470586 1038 3856.735294117647 1038 3877.676470588235 1038 3898.6176470588234 1038 3919.5588235294117 1038 3940.5 1038 3961.4411764705883 1038 3982.3823529411766 1038 4003.323529411765 1038 4024.264705882353 1038 4045.2058823529414 1038 4066.1470588235293 1038 4087.0882352941176 1038 4108.029411764706 1038 4128.970588235294 1038 4149.911764705882 1038 4170.85294117647 1038 4191.794117647059 1038 4212.735294117647 1038 4233.676470588235 1038 4254.617647058823 1038 4275.558823529412 1038 4296.5 1038 4296.5 697.9393326592517 4275.558823529412 697.9393326592517 4254.617647058823 698.5864509605663 4233.676470588235 699.2335692618807 4212.735294117647 699.8806875631951 4191.794117647059 700.5278058645097 4170.85294117647 700.8513650151668 4149.911764705882 700.8513650151668 4128.970588235294 700.8513650151668 4108.029411764706 700.8513650151668 4087.0882352941176 701.4984833164813 4066.1470588235293 701.4984833164813 4045.2058823529414 702.1456016177958 4024.264705882353 702.7927199191103 4003.323529411765 703.1162790697674 3982.3823529411766 703.4398382204247 3961.4411764705883 703.4398382204247 3940.5 703.763397371082 3919.5588235294117 703.763397371082 3898.6176470588234 705.3811931243681 3877.676470588235 705.7047522750253 3856.735294117647 706.675429726997 3835.7941176470586 706.9989888776543 3814.8529411764707 707.9696663296259 3793.9117647058824 708.6167846309404 3772.970588235294 708.6167846309404 3752.029411764706 708.9403437815976 3731.0882352941176 708.9403437815976 3710.1470588235293 709.2639029322548 3689.205882352941 709.2639029322548 3668.264705882353 710.2345803842265 3647.323529411765 710.2345803842265 3626.3823529411766 710.5581395348837 3605.4411764705883 713.4701718907988 3584.5 713.4701718907988 3563.5588235294117 714.1172901921133 3542.6176470588234 715.087967644085 3521.676470588235 715.7350859453994 3500.735294117647 717.0293225480284 3479.794117647059 717.6764408493427 3458.8529411764707 718 3437.9117647058824 718.3235591506573 3416.970588235294 718.3235591506573 3396.029411764706 718.6471183013145 3375.0882352941176 718.9706774519717 3354.1470588235293 718.9706774519717 3333.205882352941 719.9413549039434 3312.264705882353 720.912032355915 3291.323529411765 722.206268958544 3270.3823529411766 723.1769464105157 3249.4411764705883 723.1769464105157 3228.5 724.4711830131446 3228.5 1038Z" fill="#fdd5a4" opacity="0.9" />
		</g>
		<g>
			<path d="M3228.5 724.4711830131446 3249.4411764705883 723.1769464105157 3270.3823529411766 723.1769464105157 3291.323529411765 722.206268958544 3312.264705882353 720.912032355915 3333.205882352941 719.9413549039434 3354.1470588235293 718.9706774519717 3375.0882352941176 718.9706774519717 3396.029411764706 718.6471183013145 3416.970588235294 718.3235591506573 3437.9117647058824 718.3235591506573 3458.8529411764707 718 3479.794117647059 717.6764408493427 3500.735294117647 717.0293225480284 3521.676470588235 715.7350859453994 3542.6176470588234 715.087967644085 3563.5588235294117 714.1172901921133 3584.5 713.4701718907988 3605.4411764705883 713.4701718907988 3626.3823529411766 710.5581395348837 3647.323529411765 710.2345803842265 3668.264705882353 710.2345803842265 3689.205882352941 709.2639029322548 3710.1470588235293 709.2639029322548 3731.0882352941176 708.9403437815976 3752.029411764706 708.9403437815976 3772.970588235294 708.6167846309404 3793.9117647058824 708.6167846309404 3814.8529411764707 707.9696663296259 3835.7941176470586 706.9989888776543 3856.735294117647 706.675429726997 3877.676470588235 705.7047522750253 3898.6176470588234 705.3811931243681 3919.5588235294117 703.763397371082 3940.5 703.763397371082 3961.4411764705883 703.4398382204247 3982.3823529411766 703.4398382204247 4003.323529411765 703.1162790697674 4024.264705882353 702.7927199191103 4045.2058823529414 702.1456016177958 4066.1470588235293 701.4984833164813 4087.0882352941176 701.4984833164813 4108.029411764706 700.8513650151668 4128.970588235294 700.8513650151668 4149.911764705882 700.8513650151668 4170.85294117647 700.8513650151668 4191.794117647059 700.5278058645097 4212.735294117647 699.8806875631951 4233.676470588235 699.2335692618807 4254.617647058823 698.5864509605663 4275.558823529412 697.9393326592517 4296.5 697.9393326592517 4296.5 552.6612740141557 4275.558823529412 552.6612740141557 4254.617647058823 554.2790697674419 4233.676470588235 554.9261880687563 4212.735294117647 555.5733063700708 4191.794117647059 556.5439838220425 4170.85294117647 556.8675429726998 4149.911764705882 557.5146612740142 4128.970588235294 557.5146612740142 4108.029411764706 557.5146612740142 4087.0882352941176 558.8088978766431 4066.1470588235293 559.1324570273002 4045.2058823529414 559.7795753286148 4024.264705882353 561.7209302325582 4003.323529411765 562.0444893832154 3982.3823529411766 562.3680485338726 3961.4411764705883 563.3387259858443 3940.5 564.3094034378161 3919.5588235294117 564.3094034378161 3898.6176470588234 565.9271991911022 3877.676470588235 566.8978766430738 3856.735294117647 567.8685540950455 3835.7941176470586 568.1921132457028 3814.8529411764707 569.8099089989888 3793.9117647058824 570.4570273003034 3772.970588235294 570.4570273003034 3752.029411764706 570.7805864509605 3731.0882352941176 570.7805864509605 3710.1470588235293 572.3983822042468 3689.205882352941 574.0161779575329 3668.264705882353 575.3104145601618 3647.323529411765 575.3104145601618 3626.3823529411766 575.633973710819 3605.4411764705883 578.5460060667341 3584.5 578.5460060667341 3563.5588235294117 579.5166835187058 3542.6176470588234 581.4580384226492 3521.676470588235 582.1051567239637 3500.735294117647 583.3993933265926 3479.794117647059 584.6936299292214 3458.8529411764707 585.6643073811931 3437.9117647058824 585.9878665318504 3416.970588235294 585.9878665318504 3396.029411764706 586.6349848331649 3375.0882352941176 587.2821031344793 3354.1470588235293 587.2821031344793 3333.205882352941 588.5763397371082 3312.264705882353 590.8412537917088 3291.323529411765 592.1354903943377 3270.3823529411766 593.1061678463095 3249.4411764705883 594.4004044489384 3228.5 595.6946410515673 3228.5 724.4711830131446Z" fill="#e62d39" opacity="0.9" />
		</g>
		<g>
			<path d="M3228.5 595.6946410515673 3249.4411764705883 594.4004044489384 3270.3823529411766 593.1061678463095 3291.323529411765 592.1354903943377 3312.264705882353 590.8412537917088 3333.205882352941 588.5763397371082 3354.1470588235293 587.2821031344793 3375.0882352941176 587.2821031344793 3396.029411764706 586.6349848331649 3416.970588235294 585.9878665318504 3437.9117647058824 585.9878665318504 3458.8529411764707 585.6643073811931 3479.794117647059 584.6936299292214 3500.735294117647 583.3993933265926 3521.676470588235 582.1051567239637 3542.6176470588234 581.4580384226492 3563.5588235294117 579.5166835187058 3584.5 578.5460060667341 3605.4411764705883 578.5460060667341 3626.3823529411766 575.633973710819 3647.323529411765 575.3104145601618 3668.264705882353 575.3104145601618 3689.205882352941 574.0161779575329 3710.1470588235293 572.3983822042468 3731.0882352941176 570.7805864509605 3752.029411764706 570.7805864509605 3772.970588235294 570.4570273003034 3793.9117647058824 570.4570273003034 3814.8529411764707 569.8099089989888 3835.7941176470586 568.1921132457028 3856.735294117647 567.8685540950455 3877.676470588235 566.8978766430738 3898.6176470588234 565.9271991911022 3919.5588235294117 564.3094034378161 3940.5 564.3094034378161 3961.4411764705883 563.3387259858443 3982.3823529411766 562.3680485338726 4003.323529411765 562.0444893832154 4024.264705882353 561.7209302325582 4045.2058823529414 559.7795753286148 4066.1470588235293 559.1324570273002 4087.0882352941176 558.8088978766431 4108.029411764706 557.5146612740142 4128.970588235294 557.5146612740142 4149.911764705882 557.5146612740142 4170.85294117647 556.8675429726998 4191.794117647059 556.5439838220425 4212.735294117647 555.5733063700708 4233.676470588235 554.9261880687563 4254.617647058823 554.2790697674419 4275.558823529412 552.6612740141557 4296.5 552.6612740141557 4296.5 491.8321536905965 4275.558823529412 491.8321536905965 4254.617647058823 493.44994944388276 4233.676470588235 494.0970677451972 4212.735294117647 494.74418604651163 4191.794117647059 495.71486349848334 4170.85294117647 496.0384226491406 4149.911764705882 496.68554095045505 4128.970588235294 496.68554095045505 4108.029411764706 496.68554095045505 4087.0882352941176 497.9797775530839 4066.1470588235293 498.3033367037411 4045.2058823529414 498.95045500505563 4024.264705882353 501.21536905965627 4003.323529411765 501.53892821031343 3982.3823529411766 501.8624873609707 3961.4411764705883 502.8331648129424 3940.5 503.8038422649141 3919.5588235294117 503.8038422649141 3898.6176470588234 505.42163801820027 3877.676470588235 506.39231547017187 3856.735294117647 507.3629929221436 3835.7941176470586 507.68655207280085 3814.8529411764707 509.3043478260869 3793.9117647058824 509.95146612740143 3772.970588235294 509.95146612740143 3752.029411764706 510.2750252780586 3731.0882352941176 510.2750252780586 3710.1470588235293 511.89282103134485 3689.205882352941 513.510616784631 3668.264705882353 514.8048533872599 3647.323529411765 514.8048533872599 3626.3823529411766 515.128412537917 3605.4411764705883 518.0404448938322 3584.5 518.0404448938322 3563.5588235294117 519.0111223458039 3542.6176470588234 520.9524772497473 3521.676470588235 521.5995955510617 3500.735294117647 523.5409504550051 3479.794117647059 524.8351870576339 3458.8529411764707 525.8058645096056 3437.9117647058824 526.4529828109202 3416.970588235294 526.4529828109202 3396.029411764706 527.1001011122347 3375.0882352941176 527.747219413549 3354.1470588235293 527.747219413549 3333.205882352941 529.041456016178 3312.264705882353 531.3063700707786 3291.323529411765 532.6006066734075 3270.3823529411766 533.5712841253793 3249.4411764705883 534.8655207280082 3228.5 536.159757330637 3228.5 595.6946410515673Z" fill="#005aa6" opacity="0.9" />
		</g>
		<g>
			<path d="M3228.5 536.159757330637 3249.4411764705883 534.8655207280082 3270.3823529411766 533.5712841253793 3291.323529411765 532.6006066734075 3312.264705882353 531.3063700707786 3333.205882352941 529.041456016178 3354.1470588235293 527.747219413549 3375.0882352941176 527.747219413549 3396.029411764706 527.1001011122347 3416.970588235294 526.4529828109202 3437.9117647058824 526.4529828109202 3458.8529411764707 525.8058645096056 3479.794117647059 524.8351870576339 3500.735294117647 523.5409504550051 3521.676470588235 521.5995955510617 3542.6176470588234 520.9524772497473 3563.5588235294117 519.0111223458039 3584.5 518.0404448938322 3605.4411764705883 518.0404448938322 3626.3823529411766 515.128412537917 3647.323529411765 514.8048533872599 3668.264705882353 514.8048533872599 3689.205882352941 513.510616784631 3710.1470588235293 511.89282103134485 3731.0882352941176 510.2750252780586 3752.029411764706 510.2750252780586 3772.970588235294 509.95146612740143 3793.9117647058824 509.95146612740143 3814.8529411764707 509.3043478260869 3835.7941176470586 507.68655207280085 3856.735294117647 507.3629929221436 3877.676470588235 506.39231547017187 3898.6176470588234 505.42163801820027 3919.5588235294117 503.8038422649141 3940.5 503.8038422649141 3961.4411764705883 502.8331648129424 3982.3823529411766 501.8624873609707 4003.323529411765 501.53892821031343 4024.264705882353 501.21536905965627 4045.2058823529414 498.95045500505563 4066.1470588235293 498.3033367037411 4087.0882352941176 497.9797775530839 4108.029411764706 496.68554095045505 4128.970588235294 496.68554095045505 4149.911764705882 496.68554095045505 4170.85294117647 496.0384226491406 4191.794117647059 495.71486349848334 4212.735294117647 494.74418604651163 4233.676470588235 494.0970677451972 4254.617647058823 493.44994944388276 4275.558823529412 491.8321536905965 4296.5 491.8321536905965 4296.5 439.0920121334681 4275.558823529412 439.73913043478257 4254.617647058823 441.68048533872604 4233.676470588235 442.9747219413549 4212.735294117647 443.62184024266935 4191.794117647059 444.59251769464106 4170.85294117647 444.91607684529833 4149.911764705882 445.56319514661277 4128.970588235294 445.56319514661277 4108.029411764706 445.56319514661277 4087.0882352941176 447.82810920121335 4066.1470588235293 448.1516683518705 4045.2058823529414 448.79878665318506 4024.264705882353 451.3872598584429 4003.323529411765 451.38725985844286 3982.3823529411766 451.71081900910013 3961.4411764705883 453.00505561172906 3940.5 454.299292214358 3919.5588235294117 454.6228513650152 3898.6176470588234 456.5642062689586 3877.676470588235 457.5348837209302 3856.735294117647 458.50556117290193 3835.7941176470586 459.1526794742164 3814.8529411764707 460.77047522750246 3793.9117647058824 461.417593528817 3772.970588235294 461.417593528817 3752.029411764706 461.74115267947417 3731.0882352941176 461.41759352881695 3710.1470588235293 464.00606673407486 3689.205882352941 466.2709807886755 3668.264705882353 467.5652173913044 3647.323529411765 467.5652173913044 3626.3823529411766 467.5652173913043 3605.4411764705883 470.47724974721945 3584.5 470.47724974721945 3563.5588235294117 471.7714863498484 3542.6176470588234 474.036400404449 3521.676470588235 474.68351870576345 3500.735294117647 476.62487360970687 3479.794117647059 477.9191102123356 3458.8529411764707 479.53690596562177 3437.9117647058824 480.1840242669363 3416.970588235294 480.1840242669363 3396.029411764706 480.83114256825087 3375.0882352941176 481.4782608695652 3354.1470588235293 481.4782608695652 3333.205882352941 483.09605662285145 3312.264705882353 486.00808897876647 3291.323529411765 487.30232558139534 3270.3823529411766 488.27300303336716 3249.4411764705883 489.56723963599603 3228.5 491.1850353892821 3228.5 536.159757330637Z" fill="#f6a118" opacity="0.9" />
		</g>
		<g>
			<path d="M3228.5 491.1850353892821 3249.4411764705883 489.56723963599603 3270.3823529411766 488.27300303336716 3291.323529411765 487.30232558139534 3312.264705882353 486.00808897876647 3333.205882352941 483.09605662285145 3354.1470588235293 481.4782608695652 3375.0882352941176 481.4782608695652 3396.029411764706 480.83114256825087 3416.970588235294 480.1840242669363 3437.9117647058824 480.1840242669363 3458.8529411764707 479.53690596562177 3479.794117647059 477.9191102123356 3500.735294117647 476.62487360970687 3521.676470588235 474.68351870576345 3542.6176470588234 474.036400404449 3563.5588235294117 471.7714863498484 3584.5 470.47724974721945 3605.4411764705883 470.47724974721945 3626.3823529411766 467.5652173913043 3647.323529411765 467.5652173913044 3668.264705882353 467.5652173913044 3689.205882352941 466.2709807886755 3710.1470588235293 464.00606673407486 3731.0882352941176 461.41759352881695 3752.029411764706 461.74115267947417 3772.970588235294 461.417593528817 3793.9117647058824 461.417593528817 3814.8529411764707 460.77047522750246 3835.7941176470586 459.1526794742164 3856.735294117647 458.50556117290193 3877.676470588235 457.5348837209302 3898.6176470588234 456.5642062689586 3919.5588235294117 454.6228513650152 3940.5 454.299292214358 3961.4411764705883 453.00505561172906 3982.3823529411766 451.71081900910013 4003.323529411765 451.38725985844286 4024.264705882353 451.3872598584429 4045.2058823529414 448.79878665318506 4066.1470588235293 448.1516683518705 4087.0882352941176 447.82810920121335 4108.029411764706 445.56319514661277 4128.970588235294 445.56319514661277 4149.911764705882 445.56319514661277 4170.85294117647 444.91607684529833 4191.794117647059 444.59251769464106 4212.735294117647 443.62184024266935 4233.676470588235 442.9747219413549 4254.617647058823 441.68048533872604 4275.558823529412 439.73913043478257 4296.5 439.0920121334681 4296.5 411.9130434782608 4275.558823529412 412.5601617795753 4254.617647058823 414.5015166835188 4233.676470588235 415.79575328614766 4212.735294117647 416.4428715874621 4191.794117647059 417.4135490394338 4170.85294117647 417.7371081900911 4149.911764705882 418.3842264914055 4128.970588235294 418.3842264914055 4108.029411764706 418.3842264914055 4087.0882352941176 420.6491405460061 4066.1470588235293 420.97269969666326 4045.2058823529414 421.6198179979778 4024.264705882353 424.20829120323566 4003.323529411765 424.2082912032356 3982.3823529411766 424.5318503538929 3961.4411764705883 425.8260869565218 3940.5 427.12032355915073 3919.5588235294117 427.76744186046517 3898.6176470588234 429.7087967644086 3877.676470588235 430.6794742163802 3856.735294117647 431.6501516683519 3835.7941176470586 432.2972699696664 3814.8529411764707 433.9150657229524 3793.9117647058824 434.56218402426697 3772.970588235294 434.56218402426697 3752.029411764706 434.88574317492413 3731.0882352941176 434.5621840242669 3710.1470588235293 437.1506572295248 3689.205882352941 439.41557128412546 3668.264705882353 440.70980788675433 3647.323529411765 440.70980788675433 3626.3823529411766 440.7098078867543 3605.4411764705883 443.6218402426694 3584.5 443.6218402426694 3563.5588235294117 444.91607684529833 3542.6176470588234 447.180990899899 3521.676470588235 447.8281092012134 3500.735294117647 449.7694641051568 3479.794117647059 451.0637007077856 3458.8529411764707 452.68149646107173 3437.9117647058824 453.3286147623863 3416.970588235294 453.6521739130435 3396.029411764706 454.29929221435805 3375.0882352941176 454.94641051567237 3354.1470588235293 454.94641051567237 3333.205882352941 456.5642062689586 3312.264705882353 459.47623862487364 3291.323529411765 460.7704752275025 3270.3823529411766 461.74115267947434 3249.4411764705883 463.0353892821032 3228.5 464.6531850353893 3228.5 491.1850353892821Z" fill="#f48c7d" opacity="0.9" />
		</g>
		<g>
			<path d="M3228.5 464.6531850353893 3249.4411764705883 463.0353892821032 3270.3823529411766 461.74115267947434 3291.323529411765 460.7704752275025 3312.264705882353 459.47623862487364 3333.205882352941 456.5642062689586 3354.1470588235293 454.94641051567237 3375.0882352941176 454.94641051567237 3396.029411764706 454.29929221435805 3416.970588235294 453.6521739130435 3437.9117647058824 453.3286147623863 3458.8529411764707 452.68149646107173 3479.794117647059 451.0637007077856 3500.735294117647 449.7694641051568 3521.676470588235 447.8281092012134 3542.6176470588234 447.180990899899 3563.5588235294117 444.91607684529833 3584.5 443.6218402426694 3605.4411764705883 443.6218402426694 3626.3823529411766 440.7098078867543 3647.323529411765 440.70980788675433 3668.264705882353 440.70980788675433 3689.205882352941 439.41557128412546 3710.1470588235293 437.1506572295248 3731.0882352941176 434.5621840242669 3752.029411764706 434.88574317492413 3772.970588235294 434.56218402426697 3793.9117647058824 434.56218402426697 3814.8529411764707 433.9150657229524 3835.7941176470586 432.2972699696664 3856.735294117647 431.6501516683519 3877.676470588235 430.6794742163802 3898.6176470588234 429.7087967644086 3919.5588235294117 427.76744186046517 3940.5 427.12032355915073 3961.4411764705883 425.8260869565218 3982.3823529411766 424.5318503538929 4003.323529411765 424.2082912032356 4024.264705882353 424.20829120323566 4045.2058823529414 421.6198179979778 4066.1470588235293 420.97269969666326 4087.0882352941176 420.6491405460061 4108.029411764706 418.3842264914055 4128.970588235294 418.3842264914055 4149.911764705882 418.3842264914055 4170.85294117647 417.7371081900911 4191.794117647059 417.4135490394338 4212.735294117647 416.4428715874621 4233.676470588235 415.79575328614766 4254.617647058823 414.5015166835188 4275.558823529412 412.5601617795753 4296.5 411.9130434782608 4296.5 397.99999999999994 4275.558823529412 398.64711830131444 4254.617647058823 400.5884732052579 4233.676470588235 401.8827098078868 4212.735294117647 402.5298281092012 4191.794117647059 403.50050556117293 4170.85294117647 403.8240647118302 4149.911764705882 404.47118301314464 4128.970588235294 404.47118301314464 4108.029411764706 404.47118301314464 4087.0882352941176 406.7360970677452 4066.1470588235293 407.0596562184024 4045.2058823529414 407.70677451971693 4024.264705882353 410.2952477249748 4003.323529411765 410.29524772497473 3982.3823529411766 410.618806875632 3961.4411764705883 409.97168857431757 3940.5 411.2659251769465 3919.5588235294117 411.91304347826093 3898.6176470588234 413.85439838220435 3877.676470588235 414.82507583417595 3856.735294117647 415.79575328614766 3835.7941176470586 416.44287158746215 3814.8529411764707 418.0606673407482 3793.9117647058824 418.70778564206273 3772.970588235294 418.70778564206273 3752.029411764706 419.0313447927199 3731.0882352941176 418.7077856420627 3710.1470588235293 421.2962588473206 3689.205882352941 423.5611729019212 3668.264705882353 424.8554095045501 3647.323529411765 424.8554095045501 3626.3823529411766 425.5025278058645 3605.4411764705883 428.4145601617796 3584.5 428.4145601617796 3563.5588235294117 429.70879676440853 3542.6176470588234 431.97371081900917 3521.676470588235 432.2972699696664 3500.735294117647 434.88574317492424 3479.794117647059 436.179979777553 3458.8529411764707 437.79777553083915 3437.9117647058824 438.4448938321537 3416.970588235294 438.7684529828109 3396.029411764706 439.41557128412546 3375.0882352941176 440.0626895854398 3354.1470588235293 440.0626895854398 3333.205882352941 441.68048533872604 3312.264705882353 444.59251769464106 3291.323529411765 445.88675429726993 3270.3823529411766 446.85743174924175 3249.4411764705883 448.1516683518706 3228.5 449.7694641051567 3228.5 464.6531850353893Z" fill="#55c0e9" opacity="0.9" />
		</g>
		<g>
			<rect x="4372" y="431" width="22.9995" height="23" fill="#fdd5a4" />
		</g>
		<g>
			<text fill="#595959" font-family="Verdana,sans-serif" font-weight="400" font-size="41" transform="matrix(1 0 0 1 4404.56 454)">Other</text>
		</g>
		<g>
			<rect x="4372" y="508" width="22.9995" height="23" fill="#e62d39" />
		</g>
		<g>
			<text fill="#595959" font-family="Verdana,sans-serif" font-weight="400" font-size="41" transform="matrix(1 0 0 1 4404.56 531)">iOS</text>
		</g>
		<g>
			<rect x="4372" y="585" width="22.9995" height="23" fill="#005aa6" />
		</g>
		<g>
			<text fill="#595959" font-family="Verdana,sans-serif" font-weight="400" font-size="41" transform="matrix(1 0 0 1 4404.56 608)">Android</text>
		</g>
		<g>
			<rect x="4372" y="662" width="22.9995" height="23" fill="#f6a118" />
		</g>
		<g>
			<text fill="#595959" font-family="Verdana,sans-serif" font-weight="400" font-size="41" transform="matrix(1 0 0 1 4404.56 685)">macOS</text>
		</g>
		<g>
			<rect x="4372" y="739" width="22.9995" height="23" fill="#f48c7d" />
		</g>
		<g>
			<text fill="#595959" font-family="Verdana,sans-serif" font-weight="400" font-size="41" transform="matrix(1 0 0 1 4404.56 762)">Linux</text>
		</g>
		<g>
			<rect x="4372" y="816" width="22.9995" height="23" fill="#55c0e9" />
		</g>
		<g>
			<text fill="#595959" font-family="Verdana,sans-serif" font-weight="400" font-size="41" transform="matrix(1 0 0 1 4404.56 839)">Windows</text>
		</g>
	</g>
</svg>
