<svg width="1763" height="1046"
    xmlns="http://www.w3.org/2000/svg"
	xmlns:xlink="http://www.w3.org/1999/xlink" xml:space="preserve" overflow="hidden">
	<defs>
		<clipPath id="clip0">
			<rect x="2917" y="346" width="1763" height="1046"/>
		</clipPath>
	</defs>
	<g clip-path="url(#clip0)" transform="translate(-2917 -346)">
		<rect x="2918" y="347" width="1760" height="1043" fill="#FFFFFF" />
		<g>
			<path d="
			M3228.5 974.532 4296.5 974.532
			M3228.5 910.53 4296.5 910.53
			M3228.5 846.528 4296.5 846.528
			M3228.5 781.526 4296.5 781.526
			M3228.5 717.524 4296.5 717.524
			M3228.5 653.522 4296.5 653.522
			M3228.5 589.52 4296.5 589.52
			M3228.5 525.517 4296.5 525.517
			M3228.5 461.515 4296.5 461.515
			M3228.5 397.5 4296.5 397.5" stroke="#D9D9D9" stroke-width="3.4375" stroke-linejoin="round" stroke-miterlimit="10" fill="none" />
		</g>
		<g>
			<path d="M 1038.5 4296.5 1038.5" stroke="#D9D9D9" stroke-width="3.4375" stroke-linejoin="round" stroke-miterlimit="10" fill="none" fill-rule="evenodd" />
		</g>
		<g>
			<text fill="#595959" font-family="Verdana,Open Sans,DejaVu Sans,sans-serif" font-weight="400" font-size="41" transform="matrix(6.12323e-17 -1 1 6.12323e-17 3243.564697265625 1210.2890625)">10-Mar</text>
		</g>
		<g>
			<text fill="#595959" font-family="Verdana,Open Sans,DejaVu Sans,sans-serif" font-weight="400" font-size="41" transform="matrix(6.12323e-17 -1 1 6.12323e-17 3333.729306640625 1203.2621994018555)">07-Apr</text>
		</g>
		<g>
			<text fill="#595959" font-family="Verdana,Open Sans,DejaVu Sans,sans-serif" font-weight="400" font-size="41" transform="matrix(6.12323e-17 -1 1 6.12323e-17 3419.169306640625 1216.47509765625)">05-May</text>
		</g>
		<g>
			<text fill="#595959" font-family="Verdana,Open Sans,DejaVu Sans,sans-serif" font-weight="400" font-size="41" transform="matrix(6.12323e-17 -1 1 6.12323e-17 3503.53826171875 1194.0131759643555)">09-Jun</text>
		</g>
		<g>
			<text fill="#595959" font-family="Verdana,Open Sans,DejaVu Sans,sans-serif" font-weight="400" font-size="41" transform="matrix(6.12323e-17 -1 1 6.12323e-17 3589.688955078125 1178.9985275268555)">07-Jul</text>
		</g>
		<g>
			<text fill="#595959" font-family="Verdana,Open Sans,DejaVu Sans,sans-serif" font-weight="400" font-size="41" transform="matrix(6.12323e-17 -1 1 6.12323e-17 3675.489306640625 1208.62744140625)">04-Aug</text>
		</g>
		<g>
			<text fill="#595959" font-family="Verdana,Open Sans,DejaVu Sans,sans-serif" font-weight="400" font-size="41" transform="matrix(6.12323e-17 -1 1 6.12323e-17 3760.929306640625 1204.38330078125)">01-Sep</text>
		</g>
		<g>
			<text fill="#595959" font-family="Verdana,Open Sans,DejaVu Sans,sans-serif" font-weight="400" font-size="41" transform="matrix(6.12323e-17 -1 1 6.12323e-17 3846.349287109375 1204.42333984375)">29-Sep</text>
		</g>
		<g>
			<text fill="#595959" font-family="Verdana,Open Sans,DejaVu Sans,sans-serif" font-weight="400" font-size="41" transform="matrix(6.12323e-17 -1 1 6.12323e-17 3927.084697265625 1201.1401290893555)">27-Oct</text>
		</g>
		<g>
			<text fill="#595959" font-family="Verdana,Open Sans,DejaVu Sans,sans-serif" font-weight="400" font-size="41" transform="matrix(6.12323e-17 -1 1 6.12323e-17 4012.504677734375 1211.47021484375)">24-Nov</text>
		</g>
		<g>
			<text fill="#595959" font-family="Verdana,Open Sans,DejaVu Sans,sans-serif" font-weight="400" font-size="41" transform="matrix(6.12323e-17 -1 1 6.12323e-17 4097.944677734375 1207.1259765625)">22-Dec</text>
		</g>
		<g>
			<text fill="#595959" font-family="Verdana,Open Sans,DejaVu Sans,sans-serif" font-weight="400" font-size="41" transform="matrix(6.12323e-17 -1 1 6.12323e-17 4187.0382421875 1189.9291915893555)">19-Jan</text>
		</g>
		<g>
			<text fill="#595959" font-family="Verdana,Open Sans,DejaVu Sans,sans-serif" font-weight="400" font-size="41" transform="matrix(6.12323e-17 -1 1 6.12323e-17 4269.555390625 1201.3203125)">16-Feb</text>
		</g>
		<g>
			<text fill="#595959" font-family="Verdana,Open Sans,DejaVu Sans,sans-serif" font-weight="400" font-size="41" transform="matrix(1 0 0 1 3169.14111328125 1050)">0</text>
		</g>
		<g>
			<text fill="#595959" font-family="Verdana,Open Sans,DejaVu Sans,sans-serif" font-weight="400" font-size="41" transform="matrix(1 0 0 1 3121.39453125 922)">435</text>
		</g>
		<g>
			<text fill="#595959" font-family="Verdana,Open Sans,DejaVu Sans,sans-serif" font-weight="400" font-size="41" transform="matrix(1 0 0 1 3122.29541015625 794)">870</text>
		</g>
		<g>
			<text fill="#595959" font-family="Verdana,Open Sans,DejaVu Sans,sans-serif" font-weight="400" font-size="41" transform="matrix(1 0 0 1 3089.26318359375 666)">1,304</text>
		</g>
		<g>
			<text fill="#595959" font-family="Verdana,Open Sans,DejaVu Sans,sans-serif" font-weight="400" font-size="41" transform="matrix(1 0 0 1 3090.64453125 538)">1,739</text>
		</g>
		<g>
			<text fill="#595959" font-family="Verdana,Open Sans,DejaVu Sans,sans-serif" font-weight="400" font-size="41" transform="matrix(1 0 0 1 3087.50146484375 410)">2,174</text>
		</g>
		<g>
			<text fill="#595959" font-family="Verdana,Open Sans,DejaVu Sans,sans-serif" font-weight="400" font-size="41" transform="matrix(1 0 0 1 3556.97119140625 1321)">Week Commencing</text>
		</g>
		<g>
			<text fill="#595959" font-family="Verdana,Open Sans,DejaVu Sans,sans-serif" font-weight="400" font-size="46" transform="matrix(6.12323e-17 -1 1 6.12323e-17 3019.73 953.7919921875)">Number of OS Profiles</text>
		</g>
		<rect x="2918.5" y="347.5" width="1760" height="1043" stroke="#D9D9D9" stroke-width="3.4375" stroke-linejoin="round" stroke-miterlimit="10" fill="none" />
		<g>
			<path d="M3228.5 1038 3249.86 1038 3271.22 1038 3292.58 1038 3313.94 1038 3335.3 1038 3356.66 1038 3378.02 1038 3399.38 1038 3420.74 1038 3442.1 1038 3463.46 1038 3484.82 1038 3506.18 1038 3527.54 1038 3548.9 1038 3570.26 1038 3591.62 1038 3612.98 1038 3634.34 1038 3655.7 1038 3677.06 1038 3698.42 1038 3719.7799999999997 1038 3741.14 1038 3762.5 1038 3783.86 1038 3805.2200000000003 1038 3826.58 1038 3847.94 1038 3869.3 1038 3890.66 1038 3912.02 1038 3933.38 1038 3954.74 1038 3976.1 1038 3997.46 1038 4018.8199999999997 1038 4040.18 1038 4061.54 1038 4082.9 1038 4104.26 1038 4125.62 1038 4146.98 1038 4168.34 1038 4189.7 1038 4211.0599999999995 1038 4232.42 1038 4253.78 1038 4275.139999999999 1038 4296.5 1038 4296.5 705.0469181232751 4275.139999999999 705.3413063477461 4253.78 706.2244710211592 4232.42 706.8132474701013 4211.0599999999995 707.6964121435143 4189.7 708.5795768169273 4168.34 708.8739650413984 4146.98 709.1683532658694 4125.62 709.1683532658694 4104.26 709.7571297148114 4082.9 710.0515179392825 4061.54 710.6402943882244 4040.18 710.6402943882244 4018.8199999999997 710.9346826126955 3997.46 711.2290708371665 3976.1 711.5234590616376 3954.74 712.4066237350506 3933.38 713.2897884084637 3912.02 713.5841766329347 3890.66 713.8785648574058 3869.3 713.8785648574058 3847.94 714.4673413063477 3826.58 715.9392824287029 3805.2200000000003 716.8224471021159 3783.86 717.116835326587 3762.5 717.116835326587 3741.14 717.4112235510579 3719.7799999999997 717.4112235510579 3698.42 717.4112235510579 3677.06 717.705611775529 3655.7 718.5887764489421 3634.34 718.5887764489421 3612.98 718.8831646734131 3591.62 719.1775528978841 3570.26 719.7663293468261 3548.9 720.0607175712971 3527.54 720.0607175712971 3506.18 720.6494940202392 3484.82 722.1214351425942 3463.46 724.1821527138915 3442.1 724.1821527138915 3420.74 724.1821527138915 3399.38 724.4765409383624 3378.02 724.1821527138915 3356.66 724.4765409383624 3335.3 724.7709291628335 3313.94 724.7709291628335 3292.58 725.6540938362466 3271.22 726.2428702851886 3249.86 726.8316467341306 3228.5 726.8316467341306 3228.5 1038Z" fill="#f48c7d" opacity="0.9" />
		</g>
		<g>
			<path d="M3228.5 726.8316467341306 3249.86 726.8316467341306 3271.22 726.2428702851886 3292.58 725.6540938362466 3313.94 724.7709291628335 3335.3 724.7709291628335 3356.66 724.4765409383624 3378.02 724.1821527138915 3399.38 724.4765409383624 3420.74 724.1821527138915 3442.1 724.1821527138915 3463.46 724.1821527138915 3484.82 722.1214351425942 3506.18 720.6494940202392 3527.54 720.0607175712971 3548.9 720.0607175712971 3570.26 719.7663293468261 3591.62 719.1775528978841 3612.98 718.8831646734131 3634.34 718.5887764489421 3655.7 718.5887764489421 3677.06 717.705611775529 3698.42 717.4112235510579 3719.7799999999997 717.4112235510579 3741.14 717.4112235510579 3762.5 717.116835326587 3783.86 717.116835326587 3805.2200000000003 716.8224471021159 3826.58 715.9392824287029 3847.94 714.4673413063477 3869.3 713.8785648574058 3890.66 713.8785648574058 3912.02 713.5841766329347 3933.38 713.2897884084637 3954.74 712.4066237350506 3976.1 711.5234590616376 3997.46 711.2290708371665 4018.8199999999997 710.9346826126955 4040.18 710.6402943882244 4061.54 710.6402943882244 4082.9 710.0515179392825 4104.26 709.7571297148114 4125.62 709.1683532658694 4146.98 709.1683532658694 4168.34 708.8739650413984 4189.7 708.5795768169273 4211.0599999999995 707.6964121435143 4232.42 706.8132474701013 4253.78 706.2244710211592 4275.139999999999 705.3413063477461 4296.5 705.0469181232751 4296.5 550.198712051518 4275.139999999999 550.493100275989 4253.78 551.965041398344 4232.42 552.5538178472862 4211.0599999999995 554.6145354185833 4189.7 559.0303587856486 4168.34 559.3247470101196 4146.98 559.9135234590617 4125.62 559.9135234590617 4104.26 560.5022999080037 4082.9 560.7966881324747 4061.54 562.8574057037719 4040.18 561.9742410303588 4018.8199999999997 562.8574057037719 3997.46 563.1517939282429 3976.1 563.446182152714 3954.74 564.329346826127 3933.38 566.3900643974241 3912.02 567.2732290708373 3890.66 567.5676172953083 3869.3 567.5676172953083 3847.94 568.1563937442502 3826.58 572.5722171113156 3805.2200000000003 573.7497700091997 3783.86 574.0441582336707 3762.5 575.8104875804968 3741.14 576.3992640294388 3719.7799999999997 576.3992640294388 3698.42 577.2824287028518 3677.06 577.8712051517939 3655.7 579.0487580496781 3634.34 579.0487580496781 3612.98 579.6375344986202 3591.62 579.931922723091 3570.26 580.5206991720331 3548.9 580.8150873965042 3527.54 580.8150873965042 3506.18 581.9926402943883 3484.82 584.3477460901563 3463.46 586.7028518859246 3442.1 587.2916283348666 3420.74 586.4084636614535 3399.38 588.4691812327507 3378.02 588.1747930082797 3356.66 588.4691812327507 3335.3 589.3523459061637 3313.94 589.3523459061637 3292.58 592.001839926403 3271.22 592.885004599816 3249.86 593.4737810487579 3228.5 594.0625574977 3228.5 726.8316467341306Z" fill="#005aa6" opacity="0.9" />
		</g>
		<g>
			<path d="M3228.5 594.0625574977 3249.86 593.4737810487579 3271.22 592.885004599816 3292.58 592.001839926403 3313.94 589.3523459061637 3335.3 589.3523459061637 3356.66 588.4691812327507 3378.02 588.1747930082797 3399.38 588.4691812327507 3420.74 586.4084636614535 3442.1 587.2916283348666 3463.46 586.7028518859246 3484.82 584.3477460901563 3506.18 581.9926402943883 3527.54 580.8150873965042 3548.9 580.8150873965042 3570.26 580.5206991720331 3591.62 579.931922723091 3612.98 579.6375344986202 3634.34 579.0487580496781 3655.7 579.0487580496781 3677.06 577.8712051517939 3698.42 577.2824287028518 3719.7799999999997 576.3992640294388 3741.14 576.3992640294388 3762.5 575.8104875804968 3783.86 574.0441582336707 3805.2200000000003 573.7497700091997 3826.58 572.5722171113156 3847.94 568.1563937442502 3869.3 567.5676172953083 3890.66 567.5676172953083 3912.02 567.2732290708373 3933.38 566.3900643974241 3954.74 564.329346826127 3976.1 563.446182152714 3997.46 563.1517939282429 4018.8199999999997 562.8574057037719 4040.18 561.9742410303588 4061.54 562.8574057037719 4082.9 560.7966881324747 4104.26 560.5022999080037 4125.62 559.9135234590617 4146.98 559.9135234590617 4168.34 559.3247470101196 4189.7 559.0303587856486 4211.0599999999995 554.6145354185833 4232.42 552.5538178472862 4253.78 551.965041398344 4275.139999999999 550.493100275989 4296.5 550.198712051518 4296.5 492.4986200551978 4275.139999999999 492.79300827966887 4253.78 494.55933762649494 4232.42 496.0312787488501 4211.0599999999995 498.38638454461824 4189.7 502.8022079116835 4168.34 503.0965961361546 4146.98 503.6853725850967 4125.62 503.6853725850967 4104.26 504.27414903403866 4082.9 504.5685372585097 4061.54 506.9236430542778 4040.18 506.0404783808648 4018.8199999999997 506.9236430542778 3997.46 507.21803127874887 3976.1 507.5124195032199 3954.74 508.98436062557505 3933.38 511.9282428702852 3912.02 512.8114075436984 3890.66 513.1057957681694 3869.3 513.1057957681694 3847.94 513.9889604415823 3826.58 519.2879484820608 3805.2200000000003 520.7598896044159 3783.86 521.0542778288869 3762.5 522.820607175713 3741.14 523.409383624655 3719.7799999999997 523.409383624655 3698.42 525.1757129714811 3677.06 526.0588776448942 3655.7 527.5308187672495 3634.34 528.1195952161914 3612.98 528.7083716651335 3591.62 529.0027598896044 3570.26 529.5915363385465 3548.9 529.8859245630175 3527.54 529.8859245630175 3506.18 531.3578656853726 3484.82 534.0073597056116 3463.46 536.36246550138 3442.1 537.540018399264 3420.74 536.656853725851 3399.38 538.7175712971481 3378.02 538.4231830726771 3356.66 538.7175712971481 3335.3 539.8951241950322 3313.94 539.8951241950322 3292.58 543.4277828886845 3271.22 544.3109475620976 3249.86 544.8997240110394 3228.5 545.7828886844526 3228.5 594.0625574977Z" fill="#f6a118" opacity="0.9" />
		</g>
		<g>
			<path d="M3228.5 545.7828886844526 3249.86 544.8997240110394 3271.22 544.3109475620976 3292.58 543.4277828886845 3313.94 539.8951241950322 3335.3 539.8951241950322 3356.66 538.7175712971481 3378.02 538.4231830726771 3399.38 538.7175712971481 3420.74 536.656853725851 3442.1 537.540018399264 3463.46 536.36246550138 3484.82 534.0073597056116 3506.18 531.3578656853726 3527.54 529.8859245630175 3548.9 529.8859245630175 3570.26 529.5915363385465 3591.62 529.0027598896044 3612.98 528.7083716651335 3634.34 528.1195952161914 3655.7 527.5308187672495 3677.06 526.0588776448942 3698.42 525.1757129714811 3719.7799999999997 523.409383624655 3741.14 523.409383624655 3762.5 522.820607175713 3783.86 521.0542778288869 3805.2200000000003 520.7598896044159 3826.58 519.2879484820608 3847.94 513.9889604415823 3869.3 513.1057957681694 3890.66 513.1057957681694 3912.02 512.8114075436984 3933.38 511.9282428702852 3954.74 508.98436062557505 3976.1 507.5124195032199 3997.46 507.21803127874887 4018.8199999999997 506.9236430542778 4040.18 506.0404783808648 4061.54 506.9236430542778 4082.9 504.5685372585097 4104.26 504.27414903403866 4125.62 503.6853725850967 4146.98 503.6853725850967 4168.34 503.0965961361546 4189.7 502.8022079116835 4211.0599999999995 498.38638454461824 4232.42 496.0312787488501 4253.78 494.55933762649494 4275.139999999999 492.79300827966887 4296.5 492.4986200551978 4296.5 436.8592456301748 4275.139999999999 437.1536338546459 4253.78 439.21435142594294 4232.42 440.6862925482982 4211.0599999999995 443.04139834406624 4189.7 447.4572217111315 4168.34 447.7516099356026 4146.98 448.3403863845447 4125.62 448.3403863845447 4104.26 448.92916283348666 4082.9 449.2235510579577 4061.54 451.5786568537259 4040.18 450.69549218031284 4018.8199999999997 451.5786568537259 3997.46 451.8730450781969 3976.1 452.167433302668 3954.74 453.6393744250231 3933.38 456.58325666973326 3912.02 457.4664213431464 3890.66 457.76080956761746 3869.3 457.76080956761746 3847.94 458.6439742410304 3826.58 463.9429622815088 3805.2200000000003 465.41490340386395 3783.86 465.709291628335 3762.5 467.47562097516106 3741.14 468.06439742410305 3719.7799999999997 468.06439742410305 3698.42 469.8307267709291 3677.06 470.71389144434227 3655.7 472.1858325666975 3634.34 472.7746090156395 3612.98 473.3633854645816 3591.62 473.6577736890524 3570.26 474.2465501379945 3548.9 474.54093836246557 3527.54 474.54093836246557 3506.18 476.0128794848207 3484.82 478.6623735050597 3463.46 481.0174793008281 3442.1 482.19503219871206 3420.74 481.311867525299 3399.38 483.37258509659614 3378.02 483.0781968721252 3356.66 483.37258509659614 3335.3 484.5501379944802 3313.94 484.5501379944802 3292.58 488.0827966881326 3271.22 488.9659613615456 3249.86 489.5547378104875 3228.5 490.43790248390064 3228.5 545.7828886844526Z" fill="#e62d39" opacity="0.9" />
		</g>
		<g>
			<path d="M3228.5 490.43790248390064 3249.86 489.5547378104875 3271.22 488.9659613615456 3292.58 488.0827966881326 3313.94 484.5501379944802 3335.3 484.5501379944802 3356.66 483.37258509659614 3378.02 483.0781968721252 3399.38 483.37258509659614 3420.74 481.311867525299 3442.1 482.19503219871206 3463.46 481.0174793008281 3484.82 478.6623735050597 3506.18 476.0128794848207 3527.54 474.54093836246557 3548.9 474.54093836246557 3570.26 474.2465501379945 3591.62 473.6577736890524 3612.98 473.3633854645816 3634.34 472.7746090156395 3655.7 472.1858325666975 3677.06 470.71389144434227 3698.42 469.8307267709291 3719.7799999999997 468.06439742410305 3741.14 468.06439742410305 3762.5 467.47562097516106 3783.86 465.709291628335 3805.2200000000003 465.41490340386395 3826.58 463.9429622815088 3847.94 458.6439742410304 3869.3 457.76080956761746 3890.66 457.76080956761746 3912.02 457.4664213431464 3933.38 456.58325666973326 3954.74 453.6393744250231 3976.1 452.167433302668 3997.46 451.8730450781969 4018.8199999999997 451.5786568537259 4040.18 450.69549218031284 4061.54 451.5786568537259 4082.9 449.2235510579577 4104.26 448.92916283348666 4125.62 448.3403863845447 4146.98 448.3403863845447 4168.34 447.7516099356026 4189.7 447.4572217111315 4211.0599999999995 443.04139834406624 4232.42 440.6862925482982 4253.78 439.21435142594294 4275.139999999999 437.1536338546459 4296.5 436.8592456301748 4296.5 410.953081876725 4275.139999999999 411.24747010119603 4253.78 413.3081876724931 4232.42 414.78012879484834 4211.0599999999995 417.1352345906164 4189.7 421.5510579576817 4168.34 421.8454461821527 4146.98 422.4342226310948 4125.62 422.4342226310948 4104.26 423.0229990800368 4082.9 423.31738730450786 4061.54 425.67249310027603 4040.18 424.789328426863 4018.8199999999997 425.67249310027603 3997.46 425.9668813247471 3976.1 426.2612695492181 3954.74 427.73321067157326 3933.38 430.6770929162834 3912.02 431.56025758969656 3890.66 431.8546458141676 3869.3 432.1490340386386 3847.94 433.0321987120515 3826.58 438.33118675252996 3805.2200000000003 439.8031278748851 3783.86 440.09751609935614 3762.5 441.8638454461822 3741.14 442.4526218951242 3719.7799999999997 442.4526218951242 3698.42 444.21895124195026 3677.06 445.1021159153634 3655.7 446.57405703771866 3634.34 447.16283348666065 3612.98 447.75160993560274 3591.62 448.04599816007357 3570.26 448.63477460901566 3548.9 448.9291628334867 3527.54 448.9291628334867 3506.18 450.40110395584185 3484.82 453.05059797608084 3463.46 455.40570377184923 3442.1 456.5832566697332 3420.74 455.70009199632017 3399.38 458.05519779208834 3378.02 458.0551977920884 3356.66 458.34958601655933 3335.3 459.5271389144434 3313.94 459.5271389144434 3292.58 463.0597976080958 3271.22 463.9429622815088 3249.86 464.5317387304507 3228.5 465.41490340386383 3228.5 490.43790248390064Z" fill="#fdd5a4" opacity="0.9" />
		</g>
		<g>
			<path d="M3228.5 465.41490340386383 3249.86 464.5317387304507 3271.22 463.9429622815088 3292.58 463.0597976080958 3313.94 459.5271389144434 3335.3 459.5271389144434 3356.66 458.34958601655933 3378.02 458.0551977920884 3399.38 458.05519779208834 3420.74 455.70009199632017 3442.1 456.5832566697332 3463.46 455.40570377184923 3484.82 453.05059797608084 3506.18 450.40110395584185 3527.54 448.9291628334867 3548.9 448.9291628334867 3570.26 448.63477460901566 3591.62 448.04599816007357 3612.98 447.75160993560274 3634.34 447.16283348666065 3655.7 446.57405703771866 3677.06 445.1021159153634 3698.42 444.21895124195026 3719.7799999999997 442.4526218951242 3741.14 442.4526218951242 3762.5 441.8638454461822 3783.86 440.09751609935614 3805.2200000000003 439.8031278748851 3826.58 438.33118675252996 3847.94 433.0321987120515 3869.3 432.1490340386386 3890.66 431.8546458141676 3912.02 431.56025758969656 3933.38 430.6770929162834 3954.74 427.73321067157326 3976.1 426.2612695492181 3997.46 425.9668813247471 4018.8199999999997 425.67249310027603 4040.18 424.789328426863 4061.54 425.67249310027603 4082.9 423.31738730450786 4104.26 423.0229990800368 4125.62 422.4342226310948 4146.98 422.4342226310948 4168.34 421.8454461821527 4189.7 421.5510579576817 4211.0599999999995 417.1352345906164 4232.42 414.78012879484834 4253.78 413.3081876724931 4275.139999999999 411.24747010119603 4296.5 410.953081876725 4296.5 398.00000000000006 4275.139999999999 398.2943882244711 4253.78 400.35510579576817 4232.42 402.1214351425944 4211.0599999999995 404.47654093836246 4189.7 408.89236430542775 4168.34 409.1867525298988 4146.98 409.7755289788409 4125.62 409.7755289788409 4104.26 410.3643054277829 4082.9 410.65869365225393 4061.54 413.0137994480221 4040.18 412.13063477460906 4018.8199999999997 413.0137994480221 3997.46 413.30818767249315 3976.1 413.6025758969642 3954.74 415.07451701931933 3933.38 418.0183992640295 3912.02 418.90156393744263 3890.66 419.1959521619137 3869.3 419.4903403863847 3847.94 420.3735050597976 3826.58 425.67249310027603 3805.2200000000003 427.14443422263116 3783.86 427.4388224471022 3762.5 429.2051517939283 3741.14 429.79392824287027 3719.7799999999997 429.79392824287027 3698.42 431.56025758969633 3677.06 432.4434222631095 3655.7 433.91536338546473 3634.34 434.5041398344067 3612.98 435.0929162833488 3591.62 435.38730450781964 3570.26 435.97608095676173 3548.9 436.2704691812328 3527.54 436.2704691812328 3506.18 437.7424103035879 3484.82 440.3919043238269 3463.46 442.7470101195953 3442.1 443.9245630174793 3420.74 443.04139834406624 3399.38 445.3965041398344 3378.02 445.39650413983446 3356.66 445.6908923643054 3335.3 446.8684452621895 3313.94 446.8684452621895 3292.58 450.40110395584185 3271.22 451.2842686292549 3249.86 451.87304507819675 3228.5 452.7562097516099 3228.5 465.41490340386383Z" fill="#55c0e9" opacity="0.9" />
		</g>
		<g>
			<rect x="4372" y="431" width="22.9995" height="23" fill="#f48c7d" />
		</g>
		<g>
			<text fill="#595959" font-family="Verdana,Open Sans,DejaVu Sans,sans-serif" font-weight="400" font-size="41" transform="matrix(1 0 0 1 4404.56 454)">Other</text>
		</g>
		<g>
			<rect x="4372" y="508" width="22.9995" height="23" fill="#005aa6" />
		</g>
		<g>
			<text fill="#595959" font-family="Verdana,Open Sans,DejaVu Sans,sans-serif" font-weight="400" font-size="41" transform="matrix(1 0 0 1 4404.56 531)">iOS</text>
		</g>
		<g>
			<rect x="4372" y="585" width="22.9995" height="23" fill="#f6a118" />
		</g>
		<g>
			<text fill="#595959" font-family="Verdana,Open Sans,DejaVu Sans,sans-serif" font-weight="400" font-size="41" transform="matrix(1 0 0 1 4404.56 608)">macOS</text>
		</g>
		<g>
			<rect x="4372" y="662" width="22.9995" height="23" fill="#e62d39" />
		</g>
		<g>
			<text fill="#595959" font-family="Verdana,Open Sans,DejaVu Sans,sans-serif" font-weight="400" font-size="41" transform="matrix(1 0 0 1 4404.56 685)">Android</text>
		</g>
		<g>
			<rect x="4372" y="739" width="22.9995" height="23" fill="#fdd5a4" />
		</g>
		<g>
			<text fill="#595959" font-family="Verdana,Open Sans,DejaVu Sans,sans-serif" font-weight="400" font-size="41" transform="matrix(1 0 0 1 4404.56 762)">Linux</text>
		</g>
		<g>
			<rect x="4372" y="816" width="22.9995" height="23" fill="#55c0e9" />
		</g>
		<g>
			<text fill="#595959" font-family="Verdana,Open Sans,DejaVu Sans,sans-serif" font-weight="400" font-size="41" transform="matrix(1 0 0 1 4404.56 839)">Windows</text>
		</g>
	</g>
</svg>
