<svg width="1763" height="1046"
    xmlns="http://www.w3.org/2000/svg"
	xmlns:xlink="http://www.w3.org/1999/xlink" xml:space="preserve" overflow="hidden">
	<defs>
		<clipPath id="clip0">
			<rect x="2917" y="346" width="1763" height="1046"/>
		</clipPath>
	</defs>
	<g clip-path="url(#clip0)" transform="translate(-2917 -346)">
		<rect x="2918" y="347" width="1760" height="1043" fill="#FFFFFF" />
		<g>
			<path d="
			M3228.5 974.532 4296.5 974.532
			M3228.5 910.53 4296.5 910.53
			M3228.5 846.528 4296.5 846.528
			M3228.5 781.526 4296.5 781.526
			M3228.5 717.524 4296.5 717.524
			M3228.5 653.522 4296.5 653.522
			M3228.5 589.52 4296.5 589.52
			M3228.5 525.517 4296.5 525.517
			M3228.5 461.515 4296.5 461.515
			M3228.5 397.5 4296.5 397.5" stroke="#D9D9D9" stroke-width="3.4375" stroke-linejoin="round" stroke-miterlimit="10" fill="none" />
		</g>
		<g>
			<path d="M 1038.5 4296.5 1038.5" stroke="#D9D9D9" stroke-width="3.4375" stroke-linejoin="round" stroke-miterlimit="10" fill="none" fill-rule="evenodd" />
		</g>
		<g>
			<text fill="#595959" font-family="Verdana,sans-serif" font-weight="400" font-size="41" transform="matrix(6.12323e-17 -1 1 6.12323e-17 3244.5 1227)">06-Nov</text>
		</g>
		<g>
			<text fill="#595959" font-family="Verdana,sans-serif" font-weight="400" font-size="41" transform="matrix(6.12323e-17 -1 1 6.12323e-17 3337.3695652173915 1226)">20-Nov</text>
		</g>
		<g>
			<text fill="#595959" font-family="Verdana,sans-serif" font-weight="400" font-size="41" transform="matrix(6.12323e-17 -1 1 6.12323e-17 3430.2391304347825 1225)">04-Dec</text>
		</g>
		<g>
			<text fill="#595959" font-family="Verdana,sans-serif" font-weight="400" font-size="41" transform="matrix(6.12323e-17 -1 1 6.12323e-17 3523.108695652174 1222)">18-Dec</text>
		</g>
		<g>
			<text fill="#595959" font-family="Verdana,sans-serif" font-weight="400" font-size="41" transform="matrix(6.12323e-17 -1 1 6.12323e-17 3615.978260869565 1212)">01-Jan</text>
		</g>
		<g>
			<text fill="#595959" font-family="Verdana,sans-serif" font-weight="400" font-size="41" transform="matrix(6.12323e-17 -1 1 6.12323e-17 3708.3478260869565 1209)">15-Jan</text>
		</g>
		<g>
			<text fill="#595959" font-family="Verdana,sans-serif" font-weight="400" font-size="41" transform="matrix(6.12323e-17 -1 1 6.12323e-17 3801.717391304348 1211)">29-Jan</text>
		</g>
		<g>
			<text fill="#595959" font-family="Verdana,sans-serif" font-weight="400" font-size="41" transform="matrix(6.12323e-17 -1 1 6.12323e-17 3894.586956521739 1216)">12-Feb</text>
		</g>
		<g>
			<text fill="#595959" font-family="Verdana,sans-serif" font-weight="400" font-size="41" transform="matrix(6.12323e-17 -1 1 6.12323e-17 3987.4565217391305 1218)">26-Feb</text>
		</g>
		<g>
			<text fill="#595959" font-family="Verdana,sans-serif" font-weight="400" font-size="41" transform="matrix(6.12323e-17 -1 1 6.12323e-17 4079.8260869565215 1222)">11-Mar</text>
		</g>
		<g>
			<text fill="#595959" font-family="Verdana,sans-serif" font-weight="400" font-size="41" transform="matrix(6.12323e-17 -1 1 6.12323e-17 4173.195652173913 1225)">25-Mar</text>
		</g>
		<g>
			<text fill="#595959" font-family="Verdana,sans-serif" font-weight="400" font-size="41" transform="matrix(6.12323e-17 -1 1 6.12323e-17 4269.565217391304 1218)">08-Apr</text>
		</g>
		<g>
			<text fill="#595959" font-family="Verdana,sans-serif" font-weight="400" font-size="41" transform="matrix(1 0 0 1 3167.5 1050)">0</text>
		</g>
		<g>
			<text fill="#595959" font-family="Verdana,sans-serif" font-weight="400" font-size="41" transform="matrix(1 0 0 1 3115.5 922)">370</text>
		</g>
		<g>
			<text fill="#595959" font-family="Verdana,sans-serif" font-weight="400" font-size="41" transform="matrix(1 0 0 1 3114.5 794)">739</text>
		</g>
		<g>
			<text fill="#595959" font-family="Verdana,sans-serif" font-weight="400" font-size="41" transform="matrix(1 0 0 1 3075.5 666)">1,109</text>
		</g>
		<g>
			<text fill="#595959" font-family="Verdana,sans-serif" font-weight="400" font-size="41" transform="matrix(1 0 0 1 3075.5 538)">1,478</text>
		</g>
		<g>
			<text fill="#595959" font-family="Verdana,sans-serif" font-weight="400" font-size="41" transform="matrix(1 0 0 1 3075.5 410)">1,848</text>
		</g>
		<g>
			<text fill="#595959" font-family="Verdana,sans-serif" font-weight="400" font-size="41" transform="matrix(1 0 0 1 3541.5 1321)">Week Commencing</text>
		</g>
		<g>
			<text fill="#595959" font-family="Verdana,sans-serif" font-weight="400" font-size="46" transform="matrix(6.12323e-17 -1 1 6.12323e-17 3019.73 974.25)">Number of OS Profiles</text>
		</g>
		<rect x="2918.5" y="347.5" width="1760" height="1043" stroke="#D9D9D9" stroke-width="3.4375" stroke-linejoin="round" stroke-miterlimit="10" fill="none" />
		<g>
			<path d="M3228.5 1038 3274.9347826086955 1038 3321.3695652173915 1038 3367.804347826087 1038 3414.2391304347825 1038 3460.673913043478 1038 3507.108695652174 1038 3553.5434782608695 1038 3599.978260869565 1038 3646.413043478261 1038 3692.8478260869565 1038 3739.282608695652 1038 3785.717391304348 1038 3832.1521739130435 1038 3878.586956521739 1038 3925.021739130435 1038 3971.4565217391305 1038 4017.891304347826 1038 4064.3260869565215 1038 4110.760869565217 1038 4157.195652173913 1038 4203.630434782609 1038 4250.065217391304 1038 4296.5 1038 4296.5 696.5281385281385 4250.065217391304 696.5281385281385 4203.630434782609 697.5670995670996 4157.195652173913 698.6060606060606 4110.760869565217 699.991341991342 4064.3260869565215 701.030303030303 4017.891304347826 701.030303030303 3971.4565217391305 702.4155844155844 3925.021739130435 702.4155844155844 3878.586956521739 702.4155844155844 3832.1521739130435 703.4545454545455 3785.717391304348 703.8008658008658 3739.282608695652 704.1471861471862 3692.8478260869565 705.1861471861472 3646.413043478261 705.5324675324675 3599.978260869565 705.8787878787879 3553.5434782608695 705.8787878787879 3507.108695652174 705.8787878787879 3460.673913043478 705.8787878787879 3414.2391304347825 707.95670995671 3367.804347826087 708.3030303030303 3321.3695652173915 708.9956709956709 3274.9347826086955 708.9956709956709 3228.5 709.6883116883117 3228.5 1038Z" fill="#fdd5a4" opacity="0.9" />
		</g>
		<g>
			<path d="M3228.5 709.6883116883117 3274.9347826086955 708.9956709956709 3321.3695652173915 708.9956709956709 3367.804347826087 708.3030303030303 3414.2391304347825 707.95670995671 3460.673913043478 705.8787878787879 3507.108695652174 705.8787878787879 3553.5434782608695 705.8787878787879 3599.978260869565 705.8787878787879 3646.413043478261 705.5324675324675 3692.8478260869565 705.1861471861472 3739.282608695652 704.1471861471862 3785.717391304348 703.8008658008658 3832.1521739130435 703.4545454545455 3878.586956521739 702.4155844155844 3925.021739130435 702.4155844155844 3971.4565217391305 702.4155844155844 4017.891304347826 701.030303030303 4064.3260869565215 701.030303030303 4110.760869565217 699.991341991342 4157.195652173913 698.6060606060606 4203.630434782609 697.5670995670996 4250.065217391304 696.5281385281385 4296.5 696.5281385281385 4296.5 555.5757575757575 4250.065217391304 555.5757575757575 4203.630434782609 556.961038961039 4157.195652173913 559.3852813852814 4110.760869565217 560.7705627705627 4064.3260869565215 561.8095238095239 4017.891304347826 563.1948051948052 3971.4565217391305 564.5800865800866 3925.021739130435 564.5800865800866 3878.586956521739 564.9264069264069 3832.1521739130435 566.6580086580087 3785.717391304348 567.3506493506494 3739.282608695652 568.3896103896104 3692.8478260869565 570.1212121212121 3646.413043478261 570.4675324675325 3599.978260869565 570.8138528138528 3553.5434782608695 570.8138528138528 3507.108695652174 572.5454545454545 3460.673913043478 573.2380952380952 3414.2391304347825 575.6623376623377 3367.804347826087 577.047619047619 3321.3695652173915 577.7402597402597 3274.9347826086955 578.08658008658 3228.5 579.4718614718615 3228.5 709.6883116883117Z" fill="#e62d39" opacity="0.9" />
		</g>
		<g>
			<path d="M3228.5 579.4718614718615 3274.9347826086955 578.08658008658 3321.3695652173915 577.7402597402597 3367.804347826087 577.047619047619 3414.2391304347825 575.6623376623377 3460.673913043478 573.2380952380952 3507.108695652174 572.5454545454545 3553.5434782608695 570.8138528138528 3599.978260869565 570.8138528138528 3646.413043478261 570.4675324675325 3692.8478260869565 570.1212121212121 3739.282608695652 568.3896103896104 3785.717391304348 567.3506493506494 3832.1521739130435 566.6580086580087 3878.586956521739 564.9264069264069 3925.021739130435 564.5800865800866 3971.4565217391305 564.5800865800866 4017.891304347826 563.1948051948052 4064.3260869565215 561.8095238095239 4110.760869565217 560.7705627705627 4157.195652173913 559.3852813852814 4203.630434782609 556.961038961039 4250.065217391304 555.5757575757575 4296.5 555.5757575757575 4296.5 491.85281385281377 4250.065217391304 491.85281385281377 4203.630434782609 493.23809523809524 4157.195652173913 495.6623376623376 4110.760869565217 497.047619047619 4064.3260869565215 498.0865800865801 4017.891304347826 499.4718614718615 3971.4565217391305 500.85714285714283 3925.021739130435 500.85714285714283 3878.586956521739 501.2034632034632 3832.1521739130435 502.935064935065 3785.717391304348 503.62770562770567 3739.282608695652 504.6666666666667 3692.8478260869565 506.3982683982684 3646.413043478261 506.7445887445887 3599.978260869565 507.09090909090907 3553.5434782608695 507.09090909090907 3507.108695652174 508.82251082251076 3460.673913043478 509.51515151515144 3414.2391304347825 511.93939393939394 3367.804347826087 513.3246753246754 3321.3695652173915 514.017316017316 3274.9347826086955 514.3636363636364 3228.5 515.7489177489178 3228.5 579.4718614718615Z" fill="#005aa6" opacity="0.9" />
		</g>
		<g>
			<path d="M3228.5 515.7489177489178 3274.9347826086955 514.3636363636364 3321.3695652173915 514.017316017316 3367.804347826087 513.3246753246754 3414.2391304347825 511.93939393939394 3460.673913043478 509.51515151515144 3507.108695652174 508.82251082251076 3553.5434782608695 507.09090909090907 3599.978260869565 507.09090909090907 3646.413043478261 506.7445887445887 3692.8478260869565 506.3982683982684 3739.282608695652 504.6666666666667 3785.717391304348 503.62770562770567 3832.1521739130435 502.935064935065 3878.586956521739 501.2034632034632 3925.021739130435 500.85714285714283 3971.4565217391305 500.85714285714283 4017.891304347826 499.4718614718615 4064.3260869565215 498.0865800865801 4110.760869565217 497.047619047619 4157.195652173913 495.6623376623376 4203.630434782609 493.23809523809524 4250.065217391304 491.85281385281377 4296.5 491.85281385281377 4296.5 442.32900432900425 4250.065217391304 442.32900432900425 4203.630434782609 444.06060606060606 4157.195652173913 447.1774891774891 4110.760869565217 448.5627705627705 4064.3260869565215 449.6017316017316 4017.891304347826 450.987012987013 3971.4565217391305 452.7186147186147 3925.021739130435 453.06493506493507 3878.586956521739 454.1038961038961 3832.1521739130435 456.18181818181824 3785.717391304348 456.8744588744589 3739.282608695652 457.91341991341994 3692.8478260869565 459.991341991342 3646.413043478261 460.3376623376623 3599.978260869565 460.68398268398266 3553.5434782608695 460.68398268398266 3507.108695652174 463.4545454545454 3460.673913043478 464.4935064935064 3414.2391304347825 466.9177489177489 3367.804347826087 468.6493506493507 3321.3695652173915 469.6883116883117 3274.9347826086955 470.3809523809524 3228.5 472.45887445887456 3228.5 515.7489177489178Z" fill="#f6a118" opacity="0.9" />
		</g>
		<g>
			<path d="M3228.5 472.45887445887456 3274.9347826086955 470.3809523809524 3321.3695652173915 469.6883116883117 3367.804347826087 468.6493506493507 3414.2391304347825 466.9177489177489 3460.673913043478 464.4935064935064 3507.108695652174 463.4545454545454 3553.5434782608695 460.68398268398266 3599.978260869565 460.68398268398266 3646.413043478261 460.3376623376623 3692.8478260869565 459.991341991342 3739.282608695652 457.91341991341994 3785.717391304348 456.8744588744589 3832.1521739130435 456.18181818181824 3878.586956521739 454.1038961038961 3925.021739130435 453.06493506493507 3971.4565217391305 452.7186147186147 4017.891304347826 450.987012987013 4064.3260869565215 449.6017316017316 4110.760869565217 448.5627705627705 4157.195652173913 447.1774891774891 4203.630434782609 444.06060606060606 4250.065217391304 442.32900432900425 4296.5 442.32900432900425 4296.5 413.93073593073586 4250.065217391304 413.93073593073586 4203.630434782609 415.6623376623377 4157.195652173913 418.77922077922074 4110.760869565217 420.1645021645021 4064.3260869565215 421.20346320346323 4017.891304347826 422.5887445887446 3971.4565217391305 424.3203463203463 3925.021739130435 424.6666666666667 3878.586956521739 425.7056277056277 3832.1521739130435 427.78354978354986 3785.717391304348 428.47619047619054 3739.282608695652 429.51515151515156 3692.8478260869565 431.5930735930736 3646.413043478261 431.93939393939394 3599.978260869565 432.2857142857143 3553.5434782608695 432.2857142857143 3507.108695652174 435.056277056277 3460.673913043478 436.095238095238 3414.2391304347825 438.5194805194805 3367.804347826087 440.2510822510823 3321.3695652173915 441.29004329004334 3274.9347826086955 441.982683982684 3228.5 444.0606060606062 3228.5 472.45887445887456Z" fill="#f48c7d" opacity="0.9" />
		</g>
		<g>
			<path d="M3228.5 444.0606060606062 3274.9347826086955 441.982683982684 3321.3695652173915 441.29004329004334 3367.804347826087 440.2510822510823 3414.2391304347825 438.5194805194805 3460.673913043478 436.095238095238 3507.108695652174 435.056277056277 3553.5434782608695 432.2857142857143 3599.978260869565 432.2857142857143 3646.413043478261 431.93939393939394 3692.8478260869565 431.5930735930736 3739.282608695652 429.51515151515156 3785.717391304348 428.47619047619054 3832.1521739130435 427.78354978354986 3878.586956521739 425.7056277056277 3925.021739130435 424.6666666666667 3971.4565217391305 424.3203463203463 4017.891304347826 422.5887445887446 4064.3260869565215 421.20346320346323 4110.760869565217 420.1645021645021 4157.195652173913 418.77922077922074 4203.630434782609 415.6623376623377 4250.065217391304 413.93073593073586 4296.5 413.93073593073586 4296.5 397.99999999999994 4250.065217391304 397.99999999999994 4203.630434782609 399.73160173160176 4157.195652173913 402.8484848484848 4110.760869565217 404.2337662337662 4064.3260869565215 405.2727272727273 4017.891304347826 406.65800865800867 3971.4565217391305 408.38961038961037 3925.021739130435 408.73593073593076 3878.586956521739 409.7748917748918 3832.1521739130435 411.85281385281394 3785.717391304348 412.5454545454546 3739.282608695652 413.58441558441564 3692.8478260869565 415.6623376623377 3646.413043478261 416.008658008658 3599.978260869565 416.35497835497836 3553.5434782608695 416.35497835497836 3507.108695652174 419.1255411255411 3460.673913043478 420.1645021645021 3414.2391304347825 422.5887445887446 3367.804347826087 424.3203463203464 3321.3695652173915 425.3593073593074 3274.9347826086955 426.0519480519481 3228.5 428.12987012987026 3228.5 444.0606060606062Z" fill="#55c0e9" opacity="0.9" />
		</g>
		<g>
			<rect x="4372" y="431" width="22.9995" height="23" fill="#fdd5a4" />
		</g>
		<g>
			<text fill="#595959" font-family="Verdana,sans-serif" font-weight="400" font-size="41" transform="matrix(1 0 0 1 4404.56 454)">Other</text>
		</g>
		<g>
			<rect x="4372" y="508" width="22.9995" height="23" fill="#e62d39" />
		</g>
		<g>
			<text fill="#595959" font-family="Verdana,sans-serif" font-weight="400" font-size="41" transform="matrix(1 0 0 1 4404.56 531)">iOS</text>
		</g>
		<g>
			<rect x="4372" y="585" width="22.9995" height="23" fill="#005aa6" />
		</g>
		<g>
			<text fill="#595959" font-family="Verdana,sans-serif" font-weight="400" font-size="41" transform="matrix(1 0 0 1 4404.56 608)">Android</text>
		</g>
		<g>
			<rect x="4372" y="662" width="22.9995" height="23" fill="#f6a118" />
		</g>
		<g>
			<text fill="#595959" font-family="Verdana,sans-serif" font-weight="400" font-size="41" transform="matrix(1 0 0 1 4404.56 685)">macOS</text>
		</g>
		<g>
			<rect x="4372" y="739" width="22.9995" height="23" fill="#f48c7d" />
		</g>
		<g>
			<text fill="#595959" font-family="Verdana,sans-serif" font-weight="400" font-size="41" transform="matrix(1 0 0 1 4404.56 762)">Linux</text>
		</g>
		<g>
			<rect x="4372" y="816" width="22.9995" height="23" fill="#55c0e9" />
		</g>
		<g>
			<text fill="#595959" font-family="Verdana,sans-serif" font-weight="400" font-size="41" transform="matrix(1 0 0 1 4404.56 839)">Windows</text>
		</g>
	</g>
</svg>
