<svg width="1763" height="1046"
    xmlns="http://www.w3.org/2000/svg"
	xmlns:xlink="http://www.w3.org/1999/xlink" xml:space="preserve" overflow="hidden">
	<defs>
		<clipPath id="clip0">
			<rect x="2917" y="346" width="1763" height="1046"/>
		</clipPath>
	</defs>
	<g clip-path="url(#clip0)" transform="translate(-2917 -346)">
		<rect x="2918" y="347" width="1760" height="1043" fill="#FFFFFF" />
		<g>
			<path d="
			M3228.5 974.532 4296.5 974.532
			M3228.5 910.53 4296.5 910.53
			M3228.5 846.528 4296.5 846.528
			M3228.5 781.526 4296.5 781.526
			M3228.5 717.524 4296.5 717.524
			M3228.5 653.522 4296.5 653.522
			M3228.5 589.52 4296.5 589.52
			M3228.5 525.517 4296.5 525.517
			M3228.5 461.515 4296.5 461.515
			M3228.5 397.5 4296.5 397.5" stroke="#D9D9D9" stroke-width="3.4375" stroke-linejoin="round" stroke-miterlimit="10" fill="none" />
		</g>
		<g>
			<path d="M 1038.5 4296.5 1038.5" stroke="#D9D9D9" stroke-width="3.4375" stroke-linejoin="round" stroke-miterlimit="10" fill="none" fill-rule="evenodd" />
		</g>
		<g>
			<text fill="#595959" font-family="Verdana,sans-serif" font-weight="400" font-size="41" transform="matrix(6.12323e-17 -1 1 6.12323e-17 3248 1216)">29-Apr</text>
		</g>
		<g>
			<text fill="#595959" font-family="Verdana,sans-serif" font-weight="400" font-size="41" transform="matrix(6.12323e-17 -1 1 6.12323e-17 3331.764705882353 1228)">27-May</text>
		</g>
		<g>
			<text fill="#595959" font-family="Verdana,sans-serif" font-weight="400" font-size="41" transform="matrix(6.12323e-17 -1 1 6.12323e-17 3412.029411764706 1211)">24-Jun</text>
		</g>
		<g>
			<text fill="#595959" font-family="Verdana,sans-serif" font-weight="400" font-size="41" transform="matrix(6.12323e-17 -1 1 6.12323e-17 3495.794117647059 1196)">22-Jul</text>
		</g>
		<g>
			<text fill="#595959" font-family="Verdana,sans-serif" font-weight="400" font-size="41" transform="matrix(6.12323e-17 -1 1 6.12323e-17 3583.0588235294117 1218)">19-Aug</text>
		</g>
		<g>
			<text fill="#595959" font-family="Verdana,sans-serif" font-weight="400" font-size="41" transform="matrix(6.12323e-17 -1 1 6.12323e-17 3666.823529411765 1219)">16-Sep</text>
		</g>
		<g>
			<text fill="#595959" font-family="Verdana,sans-serif" font-weight="400" font-size="41" transform="matrix(6.12323e-17 -1 1 6.12323e-17 3747.0882352941176 1213)">14-Oct</text>
		</g>
		<g>
			<text fill="#595959" font-family="Verdana,sans-serif" font-weight="400" font-size="41" transform="matrix(6.12323e-17 -1 1 6.12323e-17 3830.3529411764707 1222)">11-Nov</text>
		</g>
		<g>
			<text fill="#595959" font-family="Verdana,sans-serif" font-weight="400" font-size="41" transform="matrix(6.12323e-17 -1 1 6.12323e-17 3914.1176470588234 1220)">16-Dec</text>
		</g>
		<g>
			<text fill="#595959" font-family="Verdana,sans-serif" font-weight="400" font-size="41" transform="matrix(6.12323e-17 -1 1 6.12323e-17 3998.3823529411766 1207)">13-Jan</text>
		</g>
		<g>
			<text fill="#595959" font-family="Verdana,sans-serif" font-weight="400" font-size="41" transform="matrix(6.12323e-17 -1 1 6.12323e-17 4082.1470588235293 1214)">10-Feb</text>
		</g>
		<g>
			<text fill="#595959" font-family="Verdana,sans-serif" font-weight="400" font-size="41" transform="matrix(6.12323e-17 -1 1 6.12323e-17 4165.911764705882 1221)">10-Mar</text>
		</g>
		<g>
			<text fill="#595959" font-family="Verdana,sans-serif" font-weight="400" font-size="41" transform="matrix(6.12323e-17 -1 1 6.12323e-17 4253.176470588235 1217)">07-Apr</text>
		</g>
		<g>
			<text fill="#595959" font-family="Verdana,sans-serif" font-weight="400" font-size="41" transform="matrix(1 0 0 1 3167.5 1050)">0</text>
		</g>
		<g>
			<text fill="#595959" font-family="Verdana,sans-serif" font-weight="400" font-size="41" transform="matrix(1 0 0 1 3114.5 922)">403</text>
		</g>
		<g>
			<text fill="#595959" font-family="Verdana,sans-serif" font-weight="400" font-size="41" transform="matrix(1 0 0 1 3115.5 794)">805</text>
		</g>
		<g>
			<text fill="#595959" font-family="Verdana,sans-serif" font-weight="400" font-size="41" transform="matrix(1 0 0 1 3076.5 666)">1,208</text>
		</g>
		<g>
			<text fill="#595959" font-family="Verdana,sans-serif" font-weight="400" font-size="41" transform="matrix(1 0 0 1 3077.5 538)">1,610</text>
		</g>
		<g>
			<text fill="#595959" font-family="Verdana,sans-serif" font-weight="400" font-size="41" transform="matrix(1 0 0 1 3075.5 410)">2,013</text>
		</g>
		<g>
			<text fill="#595959" font-family="Verdana,sans-serif" font-weight="400" font-size="41" transform="matrix(1 0 0 1 3544.5 1321)">Week Commencing</text>
		</g>
		<g>
			<text fill="#595959" font-family="Verdana,sans-serif" font-weight="400" font-size="46" transform="matrix(6.12323e-17 -1 1 6.12323e-17 3019.73 970.75)">Number of OS Profiles</text>
		</g>
		<rect x="2918.5" y="347.5" width="1760" height="1043" stroke="#D9D9D9" stroke-width="3.4375" stroke-linejoin="round" stroke-miterlimit="10" fill="none" />
		<g>
			<path d="M3228.5 1038 3249.4411764705883 1038 3270.3823529411766 1038 3291.323529411765 1038 3312.264705882353 1038 3333.205882352941 1038 3354.1470588235293 1038 3375.0882352941176 1038 3396.029411764706 1038 3416.970588235294 1038 3437.9117647058824 1038 3458.8529411764707 1038 3479.794117647059 1038 3500.735294117647 1038 3521.676470588235 1038 3542.6176470588234 1038 3563.5588235294117 1038 3584.5 1038 3605.4411764705883 1038 3626.3823529411766 1038 3647.323529411765 1038 3668.264705882353 1038 3689.205882352941 1038 3710.1470588235293 1038 3731.0882352941176 1038 3752.029411764706 1038 3772.970588235294 1038 3793.9117647058824 1038 3814.8529411764707 1038 3835.7941176470586 1038 3856.735294117647 1038 3877.676470588235 1038 3898.6176470588234 1038 3919.5588235294117 1038 3940.5 1038 3961.4411764705883 1038 3982.3823529411766 1038 4003.323529411765 1038 4024.264705882353 1038 4045.2058823529414 1038 4066.1470588235293 1038 4087.0882352941176 1038 4108.029411764706 1038 4128.970588235294 1038 4149.911764705882 1038 4170.85294117647 1038 4191.794117647059 1038 4212.735294117647 1038 4233.676470588235 1038 4254.617647058823 1038 4275.558823529412 1038 4296.5 1038 4296.5 699.0829607550919 4275.558823529412 699.4008941877794 4254.617647058823 699.718827620467 4233.676470588235 699.718827620467 4212.735294117647 700.6726279185295 4191.794117647059 701.3084947839046 4170.85294117647 701.9443616492797 4149.911764705882 701.9443616492797 4128.970588235294 703.2160953800299 4108.029411764706 703.8519622454048 4087.0882352941176 703.8519622454048 4066.1470588235293 704.48782911078 4045.2058823529414 705.123695976155 4024.264705882353 705.75956284153 4003.323529411765 706.3954297069051 3982.3823529411766 706.7133631395927 3961.4411764705883 706.7133631395927 3940.5 706.7133631395927 3919.5588235294117 706.7133631395927 3898.6176470588234 707.3492300049677 3877.676470588235 707.3492300049677 3856.735294117647 707.9850968703428 3835.7941176470586 708.6209637357179 3814.8529411764707 708.9388971684054 3793.9117647058824 709.2568306010928 3772.970588235294 709.2568306010928 3752.029411764706 709.5747640337804 3731.0882352941176 709.5747640337804 3710.1470588235293 711.1644311972182 3689.205882352941 711.4823646299055 3668.264705882353 712.4361649279682 3647.323529411765 712.7540983606557 3626.3823529411766 713.7078986587182 3605.4411764705883 714.3437655240934 3584.5 714.3437655240934 3563.5588235294117 714.6616989567809 3542.6176470588234 714.6616989567809 3521.676470588235 714.9796323894684 3500.735294117647 714.9796323894684 3479.794117647059 715.933432687531 3458.8529411764707 715.933432687531 3437.9117647058824 716.2513661202186 3416.970588235294 719.1127670144064 3396.029411764706 719.1127670144064 3375.0882352941176 719.7486338797814 3354.1470588235293 720.702434177844 3333.205882352941 721.3383010432191 3312.264705882353 722.6100347739691 3291.323529411765 723.2459016393443 3270.3823529411766 723.5638350720318 3249.4411764705883 723.8817685047193 3228.5 723.8817685047193 3228.5 1038Z" fill="#fdd5a4" opacity="0.9" />
		</g>
		<g>
			<path d="M3228.5 723.8817685047193 3249.4411764705883 723.8817685047193 3270.3823529411766 723.5638350720318 3291.323529411765 723.2459016393443 3312.264705882353 722.6100347739691 3333.205882352941 721.3383010432191 3354.1470588235293 720.702434177844 3375.0882352941176 719.7486338797814 3396.029411764706 719.1127670144064 3416.970588235294 719.1127670144064 3437.9117647058824 716.2513661202186 3458.8529411764707 715.933432687531 3479.794117647059 715.933432687531 3500.735294117647 714.9796323894684 3521.676470588235 714.9796323894684 3542.6176470588234 714.6616989567809 3563.5588235294117 714.6616989567809 3584.5 714.3437655240934 3605.4411764705883 714.3437655240934 3626.3823529411766 713.7078986587182 3647.323529411765 712.7540983606557 3668.264705882353 712.4361649279682 3689.205882352941 711.4823646299055 3710.1470588235293 711.1644311972182 3731.0882352941176 709.5747640337804 3752.029411764706 709.5747640337804 3772.970588235294 709.2568306010928 3793.9117647058824 709.2568306010928 3814.8529411764707 708.9388971684054 3835.7941176470586 708.6209637357179 3856.735294117647 707.9850968703428 3877.676470588235 707.3492300049677 3898.6176470588234 707.3492300049677 3919.5588235294117 706.7133631395927 3940.5 706.7133631395927 3961.4411764705883 706.7133631395927 3982.3823529411766 706.7133631395927 4003.323529411765 706.3954297069051 4024.264705882353 705.75956284153 4045.2058823529414 705.123695976155 4066.1470588235293 704.48782911078 4087.0882352941176 703.8519622454048 4108.029411764706 703.8519622454048 4128.970588235294 703.2160953800299 4149.911764705882 701.9443616492797 4170.85294117647 701.9443616492797 4191.794117647059 701.3084947839046 4212.735294117647 700.6726279185295 4233.676470588235 699.718827620467 4254.617647058823 699.718827620467 4275.558823529412 699.4008941877794 4296.5 699.0829607550919 4296.5 552.1977148534526 4275.558823529412 552.51564828614 4254.617647058823 553.4694485842027 4233.676470588235 553.4694485842027 4212.735294117647 556.3308494783904 4191.794117647059 557.2846497764531 4170.85294117647 557.9205166418282 4149.911764705882 558.5563835072032 4128.970588235294 559.8281172379534 4108.029411764706 561.0998509687033 4087.0882352941176 561.0998509687033 4066.1470588235293 562.6895181321412 4045.2058823529414 563.3253849975162 4024.264705882353 563.9612518628912 4003.323529411765 564.9150521609538 3982.3823529411766 565.2329855936414 3961.4411764705883 565.8688524590165 3940.5 565.8688524590165 3919.5588235294117 565.8688524590165 3898.6176470588234 567.1405861897665 3877.676470588235 567.458519622454 3856.735294117647 568.0943864878291 3835.7941176470586 570.0019870839543 3814.8529411764707 570.3199205166419 3793.9117647058824 570.6378539493293 3772.970588235294 571.5916542473918 3752.029411764706 572.5454545454545 3731.0882352941176 572.5454545454545 3710.1470588235293 574.1351217088923 3689.205882352941 575.0889220069547 3668.264705882353 576.0427223050174 3647.323529411765 576.3606557377049 3626.3823529411766 577.9503229011425 3605.4411764705883 578.5861897665177 3584.5 578.5861897665177 3563.5588235294117 578.9041231992052 3542.6176470588234 578.9041231992052 3521.676470588235 580.4937903626428 3500.735294117647 582.0834575260805 3479.794117647059 583.3551912568305 3458.8529411764707 583.3551912568305 3437.9117647058824 583.6731246895181 3416.970588235294 586.5345255837059 3396.029411764706 586.5345255837059 3375.0882352941176 587.4883258817686 3354.1470588235293 589.3959264778937 3333.205882352941 590.0317933432688 3312.264705882353 591.3035270740188 3291.323529411765 592.5752608047691 3270.3823529411766 593.5290611028316 3249.4411764705883 593.8469945355191 3228.5 593.8469945355191 3228.5 723.8817685047193Z" fill="#e62d39" opacity="0.9" />
		</g>
		<g>
			<path d="M3228.5 593.8469945355191 3249.4411764705883 593.8469945355191 3270.3823529411766 593.5290611028316 3291.323529411765 592.5752608047691 3312.264705882353 591.3035270740188 3333.205882352941 590.0317933432688 3354.1470588235293 589.3959264778937 3375.0882352941176 587.4883258817686 3396.029411764706 586.5345255837059 3416.970588235294 586.5345255837059 3437.9117647058824 583.6731246895181 3458.8529411764707 583.3551912568305 3479.794117647059 583.3551912568305 3500.735294117647 582.0834575260805 3521.676470588235 580.4937903626428 3542.6176470588234 578.9041231992052 3563.5588235294117 578.9041231992052 3584.5 578.5861897665177 3605.4411764705883 578.5861897665177 3626.3823529411766 577.9503229011425 3647.323529411765 576.3606557377049 3668.264705882353 576.0427223050174 3689.205882352941 575.0889220069547 3710.1470588235293 574.1351217088923 3731.0882352941176 572.5454545454545 3752.029411764706 572.5454545454545 3772.970588235294 571.5916542473918 3793.9117647058824 570.6378539493293 3814.8529411764707 570.3199205166419 3835.7941176470586 570.0019870839543 3856.735294117647 568.0943864878291 3877.676470588235 567.458519622454 3898.6176470588234 567.1405861897665 3919.5588235294117 565.8688524590165 3940.5 565.8688524590165 3961.4411764705883 565.8688524590165 3982.3823529411766 565.2329855936414 4003.323529411765 564.9150521609538 4024.264705882353 563.9612518628912 4045.2058823529414 563.3253849975162 4066.1470588235293 562.6895181321412 4087.0882352941176 561.0998509687033 4108.029411764706 561.0998509687033 4128.970588235294 559.8281172379534 4149.911764705882 558.5563835072032 4170.85294117647 557.9205166418282 4191.794117647059 557.2846497764531 4212.735294117647 556.3308494783904 4233.676470588235 553.4694485842027 4254.617647058823 553.4694485842027 4275.558823529412 552.51564828614 4296.5 552.1977148534526 4296.5 492.42622950819674 4275.558823529412 492.7441629408842 4254.617647058823 493.6979632389469 4233.676470588235 493.6979632389469 4212.735294117647 496.5593641331346 4191.794117647059 497.51316443119725 4170.85294117647 498.14903129657233 4149.911764705882 498.7848981619474 4128.970588235294 500.05663189269757 4108.029411764706 501.3283656234475 4087.0882352941176 501.3283656234475 4066.1470588235293 502.91803278688536 4045.2058823529414 503.5538996522603 4024.264705882353 504.1897665176354 4003.323529411765 505.14356681569797 3982.3823529411766 505.46150024838556 3961.4411764705883 506.09736711376064 3940.5 506.09736711376064 3919.5588235294117 506.09736711376064 3898.6176470588234 507.3691008445107 3877.676470588235 507.68703427719817 3856.735294117647 508.32290114257324 3835.7941176470586 510.548435171386 3814.8529411764707 510.8663686040736 3793.9117647058824 511.184302036761 3772.970588235294 512.1381023348235 3752.029411764706 513.0919026328862 3731.0882352941176 513.0919026328862 3710.1470588235293 514.681569796324 3689.205882352941 515.6353700943864 3668.264705882353 516.5891703924491 3647.323529411765 516.9071038251366 3626.3823529411766 518.4967709885742 3605.4411764705883 519.1326378539494 3584.5 519.1326378539494 3563.5588235294117 519.4505712866369 3542.6176470588234 519.4505712866369 3521.676470588235 521.0402384500745 3500.735294117647 522.6299056135122 3479.794117647059 523.9016393442622 3458.8529411764707 523.9016393442622 3437.9117647058824 524.2195727769498 3416.970588235294 527.0809736711376 3396.029411764706 527.0809736711376 3375.0882352941176 528.0347739692003 3354.1470588235293 529.9423745653254 3333.205882352941 530.5782414307005 3312.264705882353 532.4858420268256 3291.323529411765 533.7575757575759 3270.3823529411766 534.7113760556384 3249.4411764705883 535.3472429210134 3228.5 535.3472429210134 3228.5 593.8469945355191Z" fill="#005aa6" opacity="0.9" />
		</g>
		<g>
			<path d="M3228.5 535.3472429210134 3249.4411764705883 535.3472429210134 3270.3823529411766 534.7113760556384 3291.323529411765 533.7575757575759 3312.264705882353 532.4858420268256 3333.205882352941 530.5782414307005 3354.1470588235293 529.9423745653254 3375.0882352941176 528.0347739692003 3396.029411764706 527.0809736711376 3416.970588235294 527.0809736711376 3437.9117647058824 524.2195727769498 3458.8529411764707 523.9016393442622 3479.794117647059 523.9016393442622 3500.735294117647 522.6299056135122 3521.676470588235 521.0402384500745 3542.6176470588234 519.4505712866369 3563.5588235294117 519.4505712866369 3584.5 519.1326378539494 3605.4411764705883 519.1326378539494 3626.3823529411766 518.4967709885742 3647.323529411765 516.9071038251366 3668.264705882353 516.5891703924491 3689.205882352941 515.6353700943864 3710.1470588235293 514.681569796324 3731.0882352941176 513.0919026328862 3752.029411764706 513.0919026328862 3772.970588235294 512.1381023348235 3793.9117647058824 511.184302036761 3814.8529411764707 510.8663686040736 3835.7941176470586 510.548435171386 3856.735294117647 508.32290114257324 3877.676470588235 507.68703427719817 3898.6176470588234 507.3691008445107 3919.5588235294117 506.09736711376064 3940.5 506.09736711376064 3961.4411764705883 506.09736711376064 3982.3823529411766 505.46150024838556 4003.323529411765 505.14356681569797 4024.264705882353 504.1897665176354 4045.2058823529414 503.5538996522603 4066.1470588235293 502.91803278688536 4087.0882352941176 501.3283656234475 4108.029411764706 501.3283656234475 4128.970588235294 500.05663189269757 4149.911764705882 498.7848981619474 4170.85294117647 498.14903129657233 4191.794117647059 497.51316443119725 4212.735294117647 496.5593641331346 4233.676470588235 493.6979632389469 4254.617647058823 493.6979632389469 4275.558823529412 492.7441629408842 4296.5 492.42622950819674 4296.5 438.695479384004 4275.558823529412 439.01341281669147 4254.617647058823 440.2851465474417 4233.676470588235 440.2851465474417 4212.735294117647 444.100347739692 4191.794117647059 445.05414803775466 4170.85294117647 445.69001490312974 4149.911764705882 446.6438152011923 4128.970588235294 447.91554893194245 4108.029411764706 449.5052160953799 4087.0882352941176 450.141082960755 4066.1470588235293 452.0486835568804 4045.2058823529414 453.32041728763045 4024.264705882353 453.9562841530055 4003.323529411765 454.9100844510681 3982.3823529411766 455.2280178837557 3961.4411764705883 455.86388474913076 3940.5 455.86388474913076 3919.5588235294117 455.86388474913076 3898.6176470588234 458.08941877794337 3877.676470588235 458.40735221063085 3856.735294117647 459.0432190760059 3835.7941176470586 461.58668653750624 3814.8529411764707 461.5866865375063 3793.9117647058824 461.90461997019366 3772.970588235294 463.17635370094376 3752.029411764706 464.448087431694 3731.0882352941176 464.7660208643815 3710.1470588235293 466.67362146050675 3689.205882352941 467.6274217585692 3668.264705882353 468.5812220566319 3647.323529411765 469.2170889220069 3626.3823529411766 470.80675608544453 3605.4411764705883 471.4426229508197 3584.5 471.4426229508197 3563.5588235294117 471.7605563835072 3542.6176470588234 471.44262295081967 3521.676470588235 473.9860904123199 3500.735294117647 476.21162444113264 3479.794117647059 477.4833581718827 3458.8529411764707 477.4833581718827 3437.9117647058824 477.48335817188274 3416.970588235294 480.34475906607054 3396.029411764706 480.34475906607054 3375.0882352941176 481.61649279682075 3354.1470588235293 483.8420268256334 3333.205882352941 484.4778936910085 3312.264705882353 486.3854942871336 3291.323529411765 487.6572280178839 3270.3823529411766 489.24689518132146 3249.4411764705883 489.8827620466964 3228.5 489.8827620466964 3228.5 535.3472429210134Z" fill="#f6a118" opacity="0.9" />
		</g>
		<g>
			<path d="M3228.5 489.8827620466964 3249.4411764705883 489.8827620466964 3270.3823529411766 489.24689518132146 3291.323529411765 487.6572280178839 3312.264705882353 486.3854942871336 3333.205882352941 484.4778936910085 3354.1470588235293 483.8420268256334 3375.0882352941176 481.61649279682075 3396.029411764706 480.34475906607054 3416.970588235294 480.34475906607054 3437.9117647058824 477.48335817188274 3458.8529411764707 477.4833581718827 3479.794117647059 477.4833581718827 3500.735294117647 476.21162444113264 3521.676470588235 473.9860904123199 3542.6176470588234 471.44262295081967 3563.5588235294117 471.7605563835072 3584.5 471.4426229508197 3605.4411764705883 471.4426229508197 3626.3823529411766 470.80675608544453 3647.323529411765 469.2170889220069 3668.264705882353 468.5812220566319 3689.205882352941 467.6274217585692 3710.1470588235293 466.67362146050675 3731.0882352941176 464.7660208643815 3752.029411764706 464.448087431694 3772.970588235294 463.17635370094376 3793.9117647058824 461.90461997019366 3814.8529411764707 461.5866865375063 3835.7941176470586 461.58668653750624 3856.735294117647 459.0432190760059 3877.676470588235 458.40735221063085 3898.6176470588234 458.08941877794337 3919.5588235294117 455.86388474913076 3940.5 455.86388474913076 3961.4411764705883 455.86388474913076 3982.3823529411766 455.2280178837557 4003.323529411765 454.9100844510681 4024.264705882353 453.9562841530055 4045.2058823529414 453.32041728763045 4066.1470588235293 452.0486835568804 4087.0882352941176 450.141082960755 4108.029411764706 449.5052160953799 4128.970588235294 447.91554893194245 4149.911764705882 446.6438152011923 4170.85294117647 445.69001490312974 4191.794117647059 445.05414803775466 4212.735294117647 444.100347739692 4233.676470588235 440.2851465474417 4254.617647058823 440.2851465474417 4275.558823529412 439.01341281669147 4296.5 438.695479384004 4296.5 411.67113760556384 4275.558823529412 411.9890710382513 4254.617647058823 413.26080476900154 4233.676470588235 413.26080476900154 4212.735294117647 417.07600596125184 4191.794117647059 418.0298062593145 4170.85294117647 418.6656731246896 4149.911764705882 419.61947342275215 4128.970588235294 421.20914058618985 4108.029411764706 422.7988077496273 4087.0882352941176 423.4346746150024 4066.1470588235293 425.3422752111278 4045.2058823529414 426.61400894187784 4024.264705882353 427.2498758072529 4003.323529411765 428.2036761053155 3982.3823529411766 428.5216095380031 3961.4411764705883 429.15747640337815 3940.5 429.15747640337815 3919.5588235294117 429.15747640337815 3898.6176470588234 431.38301043219076 3877.676470588235 431.70094386487824 3856.735294117647 432.3368107302533 3835.7941176470586 434.88027819175363 3814.8529411764707 434.8802781917537 3793.9117647058824 435.19821162444106 3772.970588235294 436.46994535519116 3752.029411764706 437.74167908594137 3731.0882352941176 438.37754595131645 3710.1470588235293 440.2851465474417 3689.205882352941 441.23894684550413 3668.264705882353 442.1927471435668 3647.323529411765 442.8286140089418 3626.3823529411766 444.41828117237947 3605.4411764705883 445.05414803775466 3584.5 445.05414803775466 3563.5588235294117 445.37208147044214 3542.6176470588234 445.0541480377546 3521.676470588235 447.59761549925486 3500.735294117647 449.8231495280676 3479.794117647059 451.0948832588176 3458.8529411764707 451.0948832588176 3437.9117647058824 451.0948832588177 3416.970588235294 453.95628415300547 3396.029411764706 453.95628415300547 3375.0882352941176 455.2280178837557 3354.1470588235293 457.45355191256834 3333.205882352941 458.0894187779434 3312.264705882353 459.99701937406854 3291.323529411765 461.2687531048188 3270.3823529411766 462.8584202682564 3249.4411764705883 463.49428713363136 3228.5 463.8122205663189 3228.5 489.8827620466964Z" fill="#f48c7d" opacity="0.9" />
		</g>
		<g>
			<path d="M3228.5 463.8122205663189 3249.4411764705883 463.49428713363136 3270.3823529411766 462.8584202682564 3291.323529411765 461.2687531048188 3312.264705882353 459.99701937406854 3333.205882352941 458.0894187779434 3354.1470588235293 457.45355191256834 3375.0882352941176 455.2280178837557 3396.029411764706 453.95628415300547 3416.970588235294 453.95628415300547 3437.9117647058824 451.0948832588177 3458.8529411764707 451.0948832588176 3479.794117647059 451.0948832588176 3500.735294117647 449.8231495280676 3521.676470588235 447.59761549925486 3542.6176470588234 445.0541480377546 3563.5588235294117 445.37208147044214 3584.5 445.05414803775466 3605.4411764705883 445.05414803775466 3626.3823529411766 444.41828117237947 3647.323529411765 442.8286140089418 3668.264705882353 442.1927471435668 3689.205882352941 441.23894684550413 3710.1470588235293 440.2851465474417 3731.0882352941176 438.37754595131645 3752.029411764706 437.74167908594137 3772.970588235294 436.46994535519116 3793.9117647058824 435.19821162444106 3814.8529411764707 434.8802781917537 3835.7941176470586 434.88027819175363 3856.735294117647 432.3368107302533 3877.676470588235 431.70094386487824 3898.6176470588234 431.38301043219076 3919.5588235294117 429.15747640337815 3940.5 429.15747640337815 3961.4411764705883 429.15747640337815 3982.3823529411766 428.5216095380031 4003.323529411765 428.2036761053155 4024.264705882353 427.2498758072529 4045.2058823529414 426.61400894187784 4066.1470588235293 425.3422752111278 4087.0882352941176 423.4346746150024 4108.029411764706 422.7988077496273 4128.970588235294 421.20914058618985 4149.911764705882 419.61947342275215 4170.85294117647 418.6656731246896 4191.794117647059 418.0298062593145 4212.735294117647 417.07600596125184 4233.676470588235 413.26080476900154 4254.617647058823 413.26080476900154 4275.558823529412 411.9890710382513 4296.5 411.67113760556384 4296.5 398 4275.558823529412 398.3179334326875 4254.617647058823 399.5896671634377 4233.676470588235 399.5896671634377 4212.735294117647 403.404868355688 4191.794117647059 404.35866865375067 4170.85294117647 404.99453551912575 4149.911764705882 405.9483358171883 4128.970588235294 407.538002980626 4108.029411764706 409.1276701440635 4087.0882352941176 409.76353700943855 4066.1470588235293 411.67113760556396 4045.2058823529414 412.942871336314 4024.264705882353 413.5787382016891 4003.323529411765 414.53253849975164 3982.3823529411766 414.85047193243923 3961.4411764705883 415.4863387978143 3940.5 415.4863387978143 3919.5588235294117 415.4863387978143 3898.6176470588234 417.7118728266269 3877.676470588235 418.0298062593144 3856.735294117647 418.6656731246895 3835.7941176470586 421.2091405861898 3814.8529411764707 421.20914058618985 3793.9117647058824 421.5270740188772 3772.970588235294 420.89120715350214 3752.029411764706 422.16294088425235 3731.0882352941176 422.79880774962743 3710.1470588235293 424.70640834575266 3689.205882352941 425.6602086438151 3668.264705882353 426.6140089418778 3647.323529411765 427.2498758072528 3626.3823529411766 428.83954297069045 3605.4411764705883 429.47540983606564 3584.5 429.47540983606564 3563.5588235294117 429.7933432687531 3542.6176470588234 429.4754098360656 3521.676470588235 432.01887729756584 3500.735294117647 434.24441132637855 3479.794117647059 435.5161450571286 3458.8529411764707 435.5161450571286 3437.9117647058824 436.15201192250373 3416.970588235294 439.0134128166915 3396.029411764706 439.0134128166915 3375.0882352941176 440.28514654744174 3354.1470588235293 442.5106805762544 3333.205882352941 442.82861400894194 3312.264705882353 445.37208147044214 3291.323529411765 446.6438152011924 3270.3823529411766 448.23348236463 3249.4411764705883 448.86934923000496 3228.5 449.1872826626925 3228.5 463.8122205663189Z" fill="#55c0e9" opacity="0.9" />
		</g>
		<g>
			<rect x="4372" y="431" width="22.9995" height="23" fill="#fdd5a4" />
		</g>
		<g>
			<text fill="#595959" font-family="Verdana,sans-serif" font-weight="400" font-size="41" transform="matrix(1 0 0 1 4404.56 454)">Other</text>
		</g>
		<g>
			<rect x="4372" y="508" width="22.9995" height="23" fill="#e62d39" />
		</g>
		<g>
			<text fill="#595959" font-family="Verdana,sans-serif" font-weight="400" font-size="41" transform="matrix(1 0 0 1 4404.56 531)">iOS</text>
		</g>
		<g>
			<rect x="4372" y="585" width="22.9995" height="23" fill="#005aa6" />
		</g>
		<g>
			<text fill="#595959" font-family="Verdana,sans-serif" font-weight="400" font-size="41" transform="matrix(1 0 0 1 4404.56 608)">Android</text>
		</g>
		<g>
			<rect x="4372" y="662" width="22.9995" height="23" fill="#f6a118" />
		</g>
		<g>
			<text fill="#595959" font-family="Verdana,sans-serif" font-weight="400" font-size="41" transform="matrix(1 0 0 1 4404.56 685)">macOS</text>
		</g>
		<g>
			<rect x="4372" y="739" width="22.9995" height="23" fill="#f48c7d" />
		</g>
		<g>
			<text fill="#595959" font-family="Verdana,sans-serif" font-weight="400" font-size="41" transform="matrix(1 0 0 1 4404.56 762)">Linux</text>
		</g>
		<g>
			<rect x="4372" y="816" width="22.9995" height="23" fill="#55c0e9" />
		</g>
		<g>
			<text fill="#595959" font-family="Verdana,sans-serif" font-weight="400" font-size="41" transform="matrix(1 0 0 1 4404.56 839)">Windows</text>
		</g>
	</g>
</svg>
