<svg width="1763" height="1046"
    xmlns="http://www.w3.org/2000/svg"
	xmlns:xlink="http://www.w3.org/1999/xlink" xml:space="preserve" overflow="hidden">
	<defs>
		<clipPath id="clip0">
			<rect x="2917" y="346" width="1763" height="1046"/>
		</clipPath>
	</defs>
	<g clip-path="url(#clip0)" transform="translate(-2917 -346)">
		<rect x="2918" y="347" width="1760" height="1043" fill="#FFFFFF" />
		<g>
			<path d="
			M3228.5 974.532 4296.5 974.532
			M3228.5 910.53 4296.5 910.53
			M3228.5 846.528 4296.5 846.528
			M3228.5 781.526 4296.5 781.526
			M3228.5 717.524 4296.5 717.524
			M3228.5 653.522 4296.5 653.522
			M3228.5 589.52 4296.5 589.52
			M3228.5 525.517 4296.5 525.517
			M3228.5 461.515 4296.5 461.515
			M3228.5 397.5 4296.5 397.5" stroke="#D9D9D9" stroke-width="3.4375" stroke-linejoin="round" stroke-miterlimit="10" fill="none" />
		</g>
		<g>
			<path d="M 1038.5 4296.5 1038.5" stroke="#D9D9D9" stroke-width="3.4375" stroke-linejoin="round" stroke-miterlimit="10" fill="none" fill-rule="evenodd" />
		</g>
		<g>
			<text fill="#595959" font-family="Verdana,Open Sans,DejaVu Sans,sans-serif" font-weight="400" font-size="41" transform="matrix(6.12323e-17 -1 1 6.12323e-17 3244.275390625 1201.3203125)">17-Feb</text>
		</g>
		<g>
			<text fill="#595959" font-family="Verdana,Open Sans,DejaVu Sans,sans-serif" font-weight="400" font-size="41" transform="matrix(6.12323e-17 -1 1 6.12323e-17 3328.77447265625 1210.2890625)">17-Mar</text>
		</g>
		<g>
			<text fill="#595959" font-family="Verdana,Open Sans,DejaVu Sans,sans-serif" font-weight="400" font-size="41" transform="matrix(6.12323e-17 -1 1 6.12323e-17 3419.01916015625 1201.5405197143555)">14-Apr</text>
		</g>
		<g>
			<text fill="#595959" font-family="Verdana,Open Sans,DejaVu Sans,sans-serif" font-weight="400" font-size="41" transform="matrix(6.12323e-17 -1 1 6.12323e-17 3504.589287109375 1214.75341796875)">12-May</text>
		</g>
		<g>
			<text fill="#595959" font-family="Verdana,Open Sans,DejaVu Sans,sans-serif" font-weight="400" font-size="41" transform="matrix(6.12323e-17 -1 1 6.12323e-17 3588.9582421875 1192.2914962768555)">16-Jun</text>
		</g>
		<g>
			<text fill="#595959" font-family="Verdana,Open Sans,DejaVu Sans,sans-serif" font-weight="400" font-size="41" transform="matrix(6.12323e-17 -1 1 6.12323e-17 3675.128955078125 1177.2768478393555)">14-Jul</text>
		</g>
		<g>
			<text fill="#595959" font-family="Verdana,Open Sans,DejaVu Sans,sans-serif" font-weight="400" font-size="41" transform="matrix(6.12323e-17 -1 1 6.12323e-17 3760.759140625 1206.90576171875)">11-Aug</text>
		</g>
		<g>
			<text fill="#595959" font-family="Verdana,Open Sans,DejaVu Sans,sans-serif" font-weight="400" font-size="41" transform="matrix(6.12323e-17 -1 1 6.12323e-17 3846.369306640625 1204.38330078125)">08-Sep</text>
		</g>
		<g>
			<text fill="#595959" font-family="Verdana,Open Sans,DejaVu Sans,sans-serif" font-weight="400" font-size="41" transform="matrix(6.12323e-17 -1 1 6.12323e-17 3927.084697265625 1201.1000900268555)">06-Oct</text>
		</g>
		<g>
			<text fill="#595959" font-family="Verdana,Open Sans,DejaVu Sans,sans-serif" font-weight="400" font-size="41" transform="matrix(6.12323e-17 -1 1 6.12323e-17 4012.524697265625 1211.43017578125)">03-Nov</text>
		</g>
		<g>
			<text fill="#595959" font-family="Verdana,Open Sans,DejaVu Sans,sans-serif" font-weight="400" font-size="41" transform="matrix(6.12323e-17 -1 1 6.12323e-17 4097.964697265625 1207.0859375)">01-Dec</text>
		</g>
		<g>
			<text fill="#595959" font-family="Verdana,Open Sans,DejaVu Sans,sans-serif" font-weight="400" font-size="41" transform="matrix(6.12323e-17 -1 1 6.12323e-17 4183.384677734375 1207.1259765625)">29-Dec</text>
		</g>
		<g>
			<text fill="#595959" font-family="Verdana,Open Sans,DejaVu Sans,sans-serif" font-weight="400" font-size="41" transform="matrix(6.12323e-17 -1 1 6.12323e-17 4272.4782421875 1191.6909103393555)">26-Jan</text>
		</g>
		<g>
			<text fill="#595959" font-family="Verdana,Open Sans,DejaVu Sans,sans-serif" font-weight="400" font-size="41" transform="matrix(1 0 0 1 3169.14111328125 1050)">0</text>
		</g>
		<g>
			<text fill="#595959" font-family="Verdana,Open Sans,DejaVu Sans,sans-serif" font-weight="400" font-size="41" transform="matrix(1 0 0 1 3121.234375 922)">432</text>
		</g>
		<g>
			<text fill="#595959" font-family="Verdana,Open Sans,DejaVu Sans,sans-serif" font-weight="400" font-size="41" transform="matrix(1 0 0 1 3121.07421875 794)">864</text>
		</g>
		<g>
			<text fill="#595959" font-family="Verdana,Open Sans,DejaVu Sans,sans-serif" font-weight="400" font-size="41" transform="matrix(1 0 0 1 3090.4443359375 666)">1,296</text>
		</g>
		<g>
			<text fill="#595959" font-family="Verdana,Open Sans,DejaVu Sans,sans-serif" font-weight="400" font-size="41" transform="matrix(1 0 0 1 3090.564453125 538)">1,728</text>
		</g>
		<g>
			<text fill="#595959" font-family="Verdana,Open Sans,DejaVu Sans,sans-serif" font-weight="400" font-size="41" transform="matrix(1 0 0 1 3088.72265625 410)">2,160</text>
		</g>
		<g>
			<text fill="#595959" font-family="Verdana,Open Sans,DejaVu Sans,sans-serif" font-weight="400" font-size="41" transform="matrix(1 0 0 1 3556.97119140625 1321)">Week Commencing</text>
		</g>
		<g>
			<text fill="#595959" font-family="Verdana,Open Sans,DejaVu Sans,sans-serif" font-weight="400" font-size="46" transform="matrix(6.12323e-17 -1 1 6.12323e-17 3019.73 953.7919921875)">Number of OS Profiles</text>
		</g>
		<rect x="2918.5" y="347.5" width="1760" height="1043" stroke="#D9D9D9" stroke-width="3.4375" stroke-linejoin="round" stroke-miterlimit="10" fill="none" />
		<g>
			<path d="M3228.5 1038 3249.86 1038 3271.22 1038 3292.58 1038 3313.94 1038 3335.3 1038 3356.66 1038 3378.02 1038 3399.38 1038 3420.74 1038 3442.1 1038 3463.46 1038 3484.82 1038 3506.18 1038 3527.54 1038 3548.9 1038 3570.26 1038 3591.62 1038 3612.98 1038 3634.34 1038 3655.7 1038 3677.06 1038 3698.42 1038 3719.7799999999997 1038 3741.14 1038 3762.5 1038 3783.86 1038 3805.2200000000003 1038 3826.58 1038 3847.94 1038 3869.3 1038 3890.66 1038 3912.02 1038 3933.38 1038 3954.74 1038 3976.1 1038 3997.46 1038 4018.8199999999997 1038 4040.18 1038 4061.54 1038 4082.9 1038 4104.26 1038 4125.62 1038 4146.98 1038 4168.34 1038 4189.7 1038 4211.0599999999995 1038 4232.42 1038 4253.78 1038 4275.139999999999 1038 4296.5 1038 4296.5 704.6666666666667 4275.139999999999 705.5555555555557 4253.78 706.4444444444445 4232.42 706.7407407407408 4211.0599999999995 707.0370370370371 4189.7 707.0370370370371 4168.34 707.6296296296297 4146.98 707.9259259259259 4125.62 708.5185185185185 4104.26 708.5185185185185 4082.9 708.8148148148148 4061.54 709.1111111111111 4040.18 709.4074074074074 4018.8199999999997 710.2962962962963 3997.46 711.1851851851852 3976.1 711.4814814814815 3954.74 711.7777777777778 3933.38 711.7777777777778 3912.02 712.3703703703704 3890.66 713.8518518518518 3869.3 714.7407407407408 3847.94 715.0370370370371 3826.58 715.0370370370371 3805.2200000000003 715.3333333333334 3783.86 715.3333333333334 3762.5 715.3333333333334 3741.14 715.6296296296297 3719.7799999999997 716.5185185185185 3698.42 716.5185185185185 3677.06 716.8148148148148 3655.7 717.1111111111111 3634.34 717.7037037037037 3612.98 718 3591.62 718 3570.26 718.5925925925926 3548.9 720.0740740740741 3527.54 722.1481481481482 3506.18 722.1481481481482 3484.82 722.1481481481482 3463.46 722.4444444444445 3442.1 722.1481481481482 3420.74 722.4444444444445 3399.38 722.7407407407408 3378.02 722.7407407407408 3356.66 723.6296296296296 3335.3 724.2222222222222 3313.94 724.8148148148148 3292.58 724.8148148148148 3271.22 726 3249.86 726.5925925925926 3228.5 726.5925925925926 3228.5 1038Z" fill="#f48c7d" opacity="0.9" />
		</g>
		<g>
			<path d="M3228.5 726.5925925925926 3249.86 726.5925925925926 3271.22 726 3292.58 724.8148148148148 3313.94 724.8148148148148 3335.3 724.2222222222222 3356.66 723.6296296296296 3378.02 722.7407407407408 3399.38 722.7407407407408 3420.74 722.4444444444445 3442.1 722.1481481481482 3463.46 722.4444444444445 3484.82 722.1481481481482 3506.18 722.1481481481482 3527.54 722.1481481481482 3548.9 720.0740740740741 3570.26 718.5925925925926 3591.62 718 3612.98 718 3634.34 717.7037037037037 3655.7 717.1111111111111 3677.06 716.8148148148148 3698.42 716.5185185185185 3719.7799999999997 716.5185185185185 3741.14 715.6296296296297 3762.5 715.3333333333334 3783.86 715.3333333333334 3805.2200000000003 715.3333333333334 3826.58 715.0370370370371 3847.94 715.0370370370371 3869.3 714.7407407407408 3890.66 713.8518518518518 3912.02 712.3703703703704 3933.38 711.7777777777778 3954.74 711.7777777777778 3976.1 711.4814814814815 3997.46 711.1851851851852 4018.8199999999997 710.2962962962963 4040.18 709.4074074074074 4061.54 709.1111111111111 4082.9 708.8148148148148 4104.26 708.5185185185185 4125.62 708.5185185185185 4146.98 707.9259259259259 4168.34 707.6296296296297 4189.7 707.0370370370371 4211.0599999999995 707.0370370370371 4232.42 706.7407407407408 4253.78 706.4444444444445 4275.139999999999 705.5555555555557 4296.5 704.6666666666667 4296.5 549.4074074074075 4275.139999999999 551.4814814814815 4253.78 555.925925925926 4232.42 556.2222222222223 4211.0599999999995 556.8148148148149 4189.7 556.8148148148149 4168.34 557.4074074074075 4146.98 557.7037037037037 4125.62 559.7777777777777 4104.26 558.8888888888889 4082.9 559.7777777777777 4061.54 560.074074074074 4040.18 560.3703703703703 4018.8199999999997 561.2592592592592 3997.46 563.3333333333334 3976.1 564.2222222222223 3954.74 564.5185185185186 3933.38 564.5185185185186 3912.02 565.1111111111112 3890.66 569.5555555555555 3869.3 570.7407407407408 3847.94 571.0370370370371 3826.58 572.8148148148148 3805.2200000000003 573.4074074074074 3783.86 573.4074074074074 3762.5 574.2962962962963 3741.14 574.8888888888889 3719.7799999999997 576.074074074074 3698.42 576.074074074074 3677.06 576.6666666666666 3655.7 576.9629629629629 3634.34 577.5555555555555 3612.98 577.8518518518518 3591.62 577.8518518518518 3570.26 579.0370370370371 3548.9 581.4074074074075 3527.54 583.7777777777778 3506.18 584.3703703703704 3484.82 583.4814814814815 3463.46 585.5555555555555 3442.1 585.2592592592592 3420.74 585.5555555555555 3399.38 586.4444444444445 3378.02 586.4444444444445 3356.66 589.1111111111111 3335.3 590 3313.94 590.5925925925926 3292.58 591.1851851851852 3271.22 592.3703703703704 3249.86 593.5555555555555 3228.5 593.5555555555555 3228.5 726.5925925925926Z" fill="#005aa6" opacity="0.9" />
		</g>
		<g>
			<path d="M3228.5 593.5555555555555 3249.86 593.5555555555555 3271.22 592.3703703703704 3292.58 591.1851851851852 3313.94 590.5925925925926 3335.3 590 3356.66 589.1111111111111 3378.02 586.4444444444445 3399.38 586.4444444444445 3420.74 585.5555555555555 3442.1 585.2592592592592 3463.46 585.5555555555555 3484.82 583.4814814814815 3506.18 584.3703703703704 3527.54 583.7777777777778 3548.9 581.4074074074075 3570.26 579.0370370370371 3591.62 577.8518518518518 3612.98 577.8518518518518 3634.34 577.5555555555555 3655.7 576.9629629629629 3677.06 576.6666666666666 3698.42 576.074074074074 3719.7799999999997 576.074074074074 3741.14 574.8888888888889 3762.5 574.2962962962963 3783.86 573.4074074074074 3805.2200000000003 573.4074074074074 3826.58 572.8148148148148 3847.94 571.0370370370371 3869.3 570.7407407407408 3890.66 569.5555555555555 3912.02 565.1111111111112 3933.38 564.5185185185186 3954.74 564.5185185185186 3976.1 564.2222222222223 3997.46 563.3333333333334 4018.8199999999997 561.2592592592592 4040.18 560.3703703703703 4061.54 560.074074074074 4082.9 559.7777777777777 4104.26 558.8888888888889 4125.62 559.7777777777777 4146.98 557.7037037037037 4168.34 557.4074074074075 4189.7 556.8148148148149 4211.0599999999995 556.8148148148149 4232.42 556.2222222222223 4253.78 555.925925925926 4275.139999999999 551.4814814814815 4296.5 549.4074074074075 4296.5 492.5185185185186 4275.139999999999 494.8888888888889 4253.78 499.33333333333337 4232.42 499.6296296296297 4211.0599999999995 500.2222222222223 4189.7 500.2222222222223 4168.34 500.8148148148149 4146.98 501.1111111111111 4125.62 503.4814814814814 4104.26 502.5925925925926 4082.9 503.4814814814814 4061.54 503.7777777777777 4040.18 504.074074074074 4018.8199999999997 505.55555555555554 3997.46 508.5185185185186 3976.1 509.4074074074075 3954.74 509.7037037037038 3933.38 509.7037037037038 3912.02 510.59259259259267 3890.66 515.9259259259259 3869.3 517.4074074074074 3847.94 517.7037037037037 3826.58 519.4814814814814 3805.2200000000003 520.074074074074 3783.86 520.074074074074 3762.5 521.8518518518518 3741.14 522.7407407407408 3719.7799999999997 524.2222222222222 3698.42 524.8148148148148 3677.06 525.4074074074074 3655.7 525.7037037037037 3634.34 526.2962962962963 3612.98 526.5925925925926 3591.62 526.5925925925926 3570.26 528.0740740740741 3548.9 530.7407407407409 3527.54 533.1111111111112 3506.18 534.2962962962964 3484.82 533.4074074074075 3463.46 535.4814814814815 3442.1 535.1851851851852 3420.74 535.4814814814815 3399.38 536.6666666666667 3378.02 536.6666666666667 3356.66 540.2222222222222 3335.3 541.1111111111111 3313.94 541.7037037037037 3292.58 542.5925925925926 3271.22 543.7777777777778 3249.86 545.2592592592592 3228.5 545.8518518518518 3228.5 593.5555555555555Z" fill="#f6a118" opacity="0.9" />
		</g>
		<g>
			<path d="M3228.5 545.8518518518518 3249.86 545.2592592592592 3271.22 543.7777777777778 3292.58 542.5925925925926 3313.94 541.7037037037037 3335.3 541.1111111111111 3356.66 540.2222222222222 3378.02 536.6666666666667 3399.38 536.6666666666667 3420.74 535.4814814814815 3442.1 535.1851851851852 3463.46 535.4814814814815 3484.82 533.4074074074075 3506.18 534.2962962962964 3527.54 533.1111111111112 3548.9 530.7407407407409 3570.26 528.0740740740741 3591.62 526.5925925925926 3612.98 526.5925925925926 3634.34 526.2962962962963 3655.7 525.7037037037037 3677.06 525.4074074074074 3698.42 524.8148148148148 3719.7799999999997 524.2222222222222 3741.14 522.7407407407408 3762.5 521.8518518518518 3783.86 520.074074074074 3805.2200000000003 520.074074074074 3826.58 519.4814814814814 3847.94 517.7037037037037 3869.3 517.4074074074074 3890.66 515.9259259259259 3912.02 510.59259259259267 3933.38 509.7037037037038 3954.74 509.7037037037038 3976.1 509.4074074074075 3997.46 508.5185185185186 4018.8199999999997 505.55555555555554 4040.18 504.074074074074 4061.54 503.7777777777777 4082.9 503.4814814814814 4104.26 502.5925925925926 4125.62 503.4814814814814 4146.98 501.1111111111111 4168.34 500.8148148148149 4189.7 500.2222222222223 4211.0599999999995 500.2222222222223 4232.42 499.6296296296297 4253.78 499.33333333333337 4275.139999999999 494.8888888888889 4296.5 492.5185185185186 4296.5 436.8148148148149 4275.139999999999 439.1851851851852 4253.78 443.6296296296297 4232.42 443.925925925926 4211.0599999999995 444.5185185185186 4189.7 444.5185185185186 4168.34 445.1111111111112 4146.98 445.4074074074074 4125.62 447.7777777777777 4104.26 446.8888888888889 4082.9 447.7777777777777 4061.54 448.074074074074 4040.18 448.3703703703703 4018.8199999999997 449.85185185185185 3997.46 452.8148148148149 3976.1 453.7037037037038 3954.74 454.0000000000001 3933.38 454.0000000000001 3912.02 454.88888888888897 3890.66 460.2222222222222 3869.3 461.7037037037037 3847.94 462 3826.58 463.7777777777777 3805.2200000000003 464.3703703703703 3783.86 464.3703703703703 3762.5 466.14814814814815 3741.14 467.03703703703707 3719.7799999999997 468.5185185185185 3698.42 469.1111111111111 3677.06 469.7037037037037 3655.7 470 3634.34 470.5925925925926 3612.98 470.8888888888889 3591.62 470.8888888888889 3570.26 472.37037037037044 3548.9 475.0370370370372 3527.54 477.4074074074075 3506.18 478.5925925925927 3484.82 477.7037037037038 3463.46 479.7777777777778 3442.1 479.4814814814815 3420.74 479.7777777777778 3399.38 480.96296296296305 3378.02 480.96296296296305 3356.66 484.5185185185185 3335.3 485.4074074074074 3313.94 486 3292.58 486.8888888888889 3271.22 488.07407407407413 3249.86 489.55555555555554 3228.5 490.14814814814815 3228.5 545.8518518518518Z" fill="#e62d39" opacity="0.9" />
		</g>
		<g>
			<path d="M3228.5 490.14814814814815 3249.86 489.55555555555554 3271.22 488.07407407407413 3292.58 486.8888888888889 3313.94 486 3335.3 485.4074074074074 3356.66 484.5185185185185 3378.02 480.96296296296305 3399.38 480.96296296296305 3420.74 479.7777777777778 3442.1 479.4814814814815 3463.46 479.7777777777778 3484.82 477.7037037037038 3506.18 478.5925925925927 3527.54 477.4074074074075 3548.9 475.0370370370372 3570.26 472.37037037037044 3591.62 470.8888888888889 3612.98 470.8888888888889 3634.34 470.5925925925926 3655.7 470 3677.06 469.7037037037037 3698.42 469.1111111111111 3719.7799999999997 468.5185185185185 3741.14 467.03703703703707 3762.5 466.14814814814815 3783.86 464.3703703703703 3805.2200000000003 464.3703703703703 3826.58 463.7777777777777 3847.94 462 3869.3 461.7037037037037 3890.66 460.2222222222222 3912.02 454.88888888888897 3933.38 454.0000000000001 3954.74 454.0000000000001 3976.1 453.7037037037038 3997.46 452.8148148148149 4018.8199999999997 449.85185185185185 4040.18 448.3703703703703 4061.54 448.074074074074 4082.9 447.7777777777777 4104.26 446.8888888888889 4125.62 447.7777777777777 4146.98 445.4074074074074 4168.34 445.1111111111112 4189.7 444.5185185185186 4211.0599999999995 444.5185185185186 4232.42 443.925925925926 4253.78 443.6296296296297 4275.139999999999 439.1851851851852 4296.5 436.8148148148149 4296.5 410.7407407407408 4275.139999999999 413.11111111111114 4253.78 417.5555555555556 4232.42 417.8518518518519 4211.0599999999995 418.4444444444445 4189.7 418.4444444444445 4168.34 419.0370370370371 4146.98 419.3333333333333 4125.62 421.70370370370364 4104.26 420.81481481481484 4082.9 421.70370370370364 4061.54 421.99999999999994 4040.18 422.29629629629625 4018.8199999999997 423.77777777777777 3997.46 426.7407407407408 3976.1 427.62962962962973 3954.74 427.92592592592604 3933.38 428.22222222222234 3912.02 429.1111111111112 3890.66 434.4444444444444 3869.3 435.9259259259259 3847.94 436.22222222222223 3826.58 437.99999999999994 3805.2200000000003 438.59259259259255 3783.86 438.59259259259255 3762.5 440.3703703703704 3741.14 441.2592592592593 3719.7799999999997 442.7407407407407 3698.42 443.3333333333333 3677.06 443.9259259259259 3655.7 444.22222222222223 3634.34 444.81481481481484 3612.98 445.11111111111114 3591.62 445.11111111111114 3570.26 446.59259259259267 3548.9 449.2592592592594 3527.54 451.62962962962973 3506.18 452.81481481481495 3484.82 451.92592592592604 3463.46 454.29629629629636 3442.1 454.29629629629636 3420.74 454.59259259259267 3399.38 455.7777777777779 3378.02 455.7777777777779 3356.66 459.3333333333333 3335.3 460.22222222222223 3313.94 460.81481481481484 3292.58 461.70370370370375 3271.22 463.1851851851852 3249.86 464.66666666666663 3228.5 465.25925925925924 3228.5 490.14814814814815Z" fill="#fdd5a4" opacity="0.9" />
		</g>
		<g>
			<path d="M3228.5 465.25925925925924 3249.86 464.66666666666663 3271.22 463.1851851851852 3292.58 461.70370370370375 3313.94 460.81481481481484 3335.3 460.22222222222223 3356.66 459.3333333333333 3378.02 455.7777777777779 3399.38 455.7777777777779 3420.74 454.59259259259267 3442.1 454.29629629629636 3463.46 454.29629629629636 3484.82 451.92592592592604 3506.18 452.81481481481495 3527.54 451.62962962962973 3548.9 449.2592592592594 3570.26 446.59259259259267 3591.62 445.11111111111114 3612.98 445.11111111111114 3634.34 444.81481481481484 3655.7 444.22222222222223 3677.06 443.9259259259259 3698.42 443.3333333333333 3719.7799999999997 442.7407407407407 3741.14 441.2592592592593 3762.5 440.3703703703704 3783.86 438.59259259259255 3805.2200000000003 438.59259259259255 3826.58 437.99999999999994 3847.94 436.22222222222223 3869.3 435.9259259259259 3890.66 434.4444444444444 3912.02 429.1111111111112 3933.38 428.22222222222234 3954.74 427.92592592592604 3976.1 427.62962962962973 3997.46 426.7407407407408 4018.8199999999997 423.77777777777777 4040.18 422.29629629629625 4061.54 421.99999999999994 4082.9 421.70370370370364 4104.26 420.81481481481484 4125.62 421.70370370370364 4146.98 419.3333333333333 4168.34 419.0370370370371 4189.7 418.4444444444445 4211.0599999999995 418.4444444444445 4232.42 417.8518518518519 4253.78 417.5555555555556 4275.139999999999 413.11111111111114 4296.5 410.7407407407408 4296.5 398.00000000000006 4275.139999999999 400.3703703703704 4253.78 404.81481481481484 4232.42 405.11111111111114 4211.0599999999995 405.70370370370375 4189.7 405.70370370370375 4168.34 406.29629629629636 4146.98 406.59259259259255 4125.62 408.9629629629629 4104.26 408.0740740740741 4082.9 408.9629629629629 4061.54 409.2592592592592 4040.18 409.5555555555555 4018.8199999999997 411.037037037037 3997.46 414.00000000000006 3976.1 414.88888888888897 3954.74 415.1851851851853 3933.38 415.4814814814816 3912.02 416.37037037037044 3890.66 421.70370370370364 3869.3 423.18518518518516 3847.94 423.48148148148147 3826.58 425.2592592592592 3805.2200000000003 425.8518518518518 3783.86 425.8518518518518 3762.5 427.6296296296296 3741.14 428.51851851851853 3719.7799999999997 429.99999999999994 3698.42 430.59259259259255 3677.06 431.18518518518516 3655.7 431.48148148148147 3634.34 432.0740740740741 3612.98 432.3703703703704 3591.62 432.3703703703704 3570.26 433.8518518518519 3548.9 436.51851851851865 3527.54 438.88888888888897 3506.18 440.0740740740742 3484.82 439.1851851851853 3463.46 441.5555555555556 3442.1 441.5555555555556 3420.74 441.8518518518519 3399.38 443.0370370370371 3378.02 443.0370370370371 3356.66 446.59259259259255 3335.3 447.48148148148147 3313.94 448.0740740740741 3292.58 448.962962962963 3271.22 450.44444444444446 3249.86 451.92592592592587 3228.5 452.5185185185185 3228.5 465.25925925925924Z" fill="#55c0e9" opacity="0.9" />
		</g>
		<g>
			<rect x="4372" y="431" width="22.9995" height="23" fill="#f48c7d" />
		</g>
		<g>
			<text fill="#595959" font-family="Verdana,Open Sans,DejaVu Sans,sans-serif" font-weight="400" font-size="41" transform="matrix(1 0 0 1 4404.56 454)">Other</text>
		</g>
		<g>
			<rect x="4372" y="508" width="22.9995" height="23" fill="#005aa6" />
		</g>
		<g>
			<text fill="#595959" font-family="Verdana,Open Sans,DejaVu Sans,sans-serif" font-weight="400" font-size="41" transform="matrix(1 0 0 1 4404.56 531)">iOS</text>
		</g>
		<g>
			<rect x="4372" y="585" width="22.9995" height="23" fill="#f6a118" />
		</g>
		<g>
			<text fill="#595959" font-family="Verdana,Open Sans,DejaVu Sans,sans-serif" font-weight="400" font-size="41" transform="matrix(1 0 0 1 4404.56 608)">macOS</text>
		</g>
		<g>
			<rect x="4372" y="662" width="22.9995" height="23" fill="#e62d39" />
		</g>
		<g>
			<text fill="#595959" font-family="Verdana,Open Sans,DejaVu Sans,sans-serif" font-weight="400" font-size="41" transform="matrix(1 0 0 1 4404.56 685)">Android</text>
		</g>
		<g>
			<rect x="4372" y="739" width="22.9995" height="23" fill="#fdd5a4" />
		</g>
		<g>
			<text fill="#595959" font-family="Verdana,Open Sans,DejaVu Sans,sans-serif" font-weight="400" font-size="41" transform="matrix(1 0 0 1 4404.56 762)">Linux</text>
		</g>
		<g>
			<rect x="4372" y="816" width="22.9995" height="23" fill="#55c0e9" />
		</g>
		<g>
			<text fill="#595959" font-family="Verdana,Open Sans,DejaVu Sans,sans-serif" font-weight="400" font-size="41" transform="matrix(1 0 0 1 4404.56 839)">Windows</text>
		</g>
	</g>
</svg>
