<svg width="1763" height="1046"
    xmlns="http://www.w3.org/2000/svg"
	xmlns:xlink="http://www.w3.org/1999/xlink" xml:space="preserve" overflow="hidden">
	<defs>
		<clipPath id="clip0">
			<rect x="2917" y="346" width="1763" height="1046"/>
		</clipPath>
	</defs>
	<g clip-path="url(#clip0)" transform="translate(-2917 -346)">
		<rect x="2918" y="347" width="1760" height="1043" fill="#FFFFFF" />
		<g>
			<path d="
			M3228.5 974.532 4296.5 974.532
			M3228.5 910.53 4296.5 910.53
			M3228.5 846.528 4296.5 846.528
			M3228.5 781.526 4296.5 781.526
			M3228.5 717.524 4296.5 717.524
			M3228.5 653.522 4296.5 653.522
			M3228.5 589.52 4296.5 589.52
			M3228.5 525.517 4296.5 525.517
			M3228.5 461.515 4296.5 461.515
			M3228.5 397.5 4296.5 397.5" stroke="#D9D9D9" stroke-width="3.4375" stroke-linejoin="round" stroke-miterlimit="10" fill="none" />
		</g>
		<g>
			<path d="M 1038.5 4296.5 1038.5" stroke="#D9D9D9" stroke-width="3.4375" stroke-linejoin="round" stroke-miterlimit="10" fill="none" fill-rule="evenodd" />
		</g>
		<g>
			<text fill="#595959" font-family="Verdana,Open Sans,DejaVu Sans,sans-serif" font-weight="400" font-size="41" transform="matrix(6.12323e-17 -1 1 6.12323e-17 3243.544677734375 1209.70849609375)">18-Nov</text>
		</g>
		<g>
			<text fill="#595959" font-family="Verdana,Open Sans,DejaVu Sans,sans-serif" font-weight="400" font-size="41" transform="matrix(6.12323e-17 -1 1 6.12323e-17 3330.728351203763 1207.1259765625)">23-Dec</text>
		</g>
		<g>
			<text fill="#595959" font-family="Verdana,Open Sans,DejaVu Sans,sans-serif" font-weight="400" font-size="41" transform="matrix(6.12323e-17 -1 1 6.12323e-17 3421.5856086575254 1191.6909103393555)">20-Jan</text>
		</g>
		<g>
			<text fill="#595959" font-family="Verdana,Open Sans,DejaVu Sans,sans-serif" font-weight="400" font-size="41" transform="matrix(6.12323e-17 -1 1 6.12323e-17 3505.8264110331634 1201.3203125)">17-Feb</text>
		</g>
		<g>
			<text fill="#595959" font-family="Verdana,Open Sans,DejaVu Sans,sans-serif" font-weight="400" font-size="41" transform="matrix(6.12323e-17 -1 1 6.12323e-17 3592.069166533801 1210.2890625)">17-Mar</text>
		</g>
		<g>
			<text fill="#595959" font-family="Verdana,Open Sans,DejaVu Sans,sans-serif" font-weight="400" font-size="41" transform="matrix(6.12323e-17 -1 1 6.12323e-17 3684.057527503189 1201.5405197143555)">14-Apr</text>
		</g>
		<g>
			<text fill="#595959" font-family="Verdana,Open Sans,DejaVu Sans,sans-serif" font-weight="400" font-size="41" transform="matrix(6.12323e-17 -1 1 6.12323e-17 3771.3713279257017 1214.75341796875)">12-May</text>
		</g>
		<g>
			<text fill="#595959" font-family="Verdana,Open Sans,DejaVu Sans,sans-serif" font-weight="400" font-size="41" transform="matrix(6.12323e-17 -1 1 6.12323e-17 3857.483956473214 1192.2914962768555)">16-Jun</text>
		</g>
		<g>
			<text fill="#595959" font-family="Verdana,Open Sans,DejaVu Sans,sans-serif" font-weight="400" font-size="41" transform="matrix(6.12323e-17 -1 1 6.12323e-17 3945.398342833227 1177.2768478393555)">14-Jul</text>
		</g>
		<g>
			<text fill="#595959" font-family="Verdana,Open Sans,DejaVu Sans,sans-serif" font-weight="400" font-size="41" transform="matrix(6.12323e-17 -1 1 6.12323e-17 4032.7722018494896 1206.90576171875)">11-Aug</text>
		</g>
		<g>
			<text fill="#595959" font-family="Verdana,Open Sans,DejaVu Sans,sans-serif" font-weight="400" font-size="41" transform="matrix(6.12323e-17 -1 1 6.12323e-17 4120.126041334503 1204.38330078125)">08-Sep</text>
		</g>
		<g>
			<text fill="#595959" font-family="Verdana,Open Sans,DejaVu Sans,sans-serif" font-weight="400" font-size="41" transform="matrix(6.12323e-17 -1 1 6.12323e-17 4202.5851054288905 1201.1000900268555)">06-Oct</text>
		</g>
		<g>
			<text fill="#595959" font-family="Verdana,Open Sans,DejaVu Sans,sans-serif" font-weight="400" font-size="41" transform="matrix(6.12323e-17 -1 1 6.12323e-17 4289.7687788982785 1211.43017578125)">03-Nov</text>
		</g>
		<g>
			<text fill="#595959" font-family="Verdana,Open Sans,DejaVu Sans,sans-serif" font-weight="400" font-size="41" transform="matrix(1 0 0 1 3169.14111328125 1050)">0</text>
		</g>
		<g>
			<text fill="#595959" font-family="Verdana,Open Sans,DejaVu Sans,sans-serif" font-weight="400" font-size="41" transform="matrix(1 0 0 1 3121.4345703125 922)">423</text>
		</g>
		<g>
			<text fill="#595959" font-family="Verdana,Open Sans,DejaVu Sans,sans-serif" font-weight="400" font-size="41" transform="matrix(1 0 0 1 3122.25537109375 794)">846</text>
		</g>
		<g>
			<text fill="#595959" font-family="Verdana,Open Sans,DejaVu Sans,sans-serif" font-weight="400" font-size="41" transform="matrix(1 0 0 1 3090.484375 666)">1,270</text>
		</g>
		<g>
			<text fill="#595959" font-family="Verdana,Open Sans,DejaVu Sans,sans-serif" font-weight="400" font-size="41" transform="matrix(1 0 0 1 3090.8447265625 538)">1,693</text>
		</g>
		<g>
			<text fill="#595959" font-family="Verdana,Open Sans,DejaVu Sans,sans-serif" font-weight="400" font-size="41" transform="matrix(1 0 0 1 3088.6826171875 410)">2,116</text>
		</g>
		<g>
			<text fill="#595959" font-family="Verdana,Open Sans,DejaVu Sans,sans-serif" font-weight="400" font-size="41" transform="matrix(1 0 0 1 3556.97119140625 1321)">Week Commencing</text>
		</g>
		<g>
			<text fill="#595959" font-family="Verdana,Open Sans,DejaVu Sans,sans-serif" font-weight="400" font-size="46" transform="matrix(6.12323e-17 -1 1 6.12323e-17 3019.73 953.7919921875)">Number of OS Profiles</text>
		</g>
		<rect x="2918.5" y="347.5" width="1760" height="1043" stroke="#D9D9D9" stroke-width="3.4375" stroke-linejoin="round" stroke-miterlimit="10" fill="none" />
		<g>
			<path d="M3228.5 1038 3250.295918367347 1038 3272.091836734694 1038 3293.887755102041 1038 3315.683673469388 1038 3337.4795918367345 1038 3359.2755102040815 1038 3381.0714285714284 1038 3402.8673469387754 1038 3424.6632653061224 1038 3446.4591836734694 1038 3468.2551020408164 1038 3490.0510204081634 1038 3511.8469387755104 1038 3533.6428571428573 1038 3555.4387755102043 1038 3577.234693877551 1038 3599.030612244898 1038 3620.826530612245 1038 3642.622448979592 1038 3664.418367346939 1038 3686.214285714286 1038 3708.0102040816328 1038 3729.8061224489797 1038 3751.6020408163267 1038 3773.3979591836733 1038 3795.1938775510203 1038 3816.9897959183672 1038 3838.785714285714 1038 3860.581632653061 1038 3882.377551020408 1038 3904.173469387755 1038 3925.969387755102 1038 3947.765306122449 1038 3969.5612244897957 1038 3991.357142857143 1038 4013.1530612244896 1038 4034.9489795918366 1038 4056.7448979591836 1038 4078.5408163265306 1038 4100.336734693878 1038 4122.132653061224 1038 4143.928571428572 1038 4165.724489795918 1038 4187.5204081632655 1038 4209.316326530612 1038 4231.1122448979595 1038 4252.908163265306 1038 4274.7040816326535 1038 4296.5 1038 4296.5 703.4820415879017 4274.7040816326535 704.3894139886579 4252.908163265306 704.6918714555766 4231.1122448979595 704.9943289224952 4209.316326530612 704.9943289224952 4187.5204081632655 705.5992438563327 4165.724489795918 707.1115311909263 4143.928571428572 708.0189035916824 4122.132653061224 708.3213610586012 4100.336734693878 708.3213610586012 4078.5408163265306 708.6238185255198 4056.7448979591836 708.6238185255198 4034.9489795918366 708.6238185255198 4013.1530612244896 708.9262759924386 3991.357142857143 709.8336483931947 3969.5612244897957 709.8336483931947 3947.765306122449 710.1361058601135 3925.969387755102 710.4385633270322 3904.173469387755 711.0434782608695 3882.377551020408 711.3459357277883 3860.581632653061 711.3459357277883 3838.785714285714 711.9508506616257 3816.9897959183672 713.4631379962193 3795.1938775510203 715.5803402646502 3773.3979591836733 715.5803402646502 3751.6020408163267 715.5803402646502 3729.8061224489797 715.882797731569 3708.0102040816328 715.5803402646502 3686.214285714286 715.882797731569 3664.418367346939 716.1852551984878 3642.622448979592 716.1852551984878 3620.826530612245 717.0926275992439 3599.030612244898 717.6975425330813 3577.234693877551 718.3024574669187 3555.4387755102043 718.3024574669187 3533.6428571428573 719.5122873345936 3511.8469387755104 720.117202268431 3490.0510204081634 720.117202268431 3468.2551020408164 720.7221172022685 3446.4591836734694 721.3270321361058 3424.6632653061224 721.9319470699434 3402.8673469387754 722.5368620037807 3381.0714285714284 722.8393194706994 3359.2755102040815 722.8393194706994 3337.4795918367345 722.8393194706994 3315.683673469388 722.8393194706994 3293.887755102041 723.4442344045369 3272.091836734694 723.4442344045369 3250.295918367347 724.0491493383743 3228.5 724.6540642722117 3228.5 1038Z" fill="#f48c7d" opacity="0.9" />
		</g>
		<g>
			<path d="M3228.5 724.6540642722117 3250.295918367347 724.0491493383743 3272.091836734694 723.4442344045369 3293.887755102041 723.4442344045369 3315.683673469388 722.8393194706994 3337.4795918367345 722.8393194706994 3359.2755102040815 722.8393194706994 3381.0714285714284 722.8393194706994 3402.8673469387754 722.5368620037807 3424.6632653061224 721.9319470699434 3446.4591836734694 721.3270321361058 3468.2551020408164 720.7221172022685 3490.0510204081634 720.117202268431 3511.8469387755104 720.117202268431 3533.6428571428573 719.5122873345936 3555.4387755102043 718.3024574669187 3577.234693877551 718.3024574669187 3599.030612244898 717.6975425330813 3620.826530612245 717.0926275992439 3642.622448979592 716.1852551984878 3664.418367346939 716.1852551984878 3686.214285714286 715.882797731569 3708.0102040816328 715.5803402646502 3729.8061224489797 715.882797731569 3751.6020408163267 715.5803402646502 3773.3979591836733 715.5803402646502 3795.1938775510203 715.5803402646502 3816.9897959183672 713.4631379962193 3838.785714285714 711.9508506616257 3860.581632653061 711.3459357277883 3882.377551020408 711.3459357277883 3904.173469387755 711.0434782608695 3925.969387755102 710.4385633270322 3947.765306122449 710.1361058601135 3969.5612244897957 709.8336483931947 3991.357142857143 709.8336483931947 4013.1530612244896 708.9262759924386 4034.9489795918366 708.6238185255198 4056.7448979591836 708.6238185255198 4078.5408163265306 708.6238185255198 4100.336734693878 708.3213610586012 4122.132653061224 708.3213610586012 4143.928571428572 708.0189035916824 4165.724489795918 707.1115311909263 4187.5204081632655 705.5992438563327 4209.316326530612 704.9943289224952 4231.1122448979595 704.9943289224952 4252.908163265306 704.6918714555766 4274.7040816326535 704.3894139886579 4296.5 703.4820415879017 4296.5 551.3459357277883 4274.7040816326535 553.4631379962193 4252.908163265306 554.3705103969754 4231.1122448979595 554.6729678638941 4209.316326530612 554.6729678638941 4187.5204081632655 555.2778827977315 4165.724489795918 559.8147448015122 4143.928571428572 561.0245746691871 4122.132653061224 561.3270321361059 4100.336734693878 563.1417769376181 4078.5408163265306 563.7466918714556 4056.7448979591836 563.7466918714556 4034.9489795918366 564.6540642722117 4013.1530612244896 565.2589792060492 3991.357142857143 566.4688090737241 3969.5612244897957 566.4688090737241 3947.765306122449 567.0737240075615 3925.969387755102 567.3761814744802 3904.173469387755 567.9810964083175 3882.377551020408 568.2835538752363 3860.581632653061 568.2835538752363 3838.785714285714 569.4933837429112 3816.9897959183672 571.9130434782609 3795.1938775510203 574.3327032136106 3773.3979591836733 574.9376181474479 3751.6020408163267 574.0302457466918 3729.8061224489797 576.1474480151228 3708.0102040816328 575.8449905482041 3686.214285714286 576.1474480151228 3664.418367346939 577.054820415879 3642.622448979592 577.054820415879 3620.826530612245 579.7769376181475 3599.030612244898 580.6843100189036 3577.234693877551 581.2892249527409 3555.4387755102043 581.8941398865784 3533.6428571428573 583.1039697542533 3511.8469387755104 584.3137996219282 3490.0510204081634 584.3137996219282 3468.2551020408164 585.8260869565217 3446.4591836734694 586.4310018903591 3424.6632653061224 587.0359168241966 3402.8673469387754 587.9432892249527 3381.0714285714284 588.2457466918713 3359.2755102040815 588.8506616257089 3337.4795918367345 588.8506616257089 3315.683673469388 588.8506616257089 3293.887755102041 590.0604914933838 3272.091836734694 590.3629489603026 3250.295918367347 590.9678638941399 3228.5 592.7826086956521 3228.5 724.6540642722117Z" fill="#005aa6" opacity="0.9" />
		</g>
		<g>
			<path d="M3228.5 592.7826086956521 3250.295918367347 590.9678638941399 3272.091836734694 590.3629489603026 3293.887755102041 590.0604914933838 3315.683673469388 588.8506616257089 3337.4795918367345 588.8506616257089 3359.2755102040815 588.8506616257089 3381.0714285714284 588.2457466918713 3402.8673469387754 587.9432892249527 3424.6632653061224 587.0359168241966 3446.4591836734694 586.4310018903591 3468.2551020408164 585.8260869565217 3490.0510204081634 584.3137996219282 3511.8469387755104 584.3137996219282 3533.6428571428573 583.1039697542533 3555.4387755102043 581.8941398865784 3577.234693877551 581.2892249527409 3599.030612244898 580.6843100189036 3620.826530612245 579.7769376181475 3642.622448979592 577.054820415879 3664.418367346939 577.054820415879 3686.214285714286 576.1474480151228 3708.0102040816328 575.8449905482041 3729.8061224489797 576.1474480151228 3751.6020408163267 574.0302457466918 3773.3979591836733 574.9376181474479 3795.1938775510203 574.3327032136106 3816.9897959183672 571.9130434782609 3838.785714285714 569.4933837429112 3860.581632653061 568.2835538752363 3882.377551020408 568.2835538752363 3904.173469387755 567.9810964083175 3925.969387755102 567.3761814744802 3947.765306122449 567.0737240075615 3969.5612244897957 566.4688090737241 3991.357142857143 566.4688090737241 4013.1530612244896 565.2589792060492 4034.9489795918366 564.6540642722117 4056.7448979591836 563.7466918714556 4078.5408163265306 563.7466918714556 4100.336734693878 563.1417769376181 4122.132653061224 561.3270321361059 4143.928571428572 561.0245746691871 4165.724489795918 559.8147448015122 4187.5204081632655 555.2778827977315 4209.316326530612 554.6729678638941 4231.1122448979595 554.6729678638941 4252.908163265306 554.3705103969754 4274.7040816326535 553.4631379962193 4296.5 551.3459357277883 4296.5 494.48393194706995 4274.7040816326535 496.60113421550096 4252.908163265306 497.5085066162571 4231.1122448979595 497.81096408317575 4209.316326530612 497.81096408317575 4187.5204081632655 498.4158790170132 4165.724489795918 502.9527410207939 4143.928571428572 504.1625708884688 4122.132653061224 504.4650283553876 4100.336734693878 506.2797731568998 4078.5408163265306 506.88468809073726 4056.7448979591836 506.88468809073726 4034.9489795918366 507.7920604914934 4013.1530612244896 508.3969754253308 3991.357142857143 509.6068052930057 3969.5612244897957 509.6068052930057 3947.765306122449 510.21172022684317 3925.969387755102 510.51417769376184 3904.173469387755 511.1190926275992 3882.377551020408 511.42155009451795 3860.581632653061 511.42155009451795 3838.785714285714 512.6313799621928 3816.9897959183672 515.0510396975426 3795.1938775510203 517.4706994328922 3773.3979591836733 518.0756143667295 3751.6020408163267 517.1682419659735 3729.8061224489797 519.2854442344044 3708.0102040816328 518.9829867674857 3686.214285714286 519.2854442344044 3664.418367346939 520.1928166351606 3642.622448979592 520.1928166351606 3620.826530612245 522.9149338374291 3599.030612244898 523.8223062381853 3577.234693877551 524.4272211720227 3555.4387755102043 525.03213610586 3533.6428571428573 526.2419659735349 3511.8469387755104 527.4517958412098 3490.0510204081634 527.4517958412098 3468.2551020408164 528.9640831758034 3446.4591836734694 529.5689981096407 3424.6632653061224 530.1739130434783 3402.8673469387754 531.0812854442343 3381.0714285714284 531.3837429111529 3359.2755102040815 531.9886578449905 3337.4795918367345 531.9886578449905 3315.683673469388 531.9886578449905 3293.887755102041 533.1984877126654 3272.091836734694 533.5009451795843 3250.295918367347 534.1058601134216 3228.5 536.2230623818525 3228.5 592.7826086956521Z" fill="#e62d39" opacity="0.9" />
		</g>
		<g>
			<path d="M3228.5 536.2230623818525 3250.295918367347 534.1058601134216 3272.091836734694 533.5009451795843 3293.887755102041 533.1984877126654 3315.683673469388 531.9886578449905 3337.4795918367345 531.9886578449905 3359.2755102040815 531.9886578449905 3381.0714285714284 531.3837429111529 3402.8673469387754 531.0812854442343 3424.6632653061224 530.1739130434783 3446.4591836734694 529.5689981096407 3468.2551020408164 528.9640831758034 3490.0510204081634 527.4517958412098 3511.8469387755104 527.4517958412098 3533.6428571428573 526.2419659735349 3555.4387755102043 525.03213610586 3577.234693877551 524.4272211720227 3599.030612244898 523.8223062381853 3620.826530612245 522.9149338374291 3642.622448979592 520.1928166351606 3664.418367346939 520.1928166351606 3686.214285714286 519.2854442344044 3708.0102040816328 518.9829867674857 3729.8061224489797 519.2854442344044 3751.6020408163267 517.1682419659735 3773.3979591836733 518.0756143667295 3795.1938775510203 517.4706994328922 3816.9897959183672 515.0510396975426 3838.785714285714 512.6313799621928 3860.581632653061 511.42155009451795 3882.377551020408 511.42155009451795 3904.173469387755 511.1190926275992 3925.969387755102 510.51417769376184 3947.765306122449 510.21172022684317 3969.5612244897957 509.6068052930057 3991.357142857143 509.6068052930057 4013.1530612244896 508.3969754253308 4034.9489795918366 507.7920604914934 4056.7448979591836 506.88468809073726 4078.5408163265306 506.88468809073726 4100.336734693878 506.2797731568998 4122.132653061224 504.4650283553876 4143.928571428572 504.1625708884688 4165.724489795918 502.9527410207939 4187.5204081632655 498.4158790170132 4209.316326530612 497.81096408317575 4231.1122448979595 497.81096408317575 4252.908163265306 497.5085066162571 4274.7040816326535 496.60113421550096 4296.5 494.48393194706995 4296.5 437.6219281663516 4274.7040816326535 440.64650283553874 4252.908163265306 441.55387523629486 4231.1122448979595 441.8563327032135 4209.316326530612 441.8563327032135 4187.5204081632655 442.7637051039697 4165.724489795918 448.20793950850657 4143.928571428572 449.7202268431002 4122.132653061224 450.022684310019 4100.336734693878 451.8374291115312 4078.5408163265306 452.44234404536866 4056.7448979591836 452.44234404536866 4034.9489795918366 454.2570888468809 4013.1530612244896 455.16446124763706 3991.357142857143 456.6767485822307 3969.5612244897957 457.2816635160681 3947.765306122449 457.8865784499055 3925.969387755102 458.1890359168242 3904.173469387755 458.79395085066153 3882.377551020408 459.0964083175803 3860.581632653061 459.0964083175803 3838.785714285714 460.6086956521739 3816.9897959183672 463.3308128544424 3795.1938775510203 465.75047258979197 3773.3979591836733 466.96030245746675 3751.6020408163267 466.05293005671075 3729.8061224489797 468.17013232514165 3708.0102040816328 467.867674858223 3686.214285714286 468.17013232514165 3664.418367346939 469.3799621928166 3642.622448979592 469.3799621928166 3620.826530612245 473.0094517958412 3599.030612244898 473.9168241965974 3577.234693877551 474.52173913043475 3555.4387755102043 475.4291115311908 3533.6428571428573 476.6389413988657 3511.8469387755104 478.15122873345933 3490.0510204081634 478.7561436672967 3468.2551020408164 480.570888468809 3446.4591836734694 481.7807183364838 3424.6632653061224 482.38563327032136 3402.8673469387754 483.29300567107737 3381.0714285714284 483.59546313799603 3359.2755102040815 484.2003780718336 3337.4795918367345 484.2003780718336 3315.683673469388 484.2003780718336 3293.887755102041 486.3175803402646 3272.091836734694 486.6200378071835 3250.295918367347 487.22495274102084 3228.5 489.64461247637047 3228.5 536.2230623818525Z" fill="#f6a118" opacity="0.9" />
		</g>
		<g>
			<path d="M3228.5 489.64461247637047 3250.295918367347 487.22495274102084 3272.091836734694 486.6200378071835 3293.887755102041 486.3175803402646 3315.683673469388 484.2003780718336 3337.4795918367345 484.2003780718336 3359.2755102040815 484.2003780718336 3381.0714285714284 483.59546313799603 3402.8673469387754 483.29300567107737 3424.6632653061224 482.38563327032136 3446.4591836734694 481.7807183364838 3468.2551020408164 480.570888468809 3490.0510204081634 478.7561436672967 3511.8469387755104 478.15122873345933 3533.6428571428573 476.6389413988657 3555.4387755102043 475.4291115311908 3577.234693877551 474.52173913043475 3599.030612244898 473.9168241965974 3620.826530612245 473.0094517958412 3642.622448979592 469.3799621928166 3664.418367346939 469.3799621928166 3686.214285714286 468.17013232514165 3708.0102040816328 467.867674858223 3729.8061224489797 468.17013232514165 3751.6020408163267 466.05293005671075 3773.3979591836733 466.96030245746675 3795.1938775510203 465.75047258979197 3816.9897959183672 463.3308128544424 3838.785714285714 460.6086956521739 3860.581632653061 459.0964083175803 3882.377551020408 459.0964083175803 3904.173469387755 458.79395085066153 3925.969387755102 458.1890359168242 3947.765306122449 457.8865784499055 3969.5612244897957 457.2816635160681 3991.357142857143 456.6767485822307 4013.1530612244896 455.16446124763706 4034.9489795918366 454.2570888468809 4056.7448979591836 452.44234404536866 4078.5408163265306 452.44234404536866 4100.336734693878 451.8374291115312 4122.132653061224 450.022684310019 4143.928571428572 449.7202268431002 4165.724489795918 448.20793950850657 4187.5204081632655 442.7637051039697 4209.316326530612 441.8563327032135 4231.1122448979595 441.8563327032135 4252.908163265306 441.55387523629486 4274.7040816326535 440.64650283553874 4296.5 437.6219281663516 4296.5 411.00567107750476 4274.7040816326535 414.0302457466919 4252.908163265306 414.937618147448 4231.1122448979595 415.2400756143667 4209.316326530612 415.54253308128534 4187.5204081632655 416.4499054820415 4165.724489795918 421.8941398865784 4143.928571428572 423.406427221172 4122.132653061224 423.7088846880908 4100.336734693878 425.523629489603 4078.5408163265306 426.1285444234405 4056.7448979591836 426.1285444234405 4034.9489795918366 427.9432892249527 4013.1530612244896 428.8506616257089 3991.357142857143 430.3629489603025 3969.5612244897957 430.9678638941399 3947.765306122449 431.57277882797734 3925.969387755102 431.875236294896 3904.173469387755 432.48015122873335 3882.377551020408 432.78260869565213 3860.581632653061 432.78260869565213 3838.785714285714 434.2948960302457 3816.9897959183672 437.0170132325142 3795.1938775510203 439.4366729678638 3773.3979591836733 440.64650283553857 3751.6020408163267 439.73913043478257 3729.8061224489797 442.1587901701322 3708.0102040816328 442.15879017013225 3686.214285714286 442.4612476370509 3664.418367346939 443.6710775047259 3642.622448979592 443.6710775047259 3620.826530612245 447.30056710775045 3599.030612244898 448.2079395085067 3577.234693877551 448.812854442344 3555.4387755102043 449.7202268431001 3533.6428571428573 451.2325141776937 3511.8469387755104 452.7448015122873 3490.0510204081634 453.3497164461247 3468.2551020408164 455.164461247637 3446.4591836734694 456.3742911153118 3424.6632653061224 456.97920604914935 3402.8673469387754 457.88657844990536 3381.0714285714284 458.189035916824 3359.2755102040815 458.7939508506616 3337.4795918367345 458.7939508506616 3315.683673469388 458.7939508506616 3293.887755102041 460.9111531190926 3272.091836734694 461.2136105860115 3250.295918367347 461.81852551984883 3228.5 464.23818525519846 3228.5 489.64461247637047Z" fill="#fdd5a4" opacity="0.9" />
		</g>
		<g>
			<path d="M3228.5 464.23818525519846 3250.295918367347 461.81852551984883 3272.091836734694 461.2136105860115 3293.887755102041 460.9111531190926 3315.683673469388 458.7939508506616 3337.4795918367345 458.7939508506616 3359.2755102040815 458.7939508506616 3381.0714285714284 458.189035916824 3402.8673469387754 457.88657844990536 3424.6632653061224 456.97920604914935 3446.4591836734694 456.3742911153118 3468.2551020408164 455.164461247637 3490.0510204081634 453.3497164461247 3511.8469387755104 452.7448015122873 3533.6428571428573 451.2325141776937 3555.4387755102043 449.7202268431001 3577.234693877551 448.812854442344 3599.030612244898 448.2079395085067 3620.826530612245 447.30056710775045 3642.622448979592 443.6710775047259 3664.418367346939 443.6710775047259 3686.214285714286 442.4612476370509 3708.0102040816328 442.15879017013225 3729.8061224489797 442.1587901701322 3751.6020408163267 439.73913043478257 3773.3979591836733 440.64650283553857 3795.1938775510203 439.4366729678638 3816.9897959183672 437.0170132325142 3838.785714285714 434.2948960302457 3860.581632653061 432.78260869565213 3882.377551020408 432.78260869565213 3904.173469387755 432.48015122873335 3925.969387755102 431.875236294896 3947.765306122449 431.57277882797734 3969.5612244897957 430.9678638941399 3991.357142857143 430.3629489603025 4013.1530612244896 428.8506616257089 4034.9489795918366 427.9432892249527 4056.7448979591836 426.1285444234405 4078.5408163265306 426.1285444234405 4100.336734693878 425.523629489603 4122.132653061224 423.7088846880908 4143.928571428572 423.406427221172 4165.724489795918 421.8941398865784 4187.5204081632655 416.4499054820415 4209.316326530612 415.54253308128534 4231.1122448979595 415.2400756143667 4252.908163265306 414.937618147448 4274.7040816326535 414.0302457466919 4296.5 411.00567107750476 4296.5 398.00000000000006 4274.7040816326535 401.0245746691872 4252.908163265306 401.9319470699433 4231.1122448979595 402.234404536862 4209.316326530612 402.53686200378064 4187.5204081632655 403.4442344045368 4165.724489795918 408.8884688090737 4143.928571428572 410.4007561436673 4122.132653061224 410.7032136105861 4100.336734693878 412.5179584120983 4078.5408163265306 413.1228733459358 4056.7448979591836 413.1228733459358 4034.9489795918366 414.937618147448 4013.1530612244896 415.8449905482042 3991.357142857143 417.3572778827978 3969.5612244897957 417.9621928166352 3947.765306122449 418.56710775047264 3925.969387755102 418.8695652173913 3904.173469387755 419.47448015122865 3882.377551020408 419.77693761814743 3860.581632653061 419.77693761814743 3838.785714285714 421.289224952741 3816.9897959183672 424.0113421550095 3795.1938775510203 426.4310018903591 3773.3979591836733 427.64083175803387 3751.6020408163267 426.73345935727787 3729.8061224489797 429.1531190926275 3708.0102040816328 429.15311909262755 3686.214285714286 429.4555765595462 3664.418367346939 430.66540642722117 3642.622448979592 430.66540642722117 3620.826530612245 434.29489603024575 3599.030612244898 435.202268431002 3577.234693877551 435.8071833648393 3555.4387755102043 436.7145557655954 3533.6428571428573 438.226843100189 3511.8469387755104 439.7391304347826 3490.0510204081634 440.34404536862 3468.2551020408164 442.1587901701323 3446.4591836734694 443.3686200378071 3424.6632653061224 443.97353497164465 3402.8673469387754 444.88090737240066 3381.0714285714284 445.1833648393193 3359.2755102040815 445.7882797731569 3337.4795918367345 445.7882797731569 3315.683673469388 445.7882797731569 3293.887755102041 447.9054820415879 3272.091836734694 448.2079395085068 3250.295918367347 448.81285444234413 3228.5 451.23251417769376 3228.5 464.23818525519846Z" fill="#55c0e9" opacity="0.9" />
		</g>
		<g>
			<rect x="4372" y="431" width="22.9995" height="23" fill="#f48c7d" />
		</g>
		<g>
			<text fill="#595959" font-family="Verdana,Open Sans,DejaVu Sans,sans-serif" font-weight="400" font-size="41" transform="matrix(1 0 0 1 4404.56 454)">Other</text>
		</g>
		<g>
			<rect x="4372" y="508" width="22.9995" height="23" fill="#005aa6" />
		</g>
		<g>
			<text fill="#595959" font-family="Verdana,Open Sans,DejaVu Sans,sans-serif" font-weight="400" font-size="41" transform="matrix(1 0 0 1 4404.56 531)">iOS</text>
		</g>
		<g>
			<rect x="4372" y="585" width="22.9995" height="23" fill="#e62d39" />
		</g>
		<g>
			<text fill="#595959" font-family="Verdana,Open Sans,DejaVu Sans,sans-serif" font-weight="400" font-size="41" transform="matrix(1 0 0 1 4404.56 608)">Android</text>
		</g>
		<g>
			<rect x="4372" y="662" width="22.9995" height="23" fill="#f6a118" />
		</g>
		<g>
			<text fill="#595959" font-family="Verdana,Open Sans,DejaVu Sans,sans-serif" font-weight="400" font-size="41" transform="matrix(1 0 0 1 4404.56 685)">macOS</text>
		</g>
		<g>
			<rect x="4372" y="739" width="22.9995" height="23" fill="#fdd5a4" />
		</g>
		<g>
			<text fill="#595959" font-family="Verdana,Open Sans,DejaVu Sans,sans-serif" font-weight="400" font-size="41" transform="matrix(1 0 0 1 4404.56 762)">Linux</text>
		</g>
		<g>
			<rect x="4372" y="816" width="22.9995" height="23" fill="#55c0e9" />
		</g>
		<g>
			<text fill="#595959" font-family="Verdana,Open Sans,DejaVu Sans,sans-serif" font-weight="400" font-size="41" transform="matrix(1 0 0 1 4404.56 839)">Windows</text>
		</g>
	</g>
</svg>
