<svg width="1763" height="1046"
    xmlns="http://www.w3.org/2000/svg"
	xmlns:xlink="http://www.w3.org/1999/xlink" xml:space="preserve" overflow="hidden">
	<defs>
		<clipPath id="clip0">
			<rect x="2917" y="346" width="1763" height="1046"/>
		</clipPath>
	</defs>
	<g clip-path="url(#clip0)" transform="translate(-2917 -346)">
		<rect x="2918" y="347" width="1760" height="1043" fill="#FFFFFF" />
		<g>
			<path d="
			M3228.5 974.532 4296.5 974.532
			M3228.5 910.53 4296.5 910.53
			M3228.5 846.528 4296.5 846.528
			M3228.5 781.526 4296.5 781.526
			M3228.5 717.524 4296.5 717.524
			M3228.5 653.522 4296.5 653.522
			M3228.5 589.52 4296.5 589.52
			M3228.5 525.517 4296.5 525.517
			M3228.5 461.515 4296.5 461.515
			M3228.5 397.5 4296.5 397.5" stroke="#D9D9D9" stroke-width="3.4375" stroke-linejoin="round" stroke-miterlimit="10" fill="none" />
		</g>
		<g>
			<path d="M 1038.5 4296.5 1038.5" stroke="#D9D9D9" stroke-width="3.4375" stroke-linejoin="round" stroke-miterlimit="10" fill="none" fill-rule="evenodd" />
		</g>
		<g>
			<text fill="#595959" font-family="Verdana,Open Sans,DejaVu Sans,sans-serif" font-weight="400" font-size="41" transform="matrix(6.12323e-17 -1 1 6.12323e-17 3244.275390625 1203.0419921875)">03-Feb</text>
		</g>
		<g>
			<text fill="#595959" font-family="Verdana,Open Sans,DejaVu Sans,sans-serif" font-weight="400" font-size="41" transform="matrix(6.12323e-17 -1 1 6.12323e-17 3329.004697265625 1212.0107421875)">03-Mar</text>
		</g>
		<g>
			<text fill="#595959" font-family="Verdana,Open Sans,DejaVu Sans,sans-serif" font-weight="400" font-size="41" transform="matrix(6.12323e-17 -1 1 6.12323e-17 3414.424677734375 1212.1708984375)">31-Mar</text>
		</g>
		<g>
			<text fill="#595959" font-family="Verdana,Open Sans,DejaVu Sans,sans-serif" font-weight="400" font-size="41" transform="matrix(6.12323e-17 -1 1 6.12323e-17 3504.589287109375 1203.3022384643555)">28-Apr</text>
		</g>
		<g>
			<text fill="#595959" font-family="Verdana,Open Sans,DejaVu Sans,sans-serif" font-weight="400" font-size="41" transform="matrix(6.12323e-17 -1 1 6.12323e-17 3590.029287109375 1216.51513671875)">26-May</text>
		</g>
		<g>
			<text fill="#595959" font-family="Verdana,Open Sans,DejaVu Sans,sans-serif" font-weight="400" font-size="41" transform="matrix(6.12323e-17 -1 1 6.12323e-17 3674.41826171875 1194.1733322143555)">30-Jun</text>
		</g>
		<g>
			<text fill="#595959" font-family="Verdana,Open Sans,DejaVu Sans,sans-serif" font-weight="400" font-size="41" transform="matrix(6.12323e-17 -1 1 6.12323e-17 3760.568955078125 1179.0385665893555)">28-Jul</text>
		</g>
		<g>
			<text fill="#595959" font-family="Verdana,Open Sans,DejaVu Sans,sans-serif" font-weight="400" font-size="41" transform="matrix(6.12323e-17 -1 1 6.12323e-17 3846.349287109375 1208.66748046875)">25-Aug</text>
		</g>
		<g>
			<text fill="#595959" font-family="Verdana,Open Sans,DejaVu Sans,sans-serif" font-weight="400" font-size="41" transform="matrix(6.12323e-17 -1 1 6.12323e-17 3931.789287109375 1204.42333984375)">22-Sep</text>
		</g>
		<g>
			<text fill="#595959" font-family="Verdana,Open Sans,DejaVu Sans,sans-serif" font-weight="400" font-size="41" transform="matrix(6.12323e-17 -1 1 6.12323e-17 4012.524697265625 1201.1401290893555)">20-Oct</text>
		</g>
		<g>
			<text fill="#595959" font-family="Verdana,Open Sans,DejaVu Sans,sans-serif" font-weight="400" font-size="41" transform="matrix(6.12323e-17 -1 1 6.12323e-17 4097.73447265625 1209.70849609375)">17-Nov</text>
		</g>
		<g>
			<text fill="#595959" font-family="Verdana,Open Sans,DejaVu Sans,sans-serif" font-weight="400" font-size="41" transform="matrix(6.12323e-17 -1 1 6.12323e-17 4183.17447265625 1205.3642578125)">15-Dec</text>
		</g>
		<g>
			<text fill="#595959" font-family="Verdana,Open Sans,DejaVu Sans,sans-serif" font-weight="400" font-size="41" transform="matrix(6.12323e-17 -1 1 6.12323e-17 4272.4782421875 1189.9291915893555)">12-Jan</text>
		</g>
		<g>
			<text fill="#595959" font-family="Verdana,Open Sans,DejaVu Sans,sans-serif" font-weight="400" font-size="41" transform="matrix(1 0 0 1 3169.14111328125 1050)">0</text>
		</g>
		<g>
			<text fill="#595959" font-family="Verdana,Open Sans,DejaVu Sans,sans-serif" font-weight="400" font-size="41" transform="matrix(1 0 0 1 3121.1142578125 922)">427</text>
		</g>
		<g>
			<text fill="#595959" font-family="Verdana,Open Sans,DejaVu Sans,sans-serif" font-weight="400" font-size="41" transform="matrix(1 0 0 1 3122.61572265625 794)">855</text>
		</g>
		<g>
			<text fill="#595959" font-family="Verdana,Open Sans,DejaVu Sans,sans-serif" font-weight="400" font-size="41" transform="matrix(1 0 0 1 3090.64453125 666)">1,282</text>
		</g>
		<g>
			<text fill="#595959" font-family="Verdana,Open Sans,DejaVu Sans,sans-serif" font-weight="400" font-size="41" transform="matrix(1 0 0 1 3090.484375 538)">1,710</text>
		</g>
		<g>
			<text fill="#595959" font-family="Verdana,Open Sans,DejaVu Sans,sans-serif" font-weight="400" font-size="41" transform="matrix(1 0 0 1 3088.7626953125 410)">2,137</text>
		</g>
		<g>
			<text fill="#595959" font-family="Verdana,Open Sans,DejaVu Sans,sans-serif" font-weight="400" font-size="41" transform="matrix(1 0 0 1 3556.97119140625 1321)">Week Commencing</text>
		</g>
		<g>
			<text fill="#595959" font-family="Verdana,Open Sans,DejaVu Sans,sans-serif" font-weight="400" font-size="46" transform="matrix(6.12323e-17 -1 1 6.12323e-17 3019.73 953.7919921875)">Number of OS Profiles</text>
		</g>
		<rect x="2918.5" y="347.5" width="1760" height="1043" stroke="#D9D9D9" stroke-width="3.4375" stroke-linejoin="round" stroke-miterlimit="10" fill="none" />
		<g>
			<path d="M3228.5 1038 3249.86 1038 3271.22 1038 3292.58 1038 3313.94 1038 3335.3 1038 3356.66 1038 3378.02 1038 3399.38 1038 3420.74 1038 3442.1 1038 3463.46 1038 3484.82 1038 3506.18 1038 3527.54 1038 3548.9 1038 3570.26 1038 3591.62 1038 3612.98 1038 3634.34 1038 3655.7 1038 3677.06 1038 3698.42 1038 3719.7799999999997 1038 3741.14 1038 3762.5 1038 3783.86 1038 3805.2200000000003 1038 3826.58 1038 3847.94 1038 3869.3 1038 3890.66 1038 3912.02 1038 3933.38 1038 3954.74 1038 3976.1 1038 3997.46 1038 4018.8199999999997 1038 4040.18 1038 4061.54 1038 4082.9 1038 4104.26 1038 4125.62 1038 4146.98 1038 4168.34 1038 4189.7 1038 4211.0599999999995 1038 4232.42 1038 4253.78 1038 4275.139999999999 1038 4296.5 1038 4296.5 702.8759943846514 4275.139999999999 703.1754796443613 4253.78 703.4749649040712 4232.42 703.4749649040712 4211.0599999999995 704.0739354234909 4189.7 704.3734206832007 4168.34 704.9723912026204 4146.98 704.9723912026204 4125.62 705.2718764623303 4104.26 705.5713617220403 4082.9 705.8708469817501 4061.54 706.7693027608798 4040.18 707.6677585400093 4018.8199999999997 707.9672437997192 3997.46 708.266729059429 3976.1 708.266729059429 3954.74 708.8656995788488 3933.38 710.3631258773983 3912.02 711.2615816565278 3890.66 711.5610669162377 3869.3 711.5610669162377 3847.94 711.8605521759475 3826.58 711.8605521759475 3805.2200000000003 711.8605521759475 3783.86 712.1600374356574 3762.5 713.0584932147871 3741.14 713.0584932147871 3719.7799999999997 713.357978474497 3698.42 713.6574637342069 3677.06 714.2564342536266 3655.7 714.5559195133364 3634.34 714.5559195133364 3612.98 715.1548900327562 3591.62 716.6523163313055 3570.26 718.7487131492746 3548.9 718.7487131492746 3527.54 718.7487131492746 3506.18 719.0481984089845 3484.82 718.7487131492746 3463.46 719.0481984089845 3442.1 719.3476836686943 3420.74 719.3476836686943 3399.38 720.246139447824 3378.02 720.8451099672438 3356.66 721.4440804866636 3335.3 721.4440804866636 3313.94 722.642021525503 3292.58 723.2409920449228 3271.22 723.2409920449228 3249.86 723.8399625643425 3228.5 724.4389330837623 3228.5 1038Z" fill="#f48c7d" opacity="0.9" />
		</g>
		<g>
			<path d="M3228.5 724.4389330837623 3249.86 723.8399625643425 3271.22 723.2409920449228 3292.58 723.2409920449228 3313.94 722.642021525503 3335.3 721.4440804866636 3356.66 721.4440804866636 3378.02 720.8451099672438 3399.38 720.246139447824 3420.74 719.3476836686943 3442.1 719.3476836686943 3463.46 719.0481984089845 3484.82 718.7487131492746 3506.18 719.0481984089845 3527.54 718.7487131492746 3548.9 718.7487131492746 3570.26 718.7487131492746 3591.62 716.6523163313055 3612.98 715.1548900327562 3634.34 714.5559195133364 3655.7 714.5559195133364 3677.06 714.2564342536266 3698.42 713.6574637342069 3719.7799999999997 713.357978474497 3741.14 713.0584932147871 3762.5 713.0584932147871 3783.86 712.1600374356574 3805.2200000000003 711.8605521759475 3826.58 711.8605521759475 3847.94 711.8605521759475 3869.3 711.5610669162377 3890.66 711.5610669162377 3912.02 711.2615816565278 3933.38 710.3631258773983 3954.74 708.8656995788488 3976.1 708.266729059429 3997.46 708.266729059429 4018.8199999999997 707.9672437997192 4040.18 707.6677585400093 4061.54 706.7693027608798 4082.9 705.8708469817501 4104.26 705.5713617220403 4125.62 705.2718764623303 4146.98 704.9723912026204 4168.34 704.9723912026204 4189.7 704.3734206832007 4211.0599999999995 704.0739354234909 4232.42 703.4749649040712 4253.78 703.4749649040712 4275.139999999999 703.1754796443613 4296.5 702.8759943846514 4296.5 550.7374824520357 4275.139999999999 551.0369677117455 4253.78 551.6359382311653 4232.42 551.6359382311653 4211.0599999999995 552.234908750585 4189.7 552.5343940102948 4168.34 554.6307908282638 4146.98 553.7323350491342 4125.62 554.6307908282638 4104.26 554.9302760879738 4082.9 555.2297613476836 4061.54 556.1282171268133 4040.18 558.2246139447824 4018.8199999999997 559.123069723912 3997.46 559.4225549836218 3976.1 559.4225549836218 3954.74 560.0215255030415 3933.38 564.5138043986898 3912.02 565.7117454375292 3890.66 566.0112306972391 3869.3 567.8081422554983 3847.94 568.407112774918 3826.58 568.407112774918 3805.2200000000003 569.3055685540477 3783.86 569.9045390734674 3762.5 571.1024801123069 3741.14 571.1024801123069 3719.7799999999997 571.7014506317269 3698.42 572.0009358914367 3677.06 572.5999064108564 3655.7 572.8993916705663 3634.34 572.8993916705663 3612.98 574.0973327094057 3591.62 576.4932147870846 3570.26 578.8890968647636 3548.9 579.4880673841834 3527.54 578.5896116050537 3506.18 580.6860084230228 3484.82 580.386523163313 3463.46 580.6860084230228 3442.1 581.5844642021525 3420.74 581.5844642021525 3399.38 584.2798315395414 3378.02 585.1782873186711 3356.66 585.7772578380908 3335.3 586.3762283575105 3313.94 587.5741693963499 3292.58 588.7721104351895 3271.22 588.7721104351895 3249.86 590.2695367337388 3228.5 590.8685072531587 3228.5 724.4389330837623Z" fill="#005aa6" opacity="0.9" />
		</g>
		<g>
			<path d="M3228.5 590.8685072531587 3249.86 590.2695367337388 3271.22 588.7721104351895 3292.58 588.7721104351895 3313.94 587.5741693963499 3335.3 586.3762283575105 3356.66 585.7772578380908 3378.02 585.1782873186711 3399.38 584.2798315395414 3420.74 581.5844642021525 3442.1 581.5844642021525 3463.46 580.6860084230228 3484.82 580.386523163313 3506.18 580.6860084230228 3527.54 578.5896116050537 3548.9 579.4880673841834 3570.26 578.8890968647636 3591.62 576.4932147870846 3612.98 574.0973327094057 3634.34 572.8993916705663 3655.7 572.8993916705663 3677.06 572.5999064108564 3698.42 572.0009358914367 3719.7799999999997 571.7014506317269 3741.14 571.1024801123069 3762.5 571.1024801123069 3783.86 569.9045390734674 3805.2200000000003 569.3055685540477 3826.58 568.407112774918 3847.94 568.407112774918 3869.3 567.8081422554983 3890.66 566.0112306972391 3912.02 565.7117454375292 3933.38 564.5138043986898 3954.74 560.0215255030415 3976.1 559.4225549836218 3997.46 559.4225549836218 4018.8199999999997 559.123069723912 4040.18 558.2246139447824 4061.54 556.1282171268133 4082.9 555.2297613476836 4104.26 554.9302760879738 4125.62 554.6307908282638 4146.98 553.7323350491342 4168.34 554.6307908282638 4189.7 552.5343940102948 4211.0599999999995 552.234908750585 4232.42 551.6359382311653 4253.78 551.6359382311653 4275.139999999999 551.0369677117455 4296.5 550.7374824520357 4296.5 493.5357978474498 4275.139999999999 493.8352831071597 4253.78 494.4342536265794 4232.42 494.4342536265794 4211.0599999999995 495.0332241459991 4189.7 495.33270940570895 4168.34 497.7285914833878 4146.98 496.8301357042582 4125.62 497.7285914833878 4104.26 498.02807674309776 4082.9 498.3275620028076 4061.54 499.82498830135705 4040.18 502.81984089845577 4018.8199999999997 503.71829667758533 3997.46 504.0177819372952 3976.1 504.0177819372952 3954.74 504.91623771642475 3933.38 510.30697239120263 3912.02 511.80439868975196 3890.66 512.1038839494618 3869.3 513.900795507721 3847.94 514.4997660271407 3826.58 514.4997660271407 3805.2200000000003 516.2966775854001 3783.86 517.1951333645296 3762.5 518.692559663079 3741.14 519.2915301824987 3719.7799999999997 519.8905007019187 3698.42 520.1899859616285 3677.06 520.7889564810482 3655.7 521.0884417407581 3634.34 521.0884417407581 3612.98 522.5858680393075 3591.62 525.2812353766963 3570.26 527.6771174543752 3548.9 528.8750584932147 3527.54 527.9766027140851 3506.18 530.0729995320542 3484.82 529.7735142723443 3463.46 530.0729995320542 3442.1 531.2709405708937 3420.74 531.2709405708937 3399.38 534.8647636874123 3378.02 535.763219466542 3356.66 536.3621899859617 3335.3 537.2606457650912 3313.94 538.4585868039306 3292.58 539.95601310248 3271.22 540.5549836218999 3249.86 542.3518951801591 3228.5 543.5498362189986 3228.5 590.8685072531587Z" fill="#f6a118" opacity="0.9" />
		</g>
		<g>
			<path d="M3228.5 543.5498362189986 3249.86 542.3518951801591 3271.22 540.5549836218999 3292.58 539.95601310248 3313.94 538.4585868039306 3335.3 537.2606457650912 3356.66 536.3621899859617 3378.02 535.763219466542 3399.38 534.8647636874123 3420.74 531.2709405708937 3442.1 531.2709405708937 3463.46 530.0729995320542 3484.82 529.7735142723443 3506.18 530.0729995320542 3527.54 527.9766027140851 3548.9 528.8750584932147 3570.26 527.6771174543752 3591.62 525.2812353766963 3612.98 522.5858680393075 3634.34 521.0884417407581 3655.7 521.0884417407581 3677.06 520.7889564810482 3698.42 520.1899859616285 3719.7799999999997 519.8905007019187 3741.14 519.2915301824987 3762.5 518.692559663079 3783.86 517.1951333645296 3805.2200000000003 516.2966775854001 3826.58 514.4997660271407 3847.94 514.4997660271407 3869.3 513.900795507721 3890.66 512.1038839494618 3912.02 511.80439868975196 3933.38 510.30697239120263 3954.74 504.91623771642475 3976.1 504.0177819372952 3997.46 504.0177819372952 4018.8199999999997 503.71829667758533 4040.18 502.81984089845577 4061.54 499.82498830135705 4082.9 498.3275620028076 4104.26 498.02807674309776 4125.62 497.7285914833878 4146.98 496.8301357042582 4168.34 497.7285914833878 4189.7 495.33270940570895 4211.0599999999995 495.0332241459991 4232.42 494.4342536265794 4253.78 494.4342536265794 4275.139999999999 493.8352831071597 4296.5 493.5357978474498 4296.5 437.2325690219936 4275.139999999999 437.53205428170344 4253.78 438.13102480112315 4232.42 438.13102480112315 4211.0599999999995 438.72999532054286 4189.7 439.0294805802527 4168.34 441.42536265793154 4146.98 440.526906878802 4125.62 441.42536265793154 4104.26 441.7248479176415 4082.9 442.02433317735137 4061.54 443.5217594759008 4040.18 446.5166120729995 4018.8199999999997 447.4150678521291 3997.46 447.71455311183894 3976.1 447.71455311183894 3954.74 448.6130088909685 3933.38 454.0037435657464 3912.02 455.5011698642957 3890.66 455.8006551240055 3869.3 457.59756668226476 3847.94 458.19653720168446 3826.58 458.19653720168446 3805.2200000000003 459.9934487599438 3783.86 460.8919045390734 3762.5 462.38933083762277 3741.14 462.9883013570425 3719.7799999999997 463.5872718764624 3698.42 463.88675713617226 3677.06 464.485727655592 3655.7 464.7852129153018 3634.34 464.7852129153018 3612.98 466.2826392138512 3591.62 468.97800655124 3570.26 471.37388862891896 3548.9 472.5718296677585 3527.54 471.6733738886288 3506.18 473.7697707065979 3484.82 473.47028544688806 3463.46 473.7697707065979 3442.1 474.96771174543744 3420.74 474.96771174543744 3399.38 478.56153486195603 3378.02 479.4599906410857 3356.66 480.0589611605054 3335.3 480.957416939635 3313.94 482.1553579784744 3292.58 483.6527842770238 3271.22 484.2517547964436 3249.86 486.04866635470285 3228.5 487.2466073935424 3228.5 543.5498362189986Z" fill="#e62d39" opacity="0.9" />
		</g>
		<g>
			<path d="M3228.5 487.2466073935424 3249.86 486.04866635470285 3271.22 484.2517547964436 3292.58 483.6527842770238 3313.94 482.1553579784744 3335.3 480.957416939635 3356.66 480.0589611605054 3378.02 479.4599906410857 3399.38 478.56153486195603 3420.74 474.96771174543744 3442.1 474.96771174543744 3463.46 473.7697707065979 3484.82 473.47028544688806 3506.18 473.7697707065979 3527.54 471.6733738886288 3548.9 472.5718296677585 3570.26 471.37388862891896 3591.62 468.97800655124 3612.98 466.2826392138512 3634.34 464.7852129153018 3655.7 464.7852129153018 3677.06 464.485727655592 3698.42 463.88675713617226 3719.7799999999997 463.5872718764624 3741.14 462.9883013570425 3762.5 462.38933083762277 3783.86 460.8919045390734 3805.2200000000003 459.9934487599438 3826.58 458.19653720168446 3847.94 458.19653720168446 3869.3 457.59756668226476 3890.66 455.8006551240055 3912.02 455.5011698642957 3933.38 454.0037435657464 3954.74 448.6130088909685 3976.1 447.71455311183894 3997.46 447.71455311183894 4018.8199999999997 447.4150678521291 4040.18 446.5166120729995 4061.54 443.5217594759008 4082.9 442.02433317735137 4104.26 441.7248479176415 4125.62 441.42536265793154 4146.98 440.526906878802 4168.34 441.42536265793154 4189.7 439.0294805802527 4211.0599999999995 438.72999532054286 4232.42 438.13102480112315 4253.78 438.13102480112315 4275.139999999999 437.53205428170344 4296.5 437.2325690219936 4296.5 410.8778661675247 4275.139999999999 411.17735142723456 4253.78 411.77632194665426 4232.42 411.77632194665426 4211.0599999999995 412.375292466074 4189.7 412.6747777257838 4168.34 415.07065980346266 4146.98 414.1722040243331 4125.62 415.07065980346266 4104.26 415.37014506317263 4082.9 415.6696303228825 4061.54 417.1670566214319 4040.18 420.16190921853064 4018.8199999999997 421.0603649976602 3997.46 421.35985025737006 3976.1 421.6593355170799 3954.74 422.5577912962095 3933.38 427.94852597098736 3912.02 429.4459522695367 3890.66 429.7454375292465 3869.3 431.5423490875057 3847.94 432.14131960692544 3826.58 432.14131960692544 3805.2200000000003 433.9382311651848 3783.86 434.83668694431435 3762.5 436.33411324286374 3741.14 436.93308376228345 3719.7799999999997 437.5320542817034 3698.42 437.83153954141324 3677.06 438.43051006083294 3655.7 438.7299953205428 3634.34 438.7299953205428 3612.98 440.2274216190922 3591.62 442.922788956481 3570.26 445.31867103415993 3548.9 446.51661207299946 3527.54 445.6181562938698 3506.18 448.0140383715488 3484.82 448.0140383715488 3463.46 448.31352363125865 3442.1 449.5114646700982 3420.74 449.5114646700982 3399.38 453.10528778661677 3378.02 454.00374356574645 3356.66 454.60271408516616 3335.3 455.5011698642957 3313.94 456.998596162845 3292.58 458.4960224613944 3271.22 459.0949929808142 3249.86 460.89190453907344 3228.5 462.08984557791297 3228.5 487.2466073935424Z" fill="#fdd5a4" opacity="0.9" />
		</g>
		<g>
			<path d="M3228.5 462.08984557791297 3249.86 460.89190453907344 3271.22 459.0949929808142 3292.58 458.4960224613944 3313.94 456.998596162845 3335.3 455.5011698642957 3356.66 454.60271408516616 3378.02 454.00374356574645 3399.38 453.10528778661677 3420.74 449.5114646700982 3442.1 449.5114646700982 3463.46 448.31352363125865 3484.82 448.0140383715488 3506.18 448.0140383715488 3527.54 445.6181562938698 3548.9 446.51661207299946 3570.26 445.31867103415993 3591.62 442.922788956481 3612.98 440.2274216190922 3634.34 438.7299953205428 3655.7 438.7299953205428 3677.06 438.43051006083294 3698.42 437.83153954141324 3719.7799999999997 437.5320542817034 3741.14 436.93308376228345 3762.5 436.33411324286374 3783.86 434.83668694431435 3805.2200000000003 433.9382311651848 3826.58 432.14131960692544 3847.94 432.14131960692544 3869.3 431.5423490875057 3890.66 429.7454375292465 3912.02 429.4459522695367 3933.38 427.94852597098736 3954.74 422.5577912962095 3976.1 421.6593355170799 3997.46 421.35985025737006 4018.8199999999997 421.0603649976602 4040.18 420.16190921853064 4061.54 417.1670566214319 4082.9 415.6696303228825 4104.26 415.37014506317263 4125.62 415.07065980346266 4146.98 414.1722040243331 4168.34 415.07065980346266 4189.7 412.6747777257838 4211.0599999999995 412.375292466074 4232.42 411.77632194665426 4253.78 411.77632194665426 4275.139999999999 411.17735142723456 4296.5 410.8778661675247 4296.5 398.0000000000001 4275.139999999999 398.29948525970997 4253.78 398.8984557791297 4232.42 398.8984557791297 4211.0599999999995 399.4974262985494 4189.7 399.79691155825924 4168.34 402.1927936359381 4146.98 401.2943378568085 4125.62 402.1927936359381 4104.26 402.49227889564804 4082.9 402.7917641553579 4061.54 404.28919045390734 4040.18 407.28404305100605 4018.8199999999997 408.1824988301356 3997.46 408.48198408984547 3976.1 408.7814693495553 3954.74 409.6799251286849 3933.38 415.0706598034628 3912.02 416.5680861020121 3890.66 416.8675713617219 3869.3 418.66448291998114 3847.94 419.26345343940085 3826.58 419.26345343940085 3805.2200000000003 421.0603649976602 3783.86 421.95882077678976 3762.5 423.45624707533915 3741.14 424.05521759475886 3719.7799999999997 424.6541881141788 3698.42 424.95367337388865 3677.06 425.55264389330836 3655.7 425.8521291530182 3634.34 425.8521291530182 3612.98 427.3495554515676 3591.62 430.0449227889564 3570.26 432.44080486663535 3548.9 433.6387459054749 3527.54 432.7402901263452 3506.18 435.1361722040242 3484.82 435.1361722040242 3463.46 435.43565746373406 3442.1 436.6335985025736 3420.74 436.6335985025736 3399.38 440.2274216190922 3378.02 441.12587739822186 3356.66 441.72484791764157 3335.3 442.62330369677113 3313.94 444.1207299953204 3292.58 445.6181562938698 3271.22 446.2171268132896 3249.86 448.01403837154885 3228.5 449.2119794103884 3228.5 462.08984557791297Z" fill="#55c0e9" opacity="0.9" />
		</g>
		<g>
			<rect x="4372" y="431" width="22.9995" height="23" fill="#f48c7d" />
		</g>
		<g>
			<text fill="#595959" font-family="Verdana,Open Sans,DejaVu Sans,sans-serif" font-weight="400" font-size="41" transform="matrix(1 0 0 1 4404.56 454)">Other</text>
		</g>
		<g>
			<rect x="4372" y="508" width="22.9995" height="23" fill="#005aa6" />
		</g>
		<g>
			<text fill="#595959" font-family="Verdana,Open Sans,DejaVu Sans,sans-serif" font-weight="400" font-size="41" transform="matrix(1 0 0 1 4404.56 531)">iOS</text>
		</g>
		<g>
			<rect x="4372" y="585" width="22.9995" height="23" fill="#f6a118" />
		</g>
		<g>
			<text fill="#595959" font-family="Verdana,Open Sans,DejaVu Sans,sans-serif" font-weight="400" font-size="41" transform="matrix(1 0 0 1 4404.56 608)">macOS</text>
		</g>
		<g>
			<rect x="4372" y="662" width="22.9995" height="23" fill="#e62d39" />
		</g>
		<g>
			<text fill="#595959" font-family="Verdana,Open Sans,DejaVu Sans,sans-serif" font-weight="400" font-size="41" transform="matrix(1 0 0 1 4404.56 685)">Android</text>
		</g>
		<g>
			<rect x="4372" y="739" width="22.9995" height="23" fill="#fdd5a4" />
		</g>
		<g>
			<text fill="#595959" font-family="Verdana,Open Sans,DejaVu Sans,sans-serif" font-weight="400" font-size="41" transform="matrix(1 0 0 1 4404.56 762)">Linux</text>
		</g>
		<g>
			<rect x="4372" y="816" width="22.9995" height="23" fill="#55c0e9" />
		</g>
		<g>
			<text fill="#595959" font-family="Verdana,Open Sans,DejaVu Sans,sans-serif" font-weight="400" font-size="41" transform="matrix(1 0 0 1 4404.56 839)">Windows</text>
		</g>
	</g>
</svg>
