<svg width="1763" height="1046"
    xmlns="http://www.w3.org/2000/svg"
	xmlns:xlink="http://www.w3.org/1999/xlink" xml:space="preserve" overflow="hidden">
	<defs>
		<clipPath id="clip0">
			<rect x="2917" y="346" width="1763" height="1046"/>
		</clipPath>
	</defs>
	<g clip-path="url(#clip0)" transform="translate(-2917 -346)">
		<rect x="2918" y="347" width="1760" height="1043" fill="#FFFFFF" />
		<g>
			<path d="
			M3228.5 974.532 4296.5 974.532
			M3228.5 910.53 4296.5 910.53
			M3228.5 846.528 4296.5 846.528
			M3228.5 781.526 4296.5 781.526
			M3228.5 717.524 4296.5 717.524
			M3228.5 653.522 4296.5 653.522
			M3228.5 589.52 4296.5 589.52
			M3228.5 525.517 4296.5 525.517
			M3228.5 461.515 4296.5 461.515
			M3228.5 397.5 4296.5 397.5" stroke="#D9D9D9" stroke-width="3.4375" stroke-linejoin="round" stroke-miterlimit="10" fill="none" />
		</g>
		<g>
			<path d="M 1038.5 4296.5 1038.5" stroke="#D9D9D9" stroke-width="3.4375" stroke-linejoin="round" stroke-miterlimit="10" fill="none" fill-rule="evenodd" />
		</g>
		<g>
			<text fill="#595959" font-family="Verdana,Open Sans,DejaVu Sans,sans-serif" font-weight="400" font-size="41" transform="matrix(6.12323e-17 -1 1 6.12323e-17 3243.33447265625 1210.2890625)">17-Mar</text>
		</g>
		<g>
			<text fill="#595959" font-family="Verdana,Open Sans,DejaVu Sans,sans-serif" font-weight="400" font-size="41" transform="matrix(6.12323e-17 -1 1 6.12323e-17 3333.57916015625 1201.5405197143555)">14-Apr</text>
		</g>
		<g>
			<text fill="#595959" font-family="Verdana,Open Sans,DejaVu Sans,sans-serif" font-weight="400" font-size="41" transform="matrix(6.12323e-17 -1 1 6.12323e-17 3419.149287109375 1214.75341796875)">12-May</text>
		</g>
		<g>
			<text fill="#595959" font-family="Verdana,Open Sans,DejaVu Sans,sans-serif" font-weight="400" font-size="41" transform="matrix(6.12323e-17 -1 1 6.12323e-17 3503.5182421875 1192.2914962768555)">16-Jun</text>
		</g>
		<g>
			<text fill="#595959" font-family="Verdana,Open Sans,DejaVu Sans,sans-serif" font-weight="400" font-size="41" transform="matrix(6.12323e-17 -1 1 6.12323e-17 3589.688955078125 1177.2768478393555)">14-Jul</text>
		</g>
		<g>
			<text fill="#595959" font-family="Verdana,Open Sans,DejaVu Sans,sans-serif" font-weight="400" font-size="41" transform="matrix(6.12323e-17 -1 1 6.12323e-17 3675.319140625 1206.90576171875)">11-Aug</text>
		</g>
		<g>
			<text fill="#595959" font-family="Verdana,Open Sans,DejaVu Sans,sans-serif" font-weight="400" font-size="41" transform="matrix(6.12323e-17 -1 1 6.12323e-17 3760.929306640625 1204.38330078125)">08-Sep</text>
		</g>
		<g>
			<text fill="#595959" font-family="Verdana,Open Sans,DejaVu Sans,sans-serif" font-weight="400" font-size="41" transform="matrix(6.12323e-17 -1 1 6.12323e-17 3841.644697265625 1201.1000900268555)">06-Oct</text>
		</g>
		<g>
			<text fill="#595959" font-family="Verdana,Open Sans,DejaVu Sans,sans-serif" font-weight="400" font-size="41" transform="matrix(6.12323e-17 -1 1 6.12323e-17 3927.084697265625 1211.43017578125)">03-Nov</text>
		</g>
		<g>
			<text fill="#595959" font-family="Verdana,Open Sans,DejaVu Sans,sans-serif" font-weight="400" font-size="41" transform="matrix(6.12323e-17 -1 1 6.12323e-17 4012.524697265625 1207.0859375)">01-Dec</text>
		</g>
		<g>
			<text fill="#595959" font-family="Verdana,Open Sans,DejaVu Sans,sans-serif" font-weight="400" font-size="41" transform="matrix(6.12323e-17 -1 1 6.12323e-17 4097.944677734375 1207.1259765625)">29-Dec</text>
		</g>
		<g>
			<text fill="#595959" font-family="Verdana,Open Sans,DejaVu Sans,sans-serif" font-weight="400" font-size="41" transform="matrix(6.12323e-17 -1 1 6.12323e-17 4187.0382421875 1191.6909103393555)">26-Jan</text>
		</g>
		<g>
			<text fill="#595959" font-family="Verdana,Open Sans,DejaVu Sans,sans-serif" font-weight="400" font-size="41" transform="matrix(6.12323e-17 -1 1 6.12323e-17 4269.555390625 1203.08203125)">23-Feb</text>
		</g>
		<g>
			<text fill="#595959" font-family="Verdana,Open Sans,DejaVu Sans,sans-serif" font-weight="400" font-size="41" transform="matrix(1 0 0 1 3169.14111328125 1050)">0</text>
		</g>
		<g>
			<text fill="#595959" font-family="Verdana,Open Sans,DejaVu Sans,sans-serif" font-weight="400" font-size="41" transform="matrix(1 0 0 1 3121.0341796875 922)">436</text>
		</g>
		<g>
			<text fill="#595959" font-family="Verdana,Open Sans,DejaVu Sans,sans-serif" font-weight="400" font-size="41" transform="matrix(1 0 0 1 3122.65576171875 794)">873</text>
		</g>
		<g>
			<text fill="#595959" font-family="Verdana,Open Sans,DejaVu Sans,sans-serif" font-weight="400" font-size="41" transform="matrix(1 0 0 1 3090.64453125 666)">1,309</text>
		</g>
		<g>
			<text fill="#595959" font-family="Verdana,Open Sans,DejaVu Sans,sans-serif" font-weight="400" font-size="41" transform="matrix(1 0 0 1 3090.4443359375 538)">1,746</text>
		</g>
		<g>
			<text fill="#595959" font-family="Verdana,Open Sans,DejaVu Sans,sans-serif" font-weight="400" font-size="41" transform="matrix(1 0 0 1 3088.8828125 410)">2,182</text>
		</g>
		<g>
			<text fill="#595959" font-family="Verdana,Open Sans,DejaVu Sans,sans-serif" font-weight="400" font-size="41" transform="matrix(1 0 0 1 3556.97119140625 1321)">Week Commencing</text>
		</g>
		<g>
			<text fill="#595959" font-family="Verdana,Open Sans,DejaVu Sans,sans-serif" font-weight="400" font-size="46" transform="matrix(6.12323e-17 -1 1 6.12323e-17 3019.73 953.7919921875)">Number of OS Profiles</text>
		</g>
		<rect x="2918.5" y="347.5" width="1760" height="1043" stroke="#D9D9D9" stroke-width="3.4375" stroke-linejoin="round" stroke-miterlimit="10" fill="none" />
		<g>
			<path d="M3228.5 1038 3249.86 1038 3271.22 1038 3292.58 1038 3313.94 1038 3335.3 1038 3356.66 1038 3378.02 1038 3399.38 1038 3420.74 1038 3442.1 1038 3463.46 1038 3484.82 1038 3506.18 1038 3527.54 1038 3548.9 1038 3570.26 1038 3591.62 1038 3612.98 1038 3634.34 1038 3655.7 1038 3677.06 1038 3698.42 1038 3719.7799999999997 1038 3741.14 1038 3762.5 1038 3783.86 1038 3805.2200000000003 1038 3826.58 1038 3847.94 1038 3869.3 1038 3890.66 1038 3912.02 1038 3933.38 1038 3954.74 1038 3976.1 1038 3997.46 1038 4018.8199999999997 1038 4040.18 1038 4061.54 1038 4082.9 1038 4104.26 1038 4125.62 1038 4146.98 1038 4168.34 1038 4189.7 1038 4211.0599999999995 1038 4232.42 1038 4253.78 1038 4275.139999999999 1038 4296.5 1038 4296.5 705.974335472044 4275.139999999999 706.2676443629698 4253.78 706.5609532538955 4232.42 707.4408799266728 4211.0599999999995 708.0274977085244 4189.7 708.9074243813016 4168.34 709.7873510540788 4146.98 710.0806599450045 4125.62 710.3739688359303 4104.26 710.3739688359303 4082.9 710.9605866177819 4061.54 711.2538955087076 4040.18 711.8405132905591 4018.8199999999997 711.8405132905591 3997.46 712.1338221814849 3976.1 712.4271310724107 3954.74 712.7204399633364 3933.38 713.6003666361137 3912.02 714.4802933088909 3890.66 714.7736021998167 3869.3 715.0669110907425 3847.94 715.0669110907425 3826.58 715.6535288725939 3805.2200000000003 717.1200733272227 3783.86 718 3762.5 718.2933088909258 3741.14 718.2933088909258 3719.7799999999997 718.5866177818516 3698.42 718.5866177818516 3677.06 718.5866177818516 3655.7 718.8799266727773 3634.34 719.7598533455546 3612.98 719.7598533455546 3591.62 720.0531622364804 3570.26 720.3464711274061 3548.9 720.9330889092575 3527.54 721.2263978001833 3506.18 721.2263978001833 3484.82 721.8130155820348 3463.46 723.2795600366636 3442.1 725.3327222731439 3420.74 725.3327222731439 3399.38 725.3327222731439 3378.02 725.6260311640697 3356.66 725.3327222731439 3335.3 725.6260311640697 3313.94 725.9193400549955 3292.58 725.9193400549955 3271.22 726.7992667277726 3249.86 727.3858845096242 3228.5 727.9725022914757 3228.5 1038Z" fill="#f48c7d" opacity="0.9" />
		</g>
		<g>
			<path d="M3228.5 727.9725022914757 3249.86 727.3858845096242 3271.22 726.7992667277726 3292.58 725.9193400549955 3313.94 725.9193400549955 3335.3 725.6260311640697 3356.66 725.3327222731439 3378.02 725.6260311640697 3399.38 725.3327222731439 3420.74 725.3327222731439 3442.1 725.3327222731439 3463.46 723.2795600366636 3484.82 721.8130155820348 3506.18 721.2263978001833 3527.54 721.2263978001833 3548.9 720.9330889092575 3570.26 720.3464711274061 3591.62 720.0531622364804 3612.98 719.7598533455546 3634.34 719.7598533455546 3655.7 718.8799266727773 3677.06 718.5866177818516 3698.42 718.5866177818516 3719.7799999999997 718.5866177818516 3741.14 718.2933088909258 3762.5 718.2933088909258 3783.86 718 3805.2200000000003 717.1200733272227 3826.58 715.6535288725939 3847.94 715.0669110907425 3869.3 715.0669110907425 3890.66 714.7736021998167 3912.02 714.4802933088909 3933.38 713.6003666361137 3954.74 712.7204399633364 3976.1 712.4271310724107 3997.46 712.1338221814849 4018.8199999999997 711.8405132905591 4040.18 711.8405132905591 4061.54 711.2538955087076 4082.9 710.9605866177819 4104.26 710.3739688359303 4125.62 710.3739688359303 4146.98 710.0806599450045 4168.34 709.7873510540788 4189.7 708.9074243813016 4211.0599999999995 708.0274977085244 4232.42 707.4408799266728 4253.78 706.5609532538955 4275.139999999999 706.2676443629698 4296.5 705.974335472044 4296.5 550.2273143904674 4275.139999999999 551.987167736022 4253.78 552.2804766269478 4232.42 553.7470210815766 4211.0599999999995 554.3336388634282 4189.7 556.3868010999083 4168.34 560.7864344637946 4146.98 561.0797433547204 4125.62 561.6663611365719 4104.26 561.6663611365719 4082.9 562.2529789184235 4061.54 562.5462878093492 4040.18 564.5994500458295 4018.8199999999997 563.7195233730522 3997.46 564.5994500458296 3976.1 564.8927589367554 3954.74 565.186067827681 3933.38 566.0659945004584 3912.02 568.1191567369385 3890.66 568.9990834097158 3869.3 569.2923923006416 3847.94 569.2923923006416 3826.58 569.8790100824931 3805.2200000000003 574.2786434463794 3783.86 575.4518790100825 3762.5 575.7451879010083 3741.14 577.5050412465628 3719.7799999999997 578.0916590284144 3698.42 578.0916590284144 3677.06 578.9715857011917 3655.7 579.5582034830431 3634.34 580.7314390467461 3612.98 580.7314390467461 3591.62 581.3180568285977 3570.26 581.6113657195234 3548.9 582.1979835013749 3527.54 582.4912923923007 3506.18 582.4912923923007 3484.82 583.6645279560037 3463.46 586.0109990834097 3442.1 588.3574702108158 3420.74 588.9440879926673 3399.38 588.06416131989 3378.02 590.1173235563704 3356.66 589.8240146654446 3335.3 590.1173235563704 3313.94 590.9972502291477 3292.58 590.9972502291477 3271.22 593.6370302474793 3249.86 594.5169569202567 3228.5 595.1035747021082 3228.5 727.9725022914757Z" fill="#005aa6" opacity="0.9" />
		</g>
		<g>
			<path d="M3228.5 595.1035747021082 3249.86 594.5169569202567 3271.22 593.6370302474793 3292.58 590.9972502291477 3313.94 590.9972502291477 3335.3 590.1173235563704 3356.66 589.8240146654446 3378.02 590.1173235563704 3399.38 588.06416131989 3420.74 588.9440879926673 3442.1 588.3574702108158 3463.46 586.0109990834097 3484.82 583.6645279560037 3506.18 582.4912923923007 3527.54 582.4912923923007 3548.9 582.1979835013749 3570.26 581.6113657195234 3591.62 581.3180568285977 3612.98 580.7314390467461 3634.34 580.7314390467461 3655.7 579.5582034830431 3677.06 578.9715857011917 3698.42 578.0916590284144 3719.7799999999997 578.0916590284144 3741.14 577.5050412465628 3762.5 575.7451879010083 3783.86 575.4518790100825 3805.2200000000003 574.2786434463794 3826.58 569.8790100824931 3847.94 569.2923923006416 3869.3 569.2923923006416 3890.66 568.9990834097158 3912.02 568.1191567369385 3933.38 566.0659945004584 3954.74 565.186067827681 3976.1 564.8927589367554 3997.46 564.5994500458296 4018.8199999999997 563.7195233730522 4040.18 564.5994500458295 4061.54 562.5462878093492 4082.9 562.2529789184235 4104.26 561.6663611365719 4125.62 561.6663611365719 4146.98 561.0797433547204 4168.34 560.7864344637946 4189.7 556.3868010999083 4211.0599999999995 554.3336388634282 4232.42 553.7470210815766 4253.78 552.2804766269478 4275.139999999999 551.987167736022 4296.5 550.2273143904674 4296.5 492.1521539871677 4275.139999999999 494.49862511457377 4253.78 494.79193400549957 4232.42 496.55178735105414 4211.0599999999995 498.018331805683 4189.7 500.36480293308887 4168.34 504.7644362969752 4146.98 505.057745187901 4125.62 505.6443629697525 4104.26 505.6443629697525 4082.9 506.2309807516041 4061.54 506.52428964252977 4040.18 508.8707607699358 4018.8199999999997 507.99083409715854 3997.46 508.87076076993594 3976.1 509.16406966086174 3954.74 509.4573785517873 3933.38 510.9239230064162 3912.02 513.8570119156736 3890.66 514.7369385884509 3869.3 515.0302474793767 3847.94 515.0302474793767 3826.58 515.910174152154 3805.2200000000003 521.1897341888175 3783.86 522.6562786434464 3762.5 522.9495875343722 3741.14 524.7094408799267 3719.7799999999997 525.2960586617783 3698.42 525.2960586617783 3677.06 527.0559120073328 3655.7 527.93583868011 3634.34 529.4023831347388 3612.98 529.9890009165903 3591.62 530.5756186984419 3570.26 530.8689275893676 3548.9 531.455545371219 3527.54 531.7488542621448 3506.18 531.7488542621448 3484.82 533.2153987167736 3463.46 535.8551787351054 3442.1 538.2016498625114 3420.74 539.3748854262145 3399.38 538.4949587534372 3378.02 540.5481209899176 3356.66 540.2548120989918 3335.3 540.5481209899176 3313.94 541.7213565536206 3292.58 541.7213565536206 3271.22 545.2410632447295 3249.86 546.1209899175069 3228.5 546.7076076993584 3228.5 595.1035747021082Z" fill="#f6a118" opacity="0.9" />
		</g>
		<g>
			<path d="M3228.5 546.7076076993584 3249.86 546.1209899175069 3271.22 545.2410632447295 3292.58 541.7213565536206 3313.94 541.7213565536206 3335.3 540.5481209899176 3356.66 540.2548120989918 3378.02 540.5481209899176 3399.38 538.4949587534372 3420.74 539.3748854262145 3442.1 538.2016498625114 3463.46 535.8551787351054 3484.82 533.2153987167736 3506.18 531.7488542621448 3527.54 531.7488542621448 3548.9 531.455545371219 3570.26 530.8689275893676 3591.62 530.5756186984419 3612.98 529.9890009165903 3634.34 529.4023831347388 3655.7 527.93583868011 3677.06 527.0559120073328 3698.42 525.2960586617783 3719.7799999999997 525.2960586617783 3741.14 524.7094408799267 3762.5 522.9495875343722 3783.86 522.6562786434464 3805.2200000000003 521.1897341888175 3826.58 515.910174152154 3847.94 515.0302474793767 3869.3 515.0302474793767 3890.66 514.7369385884509 3912.02 513.8570119156736 3933.38 510.9239230064162 3954.74 509.4573785517873 3976.1 509.16406966086174 3997.46 508.87076076993594 4018.8199999999997 507.99083409715854 4040.18 508.8707607699358 4061.54 506.52428964252977 4082.9 506.2309807516041 4104.26 505.6443629697525 4125.62 505.6443629697525 4146.98 505.057745187901 4168.34 504.7644362969752 4189.7 500.36480293308887 4211.0599999999995 498.018331805683 4232.42 496.55178735105414 4253.78 494.79193400549957 4275.139999999999 494.49862511457377 4296.5 492.1521539871677 4296.5 436.7167736021998 4275.139999999999 439.06324472960586 4253.78 439.35655362053166 4232.42 441.409715857012 4211.0599999999995 442.8762603116408 4189.7 445.2227314390467 4168.34 449.622364802933 4146.98 449.9156736938588 4125.62 450.5022914757103 4104.26 450.5022914757103 4082.9 451.0889092575619 4061.54 451.3822181484876 4040.18 453.72868927589366 4018.8199999999997 452.84876260311637 3997.46 453.72868927589377 3976.1 454.02199816681957 3954.74 454.31530705774514 3933.38 455.78185151237403 3912.02 458.71494042163147 3890.66 459.59486709440876 3869.3 459.88817598533456 3847.94 459.88817598533456 3826.58 460.76810265811184 3805.2200000000003 466.04766269477534 3783.86 467.5142071494042 3762.5 467.80751604033003 3741.14 469.5673693858845 3719.7799999999997 470.1539871677361 3698.42 470.1539871677361 3677.06 471.91384051329067 3655.7 472.79376718606784 3634.34 474.2603116406966 3612.98 474.8469294225481 3591.62 475.4335472043997 3570.26 475.7268560953254 3548.9 476.3134738771769 3527.54 476.6067827681027 3506.18 476.6067827681027 3484.82 478.07332722273145 3463.46 480.7131072410632 3442.1 483.05957836846926 3420.74 484.23281393217235 3399.38 483.35288725939506 3378.02 485.40604949587544 3356.66 485.11274060494964 3335.3 485.40604949587544 3313.94 486.5792850595784 3292.58 486.5792850595784 3271.22 490.09899175068733 3249.86 490.97891842346473 3228.5 491.5655362053162 3228.5 546.7076076993584Z" fill="#e62d39" opacity="0.9" />
		</g>
		<g>
			<path d="M3228.5 491.5655362053162 3249.86 490.97891842346473 3271.22 490.09899175068733 3292.58 486.5792850595784 3313.94 486.5792850595784 3335.3 485.40604949587544 3356.66 485.11274060494964 3378.02 485.40604949587544 3399.38 483.35288725939506 3420.74 484.23281393217235 3442.1 483.05957836846926 3463.46 480.7131072410632 3484.82 478.07332722273145 3506.18 476.6067827681027 3527.54 476.6067827681027 3548.9 476.3134738771769 3570.26 475.7268560953254 3591.62 475.4335472043997 3612.98 474.8469294225481 3634.34 474.2603116406966 3655.7 472.79376718606784 3677.06 471.91384051329067 3698.42 470.1539871677361 3719.7799999999997 470.1539871677361 3741.14 469.5673693858845 3762.5 467.80751604033003 3783.86 467.5142071494042 3805.2200000000003 466.04766269477534 3826.58 460.76810265811184 3847.94 459.88817598533456 3869.3 459.88817598533456 3890.66 459.59486709440876 3912.02 458.71494042163147 3933.38 455.78185151237403 3954.74 454.31530705774514 3976.1 454.02199816681957 3997.46 453.72868927589377 4018.8199999999997 452.84876260311637 4040.18 453.72868927589366 4061.54 451.3822181484876 4082.9 451.0889092575619 4104.26 450.5022914757103 4125.62 450.5022914757103 4146.98 449.9156736938588 4168.34 449.622364802933 4189.7 445.2227314390467 4211.0599999999995 442.8762603116408 4232.42 441.409715857012 4253.78 439.35655362053166 4275.139999999999 439.06324472960586 4296.5 436.7167736021998 4296.5 410.9055912007332 4275.139999999999 413.2520623281393 4253.78 413.5453712190651 4232.42 415.5985334555454 4211.0599999999995 417.06507791017424 4189.7 419.41154903758013 4168.34 423.81118240146645 4146.98 424.10449129239225 4125.62 424.69110907424374 4104.26 424.69110907424374 4082.9 425.27772685609534 4061.54 425.571035747021 4040.18 427.9175068744271 4018.8199999999997 427.0375802016498 3997.46 427.9175068744272 3976.1 428.210815765353 3954.74 428.5041246562786 3933.38 429.97066911090747 3912.02 432.9037580201649 3890.66 433.7836846929422 3869.3 434.076993583868 3847.94 434.3703024747938 3826.58 435.2502291475711 3805.2200000000003 440.5297891842346 3783.86 441.99633363886346 3762.5 442.28964252978926 3741.14 444.0494958753437 3719.7799999999997 444.6361136571953 3698.42 444.6361136571953 3677.06 446.3959670027499 3655.7 447.2758936755271 3634.34 448.74243813015585 3612.98 449.32905591200733 3591.62 449.91567369385893 3570.26 450.2089825847846 3548.9 450.7956003666361 3527.54 451.0889092575619 3506.18 451.0889092575619 3484.82 452.5554537121907 3463.46 455.19523373052243 3442.1 457.5417048579285 3420.74 458.7149404216316 3399.38 457.8350137488543 3378.02 460.1814848762604 3356.66 460.18148487626036 3335.3 460.47479376718616 3313.94 461.64802933088913 3292.58 461.64802933088913 3271.22 465.16773602199805 3249.86 466.04766269477545 3228.5 466.63428047662694 3228.5 491.5655362053162Z" fill="#fdd5a4" opacity="0.9" />
		</g>
		<g>
			<path d="M3228.5 466.63428047662694 3249.86 466.04766269477545 3271.22 465.16773602199805 3292.58 461.64802933088913 3313.94 461.64802933088913 3335.3 460.47479376718616 3356.66 460.18148487626036 3378.02 460.1814848762604 3399.38 457.8350137488543 3420.74 458.7149404216316 3442.1 457.5417048579285 3463.46 455.19523373052243 3484.82 452.5554537121907 3506.18 451.0889092575619 3527.54 451.0889092575619 3548.9 450.7956003666361 3570.26 450.2089825847846 3591.62 449.91567369385893 3612.98 449.32905591200733 3634.34 448.74243813015585 3655.7 447.2758936755271 3677.06 446.3959670027499 3698.42 444.6361136571953 3719.7799999999997 444.6361136571953 3741.14 444.0494958753437 3762.5 442.28964252978926 3783.86 441.99633363886346 3805.2200000000003 440.5297891842346 3826.58 435.2502291475711 3847.94 434.3703024747938 3869.3 434.076993583868 3890.66 433.7836846929422 3912.02 432.9037580201649 3933.38 429.97066911090747 3954.74 428.5041246562786 3976.1 428.210815765353 3997.46 427.9175068744272 4018.8199999999997 427.0375802016498 4040.18 427.9175068744271 4061.54 425.571035747021 4082.9 425.27772685609534 4104.26 424.69110907424374 4125.62 424.69110907424374 4146.98 424.10449129239225 4168.34 423.81118240146645 4189.7 419.41154903758013 4211.0599999999995 417.06507791017424 4232.42 415.5985334555454 4253.78 413.5453712190651 4275.139999999999 413.2520623281393 4296.5 410.9055912007332 4296.5 397.99999999999994 4275.139999999999 400.346471127406 4253.78 400.6397800183318 4232.42 402.6929422548121 4211.0599999999995 404.4527956003667 4189.7 406.7992667277726 4168.34 411.1989000916589 4146.98 411.4922089825847 4125.62 412.0788267644362 4104.26 412.0788267644362 4082.9 412.6654445462878 4061.54 412.9587534372135 4040.18 415.30522456461955 4018.8199999999997 414.42529789184226 3997.46 415.30522456461966 3976.1 415.59853345554546 3954.74 415.89184234647104 3933.38 417.3583868010999 3912.02 420.29147571035736 3890.66 421.17140238313465 3869.3 421.46471127406045 3847.94 421.75802016498625 3826.58 422.63794683776354 3805.2200000000003 427.91750687442703 3783.86 429.3840513290559 3762.5 429.6773602199817 3741.14 431.4372135655362 3719.7799999999997 432.0238313473878 3698.42 432.0238313473878 3677.06 433.78368469294236 3655.7 434.66361136571953 3634.34 436.1301558203483 3612.98 436.7167736021998 3591.62 437.3033913840514 3570.26 437.5967002749771 3548.9 438.18331805682857 3527.54 438.47662694775437 3506.18 438.47662694775437 3484.82 439.94317140238314 3463.46 442.5829514207149 3442.1 444.92942254812095 3420.74 446.10265811182404 3399.38 445.22273143904675 3378.02 447.5692025664529 3356.66 447.5692025664528 3335.3 447.8625114573786 3313.94 449.0357470210816 3292.58 449.0357470210816 3271.22 452.5554537121905 3249.86 453.4353803849679 3228.5 454.0219981668194 3228.5 466.63428047662694Z" fill="#55c0e9" opacity="0.9" />
		</g>
		<g>
			<rect x="4372" y="431" width="22.9995" height="23" fill="#f48c7d" />
		</g>
		<g>
			<text fill="#595959" font-family="Verdana,Open Sans,DejaVu Sans,sans-serif" font-weight="400" font-size="41" transform="matrix(1 0 0 1 4404.56 454)">Other</text>
		</g>
		<g>
			<rect x="4372" y="508" width="22.9995" height="23" fill="#005aa6" />
		</g>
		<g>
			<text fill="#595959" font-family="Verdana,Open Sans,DejaVu Sans,sans-serif" font-weight="400" font-size="41" transform="matrix(1 0 0 1 4404.56 531)">iOS</text>
		</g>
		<g>
			<rect x="4372" y="585" width="22.9995" height="23" fill="#f6a118" />
		</g>
		<g>
			<text fill="#595959" font-family="Verdana,Open Sans,DejaVu Sans,sans-serif" font-weight="400" font-size="41" transform="matrix(1 0 0 1 4404.56 608)">macOS</text>
		</g>
		<g>
			<rect x="4372" y="662" width="22.9995" height="23" fill="#e62d39" />
		</g>
		<g>
			<text fill="#595959" font-family="Verdana,Open Sans,DejaVu Sans,sans-serif" font-weight="400" font-size="41" transform="matrix(1 0 0 1 4404.56 685)">Android</text>
		</g>
		<g>
			<rect x="4372" y="739" width="22.9995" height="23" fill="#fdd5a4" />
		</g>
		<g>
			<text fill="#595959" font-family="Verdana,Open Sans,DejaVu Sans,sans-serif" font-weight="400" font-size="41" transform="matrix(1 0 0 1 4404.56 762)">Linux</text>
		</g>
		<g>
			<rect x="4372" y="816" width="22.9995" height="23" fill="#55c0e9" />
		</g>
		<g>
			<text fill="#595959" font-family="Verdana,Open Sans,DejaVu Sans,sans-serif" font-weight="400" font-size="41" transform="matrix(1 0 0 1 4404.56 839)">Windows</text>
		</g>
	</g>
</svg>
