<svg width="1763" height="1046"
    xmlns="http://www.w3.org/2000/svg"
	xmlns:xlink="http://www.w3.org/1999/xlink" xml:space="preserve" overflow="hidden">
	<defs>
		<clipPath id="clip0">
			<rect x="2917" y="346" width="1763" height="1046"/>
		</clipPath>
	</defs>
	<g clip-path="url(#clip0)" transform="translate(-2917 -346)">
		<rect x="2918" y="347" width="1760" height="1043" fill="#FFFFFF" />
		<g>
			<path d="
			M3228.5 974.532 4296.5 974.532
			M3228.5 910.53 4296.5 910.53
			M3228.5 846.528 4296.5 846.528
			M3228.5 781.526 4296.5 781.526
			M3228.5 717.524 4296.5 717.524
			M3228.5 653.522 4296.5 653.522
			M3228.5 589.52 4296.5 589.52
			M3228.5 525.517 4296.5 525.517
			M3228.5 461.515 4296.5 461.515
			M3228.5 397.5 4296.5 397.5" stroke="#D9D9D9" stroke-width="3.4375" stroke-linejoin="round" stroke-miterlimit="10" fill="none" />
		</g>
		<g>
			<path d="M 1038.5 4296.5 1038.5" stroke="#D9D9D9" stroke-width="3.4375" stroke-linejoin="round" stroke-miterlimit="10" fill="none" fill-rule="evenodd" />
		</g>
		<g>
			<text fill="#595959" font-family="Verdana,sans-serif" font-weight="400" font-size="41" transform="matrix(6.12323e-17 -1 1 6.12323e-17 3244.5 1227)">06-Nov</text>
		</g>
		<g>
			<text fill="#595959" font-family="Verdana,sans-serif" font-weight="400" font-size="41" transform="matrix(6.12323e-17 -1 1 6.12323e-17 3370.1470588235293 1226)">20-Nov</text>
		</g>
		<g>
			<text fill="#595959" font-family="Verdana,sans-serif" font-weight="400" font-size="41" transform="matrix(6.12323e-17 -1 1 6.12323e-17 3495.794117647059 1225)">04-Dec</text>
		</g>
		<g>
			<text fill="#595959" font-family="Verdana,sans-serif" font-weight="400" font-size="41" transform="matrix(6.12323e-17 -1 1 6.12323e-17 3621.4411764705883 1222)">18-Dec</text>
		</g>
		<g>
			<text fill="#595959" font-family="Verdana,sans-serif" font-weight="400" font-size="41" transform="matrix(6.12323e-17 -1 1 6.12323e-17 3747.0882352941176 1212)">01-Jan</text>
		</g>
		<g>
			<text fill="#595959" font-family="Verdana,sans-serif" font-weight="400" font-size="41" transform="matrix(6.12323e-17 -1 1 6.12323e-17 3872.235294117647 1209)">15-Jan</text>
		</g>
		<g>
			<text fill="#595959" font-family="Verdana,sans-serif" font-weight="400" font-size="41" transform="matrix(6.12323e-17 -1 1 6.12323e-17 3998.3823529411766 1211)">29-Jan</text>
		</g>
		<g>
			<text fill="#595959" font-family="Verdana,sans-serif" font-weight="400" font-size="41" transform="matrix(6.12323e-17 -1 1 6.12323e-17 4124.029411764706 1216)">12-Feb</text>
		</g>
		<g>
			<text fill="#595959" font-family="Verdana,sans-serif" font-weight="400" font-size="41" transform="matrix(6.12323e-17 -1 1 6.12323e-17 4249.676470588235 1218)">26-Feb</text>
		</g>
		<g>
			<text fill="#595959" font-family="Verdana,sans-serif" font-weight="400" font-size="41" transform="matrix(1 0 0 1 3167.5 1050)">0</text>
		</g>
		<g>
			<text fill="#595959" font-family="Verdana,sans-serif" font-weight="400" font-size="41" transform="matrix(1 0 0 1 3115.5 922)">365</text>
		</g>
		<g>
			<text fill="#595959" font-family="Verdana,sans-serif" font-weight="400" font-size="41" transform="matrix(1 0 0 1 3114.5 794)">729</text>
		</g>
		<g>
			<text fill="#595959" font-family="Verdana,sans-serif" font-weight="400" font-size="41" transform="matrix(1 0 0 1 3075.5 666)">1,094</text>
		</g>
		<g>
			<text fill="#595959" font-family="Verdana,sans-serif" font-weight="400" font-size="41" transform="matrix(1 0 0 1 3075.5 538)">1,458</text>
		</g>
		<g>
			<text fill="#595959" font-family="Verdana,sans-serif" font-weight="400" font-size="41" transform="matrix(1 0 0 1 3076.5 410)">1,823</text>
		</g>
		<g>
			<text fill="#595959" font-family="Verdana,sans-serif" font-weight="400" font-size="41" transform="matrix(1 0 0 1 3541.5 1321)">Week Commencing</text>
		</g>
		<g>
			<text fill="#595959" font-family="Verdana,sans-serif" font-weight="400" font-size="46" transform="matrix(6.12323e-17 -1 1 6.12323e-17 3019.73 974.25)">Number of OS Profiles</text>
		</g>
		<rect x="2918.5" y="347.5" width="1760" height="1043" stroke="#D9D9D9" stroke-width="3.4375" stroke-linejoin="round" stroke-miterlimit="10" fill="none" />
		<g>
			<path d="M3228.5 1038 3291.323529411765 1038 3354.1470588235293 1038 3416.970588235294 1038 3479.794117647059 1038 3542.6176470588234 1038 3605.4411764705883 1038 3668.264705882353 1038 3731.0882352941176 1038 3793.9117647058824 1038 3856.735294117647 1038 3919.5588235294117 1038 3982.3823529411766 1038 4045.205882352941 1038 4108.029411764706 1038 4170.85294117647 1038 4233.676470588235 1038 4296.5 1038 4296.5 696.4092155787164 4233.676470588235 697.8134942402633 4170.85294117647 697.8134942402633 4108.029411764706 697.8134942402633 4045.205882352941 698.8667032364235 3982.3823529411766 699.2177729018101 3919.5588235294117 699.568842567197 3856.735294117647 700.6220515633571 3793.9117647058824 700.9731212287438 3731.0882352941176 701.3241908941305 3668.264705882353 701.3241908941305 3605.4411764705883 701.3241908941305 3542.6176470588234 701.3241908941305 3479.794117647059 703.430608886451 3416.970588235294 703.7816785518376 3354.1470588235293 704.483817882611 3291.323529411765 704.483817882611 3228.5 705.1859572133845 3228.5 1038Z" fill="#fdd5a4" opacity="0.9" />
		</g>
		<g>
			<path d="M3228.5 705.1859572133845 3291.323529411765 704.483817882611 3354.1470588235293 704.483817882611 3416.970588235294 703.7816785518376 3479.794117647059 703.430608886451 3542.6176470588234 701.3241908941305 3605.4411764705883 701.3241908941305 3668.264705882353 701.3241908941305 3731.0882352941176 701.3241908941305 3793.9117647058824 700.9731212287438 3856.735294117647 700.6220515633571 3919.5588235294117 699.568842567197 3982.3823529411766 699.2177729018101 4045.205882352941 698.8667032364235 4108.029411764706 697.8134942402633 4170.85294117647 697.8134942402633 4233.676470588235 697.8134942402633 4296.5 696.4092155787164 4296.5 556.6834887547998 4233.676470588235 558.0877674163467 4170.85294117647 558.0877674163467 4108.029411764706 558.4388370817334 4045.205882352941 560.1941854086671 3982.3823529411766 560.8963247394404 3919.5588235294117 561.9495337356007 3856.735294117647 563.7048820625344 3793.9117647058824 564.055951727921 3731.0882352941176 564.4070213933078 3668.264705882353 564.4070213933078 3605.4411764705883 566.1623697202414 3542.6176470588234 566.8645090510148 3479.794117647059 569.3219967087219 3416.970588235294 570.7262753702687 3354.1470588235293 571.4284147010421 3291.323529411765 571.7794843664288 3228.5 573.1837630279758 3228.5 705.1859572133845Z" fill="#e62d39" opacity="0.9" />
		</g>
		<g>
			<path d="M3228.5 573.1837630279758 3291.323529411765 571.7794843664288 3354.1470588235293 571.4284147010421 3416.970588235294 570.7262753702687 3479.794117647059 569.3219967087219 3542.6176470588234 566.8645090510148 3605.4411764705883 566.1623697202414 3668.264705882353 564.4070213933078 3731.0882352941176 564.4070213933078 3793.9117647058824 564.055951727921 3856.735294117647 563.7048820625344 3919.5588235294117 561.9495337356007 3982.3823529411766 560.8963247394404 4045.205882352941 560.1941854086671 4108.029411764706 558.4388370817334 4170.85294117647 558.0877674163467 4233.676470588235 558.0877674163467 4296.5 556.6834887547998 4296.5 492.08667032364235 4233.676470588235 493.4909489851892 4170.85294117647 493.4909489851892 4108.029411764706 493.84201865057594 4045.205882352941 495.59736697750964 3982.3823529411766 496.29950630828296 3919.5588235294117 497.3527153044432 3856.735294117647 499.1080636313769 3793.9117647058824 499.4591332967635 3731.0882352941176 499.81020296215036 3668.264705882353 499.81020296215036 3605.4411764705883 501.56555128908394 3542.6176470588234 502.2676906198574 3479.794117647059 504.7251782775645 3416.970588235294 506.12945693911126 3354.1470588235293 506.8315962698847 3291.323529411765 507.1826659352714 3228.5 508.5869445968184 3228.5 573.1837630279758Z" fill="#005aa6" opacity="0.9" />
		</g>
		<g>
			<path d="M3228.5 508.5869445968184 3291.323529411765 507.1826659352714 3354.1470588235293 506.8315962698847 3416.970588235294 506.12945693911126 3479.794117647059 504.7251782775645 3542.6176470588234 502.2676906198574 3605.4411764705883 501.56555128908394 3668.264705882353 499.81020296215036 3731.0882352941176 499.81020296215036 3793.9117647058824 499.4591332967635 3856.735294117647 499.1080636313769 3919.5588235294117 497.3527153044432 3982.3823529411766 496.29950630828296 4045.205882352941 495.59736697750964 4108.029411764706 493.84201865057594 4170.85294117647 493.4909489851892 4233.676470588235 493.4909489851892 4296.5 492.08667032364235 4296.5 442.9369171695008 4233.676470588235 444.6922654964344 4170.85294117647 445.0433351618211 4108.029411764706 446.0965441579813 4045.205882352941 448.20296215030174 3982.3823529411766 448.90510148107506 3919.5588235294117 449.95831047723533 3856.735294117647 452.06472846955575 3793.9117647058824 452.41579813494235 3731.0882352941176 452.7668678003292 3668.264705882353 452.7668678003292 3605.4411764705883 455.575425123423 3542.6176470588234 456.6286341195831 3479.794117647059 459.08612177729026 3416.970588235294 460.84147010422373 3354.1470588235293 461.8946791003839 3291.323529411765 462.5968184311573 3228.5 464.70323642347773 3228.5 508.5869445968184Z" fill="#f6a118" opacity="0.9" />
		</g>
		<g>
			<path d="M3228.5 464.70323642347773 3291.323529411765 462.5968184311573 3354.1470588235293 461.8946791003839 3416.970588235294 460.84147010422373 3479.794117647059 459.08612177729026 3542.6176470588234 456.6286341195831 3605.4411764705883 455.575425123423 3668.264705882353 452.7668678003292 3731.0882352941176 452.7668678003292 3793.9117647058824 452.41579813494235 3856.735294117647 452.06472846955575 3919.5588235294117 449.95831047723533 3982.3823529411766 448.90510148107506 4045.205882352941 448.20296215030174 4108.029411764706 446.0965441579813 4170.85294117647 445.0433351618211 4233.676470588235 444.6922654964344 4296.5 442.9369171695008 4296.5 414.14920460778933 4233.676470588235 415.9045529347229 4170.85294117647 416.25562260010963 4108.029411764706 417.30883159626984 4045.205882352941 419.41524958859026 3982.3823529411766 420.1173889193636 3919.5588235294117 421.17059791552384 3856.735294117647 423.27701590784426 3793.9117647058824 423.62808557323086 3731.0882352941176 423.9791552386177 3668.264705882353 423.9791552386177 3605.4411764705883 426.7877125617115 3542.6176470588234 427.84092155787164 3479.794117647059 430.2984092155788 3416.970588235294 432.05375754251224 3354.1470588235293 433.1069665386724 3291.323529411765 433.80910586944583 3228.5 435.91552386176625 3228.5 464.70323642347773Z" fill="#f48c7d" opacity="0.9" />
		</g>
		<g>
			<path d="M3228.5 435.91552386176625 3291.323529411765 433.80910586944583 3354.1470588235293 433.1069665386724 3416.970588235294 432.05375754251224 3479.794117647059 430.2984092155788 3542.6176470588234 427.84092155787164 3605.4411764705883 426.7877125617115 3668.264705882353 423.9791552386177 3731.0882352941176 423.9791552386177 3793.9117647058824 423.62808557323086 3856.735294117647 423.27701590784426 3919.5588235294117 421.17059791552384 3982.3823529411766 420.1173889193636 4045.205882352941 419.41524958859026 4108.029411764706 417.30883159626984 4170.85294117647 416.25562260010963 4233.676470588235 415.9045529347229 4296.5 414.14920460778933 4296.5 398 4233.676470588235 399.7553483269336 4170.85294117647 400.1064179923203 4108.029411764706 401.15962698848045 4045.205882352941 403.26604498080087 3982.3823529411766 403.9681843115742 3919.5588235294117 405.02139330773446 3856.735294117647 407.1278113000549 3793.9117647058824 407.4788809654415 3731.0882352941176 407.8299506308283 3668.264705882353 407.8299506308283 3605.4411764705883 410.63850795392216 3542.6176470588234 411.6917169500823 3479.794117647059 414.14920460778944 3416.970588235294 415.9045529347229 3354.1470588235293 416.95776193088307 3291.323529411765 417.6599012616565 3228.5 419.7663192539769 3228.5 435.91552386176625Z" fill="#55c0e9" opacity="0.9" />
		</g>
		<g>
			<rect x="4372" y="431" width="22.9995" height="23" fill="#fdd5a4" />
		</g>
		<g>
			<text fill="#595959" font-family="Verdana,sans-serif" font-weight="400" font-size="41" transform="matrix(1 0 0 1 4404.56 454)">Other</text>
		</g>
		<g>
			<rect x="4372" y="508" width="22.9995" height="23" fill="#e62d39" />
		</g>
		<g>
			<text fill="#595959" font-family="Verdana,sans-serif" font-weight="400" font-size="41" transform="matrix(1 0 0 1 4404.56 531)">iOS</text>
		</g>
		<g>
			<rect x="4372" y="585" width="22.9995" height="23" fill="#005aa6" />
		</g>
		<g>
			<text fill="#595959" font-family="Verdana,sans-serif" font-weight="400" font-size="41" transform="matrix(1 0 0 1 4404.56 608)">Android</text>
		</g>
		<g>
			<rect x="4372" y="662" width="22.9995" height="23" fill="#f6a118" />
		</g>
		<g>
			<text fill="#595959" font-family="Verdana,sans-serif" font-weight="400" font-size="41" transform="matrix(1 0 0 1 4404.56 685)">macOS</text>
		</g>
		<g>
			<rect x="4372" y="739" width="22.9995" height="23" fill="#f48c7d" />
		</g>
		<g>
			<text fill="#595959" font-family="Verdana,sans-serif" font-weight="400" font-size="41" transform="matrix(1 0 0 1 4404.56 762)">Linux</text>
		</g>
		<g>
			<rect x="4372" y="816" width="22.9995" height="23" fill="#55c0e9" />
		</g>
		<g>
			<text fill="#595959" font-family="Verdana,sans-serif" font-weight="400" font-size="41" transform="matrix(1 0 0 1 4404.56 839)">Windows</text>
		</g>
	</g>
</svg>
