<svg width="1763" height="1046"
    xmlns="http://www.w3.org/2000/svg"
	xmlns:xlink="http://www.w3.org/1999/xlink" xml:space="preserve" overflow="hidden">
	<defs>
		<clipPath id="clip0">
			<rect x="2917" y="346" width="1763" height="1046"/>
		</clipPath>
	</defs>
	<g clip-path="url(#clip0)" transform="translate(-2917 -346)">
		<rect x="2918" y="347" width="1760" height="1043" fill="#FFFFFF" />
		<g>
			<path d="
			M3228.5 974.532 4296.5 974.532
			M3228.5 910.53 4296.5 910.53
			M3228.5 846.528 4296.5 846.528
			M3228.5 781.526 4296.5 781.526
			M3228.5 717.524 4296.5 717.524
			M3228.5 653.522 4296.5 653.522
			M3228.5 589.52 4296.5 589.52
			M3228.5 525.517 4296.5 525.517
			M3228.5 461.515 4296.5 461.515
			M3228.5 397.5 4296.5 397.5" stroke="#D9D9D9" stroke-width="3.4375" stroke-linejoin="round" stroke-miterlimit="10" fill="none" />
		</g>
		<g>
			<path d="M 1038.5 4296.5 1038.5" stroke="#D9D9D9" stroke-width="3.4375" stroke-linejoin="round" stroke-miterlimit="10" fill="none" fill-rule="evenodd" />
		</g>
		<g>
			<text fill="#595959" font-family="Verdana,Open Sans,DejaVu Sans,sans-serif" font-weight="400" font-size="41" transform="matrix(6.12323e-17 -1 1 6.12323e-17 3248.289306640625 1216.47509765625)">05-May</text>
		</g>
		<g>
			<text fill="#595959" font-family="Verdana,Open Sans,DejaVu Sans,sans-serif" font-weight="400" font-size="41" transform="matrix(6.12323e-17 -1 1 6.12323e-17 3332.65826171875 1194.0131759643555)">09-Jun</text>
		</g>
		<g>
			<text fill="#595959" font-family="Verdana,Open Sans,DejaVu Sans,sans-serif" font-weight="400" font-size="41" transform="matrix(6.12323e-17 -1 1 6.12323e-17 3418.808955078125 1178.9985275268555)">07-Jul</text>
		</g>
		<g>
			<text fill="#595959" font-family="Verdana,Open Sans,DejaVu Sans,sans-serif" font-weight="400" font-size="41" transform="matrix(6.12323e-17 -1 1 6.12323e-17 3504.609306640625 1208.62744140625)">04-Aug</text>
		</g>
		<g>
			<text fill="#595959" font-family="Verdana,Open Sans,DejaVu Sans,sans-serif" font-weight="400" font-size="41" transform="matrix(6.12323e-17 -1 1 6.12323e-17 3590.049306640625 1204.38330078125)">01-Sep</text>
		</g>
		<g>
			<text fill="#595959" font-family="Verdana,Open Sans,DejaVu Sans,sans-serif" font-weight="400" font-size="41" transform="matrix(6.12323e-17 -1 1 6.12323e-17 3675.469287109375 1204.42333984375)">29-Sep</text>
		</g>
		<g>
			<text fill="#595959" font-family="Verdana,Open Sans,DejaVu Sans,sans-serif" font-weight="400" font-size="41" transform="matrix(6.12323e-17 -1 1 6.12323e-17 3756.204697265625 1201.1401290893555)">27-Oct</text>
		</g>
		<g>
			<text fill="#595959" font-family="Verdana,Open Sans,DejaVu Sans,sans-serif" font-weight="400" font-size="41" transform="matrix(6.12323e-17 -1 1 6.12323e-17 3841.624677734375 1211.47021484375)">24-Nov</text>
		</g>
		<g>
			<text fill="#595959" font-family="Verdana,Open Sans,DejaVu Sans,sans-serif" font-weight="400" font-size="41" transform="matrix(6.12323e-17 -1 1 6.12323e-17 3927.064677734375 1207.1259765625)">22-Dec</text>
		</g>
		<g>
			<text fill="#595959" font-family="Verdana,Open Sans,DejaVu Sans,sans-serif" font-weight="400" font-size="41" transform="matrix(6.12323e-17 -1 1 6.12323e-17 4016.1582421875 1189.9291915893555)">19-Jan</text>
		</g>
		<g>
			<text fill="#595959" font-family="Verdana,Open Sans,DejaVu Sans,sans-serif" font-weight="400" font-size="41" transform="matrix(6.12323e-17 -1 1 6.12323e-17 4098.675390625 1201.3203125)">16-Feb</text>
		</g>
		<g>
			<text fill="#595959" font-family="Verdana,Open Sans,DejaVu Sans,sans-serif" font-weight="400" font-size="41" transform="matrix(6.12323e-17 -1 1 6.12323e-17 4183.384677734375 1210.2890625)">16-Mar</text>
		</g>
		<g>
			<text fill="#595959" font-family="Verdana,Open Sans,DejaVu Sans,sans-serif" font-weight="400" font-size="41" transform="matrix(6.12323e-17 -1 1 6.12323e-17 4273.549287109375 1201.5405197143555)">13-Apr</text>
		</g>
		<g>
			<text fill="#595959" font-family="Verdana,Open Sans,DejaVu Sans,sans-serif" font-weight="400" font-size="41" transform="matrix(1 0 0 1 3169.14111328125 1050)">0</text>
		</g>
		<g>
			<text fill="#595959" font-family="Verdana,Open Sans,DejaVu Sans,sans-serif" font-weight="400" font-size="41" transform="matrix(1 0 0 1 3119.85302734375 922)">444</text>
		</g>
		<g>
			<text fill="#595959" font-family="Verdana,Open Sans,DejaVu Sans,sans-serif" font-weight="400" font-size="41" transform="matrix(1 0 0 1 3122.37548828125 794)">888</text>
		</g>
		<g>
			<text fill="#595959" font-family="Verdana,Open Sans,DejaVu Sans,sans-serif" font-weight="400" font-size="41" transform="matrix(1 0 0 1 3090.64453125 666)">1,332</text>
		</g>
		<g>
			<text fill="#595959" font-family="Verdana,Open Sans,DejaVu Sans,sans-serif" font-weight="400" font-size="41" transform="matrix(1 0 0 1 3090.4443359375 538)">1,776</text>
		</g>
		<g>
			<text fill="#595959" font-family="Verdana,Open Sans,DejaVu Sans,sans-serif" font-weight="400" font-size="41" transform="matrix(1 0 0 1 3088.72265625 410)">2,220</text>
		</g>
		<g>
			<text fill="#595959" font-family="Verdana,Open Sans,DejaVu Sans,sans-serif" font-weight="400" font-size="41" transform="matrix(1 0 0 1 3556.97119140625 1321)">Week Commencing</text>
		</g>
		<g>
			<text fill="#595959" font-family="Verdana,Open Sans,DejaVu Sans,sans-serif" font-weight="400" font-size="46" transform="matrix(6.12323e-17 -1 1 6.12323e-17 3019.73 953.7919921875)">Number of OS Profiles</text>
		</g>
		<rect x="2918.5" y="347.5" width="1760" height="1043" stroke="#D9D9D9" stroke-width="3.4375" stroke-linejoin="round" stroke-miterlimit="10" fill="none" />
		<g>
			<path d="M3228.5 1038 3249.86 1038 3271.22 1038 3292.58 1038 3313.94 1038 3335.3 1038 3356.66 1038 3378.02 1038 3399.38 1038 3420.74 1038 3442.1 1038 3463.46 1038 3484.82 1038 3506.18 1038 3527.54 1038 3548.9 1038 3570.26 1038 3591.62 1038 3612.98 1038 3634.34 1038 3655.7 1038 3677.06 1038 3698.42 1038 3719.7799999999997 1038 3741.14 1038 3762.5 1038 3783.86 1038 3805.2200000000003 1038 3826.58 1038 3847.94 1038 3869.3 1038 3890.66 1038 3912.02 1038 3933.38 1038 3954.74 1038 3976.1 1038 3997.46 1038 4018.8199999999997 1038 4040.18 1038 4061.54 1038 4082.9 1038 4104.26 1038 4125.62 1038 4146.98 1038 4168.34 1038 4189.7 1038 4211.0599999999995 1038 4232.42 1038 4253.78 1038 4275.139999999999 1038 4296.5 1038 4296.5 707.6216216216217 4275.139999999999 707.9099099099099 4253.78 708.1981981981983 4232.42 708.1981981981983 4211.0599999999995 709.3513513513514 4189.7 711.081081081081 4168.34 711.6576576576576 4146.98 711.6576576576576 4125.62 711.9459459459459 4104.26 712.2342342342342 4082.9 713.099099099099 4061.54 713.6756756756756 4040.18 714.5405405405405 4018.8199999999997 715.4054054054054 3997.46 715.6936936936937 3976.1 715.981981981982 3954.74 715.981981981982 3933.38 716.5585585585586 3912.02 716.8468468468468 3890.66 717.4234234234234 3869.3 717.4234234234234 3847.94 717.7117117117117 3826.58 718 3805.2200000000003 718.2882882882883 3783.86 719.1531531531532 3762.5 720.018018018018 3741.14 720.3063063063063 3719.7799999999997 720.5945945945946 3698.42 720.5945945945946 3677.06 721.1711711711712 3655.7 722.6126126126126 3634.34 723.4774774774775 3612.98 723.7657657657658 3591.62 723.7657657657658 3570.26 724.0540540540541 3548.9 724.0540540540541 3527.54 724.0540540540541 3506.18 724.3423423423424 3484.82 725.2072072072071 3463.46 725.2072072072071 3442.1 725.4954954954956 3420.74 725.7837837837837 3399.38 726.3603603603603 3378.02 726.6486486486486 3356.66 726.6486486486486 3335.3 727.2252252252252 3313.94 728.6666666666667 3292.58 730.6846846846847 3271.22 730.6846846846847 3249.86 730.6846846846847 3228.5 730.9729729729729 3228.5 1038Z" fill="#f48c7d" opacity="0.9" />
		</g>
		<g>
			<path d="M3228.5 730.9729729729729 3249.86 730.6846846846847 3271.22 730.6846846846847 3292.58 730.6846846846847 3313.94 728.6666666666667 3335.3 727.2252252252252 3356.66 726.6486486486486 3378.02 726.6486486486486 3399.38 726.3603603603603 3420.74 725.7837837837837 3442.1 725.4954954954956 3463.46 725.2072072072071 3484.82 725.2072072072071 3506.18 724.3423423423424 3527.54 724.0540540540541 3548.9 724.0540540540541 3570.26 724.0540540540541 3591.62 723.7657657657658 3612.98 723.7657657657658 3634.34 723.4774774774775 3655.7 722.6126126126126 3677.06 721.1711711711712 3698.42 720.5945945945946 3719.7799999999997 720.5945945945946 3741.14 720.3063063063063 3762.5 720.018018018018 3783.86 719.1531531531532 3805.2200000000003 718.2882882882883 3826.58 718 3847.94 717.7117117117117 3869.3 717.4234234234234 3890.66 717.4234234234234 3912.02 716.8468468468468 3933.38 716.5585585585586 3954.74 715.981981981982 3976.1 715.981981981982 3997.46 715.6936936936937 4018.8199999999997 715.4054054054054 4040.18 714.5405405405405 4061.54 713.6756756756756 4082.9 713.099099099099 4104.26 712.2342342342342 4125.62 711.9459459459459 4146.98 711.6576576576576 4168.34 711.6576576576576 4189.7 711.081081081081 4211.0599999999995 709.3513513513514 4232.42 708.1981981981983 4253.78 708.1981981981983 4275.139999999999 707.9099099099099 4296.5 707.6216216216217 4296.5 548.7747747747749 4275.139999999999 550.7927927927927 4253.78 551.0810810810812 4232.42 552.2342342342342 4211.0599999999995 554.5405405405405 4189.7 556.8468468468468 4168.34 557.4234234234234 4146.98 558.5765765765766 4125.62 560.3063063063063 4104.26 560.5945945945946 4082.9 562.036036036036 4061.54 562.6126126126126 4040.18 564.6306306306305 4018.8199999999997 568.9549549549549 3997.46 569.2432432432432 3976.1 569.8198198198198 3954.74 569.8198198198198 3933.38 570.3963963963964 3912.02 570.6846846846846 3890.66 572.7027027027027 3869.3 571.8378378378378 3847.94 572.7027027027027 3826.58 572.990990990991 3805.2200000000003 573.2792792792793 3783.86 574.1441441441442 3762.5 576.1621621621621 3741.14 577.027027027027 3719.7799999999997 577.3153153153153 3698.42 577.3153153153153 3677.06 577.8918918918919 3655.7 582.2162162162161 3634.34 583.3693693693693 3612.98 583.6576576576576 3591.62 585.3873873873874 3570.26 585.963963963964 3548.9 585.963963963964 3527.54 586.8288288288288 3506.18 587.4054054054054 3484.82 588.5585585585585 3463.46 588.5585585585585 3442.1 589.1351351351352 3420.74 589.4234234234234 3399.38 590 3378.02 590.2882882882883 3356.66 590.2882882882883 3335.3 591.4414414414415 3313.94 593.7477477477478 3292.58 596.0540540540541 3271.22 596.6306306306307 3249.86 595.7657657657658 3228.5 597.7837837837837 3228.5 730.9729729729729Z" fill="#005aa6" opacity="0.9" />
		</g>
		<g>
			<path d="M3228.5 597.7837837837837 3249.86 595.7657657657658 3271.22 596.6306306306307 3292.58 596.0540540540541 3313.94 593.7477477477478 3335.3 591.4414414414415 3356.66 590.2882882882883 3378.02 590.2882882882883 3399.38 590 3420.74 589.4234234234234 3442.1 589.1351351351352 3463.46 588.5585585585585 3484.82 588.5585585585585 3506.18 587.4054054054054 3527.54 586.8288288288288 3548.9 585.963963963964 3570.26 585.963963963964 3591.62 585.3873873873874 3612.98 583.6576576576576 3634.34 583.3693693693693 3655.7 582.2162162162161 3677.06 577.8918918918919 3698.42 577.3153153153153 3719.7799999999997 577.3153153153153 3741.14 577.027027027027 3762.5 576.1621621621621 3783.86 574.1441441441442 3805.2200000000003 573.2792792792793 3826.58 572.990990990991 3847.94 572.7027027027027 3869.3 571.8378378378378 3890.66 572.7027027027027 3912.02 570.6846846846846 3933.38 570.3963963963964 3954.74 569.8198198198198 3976.1 569.8198198198198 3997.46 569.2432432432432 4018.8199999999997 568.9549549549549 4040.18 564.6306306306305 4061.54 562.6126126126126 4082.9 562.036036036036 4104.26 560.5945945945946 4125.62 560.3063063063063 4146.98 558.5765765765766 4168.34 557.4234234234234 4189.7 556.8468468468468 4211.0599999999995 554.5405405405405 4232.42 552.2342342342342 4253.78 551.0810810810812 4275.139999999999 550.7927927927927 4296.5 548.7747747747749 4296.5 490.54054054054063 4275.139999999999 492.5585585585585 4253.78 492.8468468468469 4232.42 494.2882882882883 4211.0599999999995 496.8828828828829 4189.7 499.47747747747746 4168.34 500.05405405405406 4146.98 501.4954954954955 4125.62 503.8018018018018 4104.26 504.0900900900901 4082.9 505.81981981981977 4061.54 507.2612612612612 4040.18 509.5675675675675 4018.8199999999997 513.8918918918919 3997.46 514.1801801801802 3976.1 514.7567567567568 3954.74 514.7567567567568 3933.38 515.3333333333334 3912.02 515.6216216216216 3890.66 517.927927927928 3869.3 517.063063063063 3847.94 517.927927927928 3826.58 518.2162162162163 3805.2200000000003 518.5045045045046 3783.86 519.945945945946 3762.5 522.8288288288287 3741.14 523.6936936936936 3719.7799999999997 523.9819819819819 3698.42 523.9819819819819 3677.06 524.8468468468468 3655.7 530.036036036036 3634.34 531.4774774774775 3612.98 531.7657657657658 3591.62 533.4954954954956 3570.26 534.0720720720722 3548.9 534.0720720720722 3527.54 535.8018018018018 3506.18 536.6666666666666 3484.82 538.108108108108 3463.46 538.6846846846846 3442.1 539.2612612612613 3420.74 539.5495495495495 3399.38 540.1261261261261 3378.02 540.4144144144144 3356.66 540.4144144144144 3335.3 541.8558558558559 3313.94 544.4504504504505 3292.58 546.7567567567568 3271.22 547.90990990991 3249.86 547.0450450450451 3228.5 549.063063063063 3228.5 597.7837837837837Z" fill="#f6a118" opacity="0.9" />
		</g>
		<g>
			<path d="M3228.5 549.063063063063 3249.86 547.0450450450451 3271.22 547.90990990991 3292.58 546.7567567567568 3313.94 544.4504504504505 3335.3 541.8558558558559 3356.66 540.4144144144144 3378.02 540.4144144144144 3399.38 540.1261261261261 3420.74 539.5495495495495 3442.1 539.2612612612613 3463.46 538.6846846846846 3484.82 538.108108108108 3506.18 536.6666666666666 3527.54 535.8018018018018 3548.9 534.0720720720722 3570.26 534.0720720720722 3591.62 533.4954954954956 3612.98 531.7657657657658 3634.34 531.4774774774775 3655.7 530.036036036036 3677.06 524.8468468468468 3698.42 523.9819819819819 3719.7799999999997 523.9819819819819 3741.14 523.6936936936936 3762.5 522.8288288288287 3783.86 519.945945945946 3805.2200000000003 518.5045045045046 3826.58 518.2162162162163 3847.94 517.927927927928 3869.3 517.063063063063 3890.66 517.927927927928 3912.02 515.6216216216216 3933.38 515.3333333333334 3954.74 514.7567567567568 3976.1 514.7567567567568 3997.46 514.1801801801802 4018.8199999999997 513.8918918918919 4040.18 509.5675675675675 4061.54 507.2612612612612 4082.9 505.81981981981977 4104.26 504.0900900900901 4125.62 503.8018018018018 4146.98 501.4954954954955 4168.34 500.05405405405406 4189.7 499.47747747747746 4211.0599999999995 496.8828828828829 4232.42 494.2882882882883 4253.78 492.8468468468469 4275.139999999999 492.5585585585585 4296.5 490.54054054054063 4296.5 436.0540540540542 4275.139999999999 438.07207207207205 4253.78 438.36036036036046 4232.42 439.80180180180184 4211.0599999999995 442.3963963963964 4189.7 444.990990990991 4168.34 445.5675675675676 4146.98 447.009009009009 4125.62 449.3153153153153 4104.26 449.6036036036036 4082.9 451.62162162162156 4061.54 453.063063063063 4040.18 455.3693693693693 4018.8199999999997 459.69369369369366 3997.46 459.98198198198196 3976.1 460.55855855855856 3954.74 460.55855855855856 3933.38 461.13513513513516 3912.02 461.42342342342334 3890.66 463.72972972972974 3869.3 462.86486486486484 3847.94 463.72972972972974 3826.58 464.01801801801804 3805.2200000000003 464.30630630630634 3783.86 465.74774774774784 3762.5 468.6306306306305 3741.14 469.4954954954954 3719.7799999999997 469.7837837837837 3698.42 469.7837837837837 3677.06 470.6486486486486 3655.7 475.83783783783775 3634.34 477.27927927927925 3612.98 477.56756756756755 3591.62 479.29729729729735 3570.26 479.87387387387395 3548.9 479.87387387387395 3527.54 481.60360360360363 3506.18 482.4684684684684 3484.82 483.9099099099098 3463.46 484.4864864864864 3442.1 485.0630630630631 3420.74 485.3513513513513 3399.38 485.9279279279279 3378.02 486.2162162162162 3356.66 486.2162162162162 3335.3 487.6576576576577 3313.94 490.2522522522523 3292.58 492.55855855855856 3271.22 493.71171171171176 3249.86 492.84684684684686 3228.5 494.86486486486484 3228.5 549.063063063063Z" fill="#e62d39" opacity="0.9" />
		</g>
		<g>
			<path d="M3228.5 494.86486486486484 3249.86 492.84684684684686 3271.22 493.71171171171176 3292.58 492.55855855855856 3313.94 490.2522522522523 3335.3 487.6576576576577 3356.66 486.2162162162162 3378.02 486.2162162162162 3399.38 485.9279279279279 3420.74 485.3513513513513 3442.1 485.0630630630631 3463.46 484.4864864864864 3484.82 483.9099099099098 3506.18 482.4684684684684 3527.54 481.60360360360363 3548.9 479.87387387387395 3570.26 479.87387387387395 3591.62 479.29729729729735 3612.98 477.56756756756755 3634.34 477.27927927927925 3655.7 475.83783783783775 3677.06 470.6486486486486 3698.42 469.7837837837837 3719.7799999999997 469.7837837837837 3741.14 469.4954954954954 3762.5 468.6306306306305 3783.86 465.74774774774784 3805.2200000000003 464.30630630630634 3826.58 464.01801801801804 3847.94 463.72972972972974 3869.3 462.86486486486484 3890.66 463.72972972972974 3912.02 461.42342342342334 3933.38 461.13513513513516 3954.74 460.55855855855856 3976.1 460.55855855855856 3997.46 459.98198198198196 4018.8199999999997 459.69369369369366 4040.18 455.3693693693693 4061.54 453.063063063063 4082.9 451.62162162162156 4104.26 449.6036036036036 4125.62 449.3153153153153 4146.98 447.009009009009 4168.34 445.5675675675676 4189.7 444.990990990991 4211.0599999999995 442.3963963963964 4232.42 439.80180180180184 4253.78 438.36036036036046 4275.139999999999 438.07207207207205 4296.5 436.0540540540542 4296.5 410.6846846846848 4275.139999999999 412.70270270270265 4253.78 412.99099099099107 4232.42 414.43243243243245 4211.0599999999995 417.02702702702703 4189.7 419.6216216216216 4168.34 420.1981981981982 4146.98 421.6396396396396 4125.62 423.9459459459459 4104.26 424.2342342342342 4082.9 426.25225225225216 4061.54 427.6936936936936 4040.18 429.9999999999999 4018.8199999999997 434.32432432432427 3997.46 434.61261261261257 3976.1 435.18918918918916 3954.74 435.18918918918916 3933.38 435.76576576576576 3912.02 436.05405405405395 3890.66 438.36036036036035 3869.3 437.49549549549545 3847.94 438.36036036036035 3826.58 438.64864864864865 3805.2200000000003 438.93693693693695 3783.86 440.37837837837844 3762.5 443.2612612612611 3741.14 444.126126126126 3719.7799999999997 444.4144144144143 3698.42 444.7027027027026 3677.06 445.5675675675675 3655.7 450.75675675675666 3634.34 452.19819819819816 3612.98 452.48648648648646 3591.62 454.21621621621625 3570.26 454.79279279279285 3548.9 454.79279279279285 3527.54 456.52252252252254 3506.18 457.3873873873873 3484.82 458.8288288288287 3463.46 459.4054054054053 3442.1 459.981981981982 3420.74 460.2702702702702 3399.38 460.8468468468468 3378.02 461.1351351351351 3356.66 461.1351351351351 3335.3 462.5765765765766 3313.94 465.1711711711712 3292.58 467.47747747747746 3271.22 468.63063063063066 3249.86 467.76576576576576 3228.5 470.07207207207205 3228.5 494.86486486486484Z" fill="#fdd5a4" opacity="0.9" />
		</g>
		<g>
			<path d="M3228.5 470.07207207207205 3249.86 467.76576576576576 3271.22 468.63063063063066 3292.58 467.47747747747746 3313.94 465.1711711711712 3335.3 462.5765765765766 3356.66 461.1351351351351 3378.02 461.1351351351351 3399.38 460.8468468468468 3420.74 460.2702702702702 3442.1 459.981981981982 3463.46 459.4054054054053 3484.82 458.8288288288287 3506.18 457.3873873873873 3527.54 456.52252252252254 3548.9 454.79279279279285 3570.26 454.79279279279285 3591.62 454.21621621621625 3612.98 452.48648648648646 3634.34 452.19819819819816 3655.7 450.75675675675666 3677.06 445.5675675675675 3698.42 444.7027027027026 3719.7799999999997 444.4144144144143 3741.14 444.126126126126 3762.5 443.2612612612611 3783.86 440.37837837837844 3805.2200000000003 438.93693693693695 3826.58 438.64864864864865 3847.94 438.36036036036035 3869.3 437.49549549549545 3890.66 438.36036036036035 3912.02 436.05405405405395 3933.38 435.76576576576576 3954.74 435.18918918918916 3976.1 435.18918918918916 3997.46 434.61261261261257 4018.8199999999997 434.32432432432427 4040.18 429.9999999999999 4061.54 427.6936936936936 4082.9 426.25225225225216 4104.26 424.2342342342342 4125.62 423.9459459459459 4146.98 421.6396396396396 4168.34 420.1981981981982 4189.7 419.6216216216216 4211.0599999999995 417.02702702702703 4232.42 414.43243243243245 4253.78 412.99099099099107 4275.139999999999 412.70270270270265 4296.5 410.6846846846848 4296.5 398.0000000000001 4275.139999999999 400.018018018018 4253.78 400.3063063063064 4232.42 401.7477477477478 4211.0599999999995 404.34234234234236 4189.7 406.93693693693695 4168.34 407.51351351351354 4146.98 408.9549549549549 4125.62 411.2612612612612 4104.26 411.5495495495495 4082.9 413.5675675675675 4061.54 415.29729729729723 4040.18 417.6036036036035 4018.8199999999997 421.9279279279279 3997.46 422.2162162162162 3976.1 422.7927927927928 3954.74 422.7927927927928 3933.38 423.3693693693694 3912.02 423.6576576576576 3890.66 425.963963963964 3869.3 425.0990990990991 3847.94 425.963963963964 3826.58 426.2522522522523 3805.2200000000003 426.5405405405406 3783.86 427.9819819819821 3762.5 430.8648648648647 3741.14 431.7297297297296 3719.7799999999997 432.0180180180179 3698.42 432.3063063063062 3677.06 433.1711711711711 3655.7 438.3603603603603 3634.34 439.8018018018018 3612.98 440.0900900900901 3591.62 441.8198198198199 3570.26 442.3963963963965 3548.9 442.3963963963965 3527.54 444.12612612612617 3506.18 444.99099099099095 3484.82 446.43243243243234 3463.46 447.00900900900893 3442.1 447.58558558558565 3420.74 447.87387387387383 3399.38 448.45045045045043 3378.02 448.73873873873873 3356.66 448.73873873873873 3335.3 450.18018018018023 3313.94 452.7747747747748 3292.58 455.0810810810811 3271.22 456.2342342342343 3249.86 455.3693693693694 3228.5 457.6756756756757 3228.5 470.07207207207205Z" fill="#55c0e9" opacity="0.9" />
		</g>
		<g>
			<rect x="4372" y="431" width="22.9995" height="23" fill="#f48c7d" />
		</g>
		<g>
			<text fill="#595959" font-family="Verdana,Open Sans,DejaVu Sans,sans-serif" font-weight="400" font-size="41" transform="matrix(1 0 0 1 4404.56 454)">Other</text>
		</g>
		<g>
			<rect x="4372" y="508" width="22.9995" height="23" fill="#005aa6" />
		</g>
		<g>
			<text fill="#595959" font-family="Verdana,Open Sans,DejaVu Sans,sans-serif" font-weight="400" font-size="41" transform="matrix(1 0 0 1 4404.56 531)">iOS</text>
		</g>
		<g>
			<rect x="4372" y="585" width="22.9995" height="23" fill="#f6a118" />
		</g>
		<g>
			<text fill="#595959" font-family="Verdana,Open Sans,DejaVu Sans,sans-serif" font-weight="400" font-size="41" transform="matrix(1 0 0 1 4404.56 608)">macOS</text>
		</g>
		<g>
			<rect x="4372" y="662" width="22.9995" height="23" fill="#e62d39" />
		</g>
		<g>
			<text fill="#595959" font-family="Verdana,Open Sans,DejaVu Sans,sans-serif" font-weight="400" font-size="41" transform="matrix(1 0 0 1 4404.56 685)">Android</text>
		</g>
		<g>
			<rect x="4372" y="739" width="22.9995" height="23" fill="#fdd5a4" />
		</g>
		<g>
			<text fill="#595959" font-family="Verdana,Open Sans,DejaVu Sans,sans-serif" font-weight="400" font-size="41" transform="matrix(1 0 0 1 4404.56 762)">Linux</text>
		</g>
		<g>
			<rect x="4372" y="816" width="22.9995" height="23" fill="#55c0e9" />
		</g>
		<g>
			<text fill="#595959" font-family="Verdana,Open Sans,DejaVu Sans,sans-serif" font-weight="400" font-size="41" transform="matrix(1 0 0 1 4404.56 839)">Windows</text>
		</g>
	</g>
</svg>
