<svg width="1763" height="1046"
    xmlns="http://www.w3.org/2000/svg"
	xmlns:xlink="http://www.w3.org/1999/xlink" xml:space="preserve" overflow="hidden">
	<defs>
		<clipPath id="clip0">
			<rect x="2917" y="346" width="1763" height="1046"/>
		</clipPath>
	</defs>
	<g clip-path="url(#clip0)" transform="translate(-2917 -346)">
		<rect x="2918" y="347" width="1760" height="1043" fill="#FFFFFF" />
		<g>
			<path d="
			M3228.5 974.532 4296.5 974.532
			M3228.5 910.53 4296.5 910.53
			M3228.5 846.528 4296.5 846.528
			M3228.5 781.526 4296.5 781.526
			M3228.5 717.524 4296.5 717.524
			M3228.5 653.522 4296.5 653.522
			M3228.5 589.52 4296.5 589.52
			M3228.5 525.517 4296.5 525.517
			M3228.5 461.515 4296.5 461.515
			M3228.5 397.5 4296.5 397.5" stroke="#D9D9D9" stroke-width="3.4375" stroke-linejoin="round" stroke-miterlimit="10" fill="none" />
		</g>
		<g>
			<path d="M 1038.5 4296.5 1038.5" stroke="#D9D9D9" stroke-width="3.4375" stroke-linejoin="round" stroke-miterlimit="10" fill="none" fill-rule="evenodd" />
		</g>
		<g>
			<text fill="#595959" font-family="Verdana,sans-serif" font-weight="400" font-size="41" transform="matrix(6.12323e-17 -1 1 6.12323e-17 3248 1216)">22-Apr</text>
		</g>
		<g>
			<text fill="#595959" font-family="Verdana,sans-serif" font-weight="400" font-size="41" transform="matrix(6.12323e-17 -1 1 6.12323e-17 3331.764705882353 1228)">20-May</text>
		</g>
		<g>
			<text fill="#595959" font-family="Verdana,sans-serif" font-weight="400" font-size="41" transform="matrix(6.12323e-17 -1 1 6.12323e-17 3411.529411764706 1209)">17-Jun</text>
		</g>
		<g>
			<text fill="#595959" font-family="Verdana,sans-serif" font-weight="400" font-size="41" transform="matrix(6.12323e-17 -1 1 6.12323e-17 3495.794117647059 1194)">15-Jul</text>
		</g>
		<g>
			<text fill="#595959" font-family="Verdana,sans-serif" font-weight="400" font-size="41" transform="matrix(6.12323e-17 -1 1 6.12323e-17 3583.0588235294117 1218)">12-Aug</text>
		</g>
		<g>
			<text fill="#595959" font-family="Verdana,sans-serif" font-weight="400" font-size="41" transform="matrix(6.12323e-17 -1 1 6.12323e-17 3666.823529411765 1222)">09-Sep</text>
		</g>
		<g>
			<text fill="#595959" font-family="Verdana,sans-serif" font-weight="400" font-size="41" transform="matrix(6.12323e-17 -1 1 6.12323e-17 3747.0882352941176 1215)">07-Oct</text>
		</g>
		<g>
			<text fill="#595959" font-family="Verdana,sans-serif" font-weight="400" font-size="41" transform="matrix(6.12323e-17 -1 1 6.12323e-17 3830.8529411764707 1225)">04-Nov</text>
		</g>
		<g>
			<text fill="#595959" font-family="Verdana,sans-serif" font-weight="400" font-size="41" transform="matrix(6.12323e-17 -1 1 6.12323e-17 3914.6176470588234 1223)">09-Dec</text>
		</g>
		<g>
			<text fill="#595959" font-family="Verdana,sans-serif" font-weight="400" font-size="41" transform="matrix(6.12323e-17 -1 1 6.12323e-17 3998.3823529411766 1210)">06-Jan</text>
		</g>
		<g>
			<text fill="#595959" font-family="Verdana,sans-serif" font-weight="400" font-size="41" transform="matrix(6.12323e-17 -1 1 6.12323e-17 4082.1470588235293 1217)">03-Feb</text>
		</g>
		<g>
			<text fill="#595959" font-family="Verdana,sans-serif" font-weight="400" font-size="41" transform="matrix(6.12323e-17 -1 1 6.12323e-17 4165.911764705882 1223)">03-Mar</text>
		</g>
		<g>
			<text fill="#595959" font-family="Verdana,sans-serif" font-weight="400" font-size="41" transform="matrix(6.12323e-17 -1 1 6.12323e-17 4249.676470588235 1223)">31-Mar</text>
		</g>
		<g>
			<text fill="#595959" font-family="Verdana,sans-serif" font-weight="400" font-size="41" transform="matrix(1 0 0 1 3167.5 1050)">0</text>
		</g>
		<g>
			<text fill="#595959" font-family="Verdana,sans-serif" font-weight="400" font-size="41" transform="matrix(1 0 0 1 3114.5 922)">402</text>
		</g>
		<g>
			<text fill="#595959" font-family="Verdana,sans-serif" font-weight="400" font-size="41" transform="matrix(1 0 0 1 3115.5 794)">805</text>
		</g>
		<g>
			<text fill="#595959" font-family="Verdana,sans-serif" font-weight="400" font-size="41" transform="matrix(1 0 0 1 3076.5 666)">1,207</text>
		</g>
		<g>
			<text fill="#595959" font-family="Verdana,sans-serif" font-weight="400" font-size="41" transform="matrix(1 0 0 1 3077.5 538)">1,610</text>
		</g>
		<g>
			<text fill="#595959" font-family="Verdana,sans-serif" font-weight="400" font-size="41" transform="matrix(1 0 0 1 3074.5 410)">2,012</text>
		</g>
		<g>
			<text fill="#595959" font-family="Verdana,sans-serif" font-weight="400" font-size="41" transform="matrix(1 0 0 1 3544.5 1321)">Week Commencing</text>
		</g>
		<g>
			<text fill="#595959" font-family="Verdana,sans-serif" font-weight="400" font-size="46" transform="matrix(6.12323e-17 -1 1 6.12323e-17 3019.73 970.75)">Number of OS Profiles</text>
		</g>
		<rect x="2918.5" y="347.5" width="1760" height="1043" stroke="#D9D9D9" stroke-width="3.4375" stroke-linejoin="round" stroke-miterlimit="10" fill="none" />
		<g>
			<path d="M3228.5 1038 3249.4411764705883 1038 3270.3823529411766 1038 3291.323529411765 1038 3312.264705882353 1038 3333.205882352941 1038 3354.1470588235293 1038 3375.0882352941176 1038 3396.029411764706 1038 3416.970588235294 1038 3437.9117647058824 1038 3458.8529411764707 1038 3479.794117647059 1038 3500.735294117647 1038 3521.676470588235 1038 3542.6176470588234 1038 3563.5588235294117 1038 3584.5 1038 3605.4411764705883 1038 3626.3823529411766 1038 3647.323529411765 1038 3668.264705882353 1038 3689.205882352941 1038 3710.1470588235293 1038 3731.0882352941176 1038 3752.029411764706 1038 3772.970588235294 1038 3793.9117647058824 1038 3814.8529411764707 1038 3835.7941176470586 1038 3856.735294117647 1038 3877.676470588235 1038 3898.6176470588234 1038 3919.5588235294117 1038 3940.5 1038 3961.4411764705883 1038 3982.3823529411766 1038 4003.323529411765 1038 4024.264705882353 1038 4045.2058823529414 1038 4066.1470588235293 1038 4087.0882352941176 1038 4108.029411764706 1038 4128.970588235294 1038 4149.911764705882 1038 4170.85294117647 1038 4191.794117647059 1038 4212.735294117647 1038 4233.676470588235 1038 4254.617647058823 1038 4275.558823529412 1038 4296.5 1038 4296.5 699.2326043737575 4275.558823529412 699.5506958250496 4254.617647058823 699.5506958250496 4233.676470588235 700.5049701789264 4212.735294117647 701.141153081511 4191.794117647059 701.7773359840954 4170.85294117647 701.7773359840954 4149.911764705882 703.0497017892644 4128.970588235294 703.685884691849 4108.029411764706 703.685884691849 4087.0882352941176 704.3220675944334 4066.1470588235293 704.9582504970178 4045.2058823529414 705.5944333996024 4024.264705882353 706.230616302187 4003.323529411765 706.5487077534791 3982.3823529411766 706.5487077534791 3961.4411764705883 706.5487077534791 3940.5 706.5487077534791 3919.5588235294117 707.1848906560635 3898.6176470588234 707.1848906560635 3877.676470588235 707.8210735586481 3856.735294117647 708.4572564612326 3835.7941176470586 708.7753479125249 3814.8529411764707 709.0934393638171 3793.9117647058824 709.0934393638171 3772.970588235294 709.4115308151094 3752.029411764706 709.4115308151094 3731.0882352941176 711.0019880715706 3710.1470588235293 711.3200795228629 3689.205882352941 712.2743538767395 3668.264705882353 712.5924453280318 3647.323529411765 713.5467196819086 3626.3823529411766 714.182902584493 3605.4411764705883 714.182902584493 3584.5 714.5009940357852 3563.5588235294117 714.5009940357852 3542.6176470588234 714.8190854870775 3521.676470588235 714.8190854870775 3500.735294117647 715.7733598409543 3479.794117647059 715.7733598409543 3458.8529411764707 716.0914512922466 3437.9117647058824 718.9542743538767 3416.970588235294 718.9542743538767 3396.029411764706 719.5904572564611 3375.0882352941176 720.544731610338 3354.1470588235293 721.1809145129225 3333.205882352941 722.4532803180914 3312.264705882353 723.089463220676 3291.323529411765 723.4075546719682 3270.3823529411766 723.7256461232605 3249.4411764705883 723.7256461232605 3228.5 724.0437375745527 3228.5 1038Z" fill="#fdd5a4" opacity="0.9" />
		</g>
		<g>
			<path d="M3228.5 724.0437375745527 3249.4411764705883 723.7256461232605 3270.3823529411766 723.7256461232605 3291.323529411765 723.4075546719682 3312.264705882353 723.089463220676 3333.205882352941 722.4532803180914 3354.1470588235293 721.1809145129225 3375.0882352941176 720.544731610338 3396.029411764706 719.5904572564611 3416.970588235294 718.9542743538767 3437.9117647058824 718.9542743538767 3458.8529411764707 716.0914512922466 3479.794117647059 715.7733598409543 3500.735294117647 715.7733598409543 3521.676470588235 714.8190854870775 3542.6176470588234 714.8190854870775 3563.5588235294117 714.5009940357852 3584.5 714.5009940357852 3605.4411764705883 714.182902584493 3626.3823529411766 714.182902584493 3647.323529411765 713.5467196819086 3668.264705882353 712.5924453280318 3689.205882352941 712.2743538767395 3710.1470588235293 711.3200795228629 3731.0882352941176 711.0019880715706 3752.029411764706 709.4115308151094 3772.970588235294 709.4115308151094 3793.9117647058824 709.0934393638171 3814.8529411764707 709.0934393638171 3835.7941176470586 708.7753479125249 3856.735294117647 708.4572564612326 3877.676470588235 707.8210735586481 3898.6176470588234 707.1848906560635 3919.5588235294117 707.1848906560635 3940.5 706.5487077534791 3961.4411764705883 706.5487077534791 3982.3823529411766 706.5487077534791 4003.323529411765 706.5487077534791 4024.264705882353 706.230616302187 4045.2058823529414 705.5944333996024 4066.1470588235293 704.9582504970178 4087.0882352941176 704.3220675944334 4108.029411764706 703.685884691849 4128.970588235294 703.685884691849 4149.911764705882 703.0497017892644 4170.85294117647 701.7773359840954 4191.794117647059 701.7773359840954 4212.735294117647 701.141153081511 4233.676470588235 700.5049701789264 4254.617647058823 699.5506958250496 4275.558823529412 699.5506958250496 4296.5 699.2326043737575 4296.5 552.2743538767395 4275.558823529412 553.2286282306162 4254.617647058823 553.2286282306162 4233.676470588235 556.0914512922466 4212.735294117647 557.0457256461233 4191.794117647059 557.6819085487077 4170.85294117647 558.3180914512923 4149.911764705882 559.5904572564613 4128.970588235294 560.8628230616303 4108.029411764706 560.8628230616303 4087.0882352941176 562.4532803180914 4066.1470588235293 563.089463220676 4045.2058823529414 563.7256461232605 4024.264705882353 564.6799204771372 4003.323529411765 564.9980119284294 3982.3823529411766 565.6341948310139 3961.4411764705883 565.6341948310139 3940.5 565.6341948310139 3919.5588235294117 566.9065606361828 3898.6176470588234 567.2246520874751 3877.676470588235 567.8608349900596 3856.735294117647 569.7693836978132 3835.7941176470586 570.0874751491054 3814.8529411764707 570.4055666003976 3793.9117647058824 571.3598409542743 3772.970588235294 572.3141153081511 3752.029411764706 572.3141153081511 3731.0882352941176 573.9045725646124 3710.1470588235293 574.8588469184891 3689.205882352941 575.8131212723657 3668.264705882353 576.131212723658 3647.323529411765 577.7216699801194 3626.3823529411766 578.3578528827038 3605.4411764705883 578.3578528827038 3584.5 578.675944333996 3563.5588235294117 578.675944333996 3542.6176470588234 580.2664015904572 3521.676470588235 581.8568588469184 3500.735294117647 583.1292246520875 3479.794117647059 583.1292246520875 3458.8529411764707 583.4473161033798 3437.9117647058824 586.3101391650099 3416.970588235294 586.3101391650099 3396.029411764706 587.2644135188866 3375.0882352941176 589.1729622266402 3354.1470588235293 589.8091451292247 3333.205882352941 591.0815109343936 3312.264705882353 592.3538767395626 3291.323529411765 593.3081510934394 3270.3823529411766 593.6262425447317 3249.4411764705883 593.6262425447317 3228.5 594.2624254473161 3228.5 724.0437375745527Z" fill="#e62d39" opacity="0.9" />
		</g>
		<g>
			<path d="M3228.5 594.2624254473161 3249.4411764705883 593.6262425447317 3270.3823529411766 593.6262425447317 3291.323529411765 593.3081510934394 3312.264705882353 592.3538767395626 3333.205882352941 591.0815109343936 3354.1470588235293 589.8091451292247 3375.0882352941176 589.1729622266402 3396.029411764706 587.2644135188866 3416.970588235294 586.3101391650099 3437.9117647058824 586.3101391650099 3458.8529411764707 583.4473161033798 3479.794117647059 583.1292246520875 3500.735294117647 583.1292246520875 3521.676470588235 581.8568588469184 3542.6176470588234 580.2664015904572 3563.5588235294117 578.675944333996 3584.5 578.675944333996 3605.4411764705883 578.3578528827038 3626.3823529411766 578.3578528827038 3647.323529411765 577.7216699801194 3668.264705882353 576.131212723658 3689.205882352941 575.8131212723657 3710.1470588235293 574.8588469184891 3731.0882352941176 573.9045725646124 3752.029411764706 572.3141153081511 3772.970588235294 572.3141153081511 3793.9117647058824 571.3598409542743 3814.8529411764707 570.4055666003976 3835.7941176470586 570.0874751491054 3856.735294117647 569.7693836978132 3877.676470588235 567.8608349900596 3898.6176470588234 567.2246520874751 3919.5588235294117 566.9065606361828 3940.5 565.6341948310139 3961.4411764705883 565.6341948310139 3982.3823529411766 565.6341948310139 4003.323529411765 564.9980119284294 4024.264705882353 564.6799204771372 4045.2058823529414 563.7256461232605 4066.1470588235293 563.089463220676 4087.0882352941176 562.4532803180914 4108.029411764706 560.8628230616303 4128.970588235294 560.8628230616303 4149.911764705882 559.5904572564613 4170.85294117647 558.3180914512923 4191.794117647059 557.6819085487077 4212.735294117647 557.0457256461233 4233.676470588235 556.0914512922466 4254.617647058823 553.2286282306162 4275.558823529412 553.2286282306162 4296.5 552.2743538767395 4296.5 492.47316103379717 4275.558823529412 493.4274353876739 4254.617647058823 493.4274353876739 4233.676470588235 496.29025844930425 4212.735294117647 497.24453280318096 4191.794117647059 497.8807157057654 4170.85294117647 498.51689860834995 4149.911764705882 499.78926441351894 4128.970588235294 501.0616302186879 4108.029411764706 501.0616302186879 4087.0882352941176 502.6520874751491 4066.1470588235293 503.2882703777336 4045.2058823529414 503.9244532803182 4024.264705882353 504.8787276341949 4003.323529411765 505.19681908548705 3982.3823529411766 505.8330019880716 3961.4411764705883 505.8330019880716 3940.5 505.8330019880716 3919.5588235294117 507.1053677932405 3898.6176470588234 507.42345924453275 3877.676470588235 508.0596421471173 3856.735294117647 510.28628230616306 3835.7941176470586 510.60437375745533 3814.8529411764707 510.9224652087475 3793.9117647058824 511.8767395626242 3772.970588235294 512.8310139165011 3752.029411764706 512.8310139165011 3731.0882352941176 514.4214711729624 3710.1470588235293 515.3757455268391 3689.205882352941 516.3300198807157 3668.264705882353 516.6481113320079 3647.323529411765 518.2385685884693 3626.3823529411766 518.8747514910538 3605.4411764705883 518.8747514910538 3584.5 519.1928429423459 3563.5588235294117 519.1928429423459 3542.6176470588234 520.7833001988072 3521.676470588235 522.3737574552683 3500.735294117647 523.6461232604374 3479.794117647059 523.6461232604374 3458.8529411764707 523.9642147117297 3437.9117647058824 526.8270377733598 3416.970588235294 526.8270377733598 3396.029411764706 527.7813121272366 3375.0882352941176 529.6898608349901 3354.1470588235293 530.3260437375747 3333.205882352941 532.234592445328 3312.264705882353 533.506958250497 3291.323529411765 534.4612326043738 3270.3823529411766 535.0974155069583 3249.4411764705883 535.0974155069583 3228.5 535.7335984095428 3228.5 594.2624254473161Z" fill="#005aa6" opacity="0.9" />
		</g>
		<g>
			<path d="M3228.5 535.7335984095428 3249.4411764705883 535.0974155069583 3270.3823529411766 535.0974155069583 3291.323529411765 534.4612326043738 3312.264705882353 533.506958250497 3333.205882352941 532.234592445328 3354.1470588235293 530.3260437375747 3375.0882352941176 529.6898608349901 3396.029411764706 527.7813121272366 3416.970588235294 526.8270377733598 3437.9117647058824 526.8270377733598 3458.8529411764707 523.9642147117297 3479.794117647059 523.6461232604374 3500.735294117647 523.6461232604374 3521.676470588235 522.3737574552683 3542.6176470588234 520.7833001988072 3563.5588235294117 519.1928429423459 3584.5 519.1928429423459 3605.4411764705883 518.8747514910538 3626.3823529411766 518.8747514910538 3647.323529411765 518.2385685884693 3668.264705882353 516.6481113320079 3689.205882352941 516.3300198807157 3710.1470588235293 515.3757455268391 3731.0882352941176 514.4214711729624 3752.029411764706 512.8310139165011 3772.970588235294 512.8310139165011 3793.9117647058824 511.8767395626242 3814.8529411764707 510.9224652087475 3835.7941176470586 510.60437375745533 3856.735294117647 510.28628230616306 3877.676470588235 508.0596421471173 3898.6176470588234 507.42345924453275 3919.5588235294117 507.1053677932405 3940.5 505.8330019880716 3961.4411764705883 505.8330019880716 3982.3823529411766 505.8330019880716 4003.323529411765 505.19681908548705 4024.264705882353 504.8787276341949 4045.2058823529414 503.9244532803182 4066.1470588235293 503.2882703777336 4087.0882352941176 502.6520874751491 4108.029411764706 501.0616302186879 4128.970588235294 501.0616302186879 4149.911764705882 499.78926441351894 4170.85294117647 498.51689860834995 4191.794117647059 497.8807157057654 4212.735294117647 497.24453280318096 4233.676470588235 496.29025844930425 4254.617647058823 493.4274353876739 4275.558823529412 493.4274353876739 4296.5 492.47316103379717 4296.5 438.7157057654075 4275.558823529412 439.9880715705765 4254.617647058823 439.9880715705765 4233.676470588235 443.8051689860836 4212.735294117647 444.7594433399603 4191.794117647059 445.3956262425447 4170.85294117647 446.34990059642155 4149.911764705882 447.62226640159054 4128.970588235294 449.21272365805174 4108.029411764706 449.84890656063624 4087.0882352941176 451.7574552683896 4066.1470588235293 453.02982107355865 4045.2058823529414 453.6660039761432 4024.264705882353 454.6202783300199 4003.323529411765 454.9383697813121 3982.3823529411766 455.5745526838966 3961.4411764705883 455.5745526838966 3940.5 455.5745526838966 3919.5588235294117 457.80119284294227 3898.6176470588234 458.11928429423455 3877.676470588235 458.7554671968191 3856.735294117647 461.3001988071571 3835.7941176470586 461.30019880715713 3814.8529411764707 461.6182902584493 3793.9117647058824 462.8906560636182 3772.970588235294 464.1630218687874 3752.029411764706 464.4811133200796 3731.0882352941176 466.38966202783314 3710.1470588235293 467.34393638170985 3689.205882352941 468.29821073558645 3668.264705882353 468.93439363817095 3647.323529411765 470.5248508946323 3626.3823529411766 471.16103379721676 3605.4411764705883 471.16103379721676 3584.5 471.4791252485089 3563.5588235294117 471.1610337972167 3542.6176470588234 473.7057654075547 3521.676470588235 475.9324055666003 3500.735294117647 477.2047713717694 3479.794117647059 477.2047713717694 3458.8529411764707 477.2047713717695 3437.9117647058824 480.0675944333996 3416.970588235294 480.0675944333996 3396.029411764706 481.33996023856855 3375.0882352941176 483.56660039761437 3354.1470588235293 484.2027833001989 3333.205882352941 486.1113320079522 3312.264705882353 487.3836978131212 3291.323529411765 488.97415506958254 3270.3823529411766 489.6103379721671 3249.4411764705883 489.6103379721671 3228.5 490.2465208747515 3228.5 535.7335984095428Z" fill="#f6a118" opacity="0.9" />
		</g>
		<g>
			<path d="M3228.5 490.2465208747515 3249.4411764705883 489.6103379721671 3270.3823529411766 489.6103379721671 3291.323529411765 488.97415506958254 3312.264705882353 487.3836978131212 3333.205882352941 486.1113320079522 3354.1470588235293 484.2027833001989 3375.0882352941176 483.56660039761437 3396.029411764706 481.33996023856855 3416.970588235294 480.0675944333996 3437.9117647058824 480.0675944333996 3458.8529411764707 477.2047713717695 3479.794117647059 477.2047713717694 3500.735294117647 477.2047713717694 3521.676470588235 475.9324055666003 3542.6176470588234 473.7057654075547 3563.5588235294117 471.1610337972167 3584.5 471.4791252485089 3605.4411764705883 471.16103379721676 3626.3823529411766 471.16103379721676 3647.323529411765 470.5248508946323 3668.264705882353 468.93439363817095 3689.205882352941 468.29821073558645 3710.1470588235293 467.34393638170985 3731.0882352941176 466.38966202783314 3752.029411764706 464.4811133200796 3772.970588235294 464.1630218687874 3793.9117647058824 462.8906560636182 3814.8529411764707 461.6182902584493 3835.7941176470586 461.30019880715713 3856.735294117647 461.3001988071571 3877.676470588235 458.7554671968191 3898.6176470588234 458.11928429423455 3919.5588235294117 457.80119284294227 3940.5 455.5745526838966 3961.4411764705883 455.5745526838966 3982.3823529411766 455.5745526838966 4003.323529411765 454.9383697813121 4024.264705882353 454.6202783300199 4045.2058823529414 453.6660039761432 4066.1470588235293 453.02982107355865 4087.0882352941176 451.7574552683896 4108.029411764706 449.84890656063624 4128.970588235294 449.21272365805174 4149.911764705882 447.62226640159054 4170.85294117647 446.34990059642155 4191.794117647059 445.3956262425447 4212.735294117647 444.7594433399603 4233.676470588235 443.8051689860836 4254.617647058823 439.9880715705765 4275.558823529412 439.9880715705765 4296.5 438.7157057654075 4296.5 411.67793240556654 4275.558823529412 412.9502982107355 4254.617647058823 412.9502982107355 4233.676470588235 416.7673956262426 4212.735294117647 417.7216699801193 4191.794117647059 418.35785288270375 4170.85294117647 419.3121272365806 4149.911764705882 420.90258449304184 4128.970588235294 422.49304174950305 4108.029411764706 423.12922465208754 4087.0882352941176 425.0377733598409 4066.1470588235293 426.31013916500996 4045.2058823529414 426.9463220675945 4024.264705882353 427.9005964214712 4003.323529411765 428.2186878727634 3982.3823529411766 428.85487077534793 3961.4411764705883 428.85487077534793 3940.5 428.85487077534793 3919.5588235294117 431.0815109343936 3898.6176470588234 431.39960238568585 3877.676470588235 432.0357852882704 3856.735294117647 434.5805168986084 3835.7941176470586 434.58051689860844 3814.8529411764707 434.8986083499006 3793.9117647058824 436.17097415506953 3772.970588235294 437.4433399602387 3752.029411764706 438.0795228628231 3731.0882352941176 439.98807157057666 3710.1470588235293 440.9423459244534 3689.205882352941 441.89662027833 3668.264705882353 442.53280318091447 3647.323529411765 444.12326043737585 3626.3823529411766 444.7594433399603 3605.4411764705883 444.7594433399603 3584.5 445.07753479125245 3563.5588235294117 444.7594433399602 3542.6176470588234 447.3041749502982 3521.676470588235 449.53081510934385 3500.735294117647 450.80318091451295 3479.794117647059 450.80318091451295 3458.8529411764707 450.803180914513 3437.9117647058824 453.66600397614314 3416.970588235294 453.66600397614314 3396.029411764706 454.9383697813121 3375.0882352941176 457.1650099403579 3354.1470588235293 457.80119284294244 3333.205882352941 459.70974155069575 3312.264705882353 460.98210735586474 3291.323529411765 462.57256461232606 3270.3823529411766 463.2087475149106 3249.4411764705883 463.5268389662029 3228.5 464.1630218687873 3228.5 490.2465208747515Z" fill="#f48c7d" opacity="0.9" />
		</g>
		<g>
			<path d="M3228.5 464.1630218687873 3249.4411764705883 463.5268389662029 3270.3823529411766 463.2087475149106 3291.323529411765 462.57256461232606 3312.264705882353 460.98210735586474 3333.205882352941 459.70974155069575 3354.1470588235293 457.80119284294244 3375.0882352941176 457.1650099403579 3396.029411764706 454.9383697813121 3416.970588235294 453.66600397614314 3437.9117647058824 453.66600397614314 3458.8529411764707 450.803180914513 3479.794117647059 450.80318091451295 3500.735294117647 450.80318091451295 3521.676470588235 449.53081510934385 3542.6176470588234 447.3041749502982 3563.5588235294117 444.7594433399602 3584.5 445.07753479125245 3605.4411764705883 444.7594433399603 3626.3823529411766 444.7594433399603 3647.323529411765 444.12326043737585 3668.264705882353 442.53280318091447 3689.205882352941 441.89662027833 3710.1470588235293 440.9423459244534 3731.0882352941176 439.98807157057666 3752.029411764706 438.0795228628231 3772.970588235294 437.4433399602387 3793.9117647058824 436.17097415506953 3814.8529411764707 434.8986083499006 3835.7941176470586 434.58051689860844 3856.735294117647 434.5805168986084 3877.676470588235 432.0357852882704 3898.6176470588234 431.39960238568585 3919.5588235294117 431.0815109343936 3940.5 428.85487077534793 3961.4411764705883 428.85487077534793 3982.3823529411766 428.85487077534793 4003.323529411765 428.2186878727634 4024.264705882353 427.9005964214712 4045.2058823529414 426.9463220675945 4066.1470588235293 426.31013916500996 4087.0882352941176 425.0377733598409 4108.029411764706 423.12922465208754 4128.970588235294 422.49304174950305 4149.911764705882 420.90258449304184 4170.85294117647 419.3121272365806 4191.794117647059 418.35785288270375 4212.735294117647 417.7216699801193 4233.676470588235 416.7673956262426 4254.617647058823 412.9502982107355 4275.558823529412 412.9502982107355 4296.5 411.67793240556654 4296.5 397.99999999999994 4275.558823529412 399.27236580516893 4254.617647058823 399.27236580516893 4233.676470588235 403.089463220676 4212.735294117647 404.0437375745527 4191.794117647059 404.67992047713716 4170.85294117647 405.634194831014 4149.911764705882 407.22465208747525 4128.970588235294 408.81510934393646 4108.029411764706 409.45129224652095 4087.0882352941176 411.3598409542743 4066.1470588235293 412.63220675944336 4045.2058823529414 413.2683896620279 4024.264705882353 414.2226640159046 4003.323529411765 414.5407554671968 3982.3823529411766 415.17693836978134 3961.4411764705883 415.17693836978134 3940.5 415.17693836978134 3919.5588235294117 417.403578528827 3898.6176470588234 417.72166998011926 3877.676470588235 418.3578528827038 3856.735294117647 420.9025844930418 3835.7941176470586 420.90258449304184 3814.8529411764707 421.220675944334 3793.9117647058824 420.58449304174945 3772.970588235294 421.8568588469186 3752.029411764706 422.49304174950305 3731.0882352941176 424.4015904572566 3710.1470588235293 425.3558648111333 3689.205882352941 426.3101391650099 3668.264705882353 426.9463220675944 3647.323529411765 428.5367793240558 3626.3823529411766 429.1729622266402 3605.4411764705883 429.1729622266402 3584.5 429.49105367793237 3563.5588235294117 429.17296222664015 3542.6176470588234 431.7176938369781 3521.676470588235 433.9443339960238 3500.735294117647 435.2166998011929 3479.794117647059 435.2166998011929 3458.8529411764707 435.8528827037774 3437.9117647058824 438.71570576540756 3416.970588235294 438.71570576540756 3396.029411764706 439.9880715705765 3375.0882352941176 442.2147117296223 3354.1470588235293 442.5328031809146 3333.205882352941 445.0775347912524 3312.264705882353 446.3499005964214 3291.323529411765 447.9403578528827 3270.3823529411766 448.57654075546725 3249.4411764705883 448.8946322067595 3228.5 449.53081510934396 3228.5 464.1630218687873Z" fill="#55c0e9" opacity="0.9" />
		</g>
		<g>
			<rect x="4372" y="431" width="22.9995" height="23" fill="#fdd5a4" />
		</g>
		<g>
			<text fill="#595959" font-family="Verdana,sans-serif" font-weight="400" font-size="41" transform="matrix(1 0 0 1 4404.56 454)">Other</text>
		</g>
		<g>
			<rect x="4372" y="508" width="22.9995" height="23" fill="#e62d39" />
		</g>
		<g>
			<text fill="#595959" font-family="Verdana,sans-serif" font-weight="400" font-size="41" transform="matrix(1 0 0 1 4404.56 531)">iOS</text>
		</g>
		<g>
			<rect x="4372" y="585" width="22.9995" height="23" fill="#005aa6" />
		</g>
		<g>
			<text fill="#595959" font-family="Verdana,sans-serif" font-weight="400" font-size="41" transform="matrix(1 0 0 1 4404.56 608)">Android</text>
		</g>
		<g>
			<rect x="4372" y="662" width="22.9995" height="23" fill="#f6a118" />
		</g>
		<g>
			<text fill="#595959" font-family="Verdana,sans-serif" font-weight="400" font-size="41" transform="matrix(1 0 0 1 4404.56 685)">macOS</text>
		</g>
		<g>
			<rect x="4372" y="739" width="22.9995" height="23" fill="#f48c7d" />
		</g>
		<g>
			<text fill="#595959" font-family="Verdana,sans-serif" font-weight="400" font-size="41" transform="matrix(1 0 0 1 4404.56 762)">Linux</text>
		</g>
		<g>
			<rect x="4372" y="816" width="22.9995" height="23" fill="#55c0e9" />
		</g>
		<g>
			<text fill="#595959" font-family="Verdana,sans-serif" font-weight="400" font-size="41" transform="matrix(1 0 0 1 4404.56 839)">Windows</text>
		</g>
	</g>
</svg>
