<svg width="1763" height="1046"
    xmlns="http://www.w3.org/2000/svg"
	xmlns:xlink="http://www.w3.org/1999/xlink" xml:space="preserve" overflow="hidden">
	<defs>
		<clipPath id="clip0">
			<rect x="2917" y="346" width="1763" height="1046"/>
		</clipPath>
	</defs>
	<g clip-path="url(#clip0)" transform="translate(-2917 -346)">
		<rect x="2918" y="347" width="1760" height="1043" fill="#FFFFFF" />
		<g>
			<path d="
			M3228.5 974.532 4296.5 974.532
			M3228.5 910.53 4296.5 910.53
			M3228.5 846.528 4296.5 846.528
			M3228.5 781.526 4296.5 781.526
			M3228.5 717.524 4296.5 717.524
			M3228.5 653.522 4296.5 653.522
			M3228.5 589.52 4296.5 589.52
			M3228.5 525.517 4296.5 525.517
			M3228.5 461.515 4296.5 461.515
			M3228.5 397.5 4296.5 397.5" stroke="#D9D9D9" stroke-width="3.4375" stroke-linejoin="round" stroke-miterlimit="10" fill="none" />
		</g>
		<g>
			<path d="M 1038.5 4296.5 1038.5" stroke="#D9D9D9" stroke-width="3.4375" stroke-linejoin="round" stroke-miterlimit="10" fill="none" fill-rule="evenodd" />
		</g>
		<g>
			<text fill="#595959" font-family="Verdana,Open Sans,DejaVu Sans,sans-serif" font-weight="400" font-size="41" transform="matrix(6.12323e-17 -1 1 6.12323e-17 3243.564697265625 1201.1000900268555)">07-Oct</text>
		</g>
		<g>
			<text fill="#595959" font-family="Verdana,Open Sans,DejaVu Sans,sans-serif" font-weight="400" font-size="41" transform="matrix(6.12323e-17 -1 1 6.12323e-17 3329.004697265625 1211.43017578125)">04-Nov</text>
		</g>
		<g>
			<text fill="#595959" font-family="Verdana,Open Sans,DejaVu Sans,sans-serif" font-weight="400" font-size="41" transform="matrix(6.12323e-17 -1 1 6.12323e-17 3414.444697265625 1207.0859375)">09-Dec</text>
		</g>
		<g>
			<text fill="#595959" font-family="Verdana,Open Sans,DejaVu Sans,sans-serif" font-weight="400" font-size="41" transform="matrix(6.12323e-17 -1 1 6.12323e-17 3503.53826171875 1191.6508712768555)">06-Jan</text>
		</g>
		<g>
			<text fill="#595959" font-family="Verdana,Open Sans,DejaVu Sans,sans-serif" font-weight="400" font-size="41" transform="matrix(6.12323e-17 -1 1 6.12323e-17 3586.035390625 1203.0419921875)">03-Feb</text>
		</g>
		<g>
			<text fill="#595959" font-family="Verdana,Open Sans,DejaVu Sans,sans-serif" font-weight="400" font-size="41" transform="matrix(6.12323e-17 -1 1 6.12323e-17 3670.764697265625 1212.0107421875)">03-Mar</text>
		</g>
		<g>
			<text fill="#595959" font-family="Verdana,Open Sans,DejaVu Sans,sans-serif" font-weight="400" font-size="41" transform="matrix(6.12323e-17 -1 1 6.12323e-17 3756.184677734375 1212.1708984375)">31-Mar</text>
		</g>
		<g>
			<text fill="#595959" font-family="Verdana,Open Sans,DejaVu Sans,sans-serif" font-weight="400" font-size="41" transform="matrix(6.12323e-17 -1 1 6.12323e-17 3846.349287109375 1203.3022384643555)">28-Apr</text>
		</g>
		<g>
			<text fill="#595959" font-family="Verdana,Open Sans,DejaVu Sans,sans-serif" font-weight="400" font-size="41" transform="matrix(6.12323e-17 -1 1 6.12323e-17 3931.789287109375 1216.51513671875)">26-May</text>
		</g>
		<g>
			<text fill="#595959" font-family="Verdana,Open Sans,DejaVu Sans,sans-serif" font-weight="400" font-size="41" transform="matrix(6.12323e-17 -1 1 6.12323e-17 4016.17826171875 1194.1733322143555)">30-Jun</text>
		</g>
		<g>
			<text fill="#595959" font-family="Verdana,Open Sans,DejaVu Sans,sans-serif" font-weight="400" font-size="41" transform="matrix(6.12323e-17 -1 1 6.12323e-17 4102.328955078125 1179.0385665893555)">28-Jul</text>
		</g>
		<g>
			<text fill="#595959" font-family="Verdana,Open Sans,DejaVu Sans,sans-serif" font-weight="400" font-size="41" transform="matrix(6.12323e-17 -1 1 6.12323e-17 4188.109287109375 1208.66748046875)">25-Aug</text>
		</g>
		<g>
			<text fill="#595959" font-family="Verdana,Open Sans,DejaVu Sans,sans-serif" font-weight="400" font-size="41" transform="matrix(6.12323e-17 -1 1 6.12323e-17 4273.549287109375 1204.42333984375)">22-Sep</text>
		</g>
		<g>
			<text fill="#595959" font-family="Verdana,Open Sans,DejaVu Sans,sans-serif" font-weight="400" font-size="41" transform="matrix(1 0 0 1 3169.14111328125 1050)">0</text>
		</g>
		<g>
			<text fill="#595959" font-family="Verdana,Open Sans,DejaVu Sans,sans-serif" font-weight="400" font-size="41" transform="matrix(1 0 0 1 3121.07421875 922)">420</text>
		</g>
		<g>
			<text fill="#595959" font-family="Verdana,Open Sans,DejaVu Sans,sans-serif" font-weight="400" font-size="41" transform="matrix(1 0 0 1 3122.45556640625 794)">839</text>
		</g>
		<g>
			<text fill="#595959" font-family="Verdana,Open Sans,DejaVu Sans,sans-serif" font-weight="400" font-size="41" transform="matrix(1 0 0 1 3090.64453125 666)">1,259</text>
		</g>
		<g>
			<text fill="#595959" font-family="Verdana,Open Sans,DejaVu Sans,sans-serif" font-weight="400" font-size="41" transform="matrix(1 0 0 1 3090.564453125 538)">1,678</text>
		</g>
		<g>
			<text fill="#595959" font-family="Verdana,Open Sans,DejaVu Sans,sans-serif" font-weight="400" font-size="41" transform="matrix(1 0 0 1 3088.802734375 410)">2,098</text>
		</g>
		<g>
			<text fill="#595959" font-family="Verdana,Open Sans,DejaVu Sans,sans-serif" font-weight="400" font-size="41" transform="matrix(1 0 0 1 3556.97119140625 1321)">Week Commencing</text>
		</g>
		<g>
			<text fill="#595959" font-family="Verdana,Open Sans,DejaVu Sans,sans-serif" font-weight="400" font-size="46" transform="matrix(6.12323e-17 -1 1 6.12323e-17 3019.73 953.7919921875)">Number of OS Profiles</text>
		</g>
		<rect x="2918.5" y="347.5" width="1760" height="1043" stroke="#D9D9D9" stroke-width="3.4375" stroke-linejoin="round" stroke-miterlimit="10" fill="none" />
		<g>
			<path d="M3228.5 1038 3249.86 1038 3271.22 1038 3292.58 1038 3313.94 1038 3335.3 1038 3356.66 1038 3378.02 1038 3399.38 1038 3420.74 1038 3442.1 1038 3463.46 1038 3484.82 1038 3506.18 1038 3527.54 1038 3548.9 1038 3570.26 1038 3591.62 1038 3612.98 1038 3634.34 1038 3655.7 1038 3677.06 1038 3698.42 1038 3719.7799999999997 1038 3741.14 1038 3762.5 1038 3783.86 1038 3805.2200000000003 1038 3826.58 1038 3847.94 1038 3869.3 1038 3890.66 1038 3912.02 1038 3933.38 1038 3954.74 1038 3976.1 1038 3997.46 1038 4018.8199999999997 1038 4040.18 1038 4061.54 1038 4082.9 1038 4104.26 1038 4125.62 1038 4146.98 1038 4168.34 1038 4189.7 1038 4211.0599999999995 1038 4232.42 1038 4253.78 1038 4275.139999999999 1038 4296.5 1038 4296.5 702.7473784556721 4275.139999999999 704.2726406101049 4253.78 705.1877979027645 4232.42 705.4928503336511 4211.0599999999995 705.4928503336511 4189.7 705.7979027645376 4168.34 705.7979027645376 4146.98 705.7979027645376 4125.62 706.1029551954242 4104.26 707.018112488084 4082.9 707.018112488084 4061.54 707.3231649189704 4040.18 707.628217349857 4018.8199999999997 708.23832221163 3997.46 708.5433746425167 3976.1 708.5433746425167 3954.74 709.1534795042899 3933.38 710.6787416587226 3912.02 712.8141086749285 3890.66 712.8141086749285 3869.3 712.8141086749285 3847.94 713.119161105815 3826.58 712.8141086749285 3805.2200000000003 713.119161105815 3783.86 713.4242135367016 3762.5 713.4242135367016 3741.14 714.3393708293613 3719.7799999999997 714.9494756911345 3698.42 715.5595805529075 3677.06 715.5595805529075 3655.7 716.7797902764537 3634.34 717.3898951382268 3612.98 717.3898951382268 3591.62 718 3570.26 718.6101048617732 3548.9 719.2202097235462 3527.54 719.8303145853193 3506.18 720.1353670162059 3484.82 720.1353670162059 3463.46 720.1353670162059 3442.1 720.1353670162059 3420.74 720.7454718779791 3399.38 720.7454718779791 3378.02 721.3555767397521 3356.66 721.9656816015253 3335.3 722.2707340324118 3313.94 722.5757864632983 3292.58 722.5757864632983 3271.22 722.880838894185 3249.86 722.880838894185 3228.5 724.4061010486178 3228.5 1038Z" fill="#f48c7d" opacity="0.9" />
		</g>
		<g>
			<path d="M3228.5 724.4061010486178 3249.86 722.880838894185 3271.22 722.880838894185 3292.58 722.5757864632983 3313.94 722.5757864632983 3335.3 722.2707340324118 3356.66 721.9656816015253 3378.02 721.3555767397521 3399.38 720.7454718779791 3420.74 720.7454718779791 3442.1 720.1353670162059 3463.46 720.1353670162059 3484.82 720.1353670162059 3506.18 720.1353670162059 3527.54 719.8303145853193 3548.9 719.2202097235462 3570.26 718.6101048617732 3591.62 718 3612.98 717.3898951382268 3634.34 717.3898951382268 3655.7 716.7797902764537 3677.06 715.5595805529075 3698.42 715.5595805529075 3719.7799999999997 714.9494756911345 3741.14 714.3393708293613 3762.5 713.4242135367016 3783.86 713.4242135367016 3805.2200000000003 713.119161105815 3826.58 712.8141086749285 3847.94 713.119161105815 3869.3 712.8141086749285 3890.66 712.8141086749285 3912.02 712.8141086749285 3933.38 710.6787416587226 3954.74 709.1534795042899 3976.1 708.5433746425167 3997.46 708.5433746425167 4018.8199999999997 708.23832221163 4040.18 707.628217349857 4061.54 707.3231649189704 4082.9 707.018112488084 4104.26 707.018112488084 4125.62 706.1029551954242 4146.98 705.7979027645376 4168.34 705.7979027645376 4189.7 705.7979027645376 4211.0599999999995 705.4928503336511 4232.42 705.4928503336511 4253.78 705.1877979027645 4275.139999999999 704.2726406101049 4296.5 702.7473784556721 4296.5 551.1363203050524 4275.139999999999 555.7121067683508 4253.78 556.9323164918969 4232.42 557.2373689227836 4211.0599999999995 559.0676835081028 4189.7 559.677788369876 4168.34 559.677788369876 4146.98 560.5929456625357 4125.62 561.2030505243089 4104.26 562.4232602478552 4082.9 562.4232602478552 4061.54 563.0333651096282 4040.18 563.3384175405147 4018.8199999999997 563.9485224022878 3997.46 564.2535748331745 3976.1 564.2535748331745 3954.74 565.4737845567207 3933.38 567.9142040038132 3912.02 570.3546234509056 3890.66 570.9647283126787 3869.3 570.0495710200191 3847.94 572.1849380362249 3826.58 571.8798856053385 3805.2200000000003 572.1849380362249 3783.86 573.1000953288847 3762.5 573.1000953288847 3741.14 575.8455672068637 3719.7799999999997 576.7607244995233 3698.42 577.3708293612965 3677.06 577.9809342230695 3655.7 579.2011439466157 3634.34 580.421353670162 3612.98 580.421353670162 3591.62 581.9466158245948 3570.26 582.556720686368 3548.9 583.1668255481411 3527.54 584.0819828408007 3506.18 584.3870352716873 3484.82 584.9971401334604 3463.46 584.9971401334604 3442.1 584.9971401334604 3420.74 586.2173498570066 3399.38 586.5224022878933 3378.02 587.1325071496663 3356.66 588.9628217349857 3335.3 589.2678741658723 3313.94 589.5729265967587 3292.58 590.4880838894185 3271.22 591.4032411820782 3249.86 591.4032411820782 3228.5 592.928503336511 3228.5 724.4061010486178Z" fill="#005aa6" opacity="0.9" />
		</g>
		<g>
			<path d="M3228.5 592.928503336511 3249.86 591.4032411820782 3271.22 591.4032411820782 3292.58 590.4880838894185 3313.94 589.5729265967587 3335.3 589.2678741658723 3356.66 588.9628217349857 3378.02 587.1325071496663 3399.38 586.5224022878933 3420.74 586.2173498570066 3442.1 584.9971401334604 3463.46 584.9971401334604 3484.82 584.9971401334604 3506.18 584.3870352716873 3527.54 584.0819828408007 3548.9 583.1668255481411 3570.26 582.556720686368 3591.62 581.9466158245948 3612.98 580.421353670162 3634.34 580.421353670162 3655.7 579.2011439466157 3677.06 577.9809342230695 3698.42 577.3708293612965 3719.7799999999997 576.7607244995233 3741.14 575.8455672068637 3762.5 573.1000953288847 3783.86 573.1000953288847 3805.2200000000003 572.1849380362249 3826.58 571.8798856053385 3847.94 572.1849380362249 3869.3 570.0495710200191 3890.66 570.9647283126787 3912.02 570.3546234509056 3933.38 567.9142040038132 3954.74 565.4737845567207 3976.1 564.2535748331745 3997.46 564.2535748331745 4018.8199999999997 563.9485224022878 4040.18 563.3384175405147 4061.54 563.0333651096282 4082.9 562.4232602478552 4104.26 562.4232602478552 4125.62 561.2030505243089 4146.98 560.5929456625357 4168.34 559.677788369876 4189.7 559.677788369876 4211.0599999999995 559.0676835081028 4232.42 557.2373689227836 4253.78 556.9323164918969 4275.139999999999 555.7121067683508 4296.5 551.1363203050524 4296.5 493.78646329837943 4275.139999999999 498.36224976167784 4253.78 499.5824594852239 4232.42 499.8875119161106 4211.0599999999995 501.71782650142984 4189.7 502.327931363203 4168.34 502.327931363203 4146.98 503.2430886558627 4125.62 503.8531935176359 4104.26 505.0734032411822 4082.9 505.0734032411822 4061.54 505.6835081029552 4040.18 505.9885605338417 4018.8199999999997 506.59866539561483 3997.46 506.9037178265015 3976.1 506.9037178265015 3954.74 508.1239275500477 3933.38 510.5643469971402 3912.02 513.0047664442326 3890.66 513.6148713060057 3869.3 512.6997140133461 3847.94 514.8350810295519 3826.58 514.5300285986655 3805.2200000000003 514.8350810295519 3783.86 515.7502383222117 3762.5 515.7502383222117 3741.14 518.4957102001907 3719.7799999999997 519.4108674928503 3698.42 520.0209723546235 3677.06 520.6310772163965 3655.7 521.8512869399427 3634.34 523.071496663489 3612.98 523.071496663489 3591.62 524.5967588179218 3570.26 525.206863679695 3548.9 525.8169685414681 3527.54 526.7321258341277 3506.18 527.0371782650143 3484.82 527.6472831267874 3463.46 527.6472831267874 3442.1 527.6472831267874 3420.74 528.8674928503336 3399.38 529.1725452812203 3378.02 529.7826501429932 3356.66 531.9180171591993 3335.3 532.2230695900859 3313.94 532.5281220209723 3292.58 533.443279313632 3271.22 534.3584366062918 3249.86 534.3584366062918 3228.5 535.8836987607245 3228.5 592.928503336511Z" fill="#e62d39" opacity="0.9" />
		</g>
		<g>
			<path d="M3228.5 535.8836987607245 3249.86 534.3584366062918 3271.22 534.3584366062918 3292.58 533.443279313632 3313.94 532.5281220209723 3335.3 532.2230695900859 3356.66 531.9180171591993 3378.02 529.7826501429932 3399.38 529.1725452812203 3420.74 528.8674928503336 3442.1 527.6472831267874 3463.46 527.6472831267874 3484.82 527.6472831267874 3506.18 527.0371782650143 3527.54 526.7321258341277 3548.9 525.8169685414681 3570.26 525.206863679695 3591.62 524.5967588179218 3612.98 523.071496663489 3634.34 523.071496663489 3655.7 521.8512869399427 3677.06 520.6310772163965 3698.42 520.0209723546235 3719.7799999999997 519.4108674928503 3741.14 518.4957102001907 3762.5 515.7502383222117 3783.86 515.7502383222117 3805.2200000000003 514.8350810295519 3826.58 514.5300285986655 3847.94 514.8350810295519 3869.3 512.6997140133461 3890.66 513.6148713060057 3912.02 513.0047664442326 3933.38 510.5643469971402 3954.74 508.1239275500477 3976.1 506.9037178265015 3997.46 506.9037178265015 4018.8199999999997 506.59866539561483 4040.18 505.9885605338417 4061.54 505.6835081029552 4082.9 505.0734032411822 4104.26 505.0734032411822 4125.62 503.8531935176359 4146.98 503.2430886558627 4168.34 502.327931363203 4189.7 502.327931363203 4211.0599999999995 501.71782650142984 4232.42 499.8875119161106 4253.78 499.5824594852239 4275.139999999999 498.36224976167784 4296.5 493.78646329837943 4296.5 437.6568160152526 4275.139999999999 443.14775977121076 4253.78 444.67302192564335 4232.42 444.97807435653004 4211.0599999999995 446.8083889418493 4189.7 447.4184938036224 4168.34 447.4184938036224 4146.98 449.2488083889418 4125.62 450.16396568160155 4104.26 451.68922783603443 4082.9 452.29933269780753 4061.54 452.90943755958057 4040.18 453.21448999046703 4018.8199999999997 453.8245948522402 3997.46 454.12964728312687 3976.1 454.12964728312687 3954.74 455.65490943755964 3933.38 458.40038131553865 3912.02 460.84080076263103 3890.66 462.06101048617734 3869.3 461.1458531935177 3847.94 463.28122020972353 3826.58 462.97616777883707 3805.2200000000003 463.28122020972353 3783.86 464.50142993326983 3762.5 464.50142993326983 3741.14 468.1620591039086 3719.7799999999997 469.0772163965682 3698.42 469.68732125834134 3677.06 470.6024785510009 3655.7 471.8226882745471 3634.34 473.34795042897997 3612.98 473.95805529075307 3591.62 475.7883698760724 3570.26 477.00857959961866 3548.9 477.6186844613918 3527.54 478.5338417540514 3506.18 478.838894184938 3484.82 479.44899904671115 3463.46 479.44899904671115 3442.1 479.44899904671115 3420.74 481.58436606291707 3399.38 481.88941849380376 3378.02 482.4995233555767 3356.66 484.93994280266924 3335.3 484.9399428026693 3313.94 485.24499523355576 3292.58 486.465204957102 3271.22 487.6854146806483 3249.86 487.9904671115349 3228.5 489.82078169685417 3228.5 535.8836987607245Z" fill="#f6a118" opacity="0.9" />
		</g>
		<g>
			<path d="M3228.5 489.82078169685417 3249.86 487.9904671115349 3271.22 487.6854146806483 3292.58 486.465204957102 3313.94 485.24499523355576 3335.3 484.9399428026693 3356.66 484.93994280266924 3378.02 482.4995233555767 3399.38 481.88941849380376 3420.74 481.58436606291707 3442.1 479.44899904671115 3463.46 479.44899904671115 3484.82 479.44899904671115 3506.18 478.838894184938 3527.54 478.5338417540514 3548.9 477.6186844613918 3570.26 477.00857959961866 3591.62 475.7883698760724 3612.98 473.95805529075307 3634.34 473.34795042897997 3655.7 471.8226882745471 3677.06 470.6024785510009 3698.42 469.68732125834134 3719.7799999999997 469.0772163965682 3741.14 468.1620591039086 3762.5 464.50142993326983 3783.86 464.50142993326983 3805.2200000000003 463.28122020972353 3826.58 462.97616777883707 3847.94 463.28122020972353 3869.3 461.1458531935177 3890.66 462.06101048617734 3912.02 460.84080076263103 3933.38 458.40038131553865 3954.74 455.65490943755964 3976.1 454.12964728312687 3997.46 454.12964728312687 4018.8199999999997 453.8245948522402 4040.18 453.21448999046703 4061.54 452.90943755958057 4082.9 452.29933269780753 4104.26 451.68922783603443 4125.62 450.16396568160155 4146.98 449.2488083889418 4168.34 447.4184938036224 4189.7 447.4184938036224 4211.0599999999995 446.8083889418493 4232.42 444.97807435653004 4253.78 444.67302192564335 4275.139999999999 443.14775977121076 4296.5 437.6568160152526 4296.5 411.11725452812203 4275.139999999999 416.6081982840802 4253.78 418.13346043851277 4232.42 418.43851286939946 4211.0599999999995 420.2688274547187 4189.7 420.87893231649184 4168.34 420.87893231649184 4146.98 422.70924690181124 4125.62 423.62440419447097 4104.26 425.14966634890385 4082.9 425.75977121067694 4061.54 426.36987607245 4040.18 426.67492850333645 4018.8199999999997 427.2850333651096 3997.46 427.5900857959963 3976.1 427.5900857959963 3954.74 429.11534795042905 3933.38 431.86081982840807 3912.02 434.30123927550045 3890.66 435.52144899904675 3869.3 434.60629170638714 3847.94 437.04671115347946 3826.58 437.0467111534796 3805.2200000000003 437.35176358436604 3783.86 438.57197330791234 3762.5 438.57197330791234 3741.14 442.2326024785511 3719.7799999999997 443.1477597712107 3698.42 443.75786463298385 3677.06 444.6730219256434 3655.7 446.1982840800762 3634.34 447.72354623450906 3612.98 448.33365109628215 3591.62 450.1639656816015 3570.26 451.38417540514774 3548.9 451.9942802669209 3527.54 452.9094375595805 3506.18 453.2144899904671 3484.82 453.82459485224024 3463.46 453.82459485224024 3442.1 453.82459485224024 3420.74 455.95996186844616 3399.38 456.26501429933285 3378.02 456.8751191611058 3356.66 459.3155386081983 3335.3 459.3155386081984 3313.94 459.62059103908484 3292.58 460.8408007626311 3271.22 462.0610104861774 3249.86 462.6711153479505 3228.5 464.5014299332698 3228.5 489.82078169685417Z" fill="#fdd5a4" opacity="0.9" />
		</g>
		<g>
			<path d="M3228.5 464.5014299332698 3249.86 462.6711153479505 3271.22 462.0610104861774 3292.58 460.8408007626311 3313.94 459.62059103908484 3335.3 459.3155386081984 3356.66 459.3155386081983 3378.02 456.8751191611058 3399.38 456.26501429933285 3420.74 455.95996186844616 3442.1 453.82459485224024 3463.46 453.82459485224024 3484.82 453.82459485224024 3506.18 453.2144899904671 3527.54 452.9094375595805 3548.9 451.9942802669209 3570.26 451.38417540514774 3591.62 450.1639656816015 3612.98 448.33365109628215 3634.34 447.72354623450906 3655.7 446.1982840800762 3677.06 444.6730219256434 3698.42 443.75786463298385 3719.7799999999997 443.1477597712107 3741.14 442.2326024785511 3762.5 438.57197330791234 3783.86 438.57197330791234 3805.2200000000003 437.35176358436604 3826.58 437.0467111534796 3847.94 437.04671115347946 3869.3 434.60629170638714 3890.66 435.52144899904675 3912.02 434.30123927550045 3933.38 431.86081982840807 3954.74 429.11534795042905 3976.1 427.5900857959963 3997.46 427.5900857959963 4018.8199999999997 427.2850333651096 4040.18 426.67492850333645 4061.54 426.36987607245 4082.9 425.75977121067694 4104.26 425.14966634890385 4125.62 423.62440419447097 4146.98 422.70924690181124 4168.34 420.87893231649184 4189.7 420.87893231649184 4211.0599999999995 420.2688274547187 4232.42 418.43851286939946 4253.78 418.13346043851277 4275.139999999999 416.6081982840802 4296.5 411.11725452812203 4296.5 398 4275.139999999999 403.49094375595814 4253.78 405.01620591039074 4232.42 405.3212583412774 4211.0599999999995 407.15157292659666 4189.7 407.7616777883698 4168.34 407.7616777883698 4146.98 409.5919923736892 4125.62 410.50714966634894 4104.26 412.0324118207818 4082.9 412.6425166825549 4061.54 413.25262154432795 4040.18 413.5576739752144 4018.8199999999997 414.16777883698757 3997.46 414.47283126787426 3976.1 414.47283126787426 3954.74 415.998093422307 3933.38 418.74356530028604 3912.02 421.1839847473784 3890.66 422.4041944709247 3869.3 421.4890371782651 3847.94 423.92945662535743 3826.58 423.92945662535755 3805.2200000000003 424.234509056244 3783.86 425.4547187797903 3762.5 425.4547187797903 3741.14 429.11534795042905 3719.7799999999997 430.03050524308867 3698.42 430.6406101048618 3677.06 431.5557673975214 3655.7 433.08102955195415 3634.34 434.606291706387 3612.98 435.2163965681601 3591.62 437.04671115347946 3570.26 438.2669208770257 3548.9 438.87702573879886 3527.54 439.7921830314585 3506.18 440.09723546234505 3484.82 440.7073403241182 3463.46 440.7073403241182 3442.1 440.7073403241182 3420.74 442.8427073403241 3399.38 443.1477597712108 3378.02 443.75786463298374 3356.66 446.1982840800763 3335.3 446.19828408007635 3313.94 446.5033365109628 3292.58 445.8932316491897 3271.22 447.113441372736 3249.86 447.7235462345091 3228.5 449.5538608198284 3228.5 464.5014299332698Z" fill="#55c0e9" opacity="0.9" />
		</g>
		<g>
			<rect x="4372" y="431" width="22.9995" height="23" fill="#f48c7d" />
		</g>
		<g>
			<text fill="#595959" font-family="Verdana,Open Sans,DejaVu Sans,sans-serif" font-weight="400" font-size="41" transform="matrix(1 0 0 1 4404.56 454)">Other</text>
		</g>
		<g>
			<rect x="4372" y="508" width="22.9995" height="23" fill="#005aa6" />
		</g>
		<g>
			<text fill="#595959" font-family="Verdana,Open Sans,DejaVu Sans,sans-serif" font-weight="400" font-size="41" transform="matrix(1 0 0 1 4404.56 531)">iOS</text>
		</g>
		<g>
			<rect x="4372" y="585" width="22.9995" height="23" fill="#e62d39" />
		</g>
		<g>
			<text fill="#595959" font-family="Verdana,Open Sans,DejaVu Sans,sans-serif" font-weight="400" font-size="41" transform="matrix(1 0 0 1 4404.56 608)">Android</text>
		</g>
		<g>
			<rect x="4372" y="662" width="22.9995" height="23" fill="#f6a118" />
		</g>
		<g>
			<text fill="#595959" font-family="Verdana,Open Sans,DejaVu Sans,sans-serif" font-weight="400" font-size="41" transform="matrix(1 0 0 1 4404.56 685)">macOS</text>
		</g>
		<g>
			<rect x="4372" y="739" width="22.9995" height="23" fill="#fdd5a4" />
		</g>
		<g>
			<text fill="#595959" font-family="Verdana,Open Sans,DejaVu Sans,sans-serif" font-weight="400" font-size="41" transform="matrix(1 0 0 1 4404.56 762)">Linux</text>
		</g>
		<g>
			<rect x="4372" y="816" width="22.9995" height="23" fill="#55c0e9" />
		</g>
		<g>
			<text fill="#595959" font-family="Verdana,Open Sans,DejaVu Sans,sans-serif" font-weight="400" font-size="41" transform="matrix(1 0 0 1 4404.56 839)">Windows</text>
		</g>
	</g>
</svg>
