<svg width="1763" height="1046"
    xmlns="http://www.w3.org/2000/svg"
	xmlns:xlink="http://www.w3.org/1999/xlink" xml:space="preserve" overflow="hidden">
	<defs>
		<clipPath id="clip0">
			<rect x="2917" y="346" width="1763" height="1046"/>
		</clipPath>
	</defs>
	<g clip-path="url(#clip0)" transform="translate(-2917 -346)">
		<rect x="2918" y="347" width="1760" height="1043" fill="#FFFFFF" />
		<g>
			<path d="
			M3228.5 974.532 4296.5 974.532
			M3228.5 910.53 4296.5 910.53
			M3228.5 846.528 4296.5 846.528
			M3228.5 781.526 4296.5 781.526
			M3228.5 717.524 4296.5 717.524
			M3228.5 653.522 4296.5 653.522
			M3228.5 589.52 4296.5 589.52
			M3228.5 525.517 4296.5 525.517
			M3228.5 461.515 4296.5 461.515
			M3228.5 397.5 4296.5 397.5" stroke="#D9D9D9" stroke-width="3.4375" stroke-linejoin="round" stroke-miterlimit="10" fill="none" />
		</g>
		<g>
			<path d="M 1038.5 4296.5 1038.5" stroke="#D9D9D9" stroke-width="3.4375" stroke-linejoin="round" stroke-miterlimit="10" fill="none" fill-rule="evenodd" />
		</g>
		<g>
			<text fill="#595959" font-family="Verdana,sans-serif" font-weight="400" font-size="41" transform="matrix(6.12323e-17 -1 1 6.12323e-17 3244.5 1225)">06-Nov</text>
		</g>
		<g>
			<text fill="#595959" font-family="Verdana,sans-serif" font-weight="400" font-size="41" transform="matrix(6.12323e-17 -1 1 6.12323e-17 3343.8488372093025 1223)">04-Dec</text>
		</g>
		<g>
			<text fill="#595959" font-family="Verdana,sans-serif" font-weight="400" font-size="41" transform="matrix(6.12323e-17 -1 1 6.12323e-17 3443.1976744186045 1210)">01-Jan</text>
		</g>
		<g>
			<text fill="#595959" font-family="Verdana,sans-serif" font-weight="400" font-size="41" transform="matrix(6.12323e-17 -1 1 6.12323e-17 3542.546511627907 1210)">29-Jan</text>
		</g>
		<g>
			<text fill="#595959" font-family="Verdana,sans-serif" font-weight="400" font-size="41" transform="matrix(6.12323e-17 -1 1 6.12323e-17 3641.8953488372094 1216)">26-Feb</text>
		</g>
		<g>
			<text fill="#595959" font-family="Verdana,sans-serif" font-weight="400" font-size="41" transform="matrix(6.12323e-17 -1 1 6.12323e-17 3741.2441860465115 1223)">25-Mar</text>
		</g>
		<g>
			<text fill="#595959" font-family="Verdana,sans-serif" font-weight="400" font-size="41" transform="matrix(6.12323e-17 -1 1 6.12323e-17 3844.093023255814 1216)">22-Apr</text>
		</g>
		<g>
			<text fill="#595959" font-family="Verdana,sans-serif" font-weight="400" font-size="41" transform="matrix(6.12323e-17 -1 1 6.12323e-17 3943.4418604651164 1228)">20-May</text>
		</g>
		<g>
			<text fill="#595959" font-family="Verdana,sans-serif" font-weight="400" font-size="41" transform="matrix(6.12323e-17 -1 1 6.12323e-17 4038.790697674419 1209)">17-Jun</text>
		</g>
		<g>
			<text fill="#595959" font-family="Verdana,sans-serif" font-weight="400" font-size="41" transform="matrix(6.12323e-17 -1 1 6.12323e-17 4138.639534883721 1194)">15-Jul</text>
		</g>
		<g>
			<text fill="#595959" font-family="Verdana,sans-serif" font-weight="400" font-size="41" transform="matrix(6.12323e-17 -1 1 6.12323e-17 4241.488372093023 1218)">12-Aug</text>
		</g>
		<g>
			<text fill="#595959" font-family="Verdana,sans-serif" font-weight="400" font-size="41" transform="matrix(1 0 0 1 3167.5 1050)">0</text>
		</g>
		<g>
			<text fill="#595959" font-family="Verdana,sans-serif" font-weight="400" font-size="41" transform="matrix(1 0 0 1 3116.5 922)">383</text>
		</g>
		<g>
			<text fill="#595959" font-family="Verdana,sans-serif" font-weight="400" font-size="41" transform="matrix(1 0 0 1 3115.5 794)">766</text>
		</g>
		<g>
			<text fill="#595959" font-family="Verdana,sans-serif" font-weight="400" font-size="41" transform="matrix(1 0 0 1 3076.5 666)">1,148</text>
		</g>
		<g>
			<text fill="#595959" font-family="Verdana,sans-serif" font-weight="400" font-size="41" transform="matrix(1 0 0 1 3078.5 538)">1,531</text>
		</g>
		<g>
			<text fill="#595959" font-family="Verdana,sans-serif" font-weight="400" font-size="41" transform="matrix(1 0 0 1 3076.5 410)">1,914</text>
		</g>
		<g>
			<text fill="#595959" font-family="Verdana,sans-serif" font-weight="400" font-size="41" transform="matrix(1 0 0 1 3544.5 1321)">Week Commencing</text>
		</g>
		<g>
			<text fill="#595959" font-family="Verdana,sans-serif" font-weight="400" font-size="46" transform="matrix(6.12323e-17 -1 1 6.12323e-17 3019.73 970.75)">Number of OS Profiles</text>
		</g>
		<rect x="2918.5" y="347.5" width="1760" height="1043" stroke="#D9D9D9" stroke-width="3.4375" stroke-linejoin="round" stroke-miterlimit="10" fill="none" />
		<g>
			<path d="M3228.5 1038 3253.3372093023254 1038 3278.1744186046512 1038 3303.0116279069766 1038 3327.8488372093025 1038 3352.686046511628 1038 3377.5232558139533 1038 3402.360465116279 1038 3427.1976744186045 1038 3452.0348837209303 1038 3476.8720930232557 1038 3501.7093023255816 1038 3526.546511627907 1038 3551.383720930233 1038 3576.220930232558 1038 3601.0581395348836 1038 3625.8953488372094 1038 3650.732558139535 1038 3675.5697674418607 1038 3700.406976744186 1038 3725.2441860465115 1038 3750.0813953488373 1038 3774.9186046511627 1038 3799.7558139534885 1038 3824.593023255814 1038 3849.4302325581393 1038 3874.267441860465 1038 3899.104651162791 1038 3923.9418604651164 1038 3948.779069767442 1038 3973.6162790697676 1038 3998.453488372093 1038 4023.290697674419 1038 4048.1279069767443 1038 4072.9651162790697 1038 4097.802325581395 1038 4122.639534883721 1038 4147.476744186047 1038 4172.313953488372 1038 4197.1511627906975 1038 4221.988372093023 1038 4246.825581395349 1038 4271.662790697675 1038 4296.5 1038 4296.5 697.6029258098224 4271.662790697675 697.6029258098224 4246.825581395349 697.937304075235 4221.988372093023 697.937304075235 4197.1511627906975 698.2716823406479 4172.313953488372 698.2716823406479 4147.476744186047 699.2748171368861 4122.639534883721 699.2748171368861 4097.802325581395 699.6091954022988 4072.9651162790697 702.6185997910136 4048.1279069767443 702.6185997910136 4023.290697674419 703.2873563218391 3998.453488372093 704.2904911180774 3973.6162790697676 704.9592476489029 3948.779069767442 706.2967607105538 3923.9418604651164 706.9655172413793 3899.104651162791 707.299895506792 3874.267441860465 707.6342737722048 3849.4302325581393 707.6342737722048 3824.593023255814 707.9686520376176 3799.7558139534885 708.3030303030303 3774.9186046511627 708.3030303030303 3750.0813953488373 709.3061650992686 3725.2441860465115 710.3092998955068 3700.406976744186 711.6468129571579 3675.5697674418607 712.649947753396 3650.732558139535 712.649947753396 3625.8953488372094 713.987460815047 3601.0581395348836 713.987460815047 3576.220930232558 713.987460815047 3551.383720930233 714.9905956112852 3526.546511627907 715.324973876698 3501.7093023255816 715.6593521421107 3476.8720930232557 716.662486938349 3452.0348837209303 716.9968652037617 3427.1976744186045 717.3312434691745 3402.360465116279 717.3312434691745 3377.5232558139533 717.3312434691745 3352.686046511628 717.3312434691745 3327.8488372093025 719.337513061651 3303.0116279069766 719.6718913270638 3278.1744186046512 720.3406478578893 3253.3372093023254 720.3406478578893 3228.5 721.0094043887148 3228.5 1038Z" fill="#fdd5a4" opacity="0.9" />
		</g>
		<g>
			<path d="M3228.5 721.0094043887148 3253.3372093023254 720.3406478578893 3278.1744186046512 720.3406478578893 3303.0116279069766 719.6718913270638 3327.8488372093025 719.337513061651 3352.686046511628 717.3312434691745 3377.5232558139533 717.3312434691745 3402.360465116279 717.3312434691745 3427.1976744186045 717.3312434691745 3452.0348837209303 716.9968652037617 3476.8720930232557 716.662486938349 3501.7093023255816 715.6593521421107 3526.546511627907 715.324973876698 3551.383720930233 714.9905956112852 3576.220930232558 713.987460815047 3601.0581395348836 713.987460815047 3625.8953488372094 713.987460815047 3650.732558139535 712.649947753396 3675.5697674418607 712.649947753396 3700.406976744186 711.6468129571579 3725.2441860465115 710.3092998955068 3750.0813953488373 709.3061650992686 3774.9186046511627 708.3030303030303 3799.7558139534885 708.3030303030303 3824.593023255814 707.9686520376176 3849.4302325581393 707.6342737722048 3874.267441860465 707.6342737722048 3899.104651162791 707.299895506792 3923.9418604651164 706.9655172413793 3948.779069767442 706.2967607105538 3973.6162790697676 704.9592476489029 3998.453488372093 704.2904911180774 4023.290697674419 703.2873563218391 4048.1279069767443 702.6185997910136 4072.9651162790697 702.6185997910136 4097.802325581395 699.6091954022988 4122.639534883721 699.2748171368861 4147.476744186047 699.2748171368861 4172.313953488372 698.2716823406479 4197.1511627906975 698.2716823406479 4221.988372093023 697.937304075235 4246.825581395349 697.937304075235 4271.662790697675 697.6029258098224 4296.5 697.6029258098224 4296.5 554.8234064785789 4271.662790697675 554.8234064785789 4246.825581395349 555.1577847439916 4221.988372093023 555.1577847439916 4197.1511627906975 556.8296760710555 4172.313953488372 558.5015673981192 4147.476744186047 559.8390804597701 4122.639534883721 559.8390804597701 4097.802325581395 560.1734587251829 4072.9651162790697 563.1828631138976 4048.1279069767443 563.1828631138976 4023.290697674419 564.1859979101358 3998.453488372093 566.1922675026124 3973.6162790697676 566.8610240334378 3948.779069767442 568.1985370950888 3923.9418604651164 569.5360501567397 3899.104651162791 570.5391849529781 3874.267441860465 570.8735632183908 3849.4302325581393 570.8735632183908 3824.593023255814 571.5423197492164 3799.7558139534885 572.2110762800418 3774.9186046511627 572.2110762800418 3750.0813953488373 573.5485893416928 3725.2441860465115 575.889237199582 3700.406976744186 577.2267502612331 3675.5697674418607 578.2298850574712 3650.732558139535 579.5673981191222 3625.8953488372094 580.9049111807733 3601.0581395348836 580.9049111807733 3576.220930232558 581.239289446186 3551.383720930233 582.9111807732497 3526.546511627907 583.5799373040752 3501.7093023255816 584.5830721003134 3476.8720930232557 586.2549634273772 3452.0348837209303 586.5893416927898 3427.1976744186045 586.9237199582027 3402.360465116279 586.9237199582027 3377.5232558139533 588.5956112852665 3352.686046511628 589.264367816092 3327.8488372093025 591.6050156739811 3303.0116279069766 592.9425287356322 3278.1744186046512 593.6112852664577 3253.3372093023254 593.9456635318704 3228.5 595.2831765935215 3228.5 721.0094043887148Z" fill="#e62d39" opacity="0.9" />
		</g>
		<g>
			<path d="M3228.5 595.2831765935215 3253.3372093023254 593.9456635318704 3278.1744186046512 593.6112852664577 3303.0116279069766 592.9425287356322 3327.8488372093025 591.6050156739811 3352.686046511628 589.264367816092 3377.5232558139533 588.5956112852665 3402.360465116279 586.9237199582027 3427.1976744186045 586.9237199582027 3452.0348837209303 586.5893416927898 3476.8720930232557 586.2549634273772 3501.7093023255816 584.5830721003134 3526.546511627907 583.5799373040752 3551.383720930233 582.9111807732497 3576.220930232558 581.239289446186 3601.0581395348836 580.9049111807733 3625.8953488372094 580.9049111807733 3650.732558139535 579.5673981191222 3675.5697674418607 578.2298850574712 3700.406976744186 577.2267502612331 3725.2441860465115 575.889237199582 3750.0813953488373 573.5485893416928 3774.9186046511627 572.2110762800418 3799.7558139534885 572.2110762800418 3824.593023255814 571.5423197492164 3849.4302325581393 570.8735632183908 3874.267441860465 570.8735632183908 3899.104651162791 570.5391849529781 3923.9418604651164 569.5360501567397 3948.779069767442 568.1985370950888 3973.6162790697676 566.8610240334378 3998.453488372093 566.1922675026124 4023.290697674419 564.1859979101358 4048.1279069767443 563.1828631138976 4072.9651162790697 563.1828631138976 4097.802325581395 560.1734587251829 4122.639534883721 559.8390804597701 4147.476744186047 559.8390804597701 4172.313953488372 558.5015673981192 4197.1511627906975 556.8296760710555 4221.988372093023 555.1577847439916 4246.825581395349 555.1577847439916 4271.662790697675 554.8234064785789 4296.5 554.8234064785789 4296.5 492.29467084639504 4271.662790697675 492.29467084639504 4246.825581395349 492.62904911180766 4221.988372093023 492.62904911180766 4197.1511627906975 494.3009404388716 4172.313953488372 495.97283176593527 4147.476744186047 497.3103448275862 4122.639534883721 497.3103448275862 4097.802325581395 497.64472309299896 4072.9651162790697 500.6541274817137 4048.1279069767443 500.6541274817137 4023.290697674419 501.65726227795193 3998.453488372093 503.66353187042847 3973.6162790697676 504.33228840125395 3948.779069767442 506.3385579937304 3923.9418604651164 507.6760710553813 3899.104651162791 508.67920585161966 3874.267441860465 509.34796238244513 3849.4302325581393 509.34796238244513 3824.593023255814 510.0167189132707 3799.7558139534885 510.6854754440961 3774.9186046511627 510.6854754440961 3750.0813953488373 512.0229885057472 3725.2441860465115 514.3636363636364 3700.406976744186 515.7011494252874 3675.5697674418607 516.7042842215255 3650.732558139535 518.0417972831766 3625.8953488372094 519.3793103448277 3601.0581395348836 519.3793103448277 3576.220930232558 519.7136886102404 3551.383720930233 521.3855799373041 3526.546511627907 522.0543364681296 3501.7093023255816 523.0574712643678 3476.8720930232557 524.7293625914316 3452.0348837209303 525.0637408568442 3427.1976744186045 525.3981191222571 3402.360465116279 525.3981191222571 3377.5232558139533 527.0700104493209 3352.686046511628 527.7387669801464 3327.8488372093025 530.0794148380355 3303.0116279069766 531.4169278996866 3278.1744186046512 532.0856844305121 3253.3372093023254 532.4200626959248 3228.5 533.7575757575759 3228.5 595.2831765935215Z" fill="#005aa6" opacity="0.9" />
		</g>
		<g>
			<path d="M3228.5 533.7575757575759 3253.3372093023254 532.4200626959248 3278.1744186046512 532.0856844305121 3303.0116279069766 531.4169278996866 3327.8488372093025 530.0794148380355 3352.686046511628 527.7387669801464 3377.5232558139533 527.0700104493209 3402.360465116279 525.3981191222571 3427.1976744186045 525.3981191222571 3452.0348837209303 525.0637408568442 3476.8720930232557 524.7293625914316 3501.7093023255816 523.0574712643678 3526.546511627907 522.0543364681296 3551.383720930233 521.3855799373041 3576.220930232558 519.7136886102404 3601.0581395348836 519.3793103448277 3625.8953488372094 519.3793103448277 3650.732558139535 518.0417972831766 3675.5697674418607 516.7042842215255 3700.406976744186 515.7011494252874 3725.2441860465115 514.3636363636364 3750.0813953488373 512.0229885057472 3774.9186046511627 510.6854754440961 3799.7558139534885 510.6854754440961 3824.593023255814 510.0167189132707 3849.4302325581393 509.34796238244513 3874.267441860465 509.34796238244513 3899.104651162791 508.67920585161966 3923.9418604651164 507.6760710553813 3948.779069767442 506.3385579937304 3973.6162790697676 504.33228840125395 3998.453488372093 503.66353187042847 4023.290697674419 501.65726227795193 4048.1279069767443 500.6541274817137 4072.9651162790697 500.6541274817137 4097.802325581395 497.64472309299896 4122.639534883721 497.3103448275862 4147.476744186047 497.3103448275862 4172.313953488372 495.97283176593527 4197.1511627906975 494.3009404388716 4221.988372093023 492.62904911180766 4246.825581395349 492.62904911180766 4271.662790697675 492.29467084639504 4296.5 492.29467084639504 4296.5 442.1379310344828 4271.662790697675 442.1379310344828 4246.825581395349 442.4723092998954 4221.988372093023 442.1379310344827 4197.1511627906975 444.81295715778487 4172.313953488372 447.15360501567403 4147.476744186047 448.491118077325 4122.639534883721 448.491118077325 4097.802325581395 448.491118077325 4072.9651162790697 451.50052246603974 4048.1279069767443 451.50052246603974 4023.290697674419 452.8380355276907 3998.453488372093 455.17868338558 3973.6162790697676 455.84743991640545 3948.779069767442 457.8537095088819 3923.9418604651164 459.19122257053283 3899.104651162791 460.8631138975967 3874.267441860465 461.53187042842217 3849.4302325581393 461.53187042842217 3824.593023255814 462.20062695924776 3799.7558139534885 462.8693834900731 3774.9186046511627 462.8693834900731 3750.0813953488373 464.541274817137 3725.2441860465115 467.5506792058516 3700.406976744186 468.8881922675027 3675.5697674418607 469.8913270637408 3650.732558139535 471.22884012539186 3625.8953488372094 472.90073145245566 3601.0581395348836 473.23510971786845 3576.220930232558 474.23824451410667 3551.383720930233 476.2445141065831 3526.546511627907 476.9132706374086 3501.7093023255816 477.9164054336468 3476.8720930232557 479.92267502612333 3452.0348837209303 480.25705329153595 3427.1976744186045 480.5914315569488 3402.360465116279 480.5914315569488 3377.5232558139533 483.2664576802509 3352.686046511628 484.2695924764891 3327.8488372093025 486.61024033437826 3303.0116279069766 488.28213166144207 3278.1744186046512 489.2852664576803 3253.3372093023254 489.95402298850576 3228.5 491.96029258098235 3228.5 533.7575757575759Z" fill="#f6a118" opacity="0.9" />
		</g>
		<g>
			<path d="M3228.5 491.96029258098235 3253.3372093023254 489.95402298850576 3278.1744186046512 489.2852664576803 3303.0116279069766 488.28213166144207 3327.8488372093025 486.61024033437826 3352.686046511628 484.2695924764891 3377.5232558139533 483.2664576802509 3402.360465116279 480.5914315569488 3427.1976744186045 480.5914315569488 3452.0348837209303 480.25705329153595 3476.8720930232557 479.92267502612333 3501.7093023255816 477.9164054336468 3526.546511627907 476.9132706374086 3551.383720930233 476.2445141065831 3576.220930232558 474.23824451410667 3601.0581395348836 473.23510971786845 3625.8953488372094 472.90073145245566 3650.732558139535 471.22884012539186 3675.5697674418607 469.8913270637408 3700.406976744186 468.8881922675027 3725.2441860465115 467.5506792058516 3750.0813953488373 464.541274817137 3774.9186046511627 462.8693834900731 3799.7558139534885 462.8693834900731 3824.593023255814 462.20062695924776 3849.4302325581393 461.53187042842217 3874.267441860465 461.53187042842217 3899.104651162791 460.8631138975967 3923.9418604651164 459.19122257053283 3948.779069767442 457.8537095088819 3973.6162790697676 455.84743991640545 3998.453488372093 455.17868338558 4023.290697674419 452.8380355276907 4048.1279069767443 451.50052246603974 4072.9651162790697 451.50052246603974 4097.802325581395 448.491118077325 4122.639534883721 448.491118077325 4147.476744186047 448.491118077325 4172.313953488372 447.15360501567403 4197.1511627906975 444.81295715778487 4221.988372093023 442.1379310344827 4246.825581395349 442.4723092998954 4271.662790697675 442.1379310344828 4296.5 442.1379310344828 4296.5 414.3845350052247 4271.662790697675 414.3845350052247 4246.825581395349 414.7189132706373 4221.988372093023 414.38453500522456 4197.1511627906975 417.05956112852675 4172.313953488372 419.4002089864159 4147.476744186047 420.73772204806687 4122.639534883721 420.73772204806687 4097.802325581395 420.73772204806687 4072.9651162790697 423.7471264367816 4048.1279069767443 423.7471264367816 4023.290697674419 425.0846394984326 3998.453488372093 427.42528735632186 3973.6162790697676 428.09404388714734 3948.779069767442 430.10031347962376 3923.9418604651164 431.4378265412747 3899.104651162791 433.1097178683386 3874.267441860465 433.77847439916405 3849.4302325581393 434.1128526645768 3824.593023255814 434.7816091954024 3799.7558139534885 435.45036572622774 3774.9186046511627 435.45036572622774 3750.0813953488373 437.1222570532916 3725.2441860465115 440.13166144200625 3700.406976744186 441.4691745036573 3675.5697674418607 442.4723092998954 3650.732558139535 443.8098223615465 3625.8953488372094 445.4817136886103 3601.0581395348836 445.8160919540231 3576.220930232558 446.8192267502613 3551.383720930233 448.8254963427377 3526.546511627907 449.4942528735632 3501.7093023255816 450.4973876698014 3476.8720930232557 452.50365726227795 3452.0348837209303 452.8380355276906 3427.1976744186045 453.17241379310343 3402.360465116279 453.17241379310343 3377.5232558139533 455.8474399164055 3352.686046511628 456.8505747126437 3327.8488372093025 459.1912225705329 3303.0116279069766 460.8631138975967 3278.1744186046512 461.8662486938349 3253.3372093023254 462.5350052246604 3228.5 464.541274817137 3228.5 491.96029258098235Z" fill="#f48c7d" opacity="0.9" />
		</g>
		<g>
			<path d="M3228.5 464.541274817137 3253.3372093023254 462.5350052246604 3278.1744186046512 461.8662486938349 3303.0116279069766 460.8631138975967 3327.8488372093025 459.1912225705329 3352.686046511628 456.8505747126437 3377.5232558139533 455.8474399164055 3402.360465116279 453.17241379310343 3427.1976744186045 453.17241379310343 3452.0348837209303 452.8380355276906 3476.8720930232557 452.50365726227795 3501.7093023255816 450.4973876698014 3526.546511627907 449.4942528735632 3551.383720930233 448.8254963427377 3576.220930232558 446.8192267502613 3601.0581395348836 445.8160919540231 3625.8953488372094 445.4817136886103 3650.732558139535 443.8098223615465 3675.5697674418607 442.4723092998954 3700.406976744186 441.4691745036573 3725.2441860465115 440.13166144200625 3750.0813953488373 437.1222570532916 3774.9186046511627 435.45036572622774 3799.7558139534885 435.45036572622774 3824.593023255814 434.7816091954024 3849.4302325581393 434.1128526645768 3874.267441860465 433.77847439916405 3899.104651162791 433.1097178683386 3923.9418604651164 431.4378265412747 3948.779069767442 430.10031347962376 3973.6162790697676 428.09404388714734 3998.453488372093 427.42528735632186 4023.290697674419 425.0846394984326 4048.1279069767443 423.7471264367816 4072.9651162790697 423.7471264367816 4097.802325581395 420.73772204806687 4122.639534883721 420.73772204806687 4147.476744186047 420.73772204806687 4172.313953488372 419.4002089864159 4197.1511627906975 417.05956112852675 4221.988372093023 414.38453500522456 4246.825581395349 414.7189132706373 4271.662790697675 414.3845350052247 4296.5 414.3845350052247 4296.5 398 4271.662790697675 398 4246.825581395349 398.3343782654126 4221.988372093023 397.9999999999999 4197.1511627906975 400.6750261233021 4172.313953488372 403.01567398119124 4147.476744186047 404.3531870428422 4122.639534883721 404.3531870428422 4097.802325581395 405.0219435736677 4072.9651162790697 408.0313479623825 4048.1279069767443 408.0313479623825 4023.290697674419 409.36886102403344 3998.453488372093 411.7095088819227 3973.6162790697676 412.04388714733545 3948.779069767442 414.71891327063736 3923.9418604651164 416.0564263322883 3899.104651162791 417.7283176593522 3874.267441860465 418.39707419017765 3849.4302325581393 418.7314524555904 3824.593023255814 419.400208986416 3799.7558139534885 420.06896551724134 3774.9186046511627 420.06896551724134 3750.0813953488373 421.7408568443052 3725.2441860465115 424.75026123301984 3700.406976744186 426.0877742946709 3675.5697674418607 427.090909090909 3650.732558139535 428.4284221525601 3625.8953488372094 430.1003134796239 3601.0581395348836 430.4346917450367 3576.220930232558 431.4378265412749 3551.383720930233 433.4440961337513 3526.546511627907 434.1128526645768 3501.7093023255816 435.115987460815 3476.8720930232557 437.12225705329155 3452.0348837209303 437.4566353187042 3427.1976744186045 437.791013584117 3402.360465116279 437.791013584117 3377.5232558139533 440.4660397074191 3352.686046511628 441.4691745036573 3327.8488372093025 443.8098223615465 3303.0116279069766 445.4817136886103 3278.1744186046512 446.4848484848485 3253.3372093023254 447.153605015674 3228.5 449.1598746081506 3228.5 464.541274817137Z" fill="#55c0e9" opacity="0.9" />
		</g>
		<g>
			<rect x="4372" y="431" width="22.9995" height="23" fill="#fdd5a4" />
		</g>
		<g>
			<text fill="#595959" font-family="Verdana,sans-serif" font-weight="400" font-size="41" transform="matrix(1 0 0 1 4404.56 454)">Other</text>
		</g>
		<g>
			<rect x="4372" y="508" width="22.9995" height="23" fill="#e62d39" />
		</g>
		<g>
			<text fill="#595959" font-family="Verdana,sans-serif" font-weight="400" font-size="41" transform="matrix(1 0 0 1 4404.56 531)">iOS</text>
		</g>
		<g>
			<rect x="4372" y="585" width="22.9995" height="23" fill="#005aa6" />
		</g>
		<g>
			<text fill="#595959" font-family="Verdana,sans-serif" font-weight="400" font-size="41" transform="matrix(1 0 0 1 4404.56 608)">Android</text>
		</g>
		<g>
			<rect x="4372" y="662" width="22.9995" height="23" fill="#f6a118" />
		</g>
		<g>
			<text fill="#595959" font-family="Verdana,sans-serif" font-weight="400" font-size="41" transform="matrix(1 0 0 1 4404.56 685)">macOS</text>
		</g>
		<g>
			<rect x="4372" y="739" width="22.9995" height="23" fill="#f48c7d" />
		</g>
		<g>
			<text fill="#595959" font-family="Verdana,sans-serif" font-weight="400" font-size="41" transform="matrix(1 0 0 1 4404.56 762)">Linux</text>
		</g>
		<g>
			<rect x="4372" y="816" width="22.9995" height="23" fill="#55c0e9" />
		</g>
		<g>
			<text fill="#595959" font-family="Verdana,sans-serif" font-weight="400" font-size="41" transform="matrix(1 0 0 1 4404.56 839)">Windows</text>
		</g>
	</g>
</svg>
