<svg width="1763" height="1046"
    xmlns="http://www.w3.org/2000/svg"
	xmlns:xlink="http://www.w3.org/1999/xlink" xml:space="preserve" overflow="hidden">
	<defs>
		<clipPath id="clip0">
			<rect x="2917" y="346" width="1763" height="1046"/>
		</clipPath>
	</defs>
	<g clip-path="url(#clip0)" transform="translate(-2917 -346)">
		<rect x="2918" y="347" width="1760" height="1043" fill="#FFFFFF" />
		<g>
			<path d="
			M3228.5 974.532 4296.5 974.532
			M3228.5 910.53 4296.5 910.53
			M3228.5 846.528 4296.5 846.528
			M3228.5 781.526 4296.5 781.526
			M3228.5 717.524 4296.5 717.524
			M3228.5 653.522 4296.5 653.522
			M3228.5 589.52 4296.5 589.52
			M3228.5 525.517 4296.5 525.517
			M3228.5 461.515 4296.5 461.515
			M3228.5 397.5 4296.5 397.5" stroke="#D9D9D9" stroke-width="3.4375" stroke-linejoin="round" stroke-miterlimit="10" fill="none" />
		</g>
		<g>
			<path d="M 1038.5 4296.5 1038.5" stroke="#D9D9D9" stroke-width="3.4375" stroke-linejoin="round" stroke-miterlimit="10" fill="none" fill-rule="evenodd" />
		</g>
		<g>
			<text fill="#595959" font-family="Verdana,sans-serif" font-weight="400" font-size="41" transform="matrix(6.12323e-17 -1 1 6.12323e-17 3248 1214)">15-Apr</text>
		</g>
		<g>
			<text fill="#595959" font-family="Verdana,sans-serif" font-weight="400" font-size="41" transform="matrix(6.12323e-17 -1 1 6.12323e-17 3331.764705882353 1226)">13-May</text>
		</g>
		<g>
			<text fill="#595959" font-family="Verdana,sans-serif" font-weight="400" font-size="41" transform="matrix(6.12323e-17 -1 1 6.12323e-17 3412.029411764706 1209)">10-Jun</text>
		</g>
		<g>
			<text fill="#595959" font-family="Verdana,sans-serif" font-weight="400" font-size="41" transform="matrix(6.12323e-17 -1 1 6.12323e-17 3495.794117647059 1197)">08-Jul</text>
		</g>
		<g>
			<text fill="#595959" font-family="Verdana,sans-serif" font-weight="400" font-size="41" transform="matrix(6.12323e-17 -1 1 6.12323e-17 3583.0588235294117 1221)">05-Aug</text>
		</g>
		<g>
			<text fill="#595959" font-family="Verdana,sans-serif" font-weight="400" font-size="41" transform="matrix(6.12323e-17 -1 1 6.12323e-17 3666.823529411765 1222)">02-Sep</text>
		</g>
		<g>
			<text fill="#595959" font-family="Verdana,sans-serif" font-weight="400" font-size="41" transform="matrix(6.12323e-17 -1 1 6.12323e-17 3750.5882352941176 1221)">30-Sep</text>
		</g>
		<g>
			<text fill="#595959" font-family="Verdana,sans-serif" font-weight="400" font-size="41" transform="matrix(6.12323e-17 -1 1 6.12323e-17 3830.8529411764707 1215)">28-Oct</text>
		</g>
		<g>
			<text fill="#595959" font-family="Verdana,sans-serif" font-weight="400" font-size="41" transform="matrix(6.12323e-17 -1 1 6.12323e-17 3914.6176470588234 1224)">25-Nov</text>
		</g>
		<g>
			<text fill="#595959" font-family="Verdana,sans-serif" font-weight="400" font-size="41" transform="matrix(6.12323e-17 -1 1 6.12323e-17 3998.3823529411766 1222)">30-Dec</text>
		</g>
		<g>
			<text fill="#595959" font-family="Verdana,sans-serif" font-weight="400" font-size="41" transform="matrix(6.12323e-17 -1 1 6.12323e-17 4082.1470588235293 1210)">27-Jan</text>
		</g>
		<g>
			<text fill="#595959" font-family="Verdana,sans-serif" font-weight="400" font-size="41" transform="matrix(6.12323e-17 -1 1 6.12323e-17 4165.911764705882 1216)">24-Feb</text>
		</g>
		<g>
			<text fill="#595959" font-family="Verdana,sans-serif" font-weight="400" font-size="41" transform="matrix(6.12323e-17 -1 1 6.12323e-17 4249.676470588235 1223)">24-Mar</text>
		</g>
		<g>
			<text fill="#595959" font-family="Verdana,sans-serif" font-weight="400" font-size="41" transform="matrix(1 0 0 1 3167.5 1050)">0</text>
		</g>
		<g>
			<text fill="#595959" font-family="Verdana,sans-serif" font-weight="400" font-size="41" transform="matrix(1 0 0 1 3114.5 922)">402</text>
		</g>
		<g>
			<text fill="#595959" font-family="Verdana,sans-serif" font-weight="400" font-size="41" transform="matrix(1 0 0 1 3115.5 794)">803</text>
		</g>
		<g>
			<text fill="#595959" font-family="Verdana,sans-serif" font-weight="400" font-size="41" transform="matrix(1 0 0 1 3077.5 666)">1,205</text>
		</g>
		<g>
			<text fill="#595959" font-family="Verdana,sans-serif" font-weight="400" font-size="41" transform="matrix(1 0 0 1 3076.5 538)">1,606</text>
		</g>
		<g>
			<text fill="#595959" font-family="Verdana,sans-serif" font-weight="400" font-size="41" transform="matrix(1 0 0 1 3074.5 410)">2,008</text>
		</g>
		<g>
			<text fill="#595959" font-family="Verdana,sans-serif" font-weight="400" font-size="41" transform="matrix(1 0 0 1 3544.5 1321)">Week Commencing</text>
		</g>
		<g>
			<text fill="#595959" font-family="Verdana,sans-serif" font-weight="400" font-size="46" transform="matrix(6.12323e-17 -1 1 6.12323e-17 3019.73 970.75)">Number of OS Profiles</text>
		</g>
		<rect x="2918.5" y="347.5" width="1760" height="1043" stroke="#D9D9D9" stroke-width="3.4375" stroke-linejoin="round" stroke-miterlimit="10" fill="none" />
		<g>
			<path d="M3228.5 1038 3249.4411764705883 1038 3270.3823529411766 1038 3291.323529411765 1038 3312.264705882353 1038 3333.205882352941 1038 3354.1470588235293 1038 3375.0882352941176 1038 3396.029411764706 1038 3416.970588235294 1038 3437.9117647058824 1038 3458.8529411764707 1038 3479.794117647059 1038 3500.735294117647 1038 3521.676470588235 1038 3542.6176470588234 1038 3563.5588235294117 1038 3584.5 1038 3605.4411764705883 1038 3626.3823529411766 1038 3647.323529411765 1038 3668.264705882353 1038 3689.205882352941 1038 3710.1470588235293 1038 3731.0882352941176 1038 3752.029411764706 1038 3772.970588235294 1038 3793.9117647058824 1038 3814.8529411764707 1038 3835.7941176470586 1038 3856.735294117647 1038 3877.676470588235 1038 3898.6176470588234 1038 3919.5588235294117 1038 3940.5 1038 3961.4411764705883 1038 3982.3823529411766 1038 4003.323529411765 1038 4024.264705882353 1038 4045.2058823529414 1038 4066.1470588235293 1038 4087.0882352941176 1038 4108.029411764706 1038 4128.970588235294 1038 4149.911764705882 1038 4170.85294117647 1038 4191.794117647059 1038 4212.735294117647 1038 4233.676470588235 1038 4254.617647058823 1038 4275.558823529412 1038 4296.5 1038 4296.5 698.8764940239043 4275.558823529412 698.8764940239043 4254.617647058823 699.8326693227092 4233.676470588235 700.4701195219124 4212.735294117647 701.1075697211156 4191.794117647059 701.1075697211156 4170.85294117647 702.3824701195219 4149.911764705882 703.0199203187251 4128.970588235294 703.0199203187251 4108.029411764706 703.6573705179283 4087.0882352941176 704.2948207171314 4066.1470588235293 704.9322709163347 4045.2058823529414 705.5697211155378 4024.264705882353 705.8884462151394 4003.323529411765 705.8884462151394 3982.3823529411766 705.8884462151394 3961.4411764705883 705.8884462151394 3940.5 706.5258964143427 3919.5588235294117 706.5258964143427 3898.6176470588234 707.1633466135459 3877.676470588235 707.800796812749 3856.735294117647 708.1195219123506 3835.7941176470586 708.4382470119522 3814.8529411764707 708.4382470119522 3793.9117647058824 708.7569721115538 3772.970588235294 708.7569721115538 3752.029411764706 710.3505976095618 3731.0882352941176 710.6693227091633 3710.1470588235293 711.6254980079682 3689.205882352941 711.9442231075698 3668.264705882353 712.9003984063745 3647.323529411765 713.5378486055777 3626.3823529411766 713.5378486055777 3605.4411764705883 713.8565737051792 3584.5 713.8565737051792 3563.5588235294117 714.1752988047808 3542.6176470588234 714.1752988047808 3521.676470588235 715.1314741035857 3500.735294117647 715.1314741035857 3479.794117647059 715.4501992031873 3458.8529411764707 718.3187250996016 3437.9117647058824 718.3187250996016 3416.970588235294 718.9561752988047 3396.029411764706 719.9123505976096 3375.0882352941176 720.5498007968127 3354.1470588235293 721.8247011952192 3333.205882352941 722.4621513944223 3312.264705882353 722.7808764940239 3291.323529411765 723.0996015936255 3270.3823529411766 723.0996015936255 3249.4411764705883 723.4183266932271 3228.5 723.7370517928287 3228.5 1038Z" fill="#fdd5a4" opacity="0.9" />
		</g>
		<g>
			<path d="M3228.5 723.7370517928287 3249.4411764705883 723.4183266932271 3270.3823529411766 723.0996015936255 3291.323529411765 723.0996015936255 3312.264705882353 722.7808764940239 3333.205882352941 722.4621513944223 3354.1470588235293 721.8247011952192 3375.0882352941176 720.5498007968127 3396.029411764706 719.9123505976096 3416.970588235294 718.9561752988047 3437.9117647058824 718.3187250996016 3458.8529411764707 718.3187250996016 3479.794117647059 715.4501992031873 3500.735294117647 715.1314741035857 3521.676470588235 715.1314741035857 3542.6176470588234 714.1752988047808 3563.5588235294117 714.1752988047808 3584.5 713.8565737051792 3605.4411764705883 713.8565737051792 3626.3823529411766 713.5378486055777 3647.323529411765 713.5378486055777 3668.264705882353 712.9003984063745 3689.205882352941 711.9442231075698 3710.1470588235293 711.6254980079682 3731.0882352941176 710.6693227091633 3752.029411764706 710.3505976095618 3772.970588235294 708.7569721115538 3793.9117647058824 708.7569721115538 3814.8529411764707 708.4382470119522 3835.7941176470586 708.4382470119522 3856.735294117647 708.1195219123506 3877.676470588235 707.800796812749 3898.6176470588234 707.1633466135459 3919.5588235294117 706.5258964143427 3940.5 706.5258964143427 3961.4411764705883 705.8884462151394 3982.3823529411766 705.8884462151394 4003.323529411765 705.8884462151394 4024.264705882353 705.8884462151394 4045.2058823529414 705.5697211155378 4066.1470588235293 704.9322709163347 4087.0882352941176 704.2948207171314 4108.029411764706 703.6573705179283 4128.970588235294 703.0199203187251 4149.911764705882 703.0199203187251 4170.85294117647 702.3824701195219 4191.794117647059 701.1075697211156 4212.735294117647 701.1075697211156 4233.676470588235 700.4701195219124 4254.617647058823 699.8326693227092 4275.558823529412 698.8764940239043 4296.5 698.8764940239043 4296.5 552.2629482071713 4275.558823529412 552.2629482071713 4254.617647058823 555.1314741035857 4233.676470588235 556.0876494023904 4212.735294117647 556.7250996015937 4191.794117647059 557.3625498007968 4170.85294117647 558.6374501992032 4149.911764705882 559.9123505976096 4128.970588235294 559.9123505976096 4108.029411764706 561.5059760956175 4087.0882352941176 562.1434262948206 4066.1470588235293 562.7808764940239 4045.2058823529414 563.7370517928287 4024.264705882353 564.0557768924302 4003.323529411765 564.6932270916334 3982.3823529411766 564.6932270916334 3961.4411764705883 564.6932270916334 3940.5 565.9681274900399 3919.5588235294117 566.2868525896415 3898.6176470588234 566.9243027888447 3877.676470588235 568.8366533864541 3856.735294117647 569.1553784860557 3835.7941176470586 569.4741035856573 3814.8529411764707 570.4302788844622 3793.9117647058824 571.3864541832669 3772.970588235294 571.3864541832669 3752.029411764706 572.9800796812749 3731.0882352941176 573.9362549800796 3710.1470588235293 574.8924302788845 3689.205882352941 575.2111553784861 3668.264705882353 576.8047808764941 3647.323529411765 577.4422310756972 3626.3823529411766 577.4422310756972 3605.4411764705883 577.7609561752988 3584.5 577.7609561752988 3563.5588235294117 579.3545816733067 3542.6176470588234 580.9482071713147 3521.676470588235 582.2231075697212 3500.735294117647 582.2231075697212 3479.794117647059 582.5418326693227 3458.8529411764707 585.410358565737 3437.9117647058824 585.410358565737 3416.970588235294 586.3665338645418 3396.029411764706 588.2788844621514 3375.0882352941176 588.9163346613545 3354.1470588235293 590.191235059761 3333.205882352941 591.4661354581674 3312.264705882353 592.4223107569721 3291.323529411765 592.7410358565737 3270.3823529411766 592.7410358565737 3249.4411764705883 593.3784860557769 3228.5 594.01593625498 3228.5 723.7370517928287Z" fill="#e62d39" opacity="0.9" />
		</g>
		<g>
			<path d="M3228.5 594.01593625498 3249.4411764705883 593.3784860557769 3270.3823529411766 592.7410358565737 3291.323529411765 592.7410358565737 3312.264705882353 592.4223107569721 3333.205882352941 591.4661354581674 3354.1470588235293 590.191235059761 3375.0882352941176 588.9163346613545 3396.029411764706 588.2788844621514 3416.970588235294 586.3665338645418 3437.9117647058824 585.410358565737 3458.8529411764707 585.410358565737 3479.794117647059 582.5418326693227 3500.735294117647 582.2231075697212 3521.676470588235 582.2231075697212 3542.6176470588234 580.9482071713147 3563.5588235294117 579.3545816733067 3584.5 577.7609561752988 3605.4411764705883 577.7609561752988 3626.3823529411766 577.4422310756972 3647.323529411765 577.4422310756972 3668.264705882353 576.8047808764941 3689.205882352941 575.2111553784861 3710.1470588235293 574.8924302788845 3731.0882352941176 573.9362549800796 3752.029411764706 572.9800796812749 3772.970588235294 571.3864541832669 3793.9117647058824 571.3864541832669 3814.8529411764707 570.4302788844622 3835.7941176470586 569.4741035856573 3856.735294117647 569.1553784860557 3877.676470588235 568.8366533864541 3898.6176470588234 566.9243027888447 3919.5588235294117 566.2868525896415 3940.5 565.9681274900399 3961.4411764705883 564.6932270916334 3982.3823529411766 564.6932270916334 4003.323529411765 564.6932270916334 4024.264705882353 564.0557768924302 4045.2058823529414 563.7370517928287 4066.1470588235293 562.7808764940239 4087.0882352941176 562.1434262948206 4108.029411764706 561.5059760956175 4128.970588235294 559.9123505976096 4149.911764705882 559.9123505976096 4170.85294117647 558.6374501992032 4191.794117647059 557.3625498007968 4212.735294117647 556.7250996015937 4233.676470588235 556.0876494023904 4254.617647058823 555.1314741035857 4275.558823529412 552.2629482071713 4296.5 552.2629482071713 4296.5 492.34262948207174 4275.558823529412 492.34262948207174 4254.617647058823 495.21115537848607 4233.676470588235 496.1673306772908 4212.735294117647 496.8047808764941 4191.794117647059 497.44223107569724 4170.85294117647 498.71713147410355 4149.911764705882 499.99203187251 4128.970588235294 499.99203187251 4108.029411764706 501.5856573705179 4087.0882352941176 502.22310756972104 4066.1470588235293 502.8605577689243 4045.2058823529414 503.81673306772905 4024.264705882353 504.1354581673306 4003.323529411765 504.7729083665338 3982.3823529411766 504.7729083665338 3961.4411764705883 504.7729083665338 3940.5 506.0478087649403 3919.5588235294117 506.3665338645419 3898.6176470588234 507.00398406374507 3877.676470588235 509.2350597609561 3856.735294117647 509.5537848605577 3835.7941176470586 509.8725099601593 3814.8529411764707 510.82868525896413 3793.9117647058824 511.78486055776887 3772.970588235294 511.78486055776887 3752.029411764706 513.3784860557769 3731.0882352941176 514.3346613545816 3710.1470588235293 515.2908366533865 3689.205882352941 515.609561752988 3668.264705882353 517.203187250996 3647.323529411765 517.8406374501992 3626.3823529411766 517.8406374501992 3605.4411764705883 518.1593625498008 3584.5 518.1593625498008 3563.5588235294117 519.7529880478087 3542.6176470588234 521.3466135458167 3521.676470588235 522.6215139442231 3500.735294117647 522.6215139442231 3479.794117647059 522.9402390438247 3458.8529411764707 525.808764940239 3437.9117647058824 525.808764940239 3416.970588235294 526.7649402390438 3396.029411764706 528.6772908366534 3375.0882352941176 529.3147410358565 3354.1470588235293 531.2270916334661 3333.205882352941 532.5019920318725 3312.264705882353 533.4581673306773 3291.323529411765 534.0956175298805 3270.3823529411766 534.0956175298805 3249.4411764705883 534.7330677290837 3228.5 535.3705179282869 3228.5 594.01593625498Z" fill="#005aa6" opacity="0.9" />
		</g>
		<g>
			<path d="M3228.5 535.3705179282869 3249.4411764705883 534.7330677290837 3270.3823529411766 534.0956175298805 3291.323529411765 534.0956175298805 3312.264705882353 533.4581673306773 3333.205882352941 532.5019920318725 3354.1470588235293 531.2270916334661 3375.0882352941176 529.3147410358565 3396.029411764706 528.6772908366534 3416.970588235294 526.7649402390438 3437.9117647058824 525.808764940239 3458.8529411764707 525.808764940239 3479.794117647059 522.9402390438247 3500.735294117647 522.6215139442231 3521.676470588235 522.6215139442231 3542.6176470588234 521.3466135458167 3563.5588235294117 519.7529880478087 3584.5 518.1593625498008 3605.4411764705883 518.1593625498008 3626.3823529411766 517.8406374501992 3647.323529411765 517.8406374501992 3668.264705882353 517.203187250996 3689.205882352941 515.609561752988 3710.1470588235293 515.2908366533865 3731.0882352941176 514.3346613545816 3752.029411764706 513.3784860557769 3772.970588235294 511.78486055776887 3793.9117647058824 511.78486055776887 3814.8529411764707 510.82868525896413 3835.7941176470586 509.8725099601593 3856.735294117647 509.5537848605577 3877.676470588235 509.2350597609561 3898.6176470588234 507.00398406374507 3919.5588235294117 506.3665338645419 3940.5 506.0478087649403 3961.4411764705883 504.7729083665338 3982.3823529411766 504.7729083665338 4003.323529411765 504.7729083665338 4024.264705882353 504.1354581673306 4045.2058823529414 503.81673306772905 4066.1470588235293 502.8605577689243 4087.0882352941176 502.22310756972104 4108.029411764706 501.5856573705179 4128.970588235294 499.99203187251 4149.911764705882 499.99203187251 4170.85294117647 498.71713147410355 4191.794117647059 497.44223107569724 4212.735294117647 496.8047808764941 4233.676470588235 496.1673306772908 4254.617647058823 495.21115537848607 4275.558823529412 492.34262948207174 4296.5 492.34262948207174 4296.5 438.796812749004 4275.558823529412 438.796812749004 4254.617647058823 442.6215139442231 4233.676470588235 443.57768924302786 4212.735294117647 444.21513944223113 4191.794117647059 445.17131474103587 4170.85294117647 446.4462151394422 4149.911764705882 448.0398406374502 4128.970588235294 448.6772908366534 4108.029411764706 450.5896414342629 4087.0882352941176 451.86454183266926 4066.1470588235293 452.50199203187253 4045.2058823529414 453.45816733067727 4024.264705882353 453.77689243027885 4003.323529411765 454.414342629482 3982.3823529411766 454.414342629482 3961.4411764705883 454.414342629482 3940.5 456.6454183266933 3919.5588235294117 456.96414342629487 3898.6176470588234 457.601593625498 3877.676470588235 460.1513944223107 3856.735294117647 460.15139442231066 3835.7941176470586 460.47011952191224 3814.8529411764707 461.7450199203187 3793.9117647058824 463.01992031872504 3772.970588235294 463.3386454183266 3752.029411764706 465.25099601593627 3731.0882352941176 466.207171314741 3710.1470588235293 467.16334661354585 3689.205882352941 467.800796812749 3668.264705882353 469.394422310757 3647.323529411765 470.0318725099602 3626.3823529411766 470.0318725099602 3605.4411764705883 470.35059760956176 3584.5 470.0318725099602 3563.5588235294117 472.5816733067728 3542.6176470588234 474.81274900398404 3521.676470588235 476.08764940239047 3500.735294117647 476.08764940239047 3479.794117647059 476.0876494023904 3458.8529411764707 478.95617529880474 3437.9117647058824 478.95617529880474 3416.970588235294 480.2310756972111 3396.029411764706 482.4621513944223 3375.0882352941176 483.09960159362544 3354.1470588235293 485.011952191235 3333.205882352941 486.28685258964146 3312.264705882353 487.8804780876494 3291.323529411765 488.5179282868527 3270.3823529411766 488.5179282868527 3249.4411764705883 489.15537848605584 3228.5 489.792828685259 3228.5 535.3705179282869Z" fill="#f6a118" opacity="0.9" />
		</g>
		<g>
			<path d="M3228.5 489.792828685259 3249.4411764705883 489.15537848605584 3270.3823529411766 488.5179282868527 3291.323529411765 488.5179282868527 3312.264705882353 487.8804780876494 3333.205882352941 486.28685258964146 3354.1470588235293 485.011952191235 3375.0882352941176 483.09960159362544 3396.029411764706 482.4621513944223 3416.970588235294 480.2310756972111 3437.9117647058824 478.95617529880474 3458.8529411764707 478.95617529880474 3479.794117647059 476.0876494023904 3500.735294117647 476.08764940239047 3521.676470588235 476.08764940239047 3542.6176470588234 474.81274900398404 3563.5588235294117 472.5816733067728 3584.5 470.0318725099602 3605.4411764705883 470.35059760956176 3626.3823529411766 470.0318725099602 3647.323529411765 470.0318725099602 3668.264705882353 469.394422310757 3689.205882352941 467.800796812749 3710.1470588235293 467.16334661354585 3731.0882352941176 466.207171314741 3752.029411764706 465.25099601593627 3772.970588235294 463.3386454183266 3793.9117647058824 463.01992031872504 3814.8529411764707 461.7450199203187 3835.7941176470586 460.47011952191224 3856.735294117647 460.15139442231066 3877.676470588235 460.1513944223107 3898.6176470588234 457.601593625498 3919.5588235294117 456.96414342629487 3940.5 456.6454183266933 3961.4411764705883 454.414342629482 3982.3823529411766 454.414342629482 4003.323529411765 454.414342629482 4024.264705882353 453.77689243027885 4045.2058823529414 453.45816733067727 4066.1470588235293 452.50199203187253 4087.0882352941176 451.86454183266926 4108.029411764706 450.5896414342629 4128.970588235294 448.6772908366534 4149.911764705882 448.0398406374502 4170.85294117647 446.4462151394422 4191.794117647059 445.17131474103587 4212.735294117647 444.21513944223113 4233.676470588235 443.57768924302786 4254.617647058823 442.6215139442231 4275.558823529412 438.796812749004 4296.5 438.796812749004 4296.5 411.7051792828685 4275.558823529412 411.7051792828685 4254.617647058823 415.52988047808765 4233.676470588235 416.4860557768924 4212.735294117647 417.12350597609566 4191.794117647059 418.0796812749004 4170.85294117647 419.67330677290835 4149.911764705882 421.26693227091636 4128.970588235294 421.9043824701196 4108.029411764706 423.81673306772905 4087.0882352941176 425.0916334661354 4066.1470588235293 425.7290836653387 4045.2058823529414 426.68525896414343 4024.264705882353 427.003984063745 4003.323529411765 427.64143426294817 3982.3823529411766 427.64143426294817 3961.4411764705883 427.64143426294817 3940.5 429.87250996015945 3919.5588235294117 430.191235059761 3898.6176470588234 430.8286852589642 3877.676470588235 433.3784860557769 3856.735294117647 433.3784860557768 3835.7941176470586 433.6972111553784 3814.8529411764707 434.9721115537849 3793.9117647058824 436.2470119521912 3772.970588235294 436.88446215139436 3752.029411764706 438.796812749004 3731.0882352941176 439.75298804780874 3710.1470588235293 440.7091633466136 3689.205882352941 441.34661354581675 3668.264705882353 442.94023904382476 3647.323529411765 443.5776892430279 3626.3823529411766 443.5776892430279 3605.4411764705883 443.8964143426295 3584.5 443.5776892430279 3563.5588235294117 446.12749003984055 3542.6176470588234 448.3585657370518 3521.676470588235 449.6334661354582 3500.735294117647 449.6334661354582 3479.794117647059 449.63346613545815 3458.8529411764707 452.5019920318725 3437.9117647058824 452.5019920318725 3416.970588235294 453.77689243027885 3396.029411764706 456.00796812749 3375.0882352941176 456.6454183266932 3354.1470588235293 458.55776892430276 3333.205882352941 459.8326693227092 3312.264705882353 461.42629482071715 3291.323529411765 462.0637450199204 3270.3823529411766 462.382470119522 3249.4411764705883 463.01992031872516 3228.5 463.6573705179283 3228.5 489.792828685259Z" fill="#f48c7d" opacity="0.9" />
		</g>
		<g>
			<path d="M3228.5 463.6573705179283 3249.4411764705883 463.01992031872516 3270.3823529411766 462.382470119522 3291.323529411765 462.0637450199204 3312.264705882353 461.42629482071715 3333.205882352941 459.8326693227092 3354.1470588235293 458.55776892430276 3375.0882352941176 456.6454183266932 3396.029411764706 456.00796812749 3416.970588235294 453.77689243027885 3437.9117647058824 452.5019920318725 3458.8529411764707 452.5019920318725 3479.794117647059 449.63346613545815 3500.735294117647 449.6334661354582 3521.676470588235 449.6334661354582 3542.6176470588234 448.3585657370518 3563.5588235294117 446.12749003984055 3584.5 443.5776892430279 3605.4411764705883 443.8964143426295 3626.3823529411766 443.5776892430279 3647.323529411765 443.5776892430279 3668.264705882353 442.94023904382476 3689.205882352941 441.34661354581675 3710.1470588235293 440.7091633466136 3731.0882352941176 439.75298804780874 3752.029411764706 438.796812749004 3772.970588235294 436.88446215139436 3793.9117647058824 436.2470119521912 3814.8529411764707 434.9721115537849 3835.7941176470586 433.6972111553784 3856.735294117647 433.3784860557768 3877.676470588235 433.3784860557769 3898.6176470588234 430.8286852589642 3919.5588235294117 430.191235059761 3940.5 429.87250996015945 3961.4411764705883 427.64143426294817 3982.3823529411766 427.64143426294817 4003.323529411765 427.64143426294817 4024.264705882353 427.003984063745 4045.2058823529414 426.68525896414343 4066.1470588235293 425.7290836653387 4087.0882352941176 425.0916334661354 4108.029411764706 423.81673306772905 4128.970588235294 421.9043824701196 4149.911764705882 421.26693227091636 4170.85294117647 419.67330677290835 4191.794117647059 418.0796812749004 4212.735294117647 417.12350597609566 4233.676470588235 416.4860557768924 4254.617647058823 415.52988047808765 4275.558823529412 411.7051792828685 4296.5 411.7051792828685 4296.5 398 4275.558823529412 398 4254.617647058823 401.8247011952191 4233.676470588235 402.78087649402386 4212.735294117647 403.41832669322713 4191.794117647059 404.37450199203187 4170.85294117647 405.9681274900398 4149.911764705882 407.56175298804783 4128.970588235294 408.19920318725104 4108.029411764706 410.1115537848605 4087.0882352941176 411.3864541832669 4066.1470588235293 412.02390438247016 4045.2058823529414 412.9800796812749 4024.264705882353 413.2988047808765 4003.323529411765 413.93625498007964 3982.3823529411766 413.93625498007964 3961.4411764705883 413.93625498007964 3940.5 416.1673306772909 3919.5588235294117 416.4860557768925 3898.6176470588234 417.12350597609566 3877.676470588235 419.67330677290835 3856.735294117647 419.6733067729083 3835.7941176470586 419.99203187250987 3814.8529411764707 419.3545816733068 3793.9117647058824 420.62948207171314 3772.970588235294 421.2669322709163 3752.029411764706 423.1792828685259 3731.0882352941176 424.1354581673306 3710.1470588235293 425.0916334661355 3689.205882352941 425.72908366533864 3668.264705882353 427.32270916334664 3647.323529411765 427.9601593625498 3626.3823529411766 427.9601593625498 3605.4411764705883 428.2788844621514 3584.5 427.9601593625498 3563.5588235294117 430.50996015936244 3542.6176470588234 432.7410358565737 3521.676470588235 434.01593625498015 3500.735294117647 434.01593625498015 3479.794117647059 434.65338645418325 3458.8529411764707 437.5219123505976 3437.9117647058824 437.5219123505976 3416.970588235294 438.79681274900395 3396.029411764706 441.0278884462151 3375.0882352941176 441.3466135458167 3354.1470588235293 443.89641434262944 3333.205882352941 445.17131474103587 3312.264705882353 446.7649402390438 3291.323529411765 447.4023904382471 3270.3823529411766 447.7211155378487 3249.4411764705883 448.35856573705183 3228.5 448.996015936255 3228.5 463.6573705179283Z" fill="#55c0e9" opacity="0.9" />
		</g>
		<g>
			<rect x="4372" y="431" width="22.9995" height="23" fill="#fdd5a4" />
		</g>
		<g>
			<text fill="#595959" font-family="Verdana,sans-serif" font-weight="400" font-size="41" transform="matrix(1 0 0 1 4404.56 454)">Other</text>
		</g>
		<g>
			<rect x="4372" y="508" width="22.9995" height="23" fill="#e62d39" />
		</g>
		<g>
			<text fill="#595959" font-family="Verdana,sans-serif" font-weight="400" font-size="41" transform="matrix(1 0 0 1 4404.56 531)">iOS</text>
		</g>
		<g>
			<rect x="4372" y="585" width="22.9995" height="23" fill="#005aa6" />
		</g>
		<g>
			<text fill="#595959" font-family="Verdana,sans-serif" font-weight="400" font-size="41" transform="matrix(1 0 0 1 4404.56 608)">Android</text>
		</g>
		<g>
			<rect x="4372" y="662" width="22.9995" height="23" fill="#f6a118" />
		</g>
		<g>
			<text fill="#595959" font-family="Verdana,sans-serif" font-weight="400" font-size="41" transform="matrix(1 0 0 1 4404.56 685)">macOS</text>
		</g>
		<g>
			<rect x="4372" y="739" width="22.9995" height="23" fill="#f48c7d" />
		</g>
		<g>
			<text fill="#595959" font-family="Verdana,sans-serif" font-weight="400" font-size="41" transform="matrix(1 0 0 1 4404.56 762)">Linux</text>
		</g>
		<g>
			<rect x="4372" y="816" width="22.9995" height="23" fill="#55c0e9" />
		</g>
		<g>
			<text fill="#595959" font-family="Verdana,sans-serif" font-weight="400" font-size="41" transform="matrix(1 0 0 1 4404.56 839)">Windows</text>
		</g>
	</g>
</svg>
