<svg width="1763" height="1046"
    xmlns="http://www.w3.org/2000/svg"
	xmlns:xlink="http://www.w3.org/1999/xlink" xml:space="preserve" overflow="hidden">
	<defs>
		<clipPath id="clip0">
			<rect x="2917" y="346" width="1763" height="1046"/>
		</clipPath>
	</defs>
	<g clip-path="url(#clip0)" transform="translate(-2917 -346)">
		<rect x="2918" y="347" width="1760" height="1043" fill="#FFFFFF" />
		<g>
			<path d="
			M3228.5 974.532 4296.5 974.532
			M3228.5 910.53 4296.5 910.53
			M3228.5 846.528 4296.5 846.528
			M3228.5 781.526 4296.5 781.526
			M3228.5 717.524 4296.5 717.524
			M3228.5 653.522 4296.5 653.522
			M3228.5 589.52 4296.5 589.52
			M3228.5 525.517 4296.5 525.517
			M3228.5 461.515 4296.5 461.515
			M3228.5 397.5 4296.5 397.5" stroke="#D9D9D9" stroke-width="3.4375" stroke-linejoin="round" stroke-miterlimit="10" fill="none" />
		</g>
		<g>
			<path d="M 1038.5 4296.5 1038.5" stroke="#D9D9D9" stroke-width="3.4375" stroke-linejoin="round" stroke-miterlimit="10" fill="none" fill-rule="evenodd" />
		</g>
		<g>
			<text fill="#595959" font-family="Verdana,Open Sans,DejaVu Sans,sans-serif" font-weight="400" font-size="41" transform="matrix(6.12323e-17 -1 1 6.12323e-17 3243.544677734375 1212.1708984375)">31-Mar</text>
		</g>
		<g>
			<text fill="#595959" font-family="Verdana,Open Sans,DejaVu Sans,sans-serif" font-weight="400" font-size="41" transform="matrix(6.12323e-17 -1 1 6.12323e-17 3332.033992991728 1203.3022384643555)">28-Apr</text>
		</g>
		<g>
			<text fill="#595959" font-family="Verdana,Open Sans,DejaVu Sans,sans-serif" font-weight="400" font-size="41" transform="matrix(6.12323e-17 -1 1 6.12323e-17 3415.798698874081 1216.51513671875)">26-May</text>
		</g>
		<g>
			<text fill="#595959" font-family="Verdana,Open Sans,DejaVu Sans,sans-serif" font-weight="400" font-size="41" transform="matrix(6.12323e-17 -1 1 6.12323e-17 3498.512379365809 1194.1733322143555)">30-Jun</text>
		</g>
		<g>
			<text fill="#595959" font-family="Verdana,Open Sans,DejaVu Sans,sans-serif" font-weight="400" font-size="41" transform="matrix(6.12323e-17 -1 1 6.12323e-17 3582.9877786075367 1179.0385665893555)">28-Jul</text>
		</g>
		<g>
			<text fill="#595959" font-family="Verdana,Open Sans,DejaVu Sans,sans-serif" font-weight="400" font-size="41" transform="matrix(6.12323e-17 -1 1 6.12323e-17 3667.09281652114 1208.66748046875)">25-Aug</text>
		</g>
		<g>
			<text fill="#595959" font-family="Verdana,Open Sans,DejaVu Sans,sans-serif" font-weight="400" font-size="41" transform="matrix(6.12323e-17 -1 1 6.12323e-17 3750.8575224034926 1204.42333984375)">22-Sep</text>
		</g>
		<g>
			<text fill="#595959" font-family="Verdana,Open Sans,DejaVu Sans,sans-serif" font-weight="400" font-size="41" transform="matrix(6.12323e-17 -1 1 6.12323e-17 3829.9176384420957 1201.1401290893555)">20-Oct</text>
		</g>
		<g>
			<text fill="#595959" font-family="Verdana,Open Sans,DejaVu Sans,sans-serif" font-weight="400" font-size="41" transform="matrix(6.12323e-17 -1 1 6.12323e-17 3913.4521197150734 1209.70849609375)">17-Nov</text>
		</g>
		<g>
			<text fill="#595959" font-family="Verdana,Open Sans,DejaVu Sans,sans-serif" font-weight="400" font-size="41" transform="matrix(6.12323e-17 -1 1 6.12323e-17 3997.2168255974266 1205.3642578125)">15-Dec</text>
		</g>
		<g>
			<text fill="#595959" font-family="Verdana,Open Sans,DejaVu Sans,sans-serif" font-weight="400" font-size="41" transform="matrix(6.12323e-17 -1 1 6.12323e-17 4084.8453010110293 1189.9291915893555)">12-Jan</text>
		</g>
		<g>
			<text fill="#595959" font-family="Verdana,Open Sans,DejaVu Sans,sans-serif" font-weight="400" font-size="41" transform="matrix(6.12323e-17 -1 1 6.12323e-17 4165.687155330882 1203.0419921875)">09-Feb</text>
		</g>
		<g>
			<text fill="#595959" font-family="Verdana,Open Sans,DejaVu Sans,sans-serif" font-weight="400" font-size="41" transform="matrix(6.12323e-17 -1 1 6.12323e-17 4248.74116785386 1212.0107421875)">09-Mar</text>
		</g>
		<g>
			<text fill="#595959" font-family="Verdana,Open Sans,DejaVu Sans,sans-serif" font-weight="400" font-size="41" transform="matrix(1 0 0 1 3169.14111328125 1050)">0</text>
		</g>
		<g>
			<text fill="#595959" font-family="Verdana,Open Sans,DejaVu Sans,sans-serif" font-weight="400" font-size="41" transform="matrix(1 0 0 1 3121.07421875 922)">440</text>
		</g>
		<g>
			<text fill="#595959" font-family="Verdana,Open Sans,DejaVu Sans,sans-serif" font-weight="400" font-size="41" transform="matrix(1 0 0 1 3122.45556640625 794)">879</text>
		</g>
		<g>
			<text fill="#595959" font-family="Verdana,Open Sans,DejaVu Sans,sans-serif" font-weight="400" font-size="41" transform="matrix(1 0 0 1 3090.64453125 666)">1,319</text>
		</g>
		<g>
			<text fill="#595959" font-family="Verdana,Open Sans,DejaVu Sans,sans-serif" font-weight="400" font-size="41" transform="matrix(1 0 0 1 3090.564453125 538)">1,758</text>
		</g>
		<g>
			<text fill="#595959" font-family="Verdana,Open Sans,DejaVu Sans,sans-serif" font-weight="400" font-size="41" transform="matrix(1 0 0 1 3088.802734375 410)">2,198</text>
		</g>
		<g>
			<text fill="#595959" font-family="Verdana,Open Sans,DejaVu Sans,sans-serif" font-weight="400" font-size="41" transform="matrix(1 0 0 1 3556.97119140625 1321)">Week Commencing</text>
		</g>
		<g>
			<text fill="#595959" font-family="Verdana,Open Sans,DejaVu Sans,sans-serif" font-weight="400" font-size="46" transform="matrix(6.12323e-17 -1 1 6.12323e-17 3019.73 953.7919921875)">Number of OS Profiles</text>
		</g>
		<rect x="2918.5" y="347.5" width="1760" height="1043" stroke="#D9D9D9" stroke-width="3.4375" stroke-linejoin="round" stroke-miterlimit="10" fill="none" />
		<g>
			<path d="M3228.5 1038 3249.4411764705883 1038 3270.3823529411766 1038 3291.323529411765 1038 3312.264705882353 1038 3333.205882352941 1038 3354.1470588235293 1038 3375.0882352941176 1038 3396.029411764706 1038 3416.970588235294 1038 3437.9117647058824 1038 3458.8529411764707 1038 3479.794117647059 1038 3500.735294117647 1038 3521.676470588235 1038 3542.6176470588234 1038 3563.5588235294117 1038 3584.5 1038 3605.4411764705883 1038 3626.3823529411766 1038 3647.323529411765 1038 3668.264705882353 1038 3689.205882352941 1038 3710.1470588235293 1038 3731.0882352941176 1038 3752.029411764706 1038 3772.970588235294 1038 3793.9117647058824 1038 3814.8529411764707 1038 3835.7941176470586 1038 3856.735294117647 1038 3877.676470588235 1038 3898.6176470588234 1038 3919.5588235294117 1038 3940.5 1038 3961.4411764705883 1038 3982.3823529411766 1038 4003.323529411765 1038 4024.264705882353 1038 4045.2058823529414 1038 4066.1470588235293 1038 4087.0882352941176 1038 4108.029411764706 1038 4128.970588235294 1038 4149.911764705882 1038 4170.85294117647 1038 4191.794117647059 1038 4212.735294117647 1038 4233.676470588235 1038 4254.617647058823 1038 4275.558823529412 1038 4296.5 1038 4296.5 706.0618744313012 4275.558823529412 707.8089171974523 4254.617647058823 708.3912647861692 4233.676470588235 708.3912647861692 4212.735294117647 708.6824385805278 4191.794117647059 708.9736123748862 4170.85294117647 709.8471337579617 4149.911764705882 710.4294813466788 4128.970588235294 711.3030027297543 4108.029411764706 712.1765241128298 4087.0882352941176 712.4676979071884 4066.1470588235293 712.7588717015469 4045.2058823529414 712.7588717015469 4024.264705882353 713.3412192902639 4003.323529411765 713.6323930846224 3982.3823529411766 714.2147406733394 3961.4411764705883 714.2147406733394 3940.5 714.505914467698 3919.5588235294117 714.7970882620564 3898.6176470588234 715.088262056415 3877.676470588235 715.9617834394905 3856.735294117647 716.8353048225661 3835.7941176470586 717.1264786169245 3814.8529411764707 717.417652411283 3793.9117647058824 717.417652411283 3772.970588235294 718 3752.029411764706 719.4558689717926 3731.0882352941176 720.3293903548681 3710.1470588235293 720.6205641492265 3689.205882352941 720.6205641492265 3668.264705882353 720.9117379435851 3647.323529411765 720.9117379435851 3626.3823529411766 720.9117379435851 3605.4411764705883 721.2029117379436 3584.5 722.0764331210191 3563.5588235294117 722.0764331210191 3542.6176470588234 722.3676069153776 3521.676470588235 722.6587807097362 3500.735294117647 723.2411282984532 3479.794117647059 723.5323020928117 3458.8529411764707 723.5323020928117 3437.9117647058824 724.1146496815287 3416.970588235294 725.5705186533212 3396.029411764706 727.6087352138308 3375.0882352941176 727.6087352138308 3354.1470588235293 727.6087352138308 3333.205882352941 727.8999090081893 3312.264705882353 727.6087352138308 3291.323529411765 727.8999090081893 3270.3823529411766 728.1910828025477 3249.4411764705883 728.1910828025477 3228.5 729.0646041856232 3228.5 1038Z" fill="#f48c7d" opacity="0.9" />
		</g>
		<g>
			<path d="M3228.5 729.0646041856232 3249.4411764705883 728.1910828025477 3270.3823529411766 728.1910828025477 3291.323529411765 727.8999090081893 3312.264705882353 727.6087352138308 3333.205882352941 727.8999090081893 3354.1470588235293 727.6087352138308 3375.0882352941176 727.6087352138308 3396.029411764706 727.6087352138308 3416.970588235294 725.5705186533212 3437.9117647058824 724.1146496815287 3458.8529411764707 723.5323020928117 3479.794117647059 723.5323020928117 3500.735294117647 723.2411282984532 3521.676470588235 722.6587807097362 3542.6176470588234 722.3676069153776 3563.5588235294117 722.0764331210191 3584.5 722.0764331210191 3605.4411764705883 721.2029117379436 3626.3823529411766 720.9117379435851 3647.323529411765 720.9117379435851 3668.264705882353 720.9117379435851 3689.205882352941 720.6205641492265 3710.1470588235293 720.6205641492265 3731.0882352941176 720.3293903548681 3752.029411764706 719.4558689717926 3772.970588235294 718 3793.9117647058824 717.417652411283 3814.8529411764707 717.417652411283 3835.7941176470586 717.1264786169245 3856.735294117647 716.8353048225661 3877.676470588235 715.9617834394905 3898.6176470588234 715.088262056415 3919.5588235294117 714.7970882620564 3940.5 714.505914467698 3961.4411764705883 714.2147406733394 3982.3823529411766 714.2147406733394 4003.323529411765 713.6323930846224 4024.264705882353 713.3412192902639 4045.2058823529414 712.7588717015469 4066.1470588235293 712.7588717015469 4087.0882352941176 712.4676979071884 4108.029411764706 712.1765241128298 4128.970588235294 711.3030027297543 4149.911764705882 710.4294813466788 4170.85294117647 709.8471337579617 4191.794117647059 708.9736123748862 4212.735294117647 708.6824385805278 4233.676470588235 708.3912647861692 4254.617647058823 708.3912647861692 4275.558823529412 707.8089171974523 4296.5 706.0618744313012 4296.5 549.7015468607826 4275.558823529412 552.0309372156506 4254.617647058823 552.6132848043676 4233.676470588235 553.7779799818016 4212.735294117647 555.5250227479528 4191.794117647059 555.8161965423112 4170.85294117647 557.2720655141037 4149.911764705882 557.8544131028208 4128.970588235294 559.8926296633304 4108.029411764706 564.2602365787079 4087.0882352941176 564.5514103730665 4066.1470588235293 565.1337579617835 4045.2058823529414 565.1337579617835 4024.264705882353 565.7161055505005 4003.323529411765 566.0072793448591 3982.3823529411766 568.0454959053685 3961.4411764705883 567.171974522293 3940.5 568.0454959053686 3919.5588235294117 568.336669699727 3898.6176470588234 568.6278434940857 3877.676470588235 569.5013648771612 3856.735294117647 571.5395814376707 3835.7941176470586 572.4131028207462 3814.8529411764707 572.7042766151047 3793.9117647058824 572.7042766151047 3772.970588235294 573.2866242038217 3752.029411764706 577.6542311191994 3731.0882352941176 578.8189262966333 3710.1470588235293 579.1101000909918 3689.205882352941 580.8571428571429 3668.264705882353 581.4394904458599 3647.323529411765 581.4394904458599 3626.3823529411766 582.3130118289354 3605.4411764705883 582.8953594176525 3584.5 584.0600545950865 3563.5588235294117 584.0600545950865 3542.6176470588234 584.6424021838034 3521.676470588235 584.933575978162 3500.735294117647 585.5159235668791 3479.794117647059 585.8070973612375 3458.8529411764707 585.8070973612375 3437.9117647058824 586.9717925386716 3416.970588235294 589.3011828935396 3396.029411764706 591.6305732484077 3375.0882352941176 592.2129208371247 3354.1470588235293 591.3393994540492 3333.205882352941 593.3776160145587 3312.264705882353 593.0864422202002 3291.323529411765 593.3776160145587 3270.3823529411766 594.2511373976342 3249.4411764705883 594.2511373976342 3228.5 596.8717015468608 3228.5 729.0646041856232Z" fill="#005aa6" opacity="0.9" />
		</g>
		<g>
			<path d="M3228.5 596.8717015468608 3249.4411764705883 594.2511373976342 3270.3823529411766 594.2511373976342 3291.323529411765 593.3776160145587 3312.264705882353 593.0864422202002 3333.205882352941 593.3776160145587 3354.1470588235293 591.3393994540492 3375.0882352941176 592.2129208371247 3396.029411764706 591.6305732484077 3416.970588235294 589.3011828935396 3437.9117647058824 586.9717925386716 3458.8529411764707 585.8070973612375 3479.794117647059 585.8070973612375 3500.735294117647 585.5159235668791 3521.676470588235 584.933575978162 3542.6176470588234 584.6424021838034 3563.5588235294117 584.0600545950865 3584.5 584.0600545950865 3605.4411764705883 582.8953594176525 3626.3823529411766 582.3130118289354 3647.323529411765 581.4394904458599 3668.264705882353 581.4394904458599 3689.205882352941 580.8571428571429 3710.1470588235293 579.1101000909918 3731.0882352941176 578.8189262966333 3752.029411764706 577.6542311191994 3772.970588235294 573.2866242038217 3793.9117647058824 572.7042766151047 3814.8529411764707 572.7042766151047 3835.7941176470586 572.4131028207462 3856.735294117647 571.5395814376707 3877.676470588235 569.5013648771612 3898.6176470588234 568.6278434940857 3919.5588235294117 568.336669699727 3940.5 568.0454959053686 3961.4411764705883 567.171974522293 3982.3823529411766 568.0454959053685 4003.323529411765 566.0072793448591 4024.264705882353 565.7161055505005 4045.2058823529414 565.1337579617835 4066.1470588235293 565.1337579617835 4087.0882352941176 564.5514103730665 4108.029411764706 564.2602365787079 4128.970588235294 559.8926296633304 4149.911764705882 557.8544131028208 4170.85294117647 557.2720655141037 4191.794117647059 555.8161965423112 4212.735294117647 555.5250227479528 4233.676470588235 553.7779799818016 4254.617647058823 552.6132848043676 4275.558823529412 552.0309372156506 4296.5 549.7015468607826 4296.5 491.46678798908107 4275.558823529412 494.0873521383076 4254.617647058823 494.6696997270246 4233.676470588235 496.1255686988171 4212.735294117647 498.4549590536853 4191.794117647059 498.7461328480437 4170.85294117647 500.4931756141947 4149.911764705882 501.9490445859873 4128.970588235294 504.2784349408554 4108.029411764706 508.64604185623296 4087.0882352941176 508.9372156505915 4066.1470588235293 509.5195632393086 4045.2058823529414 509.5195632393086 4024.264705882353 510.10191082802555 4003.323529411765 510.3930846223841 3982.3823529411766 512.7224749772521 3961.4411764705883 511.8489535941765 3940.5 512.7224749772522 3919.5588235294117 513.0136487716106 3898.6176470588234 513.3048225659693 3877.676470588235 514.7606915377618 3856.735294117647 517.6724294813467 3835.7941176470586 518.5459508644223 3814.8529411764707 518.8371246587808 3793.9117647058824 518.8371246587808 3772.970588235294 519.7106460418563 3752.029411764706 524.9517743403095 3731.0882352941176 526.407643312102 3710.1470588235293 526.6988171064604 3689.205882352941 528.4458598726115 3668.264705882353 529.0282074613285 3647.323529411765 529.0282074613285 3626.3823529411766 530.7752502274795 3605.4411764705883 531.6487716105551 3584.5 533.1046405823477 3563.5588235294117 533.6869881710646 3542.6176470588234 534.2693357597815 3521.676470588235 534.5605095541401 3500.735294117647 535.1428571428572 3479.794117647059 535.4340309372157 3458.8529411764707 535.4340309372157 3437.9117647058824 536.8898999090082 3416.970588235294 539.5104640582348 3396.029411764706 541.8398544131029 3375.0882352941176 543.0045495905368 3354.1470588235293 542.1310282074613 3333.205882352941 544.1692447679709 3312.264705882353 543.8780709736124 3291.323529411765 544.1692447679709 3270.3823529411766 545.333939945405 3249.4411764705883 545.333939945405 3228.5 548.828025477707 3228.5 596.8717015468608Z" fill="#f6a118" opacity="0.9" />
		</g>
		<g>
			<path d="M3228.5 548.828025477707 3249.4411764705883 545.333939945405 3270.3823529411766 545.333939945405 3291.323529411765 544.1692447679709 3312.264705882353 543.8780709736124 3333.205882352941 544.1692447679709 3354.1470588235293 542.1310282074613 3375.0882352941176 543.0045495905368 3396.029411764706 541.8398544131029 3416.970588235294 539.5104640582348 3437.9117647058824 536.8898999090082 3458.8529411764707 535.4340309372157 3479.794117647059 535.4340309372157 3500.735294117647 535.1428571428572 3521.676470588235 534.5605095541401 3542.6176470588234 534.2693357597815 3563.5588235294117 533.6869881710646 3584.5 533.1046405823477 3605.4411764705883 531.6487716105551 3626.3823529411766 530.7752502274795 3647.323529411765 529.0282074613285 3668.264705882353 529.0282074613285 3689.205882352941 528.4458598726115 3710.1470588235293 526.6988171064604 3731.0882352941176 526.407643312102 3752.029411764706 524.9517743403095 3772.970588235294 519.7106460418563 3793.9117647058824 518.8371246587808 3814.8529411764707 518.8371246587808 3835.7941176470586 518.5459508644223 3856.735294117647 517.6724294813467 3877.676470588235 514.7606915377618 3898.6176470588234 513.3048225659693 3919.5588235294117 513.0136487716106 3940.5 512.7224749772522 3961.4411764705883 511.8489535941765 3982.3823529411766 512.7224749772521 4003.323529411765 510.3930846223841 4024.264705882353 510.10191082802555 4045.2058823529414 509.5195632393086 4066.1470588235293 509.5195632393086 4087.0882352941176 508.9372156505915 4108.029411764706 508.64604185623296 4128.970588235294 504.2784349408554 4149.911764705882 501.9490445859873 4170.85294117647 500.4931756141947 4191.794117647059 498.7461328480437 4212.735294117647 498.4549590536853 4233.676470588235 496.1255686988171 4254.617647058823 494.6696997270246 4275.558823529412 494.0873521383076 4296.5 491.46678798908107 4296.5 436.43494085532313 4275.558823529412 439.0555050045497 4254.617647058823 439.63785259326664 4233.676470588235 441.0937215650592 4212.735294117647 443.42311191992735 4191.794117647059 443.7142857142858 4170.85294117647 445.75250227479523 4149.911764705882 447.20837124658783 4128.970588235294 449.53776160145594 4108.029411764706 453.9053685168335 4087.0882352941176 454.19654231119205 4066.1470588235293 454.77888989990913 4045.2058823529414 454.77888989990913 4024.264705882353 455.3612374886261 4003.323529411765 455.65241128298464 3982.3823529411766 457.98180163785264 3961.4411764705883 457.10828025477707 3940.5 457.98180163785275 3919.5588235294117 458.2729754322112 3898.6176470588234 458.56414922656984 3877.676470588235 460.0200181983623 3856.735294117647 462.9317561419473 3835.7941176470586 463.8052775250228 3814.8529411764707 464.09645131938134 3793.9117647058824 464.09645131938134 3772.970588235294 464.96997270245686 3752.029411764706 470.21110100091005 3731.0882352941176 471.66696997270253 3710.1470588235293 471.95814376706096 3689.205882352941 473.7051865332121 3668.264705882353 474.28753412192907 3647.323529411765 474.28753412192907 3626.3823529411766 476.0345768880801 3605.4411764705883 476.9080982711556 3584.5 478.3639672429482 3563.5588235294117 478.9463148316652 3542.6176470588234 479.52866242038203 3521.676470588235 479.8198362147407 3500.735294117647 480.4021838034578 3479.794117647059 480.6933575978162 3458.8529411764707 480.6933575978162 3437.9117647058824 482.1492265696088 3416.970588235294 484.76979071883534 3396.029411764706 487.09918107370345 3375.0882352941176 488.2638762511374 3354.1470588235293 487.3903548680619 3333.205882352941 489.42857142857144 3312.264705882353 489.1373976342129 3291.323529411765 489.42857142857144 3270.3823529411766 490.5932666060055 3249.4411764705883 490.5932666060055 3228.5 494.08735213830755 3228.5 548.828025477707Z" fill="#e62d39" opacity="0.9" />
		</g>
		<g>
			<path d="M3228.5 494.08735213830755 3249.4411764705883 490.5932666060055 3270.3823529411766 490.5932666060055 3291.323529411765 489.42857142857144 3312.264705882353 489.1373976342129 3333.205882352941 489.42857142857144 3354.1470588235293 487.3903548680619 3375.0882352941176 488.2638762511374 3396.029411764706 487.09918107370345 3416.970588235294 484.76979071883534 3437.9117647058824 482.1492265696088 3458.8529411764707 480.6933575978162 3479.794117647059 480.6933575978162 3500.735294117647 480.4021838034578 3521.676470588235 479.8198362147407 3542.6176470588234 479.52866242038203 3563.5588235294117 478.9463148316652 3584.5 478.3639672429482 3605.4411764705883 476.9080982711556 3626.3823529411766 476.0345768880801 3647.323529411765 474.28753412192907 3668.264705882353 474.28753412192907 3689.205882352941 473.7051865332121 3710.1470588235293 471.95814376706096 3731.0882352941176 471.66696997270253 3752.029411764706 470.21110100091005 3772.970588235294 464.96997270245686 3793.9117647058824 464.09645131938134 3814.8529411764707 464.09645131938134 3835.7941176470586 463.8052775250228 3856.735294117647 462.9317561419473 3877.676470588235 460.0200181983623 3898.6176470588234 458.56414922656984 3919.5588235294117 458.2729754322112 3940.5 457.98180163785275 3961.4411764705883 457.10828025477707 3982.3823529411766 457.98180163785264 4003.323529411765 455.65241128298464 4024.264705882353 455.3612374886261 4045.2058823529414 454.77888989990913 4066.1470588235293 454.77888989990913 4087.0882352941176 454.19654231119205 4108.029411764706 453.9053685168335 4128.970588235294 449.53776160145594 4149.911764705882 447.20837124658783 4170.85294117647 445.75250227479523 4191.794117647059 443.7142857142858 4212.735294117647 443.42311191992735 4233.676470588235 441.0937215650592 4254.617647058823 439.63785259326664 4275.558823529412 439.0555050045497 4296.5 436.43494085532313 4296.5 410.81164695177443 4275.558823529412 413.432211101001 4254.617647058823 414.01455868971794 4233.676470588235 415.4704276615105 4212.735294117647 417.79981801637865 4191.794117647059 418.0909918107371 4170.85294117647 420.12920837124653 4149.911764705882 421.58507734303913 4128.970588235294 423.91446769790724 4108.029411764706 428.2820746132848 4087.0882352941176 428.57324840764335 4066.1470588235293 429.15559599636043 4045.2058823529414 429.15559599636043 4024.264705882353 429.7379435850774 4003.323529411765 430.02911737943595 3982.3823529411766 432.35850773430394 3961.4411764705883 431.4849863512284 3940.5 432.35850773430406 3919.5588235294117 432.6496815286625 3898.6176470588234 432.94085532302114 3877.676470588235 434.3967242948136 3856.735294117647 437.3084622383986 3835.7941176470586 438.1819836214741 3814.8529411764707 438.47315741583265 3793.9117647058824 438.7643312101912 3772.970588235294 439.6378525932667 3752.029411764706 444.8789808917199 3731.0882352941176 446.3348498635124 3710.1470588235293 446.6260236578708 3689.205882352941 448.37306642402194 3668.264705882353 448.9554140127389 3647.323529411765 448.9554140127389 3626.3823529411766 450.70245677888994 3605.4411764705883 451.57597816196545 3584.5 453.03184713375805 3563.5588235294117 453.614194722475 3542.6176470588234 454.1965423111919 3521.676470588235 454.48771610555053 3500.735294117647 455.0700636942676 3479.794117647059 455.36123748862605 3458.8529411764707 455.36123748862605 3437.9117647058824 456.81710646041864 3416.970588235294 459.4376706096452 3396.029411764706 461.7670609645133 3375.0882352941176 462.93175614194723 3354.1470588235293 462.0582347588717 3333.205882352941 464.3876251137398 3312.264705882353 464.3876251137398 3291.323529411765 464.6787989080983 3270.3823529411766 465.84349408553237 3249.4411764705883 465.84349408553237 3228.5 469.3375796178344 3228.5 494.08735213830755Z" fill="#fdd5a4" opacity="0.9" />
		</g>
		<g>
			<path d="M3228.5 469.3375796178344 3249.4411764705883 465.84349408553237 3270.3823529411766 465.84349408553237 3291.323529411765 464.6787989080983 3312.264705882353 464.3876251137398 3333.205882352941 464.3876251137398 3354.1470588235293 462.0582347588717 3375.0882352941176 462.93175614194723 3396.029411764706 461.7670609645133 3416.970588235294 459.4376706096452 3437.9117647058824 456.81710646041864 3458.8529411764707 455.36123748862605 3479.794117647059 455.36123748862605 3500.735294117647 455.0700636942676 3521.676470588235 454.48771610555053 3542.6176470588234 454.1965423111919 3563.5588235294117 453.614194722475 3584.5 453.03184713375805 3605.4411764705883 451.57597816196545 3626.3823529411766 450.70245677888994 3647.323529411765 448.9554140127389 3668.264705882353 448.9554140127389 3689.205882352941 448.37306642402194 3710.1470588235293 446.6260236578708 3731.0882352941176 446.3348498635124 3752.029411764706 444.8789808917199 3772.970588235294 439.6378525932667 3793.9117647058824 438.7643312101912 3814.8529411764707 438.47315741583265 3835.7941176470586 438.1819836214741 3856.735294117647 437.3084622383986 3877.676470588235 434.3967242948136 3898.6176470588234 432.94085532302114 3919.5588235294117 432.6496815286625 3940.5 432.35850773430406 3961.4411764705883 431.4849863512284 3982.3823529411766 432.35850773430394 4003.323529411765 430.02911737943595 4024.264705882353 429.7379435850774 4045.2058823529414 429.15559599636043 4066.1470588235293 429.15559599636043 4087.0882352941176 428.57324840764335 4108.029411764706 428.2820746132848 4128.970588235294 423.91446769790724 4149.911764705882 421.58507734303913 4170.85294117647 420.12920837124653 4191.794117647059 418.0909918107371 4212.735294117647 417.79981801637865 4233.676470588235 415.4704276615105 4254.617647058823 414.01455868971794 4275.558823529412 413.432211101001 4296.5 410.81164695177443 4296.5 398.0000000000001 4275.558823529412 400.62056414922665 4254.617647058823 401.2029117379436 4233.676470588235 402.65878070973616 4212.735294117647 404.98817106460433 4191.794117647059 405.27934485896276 4170.85294117647 407.3175614194722 4149.911764705882 409.0646041856233 4128.970588235294 411.3939945404914 4108.029411764706 415.76160145586897 4087.0882352941176 416.0527752502275 4066.1470588235293 416.6351228389446 4045.2058823529414 416.6351228389446 4024.264705882353 417.21747042766157 4003.323529411765 417.5086442220201 3982.3823529411766 419.8380345768881 3961.4411764705883 418.96451319381254 3940.5 419.8380345768882 3919.5588235294117 420.12920837124665 3898.6176470588234 420.4203821656053 3877.676470588235 421.8762511373978 3856.735294117647 424.78798908098275 3835.7941176470586 425.66151046405827 3814.8529411764707 425.9526842584168 3793.9117647058824 426.24385805277535 3772.970588235294 427.11737943585086 3752.029411764706 432.35850773430406 3731.0882352941176 433.81437670609654 3710.1470588235293 434.10555050045497 3689.205882352941 435.8525932666061 3668.264705882353 436.4349408553231 3647.323529411765 436.4349408553231 3626.3823529411766 438.1819836214741 3605.4411764705883 439.0555050045496 3584.5 440.5113739763422 3563.5588235294117 441.0937215650592 3542.6176470588234 441.67606915377604 3521.676470588235 441.9672429481347 3500.735294117647 442.5495905368518 3479.794117647059 442.8407643312102 3458.8529411764707 442.8407643312102 3437.9117647058824 444.2966333030028 3416.970588235294 446.91719745222935 3396.029411764706 449.24658780709746 3375.0882352941176 450.4112829845314 3354.1470588235293 449.5377616014559 3333.205882352941 451.86715195632394 3312.264705882353 451.86715195632394 3291.323529411765 452.1583257506825 3270.3823529411766 453.32302092811653 3249.4411764705883 453.32302092811653 3228.5 456.8171064604186 3228.5 469.3375796178344Z" fill="#55c0e9" opacity="0.9" />
		</g>
		<g>
			<rect x="4372" y="431" width="22.9995" height="23" fill="#f48c7d" />
		</g>
		<g>
			<text fill="#595959" font-family="Verdana,Open Sans,DejaVu Sans,sans-serif" font-weight="400" font-size="41" transform="matrix(1 0 0 1 4404.56 454)">Other</text>
		</g>
		<g>
			<rect x="4372" y="508" width="22.9995" height="23" fill="#005aa6" />
		</g>
		<g>
			<text fill="#595959" font-family="Verdana,Open Sans,DejaVu Sans,sans-serif" font-weight="400" font-size="41" transform="matrix(1 0 0 1 4404.56 531)">iOS</text>
		</g>
		<g>
			<rect x="4372" y="585" width="22.9995" height="23" fill="#f6a118" />
		</g>
		<g>
			<text fill="#595959" font-family="Verdana,Open Sans,DejaVu Sans,sans-serif" font-weight="400" font-size="41" transform="matrix(1 0 0 1 4404.56 608)">macOS</text>
		</g>
		<g>
			<rect x="4372" y="662" width="22.9995" height="23" fill="#e62d39" />
		</g>
		<g>
			<text fill="#595959" font-family="Verdana,Open Sans,DejaVu Sans,sans-serif" font-weight="400" font-size="41" transform="matrix(1 0 0 1 4404.56 685)">Android</text>
		</g>
		<g>
			<rect x="4372" y="739" width="22.9995" height="23" fill="#fdd5a4" />
		</g>
		<g>
			<text fill="#595959" font-family="Verdana,Open Sans,DejaVu Sans,sans-serif" font-weight="400" font-size="41" transform="matrix(1 0 0 1 4404.56 762)">Linux</text>
		</g>
		<g>
			<rect x="4372" y="816" width="22.9995" height="23" fill="#55c0e9" />
		</g>
		<g>
			<text fill="#595959" font-family="Verdana,Open Sans,DejaVu Sans,sans-serif" font-weight="400" font-size="41" transform="matrix(1 0 0 1 4404.56 839)">Windows</text>
		</g>
	</g>
</svg>
