<svg width="1763" height="1046"
    xmlns="http://www.w3.org/2000/svg"
	xmlns:xlink="http://www.w3.org/1999/xlink" xml:space="preserve" overflow="hidden">
	<defs>
		<clipPath id="clip0">
			<rect x="2917" y="346" width="1763" height="1046"/>
		</clipPath>
	</defs>
	<g clip-path="url(#clip0)" transform="translate(-2917 -346)">
		<rect x="2918" y="347" width="1760" height="1043" fill="#FFFFFF" />
		<g>
			<path d="
			M3228.5 974.532 4296.5 974.532
			M3228.5 910.53 4296.5 910.53
			M3228.5 846.528 4296.5 846.528
			M3228.5 781.526 4296.5 781.526
			M3228.5 717.524 4296.5 717.524
			M3228.5 653.522 4296.5 653.522
			M3228.5 589.52 4296.5 589.52
			M3228.5 525.517 4296.5 525.517
			M3228.5 461.515 4296.5 461.515
			M3228.5 397.5 4296.5 397.5" stroke="#D9D9D9" stroke-width="3.4375" stroke-linejoin="round" stroke-miterlimit="10" fill="none" />
		</g>
		<g>
			<path d="M 1038.5 4296.5 1038.5" stroke="#D9D9D9" stroke-width="3.4375" stroke-linejoin="round" stroke-miterlimit="10" fill="none" fill-rule="evenodd" />
		</g>
		<g>
			<text fill="#595959" font-family="Verdana,sans-serif" font-weight="400" font-size="41" transform="matrix(6.12323e-17 -1 1 6.12323e-17 3244.5 1227)">06-Nov</text>
		</g>
		<g>
			<text fill="#595959" font-family="Verdana,sans-serif" font-weight="400" font-size="41" transform="matrix(6.12323e-17 -1 1 6.12323e-17 3346.214285714286 1226)">20-Nov</text>
		</g>
		<g>
			<text fill="#595959" font-family="Verdana,sans-serif" font-weight="400" font-size="41" transform="matrix(6.12323e-17 -1 1 6.12323e-17 3447.9285714285716 1225)">04-Dec</text>
		</g>
		<g>
			<text fill="#595959" font-family="Verdana,sans-serif" font-weight="400" font-size="41" transform="matrix(6.12323e-17 -1 1 6.12323e-17 3549.642857142857 1222)">18-Dec</text>
		</g>
		<g>
			<text fill="#595959" font-family="Verdana,sans-serif" font-weight="400" font-size="41" transform="matrix(6.12323e-17 -1 1 6.12323e-17 3651.3571428571427 1212)">01-Jan</text>
		</g>
		<g>
			<text fill="#595959" font-family="Verdana,sans-serif" font-weight="400" font-size="41" transform="matrix(6.12323e-17 -1 1 6.12323e-17 3752.5714285714284 1209)">15-Jan</text>
		</g>
		<g>
			<text fill="#595959" font-family="Verdana,sans-serif" font-weight="400" font-size="41" transform="matrix(6.12323e-17 -1 1 6.12323e-17 3854.785714285714 1211)">29-Jan</text>
		</g>
		<g>
			<text fill="#595959" font-family="Verdana,sans-serif" font-weight="400" font-size="41" transform="matrix(6.12323e-17 -1 1 6.12323e-17 3956.5 1216)">12-Feb</text>
		</g>
		<g>
			<text fill="#595959" font-family="Verdana,sans-serif" font-weight="400" font-size="41" transform="matrix(6.12323e-17 -1 1 6.12323e-17 4058.214285714286 1218)">26-Feb</text>
		</g>
		<g>
			<text fill="#595959" font-family="Verdana,sans-serif" font-weight="400" font-size="41" transform="matrix(6.12323e-17 -1 1 6.12323e-17 4159.428571428572 1222)">11-Mar</text>
		</g>
		<g>
			<text fill="#595959" font-family="Verdana,sans-serif" font-weight="400" font-size="41" transform="matrix(6.12323e-17 -1 1 6.12323e-17 4261.642857142857 1225)">25-Mar</text>
		</g>
		<g>
			<text fill="#595959" font-family="Verdana,sans-serif" font-weight="400" font-size="41" transform="matrix(1 0 0 1 3167.5 1050)">0</text>
		</g>
		<g>
			<text fill="#595959" font-family="Verdana,sans-serif" font-weight="400" font-size="41" transform="matrix(1 0 0 1 3115.5 922)">369</text>
		</g>
		<g>
			<text fill="#595959" font-family="Verdana,sans-serif" font-weight="400" font-size="41" transform="matrix(1 0 0 1 3114.5 794)">737</text>
		</g>
		<g>
			<text fill="#595959" font-family="Verdana,sans-serif" font-weight="400" font-size="41" transform="matrix(1 0 0 1 3075.5 666)">1,106</text>
		</g>
		<g>
			<text fill="#595959" font-family="Verdana,sans-serif" font-weight="400" font-size="41" transform="matrix(1 0 0 1 3075.5 538)">1,474</text>
		</g>
		<g>
			<text fill="#595959" font-family="Verdana,sans-serif" font-weight="400" font-size="41" transform="matrix(1 0 0 1 3076.5 410)">1,843</text>
		</g>
		<g>
			<text fill="#595959" font-family="Verdana,sans-serif" font-weight="400" font-size="41" transform="matrix(1 0 0 1 3541.5 1321)">Week Commencing</text>
		</g>
		<g>
			<text fill="#595959" font-family="Verdana,sans-serif" font-weight="400" font-size="46" transform="matrix(6.12323e-17 -1 1 6.12323e-17 3019.73 974.25)">Number of OS Profiles</text>
		</g>
		<rect x="2918.5" y="347.5" width="1760" height="1043" stroke="#D9D9D9" stroke-width="3.4375" stroke-linejoin="round" stroke-miterlimit="10" fill="none" />
		<g>
			<path d="M3228.5 1038 3279.3571428571427 1038 3330.214285714286 1038 3381.0714285714284 1038 3431.9285714285716 1038 3482.785714285714 1038 3533.642857142857 1038 3584.5 1038 3635.3571428571427 1038 3686.214285714286 1038 3737.0714285714284 1038 3787.9285714285716 1038 3838.785714285714 1038 3889.642857142857 1038 3940.5 1038 3991.3571428571427 1038 4042.214285714286 1038 4093.0714285714284 1038 4143.928571428572 1038 4194.785714285714 1038 4245.642857142857 1038 4296.5 1038 4296.5 696.6435160065112 4245.642857142857 697.6852957135106 4194.785714285714 699.0743353228431 4143.928571428572 700.1161150298426 4093.0714285714284 700.1161150298426 4042.214285714286 701.5051546391753 3991.3571428571427 701.5051546391753 3940.5 701.5051546391753 3889.642857142857 702.5469343461748 3838.785714285714 702.8941942485078 3787.9285714285716 703.241454150841 3737.0714285714284 704.2832338578405 3686.214285714286 704.6304937601736 3635.3571428571427 704.9777536625068 3584.5 704.9777536625068 3533.642857142857 704.9777536625068 3482.785714285714 704.9777536625068 3431.9285714285716 707.0613130765057 3381.0714285714284 707.4085729788388 3330.214285714286 708.1030927835052 3279.3571428571427 708.1030927835052 3228.5 708.7976125881714 3228.5 1038Z" fill="#fdd5a4" opacity="0.9" />
		</g>
		<g>
			<path d="M3228.5 708.7976125881714 3279.3571428571427 708.1030927835052 3330.214285714286 708.1030927835052 3381.0714285714284 707.4085729788388 3431.9285714285716 707.0613130765057 3482.785714285714 704.9777536625068 3533.642857142857 704.9777536625068 3584.5 704.9777536625068 3635.3571428571427 704.9777536625068 3686.214285714286 704.6304937601736 3737.0714285714284 704.2832338578405 3787.9285714285716 703.241454150841 3838.785714285714 702.8941942485078 3889.642857142857 702.5469343461748 3940.5 701.5051546391753 3991.3571428571427 701.5051546391753 4042.214285714286 701.5051546391753 4093.0714285714284 700.1161150298426 4143.928571428572 700.1161150298426 4194.785714285714 699.0743353228431 4245.642857142857 697.6852957135106 4296.5 696.6435160065112 4296.5 555.6559956592513 4245.642857142857 558.0868149755834 4194.785714285714 559.4758545849159 4143.928571428572 560.5176342919153 4093.0714285714284 561.9066739012479 4042.214285714286 563.2957135105806 3991.3571428571427 563.2957135105806 3940.5 563.6429734129138 3889.642857142857 565.3792729245796 3838.785714285714 566.0737927292457 3787.9285714285716 567.1155724362452 3737.0714285714284 568.851871947911 3686.214285714286 569.1991318502442 3635.3571428571427 569.5463917525773 3584.5 569.5463917525773 3533.642857142857 571.2826912642431 3482.785714285714 571.9772110689094 3431.9285714285716 574.4080303852414 3381.0714285714284 575.797069994574 3330.214285714286 576.4915897992404 3279.3571428571427 576.8388497015735 3228.5 578.2278893109061 3228.5 708.7976125881714Z" fill="#e62d39" opacity="0.9" />
		</g>
		<g>
			<path d="M3228.5 578.2278893109061 3279.3571428571427 576.8388497015735 3330.214285714286 576.4915897992404 3381.0714285714284 575.797069994574 3431.9285714285716 574.4080303852414 3482.785714285714 571.9772110689094 3533.642857142857 571.2826912642431 3584.5 569.5463917525773 3635.3571428571427 569.5463917525773 3686.214285714286 569.1991318502442 3737.0714285714284 568.851871947911 3787.9285714285716 567.1155724362452 3838.785714285714 566.0737927292457 3889.642857142857 565.3792729245796 3940.5 563.6429734129138 3991.3571428571427 563.2957135105806 4042.214285714286 563.2957135105806 4093.0714285714284 561.9066739012479 4143.928571428572 560.5176342919153 4194.785714285714 559.4758545849159 4245.642857142857 558.0868149755834 4296.5 555.6559956592513 4296.5 491.7601736299512 4245.642857142857 494.1909929462833 4194.785714285714 495.5800325556158 4143.928571428572 496.62181226261526 4093.0714285714284 498.01085187194786 4042.214285714286 499.3998914812806 3991.3571428571427 499.3998914812806 3940.5 499.7471513836137 3889.642857142857 501.48345089527953 3838.785714285714 502.17797069994566 3787.9285714285716 503.21975040694514 3737.0714285714284 504.956049918611 3686.214285714286 505.3033098209441 3635.3571428571427 505.6505697232772 3584.5 505.6505697232772 3533.642857142857 507.38686923494305 3482.785714285714 508.0813890396093 3431.9285714285716 510.51220835594137 3381.0714285714284 511.90124796527397 3330.214285714286 512.5957677699404 3279.3571428571427 512.9430276722735 3228.5 514.3320672816061 3228.5 578.2278893109061Z" fill="#005aa6" opacity="0.9" />
		</g>
		<g>
			<path d="M3228.5 514.3320672816061 3279.3571428571427 512.9430276722735 3330.214285714286 512.5957677699404 3381.0714285714284 511.90124796527397 3431.9285714285716 510.51220835594137 3482.785714285714 508.0813890396093 3533.642857142857 507.38686923494305 3584.5 505.6505697232772 3635.3571428571427 505.6505697232772 3686.214285714286 505.3033098209441 3737.0714285714284 504.956049918611 3787.9285714285716 503.21975040694514 3838.785714285714 502.17797069994566 3889.642857142857 501.48345089527953 3940.5 499.7471513836137 3991.3571428571427 499.3998914812806 4042.214285714286 499.3998914812806 4093.0714285714284 498.01085187194786 4143.928571428572 496.62181226261526 4194.785714285714 495.5800325556158 4245.642857142857 494.1909929462833 4296.5 491.7601736299512 4296.5 442.44926749864356 4245.642857142857 445.57460661964194 4194.785714285714 446.9636462289744 4143.928571428572 448.0054259359739 4093.0714285714284 449.3944655453065 4042.214285714286 451.1307650569724 3991.3571428571427 451.4780249593055 3940.5 452.51980466630494 3889.642857142857 454.60336408030395 3838.785714285714 455.2978838849701 3787.9285714285716 456.33966359196955 3737.0714285714284 458.42322300596857 3686.214285714286 458.7704829083017 3635.3571428571427 459.1177428106348 3584.5 459.1177428106348 3533.642857142857 461.89582202930006 3482.785714285714 462.9376017362995 3431.9285714285716 465.36842105263156 3381.0714285714284 467.1047205642973 3330.214285714286 468.1465002712969 3279.3571428571427 468.8410200759631 3228.5 470.92457948996207 3228.5 514.3320672816061Z" fill="#f6a118" opacity="0.9" />
		</g>
		<g>
			<path d="M3228.5 470.92457948996207 3279.3571428571427 468.8410200759631 3330.214285714286 468.1465002712969 3381.0714285714284 467.1047205642973 3431.9285714285716 465.36842105263156 3482.785714285714 462.9376017362995 3533.642857142857 461.89582202930006 3584.5 459.1177428106348 3635.3571428571427 459.1177428106348 3686.214285714286 458.7704829083017 3737.0714285714284 458.42322300596857 3787.9285714285716 456.33966359196955 3838.785714285714 455.2978838849701 3889.642857142857 454.60336408030395 3940.5 452.51980466630494 3991.3571428571427 451.4780249593055 4042.214285714286 451.1307650569724 4093.0714285714284 449.3944655453065 4143.928571428572 448.0054259359739 4194.785714285714 446.9636462289744 4245.642857142857 445.57460661964194 4296.5 442.44926749864356 4296.5 413.97395550732506 4245.642857142857 417.09929462832343 4194.785714285714 418.4883342376559 4143.928571428572 419.5301139446554 4093.0714285714284 420.919153553988 4042.214285714286 422.6554530656539 3991.3571428571427 423.002712967987 3940.5 424.04449267498643 3889.642857142857 426.12805208898544 3838.785714285714 426.82257189365157 3787.9285714285716 427.86435160065105 3737.0714285714284 429.94791101465006 3686.214285714286 430.2951709169832 3635.3571428571427 430.6424308193163 3584.5 430.6424308193163 3533.642857142857 433.42051003798156 3482.785714285714 434.462289744981 3431.9285714285716 436.89310906131306 3381.0714285714284 438.6294085729788 3330.214285714286 439.67118827997837 3279.3571428571427 440.3657080846446 3228.5 442.44926749864356 3228.5 470.92457948996207Z" fill="#f48c7d" opacity="0.9" />
		</g>
		<g>
			<path d="M3228.5 442.44926749864356 3279.3571428571427 440.3657080846446 3330.214285714286 439.67118827997837 3381.0714285714284 438.6294085729788 3431.9285714285716 436.89310906131306 3482.785714285714 434.462289744981 3533.642857142857 433.42051003798156 3584.5 430.6424308193163 3635.3571428571427 430.6424308193163 3686.214285714286 430.2951709169832 3737.0714285714284 429.94791101465006 3787.9285714285716 427.86435160065105 3838.785714285714 426.82257189365157 3889.642857142857 426.12805208898544 3940.5 424.04449267498643 3991.3571428571427 423.002712967987 4042.214285714286 422.6554530656539 4093.0714285714284 420.919153553988 4143.928571428572 419.5301139446554 4194.785714285714 418.4883342376559 4245.642857142857 417.09929462832343 4296.5 413.97395550732506 4296.5 398.00000000000006 4245.642857142857 401.12533912099843 4194.785714285714 402.5143787303309 4143.928571428572 403.5561584373304 4093.0714285714284 404.945198046663 4042.214285714286 406.6814975583289 3991.3571428571427 407.028757460662 3940.5 408.0705371676614 3889.642857142857 410.15409658166044 3838.785714285714 410.84861638632657 3787.9285714285716 411.89039609332605 3737.0714285714284 413.97395550732506 3686.214285714286 414.3212154096582 3635.3571428571427 414.6684753119913 3584.5 414.6684753119913 3533.642857142857 417.44655453065656 3482.785714285714 418.488334237656 3431.9285714285716 420.91915355398805 3381.0714285714284 422.6554530656538 3330.214285714286 423.69723277265336 3279.3571428571427 424.3917525773196 3228.5 426.47531199131856 3228.5 442.44926749864356Z" fill="#55c0e9" opacity="0.9" />
		</g>
		<g>
			<rect x="4372" y="431" width="22.9995" height="23" fill="#fdd5a4" />
		</g>
		<g>
			<text fill="#595959" font-family="Verdana,sans-serif" font-weight="400" font-size="41" transform="matrix(1 0 0 1 4404.56 454)">Other</text>
		</g>
		<g>
			<rect x="4372" y="508" width="22.9995" height="23" fill="#e62d39" />
		</g>
		<g>
			<text fill="#595959" font-family="Verdana,sans-serif" font-weight="400" font-size="41" transform="matrix(1 0 0 1 4404.56 531)">iOS</text>
		</g>
		<g>
			<rect x="4372" y="585" width="22.9995" height="23" fill="#005aa6" />
		</g>
		<g>
			<text fill="#595959" font-family="Verdana,sans-serif" font-weight="400" font-size="41" transform="matrix(1 0 0 1 4404.56 608)">Android</text>
		</g>
		<g>
			<rect x="4372" y="662" width="22.9995" height="23" fill="#f6a118" />
		</g>
		<g>
			<text fill="#595959" font-family="Verdana,sans-serif" font-weight="400" font-size="41" transform="matrix(1 0 0 1 4404.56 685)">macOS</text>
		</g>
		<g>
			<rect x="4372" y="739" width="22.9995" height="23" fill="#f48c7d" />
		</g>
		<g>
			<text fill="#595959" font-family="Verdana,sans-serif" font-weight="400" font-size="41" transform="matrix(1 0 0 1 4404.56 762)">Linux</text>
		</g>
		<g>
			<rect x="4372" y="816" width="22.9995" height="23" fill="#55c0e9" />
		</g>
		<g>
			<text fill="#595959" font-family="Verdana,sans-serif" font-weight="400" font-size="41" transform="matrix(1 0 0 1 4404.56 839)">Windows</text>
		</g>
	</g>
</svg>
