<svg width="1763" height="1046"
    xmlns="http://www.w3.org/2000/svg"
	xmlns:xlink="http://www.w3.org/1999/xlink" xml:space="preserve" overflow="hidden">
	<defs>
		<clipPath id="clip0">
			<rect x="2917" y="346" width="1763" height="1046"/>
		</clipPath>
	</defs>
	<g clip-path="url(#clip0)" transform="translate(-2917 -346)">
		<rect x="2918" y="347" width="1760" height="1043" fill="#FFFFFF" />
		<g>
			<path d="
			M3228.5 974.532 4296.5 974.532
			M3228.5 910.53 4296.5 910.53
			M3228.5 846.528 4296.5 846.528
			M3228.5 781.526 4296.5 781.526
			M3228.5 717.524 4296.5 717.524
			M3228.5 653.522 4296.5 653.522
			M3228.5 589.52 4296.5 589.52
			M3228.5 525.517 4296.5 525.517
			M3228.5 461.515 4296.5 461.515
			M3228.5 397.5 4296.5 397.5" stroke="#D9D9D9" stroke-width="3.4375" stroke-linejoin="round" stroke-miterlimit="10" fill="none" />
		</g>
		<g>
			<path d="M 1038.5 4296.5 1038.5" stroke="#D9D9D9" stroke-width="3.4375" stroke-linejoin="round" stroke-miterlimit="10" fill="none" fill-rule="evenodd" />
		</g>
		<g>
			<text fill="#595959" font-family="Verdana,Open Sans,DejaVu Sans,sans-serif" font-weight="400" font-size="41" transform="matrix(6.12323e-17 -1 1 6.12323e-17 3248.269287109375 1214.75341796875)">12-May</text>
		</g>
		<g>
			<text fill="#595959" font-family="Verdana,Open Sans,DejaVu Sans,sans-serif" font-weight="400" font-size="41" transform="matrix(6.12323e-17 -1 1 6.12323e-17 3332.6382421875 1192.2914962768555)">16-Jun</text>
		</g>
		<g>
			<text fill="#595959" font-family="Verdana,Open Sans,DejaVu Sans,sans-serif" font-weight="400" font-size="41" transform="matrix(6.12323e-17 -1 1 6.12323e-17 3418.808955078125 1177.2768478393555)">14-Jul</text>
		</g>
		<g>
			<text fill="#595959" font-family="Verdana,Open Sans,DejaVu Sans,sans-serif" font-weight="400" font-size="41" transform="matrix(6.12323e-17 -1 1 6.12323e-17 3504.439140625 1206.90576171875)">11-Aug</text>
		</g>
		<g>
			<text fill="#595959" font-family="Verdana,Open Sans,DejaVu Sans,sans-serif" font-weight="400" font-size="41" transform="matrix(6.12323e-17 -1 1 6.12323e-17 3590.049306640625 1204.38330078125)">08-Sep</text>
		</g>
		<g>
			<text fill="#595959" font-family="Verdana,Open Sans,DejaVu Sans,sans-serif" font-weight="400" font-size="41" transform="matrix(6.12323e-17 -1 1 6.12323e-17 3670.764697265625 1201.1000900268555)">06-Oct</text>
		</g>
		<g>
			<text fill="#595959" font-family="Verdana,Open Sans,DejaVu Sans,sans-serif" font-weight="400" font-size="41" transform="matrix(6.12323e-17 -1 1 6.12323e-17 3756.204697265625 1211.43017578125)">03-Nov</text>
		</g>
		<g>
			<text fill="#595959" font-family="Verdana,Open Sans,DejaVu Sans,sans-serif" font-weight="400" font-size="41" transform="matrix(6.12323e-17 -1 1 6.12323e-17 3841.644697265625 1207.0859375)">01-Dec</text>
		</g>
		<g>
			<text fill="#595959" font-family="Verdana,Open Sans,DejaVu Sans,sans-serif" font-weight="400" font-size="41" transform="matrix(6.12323e-17 -1 1 6.12323e-17 3927.064677734375 1207.1259765625)">29-Dec</text>
		</g>
		<g>
			<text fill="#595959" font-family="Verdana,Open Sans,DejaVu Sans,sans-serif" font-weight="400" font-size="41" transform="matrix(6.12323e-17 -1 1 6.12323e-17 4016.1582421875 1191.6909103393555)">26-Jan</text>
		</g>
		<g>
			<text fill="#595959" font-family="Verdana,Open Sans,DejaVu Sans,sans-serif" font-weight="400" font-size="41" transform="matrix(6.12323e-17 -1 1 6.12323e-17 4098.675390625 1203.08203125)">23-Feb</text>
		</g>
		<g>
			<text fill="#595959" font-family="Verdana,Open Sans,DejaVu Sans,sans-serif" font-weight="400" font-size="41" transform="matrix(6.12323e-17 -1 1 6.12323e-17 4183.384677734375 1212.05078125)">23-Mar</text>
		</g>
		<g>
			<text fill="#595959" font-family="Verdana,Open Sans,DejaVu Sans,sans-serif" font-weight="400" font-size="41" transform="matrix(6.12323e-17 -1 1 6.12323e-17 4273.569306640625 1203.3022384643555)">20-Apr</text>
		</g>
		<g>
			<text fill="#595959" font-family="Verdana,Open Sans,DejaVu Sans,sans-serif" font-weight="400" font-size="41" transform="matrix(1 0 0 1 3169.14111328125 1050)">0</text>
		</g>
		<g>
			<text fill="#595959" font-family="Verdana,Open Sans,DejaVu Sans,sans-serif" font-weight="400" font-size="41" transform="matrix(1 0 0 1 3119.85302734375 922)">444</text>
		</g>
		<g>
			<text fill="#595959" font-family="Verdana,Open Sans,DejaVu Sans,sans-serif" font-weight="400" font-size="41" transform="matrix(1 0 0 1 3122.37548828125 794)">888</text>
		</g>
		<g>
			<text fill="#595959" font-family="Verdana,Open Sans,DejaVu Sans,sans-serif" font-weight="400" font-size="41" transform="matrix(1 0 0 1 3090.64453125 666)">1,332</text>
		</g>
		<g>
			<text fill="#595959" font-family="Verdana,Open Sans,DejaVu Sans,sans-serif" font-weight="400" font-size="41" transform="matrix(1 0 0 1 3090.4443359375 538)">1,776</text>
		</g>
		<g>
			<text fill="#595959" font-family="Verdana,Open Sans,DejaVu Sans,sans-serif" font-weight="400" font-size="41" transform="matrix(1 0 0 1 3088.72265625 410)">2,220</text>
		</g>
		<g>
			<text fill="#595959" font-family="Verdana,Open Sans,DejaVu Sans,sans-serif" font-weight="400" font-size="41" transform="matrix(1 0 0 1 3556.97119140625 1321)">Week Commencing</text>
		</g>
		<g>
			<text fill="#595959" font-family="Verdana,Open Sans,DejaVu Sans,sans-serif" font-weight="400" font-size="46" transform="matrix(6.12323e-17 -1 1 6.12323e-17 3019.73 953.7919921875)">Number of OS Profiles</text>
		</g>
		<rect x="2918.5" y="347.5" width="1760" height="1043" stroke="#D9D9D9" stroke-width="3.4375" stroke-linejoin="round" stroke-miterlimit="10" fill="none" />
		<g>
			<path d="M3228.5 1038 3249.86 1038 3271.22 1038 3292.58 1038 3313.94 1038 3335.3 1038 3356.66 1038 3378.02 1038 3399.38 1038 3420.74 1038 3442.1 1038 3463.46 1038 3484.82 1038 3506.18 1038 3527.54 1038 3548.9 1038 3570.26 1038 3591.62 1038 3612.98 1038 3634.34 1038 3655.7 1038 3677.06 1038 3698.42 1038 3719.7799999999997 1038 3741.14 1038 3762.5 1038 3783.86 1038 3805.2200000000003 1038 3826.58 1038 3847.94 1038 3869.3 1038 3890.66 1038 3912.02 1038 3933.38 1038 3954.74 1038 3976.1 1038 3997.46 1038 4018.8199999999997 1038 4040.18 1038 4061.54 1038 4082.9 1038 4104.26 1038 4125.62 1038 4146.98 1038 4168.34 1038 4189.7 1038 4211.0599999999995 1038 4232.42 1038 4253.78 1038 4275.139999999999 1038 4296.5 1038 4296.5 707.6216216216217 4275.139999999999 707.6216216216217 4253.78 707.9099099099099 4232.42 708.1981981981983 4211.0599999999995 708.1981981981983 4189.7 709.3513513513514 4168.34 711.081081081081 4146.98 711.6576576576576 4125.62 711.6576576576576 4104.26 711.9459459459459 4082.9 712.2342342342342 4061.54 713.099099099099 4040.18 713.6756756756756 4018.8199999999997 714.5405405405405 3997.46 715.4054054054054 3976.1 715.6936936936937 3954.74 715.981981981982 3933.38 715.981981981982 3912.02 716.5585585585586 3890.66 716.8468468468468 3869.3 717.4234234234234 3847.94 717.4234234234234 3826.58 717.7117117117117 3805.2200000000003 718 3783.86 718.2882882882883 3762.5 719.1531531531532 3741.14 720.018018018018 3719.7799999999997 720.3063063063063 3698.42 720.5945945945946 3677.06 720.5945945945946 3655.7 721.1711711711712 3634.34 722.6126126126126 3612.98 723.4774774774775 3591.62 723.7657657657658 3570.26 723.7657657657658 3548.9 724.0540540540541 3527.54 724.0540540540541 3506.18 724.0540540540541 3484.82 724.3423423423424 3463.46 725.2072072072071 3442.1 725.2072072072071 3420.74 725.4954954954956 3399.38 725.7837837837837 3378.02 726.3603603603603 3356.66 726.6486486486486 3335.3 726.6486486486486 3313.94 727.2252252252252 3292.58 728.6666666666667 3271.22 730.6846846846847 3249.86 730.6846846846847 3228.5 730.6846846846847 3228.5 1038Z" fill="#f48c7d" opacity="0.9" />
		</g>
		<g>
			<path d="M3228.5 730.6846846846847 3249.86 730.6846846846847 3271.22 730.6846846846847 3292.58 728.6666666666667 3313.94 727.2252252252252 3335.3 726.6486486486486 3356.66 726.6486486486486 3378.02 726.3603603603603 3399.38 725.7837837837837 3420.74 725.4954954954956 3442.1 725.2072072072071 3463.46 725.2072072072071 3484.82 724.3423423423424 3506.18 724.0540540540541 3527.54 724.0540540540541 3548.9 724.0540540540541 3570.26 723.7657657657658 3591.62 723.7657657657658 3612.98 723.4774774774775 3634.34 722.6126126126126 3655.7 721.1711711711712 3677.06 720.5945945945946 3698.42 720.5945945945946 3719.7799999999997 720.3063063063063 3741.14 720.018018018018 3762.5 719.1531531531532 3783.86 718.2882882882883 3805.2200000000003 718 3826.58 717.7117117117117 3847.94 717.4234234234234 3869.3 717.4234234234234 3890.66 716.8468468468468 3912.02 716.5585585585586 3933.38 715.981981981982 3954.74 715.981981981982 3976.1 715.6936936936937 3997.46 715.4054054054054 4018.8199999999997 714.5405405405405 4040.18 713.6756756756756 4061.54 713.099099099099 4082.9 712.2342342342342 4104.26 711.9459459459459 4125.62 711.6576576576576 4146.98 711.6576576576576 4168.34 711.081081081081 4189.7 709.3513513513514 4211.0599999999995 708.1981981981983 4232.42 708.1981981981983 4253.78 707.9099099099099 4275.139999999999 707.6216216216217 4296.5 707.6216216216217 4296.5 548.7747747747749 4275.139999999999 548.7747747747749 4253.78 550.7927927927927 4232.42 551.0810810810812 4211.0599999999995 552.2342342342342 4189.7 554.5405405405405 4168.34 556.8468468468468 4146.98 557.4234234234234 4125.62 558.5765765765766 4104.26 560.3063063063063 4082.9 560.5945945945946 4061.54 562.036036036036 4040.18 562.6126126126126 4018.8199999999997 564.6306306306305 3997.46 568.9549549549549 3976.1 569.2432432432432 3954.74 569.8198198198198 3933.38 569.8198198198198 3912.02 570.3963963963964 3890.66 570.6846846846846 3869.3 572.7027027027027 3847.94 571.8378378378378 3826.58 572.7027027027027 3805.2200000000003 572.990990990991 3783.86 573.2792792792793 3762.5 574.1441441441442 3741.14 576.1621621621621 3719.7799999999997 577.027027027027 3698.42 577.3153153153153 3677.06 577.3153153153153 3655.7 577.8918918918919 3634.34 582.2162162162161 3612.98 583.3693693693693 3591.62 583.6576576576576 3570.26 585.3873873873874 3548.9 585.963963963964 3527.54 585.963963963964 3506.18 586.8288288288288 3484.82 587.4054054054054 3463.46 588.5585585585585 3442.1 588.5585585585585 3420.74 589.1351351351352 3399.38 589.4234234234234 3378.02 590 3356.66 590.2882882882883 3335.3 590.2882882882883 3313.94 591.4414414414415 3292.58 593.7477477477478 3271.22 596.0540540540541 3249.86 596.6306306306307 3228.5 595.7657657657658 3228.5 730.6846846846847Z" fill="#005aa6" opacity="0.9" />
		</g>
		<g>
			<path d="M3228.5 595.7657657657658 3249.86 596.6306306306307 3271.22 596.0540540540541 3292.58 593.7477477477478 3313.94 591.4414414414415 3335.3 590.2882882882883 3356.66 590.2882882882883 3378.02 590 3399.38 589.4234234234234 3420.74 589.1351351351352 3442.1 588.5585585585585 3463.46 588.5585585585585 3484.82 587.4054054054054 3506.18 586.8288288288288 3527.54 585.963963963964 3548.9 585.963963963964 3570.26 585.3873873873874 3591.62 583.6576576576576 3612.98 583.3693693693693 3634.34 582.2162162162161 3655.7 577.8918918918919 3677.06 577.3153153153153 3698.42 577.3153153153153 3719.7799999999997 577.027027027027 3741.14 576.1621621621621 3762.5 574.1441441441442 3783.86 573.2792792792793 3805.2200000000003 572.990990990991 3826.58 572.7027027027027 3847.94 571.8378378378378 3869.3 572.7027027027027 3890.66 570.6846846846846 3912.02 570.3963963963964 3933.38 569.8198198198198 3954.74 569.8198198198198 3976.1 569.2432432432432 3997.46 568.9549549549549 4018.8199999999997 564.6306306306305 4040.18 562.6126126126126 4061.54 562.036036036036 4082.9 560.5945945945946 4104.26 560.3063063063063 4125.62 558.5765765765766 4146.98 557.4234234234234 4168.34 556.8468468468468 4189.7 554.5405405405405 4211.0599999999995 552.2342342342342 4232.42 551.0810810810812 4253.78 550.7927927927927 4275.139999999999 548.7747747747749 4296.5 548.7747747747749 4296.5 490.54054054054063 4275.139999999999 490.54054054054063 4253.78 492.5585585585585 4232.42 492.8468468468469 4211.0599999999995 494.2882882882883 4189.7 496.8828828828829 4168.34 499.47747747747746 4146.98 500.05405405405406 4125.62 501.4954954954955 4104.26 503.8018018018018 4082.9 504.0900900900901 4061.54 505.81981981981977 4040.18 507.2612612612612 4018.8199999999997 509.5675675675675 3997.46 513.8918918918919 3976.1 514.1801801801802 3954.74 514.7567567567568 3933.38 514.7567567567568 3912.02 515.3333333333334 3890.66 515.6216216216216 3869.3 517.927927927928 3847.94 517.063063063063 3826.58 517.927927927928 3805.2200000000003 518.2162162162163 3783.86 518.5045045045046 3762.5 519.945945945946 3741.14 522.8288288288287 3719.7799999999997 523.6936936936936 3698.42 523.9819819819819 3677.06 523.9819819819819 3655.7 524.8468468468468 3634.34 530.036036036036 3612.98 531.4774774774775 3591.62 531.7657657657658 3570.26 533.4954954954956 3548.9 534.0720720720722 3527.54 534.0720720720722 3506.18 535.8018018018018 3484.82 536.6666666666666 3463.46 538.108108108108 3442.1 538.6846846846846 3420.74 539.2612612612613 3399.38 539.5495495495495 3378.02 540.1261261261261 3356.66 540.4144144144144 3335.3 540.4144144144144 3313.94 541.8558558558559 3292.58 544.4504504504505 3271.22 546.7567567567568 3249.86 547.90990990991 3228.5 547.0450450450451 3228.5 595.7657657657658Z" fill="#f6a118" opacity="0.9" />
		</g>
		<g>
			<path d="M3228.5 547.0450450450451 3249.86 547.90990990991 3271.22 546.7567567567568 3292.58 544.4504504504505 3313.94 541.8558558558559 3335.3 540.4144144144144 3356.66 540.4144144144144 3378.02 540.1261261261261 3399.38 539.5495495495495 3420.74 539.2612612612613 3442.1 538.6846846846846 3463.46 538.108108108108 3484.82 536.6666666666666 3506.18 535.8018018018018 3527.54 534.0720720720722 3548.9 534.0720720720722 3570.26 533.4954954954956 3591.62 531.7657657657658 3612.98 531.4774774774775 3634.34 530.036036036036 3655.7 524.8468468468468 3677.06 523.9819819819819 3698.42 523.9819819819819 3719.7799999999997 523.6936936936936 3741.14 522.8288288288287 3762.5 519.945945945946 3783.86 518.5045045045046 3805.2200000000003 518.2162162162163 3826.58 517.927927927928 3847.94 517.063063063063 3869.3 517.927927927928 3890.66 515.6216216216216 3912.02 515.3333333333334 3933.38 514.7567567567568 3954.74 514.7567567567568 3976.1 514.1801801801802 3997.46 513.8918918918919 4018.8199999999997 509.5675675675675 4040.18 507.2612612612612 4061.54 505.81981981981977 4082.9 504.0900900900901 4104.26 503.8018018018018 4125.62 501.4954954954955 4146.98 500.05405405405406 4168.34 499.47747747747746 4189.7 496.8828828828829 4211.0599999999995 494.2882882882883 4232.42 492.8468468468469 4253.78 492.5585585585585 4275.139999999999 490.54054054054063 4296.5 490.54054054054063 4296.5 436.0540540540542 4275.139999999999 436.0540540540542 4253.78 438.07207207207205 4232.42 438.36036036036046 4211.0599999999995 439.80180180180184 4189.7 442.3963963963964 4168.34 444.990990990991 4146.98 445.5675675675676 4125.62 447.009009009009 4104.26 449.3153153153153 4082.9 449.6036036036036 4061.54 451.62162162162156 4040.18 453.063063063063 4018.8199999999997 455.3693693693693 3997.46 459.69369369369366 3976.1 459.98198198198196 3954.74 460.55855855855856 3933.38 460.55855855855856 3912.02 461.13513513513516 3890.66 461.42342342342334 3869.3 463.72972972972974 3847.94 462.86486486486484 3826.58 463.72972972972974 3805.2200000000003 464.01801801801804 3783.86 464.30630630630634 3762.5 465.74774774774784 3741.14 468.6306306306305 3719.7799999999997 469.4954954954954 3698.42 469.7837837837837 3677.06 469.7837837837837 3655.7 470.6486486486486 3634.34 475.83783783783775 3612.98 477.27927927927925 3591.62 477.56756756756755 3570.26 479.29729729729735 3548.9 479.87387387387395 3527.54 479.87387387387395 3506.18 481.60360360360363 3484.82 482.4684684684684 3463.46 483.9099099099098 3442.1 484.4864864864864 3420.74 485.0630630630631 3399.38 485.3513513513513 3378.02 485.9279279279279 3356.66 486.2162162162162 3335.3 486.2162162162162 3313.94 487.6576576576577 3292.58 490.2522522522523 3271.22 492.55855855855856 3249.86 493.71171171171176 3228.5 492.84684684684686 3228.5 547.0450450450451Z" fill="#e62d39" opacity="0.9" />
		</g>
		<g>
			<path d="M3228.5 492.84684684684686 3249.86 493.71171171171176 3271.22 492.55855855855856 3292.58 490.2522522522523 3313.94 487.6576576576577 3335.3 486.2162162162162 3356.66 486.2162162162162 3378.02 485.9279279279279 3399.38 485.3513513513513 3420.74 485.0630630630631 3442.1 484.4864864864864 3463.46 483.9099099099098 3484.82 482.4684684684684 3506.18 481.60360360360363 3527.54 479.87387387387395 3548.9 479.87387387387395 3570.26 479.29729729729735 3591.62 477.56756756756755 3612.98 477.27927927927925 3634.34 475.83783783783775 3655.7 470.6486486486486 3677.06 469.7837837837837 3698.42 469.7837837837837 3719.7799999999997 469.4954954954954 3741.14 468.6306306306305 3762.5 465.74774774774784 3783.86 464.30630630630634 3805.2200000000003 464.01801801801804 3826.58 463.72972972972974 3847.94 462.86486486486484 3869.3 463.72972972972974 3890.66 461.42342342342334 3912.02 461.13513513513516 3933.38 460.55855855855856 3954.74 460.55855855855856 3976.1 459.98198198198196 3997.46 459.69369369369366 4018.8199999999997 455.3693693693693 4040.18 453.063063063063 4061.54 451.62162162162156 4082.9 449.6036036036036 4104.26 449.3153153153153 4125.62 447.009009009009 4146.98 445.5675675675676 4168.34 444.990990990991 4189.7 442.3963963963964 4211.0599999999995 439.80180180180184 4232.42 438.36036036036046 4253.78 438.07207207207205 4275.139999999999 436.0540540540542 4296.5 436.0540540540542 4296.5 410.6846846846848 4275.139999999999 410.6846846846848 4253.78 412.70270270270265 4232.42 412.99099099099107 4211.0599999999995 414.43243243243245 4189.7 417.02702702702703 4168.34 419.6216216216216 4146.98 420.1981981981982 4125.62 421.6396396396396 4104.26 423.9459459459459 4082.9 424.2342342342342 4061.54 426.25225225225216 4040.18 427.6936936936936 4018.8199999999997 429.9999999999999 3997.46 434.32432432432427 3976.1 434.61261261261257 3954.74 435.18918918918916 3933.38 435.18918918918916 3912.02 435.76576576576576 3890.66 436.05405405405395 3869.3 438.36036036036035 3847.94 437.49549549549545 3826.58 438.36036036036035 3805.2200000000003 438.64864864864865 3783.86 438.93693693693695 3762.5 440.37837837837844 3741.14 443.2612612612611 3719.7799999999997 444.126126126126 3698.42 444.4144144144143 3677.06 444.7027027027026 3655.7 445.5675675675675 3634.34 450.75675675675666 3612.98 452.19819819819816 3591.62 452.48648648648646 3570.26 454.21621621621625 3548.9 454.79279279279285 3527.54 454.79279279279285 3506.18 456.52252252252254 3484.82 457.3873873873873 3463.46 458.8288288288287 3442.1 459.4054054054053 3420.74 459.981981981982 3399.38 460.2702702702702 3378.02 460.8468468468468 3356.66 461.1351351351351 3335.3 461.1351351351351 3313.94 462.5765765765766 3292.58 465.1711711711712 3271.22 467.47747747747746 3249.86 468.63063063063066 3228.5 467.76576576576576 3228.5 492.84684684684686Z" fill="#fdd5a4" opacity="0.9" />
		</g>
		<g>
			<path d="M3228.5 467.76576576576576 3249.86 468.63063063063066 3271.22 467.47747747747746 3292.58 465.1711711711712 3313.94 462.5765765765766 3335.3 461.1351351351351 3356.66 461.1351351351351 3378.02 460.8468468468468 3399.38 460.2702702702702 3420.74 459.981981981982 3442.1 459.4054054054053 3463.46 458.8288288288287 3484.82 457.3873873873873 3506.18 456.52252252252254 3527.54 454.79279279279285 3548.9 454.79279279279285 3570.26 454.21621621621625 3591.62 452.48648648648646 3612.98 452.19819819819816 3634.34 450.75675675675666 3655.7 445.5675675675675 3677.06 444.7027027027026 3698.42 444.4144144144143 3719.7799999999997 444.126126126126 3741.14 443.2612612612611 3762.5 440.37837837837844 3783.86 438.93693693693695 3805.2200000000003 438.64864864864865 3826.58 438.36036036036035 3847.94 437.49549549549545 3869.3 438.36036036036035 3890.66 436.05405405405395 3912.02 435.76576576576576 3933.38 435.18918918918916 3954.74 435.18918918918916 3976.1 434.61261261261257 3997.46 434.32432432432427 4018.8199999999997 429.9999999999999 4040.18 427.6936936936936 4061.54 426.25225225225216 4082.9 424.2342342342342 4104.26 423.9459459459459 4125.62 421.6396396396396 4146.98 420.1981981981982 4168.34 419.6216216216216 4189.7 417.02702702702703 4211.0599999999995 414.43243243243245 4232.42 412.99099099099107 4253.78 412.70270270270265 4275.139999999999 410.6846846846848 4296.5 410.6846846846848 4296.5 398.0000000000001 4275.139999999999 398.0000000000001 4253.78 400.018018018018 4232.42 400.3063063063064 4211.0599999999995 401.7477477477478 4189.7 404.34234234234236 4168.34 406.93693693693695 4146.98 407.51351351351354 4125.62 408.9549549549549 4104.26 411.2612612612612 4082.9 411.5495495495495 4061.54 413.5675675675675 4040.18 415.29729729729723 4018.8199999999997 417.6036036036035 3997.46 421.9279279279279 3976.1 422.2162162162162 3954.74 422.7927927927928 3933.38 422.7927927927928 3912.02 423.3693693693694 3890.66 423.6576576576576 3869.3 425.963963963964 3847.94 425.0990990990991 3826.58 425.963963963964 3805.2200000000003 426.2522522522523 3783.86 426.5405405405406 3762.5 427.9819819819821 3741.14 430.8648648648647 3719.7799999999997 431.7297297297296 3698.42 432.0180180180179 3677.06 432.3063063063062 3655.7 433.1711711711711 3634.34 438.3603603603603 3612.98 439.8018018018018 3591.62 440.0900900900901 3570.26 441.8198198198199 3548.9 442.3963963963965 3527.54 442.3963963963965 3506.18 444.12612612612617 3484.82 444.99099099099095 3463.46 446.43243243243234 3442.1 447.00900900900893 3420.74 447.58558558558565 3399.38 447.87387387387383 3378.02 448.45045045045043 3356.66 448.73873873873873 3335.3 448.73873873873873 3313.94 450.18018018018023 3292.58 452.7747747747748 3271.22 455.0810810810811 3249.86 456.2342342342343 3228.5 455.3693693693694 3228.5 467.76576576576576Z" fill="#55c0e9" opacity="0.9" />
		</g>
		<g>
			<rect x="4372" y="431" width="22.9995" height="23" fill="#f48c7d" />
		</g>
		<g>
			<text fill="#595959" font-family="Verdana,Open Sans,DejaVu Sans,sans-serif" font-weight="400" font-size="41" transform="matrix(1 0 0 1 4404.56 454)">Other</text>
		</g>
		<g>
			<rect x="4372" y="508" width="22.9995" height="23" fill="#005aa6" />
		</g>
		<g>
			<text fill="#595959" font-family="Verdana,Open Sans,DejaVu Sans,sans-serif" font-weight="400" font-size="41" transform="matrix(1 0 0 1 4404.56 531)">iOS</text>
		</g>
		<g>
			<rect x="4372" y="585" width="22.9995" height="23" fill="#f6a118" />
		</g>
		<g>
			<text fill="#595959" font-family="Verdana,Open Sans,DejaVu Sans,sans-serif" font-weight="400" font-size="41" transform="matrix(1 0 0 1 4404.56 608)">macOS</text>
		</g>
		<g>
			<rect x="4372" y="662" width="22.9995" height="23" fill="#e62d39" />
		</g>
		<g>
			<text fill="#595959" font-family="Verdana,Open Sans,DejaVu Sans,sans-serif" font-weight="400" font-size="41" transform="matrix(1 0 0 1 4404.56 685)">Android</text>
		</g>
		<g>
			<rect x="4372" y="739" width="22.9995" height="23" fill="#fdd5a4" />
		</g>
		<g>
			<text fill="#595959" font-family="Verdana,Open Sans,DejaVu Sans,sans-serif" font-weight="400" font-size="41" transform="matrix(1 0 0 1 4404.56 762)">Linux</text>
		</g>
		<g>
			<rect x="4372" y="816" width="22.9995" height="23" fill="#55c0e9" />
		</g>
		<g>
			<text fill="#595959" font-family="Verdana,Open Sans,DejaVu Sans,sans-serif" font-weight="400" font-size="41" transform="matrix(1 0 0 1 4404.56 839)">Windows</text>
		</g>
	</g>
</svg>
