<svg width="1763" height="1046"
    xmlns="http://www.w3.org/2000/svg"
	xmlns:xlink="http://www.w3.org/1999/xlink" xml:space="preserve" overflow="hidden">
	<defs>
		<clipPath id="clip0">
			<rect x="2917" y="346" width="1763" height="1046"/>
		</clipPath>
	</defs>
	<g clip-path="url(#clip0)" transform="translate(-2917 -346)">
		<rect x="2918" y="347" width="1760" height="1043" fill="#FFFFFF" />
		<g>
			<path d="
			M3228.5 974.532 4296.5 974.532
			M3228.5 910.53 4296.5 910.53
			M3228.5 846.528 4296.5 846.528
			M3228.5 781.526 4296.5 781.526
			M3228.5 717.524 4296.5 717.524
			M3228.5 653.522 4296.5 653.522
			M3228.5 589.52 4296.5 589.52
			M3228.5 525.517 4296.5 525.517
			M3228.5 461.515 4296.5 461.515
			M3228.5 397.5 4296.5 397.5" stroke="#D9D9D9" stroke-width="3.4375" stroke-linejoin="round" stroke-miterlimit="10" fill="none" />
		</g>
		<g>
			<path d="M 1038.5 4296.5 1038.5" stroke="#D9D9D9" stroke-width="3.4375" stroke-linejoin="round" stroke-miterlimit="10" fill="none" fill-rule="evenodd" />
		</g>
		<g>
			<text fill="#595959" font-family="Verdana,Open Sans,DejaVu Sans,sans-serif" font-weight="400" font-size="41" transform="matrix(6.12323e-17 -1 1 6.12323e-17 3247.21826171875 1191.6508712768555)">06-Jan</text>
		</g>
		<g>
			<text fill="#595959" font-family="Verdana,Open Sans,DejaVu Sans,sans-serif" font-weight="400" font-size="41" transform="matrix(6.12323e-17 -1 1 6.12323e-17 3329.715390625 1203.0419921875)">03-Feb</text>
		</g>
		<g>
			<text fill="#595959" font-family="Verdana,Open Sans,DejaVu Sans,sans-serif" font-weight="400" font-size="41" transform="matrix(6.12323e-17 -1 1 6.12323e-17 3414.444697265625 1212.0107421875)">03-Mar</text>
		</g>
		<g>
			<text fill="#595959" font-family="Verdana,Open Sans,DejaVu Sans,sans-serif" font-weight="400" font-size="41" transform="matrix(6.12323e-17 -1 1 6.12323e-17 3499.864677734375 1212.1708984375)">31-Mar</text>
		</g>
		<g>
			<text fill="#595959" font-family="Verdana,Open Sans,DejaVu Sans,sans-serif" font-weight="400" font-size="41" transform="matrix(6.12323e-17 -1 1 6.12323e-17 3590.029287109375 1203.3022384643555)">28-Apr</text>
		</g>
		<g>
			<text fill="#595959" font-family="Verdana,Open Sans,DejaVu Sans,sans-serif" font-weight="400" font-size="41" transform="matrix(6.12323e-17 -1 1 6.12323e-17 3675.469287109375 1216.51513671875)">26-May</text>
		</g>
		<g>
			<text fill="#595959" font-family="Verdana,Open Sans,DejaVu Sans,sans-serif" font-weight="400" font-size="41" transform="matrix(6.12323e-17 -1 1 6.12323e-17 3759.85826171875 1194.1733322143555)">30-Jun</text>
		</g>
		<g>
			<text fill="#595959" font-family="Verdana,Open Sans,DejaVu Sans,sans-serif" font-weight="400" font-size="41" transform="matrix(6.12323e-17 -1 1 6.12323e-17 3846.008955078125 1179.0385665893555)">28-Jul</text>
		</g>
		<g>
			<text fill="#595959" font-family="Verdana,Open Sans,DejaVu Sans,sans-serif" font-weight="400" font-size="41" transform="matrix(6.12323e-17 -1 1 6.12323e-17 3931.789287109375 1208.66748046875)">25-Aug</text>
		</g>
		<g>
			<text fill="#595959" font-family="Verdana,Open Sans,DejaVu Sans,sans-serif" font-weight="400" font-size="41" transform="matrix(6.12323e-17 -1 1 6.12323e-17 4017.229287109375 1204.42333984375)">22-Sep</text>
		</g>
		<g>
			<text fill="#595959" font-family="Verdana,Open Sans,DejaVu Sans,sans-serif" font-weight="400" font-size="41" transform="matrix(6.12323e-17 -1 1 6.12323e-17 4097.964697265625 1201.1401290893555)">20-Oct</text>
		</g>
		<g>
			<text fill="#595959" font-family="Verdana,Open Sans,DejaVu Sans,sans-serif" font-weight="400" font-size="41" transform="matrix(6.12323e-17 -1 1 6.12323e-17 4183.17447265625 1209.70849609375)">17-Nov</text>
		</g>
		<g>
			<text fill="#595959" font-family="Verdana,Open Sans,DejaVu Sans,sans-serif" font-weight="400" font-size="41" transform="matrix(6.12323e-17 -1 1 6.12323e-17 4268.61447265625 1205.3642578125)">15-Dec</text>
		</g>
		<g>
			<text fill="#595959" font-family="Verdana,Open Sans,DejaVu Sans,sans-serif" font-weight="400" font-size="41" transform="matrix(1 0 0 1 3169.14111328125 1050)">0</text>
		</g>
		<g>
			<text fill="#595959" font-family="Verdana,Open Sans,DejaVu Sans,sans-serif" font-weight="400" font-size="41" transform="matrix(1 0 0 1 3121.0341796875 922)">426</text>
		</g>
		<g>
			<text fill="#595959" font-family="Verdana,Open Sans,DejaVu Sans,sans-serif" font-weight="400" font-size="41" transform="matrix(1 0 0 1 3122.65576171875 794)">853</text>
		</g>
		<g>
			<text fill="#595959" font-family="Verdana,Open Sans,DejaVu Sans,sans-serif" font-weight="400" font-size="41" transform="matrix(1 0 0 1 3090.64453125 666)">1,279</text>
		</g>
		<g>
			<text fill="#595959" font-family="Verdana,Open Sans,DejaVu Sans,sans-serif" font-weight="400" font-size="41" transform="matrix(1 0 0 1 3090.4443359375 538)">1,706</text>
		</g>
		<g>
			<text fill="#595959" font-family="Verdana,Open Sans,DejaVu Sans,sans-serif" font-weight="400" font-size="41" transform="matrix(1 0 0 1 3088.8828125 410)">2,132</text>
		</g>
		<g>
			<text fill="#595959" font-family="Verdana,Open Sans,DejaVu Sans,sans-serif" font-weight="400" font-size="41" transform="matrix(1 0 0 1 3556.97119140625 1321)">Week Commencing</text>
		</g>
		<g>
			<text fill="#595959" font-family="Verdana,Open Sans,DejaVu Sans,sans-serif" font-weight="400" font-size="46" transform="matrix(6.12323e-17 -1 1 6.12323e-17 3019.73 953.7919921875)">Number of OS Profiles</text>
		</g>
		<rect x="2918.5" y="347.5" width="1760" height="1043" stroke="#D9D9D9" stroke-width="3.4375" stroke-linejoin="round" stroke-miterlimit="10" fill="none" />
		<g>
			<path d="M3228.5 1038 3249.86 1038 3271.22 1038 3292.58 1038 3313.94 1038 3335.3 1038 3356.66 1038 3378.02 1038 3399.38 1038 3420.74 1038 3442.1 1038 3463.46 1038 3484.82 1038 3506.18 1038 3527.54 1038 3548.9 1038 3570.26 1038 3591.62 1038 3612.98 1038 3634.34 1038 3655.7 1038 3677.06 1038 3698.42 1038 3719.7799999999997 1038 3741.14 1038 3762.5 1038 3783.86 1038 3805.2200000000003 1038 3826.58 1038 3847.94 1038 3869.3 1038 3890.66 1038 3912.02 1038 3933.38 1038 3954.74 1038 3976.1 1038 3997.46 1038 4018.8199999999997 1038 4040.18 1038 4061.54 1038 4082.9 1038 4104.26 1038 4125.62 1038 4146.98 1038 4168.34 1038 4189.7 1038 4211.0599999999995 1038 4232.42 1038 4253.78 1038 4275.139999999999 1038 4296.5 1038 4296.5 703.2908067542214 4275.139999999999 703.5909943714821 4253.78 704.1913696060037 4232.42 704.1913696060037 4211.0599999999995 704.4915572232645 4189.7 704.7917448405253 4168.34 705.091932457786 4146.98 705.9924953095684 4125.62 706.8930581613508 4104.26 707.1932457786115 4082.9 707.4934333958724 4061.54 707.4934333958724 4040.18 708.093808630394 4018.8199999999997 709.594746716698 3997.46 710.4953095684803 3976.1 710.795497185741 3954.74 710.795497185741 3933.38 711.0956848030019 3912.02 711.0956848030019 3890.66 711.0956848030019 3869.3 711.3958724202627 3847.94 712.2964352720451 3826.58 712.2964352720451 3805.2200000000003 712.5966228893058 3783.86 712.8968105065666 3762.5 713.4971857410882 3741.14 713.797373358349 3719.7799999999997 713.797373358349 3698.42 714.3977485928706 3677.06 715.8986866791745 3655.7 718 3634.34 718 3612.98 718 3591.62 718.3001876172607 3570.26 718 3548.9 718.3001876172607 3527.54 718.6003752345216 3506.18 718.6003752345216 3484.82 719.5009380863039 3463.46 720.1013133208255 3442.1 720.7016885553471 3420.74 720.7016885553471 3399.38 721.9024390243902 3378.02 722.5028142589117 3356.66 722.5028142589117 3335.3 723.1031894934333 3313.94 723.7035647279549 3292.58 724.3039399624765 3271.22 724.9043151969981 3249.86 725.2045028142588 3228.5 725.2045028142588 3228.5 1038Z" fill="#f48c7d" opacity="0.9" />
		</g>
		<g>
			<path d="M3228.5 725.2045028142588 3249.86 725.2045028142588 3271.22 724.9043151969981 3292.58 724.3039399624765 3313.94 723.7035647279549 3335.3 723.1031894934333 3356.66 722.5028142589117 3378.02 722.5028142589117 3399.38 721.9024390243902 3420.74 720.7016885553471 3442.1 720.7016885553471 3463.46 720.1013133208255 3484.82 719.5009380863039 3506.18 718.6003752345216 3527.54 718.6003752345216 3548.9 718.3001876172607 3570.26 718 3591.62 718.3001876172607 3612.98 718 3634.34 718 3655.7 718 3677.06 715.8986866791745 3698.42 714.3977485928706 3719.7799999999997 713.797373358349 3741.14 713.797373358349 3762.5 713.4971857410882 3783.86 712.8968105065666 3805.2200000000003 712.5966228893058 3826.58 712.2964352720451 3847.94 712.2964352720451 3869.3 711.3958724202627 3890.66 711.0956848030019 3912.02 711.0956848030019 3933.38 711.0956848030019 3954.74 710.795497185741 3976.1 710.795497185741 3997.46 710.4953095684803 4018.8199999999997 709.594746716698 4040.18 708.093808630394 4061.54 707.4934333958724 4082.9 707.4934333958724 4104.26 707.1932457786115 4125.62 706.8930581613508 4146.98 705.9924953095684 4168.34 705.091932457786 4189.7 704.7917448405253 4211.0599999999995 704.4915572232645 4232.42 704.1913696060037 4253.78 704.1913696060037 4275.139999999999 703.5909943714821 4296.5 703.2908067542214 4296.5 551.0956848030019 4275.139999999999 551.3958724202625 4253.78 553.4971857410882 4232.42 552.5966228893058 4211.0599999999995 553.4971857410882 4189.7 553.797373358349 4168.34 554.0975609756097 4146.98 554.9981238273921 4125.62 557.0994371482176 4104.26 557.9999999999999 4082.9 558.3001876172608 4061.54 558.3001876172608 4040.18 558.9005628517824 4018.8199999999997 563.4033771106942 3997.46 564.6041275797372 3976.1 564.9043151969981 3954.74 566.7054409005627 3933.38 567.3058161350843 3912.02 567.3058161350843 3890.66 568.2063789868668 3869.3 568.8067542213884 3847.94 570.0075046904316 3826.58 570.0075046904316 3805.2200000000003 570.6078799249531 3783.86 570.9080675422139 3762.5 571.5084427767355 3741.14 571.8086303939963 3719.7799999999997 571.8086303939963 3698.42 573.0093808630395 3677.06 575.4108818011257 3655.7 577.812382739212 3634.34 578.4127579737335 3612.98 577.5121951219512 3591.62 579.6135084427766 3570.26 579.3133208255159 3548.9 579.6135084427766 3527.54 580.5140712945591 3506.18 580.5140712945591 3484.82 583.2157598499061 3463.46 584.1163227016885 3442.1 584.7166979362102 3420.74 585.3170731707318 3399.38 586.5178236397749 3378.02 587.7185741088178 3356.66 587.7185741088178 3335.3 589.2195121951219 3313.94 589.8198874296435 3292.58 590.4202626641651 3271.22 591.3208255159475 3249.86 591.6210131332082 3228.5 592.2213883677298 3228.5 725.2045028142588Z" fill="#005aa6" opacity="0.9" />
		</g>
		<g>
			<path d="M3228.5 592.2213883677298 3249.86 591.6210131332082 3271.22 591.3208255159475 3292.58 590.4202626641651 3313.94 589.8198874296435 3335.3 589.2195121951219 3356.66 587.7185741088178 3378.02 587.7185741088178 3399.38 586.5178236397749 3420.74 585.3170731707318 3442.1 584.7166979362102 3463.46 584.1163227016885 3484.82 583.2157598499061 3506.18 580.5140712945591 3527.54 580.5140712945591 3548.9 579.6135084427766 3570.26 579.3133208255159 3591.62 579.6135084427766 3612.98 577.5121951219512 3634.34 578.4127579737335 3655.7 577.812382739212 3677.06 575.4108818011257 3698.42 573.0093808630395 3719.7799999999997 571.8086303939963 3741.14 571.8086303939963 3762.5 571.5084427767355 3783.86 570.9080675422139 3805.2200000000003 570.6078799249531 3826.58 570.0075046904316 3847.94 570.0075046904316 3869.3 568.8067542213884 3890.66 568.2063789868668 3912.02 567.3058161350843 3933.38 567.3058161350843 3954.74 566.7054409005627 3976.1 564.9043151969981 3997.46 564.6041275797372 4018.8199999999997 563.4033771106942 4040.18 558.9005628517824 4061.54 558.3001876172608 4082.9 558.3001876172608 4104.26 557.9999999999999 4125.62 557.0994371482176 4146.98 554.9981238273921 4168.34 554.0975609756097 4189.7 553.797373358349 4211.0599999999995 553.4971857410882 4232.42 552.5966228893058 4253.78 553.4971857410882 4275.139999999999 551.3958724202625 4296.5 551.0956848030019 4296.5 493.75984990619133 4275.139999999999 494.060037523452 4253.78 496.46153846153845 4232.42 495.56097560975604 4211.0599999999995 496.46153846153845 4189.7 496.76172607879926 4168.34 497.06191369605995 4146.98 498.5628517823639 4125.62 501.56472795497183 4104.26 502.4652908067541 4082.9 502.76547842401504 4061.54 502.76547842401504 4040.18 503.6660412757974 4018.8199999999997 509.06941838649163 3997.46 510.57035647279537 3976.1 510.8705440900563 3954.74 512.6716697936209 3933.38 513.2720450281425 3912.02 513.2720450281425 3890.66 515.0731707317073 3869.3 515.9737335834897 3847.94 517.4746716697937 3826.58 518.0750469043153 3805.2200000000003 518.6754221388368 3783.86 518.9756097560976 3762.5 519.5759849906192 3741.14 519.87617260788 3719.7799999999997 519.87617260788 3698.42 521.377110694184 3677.06 524.0787992495309 3655.7 526.4803001876172 3634.34 527.6810506566603 3612.98 526.780487804878 3591.62 528.8818011257034 3570.26 528.5816135084427 3548.9 528.8818011257034 3527.54 530.0825515947467 3506.18 530.0825515947467 3484.82 533.6848030018762 3463.46 534.5853658536586 3442.1 535.1857410881802 3420.74 536.0863039399625 3399.38 537.2870544090056 3378.02 538.7879924953094 3356.66 539.388367729831 3335.3 541.1894934333958 3313.94 542.390243902439 3292.58 542.9906191369606 3271.22 543.891181988743 3249.86 544.1913696060037 3228.5 544.7917448405253 3228.5 592.2213883677298Z" fill="#f6a118" opacity="0.9" />
		</g>
		<g>
			<path d="M3228.5 544.7917448405253 3249.86 544.1913696060037 3271.22 543.891181988743 3292.58 542.9906191369606 3313.94 542.390243902439 3335.3 541.1894934333958 3356.66 539.388367729831 3378.02 538.7879924953094 3399.38 537.2870544090056 3420.74 536.0863039399625 3442.1 535.1857410881802 3463.46 534.5853658536586 3484.82 533.6848030018762 3506.18 530.0825515947467 3527.54 530.0825515947467 3548.9 528.8818011257034 3570.26 528.5816135084427 3591.62 528.8818011257034 3612.98 526.780487804878 3634.34 527.6810506566603 3655.7 526.4803001876172 3677.06 524.0787992495309 3698.42 521.377110694184 3719.7799999999997 519.87617260788 3741.14 519.87617260788 3762.5 519.5759849906192 3783.86 518.9756097560976 3805.2200000000003 518.6754221388368 3826.58 518.0750469043153 3847.94 517.4746716697937 3869.3 515.9737335834897 3890.66 515.0731707317073 3912.02 513.2720450281425 3933.38 513.2720450281425 3954.74 512.6716697936209 3976.1 510.8705440900563 3997.46 510.57035647279537 4018.8199999999997 509.06941838649163 4040.18 503.6660412757974 4061.54 502.76547842401504 4082.9 502.76547842401504 4104.26 502.4652908067541 4125.62 501.56472795497183 4146.98 498.5628517823639 4168.34 497.06191369605995 4189.7 496.76172607879926 4211.0599999999995 496.46153846153845 4232.42 495.56097560975604 4253.78 496.46153846153845 4275.139999999999 494.060037523452 4296.5 493.75984990619133 4296.5 437.32457786116316 4275.139999999999 437.62476547842385 4253.78 440.0262664165103 4232.42 439.12570356472787 4211.0599999999995 440.0262664165103 4189.7 440.3264540337711 4168.34 440.6266416510318 4146.98 442.12757973733574 4125.62 445.12945590994366 4104.26 446.03001876172596 4082.9 446.3302063789869 4061.54 446.3302063789869 4040.18 447.2307692307692 4018.8199999999997 452.63414634146346 3997.46 454.1350844277672 3976.1 454.4352720450281 3954.74 456.23639774859276 3933.38 456.8367729831144 3912.02 456.8367729831144 3890.66 458.6378986866791 3869.3 459.5384615384615 3847.94 461.0393996247655 3826.58 461.6397748592871 3805.2200000000003 462.2401500938086 3783.86 462.5403377110694 3762.5 463.140712945591 3741.14 463.4409005628518 3719.7799999999997 463.4409005628518 3698.42 464.94183864915584 3677.06 467.64352720450273 3655.7 470.04502814258905 3634.34 471.24577861163215 3612.98 470.34521575984985 3591.62 472.44652908067525 3570.26 472.14634146341456 3548.9 472.44652908067525 3527.54 473.6472795497186 3506.18 473.6472795497186 3484.82 477.249530956848 3463.46 478.1500938086304 3442.1 478.750469043152 3420.74 479.6510318949343 3399.38 480.8517823639774 3378.02 482.3527204502812 3356.66 482.9530956848028 3335.3 484.7542213883676 3313.94 485.95497185741084 3292.58 486.55534709193245 3271.22 487.45590994371486 3249.86 487.75609756097555 3228.5 488.35647279549715 3228.5 544.7917448405253Z" fill="#e62d39" opacity="0.9" />
		</g>
		<g>
			<path d="M3228.5 488.35647279549715 3249.86 487.75609756097555 3271.22 487.45590994371486 3292.58 486.55534709193245 3313.94 485.95497185741084 3335.3 484.7542213883676 3356.66 482.9530956848028 3378.02 482.3527204502812 3399.38 480.8517823639774 3420.74 479.6510318949343 3442.1 478.750469043152 3463.46 478.1500938086304 3484.82 477.249530956848 3506.18 473.6472795497186 3527.54 473.6472795497186 3548.9 472.44652908067525 3570.26 472.14634146341456 3591.62 472.44652908067525 3612.98 470.34521575984985 3634.34 471.24577861163215 3655.7 470.04502814258905 3677.06 467.64352720450273 3698.42 464.94183864915584 3719.7799999999997 463.4409005628518 3741.14 463.4409005628518 3762.5 463.140712945591 3783.86 462.5403377110694 3805.2200000000003 462.2401500938086 3826.58 461.6397748592871 3847.94 461.0393996247655 3869.3 459.5384615384615 3890.66 458.6378986866791 3912.02 456.8367729831144 3933.38 456.8367729831144 3954.74 456.23639774859276 3976.1 454.4352720450281 3997.46 454.1350844277672 4018.8199999999997 452.63414634146346 4040.18 447.2307692307692 4061.54 446.3302063789869 4082.9 446.3302063789869 4104.26 446.03001876172596 4125.62 445.12945590994366 4146.98 442.12757973733574 4168.34 440.6266416510318 4189.7 440.3264540337711 4211.0599999999995 440.0262664165103 4232.42 439.12570356472787 4253.78 440.0262664165103 4275.139999999999 437.62476547842385 4296.5 437.32457786116316 4296.5 410.9080675422138 4275.139999999999 411.2082551594745 4253.78 413.60975609756093 4232.42 412.7091932457785 4211.0599999999995 413.60975609756093 4189.7 413.90994371482174 4168.34 414.2101313320824 4146.98 415.7110694183864 4125.62 418.7129455909943 4104.26 419.6135084427766 4082.9 419.9136960600375 4061.54 420.2138836772983 4040.18 421.1144465290807 4018.8199999999997 426.5178236397749 3997.46 428.01876172607865 3976.1 428.31894934333957 3954.74 430.1200750469042 3933.38 430.7204502814258 3912.02 430.7204502814258 3890.66 432.52157598499053 3869.3 433.42213883677294 3847.94 434.92307692307696 3826.58 435.52345215759857 3805.2200000000003 436.12382739212006 3783.86 436.42401500938087 3762.5 437.0243902439025 3741.14 437.3245778611633 3719.7799999999997 437.3245778611633 3698.42 438.8255159474673 3677.06 441.5272045028142 3655.7 443.9287054409005 3634.34 445.1294559099436 3612.98 444.2288930581613 3591.62 446.63039399624745 3570.26 446.63039399624756 3548.9 446.93058161350825 3527.54 448.1313320825516 3506.18 448.1313320825516 3484.82 451.733583489681 3463.46 452.6341463414634 3442.1 453.234521575985 3420.74 454.1350844277673 3399.38 455.6360225140712 3378.02 457.136960600375 3356.66 457.7373358348966 3335.3 459.53846153846143 3313.94 460.73921200750465 3292.58 461.33958724202625 3271.22 462.24015009380867 3249.86 462.54033771106936 3228.5 463.14071294559096 3228.5 488.35647279549715Z" fill="#fdd5a4" opacity="0.9" />
		</g>
		<g>
			<path d="M3228.5 463.14071294559096 3249.86 462.54033771106936 3271.22 462.24015009380867 3292.58 461.33958724202625 3313.94 460.73921200750465 3335.3 459.53846153846143 3356.66 457.7373358348966 3378.02 457.136960600375 3399.38 455.6360225140712 3420.74 454.1350844277673 3442.1 453.234521575985 3463.46 452.6341463414634 3484.82 451.733583489681 3506.18 448.1313320825516 3527.54 448.1313320825516 3548.9 446.93058161350825 3570.26 446.63039399624756 3591.62 446.63039399624745 3612.98 444.2288930581613 3634.34 445.1294559099436 3655.7 443.9287054409005 3677.06 441.5272045028142 3698.42 438.8255159474673 3719.7799999999997 437.3245778611633 3741.14 437.3245778611633 3762.5 437.0243902439025 3783.86 436.42401500938087 3805.2200000000003 436.12382739212006 3826.58 435.52345215759857 3847.94 434.92307692307696 3869.3 433.42213883677294 3890.66 432.52157598499053 3912.02 430.7204502814258 3933.38 430.7204502814258 3954.74 430.1200750469042 3976.1 428.31894934333957 3997.46 428.01876172607865 4018.8199999999997 426.5178236397749 4040.18 421.1144465290807 4061.54 420.2138836772983 4082.9 419.9136960600375 4104.26 419.6135084427766 4125.62 418.7129455909943 4146.98 415.7110694183864 4168.34 414.2101313320824 4189.7 413.90994371482174 4211.0599999999995 413.60975609756093 4232.42 412.7091932457785 4253.78 413.60975609756093 4275.139999999999 411.2082551594745 4296.5 410.9080675422138 4296.5 397.99999999999994 4275.139999999999 398.30018761726063 4253.78 400.70168855534706 4232.42 399.80112570356465 4211.0599999999995 400.70168855534706 4189.7 401.00187617260787 4168.34 401.30206378986855 4146.98 402.8030018761725 4125.62 405.80487804878044 4104.26 406.70544090056273 4082.9 407.00562851782365 4061.54 407.30581613508446 4040.18 408.2063789868668 4018.8199999999997 413.60975609756105 3997.46 415.1106941838648 3976.1 415.4108818011257 3954.74 417.21200750469035 3933.38 417.81238273921196 3912.02 417.81238273921196 3890.66 419.61350844277666 3869.3 420.5140712945591 3847.94 422.0150093808631 3826.58 422.6153846153847 3805.2200000000003 423.2157598499062 3783.86 423.515947467167 3762.5 424.1163227016886 3741.14 424.4165103189494 3719.7799999999997 424.4165103189494 3698.42 425.9174484052534 3677.06 428.6191369606003 3655.7 431.02063789868663 3634.34 432.22138836772973 3612.98 431.32082551594743 3591.62 433.7223264540336 3570.26 433.7223264540337 3548.9 434.0225140712944 3527.54 435.2232645403377 3506.18 435.2232645403377 3484.82 438.8255159474671 3463.46 439.72607879924954 3442.1 440.32645403377114 3420.74 441.22701688555344 3399.38 442.72795497185734 3378.02 444.22889305816113 3356.66 444.82926829268274 3335.3 446.63039399624756 3313.94 447.8311444652908 3292.58 448.4315196998124 3271.22 449.3320825515948 3249.86 449.6322701688555 3228.5 450.2326454033771 3228.5 463.14071294559096Z" fill="#55c0e9" opacity="0.9" />
		</g>
		<g>
			<rect x="4372" y="431" width="22.9995" height="23" fill="#f48c7d" />
		</g>
		<g>
			<text fill="#595959" font-family="Verdana,Open Sans,DejaVu Sans,sans-serif" font-weight="400" font-size="41" transform="matrix(1 0 0 1 4404.56 454)">Other</text>
		</g>
		<g>
			<rect x="4372" y="508" width="22.9995" height="23" fill="#005aa6" />
		</g>
		<g>
			<text fill="#595959" font-family="Verdana,Open Sans,DejaVu Sans,sans-serif" font-weight="400" font-size="41" transform="matrix(1 0 0 1 4404.56 531)">iOS</text>
		</g>
		<g>
			<rect x="4372" y="585" width="22.9995" height="23" fill="#f6a118" />
		</g>
		<g>
			<text fill="#595959" font-family="Verdana,Open Sans,DejaVu Sans,sans-serif" font-weight="400" font-size="41" transform="matrix(1 0 0 1 4404.56 608)">macOS</text>
		</g>
		<g>
			<rect x="4372" y="662" width="22.9995" height="23" fill="#e62d39" />
		</g>
		<g>
			<text fill="#595959" font-family="Verdana,Open Sans,DejaVu Sans,sans-serif" font-weight="400" font-size="41" transform="matrix(1 0 0 1 4404.56 685)">Android</text>
		</g>
		<g>
			<rect x="4372" y="739" width="22.9995" height="23" fill="#fdd5a4" />
		</g>
		<g>
			<text fill="#595959" font-family="Verdana,Open Sans,DejaVu Sans,sans-serif" font-weight="400" font-size="41" transform="matrix(1 0 0 1 4404.56 762)">Linux</text>
		</g>
		<g>
			<rect x="4372" y="816" width="22.9995" height="23" fill="#55c0e9" />
		</g>
		<g>
			<text fill="#595959" font-family="Verdana,Open Sans,DejaVu Sans,sans-serif" font-weight="400" font-size="41" transform="matrix(1 0 0 1 4404.56 839)">Windows</text>
		</g>
	</g>
</svg>
