<svg width="1763" height="1046"
    xmlns="http://www.w3.org/2000/svg"
	xmlns:xlink="http://www.w3.org/1999/xlink" xml:space="preserve" overflow="hidden">
	<defs>
		<clipPath id="clip0">
			<rect x="2917" y="346" width="1763" height="1046"/>
		</clipPath>
	</defs>
	<g clip-path="url(#clip0)" transform="translate(-2917 -346)">
		<rect x="2918" y="347" width="1760" height="1043" fill="#FFFFFF" />
		<g>
			<path d="
			M3228.5 974.532 4296.5 974.532
			M3228.5 910.53 4296.5 910.53
			M3228.5 846.528 4296.5 846.528
			M3228.5 781.526 4296.5 781.526
			M3228.5 717.524 4296.5 717.524
			M3228.5 653.522 4296.5 653.522
			M3228.5 589.52 4296.5 589.52
			M3228.5 525.517 4296.5 525.517
			M3228.5 461.515 4296.5 461.515
			M3228.5 397.5 4296.5 397.5" stroke="#D9D9D9" stroke-width="3.4375" stroke-linejoin="round" stroke-miterlimit="10" fill="none" />
		</g>
		<g>
			<path d="M 1038.5 4296.5 1038.5" stroke="#D9D9D9" stroke-width="3.4375" stroke-linejoin="round" stroke-miterlimit="10" fill="none" fill-rule="evenodd" />
		</g>
		<g>
			<text fill="#595959" font-family="Verdana,sans-serif" font-weight="400" font-size="41" transform="matrix(6.12323e-17 -1 1 6.12323e-17 3244.5 1225)">06-Nov</text>
		</g>
		<g>
			<text fill="#595959" font-family="Verdana,sans-serif" font-weight="400" font-size="41" transform="matrix(6.12323e-17 -1 1 6.12323e-17 3326.653846153846 1224)">20-Nov</text>
		</g>
		<g>
			<text fill="#595959" font-family="Verdana,sans-serif" font-weight="400" font-size="41" transform="matrix(6.12323e-17 -1 1 6.12323e-17 3408.8076923076924 1223)">04-Dec</text>
		</g>
		<g>
			<text fill="#595959" font-family="Verdana,sans-serif" font-weight="400" font-size="41" transform="matrix(6.12323e-17 -1 1 6.12323e-17 3490.9615384615386 1220)">18-Dec</text>
		</g>
		<g>
			<text fill="#595959" font-family="Verdana,sans-serif" font-weight="400" font-size="41" transform="matrix(6.12323e-17 -1 1 6.12323e-17 3573.1153846153848 1210)">01-Jan</text>
		</g>
		<g>
			<text fill="#595959" font-family="Verdana,sans-serif" font-weight="400" font-size="41" transform="matrix(6.12323e-17 -1 1 6.12323e-17 3654.769230769231 1207)">15-Jan</text>
		</g>
		<g>
			<text fill="#595959" font-family="Verdana,sans-serif" font-weight="400" font-size="41" transform="matrix(6.12323e-17 -1 1 6.12323e-17 3737.423076923077 1210)">29-Jan</text>
		</g>
		<g>
			<text fill="#595959" font-family="Verdana,sans-serif" font-weight="400" font-size="41" transform="matrix(6.12323e-17 -1 1 6.12323e-17 3819.576923076923 1214)">12-Feb</text>
		</g>
		<g>
			<text fill="#595959" font-family="Verdana,sans-serif" font-weight="400" font-size="41" transform="matrix(6.12323e-17 -1 1 6.12323e-17 3901.7307692307695 1216)">26-Feb</text>
		</g>
		<g>
			<text fill="#595959" font-family="Verdana,sans-serif" font-weight="400" font-size="41" transform="matrix(6.12323e-17 -1 1 6.12323e-17 3983.3846153846152 1221)">11-Mar</text>
		</g>
		<g>
			<text fill="#595959" font-family="Verdana,sans-serif" font-weight="400" font-size="41" transform="matrix(6.12323e-17 -1 1 6.12323e-17 4066.038461538462 1223)">25-Mar</text>
		</g>
		<g>
			<text fill="#595959" font-family="Verdana,sans-serif" font-weight="400" font-size="41" transform="matrix(6.12323e-17 -1 1 6.12323e-17 4151.692307692308 1217)">08-Apr</text>
		</g>
		<g>
			<text fill="#595959" font-family="Verdana,sans-serif" font-weight="400" font-size="41" transform="matrix(6.12323e-17 -1 1 6.12323e-17 4233.846153846154 1216)">22-Apr</text>
		</g>
		<g>
			<text fill="#595959" font-family="Verdana,sans-serif" font-weight="400" font-size="41" transform="matrix(6.12323e-17 -1 1 6.12323e-17 4316 1228)">06-May</text>
		</g>
		<g>
			<text fill="#595959" font-family="Verdana,sans-serif" font-weight="400" font-size="41" transform="matrix(1 0 0 1 3167.5 1050)">0</text>
		</g>
		<g>
			<text fill="#595959" font-family="Verdana,sans-serif" font-weight="400" font-size="41" transform="matrix(1 0 0 1 3117.5 922)">371</text>
		</g>
		<g>
			<text fill="#595959" font-family="Verdana,sans-serif" font-weight="400" font-size="41" transform="matrix(1 0 0 1 3117.5 794)">741</text>
		</g>
		<g>
			<text fill="#595959" font-family="Verdana,sans-serif" font-weight="400" font-size="41" transform="matrix(1 0 0 1 3077.5 666)">1,112</text>
		</g>
		<g>
			<text fill="#595959" font-family="Verdana,sans-serif" font-weight="400" font-size="41" transform="matrix(1 0 0 1 3077.5 538)">1,482</text>
		</g>
		<g>
			<text fill="#595959" font-family="Verdana,sans-serif" font-weight="400" font-size="41" transform="matrix(1 0 0 1 3077.5 410)">1,853</text>
		</g>
		<g>
			<text fill="#595959" font-family="Verdana,sans-serif" font-weight="400" font-size="41" transform="matrix(1 0 0 1 3544.5 1321)">Week Commencing</text>
		</g>
		<g>
			<text fill="#595959" font-family="Verdana,sans-serif" font-weight="400" font-size="46" transform="matrix(6.12323e-17 -1 1 6.12323e-17 3019.73 970.75)">Number of OS Profiles</text>
		</g>
		<rect x="2918.5" y="347.5" width="1760" height="1043" stroke="#D9D9D9" stroke-width="3.4375" stroke-linejoin="round" stroke-miterlimit="10" fill="none" />
		<g>
			<path d="M3228.5 1038 3269.576923076923 1038 3310.653846153846 1038 3351.730769230769 1038 3392.8076923076924 1038 3433.8846153846152 1038 3474.9615384615386 1038 3516.0384615384614 1038 3557.1153846153848 1038 3598.1923076923076 1038 3639.269230769231 1038 3680.346153846154 1038 3721.423076923077 1038 3762.5 1038 3803.576923076923 1038 3844.653846153846 1038 3885.7307692307695 1038 3926.8076923076924 1038 3967.8846153846152 1038 4008.9615384615386 1038 4050.038461538462 1038 4091.1153846153848 1038 4132.192307692308 1038 4173.2692307692305 1038 4214.346153846154 1038 4255.423076923077 1038 4296.5 1038 4296.5 696.7587695628711 4255.423076923077 696.7587695628711 4214.346153846154 697.1041554236374 4173.2692307692305 697.4495412844037 4132.192307692308 697.4495412844037 4091.1153846153848 698.4856988667027 4050.038461538462 699.5218564490017 4008.9615384615386 700.903399892067 3967.8846153846152 701.9395574743659 3926.8076923076924 701.9395574743659 3885.7307692307695 703.3211009174312 3844.653846153846 703.3211009174312 3803.576923076923 703.3211009174312 3762.5 704.3572584997302 3721.423076923077 704.7026443604965 3680.346153846154 705.0480302212628 3639.269230769231 706.0841878035618 3598.1923076923076 706.4295736643281 3557.1153846153848 706.7749595250945 3516.0384615384614 706.7749595250945 3474.9615384615386 706.7749595250945 3433.8846153846152 706.7749595250945 3392.8076923076924 708.8472746896923 3351.730769230769 709.1926605504586 3310.653846153846 709.8834322719913 3269.576923076923 709.8834322719913 3228.5 710.574203993524 3228.5 1038Z" fill="#fdd5a4" opacity="0.9" />
		</g>
		<g>
			<path d="M3228.5 710.574203993524 3269.576923076923 709.8834322719913 3310.653846153846 709.8834322719913 3351.730769230769 709.1926605504586 3392.8076923076924 708.8472746896923 3433.8846153846152 706.7749595250945 3474.9615384615386 706.7749595250945 3516.0384615384614 706.7749595250945 3557.1153846153848 706.7749595250945 3598.1923076923076 706.4295736643281 3639.269230769231 706.0841878035618 3680.346153846154 705.0480302212628 3721.423076923077 704.7026443604965 3762.5 704.3572584997302 3803.576923076923 703.3211009174312 3844.653846153846 703.3211009174312 3885.7307692307695 703.3211009174312 3926.8076923076924 701.9395574743659 3967.8846153846152 701.9395574743659 4008.9615384615386 700.903399892067 4050.038461538462 699.5218564490017 4091.1153846153848 698.4856988667027 4132.192307692308 697.4495412844037 4173.2692307692305 697.4495412844037 4214.346153846154 697.1041554236374 4255.423076923077 696.7587695628711 4296.5 696.7587695628711 4296.5 555.4959525094441 4255.423076923077 555.4959525094441 4214.346153846154 556.1867242309768 4173.2692307692305 556.8774959525094 4132.192307692308 556.8774959525094 4091.1153846153848 558.2590393955747 4050.038461538462 560.676740420939 4008.9615384615386 562.0582838640044 3967.8846153846152 563.0944414463033 3926.8076923076924 564.4759848893685 3885.7307692307695 565.8575283324338 3844.653846153846 565.8575283324338 3803.576923076923 566.2029141932002 3762.5 567.9298434970318 3721.423076923077 568.6206152185645 3680.346153846154 569.6567728008635 3639.269230769231 571.3837021046951 3598.1923076923076 571.7290879654614 3557.1153846153848 572.0744738262277 3516.0384615384614 572.0744738262277 3474.9615384615386 573.8014031300594 3433.8846153846152 574.492174851592 3392.8076923076924 576.9098758769562 3351.730769230769 578.2914193200215 3310.653846153846 578.9821910415542 3269.576923076923 579.3275769023205 3228.5 580.7091203453858 3228.5 710.574203993524Z" fill="#e62d39" opacity="0.9" />
		</g>
		<g>
			<path d="M3228.5 580.7091203453858 3269.576923076923 579.3275769023205 3310.653846153846 578.9821910415542 3351.730769230769 578.2914193200215 3392.8076923076924 576.9098758769562 3433.8846153846152 574.492174851592 3474.9615384615386 573.8014031300594 3516.0384615384614 572.0744738262277 3557.1153846153848 572.0744738262277 3598.1923076923076 571.7290879654614 3639.269230769231 571.3837021046951 3680.346153846154 569.6567728008635 3721.423076923077 568.6206152185645 3762.5 567.9298434970318 3803.576923076923 566.2029141932002 3844.653846153846 565.8575283324338 3885.7307692307695 565.8575283324338 3926.8076923076924 564.4759848893685 3967.8846153846152 563.0944414463033 4008.9615384615386 562.0582838640044 4050.038461538462 560.676740420939 4091.1153846153848 558.2590393955747 4132.192307692308 556.8774959525094 4173.2692307692305 556.8774959525094 4214.346153846154 556.1867242309768 4255.423076923077 555.4959525094441 4296.5 555.4959525094441 4296.5 491.9449541284404 4255.423076923077 491.9449541284404 4214.346153846154 492.635725849973 4173.2692307692305 493.3264975715057 4132.192307692308 493.3264975715057 4091.1153846153848 494.708041014571 4050.038461538462 497.1257420399353 4008.9615384615386 498.5072854830006 3967.8846153846152 499.5434430652996 3926.8076923076924 500.9249865083648 3885.7307692307695 502.3065299514301 3844.653846153846 502.3065299514301 3803.576923076923 502.6519158121964 3762.5 504.37884511602806 3721.423076923077 505.0696168375607 3680.346153846154 506.1057744198597 3639.269230769231 507.83270372369134 3598.1923076923076 508.17808958445767 3557.1153846153848 508.523475445224 3516.0384615384614 508.523475445224 3474.9615384615386 510.25040474905563 3433.8846153846152 510.9411764705883 3392.8076923076924 513.3588774959525 3351.730769230769 514.7404209390178 3310.653846153846 515.4311926605504 3269.576923076923 515.7765785213168 3228.5 517.1581219643821 3228.5 580.7091203453858Z" fill="#005aa6" opacity="0.9" />
		</g>
		<g>
			<path d="M3228.5 517.1581219643821 3269.576923076923 515.7765785213168 3310.653846153846 515.4311926605504 3351.730769230769 514.7404209390178 3392.8076923076924 513.3588774959525 3433.8846153846152 510.9411764705883 3474.9615384615386 510.25040474905563 3516.0384615384614 508.523475445224 3557.1153846153848 508.523475445224 3598.1923076923076 508.17808958445767 3639.269230769231 507.83270372369134 3680.346153846154 506.1057744198597 3721.423076923077 505.0696168375607 3762.5 504.37884511602806 3803.576923076923 502.6519158121964 3844.653846153846 502.3065299514301 3885.7307692307695 502.3065299514301 3926.8076923076924 500.9249865083648 3967.8846153846152 499.5434430652996 4008.9615384615386 498.5072854830006 4050.038461538462 497.1257420399353 4091.1153846153848 494.708041014571 4132.192307692308 493.3264975715057 4173.2692307692305 493.3264975715057 4214.346153846154 492.635725849973 4255.423076923077 491.9449541284404 4296.5 491.9449541284404 4296.5 442.5547760388559 4255.423076923077 442.5547760388559 4214.346153846154 443.24554776038855 4173.2692307692305 443.9363194819212 4132.192307692308 443.9363194819212 4091.1153846153848 445.66324878575284 4050.038461538462 448.7717215326498 4008.9615384615386 450.1532649757151 3967.8846153846152 451.1894225580141 3926.8076923076924 452.5709660010793 3885.7307692307695 454.2978953049109 3844.653846153846 454.64328116567725 3803.576923076923 455.67943874797623 3762.5 457.7517539125742 3721.423076923077 458.44252563410686 3680.346153846154 459.47868321640584 3639.269230769231 461.5509983810038 3598.1923076923076 461.89638424177014 3557.1153846153848 462.24177010253646 3516.0384615384614 462.24177010253646 3474.9615384615386 465.0048569886671 3433.8846153846152 466.04101457096607 3392.8076923076924 468.45871559633025 3351.730769230769 470.1856449001619 3310.653846153846 471.2218024824609 3269.576923076923 471.91257420399353 3228.5 473.98488936859144 3228.5 517.1581219643821Z" fill="#f6a118" opacity="0.9" />
		</g>
		<g>
			<path d="M3228.5 473.98488936859144 3269.576923076923 471.91257420399353 3310.653846153846 471.2218024824609 3351.730769230769 470.1856449001619 3392.8076923076924 468.45871559633025 3433.8846153846152 466.04101457096607 3474.9615384615386 465.0048569886671 3516.0384615384614 462.24177010253646 3557.1153846153848 462.24177010253646 3598.1923076923076 461.89638424177014 3639.269230769231 461.5509983810038 3680.346153846154 459.47868321640584 3721.423076923077 458.44252563410686 3762.5 457.7517539125742 3803.576923076923 455.67943874797623 3844.653846153846 454.64328116567725 3885.7307692307695 454.2978953049109 3926.8076923076924 452.5709660010793 3967.8846153846152 451.1894225580141 4008.9615384615386 450.1532649757151 4050.038461538462 448.7717215326498 4091.1153846153848 445.66324878575284 4132.192307692308 443.9363194819212 4173.2692307692305 443.9363194819212 4214.346153846154 443.24554776038855 4255.423076923077 442.5547760388559 4296.5 442.5547760388559 4296.5 413.8877495952509 4255.423076923077 414.23313545601724 4214.346153846154 414.9239071775499 4173.2692307692305 415.61467889908255 4132.192307692308 415.61467889908255 4091.1153846153848 417.3416082029142 4050.038461538462 420.45008094981114 4008.9615384615386 421.83162439287645 3967.8846153846152 422.86778197517543 3926.8076923076924 424.24932541824063 3885.7307692307695 425.97625472207227 3844.653846153846 426.3216405828386 3803.576923076923 427.3577981651376 3762.5 429.43011332973555 3721.423076923077 430.1208850512682 3680.346153846154 431.1570426335672 3639.269230769231 433.22935779816515 3598.1923076923076 433.5747436589315 3557.1153846153848 433.9201295196978 3516.0384615384614 433.9201295196978 3474.9615384615386 436.68321640582843 3433.8846153846152 437.7193739881274 3392.8076923076924 440.1370750134916 3351.730769230769 441.86400431732324 3310.653846153846 442.9001618996222 3269.576923076923 443.5909336211549 3228.5 445.6632487857528 3228.5 473.98488936859144Z" fill="#f48c7d" opacity="0.9" />
		</g>
		<g>
			<path d="M3228.5 445.6632487857528 3269.576923076923 443.5909336211549 3310.653846153846 442.9001618996222 3351.730769230769 441.86400431732324 3392.8076923076924 440.1370750134916 3433.8846153846152 437.7193739881274 3474.9615384615386 436.68321640582843 3516.0384615384614 433.9201295196978 3557.1153846153848 433.9201295196978 3598.1923076923076 433.5747436589315 3639.269230769231 433.22935779816515 3680.346153846154 431.1570426335672 3721.423076923077 430.1208850512682 3762.5 429.43011332973555 3803.576923076923 427.3577981651376 3844.653846153846 426.3216405828386 3885.7307692307695 425.97625472207227 3926.8076923076924 424.24932541824063 3967.8846153846152 422.86778197517543 4008.9615384615386 421.83162439287645 4050.038461538462 420.45008094981114 4091.1153846153848 417.3416082029142 4132.192307692308 415.61467889908255 4173.2692307692305 415.61467889908255 4214.346153846154 414.9239071775499 4255.423076923077 414.23313545601724 4296.5 413.8877495952509 4296.5 397.99999999999994 4255.423076923077 398.34538586076627 4214.346153846154 399.0361575822989 4173.2692307692305 399.7269293038316 4132.192307692308 399.7269293038316 4091.1153846153848 401.4538586076632 4050.038461538462 404.5623313545602 4008.9615384615386 405.9438747976255 3967.8846153846152 406.98003237992447 3926.8076923076924 408.36157582298966 3885.7307692307695 410.0885051268213 3844.653846153846 410.43389098758763 3803.576923076923 411.4700485698866 3762.5 413.5423637344846 3721.423076923077 414.23313545601724 3680.346153846154 415.2692930383162 3639.269230769231 417.3416082029142 3598.1923076923076 417.6869940636805 3557.1153846153848 418.03237992444684 3516.0384615384614 418.03237992444684 3474.9615384615386 420.79546681057747 3433.8846153846152 421.83162439287645 3392.8076923076924 424.24932541824063 3351.730769230769 425.97625472207227 3310.653846153846 427.01241230437125 3269.576923076923 427.7031840259039 3228.5 429.7754991905018 3228.5 445.6632487857528Z" fill="#55c0e9" opacity="0.9" />
		</g>
		<g>
			<rect x="4372" y="431" width="22.9995" height="23" fill="#fdd5a4" />
		</g>
		<g>
			<text fill="#595959" font-family="Verdana,sans-serif" font-weight="400" font-size="41" transform="matrix(1 0 0 1 4404.56 454)">Other</text>
		</g>
		<g>
			<rect x="4372" y="508" width="22.9995" height="23" fill="#e62d39" />
		</g>
		<g>
			<text fill="#595959" font-family="Verdana,sans-serif" font-weight="400" font-size="41" transform="matrix(1 0 0 1 4404.56 531)">iOS</text>
		</g>
		<g>
			<rect x="4372" y="585" width="22.9995" height="23" fill="#005aa6" />
		</g>
		<g>
			<text fill="#595959" font-family="Verdana,sans-serif" font-weight="400" font-size="41" transform="matrix(1 0 0 1 4404.56 608)">Android</text>
		</g>
		<g>
			<rect x="4372" y="662" width="22.9995" height="23" fill="#f6a118" />
		</g>
		<g>
			<text fill="#595959" font-family="Verdana,sans-serif" font-weight="400" font-size="41" transform="matrix(1 0 0 1 4404.56 685)">macOS</text>
		</g>
		<g>
			<rect x="4372" y="739" width="22.9995" height="23" fill="#f48c7d" />
		</g>
		<g>
			<text fill="#595959" font-family="Verdana,sans-serif" font-weight="400" font-size="41" transform="matrix(1 0 0 1 4404.56 762)">Linux</text>
		</g>
		<g>
			<rect x="4372" y="816" width="22.9995" height="23" fill="#55c0e9" />
		</g>
		<g>
			<text fill="#595959" font-family="Verdana,sans-serif" font-weight="400" font-size="41" transform="matrix(1 0 0 1 4404.56 839)">Windows</text>
		</g>
	</g>
</svg>
