<svg width="1763" height="1046"
    xmlns="http://www.w3.org/2000/svg"
	xmlns:xlink="http://www.w3.org/1999/xlink" xml:space="preserve" overflow="hidden">
	<defs>
		<clipPath id="clip0">
			<rect x="2917" y="346" width="1763" height="1046"/>
		</clipPath>
	</defs>
	<g clip-path="url(#clip0)" transform="translate(-2917 -346)">
		<rect x="2918" y="347" width="1760" height="1043" fill="#FFFFFF" />
		<g>
			<path d="
			M3228.5 974.532 4296.5 974.532
			M3228.5 910.53 4296.5 910.53
			M3228.5 846.528 4296.5 846.528
			M3228.5 781.526 4296.5 781.526
			M3228.5 717.524 4296.5 717.524
			M3228.5 653.522 4296.5 653.522
			M3228.5 589.52 4296.5 589.52
			M3228.5 525.517 4296.5 525.517
			M3228.5 461.515 4296.5 461.515
			M3228.5 397.5 4296.5 397.5" stroke="#D9D9D9" stroke-width="3.4375" stroke-linejoin="round" stroke-miterlimit="10" fill="none" />
		</g>
		<g>
			<path d="M 1038.5 4296.5 1038.5" stroke="#D9D9D9" stroke-width="3.4375" stroke-linejoin="round" stroke-miterlimit="10" fill="none" fill-rule="evenodd" />
		</g>
		<g>
			<text fill="#595959" font-family="Verdana,Open Sans,DejaVu Sans,sans-serif" font-weight="400" font-size="41" transform="matrix(6.12323e-17 -1 1 6.12323e-17 3248.269287109375 1206.90576171875)">19-Aug</text>
		</g>
		<g>
			<text fill="#595959" font-family="Verdana,Open Sans,DejaVu Sans,sans-serif" font-weight="400" font-size="41" transform="matrix(6.12323e-17 -1 1 6.12323e-17 3335.452960578763 1202.66162109375)">16-Sep</text>
		</g>
		<g>
			<text fill="#595959" font-family="Verdana,Open Sans,DejaVu Sans,sans-serif" font-weight="400" font-size="41" transform="matrix(6.12323e-17 -1 1 6.12323e-17 3417.9320442044004 1199.3784103393555)">14-Oct</text>
		</g>
		<g>
			<text fill="#595959" font-family="Verdana,Open Sans,DejaVu Sans,sans-serif" font-weight="400" font-size="41" transform="matrix(6.12323e-17 -1 1 6.12323e-17 3504.8854930644134 1209.70849609375)">11-Nov</text>
		</g>
		<g>
			<text fill="#595959" font-family="Verdana,Open Sans,DejaVu Sans,sans-serif" font-weight="400" font-size="41" transform="matrix(6.12323e-17 -1 1 6.12323e-17 3592.279371611926 1205.3642578125)">16-Dec</text>
		</g>
		<g>
			<text fill="#595959" font-family="Verdana,Open Sans,DejaVu Sans,sans-serif" font-weight="400" font-size="41" transform="matrix(6.12323e-17 -1 1 6.12323e-17 3683.116609534439 1189.9291915893555)">13-Jan</text>
		</g>
		<g>
			<text fill="#595959" font-family="Verdana,Open Sans,DejaVu Sans,sans-serif" font-weight="400" font-size="41" transform="matrix(6.12323e-17 -1 1 6.12323e-17 3767.3774314413267 1201.3203125)">10-Feb</text>
		</g>
		<g>
			<text fill="#595959" font-family="Verdana,Open Sans,DejaVu Sans,sans-serif" font-weight="400" font-size="41" transform="matrix(6.12323e-17 -1 1 6.12323e-17 3853.850411551339 1210.2890625)">10-Mar</text>
		</g>
		<g>
			<text fill="#595959" font-family="Verdana,Open Sans,DejaVu Sans,sans-serif" font-weight="400" font-size="41" transform="matrix(6.12323e-17 -1 1 6.12323e-17 3945.758694395727 1203.2621994018555)">07-Apr</text>
		</g>
		<g>
			<text fill="#595959" font-family="Verdana,Open Sans,DejaVu Sans,sans-serif" font-weight="400" font-size="41" transform="matrix(6.12323e-17 -1 1 6.12323e-17 4032.9423678651146 1216.47509765625)">05-May</text>
		</g>
		<g>
			<text fill="#595959" font-family="Verdana,Open Sans,DejaVu Sans,sans-serif" font-weight="400" font-size="41" transform="matrix(6.12323e-17 -1 1 6.12323e-17 4119.054996412628 1194.0131759643555)">09-Jun</text>
		</g>
		<g>
			<text fill="#595959" font-family="Verdana,Open Sans,DejaVu Sans,sans-serif" font-weight="400" font-size="41" transform="matrix(6.12323e-17 -1 1 6.12323e-17 4206.9493632413905 1178.9985275268555)">07-Jul</text>
		</g>
		<g>
			<text fill="#595959" font-family="Verdana,Open Sans,DejaVu Sans,sans-serif" font-weight="400" font-size="41" transform="matrix(6.12323e-17 -1 1 6.12323e-17 4294.4933882732785 1208.62744140625)">04-Aug</text>
		</g>
		<g>
			<text fill="#595959" font-family="Verdana,Open Sans,DejaVu Sans,sans-serif" font-weight="400" font-size="41" transform="matrix(1 0 0 1 3169.14111328125 1050)">0</text>
		</g>
		<g>
			<text fill="#595959" font-family="Verdana,Open Sans,DejaVu Sans,sans-serif" font-weight="400" font-size="41" transform="matrix(1 0 0 1 3128.1611366271973 922)">411</text>
		</g>
		<g>
			<text fill="#595959" font-family="Verdana,Open Sans,DejaVu Sans,sans-serif" font-weight="400" font-size="41" transform="matrix(1 0 0 1 3122.65576171875 794)">823</text>
		</g>
		<g>
			<text fill="#595959" font-family="Verdana,Open Sans,DejaVu Sans,sans-serif" font-weight="400" font-size="41" transform="matrix(1 0 0 1 3089.26318359375 666)">1,234</text>
		</g>
		<g>
			<text fill="#595959" font-family="Verdana,Open Sans,DejaVu Sans,sans-serif" font-weight="400" font-size="41" transform="matrix(1 0 0 1 3090.4443359375 538)">1,646</text>
		</g>
		<g>
			<text fill="#595959" font-family="Verdana,Open Sans,DejaVu Sans,sans-serif" font-weight="400" font-size="41" transform="matrix(1 0 0 1 3088.7626953125 410)">2,057</text>
		</g>
		<g>
			<text fill="#595959" font-family="Verdana,Open Sans,DejaVu Sans,sans-serif" font-weight="400" font-size="41" transform="matrix(1 0 0 1 3556.97119140625 1321)">Week Commencing</text>
		</g>
		<g>
			<text fill="#595959" font-family="Verdana,Open Sans,DejaVu Sans,sans-serif" font-weight="400" font-size="46" transform="matrix(6.12323e-17 -1 1 6.12323e-17 3019.73 953.7919921875)">Number of OS Profiles</text>
		</g>
		<rect x="2918.5" y="347.5" width="1760" height="1043" stroke="#D9D9D9" stroke-width="3.4375" stroke-linejoin="round" stroke-miterlimit="10" fill="none" />
		<g>
			<path d="M3228.5 1038 3250.295918367347 1038 3272.091836734694 1038 3293.887755102041 1038 3315.683673469388 1038 3337.4795918367345 1038 3359.2755102040815 1038 3381.0714285714284 1038 3402.8673469387754 1038 3424.6632653061224 1038 3446.4591836734694 1038 3468.2551020408164 1038 3490.0510204081634 1038 3511.8469387755104 1038 3533.6428571428573 1038 3555.4387755102043 1038 3577.234693877551 1038 3599.030612244898 1038 3620.826530612245 1038 3642.622448979592 1038 3664.418367346939 1038 3686.214285714286 1038 3708.0102040816328 1038 3729.8061224489797 1038 3751.6020408163267 1038 3773.3979591836733 1038 3795.1938775510203 1038 3816.9897959183672 1038 3838.785714285714 1038 3860.581632653061 1038 3882.377551020408 1038 3904.173469387755 1038 3925.969387755102 1038 3947.765306122449 1038 3969.5612244897957 1038 3991.357142857143 1038 4013.1530612244896 1038 4034.9489795918366 1038 4056.7448979591836 1038 4078.5408163265306 1038 4100.336734693878 1038 4122.132653061224 1038 4143.928571428572 1038 4165.724489795918 1038 4187.5204081632655 1038 4209.316326530612 1038 4231.1122448979595 1038 4252.908163265306 1038 4274.7040816326535 1038 4296.5 1038 4296.5 699.4876033057851 4274.7040816326535 700.4210014584346 4252.908163265306 700.4210014584346 4231.1122448979595 700.7321341759844 4209.316326530612 701.0432668935343 4187.5204081632655 701.665532328634 4165.724489795918 701.9766650461838 4143.928571428572 701.9766650461838 4122.132653061224 702.5989304812834 4100.336734693878 704.1545940690326 4078.5408163265306 706.3325230918814 4056.7448979591836 706.3325230918814 4034.9489795918366 706.3325230918814 4013.1530612244896 706.6436558094313 3991.357142857143 706.3325230918814 3969.5612244897957 706.6436558094313 3947.765306122449 706.954788526981 3925.969387755102 706.954788526981 3904.173469387755 707.8881866796305 3882.377551020408 708.5104521147302 3860.581632653061 709.1327175498299 3838.785714285714 709.1327175498299 3816.9897959183672 710.3772484200292 3795.1938775510203 710.9995138551288 3773.3979591836733 710.9995138551288 3751.6020408163267 711.6217792902285 3729.8061224489797 712.2440447253282 3708.0102040816328 712.8663101604278 3686.214285714286 713.4885755955274 3664.418367346939 713.7997083130773 3642.622448979592 713.7997083130773 3620.826530612245 713.7997083130773 3599.030612244898 713.7997083130773 3577.234693877551 714.4219737481769 3555.4387755102043 714.4219737481769 3533.6428571428573 715.0442391832767 3511.8469387755104 715.6665046183763 3490.0510204081634 715.9776373359261 3468.2551020408164 716.2887700534759 3446.4591836734694 716.2887700534759 3424.6632653061224 716.5999027710258 3402.8673469387754 716.5999027710258 3381.0714285714284 718.1555663587749 3359.2755102040815 718.4666990763247 3337.4795918367345 719.4000972289742 3315.683673469388 719.7112299465241 3293.887755102041 720.6446280991736 3272.091836734694 721.2668935342732 3250.295918367347 721.2668935342732 3228.5 721.5780262518231 3228.5 1038Z" fill="#f48c7d" opacity="0.9" />
		</g>
		<g>
			<path d="M3228.5 721.5780262518231 3250.295918367347 721.2668935342732 3272.091836734694 721.2668935342732 3293.887755102041 720.6446280991736 3315.683673469388 719.7112299465241 3337.4795918367345 719.4000972289742 3359.2755102040815 718.4666990763247 3381.0714285714284 718.1555663587749 3402.8673469387754 716.5999027710258 3424.6632653061224 716.5999027710258 3446.4591836734694 716.2887700534759 3468.2551020408164 716.2887700534759 3490.0510204081634 715.9776373359261 3511.8469387755104 715.6665046183763 3533.6428571428573 715.0442391832767 3555.4387755102043 714.4219737481769 3577.234693877551 714.4219737481769 3599.030612244898 713.7997083130773 3620.826530612245 713.7997083130773 3642.622448979592 713.7997083130773 3664.418367346939 713.7997083130773 3686.214285714286 713.4885755955274 3708.0102040816328 712.8663101604278 3729.8061224489797 712.2440447253282 3751.6020408163267 711.6217792902285 3773.3979591836733 710.9995138551288 3795.1938775510203 710.9995138551288 3816.9897959183672 710.3772484200292 3838.785714285714 709.1327175498299 3860.581632653061 709.1327175498299 3882.377551020408 708.5104521147302 3904.173469387755 707.8881866796305 3925.969387755102 706.954788526981 3947.765306122449 706.954788526981 3969.5612244897957 706.6436558094313 3991.357142857143 706.3325230918814 4013.1530612244896 706.6436558094313 4034.9489795918366 706.3325230918814 4056.7448979591836 706.3325230918814 4078.5408163265306 706.3325230918814 4100.336734693878 704.1545940690326 4122.132653061224 702.5989304812834 4143.928571428572 701.9766650461838 4165.724489795918 701.9766650461838 4187.5204081632655 701.665532328634 4209.316326530612 701.0432668935343 4231.1122448979595 700.7321341759844 4252.908163265306 700.4210014584346 4274.7040816326535 700.4210014584346 4296.5 699.4876033057851 4296.5 551.6995624696159 4274.7040816326535 552.9440933398153 4252.908163265306 552.9440933398153 4231.1122448979595 553.5663587749149 4209.316326530612 553.8774914924649 4187.5204081632655 554.4997569275645 4165.724489795918 554.8108896451143 4143.928571428572 554.8108896451143 4122.132653061224 556.0554205153136 4100.336734693878 558.5444822557122 4078.5408163265306 561.0335439961109 4056.7448979591836 561.6558094312105 4034.9489795918366 560.722411278561 4013.1530612244896 562.9003403014099 3991.357142857143 562.58920758386 3969.5612244897957 562.9003403014099 3947.765306122449 563.8337384540594 3925.969387755102 563.8337384540594 3904.173469387755 566.6339329120078 3882.377551020408 567.5673310646573 3860.581632653061 568.1895964997569 3838.785714285714 568.8118619348566 3816.9897959183672 570.056392805056 3795.1938775510203 571.3009236752553 3773.3979591836733 571.3009236752553 3751.6020408163267 572.8565872630044 3729.8061224489797 573.4788526981041 3708.0102040816328 574.1011181332037 3686.214285714286 575.0345162858532 3664.418367346939 575.345649003403 3642.622448979592 575.9679144385027 3620.826530612245 575.9679144385027 3599.030612244898 575.9679144385027 3577.234693877551 577.212445308702 3555.4387755102043 577.5235780262518 3533.6428571428573 578.1458434613515 3511.8469387755104 580.0126397666504 3490.0510204081634 580.3237724842004 3468.2551020408164 580.6349052017501 3446.4591836734694 581.5683033543996 3424.6632653061224 582.5017015070491 3402.8673469387754 582.5017015070491 3381.0714285714284 584.0573650947982 3359.2755102040815 584.9907632474477 3337.4795918367345 585.9241614000972 3315.683673469388 586.2352941176471 3293.887755102041 587.7909577053963 3272.091836734694 588.4132231404958 3250.295918367347 588.4132231404958 3228.5 588.7243558580458 3228.5 721.5780262518231Z" fill="#005aa6" opacity="0.9" />
		</g>
		<g>
			<path d="M3228.5 588.7243558580458 3250.295918367347 588.4132231404958 3272.091836734694 588.4132231404958 3293.887755102041 587.7909577053963 3315.683673469388 586.2352941176471 3337.4795918367345 585.9241614000972 3359.2755102040815 584.9907632474477 3381.0714285714284 584.0573650947982 3402.8673469387754 582.5017015070491 3424.6632653061224 582.5017015070491 3446.4591836734694 581.5683033543996 3468.2551020408164 580.6349052017501 3490.0510204081634 580.3237724842004 3511.8469387755104 580.0126397666504 3533.6428571428573 578.1458434613515 3555.4387755102043 577.5235780262518 3577.234693877551 577.212445308702 3599.030612244898 575.9679144385027 3620.826530612245 575.9679144385027 3642.622448979592 575.9679144385027 3664.418367346939 575.345649003403 3686.214285714286 575.0345162858532 3708.0102040816328 574.1011181332037 3729.8061224489797 573.4788526981041 3751.6020408163267 572.8565872630044 3773.3979591836733 571.3009236752553 3795.1938775510203 571.3009236752553 3816.9897959183672 570.056392805056 3838.785714285714 568.8118619348566 3860.581632653061 568.1895964997569 3882.377551020408 567.5673310646573 3904.173469387755 566.6339329120078 3925.969387755102 563.8337384540594 3947.765306122449 563.8337384540594 3969.5612244897957 562.9003403014099 3991.357142857143 562.58920758386 4013.1530612244896 562.9003403014099 4034.9489795918366 560.722411278561 4056.7448979591836 561.6558094312105 4078.5408163265306 561.0335439961109 4100.336734693878 558.5444822557122 4122.132653061224 556.0554205153136 4143.928571428572 554.8108896451143 4165.724489795918 554.8108896451143 4187.5204081632655 554.4997569275645 4209.316326530612 553.8774914924649 4231.1122448979595 553.5663587749149 4252.908163265306 552.9440933398153 4274.7040816326535 552.9440933398153 4296.5 551.6995624696159 4296.5 493.2066115702479 4274.7040816326535 494.45114244044726 4252.908163265306 494.45114244044726 4231.1122448979595 495.0734078755469 4209.316326530612 495.38454059309686 4187.5204081632655 496.0068060281965 4165.724489795918 496.31793874574635 4143.928571428572 496.31793874574635 4122.132653061224 497.5624696159456 4100.336734693878 500.0515313563442 4078.5408163265306 502.5405930967429 4056.7448979591836 503.1628585318425 4034.9489795918366 502.22946037919303 4013.1530612244896 504.4073894020419 3991.357142857143 504.096256684492 3969.5612244897957 504.4073894020419 3947.765306122449 505.34078755469136 3925.969387755102 505.34078755469136 3904.173469387755 508.1409820126398 3882.377551020408 509.0743801652893 3860.581632653061 509.69664560038893 3838.785714285714 510.31891103548855 3816.9897959183672 511.563441905688 3795.1938775510203 512.8079727758873 3773.3979591836733 512.8079727758873 3751.6020408163267 514.3636363636364 3729.8061224489797 514.9859017987361 3708.0102040816328 515.6081672338357 3686.214285714286 516.5415653864852 3664.418367346939 516.852698104035 3642.622448979592 517.4749635391347 3620.826530612245 517.4749635391347 3599.030612244898 517.4749635391347 3577.234693877551 518.719494409334 3555.4387755102043 519.0306271268838 3533.6428571428573 519.6528925619835 3511.8469387755104 521.8308215848323 3490.0510204081634 522.1419543023823 3468.2551020408164 522.453087019932 3446.4591836734694 523.3864851725815 3424.6632653061224 524.319883325231 3402.8673469387754 524.319883325231 3381.0714285714284 525.8755469129801 3359.2755102040815 526.8089450656296 3337.4795918367345 527.7423432182791 3315.683673469388 528.0534759358289 3293.887755102041 529.6091395235782 3272.091836734694 530.2314049586777 3250.295918367347 530.2314049586777 3228.5 530.5425376762277 3228.5 588.7243558580458Z" fill="#e62d39" opacity="0.9" />
		</g>
		<g>
			<path d="M3228.5 530.5425376762277 3250.295918367347 530.2314049586777 3272.091836734694 530.2314049586777 3293.887755102041 529.6091395235782 3315.683673469388 528.0534759358289 3337.4795918367345 527.7423432182791 3359.2755102040815 526.8089450656296 3381.0714285714284 525.8755469129801 3402.8673469387754 524.319883325231 3424.6632653061224 524.319883325231 3446.4591836734694 523.3864851725815 3468.2551020408164 522.453087019932 3490.0510204081634 522.1419543023823 3511.8469387755104 521.8308215848323 3533.6428571428573 519.6528925619835 3555.4387755102043 519.0306271268838 3577.234693877551 518.719494409334 3599.030612244898 517.4749635391347 3620.826530612245 517.4749635391347 3642.622448979592 517.4749635391347 3664.418367346939 516.852698104035 3686.214285714286 516.5415653864852 3708.0102040816328 515.6081672338357 3729.8061224489797 514.9859017987361 3751.6020408163267 514.3636363636364 3773.3979591836733 512.8079727758873 3795.1938775510203 512.8079727758873 3816.9897959183672 511.563441905688 3838.785714285714 510.31891103548855 3860.581632653061 509.69664560038893 3882.377551020408 509.0743801652893 3904.173469387755 508.1409820126398 3925.969387755102 505.34078755469136 3947.765306122449 505.34078755469136 3969.5612244897957 504.4073894020419 3991.357142857143 504.096256684492 4013.1530612244896 504.4073894020419 4034.9489795918366 502.22946037919303 4056.7448979591836 503.1628585318425 4078.5408163265306 502.5405930967429 4100.336734693878 500.0515313563442 4122.132653061224 497.5624696159456 4143.928571428572 496.31793874574635 4165.724489795918 496.31793874574635 4187.5204081632655 496.0068060281965 4209.316326530612 495.38454059309686 4231.1122448979595 495.0734078755469 4252.908163265306 494.45114244044726 4274.7040816326535 494.45114244044726 4296.5 493.2066115702479 4296.5 438.44725328147786 4274.7040816326535 440.002916869227 4252.908163265306 440.6251823043267 4231.1122448979595 441.2474477394263 4209.316326530612 441.5585804569763 4187.5204081632655 442.1808458920759 4165.724489795918 442.4919786096258 4143.928571428572 442.4919786096258 4122.132653061224 444.04764219737484 4100.336734693878 446.84783665532325 4078.5408163265306 449.33689839572196 4056.7448979591836 450.58142926592126 4034.9489795918366 449.64803111327177 4013.1530612244896 451.8259601361206 3991.357142857143 451.51482741857075 3969.5612244897957 451.8259601361206 3947.765306122449 453.07049100631997 3925.969387755102 453.07049100631997 3904.173469387755 456.8040836169179 3882.377551020408 457.7374817695674 3860.581632653061 458.35974720466703 3838.785714285714 459.29314535731646 3816.9897959183672 460.53767622751593 3795.1938775510203 462.093339815265 3773.3979591836733 462.71560525036466 3751.6020408163267 464.5824015556636 3729.8061224489797 465.826932425863 3708.0102040816328 466.4491978609626 3686.214285714286 467.3825960136121 3664.418367346939 467.69372873116185 3642.622448979592 468.3159941662616 3620.826530612245 468.3159941662616 3599.030612244898 468.3159941662616 3577.234693877551 470.4939231891103 3555.4387755102043 470.8050559066602 3533.6428571428573 471.4273213417599 3511.8469387755104 473.91638308215846 3490.0510204081634 473.91638308215863 3468.2551020408164 474.2275157997084 3446.4591836734694 475.4720466699077 3424.6632653061224 476.71657754010704 3402.8673469387754 477.02771025765685 3381.0714285714284 478.89450656295577 3359.2755102040815 479.82790471560526 3337.4795918367345 480.76130286825475 3315.683673469388 481.3835683033545 3293.887755102041 482.9392318911037 3272.091836734694 483.5614973262032 3250.295918367347 483.5614973262032 3228.5 483.8726300437532 3228.5 530.5425376762277Z" fill="#f6a118" opacity="0.9" />
		</g>
		<g>
			<path d="M3228.5 483.8726300437532 3250.295918367347 483.5614973262032 3272.091836734694 483.5614973262032 3293.887755102041 482.9392318911037 3315.683673469388 481.3835683033545 3337.4795918367345 480.76130286825475 3359.2755102040815 479.82790471560526 3381.0714285714284 478.89450656295577 3402.8673469387754 477.02771025765685 3424.6632653061224 476.71657754010704 3446.4591836734694 475.4720466699077 3468.2551020408164 474.2275157997084 3490.0510204081634 473.91638308215863 3511.8469387755104 473.91638308215846 3533.6428571428573 471.4273213417599 3555.4387755102043 470.8050559066602 3577.234693877551 470.4939231891103 3599.030612244898 468.3159941662616 3620.826530612245 468.3159941662616 3642.622448979592 468.3159941662616 3664.418367346939 467.69372873116185 3686.214285714286 467.3825960136121 3708.0102040816328 466.4491978609626 3729.8061224489797 465.826932425863 3751.6020408163267 464.5824015556636 3773.3979591836733 462.71560525036466 3795.1938775510203 462.093339815265 3816.9897959183672 460.53767622751593 3838.785714285714 459.29314535731646 3860.581632653061 458.35974720466703 3882.377551020408 457.7374817695674 3904.173469387755 456.8040836169179 3925.969387755102 453.07049100631997 3947.765306122449 453.07049100631997 3969.5612244897957 451.8259601361206 3991.357142857143 451.51482741857075 4013.1530612244896 451.8259601361206 4034.9489795918366 449.64803111327177 4056.7448979591836 450.58142926592126 4078.5408163265306 449.33689839572196 4100.336734693878 446.84783665532325 4122.132653061224 444.04764219737484 4143.928571428572 442.4919786096258 4165.724489795918 442.4919786096258 4187.5204081632655 442.1808458920759 4209.316326530612 441.5585804569763 4231.1122448979595 441.2474477394263 4252.908163265306 440.6251823043267 4274.7040816326535 440.002916869227 4296.5 438.44725328147786 4296.5 411.37870685464264 4274.7040816326535 412.9343704423918 4252.908163265306 413.5566358774915 4231.1122448979595 414.1789013125911 4209.316326530612 414.4900340301411 4187.5204081632655 415.1122994652407 4165.724489795918 415.4234321827906 4143.928571428572 415.4234321827906 4122.132653061224 416.97909577053963 4100.336734693878 419.77929022848804 4078.5408163265306 422.26835196888675 4056.7448979591836 423.51288283908605 4034.9489795918366 422.57948468643656 4013.1530612244896 425.06854642683527 3991.357142857143 425.0685464268352 3969.5612244897957 425.3796791443851 3947.765306122449 426.62421001458443 3925.969387755102 426.62421001458443 3904.173469387755 430.3578026251824 3882.377551020408 431.2912007778319 3860.581632653061 431.9134662129315 3838.785714285714 432.8468643655809 3816.9897959183672 434.4025279533302 3795.1938775510203 435.95819154107926 3773.3979591836733 436.58045697617894 3751.6020408163267 438.44725328147786 3729.8061224489797 439.69178415167727 3708.0102040816328 440.3140495867769 3686.214285714286 441.2474477394264 3664.418367346939 441.55858045697613 3642.622448979592 442.18084589207587 3620.826530612245 442.18084589207587 3599.030612244898 442.18084589207587 3577.234693877551 444.3587749149246 3555.4387755102043 444.66990763247446 3533.6428571428573 445.2921730675742 3511.8469387755104 447.78123480797274 3490.0510204081634 447.7812348079729 3468.2551020408164 448.09236752552266 3446.4591836734694 449.33689839572196 3424.6632653061224 450.5814292659213 3402.8673469387754 451.203694701021 3381.0714285714284 453.0704910063199 3359.2755102040815 454.0038891589694 3337.4795918367345 454.9372873116189 3315.683673469388 455.5595527467186 3293.887755102041 457.11521633446785 3272.091836734694 457.73748176956735 3250.295918367347 457.73748176956735 3228.5 458.04861448711733 3228.5 483.8726300437532Z" fill="#fdd5a4" opacity="0.9" />
		</g>
		<g>
			<path d="M3228.5 458.04861448711733 3250.295918367347 457.73748176956735 3272.091836734694 457.73748176956735 3293.887755102041 457.11521633446785 3315.683673469388 455.5595527467186 3337.4795918367345 454.9372873116189 3359.2755102040815 454.0038891589694 3381.0714285714284 453.0704910063199 3402.8673469387754 451.203694701021 3424.6632653061224 450.5814292659213 3446.4591836734694 449.33689839572196 3468.2551020408164 448.09236752552266 3490.0510204081634 447.7812348079729 3511.8469387755104 447.78123480797274 3533.6428571428573 445.2921730675742 3555.4387755102043 444.66990763247446 3577.234693877551 444.3587749149246 3599.030612244898 442.18084589207587 3620.826530612245 442.18084589207587 3642.622448979592 442.18084589207587 3664.418367346939 441.55858045697613 3686.214285714286 441.2474477394264 3708.0102040816328 440.3140495867769 3729.8061224489797 439.69178415167727 3751.6020408163267 438.44725328147786 3773.3979591836733 436.58045697617894 3795.1938775510203 435.95819154107926 3816.9897959183672 434.4025279533302 3838.785714285714 432.8468643655809 3860.581632653061 431.9134662129315 3882.377551020408 431.2912007778319 3904.173469387755 430.3578026251824 3925.969387755102 426.62421001458443 3947.765306122449 426.62421001458443 3969.5612244897957 425.3796791443851 3991.357142857143 425.0685464268352 4013.1530612244896 425.06854642683527 4034.9489795918366 422.57948468643656 4056.7448979591836 423.51288283908605 4078.5408163265306 422.26835196888675 4100.336734693878 419.77929022848804 4122.132653061224 416.97909577053963 4143.928571428572 415.4234321827906 4165.724489795918 415.4234321827906 4187.5204081632655 415.1122994652407 4209.316326530612 414.4900340301411 4231.1122448979595 414.1789013125911 4252.908163265306 413.5566358774915 4274.7040816326535 412.9343704423918 4296.5 411.37870685464264 4296.5 397.99999999999994 4274.7040816326535 399.5556635877491 4252.908163265306 400.1779290228488 4231.1122448979595 400.8001944579484 4209.316326530612 401.1113271754984 4187.5204081632655 401.733592610598 4165.724489795918 402.0447253281479 4143.928571428572 402.0447253281479 4122.132653061224 403.60038891589693 4100.336734693878 406.40058337384534 4078.5408163265306 408.88964511424405 4056.7448979591836 410.13417598444335 4034.9489795918366 409.20077783179386 4013.1530612244896 411.68983957219257 3991.357142857143 411.6898395721925 3969.5612244897957 412.0009722897424 3947.765306122449 413.24550315994173 3925.969387755102 413.24550315994173 3904.173469387755 416.9790957705397 3882.377551020408 417.9124939231892 3860.581632653061 418.5347593582888 3838.785714285714 419.4681575109382 3816.9897959183672 421.0238210986875 3795.1938775510203 422.57948468643656 3773.3979591836733 423.20175012153624 3751.6020408163267 425.06854642683516 3729.8061224489797 426.31307729703457 3708.0102040816328 426.9353427321342 3686.214285714286 427.8687408847837 3664.418367346939 428.17987360233343 3642.622448979592 428.80213903743316 3620.826530612245 428.80213903743316 3599.030612244898 428.80213903743316 3577.234693877551 430.9800680602819 3555.4387755102043 431.29120077783176 3533.6428571428573 431.9134662129315 3511.8469387755104 434.40252795333004 3490.0510204081634 434.4025279533302 3468.2551020408164 434.71366067087996 3446.4591836734694 434.0913952357803 3424.6632653061224 435.33592610597964 3402.8673469387754 435.9581915410793 3381.0714285714284 437.82498784637824 3359.2755102040815 438.7583859990277 3337.4795918367345 439.6917841516772 3315.683673469388 440.31404958677695 3293.887755102041 441.86971317452617 3272.091836734694 442.4919786096257 3250.295918367347 442.4919786096257 3228.5 442.80311132717566 3228.5 458.04861448711733Z" fill="#55c0e9" opacity="0.9" />
		</g>
		<g>
			<rect x="4372" y="431" width="22.9995" height="23" fill="#f48c7d" />
		</g>
		<g>
			<text fill="#595959" font-family="Verdana,Open Sans,DejaVu Sans,sans-serif" font-weight="400" font-size="41" transform="matrix(1 0 0 1 4404.56 454)">Other</text>
		</g>
		<g>
			<rect x="4372" y="508" width="22.9995" height="23" fill="#005aa6" />
		</g>
		<g>
			<text fill="#595959" font-family="Verdana,Open Sans,DejaVu Sans,sans-serif" font-weight="400" font-size="41" transform="matrix(1 0 0 1 4404.56 531)">iOS</text>
		</g>
		<g>
			<rect x="4372" y="585" width="22.9995" height="23" fill="#e62d39" />
		</g>
		<g>
			<text fill="#595959" font-family="Verdana,Open Sans,DejaVu Sans,sans-serif" font-weight="400" font-size="41" transform="matrix(1 0 0 1 4404.56 608)">Android</text>
		</g>
		<g>
			<rect x="4372" y="662" width="22.9995" height="23" fill="#f6a118" />
		</g>
		<g>
			<text fill="#595959" font-family="Verdana,Open Sans,DejaVu Sans,sans-serif" font-weight="400" font-size="41" transform="matrix(1 0 0 1 4404.56 685)">macOS</text>
		</g>
		<g>
			<rect x="4372" y="739" width="22.9995" height="23" fill="#fdd5a4" />
		</g>
		<g>
			<text fill="#595959" font-family="Verdana,Open Sans,DejaVu Sans,sans-serif" font-weight="400" font-size="41" transform="matrix(1 0 0 1 4404.56 762)">Linux</text>
		</g>
		<g>
			<rect x="4372" y="816" width="22.9995" height="23" fill="#55c0e9" />
		</g>
		<g>
			<text fill="#595959" font-family="Verdana,Open Sans,DejaVu Sans,sans-serif" font-weight="400" font-size="41" transform="matrix(1 0 0 1 4404.56 839)">Windows</text>
		</g>
	</g>
</svg>
