<svg width="1763" height="1046"
    xmlns="http://www.w3.org/2000/svg"
	xmlns:xlink="http://www.w3.org/1999/xlink" xml:space="preserve" overflow="hidden">
	<defs>
		<clipPath id="clip0">
			<rect x="2917" y="346" width="1763" height="1046"/>
		</clipPath>
	</defs>
	<g clip-path="url(#clip0)" transform="translate(-2917 -346)">
		<rect x="2918" y="347" width="1760" height="1043" fill="#FFFFFF" />
		<g>
			<path d="
			M3228.5 974.532 4296.5 974.532
			M3228.5 910.53 4296.5 910.53
			M3228.5 846.528 4296.5 846.528
			M3228.5 781.526 4296.5 781.526
			M3228.5 717.524 4296.5 717.524
			M3228.5 653.522 4296.5 653.522
			M3228.5 589.52 4296.5 589.52
			M3228.5 525.517 4296.5 525.517
			M3228.5 461.515 4296.5 461.515
			M3228.5 397.5 4296.5 397.5" stroke="#D9D9D9" stroke-width="3.4375" stroke-linejoin="round" stroke-miterlimit="10" fill="none" />
		</g>
		<g>
			<path d="M 1038.5 4296.5 1038.5" stroke="#D9D9D9" stroke-width="3.4375" stroke-linejoin="round" stroke-miterlimit="10" fill="none" fill-rule="evenodd" />
		</g>
		<g>
			<text fill="#595959" font-family="Verdana,Open Sans,DejaVu Sans,sans-serif" font-weight="400" font-size="41" transform="matrix(6.12323e-17 -1 1 6.12323e-17 3243.544677734375 1212.05078125)">24-Mar</text>
		</g>
		<g>
			<text fill="#595959" font-family="Verdana,Open Sans,DejaVu Sans,sans-serif" font-weight="400" font-size="41" transform="matrix(6.12323e-17 -1 1 6.12323e-17 3333.709287109375 1203.3022384643555)">21-Apr</text>
		</g>
		<g>
			<text fill="#595959" font-family="Verdana,Open Sans,DejaVu Sans,sans-serif" font-weight="400" font-size="41" transform="matrix(6.12323e-17 -1 1 6.12323e-17 3419.149287109375 1214.75341796875)">19-May</text>
		</g>
		<g>
			<text fill="#595959" font-family="Verdana,Open Sans,DejaVu Sans,sans-serif" font-weight="400" font-size="41" transform="matrix(6.12323e-17 -1 1 6.12323e-17 3503.5182421875 1194.0532150268555)">23-Jun</text>
		</g>
		<g>
			<text fill="#595959" font-family="Verdana,Open Sans,DejaVu Sans,sans-serif" font-weight="400" font-size="41" transform="matrix(6.12323e-17 -1 1 6.12323e-17 3589.688955078125 1179.0385665893555)">21-Jul</text>
		</g>
		<g>
			<text fill="#595959" font-family="Verdana,Open Sans,DejaVu Sans,sans-serif" font-weight="400" font-size="41" transform="matrix(6.12323e-17 -1 1 6.12323e-17 3675.469287109375 1206.90576171875)">18-Aug</text>
		</g>
		<g>
			<text fill="#595959" font-family="Verdana,Open Sans,DejaVu Sans,sans-serif" font-weight="400" font-size="41" transform="matrix(6.12323e-17 -1 1 6.12323e-17 3760.909287109375 1202.66162109375)">15-Sep</text>
		</g>
		<g>
			<text fill="#595959" font-family="Verdana,Open Sans,DejaVu Sans,sans-serif" font-weight="400" font-size="41" transform="matrix(6.12323e-17 -1 1 6.12323e-17 3841.644697265625 1199.3784103393555)">13-Oct</text>
		</g>
		<g>
			<text fill="#595959" font-family="Verdana,Open Sans,DejaVu Sans,sans-serif" font-weight="400" font-size="41" transform="matrix(6.12323e-17 -1 1 6.12323e-17 3927.084697265625 1209.70849609375)">10-Nov</text>
		</g>
		<g>
			<text fill="#595959" font-family="Verdana,Open Sans,DejaVu Sans,sans-serif" font-weight="400" font-size="41" transform="matrix(6.12323e-17 -1 1 6.12323e-17 4012.524697265625 1207.0859375)">08-Dec</text>
		</g>
		<g>
			<text fill="#595959" font-family="Verdana,Open Sans,DejaVu Sans,sans-serif" font-weight="400" font-size="41" transform="matrix(6.12323e-17 -1 1 6.12323e-17 4101.61826171875 1191.6508712768555)">05-Jan</text>
		</g>
		<g>
			<text fill="#595959" font-family="Verdana,Open Sans,DejaVu Sans,sans-serif" font-weight="400" font-size="41" transform="matrix(6.12323e-17 -1 1 6.12323e-17 4184.115390625 1203.0419921875)">02-Feb</text>
		</g>
		<g>
			<text fill="#595959" font-family="Verdana,Open Sans,DejaVu Sans,sans-serif" font-weight="400" font-size="41" transform="matrix(6.12323e-17 -1 1 6.12323e-17 4268.844697265625 1212.0107421875)">02-Mar</text>
		</g>
		<g>
			<text fill="#595959" font-family="Verdana,Open Sans,DejaVu Sans,sans-serif" font-weight="400" font-size="41" transform="matrix(1 0 0 1 3169.14111328125 1050)">0</text>
		</g>
		<g>
			<text fill="#595959" font-family="Verdana,Open Sans,DejaVu Sans,sans-serif" font-weight="400" font-size="41" transform="matrix(1 0 0 1 3121.1142578125 922)">437</text>
		</g>
		<g>
			<text fill="#595959" font-family="Verdana,Open Sans,DejaVu Sans,sans-serif" font-weight="400" font-size="41" transform="matrix(1 0 0 1 3122.61572265625 794)">875</text>
		</g>
		<g>
			<text fill="#595959" font-family="Verdana,Open Sans,DejaVu Sans,sans-serif" font-weight="400" font-size="41" transform="matrix(1 0 0 1 3090.64453125 666)">1,312</text>
		</g>
		<g>
			<text fill="#595959" font-family="Verdana,Open Sans,DejaVu Sans,sans-serif" font-weight="400" font-size="41" transform="matrix(1 0 0 1 3090.484375 538)">1,750</text>
		</g>
		<g>
			<text fill="#595959" font-family="Verdana,Open Sans,DejaVu Sans,sans-serif" font-weight="400" font-size="41" transform="matrix(1 0 0 1 3088.7626953125 410)">2,187</text>
		</g>
		<g>
			<text fill="#595959" font-family="Verdana,Open Sans,DejaVu Sans,sans-serif" font-weight="400" font-size="41" transform="matrix(1 0 0 1 3556.97119140625 1321)">Week Commencing</text>
		</g>
		<g>
			<text fill="#595959" font-family="Verdana,Open Sans,DejaVu Sans,sans-serif" font-weight="400" font-size="46" transform="matrix(6.12323e-17 -1 1 6.12323e-17 3019.73 953.7919921875)">Number of OS Profiles</text>
		</g>
		<rect x="2918.5" y="347.5" width="1760" height="1043" stroke="#D9D9D9" stroke-width="3.4375" stroke-linejoin="round" stroke-miterlimit="10" fill="none" />
		<g>
			<path d="M3228.5 1038 3249.86 1038 3271.22 1038 3292.58 1038 3313.94 1038 3335.3 1038 3356.66 1038 3378.02 1038 3399.38 1038 3420.74 1038 3442.1 1038 3463.46 1038 3484.82 1038 3506.18 1038 3527.54 1038 3548.9 1038 3570.26 1038 3591.62 1038 3612.98 1038 3634.34 1038 3655.7 1038 3677.06 1038 3698.42 1038 3719.7799999999997 1038 3741.14 1038 3762.5 1038 3783.86 1038 3805.2200000000003 1038 3826.58 1038 3847.94 1038 3869.3 1038 3890.66 1038 3912.02 1038 3933.38 1038 3954.74 1038 3976.1 1038 3997.46 1038 4018.8199999999997 1038 4040.18 1038 4061.54 1038 4082.9 1038 4104.26 1038 4125.62 1038 4146.98 1038 4168.34 1038 4189.7 1038 4211.0599999999995 1038 4232.42 1038 4253.78 1038 4275.139999999999 1038 4296.5 1038 4296.5 706.7334247828074 4275.139999999999 706.7334247828074 4253.78 707.0260631001372 4232.42 707.3187014174669 4211.0599999999995 708.1966163694558 4189.7 708.7818930041152 4168.34 709.6598079561043 4146.98 710.5377229080932 4125.62 710.8303612254228 4104.26 711.1229995427526 4082.9 711.1229995427526 4061.54 711.708276177412 4040.18 712.0009144947417 4018.8199999999997 712.586191129401 3997.46 712.586191129401 3976.1 712.8788294467306 3954.74 713.1714677640603 3933.38 713.46410608139 3912.02 714.3420210333791 3890.66 715.219935985368 3869.3 715.5125743026977 3847.94 715.8052126200274 3826.58 715.8052126200274 3805.2200000000003 716.3904892546868 3783.86 717.8536808413351 3762.5 718.7315957933242 3741.14 719.0242341106539 3719.7799999999997 719.0242341106539 3698.42 719.3168724279835 3677.06 719.3168724279835 3655.7 719.3168724279835 3634.34 719.6095107453132 3612.98 720.4874256973022 3591.62 720.4874256973022 3570.26 720.7800640146319 3548.9 721.0727023319616 3527.54 721.6579789666209 3506.18 721.9506172839506 3484.82 721.9506172839506 3463.46 722.5358939186099 3442.1 723.9990855052583 3420.74 726.0475537265661 3399.38 726.0475537265661 3378.02 726.0475537265661 3356.66 726.3401920438957 3335.3 726.0475537265661 3313.94 726.3401920438957 3292.58 726.6328303612254 3271.22 726.6328303612254 3249.86 727.5107453132144 3228.5 728.0960219478739 3228.5 1038Z" fill="#f48c7d" opacity="0.9" />
		</g>
		<g>
			<path d="M3228.5 728.0960219478739 3249.86 727.5107453132144 3271.22 726.6328303612254 3292.58 726.6328303612254 3313.94 726.3401920438957 3335.3 726.0475537265661 3356.66 726.3401920438957 3378.02 726.0475537265661 3399.38 726.0475537265661 3420.74 726.0475537265661 3442.1 723.9990855052583 3463.46 722.5358939186099 3484.82 721.9506172839506 3506.18 721.9506172839506 3527.54 721.6579789666209 3548.9 721.0727023319616 3570.26 720.7800640146319 3591.62 720.4874256973022 3612.98 720.4874256973022 3634.34 719.6095107453132 3655.7 719.3168724279835 3677.06 719.3168724279835 3698.42 719.3168724279835 3719.7799999999997 719.0242341106539 3741.14 719.0242341106539 3762.5 718.7315957933242 3783.86 717.8536808413351 3805.2200000000003 716.3904892546868 3826.58 715.8052126200274 3847.94 715.8052126200274 3869.3 715.5125743026977 3890.66 715.219935985368 3912.02 714.3420210333791 3933.38 713.46410608139 3954.74 713.1714677640603 3976.1 712.8788294467306 3997.46 712.586191129401 4018.8199999999997 712.586191129401 4040.18 712.0009144947417 4061.54 711.708276177412 4082.9 711.1229995427526 4104.26 711.1229995427526 4125.62 710.8303612254228 4146.98 710.5377229080932 4168.34 709.6598079561043 4189.7 708.7818930041152 4211.0599999999995 708.1966163694558 4232.42 707.3187014174669 4253.78 707.0260631001372 4275.139999999999 706.7334247828074 4296.5 706.7334247828074 4296.5 550.1719250114311 4275.139999999999 551.3424782807498 4253.78 553.098308184728 4232.42 553.3909465020577 4211.0599999999995 554.8541380887059 4189.7 555.4394147233653 4168.34 557.4878829446731 4146.98 561.8774577046181 4125.62 562.1700960219478 4104.26 562.7553726566072 4082.9 562.7553726566072 4061.54 563.3406492912666 4040.18 563.6332876085962 4018.8199999999997 565.681755829904 3997.46 564.8038408779149 3976.1 565.6817558299039 3954.74 565.9743941472335 3933.38 566.2670324645633 3912.02 567.1449474165523 3890.66 569.19341563786 3869.3 570.071330589849 3847.94 570.3639689071788 3826.58 570.3639689071788 3805.2200000000003 570.9492455418382 3783.86 575.3388203017831 3762.5 576.5093735711021 3741.14 576.8020118884317 3719.7799999999997 578.5578417924097 3698.42 579.143118427069 3677.06 579.143118427069 3655.7 580.021033379058 3634.34 580.6063100137173 3612.98 581.7768632830362 3591.62 581.7768632830362 3570.26 582.3621399176955 3548.9 582.6547782350252 3527.54 583.2400548696845 3506.18 583.5326931870142 3484.82 583.5326931870142 3463.46 584.7032464563327 3442.1 587.0443529949703 3420.74 589.3854595336077 3399.38 589.9707361682671 3378.02 589.092821216278 3356.66 591.1412894375858 3335.3 590.8486511202561 3313.94 591.1412894375858 3292.58 592.0192043895747 3271.22 592.0192043895747 3249.86 594.6529492455418 3228.5 595.530864197531 3228.5 728.0960219478739Z" fill="#005aa6" opacity="0.9" />
		</g>
		<g>
			<path d="M3228.5 595.530864197531 3249.86 594.6529492455418 3271.22 592.0192043895747 3292.58 592.0192043895747 3313.94 591.1412894375858 3335.3 590.8486511202561 3356.66 591.1412894375858 3378.02 589.092821216278 3399.38 589.9707361682671 3420.74 589.3854595336077 3442.1 587.0443529949703 3463.46 584.7032464563327 3484.82 583.5326931870142 3506.18 583.5326931870142 3527.54 583.2400548696845 3548.9 582.6547782350252 3570.26 582.3621399176955 3591.62 581.7768632830362 3612.98 581.7768632830362 3634.34 580.6063100137173 3655.7 580.021033379058 3677.06 579.143118427069 3698.42 579.143118427069 3719.7799999999997 578.5578417924097 3741.14 576.8020118884317 3762.5 576.5093735711021 3783.86 575.3388203017831 3805.2200000000003 570.9492455418382 3826.58 570.3639689071788 3847.94 570.3639689071788 3869.3 570.071330589849 3890.66 569.19341563786 3912.02 567.1449474165523 3933.38 566.2670324645633 3954.74 565.9743941472335 3976.1 565.6817558299039 3997.46 564.8038408779149 4018.8199999999997 565.681755829904 4040.18 563.6332876085962 4061.54 563.3406492912666 4082.9 562.7553726566072 4104.26 562.7553726566072 4125.62 562.1700960219478 4146.98 561.8774577046181 4168.34 557.4878829446731 4189.7 555.4394147233653 4211.0599999999995 554.8541380887059 4232.42 553.3909465020577 4253.78 553.098308184728 4275.139999999999 551.3424782807498 4296.5 550.1719250114311 4296.5 491.93689986282567 4275.139999999999 493.4000914494741 4253.78 495.74119798811165 4232.42 496.0338363054413 4211.0599999999995 497.7896662094192 4189.7 499.25285779606764 4168.34 501.59396433470505 4146.98 505.9835390946501 4125.62 506.27617741197975 4104.26 506.86145404663915 4082.9 506.86145404663915 4061.54 507.44673068129856 4040.18 507.7393689986282 4018.8199999999997 510.08047553726567 3997.46 509.2025605852766 3976.1 510.08047553726556 3954.74 510.3731138545952 3933.38 510.66575217192496 3912.02 512.1289437585733 3890.66 515.05532693187 3869.3 515.9332418838591 3847.94 516.2258802011888 3826.58 516.2258802011888 3805.2200000000003 517.1037951531779 3783.86 522.3712848651119 3762.5 523.8344764517605 3741.14 524.1271147690901 3719.7799999999997 525.8829446730681 3698.42 526.4682213077274 3677.06 526.4682213077274 3655.7 528.2240512117055 3634.34 529.1019661636944 3612.98 530.565157750343 3591.62 531.1504343850023 3570.26 531.7357110196616 3548.9 532.0283493369914 3527.54 532.6136259716507 3506.18 532.9062642889803 3484.82 532.9062642889803 3463.46 534.3694558756285 3442.1 537.0032007315958 3420.74 539.3443072702332 3399.38 540.5148605395519 3378.02 539.6369455875629 3356.66 541.6854138088706 3335.3 541.392775491541 3313.94 541.6854138088706 3292.58 542.8559670781892 3271.22 542.8559670781892 3249.86 546.3676268861453 3228.5 547.2455418381345 3228.5 595.530864197531Z" fill="#f6a118" opacity="0.9" />
		</g>
		<g>
			<path d="M3228.5 547.2455418381345 3249.86 546.3676268861453 3271.22 542.8559670781892 3292.58 542.8559670781892 3313.94 541.6854138088706 3335.3 541.392775491541 3356.66 541.6854138088706 3378.02 539.6369455875629 3399.38 540.5148605395519 3420.74 539.3443072702332 3442.1 537.0032007315958 3463.46 534.3694558756285 3484.82 532.9062642889803 3506.18 532.9062642889803 3527.54 532.6136259716507 3548.9 532.0283493369914 3570.26 531.7357110196616 3591.62 531.1504343850023 3612.98 530.565157750343 3634.34 529.1019661636944 3655.7 528.2240512117055 3677.06 526.4682213077274 3698.42 526.4682213077274 3719.7799999999997 525.8829446730681 3741.14 524.1271147690901 3762.5 523.8344764517605 3783.86 522.3712848651119 3805.2200000000003 517.1037951531779 3826.58 516.2258802011888 3847.94 516.2258802011888 3869.3 515.9332418838591 3890.66 515.05532693187 3912.02 512.1289437585733 3933.38 510.66575217192496 3954.74 510.3731138545952 3976.1 510.08047553726556 3997.46 509.2025605852766 4018.8199999999997 510.08047553726567 4040.18 507.7393689986282 4061.54 507.44673068129856 4082.9 506.86145404663915 4104.26 506.86145404663915 4125.62 506.27617741197975 4146.98 505.9835390946501 4168.34 501.59396433470505 4189.7 499.25285779606764 4211.0599999999995 497.7896662094192 4232.42 496.0338363054413 4253.78 495.74119798811165 4275.139999999999 493.4000914494741 4296.5 491.93689986282567 4296.5 436.628257887517 4275.139999999999 438.0914494741654 4253.78 440.432556012803 4232.42 440.72519433013264 4211.0599999999995 442.7736625514402 4189.7 444.2368541380887 4168.34 446.5779606767261 4146.98 450.96753543667114 4125.62 451.2601737540008 4104.26 451.8454503886602 4082.9 451.8454503886602 4061.54 452.4307270233196 4040.18 452.72336534064925 4018.8199999999997 455.0644718792867 3997.46 454.18655692729766 3976.1 455.0644718792866 3954.74 455.35711019661625 3933.38 455.649748513946 3912.02 457.11294010059436 3890.66 460.03932327389106 3869.3 460.9172382258801 3847.94 461.2098765432099 3826.58 461.2098765432099 3805.2200000000003 462.0877914951989 3783.86 467.3552812071329 3762.5 468.8184727937815 3741.14 469.11111111111114 3719.7799999999997 470.86694101508914 3698.42 471.45221764974843 3677.06 471.45221764974843 3655.7 473.20804755372654 3634.34 474.0859625057155 3612.98 475.54915409236406 3591.62 476.13443072702336 3570.26 476.71970736168265 3548.9 477.0123456790124 3527.54 477.5976223136717 3506.18 477.89026063100135 3484.82 477.89026063100135 3463.46 479.3534522176496 3442.1 481.98719707361687 3420.74 484.3283036122543 3399.38 485.498856881573 3378.02 484.6209419295839 3356.66 486.6694101508917 3335.3 486.37677183356203 3313.94 486.6694101508917 3292.58 487.83996342021027 3271.22 487.83996342021027 3249.86 491.3516232281664 3228.5 492.22953818015554 3228.5 547.2455418381345Z" fill="#e62d39" opacity="0.9" />
		</g>
		<g>
			<path d="M3228.5 492.22953818015554 3249.86 491.3516232281664 3271.22 487.83996342021027 3292.58 487.83996342021027 3313.94 486.6694101508917 3335.3 486.37677183356203 3356.66 486.6694101508917 3378.02 484.6209419295839 3399.38 485.498856881573 3420.74 484.3283036122543 3442.1 481.98719707361687 3463.46 479.3534522176496 3484.82 477.89026063100135 3506.18 477.89026063100135 3527.54 477.5976223136717 3548.9 477.0123456790124 3570.26 476.71970736168265 3591.62 476.13443072702336 3612.98 475.54915409236406 3634.34 474.0859625057155 3655.7 473.20804755372654 3677.06 471.45221764974843 3698.42 471.45221764974843 3719.7799999999997 470.86694101508914 3741.14 469.11111111111114 3762.5 468.8184727937815 3783.86 467.3552812071329 3805.2200000000003 462.0877914951989 3826.58 461.2098765432099 3847.94 461.2098765432099 3869.3 460.9172382258801 3890.66 460.03932327389106 3912.02 457.11294010059436 3933.38 455.649748513946 3954.74 455.35711019661625 3976.1 455.0644718792866 3997.46 454.18655692729766 4018.8199999999997 455.0644718792867 4040.18 452.72336534064925 4061.54 452.4307270233196 4082.9 451.8454503886602 4104.26 451.8454503886602 4125.62 451.2601737540008 4146.98 450.96753543667114 4168.34 446.5779606767261 4189.7 444.2368541380887 4211.0599999999995 442.7736625514402 4232.42 440.72519433013264 4253.78 440.432556012803 4275.139999999999 438.0914494741654 4296.5 436.628257887517 4296.5 410.87608596250556 4275.139999999999 412.33927754915396 4253.78 414.68038408779154 4232.42 414.9730224051212 4211.0599999999995 417.0214906264288 4189.7 418.48468221307724 4168.34 420.82578875171464 4146.98 425.2153635116597 4125.62 425.50800182898934 4104.26 426.09327846364874 4082.9 426.09327846364874 4061.54 426.67855509830815 4040.18 426.9711934156378 4018.8199999999997 429.31229995427526 3997.46 428.4343850022862 3976.1 429.31229995427515 3954.74 429.6049382716048 3933.38 429.89757658893456 3912.02 431.3607681755829 3890.66 434.2871513488796 3869.3 435.16506630086866 3847.94 435.4577046181984 3826.58 435.7503429355281 3805.2200000000003 436.6282578875172 3783.86 441.89574759945117 3762.5 443.35893918609975 3741.14 443.6515775034294 3719.7799999999997 445.4074074074074 3698.42 445.9926840420667 3677.06 445.9926840420667 3655.7 447.7485139460448 3634.34 448.62642889803374 3612.98 450.0896204846823 3591.62 450.6748971193416 3570.26 451.2601737540009 3548.9 451.55281207133066 3527.54 452.13808870598996 3506.18 452.4307270233196 3484.82 452.4307270233196 3463.46 453.89391860996784 3442.1 456.5276634659351 3420.74 458.8687700045725 3399.38 460.0393232738912 3378.02 459.1614083219022 3356.66 461.5025148605396 3335.3 461.50251486053963 3313.94 461.7951531778693 3292.58 462.96570644718787 3271.22 462.96570644718787 3249.86 466.477366255144 3228.5 467.35528120713315 3228.5 492.22953818015554Z" fill="#fdd5a4" opacity="0.9" />
		</g>
		<g>
			<path d="M3228.5 467.35528120713315 3249.86 466.477366255144 3271.22 462.96570644718787 3292.58 462.96570644718787 3313.94 461.7951531778693 3335.3 461.50251486053963 3356.66 461.5025148605396 3378.02 459.1614083219022 3399.38 460.0393232738912 3420.74 458.8687700045725 3442.1 456.5276634659351 3463.46 453.89391860996784 3484.82 452.4307270233196 3506.18 452.4307270233196 3527.54 452.13808870598996 3548.9 451.55281207133066 3570.26 451.2601737540009 3591.62 450.6748971193416 3612.98 450.0896204846823 3634.34 448.62642889803374 3655.7 447.7485139460448 3677.06 445.9926840420667 3698.42 445.9926840420667 3719.7799999999997 445.4074074074074 3741.14 443.6515775034294 3762.5 443.35893918609975 3783.86 441.89574759945117 3805.2200000000003 436.6282578875172 3826.58 435.7503429355281 3847.94 435.4577046181984 3869.3 435.16506630086866 3890.66 434.2871513488796 3912.02 431.3607681755829 3933.38 429.89757658893456 3954.74 429.6049382716048 3976.1 429.31229995427515 3997.46 428.4343850022862 4018.8199999999997 429.31229995427526 4040.18 426.9711934156378 4061.54 426.67855509830815 4082.9 426.09327846364874 4104.26 426.09327846364874 4125.62 425.50800182898934 4146.98 425.2153635116597 4168.34 420.82578875171464 4189.7 418.48468221307724 4211.0599999999995 417.0214906264288 4232.42 414.9730224051212 4253.78 414.68038408779154 4275.139999999999 412.33927754915396 4296.5 410.87608596250556 4296.5 397.99999999999983 4275.139999999999 399.46319158664824 4253.78 401.8042981252858 4232.42 402.09693644261546 4211.0599999999995 404.14540466392305 4189.7 405.9012345679012 4168.34 408.2423411065386 4146.98 412.63191586648367 4125.62 412.9245541838133 4104.26 413.5098308184727 4082.9 413.5098308184727 4061.54 414.09510745313213 4040.18 414.3877457704618 4018.8199999999997 416.72885230909924 3997.46 415.8509373571102 3976.1 416.7288523090991 3954.74 417.0214906264288 3933.38 417.31412894375853 3912.02 418.7773205304069 3890.66 421.7037037037036 3869.3 422.58161865569264 3847.94 422.8742569730224 3826.58 423.1668952903521 3805.2200000000003 424.04481024234116 3783.86 429.31229995427515 3762.5 430.7754915409237 3741.14 431.06812985825337 3719.7799999999997 432.82395976223137 3698.42 433.40923639689066 3677.06 433.40923639689066 3655.7 435.1650663008688 3634.34 436.0429812528577 3612.98 437.5061728395063 3591.62 438.0914494741656 3570.26 438.6767261088249 3548.9 438.96936442615464 3527.54 439.55464106081394 3506.18 439.8472793781436 3484.82 439.8472793781436 3463.46 441.3104709647918 3442.1 443.9442158207591 3420.74 446.2853223593965 3399.38 447.4558756287152 3378.02 446.57796067672615 3356.66 448.91906721536355 3335.3 448.9190672153636 3313.94 449.21170553269326 3292.58 450.38225880201185 3271.22 450.38225880201185 3249.86 453.89391860996795 3228.5 454.7718335619571 3228.5 467.35528120713315Z" fill="#55c0e9" opacity="0.9" />
		</g>
		<g>
			<rect x="4372" y="431" width="22.9995" height="23" fill="#f48c7d" />
		</g>
		<g>
			<text fill="#595959" font-family="Verdana,Open Sans,DejaVu Sans,sans-serif" font-weight="400" font-size="41" transform="matrix(1 0 0 1 4404.56 454)">Other</text>
		</g>
		<g>
			<rect x="4372" y="508" width="22.9995" height="23" fill="#005aa6" />
		</g>
		<g>
			<text fill="#595959" font-family="Verdana,Open Sans,DejaVu Sans,sans-serif" font-weight="400" font-size="41" transform="matrix(1 0 0 1 4404.56 531)">iOS</text>
		</g>
		<g>
			<rect x="4372" y="585" width="22.9995" height="23" fill="#f6a118" />
		</g>
		<g>
			<text fill="#595959" font-family="Verdana,Open Sans,DejaVu Sans,sans-serif" font-weight="400" font-size="41" transform="matrix(1 0 0 1 4404.56 608)">macOS</text>
		</g>
		<g>
			<rect x="4372" y="662" width="22.9995" height="23" fill="#e62d39" />
		</g>
		<g>
			<text fill="#595959" font-family="Verdana,Open Sans,DejaVu Sans,sans-serif" font-weight="400" font-size="41" transform="matrix(1 0 0 1 4404.56 685)">Android</text>
		</g>
		<g>
			<rect x="4372" y="739" width="22.9995" height="23" fill="#fdd5a4" />
		</g>
		<g>
			<text fill="#595959" font-family="Verdana,Open Sans,DejaVu Sans,sans-serif" font-weight="400" font-size="41" transform="matrix(1 0 0 1 4404.56 762)">Linux</text>
		</g>
		<g>
			<rect x="4372" y="816" width="22.9995" height="23" fill="#55c0e9" />
		</g>
		<g>
			<text fill="#595959" font-family="Verdana,Open Sans,DejaVu Sans,sans-serif" font-weight="400" font-size="41" transform="matrix(1 0 0 1 4404.56 839)">Windows</text>
		</g>
	</g>
</svg>
