<svg width="1763" height="1046"
    xmlns="http://www.w3.org/2000/svg"
	xmlns:xlink="http://www.w3.org/1999/xlink" xml:space="preserve" overflow="hidden">
	<defs>
		<clipPath id="clip0">
			<rect x="2917" y="346" width="1763" height="1046"/>
		</clipPath>
	</defs>
	<g clip-path="url(#clip0)" transform="translate(-2917 -346)">
		<rect x="2918" y="347" width="1760" height="1043" fill="#FFFFFF" />
		<g>
			<path d="
			M3228.5 974.532 4296.5 974.532
			M3228.5 910.53 4296.5 910.53
			M3228.5 846.528 4296.5 846.528
			M3228.5 781.526 4296.5 781.526
			M3228.5 717.524 4296.5 717.524
			M3228.5 653.522 4296.5 653.522
			M3228.5 589.52 4296.5 589.52
			M3228.5 525.517 4296.5 525.517
			M3228.5 461.515 4296.5 461.515
			M3228.5 397.5 4296.5 397.5" stroke="#D9D9D9" stroke-width="3.4375" stroke-linejoin="round" stroke-miterlimit="10" fill="none" />
		</g>
		<g>
			<path d="M 1038.5 4296.5 1038.5" stroke="#D9D9D9" stroke-width="3.4375" stroke-linejoin="round" stroke-miterlimit="10" fill="none" fill-rule="evenodd" />
		</g>
		<g>
			<text fill="#595959" font-family="Verdana,sans-serif" font-weight="400" font-size="41" transform="matrix(6.12323e-17 -1 1 6.12323e-17 3244.5 1225)">06-Nov</text>
		</g>
		<g>
			<text fill="#595959" font-family="Verdana,sans-serif" font-weight="400" font-size="41" transform="matrix(6.12323e-17 -1 1 6.12323e-17 3366.557142857143 1223)">04-Dec</text>
		</g>
		<g>
			<text fill="#595959" font-family="Verdana,sans-serif" font-weight="400" font-size="41" transform="matrix(6.12323e-17 -1 1 6.12323e-17 3488.614285714286 1210)">01-Jan</text>
		</g>
		<g>
			<text fill="#595959" font-family="Verdana,sans-serif" font-weight="400" font-size="41" transform="matrix(6.12323e-17 -1 1 6.12323e-17 3610.671428571429 1210)">29-Jan</text>
		</g>
		<g>
			<text fill="#595959" font-family="Verdana,sans-serif" font-weight="400" font-size="41" transform="matrix(6.12323e-17 -1 1 6.12323e-17 3732.7285714285713 1216)">26-Feb</text>
		</g>
		<g>
			<text fill="#595959" font-family="Verdana,sans-serif" font-weight="400" font-size="41" transform="matrix(6.12323e-17 -1 1 6.12323e-17 3854.785714285714 1223)">25-Mar</text>
		</g>
		<g>
			<text fill="#595959" font-family="Verdana,sans-serif" font-weight="400" font-size="41" transform="matrix(6.12323e-17 -1 1 6.12323e-17 3980.342857142857 1216)">22-Apr</text>
		</g>
		<g>
			<text fill="#595959" font-family="Verdana,sans-serif" font-weight="400" font-size="41" transform="matrix(6.12323e-17 -1 1 6.12323e-17 4102.4 1228)">20-May</text>
		</g>
		<g>
			<text fill="#595959" font-family="Verdana,sans-serif" font-weight="400" font-size="41" transform="matrix(6.12323e-17 -1 1 6.12323e-17 4220.457142857143 1209)">17-Jun</text>
		</g>
		<g>
			<text fill="#595959" font-family="Verdana,sans-serif" font-weight="400" font-size="41" transform="matrix(1 0 0 1 3167.5 1050)">0</text>
		</g>
		<g>
			<text fill="#595959" font-family="Verdana,sans-serif" font-weight="400" font-size="41" transform="matrix(1 0 0 1 3115.5 922)">379</text>
		</g>
		<g>
			<text fill="#595959" font-family="Verdana,sans-serif" font-weight="400" font-size="41" transform="matrix(1 0 0 1 3115.5 794)">757</text>
		</g>
		<g>
			<text fill="#595959" font-family="Verdana,sans-serif" font-weight="400" font-size="41" transform="matrix(1 0 0 1 3076.5 666)">1,136</text>
		</g>
		<g>
			<text fill="#595959" font-family="Verdana,sans-serif" font-weight="400" font-size="41" transform="matrix(1 0 0 1 3076.5 538)">1,514</text>
		</g>
		<g>
			<text fill="#595959" font-family="Verdana,sans-serif" font-weight="400" font-size="41" transform="matrix(1 0 0 1 3077.5 410)">1,893</text>
		</g>
		<g>
			<text fill="#595959" font-family="Verdana,sans-serif" font-weight="400" font-size="41" transform="matrix(1 0 0 1 3544.5 1321)">Week Commencing</text>
		</g>
		<g>
			<text fill="#595959" font-family="Verdana,sans-serif" font-weight="400" font-size="46" transform="matrix(6.12323e-17 -1 1 6.12323e-17 3019.73 970.75)">Number of OS Profiles</text>
		</g>
		<rect x="2918.5" y="347.5" width="1760" height="1043" stroke="#D9D9D9" stroke-width="3.4375" stroke-linejoin="round" stroke-miterlimit="10" fill="none" />
		<g>
			<path d="M3228.5 1038 3259.0142857142855 1038 3289.5285714285715 1038 3320.042857142857 1038 3350.557142857143 1038 3381.0714285714284 1038 3411.5857142857144 1038 3442.1 1038 3472.614285714286 1038 3503.1285714285714 1038 3533.6428571428573 1038 3564.157142857143 1038 3594.671428571429 1038 3625.1857142857143 1038 3655.7 1038 3686.214285714286 1038 3716.7285714285713 1038 3747.2428571428572 1038 3777.7571428571428 1038 3808.2714285714287 1038 3838.785714285714 1038 3869.3 1038 3899.8142857142857 1038 3930.328571428571 1038 3960.842857142857 1038 3991.357142857143 1038 4021.8714285714286 1038 4052.385714285714 1038 4082.9 1038 4113.414285714286 1038 4143.928571428572 1038 4174.442857142857 1038 4204.957142857143 1038 4235.471428571429 1038 4265.9857142857145 1038 4296.5 1038 4296.5 695.8552562070787 4265.9857142857145 698.8980454305336 4235.471428571429 698.8980454305336 4204.957142857143 699.5742208135234 4174.442857142857 700.5884838880085 4143.928571428572 701.2646592709984 4113.414285714286 702.6170100369784 4082.9 703.2931854199683 4052.385714285714 703.6312731114633 4021.8714285714286 703.9693608029582 3991.357142857143 703.9693608029582 3960.842857142857 704.3074484944532 3930.328571428571 704.6455361859482 3899.8142857142857 704.6455361859482 3869.3 705.6597992604331 3838.785714285714 706.6740623349181 3808.2714285714287 708.026413100898 3777.7571428571428 709.0406761753829 3747.2428571428572 709.0406761753829 3716.7285714285713 710.3930269413629 3686.214285714286 710.3930269413629 3655.7 710.3930269413629 3625.1857142857143 711.4072900158478 3594.671428571429 711.7453777073429 3564.157142857143 712.0834653988378 3533.6428571428573 713.0977284733228 3503.1285714285714 713.4358161648178 3472.614285714286 713.7739038563127 3442.1 713.7739038563127 3411.5857142857144 713.7739038563127 3381.0714285714284 713.7739038563127 3350.557142857143 715.8024300052825 3320.042857142857 716.1405176967776 3289.5285714285715 716.8166930797676 3259.0142857142855 716.8166930797676 3228.5 717.4928684627575 3228.5 1038Z" fill="#fdd5a4" opacity="0.9" />
		</g>
		<g>
			<path d="M3228.5 717.4928684627575 3259.0142857142855 716.8166930797676 3289.5285714285715 716.8166930797676 3320.042857142857 716.1405176967776 3350.557142857143 715.8024300052825 3381.0714285714284 713.7739038563127 3411.5857142857144 713.7739038563127 3442.1 713.7739038563127 3472.614285714286 713.7739038563127 3503.1285714285714 713.4358161648178 3533.6428571428573 713.0977284733228 3564.157142857143 712.0834653988378 3594.671428571429 711.7453777073429 3625.1857142857143 711.4072900158478 3655.7 710.3930269413629 3686.214285714286 710.3930269413629 3716.7285714285713 710.3930269413629 3747.2428571428572 709.0406761753829 3777.7571428571428 709.0406761753829 3808.2714285714287 708.026413100898 3838.785714285714 706.6740623349181 3869.3 705.6597992604331 3899.8142857142857 704.6455361859482 3930.328571428571 704.6455361859482 3960.842857142857 704.3074484944532 3991.357142857143 703.9693608029582 4021.8714285714286 703.9693608029582 4052.385714285714 703.6312731114633 4082.9 703.2931854199683 4113.414285714286 702.6170100369784 4143.928571428572 701.2646592709984 4174.442857142857 700.5884838880085 4204.957142857143 699.5742208135234 4235.471428571429 698.8980454305336 4265.9857142857145 698.8980454305336 4296.5 695.8552562070787 4296.5 554.8726888536714 4265.9857142857145 557.9154780771263 4235.471428571429 557.9154780771263 4204.957142857143 558.9297411516111 4174.442857142857 560.9582673005812 4143.928571428572 561.634442683571 4113.414285714286 562.986793449551 4082.9 564.3391442155308 4052.385714285714 565.3534072900159 4021.8714285714286 565.6914949815108 3991.357142857143 565.6914949815108 3960.842857142857 566.3676703645008 3930.328571428571 567.0438457474908 3899.8142857142857 567.0438457474908 3869.3 568.3961965134706 3838.785714285714 570.7628103539355 3808.2714285714287 572.1151611199155 3777.7571428571428 573.1294241944004 3747.2428571428572 574.4817749603803 3716.7285714285713 575.8341257263603 3686.214285714286 575.8341257263603 3655.7 576.1722134178552 3625.1857142857143 577.8626518753301 3594.671428571429 578.5388272583201 3564.157142857143 579.553090332805 3533.6428571428573 581.24352879028 3503.1285714285714 581.581616481775 3472.614285714286 581.9197041732699 3442.1 581.9197041732699 3411.5857142857144 583.6101426307448 3381.0714285714284 584.2863180137348 3350.557142857143 586.6529318541996 3320.042857142857 588.0052826201795 3289.5285714285715 588.6814580031696 3259.0142857142855 589.0195456946645 3228.5 590.3718964606445 3228.5 717.4928684627575Z" fill="#e62d39" opacity="0.9" />
		</g>
		<g>
			<path d="M3228.5 590.3718964606445 3259.0142857142855 589.0195456946645 3289.5285714285715 588.6814580031696 3320.042857142857 588.0052826201795 3350.557142857143 586.6529318541996 3381.0714285714284 584.2863180137348 3411.5857142857144 583.6101426307448 3442.1 581.9197041732699 3472.614285714286 581.9197041732699 3503.1285714285714 581.581616481775 3533.6428571428573 581.24352879028 3564.157142857143 579.553090332805 3594.671428571429 578.5388272583201 3625.1857142857143 577.8626518753301 3655.7 576.1722134178552 3686.214285714286 575.8341257263603 3716.7285714285713 575.8341257263603 3747.2428571428572 574.4817749603803 3777.7571428571428 573.1294241944004 3808.2714285714287 572.1151611199155 3838.785714285714 570.7628103539355 3869.3 568.3961965134706 3899.8142857142857 567.0438457474908 3930.328571428571 567.0438457474908 3960.842857142857 566.3676703645008 3991.357142857143 565.6914949815108 4021.8714285714286 565.6914949815108 4052.385714285714 565.3534072900159 4082.9 564.3391442155308 4113.414285714286 562.986793449551 4143.928571428572 561.634442683571 4174.442857142857 560.9582673005812 4204.957142857143 558.9297411516111 4235.471428571429 557.9154780771263 4265.9857142857145 557.9154780771263 4296.5 554.8726888536714 4296.5 491.6502905441099 4265.9857142857145 494.69307976756477 4235.471428571429 494.69307976756477 4204.957142857143 495.70734284204957 4174.442857142857 497.73586899101963 4143.928571428572 498.4120443740095 4113.414285714286 500.4405705229794 4082.9 501.79292128895923 4052.385714285714 502.80718436344426 4021.8714285714286 503.4833597464342 3991.357142857143 503.4833597464342 3960.842857142857 504.15953512942417 3930.328571428571 504.83571051241415 3899.8142857142857 504.83571051241415 3869.3 506.188061278394 3838.785714285714 508.5546751188589 3808.2714285714287 509.90702588483884 3777.7571428571428 510.92128895932376 3747.2428571428572 512.2736397253037 3716.7285714285713 513.6259904912837 3686.214285714286 513.6259904912837 3655.7 513.9640781827786 3625.1857142857143 515.6545166402535 3594.671428571429 516.3306920232435 3564.157142857143 517.3449550977284 3533.6428571428573 519.0353935552034 3503.1285714285714 519.3734812466984 3472.614285714286 519.7115689381933 3442.1 519.7115689381933 3411.5857142857144 521.4020073956682 3381.0714285714284 522.0781827786582 3350.557142857143 524.4447966191229 3320.042857142857 525.7971473851029 3289.5285714285715 526.473322768093 3259.0142857142855 526.8114104595879 3228.5 528.1637612255679 3228.5 590.3718964606445Z" fill="#005aa6" opacity="0.9" />
		</g>
		<g>
			<path d="M3228.5 528.1637612255679 3259.0142857142855 526.8114104595879 3289.5285714285715 526.473322768093 3320.042857142857 525.7971473851029 3350.557142857143 524.4447966191229 3381.0714285714284 522.0781827786582 3411.5857142857144 521.4020073956682 3442.1 519.7115689381933 3472.614285714286 519.7115689381933 3503.1285714285714 519.3734812466984 3533.6428571428573 519.0353935552034 3564.157142857143 517.3449550977284 3594.671428571429 516.3306920232435 3625.1857142857143 515.6545166402535 3655.7 513.9640781827786 3686.214285714286 513.6259904912837 3716.7285714285713 513.6259904912837 3747.2428571428572 512.2736397253037 3777.7571428571428 510.92128895932376 3808.2714285714287 509.90702588483884 3838.785714285714 508.5546751188589 3869.3 506.188061278394 3899.8142857142857 504.83571051241415 3930.328571428571 504.83571051241415 3960.842857142857 504.15953512942417 3991.357142857143 503.4833597464342 4021.8714285714286 503.4833597464342 4052.385714285714 502.80718436344426 4082.9 501.79292128895923 4113.414285714286 500.4405705229794 4143.928571428572 498.4120443740095 4174.442857142857 497.73586899101963 4204.957142857143 495.70734284204957 4235.471428571429 494.69307976756477 4265.9857142857145 494.69307976756477 4296.5 491.6502905441099 4296.5 441.9513998943476 4265.9857142857145 444.9941891178025 4235.471428571429 444.9941891178025 4204.957142857143 446.34653988378227 4174.442857142857 448.7131537242473 4143.928571428572 449.3893291072372 4113.414285714286 451.4178552562071 4082.9 452.7702060221869 4052.385714285714 454.46064447966194 4021.8714285714286 455.1368198626518 3991.357142857143 455.1368198626518 3960.842857142857 455.8129952456418 3930.328571428571 456.48917062863177 3899.8142857142857 456.48917062863177 3869.3 458.1796090861066 3838.785714285714 461.22239830956147 3808.2714285714287 462.57474907554143 3777.7571428571428 463.58901215002635 3747.2428571428572 464.9413629160063 3716.7285714285713 466.63180137348127 3686.214285714286 466.96988906497626 3655.7 467.9841521394611 3625.1857142857143 470.012678288431 3594.671428571429 470.688853671421 3564.157142857143 471.7031167459059 3533.6428571428573 473.7316428948759 3503.1285714285714 474.06973058637084 3472.614285714286 474.4078182778658 3442.1 474.4078182778658 3411.5857142857144 477.1125198098256 3381.0714285714284 478.12678288431056 3350.557142857143 480.4933967247753 3320.042857142857 482.1838351822503 3289.5285714285715 483.19809825673536 3259.0142857142855 483.8742736397253 3228.5 485.90279978869523 3228.5 528.1637612255679Z" fill="#f6a118" opacity="0.9" />
		</g>
		<g>
			<path d="M3228.5 485.90279978869523 3259.0142857142855 483.8742736397253 3289.5285714285715 483.19809825673536 3320.042857142857 482.1838351822503 3350.557142857143 480.4933967247753 3381.0714285714284 478.12678288431056 3411.5857142857144 477.1125198098256 3442.1 474.4078182778658 3472.614285714286 474.4078182778658 3503.1285714285714 474.06973058637084 3533.6428571428573 473.7316428948759 3564.157142857143 471.7031167459059 3594.671428571429 470.688853671421 3625.1857142857143 470.012678288431 3655.7 467.9841521394611 3686.214285714286 466.96988906497626 3716.7285714285713 466.63180137348127 3747.2428571428572 464.9413629160063 3777.7571428571428 463.58901215002635 3808.2714285714287 462.57474907554143 3838.785714285714 461.22239830956147 3869.3 458.1796090861066 3899.8142857142857 456.48917062863177 3930.328571428571 456.48917062863177 3960.842857142857 455.8129952456418 3991.357142857143 455.1368198626518 4021.8714285714286 455.1368198626518 4052.385714285714 454.46064447966194 4082.9 452.7702060221869 4113.414285714286 451.4178552562071 4143.928571428572 449.3893291072372 4174.442857142857 448.7131537242473 4204.957142857143 446.34653988378227 4235.471428571429 444.9941891178025 4265.9857142857145 444.9941891178025 4296.5 441.9513998943476 4296.5 413.8901215002642 4265.9857142857145 416.93291072371903 4235.471428571429 416.93291072371903 4204.957142857143 418.2852614896988 4174.442857142857 420.6518753301639 4143.928571428572 421.32805071315374 4113.414285714286 423.35657686212363 4082.9 424.7089276281035 4052.385714285714 426.3993660855785 4021.8714285714286 427.07554146856836 3991.357142857143 427.4136291600633 3960.842857142857 428.0898045430533 3930.328571428571 428.76597992604326 3899.8142857142857 428.76597992604326 3869.3 430.4564183835181 3838.785714285714 433.49920760697296 3808.2714285714287 434.8515583729529 3777.7571428571428 435.86582144743784 3747.2428571428572 437.2181722134178 3716.7285714285713 438.90861067089276 3686.214285714286 439.24669836238775 3655.7 440.2609614368726 3625.1857142857143 442.2894875858425 3594.671428571429 442.9656629688325 3564.157142857143 443.9799260433174 3533.6428571428573 446.0084521922874 3503.1285714285714 446.3465398837823 3472.614285714286 446.68462757527726 3442.1 446.68462757527726 3411.5857142857144 449.3893291072371 3381.0714285714284 450.40359218172205 3350.557142857143 452.7702060221868 3320.042857142857 454.46064447966177 3289.5285714285715 455.47490755414685 3259.0142857142855 456.1510829371368 3228.5 458.1796090861067 3228.5 485.90279978869523Z" fill="#f48c7d" opacity="0.9" />
		</g>
		<g>
			<path d="M3228.5 458.1796090861067 3259.0142857142855 456.1510829371368 3289.5285714285715 455.47490755414685 3320.042857142857 454.46064447966177 3350.557142857143 452.7702060221868 3381.0714285714284 450.40359218172205 3411.5857142857144 449.3893291072371 3442.1 446.68462757527726 3472.614285714286 446.68462757527726 3503.1285714285714 446.3465398837823 3533.6428571428573 446.0084521922874 3564.157142857143 443.9799260433174 3594.671428571429 442.9656629688325 3625.1857142857143 442.2894875858425 3655.7 440.2609614368726 3686.214285714286 439.24669836238775 3716.7285714285713 438.90861067089276 3747.2428571428572 437.2181722134178 3777.7571428571428 435.86582144743784 3808.2714285714287 434.8515583729529 3838.785714285714 433.49920760697296 3869.3 430.4564183835181 3899.8142857142857 428.76597992604326 3930.328571428571 428.76597992604326 3960.842857142857 428.0898045430533 3991.357142857143 427.4136291600633 4021.8714285714286 427.07554146856836 4052.385714285714 426.3993660855785 4082.9 424.7089276281035 4113.414285714286 423.35657686212363 4143.928571428572 421.32805071315374 4174.442857142857 420.6518753301639 4204.957142857143 418.2852614896988 4235.471428571429 416.93291072371903 4265.9857142857145 416.93291072371903 4296.5 413.8901215002642 4296.5 398.00000000000006 4265.9857142857145 401.0427892234549 4235.471428571429 401.0427892234549 4204.957142857143 402.3951399894347 4174.442857142857 404.76175382989976 4143.928571428572 405.09984152139464 4113.414285714286 407.8045430533545 4082.9 409.15689381933436 4052.385714285714 410.84733227680937 4021.8714285714286 411.52350765979924 3991.357142857143 411.86159535129417 3960.842857142857 412.53777073428415 3930.328571428571 413.21394611727413 3899.8142857142857 413.21394611727413 3869.3 414.904384574749 3838.785714285714 417.94717379820383 3808.2714285714287 419.2995245641838 3777.7571428571428 420.3137876386687 3747.2428571428572 421.6661384046487 3716.7285714285713 423.35657686212363 3686.214285714286 423.6946645536186 3655.7 424.7089276281035 3625.1857142857143 426.73745377707337 3594.671428571429 427.41362916006335 3564.157142857143 428.42789223454827 3533.6428571428573 430.45641838351827 3503.1285714285714 430.7945060750132 3472.614285714286 431.13259376650814 3442.1 431.13259376650814 3411.5857142857144 433.83729529846795 3381.0714285714284 434.8515583729529 3350.557142857143 437.2181722134177 3320.042857142857 438.90861067089264 3289.5285714285715 439.92287374537773 3259.0142857142855 440.59904912836765 3228.5 442.6275752773376 3228.5 458.1796090861067Z" fill="#55c0e9" opacity="0.9" />
		</g>
		<g>
			<rect x="4372" y="431" width="22.9995" height="23" fill="#fdd5a4" />
		</g>
		<g>
			<text fill="#595959" font-family="Verdana,sans-serif" font-weight="400" font-size="41" transform="matrix(1 0 0 1 4404.56 454)">Other</text>
		</g>
		<g>
			<rect x="4372" y="508" width="22.9995" height="23" fill="#e62d39" />
		</g>
		<g>
			<text fill="#595959" font-family="Verdana,sans-serif" font-weight="400" font-size="41" transform="matrix(1 0 0 1 4404.56 531)">iOS</text>
		</g>
		<g>
			<rect x="4372" y="585" width="22.9995" height="23" fill="#005aa6" />
		</g>
		<g>
			<text fill="#595959" font-family="Verdana,sans-serif" font-weight="400" font-size="41" transform="matrix(1 0 0 1 4404.56 608)">Android</text>
		</g>
		<g>
			<rect x="4372" y="662" width="22.9995" height="23" fill="#f6a118" />
		</g>
		<g>
			<text fill="#595959" font-family="Verdana,sans-serif" font-weight="400" font-size="41" transform="matrix(1 0 0 1 4404.56 685)">macOS</text>
		</g>
		<g>
			<rect x="4372" y="739" width="22.9995" height="23" fill="#f48c7d" />
		</g>
		<g>
			<text fill="#595959" font-family="Verdana,sans-serif" font-weight="400" font-size="41" transform="matrix(1 0 0 1 4404.56 762)">Linux</text>
		</g>
		<g>
			<rect x="4372" y="816" width="22.9995" height="23" fill="#55c0e9" />
		</g>
		<g>
			<text fill="#595959" font-family="Verdana,sans-serif" font-weight="400" font-size="41" transform="matrix(1 0 0 1 4404.56 839)">Windows</text>
		</g>
	</g>
</svg>
