<svg width="1763" height="1046"
    xmlns="http://www.w3.org/2000/svg"
	xmlns:xlink="http://www.w3.org/1999/xlink" xml:space="preserve" overflow="hidden">
	<defs>
		<clipPath id="clip0">
			<rect x="2917" y="346" width="1763" height="1046"/>
		</clipPath>
	</defs>
	<g clip-path="url(#clip0)" transform="translate(-2917 -346)">
		<rect x="2918" y="347" width="1760" height="1043" fill="#FFFFFF" />
		<g>
			<path d="
			M3228.5 974.532 4296.5 974.532
			M3228.5 910.53 4296.5 910.53
			M3228.5 846.528 4296.5 846.528
			M3228.5 781.526 4296.5 781.526
			M3228.5 717.524 4296.5 717.524
			M3228.5 653.522 4296.5 653.522
			M3228.5 589.52 4296.5 589.52
			M3228.5 525.517 4296.5 525.517
			M3228.5 461.515 4296.5 461.515
			M3228.5 397.5 4296.5 397.5" stroke="#D9D9D9" stroke-width="3.4375" stroke-linejoin="round" stroke-miterlimit="10" fill="none" />
		</g>
		<g>
			<path d="M 1038.5 4296.5 1038.5" stroke="#D9D9D9" stroke-width="3.4375" stroke-linejoin="round" stroke-miterlimit="10" fill="none" fill-rule="evenodd" />
		</g>
		<g>
			<text fill="#595959" font-family="Verdana,Open Sans,DejaVu Sans,sans-serif" font-weight="400" font-size="41" transform="matrix(6.12323e-17 -1 1 6.12323e-17 3243.564697265625 1207.0859375)">09-Dec</text>
		</g>
		<g>
			<text fill="#595959" font-family="Verdana,Open Sans,DejaVu Sans,sans-serif" font-weight="400" font-size="41" transform="matrix(6.12323e-17 -1 1 6.12323e-17 3332.65826171875 1191.6508712768555)">06-Jan</text>
		</g>
		<g>
			<text fill="#595959" font-family="Verdana,Open Sans,DejaVu Sans,sans-serif" font-weight="400" font-size="41" transform="matrix(6.12323e-17 -1 1 6.12323e-17 3415.155390625 1203.0419921875)">03-Feb</text>
		</g>
		<g>
			<text fill="#595959" font-family="Verdana,Open Sans,DejaVu Sans,sans-serif" font-weight="400" font-size="41" transform="matrix(6.12323e-17 -1 1 6.12323e-17 3499.884697265625 1212.0107421875)">03-Mar</text>
		</g>
		<g>
			<text fill="#595959" font-family="Verdana,Open Sans,DejaVu Sans,sans-serif" font-weight="400" font-size="41" transform="matrix(6.12323e-17 -1 1 6.12323e-17 3585.304677734375 1212.1708984375)">31-Mar</text>
		</g>
		<g>
			<text fill="#595959" font-family="Verdana,Open Sans,DejaVu Sans,sans-serif" font-weight="400" font-size="41" transform="matrix(6.12323e-17 -1 1 6.12323e-17 3675.469287109375 1203.3022384643555)">28-Apr</text>
		</g>
		<g>
			<text fill="#595959" font-family="Verdana,Open Sans,DejaVu Sans,sans-serif" font-weight="400" font-size="41" transform="matrix(6.12323e-17 -1 1 6.12323e-17 3760.909287109375 1216.51513671875)">26-May</text>
		</g>
		<g>
			<text fill="#595959" font-family="Verdana,Open Sans,DejaVu Sans,sans-serif" font-weight="400" font-size="41" transform="matrix(6.12323e-17 -1 1 6.12323e-17 3845.29826171875 1194.1733322143555)">30-Jun</text>
		</g>
		<g>
			<text fill="#595959" font-family="Verdana,Open Sans,DejaVu Sans,sans-serif" font-weight="400" font-size="41" transform="matrix(6.12323e-17 -1 1 6.12323e-17 3931.448955078125 1179.0385665893555)">28-Jul</text>
		</g>
		<g>
			<text fill="#595959" font-family="Verdana,Open Sans,DejaVu Sans,sans-serif" font-weight="400" font-size="41" transform="matrix(6.12323e-17 -1 1 6.12323e-17 4017.229287109375 1208.66748046875)">25-Aug</text>
		</g>
		<g>
			<text fill="#595959" font-family="Verdana,Open Sans,DejaVu Sans,sans-serif" font-weight="400" font-size="41" transform="matrix(6.12323e-17 -1 1 6.12323e-17 4102.669287109375 1204.42333984375)">22-Sep</text>
		</g>
		<g>
			<text fill="#595959" font-family="Verdana,Open Sans,DejaVu Sans,sans-serif" font-weight="400" font-size="41" transform="matrix(6.12323e-17 -1 1 6.12323e-17 4183.404697265625 1201.1401290893555)">20-Oct</text>
		</g>
		<g>
			<text fill="#595959" font-family="Verdana,Open Sans,DejaVu Sans,sans-serif" font-weight="400" font-size="41" transform="matrix(6.12323e-17 -1 1 6.12323e-17 4268.61447265625 1209.70849609375)">17-Nov</text>
		</g>
		<g>
			<text fill="#595959" font-family="Verdana,Open Sans,DejaVu Sans,sans-serif" font-weight="400" font-size="41" transform="matrix(1 0 0 1 3135.4482421875 1050)">0%</text>
		</g>
		<g>
			<text fill="#595959" font-family="Verdana,Open Sans,DejaVu Sans,sans-serif" font-weight="400" font-size="41" transform="matrix(1 0 0 1 3111.96533203125 922)">20%</text>
		</g>
		<g>
			<text fill="#595959" font-family="Verdana,Open Sans,DejaVu Sans,sans-serif" font-weight="400" font-size="41" transform="matrix(1 0 0 1 3110.82421875 794)">40%</text>
		</g>
		<g>
			<text fill="#595959" font-family="Verdana,Open Sans,DejaVu Sans,sans-serif" font-weight="400" font-size="41" transform="matrix(1 0 0 1 3112.3056640625 666)">60%</text>
		</g>
		<g>
			<text fill="#595959" font-family="Verdana,Open Sans,DejaVu Sans,sans-serif" font-weight="400" font-size="41" transform="matrix(1 0 0 1 3112.04541015625 538)">80%</text>
		</g>
		<g>
			<text fill="#595959" font-family="Verdana,Open Sans,DejaVu Sans,sans-serif" font-weight="400" font-size="41" transform="matrix(1 0 0 1 3090.2841796875 410)">100%</text>
		</g>
		<g>
			<text fill="#595959" font-family="Verdana,Open Sans,DejaVu Sans,sans-serif" font-weight="400" font-size="41" transform="matrix(1 0 0 1 3556.97119140625 1321)">Week Commencing</text>
		</g>
		<g>
			<text fill="#595959" font-family="Verdana,Open Sans,DejaVu Sans,sans-serif" font-weight="400" font-size="46" transform="matrix(6.12323e-17 -1 1 6.12323e-17 3019.73 936.7665710449219)">Requests (% of Total)</text>
		</g>
		<rect x="2918.5" y="347.5" width="1760" height="1043" stroke="#D9D9D9" stroke-width="3.4375" stroke-linejoin="round" stroke-miterlimit="10" fill="none" />
		<g>
			<path d="M3228.5 1038 3249.86 1038 3271.22 1038 3292.58 1038 3313.94 1038 3335.3 1038 3356.66 1038 3378.02 1038 3399.38 1038 3420.74 1038 3442.1 1038 3463.46 1038 3484.82 1038 3506.18 1038 3527.54 1038 3548.9 1038 3570.26 1038 3591.62 1038 3612.98 1038 3634.34 1038 3655.7 1038 3677.06 1038 3698.42 1038 3719.7799999999997 1038 3741.14 1038 3762.5 1038 3783.86 1038 3805.2200000000003 1038 3826.58 1038 3847.94 1038 3869.3 1038 3890.66 1038 3912.02 1038 3933.38 1038 3954.74 1038 3976.1 1038 3997.46 1038 4018.8199999999997 1038 4040.18 1038 4061.54 1038 4082.9 1038 4104.26 1038 4125.62 1038 4146.98 1038 4168.34 1038 4189.7 1038 4211.0599999999995 1038 4232.42 1038 4253.78 1038 4275.139999999999 1038 4296.5 1038 4296.5 753.5875510114441 4275.139999999999 760.0049069239963 4253.78 757.9113031477688 4232.42 759.380873288005 4211.0599999999995 764.3156850172985 4189.7 764.3768419479462 4168.34 764.3547678374432 4146.98 764.4897401031296 4125.62 766.8609306167309 4104.26 766.8567475951404 4082.9 767.9192079463141 4061.54 768.908358113137 4040.18 771.7976640891548 4018.8199999999997 772.995900100849 3997.46 773.0047654751563 3976.1 774.0176159604634 3954.74 776.3680200175993 3933.38 776.3453368808368 3912.02 776.3465392709672 3890.66 776.3609674251002 3869.3 776.5119637903555 3847.94 778.9439765467624 3826.58 785.3332769215773 3805.2200000000003 785.3813296257167 3783.86 786.9316254516905 3762.5 788.064069053389 3741.14 789.5346539181728 3719.7799999999997 789.7270984819011 3698.42 789.5483223673614 3677.06 789.1007508003959 3655.7 788.5260313684701 3634.34 788.0511809237687 3612.98 787.8975793566815 3591.62 787.8180633391596 3570.26 787.5170102748218 3548.9 787.618537873506 3527.54 787.2996583717713 3506.18 786.777616251223 3484.82 786.3066035792257 3463.46 786.3287091523742 3442.1 786.0536469934276 3420.74 785.8291015970201 3399.38 785.589340317034 3378.02 786.2302623228909 3356.66 786.623186471336 3335.3 786.2571077613804 3313.94 786.2561836526764 3292.58 786.2162102486243 3271.22 786.0771147493706 3249.86 785.8224653785537 3228.5 785.745751063241 3228.5 1038Z" fill="#e62d39" opacity="0.9" />
		</g>
		<g>
			<path d="M3228.5 785.745751063241 3249.86 785.8224653785537 3271.22 786.0771147493706 3292.58 786.2162102486243 3313.94 786.2561836526764 3335.3 786.2571077613804 3356.66 786.623186471336 3378.02 786.2302623228909 3399.38 785.589340317034 3420.74 785.8291015970201 3442.1 786.0536469934276 3463.46 786.3287091523742 3484.82 786.3066035792257 3506.18 786.777616251223 3527.54 787.2996583717713 3548.9 787.618537873506 3570.26 787.5170102748218 3591.62 787.8180633391596 3612.98 787.8975793566815 3634.34 788.0511809237687 3655.7 788.5260313684701 3677.06 789.1007508003959 3698.42 789.5483223673614 3719.7799999999997 789.7270984819011 3741.14 789.5346539181728 3762.5 788.064069053389 3783.86 786.9316254516905 3805.2200000000003 785.3813296257167 3826.58 785.3332769215773 3847.94 778.9439765467624 3869.3 776.5119637903555 3890.66 776.3609674251002 3912.02 776.3465392709672 3933.38 776.3453368808368 3954.74 776.3680200175993 3976.1 774.0176159604634 3997.46 773.0047654751563 4018.8199999999997 772.995900100849 4040.18 771.7976640891548 4061.54 768.908358113137 4082.9 767.9192079463141 4104.26 766.8567475951404 4125.62 766.8609306167309 4146.98 764.4897401031296 4168.34 764.3547678374432 4189.7 764.3768419479462 4211.0599999999995 764.3156850172985 4232.42 759.380873288005 4253.78 757.9113031477688 4275.139999999999 760.0049069239963 4296.5 753.5875510114441 4296.5 530.163015188101 4275.139999999999 532.2645239373791 4253.78 531.3268574465264 4232.42 531.4166307781715 4211.0599999999995 531.7572224646864 4189.7 531.7708483166984 4168.34 531.8218985108718 4146.98 531.9849023445704 4125.62 531.7935729648713 4104.26 531.7864321784326 4082.9 531.5727707842481 4061.54 531.4390936505183 4040.18 532.2027211748189 4018.8199999999997 532.4711028871407 3997.46 532.4751666451237 3976.1 532.6424401194076 3954.74 532.3819588718641 3933.38 532.3762321494829 3912.02 532.3835012006392 3890.66 532.4008414612442 3869.3 531.9653947132791 3847.94 532.7065148297092 3826.58 534.1646402996798 3805.2200000000003 534.1813437994358 3783.86 534.0614406876781 3762.5 533.9651928337187 3741.14 533.7866116772315 3719.7799999999997 533.5868149898097 3698.42 533.4688532767087 3677.06 533.0768238550941 3655.7 532.663421242623 3634.34 532.2348192575948 3612.98 532.1820957819215 3591.62 532.3681470809754 3570.26 532.5201668090683 3548.9 532.4238251729188 3527.54 532.3835949473919 3506.18 531.9915975411402 3484.82 531.7252849940928 3463.46 531.7204662326122 3442.1 531.6284996533559 3420.74 531.5339960022333 3399.38 531.0725093725605 3378.02 531.2499409458121 3356.66 531.650700660379 3335.3 531.7063634722977 3313.94 531.7405716149474 3292.58 531.5084515547419 3271.22 531.1868422316874 3249.86 530.9096071067933 3228.5 530.6457625647856 3228.5 785.745751063241Z" fill="#005aa6" opacity="0.9" />
		</g>
		<g>
			<path d="M3228.5 530.6457625647856 3249.86 530.9096071067933 3271.22 531.1868422316874 3292.58 531.5084515547419 3313.94 531.7405716149474 3335.3 531.7063634722977 3356.66 531.650700660379 3378.02 531.2499409458121 3399.38 531.0725093725605 3420.74 531.5339960022333 3442.1 531.6284996533559 3463.46 531.7204662326122 3484.82 531.7252849940928 3506.18 531.9915975411402 3527.54 532.3835949473919 3548.9 532.4238251729188 3570.26 532.5201668090683 3591.62 532.3681470809754 3612.98 532.1820957819215 3634.34 532.2348192575948 3655.7 532.663421242623 3677.06 533.0768238550941 3698.42 533.4688532767087 3719.7799999999997 533.5868149898097 3741.14 533.7866116772315 3762.5 533.9651928337187 3783.86 534.0614406876781 3805.2200000000003 534.1813437994358 3826.58 534.1646402996798 3847.94 532.7065148297092 3869.3 531.9653947132791 3890.66 532.4008414612442 3912.02 532.3835012006392 3933.38 532.3762321494829 3954.74 532.3819588718641 3976.1 532.6424401194076 3997.46 532.4751666451237 4018.8199999999997 532.4711028871407 4040.18 532.2027211748189 4061.54 531.4390936505183 4082.9 531.5727707842481 4104.26 531.7864321784326 4125.62 531.7935729648713 4146.98 531.9849023445704 4168.34 531.8218985108718 4189.7 531.7708483166984 4211.0599999999995 531.7572224646864 4232.42 531.4166307781715 4253.78 531.3268574465264 4275.139999999999 532.2645239373791 4296.5 530.163015188101 4296.5 490.7185530259544 4275.139999999999 492.30515321923616 4253.78 491.64116500384506 4232.42 491.78456573649515 4211.0599999999995 491.92955522350275 4189.7 491.93920435370626 4168.34 491.9768227136466 4146.98 492.1505952348429 4125.62 491.85600669794854 4104.26 491.8513930148632 4082.9 491.63219577145946 4061.54 491.4978977886208 4040.18 491.99009410225506 4018.8199999999997 492.16551794945576 3997.46 492.1686259707535 3976.1 492.21654806017045 3954.74 491.7116461371828 3933.38 491.70767780671554 3912.02 491.71346164432515 3890.66 491.7282826494978 3869.3 491.33050875804906 3847.94 491.76141449343754 3826.58 492.74242973299926 3805.2200000000003 492.75457857238825 3783.86 492.5918650008465 3762.5 492.35892132336346 3741.14 492.0889325160488 3719.7799999999997 491.69189364771574 3698.42 491.3732427741912 3677.06 490.8088740577118 3655.7 490.31149608874114 3634.34 489.77877115088484 3612.98 489.5616092932336 3591.62 489.5397849514939 3570.26 489.5595335703314 3548.9 489.2933239946325 3527.54 489.0834397469836 3506.18 488.66304187283265 3484.82 488.3428044802121 3463.46 488.19986039125524 3442.1 488.0196039547259 3420.74 487.9026766907719 3399.38 487.52222153261044 3378.02 487.70696592491663 3356.66 488.0115104957247 3335.3 487.963793616364 3313.94 487.98949737367803 3292.58 487.70292525839443 3271.22 487.3692026626984 3249.86 487.1072160964907 3228.5 486.9097754632236 3228.5 530.6457625647856Z" fill="#55c0e9" opacity="0.9" />
		</g>
		<g>
			<path d="M3228.5 486.9097754632236 3249.86 487.1072160964907 3271.22 487.3692026626984 3292.58 487.70292525839443 3313.94 487.98949737367803 3335.3 487.963793616364 3356.66 488.0115104957247 3378.02 487.70696592491663 3399.38 487.52222153261044 3420.74 487.9026766907719 3442.1 488.0196039547259 3463.46 488.19986039125524 3484.82 488.3428044802121 3506.18 488.66304187283265 3527.54 489.0834397469836 3548.9 489.2933239946325 3570.26 489.5595335703314 3591.62 489.5397849514939 3612.98 489.5616092932336 3634.34 489.77877115088484 3655.7 490.31149608874114 3677.06 490.8088740577118 3698.42 491.3732427741912 3719.7799999999997 491.69189364771574 3741.14 492.0889325160488 3762.5 492.35892132336346 3783.86 492.5918650008465 3805.2200000000003 492.75457857238825 3826.58 492.74242973299926 3847.94 491.76141449343754 3869.3 491.33050875804906 3890.66 491.7282826494978 3912.02 491.71346164432515 3933.38 491.70767780671554 3954.74 491.7116461371828 3976.1 492.21654806017045 3997.46 492.1686259707535 4018.8199999999997 492.16551794945576 4040.18 491.99009410225506 4061.54 491.4978977886208 4082.9 491.63219577145946 4104.26 491.8513930148632 4125.62 491.85600669794854 4146.98 492.1505952348429 4168.34 491.9768227136466 4189.7 491.93920435370626 4211.0599999999995 491.92955522350275 4232.42 491.78456573649515 4253.78 491.64116500384506 4275.139999999999 492.30515321923616 4296.5 490.7185530259544 4296.5 479.4072866140748 4275.139999999999 480.96640637284213 4253.78 480.2698842349475 4232.42 480.4907637351383 4211.0599999999995 480.4086170616429 4189.7 480.41676419469263 4168.34 480.45029730465194 4146.98 480.6272134139708 4125.62 480.40305013594224 4104.26 480.39917600110454 4082.9 480.2978208961403 4061.54 480.1378211447884 4040.18 480.4875119170523 4018.8199999999997 480.62062646338103 3997.46 480.623498410782 3976.1 480.6254558284506 3954.74 479.9434244465183 3933.38 479.939862628262 3912.02 479.94505960714844 3890.66 479.95902615881243 3869.3 479.5505692873087 3847.94 479.86304908787844 3826.58 480.59388216933854 3805.2200000000003 480.6043736648512 3783.86 480.3867647714376 3762.5 480.0939647438401 3741.14 479.7308663765565 3719.7799999999997 479.2808407307956 3698.42 478.9041807209399 3677.06 478.2910364979862 3655.7 477.7828333755948 3634.34 477.2431626623622 3612.98 476.9834739801712 3591.62 476.8973696844754 3570.26 476.8748020982269 3548.9 476.5669923893315 3527.54 476.3174497919625 3506.18 475.8998014736065 3484.82 475.5839065563437 3463.46 475.4761084872438 3442.1 475.3862262172437 3420.74 475.3370518496447 3399.38 475.01380165868795 3378.02 475.19871497996326 3356.66 475.4695361222137 3335.3 475.3984900629857 3313.94 475.42158037858417 3292.58 475.17281446854633 3271.22 474.89392113663916 3249.86 474.6976120214668 3228.5 474.5506870011159 3228.5 486.9097754632236Z" fill="#f6a118" opacity="0.9" />
		</g>
		<g>
			<path d="M3228.5 474.5506870011159 3249.86 474.6976120214668 3271.22 474.89392113663916 3292.58 475.17281446854633 3313.94 475.42158037858417 3335.3 475.3984900629857 3356.66 475.4695361222137 3378.02 475.19871497996326 3399.38 475.01380165868795 3420.74 475.3370518496447 3442.1 475.3862262172437 3463.46 475.4761084872438 3484.82 475.5839065563437 3506.18 475.8998014736065 3527.54 476.3174497919625 3548.9 476.5669923893315 3570.26 476.8748020982269 3591.62 476.8973696844754 3612.98 476.9834739801712 3634.34 477.2431626623622 3655.7 477.7828333755948 3677.06 478.2910364979862 3698.42 478.9041807209399 3719.7799999999997 479.2808407307956 3741.14 479.7308663765565 3762.5 480.0939647438401 3783.86 480.3867647714376 3805.2200000000003 480.6043736648512 3826.58 480.59388216933854 3847.94 479.86304908787844 3869.3 479.5505692873087 3890.66 479.95902615881243 3912.02 479.94505960714844 3933.38 479.939862628262 3954.74 479.9434244465183 3976.1 480.6254558284506 3997.46 480.623498410782 4018.8199999999997 480.62062646338103 4040.18 480.4875119170523 4061.54 480.1378211447884 4082.9 480.2978208961403 4104.26 480.39917600110454 4125.62 480.40305013594224 4146.98 480.6272134139708 4168.34 480.45029730465194 4189.7 480.41676419469263 4211.0599999999995 480.4086170616429 4232.42 480.4907637351383 4253.78 480.2698842349475 4275.139999999999 480.96640637284213 4296.5 479.4072866140748 4296.5 475.13902259765536 4275.139999999999 476.6264014136676 4253.78 475.9675036747879 4232.42 476.1855240028958 4211.0599999999995 476.0304088632991 4189.7 476.03986709155856 4168.34 476.07416075277575 4146.98 476.25220661385714 4125.62 475.9804259287693 4104.26 475.9771097573116 4082.9 475.85734943037994 4061.54 475.67113203039463 4040.18 475.9445091636468 4018.8199999999997 476.0428252544268 3997.46 476.0456947164946 3976.1 476.0126442187972 3954.74 475.2164345015217 3933.38 475.2129700329708 3912.02 475.2181577191099 3890.66 475.2322484984899 3869.3 474.81810616673476 3847.94 475.10657399076854 3826.58 475.80132801818854 3805.2200000000003 475.81236587515644 3783.86 475.5856075858726 3762.5 475.27426702627764 3741.14 474.8948962586183 3719.7799999999997 474.4350271056565 3698.42 474.05181534663 3677.06 473.42902823737313 3655.7 472.9107308902232 3634.34 472.36696232860294 3612.98 472.1032861179079 3591.62 472.0144834613813 3570.26 471.9842446739753 3548.9 471.6750167092698 3527.54 471.4189705364595 3506.18 471.014308300106 3484.82 470.70930139261014 3463.46 470.6068920841123 3442.1 470.536768979531 3420.74 470.512126738405 3399.38 470.2333783951094 3378.02 470.4295066297548 3356.66 470.71094768423825 3335.3 470.68875235151756 3313.94 470.711078323044 3292.58 470.4984896905413 3271.22 470.2545246926675 3249.86 470.08674988315875 3228.5 469.9671028094188 3228.5 474.5506870011159Z" fill="#fdd5a4" opacity="0.9" />
		</g>
		<g>
			<path d="M3228.5 469.9671028094188 3249.86 470.08674988315875 3271.22 470.2545246926675 3292.58 470.4984896905413 3313.94 470.711078323044 3335.3 470.68875235151756 3356.66 470.71094768423825 3378.02 470.4295066297548 3399.38 470.2333783951094 3420.74 470.512126738405 3442.1 470.536768979531 3463.46 470.6068920841123 3484.82 470.70930139261014 3506.18 471.014308300106 3527.54 471.4189705364595 3548.9 471.6750167092698 3570.26 471.9842446739753 3591.62 472.0144834613813 3612.98 472.1032861179079 3634.34 472.36696232860294 3655.7 472.9107308902232 3677.06 473.42902823737313 3698.42 474.05181534663 3719.7799999999997 474.4350271056565 3741.14 474.8948962586183 3762.5 475.27426702627764 3783.86 475.5856075858726 3805.2200000000003 475.81236587515644 3826.58 475.80132801818854 3847.94 475.10657399076854 3869.3 474.81810616673476 3890.66 475.2322484984899 3912.02 475.2181577191099 3933.38 475.2129700329708 3954.74 475.2164345015217 3976.1 476.0126442187972 3997.46 476.0456947164946 4018.8199999999997 476.0428252544268 4040.18 475.9445091636468 4061.54 475.67113203039463 4082.9 475.85734943037994 4104.26 475.9771097573116 4125.62 475.9804259287693 4146.98 476.25220661385714 4168.34 476.07416075277575 4189.7 476.03986709155856 4211.0599999999995 476.0304088632991 4232.42 476.1855240028958 4253.78 475.9675036747879 4275.139999999999 476.6264014136676 4296.5 475.13902259765536 4296.5 472.0370495671892 4275.139999999999 473.4135261402591 4253.78 472.6948042788454 4232.42 472.8722901716775 4211.0599999999995 472.3229333883161 4189.7 472.33160122478233 4168.34 472.3663150934169 4146.98 472.5454339613937 4125.62 472.089365302357 4104.26 472.0865469044695 4082.9 471.87656051033446 4061.54 471.6164928135846 4040.18 471.7330711807051 4018.8199999999997 471.76332000605703 3997.46 471.766218855925 3976.1 471.666704132637 3954.74 470.5946289838734 3933.38 470.5925960519466 3912.02 470.5979497527046 3890.66 470.6143953187705 3869.3 470.16763283113994 3847.94 470.4164498778376 3826.58 471.0661628206815 3805.2200000000003 471.07731696753683 3783.86 470.8209639445631 3762.5 470.4605146316375 3741.14 469.9795822434353 3719.7799999999997 469.45753010676304 3698.42 469.00707612997155 3677.06 468.3152661342126 3655.7 467.73514405195505 3634.34 467.13787830023045 3612.98 466.8018186815908 3591.62 466.6374618686549 3570.26 466.54215183048984 3548.9 466.2228711653022 3527.54 465.9001213956365 3506.18 465.4390074188502 3484.82 465.07678566777196 3463.46 464.9033783038482 3442.1 464.78158180585166 3420.74 464.7260968061159 3399.38 464.4723890087735 3378.02 464.6844034193931 3356.66 464.9715947829818 3335.3 464.9499237655363 3313.94 464.9713870250645 3292.58 464.7567393127636 3271.22 464.5132259653092 3249.86 464.3461599383073 3228.5 464.26375937292056 3228.5 469.9671028094188Z" fill="#f48c7d" opacity="0.9" />
		</g>
		<g>
			<path d="M3228.5 464.26375937292056 3249.86 464.3461599383073 3271.22 464.5132259653092 3292.58 464.7567393127636 3313.94 464.9713870250645 3335.3 464.9499237655363 3356.66 464.9715947829818 3378.02 464.6844034193931 3399.38 464.4723890087735 3420.74 464.7260968061159 3442.1 464.78158180585166 3463.46 464.9033783038482 3484.82 465.07678566777196 3506.18 465.4390074188502 3527.54 465.9001213956365 3548.9 466.2228711653022 3570.26 466.54215183048984 3591.62 466.6374618686549 3612.98 466.8018186815908 3634.34 467.13787830023045 3655.7 467.73514405195505 3677.06 468.3152661342126 3698.42 469.00707612997155 3719.7799999999997 469.45753010676304 3741.14 469.9795822434353 3762.5 470.4605146316375 3783.86 470.8209639445631 3805.2200000000003 471.07731696753683 3826.58 471.0661628206815 3847.94 470.4164498778376 3869.3 470.16763283113994 3890.66 470.6143953187705 3912.02 470.5979497527046 3933.38 470.5925960519466 3954.74 470.5946289838734 3976.1 471.666704132637 3997.46 471.766218855925 4018.8199999999997 471.76332000605703 4040.18 471.7330711807051 4061.54 471.6164928135846 4082.9 471.87656051033446 4104.26 472.0865469044695 4125.62 472.089365302357 4146.98 472.5454339613937 4168.34 472.3663150934169 4189.7 472.33160122478233 4211.0599999999995 472.3229333883161 4232.42 472.8722901716775 4253.78 472.6948042788454 4275.139999999999 473.4135261402591 4296.5 472.0370495671892 4296.5 398 4275.139999999999 398 4253.78 397.99999999999994 4232.42 397.9999999999999 4211.0599999999995 398 4189.7 398 4168.34 398 4146.98 398.0000000000001 4125.62 398 4104.26 398 4082.9 398.0000000000002 4061.54 397.99999999999994 4040.18 398 4018.8199999999997 398.0000000000001 3997.46 398 3976.1 398.00000000000006 3954.74 398.00000000000006 3933.38 397.99999999999994 3912.02 398.00000000000017 3890.66 398 3869.3 398.00000000000017 3847.94 397.9999999999999 3826.58 397.9999999999999 3805.2200000000003 398.0000000000001 3783.86 397.9999999999999 3762.5 398 3741.14 397.9999999999999 3719.7799999999997 397.9999999999999 3698.42 398 3677.06 397.9999999999999 3655.7 398.0000000000001 3634.34 397.99999999999994 3612.98 398.0000000000001 3591.62 398.0000000000001 3570.26 398.0000000000001 3548.9 398.0000000000001 3527.54 398 3506.18 398.00000000000006 3484.82 398 3463.46 398 3442.1 397.9999999999999 3420.74 397.9999999999999 3399.38 398 3378.02 398 3356.66 398 3335.3 398 3313.94 398.0000000000001 3292.58 397.99999999999983 3271.22 397.9999999999999 3249.86 398.00000000000006 3228.5 397.9999999999999 3228.5 464.26375937292056Z" fill="#393d41" opacity="0.9" />
		</g>
		<g>
			<rect x="4372" y="431" width="22.9995" height="23" fill="#e62d39" />
		</g>
		<g>
			<text fill="#595959" font-family="Verdana,Open Sans,DejaVu Sans,sans-serif" font-weight="400" font-size="41" transform="matrix(1 0 0 1 4404.56 454)">Android</text>
		</g>
		<g>
			<rect x="4372" y="508" width="22.9995" height="23" fill="#005aa6" />
		</g>
		<g>
			<text fill="#595959" font-family="Verdana,Open Sans,DejaVu Sans,sans-serif" font-weight="400" font-size="41" transform="matrix(1 0 0 1 4404.56 531)">iOS</text>
		</g>
		<g>
			<rect x="4372" y="585" width="22.9995" height="23" fill="#55c0e9" />
		</g>
		<g>
			<text fill="#595959" font-family="Verdana,Open Sans,DejaVu Sans,sans-serif" font-weight="400" font-size="41" transform="matrix(1 0 0 1 4404.56 608)">Windows</text>
		</g>
		<g>
			<rect x="4372" y="662" width="22.9995" height="23" fill="#f6a118" />
		</g>
		<g>
			<text fill="#595959" font-family="Verdana,Open Sans,DejaVu Sans,sans-serif" font-weight="400" font-size="41" transform="matrix(1 0 0 1 4404.56 685)">macOS</text>
		</g>
		<g>
			<rect x="4372" y="739" width="22.9995" height="23" fill="#fdd5a4" />
		</g>
		<g>
			<text fill="#595959" font-family="Verdana,Open Sans,DejaVu Sans,sans-serif" font-weight="400" font-size="41" transform="matrix(1 0 0 1 4404.56 762)">Linux</text>
		</g>
		<g>
			<rect x="4372" y="816" width="22.9995" height="23" fill="#f48c7d" />
		</g>
		<g>
			<text fill="#595959" font-family="Verdana,Open Sans,DejaVu Sans,sans-serif" font-weight="400" font-size="41" transform="matrix(1 0 0 1 4404.56 839)">Other</text>
		</g>
		<g>
			<rect x="4372" y="893" width="22.9995" height="23" fill="#393d41" />
		</g>
		<g>
			<text fill="#595959" font-family="Verdana,Open Sans,DejaVu Sans,sans-serif" font-weight="400" font-size="41" transform="matrix(1 0 0 1 4404.56 916)">Unclassified</text>
		</g>
	</g>
</svg>
