<svg width="1763" height="1046"
    xmlns="http://www.w3.org/2000/svg"
	xmlns:xlink="http://www.w3.org/1999/xlink" xml:space="preserve" overflow="hidden">
	<defs>
		<clipPath id="clip0">
			<rect x="2917" y="346" width="1763" height="1046"/>
		</clipPath>
	</defs>
	<g clip-path="url(#clip0)" transform="translate(-2917 -346)">
		<rect x="2918" y="347" width="1760" height="1043" fill="#FFFFFF" />
		<g>
			<path d="
			M3228.5 974.532 4296.5 974.532
			M3228.5 910.53 4296.5 910.53
			M3228.5 846.528 4296.5 846.528
			M3228.5 781.526 4296.5 781.526
			M3228.5 717.524 4296.5 717.524
			M3228.5 653.522 4296.5 653.522
			M3228.5 589.52 4296.5 589.52
			M3228.5 525.517 4296.5 525.517
			M3228.5 461.515 4296.5 461.515
			M3228.5 397.5 4296.5 397.5" stroke="#D9D9D9" stroke-width="3.4375" stroke-linejoin="round" stroke-miterlimit="10" fill="none" />
		</g>
		<g>
			<path d="M 1038.5 4296.5 1038.5" stroke="#D9D9D9" stroke-width="3.4375" stroke-linejoin="round" stroke-miterlimit="10" fill="none" fill-rule="evenodd" />
		</g>
		<g>
			<text fill="#595959" font-family="Verdana,Open Sans,DejaVu Sans,sans-serif" font-weight="400" font-size="41" transform="matrix(6.12323e-17 -1 1 6.12323e-17 3243.564697265625 1201.1401290893555)">21-Oct</text>
		</g>
		<g>
			<text fill="#595959" font-family="Verdana,Open Sans,DejaVu Sans,sans-serif" font-weight="400" font-size="41" transform="matrix(6.12323e-17 -1 1 6.12323e-17 3328.984677734375 1209.70849609375)">18-Nov</text>
		</g>
		<g>
			<text fill="#595959" font-family="Verdana,Open Sans,DejaVu Sans,sans-serif" font-weight="400" font-size="41" transform="matrix(6.12323e-17 -1 1 6.12323e-17 3414.424677734375 1207.1259765625)">23-Dec</text>
		</g>
		<g>
			<text fill="#595959" font-family="Verdana,Open Sans,DejaVu Sans,sans-serif" font-weight="400" font-size="41" transform="matrix(6.12323e-17 -1 1 6.12323e-17 3503.53826171875 1191.6909103393555)">20-Jan</text>
		</g>
		<g>
			<text fill="#595959" font-family="Verdana,Open Sans,DejaVu Sans,sans-serif" font-weight="400" font-size="41" transform="matrix(6.12323e-17 -1 1 6.12323e-17 3586.035390625 1201.3203125)">17-Feb</text>
		</g>
		<g>
			<text fill="#595959" font-family="Verdana,Open Sans,DejaVu Sans,sans-serif" font-weight="400" font-size="41" transform="matrix(6.12323e-17 -1 1 6.12323e-17 3670.53447265625 1210.2890625)">17-Mar</text>
		</g>
		<g>
			<text fill="#595959" font-family="Verdana,Open Sans,DejaVu Sans,sans-serif" font-weight="400" font-size="41" transform="matrix(6.12323e-17 -1 1 6.12323e-17 3760.77916015625 1201.5405197143555)">14-Apr</text>
		</g>
		<g>
			<text fill="#595959" font-family="Verdana,Open Sans,DejaVu Sans,sans-serif" font-weight="400" font-size="41" transform="matrix(6.12323e-17 -1 1 6.12323e-17 3846.349287109375 1214.75341796875)">12-May</text>
		</g>
		<g>
			<text fill="#595959" font-family="Verdana,Open Sans,DejaVu Sans,sans-serif" font-weight="400" font-size="41" transform="matrix(6.12323e-17 -1 1 6.12323e-17 3930.7182421875 1192.2914962768555)">16-Jun</text>
		</g>
		<g>
			<text fill="#595959" font-family="Verdana,Open Sans,DejaVu Sans,sans-serif" font-weight="400" font-size="41" transform="matrix(6.12323e-17 -1 1 6.12323e-17 4016.888955078125 1177.2768478393555)">14-Jul</text>
		</g>
		<g>
			<text fill="#595959" font-family="Verdana,Open Sans,DejaVu Sans,sans-serif" font-weight="400" font-size="41" transform="matrix(6.12323e-17 -1 1 6.12323e-17 4102.519140625 1206.90576171875)">11-Aug</text>
		</g>
		<g>
			<text fill="#595959" font-family="Verdana,Open Sans,DejaVu Sans,sans-serif" font-weight="400" font-size="41" transform="matrix(6.12323e-17 -1 1 6.12323e-17 4188.129306640625 1204.38330078125)">08-Sep</text>
		</g>
		<g>
			<text fill="#595959" font-family="Verdana,Open Sans,DejaVu Sans,sans-serif" font-weight="400" font-size="41" transform="matrix(6.12323e-17 -1 1 6.12323e-17 4268.844697265625 1201.1000900268555)">06-Oct</text>
		</g>
		<g>
			<text fill="#595959" font-family="Verdana,Open Sans,DejaVu Sans,sans-serif" font-weight="400" font-size="41" transform="matrix(1 0 0 1 3135.4482421875 1050)">0%</text>
		</g>
		<g>
			<text fill="#595959" font-family="Verdana,Open Sans,DejaVu Sans,sans-serif" font-weight="400" font-size="41" transform="matrix(1 0 0 1 3111.96533203125 922)">20%</text>
		</g>
		<g>
			<text fill="#595959" font-family="Verdana,Open Sans,DejaVu Sans,sans-serif" font-weight="400" font-size="41" transform="matrix(1 0 0 1 3110.82421875 794)">40%</text>
		</g>
		<g>
			<text fill="#595959" font-family="Verdana,Open Sans,DejaVu Sans,sans-serif" font-weight="400" font-size="41" transform="matrix(1 0 0 1 3112.3056640625 666)">60%</text>
		</g>
		<g>
			<text fill="#595959" font-family="Verdana,Open Sans,DejaVu Sans,sans-serif" font-weight="400" font-size="41" transform="matrix(1 0 0 1 3112.04541015625 538)">80%</text>
		</g>
		<g>
			<text fill="#595959" font-family="Verdana,Open Sans,DejaVu Sans,sans-serif" font-weight="400" font-size="41" transform="matrix(1 0 0 1 3090.2841796875 410)">100%</text>
		</g>
		<g>
			<text fill="#595959" font-family="Verdana,Open Sans,DejaVu Sans,sans-serif" font-weight="400" font-size="41" transform="matrix(1 0 0 1 3556.97119140625 1321)">Week Commencing</text>
		</g>
		<g>
			<text fill="#595959" font-family="Verdana,Open Sans,DejaVu Sans,sans-serif" font-weight="400" font-size="46" transform="matrix(6.12323e-17 -1 1 6.12323e-17 3019.73 936.7665710449219)">Requests (% of Total)</text>
		</g>
		<rect x="2918.5" y="347.5" width="1760" height="1043" stroke="#D9D9D9" stroke-width="3.4375" stroke-linejoin="round" stroke-miterlimit="10" fill="none" />
		<g>
			<path d="M3228.5 1038 3249.86 1038 3271.22 1038 3292.58 1038 3313.94 1038 3335.3 1038 3356.66 1038 3378.02 1038 3399.38 1038 3420.74 1038 3442.1 1038 3463.46 1038 3484.82 1038 3506.18 1038 3527.54 1038 3548.9 1038 3570.26 1038 3591.62 1038 3612.98 1038 3634.34 1038 3655.7 1038 3677.06 1038 3698.42 1038 3719.7799999999997 1038 3741.14 1038 3762.5 1038 3783.86 1038 3805.2200000000003 1038 3826.58 1038 3847.94 1038 3869.3 1038 3890.66 1038 3912.02 1038 3933.38 1038 3954.74 1038 3976.1 1038 3997.46 1038 4018.8199999999997 1038 4040.18 1038 4061.54 1038 4082.9 1038 4104.26 1038 4125.62 1038 4146.98 1038 4168.34 1038 4189.7 1038 4211.0599999999995 1038 4232.42 1038 4253.78 1038 4275.139999999999 1038 4296.5 1038 4296.5 764.3547678374432 4275.139999999999 764.4897401031296 4253.78 766.8609306167309 4232.42 766.8567475951404 4211.0599999999995 767.9192079463141 4189.7 768.908358113137 4168.34 771.7976640891548 4146.98 772.995900100849 4125.62 773.0047654751563 4104.26 774.0176159604634 4082.9 776.3680200175993 4061.54 776.3453368808368 4040.18 776.3465392709672 4018.8199999999997 776.3609674251002 3997.46 776.5119637903555 3976.1 778.9439765467624 3954.74 785.3332769215773 3933.38 785.3813296257167 3912.02 786.9316254516905 3890.66 788.064069053389 3869.3 789.5346539181728 3847.94 789.7270984819011 3826.58 789.5483223673614 3805.2200000000003 789.1007508003959 3783.86 788.5260313684701 3762.5 788.0511809237687 3741.14 787.8975793566815 3719.7799999999997 787.8180633391596 3698.42 787.5170102748218 3677.06 787.618537873506 3655.7 787.2996583717713 3634.34 786.777616251223 3612.98 786.3066035792257 3591.62 786.3287091523742 3570.26 786.0536469934276 3548.9 785.8291015970201 3527.54 785.589340317034 3506.18 786.2302623228909 3484.82 786.623186471336 3463.46 786.2571077613804 3442.1 786.2561836526764 3420.74 786.2162102486243 3399.38 786.0771147493706 3378.02 785.8224653785537 3356.66 785.745751063241 3335.3 785.683921505688 3313.94 785.6995656667727 3292.58 785.6481077164551 3271.22 786.010971539933 3249.86 786.4738525233887 3228.5 839.4522622926443 3228.5 1038Z" fill="#e62d39" opacity="0.9" />
		</g>
		<g>
			<path d="M3228.5 839.4522622926443 3249.86 786.4738525233887 3271.22 786.010971539933 3292.58 785.6481077164551 3313.94 785.6995656667727 3335.3 785.683921505688 3356.66 785.745751063241 3378.02 785.8224653785537 3399.38 786.0771147493706 3420.74 786.2162102486243 3442.1 786.2561836526764 3463.46 786.2571077613804 3484.82 786.623186471336 3506.18 786.2302623228909 3527.54 785.589340317034 3548.9 785.8291015970201 3570.26 786.0536469934276 3591.62 786.3287091523742 3612.98 786.3066035792257 3634.34 786.777616251223 3655.7 787.2996583717713 3677.06 787.618537873506 3698.42 787.5170102748218 3719.7799999999997 787.8180633391596 3741.14 787.8975793566815 3762.5 788.0511809237687 3783.86 788.5260313684701 3805.2200000000003 789.1007508003959 3826.58 789.5483223673614 3847.94 789.7270984819011 3869.3 789.5346539181728 3890.66 788.064069053389 3912.02 786.9316254516905 3933.38 785.3813296257167 3954.74 785.3332769215773 3976.1 778.9439765467624 3997.46 776.5119637903555 4018.8199999999997 776.3609674251002 4040.18 776.3465392709672 4061.54 776.3453368808368 4082.9 776.3680200175993 4104.26 774.0176159604634 4125.62 773.0047654751563 4146.98 772.995900100849 4168.34 771.7976640891548 4189.7 768.908358113137 4211.0599999999995 767.9192079463141 4232.42 766.8567475951404 4253.78 766.8609306167309 4275.139999999999 764.4897401031296 4296.5 764.3547678374432 4296.5 531.8218985108718 4275.139999999999 531.9849023445704 4253.78 531.7935729648713 4232.42 531.7864321784326 4211.0599999999995 531.5727707842481 4189.7 531.4390936505183 4168.34 532.2027211748189 4146.98 532.4711028871407 4125.62 532.4751666451237 4104.26 532.6424401194076 4082.9 532.3819588718641 4061.54 532.3762321494829 4040.18 532.3835012006392 4018.8199999999997 532.4008414612442 3997.46 531.9653947132791 3976.1 532.7065148297092 3954.74 534.1646402996798 3933.38 534.1813437994358 3912.02 534.0614406876781 3890.66 533.9651928337187 3869.3 533.7866116772315 3847.94 533.5868149898097 3826.58 533.4688532767087 3805.2200000000003 533.0768238550941 3783.86 532.663421242623 3762.5 532.2348192575948 3741.14 532.1820957819215 3719.7799999999997 532.3681470809754 3698.42 532.5201668090683 3677.06 532.4238251729188 3655.7 532.3835949473919 3634.34 531.9915975411402 3612.98 531.7252849940928 3591.62 531.7204662326122 3570.26 531.6284996533559 3548.9 531.5339960022333 3527.54 531.0725093725605 3506.18 531.2499409458121 3484.82 531.650700660379 3463.46 531.7063634722977 3442.1 531.7405716149474 3420.74 531.5084515547419 3399.38 531.1868422316874 3378.02 530.9096071067933 3356.66 530.6457625647856 3335.3 530.2115588422516 3313.94 530.3749323864379 3292.58 530.816371903653 3271.22 531.5387166599613 3249.86 532.190445140906 3228.5 526.5102482737155 3228.5 839.4522622926443Z" fill="#005aa6" opacity="0.9" />
		</g>
		<g>
			<path d="M3228.5 526.5102482737155 3249.86 532.190445140906 3271.22 531.5387166599613 3292.58 530.816371903653 3313.94 530.3749323864379 3335.3 530.2115588422516 3356.66 530.6457625647856 3378.02 530.9096071067933 3399.38 531.1868422316874 3420.74 531.5084515547419 3442.1 531.7405716149474 3463.46 531.7063634722977 3484.82 531.650700660379 3506.18 531.2499409458121 3527.54 531.0725093725605 3548.9 531.5339960022333 3570.26 531.6284996533559 3591.62 531.7204662326122 3612.98 531.7252849940928 3634.34 531.9915975411402 3655.7 532.3835949473919 3677.06 532.4238251729188 3698.42 532.5201668090683 3719.7799999999997 532.3681470809754 3741.14 532.1820957819215 3762.5 532.2348192575948 3783.86 532.663421242623 3805.2200000000003 533.0768238550941 3826.58 533.4688532767087 3847.94 533.5868149898097 3869.3 533.7866116772315 3890.66 533.9651928337187 3912.02 534.0614406876781 3933.38 534.1813437994358 3954.74 534.1646402996798 3976.1 532.7065148297092 3997.46 531.9653947132791 4018.8199999999997 532.4008414612442 4040.18 532.3835012006392 4061.54 532.3762321494829 4082.9 532.3819588718641 4104.26 532.6424401194076 4125.62 532.4751666451237 4146.98 532.4711028871407 4168.34 532.2027211748189 4189.7 531.4390936505183 4211.0599999999995 531.5727707842481 4232.42 531.7864321784326 4253.78 531.7935729648713 4275.139999999999 531.9849023445704 4296.5 531.8218985108718 4296.5 491.9768227136466 4275.139999999999 492.1505952348429 4253.78 491.85600669794854 4232.42 491.8513930148632 4211.0599999999995 491.63219577145946 4189.7 491.4978977886208 4168.34 491.99009410225506 4146.98 492.16551794945576 4125.62 492.1686259707535 4104.26 492.21654806017045 4082.9 491.7116461371828 4061.54 491.70767780671554 4040.18 491.71346164432515 4018.8199999999997 491.7282826494978 3997.46 491.33050875804906 3976.1 491.76141449343754 3954.74 492.74242973299926 3933.38 492.75457857238825 3912.02 492.5918650008465 3890.66 492.35892132336346 3869.3 492.0889325160488 3847.94 491.69189364771574 3826.58 491.3732427741912 3805.2200000000003 490.8088740577118 3783.86 490.31149608874114 3762.5 489.77877115088484 3741.14 489.5616092932336 3719.7799999999997 489.5397849514939 3698.42 489.5595335703314 3677.06 489.2933239946325 3655.7 489.0834397469836 3634.34 488.66304187283265 3612.98 488.3428044802121 3591.62 488.19986039125524 3570.26 488.0196039547259 3548.9 487.9026766907719 3527.54 487.52222153261044 3506.18 487.70696592491663 3484.82 488.0115104957247 3463.46 487.963793616364 3442.1 487.98949737367803 3420.74 487.70292525839443 3399.38 487.3692026626984 3378.02 487.1072160964907 3356.66 486.9097754632236 3335.3 486.6466810104104 3313.94 486.8253712667305 3292.58 487.1725552495906 3271.22 487.81344975744275 3249.86 488.4006750879141 3228.5 478.7456085402515 3228.5 526.5102482737155Z" fill="#55c0e9" opacity="0.9" />
		</g>
		<g>
			<path d="M3228.5 478.7456085402515 3249.86 488.4006750879141 3271.22 487.81344975744275 3292.58 487.1725552495906 3313.94 486.8253712667305 3335.3 486.6466810104104 3356.66 486.9097754632236 3378.02 487.1072160964907 3399.38 487.3692026626984 3420.74 487.70292525839443 3442.1 487.98949737367803 3463.46 487.963793616364 3484.82 488.0115104957247 3506.18 487.70696592491663 3527.54 487.52222153261044 3548.9 487.9026766907719 3570.26 488.0196039547259 3591.62 488.19986039125524 3612.98 488.3428044802121 3634.34 488.66304187283265 3655.7 489.0834397469836 3677.06 489.2933239946325 3698.42 489.5595335703314 3719.7799999999997 489.5397849514939 3741.14 489.5616092932336 3762.5 489.77877115088484 3783.86 490.31149608874114 3805.2200000000003 490.8088740577118 3826.58 491.3732427741912 3847.94 491.69189364771574 3869.3 492.0889325160488 3890.66 492.35892132336346 3912.02 492.5918650008465 3933.38 492.75457857238825 3954.74 492.74242973299926 3976.1 491.76141449343754 3997.46 491.33050875804906 4018.8199999999997 491.7282826494978 4040.18 491.71346164432515 4061.54 491.70767780671554 4082.9 491.7116461371828 4104.26 492.21654806017045 4125.62 492.1686259707535 4146.98 492.16551794945576 4168.34 491.99009410225506 4189.7 491.4978977886208 4211.0599999999995 491.63219577145946 4232.42 491.8513930148632 4253.78 491.85600669794854 4275.139999999999 492.1505952348429 4296.5 491.9768227136466 4296.5 480.45029730465194 4275.139999999999 480.6272134139708 4253.78 480.40305013594224 4232.42 480.39917600110454 4211.0599999999995 480.2978208961403 4189.7 480.1378211447884 4168.34 480.4875119170523 4146.98 480.62062646338103 4125.62 480.623498410782 4104.26 480.6254558284506 4082.9 479.9434244465183 4061.54 479.939862628262 4040.18 479.94505960714844 4018.8199999999997 479.95902615881243 3997.46 479.5505692873087 3976.1 479.86304908787844 3954.74 480.59388216933854 3933.38 480.6043736648512 3912.02 480.3867647714376 3890.66 480.0939647438401 3869.3 479.7308663765565 3847.94 479.2808407307956 3826.58 478.9041807209399 3805.2200000000003 478.2910364979862 3783.86 477.7828333755948 3762.5 477.2431626623622 3741.14 476.9834739801712 3719.7799999999997 476.8973696844754 3698.42 476.8748020982269 3677.06 476.5669923893315 3655.7 476.3174497919625 3634.34 475.8998014736065 3612.98 475.5839065563437 3591.62 475.4761084872438 3570.26 475.3862262172437 3548.9 475.3370518496447 3527.54 475.01380165868795 3506.18 475.19871497996326 3484.82 475.4695361222137 3463.46 475.3984900629857 3442.1 475.42158037858417 3420.74 475.17281446854633 3399.38 474.89392113663916 3378.02 474.6976120214668 3356.66 474.5506870011159 3335.3 474.3398551157786 3313.94 474.4972746166898 3292.58 474.8032929443811 3271.22 475.42643040944677 3249.86 475.9837074966003 3228.5 466.53633469676566 3228.5 478.7456085402515Z" fill="#f6a118" opacity="0.9" />
		</g>
		<g>
			<path d="M3228.5 466.53633469676566 3249.86 475.9837074966003 3271.22 475.42643040944677 3292.58 474.8032929443811 3313.94 474.4972746166898 3335.3 474.3398551157786 3356.66 474.5506870011159 3378.02 474.6976120214668 3399.38 474.89392113663916 3420.74 475.17281446854633 3442.1 475.42158037858417 3463.46 475.3984900629857 3484.82 475.4695361222137 3506.18 475.19871497996326 3527.54 475.01380165868795 3548.9 475.3370518496447 3570.26 475.3862262172437 3591.62 475.4761084872438 3612.98 475.5839065563437 3634.34 475.8998014736065 3655.7 476.3174497919625 3677.06 476.5669923893315 3698.42 476.8748020982269 3719.7799999999997 476.8973696844754 3741.14 476.9834739801712 3762.5 477.2431626623622 3783.86 477.7828333755948 3805.2200000000003 478.2910364979862 3826.58 478.9041807209399 3847.94 479.2808407307956 3869.3 479.7308663765565 3890.66 480.0939647438401 3912.02 480.3867647714376 3933.38 480.6043736648512 3954.74 480.59388216933854 3976.1 479.86304908787844 3997.46 479.5505692873087 4018.8199999999997 479.95902615881243 4040.18 479.94505960714844 4061.54 479.939862628262 4082.9 479.9434244465183 4104.26 480.6254558284506 4125.62 480.623498410782 4146.98 480.62062646338103 4168.34 480.4875119170523 4189.7 480.1378211447884 4211.0599999999995 480.2978208961403 4232.42 480.39917600110454 4253.78 480.40305013594224 4275.139999999999 480.6272134139708 4296.5 480.45029730465194 4296.5 476.07416075277575 4275.139999999999 476.25220661385714 4253.78 475.9804259287693 4232.42 475.9771097573116 4211.0599999999995 475.85734943037994 4189.7 475.67113203039463 4168.34 475.9445091636468 4146.98 476.0428252544268 4125.62 476.0456947164946 4104.26 476.0126442187972 4082.9 475.2164345015217 4061.54 475.2129700329708 4040.18 475.2181577191099 4018.8199999999997 475.2322484984899 3997.46 474.81810616673476 3976.1 475.10657399076854 3954.74 475.80132801818854 3933.38 475.81236587515644 3912.02 475.5856075858726 3890.66 475.27426702627764 3869.3 474.8948962586183 3847.94 474.4350271056565 3826.58 474.05181534663 3805.2200000000003 473.42902823737313 3783.86 472.9107308902232 3762.5 472.36696232860294 3741.14 472.1032861179079 3719.7799999999997 472.0144834613813 3698.42 471.9842446739753 3677.06 471.6750167092698 3655.7 471.4189705364595 3634.34 471.014308300106 3612.98 470.70930139261014 3591.62 470.6068920841123 3570.26 470.536768979531 3548.9 470.512126738405 3527.54 470.2333783951094 3506.18 470.4295066297548 3484.82 470.71094768423825 3463.46 470.68875235151756 3442.1 470.711078323044 3420.74 470.4984896905413 3399.38 470.2545246926675 3378.02 470.08674988315875 3356.66 469.9671028094188 3335.3 469.8170248640352 3313.94 469.98574909760833 3292.58 470.29052608403396 3271.22 470.90608102656375 3249.86 471.4688565386009 3228.5 463.23456057734126 3228.5 466.53633469676566Z" fill="#fdd5a4" opacity="0.9" />
		</g>
		<g>
			<path d="M3228.5 463.23456057734126 3249.86 471.4688565386009 3271.22 470.90608102656375 3292.58 470.29052608403396 3313.94 469.98574909760833 3335.3 469.8170248640352 3356.66 469.9671028094188 3378.02 470.08674988315875 3399.38 470.2545246926675 3420.74 470.4984896905413 3442.1 470.711078323044 3463.46 470.68875235151756 3484.82 470.71094768423825 3506.18 470.4295066297548 3527.54 470.2333783951094 3548.9 470.512126738405 3570.26 470.536768979531 3591.62 470.6068920841123 3612.98 470.70930139261014 3634.34 471.014308300106 3655.7 471.4189705364595 3677.06 471.6750167092698 3698.42 471.9842446739753 3719.7799999999997 472.0144834613813 3741.14 472.1032861179079 3762.5 472.36696232860294 3783.86 472.9107308902232 3805.2200000000003 473.42902823737313 3826.58 474.05181534663 3847.94 474.4350271056565 3869.3 474.8948962586183 3890.66 475.27426702627764 3912.02 475.5856075858726 3933.38 475.81236587515644 3954.74 475.80132801818854 3976.1 475.10657399076854 3997.46 474.81810616673476 4018.8199999999997 475.2322484984899 4040.18 475.2181577191099 4061.54 475.2129700329708 4082.9 475.2164345015217 4104.26 476.0126442187972 4125.62 476.0456947164946 4146.98 476.0428252544268 4168.34 475.9445091636468 4189.7 475.67113203039463 4211.0599999999995 475.85734943037994 4232.42 475.9771097573116 4253.78 475.9804259287693 4275.139999999999 476.25220661385714 4296.5 476.07416075277575 4296.5 472.3663150934169 4275.139999999999 472.5454339613937 4253.78 472.089365302357 4232.42 472.0865469044695 4211.0599999999995 471.87656051033446 4189.7 471.6164928135846 4168.34 471.7330711807051 4146.98 471.76332000605703 4125.62 471.766218855925 4104.26 471.666704132637 4082.9 470.5946289838734 4061.54 470.5925960519466 4040.18 470.5979497527046 4018.8199999999997 470.6143953187705 3997.46 470.16763283113994 3976.1 470.4164498778376 3954.74 471.0661628206815 3933.38 471.07731696753683 3912.02 470.8209639445631 3890.66 470.4605146316375 3869.3 469.9795822434353 3847.94 469.45753010676304 3826.58 469.00707612997155 3805.2200000000003 468.3152661342126 3783.86 467.73514405195505 3762.5 467.13787830023045 3741.14 466.8018186815908 3719.7799999999997 466.6374618686549 3698.42 466.54215183048984 3677.06 466.2228711653022 3655.7 465.9001213956365 3634.34 465.4390074188502 3612.98 465.07678566777196 3591.62 464.9033783038482 3570.26 464.78158180585166 3548.9 464.7260968061159 3527.54 464.4723890087735 3506.18 464.6844034193931 3484.82 464.9715947829818 3463.46 464.9499237655363 3442.1 464.9713870250645 3420.74 464.7567393127636 3399.38 464.5132259653092 3378.02 464.3461599383073 3356.66 464.26375937292056 3335.3 464.2122032971037 3313.94 464.3963627005436 3292.58 464.69518296460524 3271.22 465.29095095509365 3249.86 465.86857631542375 3228.5 457.9426597886813 3228.5 463.23456057734126Z" fill="#f48c7d" opacity="0.9" />
		</g>
		<g>
			<path d="M3228.5 457.9426597886813 3249.86 465.86857631542375 3271.22 465.29095095509365 3292.58 464.69518296460524 3313.94 464.3963627005436 3335.3 464.2122032971037 3356.66 464.26375937292056 3378.02 464.3461599383073 3399.38 464.5132259653092 3420.74 464.7567393127636 3442.1 464.9713870250645 3463.46 464.9499237655363 3484.82 464.9715947829818 3506.18 464.6844034193931 3527.54 464.4723890087735 3548.9 464.7260968061159 3570.26 464.78158180585166 3591.62 464.9033783038482 3612.98 465.07678566777196 3634.34 465.4390074188502 3655.7 465.9001213956365 3677.06 466.2228711653022 3698.42 466.54215183048984 3719.7799999999997 466.6374618686549 3741.14 466.8018186815908 3762.5 467.13787830023045 3783.86 467.73514405195505 3805.2200000000003 468.3152661342126 3826.58 469.00707612997155 3847.94 469.45753010676304 3869.3 469.9795822434353 3890.66 470.4605146316375 3912.02 470.8209639445631 3933.38 471.07731696753683 3954.74 471.0661628206815 3976.1 470.4164498778376 3997.46 470.16763283113994 4018.8199999999997 470.6143953187705 4040.18 470.5979497527046 4061.54 470.5925960519466 4082.9 470.5946289838734 4104.26 471.666704132637 4125.62 471.766218855925 4146.98 471.76332000605703 4168.34 471.7330711807051 4189.7 471.6164928135846 4211.0599999999995 471.87656051033446 4232.42 472.0865469044695 4253.78 472.089365302357 4275.139999999999 472.5454339613937 4296.5 472.3663150934169 4296.5 398 4275.139999999999 398.0000000000001 4253.78 398 4232.42 398 4211.0599999999995 398.0000000000002 4189.7 397.99999999999994 4168.34 398 4146.98 398.0000000000001 4125.62 398 4104.26 398.00000000000006 4082.9 398.00000000000006 4061.54 397.99999999999994 4040.18 398.00000000000017 4018.8199999999997 398 3997.46 398.00000000000017 3976.1 397.9999999999999 3954.74 397.9999999999999 3933.38 398.0000000000001 3912.02 397.9999999999999 3890.66 398 3869.3 397.9999999999999 3847.94 397.9999999999999 3826.58 398 3805.2200000000003 397.9999999999999 3783.86 398.0000000000001 3762.5 397.99999999999994 3741.14 398.0000000000001 3719.7799999999997 398.0000000000001 3698.42 398.0000000000001 3677.06 398.0000000000001 3655.7 398 3634.34 398.00000000000006 3612.98 398 3591.62 398 3570.26 397.9999999999999 3548.9 397.9999999999999 3527.54 398 3506.18 398 3484.82 398 3463.46 398 3442.1 398.0000000000001 3420.74 397.99999999999983 3399.38 397.9999999999999 3378.02 398.00000000000006 3356.66 397.9999999999999 3335.3 397.9999999999999 3313.94 397.99999999999994 3292.58 398 3271.22 397.99999999999994 3249.86 398 3228.5 397.9999999999999 3228.5 457.9426597886813Z" fill="#393d41" opacity="0.9" />
		</g>
		<g>
			<rect x="4372" y="431" width="22.9995" height="23" fill="#e62d39" />
		</g>
		<g>
			<text fill="#595959" font-family="Verdana,Open Sans,DejaVu Sans,sans-serif" font-weight="400" font-size="41" transform="matrix(1 0 0 1 4404.56 454)">Android</text>
		</g>
		<g>
			<rect x="4372" y="508" width="22.9995" height="23" fill="#005aa6" />
		</g>
		<g>
			<text fill="#595959" font-family="Verdana,Open Sans,DejaVu Sans,sans-serif" font-weight="400" font-size="41" transform="matrix(1 0 0 1 4404.56 531)">iOS</text>
		</g>
		<g>
			<rect x="4372" y="585" width="22.9995" height="23" fill="#55c0e9" />
		</g>
		<g>
			<text fill="#595959" font-family="Verdana,Open Sans,DejaVu Sans,sans-serif" font-weight="400" font-size="41" transform="matrix(1 0 0 1 4404.56 608)">Windows</text>
		</g>
		<g>
			<rect x="4372" y="662" width="22.9995" height="23" fill="#f6a118" />
		</g>
		<g>
			<text fill="#595959" font-family="Verdana,Open Sans,DejaVu Sans,sans-serif" font-weight="400" font-size="41" transform="matrix(1 0 0 1 4404.56 685)">macOS</text>
		</g>
		<g>
			<rect x="4372" y="739" width="22.9995" height="23" fill="#fdd5a4" />
		</g>
		<g>
			<text fill="#595959" font-family="Verdana,Open Sans,DejaVu Sans,sans-serif" font-weight="400" font-size="41" transform="matrix(1 0 0 1 4404.56 762)">Linux</text>
		</g>
		<g>
			<rect x="4372" y="816" width="22.9995" height="23" fill="#f48c7d" />
		</g>
		<g>
			<text fill="#595959" font-family="Verdana,Open Sans,DejaVu Sans,sans-serif" font-weight="400" font-size="41" transform="matrix(1 0 0 1 4404.56 839)">Other</text>
		</g>
		<g>
			<rect x="4372" y="893" width="22.9995" height="23" fill="#393d41" />
		</g>
		<g>
			<text fill="#595959" font-family="Verdana,Open Sans,DejaVu Sans,sans-serif" font-weight="400" font-size="41" transform="matrix(1 0 0 1 4404.56 916)">Unclassified</text>
		</g>
	</g>
</svg>
