<svg width="1763" height="1046"
    xmlns="http://www.w3.org/2000/svg"
	xmlns:xlink="http://www.w3.org/1999/xlink" xml:space="preserve" overflow="hidden">
	<defs>
		<clipPath id="clip0">
			<rect x="2917" y="346" width="1763" height="1046"/>
		</clipPath>
	</defs>
	<g clip-path="url(#clip0)" transform="translate(-2917 -346)">
		<rect x="2918" y="347" width="1760" height="1043" fill="#FFFFFF" />
		<g>
			<path d="
			M3228.5 974.532 4296.5 974.532
			M3228.5 910.53 4296.5 910.53
			M3228.5 846.528 4296.5 846.528
			M3228.5 781.526 4296.5 781.526
			M3228.5 717.524 4296.5 717.524
			M3228.5 653.522 4296.5 653.522
			M3228.5 589.52 4296.5 589.52
			M3228.5 525.517 4296.5 525.517
			M3228.5 461.515 4296.5 461.515
			M3228.5 397.5 4296.5 397.5" stroke="#D9D9D9" stroke-width="3.4375" stroke-linejoin="round" stroke-miterlimit="10" fill="none" />
		</g>
		<g>
			<path d="M 1038.5 4296.5 1038.5" stroke="#D9D9D9" stroke-width="3.4375" stroke-linejoin="round" stroke-miterlimit="10" fill="none" fill-rule="evenodd" />
		</g>
		<g>
			<text fill="#595959" font-family="Verdana,sans-serif" font-weight="400" font-size="41" transform="matrix(6.12323e-17 -1 1 6.12323e-17 3244.5 1227)">06-Nov</text>
		</g>
		<g>
			<text fill="#595959" font-family="Verdana,sans-serif" font-weight="400" font-size="41" transform="matrix(6.12323e-17 -1 1 6.12323e-17 3333.5 1226)">20-Nov</text>
		</g>
		<g>
			<text fill="#595959" font-family="Verdana,sans-serif" font-weight="400" font-size="41" transform="matrix(6.12323e-17 -1 1 6.12323e-17 3422.5 1225)">04-Dec</text>
		</g>
		<g>
			<text fill="#595959" font-family="Verdana,sans-serif" font-weight="400" font-size="41" transform="matrix(6.12323e-17 -1 1 6.12323e-17 3511.5 1222)">18-Dec</text>
		</g>
		<g>
			<text fill="#595959" font-family="Verdana,sans-serif" font-weight="400" font-size="41" transform="matrix(6.12323e-17 -1 1 6.12323e-17 3600.5 1212)">01-Jan</text>
		</g>
		<g>
			<text fill="#595959" font-family="Verdana,sans-serif" font-weight="400" font-size="41" transform="matrix(6.12323e-17 -1 1 6.12323e-17 3689 1209)">15-Jan</text>
		</g>
		<g>
			<text fill="#595959" font-family="Verdana,sans-serif" font-weight="400" font-size="41" transform="matrix(6.12323e-17 -1 1 6.12323e-17 3778.5 1211)">29-Jan</text>
		</g>
		<g>
			<text fill="#595959" font-family="Verdana,sans-serif" font-weight="400" font-size="41" transform="matrix(6.12323e-17 -1 1 6.12323e-17 3867.5 1216)">12-Feb</text>
		</g>
		<g>
			<text fill="#595959" font-family="Verdana,sans-serif" font-weight="400" font-size="41" transform="matrix(6.12323e-17 -1 1 6.12323e-17 3956.5 1218)">26-Feb</text>
		</g>
		<g>
			<text fill="#595959" font-family="Verdana,sans-serif" font-weight="400" font-size="41" transform="matrix(6.12323e-17 -1 1 6.12323e-17 4045 1222)">11-Mar</text>
		</g>
		<g>
			<text fill="#595959" font-family="Verdana,sans-serif" font-weight="400" font-size="41" transform="matrix(6.12323e-17 -1 1 6.12323e-17 4134.5 1225)">25-Mar</text>
		</g>
		<g>
			<text fill="#595959" font-family="Verdana,sans-serif" font-weight="400" font-size="41" transform="matrix(6.12323e-17 -1 1 6.12323e-17 4227 1218)">08-Apr</text>
		</g>
		<g>
			<text fill="#595959" font-family="Verdana,sans-serif" font-weight="400" font-size="41" transform="matrix(6.12323e-17 -1 1 6.12323e-17 4316 1218)">22-Apr</text>
		</g>
		<g>
			<text fill="#595959" font-family="Verdana,sans-serif" font-weight="400" font-size="41" transform="matrix(1 0 0 1 3123.5 1050)">0%</text>
		</g>
		<g>
			<text fill="#595959" font-family="Verdana,sans-serif" font-weight="400" font-size="41" transform="matrix(1 0 0 1 3097.5 922)">20%</text>
		</g>
		<g>
			<text fill="#595959" font-family="Verdana,sans-serif" font-weight="400" font-size="41" transform="matrix(1 0 0 1 3095.5 794)">40%</text>
		</g>
		<g>
			<text fill="#595959" font-family="Verdana,sans-serif" font-weight="400" font-size="41" transform="matrix(1 0 0 1 3096.5 666)">60%</text>
		</g>
		<g>
			<text fill="#595959" font-family="Verdana,sans-serif" font-weight="400" font-size="41" transform="matrix(1 0 0 1 3096.5 538)">80%</text>
		</g>
		<g>
			<text fill="#595959" font-family="Verdana,sans-serif" font-weight="400" font-size="41" transform="matrix(1 0 0 1 3073.5 410)">100%</text>
		</g>
		<g>
			<text fill="#595959" font-family="Verdana,sans-serif" font-weight="400" font-size="41" transform="matrix(1 0 0 1 3541.5 1321)">Week Commencing</text>
		</g>
		<g>
			<text fill="#595959" font-family="Verdana,sans-serif" font-weight="400" font-size="46" transform="matrix(6.12323e-17 -1 1 6.12323e-17 3019.73 968.75)">Requests (% of Total)</text>
		</g>
		<rect x="2918.5" y="347.5" width="1760" height="1043" stroke="#D9D9D9" stroke-width="3.4375" stroke-linejoin="round" stroke-miterlimit="10" fill="none" />
		<g>
			<path d="M3228.5 1038 3273 1038 3317.5 1038 3362 1038 3406.5 1038 3451 1038 3495.5 1038 3540 1038 3584.5 1038 3629 1038 3673.5 1038 3718 1038 3762.5 1038 3807 1038 3851.5 1038 3896 1038 3940.5 1038 3985 1038 4029.5 1038 4074 1038 4118.5 1038 4163 1038 4207.5 1038 4252 1038 4296.5 1038 4296.5 703.4985064623488 4252 704.569443136712 4207.5 703.1605263419694 4163 701.7580858411745 4118.5 700.4865286297146 4074 707.5245129827832 4029.5 729.2395570213952 3985 728.9340901988301 3940.5 728.9473274759466 3896 728.5904699830792 3851.5 728.3059690780326 3807 728.4979453773899 3762.5 728.9075512947094 3718 754.11838558625 3673.5 754.1757001008984 3629 753.4791239997355 3584.5 753.4656820270931 3540 754.353517736809 3495.5 755.0644960736788 3451 756.7936922650002 3406.5 755.3104816846619 3362 756.0108769389726 3317.5 755.8946831794725 3273 756.0648930613015 3228.5 754.9119747134117 3228.5 1038Z" fill="#e62d39" opacity="0.9" />
		</g>
		<g>
			<path d="M3228.5 754.9119747134117 3273 756.0648930613015 3317.5 755.8946831794725 3362 756.0108769389726 3406.5 755.3104816846619 3451 756.7936922650002 3495.5 755.0644960736788 3540 754.353517736809 3584.5 753.4656820270931 3629 753.4791239997355 3673.5 754.1757001008984 3718 754.11838558625 3762.5 728.9075512947094 3807 728.4979453773899 3851.5 728.3059690780326 3896 728.5904699830792 3940.5 728.9473274759466 3985 728.9340901988301 4029.5 729.2395570213952 4074 707.5245129827832 4118.5 700.4865286297146 4163 701.7580858411745 4207.5 703.1605263419694 4252 704.569443136712 4296.5 703.4985064623488 4296.5 488.9387742360814 4252 492.7506429578374 4207.5 492.8155417521196 4163 493.0157563584153 4118.5 493.39321289046876 4074 506.9149616199791 4029.5 511.364965996509 3985 511.2846481599944 3940.5 510.42831690773556 3896 509.62004963115277 3851.5 508.7614604393337 3807 509.353058075723 3762.5 509.9096403086422 3718 502.9834202621783 3673.5 503.00137208677626 3629 501.7071993293339 3584.5 501.42221970119 3540 503.438874441927 3495.5 504.4310618017311 3451 506.598206380057 3406.5 506.6117266161558 3362 506.1745473288654 3317.5 506.70059265889057 3273 507.27389099062407 3228.5 506.70599006535724 3228.5 754.9119747134117Z" fill="#005aa6" opacity="0.9" />
		</g>
		<g>
			<path d="M3228.5 506.70599006535724 3273 507.27389099062407 3317.5 506.70059265889057 3362 506.1745473288654 3406.5 506.6117266161558 3451 506.598206380057 3495.5 504.4310618017311 3540 503.438874441927 3584.5 501.42221970119 3629 501.7071993293339 3673.5 503.00137208677626 3718 502.9834202621783 3762.5 509.9096403086422 3807 509.353058075723 3851.5 508.7614604393337 3896 509.62004963115277 3940.5 510.42831690773556 3985 511.2846481599944 4029.5 511.364965996509 4074 506.9149616199791 4118.5 493.39321289046876 4163 493.0157563584153 4207.5 492.8155417521196 4252 492.7506429578374 4296.5 488.9387742360814 4296.5 445.9636538385128 4252 450.12178949359264 4207.5 450.19759580620007 4163 450.31641232434566 4118.5 450.53485482006914 4074 465.04034483521883 4029.5 466.06050698928533 3985 466.040310950835 3940.5 465.54550807778793 3896 465.0596958871918 3851.5 464.56231790755743 3807 464.9559197775319 3762.5 465.35219027138237 3718 461.61567429168343 3673.5 461.61568788936546 3629 459.82950021460965 3584.5 460.450441231452 3540 460.9910561402767 3495.5 461.5797281754641 3451 463.2835029039877 3406.5 463.16152563435577 3362 463.4857438622545 3317.5 463.49009877890694 3273 463.78618648036564 3228.5 463.7315547177501 3228.5 506.70599006535724Z" fill="#55c0e9" opacity="0.9" />
		</g>
		<g>
			<path d="M3228.5 463.7315547177501 3273 463.78618648036564 3317.5 463.49009877890694 3362 463.4857438622545 3406.5 463.16152563435577 3451 463.2835029039877 3495.5 461.5797281754641 3540 460.9910561402767 3584.5 460.450441231452 3629 459.82950021460965 3673.5 461.61568788936546 3718 461.61567429168343 3762.5 465.35219027138237 3807 464.9559197775319 3851.5 464.56231790755743 3896 465.0596958871918 3940.5 465.54550807778793 3985 466.040310950835 4029.5 466.06050698928533 4074 465.04034483521883 4118.5 450.53485482006914 4163 450.31641232434566 4207.5 450.19759580620007 4252 450.12178949359264 4296.5 445.9636538385128 4296.5 433.40054840431145 4252 437.6127108681739 4207.5 437.66723491500807 4163 437.73656952866384 4118.5 437.87360524960343 4074 452.6366317106452 4029.5 450.90613014226784 3985 450.8850550677488 3940.5 450.4868239386605 3896 450.086582389552 3851.5 449.68019116783887 3807 449.97158494345933 3762.5 450.2601617230179 3718 447.4043899537403 3673.5 447.3983203480143 3629 445.3845841013251 3584.5 445.8199610630829 3540 446.18152349671493 3495.5 446.5432723305962 3451 447.8921220090762 3406.5 447.8271269745522 3362 447.8959874216182 3317.5 447.83237862615306 3273 448.04152904681933 3228.5 448.1117462595999 3228.5 463.7315547177501Z" fill="#f6a118" opacity="0.9" />
		</g>
		<g>
			<path d="M3228.5 448.1117462595999 3273 448.04152904681933 3317.5 447.83237862615306 3362 447.8959874216182 3406.5 447.8271269745522 3451 447.8921220090762 3495.5 446.5432723305962 3540 446.18152349671493 3584.5 445.8199610630829 3629 445.3845841013251 3673.5 447.3983203480143 3718 447.4043899537403 3762.5 450.2601617230179 3807 449.97158494345933 3851.5 449.68019116783887 3896 450.086582389552 3940.5 450.4868239386605 3985 450.8850550677488 4029.5 450.90613014226784 4074 452.6366317106452 4118.5 437.87360524960343 4163 437.73656952866384 4207.5 437.66723491500807 4252 437.6127108681739 4296.5 433.40054840431145 4296.5 428.50399955057856 4252 432.7535502158639 4207.5 432.80627389640455 4163 432.8676017835308 4118.5 432.98806566692065 4074 447.8607653758795 4029.5 445.04971196915034 3985 445.0840675736475 3940.5 444.7823876121957 3896 444.47619554519974 3851.5 444.146022913635 3807 444.4117939256318 3762.5 444.6840228236209 3718 442.25084027575355 3673.5 442.3504661409793 3629 442.53952888382247 3584.5 442.9800177196567 3540 443.356171040563 3495.5 443.72631556735075 3451 445.03130789311024 3406.5 445.0069493077504 3362 445.1092685889405 3317.5 445.086470806383 3273 445.33465660164404 3228.5 445.4445406291664 3228.5 448.1117462595999Z" fill="#fdd5a4" opacity="0.9" />
		</g>
		<g>
			<path d="M3228.5 445.4445406291664 3273 445.33465660164404 3317.5 445.086470806383 3362 445.1092685889405 3406.5 445.0069493077504 3451 445.03130789311024 3495.5 443.72631556735075 3540 443.356171040563 3584.5 442.9800177196567 3629 442.53952888382247 3673.5 442.3504661409793 3718 442.25084027575355 3762.5 444.6840228236209 3807 444.4117939256318 3851.5 444.146022913635 3896 444.47619554519974 3940.5 444.7823876121957 3985 445.0840675736475 4029.5 445.04971196915034 4074 447.8607653758795 4118.5 432.98806566692065 4163 432.8676017835308 4207.5 432.80627389640455 4252 432.7535502158639 4296.5 428.50399955057856 4296.5 425.3719419226974 4252 429.64793603777895 4207.5 429.7004140998976 4163 429.76313464334123 4118.5 429.88054742773767 4074 444.82124955246854 4029.5 441.7030292243726 3985 441.7535822416807 3940.5 441.49228637208546 3896 441.22475501262005 3851.5 440.9301919465814 3807 441.18998724924035 3762.5 441.4614784607988 3718 438.541557440145 3673.5 438.64340053541537 3629 439.0626692950935 3584.5 439.5322445329365 3540 439.87296049890585 3495.5 440.24550709230834 3451 441.51454062796347 3406.5 441.47847627408726 3362 441.590477687704 3317.5 441.6852312927996 3273 441.8542748642629 3228.5 442.02286207693095 3228.5 445.4445406291664Z" fill="#f48c7d" opacity="0.9" />
		</g>
		<g>
			<path d="M3228.5 442.02286207693095 3273 441.8542748642629 3317.5 441.6852312927996 3362 441.590477687704 3406.5 441.47847627408726 3451 441.51454062796347 3495.5 440.24550709230834 3540 439.87296049890585 3584.5 439.5322445329365 3629 439.0626692950935 3673.5 438.64340053541537 3718 438.541557440145 3762.5 441.4614784607988 3807 441.18998724924035 3851.5 440.9301919465814 3896 441.22475501262005 3940.5 441.49228637208546 3985 441.7535822416807 4029.5 441.7030292243726 4074 444.82124955246854 4118.5 429.88054742773767 4163 429.76313464334123 4207.5 429.7004140998976 4252 429.64793603777895 4296.5 425.3719419226974 4296.5 397.99999999999994 4252 398.00000000000006 4207.5 398.0000000000001 4163 398.00000000000006 4118.5 398.00000000000006 4074 398.0000000000001 4029.5 398.0000000000001 3985 398 3940.5 398 3896 397.99999999999994 3851.5 397.9999999999999 3807 398.0000000000001 3762.5 397.99999999999994 3718 398 3673.5 397.99999999999994 3629 398.00000000000006 3584.5 398 3540 397.99999999999994 3495.5 397.99999999999983 3451 397.9999999999999 3406.5 398 3362 398 3317.5 397.9999999999999 3273 397.9999999999999 3228.5 398.0000000000001 3228.5 442.02286207693095Z" fill="#393d41" opacity="0.9" />
		</g>
		<g>
			<rect x="4372" y="431" width="22.9995" height="23" fill="#e62d39" />
		</g>
		<g>
			<text fill="#595959" font-family="Verdana,sans-serif" font-weight="400" font-size="41" transform="matrix(1 0 0 1 4404.56 454)">iOS</text>
		</g>
		<g>
			<rect x="4372" y="508" width="22.9995" height="23" fill="#005aa6" />
		</g>
		<g>
			<text fill="#595959" font-family="Verdana,sans-serif" font-weight="400" font-size="41" transform="matrix(1 0 0 1 4404.56 531)">Android</text>
		</g>
		<g>
			<rect x="4372" y="585" width="22.9995" height="23" fill="#55c0e9" />
		</g>
		<g>
			<text fill="#595959" font-family="Verdana,sans-serif" font-weight="400" font-size="41" transform="matrix(1 0 0 1 4404.56 608)">Windows</text>
		</g>
		<g>
			<rect x="4372" y="662" width="22.9995" height="23" fill="#f6a118" />
		</g>
		<g>
			<text fill="#595959" font-family="Verdana,sans-serif" font-weight="400" font-size="41" transform="matrix(1 0 0 1 4404.56 685)">macOS</text>
		</g>
		<g>
			<rect x="4372" y="739" width="22.9995" height="23" fill="#fdd5a4" />
		</g>
		<g>
			<text fill="#595959" font-family="Verdana,sans-serif" font-weight="400" font-size="41" transform="matrix(1 0 0 1 4404.56 762)">Other</text>
		</g>
		<g>
			<rect x="4372" y="816" width="22.9995" height="23" fill="#f48c7d" />
		</g>
		<g>
			<text fill="#595959" font-family="Verdana,sans-serif" font-weight="400" font-size="41" transform="matrix(1 0 0 1 4404.56 839)">Linux</text>
		</g>
		<g>
			<rect x="4372" y="893" width="22.9995" height="23" fill="#393d41" />
		</g>
		<g>
			<text fill="#595959" font-family="Verdana,sans-serif" font-weight="400" font-size="41" transform="matrix(1 0 0 1 4404.56 916)">Unclassified</text>
		</g>
	</g>
</svg>
