<svg width="1763" height="1046"
    xmlns="http://www.w3.org/2000/svg"
	xmlns:xlink="http://www.w3.org/1999/xlink" xml:space="preserve" overflow="hidden">
	<defs>
		<clipPath id="clip0">
			<rect x="2917" y="346" width="1763" height="1046"/>
		</clipPath>
	</defs>
	<g clip-path="url(#clip0)" transform="translate(-2917 -346)">
		<rect x="2918" y="347" width="1760" height="1043" fill="#FFFFFF" />
		<g>
			<path d="
			M3228.5 974.532 4296.5 974.532
			M3228.5 910.53 4296.5 910.53
			M3228.5 846.528 4296.5 846.528
			M3228.5 781.526 4296.5 781.526
			M3228.5 717.524 4296.5 717.524
			M3228.5 653.522 4296.5 653.522
			M3228.5 589.52 4296.5 589.52
			M3228.5 525.517 4296.5 525.517
			M3228.5 461.515 4296.5 461.515
			M3228.5 397.5 4296.5 397.5" stroke="#D9D9D9" stroke-width="3.4375" stroke-linejoin="round" stroke-miterlimit="10" fill="none" />
		</g>
		<g>
			<path d="M 1038.5 4296.5 1038.5" stroke="#D9D9D9" stroke-width="3.4375" stroke-linejoin="round" stroke-miterlimit="10" fill="none" fill-rule="evenodd" />
		</g>
		<g>
			<text fill="#595959" font-family="Verdana,sans-serif" font-weight="400" font-size="41" transform="matrix(6.12323e-17 -1 1 6.12323e-17 3244 1221)">11-Mar</text>
		</g>
		<g>
			<text fill="#595959" font-family="Verdana,sans-serif" font-weight="400" font-size="41" transform="matrix(6.12323e-17 -1 1 6.12323e-17 3331.764705882353 1217)">08-Apr</text>
		</g>
		<g>
			<text fill="#595959" font-family="Verdana,sans-serif" font-weight="400" font-size="41" transform="matrix(6.12323e-17 -1 1 6.12323e-17 3415.529411764706 1228)">06-May</text>
		</g>
		<g>
			<text fill="#595959" font-family="Verdana,sans-serif" font-weight="400" font-size="41" transform="matrix(6.12323e-17 -1 1 6.12323e-17 3495.794117647059 1211)">03-Jun</text>
		</g>
		<g>
			<text fill="#595959" font-family="Verdana,sans-serif" font-weight="400" font-size="41" transform="matrix(6.12323e-17 -1 1 6.12323e-17 3579.5588235294117 1197)">01-Jul</text>
		</g>
		<g>
			<text fill="#595959" font-family="Verdana,sans-serif" font-weight="400" font-size="41" transform="matrix(6.12323e-17 -1 1 6.12323e-17 3663.323529411765 1196)">29-Jul</text>
		</g>
		<g>
			<text fill="#595959" font-family="Verdana,sans-serif" font-weight="400" font-size="41" transform="matrix(6.12323e-17 -1 1 6.12323e-17 3750.5882352941176 1221)">26-Aug</text>
		</g>
		<g>
			<text fill="#595959" font-family="Verdana,sans-serif" font-weight="400" font-size="41" transform="matrix(6.12323e-17 -1 1 6.12323e-17 3834.3529411764707 1221)">23-Sep</text>
		</g>
		<g>
			<text fill="#595959" font-family="Verdana,sans-serif" font-weight="400" font-size="41" transform="matrix(6.12323e-17 -1 1 6.12323e-17 3914.6176470588234 1215)">21-Oct</text>
		</g>
		<g>
			<text fill="#595959" font-family="Verdana,sans-serif" font-weight="400" font-size="41" transform="matrix(6.12323e-17 -1 1 6.12323e-17 3998.3823529411766 1222)">18-Nov</text>
		</g>
		<g>
			<text fill="#595959" font-family="Verdana,sans-serif" font-weight="400" font-size="41" transform="matrix(6.12323e-17 -1 1 6.12323e-17 4082.1470588235293 1222)">23-Dec</text>
		</g>
		<g>
			<text fill="#595959" font-family="Verdana,sans-serif" font-weight="400" font-size="41" transform="matrix(6.12323e-17 -1 1 6.12323e-17 4165.911764705882 1210)">20-Jan</text>
		</g>
		<g>
			<text fill="#595959" font-family="Verdana,sans-serif" font-weight="400" font-size="41" transform="matrix(6.12323e-17 -1 1 6.12323e-17 4249.676470588235 1214)">17-Feb</text>
		</g>
		<g>
			<text fill="#595959" font-family="Verdana,sans-serif" font-weight="400" font-size="41" transform="matrix(1 0 0 1 3123.5 1050)">0%</text>
		</g>
		<g>
			<text fill="#595959" font-family="Verdana,sans-serif" font-weight="400" font-size="41" transform="matrix(1 0 0 1 3097.5 922)">20%</text>
		</g>
		<g>
			<text fill="#595959" font-family="Verdana,sans-serif" font-weight="400" font-size="41" transform="matrix(1 0 0 1 3096.5 794)">40%</text>
		</g>
		<g>
			<text fill="#595959" font-family="Verdana,sans-serif" font-weight="400" font-size="41" transform="matrix(1 0 0 1 3097.5 666)">60%</text>
		</g>
		<g>
			<text fill="#595959" font-family="Verdana,sans-serif" font-weight="400" font-size="41" transform="matrix(1 0 0 1 3097.5 538)">80%</text>
		</g>
		<g>
			<text fill="#595959" font-family="Verdana,sans-serif" font-weight="400" font-size="41" transform="matrix(1 0 0 1 3074.5 410)">100%</text>
		</g>
		<g>
			<text fill="#595959" font-family="Verdana,sans-serif" font-weight="400" font-size="41" transform="matrix(1 0 0 1 3544.5 1321)">Week Commencing</text>
		</g>
		<g>
			<text fill="#595959" font-family="Verdana,sans-serif" font-weight="400" font-size="46" transform="matrix(6.12323e-17 -1 1 6.12323e-17 3019.73 965.25)">Requests (% of Total)</text>
		</g>
		<rect x="2918.5" y="347.5" width="1760" height="1043" stroke="#D9D9D9" stroke-width="3.4375" stroke-linejoin="round" stroke-miterlimit="10" fill="none" />
		<g>
			<path d="M3228.5 1038 3249.4411764705883 1038 3270.3823529411766 1038 3291.323529411765 1038 3312.264705882353 1038 3333.205882352941 1038 3354.1470588235293 1038 3375.0882352941176 1038 3396.029411764706 1038 3416.970588235294 1038 3437.9117647058824 1038 3458.8529411764707 1038 3479.794117647059 1038 3500.735294117647 1038 3521.676470588235 1038 3542.6176470588234 1038 3563.5588235294117 1038 3584.5 1038 3605.4411764705883 1038 3626.3823529411766 1038 3647.323529411765 1038 3668.264705882353 1038 3689.205882352941 1038 3710.1470588235293 1038 3731.0882352941176 1038 3752.029411764706 1038 3772.970588235294 1038 3793.9117647058824 1038 3814.8529411764707 1038 3835.7941176470586 1038 3856.735294117647 1038 3877.676470588235 1038 3898.6176470588234 1038 3919.5588235294117 1038 3940.5 1038 3961.4411764705883 1038 3982.3823529411766 1038 4003.323529411765 1038 4024.264705882353 1038 4045.2058823529414 1038 4066.1470588235293 1038 4087.0882352941176 1038 4108.029411764706 1038 4128.970588235294 1038 4149.911764705882 1038 4170.85294117647 1038 4191.794117647059 1038 4212.735294117647 1038 4233.676470588235 1038 4254.617647058823 1038 4275.558823529412 1038 4296.5 1038 4296.5 783.2139812899172 4275.558823529412 783.418681414867 4254.617647058823 783.391757080238 4233.676470588235 783.5748526599284 4212.735294117647 783.7048944052132 4191.794117647059 783.4831690555263 4170.85294117647 783.0196786229212 4149.911764705882 783.0275141890429 4128.970588235294 783.4492557109172 4108.029411764706 783.484387962271 4087.0882352941176 783.2922413061176 4066.1470588235293 783.1097274823168 4045.2058823529414 783.0871417282395 4024.264705882353 782.9000115015447 4003.323529411765 782.5276373365637 3982.3823529411766 782.6753667196651 3961.4411764705883 783.1682641871979 3940.5 783.5277451200283 3919.5588235294117 783.7165926175173 3898.6176470588234 725.0579859810713 3877.676470588235 723.964272691857 3856.735294117647 722.9963838923263 3835.7941176470586 722.2500058248895 3814.8529411764707 721.3672257636031 3793.9117647058824 716.1347668638947 3772.970588235294 714.9315603533947 3752.029411764706 714.226459280052 3731.0882352941176 714.4105060971157 3710.1470588235293 713.9589728279007 3689.205882352941 713.4392482120827 3668.264705882353 712.9526784937428 3647.323529411765 712.3235713382509 3626.3823529411766 712.0748666907585 3605.4411764705883 711.7892867662207 3584.5 711.2928421961317 3563.5588235294117 710.6616144923173 3542.6176470588234 710.307171035662 3521.676470588235 710.0229260904226 3500.735294117647 709.5011500172373 3479.794117647059 708.8529728655324 3458.8529411764707 708.5111643371398 3437.9117647058824 707.6773439344757 3416.970588235294 706.7867985338357 3396.029411764706 705.8245723100855 3375.0882352941176 704.5432324401569 3354.1470588235293 703.4985064623488 3333.205882352941 704.569443136712 3312.264705882353 703.1605263419694 3291.323529411765 701.7580858411745 3270.3823529411766 700.4865286297146 3249.4411764705883 707.5245129827832 3228.5 729.2395570213952 3228.5 1038Z" fill="#e62d39" opacity="0.9" />
		</g>
		<g>
			<path d="M3228.5 729.2395570213952 3249.4411764705883 707.5245129827832 3270.3823529411766 700.4865286297146 3291.323529411765 701.7580858411745 3312.264705882353 703.1605263419694 3333.205882352941 704.569443136712 3354.1470588235293 703.4985064623488 3375.0882352941176 704.5432324401569 3396.029411764706 705.8245723100855 3416.970588235294 706.7867985338357 3437.9117647058824 707.6773439344757 3458.8529411764707 708.5111643371398 3479.794117647059 708.8529728655324 3500.735294117647 709.5011500172373 3521.676470588235 710.0229260904226 3542.6176470588234 710.307171035662 3563.5588235294117 710.6616144923173 3584.5 711.2928421961317 3605.4411764705883 711.7892867662207 3626.3823529411766 712.0748666907585 3647.323529411765 712.3235713382509 3668.264705882353 712.9526784937428 3689.205882352941 713.4392482120827 3710.1470588235293 713.9589728279007 3731.0882352941176 714.4105060971157 3752.029411764706 714.226459280052 3772.970588235294 714.9315603533947 3793.9117647058824 716.1347668638947 3814.8529411764707 721.3672257636031 3835.7941176470586 722.2500058248895 3856.735294117647 722.9963838923263 3877.676470588235 723.964272691857 3898.6176470588234 725.0579859810713 3919.5588235294117 783.7165926175173 3940.5 783.5277451200283 3961.4411764705883 783.1682641871979 3982.3823529411766 782.6753667196651 4003.323529411765 782.5276373365637 4024.264705882353 782.9000115015447 4045.2058823529414 783.0871417282395 4066.1470588235293 783.1097274823168 4087.0882352941176 783.2922413061176 4108.029411764706 783.484387962271 4128.970588235294 783.4492557109172 4149.911764705882 783.0275141890429 4170.85294117647 783.0196786229212 4191.794117647059 783.4831690555263 4212.735294117647 783.7048944052132 4233.676470588235 783.5748526599284 4254.617647058823 783.391757080238 4275.558823529412 783.418681414867 4296.5 783.2139812899172 4296.5 531.9915975411402 4275.558823529412 531.7252849940927 4254.617647058823 531.7204662326122 4233.676470588235 531.628499653356 4212.735294117647 531.5339960022333 4191.794117647059 531.0725093725604 4170.85294117647 531.2499409458121 4149.911764705882 531.6507006603789 4128.970588235294 531.7063634722977 4108.029411764706 531.7405716149474 4087.0882352941176 531.5084515547419 4066.1470588235293 531.1868422316874 4045.2058823529414 530.9096071067931 4024.264705882353 530.6457625647856 4003.323529411765 530.2115588422516 3982.3823529411766 530.3749323864379 3961.4411764705883 530.816371903653 3940.5 531.5387166599613 3919.5588235294117 532.190445140906 3898.6176470588234 526.5102482737155 3877.676470588235 525.3174753042879 3856.735294117647 524.2802845879517 3835.7941176470586 523.1294380044525 3814.8529411764707 521.8575691422009 3793.9117647058824 514.1116307261946 3772.970588235294 512.993987230213 3752.029411764706 512.1677115640608 3731.0882352941176 502.45546819630397 3710.1470588235293 501.879791216212 3689.205882352941 501.40460916879545 3668.264705882353 500.8004852626943 3647.323529411765 499.8853489758172 3626.3823529411766 498.7859305783681 3605.4411764705883 497.70686325871344 3584.5 496.45662763490196 3563.5588235294117 495.1622009511958 3542.6176470588234 493.8933367325633 3521.676470588235 492.86935877863715 3500.735294117647 492.0646789770611 3479.794117647059 491.29504574396447 3458.8529411764707 490.57523501016317 3437.9117647058824 490.03332941523763 3416.970588235294 489.72310243427995 3396.029411764706 489.48234403066954 3375.0882352941176 489.1962201731323 3354.1470588235293 488.9387742360814 3333.205882352941 492.7506429578374 3312.264705882353 492.8155417521196 3291.323529411765 493.0157563584153 3270.3823529411766 493.39321289046876 3249.4411764705883 506.9149616199791 3228.5 511.364965996509 3228.5 729.2395570213952Z" fill="#005aa6" opacity="0.9" />
		</g>
		<g>
			<path d="M3228.5 511.364965996509 3249.4411764705883 506.9149616199791 3270.3823529411766 493.39321289046876 3291.323529411765 493.0157563584153 3312.264705882353 492.8155417521196 3333.205882352941 492.7506429578374 3354.1470588235293 488.9387742360814 3375.0882352941176 489.1962201731323 3396.029411764706 489.48234403066954 3416.970588235294 489.72310243427995 3437.9117647058824 490.03332941523763 3458.8529411764707 490.57523501016317 3479.794117647059 491.29504574396447 3500.735294117647 492.0646789770611 3521.676470588235 492.86935877863715 3542.6176470588234 493.8933367325633 3563.5588235294117 495.1622009511958 3584.5 496.45662763490196 3605.4411764705883 497.70686325871344 3626.3823529411766 498.7859305783681 3647.323529411765 499.8853489758172 3668.264705882353 500.8004852626943 3689.205882352941 501.40460916879545 3710.1470588235293 501.879791216212 3731.0882352941176 502.45546819630397 3752.029411764706 512.1677115640608 3772.970588235294 512.993987230213 3793.9117647058824 514.1116307261946 3814.8529411764707 521.8575691422009 3835.7941176470586 523.1294380044525 3856.735294117647 524.2802845879517 3877.676470588235 525.3174753042879 3898.6176470588234 526.5102482737155 3919.5588235294117 532.190445140906 3940.5 531.5387166599613 3961.4411764705883 530.816371903653 3982.3823529411766 530.3749323864379 4003.323529411765 530.2115588422516 4024.264705882353 530.6457625647856 4045.2058823529414 530.9096071067931 4066.1470588235293 531.1868422316874 4087.0882352941176 531.5084515547419 4108.029411764706 531.7405716149474 4128.970588235294 531.7063634722977 4149.911764705882 531.6507006603789 4170.85294117647 531.2499409458121 4191.794117647059 531.0725093725604 4212.735294117647 531.5339960022333 4233.676470588235 531.628499653356 4254.617647058823 531.7204662326122 4275.558823529412 531.7252849940927 4296.5 531.9915975411402 4296.5 488.66304187283265 4275.558823529412 488.342804480212 4254.617647058823 488.19986039125524 4233.676470588235 488.019603954726 4212.735294117647 487.9026766907719 4191.794117647059 487.52222153261033 4170.85294117647 487.70696592491663 4149.911764705882 488.01151049572456 4128.970588235294 487.963793616364 4108.029411764706 487.98949737367803 4087.0882352941176 487.70292525839443 4066.1470588235293 487.3692026626984 4045.2058823529414 487.10721609649056 4024.264705882353 486.9097754632236 4003.323529411765 486.6466810104104 3982.3823529411766 486.8253712667305 3961.4411764705883 487.1725552495906 3940.5 487.81344975744275 3919.5588235294117 488.4006750879141 3898.6176470588234 478.7456085402515 3877.676470588235 477.4222196163745 3856.735294117647 476.2604646154135 3835.7941176470586 475.0060216232253 3814.8529411764707 473.64144749214375 3793.9117647058824 473.2844498106347 3772.970588235294 472.05917492318713 3752.029411764706 471.07663748656995 3731.0882352941176 461.2408535917636 3710.1470588235293 460.48443100573536 3689.205882352941 459.76604736337003 3668.264705882353 458.9777407221724 3647.323529411765 457.90939966851295 3626.3823529411766 456.65452296321746 3605.4411764705883 455.36215838852235 3584.5 453.9844912065713 3563.5588235294117 452.5053589477677 3542.6176470588234 451.07476537844235 3521.676470588235 449.87375657582817 3500.735294117647 448.9328850656446 3479.794117647059 448.0557909288758 3458.8529411764707 447.2525039284088 3437.9117647058824 446.6761477523823 3416.970588235294 446.4456437459776 3396.029411764706 446.28136252321144 3375.0882352941176 446.10487752564853 3354.1470588235293 445.9636538385128 3333.205882352941 450.12178949359264 3312.264705882353 450.19759580620007 3291.323529411765 450.31641232434566 3270.3823529411766 450.53485482006914 3249.4411764705883 465.04034483521883 3228.5 466.06050698928533 3228.5 511.364965996509Z" fill="#55c0e9" opacity="0.9" />
		</g>
		<g>
			<path d="M3228.5 466.06050698928533 3249.4411764705883 465.04034483521883 3270.3823529411766 450.53485482006914 3291.323529411765 450.31641232434566 3312.264705882353 450.19759580620007 3333.205882352941 450.12178949359264 3354.1470588235293 445.9636538385128 3375.0882352941176 446.10487752564853 3396.029411764706 446.28136252321144 3416.970588235294 446.4456437459776 3437.9117647058824 446.6761477523823 3458.8529411764707 447.2525039284088 3479.794117647059 448.0557909288758 3500.735294117647 448.9328850656446 3521.676470588235 449.87375657582817 3542.6176470588234 451.07476537844235 3563.5588235294117 452.5053589477677 3584.5 453.9844912065713 3605.4411764705883 455.36215838852235 3626.3823529411766 456.65452296321746 3647.323529411765 457.90939966851295 3668.264705882353 458.9777407221724 3689.205882352941 459.76604736337003 3710.1470588235293 460.48443100573536 3731.0882352941176 461.2408535917636 3752.029411764706 471.07663748656995 3772.970588235294 472.05917492318713 3793.9117647058824 473.2844498106347 3814.8529411764707 473.64144749214375 3835.7941176470586 475.0060216232253 3856.735294117647 476.2604646154135 3877.676470588235 477.4222196163745 3898.6176470588234 478.7456085402515 3919.5588235294117 488.4006750879141 3940.5 487.81344975744275 3961.4411764705883 487.1725552495906 3982.3823529411766 486.8253712667305 4003.323529411765 486.6466810104104 4024.264705882353 486.9097754632236 4045.2058823529414 487.10721609649056 4066.1470588235293 487.3692026626984 4087.0882352941176 487.70292525839443 4108.029411764706 487.98949737367803 4128.970588235294 487.963793616364 4149.911764705882 488.01151049572456 4170.85294117647 487.70696592491663 4191.794117647059 487.52222153261033 4212.735294117647 487.9026766907719 4233.676470588235 488.019603954726 4254.617647058823 488.19986039125524 4275.558823529412 488.342804480212 4296.5 488.66304187283265 4296.5 475.8998014736065 4275.558823529412 475.5839065563436 4254.617647058823 475.4761084872438 4233.676470588235 475.3862262172438 4212.735294117647 475.3370518496447 4191.794117647059 475.01380165868784 4170.85294117647 475.19871497996326 4149.911764705882 475.4695361222136 4128.970588235294 475.3984900629857 4108.029411764706 475.42158037858417 4087.0882352941176 475.17281446854633 4066.1470588235293 474.89392113663916 4045.2058823529414 474.6976120214667 4024.264705882353 474.5506870011159 4003.323529411765 474.3398551157786 3982.3823529411766 474.4972746166898 3961.4411764705883 474.8032929443811 3940.5 475.42643040944677 3919.5588235294117 475.9837074966003 3898.6176470588234 466.53633469676566 3877.676470588235 465.2033179049321 3856.735294117647 464.0399484926056 3835.7941176470586 462.7794187905808 3814.8529411764707 461.40786834513193 3793.9117647058824 460.8843773665021 3772.970588235294 459.6546822545587 3752.029411764706 458.6559421000703 3731.0882352941176 448.8413613772234 3710.1470588235293 448.0810719550874 3689.205882352941 447.3247116817817 3668.264705882353 446.5310952275203 3647.323529411765 445.4598876638521 3626.3823529411766 444.211812869573 3605.4411764705883 442.9104603532568 3584.5 441.5224522868679 3563.5588235294117 440.02872439510173 3542.6176470588234 438.5911754273753 3521.676470588235 437.36935007449506 3500.735294117647 436.4113820386986 3479.794117647059 435.5243027869889 3458.8529411764707 434.7122259498071 3437.9117647058824 434.13110745861906 3416.970588235294 433.9141397981283 3396.029411764706 433.7506297603656 3375.0882352941176 433.55919918545516 3354.1470588235293 433.40054840431145 3333.205882352941 437.6127108681739 3312.264705882353 437.66723491500807 3291.323529411765 437.73656952866384 3270.3823529411766 437.87360524960343 3249.4411764705883 452.6366317106452 3228.5 450.90613014226784 3228.5 466.06050698928533Z" fill="#f6a118" opacity="0.9" />
		</g>
		<g>
			<path d="M3228.5 450.90613014226784 3249.4411764705883 452.6366317106452 3270.3823529411766 437.87360524960343 3291.323529411765 437.73656952866384 3312.264705882353 437.66723491500807 3333.205882352941 437.6127108681739 3354.1470588235293 433.40054840431145 3375.0882352941176 433.55919918545516 3396.029411764706 433.7506297603656 3416.970588235294 433.9141397981283 3437.9117647058824 434.13110745861906 3458.8529411764707 434.7122259498071 3479.794117647059 435.5243027869889 3500.735294117647 436.4113820386986 3521.676470588235 437.36935007449506 3542.6176470588234 438.5911754273753 3563.5588235294117 440.02872439510173 3584.5 441.5224522868679 3605.4411764705883 442.9104603532568 3626.3823529411766 444.211812869573 3647.323529411765 445.4598876638521 3668.264705882353 446.5310952275203 3689.205882352941 447.3247116817817 3710.1470588235293 448.0810719550874 3731.0882352941176 448.8413613772234 3752.029411764706 458.6559421000703 3772.970588235294 459.6546822545587 3793.9117647058824 460.8843773665021 3814.8529411764707 461.40786834513193 3835.7941176470586 462.7794187905808 3856.735294117647 464.0399484926056 3877.676470588235 465.2033179049321 3898.6176470588234 466.53633469676566 3919.5588235294117 475.9837074966003 3940.5 475.42643040944677 3961.4411764705883 474.8032929443811 3982.3823529411766 474.4972746166898 4003.323529411765 474.3398551157786 4024.264705882353 474.5506870011159 4045.2058823529414 474.6976120214667 4066.1470588235293 474.89392113663916 4087.0882352941176 475.17281446854633 4108.029411764706 475.42158037858417 4128.970588235294 475.3984900629857 4149.911764705882 475.4695361222136 4170.85294117647 475.19871497996326 4191.794117647059 475.01380165868784 4212.735294117647 475.3370518496447 4233.676470588235 475.3862262172438 4254.617647058823 475.4761084872438 4275.558823529412 475.5839065563436 4296.5 475.8998014736065 4296.5 470.3245005923507 4275.558823529412 469.9513908315054 4254.617647058823 469.7725947069797 4233.676470588235 469.63103904356444 4212.735294117647 469.55102191735557 4191.794117647059 469.25281227235195 4170.85294117647 469.45361176960154 4149.911764705882 469.73018322095714 4128.970588235294 469.6596614770044 4108.029411764706 469.68188908060466 4087.0882352941176 469.43106409076864 4066.1470588235293 469.15262240928087 4045.2058823529414 468.95702207661526 4024.264705882353 468.84734356461763 4003.323529411765 468.7350335488471 3982.3823529411766 468.9078882196251 3961.4411764705883 469.2079498249524 3940.5 469.81130033797666 3919.5588235294117 470.38342727342314 3898.6176470588234 461.2444339081057 3877.676470588235 459.946755992067 3856.735294117647 458.8077681755944 3835.7941176470586 457.5593223229012 3814.8529411764707 456.2181048338814 3793.9117647058824 455.6431947463817 3772.970588235294 454.47972281760985 3752.029411764706 453.4905215300467 3731.0882352941176 443.69596259487105 3710.1470588235293 442.9470560831334 3689.205882352941 442.18952771113993 3668.264705882353 441.4102737359516 3647.323529411765 440.35943056582056 3626.3823529411766 439.1354625729624 3605.4411764705883 437.84119270046506 3584.5 436.45931716608146 3563.5588235294117 434.9725271047773 3542.6176470588234 433.5415615660502 3521.676470588235 432.3203932157333 3500.735294117647 431.3782566408658 3479.794117647059 430.5117297264795 3458.8529411764707 429.7249311165208 3437.9117647058824 429.1613894967009 3416.970588235294 428.96097997032933 3396.029411764706 428.8105160166967 3375.0882352941176 428.64236977976526 3354.1470588235293 428.50399955057856 3333.205882352941 432.7535502158639 3312.264705882353 432.80627389640455 3291.323529411765 432.8676017835308 3270.3823529411766 432.98806566692065 3249.4411764705883 447.8607653758795 3228.5 445.04971196915034 3228.5 450.90613014226784Z" fill="#fdd5a4" opacity="0.9" />
		</g>
		<g>
			<path d="M3228.5 445.04971196915034 3249.4411764705883 447.8607653758795 3270.3823529411766 432.98806566692065 3291.323529411765 432.8676017835308 3312.264705882353 432.80627389640455 3333.205882352941 432.7535502158639 3354.1470588235293 428.50399955057856 3375.0882352941176 428.64236977976526 3396.029411764706 428.8105160166967 3416.970588235294 428.96097997032933 3437.9117647058824 429.1613894967009 3458.8529411764707 429.7249311165208 3479.794117647059 430.5117297264795 3500.735294117647 431.3782566408658 3521.676470588235 432.3203932157333 3542.6176470588234 433.5415615660502 3563.5588235294117 434.9725271047773 3584.5 436.45931716608146 3605.4411764705883 437.84119270046506 3626.3823529411766 439.1354625729624 3647.323529411765 440.35943056582056 3668.264705882353 441.4102737359516 3689.205882352941 442.18952771113993 3710.1470588235293 442.9470560831334 3731.0882352941176 443.69596259487105 3752.029411764706 453.4905215300467 3772.970588235294 454.47972281760985 3793.9117647058824 455.6431947463817 3814.8529411764707 456.2181048338814 3835.7941176470586 457.5593223229012 3856.735294117647 458.8077681755944 3877.676470588235 459.946755992067 3898.6176470588234 461.2444339081057 3919.5588235294117 470.38342727342314 3940.5 469.81130033797666 3961.4411764705883 469.2079498249524 3982.3823529411766 468.9078882196251 4003.323529411765 468.7350335488471 4024.264705882353 468.84734356461763 4045.2058823529414 468.95702207661526 4066.1470588235293 469.15262240928087 4087.0882352941176 469.43106409076864 4108.029411764706 469.68188908060466 4128.970588235294 469.6596614770044 4149.911764705882 469.73018322095714 4170.85294117647 469.45361176960154 4191.794117647059 469.25281227235195 4212.735294117647 469.55102191735557 4233.676470588235 469.63103904356444 4254.617647058823 469.7725947069797 4275.558823529412 469.9513908315054 4296.5 470.3245005923507 4296.5 465.4390074188502 4275.558823529412 465.07678566777184 4254.617647058823 464.9033783038482 4233.676470588235 464.7815818058518 4212.735294117647 464.7260968061159 4191.794117647059 464.4723890087734 4170.85294117647 464.6844034193931 4149.911764705882 464.9715947829817 4128.970588235294 464.9499237655363 4108.029411764706 464.9713870250645 4087.0882352941176 464.7567393127636 4066.1470588235293 464.5132259653092 4045.2058823529414 464.3461599383072 4024.264705882353 464.26375937292056 4003.323529411765 464.2122032971037 3982.3823529411766 464.3963627005436 3961.4411764705883 464.69518296460524 3940.5 465.29095095509365 3919.5588235294117 465.86857631542375 3898.6176470588234 457.9426597886813 3877.676470588235 456.6504617863283 3856.735294117647 455.5173638999522 3835.7941176470586 454.27397669951574 3814.8529411764707 452.9422128623981 3793.9117647058824 452.3392658302522 3772.970588235294 451.1914920386467 3752.029411764706 450.1807388631146 3731.0882352941176 440.3988808972397 3710.1470588235293 439.6628015961259 3689.205882352941 438.90968576505173 3668.264705882353 438.1368838719703 3647.323529411765 437.09878380068074 3626.3823529411766 435.88818645509696 3605.4411764705883 434.59694513524136 3584.5 433.22158409139143 3563.5588235294117 431.7348695488416 3542.6176470588234 430.30784750779037 3521.676470588235 429.09159001631633 3500.735294117647 428.1595197737724 3479.794117647059 427.30225741502903 3458.8529411764707 426.52676679830296 3437.9117647058824 425.97200661481094 3416.970588235294 425.7866796521752 3396.029411764706 425.65149111446993 3375.0882352941176 425.49532897112516 3354.1470588235293 425.3719419226974 3333.205882352941 429.64793603777895 3312.264705882353 429.7004140998976 3291.323529411765 429.76313464334123 3270.3823529411766 429.88054742773767 3249.4411764705883 444.82124955246854 3228.5 441.7030292243726 3228.5 445.04971196915034Z" fill="#f48c7d" opacity="0.9" />
		</g>
		<g>
			<path d="M3228.5 441.7030292243726 3249.4411764705883 444.82124955246854 3270.3823529411766 429.88054742773767 3291.323529411765 429.76313464334123 3312.264705882353 429.7004140998976 3333.205882352941 429.64793603777895 3354.1470588235293 425.3719419226974 3375.0882352941176 425.49532897112516 3396.029411764706 425.65149111446993 3416.970588235294 425.7866796521752 3437.9117647058824 425.97200661481094 3458.8529411764707 426.52676679830296 3479.794117647059 427.30225741502903 3500.735294117647 428.1595197737724 3521.676470588235 429.09159001631633 3542.6176470588234 430.30784750779037 3563.5588235294117 431.7348695488416 3584.5 433.22158409139143 3605.4411764705883 434.59694513524136 3626.3823529411766 435.88818645509696 3647.323529411765 437.09878380068074 3668.264705882353 438.1368838719703 3689.205882352941 438.90968576505173 3710.1470588235293 439.6628015961259 3731.0882352941176 440.3988808972397 3752.029411764706 450.1807388631146 3772.970588235294 451.1914920386467 3793.9117647058824 452.3392658302522 3814.8529411764707 452.9422128623981 3835.7941176470586 454.27397669951574 3856.735294117647 455.5173638999522 3877.676470588235 456.6504617863283 3898.6176470588234 457.9426597886813 3919.5588235294117 465.86857631542375 3940.5 465.29095095509365 3961.4411764705883 464.69518296460524 3982.3823529411766 464.3963627005436 4003.323529411765 464.2122032971037 4024.264705882353 464.26375937292056 4045.2058823529414 464.3461599383072 4066.1470588235293 464.5132259653092 4087.0882352941176 464.7567393127636 4108.029411764706 464.9713870250645 4128.970588235294 464.9499237655363 4149.911764705882 464.9715947829817 4170.85294117647 464.6844034193931 4191.794117647059 464.4723890087734 4212.735294117647 464.7260968061159 4233.676470588235 464.7815818058518 4254.617647058823 464.9033783038482 4275.558823529412 465.07678566777184 4296.5 465.4390074188502 4296.5 398.00000000000006 4275.558823529412 397.9999999999999 4254.617647058823 398 4233.676470588235 398 4212.735294117647 397.9999999999999 4191.794117647059 397.9999999999999 4170.85294117647 398 4149.911764705882 397.9999999999999 4128.970588235294 398 4108.029411764706 398.0000000000001 4087.0882352941176 397.99999999999983 4066.1470588235293 397.9999999999999 4045.2058823529414 397.99999999999994 4024.264705882353 397.9999999999999 4003.323529411765 397.9999999999999 3982.3823529411766 397.99999999999994 3961.4411764705883 398 3940.5 397.99999999999994 3919.5588235294117 398 3898.6176470588234 397.9999999999999 3877.676470588235 397.9999999999999 3856.735294117647 397.9999999999998 3835.7941176470586 398 3814.8529411764707 398 3793.9117647058824 398.00000000000006 3772.970588235294 398.0000000000002 3752.029411764706 398 3731.0882352941176 397.99999999999994 3710.1470588235293 398 3689.205882352941 398.0000000000001 3668.264705882353 398.00000000000006 3647.323529411765 397.99999999999994 3626.3823529411766 397.99999999999994 3605.4411764705883 398.00000000000006 3584.5 397.99999999999994 3563.5588235294117 398.00000000000017 3542.6176470588234 397.99999999999994 3521.676470588235 397.99999999999994 3500.735294117647 398 3479.794117647059 398 3458.8529411764707 398.00000000000017 3437.9117647058824 398 3416.970588235294 398.00000000000006 3396.029411764706 397.9999999999999 3375.0882352941176 398 3354.1470588235293 397.99999999999994 3333.205882352941 398.00000000000006 3312.264705882353 398.0000000000001 3291.323529411765 398.00000000000006 3270.3823529411766 398.00000000000006 3249.4411764705883 398.0000000000001 3228.5 398.0000000000001 3228.5 441.7030292243726Z" fill="#393d41" opacity="0.9" />
		</g>
		<g>
			<rect x="4372" y="431" width="22.9995" height="23" fill="#e62d39" />
		</g>
		<g>
			<text fill="#595959" font-family="Verdana,sans-serif" font-weight="400" font-size="41" transform="matrix(1 0 0 1 4404.56 454)">iOS</text>
		</g>
		<g>
			<rect x="4372" y="508" width="22.9995" height="23" fill="#005aa6" />
		</g>
		<g>
			<text fill="#595959" font-family="Verdana,sans-serif" font-weight="400" font-size="41" transform="matrix(1 0 0 1 4404.56 531)">Android</text>
		</g>
		<g>
			<rect x="4372" y="585" width="22.9995" height="23" fill="#55c0e9" />
		</g>
		<g>
			<text fill="#595959" font-family="Verdana,sans-serif" font-weight="400" font-size="41" transform="matrix(1 0 0 1 4404.56 608)">Windows</text>
		</g>
		<g>
			<rect x="4372" y="662" width="22.9995" height="23" fill="#f6a118" />
		</g>
		<g>
			<text fill="#595959" font-family="Verdana,sans-serif" font-weight="400" font-size="41" transform="matrix(1 0 0 1 4404.56 685)">macOS</text>
		</g>
		<g>
			<rect x="4372" y="739" width="22.9995" height="23" fill="#fdd5a4" />
		</g>
		<g>
			<text fill="#595959" font-family="Verdana,sans-serif" font-weight="400" font-size="41" transform="matrix(1 0 0 1 4404.56 762)">Other</text>
		</g>
		<g>
			<rect x="4372" y="816" width="22.9995" height="23" fill="#f48c7d" />
		</g>
		<g>
			<text fill="#595959" font-family="Verdana,sans-serif" font-weight="400" font-size="41" transform="matrix(1 0 0 1 4404.56 839)">Linux</text>
		</g>
		<g>
			<rect x="4372" y="893" width="22.9995" height="23" fill="#393d41" />
		</g>
		<g>
			<text fill="#595959" font-family="Verdana,sans-serif" font-weight="400" font-size="41" transform="matrix(1 0 0 1 4404.56 916)">Unclassified</text>
		</g>
	</g>
</svg>
