<svg width="1763" height="1046"
    xmlns="http://www.w3.org/2000/svg"
	xmlns:xlink="http://www.w3.org/1999/xlink" xml:space="preserve" overflow="hidden">
	<defs>
		<clipPath id="clip0">
			<rect x="2917" y="346" width="1763" height="1046"/>
		</clipPath>
	</defs>
	<g clip-path="url(#clip0)" transform="translate(-2917 -346)">
		<rect x="2918" y="347" width="1760" height="1043" fill="#FFFFFF" />
		<g>
			<path d="
			M3228.5 974.532 4296.5 974.532
			M3228.5 910.53 4296.5 910.53
			M3228.5 846.528 4296.5 846.528
			M3228.5 781.526 4296.5 781.526
			M3228.5 717.524 4296.5 717.524
			M3228.5 653.522 4296.5 653.522
			M3228.5 589.52 4296.5 589.52
			M3228.5 525.517 4296.5 525.517
			M3228.5 461.515 4296.5 461.515
			M3228.5 397.5 4296.5 397.5" stroke="#D9D9D9" stroke-width="3.4375" stroke-linejoin="round" stroke-miterlimit="10" fill="none" />
		</g>
		<g>
			<path d="M 1038.5 4296.5 1038.5" stroke="#D9D9D9" stroke-width="3.4375" stroke-linejoin="round" stroke-miterlimit="10" fill="none" fill-rule="evenodd" />
		</g>
		<g>
			<text fill="#595959" font-family="Verdana,Open Sans,DejaVu Sans,sans-serif" font-weight="400" font-size="41" transform="matrix(6.12323e-17 -1 1 6.12323e-17 3247.1982421875 1192.2914962768555)">16-Jun</text>
		</g>
		<g>
			<text fill="#595959" font-family="Verdana,Open Sans,DejaVu Sans,sans-serif" font-weight="400" font-size="41" transform="matrix(6.12323e-17 -1 1 6.12323e-17 3331.693660960478 1177.2768478393555)">14-Jul</text>
		</g>
		<g>
			<text fill="#595959" font-family="Verdana,Open Sans,DejaVu Sans,sans-serif" font-weight="400" font-size="41" transform="matrix(6.12323e-17 -1 1 6.12323e-17 3415.648552389706 1206.90576171875)">11-Aug</text>
		</g>
		<g>
			<text fill="#595959" font-family="Verdana,Open Sans,DejaVu Sans,sans-serif" font-weight="400" font-size="41" transform="matrix(6.12323e-17 -1 1 6.12323e-17 3499.583424287684 1204.38330078125)">08-Sep</text>
		</g>
		<g>
			<text fill="#595959" font-family="Verdana,Open Sans,DejaVu Sans,sans-serif" font-weight="400" font-size="41" transform="matrix(6.12323e-17 -1 1 6.12323e-17 3578.6235207950367 1201.1000900268555)">06-Oct</text>
		</g>
		<g>
			<text fill="#595959" font-family="Verdana,Open Sans,DejaVu Sans,sans-serif" font-weight="400" font-size="41" transform="matrix(6.12323e-17 -1 1 6.12323e-17 3662.38822667739 1211.43017578125)">03-Nov</text>
		</g>
		<g>
			<text fill="#595959" font-family="Verdana,Open Sans,DejaVu Sans,sans-serif" font-weight="400" font-size="41" transform="matrix(6.12323e-17 -1 1 6.12323e-17 3746.1529325597426 1207.0859375)">01-Dec</text>
		</g>
		<g>
			<text fill="#595959" font-family="Verdana,Open Sans,DejaVu Sans,sans-serif" font-weight="400" font-size="41" transform="matrix(6.12323e-17 -1 1 6.12323e-17 3829.8976189108457 1207.1259765625)">29-Dec</text>
		</g>
		<g>
			<text fill="#595959" font-family="Verdana,Open Sans,DejaVu Sans,sans-serif" font-weight="400" font-size="41" transform="matrix(6.12323e-17 -1 1 6.12323e-17 3917.3158892463234 1191.6909103393555)">26-Jan</text>
		</g>
		<g>
			<text fill="#595959" font-family="Verdana,Open Sans,DejaVu Sans,sans-serif" font-weight="400" font-size="41" transform="matrix(6.12323e-17 -1 1 6.12323e-17 3998.1577435661766 1203.08203125)">23-Feb</text>
		</g>
		<g>
			<text fill="#595959" font-family="Verdana,Open Sans,DejaVu Sans,sans-serif" font-weight="400" font-size="41" transform="matrix(6.12323e-17 -1 1 6.12323e-17 4081.1917365579043 1212.05078125)">23-Mar</text>
		</g>
		<g>
			<text fill="#595959" font-family="Verdana,Open Sans,DejaVu Sans,sans-serif" font-weight="400" font-size="41" transform="matrix(6.12323e-17 -1 1 6.12323e-17 4169.701071346507 1203.3022384643555)">20-Apr</text>
		</g>
		<g>
			<text fill="#595959" font-family="Verdana,Open Sans,DejaVu Sans,sans-serif" font-weight="400" font-size="41" transform="matrix(6.12323e-17 -1 1 6.12323e-17 4253.44575769761 1214.75341796875)">18-May</text>
		</g>
		<g>
			<text fill="#595959" font-family="Verdana,Open Sans,DejaVu Sans,sans-serif" font-weight="400" font-size="41" transform="matrix(1 0 0 1 3135.4482421875 1050)">0%</text>
		</g>
		<g>
			<text fill="#595959" font-family="Verdana,Open Sans,DejaVu Sans,sans-serif" font-weight="400" font-size="41" transform="matrix(1 0 0 1 3111.96533203125 922)">20%</text>
		</g>
		<g>
			<text fill="#595959" font-family="Verdana,Open Sans,DejaVu Sans,sans-serif" font-weight="400" font-size="41" transform="matrix(1 0 0 1 3110.82421875 794)">40%</text>
		</g>
		<g>
			<text fill="#595959" font-family="Verdana,Open Sans,DejaVu Sans,sans-serif" font-weight="400" font-size="41" transform="matrix(1 0 0 1 3112.3056640625 666)">60%</text>
		</g>
		<g>
			<text fill="#595959" font-family="Verdana,Open Sans,DejaVu Sans,sans-serif" font-weight="400" font-size="41" transform="matrix(1 0 0 1 3112.04541015625 538)">80%</text>
		</g>
		<g>
			<text fill="#595959" font-family="Verdana,Open Sans,DejaVu Sans,sans-serif" font-weight="400" font-size="41" transform="matrix(1 0 0 1 3090.2841796875 410)">100%</text>
		</g>
		<g>
			<text fill="#595959" font-family="Verdana,Open Sans,DejaVu Sans,sans-serif" font-weight="400" font-size="41" transform="matrix(1 0 0 1 3556.97119140625 1321)">Week Commencing</text>
		</g>
		<g>
			<text fill="#595959" font-family="Verdana,Open Sans,DejaVu Sans,sans-serif" font-weight="400" font-size="46" transform="matrix(6.12323e-17 -1 1 6.12323e-17 3019.73 936.7665710449219)">Requests (% of Total)</text>
		</g>
		<rect x="2918.5" y="347.5" width="1760" height="1043" stroke="#D9D9D9" stroke-width="3.4375" stroke-linejoin="round" stroke-miterlimit="10" fill="none" />
		<g>
			<path d="M3228.5 1038 3249.4411764705883 1038 3270.3823529411766 1038 3291.323529411765 1038 3312.264705882353 1038 3333.205882352941 1038 3354.1470588235293 1038 3375.0882352941176 1038 3396.029411764706 1038 3416.970588235294 1038 3437.9117647058824 1038 3458.8529411764707 1038 3479.794117647059 1038 3500.735294117647 1038 3521.676470588235 1038 3542.6176470588234 1038 3563.5588235294117 1038 3584.5 1038 3605.4411764705883 1038 3626.3823529411766 1038 3647.323529411765 1038 3668.264705882353 1038 3689.205882352941 1038 3710.1470588235293 1038 3731.0882352941176 1038 3752.029411764706 1038 3772.970588235294 1038 3793.9117647058824 1038 3814.8529411764707 1038 3835.7941176470586 1038 3856.735294117647 1038 3877.676470588235 1038 3898.6176470588234 1038 3919.5588235294117 1038 3940.5 1038 3961.4411764705883 1038 3982.3823529411766 1038 4003.323529411765 1038 4024.264705882353 1038 4045.2058823529414 1038 4066.1470588235293 1038 4087.0882352941176 1038 4108.029411764706 1038 4128.970588235294 1038 4149.911764705882 1038 4170.85294117647 1038 4191.794117647059 1038 4212.735294117647 1038 4233.676470588235 1038 4254.617647058823 1038 4275.558823529412 1038 4296.5 1038 4296.5 757.425801176804 4275.558823529412 754.7311760842077 4254.617647058823 754.7526261770736 4233.676470588235 754.7905253112169 4212.735294117647 753.5737063905224 4191.794117647059 752.5091044751014 4170.85294117647 751.1909604384529 4149.911764705882 749.859206747301 4128.970588235294 750.3443908538584 4108.029411764706 747.2654821077697 4087.0882352941176 746.5194038317675 4066.1470588235293 745.8055486763521 4045.2058823529414 745.625269596429 4024.264705882353 745.5837285424925 4003.323529411765 745.5518539372332 3982.3823529411766 745.5916587614981 3961.4411764705883 745.6264248572595 3940.5 746.5726732254989 3919.5588235294117 746.8242705611495 3898.6176470588234 746.4260841443786 3877.676470588235 746.1408324365968 3856.735294117647 746.1086007114674 3835.7941176470586 746.7358843125422 3814.8529411764707 747.3561118905186 3793.9117647058824 749.7549747311173 3772.970588235294 751.708180030847 3752.029411764706 751.761881610288 3731.0882352941176 753.5875510114441 3710.1470588235293 760.0049069239963 3689.205882352941 757.9113031477688 3668.264705882353 759.380873288005 3647.323529411765 764.3156850172985 3626.3823529411766 764.3768419479462 3605.4411764705883 764.3547678374432 3584.5 764.4897401031296 3563.5588235294117 766.8609306167309 3542.6176470588234 766.8567475951404 3521.676470588235 767.9192079463141 3500.735294117647 768.908358113137 3479.794117647059 771.7976640891548 3458.8529411764707 772.995900100849 3437.9117647058824 773.0047654751563 3416.970588235294 774.0176159604634 3396.029411764706 776.3680200175993 3375.0882352941176 776.3453368808368 3354.1470588235293 776.3465392709672 3333.205882352941 776.3609674251002 3312.264705882353 776.5119637903555 3291.323529411765 778.9439765467624 3270.3823529411766 785.3332769215773 3249.4411764705883 785.3813296257167 3228.5 786.9316254516905 3228.5 1038Z" fill="#e62d39" opacity="0.9" />
		</g>
		<g>
			<path d="M3228.5 786.9316254516905 3249.4411764705883 785.3813296257167 3270.3823529411766 785.3332769215773 3291.323529411765 778.9439765467624 3312.264705882353 776.5119637903555 3333.205882352941 776.3609674251002 3354.1470588235293 776.3465392709672 3375.0882352941176 776.3453368808368 3396.029411764706 776.3680200175993 3416.970588235294 774.0176159604634 3437.9117647058824 773.0047654751563 3458.8529411764707 772.995900100849 3479.794117647059 771.7976640891548 3500.735294117647 768.908358113137 3521.676470588235 767.9192079463141 3542.6176470588234 766.8567475951404 3563.5588235294117 766.8609306167309 3584.5 764.4897401031296 3605.4411764705883 764.3547678374432 3626.3823529411766 764.3768419479462 3647.323529411765 764.3156850172985 3668.264705882353 759.380873288005 3689.205882352941 757.9113031477688 3710.1470588235293 760.0049069239963 3731.0882352941176 753.5875510114441 3752.029411764706 751.761881610288 3772.970588235294 751.708180030847 3793.9117647058824 749.7549747311173 3814.8529411764707 747.3561118905186 3835.7941176470586 746.7358843125422 3856.735294117647 746.1086007114674 3877.676470588235 746.1408324365968 3898.6176470588234 746.4260841443786 3919.5588235294117 746.8242705611495 3940.5 746.5726732254989 3961.4411764705883 745.6264248572595 3982.3823529411766 745.5916587614981 4003.323529411765 745.5518539372332 4024.264705882353 745.5837285424925 4045.2058823529414 745.625269596429 4066.1470588235293 745.8055486763521 4087.0882352941176 746.5194038317675 4108.029411764706 747.2654821077697 4128.970588235294 750.3443908538584 4149.911764705882 749.859206747301 4170.85294117647 751.1909604384529 4191.794117647059 752.5091044751014 4212.735294117647 753.5737063905224 4233.676470588235 754.7905253112169 4254.617647058823 754.7526261770736 4275.558823529412 754.7311760842077 4296.5 757.425801176804 4296.5 531.7654388285994 4275.558823529412 531.3085827178397 4254.617647058823 531.3031911324066 4233.676470588235 531.3007083398543 4212.735294117647 531.2896928062746 4191.794117647059 531.4874215112181 4170.85294117647 531.6206852488414 4149.911764705882 531.4824060530289 4128.970588235294 531.6690142595838 4108.029411764706 530.3351700422893 4087.0882352941176 530.1079562333385 4066.1470588235293 529.767884481243 4045.2058823529414 529.5015251143122 4024.264705882353 529.6072381711158 4003.323529411765 529.6759586106136 3982.3823529411766 528.943616141882 3961.4411764705883 528.9256108228878 3940.5 529.7822561735807 3919.5588235294117 530.0318797750176 3898.6176470588234 529.5742385244796 3877.676470588235 529.1641691809261 3856.735294117647 529.1689859268577 3835.7941176470586 529.2185804117662 3814.8529411764707 529.5448927766422 3793.9117647058824 529.3666745800084 3772.970588235294 529.7448004770854 3752.029411764706 529.7274153021705 3731.0882352941176 530.163015188101 3710.1470588235293 532.2645239373791 3689.205882352941 531.3268574465264 3668.264705882353 531.4166307781715 3647.323529411765 531.7572224646864 3626.3823529411766 531.7708483166984 3605.4411764705883 531.8218985108718 3584.5 531.9849023445704 3563.5588235294117 531.7935729648713 3542.6176470588234 531.7864321784326 3521.676470588235 531.5727707842481 3500.735294117647 531.4390936505183 3479.794117647059 532.2027211748189 3458.8529411764707 532.4711028871407 3437.9117647058824 532.4751666451237 3416.970588235294 532.6424401194076 3396.029411764706 532.3819588718641 3375.0882352941176 532.3762321494829 3354.1470588235293 532.3835012006392 3333.205882352941 532.4008414612442 3312.264705882353 531.9653947132791 3291.323529411765 532.7065148297092 3270.3823529411766 534.1646402996798 3249.4411764705883 534.1813437994358 3228.5 534.0614406876781 3228.5 786.9316254516905Z" fill="#005aa6" opacity="0.9" />
		</g>
		<g>
			<path d="M3228.5 534.0614406876781 3249.4411764705883 534.1813437994358 3270.3823529411766 534.1646402996798 3291.323529411765 532.7065148297092 3312.264705882353 531.9653947132791 3333.205882352941 532.4008414612442 3354.1470588235293 532.3835012006392 3375.0882352941176 532.3762321494829 3396.029411764706 532.3819588718641 3416.970588235294 532.6424401194076 3437.9117647058824 532.4751666451237 3458.8529411764707 532.4711028871407 3479.794117647059 532.2027211748189 3500.735294117647 531.4390936505183 3521.676470588235 531.5727707842481 3542.6176470588234 531.7864321784326 3563.5588235294117 531.7935729648713 3584.5 531.9849023445704 3605.4411764705883 531.8218985108718 3626.3823529411766 531.7708483166984 3647.323529411765 531.7572224646864 3668.264705882353 531.4166307781715 3689.205882352941 531.3268574465264 3710.1470588235293 532.2645239373791 3731.0882352941176 530.163015188101 3752.029411764706 529.7274153021705 3772.970588235294 529.7448004770854 3793.9117647058824 529.3666745800084 3814.8529411764707 529.5448927766422 3835.7941176470586 529.2185804117662 3856.735294117647 529.1689859268577 3877.676470588235 529.1641691809261 3898.6176470588234 529.5742385244796 3919.5588235294117 530.0318797750176 3940.5 529.7822561735807 3961.4411764705883 528.9256108228878 3982.3823529411766 528.943616141882 4003.323529411765 529.6759586106136 4024.264705882353 529.6072381711158 4045.2058823529414 529.5015251143122 4066.1470588235293 529.767884481243 4087.0882352941176 530.1079562333385 4108.029411764706 530.3351700422893 4128.970588235294 531.6690142595838 4149.911764705882 531.4824060530289 4170.85294117647 531.6206852488414 4191.794117647059 531.4874215112181 4212.735294117647 531.2896928062746 4233.676470588235 531.3007083398543 4254.617647058823 531.3031911324066 4275.558823529412 531.3085827178397 4296.5 531.7654388285994 4296.5 485.59231788424785 4275.558823529412 486.2135396268373 4254.617647058823 486.20900192755903 4233.676470588235 486.20889715304327 4212.735294117647 486.6118670637434 4191.794117647059 487.2177518598812 4170.85294117647 487.710660836673 4149.911764705882 488.0571972463991 4128.970588235294 488.49331840138825 4108.029411764706 488.00156539342817 4087.0882352941176 487.9037558495532 4066.1470588235293 487.95222090418406 4045.2058823529414 488.0992768689666 4024.264705882353 488.4707685226323 4003.323529411765 488.81730930051134 3982.3823529411766 489.66218659583717 3961.4411764705883 489.6497010215789 3940.5 489.62346831140377 3919.5588235294117 490.08709103844944 3898.6176470588234 489.8264670604297 3877.676470588235 489.6030568350501 3856.735294117647 489.6027851684956 3835.7941176470586 489.6838400376917 3814.8529411764707 490.1068496342023 3793.9117647058824 490.9492704753914 3772.970588235294 490.39407239534404 3752.029411764706 490.3851968973204 3731.0882352941176 490.7185530259544 3710.1470588235293 492.30515321923616 3689.205882352941 491.64116500384506 3668.264705882353 491.78456573649515 3647.323529411765 491.92955522350275 3626.3823529411766 491.93920435370626 3605.4411764705883 491.9768227136466 3584.5 492.1505952348429 3563.5588235294117 491.85600669794854 3542.6176470588234 491.8513930148632 3521.676470588235 491.63219577145946 3500.735294117647 491.4978977886208 3479.794117647059 491.99009410225506 3458.8529411764707 492.16551794945576 3437.9117647058824 492.1686259707535 3416.970588235294 492.21654806017045 3396.029411764706 491.7116461371828 3375.0882352941176 491.70767780671554 3354.1470588235293 491.71346164432515 3333.205882352941 491.7282826494978 3312.264705882353 491.33050875804906 3291.323529411765 491.76141449343754 3270.3823529411766 492.74242973299926 3249.4411764705883 492.75457857238825 3228.5 492.5918650008465 3228.5 534.0614406876781Z" fill="#55c0e9" opacity="0.9" />
		</g>
		<g>
			<path d="M3228.5 492.5918650008465 3249.4411764705883 492.75457857238825 3270.3823529411766 492.74242973299926 3291.323529411765 491.76141449343754 3312.264705882353 491.33050875804906 3333.205882352941 491.7282826494978 3354.1470588235293 491.71346164432515 3375.0882352941176 491.70767780671554 3396.029411764706 491.7116461371828 3416.970588235294 492.21654806017045 3437.9117647058824 492.1686259707535 3458.8529411764707 492.16551794945576 3479.794117647059 491.99009410225506 3500.735294117647 491.4978977886208 3521.676470588235 491.63219577145946 3542.6176470588234 491.8513930148632 3563.5588235294117 491.85600669794854 3584.5 492.1505952348429 3605.4411764705883 491.9768227136466 3626.3823529411766 491.93920435370626 3647.323529411765 491.92955522350275 3668.264705882353 491.78456573649515 3689.205882352941 491.64116500384506 3710.1470588235293 492.30515321923616 3731.0882352941176 490.7185530259544 3752.029411764706 490.3851968973204 3772.970588235294 490.39407239534404 3793.9117647058824 490.9492704753914 3814.8529411764707 490.1068496342023 3835.7941176470586 489.6838400376917 3856.735294117647 489.6027851684956 3877.676470588235 489.6030568350501 3898.6176470588234 489.8264670604297 3919.5588235294117 490.08709103844944 3940.5 489.62346831140377 3961.4411764705883 489.6497010215789 3982.3823529411766 489.66218659583717 4003.323529411765 488.81730930051134 4024.264705882353 488.4707685226323 4045.2058823529414 488.0992768689666 4066.1470588235293 487.95222090418406 4087.0882352941176 487.9037558495532 4108.029411764706 488.00156539342817 4128.970588235294 488.49331840138825 4149.911764705882 488.0571972463991 4170.85294117647 487.710660836673 4191.794117647059 487.2177518598812 4212.735294117647 486.6118670637434 4233.676470588235 486.20889715304327 4254.617647058823 486.20900192755903 4275.558823529412 486.2135396268373 4296.5 485.59231788424785 4296.5 471.9639262442903 4275.558823529412 473.1679949783827 4254.617647058823 473.1633049593818 4233.676470588235 473.1639770238033 4212.735294117647 473.7464712888439 4191.794117647059 474.59777194801586 4170.85294117647 475.23714530807007 4149.911764705882 475.74598723167173 4128.970588235294 476.3034641007523 4108.029411764706 476.04032244458955 4087.0882352941176 476.08864417534 4066.1470588235293 476.2563330555304 4045.2058823529414 476.501380298194 4024.264705882353 476.9091078280443 4003.323529411765 477.3175055832355 3982.3823529411766 478.10739716876634 3961.4411764705883 478.09661826532414 3940.5 478.15999289365544 3919.5588235294117 478.5827424221303 3898.6176470588234 478.38419566392514 3877.676470588235 478.2713135439936 3856.735294117647 478.26942714386075 3835.7941176470586 478.5099393463872 3814.8529411764707 478.7941392845137 3793.9117647058824 479.58006819193264 3772.970588235294 479.10650501970053 3752.029411764706 479.0999411202481 3731.0882352941176 479.4072866140748 3710.1470588235293 480.96640637284213 3689.205882352941 480.2698842349475 3668.264705882353 480.4907637351383 3647.323529411765 480.4086170616429 3626.3823529411766 480.41676419469263 3605.4411764705883 480.45029730465194 3584.5 480.6272134139708 3563.5588235294117 480.40305013594224 3542.6176470588234 480.39917600110454 3521.676470588235 480.2978208961403 3500.735294117647 480.1378211447884 3479.794117647059 480.4875119170523 3458.8529411764707 480.62062646338103 3437.9117647058824 480.623498410782 3416.970588235294 480.6254558284506 3396.029411764706 479.9434244465183 3375.0882352941176 479.939862628262 3354.1470588235293 479.94505960714844 3333.205882352941 479.95902615881243 3312.264705882353 479.5505692873087 3291.323529411765 479.86304908787844 3270.3823529411766 480.59388216933854 3249.4411764705883 480.6043736648512 3228.5 480.3867647714376 3228.5 492.5918650008465Z" fill="#f6a118" opacity="0.9" />
		</g>
		<g>
			<path d="M3228.5 480.3867647714376 3249.4411764705883 480.6043736648512 3270.3823529411766 480.59388216933854 3291.323529411765 479.86304908787844 3312.264705882353 479.5505692873087 3333.205882352941 479.95902615881243 3354.1470588235293 479.94505960714844 3375.0882352941176 479.939862628262 3396.029411764706 479.9434244465183 3416.970588235294 480.6254558284506 3437.9117647058824 480.623498410782 3458.8529411764707 480.62062646338103 3479.794117647059 480.4875119170523 3500.735294117647 480.1378211447884 3521.676470588235 480.2978208961403 3542.6176470588234 480.39917600110454 3563.5588235294117 480.40305013594224 3584.5 480.6272134139708 3605.4411764705883 480.45029730465194 3626.3823529411766 480.41676419469263 3647.323529411765 480.4086170616429 3668.264705882353 480.4907637351383 3689.205882352941 480.2698842349475 3710.1470588235293 480.96640637284213 3731.0882352941176 479.4072866140748 3752.029411764706 479.0999411202481 3772.970588235294 479.10650501970053 3793.9117647058824 479.58006819193264 3814.8529411764707 478.7941392845137 3835.7941176470586 478.5099393463872 3856.735294117647 478.26942714386075 3877.676470588235 478.2713135439936 3898.6176470588234 478.38419566392514 3919.5588235294117 478.5827424221303 3940.5 478.15999289365544 3961.4411764705883 478.09661826532414 3982.3823529411766 478.10739716876634 4003.323529411765 477.3175055832355 4024.264705882353 476.9091078280443 4045.2058823529414 476.501380298194 4066.1470588235293 476.2563330555304 4087.0882352941176 476.08864417534 4108.029411764706 476.04032244458955 4128.970588235294 476.3034641007523 4149.911764705882 475.74598723167173 4170.85294117647 475.23714530807007 4191.794117647059 474.59777194801586 4212.735294117647 473.7464712888439 4233.676470588235 473.1639770238033 4254.617647058823 473.1633049593818 4275.558823529412 473.1679949783827 4296.5 471.9639262442903 4296.5 467.45832710584585 4275.558823529412 468.7183458533408 4254.617647058823 468.7095414206735 4233.676470588235 468.7093552829413 4212.735294117647 469.32209426095994 4191.794117647059 470.179152895614 4170.85294117647 470.83280416124353 4149.911764705882 471.35852133856207 4128.970588235294 471.9149927259896 4108.029411764706 471.6905736054739 4087.0882352941176 471.763371221977 4066.1470588235293 471.9574850631018 4045.2058823529414 472.2340193606014 4024.264705882353 472.6559547595341 4003.323529411765 473.0650745461115 3982.3823529411766 473.82819172566997 3961.4411764705883 473.8181074091512 3940.5 473.8782116867164 3919.5588235294117 474.28062031125177 3898.6176470588234 474.09267029394687 3877.676470588235 473.9897191134042 3856.735294117647 473.9871807138114 3835.7941176470586 474.22541956826655 3814.8529411764707 474.511998002383 3793.9117647058824 475.27887736921514 3772.970588235294 474.8518141039069 3752.029411764706 474.8469015951653 3731.0882352941176 475.13902259765536 3710.1470588235293 476.6264014136676 3689.205882352941 475.9675036747879 3668.264705882353 476.1855240028958 3647.323529411765 476.0304088632991 3626.3823529411766 476.03986709155856 3605.4411764705883 476.07416075277575 3584.5 476.25220661385714 3563.5588235294117 475.9804259287693 3542.6176470588234 475.9771097573116 3521.676470588235 475.85734943037994 3500.735294117647 475.67113203039463 3479.794117647059 475.9445091636468 3458.8529411764707 476.0428252544268 3437.9117647058824 476.0456947164946 3416.970588235294 476.0126442187972 3396.029411764706 475.2164345015217 3375.0882352941176 475.2129700329708 3354.1470588235293 475.2181577191099 3333.205882352941 475.2322484984899 3312.264705882353 474.81810616673476 3291.323529411765 475.10657399076854 3270.3823529411766 475.80132801818854 3249.4411764705883 475.81236587515644 3228.5 475.5856075858726 3228.5 480.3867647714376Z" fill="#fdd5a4" opacity="0.9" />
		</g>
		<g>
			<path d="M3228.5 475.5856075858726 3249.4411764705883 475.81236587515644 3270.3823529411766 475.80132801818854 3291.323529411765 475.10657399076854 3312.264705882353 474.81810616673476 3333.205882352941 475.2322484984899 3354.1470588235293 475.2181577191099 3375.0882352941176 475.2129700329708 3396.029411764706 475.2164345015217 3416.970588235294 476.0126442187972 3437.9117647058824 476.0456947164946 3458.8529411764707 476.0428252544268 3479.794117647059 475.9445091636468 3500.735294117647 475.67113203039463 3521.676470588235 475.85734943037994 3542.6176470588234 475.9771097573116 3563.5588235294117 475.9804259287693 3584.5 476.25220661385714 3605.4411764705883 476.07416075277575 3626.3823529411766 476.03986709155856 3647.323529411765 476.0304088632991 3668.264705882353 476.1855240028958 3689.205882352941 475.9675036747879 3710.1470588235293 476.6264014136676 3731.0882352941176 475.13902259765536 3752.029411764706 474.8469015951653 3772.970588235294 474.8518141039069 3793.9117647058824 475.27887736921514 3814.8529411764707 474.511998002383 3835.7941176470586 474.22541956826655 3856.735294117647 473.9871807138114 3877.676470588235 473.9897191134042 3898.6176470588234 474.09267029394687 3919.5588235294117 474.28062031125177 3940.5 473.8782116867164 3961.4411764705883 473.8181074091512 3982.3823529411766 473.82819172566997 4003.323529411765 473.0650745461115 4024.264705882353 472.6559547595341 4045.2058823529414 472.2340193606014 4066.1470588235293 471.9574850631018 4087.0882352941176 471.763371221977 4108.029411764706 471.6905736054739 4128.970588235294 471.9149927259896 4149.911764705882 471.35852133856207 4170.85294117647 470.83280416124353 4191.794117647059 470.179152895614 4212.735294117647 469.32209426095994 4233.676470588235 468.7093552829413 4254.617647058823 468.7095414206735 4275.558823529412 468.7183458533408 4296.5 467.45832710584585 4296.5 464.7628176089946 4275.558823529412 466.01617968617694 4254.617647058823 466.00219850652616 4233.676470588235 466.0003628505107 4212.735294117647 466.6138363140116 4191.794117647059 467.47119043546877 4170.85294117647 468.10966081469456 4149.911764705882 468.63278021070374 4128.970588235294 469.1859358213357 4108.029411764706 469.0039882230996 4087.0882352941176 469.0649184884676 4066.1470588235293 469.272109525969 4045.2058823529414 469.56054940240006 4024.264705882353 470.00314366447725 4003.323529411765 470.42216191971556 3982.3823529411766 471.16063030075713 3961.4411764705883 471.15110050258926 3940.5 471.2005668211781 3919.5588235294117 471.56419721584615 3898.6176470588234 471.35961801945126 3877.676470588235 471.1659266751794 3856.735294117647 471.15503597364875 3835.7941176470586 471.36241611042175 3814.8529411764707 471.63391436910644 3793.9117647058824 472.3711663447606 3772.970588235294 471.84780556889575 3752.029411764706 471.84385861501005 3731.0882352941176 472.0370495671892 3710.1470588235293 473.4135261402591 3689.205882352941 472.6948042788454 3668.264705882353 472.8722901716775 3647.323529411765 472.3229333883161 3626.3823529411766 472.33160122478233 3605.4411764705883 472.3663150934169 3584.5 472.5454339613937 3563.5588235294117 472.089365302357 3542.6176470588234 472.0865469044695 3521.676470588235 471.87656051033446 3500.735294117647 471.6164928135846 3479.794117647059 471.7330711807051 3458.8529411764707 471.76332000605703 3437.9117647058824 471.766218855925 3416.970588235294 471.666704132637 3396.029411764706 470.5946289838734 3375.0882352941176 470.5925960519466 3354.1470588235293 470.5979497527046 3333.205882352941 470.6143953187705 3312.264705882353 470.16763283113994 3291.323529411765 470.4164498778376 3270.3823529411766 471.0661628206815 3249.4411764705883 471.07731696753683 3228.5 470.8209639445631 3228.5 475.5856075858726Z" fill="#f48c7d" opacity="0.9" />
		</g>
		<g>
			<path d="M3228.5 470.8209639445631 3249.4411764705883 471.07731696753683 3270.3823529411766 471.0661628206815 3291.323529411765 470.4164498778376 3312.264705882353 470.16763283113994 3333.205882352941 470.6143953187705 3354.1470588235293 470.5979497527046 3375.0882352941176 470.5925960519466 3396.029411764706 470.5946289838734 3416.970588235294 471.666704132637 3437.9117647058824 471.766218855925 3458.8529411764707 471.76332000605703 3479.794117647059 471.7330711807051 3500.735294117647 471.6164928135846 3521.676470588235 471.87656051033446 3542.6176470588234 472.0865469044695 3563.5588235294117 472.089365302357 3584.5 472.5454339613937 3605.4411764705883 472.3663150934169 3626.3823529411766 472.33160122478233 3647.323529411765 472.3229333883161 3668.264705882353 472.8722901716775 3689.205882352941 472.6948042788454 3710.1470588235293 473.4135261402591 3731.0882352941176 472.0370495671892 3752.029411764706 471.84385861501005 3772.970588235294 471.84780556889575 3793.9117647058824 472.3711663447606 3814.8529411764707 471.63391436910644 3835.7941176470586 471.36241611042175 3856.735294117647 471.15503597364875 3877.676470588235 471.1659266751794 3898.6176470588234 471.35961801945126 3919.5588235294117 471.56419721584615 3940.5 471.2005668211781 3961.4411764705883 471.15110050258926 3982.3823529411766 471.16063030075713 4003.323529411765 470.42216191971556 4024.264705882353 470.00314366447725 4045.2058823529414 469.56054940240006 4066.1470588235293 469.272109525969 4087.0882352941176 469.0649184884676 4108.029411764706 469.0039882230996 4128.970588235294 469.1859358213357 4149.911764705882 468.63278021070374 4170.85294117647 468.10966081469456 4191.794117647059 467.47119043546877 4212.735294117647 466.6138363140116 4233.676470588235 466.0003628505107 4254.617647058823 466.00219850652616 4275.558823529412 466.01617968617694 4296.5 464.7628176089946 4296.5 397.9999999999999 4275.558823529412 398.0000000000001 4254.617647058823 397.99999999999994 4233.676470588235 398 4212.735294117647 397.9999999999999 4191.794117647059 398.00000000000006 4170.85294117647 398 4149.911764705882 398 4128.970588235294 398.00000000000006 4108.029411764706 398.00000000000006 4087.0882352941176 397.9999999999999 4066.1470588235293 398.0000000000001 4045.2058823529414 397.9999999999999 4024.264705882353 398 4003.323529411765 397.9999999999999 3982.3823529411766 398.0000000000001 3961.4411764705883 398 3940.5 398.00000000000006 3919.5588235294117 397.9999999999999 3898.6176470588234 398 3877.676470588235 398.00000000000017 3856.735294117647 398 3835.7941176470586 398.00000000000006 3814.8529411764707 397.99999999999994 3793.9117647058824 398.00000000000006 3772.970588235294 397.9999999999999 3752.029411764706 397.99999999999994 3731.0882352941176 398 3710.1470588235293 398 3689.205882352941 397.99999999999994 3668.264705882353 397.9999999999999 3647.323529411765 398 3626.3823529411766 398 3605.4411764705883 398 3584.5 398.0000000000001 3563.5588235294117 398 3542.6176470588234 398 3521.676470588235 398.0000000000002 3500.735294117647 397.99999999999994 3479.794117647059 398 3458.8529411764707 398.0000000000001 3437.9117647058824 398 3416.970588235294 398.00000000000006 3396.029411764706 398.00000000000006 3375.0882352941176 397.99999999999994 3354.1470588235293 398.00000000000017 3333.205882352941 398 3312.264705882353 398.00000000000017 3291.323529411765 397.9999999999999 3270.3823529411766 397.9999999999999 3249.4411764705883 398.0000000000001 3228.5 397.9999999999999 3228.5 470.8209639445631Z" fill="#393d41" opacity="0.9" />
		</g>
		<g>
			<rect x="4372" y="431" width="22.9995" height="23" fill="#e62d39" />
		</g>
		<g>
			<text fill="#595959" font-family="Verdana,Open Sans,DejaVu Sans,sans-serif" font-weight="400" font-size="41" transform="matrix(1 0 0 1 4404.56 454)">Android</text>
		</g>
		<g>
			<rect x="4372" y="508" width="22.9995" height="23" fill="#005aa6" />
		</g>
		<g>
			<text fill="#595959" font-family="Verdana,Open Sans,DejaVu Sans,sans-serif" font-weight="400" font-size="41" transform="matrix(1 0 0 1 4404.56 531)">iOS</text>
		</g>
		<g>
			<rect x="4372" y="585" width="22.9995" height="23" fill="#55c0e9" />
		</g>
		<g>
			<text fill="#595959" font-family="Verdana,Open Sans,DejaVu Sans,sans-serif" font-weight="400" font-size="41" transform="matrix(1 0 0 1 4404.56 608)">Windows</text>
		</g>
		<g>
			<rect x="4372" y="662" width="22.9995" height="23" fill="#f6a118" />
		</g>
		<g>
			<text fill="#595959" font-family="Verdana,Open Sans,DejaVu Sans,sans-serif" font-weight="400" font-size="41" transform="matrix(1 0 0 1 4404.56 685)">macOS</text>
		</g>
		<g>
			<rect x="4372" y="739" width="22.9995" height="23" fill="#fdd5a4" />
		</g>
		<g>
			<text fill="#595959" font-family="Verdana,Open Sans,DejaVu Sans,sans-serif" font-weight="400" font-size="41" transform="matrix(1 0 0 1 4404.56 762)">Linux</text>
		</g>
		<g>
			<rect x="4372" y="816" width="22.9995" height="23" fill="#f48c7d" />
		</g>
		<g>
			<text fill="#595959" font-family="Verdana,Open Sans,DejaVu Sans,sans-serif" font-weight="400" font-size="41" transform="matrix(1 0 0 1 4404.56 839)">Other</text>
		</g>
		<g>
			<rect x="4372" y="893" width="22.9995" height="23" fill="#393d41" />
		</g>
		<g>
			<text fill="#595959" font-family="Verdana,Open Sans,DejaVu Sans,sans-serif" font-weight="400" font-size="41" transform="matrix(1 0 0 1 4404.56 916)">Unclassified</text>
		</g>
	</g>
</svg>
