<svg width="1763" height="1046"
    xmlns="http://www.w3.org/2000/svg"
	xmlns:xlink="http://www.w3.org/1999/xlink" xml:space="preserve" overflow="hidden">
	<defs>
		<clipPath id="clip0">
			<rect x="2917" y="346" width="1763" height="1046"/>
		</clipPath>
	</defs>
	<g clip-path="url(#clip0)" transform="translate(-2917 -346)">
		<rect x="2918" y="347" width="1760" height="1043" fill="#FFFFFF" />
		<g>
			<path d="
			M3228.5 974.532 4296.5 974.532
			M3228.5 910.53 4296.5 910.53
			M3228.5 846.528 4296.5 846.528
			M3228.5 781.526 4296.5 781.526
			M3228.5 717.524 4296.5 717.524
			M3228.5 653.522 4296.5 653.522
			M3228.5 589.52 4296.5 589.52
			M3228.5 525.517 4296.5 525.517
			M3228.5 461.515 4296.5 461.515
			M3228.5 397.5 4296.5 397.5" stroke="#D9D9D9" stroke-width="3.4375" stroke-linejoin="round" stroke-miterlimit="10" fill="none" />
		</g>
		<g>
			<path d="M 1038.5 4296.5 1038.5" stroke="#D9D9D9" stroke-width="3.4375" stroke-linejoin="round" stroke-miterlimit="10" fill="none" fill-rule="evenodd" />
		</g>
		<g>
			<text fill="#595959" font-family="Verdana,sans-serif" font-weight="400" font-size="41" transform="matrix(6.12323e-17 -1 1 6.12323e-17 3244.5 1216)">26-Feb</text>
		</g>
		<g>
			<text fill="#595959" font-family="Verdana,sans-serif" font-weight="400" font-size="41" transform="matrix(6.12323e-17 -1 1 6.12323e-17 3328.264705882353 1223)">25-Mar</text>
		</g>
		<g>
			<text fill="#595959" font-family="Verdana,sans-serif" font-weight="400" font-size="41" transform="matrix(6.12323e-17 -1 1 6.12323e-17 3415.529411764706 1216)">22-Apr</text>
		</g>
		<g>
			<text fill="#595959" font-family="Verdana,sans-serif" font-weight="400" font-size="41" transform="matrix(6.12323e-17 -1 1 6.12323e-17 3499.294117647059 1228)">20-May</text>
		</g>
		<g>
			<text fill="#595959" font-family="Verdana,sans-serif" font-weight="400" font-size="41" transform="matrix(6.12323e-17 -1 1 6.12323e-17 3579.0588235294117 1209)">17-Jun</text>
		</g>
		<g>
			<text fill="#595959" font-family="Verdana,sans-serif" font-weight="400" font-size="41" transform="matrix(6.12323e-17 -1 1 6.12323e-17 3663.323529411765 1194)">15-Jul</text>
		</g>
		<g>
			<text fill="#595959" font-family="Verdana,sans-serif" font-weight="400" font-size="41" transform="matrix(6.12323e-17 -1 1 6.12323e-17 3750.5882352941176 1218)">12-Aug</text>
		</g>
		<g>
			<text fill="#595959" font-family="Verdana,sans-serif" font-weight="400" font-size="41" transform="matrix(6.12323e-17 -1 1 6.12323e-17 3834.3529411764707 1222)">09-Sep</text>
		</g>
		<g>
			<text fill="#595959" font-family="Verdana,sans-serif" font-weight="400" font-size="41" transform="matrix(6.12323e-17 -1 1 6.12323e-17 3914.6176470588234 1215)">07-Oct</text>
		</g>
		<g>
			<text fill="#595959" font-family="Verdana,sans-serif" font-weight="400" font-size="41" transform="matrix(6.12323e-17 -1 1 6.12323e-17 3998.3823529411766 1225)">04-Nov</text>
		</g>
		<g>
			<text fill="#595959" font-family="Verdana,sans-serif" font-weight="400" font-size="41" transform="matrix(6.12323e-17 -1 1 6.12323e-17 4082.1470588235293 1223)">09-Dec</text>
		</g>
		<g>
			<text fill="#595959" font-family="Verdana,sans-serif" font-weight="400" font-size="41" transform="matrix(6.12323e-17 -1 1 6.12323e-17 4165.911764705882 1210)">06-Jan</text>
		</g>
		<g>
			<text fill="#595959" font-family="Verdana,sans-serif" font-weight="400" font-size="41" transform="matrix(6.12323e-17 -1 1 6.12323e-17 4249.676470588235 1217)">03-Feb</text>
		</g>
		<g>
			<text fill="#595959" font-family="Verdana,sans-serif" font-weight="400" font-size="41" transform="matrix(1 0 0 1 3123.5 1050)">0%</text>
		</g>
		<g>
			<text fill="#595959" font-family="Verdana,sans-serif" font-weight="400" font-size="41" transform="matrix(1 0 0 1 3097.5 922)">20%</text>
		</g>
		<g>
			<text fill="#595959" font-family="Verdana,sans-serif" font-weight="400" font-size="41" transform="matrix(1 0 0 1 3096.5 794)">40%</text>
		</g>
		<g>
			<text fill="#595959" font-family="Verdana,sans-serif" font-weight="400" font-size="41" transform="matrix(1 0 0 1 3097.5 666)">60%</text>
		</g>
		<g>
			<text fill="#595959" font-family="Verdana,sans-serif" font-weight="400" font-size="41" transform="matrix(1 0 0 1 3097.5 538)">80%</text>
		</g>
		<g>
			<text fill="#595959" font-family="Verdana,sans-serif" font-weight="400" font-size="41" transform="matrix(1 0 0 1 3074.5 410)">100%</text>
		</g>
		<g>
			<text fill="#595959" font-family="Verdana,sans-serif" font-weight="400" font-size="41" transform="matrix(1 0 0 1 3544.5 1321)">Week Commencing</text>
		</g>
		<g>
			<text fill="#595959" font-family="Verdana,sans-serif" font-weight="400" font-size="46" transform="matrix(6.12323e-17 -1 1 6.12323e-17 3019.73 965.25)">Requests (% of Total)</text>
		</g>
		<rect x="2918.5" y="347.5" width="1760" height="1043" stroke="#D9D9D9" stroke-width="3.4375" stroke-linejoin="round" stroke-miterlimit="10" fill="none" />
		<g>
			<path d="M3228.5 1038 3249.4411764705883 1038 3270.3823529411766 1038 3291.323529411765 1038 3312.264705882353 1038 3333.205882352941 1038 3354.1470588235293 1038 3375.0882352941176 1038 3396.029411764706 1038 3416.970588235294 1038 3437.9117647058824 1038 3458.8529411764707 1038 3479.794117647059 1038 3500.735294117647 1038 3521.676470588235 1038 3542.6176470588234 1038 3563.5588235294117 1038 3584.5 1038 3605.4411764705883 1038 3626.3823529411766 1038 3647.323529411765 1038 3668.264705882353 1038 3689.205882352941 1038 3710.1470588235293 1038 3731.0882352941176 1038 3752.029411764706 1038 3772.970588235294 1038 3793.9117647058824 1038 3814.8529411764707 1038 3835.7941176470586 1038 3856.735294117647 1038 3877.676470588235 1038 3898.6176470588234 1038 3919.5588235294117 1038 3940.5 1038 3961.4411764705883 1038 3982.3823529411766 1038 4003.323529411765 1038 4024.264705882353 1038 4045.2058823529414 1038 4066.1470588235293 1038 4087.0882352941176 1038 4108.029411764706 1038 4128.970588235294 1038 4149.911764705882 1038 4170.85294117647 1038 4191.794117647059 1038 4212.735294117647 1038 4233.676470588235 1038 4254.617647058823 1038 4275.558823529412 1038 4296.5 1038 4296.5 783.391757080238 4275.558823529412 783.5748526599284 4254.617647058823 783.7048944052132 4233.676470588235 783.4831690555263 4212.735294117647 783.0196786229212 4191.794117647059 783.0275141890429 4170.85294117647 783.4492557109172 4149.911764705882 783.484387962271 4128.970588235294 783.2922413061176 4108.029411764706 783.1097274823168 4087.0882352941176 783.0871417282395 4066.1470588235293 782.9000115015447 4045.2058823529414 782.5276373365637 4024.264705882353 782.6753667196651 4003.323529411765 783.1682641871979 3982.3823529411766 783.5277451200283 3961.4411764705883 783.7165926175173 3940.5 725.0579859810713 3919.5588235294117 723.964272691857 3898.6176470588234 722.9963838923263 3877.676470588235 722.2500058248895 3856.735294117647 721.3672257636031 3835.7941176470586 716.1347668638947 3814.8529411764707 714.9315603533947 3793.9117647058824 714.226459280052 3772.970588235294 714.4105060971157 3752.029411764706 713.9589728279007 3731.0882352941176 713.4392482120827 3710.1470588235293 712.9526784937428 3689.205882352941 712.3235713382509 3668.264705882353 712.0748666907585 3647.323529411765 711.7892867662207 3626.3823529411766 711.2928421961317 3605.4411764705883 710.6616144923173 3584.5 710.307171035662 3563.5588235294117 710.0229260904226 3542.6176470588234 709.5011500172373 3521.676470588235 708.8529728655324 3500.735294117647 708.5111643371398 3479.794117647059 707.6773439344757 3458.8529411764707 706.7867985338357 3437.9117647058824 705.8245723100855 3416.970588235294 704.5432324401569 3396.029411764706 703.4985064623488 3375.0882352941176 704.569443136712 3354.1470588235293 703.1605263419694 3333.205882352941 701.7580858411745 3312.264705882353 700.4865286297146 3291.323529411765 707.5245129827832 3270.3823529411766 729.2395570213952 3249.4411764705883 728.9340901988301 3228.5 728.9473274759466 3228.5 1038Z" fill="#e62d39" opacity="0.9" />
		</g>
		<g>
			<path d="M3228.5 728.9473274759466 3249.4411764705883 728.9340901988301 3270.3823529411766 729.2395570213952 3291.323529411765 707.5245129827832 3312.264705882353 700.4865286297146 3333.205882352941 701.7580858411745 3354.1470588235293 703.1605263419694 3375.0882352941176 704.569443136712 3396.029411764706 703.4985064623488 3416.970588235294 704.5432324401569 3437.9117647058824 705.8245723100855 3458.8529411764707 706.7867985338357 3479.794117647059 707.6773439344757 3500.735294117647 708.5111643371398 3521.676470588235 708.8529728655324 3542.6176470588234 709.5011500172373 3563.5588235294117 710.0229260904226 3584.5 710.307171035662 3605.4411764705883 710.6616144923173 3626.3823529411766 711.2928421961317 3647.323529411765 711.7892867662207 3668.264705882353 712.0748666907585 3689.205882352941 712.3235713382509 3710.1470588235293 712.9526784937428 3731.0882352941176 713.4392482120827 3752.029411764706 713.9589728279007 3772.970588235294 714.4105060971157 3793.9117647058824 714.226459280052 3814.8529411764707 714.9315603533947 3835.7941176470586 716.1347668638947 3856.735294117647 721.3672257636031 3877.676470588235 722.2500058248895 3898.6176470588234 722.9963838923263 3919.5588235294117 723.964272691857 3940.5 725.0579859810713 3961.4411764705883 783.7165926175173 3982.3823529411766 783.5277451200283 4003.323529411765 783.1682641871979 4024.264705882353 782.6753667196651 4045.2058823529414 782.5276373365637 4066.1470588235293 782.9000115015447 4087.0882352941176 783.0871417282395 4108.029411764706 783.1097274823168 4128.970588235294 783.2922413061176 4149.911764705882 783.484387962271 4170.85294117647 783.4492557109172 4191.794117647059 783.0275141890429 4212.735294117647 783.0196786229212 4233.676470588235 783.4831690555263 4254.617647058823 783.7048944052132 4275.558823529412 783.5748526599284 4296.5 783.391757080238 4296.5 531.7204662326122 4275.558823529412 531.628499653356 4254.617647058823 531.5339960022333 4233.676470588235 531.0725093725604 4212.735294117647 531.2499409458121 4191.794117647059 531.6507006603789 4170.85294117647 531.7063634722977 4149.911764705882 531.7405716149474 4128.970588235294 531.5084515547419 4108.029411764706 531.1868422316874 4087.0882352941176 530.9096071067931 4066.1470588235293 530.6457625647856 4045.2058823529414 530.2115588422516 4024.264705882353 530.3749323864379 4003.323529411765 530.816371903653 3982.3823529411766 531.5387166599613 3961.4411764705883 532.190445140906 3940.5 526.5102482737155 3919.5588235294117 525.3174753042879 3898.6176470588234 524.2802845879517 3877.676470588235 523.1294380044525 3856.735294117647 521.8575691422009 3835.7941176470586 514.1116307261946 3814.8529411764707 512.993987230213 3793.9117647058824 512.1677115640608 3772.970588235294 502.45546819630397 3752.029411764706 501.879791216212 3731.0882352941176 501.40460916879545 3710.1470588235293 500.8004852626943 3689.205882352941 499.8853489758172 3668.264705882353 498.7859305783681 3647.323529411765 497.70686325871344 3626.3823529411766 496.45662763490196 3605.4411764705883 495.1622009511958 3584.5 493.8933367325633 3563.5588235294117 492.86935877863715 3542.6176470588234 492.0646789770611 3521.676470588235 491.29504574396447 3500.735294117647 490.57523501016317 3479.794117647059 490.03332941523763 3458.8529411764707 489.72310243427995 3437.9117647058824 489.48234403066954 3416.970588235294 489.1962201731323 3396.029411764706 488.9387742360814 3375.0882352941176 492.7506429578374 3354.1470588235293 492.8155417521196 3333.205882352941 493.0157563584153 3312.264705882353 493.39321289046876 3291.323529411765 506.9149616199791 3270.3823529411766 511.364965996509 3249.4411764705883 511.2846481599944 3228.5 510.42831690773556 3228.5 728.9473274759466Z" fill="#005aa6" opacity="0.9" />
		</g>
		<g>
			<path d="M3228.5 510.42831690773556 3249.4411764705883 511.2846481599944 3270.3823529411766 511.364965996509 3291.323529411765 506.9149616199791 3312.264705882353 493.39321289046876 3333.205882352941 493.0157563584153 3354.1470588235293 492.8155417521196 3375.0882352941176 492.7506429578374 3396.029411764706 488.9387742360814 3416.970588235294 489.1962201731323 3437.9117647058824 489.48234403066954 3458.8529411764707 489.72310243427995 3479.794117647059 490.03332941523763 3500.735294117647 490.57523501016317 3521.676470588235 491.29504574396447 3542.6176470588234 492.0646789770611 3563.5588235294117 492.86935877863715 3584.5 493.8933367325633 3605.4411764705883 495.1622009511958 3626.3823529411766 496.45662763490196 3647.323529411765 497.70686325871344 3668.264705882353 498.7859305783681 3689.205882352941 499.8853489758172 3710.1470588235293 500.8004852626943 3731.0882352941176 501.40460916879545 3752.029411764706 501.879791216212 3772.970588235294 502.45546819630397 3793.9117647058824 512.1677115640608 3814.8529411764707 512.993987230213 3835.7941176470586 514.1116307261946 3856.735294117647 521.8575691422009 3877.676470588235 523.1294380044525 3898.6176470588234 524.2802845879517 3919.5588235294117 525.3174753042879 3940.5 526.5102482737155 3961.4411764705883 532.190445140906 3982.3823529411766 531.5387166599613 4003.323529411765 530.816371903653 4024.264705882353 530.3749323864379 4045.2058823529414 530.2115588422516 4066.1470588235293 530.6457625647856 4087.0882352941176 530.9096071067931 4108.029411764706 531.1868422316874 4128.970588235294 531.5084515547419 4149.911764705882 531.7405716149474 4170.85294117647 531.7063634722977 4191.794117647059 531.6507006603789 4212.735294117647 531.2499409458121 4233.676470588235 531.0725093725604 4254.617647058823 531.5339960022333 4275.558823529412 531.628499653356 4296.5 531.7204662326122 4296.5 488.19986039125524 4275.558823529412 488.019603954726 4254.617647058823 487.9026766907719 4233.676470588235 487.52222153261033 4212.735294117647 487.70696592491663 4191.794117647059 488.01151049572456 4170.85294117647 487.963793616364 4149.911764705882 487.98949737367803 4128.970588235294 487.70292525839443 4108.029411764706 487.3692026626984 4087.0882352941176 487.10721609649056 4066.1470588235293 486.9097754632236 4045.2058823529414 486.6466810104104 4024.264705882353 486.8253712667305 4003.323529411765 487.1725552495906 3982.3823529411766 487.81344975744275 3961.4411764705883 488.4006750879141 3940.5 478.7456085402515 3919.5588235294117 477.4222196163745 3898.6176470588234 476.2604646154135 3877.676470588235 475.0060216232253 3856.735294117647 473.64144749214375 3835.7941176470586 473.2844498106347 3814.8529411764707 472.05917492318713 3793.9117647058824 471.07663748656995 3772.970588235294 461.2408535917636 3752.029411764706 460.48443100573536 3731.0882352941176 459.76604736337003 3710.1470588235293 458.9777407221724 3689.205882352941 457.90939966851295 3668.264705882353 456.65452296321746 3647.323529411765 455.36215838852235 3626.3823529411766 453.9844912065713 3605.4411764705883 452.5053589477677 3584.5 451.07476537844235 3563.5588235294117 449.87375657582817 3542.6176470588234 448.9328850656446 3521.676470588235 448.0557909288758 3500.735294117647 447.2525039284088 3479.794117647059 446.6761477523823 3458.8529411764707 446.4456437459776 3437.9117647058824 446.28136252321144 3416.970588235294 446.10487752564853 3396.029411764706 445.9636538385128 3375.0882352941176 450.12178949359264 3354.1470588235293 450.19759580620007 3333.205882352941 450.31641232434566 3312.264705882353 450.53485482006914 3291.323529411765 465.04034483521883 3270.3823529411766 466.06050698928533 3249.4411764705883 466.040310950835 3228.5 465.54550807778793 3228.5 510.42831690773556Z" fill="#55c0e9" opacity="0.9" />
		</g>
		<g>
			<path d="M3228.5 465.54550807778793 3249.4411764705883 466.040310950835 3270.3823529411766 466.06050698928533 3291.323529411765 465.04034483521883 3312.264705882353 450.53485482006914 3333.205882352941 450.31641232434566 3354.1470588235293 450.19759580620007 3375.0882352941176 450.12178949359264 3396.029411764706 445.9636538385128 3416.970588235294 446.10487752564853 3437.9117647058824 446.28136252321144 3458.8529411764707 446.4456437459776 3479.794117647059 446.6761477523823 3500.735294117647 447.2525039284088 3521.676470588235 448.0557909288758 3542.6176470588234 448.9328850656446 3563.5588235294117 449.87375657582817 3584.5 451.07476537844235 3605.4411764705883 452.5053589477677 3626.3823529411766 453.9844912065713 3647.323529411765 455.36215838852235 3668.264705882353 456.65452296321746 3689.205882352941 457.90939966851295 3710.1470588235293 458.9777407221724 3731.0882352941176 459.76604736337003 3752.029411764706 460.48443100573536 3772.970588235294 461.2408535917636 3793.9117647058824 471.07663748656995 3814.8529411764707 472.05917492318713 3835.7941176470586 473.2844498106347 3856.735294117647 473.64144749214375 3877.676470588235 475.0060216232253 3898.6176470588234 476.2604646154135 3919.5588235294117 477.4222196163745 3940.5 478.7456085402515 3961.4411764705883 488.4006750879141 3982.3823529411766 487.81344975744275 4003.323529411765 487.1725552495906 4024.264705882353 486.8253712667305 4045.2058823529414 486.6466810104104 4066.1470588235293 486.9097754632236 4087.0882352941176 487.10721609649056 4108.029411764706 487.3692026626984 4128.970588235294 487.70292525839443 4149.911764705882 487.98949737367803 4170.85294117647 487.963793616364 4191.794117647059 488.01151049572456 4212.735294117647 487.70696592491663 4233.676470588235 487.52222153261033 4254.617647058823 487.9026766907719 4275.558823529412 488.019603954726 4296.5 488.19986039125524 4296.5 475.4761084872438 4275.558823529412 475.3862262172438 4254.617647058823 475.3370518496447 4233.676470588235 475.01380165868784 4212.735294117647 475.19871497996326 4191.794117647059 475.4695361222136 4170.85294117647 475.3984900629857 4149.911764705882 475.42158037858417 4128.970588235294 475.17281446854633 4108.029411764706 474.89392113663916 4087.0882352941176 474.6976120214667 4066.1470588235293 474.5506870011159 4045.2058823529414 474.3398551157786 4024.264705882353 474.4972746166898 4003.323529411765 474.8032929443811 3982.3823529411766 475.42643040944677 3961.4411764705883 475.9837074966003 3940.5 466.53633469676566 3919.5588235294117 465.2033179049321 3898.6176470588234 464.0399484926056 3877.676470588235 462.7794187905808 3856.735294117647 461.40786834513193 3835.7941176470586 460.8843773665021 3814.8529411764707 459.6546822545587 3793.9117647058824 458.6559421000703 3772.970588235294 448.8413613772234 3752.029411764706 448.0810719550874 3731.0882352941176 447.3247116817817 3710.1470588235293 446.5310952275203 3689.205882352941 445.4598876638521 3668.264705882353 444.211812869573 3647.323529411765 442.9104603532568 3626.3823529411766 441.5224522868679 3605.4411764705883 440.02872439510173 3584.5 438.5911754273753 3563.5588235294117 437.36935007449506 3542.6176470588234 436.4113820386986 3521.676470588235 435.5243027869889 3500.735294117647 434.7122259498071 3479.794117647059 434.13110745861906 3458.8529411764707 433.9141397981283 3437.9117647058824 433.7506297603656 3416.970588235294 433.55919918545516 3396.029411764706 433.40054840431145 3375.0882352941176 437.6127108681739 3354.1470588235293 437.66723491500807 3333.205882352941 437.73656952866384 3312.264705882353 437.87360524960343 3291.323529411765 452.6366317106452 3270.3823529411766 450.90613014226784 3249.4411764705883 450.8850550677488 3228.5 450.4868239386605 3228.5 465.54550807778793Z" fill="#f6a118" opacity="0.9" />
		</g>
		<g>
			<path d="M3228.5 450.4868239386605 3249.4411764705883 450.8850550677488 3270.3823529411766 450.90613014226784 3291.323529411765 452.6366317106452 3312.264705882353 437.87360524960343 3333.205882352941 437.73656952866384 3354.1470588235293 437.66723491500807 3375.0882352941176 437.6127108681739 3396.029411764706 433.40054840431145 3416.970588235294 433.55919918545516 3437.9117647058824 433.7506297603656 3458.8529411764707 433.9141397981283 3479.794117647059 434.13110745861906 3500.735294117647 434.7122259498071 3521.676470588235 435.5243027869889 3542.6176470588234 436.4113820386986 3563.5588235294117 437.36935007449506 3584.5 438.5911754273753 3605.4411764705883 440.02872439510173 3626.3823529411766 441.5224522868679 3647.323529411765 442.9104603532568 3668.264705882353 444.211812869573 3689.205882352941 445.4598876638521 3710.1470588235293 446.5310952275203 3731.0882352941176 447.3247116817817 3752.029411764706 448.0810719550874 3772.970588235294 448.8413613772234 3793.9117647058824 458.6559421000703 3814.8529411764707 459.6546822545587 3835.7941176470586 460.8843773665021 3856.735294117647 461.40786834513193 3877.676470588235 462.7794187905808 3898.6176470588234 464.0399484926056 3919.5588235294117 465.2033179049321 3940.5 466.53633469676566 3961.4411764705883 475.9837074966003 3982.3823529411766 475.42643040944677 4003.323529411765 474.8032929443811 4024.264705882353 474.4972746166898 4045.2058823529414 474.3398551157786 4066.1470588235293 474.5506870011159 4087.0882352941176 474.6976120214667 4108.029411764706 474.89392113663916 4128.970588235294 475.17281446854633 4149.911764705882 475.42158037858417 4170.85294117647 475.3984900629857 4191.794117647059 475.4695361222136 4212.735294117647 475.19871497996326 4233.676470588235 475.01380165868784 4254.617647058823 475.3370518496447 4275.558823529412 475.3862262172438 4296.5 475.4761084872438 4296.5 469.7725947069797 4275.558823529412 469.63103904356444 4254.617647058823 469.55102191735557 4233.676470588235 469.25281227235195 4212.735294117647 469.45361176960154 4191.794117647059 469.73018322095714 4170.85294117647 469.6596614770044 4149.911764705882 469.68188908060466 4128.970588235294 469.43106409076864 4108.029411764706 469.15262240928087 4087.0882352941176 468.95702207661526 4066.1470588235293 468.84734356461763 4045.2058823529414 468.7350335488471 4024.264705882353 468.9078882196251 4003.323529411765 469.2079498249524 3982.3823529411766 469.81130033797666 3961.4411764705883 470.38342727342314 3940.5 461.2444339081057 3919.5588235294117 459.946755992067 3898.6176470588234 458.8077681755944 3877.676470588235 457.5593223229012 3856.735294117647 456.2181048338814 3835.7941176470586 455.6431947463817 3814.8529411764707 454.47972281760985 3793.9117647058824 453.4905215300467 3772.970588235294 443.69596259487105 3752.029411764706 442.9470560831334 3731.0882352941176 442.18952771113993 3710.1470588235293 441.4102737359516 3689.205882352941 440.35943056582056 3668.264705882353 439.1354625729624 3647.323529411765 437.84119270046506 3626.3823529411766 436.45931716608146 3605.4411764705883 434.9725271047773 3584.5 433.5415615660502 3563.5588235294117 432.3203932157333 3542.6176470588234 431.3782566408658 3521.676470588235 430.5117297264795 3500.735294117647 429.7249311165208 3479.794117647059 429.1613894967009 3458.8529411764707 428.96097997032933 3437.9117647058824 428.8105160166967 3416.970588235294 428.64236977976526 3396.029411764706 428.50399955057856 3375.0882352941176 432.7535502158639 3354.1470588235293 432.80627389640455 3333.205882352941 432.8676017835308 3312.264705882353 432.98806566692065 3291.323529411765 447.8607653758795 3270.3823529411766 445.04971196915034 3249.4411764705883 445.0840675736475 3228.5 444.7823876121957 3228.5 450.4868239386605Z" fill="#fdd5a4" opacity="0.9" />
		</g>
		<g>
			<path d="M3228.5 444.7823876121957 3249.4411764705883 445.0840675736475 3270.3823529411766 445.04971196915034 3291.323529411765 447.8607653758795 3312.264705882353 432.98806566692065 3333.205882352941 432.8676017835308 3354.1470588235293 432.80627389640455 3375.0882352941176 432.7535502158639 3396.029411764706 428.50399955057856 3416.970588235294 428.64236977976526 3437.9117647058824 428.8105160166967 3458.8529411764707 428.96097997032933 3479.794117647059 429.1613894967009 3500.735294117647 429.7249311165208 3521.676470588235 430.5117297264795 3542.6176470588234 431.3782566408658 3563.5588235294117 432.3203932157333 3584.5 433.5415615660502 3605.4411764705883 434.9725271047773 3626.3823529411766 436.45931716608146 3647.323529411765 437.84119270046506 3668.264705882353 439.1354625729624 3689.205882352941 440.35943056582056 3710.1470588235293 441.4102737359516 3731.0882352941176 442.18952771113993 3752.029411764706 442.9470560831334 3772.970588235294 443.69596259487105 3793.9117647058824 453.4905215300467 3814.8529411764707 454.47972281760985 3835.7941176470586 455.6431947463817 3856.735294117647 456.2181048338814 3877.676470588235 457.5593223229012 3898.6176470588234 458.8077681755944 3919.5588235294117 459.946755992067 3940.5 461.2444339081057 3961.4411764705883 470.38342727342314 3982.3823529411766 469.81130033797666 4003.323529411765 469.2079498249524 4024.264705882353 468.9078882196251 4045.2058823529414 468.7350335488471 4066.1470588235293 468.84734356461763 4087.0882352941176 468.95702207661526 4108.029411764706 469.15262240928087 4128.970588235294 469.43106409076864 4149.911764705882 469.68188908060466 4170.85294117647 469.6596614770044 4191.794117647059 469.73018322095714 4212.735294117647 469.45361176960154 4233.676470588235 469.25281227235195 4254.617647058823 469.55102191735557 4275.558823529412 469.63103904356444 4296.5 469.7725947069797 4296.5 464.9033783038482 4275.558823529412 464.7815818058518 4254.617647058823 464.7260968061159 4233.676470588235 464.4723890087734 4212.735294117647 464.6844034193931 4191.794117647059 464.9715947829817 4170.85294117647 464.9499237655363 4149.911764705882 464.9713870250645 4128.970588235294 464.7567393127636 4108.029411764706 464.5132259653092 4087.0882352941176 464.3461599383072 4066.1470588235293 464.26375937292056 4045.2058823529414 464.2122032971037 4024.264705882353 464.3963627005436 4003.323529411765 464.69518296460524 3982.3823529411766 465.29095095509365 3961.4411764705883 465.86857631542375 3940.5 457.9426597886813 3919.5588235294117 456.6504617863283 3898.6176470588234 455.5173638999522 3877.676470588235 454.27397669951574 3856.735294117647 452.9422128623981 3835.7941176470586 452.3392658302522 3814.8529411764707 451.1914920386467 3793.9117647058824 450.1807388631146 3772.970588235294 440.3988808972397 3752.029411764706 439.6628015961259 3731.0882352941176 438.90968576505173 3710.1470588235293 438.1368838719703 3689.205882352941 437.09878380068074 3668.264705882353 435.88818645509696 3647.323529411765 434.59694513524136 3626.3823529411766 433.22158409139143 3605.4411764705883 431.7348695488416 3584.5 430.30784750779037 3563.5588235294117 429.09159001631633 3542.6176470588234 428.1595197737724 3521.676470588235 427.30225741502903 3500.735294117647 426.52676679830296 3479.794117647059 425.97200661481094 3458.8529411764707 425.7866796521752 3437.9117647058824 425.65149111446993 3416.970588235294 425.49532897112516 3396.029411764706 425.3719419226974 3375.0882352941176 429.64793603777895 3354.1470588235293 429.7004140998976 3333.205882352941 429.76313464334123 3312.264705882353 429.88054742773767 3291.323529411765 444.82124955246854 3270.3823529411766 441.7030292243726 3249.4411764705883 441.7535822416807 3228.5 441.49228637208546 3228.5 444.7823876121957Z" fill="#f48c7d" opacity="0.9" />
		</g>
		<g>
			<path d="M3228.5 441.49228637208546 3249.4411764705883 441.7535822416807 3270.3823529411766 441.7030292243726 3291.323529411765 444.82124955246854 3312.264705882353 429.88054742773767 3333.205882352941 429.76313464334123 3354.1470588235293 429.7004140998976 3375.0882352941176 429.64793603777895 3396.029411764706 425.3719419226974 3416.970588235294 425.49532897112516 3437.9117647058824 425.65149111446993 3458.8529411764707 425.7866796521752 3479.794117647059 425.97200661481094 3500.735294117647 426.52676679830296 3521.676470588235 427.30225741502903 3542.6176470588234 428.1595197737724 3563.5588235294117 429.09159001631633 3584.5 430.30784750779037 3605.4411764705883 431.7348695488416 3626.3823529411766 433.22158409139143 3647.323529411765 434.59694513524136 3668.264705882353 435.88818645509696 3689.205882352941 437.09878380068074 3710.1470588235293 438.1368838719703 3731.0882352941176 438.90968576505173 3752.029411764706 439.6628015961259 3772.970588235294 440.3988808972397 3793.9117647058824 450.1807388631146 3814.8529411764707 451.1914920386467 3835.7941176470586 452.3392658302522 3856.735294117647 452.9422128623981 3877.676470588235 454.27397669951574 3898.6176470588234 455.5173638999522 3919.5588235294117 456.6504617863283 3940.5 457.9426597886813 3961.4411764705883 465.86857631542375 3982.3823529411766 465.29095095509365 4003.323529411765 464.69518296460524 4024.264705882353 464.3963627005436 4045.2058823529414 464.2122032971037 4066.1470588235293 464.26375937292056 4087.0882352941176 464.3461599383072 4108.029411764706 464.5132259653092 4128.970588235294 464.7567393127636 4149.911764705882 464.9713870250645 4170.85294117647 464.9499237655363 4191.794117647059 464.9715947829817 4212.735294117647 464.6844034193931 4233.676470588235 464.4723890087734 4254.617647058823 464.7260968061159 4275.558823529412 464.7815818058518 4296.5 464.9033783038482 4296.5 398 4275.558823529412 398 4254.617647058823 397.9999999999999 4233.676470588235 397.9999999999999 4212.735294117647 398 4191.794117647059 397.9999999999999 4170.85294117647 398 4149.911764705882 398.0000000000001 4128.970588235294 397.99999999999983 4108.029411764706 397.9999999999999 4087.0882352941176 397.99999999999994 4066.1470588235293 397.9999999999999 4045.2058823529414 397.9999999999999 4024.264705882353 397.99999999999994 4003.323529411765 398 3982.3823529411766 397.99999999999994 3961.4411764705883 398 3940.5 397.9999999999999 3919.5588235294117 397.9999999999999 3898.6176470588234 397.9999999999998 3877.676470588235 398 3856.735294117647 398 3835.7941176470586 398.00000000000006 3814.8529411764707 398.0000000000002 3793.9117647058824 398 3772.970588235294 397.99999999999994 3752.029411764706 398 3731.0882352941176 398.0000000000001 3710.1470588235293 398.00000000000006 3689.205882352941 397.99999999999994 3668.264705882353 397.99999999999994 3647.323529411765 398.00000000000006 3626.3823529411766 397.99999999999994 3605.4411764705883 398.00000000000017 3584.5 397.99999999999994 3563.5588235294117 397.99999999999994 3542.6176470588234 398 3521.676470588235 398 3500.735294117647 398.00000000000017 3479.794117647059 398 3458.8529411764707 398.00000000000006 3437.9117647058824 397.9999999999999 3416.970588235294 398 3396.029411764706 397.99999999999994 3375.0882352941176 398.00000000000006 3354.1470588235293 398.0000000000001 3333.205882352941 398.00000000000006 3312.264705882353 398.00000000000006 3291.323529411765 398.0000000000001 3270.3823529411766 398.0000000000001 3249.4411764705883 398 3228.5 398 3228.5 441.49228637208546Z" fill="#393d41" opacity="0.9" />
		</g>
		<g>
			<rect x="4372" y="431" width="22.9995" height="23" fill="#e62d39" />
		</g>
		<g>
			<text fill="#595959" font-family="Verdana,sans-serif" font-weight="400" font-size="41" transform="matrix(1 0 0 1 4404.56 454)">iOS</text>
		</g>
		<g>
			<rect x="4372" y="508" width="22.9995" height="23" fill="#005aa6" />
		</g>
		<g>
			<text fill="#595959" font-family="Verdana,sans-serif" font-weight="400" font-size="41" transform="matrix(1 0 0 1 4404.56 531)">Android</text>
		</g>
		<g>
			<rect x="4372" y="585" width="22.9995" height="23" fill="#55c0e9" />
		</g>
		<g>
			<text fill="#595959" font-family="Verdana,sans-serif" font-weight="400" font-size="41" transform="matrix(1 0 0 1 4404.56 608)">Windows</text>
		</g>
		<g>
			<rect x="4372" y="662" width="22.9995" height="23" fill="#f6a118" />
		</g>
		<g>
			<text fill="#595959" font-family="Verdana,sans-serif" font-weight="400" font-size="41" transform="matrix(1 0 0 1 4404.56 685)">macOS</text>
		</g>
		<g>
			<rect x="4372" y="739" width="22.9995" height="23" fill="#fdd5a4" />
		</g>
		<g>
			<text fill="#595959" font-family="Verdana,sans-serif" font-weight="400" font-size="41" transform="matrix(1 0 0 1 4404.56 762)">Other</text>
		</g>
		<g>
			<rect x="4372" y="816" width="22.9995" height="23" fill="#f48c7d" />
		</g>
		<g>
			<text fill="#595959" font-family="Verdana,sans-serif" font-weight="400" font-size="41" transform="matrix(1 0 0 1 4404.56 839)">Linux</text>
		</g>
		<g>
			<rect x="4372" y="893" width="22.9995" height="23" fill="#393d41" />
		</g>
		<g>
			<text fill="#595959" font-family="Verdana,sans-serif" font-weight="400" font-size="41" transform="matrix(1 0 0 1 4404.56 916)">Unclassified</text>
		</g>
	</g>
</svg>
