<svg width="1763" height="1046"
    xmlns="http://www.w3.org/2000/svg"
	xmlns:xlink="http://www.w3.org/1999/xlink" xml:space="preserve" overflow="hidden">
	<defs>
		<clipPath id="clip0">
			<rect x="2917" y="346" width="1763" height="1046"/>
		</clipPath>
	</defs>
	<g clip-path="url(#clip0)" transform="translate(-2917 -346)">
		<rect x="2918" y="347" width="1760" height="1043" fill="#FFFFFF" />
		<g>
			<path d="
			M3228.5 974.532 4296.5 974.532
			M3228.5 910.53 4296.5 910.53
			M3228.5 846.528 4296.5 846.528
			M3228.5 781.526 4296.5 781.526
			M3228.5 717.524 4296.5 717.524
			M3228.5 653.522 4296.5 653.522
			M3228.5 589.52 4296.5 589.52
			M3228.5 525.517 4296.5 525.517
			M3228.5 461.515 4296.5 461.515
			M3228.5 397.5 4296.5 397.5" stroke="#D9D9D9" stroke-width="3.4375" stroke-linejoin="round" stroke-miterlimit="10" fill="none" />
		</g>
		<g>
			<path d="M 1038.5 4296.5 1038.5" stroke="#D9D9D9" stroke-width="3.4375" stroke-linejoin="round" stroke-miterlimit="10" fill="none" fill-rule="evenodd" />
		</g>
		<g>
			<text fill="#595959" font-family="Verdana,Open Sans,DejaVu Sans,sans-serif" font-weight="400" font-size="41" transform="matrix(6.12323e-17 -1 1 6.12323e-17 3244.275390625 1203.0419921875)">03-Feb</text>
		</g>
		<g>
			<text fill="#595959" font-family="Verdana,Open Sans,DejaVu Sans,sans-serif" font-weight="400" font-size="41" transform="matrix(6.12323e-17 -1 1 6.12323e-17 3329.004697265625 1212.0107421875)">03-Mar</text>
		</g>
		<g>
			<text fill="#595959" font-family="Verdana,Open Sans,DejaVu Sans,sans-serif" font-weight="400" font-size="41" transform="matrix(6.12323e-17 -1 1 6.12323e-17 3414.424677734375 1212.1708984375)">31-Mar</text>
		</g>
		<g>
			<text fill="#595959" font-family="Verdana,Open Sans,DejaVu Sans,sans-serif" font-weight="400" font-size="41" transform="matrix(6.12323e-17 -1 1 6.12323e-17 3504.589287109375 1203.3022384643555)">28-Apr</text>
		</g>
		<g>
			<text fill="#595959" font-family="Verdana,Open Sans,DejaVu Sans,sans-serif" font-weight="400" font-size="41" transform="matrix(6.12323e-17 -1 1 6.12323e-17 3590.029287109375 1216.51513671875)">26-May</text>
		</g>
		<g>
			<text fill="#595959" font-family="Verdana,Open Sans,DejaVu Sans,sans-serif" font-weight="400" font-size="41" transform="matrix(6.12323e-17 -1 1 6.12323e-17 3674.41826171875 1194.1733322143555)">30-Jun</text>
		</g>
		<g>
			<text fill="#595959" font-family="Verdana,Open Sans,DejaVu Sans,sans-serif" font-weight="400" font-size="41" transform="matrix(6.12323e-17 -1 1 6.12323e-17 3760.568955078125 1179.0385665893555)">28-Jul</text>
		</g>
		<g>
			<text fill="#595959" font-family="Verdana,Open Sans,DejaVu Sans,sans-serif" font-weight="400" font-size="41" transform="matrix(6.12323e-17 -1 1 6.12323e-17 3846.349287109375 1208.66748046875)">25-Aug</text>
		</g>
		<g>
			<text fill="#595959" font-family="Verdana,Open Sans,DejaVu Sans,sans-serif" font-weight="400" font-size="41" transform="matrix(6.12323e-17 -1 1 6.12323e-17 3931.789287109375 1204.42333984375)">22-Sep</text>
		</g>
		<g>
			<text fill="#595959" font-family="Verdana,Open Sans,DejaVu Sans,sans-serif" font-weight="400" font-size="41" transform="matrix(6.12323e-17 -1 1 6.12323e-17 4012.524697265625 1201.1401290893555)">20-Oct</text>
		</g>
		<g>
			<text fill="#595959" font-family="Verdana,Open Sans,DejaVu Sans,sans-serif" font-weight="400" font-size="41" transform="matrix(6.12323e-17 -1 1 6.12323e-17 4097.73447265625 1209.70849609375)">17-Nov</text>
		</g>
		<g>
			<text fill="#595959" font-family="Verdana,Open Sans,DejaVu Sans,sans-serif" font-weight="400" font-size="41" transform="matrix(6.12323e-17 -1 1 6.12323e-17 4183.17447265625 1205.3642578125)">15-Dec</text>
		</g>
		<g>
			<text fill="#595959" font-family="Verdana,Open Sans,DejaVu Sans,sans-serif" font-weight="400" font-size="41" transform="matrix(6.12323e-17 -1 1 6.12323e-17 4272.4782421875 1189.9291915893555)">12-Jan</text>
		</g>
		<g>
			<text fill="#595959" font-family="Verdana,Open Sans,DejaVu Sans,sans-serif" font-weight="400" font-size="41" transform="matrix(1 0 0 1 3135.4482421875 1050)">0%</text>
		</g>
		<g>
			<text fill="#595959" font-family="Verdana,Open Sans,DejaVu Sans,sans-serif" font-weight="400" font-size="41" transform="matrix(1 0 0 1 3111.96533203125 922)">20%</text>
		</g>
		<g>
			<text fill="#595959" font-family="Verdana,Open Sans,DejaVu Sans,sans-serif" font-weight="400" font-size="41" transform="matrix(1 0 0 1 3110.82421875 794)">40%</text>
		</g>
		<g>
			<text fill="#595959" font-family="Verdana,Open Sans,DejaVu Sans,sans-serif" font-weight="400" font-size="41" transform="matrix(1 0 0 1 3112.3056640625 666)">60%</text>
		</g>
		<g>
			<text fill="#595959" font-family="Verdana,Open Sans,DejaVu Sans,sans-serif" font-weight="400" font-size="41" transform="matrix(1 0 0 1 3112.04541015625 538)">80%</text>
		</g>
		<g>
			<text fill="#595959" font-family="Verdana,Open Sans,DejaVu Sans,sans-serif" font-weight="400" font-size="41" transform="matrix(1 0 0 1 3090.2841796875 410)">100%</text>
		</g>
		<g>
			<text fill="#595959" font-family="Verdana,Open Sans,DejaVu Sans,sans-serif" font-weight="400" font-size="41" transform="matrix(1 0 0 1 3556.97119140625 1321)">Week Commencing</text>
		</g>
		<g>
			<text fill="#595959" font-family="Verdana,Open Sans,DejaVu Sans,sans-serif" font-weight="400" font-size="46" transform="matrix(6.12323e-17 -1 1 6.12323e-17 3019.73 936.7665710449219)">Requests (% of Total)</text>
		</g>
		<rect x="2918.5" y="347.5" width="1760" height="1043" stroke="#D9D9D9" stroke-width="3.4375" stroke-linejoin="round" stroke-miterlimit="10" fill="none" />
		<g>
			<path d="M3228.5 1038 3249.86 1038 3271.22 1038 3292.58 1038 3313.94 1038 3335.3 1038 3356.66 1038 3378.02 1038 3399.38 1038 3420.74 1038 3442.1 1038 3463.46 1038 3484.82 1038 3506.18 1038 3527.54 1038 3548.9 1038 3570.26 1038 3591.62 1038 3612.98 1038 3634.34 1038 3655.7 1038 3677.06 1038 3698.42 1038 3719.7799999999997 1038 3741.14 1038 3762.5 1038 3783.86 1038 3805.2200000000003 1038 3826.58 1038 3847.94 1038 3869.3 1038 3890.66 1038 3912.02 1038 3933.38 1038 3954.74 1038 3976.1 1038 3997.46 1038 4018.8199999999997 1038 4040.18 1038 4061.54 1038 4082.9 1038 4104.26 1038 4125.62 1038 4146.98 1038 4168.34 1038 4189.7 1038 4211.0599999999995 1038 4232.42 1038 4253.78 1038 4275.139999999999 1038 4296.5 1038 4296.5 746.4260841443786 4275.139999999999 746.1408324365968 4253.78 746.1086007114674 4232.42 746.7358843125422 4211.0599999999995 747.3561118905186 4189.7 749.7549747311173 4168.34 751.708180030847 4146.98 751.761881610288 4125.62 753.5875510114441 4104.26 760.0049069239963 4082.9 757.9113031477688 4061.54 759.380873288005 4040.18 764.3156850172985 4018.8199999999997 764.3768419479462 3997.46 764.3547678374432 3976.1 764.4897401031296 3954.74 766.8609306167309 3933.38 766.8567475951404 3912.02 767.9192079463141 3890.66 768.908358113137 3869.3 771.7976640891548 3847.94 772.995900100849 3826.58 773.0047654751563 3805.2200000000003 774.0176159604634 3783.86 776.3680200175993 3762.5 776.3453368808368 3741.14 776.3465392709672 3719.7799999999997 776.3609674251002 3698.42 776.5119637903555 3677.06 778.9439765467624 3655.7 785.3332769215773 3634.34 785.3813296257167 3612.98 786.9316254516905 3591.62 788.064069053389 3570.26 789.5346539181728 3548.9 789.7270984819011 3527.54 789.5483223673614 3506.18 789.1007508003959 3484.82 788.5260313684701 3463.46 788.0511809237687 3442.1 787.8975793566815 3420.74 787.8180633391596 3399.38 787.5170102748218 3378.02 787.618537873506 3356.66 787.2996583717713 3335.3 786.777616251223 3313.94 786.3066035792257 3292.58 786.3287091523742 3271.22 786.0536469934276 3249.86 785.8291015970201 3228.5 785.589340317034 3228.5 1038Z" fill="#e62d39" opacity="0.9" />
		</g>
		<g>
			<path d="M3228.5 785.589340317034 3249.86 785.8291015970201 3271.22 786.0536469934276 3292.58 786.3287091523742 3313.94 786.3066035792257 3335.3 786.777616251223 3356.66 787.2996583717713 3378.02 787.618537873506 3399.38 787.5170102748218 3420.74 787.8180633391596 3442.1 787.8975793566815 3463.46 788.0511809237687 3484.82 788.5260313684701 3506.18 789.1007508003959 3527.54 789.5483223673614 3548.9 789.7270984819011 3570.26 789.5346539181728 3591.62 788.064069053389 3612.98 786.9316254516905 3634.34 785.3813296257167 3655.7 785.3332769215773 3677.06 778.9439765467624 3698.42 776.5119637903555 3719.7799999999997 776.3609674251002 3741.14 776.3465392709672 3762.5 776.3453368808368 3783.86 776.3680200175993 3805.2200000000003 774.0176159604634 3826.58 773.0047654751563 3847.94 772.995900100849 3869.3 771.7976640891548 3890.66 768.908358113137 3912.02 767.9192079463141 3933.38 766.8567475951404 3954.74 766.8609306167309 3976.1 764.4897401031296 3997.46 764.3547678374432 4018.8199999999997 764.3768419479462 4040.18 764.3156850172985 4061.54 759.380873288005 4082.9 757.9113031477688 4104.26 760.0049069239963 4125.62 753.5875510114441 4146.98 751.761881610288 4168.34 751.708180030847 4189.7 749.7549747311173 4211.0599999999995 747.3561118905186 4232.42 746.7358843125422 4253.78 746.1086007114674 4275.139999999999 746.1408324365968 4296.5 746.4260841443786 4296.5 529.5742385244796 4275.139999999999 529.1641691809261 4253.78 529.1689859268577 4232.42 529.2185804117662 4211.0599999999995 529.5448927766422 4189.7 529.3666745800084 4168.34 529.7448004770854 4146.98 529.7274153021705 4125.62 530.163015188101 4104.26 532.2645239373791 4082.9 531.3268574465264 4061.54 531.4166307781715 4040.18 531.7572224646864 4018.8199999999997 531.7708483166984 3997.46 531.8218985108718 3976.1 531.9849023445704 3954.74 531.7935729648713 3933.38 531.7864321784326 3912.02 531.5727707842481 3890.66 531.4390936505183 3869.3 532.2027211748189 3847.94 532.4711028871407 3826.58 532.4751666451237 3805.2200000000003 532.6424401194076 3783.86 532.3819588718641 3762.5 532.3762321494829 3741.14 532.3835012006392 3719.7799999999997 532.4008414612442 3698.42 531.9653947132791 3677.06 532.7065148297092 3655.7 534.1646402996798 3634.34 534.1813437994358 3612.98 534.0614406876781 3591.62 533.9651928337187 3570.26 533.7866116772315 3548.9 533.5868149898097 3527.54 533.4688532767087 3506.18 533.0768238550941 3484.82 532.663421242623 3463.46 532.2348192575948 3442.1 532.1820957819215 3420.74 532.3681470809754 3399.38 532.5201668090683 3378.02 532.4238251729188 3356.66 532.3835949473919 3335.3 531.9915975411402 3313.94 531.7252849940928 3292.58 531.7204662326122 3271.22 531.6284996533559 3249.86 531.5339960022333 3228.5 531.0725093725605 3228.5 785.589340317034Z" fill="#005aa6" opacity="0.9" />
		</g>
		<g>
			<path d="M3228.5 531.0725093725605 3249.86 531.5339960022333 3271.22 531.6284996533559 3292.58 531.7204662326122 3313.94 531.7252849940928 3335.3 531.9915975411402 3356.66 532.3835949473919 3378.02 532.4238251729188 3399.38 532.5201668090683 3420.74 532.3681470809754 3442.1 532.1820957819215 3463.46 532.2348192575948 3484.82 532.663421242623 3506.18 533.0768238550941 3527.54 533.4688532767087 3548.9 533.5868149898097 3570.26 533.7866116772315 3591.62 533.9651928337187 3612.98 534.0614406876781 3634.34 534.1813437994358 3655.7 534.1646402996798 3677.06 532.7065148297092 3698.42 531.9653947132791 3719.7799999999997 532.4008414612442 3741.14 532.3835012006392 3762.5 532.3762321494829 3783.86 532.3819588718641 3805.2200000000003 532.6424401194076 3826.58 532.4751666451237 3847.94 532.4711028871407 3869.3 532.2027211748189 3890.66 531.4390936505183 3912.02 531.5727707842481 3933.38 531.7864321784326 3954.74 531.7935729648713 3976.1 531.9849023445704 3997.46 531.8218985108718 4018.8199999999997 531.7708483166984 4040.18 531.7572224646864 4061.54 531.4166307781715 4082.9 531.3268574465264 4104.26 532.2645239373791 4125.62 530.163015188101 4146.98 529.7274153021705 4168.34 529.7448004770854 4189.7 529.3666745800084 4211.0599999999995 529.5448927766422 4232.42 529.2185804117662 4253.78 529.1689859268577 4275.139999999999 529.1641691809261 4296.5 529.5742385244796 4296.5 489.8264670604297 4275.139999999999 489.6030568350501 4253.78 489.6027851684956 4232.42 489.6838400376917 4211.0599999999995 490.1068496342023 4189.7 490.9492704753914 4168.34 490.39407239534404 4146.98 490.3851968973204 4125.62 490.7185530259544 4104.26 492.30515321923616 4082.9 491.64116500384506 4061.54 491.78456573649515 4040.18 491.92955522350275 4018.8199999999997 491.93920435370626 3997.46 491.9768227136466 3976.1 492.1505952348429 3954.74 491.85600669794854 3933.38 491.8513930148632 3912.02 491.63219577145946 3890.66 491.4978977886208 3869.3 491.99009410225506 3847.94 492.16551794945576 3826.58 492.1686259707535 3805.2200000000003 492.21654806017045 3783.86 491.7116461371828 3762.5 491.70767780671554 3741.14 491.71346164432515 3719.7799999999997 491.7282826494978 3698.42 491.33050875804906 3677.06 491.76141449343754 3655.7 492.74242973299926 3634.34 492.75457857238825 3612.98 492.5918650008465 3591.62 492.35892132336346 3570.26 492.0889325160488 3548.9 491.69189364771574 3527.54 491.3732427741912 3506.18 490.8088740577118 3484.82 490.31149608874114 3463.46 489.77877115088484 3442.1 489.5616092932336 3420.74 489.5397849514939 3399.38 489.5595335703314 3378.02 489.2933239946325 3356.66 489.0834397469836 3335.3 488.66304187283265 3313.94 488.3428044802121 3292.58 488.19986039125524 3271.22 488.0196039547259 3249.86 487.9026766907719 3228.5 487.52222153261044 3228.5 531.0725093725605Z" fill="#55c0e9" opacity="0.9" />
		</g>
		<g>
			<path d="M3228.5 487.52222153261044 3249.86 487.9026766907719 3271.22 488.0196039547259 3292.58 488.19986039125524 3313.94 488.3428044802121 3335.3 488.66304187283265 3356.66 489.0834397469836 3378.02 489.2933239946325 3399.38 489.5595335703314 3420.74 489.5397849514939 3442.1 489.5616092932336 3463.46 489.77877115088484 3484.82 490.31149608874114 3506.18 490.8088740577118 3527.54 491.3732427741912 3548.9 491.69189364771574 3570.26 492.0889325160488 3591.62 492.35892132336346 3612.98 492.5918650008465 3634.34 492.75457857238825 3655.7 492.74242973299926 3677.06 491.76141449343754 3698.42 491.33050875804906 3719.7799999999997 491.7282826494978 3741.14 491.71346164432515 3762.5 491.70767780671554 3783.86 491.7116461371828 3805.2200000000003 492.21654806017045 3826.58 492.1686259707535 3847.94 492.16551794945576 3869.3 491.99009410225506 3890.66 491.4978977886208 3912.02 491.63219577145946 3933.38 491.8513930148632 3954.74 491.85600669794854 3976.1 492.1505952348429 3997.46 491.9768227136466 4018.8199999999997 491.93920435370626 4040.18 491.92955522350275 4061.54 491.78456573649515 4082.9 491.64116500384506 4104.26 492.30515321923616 4125.62 490.7185530259544 4146.98 490.3851968973204 4168.34 490.39407239534404 4189.7 490.9492704753914 4211.0599999999995 490.1068496342023 4232.42 489.6838400376917 4253.78 489.6027851684956 4275.139999999999 489.6030568350501 4296.5 489.8264670604297 4296.5 478.38419566392514 4275.139999999999 478.2713135439936 4253.78 478.26942714386075 4232.42 478.5099393463872 4211.0599999999995 478.7941392845137 4189.7 479.58006819193264 4168.34 479.10650501970053 4146.98 479.0999411202481 4125.62 479.4072866140748 4104.26 480.96640637284213 4082.9 480.2698842349475 4061.54 480.4907637351383 4040.18 480.4086170616429 4018.8199999999997 480.41676419469263 3997.46 480.45029730465194 3976.1 480.6272134139708 3954.74 480.40305013594224 3933.38 480.39917600110454 3912.02 480.2978208961403 3890.66 480.1378211447884 3869.3 480.4875119170523 3847.94 480.62062646338103 3826.58 480.623498410782 3805.2200000000003 480.6254558284506 3783.86 479.9434244465183 3762.5 479.939862628262 3741.14 479.94505960714844 3719.7799999999997 479.95902615881243 3698.42 479.5505692873087 3677.06 479.86304908787844 3655.7 480.59388216933854 3634.34 480.6043736648512 3612.98 480.3867647714376 3591.62 480.0939647438401 3570.26 479.7308663765565 3548.9 479.2808407307956 3527.54 478.9041807209399 3506.18 478.2910364979862 3484.82 477.7828333755948 3463.46 477.2431626623622 3442.1 476.9834739801712 3420.74 476.8973696844754 3399.38 476.8748020982269 3378.02 476.5669923893315 3356.66 476.3174497919625 3335.3 475.8998014736065 3313.94 475.5839065563437 3292.58 475.4761084872438 3271.22 475.3862262172437 3249.86 475.3370518496447 3228.5 475.01380165868795 3228.5 487.52222153261044Z" fill="#f6a118" opacity="0.9" />
		</g>
		<g>
			<path d="M3228.5 475.01380165868795 3249.86 475.3370518496447 3271.22 475.3862262172437 3292.58 475.4761084872438 3313.94 475.5839065563437 3335.3 475.8998014736065 3356.66 476.3174497919625 3378.02 476.5669923893315 3399.38 476.8748020982269 3420.74 476.8973696844754 3442.1 476.9834739801712 3463.46 477.2431626623622 3484.82 477.7828333755948 3506.18 478.2910364979862 3527.54 478.9041807209399 3548.9 479.2808407307956 3570.26 479.7308663765565 3591.62 480.0939647438401 3612.98 480.3867647714376 3634.34 480.6043736648512 3655.7 480.59388216933854 3677.06 479.86304908787844 3698.42 479.5505692873087 3719.7799999999997 479.95902615881243 3741.14 479.94505960714844 3762.5 479.939862628262 3783.86 479.9434244465183 3805.2200000000003 480.6254558284506 3826.58 480.623498410782 3847.94 480.62062646338103 3869.3 480.4875119170523 3890.66 480.1378211447884 3912.02 480.2978208961403 3933.38 480.39917600110454 3954.74 480.40305013594224 3976.1 480.6272134139708 3997.46 480.45029730465194 4018.8199999999997 480.41676419469263 4040.18 480.4086170616429 4061.54 480.4907637351383 4082.9 480.2698842349475 4104.26 480.96640637284213 4125.62 479.4072866140748 4146.98 479.0999411202481 4168.34 479.10650501970053 4189.7 479.58006819193264 4211.0599999999995 478.7941392845137 4232.42 478.5099393463872 4253.78 478.26942714386075 4275.139999999999 478.2713135439936 4296.5 478.38419566392514 4296.5 474.09267029394687 4275.139999999999 473.9897191134042 4253.78 473.9871807138114 4232.42 474.22541956826655 4211.0599999999995 474.511998002383 4189.7 475.27887736921514 4168.34 474.8518141039069 4146.98 474.8469015951653 4125.62 475.13902259765536 4104.26 476.6264014136676 4082.9 475.9675036747879 4061.54 476.1855240028958 4040.18 476.0304088632991 4018.8199999999997 476.03986709155856 3997.46 476.07416075277575 3976.1 476.25220661385714 3954.74 475.9804259287693 3933.38 475.9771097573116 3912.02 475.85734943037994 3890.66 475.67113203039463 3869.3 475.9445091636468 3847.94 476.0428252544268 3826.58 476.0456947164946 3805.2200000000003 476.0126442187972 3783.86 475.2164345015217 3762.5 475.2129700329708 3741.14 475.2181577191099 3719.7799999999997 475.2322484984899 3698.42 474.81810616673476 3677.06 475.10657399076854 3655.7 475.80132801818854 3634.34 475.81236587515644 3612.98 475.5856075858726 3591.62 475.27426702627764 3570.26 474.8948962586183 3548.9 474.4350271056565 3527.54 474.05181534663 3506.18 473.42902823737313 3484.82 472.9107308902232 3463.46 472.36696232860294 3442.1 472.1032861179079 3420.74 472.0144834613813 3399.38 471.9842446739753 3378.02 471.6750167092698 3356.66 471.4189705364595 3335.3 471.014308300106 3313.94 470.70930139261014 3292.58 470.6068920841123 3271.22 470.536768979531 3249.86 470.512126738405 3228.5 470.2333783951094 3228.5 475.01380165868795Z" fill="#fdd5a4" opacity="0.9" />
		</g>
		<g>
			<path d="M3228.5 470.2333783951094 3249.86 470.512126738405 3271.22 470.536768979531 3292.58 470.6068920841123 3313.94 470.70930139261014 3335.3 471.014308300106 3356.66 471.4189705364595 3378.02 471.6750167092698 3399.38 471.9842446739753 3420.74 472.0144834613813 3442.1 472.1032861179079 3463.46 472.36696232860294 3484.82 472.9107308902232 3506.18 473.42902823737313 3527.54 474.05181534663 3548.9 474.4350271056565 3570.26 474.8948962586183 3591.62 475.27426702627764 3612.98 475.5856075858726 3634.34 475.81236587515644 3655.7 475.80132801818854 3677.06 475.10657399076854 3698.42 474.81810616673476 3719.7799999999997 475.2322484984899 3741.14 475.2181577191099 3762.5 475.2129700329708 3783.86 475.2164345015217 3805.2200000000003 476.0126442187972 3826.58 476.0456947164946 3847.94 476.0428252544268 3869.3 475.9445091636468 3890.66 475.67113203039463 3912.02 475.85734943037994 3933.38 475.9771097573116 3954.74 475.9804259287693 3976.1 476.25220661385714 3997.46 476.07416075277575 4018.8199999999997 476.03986709155856 4040.18 476.0304088632991 4061.54 476.1855240028958 4082.9 475.9675036747879 4104.26 476.6264014136676 4125.62 475.13902259765536 4146.98 474.8469015951653 4168.34 474.8518141039069 4189.7 475.27887736921514 4211.0599999999995 474.511998002383 4232.42 474.22541956826655 4253.78 473.9871807138114 4275.139999999999 473.9897191134042 4296.5 474.09267029394687 4296.5 471.35961801945126 4275.139999999999 471.1659266751794 4253.78 471.15503597364875 4232.42 471.36241611042175 4211.0599999999995 471.63391436910644 4189.7 472.3711663447606 4168.34 471.84780556889575 4146.98 471.84385861501005 4125.62 472.0370495671892 4104.26 473.4135261402591 4082.9 472.6948042788454 4061.54 472.8722901716775 4040.18 472.3229333883161 4018.8199999999997 472.33160122478233 3997.46 472.3663150934169 3976.1 472.5454339613937 3954.74 472.089365302357 3933.38 472.0865469044695 3912.02 471.87656051033446 3890.66 471.6164928135846 3869.3 471.7330711807051 3847.94 471.76332000605703 3826.58 471.766218855925 3805.2200000000003 471.666704132637 3783.86 470.5946289838734 3762.5 470.5925960519466 3741.14 470.5979497527046 3719.7799999999997 470.6143953187705 3698.42 470.16763283113994 3677.06 470.4164498778376 3655.7 471.0661628206815 3634.34 471.07731696753683 3612.98 470.8209639445631 3591.62 470.4605146316375 3570.26 469.9795822434353 3548.9 469.45753010676304 3527.54 469.00707612997155 3506.18 468.3152661342126 3484.82 467.73514405195505 3463.46 467.13787830023045 3442.1 466.8018186815908 3420.74 466.6374618686549 3399.38 466.54215183048984 3378.02 466.2228711653022 3356.66 465.9001213956365 3335.3 465.4390074188502 3313.94 465.07678566777196 3292.58 464.9033783038482 3271.22 464.78158180585166 3249.86 464.7260968061159 3228.5 464.4723890087735 3228.5 470.2333783951094Z" fill="#f48c7d" opacity="0.9" />
		</g>
		<g>
			<path d="M3228.5 464.4723890087735 3249.86 464.7260968061159 3271.22 464.78158180585166 3292.58 464.9033783038482 3313.94 465.07678566777196 3335.3 465.4390074188502 3356.66 465.9001213956365 3378.02 466.2228711653022 3399.38 466.54215183048984 3420.74 466.6374618686549 3442.1 466.8018186815908 3463.46 467.13787830023045 3484.82 467.73514405195505 3506.18 468.3152661342126 3527.54 469.00707612997155 3548.9 469.45753010676304 3570.26 469.9795822434353 3591.62 470.4605146316375 3612.98 470.8209639445631 3634.34 471.07731696753683 3655.7 471.0661628206815 3677.06 470.4164498778376 3698.42 470.16763283113994 3719.7799999999997 470.6143953187705 3741.14 470.5979497527046 3762.5 470.5925960519466 3783.86 470.5946289838734 3805.2200000000003 471.666704132637 3826.58 471.766218855925 3847.94 471.76332000605703 3869.3 471.7330711807051 3890.66 471.6164928135846 3912.02 471.87656051033446 3933.38 472.0865469044695 3954.74 472.089365302357 3976.1 472.5454339613937 3997.46 472.3663150934169 4018.8199999999997 472.33160122478233 4040.18 472.3229333883161 4061.54 472.8722901716775 4082.9 472.6948042788454 4104.26 473.4135261402591 4125.62 472.0370495671892 4146.98 471.84385861501005 4168.34 471.84780556889575 4189.7 472.3711663447606 4211.0599999999995 471.63391436910644 4232.42 471.36241611042175 4253.78 471.15503597364875 4275.139999999999 471.1659266751794 4296.5 471.35961801945126 4296.5 398 4275.139999999999 398.00000000000017 4253.78 398 4232.42 398.00000000000006 4211.0599999999995 397.99999999999994 4189.7 398.00000000000006 4168.34 397.9999999999999 4146.98 397.99999999999994 4125.62 398 4104.26 398 4082.9 397.99999999999994 4061.54 397.9999999999999 4040.18 398 4018.8199999999997 398 3997.46 398 3976.1 398.0000000000001 3954.74 398 3933.38 398 3912.02 398.0000000000002 3890.66 397.99999999999994 3869.3 398 3847.94 398.0000000000001 3826.58 398 3805.2200000000003 398.00000000000006 3783.86 398.00000000000006 3762.5 397.99999999999994 3741.14 398.00000000000017 3719.7799999999997 398 3698.42 398.00000000000017 3677.06 397.9999999999999 3655.7 397.9999999999999 3634.34 398.0000000000001 3612.98 397.9999999999999 3591.62 398 3570.26 397.9999999999999 3548.9 397.9999999999999 3527.54 398 3506.18 397.9999999999999 3484.82 398.0000000000001 3463.46 397.99999999999994 3442.1 398.0000000000001 3420.74 398.0000000000001 3399.38 398.0000000000001 3378.02 398.0000000000001 3356.66 398 3335.3 398.00000000000006 3313.94 398 3292.58 398 3271.22 397.9999999999999 3249.86 397.9999999999999 3228.5 398 3228.5 464.4723890087735Z" fill="#393d41" opacity="0.9" />
		</g>
		<g>
			<rect x="4372" y="431" width="22.9995" height="23" fill="#e62d39" />
		</g>
		<g>
			<text fill="#595959" font-family="Verdana,Open Sans,DejaVu Sans,sans-serif" font-weight="400" font-size="41" transform="matrix(1 0 0 1 4404.56 454)">Android</text>
		</g>
		<g>
			<rect x="4372" y="508" width="22.9995" height="23" fill="#005aa6" />
		</g>
		<g>
			<text fill="#595959" font-family="Verdana,Open Sans,DejaVu Sans,sans-serif" font-weight="400" font-size="41" transform="matrix(1 0 0 1 4404.56 531)">iOS</text>
		</g>
		<g>
			<rect x="4372" y="585" width="22.9995" height="23" fill="#55c0e9" />
		</g>
		<g>
			<text fill="#595959" font-family="Verdana,Open Sans,DejaVu Sans,sans-serif" font-weight="400" font-size="41" transform="matrix(1 0 0 1 4404.56 608)">Windows</text>
		</g>
		<g>
			<rect x="4372" y="662" width="22.9995" height="23" fill="#f6a118" />
		</g>
		<g>
			<text fill="#595959" font-family="Verdana,Open Sans,DejaVu Sans,sans-serif" font-weight="400" font-size="41" transform="matrix(1 0 0 1 4404.56 685)">macOS</text>
		</g>
		<g>
			<rect x="4372" y="739" width="22.9995" height="23" fill="#fdd5a4" />
		</g>
		<g>
			<text fill="#595959" font-family="Verdana,Open Sans,DejaVu Sans,sans-serif" font-weight="400" font-size="41" transform="matrix(1 0 0 1 4404.56 762)">Linux</text>
		</g>
		<g>
			<rect x="4372" y="816" width="22.9995" height="23" fill="#f48c7d" />
		</g>
		<g>
			<text fill="#595959" font-family="Verdana,Open Sans,DejaVu Sans,sans-serif" font-weight="400" font-size="41" transform="matrix(1 0 0 1 4404.56 839)">Other</text>
		</g>
		<g>
			<rect x="4372" y="893" width="22.9995" height="23" fill="#393d41" />
		</g>
		<g>
			<text fill="#595959" font-family="Verdana,Open Sans,DejaVu Sans,sans-serif" font-weight="400" font-size="41" transform="matrix(1 0 0 1 4404.56 916)">Unclassified</text>
		</g>
	</g>
</svg>
