<svg width="1763" height="1046"
    xmlns="http://www.w3.org/2000/svg"
	xmlns:xlink="http://www.w3.org/1999/xlink" xml:space="preserve" overflow="hidden">
	<defs>
		<clipPath id="clip0">
			<rect x="2917" y="346" width="1763" height="1046"/>
		</clipPath>
	</defs>
	<g clip-path="url(#clip0)" transform="translate(-2917 -346)">
		<rect x="2918" y="347" width="1760" height="1043" fill="#FFFFFF" />
		<g>
			<path d="
			M3228.5 974.532 4296.5 974.532
			M3228.5 910.53 4296.5 910.53
			M3228.5 846.528 4296.5 846.528
			M3228.5 781.526 4296.5 781.526
			M3228.5 717.524 4296.5 717.524
			M3228.5 653.522 4296.5 653.522
			M3228.5 589.52 4296.5 589.52
			M3228.5 525.517 4296.5 525.517
			M3228.5 461.515 4296.5 461.515
			M3228.5 397.5 4296.5 397.5" stroke="#D9D9D9" stroke-width="3.4375" stroke-linejoin="round" stroke-miterlimit="10" fill="none" />
		</g>
		<g>
			<path d="M 1038.5 4296.5 1038.5" stroke="#D9D9D9" stroke-width="3.4375" stroke-linejoin="round" stroke-miterlimit="10" fill="none" fill-rule="evenodd" />
		</g>
		<g>
			<text fill="#595959" font-family="Verdana,Open Sans,DejaVu Sans,sans-serif" font-weight="400" font-size="41" transform="matrix(6.12323e-17 -1 1 6.12323e-17 3243.544677734375 1212.1708984375)">31-Mar</text>
		</g>
		<g>
			<text fill="#595959" font-family="Verdana,Open Sans,DejaVu Sans,sans-serif" font-weight="400" font-size="41" transform="matrix(6.12323e-17 -1 1 6.12323e-17 3333.709287109375 1203.3022384643555)">28-Apr</text>
		</g>
		<g>
			<text fill="#595959" font-family="Verdana,Open Sans,DejaVu Sans,sans-serif" font-weight="400" font-size="41" transform="matrix(6.12323e-17 -1 1 6.12323e-17 3419.149287109375 1216.51513671875)">26-May</text>
		</g>
		<g>
			<text fill="#595959" font-family="Verdana,Open Sans,DejaVu Sans,sans-serif" font-weight="400" font-size="41" transform="matrix(6.12323e-17 -1 1 6.12323e-17 3503.53826171875 1194.1733322143555)">30-Jun</text>
		</g>
		<g>
			<text fill="#595959" font-family="Verdana,Open Sans,DejaVu Sans,sans-serif" font-weight="400" font-size="41" transform="matrix(6.12323e-17 -1 1 6.12323e-17 3589.688955078125 1179.0385665893555)">28-Jul</text>
		</g>
		<g>
			<text fill="#595959" font-family="Verdana,Open Sans,DejaVu Sans,sans-serif" font-weight="400" font-size="41" transform="matrix(6.12323e-17 -1 1 6.12323e-17 3675.469287109375 1208.66748046875)">25-Aug</text>
		</g>
		<g>
			<text fill="#595959" font-family="Verdana,Open Sans,DejaVu Sans,sans-serif" font-weight="400" font-size="41" transform="matrix(6.12323e-17 -1 1 6.12323e-17 3760.909287109375 1204.42333984375)">22-Sep</text>
		</g>
		<g>
			<text fill="#595959" font-family="Verdana,Open Sans,DejaVu Sans,sans-serif" font-weight="400" font-size="41" transform="matrix(6.12323e-17 -1 1 6.12323e-17 3841.644697265625 1201.1401290893555)">20-Oct</text>
		</g>
		<g>
			<text fill="#595959" font-family="Verdana,Open Sans,DejaVu Sans,sans-serif" font-weight="400" font-size="41" transform="matrix(6.12323e-17 -1 1 6.12323e-17 3926.85447265625 1209.70849609375)">17-Nov</text>
		</g>
		<g>
			<text fill="#595959" font-family="Verdana,Open Sans,DejaVu Sans,sans-serif" font-weight="400" font-size="41" transform="matrix(6.12323e-17 -1 1 6.12323e-17 4012.29447265625 1205.3642578125)">15-Dec</text>
		</g>
		<g>
			<text fill="#595959" font-family="Verdana,Open Sans,DejaVu Sans,sans-serif" font-weight="400" font-size="41" transform="matrix(6.12323e-17 -1 1 6.12323e-17 4101.5982421875 1189.9291915893555)">12-Jan</text>
		</g>
		<g>
			<text fill="#595959" font-family="Verdana,Open Sans,DejaVu Sans,sans-serif" font-weight="400" font-size="41" transform="matrix(6.12323e-17 -1 1 6.12323e-17 4184.115390625 1203.0419921875)">09-Feb</text>
		</g>
		<g>
			<text fill="#595959" font-family="Verdana,Open Sans,DejaVu Sans,sans-serif" font-weight="400" font-size="41" transform="matrix(6.12323e-17 -1 1 6.12323e-17 4268.844697265625 1212.0107421875)">09-Mar</text>
		</g>
		<g>
			<text fill="#595959" font-family="Verdana,Open Sans,DejaVu Sans,sans-serif" font-weight="400" font-size="41" transform="matrix(1 0 0 1 3135.4482421875 1050)">0%</text>
		</g>
		<g>
			<text fill="#595959" font-family="Verdana,Open Sans,DejaVu Sans,sans-serif" font-weight="400" font-size="41" transform="matrix(1 0 0 1 3111.96533203125 922)">20%</text>
		</g>
		<g>
			<text fill="#595959" font-family="Verdana,Open Sans,DejaVu Sans,sans-serif" font-weight="400" font-size="41" transform="matrix(1 0 0 1 3110.82421875 794)">40%</text>
		</g>
		<g>
			<text fill="#595959" font-family="Verdana,Open Sans,DejaVu Sans,sans-serif" font-weight="400" font-size="41" transform="matrix(1 0 0 1 3112.3056640625 666)">60%</text>
		</g>
		<g>
			<text fill="#595959" font-family="Verdana,Open Sans,DejaVu Sans,sans-serif" font-weight="400" font-size="41" transform="matrix(1 0 0 1 3112.04541015625 538)">80%</text>
		</g>
		<g>
			<text fill="#595959" font-family="Verdana,Open Sans,DejaVu Sans,sans-serif" font-weight="400" font-size="41" transform="matrix(1 0 0 1 3090.2841796875 410)">100%</text>
		</g>
		<g>
			<text fill="#595959" font-family="Verdana,Open Sans,DejaVu Sans,sans-serif" font-weight="400" font-size="41" transform="matrix(1 0 0 1 3556.97119140625 1321)">Week Commencing</text>
		</g>
		<g>
			<text fill="#595959" font-family="Verdana,Open Sans,DejaVu Sans,sans-serif" font-weight="400" font-size="46" transform="matrix(6.12323e-17 -1 1 6.12323e-17 3019.73 936.7665710449219)">Requests (% of Total)</text>
		</g>
		<rect x="2918.5" y="347.5" width="1760" height="1043" stroke="#D9D9D9" stroke-width="3.4375" stroke-linejoin="round" stroke-miterlimit="10" fill="none" />
		<g>
			<path d="M3228.5 1038 3249.86 1038 3271.22 1038 3292.58 1038 3313.94 1038 3335.3 1038 3356.66 1038 3378.02 1038 3399.38 1038 3420.74 1038 3442.1 1038 3463.46 1038 3484.82 1038 3506.18 1038 3527.54 1038 3548.9 1038 3570.26 1038 3591.62 1038 3612.98 1038 3634.34 1038 3655.7 1038 3677.06 1038 3698.42 1038 3719.7799999999997 1038 3741.14 1038 3762.5 1038 3783.86 1038 3805.2200000000003 1038 3826.58 1038 3847.94 1038 3869.3 1038 3890.66 1038 3912.02 1038 3933.38 1038 3954.74 1038 3976.1 1038 3997.46 1038 4018.8199999999997 1038 4040.18 1038 4061.54 1038 4082.9 1038 4104.26 1038 4125.62 1038 4146.98 1038 4168.34 1038 4189.7 1038 4211.0599999999995 1038 4232.42 1038 4253.78 1038 4275.139999999999 1038 4296.5 1038 4296.5 745.8055486763521 4275.139999999999 745.625269596429 4253.78 745.5837285424925 4232.42 745.5518539372332 4211.0599999999995 745.5916587614981 4189.7 745.6264248572595 4168.34 746.5726732254989 4146.98 746.8242705611495 4125.62 746.4260841443786 4104.26 746.1408324365968 4082.9 746.1086007114674 4061.54 746.7358843125422 4040.18 747.3561118905186 4018.8199999999997 749.7549747311173 3997.46 751.708180030847 3976.1 751.761881610288 3954.74 753.5875510114441 3933.38 760.0049069239963 3912.02 757.9113031477688 3890.66 759.380873288005 3869.3 764.3156850172985 3847.94 764.3768419479462 3826.58 764.3547678374432 3805.2200000000003 764.4897401031296 3783.86 766.8609306167309 3762.5 766.8567475951404 3741.14 767.9192079463141 3719.7799999999997 768.908358113137 3698.42 771.7976640891548 3677.06 772.995900100849 3655.7 773.0047654751563 3634.34 774.0176159604634 3612.98 776.3680200175993 3591.62 776.3453368808368 3570.26 776.3465392709672 3548.9 776.3609674251002 3527.54 776.5119637903555 3506.18 778.9439765467624 3484.82 785.3332769215773 3463.46 785.3813296257167 3442.1 786.9316254516905 3420.74 788.064069053389 3399.38 789.5346539181728 3378.02 789.7270984819011 3356.66 789.5483223673614 3335.3 789.1007508003959 3313.94 788.5260313684701 3292.58 788.0511809237687 3271.22 787.8975793566815 3249.86 787.8180633391596 3228.5 787.5170102748218 3228.5 1038Z" fill="#e62d39" opacity="0.9" />
		</g>
		<g>
			<path d="M3228.5 787.5170102748218 3249.86 787.8180633391596 3271.22 787.8975793566815 3292.58 788.0511809237687 3313.94 788.5260313684701 3335.3 789.1007508003959 3356.66 789.5483223673614 3378.02 789.7270984819011 3399.38 789.5346539181728 3420.74 788.064069053389 3442.1 786.9316254516905 3463.46 785.3813296257167 3484.82 785.3332769215773 3506.18 778.9439765467624 3527.54 776.5119637903555 3548.9 776.3609674251002 3570.26 776.3465392709672 3591.62 776.3453368808368 3612.98 776.3680200175993 3634.34 774.0176159604634 3655.7 773.0047654751563 3677.06 772.995900100849 3698.42 771.7976640891548 3719.7799999999997 768.908358113137 3741.14 767.9192079463141 3762.5 766.8567475951404 3783.86 766.8609306167309 3805.2200000000003 764.4897401031296 3826.58 764.3547678374432 3847.94 764.3768419479462 3869.3 764.3156850172985 3890.66 759.380873288005 3912.02 757.9113031477688 3933.38 760.0049069239963 3954.74 753.5875510114441 3976.1 751.761881610288 3997.46 751.708180030847 4018.8199999999997 749.7549747311173 4040.18 747.3561118905186 4061.54 746.7358843125422 4082.9 746.1086007114674 4104.26 746.1408324365968 4125.62 746.4260841443786 4146.98 746.8242705611495 4168.34 746.5726732254989 4189.7 745.6264248572595 4211.0599999999995 745.5916587614981 4232.42 745.5518539372332 4253.78 745.5837285424925 4275.139999999999 745.625269596429 4296.5 745.8055486763521 4296.5 529.767884481243 4275.139999999999 529.5015251143122 4253.78 529.6072381711158 4232.42 529.6759586106136 4211.0599999999995 528.943616141882 4189.7 528.9256108228878 4168.34 529.7822561735807 4146.98 530.0318797750176 4125.62 529.5742385244796 4104.26 529.1641691809261 4082.9 529.1689859268577 4061.54 529.2185804117662 4040.18 529.5448927766422 4018.8199999999997 529.3666745800084 3997.46 529.7448004770854 3976.1 529.7274153021705 3954.74 530.163015188101 3933.38 532.2645239373791 3912.02 531.3268574465264 3890.66 531.4166307781715 3869.3 531.7572224646864 3847.94 531.7708483166984 3826.58 531.8218985108718 3805.2200000000003 531.9849023445704 3783.86 531.7935729648713 3762.5 531.7864321784326 3741.14 531.5727707842481 3719.7799999999997 531.4390936505183 3698.42 532.2027211748189 3677.06 532.4711028871407 3655.7 532.4751666451237 3634.34 532.6424401194076 3612.98 532.3819588718641 3591.62 532.3762321494829 3570.26 532.3835012006392 3548.9 532.4008414612442 3527.54 531.9653947132791 3506.18 532.7065148297092 3484.82 534.1646402996798 3463.46 534.1813437994358 3442.1 534.0614406876781 3420.74 533.9651928337187 3399.38 533.7866116772315 3378.02 533.5868149898097 3356.66 533.4688532767087 3335.3 533.0768238550941 3313.94 532.663421242623 3292.58 532.2348192575948 3271.22 532.1820957819215 3249.86 532.3681470809754 3228.5 532.5201668090683 3228.5 787.5170102748218Z" fill="#005aa6" opacity="0.9" />
		</g>
		<g>
			<path d="M3228.5 532.5201668090683 3249.86 532.3681470809754 3271.22 532.1820957819215 3292.58 532.2348192575948 3313.94 532.663421242623 3335.3 533.0768238550941 3356.66 533.4688532767087 3378.02 533.5868149898097 3399.38 533.7866116772315 3420.74 533.9651928337187 3442.1 534.0614406876781 3463.46 534.1813437994358 3484.82 534.1646402996798 3506.18 532.7065148297092 3527.54 531.9653947132791 3548.9 532.4008414612442 3570.26 532.3835012006392 3591.62 532.3762321494829 3612.98 532.3819588718641 3634.34 532.6424401194076 3655.7 532.4751666451237 3677.06 532.4711028871407 3698.42 532.2027211748189 3719.7799999999997 531.4390936505183 3741.14 531.5727707842481 3762.5 531.7864321784326 3783.86 531.7935729648713 3805.2200000000003 531.9849023445704 3826.58 531.8218985108718 3847.94 531.7708483166984 3869.3 531.7572224646864 3890.66 531.4166307781715 3912.02 531.3268574465264 3933.38 532.2645239373791 3954.74 530.163015188101 3976.1 529.7274153021705 3997.46 529.7448004770854 4018.8199999999997 529.3666745800084 4040.18 529.5448927766422 4061.54 529.2185804117662 4082.9 529.1689859268577 4104.26 529.1641691809261 4125.62 529.5742385244796 4146.98 530.0318797750176 4168.34 529.7822561735807 4189.7 528.9256108228878 4211.0599999999995 528.943616141882 4232.42 529.6759586106136 4253.78 529.6072381711158 4275.139999999999 529.5015251143122 4296.5 529.767884481243 4296.5 487.95222090418406 4275.139999999999 488.0992768689666 4253.78 488.4707685226323 4232.42 488.81730930051134 4211.0599999999995 489.66218659583717 4189.7 489.6497010215789 4168.34 489.62346831140377 4146.98 490.08709103844944 4125.62 489.8264670604297 4104.26 489.6030568350501 4082.9 489.6027851684956 4061.54 489.6838400376917 4040.18 490.1068496342023 4018.8199999999997 490.9492704753914 3997.46 490.39407239534404 3976.1 490.3851968973204 3954.74 490.7185530259544 3933.38 492.30515321923616 3912.02 491.64116500384506 3890.66 491.78456573649515 3869.3 491.92955522350275 3847.94 491.93920435370626 3826.58 491.9768227136466 3805.2200000000003 492.1505952348429 3783.86 491.85600669794854 3762.5 491.8513930148632 3741.14 491.63219577145946 3719.7799999999997 491.4978977886208 3698.42 491.99009410225506 3677.06 492.16551794945576 3655.7 492.1686259707535 3634.34 492.21654806017045 3612.98 491.7116461371828 3591.62 491.70767780671554 3570.26 491.71346164432515 3548.9 491.7282826494978 3527.54 491.33050875804906 3506.18 491.76141449343754 3484.82 492.74242973299926 3463.46 492.75457857238825 3442.1 492.5918650008465 3420.74 492.35892132336346 3399.38 492.0889325160488 3378.02 491.69189364771574 3356.66 491.3732427741912 3335.3 490.8088740577118 3313.94 490.31149608874114 3292.58 489.77877115088484 3271.22 489.5616092932336 3249.86 489.5397849514939 3228.5 489.5595335703314 3228.5 532.5201668090683Z" fill="#55c0e9" opacity="0.9" />
		</g>
		<g>
			<path d="M3228.5 489.5595335703314 3249.86 489.5397849514939 3271.22 489.5616092932336 3292.58 489.77877115088484 3313.94 490.31149608874114 3335.3 490.8088740577118 3356.66 491.3732427741912 3378.02 491.69189364771574 3399.38 492.0889325160488 3420.74 492.35892132336346 3442.1 492.5918650008465 3463.46 492.75457857238825 3484.82 492.74242973299926 3506.18 491.76141449343754 3527.54 491.33050875804906 3548.9 491.7282826494978 3570.26 491.71346164432515 3591.62 491.70767780671554 3612.98 491.7116461371828 3634.34 492.21654806017045 3655.7 492.1686259707535 3677.06 492.16551794945576 3698.42 491.99009410225506 3719.7799999999997 491.4978977886208 3741.14 491.63219577145946 3762.5 491.8513930148632 3783.86 491.85600669794854 3805.2200000000003 492.1505952348429 3826.58 491.9768227136466 3847.94 491.93920435370626 3869.3 491.92955522350275 3890.66 491.78456573649515 3912.02 491.64116500384506 3933.38 492.30515321923616 3954.74 490.7185530259544 3976.1 490.3851968973204 3997.46 490.39407239534404 4018.8199999999997 490.9492704753914 4040.18 490.1068496342023 4061.54 489.6838400376917 4082.9 489.6027851684956 4104.26 489.6030568350501 4125.62 489.8264670604297 4146.98 490.08709103844944 4168.34 489.62346831140377 4189.7 489.6497010215789 4211.0599999999995 489.66218659583717 4232.42 488.81730930051134 4253.78 488.4707685226323 4275.139999999999 488.0992768689666 4296.5 487.95222090418406 4296.5 476.2563330555304 4275.139999999999 476.501380298194 4253.78 476.9091078280443 4232.42 477.3175055832355 4211.0599999999995 478.10739716876634 4189.7 478.09661826532414 4168.34 478.15999289365544 4146.98 478.5827424221303 4125.62 478.38419566392514 4104.26 478.2713135439936 4082.9 478.26942714386075 4061.54 478.5099393463872 4040.18 478.7941392845137 4018.8199999999997 479.58006819193264 3997.46 479.10650501970053 3976.1 479.0999411202481 3954.74 479.4072866140748 3933.38 480.96640637284213 3912.02 480.2698842349475 3890.66 480.4907637351383 3869.3 480.4086170616429 3847.94 480.41676419469263 3826.58 480.45029730465194 3805.2200000000003 480.6272134139708 3783.86 480.40305013594224 3762.5 480.39917600110454 3741.14 480.2978208961403 3719.7799999999997 480.1378211447884 3698.42 480.4875119170523 3677.06 480.62062646338103 3655.7 480.623498410782 3634.34 480.6254558284506 3612.98 479.9434244465183 3591.62 479.939862628262 3570.26 479.94505960714844 3548.9 479.95902615881243 3527.54 479.5505692873087 3506.18 479.86304908787844 3484.82 480.59388216933854 3463.46 480.6043736648512 3442.1 480.3867647714376 3420.74 480.0939647438401 3399.38 479.7308663765565 3378.02 479.2808407307956 3356.66 478.9041807209399 3335.3 478.2910364979862 3313.94 477.7828333755948 3292.58 477.2431626623622 3271.22 476.9834739801712 3249.86 476.8973696844754 3228.5 476.8748020982269 3228.5 489.5595335703314Z" fill="#f6a118" opacity="0.9" />
		</g>
		<g>
			<path d="M3228.5 476.8748020982269 3249.86 476.8973696844754 3271.22 476.9834739801712 3292.58 477.2431626623622 3313.94 477.7828333755948 3335.3 478.2910364979862 3356.66 478.9041807209399 3378.02 479.2808407307956 3399.38 479.7308663765565 3420.74 480.0939647438401 3442.1 480.3867647714376 3463.46 480.6043736648512 3484.82 480.59388216933854 3506.18 479.86304908787844 3527.54 479.5505692873087 3548.9 479.95902615881243 3570.26 479.94505960714844 3591.62 479.939862628262 3612.98 479.9434244465183 3634.34 480.6254558284506 3655.7 480.623498410782 3677.06 480.62062646338103 3698.42 480.4875119170523 3719.7799999999997 480.1378211447884 3741.14 480.2978208961403 3762.5 480.39917600110454 3783.86 480.40305013594224 3805.2200000000003 480.6272134139708 3826.58 480.45029730465194 3847.94 480.41676419469263 3869.3 480.4086170616429 3890.66 480.4907637351383 3912.02 480.2698842349475 3933.38 480.96640637284213 3954.74 479.4072866140748 3976.1 479.0999411202481 3997.46 479.10650501970053 4018.8199999999997 479.58006819193264 4040.18 478.7941392845137 4061.54 478.5099393463872 4082.9 478.26942714386075 4104.26 478.2713135439936 4125.62 478.38419566392514 4146.98 478.5827424221303 4168.34 478.15999289365544 4189.7 478.09661826532414 4211.0599999999995 478.10739716876634 4232.42 477.3175055832355 4253.78 476.9091078280443 4275.139999999999 476.501380298194 4296.5 476.2563330555304 4296.5 471.9574850631018 4275.139999999999 472.2340193606014 4253.78 472.6559547595341 4232.42 473.0650745461115 4211.0599999999995 473.82819172566997 4189.7 473.8181074091512 4168.34 473.8782116867164 4146.98 474.28062031125177 4125.62 474.09267029394687 4104.26 473.9897191134042 4082.9 473.9871807138114 4061.54 474.22541956826655 4040.18 474.511998002383 4018.8199999999997 475.27887736921514 3997.46 474.8518141039069 3976.1 474.8469015951653 3954.74 475.13902259765536 3933.38 476.6264014136676 3912.02 475.9675036747879 3890.66 476.1855240028958 3869.3 476.0304088632991 3847.94 476.03986709155856 3826.58 476.07416075277575 3805.2200000000003 476.25220661385714 3783.86 475.9804259287693 3762.5 475.9771097573116 3741.14 475.85734943037994 3719.7799999999997 475.67113203039463 3698.42 475.9445091636468 3677.06 476.0428252544268 3655.7 476.0456947164946 3634.34 476.0126442187972 3612.98 475.2164345015217 3591.62 475.2129700329708 3570.26 475.2181577191099 3548.9 475.2322484984899 3527.54 474.81810616673476 3506.18 475.10657399076854 3484.82 475.80132801818854 3463.46 475.81236587515644 3442.1 475.5856075858726 3420.74 475.27426702627764 3399.38 474.8948962586183 3378.02 474.4350271056565 3356.66 474.05181534663 3335.3 473.42902823737313 3313.94 472.9107308902232 3292.58 472.36696232860294 3271.22 472.1032861179079 3249.86 472.0144834613813 3228.5 471.9842446739753 3228.5 476.8748020982269Z" fill="#fdd5a4" opacity="0.9" />
		</g>
		<g>
			<path d="M3228.5 471.9842446739753 3249.86 472.0144834613813 3271.22 472.1032861179079 3292.58 472.36696232860294 3313.94 472.9107308902232 3335.3 473.42902823737313 3356.66 474.05181534663 3378.02 474.4350271056565 3399.38 474.8948962586183 3420.74 475.27426702627764 3442.1 475.5856075858726 3463.46 475.81236587515644 3484.82 475.80132801818854 3506.18 475.10657399076854 3527.54 474.81810616673476 3548.9 475.2322484984899 3570.26 475.2181577191099 3591.62 475.2129700329708 3612.98 475.2164345015217 3634.34 476.0126442187972 3655.7 476.0456947164946 3677.06 476.0428252544268 3698.42 475.9445091636468 3719.7799999999997 475.67113203039463 3741.14 475.85734943037994 3762.5 475.9771097573116 3783.86 475.9804259287693 3805.2200000000003 476.25220661385714 3826.58 476.07416075277575 3847.94 476.03986709155856 3869.3 476.0304088632991 3890.66 476.1855240028958 3912.02 475.9675036747879 3933.38 476.6264014136676 3954.74 475.13902259765536 3976.1 474.8469015951653 3997.46 474.8518141039069 4018.8199999999997 475.27887736921514 4040.18 474.511998002383 4061.54 474.22541956826655 4082.9 473.9871807138114 4104.26 473.9897191134042 4125.62 474.09267029394687 4146.98 474.28062031125177 4168.34 473.8782116867164 4189.7 473.8181074091512 4211.0599999999995 473.82819172566997 4232.42 473.0650745461115 4253.78 472.6559547595341 4275.139999999999 472.2340193606014 4296.5 471.9574850631018 4296.5 469.272109525969 4275.139999999999 469.56054940240006 4253.78 470.00314366447725 4232.42 470.42216191971556 4211.0599999999995 471.16063030075713 4189.7 471.15110050258926 4168.34 471.2005668211781 4146.98 471.56419721584615 4125.62 471.35961801945126 4104.26 471.1659266751794 4082.9 471.15503597364875 4061.54 471.36241611042175 4040.18 471.63391436910644 4018.8199999999997 472.3711663447606 3997.46 471.84780556889575 3976.1 471.84385861501005 3954.74 472.0370495671892 3933.38 473.4135261402591 3912.02 472.6948042788454 3890.66 472.8722901716775 3869.3 472.3229333883161 3847.94 472.33160122478233 3826.58 472.3663150934169 3805.2200000000003 472.5454339613937 3783.86 472.089365302357 3762.5 472.0865469044695 3741.14 471.87656051033446 3719.7799999999997 471.6164928135846 3698.42 471.7330711807051 3677.06 471.76332000605703 3655.7 471.766218855925 3634.34 471.666704132637 3612.98 470.5946289838734 3591.62 470.5925960519466 3570.26 470.5979497527046 3548.9 470.6143953187705 3527.54 470.16763283113994 3506.18 470.4164498778376 3484.82 471.0661628206815 3463.46 471.07731696753683 3442.1 470.8209639445631 3420.74 470.4605146316375 3399.38 469.9795822434353 3378.02 469.45753010676304 3356.66 469.00707612997155 3335.3 468.3152661342126 3313.94 467.73514405195505 3292.58 467.13787830023045 3271.22 466.8018186815908 3249.86 466.6374618686549 3228.5 466.54215183048984 3228.5 471.9842446739753Z" fill="#f48c7d" opacity="0.9" />
		</g>
		<g>
			<path d="M3228.5 466.54215183048984 3249.86 466.6374618686549 3271.22 466.8018186815908 3292.58 467.13787830023045 3313.94 467.73514405195505 3335.3 468.3152661342126 3356.66 469.00707612997155 3378.02 469.45753010676304 3399.38 469.9795822434353 3420.74 470.4605146316375 3442.1 470.8209639445631 3463.46 471.07731696753683 3484.82 471.0661628206815 3506.18 470.4164498778376 3527.54 470.16763283113994 3548.9 470.6143953187705 3570.26 470.5979497527046 3591.62 470.5925960519466 3612.98 470.5946289838734 3634.34 471.666704132637 3655.7 471.766218855925 3677.06 471.76332000605703 3698.42 471.7330711807051 3719.7799999999997 471.6164928135846 3741.14 471.87656051033446 3762.5 472.0865469044695 3783.86 472.089365302357 3805.2200000000003 472.5454339613937 3826.58 472.3663150934169 3847.94 472.33160122478233 3869.3 472.3229333883161 3890.66 472.8722901716775 3912.02 472.6948042788454 3933.38 473.4135261402591 3954.74 472.0370495671892 3976.1 471.84385861501005 3997.46 471.84780556889575 4018.8199999999997 472.3711663447606 4040.18 471.63391436910644 4061.54 471.36241611042175 4082.9 471.15503597364875 4104.26 471.1659266751794 4125.62 471.35961801945126 4146.98 471.56419721584615 4168.34 471.2005668211781 4189.7 471.15110050258926 4211.0599999999995 471.16063030075713 4232.42 470.42216191971556 4253.78 470.00314366447725 4275.139999999999 469.56054940240006 4296.5 469.272109525969 4296.5 398.0000000000001 4275.139999999999 397.9999999999999 4253.78 398 4232.42 397.9999999999999 4211.0599999999995 398.0000000000001 4189.7 398 4168.34 398.00000000000006 4146.98 397.9999999999999 4125.62 398 4104.26 398.00000000000017 4082.9 398 4061.54 398.00000000000006 4040.18 397.99999999999994 4018.8199999999997 398.00000000000006 3997.46 397.9999999999999 3976.1 397.99999999999994 3954.74 398 3933.38 398 3912.02 397.99999999999994 3890.66 397.9999999999999 3869.3 398 3847.94 398 3826.58 398 3805.2200000000003 398.0000000000001 3783.86 398 3762.5 398 3741.14 398.0000000000002 3719.7799999999997 397.99999999999994 3698.42 398 3677.06 398.0000000000001 3655.7 398 3634.34 398.00000000000006 3612.98 398.00000000000006 3591.62 397.99999999999994 3570.26 398.00000000000017 3548.9 398 3527.54 398.00000000000017 3506.18 397.9999999999999 3484.82 397.9999999999999 3463.46 398.0000000000001 3442.1 397.9999999999999 3420.74 398 3399.38 397.9999999999999 3378.02 397.9999999999999 3356.66 398 3335.3 397.9999999999999 3313.94 398.0000000000001 3292.58 397.99999999999994 3271.22 398.0000000000001 3249.86 398.0000000000001 3228.5 398.0000000000001 3228.5 466.54215183048984Z" fill="#393d41" opacity="0.9" />
		</g>
		<g>
			<rect x="4372" y="431" width="22.9995" height="23" fill="#e62d39" />
		</g>
		<g>
			<text fill="#595959" font-family="Verdana,Open Sans,DejaVu Sans,sans-serif" font-weight="400" font-size="41" transform="matrix(1 0 0 1 4404.56 454)">Android</text>
		</g>
		<g>
			<rect x="4372" y="508" width="22.9995" height="23" fill="#005aa6" />
		</g>
		<g>
			<text fill="#595959" font-family="Verdana,Open Sans,DejaVu Sans,sans-serif" font-weight="400" font-size="41" transform="matrix(1 0 0 1 4404.56 531)">iOS</text>
		</g>
		<g>
			<rect x="4372" y="585" width="22.9995" height="23" fill="#55c0e9" />
		</g>
		<g>
			<text fill="#595959" font-family="Verdana,Open Sans,DejaVu Sans,sans-serif" font-weight="400" font-size="41" transform="matrix(1 0 0 1 4404.56 608)">Windows</text>
		</g>
		<g>
			<rect x="4372" y="662" width="22.9995" height="23" fill="#f6a118" />
		</g>
		<g>
			<text fill="#595959" font-family="Verdana,Open Sans,DejaVu Sans,sans-serif" font-weight="400" font-size="41" transform="matrix(1 0 0 1 4404.56 685)">macOS</text>
		</g>
		<g>
			<rect x="4372" y="739" width="22.9995" height="23" fill="#fdd5a4" />
		</g>
		<g>
			<text fill="#595959" font-family="Verdana,Open Sans,DejaVu Sans,sans-serif" font-weight="400" font-size="41" transform="matrix(1 0 0 1 4404.56 762)">Linux</text>
		</g>
		<g>
			<rect x="4372" y="816" width="22.9995" height="23" fill="#f48c7d" />
		</g>
		<g>
			<text fill="#595959" font-family="Verdana,Open Sans,DejaVu Sans,sans-serif" font-weight="400" font-size="41" transform="matrix(1 0 0 1 4404.56 839)">Other</text>
		</g>
		<g>
			<rect x="4372" y="893" width="22.9995" height="23" fill="#393d41" />
		</g>
		<g>
			<text fill="#595959" font-family="Verdana,Open Sans,DejaVu Sans,sans-serif" font-weight="400" font-size="41" transform="matrix(1 0 0 1 4404.56 916)">Unclassified</text>
		</g>
	</g>
</svg>
