<svg width="1763" height="1046"
    xmlns="http://www.w3.org/2000/svg"
	xmlns:xlink="http://www.w3.org/1999/xlink" xml:space="preserve" overflow="hidden">
	<defs>
		<clipPath id="clip0">
			<rect x="2917" y="346" width="1763" height="1046"/>
		</clipPath>
	</defs>
	<g clip-path="url(#clip0)" transform="translate(-2917 -346)">
		<rect x="2918" y="347" width="1760" height="1043" fill="#FFFFFF" />
		<g>
			<path d="
			M3228.5 974.532 4296.5 974.532
			M3228.5 910.53 4296.5 910.53
			M3228.5 846.528 4296.5 846.528
			M3228.5 781.526 4296.5 781.526
			M3228.5 717.524 4296.5 717.524
			M3228.5 653.522 4296.5 653.522
			M3228.5 589.52 4296.5 589.52
			M3228.5 525.517 4296.5 525.517
			M3228.5 461.515 4296.5 461.515
			M3228.5 397.5 4296.5 397.5" stroke="#D9D9D9" stroke-width="3.4375" stroke-linejoin="round" stroke-miterlimit="10" fill="none" />
		</g>
		<g>
			<path d="M 1038.5 4296.5 1038.5" stroke="#D9D9D9" stroke-width="3.4375" stroke-linejoin="round" stroke-miterlimit="10" fill="none" fill-rule="evenodd" />
		</g>
		<g>
			<text fill="#595959" font-family="Verdana,sans-serif" font-weight="400" font-size="41" transform="matrix(6.12323e-17 -1 1 6.12323e-17 3244.5 1210)">01-Jan</text>
		</g>
		<g>
			<text fill="#595959" font-family="Verdana,sans-serif" font-weight="400" font-size="41" transform="matrix(6.12323e-17 -1 1 6.12323e-17 3328.264705882353 1210)">29-Jan</text>
		</g>
		<g>
			<text fill="#595959" font-family="Verdana,sans-serif" font-weight="400" font-size="41" transform="matrix(6.12323e-17 -1 1 6.12323e-17 3412.029411764706 1216)">26-Feb</text>
		</g>
		<g>
			<text fill="#595959" font-family="Verdana,sans-serif" font-weight="400" font-size="41" transform="matrix(6.12323e-17 -1 1 6.12323e-17 3495.794117647059 1223)">25-Mar</text>
		</g>
		<g>
			<text fill="#595959" font-family="Verdana,sans-serif" font-weight="400" font-size="41" transform="matrix(6.12323e-17 -1 1 6.12323e-17 3583.0588235294117 1216)">22-Apr</text>
		</g>
		<g>
			<text fill="#595959" font-family="Verdana,sans-serif" font-weight="400" font-size="41" transform="matrix(6.12323e-17 -1 1 6.12323e-17 3666.823529411765 1228)">20-May</text>
		</g>
		<g>
			<text fill="#595959" font-family="Verdana,sans-serif" font-weight="400" font-size="41" transform="matrix(6.12323e-17 -1 1 6.12323e-17 3746.5882352941176 1209)">17-Jun</text>
		</g>
		<g>
			<text fill="#595959" font-family="Verdana,sans-serif" font-weight="400" font-size="41" transform="matrix(6.12323e-17 -1 1 6.12323e-17 3830.8529411764707 1194)">15-Jul</text>
		</g>
		<g>
			<text fill="#595959" font-family="Verdana,sans-serif" font-weight="400" font-size="41" transform="matrix(6.12323e-17 -1 1 6.12323e-17 3918.1176470588234 1218)">12-Aug</text>
		</g>
		<g>
			<text fill="#595959" font-family="Verdana,sans-serif" font-weight="400" font-size="41" transform="matrix(6.12323e-17 -1 1 6.12323e-17 4001.8823529411766 1222)">09-Sep</text>
		</g>
		<g>
			<text fill="#595959" font-family="Verdana,sans-serif" font-weight="400" font-size="41" transform="matrix(6.12323e-17 -1 1 6.12323e-17 4082.1470588235293 1215)">07-Oct</text>
		</g>
		<g>
			<text fill="#595959" font-family="Verdana,sans-serif" font-weight="400" font-size="41" transform="matrix(6.12323e-17 -1 1 6.12323e-17 4165.911764705882 1225)">04-Nov</text>
		</g>
		<g>
			<text fill="#595959" font-family="Verdana,sans-serif" font-weight="400" font-size="41" transform="matrix(6.12323e-17 -1 1 6.12323e-17 4249.676470588235 1223)">09-Dec</text>
		</g>
		<g>
			<text fill="#595959" font-family="Verdana,sans-serif" font-weight="400" font-size="41" transform="matrix(1 0 0 1 3123.5 1050)">0%</text>
		</g>
		<g>
			<text fill="#595959" font-family="Verdana,sans-serif" font-weight="400" font-size="41" transform="matrix(1 0 0 1 3097.5 922)">20%</text>
		</g>
		<g>
			<text fill="#595959" font-family="Verdana,sans-serif" font-weight="400" font-size="41" transform="matrix(1 0 0 1 3096.5 794)">40%</text>
		</g>
		<g>
			<text fill="#595959" font-family="Verdana,sans-serif" font-weight="400" font-size="41" transform="matrix(1 0 0 1 3097.5 666)">60%</text>
		</g>
		<g>
			<text fill="#595959" font-family="Verdana,sans-serif" font-weight="400" font-size="41" transform="matrix(1 0 0 1 3097.5 538)">80%</text>
		</g>
		<g>
			<text fill="#595959" font-family="Verdana,sans-serif" font-weight="400" font-size="41" transform="matrix(1 0 0 1 3074.5 410)">100%</text>
		</g>
		<g>
			<text fill="#595959" font-family="Verdana,sans-serif" font-weight="400" font-size="41" transform="matrix(1 0 0 1 3544.5 1321)">Week Commencing</text>
		</g>
		<g>
			<text fill="#595959" font-family="Verdana,sans-serif" font-weight="400" font-size="46" transform="matrix(6.12323e-17 -1 1 6.12323e-17 3019.73 965.25)">Requests (% of Total)</text>
		</g>
		<rect x="2918.5" y="347.5" width="1760" height="1043" stroke="#D9D9D9" stroke-width="3.4375" stroke-linejoin="round" stroke-miterlimit="10" fill="none" />
		<g>
			<path d="M3228.5 1038 3249.4411764705883 1038 3270.3823529411766 1038 3291.323529411765 1038 3312.264705882353 1038 3333.205882352941 1038 3354.1470588235293 1038 3375.0882352941176 1038 3396.029411764706 1038 3416.970588235294 1038 3437.9117647058824 1038 3458.8529411764707 1038 3479.794117647059 1038 3500.735294117647 1038 3521.676470588235 1038 3542.6176470588234 1038 3563.5588235294117 1038 3584.5 1038 3605.4411764705883 1038 3626.3823529411766 1038 3647.323529411765 1038 3668.264705882353 1038 3689.205882352941 1038 3710.1470588235293 1038 3731.0882352941176 1038 3752.029411764706 1038 3772.970588235294 1038 3793.9117647058824 1038 3814.8529411764707 1038 3835.7941176470586 1038 3856.735294117647 1038 3877.676470588235 1038 3898.6176470588234 1038 3919.5588235294117 1038 3940.5 1038 3961.4411764705883 1038 3982.3823529411766 1038 4003.323529411765 1038 4024.264705882353 1038 4045.2058823529414 1038 4066.1470588235293 1038 4087.0882352941176 1038 4108.029411764706 1038 4128.970588235294 1038 4149.911764705882 1038 4170.85294117647 1038 4191.794117647059 1038 4212.735294117647 1038 4233.676470588235 1038 4254.617647058823 1038 4275.558823529412 1038 4296.5 1038 4296.5 783.2922413061176 4275.558823529412 783.1097274823168 4254.617647058823 783.0871417282395 4233.676470588235 782.9000115015447 4212.735294117647 782.5276373365637 4191.794117647059 782.6753667196651 4170.85294117647 783.1682641871979 4149.911764705882 783.5277451200283 4128.970588235294 783.7165926175173 4108.029411764706 725.0579859810713 4087.0882352941176 723.964272691857 4066.1470588235293 722.9963838923263 4045.2058823529414 722.2500058248895 4024.264705882353 721.3672257636031 4003.323529411765 716.1347668638947 3982.3823529411766 714.9315603533947 3961.4411764705883 714.226459280052 3940.5 714.4105060971157 3919.5588235294117 713.9589728279007 3898.6176470588234 713.4392482120827 3877.676470588235 712.9526784937428 3856.735294117647 712.3235713382509 3835.7941176470586 712.0748666907585 3814.8529411764707 711.7892867662207 3793.9117647058824 711.2928421961317 3772.970588235294 710.6616144923173 3752.029411764706 710.307171035662 3731.0882352941176 710.0229260904226 3710.1470588235293 709.5011500172373 3689.205882352941 708.8529728655324 3668.264705882353 708.5111643371398 3647.323529411765 707.6773439344757 3626.3823529411766 706.7867985338357 3605.4411764705883 705.8245723100855 3584.5 704.5432324401569 3563.5588235294117 703.4985064623488 3542.6176470588234 704.569443136712 3521.676470588235 703.1605263419694 3500.735294117647 701.7580858411745 3479.794117647059 700.4865286297146 3458.8529411764707 707.5245129827832 3437.9117647058824 729.2395570213952 3416.970588235294 728.9340901988301 3396.029411764706 728.9473274759466 3375.0882352941176 728.5904699830792 3354.1470588235293 728.3059690780326 3333.205882352941 728.4979453773899 3312.264705882353 728.9075512947094 3291.323529411765 754.11838558625 3270.3823529411766 754.1757001008984 3249.4411764705883 753.4791239997355 3228.5 753.4656820270931 3228.5 1038Z" fill="#e62d39" opacity="0.9" />
		</g>
		<g>
			<path d="M3228.5 753.4656820270931 3249.4411764705883 753.4791239997355 3270.3823529411766 754.1757001008984 3291.323529411765 754.11838558625 3312.264705882353 728.9075512947094 3333.205882352941 728.4979453773899 3354.1470588235293 728.3059690780326 3375.0882352941176 728.5904699830792 3396.029411764706 728.9473274759466 3416.970588235294 728.9340901988301 3437.9117647058824 729.2395570213952 3458.8529411764707 707.5245129827832 3479.794117647059 700.4865286297146 3500.735294117647 701.7580858411745 3521.676470588235 703.1605263419694 3542.6176470588234 704.569443136712 3563.5588235294117 703.4985064623488 3584.5 704.5432324401569 3605.4411764705883 705.8245723100855 3626.3823529411766 706.7867985338357 3647.323529411765 707.6773439344757 3668.264705882353 708.5111643371398 3689.205882352941 708.8529728655324 3710.1470588235293 709.5011500172373 3731.0882352941176 710.0229260904226 3752.029411764706 710.307171035662 3772.970588235294 710.6616144923173 3793.9117647058824 711.2928421961317 3814.8529411764707 711.7892867662207 3835.7941176470586 712.0748666907585 3856.735294117647 712.3235713382509 3877.676470588235 712.9526784937428 3898.6176470588234 713.4392482120827 3919.5588235294117 713.9589728279007 3940.5 714.4105060971157 3961.4411764705883 714.226459280052 3982.3823529411766 714.9315603533947 4003.323529411765 716.1347668638947 4024.264705882353 721.3672257636031 4045.2058823529414 722.2500058248895 4066.1470588235293 722.9963838923263 4087.0882352941176 723.964272691857 4108.029411764706 725.0579859810713 4128.970588235294 783.7165926175173 4149.911764705882 783.5277451200283 4170.85294117647 783.1682641871979 4191.794117647059 782.6753667196651 4212.735294117647 782.5276373365637 4233.676470588235 782.9000115015447 4254.617647058823 783.0871417282395 4275.558823529412 783.1097274823168 4296.5 783.2922413061176 4296.5 531.5084515547419 4275.558823529412 531.1868422316874 4254.617647058823 530.9096071067931 4233.676470588235 530.6457625647856 4212.735294117647 530.2115588422516 4191.794117647059 530.3749323864379 4170.85294117647 530.816371903653 4149.911764705882 531.5387166599613 4128.970588235294 532.190445140906 4108.029411764706 526.5102482737155 4087.0882352941176 525.3174753042879 4066.1470588235293 524.2802845879517 4045.2058823529414 523.1294380044525 4024.264705882353 521.8575691422009 4003.323529411765 514.1116307261946 3982.3823529411766 512.993987230213 3961.4411764705883 512.1677115640608 3940.5 502.45546819630397 3919.5588235294117 501.879791216212 3898.6176470588234 501.40460916879545 3877.676470588235 500.8004852626943 3856.735294117647 499.8853489758172 3835.7941176470586 498.7859305783681 3814.8529411764707 497.70686325871344 3793.9117647058824 496.45662763490196 3772.970588235294 495.1622009511958 3752.029411764706 493.8933367325633 3731.0882352941176 492.86935877863715 3710.1470588235293 492.0646789770611 3689.205882352941 491.29504574396447 3668.264705882353 490.57523501016317 3647.323529411765 490.03332941523763 3626.3823529411766 489.72310243427995 3605.4411764705883 489.48234403066954 3584.5 489.1962201731323 3563.5588235294117 488.9387742360814 3542.6176470588234 492.7506429578374 3521.676470588235 492.8155417521196 3500.735294117647 493.0157563584153 3479.794117647059 493.39321289046876 3458.8529411764707 506.9149616199791 3437.9117647058824 511.364965996509 3416.970588235294 511.2846481599944 3396.029411764706 510.42831690773556 3375.0882352941176 509.62004963115277 3354.1470588235293 508.7614604393337 3333.205882352941 509.353058075723 3312.264705882353 509.9096403086422 3291.323529411765 502.9834202621783 3270.3823529411766 503.00137208677626 3249.4411764705883 501.7071993293339 3228.5 501.42221970119 3228.5 753.4656820270931Z" fill="#005aa6" opacity="0.9" />
		</g>
		<g>
			<path d="M3228.5 501.42221970119 3249.4411764705883 501.7071993293339 3270.3823529411766 503.00137208677626 3291.323529411765 502.9834202621783 3312.264705882353 509.9096403086422 3333.205882352941 509.353058075723 3354.1470588235293 508.7614604393337 3375.0882352941176 509.62004963115277 3396.029411764706 510.42831690773556 3416.970588235294 511.2846481599944 3437.9117647058824 511.364965996509 3458.8529411764707 506.9149616199791 3479.794117647059 493.39321289046876 3500.735294117647 493.0157563584153 3521.676470588235 492.8155417521196 3542.6176470588234 492.7506429578374 3563.5588235294117 488.9387742360814 3584.5 489.1962201731323 3605.4411764705883 489.48234403066954 3626.3823529411766 489.72310243427995 3647.323529411765 490.03332941523763 3668.264705882353 490.57523501016317 3689.205882352941 491.29504574396447 3710.1470588235293 492.0646789770611 3731.0882352941176 492.86935877863715 3752.029411764706 493.8933367325633 3772.970588235294 495.1622009511958 3793.9117647058824 496.45662763490196 3814.8529411764707 497.70686325871344 3835.7941176470586 498.7859305783681 3856.735294117647 499.8853489758172 3877.676470588235 500.8004852626943 3898.6176470588234 501.40460916879545 3919.5588235294117 501.879791216212 3940.5 502.45546819630397 3961.4411764705883 512.1677115640608 3982.3823529411766 512.993987230213 4003.323529411765 514.1116307261946 4024.264705882353 521.8575691422009 4045.2058823529414 523.1294380044525 4066.1470588235293 524.2802845879517 4087.0882352941176 525.3174753042879 4108.029411764706 526.5102482737155 4128.970588235294 532.190445140906 4149.911764705882 531.5387166599613 4170.85294117647 530.816371903653 4191.794117647059 530.3749323864379 4212.735294117647 530.2115588422516 4233.676470588235 530.6457625647856 4254.617647058823 530.9096071067931 4275.558823529412 531.1868422316874 4296.5 531.5084515547419 4296.5 487.70292525839443 4275.558823529412 487.3692026626984 4254.617647058823 487.10721609649056 4233.676470588235 486.9097754632236 4212.735294117647 486.6466810104104 4191.794117647059 486.8253712667305 4170.85294117647 487.1725552495906 4149.911764705882 487.81344975744275 4128.970588235294 488.4006750879141 4108.029411764706 478.7456085402515 4087.0882352941176 477.4222196163745 4066.1470588235293 476.2604646154135 4045.2058823529414 475.0060216232253 4024.264705882353 473.64144749214375 4003.323529411765 473.2844498106347 3982.3823529411766 472.05917492318713 3961.4411764705883 471.07663748656995 3940.5 461.2408535917636 3919.5588235294117 460.48443100573536 3898.6176470588234 459.76604736337003 3877.676470588235 458.9777407221724 3856.735294117647 457.90939966851295 3835.7941176470586 456.65452296321746 3814.8529411764707 455.36215838852235 3793.9117647058824 453.9844912065713 3772.970588235294 452.5053589477677 3752.029411764706 451.07476537844235 3731.0882352941176 449.87375657582817 3710.1470588235293 448.9328850656446 3689.205882352941 448.0557909288758 3668.264705882353 447.2525039284088 3647.323529411765 446.6761477523823 3626.3823529411766 446.4456437459776 3605.4411764705883 446.28136252321144 3584.5 446.10487752564853 3563.5588235294117 445.9636538385128 3542.6176470588234 450.12178949359264 3521.676470588235 450.19759580620007 3500.735294117647 450.31641232434566 3479.794117647059 450.53485482006914 3458.8529411764707 465.04034483521883 3437.9117647058824 466.06050698928533 3416.970588235294 466.040310950835 3396.029411764706 465.54550807778793 3375.0882352941176 465.0596958871918 3354.1470588235293 464.56231790755743 3333.205882352941 464.9559197775319 3312.264705882353 465.35219027138237 3291.323529411765 461.61567429168343 3270.3823529411766 461.61568788936546 3249.4411764705883 459.82950021460965 3228.5 460.450441231452 3228.5 501.42221970119Z" fill="#55c0e9" opacity="0.9" />
		</g>
		<g>
			<path d="M3228.5 460.450441231452 3249.4411764705883 459.82950021460965 3270.3823529411766 461.61568788936546 3291.323529411765 461.61567429168343 3312.264705882353 465.35219027138237 3333.205882352941 464.9559197775319 3354.1470588235293 464.56231790755743 3375.0882352941176 465.0596958871918 3396.029411764706 465.54550807778793 3416.970588235294 466.040310950835 3437.9117647058824 466.06050698928533 3458.8529411764707 465.04034483521883 3479.794117647059 450.53485482006914 3500.735294117647 450.31641232434566 3521.676470588235 450.19759580620007 3542.6176470588234 450.12178949359264 3563.5588235294117 445.9636538385128 3584.5 446.10487752564853 3605.4411764705883 446.28136252321144 3626.3823529411766 446.4456437459776 3647.323529411765 446.6761477523823 3668.264705882353 447.2525039284088 3689.205882352941 448.0557909288758 3710.1470588235293 448.9328850656446 3731.0882352941176 449.87375657582817 3752.029411764706 451.07476537844235 3772.970588235294 452.5053589477677 3793.9117647058824 453.9844912065713 3814.8529411764707 455.36215838852235 3835.7941176470586 456.65452296321746 3856.735294117647 457.90939966851295 3877.676470588235 458.9777407221724 3898.6176470588234 459.76604736337003 3919.5588235294117 460.48443100573536 3940.5 461.2408535917636 3961.4411764705883 471.07663748656995 3982.3823529411766 472.05917492318713 4003.323529411765 473.2844498106347 4024.264705882353 473.64144749214375 4045.2058823529414 475.0060216232253 4066.1470588235293 476.2604646154135 4087.0882352941176 477.4222196163745 4108.029411764706 478.7456085402515 4128.970588235294 488.4006750879141 4149.911764705882 487.81344975744275 4170.85294117647 487.1725552495906 4191.794117647059 486.8253712667305 4212.735294117647 486.6466810104104 4233.676470588235 486.9097754632236 4254.617647058823 487.10721609649056 4275.558823529412 487.3692026626984 4296.5 487.70292525839443 4296.5 475.17281446854633 4275.558823529412 474.89392113663916 4254.617647058823 474.6976120214667 4233.676470588235 474.5506870011159 4212.735294117647 474.3398551157786 4191.794117647059 474.4972746166898 4170.85294117647 474.8032929443811 4149.911764705882 475.42643040944677 4128.970588235294 475.9837074966003 4108.029411764706 466.53633469676566 4087.0882352941176 465.2033179049321 4066.1470588235293 464.0399484926056 4045.2058823529414 462.7794187905808 4024.264705882353 461.40786834513193 4003.323529411765 460.8843773665021 3982.3823529411766 459.6546822545587 3961.4411764705883 458.6559421000703 3940.5 448.8413613772234 3919.5588235294117 448.0810719550874 3898.6176470588234 447.3247116817817 3877.676470588235 446.5310952275203 3856.735294117647 445.4598876638521 3835.7941176470586 444.211812869573 3814.8529411764707 442.9104603532568 3793.9117647058824 441.5224522868679 3772.970588235294 440.02872439510173 3752.029411764706 438.5911754273753 3731.0882352941176 437.36935007449506 3710.1470588235293 436.4113820386986 3689.205882352941 435.5243027869889 3668.264705882353 434.7122259498071 3647.323529411765 434.13110745861906 3626.3823529411766 433.9141397981283 3605.4411764705883 433.7506297603656 3584.5 433.55919918545516 3563.5588235294117 433.40054840431145 3542.6176470588234 437.6127108681739 3521.676470588235 437.66723491500807 3500.735294117647 437.73656952866384 3479.794117647059 437.87360524960343 3458.8529411764707 452.6366317106452 3437.9117647058824 450.90613014226784 3416.970588235294 450.8850550677488 3396.029411764706 450.4868239386605 3375.0882352941176 450.086582389552 3354.1470588235293 449.68019116783887 3333.205882352941 449.97158494345933 3312.264705882353 450.2601617230179 3291.323529411765 447.4043899537403 3270.3823529411766 447.3983203480143 3249.4411764705883 445.3845841013251 3228.5 445.8199610630829 3228.5 460.450441231452Z" fill="#f6a118" opacity="0.9" />
		</g>
		<g>
			<path d="M3228.5 445.8199610630829 3249.4411764705883 445.3845841013251 3270.3823529411766 447.3983203480143 3291.323529411765 447.4043899537403 3312.264705882353 450.2601617230179 3333.205882352941 449.97158494345933 3354.1470588235293 449.68019116783887 3375.0882352941176 450.086582389552 3396.029411764706 450.4868239386605 3416.970588235294 450.8850550677488 3437.9117647058824 450.90613014226784 3458.8529411764707 452.6366317106452 3479.794117647059 437.87360524960343 3500.735294117647 437.73656952866384 3521.676470588235 437.66723491500807 3542.6176470588234 437.6127108681739 3563.5588235294117 433.40054840431145 3584.5 433.55919918545516 3605.4411764705883 433.7506297603656 3626.3823529411766 433.9141397981283 3647.323529411765 434.13110745861906 3668.264705882353 434.7122259498071 3689.205882352941 435.5243027869889 3710.1470588235293 436.4113820386986 3731.0882352941176 437.36935007449506 3752.029411764706 438.5911754273753 3772.970588235294 440.02872439510173 3793.9117647058824 441.5224522868679 3814.8529411764707 442.9104603532568 3835.7941176470586 444.211812869573 3856.735294117647 445.4598876638521 3877.676470588235 446.5310952275203 3898.6176470588234 447.3247116817817 3919.5588235294117 448.0810719550874 3940.5 448.8413613772234 3961.4411764705883 458.6559421000703 3982.3823529411766 459.6546822545587 4003.323529411765 460.8843773665021 4024.264705882353 461.40786834513193 4045.2058823529414 462.7794187905808 4066.1470588235293 464.0399484926056 4087.0882352941176 465.2033179049321 4108.029411764706 466.53633469676566 4128.970588235294 475.9837074966003 4149.911764705882 475.42643040944677 4170.85294117647 474.8032929443811 4191.794117647059 474.4972746166898 4212.735294117647 474.3398551157786 4233.676470588235 474.5506870011159 4254.617647058823 474.6976120214667 4275.558823529412 474.89392113663916 4296.5 475.17281446854633 4296.5 469.43106409076864 4275.558823529412 469.15262240928087 4254.617647058823 468.95702207661526 4233.676470588235 468.84734356461763 4212.735294117647 468.7350335488471 4191.794117647059 468.9078882196251 4170.85294117647 469.2079498249524 4149.911764705882 469.81130033797666 4128.970588235294 470.38342727342314 4108.029411764706 461.2444339081057 4087.0882352941176 459.946755992067 4066.1470588235293 458.8077681755944 4045.2058823529414 457.5593223229012 4024.264705882353 456.2181048338814 4003.323529411765 455.6431947463817 3982.3823529411766 454.47972281760985 3961.4411764705883 453.4905215300467 3940.5 443.69596259487105 3919.5588235294117 442.9470560831334 3898.6176470588234 442.18952771113993 3877.676470588235 441.4102737359516 3856.735294117647 440.35943056582056 3835.7941176470586 439.1354625729624 3814.8529411764707 437.84119270046506 3793.9117647058824 436.45931716608146 3772.970588235294 434.9725271047773 3752.029411764706 433.5415615660502 3731.0882352941176 432.3203932157333 3710.1470588235293 431.3782566408658 3689.205882352941 430.5117297264795 3668.264705882353 429.7249311165208 3647.323529411765 429.1613894967009 3626.3823529411766 428.96097997032933 3605.4411764705883 428.8105160166967 3584.5 428.64236977976526 3563.5588235294117 428.50399955057856 3542.6176470588234 432.7535502158639 3521.676470588235 432.80627389640455 3500.735294117647 432.8676017835308 3479.794117647059 432.98806566692065 3458.8529411764707 447.8607653758795 3437.9117647058824 445.04971196915034 3416.970588235294 445.0840675736475 3396.029411764706 444.7823876121957 3375.0882352941176 444.47619554519974 3354.1470588235293 444.146022913635 3333.205882352941 444.4117939256318 3312.264705882353 444.6840228236209 3291.323529411765 442.25084027575355 3270.3823529411766 442.3504661409793 3249.4411764705883 442.53952888382247 3228.5 442.9800177196567 3228.5 445.8199610630829Z" fill="#fdd5a4" opacity="0.9" />
		</g>
		<g>
			<path d="M3228.5 442.9800177196567 3249.4411764705883 442.53952888382247 3270.3823529411766 442.3504661409793 3291.323529411765 442.25084027575355 3312.264705882353 444.6840228236209 3333.205882352941 444.4117939256318 3354.1470588235293 444.146022913635 3375.0882352941176 444.47619554519974 3396.029411764706 444.7823876121957 3416.970588235294 445.0840675736475 3437.9117647058824 445.04971196915034 3458.8529411764707 447.8607653758795 3479.794117647059 432.98806566692065 3500.735294117647 432.8676017835308 3521.676470588235 432.80627389640455 3542.6176470588234 432.7535502158639 3563.5588235294117 428.50399955057856 3584.5 428.64236977976526 3605.4411764705883 428.8105160166967 3626.3823529411766 428.96097997032933 3647.323529411765 429.1613894967009 3668.264705882353 429.7249311165208 3689.205882352941 430.5117297264795 3710.1470588235293 431.3782566408658 3731.0882352941176 432.3203932157333 3752.029411764706 433.5415615660502 3772.970588235294 434.9725271047773 3793.9117647058824 436.45931716608146 3814.8529411764707 437.84119270046506 3835.7941176470586 439.1354625729624 3856.735294117647 440.35943056582056 3877.676470588235 441.4102737359516 3898.6176470588234 442.18952771113993 3919.5588235294117 442.9470560831334 3940.5 443.69596259487105 3961.4411764705883 453.4905215300467 3982.3823529411766 454.47972281760985 4003.323529411765 455.6431947463817 4024.264705882353 456.2181048338814 4045.2058823529414 457.5593223229012 4066.1470588235293 458.8077681755944 4087.0882352941176 459.946755992067 4108.029411764706 461.2444339081057 4128.970588235294 470.38342727342314 4149.911764705882 469.81130033797666 4170.85294117647 469.2079498249524 4191.794117647059 468.9078882196251 4212.735294117647 468.7350335488471 4233.676470588235 468.84734356461763 4254.617647058823 468.95702207661526 4275.558823529412 469.15262240928087 4296.5 469.43106409076864 4296.5 464.7567393127636 4275.558823529412 464.5132259653092 4254.617647058823 464.3461599383072 4233.676470588235 464.26375937292056 4212.735294117647 464.2122032971037 4191.794117647059 464.3963627005436 4170.85294117647 464.69518296460524 4149.911764705882 465.29095095509365 4128.970588235294 465.86857631542375 4108.029411764706 457.9426597886813 4087.0882352941176 456.6504617863283 4066.1470588235293 455.5173638999522 4045.2058823529414 454.27397669951574 4024.264705882353 452.9422128623981 4003.323529411765 452.3392658302522 3982.3823529411766 451.1914920386467 3961.4411764705883 450.1807388631146 3940.5 440.3988808972397 3919.5588235294117 439.6628015961259 3898.6176470588234 438.90968576505173 3877.676470588235 438.1368838719703 3856.735294117647 437.09878380068074 3835.7941176470586 435.88818645509696 3814.8529411764707 434.59694513524136 3793.9117647058824 433.22158409139143 3772.970588235294 431.7348695488416 3752.029411764706 430.30784750779037 3731.0882352941176 429.09159001631633 3710.1470588235293 428.1595197737724 3689.205882352941 427.30225741502903 3668.264705882353 426.52676679830296 3647.323529411765 425.97200661481094 3626.3823529411766 425.7866796521752 3605.4411764705883 425.65149111446993 3584.5 425.49532897112516 3563.5588235294117 425.3719419226974 3542.6176470588234 429.64793603777895 3521.676470588235 429.7004140998976 3500.735294117647 429.76313464334123 3479.794117647059 429.88054742773767 3458.8529411764707 444.82124955246854 3437.9117647058824 441.7030292243726 3416.970588235294 441.7535822416807 3396.029411764706 441.49228637208546 3375.0882352941176 441.22475501262005 3354.1470588235293 440.9301919465814 3333.205882352941 441.18998724924035 3312.264705882353 441.4614784607988 3291.323529411765 438.541557440145 3270.3823529411766 438.64340053541537 3249.4411764705883 439.0626692950935 3228.5 439.5322445329365 3228.5 442.9800177196567Z" fill="#f48c7d" opacity="0.9" />
		</g>
		<g>
			<path d="M3228.5 439.5322445329365 3249.4411764705883 439.0626692950935 3270.3823529411766 438.64340053541537 3291.323529411765 438.541557440145 3312.264705882353 441.4614784607988 3333.205882352941 441.18998724924035 3354.1470588235293 440.9301919465814 3375.0882352941176 441.22475501262005 3396.029411764706 441.49228637208546 3416.970588235294 441.7535822416807 3437.9117647058824 441.7030292243726 3458.8529411764707 444.82124955246854 3479.794117647059 429.88054742773767 3500.735294117647 429.76313464334123 3521.676470588235 429.7004140998976 3542.6176470588234 429.64793603777895 3563.5588235294117 425.3719419226974 3584.5 425.49532897112516 3605.4411764705883 425.65149111446993 3626.3823529411766 425.7866796521752 3647.323529411765 425.97200661481094 3668.264705882353 426.52676679830296 3689.205882352941 427.30225741502903 3710.1470588235293 428.1595197737724 3731.0882352941176 429.09159001631633 3752.029411764706 430.30784750779037 3772.970588235294 431.7348695488416 3793.9117647058824 433.22158409139143 3814.8529411764707 434.59694513524136 3835.7941176470586 435.88818645509696 3856.735294117647 437.09878380068074 3877.676470588235 438.1368838719703 3898.6176470588234 438.90968576505173 3919.5588235294117 439.6628015961259 3940.5 440.3988808972397 3961.4411764705883 450.1807388631146 3982.3823529411766 451.1914920386467 4003.323529411765 452.3392658302522 4024.264705882353 452.9422128623981 4045.2058823529414 454.27397669951574 4066.1470588235293 455.5173638999522 4087.0882352941176 456.6504617863283 4108.029411764706 457.9426597886813 4128.970588235294 465.86857631542375 4149.911764705882 465.29095095509365 4170.85294117647 464.69518296460524 4191.794117647059 464.3963627005436 4212.735294117647 464.2122032971037 4233.676470588235 464.26375937292056 4254.617647058823 464.3461599383072 4275.558823529412 464.5132259653092 4296.5 464.7567393127636 4296.5 397.99999999999983 4275.558823529412 397.9999999999999 4254.617647058823 397.99999999999994 4233.676470588235 397.9999999999999 4212.735294117647 397.9999999999999 4191.794117647059 397.99999999999994 4170.85294117647 398 4149.911764705882 397.99999999999994 4128.970588235294 398 4108.029411764706 397.9999999999999 4087.0882352941176 397.9999999999999 4066.1470588235293 397.9999999999998 4045.2058823529414 398 4024.264705882353 398 4003.323529411765 398.00000000000006 3982.3823529411766 398.0000000000002 3961.4411764705883 398 3940.5 397.99999999999994 3919.5588235294117 398 3898.6176470588234 398.0000000000001 3877.676470588235 398.00000000000006 3856.735294117647 397.99999999999994 3835.7941176470586 397.99999999999994 3814.8529411764707 398.00000000000006 3793.9117647058824 397.99999999999994 3772.970588235294 398.00000000000017 3752.029411764706 397.99999999999994 3731.0882352941176 397.99999999999994 3710.1470588235293 398 3689.205882352941 398 3668.264705882353 398.00000000000017 3647.323529411765 398 3626.3823529411766 398.00000000000006 3605.4411764705883 397.9999999999999 3584.5 398 3563.5588235294117 397.99999999999994 3542.6176470588234 398.00000000000006 3521.676470588235 398.0000000000001 3500.735294117647 398.00000000000006 3479.794117647059 398.00000000000006 3458.8529411764707 398.0000000000001 3437.9117647058824 398.0000000000001 3416.970588235294 398 3396.029411764706 398 3375.0882352941176 397.99999999999994 3354.1470588235293 397.9999999999999 3333.205882352941 398.0000000000001 3312.264705882353 397.99999999999994 3291.323529411765 398 3270.3823529411766 397.99999999999994 3249.4411764705883 398.00000000000006 3228.5 398 3228.5 439.5322445329365Z" fill="#393d41" opacity="0.9" />
		</g>
		<g>
			<rect x="4372" y="431" width="22.9995" height="23" fill="#e62d39" />
		</g>
		<g>
			<text fill="#595959" font-family="Verdana,sans-serif" font-weight="400" font-size="41" transform="matrix(1 0 0 1 4404.56 454)">iOS</text>
		</g>
		<g>
			<rect x="4372" y="508" width="22.9995" height="23" fill="#005aa6" />
		</g>
		<g>
			<text fill="#595959" font-family="Verdana,sans-serif" font-weight="400" font-size="41" transform="matrix(1 0 0 1 4404.56 531)">Android</text>
		</g>
		<g>
			<rect x="4372" y="585" width="22.9995" height="23" fill="#55c0e9" />
		</g>
		<g>
			<text fill="#595959" font-family="Verdana,sans-serif" font-weight="400" font-size="41" transform="matrix(1 0 0 1 4404.56 608)">Windows</text>
		</g>
		<g>
			<rect x="4372" y="662" width="22.9995" height="23" fill="#f6a118" />
		</g>
		<g>
			<text fill="#595959" font-family="Verdana,sans-serif" font-weight="400" font-size="41" transform="matrix(1 0 0 1 4404.56 685)">macOS</text>
		</g>
		<g>
			<rect x="4372" y="739" width="22.9995" height="23" fill="#fdd5a4" />
		</g>
		<g>
			<text fill="#595959" font-family="Verdana,sans-serif" font-weight="400" font-size="41" transform="matrix(1 0 0 1 4404.56 762)">Other</text>
		</g>
		<g>
			<rect x="4372" y="816" width="22.9995" height="23" fill="#f48c7d" />
		</g>
		<g>
			<text fill="#595959" font-family="Verdana,sans-serif" font-weight="400" font-size="41" transform="matrix(1 0 0 1 4404.56 839)">Linux</text>
		</g>
		<g>
			<rect x="4372" y="893" width="22.9995" height="23" fill="#393d41" />
		</g>
		<g>
			<text fill="#595959" font-family="Verdana,sans-serif" font-weight="400" font-size="41" transform="matrix(1 0 0 1 4404.56 916)">Unclassified</text>
		</g>
	</g>
</svg>
