<svg width="1763" height="1046"
    xmlns="http://www.w3.org/2000/svg"
	xmlns:xlink="http://www.w3.org/1999/xlink" xml:space="preserve" overflow="hidden">
	<defs>
		<clipPath id="clip0">
			<rect x="2917" y="346" width="1763" height="1046"/>
		</clipPath>
	</defs>
	<g clip-path="url(#clip0)" transform="translate(-2917 -346)">
		<rect x="2918" y="347" width="1760" height="1043" fill="#FFFFFF" />
		<g>
			<path d="
			M3228.5 974.532 4296.5 974.532
			M3228.5 910.53 4296.5 910.53
			M3228.5 846.528 4296.5 846.528
			M3228.5 781.526 4296.5 781.526
			M3228.5 717.524 4296.5 717.524
			M3228.5 653.522 4296.5 653.522
			M3228.5 589.52 4296.5 589.52
			M3228.5 525.517 4296.5 525.517
			M3228.5 461.515 4296.5 461.515
			M3228.5 397.5 4296.5 397.5" stroke="#D9D9D9" stroke-width="3.4375" stroke-linejoin="round" stroke-miterlimit="10" fill="none" />
		</g>
		<g>
			<path d="M 1038.5 4296.5 1038.5" stroke="#D9D9D9" stroke-width="3.4375" stroke-linejoin="round" stroke-miterlimit="10" fill="none" fill-rule="evenodd" />
		</g>
		<g>
			<text fill="#595959" font-family="Verdana,Open Sans,DejaVu Sans,sans-serif" font-weight="400" font-size="41" transform="matrix(6.12323e-17 -1 1 6.12323e-17 3244.275390625 1201.3203125)">10-Feb</text>
		</g>
		<g>
			<text fill="#595959" font-family="Verdana,Open Sans,DejaVu Sans,sans-serif" font-weight="400" font-size="41" transform="matrix(6.12323e-17 -1 1 6.12323e-17 3329.004697265625 1210.2890625)">10-Mar</text>
		</g>
		<g>
			<text fill="#595959" font-family="Verdana,Open Sans,DejaVu Sans,sans-serif" font-weight="400" font-size="41" transform="matrix(6.12323e-17 -1 1 6.12323e-17 3419.169306640625 1203.2621994018555)">07-Apr</text>
		</g>
		<g>
			<text fill="#595959" font-family="Verdana,Open Sans,DejaVu Sans,sans-serif" font-weight="400" font-size="41" transform="matrix(6.12323e-17 -1 1 6.12323e-17 3504.609306640625 1216.47509765625)">05-May</text>
		</g>
		<g>
			<text fill="#595959" font-family="Verdana,Open Sans,DejaVu Sans,sans-serif" font-weight="400" font-size="41" transform="matrix(6.12323e-17 -1 1 6.12323e-17 3588.97826171875 1194.0131759643555)">09-Jun</text>
		</g>
		<g>
			<text fill="#595959" font-family="Verdana,Open Sans,DejaVu Sans,sans-serif" font-weight="400" font-size="41" transform="matrix(6.12323e-17 -1 1 6.12323e-17 3675.128955078125 1178.9985275268555)">07-Jul</text>
		</g>
		<g>
			<text fill="#595959" font-family="Verdana,Open Sans,DejaVu Sans,sans-serif" font-weight="400" font-size="41" transform="matrix(6.12323e-17 -1 1 6.12323e-17 3760.929306640625 1208.62744140625)">04-Aug</text>
		</g>
		<g>
			<text fill="#595959" font-family="Verdana,Open Sans,DejaVu Sans,sans-serif" font-weight="400" font-size="41" transform="matrix(6.12323e-17 -1 1 6.12323e-17 3846.369306640625 1204.38330078125)">01-Sep</text>
		</g>
		<g>
			<text fill="#595959" font-family="Verdana,Open Sans,DejaVu Sans,sans-serif" font-weight="400" font-size="41" transform="matrix(6.12323e-17 -1 1 6.12323e-17 3931.789287109375 1204.42333984375)">29-Sep</text>
		</g>
		<g>
			<text fill="#595959" font-family="Verdana,Open Sans,DejaVu Sans,sans-serif" font-weight="400" font-size="41" transform="matrix(6.12323e-17 -1 1 6.12323e-17 4012.524697265625 1201.1401290893555)">27-Oct</text>
		</g>
		<g>
			<text fill="#595959" font-family="Verdana,Open Sans,DejaVu Sans,sans-serif" font-weight="400" font-size="41" transform="matrix(6.12323e-17 -1 1 6.12323e-17 4097.944677734375 1211.47021484375)">24-Nov</text>
		</g>
		<g>
			<text fill="#595959" font-family="Verdana,Open Sans,DejaVu Sans,sans-serif" font-weight="400" font-size="41" transform="matrix(6.12323e-17 -1 1 6.12323e-17 4183.384677734375 1207.1259765625)">22-Dec</text>
		</g>
		<g>
			<text fill="#595959" font-family="Verdana,Open Sans,DejaVu Sans,sans-serif" font-weight="400" font-size="41" transform="matrix(6.12323e-17 -1 1 6.12323e-17 4272.4782421875 1189.9291915893555)">19-Jan</text>
		</g>
		<g>
			<text fill="#595959" font-family="Verdana,Open Sans,DejaVu Sans,sans-serif" font-weight="400" font-size="41" transform="matrix(1 0 0 1 3135.4482421875 1050)">0%</text>
		</g>
		<g>
			<text fill="#595959" font-family="Verdana,Open Sans,DejaVu Sans,sans-serif" font-weight="400" font-size="41" transform="matrix(1 0 0 1 3111.96533203125 922)">20%</text>
		</g>
		<g>
			<text fill="#595959" font-family="Verdana,Open Sans,DejaVu Sans,sans-serif" font-weight="400" font-size="41" transform="matrix(1 0 0 1 3110.82421875 794)">40%</text>
		</g>
		<g>
			<text fill="#595959" font-family="Verdana,Open Sans,DejaVu Sans,sans-serif" font-weight="400" font-size="41" transform="matrix(1 0 0 1 3112.3056640625 666)">60%</text>
		</g>
		<g>
			<text fill="#595959" font-family="Verdana,Open Sans,DejaVu Sans,sans-serif" font-weight="400" font-size="41" transform="matrix(1 0 0 1 3112.04541015625 538)">80%</text>
		</g>
		<g>
			<text fill="#595959" font-family="Verdana,Open Sans,DejaVu Sans,sans-serif" font-weight="400" font-size="41" transform="matrix(1 0 0 1 3090.2841796875 410)">100%</text>
		</g>
		<g>
			<text fill="#595959" font-family="Verdana,Open Sans,DejaVu Sans,sans-serif" font-weight="400" font-size="41" transform="matrix(1 0 0 1 3556.97119140625 1321)">Week Commencing</text>
		</g>
		<g>
			<text fill="#595959" font-family="Verdana,Open Sans,DejaVu Sans,sans-serif" font-weight="400" font-size="46" transform="matrix(6.12323e-17 -1 1 6.12323e-17 3019.73 936.7665710449219)">Requests (% of Total)</text>
		</g>
		<rect x="2918.5" y="347.5" width="1760" height="1043" stroke="#D9D9D9" stroke-width="3.4375" stroke-linejoin="round" stroke-miterlimit="10" fill="none" />
		<g>
			<path d="M3228.5 1038 3249.86 1038 3271.22 1038 3292.58 1038 3313.94 1038 3335.3 1038 3356.66 1038 3378.02 1038 3399.38 1038 3420.74 1038 3442.1 1038 3463.46 1038 3484.82 1038 3506.18 1038 3527.54 1038 3548.9 1038 3570.26 1038 3591.62 1038 3612.98 1038 3634.34 1038 3655.7 1038 3677.06 1038 3698.42 1038 3719.7799999999997 1038 3741.14 1038 3762.5 1038 3783.86 1038 3805.2200000000003 1038 3826.58 1038 3847.94 1038 3869.3 1038 3890.66 1038 3912.02 1038 3933.38 1038 3954.74 1038 3976.1 1038 3997.46 1038 4018.8199999999997 1038 4040.18 1038 4061.54 1038 4082.9 1038 4104.26 1038 4125.62 1038 4146.98 1038 4168.34 1038 4189.7 1038 4211.0599999999995 1038 4232.42 1038 4253.78 1038 4275.139999999999 1038 4296.5 1038 4296.5 746.8242705611495 4275.139999999999 746.4260841443786 4253.78 746.1408324365968 4232.42 746.1086007114674 4211.0599999999995 746.7358843125422 4189.7 747.3561118905186 4168.34 749.7549747311173 4146.98 751.708180030847 4125.62 751.761881610288 4104.26 753.5875510114441 4082.9 760.0049069239963 4061.54 757.9113031477688 4040.18 759.380873288005 4018.8199999999997 764.3156850172985 3997.46 764.3768419479462 3976.1 764.3547678374432 3954.74 764.4897401031296 3933.38 766.8609306167309 3912.02 766.8567475951404 3890.66 767.9192079463141 3869.3 768.908358113137 3847.94 771.7976640891548 3826.58 772.995900100849 3805.2200000000003 773.0047654751563 3783.86 774.0176159604634 3762.5 776.3680200175993 3741.14 776.3453368808368 3719.7799999999997 776.3465392709672 3698.42 776.3609674251002 3677.06 776.5119637903555 3655.7 778.9439765467624 3634.34 785.3332769215773 3612.98 785.3813296257167 3591.62 786.9316254516905 3570.26 788.064069053389 3548.9 789.5346539181728 3527.54 789.7270984819011 3506.18 789.5483223673614 3484.82 789.1007508003959 3463.46 788.5260313684701 3442.1 788.0511809237687 3420.74 787.8975793566815 3399.38 787.8180633391596 3378.02 787.5170102748218 3356.66 787.618537873506 3335.3 787.2996583717713 3313.94 786.777616251223 3292.58 786.3066035792257 3271.22 786.3287091523742 3249.86 786.0536469934276 3228.5 785.8291015970201 3228.5 1038Z" fill="#e62d39" opacity="0.9" />
		</g>
		<g>
			<path d="M3228.5 785.8291015970201 3249.86 786.0536469934276 3271.22 786.3287091523742 3292.58 786.3066035792257 3313.94 786.777616251223 3335.3 787.2996583717713 3356.66 787.618537873506 3378.02 787.5170102748218 3399.38 787.8180633391596 3420.74 787.8975793566815 3442.1 788.0511809237687 3463.46 788.5260313684701 3484.82 789.1007508003959 3506.18 789.5483223673614 3527.54 789.7270984819011 3548.9 789.5346539181728 3570.26 788.064069053389 3591.62 786.9316254516905 3612.98 785.3813296257167 3634.34 785.3332769215773 3655.7 778.9439765467624 3677.06 776.5119637903555 3698.42 776.3609674251002 3719.7799999999997 776.3465392709672 3741.14 776.3453368808368 3762.5 776.3680200175993 3783.86 774.0176159604634 3805.2200000000003 773.0047654751563 3826.58 772.995900100849 3847.94 771.7976640891548 3869.3 768.908358113137 3890.66 767.9192079463141 3912.02 766.8567475951404 3933.38 766.8609306167309 3954.74 764.4897401031296 3976.1 764.3547678374432 3997.46 764.3768419479462 4018.8199999999997 764.3156850172985 4040.18 759.380873288005 4061.54 757.9113031477688 4082.9 760.0049069239963 4104.26 753.5875510114441 4125.62 751.761881610288 4146.98 751.708180030847 4168.34 749.7549747311173 4189.7 747.3561118905186 4211.0599999999995 746.7358843125422 4232.42 746.1086007114674 4253.78 746.1408324365968 4275.139999999999 746.4260841443786 4296.5 746.8242705611495 4296.5 530.0318797750176 4275.139999999999 529.5742385244796 4253.78 529.1641691809261 4232.42 529.1689859268577 4211.0599999999995 529.2185804117662 4189.7 529.5448927766422 4168.34 529.3666745800084 4146.98 529.7448004770854 4125.62 529.7274153021705 4104.26 530.163015188101 4082.9 532.2645239373791 4061.54 531.3268574465264 4040.18 531.4166307781715 4018.8199999999997 531.7572224646864 3997.46 531.7708483166984 3976.1 531.8218985108718 3954.74 531.9849023445704 3933.38 531.7935729648713 3912.02 531.7864321784326 3890.66 531.5727707842481 3869.3 531.4390936505183 3847.94 532.2027211748189 3826.58 532.4711028871407 3805.2200000000003 532.4751666451237 3783.86 532.6424401194076 3762.5 532.3819588718641 3741.14 532.3762321494829 3719.7799999999997 532.3835012006392 3698.42 532.4008414612442 3677.06 531.9653947132791 3655.7 532.7065148297092 3634.34 534.1646402996798 3612.98 534.1813437994358 3591.62 534.0614406876781 3570.26 533.9651928337187 3548.9 533.7866116772315 3527.54 533.5868149898097 3506.18 533.4688532767087 3484.82 533.0768238550941 3463.46 532.663421242623 3442.1 532.2348192575948 3420.74 532.1820957819215 3399.38 532.3681470809754 3378.02 532.5201668090683 3356.66 532.4238251729188 3335.3 532.3835949473919 3313.94 531.9915975411402 3292.58 531.7252849940928 3271.22 531.7204662326122 3249.86 531.6284996533559 3228.5 531.5339960022333 3228.5 785.8291015970201Z" fill="#005aa6" opacity="0.9" />
		</g>
		<g>
			<path d="M3228.5 531.5339960022333 3249.86 531.6284996533559 3271.22 531.7204662326122 3292.58 531.7252849940928 3313.94 531.9915975411402 3335.3 532.3835949473919 3356.66 532.4238251729188 3378.02 532.5201668090683 3399.38 532.3681470809754 3420.74 532.1820957819215 3442.1 532.2348192575948 3463.46 532.663421242623 3484.82 533.0768238550941 3506.18 533.4688532767087 3527.54 533.5868149898097 3548.9 533.7866116772315 3570.26 533.9651928337187 3591.62 534.0614406876781 3612.98 534.1813437994358 3634.34 534.1646402996798 3655.7 532.7065148297092 3677.06 531.9653947132791 3698.42 532.4008414612442 3719.7799999999997 532.3835012006392 3741.14 532.3762321494829 3762.5 532.3819588718641 3783.86 532.6424401194076 3805.2200000000003 532.4751666451237 3826.58 532.4711028871407 3847.94 532.2027211748189 3869.3 531.4390936505183 3890.66 531.5727707842481 3912.02 531.7864321784326 3933.38 531.7935729648713 3954.74 531.9849023445704 3976.1 531.8218985108718 3997.46 531.7708483166984 4018.8199999999997 531.7572224646864 4040.18 531.4166307781715 4061.54 531.3268574465264 4082.9 532.2645239373791 4104.26 530.163015188101 4125.62 529.7274153021705 4146.98 529.7448004770854 4168.34 529.3666745800084 4189.7 529.5448927766422 4211.0599999999995 529.2185804117662 4232.42 529.1689859268577 4253.78 529.1641691809261 4275.139999999999 529.5742385244796 4296.5 530.0318797750176 4296.5 490.08709103844944 4275.139999999999 489.8264670604297 4253.78 489.6030568350501 4232.42 489.6027851684956 4211.0599999999995 489.6838400376917 4189.7 490.1068496342023 4168.34 490.9492704753914 4146.98 490.39407239534404 4125.62 490.3851968973204 4104.26 490.7185530259544 4082.9 492.30515321923616 4061.54 491.64116500384506 4040.18 491.78456573649515 4018.8199999999997 491.92955522350275 3997.46 491.93920435370626 3976.1 491.9768227136466 3954.74 492.1505952348429 3933.38 491.85600669794854 3912.02 491.8513930148632 3890.66 491.63219577145946 3869.3 491.4978977886208 3847.94 491.99009410225506 3826.58 492.16551794945576 3805.2200000000003 492.1686259707535 3783.86 492.21654806017045 3762.5 491.7116461371828 3741.14 491.70767780671554 3719.7799999999997 491.71346164432515 3698.42 491.7282826494978 3677.06 491.33050875804906 3655.7 491.76141449343754 3634.34 492.74242973299926 3612.98 492.75457857238825 3591.62 492.5918650008465 3570.26 492.35892132336346 3548.9 492.0889325160488 3527.54 491.69189364771574 3506.18 491.3732427741912 3484.82 490.8088740577118 3463.46 490.31149608874114 3442.1 489.77877115088484 3420.74 489.5616092932336 3399.38 489.5397849514939 3378.02 489.5595335703314 3356.66 489.2933239946325 3335.3 489.0834397469836 3313.94 488.66304187283265 3292.58 488.3428044802121 3271.22 488.19986039125524 3249.86 488.0196039547259 3228.5 487.9026766907719 3228.5 531.5339960022333Z" fill="#55c0e9" opacity="0.9" />
		</g>
		<g>
			<path d="M3228.5 487.9026766907719 3249.86 488.0196039547259 3271.22 488.19986039125524 3292.58 488.3428044802121 3313.94 488.66304187283265 3335.3 489.0834397469836 3356.66 489.2933239946325 3378.02 489.5595335703314 3399.38 489.5397849514939 3420.74 489.5616092932336 3442.1 489.77877115088484 3463.46 490.31149608874114 3484.82 490.8088740577118 3506.18 491.3732427741912 3527.54 491.69189364771574 3548.9 492.0889325160488 3570.26 492.35892132336346 3591.62 492.5918650008465 3612.98 492.75457857238825 3634.34 492.74242973299926 3655.7 491.76141449343754 3677.06 491.33050875804906 3698.42 491.7282826494978 3719.7799999999997 491.71346164432515 3741.14 491.70767780671554 3762.5 491.7116461371828 3783.86 492.21654806017045 3805.2200000000003 492.1686259707535 3826.58 492.16551794945576 3847.94 491.99009410225506 3869.3 491.4978977886208 3890.66 491.63219577145946 3912.02 491.8513930148632 3933.38 491.85600669794854 3954.74 492.1505952348429 3976.1 491.9768227136466 3997.46 491.93920435370626 4018.8199999999997 491.92955522350275 4040.18 491.78456573649515 4061.54 491.64116500384506 4082.9 492.30515321923616 4104.26 490.7185530259544 4125.62 490.3851968973204 4146.98 490.39407239534404 4168.34 490.9492704753914 4189.7 490.1068496342023 4211.0599999999995 489.6838400376917 4232.42 489.6027851684956 4253.78 489.6030568350501 4275.139999999999 489.8264670604297 4296.5 490.08709103844944 4296.5 478.5827424221303 4275.139999999999 478.38419566392514 4253.78 478.2713135439936 4232.42 478.26942714386075 4211.0599999999995 478.5099393463872 4189.7 478.7941392845137 4168.34 479.58006819193264 4146.98 479.10650501970053 4125.62 479.0999411202481 4104.26 479.4072866140748 4082.9 480.96640637284213 4061.54 480.2698842349475 4040.18 480.4907637351383 4018.8199999999997 480.4086170616429 3997.46 480.41676419469263 3976.1 480.45029730465194 3954.74 480.6272134139708 3933.38 480.40305013594224 3912.02 480.39917600110454 3890.66 480.2978208961403 3869.3 480.1378211447884 3847.94 480.4875119170523 3826.58 480.62062646338103 3805.2200000000003 480.623498410782 3783.86 480.6254558284506 3762.5 479.9434244465183 3741.14 479.939862628262 3719.7799999999997 479.94505960714844 3698.42 479.95902615881243 3677.06 479.5505692873087 3655.7 479.86304908787844 3634.34 480.59388216933854 3612.98 480.6043736648512 3591.62 480.3867647714376 3570.26 480.0939647438401 3548.9 479.7308663765565 3527.54 479.2808407307956 3506.18 478.9041807209399 3484.82 478.2910364979862 3463.46 477.7828333755948 3442.1 477.2431626623622 3420.74 476.9834739801712 3399.38 476.8973696844754 3378.02 476.8748020982269 3356.66 476.5669923893315 3335.3 476.3174497919625 3313.94 475.8998014736065 3292.58 475.5839065563437 3271.22 475.4761084872438 3249.86 475.3862262172437 3228.5 475.3370518496447 3228.5 487.9026766907719Z" fill="#f6a118" opacity="0.9" />
		</g>
		<g>
			<path d="M3228.5 475.3370518496447 3249.86 475.3862262172437 3271.22 475.4761084872438 3292.58 475.5839065563437 3313.94 475.8998014736065 3335.3 476.3174497919625 3356.66 476.5669923893315 3378.02 476.8748020982269 3399.38 476.8973696844754 3420.74 476.9834739801712 3442.1 477.2431626623622 3463.46 477.7828333755948 3484.82 478.2910364979862 3506.18 478.9041807209399 3527.54 479.2808407307956 3548.9 479.7308663765565 3570.26 480.0939647438401 3591.62 480.3867647714376 3612.98 480.6043736648512 3634.34 480.59388216933854 3655.7 479.86304908787844 3677.06 479.5505692873087 3698.42 479.95902615881243 3719.7799999999997 479.94505960714844 3741.14 479.939862628262 3762.5 479.9434244465183 3783.86 480.6254558284506 3805.2200000000003 480.623498410782 3826.58 480.62062646338103 3847.94 480.4875119170523 3869.3 480.1378211447884 3890.66 480.2978208961403 3912.02 480.39917600110454 3933.38 480.40305013594224 3954.74 480.6272134139708 3976.1 480.45029730465194 3997.46 480.41676419469263 4018.8199999999997 480.4086170616429 4040.18 480.4907637351383 4061.54 480.2698842349475 4082.9 480.96640637284213 4104.26 479.4072866140748 4125.62 479.0999411202481 4146.98 479.10650501970053 4168.34 479.58006819193264 4189.7 478.7941392845137 4211.0599999999995 478.5099393463872 4232.42 478.26942714386075 4253.78 478.2713135439936 4275.139999999999 478.38419566392514 4296.5 478.5827424221303 4296.5 474.28062031125177 4275.139999999999 474.09267029394687 4253.78 473.9897191134042 4232.42 473.9871807138114 4211.0599999999995 474.22541956826655 4189.7 474.511998002383 4168.34 475.27887736921514 4146.98 474.8518141039069 4125.62 474.8469015951653 4104.26 475.13902259765536 4082.9 476.6264014136676 4061.54 475.9675036747879 4040.18 476.1855240028958 4018.8199999999997 476.0304088632991 3997.46 476.03986709155856 3976.1 476.07416075277575 3954.74 476.25220661385714 3933.38 475.9804259287693 3912.02 475.9771097573116 3890.66 475.85734943037994 3869.3 475.67113203039463 3847.94 475.9445091636468 3826.58 476.0428252544268 3805.2200000000003 476.0456947164946 3783.86 476.0126442187972 3762.5 475.2164345015217 3741.14 475.2129700329708 3719.7799999999997 475.2181577191099 3698.42 475.2322484984899 3677.06 474.81810616673476 3655.7 475.10657399076854 3634.34 475.80132801818854 3612.98 475.81236587515644 3591.62 475.5856075858726 3570.26 475.27426702627764 3548.9 474.8948962586183 3527.54 474.4350271056565 3506.18 474.05181534663 3484.82 473.42902823737313 3463.46 472.9107308902232 3442.1 472.36696232860294 3420.74 472.1032861179079 3399.38 472.0144834613813 3378.02 471.9842446739753 3356.66 471.6750167092698 3335.3 471.4189705364595 3313.94 471.014308300106 3292.58 470.70930139261014 3271.22 470.6068920841123 3249.86 470.536768979531 3228.5 470.512126738405 3228.5 475.3370518496447Z" fill="#fdd5a4" opacity="0.9" />
		</g>
		<g>
			<path d="M3228.5 470.512126738405 3249.86 470.536768979531 3271.22 470.6068920841123 3292.58 470.70930139261014 3313.94 471.014308300106 3335.3 471.4189705364595 3356.66 471.6750167092698 3378.02 471.9842446739753 3399.38 472.0144834613813 3420.74 472.1032861179079 3442.1 472.36696232860294 3463.46 472.9107308902232 3484.82 473.42902823737313 3506.18 474.05181534663 3527.54 474.4350271056565 3548.9 474.8948962586183 3570.26 475.27426702627764 3591.62 475.5856075858726 3612.98 475.81236587515644 3634.34 475.80132801818854 3655.7 475.10657399076854 3677.06 474.81810616673476 3698.42 475.2322484984899 3719.7799999999997 475.2181577191099 3741.14 475.2129700329708 3762.5 475.2164345015217 3783.86 476.0126442187972 3805.2200000000003 476.0456947164946 3826.58 476.0428252544268 3847.94 475.9445091636468 3869.3 475.67113203039463 3890.66 475.85734943037994 3912.02 475.9771097573116 3933.38 475.9804259287693 3954.74 476.25220661385714 3976.1 476.07416075277575 3997.46 476.03986709155856 4018.8199999999997 476.0304088632991 4040.18 476.1855240028958 4061.54 475.9675036747879 4082.9 476.6264014136676 4104.26 475.13902259765536 4125.62 474.8469015951653 4146.98 474.8518141039069 4168.34 475.27887736921514 4189.7 474.511998002383 4211.0599999999995 474.22541956826655 4232.42 473.9871807138114 4253.78 473.9897191134042 4275.139999999999 474.09267029394687 4296.5 474.28062031125177 4296.5 471.56419721584615 4275.139999999999 471.35961801945126 4253.78 471.1659266751794 4232.42 471.15503597364875 4211.0599999999995 471.36241611042175 4189.7 471.63391436910644 4168.34 472.3711663447606 4146.98 471.84780556889575 4125.62 471.84385861501005 4104.26 472.0370495671892 4082.9 473.4135261402591 4061.54 472.6948042788454 4040.18 472.8722901716775 4018.8199999999997 472.3229333883161 3997.46 472.33160122478233 3976.1 472.3663150934169 3954.74 472.5454339613937 3933.38 472.089365302357 3912.02 472.0865469044695 3890.66 471.87656051033446 3869.3 471.6164928135846 3847.94 471.7330711807051 3826.58 471.76332000605703 3805.2200000000003 471.766218855925 3783.86 471.666704132637 3762.5 470.5946289838734 3741.14 470.5925960519466 3719.7799999999997 470.5979497527046 3698.42 470.6143953187705 3677.06 470.16763283113994 3655.7 470.4164498778376 3634.34 471.0661628206815 3612.98 471.07731696753683 3591.62 470.8209639445631 3570.26 470.4605146316375 3548.9 469.9795822434353 3527.54 469.45753010676304 3506.18 469.00707612997155 3484.82 468.3152661342126 3463.46 467.73514405195505 3442.1 467.13787830023045 3420.74 466.8018186815908 3399.38 466.6374618686549 3378.02 466.54215183048984 3356.66 466.2228711653022 3335.3 465.9001213956365 3313.94 465.4390074188502 3292.58 465.07678566777196 3271.22 464.9033783038482 3249.86 464.78158180585166 3228.5 464.7260968061159 3228.5 470.512126738405Z" fill="#f48c7d" opacity="0.9" />
		</g>
		<g>
			<path d="M3228.5 464.7260968061159 3249.86 464.78158180585166 3271.22 464.9033783038482 3292.58 465.07678566777196 3313.94 465.4390074188502 3335.3 465.9001213956365 3356.66 466.2228711653022 3378.02 466.54215183048984 3399.38 466.6374618686549 3420.74 466.8018186815908 3442.1 467.13787830023045 3463.46 467.73514405195505 3484.82 468.3152661342126 3506.18 469.00707612997155 3527.54 469.45753010676304 3548.9 469.9795822434353 3570.26 470.4605146316375 3591.62 470.8209639445631 3612.98 471.07731696753683 3634.34 471.0661628206815 3655.7 470.4164498778376 3677.06 470.16763283113994 3698.42 470.6143953187705 3719.7799999999997 470.5979497527046 3741.14 470.5925960519466 3762.5 470.5946289838734 3783.86 471.666704132637 3805.2200000000003 471.766218855925 3826.58 471.76332000605703 3847.94 471.7330711807051 3869.3 471.6164928135846 3890.66 471.87656051033446 3912.02 472.0865469044695 3933.38 472.089365302357 3954.74 472.5454339613937 3976.1 472.3663150934169 3997.46 472.33160122478233 4018.8199999999997 472.3229333883161 4040.18 472.8722901716775 4061.54 472.6948042788454 4082.9 473.4135261402591 4104.26 472.0370495671892 4125.62 471.84385861501005 4146.98 471.84780556889575 4168.34 472.3711663447606 4189.7 471.63391436910644 4211.0599999999995 471.36241611042175 4232.42 471.15503597364875 4253.78 471.1659266751794 4275.139999999999 471.35961801945126 4296.5 471.56419721584615 4296.5 397.9999999999999 4275.139999999999 398 4253.78 398.00000000000017 4232.42 398 4211.0599999999995 398.00000000000006 4189.7 397.99999999999994 4168.34 398.00000000000006 4146.98 397.9999999999999 4125.62 397.99999999999994 4104.26 398 4082.9 398 4061.54 397.99999999999994 4040.18 397.9999999999999 4018.8199999999997 398 3997.46 398 3976.1 398 3954.74 398.0000000000001 3933.38 398 3912.02 398 3890.66 398.0000000000002 3869.3 397.99999999999994 3847.94 398 3826.58 398.0000000000001 3805.2200000000003 398 3783.86 398.00000000000006 3762.5 398.00000000000006 3741.14 397.99999999999994 3719.7799999999997 398.00000000000017 3698.42 398 3677.06 398.00000000000017 3655.7 397.9999999999999 3634.34 397.9999999999999 3612.98 398.0000000000001 3591.62 397.9999999999999 3570.26 398 3548.9 397.9999999999999 3527.54 397.9999999999999 3506.18 398 3484.82 397.9999999999999 3463.46 398.0000000000001 3442.1 397.99999999999994 3420.74 398.0000000000001 3399.38 398.0000000000001 3378.02 398.0000000000001 3356.66 398.0000000000001 3335.3 398 3313.94 398.00000000000006 3292.58 398 3271.22 398 3249.86 397.9999999999999 3228.5 397.9999999999999 3228.5 464.7260968061159Z" fill="#393d41" opacity="0.9" />
		</g>
		<g>
			<rect x="4372" y="431" width="22.9995" height="23" fill="#e62d39" />
		</g>
		<g>
			<text fill="#595959" font-family="Verdana,Open Sans,DejaVu Sans,sans-serif" font-weight="400" font-size="41" transform="matrix(1 0 0 1 4404.56 454)">Android</text>
		</g>
		<g>
			<rect x="4372" y="508" width="22.9995" height="23" fill="#005aa6" />
		</g>
		<g>
			<text fill="#595959" font-family="Verdana,Open Sans,DejaVu Sans,sans-serif" font-weight="400" font-size="41" transform="matrix(1 0 0 1 4404.56 531)">iOS</text>
		</g>
		<g>
			<rect x="4372" y="585" width="22.9995" height="23" fill="#55c0e9" />
		</g>
		<g>
			<text fill="#595959" font-family="Verdana,Open Sans,DejaVu Sans,sans-serif" font-weight="400" font-size="41" transform="matrix(1 0 0 1 4404.56 608)">Windows</text>
		</g>
		<g>
			<rect x="4372" y="662" width="22.9995" height="23" fill="#f6a118" />
		</g>
		<g>
			<text fill="#595959" font-family="Verdana,Open Sans,DejaVu Sans,sans-serif" font-weight="400" font-size="41" transform="matrix(1 0 0 1 4404.56 685)">macOS</text>
		</g>
		<g>
			<rect x="4372" y="739" width="22.9995" height="23" fill="#fdd5a4" />
		</g>
		<g>
			<text fill="#595959" font-family="Verdana,Open Sans,DejaVu Sans,sans-serif" font-weight="400" font-size="41" transform="matrix(1 0 0 1 4404.56 762)">Linux</text>
		</g>
		<g>
			<rect x="4372" y="816" width="22.9995" height="23" fill="#f48c7d" />
		</g>
		<g>
			<text fill="#595959" font-family="Verdana,Open Sans,DejaVu Sans,sans-serif" font-weight="400" font-size="41" transform="matrix(1 0 0 1 4404.56 839)">Other</text>
		</g>
		<g>
			<rect x="4372" y="893" width="22.9995" height="23" fill="#393d41" />
		</g>
		<g>
			<text fill="#595959" font-family="Verdana,Open Sans,DejaVu Sans,sans-serif" font-weight="400" font-size="41" transform="matrix(1 0 0 1 4404.56 916)">Unclassified</text>
		</g>
	</g>
</svg>
