<svg width="1763" height="1046"
    xmlns="http://www.w3.org/2000/svg"
	xmlns:xlink="http://www.w3.org/1999/xlink" xml:space="preserve" overflow="hidden">
	<defs>
		<clipPath id="clip0">
			<rect x="2917" y="346" width="1763" height="1046"/>
		</clipPath>
	</defs>
	<g clip-path="url(#clip0)" transform="translate(-2917 -346)">
		<rect x="2918" y="347" width="1760" height="1043" fill="#FFFFFF" />
		<g>
			<path d="
			M3228.5 974.532 4296.5 974.532
			M3228.5 910.53 4296.5 910.53
			M3228.5 846.528 4296.5 846.528
			M3228.5 781.526 4296.5 781.526
			M3228.5 717.524 4296.5 717.524
			M3228.5 653.522 4296.5 653.522
			M3228.5 589.52 4296.5 589.52
			M3228.5 525.517 4296.5 525.517
			M3228.5 461.515 4296.5 461.515
			M3228.5 397.5 4296.5 397.5" stroke="#D9D9D9" stroke-width="3.4375" stroke-linejoin="round" stroke-miterlimit="10" fill="none" />
		</g>
		<g>
			<path d="M 1038.5 4296.5 1038.5" stroke="#D9D9D9" stroke-width="3.4375" stroke-linejoin="round" stroke-miterlimit="10" fill="none" fill-rule="evenodd" />
		</g>
		<g>
			<text fill="#595959" font-family="Verdana,sans-serif" font-weight="400" font-size="41" transform="matrix(6.12323e-17 -1 1 6.12323e-17 3244 1207)">15-Jan</text>
		</g>
		<g>
			<text fill="#595959" font-family="Verdana,sans-serif" font-weight="400" font-size="41" transform="matrix(6.12323e-17 -1 1 6.12323e-17 3329.94 1214)">12-Feb</text>
		</g>
		<g>
			<text fill="#595959" font-family="Verdana,sans-serif" font-weight="400" font-size="41" transform="matrix(6.12323e-17 -1 1 6.12323e-17 3414.88 1221)">11-Mar</text>
		</g>
		<g>
			<text fill="#595959" font-family="Verdana,sans-serif" font-weight="400" font-size="41" transform="matrix(6.12323e-17 -1 1 6.12323e-17 3504.32 1217)">08-Apr</text>
		</g>
		<g>
			<text fill="#595959" font-family="Verdana,sans-serif" font-weight="400" font-size="41" transform="matrix(6.12323e-17 -1 1 6.12323e-17 3589.76 1228)">06-May</text>
		</g>
		<g>
			<text fill="#595959" font-family="Verdana,sans-serif" font-weight="400" font-size="41" transform="matrix(6.12323e-17 -1 1 6.12323e-17 3671.7 1211)">03-Jun</text>
		</g>
		<g>
			<text fill="#595959" font-family="Verdana,sans-serif" font-weight="400" font-size="41" transform="matrix(6.12323e-17 -1 1 6.12323e-17 3757.14 1197)">01-Jul</text>
		</g>
		<g>
			<text fill="#595959" font-family="Verdana,sans-serif" font-weight="400" font-size="41" transform="matrix(6.12323e-17 -1 1 6.12323e-17 3842.58 1196)">29-Jul</text>
		</g>
		<g>
			<text fill="#595959" font-family="Verdana,sans-serif" font-weight="400" font-size="41" transform="matrix(6.12323e-17 -1 1 6.12323e-17 3931.52 1221)">26-Aug</text>
		</g>
		<g>
			<text fill="#595959" font-family="Verdana,sans-serif" font-weight="400" font-size="41" transform="matrix(6.12323e-17 -1 1 6.12323e-17 4016.96 1221)">23-Sep</text>
		</g>
		<g>
			<text fill="#595959" font-family="Verdana,sans-serif" font-weight="400" font-size="41" transform="matrix(6.12323e-17 -1 1 6.12323e-17 4098.9 1215)">21-Oct</text>
		</g>
		<g>
			<text fill="#595959" font-family="Verdana,sans-serif" font-weight="400" font-size="41" transform="matrix(6.12323e-17 -1 1 6.12323e-17 4184.34 1222)">18-Nov</text>
		</g>
		<g>
			<text fill="#595959" font-family="Verdana,sans-serif" font-weight="400" font-size="41" transform="matrix(6.12323e-17 -1 1 6.12323e-17 4269.78 1222)">23-Dec</text>
		</g>
		<g>
			<text fill="#595959" font-family="Verdana,sans-serif" font-weight="400" font-size="41" transform="matrix(1 0 0 1 3123.5 1050)">0%</text>
		</g>
		<g>
			<text fill="#595959" font-family="Verdana,sans-serif" font-weight="400" font-size="41" transform="matrix(1 0 0 1 3097.5 922)">20%</text>
		</g>
		<g>
			<text fill="#595959" font-family="Verdana,sans-serif" font-weight="400" font-size="41" transform="matrix(1 0 0 1 3096.5 794)">40%</text>
		</g>
		<g>
			<text fill="#595959" font-family="Verdana,sans-serif" font-weight="400" font-size="41" transform="matrix(1 0 0 1 3097.5 666)">60%</text>
		</g>
		<g>
			<text fill="#595959" font-family="Verdana,sans-serif" font-weight="400" font-size="41" transform="matrix(1 0 0 1 3097.5 538)">80%</text>
		</g>
		<g>
			<text fill="#595959" font-family="Verdana,sans-serif" font-weight="400" font-size="41" transform="matrix(1 0 0 1 3074.5 410)">100%</text>
		</g>
		<g>
			<text fill="#595959" font-family="Verdana,sans-serif" font-weight="400" font-size="41" transform="matrix(1 0 0 1 3544.5 1321)">Week Commencing</text>
		</g>
		<g>
			<text fill="#595959" font-family="Verdana,sans-serif" font-weight="400" font-size="46" transform="matrix(6.12323e-17 -1 1 6.12323e-17 3019.73 965.25)">Requests (% of Total)</text>
		</g>
		<rect x="2918.5" y="347.5" width="1760" height="1043" stroke="#D9D9D9" stroke-width="3.4375" stroke-linejoin="round" stroke-miterlimit="10" fill="none" />
		<g>
			<path d="M3228.5 1038 3249.86 1038 3271.22 1038 3292.58 1038 3313.94 1038 3335.3 1038 3356.66 1038 3378.02 1038 3399.38 1038 3420.74 1038 3442.1 1038 3463.46 1038 3484.82 1038 3506.18 1038 3527.54 1038 3548.9 1038 3570.26 1038 3591.62 1038 3612.98 1038 3634.34 1038 3655.7 1038 3677.06 1038 3698.42 1038 3719.7799999999997 1038 3741.14 1038 3762.5 1038 3783.86 1038 3805.2200000000003 1038 3826.58 1038 3847.94 1038 3869.3 1038 3890.66 1038 3912.02 1038 3933.38 1038 3954.74 1038 3976.1 1038 3997.46 1038 4018.8199999999997 1038 4040.18 1038 4061.54 1038 4082.9 1038 4104.26 1038 4125.62 1038 4146.98 1038 4168.34 1038 4189.7 1038 4211.0599999999995 1038 4232.42 1038 4253.78 1038 4275.139999999999 1038 4296.5 1038 4296.5 783.484387962271 4275.139999999999 783.2922413061176 4253.78 783.1097274823168 4232.42 783.0871417282395 4211.0599999999995 782.9000115015447 4189.7 782.5276373365637 4168.34 782.6753667196651 4146.98 783.1682641871979 4125.62 783.5277451200283 4104.26 783.7165926175173 4082.9 725.0579859810713 4061.54 723.964272691857 4040.18 722.9963838923263 4018.8199999999997 722.2500058248895 3997.46 721.3672257636031 3976.1 716.1347668638947 3954.74 714.9315603533947 3933.38 714.226459280052 3912.02 714.4105060971157 3890.66 713.9589728279007 3869.3 713.4392482120827 3847.94 712.9526784937428 3826.58 712.3235713382509 3805.2200000000003 712.0748666907585 3783.86 711.7892867662207 3762.5 711.2928421961317 3741.14 710.6616144923173 3719.7799999999997 710.307171035662 3698.42 710.0229260904226 3677.06 709.5011500172373 3655.7 708.8529728655324 3634.34 708.5111643371398 3612.98 707.6773439344757 3591.62 706.7867985338357 3570.26 705.8245723100855 3548.9 704.5432324401569 3527.54 703.4985064623488 3506.18 704.569443136712 3484.82 703.1605263419694 3463.46 701.7580858411745 3442.1 700.4865286297146 3420.74 707.5245129827832 3399.38 729.2395570213952 3378.02 728.9340901988301 3356.66 728.9473274759466 3335.3 728.5904699830792 3313.94 728.3059690780326 3292.58 728.4979453773899 3271.22 728.9075512947094 3249.86 754.11838558625 3228.5 754.1757001008984 3228.5 1038Z" fill="#e62d39" opacity="0.9" />
		</g>
		<g>
			<path d="M3228.5 754.1757001008984 3249.86 754.11838558625 3271.22 728.9075512947094 3292.58 728.4979453773899 3313.94 728.3059690780326 3335.3 728.5904699830792 3356.66 728.9473274759466 3378.02 728.9340901988301 3399.38 729.2395570213952 3420.74 707.5245129827832 3442.1 700.4865286297146 3463.46 701.7580858411745 3484.82 703.1605263419694 3506.18 704.569443136712 3527.54 703.4985064623488 3548.9 704.5432324401569 3570.26 705.8245723100855 3591.62 706.7867985338357 3612.98 707.6773439344757 3634.34 708.5111643371398 3655.7 708.8529728655324 3677.06 709.5011500172373 3698.42 710.0229260904226 3719.7799999999997 710.307171035662 3741.14 710.6616144923173 3762.5 711.2928421961317 3783.86 711.7892867662207 3805.2200000000003 712.0748666907585 3826.58 712.3235713382509 3847.94 712.9526784937428 3869.3 713.4392482120827 3890.66 713.9589728279007 3912.02 714.4105060971157 3933.38 714.226459280052 3954.74 714.9315603533947 3976.1 716.1347668638947 3997.46 721.3672257636031 4018.8199999999997 722.2500058248895 4040.18 722.9963838923263 4061.54 723.964272691857 4082.9 725.0579859810713 4104.26 783.7165926175173 4125.62 783.5277451200283 4146.98 783.1682641871979 4168.34 782.6753667196651 4189.7 782.5276373365637 4211.0599999999995 782.9000115015447 4232.42 783.0871417282395 4253.78 783.1097274823168 4275.139999999999 783.2922413061176 4296.5 783.484387962271 4296.5 531.7405716149474 4275.139999999999 531.5084515547419 4253.78 531.1868422316874 4232.42 530.9096071067931 4211.0599999999995 530.6457625647856 4189.7 530.2115588422516 4168.34 530.3749323864379 4146.98 530.816371903653 4125.62 531.5387166599613 4104.26 532.190445140906 4082.9 526.5102482737155 4061.54 525.3174753042879 4040.18 524.2802845879517 4018.8199999999997 523.1294380044525 3997.46 521.8575691422009 3976.1 514.1116307261946 3954.74 512.993987230213 3933.38 512.1677115640608 3912.02 502.45546819630397 3890.66 501.879791216212 3869.3 501.40460916879545 3847.94 500.8004852626943 3826.58 499.8853489758172 3805.2200000000003 498.7859305783681 3783.86 497.70686325871344 3762.5 496.45662763490196 3741.14 495.1622009511958 3719.7799999999997 493.8933367325633 3698.42 492.86935877863715 3677.06 492.0646789770611 3655.7 491.29504574396447 3634.34 490.57523501016317 3612.98 490.03332941523763 3591.62 489.72310243427995 3570.26 489.48234403066954 3548.9 489.1962201731323 3527.54 488.9387742360814 3506.18 492.7506429578374 3484.82 492.8155417521196 3463.46 493.0157563584153 3442.1 493.39321289046876 3420.74 506.9149616199791 3399.38 511.364965996509 3378.02 511.2846481599944 3356.66 510.42831690773556 3335.3 509.62004963115277 3313.94 508.7614604393337 3292.58 509.353058075723 3271.22 509.9096403086422 3249.86 502.9834202621783 3228.5 503.00137208677626 3228.5 754.1757001008984Z" fill="#005aa6" opacity="0.9" />
		</g>
		<g>
			<path d="M3228.5 503.00137208677626 3249.86 502.9834202621783 3271.22 509.9096403086422 3292.58 509.353058075723 3313.94 508.7614604393337 3335.3 509.62004963115277 3356.66 510.42831690773556 3378.02 511.2846481599944 3399.38 511.364965996509 3420.74 506.9149616199791 3442.1 493.39321289046876 3463.46 493.0157563584153 3484.82 492.8155417521196 3506.18 492.7506429578374 3527.54 488.9387742360814 3548.9 489.1962201731323 3570.26 489.48234403066954 3591.62 489.72310243427995 3612.98 490.03332941523763 3634.34 490.57523501016317 3655.7 491.29504574396447 3677.06 492.0646789770611 3698.42 492.86935877863715 3719.7799999999997 493.8933367325633 3741.14 495.1622009511958 3762.5 496.45662763490196 3783.86 497.70686325871344 3805.2200000000003 498.7859305783681 3826.58 499.8853489758172 3847.94 500.8004852626943 3869.3 501.40460916879545 3890.66 501.879791216212 3912.02 502.45546819630397 3933.38 512.1677115640608 3954.74 512.993987230213 3976.1 514.1116307261946 3997.46 521.8575691422009 4018.8199999999997 523.1294380044525 4040.18 524.2802845879517 4061.54 525.3174753042879 4082.9 526.5102482737155 4104.26 532.190445140906 4125.62 531.5387166599613 4146.98 530.816371903653 4168.34 530.3749323864379 4189.7 530.2115588422516 4211.0599999999995 530.6457625647856 4232.42 530.9096071067931 4253.78 531.1868422316874 4275.139999999999 531.5084515547419 4296.5 531.7405716149474 4296.5 487.98949737367803 4275.139999999999 487.70292525839443 4253.78 487.3692026626984 4232.42 487.10721609649056 4211.0599999999995 486.9097754632236 4189.7 486.6466810104104 4168.34 486.8253712667305 4146.98 487.1725552495906 4125.62 487.81344975744275 4104.26 488.4006750879141 4082.9 478.7456085402515 4061.54 477.4222196163745 4040.18 476.2604646154135 4018.8199999999997 475.0060216232253 3997.46 473.64144749214375 3976.1 473.2844498106347 3954.74 472.05917492318713 3933.38 471.07663748656995 3912.02 461.2408535917636 3890.66 460.48443100573536 3869.3 459.76604736337003 3847.94 458.9777407221724 3826.58 457.90939966851295 3805.2200000000003 456.65452296321746 3783.86 455.36215838852235 3762.5 453.9844912065713 3741.14 452.5053589477677 3719.7799999999997 451.07476537844235 3698.42 449.87375657582817 3677.06 448.9328850656446 3655.7 448.0557909288758 3634.34 447.2525039284088 3612.98 446.6761477523823 3591.62 446.4456437459776 3570.26 446.28136252321144 3548.9 446.10487752564853 3527.54 445.9636538385128 3506.18 450.12178949359264 3484.82 450.19759580620007 3463.46 450.31641232434566 3442.1 450.53485482006914 3420.74 465.04034483521883 3399.38 466.06050698928533 3378.02 466.040310950835 3356.66 465.54550807778793 3335.3 465.0596958871918 3313.94 464.56231790755743 3292.58 464.9559197775319 3271.22 465.35219027138237 3249.86 461.61567429168343 3228.5 461.61568788936546 3228.5 503.00137208677626Z" fill="#55c0e9" opacity="0.9" />
		</g>
		<g>
			<path d="M3228.5 461.61568788936546 3249.86 461.61567429168343 3271.22 465.35219027138237 3292.58 464.9559197775319 3313.94 464.56231790755743 3335.3 465.0596958871918 3356.66 465.54550807778793 3378.02 466.040310950835 3399.38 466.06050698928533 3420.74 465.04034483521883 3442.1 450.53485482006914 3463.46 450.31641232434566 3484.82 450.19759580620007 3506.18 450.12178949359264 3527.54 445.9636538385128 3548.9 446.10487752564853 3570.26 446.28136252321144 3591.62 446.4456437459776 3612.98 446.6761477523823 3634.34 447.2525039284088 3655.7 448.0557909288758 3677.06 448.9328850656446 3698.42 449.87375657582817 3719.7799999999997 451.07476537844235 3741.14 452.5053589477677 3762.5 453.9844912065713 3783.86 455.36215838852235 3805.2200000000003 456.65452296321746 3826.58 457.90939966851295 3847.94 458.9777407221724 3869.3 459.76604736337003 3890.66 460.48443100573536 3912.02 461.2408535917636 3933.38 471.07663748656995 3954.74 472.05917492318713 3976.1 473.2844498106347 3997.46 473.64144749214375 4018.8199999999997 475.0060216232253 4040.18 476.2604646154135 4061.54 477.4222196163745 4082.9 478.7456085402515 4104.26 488.4006750879141 4125.62 487.81344975744275 4146.98 487.1725552495906 4168.34 486.8253712667305 4189.7 486.6466810104104 4211.0599999999995 486.9097754632236 4232.42 487.10721609649056 4253.78 487.3692026626984 4275.139999999999 487.70292525839443 4296.5 487.98949737367803 4296.5 475.42158037858417 4275.139999999999 475.17281446854633 4253.78 474.89392113663916 4232.42 474.6976120214667 4211.0599999999995 474.5506870011159 4189.7 474.3398551157786 4168.34 474.4972746166898 4146.98 474.8032929443811 4125.62 475.42643040944677 4104.26 475.9837074966003 4082.9 466.53633469676566 4061.54 465.2033179049321 4040.18 464.0399484926056 4018.8199999999997 462.7794187905808 3997.46 461.40786834513193 3976.1 460.8843773665021 3954.74 459.6546822545587 3933.38 458.6559421000703 3912.02 448.8413613772234 3890.66 448.0810719550874 3869.3 447.3247116817817 3847.94 446.5310952275203 3826.58 445.4598876638521 3805.2200000000003 444.211812869573 3783.86 442.9104603532568 3762.5 441.5224522868679 3741.14 440.02872439510173 3719.7799999999997 438.5911754273753 3698.42 437.36935007449506 3677.06 436.4113820386986 3655.7 435.5243027869889 3634.34 434.7122259498071 3612.98 434.13110745861906 3591.62 433.9141397981283 3570.26 433.7506297603656 3548.9 433.55919918545516 3527.54 433.40054840431145 3506.18 437.6127108681739 3484.82 437.66723491500807 3463.46 437.73656952866384 3442.1 437.87360524960343 3420.74 452.6366317106452 3399.38 450.90613014226784 3378.02 450.8850550677488 3356.66 450.4868239386605 3335.3 450.086582389552 3313.94 449.68019116783887 3292.58 449.97158494345933 3271.22 450.2601617230179 3249.86 447.4043899537403 3228.5 447.3983203480143 3228.5 461.61568788936546Z" fill="#f6a118" opacity="0.9" />
		</g>
		<g>
			<path d="M3228.5 447.3983203480143 3249.86 447.4043899537403 3271.22 450.2601617230179 3292.58 449.97158494345933 3313.94 449.68019116783887 3335.3 450.086582389552 3356.66 450.4868239386605 3378.02 450.8850550677488 3399.38 450.90613014226784 3420.74 452.6366317106452 3442.1 437.87360524960343 3463.46 437.73656952866384 3484.82 437.66723491500807 3506.18 437.6127108681739 3527.54 433.40054840431145 3548.9 433.55919918545516 3570.26 433.7506297603656 3591.62 433.9141397981283 3612.98 434.13110745861906 3634.34 434.7122259498071 3655.7 435.5243027869889 3677.06 436.4113820386986 3698.42 437.36935007449506 3719.7799999999997 438.5911754273753 3741.14 440.02872439510173 3762.5 441.5224522868679 3783.86 442.9104603532568 3805.2200000000003 444.211812869573 3826.58 445.4598876638521 3847.94 446.5310952275203 3869.3 447.3247116817817 3890.66 448.0810719550874 3912.02 448.8413613772234 3933.38 458.6559421000703 3954.74 459.6546822545587 3976.1 460.8843773665021 3997.46 461.40786834513193 4018.8199999999997 462.7794187905808 4040.18 464.0399484926056 4061.54 465.2033179049321 4082.9 466.53633469676566 4104.26 475.9837074966003 4125.62 475.42643040944677 4146.98 474.8032929443811 4168.34 474.4972746166898 4189.7 474.3398551157786 4211.0599999999995 474.5506870011159 4232.42 474.6976120214667 4253.78 474.89392113663916 4275.139999999999 475.17281446854633 4296.5 475.42158037858417 4296.5 469.68188908060466 4275.139999999999 469.43106409076864 4253.78 469.15262240928087 4232.42 468.95702207661526 4211.0599999999995 468.84734356461763 4189.7 468.7350335488471 4168.34 468.9078882196251 4146.98 469.2079498249524 4125.62 469.81130033797666 4104.26 470.38342727342314 4082.9 461.2444339081057 4061.54 459.946755992067 4040.18 458.8077681755944 4018.8199999999997 457.5593223229012 3997.46 456.2181048338814 3976.1 455.6431947463817 3954.74 454.47972281760985 3933.38 453.4905215300467 3912.02 443.69596259487105 3890.66 442.9470560831334 3869.3 442.18952771113993 3847.94 441.4102737359516 3826.58 440.35943056582056 3805.2200000000003 439.1354625729624 3783.86 437.84119270046506 3762.5 436.45931716608146 3741.14 434.9725271047773 3719.7799999999997 433.5415615660502 3698.42 432.3203932157333 3677.06 431.3782566408658 3655.7 430.5117297264795 3634.34 429.7249311165208 3612.98 429.1613894967009 3591.62 428.96097997032933 3570.26 428.8105160166967 3548.9 428.64236977976526 3527.54 428.50399955057856 3506.18 432.7535502158639 3484.82 432.80627389640455 3463.46 432.8676017835308 3442.1 432.98806566692065 3420.74 447.8607653758795 3399.38 445.04971196915034 3378.02 445.0840675736475 3356.66 444.7823876121957 3335.3 444.47619554519974 3313.94 444.146022913635 3292.58 444.4117939256318 3271.22 444.6840228236209 3249.86 442.25084027575355 3228.5 442.3504661409793 3228.5 447.3983203480143Z" fill="#fdd5a4" opacity="0.9" />
		</g>
		<g>
			<path d="M3228.5 442.3504661409793 3249.86 442.25084027575355 3271.22 444.6840228236209 3292.58 444.4117939256318 3313.94 444.146022913635 3335.3 444.47619554519974 3356.66 444.7823876121957 3378.02 445.0840675736475 3399.38 445.04971196915034 3420.74 447.8607653758795 3442.1 432.98806566692065 3463.46 432.8676017835308 3484.82 432.80627389640455 3506.18 432.7535502158639 3527.54 428.50399955057856 3548.9 428.64236977976526 3570.26 428.8105160166967 3591.62 428.96097997032933 3612.98 429.1613894967009 3634.34 429.7249311165208 3655.7 430.5117297264795 3677.06 431.3782566408658 3698.42 432.3203932157333 3719.7799999999997 433.5415615660502 3741.14 434.9725271047773 3762.5 436.45931716608146 3783.86 437.84119270046506 3805.2200000000003 439.1354625729624 3826.58 440.35943056582056 3847.94 441.4102737359516 3869.3 442.18952771113993 3890.66 442.9470560831334 3912.02 443.69596259487105 3933.38 453.4905215300467 3954.74 454.47972281760985 3976.1 455.6431947463817 3997.46 456.2181048338814 4018.8199999999997 457.5593223229012 4040.18 458.8077681755944 4061.54 459.946755992067 4082.9 461.2444339081057 4104.26 470.38342727342314 4125.62 469.81130033797666 4146.98 469.2079498249524 4168.34 468.9078882196251 4189.7 468.7350335488471 4211.0599999999995 468.84734356461763 4232.42 468.95702207661526 4253.78 469.15262240928087 4275.139999999999 469.43106409076864 4296.5 469.68188908060466 4296.5 464.9713870250645 4275.139999999999 464.7567393127636 4253.78 464.5132259653092 4232.42 464.3461599383072 4211.0599999999995 464.26375937292056 4189.7 464.2122032971037 4168.34 464.3963627005436 4146.98 464.69518296460524 4125.62 465.29095095509365 4104.26 465.86857631542375 4082.9 457.9426597886813 4061.54 456.6504617863283 4040.18 455.5173638999522 4018.8199999999997 454.27397669951574 3997.46 452.9422128623981 3976.1 452.3392658302522 3954.74 451.1914920386467 3933.38 450.1807388631146 3912.02 440.3988808972397 3890.66 439.6628015961259 3869.3 438.90968576505173 3847.94 438.1368838719703 3826.58 437.09878380068074 3805.2200000000003 435.88818645509696 3783.86 434.59694513524136 3762.5 433.22158409139143 3741.14 431.7348695488416 3719.7799999999997 430.30784750779037 3698.42 429.09159001631633 3677.06 428.1595197737724 3655.7 427.30225741502903 3634.34 426.52676679830296 3612.98 425.97200661481094 3591.62 425.7866796521752 3570.26 425.65149111446993 3548.9 425.49532897112516 3527.54 425.3719419226974 3506.18 429.64793603777895 3484.82 429.7004140998976 3463.46 429.76313464334123 3442.1 429.88054742773767 3420.74 444.82124955246854 3399.38 441.7030292243726 3378.02 441.7535822416807 3356.66 441.49228637208546 3335.3 441.22475501262005 3313.94 440.9301919465814 3292.58 441.18998724924035 3271.22 441.4614784607988 3249.86 438.541557440145 3228.5 438.64340053541537 3228.5 442.3504661409793Z" fill="#f48c7d" opacity="0.9" />
		</g>
		<g>
			<path d="M3228.5 438.64340053541537 3249.86 438.541557440145 3271.22 441.4614784607988 3292.58 441.18998724924035 3313.94 440.9301919465814 3335.3 441.22475501262005 3356.66 441.49228637208546 3378.02 441.7535822416807 3399.38 441.7030292243726 3420.74 444.82124955246854 3442.1 429.88054742773767 3463.46 429.76313464334123 3484.82 429.7004140998976 3506.18 429.64793603777895 3527.54 425.3719419226974 3548.9 425.49532897112516 3570.26 425.65149111446993 3591.62 425.7866796521752 3612.98 425.97200661481094 3634.34 426.52676679830296 3655.7 427.30225741502903 3677.06 428.1595197737724 3698.42 429.09159001631633 3719.7799999999997 430.30784750779037 3741.14 431.7348695488416 3762.5 433.22158409139143 3783.86 434.59694513524136 3805.2200000000003 435.88818645509696 3826.58 437.09878380068074 3847.94 438.1368838719703 3869.3 438.90968576505173 3890.66 439.6628015961259 3912.02 440.3988808972397 3933.38 450.1807388631146 3954.74 451.1914920386467 3976.1 452.3392658302522 3997.46 452.9422128623981 4018.8199999999997 454.27397669951574 4040.18 455.5173638999522 4061.54 456.6504617863283 4082.9 457.9426597886813 4104.26 465.86857631542375 4125.62 465.29095095509365 4146.98 464.69518296460524 4168.34 464.3963627005436 4189.7 464.2122032971037 4211.0599999999995 464.26375937292056 4232.42 464.3461599383072 4253.78 464.5132259653092 4275.139999999999 464.7567393127636 4296.5 464.9713870250645 4296.5 398.0000000000001 4275.139999999999 397.99999999999983 4253.78 397.9999999999999 4232.42 397.99999999999994 4211.0599999999995 397.9999999999999 4189.7 397.9999999999999 4168.34 397.99999999999994 4146.98 398 4125.62 397.99999999999994 4104.26 398 4082.9 397.9999999999999 4061.54 397.9999999999999 4040.18 397.9999999999998 4018.8199999999997 398 3997.46 398 3976.1 398.00000000000006 3954.74 398.0000000000002 3933.38 398 3912.02 397.99999999999994 3890.66 398 3869.3 398.0000000000001 3847.94 398.00000000000006 3826.58 397.99999999999994 3805.2200000000003 397.99999999999994 3783.86 398.00000000000006 3762.5 397.99999999999994 3741.14 398.00000000000017 3719.7799999999997 397.99999999999994 3698.42 397.99999999999994 3677.06 398 3655.7 398 3634.34 398.00000000000017 3612.98 398 3591.62 398.00000000000006 3570.26 397.9999999999999 3548.9 398 3527.54 397.99999999999994 3506.18 398.00000000000006 3484.82 398.0000000000001 3463.46 398.00000000000006 3442.1 398.00000000000006 3420.74 398.0000000000001 3399.38 398.0000000000001 3378.02 398 3356.66 398 3335.3 397.99999999999994 3313.94 397.9999999999999 3292.58 398.0000000000001 3271.22 397.99999999999994 3249.86 398 3228.5 397.99999999999994 3228.5 438.64340053541537Z" fill="#393d41" opacity="0.9" />
		</g>
		<g>
			<rect x="4372" y="431" width="22.9995" height="23" fill="#e62d39" />
		</g>
		<g>
			<text fill="#595959" font-family="Verdana,sans-serif" font-weight="400" font-size="41" transform="matrix(1 0 0 1 4404.56 454)">iOS</text>
		</g>
		<g>
			<rect x="4372" y="508" width="22.9995" height="23" fill="#005aa6" />
		</g>
		<g>
			<text fill="#595959" font-family="Verdana,sans-serif" font-weight="400" font-size="41" transform="matrix(1 0 0 1 4404.56 531)">Android</text>
		</g>
		<g>
			<rect x="4372" y="585" width="22.9995" height="23" fill="#55c0e9" />
		</g>
		<g>
			<text fill="#595959" font-family="Verdana,sans-serif" font-weight="400" font-size="41" transform="matrix(1 0 0 1 4404.56 608)">Windows</text>
		</g>
		<g>
			<rect x="4372" y="662" width="22.9995" height="23" fill="#f6a118" />
		</g>
		<g>
			<text fill="#595959" font-family="Verdana,sans-serif" font-weight="400" font-size="41" transform="matrix(1 0 0 1 4404.56 685)">macOS</text>
		</g>
		<g>
			<rect x="4372" y="739" width="22.9995" height="23" fill="#fdd5a4" />
		</g>
		<g>
			<text fill="#595959" font-family="Verdana,sans-serif" font-weight="400" font-size="41" transform="matrix(1 0 0 1 4404.56 762)">Other</text>
		</g>
		<g>
			<rect x="4372" y="816" width="22.9995" height="23" fill="#f48c7d" />
		</g>
		<g>
			<text fill="#595959" font-family="Verdana,sans-serif" font-weight="400" font-size="41" transform="matrix(1 0 0 1 4404.56 839)">Linux</text>
		</g>
		<g>
			<rect x="4372" y="893" width="22.9995" height="23" fill="#393d41" />
		</g>
		<g>
			<text fill="#595959" font-family="Verdana,sans-serif" font-weight="400" font-size="41" transform="matrix(1 0 0 1 4404.56 916)">Unclassified</text>
		</g>
	</g>
</svg>
