<svg width="1763" height="1046"
    xmlns="http://www.w3.org/2000/svg"
	xmlns:xlink="http://www.w3.org/1999/xlink" xml:space="preserve" overflow="hidden">
	<defs>
		<clipPath id="clip0">
			<rect x="2917" y="346" width="1763" height="1046"/>
		</clipPath>
	</defs>
	<g clip-path="url(#clip0)" transform="translate(-2917 -346)">
		<rect x="2918" y="347" width="1760" height="1043" fill="#FFFFFF" />
		<g>
			<path d="
			M3228.5 974.532 4296.5 974.532
			M3228.5 910.53 4296.5 910.53
			M3228.5 846.528 4296.5 846.528
			M3228.5 781.526 4296.5 781.526
			M3228.5 717.524 4296.5 717.524
			M3228.5 653.522 4296.5 653.522
			M3228.5 589.52 4296.5 589.52
			M3228.5 525.517 4296.5 525.517
			M3228.5 461.515 4296.5 461.515
			M3228.5 397.5 4296.5 397.5" stroke="#D9D9D9" stroke-width="3.4375" stroke-linejoin="round" stroke-miterlimit="10" fill="none" />
		</g>
		<g>
			<path d="M 1038.5 4296.5 1038.5" stroke="#D9D9D9" stroke-width="3.4375" stroke-linejoin="round" stroke-miterlimit="10" fill="none" fill-rule="evenodd" />
		</g>
		<g>
			<text fill="#595959" font-family="Verdana,sans-serif" font-weight="400" font-size="41" transform="matrix(6.12323e-17 -1 1 6.12323e-17 3244.5 1210)">22-Jan</text>
		</g>
		<g>
			<text fill="#595959" font-family="Verdana,sans-serif" font-weight="400" font-size="41" transform="matrix(6.12323e-17 -1 1 6.12323e-17 3329.94 1214)">19-Feb</text>
		</g>
		<g>
			<text fill="#595959" font-family="Verdana,sans-serif" font-weight="400" font-size="41" transform="matrix(6.12323e-17 -1 1 6.12323e-17 3415.38 1221)">18-Mar</text>
		</g>
		<g>
			<text fill="#595959" font-family="Verdana,sans-serif" font-weight="400" font-size="41" transform="matrix(6.12323e-17 -1 1 6.12323e-17 3504.32 1214)">15-Apr</text>
		</g>
		<g>
			<text fill="#595959" font-family="Verdana,sans-serif" font-weight="400" font-size="41" transform="matrix(6.12323e-17 -1 1 6.12323e-17 3589.76 1226)">13-May</text>
		</g>
		<g>
			<text fill="#595959" font-family="Verdana,sans-serif" font-weight="400" font-size="41" transform="matrix(6.12323e-17 -1 1 6.12323e-17 3671.7 1209)">10-Jun</text>
		</g>
		<g>
			<text fill="#595959" font-family="Verdana,sans-serif" font-weight="400" font-size="41" transform="matrix(6.12323e-17 -1 1 6.12323e-17 3757.14 1197)">08-Jul</text>
		</g>
		<g>
			<text fill="#595959" font-family="Verdana,sans-serif" font-weight="400" font-size="41" transform="matrix(6.12323e-17 -1 1 6.12323e-17 3846.08 1221)">05-Aug</text>
		</g>
		<g>
			<text fill="#595959" font-family="Verdana,sans-serif" font-weight="400" font-size="41" transform="matrix(6.12323e-17 -1 1 6.12323e-17 3931.52 1222)">02-Sep</text>
		</g>
		<g>
			<text fill="#595959" font-family="Verdana,sans-serif" font-weight="400" font-size="41" transform="matrix(6.12323e-17 -1 1 6.12323e-17 4016.96 1221)">30-Sep</text>
		</g>
		<g>
			<text fill="#595959" font-family="Verdana,sans-serif" font-weight="400" font-size="41" transform="matrix(6.12323e-17 -1 1 6.12323e-17 4098.9 1215)">28-Oct</text>
		</g>
		<g>
			<text fill="#595959" font-family="Verdana,sans-serif" font-weight="400" font-size="41" transform="matrix(6.12323e-17 -1 1 6.12323e-17 4184.34 1224)">25-Nov</text>
		</g>
		<g>
			<text fill="#595959" font-family="Verdana,sans-serif" font-weight="400" font-size="41" transform="matrix(6.12323e-17 -1 1 6.12323e-17 4269.78 1222)">30-Dec</text>
		</g>
		<g>
			<text fill="#595959" font-family="Verdana,sans-serif" font-weight="400" font-size="41" transform="matrix(1 0 0 1 3123.5 1050)">0%</text>
		</g>
		<g>
			<text fill="#595959" font-family="Verdana,sans-serif" font-weight="400" font-size="41" transform="matrix(1 0 0 1 3097.5 922)">20%</text>
		</g>
		<g>
			<text fill="#595959" font-family="Verdana,sans-serif" font-weight="400" font-size="41" transform="matrix(1 0 0 1 3096.5 794)">40%</text>
		</g>
		<g>
			<text fill="#595959" font-family="Verdana,sans-serif" font-weight="400" font-size="41" transform="matrix(1 0 0 1 3097.5 666)">60%</text>
		</g>
		<g>
			<text fill="#595959" font-family="Verdana,sans-serif" font-weight="400" font-size="41" transform="matrix(1 0 0 1 3097.5 538)">80%</text>
		</g>
		<g>
			<text fill="#595959" font-family="Verdana,sans-serif" font-weight="400" font-size="41" transform="matrix(1 0 0 1 3074.5 410)">100%</text>
		</g>
		<g>
			<text fill="#595959" font-family="Verdana,sans-serif" font-weight="400" font-size="41" transform="matrix(1 0 0 1 3544.5 1321)">Week Commencing</text>
		</g>
		<g>
			<text fill="#595959" font-family="Verdana,sans-serif" font-weight="400" font-size="46" transform="matrix(6.12323e-17 -1 1 6.12323e-17 3019.73 965.25)">Requests (% of Total)</text>
		</g>
		<rect x="2918.5" y="347.5" width="1760" height="1043" stroke="#D9D9D9" stroke-width="3.4375" stroke-linejoin="round" stroke-miterlimit="10" fill="none" />
		<g>
			<path d="M3228.5 1038 3249.86 1038 3271.22 1038 3292.58 1038 3313.94 1038 3335.3 1038 3356.66 1038 3378.02 1038 3399.38 1038 3420.74 1038 3442.1 1038 3463.46 1038 3484.82 1038 3506.18 1038 3527.54 1038 3548.9 1038 3570.26 1038 3591.62 1038 3612.98 1038 3634.34 1038 3655.7 1038 3677.06 1038 3698.42 1038 3719.7799999999997 1038 3741.14 1038 3762.5 1038 3783.86 1038 3805.2200000000003 1038 3826.58 1038 3847.94 1038 3869.3 1038 3890.66 1038 3912.02 1038 3933.38 1038 3954.74 1038 3976.1 1038 3997.46 1038 4018.8199999999997 1038 4040.18 1038 4061.54 1038 4082.9 1038 4104.26 1038 4125.62 1038 4146.98 1038 4168.34 1038 4189.7 1038 4211.0599999999995 1038 4232.42 1038 4253.78 1038 4275.139999999999 1038 4296.5 1038 4296.5 783.4492557109172 4275.139999999999 783.484387962271 4253.78 783.2922413061176 4232.42 783.1097274823168 4211.0599999999995 783.0871417282395 4189.7 782.9000115015447 4168.34 782.5276373365637 4146.98 782.6753667196651 4125.62 783.1682641871979 4104.26 783.5277451200283 4082.9 783.7165926175173 4061.54 725.0579859810713 4040.18 723.964272691857 4018.8199999999997 722.9963838923263 3997.46 722.2500058248895 3976.1 721.3672257636031 3954.74 716.1347668638947 3933.38 714.9315603533947 3912.02 714.226459280052 3890.66 714.4105060971157 3869.3 713.9589728279007 3847.94 713.4392482120827 3826.58 712.9526784937428 3805.2200000000003 712.3235713382509 3783.86 712.0748666907585 3762.5 711.7892867662207 3741.14 711.2928421961317 3719.7799999999997 710.6616144923173 3698.42 710.307171035662 3677.06 710.0229260904226 3655.7 709.5011500172373 3634.34 708.8529728655324 3612.98 708.5111643371398 3591.62 707.6773439344757 3570.26 706.7867985338357 3548.9 705.8245723100855 3527.54 704.5432324401569 3506.18 703.4985064623488 3484.82 704.569443136712 3463.46 703.1605263419694 3442.1 701.7580858411745 3420.74 700.4865286297146 3399.38 707.5245129827832 3378.02 729.2395570213952 3356.66 728.9340901988301 3335.3 728.9473274759466 3313.94 728.5904699830792 3292.58 728.3059690780326 3271.22 728.4979453773899 3249.86 728.9075512947094 3228.5 754.11838558625 3228.5 1038Z" fill="#e62d39" opacity="0.9" />
		</g>
		<g>
			<path d="M3228.5 754.11838558625 3249.86 728.9075512947094 3271.22 728.4979453773899 3292.58 728.3059690780326 3313.94 728.5904699830792 3335.3 728.9473274759466 3356.66 728.9340901988301 3378.02 729.2395570213952 3399.38 707.5245129827832 3420.74 700.4865286297146 3442.1 701.7580858411745 3463.46 703.1605263419694 3484.82 704.569443136712 3506.18 703.4985064623488 3527.54 704.5432324401569 3548.9 705.8245723100855 3570.26 706.7867985338357 3591.62 707.6773439344757 3612.98 708.5111643371398 3634.34 708.8529728655324 3655.7 709.5011500172373 3677.06 710.0229260904226 3698.42 710.307171035662 3719.7799999999997 710.6616144923173 3741.14 711.2928421961317 3762.5 711.7892867662207 3783.86 712.0748666907585 3805.2200000000003 712.3235713382509 3826.58 712.9526784937428 3847.94 713.4392482120827 3869.3 713.9589728279007 3890.66 714.4105060971157 3912.02 714.226459280052 3933.38 714.9315603533947 3954.74 716.1347668638947 3976.1 721.3672257636031 3997.46 722.2500058248895 4018.8199999999997 722.9963838923263 4040.18 723.964272691857 4061.54 725.0579859810713 4082.9 783.7165926175173 4104.26 783.5277451200283 4125.62 783.1682641871979 4146.98 782.6753667196651 4168.34 782.5276373365637 4189.7 782.9000115015447 4211.0599999999995 783.0871417282395 4232.42 783.1097274823168 4253.78 783.2922413061176 4275.139999999999 783.484387962271 4296.5 783.4492557109172 4296.5 531.7063634722977 4275.139999999999 531.7405716149474 4253.78 531.5084515547419 4232.42 531.1868422316874 4211.0599999999995 530.9096071067931 4189.7 530.6457625647856 4168.34 530.2115588422516 4146.98 530.3749323864379 4125.62 530.816371903653 4104.26 531.5387166599613 4082.9 532.190445140906 4061.54 526.5102482737155 4040.18 525.3174753042879 4018.8199999999997 524.2802845879517 3997.46 523.1294380044525 3976.1 521.8575691422009 3954.74 514.1116307261946 3933.38 512.993987230213 3912.02 512.1677115640608 3890.66 502.45546819630397 3869.3 501.879791216212 3847.94 501.40460916879545 3826.58 500.8004852626943 3805.2200000000003 499.8853489758172 3783.86 498.7859305783681 3762.5 497.70686325871344 3741.14 496.45662763490196 3719.7799999999997 495.1622009511958 3698.42 493.8933367325633 3677.06 492.86935877863715 3655.7 492.0646789770611 3634.34 491.29504574396447 3612.98 490.57523501016317 3591.62 490.03332941523763 3570.26 489.72310243427995 3548.9 489.48234403066954 3527.54 489.1962201731323 3506.18 488.9387742360814 3484.82 492.7506429578374 3463.46 492.8155417521196 3442.1 493.0157563584153 3420.74 493.39321289046876 3399.38 506.9149616199791 3378.02 511.364965996509 3356.66 511.2846481599944 3335.3 510.42831690773556 3313.94 509.62004963115277 3292.58 508.7614604393337 3271.22 509.353058075723 3249.86 509.9096403086422 3228.5 502.9834202621783 3228.5 754.11838558625Z" fill="#005aa6" opacity="0.9" />
		</g>
		<g>
			<path d="M3228.5 502.9834202621783 3249.86 509.9096403086422 3271.22 509.353058075723 3292.58 508.7614604393337 3313.94 509.62004963115277 3335.3 510.42831690773556 3356.66 511.2846481599944 3378.02 511.364965996509 3399.38 506.9149616199791 3420.74 493.39321289046876 3442.1 493.0157563584153 3463.46 492.8155417521196 3484.82 492.7506429578374 3506.18 488.9387742360814 3527.54 489.1962201731323 3548.9 489.48234403066954 3570.26 489.72310243427995 3591.62 490.03332941523763 3612.98 490.57523501016317 3634.34 491.29504574396447 3655.7 492.0646789770611 3677.06 492.86935877863715 3698.42 493.8933367325633 3719.7799999999997 495.1622009511958 3741.14 496.45662763490196 3762.5 497.70686325871344 3783.86 498.7859305783681 3805.2200000000003 499.8853489758172 3826.58 500.8004852626943 3847.94 501.40460916879545 3869.3 501.879791216212 3890.66 502.45546819630397 3912.02 512.1677115640608 3933.38 512.993987230213 3954.74 514.1116307261946 3976.1 521.8575691422009 3997.46 523.1294380044525 4018.8199999999997 524.2802845879517 4040.18 525.3174753042879 4061.54 526.5102482737155 4082.9 532.190445140906 4104.26 531.5387166599613 4125.62 530.816371903653 4146.98 530.3749323864379 4168.34 530.2115588422516 4189.7 530.6457625647856 4211.0599999999995 530.9096071067931 4232.42 531.1868422316874 4253.78 531.5084515547419 4275.139999999999 531.7405716149474 4296.5 531.7063634722977 4296.5 487.963793616364 4275.139999999999 487.98949737367803 4253.78 487.70292525839443 4232.42 487.3692026626984 4211.0599999999995 487.10721609649056 4189.7 486.9097754632236 4168.34 486.6466810104104 4146.98 486.8253712667305 4125.62 487.1725552495906 4104.26 487.81344975744275 4082.9 488.4006750879141 4061.54 478.7456085402515 4040.18 477.4222196163745 4018.8199999999997 476.2604646154135 3997.46 475.0060216232253 3976.1 473.64144749214375 3954.74 473.2844498106347 3933.38 472.05917492318713 3912.02 471.07663748656995 3890.66 461.2408535917636 3869.3 460.48443100573536 3847.94 459.76604736337003 3826.58 458.9777407221724 3805.2200000000003 457.90939966851295 3783.86 456.65452296321746 3762.5 455.36215838852235 3741.14 453.9844912065713 3719.7799999999997 452.5053589477677 3698.42 451.07476537844235 3677.06 449.87375657582817 3655.7 448.9328850656446 3634.34 448.0557909288758 3612.98 447.2525039284088 3591.62 446.6761477523823 3570.26 446.4456437459776 3548.9 446.28136252321144 3527.54 446.10487752564853 3506.18 445.9636538385128 3484.82 450.12178949359264 3463.46 450.19759580620007 3442.1 450.31641232434566 3420.74 450.53485482006914 3399.38 465.04034483521883 3378.02 466.06050698928533 3356.66 466.040310950835 3335.3 465.54550807778793 3313.94 465.0596958871918 3292.58 464.56231790755743 3271.22 464.9559197775319 3249.86 465.35219027138237 3228.5 461.61567429168343 3228.5 502.9834202621783Z" fill="#55c0e9" opacity="0.9" />
		</g>
		<g>
			<path d="M3228.5 461.61567429168343 3249.86 465.35219027138237 3271.22 464.9559197775319 3292.58 464.56231790755743 3313.94 465.0596958871918 3335.3 465.54550807778793 3356.66 466.040310950835 3378.02 466.06050698928533 3399.38 465.04034483521883 3420.74 450.53485482006914 3442.1 450.31641232434566 3463.46 450.19759580620007 3484.82 450.12178949359264 3506.18 445.9636538385128 3527.54 446.10487752564853 3548.9 446.28136252321144 3570.26 446.4456437459776 3591.62 446.6761477523823 3612.98 447.2525039284088 3634.34 448.0557909288758 3655.7 448.9328850656446 3677.06 449.87375657582817 3698.42 451.07476537844235 3719.7799999999997 452.5053589477677 3741.14 453.9844912065713 3762.5 455.36215838852235 3783.86 456.65452296321746 3805.2200000000003 457.90939966851295 3826.58 458.9777407221724 3847.94 459.76604736337003 3869.3 460.48443100573536 3890.66 461.2408535917636 3912.02 471.07663748656995 3933.38 472.05917492318713 3954.74 473.2844498106347 3976.1 473.64144749214375 3997.46 475.0060216232253 4018.8199999999997 476.2604646154135 4040.18 477.4222196163745 4061.54 478.7456085402515 4082.9 488.4006750879141 4104.26 487.81344975744275 4125.62 487.1725552495906 4146.98 486.8253712667305 4168.34 486.6466810104104 4189.7 486.9097754632236 4211.0599999999995 487.10721609649056 4232.42 487.3692026626984 4253.78 487.70292525839443 4275.139999999999 487.98949737367803 4296.5 487.963793616364 4296.5 475.3984900629857 4275.139999999999 475.42158037858417 4253.78 475.17281446854633 4232.42 474.89392113663916 4211.0599999999995 474.6976120214667 4189.7 474.5506870011159 4168.34 474.3398551157786 4146.98 474.4972746166898 4125.62 474.8032929443811 4104.26 475.42643040944677 4082.9 475.9837074966003 4061.54 466.53633469676566 4040.18 465.2033179049321 4018.8199999999997 464.0399484926056 3997.46 462.7794187905808 3976.1 461.40786834513193 3954.74 460.8843773665021 3933.38 459.6546822545587 3912.02 458.6559421000703 3890.66 448.8413613772234 3869.3 448.0810719550874 3847.94 447.3247116817817 3826.58 446.5310952275203 3805.2200000000003 445.4598876638521 3783.86 444.211812869573 3762.5 442.9104603532568 3741.14 441.5224522868679 3719.7799999999997 440.02872439510173 3698.42 438.5911754273753 3677.06 437.36935007449506 3655.7 436.4113820386986 3634.34 435.5243027869889 3612.98 434.7122259498071 3591.62 434.13110745861906 3570.26 433.9141397981283 3548.9 433.7506297603656 3527.54 433.55919918545516 3506.18 433.40054840431145 3484.82 437.6127108681739 3463.46 437.66723491500807 3442.1 437.73656952866384 3420.74 437.87360524960343 3399.38 452.6366317106452 3378.02 450.90613014226784 3356.66 450.8850550677488 3335.3 450.4868239386605 3313.94 450.086582389552 3292.58 449.68019116783887 3271.22 449.97158494345933 3249.86 450.2601617230179 3228.5 447.4043899537403 3228.5 461.61567429168343Z" fill="#f6a118" opacity="0.9" />
		</g>
		<g>
			<path d="M3228.5 447.4043899537403 3249.86 450.2601617230179 3271.22 449.97158494345933 3292.58 449.68019116783887 3313.94 450.086582389552 3335.3 450.4868239386605 3356.66 450.8850550677488 3378.02 450.90613014226784 3399.38 452.6366317106452 3420.74 437.87360524960343 3442.1 437.73656952866384 3463.46 437.66723491500807 3484.82 437.6127108681739 3506.18 433.40054840431145 3527.54 433.55919918545516 3548.9 433.7506297603656 3570.26 433.9141397981283 3591.62 434.13110745861906 3612.98 434.7122259498071 3634.34 435.5243027869889 3655.7 436.4113820386986 3677.06 437.36935007449506 3698.42 438.5911754273753 3719.7799999999997 440.02872439510173 3741.14 441.5224522868679 3762.5 442.9104603532568 3783.86 444.211812869573 3805.2200000000003 445.4598876638521 3826.58 446.5310952275203 3847.94 447.3247116817817 3869.3 448.0810719550874 3890.66 448.8413613772234 3912.02 458.6559421000703 3933.38 459.6546822545587 3954.74 460.8843773665021 3976.1 461.40786834513193 3997.46 462.7794187905808 4018.8199999999997 464.0399484926056 4040.18 465.2033179049321 4061.54 466.53633469676566 4082.9 475.9837074966003 4104.26 475.42643040944677 4125.62 474.8032929443811 4146.98 474.4972746166898 4168.34 474.3398551157786 4189.7 474.5506870011159 4211.0599999999995 474.6976120214667 4232.42 474.89392113663916 4253.78 475.17281446854633 4275.139999999999 475.42158037858417 4296.5 475.3984900629857 4296.5 469.6596614770044 4275.139999999999 469.68188908060466 4253.78 469.43106409076864 4232.42 469.15262240928087 4211.0599999999995 468.95702207661526 4189.7 468.84734356461763 4168.34 468.7350335488471 4146.98 468.9078882196251 4125.62 469.2079498249524 4104.26 469.81130033797666 4082.9 470.38342727342314 4061.54 461.2444339081057 4040.18 459.946755992067 4018.8199999999997 458.8077681755944 3997.46 457.5593223229012 3976.1 456.2181048338814 3954.74 455.6431947463817 3933.38 454.47972281760985 3912.02 453.4905215300467 3890.66 443.69596259487105 3869.3 442.9470560831334 3847.94 442.18952771113993 3826.58 441.4102737359516 3805.2200000000003 440.35943056582056 3783.86 439.1354625729624 3762.5 437.84119270046506 3741.14 436.45931716608146 3719.7799999999997 434.9725271047773 3698.42 433.5415615660502 3677.06 432.3203932157333 3655.7 431.3782566408658 3634.34 430.5117297264795 3612.98 429.7249311165208 3591.62 429.1613894967009 3570.26 428.96097997032933 3548.9 428.8105160166967 3527.54 428.64236977976526 3506.18 428.50399955057856 3484.82 432.7535502158639 3463.46 432.80627389640455 3442.1 432.8676017835308 3420.74 432.98806566692065 3399.38 447.8607653758795 3378.02 445.04971196915034 3356.66 445.0840675736475 3335.3 444.7823876121957 3313.94 444.47619554519974 3292.58 444.146022913635 3271.22 444.4117939256318 3249.86 444.6840228236209 3228.5 442.25084027575355 3228.5 447.4043899537403Z" fill="#fdd5a4" opacity="0.9" />
		</g>
		<g>
			<path d="M3228.5 442.25084027575355 3249.86 444.6840228236209 3271.22 444.4117939256318 3292.58 444.146022913635 3313.94 444.47619554519974 3335.3 444.7823876121957 3356.66 445.0840675736475 3378.02 445.04971196915034 3399.38 447.8607653758795 3420.74 432.98806566692065 3442.1 432.8676017835308 3463.46 432.80627389640455 3484.82 432.7535502158639 3506.18 428.50399955057856 3527.54 428.64236977976526 3548.9 428.8105160166967 3570.26 428.96097997032933 3591.62 429.1613894967009 3612.98 429.7249311165208 3634.34 430.5117297264795 3655.7 431.3782566408658 3677.06 432.3203932157333 3698.42 433.5415615660502 3719.7799999999997 434.9725271047773 3741.14 436.45931716608146 3762.5 437.84119270046506 3783.86 439.1354625729624 3805.2200000000003 440.35943056582056 3826.58 441.4102737359516 3847.94 442.18952771113993 3869.3 442.9470560831334 3890.66 443.69596259487105 3912.02 453.4905215300467 3933.38 454.47972281760985 3954.74 455.6431947463817 3976.1 456.2181048338814 3997.46 457.5593223229012 4018.8199999999997 458.8077681755944 4040.18 459.946755992067 4061.54 461.2444339081057 4082.9 470.38342727342314 4104.26 469.81130033797666 4125.62 469.2079498249524 4146.98 468.9078882196251 4168.34 468.7350335488471 4189.7 468.84734356461763 4211.0599999999995 468.95702207661526 4232.42 469.15262240928087 4253.78 469.43106409076864 4275.139999999999 469.68188908060466 4296.5 469.6596614770044 4296.5 464.9499237655363 4275.139999999999 464.9713870250645 4253.78 464.7567393127636 4232.42 464.5132259653092 4211.0599999999995 464.3461599383072 4189.7 464.26375937292056 4168.34 464.2122032971037 4146.98 464.3963627005436 4125.62 464.69518296460524 4104.26 465.29095095509365 4082.9 465.86857631542375 4061.54 457.9426597886813 4040.18 456.6504617863283 4018.8199999999997 455.5173638999522 3997.46 454.27397669951574 3976.1 452.9422128623981 3954.74 452.3392658302522 3933.38 451.1914920386467 3912.02 450.1807388631146 3890.66 440.3988808972397 3869.3 439.6628015961259 3847.94 438.90968576505173 3826.58 438.1368838719703 3805.2200000000003 437.09878380068074 3783.86 435.88818645509696 3762.5 434.59694513524136 3741.14 433.22158409139143 3719.7799999999997 431.7348695488416 3698.42 430.30784750779037 3677.06 429.09159001631633 3655.7 428.1595197737724 3634.34 427.30225741502903 3612.98 426.52676679830296 3591.62 425.97200661481094 3570.26 425.7866796521752 3548.9 425.65149111446993 3527.54 425.49532897112516 3506.18 425.3719419226974 3484.82 429.64793603777895 3463.46 429.7004140998976 3442.1 429.76313464334123 3420.74 429.88054742773767 3399.38 444.82124955246854 3378.02 441.7030292243726 3356.66 441.7535822416807 3335.3 441.49228637208546 3313.94 441.22475501262005 3292.58 440.9301919465814 3271.22 441.18998724924035 3249.86 441.4614784607988 3228.5 438.541557440145 3228.5 442.25084027575355Z" fill="#f48c7d" opacity="0.9" />
		</g>
		<g>
			<path d="M3228.5 438.541557440145 3249.86 441.4614784607988 3271.22 441.18998724924035 3292.58 440.9301919465814 3313.94 441.22475501262005 3335.3 441.49228637208546 3356.66 441.7535822416807 3378.02 441.7030292243726 3399.38 444.82124955246854 3420.74 429.88054742773767 3442.1 429.76313464334123 3463.46 429.7004140998976 3484.82 429.64793603777895 3506.18 425.3719419226974 3527.54 425.49532897112516 3548.9 425.65149111446993 3570.26 425.7866796521752 3591.62 425.97200661481094 3612.98 426.52676679830296 3634.34 427.30225741502903 3655.7 428.1595197737724 3677.06 429.09159001631633 3698.42 430.30784750779037 3719.7799999999997 431.7348695488416 3741.14 433.22158409139143 3762.5 434.59694513524136 3783.86 435.88818645509696 3805.2200000000003 437.09878380068074 3826.58 438.1368838719703 3847.94 438.90968576505173 3869.3 439.6628015961259 3890.66 440.3988808972397 3912.02 450.1807388631146 3933.38 451.1914920386467 3954.74 452.3392658302522 3976.1 452.9422128623981 3997.46 454.27397669951574 4018.8199999999997 455.5173638999522 4040.18 456.6504617863283 4061.54 457.9426597886813 4082.9 465.86857631542375 4104.26 465.29095095509365 4125.62 464.69518296460524 4146.98 464.3963627005436 4168.34 464.2122032971037 4189.7 464.26375937292056 4211.0599999999995 464.3461599383072 4232.42 464.5132259653092 4253.78 464.7567393127636 4275.139999999999 464.9713870250645 4296.5 464.9499237655363 4296.5 398 4275.139999999999 398.0000000000001 4253.78 397.99999999999983 4232.42 397.9999999999999 4211.0599999999995 397.99999999999994 4189.7 397.9999999999999 4168.34 397.9999999999999 4146.98 397.99999999999994 4125.62 398 4104.26 397.99999999999994 4082.9 398 4061.54 397.9999999999999 4040.18 397.9999999999999 4018.8199999999997 397.9999999999998 3997.46 398 3976.1 398 3954.74 398.00000000000006 3933.38 398.0000000000002 3912.02 398 3890.66 397.99999999999994 3869.3 398 3847.94 398.0000000000001 3826.58 398.00000000000006 3805.2200000000003 397.99999999999994 3783.86 397.99999999999994 3762.5 398.00000000000006 3741.14 397.99999999999994 3719.7799999999997 398.00000000000017 3698.42 397.99999999999994 3677.06 397.99999999999994 3655.7 398 3634.34 398 3612.98 398.00000000000017 3591.62 398 3570.26 398.00000000000006 3548.9 397.9999999999999 3527.54 398 3506.18 397.99999999999994 3484.82 398.00000000000006 3463.46 398.0000000000001 3442.1 398.00000000000006 3420.74 398.00000000000006 3399.38 398.0000000000001 3378.02 398.0000000000001 3356.66 398 3335.3 398 3313.94 397.99999999999994 3292.58 397.9999999999999 3271.22 398.0000000000001 3249.86 397.99999999999994 3228.5 398 3228.5 438.541557440145Z" fill="#393d41" opacity="0.9" />
		</g>
		<g>
			<rect x="4372" y="431" width="22.9995" height="23" fill="#e62d39" />
		</g>
		<g>
			<text fill="#595959" font-family="Verdana,sans-serif" font-weight="400" font-size="41" transform="matrix(1 0 0 1 4404.56 454)">iOS</text>
		</g>
		<g>
			<rect x="4372" y="508" width="22.9995" height="23" fill="#005aa6" />
		</g>
		<g>
			<text fill="#595959" font-family="Verdana,sans-serif" font-weight="400" font-size="41" transform="matrix(1 0 0 1 4404.56 531)">Android</text>
		</g>
		<g>
			<rect x="4372" y="585" width="22.9995" height="23" fill="#55c0e9" />
		</g>
		<g>
			<text fill="#595959" font-family="Verdana,sans-serif" font-weight="400" font-size="41" transform="matrix(1 0 0 1 4404.56 608)">Windows</text>
		</g>
		<g>
			<rect x="4372" y="662" width="22.9995" height="23" fill="#f6a118" />
		</g>
		<g>
			<text fill="#595959" font-family="Verdana,sans-serif" font-weight="400" font-size="41" transform="matrix(1 0 0 1 4404.56 685)">macOS</text>
		</g>
		<g>
			<rect x="4372" y="739" width="22.9995" height="23" fill="#fdd5a4" />
		</g>
		<g>
			<text fill="#595959" font-family="Verdana,sans-serif" font-weight="400" font-size="41" transform="matrix(1 0 0 1 4404.56 762)">Other</text>
		</g>
		<g>
			<rect x="4372" y="816" width="22.9995" height="23" fill="#f48c7d" />
		</g>
		<g>
			<text fill="#595959" font-family="Verdana,sans-serif" font-weight="400" font-size="41" transform="matrix(1 0 0 1 4404.56 839)">Linux</text>
		</g>
		<g>
			<rect x="4372" y="893" width="22.9995" height="23" fill="#393d41" />
		</g>
		<g>
			<text fill="#595959" font-family="Verdana,sans-serif" font-weight="400" font-size="41" transform="matrix(1 0 0 1 4404.56 916)">Unclassified</text>
		</g>
	</g>
</svg>
