<svg width="1763" height="1046"
    xmlns="http://www.w3.org/2000/svg"
	xmlns:xlink="http://www.w3.org/1999/xlink" xml:space="preserve" overflow="hidden">
	<defs>
		<clipPath id="clip0">
			<rect x="2917" y="346" width="1763" height="1046"/>
		</clipPath>
	</defs>
	<g clip-path="url(#clip0)" transform="translate(-2917 -346)">
		<rect x="2918" y="347" width="1760" height="1043" fill="#FFFFFF" />
		<g>
			<path d="
			M3228.5 974.532 4296.5 974.532
			M3228.5 910.53 4296.5 910.53
			M3228.5 846.528 4296.5 846.528
			M3228.5 781.526 4296.5 781.526
			M3228.5 717.524 4296.5 717.524
			M3228.5 653.522 4296.5 653.522
			M3228.5 589.52 4296.5 589.52
			M3228.5 525.517 4296.5 525.517
			M3228.5 461.515 4296.5 461.515
			M3228.5 397.5 4296.5 397.5" stroke="#D9D9D9" stroke-width="3.4375" stroke-linejoin="round" stroke-miterlimit="10" fill="none" />
		</g>
		<g>
			<path d="M 1038.5 4296.5 1038.5" stroke="#D9D9D9" stroke-width="3.4375" stroke-linejoin="round" stroke-miterlimit="10" fill="none" fill-rule="evenodd" />
		</g>
		<g>
			<text fill="#595959" font-family="Verdana,Open Sans,DejaVu Sans,sans-serif" font-weight="400" font-size="41" transform="matrix(6.12323e-17 -1 1 6.12323e-17 3248.269287109375 1203.3022384643555)">28-Apr</text>
		</g>
		<g>
			<text fill="#595959" font-family="Verdana,Open Sans,DejaVu Sans,sans-serif" font-weight="400" font-size="41" transform="matrix(6.12323e-17 -1 1 6.12323e-17 3333.709287109375 1216.51513671875)">26-May</text>
		</g>
		<g>
			<text fill="#595959" font-family="Verdana,Open Sans,DejaVu Sans,sans-serif" font-weight="400" font-size="41" transform="matrix(6.12323e-17 -1 1 6.12323e-17 3418.09826171875 1194.1733322143555)">30-Jun</text>
		</g>
		<g>
			<text fill="#595959" font-family="Verdana,Open Sans,DejaVu Sans,sans-serif" font-weight="400" font-size="41" transform="matrix(6.12323e-17 -1 1 6.12323e-17 3504.248955078125 1179.0385665893555)">28-Jul</text>
		</g>
		<g>
			<text fill="#595959" font-family="Verdana,Open Sans,DejaVu Sans,sans-serif" font-weight="400" font-size="41" transform="matrix(6.12323e-17 -1 1 6.12323e-17 3590.029287109375 1208.66748046875)">25-Aug</text>
		</g>
		<g>
			<text fill="#595959" font-family="Verdana,Open Sans,DejaVu Sans,sans-serif" font-weight="400" font-size="41" transform="matrix(6.12323e-17 -1 1 6.12323e-17 3675.469287109375 1204.42333984375)">22-Sep</text>
		</g>
		<g>
			<text fill="#595959" font-family="Verdana,Open Sans,DejaVu Sans,sans-serif" font-weight="400" font-size="41" transform="matrix(6.12323e-17 -1 1 6.12323e-17 3756.204697265625 1201.1401290893555)">20-Oct</text>
		</g>
		<g>
			<text fill="#595959" font-family="Verdana,Open Sans,DejaVu Sans,sans-serif" font-weight="400" font-size="41" transform="matrix(6.12323e-17 -1 1 6.12323e-17 3841.41447265625 1209.70849609375)">17-Nov</text>
		</g>
		<g>
			<text fill="#595959" font-family="Verdana,Open Sans,DejaVu Sans,sans-serif" font-weight="400" font-size="41" transform="matrix(6.12323e-17 -1 1 6.12323e-17 3926.85447265625 1205.3642578125)">15-Dec</text>
		</g>
		<g>
			<text fill="#595959" font-family="Verdana,Open Sans,DejaVu Sans,sans-serif" font-weight="400" font-size="41" transform="matrix(6.12323e-17 -1 1 6.12323e-17 4016.1582421875 1189.9291915893555)">12-Jan</text>
		</g>
		<g>
			<text fill="#595959" font-family="Verdana,Open Sans,DejaVu Sans,sans-serif" font-weight="400" font-size="41" transform="matrix(6.12323e-17 -1 1 6.12323e-17 4098.675390625 1203.0419921875)">09-Feb</text>
		</g>
		<g>
			<text fill="#595959" font-family="Verdana,Open Sans,DejaVu Sans,sans-serif" font-weight="400" font-size="41" transform="matrix(6.12323e-17 -1 1 6.12323e-17 4183.404697265625 1212.0107421875)">09-Mar</text>
		</g>
		<g>
			<text fill="#595959" font-family="Verdana,Open Sans,DejaVu Sans,sans-serif" font-weight="400" font-size="41" transform="matrix(6.12323e-17 -1 1 6.12323e-17 4273.569306640625 1203.2621994018555)">06-Apr</text>
		</g>
		<g>
			<text fill="#595959" font-family="Verdana,Open Sans,DejaVu Sans,sans-serif" font-weight="400" font-size="41" transform="matrix(1 0 0 1 3135.4482421875 1050)">0%</text>
		</g>
		<g>
			<text fill="#595959" font-family="Verdana,Open Sans,DejaVu Sans,sans-serif" font-weight="400" font-size="41" transform="matrix(1 0 0 1 3111.96533203125 922)">20%</text>
		</g>
		<g>
			<text fill="#595959" font-family="Verdana,Open Sans,DejaVu Sans,sans-serif" font-weight="400" font-size="41" transform="matrix(1 0 0 1 3110.82421875 794)">40%</text>
		</g>
		<g>
			<text fill="#595959" font-family="Verdana,Open Sans,DejaVu Sans,sans-serif" font-weight="400" font-size="41" transform="matrix(1 0 0 1 3112.3056640625 666)">60%</text>
		</g>
		<g>
			<text fill="#595959" font-family="Verdana,Open Sans,DejaVu Sans,sans-serif" font-weight="400" font-size="41" transform="matrix(1 0 0 1 3112.04541015625 538)">80%</text>
		</g>
		<g>
			<text fill="#595959" font-family="Verdana,Open Sans,DejaVu Sans,sans-serif" font-weight="400" font-size="41" transform="matrix(1 0 0 1 3090.2841796875 410)">100%</text>
		</g>
		<g>
			<text fill="#595959" font-family="Verdana,Open Sans,DejaVu Sans,sans-serif" font-weight="400" font-size="41" transform="matrix(1 0 0 1 3556.97119140625 1321)">Week Commencing</text>
		</g>
		<g>
			<text fill="#595959" font-family="Verdana,Open Sans,DejaVu Sans,sans-serif" font-weight="400" font-size="46" transform="matrix(6.12323e-17 -1 1 6.12323e-17 3019.73 936.7665710449219)">Requests (% of Total)</text>
		</g>
		<rect x="2918.5" y="347.5" width="1760" height="1043" stroke="#D9D9D9" stroke-width="3.4375" stroke-linejoin="round" stroke-miterlimit="10" fill="none" />
		<g>
			<path d="M3228.5 1038 3249.86 1038 3271.22 1038 3292.58 1038 3313.94 1038 3335.3 1038 3356.66 1038 3378.02 1038 3399.38 1038 3420.74 1038 3442.1 1038 3463.46 1038 3484.82 1038 3506.18 1038 3527.54 1038 3548.9 1038 3570.26 1038 3591.62 1038 3612.98 1038 3634.34 1038 3655.7 1038 3677.06 1038 3698.42 1038 3719.7799999999997 1038 3741.14 1038 3762.5 1038 3783.86 1038 3805.2200000000003 1038 3826.58 1038 3847.94 1038 3869.3 1038 3890.66 1038 3912.02 1038 3933.38 1038 3954.74 1038 3976.1 1038 3997.46 1038 4018.8199999999997 1038 4040.18 1038 4061.54 1038 4082.9 1038 4104.26 1038 4125.62 1038 4146.98 1038 4168.34 1038 4189.7 1038 4211.0599999999995 1038 4232.42 1038 4253.78 1038 4275.139999999999 1038 4296.5 1038 4296.5 749.859206747301 4275.139999999999 750.3443908538584 4253.78 747.2654821077697 4232.42 746.5194038317675 4211.0599999999995 745.8055486763521 4189.7 745.625269596429 4168.34 745.5837285424925 4146.98 745.5518539372332 4125.62 745.5916587614981 4104.26 745.6264248572595 4082.9 746.5726732254989 4061.54 746.8242705611495 4040.18 746.4260841443786 4018.8199999999997 746.1408324365968 3997.46 746.1086007114674 3976.1 746.7358843125422 3954.74 747.3561118905186 3933.38 749.7549747311173 3912.02 751.708180030847 3890.66 751.761881610288 3869.3 753.5875510114441 3847.94 760.0049069239963 3826.58 757.9113031477688 3805.2200000000003 759.380873288005 3783.86 764.3156850172985 3762.5 764.3768419479462 3741.14 764.3547678374432 3719.7799999999997 764.4897401031296 3698.42 766.8609306167309 3677.06 766.8567475951404 3655.7 767.9192079463141 3634.34 768.908358113137 3612.98 771.7976640891548 3591.62 772.995900100849 3570.26 773.0047654751563 3548.9 774.0176159604634 3527.54 776.3680200175993 3506.18 776.3453368808368 3484.82 776.3465392709672 3463.46 776.3609674251002 3442.1 776.5119637903555 3420.74 778.9439765467624 3399.38 785.3332769215773 3378.02 785.3813296257167 3356.66 786.9316254516905 3335.3 788.064069053389 3313.94 789.5346539181728 3292.58 789.7270984819011 3271.22 789.5483223673614 3249.86 789.1007508003959 3228.5 788.5260313684701 3228.5 1038Z" fill="#e62d39" opacity="0.9" />
		</g>
		<g>
			<path d="M3228.5 788.5260313684701 3249.86 789.1007508003959 3271.22 789.5483223673614 3292.58 789.7270984819011 3313.94 789.5346539181728 3335.3 788.064069053389 3356.66 786.9316254516905 3378.02 785.3813296257167 3399.38 785.3332769215773 3420.74 778.9439765467624 3442.1 776.5119637903555 3463.46 776.3609674251002 3484.82 776.3465392709672 3506.18 776.3453368808368 3527.54 776.3680200175993 3548.9 774.0176159604634 3570.26 773.0047654751563 3591.62 772.995900100849 3612.98 771.7976640891548 3634.34 768.908358113137 3655.7 767.9192079463141 3677.06 766.8567475951404 3698.42 766.8609306167309 3719.7799999999997 764.4897401031296 3741.14 764.3547678374432 3762.5 764.3768419479462 3783.86 764.3156850172985 3805.2200000000003 759.380873288005 3826.58 757.9113031477688 3847.94 760.0049069239963 3869.3 753.5875510114441 3890.66 751.761881610288 3912.02 751.708180030847 3933.38 749.7549747311173 3954.74 747.3561118905186 3976.1 746.7358843125422 3997.46 746.1086007114674 4018.8199999999997 746.1408324365968 4040.18 746.4260841443786 4061.54 746.8242705611495 4082.9 746.5726732254989 4104.26 745.6264248572595 4125.62 745.5916587614981 4146.98 745.5518539372332 4168.34 745.5837285424925 4189.7 745.625269596429 4211.0599999999995 745.8055486763521 4232.42 746.5194038317675 4253.78 747.2654821077697 4275.139999999999 750.3443908538584 4296.5 749.859206747301 4296.5 531.4824060530289 4275.139999999999 531.6690142595838 4253.78 530.3351700422893 4232.42 530.1079562333385 4211.0599999999995 529.767884481243 4189.7 529.5015251143122 4168.34 529.6072381711158 4146.98 529.6759586106136 4125.62 528.943616141882 4104.26 528.9256108228878 4082.9 529.7822561735807 4061.54 530.0318797750176 4040.18 529.5742385244796 4018.8199999999997 529.1641691809261 3997.46 529.1689859268577 3976.1 529.2185804117662 3954.74 529.5448927766422 3933.38 529.3666745800084 3912.02 529.7448004770854 3890.66 529.7274153021705 3869.3 530.163015188101 3847.94 532.2645239373791 3826.58 531.3268574465264 3805.2200000000003 531.4166307781715 3783.86 531.7572224646864 3762.5 531.7708483166984 3741.14 531.8218985108718 3719.7799999999997 531.9849023445704 3698.42 531.7935729648713 3677.06 531.7864321784326 3655.7 531.5727707842481 3634.34 531.4390936505183 3612.98 532.2027211748189 3591.62 532.4711028871407 3570.26 532.4751666451237 3548.9 532.6424401194076 3527.54 532.3819588718641 3506.18 532.3762321494829 3484.82 532.3835012006392 3463.46 532.4008414612442 3442.1 531.9653947132791 3420.74 532.7065148297092 3399.38 534.1646402996798 3378.02 534.1813437994358 3356.66 534.0614406876781 3335.3 533.9651928337187 3313.94 533.7866116772315 3292.58 533.5868149898097 3271.22 533.4688532767087 3249.86 533.0768238550941 3228.5 532.663421242623 3228.5 788.5260313684701Z" fill="#005aa6" opacity="0.9" />
		</g>
		<g>
			<path d="M3228.5 532.663421242623 3249.86 533.0768238550941 3271.22 533.4688532767087 3292.58 533.5868149898097 3313.94 533.7866116772315 3335.3 533.9651928337187 3356.66 534.0614406876781 3378.02 534.1813437994358 3399.38 534.1646402996798 3420.74 532.7065148297092 3442.1 531.9653947132791 3463.46 532.4008414612442 3484.82 532.3835012006392 3506.18 532.3762321494829 3527.54 532.3819588718641 3548.9 532.6424401194076 3570.26 532.4751666451237 3591.62 532.4711028871407 3612.98 532.2027211748189 3634.34 531.4390936505183 3655.7 531.5727707842481 3677.06 531.7864321784326 3698.42 531.7935729648713 3719.7799999999997 531.9849023445704 3741.14 531.8218985108718 3762.5 531.7708483166984 3783.86 531.7572224646864 3805.2200000000003 531.4166307781715 3826.58 531.3268574465264 3847.94 532.2645239373791 3869.3 530.163015188101 3890.66 529.7274153021705 3912.02 529.7448004770854 3933.38 529.3666745800084 3954.74 529.5448927766422 3976.1 529.2185804117662 3997.46 529.1689859268577 4018.8199999999997 529.1641691809261 4040.18 529.5742385244796 4061.54 530.0318797750176 4082.9 529.7822561735807 4104.26 528.9256108228878 4125.62 528.943616141882 4146.98 529.6759586106136 4168.34 529.6072381711158 4189.7 529.5015251143122 4211.0599999999995 529.767884481243 4232.42 530.1079562333385 4253.78 530.3351700422893 4275.139999999999 531.6690142595838 4296.5 531.4824060530289 4296.5 488.0571972463991 4275.139999999999 488.49331840138825 4253.78 488.00156539342817 4232.42 487.9037558495532 4211.0599999999995 487.95222090418406 4189.7 488.0992768689666 4168.34 488.4707685226323 4146.98 488.81730930051134 4125.62 489.66218659583717 4104.26 489.6497010215789 4082.9 489.62346831140377 4061.54 490.08709103844944 4040.18 489.8264670604297 4018.8199999999997 489.6030568350501 3997.46 489.6027851684956 3976.1 489.6838400376917 3954.74 490.1068496342023 3933.38 490.9492704753914 3912.02 490.39407239534404 3890.66 490.3851968973204 3869.3 490.7185530259544 3847.94 492.30515321923616 3826.58 491.64116500384506 3805.2200000000003 491.78456573649515 3783.86 491.92955522350275 3762.5 491.93920435370626 3741.14 491.9768227136466 3719.7799999999997 492.1505952348429 3698.42 491.85600669794854 3677.06 491.8513930148632 3655.7 491.63219577145946 3634.34 491.4978977886208 3612.98 491.99009410225506 3591.62 492.16551794945576 3570.26 492.1686259707535 3548.9 492.21654806017045 3527.54 491.7116461371828 3506.18 491.70767780671554 3484.82 491.71346164432515 3463.46 491.7282826494978 3442.1 491.33050875804906 3420.74 491.76141449343754 3399.38 492.74242973299926 3378.02 492.75457857238825 3356.66 492.5918650008465 3335.3 492.35892132336346 3313.94 492.0889325160488 3292.58 491.69189364771574 3271.22 491.3732427741912 3249.86 490.8088740577118 3228.5 490.31149608874114 3228.5 532.663421242623Z" fill="#55c0e9" opacity="0.9" />
		</g>
		<g>
			<path d="M3228.5 490.31149608874114 3249.86 490.8088740577118 3271.22 491.3732427741912 3292.58 491.69189364771574 3313.94 492.0889325160488 3335.3 492.35892132336346 3356.66 492.5918650008465 3378.02 492.75457857238825 3399.38 492.74242973299926 3420.74 491.76141449343754 3442.1 491.33050875804906 3463.46 491.7282826494978 3484.82 491.71346164432515 3506.18 491.70767780671554 3527.54 491.7116461371828 3548.9 492.21654806017045 3570.26 492.1686259707535 3591.62 492.16551794945576 3612.98 491.99009410225506 3634.34 491.4978977886208 3655.7 491.63219577145946 3677.06 491.8513930148632 3698.42 491.85600669794854 3719.7799999999997 492.1505952348429 3741.14 491.9768227136466 3762.5 491.93920435370626 3783.86 491.92955522350275 3805.2200000000003 491.78456573649515 3826.58 491.64116500384506 3847.94 492.30515321923616 3869.3 490.7185530259544 3890.66 490.3851968973204 3912.02 490.39407239534404 3933.38 490.9492704753914 3954.74 490.1068496342023 3976.1 489.6838400376917 3997.46 489.6027851684956 4018.8199999999997 489.6030568350501 4040.18 489.8264670604297 4061.54 490.08709103844944 4082.9 489.62346831140377 4104.26 489.6497010215789 4125.62 489.66218659583717 4146.98 488.81730930051134 4168.34 488.4707685226323 4189.7 488.0992768689666 4211.0599999999995 487.95222090418406 4232.42 487.9037558495532 4253.78 488.00156539342817 4275.139999999999 488.49331840138825 4296.5 488.0571972463991 4296.5 475.74598723167173 4275.139999999999 476.3034641007523 4253.78 476.04032244458955 4232.42 476.08864417534 4211.0599999999995 476.2563330555304 4189.7 476.501380298194 4168.34 476.9091078280443 4146.98 477.3175055832355 4125.62 478.10739716876634 4104.26 478.09661826532414 4082.9 478.15999289365544 4061.54 478.5827424221303 4040.18 478.38419566392514 4018.8199999999997 478.2713135439936 3997.46 478.26942714386075 3976.1 478.5099393463872 3954.74 478.7941392845137 3933.38 479.58006819193264 3912.02 479.10650501970053 3890.66 479.0999411202481 3869.3 479.4072866140748 3847.94 480.96640637284213 3826.58 480.2698842349475 3805.2200000000003 480.4907637351383 3783.86 480.4086170616429 3762.5 480.41676419469263 3741.14 480.45029730465194 3719.7799999999997 480.6272134139708 3698.42 480.40305013594224 3677.06 480.39917600110454 3655.7 480.2978208961403 3634.34 480.1378211447884 3612.98 480.4875119170523 3591.62 480.62062646338103 3570.26 480.623498410782 3548.9 480.6254558284506 3527.54 479.9434244465183 3506.18 479.939862628262 3484.82 479.94505960714844 3463.46 479.95902615881243 3442.1 479.5505692873087 3420.74 479.86304908787844 3399.38 480.59388216933854 3378.02 480.6043736648512 3356.66 480.3867647714376 3335.3 480.0939647438401 3313.94 479.7308663765565 3292.58 479.2808407307956 3271.22 478.9041807209399 3249.86 478.2910364979862 3228.5 477.7828333755948 3228.5 490.31149608874114Z" fill="#f6a118" opacity="0.9" />
		</g>
		<g>
			<path d="M3228.5 477.7828333755948 3249.86 478.2910364979862 3271.22 478.9041807209399 3292.58 479.2808407307956 3313.94 479.7308663765565 3335.3 480.0939647438401 3356.66 480.3867647714376 3378.02 480.6043736648512 3399.38 480.59388216933854 3420.74 479.86304908787844 3442.1 479.5505692873087 3463.46 479.95902615881243 3484.82 479.94505960714844 3506.18 479.939862628262 3527.54 479.9434244465183 3548.9 480.6254558284506 3570.26 480.623498410782 3591.62 480.62062646338103 3612.98 480.4875119170523 3634.34 480.1378211447884 3655.7 480.2978208961403 3677.06 480.39917600110454 3698.42 480.40305013594224 3719.7799999999997 480.6272134139708 3741.14 480.45029730465194 3762.5 480.41676419469263 3783.86 480.4086170616429 3805.2200000000003 480.4907637351383 3826.58 480.2698842349475 3847.94 480.96640637284213 3869.3 479.4072866140748 3890.66 479.0999411202481 3912.02 479.10650501970053 3933.38 479.58006819193264 3954.74 478.7941392845137 3976.1 478.5099393463872 3997.46 478.26942714386075 4018.8199999999997 478.2713135439936 4040.18 478.38419566392514 4061.54 478.5827424221303 4082.9 478.15999289365544 4104.26 478.09661826532414 4125.62 478.10739716876634 4146.98 477.3175055832355 4168.34 476.9091078280443 4189.7 476.501380298194 4211.0599999999995 476.2563330555304 4232.42 476.08864417534 4253.78 476.04032244458955 4275.139999999999 476.3034641007523 4296.5 475.74598723167173 4296.5 471.35852133856207 4275.139999999999 471.9149927259896 4253.78 471.6905736054739 4232.42 471.763371221977 4211.0599999999995 471.9574850631018 4189.7 472.2340193606014 4168.34 472.6559547595341 4146.98 473.0650745461115 4125.62 473.82819172566997 4104.26 473.8181074091512 4082.9 473.8782116867164 4061.54 474.28062031125177 4040.18 474.09267029394687 4018.8199999999997 473.9897191134042 3997.46 473.9871807138114 3976.1 474.22541956826655 3954.74 474.511998002383 3933.38 475.27887736921514 3912.02 474.8518141039069 3890.66 474.8469015951653 3869.3 475.13902259765536 3847.94 476.6264014136676 3826.58 475.9675036747879 3805.2200000000003 476.1855240028958 3783.86 476.0304088632991 3762.5 476.03986709155856 3741.14 476.07416075277575 3719.7799999999997 476.25220661385714 3698.42 475.9804259287693 3677.06 475.9771097573116 3655.7 475.85734943037994 3634.34 475.67113203039463 3612.98 475.9445091636468 3591.62 476.0428252544268 3570.26 476.0456947164946 3548.9 476.0126442187972 3527.54 475.2164345015217 3506.18 475.2129700329708 3484.82 475.2181577191099 3463.46 475.2322484984899 3442.1 474.81810616673476 3420.74 475.10657399076854 3399.38 475.80132801818854 3378.02 475.81236587515644 3356.66 475.5856075858726 3335.3 475.27426702627764 3313.94 474.8948962586183 3292.58 474.4350271056565 3271.22 474.05181534663 3249.86 473.42902823737313 3228.5 472.9107308902232 3228.5 477.7828333755948Z" fill="#fdd5a4" opacity="0.9" />
		</g>
		<g>
			<path d="M3228.5 472.9107308902232 3249.86 473.42902823737313 3271.22 474.05181534663 3292.58 474.4350271056565 3313.94 474.8948962586183 3335.3 475.27426702627764 3356.66 475.5856075858726 3378.02 475.81236587515644 3399.38 475.80132801818854 3420.74 475.10657399076854 3442.1 474.81810616673476 3463.46 475.2322484984899 3484.82 475.2181577191099 3506.18 475.2129700329708 3527.54 475.2164345015217 3548.9 476.0126442187972 3570.26 476.0456947164946 3591.62 476.0428252544268 3612.98 475.9445091636468 3634.34 475.67113203039463 3655.7 475.85734943037994 3677.06 475.9771097573116 3698.42 475.9804259287693 3719.7799999999997 476.25220661385714 3741.14 476.07416075277575 3762.5 476.03986709155856 3783.86 476.0304088632991 3805.2200000000003 476.1855240028958 3826.58 475.9675036747879 3847.94 476.6264014136676 3869.3 475.13902259765536 3890.66 474.8469015951653 3912.02 474.8518141039069 3933.38 475.27887736921514 3954.74 474.511998002383 3976.1 474.22541956826655 3997.46 473.9871807138114 4018.8199999999997 473.9897191134042 4040.18 474.09267029394687 4061.54 474.28062031125177 4082.9 473.8782116867164 4104.26 473.8181074091512 4125.62 473.82819172566997 4146.98 473.0650745461115 4168.34 472.6559547595341 4189.7 472.2340193606014 4211.0599999999995 471.9574850631018 4232.42 471.763371221977 4253.78 471.6905736054739 4275.139999999999 471.9149927259896 4296.5 471.35852133856207 4296.5 468.63278021070374 4275.139999999999 469.1859358213357 4253.78 469.0039882230996 4232.42 469.0649184884676 4211.0599999999995 469.272109525969 4189.7 469.56054940240006 4168.34 470.00314366447725 4146.98 470.42216191971556 4125.62 471.16063030075713 4104.26 471.15110050258926 4082.9 471.2005668211781 4061.54 471.56419721584615 4040.18 471.35961801945126 4018.8199999999997 471.1659266751794 3997.46 471.15503597364875 3976.1 471.36241611042175 3954.74 471.63391436910644 3933.38 472.3711663447606 3912.02 471.84780556889575 3890.66 471.84385861501005 3869.3 472.0370495671892 3847.94 473.4135261402591 3826.58 472.6948042788454 3805.2200000000003 472.8722901716775 3783.86 472.3229333883161 3762.5 472.33160122478233 3741.14 472.3663150934169 3719.7799999999997 472.5454339613937 3698.42 472.089365302357 3677.06 472.0865469044695 3655.7 471.87656051033446 3634.34 471.6164928135846 3612.98 471.7330711807051 3591.62 471.76332000605703 3570.26 471.766218855925 3548.9 471.666704132637 3527.54 470.5946289838734 3506.18 470.5925960519466 3484.82 470.5979497527046 3463.46 470.6143953187705 3442.1 470.16763283113994 3420.74 470.4164498778376 3399.38 471.0661628206815 3378.02 471.07731696753683 3356.66 470.8209639445631 3335.3 470.4605146316375 3313.94 469.9795822434353 3292.58 469.45753010676304 3271.22 469.00707612997155 3249.86 468.3152661342126 3228.5 467.73514405195505 3228.5 472.9107308902232Z" fill="#f48c7d" opacity="0.9" />
		</g>
		<g>
			<path d="M3228.5 467.73514405195505 3249.86 468.3152661342126 3271.22 469.00707612997155 3292.58 469.45753010676304 3313.94 469.9795822434353 3335.3 470.4605146316375 3356.66 470.8209639445631 3378.02 471.07731696753683 3399.38 471.0661628206815 3420.74 470.4164498778376 3442.1 470.16763283113994 3463.46 470.6143953187705 3484.82 470.5979497527046 3506.18 470.5925960519466 3527.54 470.5946289838734 3548.9 471.666704132637 3570.26 471.766218855925 3591.62 471.76332000605703 3612.98 471.7330711807051 3634.34 471.6164928135846 3655.7 471.87656051033446 3677.06 472.0865469044695 3698.42 472.089365302357 3719.7799999999997 472.5454339613937 3741.14 472.3663150934169 3762.5 472.33160122478233 3783.86 472.3229333883161 3805.2200000000003 472.8722901716775 3826.58 472.6948042788454 3847.94 473.4135261402591 3869.3 472.0370495671892 3890.66 471.84385861501005 3912.02 471.84780556889575 3933.38 472.3711663447606 3954.74 471.63391436910644 3976.1 471.36241611042175 3997.46 471.15503597364875 4018.8199999999997 471.1659266751794 4040.18 471.35961801945126 4061.54 471.56419721584615 4082.9 471.2005668211781 4104.26 471.15110050258926 4125.62 471.16063030075713 4146.98 470.42216191971556 4168.34 470.00314366447725 4189.7 469.56054940240006 4211.0599999999995 469.272109525969 4232.42 469.0649184884676 4253.78 469.0039882230996 4275.139999999999 469.1859358213357 4296.5 468.63278021070374 4296.5 398 4275.139999999999 398.00000000000006 4253.78 398.00000000000006 4232.42 397.9999999999999 4211.0599999999995 398.0000000000001 4189.7 397.9999999999999 4168.34 398 4146.98 397.9999999999999 4125.62 398.0000000000001 4104.26 398 4082.9 398.00000000000006 4061.54 397.9999999999999 4040.18 398 4018.8199999999997 398.00000000000017 3997.46 398 3976.1 398.00000000000006 3954.74 397.99999999999994 3933.38 398.00000000000006 3912.02 397.9999999999999 3890.66 397.99999999999994 3869.3 398 3847.94 398 3826.58 397.99999999999994 3805.2200000000003 397.9999999999999 3783.86 398 3762.5 398 3741.14 398 3719.7799999999997 398.0000000000001 3698.42 398 3677.06 398 3655.7 398.0000000000002 3634.34 397.99999999999994 3612.98 398 3591.62 398.0000000000001 3570.26 398 3548.9 398.00000000000006 3527.54 398.00000000000006 3506.18 397.99999999999994 3484.82 398.00000000000017 3463.46 398 3442.1 398.00000000000017 3420.74 397.9999999999999 3399.38 397.9999999999999 3378.02 398.0000000000001 3356.66 397.9999999999999 3335.3 398 3313.94 397.9999999999999 3292.58 397.9999999999999 3271.22 398 3249.86 397.9999999999999 3228.5 398.0000000000001 3228.5 467.73514405195505Z" fill="#393d41" opacity="0.9" />
		</g>
		<g>
			<rect x="4372" y="431" width="22.9995" height="23" fill="#e62d39" />
		</g>
		<g>
			<text fill="#595959" font-family="Verdana,Open Sans,DejaVu Sans,sans-serif" font-weight="400" font-size="41" transform="matrix(1 0 0 1 4404.56 454)">Android</text>
		</g>
		<g>
			<rect x="4372" y="508" width="22.9995" height="23" fill="#005aa6" />
		</g>
		<g>
			<text fill="#595959" font-family="Verdana,Open Sans,DejaVu Sans,sans-serif" font-weight="400" font-size="41" transform="matrix(1 0 0 1 4404.56 531)">iOS</text>
		</g>
		<g>
			<rect x="4372" y="585" width="22.9995" height="23" fill="#55c0e9" />
		</g>
		<g>
			<text fill="#595959" font-family="Verdana,Open Sans,DejaVu Sans,sans-serif" font-weight="400" font-size="41" transform="matrix(1 0 0 1 4404.56 608)">Windows</text>
		</g>
		<g>
			<rect x="4372" y="662" width="22.9995" height="23" fill="#f6a118" />
		</g>
		<g>
			<text fill="#595959" font-family="Verdana,Open Sans,DejaVu Sans,sans-serif" font-weight="400" font-size="41" transform="matrix(1 0 0 1 4404.56 685)">macOS</text>
		</g>
		<g>
			<rect x="4372" y="739" width="22.9995" height="23" fill="#fdd5a4" />
		</g>
		<g>
			<text fill="#595959" font-family="Verdana,Open Sans,DejaVu Sans,sans-serif" font-weight="400" font-size="41" transform="matrix(1 0 0 1 4404.56 762)">Linux</text>
		</g>
		<g>
			<rect x="4372" y="816" width="22.9995" height="23" fill="#f48c7d" />
		</g>
		<g>
			<text fill="#595959" font-family="Verdana,Open Sans,DejaVu Sans,sans-serif" font-weight="400" font-size="41" transform="matrix(1 0 0 1 4404.56 839)">Other</text>
		</g>
		<g>
			<rect x="4372" y="893" width="22.9995" height="23" fill="#393d41" />
		</g>
		<g>
			<text fill="#595959" font-family="Verdana,Open Sans,DejaVu Sans,sans-serif" font-weight="400" font-size="41" transform="matrix(1 0 0 1 4404.56 916)">Unclassified</text>
		</g>
	</g>
</svg>
