<svg width="1763" height="1046"
    xmlns="http://www.w3.org/2000/svg"
	xmlns:xlink="http://www.w3.org/1999/xlink" xml:space="preserve" overflow="hidden">
	<defs>
		<clipPath id="clip0">
			<rect x="2917" y="346" width="1763" height="1046"/>
		</clipPath>
	</defs>
	<g clip-path="url(#clip0)" transform="translate(-2917 -346)">
		<rect x="2918" y="347" width="1760" height="1043" fill="#FFFFFF" />
		<g>
			<path d="
			M3228.5 974.532 4296.5 974.532
			M3228.5 910.53 4296.5 910.53
			M3228.5 846.528 4296.5 846.528
			M3228.5 781.526 4296.5 781.526
			M3228.5 717.524 4296.5 717.524
			M3228.5 653.522 4296.5 653.522
			M3228.5 589.52 4296.5 589.52
			M3228.5 525.517 4296.5 525.517
			M3228.5 461.515 4296.5 461.515
			M3228.5 397.5 4296.5 397.5" stroke="#D9D9D9" stroke-width="3.4375" stroke-linejoin="round" stroke-miterlimit="10" fill="none" />
		</g>
		<g>
			<path d="M 1038.5 4296.5 1038.5" stroke="#D9D9D9" stroke-width="3.4375" stroke-linejoin="round" stroke-miterlimit="10" fill="none" fill-rule="evenodd" />
		</g>
		<g>
			<text fill="#595959" font-family="Verdana,sans-serif" font-weight="400" font-size="41" transform="matrix(6.12323e-17 -1 1 6.12323e-17 3244.5 1225)">06-Nov</text>
		</g>
		<g>
			<text fill="#595959" font-family="Verdana,sans-serif" font-weight="400" font-size="41" transform="matrix(6.12323e-17 -1 1 6.12323e-17 3366.557142857143 1223)">04-Dec</text>
		</g>
		<g>
			<text fill="#595959" font-family="Verdana,sans-serif" font-weight="400" font-size="41" transform="matrix(6.12323e-17 -1 1 6.12323e-17 3488.614285714286 1210)">01-Jan</text>
		</g>
		<g>
			<text fill="#595959" font-family="Verdana,sans-serif" font-weight="400" font-size="41" transform="matrix(6.12323e-17 -1 1 6.12323e-17 3610.671428571429 1210)">29-Jan</text>
		</g>
		<g>
			<text fill="#595959" font-family="Verdana,sans-serif" font-weight="400" font-size="41" transform="matrix(6.12323e-17 -1 1 6.12323e-17 3732.7285714285713 1216)">26-Feb</text>
		</g>
		<g>
			<text fill="#595959" font-family="Verdana,sans-serif" font-weight="400" font-size="41" transform="matrix(6.12323e-17 -1 1 6.12323e-17 3854.785714285714 1223)">25-Mar</text>
		</g>
		<g>
			<text fill="#595959" font-family="Verdana,sans-serif" font-weight="400" font-size="41" transform="matrix(6.12323e-17 -1 1 6.12323e-17 3980.342857142857 1216)">22-Apr</text>
		</g>
		<g>
			<text fill="#595959" font-family="Verdana,sans-serif" font-weight="400" font-size="41" transform="matrix(6.12323e-17 -1 1 6.12323e-17 4102.4 1228)">20-May</text>
		</g>
		<g>
			<text fill="#595959" font-family="Verdana,sans-serif" font-weight="400" font-size="41" transform="matrix(6.12323e-17 -1 1 6.12323e-17 4220.457142857143 1209)">17-Jun</text>
		</g>
		<g>
			<text fill="#595959" font-family="Verdana,sans-serif" font-weight="400" font-size="41" transform="matrix(1 0 0 1 3123.5 1050)">0%</text>
		</g>
		<g>
			<text fill="#595959" font-family="Verdana,sans-serif" font-weight="400" font-size="41" transform="matrix(1 0 0 1 3097.5 922)">20%</text>
		</g>
		<g>
			<text fill="#595959" font-family="Verdana,sans-serif" font-weight="400" font-size="41" transform="matrix(1 0 0 1 3096.5 794)">40%</text>
		</g>
		<g>
			<text fill="#595959" font-family="Verdana,sans-serif" font-weight="400" font-size="41" transform="matrix(1 0 0 1 3097.5 666)">60%</text>
		</g>
		<g>
			<text fill="#595959" font-family="Verdana,sans-serif" font-weight="400" font-size="41" transform="matrix(1 0 0 1 3097.5 538)">80%</text>
		</g>
		<g>
			<text fill="#595959" font-family="Verdana,sans-serif" font-weight="400" font-size="41" transform="matrix(1 0 0 1 3074.5 410)">100%</text>
		</g>
		<g>
			<text fill="#595959" font-family="Verdana,sans-serif" font-weight="400" font-size="41" transform="matrix(1 0 0 1 3544.5 1321)">Week Commencing</text>
		</g>
		<g>
			<text fill="#595959" font-family="Verdana,sans-serif" font-weight="400" font-size="46" transform="matrix(6.12323e-17 -1 1 6.12323e-17 3019.73 965.25)">Requests (% of Total)</text>
		</g>
		<rect x="2918.5" y="347.5" width="1760" height="1043" stroke="#D9D9D9" stroke-width="3.4375" stroke-linejoin="round" stroke-miterlimit="10" fill="none" />
		<g>
			<path d="M3228.5 1038 3259.0142857142855 1038 3289.5285714285715 1038 3320.042857142857 1038 3350.557142857143 1038 3381.0714285714284 1038 3411.5857142857144 1038 3442.1 1038 3472.614285714286 1038 3503.1285714285714 1038 3533.6428571428573 1038 3564.157142857143 1038 3594.671428571429 1038 3625.1857142857143 1038 3655.7 1038 3686.214285714286 1038 3716.7285714285713 1038 3747.2428571428572 1038 3777.7571428571428 1038 3808.2714285714287 1038 3838.785714285714 1038 3869.3 1038 3899.8142857142857 1038 3930.328571428571 1038 3960.842857142857 1038 3991.357142857143 1038 4021.8714285714286 1038 4052.385714285714 1038 4082.9 1038 4113.414285714286 1038 4143.928571428572 1038 4174.442857142857 1038 4204.957142857143 1038 4235.471428571429 1038 4265.9857142857145 1038 4296.5 1038 4296.5 711.2928421961317 4265.9857142857145 710.6616144923173 4235.471428571429 710.307171035662 4204.957142857143 710.0229260904226 4174.442857142857 709.5011500172373 4143.928571428572 708.8529728655324 4113.414285714286 708.5111643371398 4082.9 707.6773439344757 4052.385714285714 706.7867985338357 4021.8714285714286 705.8245723100855 3991.357142857143 704.5432324401569 3960.842857142857 703.4985064623488 3930.328571428571 704.569443136712 3899.8142857142857 703.1605263419694 3869.3 701.7580858411745 3838.785714285714 700.4865286297146 3808.2714285714287 707.5245129827832 3777.7571428571428 729.2395570213952 3747.2428571428572 728.9340901988301 3716.7285714285713 728.9473274759466 3686.214285714286 728.5904699830792 3655.7 728.3059690780326 3625.1857142857143 728.4979453773899 3594.671428571429 728.9075512947094 3564.157142857143 754.11838558625 3533.6428571428573 754.1757001008984 3503.1285714285714 753.4791239997355 3472.614285714286 753.4656820270931 3442.1 754.353517736809 3411.5857142857144 755.0644960736788 3381.0714285714284 756.7936922650002 3350.557142857143 755.3104816846619 3320.042857142857 756.0108769389726 3289.5285714285715 755.8946831794725 3259.0142857142855 756.0648930613015 3228.5 754.9119747134117 3228.5 1038Z" fill="#e62d39" opacity="0.9" />
		</g>
		<g>
			<path d="M3228.5 754.9119747134117 3259.0142857142855 756.0648930613015 3289.5285714285715 755.8946831794725 3320.042857142857 756.0108769389726 3350.557142857143 755.3104816846619 3381.0714285714284 756.7936922650002 3411.5857142857144 755.0644960736788 3442.1 754.353517736809 3472.614285714286 753.4656820270931 3503.1285714285714 753.4791239997355 3533.6428571428573 754.1757001008984 3564.157142857143 754.11838558625 3594.671428571429 728.9075512947094 3625.1857142857143 728.4979453773899 3655.7 728.3059690780326 3686.214285714286 728.5904699830792 3716.7285714285713 728.9473274759466 3747.2428571428572 728.9340901988301 3777.7571428571428 729.2395570213952 3808.2714285714287 707.5245129827832 3838.785714285714 700.4865286297146 3869.3 701.7580858411745 3899.8142857142857 703.1605263419694 3930.328571428571 704.569443136712 3960.842857142857 703.4985064623488 3991.357142857143 704.5432324401569 4021.8714285714286 705.8245723100855 4052.385714285714 706.7867985338357 4082.9 707.6773439344757 4113.414285714286 708.5111643371398 4143.928571428572 708.8529728655324 4174.442857142857 709.5011500172373 4204.957142857143 710.0229260904226 4235.471428571429 710.307171035662 4265.9857142857145 710.6616144923173 4296.5 711.2928421961317 4296.5 496.45662763490196 4265.9857142857145 495.1622009511958 4235.471428571429 493.8933367325633 4204.957142857143 492.86935877863715 4174.442857142857 492.0646789770611 4143.928571428572 491.29504574396447 4113.414285714286 490.57523501016317 4082.9 490.03332941523763 4052.385714285714 489.72310243427995 4021.8714285714286 489.48234403066954 3991.357142857143 489.1962201731323 3960.842857142857 488.9387742360814 3930.328571428571 492.7506429578374 3899.8142857142857 492.8155417521196 3869.3 493.0157563584153 3838.785714285714 493.39321289046876 3808.2714285714287 506.9149616199791 3777.7571428571428 511.364965996509 3747.2428571428572 511.2846481599944 3716.7285714285713 510.42831690773556 3686.214285714286 509.62004963115277 3655.7 508.7614604393337 3625.1857142857143 509.353058075723 3594.671428571429 509.9096403086422 3564.157142857143 502.9834202621783 3533.6428571428573 503.00137208677626 3503.1285714285714 501.7071993293339 3472.614285714286 501.42221970119 3442.1 503.438874441927 3411.5857142857144 504.4310618017311 3381.0714285714284 506.598206380057 3350.557142857143 506.6117266161558 3320.042857142857 506.1745473288654 3289.5285714285715 506.70059265889057 3259.0142857142855 507.27389099062407 3228.5 506.70599006535724 3228.5 754.9119747134117Z" fill="#005aa6" opacity="0.9" />
		</g>
		<g>
			<path d="M3228.5 506.70599006535724 3259.0142857142855 507.27389099062407 3289.5285714285715 506.70059265889057 3320.042857142857 506.1745473288654 3350.557142857143 506.6117266161558 3381.0714285714284 506.598206380057 3411.5857142857144 504.4310618017311 3442.1 503.438874441927 3472.614285714286 501.42221970119 3503.1285714285714 501.7071993293339 3533.6428571428573 503.00137208677626 3564.157142857143 502.9834202621783 3594.671428571429 509.9096403086422 3625.1857142857143 509.353058075723 3655.7 508.7614604393337 3686.214285714286 509.62004963115277 3716.7285714285713 510.42831690773556 3747.2428571428572 511.2846481599944 3777.7571428571428 511.364965996509 3808.2714285714287 506.9149616199791 3838.785714285714 493.39321289046876 3869.3 493.0157563584153 3899.8142857142857 492.8155417521196 3930.328571428571 492.7506429578374 3960.842857142857 488.9387742360814 3991.357142857143 489.1962201731323 4021.8714285714286 489.48234403066954 4052.385714285714 489.72310243427995 4082.9 490.03332941523763 4113.414285714286 490.57523501016317 4143.928571428572 491.29504574396447 4174.442857142857 492.0646789770611 4204.957142857143 492.86935877863715 4235.471428571429 493.8933367325633 4265.9857142857145 495.1622009511958 4296.5 496.45662763490196 4296.5 453.9844912065713 4265.9857142857145 452.5053589477677 4235.471428571429 451.07476537844235 4204.957142857143 449.87375657582817 4174.442857142857 448.9328850656446 4143.928571428572 448.0557909288758 4113.414285714286 447.2525039284088 4082.9 446.6761477523823 4052.385714285714 446.4456437459776 4021.8714285714286 446.28136252321144 3991.357142857143 446.10487752564853 3960.842857142857 445.9636538385128 3930.328571428571 450.12178949359264 3899.8142857142857 450.19759580620007 3869.3 450.31641232434566 3838.785714285714 450.53485482006914 3808.2714285714287 465.04034483521883 3777.7571428571428 466.06050698928533 3747.2428571428572 466.040310950835 3716.7285714285713 465.54550807778793 3686.214285714286 465.0596958871918 3655.7 464.56231790755743 3625.1857142857143 464.9559197775319 3594.671428571429 465.35219027138237 3564.157142857143 461.61567429168343 3533.6428571428573 461.61568788936546 3503.1285714285714 459.82950021460965 3472.614285714286 460.450441231452 3442.1 460.9910561402767 3411.5857142857144 461.5797281754641 3381.0714285714284 463.2835029039877 3350.557142857143 463.16152563435577 3320.042857142857 463.4857438622545 3289.5285714285715 463.49009877890694 3259.0142857142855 463.78618648036564 3228.5 463.7315547177501 3228.5 506.70599006535724Z" fill="#55c0e9" opacity="0.9" />
		</g>
		<g>
			<path d="M3228.5 463.7315547177501 3259.0142857142855 463.78618648036564 3289.5285714285715 463.49009877890694 3320.042857142857 463.4857438622545 3350.557142857143 463.16152563435577 3381.0714285714284 463.2835029039877 3411.5857142857144 461.5797281754641 3442.1 460.9910561402767 3472.614285714286 460.450441231452 3503.1285714285714 459.82950021460965 3533.6428571428573 461.61568788936546 3564.157142857143 461.61567429168343 3594.671428571429 465.35219027138237 3625.1857142857143 464.9559197775319 3655.7 464.56231790755743 3686.214285714286 465.0596958871918 3716.7285714285713 465.54550807778793 3747.2428571428572 466.040310950835 3777.7571428571428 466.06050698928533 3808.2714285714287 465.04034483521883 3838.785714285714 450.53485482006914 3869.3 450.31641232434566 3899.8142857142857 450.19759580620007 3930.328571428571 450.12178949359264 3960.842857142857 445.9636538385128 3991.357142857143 446.10487752564853 4021.8714285714286 446.28136252321144 4052.385714285714 446.4456437459776 4082.9 446.6761477523823 4113.414285714286 447.2525039284088 4143.928571428572 448.0557909288758 4174.442857142857 448.9328850656446 4204.957142857143 449.87375657582817 4235.471428571429 451.07476537844235 4265.9857142857145 452.5053589477677 4296.5 453.9844912065713 4296.5 441.5224522868679 4265.9857142857145 440.02872439510173 4235.471428571429 438.5911754273753 4204.957142857143 437.36935007449506 4174.442857142857 436.4113820386986 4143.928571428572 435.5243027869889 4113.414285714286 434.7122259498071 4082.9 434.13110745861906 4052.385714285714 433.9141397981283 4021.8714285714286 433.7506297603656 3991.357142857143 433.55919918545516 3960.842857142857 433.40054840431145 3930.328571428571 437.6127108681739 3899.8142857142857 437.66723491500807 3869.3 437.73656952866384 3838.785714285714 437.87360524960343 3808.2714285714287 452.6366317106452 3777.7571428571428 450.90613014226784 3747.2428571428572 450.8850550677488 3716.7285714285713 450.4868239386605 3686.214285714286 450.086582389552 3655.7 449.68019116783887 3625.1857142857143 449.97158494345933 3594.671428571429 450.2601617230179 3564.157142857143 447.4043899537403 3533.6428571428573 447.3983203480143 3503.1285714285714 445.3845841013251 3472.614285714286 445.8199610630829 3442.1 446.18152349671493 3411.5857142857144 446.5432723305962 3381.0714285714284 447.8921220090762 3350.557142857143 447.8271269745522 3320.042857142857 447.8959874216182 3289.5285714285715 447.83237862615306 3259.0142857142855 448.04152904681933 3228.5 448.1117462595999 3228.5 463.7315547177501Z" fill="#f6a118" opacity="0.9" />
		</g>
		<g>
			<path d="M3228.5 448.1117462595999 3259.0142857142855 448.04152904681933 3289.5285714285715 447.83237862615306 3320.042857142857 447.8959874216182 3350.557142857143 447.8271269745522 3381.0714285714284 447.8921220090762 3411.5857142857144 446.5432723305962 3442.1 446.18152349671493 3472.614285714286 445.8199610630829 3503.1285714285714 445.3845841013251 3533.6428571428573 447.3983203480143 3564.157142857143 447.4043899537403 3594.671428571429 450.2601617230179 3625.1857142857143 449.97158494345933 3655.7 449.68019116783887 3686.214285714286 450.086582389552 3716.7285714285713 450.4868239386605 3747.2428571428572 450.8850550677488 3777.7571428571428 450.90613014226784 3808.2714285714287 452.6366317106452 3838.785714285714 437.87360524960343 3869.3 437.73656952866384 3899.8142857142857 437.66723491500807 3930.328571428571 437.6127108681739 3960.842857142857 433.40054840431145 3991.357142857143 433.55919918545516 4021.8714285714286 433.7506297603656 4052.385714285714 433.9141397981283 4082.9 434.13110745861906 4113.414285714286 434.7122259498071 4143.928571428572 435.5243027869889 4174.442857142857 436.4113820386986 4204.957142857143 437.36935007449506 4235.471428571429 438.5911754273753 4265.9857142857145 440.02872439510173 4296.5 441.5224522868679 4296.5 436.45931716608146 4265.9857142857145 434.9725271047773 4235.471428571429 433.5415615660502 4204.957142857143 432.3203932157333 4174.442857142857 431.3782566408658 4143.928571428572 430.5117297264795 4113.414285714286 429.7249311165208 4082.9 429.1613894967009 4052.385714285714 428.96097997032933 4021.8714285714286 428.8105160166967 3991.357142857143 428.64236977976526 3960.842857142857 428.50399955057856 3930.328571428571 432.7535502158639 3899.8142857142857 432.80627389640455 3869.3 432.8676017835308 3838.785714285714 432.98806566692065 3808.2714285714287 447.8607653758795 3777.7571428571428 445.04971196915034 3747.2428571428572 445.0840675736475 3716.7285714285713 444.7823876121957 3686.214285714286 444.47619554519974 3655.7 444.146022913635 3625.1857142857143 444.4117939256318 3594.671428571429 444.6840228236209 3564.157142857143 442.25084027575355 3533.6428571428573 442.3504661409793 3503.1285714285714 442.53952888382247 3472.614285714286 442.9800177196567 3442.1 443.356171040563 3411.5857142857144 443.72631556735075 3381.0714285714284 445.03130789311024 3350.557142857143 445.0069493077504 3320.042857142857 445.1092685889405 3289.5285714285715 445.086470806383 3259.0142857142855 445.33465660164404 3228.5 445.4445406291664 3228.5 448.1117462595999Z" fill="#fdd5a4" opacity="0.9" />
		</g>
		<g>
			<path d="M3228.5 445.4445406291664 3259.0142857142855 445.33465660164404 3289.5285714285715 445.086470806383 3320.042857142857 445.1092685889405 3350.557142857143 445.0069493077504 3381.0714285714284 445.03130789311024 3411.5857142857144 443.72631556735075 3442.1 443.356171040563 3472.614285714286 442.9800177196567 3503.1285714285714 442.53952888382247 3533.6428571428573 442.3504661409793 3564.157142857143 442.25084027575355 3594.671428571429 444.6840228236209 3625.1857142857143 444.4117939256318 3655.7 444.146022913635 3686.214285714286 444.47619554519974 3716.7285714285713 444.7823876121957 3747.2428571428572 445.0840675736475 3777.7571428571428 445.04971196915034 3808.2714285714287 447.8607653758795 3838.785714285714 432.98806566692065 3869.3 432.8676017835308 3899.8142857142857 432.80627389640455 3930.328571428571 432.7535502158639 3960.842857142857 428.50399955057856 3991.357142857143 428.64236977976526 4021.8714285714286 428.8105160166967 4052.385714285714 428.96097997032933 4082.9 429.1613894967009 4113.414285714286 429.7249311165208 4143.928571428572 430.5117297264795 4174.442857142857 431.3782566408658 4204.957142857143 432.3203932157333 4235.471428571429 433.5415615660502 4265.9857142857145 434.9725271047773 4296.5 436.45931716608146 4296.5 433.22158409139143 4265.9857142857145 431.7348695488416 4235.471428571429 430.30784750779037 4204.957142857143 429.09159001631633 4174.442857142857 428.1595197737724 4143.928571428572 427.30225741502903 4113.414285714286 426.52676679830296 4082.9 425.97200661481094 4052.385714285714 425.7866796521752 4021.8714285714286 425.65149111446993 3991.357142857143 425.49532897112516 3960.842857142857 425.3719419226974 3930.328571428571 429.64793603777895 3899.8142857142857 429.7004140998976 3869.3 429.76313464334123 3838.785714285714 429.88054742773767 3808.2714285714287 444.82124955246854 3777.7571428571428 441.7030292243726 3747.2428571428572 441.7535822416807 3716.7285714285713 441.49228637208546 3686.214285714286 441.22475501262005 3655.7 440.9301919465814 3625.1857142857143 441.18998724924035 3594.671428571429 441.4614784607988 3564.157142857143 438.541557440145 3533.6428571428573 438.64340053541537 3503.1285714285714 439.0626692950935 3472.614285714286 439.5322445329365 3442.1 439.87296049890585 3411.5857142857144 440.24550709230834 3381.0714285714284 441.51454062796347 3350.557142857143 441.47847627408726 3320.042857142857 441.590477687704 3289.5285714285715 441.6852312927996 3259.0142857142855 441.8542748642629 3228.5 442.02286207693095 3228.5 445.4445406291664Z" fill="#f48c7d" opacity="0.9" />
		</g>
		<g>
			<path d="M3228.5 442.02286207693095 3259.0142857142855 441.8542748642629 3289.5285714285715 441.6852312927996 3320.042857142857 441.590477687704 3350.557142857143 441.47847627408726 3381.0714285714284 441.51454062796347 3411.5857142857144 440.24550709230834 3442.1 439.87296049890585 3472.614285714286 439.5322445329365 3503.1285714285714 439.0626692950935 3533.6428571428573 438.64340053541537 3564.157142857143 438.541557440145 3594.671428571429 441.4614784607988 3625.1857142857143 441.18998724924035 3655.7 440.9301919465814 3686.214285714286 441.22475501262005 3716.7285714285713 441.49228637208546 3747.2428571428572 441.7535822416807 3777.7571428571428 441.7030292243726 3808.2714285714287 444.82124955246854 3838.785714285714 429.88054742773767 3869.3 429.76313464334123 3899.8142857142857 429.7004140998976 3930.328571428571 429.64793603777895 3960.842857142857 425.3719419226974 3991.357142857143 425.49532897112516 4021.8714285714286 425.65149111446993 4052.385714285714 425.7866796521752 4082.9 425.97200661481094 4113.414285714286 426.52676679830296 4143.928571428572 427.30225741502903 4174.442857142857 428.1595197737724 4204.957142857143 429.09159001631633 4235.471428571429 430.30784750779037 4265.9857142857145 431.7348695488416 4296.5 433.22158409139143 4296.5 397.99999999999994 4265.9857142857145 398.00000000000017 4235.471428571429 397.99999999999994 4204.957142857143 397.99999999999994 4174.442857142857 398 4143.928571428572 398 4113.414285714286 398.00000000000017 4082.9 398 4052.385714285714 398.00000000000006 4021.8714285714286 397.9999999999999 3991.357142857143 398 3960.842857142857 397.99999999999994 3930.328571428571 398.00000000000006 3899.8142857142857 398.0000000000001 3869.3 398.00000000000006 3838.785714285714 398.00000000000006 3808.2714285714287 398.0000000000001 3777.7571428571428 398.0000000000001 3747.2428571428572 398 3716.7285714285713 398 3686.214285714286 397.99999999999994 3655.7 397.9999999999999 3625.1857142857143 398.0000000000001 3594.671428571429 397.99999999999994 3564.157142857143 398 3533.6428571428573 397.99999999999994 3503.1285714285714 398.00000000000006 3472.614285714286 398 3442.1 397.99999999999994 3411.5857142857144 397.99999999999983 3381.0714285714284 397.9999999999999 3350.557142857143 398 3320.042857142857 398 3289.5285714285715 397.9999999999999 3259.0142857142855 397.9999999999999 3228.5 398.0000000000001 3228.5 442.02286207693095Z" fill="#393d41" opacity="0.9" />
		</g>
		<g>
			<rect x="4372" y="431" width="22.9995" height="23" fill="#e62d39" />
		</g>
		<g>
			<text fill="#595959" font-family="Verdana,sans-serif" font-weight="400" font-size="41" transform="matrix(1 0 0 1 4404.56 454)">iOS</text>
		</g>
		<g>
			<rect x="4372" y="508" width="22.9995" height="23" fill="#005aa6" />
		</g>
		<g>
			<text fill="#595959" font-family="Verdana,sans-serif" font-weight="400" font-size="41" transform="matrix(1 0 0 1 4404.56 531)">Android</text>
		</g>
		<g>
			<rect x="4372" y="585" width="22.9995" height="23" fill="#55c0e9" />
		</g>
		<g>
			<text fill="#595959" font-family="Verdana,sans-serif" font-weight="400" font-size="41" transform="matrix(1 0 0 1 4404.56 608)">Windows</text>
		</g>
		<g>
			<rect x="4372" y="662" width="22.9995" height="23" fill="#f6a118" />
		</g>
		<g>
			<text fill="#595959" font-family="Verdana,sans-serif" font-weight="400" font-size="41" transform="matrix(1 0 0 1 4404.56 685)">macOS</text>
		</g>
		<g>
			<rect x="4372" y="739" width="22.9995" height="23" fill="#fdd5a4" />
		</g>
		<g>
			<text fill="#595959" font-family="Verdana,sans-serif" font-weight="400" font-size="41" transform="matrix(1 0 0 1 4404.56 762)">Other</text>
		</g>
		<g>
			<rect x="4372" y="816" width="22.9995" height="23" fill="#f48c7d" />
		</g>
		<g>
			<text fill="#595959" font-family="Verdana,sans-serif" font-weight="400" font-size="41" transform="matrix(1 0 0 1 4404.56 839)">Linux</text>
		</g>
		<g>
			<rect x="4372" y="893" width="22.9995" height="23" fill="#393d41" />
		</g>
		<g>
			<text fill="#595959" font-family="Verdana,sans-serif" font-weight="400" font-size="41" transform="matrix(1 0 0 1 4404.56 916)">Unclassified</text>
		</g>
	</g>
</svg>
