<svg width="1763" height="1046"
    xmlns="http://www.w3.org/2000/svg"
	xmlns:xlink="http://www.w3.org/1999/xlink" xml:space="preserve" overflow="hidden">
	<defs>
		<clipPath id="clip0">
			<rect x="2917" y="346" width="1763" height="1046"/>
		</clipPath>
	</defs>
	<g clip-path="url(#clip0)" transform="translate(-2917 -346)">
		<rect x="2918" y="347" width="1760" height="1043" fill="#FFFFFF" />
		<g>
			<path d="
			M3228.5 974.532 4296.5 974.532
			M3228.5 910.53 4296.5 910.53
			M3228.5 846.528 4296.5 846.528
			M3228.5 781.526 4296.5 781.526
			M3228.5 717.524 4296.5 717.524
			M3228.5 653.522 4296.5 653.522
			M3228.5 589.52 4296.5 589.52
			M3228.5 525.517 4296.5 525.517
			M3228.5 461.515 4296.5 461.515
			M3228.5 397.5 4296.5 397.5" stroke="#D9D9D9" stroke-width="3.4375" stroke-linejoin="round" stroke-miterlimit="10" fill="none" />
		</g>
		<g>
			<path d="M 1038.5 4296.5 1038.5" stroke="#D9D9D9" stroke-width="3.4375" stroke-linejoin="round" stroke-miterlimit="10" fill="none" fill-rule="evenodd" />
		</g>
		<g>
			<text fill="#595959" font-family="Verdana,Open Sans,DejaVu Sans,sans-serif" font-weight="400" font-size="41" transform="matrix(6.12323e-17 -1 1 6.12323e-17 3247.928955078125 1179.0385665893555)">21-Jul</text>
		</g>
		<g>
			<text fill="#595959" font-family="Verdana,Open Sans,DejaVu Sans,sans-serif" font-weight="400" font-size="41" transform="matrix(6.12323e-17 -1 1 6.12323e-17 3330.423133263221 1206.90576171875)">18-Aug</text>
		</g>
		<g>
			<text fill="#595959" font-family="Verdana,Open Sans,DejaVu Sans,sans-serif" font-weight="400" font-size="41" transform="matrix(6.12323e-17 -1 1 6.12323e-17 3412.5769794170674 1202.66162109375)">15-Sep</text>
		</g>
		<g>
			<text fill="#595959" font-family="Verdana,Open Sans,DejaVu Sans,sans-serif" font-weight="400" font-size="41" transform="matrix(6.12323e-17 -1 1 6.12323e-17 3490.0262357271636 1199.3784103393555)">13-Oct</text>
		</g>
		<g>
			<text fill="#595959" font-family="Verdana,Open Sans,DejaVu Sans,sans-serif" font-weight="400" font-size="41" transform="matrix(6.12323e-17 -1 1 6.12323e-17 3572.1800818810098 1209.70849609375)">10-Nov</text>
		</g>
		<g>
			<text fill="#595959" font-family="Verdana,Open Sans,DejaVu Sans,sans-serif" font-weight="400" font-size="41" transform="matrix(6.12323e-17 -1 1 6.12323e-17 3654.333928034856 1207.0859375)">08-Dec</text>
		</g>
		<g>
			<text fill="#595959" font-family="Verdana,Open Sans,DejaVu Sans,sans-serif" font-weight="400" font-size="41" transform="matrix(6.12323e-17 -1 1 6.12323e-17 3740.141338641827 1191.6508712768555)">05-Jan</text>
		</g>
		<g>
			<text fill="#595959" font-family="Verdana,Open Sans,DejaVu Sans,sans-serif" font-weight="400" font-size="41" transform="matrix(6.12323e-17 -1 1 6.12323e-17 3819.352313701923 1203.0419921875)">02-Feb</text>
		</g>
		<g>
			<text fill="#595959" font-family="Verdana,Open Sans,DejaVu Sans,sans-serif" font-weight="400" font-size="41" transform="matrix(6.12323e-17 -1 1 6.12323e-17 3900.7954664963945 1212.0107421875)">02-Mar</text>
		</g>
		<g>
			<text fill="#595959" font-family="Verdana,Open Sans,DejaVu Sans,sans-serif" font-weight="400" font-size="41" transform="matrix(6.12323e-17 -1 1 6.12323e-17 3982.9493126502402 1212.1708984375)">30-Mar</text>
		</g>
		<g>
			<text fill="#595959" font-family="Verdana,Open Sans,DejaVu Sans,sans-serif" font-weight="400" font-size="41" transform="matrix(6.12323e-17 -1 1 6.12323e-17 4069.807748647837 1203.3022384643555)">27-Apr</text>
		</g>
		<g>
			<text fill="#595959" font-family="Verdana,Open Sans,DejaVu Sans,sans-serif" font-weight="400" font-size="41" transform="matrix(6.12323e-17 -1 1 6.12323e-17 4151.961594801683 1216.51513671875)">25-May</text>
		</g>
		<g>
			<text fill="#595959" font-family="Verdana,Open Sans,DejaVu Sans,sans-serif" font-weight="400" font-size="41" transform="matrix(6.12323e-17 -1 1 6.12323e-17 4233.044396033654 1194.0532150268555)">22-Jun</text>
		</g>
		<g>
			<text fill="#595959" font-family="Verdana,Open Sans,DejaVu Sans,sans-serif" font-weight="400" font-size="41" transform="matrix(6.12323e-17 -1 1 6.12323e-17 4315.928955078125 1179.0385665893555)">20-Jul</text>
		</g>
		<g>
			<text fill="#595959" font-family="Verdana,Open Sans,DejaVu Sans,sans-serif" font-weight="400" font-size="41" transform="matrix(1 0 0 1 3135.4482421875 1050)">0%</text>
		</g>
		<g>
			<text fill="#595959" font-family="Verdana,Open Sans,DejaVu Sans,sans-serif" font-weight="400" font-size="41" transform="matrix(1 0 0 1 3111.96533203125 922)">20%</text>
		</g>
		<g>
			<text fill="#595959" font-family="Verdana,Open Sans,DejaVu Sans,sans-serif" font-weight="400" font-size="41" transform="matrix(1 0 0 1 3110.82421875 794)">40%</text>
		</g>
		<g>
			<text fill="#595959" font-family="Verdana,Open Sans,DejaVu Sans,sans-serif" font-weight="400" font-size="41" transform="matrix(1 0 0 1 3112.3056640625 666)">60%</text>
		</g>
		<g>
			<text fill="#595959" font-family="Verdana,Open Sans,DejaVu Sans,sans-serif" font-weight="400" font-size="41" transform="matrix(1 0 0 1 3112.04541015625 538)">80%</text>
		</g>
		<g>
			<text fill="#595959" font-family="Verdana,Open Sans,DejaVu Sans,sans-serif" font-weight="400" font-size="41" transform="matrix(1 0 0 1 3090.2841796875 410)">100%</text>
		</g>
		<g>
			<text fill="#595959" font-family="Verdana,Open Sans,DejaVu Sans,sans-serif" font-weight="400" font-size="41" transform="matrix(1 0 0 1 3556.97119140625 1321)">Week Commencing</text>
		</g>
		<g>
			<text fill="#595959" font-family="Verdana,Open Sans,DejaVu Sans,sans-serif" font-weight="400" font-size="46" transform="matrix(6.12323e-17 -1 1 6.12323e-17 3019.73 936.7665710449219)">Requests (% of Total)</text>
		</g>
		<rect x="2918.5" y="347.5" width="1760" height="1043" stroke="#D9D9D9" stroke-width="3.4375" stroke-linejoin="round" stroke-miterlimit="10" fill="none" />
		<g>
			<path d="M3228.5 1038 3249.0384615384614 1038 3269.576923076923 1038 3290.1153846153848 1038 3310.653846153846 1038 3331.1923076923076 1038 3351.730769230769 1038 3372.269230769231 1038 3392.8076923076924 1038 3413.346153846154 1038 3433.8846153846152 1038 3454.423076923077 1038 3474.9615384615386 1038 3495.5 1038 3516.0384615384614 1038 3536.576923076923 1038 3557.1153846153848 1038 3577.653846153846 1038 3598.1923076923076 1038 3618.7307692307695 1038 3639.269230769231 1038 3659.8076923076924 1038 3680.346153846154 1038 3700.8846153846152 1038 3721.423076923077 1038 3741.9615384615386 1038 3762.5 1038 3783.0384615384614 1038 3803.576923076923 1038 3824.1153846153848 1038 3844.653846153846 1038 3865.1923076923076 1038 3885.7307692307695 1038 3906.269230769231 1038 3926.8076923076924 1038 3947.346153846154 1038 3967.8846153846152 1038 3988.423076923077 1038 4008.9615384615386 1038 4029.5 1038 4050.038461538462 1038 4070.576923076923 1038 4091.1153846153848 1038 4111.653846153846 1038 4132.192307692308 1038 4152.7307692307695 1038 4173.2692307692305 1038 4193.807692307692 1038 4214.346153846154 1038 4234.884615384615 1038 4255.423076923077 1038 4275.961538461539 1038 4296.5 1038 4296.5 697.6738168228482 4275.961538461539 747.9171720840526 4255.423076923077 762.4516997727762 4234.884615384615 762.4414399317106 4214.346153846154 759.9840759561162 4193.807692307692 758.5336466989722 4173.2692307692305 757.425801176804 4152.7307692307695 754.7311760842077 4132.192307692308 754.7526261770736 4111.653846153846 754.7905253112169 4091.1153846153848 753.5737063905224 4070.576923076923 752.5091044751014 4050.038461538462 751.1909604384529 4029.5 749.859206747301 4008.9615384615386 750.3443908538584 3988.423076923077 747.2654821077697 3967.8846153846152 746.5194038317675 3947.346153846154 745.8055486763521 3926.8076923076924 745.625269596429 3906.269230769231 745.5837285424925 3885.7307692307695 745.5518539372332 3865.1923076923076 745.5916587614981 3844.653846153846 745.6264248572595 3824.1153846153848 746.5726732254989 3803.576923076923 746.8242705611495 3783.0384615384614 746.4260841443786 3762.5 746.1408324365968 3741.9615384615386 746.1086007114674 3721.423076923077 746.7358843125422 3700.8846153846152 747.3561118905186 3680.346153846154 749.7549747311173 3659.8076923076924 751.708180030847 3639.269230769231 751.761881610288 3618.7307692307695 753.5875510114441 3598.1923076923076 760.0049069239963 3577.653846153846 757.9113031477688 3557.1153846153848 759.380873288005 3536.576923076923 764.3156850172985 3516.0384615384614 764.3768419479462 3495.5 764.3547678374432 3474.9615384615386 764.4897401031296 3454.423076923077 766.8609306167309 3433.8846153846152 766.8567475951404 3413.346153846154 767.9192079463141 3392.8076923076924 768.908358113137 3372.269230769231 771.7976640891548 3351.730769230769 772.995900100849 3331.1923076923076 773.0047654751563 3310.653846153846 774.0176159604634 3290.1153846153848 776.3680200175993 3269.576923076923 776.3453368808368 3249.0384615384614 776.3465392709672 3228.5 776.3609674251002 3228.5 1038Z" fill="#e62d39" opacity="0.9" />
		</g>
		<g>
			<path d="M3228.5 776.3609674251002 3249.0384615384614 776.3465392709672 3269.576923076923 776.3453368808368 3290.1153846153848 776.3680200175993 3310.653846153846 774.0176159604634 3331.1923076923076 773.0047654751563 3351.730769230769 772.995900100849 3372.269230769231 771.7976640891548 3392.8076923076924 768.908358113137 3413.346153846154 767.9192079463141 3433.8846153846152 766.8567475951404 3454.423076923077 766.8609306167309 3474.9615384615386 764.4897401031296 3495.5 764.3547678374432 3516.0384615384614 764.3768419479462 3536.576923076923 764.3156850172985 3557.1153846153848 759.380873288005 3577.653846153846 757.9113031477688 3598.1923076923076 760.0049069239963 3618.7307692307695 753.5875510114441 3639.269230769231 751.761881610288 3659.8076923076924 751.708180030847 3680.346153846154 749.7549747311173 3700.8846153846152 747.3561118905186 3721.423076923077 746.7358843125422 3741.9615384615386 746.1086007114674 3762.5 746.1408324365968 3783.0384615384614 746.4260841443786 3803.576923076923 746.8242705611495 3824.1153846153848 746.5726732254989 3844.653846153846 745.6264248572595 3865.1923076923076 745.5916587614981 3885.7307692307695 745.5518539372332 3906.269230769231 745.5837285424925 3926.8076923076924 745.625269596429 3947.346153846154 745.8055486763521 3967.8846153846152 746.5194038317675 3988.423076923077 747.2654821077697 4008.9615384615386 750.3443908538584 4029.5 749.859206747301 4050.038461538462 751.1909604384529 4070.576923076923 752.5091044751014 4091.1153846153848 753.5737063905224 4111.653846153846 754.7905253112169 4132.192307692308 754.7526261770736 4152.7307692307695 754.7311760842077 4173.2692307692305 757.425801176804 4193.807692307692 758.5336466989722 4214.346153846154 759.9840759561162 4234.884615384615 762.4414399317106 4255.423076923077 762.4516997727762 4275.961538461539 747.9171720840526 4296.5 697.6738168228482 4296.5 516.0871900350435 4275.961538461539 525.7490089840455 4255.423076923077 533.5030395654776 4234.884615384615 533.5130171253311 4214.346153846154 532.5772154009873 4193.807692307692 532.095600140126 4173.2692307692305 531.7654388285994 4152.7307692307695 531.3085827178397 4132.192307692308 531.3031911324066 4111.653846153846 531.3007083398543 4091.1153846153848 531.2896928062746 4070.576923076923 531.4874215112181 4050.038461538462 531.6206852488414 4029.5 531.4824060530289 4008.9615384615386 531.6690142595838 3988.423076923077 530.3351700422893 3967.8846153846152 530.1079562333385 3947.346153846154 529.767884481243 3926.8076923076924 529.5015251143122 3906.269230769231 529.6072381711158 3885.7307692307695 529.6759586106136 3865.1923076923076 528.943616141882 3844.653846153846 528.9256108228878 3824.1153846153848 529.7822561735807 3803.576923076923 530.0318797750176 3783.0384615384614 529.5742385244796 3762.5 529.1641691809261 3741.9615384615386 529.1689859268577 3721.423076923077 529.2185804117662 3700.8846153846152 529.5448927766422 3680.346153846154 529.3666745800084 3659.8076923076924 529.7448004770854 3639.269230769231 529.7274153021705 3618.7307692307695 530.163015188101 3598.1923076923076 532.2645239373791 3577.653846153846 531.3268574465264 3557.1153846153848 531.4166307781715 3536.576923076923 531.7572224646864 3516.0384615384614 531.7708483166984 3495.5 531.8218985108718 3474.9615384615386 531.9849023445704 3454.423076923077 531.7935729648713 3433.8846153846152 531.7864321784326 3413.346153846154 531.5727707842481 3392.8076923076924 531.4390936505183 3372.269230769231 532.2027211748189 3351.730769230769 532.4711028871407 3331.1923076923076 532.4751666451237 3310.653846153846 532.6424401194076 3290.1153846153848 532.3819588718641 3269.576923076923 532.3762321494829 3249.0384615384614 532.3835012006392 3228.5 532.4008414612442 3228.5 776.3609674251002Z" fill="#005aa6" opacity="0.9" />
		</g>
		<g>
			<path d="M3228.5 532.4008414612442 3249.0384615384614 532.3835012006392 3269.576923076923 532.3762321494829 3290.1153846153848 532.3819588718641 3310.653846153846 532.6424401194076 3331.1923076923076 532.4751666451237 3351.730769230769 532.4711028871407 3372.269230769231 532.2027211748189 3392.8076923076924 531.4390936505183 3413.346153846154 531.5727707842481 3433.8846153846152 531.7864321784326 3454.423076923077 531.7935729648713 3474.9615384615386 531.9849023445704 3495.5 531.8218985108718 3516.0384615384614 531.7708483166984 3536.576923076923 531.7572224646864 3557.1153846153848 531.4166307781715 3577.653846153846 531.3268574465264 3598.1923076923076 532.2645239373791 3618.7307692307695 530.163015188101 3639.269230769231 529.7274153021705 3659.8076923076924 529.7448004770854 3680.346153846154 529.3666745800084 3700.8846153846152 529.5448927766422 3721.423076923077 529.2185804117662 3741.9615384615386 529.1689859268577 3762.5 529.1641691809261 3783.0384615384614 529.5742385244796 3803.576923076923 530.0318797750176 3824.1153846153848 529.7822561735807 3844.653846153846 528.9256108228878 3865.1923076923076 528.943616141882 3885.7307692307695 529.6759586106136 3906.269230769231 529.6072381711158 3926.8076923076924 529.5015251143122 3947.346153846154 529.767884481243 3967.8846153846152 530.1079562333385 3988.423076923077 530.3351700422893 4008.9615384615386 531.6690142595838 4029.5 531.4824060530289 4050.038461538462 531.6206852488414 4070.576923076923 531.4874215112181 4091.1153846153848 531.2896928062746 4111.653846153846 531.3007083398543 4132.192307692308 531.3031911324066 4152.7307692307695 531.3085827178397 4173.2692307692305 531.7654388285994 4193.807692307692 532.095600140126 4214.346153846154 532.5772154009873 4234.884615384615 533.5130171253311 4255.423076923077 533.5030395654776 4275.961538461539 525.7490089840455 4296.5 516.0871900350435 4296.5 475.5980452492486 4275.961538461539 486.96996590666026 4255.423076923077 485.67279984338205 4234.884615384615 485.6796277406367 4214.346153846154 485.34909899972735 4193.807692307692 485.39948958456085 4173.2692307692305 485.59231788424785 4152.7307692307695 486.2135396268373 4132.192307692308 486.20900192755903 4111.653846153846 486.20889715304327 4091.1153846153848 486.6118670637434 4070.576923076923 487.2177518598812 4050.038461538462 487.710660836673 4029.5 488.0571972463991 4008.9615384615386 488.49331840138825 3988.423076923077 488.00156539342817 3967.8846153846152 487.9037558495532 3947.346153846154 487.95222090418406 3926.8076923076924 488.0992768689666 3906.269230769231 488.4707685226323 3885.7307692307695 488.81730930051134 3865.1923076923076 489.66218659583717 3844.653846153846 489.6497010215789 3824.1153846153848 489.62346831140377 3803.576923076923 490.08709103844944 3783.0384615384614 489.8264670604297 3762.5 489.6030568350501 3741.9615384615386 489.6027851684956 3721.423076923077 489.6838400376917 3700.8846153846152 490.1068496342023 3680.346153846154 490.9492704753914 3659.8076923076924 490.39407239534404 3639.269230769231 490.3851968973204 3618.7307692307695 490.7185530259544 3598.1923076923076 492.30515321923616 3577.653846153846 491.64116500384506 3557.1153846153848 491.78456573649515 3536.576923076923 491.92955522350275 3516.0384615384614 491.93920435370626 3495.5 491.9768227136466 3474.9615384615386 492.1505952348429 3454.423076923077 491.85600669794854 3433.8846153846152 491.8513930148632 3413.346153846154 491.63219577145946 3392.8076923076924 491.4978977886208 3372.269230769231 491.99009410225506 3351.730769230769 492.16551794945576 3331.1923076923076 492.1686259707535 3310.653846153846 492.21654806017045 3290.1153846153848 491.7116461371828 3269.576923076923 491.70767780671554 3249.0384615384614 491.71346164432515 3228.5 491.7282826494978 3228.5 532.4008414612442Z" fill="#55c0e9" opacity="0.9" />
		</g>
		<g>
			<path d="M3228.5 491.7282826494978 3249.0384615384614 491.71346164432515 3269.576923076923 491.70767780671554 3290.1153846153848 491.7116461371828 3310.653846153846 492.21654806017045 3331.1923076923076 492.1686259707535 3351.730769230769 492.16551794945576 3372.269230769231 491.99009410225506 3392.8076923076924 491.4978977886208 3413.346153846154 491.63219577145946 3433.8846153846152 491.8513930148632 3454.423076923077 491.85600669794854 3474.9615384615386 492.1505952348429 3495.5 491.9768227136466 3516.0384615384614 491.93920435370626 3536.576923076923 491.92955522350275 3557.1153846153848 491.78456573649515 3577.653846153846 491.64116500384506 3598.1923076923076 492.30515321923616 3618.7307692307695 490.7185530259544 3639.269230769231 490.3851968973204 3659.8076923076924 490.39407239534404 3680.346153846154 490.9492704753914 3700.8846153846152 490.1068496342023 3721.423076923077 489.6838400376917 3741.9615384615386 489.6027851684956 3762.5 489.6030568350501 3783.0384615384614 489.8264670604297 3803.576923076923 490.08709103844944 3824.1153846153848 489.62346831140377 3844.653846153846 489.6497010215789 3865.1923076923076 489.66218659583717 3885.7307692307695 488.81730930051134 3906.269230769231 488.4707685226323 3926.8076923076924 488.0992768689666 3947.346153846154 487.95222090418406 3967.8846153846152 487.9037558495532 3988.423076923077 488.00156539342817 4008.9615384615386 488.49331840138825 4029.5 488.0571972463991 4050.038461538462 487.710660836673 4070.576923076923 487.2177518598812 4091.1153846153848 486.6118670637434 4111.653846153846 486.20889715304327 4132.192307692308 486.20900192755903 4152.7307692307695 486.2135396268373 4173.2692307692305 485.59231788424785 4193.807692307692 485.39948958456085 4214.346153846154 485.34909899972735 4234.884615384615 485.6796277406367 4255.423076923077 485.67279984338205 4275.961538461539 486.96996590666026 4296.5 475.5980452492486 4296.5 457.9841724384686 4275.961538461539 471.80719236065096 4255.423076923077 471.36980138458574 4234.884615384615 471.37523931432827 4214.346153846154 471.27402149029285 4193.807692307692 471.5677731111576 4173.2692307692305 471.9639262442903 4152.7307692307695 473.1679949783827 4132.192307692308 473.1633049593818 4111.653846153846 473.1639770238033 4091.1153846153848 473.7464712888439 4070.576923076923 474.59777194801586 4050.038461538462 475.23714530807007 4029.5 475.74598723167173 4008.9615384615386 476.3034641007523 3988.423076923077 476.04032244458955 3967.8846153846152 476.08864417534 3947.346153846154 476.2563330555304 3926.8076923076924 476.501380298194 3906.269230769231 476.9091078280443 3885.7307692307695 477.3175055832355 3865.1923076923076 478.10739716876634 3844.653846153846 478.09661826532414 3824.1153846153848 478.15999289365544 3803.576923076923 478.5827424221303 3783.0384615384614 478.38419566392514 3762.5 478.2713135439936 3741.9615384615386 478.26942714386075 3721.423076923077 478.5099393463872 3700.8846153846152 478.7941392845137 3680.346153846154 479.58006819193264 3659.8076923076924 479.10650501970053 3639.269230769231 479.0999411202481 3618.7307692307695 479.4072866140748 3598.1923076923076 480.96640637284213 3577.653846153846 480.2698842349475 3557.1153846153848 480.4907637351383 3536.576923076923 480.4086170616429 3516.0384615384614 480.41676419469263 3495.5 480.45029730465194 3474.9615384615386 480.6272134139708 3454.423076923077 480.40305013594224 3433.8846153846152 480.39917600110454 3413.346153846154 480.2978208961403 3392.8076923076924 480.1378211447884 3372.269230769231 480.4875119170523 3351.730769230769 480.62062646338103 3331.1923076923076 480.623498410782 3310.653846153846 480.6254558284506 3290.1153846153848 479.9434244465183 3269.576923076923 479.939862628262 3249.0384615384614 479.94505960714844 3228.5 479.95902615881243 3228.5 491.7282826494978Z" fill="#f6a118" opacity="0.9" />
		</g>
		<g>
			<path d="M3228.5 479.95902615881243 3249.0384615384614 479.94505960714844 3269.576923076923 479.939862628262 3290.1153846153848 479.9434244465183 3310.653846153846 480.6254558284506 3331.1923076923076 480.623498410782 3351.730769230769 480.62062646338103 3372.269230769231 480.4875119170523 3392.8076923076924 480.1378211447884 3413.346153846154 480.2978208961403 3433.8846153846152 480.39917600110454 3454.423076923077 480.40305013594224 3474.9615384615386 480.6272134139708 3495.5 480.45029730465194 3516.0384615384614 480.41676419469263 3536.576923076923 480.4086170616429 3557.1153846153848 480.4907637351383 3577.653846153846 480.2698842349475 3598.1923076923076 480.96640637284213 3618.7307692307695 479.4072866140748 3639.269230769231 479.0999411202481 3659.8076923076924 479.10650501970053 3680.346153846154 479.58006819193264 3700.8846153846152 478.7941392845137 3721.423076923077 478.5099393463872 3741.9615384615386 478.26942714386075 3762.5 478.2713135439936 3783.0384615384614 478.38419566392514 3803.576923076923 478.5827424221303 3824.1153846153848 478.15999289365544 3844.653846153846 478.09661826532414 3865.1923076923076 478.10739716876634 3885.7307692307695 477.3175055832355 3906.269230769231 476.9091078280443 3926.8076923076924 476.501380298194 3947.346153846154 476.2563330555304 3967.8846153846152 476.08864417534 3988.423076923077 476.04032244458955 4008.9615384615386 476.3034641007523 4029.5 475.74598723167173 4050.038461538462 475.23714530807007 4070.576923076923 474.59777194801586 4091.1153846153848 473.7464712888439 4111.653846153846 473.1639770238033 4132.192307692308 473.1633049593818 4152.7307692307695 473.1679949783827 4173.2692307692305 471.9639262442903 4193.807692307692 471.5677731111576 4214.346153846154 471.27402149029285 4234.884615384615 471.37523931432827 4255.423076923077 471.36980138458574 4275.961538461539 471.80719236065096 4296.5 457.9841724384686 4296.5 453.37885604068435 4275.961538461539 466.4142007766285 4255.423076923077 466.73332063980786 4234.884615384615 466.73742366495037 4214.346153846154 466.7089001025045 4193.807692307692 467.02563926406276 4173.2692307692305 467.45832710584585 4152.7307692307695 468.7183458533408 4132.192307692308 468.7095414206735 4111.653846153846 468.7093552829413 4091.1153846153848 469.32209426095994 4070.576923076923 470.179152895614 4050.038461538462 470.83280416124353 4029.5 471.35852133856207 4008.9615384615386 471.9149927259896 3988.423076923077 471.6905736054739 3967.8846153846152 471.763371221977 3947.346153846154 471.9574850631018 3926.8076923076924 472.2340193606014 3906.269230769231 472.6559547595341 3885.7307692307695 473.0650745461115 3865.1923076923076 473.82819172566997 3844.653846153846 473.8181074091512 3824.1153846153848 473.8782116867164 3803.576923076923 474.28062031125177 3783.0384615384614 474.09267029394687 3762.5 473.9897191134042 3741.9615384615386 473.9871807138114 3721.423076923077 474.22541956826655 3700.8846153846152 474.511998002383 3680.346153846154 475.27887736921514 3659.8076923076924 474.8518141039069 3639.269230769231 474.8469015951653 3618.7307692307695 475.13902259765536 3598.1923076923076 476.6264014136676 3577.653846153846 475.9675036747879 3557.1153846153848 476.1855240028958 3536.576923076923 476.0304088632991 3516.0384615384614 476.03986709155856 3495.5 476.07416075277575 3474.9615384615386 476.25220661385714 3454.423076923077 475.9804259287693 3433.8846153846152 475.9771097573116 3413.346153846154 475.85734943037994 3392.8076923076924 475.67113203039463 3372.269230769231 475.9445091636468 3351.730769230769 476.0428252544268 3331.1923076923076 476.0456947164946 3310.653846153846 476.0126442187972 3290.1153846153848 475.2164345015217 3269.576923076923 475.2129700329708 3249.0384615384614 475.2181577191099 3228.5 475.2322484984899 3228.5 479.95902615881243Z" fill="#fdd5a4" opacity="0.9" />
		</g>
		<g>
			<path d="M3228.5 475.2322484984899 3249.0384615384614 475.2181577191099 3269.576923076923 475.2129700329708 3290.1153846153848 475.2164345015217 3310.653846153846 476.0126442187972 3331.1923076923076 476.0456947164946 3351.730769230769 476.0428252544268 3372.269230769231 475.9445091636468 3392.8076923076924 475.67113203039463 3413.346153846154 475.85734943037994 3433.8846153846152 475.9771097573116 3454.423076923077 475.9804259287693 3474.9615384615386 476.25220661385714 3495.5 476.07416075277575 3516.0384615384614 476.03986709155856 3536.576923076923 476.0304088632991 3557.1153846153848 476.1855240028958 3577.653846153846 475.9675036747879 3598.1923076923076 476.6264014136676 3618.7307692307695 475.13902259765536 3639.269230769231 474.8469015951653 3659.8076923076924 474.8518141039069 3680.346153846154 475.27887736921514 3700.8846153846152 474.511998002383 3721.423076923077 474.22541956826655 3741.9615384615386 473.9871807138114 3762.5 473.9897191134042 3783.0384615384614 474.09267029394687 3803.576923076923 474.28062031125177 3824.1153846153848 473.8782116867164 3844.653846153846 473.8181074091512 3865.1923076923076 473.82819172566997 3885.7307692307695 473.0650745461115 3906.269230769231 472.6559547595341 3926.8076923076924 472.2340193606014 3947.346153846154 471.9574850631018 3967.8846153846152 471.763371221977 3988.423076923077 471.6905736054739 4008.9615384615386 471.9149927259896 4029.5 471.35852133856207 4050.038461538462 470.83280416124353 4070.576923076923 470.179152895614 4091.1153846153848 469.32209426095994 4111.653846153846 468.7093552829413 4132.192307692308 468.7095414206735 4152.7307692307695 468.7183458533408 4173.2692307692305 467.45832710584585 4193.807692307692 467.02563926406276 4214.346153846154 466.7089001025045 4234.884615384615 466.73742366495037 4255.423076923077 466.73332063980786 4275.961538461539 466.4142007766285 4296.5 453.37885604068435 4296.5 450.84873082905136 4275.961538461539 463.35271236269716 4255.423076923077 464.0495018393 4234.884615384615 464.05162261814314 4214.346153846154 464.0000623098343 4193.807692307692 464.3297229697829 4173.2692307692305 464.7628176089946 4152.7307692307695 466.01617968617694 4132.192307692308 466.00219850652616 4111.653846153846 466.0003628505107 4091.1153846153848 466.6138363140116 4070.576923076923 467.47119043546877 4050.038461538462 468.10966081469456 4029.5 468.63278021070374 4008.9615384615386 469.1859358213357 3988.423076923077 469.0039882230996 3967.8846153846152 469.0649184884676 3947.346153846154 469.272109525969 3926.8076923076924 469.56054940240006 3906.269230769231 470.00314366447725 3885.7307692307695 470.42216191971556 3865.1923076923076 471.16063030075713 3844.653846153846 471.15110050258926 3824.1153846153848 471.2005668211781 3803.576923076923 471.56419721584615 3783.0384615384614 471.35961801945126 3762.5 471.1659266751794 3741.9615384615386 471.15503597364875 3721.423076923077 471.36241611042175 3700.8846153846152 471.63391436910644 3680.346153846154 472.3711663447606 3659.8076923076924 471.84780556889575 3639.269230769231 471.84385861501005 3618.7307692307695 472.0370495671892 3598.1923076923076 473.4135261402591 3577.653846153846 472.6948042788454 3557.1153846153848 472.8722901716775 3536.576923076923 472.3229333883161 3516.0384615384614 472.33160122478233 3495.5 472.3663150934169 3474.9615384615386 472.5454339613937 3454.423076923077 472.089365302357 3433.8846153846152 472.0865469044695 3413.346153846154 471.87656051033446 3392.8076923076924 471.6164928135846 3372.269230769231 471.7330711807051 3351.730769230769 471.76332000605703 3331.1923076923076 471.766218855925 3310.653846153846 471.666704132637 3290.1153846153848 470.5946289838734 3269.576923076923 470.5925960519466 3249.0384615384614 470.5979497527046 3228.5 470.6143953187705 3228.5 475.2322484984899Z" fill="#f48c7d" opacity="0.9" />
		</g>
		<g>
			<path d="M3228.5 470.6143953187705 3249.0384615384614 470.5979497527046 3269.576923076923 470.5925960519466 3290.1153846153848 470.5946289838734 3310.653846153846 471.666704132637 3331.1923076923076 471.766218855925 3351.730769230769 471.76332000605703 3372.269230769231 471.7330711807051 3392.8076923076924 471.6164928135846 3413.346153846154 471.87656051033446 3433.8846153846152 472.0865469044695 3454.423076923077 472.089365302357 3474.9615384615386 472.5454339613937 3495.5 472.3663150934169 3516.0384615384614 472.33160122478233 3536.576923076923 472.3229333883161 3557.1153846153848 472.8722901716775 3577.653846153846 472.6948042788454 3598.1923076923076 473.4135261402591 3618.7307692307695 472.0370495671892 3639.269230769231 471.84385861501005 3659.8076923076924 471.84780556889575 3680.346153846154 472.3711663447606 3700.8846153846152 471.63391436910644 3721.423076923077 471.36241611042175 3741.9615384615386 471.15503597364875 3762.5 471.1659266751794 3783.0384615384614 471.35961801945126 3803.576923076923 471.56419721584615 3824.1153846153848 471.2005668211781 3844.653846153846 471.15110050258926 3865.1923076923076 471.16063030075713 3885.7307692307695 470.42216191971556 3906.269230769231 470.00314366447725 3926.8076923076924 469.56054940240006 3947.346153846154 469.272109525969 3967.8846153846152 469.0649184884676 3988.423076923077 469.0039882230996 4008.9615384615386 469.1859358213357 4029.5 468.63278021070374 4050.038461538462 468.10966081469456 4070.576923076923 467.47119043546877 4091.1153846153848 466.6138363140116 4111.653846153846 466.0003628505107 4132.192307692308 466.00219850652616 4152.7307692307695 466.01617968617694 4173.2692307692305 464.7628176089946 4193.807692307692 464.3297229697829 4214.346153846154 464.0000623098343 4234.884615384615 464.05162261814314 4255.423076923077 464.0495018393 4275.961538461539 463.35271236269716 4296.5 450.84873082905136 4296.5 398 4275.961538461539 398.00000000000006 4255.423076923077 397.99999999999994 4234.884615384615 397.9999999999999 4214.346153846154 398.00000000000006 4193.807692307692 398.00000000000017 4173.2692307692305 397.9999999999999 4152.7307692307695 398.0000000000001 4132.192307692308 397.99999999999994 4111.653846153846 398 4091.1153846153848 397.9999999999999 4070.576923076923 398.00000000000006 4050.038461538462 398 4029.5 398 4008.9615384615386 398.00000000000006 3988.423076923077 398.00000000000006 3967.8846153846152 397.9999999999999 3947.346153846154 398.0000000000001 3926.8076923076924 397.9999999999999 3906.269230769231 398 3885.7307692307695 397.9999999999999 3865.1923076923076 398.0000000000001 3844.653846153846 398 3824.1153846153848 398.00000000000006 3803.576923076923 397.9999999999999 3783.0384615384614 398 3762.5 398.00000000000017 3741.9615384615386 398 3721.423076923077 398.00000000000006 3700.8846153846152 397.99999999999994 3680.346153846154 398.00000000000006 3659.8076923076924 397.9999999999999 3639.269230769231 397.99999999999994 3618.7307692307695 398 3598.1923076923076 398 3577.653846153846 397.99999999999994 3557.1153846153848 397.9999999999999 3536.576923076923 398 3516.0384615384614 398 3495.5 398 3474.9615384615386 398.0000000000001 3454.423076923077 398 3433.8846153846152 398 3413.346153846154 398.0000000000002 3392.8076923076924 397.99999999999994 3372.269230769231 398 3351.730769230769 398.0000000000001 3331.1923076923076 398 3310.653846153846 398.00000000000006 3290.1153846153848 398.00000000000006 3269.576923076923 397.99999999999994 3249.0384615384614 398.00000000000017 3228.5 398 3228.5 470.6143953187705Z" fill="#393d41" opacity="0.9" />
		</g>
		<g>
			<rect x="4372" y="431" width="22.9995" height="23" fill="#e62d39" />
		</g>
		<g>
			<text fill="#595959" font-family="Verdana,Open Sans,DejaVu Sans,sans-serif" font-weight="400" font-size="41" transform="matrix(1 0 0 1 4404.56 454)">Android</text>
		</g>
		<g>
			<rect x="4372" y="508" width="22.9995" height="23" fill="#005aa6" />
		</g>
		<g>
			<text fill="#595959" font-family="Verdana,Open Sans,DejaVu Sans,sans-serif" font-weight="400" font-size="41" transform="matrix(1 0 0 1 4404.56 531)">iOS</text>
		</g>
		<g>
			<rect x="4372" y="585" width="22.9995" height="23" fill="#55c0e9" />
		</g>
		<g>
			<text fill="#595959" font-family="Verdana,Open Sans,DejaVu Sans,sans-serif" font-weight="400" font-size="41" transform="matrix(1 0 0 1 4404.56 608)">Windows</text>
		</g>
		<g>
			<rect x="4372" y="662" width="22.9995" height="23" fill="#f6a118" />
		</g>
		<g>
			<text fill="#595959" font-family="Verdana,Open Sans,DejaVu Sans,sans-serif" font-weight="400" font-size="41" transform="matrix(1 0 0 1 4404.56 685)">macOS</text>
		</g>
		<g>
			<rect x="4372" y="739" width="22.9995" height="23" fill="#fdd5a4" />
		</g>
		<g>
			<text fill="#595959" font-family="Verdana,Open Sans,DejaVu Sans,sans-serif" font-weight="400" font-size="41" transform="matrix(1 0 0 1 4404.56 762)">Linux</text>
		</g>
		<g>
			<rect x="4372" y="816" width="22.9995" height="23" fill="#f48c7d" />
		</g>
		<g>
			<text fill="#595959" font-family="Verdana,Open Sans,DejaVu Sans,sans-serif" font-weight="400" font-size="41" transform="matrix(1 0 0 1 4404.56 839)">Other</text>
		</g>
		<g>
			<rect x="4372" y="893" width="22.9995" height="23" fill="#393d41" />
		</g>
		<g>
			<text fill="#595959" font-family="Verdana,Open Sans,DejaVu Sans,sans-serif" font-weight="400" font-size="41" transform="matrix(1 0 0 1 4404.56 916)">Unclassified</text>
		</g>
	</g>
</svg>
