<svg width="1763" height="1046"
    xmlns="http://www.w3.org/2000/svg"
	xmlns:xlink="http://www.w3.org/1999/xlink" xml:space="preserve" overflow="hidden">
	<defs>
		<clipPath id="clip0">
			<rect x="2917" y="346" width="1763" height="1046"/>
		</clipPath>
	</defs>
	<g clip-path="url(#clip0)" transform="translate(-2917 -346)">
		<rect x="2918" y="347" width="1760" height="1043" fill="#FFFFFF" />
		<g>
			<path d="
			M3228.5 974.532 4296.5 974.532
			M3228.5 910.53 4296.5 910.53
			M3228.5 846.528 4296.5 846.528
			M3228.5 781.526 4296.5 781.526
			M3228.5 717.524 4296.5 717.524
			M3228.5 653.522 4296.5 653.522
			M3228.5 589.52 4296.5 589.52
			M3228.5 525.517 4296.5 525.517
			M3228.5 461.515 4296.5 461.515
			M3228.5 397.5 4296.5 397.5" stroke="#D9D9D9" stroke-width="3.4375" stroke-linejoin="round" stroke-miterlimit="10" fill="none" />
		</g>
		<g>
			<path d="M 1038.5 4296.5 1038.5" stroke="#D9D9D9" stroke-width="3.4375" stroke-linejoin="round" stroke-miterlimit="10" fill="none" fill-rule="evenodd" />
		</g>
		<g>
			<text fill="#595959" font-family="Verdana,sans-serif" font-weight="400" font-size="41" transform="matrix(6.12323e-17 -1 1 6.12323e-17 3248 1228)">27-May</text>
		</g>
		<g>
			<text fill="#595959" font-family="Verdana,sans-serif" font-weight="400" font-size="41" transform="matrix(6.12323e-17 -1 1 6.12323e-17 3329.94 1211)">24-Jun</text>
		</g>
		<g>
			<text fill="#595959" font-family="Verdana,sans-serif" font-weight="400" font-size="41" transform="matrix(6.12323e-17 -1 1 6.12323e-17 3415.38 1196)">22-Jul</text>
		</g>
		<g>
			<text fill="#595959" font-family="Verdana,sans-serif" font-weight="400" font-size="41" transform="matrix(6.12323e-17 -1 1 6.12323e-17 3504.32 1218)">19-Aug</text>
		</g>
		<g>
			<text fill="#595959" font-family="Verdana,sans-serif" font-weight="400" font-size="41" transform="matrix(6.12323e-17 -1 1 6.12323e-17 3589.76 1219)">16-Sep</text>
		</g>
		<g>
			<text fill="#595959" font-family="Verdana,sans-serif" font-weight="400" font-size="41" transform="matrix(6.12323e-17 -1 1 6.12323e-17 3671.7 1213)">14-Oct</text>
		</g>
		<g>
			<text fill="#595959" font-family="Verdana,sans-serif" font-weight="400" font-size="41" transform="matrix(6.12323e-17 -1 1 6.12323e-17 3756.64 1222)">11-Nov</text>
		</g>
		<g>
			<text fill="#595959" font-family="Verdana,sans-serif" font-weight="400" font-size="41" transform="matrix(6.12323e-17 -1 1 6.12323e-17 3842.08 1220)">16-Dec</text>
		</g>
		<g>
			<text fill="#595959" font-family="Verdana,sans-serif" font-weight="400" font-size="41" transform="matrix(6.12323e-17 -1 1 6.12323e-17 3928.02 1207)">13-Jan</text>
		</g>
		<g>
			<text fill="#595959" font-family="Verdana,sans-serif" font-weight="400" font-size="41" transform="matrix(6.12323e-17 -1 1 6.12323e-17 4013.46 1214)">10-Feb</text>
		</g>
		<g>
			<text fill="#595959" font-family="Verdana,sans-serif" font-weight="400" font-size="41" transform="matrix(6.12323e-17 -1 1 6.12323e-17 4098.9 1221)">10-Mar</text>
		</g>
		<g>
			<text fill="#595959" font-family="Verdana,sans-serif" font-weight="400" font-size="41" transform="matrix(6.12323e-17 -1 1 6.12323e-17 4187.84 1217)">07-Apr</text>
		</g>
		<g>
			<text fill="#595959" font-family="Verdana,sans-serif" font-weight="400" font-size="41" transform="matrix(6.12323e-17 -1 1 6.12323e-17 4273.28 1228)">05-May</text>
		</g>
		<g>
			<text fill="#595959" font-family="Verdana,sans-serif" font-weight="400" font-size="41" transform="matrix(1 0 0 1 3123.5 1050)">0%</text>
		</g>
		<g>
			<text fill="#595959" font-family="Verdana,sans-serif" font-weight="400" font-size="41" transform="matrix(1 0 0 1 3097.5 922)">20%</text>
		</g>
		<g>
			<text fill="#595959" font-family="Verdana,sans-serif" font-weight="400" font-size="41" transform="matrix(1 0 0 1 3096.5 794)">40%</text>
		</g>
		<g>
			<text fill="#595959" font-family="Verdana,sans-serif" font-weight="400" font-size="41" transform="matrix(1 0 0 1 3097.5 666)">60%</text>
		</g>
		<g>
			<text fill="#595959" font-family="Verdana,sans-serif" font-weight="400" font-size="41" transform="matrix(1 0 0 1 3097.5 538)">80%</text>
		</g>
		<g>
			<text fill="#595959" font-family="Verdana,sans-serif" font-weight="400" font-size="41" transform="matrix(1 0 0 1 3074.5 410)">100%</text>
		</g>
		<g>
			<text fill="#595959" font-family="Verdana,sans-serif" font-weight="400" font-size="41" transform="matrix(1 0 0 1 3544.5 1321)">Week Commencing</text>
		</g>
		<g>
			<text fill="#595959" font-family="Verdana,sans-serif" font-weight="400" font-size="46" transform="matrix(6.12323e-17 -1 1 6.12323e-17 3019.73 965.25)">Requests (% of Total)</text>
		</g>
		<rect x="2918.5" y="347.5" width="1760" height="1043" stroke="#D9D9D9" stroke-width="3.4375" stroke-linejoin="round" stroke-miterlimit="10" fill="none" />
		<g>
			<path d="M3228.5 1038 3249.86 1038 3271.22 1038 3292.58 1038 3313.94 1038 3335.3 1038 3356.66 1038 3378.02 1038 3399.38 1038 3420.74 1038 3442.1 1038 3463.46 1038 3484.82 1038 3506.18 1038 3527.54 1038 3548.9 1038 3570.26 1038 3591.62 1038 3612.98 1038 3634.34 1038 3655.7 1038 3677.06 1038 3698.42 1038 3719.7799999999997 1038 3741.14 1038 3762.5 1038 3783.86 1038 3805.2200000000003 1038 3826.58 1038 3847.94 1038 3869.3 1038 3890.66 1038 3912.02 1038 3933.38 1038 3954.74 1038 3976.1 1038 3997.46 1038 4018.8199999999997 1038 4040.18 1038 4061.54 1038 4082.9 1038 4104.26 1038 4125.62 1038 4146.98 1038 4168.34 1038 4189.7 1038 4211.0599999999995 1038 4232.42 1038 4253.78 1038 4275.139999999999 1038 4296.5 1038 4296.5 781.8597165079086 4275.139999999999 781.9205309093473 4253.78 781.9760730546982 4232.42 782.137389874153 4211.0599999999995 782.1836383338261 4189.7 782.28451642524 4168.34 782.5500837418158 4146.98 783.0031565342465 4125.62 782.8052872994127 4104.26 783.0839365756206 4082.9 783.2139812899172 4061.54 783.418681414867 4040.18 783.391757080238 4018.8199999999997 783.5748526599284 3997.46 783.7048944052132 3976.1 783.4831690555263 3954.74 783.0196786229212 3933.38 783.0275141890429 3912.02 783.4492557109172 3890.66 783.484387962271 3869.3 783.2922413061176 3847.94 783.1097274823168 3826.58 783.0871417282395 3805.2200000000003 782.9000115015447 3783.86 782.5276373365637 3762.5 782.6753667196651 3741.14 783.1682641871979 3719.7799999999997 783.5277451200283 3698.42 783.7165926175173 3677.06 725.0579859810713 3655.7 723.964272691857 3634.34 722.9963838923263 3612.98 722.2500058248895 3591.62 721.3672257636031 3570.26 716.1347668638947 3548.9 714.9315603533947 3527.54 714.226459280052 3506.18 714.4105060971157 3484.82 713.9589728279007 3463.46 713.4392482120827 3442.1 712.9526784937428 3420.74 712.3235713382509 3399.38 712.0748666907585 3378.02 711.7892867662207 3356.66 711.2928421961317 3335.3 710.6616144923173 3313.94 710.307171035662 3292.58 710.0229260904226 3271.22 709.5011500172373 3249.86 708.8529728655324 3228.5 708.5111643371398 3228.5 1038Z" fill="#e62d39" opacity="0.9" />
		</g>
		<g>
			<path d="M3228.5 708.5111643371398 3249.86 708.8529728655324 3271.22 709.5011500172373 3292.58 710.0229260904226 3313.94 710.307171035662 3335.3 710.6616144923173 3356.66 711.2928421961317 3378.02 711.7892867662207 3399.38 712.0748666907585 3420.74 712.3235713382509 3442.1 712.9526784937428 3463.46 713.4392482120827 3484.82 713.9589728279007 3506.18 714.4105060971157 3527.54 714.226459280052 3548.9 714.9315603533947 3570.26 716.1347668638947 3591.62 721.3672257636031 3612.98 722.2500058248895 3634.34 722.9963838923263 3655.7 723.964272691857 3677.06 725.0579859810713 3698.42 783.7165926175173 3719.7799999999997 783.5277451200283 3741.14 783.1682641871979 3762.5 782.6753667196651 3783.86 782.5276373365637 3805.2200000000003 782.9000115015447 3826.58 783.0871417282395 3847.94 783.1097274823168 3869.3 783.2922413061176 3890.66 783.484387962271 3912.02 783.4492557109172 3933.38 783.0275141890429 3954.74 783.0196786229212 3976.1 783.4831690555263 3997.46 783.7048944052132 4018.8199999999997 783.5748526599284 4040.18 783.391757080238 4061.54 783.418681414867 4082.9 783.2139812899172 4104.26 783.0839365756206 4125.62 782.8052872994127 4146.98 783.0031565342465 4168.34 782.5500837418158 4189.7 782.28451642524 4211.0599999999995 782.1836383338261 4232.42 782.137389874153 4253.78 781.9760730546982 4275.139999999999 781.9205309093473 4296.5 781.8597165079086 4296.5 533.5868149898097 4275.139999999999 533.4688532767087 4253.78 533.0768238550941 4232.42 532.663421242623 4211.0599999999995 532.2348192575948 4189.7 532.1820957819214 4168.34 532.3681470809754 4146.98 532.5201668090683 4125.62 532.4238251729188 4104.26 532.3835949473919 4082.9 531.9915975411402 4061.54 531.7252849940927 4040.18 531.7204662326122 4018.8199999999997 531.628499653356 3997.46 531.5339960022333 3976.1 531.0725093725604 3954.74 531.2499409458121 3933.38 531.6507006603789 3912.02 531.7063634722977 3890.66 531.7405716149474 3869.3 531.5084515547419 3847.94 531.1868422316874 3826.58 530.9096071067931 3805.2200000000003 530.6457625647856 3783.86 530.2115588422516 3762.5 530.3749323864379 3741.14 530.816371903653 3719.7799999999997 531.5387166599613 3698.42 532.190445140906 3677.06 526.5102482737155 3655.7 525.3174753042879 3634.34 524.2802845879517 3612.98 523.1294380044525 3591.62 521.8575691422009 3570.26 514.1116307261946 3548.9 512.993987230213 3527.54 512.1677115640608 3506.18 502.45546819630397 3484.82 501.879791216212 3463.46 501.40460916879545 3442.1 500.8004852626943 3420.74 499.8853489758172 3399.38 498.7859305783681 3378.02 497.70686325871344 3356.66 496.45662763490196 3335.3 495.1622009511958 3313.94 493.8933367325633 3292.58 492.86935877863715 3271.22 492.0646789770611 3249.86 491.29504574396447 3228.5 490.57523501016317 3228.5 708.5111643371398Z" fill="#005aa6" opacity="0.9" />
		</g>
		<g>
			<path d="M3228.5 490.57523501016317 3249.86 491.29504574396447 3271.22 492.0646789770611 3292.58 492.86935877863715 3313.94 493.8933367325633 3335.3 495.1622009511958 3356.66 496.45662763490196 3378.02 497.70686325871344 3399.38 498.7859305783681 3420.74 499.8853489758172 3442.1 500.8004852626943 3463.46 501.40460916879545 3484.82 501.879791216212 3506.18 502.45546819630397 3527.54 512.1677115640608 3548.9 512.993987230213 3570.26 514.1116307261946 3591.62 521.8575691422009 3612.98 523.1294380044525 3634.34 524.2802845879517 3655.7 525.3174753042879 3677.06 526.5102482737155 3698.42 532.190445140906 3719.7799999999997 531.5387166599613 3741.14 530.816371903653 3762.5 530.3749323864379 3783.86 530.2115588422516 3805.2200000000003 530.6457625647856 3826.58 530.9096071067931 3847.94 531.1868422316874 3869.3 531.5084515547419 3890.66 531.7405716149474 3912.02 531.7063634722977 3933.38 531.6507006603789 3954.74 531.2499409458121 3976.1 531.0725093725604 3997.46 531.5339960022333 4018.8199999999997 531.628499653356 4040.18 531.7204662326122 4061.54 531.7252849940927 4082.9 531.9915975411402 4104.26 532.3835949473919 4125.62 532.4238251729188 4146.98 532.5201668090683 4168.34 532.3681470809754 4189.7 532.1820957819214 4211.0599999999995 532.2348192575948 4232.42 532.663421242623 4253.78 533.0768238550941 4275.139999999999 533.4688532767087 4296.5 533.5868149898097 4296.5 491.69189364771574 4275.139999999999 491.3732427741912 4253.78 490.8088740577118 4232.42 490.31149608874114 4211.0599999999995 489.77877115088484 4189.7 489.56160929323346 4168.34 489.5397849514939 4146.98 489.5595335703314 4125.62 489.2933239946325 4104.26 489.0834397469836 4082.9 488.66304187283265 4061.54 488.342804480212 4040.18 488.19986039125524 4018.8199999999997 488.019603954726 3997.46 487.9026766907719 3976.1 487.52222153261033 3954.74 487.70696592491663 3933.38 488.01151049572456 3912.02 487.963793616364 3890.66 487.98949737367803 3869.3 487.70292525839443 3847.94 487.3692026626984 3826.58 487.10721609649056 3805.2200000000003 486.9097754632236 3783.86 486.6466810104104 3762.5 486.8253712667305 3741.14 487.1725552495906 3719.7799999999997 487.81344975744275 3698.42 488.4006750879141 3677.06 478.7456085402515 3655.7 477.4222196163745 3634.34 476.2604646154135 3612.98 475.0060216232253 3591.62 473.64144749214375 3570.26 473.2844498106347 3548.9 472.05917492318713 3527.54 471.07663748656995 3506.18 461.2408535917636 3484.82 460.48443100573536 3463.46 459.76604736337003 3442.1 458.9777407221724 3420.74 457.90939966851295 3399.38 456.65452296321746 3378.02 455.36215838852235 3356.66 453.9844912065713 3335.3 452.5053589477677 3313.94 451.07476537844235 3292.58 449.87375657582817 3271.22 448.9328850656446 3249.86 448.0557909288758 3228.5 447.2525039284088 3228.5 490.57523501016317Z" fill="#55c0e9" opacity="0.9" />
		</g>
		<g>
			<path d="M3228.5 447.2525039284088 3249.86 448.0557909288758 3271.22 448.9328850656446 3292.58 449.87375657582817 3313.94 451.07476537844235 3335.3 452.5053589477677 3356.66 453.9844912065713 3378.02 455.36215838852235 3399.38 456.65452296321746 3420.74 457.90939966851295 3442.1 458.9777407221724 3463.46 459.76604736337003 3484.82 460.48443100573536 3506.18 461.2408535917636 3527.54 471.07663748656995 3548.9 472.05917492318713 3570.26 473.2844498106347 3591.62 473.64144749214375 3612.98 475.0060216232253 3634.34 476.2604646154135 3655.7 477.4222196163745 3677.06 478.7456085402515 3698.42 488.4006750879141 3719.7799999999997 487.81344975744275 3741.14 487.1725552495906 3762.5 486.8253712667305 3783.86 486.6466810104104 3805.2200000000003 486.9097754632236 3826.58 487.10721609649056 3847.94 487.3692026626984 3869.3 487.70292525839443 3890.66 487.98949737367803 3912.02 487.963793616364 3933.38 488.01151049572456 3954.74 487.70696592491663 3976.1 487.52222153261033 3997.46 487.9026766907719 4018.8199999999997 488.019603954726 4040.18 488.19986039125524 4061.54 488.342804480212 4082.9 488.66304187283265 4104.26 489.0834397469836 4125.62 489.2933239946325 4146.98 489.5595335703314 4168.34 489.5397849514939 4189.7 489.56160929323346 4211.0599999999995 489.77877115088484 4232.42 490.31149608874114 4253.78 490.8088740577118 4275.139999999999 491.3732427741912 4296.5 491.69189364771574 4296.5 479.2808407307956 4275.139999999999 478.9041807209399 4253.78 478.2910364979862 4232.42 477.7828333755948 4211.0599999999995 477.2431626623622 4189.7 476.9834739801711 4168.34 476.8973696844754 4146.98 476.8748020982269 4125.62 476.5669923893315 4104.26 476.3174497919625 4082.9 475.8998014736065 4061.54 475.5839065563436 4040.18 475.4761084872438 4018.8199999999997 475.3862262172438 3997.46 475.3370518496447 3976.1 475.01380165868784 3954.74 475.19871497996326 3933.38 475.4695361222136 3912.02 475.3984900629857 3890.66 475.42158037858417 3869.3 475.17281446854633 3847.94 474.89392113663916 3826.58 474.6976120214667 3805.2200000000003 474.5506870011159 3783.86 474.3398551157786 3762.5 474.4972746166898 3741.14 474.8032929443811 3719.7799999999997 475.42643040944677 3698.42 475.9837074966003 3677.06 466.53633469676566 3655.7 465.2033179049321 3634.34 464.0399484926056 3612.98 462.7794187905808 3591.62 461.40786834513193 3570.26 460.8843773665021 3548.9 459.6546822545587 3527.54 458.6559421000703 3506.18 448.8413613772234 3484.82 448.0810719550874 3463.46 447.3247116817817 3442.1 446.5310952275203 3420.74 445.4598876638521 3399.38 444.211812869573 3378.02 442.9104603532568 3356.66 441.5224522868679 3335.3 440.02872439510173 3313.94 438.5911754273753 3292.58 437.36935007449506 3271.22 436.4113820386986 3249.86 435.5243027869889 3228.5 434.7122259498071 3228.5 447.2525039284088Z" fill="#f6a118" opacity="0.9" />
		</g>
		<g>
			<path d="M3228.5 434.7122259498071 3249.86 435.5243027869889 3271.22 436.4113820386986 3292.58 437.36935007449506 3313.94 438.5911754273753 3335.3 440.02872439510173 3356.66 441.5224522868679 3378.02 442.9104603532568 3399.38 444.211812869573 3420.74 445.4598876638521 3442.1 446.5310952275203 3463.46 447.3247116817817 3484.82 448.0810719550874 3506.18 448.8413613772234 3527.54 458.6559421000703 3548.9 459.6546822545587 3570.26 460.8843773665021 3591.62 461.40786834513193 3612.98 462.7794187905808 3634.34 464.0399484926056 3655.7 465.2033179049321 3677.06 466.53633469676566 3698.42 475.9837074966003 3719.7799999999997 475.42643040944677 3741.14 474.8032929443811 3762.5 474.4972746166898 3783.86 474.3398551157786 3805.2200000000003 474.5506870011159 3826.58 474.6976120214667 3847.94 474.89392113663916 3869.3 475.17281446854633 3890.66 475.42158037858417 3912.02 475.3984900629857 3933.38 475.4695361222136 3954.74 475.19871497996326 3976.1 475.01380165868784 3997.46 475.3370518496447 4018.8199999999997 475.3862262172438 4040.18 475.4761084872438 4061.54 475.5839065563436 4082.9 475.8998014736065 4104.26 476.3174497919625 4125.62 476.5669923893315 4146.98 476.8748020982269 4168.34 476.8973696844754 4189.7 476.9834739801711 4211.0599999999995 477.2431626623622 4232.42 477.7828333755948 4253.78 478.2910364979862 4275.139999999999 478.9041807209399 4296.5 479.2808407307956 4296.5 474.30334373190215 4275.139999999999 473.85944150428145 4253.78 473.1772743948257 4232.42 472.60724653732666 4211.0599999999995 472.0140786339897 4189.7 471.682006543854 4168.34 471.520348091749 4146.98 471.43270925474144 4125.62 471.1148468453639 4104.26 470.7986006511395 4082.9 470.3245005923507 4061.54 469.9513908315054 4040.18 469.7725947069797 4018.8199999999997 469.63103904356444 3997.46 469.55102191735557 3976.1 469.25281227235195 3954.74 469.45361176960154 3933.38 469.73018322095714 3912.02 469.6596614770044 3890.66 469.68188908060466 3869.3 469.43106409076864 3847.94 469.15262240928087 3826.58 468.95702207661526 3805.2200000000003 468.84734356461763 3783.86 468.7350335488471 3762.5 468.9078882196251 3741.14 469.2079498249524 3719.7799999999997 469.81130033797666 3698.42 470.38342727342314 3677.06 461.2444339081057 3655.7 459.946755992067 3634.34 458.8077681755944 3612.98 457.5593223229012 3591.62 456.2181048338814 3570.26 455.6431947463817 3548.9 454.47972281760985 3527.54 453.4905215300467 3506.18 443.69596259487105 3484.82 442.9470560831334 3463.46 442.18952771113993 3442.1 441.4102737359516 3420.74 440.35943056582056 3399.38 439.1354625729624 3378.02 437.84119270046506 3356.66 436.45931716608146 3335.3 434.9725271047773 3313.94 433.5415615660502 3292.58 432.3203932157333 3271.22 431.3782566408658 3249.86 430.5117297264795 3228.5 429.7249311165208 3228.5 434.7122259498071Z" fill="#fdd5a4" opacity="0.9" />
		</g>
		<g>
			<path d="M3228.5 429.7249311165208 3249.86 430.5117297264795 3271.22 431.3782566408658 3292.58 432.3203932157333 3313.94 433.5415615660502 3335.3 434.9725271047773 3356.66 436.45931716608146 3378.02 437.84119270046506 3399.38 439.1354625729624 3420.74 440.35943056582056 3442.1 441.4102737359516 3463.46 442.18952771113993 3484.82 442.9470560831334 3506.18 443.69596259487105 3527.54 453.4905215300467 3548.9 454.47972281760985 3570.26 455.6431947463817 3591.62 456.2181048338814 3612.98 457.5593223229012 3634.34 458.8077681755944 3655.7 459.946755992067 3677.06 461.2444339081057 3698.42 470.38342727342314 3719.7799999999997 469.81130033797666 3741.14 469.2079498249524 3762.5 468.9078882196251 3783.86 468.7350335488471 3805.2200000000003 468.84734356461763 3826.58 468.95702207661526 3847.94 469.15262240928087 3869.3 469.43106409076864 3890.66 469.68188908060466 3912.02 469.6596614770044 3933.38 469.73018322095714 3954.74 469.45361176960154 3976.1 469.25281227235195 3997.46 469.55102191735557 4018.8199999999997 469.63103904356444 4040.18 469.7725947069797 4061.54 469.9513908315054 4082.9 470.3245005923507 4104.26 470.7986006511395 4125.62 471.1148468453639 4146.98 471.43270925474144 4168.34 471.520348091749 4189.7 471.682006543854 4211.0599999999995 472.0140786339897 4232.42 472.60724653732666 4253.78 473.1772743948257 4275.139999999999 473.85944150428145 4296.5 474.30334373190215 4296.5 469.45753010676304 4275.139999999999 469.00707612997155 4253.78 468.3152661342126 4232.42 467.73514405195505 4211.0599999999995 467.13787830023045 4189.7 466.8018186815907 4168.34 466.6374618686549 4146.98 466.54215183048984 4125.62 466.2228711653022 4104.26 465.9001213956365 4082.9 465.4390074188502 4061.54 465.07678566777184 4040.18 464.9033783038482 4018.8199999999997 464.7815818058518 3997.46 464.7260968061159 3976.1 464.4723890087734 3954.74 464.6844034193931 3933.38 464.9715947829817 3912.02 464.9499237655363 3890.66 464.9713870250645 3869.3 464.7567393127636 3847.94 464.5132259653092 3826.58 464.3461599383072 3805.2200000000003 464.26375937292056 3783.86 464.2122032971037 3762.5 464.3963627005436 3741.14 464.69518296460524 3719.7799999999997 465.29095095509365 3698.42 465.86857631542375 3677.06 457.9426597886813 3655.7 456.6504617863283 3634.34 455.5173638999522 3612.98 454.27397669951574 3591.62 452.9422128623981 3570.26 452.3392658302522 3548.9 451.1914920386467 3527.54 450.1807388631146 3506.18 440.3988808972397 3484.82 439.6628015961259 3463.46 438.90968576505173 3442.1 438.1368838719703 3420.74 437.09878380068074 3399.38 435.88818645509696 3378.02 434.59694513524136 3356.66 433.22158409139143 3335.3 431.7348695488416 3313.94 430.30784750779037 3292.58 429.09159001631633 3271.22 428.1595197737724 3249.86 427.30225741502903 3228.5 426.52676679830296 3228.5 429.7249311165208Z" fill="#f48c7d" opacity="0.9" />
		</g>
		<g>
			<path d="M3228.5 426.52676679830296 3249.86 427.30225741502903 3271.22 428.1595197737724 3292.58 429.09159001631633 3313.94 430.30784750779037 3335.3 431.7348695488416 3356.66 433.22158409139143 3378.02 434.59694513524136 3399.38 435.88818645509696 3420.74 437.09878380068074 3442.1 438.1368838719703 3463.46 438.90968576505173 3484.82 439.6628015961259 3506.18 440.3988808972397 3527.54 450.1807388631146 3548.9 451.1914920386467 3570.26 452.3392658302522 3591.62 452.9422128623981 3612.98 454.27397669951574 3634.34 455.5173638999522 3655.7 456.6504617863283 3677.06 457.9426597886813 3698.42 465.86857631542375 3719.7799999999997 465.29095095509365 3741.14 464.69518296460524 3762.5 464.3963627005436 3783.86 464.2122032971037 3805.2200000000003 464.26375937292056 3826.58 464.3461599383072 3847.94 464.5132259653092 3869.3 464.7567393127636 3890.66 464.9713870250645 3912.02 464.9499237655363 3933.38 464.9715947829817 3954.74 464.6844034193931 3976.1 464.4723890087734 3997.46 464.7260968061159 4018.8199999999997 464.7815818058518 4040.18 464.9033783038482 4061.54 465.07678566777184 4082.9 465.4390074188502 4104.26 465.9001213956365 4125.62 466.2228711653022 4146.98 466.54215183048984 4168.34 466.6374618686549 4189.7 466.8018186815907 4211.0599999999995 467.13787830023045 4232.42 467.73514405195505 4253.78 468.3152661342126 4275.139999999999 469.00707612997155 4296.5 469.45753010676304 4296.5 397.9999999999999 4275.139999999999 398 4253.78 397.9999999999999 4232.42 398.0000000000001 4211.0599999999995 397.99999999999994 4189.7 398 4168.34 398.0000000000001 4146.98 398.0000000000001 4125.62 398.0000000000001 4104.26 398 4082.9 398.00000000000006 4061.54 397.9999999999999 4040.18 398 4018.8199999999997 398 3997.46 397.9999999999999 3976.1 397.9999999999999 3954.74 398 3933.38 397.9999999999999 3912.02 398 3890.66 398.0000000000001 3869.3 397.99999999999983 3847.94 397.9999999999999 3826.58 397.99999999999994 3805.2200000000003 397.9999999999999 3783.86 397.9999999999999 3762.5 397.99999999999994 3741.14 398 3719.7799999999997 397.99999999999994 3698.42 398 3677.06 397.9999999999999 3655.7 397.9999999999999 3634.34 397.9999999999998 3612.98 398 3591.62 398 3570.26 398.00000000000006 3548.9 398.0000000000002 3527.54 398 3506.18 397.99999999999994 3484.82 398 3463.46 398.0000000000001 3442.1 398.00000000000006 3420.74 397.99999999999994 3399.38 397.99999999999994 3378.02 398.00000000000006 3356.66 397.99999999999994 3335.3 398.00000000000017 3313.94 397.99999999999994 3292.58 397.99999999999994 3271.22 398 3249.86 398 3228.5 398.00000000000017 3228.5 426.52676679830296Z" fill="#393d41" opacity="0.9" />
		</g>
		<g>
			<rect x="4372" y="431" width="22.9995" height="23" fill="#e62d39" />
		</g>
		<g>
			<text fill="#595959" font-family="Verdana,sans-serif" font-weight="400" font-size="41" transform="matrix(1 0 0 1 4404.56 454)">iOS</text>
		</g>
		<g>
			<rect x="4372" y="508" width="22.9995" height="23" fill="#005aa6" />
		</g>
		<g>
			<text fill="#595959" font-family="Verdana,sans-serif" font-weight="400" font-size="41" transform="matrix(1 0 0 1 4404.56 531)">Android</text>
		</g>
		<g>
			<rect x="4372" y="585" width="22.9995" height="23" fill="#55c0e9" />
		</g>
		<g>
			<text fill="#595959" font-family="Verdana,sans-serif" font-weight="400" font-size="41" transform="matrix(1 0 0 1 4404.56 608)">Windows</text>
		</g>
		<g>
			<rect x="4372" y="662" width="22.9995" height="23" fill="#f6a118" />
		</g>
		<g>
			<text fill="#595959" font-family="Verdana,sans-serif" font-weight="400" font-size="41" transform="matrix(1 0 0 1 4404.56 685)">macOS</text>
		</g>
		<g>
			<rect x="4372" y="739" width="22.9995" height="23" fill="#fdd5a4" />
		</g>
		<g>
			<text fill="#595959" font-family="Verdana,sans-serif" font-weight="400" font-size="41" transform="matrix(1 0 0 1 4404.56 762)">Other</text>
		</g>
		<g>
			<rect x="4372" y="816" width="22.9995" height="23" fill="#f48c7d" />
		</g>
		<g>
			<text fill="#595959" font-family="Verdana,sans-serif" font-weight="400" font-size="41" transform="matrix(1 0 0 1 4404.56 839)">Linux</text>
		</g>
		<g>
			<rect x="4372" y="893" width="22.9995" height="23" fill="#393d41" />
		</g>
		<g>
			<text fill="#595959" font-family="Verdana,sans-serif" font-weight="400" font-size="41" transform="matrix(1 0 0 1 4404.56 916)">Unclassified</text>
		</g>
	</g>
</svg>
