<svg width="1763" height="1046"
    xmlns="http://www.w3.org/2000/svg"
	xmlns:xlink="http://www.w3.org/1999/xlink" xml:space="preserve" overflow="hidden">
	<defs>
		<clipPath id="clip0">
			<rect x="2917" y="346" width="1763" height="1046"/>
		</clipPath>
	</defs>
	<g clip-path="url(#clip0)" transform="translate(-2917 -346)">
		<rect x="2918" y="347" width="1760" height="1043" fill="#FFFFFF" />
		<g>
			<path d="
			M3228.5 974.532 4296.5 974.532
			M3228.5 910.53 4296.5 910.53
			M3228.5 846.528 4296.5 846.528
			M3228.5 781.526 4296.5 781.526
			M3228.5 717.524 4296.5 717.524
			M3228.5 653.522 4296.5 653.522
			M3228.5 589.52 4296.5 589.52
			M3228.5 525.517 4296.5 525.517
			M3228.5 461.515 4296.5 461.515
			M3228.5 397.5 4296.5 397.5" stroke="#D9D9D9" stroke-width="3.4375" stroke-linejoin="round" stroke-miterlimit="10" fill="none" />
		</g>
		<g>
			<path d="M 1038.5 4296.5 1038.5" stroke="#D9D9D9" stroke-width="3.4375" stroke-linejoin="round" stroke-miterlimit="10" fill="none" fill-rule="evenodd" />
		</g>
		<g>
			<text fill="#595959" font-family="Verdana,Open Sans,DejaVu Sans,sans-serif" font-weight="400" font-size="41" transform="matrix(6.12323e-17 -1 1 6.12323e-17 3243.564697265625 1201.1401290893555)">28-Oct</text>
		</g>
		<g>
			<text fill="#595959" font-family="Verdana,Open Sans,DejaVu Sans,sans-serif" font-weight="400" font-size="41" transform="matrix(6.12323e-17 -1 1 6.12323e-17 3328.984677734375 1211.47021484375)">25-Nov</text>
		</g>
		<g>
			<text fill="#595959" font-family="Verdana,Open Sans,DejaVu Sans,sans-serif" font-weight="400" font-size="41" transform="matrix(6.12323e-17 -1 1 6.12323e-17 3414.444697265625 1207.24609375)">30-Dec</text>
		</g>
		<g>
			<text fill="#595959" font-family="Verdana,Open Sans,DejaVu Sans,sans-serif" font-weight="400" font-size="41" transform="matrix(6.12323e-17 -1 1 6.12323e-17 3503.5182421875 1191.6909103393555)">27-Jan</text>
		</g>
		<g>
			<text fill="#595959" font-family="Verdana,Open Sans,DejaVu Sans,sans-serif" font-weight="400" font-size="41" transform="matrix(6.12323e-17 -1 1 6.12323e-17 3586.035390625 1203.08203125)">24-Feb</text>
		</g>
		<g>
			<text fill="#595959" font-family="Verdana,Open Sans,DejaVu Sans,sans-serif" font-weight="400" font-size="41" transform="matrix(6.12323e-17 -1 1 6.12323e-17 3670.744677734375 1212.05078125)">24-Mar</text>
		</g>
		<g>
			<text fill="#595959" font-family="Verdana,Open Sans,DejaVu Sans,sans-serif" font-weight="400" font-size="41" transform="matrix(6.12323e-17 -1 1 6.12323e-17 3760.909287109375 1203.3022384643555)">21-Apr</text>
		</g>
		<g>
			<text fill="#595959" font-family="Verdana,Open Sans,DejaVu Sans,sans-serif" font-weight="400" font-size="41" transform="matrix(6.12323e-17 -1 1 6.12323e-17 3846.349287109375 1214.75341796875)">19-May</text>
		</g>
		<g>
			<text fill="#595959" font-family="Verdana,Open Sans,DejaVu Sans,sans-serif" font-weight="400" font-size="41" transform="matrix(6.12323e-17 -1 1 6.12323e-17 3930.7182421875 1194.0532150268555)">23-Jun</text>
		</g>
		<g>
			<text fill="#595959" font-family="Verdana,Open Sans,DejaVu Sans,sans-serif" font-weight="400" font-size="41" transform="matrix(6.12323e-17 -1 1 6.12323e-17 4016.888955078125 1179.0385665893555)">21-Jul</text>
		</g>
		<g>
			<text fill="#595959" font-family="Verdana,Open Sans,DejaVu Sans,sans-serif" font-weight="400" font-size="41" transform="matrix(6.12323e-17 -1 1 6.12323e-17 4102.669287109375 1206.90576171875)">18-Aug</text>
		</g>
		<g>
			<text fill="#595959" font-family="Verdana,Open Sans,DejaVu Sans,sans-serif" font-weight="400" font-size="41" transform="matrix(6.12323e-17 -1 1 6.12323e-17 4188.109287109375 1202.66162109375)">15-Sep</text>
		</g>
		<g>
			<text fill="#595959" font-family="Verdana,Open Sans,DejaVu Sans,sans-serif" font-weight="400" font-size="41" transform="matrix(6.12323e-17 -1 1 6.12323e-17 4268.844697265625 1199.3784103393555)">13-Oct</text>
		</g>
		<g>
			<text fill="#595959" font-family="Verdana,Open Sans,DejaVu Sans,sans-serif" font-weight="400" font-size="41" transform="matrix(1 0 0 1 3135.4482421875 1050)">0%</text>
		</g>
		<g>
			<text fill="#595959" font-family="Verdana,Open Sans,DejaVu Sans,sans-serif" font-weight="400" font-size="41" transform="matrix(1 0 0 1 3111.96533203125 922)">20%</text>
		</g>
		<g>
			<text fill="#595959" font-family="Verdana,Open Sans,DejaVu Sans,sans-serif" font-weight="400" font-size="41" transform="matrix(1 0 0 1 3110.82421875 794)">40%</text>
		</g>
		<g>
			<text fill="#595959" font-family="Verdana,Open Sans,DejaVu Sans,sans-serif" font-weight="400" font-size="41" transform="matrix(1 0 0 1 3112.3056640625 666)">60%</text>
		</g>
		<g>
			<text fill="#595959" font-family="Verdana,Open Sans,DejaVu Sans,sans-serif" font-weight="400" font-size="41" transform="matrix(1 0 0 1 3112.04541015625 538)">80%</text>
		</g>
		<g>
			<text fill="#595959" font-family="Verdana,Open Sans,DejaVu Sans,sans-serif" font-weight="400" font-size="41" transform="matrix(1 0 0 1 3090.2841796875 410)">100%</text>
		</g>
		<g>
			<text fill="#595959" font-family="Verdana,Open Sans,DejaVu Sans,sans-serif" font-weight="400" font-size="41" transform="matrix(1 0 0 1 3556.97119140625 1321)">Week Commencing</text>
		</g>
		<g>
			<text fill="#595959" font-family="Verdana,Open Sans,DejaVu Sans,sans-serif" font-weight="400" font-size="46" transform="matrix(6.12323e-17 -1 1 6.12323e-17 3019.73 936.7665710449219)">Requests (% of Total)</text>
		</g>
		<rect x="2918.5" y="347.5" width="1760" height="1043" stroke="#D9D9D9" stroke-width="3.4375" stroke-linejoin="round" stroke-miterlimit="10" fill="none" />
		<g>
			<path d="M3228.5 1038 3249.86 1038 3271.22 1038 3292.58 1038 3313.94 1038 3335.3 1038 3356.66 1038 3378.02 1038 3399.38 1038 3420.74 1038 3442.1 1038 3463.46 1038 3484.82 1038 3506.18 1038 3527.54 1038 3548.9 1038 3570.26 1038 3591.62 1038 3612.98 1038 3634.34 1038 3655.7 1038 3677.06 1038 3698.42 1038 3719.7799999999997 1038 3741.14 1038 3762.5 1038 3783.86 1038 3805.2200000000003 1038 3826.58 1038 3847.94 1038 3869.3 1038 3890.66 1038 3912.02 1038 3933.38 1038 3954.74 1038 3976.1 1038 3997.46 1038 4018.8199999999997 1038 4040.18 1038 4061.54 1038 4082.9 1038 4104.26 1038 4125.62 1038 4146.98 1038 4168.34 1038 4189.7 1038 4211.0599999999995 1038 4232.42 1038 4253.78 1038 4275.139999999999 1038 4296.5 1038 4296.5 764.3768419479462 4275.139999999999 764.3547678374432 4253.78 764.4897401031296 4232.42 766.8609306167309 4211.0599999999995 766.8567475951404 4189.7 767.9192079463141 4168.34 768.908358113137 4146.98 771.7976640891548 4125.62 772.995900100849 4104.26 773.0047654751563 4082.9 774.0176159604634 4061.54 776.3680200175993 4040.18 776.3453368808368 4018.8199999999997 776.3465392709672 3997.46 776.3609674251002 3976.1 776.5119637903555 3954.74 778.9439765467624 3933.38 785.3332769215773 3912.02 785.3813296257167 3890.66 786.9316254516905 3869.3 788.064069053389 3847.94 789.5346539181728 3826.58 789.7270984819011 3805.2200000000003 789.5483223673614 3783.86 789.1007508003959 3762.5 788.5260313684701 3741.14 788.0511809237687 3719.7799999999997 787.8975793566815 3698.42 787.8180633391596 3677.06 787.5170102748218 3655.7 787.618537873506 3634.34 787.2996583717713 3612.98 786.777616251223 3591.62 786.3066035792257 3570.26 786.3287091523742 3548.9 786.0536469934276 3527.54 785.8291015970201 3506.18 785.589340317034 3484.82 786.2302623228909 3463.46 786.623186471336 3442.1 786.2571077613804 3420.74 786.2561836526764 3399.38 786.2162102486243 3378.02 786.0771147493706 3356.66 785.8224653785537 3335.3 785.745751063241 3313.94 785.683921505688 3292.58 785.6995656667727 3271.22 785.6481077164551 3249.86 786.010971539933 3228.5 786.4738525233887 3228.5 1038Z" fill="#e62d39" opacity="0.9" />
		</g>
		<g>
			<path d="M3228.5 786.4738525233887 3249.86 786.010971539933 3271.22 785.6481077164551 3292.58 785.6995656667727 3313.94 785.683921505688 3335.3 785.745751063241 3356.66 785.8224653785537 3378.02 786.0771147493706 3399.38 786.2162102486243 3420.74 786.2561836526764 3442.1 786.2571077613804 3463.46 786.623186471336 3484.82 786.2302623228909 3506.18 785.589340317034 3527.54 785.8291015970201 3548.9 786.0536469934276 3570.26 786.3287091523742 3591.62 786.3066035792257 3612.98 786.777616251223 3634.34 787.2996583717713 3655.7 787.618537873506 3677.06 787.5170102748218 3698.42 787.8180633391596 3719.7799999999997 787.8975793566815 3741.14 788.0511809237687 3762.5 788.5260313684701 3783.86 789.1007508003959 3805.2200000000003 789.5483223673614 3826.58 789.7270984819011 3847.94 789.5346539181728 3869.3 788.064069053389 3890.66 786.9316254516905 3912.02 785.3813296257167 3933.38 785.3332769215773 3954.74 778.9439765467624 3976.1 776.5119637903555 3997.46 776.3609674251002 4018.8199999999997 776.3465392709672 4040.18 776.3453368808368 4061.54 776.3680200175993 4082.9 774.0176159604634 4104.26 773.0047654751563 4125.62 772.995900100849 4146.98 771.7976640891548 4168.34 768.908358113137 4189.7 767.9192079463141 4211.0599999999995 766.8567475951404 4232.42 766.8609306167309 4253.78 764.4897401031296 4275.139999999999 764.3547678374432 4296.5 764.3768419479462 4296.5 531.7708483166984 4275.139999999999 531.8218985108718 4253.78 531.9849023445704 4232.42 531.7935729648713 4211.0599999999995 531.7864321784326 4189.7 531.5727707842481 4168.34 531.4390936505183 4146.98 532.2027211748189 4125.62 532.4711028871407 4104.26 532.4751666451237 4082.9 532.6424401194076 4061.54 532.3819588718641 4040.18 532.3762321494829 4018.8199999999997 532.3835012006392 3997.46 532.4008414612442 3976.1 531.9653947132791 3954.74 532.7065148297092 3933.38 534.1646402996798 3912.02 534.1813437994358 3890.66 534.0614406876781 3869.3 533.9651928337187 3847.94 533.7866116772315 3826.58 533.5868149898097 3805.2200000000003 533.4688532767087 3783.86 533.0768238550941 3762.5 532.663421242623 3741.14 532.2348192575948 3719.7799999999997 532.1820957819215 3698.42 532.3681470809754 3677.06 532.5201668090683 3655.7 532.4238251729188 3634.34 532.3835949473919 3612.98 531.9915975411402 3591.62 531.7252849940928 3570.26 531.7204662326122 3548.9 531.6284996533559 3527.54 531.5339960022333 3506.18 531.0725093725605 3484.82 531.2499409458121 3463.46 531.650700660379 3442.1 531.7063634722977 3420.74 531.7405716149474 3399.38 531.5084515547419 3378.02 531.1868422316874 3356.66 530.9096071067933 3335.3 530.6457625647856 3313.94 530.2115588422516 3292.58 530.3749323864379 3271.22 530.816371903653 3249.86 531.5387166599613 3228.5 532.190445140906 3228.5 786.4738525233887Z" fill="#005aa6" opacity="0.9" />
		</g>
		<g>
			<path d="M3228.5 532.190445140906 3249.86 531.5387166599613 3271.22 530.816371903653 3292.58 530.3749323864379 3313.94 530.2115588422516 3335.3 530.6457625647856 3356.66 530.9096071067933 3378.02 531.1868422316874 3399.38 531.5084515547419 3420.74 531.7405716149474 3442.1 531.7063634722977 3463.46 531.650700660379 3484.82 531.2499409458121 3506.18 531.0725093725605 3527.54 531.5339960022333 3548.9 531.6284996533559 3570.26 531.7204662326122 3591.62 531.7252849940928 3612.98 531.9915975411402 3634.34 532.3835949473919 3655.7 532.4238251729188 3677.06 532.5201668090683 3698.42 532.3681470809754 3719.7799999999997 532.1820957819215 3741.14 532.2348192575948 3762.5 532.663421242623 3783.86 533.0768238550941 3805.2200000000003 533.4688532767087 3826.58 533.5868149898097 3847.94 533.7866116772315 3869.3 533.9651928337187 3890.66 534.0614406876781 3912.02 534.1813437994358 3933.38 534.1646402996798 3954.74 532.7065148297092 3976.1 531.9653947132791 3997.46 532.4008414612442 4018.8199999999997 532.3835012006392 4040.18 532.3762321494829 4061.54 532.3819588718641 4082.9 532.6424401194076 4104.26 532.4751666451237 4125.62 532.4711028871407 4146.98 532.2027211748189 4168.34 531.4390936505183 4189.7 531.5727707842481 4211.0599999999995 531.7864321784326 4232.42 531.7935729648713 4253.78 531.9849023445704 4275.139999999999 531.8218985108718 4296.5 531.7708483166984 4296.5 491.93920435370626 4275.139999999999 491.9768227136466 4253.78 492.1505952348429 4232.42 491.85600669794854 4211.0599999999995 491.8513930148632 4189.7 491.63219577145946 4168.34 491.4978977886208 4146.98 491.99009410225506 4125.62 492.16551794945576 4104.26 492.1686259707535 4082.9 492.21654806017045 4061.54 491.7116461371828 4040.18 491.70767780671554 4018.8199999999997 491.71346164432515 3997.46 491.7282826494978 3976.1 491.33050875804906 3954.74 491.76141449343754 3933.38 492.74242973299926 3912.02 492.75457857238825 3890.66 492.5918650008465 3869.3 492.35892132336346 3847.94 492.0889325160488 3826.58 491.69189364771574 3805.2200000000003 491.3732427741912 3783.86 490.8088740577118 3762.5 490.31149608874114 3741.14 489.77877115088484 3719.7799999999997 489.5616092932336 3698.42 489.5397849514939 3677.06 489.5595335703314 3655.7 489.2933239946325 3634.34 489.0834397469836 3612.98 488.66304187283265 3591.62 488.3428044802121 3570.26 488.19986039125524 3548.9 488.0196039547259 3527.54 487.9026766907719 3506.18 487.52222153261044 3484.82 487.70696592491663 3463.46 488.0115104957247 3442.1 487.963793616364 3420.74 487.98949737367803 3399.38 487.70292525839443 3378.02 487.3692026626984 3356.66 487.1072160964907 3335.3 486.9097754632236 3313.94 486.6466810104104 3292.58 486.8253712667305 3271.22 487.1725552495906 3249.86 487.81344975744275 3228.5 488.4006750879141 3228.5 532.190445140906Z" fill="#55c0e9" opacity="0.9" />
		</g>
		<g>
			<path d="M3228.5 488.4006750879141 3249.86 487.81344975744275 3271.22 487.1725552495906 3292.58 486.8253712667305 3313.94 486.6466810104104 3335.3 486.9097754632236 3356.66 487.1072160964907 3378.02 487.3692026626984 3399.38 487.70292525839443 3420.74 487.98949737367803 3442.1 487.963793616364 3463.46 488.0115104957247 3484.82 487.70696592491663 3506.18 487.52222153261044 3527.54 487.9026766907719 3548.9 488.0196039547259 3570.26 488.19986039125524 3591.62 488.3428044802121 3612.98 488.66304187283265 3634.34 489.0834397469836 3655.7 489.2933239946325 3677.06 489.5595335703314 3698.42 489.5397849514939 3719.7799999999997 489.5616092932336 3741.14 489.77877115088484 3762.5 490.31149608874114 3783.86 490.8088740577118 3805.2200000000003 491.3732427741912 3826.58 491.69189364771574 3847.94 492.0889325160488 3869.3 492.35892132336346 3890.66 492.5918650008465 3912.02 492.75457857238825 3933.38 492.74242973299926 3954.74 491.76141449343754 3976.1 491.33050875804906 3997.46 491.7282826494978 4018.8199999999997 491.71346164432515 4040.18 491.70767780671554 4061.54 491.7116461371828 4082.9 492.21654806017045 4104.26 492.1686259707535 4125.62 492.16551794945576 4146.98 491.99009410225506 4168.34 491.4978977886208 4189.7 491.63219577145946 4211.0599999999995 491.8513930148632 4232.42 491.85600669794854 4253.78 492.1505952348429 4275.139999999999 491.9768227136466 4296.5 491.93920435370626 4296.5 480.41676419469263 4275.139999999999 480.45029730465194 4253.78 480.6272134139708 4232.42 480.40305013594224 4211.0599999999995 480.39917600110454 4189.7 480.2978208961403 4168.34 480.1378211447884 4146.98 480.4875119170523 4125.62 480.62062646338103 4104.26 480.623498410782 4082.9 480.6254558284506 4061.54 479.9434244465183 4040.18 479.939862628262 4018.8199999999997 479.94505960714844 3997.46 479.95902615881243 3976.1 479.5505692873087 3954.74 479.86304908787844 3933.38 480.59388216933854 3912.02 480.6043736648512 3890.66 480.3867647714376 3869.3 480.0939647438401 3847.94 479.7308663765565 3826.58 479.2808407307956 3805.2200000000003 478.9041807209399 3783.86 478.2910364979862 3762.5 477.7828333755948 3741.14 477.2431626623622 3719.7799999999997 476.9834739801712 3698.42 476.8973696844754 3677.06 476.8748020982269 3655.7 476.5669923893315 3634.34 476.3174497919625 3612.98 475.8998014736065 3591.62 475.5839065563437 3570.26 475.4761084872438 3548.9 475.3862262172437 3527.54 475.3370518496447 3506.18 475.01380165868795 3484.82 475.19871497996326 3463.46 475.4695361222137 3442.1 475.3984900629857 3420.74 475.42158037858417 3399.38 475.17281446854633 3378.02 474.89392113663916 3356.66 474.6976120214668 3335.3 474.5506870011159 3313.94 474.3398551157786 3292.58 474.4972746166898 3271.22 474.8032929443811 3249.86 475.42643040944677 3228.5 475.9837074966003 3228.5 488.4006750879141Z" fill="#f6a118" opacity="0.9" />
		</g>
		<g>
			<path d="M3228.5 475.9837074966003 3249.86 475.42643040944677 3271.22 474.8032929443811 3292.58 474.4972746166898 3313.94 474.3398551157786 3335.3 474.5506870011159 3356.66 474.6976120214668 3378.02 474.89392113663916 3399.38 475.17281446854633 3420.74 475.42158037858417 3442.1 475.3984900629857 3463.46 475.4695361222137 3484.82 475.19871497996326 3506.18 475.01380165868795 3527.54 475.3370518496447 3548.9 475.3862262172437 3570.26 475.4761084872438 3591.62 475.5839065563437 3612.98 475.8998014736065 3634.34 476.3174497919625 3655.7 476.5669923893315 3677.06 476.8748020982269 3698.42 476.8973696844754 3719.7799999999997 476.9834739801712 3741.14 477.2431626623622 3762.5 477.7828333755948 3783.86 478.2910364979862 3805.2200000000003 478.9041807209399 3826.58 479.2808407307956 3847.94 479.7308663765565 3869.3 480.0939647438401 3890.66 480.3867647714376 3912.02 480.6043736648512 3933.38 480.59388216933854 3954.74 479.86304908787844 3976.1 479.5505692873087 3997.46 479.95902615881243 4018.8199999999997 479.94505960714844 4040.18 479.939862628262 4061.54 479.9434244465183 4082.9 480.6254558284506 4104.26 480.623498410782 4125.62 480.62062646338103 4146.98 480.4875119170523 4168.34 480.1378211447884 4189.7 480.2978208961403 4211.0599999999995 480.39917600110454 4232.42 480.40305013594224 4253.78 480.6272134139708 4275.139999999999 480.45029730465194 4296.5 480.41676419469263 4296.5 476.03986709155856 4275.139999999999 476.07416075277575 4253.78 476.25220661385714 4232.42 475.9804259287693 4211.0599999999995 475.9771097573116 4189.7 475.85734943037994 4168.34 475.67113203039463 4146.98 475.9445091636468 4125.62 476.0428252544268 4104.26 476.0456947164946 4082.9 476.0126442187972 4061.54 475.2164345015217 4040.18 475.2129700329708 4018.8199999999997 475.2181577191099 3997.46 475.2322484984899 3976.1 474.81810616673476 3954.74 475.10657399076854 3933.38 475.80132801818854 3912.02 475.81236587515644 3890.66 475.5856075858726 3869.3 475.27426702627764 3847.94 474.8948962586183 3826.58 474.4350271056565 3805.2200000000003 474.05181534663 3783.86 473.42902823737313 3762.5 472.9107308902232 3741.14 472.36696232860294 3719.7799999999997 472.1032861179079 3698.42 472.0144834613813 3677.06 471.9842446739753 3655.7 471.6750167092698 3634.34 471.4189705364595 3612.98 471.014308300106 3591.62 470.70930139261014 3570.26 470.6068920841123 3548.9 470.536768979531 3527.54 470.512126738405 3506.18 470.2333783951094 3484.82 470.4295066297548 3463.46 470.71094768423825 3442.1 470.68875235151756 3420.74 470.711078323044 3399.38 470.4984896905413 3378.02 470.2545246926675 3356.66 470.08674988315875 3335.3 469.9671028094188 3313.94 469.8170248640352 3292.58 469.98574909760833 3271.22 470.29052608403396 3249.86 470.90608102656375 3228.5 471.4688565386009 3228.5 475.9837074966003Z" fill="#fdd5a4" opacity="0.9" />
		</g>
		<g>
			<path d="M3228.5 471.4688565386009 3249.86 470.90608102656375 3271.22 470.29052608403396 3292.58 469.98574909760833 3313.94 469.8170248640352 3335.3 469.9671028094188 3356.66 470.08674988315875 3378.02 470.2545246926675 3399.38 470.4984896905413 3420.74 470.711078323044 3442.1 470.68875235151756 3463.46 470.71094768423825 3484.82 470.4295066297548 3506.18 470.2333783951094 3527.54 470.512126738405 3548.9 470.536768979531 3570.26 470.6068920841123 3591.62 470.70930139261014 3612.98 471.014308300106 3634.34 471.4189705364595 3655.7 471.6750167092698 3677.06 471.9842446739753 3698.42 472.0144834613813 3719.7799999999997 472.1032861179079 3741.14 472.36696232860294 3762.5 472.9107308902232 3783.86 473.42902823737313 3805.2200000000003 474.05181534663 3826.58 474.4350271056565 3847.94 474.8948962586183 3869.3 475.27426702627764 3890.66 475.5856075858726 3912.02 475.81236587515644 3933.38 475.80132801818854 3954.74 475.10657399076854 3976.1 474.81810616673476 3997.46 475.2322484984899 4018.8199999999997 475.2181577191099 4040.18 475.2129700329708 4061.54 475.2164345015217 4082.9 476.0126442187972 4104.26 476.0456947164946 4125.62 476.0428252544268 4146.98 475.9445091636468 4168.34 475.67113203039463 4189.7 475.85734943037994 4211.0599999999995 475.9771097573116 4232.42 475.9804259287693 4253.78 476.25220661385714 4275.139999999999 476.07416075277575 4296.5 476.03986709155856 4296.5 472.33160122478233 4275.139999999999 472.3663150934169 4253.78 472.5454339613937 4232.42 472.089365302357 4211.0599999999995 472.0865469044695 4189.7 471.87656051033446 4168.34 471.6164928135846 4146.98 471.7330711807051 4125.62 471.76332000605703 4104.26 471.766218855925 4082.9 471.666704132637 4061.54 470.5946289838734 4040.18 470.5925960519466 4018.8199999999997 470.5979497527046 3997.46 470.6143953187705 3976.1 470.16763283113994 3954.74 470.4164498778376 3933.38 471.0661628206815 3912.02 471.07731696753683 3890.66 470.8209639445631 3869.3 470.4605146316375 3847.94 469.9795822434353 3826.58 469.45753010676304 3805.2200000000003 469.00707612997155 3783.86 468.3152661342126 3762.5 467.73514405195505 3741.14 467.13787830023045 3719.7799999999997 466.8018186815908 3698.42 466.6374618686549 3677.06 466.54215183048984 3655.7 466.2228711653022 3634.34 465.9001213956365 3612.98 465.4390074188502 3591.62 465.07678566777196 3570.26 464.9033783038482 3548.9 464.78158180585166 3527.54 464.7260968061159 3506.18 464.4723890087735 3484.82 464.6844034193931 3463.46 464.9715947829818 3442.1 464.9499237655363 3420.74 464.9713870250645 3399.38 464.7567393127636 3378.02 464.5132259653092 3356.66 464.3461599383073 3335.3 464.26375937292056 3313.94 464.2122032971037 3292.58 464.3963627005436 3271.22 464.69518296460524 3249.86 465.29095095509365 3228.5 465.86857631542375 3228.5 471.4688565386009Z" fill="#f48c7d" opacity="0.9" />
		</g>
		<g>
			<path d="M3228.5 465.86857631542375 3249.86 465.29095095509365 3271.22 464.69518296460524 3292.58 464.3963627005436 3313.94 464.2122032971037 3335.3 464.26375937292056 3356.66 464.3461599383073 3378.02 464.5132259653092 3399.38 464.7567393127636 3420.74 464.9713870250645 3442.1 464.9499237655363 3463.46 464.9715947829818 3484.82 464.6844034193931 3506.18 464.4723890087735 3527.54 464.7260968061159 3548.9 464.78158180585166 3570.26 464.9033783038482 3591.62 465.07678566777196 3612.98 465.4390074188502 3634.34 465.9001213956365 3655.7 466.2228711653022 3677.06 466.54215183048984 3698.42 466.6374618686549 3719.7799999999997 466.8018186815908 3741.14 467.13787830023045 3762.5 467.73514405195505 3783.86 468.3152661342126 3805.2200000000003 469.00707612997155 3826.58 469.45753010676304 3847.94 469.9795822434353 3869.3 470.4605146316375 3890.66 470.8209639445631 3912.02 471.07731696753683 3933.38 471.0661628206815 3954.74 470.4164498778376 3976.1 470.16763283113994 3997.46 470.6143953187705 4018.8199999999997 470.5979497527046 4040.18 470.5925960519466 4061.54 470.5946289838734 4082.9 471.666704132637 4104.26 471.766218855925 4125.62 471.76332000605703 4146.98 471.7330711807051 4168.34 471.6164928135846 4189.7 471.87656051033446 4211.0599999999995 472.0865469044695 4232.42 472.089365302357 4253.78 472.5454339613937 4275.139999999999 472.3663150934169 4296.5 472.33160122478233 4296.5 398 4275.139999999999 398 4253.78 398.0000000000001 4232.42 398 4211.0599999999995 398 4189.7 398.0000000000002 4168.34 397.99999999999994 4146.98 398 4125.62 398.0000000000001 4104.26 398 4082.9 398.00000000000006 4061.54 398.00000000000006 4040.18 397.99999999999994 4018.8199999999997 398.00000000000017 3997.46 398 3976.1 398.00000000000017 3954.74 397.9999999999999 3933.38 397.9999999999999 3912.02 398.0000000000001 3890.66 397.9999999999999 3869.3 398 3847.94 397.9999999999999 3826.58 397.9999999999999 3805.2200000000003 398 3783.86 397.9999999999999 3762.5 398.0000000000001 3741.14 397.99999999999994 3719.7799999999997 398.0000000000001 3698.42 398.0000000000001 3677.06 398.0000000000001 3655.7 398.0000000000001 3634.34 398 3612.98 398.00000000000006 3591.62 398 3570.26 398 3548.9 397.9999999999999 3527.54 397.9999999999999 3506.18 398 3484.82 398 3463.46 398 3442.1 398 3420.74 398.0000000000001 3399.38 397.99999999999983 3378.02 397.9999999999999 3356.66 398.00000000000006 3335.3 397.9999999999999 3313.94 397.9999999999999 3292.58 397.99999999999994 3271.22 398 3249.86 397.99999999999994 3228.5 398 3228.5 465.86857631542375Z" fill="#393d41" opacity="0.9" />
		</g>
		<g>
			<rect x="4372" y="431" width="22.9995" height="23" fill="#e62d39" />
		</g>
		<g>
			<text fill="#595959" font-family="Verdana,Open Sans,DejaVu Sans,sans-serif" font-weight="400" font-size="41" transform="matrix(1 0 0 1 4404.56 454)">Android</text>
		</g>
		<g>
			<rect x="4372" y="508" width="22.9995" height="23" fill="#005aa6" />
		</g>
		<g>
			<text fill="#595959" font-family="Verdana,Open Sans,DejaVu Sans,sans-serif" font-weight="400" font-size="41" transform="matrix(1 0 0 1 4404.56 531)">iOS</text>
		</g>
		<g>
			<rect x="4372" y="585" width="22.9995" height="23" fill="#55c0e9" />
		</g>
		<g>
			<text fill="#595959" font-family="Verdana,Open Sans,DejaVu Sans,sans-serif" font-weight="400" font-size="41" transform="matrix(1 0 0 1 4404.56 608)">Windows</text>
		</g>
		<g>
			<rect x="4372" y="662" width="22.9995" height="23" fill="#f6a118" />
		</g>
		<g>
			<text fill="#595959" font-family="Verdana,Open Sans,DejaVu Sans,sans-serif" font-weight="400" font-size="41" transform="matrix(1 0 0 1 4404.56 685)">macOS</text>
		</g>
		<g>
			<rect x="4372" y="739" width="22.9995" height="23" fill="#fdd5a4" />
		</g>
		<g>
			<text fill="#595959" font-family="Verdana,Open Sans,DejaVu Sans,sans-serif" font-weight="400" font-size="41" transform="matrix(1 0 0 1 4404.56 762)">Linux</text>
		</g>
		<g>
			<rect x="4372" y="816" width="22.9995" height="23" fill="#f48c7d" />
		</g>
		<g>
			<text fill="#595959" font-family="Verdana,Open Sans,DejaVu Sans,sans-serif" font-weight="400" font-size="41" transform="matrix(1 0 0 1 4404.56 839)">Other</text>
		</g>
		<g>
			<rect x="4372" y="893" width="22.9995" height="23" fill="#393d41" />
		</g>
		<g>
			<text fill="#595959" font-family="Verdana,Open Sans,DejaVu Sans,sans-serif" font-weight="400" font-size="41" transform="matrix(1 0 0 1 4404.56 916)">Unclassified</text>
		</g>
	</g>
</svg>
