<svg width="1763" height="1046"
    xmlns="http://www.w3.org/2000/svg"
	xmlns:xlink="http://www.w3.org/1999/xlink" xml:space="preserve" overflow="hidden">
	<defs>
		<clipPath id="clip0">
			<rect x="2917" y="346" width="1763" height="1046"/>
		</clipPath>
	</defs>
	<g clip-path="url(#clip0)" transform="translate(-2917 -346)">
		<rect x="2918" y="347" width="1760" height="1043" fill="#FFFFFF" />
		<g>
			<path d="
			M3228.5 974.532 4296.5 974.532
			M3228.5 910.53 4296.5 910.53
			M3228.5 846.528 4296.5 846.528
			M3228.5 781.526 4296.5 781.526
			M3228.5 717.524 4296.5 717.524
			M3228.5 653.522 4296.5 653.522
			M3228.5 589.52 4296.5 589.52
			M3228.5 525.517 4296.5 525.517
			M3228.5 461.515 4296.5 461.515
			M3228.5 397.5 4296.5 397.5" stroke="#D9D9D9" stroke-width="3.4375" stroke-linejoin="round" stroke-miterlimit="10" fill="none" />
		</g>
		<g>
			<path d="M 1038.5 4296.5 1038.5" stroke="#D9D9D9" stroke-width="3.4375" stroke-linejoin="round" stroke-miterlimit="10" fill="none" fill-rule="evenodd" />
		</g>
		<g>
			<text fill="#595959" font-family="Verdana,Open Sans,DejaVu Sans,sans-serif" font-weight="400" font-size="41" transform="matrix(6.12323e-17 -1 1 6.12323e-17 3248.269287109375 1216.51513671875)">26-May</text>
		</g>
		<g>
			<text fill="#595959" font-family="Verdana,Open Sans,DejaVu Sans,sans-serif" font-weight="400" font-size="41" transform="matrix(6.12323e-17 -1 1 6.12323e-17 3332.65826171875 1194.1733322143555)">30-Jun</text>
		</g>
		<g>
			<text fill="#595959" font-family="Verdana,Open Sans,DejaVu Sans,sans-serif" font-weight="400" font-size="41" transform="matrix(6.12323e-17 -1 1 6.12323e-17 3418.808955078125 1179.0385665893555)">28-Jul</text>
		</g>
		<g>
			<text fill="#595959" font-family="Verdana,Open Sans,DejaVu Sans,sans-serif" font-weight="400" font-size="41" transform="matrix(6.12323e-17 -1 1 6.12323e-17 3504.589287109375 1208.66748046875)">25-Aug</text>
		</g>
		<g>
			<text fill="#595959" font-family="Verdana,Open Sans,DejaVu Sans,sans-serif" font-weight="400" font-size="41" transform="matrix(6.12323e-17 -1 1 6.12323e-17 3590.029287109375 1204.42333984375)">22-Sep</text>
		</g>
		<g>
			<text fill="#595959" font-family="Verdana,Open Sans,DejaVu Sans,sans-serif" font-weight="400" font-size="41" transform="matrix(6.12323e-17 -1 1 6.12323e-17 3670.764697265625 1201.1401290893555)">20-Oct</text>
		</g>
		<g>
			<text fill="#595959" font-family="Verdana,Open Sans,DejaVu Sans,sans-serif" font-weight="400" font-size="41" transform="matrix(6.12323e-17 -1 1 6.12323e-17 3755.97447265625 1209.70849609375)">17-Nov</text>
		</g>
		<g>
			<text fill="#595959" font-family="Verdana,Open Sans,DejaVu Sans,sans-serif" font-weight="400" font-size="41" transform="matrix(6.12323e-17 -1 1 6.12323e-17 3841.41447265625 1205.3642578125)">15-Dec</text>
		</g>
		<g>
			<text fill="#595959" font-family="Verdana,Open Sans,DejaVu Sans,sans-serif" font-weight="400" font-size="41" transform="matrix(6.12323e-17 -1 1 6.12323e-17 3930.7182421875 1189.9291915893555)">12-Jan</text>
		</g>
		<g>
			<text fill="#595959" font-family="Verdana,Open Sans,DejaVu Sans,sans-serif" font-weight="400" font-size="41" transform="matrix(6.12323e-17 -1 1 6.12323e-17 4013.235390625 1203.0419921875)">09-Feb</text>
		</g>
		<g>
			<text fill="#595959" font-family="Verdana,Open Sans,DejaVu Sans,sans-serif" font-weight="400" font-size="41" transform="matrix(6.12323e-17 -1 1 6.12323e-17 4097.964697265625 1212.0107421875)">09-Mar</text>
		</g>
		<g>
			<text fill="#595959" font-family="Verdana,Open Sans,DejaVu Sans,sans-serif" font-weight="400" font-size="41" transform="matrix(6.12323e-17 -1 1 6.12323e-17 4188.129306640625 1203.2621994018555)">06-Apr</text>
		</g>
		<g>
			<text fill="#595959" font-family="Verdana,Open Sans,DejaVu Sans,sans-serif" font-weight="400" font-size="41" transform="matrix(6.12323e-17 -1 1 6.12323e-17 4273.569306640625 1216.47509765625)">04-May</text>
		</g>
		<g>
			<text fill="#595959" font-family="Verdana,Open Sans,DejaVu Sans,sans-serif" font-weight="400" font-size="41" transform="matrix(1 0 0 1 3135.4482421875 1050)">0%</text>
		</g>
		<g>
			<text fill="#595959" font-family="Verdana,Open Sans,DejaVu Sans,sans-serif" font-weight="400" font-size="41" transform="matrix(1 0 0 1 3111.96533203125 922)">20%</text>
		</g>
		<g>
			<text fill="#595959" font-family="Verdana,Open Sans,DejaVu Sans,sans-serif" font-weight="400" font-size="41" transform="matrix(1 0 0 1 3110.82421875 794)">40%</text>
		</g>
		<g>
			<text fill="#595959" font-family="Verdana,Open Sans,DejaVu Sans,sans-serif" font-weight="400" font-size="41" transform="matrix(1 0 0 1 3112.3056640625 666)">60%</text>
		</g>
		<g>
			<text fill="#595959" font-family="Verdana,Open Sans,DejaVu Sans,sans-serif" font-weight="400" font-size="41" transform="matrix(1 0 0 1 3112.04541015625 538)">80%</text>
		</g>
		<g>
			<text fill="#595959" font-family="Verdana,Open Sans,DejaVu Sans,sans-serif" font-weight="400" font-size="41" transform="matrix(1 0 0 1 3090.2841796875 410)">100%</text>
		</g>
		<g>
			<text fill="#595959" font-family="Verdana,Open Sans,DejaVu Sans,sans-serif" font-weight="400" font-size="41" transform="matrix(1 0 0 1 3556.97119140625 1321)">Week Commencing</text>
		</g>
		<g>
			<text fill="#595959" font-family="Verdana,Open Sans,DejaVu Sans,sans-serif" font-weight="400" font-size="46" transform="matrix(6.12323e-17 -1 1 6.12323e-17 3019.73 936.7665710449219)">Requests (% of Total)</text>
		</g>
		<rect x="2918.5" y="347.5" width="1760" height="1043" stroke="#D9D9D9" stroke-width="3.4375" stroke-linejoin="round" stroke-miterlimit="10" fill="none" />
		<g>
			<path d="M3228.5 1038 3249.86 1038 3271.22 1038 3292.58 1038 3313.94 1038 3335.3 1038 3356.66 1038 3378.02 1038 3399.38 1038 3420.74 1038 3442.1 1038 3463.46 1038 3484.82 1038 3506.18 1038 3527.54 1038 3548.9 1038 3570.26 1038 3591.62 1038 3612.98 1038 3634.34 1038 3655.7 1038 3677.06 1038 3698.42 1038 3719.7799999999997 1038 3741.14 1038 3762.5 1038 3783.86 1038 3805.2200000000003 1038 3826.58 1038 3847.94 1038 3869.3 1038 3890.66 1038 3912.02 1038 3933.38 1038 3954.74 1038 3976.1 1038 3997.46 1038 4018.8199999999997 1038 4040.18 1038 4061.54 1038 4082.9 1038 4104.26 1038 4125.62 1038 4146.98 1038 4168.34 1038 4189.7 1038 4211.0599999999995 1038 4232.42 1038 4253.78 1038 4275.139999999999 1038 4296.5 1038 4296.5 754.7905253112169 4275.139999999999 753.5737063905224 4253.78 752.5091044751014 4232.42 751.1909604384529 4211.0599999999995 749.859206747301 4189.7 750.3443908538584 4168.34 747.2654821077697 4146.98 746.5194038317675 4125.62 745.8055486763521 4104.26 745.625269596429 4082.9 745.5837285424925 4061.54 745.5518539372332 4040.18 745.5916587614981 4018.8199999999997 745.6264248572595 3997.46 746.5726732254989 3976.1 746.8242705611495 3954.74 746.4260841443786 3933.38 746.1408324365968 3912.02 746.1086007114674 3890.66 746.7358843125422 3869.3 747.3561118905186 3847.94 749.7549747311173 3826.58 751.708180030847 3805.2200000000003 751.761881610288 3783.86 753.5875510114441 3762.5 760.0049069239963 3741.14 757.9113031477688 3719.7799999999997 759.380873288005 3698.42 764.3156850172985 3677.06 764.3768419479462 3655.7 764.3547678374432 3634.34 764.4897401031296 3612.98 766.8609306167309 3591.62 766.8567475951404 3570.26 767.9192079463141 3548.9 768.908358113137 3527.54 771.7976640891548 3506.18 772.995900100849 3484.82 773.0047654751563 3463.46 774.0176159604634 3442.1 776.3680200175993 3420.74 776.3453368808368 3399.38 776.3465392709672 3378.02 776.3609674251002 3356.66 776.5119637903555 3335.3 778.9439765467624 3313.94 785.3332769215773 3292.58 785.3813296257167 3271.22 786.9316254516905 3249.86 788.064069053389 3228.5 789.5346539181728 3228.5 1038Z" fill="#e62d39" opacity="0.9" />
		</g>
		<g>
			<path d="M3228.5 789.5346539181728 3249.86 788.064069053389 3271.22 786.9316254516905 3292.58 785.3813296257167 3313.94 785.3332769215773 3335.3 778.9439765467624 3356.66 776.5119637903555 3378.02 776.3609674251002 3399.38 776.3465392709672 3420.74 776.3453368808368 3442.1 776.3680200175993 3463.46 774.0176159604634 3484.82 773.0047654751563 3506.18 772.995900100849 3527.54 771.7976640891548 3548.9 768.908358113137 3570.26 767.9192079463141 3591.62 766.8567475951404 3612.98 766.8609306167309 3634.34 764.4897401031296 3655.7 764.3547678374432 3677.06 764.3768419479462 3698.42 764.3156850172985 3719.7799999999997 759.380873288005 3741.14 757.9113031477688 3762.5 760.0049069239963 3783.86 753.5875510114441 3805.2200000000003 751.761881610288 3826.58 751.708180030847 3847.94 749.7549747311173 3869.3 747.3561118905186 3890.66 746.7358843125422 3912.02 746.1086007114674 3933.38 746.1408324365968 3954.74 746.4260841443786 3976.1 746.8242705611495 3997.46 746.5726732254989 4018.8199999999997 745.6264248572595 4040.18 745.5916587614981 4061.54 745.5518539372332 4082.9 745.5837285424925 4104.26 745.625269596429 4125.62 745.8055486763521 4146.98 746.5194038317675 4168.34 747.2654821077697 4189.7 750.3443908538584 4211.0599999999995 749.859206747301 4232.42 751.1909604384529 4253.78 752.5091044751014 4275.139999999999 753.5737063905224 4296.5 754.7905253112169 4296.5 531.3007083398543 4275.139999999999 531.2896928062746 4253.78 531.4874215112181 4232.42 531.6206852488414 4211.0599999999995 531.4824060530289 4189.7 531.6690142595838 4168.34 530.3351700422893 4146.98 530.1079562333385 4125.62 529.767884481243 4104.26 529.5015251143122 4082.9 529.6072381711158 4061.54 529.6759586106136 4040.18 528.943616141882 4018.8199999999997 528.9256108228878 3997.46 529.7822561735807 3976.1 530.0318797750176 3954.74 529.5742385244796 3933.38 529.1641691809261 3912.02 529.1689859268577 3890.66 529.2185804117662 3869.3 529.5448927766422 3847.94 529.3666745800084 3826.58 529.7448004770854 3805.2200000000003 529.7274153021705 3783.86 530.163015188101 3762.5 532.2645239373791 3741.14 531.3268574465264 3719.7799999999997 531.4166307781715 3698.42 531.7572224646864 3677.06 531.7708483166984 3655.7 531.8218985108718 3634.34 531.9849023445704 3612.98 531.7935729648713 3591.62 531.7864321784326 3570.26 531.5727707842481 3548.9 531.4390936505183 3527.54 532.2027211748189 3506.18 532.4711028871407 3484.82 532.4751666451237 3463.46 532.6424401194076 3442.1 532.3819588718641 3420.74 532.3762321494829 3399.38 532.3835012006392 3378.02 532.4008414612442 3356.66 531.9653947132791 3335.3 532.7065148297092 3313.94 534.1646402996798 3292.58 534.1813437994358 3271.22 534.0614406876781 3249.86 533.9651928337187 3228.5 533.7866116772315 3228.5 789.5346539181728Z" fill="#005aa6" opacity="0.9" />
		</g>
		<g>
			<path d="M3228.5 533.7866116772315 3249.86 533.9651928337187 3271.22 534.0614406876781 3292.58 534.1813437994358 3313.94 534.1646402996798 3335.3 532.7065148297092 3356.66 531.9653947132791 3378.02 532.4008414612442 3399.38 532.3835012006392 3420.74 532.3762321494829 3442.1 532.3819588718641 3463.46 532.6424401194076 3484.82 532.4751666451237 3506.18 532.4711028871407 3527.54 532.2027211748189 3548.9 531.4390936505183 3570.26 531.5727707842481 3591.62 531.7864321784326 3612.98 531.7935729648713 3634.34 531.9849023445704 3655.7 531.8218985108718 3677.06 531.7708483166984 3698.42 531.7572224646864 3719.7799999999997 531.4166307781715 3741.14 531.3268574465264 3762.5 532.2645239373791 3783.86 530.163015188101 3805.2200000000003 529.7274153021705 3826.58 529.7448004770854 3847.94 529.3666745800084 3869.3 529.5448927766422 3890.66 529.2185804117662 3912.02 529.1689859268577 3933.38 529.1641691809261 3954.74 529.5742385244796 3976.1 530.0318797750176 3997.46 529.7822561735807 4018.8199999999997 528.9256108228878 4040.18 528.943616141882 4061.54 529.6759586106136 4082.9 529.6072381711158 4104.26 529.5015251143122 4125.62 529.767884481243 4146.98 530.1079562333385 4168.34 530.3351700422893 4189.7 531.6690142595838 4211.0599999999995 531.4824060530289 4232.42 531.6206852488414 4253.78 531.4874215112181 4275.139999999999 531.2896928062746 4296.5 531.3007083398543 4296.5 486.20889715304327 4275.139999999999 486.6118670637434 4253.78 487.2177518598812 4232.42 487.710660836673 4211.0599999999995 488.0571972463991 4189.7 488.49331840138825 4168.34 488.00156539342817 4146.98 487.9037558495532 4125.62 487.95222090418406 4104.26 488.0992768689666 4082.9 488.4707685226323 4061.54 488.81730930051134 4040.18 489.66218659583717 4018.8199999999997 489.6497010215789 3997.46 489.62346831140377 3976.1 490.08709103844944 3954.74 489.8264670604297 3933.38 489.6030568350501 3912.02 489.6027851684956 3890.66 489.6838400376917 3869.3 490.1068496342023 3847.94 490.9492704753914 3826.58 490.39407239534404 3805.2200000000003 490.3851968973204 3783.86 490.7185530259544 3762.5 492.30515321923616 3741.14 491.64116500384506 3719.7799999999997 491.78456573649515 3698.42 491.92955522350275 3677.06 491.93920435370626 3655.7 491.9768227136466 3634.34 492.1505952348429 3612.98 491.85600669794854 3591.62 491.8513930148632 3570.26 491.63219577145946 3548.9 491.4978977886208 3527.54 491.99009410225506 3506.18 492.16551794945576 3484.82 492.1686259707535 3463.46 492.21654806017045 3442.1 491.7116461371828 3420.74 491.70767780671554 3399.38 491.71346164432515 3378.02 491.7282826494978 3356.66 491.33050875804906 3335.3 491.76141449343754 3313.94 492.74242973299926 3292.58 492.75457857238825 3271.22 492.5918650008465 3249.86 492.35892132336346 3228.5 492.0889325160488 3228.5 533.7866116772315Z" fill="#55c0e9" opacity="0.9" />
		</g>
		<g>
			<path d="M3228.5 492.0889325160488 3249.86 492.35892132336346 3271.22 492.5918650008465 3292.58 492.75457857238825 3313.94 492.74242973299926 3335.3 491.76141449343754 3356.66 491.33050875804906 3378.02 491.7282826494978 3399.38 491.71346164432515 3420.74 491.70767780671554 3442.1 491.7116461371828 3463.46 492.21654806017045 3484.82 492.1686259707535 3506.18 492.16551794945576 3527.54 491.99009410225506 3548.9 491.4978977886208 3570.26 491.63219577145946 3591.62 491.8513930148632 3612.98 491.85600669794854 3634.34 492.1505952348429 3655.7 491.9768227136466 3677.06 491.93920435370626 3698.42 491.92955522350275 3719.7799999999997 491.78456573649515 3741.14 491.64116500384506 3762.5 492.30515321923616 3783.86 490.7185530259544 3805.2200000000003 490.3851968973204 3826.58 490.39407239534404 3847.94 490.9492704753914 3869.3 490.1068496342023 3890.66 489.6838400376917 3912.02 489.6027851684956 3933.38 489.6030568350501 3954.74 489.8264670604297 3976.1 490.08709103844944 3997.46 489.62346831140377 4018.8199999999997 489.6497010215789 4040.18 489.66218659583717 4061.54 488.81730930051134 4082.9 488.4707685226323 4104.26 488.0992768689666 4125.62 487.95222090418406 4146.98 487.9037558495532 4168.34 488.00156539342817 4189.7 488.49331840138825 4211.0599999999995 488.0571972463991 4232.42 487.710660836673 4253.78 487.2177518598812 4275.139999999999 486.6118670637434 4296.5 486.20889715304327 4296.5 473.1639770238033 4275.139999999999 473.7464712888439 4253.78 474.59777194801586 4232.42 475.23714530807007 4211.0599999999995 475.74598723167173 4189.7 476.3034641007523 4168.34 476.04032244458955 4146.98 476.08864417534 4125.62 476.2563330555304 4104.26 476.501380298194 4082.9 476.9091078280443 4061.54 477.3175055832355 4040.18 478.10739716876634 4018.8199999999997 478.09661826532414 3997.46 478.15999289365544 3976.1 478.5827424221303 3954.74 478.38419566392514 3933.38 478.2713135439936 3912.02 478.26942714386075 3890.66 478.5099393463872 3869.3 478.7941392845137 3847.94 479.58006819193264 3826.58 479.10650501970053 3805.2200000000003 479.0999411202481 3783.86 479.4072866140748 3762.5 480.96640637284213 3741.14 480.2698842349475 3719.7799999999997 480.4907637351383 3698.42 480.4086170616429 3677.06 480.41676419469263 3655.7 480.45029730465194 3634.34 480.6272134139708 3612.98 480.40305013594224 3591.62 480.39917600110454 3570.26 480.2978208961403 3548.9 480.1378211447884 3527.54 480.4875119170523 3506.18 480.62062646338103 3484.82 480.623498410782 3463.46 480.6254558284506 3442.1 479.9434244465183 3420.74 479.939862628262 3399.38 479.94505960714844 3378.02 479.95902615881243 3356.66 479.5505692873087 3335.3 479.86304908787844 3313.94 480.59388216933854 3292.58 480.6043736648512 3271.22 480.3867647714376 3249.86 480.0939647438401 3228.5 479.7308663765565 3228.5 492.0889325160488Z" fill="#f6a118" opacity="0.9" />
		</g>
		<g>
			<path d="M3228.5 479.7308663765565 3249.86 480.0939647438401 3271.22 480.3867647714376 3292.58 480.6043736648512 3313.94 480.59388216933854 3335.3 479.86304908787844 3356.66 479.5505692873087 3378.02 479.95902615881243 3399.38 479.94505960714844 3420.74 479.939862628262 3442.1 479.9434244465183 3463.46 480.6254558284506 3484.82 480.623498410782 3506.18 480.62062646338103 3527.54 480.4875119170523 3548.9 480.1378211447884 3570.26 480.2978208961403 3591.62 480.39917600110454 3612.98 480.40305013594224 3634.34 480.6272134139708 3655.7 480.45029730465194 3677.06 480.41676419469263 3698.42 480.4086170616429 3719.7799999999997 480.4907637351383 3741.14 480.2698842349475 3762.5 480.96640637284213 3783.86 479.4072866140748 3805.2200000000003 479.0999411202481 3826.58 479.10650501970053 3847.94 479.58006819193264 3869.3 478.7941392845137 3890.66 478.5099393463872 3912.02 478.26942714386075 3933.38 478.2713135439936 3954.74 478.38419566392514 3976.1 478.5827424221303 3997.46 478.15999289365544 4018.8199999999997 478.09661826532414 4040.18 478.10739716876634 4061.54 477.3175055832355 4082.9 476.9091078280443 4104.26 476.501380298194 4125.62 476.2563330555304 4146.98 476.08864417534 4168.34 476.04032244458955 4189.7 476.3034641007523 4211.0599999999995 475.74598723167173 4232.42 475.23714530807007 4253.78 474.59777194801586 4275.139999999999 473.7464712888439 4296.5 473.1639770238033 4296.5 468.7093552829413 4275.139999999999 469.32209426095994 4253.78 470.179152895614 4232.42 470.83280416124353 4211.0599999999995 471.35852133856207 4189.7 471.9149927259896 4168.34 471.6905736054739 4146.98 471.763371221977 4125.62 471.9574850631018 4104.26 472.2340193606014 4082.9 472.6559547595341 4061.54 473.0650745461115 4040.18 473.82819172566997 4018.8199999999997 473.8181074091512 3997.46 473.8782116867164 3976.1 474.28062031125177 3954.74 474.09267029394687 3933.38 473.9897191134042 3912.02 473.9871807138114 3890.66 474.22541956826655 3869.3 474.511998002383 3847.94 475.27887736921514 3826.58 474.8518141039069 3805.2200000000003 474.8469015951653 3783.86 475.13902259765536 3762.5 476.6264014136676 3741.14 475.9675036747879 3719.7799999999997 476.1855240028958 3698.42 476.0304088632991 3677.06 476.03986709155856 3655.7 476.07416075277575 3634.34 476.25220661385714 3612.98 475.9804259287693 3591.62 475.9771097573116 3570.26 475.85734943037994 3548.9 475.67113203039463 3527.54 475.9445091636468 3506.18 476.0428252544268 3484.82 476.0456947164946 3463.46 476.0126442187972 3442.1 475.2164345015217 3420.74 475.2129700329708 3399.38 475.2181577191099 3378.02 475.2322484984899 3356.66 474.81810616673476 3335.3 475.10657399076854 3313.94 475.80132801818854 3292.58 475.81236587515644 3271.22 475.5856075858726 3249.86 475.27426702627764 3228.5 474.8948962586183 3228.5 479.7308663765565Z" fill="#fdd5a4" opacity="0.9" />
		</g>
		<g>
			<path d="M3228.5 474.8948962586183 3249.86 475.27426702627764 3271.22 475.5856075858726 3292.58 475.81236587515644 3313.94 475.80132801818854 3335.3 475.10657399076854 3356.66 474.81810616673476 3378.02 475.2322484984899 3399.38 475.2181577191099 3420.74 475.2129700329708 3442.1 475.2164345015217 3463.46 476.0126442187972 3484.82 476.0456947164946 3506.18 476.0428252544268 3527.54 475.9445091636468 3548.9 475.67113203039463 3570.26 475.85734943037994 3591.62 475.9771097573116 3612.98 475.9804259287693 3634.34 476.25220661385714 3655.7 476.07416075277575 3677.06 476.03986709155856 3698.42 476.0304088632991 3719.7799999999997 476.1855240028958 3741.14 475.9675036747879 3762.5 476.6264014136676 3783.86 475.13902259765536 3805.2200000000003 474.8469015951653 3826.58 474.8518141039069 3847.94 475.27887736921514 3869.3 474.511998002383 3890.66 474.22541956826655 3912.02 473.9871807138114 3933.38 473.9897191134042 3954.74 474.09267029394687 3976.1 474.28062031125177 3997.46 473.8782116867164 4018.8199999999997 473.8181074091512 4040.18 473.82819172566997 4061.54 473.0650745461115 4082.9 472.6559547595341 4104.26 472.2340193606014 4125.62 471.9574850631018 4146.98 471.763371221977 4168.34 471.6905736054739 4189.7 471.9149927259896 4211.0599999999995 471.35852133856207 4232.42 470.83280416124353 4253.78 470.179152895614 4275.139999999999 469.32209426095994 4296.5 468.7093552829413 4296.5 466.0003628505107 4275.139999999999 466.6138363140116 4253.78 467.47119043546877 4232.42 468.10966081469456 4211.0599999999995 468.63278021070374 4189.7 469.1859358213357 4168.34 469.0039882230996 4146.98 469.0649184884676 4125.62 469.272109525969 4104.26 469.56054940240006 4082.9 470.00314366447725 4061.54 470.42216191971556 4040.18 471.16063030075713 4018.8199999999997 471.15110050258926 3997.46 471.2005668211781 3976.1 471.56419721584615 3954.74 471.35961801945126 3933.38 471.1659266751794 3912.02 471.15503597364875 3890.66 471.36241611042175 3869.3 471.63391436910644 3847.94 472.3711663447606 3826.58 471.84780556889575 3805.2200000000003 471.84385861501005 3783.86 472.0370495671892 3762.5 473.4135261402591 3741.14 472.6948042788454 3719.7799999999997 472.8722901716775 3698.42 472.3229333883161 3677.06 472.33160122478233 3655.7 472.3663150934169 3634.34 472.5454339613937 3612.98 472.089365302357 3591.62 472.0865469044695 3570.26 471.87656051033446 3548.9 471.6164928135846 3527.54 471.7330711807051 3506.18 471.76332000605703 3484.82 471.766218855925 3463.46 471.666704132637 3442.1 470.5946289838734 3420.74 470.5925960519466 3399.38 470.5979497527046 3378.02 470.6143953187705 3356.66 470.16763283113994 3335.3 470.4164498778376 3313.94 471.0661628206815 3292.58 471.07731696753683 3271.22 470.8209639445631 3249.86 470.4605146316375 3228.5 469.9795822434353 3228.5 474.8948962586183Z" fill="#f48c7d" opacity="0.9" />
		</g>
		<g>
			<path d="M3228.5 469.9795822434353 3249.86 470.4605146316375 3271.22 470.8209639445631 3292.58 471.07731696753683 3313.94 471.0661628206815 3335.3 470.4164498778376 3356.66 470.16763283113994 3378.02 470.6143953187705 3399.38 470.5979497527046 3420.74 470.5925960519466 3442.1 470.5946289838734 3463.46 471.666704132637 3484.82 471.766218855925 3506.18 471.76332000605703 3527.54 471.7330711807051 3548.9 471.6164928135846 3570.26 471.87656051033446 3591.62 472.0865469044695 3612.98 472.089365302357 3634.34 472.5454339613937 3655.7 472.3663150934169 3677.06 472.33160122478233 3698.42 472.3229333883161 3719.7799999999997 472.8722901716775 3741.14 472.6948042788454 3762.5 473.4135261402591 3783.86 472.0370495671892 3805.2200000000003 471.84385861501005 3826.58 471.84780556889575 3847.94 472.3711663447606 3869.3 471.63391436910644 3890.66 471.36241611042175 3912.02 471.15503597364875 3933.38 471.1659266751794 3954.74 471.35961801945126 3976.1 471.56419721584615 3997.46 471.2005668211781 4018.8199999999997 471.15110050258926 4040.18 471.16063030075713 4061.54 470.42216191971556 4082.9 470.00314366447725 4104.26 469.56054940240006 4125.62 469.272109525969 4146.98 469.0649184884676 4168.34 469.0039882230996 4189.7 469.1859358213357 4211.0599999999995 468.63278021070374 4232.42 468.10966081469456 4253.78 467.47119043546877 4275.139999999999 466.6138363140116 4296.5 466.0003628505107 4296.5 398 4275.139999999999 397.9999999999999 4253.78 398.00000000000006 4232.42 398 4211.0599999999995 398 4189.7 398.00000000000006 4168.34 398.00000000000006 4146.98 397.9999999999999 4125.62 398.0000000000001 4104.26 397.9999999999999 4082.9 398 4061.54 397.9999999999999 4040.18 398.0000000000001 4018.8199999999997 398 3997.46 398.00000000000006 3976.1 397.9999999999999 3954.74 398 3933.38 398.00000000000017 3912.02 398 3890.66 398.00000000000006 3869.3 397.99999999999994 3847.94 398.00000000000006 3826.58 397.9999999999999 3805.2200000000003 397.99999999999994 3783.86 398 3762.5 398 3741.14 397.99999999999994 3719.7799999999997 397.9999999999999 3698.42 398 3677.06 398 3655.7 398 3634.34 398.0000000000001 3612.98 398 3591.62 398 3570.26 398.0000000000002 3548.9 397.99999999999994 3527.54 398 3506.18 398.0000000000001 3484.82 398 3463.46 398.00000000000006 3442.1 398.00000000000006 3420.74 397.99999999999994 3399.38 398.00000000000017 3378.02 398 3356.66 398.00000000000017 3335.3 397.9999999999999 3313.94 397.9999999999999 3292.58 398.0000000000001 3271.22 397.9999999999999 3249.86 398 3228.5 397.9999999999999 3228.5 469.9795822434353Z" fill="#393d41" opacity="0.9" />
		</g>
		<g>
			<rect x="4372" y="431" width="22.9995" height="23" fill="#e62d39" />
		</g>
		<g>
			<text fill="#595959" font-family="Verdana,Open Sans,DejaVu Sans,sans-serif" font-weight="400" font-size="41" transform="matrix(1 0 0 1 4404.56 454)">Android</text>
		</g>
		<g>
			<rect x="4372" y="508" width="22.9995" height="23" fill="#005aa6" />
		</g>
		<g>
			<text fill="#595959" font-family="Verdana,Open Sans,DejaVu Sans,sans-serif" font-weight="400" font-size="41" transform="matrix(1 0 0 1 4404.56 531)">iOS</text>
		</g>
		<g>
			<rect x="4372" y="585" width="22.9995" height="23" fill="#55c0e9" />
		</g>
		<g>
			<text fill="#595959" font-family="Verdana,Open Sans,DejaVu Sans,sans-serif" font-weight="400" font-size="41" transform="matrix(1 0 0 1 4404.56 608)">Windows</text>
		</g>
		<g>
			<rect x="4372" y="662" width="22.9995" height="23" fill="#f6a118" />
		</g>
		<g>
			<text fill="#595959" font-family="Verdana,Open Sans,DejaVu Sans,sans-serif" font-weight="400" font-size="41" transform="matrix(1 0 0 1 4404.56 685)">macOS</text>
		</g>
		<g>
			<rect x="4372" y="739" width="22.9995" height="23" fill="#fdd5a4" />
		</g>
		<g>
			<text fill="#595959" font-family="Verdana,Open Sans,DejaVu Sans,sans-serif" font-weight="400" font-size="41" transform="matrix(1 0 0 1 4404.56 762)">Linux</text>
		</g>
		<g>
			<rect x="4372" y="816" width="22.9995" height="23" fill="#f48c7d" />
		</g>
		<g>
			<text fill="#595959" font-family="Verdana,Open Sans,DejaVu Sans,sans-serif" font-weight="400" font-size="41" transform="matrix(1 0 0 1 4404.56 839)">Other</text>
		</g>
		<g>
			<rect x="4372" y="893" width="22.9995" height="23" fill="#393d41" />
		</g>
		<g>
			<text fill="#595959" font-family="Verdana,Open Sans,DejaVu Sans,sans-serif" font-weight="400" font-size="41" transform="matrix(1 0 0 1 4404.56 916)">Unclassified</text>
		</g>
	</g>
</svg>
