<svg width="1763" height="1046"
    xmlns="http://www.w3.org/2000/svg"
	xmlns:xlink="http://www.w3.org/1999/xlink" xml:space="preserve" overflow="hidden">
	<defs>
		<clipPath id="clip0">
			<rect x="2917" y="346" width="1763" height="1046"/>
		</clipPath>
	</defs>
	<g clip-path="url(#clip0)" transform="translate(-2917 -346)">
		<rect x="2918" y="347" width="1760" height="1043" fill="#FFFFFF" />
		<g>
			<path d="
			M3228.5 974.532 4296.5 974.532
			M3228.5 910.53 4296.5 910.53
			M3228.5 846.528 4296.5 846.528
			M3228.5 781.526 4296.5 781.526
			M3228.5 717.524 4296.5 717.524
			M3228.5 653.522 4296.5 653.522
			M3228.5 589.52 4296.5 589.52
			M3228.5 525.517 4296.5 525.517
			M3228.5 461.515 4296.5 461.515
			M3228.5 397.5 4296.5 397.5" stroke="#D9D9D9" stroke-width="3.4375" stroke-linejoin="round" stroke-miterlimit="10" fill="none" />
		</g>
		<g>
			<path d="M 1038.5 4296.5 1038.5" stroke="#D9D9D9" stroke-width="3.4375" stroke-linejoin="round" stroke-miterlimit="10" fill="none" fill-rule="evenodd" />
		</g>
		<g>
			<text fill="#595959" font-family="Verdana,Open Sans,DejaVu Sans,sans-serif" font-weight="400" font-size="41" transform="matrix(6.12323e-17 -1 1 6.12323e-17 3243.544677734375 1212.1708984375)">31-Mar</text>
		</g>
		<g>
			<text fill="#595959" font-family="Verdana,Open Sans,DejaVu Sans,sans-serif" font-weight="400" font-size="41" transform="matrix(6.12323e-17 -1 1 6.12323e-17 3332.033992991728 1203.3022384643555)">28-Apr</text>
		</g>
		<g>
			<text fill="#595959" font-family="Verdana,Open Sans,DejaVu Sans,sans-serif" font-weight="400" font-size="41" transform="matrix(6.12323e-17 -1 1 6.12323e-17 3415.798698874081 1216.51513671875)">26-May</text>
		</g>
		<g>
			<text fill="#595959" font-family="Verdana,Open Sans,DejaVu Sans,sans-serif" font-weight="400" font-size="41" transform="matrix(6.12323e-17 -1 1 6.12323e-17 3498.512379365809 1194.1733322143555)">30-Jun</text>
		</g>
		<g>
			<text fill="#595959" font-family="Verdana,Open Sans,DejaVu Sans,sans-serif" font-weight="400" font-size="41" transform="matrix(6.12323e-17 -1 1 6.12323e-17 3582.9877786075367 1179.0385665893555)">28-Jul</text>
		</g>
		<g>
			<text fill="#595959" font-family="Verdana,Open Sans,DejaVu Sans,sans-serif" font-weight="400" font-size="41" transform="matrix(6.12323e-17 -1 1 6.12323e-17 3667.09281652114 1208.66748046875)">25-Aug</text>
		</g>
		<g>
			<text fill="#595959" font-family="Verdana,Open Sans,DejaVu Sans,sans-serif" font-weight="400" font-size="41" transform="matrix(6.12323e-17 -1 1 6.12323e-17 3750.8575224034926 1204.42333984375)">22-Sep</text>
		</g>
		<g>
			<text fill="#595959" font-family="Verdana,Open Sans,DejaVu Sans,sans-serif" font-weight="400" font-size="41" transform="matrix(6.12323e-17 -1 1 6.12323e-17 3829.9176384420957 1201.1401290893555)">20-Oct</text>
		</g>
		<g>
			<text fill="#595959" font-family="Verdana,Open Sans,DejaVu Sans,sans-serif" font-weight="400" font-size="41" transform="matrix(6.12323e-17 -1 1 6.12323e-17 3913.4521197150734 1209.70849609375)">17-Nov</text>
		</g>
		<g>
			<text fill="#595959" font-family="Verdana,Open Sans,DejaVu Sans,sans-serif" font-weight="400" font-size="41" transform="matrix(6.12323e-17 -1 1 6.12323e-17 3997.2168255974266 1205.3642578125)">15-Dec</text>
		</g>
		<g>
			<text fill="#595959" font-family="Verdana,Open Sans,DejaVu Sans,sans-serif" font-weight="400" font-size="41" transform="matrix(6.12323e-17 -1 1 6.12323e-17 4084.8453010110293 1189.9291915893555)">12-Jan</text>
		</g>
		<g>
			<text fill="#595959" font-family="Verdana,Open Sans,DejaVu Sans,sans-serif" font-weight="400" font-size="41" transform="matrix(6.12323e-17 -1 1 6.12323e-17 4165.687155330882 1203.0419921875)">09-Feb</text>
		</g>
		<g>
			<text fill="#595959" font-family="Verdana,Open Sans,DejaVu Sans,sans-serif" font-weight="400" font-size="41" transform="matrix(6.12323e-17 -1 1 6.12323e-17 4248.74116785386 1212.0107421875)">09-Mar</text>
		</g>
		<g>
			<text fill="#595959" font-family="Verdana,Open Sans,DejaVu Sans,sans-serif" font-weight="400" font-size="41" transform="matrix(1 0 0 1 3135.4482421875 1050)">0%</text>
		</g>
		<g>
			<text fill="#595959" font-family="Verdana,Open Sans,DejaVu Sans,sans-serif" font-weight="400" font-size="41" transform="matrix(1 0 0 1 3111.96533203125 922)">20%</text>
		</g>
		<g>
			<text fill="#595959" font-family="Verdana,Open Sans,DejaVu Sans,sans-serif" font-weight="400" font-size="41" transform="matrix(1 0 0 1 3110.82421875 794)">40%</text>
		</g>
		<g>
			<text fill="#595959" font-family="Verdana,Open Sans,DejaVu Sans,sans-serif" font-weight="400" font-size="41" transform="matrix(1 0 0 1 3112.3056640625 666)">60%</text>
		</g>
		<g>
			<text fill="#595959" font-family="Verdana,Open Sans,DejaVu Sans,sans-serif" font-weight="400" font-size="41" transform="matrix(1 0 0 1 3112.04541015625 538)">80%</text>
		</g>
		<g>
			<text fill="#595959" font-family="Verdana,Open Sans,DejaVu Sans,sans-serif" font-weight="400" font-size="41" transform="matrix(1 0 0 1 3090.2841796875 410)">100%</text>
		</g>
		<g>
			<text fill="#595959" font-family="Verdana,Open Sans,DejaVu Sans,sans-serif" font-weight="400" font-size="41" transform="matrix(1 0 0 1 3556.97119140625 1321)">Week Commencing</text>
		</g>
		<g>
			<text fill="#595959" font-family="Verdana,Open Sans,DejaVu Sans,sans-serif" font-weight="400" font-size="46" transform="matrix(6.12323e-17 -1 1 6.12323e-17 3019.73 936.7665710449219)">Requests (% of Total)</text>
		</g>
		<rect x="2918.5" y="347.5" width="1760" height="1043" stroke="#D9D9D9" stroke-width="3.4375" stroke-linejoin="round" stroke-miterlimit="10" fill="none" />
		<g>
			<path d="M3228.5 1038 3249.4411764705883 1038 3270.3823529411766 1038 3291.323529411765 1038 3312.264705882353 1038 3333.205882352941 1038 3354.1470588235293 1038 3375.0882352941176 1038 3396.029411764706 1038 3416.970588235294 1038 3437.9117647058824 1038 3458.8529411764707 1038 3479.794117647059 1038 3500.735294117647 1038 3521.676470588235 1038 3542.6176470588234 1038 3563.5588235294117 1038 3584.5 1038 3605.4411764705883 1038 3626.3823529411766 1038 3647.323529411765 1038 3668.264705882353 1038 3689.205882352941 1038 3710.1470588235293 1038 3731.0882352941176 1038 3752.029411764706 1038 3772.970588235294 1038 3793.9117647058824 1038 3814.8529411764707 1038 3835.7941176470586 1038 3856.735294117647 1038 3877.676470588235 1038 3898.6176470588234 1038 3919.5588235294117 1038 3940.5 1038 3961.4411764705883 1038 3982.3823529411766 1038 4003.323529411765 1038 4024.264705882353 1038 4045.2058823529414 1038 4066.1470588235293 1038 4087.0882352941176 1038 4108.029411764706 1038 4128.970588235294 1038 4149.911764705882 1038 4170.85294117647 1038 4191.794117647059 1038 4212.735294117647 1038 4233.676470588235 1038 4254.617647058823 1038 4275.558823529412 1038 4296.5 1038 4296.5 746.5194038317675 4275.558823529412 745.8055486763521 4254.617647058823 745.625269596429 4233.676470588235 745.5837285424925 4212.735294117647 745.5518539372332 4191.794117647059 745.5916587614981 4170.85294117647 745.6264248572595 4149.911764705882 746.5726732254989 4128.970588235294 746.8242705611495 4108.029411764706 746.4260841443786 4087.0882352941176 746.1408324365968 4066.1470588235293 746.1086007114674 4045.2058823529414 746.7358843125422 4024.264705882353 747.3561118905186 4003.323529411765 749.7549747311173 3982.3823529411766 751.708180030847 3961.4411764705883 751.761881610288 3940.5 753.5875510114441 3919.5588235294117 760.0049069239963 3898.6176470588234 757.9113031477688 3877.676470588235 759.380873288005 3856.735294117647 764.3156850172985 3835.7941176470586 764.3768419479462 3814.8529411764707 764.3547678374432 3793.9117647058824 764.4897401031296 3772.970588235294 766.8609306167309 3752.029411764706 766.8567475951404 3731.0882352941176 767.9192079463141 3710.1470588235293 768.908358113137 3689.205882352941 771.7976640891548 3668.264705882353 772.995900100849 3647.323529411765 773.0047654751563 3626.3823529411766 774.0176159604634 3605.4411764705883 776.3680200175993 3584.5 776.3453368808368 3563.5588235294117 776.3465392709672 3542.6176470588234 776.3609674251002 3521.676470588235 776.5119637903555 3500.735294117647 778.9439765467624 3479.794117647059 785.3332769215773 3458.8529411764707 785.3813296257167 3437.9117647058824 786.9316254516905 3416.970588235294 788.064069053389 3396.029411764706 789.5346539181728 3375.0882352941176 789.7270984819011 3354.1470588235293 789.5483223673614 3333.205882352941 789.1007508003959 3312.264705882353 788.5260313684701 3291.323529411765 788.0511809237687 3270.3823529411766 787.8975793566815 3249.4411764705883 787.8180633391596 3228.5 787.5170102748218 3228.5 1038Z" fill="#e62d39" opacity="0.9" />
		</g>
		<g>
			<path d="M3228.5 787.5170102748218 3249.4411764705883 787.8180633391596 3270.3823529411766 787.8975793566815 3291.323529411765 788.0511809237687 3312.264705882353 788.5260313684701 3333.205882352941 789.1007508003959 3354.1470588235293 789.5483223673614 3375.0882352941176 789.7270984819011 3396.029411764706 789.5346539181728 3416.970588235294 788.064069053389 3437.9117647058824 786.9316254516905 3458.8529411764707 785.3813296257167 3479.794117647059 785.3332769215773 3500.735294117647 778.9439765467624 3521.676470588235 776.5119637903555 3542.6176470588234 776.3609674251002 3563.5588235294117 776.3465392709672 3584.5 776.3453368808368 3605.4411764705883 776.3680200175993 3626.3823529411766 774.0176159604634 3647.323529411765 773.0047654751563 3668.264705882353 772.995900100849 3689.205882352941 771.7976640891548 3710.1470588235293 768.908358113137 3731.0882352941176 767.9192079463141 3752.029411764706 766.8567475951404 3772.970588235294 766.8609306167309 3793.9117647058824 764.4897401031296 3814.8529411764707 764.3547678374432 3835.7941176470586 764.3768419479462 3856.735294117647 764.3156850172985 3877.676470588235 759.380873288005 3898.6176470588234 757.9113031477688 3919.5588235294117 760.0049069239963 3940.5 753.5875510114441 3961.4411764705883 751.761881610288 3982.3823529411766 751.708180030847 4003.323529411765 749.7549747311173 4024.264705882353 747.3561118905186 4045.2058823529414 746.7358843125422 4066.1470588235293 746.1086007114674 4087.0882352941176 746.1408324365968 4108.029411764706 746.4260841443786 4128.970588235294 746.8242705611495 4149.911764705882 746.5726732254989 4170.85294117647 745.6264248572595 4191.794117647059 745.5916587614981 4212.735294117647 745.5518539372332 4233.676470588235 745.5837285424925 4254.617647058823 745.625269596429 4275.558823529412 745.8055486763521 4296.5 746.5194038317675 4296.5 530.1079562333385 4275.558823529412 529.767884481243 4254.617647058823 529.5015251143122 4233.676470588235 529.6072381711158 4212.735294117647 529.6759586106136 4191.794117647059 528.943616141882 4170.85294117647 528.9256108228878 4149.911764705882 529.7822561735807 4128.970588235294 530.0318797750176 4108.029411764706 529.5742385244796 4087.0882352941176 529.1641691809261 4066.1470588235293 529.1689859268577 4045.2058823529414 529.2185804117662 4024.264705882353 529.5448927766422 4003.323529411765 529.3666745800084 3982.3823529411766 529.7448004770854 3961.4411764705883 529.7274153021705 3940.5 530.163015188101 3919.5588235294117 532.2645239373791 3898.6176470588234 531.3268574465264 3877.676470588235 531.4166307781715 3856.735294117647 531.7572224646864 3835.7941176470586 531.7708483166984 3814.8529411764707 531.8218985108718 3793.9117647058824 531.9849023445704 3772.970588235294 531.7935729648713 3752.029411764706 531.7864321784326 3731.0882352941176 531.5727707842481 3710.1470588235293 531.4390936505183 3689.205882352941 532.2027211748189 3668.264705882353 532.4711028871407 3647.323529411765 532.4751666451237 3626.3823529411766 532.6424401194076 3605.4411764705883 532.3819588718641 3584.5 532.3762321494829 3563.5588235294117 532.3835012006392 3542.6176470588234 532.4008414612442 3521.676470588235 531.9653947132791 3500.735294117647 532.7065148297092 3479.794117647059 534.1646402996798 3458.8529411764707 534.1813437994358 3437.9117647058824 534.0614406876781 3416.970588235294 533.9651928337187 3396.029411764706 533.7866116772315 3375.0882352941176 533.5868149898097 3354.1470588235293 533.4688532767087 3333.205882352941 533.0768238550941 3312.264705882353 532.663421242623 3291.323529411765 532.2348192575948 3270.3823529411766 532.1820957819215 3249.4411764705883 532.3681470809754 3228.5 532.5201668090683 3228.5 787.5170102748218Z" fill="#005aa6" opacity="0.9" />
		</g>
		<g>
			<path d="M3228.5 532.5201668090683 3249.4411764705883 532.3681470809754 3270.3823529411766 532.1820957819215 3291.323529411765 532.2348192575948 3312.264705882353 532.663421242623 3333.205882352941 533.0768238550941 3354.1470588235293 533.4688532767087 3375.0882352941176 533.5868149898097 3396.029411764706 533.7866116772315 3416.970588235294 533.9651928337187 3437.9117647058824 534.0614406876781 3458.8529411764707 534.1813437994358 3479.794117647059 534.1646402996798 3500.735294117647 532.7065148297092 3521.676470588235 531.9653947132791 3542.6176470588234 532.4008414612442 3563.5588235294117 532.3835012006392 3584.5 532.3762321494829 3605.4411764705883 532.3819588718641 3626.3823529411766 532.6424401194076 3647.323529411765 532.4751666451237 3668.264705882353 532.4711028871407 3689.205882352941 532.2027211748189 3710.1470588235293 531.4390936505183 3731.0882352941176 531.5727707842481 3752.029411764706 531.7864321784326 3772.970588235294 531.7935729648713 3793.9117647058824 531.9849023445704 3814.8529411764707 531.8218985108718 3835.7941176470586 531.7708483166984 3856.735294117647 531.7572224646864 3877.676470588235 531.4166307781715 3898.6176470588234 531.3268574465264 3919.5588235294117 532.2645239373791 3940.5 530.163015188101 3961.4411764705883 529.7274153021705 3982.3823529411766 529.7448004770854 4003.323529411765 529.3666745800084 4024.264705882353 529.5448927766422 4045.2058823529414 529.2185804117662 4066.1470588235293 529.1689859268577 4087.0882352941176 529.1641691809261 4108.029411764706 529.5742385244796 4128.970588235294 530.0318797750176 4149.911764705882 529.7822561735807 4170.85294117647 528.9256108228878 4191.794117647059 528.943616141882 4212.735294117647 529.6759586106136 4233.676470588235 529.6072381711158 4254.617647058823 529.5015251143122 4275.558823529412 529.767884481243 4296.5 530.1079562333385 4296.5 487.9037558495532 4275.558823529412 487.95222090418406 4254.617647058823 488.0992768689666 4233.676470588235 488.4707685226323 4212.735294117647 488.81730930051134 4191.794117647059 489.66218659583717 4170.85294117647 489.6497010215789 4149.911764705882 489.62346831140377 4128.970588235294 490.08709103844944 4108.029411764706 489.8264670604297 4087.0882352941176 489.6030568350501 4066.1470588235293 489.6027851684956 4045.2058823529414 489.6838400376917 4024.264705882353 490.1068496342023 4003.323529411765 490.9492704753914 3982.3823529411766 490.39407239534404 3961.4411764705883 490.3851968973204 3940.5 490.7185530259544 3919.5588235294117 492.30515321923616 3898.6176470588234 491.64116500384506 3877.676470588235 491.78456573649515 3856.735294117647 491.92955522350275 3835.7941176470586 491.93920435370626 3814.8529411764707 491.9768227136466 3793.9117647058824 492.1505952348429 3772.970588235294 491.85600669794854 3752.029411764706 491.8513930148632 3731.0882352941176 491.63219577145946 3710.1470588235293 491.4978977886208 3689.205882352941 491.99009410225506 3668.264705882353 492.16551794945576 3647.323529411765 492.1686259707535 3626.3823529411766 492.21654806017045 3605.4411764705883 491.7116461371828 3584.5 491.70767780671554 3563.5588235294117 491.71346164432515 3542.6176470588234 491.7282826494978 3521.676470588235 491.33050875804906 3500.735294117647 491.76141449343754 3479.794117647059 492.74242973299926 3458.8529411764707 492.75457857238825 3437.9117647058824 492.5918650008465 3416.970588235294 492.35892132336346 3396.029411764706 492.0889325160488 3375.0882352941176 491.69189364771574 3354.1470588235293 491.3732427741912 3333.205882352941 490.8088740577118 3312.264705882353 490.31149608874114 3291.323529411765 489.77877115088484 3270.3823529411766 489.5616092932336 3249.4411764705883 489.5397849514939 3228.5 489.5595335703314 3228.5 532.5201668090683Z" fill="#55c0e9" opacity="0.9" />
		</g>
		<g>
			<path d="M3228.5 489.5595335703314 3249.4411764705883 489.5397849514939 3270.3823529411766 489.5616092932336 3291.323529411765 489.77877115088484 3312.264705882353 490.31149608874114 3333.205882352941 490.8088740577118 3354.1470588235293 491.3732427741912 3375.0882352941176 491.69189364771574 3396.029411764706 492.0889325160488 3416.970588235294 492.35892132336346 3437.9117647058824 492.5918650008465 3458.8529411764707 492.75457857238825 3479.794117647059 492.74242973299926 3500.735294117647 491.76141449343754 3521.676470588235 491.33050875804906 3542.6176470588234 491.7282826494978 3563.5588235294117 491.71346164432515 3584.5 491.70767780671554 3605.4411764705883 491.7116461371828 3626.3823529411766 492.21654806017045 3647.323529411765 492.1686259707535 3668.264705882353 492.16551794945576 3689.205882352941 491.99009410225506 3710.1470588235293 491.4978977886208 3731.0882352941176 491.63219577145946 3752.029411764706 491.8513930148632 3772.970588235294 491.85600669794854 3793.9117647058824 492.1505952348429 3814.8529411764707 491.9768227136466 3835.7941176470586 491.93920435370626 3856.735294117647 491.92955522350275 3877.676470588235 491.78456573649515 3898.6176470588234 491.64116500384506 3919.5588235294117 492.30515321923616 3940.5 490.7185530259544 3961.4411764705883 490.3851968973204 3982.3823529411766 490.39407239534404 4003.323529411765 490.9492704753914 4024.264705882353 490.1068496342023 4045.2058823529414 489.6838400376917 4066.1470588235293 489.6027851684956 4087.0882352941176 489.6030568350501 4108.029411764706 489.8264670604297 4128.970588235294 490.08709103844944 4149.911764705882 489.62346831140377 4170.85294117647 489.6497010215789 4191.794117647059 489.66218659583717 4212.735294117647 488.81730930051134 4233.676470588235 488.4707685226323 4254.617647058823 488.0992768689666 4275.558823529412 487.95222090418406 4296.5 487.9037558495532 4296.5 476.08864417534 4275.558823529412 476.2563330555304 4254.617647058823 476.501380298194 4233.676470588235 476.9091078280443 4212.735294117647 477.3175055832355 4191.794117647059 478.10739716876634 4170.85294117647 478.09661826532414 4149.911764705882 478.15999289365544 4128.970588235294 478.5827424221303 4108.029411764706 478.38419566392514 4087.0882352941176 478.2713135439936 4066.1470588235293 478.26942714386075 4045.2058823529414 478.5099393463872 4024.264705882353 478.7941392845137 4003.323529411765 479.58006819193264 3982.3823529411766 479.10650501970053 3961.4411764705883 479.0999411202481 3940.5 479.4072866140748 3919.5588235294117 480.96640637284213 3898.6176470588234 480.2698842349475 3877.676470588235 480.4907637351383 3856.735294117647 480.4086170616429 3835.7941176470586 480.41676419469263 3814.8529411764707 480.45029730465194 3793.9117647058824 480.6272134139708 3772.970588235294 480.40305013594224 3752.029411764706 480.39917600110454 3731.0882352941176 480.2978208961403 3710.1470588235293 480.1378211447884 3689.205882352941 480.4875119170523 3668.264705882353 480.62062646338103 3647.323529411765 480.623498410782 3626.3823529411766 480.6254558284506 3605.4411764705883 479.9434244465183 3584.5 479.939862628262 3563.5588235294117 479.94505960714844 3542.6176470588234 479.95902615881243 3521.676470588235 479.5505692873087 3500.735294117647 479.86304908787844 3479.794117647059 480.59388216933854 3458.8529411764707 480.6043736648512 3437.9117647058824 480.3867647714376 3416.970588235294 480.0939647438401 3396.029411764706 479.7308663765565 3375.0882352941176 479.2808407307956 3354.1470588235293 478.9041807209399 3333.205882352941 478.2910364979862 3312.264705882353 477.7828333755948 3291.323529411765 477.2431626623622 3270.3823529411766 476.9834739801712 3249.4411764705883 476.8973696844754 3228.5 476.8748020982269 3228.5 489.5595335703314Z" fill="#f6a118" opacity="0.9" />
		</g>
		<g>
			<path d="M3228.5 476.8748020982269 3249.4411764705883 476.8973696844754 3270.3823529411766 476.9834739801712 3291.323529411765 477.2431626623622 3312.264705882353 477.7828333755948 3333.205882352941 478.2910364979862 3354.1470588235293 478.9041807209399 3375.0882352941176 479.2808407307956 3396.029411764706 479.7308663765565 3416.970588235294 480.0939647438401 3437.9117647058824 480.3867647714376 3458.8529411764707 480.6043736648512 3479.794117647059 480.59388216933854 3500.735294117647 479.86304908787844 3521.676470588235 479.5505692873087 3542.6176470588234 479.95902615881243 3563.5588235294117 479.94505960714844 3584.5 479.939862628262 3605.4411764705883 479.9434244465183 3626.3823529411766 480.6254558284506 3647.323529411765 480.623498410782 3668.264705882353 480.62062646338103 3689.205882352941 480.4875119170523 3710.1470588235293 480.1378211447884 3731.0882352941176 480.2978208961403 3752.029411764706 480.39917600110454 3772.970588235294 480.40305013594224 3793.9117647058824 480.6272134139708 3814.8529411764707 480.45029730465194 3835.7941176470586 480.41676419469263 3856.735294117647 480.4086170616429 3877.676470588235 480.4907637351383 3898.6176470588234 480.2698842349475 3919.5588235294117 480.96640637284213 3940.5 479.4072866140748 3961.4411764705883 479.0999411202481 3982.3823529411766 479.10650501970053 4003.323529411765 479.58006819193264 4024.264705882353 478.7941392845137 4045.2058823529414 478.5099393463872 4066.1470588235293 478.26942714386075 4087.0882352941176 478.2713135439936 4108.029411764706 478.38419566392514 4128.970588235294 478.5827424221303 4149.911764705882 478.15999289365544 4170.85294117647 478.09661826532414 4191.794117647059 478.10739716876634 4212.735294117647 477.3175055832355 4233.676470588235 476.9091078280443 4254.617647058823 476.501380298194 4275.558823529412 476.2563330555304 4296.5 476.08864417534 4296.5 471.763371221977 4275.558823529412 471.9574850631018 4254.617647058823 472.2340193606014 4233.676470588235 472.6559547595341 4212.735294117647 473.0650745461115 4191.794117647059 473.82819172566997 4170.85294117647 473.8181074091512 4149.911764705882 473.8782116867164 4128.970588235294 474.28062031125177 4108.029411764706 474.09267029394687 4087.0882352941176 473.9897191134042 4066.1470588235293 473.9871807138114 4045.2058823529414 474.22541956826655 4024.264705882353 474.511998002383 4003.323529411765 475.27887736921514 3982.3823529411766 474.8518141039069 3961.4411764705883 474.8469015951653 3940.5 475.13902259765536 3919.5588235294117 476.6264014136676 3898.6176470588234 475.9675036747879 3877.676470588235 476.1855240028958 3856.735294117647 476.0304088632991 3835.7941176470586 476.03986709155856 3814.8529411764707 476.07416075277575 3793.9117647058824 476.25220661385714 3772.970588235294 475.9804259287693 3752.029411764706 475.9771097573116 3731.0882352941176 475.85734943037994 3710.1470588235293 475.67113203039463 3689.205882352941 475.9445091636468 3668.264705882353 476.0428252544268 3647.323529411765 476.0456947164946 3626.3823529411766 476.0126442187972 3605.4411764705883 475.2164345015217 3584.5 475.2129700329708 3563.5588235294117 475.2181577191099 3542.6176470588234 475.2322484984899 3521.676470588235 474.81810616673476 3500.735294117647 475.10657399076854 3479.794117647059 475.80132801818854 3458.8529411764707 475.81236587515644 3437.9117647058824 475.5856075858726 3416.970588235294 475.27426702627764 3396.029411764706 474.8948962586183 3375.0882352941176 474.4350271056565 3354.1470588235293 474.05181534663 3333.205882352941 473.42902823737313 3312.264705882353 472.9107308902232 3291.323529411765 472.36696232860294 3270.3823529411766 472.1032861179079 3249.4411764705883 472.0144834613813 3228.5 471.9842446739753 3228.5 476.8748020982269Z" fill="#fdd5a4" opacity="0.9" />
		</g>
		<g>
			<path d="M3228.5 471.9842446739753 3249.4411764705883 472.0144834613813 3270.3823529411766 472.1032861179079 3291.323529411765 472.36696232860294 3312.264705882353 472.9107308902232 3333.205882352941 473.42902823737313 3354.1470588235293 474.05181534663 3375.0882352941176 474.4350271056565 3396.029411764706 474.8948962586183 3416.970588235294 475.27426702627764 3437.9117647058824 475.5856075858726 3458.8529411764707 475.81236587515644 3479.794117647059 475.80132801818854 3500.735294117647 475.10657399076854 3521.676470588235 474.81810616673476 3542.6176470588234 475.2322484984899 3563.5588235294117 475.2181577191099 3584.5 475.2129700329708 3605.4411764705883 475.2164345015217 3626.3823529411766 476.0126442187972 3647.323529411765 476.0456947164946 3668.264705882353 476.0428252544268 3689.205882352941 475.9445091636468 3710.1470588235293 475.67113203039463 3731.0882352941176 475.85734943037994 3752.029411764706 475.9771097573116 3772.970588235294 475.9804259287693 3793.9117647058824 476.25220661385714 3814.8529411764707 476.07416075277575 3835.7941176470586 476.03986709155856 3856.735294117647 476.0304088632991 3877.676470588235 476.1855240028958 3898.6176470588234 475.9675036747879 3919.5588235294117 476.6264014136676 3940.5 475.13902259765536 3961.4411764705883 474.8469015951653 3982.3823529411766 474.8518141039069 4003.323529411765 475.27887736921514 4024.264705882353 474.511998002383 4045.2058823529414 474.22541956826655 4066.1470588235293 473.9871807138114 4087.0882352941176 473.9897191134042 4108.029411764706 474.09267029394687 4128.970588235294 474.28062031125177 4149.911764705882 473.8782116867164 4170.85294117647 473.8181074091512 4191.794117647059 473.82819172566997 4212.735294117647 473.0650745461115 4233.676470588235 472.6559547595341 4254.617647058823 472.2340193606014 4275.558823529412 471.9574850631018 4296.5 471.763371221977 4296.5 469.0649184884676 4275.558823529412 469.272109525969 4254.617647058823 469.56054940240006 4233.676470588235 470.00314366447725 4212.735294117647 470.42216191971556 4191.794117647059 471.16063030075713 4170.85294117647 471.15110050258926 4149.911764705882 471.2005668211781 4128.970588235294 471.56419721584615 4108.029411764706 471.35961801945126 4087.0882352941176 471.1659266751794 4066.1470588235293 471.15503597364875 4045.2058823529414 471.36241611042175 4024.264705882353 471.63391436910644 4003.323529411765 472.3711663447606 3982.3823529411766 471.84780556889575 3961.4411764705883 471.84385861501005 3940.5 472.0370495671892 3919.5588235294117 473.4135261402591 3898.6176470588234 472.6948042788454 3877.676470588235 472.8722901716775 3856.735294117647 472.3229333883161 3835.7941176470586 472.33160122478233 3814.8529411764707 472.3663150934169 3793.9117647058824 472.5454339613937 3772.970588235294 472.089365302357 3752.029411764706 472.0865469044695 3731.0882352941176 471.87656051033446 3710.1470588235293 471.6164928135846 3689.205882352941 471.7330711807051 3668.264705882353 471.76332000605703 3647.323529411765 471.766218855925 3626.3823529411766 471.666704132637 3605.4411764705883 470.5946289838734 3584.5 470.5925960519466 3563.5588235294117 470.5979497527046 3542.6176470588234 470.6143953187705 3521.676470588235 470.16763283113994 3500.735294117647 470.4164498778376 3479.794117647059 471.0661628206815 3458.8529411764707 471.07731696753683 3437.9117647058824 470.8209639445631 3416.970588235294 470.4605146316375 3396.029411764706 469.9795822434353 3375.0882352941176 469.45753010676304 3354.1470588235293 469.00707612997155 3333.205882352941 468.3152661342126 3312.264705882353 467.73514405195505 3291.323529411765 467.13787830023045 3270.3823529411766 466.8018186815908 3249.4411764705883 466.6374618686549 3228.5 466.54215183048984 3228.5 471.9842446739753Z" fill="#f48c7d" opacity="0.9" />
		</g>
		<g>
			<path d="M3228.5 466.54215183048984 3249.4411764705883 466.6374618686549 3270.3823529411766 466.8018186815908 3291.323529411765 467.13787830023045 3312.264705882353 467.73514405195505 3333.205882352941 468.3152661342126 3354.1470588235293 469.00707612997155 3375.0882352941176 469.45753010676304 3396.029411764706 469.9795822434353 3416.970588235294 470.4605146316375 3437.9117647058824 470.8209639445631 3458.8529411764707 471.07731696753683 3479.794117647059 471.0661628206815 3500.735294117647 470.4164498778376 3521.676470588235 470.16763283113994 3542.6176470588234 470.6143953187705 3563.5588235294117 470.5979497527046 3584.5 470.5925960519466 3605.4411764705883 470.5946289838734 3626.3823529411766 471.666704132637 3647.323529411765 471.766218855925 3668.264705882353 471.76332000605703 3689.205882352941 471.7330711807051 3710.1470588235293 471.6164928135846 3731.0882352941176 471.87656051033446 3752.029411764706 472.0865469044695 3772.970588235294 472.089365302357 3793.9117647058824 472.5454339613937 3814.8529411764707 472.3663150934169 3835.7941176470586 472.33160122478233 3856.735294117647 472.3229333883161 3877.676470588235 472.8722901716775 3898.6176470588234 472.6948042788454 3919.5588235294117 473.4135261402591 3940.5 472.0370495671892 3961.4411764705883 471.84385861501005 3982.3823529411766 471.84780556889575 4003.323529411765 472.3711663447606 4024.264705882353 471.63391436910644 4045.2058823529414 471.36241611042175 4066.1470588235293 471.15503597364875 4087.0882352941176 471.1659266751794 4108.029411764706 471.35961801945126 4128.970588235294 471.56419721584615 4149.911764705882 471.2005668211781 4170.85294117647 471.15110050258926 4191.794117647059 471.16063030075713 4212.735294117647 470.42216191971556 4233.676470588235 470.00314366447725 4254.617647058823 469.56054940240006 4275.558823529412 469.272109525969 4296.5 469.0649184884676 4296.5 397.9999999999999 4275.558823529412 398.0000000000001 4254.617647058823 397.9999999999999 4233.676470588235 398 4212.735294117647 397.9999999999999 4191.794117647059 398.0000000000001 4170.85294117647 398 4149.911764705882 398.00000000000006 4128.970588235294 397.9999999999999 4108.029411764706 398 4087.0882352941176 398.00000000000017 4066.1470588235293 398 4045.2058823529414 398.00000000000006 4024.264705882353 397.99999999999994 4003.323529411765 398.00000000000006 3982.3823529411766 397.9999999999999 3961.4411764705883 397.99999999999994 3940.5 398 3919.5588235294117 398 3898.6176470588234 397.99999999999994 3877.676470588235 397.9999999999999 3856.735294117647 398 3835.7941176470586 398 3814.8529411764707 398 3793.9117647058824 398.0000000000001 3772.970588235294 398 3752.029411764706 398 3731.0882352941176 398.0000000000002 3710.1470588235293 397.99999999999994 3689.205882352941 398 3668.264705882353 398.0000000000001 3647.323529411765 398 3626.3823529411766 398.00000000000006 3605.4411764705883 398.00000000000006 3584.5 397.99999999999994 3563.5588235294117 398.00000000000017 3542.6176470588234 398 3521.676470588235 398.00000000000017 3500.735294117647 397.9999999999999 3479.794117647059 397.9999999999999 3458.8529411764707 398.0000000000001 3437.9117647058824 397.9999999999999 3416.970588235294 398 3396.029411764706 397.9999999999999 3375.0882352941176 397.9999999999999 3354.1470588235293 398 3333.205882352941 397.9999999999999 3312.264705882353 398.0000000000001 3291.323529411765 397.99999999999994 3270.3823529411766 398.0000000000001 3249.4411764705883 398.0000000000001 3228.5 398.0000000000001 3228.5 466.54215183048984Z" fill="#393d41" opacity="0.9" />
		</g>
		<g>
			<rect x="4372" y="431" width="22.9995" height="23" fill="#e62d39" />
		</g>
		<g>
			<text fill="#595959" font-family="Verdana,Open Sans,DejaVu Sans,sans-serif" font-weight="400" font-size="41" transform="matrix(1 0 0 1 4404.56 454)">Android</text>
		</g>
		<g>
			<rect x="4372" y="508" width="22.9995" height="23" fill="#005aa6" />
		</g>
		<g>
			<text fill="#595959" font-family="Verdana,Open Sans,DejaVu Sans,sans-serif" font-weight="400" font-size="41" transform="matrix(1 0 0 1 4404.56 531)">iOS</text>
		</g>
		<g>
			<rect x="4372" y="585" width="22.9995" height="23" fill="#55c0e9" />
		</g>
		<g>
			<text fill="#595959" font-family="Verdana,Open Sans,DejaVu Sans,sans-serif" font-weight="400" font-size="41" transform="matrix(1 0 0 1 4404.56 608)">Windows</text>
		</g>
		<g>
			<rect x="4372" y="662" width="22.9995" height="23" fill="#f6a118" />
		</g>
		<g>
			<text fill="#595959" font-family="Verdana,Open Sans,DejaVu Sans,sans-serif" font-weight="400" font-size="41" transform="matrix(1 0 0 1 4404.56 685)">macOS</text>
		</g>
		<g>
			<rect x="4372" y="739" width="22.9995" height="23" fill="#fdd5a4" />
		</g>
		<g>
			<text fill="#595959" font-family="Verdana,Open Sans,DejaVu Sans,sans-serif" font-weight="400" font-size="41" transform="matrix(1 0 0 1 4404.56 762)">Linux</text>
		</g>
		<g>
			<rect x="4372" y="816" width="22.9995" height="23" fill="#f48c7d" />
		</g>
		<g>
			<text fill="#595959" font-family="Verdana,Open Sans,DejaVu Sans,sans-serif" font-weight="400" font-size="41" transform="matrix(1 0 0 1 4404.56 839)">Other</text>
		</g>
		<g>
			<rect x="4372" y="893" width="22.9995" height="23" fill="#393d41" />
		</g>
		<g>
			<text fill="#595959" font-family="Verdana,Open Sans,DejaVu Sans,sans-serif" font-weight="400" font-size="41" transform="matrix(1 0 0 1 4404.56 916)">Unclassified</text>
		</g>
	</g>
</svg>
