<svg width="1763" height="1046"
    xmlns="http://www.w3.org/2000/svg"
	xmlns:xlink="http://www.w3.org/1999/xlink" xml:space="preserve" overflow="hidden">
	<defs>
		<clipPath id="clip0">
			<rect x="2917" y="346" width="1763" height="1046"/>
		</clipPath>
	</defs>
	<g clip-path="url(#clip0)" transform="translate(-2917 -346)">
		<rect x="2918" y="347" width="1760" height="1043" fill="#FFFFFF" />
		<g>
			<path d="
			M3228.5 974.532 4296.5 974.532
			M3228.5 910.53 4296.5 910.53
			M3228.5 846.528 4296.5 846.528
			M3228.5 781.526 4296.5 781.526
			M3228.5 717.524 4296.5 717.524
			M3228.5 653.522 4296.5 653.522
			M3228.5 589.52 4296.5 589.52
			M3228.5 525.517 4296.5 525.517
			M3228.5 461.515 4296.5 461.515
			M3228.5 397.5 4296.5 397.5" stroke="#D9D9D9" stroke-width="3.4375" stroke-linejoin="round" stroke-miterlimit="10" fill="none" />
		</g>
		<g>
			<path d="M 1038.5 4296.5 1038.5" stroke="#D9D9D9" stroke-width="3.4375" stroke-linejoin="round" stroke-miterlimit="10" fill="none" fill-rule="evenodd" />
		</g>
		<g>
			<text fill="#595959" font-family="Verdana,sans-serif" font-weight="400" font-size="41" transform="matrix(6.12323e-17 -1 1 6.12323e-17 3244.5 1225)">06-Nov</text>
		</g>
		<g>
			<text fill="#595959" font-family="Verdana,sans-serif" font-weight="400" font-size="41" transform="matrix(6.12323e-17 -1 1 6.12323e-17 3346.214285714286 1223)">04-Dec</text>
		</g>
		<g>
			<text fill="#595959" font-family="Verdana,sans-serif" font-weight="400" font-size="41" transform="matrix(6.12323e-17 -1 1 6.12323e-17 3447.9285714285716 1210)">01-Jan</text>
		</g>
		<g>
			<text fill="#595959" font-family="Verdana,sans-serif" font-weight="400" font-size="41" transform="matrix(6.12323e-17 -1 1 6.12323e-17 3549.642857142857 1210)">29-Jan</text>
		</g>
		<g>
			<text fill="#595959" font-family="Verdana,sans-serif" font-weight="400" font-size="41" transform="matrix(6.12323e-17 -1 1 6.12323e-17 3651.3571428571427 1216)">26-Feb</text>
		</g>
		<g>
			<text fill="#595959" font-family="Verdana,sans-serif" font-weight="400" font-size="41" transform="matrix(6.12323e-17 -1 1 6.12323e-17 3753.0714285714284 1223)">25-Mar</text>
		</g>
		<g>
			<text fill="#595959" font-family="Verdana,sans-serif" font-weight="400" font-size="41" transform="matrix(6.12323e-17 -1 1 6.12323e-17 3858.285714285714 1216)">22-Apr</text>
		</g>
		<g>
			<text fill="#595959" font-family="Verdana,sans-serif" font-weight="400" font-size="41" transform="matrix(6.12323e-17 -1 1 6.12323e-17 3960 1228)">20-May</text>
		</g>
		<g>
			<text fill="#595959" font-family="Verdana,sans-serif" font-weight="400" font-size="41" transform="matrix(6.12323e-17 -1 1 6.12323e-17 4057.714285714286 1209)">17-Jun</text>
		</g>
		<g>
			<text fill="#595959" font-family="Verdana,sans-serif" font-weight="400" font-size="41" transform="matrix(6.12323e-17 -1 1 6.12323e-17 4159.928571428572 1194)">15-Jul</text>
		</g>
		<g>
			<text fill="#595959" font-family="Verdana,sans-serif" font-weight="400" font-size="41" transform="matrix(6.12323e-17 -1 1 6.12323e-17 4265.142857142857 1218)">12-Aug</text>
		</g>
		<g>
			<text fill="#595959" font-family="Verdana,sans-serif" font-weight="400" font-size="41" transform="matrix(1 0 0 1 3123.5 1050)">0%</text>
		</g>
		<g>
			<text fill="#595959" font-family="Verdana,sans-serif" font-weight="400" font-size="41" transform="matrix(1 0 0 1 3097.5 922)">20%</text>
		</g>
		<g>
			<text fill="#595959" font-family="Verdana,sans-serif" font-weight="400" font-size="41" transform="matrix(1 0 0 1 3096.5 794)">40%</text>
		</g>
		<g>
			<text fill="#595959" font-family="Verdana,sans-serif" font-weight="400" font-size="41" transform="matrix(1 0 0 1 3097.5 666)">60%</text>
		</g>
		<g>
			<text fill="#595959" font-family="Verdana,sans-serif" font-weight="400" font-size="41" transform="matrix(1 0 0 1 3097.5 538)">80%</text>
		</g>
		<g>
			<text fill="#595959" font-family="Verdana,sans-serif" font-weight="400" font-size="41" transform="matrix(1 0 0 1 3074.5 410)">100%</text>
		</g>
		<g>
			<text fill="#595959" font-family="Verdana,sans-serif" font-weight="400" font-size="41" transform="matrix(1 0 0 1 3544.5 1321)">Week Commencing</text>
		</g>
		<g>
			<text fill="#595959" font-family="Verdana,sans-serif" font-weight="400" font-size="46" transform="matrix(6.12323e-17 -1 1 6.12323e-17 3019.73 965.25)">Requests (% of Total)</text>
		</g>
		<rect x="2918.5" y="347.5" width="1760" height="1043" stroke="#D9D9D9" stroke-width="3.4375" stroke-linejoin="round" stroke-miterlimit="10" fill="none" />
		<g>
			<path d="M3228.5 1038 3253.9285714285716 1038 3279.3571428571427 1038 3304.785714285714 1038 3330.214285714286 1038 3355.6428571428573 1038 3381.0714285714284 1038 3406.5 1038 3431.9285714285716 1038 3457.3571428571427 1038 3482.785714285714 1038 3508.214285714286 1038 3533.642857142857 1038 3559.0714285714284 1038 3584.5 1038 3609.9285714285716 1038 3635.3571428571427 1038 3660.785714285714 1038 3686.214285714286 1038 3711.642857142857 1038 3737.0714285714284 1038 3762.5 1038 3787.9285714285716 1038 3813.3571428571427 1038 3838.785714285714 1038 3864.214285714286 1038 3889.642857142857 1038 3915.0714285714284 1038 3940.5 1038 3965.9285714285716 1038 3991.3571428571427 1038 4016.785714285714 1038 4042.214285714286 1038 4067.642857142857 1038 4093.0714285714284 1038 4118.5 1038 4143.928571428572 1038 4169.357142857143 1038 4194.785714285714 1038 4220.214285714285 1038 4245.642857142857 1038 4271.071428571428 1038 4296.5 1038 4296.5 714.4105060971157 4271.071428571428 713.9589728279007 4245.642857142857 713.4392482120827 4220.214285714285 712.9526784937428 4194.785714285714 712.3235713382509 4169.357142857143 712.0748666907585 4143.928571428572 711.7892867662207 4118.5 711.2928421961317 4093.0714285714284 710.6616144923173 4067.642857142857 710.307171035662 4042.214285714286 710.0229260904226 4016.785714285714 709.5011500172373 3991.3571428571427 708.8529728655324 3965.9285714285716 708.5111643371398 3940.5 707.6773439344757 3915.0714285714284 706.7867985338357 3889.642857142857 705.8245723100855 3864.214285714286 704.5432324401569 3838.785714285714 703.4985064623488 3813.3571428571427 704.569443136712 3787.9285714285716 703.1605263419694 3762.5 701.7580858411745 3737.0714285714284 700.4865286297146 3711.642857142857 707.5245129827832 3686.214285714286 729.2395570213952 3660.785714285714 728.9340901988301 3635.3571428571427 728.9473274759466 3609.9285714285716 728.5904699830792 3584.5 728.3059690780326 3559.0714285714284 728.4979453773899 3533.642857142857 728.9075512947094 3508.214285714286 754.11838558625 3482.785714285714 754.1757001008984 3457.3571428571427 753.4791239997355 3431.9285714285716 753.4656820270931 3406.5 754.353517736809 3381.0714285714284 755.0644960736788 3355.6428571428573 756.7936922650002 3330.214285714286 755.3104816846619 3304.785714285714 756.0108769389726 3279.3571428571427 755.8946831794725 3253.9285714285716 756.0648930613015 3228.5 754.9119747134117 3228.5 1038Z" fill="#e62d39" opacity="0.9" />
		</g>
		<g>
			<path d="M3228.5 754.9119747134117 3253.9285714285716 756.0648930613015 3279.3571428571427 755.8946831794725 3304.785714285714 756.0108769389726 3330.214285714286 755.3104816846619 3355.6428571428573 756.7936922650002 3381.0714285714284 755.0644960736788 3406.5 754.353517736809 3431.9285714285716 753.4656820270931 3457.3571428571427 753.4791239997355 3482.785714285714 754.1757001008984 3508.214285714286 754.11838558625 3533.642857142857 728.9075512947094 3559.0714285714284 728.4979453773899 3584.5 728.3059690780326 3609.9285714285716 728.5904699830792 3635.3571428571427 728.9473274759466 3660.785714285714 728.9340901988301 3686.214285714286 729.2395570213952 3711.642857142857 707.5245129827832 3737.0714285714284 700.4865286297146 3762.5 701.7580858411745 3787.9285714285716 703.1605263419694 3813.3571428571427 704.569443136712 3838.785714285714 703.4985064623488 3864.214285714286 704.5432324401569 3889.642857142857 705.8245723100855 3915.0714285714284 706.7867985338357 3940.5 707.6773439344757 3965.9285714285716 708.5111643371398 3991.3571428571427 708.8529728655324 4016.785714285714 709.5011500172373 4042.214285714286 710.0229260904226 4067.642857142857 710.307171035662 4093.0714285714284 710.6616144923173 4118.5 711.2928421961317 4143.928571428572 711.7892867662207 4169.357142857143 712.0748666907585 4194.785714285714 712.3235713382509 4220.214285714285 712.9526784937428 4245.642857142857 713.4392482120827 4271.071428571428 713.9589728279007 4296.5 714.4105060971157 4296.5 502.45546819630397 4271.071428571428 501.879791216212 4245.642857142857 501.40460916879545 4220.214285714285 500.8004852626943 4194.785714285714 499.8853489758172 4169.357142857143 498.7859305783681 4143.928571428572 497.70686325871344 4118.5 496.45662763490196 4093.0714285714284 495.1622009511958 4067.642857142857 493.8933367325633 4042.214285714286 492.86935877863715 4016.785714285714 492.0646789770611 3991.3571428571427 491.29504574396447 3965.9285714285716 490.57523501016317 3940.5 490.03332941523763 3915.0714285714284 489.72310243427995 3889.642857142857 489.48234403066954 3864.214285714286 489.1962201731323 3838.785714285714 488.9387742360814 3813.3571428571427 492.7506429578374 3787.9285714285716 492.8155417521196 3762.5 493.0157563584153 3737.0714285714284 493.39321289046876 3711.642857142857 506.9149616199791 3686.214285714286 511.364965996509 3660.785714285714 511.2846481599944 3635.3571428571427 510.42831690773556 3609.9285714285716 509.62004963115277 3584.5 508.7614604393337 3559.0714285714284 509.353058075723 3533.642857142857 509.9096403086422 3508.214285714286 502.9834202621783 3482.785714285714 503.00137208677626 3457.3571428571427 501.7071993293339 3431.9285714285716 501.42221970119 3406.5 503.438874441927 3381.0714285714284 504.4310618017311 3355.6428571428573 506.598206380057 3330.214285714286 506.6117266161558 3304.785714285714 506.1745473288654 3279.3571428571427 506.70059265889057 3253.9285714285716 507.27389099062407 3228.5 506.70599006535724 3228.5 754.9119747134117Z" fill="#005aa6" opacity="0.9" />
		</g>
		<g>
			<path d="M3228.5 506.70599006535724 3253.9285714285716 507.27389099062407 3279.3571428571427 506.70059265889057 3304.785714285714 506.1745473288654 3330.214285714286 506.6117266161558 3355.6428571428573 506.598206380057 3381.0714285714284 504.4310618017311 3406.5 503.438874441927 3431.9285714285716 501.42221970119 3457.3571428571427 501.7071993293339 3482.785714285714 503.00137208677626 3508.214285714286 502.9834202621783 3533.642857142857 509.9096403086422 3559.0714285714284 509.353058075723 3584.5 508.7614604393337 3609.9285714285716 509.62004963115277 3635.3571428571427 510.42831690773556 3660.785714285714 511.2846481599944 3686.214285714286 511.364965996509 3711.642857142857 506.9149616199791 3737.0714285714284 493.39321289046876 3762.5 493.0157563584153 3787.9285714285716 492.8155417521196 3813.3571428571427 492.7506429578374 3838.785714285714 488.9387742360814 3864.214285714286 489.1962201731323 3889.642857142857 489.48234403066954 3915.0714285714284 489.72310243427995 3940.5 490.03332941523763 3965.9285714285716 490.57523501016317 3991.3571428571427 491.29504574396447 4016.785714285714 492.0646789770611 4042.214285714286 492.86935877863715 4067.642857142857 493.8933367325633 4093.0714285714284 495.1622009511958 4118.5 496.45662763490196 4143.928571428572 497.70686325871344 4169.357142857143 498.7859305783681 4194.785714285714 499.8853489758172 4220.214285714285 500.8004852626943 4245.642857142857 501.40460916879545 4271.071428571428 501.879791216212 4296.5 502.45546819630397 4296.5 461.2408535917636 4271.071428571428 460.48443100573536 4245.642857142857 459.76604736337003 4220.214285714285 458.9777407221724 4194.785714285714 457.90939966851295 4169.357142857143 456.65452296321746 4143.928571428572 455.36215838852235 4118.5 453.9844912065713 4093.0714285714284 452.5053589477677 4067.642857142857 451.07476537844235 4042.214285714286 449.87375657582817 4016.785714285714 448.9328850656446 3991.3571428571427 448.0557909288758 3965.9285714285716 447.2525039284088 3940.5 446.6761477523823 3915.0714285714284 446.4456437459776 3889.642857142857 446.28136252321144 3864.214285714286 446.10487752564853 3838.785714285714 445.9636538385128 3813.3571428571427 450.12178949359264 3787.9285714285716 450.19759580620007 3762.5 450.31641232434566 3737.0714285714284 450.53485482006914 3711.642857142857 465.04034483521883 3686.214285714286 466.06050698928533 3660.785714285714 466.040310950835 3635.3571428571427 465.54550807778793 3609.9285714285716 465.0596958871918 3584.5 464.56231790755743 3559.0714285714284 464.9559197775319 3533.642857142857 465.35219027138237 3508.214285714286 461.61567429168343 3482.785714285714 461.61568788936546 3457.3571428571427 459.82950021460965 3431.9285714285716 460.450441231452 3406.5 460.9910561402767 3381.0714285714284 461.5797281754641 3355.6428571428573 463.2835029039877 3330.214285714286 463.16152563435577 3304.785714285714 463.4857438622545 3279.3571428571427 463.49009877890694 3253.9285714285716 463.78618648036564 3228.5 463.7315547177501 3228.5 506.70599006535724Z" fill="#55c0e9" opacity="0.9" />
		</g>
		<g>
			<path d="M3228.5 463.7315547177501 3253.9285714285716 463.78618648036564 3279.3571428571427 463.49009877890694 3304.785714285714 463.4857438622545 3330.214285714286 463.16152563435577 3355.6428571428573 463.2835029039877 3381.0714285714284 461.5797281754641 3406.5 460.9910561402767 3431.9285714285716 460.450441231452 3457.3571428571427 459.82950021460965 3482.785714285714 461.61568788936546 3508.214285714286 461.61567429168343 3533.642857142857 465.35219027138237 3559.0714285714284 464.9559197775319 3584.5 464.56231790755743 3609.9285714285716 465.0596958871918 3635.3571428571427 465.54550807778793 3660.785714285714 466.040310950835 3686.214285714286 466.06050698928533 3711.642857142857 465.04034483521883 3737.0714285714284 450.53485482006914 3762.5 450.31641232434566 3787.9285714285716 450.19759580620007 3813.3571428571427 450.12178949359264 3838.785714285714 445.9636538385128 3864.214285714286 446.10487752564853 3889.642857142857 446.28136252321144 3915.0714285714284 446.4456437459776 3940.5 446.6761477523823 3965.9285714285716 447.2525039284088 3991.3571428571427 448.0557909288758 4016.785714285714 448.9328850656446 4042.214285714286 449.87375657582817 4067.642857142857 451.07476537844235 4093.0714285714284 452.5053589477677 4118.5 453.9844912065713 4143.928571428572 455.36215838852235 4169.357142857143 456.65452296321746 4194.785714285714 457.90939966851295 4220.214285714285 458.9777407221724 4245.642857142857 459.76604736337003 4271.071428571428 460.48443100573536 4296.5 461.2408535917636 4296.5 448.8413613772234 4271.071428571428 448.0810719550874 4245.642857142857 447.3247116817817 4220.214285714285 446.5310952275203 4194.785714285714 445.4598876638521 4169.357142857143 444.211812869573 4143.928571428572 442.9104603532568 4118.5 441.5224522868679 4093.0714285714284 440.02872439510173 4067.642857142857 438.5911754273753 4042.214285714286 437.36935007449506 4016.785714285714 436.4113820386986 3991.3571428571427 435.5243027869889 3965.9285714285716 434.7122259498071 3940.5 434.13110745861906 3915.0714285714284 433.9141397981283 3889.642857142857 433.7506297603656 3864.214285714286 433.55919918545516 3838.785714285714 433.40054840431145 3813.3571428571427 437.6127108681739 3787.9285714285716 437.66723491500807 3762.5 437.73656952866384 3737.0714285714284 437.87360524960343 3711.642857142857 452.6366317106452 3686.214285714286 450.90613014226784 3660.785714285714 450.8850550677488 3635.3571428571427 450.4868239386605 3609.9285714285716 450.086582389552 3584.5 449.68019116783887 3559.0714285714284 449.97158494345933 3533.642857142857 450.2601617230179 3508.214285714286 447.4043899537403 3482.785714285714 447.3983203480143 3457.3571428571427 445.3845841013251 3431.9285714285716 445.8199610630829 3406.5 446.18152349671493 3381.0714285714284 446.5432723305962 3355.6428571428573 447.8921220090762 3330.214285714286 447.8271269745522 3304.785714285714 447.8959874216182 3279.3571428571427 447.83237862615306 3253.9285714285716 448.04152904681933 3228.5 448.1117462595999 3228.5 463.7315547177501Z" fill="#f6a118" opacity="0.9" />
		</g>
		<g>
			<path d="M3228.5 448.1117462595999 3253.9285714285716 448.04152904681933 3279.3571428571427 447.83237862615306 3304.785714285714 447.8959874216182 3330.214285714286 447.8271269745522 3355.6428571428573 447.8921220090762 3381.0714285714284 446.5432723305962 3406.5 446.18152349671493 3431.9285714285716 445.8199610630829 3457.3571428571427 445.3845841013251 3482.785714285714 447.3983203480143 3508.214285714286 447.4043899537403 3533.642857142857 450.2601617230179 3559.0714285714284 449.97158494345933 3584.5 449.68019116783887 3609.9285714285716 450.086582389552 3635.3571428571427 450.4868239386605 3660.785714285714 450.8850550677488 3686.214285714286 450.90613014226784 3711.642857142857 452.6366317106452 3737.0714285714284 437.87360524960343 3762.5 437.73656952866384 3787.9285714285716 437.66723491500807 3813.3571428571427 437.6127108681739 3838.785714285714 433.40054840431145 3864.214285714286 433.55919918545516 3889.642857142857 433.7506297603656 3915.0714285714284 433.9141397981283 3940.5 434.13110745861906 3965.9285714285716 434.7122259498071 3991.3571428571427 435.5243027869889 4016.785714285714 436.4113820386986 4042.214285714286 437.36935007449506 4067.642857142857 438.5911754273753 4093.0714285714284 440.02872439510173 4118.5 441.5224522868679 4143.928571428572 442.9104603532568 4169.357142857143 444.211812869573 4194.785714285714 445.4598876638521 4220.214285714285 446.5310952275203 4245.642857142857 447.3247116817817 4271.071428571428 448.0810719550874 4296.5 448.8413613772234 4296.5 443.69596259487105 4271.071428571428 442.9470560831334 4245.642857142857 442.18952771113993 4220.214285714285 441.4102737359516 4194.785714285714 440.35943056582056 4169.357142857143 439.1354625729624 4143.928571428572 437.84119270046506 4118.5 436.45931716608146 4093.0714285714284 434.9725271047773 4067.642857142857 433.5415615660502 4042.214285714286 432.3203932157333 4016.785714285714 431.3782566408658 3991.3571428571427 430.5117297264795 3965.9285714285716 429.7249311165208 3940.5 429.1613894967009 3915.0714285714284 428.96097997032933 3889.642857142857 428.8105160166967 3864.214285714286 428.64236977976526 3838.785714285714 428.50399955057856 3813.3571428571427 432.7535502158639 3787.9285714285716 432.80627389640455 3762.5 432.8676017835308 3737.0714285714284 432.98806566692065 3711.642857142857 447.8607653758795 3686.214285714286 445.04971196915034 3660.785714285714 445.0840675736475 3635.3571428571427 444.7823876121957 3609.9285714285716 444.47619554519974 3584.5 444.146022913635 3559.0714285714284 444.4117939256318 3533.642857142857 444.6840228236209 3508.214285714286 442.25084027575355 3482.785714285714 442.3504661409793 3457.3571428571427 442.53952888382247 3431.9285714285716 442.9800177196567 3406.5 443.356171040563 3381.0714285714284 443.72631556735075 3355.6428571428573 445.03130789311024 3330.214285714286 445.0069493077504 3304.785714285714 445.1092685889405 3279.3571428571427 445.086470806383 3253.9285714285716 445.33465660164404 3228.5 445.4445406291664 3228.5 448.1117462595999Z" fill="#fdd5a4" opacity="0.9" />
		</g>
		<g>
			<path d="M3228.5 445.4445406291664 3253.9285714285716 445.33465660164404 3279.3571428571427 445.086470806383 3304.785714285714 445.1092685889405 3330.214285714286 445.0069493077504 3355.6428571428573 445.03130789311024 3381.0714285714284 443.72631556735075 3406.5 443.356171040563 3431.9285714285716 442.9800177196567 3457.3571428571427 442.53952888382247 3482.785714285714 442.3504661409793 3508.214285714286 442.25084027575355 3533.642857142857 444.6840228236209 3559.0714285714284 444.4117939256318 3584.5 444.146022913635 3609.9285714285716 444.47619554519974 3635.3571428571427 444.7823876121957 3660.785714285714 445.0840675736475 3686.214285714286 445.04971196915034 3711.642857142857 447.8607653758795 3737.0714285714284 432.98806566692065 3762.5 432.8676017835308 3787.9285714285716 432.80627389640455 3813.3571428571427 432.7535502158639 3838.785714285714 428.50399955057856 3864.214285714286 428.64236977976526 3889.642857142857 428.8105160166967 3915.0714285714284 428.96097997032933 3940.5 429.1613894967009 3965.9285714285716 429.7249311165208 3991.3571428571427 430.5117297264795 4016.785714285714 431.3782566408658 4042.214285714286 432.3203932157333 4067.642857142857 433.5415615660502 4093.0714285714284 434.9725271047773 4118.5 436.45931716608146 4143.928571428572 437.84119270046506 4169.357142857143 439.1354625729624 4194.785714285714 440.35943056582056 4220.214285714285 441.4102737359516 4245.642857142857 442.18952771113993 4271.071428571428 442.9470560831334 4296.5 443.69596259487105 4296.5 440.3988808972397 4271.071428571428 439.6628015961259 4245.642857142857 438.90968576505173 4220.214285714285 438.1368838719703 4194.785714285714 437.09878380068074 4169.357142857143 435.88818645509696 4143.928571428572 434.59694513524136 4118.5 433.22158409139143 4093.0714285714284 431.7348695488416 4067.642857142857 430.30784750779037 4042.214285714286 429.09159001631633 4016.785714285714 428.1595197737724 3991.3571428571427 427.30225741502903 3965.9285714285716 426.52676679830296 3940.5 425.97200661481094 3915.0714285714284 425.7866796521752 3889.642857142857 425.65149111446993 3864.214285714286 425.49532897112516 3838.785714285714 425.3719419226974 3813.3571428571427 429.64793603777895 3787.9285714285716 429.7004140998976 3762.5 429.76313464334123 3737.0714285714284 429.88054742773767 3711.642857142857 444.82124955246854 3686.214285714286 441.7030292243726 3660.785714285714 441.7535822416807 3635.3571428571427 441.49228637208546 3609.9285714285716 441.22475501262005 3584.5 440.9301919465814 3559.0714285714284 441.18998724924035 3533.642857142857 441.4614784607988 3508.214285714286 438.541557440145 3482.785714285714 438.64340053541537 3457.3571428571427 439.0626692950935 3431.9285714285716 439.5322445329365 3406.5 439.87296049890585 3381.0714285714284 440.24550709230834 3355.6428571428573 441.51454062796347 3330.214285714286 441.47847627408726 3304.785714285714 441.590477687704 3279.3571428571427 441.6852312927996 3253.9285714285716 441.8542748642629 3228.5 442.02286207693095 3228.5 445.4445406291664Z" fill="#f48c7d" opacity="0.9" />
		</g>
		<g>
			<path d="M3228.5 442.02286207693095 3253.9285714285716 441.8542748642629 3279.3571428571427 441.6852312927996 3304.785714285714 441.590477687704 3330.214285714286 441.47847627408726 3355.6428571428573 441.51454062796347 3381.0714285714284 440.24550709230834 3406.5 439.87296049890585 3431.9285714285716 439.5322445329365 3457.3571428571427 439.0626692950935 3482.785714285714 438.64340053541537 3508.214285714286 438.541557440145 3533.642857142857 441.4614784607988 3559.0714285714284 441.18998724924035 3584.5 440.9301919465814 3609.9285714285716 441.22475501262005 3635.3571428571427 441.49228637208546 3660.785714285714 441.7535822416807 3686.214285714286 441.7030292243726 3711.642857142857 444.82124955246854 3737.0714285714284 429.88054742773767 3762.5 429.76313464334123 3787.9285714285716 429.7004140998976 3813.3571428571427 429.64793603777895 3838.785714285714 425.3719419226974 3864.214285714286 425.49532897112516 3889.642857142857 425.65149111446993 3915.0714285714284 425.7866796521752 3940.5 425.97200661481094 3965.9285714285716 426.52676679830296 3991.3571428571427 427.30225741502903 4016.785714285714 428.1595197737724 4042.214285714286 429.09159001631633 4067.642857142857 430.30784750779037 4093.0714285714284 431.7348695488416 4118.5 433.22158409139143 4143.928571428572 434.59694513524136 4169.357142857143 435.88818645509696 4194.785714285714 437.09878380068074 4220.214285714285 438.1368838719703 4245.642857142857 438.90968576505173 4271.071428571428 439.6628015961259 4296.5 440.3988808972397 4296.5 397.99999999999994 4271.071428571428 398 4245.642857142857 398.0000000000001 4220.214285714285 398.00000000000006 4194.785714285714 397.99999999999994 4169.357142857143 397.99999999999994 4143.928571428572 398.00000000000006 4118.5 397.99999999999994 4093.0714285714284 398.00000000000017 4067.642857142857 397.99999999999994 4042.214285714286 397.99999999999994 4016.785714285714 398 3991.3571428571427 398 3965.9285714285716 398.00000000000017 3940.5 398 3915.0714285714284 398.00000000000006 3889.642857142857 397.9999999999999 3864.214285714286 398 3838.785714285714 397.99999999999994 3813.3571428571427 398.00000000000006 3787.9285714285716 398.0000000000001 3762.5 398.00000000000006 3737.0714285714284 398.00000000000006 3711.642857142857 398.0000000000001 3686.214285714286 398.0000000000001 3660.785714285714 398 3635.3571428571427 398 3609.9285714285716 397.99999999999994 3584.5 397.9999999999999 3559.0714285714284 398.0000000000001 3533.642857142857 397.99999999999994 3508.214285714286 398 3482.785714285714 397.99999999999994 3457.3571428571427 398.00000000000006 3431.9285714285716 398 3406.5 397.99999999999994 3381.0714285714284 397.99999999999983 3355.6428571428573 397.9999999999999 3330.214285714286 398 3304.785714285714 398 3279.3571428571427 397.9999999999999 3253.9285714285716 397.9999999999999 3228.5 398.0000000000001 3228.5 442.02286207693095Z" fill="#393d41" opacity="0.9" />
		</g>
		<g>
			<rect x="4372" y="431" width="22.9995" height="23" fill="#e62d39" />
		</g>
		<g>
			<text fill="#595959" font-family="Verdana,sans-serif" font-weight="400" font-size="41" transform="matrix(1 0 0 1 4404.56 454)">iOS</text>
		</g>
		<g>
			<rect x="4372" y="508" width="22.9995" height="23" fill="#005aa6" />
		</g>
		<g>
			<text fill="#595959" font-family="Verdana,sans-serif" font-weight="400" font-size="41" transform="matrix(1 0 0 1 4404.56 531)">Android</text>
		</g>
		<g>
			<rect x="4372" y="585" width="22.9995" height="23" fill="#55c0e9" />
		</g>
		<g>
			<text fill="#595959" font-family="Verdana,sans-serif" font-weight="400" font-size="41" transform="matrix(1 0 0 1 4404.56 608)">Windows</text>
		</g>
		<g>
			<rect x="4372" y="662" width="22.9995" height="23" fill="#f6a118" />
		</g>
		<g>
			<text fill="#595959" font-family="Verdana,sans-serif" font-weight="400" font-size="41" transform="matrix(1 0 0 1 4404.56 685)">macOS</text>
		</g>
		<g>
			<rect x="4372" y="739" width="22.9995" height="23" fill="#fdd5a4" />
		</g>
		<g>
			<text fill="#595959" font-family="Verdana,sans-serif" font-weight="400" font-size="41" transform="matrix(1 0 0 1 4404.56 762)">Other</text>
		</g>
		<g>
			<rect x="4372" y="816" width="22.9995" height="23" fill="#f48c7d" />
		</g>
		<g>
			<text fill="#595959" font-family="Verdana,sans-serif" font-weight="400" font-size="41" transform="matrix(1 0 0 1 4404.56 839)">Linux</text>
		</g>
		<g>
			<rect x="4372" y="893" width="22.9995" height="23" fill="#393d41" />
		</g>
		<g>
			<text fill="#595959" font-family="Verdana,sans-serif" font-weight="400" font-size="41" transform="matrix(1 0 0 1 4404.56 916)">Unclassified</text>
		</g>
	</g>
</svg>
