<svg width="1763" height="1046"
    xmlns="http://www.w3.org/2000/svg"
	xmlns:xlink="http://www.w3.org/1999/xlink" xml:space="preserve" overflow="hidden">
	<defs>
		<clipPath id="clip0">
			<rect x="2917" y="346" width="1763" height="1046"/>
		</clipPath>
	</defs>
	<g clip-path="url(#clip0)" transform="translate(-2917 -346)">
		<rect x="2918" y="347" width="1760" height="1043" fill="#FFFFFF" />
		<g>
			<path d="
			M3228.5 974.532 4296.5 974.532
			M3228.5 910.53 4296.5 910.53
			M3228.5 846.528 4296.5 846.528
			M3228.5 781.526 4296.5 781.526
			M3228.5 717.524 4296.5 717.524
			M3228.5 653.522 4296.5 653.522
			M3228.5 589.52 4296.5 589.52
			M3228.5 525.517 4296.5 525.517
			M3228.5 461.515 4296.5 461.515
			M3228.5 397.5 4296.5 397.5" stroke="#D9D9D9" stroke-width="3.4375" stroke-linejoin="round" stroke-miterlimit="10" fill="none" />
		</g>
		<g>
			<path d="M 1038.5 4296.5 1038.5" stroke="#D9D9D9" stroke-width="3.4375" stroke-linejoin="round" stroke-miterlimit="10" fill="none" fill-rule="evenodd" />
		</g>
		<g>
			<text fill="#595959" font-family="Verdana,sans-serif" font-weight="400" font-size="41" transform="matrix(6.12323e-17 -1 1 6.12323e-17 3248 1216)">22-Apr</text>
		</g>
		<g>
			<text fill="#595959" font-family="Verdana,sans-serif" font-weight="400" font-size="41" transform="matrix(6.12323e-17 -1 1 6.12323e-17 3331.764705882353 1228)">20-May</text>
		</g>
		<g>
			<text fill="#595959" font-family="Verdana,sans-serif" font-weight="400" font-size="41" transform="matrix(6.12323e-17 -1 1 6.12323e-17 3411.529411764706 1209)">17-Jun</text>
		</g>
		<g>
			<text fill="#595959" font-family="Verdana,sans-serif" font-weight="400" font-size="41" transform="matrix(6.12323e-17 -1 1 6.12323e-17 3495.794117647059 1194)">15-Jul</text>
		</g>
		<g>
			<text fill="#595959" font-family="Verdana,sans-serif" font-weight="400" font-size="41" transform="matrix(6.12323e-17 -1 1 6.12323e-17 3583.0588235294117 1218)">12-Aug</text>
		</g>
		<g>
			<text fill="#595959" font-family="Verdana,sans-serif" font-weight="400" font-size="41" transform="matrix(6.12323e-17 -1 1 6.12323e-17 3666.823529411765 1222)">09-Sep</text>
		</g>
		<g>
			<text fill="#595959" font-family="Verdana,sans-serif" font-weight="400" font-size="41" transform="matrix(6.12323e-17 -1 1 6.12323e-17 3747.0882352941176 1215)">07-Oct</text>
		</g>
		<g>
			<text fill="#595959" font-family="Verdana,sans-serif" font-weight="400" font-size="41" transform="matrix(6.12323e-17 -1 1 6.12323e-17 3830.8529411764707 1225)">04-Nov</text>
		</g>
		<g>
			<text fill="#595959" font-family="Verdana,sans-serif" font-weight="400" font-size="41" transform="matrix(6.12323e-17 -1 1 6.12323e-17 3914.6176470588234 1223)">09-Dec</text>
		</g>
		<g>
			<text fill="#595959" font-family="Verdana,sans-serif" font-weight="400" font-size="41" transform="matrix(6.12323e-17 -1 1 6.12323e-17 3998.3823529411766 1210)">06-Jan</text>
		</g>
		<g>
			<text fill="#595959" font-family="Verdana,sans-serif" font-weight="400" font-size="41" transform="matrix(6.12323e-17 -1 1 6.12323e-17 4082.1470588235293 1217)">03-Feb</text>
		</g>
		<g>
			<text fill="#595959" font-family="Verdana,sans-serif" font-weight="400" font-size="41" transform="matrix(6.12323e-17 -1 1 6.12323e-17 4165.911764705882 1223)">03-Mar</text>
		</g>
		<g>
			<text fill="#595959" font-family="Verdana,sans-serif" font-weight="400" font-size="41" transform="matrix(6.12323e-17 -1 1 6.12323e-17 4249.676470588235 1223)">31-Mar</text>
		</g>
		<g>
			<text fill="#595959" font-family="Verdana,sans-serif" font-weight="400" font-size="41" transform="matrix(1 0 0 1 3123.5 1050)">0%</text>
		</g>
		<g>
			<text fill="#595959" font-family="Verdana,sans-serif" font-weight="400" font-size="41" transform="matrix(1 0 0 1 3097.5 922)">20%</text>
		</g>
		<g>
			<text fill="#595959" font-family="Verdana,sans-serif" font-weight="400" font-size="41" transform="matrix(1 0 0 1 3096.5 794)">40%</text>
		</g>
		<g>
			<text fill="#595959" font-family="Verdana,sans-serif" font-weight="400" font-size="41" transform="matrix(1 0 0 1 3097.5 666)">60%</text>
		</g>
		<g>
			<text fill="#595959" font-family="Verdana,sans-serif" font-weight="400" font-size="41" transform="matrix(1 0 0 1 3097.5 538)">80%</text>
		</g>
		<g>
			<text fill="#595959" font-family="Verdana,sans-serif" font-weight="400" font-size="41" transform="matrix(1 0 0 1 3074.5 410)">100%</text>
		</g>
		<g>
			<text fill="#595959" font-family="Verdana,sans-serif" font-weight="400" font-size="41" transform="matrix(1 0 0 1 3544.5 1321)">Week Commencing</text>
		</g>
		<g>
			<text fill="#595959" font-family="Verdana,sans-serif" font-weight="400" font-size="46" transform="matrix(6.12323e-17 -1 1 6.12323e-17 3019.73 965.25)">Requests (% of Total)</text>
		</g>
		<rect x="2918.5" y="347.5" width="1760" height="1043" stroke="#D9D9D9" stroke-width="3.4375" stroke-linejoin="round" stroke-miterlimit="10" fill="none" />
		<g>
			<path d="M3228.5 1038 3249.4411764705883 1038 3270.3823529411766 1038 3291.323529411765 1038 3312.264705882353 1038 3333.205882352941 1038 3354.1470588235293 1038 3375.0882352941176 1038 3396.029411764706 1038 3416.970588235294 1038 3437.9117647058824 1038 3458.8529411764707 1038 3479.794117647059 1038 3500.735294117647 1038 3521.676470588235 1038 3542.6176470588234 1038 3563.5588235294117 1038 3584.5 1038 3605.4411764705883 1038 3626.3823529411766 1038 3647.323529411765 1038 3668.264705882353 1038 3689.205882352941 1038 3710.1470588235293 1038 3731.0882352941176 1038 3752.029411764706 1038 3772.970588235294 1038 3793.9117647058824 1038 3814.8529411764707 1038 3835.7941176470586 1038 3856.735294117647 1038 3877.676470588235 1038 3898.6176470588234 1038 3919.5588235294117 1038 3940.5 1038 3961.4411764705883 1038 3982.3823529411766 1038 4003.323529411765 1038 4024.264705882353 1038 4045.2058823529414 1038 4066.1470588235293 1038 4087.0882352941176 1038 4108.029411764706 1038 4128.970588235294 1038 4149.911764705882 1038 4170.85294117647 1038 4191.794117647059 1038 4212.735294117647 1038 4233.676470588235 1038 4254.617647058823 1038 4275.558823529412 1038 4296.5 1038 4296.5 782.1836383338261 4275.558823529412 782.28451642524 4254.617647058823 782.5500837418158 4233.676470588235 783.0031565342465 4212.735294117647 782.8052872994127 4191.794117647059 783.0839365756206 4170.85294117647 783.2139812899172 4149.911764705882 783.418681414867 4128.970588235294 783.391757080238 4108.029411764706 783.5748526599284 4087.0882352941176 783.7048944052132 4066.1470588235293 783.4831690555263 4045.2058823529414 783.0196786229212 4024.264705882353 783.0275141890429 4003.323529411765 783.4492557109172 3982.3823529411766 783.484387962271 3961.4411764705883 783.2922413061176 3940.5 783.1097274823168 3919.5588235294117 783.0871417282395 3898.6176470588234 782.9000115015447 3877.676470588235 782.5276373365637 3856.735294117647 782.6753667196651 3835.7941176470586 783.1682641871979 3814.8529411764707 783.5277451200283 3793.9117647058824 783.7165926175173 3772.970588235294 725.0579859810713 3752.029411764706 723.964272691857 3731.0882352941176 722.9963838923263 3710.1470588235293 722.2500058248895 3689.205882352941 721.3672257636031 3668.264705882353 716.1347668638947 3647.323529411765 714.9315603533947 3626.3823529411766 714.226459280052 3605.4411764705883 714.4105060971157 3584.5 713.9589728279007 3563.5588235294117 713.4392482120827 3542.6176470588234 712.9526784937428 3521.676470588235 712.3235713382509 3500.735294117647 712.0748666907585 3479.794117647059 711.7892867662207 3458.8529411764707 711.2928421961317 3437.9117647058824 710.6616144923173 3416.970588235294 710.307171035662 3396.029411764706 710.0229260904226 3375.0882352941176 709.5011500172373 3354.1470588235293 708.8529728655324 3333.205882352941 708.5111643371398 3312.264705882353 707.6773439344757 3291.323529411765 706.7867985338357 3270.3823529411766 705.8245723100855 3249.4411764705883 704.5432324401569 3228.5 703.4985064623488 3228.5 1038Z" fill="#e62d39" opacity="0.9" />
		</g>
		<g>
			<path d="M3228.5 703.4985064623488 3249.4411764705883 704.5432324401569 3270.3823529411766 705.8245723100855 3291.323529411765 706.7867985338357 3312.264705882353 707.6773439344757 3333.205882352941 708.5111643371398 3354.1470588235293 708.8529728655324 3375.0882352941176 709.5011500172373 3396.029411764706 710.0229260904226 3416.970588235294 710.307171035662 3437.9117647058824 710.6616144923173 3458.8529411764707 711.2928421961317 3479.794117647059 711.7892867662207 3500.735294117647 712.0748666907585 3521.676470588235 712.3235713382509 3542.6176470588234 712.9526784937428 3563.5588235294117 713.4392482120827 3584.5 713.9589728279007 3605.4411764705883 714.4105060971157 3626.3823529411766 714.226459280052 3647.323529411765 714.9315603533947 3668.264705882353 716.1347668638947 3689.205882352941 721.3672257636031 3710.1470588235293 722.2500058248895 3731.0882352941176 722.9963838923263 3752.029411764706 723.964272691857 3772.970588235294 725.0579859810713 3793.9117647058824 783.7165926175173 3814.8529411764707 783.5277451200283 3835.7941176470586 783.1682641871979 3856.735294117647 782.6753667196651 3877.676470588235 782.5276373365637 3898.6176470588234 782.9000115015447 3919.5588235294117 783.0871417282395 3940.5 783.1097274823168 3961.4411764705883 783.2922413061176 3982.3823529411766 783.484387962271 4003.323529411765 783.4492557109172 4024.264705882353 783.0275141890429 4045.2058823529414 783.0196786229212 4066.1470588235293 783.4831690555263 4087.0882352941176 783.7048944052132 4108.029411764706 783.5748526599284 4128.970588235294 783.391757080238 4149.911764705882 783.418681414867 4170.85294117647 783.2139812899172 4191.794117647059 783.0839365756206 4212.735294117647 782.8052872994127 4233.676470588235 783.0031565342465 4254.617647058823 782.5500837418158 4275.558823529412 782.28451642524 4296.5 782.1836383338261 4296.5 532.2348192575948 4275.558823529412 532.1820957819214 4254.617647058823 532.3681470809754 4233.676470588235 532.5201668090683 4212.735294117647 532.4238251729188 4191.794117647059 532.3835949473919 4170.85294117647 531.9915975411402 4149.911764705882 531.7252849940927 4128.970588235294 531.7204662326122 4108.029411764706 531.628499653356 4087.0882352941176 531.5339960022333 4066.1470588235293 531.0725093725604 4045.2058823529414 531.2499409458121 4024.264705882353 531.6507006603789 4003.323529411765 531.7063634722977 3982.3823529411766 531.7405716149474 3961.4411764705883 531.5084515547419 3940.5 531.1868422316874 3919.5588235294117 530.9096071067931 3898.6176470588234 530.6457625647856 3877.676470588235 530.2115588422516 3856.735294117647 530.3749323864379 3835.7941176470586 530.816371903653 3814.8529411764707 531.5387166599613 3793.9117647058824 532.190445140906 3772.970588235294 526.5102482737155 3752.029411764706 525.3174753042879 3731.0882352941176 524.2802845879517 3710.1470588235293 523.1294380044525 3689.205882352941 521.8575691422009 3668.264705882353 514.1116307261946 3647.323529411765 512.993987230213 3626.3823529411766 512.1677115640608 3605.4411764705883 502.45546819630397 3584.5 501.879791216212 3563.5588235294117 501.40460916879545 3542.6176470588234 500.8004852626943 3521.676470588235 499.8853489758172 3500.735294117647 498.7859305783681 3479.794117647059 497.70686325871344 3458.8529411764707 496.45662763490196 3437.9117647058824 495.1622009511958 3416.970588235294 493.8933367325633 3396.029411764706 492.86935877863715 3375.0882352941176 492.0646789770611 3354.1470588235293 491.29504574396447 3333.205882352941 490.57523501016317 3312.264705882353 490.03332941523763 3291.323529411765 489.72310243427995 3270.3823529411766 489.48234403066954 3249.4411764705883 489.1962201731323 3228.5 488.9387742360814 3228.5 703.4985064623488Z" fill="#005aa6" opacity="0.9" />
		</g>
		<g>
			<path d="M3228.5 488.9387742360814 3249.4411764705883 489.1962201731323 3270.3823529411766 489.48234403066954 3291.323529411765 489.72310243427995 3312.264705882353 490.03332941523763 3333.205882352941 490.57523501016317 3354.1470588235293 491.29504574396447 3375.0882352941176 492.0646789770611 3396.029411764706 492.86935877863715 3416.970588235294 493.8933367325633 3437.9117647058824 495.1622009511958 3458.8529411764707 496.45662763490196 3479.794117647059 497.70686325871344 3500.735294117647 498.7859305783681 3521.676470588235 499.8853489758172 3542.6176470588234 500.8004852626943 3563.5588235294117 501.40460916879545 3584.5 501.879791216212 3605.4411764705883 502.45546819630397 3626.3823529411766 512.1677115640608 3647.323529411765 512.993987230213 3668.264705882353 514.1116307261946 3689.205882352941 521.8575691422009 3710.1470588235293 523.1294380044525 3731.0882352941176 524.2802845879517 3752.029411764706 525.3174753042879 3772.970588235294 526.5102482737155 3793.9117647058824 532.190445140906 3814.8529411764707 531.5387166599613 3835.7941176470586 530.816371903653 3856.735294117647 530.3749323864379 3877.676470588235 530.2115588422516 3898.6176470588234 530.6457625647856 3919.5588235294117 530.9096071067931 3940.5 531.1868422316874 3961.4411764705883 531.5084515547419 3982.3823529411766 531.7405716149474 4003.323529411765 531.7063634722977 4024.264705882353 531.6507006603789 4045.2058823529414 531.2499409458121 4066.1470588235293 531.0725093725604 4087.0882352941176 531.5339960022333 4108.029411764706 531.628499653356 4128.970588235294 531.7204662326122 4149.911764705882 531.7252849940927 4170.85294117647 531.9915975411402 4191.794117647059 532.3835949473919 4212.735294117647 532.4238251729188 4233.676470588235 532.5201668090683 4254.617647058823 532.3681470809754 4275.558823529412 532.1820957819214 4296.5 532.2348192575948 4296.5 489.77877115088484 4275.558823529412 489.56160929323346 4254.617647058823 489.5397849514939 4233.676470588235 489.5595335703314 4212.735294117647 489.2933239946325 4191.794117647059 489.0834397469836 4170.85294117647 488.66304187283265 4149.911764705882 488.342804480212 4128.970588235294 488.19986039125524 4108.029411764706 488.019603954726 4087.0882352941176 487.9026766907719 4066.1470588235293 487.52222153261033 4045.2058823529414 487.70696592491663 4024.264705882353 488.01151049572456 4003.323529411765 487.963793616364 3982.3823529411766 487.98949737367803 3961.4411764705883 487.70292525839443 3940.5 487.3692026626984 3919.5588235294117 487.10721609649056 3898.6176470588234 486.9097754632236 3877.676470588235 486.6466810104104 3856.735294117647 486.8253712667305 3835.7941176470586 487.1725552495906 3814.8529411764707 487.81344975744275 3793.9117647058824 488.4006750879141 3772.970588235294 478.7456085402515 3752.029411764706 477.4222196163745 3731.0882352941176 476.2604646154135 3710.1470588235293 475.0060216232253 3689.205882352941 473.64144749214375 3668.264705882353 473.2844498106347 3647.323529411765 472.05917492318713 3626.3823529411766 471.07663748656995 3605.4411764705883 461.2408535917636 3584.5 460.48443100573536 3563.5588235294117 459.76604736337003 3542.6176470588234 458.9777407221724 3521.676470588235 457.90939966851295 3500.735294117647 456.65452296321746 3479.794117647059 455.36215838852235 3458.8529411764707 453.9844912065713 3437.9117647058824 452.5053589477677 3416.970588235294 451.07476537844235 3396.029411764706 449.87375657582817 3375.0882352941176 448.9328850656446 3354.1470588235293 448.0557909288758 3333.205882352941 447.2525039284088 3312.264705882353 446.6761477523823 3291.323529411765 446.4456437459776 3270.3823529411766 446.28136252321144 3249.4411764705883 446.10487752564853 3228.5 445.9636538385128 3228.5 488.9387742360814Z" fill="#55c0e9" opacity="0.9" />
		</g>
		<g>
			<path d="M3228.5 445.9636538385128 3249.4411764705883 446.10487752564853 3270.3823529411766 446.28136252321144 3291.323529411765 446.4456437459776 3312.264705882353 446.6761477523823 3333.205882352941 447.2525039284088 3354.1470588235293 448.0557909288758 3375.0882352941176 448.9328850656446 3396.029411764706 449.87375657582817 3416.970588235294 451.07476537844235 3437.9117647058824 452.5053589477677 3458.8529411764707 453.9844912065713 3479.794117647059 455.36215838852235 3500.735294117647 456.65452296321746 3521.676470588235 457.90939966851295 3542.6176470588234 458.9777407221724 3563.5588235294117 459.76604736337003 3584.5 460.48443100573536 3605.4411764705883 461.2408535917636 3626.3823529411766 471.07663748656995 3647.323529411765 472.05917492318713 3668.264705882353 473.2844498106347 3689.205882352941 473.64144749214375 3710.1470588235293 475.0060216232253 3731.0882352941176 476.2604646154135 3752.029411764706 477.4222196163745 3772.970588235294 478.7456085402515 3793.9117647058824 488.4006750879141 3814.8529411764707 487.81344975744275 3835.7941176470586 487.1725552495906 3856.735294117647 486.8253712667305 3877.676470588235 486.6466810104104 3898.6176470588234 486.9097754632236 3919.5588235294117 487.10721609649056 3940.5 487.3692026626984 3961.4411764705883 487.70292525839443 3982.3823529411766 487.98949737367803 4003.323529411765 487.963793616364 4024.264705882353 488.01151049572456 4045.2058823529414 487.70696592491663 4066.1470588235293 487.52222153261033 4087.0882352941176 487.9026766907719 4108.029411764706 488.019603954726 4128.970588235294 488.19986039125524 4149.911764705882 488.342804480212 4170.85294117647 488.66304187283265 4191.794117647059 489.0834397469836 4212.735294117647 489.2933239946325 4233.676470588235 489.5595335703314 4254.617647058823 489.5397849514939 4275.558823529412 489.56160929323346 4296.5 489.77877115088484 4296.5 477.2431626623622 4275.558823529412 476.9834739801711 4254.617647058823 476.8973696844754 4233.676470588235 476.8748020982269 4212.735294117647 476.5669923893315 4191.794117647059 476.3174497919625 4170.85294117647 475.8998014736065 4149.911764705882 475.5839065563436 4128.970588235294 475.4761084872438 4108.029411764706 475.3862262172438 4087.0882352941176 475.3370518496447 4066.1470588235293 475.01380165868784 4045.2058823529414 475.19871497996326 4024.264705882353 475.4695361222136 4003.323529411765 475.3984900629857 3982.3823529411766 475.42158037858417 3961.4411764705883 475.17281446854633 3940.5 474.89392113663916 3919.5588235294117 474.6976120214667 3898.6176470588234 474.5506870011159 3877.676470588235 474.3398551157786 3856.735294117647 474.4972746166898 3835.7941176470586 474.8032929443811 3814.8529411764707 475.42643040944677 3793.9117647058824 475.9837074966003 3772.970588235294 466.53633469676566 3752.029411764706 465.2033179049321 3731.0882352941176 464.0399484926056 3710.1470588235293 462.7794187905808 3689.205882352941 461.40786834513193 3668.264705882353 460.8843773665021 3647.323529411765 459.6546822545587 3626.3823529411766 458.6559421000703 3605.4411764705883 448.8413613772234 3584.5 448.0810719550874 3563.5588235294117 447.3247116817817 3542.6176470588234 446.5310952275203 3521.676470588235 445.4598876638521 3500.735294117647 444.211812869573 3479.794117647059 442.9104603532568 3458.8529411764707 441.5224522868679 3437.9117647058824 440.02872439510173 3416.970588235294 438.5911754273753 3396.029411764706 437.36935007449506 3375.0882352941176 436.4113820386986 3354.1470588235293 435.5243027869889 3333.205882352941 434.7122259498071 3312.264705882353 434.13110745861906 3291.323529411765 433.9141397981283 3270.3823529411766 433.7506297603656 3249.4411764705883 433.55919918545516 3228.5 433.40054840431145 3228.5 445.9636538385128Z" fill="#f6a118" opacity="0.9" />
		</g>
		<g>
			<path d="M3228.5 433.40054840431145 3249.4411764705883 433.55919918545516 3270.3823529411766 433.7506297603656 3291.323529411765 433.9141397981283 3312.264705882353 434.13110745861906 3333.205882352941 434.7122259498071 3354.1470588235293 435.5243027869889 3375.0882352941176 436.4113820386986 3396.029411764706 437.36935007449506 3416.970588235294 438.5911754273753 3437.9117647058824 440.02872439510173 3458.8529411764707 441.5224522868679 3479.794117647059 442.9104603532568 3500.735294117647 444.211812869573 3521.676470588235 445.4598876638521 3542.6176470588234 446.5310952275203 3563.5588235294117 447.3247116817817 3584.5 448.0810719550874 3605.4411764705883 448.8413613772234 3626.3823529411766 458.6559421000703 3647.323529411765 459.6546822545587 3668.264705882353 460.8843773665021 3689.205882352941 461.40786834513193 3710.1470588235293 462.7794187905808 3731.0882352941176 464.0399484926056 3752.029411764706 465.2033179049321 3772.970588235294 466.53633469676566 3793.9117647058824 475.9837074966003 3814.8529411764707 475.42643040944677 3835.7941176470586 474.8032929443811 3856.735294117647 474.4972746166898 3877.676470588235 474.3398551157786 3898.6176470588234 474.5506870011159 3919.5588235294117 474.6976120214667 3940.5 474.89392113663916 3961.4411764705883 475.17281446854633 3982.3823529411766 475.42158037858417 4003.323529411765 475.3984900629857 4024.264705882353 475.4695361222136 4045.2058823529414 475.19871497996326 4066.1470588235293 475.01380165868784 4087.0882352941176 475.3370518496447 4108.029411764706 475.3862262172438 4128.970588235294 475.4761084872438 4149.911764705882 475.5839065563436 4170.85294117647 475.8998014736065 4191.794117647059 476.3174497919625 4212.735294117647 476.5669923893315 4233.676470588235 476.8748020982269 4254.617647058823 476.8973696844754 4275.558823529412 476.9834739801711 4296.5 477.2431626623622 4296.5 472.0140786339897 4275.558823529412 471.682006543854 4254.617647058823 471.520348091749 4233.676470588235 471.43270925474144 4212.735294117647 471.1148468453639 4191.794117647059 470.7986006511395 4170.85294117647 470.3245005923507 4149.911764705882 469.9513908315054 4128.970588235294 469.7725947069797 4108.029411764706 469.63103904356444 4087.0882352941176 469.55102191735557 4066.1470588235293 469.25281227235195 4045.2058823529414 469.45361176960154 4024.264705882353 469.73018322095714 4003.323529411765 469.6596614770044 3982.3823529411766 469.68188908060466 3961.4411764705883 469.43106409076864 3940.5 469.15262240928087 3919.5588235294117 468.95702207661526 3898.6176470588234 468.84734356461763 3877.676470588235 468.7350335488471 3856.735294117647 468.9078882196251 3835.7941176470586 469.2079498249524 3814.8529411764707 469.81130033797666 3793.9117647058824 470.38342727342314 3772.970588235294 461.2444339081057 3752.029411764706 459.946755992067 3731.0882352941176 458.8077681755944 3710.1470588235293 457.5593223229012 3689.205882352941 456.2181048338814 3668.264705882353 455.6431947463817 3647.323529411765 454.47972281760985 3626.3823529411766 453.4905215300467 3605.4411764705883 443.69596259487105 3584.5 442.9470560831334 3563.5588235294117 442.18952771113993 3542.6176470588234 441.4102737359516 3521.676470588235 440.35943056582056 3500.735294117647 439.1354625729624 3479.794117647059 437.84119270046506 3458.8529411764707 436.45931716608146 3437.9117647058824 434.9725271047773 3416.970588235294 433.5415615660502 3396.029411764706 432.3203932157333 3375.0882352941176 431.3782566408658 3354.1470588235293 430.5117297264795 3333.205882352941 429.7249311165208 3312.264705882353 429.1613894967009 3291.323529411765 428.96097997032933 3270.3823529411766 428.8105160166967 3249.4411764705883 428.64236977976526 3228.5 428.50399955057856 3228.5 433.40054840431145Z" fill="#fdd5a4" opacity="0.9" />
		</g>
		<g>
			<path d="M3228.5 428.50399955057856 3249.4411764705883 428.64236977976526 3270.3823529411766 428.8105160166967 3291.323529411765 428.96097997032933 3312.264705882353 429.1613894967009 3333.205882352941 429.7249311165208 3354.1470588235293 430.5117297264795 3375.0882352941176 431.3782566408658 3396.029411764706 432.3203932157333 3416.970588235294 433.5415615660502 3437.9117647058824 434.9725271047773 3458.8529411764707 436.45931716608146 3479.794117647059 437.84119270046506 3500.735294117647 439.1354625729624 3521.676470588235 440.35943056582056 3542.6176470588234 441.4102737359516 3563.5588235294117 442.18952771113993 3584.5 442.9470560831334 3605.4411764705883 443.69596259487105 3626.3823529411766 453.4905215300467 3647.323529411765 454.47972281760985 3668.264705882353 455.6431947463817 3689.205882352941 456.2181048338814 3710.1470588235293 457.5593223229012 3731.0882352941176 458.8077681755944 3752.029411764706 459.946755992067 3772.970588235294 461.2444339081057 3793.9117647058824 470.38342727342314 3814.8529411764707 469.81130033797666 3835.7941176470586 469.2079498249524 3856.735294117647 468.9078882196251 3877.676470588235 468.7350335488471 3898.6176470588234 468.84734356461763 3919.5588235294117 468.95702207661526 3940.5 469.15262240928087 3961.4411764705883 469.43106409076864 3982.3823529411766 469.68188908060466 4003.323529411765 469.6596614770044 4024.264705882353 469.73018322095714 4045.2058823529414 469.45361176960154 4066.1470588235293 469.25281227235195 4087.0882352941176 469.55102191735557 4108.029411764706 469.63103904356444 4128.970588235294 469.7725947069797 4149.911764705882 469.9513908315054 4170.85294117647 470.3245005923507 4191.794117647059 470.7986006511395 4212.735294117647 471.1148468453639 4233.676470588235 471.43270925474144 4254.617647058823 471.520348091749 4275.558823529412 471.682006543854 4296.5 472.0140786339897 4296.5 467.13787830023045 4275.558823529412 466.8018186815907 4254.617647058823 466.6374618686549 4233.676470588235 466.54215183048984 4212.735294117647 466.2228711653022 4191.794117647059 465.9001213956365 4170.85294117647 465.4390074188502 4149.911764705882 465.07678566777184 4128.970588235294 464.9033783038482 4108.029411764706 464.7815818058518 4087.0882352941176 464.7260968061159 4066.1470588235293 464.4723890087734 4045.2058823529414 464.6844034193931 4024.264705882353 464.9715947829817 4003.323529411765 464.9499237655363 3982.3823529411766 464.9713870250645 3961.4411764705883 464.7567393127636 3940.5 464.5132259653092 3919.5588235294117 464.3461599383072 3898.6176470588234 464.26375937292056 3877.676470588235 464.2122032971037 3856.735294117647 464.3963627005436 3835.7941176470586 464.69518296460524 3814.8529411764707 465.29095095509365 3793.9117647058824 465.86857631542375 3772.970588235294 457.9426597886813 3752.029411764706 456.6504617863283 3731.0882352941176 455.5173638999522 3710.1470588235293 454.27397669951574 3689.205882352941 452.9422128623981 3668.264705882353 452.3392658302522 3647.323529411765 451.1914920386467 3626.3823529411766 450.1807388631146 3605.4411764705883 440.3988808972397 3584.5 439.6628015961259 3563.5588235294117 438.90968576505173 3542.6176470588234 438.1368838719703 3521.676470588235 437.09878380068074 3500.735294117647 435.88818645509696 3479.794117647059 434.59694513524136 3458.8529411764707 433.22158409139143 3437.9117647058824 431.7348695488416 3416.970588235294 430.30784750779037 3396.029411764706 429.09159001631633 3375.0882352941176 428.1595197737724 3354.1470588235293 427.30225741502903 3333.205882352941 426.52676679830296 3312.264705882353 425.97200661481094 3291.323529411765 425.7866796521752 3270.3823529411766 425.65149111446993 3249.4411764705883 425.49532897112516 3228.5 425.3719419226974 3228.5 428.50399955057856Z" fill="#f48c7d" opacity="0.9" />
		</g>
		<g>
			<path d="M3228.5 425.3719419226974 3249.4411764705883 425.49532897112516 3270.3823529411766 425.65149111446993 3291.323529411765 425.7866796521752 3312.264705882353 425.97200661481094 3333.205882352941 426.52676679830296 3354.1470588235293 427.30225741502903 3375.0882352941176 428.1595197737724 3396.029411764706 429.09159001631633 3416.970588235294 430.30784750779037 3437.9117647058824 431.7348695488416 3458.8529411764707 433.22158409139143 3479.794117647059 434.59694513524136 3500.735294117647 435.88818645509696 3521.676470588235 437.09878380068074 3542.6176470588234 438.1368838719703 3563.5588235294117 438.90968576505173 3584.5 439.6628015961259 3605.4411764705883 440.3988808972397 3626.3823529411766 450.1807388631146 3647.323529411765 451.1914920386467 3668.264705882353 452.3392658302522 3689.205882352941 452.9422128623981 3710.1470588235293 454.27397669951574 3731.0882352941176 455.5173638999522 3752.029411764706 456.6504617863283 3772.970588235294 457.9426597886813 3793.9117647058824 465.86857631542375 3814.8529411764707 465.29095095509365 3835.7941176470586 464.69518296460524 3856.735294117647 464.3963627005436 3877.676470588235 464.2122032971037 3898.6176470588234 464.26375937292056 3919.5588235294117 464.3461599383072 3940.5 464.5132259653092 3961.4411764705883 464.7567393127636 3982.3823529411766 464.9713870250645 4003.323529411765 464.9499237655363 4024.264705882353 464.9715947829817 4045.2058823529414 464.6844034193931 4066.1470588235293 464.4723890087734 4087.0882352941176 464.7260968061159 4108.029411764706 464.7815818058518 4128.970588235294 464.9033783038482 4149.911764705882 465.07678566777184 4170.85294117647 465.4390074188502 4191.794117647059 465.9001213956365 4212.735294117647 466.2228711653022 4233.676470588235 466.54215183048984 4254.617647058823 466.6374618686549 4275.558823529412 466.8018186815907 4296.5 467.13787830023045 4296.5 397.99999999999994 4275.558823529412 398 4254.617647058823 398.0000000000001 4233.676470588235 398.0000000000001 4212.735294117647 398.0000000000001 4191.794117647059 398 4170.85294117647 398.00000000000006 4149.911764705882 397.9999999999999 4128.970588235294 398 4108.029411764706 398 4087.0882352941176 397.9999999999999 4066.1470588235293 397.9999999999999 4045.2058823529414 398 4024.264705882353 397.9999999999999 4003.323529411765 398 3982.3823529411766 398.0000000000001 3961.4411764705883 397.99999999999983 3940.5 397.9999999999999 3919.5588235294117 397.99999999999994 3898.6176470588234 397.9999999999999 3877.676470588235 397.9999999999999 3856.735294117647 397.99999999999994 3835.7941176470586 398 3814.8529411764707 397.99999999999994 3793.9117647058824 398 3772.970588235294 397.9999999999999 3752.029411764706 397.9999999999999 3731.0882352941176 397.9999999999998 3710.1470588235293 398 3689.205882352941 398 3668.264705882353 398.00000000000006 3647.323529411765 398.0000000000002 3626.3823529411766 398 3605.4411764705883 397.99999999999994 3584.5 398 3563.5588235294117 398.0000000000001 3542.6176470588234 398.00000000000006 3521.676470588235 397.99999999999994 3500.735294117647 397.99999999999994 3479.794117647059 398.00000000000006 3458.8529411764707 397.99999999999994 3437.9117647058824 398.00000000000017 3416.970588235294 397.99999999999994 3396.029411764706 397.99999999999994 3375.0882352941176 398 3354.1470588235293 398 3333.205882352941 398.00000000000017 3312.264705882353 398 3291.323529411765 398.00000000000006 3270.3823529411766 397.9999999999999 3249.4411764705883 398 3228.5 397.99999999999994 3228.5 425.3719419226974Z" fill="#393d41" opacity="0.9" />
		</g>
		<g>
			<rect x="4372" y="431" width="22.9995" height="23" fill="#e62d39" />
		</g>
		<g>
			<text fill="#595959" font-family="Verdana,sans-serif" font-weight="400" font-size="41" transform="matrix(1 0 0 1 4404.56 454)">iOS</text>
		</g>
		<g>
			<rect x="4372" y="508" width="22.9995" height="23" fill="#005aa6" />
		</g>
		<g>
			<text fill="#595959" font-family="Verdana,sans-serif" font-weight="400" font-size="41" transform="matrix(1 0 0 1 4404.56 531)">Android</text>
		</g>
		<g>
			<rect x="4372" y="585" width="22.9995" height="23" fill="#55c0e9" />
		</g>
		<g>
			<text fill="#595959" font-family="Verdana,sans-serif" font-weight="400" font-size="41" transform="matrix(1 0 0 1 4404.56 608)">Windows</text>
		</g>
		<g>
			<rect x="4372" y="662" width="22.9995" height="23" fill="#f6a118" />
		</g>
		<g>
			<text fill="#595959" font-family="Verdana,sans-serif" font-weight="400" font-size="41" transform="matrix(1 0 0 1 4404.56 685)">macOS</text>
		</g>
		<g>
			<rect x="4372" y="739" width="22.9995" height="23" fill="#fdd5a4" />
		</g>
		<g>
			<text fill="#595959" font-family="Verdana,sans-serif" font-weight="400" font-size="41" transform="matrix(1 0 0 1 4404.56 762)">Other</text>
		</g>
		<g>
			<rect x="4372" y="816" width="22.9995" height="23" fill="#f48c7d" />
		</g>
		<g>
			<text fill="#595959" font-family="Verdana,sans-serif" font-weight="400" font-size="41" transform="matrix(1 0 0 1 4404.56 839)">Linux</text>
		</g>
		<g>
			<rect x="4372" y="893" width="22.9995" height="23" fill="#393d41" />
		</g>
		<g>
			<text fill="#595959" font-family="Verdana,sans-serif" font-weight="400" font-size="41" transform="matrix(1 0 0 1 4404.56 916)">Unclassified</text>
		</g>
	</g>
</svg>
