<svg width="1763" height="1046"
    xmlns="http://www.w3.org/2000/svg"
	xmlns:xlink="http://www.w3.org/1999/xlink" xml:space="preserve" overflow="hidden">
	<defs>
		<clipPath id="clip0">
			<rect x="2917" y="346" width="1763" height="1046"/>
		</clipPath>
	</defs>
	<g clip-path="url(#clip0)" transform="translate(-2917 -346)">
		<rect x="2918" y="347" width="1760" height="1043" fill="#FFFFFF" />
		<g>
			<path d="
			M3228.5 974.532 4296.5 974.532
			M3228.5 910.53 4296.5 910.53
			M3228.5 846.528 4296.5 846.528
			M3228.5 781.526 4296.5 781.526
			M3228.5 717.524 4296.5 717.524
			M3228.5 653.522 4296.5 653.522
			M3228.5 589.52 4296.5 589.52
			M3228.5 525.517 4296.5 525.517
			M3228.5 461.515 4296.5 461.515
			M3228.5 397.5 4296.5 397.5" stroke="#D9D9D9" stroke-width="3.4375" stroke-linejoin="round" stroke-miterlimit="10" fill="none" />
		</g>
		<g>
			<path d="M 1038.5 4296.5 1038.5" stroke="#D9D9D9" stroke-width="3.4375" stroke-linejoin="round" stroke-miterlimit="10" fill="none" fill-rule="evenodd" />
		</g>
		<g>
			<text fill="#595959" font-family="Verdana,Open Sans,DejaVu Sans,sans-serif" font-weight="400" font-size="41" transform="matrix(6.12323e-17 -1 1 6.12323e-17 3243.544677734375 1205.3642578125)">16-Dec</text>
		</g>
		<g>
			<text fill="#595959" font-family="Verdana,Open Sans,DejaVu Sans,sans-serif" font-weight="400" font-size="41" transform="matrix(6.12323e-17 -1 1 6.12323e-17 3332.6382421875 1189.9291915893555)">13-Jan</text>
		</g>
		<g>
			<text fill="#595959" font-family="Verdana,Open Sans,DejaVu Sans,sans-serif" font-weight="400" font-size="41" transform="matrix(6.12323e-17 -1 1 6.12323e-17 3415.155390625 1201.3203125)">10-Feb</text>
		</g>
		<g>
			<text fill="#595959" font-family="Verdana,Open Sans,DejaVu Sans,sans-serif" font-weight="400" font-size="41" transform="matrix(6.12323e-17 -1 1 6.12323e-17 3499.884697265625 1210.2890625)">10-Mar</text>
		</g>
		<g>
			<text fill="#595959" font-family="Verdana,Open Sans,DejaVu Sans,sans-serif" font-weight="400" font-size="41" transform="matrix(6.12323e-17 -1 1 6.12323e-17 3590.049306640625 1203.2621994018555)">07-Apr</text>
		</g>
		<g>
			<text fill="#595959" font-family="Verdana,Open Sans,DejaVu Sans,sans-serif" font-weight="400" font-size="41" transform="matrix(6.12323e-17 -1 1 6.12323e-17 3675.489306640625 1216.47509765625)">05-May</text>
		</g>
		<g>
			<text fill="#595959" font-family="Verdana,Open Sans,DejaVu Sans,sans-serif" font-weight="400" font-size="41" transform="matrix(6.12323e-17 -1 1 6.12323e-17 3759.85826171875 1194.0131759643555)">09-Jun</text>
		</g>
		<g>
			<text fill="#595959" font-family="Verdana,Open Sans,DejaVu Sans,sans-serif" font-weight="400" font-size="41" transform="matrix(6.12323e-17 -1 1 6.12323e-17 3846.008955078125 1178.9985275268555)">07-Jul</text>
		</g>
		<g>
			<text fill="#595959" font-family="Verdana,Open Sans,DejaVu Sans,sans-serif" font-weight="400" font-size="41" transform="matrix(6.12323e-17 -1 1 6.12323e-17 3931.809306640625 1208.62744140625)">04-Aug</text>
		</g>
		<g>
			<text fill="#595959" font-family="Verdana,Open Sans,DejaVu Sans,sans-serif" font-weight="400" font-size="41" transform="matrix(6.12323e-17 -1 1 6.12323e-17 4017.249306640625 1204.38330078125)">01-Sep</text>
		</g>
		<g>
			<text fill="#595959" font-family="Verdana,Open Sans,DejaVu Sans,sans-serif" font-weight="400" font-size="41" transform="matrix(6.12323e-17 -1 1 6.12323e-17 4102.669287109375 1204.42333984375)">29-Sep</text>
		</g>
		<g>
			<text fill="#595959" font-family="Verdana,Open Sans,DejaVu Sans,sans-serif" font-weight="400" font-size="41" transform="matrix(6.12323e-17 -1 1 6.12323e-17 4183.404697265625 1201.1401290893555)">27-Oct</text>
		</g>
		<g>
			<text fill="#595959" font-family="Verdana,Open Sans,DejaVu Sans,sans-serif" font-weight="400" font-size="41" transform="matrix(6.12323e-17 -1 1 6.12323e-17 4268.824677734375 1211.47021484375)">24-Nov</text>
		</g>
		<g>
			<text fill="#595959" font-family="Verdana,Open Sans,DejaVu Sans,sans-serif" font-weight="400" font-size="41" transform="matrix(1 0 0 1 3135.4482421875 1050)">0%</text>
		</g>
		<g>
			<text fill="#595959" font-family="Verdana,Open Sans,DejaVu Sans,sans-serif" font-weight="400" font-size="41" transform="matrix(1 0 0 1 3111.96533203125 922)">20%</text>
		</g>
		<g>
			<text fill="#595959" font-family="Verdana,Open Sans,DejaVu Sans,sans-serif" font-weight="400" font-size="41" transform="matrix(1 0 0 1 3110.82421875 794)">40%</text>
		</g>
		<g>
			<text fill="#595959" font-family="Verdana,Open Sans,DejaVu Sans,sans-serif" font-weight="400" font-size="41" transform="matrix(1 0 0 1 3112.3056640625 666)">60%</text>
		</g>
		<g>
			<text fill="#595959" font-family="Verdana,Open Sans,DejaVu Sans,sans-serif" font-weight="400" font-size="41" transform="matrix(1 0 0 1 3112.04541015625 538)">80%</text>
		</g>
		<g>
			<text fill="#595959" font-family="Verdana,Open Sans,DejaVu Sans,sans-serif" font-weight="400" font-size="41" transform="matrix(1 0 0 1 3090.2841796875 410)">100%</text>
		</g>
		<g>
			<text fill="#595959" font-family="Verdana,Open Sans,DejaVu Sans,sans-serif" font-weight="400" font-size="41" transform="matrix(1 0 0 1 3556.97119140625 1321)">Week Commencing</text>
		</g>
		<g>
			<text fill="#595959" font-family="Verdana,Open Sans,DejaVu Sans,sans-serif" font-weight="400" font-size="46" transform="matrix(6.12323e-17 -1 1 6.12323e-17 3019.73 936.7665710449219)">Requests (% of Total)</text>
		</g>
		<rect x="2918.5" y="347.5" width="1760" height="1043" stroke="#D9D9D9" stroke-width="3.4375" stroke-linejoin="round" stroke-miterlimit="10" fill="none" />
		<g>
			<path d="M3228.5 1038 3249.86 1038 3271.22 1038 3292.58 1038 3313.94 1038 3335.3 1038 3356.66 1038 3378.02 1038 3399.38 1038 3420.74 1038 3442.1 1038 3463.46 1038 3484.82 1038 3506.18 1038 3527.54 1038 3548.9 1038 3570.26 1038 3591.62 1038 3612.98 1038 3634.34 1038 3655.7 1038 3677.06 1038 3698.42 1038 3719.7799999999997 1038 3741.14 1038 3762.5 1038 3783.86 1038 3805.2200000000003 1038 3826.58 1038 3847.94 1038 3869.3 1038 3890.66 1038 3912.02 1038 3933.38 1038 3954.74 1038 3976.1 1038 3997.46 1038 4018.8199999999997 1038 4040.18 1038 4061.54 1038 4082.9 1038 4104.26 1038 4125.62 1038 4146.98 1038 4168.34 1038 4189.7 1038 4211.0599999999995 1038 4232.42 1038 4253.78 1038 4275.139999999999 1038 4296.5 1038 4296.5 751.761881610288 4275.139999999999 753.5875510114441 4253.78 760.0049069239963 4232.42 757.9113031477688 4211.0599999999995 759.380873288005 4189.7 764.3156850172985 4168.34 764.3768419479462 4146.98 764.3547678374432 4125.62 764.4897401031296 4104.26 766.8609306167309 4082.9 766.8567475951404 4061.54 767.9192079463141 4040.18 768.908358113137 4018.8199999999997 771.7976640891548 3997.46 772.995900100849 3976.1 773.0047654751563 3954.74 774.0176159604634 3933.38 776.3680200175993 3912.02 776.3453368808368 3890.66 776.3465392709672 3869.3 776.3609674251002 3847.94 776.5119637903555 3826.58 778.9439765467624 3805.2200000000003 785.3332769215773 3783.86 785.3813296257167 3762.5 786.9316254516905 3741.14 788.064069053389 3719.7799999999997 789.5346539181728 3698.42 789.7270984819011 3677.06 789.5483223673614 3655.7 789.1007508003959 3634.34 788.5260313684701 3612.98 788.0511809237687 3591.62 787.8975793566815 3570.26 787.8180633391596 3548.9 787.5170102748218 3527.54 787.618537873506 3506.18 787.2996583717713 3484.82 786.777616251223 3463.46 786.3066035792257 3442.1 786.3287091523742 3420.74 786.0536469934276 3399.38 785.8291015970201 3378.02 785.589340317034 3356.66 786.2302623228909 3335.3 786.623186471336 3313.94 786.2571077613804 3292.58 786.2561836526764 3271.22 786.2162102486243 3249.86 786.0771147493706 3228.5 785.8224653785537 3228.5 1038Z" fill="#e62d39" opacity="0.9" />
		</g>
		<g>
			<path d="M3228.5 785.8224653785537 3249.86 786.0771147493706 3271.22 786.2162102486243 3292.58 786.2561836526764 3313.94 786.2571077613804 3335.3 786.623186471336 3356.66 786.2302623228909 3378.02 785.589340317034 3399.38 785.8291015970201 3420.74 786.0536469934276 3442.1 786.3287091523742 3463.46 786.3066035792257 3484.82 786.777616251223 3506.18 787.2996583717713 3527.54 787.618537873506 3548.9 787.5170102748218 3570.26 787.8180633391596 3591.62 787.8975793566815 3612.98 788.0511809237687 3634.34 788.5260313684701 3655.7 789.1007508003959 3677.06 789.5483223673614 3698.42 789.7270984819011 3719.7799999999997 789.5346539181728 3741.14 788.064069053389 3762.5 786.9316254516905 3783.86 785.3813296257167 3805.2200000000003 785.3332769215773 3826.58 778.9439765467624 3847.94 776.5119637903555 3869.3 776.3609674251002 3890.66 776.3465392709672 3912.02 776.3453368808368 3933.38 776.3680200175993 3954.74 774.0176159604634 3976.1 773.0047654751563 3997.46 772.995900100849 4018.8199999999997 771.7976640891548 4040.18 768.908358113137 4061.54 767.9192079463141 4082.9 766.8567475951404 4104.26 766.8609306167309 4125.62 764.4897401031296 4146.98 764.3547678374432 4168.34 764.3768419479462 4189.7 764.3156850172985 4211.0599999999995 759.380873288005 4232.42 757.9113031477688 4253.78 760.0049069239963 4275.139999999999 753.5875510114441 4296.5 751.761881610288 4296.5 529.7274153021705 4275.139999999999 530.163015188101 4253.78 532.2645239373791 4232.42 531.3268574465264 4211.0599999999995 531.4166307781715 4189.7 531.7572224646864 4168.34 531.7708483166984 4146.98 531.8218985108718 4125.62 531.9849023445704 4104.26 531.7935729648713 4082.9 531.7864321784326 4061.54 531.5727707842481 4040.18 531.4390936505183 4018.8199999999997 532.2027211748189 3997.46 532.4711028871407 3976.1 532.4751666451237 3954.74 532.6424401194076 3933.38 532.3819588718641 3912.02 532.3762321494829 3890.66 532.3835012006392 3869.3 532.4008414612442 3847.94 531.9653947132791 3826.58 532.7065148297092 3805.2200000000003 534.1646402996798 3783.86 534.1813437994358 3762.5 534.0614406876781 3741.14 533.9651928337187 3719.7799999999997 533.7866116772315 3698.42 533.5868149898097 3677.06 533.4688532767087 3655.7 533.0768238550941 3634.34 532.663421242623 3612.98 532.2348192575948 3591.62 532.1820957819215 3570.26 532.3681470809754 3548.9 532.5201668090683 3527.54 532.4238251729188 3506.18 532.3835949473919 3484.82 531.9915975411402 3463.46 531.7252849940928 3442.1 531.7204662326122 3420.74 531.6284996533559 3399.38 531.5339960022333 3378.02 531.0725093725605 3356.66 531.2499409458121 3335.3 531.650700660379 3313.94 531.7063634722977 3292.58 531.7405716149474 3271.22 531.5084515547419 3249.86 531.1868422316874 3228.5 530.9096071067933 3228.5 785.8224653785537Z" fill="#005aa6" opacity="0.9" />
		</g>
		<g>
			<path d="M3228.5 530.9096071067933 3249.86 531.1868422316874 3271.22 531.5084515547419 3292.58 531.7405716149474 3313.94 531.7063634722977 3335.3 531.650700660379 3356.66 531.2499409458121 3378.02 531.0725093725605 3399.38 531.5339960022333 3420.74 531.6284996533559 3442.1 531.7204662326122 3463.46 531.7252849940928 3484.82 531.9915975411402 3506.18 532.3835949473919 3527.54 532.4238251729188 3548.9 532.5201668090683 3570.26 532.3681470809754 3591.62 532.1820957819215 3612.98 532.2348192575948 3634.34 532.663421242623 3655.7 533.0768238550941 3677.06 533.4688532767087 3698.42 533.5868149898097 3719.7799999999997 533.7866116772315 3741.14 533.9651928337187 3762.5 534.0614406876781 3783.86 534.1813437994358 3805.2200000000003 534.1646402996798 3826.58 532.7065148297092 3847.94 531.9653947132791 3869.3 532.4008414612442 3890.66 532.3835012006392 3912.02 532.3762321494829 3933.38 532.3819588718641 3954.74 532.6424401194076 3976.1 532.4751666451237 3997.46 532.4711028871407 4018.8199999999997 532.2027211748189 4040.18 531.4390936505183 4061.54 531.5727707842481 4082.9 531.7864321784326 4104.26 531.7935729648713 4125.62 531.9849023445704 4146.98 531.8218985108718 4168.34 531.7708483166984 4189.7 531.7572224646864 4211.0599999999995 531.4166307781715 4232.42 531.3268574465264 4253.78 532.2645239373791 4275.139999999999 530.163015188101 4296.5 529.7274153021705 4296.5 490.3851968973204 4275.139999999999 490.7185530259544 4253.78 492.30515321923616 4232.42 491.64116500384506 4211.0599999999995 491.78456573649515 4189.7 491.92955522350275 4168.34 491.93920435370626 4146.98 491.9768227136466 4125.62 492.1505952348429 4104.26 491.85600669794854 4082.9 491.8513930148632 4061.54 491.63219577145946 4040.18 491.4978977886208 4018.8199999999997 491.99009410225506 3997.46 492.16551794945576 3976.1 492.1686259707535 3954.74 492.21654806017045 3933.38 491.7116461371828 3912.02 491.70767780671554 3890.66 491.71346164432515 3869.3 491.7282826494978 3847.94 491.33050875804906 3826.58 491.76141449343754 3805.2200000000003 492.74242973299926 3783.86 492.75457857238825 3762.5 492.5918650008465 3741.14 492.35892132336346 3719.7799999999997 492.0889325160488 3698.42 491.69189364771574 3677.06 491.3732427741912 3655.7 490.8088740577118 3634.34 490.31149608874114 3612.98 489.77877115088484 3591.62 489.5616092932336 3570.26 489.5397849514939 3548.9 489.5595335703314 3527.54 489.2933239946325 3506.18 489.0834397469836 3484.82 488.66304187283265 3463.46 488.3428044802121 3442.1 488.19986039125524 3420.74 488.0196039547259 3399.38 487.9026766907719 3378.02 487.52222153261044 3356.66 487.70696592491663 3335.3 488.0115104957247 3313.94 487.963793616364 3292.58 487.98949737367803 3271.22 487.70292525839443 3249.86 487.3692026626984 3228.5 487.1072160964907 3228.5 530.9096071067933Z" fill="#55c0e9" opacity="0.9" />
		</g>
		<g>
			<path d="M3228.5 487.1072160964907 3249.86 487.3692026626984 3271.22 487.70292525839443 3292.58 487.98949737367803 3313.94 487.963793616364 3335.3 488.0115104957247 3356.66 487.70696592491663 3378.02 487.52222153261044 3399.38 487.9026766907719 3420.74 488.0196039547259 3442.1 488.19986039125524 3463.46 488.3428044802121 3484.82 488.66304187283265 3506.18 489.0834397469836 3527.54 489.2933239946325 3548.9 489.5595335703314 3570.26 489.5397849514939 3591.62 489.5616092932336 3612.98 489.77877115088484 3634.34 490.31149608874114 3655.7 490.8088740577118 3677.06 491.3732427741912 3698.42 491.69189364771574 3719.7799999999997 492.0889325160488 3741.14 492.35892132336346 3762.5 492.5918650008465 3783.86 492.75457857238825 3805.2200000000003 492.74242973299926 3826.58 491.76141449343754 3847.94 491.33050875804906 3869.3 491.7282826494978 3890.66 491.71346164432515 3912.02 491.70767780671554 3933.38 491.7116461371828 3954.74 492.21654806017045 3976.1 492.1686259707535 3997.46 492.16551794945576 4018.8199999999997 491.99009410225506 4040.18 491.4978977886208 4061.54 491.63219577145946 4082.9 491.8513930148632 4104.26 491.85600669794854 4125.62 492.1505952348429 4146.98 491.9768227136466 4168.34 491.93920435370626 4189.7 491.92955522350275 4211.0599999999995 491.78456573649515 4232.42 491.64116500384506 4253.78 492.30515321923616 4275.139999999999 490.7185530259544 4296.5 490.3851968973204 4296.5 479.0999411202481 4275.139999999999 479.4072866140748 4253.78 480.96640637284213 4232.42 480.2698842349475 4211.0599999999995 480.4907637351383 4189.7 480.4086170616429 4168.34 480.41676419469263 4146.98 480.45029730465194 4125.62 480.6272134139708 4104.26 480.40305013594224 4082.9 480.39917600110454 4061.54 480.2978208961403 4040.18 480.1378211447884 4018.8199999999997 480.4875119170523 3997.46 480.62062646338103 3976.1 480.623498410782 3954.74 480.6254558284506 3933.38 479.9434244465183 3912.02 479.939862628262 3890.66 479.94505960714844 3869.3 479.95902615881243 3847.94 479.5505692873087 3826.58 479.86304908787844 3805.2200000000003 480.59388216933854 3783.86 480.6043736648512 3762.5 480.3867647714376 3741.14 480.0939647438401 3719.7799999999997 479.7308663765565 3698.42 479.2808407307956 3677.06 478.9041807209399 3655.7 478.2910364979862 3634.34 477.7828333755948 3612.98 477.2431626623622 3591.62 476.9834739801712 3570.26 476.8973696844754 3548.9 476.8748020982269 3527.54 476.5669923893315 3506.18 476.3174497919625 3484.82 475.8998014736065 3463.46 475.5839065563437 3442.1 475.4761084872438 3420.74 475.3862262172437 3399.38 475.3370518496447 3378.02 475.01380165868795 3356.66 475.19871497996326 3335.3 475.4695361222137 3313.94 475.3984900629857 3292.58 475.42158037858417 3271.22 475.17281446854633 3249.86 474.89392113663916 3228.5 474.6976120214668 3228.5 487.1072160964907Z" fill="#f6a118" opacity="0.9" />
		</g>
		<g>
			<path d="M3228.5 474.6976120214668 3249.86 474.89392113663916 3271.22 475.17281446854633 3292.58 475.42158037858417 3313.94 475.3984900629857 3335.3 475.4695361222137 3356.66 475.19871497996326 3378.02 475.01380165868795 3399.38 475.3370518496447 3420.74 475.3862262172437 3442.1 475.4761084872438 3463.46 475.5839065563437 3484.82 475.8998014736065 3506.18 476.3174497919625 3527.54 476.5669923893315 3548.9 476.8748020982269 3570.26 476.8973696844754 3591.62 476.9834739801712 3612.98 477.2431626623622 3634.34 477.7828333755948 3655.7 478.2910364979862 3677.06 478.9041807209399 3698.42 479.2808407307956 3719.7799999999997 479.7308663765565 3741.14 480.0939647438401 3762.5 480.3867647714376 3783.86 480.6043736648512 3805.2200000000003 480.59388216933854 3826.58 479.86304908787844 3847.94 479.5505692873087 3869.3 479.95902615881243 3890.66 479.94505960714844 3912.02 479.939862628262 3933.38 479.9434244465183 3954.74 480.6254558284506 3976.1 480.623498410782 3997.46 480.62062646338103 4018.8199999999997 480.4875119170523 4040.18 480.1378211447884 4061.54 480.2978208961403 4082.9 480.39917600110454 4104.26 480.40305013594224 4125.62 480.6272134139708 4146.98 480.45029730465194 4168.34 480.41676419469263 4189.7 480.4086170616429 4211.0599999999995 480.4907637351383 4232.42 480.2698842349475 4253.78 480.96640637284213 4275.139999999999 479.4072866140748 4296.5 479.0999411202481 4296.5 474.8469015951653 4275.139999999999 475.13902259765536 4253.78 476.6264014136676 4232.42 475.9675036747879 4211.0599999999995 476.1855240028958 4189.7 476.0304088632991 4168.34 476.03986709155856 4146.98 476.07416075277575 4125.62 476.25220661385714 4104.26 475.9804259287693 4082.9 475.9771097573116 4061.54 475.85734943037994 4040.18 475.67113203039463 4018.8199999999997 475.9445091636468 3997.46 476.0428252544268 3976.1 476.0456947164946 3954.74 476.0126442187972 3933.38 475.2164345015217 3912.02 475.2129700329708 3890.66 475.2181577191099 3869.3 475.2322484984899 3847.94 474.81810616673476 3826.58 475.10657399076854 3805.2200000000003 475.80132801818854 3783.86 475.81236587515644 3762.5 475.5856075858726 3741.14 475.27426702627764 3719.7799999999997 474.8948962586183 3698.42 474.4350271056565 3677.06 474.05181534663 3655.7 473.42902823737313 3634.34 472.9107308902232 3612.98 472.36696232860294 3591.62 472.1032861179079 3570.26 472.0144834613813 3548.9 471.9842446739753 3527.54 471.6750167092698 3506.18 471.4189705364595 3484.82 471.014308300106 3463.46 470.70930139261014 3442.1 470.6068920841123 3420.74 470.536768979531 3399.38 470.512126738405 3378.02 470.2333783951094 3356.66 470.4295066297548 3335.3 470.71094768423825 3313.94 470.68875235151756 3292.58 470.711078323044 3271.22 470.4984896905413 3249.86 470.2545246926675 3228.5 470.08674988315875 3228.5 474.6976120214668Z" fill="#fdd5a4" opacity="0.9" />
		</g>
		<g>
			<path d="M3228.5 470.08674988315875 3249.86 470.2545246926675 3271.22 470.4984896905413 3292.58 470.711078323044 3313.94 470.68875235151756 3335.3 470.71094768423825 3356.66 470.4295066297548 3378.02 470.2333783951094 3399.38 470.512126738405 3420.74 470.536768979531 3442.1 470.6068920841123 3463.46 470.70930139261014 3484.82 471.014308300106 3506.18 471.4189705364595 3527.54 471.6750167092698 3548.9 471.9842446739753 3570.26 472.0144834613813 3591.62 472.1032861179079 3612.98 472.36696232860294 3634.34 472.9107308902232 3655.7 473.42902823737313 3677.06 474.05181534663 3698.42 474.4350271056565 3719.7799999999997 474.8948962586183 3741.14 475.27426702627764 3762.5 475.5856075858726 3783.86 475.81236587515644 3805.2200000000003 475.80132801818854 3826.58 475.10657399076854 3847.94 474.81810616673476 3869.3 475.2322484984899 3890.66 475.2181577191099 3912.02 475.2129700329708 3933.38 475.2164345015217 3954.74 476.0126442187972 3976.1 476.0456947164946 3997.46 476.0428252544268 4018.8199999999997 475.9445091636468 4040.18 475.67113203039463 4061.54 475.85734943037994 4082.9 475.9771097573116 4104.26 475.9804259287693 4125.62 476.25220661385714 4146.98 476.07416075277575 4168.34 476.03986709155856 4189.7 476.0304088632991 4211.0599999999995 476.1855240028958 4232.42 475.9675036747879 4253.78 476.6264014136676 4275.139999999999 475.13902259765536 4296.5 474.8469015951653 4296.5 471.84385861501005 4275.139999999999 472.0370495671892 4253.78 473.4135261402591 4232.42 472.6948042788454 4211.0599999999995 472.8722901716775 4189.7 472.3229333883161 4168.34 472.33160122478233 4146.98 472.3663150934169 4125.62 472.5454339613937 4104.26 472.089365302357 4082.9 472.0865469044695 4061.54 471.87656051033446 4040.18 471.6164928135846 4018.8199999999997 471.7330711807051 3997.46 471.76332000605703 3976.1 471.766218855925 3954.74 471.666704132637 3933.38 470.5946289838734 3912.02 470.5925960519466 3890.66 470.5979497527046 3869.3 470.6143953187705 3847.94 470.16763283113994 3826.58 470.4164498778376 3805.2200000000003 471.0661628206815 3783.86 471.07731696753683 3762.5 470.8209639445631 3741.14 470.4605146316375 3719.7799999999997 469.9795822434353 3698.42 469.45753010676304 3677.06 469.00707612997155 3655.7 468.3152661342126 3634.34 467.73514405195505 3612.98 467.13787830023045 3591.62 466.8018186815908 3570.26 466.6374618686549 3548.9 466.54215183048984 3527.54 466.2228711653022 3506.18 465.9001213956365 3484.82 465.4390074188502 3463.46 465.07678566777196 3442.1 464.9033783038482 3420.74 464.78158180585166 3399.38 464.7260968061159 3378.02 464.4723890087735 3356.66 464.6844034193931 3335.3 464.9715947829818 3313.94 464.9499237655363 3292.58 464.9713870250645 3271.22 464.7567393127636 3249.86 464.5132259653092 3228.5 464.3461599383073 3228.5 470.08674988315875Z" fill="#f48c7d" opacity="0.9" />
		</g>
		<g>
			<path d="M3228.5 464.3461599383073 3249.86 464.5132259653092 3271.22 464.7567393127636 3292.58 464.9713870250645 3313.94 464.9499237655363 3335.3 464.9715947829818 3356.66 464.6844034193931 3378.02 464.4723890087735 3399.38 464.7260968061159 3420.74 464.78158180585166 3442.1 464.9033783038482 3463.46 465.07678566777196 3484.82 465.4390074188502 3506.18 465.9001213956365 3527.54 466.2228711653022 3548.9 466.54215183048984 3570.26 466.6374618686549 3591.62 466.8018186815908 3612.98 467.13787830023045 3634.34 467.73514405195505 3655.7 468.3152661342126 3677.06 469.00707612997155 3698.42 469.45753010676304 3719.7799999999997 469.9795822434353 3741.14 470.4605146316375 3762.5 470.8209639445631 3783.86 471.07731696753683 3805.2200000000003 471.0661628206815 3826.58 470.4164498778376 3847.94 470.16763283113994 3869.3 470.6143953187705 3890.66 470.5979497527046 3912.02 470.5925960519466 3933.38 470.5946289838734 3954.74 471.666704132637 3976.1 471.766218855925 3997.46 471.76332000605703 4018.8199999999997 471.7330711807051 4040.18 471.6164928135846 4061.54 471.87656051033446 4082.9 472.0865469044695 4104.26 472.089365302357 4125.62 472.5454339613937 4146.98 472.3663150934169 4168.34 472.33160122478233 4189.7 472.3229333883161 4211.0599999999995 472.8722901716775 4232.42 472.6948042788454 4253.78 473.4135261402591 4275.139999999999 472.0370495671892 4296.5 471.84385861501005 4296.5 397.99999999999994 4275.139999999999 398 4253.78 398 4232.42 397.99999999999994 4211.0599999999995 397.9999999999999 4189.7 398 4168.34 398 4146.98 398 4125.62 398.0000000000001 4104.26 398 4082.9 398 4061.54 398.0000000000002 4040.18 397.99999999999994 4018.8199999999997 398 3997.46 398.0000000000001 3976.1 398 3954.74 398.00000000000006 3933.38 398.00000000000006 3912.02 397.99999999999994 3890.66 398.00000000000017 3869.3 398 3847.94 398.00000000000017 3826.58 397.9999999999999 3805.2200000000003 397.9999999999999 3783.86 398.0000000000001 3762.5 397.9999999999999 3741.14 398 3719.7799999999997 397.9999999999999 3698.42 397.9999999999999 3677.06 398 3655.7 397.9999999999999 3634.34 398.0000000000001 3612.98 397.99999999999994 3591.62 398.0000000000001 3570.26 398.0000000000001 3548.9 398.0000000000001 3527.54 398.0000000000001 3506.18 398 3484.82 398.00000000000006 3463.46 398 3442.1 398 3420.74 397.9999999999999 3399.38 397.9999999999999 3378.02 398 3356.66 398 3335.3 398 3313.94 398 3292.58 398.0000000000001 3271.22 397.99999999999983 3249.86 397.9999999999999 3228.5 398.00000000000006 3228.5 464.3461599383073Z" fill="#393d41" opacity="0.9" />
		</g>
		<g>
			<rect x="4372" y="431" width="22.9995" height="23" fill="#e62d39" />
		</g>
		<g>
			<text fill="#595959" font-family="Verdana,Open Sans,DejaVu Sans,sans-serif" font-weight="400" font-size="41" transform="matrix(1 0 0 1 4404.56 454)">Android</text>
		</g>
		<g>
			<rect x="4372" y="508" width="22.9995" height="23" fill="#005aa6" />
		</g>
		<g>
			<text fill="#595959" font-family="Verdana,Open Sans,DejaVu Sans,sans-serif" font-weight="400" font-size="41" transform="matrix(1 0 0 1 4404.56 531)">iOS</text>
		</g>
		<g>
			<rect x="4372" y="585" width="22.9995" height="23" fill="#55c0e9" />
		</g>
		<g>
			<text fill="#595959" font-family="Verdana,Open Sans,DejaVu Sans,sans-serif" font-weight="400" font-size="41" transform="matrix(1 0 0 1 4404.56 608)">Windows</text>
		</g>
		<g>
			<rect x="4372" y="662" width="22.9995" height="23" fill="#f6a118" />
		</g>
		<g>
			<text fill="#595959" font-family="Verdana,Open Sans,DejaVu Sans,sans-serif" font-weight="400" font-size="41" transform="matrix(1 0 0 1 4404.56 685)">macOS</text>
		</g>
		<g>
			<rect x="4372" y="739" width="22.9995" height="23" fill="#fdd5a4" />
		</g>
		<g>
			<text fill="#595959" font-family="Verdana,Open Sans,DejaVu Sans,sans-serif" font-weight="400" font-size="41" transform="matrix(1 0 0 1 4404.56 762)">Linux</text>
		</g>
		<g>
			<rect x="4372" y="816" width="22.9995" height="23" fill="#f48c7d" />
		</g>
		<g>
			<text fill="#595959" font-family="Verdana,Open Sans,DejaVu Sans,sans-serif" font-weight="400" font-size="41" transform="matrix(1 0 0 1 4404.56 839)">Other</text>
		</g>
		<g>
			<rect x="4372" y="893" width="22.9995" height="23" fill="#393d41" />
		</g>
		<g>
			<text fill="#595959" font-family="Verdana,Open Sans,DejaVu Sans,sans-serif" font-weight="400" font-size="41" transform="matrix(1 0 0 1 4404.56 916)">Unclassified</text>
		</g>
	</g>
</svg>
