<svg width="1763" height="1046"
    xmlns="http://www.w3.org/2000/svg"
	xmlns:xlink="http://www.w3.org/1999/xlink" xml:space="preserve" overflow="hidden">
	<defs>
		<clipPath id="clip0">
			<rect x="2917" y="346" width="1763" height="1046"/>
		</clipPath>
	</defs>
	<g clip-path="url(#clip0)" transform="translate(-2917 -346)">
		<rect x="2918" y="347" width="1760" height="1043" fill="#FFFFFF" />
		<g>
			<path d="
			M3228.5 974.532 4296.5 974.532
			M3228.5 910.53 4296.5 910.53
			M3228.5 846.528 4296.5 846.528
			M3228.5 781.526 4296.5 781.526
			M3228.5 717.524 4296.5 717.524
			M3228.5 653.522 4296.5 653.522
			M3228.5 589.52 4296.5 589.52
			M3228.5 525.517 4296.5 525.517
			M3228.5 461.515 4296.5 461.515
			M3228.5 397.5 4296.5 397.5" stroke="#D9D9D9" stroke-width="3.4375" stroke-linejoin="round" stroke-miterlimit="10" fill="none" />
		</g>
		<g>
			<path d="M 1038.5 4296.5 1038.5" stroke="#D9D9D9" stroke-width="3.4375" stroke-linejoin="round" stroke-miterlimit="10" fill="none" fill-rule="evenodd" />
		</g>
		<g>
			<text fill="#595959" font-family="Verdana,Open Sans,DejaVu Sans,sans-serif" font-weight="400" font-size="41" transform="matrix(6.12323e-17 -1 1 6.12323e-17 3247.21826171875 1194.0131759643555)">09-Jun</text>
		</g>
		<g>
			<text fill="#595959" font-family="Verdana,Open Sans,DejaVu Sans,sans-serif" font-weight="400" font-size="41" transform="matrix(6.12323e-17 -1 1 6.12323e-17 3331.693660960478 1178.9985275268555)">07-Jul</text>
		</g>
		<g>
			<text fill="#595959" font-family="Verdana,Open Sans,DejaVu Sans,sans-serif" font-weight="400" font-size="41" transform="matrix(6.12323e-17 -1 1 6.12323e-17 3415.818718405331 1208.62744140625)">04-Aug</text>
		</g>
		<g>
			<text fill="#595959" font-family="Verdana,Open Sans,DejaVu Sans,sans-serif" font-weight="400" font-size="41" transform="matrix(6.12323e-17 -1 1 6.12323e-17 3499.583424287684 1204.38330078125)">01-Sep</text>
		</g>
		<g>
			<text fill="#595959" font-family="Verdana,Open Sans,DejaVu Sans,sans-serif" font-weight="400" font-size="41" transform="matrix(6.12323e-17 -1 1 6.12323e-17 3583.3281106387867 1204.42333984375)">29-Sep</text>
		</g>
		<g>
			<text fill="#595959" font-family="Verdana,Open Sans,DejaVu Sans,sans-serif" font-weight="400" font-size="41" transform="matrix(6.12323e-17 -1 1 6.12323e-17 3662.38822667739 1201.1401290893555)">27-Oct</text>
		</g>
		<g>
			<text fill="#595959" font-family="Verdana,Open Sans,DejaVu Sans,sans-serif" font-weight="400" font-size="41" transform="matrix(6.12323e-17 -1 1 6.12323e-17 3746.1329130284926 1211.47021484375)">24-Nov</text>
		</g>
		<g>
			<text fill="#595959" font-family="Verdana,Open Sans,DejaVu Sans,sans-serif" font-weight="400" font-size="41" transform="matrix(6.12323e-17 -1 1 6.12323e-17 3829.8976189108457 1207.1259765625)">22-Dec</text>
		</g>
		<g>
			<text fill="#595959" font-family="Verdana,Open Sans,DejaVu Sans,sans-serif" font-weight="400" font-size="41" transform="matrix(6.12323e-17 -1 1 6.12323e-17 3917.3158892463234 1189.9291915893555)">19-Jan</text>
		</g>
		<g>
			<text fill="#595959" font-family="Verdana,Open Sans,DejaVu Sans,sans-serif" font-weight="400" font-size="41" transform="matrix(6.12323e-17 -1 1 6.12323e-17 3998.1577435661766 1201.3203125)">16-Feb</text>
		</g>
		<g>
			<text fill="#595959" font-family="Verdana,Open Sans,DejaVu Sans,sans-serif" font-weight="400" font-size="41" transform="matrix(6.12323e-17 -1 1 6.12323e-17 4081.1917365579043 1210.2890625)">16-Mar</text>
		</g>
		<g>
			<text fill="#595959" font-family="Verdana,Open Sans,DejaVu Sans,sans-serif" font-weight="400" font-size="41" transform="matrix(6.12323e-17 -1 1 6.12323e-17 4169.681051815257 1201.5405197143555)">13-Apr</text>
		</g>
		<g>
			<text fill="#595959" font-family="Verdana,Open Sans,DejaVu Sans,sans-serif" font-weight="400" font-size="41" transform="matrix(6.12323e-17 -1 1 6.12323e-17 4253.235552619485 1214.75341796875)">11-May</text>
		</g>
		<g>
			<text fill="#595959" font-family="Verdana,Open Sans,DejaVu Sans,sans-serif" font-weight="400" font-size="41" transform="matrix(1 0 0 1 3135.4482421875 1050)">0%</text>
		</g>
		<g>
			<text fill="#595959" font-family="Verdana,Open Sans,DejaVu Sans,sans-serif" font-weight="400" font-size="41" transform="matrix(1 0 0 1 3111.96533203125 922)">20%</text>
		</g>
		<g>
			<text fill="#595959" font-family="Verdana,Open Sans,DejaVu Sans,sans-serif" font-weight="400" font-size="41" transform="matrix(1 0 0 1 3110.82421875 794)">40%</text>
		</g>
		<g>
			<text fill="#595959" font-family="Verdana,Open Sans,DejaVu Sans,sans-serif" font-weight="400" font-size="41" transform="matrix(1 0 0 1 3112.3056640625 666)">60%</text>
		</g>
		<g>
			<text fill="#595959" font-family="Verdana,Open Sans,DejaVu Sans,sans-serif" font-weight="400" font-size="41" transform="matrix(1 0 0 1 3112.04541015625 538)">80%</text>
		</g>
		<g>
			<text fill="#595959" font-family="Verdana,Open Sans,DejaVu Sans,sans-serif" font-weight="400" font-size="41" transform="matrix(1 0 0 1 3090.2841796875 410)">100%</text>
		</g>
		<g>
			<text fill="#595959" font-family="Verdana,Open Sans,DejaVu Sans,sans-serif" font-weight="400" font-size="41" transform="matrix(1 0 0 1 3556.97119140625 1321)">Week Commencing</text>
		</g>
		<g>
			<text fill="#595959" font-family="Verdana,Open Sans,DejaVu Sans,sans-serif" font-weight="400" font-size="46" transform="matrix(6.12323e-17 -1 1 6.12323e-17 3019.73 936.7665710449219)">Requests (% of Total)</text>
		</g>
		<rect x="2918.5" y="347.5" width="1760" height="1043" stroke="#D9D9D9" stroke-width="3.4375" stroke-linejoin="round" stroke-miterlimit="10" fill="none" />
		<g>
			<path d="M3228.5 1038 3249.4411764705883 1038 3270.3823529411766 1038 3291.323529411765 1038 3312.264705882353 1038 3333.205882352941 1038 3354.1470588235293 1038 3375.0882352941176 1038 3396.029411764706 1038 3416.970588235294 1038 3437.9117647058824 1038 3458.8529411764707 1038 3479.794117647059 1038 3500.735294117647 1038 3521.676470588235 1038 3542.6176470588234 1038 3563.5588235294117 1038 3584.5 1038 3605.4411764705883 1038 3626.3823529411766 1038 3647.323529411765 1038 3668.264705882353 1038 3689.205882352941 1038 3710.1470588235293 1038 3731.0882352941176 1038 3752.029411764706 1038 3772.970588235294 1038 3793.9117647058824 1038 3814.8529411764707 1038 3835.7941176470586 1038 3856.735294117647 1038 3877.676470588235 1038 3898.6176470588234 1038 3919.5588235294117 1038 3940.5 1038 3961.4411764705883 1038 3982.3823529411766 1038 4003.323529411765 1038 4024.264705882353 1038 4045.2058823529414 1038 4066.1470588235293 1038 4087.0882352941176 1038 4108.029411764706 1038 4128.970588235294 1038 4149.911764705882 1038 4170.85294117647 1038 4191.794117647059 1038 4212.735294117647 1038 4233.676470588235 1038 4254.617647058823 1038 4275.558823529412 1038 4296.5 1038 4296.5 754.7311760842077 4275.558823529412 754.7526261770736 4254.617647058823 754.7905253112169 4233.676470588235 753.5737063905224 4212.735294117647 752.5091044751014 4191.794117647059 751.1909604384529 4170.85294117647 749.859206747301 4149.911764705882 750.3443908538584 4128.970588235294 747.2654821077697 4108.029411764706 746.5194038317675 4087.0882352941176 745.8055486763521 4066.1470588235293 745.625269596429 4045.2058823529414 745.5837285424925 4024.264705882353 745.5518539372332 4003.323529411765 745.5916587614981 3982.3823529411766 745.6264248572595 3961.4411764705883 746.5726732254989 3940.5 746.8242705611495 3919.5588235294117 746.4260841443786 3898.6176470588234 746.1408324365968 3877.676470588235 746.1086007114674 3856.735294117647 746.7358843125422 3835.7941176470586 747.3561118905186 3814.8529411764707 749.7549747311173 3793.9117647058824 751.708180030847 3772.970588235294 751.761881610288 3752.029411764706 753.5875510114441 3731.0882352941176 760.0049069239963 3710.1470588235293 757.9113031477688 3689.205882352941 759.380873288005 3668.264705882353 764.3156850172985 3647.323529411765 764.3768419479462 3626.3823529411766 764.3547678374432 3605.4411764705883 764.4897401031296 3584.5 766.8609306167309 3563.5588235294117 766.8567475951404 3542.6176470588234 767.9192079463141 3521.676470588235 768.908358113137 3500.735294117647 771.7976640891548 3479.794117647059 772.995900100849 3458.8529411764707 773.0047654751563 3437.9117647058824 774.0176159604634 3416.970588235294 776.3680200175993 3396.029411764706 776.3453368808368 3375.0882352941176 776.3465392709672 3354.1470588235293 776.3609674251002 3333.205882352941 776.5119637903555 3312.264705882353 778.9439765467624 3291.323529411765 785.3332769215773 3270.3823529411766 785.3813296257167 3249.4411764705883 786.9316254516905 3228.5 788.064069053389 3228.5 1038Z" fill="#e62d39" opacity="0.9" />
		</g>
		<g>
			<path d="M3228.5 788.064069053389 3249.4411764705883 786.9316254516905 3270.3823529411766 785.3813296257167 3291.323529411765 785.3332769215773 3312.264705882353 778.9439765467624 3333.205882352941 776.5119637903555 3354.1470588235293 776.3609674251002 3375.0882352941176 776.3465392709672 3396.029411764706 776.3453368808368 3416.970588235294 776.3680200175993 3437.9117647058824 774.0176159604634 3458.8529411764707 773.0047654751563 3479.794117647059 772.995900100849 3500.735294117647 771.7976640891548 3521.676470588235 768.908358113137 3542.6176470588234 767.9192079463141 3563.5588235294117 766.8567475951404 3584.5 766.8609306167309 3605.4411764705883 764.4897401031296 3626.3823529411766 764.3547678374432 3647.323529411765 764.3768419479462 3668.264705882353 764.3156850172985 3689.205882352941 759.380873288005 3710.1470588235293 757.9113031477688 3731.0882352941176 760.0049069239963 3752.029411764706 753.5875510114441 3772.970588235294 751.761881610288 3793.9117647058824 751.708180030847 3814.8529411764707 749.7549747311173 3835.7941176470586 747.3561118905186 3856.735294117647 746.7358843125422 3877.676470588235 746.1086007114674 3898.6176470588234 746.1408324365968 3919.5588235294117 746.4260841443786 3940.5 746.8242705611495 3961.4411764705883 746.5726732254989 3982.3823529411766 745.6264248572595 4003.323529411765 745.5916587614981 4024.264705882353 745.5518539372332 4045.2058823529414 745.5837285424925 4066.1470588235293 745.625269596429 4087.0882352941176 745.8055486763521 4108.029411764706 746.5194038317675 4128.970588235294 747.2654821077697 4149.911764705882 750.3443908538584 4170.85294117647 749.859206747301 4191.794117647059 751.1909604384529 4212.735294117647 752.5091044751014 4233.676470588235 753.5737063905224 4254.617647058823 754.7905253112169 4275.558823529412 754.7526261770736 4296.5 754.7311760842077 4296.5 531.3085827178397 4275.558823529412 531.3031911324066 4254.617647058823 531.3007083398543 4233.676470588235 531.2896928062746 4212.735294117647 531.4874215112181 4191.794117647059 531.6206852488414 4170.85294117647 531.4824060530289 4149.911764705882 531.6690142595838 4128.970588235294 530.3351700422893 4108.029411764706 530.1079562333385 4087.0882352941176 529.767884481243 4066.1470588235293 529.5015251143122 4045.2058823529414 529.6072381711158 4024.264705882353 529.6759586106136 4003.323529411765 528.943616141882 3982.3823529411766 528.9256108228878 3961.4411764705883 529.7822561735807 3940.5 530.0318797750176 3919.5588235294117 529.5742385244796 3898.6176470588234 529.1641691809261 3877.676470588235 529.1689859268577 3856.735294117647 529.2185804117662 3835.7941176470586 529.5448927766422 3814.8529411764707 529.3666745800084 3793.9117647058824 529.7448004770854 3772.970588235294 529.7274153021705 3752.029411764706 530.163015188101 3731.0882352941176 532.2645239373791 3710.1470588235293 531.3268574465264 3689.205882352941 531.4166307781715 3668.264705882353 531.7572224646864 3647.323529411765 531.7708483166984 3626.3823529411766 531.8218985108718 3605.4411764705883 531.9849023445704 3584.5 531.7935729648713 3563.5588235294117 531.7864321784326 3542.6176470588234 531.5727707842481 3521.676470588235 531.4390936505183 3500.735294117647 532.2027211748189 3479.794117647059 532.4711028871407 3458.8529411764707 532.4751666451237 3437.9117647058824 532.6424401194076 3416.970588235294 532.3819588718641 3396.029411764706 532.3762321494829 3375.0882352941176 532.3835012006392 3354.1470588235293 532.4008414612442 3333.205882352941 531.9653947132791 3312.264705882353 532.7065148297092 3291.323529411765 534.1646402996798 3270.3823529411766 534.1813437994358 3249.4411764705883 534.0614406876781 3228.5 533.9651928337187 3228.5 788.064069053389Z" fill="#005aa6" opacity="0.9" />
		</g>
		<g>
			<path d="M3228.5 533.9651928337187 3249.4411764705883 534.0614406876781 3270.3823529411766 534.1813437994358 3291.323529411765 534.1646402996798 3312.264705882353 532.7065148297092 3333.205882352941 531.9653947132791 3354.1470588235293 532.4008414612442 3375.0882352941176 532.3835012006392 3396.029411764706 532.3762321494829 3416.970588235294 532.3819588718641 3437.9117647058824 532.6424401194076 3458.8529411764707 532.4751666451237 3479.794117647059 532.4711028871407 3500.735294117647 532.2027211748189 3521.676470588235 531.4390936505183 3542.6176470588234 531.5727707842481 3563.5588235294117 531.7864321784326 3584.5 531.7935729648713 3605.4411764705883 531.9849023445704 3626.3823529411766 531.8218985108718 3647.323529411765 531.7708483166984 3668.264705882353 531.7572224646864 3689.205882352941 531.4166307781715 3710.1470588235293 531.3268574465264 3731.0882352941176 532.2645239373791 3752.029411764706 530.163015188101 3772.970588235294 529.7274153021705 3793.9117647058824 529.7448004770854 3814.8529411764707 529.3666745800084 3835.7941176470586 529.5448927766422 3856.735294117647 529.2185804117662 3877.676470588235 529.1689859268577 3898.6176470588234 529.1641691809261 3919.5588235294117 529.5742385244796 3940.5 530.0318797750176 3961.4411764705883 529.7822561735807 3982.3823529411766 528.9256108228878 4003.323529411765 528.943616141882 4024.264705882353 529.6759586106136 4045.2058823529414 529.6072381711158 4066.1470588235293 529.5015251143122 4087.0882352941176 529.767884481243 4108.029411764706 530.1079562333385 4128.970588235294 530.3351700422893 4149.911764705882 531.6690142595838 4170.85294117647 531.4824060530289 4191.794117647059 531.6206852488414 4212.735294117647 531.4874215112181 4233.676470588235 531.2896928062746 4254.617647058823 531.3007083398543 4275.558823529412 531.3031911324066 4296.5 531.3085827178397 4296.5 486.2135396268373 4275.558823529412 486.20900192755903 4254.617647058823 486.20889715304327 4233.676470588235 486.6118670637434 4212.735294117647 487.2177518598812 4191.794117647059 487.710660836673 4170.85294117647 488.0571972463991 4149.911764705882 488.49331840138825 4128.970588235294 488.00156539342817 4108.029411764706 487.9037558495532 4087.0882352941176 487.95222090418406 4066.1470588235293 488.0992768689666 4045.2058823529414 488.4707685226323 4024.264705882353 488.81730930051134 4003.323529411765 489.66218659583717 3982.3823529411766 489.6497010215789 3961.4411764705883 489.62346831140377 3940.5 490.08709103844944 3919.5588235294117 489.8264670604297 3898.6176470588234 489.6030568350501 3877.676470588235 489.6027851684956 3856.735294117647 489.6838400376917 3835.7941176470586 490.1068496342023 3814.8529411764707 490.9492704753914 3793.9117647058824 490.39407239534404 3772.970588235294 490.3851968973204 3752.029411764706 490.7185530259544 3731.0882352941176 492.30515321923616 3710.1470588235293 491.64116500384506 3689.205882352941 491.78456573649515 3668.264705882353 491.92955522350275 3647.323529411765 491.93920435370626 3626.3823529411766 491.9768227136466 3605.4411764705883 492.1505952348429 3584.5 491.85600669794854 3563.5588235294117 491.8513930148632 3542.6176470588234 491.63219577145946 3521.676470588235 491.4978977886208 3500.735294117647 491.99009410225506 3479.794117647059 492.16551794945576 3458.8529411764707 492.1686259707535 3437.9117647058824 492.21654806017045 3416.970588235294 491.7116461371828 3396.029411764706 491.70767780671554 3375.0882352941176 491.71346164432515 3354.1470588235293 491.7282826494978 3333.205882352941 491.33050875804906 3312.264705882353 491.76141449343754 3291.323529411765 492.74242973299926 3270.3823529411766 492.75457857238825 3249.4411764705883 492.5918650008465 3228.5 492.35892132336346 3228.5 533.9651928337187Z" fill="#55c0e9" opacity="0.9" />
		</g>
		<g>
			<path d="M3228.5 492.35892132336346 3249.4411764705883 492.5918650008465 3270.3823529411766 492.75457857238825 3291.323529411765 492.74242973299926 3312.264705882353 491.76141449343754 3333.205882352941 491.33050875804906 3354.1470588235293 491.7282826494978 3375.0882352941176 491.71346164432515 3396.029411764706 491.70767780671554 3416.970588235294 491.7116461371828 3437.9117647058824 492.21654806017045 3458.8529411764707 492.1686259707535 3479.794117647059 492.16551794945576 3500.735294117647 491.99009410225506 3521.676470588235 491.4978977886208 3542.6176470588234 491.63219577145946 3563.5588235294117 491.8513930148632 3584.5 491.85600669794854 3605.4411764705883 492.1505952348429 3626.3823529411766 491.9768227136466 3647.323529411765 491.93920435370626 3668.264705882353 491.92955522350275 3689.205882352941 491.78456573649515 3710.1470588235293 491.64116500384506 3731.0882352941176 492.30515321923616 3752.029411764706 490.7185530259544 3772.970588235294 490.3851968973204 3793.9117647058824 490.39407239534404 3814.8529411764707 490.9492704753914 3835.7941176470586 490.1068496342023 3856.735294117647 489.6838400376917 3877.676470588235 489.6027851684956 3898.6176470588234 489.6030568350501 3919.5588235294117 489.8264670604297 3940.5 490.08709103844944 3961.4411764705883 489.62346831140377 3982.3823529411766 489.6497010215789 4003.323529411765 489.66218659583717 4024.264705882353 488.81730930051134 4045.2058823529414 488.4707685226323 4066.1470588235293 488.0992768689666 4087.0882352941176 487.95222090418406 4108.029411764706 487.9037558495532 4128.970588235294 488.00156539342817 4149.911764705882 488.49331840138825 4170.85294117647 488.0571972463991 4191.794117647059 487.710660836673 4212.735294117647 487.2177518598812 4233.676470588235 486.6118670637434 4254.617647058823 486.20889715304327 4275.558823529412 486.20900192755903 4296.5 486.2135396268373 4296.5 473.1679949783827 4275.558823529412 473.1633049593818 4254.617647058823 473.1639770238033 4233.676470588235 473.7464712888439 4212.735294117647 474.59777194801586 4191.794117647059 475.23714530807007 4170.85294117647 475.74598723167173 4149.911764705882 476.3034641007523 4128.970588235294 476.04032244458955 4108.029411764706 476.08864417534 4087.0882352941176 476.2563330555304 4066.1470588235293 476.501380298194 4045.2058823529414 476.9091078280443 4024.264705882353 477.3175055832355 4003.323529411765 478.10739716876634 3982.3823529411766 478.09661826532414 3961.4411764705883 478.15999289365544 3940.5 478.5827424221303 3919.5588235294117 478.38419566392514 3898.6176470588234 478.2713135439936 3877.676470588235 478.26942714386075 3856.735294117647 478.5099393463872 3835.7941176470586 478.7941392845137 3814.8529411764707 479.58006819193264 3793.9117647058824 479.10650501970053 3772.970588235294 479.0999411202481 3752.029411764706 479.4072866140748 3731.0882352941176 480.96640637284213 3710.1470588235293 480.2698842349475 3689.205882352941 480.4907637351383 3668.264705882353 480.4086170616429 3647.323529411765 480.41676419469263 3626.3823529411766 480.45029730465194 3605.4411764705883 480.6272134139708 3584.5 480.40305013594224 3563.5588235294117 480.39917600110454 3542.6176470588234 480.2978208961403 3521.676470588235 480.1378211447884 3500.735294117647 480.4875119170523 3479.794117647059 480.62062646338103 3458.8529411764707 480.623498410782 3437.9117647058824 480.6254558284506 3416.970588235294 479.9434244465183 3396.029411764706 479.939862628262 3375.0882352941176 479.94505960714844 3354.1470588235293 479.95902615881243 3333.205882352941 479.5505692873087 3312.264705882353 479.86304908787844 3291.323529411765 480.59388216933854 3270.3823529411766 480.6043736648512 3249.4411764705883 480.3867647714376 3228.5 480.0939647438401 3228.5 492.35892132336346Z" fill="#f6a118" opacity="0.9" />
		</g>
		<g>
			<path d="M3228.5 480.0939647438401 3249.4411764705883 480.3867647714376 3270.3823529411766 480.6043736648512 3291.323529411765 480.59388216933854 3312.264705882353 479.86304908787844 3333.205882352941 479.5505692873087 3354.1470588235293 479.95902615881243 3375.0882352941176 479.94505960714844 3396.029411764706 479.939862628262 3416.970588235294 479.9434244465183 3437.9117647058824 480.6254558284506 3458.8529411764707 480.623498410782 3479.794117647059 480.62062646338103 3500.735294117647 480.4875119170523 3521.676470588235 480.1378211447884 3542.6176470588234 480.2978208961403 3563.5588235294117 480.39917600110454 3584.5 480.40305013594224 3605.4411764705883 480.6272134139708 3626.3823529411766 480.45029730465194 3647.323529411765 480.41676419469263 3668.264705882353 480.4086170616429 3689.205882352941 480.4907637351383 3710.1470588235293 480.2698842349475 3731.0882352941176 480.96640637284213 3752.029411764706 479.4072866140748 3772.970588235294 479.0999411202481 3793.9117647058824 479.10650501970053 3814.8529411764707 479.58006819193264 3835.7941176470586 478.7941392845137 3856.735294117647 478.5099393463872 3877.676470588235 478.26942714386075 3898.6176470588234 478.2713135439936 3919.5588235294117 478.38419566392514 3940.5 478.5827424221303 3961.4411764705883 478.15999289365544 3982.3823529411766 478.09661826532414 4003.323529411765 478.10739716876634 4024.264705882353 477.3175055832355 4045.2058823529414 476.9091078280443 4066.1470588235293 476.501380298194 4087.0882352941176 476.2563330555304 4108.029411764706 476.08864417534 4128.970588235294 476.04032244458955 4149.911764705882 476.3034641007523 4170.85294117647 475.74598723167173 4191.794117647059 475.23714530807007 4212.735294117647 474.59777194801586 4233.676470588235 473.7464712888439 4254.617647058823 473.1639770238033 4275.558823529412 473.1633049593818 4296.5 473.1679949783827 4296.5 468.7183458533408 4275.558823529412 468.7095414206735 4254.617647058823 468.7093552829413 4233.676470588235 469.32209426095994 4212.735294117647 470.179152895614 4191.794117647059 470.83280416124353 4170.85294117647 471.35852133856207 4149.911764705882 471.9149927259896 4128.970588235294 471.6905736054739 4108.029411764706 471.763371221977 4087.0882352941176 471.9574850631018 4066.1470588235293 472.2340193606014 4045.2058823529414 472.6559547595341 4024.264705882353 473.0650745461115 4003.323529411765 473.82819172566997 3982.3823529411766 473.8181074091512 3961.4411764705883 473.8782116867164 3940.5 474.28062031125177 3919.5588235294117 474.09267029394687 3898.6176470588234 473.9897191134042 3877.676470588235 473.9871807138114 3856.735294117647 474.22541956826655 3835.7941176470586 474.511998002383 3814.8529411764707 475.27887736921514 3793.9117647058824 474.8518141039069 3772.970588235294 474.8469015951653 3752.029411764706 475.13902259765536 3731.0882352941176 476.6264014136676 3710.1470588235293 475.9675036747879 3689.205882352941 476.1855240028958 3668.264705882353 476.0304088632991 3647.323529411765 476.03986709155856 3626.3823529411766 476.07416075277575 3605.4411764705883 476.25220661385714 3584.5 475.9804259287693 3563.5588235294117 475.9771097573116 3542.6176470588234 475.85734943037994 3521.676470588235 475.67113203039463 3500.735294117647 475.9445091636468 3479.794117647059 476.0428252544268 3458.8529411764707 476.0456947164946 3437.9117647058824 476.0126442187972 3416.970588235294 475.2164345015217 3396.029411764706 475.2129700329708 3375.0882352941176 475.2181577191099 3354.1470588235293 475.2322484984899 3333.205882352941 474.81810616673476 3312.264705882353 475.10657399076854 3291.323529411765 475.80132801818854 3270.3823529411766 475.81236587515644 3249.4411764705883 475.5856075858726 3228.5 475.27426702627764 3228.5 480.0939647438401Z" fill="#fdd5a4" opacity="0.9" />
		</g>
		<g>
			<path d="M3228.5 475.27426702627764 3249.4411764705883 475.5856075858726 3270.3823529411766 475.81236587515644 3291.323529411765 475.80132801818854 3312.264705882353 475.10657399076854 3333.205882352941 474.81810616673476 3354.1470588235293 475.2322484984899 3375.0882352941176 475.2181577191099 3396.029411764706 475.2129700329708 3416.970588235294 475.2164345015217 3437.9117647058824 476.0126442187972 3458.8529411764707 476.0456947164946 3479.794117647059 476.0428252544268 3500.735294117647 475.9445091636468 3521.676470588235 475.67113203039463 3542.6176470588234 475.85734943037994 3563.5588235294117 475.9771097573116 3584.5 475.9804259287693 3605.4411764705883 476.25220661385714 3626.3823529411766 476.07416075277575 3647.323529411765 476.03986709155856 3668.264705882353 476.0304088632991 3689.205882352941 476.1855240028958 3710.1470588235293 475.9675036747879 3731.0882352941176 476.6264014136676 3752.029411764706 475.13902259765536 3772.970588235294 474.8469015951653 3793.9117647058824 474.8518141039069 3814.8529411764707 475.27887736921514 3835.7941176470586 474.511998002383 3856.735294117647 474.22541956826655 3877.676470588235 473.9871807138114 3898.6176470588234 473.9897191134042 3919.5588235294117 474.09267029394687 3940.5 474.28062031125177 3961.4411764705883 473.8782116867164 3982.3823529411766 473.8181074091512 4003.323529411765 473.82819172566997 4024.264705882353 473.0650745461115 4045.2058823529414 472.6559547595341 4066.1470588235293 472.2340193606014 4087.0882352941176 471.9574850631018 4108.029411764706 471.763371221977 4128.970588235294 471.6905736054739 4149.911764705882 471.9149927259896 4170.85294117647 471.35852133856207 4191.794117647059 470.83280416124353 4212.735294117647 470.179152895614 4233.676470588235 469.32209426095994 4254.617647058823 468.7093552829413 4275.558823529412 468.7095414206735 4296.5 468.7183458533408 4296.5 466.01617968617694 4275.558823529412 466.00219850652616 4254.617647058823 466.0003628505107 4233.676470588235 466.6138363140116 4212.735294117647 467.47119043546877 4191.794117647059 468.10966081469456 4170.85294117647 468.63278021070374 4149.911764705882 469.1859358213357 4128.970588235294 469.0039882230996 4108.029411764706 469.0649184884676 4087.0882352941176 469.272109525969 4066.1470588235293 469.56054940240006 4045.2058823529414 470.00314366447725 4024.264705882353 470.42216191971556 4003.323529411765 471.16063030075713 3982.3823529411766 471.15110050258926 3961.4411764705883 471.2005668211781 3940.5 471.56419721584615 3919.5588235294117 471.35961801945126 3898.6176470588234 471.1659266751794 3877.676470588235 471.15503597364875 3856.735294117647 471.36241611042175 3835.7941176470586 471.63391436910644 3814.8529411764707 472.3711663447606 3793.9117647058824 471.84780556889575 3772.970588235294 471.84385861501005 3752.029411764706 472.0370495671892 3731.0882352941176 473.4135261402591 3710.1470588235293 472.6948042788454 3689.205882352941 472.8722901716775 3668.264705882353 472.3229333883161 3647.323529411765 472.33160122478233 3626.3823529411766 472.3663150934169 3605.4411764705883 472.5454339613937 3584.5 472.089365302357 3563.5588235294117 472.0865469044695 3542.6176470588234 471.87656051033446 3521.676470588235 471.6164928135846 3500.735294117647 471.7330711807051 3479.794117647059 471.76332000605703 3458.8529411764707 471.766218855925 3437.9117647058824 471.666704132637 3416.970588235294 470.5946289838734 3396.029411764706 470.5925960519466 3375.0882352941176 470.5979497527046 3354.1470588235293 470.6143953187705 3333.205882352941 470.16763283113994 3312.264705882353 470.4164498778376 3291.323529411765 471.0661628206815 3270.3823529411766 471.07731696753683 3249.4411764705883 470.8209639445631 3228.5 470.4605146316375 3228.5 475.27426702627764Z" fill="#f48c7d" opacity="0.9" />
		</g>
		<g>
			<path d="M3228.5 470.4605146316375 3249.4411764705883 470.8209639445631 3270.3823529411766 471.07731696753683 3291.323529411765 471.0661628206815 3312.264705882353 470.4164498778376 3333.205882352941 470.16763283113994 3354.1470588235293 470.6143953187705 3375.0882352941176 470.5979497527046 3396.029411764706 470.5925960519466 3416.970588235294 470.5946289838734 3437.9117647058824 471.666704132637 3458.8529411764707 471.766218855925 3479.794117647059 471.76332000605703 3500.735294117647 471.7330711807051 3521.676470588235 471.6164928135846 3542.6176470588234 471.87656051033446 3563.5588235294117 472.0865469044695 3584.5 472.089365302357 3605.4411764705883 472.5454339613937 3626.3823529411766 472.3663150934169 3647.323529411765 472.33160122478233 3668.264705882353 472.3229333883161 3689.205882352941 472.8722901716775 3710.1470588235293 472.6948042788454 3731.0882352941176 473.4135261402591 3752.029411764706 472.0370495671892 3772.970588235294 471.84385861501005 3793.9117647058824 471.84780556889575 3814.8529411764707 472.3711663447606 3835.7941176470586 471.63391436910644 3856.735294117647 471.36241611042175 3877.676470588235 471.15503597364875 3898.6176470588234 471.1659266751794 3919.5588235294117 471.35961801945126 3940.5 471.56419721584615 3961.4411764705883 471.2005668211781 3982.3823529411766 471.15110050258926 4003.323529411765 471.16063030075713 4024.264705882353 470.42216191971556 4045.2058823529414 470.00314366447725 4066.1470588235293 469.56054940240006 4087.0882352941176 469.272109525969 4108.029411764706 469.0649184884676 4128.970588235294 469.0039882230996 4149.911764705882 469.1859358213357 4170.85294117647 468.63278021070374 4191.794117647059 468.10966081469456 4212.735294117647 467.47119043546877 4233.676470588235 466.6138363140116 4254.617647058823 466.0003628505107 4275.558823529412 466.00219850652616 4296.5 466.01617968617694 4296.5 398.0000000000001 4275.558823529412 397.99999999999994 4254.617647058823 398 4233.676470588235 397.9999999999999 4212.735294117647 398.00000000000006 4191.794117647059 398 4170.85294117647 398 4149.911764705882 398.00000000000006 4128.970588235294 398.00000000000006 4108.029411764706 397.9999999999999 4087.0882352941176 398.0000000000001 4066.1470588235293 397.9999999999999 4045.2058823529414 398 4024.264705882353 397.9999999999999 4003.323529411765 398.0000000000001 3982.3823529411766 398 3961.4411764705883 398.00000000000006 3940.5 397.9999999999999 3919.5588235294117 398 3898.6176470588234 398.00000000000017 3877.676470588235 398 3856.735294117647 398.00000000000006 3835.7941176470586 397.99999999999994 3814.8529411764707 398.00000000000006 3793.9117647058824 397.9999999999999 3772.970588235294 397.99999999999994 3752.029411764706 398 3731.0882352941176 398 3710.1470588235293 397.99999999999994 3689.205882352941 397.9999999999999 3668.264705882353 398 3647.323529411765 398 3626.3823529411766 398 3605.4411764705883 398.0000000000001 3584.5 398 3563.5588235294117 398 3542.6176470588234 398.0000000000002 3521.676470588235 397.99999999999994 3500.735294117647 398 3479.794117647059 398.0000000000001 3458.8529411764707 398 3437.9117647058824 398.00000000000006 3416.970588235294 398.00000000000006 3396.029411764706 397.99999999999994 3375.0882352941176 398.00000000000017 3354.1470588235293 398 3333.205882352941 398.00000000000017 3312.264705882353 397.9999999999999 3291.323529411765 397.9999999999999 3270.3823529411766 398.0000000000001 3249.4411764705883 397.9999999999999 3228.5 398 3228.5 470.4605146316375Z" fill="#393d41" opacity="0.9" />
		</g>
		<g>
			<rect x="4372" y="431" width="22.9995" height="23" fill="#e62d39" />
		</g>
		<g>
			<text fill="#595959" font-family="Verdana,Open Sans,DejaVu Sans,sans-serif" font-weight="400" font-size="41" transform="matrix(1 0 0 1 4404.56 454)">Android</text>
		</g>
		<g>
			<rect x="4372" y="508" width="22.9995" height="23" fill="#005aa6" />
		</g>
		<g>
			<text fill="#595959" font-family="Verdana,Open Sans,DejaVu Sans,sans-serif" font-weight="400" font-size="41" transform="matrix(1 0 0 1 4404.56 531)">iOS</text>
		</g>
		<g>
			<rect x="4372" y="585" width="22.9995" height="23" fill="#55c0e9" />
		</g>
		<g>
			<text fill="#595959" font-family="Verdana,Open Sans,DejaVu Sans,sans-serif" font-weight="400" font-size="41" transform="matrix(1 0 0 1 4404.56 608)">Windows</text>
		</g>
		<g>
			<rect x="4372" y="662" width="22.9995" height="23" fill="#f6a118" />
		</g>
		<g>
			<text fill="#595959" font-family="Verdana,Open Sans,DejaVu Sans,sans-serif" font-weight="400" font-size="41" transform="matrix(1 0 0 1 4404.56 685)">macOS</text>
		</g>
		<g>
			<rect x="4372" y="739" width="22.9995" height="23" fill="#fdd5a4" />
		</g>
		<g>
			<text fill="#595959" font-family="Verdana,Open Sans,DejaVu Sans,sans-serif" font-weight="400" font-size="41" transform="matrix(1 0 0 1 4404.56 762)">Linux</text>
		</g>
		<g>
			<rect x="4372" y="816" width="22.9995" height="23" fill="#f48c7d" />
		</g>
		<g>
			<text fill="#595959" font-family="Verdana,Open Sans,DejaVu Sans,sans-serif" font-weight="400" font-size="41" transform="matrix(1 0 0 1 4404.56 839)">Other</text>
		</g>
		<g>
			<rect x="4372" y="893" width="22.9995" height="23" fill="#393d41" />
		</g>
		<g>
			<text fill="#595959" font-family="Verdana,Open Sans,DejaVu Sans,sans-serif" font-weight="400" font-size="41" transform="matrix(1 0 0 1 4404.56 916)">Unclassified</text>
		</g>
	</g>
</svg>
