<svg width="1763" height="1046"
    xmlns="http://www.w3.org/2000/svg"
	xmlns:xlink="http://www.w3.org/1999/xlink" xml:space="preserve" overflow="hidden">
	<defs>
		<clipPath id="clip0">
			<rect x="2917" y="346" width="1763" height="1046"/>
		</clipPath>
	</defs>
	<g clip-path="url(#clip0)" transform="translate(-2917 -346)">
		<rect x="2918" y="347" width="1760" height="1043" fill="#FFFFFF" />
		<g>
			<path d="
			M3228.5 974.532 4296.5 974.532
			M3228.5 910.53 4296.5 910.53
			M3228.5 846.528 4296.5 846.528
			M3228.5 781.526 4296.5 781.526
			M3228.5 717.524 4296.5 717.524
			M3228.5 653.522 4296.5 653.522
			M3228.5 589.52 4296.5 589.52
			M3228.5 525.517 4296.5 525.517
			M3228.5 461.515 4296.5 461.515
			M3228.5 397.5 4296.5 397.5" stroke="#D9D9D9" stroke-width="3.4375" stroke-linejoin="round" stroke-miterlimit="10" fill="none" />
		</g>
		<g>
			<path d="M 1038.5 4296.5 1038.5" stroke="#D9D9D9" stroke-width="3.4375" stroke-linejoin="round" stroke-miterlimit="10" fill="none" fill-rule="evenodd" />
		</g>
		<g>
			<text fill="#595959" font-family="Verdana,Open Sans,DejaVu Sans,sans-serif" font-weight="400" font-size="41" transform="matrix(6.12323e-17 -1 1 6.12323e-17 3244.275390625 1203.08203125)">24-Feb</text>
		</g>
		<g>
			<text fill="#595959" font-family="Verdana,Open Sans,DejaVu Sans,sans-serif" font-weight="400" font-size="41" transform="matrix(6.12323e-17 -1 1 6.12323e-17 3327.309383616728 1212.05078125)">24-Mar</text>
		</g>
		<g>
			<text fill="#595959" font-family="Verdana,Open Sans,DejaVu Sans,sans-serif" font-weight="400" font-size="41" transform="matrix(6.12323e-17 -1 1 6.12323e-17 3415.798698874081 1203.3022384643555)">21-Apr</text>
		</g>
		<g>
			<text fill="#595959" font-family="Verdana,Open Sans,DejaVu Sans,sans-serif" font-weight="400" font-size="41" transform="matrix(6.12323e-17 -1 1 6.12323e-17 3499.563404756434 1214.75341796875)">19-May</text>
		</g>
		<g>
			<text fill="#595959" font-family="Verdana,Open Sans,DejaVu Sans,sans-serif" font-weight="400" font-size="41" transform="matrix(6.12323e-17 -1 1 6.12323e-17 3582.2570657169117 1194.0532150268555)">23-Jun</text>
		</g>
		<g>
			<text fill="#595959" font-family="Verdana,Open Sans,DejaVu Sans,sans-serif" font-weight="400" font-size="41" transform="matrix(6.12323e-17 -1 1 6.12323e-17 3666.75248448989 1179.0385665893555)">21-Jul</text>
		</g>
		<g>
			<text fill="#595959" font-family="Verdana,Open Sans,DejaVu Sans,sans-serif" font-weight="400" font-size="41" transform="matrix(6.12323e-17 -1 1 6.12323e-17 3750.8575224034926 1206.90576171875)">18-Aug</text>
		</g>
		<g>
			<text fill="#595959" font-family="Verdana,Open Sans,DejaVu Sans,sans-serif" font-weight="400" font-size="41" transform="matrix(6.12323e-17 -1 1 6.12323e-17 3834.6222282858457 1202.66162109375)">15-Sep</text>
		</g>
		<g>
			<text fill="#595959" font-family="Verdana,Open Sans,DejaVu Sans,sans-serif" font-weight="400" font-size="41" transform="matrix(6.12323e-17 -1 1 6.12323e-17 3913.6823443244484 1199.3784103393555)">13-Oct</text>
		</g>
		<g>
			<text fill="#595959" font-family="Verdana,Open Sans,DejaVu Sans,sans-serif" font-weight="400" font-size="41" transform="matrix(6.12323e-17 -1 1 6.12323e-17 3997.4470502068016 1209.70849609375)">10-Nov</text>
		</g>
		<g>
			<text fill="#595959" font-family="Verdana,Open Sans,DejaVu Sans,sans-serif" font-weight="400" font-size="41" transform="matrix(6.12323e-17 -1 1 6.12323e-17 4081.2117560891543 1207.0859375)">08-Dec</text>
		</g>
		<g>
			<text fill="#595959" font-family="Verdana,Open Sans,DejaVu Sans,sans-serif" font-weight="400" font-size="41" transform="matrix(6.12323e-17 -1 1 6.12323e-17 4168.630026424632 1191.6508712768555)">05-Jan</text>
		</g>
		<g>
			<text fill="#595959" font-family="Verdana,Open Sans,DejaVu Sans,sans-serif" font-weight="400" font-size="41" transform="matrix(6.12323e-17 -1 1 6.12323e-17 4249.451861213235 1203.0419921875)">02-Feb</text>
		</g>
		<g>
			<text fill="#595959" font-family="Verdana,Open Sans,DejaVu Sans,sans-serif" font-weight="400" font-size="41" transform="matrix(1 0 0 1 3135.4482421875 1050)">0%</text>
		</g>
		<g>
			<text fill="#595959" font-family="Verdana,Open Sans,DejaVu Sans,sans-serif" font-weight="400" font-size="41" transform="matrix(1 0 0 1 3111.96533203125 922)">20%</text>
		</g>
		<g>
			<text fill="#595959" font-family="Verdana,Open Sans,DejaVu Sans,sans-serif" font-weight="400" font-size="41" transform="matrix(1 0 0 1 3110.82421875 794)">40%</text>
		</g>
		<g>
			<text fill="#595959" font-family="Verdana,Open Sans,DejaVu Sans,sans-serif" font-weight="400" font-size="41" transform="matrix(1 0 0 1 3112.3056640625 666)">60%</text>
		</g>
		<g>
			<text fill="#595959" font-family="Verdana,Open Sans,DejaVu Sans,sans-serif" font-weight="400" font-size="41" transform="matrix(1 0 0 1 3112.04541015625 538)">80%</text>
		</g>
		<g>
			<text fill="#595959" font-family="Verdana,Open Sans,DejaVu Sans,sans-serif" font-weight="400" font-size="41" transform="matrix(1 0 0 1 3090.2841796875 410)">100%</text>
		</g>
		<g>
			<text fill="#595959" font-family="Verdana,Open Sans,DejaVu Sans,sans-serif" font-weight="400" font-size="41" transform="matrix(1 0 0 1 3556.97119140625 1321)">Week Commencing</text>
		</g>
		<g>
			<text fill="#595959" font-family="Verdana,Open Sans,DejaVu Sans,sans-serif" font-weight="400" font-size="46" transform="matrix(6.12323e-17 -1 1 6.12323e-17 3019.73 936.7665710449219)">Requests (% of Total)</text>
		</g>
		<rect x="2918.5" y="347.5" width="1760" height="1043" stroke="#D9D9D9" stroke-width="3.4375" stroke-linejoin="round" stroke-miterlimit="10" fill="none" />
		<g>
			<path d="M3228.5 1038 3249.4411764705883 1038 3270.3823529411766 1038 3291.323529411765 1038 3312.264705882353 1038 3333.205882352941 1038 3354.1470588235293 1038 3375.0882352941176 1038 3396.029411764706 1038 3416.970588235294 1038 3437.9117647058824 1038 3458.8529411764707 1038 3479.794117647059 1038 3500.735294117647 1038 3521.676470588235 1038 3542.6176470588234 1038 3563.5588235294117 1038 3584.5 1038 3605.4411764705883 1038 3626.3823529411766 1038 3647.323529411765 1038 3668.264705882353 1038 3689.205882352941 1038 3710.1470588235293 1038 3731.0882352941176 1038 3752.029411764706 1038 3772.970588235294 1038 3793.9117647058824 1038 3814.8529411764707 1038 3835.7941176470586 1038 3856.735294117647 1038 3877.676470588235 1038 3898.6176470588234 1038 3919.5588235294117 1038 3940.5 1038 3961.4411764705883 1038 3982.3823529411766 1038 4003.323529411765 1038 4024.264705882353 1038 4045.2058823529414 1038 4066.1470588235293 1038 4087.0882352941176 1038 4108.029411764706 1038 4128.970588235294 1038 4149.911764705882 1038 4170.85294117647 1038 4191.794117647059 1038 4212.735294117647 1038 4233.676470588235 1038 4254.617647058823 1038 4275.558823529412 1038 4296.5 1038 4296.5 745.5916587614981 4275.558823529412 745.6264248572595 4254.617647058823 746.5726732254989 4233.676470588235 746.8242705611495 4212.735294117647 746.4260841443786 4191.794117647059 746.1408324365968 4170.85294117647 746.1086007114674 4149.911764705882 746.7358843125422 4128.970588235294 747.3561118905186 4108.029411764706 749.7549747311173 4087.0882352941176 751.708180030847 4066.1470588235293 751.761881610288 4045.2058823529414 753.5875510114441 4024.264705882353 760.0049069239963 4003.323529411765 757.9113031477688 3982.3823529411766 759.380873288005 3961.4411764705883 764.3156850172985 3940.5 764.3768419479462 3919.5588235294117 764.3547678374432 3898.6176470588234 764.4897401031296 3877.676470588235 766.8609306167309 3856.735294117647 766.8567475951404 3835.7941176470586 767.9192079463141 3814.8529411764707 768.908358113137 3793.9117647058824 771.7976640891548 3772.970588235294 772.995900100849 3752.029411764706 773.0047654751563 3731.0882352941176 774.0176159604634 3710.1470588235293 776.3680200175993 3689.205882352941 776.3453368808368 3668.264705882353 776.3465392709672 3647.323529411765 776.3609674251002 3626.3823529411766 776.5119637903555 3605.4411764705883 778.9439765467624 3584.5 785.3332769215773 3563.5588235294117 785.3813296257167 3542.6176470588234 786.9316254516905 3521.676470588235 788.064069053389 3500.735294117647 789.5346539181728 3479.794117647059 789.7270984819011 3458.8529411764707 789.5483223673614 3437.9117647058824 789.1007508003959 3416.970588235294 788.5260313684701 3396.029411764706 788.0511809237687 3375.0882352941176 787.8975793566815 3354.1470588235293 787.8180633391596 3333.205882352941 787.5170102748218 3312.264705882353 787.618537873506 3291.323529411765 787.2996583717713 3270.3823529411766 786.777616251223 3249.4411764705883 786.3066035792257 3228.5 786.3287091523742 3228.5 1038Z" fill="#e62d39" opacity="0.9" />
		</g>
		<g>
			<path d="M3228.5 786.3287091523742 3249.4411764705883 786.3066035792257 3270.3823529411766 786.777616251223 3291.323529411765 787.2996583717713 3312.264705882353 787.618537873506 3333.205882352941 787.5170102748218 3354.1470588235293 787.8180633391596 3375.0882352941176 787.8975793566815 3396.029411764706 788.0511809237687 3416.970588235294 788.5260313684701 3437.9117647058824 789.1007508003959 3458.8529411764707 789.5483223673614 3479.794117647059 789.7270984819011 3500.735294117647 789.5346539181728 3521.676470588235 788.064069053389 3542.6176470588234 786.9316254516905 3563.5588235294117 785.3813296257167 3584.5 785.3332769215773 3605.4411764705883 778.9439765467624 3626.3823529411766 776.5119637903555 3647.323529411765 776.3609674251002 3668.264705882353 776.3465392709672 3689.205882352941 776.3453368808368 3710.1470588235293 776.3680200175993 3731.0882352941176 774.0176159604634 3752.029411764706 773.0047654751563 3772.970588235294 772.995900100849 3793.9117647058824 771.7976640891548 3814.8529411764707 768.908358113137 3835.7941176470586 767.9192079463141 3856.735294117647 766.8567475951404 3877.676470588235 766.8609306167309 3898.6176470588234 764.4897401031296 3919.5588235294117 764.3547678374432 3940.5 764.3768419479462 3961.4411764705883 764.3156850172985 3982.3823529411766 759.380873288005 4003.323529411765 757.9113031477688 4024.264705882353 760.0049069239963 4045.2058823529414 753.5875510114441 4066.1470588235293 751.761881610288 4087.0882352941176 751.708180030847 4108.029411764706 749.7549747311173 4128.970588235294 747.3561118905186 4149.911764705882 746.7358843125422 4170.85294117647 746.1086007114674 4191.794117647059 746.1408324365968 4212.735294117647 746.4260841443786 4233.676470588235 746.8242705611495 4254.617647058823 746.5726732254989 4275.558823529412 745.6264248572595 4296.5 745.5916587614981 4296.5 528.943616141882 4275.558823529412 528.9256108228878 4254.617647058823 529.7822561735807 4233.676470588235 530.0318797750176 4212.735294117647 529.5742385244796 4191.794117647059 529.1641691809261 4170.85294117647 529.1689859268577 4149.911764705882 529.2185804117662 4128.970588235294 529.5448927766422 4108.029411764706 529.3666745800084 4087.0882352941176 529.7448004770854 4066.1470588235293 529.7274153021705 4045.2058823529414 530.163015188101 4024.264705882353 532.2645239373791 4003.323529411765 531.3268574465264 3982.3823529411766 531.4166307781715 3961.4411764705883 531.7572224646864 3940.5 531.7708483166984 3919.5588235294117 531.8218985108718 3898.6176470588234 531.9849023445704 3877.676470588235 531.7935729648713 3856.735294117647 531.7864321784326 3835.7941176470586 531.5727707842481 3814.8529411764707 531.4390936505183 3793.9117647058824 532.2027211748189 3772.970588235294 532.4711028871407 3752.029411764706 532.4751666451237 3731.0882352941176 532.6424401194076 3710.1470588235293 532.3819588718641 3689.205882352941 532.3762321494829 3668.264705882353 532.3835012006392 3647.323529411765 532.4008414612442 3626.3823529411766 531.9653947132791 3605.4411764705883 532.7065148297092 3584.5 534.1646402996798 3563.5588235294117 534.1813437994358 3542.6176470588234 534.0614406876781 3521.676470588235 533.9651928337187 3500.735294117647 533.7866116772315 3479.794117647059 533.5868149898097 3458.8529411764707 533.4688532767087 3437.9117647058824 533.0768238550941 3416.970588235294 532.663421242623 3396.029411764706 532.2348192575948 3375.0882352941176 532.1820957819215 3354.1470588235293 532.3681470809754 3333.205882352941 532.5201668090683 3312.264705882353 532.4238251729188 3291.323529411765 532.3835949473919 3270.3823529411766 531.9915975411402 3249.4411764705883 531.7252849940928 3228.5 531.7204662326122 3228.5 786.3287091523742Z" fill="#005aa6" opacity="0.9" />
		</g>
		<g>
			<path d="M3228.5 531.7204662326122 3249.4411764705883 531.7252849940928 3270.3823529411766 531.9915975411402 3291.323529411765 532.3835949473919 3312.264705882353 532.4238251729188 3333.205882352941 532.5201668090683 3354.1470588235293 532.3681470809754 3375.0882352941176 532.1820957819215 3396.029411764706 532.2348192575948 3416.970588235294 532.663421242623 3437.9117647058824 533.0768238550941 3458.8529411764707 533.4688532767087 3479.794117647059 533.5868149898097 3500.735294117647 533.7866116772315 3521.676470588235 533.9651928337187 3542.6176470588234 534.0614406876781 3563.5588235294117 534.1813437994358 3584.5 534.1646402996798 3605.4411764705883 532.7065148297092 3626.3823529411766 531.9653947132791 3647.323529411765 532.4008414612442 3668.264705882353 532.3835012006392 3689.205882352941 532.3762321494829 3710.1470588235293 532.3819588718641 3731.0882352941176 532.6424401194076 3752.029411764706 532.4751666451237 3772.970588235294 532.4711028871407 3793.9117647058824 532.2027211748189 3814.8529411764707 531.4390936505183 3835.7941176470586 531.5727707842481 3856.735294117647 531.7864321784326 3877.676470588235 531.7935729648713 3898.6176470588234 531.9849023445704 3919.5588235294117 531.8218985108718 3940.5 531.7708483166984 3961.4411764705883 531.7572224646864 3982.3823529411766 531.4166307781715 4003.323529411765 531.3268574465264 4024.264705882353 532.2645239373791 4045.2058823529414 530.163015188101 4066.1470588235293 529.7274153021705 4087.0882352941176 529.7448004770854 4108.029411764706 529.3666745800084 4128.970588235294 529.5448927766422 4149.911764705882 529.2185804117662 4170.85294117647 529.1689859268577 4191.794117647059 529.1641691809261 4212.735294117647 529.5742385244796 4233.676470588235 530.0318797750176 4254.617647058823 529.7822561735807 4275.558823529412 528.9256108228878 4296.5 528.943616141882 4296.5 489.66218659583717 4275.558823529412 489.6497010215789 4254.617647058823 489.62346831140377 4233.676470588235 490.08709103844944 4212.735294117647 489.8264670604297 4191.794117647059 489.6030568350501 4170.85294117647 489.6027851684956 4149.911764705882 489.6838400376917 4128.970588235294 490.1068496342023 4108.029411764706 490.9492704753914 4087.0882352941176 490.39407239534404 4066.1470588235293 490.3851968973204 4045.2058823529414 490.7185530259544 4024.264705882353 492.30515321923616 4003.323529411765 491.64116500384506 3982.3823529411766 491.78456573649515 3961.4411764705883 491.92955522350275 3940.5 491.93920435370626 3919.5588235294117 491.9768227136466 3898.6176470588234 492.1505952348429 3877.676470588235 491.85600669794854 3856.735294117647 491.8513930148632 3835.7941176470586 491.63219577145946 3814.8529411764707 491.4978977886208 3793.9117647058824 491.99009410225506 3772.970588235294 492.16551794945576 3752.029411764706 492.1686259707535 3731.0882352941176 492.21654806017045 3710.1470588235293 491.7116461371828 3689.205882352941 491.70767780671554 3668.264705882353 491.71346164432515 3647.323529411765 491.7282826494978 3626.3823529411766 491.33050875804906 3605.4411764705883 491.76141449343754 3584.5 492.74242973299926 3563.5588235294117 492.75457857238825 3542.6176470588234 492.5918650008465 3521.676470588235 492.35892132336346 3500.735294117647 492.0889325160488 3479.794117647059 491.69189364771574 3458.8529411764707 491.3732427741912 3437.9117647058824 490.8088740577118 3416.970588235294 490.31149608874114 3396.029411764706 489.77877115088484 3375.0882352941176 489.5616092932336 3354.1470588235293 489.5397849514939 3333.205882352941 489.5595335703314 3312.264705882353 489.2933239946325 3291.323529411765 489.0834397469836 3270.3823529411766 488.66304187283265 3249.4411764705883 488.3428044802121 3228.5 488.19986039125524 3228.5 531.7204662326122Z" fill="#55c0e9" opacity="0.9" />
		</g>
		<g>
			<path d="M3228.5 488.19986039125524 3249.4411764705883 488.3428044802121 3270.3823529411766 488.66304187283265 3291.323529411765 489.0834397469836 3312.264705882353 489.2933239946325 3333.205882352941 489.5595335703314 3354.1470588235293 489.5397849514939 3375.0882352941176 489.5616092932336 3396.029411764706 489.77877115088484 3416.970588235294 490.31149608874114 3437.9117647058824 490.8088740577118 3458.8529411764707 491.3732427741912 3479.794117647059 491.69189364771574 3500.735294117647 492.0889325160488 3521.676470588235 492.35892132336346 3542.6176470588234 492.5918650008465 3563.5588235294117 492.75457857238825 3584.5 492.74242973299926 3605.4411764705883 491.76141449343754 3626.3823529411766 491.33050875804906 3647.323529411765 491.7282826494978 3668.264705882353 491.71346164432515 3689.205882352941 491.70767780671554 3710.1470588235293 491.7116461371828 3731.0882352941176 492.21654806017045 3752.029411764706 492.1686259707535 3772.970588235294 492.16551794945576 3793.9117647058824 491.99009410225506 3814.8529411764707 491.4978977886208 3835.7941176470586 491.63219577145946 3856.735294117647 491.8513930148632 3877.676470588235 491.85600669794854 3898.6176470588234 492.1505952348429 3919.5588235294117 491.9768227136466 3940.5 491.93920435370626 3961.4411764705883 491.92955522350275 3982.3823529411766 491.78456573649515 4003.323529411765 491.64116500384506 4024.264705882353 492.30515321923616 4045.2058823529414 490.7185530259544 4066.1470588235293 490.3851968973204 4087.0882352941176 490.39407239534404 4108.029411764706 490.9492704753914 4128.970588235294 490.1068496342023 4149.911764705882 489.6838400376917 4170.85294117647 489.6027851684956 4191.794117647059 489.6030568350501 4212.735294117647 489.8264670604297 4233.676470588235 490.08709103844944 4254.617647058823 489.62346831140377 4275.558823529412 489.6497010215789 4296.5 489.66218659583717 4296.5 478.10739716876634 4275.558823529412 478.09661826532414 4254.617647058823 478.15999289365544 4233.676470588235 478.5827424221303 4212.735294117647 478.38419566392514 4191.794117647059 478.2713135439936 4170.85294117647 478.26942714386075 4149.911764705882 478.5099393463872 4128.970588235294 478.7941392845137 4108.029411764706 479.58006819193264 4087.0882352941176 479.10650501970053 4066.1470588235293 479.0999411202481 4045.2058823529414 479.4072866140748 4024.264705882353 480.96640637284213 4003.323529411765 480.2698842349475 3982.3823529411766 480.4907637351383 3961.4411764705883 480.4086170616429 3940.5 480.41676419469263 3919.5588235294117 480.45029730465194 3898.6176470588234 480.6272134139708 3877.676470588235 480.40305013594224 3856.735294117647 480.39917600110454 3835.7941176470586 480.2978208961403 3814.8529411764707 480.1378211447884 3793.9117647058824 480.4875119170523 3772.970588235294 480.62062646338103 3752.029411764706 480.623498410782 3731.0882352941176 480.6254558284506 3710.1470588235293 479.9434244465183 3689.205882352941 479.939862628262 3668.264705882353 479.94505960714844 3647.323529411765 479.95902615881243 3626.3823529411766 479.5505692873087 3605.4411764705883 479.86304908787844 3584.5 480.59388216933854 3563.5588235294117 480.6043736648512 3542.6176470588234 480.3867647714376 3521.676470588235 480.0939647438401 3500.735294117647 479.7308663765565 3479.794117647059 479.2808407307956 3458.8529411764707 478.9041807209399 3437.9117647058824 478.2910364979862 3416.970588235294 477.7828333755948 3396.029411764706 477.2431626623622 3375.0882352941176 476.9834739801712 3354.1470588235293 476.8973696844754 3333.205882352941 476.8748020982269 3312.264705882353 476.5669923893315 3291.323529411765 476.3174497919625 3270.3823529411766 475.8998014736065 3249.4411764705883 475.5839065563437 3228.5 475.4761084872438 3228.5 488.19986039125524Z" fill="#f6a118" opacity="0.9" />
		</g>
		<g>
			<path d="M3228.5 475.4761084872438 3249.4411764705883 475.5839065563437 3270.3823529411766 475.8998014736065 3291.323529411765 476.3174497919625 3312.264705882353 476.5669923893315 3333.205882352941 476.8748020982269 3354.1470588235293 476.8973696844754 3375.0882352941176 476.9834739801712 3396.029411764706 477.2431626623622 3416.970588235294 477.7828333755948 3437.9117647058824 478.2910364979862 3458.8529411764707 478.9041807209399 3479.794117647059 479.2808407307956 3500.735294117647 479.7308663765565 3521.676470588235 480.0939647438401 3542.6176470588234 480.3867647714376 3563.5588235294117 480.6043736648512 3584.5 480.59388216933854 3605.4411764705883 479.86304908787844 3626.3823529411766 479.5505692873087 3647.323529411765 479.95902615881243 3668.264705882353 479.94505960714844 3689.205882352941 479.939862628262 3710.1470588235293 479.9434244465183 3731.0882352941176 480.6254558284506 3752.029411764706 480.623498410782 3772.970588235294 480.62062646338103 3793.9117647058824 480.4875119170523 3814.8529411764707 480.1378211447884 3835.7941176470586 480.2978208961403 3856.735294117647 480.39917600110454 3877.676470588235 480.40305013594224 3898.6176470588234 480.6272134139708 3919.5588235294117 480.45029730465194 3940.5 480.41676419469263 3961.4411764705883 480.4086170616429 3982.3823529411766 480.4907637351383 4003.323529411765 480.2698842349475 4024.264705882353 480.96640637284213 4045.2058823529414 479.4072866140748 4066.1470588235293 479.0999411202481 4087.0882352941176 479.10650501970053 4108.029411764706 479.58006819193264 4128.970588235294 478.7941392845137 4149.911764705882 478.5099393463872 4170.85294117647 478.26942714386075 4191.794117647059 478.2713135439936 4212.735294117647 478.38419566392514 4233.676470588235 478.5827424221303 4254.617647058823 478.15999289365544 4275.558823529412 478.09661826532414 4296.5 478.10739716876634 4296.5 473.82819172566997 4275.558823529412 473.8181074091512 4254.617647058823 473.8782116867164 4233.676470588235 474.28062031125177 4212.735294117647 474.09267029394687 4191.794117647059 473.9897191134042 4170.85294117647 473.9871807138114 4149.911764705882 474.22541956826655 4128.970588235294 474.511998002383 4108.029411764706 475.27887736921514 4087.0882352941176 474.8518141039069 4066.1470588235293 474.8469015951653 4045.2058823529414 475.13902259765536 4024.264705882353 476.6264014136676 4003.323529411765 475.9675036747879 3982.3823529411766 476.1855240028958 3961.4411764705883 476.0304088632991 3940.5 476.03986709155856 3919.5588235294117 476.07416075277575 3898.6176470588234 476.25220661385714 3877.676470588235 475.9804259287693 3856.735294117647 475.9771097573116 3835.7941176470586 475.85734943037994 3814.8529411764707 475.67113203039463 3793.9117647058824 475.9445091636468 3772.970588235294 476.0428252544268 3752.029411764706 476.0456947164946 3731.0882352941176 476.0126442187972 3710.1470588235293 475.2164345015217 3689.205882352941 475.2129700329708 3668.264705882353 475.2181577191099 3647.323529411765 475.2322484984899 3626.3823529411766 474.81810616673476 3605.4411764705883 475.10657399076854 3584.5 475.80132801818854 3563.5588235294117 475.81236587515644 3542.6176470588234 475.5856075858726 3521.676470588235 475.27426702627764 3500.735294117647 474.8948962586183 3479.794117647059 474.4350271056565 3458.8529411764707 474.05181534663 3437.9117647058824 473.42902823737313 3416.970588235294 472.9107308902232 3396.029411764706 472.36696232860294 3375.0882352941176 472.1032861179079 3354.1470588235293 472.0144834613813 3333.205882352941 471.9842446739753 3312.264705882353 471.6750167092698 3291.323529411765 471.4189705364595 3270.3823529411766 471.014308300106 3249.4411764705883 470.70930139261014 3228.5 470.6068920841123 3228.5 475.4761084872438Z" fill="#fdd5a4" opacity="0.9" />
		</g>
		<g>
			<path d="M3228.5 470.6068920841123 3249.4411764705883 470.70930139261014 3270.3823529411766 471.014308300106 3291.323529411765 471.4189705364595 3312.264705882353 471.6750167092698 3333.205882352941 471.9842446739753 3354.1470588235293 472.0144834613813 3375.0882352941176 472.1032861179079 3396.029411764706 472.36696232860294 3416.970588235294 472.9107308902232 3437.9117647058824 473.42902823737313 3458.8529411764707 474.05181534663 3479.794117647059 474.4350271056565 3500.735294117647 474.8948962586183 3521.676470588235 475.27426702627764 3542.6176470588234 475.5856075858726 3563.5588235294117 475.81236587515644 3584.5 475.80132801818854 3605.4411764705883 475.10657399076854 3626.3823529411766 474.81810616673476 3647.323529411765 475.2322484984899 3668.264705882353 475.2181577191099 3689.205882352941 475.2129700329708 3710.1470588235293 475.2164345015217 3731.0882352941176 476.0126442187972 3752.029411764706 476.0456947164946 3772.970588235294 476.0428252544268 3793.9117647058824 475.9445091636468 3814.8529411764707 475.67113203039463 3835.7941176470586 475.85734943037994 3856.735294117647 475.9771097573116 3877.676470588235 475.9804259287693 3898.6176470588234 476.25220661385714 3919.5588235294117 476.07416075277575 3940.5 476.03986709155856 3961.4411764705883 476.0304088632991 3982.3823529411766 476.1855240028958 4003.323529411765 475.9675036747879 4024.264705882353 476.6264014136676 4045.2058823529414 475.13902259765536 4066.1470588235293 474.8469015951653 4087.0882352941176 474.8518141039069 4108.029411764706 475.27887736921514 4128.970588235294 474.511998002383 4149.911764705882 474.22541956826655 4170.85294117647 473.9871807138114 4191.794117647059 473.9897191134042 4212.735294117647 474.09267029394687 4233.676470588235 474.28062031125177 4254.617647058823 473.8782116867164 4275.558823529412 473.8181074091512 4296.5 473.82819172566997 4296.5 471.16063030075713 4275.558823529412 471.15110050258926 4254.617647058823 471.2005668211781 4233.676470588235 471.56419721584615 4212.735294117647 471.35961801945126 4191.794117647059 471.1659266751794 4170.85294117647 471.15503597364875 4149.911764705882 471.36241611042175 4128.970588235294 471.63391436910644 4108.029411764706 472.3711663447606 4087.0882352941176 471.84780556889575 4066.1470588235293 471.84385861501005 4045.2058823529414 472.0370495671892 4024.264705882353 473.4135261402591 4003.323529411765 472.6948042788454 3982.3823529411766 472.8722901716775 3961.4411764705883 472.3229333883161 3940.5 472.33160122478233 3919.5588235294117 472.3663150934169 3898.6176470588234 472.5454339613937 3877.676470588235 472.089365302357 3856.735294117647 472.0865469044695 3835.7941176470586 471.87656051033446 3814.8529411764707 471.6164928135846 3793.9117647058824 471.7330711807051 3772.970588235294 471.76332000605703 3752.029411764706 471.766218855925 3731.0882352941176 471.666704132637 3710.1470588235293 470.5946289838734 3689.205882352941 470.5925960519466 3668.264705882353 470.5979497527046 3647.323529411765 470.6143953187705 3626.3823529411766 470.16763283113994 3605.4411764705883 470.4164498778376 3584.5 471.0661628206815 3563.5588235294117 471.07731696753683 3542.6176470588234 470.8209639445631 3521.676470588235 470.4605146316375 3500.735294117647 469.9795822434353 3479.794117647059 469.45753010676304 3458.8529411764707 469.00707612997155 3437.9117647058824 468.3152661342126 3416.970588235294 467.73514405195505 3396.029411764706 467.13787830023045 3375.0882352941176 466.8018186815908 3354.1470588235293 466.6374618686549 3333.205882352941 466.54215183048984 3312.264705882353 466.2228711653022 3291.323529411765 465.9001213956365 3270.3823529411766 465.4390074188502 3249.4411764705883 465.07678566777196 3228.5 464.9033783038482 3228.5 470.6068920841123Z" fill="#f48c7d" opacity="0.9" />
		</g>
		<g>
			<path d="M3228.5 464.9033783038482 3249.4411764705883 465.07678566777196 3270.3823529411766 465.4390074188502 3291.323529411765 465.9001213956365 3312.264705882353 466.2228711653022 3333.205882352941 466.54215183048984 3354.1470588235293 466.6374618686549 3375.0882352941176 466.8018186815908 3396.029411764706 467.13787830023045 3416.970588235294 467.73514405195505 3437.9117647058824 468.3152661342126 3458.8529411764707 469.00707612997155 3479.794117647059 469.45753010676304 3500.735294117647 469.9795822434353 3521.676470588235 470.4605146316375 3542.6176470588234 470.8209639445631 3563.5588235294117 471.07731696753683 3584.5 471.0661628206815 3605.4411764705883 470.4164498778376 3626.3823529411766 470.16763283113994 3647.323529411765 470.6143953187705 3668.264705882353 470.5979497527046 3689.205882352941 470.5925960519466 3710.1470588235293 470.5946289838734 3731.0882352941176 471.666704132637 3752.029411764706 471.766218855925 3772.970588235294 471.76332000605703 3793.9117647058824 471.7330711807051 3814.8529411764707 471.6164928135846 3835.7941176470586 471.87656051033446 3856.735294117647 472.0865469044695 3877.676470588235 472.089365302357 3898.6176470588234 472.5454339613937 3919.5588235294117 472.3663150934169 3940.5 472.33160122478233 3961.4411764705883 472.3229333883161 3982.3823529411766 472.8722901716775 4003.323529411765 472.6948042788454 4024.264705882353 473.4135261402591 4045.2058823529414 472.0370495671892 4066.1470588235293 471.84385861501005 4087.0882352941176 471.84780556889575 4108.029411764706 472.3711663447606 4128.970588235294 471.63391436910644 4149.911764705882 471.36241611042175 4170.85294117647 471.15503597364875 4191.794117647059 471.1659266751794 4212.735294117647 471.35961801945126 4233.676470588235 471.56419721584615 4254.617647058823 471.2005668211781 4275.558823529412 471.15110050258926 4296.5 471.16063030075713 4296.5 398.0000000000001 4275.558823529412 398 4254.617647058823 398.00000000000006 4233.676470588235 397.9999999999999 4212.735294117647 398 4191.794117647059 398.00000000000017 4170.85294117647 398 4149.911764705882 398.00000000000006 4128.970588235294 397.99999999999994 4108.029411764706 398.00000000000006 4087.0882352941176 397.9999999999999 4066.1470588235293 397.99999999999994 4045.2058823529414 398 4024.264705882353 398 4003.323529411765 397.99999999999994 3982.3823529411766 397.9999999999999 3961.4411764705883 398 3940.5 398 3919.5588235294117 398 3898.6176470588234 398.0000000000001 3877.676470588235 398 3856.735294117647 398 3835.7941176470586 398.0000000000002 3814.8529411764707 397.99999999999994 3793.9117647058824 398 3772.970588235294 398.0000000000001 3752.029411764706 398 3731.0882352941176 398.00000000000006 3710.1470588235293 398.00000000000006 3689.205882352941 397.99999999999994 3668.264705882353 398.00000000000017 3647.323529411765 398 3626.3823529411766 398.00000000000017 3605.4411764705883 397.9999999999999 3584.5 397.9999999999999 3563.5588235294117 398.0000000000001 3542.6176470588234 397.9999999999999 3521.676470588235 398 3500.735294117647 397.9999999999999 3479.794117647059 397.9999999999999 3458.8529411764707 398 3437.9117647058824 397.9999999999999 3416.970588235294 398.0000000000001 3396.029411764706 397.99999999999994 3375.0882352941176 398.0000000000001 3354.1470588235293 398.0000000000001 3333.205882352941 398.0000000000001 3312.264705882353 398.0000000000001 3291.323529411765 398 3270.3823529411766 398.00000000000006 3249.4411764705883 398 3228.5 398 3228.5 464.9033783038482Z" fill="#393d41" opacity="0.9" />
		</g>
		<g>
			<rect x="4372" y="431" width="22.9995" height="23" fill="#e62d39" />
		</g>
		<g>
			<text fill="#595959" font-family="Verdana,Open Sans,DejaVu Sans,sans-serif" font-weight="400" font-size="41" transform="matrix(1 0 0 1 4404.56 454)">Android</text>
		</g>
		<g>
			<rect x="4372" y="508" width="22.9995" height="23" fill="#005aa6" />
		</g>
		<g>
			<text fill="#595959" font-family="Verdana,Open Sans,DejaVu Sans,sans-serif" font-weight="400" font-size="41" transform="matrix(1 0 0 1 4404.56 531)">iOS</text>
		</g>
		<g>
			<rect x="4372" y="585" width="22.9995" height="23" fill="#55c0e9" />
		</g>
		<g>
			<text fill="#595959" font-family="Verdana,Open Sans,DejaVu Sans,sans-serif" font-weight="400" font-size="41" transform="matrix(1 0 0 1 4404.56 608)">Windows</text>
		</g>
		<g>
			<rect x="4372" y="662" width="22.9995" height="23" fill="#f6a118" />
		</g>
		<g>
			<text fill="#595959" font-family="Verdana,Open Sans,DejaVu Sans,sans-serif" font-weight="400" font-size="41" transform="matrix(1 0 0 1 4404.56 685)">macOS</text>
		</g>
		<g>
			<rect x="4372" y="739" width="22.9995" height="23" fill="#fdd5a4" />
		</g>
		<g>
			<text fill="#595959" font-family="Verdana,Open Sans,DejaVu Sans,sans-serif" font-weight="400" font-size="41" transform="matrix(1 0 0 1 4404.56 762)">Linux</text>
		</g>
		<g>
			<rect x="4372" y="816" width="22.9995" height="23" fill="#f48c7d" />
		</g>
		<g>
			<text fill="#595959" font-family="Verdana,Open Sans,DejaVu Sans,sans-serif" font-weight="400" font-size="41" transform="matrix(1 0 0 1 4404.56 839)">Other</text>
		</g>
		<g>
			<rect x="4372" y="893" width="22.9995" height="23" fill="#393d41" />
		</g>
		<g>
			<text fill="#595959" font-family="Verdana,Open Sans,DejaVu Sans,sans-serif" font-weight="400" font-size="41" transform="matrix(1 0 0 1 4404.56 916)">Unclassified</text>
		</g>
	</g>
</svg>
