<svg width="1763" height="1046"
    xmlns="http://www.w3.org/2000/svg"
	xmlns:xlink="http://www.w3.org/1999/xlink" xml:space="preserve" overflow="hidden">
	<defs>
		<clipPath id="clip0">
			<rect x="2917" y="346" width="1763" height="1046"/>
		</clipPath>
	</defs>
	<g clip-path="url(#clip0)" transform="translate(-2917 -346)">
		<rect x="2918" y="347" width="1760" height="1043" fill="#FFFFFF" />
		<g>
			<path d="
			M3228.5 974.532 4296.5 974.532
			M3228.5 910.53 4296.5 910.53
			M3228.5 846.528 4296.5 846.528
			M3228.5 781.526 4296.5 781.526
			M3228.5 717.524 4296.5 717.524
			M3228.5 653.522 4296.5 653.522
			M3228.5 589.52 4296.5 589.52
			M3228.5 525.517 4296.5 525.517
			M3228.5 461.515 4296.5 461.515
			M3228.5 397.5 4296.5 397.5" stroke="#D9D9D9" stroke-width="3.4375" stroke-linejoin="round" stroke-miterlimit="10" fill="none" />
		</g>
		<g>
			<path d="M 1038.5 4296.5 1038.5" stroke="#D9D9D9" stroke-width="3.4375" stroke-linejoin="round" stroke-miterlimit="10" fill="none" fill-rule="evenodd" />
		</g>
		<g>
			<text fill="#595959" font-family="Verdana,Open Sans,DejaVu Sans,sans-serif" font-weight="400" font-size="41" transform="matrix(6.12323e-17 -1 1 6.12323e-17 3247.928955078125 1179.0385665893555)">29-Jul</text>
		</g>
		<g>
			<text fill="#595959" font-family="Verdana,Open Sans,DejaVu Sans,sans-serif" font-weight="400" font-size="41" transform="matrix(6.12323e-17 -1 1 6.12323e-17 3333.709287109375 1208.66748046875)">26-Aug</text>
		</g>
		<g>
			<text fill="#595959" font-family="Verdana,Open Sans,DejaVu Sans,sans-serif" font-weight="400" font-size="41" transform="matrix(6.12323e-17 -1 1 6.12323e-17 3419.149287109375 1204.42333984375)">23-Sep</text>
		</g>
		<g>
			<text fill="#595959" font-family="Verdana,Open Sans,DejaVu Sans,sans-serif" font-weight="400" font-size="41" transform="matrix(6.12323e-17 -1 1 6.12323e-17 3499.884697265625 1201.1401290893555)">21-Oct</text>
		</g>
		<g>
			<text fill="#595959" font-family="Verdana,Open Sans,DejaVu Sans,sans-serif" font-weight="400" font-size="41" transform="matrix(6.12323e-17 -1 1 6.12323e-17 3585.304677734375 1209.70849609375)">18-Nov</text>
		</g>
		<g>
			<text fill="#595959" font-family="Verdana,Open Sans,DejaVu Sans,sans-serif" font-weight="400" font-size="41" transform="matrix(6.12323e-17 -1 1 6.12323e-17 3670.744677734375 1207.1259765625)">23-Dec</text>
		</g>
		<g>
			<text fill="#595959" font-family="Verdana,Open Sans,DejaVu Sans,sans-serif" font-weight="400" font-size="41" transform="matrix(6.12323e-17 -1 1 6.12323e-17 3759.85826171875 1191.6909103393555)">20-Jan</text>
		</g>
		<g>
			<text fill="#595959" font-family="Verdana,Open Sans,DejaVu Sans,sans-serif" font-weight="400" font-size="41" transform="matrix(6.12323e-17 -1 1 6.12323e-17 3842.355390625 1201.3203125)">17-Feb</text>
		</g>
		<g>
			<text fill="#595959" font-family="Verdana,Open Sans,DejaVu Sans,sans-serif" font-weight="400" font-size="41" transform="matrix(6.12323e-17 -1 1 6.12323e-17 3926.85447265625 1210.2890625)">17-Mar</text>
		</g>
		<g>
			<text fill="#595959" font-family="Verdana,Open Sans,DejaVu Sans,sans-serif" font-weight="400" font-size="41" transform="matrix(6.12323e-17 -1 1 6.12323e-17 4017.09916015625 1201.5405197143555)">14-Apr</text>
		</g>
		<g>
			<text fill="#595959" font-family="Verdana,Open Sans,DejaVu Sans,sans-serif" font-weight="400" font-size="41" transform="matrix(6.12323e-17 -1 1 6.12323e-17 4102.669287109375 1214.75341796875)">12-May</text>
		</g>
		<g>
			<text fill="#595959" font-family="Verdana,Open Sans,DejaVu Sans,sans-serif" font-weight="400" font-size="41" transform="matrix(6.12323e-17 -1 1 6.12323e-17 4187.0382421875 1192.2914962768555)">16-Jun</text>
		</g>
		<g>
			<text fill="#595959" font-family="Verdana,Open Sans,DejaVu Sans,sans-serif" font-weight="400" font-size="41" transform="matrix(6.12323e-17 -1 1 6.12323e-17 4273.208955078125 1177.2768478393555)">14-Jul</text>
		</g>
		<g>
			<text fill="#595959" font-family="Verdana,Open Sans,DejaVu Sans,sans-serif" font-weight="400" font-size="41" transform="matrix(1 0 0 1 3135.4482421875 1050)">0%</text>
		</g>
		<g>
			<text fill="#595959" font-family="Verdana,Open Sans,DejaVu Sans,sans-serif" font-weight="400" font-size="41" transform="matrix(1 0 0 1 3111.96533203125 922)">20%</text>
		</g>
		<g>
			<text fill="#595959" font-family="Verdana,Open Sans,DejaVu Sans,sans-serif" font-weight="400" font-size="41" transform="matrix(1 0 0 1 3110.82421875 794)">40%</text>
		</g>
		<g>
			<text fill="#595959" font-family="Verdana,Open Sans,DejaVu Sans,sans-serif" font-weight="400" font-size="41" transform="matrix(1 0 0 1 3112.3056640625 666)">60%</text>
		</g>
		<g>
			<text fill="#595959" font-family="Verdana,Open Sans,DejaVu Sans,sans-serif" font-weight="400" font-size="41" transform="matrix(1 0 0 1 3112.04541015625 538)">80%</text>
		</g>
		<g>
			<text fill="#595959" font-family="Verdana,Open Sans,DejaVu Sans,sans-serif" font-weight="400" font-size="41" transform="matrix(1 0 0 1 3090.2841796875 410)">100%</text>
		</g>
		<g>
			<text fill="#595959" font-family="Verdana,Open Sans,DejaVu Sans,sans-serif" font-weight="400" font-size="41" transform="matrix(1 0 0 1 3556.97119140625 1321)">Week Commencing</text>
		</g>
		<g>
			<text fill="#595959" font-family="Verdana,Open Sans,DejaVu Sans,sans-serif" font-weight="400" font-size="46" transform="matrix(6.12323e-17 -1 1 6.12323e-17 3019.73 936.7665710449219)">Requests (% of Total)</text>
		</g>
		<rect x="2918.5" y="347.5" width="1760" height="1043" stroke="#D9D9D9" stroke-width="3.4375" stroke-linejoin="round" stroke-miterlimit="10" fill="none" />
		<g>
			<path d="M3228.5 1038 3249.86 1038 3271.22 1038 3292.58 1038 3313.94 1038 3335.3 1038 3356.66 1038 3378.02 1038 3399.38 1038 3420.74 1038 3442.1 1038 3463.46 1038 3484.82 1038 3506.18 1038 3527.54 1038 3548.9 1038 3570.26 1038 3591.62 1038 3612.98 1038 3634.34 1038 3655.7 1038 3677.06 1038 3698.42 1038 3719.7799999999997 1038 3741.14 1038 3762.5 1038 3783.86 1038 3805.2200000000003 1038 3826.58 1038 3847.94 1038 3869.3 1038 3890.66 1038 3912.02 1038 3933.38 1038 3954.74 1038 3976.1 1038 3997.46 1038 4018.8199999999997 1038 4040.18 1038 4061.54 1038 4082.9 1038 4104.26 1038 4125.62 1038 4146.98 1038 4168.34 1038 4189.7 1038 4211.0599999999995 1038 4232.42 1038 4253.78 1038 4275.139999999999 1038 4296.5 1038 4296.5 776.3465392709672 4275.139999999999 776.3609674251002 4253.78 776.5119637903555 4232.42 778.9439765467624 4211.0599999999995 785.3332769215773 4189.7 785.3813296257167 4168.34 786.9316254516905 4146.98 788.064069053389 4125.62 789.5346539181728 4104.26 789.7270984819011 4082.9 789.5483223673614 4061.54 789.1007508003959 4040.18 788.5260313684701 4018.8199999999997 788.0511809237687 3997.46 787.8975793566815 3976.1 787.8180633391596 3954.74 787.5170102748218 3933.38 787.618537873506 3912.02 787.2996583717713 3890.66 786.777616251223 3869.3 786.3066035792257 3847.94 786.3287091523742 3826.58 786.0536469934276 3805.2200000000003 785.8291015970201 3783.86 785.589340317034 3762.5 786.2302623228909 3741.14 786.623186471336 3719.7799999999997 786.2571077613804 3698.42 786.2561836526764 3677.06 786.2162102486243 3655.7 786.0771147493706 3634.34 785.8224653785537 3612.98 785.745751063241 3591.62 785.683921505688 3570.26 785.6995656667727 3548.9 785.6481077164551 3527.54 786.010971539933 3506.18 786.4738525233887 3484.82 839.4522622926443 3463.46 839.353202612431 3442.1 839.2839006956253 3420.74 838.879432179563 3399.38 838.4903433785978 3378.02 835.9768638622999 3356.66 836.0624268768181 3335.3 835.9412522840088 3313.94 826.0449620991883 3292.58 825.9208183883113 3271.22 825.9653609567127 3249.86 825.8478067689514 3228.5 825.5617776375664 3228.5 1038Z" fill="#e62d39" opacity="0.9" />
		</g>
		<g>
			<path d="M3228.5 825.5617776375664 3249.86 825.8478067689514 3271.22 825.9653609567127 3292.58 825.9208183883113 3313.94 826.0449620991883 3335.3 835.9412522840088 3356.66 836.0624268768181 3378.02 835.9768638622999 3399.38 838.4903433785978 3420.74 838.879432179563 3442.1 839.2839006956253 3463.46 839.353202612431 3484.82 839.4522622926443 3506.18 786.4738525233887 3527.54 786.010971539933 3548.9 785.6481077164551 3570.26 785.6995656667727 3591.62 785.683921505688 3612.98 785.745751063241 3634.34 785.8224653785537 3655.7 786.0771147493706 3677.06 786.2162102486243 3698.42 786.2561836526764 3719.7799999999997 786.2571077613804 3741.14 786.623186471336 3762.5 786.2302623228909 3783.86 785.589340317034 3805.2200000000003 785.8291015970201 3826.58 786.0536469934276 3847.94 786.3287091523742 3869.3 786.3066035792257 3890.66 786.777616251223 3912.02 787.2996583717713 3933.38 787.618537873506 3954.74 787.5170102748218 3976.1 787.8180633391596 3997.46 787.8975793566815 4018.8199999999997 788.0511809237687 4040.18 788.5260313684701 4061.54 789.1007508003959 4082.9 789.5483223673614 4104.26 789.7270984819011 4125.62 789.5346539181728 4146.98 788.064069053389 4168.34 786.9316254516905 4189.7 785.3813296257167 4211.0599999999995 785.3332769215773 4232.42 778.9439765467624 4253.78 776.5119637903555 4275.139999999999 776.3609674251002 4296.5 776.3465392709672 4296.5 532.3835012006392 4275.139999999999 532.4008414612442 4253.78 531.9653947132791 4232.42 532.7065148297092 4211.0599999999995 534.1646402996798 4189.7 534.1813437994358 4168.34 534.0614406876781 4146.98 533.9651928337187 4125.62 533.7866116772315 4104.26 533.5868149898097 4082.9 533.4688532767087 4061.54 533.0768238550941 4040.18 532.663421242623 4018.8199999999997 532.2348192575948 3997.46 532.1820957819215 3976.1 532.3681470809754 3954.74 532.5201668090683 3933.38 532.4238251729188 3912.02 532.3835949473919 3890.66 531.9915975411402 3869.3 531.7252849940928 3847.94 531.7204662326122 3826.58 531.6284996533559 3805.2200000000003 531.5339960022333 3783.86 531.0725093725605 3762.5 531.2499409458121 3741.14 531.650700660379 3719.7799999999997 531.7063634722977 3698.42 531.7405716149474 3677.06 531.5084515547419 3655.7 531.1868422316874 3634.34 530.9096071067933 3612.98 530.6457625647856 3591.62 530.2115588422516 3570.26 530.3749323864379 3548.9 530.816371903653 3527.54 531.5387166599613 3506.18 532.190445140906 3484.82 526.5102482737155 3463.46 525.317475304288 3442.1 524.2802845879517 3420.74 523.1294380044526 3399.38 521.8575691422009 3378.02 514.1116307261946 3356.66 512.9939872302128 3335.3 512.1677115640607 3313.94 502.45546819630397 3292.58 501.879791216212 3271.22 501.4046091687954 3249.86 500.8004852626942 3228.5 499.88534897581724 3228.5 825.5617776375664Z" fill="#005aa6" opacity="0.9" />
		</g>
		<g>
			<path d="M3228.5 499.88534897581724 3249.86 500.8004852626942 3271.22 501.4046091687954 3292.58 501.879791216212 3313.94 502.45546819630397 3335.3 512.1677115640607 3356.66 512.9939872302128 3378.02 514.1116307261946 3399.38 521.8575691422009 3420.74 523.1294380044526 3442.1 524.2802845879517 3463.46 525.317475304288 3484.82 526.5102482737155 3506.18 532.190445140906 3527.54 531.5387166599613 3548.9 530.816371903653 3570.26 530.3749323864379 3591.62 530.2115588422516 3612.98 530.6457625647856 3634.34 530.9096071067933 3655.7 531.1868422316874 3677.06 531.5084515547419 3698.42 531.7405716149474 3719.7799999999997 531.7063634722977 3741.14 531.650700660379 3762.5 531.2499409458121 3783.86 531.0725093725605 3805.2200000000003 531.5339960022333 3826.58 531.6284996533559 3847.94 531.7204662326122 3869.3 531.7252849940928 3890.66 531.9915975411402 3912.02 532.3835949473919 3933.38 532.4238251729188 3954.74 532.5201668090683 3976.1 532.3681470809754 3997.46 532.1820957819215 4018.8199999999997 532.2348192575948 4040.18 532.663421242623 4061.54 533.0768238550941 4082.9 533.4688532767087 4104.26 533.5868149898097 4125.62 533.7866116772315 4146.98 533.9651928337187 4168.34 534.0614406876781 4189.7 534.1813437994358 4211.0599999999995 534.1646402996798 4232.42 532.7065148297092 4253.78 531.9653947132791 4275.139999999999 532.4008414612442 4296.5 532.3835012006392 4296.5 491.71346164432515 4275.139999999999 491.7282826494978 4253.78 491.33050875804906 4232.42 491.76141449343754 4211.0599999999995 492.74242973299926 4189.7 492.75457857238825 4168.34 492.5918650008465 4146.98 492.35892132336346 4125.62 492.0889325160488 4104.26 491.69189364771574 4082.9 491.3732427741912 4061.54 490.8088740577118 4040.18 490.31149608874114 4018.8199999999997 489.77877115088484 3997.46 489.5616092932336 3976.1 489.5397849514939 3954.74 489.5595335703314 3933.38 489.2933239946325 3912.02 489.0834397469836 3890.66 488.66304187283265 3869.3 488.3428044802121 3847.94 488.19986039125524 3826.58 488.0196039547259 3805.2200000000003 487.9026766907719 3783.86 487.52222153261044 3762.5 487.70696592491663 3741.14 488.0115104957247 3719.7799999999997 487.963793616364 3698.42 487.98949737367803 3677.06 487.70292525839443 3655.7 487.3692026626984 3634.34 487.1072160964907 3612.98 486.9097754632236 3591.62 486.6466810104104 3570.26 486.8253712667305 3548.9 487.1725552495906 3527.54 487.81344975744275 3506.18 488.4006750879141 3484.82 478.7456085402515 3463.46 477.4222196163746 3442.1 476.2604646154135 3420.74 475.0060216232254 3399.38 473.64144749214375 3378.02 473.2844498106347 3356.66 472.059174923187 3335.3 471.07663748656984 3313.94 461.2408535917636 3292.58 460.48443100573536 3271.22 459.76604736337 3249.86 458.97774072217237 3228.5 457.909399668513 3228.5 499.88534897581724Z" fill="#55c0e9" opacity="0.9" />
		</g>
		<g>
			<path d="M3228.5 457.909399668513 3249.86 458.97774072217237 3271.22 459.76604736337 3292.58 460.48443100573536 3313.94 461.2408535917636 3335.3 471.07663748656984 3356.66 472.059174923187 3378.02 473.2844498106347 3399.38 473.64144749214375 3420.74 475.0060216232254 3442.1 476.2604646154135 3463.46 477.4222196163746 3484.82 478.7456085402515 3506.18 488.4006750879141 3527.54 487.81344975744275 3548.9 487.1725552495906 3570.26 486.8253712667305 3591.62 486.6466810104104 3612.98 486.9097754632236 3634.34 487.1072160964907 3655.7 487.3692026626984 3677.06 487.70292525839443 3698.42 487.98949737367803 3719.7799999999997 487.963793616364 3741.14 488.0115104957247 3762.5 487.70696592491663 3783.86 487.52222153261044 3805.2200000000003 487.9026766907719 3826.58 488.0196039547259 3847.94 488.19986039125524 3869.3 488.3428044802121 3890.66 488.66304187283265 3912.02 489.0834397469836 3933.38 489.2933239946325 3954.74 489.5595335703314 3976.1 489.5397849514939 3997.46 489.5616092932336 4018.8199999999997 489.77877115088484 4040.18 490.31149608874114 4061.54 490.8088740577118 4082.9 491.3732427741912 4104.26 491.69189364771574 4125.62 492.0889325160488 4146.98 492.35892132336346 4168.34 492.5918650008465 4189.7 492.75457857238825 4211.0599999999995 492.74242973299926 4232.42 491.76141449343754 4253.78 491.33050875804906 4275.139999999999 491.7282826494978 4296.5 491.71346164432515 4296.5 479.94505960714844 4275.139999999999 479.95902615881243 4253.78 479.5505692873087 4232.42 479.86304908787844 4211.0599999999995 480.59388216933854 4189.7 480.6043736648512 4168.34 480.3867647714376 4146.98 480.0939647438401 4125.62 479.7308663765565 4104.26 479.2808407307956 4082.9 478.9041807209399 4061.54 478.2910364979862 4040.18 477.7828333755948 4018.8199999999997 477.2431626623622 3997.46 476.9834739801712 3976.1 476.8973696844754 3954.74 476.8748020982269 3933.38 476.5669923893315 3912.02 476.3174497919625 3890.66 475.8998014736065 3869.3 475.5839065563437 3847.94 475.4761084872438 3826.58 475.3862262172437 3805.2200000000003 475.3370518496447 3783.86 475.01380165868795 3762.5 475.19871497996326 3741.14 475.4695361222137 3719.7799999999997 475.3984900629857 3698.42 475.42158037858417 3677.06 475.17281446854633 3655.7 474.89392113663916 3634.34 474.6976120214668 3612.98 474.5506870011159 3591.62 474.3398551157786 3570.26 474.4972746166898 3548.9 474.8032929443811 3527.54 475.42643040944677 3506.18 475.9837074966003 3484.82 466.53633469676566 3463.46 465.2033179049322 3442.1 464.0399484926056 3420.74 462.7794187905809 3399.38 461.40786834513193 3378.02 460.8843773665021 3356.66 459.65468225455857 3335.3 458.6559421000702 3313.94 448.8413613772234 3292.58 448.0810719550874 3271.22 447.32471168178165 3249.86 446.53109522752027 3228.5 445.45988766385216 3228.5 457.909399668513Z" fill="#f6a118" opacity="0.9" />
		</g>
		<g>
			<path d="M3228.5 445.45988766385216 3249.86 446.53109522752027 3271.22 447.32471168178165 3292.58 448.0810719550874 3313.94 448.8413613772234 3335.3 458.6559421000702 3356.66 459.65468225455857 3378.02 460.8843773665021 3399.38 461.40786834513193 3420.74 462.7794187905809 3442.1 464.0399484926056 3463.46 465.2033179049322 3484.82 466.53633469676566 3506.18 475.9837074966003 3527.54 475.42643040944677 3548.9 474.8032929443811 3570.26 474.4972746166898 3591.62 474.3398551157786 3612.98 474.5506870011159 3634.34 474.6976120214668 3655.7 474.89392113663916 3677.06 475.17281446854633 3698.42 475.42158037858417 3719.7799999999997 475.3984900629857 3741.14 475.4695361222137 3762.5 475.19871497996326 3783.86 475.01380165868795 3805.2200000000003 475.3370518496447 3826.58 475.3862262172437 3847.94 475.4761084872438 3869.3 475.5839065563437 3890.66 475.8998014736065 3912.02 476.3174497919625 3933.38 476.5669923893315 3954.74 476.8748020982269 3976.1 476.8973696844754 3997.46 476.9834739801712 4018.8199999999997 477.2431626623622 4040.18 477.7828333755948 4061.54 478.2910364979862 4082.9 478.9041807209399 4104.26 479.2808407307956 4125.62 479.7308663765565 4146.98 480.0939647438401 4168.34 480.3867647714376 4189.7 480.6043736648512 4211.0599999999995 480.59388216933854 4232.42 479.86304908787844 4253.78 479.5505692873087 4275.139999999999 479.95902615881243 4296.5 479.94505960714844 4296.5 475.2181577191099 4275.139999999999 475.2322484984899 4253.78 474.81810616673476 4232.42 475.10657399076854 4211.0599999999995 475.80132801818854 4189.7 475.81236587515644 4168.34 475.5856075858726 4146.98 475.27426702627764 4125.62 474.8948962586183 4104.26 474.4350271056565 4082.9 474.05181534663 4061.54 473.42902823737313 4040.18 472.9107308902232 4018.8199999999997 472.36696232860294 3997.46 472.1032861179079 3976.1 472.0144834613813 3954.74 471.9842446739753 3933.38 471.6750167092698 3912.02 471.4189705364595 3890.66 471.014308300106 3869.3 470.70930139261014 3847.94 470.6068920841123 3826.58 470.536768979531 3805.2200000000003 470.512126738405 3783.86 470.2333783951094 3762.5 470.4295066297548 3741.14 470.71094768423825 3719.7799999999997 470.68875235151756 3698.42 470.711078323044 3677.06 470.4984896905413 3655.7 470.2545246926675 3634.34 470.08674988315875 3612.98 469.9671028094188 3591.62 469.8170248640352 3570.26 469.98574909760833 3548.9 470.29052608403396 3527.54 470.90608102656375 3506.18 471.4688565386009 3484.82 463.23456057734126 3463.46 461.90702369919353 3442.1 460.74954421696344 3420.74 459.49407316719544 3399.38 458.1319763736486 3378.02 457.5804484503726 3356.66 456.3664514755954 3335.3 455.3461594331381 3313.94 445.544279679592 3292.58 444.7968174680799 3271.22 444.04486973569345 3249.86 443.257705363539 3228.5 442.19924089871233 3228.5 445.45988766385216Z" fill="#fdd5a4" opacity="0.9" />
		</g>
		<g>
			<path d="M3228.5 442.19924089871233 3249.86 443.257705363539 3271.22 444.04486973569345 3292.58 444.7968174680799 3313.94 445.544279679592 3335.3 455.3461594331381 3356.66 456.3664514755954 3378.02 457.5804484503726 3399.38 458.1319763736486 3420.74 459.49407316719544 3442.1 460.74954421696344 3463.46 461.90702369919353 3484.82 463.23456057734126 3506.18 471.4688565386009 3527.54 470.90608102656375 3548.9 470.29052608403396 3570.26 469.98574909760833 3591.62 469.8170248640352 3612.98 469.9671028094188 3634.34 470.08674988315875 3655.7 470.2545246926675 3677.06 470.4984896905413 3698.42 470.711078323044 3719.7799999999997 470.68875235151756 3741.14 470.71094768423825 3762.5 470.4295066297548 3783.86 470.2333783951094 3805.2200000000003 470.512126738405 3826.58 470.536768979531 3847.94 470.6068920841123 3869.3 470.70930139261014 3890.66 471.014308300106 3912.02 471.4189705364595 3933.38 471.6750167092698 3954.74 471.9842446739753 3976.1 472.0144834613813 3997.46 472.1032861179079 4018.8199999999997 472.36696232860294 4040.18 472.9107308902232 4061.54 473.42902823737313 4082.9 474.05181534663 4104.26 474.4350271056565 4125.62 474.8948962586183 4146.98 475.27426702627764 4168.34 475.5856075858726 4189.7 475.81236587515644 4211.0599999999995 475.80132801818854 4232.42 475.10657399076854 4253.78 474.81810616673476 4275.139999999999 475.2322484984899 4296.5 475.2181577191099 4296.5 470.5979497527046 4275.139999999999 470.6143953187705 4253.78 470.16763283113994 4232.42 470.4164498778376 4211.0599999999995 471.0661628206815 4189.7 471.07731696753683 4168.34 470.8209639445631 4146.98 470.4605146316375 4125.62 469.9795822434353 4104.26 469.45753010676304 4082.9 469.00707612997155 4061.54 468.3152661342126 4040.18 467.73514405195505 4018.8199999999997 467.13787830023045 3997.46 466.8018186815908 3976.1 466.6374618686549 3954.74 466.54215183048984 3933.38 466.2228711653022 3912.02 465.9001213956365 3890.66 465.4390074188502 3869.3 465.07678566777196 3847.94 464.9033783038482 3826.58 464.78158180585166 3805.2200000000003 464.7260968061159 3783.86 464.4723890087735 3762.5 464.6844034193931 3741.14 464.9715947829818 3719.7799999999997 464.9499237655363 3698.42 464.9713870250645 3677.06 464.7567393127636 3655.7 464.5132259653092 3634.34 464.3461599383073 3612.98 464.26375937292056 3591.62 464.2122032971037 3570.26 464.3963627005436 3548.9 464.69518296460524 3527.54 465.29095095509365 3506.18 465.86857631542375 3484.82 457.9426597886813 3463.46 456.65046178632844 3442.1 455.5173638999522 3420.74 454.27397669951586 3399.38 452.9422128623981 3378.02 452.3392658302522 3356.66 451.1914920386466 3335.3 450.18073886311447 3313.94 440.3988808972397 3292.58 439.6628015961259 3271.22 438.9096857650517 3249.86 438.13688387197027 3228.5 437.0987838006808 3228.5 442.19924089871233Z" fill="#f48c7d" opacity="0.9" />
		</g>
		<g>
			<path d="M3228.5 437.0987838006808 3249.86 438.13688387197027 3271.22 438.9096857650517 3292.58 439.6628015961259 3313.94 440.3988808972397 3335.3 450.18073886311447 3356.66 451.1914920386466 3378.02 452.3392658302522 3399.38 452.9422128623981 3420.74 454.27397669951586 3442.1 455.5173638999522 3463.46 456.65046178632844 3484.82 457.9426597886813 3506.18 465.86857631542375 3527.54 465.29095095509365 3548.9 464.69518296460524 3570.26 464.3963627005436 3591.62 464.2122032971037 3612.98 464.26375937292056 3634.34 464.3461599383073 3655.7 464.5132259653092 3677.06 464.7567393127636 3698.42 464.9713870250645 3719.7799999999997 464.9499237655363 3741.14 464.9715947829818 3762.5 464.6844034193931 3783.86 464.4723890087735 3805.2200000000003 464.7260968061159 3826.58 464.78158180585166 3847.94 464.9033783038482 3869.3 465.07678566777196 3890.66 465.4390074188502 3912.02 465.9001213956365 3933.38 466.2228711653022 3954.74 466.54215183048984 3976.1 466.6374618686549 3997.46 466.8018186815908 4018.8199999999997 467.13787830023045 4040.18 467.73514405195505 4061.54 468.3152661342126 4082.9 469.00707612997155 4104.26 469.45753010676304 4125.62 469.9795822434353 4146.98 470.4605146316375 4168.34 470.8209639445631 4189.7 471.07731696753683 4211.0599999999995 471.0661628206815 4232.42 470.4164498778376 4253.78 470.16763283113994 4275.139999999999 470.6143953187705 4296.5 470.5979497527046 4296.5 398.00000000000017 4275.139999999999 398 4253.78 398.00000000000017 4232.42 397.9999999999999 4211.0599999999995 397.9999999999999 4189.7 398.0000000000001 4168.34 397.9999999999999 4146.98 398 4125.62 397.9999999999999 4104.26 397.9999999999999 4082.9 398 4061.54 397.9999999999999 4040.18 398.0000000000001 4018.8199999999997 397.99999999999994 3997.46 398.0000000000001 3976.1 398.0000000000001 3954.74 398.0000000000001 3933.38 398.0000000000001 3912.02 398 3890.66 398.00000000000006 3869.3 398 3847.94 398 3826.58 397.9999999999999 3805.2200000000003 397.9999999999999 3783.86 398 3762.5 398 3741.14 398 3719.7799999999997 398 3698.42 398.0000000000001 3677.06 397.99999999999983 3655.7 397.9999999999999 3634.34 398.00000000000006 3612.98 397.9999999999999 3591.62 397.9999999999999 3570.26 397.99999999999994 3548.9 398 3527.54 397.99999999999994 3506.18 398 3484.82 397.9999999999999 3463.46 398 3442.1 397.9999999999998 3420.74 398.0000000000001 3399.38 398 3378.02 398.00000000000006 3356.66 398.0000000000001 3335.3 397.9999999999999 3313.94 397.99999999999994 3292.58 398 3271.22 398.0000000000001 3249.86 398 3228.5 398 3228.5 437.0987838006808Z" fill="#393d41" opacity="0.9" />
		</g>
		<g>
			<rect x="4372" y="431" width="22.9995" height="23" fill="#e62d39" />
		</g>
		<g>
			<text fill="#595959" font-family="Verdana,Open Sans,DejaVu Sans,sans-serif" font-weight="400" font-size="41" transform="matrix(1 0 0 1 4404.56 454)">Android</text>
		</g>
		<g>
			<rect x="4372" y="508" width="22.9995" height="23" fill="#005aa6" />
		</g>
		<g>
			<text fill="#595959" font-family="Verdana,Open Sans,DejaVu Sans,sans-serif" font-weight="400" font-size="41" transform="matrix(1 0 0 1 4404.56 531)">iOS</text>
		</g>
		<g>
			<rect x="4372" y="585" width="22.9995" height="23" fill="#55c0e9" />
		</g>
		<g>
			<text fill="#595959" font-family="Verdana,Open Sans,DejaVu Sans,sans-serif" font-weight="400" font-size="41" transform="matrix(1 0 0 1 4404.56 608)">Windows</text>
		</g>
		<g>
			<rect x="4372" y="662" width="22.9995" height="23" fill="#f6a118" />
		</g>
		<g>
			<text fill="#595959" font-family="Verdana,Open Sans,DejaVu Sans,sans-serif" font-weight="400" font-size="41" transform="matrix(1 0 0 1 4404.56 685)">macOS</text>
		</g>
		<g>
			<rect x="4372" y="739" width="22.9995" height="23" fill="#fdd5a4" />
		</g>
		<g>
			<text fill="#595959" font-family="Verdana,Open Sans,DejaVu Sans,sans-serif" font-weight="400" font-size="41" transform="matrix(1 0 0 1 4404.56 762)">Linux</text>
		</g>
		<g>
			<rect x="4372" y="816" width="22.9995" height="23" fill="#f48c7d" />
		</g>
		<g>
			<text fill="#595959" font-family="Verdana,Open Sans,DejaVu Sans,sans-serif" font-weight="400" font-size="41" transform="matrix(1 0 0 1 4404.56 839)">Other</text>
		</g>
		<g>
			<rect x="4372" y="893" width="22.9995" height="23" fill="#393d41" />
		</g>
		<g>
			<text fill="#595959" font-family="Verdana,Open Sans,DejaVu Sans,sans-serif" font-weight="400" font-size="41" transform="matrix(1 0 0 1 4404.56 916)">Unclassified</text>
		</g>
	</g>
</svg>
