<svg width="1763" height="1046"
    xmlns="http://www.w3.org/2000/svg"
	xmlns:xlink="http://www.w3.org/1999/xlink" xml:space="preserve" overflow="hidden">
	<defs>
		<clipPath id="clip0">
			<rect x="2917" y="346" width="1763" height="1046"/>
		</clipPath>
	</defs>
	<g clip-path="url(#clip0)" transform="translate(-2917 -346)">
		<rect x="2918" y="347" width="1760" height="1043" fill="#FFFFFF" />
		<g>
			<path d="
			M3228.5 974.532 4296.5 974.532
			M3228.5 910.53 4296.5 910.53
			M3228.5 846.528 4296.5 846.528
			M3228.5 781.526 4296.5 781.526
			M3228.5 717.524 4296.5 717.524
			M3228.5 653.522 4296.5 653.522
			M3228.5 589.52 4296.5 589.52
			M3228.5 525.517 4296.5 525.517
			M3228.5 461.515 4296.5 461.515
			M3228.5 397.5 4296.5 397.5" stroke="#D9D9D9" stroke-width="3.4375" stroke-linejoin="round" stroke-miterlimit="10" fill="none" />
		</g>
		<g>
			<path d="M 1038.5 4296.5 1038.5" stroke="#D9D9D9" stroke-width="3.4375" stroke-linejoin="round" stroke-miterlimit="10" fill="none" fill-rule="evenodd" />
		</g>
		<g>
			<text fill="#595959" font-family="Verdana,sans-serif" font-weight="400" font-size="41" transform="matrix(6.12323e-17 -1 1 6.12323e-17 3244.5 1225)">06-Nov</text>
		</g>
		<g>
			<text fill="#595959" font-family="Verdana,sans-serif" font-weight="400" font-size="41" transform="matrix(6.12323e-17 -1 1 6.12323e-17 3311.25 1224)">20-Nov</text>
		</g>
		<g>
			<text fill="#595959" font-family="Verdana,sans-serif" font-weight="400" font-size="41" transform="matrix(6.12323e-17 -1 1 6.12323e-17 3378 1223)">04-Dec</text>
		</g>
		<g>
			<text fill="#595959" font-family="Verdana,sans-serif" font-weight="400" font-size="41" transform="matrix(6.12323e-17 -1 1 6.12323e-17 3444.75 1220)">18-Dec</text>
		</g>
		<g>
			<text fill="#595959" font-family="Verdana,sans-serif" font-weight="400" font-size="41" transform="matrix(6.12323e-17 -1 1 6.12323e-17 3511.5 1210)">01-Jan</text>
		</g>
		<g>
			<text fill="#595959" font-family="Verdana,sans-serif" font-weight="400" font-size="41" transform="matrix(6.12323e-17 -1 1 6.12323e-17 3577.75 1207)">15-Jan</text>
		</g>
		<g>
			<text fill="#595959" font-family="Verdana,sans-serif" font-weight="400" font-size="41" transform="matrix(6.12323e-17 -1 1 6.12323e-17 3645 1210)">29-Jan</text>
		</g>
		<g>
			<text fill="#595959" font-family="Verdana,sans-serif" font-weight="400" font-size="41" transform="matrix(6.12323e-17 -1 1 6.12323e-17 3711.75 1214)">12-Feb</text>
		</g>
		<g>
			<text fill="#595959" font-family="Verdana,sans-serif" font-weight="400" font-size="41" transform="matrix(6.12323e-17 -1 1 6.12323e-17 3778.5 1216)">26-Feb</text>
		</g>
		<g>
			<text fill="#595959" font-family="Verdana,sans-serif" font-weight="400" font-size="41" transform="matrix(6.12323e-17 -1 1 6.12323e-17 3844.75 1221)">11-Mar</text>
		</g>
		<g>
			<text fill="#595959" font-family="Verdana,sans-serif" font-weight="400" font-size="41" transform="matrix(6.12323e-17 -1 1 6.12323e-17 3912 1223)">25-Mar</text>
		</g>
		<g>
			<text fill="#595959" font-family="Verdana,sans-serif" font-weight="400" font-size="41" transform="matrix(6.12323e-17 -1 1 6.12323e-17 3982.25 1217)">08-Apr</text>
		</g>
		<g>
			<text fill="#595959" font-family="Verdana,sans-serif" font-weight="400" font-size="41" transform="matrix(6.12323e-17 -1 1 6.12323e-17 4049 1216)">22-Apr</text>
		</g>
		<g>
			<text fill="#595959" font-family="Verdana,sans-serif" font-weight="400" font-size="41" transform="matrix(6.12323e-17 -1 1 6.12323e-17 4115.75 1228)">06-May</text>
		</g>
		<g>
			<text fill="#595959" font-family="Verdana,sans-serif" font-weight="400" font-size="41" transform="matrix(6.12323e-17 -1 1 6.12323e-17 4182.5 1228)">20-May</text>
		</g>
		<g>
			<text fill="#595959" font-family="Verdana,sans-serif" font-weight="400" font-size="41" transform="matrix(6.12323e-17 -1 1 6.12323e-17 4245.75 1211)">03-Jun</text>
		</g>
		<g>
			<text fill="#595959" font-family="Verdana,sans-serif" font-weight="400" font-size="41" transform="matrix(6.12323e-17 -1 1 6.12323e-17 4312 1209)">17-Jun</text>
		</g>
		<g>
			<text fill="#595959" font-family="Verdana,sans-serif" font-weight="400" font-size="41" transform="matrix(1 0 0 1 3123.5 1050)">0%</text>
		</g>
		<g>
			<text fill="#595959" font-family="Verdana,sans-serif" font-weight="400" font-size="41" transform="matrix(1 0 0 1 3097.5 922)">20%</text>
		</g>
		<g>
			<text fill="#595959" font-family="Verdana,sans-serif" font-weight="400" font-size="41" transform="matrix(1 0 0 1 3096.5 794)">40%</text>
		</g>
		<g>
			<text fill="#595959" font-family="Verdana,sans-serif" font-weight="400" font-size="41" transform="matrix(1 0 0 1 3097.5 666)">60%</text>
		</g>
		<g>
			<text fill="#595959" font-family="Verdana,sans-serif" font-weight="400" font-size="41" transform="matrix(1 0 0 1 3097.5 538)">80%</text>
		</g>
		<g>
			<text fill="#595959" font-family="Verdana,sans-serif" font-weight="400" font-size="41" transform="matrix(1 0 0 1 3074.5 410)">100%</text>
		</g>
		<g>
			<text fill="#595959" font-family="Verdana,sans-serif" font-weight="400" font-size="41" transform="matrix(1 0 0 1 3544.5 1321)">Week Commencing</text>
		</g>
		<g>
			<text fill="#595959" font-family="Verdana,sans-serif" font-weight="400" font-size="46" transform="matrix(6.12323e-17 -1 1 6.12323e-17 3019.73 965.25)">Requests (% of Total)</text>
		</g>
		<rect x="2918.5" y="347.5" width="1760" height="1043" stroke="#D9D9D9" stroke-width="3.4375" stroke-linejoin="round" stroke-miterlimit="10" fill="none" />
		<g>
			<path d="M3228.5 1038 3261.875 1038 3295.25 1038 3328.625 1038 3362 1038 3395.375 1038 3428.75 1038 3462.125 1038 3495.5 1038 3528.875 1038 3562.25 1038 3595.625 1038 3629 1038 3662.375 1038 3695.75 1038 3729.125 1038 3762.5 1038 3795.875 1038 3829.25 1038 3862.625 1038 3896 1038 3929.375 1038 3962.75 1038 3996.125 1038 4029.5 1038 4062.875 1038 4096.25 1038 4129.625 1038 4163 1038 4196.375 1038 4229.75 1038 4263.125 1038 4296.5 1038 4296.5 710.0229260904226 4263.125 709.5011500172373 4229.75 708.8529728655324 4196.375 708.5111643371398 4163 707.6773439344757 4129.625 706.7867985338357 4096.25 705.8245723100855 4062.875 704.5432324401569 4029.5 703.4985064623488 3996.125 704.569443136712 3962.75 703.1605263419694 3929.375 701.7580858411745 3896 700.4865286297146 3862.625 707.5245129827832 3829.25 729.2395570213952 3795.875 728.9340901988301 3762.5 728.9473274759466 3729.125 728.5904699830792 3695.75 728.3059690780326 3662.375 728.4979453773899 3629 728.9075512947094 3595.625 754.11838558625 3562.25 754.1757001008984 3528.875 753.4791239997355 3495.5 753.4656820270931 3462.125 754.353517736809 3428.75 755.0644960736788 3395.375 756.7936922650002 3362 755.3104816846619 3328.625 756.0108769389726 3295.25 755.8946831794725 3261.875 756.0648930613015 3228.5 754.9119747134117 3228.5 1038Z" fill="#e62d39" opacity="0.9" />
		</g>
		<g>
			<path d="M3228.5 754.9119747134117 3261.875 756.0648930613015 3295.25 755.8946831794725 3328.625 756.0108769389726 3362 755.3104816846619 3395.375 756.7936922650002 3428.75 755.0644960736788 3462.125 754.353517736809 3495.5 753.4656820270931 3528.875 753.4791239997355 3562.25 754.1757001008984 3595.625 754.11838558625 3629 728.9075512947094 3662.375 728.4979453773899 3695.75 728.3059690780326 3729.125 728.5904699830792 3762.5 728.9473274759466 3795.875 728.9340901988301 3829.25 729.2395570213952 3862.625 707.5245129827832 3896 700.4865286297146 3929.375 701.7580858411745 3962.75 703.1605263419694 3996.125 704.569443136712 4029.5 703.4985064623488 4062.875 704.5432324401569 4096.25 705.8245723100855 4129.625 706.7867985338357 4163 707.6773439344757 4196.375 708.5111643371398 4229.75 708.8529728655324 4263.125 709.5011500172373 4296.5 710.0229260904226 4296.5 492.86935877863715 4263.125 492.0646789770611 4229.75 491.29504574396447 4196.375 490.57523501016317 4163 490.03332941523763 4129.625 489.72310243427995 4096.25 489.48234403066954 4062.875 489.1962201731323 4029.5 488.9387742360814 3996.125 492.7506429578374 3962.75 492.8155417521196 3929.375 493.0157563584153 3896 493.39321289046876 3862.625 506.9149616199791 3829.25 511.364965996509 3795.875 511.2846481599944 3762.5 510.42831690773556 3729.125 509.62004963115277 3695.75 508.7614604393337 3662.375 509.353058075723 3629 509.9096403086422 3595.625 502.9834202621783 3562.25 503.00137208677626 3528.875 501.7071993293339 3495.5 501.42221970119 3462.125 503.438874441927 3428.75 504.4310618017311 3395.375 506.598206380057 3362 506.6117266161558 3328.625 506.1745473288654 3295.25 506.70059265889057 3261.875 507.27389099062407 3228.5 506.70599006535724 3228.5 754.9119747134117Z" fill="#005aa6" opacity="0.9" />
		</g>
		<g>
			<path d="M3228.5 506.70599006535724 3261.875 507.27389099062407 3295.25 506.70059265889057 3328.625 506.1745473288654 3362 506.6117266161558 3395.375 506.598206380057 3428.75 504.4310618017311 3462.125 503.438874441927 3495.5 501.42221970119 3528.875 501.7071993293339 3562.25 503.00137208677626 3595.625 502.9834202621783 3629 509.9096403086422 3662.375 509.353058075723 3695.75 508.7614604393337 3729.125 509.62004963115277 3762.5 510.42831690773556 3795.875 511.2846481599944 3829.25 511.364965996509 3862.625 506.9149616199791 3896 493.39321289046876 3929.375 493.0157563584153 3962.75 492.8155417521196 3996.125 492.7506429578374 4029.5 488.9387742360814 4062.875 489.1962201731323 4096.25 489.48234403066954 4129.625 489.72310243427995 4163 490.03332941523763 4196.375 490.57523501016317 4229.75 491.29504574396447 4263.125 492.0646789770611 4296.5 492.86935877863715 4296.5 449.87375657582817 4263.125 448.9328850656446 4229.75 448.0557909288758 4196.375 447.2525039284088 4163 446.6761477523823 4129.625 446.4456437459776 4096.25 446.28136252321144 4062.875 446.10487752564853 4029.5 445.9636538385128 3996.125 450.12178949359264 3962.75 450.19759580620007 3929.375 450.31641232434566 3896 450.53485482006914 3862.625 465.04034483521883 3829.25 466.06050698928533 3795.875 466.040310950835 3762.5 465.54550807778793 3729.125 465.0596958871918 3695.75 464.56231790755743 3662.375 464.9559197775319 3629 465.35219027138237 3595.625 461.61567429168343 3562.25 461.61568788936546 3528.875 459.82950021460965 3495.5 460.450441231452 3462.125 460.9910561402767 3428.75 461.5797281754641 3395.375 463.2835029039877 3362 463.16152563435577 3328.625 463.4857438622545 3295.25 463.49009877890694 3261.875 463.78618648036564 3228.5 463.7315547177501 3228.5 506.70599006535724Z" fill="#55c0e9" opacity="0.9" />
		</g>
		<g>
			<path d="M3228.5 463.7315547177501 3261.875 463.78618648036564 3295.25 463.49009877890694 3328.625 463.4857438622545 3362 463.16152563435577 3395.375 463.2835029039877 3428.75 461.5797281754641 3462.125 460.9910561402767 3495.5 460.450441231452 3528.875 459.82950021460965 3562.25 461.61568788936546 3595.625 461.61567429168343 3629 465.35219027138237 3662.375 464.9559197775319 3695.75 464.56231790755743 3729.125 465.0596958871918 3762.5 465.54550807778793 3795.875 466.040310950835 3829.25 466.06050698928533 3862.625 465.04034483521883 3896 450.53485482006914 3929.375 450.31641232434566 3962.75 450.19759580620007 3996.125 450.12178949359264 4029.5 445.9636538385128 4062.875 446.10487752564853 4096.25 446.28136252321144 4129.625 446.4456437459776 4163 446.6761477523823 4196.375 447.2525039284088 4229.75 448.0557909288758 4263.125 448.9328850656446 4296.5 449.87375657582817 4296.5 437.36935007449506 4263.125 436.4113820386986 4229.75 435.5243027869889 4196.375 434.7122259498071 4163 434.13110745861906 4129.625 433.9141397981283 4096.25 433.7506297603656 4062.875 433.55919918545516 4029.5 433.40054840431145 3996.125 437.6127108681739 3962.75 437.66723491500807 3929.375 437.73656952866384 3896 437.87360524960343 3862.625 452.6366317106452 3829.25 450.90613014226784 3795.875 450.8850550677488 3762.5 450.4868239386605 3729.125 450.086582389552 3695.75 449.68019116783887 3662.375 449.97158494345933 3629 450.2601617230179 3595.625 447.4043899537403 3562.25 447.3983203480143 3528.875 445.3845841013251 3495.5 445.8199610630829 3462.125 446.18152349671493 3428.75 446.5432723305962 3395.375 447.8921220090762 3362 447.8271269745522 3328.625 447.8959874216182 3295.25 447.83237862615306 3261.875 448.04152904681933 3228.5 448.1117462595999 3228.5 463.7315547177501Z" fill="#f6a118" opacity="0.9" />
		</g>
		<g>
			<path d="M3228.5 448.1117462595999 3261.875 448.04152904681933 3295.25 447.83237862615306 3328.625 447.8959874216182 3362 447.8271269745522 3395.375 447.8921220090762 3428.75 446.5432723305962 3462.125 446.18152349671493 3495.5 445.8199610630829 3528.875 445.3845841013251 3562.25 447.3983203480143 3595.625 447.4043899537403 3629 450.2601617230179 3662.375 449.97158494345933 3695.75 449.68019116783887 3729.125 450.086582389552 3762.5 450.4868239386605 3795.875 450.8850550677488 3829.25 450.90613014226784 3862.625 452.6366317106452 3896 437.87360524960343 3929.375 437.73656952866384 3962.75 437.66723491500807 3996.125 437.6127108681739 4029.5 433.40054840431145 4062.875 433.55919918545516 4096.25 433.7506297603656 4129.625 433.9141397981283 4163 434.13110745861906 4196.375 434.7122259498071 4229.75 435.5243027869889 4263.125 436.4113820386986 4296.5 437.36935007449506 4296.5 432.3203932157333 4263.125 431.3782566408658 4229.75 430.5117297264795 4196.375 429.7249311165208 4163 429.1613894967009 4129.625 428.96097997032933 4096.25 428.8105160166967 4062.875 428.64236977976526 4029.5 428.50399955057856 3996.125 432.7535502158639 3962.75 432.80627389640455 3929.375 432.8676017835308 3896 432.98806566692065 3862.625 447.8607653758795 3829.25 445.04971196915034 3795.875 445.0840675736475 3762.5 444.7823876121957 3729.125 444.47619554519974 3695.75 444.146022913635 3662.375 444.4117939256318 3629 444.6840228236209 3595.625 442.25084027575355 3562.25 442.3504661409793 3528.875 442.53952888382247 3495.5 442.9800177196567 3462.125 443.356171040563 3428.75 443.72631556735075 3395.375 445.03130789311024 3362 445.0069493077504 3328.625 445.1092685889405 3295.25 445.086470806383 3261.875 445.33465660164404 3228.5 445.4445406291664 3228.5 448.1117462595999Z" fill="#fdd5a4" opacity="0.9" />
		</g>
		<g>
			<path d="M3228.5 445.4445406291664 3261.875 445.33465660164404 3295.25 445.086470806383 3328.625 445.1092685889405 3362 445.0069493077504 3395.375 445.03130789311024 3428.75 443.72631556735075 3462.125 443.356171040563 3495.5 442.9800177196567 3528.875 442.53952888382247 3562.25 442.3504661409793 3595.625 442.25084027575355 3629 444.6840228236209 3662.375 444.4117939256318 3695.75 444.146022913635 3729.125 444.47619554519974 3762.5 444.7823876121957 3795.875 445.0840675736475 3829.25 445.04971196915034 3862.625 447.8607653758795 3896 432.98806566692065 3929.375 432.8676017835308 3962.75 432.80627389640455 3996.125 432.7535502158639 4029.5 428.50399955057856 4062.875 428.64236977976526 4096.25 428.8105160166967 4129.625 428.96097997032933 4163 429.1613894967009 4196.375 429.7249311165208 4229.75 430.5117297264795 4263.125 431.3782566408658 4296.5 432.3203932157333 4296.5 429.09159001631633 4263.125 428.1595197737724 4229.75 427.30225741502903 4196.375 426.52676679830296 4163 425.97200661481094 4129.625 425.7866796521752 4096.25 425.65149111446993 4062.875 425.49532897112516 4029.5 425.3719419226974 3996.125 429.64793603777895 3962.75 429.7004140998976 3929.375 429.76313464334123 3896 429.88054742773767 3862.625 444.82124955246854 3829.25 441.7030292243726 3795.875 441.7535822416807 3762.5 441.49228637208546 3729.125 441.22475501262005 3695.75 440.9301919465814 3662.375 441.18998724924035 3629 441.4614784607988 3595.625 438.541557440145 3562.25 438.64340053541537 3528.875 439.0626692950935 3495.5 439.5322445329365 3462.125 439.87296049890585 3428.75 440.24550709230834 3395.375 441.51454062796347 3362 441.47847627408726 3328.625 441.590477687704 3295.25 441.6852312927996 3261.875 441.8542748642629 3228.5 442.02286207693095 3228.5 445.4445406291664Z" fill="#f48c7d" opacity="0.9" />
		</g>
		<g>
			<path d="M3228.5 442.02286207693095 3261.875 441.8542748642629 3295.25 441.6852312927996 3328.625 441.590477687704 3362 441.47847627408726 3395.375 441.51454062796347 3428.75 440.24550709230834 3462.125 439.87296049890585 3495.5 439.5322445329365 3528.875 439.0626692950935 3562.25 438.64340053541537 3595.625 438.541557440145 3629 441.4614784607988 3662.375 441.18998724924035 3695.75 440.9301919465814 3729.125 441.22475501262005 3762.5 441.49228637208546 3795.875 441.7535822416807 3829.25 441.7030292243726 3862.625 444.82124955246854 3896 429.88054742773767 3929.375 429.76313464334123 3962.75 429.7004140998976 3996.125 429.64793603777895 4029.5 425.3719419226974 4062.875 425.49532897112516 4096.25 425.65149111446993 4129.625 425.7866796521752 4163 425.97200661481094 4196.375 426.52676679830296 4229.75 427.30225741502903 4263.125 428.1595197737724 4296.5 429.09159001631633 4296.5 397.99999999999994 4263.125 398 4229.75 398 4196.375 398.00000000000017 4163 398 4129.625 398.00000000000006 4096.25 397.9999999999999 4062.875 398 4029.5 397.99999999999994 3996.125 398.00000000000006 3962.75 398.0000000000001 3929.375 398.00000000000006 3896 398.00000000000006 3862.625 398.0000000000001 3829.25 398.0000000000001 3795.875 398 3762.5 398 3729.125 397.99999999999994 3695.75 397.9999999999999 3662.375 398.0000000000001 3629 397.99999999999994 3595.625 398 3562.25 397.99999999999994 3528.875 398.00000000000006 3495.5 398 3462.125 397.99999999999994 3428.75 397.99999999999983 3395.375 397.9999999999999 3362 398 3328.625 398 3295.25 397.9999999999999 3261.875 397.9999999999999 3228.5 398.0000000000001 3228.5 442.02286207693095Z" fill="#393d41" opacity="0.9" />
		</g>
		<g>
			<rect x="4372" y="431" width="22.9995" height="23" fill="#e62d39" />
		</g>
		<g>
			<text fill="#595959" font-family="Verdana,sans-serif" font-weight="400" font-size="41" transform="matrix(1 0 0 1 4404.56 454)">iOS</text>
		</g>
		<g>
			<rect x="4372" y="508" width="22.9995" height="23" fill="#005aa6" />
		</g>
		<g>
			<text fill="#595959" font-family="Verdana,sans-serif" font-weight="400" font-size="41" transform="matrix(1 0 0 1 4404.56 531)">Android</text>
		</g>
		<g>
			<rect x="4372" y="585" width="22.9995" height="23" fill="#55c0e9" />
		</g>
		<g>
			<text fill="#595959" font-family="Verdana,sans-serif" font-weight="400" font-size="41" transform="matrix(1 0 0 1 4404.56 608)">Windows</text>
		</g>
		<g>
			<rect x="4372" y="662" width="22.9995" height="23" fill="#f6a118" />
		</g>
		<g>
			<text fill="#595959" font-family="Verdana,sans-serif" font-weight="400" font-size="41" transform="matrix(1 0 0 1 4404.56 685)">macOS</text>
		</g>
		<g>
			<rect x="4372" y="739" width="22.9995" height="23" fill="#fdd5a4" />
		</g>
		<g>
			<text fill="#595959" font-family="Verdana,sans-serif" font-weight="400" font-size="41" transform="matrix(1 0 0 1 4404.56 762)">Other</text>
		</g>
		<g>
			<rect x="4372" y="816" width="22.9995" height="23" fill="#f48c7d" />
		</g>
		<g>
			<text fill="#595959" font-family="Verdana,sans-serif" font-weight="400" font-size="41" transform="matrix(1 0 0 1 4404.56 839)">Linux</text>
		</g>
		<g>
			<rect x="4372" y="893" width="22.9995" height="23" fill="#393d41" />
		</g>
		<g>
			<text fill="#595959" font-family="Verdana,sans-serif" font-weight="400" font-size="41" transform="matrix(1 0 0 1 4404.56 916)">Unclassified</text>
		</g>
	</g>
</svg>
