<svg width="1763" height="1046"
    xmlns="http://www.w3.org/2000/svg"
	xmlns:xlink="http://www.w3.org/1999/xlink" xml:space="preserve" overflow="hidden">
	<defs>
		<clipPath id="clip0">
			<rect x="2917" y="346" width="1763" height="1046"/>
		</clipPath>
	</defs>
	<g clip-path="url(#clip0)" transform="translate(-2917 -346)">
		<rect x="2918" y="347" width="1760" height="1043" fill="#FFFFFF" />
		<g>
			<path d="
			M3228.5 974.532 4296.5 974.532
			M3228.5 910.53 4296.5 910.53
			M3228.5 846.528 4296.5 846.528
			M3228.5 781.526 4296.5 781.526
			M3228.5 717.524 4296.5 717.524
			M3228.5 653.522 4296.5 653.522
			M3228.5 589.52 4296.5 589.52
			M3228.5 525.517 4296.5 525.517
			M3228.5 461.515 4296.5 461.515
			M3228.5 397.5 4296.5 397.5" stroke="#D9D9D9" stroke-width="3.4375" stroke-linejoin="round" stroke-miterlimit="10" fill="none" />
		</g>
		<g>
			<path d="M 1038.5 4296.5 1038.5" stroke="#D9D9D9" stroke-width="3.4375" stroke-linejoin="round" stroke-miterlimit="10" fill="none" fill-rule="evenodd" />
		</g>
		<g>
			<text fill="#595959" font-family="Verdana,Open Sans,DejaVu Sans,sans-serif" font-weight="400" font-size="41" transform="matrix(6.12323e-17 -1 1 6.12323e-17 3243.544677734375 1211.47021484375)">25-Nov</text>
		</g>
		<g>
			<text fill="#595959" font-family="Verdana,Open Sans,DejaVu Sans,sans-serif" font-weight="400" font-size="41" transform="matrix(6.12323e-17 -1 1 6.12323e-17 3330.748370735013 1207.24609375)">30-Dec</text>
		</g>
		<g>
			<text fill="#595959" font-family="Verdana,Open Sans,DejaVu Sans,sans-serif" font-weight="400" font-size="41" transform="matrix(6.12323e-17 -1 1 6.12323e-17 3421.5655891262754 1191.6909103393555)">27-Jan</text>
		</g>
		<g>
			<text fill="#595959" font-family="Verdana,Open Sans,DejaVu Sans,sans-serif" font-weight="400" font-size="41" transform="matrix(6.12323e-17 -1 1 6.12323e-17 3505.8264110331634 1203.08203125)">24-Feb</text>
		</g>
		<g>
			<text fill="#595959" font-family="Verdana,Open Sans,DejaVu Sans,sans-serif" font-weight="400" font-size="41" transform="matrix(6.12323e-17 -1 1 6.12323e-17 3592.279371611926 1212.05078125)">24-Mar</text>
		</g>
		<g>
			<text fill="#595959" font-family="Verdana,Open Sans,DejaVu Sans,sans-serif" font-weight="400" font-size="41" transform="matrix(6.12323e-17 -1 1 6.12323e-17 3684.187654456314 1203.3022384643555)">21-Apr</text>
		</g>
		<g>
			<text fill="#595959" font-family="Verdana,Open Sans,DejaVu Sans,sans-serif" font-weight="400" font-size="41" transform="matrix(6.12323e-17 -1 1 6.12323e-17 3771.3713279257017 1214.75341796875)">19-May</text>
		</g>
		<g>
			<text fill="#595959" font-family="Verdana,Open Sans,DejaVu Sans,sans-serif" font-weight="400" font-size="41" transform="matrix(6.12323e-17 -1 1 6.12323e-17 3857.483956473214 1194.0532150268555)">23-Jun</text>
		</g>
		<g>
			<text fill="#595959" font-family="Verdana,Open Sans,DejaVu Sans,sans-serif" font-weight="400" font-size="41" transform="matrix(6.12323e-17 -1 1 6.12323e-17 3945.398342833227 1179.0385665893555)">21-Jul</text>
		</g>
		<g>
			<text fill="#595959" font-family="Verdana,Open Sans,DejaVu Sans,sans-serif" font-weight="400" font-size="41" transform="matrix(6.12323e-17 -1 1 6.12323e-17 4032.9223483338646 1206.90576171875)">18-Aug</text>
		</g>
		<g>
			<text fill="#595959" font-family="Verdana,Open Sans,DejaVu Sans,sans-serif" font-weight="400" font-size="41" transform="matrix(6.12323e-17 -1 1 6.12323e-17 4120.106021803253 1202.66162109375)">15-Sep</text>
		</g>
		<g>
			<text fill="#595959" font-family="Verdana,Open Sans,DejaVu Sans,sans-serif" font-weight="400" font-size="41" transform="matrix(6.12323e-17 -1 1 6.12323e-17 4202.5851054288905 1199.3784103393555)">13-Oct</text>
		</g>
		<g>
			<text fill="#595959" font-family="Verdana,Open Sans,DejaVu Sans,sans-serif" font-weight="400" font-size="41" transform="matrix(6.12323e-17 -1 1 6.12323e-17 4289.7687788982785 1209.70849609375)">10-Nov</text>
		</g>
		<g>
			<text fill="#595959" font-family="Verdana,Open Sans,DejaVu Sans,sans-serif" font-weight="400" font-size="41" transform="matrix(1 0 0 1 3135.4482421875 1050)">0%</text>
		</g>
		<g>
			<text fill="#595959" font-family="Verdana,Open Sans,DejaVu Sans,sans-serif" font-weight="400" font-size="41" transform="matrix(1 0 0 1 3111.96533203125 922)">20%</text>
		</g>
		<g>
			<text fill="#595959" font-family="Verdana,Open Sans,DejaVu Sans,sans-serif" font-weight="400" font-size="41" transform="matrix(1 0 0 1 3110.82421875 794)">40%</text>
		</g>
		<g>
			<text fill="#595959" font-family="Verdana,Open Sans,DejaVu Sans,sans-serif" font-weight="400" font-size="41" transform="matrix(1 0 0 1 3112.3056640625 666)">60%</text>
		</g>
		<g>
			<text fill="#595959" font-family="Verdana,Open Sans,DejaVu Sans,sans-serif" font-weight="400" font-size="41" transform="matrix(1 0 0 1 3112.04541015625 538)">80%</text>
		</g>
		<g>
			<text fill="#595959" font-family="Verdana,Open Sans,DejaVu Sans,sans-serif" font-weight="400" font-size="41" transform="matrix(1 0 0 1 3090.2841796875 410)">100%</text>
		</g>
		<g>
			<text fill="#595959" font-family="Verdana,Open Sans,DejaVu Sans,sans-serif" font-weight="400" font-size="41" transform="matrix(1 0 0 1 3556.97119140625 1321)">Week Commencing</text>
		</g>
		<g>
			<text fill="#595959" font-family="Verdana,Open Sans,DejaVu Sans,sans-serif" font-weight="400" font-size="46" transform="matrix(6.12323e-17 -1 1 6.12323e-17 3019.73 936.7665710449219)">Requests (% of Total)</text>
		</g>
		<rect x="2918.5" y="347.5" width="1760" height="1043" stroke="#D9D9D9" stroke-width="3.4375" stroke-linejoin="round" stroke-miterlimit="10" fill="none" />
		<g>
			<path d="M3228.5 1038 3250.295918367347 1038 3272.091836734694 1038 3293.887755102041 1038 3315.683673469388 1038 3337.4795918367345 1038 3359.2755102040815 1038 3381.0714285714284 1038 3402.8673469387754 1038 3424.6632653061224 1038 3446.4591836734694 1038 3468.2551020408164 1038 3490.0510204081634 1038 3511.8469387755104 1038 3533.6428571428573 1038 3555.4387755102043 1038 3577.234693877551 1038 3599.030612244898 1038 3620.826530612245 1038 3642.622448979592 1038 3664.418367346939 1038 3686.214285714286 1038 3708.0102040816328 1038 3729.8061224489797 1038 3751.6020408163267 1038 3773.3979591836733 1038 3795.1938775510203 1038 3816.9897959183672 1038 3838.785714285714 1038 3860.581632653061 1038 3882.377551020408 1038 3904.173469387755 1038 3925.969387755102 1038 3947.765306122449 1038 3969.5612244897957 1038 3991.357142857143 1038 4013.1530612244896 1038 4034.9489795918366 1038 4056.7448979591836 1038 4078.5408163265306 1038 4100.336734693878 1038 4122.132653061224 1038 4143.928571428572 1038 4165.724489795918 1038 4187.5204081632655 1038 4209.316326530612 1038 4231.1122448979595 1038 4252.908163265306 1038 4274.7040816326535 1038 4296.5 1038 4296.5 757.9113031477688 4274.7040816326535 759.380873288005 4252.908163265306 764.3156850172985 4231.1122448979595 764.3768419479462 4209.316326530612 764.3547678374432 4187.5204081632655 764.4897401031296 4165.724489795918 766.8609306167309 4143.928571428572 766.8567475951404 4122.132653061224 767.9192079463141 4100.336734693878 768.908358113137 4078.5408163265306 771.7976640891548 4056.7448979591836 772.995900100849 4034.9489795918366 773.0047654751563 4013.1530612244896 774.0176159604634 3991.357142857143 776.3680200175993 3969.5612244897957 776.3453368808368 3947.765306122449 776.3465392709672 3925.969387755102 776.3609674251002 3904.173469387755 776.5119637903555 3882.377551020408 778.9439765467624 3860.581632653061 785.3332769215773 3838.785714285714 785.3813296257167 3816.9897959183672 786.9316254516905 3795.1938775510203 788.064069053389 3773.3979591836733 789.5346539181728 3751.6020408163267 789.7270984819011 3729.8061224489797 789.5483223673614 3708.0102040816328 789.1007508003959 3686.214285714286 788.5260313684701 3664.418367346939 788.0511809237687 3642.622448979592 787.8975793566815 3620.826530612245 787.8180633391596 3599.030612244898 787.5170102748218 3577.234693877551 787.618537873506 3555.4387755102043 787.2996583717713 3533.6428571428573 786.777616251223 3511.8469387755104 786.3066035792257 3490.0510204081634 786.3287091523742 3468.2551020408164 786.0536469934276 3446.4591836734694 785.8291015970201 3424.6632653061224 785.589340317034 3402.8673469387754 786.2302623228909 3381.0714285714284 786.623186471336 3359.2755102040815 786.2571077613804 3337.4795918367345 786.2561836526764 3315.683673469388 786.2162102486243 3293.887755102041 786.0771147493706 3272.091836734694 785.8224653785537 3250.295918367347 785.745751063241 3228.5 785.683921505688 3228.5 1038Z" fill="#e62d39" opacity="0.9" />
		</g>
		<g>
			<path d="M3228.5 785.683921505688 3250.295918367347 785.745751063241 3272.091836734694 785.8224653785537 3293.887755102041 786.0771147493706 3315.683673469388 786.2162102486243 3337.4795918367345 786.2561836526764 3359.2755102040815 786.2571077613804 3381.0714285714284 786.623186471336 3402.8673469387754 786.2302623228909 3424.6632653061224 785.589340317034 3446.4591836734694 785.8291015970201 3468.2551020408164 786.0536469934276 3490.0510204081634 786.3287091523742 3511.8469387755104 786.3066035792257 3533.6428571428573 786.777616251223 3555.4387755102043 787.2996583717713 3577.234693877551 787.618537873506 3599.030612244898 787.5170102748218 3620.826530612245 787.8180633391596 3642.622448979592 787.8975793566815 3664.418367346939 788.0511809237687 3686.214285714286 788.5260313684701 3708.0102040816328 789.1007508003959 3729.8061224489797 789.5483223673614 3751.6020408163267 789.7270984819011 3773.3979591836733 789.5346539181728 3795.1938775510203 788.064069053389 3816.9897959183672 786.9316254516905 3838.785714285714 785.3813296257167 3860.581632653061 785.3332769215773 3882.377551020408 778.9439765467624 3904.173469387755 776.5119637903555 3925.969387755102 776.3609674251002 3947.765306122449 776.3465392709672 3969.5612244897957 776.3453368808368 3991.357142857143 776.3680200175993 4013.1530612244896 774.0176159604634 4034.9489795918366 773.0047654751563 4056.7448979591836 772.995900100849 4078.5408163265306 771.7976640891548 4100.336734693878 768.908358113137 4122.132653061224 767.9192079463141 4143.928571428572 766.8567475951404 4165.724489795918 766.8609306167309 4187.5204081632655 764.4897401031296 4209.316326530612 764.3547678374432 4231.1122448979595 764.3768419479462 4252.908163265306 764.3156850172985 4274.7040816326535 759.380873288005 4296.5 757.9113031477688 4296.5 531.3268574465264 4274.7040816326535 531.4166307781715 4252.908163265306 531.7572224646864 4231.1122448979595 531.7708483166984 4209.316326530612 531.8218985108718 4187.5204081632655 531.9849023445704 4165.724489795918 531.7935729648713 4143.928571428572 531.7864321784326 4122.132653061224 531.5727707842481 4100.336734693878 531.4390936505183 4078.5408163265306 532.2027211748189 4056.7448979591836 532.4711028871407 4034.9489795918366 532.4751666451237 4013.1530612244896 532.6424401194076 3991.357142857143 532.3819588718641 3969.5612244897957 532.3762321494829 3947.765306122449 532.3835012006392 3925.969387755102 532.4008414612442 3904.173469387755 531.9653947132791 3882.377551020408 532.7065148297092 3860.581632653061 534.1646402996798 3838.785714285714 534.1813437994358 3816.9897959183672 534.0614406876781 3795.1938775510203 533.9651928337187 3773.3979591836733 533.7866116772315 3751.6020408163267 533.5868149898097 3729.8061224489797 533.4688532767087 3708.0102040816328 533.0768238550941 3686.214285714286 532.663421242623 3664.418367346939 532.2348192575948 3642.622448979592 532.1820957819215 3620.826530612245 532.3681470809754 3599.030612244898 532.5201668090683 3577.234693877551 532.4238251729188 3555.4387755102043 532.3835949473919 3533.6428571428573 531.9915975411402 3511.8469387755104 531.7252849940928 3490.0510204081634 531.7204662326122 3468.2551020408164 531.6284996533559 3446.4591836734694 531.5339960022333 3424.6632653061224 531.0725093725605 3402.8673469387754 531.2499409458121 3381.0714285714284 531.650700660379 3359.2755102040815 531.7063634722977 3337.4795918367345 531.7405716149474 3315.683673469388 531.5084515547419 3293.887755102041 531.1868422316874 3272.091836734694 530.9096071067933 3250.295918367347 530.6457625647856 3228.5 530.2115588422516 3228.5 785.683921505688Z" fill="#005aa6" opacity="0.9" />
		</g>
		<g>
			<path d="M3228.5 530.2115588422516 3250.295918367347 530.6457625647856 3272.091836734694 530.9096071067933 3293.887755102041 531.1868422316874 3315.683673469388 531.5084515547419 3337.4795918367345 531.7405716149474 3359.2755102040815 531.7063634722977 3381.0714285714284 531.650700660379 3402.8673469387754 531.2499409458121 3424.6632653061224 531.0725093725605 3446.4591836734694 531.5339960022333 3468.2551020408164 531.6284996533559 3490.0510204081634 531.7204662326122 3511.8469387755104 531.7252849940928 3533.6428571428573 531.9915975411402 3555.4387755102043 532.3835949473919 3577.234693877551 532.4238251729188 3599.030612244898 532.5201668090683 3620.826530612245 532.3681470809754 3642.622448979592 532.1820957819215 3664.418367346939 532.2348192575948 3686.214285714286 532.663421242623 3708.0102040816328 533.0768238550941 3729.8061224489797 533.4688532767087 3751.6020408163267 533.5868149898097 3773.3979591836733 533.7866116772315 3795.1938775510203 533.9651928337187 3816.9897959183672 534.0614406876781 3838.785714285714 534.1813437994358 3860.581632653061 534.1646402996798 3882.377551020408 532.7065148297092 3904.173469387755 531.9653947132791 3925.969387755102 532.4008414612442 3947.765306122449 532.3835012006392 3969.5612244897957 532.3762321494829 3991.357142857143 532.3819588718641 4013.1530612244896 532.6424401194076 4034.9489795918366 532.4751666451237 4056.7448979591836 532.4711028871407 4078.5408163265306 532.2027211748189 4100.336734693878 531.4390936505183 4122.132653061224 531.5727707842481 4143.928571428572 531.7864321784326 4165.724489795918 531.7935729648713 4187.5204081632655 531.9849023445704 4209.316326530612 531.8218985108718 4231.1122448979595 531.7708483166984 4252.908163265306 531.7572224646864 4274.7040816326535 531.4166307781715 4296.5 531.3268574465264 4296.5 491.64116500384506 4274.7040816326535 491.78456573649515 4252.908163265306 491.92955522350275 4231.1122448979595 491.93920435370626 4209.316326530612 491.9768227136466 4187.5204081632655 492.1505952348429 4165.724489795918 491.85600669794854 4143.928571428572 491.8513930148632 4122.132653061224 491.63219577145946 4100.336734693878 491.4978977886208 4078.5408163265306 491.99009410225506 4056.7448979591836 492.16551794945576 4034.9489795918366 492.1686259707535 4013.1530612244896 492.21654806017045 3991.357142857143 491.7116461371828 3969.5612244897957 491.70767780671554 3947.765306122449 491.71346164432515 3925.969387755102 491.7282826494978 3904.173469387755 491.33050875804906 3882.377551020408 491.76141449343754 3860.581632653061 492.74242973299926 3838.785714285714 492.75457857238825 3816.9897959183672 492.5918650008465 3795.1938775510203 492.35892132336346 3773.3979591836733 492.0889325160488 3751.6020408163267 491.69189364771574 3729.8061224489797 491.3732427741912 3708.0102040816328 490.8088740577118 3686.214285714286 490.31149608874114 3664.418367346939 489.77877115088484 3642.622448979592 489.5616092932336 3620.826530612245 489.5397849514939 3599.030612244898 489.5595335703314 3577.234693877551 489.2933239946325 3555.4387755102043 489.0834397469836 3533.6428571428573 488.66304187283265 3511.8469387755104 488.3428044802121 3490.0510204081634 488.19986039125524 3468.2551020408164 488.0196039547259 3446.4591836734694 487.9026766907719 3424.6632653061224 487.52222153261044 3402.8673469387754 487.70696592491663 3381.0714285714284 488.0115104957247 3359.2755102040815 487.963793616364 3337.4795918367345 487.98949737367803 3315.683673469388 487.70292525839443 3293.887755102041 487.3692026626984 3272.091836734694 487.1072160964907 3250.295918367347 486.9097754632236 3228.5 486.6466810104104 3228.5 530.2115588422516Z" fill="#55c0e9" opacity="0.9" />
		</g>
		<g>
			<path d="M3228.5 486.6466810104104 3250.295918367347 486.9097754632236 3272.091836734694 487.1072160964907 3293.887755102041 487.3692026626984 3315.683673469388 487.70292525839443 3337.4795918367345 487.98949737367803 3359.2755102040815 487.963793616364 3381.0714285714284 488.0115104957247 3402.8673469387754 487.70696592491663 3424.6632653061224 487.52222153261044 3446.4591836734694 487.9026766907719 3468.2551020408164 488.0196039547259 3490.0510204081634 488.19986039125524 3511.8469387755104 488.3428044802121 3533.6428571428573 488.66304187283265 3555.4387755102043 489.0834397469836 3577.234693877551 489.2933239946325 3599.030612244898 489.5595335703314 3620.826530612245 489.5397849514939 3642.622448979592 489.5616092932336 3664.418367346939 489.77877115088484 3686.214285714286 490.31149608874114 3708.0102040816328 490.8088740577118 3729.8061224489797 491.3732427741912 3751.6020408163267 491.69189364771574 3773.3979591836733 492.0889325160488 3795.1938775510203 492.35892132336346 3816.9897959183672 492.5918650008465 3838.785714285714 492.75457857238825 3860.581632653061 492.74242973299926 3882.377551020408 491.76141449343754 3904.173469387755 491.33050875804906 3925.969387755102 491.7282826494978 3947.765306122449 491.71346164432515 3969.5612244897957 491.70767780671554 3991.357142857143 491.7116461371828 4013.1530612244896 492.21654806017045 4034.9489795918366 492.1686259707535 4056.7448979591836 492.16551794945576 4078.5408163265306 491.99009410225506 4100.336734693878 491.4978977886208 4122.132653061224 491.63219577145946 4143.928571428572 491.8513930148632 4165.724489795918 491.85600669794854 4187.5204081632655 492.1505952348429 4209.316326530612 491.9768227136466 4231.1122448979595 491.93920435370626 4252.908163265306 491.92955522350275 4274.7040816326535 491.78456573649515 4296.5 491.64116500384506 4296.5 480.2698842349475 4274.7040816326535 480.4907637351383 4252.908163265306 480.4086170616429 4231.1122448979595 480.41676419469263 4209.316326530612 480.45029730465194 4187.5204081632655 480.6272134139708 4165.724489795918 480.40305013594224 4143.928571428572 480.39917600110454 4122.132653061224 480.2978208961403 4100.336734693878 480.1378211447884 4078.5408163265306 480.4875119170523 4056.7448979591836 480.62062646338103 4034.9489795918366 480.623498410782 4013.1530612244896 480.6254558284506 3991.357142857143 479.9434244465183 3969.5612244897957 479.939862628262 3947.765306122449 479.94505960714844 3925.969387755102 479.95902615881243 3904.173469387755 479.5505692873087 3882.377551020408 479.86304908787844 3860.581632653061 480.59388216933854 3838.785714285714 480.6043736648512 3816.9897959183672 480.3867647714376 3795.1938775510203 480.0939647438401 3773.3979591836733 479.7308663765565 3751.6020408163267 479.2808407307956 3729.8061224489797 478.9041807209399 3708.0102040816328 478.2910364979862 3686.214285714286 477.7828333755948 3664.418367346939 477.2431626623622 3642.622448979592 476.9834739801712 3620.826530612245 476.8973696844754 3599.030612244898 476.8748020982269 3577.234693877551 476.5669923893315 3555.4387755102043 476.3174497919625 3533.6428571428573 475.8998014736065 3511.8469387755104 475.5839065563437 3490.0510204081634 475.4761084872438 3468.2551020408164 475.3862262172437 3446.4591836734694 475.3370518496447 3424.6632653061224 475.01380165868795 3402.8673469387754 475.19871497996326 3381.0714285714284 475.4695361222137 3359.2755102040815 475.3984900629857 3337.4795918367345 475.42158037858417 3315.683673469388 475.17281446854633 3293.887755102041 474.89392113663916 3272.091836734694 474.6976120214668 3250.295918367347 474.5506870011159 3228.5 474.3398551157786 3228.5 486.6466810104104Z" fill="#f6a118" opacity="0.9" />
		</g>
		<g>
			<path d="M3228.5 474.3398551157786 3250.295918367347 474.5506870011159 3272.091836734694 474.6976120214668 3293.887755102041 474.89392113663916 3315.683673469388 475.17281446854633 3337.4795918367345 475.42158037858417 3359.2755102040815 475.3984900629857 3381.0714285714284 475.4695361222137 3402.8673469387754 475.19871497996326 3424.6632653061224 475.01380165868795 3446.4591836734694 475.3370518496447 3468.2551020408164 475.3862262172437 3490.0510204081634 475.4761084872438 3511.8469387755104 475.5839065563437 3533.6428571428573 475.8998014736065 3555.4387755102043 476.3174497919625 3577.234693877551 476.5669923893315 3599.030612244898 476.8748020982269 3620.826530612245 476.8973696844754 3642.622448979592 476.9834739801712 3664.418367346939 477.2431626623622 3686.214285714286 477.7828333755948 3708.0102040816328 478.2910364979862 3729.8061224489797 478.9041807209399 3751.6020408163267 479.2808407307956 3773.3979591836733 479.7308663765565 3795.1938775510203 480.0939647438401 3816.9897959183672 480.3867647714376 3838.785714285714 480.6043736648512 3860.581632653061 480.59388216933854 3882.377551020408 479.86304908787844 3904.173469387755 479.5505692873087 3925.969387755102 479.95902615881243 3947.765306122449 479.94505960714844 3969.5612244897957 479.939862628262 3991.357142857143 479.9434244465183 4013.1530612244896 480.6254558284506 4034.9489795918366 480.623498410782 4056.7448979591836 480.62062646338103 4078.5408163265306 480.4875119170523 4100.336734693878 480.1378211447884 4122.132653061224 480.2978208961403 4143.928571428572 480.39917600110454 4165.724489795918 480.40305013594224 4187.5204081632655 480.6272134139708 4209.316326530612 480.45029730465194 4231.1122448979595 480.41676419469263 4252.908163265306 480.4086170616429 4274.7040816326535 480.4907637351383 4296.5 480.2698842349475 4296.5 475.9675036747879 4274.7040816326535 476.1855240028958 4252.908163265306 476.0304088632991 4231.1122448979595 476.03986709155856 4209.316326530612 476.07416075277575 4187.5204081632655 476.25220661385714 4165.724489795918 475.9804259287693 4143.928571428572 475.9771097573116 4122.132653061224 475.85734943037994 4100.336734693878 475.67113203039463 4078.5408163265306 475.9445091636468 4056.7448979591836 476.0428252544268 4034.9489795918366 476.0456947164946 4013.1530612244896 476.0126442187972 3991.357142857143 475.2164345015217 3969.5612244897957 475.2129700329708 3947.765306122449 475.2181577191099 3925.969387755102 475.2322484984899 3904.173469387755 474.81810616673476 3882.377551020408 475.10657399076854 3860.581632653061 475.80132801818854 3838.785714285714 475.81236587515644 3816.9897959183672 475.5856075858726 3795.1938775510203 475.27426702627764 3773.3979591836733 474.8948962586183 3751.6020408163267 474.4350271056565 3729.8061224489797 474.05181534663 3708.0102040816328 473.42902823737313 3686.214285714286 472.9107308902232 3664.418367346939 472.36696232860294 3642.622448979592 472.1032861179079 3620.826530612245 472.0144834613813 3599.030612244898 471.9842446739753 3577.234693877551 471.6750167092698 3555.4387755102043 471.4189705364595 3533.6428571428573 471.014308300106 3511.8469387755104 470.70930139261014 3490.0510204081634 470.6068920841123 3468.2551020408164 470.536768979531 3446.4591836734694 470.512126738405 3424.6632653061224 470.2333783951094 3402.8673469387754 470.4295066297548 3381.0714285714284 470.71094768423825 3359.2755102040815 470.68875235151756 3337.4795918367345 470.711078323044 3315.683673469388 470.4984896905413 3293.887755102041 470.2545246926675 3272.091836734694 470.08674988315875 3250.295918367347 469.9671028094188 3228.5 469.8170248640352 3228.5 474.3398551157786Z" fill="#fdd5a4" opacity="0.9" />
		</g>
		<g>
			<path d="M3228.5 469.8170248640352 3250.295918367347 469.9671028094188 3272.091836734694 470.08674988315875 3293.887755102041 470.2545246926675 3315.683673469388 470.4984896905413 3337.4795918367345 470.711078323044 3359.2755102040815 470.68875235151756 3381.0714285714284 470.71094768423825 3402.8673469387754 470.4295066297548 3424.6632653061224 470.2333783951094 3446.4591836734694 470.512126738405 3468.2551020408164 470.536768979531 3490.0510204081634 470.6068920841123 3511.8469387755104 470.70930139261014 3533.6428571428573 471.014308300106 3555.4387755102043 471.4189705364595 3577.234693877551 471.6750167092698 3599.030612244898 471.9842446739753 3620.826530612245 472.0144834613813 3642.622448979592 472.1032861179079 3664.418367346939 472.36696232860294 3686.214285714286 472.9107308902232 3708.0102040816328 473.42902823737313 3729.8061224489797 474.05181534663 3751.6020408163267 474.4350271056565 3773.3979591836733 474.8948962586183 3795.1938775510203 475.27426702627764 3816.9897959183672 475.5856075858726 3838.785714285714 475.81236587515644 3860.581632653061 475.80132801818854 3882.377551020408 475.10657399076854 3904.173469387755 474.81810616673476 3925.969387755102 475.2322484984899 3947.765306122449 475.2181577191099 3969.5612244897957 475.2129700329708 3991.357142857143 475.2164345015217 4013.1530612244896 476.0126442187972 4034.9489795918366 476.0456947164946 4056.7448979591836 476.0428252544268 4078.5408163265306 475.9445091636468 4100.336734693878 475.67113203039463 4122.132653061224 475.85734943037994 4143.928571428572 475.9771097573116 4165.724489795918 475.9804259287693 4187.5204081632655 476.25220661385714 4209.316326530612 476.07416075277575 4231.1122448979595 476.03986709155856 4252.908163265306 476.0304088632991 4274.7040816326535 476.1855240028958 4296.5 475.9675036747879 4296.5 472.6948042788454 4274.7040816326535 472.8722901716775 4252.908163265306 472.3229333883161 4231.1122448979595 472.33160122478233 4209.316326530612 472.3663150934169 4187.5204081632655 472.5454339613937 4165.724489795918 472.089365302357 4143.928571428572 472.0865469044695 4122.132653061224 471.87656051033446 4100.336734693878 471.6164928135846 4078.5408163265306 471.7330711807051 4056.7448979591836 471.76332000605703 4034.9489795918366 471.766218855925 4013.1530612244896 471.666704132637 3991.357142857143 470.5946289838734 3969.5612244897957 470.5925960519466 3947.765306122449 470.5979497527046 3925.969387755102 470.6143953187705 3904.173469387755 470.16763283113994 3882.377551020408 470.4164498778376 3860.581632653061 471.0661628206815 3838.785714285714 471.07731696753683 3816.9897959183672 470.8209639445631 3795.1938775510203 470.4605146316375 3773.3979591836733 469.9795822434353 3751.6020408163267 469.45753010676304 3729.8061224489797 469.00707612997155 3708.0102040816328 468.3152661342126 3686.214285714286 467.73514405195505 3664.418367346939 467.13787830023045 3642.622448979592 466.8018186815908 3620.826530612245 466.6374618686549 3599.030612244898 466.54215183048984 3577.234693877551 466.2228711653022 3555.4387755102043 465.9001213956365 3533.6428571428573 465.4390074188502 3511.8469387755104 465.07678566777196 3490.0510204081634 464.9033783038482 3468.2551020408164 464.78158180585166 3446.4591836734694 464.7260968061159 3424.6632653061224 464.4723890087735 3402.8673469387754 464.6844034193931 3381.0714285714284 464.9715947829818 3359.2755102040815 464.9499237655363 3337.4795918367345 464.9713870250645 3315.683673469388 464.7567393127636 3293.887755102041 464.5132259653092 3272.091836734694 464.3461599383073 3250.295918367347 464.26375937292056 3228.5 464.2122032971037 3228.5 469.8170248640352Z" fill="#f48c7d" opacity="0.9" />
		</g>
		<g>
			<path d="M3228.5 464.2122032971037 3250.295918367347 464.26375937292056 3272.091836734694 464.3461599383073 3293.887755102041 464.5132259653092 3315.683673469388 464.7567393127636 3337.4795918367345 464.9713870250645 3359.2755102040815 464.9499237655363 3381.0714285714284 464.9715947829818 3402.8673469387754 464.6844034193931 3424.6632653061224 464.4723890087735 3446.4591836734694 464.7260968061159 3468.2551020408164 464.78158180585166 3490.0510204081634 464.9033783038482 3511.8469387755104 465.07678566777196 3533.6428571428573 465.4390074188502 3555.4387755102043 465.9001213956365 3577.234693877551 466.2228711653022 3599.030612244898 466.54215183048984 3620.826530612245 466.6374618686549 3642.622448979592 466.8018186815908 3664.418367346939 467.13787830023045 3686.214285714286 467.73514405195505 3708.0102040816328 468.3152661342126 3729.8061224489797 469.00707612997155 3751.6020408163267 469.45753010676304 3773.3979591836733 469.9795822434353 3795.1938775510203 470.4605146316375 3816.9897959183672 470.8209639445631 3838.785714285714 471.07731696753683 3860.581632653061 471.0661628206815 3882.377551020408 470.4164498778376 3904.173469387755 470.16763283113994 3925.969387755102 470.6143953187705 3947.765306122449 470.5979497527046 3969.5612244897957 470.5925960519466 3991.357142857143 470.5946289838734 4013.1530612244896 471.666704132637 4034.9489795918366 471.766218855925 4056.7448979591836 471.76332000605703 4078.5408163265306 471.7330711807051 4100.336734693878 471.6164928135846 4122.132653061224 471.87656051033446 4143.928571428572 472.0865469044695 4165.724489795918 472.089365302357 4187.5204081632655 472.5454339613937 4209.316326530612 472.3663150934169 4231.1122448979595 472.33160122478233 4252.908163265306 472.3229333883161 4274.7040816326535 472.8722901716775 4296.5 472.6948042788454 4296.5 397.99999999999994 4274.7040816326535 397.9999999999999 4252.908163265306 398 4231.1122448979595 398 4209.316326530612 398 4187.5204081632655 398.0000000000001 4165.724489795918 398 4143.928571428572 398 4122.132653061224 398.0000000000002 4100.336734693878 397.99999999999994 4078.5408163265306 398 4056.7448979591836 398.0000000000001 4034.9489795918366 398 4013.1530612244896 398.00000000000006 3991.357142857143 398.00000000000006 3969.5612244897957 397.99999999999994 3947.765306122449 398.00000000000017 3925.969387755102 398 3904.173469387755 398.00000000000017 3882.377551020408 397.9999999999999 3860.581632653061 397.9999999999999 3838.785714285714 398.0000000000001 3816.9897959183672 397.9999999999999 3795.1938775510203 398 3773.3979591836733 397.9999999999999 3751.6020408163267 397.9999999999999 3729.8061224489797 398 3708.0102040816328 397.9999999999999 3686.214285714286 398.0000000000001 3664.418367346939 397.99999999999994 3642.622448979592 398.0000000000001 3620.826530612245 398.0000000000001 3599.030612244898 398.0000000000001 3577.234693877551 398.0000000000001 3555.4387755102043 398 3533.6428571428573 398.00000000000006 3511.8469387755104 398 3490.0510204081634 398 3468.2551020408164 397.9999999999999 3446.4591836734694 397.9999999999999 3424.6632653061224 398 3402.8673469387754 398 3381.0714285714284 398 3359.2755102040815 398 3337.4795918367345 398.0000000000001 3315.683673469388 397.99999999999983 3293.887755102041 397.9999999999999 3272.091836734694 398.00000000000006 3250.295918367347 397.9999999999999 3228.5 397.9999999999999 3228.5 464.2122032971037Z" fill="#393d41" opacity="0.9" />
		</g>
		<g>
			<rect x="4372" y="431" width="22.9995" height="23" fill="#e62d39" />
		</g>
		<g>
			<text fill="#595959" font-family="Verdana,Open Sans,DejaVu Sans,sans-serif" font-weight="400" font-size="41" transform="matrix(1 0 0 1 4404.56 454)">Android</text>
		</g>
		<g>
			<rect x="4372" y="508" width="22.9995" height="23" fill="#005aa6" />
		</g>
		<g>
			<text fill="#595959" font-family="Verdana,Open Sans,DejaVu Sans,sans-serif" font-weight="400" font-size="41" transform="matrix(1 0 0 1 4404.56 531)">iOS</text>
		</g>
		<g>
			<rect x="4372" y="585" width="22.9995" height="23" fill="#55c0e9" />
		</g>
		<g>
			<text fill="#595959" font-family="Verdana,Open Sans,DejaVu Sans,sans-serif" font-weight="400" font-size="41" transform="matrix(1 0 0 1 4404.56 608)">Windows</text>
		</g>
		<g>
			<rect x="4372" y="662" width="22.9995" height="23" fill="#f6a118" />
		</g>
		<g>
			<text fill="#595959" font-family="Verdana,Open Sans,DejaVu Sans,sans-serif" font-weight="400" font-size="41" transform="matrix(1 0 0 1 4404.56 685)">macOS</text>
		</g>
		<g>
			<rect x="4372" y="739" width="22.9995" height="23" fill="#fdd5a4" />
		</g>
		<g>
			<text fill="#595959" font-family="Verdana,Open Sans,DejaVu Sans,sans-serif" font-weight="400" font-size="41" transform="matrix(1 0 0 1 4404.56 762)">Linux</text>
		</g>
		<g>
			<rect x="4372" y="816" width="22.9995" height="23" fill="#f48c7d" />
		</g>
		<g>
			<text fill="#595959" font-family="Verdana,Open Sans,DejaVu Sans,sans-serif" font-weight="400" font-size="41" transform="matrix(1 0 0 1 4404.56 839)">Other</text>
		</g>
		<g>
			<rect x="4372" y="893" width="22.9995" height="23" fill="#393d41" />
		</g>
		<g>
			<text fill="#595959" font-family="Verdana,Open Sans,DejaVu Sans,sans-serif" font-weight="400" font-size="41" transform="matrix(1 0 0 1 4404.56 916)">Unclassified</text>
		</g>
	</g>
</svg>
