<svg width="1763" height="1046"
    xmlns="http://www.w3.org/2000/svg"
	xmlns:xlink="http://www.w3.org/1999/xlink" xml:space="preserve" overflow="hidden">
	<defs>
		<clipPath id="clip0">
			<rect x="2917" y="346" width="1763" height="1046"/>
		</clipPath>
	</defs>
	<g clip-path="url(#clip0)" transform="translate(-2917 -346)">
		<rect x="2918" y="347" width="1760" height="1043" fill="#FFFFFF" />
		<g>
			<path d="
			M3228.5 974.532 4296.5 974.532
			M3228.5 910.53 4296.5 910.53
			M3228.5 846.528 4296.5 846.528
			M3228.5 781.526 4296.5 781.526
			M3228.5 717.524 4296.5 717.524
			M3228.5 653.522 4296.5 653.522
			M3228.5 589.52 4296.5 589.52
			M3228.5 525.517 4296.5 525.517
			M3228.5 461.515 4296.5 461.515
			M3228.5 397.5 4296.5 397.5" stroke="#D9D9D9" stroke-width="3.4375" stroke-linejoin="round" stroke-miterlimit="10" fill="none" />
		</g>
		<g>
			<path d="M 1038.5 4296.5 1038.5" stroke="#D9D9D9" stroke-width="3.4375" stroke-linejoin="round" stroke-miterlimit="10" fill="none" fill-rule="evenodd" />
		</g>
		<g>
			<text fill="#595959" font-family="Verdana,sans-serif" font-weight="400" font-size="41" transform="matrix(6.12323e-17 -1 1 6.12323e-17 3244.5 1210)">22-Jan</text>
		</g>
		<g>
			<text fill="#595959" font-family="Verdana,sans-serif" font-weight="400" font-size="41" transform="matrix(6.12323e-17 -1 1 6.12323e-17 3328.264705882353 1214)">19-Feb</text>
		</g>
		<g>
			<text fill="#595959" font-family="Verdana,sans-serif" font-weight="400" font-size="41" transform="matrix(6.12323e-17 -1 1 6.12323e-17 3412.029411764706 1221)">18-Mar</text>
		</g>
		<g>
			<text fill="#595959" font-family="Verdana,sans-serif" font-weight="400" font-size="41" transform="matrix(6.12323e-17 -1 1 6.12323e-17 3499.294117647059 1214)">15-Apr</text>
		</g>
		<g>
			<text fill="#595959" font-family="Verdana,sans-serif" font-weight="400" font-size="41" transform="matrix(6.12323e-17 -1 1 6.12323e-17 3583.0588235294117 1226)">13-May</text>
		</g>
		<g>
			<text fill="#595959" font-family="Verdana,sans-serif" font-weight="400" font-size="41" transform="matrix(6.12323e-17 -1 1 6.12323e-17 3663.323529411765 1209)">10-Jun</text>
		</g>
		<g>
			<text fill="#595959" font-family="Verdana,sans-serif" font-weight="400" font-size="41" transform="matrix(6.12323e-17 -1 1 6.12323e-17 3747.0882352941176 1197)">08-Jul</text>
		</g>
		<g>
			<text fill="#595959" font-family="Verdana,sans-serif" font-weight="400" font-size="41" transform="matrix(6.12323e-17 -1 1 6.12323e-17 3834.3529411764707 1221)">05-Aug</text>
		</g>
		<g>
			<text fill="#595959" font-family="Verdana,sans-serif" font-weight="400" font-size="41" transform="matrix(6.12323e-17 -1 1 6.12323e-17 3918.1176470588234 1222)">02-Sep</text>
		</g>
		<g>
			<text fill="#595959" font-family="Verdana,sans-serif" font-weight="400" font-size="41" transform="matrix(6.12323e-17 -1 1 6.12323e-17 4001.8823529411766 1221)">30-Sep</text>
		</g>
		<g>
			<text fill="#595959" font-family="Verdana,sans-serif" font-weight="400" font-size="41" transform="matrix(6.12323e-17 -1 1 6.12323e-17 4082.1470588235293 1215)">28-Oct</text>
		</g>
		<g>
			<text fill="#595959" font-family="Verdana,sans-serif" font-weight="400" font-size="41" transform="matrix(6.12323e-17 -1 1 6.12323e-17 4165.911764705882 1224)">25-Nov</text>
		</g>
		<g>
			<text fill="#595959" font-family="Verdana,sans-serif" font-weight="400" font-size="41" transform="matrix(6.12323e-17 -1 1 6.12323e-17 4249.676470588235 1222)">30-Dec</text>
		</g>
		<g>
			<text fill="#595959" font-family="Verdana,sans-serif" font-weight="400" font-size="41" transform="matrix(1 0 0 1 3123.5 1050)">0%</text>
		</g>
		<g>
			<text fill="#595959" font-family="Verdana,sans-serif" font-weight="400" font-size="41" transform="matrix(1 0 0 1 3097.5 922)">20%</text>
		</g>
		<g>
			<text fill="#595959" font-family="Verdana,sans-serif" font-weight="400" font-size="41" transform="matrix(1 0 0 1 3096.5 794)">40%</text>
		</g>
		<g>
			<text fill="#595959" font-family="Verdana,sans-serif" font-weight="400" font-size="41" transform="matrix(1 0 0 1 3097.5 666)">60%</text>
		</g>
		<g>
			<text fill="#595959" font-family="Verdana,sans-serif" font-weight="400" font-size="41" transform="matrix(1 0 0 1 3097.5 538)">80%</text>
		</g>
		<g>
			<text fill="#595959" font-family="Verdana,sans-serif" font-weight="400" font-size="41" transform="matrix(1 0 0 1 3074.5 410)">100%</text>
		</g>
		<g>
			<text fill="#595959" font-family="Verdana,sans-serif" font-weight="400" font-size="41" transform="matrix(1 0 0 1 3544.5 1321)">Week Commencing</text>
		</g>
		<g>
			<text fill="#595959" font-family="Verdana,sans-serif" font-weight="400" font-size="46" transform="matrix(6.12323e-17 -1 1 6.12323e-17 3019.73 965.25)">Requests (% of Total)</text>
		</g>
		<rect x="2918.5" y="347.5" width="1760" height="1043" stroke="#D9D9D9" stroke-width="3.4375" stroke-linejoin="round" stroke-miterlimit="10" fill="none" />
		<g>
			<path d="M3228.5 1038 3249.4411764705883 1038 3270.3823529411766 1038 3291.323529411765 1038 3312.264705882353 1038 3333.205882352941 1038 3354.1470588235293 1038 3375.0882352941176 1038 3396.029411764706 1038 3416.970588235294 1038 3437.9117647058824 1038 3458.8529411764707 1038 3479.794117647059 1038 3500.735294117647 1038 3521.676470588235 1038 3542.6176470588234 1038 3563.5588235294117 1038 3584.5 1038 3605.4411764705883 1038 3626.3823529411766 1038 3647.323529411765 1038 3668.264705882353 1038 3689.205882352941 1038 3710.1470588235293 1038 3731.0882352941176 1038 3752.029411764706 1038 3772.970588235294 1038 3793.9117647058824 1038 3814.8529411764707 1038 3835.7941176470586 1038 3856.735294117647 1038 3877.676470588235 1038 3898.6176470588234 1038 3919.5588235294117 1038 3940.5 1038 3961.4411764705883 1038 3982.3823529411766 1038 4003.323529411765 1038 4024.264705882353 1038 4045.2058823529414 1038 4066.1470588235293 1038 4087.0882352941176 1038 4108.029411764706 1038 4128.970588235294 1038 4149.911764705882 1038 4170.85294117647 1038 4191.794117647059 1038 4212.735294117647 1038 4233.676470588235 1038 4254.617647058823 1038 4275.558823529412 1038 4296.5 1038 4296.5 783.0275141890429 4275.558823529412 783.4492557109172 4254.617647058823 783.484387962271 4233.676470588235 783.2922413061176 4212.735294117647 783.1097274823168 4191.794117647059 783.0871417282395 4170.85294117647 782.9000115015447 4149.911764705882 782.5276373365637 4128.970588235294 782.6753667196651 4108.029411764706 783.1682641871979 4087.0882352941176 783.5277451200283 4066.1470588235293 783.7165926175173 4045.2058823529414 725.0579859810713 4024.264705882353 723.964272691857 4003.323529411765 722.9963838923263 3982.3823529411766 722.2500058248895 3961.4411764705883 721.3672257636031 3940.5 716.1347668638947 3919.5588235294117 714.9315603533947 3898.6176470588234 714.226459280052 3877.676470588235 714.4105060971157 3856.735294117647 713.9589728279007 3835.7941176470586 713.4392482120827 3814.8529411764707 712.9526784937428 3793.9117647058824 712.3235713382509 3772.970588235294 712.0748666907585 3752.029411764706 711.7892867662207 3731.0882352941176 711.2928421961317 3710.1470588235293 710.6616144923173 3689.205882352941 710.307171035662 3668.264705882353 710.0229260904226 3647.323529411765 709.5011500172373 3626.3823529411766 708.8529728655324 3605.4411764705883 708.5111643371398 3584.5 707.6773439344757 3563.5588235294117 706.7867985338357 3542.6176470588234 705.8245723100855 3521.676470588235 704.5432324401569 3500.735294117647 703.4985064623488 3479.794117647059 704.569443136712 3458.8529411764707 703.1605263419694 3437.9117647058824 701.7580858411745 3416.970588235294 700.4865286297146 3396.029411764706 707.5245129827832 3375.0882352941176 729.2395570213952 3354.1470588235293 728.9340901988301 3333.205882352941 728.9473274759466 3312.264705882353 728.5904699830792 3291.323529411765 728.3059690780326 3270.3823529411766 728.4979453773899 3249.4411764705883 728.9075512947094 3228.5 754.11838558625 3228.5 1038Z" fill="#e62d39" opacity="0.9" />
		</g>
		<g>
			<path d="M3228.5 754.11838558625 3249.4411764705883 728.9075512947094 3270.3823529411766 728.4979453773899 3291.323529411765 728.3059690780326 3312.264705882353 728.5904699830792 3333.205882352941 728.9473274759466 3354.1470588235293 728.9340901988301 3375.0882352941176 729.2395570213952 3396.029411764706 707.5245129827832 3416.970588235294 700.4865286297146 3437.9117647058824 701.7580858411745 3458.8529411764707 703.1605263419694 3479.794117647059 704.569443136712 3500.735294117647 703.4985064623488 3521.676470588235 704.5432324401569 3542.6176470588234 705.8245723100855 3563.5588235294117 706.7867985338357 3584.5 707.6773439344757 3605.4411764705883 708.5111643371398 3626.3823529411766 708.8529728655324 3647.323529411765 709.5011500172373 3668.264705882353 710.0229260904226 3689.205882352941 710.307171035662 3710.1470588235293 710.6616144923173 3731.0882352941176 711.2928421961317 3752.029411764706 711.7892867662207 3772.970588235294 712.0748666907585 3793.9117647058824 712.3235713382509 3814.8529411764707 712.9526784937428 3835.7941176470586 713.4392482120827 3856.735294117647 713.9589728279007 3877.676470588235 714.4105060971157 3898.6176470588234 714.226459280052 3919.5588235294117 714.9315603533947 3940.5 716.1347668638947 3961.4411764705883 721.3672257636031 3982.3823529411766 722.2500058248895 4003.323529411765 722.9963838923263 4024.264705882353 723.964272691857 4045.2058823529414 725.0579859810713 4066.1470588235293 783.7165926175173 4087.0882352941176 783.5277451200283 4108.029411764706 783.1682641871979 4128.970588235294 782.6753667196651 4149.911764705882 782.5276373365637 4170.85294117647 782.9000115015447 4191.794117647059 783.0871417282395 4212.735294117647 783.1097274823168 4233.676470588235 783.2922413061176 4254.617647058823 783.484387962271 4275.558823529412 783.4492557109172 4296.5 783.0275141890429 4296.5 531.6507006603789 4275.558823529412 531.7063634722977 4254.617647058823 531.7405716149474 4233.676470588235 531.5084515547419 4212.735294117647 531.1868422316874 4191.794117647059 530.9096071067931 4170.85294117647 530.6457625647856 4149.911764705882 530.2115588422516 4128.970588235294 530.3749323864379 4108.029411764706 530.816371903653 4087.0882352941176 531.5387166599613 4066.1470588235293 532.190445140906 4045.2058823529414 526.5102482737155 4024.264705882353 525.3174753042879 4003.323529411765 524.2802845879517 3982.3823529411766 523.1294380044525 3961.4411764705883 521.8575691422009 3940.5 514.1116307261946 3919.5588235294117 512.993987230213 3898.6176470588234 512.1677115640608 3877.676470588235 502.45546819630397 3856.735294117647 501.879791216212 3835.7941176470586 501.40460916879545 3814.8529411764707 500.8004852626943 3793.9117647058824 499.8853489758172 3772.970588235294 498.7859305783681 3752.029411764706 497.70686325871344 3731.0882352941176 496.45662763490196 3710.1470588235293 495.1622009511958 3689.205882352941 493.8933367325633 3668.264705882353 492.86935877863715 3647.323529411765 492.0646789770611 3626.3823529411766 491.29504574396447 3605.4411764705883 490.57523501016317 3584.5 490.03332941523763 3563.5588235294117 489.72310243427995 3542.6176470588234 489.48234403066954 3521.676470588235 489.1962201731323 3500.735294117647 488.9387742360814 3479.794117647059 492.7506429578374 3458.8529411764707 492.8155417521196 3437.9117647058824 493.0157563584153 3416.970588235294 493.39321289046876 3396.029411764706 506.9149616199791 3375.0882352941176 511.364965996509 3354.1470588235293 511.2846481599944 3333.205882352941 510.42831690773556 3312.264705882353 509.62004963115277 3291.323529411765 508.7614604393337 3270.3823529411766 509.353058075723 3249.4411764705883 509.9096403086422 3228.5 502.9834202621783 3228.5 754.11838558625Z" fill="#005aa6" opacity="0.9" />
		</g>
		<g>
			<path d="M3228.5 502.9834202621783 3249.4411764705883 509.9096403086422 3270.3823529411766 509.353058075723 3291.323529411765 508.7614604393337 3312.264705882353 509.62004963115277 3333.205882352941 510.42831690773556 3354.1470588235293 511.2846481599944 3375.0882352941176 511.364965996509 3396.029411764706 506.9149616199791 3416.970588235294 493.39321289046876 3437.9117647058824 493.0157563584153 3458.8529411764707 492.8155417521196 3479.794117647059 492.7506429578374 3500.735294117647 488.9387742360814 3521.676470588235 489.1962201731323 3542.6176470588234 489.48234403066954 3563.5588235294117 489.72310243427995 3584.5 490.03332941523763 3605.4411764705883 490.57523501016317 3626.3823529411766 491.29504574396447 3647.323529411765 492.0646789770611 3668.264705882353 492.86935877863715 3689.205882352941 493.8933367325633 3710.1470588235293 495.1622009511958 3731.0882352941176 496.45662763490196 3752.029411764706 497.70686325871344 3772.970588235294 498.7859305783681 3793.9117647058824 499.8853489758172 3814.8529411764707 500.8004852626943 3835.7941176470586 501.40460916879545 3856.735294117647 501.879791216212 3877.676470588235 502.45546819630397 3898.6176470588234 512.1677115640608 3919.5588235294117 512.993987230213 3940.5 514.1116307261946 3961.4411764705883 521.8575691422009 3982.3823529411766 523.1294380044525 4003.323529411765 524.2802845879517 4024.264705882353 525.3174753042879 4045.2058823529414 526.5102482737155 4066.1470588235293 532.190445140906 4087.0882352941176 531.5387166599613 4108.029411764706 530.816371903653 4128.970588235294 530.3749323864379 4149.911764705882 530.2115588422516 4170.85294117647 530.6457625647856 4191.794117647059 530.9096071067931 4212.735294117647 531.1868422316874 4233.676470588235 531.5084515547419 4254.617647058823 531.7405716149474 4275.558823529412 531.7063634722977 4296.5 531.6507006603789 4296.5 488.01151049572456 4275.558823529412 487.963793616364 4254.617647058823 487.98949737367803 4233.676470588235 487.70292525839443 4212.735294117647 487.3692026626984 4191.794117647059 487.10721609649056 4170.85294117647 486.9097754632236 4149.911764705882 486.6466810104104 4128.970588235294 486.8253712667305 4108.029411764706 487.1725552495906 4087.0882352941176 487.81344975744275 4066.1470588235293 488.4006750879141 4045.2058823529414 478.7456085402515 4024.264705882353 477.4222196163745 4003.323529411765 476.2604646154135 3982.3823529411766 475.0060216232253 3961.4411764705883 473.64144749214375 3940.5 473.2844498106347 3919.5588235294117 472.05917492318713 3898.6176470588234 471.07663748656995 3877.676470588235 461.2408535917636 3856.735294117647 460.48443100573536 3835.7941176470586 459.76604736337003 3814.8529411764707 458.9777407221724 3793.9117647058824 457.90939966851295 3772.970588235294 456.65452296321746 3752.029411764706 455.36215838852235 3731.0882352941176 453.9844912065713 3710.1470588235293 452.5053589477677 3689.205882352941 451.07476537844235 3668.264705882353 449.87375657582817 3647.323529411765 448.9328850656446 3626.3823529411766 448.0557909288758 3605.4411764705883 447.2525039284088 3584.5 446.6761477523823 3563.5588235294117 446.4456437459776 3542.6176470588234 446.28136252321144 3521.676470588235 446.10487752564853 3500.735294117647 445.9636538385128 3479.794117647059 450.12178949359264 3458.8529411764707 450.19759580620007 3437.9117647058824 450.31641232434566 3416.970588235294 450.53485482006914 3396.029411764706 465.04034483521883 3375.0882352941176 466.06050698928533 3354.1470588235293 466.040310950835 3333.205882352941 465.54550807778793 3312.264705882353 465.0596958871918 3291.323529411765 464.56231790755743 3270.3823529411766 464.9559197775319 3249.4411764705883 465.35219027138237 3228.5 461.61567429168343 3228.5 502.9834202621783Z" fill="#55c0e9" opacity="0.9" />
		</g>
		<g>
			<path d="M3228.5 461.61567429168343 3249.4411764705883 465.35219027138237 3270.3823529411766 464.9559197775319 3291.323529411765 464.56231790755743 3312.264705882353 465.0596958871918 3333.205882352941 465.54550807778793 3354.1470588235293 466.040310950835 3375.0882352941176 466.06050698928533 3396.029411764706 465.04034483521883 3416.970588235294 450.53485482006914 3437.9117647058824 450.31641232434566 3458.8529411764707 450.19759580620007 3479.794117647059 450.12178949359264 3500.735294117647 445.9636538385128 3521.676470588235 446.10487752564853 3542.6176470588234 446.28136252321144 3563.5588235294117 446.4456437459776 3584.5 446.6761477523823 3605.4411764705883 447.2525039284088 3626.3823529411766 448.0557909288758 3647.323529411765 448.9328850656446 3668.264705882353 449.87375657582817 3689.205882352941 451.07476537844235 3710.1470588235293 452.5053589477677 3731.0882352941176 453.9844912065713 3752.029411764706 455.36215838852235 3772.970588235294 456.65452296321746 3793.9117647058824 457.90939966851295 3814.8529411764707 458.9777407221724 3835.7941176470586 459.76604736337003 3856.735294117647 460.48443100573536 3877.676470588235 461.2408535917636 3898.6176470588234 471.07663748656995 3919.5588235294117 472.05917492318713 3940.5 473.2844498106347 3961.4411764705883 473.64144749214375 3982.3823529411766 475.0060216232253 4003.323529411765 476.2604646154135 4024.264705882353 477.4222196163745 4045.2058823529414 478.7456085402515 4066.1470588235293 488.4006750879141 4087.0882352941176 487.81344975744275 4108.029411764706 487.1725552495906 4128.970588235294 486.8253712667305 4149.911764705882 486.6466810104104 4170.85294117647 486.9097754632236 4191.794117647059 487.10721609649056 4212.735294117647 487.3692026626984 4233.676470588235 487.70292525839443 4254.617647058823 487.98949737367803 4275.558823529412 487.963793616364 4296.5 488.01151049572456 4296.5 475.4695361222136 4275.558823529412 475.3984900629857 4254.617647058823 475.42158037858417 4233.676470588235 475.17281446854633 4212.735294117647 474.89392113663916 4191.794117647059 474.6976120214667 4170.85294117647 474.5506870011159 4149.911764705882 474.3398551157786 4128.970588235294 474.4972746166898 4108.029411764706 474.8032929443811 4087.0882352941176 475.42643040944677 4066.1470588235293 475.9837074966003 4045.2058823529414 466.53633469676566 4024.264705882353 465.2033179049321 4003.323529411765 464.0399484926056 3982.3823529411766 462.7794187905808 3961.4411764705883 461.40786834513193 3940.5 460.8843773665021 3919.5588235294117 459.6546822545587 3898.6176470588234 458.6559421000703 3877.676470588235 448.8413613772234 3856.735294117647 448.0810719550874 3835.7941176470586 447.3247116817817 3814.8529411764707 446.5310952275203 3793.9117647058824 445.4598876638521 3772.970588235294 444.211812869573 3752.029411764706 442.9104603532568 3731.0882352941176 441.5224522868679 3710.1470588235293 440.02872439510173 3689.205882352941 438.5911754273753 3668.264705882353 437.36935007449506 3647.323529411765 436.4113820386986 3626.3823529411766 435.5243027869889 3605.4411764705883 434.7122259498071 3584.5 434.13110745861906 3563.5588235294117 433.9141397981283 3542.6176470588234 433.7506297603656 3521.676470588235 433.55919918545516 3500.735294117647 433.40054840431145 3479.794117647059 437.6127108681739 3458.8529411764707 437.66723491500807 3437.9117647058824 437.73656952866384 3416.970588235294 437.87360524960343 3396.029411764706 452.6366317106452 3375.0882352941176 450.90613014226784 3354.1470588235293 450.8850550677488 3333.205882352941 450.4868239386605 3312.264705882353 450.086582389552 3291.323529411765 449.68019116783887 3270.3823529411766 449.97158494345933 3249.4411764705883 450.2601617230179 3228.5 447.4043899537403 3228.5 461.61567429168343Z" fill="#f6a118" opacity="0.9" />
		</g>
		<g>
			<path d="M3228.5 447.4043899537403 3249.4411764705883 450.2601617230179 3270.3823529411766 449.97158494345933 3291.323529411765 449.68019116783887 3312.264705882353 450.086582389552 3333.205882352941 450.4868239386605 3354.1470588235293 450.8850550677488 3375.0882352941176 450.90613014226784 3396.029411764706 452.6366317106452 3416.970588235294 437.87360524960343 3437.9117647058824 437.73656952866384 3458.8529411764707 437.66723491500807 3479.794117647059 437.6127108681739 3500.735294117647 433.40054840431145 3521.676470588235 433.55919918545516 3542.6176470588234 433.7506297603656 3563.5588235294117 433.9141397981283 3584.5 434.13110745861906 3605.4411764705883 434.7122259498071 3626.3823529411766 435.5243027869889 3647.323529411765 436.4113820386986 3668.264705882353 437.36935007449506 3689.205882352941 438.5911754273753 3710.1470588235293 440.02872439510173 3731.0882352941176 441.5224522868679 3752.029411764706 442.9104603532568 3772.970588235294 444.211812869573 3793.9117647058824 445.4598876638521 3814.8529411764707 446.5310952275203 3835.7941176470586 447.3247116817817 3856.735294117647 448.0810719550874 3877.676470588235 448.8413613772234 3898.6176470588234 458.6559421000703 3919.5588235294117 459.6546822545587 3940.5 460.8843773665021 3961.4411764705883 461.40786834513193 3982.3823529411766 462.7794187905808 4003.323529411765 464.0399484926056 4024.264705882353 465.2033179049321 4045.2058823529414 466.53633469676566 4066.1470588235293 475.9837074966003 4087.0882352941176 475.42643040944677 4108.029411764706 474.8032929443811 4128.970588235294 474.4972746166898 4149.911764705882 474.3398551157786 4170.85294117647 474.5506870011159 4191.794117647059 474.6976120214667 4212.735294117647 474.89392113663916 4233.676470588235 475.17281446854633 4254.617647058823 475.42158037858417 4275.558823529412 475.3984900629857 4296.5 475.4695361222136 4296.5 469.73018322095714 4275.558823529412 469.6596614770044 4254.617647058823 469.68188908060466 4233.676470588235 469.43106409076864 4212.735294117647 469.15262240928087 4191.794117647059 468.95702207661526 4170.85294117647 468.84734356461763 4149.911764705882 468.7350335488471 4128.970588235294 468.9078882196251 4108.029411764706 469.2079498249524 4087.0882352941176 469.81130033797666 4066.1470588235293 470.38342727342314 4045.2058823529414 461.2444339081057 4024.264705882353 459.946755992067 4003.323529411765 458.8077681755944 3982.3823529411766 457.5593223229012 3961.4411764705883 456.2181048338814 3940.5 455.6431947463817 3919.5588235294117 454.47972281760985 3898.6176470588234 453.4905215300467 3877.676470588235 443.69596259487105 3856.735294117647 442.9470560831334 3835.7941176470586 442.18952771113993 3814.8529411764707 441.4102737359516 3793.9117647058824 440.35943056582056 3772.970588235294 439.1354625729624 3752.029411764706 437.84119270046506 3731.0882352941176 436.45931716608146 3710.1470588235293 434.9725271047773 3689.205882352941 433.5415615660502 3668.264705882353 432.3203932157333 3647.323529411765 431.3782566408658 3626.3823529411766 430.5117297264795 3605.4411764705883 429.7249311165208 3584.5 429.1613894967009 3563.5588235294117 428.96097997032933 3542.6176470588234 428.8105160166967 3521.676470588235 428.64236977976526 3500.735294117647 428.50399955057856 3479.794117647059 432.7535502158639 3458.8529411764707 432.80627389640455 3437.9117647058824 432.8676017835308 3416.970588235294 432.98806566692065 3396.029411764706 447.8607653758795 3375.0882352941176 445.04971196915034 3354.1470588235293 445.0840675736475 3333.205882352941 444.7823876121957 3312.264705882353 444.47619554519974 3291.323529411765 444.146022913635 3270.3823529411766 444.4117939256318 3249.4411764705883 444.6840228236209 3228.5 442.25084027575355 3228.5 447.4043899537403Z" fill="#fdd5a4" opacity="0.9" />
		</g>
		<g>
			<path d="M3228.5 442.25084027575355 3249.4411764705883 444.6840228236209 3270.3823529411766 444.4117939256318 3291.323529411765 444.146022913635 3312.264705882353 444.47619554519974 3333.205882352941 444.7823876121957 3354.1470588235293 445.0840675736475 3375.0882352941176 445.04971196915034 3396.029411764706 447.8607653758795 3416.970588235294 432.98806566692065 3437.9117647058824 432.8676017835308 3458.8529411764707 432.80627389640455 3479.794117647059 432.7535502158639 3500.735294117647 428.50399955057856 3521.676470588235 428.64236977976526 3542.6176470588234 428.8105160166967 3563.5588235294117 428.96097997032933 3584.5 429.1613894967009 3605.4411764705883 429.7249311165208 3626.3823529411766 430.5117297264795 3647.323529411765 431.3782566408658 3668.264705882353 432.3203932157333 3689.205882352941 433.5415615660502 3710.1470588235293 434.9725271047773 3731.0882352941176 436.45931716608146 3752.029411764706 437.84119270046506 3772.970588235294 439.1354625729624 3793.9117647058824 440.35943056582056 3814.8529411764707 441.4102737359516 3835.7941176470586 442.18952771113993 3856.735294117647 442.9470560831334 3877.676470588235 443.69596259487105 3898.6176470588234 453.4905215300467 3919.5588235294117 454.47972281760985 3940.5 455.6431947463817 3961.4411764705883 456.2181048338814 3982.3823529411766 457.5593223229012 4003.323529411765 458.8077681755944 4024.264705882353 459.946755992067 4045.2058823529414 461.2444339081057 4066.1470588235293 470.38342727342314 4087.0882352941176 469.81130033797666 4108.029411764706 469.2079498249524 4128.970588235294 468.9078882196251 4149.911764705882 468.7350335488471 4170.85294117647 468.84734356461763 4191.794117647059 468.95702207661526 4212.735294117647 469.15262240928087 4233.676470588235 469.43106409076864 4254.617647058823 469.68188908060466 4275.558823529412 469.6596614770044 4296.5 469.73018322095714 4296.5 464.9715947829817 4275.558823529412 464.9499237655363 4254.617647058823 464.9713870250645 4233.676470588235 464.7567393127636 4212.735294117647 464.5132259653092 4191.794117647059 464.3461599383072 4170.85294117647 464.26375937292056 4149.911764705882 464.2122032971037 4128.970588235294 464.3963627005436 4108.029411764706 464.69518296460524 4087.0882352941176 465.29095095509365 4066.1470588235293 465.86857631542375 4045.2058823529414 457.9426597886813 4024.264705882353 456.6504617863283 4003.323529411765 455.5173638999522 3982.3823529411766 454.27397669951574 3961.4411764705883 452.9422128623981 3940.5 452.3392658302522 3919.5588235294117 451.1914920386467 3898.6176470588234 450.1807388631146 3877.676470588235 440.3988808972397 3856.735294117647 439.6628015961259 3835.7941176470586 438.90968576505173 3814.8529411764707 438.1368838719703 3793.9117647058824 437.09878380068074 3772.970588235294 435.88818645509696 3752.029411764706 434.59694513524136 3731.0882352941176 433.22158409139143 3710.1470588235293 431.7348695488416 3689.205882352941 430.30784750779037 3668.264705882353 429.09159001631633 3647.323529411765 428.1595197737724 3626.3823529411766 427.30225741502903 3605.4411764705883 426.52676679830296 3584.5 425.97200661481094 3563.5588235294117 425.7866796521752 3542.6176470588234 425.65149111446993 3521.676470588235 425.49532897112516 3500.735294117647 425.3719419226974 3479.794117647059 429.64793603777895 3458.8529411764707 429.7004140998976 3437.9117647058824 429.76313464334123 3416.970588235294 429.88054742773767 3396.029411764706 444.82124955246854 3375.0882352941176 441.7030292243726 3354.1470588235293 441.7535822416807 3333.205882352941 441.49228637208546 3312.264705882353 441.22475501262005 3291.323529411765 440.9301919465814 3270.3823529411766 441.18998724924035 3249.4411764705883 441.4614784607988 3228.5 438.541557440145 3228.5 442.25084027575355Z" fill="#f48c7d" opacity="0.9" />
		</g>
		<g>
			<path d="M3228.5 438.541557440145 3249.4411764705883 441.4614784607988 3270.3823529411766 441.18998724924035 3291.323529411765 440.9301919465814 3312.264705882353 441.22475501262005 3333.205882352941 441.49228637208546 3354.1470588235293 441.7535822416807 3375.0882352941176 441.7030292243726 3396.029411764706 444.82124955246854 3416.970588235294 429.88054742773767 3437.9117647058824 429.76313464334123 3458.8529411764707 429.7004140998976 3479.794117647059 429.64793603777895 3500.735294117647 425.3719419226974 3521.676470588235 425.49532897112516 3542.6176470588234 425.65149111446993 3563.5588235294117 425.7866796521752 3584.5 425.97200661481094 3605.4411764705883 426.52676679830296 3626.3823529411766 427.30225741502903 3647.323529411765 428.1595197737724 3668.264705882353 429.09159001631633 3689.205882352941 430.30784750779037 3710.1470588235293 431.7348695488416 3731.0882352941176 433.22158409139143 3752.029411764706 434.59694513524136 3772.970588235294 435.88818645509696 3793.9117647058824 437.09878380068074 3814.8529411764707 438.1368838719703 3835.7941176470586 438.90968576505173 3856.735294117647 439.6628015961259 3877.676470588235 440.3988808972397 3898.6176470588234 450.1807388631146 3919.5588235294117 451.1914920386467 3940.5 452.3392658302522 3961.4411764705883 452.9422128623981 3982.3823529411766 454.27397669951574 4003.323529411765 455.5173638999522 4024.264705882353 456.6504617863283 4045.2058823529414 457.9426597886813 4066.1470588235293 465.86857631542375 4087.0882352941176 465.29095095509365 4108.029411764706 464.69518296460524 4128.970588235294 464.3963627005436 4149.911764705882 464.2122032971037 4170.85294117647 464.26375937292056 4191.794117647059 464.3461599383072 4212.735294117647 464.5132259653092 4233.676470588235 464.7567393127636 4254.617647058823 464.9713870250645 4275.558823529412 464.9499237655363 4296.5 464.9715947829817 4296.5 397.9999999999999 4275.558823529412 398 4254.617647058823 398.0000000000001 4233.676470588235 397.99999999999983 4212.735294117647 397.9999999999999 4191.794117647059 397.99999999999994 4170.85294117647 397.9999999999999 4149.911764705882 397.9999999999999 4128.970588235294 397.99999999999994 4108.029411764706 398 4087.0882352941176 397.99999999999994 4066.1470588235293 398 4045.2058823529414 397.9999999999999 4024.264705882353 397.9999999999999 4003.323529411765 397.9999999999998 3982.3823529411766 398 3961.4411764705883 398 3940.5 398.00000000000006 3919.5588235294117 398.0000000000002 3898.6176470588234 398 3877.676470588235 397.99999999999994 3856.735294117647 398 3835.7941176470586 398.0000000000001 3814.8529411764707 398.00000000000006 3793.9117647058824 397.99999999999994 3772.970588235294 397.99999999999994 3752.029411764706 398.00000000000006 3731.0882352941176 397.99999999999994 3710.1470588235293 398.00000000000017 3689.205882352941 397.99999999999994 3668.264705882353 397.99999999999994 3647.323529411765 398 3626.3823529411766 398 3605.4411764705883 398.00000000000017 3584.5 398 3563.5588235294117 398.00000000000006 3542.6176470588234 397.9999999999999 3521.676470588235 398 3500.735294117647 397.99999999999994 3479.794117647059 398.00000000000006 3458.8529411764707 398.0000000000001 3437.9117647058824 398.00000000000006 3416.970588235294 398.00000000000006 3396.029411764706 398.0000000000001 3375.0882352941176 398.0000000000001 3354.1470588235293 398 3333.205882352941 398 3312.264705882353 397.99999999999994 3291.323529411765 397.9999999999999 3270.3823529411766 398.0000000000001 3249.4411764705883 397.99999999999994 3228.5 398 3228.5 438.541557440145Z" fill="#393d41" opacity="0.9" />
		</g>
		<g>
			<rect x="4372" y="431" width="22.9995" height="23" fill="#e62d39" />
		</g>
		<g>
			<text fill="#595959" font-family="Verdana,sans-serif" font-weight="400" font-size="41" transform="matrix(1 0 0 1 4404.56 454)">iOS</text>
		</g>
		<g>
			<rect x="4372" y="508" width="22.9995" height="23" fill="#005aa6" />
		</g>
		<g>
			<text fill="#595959" font-family="Verdana,sans-serif" font-weight="400" font-size="41" transform="matrix(1 0 0 1 4404.56 531)">Android</text>
		</g>
		<g>
			<rect x="4372" y="585" width="22.9995" height="23" fill="#55c0e9" />
		</g>
		<g>
			<text fill="#595959" font-family="Verdana,sans-serif" font-weight="400" font-size="41" transform="matrix(1 0 0 1 4404.56 608)">Windows</text>
		</g>
		<g>
			<rect x="4372" y="662" width="22.9995" height="23" fill="#f6a118" />
		</g>
		<g>
			<text fill="#595959" font-family="Verdana,sans-serif" font-weight="400" font-size="41" transform="matrix(1 0 0 1 4404.56 685)">macOS</text>
		</g>
		<g>
			<rect x="4372" y="739" width="22.9995" height="23" fill="#fdd5a4" />
		</g>
		<g>
			<text fill="#595959" font-family="Verdana,sans-serif" font-weight="400" font-size="41" transform="matrix(1 0 0 1 4404.56 762)">Other</text>
		</g>
		<g>
			<rect x="4372" y="816" width="22.9995" height="23" fill="#f48c7d" />
		</g>
		<g>
			<text fill="#595959" font-family="Verdana,sans-serif" font-weight="400" font-size="41" transform="matrix(1 0 0 1 4404.56 839)">Linux</text>
		</g>
		<g>
			<rect x="4372" y="893" width="22.9995" height="23" fill="#393d41" />
		</g>
		<g>
			<text fill="#595959" font-family="Verdana,sans-serif" font-weight="400" font-size="41" transform="matrix(1 0 0 1 4404.56 916)">Unclassified</text>
		</g>
	</g>
</svg>
