<svg width="1763" height="1046"
    xmlns="http://www.w3.org/2000/svg"
	xmlns:xlink="http://www.w3.org/1999/xlink" xml:space="preserve" overflow="hidden">
	<defs>
		<clipPath id="clip0">
			<rect x="2917" y="346" width="1763" height="1046"/>
		</clipPath>
	</defs>
	<g clip-path="url(#clip0)" transform="translate(-2917 -346)">
		<rect x="2918" y="347" width="1760" height="1043" fill="#FFFFFF" />
		<g>
			<path d="
			M3228.5 974.532 4296.5 974.532
			M3228.5 910.53 4296.5 910.53
			M3228.5 846.528 4296.5 846.528
			M3228.5 781.526 4296.5 781.526
			M3228.5 717.524 4296.5 717.524
			M3228.5 653.522 4296.5 653.522
			M3228.5 589.52 4296.5 589.52
			M3228.5 525.517 4296.5 525.517
			M3228.5 461.515 4296.5 461.515
			M3228.5 397.5 4296.5 397.5" stroke="#D9D9D9" stroke-width="3.4375" stroke-linejoin="round" stroke-miterlimit="10" fill="none" />
		</g>
		<g>
			<path d="M 1038.5 4296.5 1038.5" stroke="#D9D9D9" stroke-width="3.4375" stroke-linejoin="round" stroke-miterlimit="10" fill="none" fill-rule="evenodd" />
		</g>
		<g>
			<text fill="#595959" font-family="Verdana,Open Sans,DejaVu Sans,sans-serif" font-weight="400" font-size="41" transform="matrix(6.12323e-17 -1 1 6.12323e-17 3247.21826171875 1194.1733322143555)">30-Jun</text>
		</g>
		<g>
			<text fill="#595959" font-family="Verdana,Open Sans,DejaVu Sans,sans-serif" font-weight="400" font-size="41" transform="matrix(6.12323e-17 -1 1 6.12323e-17 3330.082801231971 1179.0385665893555)">28-Jul</text>
		</g>
		<g>
			<text fill="#595959" font-family="Verdana,Open Sans,DejaVu Sans,sans-serif" font-weight="400" font-size="41" transform="matrix(6.12323e-17 -1 1 6.12323e-17 3412.5769794170674 1208.66748046875)">25-Aug</text>
		</g>
		<g>
			<text fill="#595959" font-family="Verdana,Open Sans,DejaVu Sans,sans-serif" font-weight="400" font-size="41" transform="matrix(6.12323e-17 -1 1 6.12323e-17 3494.7308255709136 1204.42333984375)">22-Sep</text>
		</g>
		<g>
			<text fill="#595959" font-family="Verdana,Open Sans,DejaVu Sans,sans-serif" font-weight="400" font-size="41" transform="matrix(6.12323e-17 -1 1 6.12323e-17 3572.1800818810098 1201.1401290893555)">20-Oct</text>
		</g>
		<g>
			<text fill="#595959" font-family="Verdana,Open Sans,DejaVu Sans,sans-serif" font-weight="400" font-size="41" transform="matrix(6.12323e-17 -1 1 6.12323e-17 3654.103703425481 1209.70849609375)">17-Nov</text>
		</g>
		<g>
			<text fill="#595959" font-family="Verdana,Open Sans,DejaVu Sans,sans-serif" font-weight="400" font-size="41" transform="matrix(6.12323e-17 -1 1 6.12323e-17 3736.257549579327 1205.3642578125)">15-Dec</text>
		</g>
		<g>
			<text fill="#595959" font-family="Verdana,Open Sans,DejaVu Sans,sans-serif" font-weight="400" font-size="41" transform="matrix(6.12323e-17 -1 1 6.12323e-17 3822.275165264423 1189.9291915893555)">12-Jan</text>
		</g>
		<g>
			<text fill="#595959" font-family="Verdana,Open Sans,DejaVu Sans,sans-serif" font-weight="400" font-size="41" transform="matrix(6.12323e-17 -1 1 6.12323e-17 3901.5061598557695 1203.0419921875)">09-Feb</text>
		</g>
		<g>
			<text fill="#595959" font-family="Verdana,Open Sans,DejaVu Sans,sans-serif" font-weight="400" font-size="41" transform="matrix(6.12323e-17 -1 1 6.12323e-17 3982.9493126502402 1212.0107421875)">09-Mar</text>
		</g>
		<g>
			<text fill="#595959" font-family="Verdana,Open Sans,DejaVu Sans,sans-serif" font-weight="400" font-size="41" transform="matrix(6.12323e-17 -1 1 6.12323e-17 4069.827768179087 1203.2621994018555)">06-Apr</text>
		</g>
		<g>
			<text fill="#595959" font-family="Verdana,Open Sans,DejaVu Sans,sans-serif" font-weight="400" font-size="41" transform="matrix(6.12323e-17 -1 1 6.12323e-17 4151.981614332933 1216.47509765625)">04-May</text>
		</g>
		<g>
			<text fill="#595959" font-family="Verdana,Open Sans,DejaVu Sans,sans-serif" font-weight="400" font-size="41" transform="matrix(6.12323e-17 -1 1 6.12323e-17 4233.064415564904 1194.0131759643555)">01-Jun</text>
		</g>
		<g>
			<text fill="#595959" font-family="Verdana,Open Sans,DejaVu Sans,sans-serif" font-weight="400" font-size="41" transform="matrix(6.12323e-17 -1 1 6.12323e-17 4315.1982421875 1194.0532150268555)">29-Jun</text>
		</g>
		<g>
			<text fill="#595959" font-family="Verdana,Open Sans,DejaVu Sans,sans-serif" font-weight="400" font-size="41" transform="matrix(1 0 0 1 3135.4482421875 1050)">0%</text>
		</g>
		<g>
			<text fill="#595959" font-family="Verdana,Open Sans,DejaVu Sans,sans-serif" font-weight="400" font-size="41" transform="matrix(1 0 0 1 3111.96533203125 922)">20%</text>
		</g>
		<g>
			<text fill="#595959" font-family="Verdana,Open Sans,DejaVu Sans,sans-serif" font-weight="400" font-size="41" transform="matrix(1 0 0 1 3110.82421875 794)">40%</text>
		</g>
		<g>
			<text fill="#595959" font-family="Verdana,Open Sans,DejaVu Sans,sans-serif" font-weight="400" font-size="41" transform="matrix(1 0 0 1 3112.3056640625 666)">60%</text>
		</g>
		<g>
			<text fill="#595959" font-family="Verdana,Open Sans,DejaVu Sans,sans-serif" font-weight="400" font-size="41" transform="matrix(1 0 0 1 3112.04541015625 538)">80%</text>
		</g>
		<g>
			<text fill="#595959" font-family="Verdana,Open Sans,DejaVu Sans,sans-serif" font-weight="400" font-size="41" transform="matrix(1 0 0 1 3090.2841796875 410)">100%</text>
		</g>
		<g>
			<text fill="#595959" font-family="Verdana,Open Sans,DejaVu Sans,sans-serif" font-weight="400" font-size="41" transform="matrix(1 0 0 1 3556.97119140625 1321)">Week Commencing</text>
		</g>
		<g>
			<text fill="#595959" font-family="Verdana,Open Sans,DejaVu Sans,sans-serif" font-weight="400" font-size="46" transform="matrix(6.12323e-17 -1 1 6.12323e-17 3019.73 936.7665710449219)">Requests (% of Total)</text>
		</g>
		<rect x="2918.5" y="347.5" width="1760" height="1043" stroke="#D9D9D9" stroke-width="3.4375" stroke-linejoin="round" stroke-miterlimit="10" fill="none" />
		<g>
			<path d="M3228.5 1038 3249.0384615384614 1038 3269.576923076923 1038 3290.1153846153848 1038 3310.653846153846 1038 3331.1923076923076 1038 3351.730769230769 1038 3372.269230769231 1038 3392.8076923076924 1038 3413.346153846154 1038 3433.8846153846152 1038 3454.423076923077 1038 3474.9615384615386 1038 3495.5 1038 3516.0384615384614 1038 3536.576923076923 1038 3557.1153846153848 1038 3577.653846153846 1038 3598.1923076923076 1038 3618.7307692307695 1038 3639.269230769231 1038 3659.8076923076924 1038 3680.346153846154 1038 3700.8846153846152 1038 3721.423076923077 1038 3741.9615384615386 1038 3762.5 1038 3783.0384615384614 1038 3803.576923076923 1038 3824.1153846153848 1038 3844.653846153846 1038 3865.1923076923076 1038 3885.7307692307695 1038 3906.269230769231 1038 3926.8076923076924 1038 3947.346153846154 1038 3967.8846153846152 1038 3988.423076923077 1038 4008.9615384615386 1038 4029.5 1038 4050.038461538462 1038 4070.576923076923 1038 4091.1153846153848 1038 4111.653846153846 1038 4132.192307692308 1038 4152.7307692307695 1038 4173.2692307692305 1038 4193.807692307692 1038 4214.346153846154 1038 4234.884615384615 1038 4255.423076923077 1038 4275.961538461539 1038 4296.5 1038 4296.5 762.4414399317106 4275.961538461539 759.9840759561162 4255.423076923077 758.5336466989722 4234.884615384615 757.425801176804 4214.346153846154 754.7311760842077 4193.807692307692 754.7526261770736 4173.2692307692305 754.7905253112169 4152.7307692307695 753.5737063905224 4132.192307692308 752.5091044751014 4111.653846153846 751.1909604384529 4091.1153846153848 749.859206747301 4070.576923076923 750.3443908538584 4050.038461538462 747.2654821077697 4029.5 746.5194038317675 4008.9615384615386 745.8055486763521 3988.423076923077 745.625269596429 3967.8846153846152 745.5837285424925 3947.346153846154 745.5518539372332 3926.8076923076924 745.5916587614981 3906.269230769231 745.6264248572595 3885.7307692307695 746.5726732254989 3865.1923076923076 746.8242705611495 3844.653846153846 746.4260841443786 3824.1153846153848 746.1408324365968 3803.576923076923 746.1086007114674 3783.0384615384614 746.7358843125422 3762.5 747.3561118905186 3741.9615384615386 749.7549747311173 3721.423076923077 751.708180030847 3700.8846153846152 751.761881610288 3680.346153846154 753.5875510114441 3659.8076923076924 760.0049069239963 3639.269230769231 757.9113031477688 3618.7307692307695 759.380873288005 3598.1923076923076 764.3156850172985 3577.653846153846 764.3768419479462 3557.1153846153848 764.3547678374432 3536.576923076923 764.4897401031296 3516.0384615384614 766.8609306167309 3495.5 766.8567475951404 3474.9615384615386 767.9192079463141 3454.423076923077 768.908358113137 3433.8846153846152 771.7976640891548 3413.346153846154 772.995900100849 3392.8076923076924 773.0047654751563 3372.269230769231 774.0176159604634 3351.730769230769 776.3680200175993 3331.1923076923076 776.3453368808368 3310.653846153846 776.3465392709672 3290.1153846153848 776.3609674251002 3269.576923076923 776.5119637903555 3249.0384615384614 778.9439765467624 3228.5 785.3332769215773 3228.5 1038Z" fill="#e62d39" opacity="0.9" />
		</g>
		<g>
			<path d="M3228.5 785.3332769215773 3249.0384615384614 778.9439765467624 3269.576923076923 776.5119637903555 3290.1153846153848 776.3609674251002 3310.653846153846 776.3465392709672 3331.1923076923076 776.3453368808368 3351.730769230769 776.3680200175993 3372.269230769231 774.0176159604634 3392.8076923076924 773.0047654751563 3413.346153846154 772.995900100849 3433.8846153846152 771.7976640891548 3454.423076923077 768.908358113137 3474.9615384615386 767.9192079463141 3495.5 766.8567475951404 3516.0384615384614 766.8609306167309 3536.576923076923 764.4897401031296 3557.1153846153848 764.3547678374432 3577.653846153846 764.3768419479462 3598.1923076923076 764.3156850172985 3618.7307692307695 759.380873288005 3639.269230769231 757.9113031477688 3659.8076923076924 760.0049069239963 3680.346153846154 753.5875510114441 3700.8846153846152 751.761881610288 3721.423076923077 751.708180030847 3741.9615384615386 749.7549747311173 3762.5 747.3561118905186 3783.0384615384614 746.7358843125422 3803.576923076923 746.1086007114674 3824.1153846153848 746.1408324365968 3844.653846153846 746.4260841443786 3865.1923076923076 746.8242705611495 3885.7307692307695 746.5726732254989 3906.269230769231 745.6264248572595 3926.8076923076924 745.5916587614981 3947.346153846154 745.5518539372332 3967.8846153846152 745.5837285424925 3988.423076923077 745.625269596429 4008.9615384615386 745.8055486763521 4029.5 746.5194038317675 4050.038461538462 747.2654821077697 4070.576923076923 750.3443908538584 4091.1153846153848 749.859206747301 4111.653846153846 751.1909604384529 4132.192307692308 752.5091044751014 4152.7307692307695 753.5737063905224 4173.2692307692305 754.7905253112169 4193.807692307692 754.7526261770736 4214.346153846154 754.7311760842077 4234.884615384615 757.425801176804 4255.423076923077 758.5336466989722 4275.961538461539 759.9840759561162 4296.5 762.4414399317106 4296.5 533.5130171253311 4275.961538461539 532.5772154009873 4255.423076923077 532.095600140126 4234.884615384615 531.7654388285994 4214.346153846154 531.3085827178397 4193.807692307692 531.3031911324066 4173.2692307692305 531.3007083398543 4152.7307692307695 531.2896928062746 4132.192307692308 531.4874215112181 4111.653846153846 531.6206852488414 4091.1153846153848 531.4824060530289 4070.576923076923 531.6690142595838 4050.038461538462 530.3351700422893 4029.5 530.1079562333385 4008.9615384615386 529.767884481243 3988.423076923077 529.5015251143122 3967.8846153846152 529.6072381711158 3947.346153846154 529.6759586106136 3926.8076923076924 528.943616141882 3906.269230769231 528.9256108228878 3885.7307692307695 529.7822561735807 3865.1923076923076 530.0318797750176 3844.653846153846 529.5742385244796 3824.1153846153848 529.1641691809261 3803.576923076923 529.1689859268577 3783.0384615384614 529.2185804117662 3762.5 529.5448927766422 3741.9615384615386 529.3666745800084 3721.423076923077 529.7448004770854 3700.8846153846152 529.7274153021705 3680.346153846154 530.163015188101 3659.8076923076924 532.2645239373791 3639.269230769231 531.3268574465264 3618.7307692307695 531.4166307781715 3598.1923076923076 531.7572224646864 3577.653846153846 531.7708483166984 3557.1153846153848 531.8218985108718 3536.576923076923 531.9849023445704 3516.0384615384614 531.7935729648713 3495.5 531.7864321784326 3474.9615384615386 531.5727707842481 3454.423076923077 531.4390936505183 3433.8846153846152 532.2027211748189 3413.346153846154 532.4711028871407 3392.8076923076924 532.4751666451237 3372.269230769231 532.6424401194076 3351.730769230769 532.3819588718641 3331.1923076923076 532.3762321494829 3310.653846153846 532.3835012006392 3290.1153846153848 532.4008414612442 3269.576923076923 531.9653947132791 3249.0384615384614 532.7065148297092 3228.5 534.1646402996798 3228.5 785.3332769215773Z" fill="#005aa6" opacity="0.9" />
		</g>
		<g>
			<path d="M3228.5 534.1646402996798 3249.0384615384614 532.7065148297092 3269.576923076923 531.9653947132791 3290.1153846153848 532.4008414612442 3310.653846153846 532.3835012006392 3331.1923076923076 532.3762321494829 3351.730769230769 532.3819588718641 3372.269230769231 532.6424401194076 3392.8076923076924 532.4751666451237 3413.346153846154 532.4711028871407 3433.8846153846152 532.2027211748189 3454.423076923077 531.4390936505183 3474.9615384615386 531.5727707842481 3495.5 531.7864321784326 3516.0384615384614 531.7935729648713 3536.576923076923 531.9849023445704 3557.1153846153848 531.8218985108718 3577.653846153846 531.7708483166984 3598.1923076923076 531.7572224646864 3618.7307692307695 531.4166307781715 3639.269230769231 531.3268574465264 3659.8076923076924 532.2645239373791 3680.346153846154 530.163015188101 3700.8846153846152 529.7274153021705 3721.423076923077 529.7448004770854 3741.9615384615386 529.3666745800084 3762.5 529.5448927766422 3783.0384615384614 529.2185804117662 3803.576923076923 529.1689859268577 3824.1153846153848 529.1641691809261 3844.653846153846 529.5742385244796 3865.1923076923076 530.0318797750176 3885.7307692307695 529.7822561735807 3906.269230769231 528.9256108228878 3926.8076923076924 528.943616141882 3947.346153846154 529.6759586106136 3967.8846153846152 529.6072381711158 3988.423076923077 529.5015251143122 4008.9615384615386 529.767884481243 4029.5 530.1079562333385 4050.038461538462 530.3351700422893 4070.576923076923 531.6690142595838 4091.1153846153848 531.4824060530289 4111.653846153846 531.6206852488414 4132.192307692308 531.4874215112181 4152.7307692307695 531.2896928062746 4173.2692307692305 531.3007083398543 4193.807692307692 531.3031911324066 4214.346153846154 531.3085827178397 4234.884615384615 531.7654388285994 4255.423076923077 532.095600140126 4275.961538461539 532.5772154009873 4296.5 533.5130171253311 4296.5 485.6796277406367 4275.961538461539 485.34909899972735 4255.423076923077 485.39948958456085 4234.884615384615 485.59231788424785 4214.346153846154 486.2135396268373 4193.807692307692 486.20900192755903 4173.2692307692305 486.20889715304327 4152.7307692307695 486.6118670637434 4132.192307692308 487.2177518598812 4111.653846153846 487.710660836673 4091.1153846153848 488.0571972463991 4070.576923076923 488.49331840138825 4050.038461538462 488.00156539342817 4029.5 487.9037558495532 4008.9615384615386 487.95222090418406 3988.423076923077 488.0992768689666 3967.8846153846152 488.4707685226323 3947.346153846154 488.81730930051134 3926.8076923076924 489.66218659583717 3906.269230769231 489.6497010215789 3885.7307692307695 489.62346831140377 3865.1923076923076 490.08709103844944 3844.653846153846 489.8264670604297 3824.1153846153848 489.6030568350501 3803.576923076923 489.6027851684956 3783.0384615384614 489.6838400376917 3762.5 490.1068496342023 3741.9615384615386 490.9492704753914 3721.423076923077 490.39407239534404 3700.8846153846152 490.3851968973204 3680.346153846154 490.7185530259544 3659.8076923076924 492.30515321923616 3639.269230769231 491.64116500384506 3618.7307692307695 491.78456573649515 3598.1923076923076 491.92955522350275 3577.653846153846 491.93920435370626 3557.1153846153848 491.9768227136466 3536.576923076923 492.1505952348429 3516.0384615384614 491.85600669794854 3495.5 491.8513930148632 3474.9615384615386 491.63219577145946 3454.423076923077 491.4978977886208 3433.8846153846152 491.99009410225506 3413.346153846154 492.16551794945576 3392.8076923076924 492.1686259707535 3372.269230769231 492.21654806017045 3351.730769230769 491.7116461371828 3331.1923076923076 491.70767780671554 3310.653846153846 491.71346164432515 3290.1153846153848 491.7282826494978 3269.576923076923 491.33050875804906 3249.0384615384614 491.76141449343754 3228.5 492.74242973299926 3228.5 534.1646402996798Z" fill="#55c0e9" opacity="0.9" />
		</g>
		<g>
			<path d="M3228.5 492.74242973299926 3249.0384615384614 491.76141449343754 3269.576923076923 491.33050875804906 3290.1153846153848 491.7282826494978 3310.653846153846 491.71346164432515 3331.1923076923076 491.70767780671554 3351.730769230769 491.7116461371828 3372.269230769231 492.21654806017045 3392.8076923076924 492.1686259707535 3413.346153846154 492.16551794945576 3433.8846153846152 491.99009410225506 3454.423076923077 491.4978977886208 3474.9615384615386 491.63219577145946 3495.5 491.8513930148632 3516.0384615384614 491.85600669794854 3536.576923076923 492.1505952348429 3557.1153846153848 491.9768227136466 3577.653846153846 491.93920435370626 3598.1923076923076 491.92955522350275 3618.7307692307695 491.78456573649515 3639.269230769231 491.64116500384506 3659.8076923076924 492.30515321923616 3680.346153846154 490.7185530259544 3700.8846153846152 490.3851968973204 3721.423076923077 490.39407239534404 3741.9615384615386 490.9492704753914 3762.5 490.1068496342023 3783.0384615384614 489.6838400376917 3803.576923076923 489.6027851684956 3824.1153846153848 489.6030568350501 3844.653846153846 489.8264670604297 3865.1923076923076 490.08709103844944 3885.7307692307695 489.62346831140377 3906.269230769231 489.6497010215789 3926.8076923076924 489.66218659583717 3947.346153846154 488.81730930051134 3967.8846153846152 488.4707685226323 3988.423076923077 488.0992768689666 4008.9615384615386 487.95222090418406 4029.5 487.9037558495532 4050.038461538462 488.00156539342817 4070.576923076923 488.49331840138825 4091.1153846153848 488.0571972463991 4111.653846153846 487.710660836673 4132.192307692308 487.2177518598812 4152.7307692307695 486.6118670637434 4173.2692307692305 486.20889715304327 4193.807692307692 486.20900192755903 4214.346153846154 486.2135396268373 4234.884615384615 485.59231788424785 4255.423076923077 485.39948958456085 4275.961538461539 485.34909899972735 4296.5 485.6796277406367 4296.5 471.37523931432827 4275.961538461539 471.27402149029285 4255.423076923077 471.5677731111576 4234.884615384615 471.9639262442903 4214.346153846154 473.1679949783827 4193.807692307692 473.1633049593818 4173.2692307692305 473.1639770238033 4152.7307692307695 473.7464712888439 4132.192307692308 474.59777194801586 4111.653846153846 475.23714530807007 4091.1153846153848 475.74598723167173 4070.576923076923 476.3034641007523 4050.038461538462 476.04032244458955 4029.5 476.08864417534 4008.9615384615386 476.2563330555304 3988.423076923077 476.501380298194 3967.8846153846152 476.9091078280443 3947.346153846154 477.3175055832355 3926.8076923076924 478.10739716876634 3906.269230769231 478.09661826532414 3885.7307692307695 478.15999289365544 3865.1923076923076 478.5827424221303 3844.653846153846 478.38419566392514 3824.1153846153848 478.2713135439936 3803.576923076923 478.26942714386075 3783.0384615384614 478.5099393463872 3762.5 478.7941392845137 3741.9615384615386 479.58006819193264 3721.423076923077 479.10650501970053 3700.8846153846152 479.0999411202481 3680.346153846154 479.4072866140748 3659.8076923076924 480.96640637284213 3639.269230769231 480.2698842349475 3618.7307692307695 480.4907637351383 3598.1923076923076 480.4086170616429 3577.653846153846 480.41676419469263 3557.1153846153848 480.45029730465194 3536.576923076923 480.6272134139708 3516.0384615384614 480.40305013594224 3495.5 480.39917600110454 3474.9615384615386 480.2978208961403 3454.423076923077 480.1378211447884 3433.8846153846152 480.4875119170523 3413.346153846154 480.62062646338103 3392.8076923076924 480.623498410782 3372.269230769231 480.6254558284506 3351.730769230769 479.9434244465183 3331.1923076923076 479.939862628262 3310.653846153846 479.94505960714844 3290.1153846153848 479.95902615881243 3269.576923076923 479.5505692873087 3249.0384615384614 479.86304908787844 3228.5 480.59388216933854 3228.5 492.74242973299926Z" fill="#f6a118" opacity="0.9" />
		</g>
		<g>
			<path d="M3228.5 480.59388216933854 3249.0384615384614 479.86304908787844 3269.576923076923 479.5505692873087 3290.1153846153848 479.95902615881243 3310.653846153846 479.94505960714844 3331.1923076923076 479.939862628262 3351.730769230769 479.9434244465183 3372.269230769231 480.6254558284506 3392.8076923076924 480.623498410782 3413.346153846154 480.62062646338103 3433.8846153846152 480.4875119170523 3454.423076923077 480.1378211447884 3474.9615384615386 480.2978208961403 3495.5 480.39917600110454 3516.0384615384614 480.40305013594224 3536.576923076923 480.6272134139708 3557.1153846153848 480.45029730465194 3577.653846153846 480.41676419469263 3598.1923076923076 480.4086170616429 3618.7307692307695 480.4907637351383 3639.269230769231 480.2698842349475 3659.8076923076924 480.96640637284213 3680.346153846154 479.4072866140748 3700.8846153846152 479.0999411202481 3721.423076923077 479.10650501970053 3741.9615384615386 479.58006819193264 3762.5 478.7941392845137 3783.0384615384614 478.5099393463872 3803.576923076923 478.26942714386075 3824.1153846153848 478.2713135439936 3844.653846153846 478.38419566392514 3865.1923076923076 478.5827424221303 3885.7307692307695 478.15999289365544 3906.269230769231 478.09661826532414 3926.8076923076924 478.10739716876634 3947.346153846154 477.3175055832355 3967.8846153846152 476.9091078280443 3988.423076923077 476.501380298194 4008.9615384615386 476.2563330555304 4029.5 476.08864417534 4050.038461538462 476.04032244458955 4070.576923076923 476.3034641007523 4091.1153846153848 475.74598723167173 4111.653846153846 475.23714530807007 4132.192307692308 474.59777194801586 4152.7307692307695 473.7464712888439 4173.2692307692305 473.1639770238033 4193.807692307692 473.1633049593818 4214.346153846154 473.1679949783827 4234.884615384615 471.9639262442903 4255.423076923077 471.5677731111576 4275.961538461539 471.27402149029285 4296.5 471.37523931432827 4296.5 466.73742366495037 4275.961538461539 466.7089001025045 4255.423076923077 467.02563926406276 4234.884615384615 467.45832710584585 4214.346153846154 468.7183458533408 4193.807692307692 468.7095414206735 4173.2692307692305 468.7093552829413 4152.7307692307695 469.32209426095994 4132.192307692308 470.179152895614 4111.653846153846 470.83280416124353 4091.1153846153848 471.35852133856207 4070.576923076923 471.9149927259896 4050.038461538462 471.6905736054739 4029.5 471.763371221977 4008.9615384615386 471.9574850631018 3988.423076923077 472.2340193606014 3967.8846153846152 472.6559547595341 3947.346153846154 473.0650745461115 3926.8076923076924 473.82819172566997 3906.269230769231 473.8181074091512 3885.7307692307695 473.8782116867164 3865.1923076923076 474.28062031125177 3844.653846153846 474.09267029394687 3824.1153846153848 473.9897191134042 3803.576923076923 473.9871807138114 3783.0384615384614 474.22541956826655 3762.5 474.511998002383 3741.9615384615386 475.27887736921514 3721.423076923077 474.8518141039069 3700.8846153846152 474.8469015951653 3680.346153846154 475.13902259765536 3659.8076923076924 476.6264014136676 3639.269230769231 475.9675036747879 3618.7307692307695 476.1855240028958 3598.1923076923076 476.0304088632991 3577.653846153846 476.03986709155856 3557.1153846153848 476.07416075277575 3536.576923076923 476.25220661385714 3516.0384615384614 475.9804259287693 3495.5 475.9771097573116 3474.9615384615386 475.85734943037994 3454.423076923077 475.67113203039463 3433.8846153846152 475.9445091636468 3413.346153846154 476.0428252544268 3392.8076923076924 476.0456947164946 3372.269230769231 476.0126442187972 3351.730769230769 475.2164345015217 3331.1923076923076 475.2129700329708 3310.653846153846 475.2181577191099 3290.1153846153848 475.2322484984899 3269.576923076923 474.81810616673476 3249.0384615384614 475.10657399076854 3228.5 475.80132801818854 3228.5 480.59388216933854Z" fill="#fdd5a4" opacity="0.9" />
		</g>
		<g>
			<path d="M3228.5 475.80132801818854 3249.0384615384614 475.10657399076854 3269.576923076923 474.81810616673476 3290.1153846153848 475.2322484984899 3310.653846153846 475.2181577191099 3331.1923076923076 475.2129700329708 3351.730769230769 475.2164345015217 3372.269230769231 476.0126442187972 3392.8076923076924 476.0456947164946 3413.346153846154 476.0428252544268 3433.8846153846152 475.9445091636468 3454.423076923077 475.67113203039463 3474.9615384615386 475.85734943037994 3495.5 475.9771097573116 3516.0384615384614 475.9804259287693 3536.576923076923 476.25220661385714 3557.1153846153848 476.07416075277575 3577.653846153846 476.03986709155856 3598.1923076923076 476.0304088632991 3618.7307692307695 476.1855240028958 3639.269230769231 475.9675036747879 3659.8076923076924 476.6264014136676 3680.346153846154 475.13902259765536 3700.8846153846152 474.8469015951653 3721.423076923077 474.8518141039069 3741.9615384615386 475.27887736921514 3762.5 474.511998002383 3783.0384615384614 474.22541956826655 3803.576923076923 473.9871807138114 3824.1153846153848 473.9897191134042 3844.653846153846 474.09267029394687 3865.1923076923076 474.28062031125177 3885.7307692307695 473.8782116867164 3906.269230769231 473.8181074091512 3926.8076923076924 473.82819172566997 3947.346153846154 473.0650745461115 3967.8846153846152 472.6559547595341 3988.423076923077 472.2340193606014 4008.9615384615386 471.9574850631018 4029.5 471.763371221977 4050.038461538462 471.6905736054739 4070.576923076923 471.9149927259896 4091.1153846153848 471.35852133856207 4111.653846153846 470.83280416124353 4132.192307692308 470.179152895614 4152.7307692307695 469.32209426095994 4173.2692307692305 468.7093552829413 4193.807692307692 468.7095414206735 4214.346153846154 468.7183458533408 4234.884615384615 467.45832710584585 4255.423076923077 467.02563926406276 4275.961538461539 466.7089001025045 4296.5 466.73742366495037 4296.5 464.05162261814314 4275.961538461539 464.0000623098343 4255.423076923077 464.3297229697829 4234.884615384615 464.7628176089946 4214.346153846154 466.01617968617694 4193.807692307692 466.00219850652616 4173.2692307692305 466.0003628505107 4152.7307692307695 466.6138363140116 4132.192307692308 467.47119043546877 4111.653846153846 468.10966081469456 4091.1153846153848 468.63278021070374 4070.576923076923 469.1859358213357 4050.038461538462 469.0039882230996 4029.5 469.0649184884676 4008.9615384615386 469.272109525969 3988.423076923077 469.56054940240006 3967.8846153846152 470.00314366447725 3947.346153846154 470.42216191971556 3926.8076923076924 471.16063030075713 3906.269230769231 471.15110050258926 3885.7307692307695 471.2005668211781 3865.1923076923076 471.56419721584615 3844.653846153846 471.35961801945126 3824.1153846153848 471.1659266751794 3803.576923076923 471.15503597364875 3783.0384615384614 471.36241611042175 3762.5 471.63391436910644 3741.9615384615386 472.3711663447606 3721.423076923077 471.84780556889575 3700.8846153846152 471.84385861501005 3680.346153846154 472.0370495671892 3659.8076923076924 473.4135261402591 3639.269230769231 472.6948042788454 3618.7307692307695 472.8722901716775 3598.1923076923076 472.3229333883161 3577.653846153846 472.33160122478233 3557.1153846153848 472.3663150934169 3536.576923076923 472.5454339613937 3516.0384615384614 472.089365302357 3495.5 472.0865469044695 3474.9615384615386 471.87656051033446 3454.423076923077 471.6164928135846 3433.8846153846152 471.7330711807051 3413.346153846154 471.76332000605703 3392.8076923076924 471.766218855925 3372.269230769231 471.666704132637 3351.730769230769 470.5946289838734 3331.1923076923076 470.5925960519466 3310.653846153846 470.5979497527046 3290.1153846153848 470.6143953187705 3269.576923076923 470.16763283113994 3249.0384615384614 470.4164498778376 3228.5 471.0661628206815 3228.5 475.80132801818854Z" fill="#f48c7d" opacity="0.9" />
		</g>
		<g>
			<path d="M3228.5 471.0661628206815 3249.0384615384614 470.4164498778376 3269.576923076923 470.16763283113994 3290.1153846153848 470.6143953187705 3310.653846153846 470.5979497527046 3331.1923076923076 470.5925960519466 3351.730769230769 470.5946289838734 3372.269230769231 471.666704132637 3392.8076923076924 471.766218855925 3413.346153846154 471.76332000605703 3433.8846153846152 471.7330711807051 3454.423076923077 471.6164928135846 3474.9615384615386 471.87656051033446 3495.5 472.0865469044695 3516.0384615384614 472.089365302357 3536.576923076923 472.5454339613937 3557.1153846153848 472.3663150934169 3577.653846153846 472.33160122478233 3598.1923076923076 472.3229333883161 3618.7307692307695 472.8722901716775 3639.269230769231 472.6948042788454 3659.8076923076924 473.4135261402591 3680.346153846154 472.0370495671892 3700.8846153846152 471.84385861501005 3721.423076923077 471.84780556889575 3741.9615384615386 472.3711663447606 3762.5 471.63391436910644 3783.0384615384614 471.36241611042175 3803.576923076923 471.15503597364875 3824.1153846153848 471.1659266751794 3844.653846153846 471.35961801945126 3865.1923076923076 471.56419721584615 3885.7307692307695 471.2005668211781 3906.269230769231 471.15110050258926 3926.8076923076924 471.16063030075713 3947.346153846154 470.42216191971556 3967.8846153846152 470.00314366447725 3988.423076923077 469.56054940240006 4008.9615384615386 469.272109525969 4029.5 469.0649184884676 4050.038461538462 469.0039882230996 4070.576923076923 469.1859358213357 4091.1153846153848 468.63278021070374 4111.653846153846 468.10966081469456 4132.192307692308 467.47119043546877 4152.7307692307695 466.6138363140116 4173.2692307692305 466.0003628505107 4193.807692307692 466.00219850652616 4214.346153846154 466.01617968617694 4234.884615384615 464.7628176089946 4255.423076923077 464.3297229697829 4275.961538461539 464.0000623098343 4296.5 464.05162261814314 4296.5 397.9999999999999 4275.961538461539 398.00000000000006 4255.423076923077 398.00000000000017 4234.884615384615 397.9999999999999 4214.346153846154 398.0000000000001 4193.807692307692 397.99999999999994 4173.2692307692305 398 4152.7307692307695 397.9999999999999 4132.192307692308 398.00000000000006 4111.653846153846 398 4091.1153846153848 398 4070.576923076923 398.00000000000006 4050.038461538462 398.00000000000006 4029.5 397.9999999999999 4008.9615384615386 398.0000000000001 3988.423076923077 397.9999999999999 3967.8846153846152 398 3947.346153846154 397.9999999999999 3926.8076923076924 398.0000000000001 3906.269230769231 398 3885.7307692307695 398.00000000000006 3865.1923076923076 397.9999999999999 3844.653846153846 398 3824.1153846153848 398.00000000000017 3803.576923076923 398 3783.0384615384614 398.00000000000006 3762.5 397.99999999999994 3741.9615384615386 398.00000000000006 3721.423076923077 397.9999999999999 3700.8846153846152 397.99999999999994 3680.346153846154 398 3659.8076923076924 398 3639.269230769231 397.99999999999994 3618.7307692307695 397.9999999999999 3598.1923076923076 398 3577.653846153846 398 3557.1153846153848 398 3536.576923076923 398.0000000000001 3516.0384615384614 398 3495.5 398 3474.9615384615386 398.0000000000002 3454.423076923077 397.99999999999994 3433.8846153846152 398 3413.346153846154 398.0000000000001 3392.8076923076924 398 3372.269230769231 398.00000000000006 3351.730769230769 398.00000000000006 3331.1923076923076 397.99999999999994 3310.653846153846 398.00000000000017 3290.1153846153848 398 3269.576923076923 398.00000000000017 3249.0384615384614 397.9999999999999 3228.5 397.9999999999999 3228.5 471.0661628206815Z" fill="#393d41" opacity="0.9" />
		</g>
		<g>
			<rect x="4372" y="431" width="22.9995" height="23" fill="#e62d39" />
		</g>
		<g>
			<text fill="#595959" font-family="Verdana,Open Sans,DejaVu Sans,sans-serif" font-weight="400" font-size="41" transform="matrix(1 0 0 1 4404.56 454)">Android</text>
		</g>
		<g>
			<rect x="4372" y="508" width="22.9995" height="23" fill="#005aa6" />
		</g>
		<g>
			<text fill="#595959" font-family="Verdana,Open Sans,DejaVu Sans,sans-serif" font-weight="400" font-size="41" transform="matrix(1 0 0 1 4404.56 531)">iOS</text>
		</g>
		<g>
			<rect x="4372" y="585" width="22.9995" height="23" fill="#55c0e9" />
		</g>
		<g>
			<text fill="#595959" font-family="Verdana,Open Sans,DejaVu Sans,sans-serif" font-weight="400" font-size="41" transform="matrix(1 0 0 1 4404.56 608)">Windows</text>
		</g>
		<g>
			<rect x="4372" y="662" width="22.9995" height="23" fill="#f6a118" />
		</g>
		<g>
			<text fill="#595959" font-family="Verdana,Open Sans,DejaVu Sans,sans-serif" font-weight="400" font-size="41" transform="matrix(1 0 0 1 4404.56 685)">macOS</text>
		</g>
		<g>
			<rect x="4372" y="739" width="22.9995" height="23" fill="#fdd5a4" />
		</g>
		<g>
			<text fill="#595959" font-family="Verdana,Open Sans,DejaVu Sans,sans-serif" font-weight="400" font-size="41" transform="matrix(1 0 0 1 4404.56 762)">Linux</text>
		</g>
		<g>
			<rect x="4372" y="816" width="22.9995" height="23" fill="#f48c7d" />
		</g>
		<g>
			<text fill="#595959" font-family="Verdana,Open Sans,DejaVu Sans,sans-serif" font-weight="400" font-size="41" transform="matrix(1 0 0 1 4404.56 839)">Other</text>
		</g>
		<g>
			<rect x="4372" y="893" width="22.9995" height="23" fill="#393d41" />
		</g>
		<g>
			<text fill="#595959" font-family="Verdana,Open Sans,DejaVu Sans,sans-serif" font-weight="400" font-size="41" transform="matrix(1 0 0 1 4404.56 916)">Unclassified</text>
		</g>
	</g>
</svg>
