<svg width="1763" height="1046"
    xmlns="http://www.w3.org/2000/svg"
	xmlns:xlink="http://www.w3.org/1999/xlink" xml:space="preserve" overflow="hidden">
	<defs>
		<clipPath id="clip0">
			<rect x="2917" y="346" width="1763" height="1046"/>
		</clipPath>
	</defs>
	<g clip-path="url(#clip0)" transform="translate(-2917 -346)">
		<rect x="2918" y="347" width="1760" height="1043" fill="#FFFFFF" />
		<g>
			<path d="
			M3228.5 974.532 4296.5 974.532
			M3228.5 910.53 4296.5 910.53
			M3228.5 846.528 4296.5 846.528
			M3228.5 781.526 4296.5 781.526
			M3228.5 717.524 4296.5 717.524
			M3228.5 653.522 4296.5 653.522
			M3228.5 589.52 4296.5 589.52
			M3228.5 525.517 4296.5 525.517
			M3228.5 461.515 4296.5 461.515
			M3228.5 397.5 4296.5 397.5" stroke="#D9D9D9" stroke-width="3.4375" stroke-linejoin="round" stroke-miterlimit="10" fill="none" />
		</g>
		<g>
			<path d="M 1038.5 4296.5 1038.5" stroke="#D9D9D9" stroke-width="3.4375" stroke-linejoin="round" stroke-miterlimit="10" fill="none" fill-rule="evenodd" />
		</g>
		<g>
			<text fill="#595959" font-family="Verdana,sans-serif" font-weight="400" font-size="41" transform="matrix(6.12323e-17 -1 1 6.12323e-17 3244.5 1220)">18-Dec</text>
		</g>
		<g>
			<text fill="#595959" font-family="Verdana,sans-serif" font-weight="400" font-size="41" transform="matrix(6.12323e-17 -1 1 6.12323e-17 3327.764705882353 1207)">15-Jan</text>
		</g>
		<g>
			<text fill="#595959" font-family="Verdana,sans-serif" font-weight="400" font-size="41" transform="matrix(6.12323e-17 -1 1 6.12323e-17 3412.029411764706 1214)">12-Feb</text>
		</g>
		<g>
			<text fill="#595959" font-family="Verdana,sans-serif" font-weight="400" font-size="41" transform="matrix(6.12323e-17 -1 1 6.12323e-17 3495.294117647059 1221)">11-Mar</text>
		</g>
		<g>
			<text fill="#595959" font-family="Verdana,sans-serif" font-weight="400" font-size="41" transform="matrix(6.12323e-17 -1 1 6.12323e-17 3583.0588235294117 1217)">08-Apr</text>
		</g>
		<g>
			<text fill="#595959" font-family="Verdana,sans-serif" font-weight="400" font-size="41" transform="matrix(6.12323e-17 -1 1 6.12323e-17 3666.823529411765 1228)">06-May</text>
		</g>
		<g>
			<text fill="#595959" font-family="Verdana,sans-serif" font-weight="400" font-size="41" transform="matrix(6.12323e-17 -1 1 6.12323e-17 3747.0882352941176 1211)">03-Jun</text>
		</g>
		<g>
			<text fill="#595959" font-family="Verdana,sans-serif" font-weight="400" font-size="41" transform="matrix(6.12323e-17 -1 1 6.12323e-17 3830.8529411764707 1197)">01-Jul</text>
		</g>
		<g>
			<text fill="#595959" font-family="Verdana,sans-serif" font-weight="400" font-size="41" transform="matrix(6.12323e-17 -1 1 6.12323e-17 3914.6176470588234 1196)">29-Jul</text>
		</g>
		<g>
			<text fill="#595959" font-family="Verdana,sans-serif" font-weight="400" font-size="41" transform="matrix(6.12323e-17 -1 1 6.12323e-17 4001.8823529411766 1221)">26-Aug</text>
		</g>
		<g>
			<text fill="#595959" font-family="Verdana,sans-serif" font-weight="400" font-size="41" transform="matrix(6.12323e-17 -1 1 6.12323e-17 4085.6470588235293 1221)">23-Sep</text>
		</g>
		<g>
			<text fill="#595959" font-family="Verdana,sans-serif" font-weight="400" font-size="41" transform="matrix(6.12323e-17 -1 1 6.12323e-17 4165.911764705882 1215)">21-Oct</text>
		</g>
		<g>
			<text fill="#595959" font-family="Verdana,sans-serif" font-weight="400" font-size="41" transform="matrix(6.12323e-17 -1 1 6.12323e-17 4249.676470588235 1222)">18-Nov</text>
		</g>
		<g>
			<text fill="#595959" font-family="Verdana,sans-serif" font-weight="400" font-size="41" transform="matrix(1 0 0 1 3123.5 1050)">0%</text>
		</g>
		<g>
			<text fill="#595959" font-family="Verdana,sans-serif" font-weight="400" font-size="41" transform="matrix(1 0 0 1 3097.5 922)">20%</text>
		</g>
		<g>
			<text fill="#595959" font-family="Verdana,sans-serif" font-weight="400" font-size="41" transform="matrix(1 0 0 1 3096.5 794)">40%</text>
		</g>
		<g>
			<text fill="#595959" font-family="Verdana,sans-serif" font-weight="400" font-size="41" transform="matrix(1 0 0 1 3097.5 666)">60%</text>
		</g>
		<g>
			<text fill="#595959" font-family="Verdana,sans-serif" font-weight="400" font-size="41" transform="matrix(1 0 0 1 3097.5 538)">80%</text>
		</g>
		<g>
			<text fill="#595959" font-family="Verdana,sans-serif" font-weight="400" font-size="41" transform="matrix(1 0 0 1 3074.5 410)">100%</text>
		</g>
		<g>
			<text fill="#595959" font-family="Verdana,sans-serif" font-weight="400" font-size="41" transform="matrix(1 0 0 1 3544.5 1321)">Week Commencing</text>
		</g>
		<g>
			<text fill="#595959" font-family="Verdana,sans-serif" font-weight="400" font-size="46" transform="matrix(6.12323e-17 -1 1 6.12323e-17 3019.73 965.25)">Requests (% of Total)</text>
		</g>
		<rect x="2918.5" y="347.5" width="1760" height="1043" stroke="#D9D9D9" stroke-width="3.4375" stroke-linejoin="round" stroke-miterlimit="10" fill="none" />
		<g>
			<path d="M3228.5 1038 3249.4411764705883 1038 3270.3823529411766 1038 3291.323529411765 1038 3312.264705882353 1038 3333.205882352941 1038 3354.1470588235293 1038 3375.0882352941176 1038 3396.029411764706 1038 3416.970588235294 1038 3437.9117647058824 1038 3458.8529411764707 1038 3479.794117647059 1038 3500.735294117647 1038 3521.676470588235 1038 3542.6176470588234 1038 3563.5588235294117 1038 3584.5 1038 3605.4411764705883 1038 3626.3823529411766 1038 3647.323529411765 1038 3668.264705882353 1038 3689.205882352941 1038 3710.1470588235293 1038 3731.0882352941176 1038 3752.029411764706 1038 3772.970588235294 1038 3793.9117647058824 1038 3814.8529411764707 1038 3835.7941176470586 1038 3856.735294117647 1038 3877.676470588235 1038 3898.6176470588234 1038 3919.5588235294117 1038 3940.5 1038 3961.4411764705883 1038 3982.3823529411766 1038 4003.323529411765 1038 4024.264705882353 1038 4045.2058823529414 1038 4066.1470588235293 1038 4087.0882352941176 1038 4108.029411764706 1038 4128.970588235294 1038 4149.911764705882 1038 4170.85294117647 1038 4191.794117647059 1038 4212.735294117647 1038 4233.676470588235 1038 4254.617647058823 1038 4275.558823529412 1038 4296.5 1038 4296.5 783.0871417282395 4275.558823529412 782.9000115015447 4254.617647058823 782.5276373365637 4233.676470588235 782.6753667196651 4212.735294117647 783.1682641871979 4191.794117647059 783.5277451200283 4170.85294117647 783.7165926175173 4149.911764705882 725.0579859810713 4128.970588235294 723.964272691857 4108.029411764706 722.9963838923263 4087.0882352941176 722.2500058248895 4066.1470588235293 721.3672257636031 4045.2058823529414 716.1347668638947 4024.264705882353 714.9315603533947 4003.323529411765 714.226459280052 3982.3823529411766 714.4105060971157 3961.4411764705883 713.9589728279007 3940.5 713.4392482120827 3919.5588235294117 712.9526784937428 3898.6176470588234 712.3235713382509 3877.676470588235 712.0748666907585 3856.735294117647 711.7892867662207 3835.7941176470586 711.2928421961317 3814.8529411764707 710.6616144923173 3793.9117647058824 710.307171035662 3772.970588235294 710.0229260904226 3752.029411764706 709.5011500172373 3731.0882352941176 708.8529728655324 3710.1470588235293 708.5111643371398 3689.205882352941 707.6773439344757 3668.264705882353 706.7867985338357 3647.323529411765 705.8245723100855 3626.3823529411766 704.5432324401569 3605.4411764705883 703.4985064623488 3584.5 704.569443136712 3563.5588235294117 703.1605263419694 3542.6176470588234 701.7580858411745 3521.676470588235 700.4865286297146 3500.735294117647 707.5245129827832 3479.794117647059 729.2395570213952 3458.8529411764707 728.9340901988301 3437.9117647058824 728.9473274759466 3416.970588235294 728.5904699830792 3396.029411764706 728.3059690780326 3375.0882352941176 728.4979453773899 3354.1470588235293 728.9075512947094 3333.205882352941 754.11838558625 3312.264705882353 754.1757001008984 3291.323529411765 753.4791239997355 3270.3823529411766 753.4656820270931 3249.4411764705883 754.353517736809 3228.5 755.0644960736788 3228.5 1038Z" fill="#e62d39" opacity="0.9" />
		</g>
		<g>
			<path d="M3228.5 755.0644960736788 3249.4411764705883 754.353517736809 3270.3823529411766 753.4656820270931 3291.323529411765 753.4791239997355 3312.264705882353 754.1757001008984 3333.205882352941 754.11838558625 3354.1470588235293 728.9075512947094 3375.0882352941176 728.4979453773899 3396.029411764706 728.3059690780326 3416.970588235294 728.5904699830792 3437.9117647058824 728.9473274759466 3458.8529411764707 728.9340901988301 3479.794117647059 729.2395570213952 3500.735294117647 707.5245129827832 3521.676470588235 700.4865286297146 3542.6176470588234 701.7580858411745 3563.5588235294117 703.1605263419694 3584.5 704.569443136712 3605.4411764705883 703.4985064623488 3626.3823529411766 704.5432324401569 3647.323529411765 705.8245723100855 3668.264705882353 706.7867985338357 3689.205882352941 707.6773439344757 3710.1470588235293 708.5111643371398 3731.0882352941176 708.8529728655324 3752.029411764706 709.5011500172373 3772.970588235294 710.0229260904226 3793.9117647058824 710.307171035662 3814.8529411764707 710.6616144923173 3835.7941176470586 711.2928421961317 3856.735294117647 711.7892867662207 3877.676470588235 712.0748666907585 3898.6176470588234 712.3235713382509 3919.5588235294117 712.9526784937428 3940.5 713.4392482120827 3961.4411764705883 713.9589728279007 3982.3823529411766 714.4105060971157 4003.323529411765 714.226459280052 4024.264705882353 714.9315603533947 4045.2058823529414 716.1347668638947 4066.1470588235293 721.3672257636031 4087.0882352941176 722.2500058248895 4108.029411764706 722.9963838923263 4128.970588235294 723.964272691857 4149.911764705882 725.0579859810713 4170.85294117647 783.7165926175173 4191.794117647059 783.5277451200283 4212.735294117647 783.1682641871979 4233.676470588235 782.6753667196651 4254.617647058823 782.5276373365637 4275.558823529412 782.9000115015447 4296.5 783.0871417282395 4296.5 530.9096071067931 4275.558823529412 530.6457625647856 4254.617647058823 530.2115588422516 4233.676470588235 530.3749323864379 4212.735294117647 530.816371903653 4191.794117647059 531.5387166599613 4170.85294117647 532.190445140906 4149.911764705882 526.5102482737155 4128.970588235294 525.3174753042879 4108.029411764706 524.2802845879517 4087.0882352941176 523.1294380044525 4066.1470588235293 521.8575691422009 4045.2058823529414 514.1116307261946 4024.264705882353 512.993987230213 4003.323529411765 512.1677115640608 3982.3823529411766 502.45546819630397 3961.4411764705883 501.879791216212 3940.5 501.40460916879545 3919.5588235294117 500.8004852626943 3898.6176470588234 499.8853489758172 3877.676470588235 498.7859305783681 3856.735294117647 497.70686325871344 3835.7941176470586 496.45662763490196 3814.8529411764707 495.1622009511958 3793.9117647058824 493.8933367325633 3772.970588235294 492.86935877863715 3752.029411764706 492.0646789770611 3731.0882352941176 491.29504574396447 3710.1470588235293 490.57523501016317 3689.205882352941 490.03332941523763 3668.264705882353 489.72310243427995 3647.323529411765 489.48234403066954 3626.3823529411766 489.1962201731323 3605.4411764705883 488.9387742360814 3584.5 492.7506429578374 3563.5588235294117 492.8155417521196 3542.6176470588234 493.0157563584153 3521.676470588235 493.39321289046876 3500.735294117647 506.9149616199791 3479.794117647059 511.364965996509 3458.8529411764707 511.2846481599944 3437.9117647058824 510.42831690773556 3416.970588235294 509.62004963115277 3396.029411764706 508.7614604393337 3375.0882352941176 509.353058075723 3354.1470588235293 509.9096403086422 3333.205882352941 502.9834202621783 3312.264705882353 503.00137208677626 3291.323529411765 501.7071993293339 3270.3823529411766 501.42221970119 3249.4411764705883 503.438874441927 3228.5 504.4310618017311 3228.5 755.0644960736788Z" fill="#005aa6" opacity="0.9" />
		</g>
		<g>
			<path d="M3228.5 504.4310618017311 3249.4411764705883 503.438874441927 3270.3823529411766 501.42221970119 3291.323529411765 501.7071993293339 3312.264705882353 503.00137208677626 3333.205882352941 502.9834202621783 3354.1470588235293 509.9096403086422 3375.0882352941176 509.353058075723 3396.029411764706 508.7614604393337 3416.970588235294 509.62004963115277 3437.9117647058824 510.42831690773556 3458.8529411764707 511.2846481599944 3479.794117647059 511.364965996509 3500.735294117647 506.9149616199791 3521.676470588235 493.39321289046876 3542.6176470588234 493.0157563584153 3563.5588235294117 492.8155417521196 3584.5 492.7506429578374 3605.4411764705883 488.9387742360814 3626.3823529411766 489.1962201731323 3647.323529411765 489.48234403066954 3668.264705882353 489.72310243427995 3689.205882352941 490.03332941523763 3710.1470588235293 490.57523501016317 3731.0882352941176 491.29504574396447 3752.029411764706 492.0646789770611 3772.970588235294 492.86935877863715 3793.9117647058824 493.8933367325633 3814.8529411764707 495.1622009511958 3835.7941176470586 496.45662763490196 3856.735294117647 497.70686325871344 3877.676470588235 498.7859305783681 3898.6176470588234 499.8853489758172 3919.5588235294117 500.8004852626943 3940.5 501.40460916879545 3961.4411764705883 501.879791216212 3982.3823529411766 502.45546819630397 4003.323529411765 512.1677115640608 4024.264705882353 512.993987230213 4045.2058823529414 514.1116307261946 4066.1470588235293 521.8575691422009 4087.0882352941176 523.1294380044525 4108.029411764706 524.2802845879517 4128.970588235294 525.3174753042879 4149.911764705882 526.5102482737155 4170.85294117647 532.190445140906 4191.794117647059 531.5387166599613 4212.735294117647 530.816371903653 4233.676470588235 530.3749323864379 4254.617647058823 530.2115588422516 4275.558823529412 530.6457625647856 4296.5 530.9096071067931 4296.5 487.10721609649056 4275.558823529412 486.9097754632236 4254.617647058823 486.6466810104104 4233.676470588235 486.8253712667305 4212.735294117647 487.1725552495906 4191.794117647059 487.81344975744275 4170.85294117647 488.4006750879141 4149.911764705882 478.7456085402515 4128.970588235294 477.4222196163745 4108.029411764706 476.2604646154135 4087.0882352941176 475.0060216232253 4066.1470588235293 473.64144749214375 4045.2058823529414 473.2844498106347 4024.264705882353 472.05917492318713 4003.323529411765 471.07663748656995 3982.3823529411766 461.2408535917636 3961.4411764705883 460.48443100573536 3940.5 459.76604736337003 3919.5588235294117 458.9777407221724 3898.6176470588234 457.90939966851295 3877.676470588235 456.65452296321746 3856.735294117647 455.36215838852235 3835.7941176470586 453.9844912065713 3814.8529411764707 452.5053589477677 3793.9117647058824 451.07476537844235 3772.970588235294 449.87375657582817 3752.029411764706 448.9328850656446 3731.0882352941176 448.0557909288758 3710.1470588235293 447.2525039284088 3689.205882352941 446.6761477523823 3668.264705882353 446.4456437459776 3647.323529411765 446.28136252321144 3626.3823529411766 446.10487752564853 3605.4411764705883 445.9636538385128 3584.5 450.12178949359264 3563.5588235294117 450.19759580620007 3542.6176470588234 450.31641232434566 3521.676470588235 450.53485482006914 3500.735294117647 465.04034483521883 3479.794117647059 466.06050698928533 3458.8529411764707 466.040310950835 3437.9117647058824 465.54550807778793 3416.970588235294 465.0596958871918 3396.029411764706 464.56231790755743 3375.0882352941176 464.9559197775319 3354.1470588235293 465.35219027138237 3333.205882352941 461.61567429168343 3312.264705882353 461.61568788936546 3291.323529411765 459.82950021460965 3270.3823529411766 460.450441231452 3249.4411764705883 460.9910561402767 3228.5 461.5797281754641 3228.5 504.4310618017311Z" fill="#55c0e9" opacity="0.9" />
		</g>
		<g>
			<path d="M3228.5 461.5797281754641 3249.4411764705883 460.9910561402767 3270.3823529411766 460.450441231452 3291.323529411765 459.82950021460965 3312.264705882353 461.61568788936546 3333.205882352941 461.61567429168343 3354.1470588235293 465.35219027138237 3375.0882352941176 464.9559197775319 3396.029411764706 464.56231790755743 3416.970588235294 465.0596958871918 3437.9117647058824 465.54550807778793 3458.8529411764707 466.040310950835 3479.794117647059 466.06050698928533 3500.735294117647 465.04034483521883 3521.676470588235 450.53485482006914 3542.6176470588234 450.31641232434566 3563.5588235294117 450.19759580620007 3584.5 450.12178949359264 3605.4411764705883 445.9636538385128 3626.3823529411766 446.10487752564853 3647.323529411765 446.28136252321144 3668.264705882353 446.4456437459776 3689.205882352941 446.6761477523823 3710.1470588235293 447.2525039284088 3731.0882352941176 448.0557909288758 3752.029411764706 448.9328850656446 3772.970588235294 449.87375657582817 3793.9117647058824 451.07476537844235 3814.8529411764707 452.5053589477677 3835.7941176470586 453.9844912065713 3856.735294117647 455.36215838852235 3877.676470588235 456.65452296321746 3898.6176470588234 457.90939966851295 3919.5588235294117 458.9777407221724 3940.5 459.76604736337003 3961.4411764705883 460.48443100573536 3982.3823529411766 461.2408535917636 4003.323529411765 471.07663748656995 4024.264705882353 472.05917492318713 4045.2058823529414 473.2844498106347 4066.1470588235293 473.64144749214375 4087.0882352941176 475.0060216232253 4108.029411764706 476.2604646154135 4128.970588235294 477.4222196163745 4149.911764705882 478.7456085402515 4170.85294117647 488.4006750879141 4191.794117647059 487.81344975744275 4212.735294117647 487.1725552495906 4233.676470588235 486.8253712667305 4254.617647058823 486.6466810104104 4275.558823529412 486.9097754632236 4296.5 487.10721609649056 4296.5 474.6976120214667 4275.558823529412 474.5506870011159 4254.617647058823 474.3398551157786 4233.676470588235 474.4972746166898 4212.735294117647 474.8032929443811 4191.794117647059 475.42643040944677 4170.85294117647 475.9837074966003 4149.911764705882 466.53633469676566 4128.970588235294 465.2033179049321 4108.029411764706 464.0399484926056 4087.0882352941176 462.7794187905808 4066.1470588235293 461.40786834513193 4045.2058823529414 460.8843773665021 4024.264705882353 459.6546822545587 4003.323529411765 458.6559421000703 3982.3823529411766 448.8413613772234 3961.4411764705883 448.0810719550874 3940.5 447.3247116817817 3919.5588235294117 446.5310952275203 3898.6176470588234 445.4598876638521 3877.676470588235 444.211812869573 3856.735294117647 442.9104603532568 3835.7941176470586 441.5224522868679 3814.8529411764707 440.02872439510173 3793.9117647058824 438.5911754273753 3772.970588235294 437.36935007449506 3752.029411764706 436.4113820386986 3731.0882352941176 435.5243027869889 3710.1470588235293 434.7122259498071 3689.205882352941 434.13110745861906 3668.264705882353 433.9141397981283 3647.323529411765 433.7506297603656 3626.3823529411766 433.55919918545516 3605.4411764705883 433.40054840431145 3584.5 437.6127108681739 3563.5588235294117 437.66723491500807 3542.6176470588234 437.73656952866384 3521.676470588235 437.87360524960343 3500.735294117647 452.6366317106452 3479.794117647059 450.90613014226784 3458.8529411764707 450.8850550677488 3437.9117647058824 450.4868239386605 3416.970588235294 450.086582389552 3396.029411764706 449.68019116783887 3375.0882352941176 449.97158494345933 3354.1470588235293 450.2601617230179 3333.205882352941 447.4043899537403 3312.264705882353 447.3983203480143 3291.323529411765 445.3845841013251 3270.3823529411766 445.8199610630829 3249.4411764705883 446.18152349671493 3228.5 446.5432723305962 3228.5 461.5797281754641Z" fill="#f6a118" opacity="0.9" />
		</g>
		<g>
			<path d="M3228.5 446.5432723305962 3249.4411764705883 446.18152349671493 3270.3823529411766 445.8199610630829 3291.323529411765 445.3845841013251 3312.264705882353 447.3983203480143 3333.205882352941 447.4043899537403 3354.1470588235293 450.2601617230179 3375.0882352941176 449.97158494345933 3396.029411764706 449.68019116783887 3416.970588235294 450.086582389552 3437.9117647058824 450.4868239386605 3458.8529411764707 450.8850550677488 3479.794117647059 450.90613014226784 3500.735294117647 452.6366317106452 3521.676470588235 437.87360524960343 3542.6176470588234 437.73656952866384 3563.5588235294117 437.66723491500807 3584.5 437.6127108681739 3605.4411764705883 433.40054840431145 3626.3823529411766 433.55919918545516 3647.323529411765 433.7506297603656 3668.264705882353 433.9141397981283 3689.205882352941 434.13110745861906 3710.1470588235293 434.7122259498071 3731.0882352941176 435.5243027869889 3752.029411764706 436.4113820386986 3772.970588235294 437.36935007449506 3793.9117647058824 438.5911754273753 3814.8529411764707 440.02872439510173 3835.7941176470586 441.5224522868679 3856.735294117647 442.9104603532568 3877.676470588235 444.211812869573 3898.6176470588234 445.4598876638521 3919.5588235294117 446.5310952275203 3940.5 447.3247116817817 3961.4411764705883 448.0810719550874 3982.3823529411766 448.8413613772234 4003.323529411765 458.6559421000703 4024.264705882353 459.6546822545587 4045.2058823529414 460.8843773665021 4066.1470588235293 461.40786834513193 4087.0882352941176 462.7794187905808 4108.029411764706 464.0399484926056 4128.970588235294 465.2033179049321 4149.911764705882 466.53633469676566 4170.85294117647 475.9837074966003 4191.794117647059 475.42643040944677 4212.735294117647 474.8032929443811 4233.676470588235 474.4972746166898 4254.617647058823 474.3398551157786 4275.558823529412 474.5506870011159 4296.5 474.6976120214667 4296.5 468.95702207661526 4275.558823529412 468.84734356461763 4254.617647058823 468.7350335488471 4233.676470588235 468.9078882196251 4212.735294117647 469.2079498249524 4191.794117647059 469.81130033797666 4170.85294117647 470.38342727342314 4149.911764705882 461.2444339081057 4128.970588235294 459.946755992067 4108.029411764706 458.8077681755944 4087.0882352941176 457.5593223229012 4066.1470588235293 456.2181048338814 4045.2058823529414 455.6431947463817 4024.264705882353 454.47972281760985 4003.323529411765 453.4905215300467 3982.3823529411766 443.69596259487105 3961.4411764705883 442.9470560831334 3940.5 442.18952771113993 3919.5588235294117 441.4102737359516 3898.6176470588234 440.35943056582056 3877.676470588235 439.1354625729624 3856.735294117647 437.84119270046506 3835.7941176470586 436.45931716608146 3814.8529411764707 434.9725271047773 3793.9117647058824 433.5415615660502 3772.970588235294 432.3203932157333 3752.029411764706 431.3782566408658 3731.0882352941176 430.5117297264795 3710.1470588235293 429.7249311165208 3689.205882352941 429.1613894967009 3668.264705882353 428.96097997032933 3647.323529411765 428.8105160166967 3626.3823529411766 428.64236977976526 3605.4411764705883 428.50399955057856 3584.5 432.7535502158639 3563.5588235294117 432.80627389640455 3542.6176470588234 432.8676017835308 3521.676470588235 432.98806566692065 3500.735294117647 447.8607653758795 3479.794117647059 445.04971196915034 3458.8529411764707 445.0840675736475 3437.9117647058824 444.7823876121957 3416.970588235294 444.47619554519974 3396.029411764706 444.146022913635 3375.0882352941176 444.4117939256318 3354.1470588235293 444.6840228236209 3333.205882352941 442.25084027575355 3312.264705882353 442.3504661409793 3291.323529411765 442.53952888382247 3270.3823529411766 442.9800177196567 3249.4411764705883 443.356171040563 3228.5 443.72631556735075 3228.5 446.5432723305962Z" fill="#fdd5a4" opacity="0.9" />
		</g>
		<g>
			<path d="M3228.5 443.72631556735075 3249.4411764705883 443.356171040563 3270.3823529411766 442.9800177196567 3291.323529411765 442.53952888382247 3312.264705882353 442.3504661409793 3333.205882352941 442.25084027575355 3354.1470588235293 444.6840228236209 3375.0882352941176 444.4117939256318 3396.029411764706 444.146022913635 3416.970588235294 444.47619554519974 3437.9117647058824 444.7823876121957 3458.8529411764707 445.0840675736475 3479.794117647059 445.04971196915034 3500.735294117647 447.8607653758795 3521.676470588235 432.98806566692065 3542.6176470588234 432.8676017835308 3563.5588235294117 432.80627389640455 3584.5 432.7535502158639 3605.4411764705883 428.50399955057856 3626.3823529411766 428.64236977976526 3647.323529411765 428.8105160166967 3668.264705882353 428.96097997032933 3689.205882352941 429.1613894967009 3710.1470588235293 429.7249311165208 3731.0882352941176 430.5117297264795 3752.029411764706 431.3782566408658 3772.970588235294 432.3203932157333 3793.9117647058824 433.5415615660502 3814.8529411764707 434.9725271047773 3835.7941176470586 436.45931716608146 3856.735294117647 437.84119270046506 3877.676470588235 439.1354625729624 3898.6176470588234 440.35943056582056 3919.5588235294117 441.4102737359516 3940.5 442.18952771113993 3961.4411764705883 442.9470560831334 3982.3823529411766 443.69596259487105 4003.323529411765 453.4905215300467 4024.264705882353 454.47972281760985 4045.2058823529414 455.6431947463817 4066.1470588235293 456.2181048338814 4087.0882352941176 457.5593223229012 4108.029411764706 458.8077681755944 4128.970588235294 459.946755992067 4149.911764705882 461.2444339081057 4170.85294117647 470.38342727342314 4191.794117647059 469.81130033797666 4212.735294117647 469.2079498249524 4233.676470588235 468.9078882196251 4254.617647058823 468.7350335488471 4275.558823529412 468.84734356461763 4296.5 468.95702207661526 4296.5 464.3461599383072 4275.558823529412 464.26375937292056 4254.617647058823 464.2122032971037 4233.676470588235 464.3963627005436 4212.735294117647 464.69518296460524 4191.794117647059 465.29095095509365 4170.85294117647 465.86857631542375 4149.911764705882 457.9426597886813 4128.970588235294 456.6504617863283 4108.029411764706 455.5173638999522 4087.0882352941176 454.27397669951574 4066.1470588235293 452.9422128623981 4045.2058823529414 452.3392658302522 4024.264705882353 451.1914920386467 4003.323529411765 450.1807388631146 3982.3823529411766 440.3988808972397 3961.4411764705883 439.6628015961259 3940.5 438.90968576505173 3919.5588235294117 438.1368838719703 3898.6176470588234 437.09878380068074 3877.676470588235 435.88818645509696 3856.735294117647 434.59694513524136 3835.7941176470586 433.22158409139143 3814.8529411764707 431.7348695488416 3793.9117647058824 430.30784750779037 3772.970588235294 429.09159001631633 3752.029411764706 428.1595197737724 3731.0882352941176 427.30225741502903 3710.1470588235293 426.52676679830296 3689.205882352941 425.97200661481094 3668.264705882353 425.7866796521752 3647.323529411765 425.65149111446993 3626.3823529411766 425.49532897112516 3605.4411764705883 425.3719419226974 3584.5 429.64793603777895 3563.5588235294117 429.7004140998976 3542.6176470588234 429.76313464334123 3521.676470588235 429.88054742773767 3500.735294117647 444.82124955246854 3479.794117647059 441.7030292243726 3458.8529411764707 441.7535822416807 3437.9117647058824 441.49228637208546 3416.970588235294 441.22475501262005 3396.029411764706 440.9301919465814 3375.0882352941176 441.18998724924035 3354.1470588235293 441.4614784607988 3333.205882352941 438.541557440145 3312.264705882353 438.64340053541537 3291.323529411765 439.0626692950935 3270.3823529411766 439.5322445329365 3249.4411764705883 439.87296049890585 3228.5 440.24550709230834 3228.5 443.72631556735075Z" fill="#f48c7d" opacity="0.9" />
		</g>
		<g>
			<path d="M3228.5 440.24550709230834 3249.4411764705883 439.87296049890585 3270.3823529411766 439.5322445329365 3291.323529411765 439.0626692950935 3312.264705882353 438.64340053541537 3333.205882352941 438.541557440145 3354.1470588235293 441.4614784607988 3375.0882352941176 441.18998724924035 3396.029411764706 440.9301919465814 3416.970588235294 441.22475501262005 3437.9117647058824 441.49228637208546 3458.8529411764707 441.7535822416807 3479.794117647059 441.7030292243726 3500.735294117647 444.82124955246854 3521.676470588235 429.88054742773767 3542.6176470588234 429.76313464334123 3563.5588235294117 429.7004140998976 3584.5 429.64793603777895 3605.4411764705883 425.3719419226974 3626.3823529411766 425.49532897112516 3647.323529411765 425.65149111446993 3668.264705882353 425.7866796521752 3689.205882352941 425.97200661481094 3710.1470588235293 426.52676679830296 3731.0882352941176 427.30225741502903 3752.029411764706 428.1595197737724 3772.970588235294 429.09159001631633 3793.9117647058824 430.30784750779037 3814.8529411764707 431.7348695488416 3835.7941176470586 433.22158409139143 3856.735294117647 434.59694513524136 3877.676470588235 435.88818645509696 3898.6176470588234 437.09878380068074 3919.5588235294117 438.1368838719703 3940.5 438.90968576505173 3961.4411764705883 439.6628015961259 3982.3823529411766 440.3988808972397 4003.323529411765 450.1807388631146 4024.264705882353 451.1914920386467 4045.2058823529414 452.3392658302522 4066.1470588235293 452.9422128623981 4087.0882352941176 454.27397669951574 4108.029411764706 455.5173638999522 4128.970588235294 456.6504617863283 4149.911764705882 457.9426597886813 4170.85294117647 465.86857631542375 4191.794117647059 465.29095095509365 4212.735294117647 464.69518296460524 4233.676470588235 464.3963627005436 4254.617647058823 464.2122032971037 4275.558823529412 464.26375937292056 4296.5 464.3461599383072 4296.5 397.99999999999994 4275.558823529412 397.9999999999999 4254.617647058823 397.9999999999999 4233.676470588235 397.99999999999994 4212.735294117647 398 4191.794117647059 397.99999999999994 4170.85294117647 398 4149.911764705882 397.9999999999999 4128.970588235294 397.9999999999999 4108.029411764706 397.9999999999998 4087.0882352941176 398 4066.1470588235293 398 4045.2058823529414 398.00000000000006 4024.264705882353 398.0000000000002 4003.323529411765 398 3982.3823529411766 397.99999999999994 3961.4411764705883 398 3940.5 398.0000000000001 3919.5588235294117 398.00000000000006 3898.6176470588234 397.99999999999994 3877.676470588235 397.99999999999994 3856.735294117647 398.00000000000006 3835.7941176470586 397.99999999999994 3814.8529411764707 398.00000000000017 3793.9117647058824 397.99999999999994 3772.970588235294 397.99999999999994 3752.029411764706 398 3731.0882352941176 398 3710.1470588235293 398.00000000000017 3689.205882352941 398 3668.264705882353 398.00000000000006 3647.323529411765 397.9999999999999 3626.3823529411766 398 3605.4411764705883 397.99999999999994 3584.5 398.00000000000006 3563.5588235294117 398.0000000000001 3542.6176470588234 398.00000000000006 3521.676470588235 398.00000000000006 3500.735294117647 398.0000000000001 3479.794117647059 398.0000000000001 3458.8529411764707 398 3437.9117647058824 398 3416.970588235294 397.99999999999994 3396.029411764706 397.9999999999999 3375.0882352941176 398.0000000000001 3354.1470588235293 397.99999999999994 3333.205882352941 398 3312.264705882353 397.99999999999994 3291.323529411765 398.00000000000006 3270.3823529411766 398 3249.4411764705883 397.99999999999994 3228.5 397.99999999999983 3228.5 440.24550709230834Z" fill="#393d41" opacity="0.9" />
		</g>
		<g>
			<rect x="4372" y="431" width="22.9995" height="23" fill="#e62d39" />
		</g>
		<g>
			<text fill="#595959" font-family="Verdana,sans-serif" font-weight="400" font-size="41" transform="matrix(1 0 0 1 4404.56 454)">iOS</text>
		</g>
		<g>
			<rect x="4372" y="508" width="22.9995" height="23" fill="#005aa6" />
		</g>
		<g>
			<text fill="#595959" font-family="Verdana,sans-serif" font-weight="400" font-size="41" transform="matrix(1 0 0 1 4404.56 531)">Android</text>
		</g>
		<g>
			<rect x="4372" y="585" width="22.9995" height="23" fill="#55c0e9" />
		</g>
		<g>
			<text fill="#595959" font-family="Verdana,sans-serif" font-weight="400" font-size="41" transform="matrix(1 0 0 1 4404.56 608)">Windows</text>
		</g>
		<g>
			<rect x="4372" y="662" width="22.9995" height="23" fill="#f6a118" />
		</g>
		<g>
			<text fill="#595959" font-family="Verdana,sans-serif" font-weight="400" font-size="41" transform="matrix(1 0 0 1 4404.56 685)">macOS</text>
		</g>
		<g>
			<rect x="4372" y="739" width="22.9995" height="23" fill="#fdd5a4" />
		</g>
		<g>
			<text fill="#595959" font-family="Verdana,sans-serif" font-weight="400" font-size="41" transform="matrix(1 0 0 1 4404.56 762)">Other</text>
		</g>
		<g>
			<rect x="4372" y="816" width="22.9995" height="23" fill="#f48c7d" />
		</g>
		<g>
			<text fill="#595959" font-family="Verdana,sans-serif" font-weight="400" font-size="41" transform="matrix(1 0 0 1 4404.56 839)">Linux</text>
		</g>
		<g>
			<rect x="4372" y="893" width="22.9995" height="23" fill="#393d41" />
		</g>
		<g>
			<text fill="#595959" font-family="Verdana,sans-serif" font-weight="400" font-size="41" transform="matrix(1 0 0 1 4404.56 916)">Unclassified</text>
		</g>
	</g>
</svg>
