<svg width="1763" height="1046"
    xmlns="http://www.w3.org/2000/svg"
	xmlns:xlink="http://www.w3.org/1999/xlink" xml:space="preserve" overflow="hidden">
	<defs>
		<clipPath id="clip0">
			<rect x="2917" y="346" width="1763" height="1046"/>
		</clipPath>
	</defs>
	<g clip-path="url(#clip0)" transform="translate(-2917 -346)">
		<rect x="2918" y="347" width="1760" height="1043" fill="#FFFFFF" />
		<g>
			<path d="
			M3228.5 974.532 4296.5 974.532
			M3228.5 910.53 4296.5 910.53
			M3228.5 846.528 4296.5 846.528
			M3228.5 781.526 4296.5 781.526
			M3228.5 717.524 4296.5 717.524
			M3228.5 653.522 4296.5 653.522
			M3228.5 589.52 4296.5 589.52
			M3228.5 525.517 4296.5 525.517
			M3228.5 461.515 4296.5 461.515
			M3228.5 397.5 4296.5 397.5" stroke="#D9D9D9" stroke-width="3.4375" stroke-linejoin="round" stroke-miterlimit="10" fill="none" />
		</g>
		<g>
			<path d="M 1038.5 4296.5 1038.5" stroke="#D9D9D9" stroke-width="3.4375" stroke-linejoin="round" stroke-miterlimit="10" fill="none" fill-rule="evenodd" />
		</g>
		<g>
			<text fill="#595959" font-family="Verdana,sans-serif" font-weight="400" font-size="41" transform="matrix(6.12323e-17 -1 1 6.12323e-17 3244 1207)">15-Jan</text>
		</g>
		<g>
			<text fill="#595959" font-family="Verdana,sans-serif" font-weight="400" font-size="41" transform="matrix(6.12323e-17 -1 1 6.12323e-17 3329.94 1214)">12-Feb</text>
		</g>
		<g>
			<text fill="#595959" font-family="Verdana,sans-serif" font-weight="400" font-size="41" transform="matrix(6.12323e-17 -1 1 6.12323e-17 3414.88 1221)">11-Mar</text>
		</g>
		<g>
			<text fill="#595959" font-family="Verdana,sans-serif" font-weight="400" font-size="41" transform="matrix(6.12323e-17 -1 1 6.12323e-17 3504.32 1217)">08-Apr</text>
		</g>
		<g>
			<text fill="#595959" font-family="Verdana,sans-serif" font-weight="400" font-size="41" transform="matrix(6.12323e-17 -1 1 6.12323e-17 3589.76 1228)">06-May</text>
		</g>
		<g>
			<text fill="#595959" font-family="Verdana,sans-serif" font-weight="400" font-size="41" transform="matrix(6.12323e-17 -1 1 6.12323e-17 3671.7 1211)">03-Jun</text>
		</g>
		<g>
			<text fill="#595959" font-family="Verdana,sans-serif" font-weight="400" font-size="41" transform="matrix(6.12323e-17 -1 1 6.12323e-17 3757.14 1197)">01-Jul</text>
		</g>
		<g>
			<text fill="#595959" font-family="Verdana,sans-serif" font-weight="400" font-size="41" transform="matrix(6.12323e-17 -1 1 6.12323e-17 3842.58 1196)">29-Jul</text>
		</g>
		<g>
			<text fill="#595959" font-family="Verdana,sans-serif" font-weight="400" font-size="41" transform="matrix(6.12323e-17 -1 1 6.12323e-17 3931.52 1221)">26-Aug</text>
		</g>
		<g>
			<text fill="#595959" font-family="Verdana,sans-serif" font-weight="400" font-size="41" transform="matrix(6.12323e-17 -1 1 6.12323e-17 4016.96 1221)">23-Sep</text>
		</g>
		<g>
			<text fill="#595959" font-family="Verdana,sans-serif" font-weight="400" font-size="41" transform="matrix(6.12323e-17 -1 1 6.12323e-17 4098.9 1215)">21-Oct</text>
		</g>
		<g>
			<text fill="#595959" font-family="Verdana,sans-serif" font-weight="400" font-size="41" transform="matrix(6.12323e-17 -1 1 6.12323e-17 4184.34 1222)">18-Nov</text>
		</g>
		<g>
			<text fill="#595959" font-family="Verdana,sans-serif" font-weight="400" font-size="41" transform="matrix(6.12323e-17 -1 1 6.12323e-17 4269.78 1222)">23-Dec</text>
		</g>
		<g>
			<text fill="#595959" font-family="Verdana,sans-serif" font-weight="400" font-size="41" transform="matrix(1 0 0 1 3167.5 1050)">0</text>
		</g>
		<g>
			<text fill="#595959" font-family="Verdana,sans-serif" font-weight="400" font-size="41" transform="matrix(1 0 0 1 3051.5 922)">17,609</text>
		</g>
		<g>
			<text fill="#595959" font-family="Verdana,sans-serif" font-weight="400" font-size="41" transform="matrix(1 0 0 1 3048.5 794)">35,217</text>
		</g>
		<g>
			<text fill="#595959" font-family="Verdana,sans-serif" font-weight="400" font-size="41" transform="matrix(1 0 0 1 3048.5 666)">52,826</text>
		</g>
		<g>
			<text fill="#595959" font-family="Verdana,sans-serif" font-weight="400" font-size="41" transform="matrix(1 0 0 1 3047.5 538)">70,434</text>
		</g>
		<g>
			<text fill="#595959" font-family="Verdana,sans-serif" font-weight="400" font-size="41" transform="matrix(1 0 0 1 3048.5 410)">88,043</text>
		</g>
		<g>
			<text fill="#595959" font-family="Verdana,sans-serif" font-weight="400" font-size="41" transform="matrix(1 0 0 1 3544.5 1321)">Week Commencing</text>
		</g>
		<g>
			<text fill="#595959" font-family="Verdana,sans-serif" font-weight="400" font-size="46" transform="matrix(6.12323e-17 -1 1 6.12323e-17 3019.73 1048.25)">Number of Hardware Profiles</text>
		</g>
		<rect x="2918.5" y="347.5" width="1760" height="1043" stroke="#D9D9D9" stroke-width="3.4375" stroke-linejoin="round" stroke-miterlimit="10" fill="none" />
		<g>
			<path d="M3228.5 1038 3249.86 1038 3271.22 1038 3292.58 1038 3313.94 1038 3335.3 1038 3356.66 1038 3378.02 1038 3399.38 1038 3420.74 1038 3442.1 1038 3463.46 1038 3484.82 1038 3506.18 1038 3527.54 1038 3548.9 1038 3570.26 1038 3591.62 1038 3612.98 1038 3634.34 1038 3655.7 1038 3677.06 1038 3698.42 1038 3719.7799999999997 1038 3741.14 1038 3762.5 1038 3783.86 1038 3805.2200000000003 1038 3826.58 1038 3847.94 1038 3869.3 1038 3890.66 1038 3912.02 1038 3933.38 1038 3954.74 1038 3976.1 1038 3997.46 1038 4018.8199999999997 1038 4040.18 1038 4061.54 1038 4082.9 1038 4104.26 1038 4125.62 1038 4146.98 1038 4168.34 1038 4189.7 1038 4211.0599999999995 1038 4232.42 1038 4253.78 1038 4275.139999999999 1038 4296.5 1038 4296.5 690.9623025112728 4275.139999999999 691.1658394193746 4253.78 691.3548379768977 4232.42 691.6383358131822 4211.0599999999995 692.0308712788069 4189.7 692.4234067444318 4168.34 692.7505196324523 4146.98 693.0194791181582 4125.62 693.2520927274172 4104.26 693.5283213884125 4082.9 693.8845109775905 4061.54 694.2479697420579 4040.18 694.5823518053678 4018.8199999999997 694.8803879922311 3997.46 695.0693865497541 3976.1 695.4691911906682 3954.74 695.9562259350544 3933.38 696.2324545960496 3912.02 696.4359915041514 3890.66 696.6904126392785 3869.3 697.0029871767205 3847.94 697.2937541882943 3826.58 697.5263677975535 3805.2200000000003 697.9043649125995 3783.86 698.2169394500414 3762.5 698.5513215133515 3741.14 698.8566268755039 3719.7799999999997 699.1764705882354 3698.42 699.4454300739411 3677.06 699.4745067750985 3655.7 699.6053519303068 3634.34 699.6853128584896 3612.98 700.0051565712208 3591.62 700.23777018048 3570.26 700.3976920368457 3548.9 700.6957282237088 3527.54 701.0664561634655 3506.18 701.5098758561157 3484.82 701.8733346205831 3463.46 702.1931783333143 3442.1 702.4185227672842 3420.74 702.68748225299 3399.38 702.9273650375385 3378.02 703.1090944197722 3356.66 703.2690162761378 3335.3 703.3853230807674 3313.94 703.5743216382904 3292.58 703.7705893711027 3271.22 704.2503549401997 3249.86 704.5992753540884 3228.5 705.0354258714492 3228.5 1038Z" fill="#e62d39" opacity="0.9" />
		</g>
		<g>
			<path d="M3228.5 705.0354258714492 3249.86 704.5992753540884 3271.22 704.2503549401997 3292.58 703.7705893711027 3313.94 703.5743216382904 3335.3 703.3853230807674 3356.66 703.2690162761378 3378.02 703.1090944197722 3399.38 702.9273650375385 3420.74 702.68748225299 3442.1 702.4185227672842 3463.46 702.1931783333143 3484.82 701.8733346205831 3506.18 701.5098758561157 3527.54 701.0664561634655 3548.9 700.6957282237088 3570.26 700.3976920368457 3591.62 700.23777018048 3612.98 700.0051565712208 3634.34 699.6853128584896 3655.7 699.6053519303068 3677.06 699.4745067750985 3698.42 699.4454300739411 3719.7799999999997 699.1764705882354 3741.14 698.8566268755039 3762.5 698.5513215133515 3783.86 698.2169394500414 3805.2200000000003 697.9043649125995 3826.58 697.5263677975535 3847.94 697.2937541882943 3869.3 697.0029871767205 3890.66 696.6904126392785 3912.02 696.4359915041514 3933.38 696.2324545960496 3954.74 695.9562259350544 3976.1 695.4691911906682 3997.46 695.0693865497541 4018.8199999999997 694.8803879922311 4040.18 694.5823518053678 4061.54 694.2479697420579 4082.9 693.8845109775905 4104.26 693.5283213884125 4125.62 693.2520927274172 4146.98 693.0194791181582 4168.34 692.7505196324523 4189.7 692.4234067444318 4211.0599999999995 692.0308712788069 4232.42 691.6383358131822 4253.78 691.3548379768977 4275.139999999999 691.1658394193746 4296.5 690.9623025112728 4296.5 524.0693070431493 4275.139999999999 524.3164590029871 4253.78 524.5345342616677 4232.42 524.941608077871 4211.0599999999995 525.3777585952319 4189.7 525.966561793669 4168.34 526.3809047851618 4146.98 526.802516951944 4125.62 527.1877832422792 4104.26 527.6820871619549 4082.9 528.1618527310518 4061.54 528.6125415989914 4040.18 529.0850379927989 4018.8199999999997 529.5357268607386 3997.46 529.8555705734698 3976.1 530.3934895448815 3954.74 530.9459468668717 3933.38 531.3966357348113 3912.02 531.7092102722534 3890.66 532.058130686142 3869.3 532.4942812035029 3847.94 532.8722783185489 3826.58 533.2575446088842 3805.2200000000003 533.7227718274024 3783.86 534.1661915200526 3762.5 534.5732653362562 3741.14 535.0094158536169 3719.7799999999997 535.2347602875868 3698.42 535.576411526186 3677.06 535.6272957532115 3655.7 535.7944867848665 3634.34 535.8817168883387 3612.98 536.3396749315675 3591.62 536.7830946242177 3570.26 537.1610917392638 3548.9 537.6263189577819 3527.54 538.1860454550617 3506.18 538.840271231103 3484.82 539.3854593778041 3463.46 539.8652249469009 3442.1 540.1705303090536 3420.74 540.5194507229421 3399.38 540.8756403121203 3378.02 541.1155230966688 3356.66 541.3844825823745 3335.3 541.558942789319 3313.94 541.8424406256033 3292.58 542.1114001113092 3271.22 542.6929341344571 3249.86 543.1654305282647 3228.5 543.7251570255444 3228.5 705.0354258714492Z" fill="#55c0e9" opacity="0.9" />
		</g>
		<g>
			<path d="M3228.5 543.7251570255444 3249.86 543.1654305282647 3271.22 542.6929341344571 3292.58 542.1114001113092 3313.94 541.8424406256033 3335.3 541.558942789319 3356.66 541.3844825823745 3378.02 541.1155230966688 3399.38 540.8756403121203 3420.74 540.5194507229421 3442.1 540.1705303090536 3463.46 539.8652249469009 3484.82 539.3854593778041 3506.18 538.840271231103 3527.54 538.1860454550617 3548.9 537.6263189577819 3570.26 537.1610917392638 3591.62 536.7830946242177 3612.98 536.3396749315675 3634.34 535.8817168883387 3655.7 535.7944867848665 3677.06 535.6272957532115 3698.42 535.576411526186 3719.7799999999997 535.2347602875868 3741.14 535.0094158536169 3762.5 534.5732653362562 3783.86 534.1661915200526 3805.2200000000003 533.7227718274024 3826.58 533.2575446088842 3847.94 532.8722783185489 3869.3 532.4942812035029 3890.66 532.058130686142 3912.02 531.7092102722534 3933.38 531.3966357348113 3954.74 530.9459468668717 3976.1 530.3934895448815 3997.46 529.8555705734698 4018.8199999999997 529.5357268607386 4040.18 529.0850379927989 4061.54 528.6125415989914 4082.9 528.1618527310518 4104.26 527.6820871619549 4125.62 527.1877832422792 4146.98 526.802516951944 4168.34 526.3809047851618 4189.7 525.966561793669 4211.0599999999995 525.3777585952319 4232.42 524.941608077871 4253.78 524.5345342616677 4275.139999999999 524.3164590029871 4296.5 524.0693070431493 4296.5 447.08874072896185 4275.139999999999 447.3431618640891 4253.78 447.5757754733483 4232.42 448.02646434128775 4211.0599999999995 448.47715320922725 4189.7 449.12410980997925 4168.34 449.55299115205065 4146.98 450.01094919527964 4125.62 450.48344558908707 4104.26 451.00682620992006 4082.9 451.5229376554637 4061.54 452.00270322456066 4040.18 452.5188146701043 4018.8199999999997 453.0276569403587 3997.46 453.3838465295367 3976.1 453.98718807855255 3954.74 454.6341446793043 3933.38 455.1139102484012 3912.02 455.47009983757937 3890.66 455.8626353032041 3869.3 456.35693922287976 3847.94 456.77855138966186 3826.58 457.1783560305759 3805.2200000000003 457.65812159967277 3783.86 458.13061799348037 3762.5 458.56676851084137 3741.14 459.0247265540701 3719.7799999999997 459.46814624672044 3698.42 459.8243358358983 3677.06 459.8824892382131 3655.7 460.06421862044687 3634.34 460.1587178992084 3612.98 460.6457526435946 3591.62 461.1327873879809 3570.26 461.5398612041844 3548.9 462.04143429914916 3527.54 462.65204502345443 3506.18 463.3426166759424 3484.82 463.9023431732222 3463.46 464.4257237940551 3442.1 464.7455675067865 3420.74 465.12356462183243 3399.38 465.49429256158925 3378.02 465.7414445214271 3356.66 466.0322115330009 3335.3 466.22121009052404 3313.94 466.5192462773871 3292.58 466.81728246425035 3271.22 467.40608566268764 3249.86 467.90038958236323 3228.5 468.4746544302216 3228.5 543.7251570255444Z" fill="#f6a118" opacity="0.9" />
		</g>
		<g>
			<path d="M3228.5 468.4746544302216 3249.86 467.90038958236323 3271.22 467.40608566268764 3292.58 466.81728246425035 3313.94 466.5192462773871 3335.3 466.22121009052404 3356.66 466.0322115330009 3378.02 465.7414445214271 3399.38 465.49429256158925 3420.74 465.12356462183243 3442.1 464.7455675067865 3463.46 464.4257237940551 3484.82 463.9023431732222 3506.18 463.3426166759424 3527.54 462.65204502345443 3548.9 462.04143429914916 3570.26 461.5398612041844 3591.62 461.1327873879809 3612.98 460.6457526435946 3634.34 460.1587178992084 3655.7 460.06421862044687 3677.06 459.8824892382131 3698.42 459.8243358358983 3719.7799999999997 459.46814624672044 3741.14 459.0247265540701 3762.5 458.56676851084137 3783.86 458.13061799348037 3805.2200000000003 457.65812159967277 3826.58 457.1783560305759 3847.94 456.77855138966186 3869.3 456.35693922287976 3890.66 455.8626353032041 3912.02 455.47009983757937 3933.38 455.1139102484012 3954.74 454.6341446793043 3976.1 453.98718807855255 3997.46 453.3838465295367 4018.8199999999997 453.0276569403587 4040.18 452.5188146701043 4061.54 452.00270322456066 4082.9 451.5229376554637 4104.26 451.00682620992006 4125.62 450.48344558908707 4146.98 450.01094919527964 4168.34 449.55299115205065 4189.7 449.12410980997925 4211.0599999999995 448.47715320922725 4232.42 448.02646434128775 4253.78 447.5757754733483 4275.139999999999 447.3431618640891 4296.5 447.08874072896185 4296.5 399.35206660381846 4275.139999999999 399.6501027906818 4253.78 399.9626773281238 4232.42 400.66051815590106 4211.0599999999995 401.3801665095464 4189.7 402.6377338346036 4168.34 403.3137671365128 4146.98 404.0043387890009 4125.62 404.7167179673568 4104.26 405.42909714571283 4082.9 406.1560146746475 4061.54 406.86839385300357 4040.18 407.58077303135957 4018.8199999999997 408.2858830344264 3997.46 408.8310711811274 3976.1 409.74698726758515 3954.74 410.56840407528125 3933.38 411.295321604216 3912.02 411.85504810149587 3890.66 412.5383505786945 3869.3 413.22892223118254 3847.94 413.91222470838113 3826.58 414.6027963608691 3805.2200000000003 415.3006371886463 3783.86 416.02028554229173 3762.5 416.73266472064796 3741.14 417.4668514248719 3719.7799999999997 418.15742307736 3698.42 418.84799472984787 3677.06 419.5312972070465 3655.7 420.1855229830878 3634.34 420.8397487591291 3612.98 421.58847381393184 3591.62 422.17727701236896 3570.26 422.72246515907005 3548.9 423.36215258453245 3527.54 424.125415989914 3506.18 424.86687186942737 3484.82 425.54290517133677 3463.46 426.10263166861637 3442.1 426.45155208250515 3420.74 426.88043342457655 3399.38 427.2729688902014 3378.02 427.6436968299582 3356.66 428.1089240484763 3335.3 428.73407312336025 3313.94 429.4973365287415 3292.58 429.9189486955237 3271.22 430.55136694569705 3249.86 431.17651602058095 3228.5 431.78712674488605 3228.5 468.4746544302216Z" fill="#fdd5a4" opacity="0.9" />
		</g>
		<g>
			<path d="M3228.5 431.78712674488605 3249.86 431.17651602058095 3271.22 430.55136694569705 3292.58 429.9189486955237 3313.94 429.4973365287415 3335.3 428.73407312336025 3356.66 428.1089240484763 3378.02 427.6436968299582 3399.38 427.2729688902014 3420.74 426.88043342457655 3442.1 426.45155208250515 3463.46 426.10263166861637 3484.82 425.54290517133677 3506.18 424.86687186942737 3527.54 424.125415989914 3548.9 423.36215258453245 3570.26 422.72246515907005 3591.62 422.17727701236896 3612.98 421.58847381393184 3634.34 420.8397487591291 3655.7 420.1855229830878 3677.06 419.5312972070465 3698.42 418.84799472984787 3719.7799999999997 418.15742307736 3741.14 417.4668514248719 3762.5 416.73266472064796 3783.86 416.02028554229173 3805.2200000000003 415.3006371886463 3826.58 414.6027963608691 3847.94 413.91222470838113 3869.3 413.22892223118254 3890.66 412.5383505786945 3912.02 411.85504810149587 3933.38 411.295321604216 3954.74 410.56840407528125 3976.1 409.74698726758515 3997.46 408.8310711811274 4018.8199999999997 408.2858830344264 4040.18 407.58077303135957 4061.54 406.86839385300357 4082.9 406.1560146746475 4104.26 405.42909714571283 4125.62 404.7167179673568 4146.98 404.0043387890009 4168.34 403.3137671365128 4189.7 402.6377338346036 4211.0599999999995 401.3801665095464 4232.42 400.66051815590106 4253.78 399.9626773281238 4275.139999999999 399.6501027906818 4296.5 399.35206660381846 4296.5 397.9999999999999 4275.139999999999 398.2980361868632 4253.78 398.6106107243052 4232.42 399.3084515520825 4211.0599999999995 400.02809990572786 4189.7 401.285667230785 4168.34 401.96170053269424 4146.98 402.6522721851823 4125.62 403.3646513635382 4104.26 404.08429971718357 4082.9 404.8184864214076 4061.54 405.5308655997637 4040.18 406.2432447781197 4018.8199999999997 406.9483547811865 3997.46 407.4935429278875 3976.1 408.40945901434526 3954.74 409.23087582204136 3933.38 409.9577933509761 3912.02 410.517519848256 3890.66 411.2008223254546 3869.3 411.89139397794264 3847.94 412.57469645514124 3826.58 413.2652681076292 3805.2200000000003 413.9631089354064 3783.86 414.68275728905184 3762.5 415.39513646740807 3741.14 416.129323171632 3719.7799999999997 416.8198948241201 3698.42 417.510466476608 3677.06 418.1937689538066 3655.7 418.8479947298479 3634.34 419.5022205058892 3612.98 420.25094556069195 3591.62 420.83974875912907 3570.26 421.38493690583016 3548.9 422.02462433129256 3527.54 422.7878877366741 3506.18 423.5293436161875 3484.82 424.21991526867555 3463.46 424.77964176595515 3442.1 425.1285621798439 3420.74 425.55744352191533 3399.38 425.9499789875402 3378.02 426.32070692729695 3356.66 426.7859341458151 3335.3 427.411083220699 3313.94 428.1743466260803 3292.58 428.59595879286246 3271.22 429.22837704303583 3249.86 429.8535261179197 3228.5 430.46413684222483 3228.5 431.78712674488605Z" fill="#005aa6" opacity="0.9" />
		</g>
		<g>
			<rect x="4372" y="431" width="22.9995" height="23" fill="#e62d39" />
		</g>
		<g>
			<text fill="#595959" font-family="Verdana,sans-serif" font-weight="400" font-size="41" transform="matrix(1 0 0 1 4404.56 454)">Smartphone</text>
		</g>
		<g>
			<rect x="4372" y="508" width="22.9995" height="23" fill="#55c0e9" />
		</g>
		<g>
			<text fill="#595959" font-family="Verdana,sans-serif" font-weight="400" font-size="41" transform="matrix(1 0 0 1 4404.56 531)">Tablet</text>
		</g>
		<g>
			<rect x="4372" y="585" width="22.9995" height="23" fill="#f6a118" />
		</g>
		<g>
			<text fill="#595959" font-family="Verdana,sans-serif" font-weight="400" font-size="41" transform="matrix(1 0 0 1 4404.56 608)">Other</text>
		</g>
		<g>
			<rect x="4372" y="662" width="22.9995" height="23" fill="#fdd5a4" />
		</g>
		<g>
			<text fill="#595959" font-family="Verdana,sans-serif" font-weight="400" font-size="41" transform="matrix(1 0 0 1 4404.56 685)">Tv</text>
		</g>
		<g>
			<rect x="4372" y="739" width="22.9995" height="23" fill="#005aa6" />
		</g>
		<g>
			<text fill="#595959" font-family="Verdana,sans-serif" font-weight="400" font-size="41" transform="matrix(1 0 0 1 4404.56 762)">Desktop</text>
		</g>
	</g>
</svg>
