<svg width="1763" height="1046"
    xmlns="http://www.w3.org/2000/svg"
	xmlns:xlink="http://www.w3.org/1999/xlink" xml:space="preserve" overflow="hidden">
	<defs>
		<clipPath id="clip0">
			<rect x="2917" y="346" width="1763" height="1046"/>
		</clipPath>
	</defs>
	<g clip-path="url(#clip0)" transform="translate(-2917 -346)">
		<rect x="2918" y="347" width="1760" height="1043" fill="#FFFFFF" />
		<g>
			<path d="
			M3228.5 974.532 4296.5 974.532
			M3228.5 910.53 4296.5 910.53
			M3228.5 846.528 4296.5 846.528
			M3228.5 781.526 4296.5 781.526
			M3228.5 717.524 4296.5 717.524
			M3228.5 653.522 4296.5 653.522
			M3228.5 589.52 4296.5 589.52
			M3228.5 525.517 4296.5 525.517
			M3228.5 461.515 4296.5 461.515
			M3228.5 397.5 4296.5 397.5" stroke="#D9D9D9" stroke-width="3.4375" stroke-linejoin="round" stroke-miterlimit="10" fill="none" />
		</g>
		<g>
			<path d="M 1038.5 4296.5 1038.5" stroke="#D9D9D9" stroke-width="3.4375" stroke-linejoin="round" stroke-miterlimit="10" fill="none" fill-rule="evenodd" />
		</g>
		<g>
			<text fill="#595959" font-family="Verdana,sans-serif" font-weight="400" font-size="41" transform="matrix(6.12323e-17 -1 1 6.12323e-17 3244.5 1227)">06-Nov</text>
		</g>
		<g>
			<text fill="#595959" font-family="Verdana,sans-serif" font-weight="400" font-size="41" transform="matrix(6.12323e-17 -1 1 6.12323e-17 3351.3 1226)">20-Nov</text>
		</g>
		<g>
			<text fill="#595959" font-family="Verdana,sans-serif" font-weight="400" font-size="41" transform="matrix(6.12323e-17 -1 1 6.12323e-17 3458.1 1225)">04-Dec</text>
		</g>
		<g>
			<text fill="#595959" font-family="Verdana,sans-serif" font-weight="400" font-size="41" transform="matrix(6.12323e-17 -1 1 6.12323e-17 3564.9 1222)">18-Dec</text>
		</g>
		<g>
			<text fill="#595959" font-family="Verdana,sans-serif" font-weight="400" font-size="41" transform="matrix(6.12323e-17 -1 1 6.12323e-17 3671.7 1212)">01-Jan</text>
		</g>
		<g>
			<text fill="#595959" font-family="Verdana,sans-serif" font-weight="400" font-size="41" transform="matrix(6.12323e-17 -1 1 6.12323e-17 3778 1209)">15-Jan</text>
		</g>
		<g>
			<text fill="#595959" font-family="Verdana,sans-serif" font-weight="400" font-size="41" transform="matrix(6.12323e-17 -1 1 6.12323e-17 3885.3 1211)">29-Jan</text>
		</g>
		<g>
			<text fill="#595959" font-family="Verdana,sans-serif" font-weight="400" font-size="41" transform="matrix(6.12323e-17 -1 1 6.12323e-17 3992.1 1216)">12-Feb</text>
		</g>
		<g>
			<text fill="#595959" font-family="Verdana,sans-serif" font-weight="400" font-size="41" transform="matrix(6.12323e-17 -1 1 6.12323e-17 4098.9 1218)">26-Feb</text>
		</g>
		<g>
			<text fill="#595959" font-family="Verdana,sans-serif" font-weight="400" font-size="41" transform="matrix(6.12323e-17 -1 1 6.12323e-17 4205.2 1222)">11-Mar</text>
		</g>
		<g>
			<text fill="#595959" font-family="Verdana,sans-serif" font-weight="400" font-size="41" transform="matrix(6.12323e-17 -1 1 6.12323e-17 4312.5 1225)">25-Mar</text>
		</g>
		<g>
			<text fill="#595959" font-family="Verdana,sans-serif" font-weight="400" font-size="41" transform="matrix(1 0 0 1 3167.5 1050)">0</text>
		</g>
		<g>
			<text fill="#595959" font-family="Verdana,sans-serif" font-weight="400" font-size="41" transform="matrix(1 0 0 1 3049.5 922)">16,862</text>
		</g>
		<g>
			<text fill="#595959" font-family="Verdana,sans-serif" font-weight="400" font-size="41" transform="matrix(1 0 0 1 3046.5 794)">33,724</text>
		</g>
		<g>
			<text fill="#595959" font-family="Verdana,sans-serif" font-weight="400" font-size="41" transform="matrix(1 0 0 1 3047.5 666)">50,587</text>
		</g>
		<g>
			<text fill="#595959" font-family="Verdana,sans-serif" font-weight="400" font-size="41" transform="matrix(1 0 0 1 3046.5 538)">67,449</text>
		</g>
		<g>
			<text fill="#595959" font-family="Verdana,sans-serif" font-weight="400" font-size="41" transform="matrix(1 0 0 1 3047.5 410)">84,311</text>
		</g>
		<g>
			<text fill="#595959" font-family="Verdana,sans-serif" font-weight="400" font-size="41" transform="matrix(1 0 0 1 3541.5 1321)">Week Commencing</text>
		</g>
		<g>
			<text fill="#595959" font-family="Verdana,sans-serif" font-weight="400" font-size="46" transform="matrix(6.12323e-17 -1 1 6.12323e-17 3019.73 1052.75)">Number of Hardware Profiles</text>
		</g>
		<rect x="2918.5" y="347.5" width="1760" height="1043" stroke="#D9D9D9" stroke-width="3.4375" stroke-linejoin="round" stroke-miterlimit="10" fill="none" />
		<g>
			<path d="M3228.5 1038 3281.9 1038 3335.3 1038 3388.7 1038 3442.1 1038 3495.5 1038 3548.9 1038 3602.3 1038 3655.7 1038 3709.1 1038 3762.5 1038 3815.9 1038 3869.3 1038 3922.7 1038 3976.1 1038 4029.5 1038 4082.9 1038 4136.3 1038 4189.7 1038 4243.1 1038 4296.5 1038 4296.5 687.5641138167025 4243.1 687.8449787097769 4189.7 688.095479830627 4136.3 688.2852534070287 4082.9 688.4522541542622 4029.5 688.5737092431593 3976.1 688.771073762617 3922.7 688.9760292251308 3869.3 689.4770314668311 3815.9 689.8413967335223 3762.5 690.2968533168863 3709.1 690.7674917863624 3655.7 691.1166751669414 3602.3 691.0559476224929 3548.9 691.3519944016796 3495.5 691.6935868392025 3442.1 691.9668607892208 3388.7 692.3312260559121 3335.3 692.6424547212107 3281.9 692.9536833865095 3228.5 693.4470946851538 3228.5 1038Z" fill="#e62d39" opacity="0.9" />
		</g>
		<g>
			<path d="M3228.5 693.4470946851538 3281.9 692.9536833865095 3335.3 692.6424547212107 3388.7 692.3312260559121 3442.1 691.9668607892208 3495.5 691.6935868392025 3548.9 691.3519944016796 3602.3 691.0559476224929 3655.7 691.1166751669414 3709.1 690.7674917863624 3762.5 690.2968533168863 3815.9 689.8413967335223 3869.3 689.4770314668311 3922.7 688.9760292251308 3976.1 688.771073762617 4029.5 688.5737092431593 4082.9 688.4522541542622 4136.3 688.2852534070287 4189.7 688.095479830627 4243.1 687.8449787097769 4296.5 687.5641138167025 4296.5 518.1342648053043 4243.1 518.4986300719954 4189.7 518.8705862817426 4136.3 519.1210874025927 4082.9 519.4019522956672 4029.5 519.5841349290129 3976.1 519.8801817081994 3922.7 520.1610466012739 3869.3 520.7683220457592 3815.9 521.2617333444034 3762.5 521.8462359597206 3709.1 522.4611023472619 3655.7 522.9469227028501 3602.3 522.8937861014576 3548.9 523.265742311205 3495.5 523.7591536098492 3442.1 524.313292452942 3388.7 524.9129769543714 3335.3 525.565798057193 3281.9 526.1578916155662 3228.5 526.8410764906122 3228.5 693.4470946851538Z" fill="#f6a118" opacity="0.9" />
		</g>
		<g>
			<path d="M3228.5 526.8410764906122 3281.9 526.1578916155662 3335.3 525.565798057193 3388.7 524.9129769543714 3442.1 524.313292452942 3495.5 523.7591536098492 3548.9 523.265742311205 3602.3 522.8937861014576 3655.7 522.9469227028501 3709.1 522.4611023472619 3762.5 521.8462359597206 3815.9 521.2617333444034 3869.3 520.7683220457592 3922.7 520.1610466012739 3976.1 519.8801817081994 4029.5 519.5841349290129 4082.9 519.4019522956672 4136.3 519.1210874025927 4189.7 518.8705862817426 4243.1 518.4986300719954 4296.5 518.1342648053043 4296.5 439.37063965556104 4243.1 439.7653686944765 4189.7 440.1525067903358 4136.3 440.4105988542419 4082.9 440.71423657648467 4029.5 440.91160109594244 3976.1 441.22282976124114 3922.7 441.5340584265399 3869.3 442.1489248140812 3815.9 442.66510894189366 3762.5 443.264793443323 3709.1 443.9403873753128 3655.7 444.45657150312525 3602.3 444.45657150312525 3548.9 444.8361186559287 3495.5 445.42062127124575 3442.1 446.01271482961886 3388.7 446.6199902741043 3335.3 447.3107660922062 3281.9 447.96358719502797 3228.5 448.6999086714664 3228.5 526.8410764906122Z" fill="#55c0e9" opacity="0.9" />
		</g>
		<g>
			<path d="M3228.5 448.6999086714664 3281.9 447.96358719502797 3335.3 447.3107660922062 3388.7 446.6199902741043 3442.1 446.01271482961886 3495.5 445.42062127124575 3548.9 444.8361186559287 3602.3 444.45657150312525 3655.7 444.45657150312525 3709.1 443.9403873753128 3762.5 443.264793443323 3815.9 442.66510894189366 3869.3 442.1489248140812 3922.7 441.5340584265399 3976.1 441.22282976124114 4029.5 440.91160109594244 4082.9 440.71423657648467 4136.3 440.4105988542419 4189.7 440.1525067903358 4243.1 439.7653686944765 4296.5 439.37063965556104 4296.5 399.3815516362041 4243.1 399.82941727651206 4189.7 400.23932820153954 4136.3 400.6264662973988 4082.9 401.1122866529871 4029.5 401.7651077558089 3976.1 402.5621567766958 3922.7 403.0024314739477 3869.3 403.66284351982546 3815.9 404.3156646226471 3762.5 404.95330383935675 3709.1 405.7275800310754 3655.7 406.3500373616728 3602.3 406.3500373616728 3548.9 406.82067583114906 3495.5 407.511451649251 3442.1 408.209818410409 3388.7 408.9613217729597 3335.3 409.78873456607084 3281.9 410.51746509945326 3228.5 411.37524166478875 3228.5 448.6999086714664Z" fill="#fdd5a4" opacity="0.9" />
		</g>
		<g>
			<path d="M3228.5 411.37524166478875 3281.9 410.51746509945326 3335.3 409.78873456607084 3388.7 408.9613217729597 3442.1 408.209818410409 3495.5 407.511451649251 3548.9 406.82067583114906 3602.3 406.3500373616728 3655.7 406.3500373616728 3709.1 405.7275800310754 3762.5 404.95330383935675 3815.9 404.3156646226471 3869.3 403.66284351982546 3922.7 403.0024314739477 3976.1 402.5621567766958 4029.5 401.7651077558089 4082.9 401.1122866529871 4136.3 400.6264662973988 4189.7 400.23932820153954 4243.1 399.82941727651206 4296.5 399.3815516362041 4296.5 398.00000000000006 4243.1 398.447865640308 4189.7 398.8577765653355 4136.3 399.24491466119474 4082.9 399.73073501678306 4029.5 400.38355611960486 3976.1 401.18060514049176 3922.7 401.62087983774364 3869.3 402.2812918836214 3815.9 402.93411298644304 3762.5 403.5717522031527 3709.1 404.3460283948713 3655.7 404.9684857254687 3602.3 404.9684857254687 3548.9 405.46948796716924 3495.5 406.16785472832726 3442.1 406.86622148948527 3388.7 407.61772485203596 3335.3 408.4451376451471 3281.9 409.1738681785295 3228.5 410.031644743865 3228.5 411.37524166478875Z" fill="#005aa6" opacity="0.9" />
		</g>
		<g>
			<rect x="4372" y="431" width="22.9995" height="23" fill="#e62d39" />
		</g>
		<g>
			<text fill="#595959" font-family="Verdana,sans-serif" font-weight="400" font-size="41" transform="matrix(1 0 0 1 4404.56 454)">Smartphone</text>
		</g>
		<g>
			<rect x="4372" y="508" width="22.9995" height="23" fill="#f6a118" />
		</g>
		<g>
			<text fill="#595959" font-family="Verdana,sans-serif" font-weight="400" font-size="41" transform="matrix(1 0 0 1 4404.56 531)">Tablet</text>
		</g>
		<g>
			<rect x="4372" y="585" width="22.9995" height="23" fill="#55c0e9" />
		</g>
		<g>
			<text fill="#595959" font-family="Verdana,sans-serif" font-weight="400" font-size="41" transform="matrix(1 0 0 1 4404.56 608)">Other</text>
		</g>
		<g>
			<rect x="4372" y="662" width="22.9995" height="23" fill="#fdd5a4" />
		</g>
		<g>
			<text fill="#595959" font-family="Verdana,sans-serif" font-weight="400" font-size="41" transform="matrix(1 0 0 1 4404.56 685)">Tv</text>
		</g>
		<g>
			<rect x="4372" y="739" width="22.9995" height="23" fill="#005aa6" />
		</g>
		<g>
			<text fill="#595959" font-family="Verdana,sans-serif" font-weight="400" font-size="41" transform="matrix(1 0 0 1 4404.56 762)">Desktop</text>
		</g>
	</g>
</svg>
