<svg width="1763" height="1046"
    xmlns="http://www.w3.org/2000/svg"
	xmlns:xlink="http://www.w3.org/1999/xlink" xml:space="preserve" overflow="hidden">
	<defs>
		<clipPath id="clip0">
			<rect x="2917" y="346" width="1763" height="1046"/>
		</clipPath>
	</defs>
	<g clip-path="url(#clip0)" transform="translate(-2917 -346)">
		<rect x="2918" y="347" width="1760" height="1043" fill="#FFFFFF" />
		<g>
			<path d="
			M3228.5 974.532 4296.5 974.532
			M3228.5 910.53 4296.5 910.53
			M3228.5 846.528 4296.5 846.528
			M3228.5 781.526 4296.5 781.526
			M3228.5 717.524 4296.5 717.524
			M3228.5 653.522 4296.5 653.522
			M3228.5 589.52 4296.5 589.52
			M3228.5 525.517 4296.5 525.517
			M3228.5 461.515 4296.5 461.515
			M3228.5 397.5 4296.5 397.5" stroke="#D9D9D9" stroke-width="3.4375" stroke-linejoin="round" stroke-miterlimit="10" fill="none" />
		</g>
		<g>
			<path d="M 1038.5 4296.5 1038.5" stroke="#D9D9D9" stroke-width="3.4375" stroke-linejoin="round" stroke-miterlimit="10" fill="none" fill-rule="evenodd" />
		</g>
		<g>
			<text fill="#595959" font-family="Verdana,sans-serif" font-weight="400" font-size="41" transform="matrix(6.12323e-17 -1 1 6.12323e-17 3244.5 1225)">06-Nov</text>
		</g>
		<g>
			<text fill="#595959" font-family="Verdana,sans-serif" font-weight="400" font-size="41" transform="matrix(6.12323e-17 -1 1 6.12323e-17 3351.3 1223)">04-Dec</text>
		</g>
		<g>
			<text fill="#595959" font-family="Verdana,sans-serif" font-weight="400" font-size="41" transform="matrix(6.12323e-17 -1 1 6.12323e-17 3458.1 1210)">01-Jan</text>
		</g>
		<g>
			<text fill="#595959" font-family="Verdana,sans-serif" font-weight="400" font-size="41" transform="matrix(6.12323e-17 -1 1 6.12323e-17 3564.9 1210)">29-Jan</text>
		</g>
		<g>
			<text fill="#595959" font-family="Verdana,sans-serif" font-weight="400" font-size="41" transform="matrix(6.12323e-17 -1 1 6.12323e-17 3671.7 1216)">26-Feb</text>
		</g>
		<g>
			<text fill="#595959" font-family="Verdana,sans-serif" font-weight="400" font-size="41" transform="matrix(6.12323e-17 -1 1 6.12323e-17 3778.5 1223)">25-Mar</text>
		</g>
		<g>
			<text fill="#595959" font-family="Verdana,sans-serif" font-weight="400" font-size="41" transform="matrix(6.12323e-17 -1 1 6.12323e-17 3888.8 1216)">22-Apr</text>
		</g>
		<g>
			<text fill="#595959" font-family="Verdana,sans-serif" font-weight="400" font-size="41" transform="matrix(6.12323e-17 -1 1 6.12323e-17 3995.6 1228)">20-May</text>
		</g>
		<g>
			<text fill="#595959" font-family="Verdana,sans-serif" font-weight="400" font-size="41" transform="matrix(6.12323e-17 -1 1 6.12323e-17 4098.4 1209)">17-Jun</text>
		</g>
		<g>
			<text fill="#595959" font-family="Verdana,sans-serif" font-weight="400" font-size="41" transform="matrix(6.12323e-17 -1 1 6.12323e-17 4205.7 1194)">15-Jul</text>
		</g>
		<g>
			<text fill="#595959" font-family="Verdana,sans-serif" font-weight="400" font-size="41" transform="matrix(6.12323e-17 -1 1 6.12323e-17 4316 1218)">12-Aug</text>
		</g>
		<g>
			<text fill="#595959" font-family="Verdana,sans-serif" font-weight="400" font-size="41" transform="matrix(1 0 0 1 3123.5 1050)">0%</text>
		</g>
		<g>
			<text fill="#595959" font-family="Verdana,sans-serif" font-weight="400" font-size="41" transform="matrix(1 0 0 1 3097.5 922)">20%</text>
		</g>
		<g>
			<text fill="#595959" font-family="Verdana,sans-serif" font-weight="400" font-size="41" transform="matrix(1 0 0 1 3096.5 794)">40%</text>
		</g>
		<g>
			<text fill="#595959" font-family="Verdana,sans-serif" font-weight="400" font-size="41" transform="matrix(1 0 0 1 3097.5 666)">60%</text>
		</g>
		<g>
			<text fill="#595959" font-family="Verdana,sans-serif" font-weight="400" font-size="41" transform="matrix(1 0 0 1 3097.5 538)">80%</text>
		</g>
		<g>
			<text fill="#595959" font-family="Verdana,sans-serif" font-weight="400" font-size="41" transform="matrix(1 0 0 1 3074.5 410)">100%</text>
		</g>
		<g>
			<text fill="#595959" font-family="Verdana,sans-serif" font-weight="400" font-size="41" transform="matrix(1 0 0 1 3544.5 1321)">Week Commencing</text>
		</g>
		<g>
			<text fill="#595959" font-family="Verdana,sans-serif" font-weight="400" font-size="46" transform="matrix(6.12323e-17 -1 1 6.12323e-17 3019.73 965.25)">Requests (% of Total)</text>
		</g>
		<rect x="2918.5" y="347.5" width="1760" height="1043" stroke="#D9D9D9" stroke-width="3.4375" stroke-linejoin="round" stroke-miterlimit="10" fill="none" />
		<g>
			<path d="M3228.5 1038 3255.2 1038 3281.9 1038 3308.6 1038 3335.3 1038 3362 1038 3388.7 1038 3415.4 1038 3442.1 1038 3468.8 1038 3495.5 1038 3522.2 1038 3548.9 1038 3575.6 1038 3602.3 1038 3629 1038 3655.7 1038 3682.4 1038 3709.1 1038 3735.8 1038 3762.5 1038 3789.2 1038 3815.9 1038 3842.6 1038 3869.3 1038 3896 1038 3922.7 1038 3949.4 1038 3976.1 1038 4002.8 1038 4029.5 1038 4056.2 1038 4082.9 1038 4109.6 1038 4136.3 1038 4163 1038 4189.7 1038 4216.4 1038 4243.1 1038 4269.8 1038 4296.5 1038 4296.5 632.703376074059 4269.8 631.9415100696045 4243.1 630.857109120077 4216.4 629.6835942752446 4189.7 628.7570391925642 4163 627.5176878063296 4136.3 626.3963136974012 4109.6 625.2428890685153 4082.9 624.0667377001988 4056.2 622.80172023452 4029.5 632.4054355541638 4002.8 630.9533026623258 3976.1 630.0731822124889 3949.4 629.6411395703622 3922.7 629.3637077507597 3896 629.112232069277 3869.3 628.7712194186788 3842.6 629.1405060461395 3815.9 630.4544284738802 3789.2 631.6183228637996 3762.5 647.4118241208081 3735.8 648.3895796632379 3709.1 621.5001438018157 3682.4 620.7479883324611 3655.7 618.9772962489769 3629 616.6754829613407 3602.3 614.5117939817052 3575.6 615.2796120230914 3548.9 615.9275087100596 3522.2 616.3813797093885 3495.5 616.3755182018299 3468.8 569.065986327317 3442.1 568.8533275368973 3415.4 570.4200135868562 3388.7 571.2367304637471 3362 574.6430294813756 3335.3 573.9159777926823 3308.6 571.940753677543 3281.9 571.7928428278394 3255.2 571.6102570585995 3228.5 570.6431995209241 3228.5 1038Z" fill="#e62d39" opacity="0.9" />
		</g>
		<g>
			<path d="M3228.5 570.6431995209241 3255.2 571.6102570585995 3281.9 571.7928428278394 3308.6 571.940753677543 3335.3 573.9159777926823 3362 574.6430294813756 3388.7 571.2367304637471 3415.4 570.4200135868562 3442.1 568.8533275368973 3468.8 569.065986327317 3495.5 616.3755182018299 3522.2 616.3813797093885 3548.9 615.9275087100596 3575.6 615.2796120230914 3602.3 614.5117939817052 3629 616.6754829613407 3655.7 618.9772962489769 3682.4 620.7479883324611 3709.1 621.5001438018157 3735.8 648.3895796632379 3762.5 647.4118241208081 3789.2 631.6183228637996 3815.9 630.4544284738802 3842.6 629.1405060461395 3869.3 628.7712194186788 3896 629.112232069277 3922.7 629.3637077507597 3949.4 629.6411395703622 3976.1 630.0731822124889 4002.8 630.9533026623258 4029.5 632.4054355541638 4056.2 622.80172023452 4082.9 624.0667377001988 4109.6 625.2428890685153 4136.3 626.3963136974012 4163 627.5176878063296 4189.7 628.7570391925642 4216.4 629.6835942752446 4243.1 630.857109120077 4269.8 631.9415100696045 4296.5 632.703376074059 4296.5 551.5476668303065 4269.8 550.4510715595417 4243.1 549.056064697407 4216.4 547.7069248917836 4189.7 546.4892681197156 4163 545.0068552240035 4136.3 543.5872074138473 4109.6 542.2071477253921 4082.9 540.7523658360859 4056.2 539.1846046453284 4029.5 550.69398337688 4002.8 549.0305649530324 3976.1 547.8419869340069 3949.4 547.2972215888882 3922.7 546.9206806705122 3896 546.5765460991323 3869.3 546.1401156456737 3842.6 546.162084159149 3815.9 547.0193242259644 3789.2 547.5943073684911 3762.5 565.6397555577983 3735.8 566.0005705781988 3709.1 541.8846686674905 3682.4 541.0539314470215 3655.7 539.8778029714027 3629 538.0311425357806 3602.3 536.4270145966814 3575.6 536.7106293649022 3548.9 536.9764016245806 3522.2 535.7941999215749 3495.5 535.7525782888524 3468.8 509.06513243323207 3442.1 509.44212806241245 3415.4 509.38220585337143 3388.7 509.60866877735396 3362 511.9603578529975 3335.3 511.0153758579769 3308.6 509.7472741468517 3281.9 509.176439393107 3255.2 508.6338001891333 3228.5 508.14325383903014 3228.5 570.6431995209241Z" fill="#005aa6" opacity="0.9" />
		</g>
		<g>
			<path d="M3228.5 508.14325383903014 3255.2 508.6338001891333 3281.9 509.176439393107 3308.6 509.7472741468517 3335.3 511.0153758579769 3362 511.9603578529975 3388.7 509.60866877735396 3415.4 509.38220585337143 3442.1 509.44212806241245 3468.8 509.06513243323207 3495.5 535.7525782888524 3522.2 535.7941999215749 3548.9 536.9764016245806 3575.6 536.7106293649022 3602.3 536.4270145966814 3629 538.0311425357806 3655.7 539.8778029714027 3682.4 541.0539314470215 3709.1 541.8846686674905 3735.8 566.0005705781988 3762.5 565.6397555577983 3789.2 547.5943073684911 3815.9 547.0193242259644 3842.6 546.162084159149 3869.3 546.1401156456737 3896 546.5765460991323 3922.7 546.9206806705122 3949.4 547.2972215888882 3976.1 547.8419869340069 4002.8 549.0305649530324 4029.5 550.69398337688 4056.2 539.1846046453284 4082.9 540.7523658360859 4109.6 542.2071477253921 4136.3 543.5872074138473 4163 545.0068552240035 4189.7 546.4892681197156 4216.4 547.7069248917836 4243.1 549.056064697407 4269.8 550.4510715595417 4296.5 551.5476668303065 4296.5 527.9710368276562 4269.8 526.7914366981524 4243.1 525.3123672531278 4216.4 523.9349092321237 4189.7 522.6767257917172 4163 521.1207351787452 4136.3 519.5911430965305 4109.6 518.1357144384516 4082.9 516.5996074824589 4056.2 514.9659833917357 4029.5 527.0438985976282 4002.8 525.3024251103315 3976.1 523.9562890822376 3949.4 523.2798263552974 3922.7 522.7674371524068 3896 522.2747415869658 3869.3 521.7061803820658 3842.6 521.4815581773842 3815.9 522.0175391594702 3789.2 522.2390966744398 3762.5 540.7792433621357 3735.8 540.7347903265445 3709.1 520.8422961076436 3682.4 519.941244366186 3655.7 518.8725186340012 3629 517.1348567955661 3602.3 515.650021587989 3575.6 515.7382849108784 3548.9 515.8356026961703 3522.2 514.2250429205485 3495.5 514.175265377396 3468.8 492.9059942279181 3442.1 493.0966047321476 3415.4 492.88332734476376 3388.7 492.95479515937706 3362 494.7801665319999 3335.3 493.78468973551225 3308.6 492.5320066774311 3281.9 491.93197908298504 3255.2 491.34916929089724 3228.5 490.7876094955426 3228.5 508.14325383903014Z" fill="#55c0e9" opacity="0.9" />
		</g>
		<g>
			<path d="M3228.5 490.7876094955426 3255.2 491.34916929089724 3281.9 491.93197908298504 3308.6 492.5320066774311 3335.3 493.78468973551225 3362 494.7801665319999 3388.7 492.95479515937706 3415.4 492.88332734476376 3442.1 493.0966047321476 3468.8 492.9059942279181 3495.5 514.175265377396 3522.2 514.2250429205485 3548.9 515.8356026961703 3575.6 515.7382849108784 3602.3 515.650021587989 3629 517.1348567955661 3655.7 518.8725186340012 3682.4 519.941244366186 3709.1 520.8422961076436 3735.8 540.7347903265445 3762.5 540.7792433621357 3789.2 522.2390966744398 3815.9 522.0175391594702 3842.6 521.4815581773842 3869.3 521.7061803820658 3896 522.2747415869658 3922.7 522.7674371524068 3949.4 523.2798263552974 3976.1 523.9562890822376 4002.8 525.3024251103315 4029.5 527.0438985976282 4056.2 514.9659833917357 4082.9 516.5996074824589 4109.6 518.1357144384516 4136.3 519.5911430965305 4163 521.1207351787452 4189.7 522.6767257917172 4216.4 523.9349092321237 4243.1 525.3123672531278 4269.8 526.7914366981524 4296.5 527.9710368276562 4296.5 510.82918253556556 4269.8 509.7179568015223 4243.1 508.3175496659528 4216.4 507.0170454704227 4189.7 505.81218353227047 4163 504.3173344906431 4136.3 502.8338970689489 4109.6 501.4426511937707 4082.9 499.97387766322737 4056.2 498.4242329984132 4029.5 510.99365573350235 4002.8 509.31973026750774 3976.1 508.0481610967102 3949.4 507.46130800445246 3922.7 507.0233752398185 3896 506.60822161328986 3869.3 506.1065487459215 3842.6 505.9043627233751 3815.9 506.4216643610348 3789.2 506.6484163233015 3762.5 525.7580510881946 3735.8 525.7315703546495 3709.1 502.94320923041516 3682.4 502.107038956447 3655.7 501.18268987180403 3629 499.5661579814509 3602.3 498.2407663238116 3575.6 498.34179455703446 3548.9 498.4409678079612 3522.2 496.7688079778267 3495.5 496.7252878979315 3468.8 467.1119991855256 3442.1 467.30287783529656 3415.4 467.12354601368946 3388.7 467.18090658715477 3362 468.4609806530692 3335.3 467.6706174617695 3308.6 466.5807912489142 3281.9 466.04765597528194 3255.2 465.50683076275004 3228.5 465.1003985575009 3228.5 490.7876094955426Z" fill="#f6a118" opacity="0.9" />
		</g>
		<g>
			<path d="M3228.5 465.1003985575009 3255.2 465.50683076275004 3281.9 466.04765597528194 3308.6 466.5807912489142 3335.3 467.6706174617695 3362 468.4609806530692 3388.7 467.18090658715477 3415.4 467.12354601368946 3442.1 467.30287783529656 3468.8 467.1119991855256 3495.5 496.7252878979315 3522.2 496.7688079778267 3548.9 498.4409678079612 3575.6 498.34179455703446 3602.3 498.2407663238116 3629 499.5661579814509 3655.7 501.18268987180403 3682.4 502.107038956447 3709.1 502.94320923041516 3735.8 525.7315703546495 3762.5 525.7580510881946 3789.2 506.6484163233015 3815.9 506.4216643610348 3842.6 505.9043627233751 3869.3 506.1065487459215 3896 506.60822161328986 3922.7 507.0233752398185 3949.4 507.46130800445246 3976.1 508.0481610967102 4002.8 509.31973026750774 4029.5 510.99365573350235 4056.2 498.4242329984132 4082.9 499.97387766322737 4109.6 501.4426511937707 4136.3 502.8338970689489 4163 504.3173344906431 4189.7 505.81218353227047 4216.4 507.0170454704227 4243.1 508.3175496659528 4269.8 509.7179568015223 4296.5 510.82918253556556 4296.5 497.43345523107604 4269.8 496.34925589643314 4243.1 495.0253467220932 4216.4 493.7905717710478 4189.7 492.5921558346354 4163 491.08339968159794 4136.3 489.589994805443 4109.6 488.205911277506 4082.9 486.75823132244886 4056.2 485.3927174126073 4029.5 498.4720025363811 4002.8 497.0382614705632 3976.1 495.82345643600064 3949.4 495.20191899296304 3922.7 494.71994133496287 3896 494.25306019687616 3869.3 493.7747398235285 3842.6 493.46369672124194 3815.9 493.7814105421057 3789.2 493.8307143677906 3762.5 513.2062038257327 3735.8 513.0191600354991 3709.1 492.37221825805364 3682.4 491.90854325848505 3655.7 491.3515350353937 3629 490.22585688768174 3602.3 489.18947576032576 3575.6 489.22333619864025 3548.9 489.223179567103 3522.2 489.59463668666535 3495.5 489.6274021960388 3468.8 465.84397535618723 3442.1 466.0407574120686 3415.4 465.8767979346657 3388.7 465.9500572477321 3362 467.2202695247198 3335.3 466.45583538595343 3308.6 465.39864568725244 3281.9 464.88886642683036 3255.2 464.365762498016 3228.5 463.97855376512575 3228.5 465.1003985575009Z" fill="#fdd5a4" opacity="0.9" />
		</g>
		<g>
			<path d="M3228.5 463.97855376512575 3255.2 464.365762498016 3281.9 464.88886642683036 3308.6 465.39864568725244 3335.3 466.45583538595343 3362 467.2202695247198 3388.7 465.9500572477321 3415.4 465.8767979346657 3442.1 466.0407574120686 3468.8 465.84397535618723 3495.5 489.6274021960388 3522.2 489.59463668666535 3548.9 489.223179567103 3575.6 489.22333619864025 3602.3 489.18947576032576 3629 490.22585688768174 3655.7 491.3515350353937 3682.4 491.90854325848505 3709.1 492.37221825805364 3735.8 513.0191600354991 3762.5 513.2062038257327 3789.2 493.8307143677906 3815.9 493.7814105421057 3842.6 493.46369672124194 3869.3 493.7747398235285 3896 494.25306019687616 3922.7 494.71994133496287 3949.4 495.20191899296304 3976.1 495.82345643600064 4002.8 497.0382614705632 4029.5 498.4720025363811 4056.2 485.3927174126073 4082.9 486.75823132244886 4109.6 488.205911277506 4136.3 489.589994805443 4163 491.08339968159794 4189.7 492.5921558346354 4216.4 493.7905717710478 4243.1 495.0253467220932 4269.8 496.34925589643314 4296.5 497.43345523107604 4296.5 397.99999999999994 4269.8 398.00000000000006 4243.1 398.00000000000006 4216.4 398 4189.7 397.9999999999999 4163 398 4136.3 397.9999999999999 4109.6 397.9999999999999 4082.9 398.00000000000006 4056.2 398 4029.5 398 4002.8 397.9999999999999 3976.1 398.0000000000001 3949.4 397.9999999999999 3922.7 398 3896 398 3869.3 397.99999999999994 3842.6 398 3815.9 397.9999999999999 3789.2 398.0000000000001 3762.5 398.0000000000001 3735.8 398 3709.1 397.9999999999999 3682.4 398.0000000000001 3655.7 398 3629 397.99999999999994 3602.3 398 3575.6 398 3548.9 397.99999999999994 3522.2 398.0000000000001 3495.5 397.9999999999999 3468.8 397.9999999999999 3442.1 398 3415.4 397.9999999999999 3388.7 397.99999999999994 3362 397.9999999999999 3335.3 397.99999999999994 3308.6 398 3281.9 398.00000000000006 3255.2 397.99999999999983 3228.5 398.0000000000001 3228.5 463.97855376512575Z" fill="#393d41" opacity="0.9" />
		</g>
		<g>
			<rect x="4372" y="431" width="22.9995" height="23" fill="#e62d39" />
		</g>
		<g>
			<text fill="#595959" font-family="Verdana,sans-serif" font-weight="400" font-size="41" transform="matrix(1 0 0 1 4404.56 454)">Smartphone</text>
		</g>
		<g>
			<rect x="4372" y="508" width="22.9995" height="23" fill="#005aa6" />
		</g>
		<g>
			<text fill="#595959" font-family="Verdana,sans-serif" font-weight="400" font-size="41" transform="matrix(1 0 0 1 4404.56 531)">Desktop</text>
		</g>
		<g>
			<rect x="4372" y="585" width="22.9995" height="23" fill="#55c0e9" />
		</g>
		<g>
			<text fill="#595959" font-family="Verdana,sans-serif" font-weight="400" font-size="41" transform="matrix(1 0 0 1 4404.56 608)">Other</text>
		</g>
		<g>
			<rect x="4372" y="662" width="22.9995" height="23" fill="#f6a118" />
		</g>
		<g>
			<text fill="#595959" font-family="Verdana,sans-serif" font-weight="400" font-size="41" transform="matrix(1 0 0 1 4404.56 685)">Tablet</text>
		</g>
		<g>
			<rect x="4372" y="739" width="22.9995" height="23" fill="#fdd5a4" />
		</g>
		<g>
			<text fill="#595959" font-family="Verdana,sans-serif" font-weight="400" font-size="41" transform="matrix(1 0 0 1 4404.56 762)">Tv</text>
		</g>
		<g>
			<rect x="4372" y="816" width="22.9995" height="23" fill="#393d41" />
		</g>
		<g>
			<text fill="#595959" font-family="Verdana,sans-serif" font-weight="400" font-size="41" transform="matrix(1 0 0 1 4404.56 839)">Unclassified</text>
		</g>
	</g>
</svg>
