<svg width="1763" height="1046"
    xmlns="http://www.w3.org/2000/svg"
	xmlns:xlink="http://www.w3.org/1999/xlink" xml:space="preserve" overflow="hidden">
	<defs>
		<clipPath id="clip0">
			<rect x="2917" y="346" width="1763" height="1046"/>
		</clipPath>
	</defs>
	<g clip-path="url(#clip0)" transform="translate(-2917 -346)">
		<rect x="2918" y="347" width="1760" height="1043" fill="#FFFFFF" />
		<g>
			<path d="
			M3228.5 974.532 4296.5 974.532
			M3228.5 910.53 4296.5 910.53
			M3228.5 846.528 4296.5 846.528
			M3228.5 781.526 4296.5 781.526
			M3228.5 717.524 4296.5 717.524
			M3228.5 653.522 4296.5 653.522
			M3228.5 589.52 4296.5 589.52
			M3228.5 525.517 4296.5 525.517
			M3228.5 461.515 4296.5 461.515
			M3228.5 397.5 4296.5 397.5" stroke="#D9D9D9" stroke-width="3.4375" stroke-linejoin="round" stroke-miterlimit="10" fill="none" />
		</g>
		<g>
			<path d="M 1038.5 4296.5 1038.5" stroke="#D9D9D9" stroke-width="3.4375" stroke-linejoin="round" stroke-miterlimit="10" fill="none" fill-rule="evenodd" />
		</g>
		<g>
			<text fill="#595959" font-family="Verdana,Open Sans,DejaVu Sans,sans-serif" font-weight="400" font-size="41" transform="matrix(6.12323e-17 -1 1 6.12323e-17 3244.275390625 1203.0419921875)">03-Feb</text>
		</g>
		<g>
			<text fill="#595959" font-family="Verdana,Open Sans,DejaVu Sans,sans-serif" font-weight="400" font-size="41" transform="matrix(6.12323e-17 -1 1 6.12323e-17 3329.004697265625 1212.0107421875)">03-Mar</text>
		</g>
		<g>
			<text fill="#595959" font-family="Verdana,Open Sans,DejaVu Sans,sans-serif" font-weight="400" font-size="41" transform="matrix(6.12323e-17 -1 1 6.12323e-17 3414.424677734375 1212.1708984375)">31-Mar</text>
		</g>
		<g>
			<text fill="#595959" font-family="Verdana,Open Sans,DejaVu Sans,sans-serif" font-weight="400" font-size="41" transform="matrix(6.12323e-17 -1 1 6.12323e-17 3504.589287109375 1203.3022384643555)">28-Apr</text>
		</g>
		<g>
			<text fill="#595959" font-family="Verdana,Open Sans,DejaVu Sans,sans-serif" font-weight="400" font-size="41" transform="matrix(6.12323e-17 -1 1 6.12323e-17 3590.029287109375 1216.51513671875)">26-May</text>
		</g>
		<g>
			<text fill="#595959" font-family="Verdana,Open Sans,DejaVu Sans,sans-serif" font-weight="400" font-size="41" transform="matrix(6.12323e-17 -1 1 6.12323e-17 3674.41826171875 1194.1733322143555)">30-Jun</text>
		</g>
		<g>
			<text fill="#595959" font-family="Verdana,Open Sans,DejaVu Sans,sans-serif" font-weight="400" font-size="41" transform="matrix(6.12323e-17 -1 1 6.12323e-17 3760.568955078125 1179.0385665893555)">28-Jul</text>
		</g>
		<g>
			<text fill="#595959" font-family="Verdana,Open Sans,DejaVu Sans,sans-serif" font-weight="400" font-size="41" transform="matrix(6.12323e-17 -1 1 6.12323e-17 3846.349287109375 1208.66748046875)">25-Aug</text>
		</g>
		<g>
			<text fill="#595959" font-family="Verdana,Open Sans,DejaVu Sans,sans-serif" font-weight="400" font-size="41" transform="matrix(6.12323e-17 -1 1 6.12323e-17 3931.789287109375 1204.42333984375)">22-Sep</text>
		</g>
		<g>
			<text fill="#595959" font-family="Verdana,Open Sans,DejaVu Sans,sans-serif" font-weight="400" font-size="41" transform="matrix(6.12323e-17 -1 1 6.12323e-17 4012.524697265625 1201.1401290893555)">20-Oct</text>
		</g>
		<g>
			<text fill="#595959" font-family="Verdana,Open Sans,DejaVu Sans,sans-serif" font-weight="400" font-size="41" transform="matrix(6.12323e-17 -1 1 6.12323e-17 4097.73447265625 1209.70849609375)">17-Nov</text>
		</g>
		<g>
			<text fill="#595959" font-family="Verdana,Open Sans,DejaVu Sans,sans-serif" font-weight="400" font-size="41" transform="matrix(6.12323e-17 -1 1 6.12323e-17 4183.17447265625 1205.3642578125)">15-Dec</text>
		</g>
		<g>
			<text fill="#595959" font-family="Verdana,Open Sans,DejaVu Sans,sans-serif" font-weight="400" font-size="41" transform="matrix(6.12323e-17 -1 1 6.12323e-17 4272.4782421875 1189.9291915893555)">12-Jan</text>
		</g>
		<g>
			<text fill="#595959" font-family="Verdana,Open Sans,DejaVu Sans,sans-serif" font-weight="400" font-size="41" transform="matrix(1 0 0 1 3135.4482421875 1050)">0%</text>
		</g>
		<g>
			<text fill="#595959" font-family="Verdana,Open Sans,DejaVu Sans,sans-serif" font-weight="400" font-size="41" transform="matrix(1 0 0 1 3111.96533203125 922)">20%</text>
		</g>
		<g>
			<text fill="#595959" font-family="Verdana,Open Sans,DejaVu Sans,sans-serif" font-weight="400" font-size="41" transform="matrix(1 0 0 1 3110.82421875 794)">40%</text>
		</g>
		<g>
			<text fill="#595959" font-family="Verdana,Open Sans,DejaVu Sans,sans-serif" font-weight="400" font-size="41" transform="matrix(1 0 0 1 3112.3056640625 666)">60%</text>
		</g>
		<g>
			<text fill="#595959" font-family="Verdana,Open Sans,DejaVu Sans,sans-serif" font-weight="400" font-size="41" transform="matrix(1 0 0 1 3112.04541015625 538)">80%</text>
		</g>
		<g>
			<text fill="#595959" font-family="Verdana,Open Sans,DejaVu Sans,sans-serif" font-weight="400" font-size="41" transform="matrix(1 0 0 1 3090.2841796875 410)">100%</text>
		</g>
		<g>
			<text fill="#595959" font-family="Verdana,Open Sans,DejaVu Sans,sans-serif" font-weight="400" font-size="41" transform="matrix(1 0 0 1 3556.97119140625 1321)">Week Commencing</text>
		</g>
		<g>
			<text fill="#595959" font-family="Verdana,Open Sans,DejaVu Sans,sans-serif" font-weight="400" font-size="46" transform="matrix(6.12323e-17 -1 1 6.12323e-17 3019.73 936.7665710449219)">Requests (% of Total)</text>
		</g>
		<rect x="2918.5" y="347.5" width="1760" height="1043" stroke="#D9D9D9" stroke-width="3.4375" stroke-linejoin="round" stroke-miterlimit="10" fill="none" />
		<g>
			<path d="M3228.5 1038 3249.86 1038 3271.22 1038 3292.58 1038 3313.94 1038 3335.3 1038 3356.66 1038 3378.02 1038 3399.38 1038 3420.74 1038 3442.1 1038 3463.46 1038 3484.82 1038 3506.18 1038 3527.54 1038 3548.9 1038 3570.26 1038 3591.62 1038 3612.98 1038 3634.34 1038 3655.7 1038 3677.06 1038 3698.42 1038 3719.7799999999997 1038 3741.14 1038 3762.5 1038 3783.86 1038 3805.2200000000003 1038 3826.58 1038 3847.94 1038 3869.3 1038 3890.66 1038 3912.02 1038 3933.38 1038 3954.74 1038 3976.1 1038 3997.46 1038 4018.8199999999997 1038 4040.18 1038 4061.54 1038 4082.9 1038 4104.26 1038 4125.62 1038 4146.98 1038 4168.34 1038 4189.7 1038 4211.0599999999995 1038 4232.42 1038 4253.78 1038 4275.139999999999 1038 4296.5 1038 4296.5 509.78758316632 4275.139999999999 510.8817631047316 4253.78 510.8708866486968 4232.42 510.91527035566935 4211.0599999999995 511.17358261897925 4189.7 511.20549455604134 4168.34 512.098115952951 4146.98 512.1329612369273 4125.62 512.9189284987364 4104.26 515.8919455572111 4082.9 514.7969648318594 4061.54 515.125626744456 4040.18 517.3539587629043 4018.8199999999997 517.3728872760798 3997.46 517.3795154992906 3976.1 517.3746698568546 3954.74 518.2845849198919 3933.38 518.2786881359634 3912.02 518.6674644160128 3890.66 519.0934355637311 3869.3 520.9052457535156 3847.94 521.6318852573548 3826.58 521.6184156458323 3805.2200000000003 522.2681085366032 3783.86 527.8351358448251 3762.5 527.8182060044346 3741.14 527.8171189568005 3719.7799999999997 527.8195281696414 3698.42 527.7185125063723 3677.06 528.1749639028288 3655.7 526.0738068609967 3634.34 526.0690930129186 3612.98 526.4517905907722 3591.62 526.966587562726 3570.26 527.7344479046612 3548.9 528.0922596265774 3527.54 528.3637575953018 3506.18 528.4473950245434 3484.82 528.3817437118579 3463.46 528.3209049784523 3442.1 528.6035113858115 3420.74 529.0722280244075 3399.38 529.4214956662862 3378.02 529.807429199031 3356.66 533.5058286789898 3335.3 533.4031264720519 3313.94 533.4021762961523 3292.58 533.7756525096236 3271.22 533.8956466575289 3249.86 533.9572095457534 3228.5 533.4841990448925 3228.5 1038Z" fill="#e62d39" opacity="0.9" />
		</g>
		<g>
			<path d="M3228.5 533.4841990448925 3249.86 533.9572095457534 3271.22 533.8956466575289 3292.58 533.7756525096236 3313.94 533.4021762961523 3335.3 533.4031264720519 3356.66 533.5058286789898 3378.02 529.807429199031 3399.38 529.4214956662862 3420.74 529.0722280244075 3442.1 528.6035113858115 3463.46 528.3209049784523 3484.82 528.3817437118579 3506.18 528.4473950245434 3527.54 528.3637575953018 3548.9 528.0922596265774 3570.26 527.7344479046612 3591.62 526.966587562726 3612.98 526.4517905907722 3634.34 526.0690930129186 3655.7 526.0738068609967 3677.06 528.1749639028288 3698.42 527.7185125063723 3719.7799999999997 527.8195281696414 3741.14 527.8171189568005 3762.5 527.8182060044346 3783.86 527.8351358448251 3805.2200000000003 522.2681085366032 3826.58 521.6184156458323 3847.94 521.6318852573548 3869.3 520.9052457535156 3890.66 519.0934355637311 3912.02 518.6674644160128 3933.38 518.2786881359634 3954.74 518.2845849198919 3976.1 517.3746698568546 3997.46 517.3795154992906 4018.8199999999997 517.3728872760798 4040.18 517.3539587629043 4061.54 515.125626744456 4082.9 514.7969648318594 4104.26 515.8919455572111 4125.62 512.9189284987364 4146.98 512.1329612369273 4168.34 512.098115952951 4189.7 511.20549455604134 4211.0599999999995 511.17358261897925 4232.42 510.91527035566935 4253.78 510.8708866486968 4275.139999999999 510.8817631047316 4296.5 509.78758316632 4296.5 433.75103255338803 4275.139999999999 435.36079839131713 4253.78 435.3425795567811 4232.42 435.3887976286378 4211.0599999999995 435.3992247727013 4189.7 435.7778149248337 4168.34 435.69457104984326 4146.98 435.7373894918581 4125.62 436.0183299632218 4104.26 437.1107633727561 4082.9 436.7049406114033 4061.54 436.8606414580909 4040.18 437.9222955771362 4018.8199999999997 437.9259398239807 3997.46 437.9087165382534 3976.1 437.90716134158686 3954.74 438.3816771158473 3933.38 438.3811488943986 3912.02 438.6583696725575 3890.66 438.939493870515 3869.3 439.76778884064066 3847.94 440.12172845279287 3826.58 440.1025942817036 3805.2200000000003 440.43245647629897 3783.86 446.0049434709254 3762.5 445.99448025532104 3741.14 445.9906298366525 3719.7799999999997 445.9850763388172 3698.42 446.00044835106377 3677.06 445.48995832347725 3655.7 440.7320769519542 3634.34 440.71015435347675 3612.98 440.79849020545294 3591.62 441.02669160650083 3570.26 441.4805241599953 3548.9 441.7146387359797 3527.54 441.87434560441795 3506.18 442.00506484989137 3484.82 442.0536403247141 3463.46 442.1004848135459 3442.1 442.29078701208255 3420.74 442.5177613549289 3399.38 442.75370380577044 3378.02 443.0039649820596 3356.66 447.2266118196212 3335.3 447.3367564362345 3313.94 447.478410212555 3292.58 447.7812344269998 3271.22 447.9735867247491 3249.86 448.11744019003095 3228.5 447.90712750570685 3228.5 533.4841990448925Z" fill="#005aa6" opacity="0.9" />
		</g>
		<g>
			<path d="M3228.5 447.90712750570685 3249.86 448.11744019003095 3271.22 447.9735867247491 3292.58 447.7812344269998 3313.94 447.478410212555 3335.3 447.3367564362345 3356.66 447.2266118196212 3378.02 443.0039649820596 3399.38 442.75370380577044 3420.74 442.5177613549289 3442.1 442.29078701208255 3463.46 442.1004848135459 3484.82 442.0536403247141 3506.18 442.00506484989137 3527.54 441.87434560441795 3548.9 441.7146387359797 3570.26 441.4805241599953 3591.62 441.02669160650083 3612.98 440.79849020545294 3634.34 440.71015435347675 3655.7 440.7320769519542 3677.06 445.48995832347725 3698.42 446.00044835106377 3719.7799999999997 445.9850763388172 3741.14 445.9906298366525 3762.5 445.99448025532104 3783.86 446.0049434709254 3805.2200000000003 440.43245647629897 3826.58 440.1025942817036 3847.94 440.12172845279287 3869.3 439.76778884064066 3890.66 438.939493870515 3912.02 438.6583696725575 3933.38 438.3811488943986 3954.74 438.3816771158473 3976.1 437.90716134158686 3997.46 437.9087165382534 4018.8199999999997 437.9259398239807 4040.18 437.9222955771362 4061.54 436.8606414580909 4082.9 436.7049406114033 4104.26 437.1107633727561 4125.62 436.0183299632218 4146.98 435.7373894918581 4168.34 435.69457104984326 4189.7 435.7778149248337 4211.0599999999995 435.3992247727013 4232.42 435.3887976286378 4253.78 435.3425795567811 4275.139999999999 435.36079839131713 4296.5 433.75103255338803 4296.5 419.17384173683575 4275.139999999999 420.87551367904683 4253.78 420.8556038374519 4232.42 420.90079943263 4211.0599999999995 420.9199678677945 4189.7 421.17546638387716 4168.34 421.2737767063939 4146.98 421.31851350204755 4125.62 421.5482860386991 4104.26 422.28800089553556 4082.9 422.10195037941145 4061.54 422.2371615504225 4040.18 423.16774393881434 4018.8199999999997 423.167665092679 3997.46 423.14655140370303 3976.1 423.1457070138017 3954.74 423.56516266700936 3933.38 423.5655214379781 3912.02 423.8109003038261 3890.66 424.0558120196192 3869.3 424.7181344913808 3847.94 425.0236349944547 3826.58 425.0035344441698 3805.2200000000003 425.28465904377634 3783.86 430.8274530925998 3762.5 430.81817356835387 3741.14 430.8139007331268 3719.7799999999997 430.8069864095142 3698.42 430.9020970833825 3677.06 430.23142599790555 3655.7 425.0017650883845 3634.34 424.9767523660499 3612.98 425.0257701995382 3591.62 425.20583580775155 3570.26 425.4986687976815 3548.9 425.6867840212037 3527.54 425.8119685721377 3506.18 425.9104888133743 3484.82 425.92679886960804 3463.46 425.94362826788443 3442.1 426.1140510532148 3420.74 426.3120783472338 3399.38 426.5518003809951 3378.02 426.81320471249694 3356.66 431.1686011749783 3335.3 431.3401421096995 3313.94 431.5247092372164 3292.58 431.81676347027957 3271.22 431.99440912392726 3249.86 432.1329946808099 3228.5 432.00359297169024 3228.5 447.90712750570685Z" fill="#55c0e9" opacity="0.9" />
		</g>
		<g>
			<path d="M3228.5 432.00359297169024 3249.86 432.1329946808099 3271.22 431.99440912392726 3292.58 431.81676347027957 3313.94 431.5247092372164 3335.3 431.3401421096995 3356.66 431.1686011749783 3378.02 426.81320471249694 3399.38 426.5518003809951 3420.74 426.3120783472338 3442.1 426.1140510532148 3463.46 425.94362826788443 3484.82 425.92679886960804 3506.18 425.9104888133743 3527.54 425.8119685721377 3548.9 425.6867840212037 3570.26 425.4986687976815 3591.62 425.20583580775155 3612.98 425.0257701995382 3634.34 424.9767523660499 3655.7 425.0017650883845 3677.06 430.23142599790555 3698.42 430.9020970833825 3719.7799999999997 430.8069864095142 3741.14 430.8139007331268 3762.5 430.81817356835387 3783.86 430.8274530925998 3805.2200000000003 425.28465904377634 3826.58 425.0035344441698 3847.94 425.0236349944547 3869.3 424.7181344913808 3890.66 424.0558120196192 3912.02 423.8109003038261 3933.38 423.5655214379781 3954.74 423.56516266700936 3976.1 423.1457070138017 3997.46 423.14655140370303 4018.8199999999997 423.167665092679 4040.18 423.16774393881434 4061.54 422.2371615504225 4082.9 422.10195037941145 4104.26 422.28800089553556 4125.62 421.5482860386991 4146.98 421.31851350204755 4168.34 421.2737767063939 4189.7 421.17546638387716 4211.0599999999995 420.9199678677945 4232.42 420.90079943263 4253.78 420.8556038374519 4275.139999999999 420.87551367904683 4296.5 419.17384173683575 4296.5 407.73331438233555 4275.139999999999 409.46082329286793 4253.78 409.44561346924576 4232.42 409.4552564157993 4211.0599999999995 409.442567653401 4189.7 409.50831649918746 4168.34 409.55722453750167 4146.98 409.60566872011515 4125.62 409.72296665824126 4104.26 410.10948315685346 4082.9 410.00098369930805 4061.54 410.02158135972263 4040.18 410.3831921847201 4018.8199999999997 410.3816258742522 3997.46 410.3693732840644 3976.1 410.36817686183286 3954.74 410.49749865569987 3933.38 410.49874026393246 3912.02 410.5976679252191 3890.66 410.7016436985356 3869.3 410.9789161674267 3847.94 411.1035757536376 3826.58 411.0839891917173 3805.2200000000003 411.22347657579 3783.86 416.32051328878225 3762.5 416.3159617889731 3741.14 416.31921689377526 3719.7799999999997 416.31736632943614 3698.42 416.3210682719641 3677.06 415.85243189703715 3655.7 410.86025631578275 3634.34 410.8513168557256 3612.98 410.8010080993925 3591.62 410.8532595598375 3570.26 410.9689719408518 3548.9 411.04822058755076 3527.54 411.09796238059005 3506.18 411.13309600464333 3484.82 411.08525540240214 3463.46 411.0502804931489 3442.1 411.15507042479464 3420.74 411.2715831935364 3399.38 411.39453051492376 3378.02 411.52533019336687 3356.66 415.89173436048446 3335.3 415.95861191477786 3313.94 416.055066900616 3292.58 416.2345639289736 3271.22 416.4071449754411 3249.86 416.47817812627426 3228.5 416.34836086389726 3228.5 432.00359297169024Z" fill="#f6a118" opacity="0.9" />
		</g>
		<g>
			<path d="M3228.5 416.34836086389726 3249.86 416.47817812627426 3271.22 416.4071449754411 3292.58 416.2345639289736 3313.94 416.055066900616 3335.3 415.95861191477786 3356.66 415.89173436048446 3378.02 411.52533019336687 3399.38 411.39453051492376 3420.74 411.2715831935364 3442.1 411.15507042479464 3463.46 411.0502804931489 3484.82 411.08525540240214 3506.18 411.13309600464333 3527.54 411.09796238059005 3548.9 411.04822058755076 3570.26 410.9689719408518 3591.62 410.8532595598375 3612.98 410.8010080993925 3634.34 410.8513168557256 3655.7 410.86025631578275 3677.06 415.85243189703715 3698.42 416.3210682719641 3719.7799999999997 416.31736632943614 3741.14 416.31921689377526 3762.5 416.3159617889731 3783.86 416.32051328878225 3805.2200000000003 411.22347657579 3826.58 411.0839891917173 3847.94 411.1035757536376 3869.3 410.9789161674267 3890.66 410.7016436985356 3912.02 410.5976679252191 3933.38 410.49874026393246 3954.74 410.49749865569987 3976.1 410.36817686183286 3997.46 410.3693732840644 4018.8199999999997 410.3816258742522 4040.18 410.3831921847201 4061.54 410.02158135972263 4082.9 410.00098369930805 4104.26 410.10948315685346 4125.62 409.72296665824126 4146.98 409.60566872011515 4168.34 409.55722453750167 4189.7 409.50831649918746 4211.0599999999995 409.442567653401 4232.42 409.4552564157993 4253.78 409.44561346924576 4275.139999999999 409.46082329286793 4296.5 407.73331438233555 4296.5 401.29212425152997 4275.139999999999 402.9378506891094 4253.78 402.9552515332576 4232.42 402.9599325586472 4211.0599999999995 402.96405971887924 4189.7 403.01449278802465 4168.34 402.9591913948528 4146.98 403.01566327837304 4125.62 403.0312697625879 4104.26 403.17379003690496 4082.9 403.039123205232 4061.54 403.0276937585125 4040.18 402.88697047759695 4018.8199999999997 402.8853442705775 3997.46 402.8987404525652 3976.1 402.9002345633593 3954.74 402.80439160515203 3933.38 402.8071737793706 3912.02 402.7885058788081 3890.66 402.75682438501997 3869.3 402.64364301985916 3847.94 402.6213127942401 3826.58 402.6374941256268 3805.2200000000003 402.6382934643876 3783.86 407.18303418872716 3762.5 407.1809148990988 3741.14 407.1872998554764 3719.7799999999997 407.1917111103271 3698.42 407.1621562125779 3677.06 406.9309868112197 3655.7 402.3499262788061 3634.34 402.3497550933614 3612.98 402.31710391583925 3591.62 402.31377839166817 3570.26 402.32705082967294 3548.9 402.3105155472352 3527.54 402.3328782432905 3506.18 402.29313148871324 3484.82 402.27347913416367 3463.46 402.24951221526595 3442.1 402.264400535425 3420.74 402.2771754039698 3399.38 402.3026796088189 3378.02 402.31237144781545 3356.66 406.6903311154683 3335.3 406.6504534424193 3313.94 406.63653513437157 3292.58 406.73881659701254 3271.22 406.7913155812626 3249.86 406.7895314471883 3228.5 406.7538978821639 3228.5 416.34836086389726Z" fill="#fdd5a4" opacity="0.9" />
		</g>
		<g>
			<path d="M3228.5 406.7538978821639 3249.86 406.7895314471883 3271.22 406.7913155812626 3292.58 406.73881659701254 3313.94 406.63653513437157 3335.3 406.6504534424193 3356.66 406.6903311154683 3378.02 402.31237144781545 3399.38 402.3026796088189 3420.74 402.2771754039698 3442.1 402.264400535425 3463.46 402.24951221526595 3484.82 402.27347913416367 3506.18 402.29313148871324 3527.54 402.3328782432905 3548.9 402.3105155472352 3570.26 402.32705082967294 3591.62 402.31377839166817 3612.98 402.31710391583925 3634.34 402.3497550933614 3655.7 402.3499262788061 3677.06 406.9309868112197 3698.42 407.1621562125779 3719.7799999999997 407.1917111103271 3741.14 407.1872998554764 3762.5 407.1809148990988 3783.86 407.18303418872716 3805.2200000000003 402.6382934643876 3826.58 402.6374941256268 3847.94 402.6213127942401 3869.3 402.64364301985916 3890.66 402.75682438501997 3912.02 402.7885058788081 3933.38 402.8071737793706 3954.74 402.80439160515203 3976.1 402.9002345633593 3997.46 402.8987404525652 4018.8199999999997 402.8853442705775 4040.18 402.88697047759695 4061.54 403.0276937585125 4082.9 403.039123205232 4104.26 403.17379003690496 4125.62 403.0312697625879 4146.98 403.01566327837304 4168.34 402.9591913948528 4189.7 403.01449278802465 4211.0599999999995 402.96405971887924 4232.42 402.9599325586472 4253.78 402.9552515332576 4275.139999999999 402.9378506891094 4296.5 401.29212425152997 4296.5 397.99999999999994 4275.139999999999 398.00000000000006 4253.78 397.99999999999994 4232.42 397.9999999999999 4211.0599999999995 398 4189.7 398 4168.34 398.00000000000006 4146.98 397.99999999999994 4125.62 398.00000000000006 4104.26 397.99999999999994 4082.9 398 4061.54 398 4040.18 397.9999999999999 4018.8199999999997 398.00000000000006 3997.46 398.0000000000001 3976.1 398.00000000000006 3954.74 398 3933.38 397.99999999999994 3912.02 398 3890.66 398 3869.3 398 3847.94 397.99999999999994 3826.58 398.00000000000006 3805.2200000000003 397.99999999999994 3783.86 397.9999999999999 3762.5 398.0000000000001 3741.14 397.99999999999994 3719.7799999999997 398 3698.42 398 3677.06 398 3655.7 398 3634.34 398 3612.98 398.00000000000006 3591.62 398 3570.26 398.0000000000001 3548.9 398.0000000000001 3527.54 398 3506.18 398 3484.82 398.00000000000006 3463.46 398.0000000000001 3442.1 398 3420.74 397.99999999999994 3399.38 398 3378.02 397.99999999999994 3356.66 398 3335.3 398 3313.94 398 3292.58 398.0000000000001 3271.22 398.00000000000006 3249.86 398 3228.5 398 3228.5 406.7538978821639Z" fill="#393d41" opacity="0.9" />
		</g>
		<g>
			<rect x="4372" y="431" width="22.9995" height="23" fill="#e62d39" />
		</g>
		<g>
			<text fill="#595959" font-family="Verdana,Open Sans,DejaVu Sans,sans-serif" font-weight="400" font-size="41" transform="matrix(1 0 0 1 4404.56 454)">Smartphone</text>
		</g>
		<g>
			<rect x="4372" y="508" width="22.9995" height="23" fill="#005aa6" />
		</g>
		<g>
			<text fill="#595959" font-family="Verdana,Open Sans,DejaVu Sans,sans-serif" font-weight="400" font-size="41" transform="matrix(1 0 0 1 4404.56 531)">Desktop</text>
		</g>
		<g>
			<rect x="4372" y="585" width="22.9995" height="23" fill="#55c0e9" />
		</g>
		<g>
			<text fill="#595959" font-family="Verdana,Open Sans,DejaVu Sans,sans-serif" font-weight="400" font-size="41" transform="matrix(1 0 0 1 4404.56 608)">Other</text>
		</g>
		<g>
			<rect x="4372" y="662" width="22.9995" height="23" fill="#f6a118" />
		</g>
		<g>
			<text fill="#595959" font-family="Verdana,Open Sans,DejaVu Sans,sans-serif" font-weight="400" font-size="41" transform="matrix(1 0 0 1 4404.56 685)">Tablet</text>
		</g>
		<g>
			<rect x="4372" y="739" width="22.9995" height="23" fill="#fdd5a4" />
		</g>
		<g>
			<text fill="#595959" font-family="Verdana,Open Sans,DejaVu Sans,sans-serif" font-weight="400" font-size="41" transform="matrix(1 0 0 1 4404.56 762)">Tv</text>
		</g>
		<g>
			<rect x="4372" y="816" width="22.9995" height="23" fill="#393d41" />
		</g>
		<g>
			<text fill="#595959" font-family="Verdana,Open Sans,DejaVu Sans,sans-serif" font-weight="400" font-size="41" transform="matrix(1 0 0 1 4404.56 839)">Unclassified</text>
		</g>
	</g>
</svg>
