<svg width="1763" height="1046"
    xmlns="http://www.w3.org/2000/svg"
	xmlns:xlink="http://www.w3.org/1999/xlink" xml:space="preserve" overflow="hidden">
	<defs>
		<clipPath id="clip0">
			<rect x="2917" y="346" width="1763" height="1046"/>
		</clipPath>
	</defs>
	<g clip-path="url(#clip0)" transform="translate(-2917 -346)">
		<rect x="2918" y="347" width="1760" height="1043" fill="#FFFFFF" />
		<g>
			<path d="
			M3228.5 974.532 4296.5 974.532
			M3228.5 910.53 4296.5 910.53
			M3228.5 846.528 4296.5 846.528
			M3228.5 781.526 4296.5 781.526
			M3228.5 717.524 4296.5 717.524
			M3228.5 653.522 4296.5 653.522
			M3228.5 589.52 4296.5 589.52
			M3228.5 525.517 4296.5 525.517
			M3228.5 461.515 4296.5 461.515
			M3228.5 397.5 4296.5 397.5" stroke="#D9D9D9" stroke-width="3.4375" stroke-linejoin="round" stroke-miterlimit="10" fill="none" />
		</g>
		<g>
			<path d="M 1038.5 4296.5 1038.5" stroke="#D9D9D9" stroke-width="3.4375" stroke-linejoin="round" stroke-miterlimit="10" fill="none" fill-rule="evenodd" />
		</g>
		<g>
			<text fill="#595959" font-family="Verdana,Open Sans,DejaVu Sans,sans-serif" font-weight="400" font-size="41" transform="matrix(6.12323e-17 -1 1 6.12323e-17 3243.544677734375 1212.1708984375)">31-Mar</text>
		</g>
		<g>
			<text fill="#595959" font-family="Verdana,Open Sans,DejaVu Sans,sans-serif" font-weight="400" font-size="41" transform="matrix(6.12323e-17 -1 1 6.12323e-17 3332.033992991728 1203.3022384643555)">28-Apr</text>
		</g>
		<g>
			<text fill="#595959" font-family="Verdana,Open Sans,DejaVu Sans,sans-serif" font-weight="400" font-size="41" transform="matrix(6.12323e-17 -1 1 6.12323e-17 3415.798698874081 1216.51513671875)">26-May</text>
		</g>
		<g>
			<text fill="#595959" font-family="Verdana,Open Sans,DejaVu Sans,sans-serif" font-weight="400" font-size="41" transform="matrix(6.12323e-17 -1 1 6.12323e-17 3498.512379365809 1194.1733322143555)">30-Jun</text>
		</g>
		<g>
			<text fill="#595959" font-family="Verdana,Open Sans,DejaVu Sans,sans-serif" font-weight="400" font-size="41" transform="matrix(6.12323e-17 -1 1 6.12323e-17 3582.9877786075367 1179.0385665893555)">28-Jul</text>
		</g>
		<g>
			<text fill="#595959" font-family="Verdana,Open Sans,DejaVu Sans,sans-serif" font-weight="400" font-size="41" transform="matrix(6.12323e-17 -1 1 6.12323e-17 3667.09281652114 1208.66748046875)">25-Aug</text>
		</g>
		<g>
			<text fill="#595959" font-family="Verdana,Open Sans,DejaVu Sans,sans-serif" font-weight="400" font-size="41" transform="matrix(6.12323e-17 -1 1 6.12323e-17 3750.8575224034926 1204.42333984375)">22-Sep</text>
		</g>
		<g>
			<text fill="#595959" font-family="Verdana,Open Sans,DejaVu Sans,sans-serif" font-weight="400" font-size="41" transform="matrix(6.12323e-17 -1 1 6.12323e-17 3829.9176384420957 1201.1401290893555)">20-Oct</text>
		</g>
		<g>
			<text fill="#595959" font-family="Verdana,Open Sans,DejaVu Sans,sans-serif" font-weight="400" font-size="41" transform="matrix(6.12323e-17 -1 1 6.12323e-17 3913.4521197150734 1209.70849609375)">17-Nov</text>
		</g>
		<g>
			<text fill="#595959" font-family="Verdana,Open Sans,DejaVu Sans,sans-serif" font-weight="400" font-size="41" transform="matrix(6.12323e-17 -1 1 6.12323e-17 3997.2168255974266 1205.3642578125)">15-Dec</text>
		</g>
		<g>
			<text fill="#595959" font-family="Verdana,Open Sans,DejaVu Sans,sans-serif" font-weight="400" font-size="41" transform="matrix(6.12323e-17 -1 1 6.12323e-17 4084.8453010110293 1189.9291915893555)">12-Jan</text>
		</g>
		<g>
			<text fill="#595959" font-family="Verdana,Open Sans,DejaVu Sans,sans-serif" font-weight="400" font-size="41" transform="matrix(6.12323e-17 -1 1 6.12323e-17 4165.687155330882 1203.0419921875)">09-Feb</text>
		</g>
		<g>
			<text fill="#595959" font-family="Verdana,Open Sans,DejaVu Sans,sans-serif" font-weight="400" font-size="41" transform="matrix(6.12323e-17 -1 1 6.12323e-17 4248.74116785386 1212.0107421875)">09-Mar</text>
		</g>
		<g>
			<text fill="#595959" font-family="Verdana,Open Sans,DejaVu Sans,sans-serif" font-weight="400" font-size="41" transform="matrix(1 0 0 1 3135.4482421875 1050)">0%</text>
		</g>
		<g>
			<text fill="#595959" font-family="Verdana,Open Sans,DejaVu Sans,sans-serif" font-weight="400" font-size="41" transform="matrix(1 0 0 1 3111.96533203125 922)">20%</text>
		</g>
		<g>
			<text fill="#595959" font-family="Verdana,Open Sans,DejaVu Sans,sans-serif" font-weight="400" font-size="41" transform="matrix(1 0 0 1 3110.82421875 794)">40%</text>
		</g>
		<g>
			<text fill="#595959" font-family="Verdana,Open Sans,DejaVu Sans,sans-serif" font-weight="400" font-size="41" transform="matrix(1 0 0 1 3112.3056640625 666)">60%</text>
		</g>
		<g>
			<text fill="#595959" font-family="Verdana,Open Sans,DejaVu Sans,sans-serif" font-weight="400" font-size="41" transform="matrix(1 0 0 1 3112.04541015625 538)">80%</text>
		</g>
		<g>
			<text fill="#595959" font-family="Verdana,Open Sans,DejaVu Sans,sans-serif" font-weight="400" font-size="41" transform="matrix(1 0 0 1 3090.2841796875 410)">100%</text>
		</g>
		<g>
			<text fill="#595959" font-family="Verdana,Open Sans,DejaVu Sans,sans-serif" font-weight="400" font-size="41" transform="matrix(1 0 0 1 3556.97119140625 1321)">Week Commencing</text>
		</g>
		<g>
			<text fill="#595959" font-family="Verdana,Open Sans,DejaVu Sans,sans-serif" font-weight="400" font-size="46" transform="matrix(6.12323e-17 -1 1 6.12323e-17 3019.73 936.7665710449219)">Requests (% of Total)</text>
		</g>
		<rect x="2918.5" y="347.5" width="1760" height="1043" stroke="#D9D9D9" stroke-width="3.4375" stroke-linejoin="round" stroke-miterlimit="10" fill="none" />
		<g>
			<path d="M3228.5 1038 3249.4411764705883 1038 3270.3823529411766 1038 3291.323529411765 1038 3312.264705882353 1038 3333.205882352941 1038 3354.1470588235293 1038 3375.0882352941176 1038 3396.029411764706 1038 3416.970588235294 1038 3437.9117647058824 1038 3458.8529411764707 1038 3479.794117647059 1038 3500.735294117647 1038 3521.676470588235 1038 3542.6176470588234 1038 3563.5588235294117 1038 3584.5 1038 3605.4411764705883 1038 3626.3823529411766 1038 3647.323529411765 1038 3668.264705882353 1038 3689.205882352941 1038 3710.1470588235293 1038 3731.0882352941176 1038 3752.029411764706 1038 3772.970588235294 1038 3793.9117647058824 1038 3814.8529411764707 1038 3835.7941176470586 1038 3856.735294117647 1038 3877.676470588235 1038 3898.6176470588234 1038 3919.5588235294117 1038 3940.5 1038 3961.4411764705883 1038 3982.3823529411766 1038 4003.323529411765 1038 4024.264705882353 1038 4045.2058823529414 1038 4066.1470588235293 1038 4087.0882352941176 1038 4108.029411764706 1038 4128.970588235294 1038 4149.911764705882 1038 4170.85294117647 1038 4191.794117647059 1038 4212.735294117647 1038 4233.676470588235 1038 4254.617647058823 1038 4275.558823529412 1038 4296.5 1038 4296.5 511.24288256352213 4275.558823529412 510.6038163301091 4254.617647058823 510.132951236195 4233.676470588235 509.98967442059063 4212.735294117647 509.86699372684916 4191.794117647059 508.8578828355521 4170.85294117647 508.84856730181616 4149.911764705882 509.7800526172698 4128.970588235294 510.0683304392354 4108.029411764706 509.78758316632 4087.0882352941176 510.8817631047316 4066.1470588235293 510.8708866486968 4045.2058823529414 510.91527035566935 4024.264705882353 511.17358261897925 4003.323529411765 511.20549455604134 3982.3823529411766 512.098115952951 3961.4411764705883 512.1329612369273 3940.5 512.9189284987364 3919.5588235294117 515.8919455572111 3898.6176470588234 514.7969648318594 3877.676470588235 515.125626744456 3856.735294117647 517.3539587629043 3835.7941176470586 517.3728872760798 3814.8529411764707 517.3795154992906 3793.9117647058824 517.3746698568546 3772.970588235294 518.2845849198919 3752.029411764706 518.2786881359634 3731.0882352941176 518.6674644160128 3710.1470588235293 519.0934355637311 3689.205882352941 520.9052457535156 3668.264705882353 521.6318852573548 3647.323529411765 521.6184156458323 3626.3823529411766 522.2681085366032 3605.4411764705883 527.8351358448251 3584.5 527.8182060044346 3563.5588235294117 527.8171189568005 3542.6176470588234 527.8195281696414 3521.676470588235 527.7185125063723 3500.735294117647 528.1749639028288 3479.794117647059 526.0738068609967 3458.8529411764707 526.0690930129186 3437.9117647058824 526.4517905907722 3416.970588235294 526.966587562726 3396.029411764706 527.7344479046612 3375.0882352941176 528.0922596265774 3354.1470588235293 528.3637575953018 3333.205882352941 528.4473950245434 3312.264705882353 528.3817437118579 3291.323529411765 528.3209049784523 3270.3823529411766 528.6035113858115 3249.4411764705883 529.0722280244075 3228.5 529.4214956662862 3228.5 1038Z" fill="#e62d39" opacity="0.9" />
		</g>
		<g>
			<path d="M3228.5 529.4214956662862 3249.4411764705883 529.0722280244075 3270.3823529411766 528.6035113858115 3291.323529411765 528.3209049784523 3312.264705882353 528.3817437118579 3333.205882352941 528.4473950245434 3354.1470588235293 528.3637575953018 3375.0882352941176 528.0922596265774 3396.029411764706 527.7344479046612 3416.970588235294 526.966587562726 3437.9117647058824 526.4517905907722 3458.8529411764707 526.0690930129186 3479.794117647059 526.0738068609967 3500.735294117647 528.1749639028288 3521.676470588235 527.7185125063723 3542.6176470588234 527.8195281696414 3563.5588235294117 527.8171189568005 3584.5 527.8182060044346 3605.4411764705883 527.8351358448251 3626.3823529411766 522.2681085366032 3647.323529411765 521.6184156458323 3668.264705882353 521.6318852573548 3689.205882352941 520.9052457535156 3710.1470588235293 519.0934355637311 3731.0882352941176 518.6674644160128 3752.029411764706 518.2786881359634 3772.970588235294 518.2845849198919 3793.9117647058824 517.3746698568546 3814.8529411764707 517.3795154992906 3835.7941176470586 517.3728872760798 3856.735294117647 517.3539587629043 3877.676470588235 515.125626744456 3898.6176470588234 514.7969648318594 3919.5588235294117 515.8919455572111 3940.5 512.9189284987364 3961.4411764705883 512.1329612369273 3982.3823529411766 512.098115952951 4003.323529411765 511.20549455604134 4024.264705882353 511.17358261897925 4045.2058823529414 510.91527035566935 4066.1470588235293 510.8708866486968 4087.0882352941176 510.8817631047316 4108.029411764706 509.78758316632 4128.970588235294 510.0683304392354 4149.911764705882 509.7800526172698 4170.85294117647 508.84856730181616 4191.794117647059 508.8578828355521 4212.735294117647 509.86699372684916 4233.676470588235 509.98967442059063 4254.617647058823 510.132951236195 4275.558823529412 510.6038163301091 4296.5 511.24288256352213 4296.5 433.5622430486118 4275.558823529412 433.4002138201585 4254.617647058823 433.30898701618065 4233.676470588235 433.292322077633 4212.735294117647 433.3119961556043 4191.794117647059 433.4349407881655 4170.85294117647 433.4317855995608 4149.911764705882 433.4209825154003 4128.970588235294 433.6740677450532 4108.029411764706 433.75103255338803 4087.0882352941176 435.36079839131713 4066.1470588235293 435.3425795567811 4045.2058823529414 435.3887976286378 4024.264705882353 435.3992247727013 4003.323529411765 435.7778149248337 3982.3823529411766 435.69457104984326 3961.4411764705883 435.7373894918581 3940.5 436.0183299632218 3919.5588235294117 437.1107633727561 3898.6176470588234 436.7049406114033 3877.676470588235 436.8606414580909 3856.735294117647 437.9222955771362 3835.7941176470586 437.9259398239807 3814.8529411764707 437.9087165382534 3793.9117647058824 437.90716134158686 3772.970588235294 438.3816771158473 3752.029411764706 438.3811488943986 3731.0882352941176 438.6583696725575 3710.1470588235293 438.939493870515 3689.205882352941 439.76778884064066 3668.264705882353 440.12172845279287 3647.323529411765 440.1025942817036 3626.3823529411766 440.43245647629897 3605.4411764705883 446.0049434709254 3584.5 445.99448025532104 3563.5588235294117 445.9906298366525 3542.6176470588234 445.9850763388172 3521.676470588235 446.00044835106377 3500.735294117647 445.48995832347725 3479.794117647059 440.7320769519542 3458.8529411764707 440.71015435347675 3437.9117647058824 440.79849020545294 3416.970588235294 441.02669160650083 3396.029411764706 441.4805241599953 3375.0882352941176 441.7146387359797 3354.1470588235293 441.87434560441795 3333.205882352941 442.00506484989137 3312.264705882353 442.0536403247141 3291.323529411765 442.1004848135459 3270.3823529411766 442.29078701208255 3249.4411764705883 442.5177613549289 3228.5 442.75370380577044 3228.5 529.4214956662862Z" fill="#005aa6" opacity="0.9" />
		</g>
		<g>
			<path d="M3228.5 442.75370380577044 3249.4411764705883 442.5177613549289 3270.3823529411766 442.29078701208255 3291.323529411765 442.1004848135459 3312.264705882353 442.0536403247141 3333.205882352941 442.00506484989137 3354.1470588235293 441.87434560441795 3375.0882352941176 441.7146387359797 3396.029411764706 441.4805241599953 3416.970588235294 441.02669160650083 3437.9117647058824 440.79849020545294 3458.8529411764707 440.71015435347675 3479.794117647059 440.7320769519542 3500.735294117647 445.48995832347725 3521.676470588235 446.00044835106377 3542.6176470588234 445.9850763388172 3563.5588235294117 445.9906298366525 3584.5 445.99448025532104 3605.4411764705883 446.0049434709254 3626.3823529411766 440.43245647629897 3647.323529411765 440.1025942817036 3668.264705882353 440.12172845279287 3689.205882352941 439.76778884064066 3710.1470588235293 438.939493870515 3731.0882352941176 438.6583696725575 3752.029411764706 438.3811488943986 3772.970588235294 438.3816771158473 3793.9117647058824 437.90716134158686 3814.8529411764707 437.9087165382534 3835.7941176470586 437.9259398239807 3856.735294117647 437.9222955771362 3877.676470588235 436.8606414580909 3898.6176470588234 436.7049406114033 3919.5588235294117 437.1107633727561 3940.5 436.0183299632218 3961.4411764705883 435.7373894918581 3982.3823529411766 435.69457104984326 4003.323529411765 435.7778149248337 4024.264705882353 435.3992247727013 4045.2058823529414 435.3887976286378 4066.1470588235293 435.3425795567811 4087.0882352941176 435.36079839131713 4108.029411764706 433.75103255338803 4128.970588235294 433.6740677450532 4149.911764705882 433.4209825154003 4170.85294117647 433.4317855995608 4191.794117647059 433.4349407881655 4212.735294117647 433.3119961556043 4233.676470588235 433.292322077633 4254.617647058823 433.30898701618065 4275.558823529412 433.4002138201585 4296.5 433.5622430486118 4296.5 418.9097932778808 4275.558823529412 418.82069167553175 4254.617647058823 418.78153120455926 4233.676470588235 418.761446442615 4212.735294117647 418.77023699293045 4191.794117647059 418.9275739202609 4170.85294117647 418.92551623383343 4149.911764705882 418.96035428104784 4128.970588235294 419.15736729425555 4108.029411764706 419.17384173683575 4087.0882352941176 420.87551367904683 4066.1470588235293 420.8556038374519 4045.2058823529414 420.90079943263 4024.264705882353 420.9199678677945 4003.323529411765 421.17546638387716 3982.3823529411766 421.2737767063939 3961.4411764705883 421.31851350204755 3940.5 421.5482860386991 3919.5588235294117 422.28800089553556 3898.6176470588234 422.10195037941145 3877.676470588235 422.2371615504225 3856.735294117647 423.16774393881434 3835.7941176470586 423.167665092679 3814.8529411764707 423.14655140370303 3793.9117647058824 423.1457070138017 3772.970588235294 423.56516266700936 3752.029411764706 423.5655214379781 3731.0882352941176 423.8109003038261 3710.1470588235293 424.0558120196192 3689.205882352941 424.7181344913808 3668.264705882353 425.0236349944547 3647.323529411765 425.0035344441698 3626.3823529411766 425.28465904377634 3605.4411764705883 430.8274530925998 3584.5 430.81817356835387 3563.5588235294117 430.8139007331268 3542.6176470588234 430.8069864095142 3521.676470588235 430.9020970833825 3500.735294117647 430.23142599790555 3479.794117647059 425.0017650883845 3458.8529411764707 424.9767523660499 3437.9117647058824 425.0257701995382 3416.970588235294 425.20583580775155 3396.029411764706 425.4986687976815 3375.0882352941176 425.6867840212037 3354.1470588235293 425.8119685721377 3333.205882352941 425.9104888133743 3312.264705882353 425.92679886960804 3291.323529411765 425.94362826788443 3270.3823529411766 426.1140510532148 3249.4411764705883 426.3120783472338 3228.5 426.5518003809951 3228.5 442.75370380577044Z" fill="#55c0e9" opacity="0.9" />
		</g>
		<g>
			<path d="M3228.5 426.5518003809951 3249.4411764705883 426.3120783472338 3270.3823529411766 426.1140510532148 3291.323529411765 425.94362826788443 3312.264705882353 425.92679886960804 3333.205882352941 425.9104888133743 3354.1470588235293 425.8119685721377 3375.0882352941176 425.6867840212037 3396.029411764706 425.4986687976815 3416.970588235294 425.20583580775155 3437.9117647058824 425.0257701995382 3458.8529411764707 424.9767523660499 3479.794117647059 425.0017650883845 3500.735294117647 430.23142599790555 3521.676470588235 430.9020970833825 3542.6176470588234 430.8069864095142 3563.5588235294117 430.8139007331268 3584.5 430.81817356835387 3605.4411764705883 430.8274530925998 3626.3823529411766 425.28465904377634 3647.323529411765 425.0035344441698 3668.264705882353 425.0236349944547 3689.205882352941 424.7181344913808 3710.1470588235293 424.0558120196192 3731.0882352941176 423.8109003038261 3752.029411764706 423.5655214379781 3772.970588235294 423.56516266700936 3793.9117647058824 423.1457070138017 3814.8529411764707 423.14655140370303 3835.7941176470586 423.167665092679 3856.735294117647 423.16774393881434 3877.676470588235 422.2371615504225 3898.6176470588234 422.10195037941145 3919.5588235294117 422.28800089553556 3940.5 421.5482860386991 3961.4411764705883 421.31851350204755 3982.3823529411766 421.2737767063939 4003.323529411765 421.17546638387716 4024.264705882353 420.9199678677945 4045.2058823529414 420.90079943263 4066.1470588235293 420.8556038374519 4087.0882352941176 420.87551367904683 4108.029411764706 419.17384173683575 4128.970588235294 419.15736729425555 4149.911764705882 418.96035428104784 4170.85294117647 418.92551623383343 4191.794117647059 418.9275739202609 4212.735294117647 418.77023699293045 4233.676470588235 418.761446442615 4254.617647058823 418.78153120455926 4275.558823529412 418.82069167553175 4296.5 418.9097932778808 4296.5 407.75714820436707 4275.558823529412 407.68691925855956 4254.617647058823 407.6472692730448 4233.676470588235 407.61824955966534 4212.735294117647 407.61722466292395 4191.794117647059 407.63262030600544 4170.85294117647 407.63004242027574 4149.911764705882 407.6085547272844 4128.970588235294 407.70041641084794 4108.029411764706 407.73331438233555 4087.0882352941176 409.46082329286793 4066.1470588235293 409.44561346924576 4045.2058823529414 409.4552564157993 4024.264705882353 409.442567653401 4003.323529411765 409.50831649918746 3982.3823529411766 409.55722453750167 3961.4411764705883 409.60566872011515 3940.5 409.72296665824126 3919.5588235294117 410.10948315685346 3898.6176470588234 410.00098369930805 3877.676470588235 410.02158135972263 3856.735294117647 410.3831921847201 3835.7941176470586 410.3816258742522 3814.8529411764707 410.3693732840644 3793.9117647058824 410.36817686183286 3772.970588235294 410.49749865569987 3752.029411764706 410.49874026393246 3731.0882352941176 410.5976679252191 3710.1470588235293 410.7016436985356 3689.205882352941 410.9789161674267 3668.264705882353 411.1035757536376 3647.323529411765 411.0839891917173 3626.3823529411766 411.22347657579 3605.4411764705883 416.32051328878225 3584.5 416.3159617889731 3563.5588235294117 416.31921689377526 3542.6176470588234 416.31736632943614 3521.676470588235 416.3210682719641 3500.735294117647 415.85243189703715 3479.794117647059 410.86025631578275 3458.8529411764707 410.8513168557256 3437.9117647058824 410.8010080993925 3416.970588235294 410.8532595598375 3396.029411764706 410.9689719408518 3375.0882352941176 411.04822058755076 3354.1470588235293 411.09796238059005 3333.205882352941 411.13309600464333 3312.264705882353 411.08525540240214 3291.323529411765 411.0502804931489 3270.3823529411766 411.15507042479464 3249.4411764705883 411.2715831935364 3228.5 411.39453051492376 3228.5 426.5518003809951Z" fill="#f6a118" opacity="0.9" />
		</g>
		<g>
			<path d="M3228.5 411.39453051492376 3249.4411764705883 411.2715831935364 3270.3823529411766 411.15507042479464 3291.323529411765 411.0502804931489 3312.264705882353 411.08525540240214 3333.205882352941 411.13309600464333 3354.1470588235293 411.09796238059005 3375.0882352941176 411.04822058755076 3396.029411764706 410.9689719408518 3416.970588235294 410.8532595598375 3437.9117647058824 410.8010080993925 3458.8529411764707 410.8513168557256 3479.794117647059 410.86025631578275 3500.735294117647 415.85243189703715 3521.676470588235 416.3210682719641 3542.6176470588234 416.31736632943614 3563.5588235294117 416.31921689377526 3584.5 416.3159617889731 3605.4411764705883 416.32051328878225 3626.3823529411766 411.22347657579 3647.323529411765 411.0839891917173 3668.264705882353 411.1035757536376 3689.205882352941 410.9789161674267 3710.1470588235293 410.7016436985356 3731.0882352941176 410.5976679252191 3752.029411764706 410.49874026393246 3772.970588235294 410.49749865569987 3793.9117647058824 410.36817686183286 3814.8529411764707 410.3693732840644 3835.7941176470586 410.3816258742522 3856.735294117647 410.3831921847201 3877.676470588235 410.02158135972263 3898.6176470588234 410.00098369930805 3919.5588235294117 410.10948315685346 3940.5 409.72296665824126 3961.4411764705883 409.60566872011515 3982.3823529411766 409.55722453750167 4003.323529411765 409.50831649918746 4024.264705882353 409.442567653401 4045.2058823529414 409.4552564157993 4066.1470588235293 409.44561346924576 4087.0882352941176 409.46082329286793 4108.029411764706 407.73331438233555 4128.970588235294 407.70041641084794 4149.911764705882 407.6085547272844 4170.85294117647 407.63004242027574 4191.794117647059 407.63262030600544 4212.735294117647 407.61722466292395 4233.676470588235 407.61824955966534 4254.617647058823 407.6472692730448 4275.558823529412 407.68691925855956 4296.5 407.75714820436707 4296.5 401.2959815163896 4275.558823529412 401.2284149226283 4254.617647058823 401.2178574312743 4233.676470588235 401.2271449370171 4212.735294117647 401.22998698493177 4191.794117647059 401.24723467475025 4170.85294117647 401.24799680108157 4149.911764705882 401.25127865193434 4128.970588235294 401.2738697689626 4108.029411764706 401.29212425152997 4087.0882352941176 402.9378506891094 4066.1470588235293 402.9552515332576 4045.2058823529414 402.9599325586472 4024.264705882353 402.96405971887924 4003.323529411765 403.01449278802465 3982.3823529411766 402.9591913948528 3961.4411764705883 403.01566327837304 3940.5 403.0312697625879 3919.5588235294117 403.17379003690496 3898.6176470588234 403.039123205232 3877.676470588235 403.0276937585125 3856.735294117647 402.88697047759695 3835.7941176470586 402.8853442705775 3814.8529411764707 402.8987404525652 3793.9117647058824 402.9002345633593 3772.970588235294 402.80439160515203 3752.029411764706 402.8071737793706 3731.0882352941176 402.7885058788081 3710.1470588235293 402.75682438501997 3689.205882352941 402.64364301985916 3668.264705882353 402.6213127942401 3647.323529411765 402.6374941256268 3626.3823529411766 402.6382934643876 3605.4411764705883 407.18303418872716 3584.5 407.1809148990988 3563.5588235294117 407.1872998554764 3542.6176470588234 407.1917111103271 3521.676470588235 407.1621562125779 3500.735294117647 406.9309868112197 3479.794117647059 402.3499262788061 3458.8529411764707 402.3497550933614 3437.9117647058824 402.31710391583925 3416.970588235294 402.31377839166817 3396.029411764706 402.32705082967294 3375.0882352941176 402.3105155472352 3354.1470588235293 402.3328782432905 3333.205882352941 402.29313148871324 3312.264705882353 402.27347913416367 3291.323529411765 402.24951221526595 3270.3823529411766 402.264400535425 3249.4411764705883 402.2771754039698 3228.5 402.3026796088189 3228.5 411.39453051492376Z" fill="#fdd5a4" opacity="0.9" />
		</g>
		<g>
			<path d="M3228.5 402.3026796088189 3249.4411764705883 402.2771754039698 3270.3823529411766 402.264400535425 3291.323529411765 402.24951221526595 3312.264705882353 402.27347913416367 3333.205882352941 402.29313148871324 3354.1470588235293 402.3328782432905 3375.0882352941176 402.3105155472352 3396.029411764706 402.32705082967294 3416.970588235294 402.31377839166817 3437.9117647058824 402.31710391583925 3458.8529411764707 402.3497550933614 3479.794117647059 402.3499262788061 3500.735294117647 406.9309868112197 3521.676470588235 407.1621562125779 3542.6176470588234 407.1917111103271 3563.5588235294117 407.1872998554764 3584.5 407.1809148990988 3605.4411764705883 407.18303418872716 3626.3823529411766 402.6382934643876 3647.323529411765 402.6374941256268 3668.264705882353 402.6213127942401 3689.205882352941 402.64364301985916 3710.1470588235293 402.75682438501997 3731.0882352941176 402.7885058788081 3752.029411764706 402.8071737793706 3772.970588235294 402.80439160515203 3793.9117647058824 402.9002345633593 3814.8529411764707 402.8987404525652 3835.7941176470586 402.8853442705775 3856.735294117647 402.88697047759695 3877.676470588235 403.0276937585125 3898.6176470588234 403.039123205232 3919.5588235294117 403.17379003690496 3940.5 403.0312697625879 3961.4411764705883 403.01566327837304 3982.3823529411766 402.9591913948528 4003.323529411765 403.01449278802465 4024.264705882353 402.96405971887924 4045.2058823529414 402.9599325586472 4066.1470588235293 402.9552515332576 4087.0882352941176 402.9378506891094 4108.029411764706 401.29212425152997 4128.970588235294 401.2738697689626 4149.911764705882 401.25127865193434 4170.85294117647 401.24799680108157 4191.794117647059 401.24723467475025 4212.735294117647 401.22998698493177 4233.676470588235 401.2271449370171 4254.617647058823 401.2178574312743 4275.558823529412 401.2284149226283 4296.5 401.2959815163896 4296.5 398.00000000000006 4275.558823529412 397.9999999999999 4254.617647058823 398.0000000000001 4233.676470588235 398.0000000000001 4212.735294117647 398 4191.794117647059 398 4170.85294117647 398.00000000000006 4149.911764705882 398 4128.970588235294 397.99999999999994 4108.029411764706 397.99999999999994 4087.0882352941176 398.00000000000006 4066.1470588235293 397.99999999999994 4045.2058823529414 397.9999999999999 4024.264705882353 398 4003.323529411765 398 3982.3823529411766 398.00000000000006 3961.4411764705883 397.99999999999994 3940.5 398.00000000000006 3919.5588235294117 397.99999999999994 3898.6176470588234 398 3877.676470588235 398 3856.735294117647 397.9999999999999 3835.7941176470586 398.00000000000006 3814.8529411764707 398.0000000000001 3793.9117647058824 398.00000000000006 3772.970588235294 398 3752.029411764706 397.99999999999994 3731.0882352941176 398 3710.1470588235293 398 3689.205882352941 398 3668.264705882353 397.99999999999994 3647.323529411765 398.00000000000006 3626.3823529411766 397.99999999999994 3605.4411764705883 397.9999999999999 3584.5 398.0000000000001 3563.5588235294117 397.99999999999994 3542.6176470588234 398 3521.676470588235 398 3500.735294117647 398 3479.794117647059 398 3458.8529411764707 398 3437.9117647058824 398.00000000000006 3416.970588235294 398 3396.029411764706 398.0000000000001 3375.0882352941176 398.0000000000001 3354.1470588235293 398 3333.205882352941 398 3312.264705882353 398.00000000000006 3291.323529411765 398.0000000000001 3270.3823529411766 398 3249.4411764705883 397.99999999999994 3228.5 398 3228.5 402.3026796088189Z" fill="#393d41" opacity="0.9" />
		</g>
		<g>
			<rect x="4372" y="431" width="22.9995" height="23" fill="#e62d39" />
		</g>
		<g>
			<text fill="#595959" font-family="Verdana,Open Sans,DejaVu Sans,sans-serif" font-weight="400" font-size="41" transform="matrix(1 0 0 1 4404.56 454)">Smartphone</text>
		</g>
		<g>
			<rect x="4372" y="508" width="22.9995" height="23" fill="#005aa6" />
		</g>
		<g>
			<text fill="#595959" font-family="Verdana,Open Sans,DejaVu Sans,sans-serif" font-weight="400" font-size="41" transform="matrix(1 0 0 1 4404.56 531)">Desktop</text>
		</g>
		<g>
			<rect x="4372" y="585" width="22.9995" height="23" fill="#55c0e9" />
		</g>
		<g>
			<text fill="#595959" font-family="Verdana,Open Sans,DejaVu Sans,sans-serif" font-weight="400" font-size="41" transform="matrix(1 0 0 1 4404.56 608)">Other</text>
		</g>
		<g>
			<rect x="4372" y="662" width="22.9995" height="23" fill="#f6a118" />
		</g>
		<g>
			<text fill="#595959" font-family="Verdana,Open Sans,DejaVu Sans,sans-serif" font-weight="400" font-size="41" transform="matrix(1 0 0 1 4404.56 685)">Tablet</text>
		</g>
		<g>
			<rect x="4372" y="739" width="22.9995" height="23" fill="#fdd5a4" />
		</g>
		<g>
			<text fill="#595959" font-family="Verdana,Open Sans,DejaVu Sans,sans-serif" font-weight="400" font-size="41" transform="matrix(1 0 0 1 4404.56 762)">Tv</text>
		</g>
		<g>
			<rect x="4372" y="816" width="22.9995" height="23" fill="#393d41" />
		</g>
		<g>
			<text fill="#595959" font-family="Verdana,Open Sans,DejaVu Sans,sans-serif" font-weight="400" font-size="41" transform="matrix(1 0 0 1 4404.56 839)">Unclassified</text>
		</g>
	</g>
</svg>
