<svg width="1763" height="1046"
    xmlns="http://www.w3.org/2000/svg"
	xmlns:xlink="http://www.w3.org/1999/xlink" xml:space="preserve" overflow="hidden">
	<defs>
		<clipPath id="clip0">
			<rect x="2917" y="346" width="1763" height="1046"/>
		</clipPath>
	</defs>
	<g clip-path="url(#clip0)" transform="translate(-2917 -346)">
		<rect x="2918" y="347" width="1760" height="1043" fill="#FFFFFF" />
		<g>
			<path d="
			M3228.5 974.532 4296.5 974.532
			M3228.5 910.53 4296.5 910.53
			M3228.5 846.528 4296.5 846.528
			M3228.5 781.526 4296.5 781.526
			M3228.5 717.524 4296.5 717.524
			M3228.5 653.522 4296.5 653.522
			M3228.5 589.52 4296.5 589.52
			M3228.5 525.517 4296.5 525.517
			M3228.5 461.515 4296.5 461.515
			M3228.5 397.5 4296.5 397.5" stroke="#D9D9D9" stroke-width="3.4375" stroke-linejoin="round" stroke-miterlimit="10" fill="none" />
		</g>
		<g>
			<path d="M 1038.5 4296.5 1038.5" stroke="#D9D9D9" stroke-width="3.4375" stroke-linejoin="round" stroke-miterlimit="10" fill="none" fill-rule="evenodd" />
		</g>
		<g>
			<text fill="#595959" font-family="Verdana,sans-serif" font-weight="400" font-size="41" transform="matrix(6.12323e-17 -1 1 6.12323e-17 3248 1214)">15-Apr</text>
		</g>
		<g>
			<text fill="#595959" font-family="Verdana,sans-serif" font-weight="400" font-size="41" transform="matrix(6.12323e-17 -1 1 6.12323e-17 3331.764705882353 1226)">13-May</text>
		</g>
		<g>
			<text fill="#595959" font-family="Verdana,sans-serif" font-weight="400" font-size="41" transform="matrix(6.12323e-17 -1 1 6.12323e-17 3412.029411764706 1209)">10-Jun</text>
		</g>
		<g>
			<text fill="#595959" font-family="Verdana,sans-serif" font-weight="400" font-size="41" transform="matrix(6.12323e-17 -1 1 6.12323e-17 3495.794117647059 1197)">08-Jul</text>
		</g>
		<g>
			<text fill="#595959" font-family="Verdana,sans-serif" font-weight="400" font-size="41" transform="matrix(6.12323e-17 -1 1 6.12323e-17 3583.0588235294117 1221)">05-Aug</text>
		</g>
		<g>
			<text fill="#595959" font-family="Verdana,sans-serif" font-weight="400" font-size="41" transform="matrix(6.12323e-17 -1 1 6.12323e-17 3666.823529411765 1222)">02-Sep</text>
		</g>
		<g>
			<text fill="#595959" font-family="Verdana,sans-serif" font-weight="400" font-size="41" transform="matrix(6.12323e-17 -1 1 6.12323e-17 3750.5882352941176 1221)">30-Sep</text>
		</g>
		<g>
			<text fill="#595959" font-family="Verdana,sans-serif" font-weight="400" font-size="41" transform="matrix(6.12323e-17 -1 1 6.12323e-17 3830.8529411764707 1215)">28-Oct</text>
		</g>
		<g>
			<text fill="#595959" font-family="Verdana,sans-serif" font-weight="400" font-size="41" transform="matrix(6.12323e-17 -1 1 6.12323e-17 3914.6176470588234 1224)">25-Nov</text>
		</g>
		<g>
			<text fill="#595959" font-family="Verdana,sans-serif" font-weight="400" font-size="41" transform="matrix(6.12323e-17 -1 1 6.12323e-17 3998.3823529411766 1222)">30-Dec</text>
		</g>
		<g>
			<text fill="#595959" font-family="Verdana,sans-serif" font-weight="400" font-size="41" transform="matrix(6.12323e-17 -1 1 6.12323e-17 4082.1470588235293 1210)">27-Jan</text>
		</g>
		<g>
			<text fill="#595959" font-family="Verdana,sans-serif" font-weight="400" font-size="41" transform="matrix(6.12323e-17 -1 1 6.12323e-17 4165.911764705882 1216)">24-Feb</text>
		</g>
		<g>
			<text fill="#595959" font-family="Verdana,sans-serif" font-weight="400" font-size="41" transform="matrix(6.12323e-17 -1 1 6.12323e-17 4249.676470588235 1223)">24-Mar</text>
		</g>
		<g>
			<text fill="#595959" font-family="Verdana,sans-serif" font-weight="400" font-size="41" transform="matrix(1 0 0 1 3123.5 1050)">0%</text>
		</g>
		<g>
			<text fill="#595959" font-family="Verdana,sans-serif" font-weight="400" font-size="41" transform="matrix(1 0 0 1 3097.5 922)">20%</text>
		</g>
		<g>
			<text fill="#595959" font-family="Verdana,sans-serif" font-weight="400" font-size="41" transform="matrix(1 0 0 1 3096.5 794)">40%</text>
		</g>
		<g>
			<text fill="#595959" font-family="Verdana,sans-serif" font-weight="400" font-size="41" transform="matrix(1 0 0 1 3097.5 666)">60%</text>
		</g>
		<g>
			<text fill="#595959" font-family="Verdana,sans-serif" font-weight="400" font-size="41" transform="matrix(1 0 0 1 3097.5 538)">80%</text>
		</g>
		<g>
			<text fill="#595959" font-family="Verdana,sans-serif" font-weight="400" font-size="41" transform="matrix(1 0 0 1 3074.5 410)">100%</text>
		</g>
		<g>
			<text fill="#595959" font-family="Verdana,sans-serif" font-weight="400" font-size="41" transform="matrix(1 0 0 1 3544.5 1321)">Week Commencing</text>
		</g>
		<g>
			<text fill="#595959" font-family="Verdana,sans-serif" font-weight="400" font-size="46" transform="matrix(6.12323e-17 -1 1 6.12323e-17 3019.73 965.25)">Requests (% of Total)</text>
		</g>
		<rect x="2918.5" y="347.5" width="1760" height="1043" stroke="#D9D9D9" stroke-width="3.4375" stroke-linejoin="round" stroke-miterlimit="10" fill="none" />
		<g>
			<path d="M3228.5 1038 3249.4411764705883 1038 3270.3823529411766 1038 3291.323529411765 1038 3312.264705882353 1038 3333.205882352941 1038 3354.1470588235293 1038 3375.0882352941176 1038 3396.029411764706 1038 3416.970588235294 1038 3437.9117647058824 1038 3458.8529411764707 1038 3479.794117647059 1038 3500.735294117647 1038 3521.676470588235 1038 3542.6176470588234 1038 3563.5588235294117 1038 3584.5 1038 3605.4411764705883 1038 3626.3823529411766 1038 3647.323529411765 1038 3668.264705882353 1038 3689.205882352941 1038 3710.1470588235293 1038 3731.0882352941176 1038 3752.029411764706 1038 3772.970588235294 1038 3793.9117647058824 1038 3814.8529411764707 1038 3835.7941176470586 1038 3856.735294117647 1038 3877.676470588235 1038 3898.6176470588234 1038 3919.5588235294117 1038 3940.5 1038 3961.4411764705883 1038 3982.3823529411766 1038 4003.323529411765 1038 4024.264705882353 1038 4045.2058823529414 1038 4066.1470588235293 1038 4087.0882352941176 1038 4108.029411764706 1038 4128.970588235294 1038 4149.911764705882 1038 4170.85294117647 1038 4191.794117647059 1038 4212.735294117647 1038 4233.676470588235 1038 4254.617647058823 1038 4275.558823529412 1038 4296.5 1038 4296.5 528.6035113858115 4275.558823529412 529.0722280244075 4254.617647058823 529.4214956662862 4233.676470588235 529.807429199031 4212.735294117647 533.5058286789898 4191.794117647059 533.4031264720519 4170.85294117647 533.4021762961523 4149.911764705882 533.7756525096236 4128.970588235294 533.8956466575289 4108.029411764706 533.9572095457534 4087.0882352941176 533.4841990448925 4066.1470588235293 533.4528010722697 4045.2058823529414 533.722746014736 4024.264705882353 533.7853664259474 4003.323529411765 533.8294455926118 3982.3823529411766 533.7499584959044 3961.4411764705883 533.5577242345337 3940.5 533.3794235575219 3919.5588235294117 533.1839579715512 3898.6176470588234 532.7385960569093 3877.676470588235 532.9945218339117 3856.735294117647 533.5883597667535 3835.7941176470586 534.4892592748513 3814.8529411764707 535.2648007319358 3793.9117647058824 642.4592997578948 3772.970588235294 641.7348258019537 3752.029411764706 641.0274072878076 3731.0882352941176 640.0328656683237 3710.1470588235293 638.7439704461906 3689.205882352941 637.5953366301156 3668.264705882353 636.388984334016 3647.323529411765 635.2830954215428 3626.3823529411766 634.2801376637599 3605.4411764705883 633.5123019251453 3584.5 632.703376074059 3563.5588235294117 631.9415100696045 3542.6176470588234 630.857109120077 3521.676470588235 629.6835942752446 3500.735294117647 628.7570391925642 3479.794117647059 627.5176878063296 3458.8529411764707 626.3963136974012 3437.9117647058824 625.2428890685153 3416.970588235294 624.0667377001988 3396.029411764706 622.80172023452 3375.0882352941176 632.4054355541638 3354.1470588235293 630.9533026623258 3333.205882352941 630.0731822124889 3312.264705882353 629.6411395703622 3291.323529411765 629.3637077507597 3270.3823529411766 629.112232069277 3249.4411764705883 628.7712194186788 3228.5 629.1405060461395 3228.5 1038Z" fill="#e62d39" opacity="0.9" />
		</g>
		<g>
			<path d="M3228.5 629.1405060461395 3249.4411764705883 628.7712194186788 3270.3823529411766 629.112232069277 3291.323529411765 629.3637077507597 3312.264705882353 629.6411395703622 3333.205882352941 630.0731822124889 3354.1470588235293 630.9533026623258 3375.0882352941176 632.4054355541638 3396.029411764706 622.80172023452 3416.970588235294 624.0667377001988 3437.9117647058824 625.2428890685153 3458.8529411764707 626.3963136974012 3479.794117647059 627.5176878063296 3500.735294117647 628.7570391925642 3521.676470588235 629.6835942752446 3542.6176470588234 630.857109120077 3563.5588235294117 631.9415100696045 3584.5 632.703376074059 3605.4411764705883 633.5123019251453 3626.3823529411766 634.2801376637599 3647.323529411765 635.2830954215428 3668.264705882353 636.388984334016 3689.205882352941 637.5953366301156 3710.1470588235293 638.7439704461906 3731.0882352941176 640.0328656683237 3752.029411764706 641.0274072878076 3772.970588235294 641.7348258019537 3793.9117647058824 642.4592997578948 3814.8529411764707 535.2648007319358 3835.7941176470586 534.4892592748513 3856.735294117647 533.5883597667535 3877.676470588235 532.9945218339117 3898.6176470588234 532.7385960569093 3919.5588235294117 533.1839579715512 3940.5 533.3794235575219 3961.4411764705883 533.5577242345337 3982.3823529411766 533.7499584959044 4003.323529411765 533.8294455926118 4024.264705882353 533.7853664259474 4045.2058823529414 533.722746014736 4066.1470588235293 533.4528010722697 4087.0882352941176 533.4841990448925 4108.029411764706 533.9572095457534 4128.970588235294 533.8956466575289 4149.911764705882 533.7756525096236 4170.85294117647 533.4021762961523 4191.794117647059 533.4031264720519 4212.735294117647 533.5058286789898 4233.676470588235 529.807429199031 4254.617647058823 529.4214956662862 4275.558823529412 529.0722280244075 4296.5 528.6035113858115 4296.5 442.29078701208255 4275.558823529412 442.5177613549289 4254.617647058823 442.75370380577044 4233.676470588235 443.0039649820596 4212.735294117647 447.2266118196212 4191.794117647059 447.3367564362345 4170.85294117647 447.478410212555 4149.911764705882 447.7812344269998 4128.970588235294 447.9735867247491 4108.029411764706 448.11744019003095 4087.0882352941176 447.90712750570685 4066.1470588235293 447.65114758474357 4045.2058823529414 447.63691579979616 4024.264705882353 447.6548818464415 4003.323529411765 447.68514400974766 3982.3823529411766 447.6730658977694 3961.4411764705883 447.6266609249292 3940.5 447.6323779302626 3919.5588235294117 447.6574339250563 3898.6176470588234 447.5983732210459 3877.676470588235 447.82372841614773 3856.735294117647 448.23400972704667 3835.7941176470586 448.85972838125235 3814.8529411764707 449.3446349967366 3793.9117647058824 564.013087594675 3772.970588235294 563.0569322713101 3752.029411764706 562.1201699126104 3731.0882352941176 560.9592369816268 3710.1470588235293 559.5178863272408 3689.205882352941 558.0421991553968 3668.264705882353 556.6183211021491 3647.323529411765 555.218566955861 3626.3823529411766 553.8747604661306 3605.4411764705883 552.795294537007 3584.5 551.5476668303065 3563.5588235294117 550.4510715595417 3542.6176470588234 549.056064697407 3521.676470588235 547.7069248917836 3500.735294117647 546.4892681197156 3479.794117647059 545.0068552240035 3458.8529411764707 543.5872074138473 3437.9117647058824 542.2071477253921 3416.970588235294 540.7523658360859 3396.029411764706 539.1846046453284 3375.0882352941176 550.69398337688 3354.1470588235293 549.0305649530324 3333.205882352941 547.8419869340069 3312.264705882353 547.2972215888882 3291.323529411765 546.9206806705122 3270.3823529411766 546.5765460991323 3249.4411764705883 546.1401156456737 3228.5 546.162084159149 3228.5 629.1405060461395Z" fill="#005aa6" opacity="0.9" />
		</g>
		<g>
			<path d="M3228.5 546.162084159149 3249.4411764705883 546.1401156456737 3270.3823529411766 546.5765460991323 3291.323529411765 546.9206806705122 3312.264705882353 547.2972215888882 3333.205882352941 547.8419869340069 3354.1470588235293 549.0305649530324 3375.0882352941176 550.69398337688 3396.029411764706 539.1846046453284 3416.970588235294 540.7523658360859 3437.9117647058824 542.2071477253921 3458.8529411764707 543.5872074138473 3479.794117647059 545.0068552240035 3500.735294117647 546.4892681197156 3521.676470588235 547.7069248917836 3542.6176470588234 549.056064697407 3563.5588235294117 550.4510715595417 3584.5 551.5476668303065 3605.4411764705883 552.795294537007 3626.3823529411766 553.8747604661306 3647.323529411765 555.218566955861 3668.264705882353 556.6183211021491 3689.205882352941 558.0421991553968 3710.1470588235293 559.5178863272408 3731.0882352941176 560.9592369816268 3752.029411764706 562.1201699126104 3772.970588235294 563.0569322713101 3793.9117647058824 564.013087594675 3814.8529411764707 449.3446349967366 3835.7941176470586 448.85972838125235 3856.735294117647 448.23400972704667 3877.676470588235 447.82372841614773 3898.6176470588234 447.5983732210459 3919.5588235294117 447.6574339250563 3940.5 447.6323779302626 3961.4411764705883 447.6266609249292 3982.3823529411766 447.6730658977694 4003.323529411765 447.68514400974766 4024.264705882353 447.6548818464415 4045.2058823529414 447.63691579979616 4066.1470588235293 447.65114758474357 4087.0882352941176 447.90712750570685 4108.029411764706 448.11744019003095 4128.970588235294 447.9735867247491 4149.911764705882 447.7812344269998 4170.85294117647 447.478410212555 4191.794117647059 447.3367564362345 4212.735294117647 447.2266118196212 4233.676470588235 443.0039649820596 4254.617647058823 442.75370380577044 4275.558823529412 442.5177613549289 4296.5 442.29078701208255 4296.5 426.1140510532148 4275.558823529412 426.3120783472338 4254.617647058823 426.5518003809951 4233.676470588235 426.81320471249694 4212.735294117647 431.1686011749783 4191.794117647059 431.3401421096995 4170.85294117647 431.5247092372164 4149.911764705882 431.81676347027957 4128.970588235294 431.99440912392726 4108.029411764706 432.1329946808099 4087.0882352941176 432.00359297169024 4066.1470588235293 431.84731630596053 4045.2058823529414 431.8659139096981 4024.264705882353 431.93242137634724 4003.323529411765 431.9599475077045 3982.3823529411766 431.9558731937295 3961.4411764705883 431.9405589448202 3940.5 431.96727576259724 3919.5588235294117 432.02029212049626 3898.6176470588234 431.97528739378606 3877.676470588235 432.15561530771527 3856.735294117647 432.4754364071281 3835.7941176470586 433.0084053536388 3814.8529411764707 433.3913361237896 3793.9117647058824 540.8290503164301 3772.970588235294 539.7717503889384 3752.029411764706 538.7148538649283 3731.0882352941176 537.4631522646897 3710.1470588235293 535.9474999414622 3689.205882352941 534.3593851680338 3668.264705882353 532.8484801447386 3647.323529411765 531.3863925452272 3626.3823529411766 529.9440403710025 3605.4411764705883 528.7702332186351 3584.5 527.9710368276562 3563.5588235294117 526.7914366981524 3542.6176470588234 525.3123672531278 3521.676470588235 523.9349092321237 3500.735294117647 522.6767257917172 3479.794117647059 521.1207351787452 3458.8529411764707 519.5911430965305 3437.9117647058824 518.1357144384516 3416.970588235294 516.5996074824589 3396.029411764706 514.9659833917357 3375.0882352941176 527.0438985976282 3354.1470588235293 525.3024251103315 3333.205882352941 523.9562890822376 3312.264705882353 523.2798263552974 3291.323529411765 522.7674371524068 3270.3823529411766 522.2747415869658 3249.4411764705883 521.7061803820658 3228.5 521.4815581773842 3228.5 546.162084159149Z" fill="#55c0e9" opacity="0.9" />
		</g>
		<g>
			<path d="M3228.5 521.4815581773842 3249.4411764705883 521.7061803820658 3270.3823529411766 522.2747415869658 3291.323529411765 522.7674371524068 3312.264705882353 523.2798263552974 3333.205882352941 523.9562890822376 3354.1470588235293 525.3024251103315 3375.0882352941176 527.0438985976282 3396.029411764706 514.9659833917357 3416.970588235294 516.5996074824589 3437.9117647058824 518.1357144384516 3458.8529411764707 519.5911430965305 3479.794117647059 521.1207351787452 3500.735294117647 522.6767257917172 3521.676470588235 523.9349092321237 3542.6176470588234 525.3123672531278 3563.5588235294117 526.7914366981524 3584.5 527.9710368276562 3605.4411764705883 528.7702332186351 3626.3823529411766 529.9440403710025 3647.323529411765 531.3863925452272 3668.264705882353 532.8484801447386 3689.205882352941 534.3593851680338 3710.1470588235293 535.9474999414622 3731.0882352941176 537.4631522646897 3752.029411764706 538.7148538649283 3772.970588235294 539.7717503889384 3793.9117647058824 540.8290503164301 3814.8529411764707 433.3913361237896 3835.7941176470586 433.0084053536388 3856.735294117647 432.4754364071281 3877.676470588235 432.15561530771527 3898.6176470588234 431.97528739378606 3919.5588235294117 432.02029212049626 3940.5 431.96727576259724 3961.4411764705883 431.9405589448202 3982.3823529411766 431.9558731937295 4003.323529411765 431.9599475077045 4024.264705882353 431.93242137634724 4045.2058823529414 431.8659139096981 4066.1470588235293 431.84731630596053 4087.0882352941176 432.00359297169024 4108.029411764706 432.1329946808099 4128.970588235294 431.99440912392726 4149.911764705882 431.81676347027957 4170.85294117647 431.5247092372164 4191.794117647059 431.3401421096995 4212.735294117647 431.1686011749783 4233.676470588235 426.81320471249694 4254.617647058823 426.5518003809951 4275.558823529412 426.3120783472338 4296.5 426.1140510532148 4296.5 411.15507042479464 4275.558823529412 411.2715831935364 4254.617647058823 411.39453051492376 4233.676470588235 411.52533019336687 4212.735294117647 415.89173436048446 4191.794117647059 415.95861191477786 4170.85294117647 416.055066900616 4149.911764705882 416.2345639289736 4128.970588235294 416.4071449754411 4108.029411764706 416.47817812627426 4087.0882352941176 416.34836086389726 4066.1470588235293 416.1564242259188 4045.2058823529414 416.1235996870702 4024.264705882353 416.0562889706207 4003.323529411765 416.0954395000898 3982.3823529411766 416.0465069983401 3961.4411764705883 416.000160121671 3940.5 416.0062420628137 3919.5588235294117 416.05161909433286 3898.6176470588234 415.99893833884835 3877.676470588235 416.12431960001913 3856.735294117647 416.33420162951643 3835.7941176470586 416.71311285195446 3814.8529411764707 416.98069451994184 3793.9117647058824 523.7363657522843 3772.970588235294 522.5716439040438 3752.029411764706 521.4074163425901 3731.0882352941176 520.0402408469882 3710.1470588235293 518.4759534407176 3689.205882352941 516.9133817380589 3668.264705882353 515.447116697529 3647.323529411765 514.0614365046936 3626.3823529411766 512.7024056997157 3605.4411764705883 511.5800205959148 3584.5 510.82918253556556 3563.5588235294117 509.7179568015223 3542.6176470588234 508.3175496659528 3521.676470588235 507.0170454704227 3500.735294117647 505.81218353227047 3479.794117647059 504.3173344906431 3458.8529411764707 502.8338970689489 3437.9117647058824 501.4426511937707 3416.970588235294 499.97387766322737 3396.029411764706 498.4242329984132 3375.0882352941176 510.99365573350235 3354.1470588235293 509.31973026750774 3333.205882352941 508.0481610967102 3312.264705882353 507.46130800445246 3291.323529411765 507.0233752398185 3270.3823529411766 506.60822161328986 3249.4411764705883 506.1065487459215 3228.5 505.9043627233751 3228.5 521.4815581773842Z" fill="#f6a118" opacity="0.9" />
		</g>
		<g>
			<path d="M3228.5 505.9043627233751 3249.4411764705883 506.1065487459215 3270.3823529411766 506.60822161328986 3291.323529411765 507.0233752398185 3312.264705882353 507.46130800445246 3333.205882352941 508.0481610967102 3354.1470588235293 509.31973026750774 3375.0882352941176 510.99365573350235 3396.029411764706 498.4242329984132 3416.970588235294 499.97387766322737 3437.9117647058824 501.4426511937707 3458.8529411764707 502.8338970689489 3479.794117647059 504.3173344906431 3500.735294117647 505.81218353227047 3521.676470588235 507.0170454704227 3542.6176470588234 508.3175496659528 3563.5588235294117 509.7179568015223 3584.5 510.82918253556556 3605.4411764705883 511.5800205959148 3626.3823529411766 512.7024056997157 3647.323529411765 514.0614365046936 3668.264705882353 515.447116697529 3689.205882352941 516.9133817380589 3710.1470588235293 518.4759534407176 3731.0882352941176 520.0402408469882 3752.029411764706 521.4074163425901 3772.970588235294 522.5716439040438 3793.9117647058824 523.7363657522843 3814.8529411764707 416.98069451994184 3835.7941176470586 416.71311285195446 3856.735294117647 416.33420162951643 3877.676470588235 416.12431960001913 3898.6176470588234 415.99893833884835 3919.5588235294117 416.05161909433286 3940.5 416.0062420628137 3961.4411764705883 416.000160121671 3982.3823529411766 416.0465069983401 4003.323529411765 416.0954395000898 4024.264705882353 416.0562889706207 4045.2058823529414 416.1235996870702 4066.1470588235293 416.1564242259188 4087.0882352941176 416.34836086389726 4108.029411764706 416.47817812627426 4128.970588235294 416.4071449754411 4149.911764705882 416.2345639289736 4170.85294117647 416.055066900616 4191.794117647059 415.95861191477786 4212.735294117647 415.89173436048446 4233.676470588235 411.52533019336687 4254.617647058823 411.39453051492376 4275.558823529412 411.2715831935364 4296.5 411.15507042479464 4296.5 402.264400535425 4275.558823529412 402.2771754039698 4254.617647058823 402.3026796088189 4233.676470588235 402.31237144781545 4212.735294117647 406.6903311154683 4191.794117647059 406.6504534424193 4170.85294117647 406.63653513437157 4149.911764705882 406.73881659701254 4128.970588235294 406.7913155812626 4108.029411764706 406.7895314471883 4087.0882352941176 406.7538978821639 4066.1470588235293 406.6419996355151 4045.2058823529414 406.66475151485594 4024.264705882353 406.64954838762975 4003.323529411765 406.6900606081659 3982.3823529411766 406.67423043388266 3961.4411764705883 406.6442240275461 3940.5 406.6769627823681 3919.5588235294117 406.7486576922467 3898.6176470588234 406.88204596503937 3877.676470588235 407.2984950463532 3856.735294117647 407.42058087187377 3835.7941176470586 407.6496849699309 3814.8529411764707 407.85452807822685 3793.9117647058824 510.457001187623 3772.970588235294 509.25430348013276 3752.029411764706 508.03326088042445 3731.0882352941176 506.6178498444704 3710.1470588235293 505.0214210075742 3689.205882352941 503.4488995208447 3668.264705882353 501.99414638500895 3647.323529411765 500.6747796739521 3626.3823529411766 499.3250304832202 3605.4411764705883 498.1994618351249 3584.5 497.43345523107604 3563.5588235294117 496.34925589643314 3542.6176470588234 495.0253467220932 3521.676470588235 493.7905717710478 3500.735294117647 492.5921558346354 3479.794117647059 491.08339968159794 3458.8529411764707 489.589994805443 3437.9117647058824 488.205911277506 3416.970588235294 486.75823132244886 3396.029411764706 485.3927174126073 3375.0882352941176 498.4720025363811 3354.1470588235293 497.0382614705632 3333.205882352941 495.82345643600064 3312.264705882353 495.20191899296304 3291.323529411765 494.71994133496287 3270.3823529411766 494.25306019687616 3249.4411764705883 493.7747398235285 3228.5 493.46369672124194 3228.5 505.9043627233751Z" fill="#fdd5a4" opacity="0.9" />
		</g>
		<g>
			<path d="M3228.5 493.46369672124194 3249.4411764705883 493.7747398235285 3270.3823529411766 494.25306019687616 3291.323529411765 494.71994133496287 3312.264705882353 495.20191899296304 3333.205882352941 495.82345643600064 3354.1470588235293 497.0382614705632 3375.0882352941176 498.4720025363811 3396.029411764706 485.3927174126073 3416.970588235294 486.75823132244886 3437.9117647058824 488.205911277506 3458.8529411764707 489.589994805443 3479.794117647059 491.08339968159794 3500.735294117647 492.5921558346354 3521.676470588235 493.7905717710478 3542.6176470588234 495.0253467220932 3563.5588235294117 496.34925589643314 3584.5 497.43345523107604 3605.4411764705883 498.1994618351249 3626.3823529411766 499.3250304832202 3647.323529411765 500.6747796739521 3668.264705882353 501.99414638500895 3689.205882352941 503.4488995208447 3710.1470588235293 505.0214210075742 3731.0882352941176 506.6178498444704 3752.029411764706 508.03326088042445 3772.970588235294 509.25430348013276 3793.9117647058824 510.457001187623 3814.8529411764707 407.85452807822685 3835.7941176470586 407.6496849699309 3856.735294117647 407.42058087187377 3877.676470588235 407.2984950463532 3898.6176470588234 406.88204596503937 3919.5588235294117 406.7486576922467 3940.5 406.6769627823681 3961.4411764705883 406.6442240275461 3982.3823529411766 406.67423043388266 4003.323529411765 406.6900606081659 4024.264705882353 406.64954838762975 4045.2058823529414 406.66475151485594 4066.1470588235293 406.6419996355151 4087.0882352941176 406.7538978821639 4108.029411764706 406.7895314471883 4128.970588235294 406.7913155812626 4149.911764705882 406.73881659701254 4170.85294117647 406.63653513437157 4191.794117647059 406.6504534424193 4212.735294117647 406.6903311154683 4233.676470588235 402.31237144781545 4254.617647058823 402.3026796088189 4275.558823529412 402.2771754039698 4296.5 402.264400535425 4296.5 398 4275.558823529412 397.99999999999994 4254.617647058823 398 4233.676470588235 397.99999999999994 4212.735294117647 398 4191.794117647059 398 4170.85294117647 398 4149.911764705882 398.0000000000001 4128.970588235294 398.00000000000006 4108.029411764706 398 4087.0882352941176 398 4066.1470588235293 398 4045.2058823529414 398 4024.264705882353 397.99999999999994 4003.323529411765 398 3982.3823529411766 398.0000000000001 3961.4411764705883 398.00000000000006 3940.5 398 3919.5588235294117 397.9999999999999 3898.6176470588234 398 3877.676470588235 397.99999999999994 3856.735294117647 398.0000000000001 3835.7941176470586 397.99999999999994 3814.8529411764707 398.00000000000006 3793.9117647058824 398 3772.970588235294 397.9999999999999 3752.029411764706 398 3731.0882352941176 397.99999999999983 3710.1470588235293 398.0000000000001 3689.205882352941 397.99999999999994 3668.264705882353 397.9999999999999 3647.323529411765 398.0000000000001 3626.3823529411766 398 3605.4411764705883 397.9999999999999 3584.5 397.99999999999994 3563.5588235294117 398.00000000000006 3542.6176470588234 398.00000000000006 3521.676470588235 398 3500.735294117647 397.9999999999999 3479.794117647059 398 3458.8529411764707 397.9999999999999 3437.9117647058824 397.9999999999999 3416.970588235294 398.00000000000006 3396.029411764706 398 3375.0882352941176 398 3354.1470588235293 397.9999999999999 3333.205882352941 398.0000000000001 3312.264705882353 397.9999999999999 3291.323529411765 398 3270.3823529411766 398 3249.4411764705883 397.99999999999994 3228.5 398 3228.5 493.46369672124194Z" fill="#393d41" opacity="0.9" />
		</g>
		<g>
			<rect x="4372" y="431" width="22.9995" height="23" fill="#e62d39" />
		</g>
		<g>
			<text fill="#595959" font-family="Verdana,sans-serif" font-weight="400" font-size="41" transform="matrix(1 0 0 1 4404.56 454)">Smartphone</text>
		</g>
		<g>
			<rect x="4372" y="508" width="22.9995" height="23" fill="#005aa6" />
		</g>
		<g>
			<text fill="#595959" font-family="Verdana,sans-serif" font-weight="400" font-size="41" transform="matrix(1 0 0 1 4404.56 531)">Desktop</text>
		</g>
		<g>
			<rect x="4372" y="585" width="22.9995" height="23" fill="#55c0e9" />
		</g>
		<g>
			<text fill="#595959" font-family="Verdana,sans-serif" font-weight="400" font-size="41" transform="matrix(1 0 0 1 4404.56 608)">Other</text>
		</g>
		<g>
			<rect x="4372" y="662" width="22.9995" height="23" fill="#f6a118" />
		</g>
		<g>
			<text fill="#595959" font-family="Verdana,sans-serif" font-weight="400" font-size="41" transform="matrix(1 0 0 1 4404.56 685)">Tablet</text>
		</g>
		<g>
			<rect x="4372" y="739" width="22.9995" height="23" fill="#fdd5a4" />
		</g>
		<g>
			<text fill="#595959" font-family="Verdana,sans-serif" font-weight="400" font-size="41" transform="matrix(1 0 0 1 4404.56 762)">Tv</text>
		</g>
		<g>
			<rect x="4372" y="816" width="22.9995" height="23" fill="#393d41" />
		</g>
		<g>
			<text fill="#595959" font-family="Verdana,sans-serif" font-weight="400" font-size="41" transform="matrix(1 0 0 1 4404.56 839)">Unclassified</text>
		</g>
	</g>
</svg>
