<svg width="1763" height="1046"
    xmlns="http://www.w3.org/2000/svg"
	xmlns:xlink="http://www.w3.org/1999/xlink" xml:space="preserve" overflow="hidden">
	<defs>
		<clipPath id="clip0">
			<rect x="2917" y="346" width="1763" height="1046"/>
		</clipPath>
	</defs>
	<g clip-path="url(#clip0)" transform="translate(-2917 -346)">
		<rect x="2918" y="347" width="1760" height="1043" fill="#FFFFFF" />
		<g>
			<path d="
			M3228.5 974.532 4296.5 974.532
			M3228.5 910.53 4296.5 910.53
			M3228.5 846.528 4296.5 846.528
			M3228.5 781.526 4296.5 781.526
			M3228.5 717.524 4296.5 717.524
			M3228.5 653.522 4296.5 653.522
			M3228.5 589.52 4296.5 589.52
			M3228.5 525.517 4296.5 525.517
			M3228.5 461.515 4296.5 461.515
			M3228.5 397.5 4296.5 397.5" stroke="#D9D9D9" stroke-width="3.4375" stroke-linejoin="round" stroke-miterlimit="10" fill="none" />
		</g>
		<g>
			<path d="M 1038.5 4296.5 1038.5" stroke="#D9D9D9" stroke-width="3.4375" stroke-linejoin="round" stroke-miterlimit="10" fill="none" fill-rule="evenodd" />
		</g>
		<g>
			<text fill="#595959" font-family="Verdana,sans-serif" font-weight="400" font-size="41" transform="matrix(6.12323e-17 -1 1 6.12323e-17 3244.5 1216)">26-Feb</text>
		</g>
		<g>
			<text fill="#595959" font-family="Verdana,sans-serif" font-weight="400" font-size="41" transform="matrix(6.12323e-17 -1 1 6.12323e-17 3328.264705882353 1223)">25-Mar</text>
		</g>
		<g>
			<text fill="#595959" font-family="Verdana,sans-serif" font-weight="400" font-size="41" transform="matrix(6.12323e-17 -1 1 6.12323e-17 3415.529411764706 1216)">22-Apr</text>
		</g>
		<g>
			<text fill="#595959" font-family="Verdana,sans-serif" font-weight="400" font-size="41" transform="matrix(6.12323e-17 -1 1 6.12323e-17 3499.294117647059 1228)">20-May</text>
		</g>
		<g>
			<text fill="#595959" font-family="Verdana,sans-serif" font-weight="400" font-size="41" transform="matrix(6.12323e-17 -1 1 6.12323e-17 3579.0588235294117 1209)">17-Jun</text>
		</g>
		<g>
			<text fill="#595959" font-family="Verdana,sans-serif" font-weight="400" font-size="41" transform="matrix(6.12323e-17 -1 1 6.12323e-17 3663.323529411765 1194)">15-Jul</text>
		</g>
		<g>
			<text fill="#595959" font-family="Verdana,sans-serif" font-weight="400" font-size="41" transform="matrix(6.12323e-17 -1 1 6.12323e-17 3750.5882352941176 1218)">12-Aug</text>
		</g>
		<g>
			<text fill="#595959" font-family="Verdana,sans-serif" font-weight="400" font-size="41" transform="matrix(6.12323e-17 -1 1 6.12323e-17 3834.3529411764707 1222)">09-Sep</text>
		</g>
		<g>
			<text fill="#595959" font-family="Verdana,sans-serif" font-weight="400" font-size="41" transform="matrix(6.12323e-17 -1 1 6.12323e-17 3914.6176470588234 1215)">07-Oct</text>
		</g>
		<g>
			<text fill="#595959" font-family="Verdana,sans-serif" font-weight="400" font-size="41" transform="matrix(6.12323e-17 -1 1 6.12323e-17 3998.3823529411766 1225)">04-Nov</text>
		</g>
		<g>
			<text fill="#595959" font-family="Verdana,sans-serif" font-weight="400" font-size="41" transform="matrix(6.12323e-17 -1 1 6.12323e-17 4082.1470588235293 1223)">09-Dec</text>
		</g>
		<g>
			<text fill="#595959" font-family="Verdana,sans-serif" font-weight="400" font-size="41" transform="matrix(6.12323e-17 -1 1 6.12323e-17 4165.911764705882 1210)">06-Jan</text>
		</g>
		<g>
			<text fill="#595959" font-family="Verdana,sans-serif" font-weight="400" font-size="41" transform="matrix(6.12323e-17 -1 1 6.12323e-17 4249.676470588235 1217)">03-Feb</text>
		</g>
		<g>
			<text fill="#595959" font-family="Verdana,sans-serif" font-weight="400" font-size="41" transform="matrix(1 0 0 1 3123.5 1050)">0%</text>
		</g>
		<g>
			<text fill="#595959" font-family="Verdana,sans-serif" font-weight="400" font-size="41" transform="matrix(1 0 0 1 3097.5 922)">20%</text>
		</g>
		<g>
			<text fill="#595959" font-family="Verdana,sans-serif" font-weight="400" font-size="41" transform="matrix(1 0 0 1 3096.5 794)">40%</text>
		</g>
		<g>
			<text fill="#595959" font-family="Verdana,sans-serif" font-weight="400" font-size="41" transform="matrix(1 0 0 1 3097.5 666)">60%</text>
		</g>
		<g>
			<text fill="#595959" font-family="Verdana,sans-serif" font-weight="400" font-size="41" transform="matrix(1 0 0 1 3097.5 538)">80%</text>
		</g>
		<g>
			<text fill="#595959" font-family="Verdana,sans-serif" font-weight="400" font-size="41" transform="matrix(1 0 0 1 3074.5 410)">100%</text>
		</g>
		<g>
			<text fill="#595959" font-family="Verdana,sans-serif" font-weight="400" font-size="41" transform="matrix(1 0 0 1 3544.5 1321)">Week Commencing</text>
		</g>
		<g>
			<text fill="#595959" font-family="Verdana,sans-serif" font-weight="400" font-size="46" transform="matrix(6.12323e-17 -1 1 6.12323e-17 3019.73 965.25)">Requests (% of Total)</text>
		</g>
		<rect x="2918.5" y="347.5" width="1760" height="1043" stroke="#D9D9D9" stroke-width="3.4375" stroke-linejoin="round" stroke-miterlimit="10" fill="none" />
		<g>
			<path d="M3228.5 1038 3249.4411764705883 1038 3270.3823529411766 1038 3291.323529411765 1038 3312.264705882353 1038 3333.205882352941 1038 3354.1470588235293 1038 3375.0882352941176 1038 3396.029411764706 1038 3416.970588235294 1038 3437.9117647058824 1038 3458.8529411764707 1038 3479.794117647059 1038 3500.735294117647 1038 3521.676470588235 1038 3542.6176470588234 1038 3563.5588235294117 1038 3584.5 1038 3605.4411764705883 1038 3626.3823529411766 1038 3647.323529411765 1038 3668.264705882353 1038 3689.205882352941 1038 3710.1470588235293 1038 3731.0882352941176 1038 3752.029411764706 1038 3772.970588235294 1038 3793.9117647058824 1038 3814.8529411764707 1038 3835.7941176470586 1038 3856.735294117647 1038 3877.676470588235 1038 3898.6176470588234 1038 3919.5588235294117 1038 3940.5 1038 3961.4411764705883 1038 3982.3823529411766 1038 4003.323529411765 1038 4024.264705882353 1038 4045.2058823529414 1038 4066.1470588235293 1038 4087.0882352941176 1038 4108.029411764706 1038 4128.970588235294 1038 4149.911764705882 1038 4170.85294117647 1038 4191.794117647059 1038 4212.735294117647 1038 4233.676470588235 1038 4254.617647058823 1038 4275.558823529412 1038 4296.5 1038 4296.5 533.7756525096236 4275.558823529412 533.8956466575289 4254.617647058823 533.9572095457534 4233.676470588235 533.4841990448925 4212.735294117647 533.4528010722697 4191.794117647059 533.722746014736 4170.85294117647 533.7853664259474 4149.911764705882 533.8294455926118 4128.970588235294 533.7499584959044 4108.029411764706 533.5577242345337 4087.0882352941176 533.3794235575219 4066.1470588235293 533.1839579715512 4045.2058823529414 532.7385960569093 4024.264705882353 532.9945218339117 4003.323529411765 533.5883597667535 3982.3823529411766 534.4892592748513 3961.4411764705883 535.2648007319358 3940.5 642.4592997578948 3919.5588235294117 641.7348258019537 3898.6176470588234 641.0274072878076 3877.676470588235 640.0328656683237 3856.735294117647 638.7439704461906 3835.7941176470586 637.5953366301156 3814.8529411764707 636.388984334016 3793.9117647058824 635.2830954215428 3772.970588235294 634.2801376637599 3752.029411764706 633.5123019251453 3731.0882352941176 632.703376074059 3710.1470588235293 631.9415100696045 3689.205882352941 630.857109120077 3668.264705882353 629.6835942752446 3647.323529411765 628.7570391925642 3626.3823529411766 627.5176878063296 3605.4411764705883 626.3963136974012 3584.5 625.2428890685153 3563.5588235294117 624.0667377001988 3542.6176470588234 622.80172023452 3521.676470588235 632.4054355541638 3500.735294117647 630.9533026623258 3479.794117647059 630.0731822124889 3458.8529411764707 629.6411395703622 3437.9117647058824 629.3637077507597 3416.970588235294 629.112232069277 3396.029411764706 628.7712194186788 3375.0882352941176 629.1405060461395 3354.1470588235293 630.4544284738802 3333.205882352941 631.6183228637996 3312.264705882353 647.4118241208081 3291.323529411765 648.3895796632379 3270.3823529411766 621.5001438018157 3249.4411764705883 620.7479883324611 3228.5 618.9772962489769 3228.5 1038Z" fill="#e62d39" opacity="0.9" />
		</g>
		<g>
			<path d="M3228.5 618.9772962489769 3249.4411764705883 620.7479883324611 3270.3823529411766 621.5001438018157 3291.323529411765 648.3895796632379 3312.264705882353 647.4118241208081 3333.205882352941 631.6183228637996 3354.1470588235293 630.4544284738802 3375.0882352941176 629.1405060461395 3396.029411764706 628.7712194186788 3416.970588235294 629.112232069277 3437.9117647058824 629.3637077507597 3458.8529411764707 629.6411395703622 3479.794117647059 630.0731822124889 3500.735294117647 630.9533026623258 3521.676470588235 632.4054355541638 3542.6176470588234 622.80172023452 3563.5588235294117 624.0667377001988 3584.5 625.2428890685153 3605.4411764705883 626.3963136974012 3626.3823529411766 627.5176878063296 3647.323529411765 628.7570391925642 3668.264705882353 629.6835942752446 3689.205882352941 630.857109120077 3710.1470588235293 631.9415100696045 3731.0882352941176 632.703376074059 3752.029411764706 633.5123019251453 3772.970588235294 634.2801376637599 3793.9117647058824 635.2830954215428 3814.8529411764707 636.388984334016 3835.7941176470586 637.5953366301156 3856.735294117647 638.7439704461906 3877.676470588235 640.0328656683237 3898.6176470588234 641.0274072878076 3919.5588235294117 641.7348258019537 3940.5 642.4592997578948 3961.4411764705883 535.2648007319358 3982.3823529411766 534.4892592748513 4003.323529411765 533.5883597667535 4024.264705882353 532.9945218339117 4045.2058823529414 532.7385960569093 4066.1470588235293 533.1839579715512 4087.0882352941176 533.3794235575219 4108.029411764706 533.5577242345337 4128.970588235294 533.7499584959044 4149.911764705882 533.8294455926118 4170.85294117647 533.7853664259474 4191.794117647059 533.722746014736 4212.735294117647 533.4528010722697 4233.676470588235 533.4841990448925 4254.617647058823 533.9572095457534 4275.558823529412 533.8956466575289 4296.5 533.7756525096236 4296.5 447.7812344269998 4275.558823529412 447.9735867247491 4254.617647058823 448.11744019003095 4233.676470588235 447.90712750570685 4212.735294117647 447.65114758474357 4191.794117647059 447.63691579979616 4170.85294117647 447.6548818464415 4149.911764705882 447.68514400974766 4128.970588235294 447.6730658977694 4108.029411764706 447.6266609249292 4087.0882352941176 447.6323779302626 4066.1470588235293 447.6574339250563 4045.2058823529414 447.5983732210459 4024.264705882353 447.82372841614773 4003.323529411765 448.23400972704667 3982.3823529411766 448.85972838125235 3961.4411764705883 449.3446349967366 3940.5 564.013087594675 3919.5588235294117 563.0569322713101 3898.6176470588234 562.1201699126104 3877.676470588235 560.9592369816268 3856.735294117647 559.5178863272408 3835.7941176470586 558.0421991553968 3814.8529411764707 556.6183211021491 3793.9117647058824 555.218566955861 3772.970588235294 553.8747604661306 3752.029411764706 552.795294537007 3731.0882352941176 551.5476668303065 3710.1470588235293 550.4510715595417 3689.205882352941 549.056064697407 3668.264705882353 547.7069248917836 3647.323529411765 546.4892681197156 3626.3823529411766 545.0068552240035 3605.4411764705883 543.5872074138473 3584.5 542.2071477253921 3563.5588235294117 540.7523658360859 3542.6176470588234 539.1846046453284 3521.676470588235 550.69398337688 3500.735294117647 549.0305649530324 3479.794117647059 547.8419869340069 3458.8529411764707 547.2972215888882 3437.9117647058824 546.9206806705122 3416.970588235294 546.5765460991323 3396.029411764706 546.1401156456737 3375.0882352941176 546.162084159149 3354.1470588235293 547.0193242259644 3333.205882352941 547.5943073684911 3312.264705882353 565.6397555577983 3291.323529411765 566.0005705781988 3270.3823529411766 541.8846686674905 3249.4411764705883 541.0539314470215 3228.5 539.8778029714027 3228.5 618.9772962489769Z" fill="#005aa6" opacity="0.9" />
		</g>
		<g>
			<path d="M3228.5 539.8778029714027 3249.4411764705883 541.0539314470215 3270.3823529411766 541.8846686674905 3291.323529411765 566.0005705781988 3312.264705882353 565.6397555577983 3333.205882352941 547.5943073684911 3354.1470588235293 547.0193242259644 3375.0882352941176 546.162084159149 3396.029411764706 546.1401156456737 3416.970588235294 546.5765460991323 3437.9117647058824 546.9206806705122 3458.8529411764707 547.2972215888882 3479.794117647059 547.8419869340069 3500.735294117647 549.0305649530324 3521.676470588235 550.69398337688 3542.6176470588234 539.1846046453284 3563.5588235294117 540.7523658360859 3584.5 542.2071477253921 3605.4411764705883 543.5872074138473 3626.3823529411766 545.0068552240035 3647.323529411765 546.4892681197156 3668.264705882353 547.7069248917836 3689.205882352941 549.056064697407 3710.1470588235293 550.4510715595417 3731.0882352941176 551.5476668303065 3752.029411764706 552.795294537007 3772.970588235294 553.8747604661306 3793.9117647058824 555.218566955861 3814.8529411764707 556.6183211021491 3835.7941176470586 558.0421991553968 3856.735294117647 559.5178863272408 3877.676470588235 560.9592369816268 3898.6176470588234 562.1201699126104 3919.5588235294117 563.0569322713101 3940.5 564.013087594675 3961.4411764705883 449.3446349967366 3982.3823529411766 448.85972838125235 4003.323529411765 448.23400972704667 4024.264705882353 447.82372841614773 4045.2058823529414 447.5983732210459 4066.1470588235293 447.6574339250563 4087.0882352941176 447.6323779302626 4108.029411764706 447.6266609249292 4128.970588235294 447.6730658977694 4149.911764705882 447.68514400974766 4170.85294117647 447.6548818464415 4191.794117647059 447.63691579979616 4212.735294117647 447.65114758474357 4233.676470588235 447.90712750570685 4254.617647058823 448.11744019003095 4275.558823529412 447.9735867247491 4296.5 447.7812344269998 4296.5 431.81676347027957 4275.558823529412 431.99440912392726 4254.617647058823 432.1329946808099 4233.676470588235 432.00359297169024 4212.735294117647 431.84731630596053 4191.794117647059 431.8659139096981 4170.85294117647 431.93242137634724 4149.911764705882 431.9599475077045 4128.970588235294 431.9558731937295 4108.029411764706 431.9405589448202 4087.0882352941176 431.96727576259724 4066.1470588235293 432.02029212049626 4045.2058823529414 431.97528739378606 4024.264705882353 432.15561530771527 4003.323529411765 432.4754364071281 3982.3823529411766 433.0084053536388 3961.4411764705883 433.3913361237896 3940.5 540.8290503164301 3919.5588235294117 539.7717503889384 3898.6176470588234 538.7148538649283 3877.676470588235 537.4631522646897 3856.735294117647 535.9474999414622 3835.7941176470586 534.3593851680338 3814.8529411764707 532.8484801447386 3793.9117647058824 531.3863925452272 3772.970588235294 529.9440403710025 3752.029411764706 528.7702332186351 3731.0882352941176 527.9710368276562 3710.1470588235293 526.7914366981524 3689.205882352941 525.3123672531278 3668.264705882353 523.9349092321237 3647.323529411765 522.6767257917172 3626.3823529411766 521.1207351787452 3605.4411764705883 519.5911430965305 3584.5 518.1357144384516 3563.5588235294117 516.5996074824589 3542.6176470588234 514.9659833917357 3521.676470588235 527.0438985976282 3500.735294117647 525.3024251103315 3479.794117647059 523.9562890822376 3458.8529411764707 523.2798263552974 3437.9117647058824 522.7674371524068 3416.970588235294 522.2747415869658 3396.029411764706 521.7061803820658 3375.0882352941176 521.4815581773842 3354.1470588235293 522.0175391594702 3333.205882352941 522.2390966744398 3312.264705882353 540.7792433621357 3291.323529411765 540.7347903265445 3270.3823529411766 520.8422961076436 3249.4411764705883 519.941244366186 3228.5 518.8725186340012 3228.5 539.8778029714027Z" fill="#55c0e9" opacity="0.9" />
		</g>
		<g>
			<path d="M3228.5 518.8725186340012 3249.4411764705883 519.941244366186 3270.3823529411766 520.8422961076436 3291.323529411765 540.7347903265445 3312.264705882353 540.7792433621357 3333.205882352941 522.2390966744398 3354.1470588235293 522.0175391594702 3375.0882352941176 521.4815581773842 3396.029411764706 521.7061803820658 3416.970588235294 522.2747415869658 3437.9117647058824 522.7674371524068 3458.8529411764707 523.2798263552974 3479.794117647059 523.9562890822376 3500.735294117647 525.3024251103315 3521.676470588235 527.0438985976282 3542.6176470588234 514.9659833917357 3563.5588235294117 516.5996074824589 3584.5 518.1357144384516 3605.4411764705883 519.5911430965305 3626.3823529411766 521.1207351787452 3647.323529411765 522.6767257917172 3668.264705882353 523.9349092321237 3689.205882352941 525.3123672531278 3710.1470588235293 526.7914366981524 3731.0882352941176 527.9710368276562 3752.029411764706 528.7702332186351 3772.970588235294 529.9440403710025 3793.9117647058824 531.3863925452272 3814.8529411764707 532.8484801447386 3835.7941176470586 534.3593851680338 3856.735294117647 535.9474999414622 3877.676470588235 537.4631522646897 3898.6176470588234 538.7148538649283 3919.5588235294117 539.7717503889384 3940.5 540.8290503164301 3961.4411764705883 433.3913361237896 3982.3823529411766 433.0084053536388 4003.323529411765 432.4754364071281 4024.264705882353 432.15561530771527 4045.2058823529414 431.97528739378606 4066.1470588235293 432.02029212049626 4087.0882352941176 431.96727576259724 4108.029411764706 431.9405589448202 4128.970588235294 431.9558731937295 4149.911764705882 431.9599475077045 4170.85294117647 431.93242137634724 4191.794117647059 431.8659139096981 4212.735294117647 431.84731630596053 4233.676470588235 432.00359297169024 4254.617647058823 432.1329946808099 4275.558823529412 431.99440912392726 4296.5 431.81676347027957 4296.5 416.2345639289736 4275.558823529412 416.4071449754411 4254.617647058823 416.47817812627426 4233.676470588235 416.34836086389726 4212.735294117647 416.1564242259188 4191.794117647059 416.1235996870702 4170.85294117647 416.0562889706207 4149.911764705882 416.0954395000898 4128.970588235294 416.0465069983401 4108.029411764706 416.000160121671 4087.0882352941176 416.0062420628137 4066.1470588235293 416.05161909433286 4045.2058823529414 415.99893833884835 4024.264705882353 416.12431960001913 4003.323529411765 416.33420162951643 3982.3823529411766 416.71311285195446 3961.4411764705883 416.98069451994184 3940.5 523.7363657522843 3919.5588235294117 522.5716439040438 3898.6176470588234 521.4074163425901 3877.676470588235 520.0402408469882 3856.735294117647 518.4759534407176 3835.7941176470586 516.9133817380589 3814.8529411764707 515.447116697529 3793.9117647058824 514.0614365046936 3772.970588235294 512.7024056997157 3752.029411764706 511.5800205959148 3731.0882352941176 510.82918253556556 3710.1470588235293 509.7179568015223 3689.205882352941 508.3175496659528 3668.264705882353 507.0170454704227 3647.323529411765 505.81218353227047 3626.3823529411766 504.3173344906431 3605.4411764705883 502.8338970689489 3584.5 501.4426511937707 3563.5588235294117 499.97387766322737 3542.6176470588234 498.4242329984132 3521.676470588235 510.99365573350235 3500.735294117647 509.31973026750774 3479.794117647059 508.0481610967102 3458.8529411764707 507.46130800445246 3437.9117647058824 507.0233752398185 3416.970588235294 506.60822161328986 3396.029411764706 506.1065487459215 3375.0882352941176 505.9043627233751 3354.1470588235293 506.4216643610348 3333.205882352941 506.6484163233015 3312.264705882353 525.7580510881946 3291.323529411765 525.7315703546495 3270.3823529411766 502.94320923041516 3249.4411764705883 502.107038956447 3228.5 501.18268987180403 3228.5 518.8725186340012Z" fill="#f6a118" opacity="0.9" />
		</g>
		<g>
			<path d="M3228.5 501.18268987180403 3249.4411764705883 502.107038956447 3270.3823529411766 502.94320923041516 3291.323529411765 525.7315703546495 3312.264705882353 525.7580510881946 3333.205882352941 506.6484163233015 3354.1470588235293 506.4216643610348 3375.0882352941176 505.9043627233751 3396.029411764706 506.1065487459215 3416.970588235294 506.60822161328986 3437.9117647058824 507.0233752398185 3458.8529411764707 507.46130800445246 3479.794117647059 508.0481610967102 3500.735294117647 509.31973026750774 3521.676470588235 510.99365573350235 3542.6176470588234 498.4242329984132 3563.5588235294117 499.97387766322737 3584.5 501.4426511937707 3605.4411764705883 502.8338970689489 3626.3823529411766 504.3173344906431 3647.323529411765 505.81218353227047 3668.264705882353 507.0170454704227 3689.205882352941 508.3175496659528 3710.1470588235293 509.7179568015223 3731.0882352941176 510.82918253556556 3752.029411764706 511.5800205959148 3772.970588235294 512.7024056997157 3793.9117647058824 514.0614365046936 3814.8529411764707 515.447116697529 3835.7941176470586 516.9133817380589 3856.735294117647 518.4759534407176 3877.676470588235 520.0402408469882 3898.6176470588234 521.4074163425901 3919.5588235294117 522.5716439040438 3940.5 523.7363657522843 3961.4411764705883 416.98069451994184 3982.3823529411766 416.71311285195446 4003.323529411765 416.33420162951643 4024.264705882353 416.12431960001913 4045.2058823529414 415.99893833884835 4066.1470588235293 416.05161909433286 4087.0882352941176 416.0062420628137 4108.029411764706 416.000160121671 4128.970588235294 416.0465069983401 4149.911764705882 416.0954395000898 4170.85294117647 416.0562889706207 4191.794117647059 416.1235996870702 4212.735294117647 416.1564242259188 4233.676470588235 416.34836086389726 4254.617647058823 416.47817812627426 4275.558823529412 416.4071449754411 4296.5 416.2345639289736 4296.5 406.73881659701254 4275.558823529412 406.7913155812626 4254.617647058823 406.7895314471883 4233.676470588235 406.7538978821639 4212.735294117647 406.6419996355151 4191.794117647059 406.66475151485594 4170.85294117647 406.64954838762975 4149.911764705882 406.6900606081659 4128.970588235294 406.67423043388266 4108.029411764706 406.6442240275461 4087.0882352941176 406.6769627823681 4066.1470588235293 406.7486576922467 4045.2058823529414 406.88204596503937 4024.264705882353 407.2984950463532 4003.323529411765 407.42058087187377 3982.3823529411766 407.6496849699309 3961.4411764705883 407.85452807822685 3940.5 510.457001187623 3919.5588235294117 509.25430348013276 3898.6176470588234 508.03326088042445 3877.676470588235 506.6178498444704 3856.735294117647 505.0214210075742 3835.7941176470586 503.4488995208447 3814.8529411764707 501.99414638500895 3793.9117647058824 500.6747796739521 3772.970588235294 499.3250304832202 3752.029411764706 498.1994618351249 3731.0882352941176 497.43345523107604 3710.1470588235293 496.34925589643314 3689.205882352941 495.0253467220932 3668.264705882353 493.7905717710478 3647.323529411765 492.5921558346354 3626.3823529411766 491.08339968159794 3605.4411764705883 489.589994805443 3584.5 488.205911277506 3563.5588235294117 486.75823132244886 3542.6176470588234 485.3927174126073 3521.676470588235 498.4720025363811 3500.735294117647 497.0382614705632 3479.794117647059 495.82345643600064 3458.8529411764707 495.20191899296304 3437.9117647058824 494.71994133496287 3416.970588235294 494.25306019687616 3396.029411764706 493.7747398235285 3375.0882352941176 493.46369672124194 3354.1470588235293 493.7814105421057 3333.205882352941 493.8307143677906 3312.264705882353 513.2062038257327 3291.323529411765 513.0191600354991 3270.3823529411766 492.37221825805364 3249.4411764705883 491.90854325848505 3228.5 491.3515350353937 3228.5 501.18268987180403Z" fill="#fdd5a4" opacity="0.9" />
		</g>
		<g>
			<path d="M3228.5 491.3515350353937 3249.4411764705883 491.90854325848505 3270.3823529411766 492.37221825805364 3291.323529411765 513.0191600354991 3312.264705882353 513.2062038257327 3333.205882352941 493.8307143677906 3354.1470588235293 493.7814105421057 3375.0882352941176 493.46369672124194 3396.029411764706 493.7747398235285 3416.970588235294 494.25306019687616 3437.9117647058824 494.71994133496287 3458.8529411764707 495.20191899296304 3479.794117647059 495.82345643600064 3500.735294117647 497.0382614705632 3521.676470588235 498.4720025363811 3542.6176470588234 485.3927174126073 3563.5588235294117 486.75823132244886 3584.5 488.205911277506 3605.4411764705883 489.589994805443 3626.3823529411766 491.08339968159794 3647.323529411765 492.5921558346354 3668.264705882353 493.7905717710478 3689.205882352941 495.0253467220932 3710.1470588235293 496.34925589643314 3731.0882352941176 497.43345523107604 3752.029411764706 498.1994618351249 3772.970588235294 499.3250304832202 3793.9117647058824 500.6747796739521 3814.8529411764707 501.99414638500895 3835.7941176470586 503.4488995208447 3856.735294117647 505.0214210075742 3877.676470588235 506.6178498444704 3898.6176470588234 508.03326088042445 3919.5588235294117 509.25430348013276 3940.5 510.457001187623 3961.4411764705883 407.85452807822685 3982.3823529411766 407.6496849699309 4003.323529411765 407.42058087187377 4024.264705882353 407.2984950463532 4045.2058823529414 406.88204596503937 4066.1470588235293 406.7486576922467 4087.0882352941176 406.6769627823681 4108.029411764706 406.6442240275461 4128.970588235294 406.67423043388266 4149.911764705882 406.6900606081659 4170.85294117647 406.64954838762975 4191.794117647059 406.66475151485594 4212.735294117647 406.6419996355151 4233.676470588235 406.7538978821639 4254.617647058823 406.7895314471883 4275.558823529412 406.7913155812626 4296.5 406.73881659701254 4296.5 398.0000000000001 4275.558823529412 398.00000000000006 4254.617647058823 398 4233.676470588235 398 4212.735294117647 398 4191.794117647059 398 4170.85294117647 397.99999999999994 4149.911764705882 398 4128.970588235294 398.0000000000001 4108.029411764706 398.00000000000006 4087.0882352941176 398 4066.1470588235293 397.9999999999999 4045.2058823529414 398 4024.264705882353 397.99999999999994 4003.323529411765 398.0000000000001 3982.3823529411766 397.99999999999994 3961.4411764705883 398.00000000000006 3940.5 398 3919.5588235294117 397.9999999999999 3898.6176470588234 398 3877.676470588235 397.99999999999983 3856.735294117647 398.0000000000001 3835.7941176470586 397.99999999999994 3814.8529411764707 397.9999999999999 3793.9117647058824 398.0000000000001 3772.970588235294 398 3752.029411764706 397.9999999999999 3731.0882352941176 397.99999999999994 3710.1470588235293 398.00000000000006 3689.205882352941 398.00000000000006 3668.264705882353 398 3647.323529411765 397.9999999999999 3626.3823529411766 398 3605.4411764705883 397.9999999999999 3584.5 397.9999999999999 3563.5588235294117 398.00000000000006 3542.6176470588234 398 3521.676470588235 398 3500.735294117647 397.9999999999999 3479.794117647059 398.0000000000001 3458.8529411764707 397.9999999999999 3437.9117647058824 398 3416.970588235294 398 3396.029411764706 397.99999999999994 3375.0882352941176 398 3354.1470588235293 397.9999999999999 3333.205882352941 398.0000000000001 3312.264705882353 398.0000000000001 3291.323529411765 398 3270.3823529411766 397.9999999999999 3249.4411764705883 398.0000000000001 3228.5 398 3228.5 491.3515350353937Z" fill="#393d41" opacity="0.9" />
		</g>
		<g>
			<rect x="4372" y="431" width="22.9995" height="23" fill="#e62d39" />
		</g>
		<g>
			<text fill="#595959" font-family="Verdana,sans-serif" font-weight="400" font-size="41" transform="matrix(1 0 0 1 4404.56 454)">Smartphone</text>
		</g>
		<g>
			<rect x="4372" y="508" width="22.9995" height="23" fill="#005aa6" />
		</g>
		<g>
			<text fill="#595959" font-family="Verdana,sans-serif" font-weight="400" font-size="41" transform="matrix(1 0 0 1 4404.56 531)">Desktop</text>
		</g>
		<g>
			<rect x="4372" y="585" width="22.9995" height="23" fill="#55c0e9" />
		</g>
		<g>
			<text fill="#595959" font-family="Verdana,sans-serif" font-weight="400" font-size="41" transform="matrix(1 0 0 1 4404.56 608)">Other</text>
		</g>
		<g>
			<rect x="4372" y="662" width="22.9995" height="23" fill="#f6a118" />
		</g>
		<g>
			<text fill="#595959" font-family="Verdana,sans-serif" font-weight="400" font-size="41" transform="matrix(1 0 0 1 4404.56 685)">Tablet</text>
		</g>
		<g>
			<rect x="4372" y="739" width="22.9995" height="23" fill="#fdd5a4" />
		</g>
		<g>
			<text fill="#595959" font-family="Verdana,sans-serif" font-weight="400" font-size="41" transform="matrix(1 0 0 1 4404.56 762)">Tv</text>
		</g>
		<g>
			<rect x="4372" y="816" width="22.9995" height="23" fill="#393d41" />
		</g>
		<g>
			<text fill="#595959" font-family="Verdana,sans-serif" font-weight="400" font-size="41" transform="matrix(1 0 0 1 4404.56 839)">Unclassified</text>
		</g>
	</g>
</svg>
