<svg width="1763" height="1046"
    xmlns="http://www.w3.org/2000/svg"
	xmlns:xlink="http://www.w3.org/1999/xlink" xml:space="preserve" overflow="hidden">
	<defs>
		<clipPath id="clip0">
			<rect x="2917" y="346" width="1763" height="1046"/>
		</clipPath>
	</defs>
	<g clip-path="url(#clip0)" transform="translate(-2917 -346)">
		<rect x="2918" y="347" width="1760" height="1043" fill="#FFFFFF" />
		<g>
			<path d="
			M3228.5 974.532 4296.5 974.532
			M3228.5 910.53 4296.5 910.53
			M3228.5 846.528 4296.5 846.528
			M3228.5 781.526 4296.5 781.526
			M3228.5 717.524 4296.5 717.524
			M3228.5 653.522 4296.5 653.522
			M3228.5 589.52 4296.5 589.52
			M3228.5 525.517 4296.5 525.517
			M3228.5 461.515 4296.5 461.515
			M3228.5 397.5 4296.5 397.5" stroke="#D9D9D9" stroke-width="3.4375" stroke-linejoin="round" stroke-miterlimit="10" fill="none" />
		</g>
		<g>
			<path d="M 1038.5 4296.5 1038.5" stroke="#D9D9D9" stroke-width="3.4375" stroke-linejoin="round" stroke-miterlimit="10" fill="none" fill-rule="evenodd" />
		</g>
		<g>
			<text fill="#595959" font-family="Verdana,sans-serif" font-weight="400" font-size="41" transform="matrix(6.12323e-17 -1 1 6.12323e-17 3244.5 1227)">06-Nov</text>
		</g>
		<g>
			<text fill="#595959" font-family="Verdana,sans-serif" font-weight="400" font-size="41" transform="matrix(6.12323e-17 -1 1 6.12323e-17 3356.9210526315787 1226)">20-Nov</text>
		</g>
		<g>
			<text fill="#595959" font-family="Verdana,sans-serif" font-weight="400" font-size="41" transform="matrix(6.12323e-17 -1 1 6.12323e-17 3469.342105263158 1225)">04-Dec</text>
		</g>
		<g>
			<text fill="#595959" font-family="Verdana,sans-serif" font-weight="400" font-size="41" transform="matrix(6.12323e-17 -1 1 6.12323e-17 3581.7631578947367 1222)">18-Dec</text>
		</g>
		<g>
			<text fill="#595959" font-family="Verdana,sans-serif" font-weight="400" font-size="41" transform="matrix(6.12323e-17 -1 1 6.12323e-17 3694.184210526316 1212)">01-Jan</text>
		</g>
		<g>
			<text fill="#595959" font-family="Verdana,sans-serif" font-weight="400" font-size="41" transform="matrix(6.12323e-17 -1 1 6.12323e-17 3806.1052631578946 1209)">15-Jan</text>
		</g>
		<g>
			<text fill="#595959" font-family="Verdana,sans-serif" font-weight="400" font-size="41" transform="matrix(6.12323e-17 -1 1 6.12323e-17 3919.0263157894738 1211)">29-Jan</text>
		</g>
		<g>
			<text fill="#595959" font-family="Verdana,sans-serif" font-weight="400" font-size="41" transform="matrix(6.12323e-17 -1 1 6.12323e-17 4031.4473684210525 1216)">12-Feb</text>
		</g>
		<g>
			<text fill="#595959" font-family="Verdana,sans-serif" font-weight="400" font-size="41" transform="matrix(6.12323e-17 -1 1 6.12323e-17 4143.868421052632 1218)">26-Feb</text>
		</g>
		<g>
			<text fill="#595959" font-family="Verdana,sans-serif" font-weight="400" font-size="41" transform="matrix(6.12323e-17 -1 1 6.12323e-17 4255.789473684211 1222)">11-Mar</text>
		</g>
		<g>
			<text fill="#595959" font-family="Verdana,sans-serif" font-weight="400" font-size="41" transform="matrix(1 0 0 1 3123.5 1050)">0%</text>
		</g>
		<g>
			<text fill="#595959" font-family="Verdana,sans-serif" font-weight="400" font-size="41" transform="matrix(1 0 0 1 3097.5 922)">20%</text>
		</g>
		<g>
			<text fill="#595959" font-family="Verdana,sans-serif" font-weight="400" font-size="41" transform="matrix(1 0 0 1 3095.5 794)">40%</text>
		</g>
		<g>
			<text fill="#595959" font-family="Verdana,sans-serif" font-weight="400" font-size="41" transform="matrix(1 0 0 1 3096.5 666)">60%</text>
		</g>
		<g>
			<text fill="#595959" font-family="Verdana,sans-serif" font-weight="400" font-size="41" transform="matrix(1 0 0 1 3096.5 538)">80%</text>
		</g>
		<g>
			<text fill="#595959" font-family="Verdana,sans-serif" font-weight="400" font-size="41" transform="matrix(1 0 0 1 3073.5 410)">100%</text>
		</g>
		<g>
			<text fill="#595959" font-family="Verdana,sans-serif" font-weight="400" font-size="41" transform="matrix(1 0 0 1 3541.5 1321)">Week Commencing</text>
		</g>
		<g>
			<text fill="#595959" font-family="Verdana,sans-serif" font-weight="400" font-size="46" transform="matrix(6.12323e-17 -1 1 6.12323e-17 3019.73 968.75)">Requests (% of Total)</text>
		</g>
		<rect x="2918.5" y="347.5" width="1760" height="1043" stroke="#D9D9D9" stroke-width="3.4375" stroke-linejoin="round" stroke-miterlimit="10" fill="none" />
		<g>
			<path d="M3228.5 1038 3284.7105263157896 1038 3340.9210526315787 1038 3397.1315789473683 1038 3453.342105263158 1038 3509.5526315789475 1038 3565.7631578947367 1038 3621.9736842105262 1038 3678.184210526316 1038 3734.3947368421054 1038 3790.6052631578946 1038 3846.815789473684 1038 3903.0263157894738 1038 3959.2368421052633 1038 4015.4473684210525 1038 4071.657894736842 1038 4127.868421052632 1038 4184.078947368421 1038 4240.289473684211 1038 4296.5 1038 4296.5 648.3895796632379 4240.289473684211 621.5001438018157 4184.078947368421 620.7479883324611 4127.868421052632 618.9772962489769 4071.657894736842 616.6754829613407 4015.4473684210525 614.5117939817052 3959.2368421052633 615.2796120230914 3903.0263157894738 615.9275087100596 3846.815789473684 616.3813797093885 3790.6052631578946 616.3755182018299 3734.3947368421054 569.065986327317 3678.184210526316 568.8533275368973 3621.9736842105262 570.4200135868562 3565.7631578947367 571.2367304637471 3509.5526315789475 574.6430294813756 3453.342105263158 573.9159777926823 3397.1315789473683 571.940753677543 3340.9210526315787 571.7928428278394 3284.7105263157896 571.6102570585995 3228.5 570.6431995209241 3228.5 1038Z" fill="#e62d39" opacity="0.9" />
		</g>
		<g>
			<path d="M3228.5 570.6431995209241 3284.7105263157896 571.6102570585995 3340.9210526315787 571.7928428278394 3397.1315789473683 571.940753677543 3453.342105263158 573.9159777926823 3509.5526315789475 574.6430294813756 3565.7631578947367 571.2367304637471 3621.9736842105262 570.4200135868562 3678.184210526316 568.8533275368973 3734.3947368421054 569.065986327317 3790.6052631578946 616.3755182018299 3846.815789473684 616.3813797093885 3903.0263157894738 615.9275087100596 3959.2368421052633 615.2796120230914 4015.4473684210525 614.5117939817052 4071.657894736842 616.6754829613407 4127.868421052632 618.9772962489769 4184.078947368421 620.7479883324611 4240.289473684211 621.5001438018157 4296.5 648.3895796632379 4296.5 566.0005705781988 4240.289473684211 541.8846686674905 4184.078947368421 541.0539314470215 4127.868421052632 539.8778029714027 4071.657894736842 538.0311425357806 4015.4473684210525 536.4270145966814 3959.2368421052633 536.7106293649022 3903.0263157894738 536.9764016245806 3846.815789473684 535.7941999215749 3790.6052631578946 535.7525782888524 3734.3947368421054 509.06513243323207 3678.184210526316 509.44212806241245 3621.9736842105262 509.38220585337143 3565.7631578947367 509.60866877735396 3509.5526315789475 511.9603578529975 3453.342105263158 511.0153758579769 3397.1315789473683 509.7472741468517 3340.9210526315787 509.176439393107 3284.7105263157896 508.6338001891333 3228.5 508.14325383903014 3228.5 570.6431995209241Z" fill="#005aa6" opacity="0.9" />
		</g>
		<g>
			<path d="M3228.5 508.14325383903014 3284.7105263157896 508.6338001891333 3340.9210526315787 509.176439393107 3397.1315789473683 509.7472741468517 3453.342105263158 511.0153758579769 3509.5526315789475 511.9603578529975 3565.7631578947367 509.60866877735396 3621.9736842105262 509.38220585337143 3678.184210526316 509.44212806241245 3734.3947368421054 509.06513243323207 3790.6052631578946 535.7525782888524 3846.815789473684 535.7941999215749 3903.0263157894738 536.9764016245806 3959.2368421052633 536.7106293649022 4015.4473684210525 536.4270145966814 4071.657894736842 538.0311425357806 4127.868421052632 539.8778029714027 4184.078947368421 541.0539314470215 4240.289473684211 541.8846686674905 4296.5 566.0005705781988 4296.5 540.7347903265445 4240.289473684211 520.8422961076436 4184.078947368421 519.941244366186 4127.868421052632 518.8725186340012 4071.657894736842 517.1348567955661 4015.4473684210525 515.650021587989 3959.2368421052633 515.7382849108784 3903.0263157894738 515.8356026961703 3846.815789473684 514.2250429205485 3790.6052631578946 514.175265377396 3734.3947368421054 492.9059942279181 3678.184210526316 493.0966047321476 3621.9736842105262 492.88332734476376 3565.7631578947367 492.95479515937706 3509.5526315789475 494.7801665319999 3453.342105263158 493.78468973551225 3397.1315789473683 492.5320066774311 3340.9210526315787 491.93197908298504 3284.7105263157896 491.34916929089724 3228.5 490.7876094955426 3228.5 508.14325383903014Z" fill="#55c0e9" opacity="0.9" />
		</g>
		<g>
			<path d="M3228.5 490.7876094955426 3284.7105263157896 491.34916929089724 3340.9210526315787 491.93197908298504 3397.1315789473683 492.5320066774311 3453.342105263158 493.78468973551225 3509.5526315789475 494.7801665319999 3565.7631578947367 492.95479515937706 3621.9736842105262 492.88332734476376 3678.184210526316 493.0966047321476 3734.3947368421054 492.9059942279181 3790.6052631578946 514.175265377396 3846.815789473684 514.2250429205485 3903.0263157894738 515.8356026961703 3959.2368421052633 515.7382849108784 4015.4473684210525 515.650021587989 4071.657894736842 517.1348567955661 4127.868421052632 518.8725186340012 4184.078947368421 519.941244366186 4240.289473684211 520.8422961076436 4296.5 540.7347903265445 4296.5 525.7315703546495 4240.289473684211 502.94320923041516 4184.078947368421 502.107038956447 4127.868421052632 501.18268987180403 4071.657894736842 499.5661579814509 4015.4473684210525 498.2407663238116 3959.2368421052633 498.34179455703446 3903.0263157894738 498.4409678079612 3846.815789473684 496.7688079778267 3790.6052631578946 496.7252878979315 3734.3947368421054 467.1119991855256 3678.184210526316 467.30287783529656 3621.9736842105262 467.12354601368946 3565.7631578947367 467.18090658715477 3509.5526315789475 468.4609806530692 3453.342105263158 467.6706174617695 3397.1315789473683 466.5807912489142 3340.9210526315787 466.04765597528194 3284.7105263157896 465.50683076275004 3228.5 465.1003985575009 3228.5 490.7876094955426Z" fill="#f6a118" opacity="0.9" />
		</g>
		<g>
			<path d="M3228.5 465.1003985575009 3284.7105263157896 465.50683076275004 3340.9210526315787 466.04765597528194 3397.1315789473683 466.5807912489142 3453.342105263158 467.6706174617695 3509.5526315789475 468.4609806530692 3565.7631578947367 467.18090658715477 3621.9736842105262 467.12354601368946 3678.184210526316 467.30287783529656 3734.3947368421054 467.1119991855256 3790.6052631578946 496.7252878979315 3846.815789473684 496.7688079778267 3903.0263157894738 498.4409678079612 3959.2368421052633 498.34179455703446 4015.4473684210525 498.2407663238116 4071.657894736842 499.5661579814509 4127.868421052632 501.18268987180403 4184.078947368421 502.107038956447 4240.289473684211 502.94320923041516 4296.5 525.7315703546495 4296.5 513.0191600354991 4240.289473684211 492.37221825805364 4184.078947368421 491.90854325848505 4127.868421052632 491.3515350353937 4071.657894736842 490.22585688768174 4015.4473684210525 489.18947576032576 3959.2368421052633 489.22333619864025 3903.0263157894738 489.223179567103 3846.815789473684 489.59463668666535 3790.6052631578946 489.6274021960388 3734.3947368421054 465.84397535618723 3678.184210526316 466.0407574120686 3621.9736842105262 465.8767979346657 3565.7631578947367 465.9500572477321 3509.5526315789475 467.2202695247198 3453.342105263158 466.45583538595343 3397.1315789473683 465.39864568725244 3340.9210526315787 464.88886642683036 3284.7105263157896 464.365762498016 3228.5 463.97855376512575 3228.5 465.1003985575009Z" fill="#fdd5a4" opacity="0.9" />
		</g>
		<g>
			<path d="M3228.5 463.97855376512575 3284.7105263157896 464.365762498016 3340.9210526315787 464.88886642683036 3397.1315789473683 465.39864568725244 3453.342105263158 466.45583538595343 3509.5526315789475 467.2202695247198 3565.7631578947367 465.9500572477321 3621.9736842105262 465.8767979346657 3678.184210526316 466.0407574120686 3734.3947368421054 465.84397535618723 3790.6052631578946 489.6274021960388 3846.815789473684 489.59463668666535 3903.0263157894738 489.223179567103 3959.2368421052633 489.22333619864025 4015.4473684210525 489.18947576032576 4071.657894736842 490.22585688768174 4127.868421052632 491.3515350353937 4184.078947368421 491.90854325848505 4240.289473684211 492.37221825805364 4296.5 513.0191600354991 4296.5 398 4240.289473684211 397.9999999999999 4184.078947368421 398.0000000000001 4127.868421052632 398 4071.657894736842 397.99999999999994 4015.4473684210525 398 3959.2368421052633 398 3903.0263157894738 397.99999999999994 3846.815789473684 398.0000000000001 3790.6052631578946 397.9999999999999 3734.3947368421054 397.9999999999999 3678.184210526316 398 3621.9736842105262 397.9999999999999 3565.7631578947367 397.99999999999994 3509.5526315789475 397.9999999999999 3453.342105263158 397.99999999999994 3397.1315789473683 398 3340.9210526315787 398.00000000000006 3284.7105263157896 397.99999999999983 3228.5 398.0000000000001 3228.5 463.97855376512575Z" fill="#393d41" opacity="0.9" />
		</g>
		<g>
			<rect x="4372" y="431" width="22.9995" height="23" fill="#e62d39" />
		</g>
		<g>
			<text fill="#595959" font-family="Verdana,sans-serif" font-weight="400" font-size="41" transform="matrix(1 0 0 1 4404.56 454)">Smartphone</text>
		</g>
		<g>
			<rect x="4372" y="508" width="22.9995" height="23" fill="#005aa6" />
		</g>
		<g>
			<text fill="#595959" font-family="Verdana,sans-serif" font-weight="400" font-size="41" transform="matrix(1 0 0 1 4404.56 531)">Desktop</text>
		</g>
		<g>
			<rect x="4372" y="585" width="22.9995" height="23" fill="#55c0e9" />
		</g>
		<g>
			<text fill="#595959" font-family="Verdana,sans-serif" font-weight="400" font-size="41" transform="matrix(1 0 0 1 4404.56 608)">Other</text>
		</g>
		<g>
			<rect x="4372" y="662" width="22.9995" height="23" fill="#f6a118" />
		</g>
		<g>
			<text fill="#595959" font-family="Verdana,sans-serif" font-weight="400" font-size="41" transform="matrix(1 0 0 1 4404.56 685)">Tablet</text>
		</g>
		<g>
			<rect x="4372" y="739" width="22.9995" height="23" fill="#fdd5a4" />
		</g>
		<g>
			<text fill="#595959" font-family="Verdana,sans-serif" font-weight="400" font-size="41" transform="matrix(1 0 0 1 4404.56 762)">Tv</text>
		</g>
		<g>
			<rect x="4372" y="816" width="22.9995" height="23" fill="#393d41" />
		</g>
		<g>
			<text fill="#595959" font-family="Verdana,sans-serif" font-weight="400" font-size="41" transform="matrix(1 0 0 1 4404.56 839)">Unclassified</text>
		</g>
	</g>
</svg>
