<svg width="1763" height="1046"
    xmlns="http://www.w3.org/2000/svg"
	xmlns:xlink="http://www.w3.org/1999/xlink" xml:space="preserve" overflow="hidden">
	<defs>
		<clipPath id="clip0">
			<rect x="2917" y="346" width="1763" height="1046"/>
		</clipPath>
	</defs>
	<g clip-path="url(#clip0)" transform="translate(-2917 -346)">
		<rect x="2918" y="347" width="1760" height="1043" fill="#FFFFFF" />
		<g>
			<path d="
			M3228.5 974.532 4296.5 974.532
			M3228.5 910.53 4296.5 910.53
			M3228.5 846.528 4296.5 846.528
			M3228.5 781.526 4296.5 781.526
			M3228.5 717.524 4296.5 717.524
			M3228.5 653.522 4296.5 653.522
			M3228.5 589.52 4296.5 589.52
			M3228.5 525.517 4296.5 525.517
			M3228.5 461.515 4296.5 461.515
			M3228.5 397.5 4296.5 397.5" stroke="#D9D9D9" stroke-width="3.4375" stroke-linejoin="round" stroke-miterlimit="10" fill="none" />
		</g>
		<g>
			<path d="M 1038.5 4296.5 1038.5" stroke="#D9D9D9" stroke-width="3.4375" stroke-linejoin="round" stroke-miterlimit="10" fill="none" fill-rule="evenodd" />
		</g>
		<g>
			<text fill="#595959" font-family="Verdana,sans-serif" font-weight="400" font-size="41" transform="matrix(6.12323e-17 -1 1 6.12323e-17 3244.5 1210)">01-Jan</text>
		</g>
		<g>
			<text fill="#595959" font-family="Verdana,sans-serif" font-weight="400" font-size="41" transform="matrix(6.12323e-17 -1 1 6.12323e-17 3328.264705882353 1210)">29-Jan</text>
		</g>
		<g>
			<text fill="#595959" font-family="Verdana,sans-serif" font-weight="400" font-size="41" transform="matrix(6.12323e-17 -1 1 6.12323e-17 3412.029411764706 1216)">26-Feb</text>
		</g>
		<g>
			<text fill="#595959" font-family="Verdana,sans-serif" font-weight="400" font-size="41" transform="matrix(6.12323e-17 -1 1 6.12323e-17 3495.794117647059 1223)">25-Mar</text>
		</g>
		<g>
			<text fill="#595959" font-family="Verdana,sans-serif" font-weight="400" font-size="41" transform="matrix(6.12323e-17 -1 1 6.12323e-17 3583.0588235294117 1216)">22-Apr</text>
		</g>
		<g>
			<text fill="#595959" font-family="Verdana,sans-serif" font-weight="400" font-size="41" transform="matrix(6.12323e-17 -1 1 6.12323e-17 3666.823529411765 1228)">20-May</text>
		</g>
		<g>
			<text fill="#595959" font-family="Verdana,sans-serif" font-weight="400" font-size="41" transform="matrix(6.12323e-17 -1 1 6.12323e-17 3746.5882352941176 1209)">17-Jun</text>
		</g>
		<g>
			<text fill="#595959" font-family="Verdana,sans-serif" font-weight="400" font-size="41" transform="matrix(6.12323e-17 -1 1 6.12323e-17 3830.8529411764707 1194)">15-Jul</text>
		</g>
		<g>
			<text fill="#595959" font-family="Verdana,sans-serif" font-weight="400" font-size="41" transform="matrix(6.12323e-17 -1 1 6.12323e-17 3918.1176470588234 1218)">12-Aug</text>
		</g>
		<g>
			<text fill="#595959" font-family="Verdana,sans-serif" font-weight="400" font-size="41" transform="matrix(6.12323e-17 -1 1 6.12323e-17 4001.8823529411766 1222)">09-Sep</text>
		</g>
		<g>
			<text fill="#595959" font-family="Verdana,sans-serif" font-weight="400" font-size="41" transform="matrix(6.12323e-17 -1 1 6.12323e-17 4082.1470588235293 1215)">07-Oct</text>
		</g>
		<g>
			<text fill="#595959" font-family="Verdana,sans-serif" font-weight="400" font-size="41" transform="matrix(6.12323e-17 -1 1 6.12323e-17 4165.911764705882 1225)">04-Nov</text>
		</g>
		<g>
			<text fill="#595959" font-family="Verdana,sans-serif" font-weight="400" font-size="41" transform="matrix(6.12323e-17 -1 1 6.12323e-17 4249.676470588235 1223)">09-Dec</text>
		</g>
		<g>
			<text fill="#595959" font-family="Verdana,sans-serif" font-weight="400" font-size="41" transform="matrix(1 0 0 1 3167.5 1050)">0</text>
		</g>
		<g>
			<text fill="#595959" font-family="Verdana,sans-serif" font-weight="400" font-size="41" transform="matrix(1 0 0 1 3051.5 922)">17,600</text>
		</g>
		<g>
			<text fill="#595959" font-family="Verdana,sans-serif" font-weight="400" font-size="41" transform="matrix(1 0 0 1 3050.5 794)">35,201</text>
		</g>
		<g>
			<text fill="#595959" font-family="Verdana,sans-serif" font-weight="400" font-size="41" transform="matrix(1 0 0 1 3050.5 666)">52,801</text>
		</g>
		<g>
			<text fill="#595959" font-family="Verdana,sans-serif" font-weight="400" font-size="41" transform="matrix(1 0 0 1 3048.5 538)">70,402</text>
		</g>
		<g>
			<text fill="#595959" font-family="Verdana,sans-serif" font-weight="400" font-size="41" transform="matrix(1 0 0 1 3047.5 410)">88,002</text>
		</g>
		<g>
			<text fill="#595959" font-family="Verdana,sans-serif" font-weight="400" font-size="41" transform="matrix(1 0 0 1 3544.5 1321)">Week Commencing</text>
		</g>
		<g>
			<text fill="#595959" font-family="Verdana,sans-serif" font-weight="400" font-size="46" transform="matrix(6.12323e-17 -1 1 6.12323e-17 3019.73 1048.25)">Number of Hardware Profiles</text>
		</g>
		<rect x="2918.5" y="347.5" width="1760" height="1043" stroke="#D9D9D9" stroke-width="3.4375" stroke-linejoin="round" stroke-miterlimit="10" fill="none" />
		<g>
			<path d="M3228.5 1038 3249.4411764705883 1038 3270.3823529411766 1038 3291.323529411765 1038 3312.264705882353 1038 3333.205882352941 1038 3354.1470588235293 1038 3375.0882352941176 1038 3396.029411764706 1038 3416.970588235294 1038 3437.9117647058824 1038 3458.8529411764707 1038 3479.794117647059 1038 3500.735294117647 1038 3521.676470588235 1038 3542.6176470588234 1038 3563.5588235294117 1038 3584.5 1038 3605.4411764705883 1038 3626.3823529411766 1038 3647.323529411765 1038 3668.264705882353 1038 3689.205882352941 1038 3710.1470588235293 1038 3731.0882352941176 1038 3752.029411764706 1038 3772.970588235294 1038 3793.9117647058824 1038 3814.8529411764707 1038 3835.7941176470586 1038 3856.735294117647 1038 3877.676470588235 1038 3898.6176470588234 1038 3919.5588235294117 1038 3940.5 1038 3961.4411764705883 1038 3982.3823529411766 1038 4003.323529411765 1038 4024.264705882353 1038 4045.2058823529414 1038 4066.1470588235293 1038 4087.0882352941176 1038 4108.029411764706 1038 4128.970588235294 1038 4149.911764705882 1038 4170.85294117647 1038 4191.794117647059 1038 4212.735294117647 1038 4233.676470588235 1038 4254.617647058823 1038 4275.558823529412 1038 4296.5 1038 4296.5 691.0042499034113 4275.558823529412 691.1933365150792 4254.617647058823 691.4769664325811 4233.676470588235 691.8696847798914 4212.735294117647 692.2624031272017 4191.794117647059 692.5896684166269 4170.85294117647 692.8587532101543 4149.911764705882 693.0914751937456 4128.970588235294 693.3678325492602 4108.029411764706 693.7241880866344 4087.0882352941176 694.0878161859957 4066.1470588235293 694.4223540374082 4045.2058823529414 694.7205290788845 4024.264705882353 694.9096156905525 4003.323529411765 695.30960659985 3982.3823529411766 695.7968682529943 3961.4411764705883 696.0732256085089 3940.5 696.2768573441513 3919.5588235294117 696.5313970137042 3898.6176470588234 696.8441171791551 3877.676470588235 697.1350196586441 3856.735294117647 697.3677416422354 3835.7941176470586 697.7459148655712 3814.8529411764707 698.058635031022 3793.9117647058824 698.3931728824346 3772.970588235294 698.6986204858981 3752.029411764706 699.018613213336 3731.0882352941176 699.2876980068635 3710.1470588235293 699.3167882548123 3689.205882352941 699.4476943705824 3668.264705882353 699.527692552442 3647.323529411765 699.84768527988 3626.3823529411766 700.0804072634712 3605.4411764705883 700.2404036271903 3584.5 700.5385786686666 3563.5588235294117 700.9094793300153 3542.6176470588234 701.3531056112361 3521.676470588235 701.7167337105975 3500.735294117647 702.0367264380354 3479.794117647059 702.2621758596396 3458.8529411764707 702.531260653167 3437.9117647058824 702.7712551987455 3416.970588235294 702.9530692484261 3396.029411764706 703.1130656121452 3375.0882352941176 703.2294266039407 3354.1470588235293 703.4185132156088 3333.205882352941 703.6148723892638 3312.264705882353 704.0948614804208 3291.323529411765 704.4439444558078 3270.3823529411766 704.8802981750415 3249.4411764705883 705.3311970182497 3228.5 705.6657348696621 3228.5 1038Z" fill="#e62d39" opacity="0.9" />
		</g>
		<g>
			<path d="M3228.5 705.6657348696621 3249.4411764705883 705.3311970182497 3270.3823529411766 704.8802981750415 3291.323529411765 704.4439444558078 3312.264705882353 704.0948614804208 3333.205882352941 703.6148723892638 3354.1470588235293 703.4185132156088 3375.0882352941176 703.2294266039407 3396.029411764706 703.1130656121452 3416.970588235294 702.9530692484261 3437.9117647058824 702.7712551987455 3458.8529411764707 702.531260653167 3479.794117647059 702.2621758596396 3500.735294117647 702.0367264380354 3521.676470588235 701.7167337105975 3542.6176470588234 701.3531056112361 3563.5588235294117 700.9094793300153 3584.5 700.5385786686666 3605.4411764705883 700.2404036271903 3626.3823529411766 700.0804072634712 3647.323529411765 699.84768527988 3668.264705882353 699.527692552442 3689.205882352941 699.4476943705824 3710.1470588235293 699.3167882548123 3731.0882352941176 699.2876980068635 3752.029411764706 699.018613213336 3772.970588235294 698.6986204858981 3793.9117647058824 698.3931728824346 3814.8529411764707 698.058635031022 3835.7941176470586 697.7459148655712 3856.735294117647 697.3677416422354 3877.676470588235 697.1350196586441 3898.6176470588234 696.8441171791551 3919.5588235294117 696.5313970137042 3940.5 696.2768573441513 3961.4411764705883 696.0732256085089 3982.3823529411766 695.7968682529943 4003.323529411765 695.30960659985 4024.264705882353 694.9096156905525 4045.2058823529414 694.7205290788845 4066.1470588235293 694.4223540374082 4087.0882352941176 694.0878161859957 4108.029411764706 693.7241880866344 4128.970588235294 693.3678325492602 4149.911764705882 693.0914751937456 4170.85294117647 692.8587532101543 4191.794117647059 692.5896684166269 4212.735294117647 692.2624031272017 4233.676470588235 691.8696847798914 4254.617647058823 691.4769664325811 4275.558823529412 691.1933365150792 4296.5 691.0042499034113 4296.5 524.077134610577 4275.558823529412 524.2953114701938 4254.617647058823 524.7025749414786 4233.676470588235 525.1389286607123 4212.735294117647 525.7280061816778 4191.794117647059 526.1425422149496 4170.85294117647 526.5643508102089 4149.911764705882 526.949796595532 4128.970588235294 527.4443308106634 4108.029411764706 527.9243199018204 4087.0882352941176 528.3752187450285 4066.1470588235293 528.8479352741983 4045.2058823529414 529.2988341174064 4024.264705882353 529.6188268448445 4003.323529411765 530.1569964318992 3982.3823529411766 530.7097111429287 3961.4411764705883 531.1606099861367 3940.5 531.4733301515874 3919.5588235294117 531.8224131269744 3898.6176470588234 532.2587668462081 3877.676470588235 532.6369400695438 3856.735294117647 533.0223858548669 3835.7941176470586 533.4878298220494 3814.8529411764707 533.9314561032704 3793.9117647058824 534.3387195745552 3772.970588235294 534.7750732937889 3752.029411764706 535.0005227153928 3731.0882352941176 535.3423331287925 3710.1470588235293 535.393241062703 3689.205882352941 535.5605099884093 3668.264705882353 535.647780732256 3647.323529411765 536.1059521374514 3626.3823529411766 536.5495784186722 3605.4411764705883 536.9277516420082 3584.5 537.3931956091906 3563.5588235294117 537.9531828822073 3542.6176470588234 538.6077134610576 3521.676470588235 539.1531556100998 3500.735294117647 539.6331447012567 3479.794117647059 539.9385923047204 3458.8529411764707 540.2876752801074 3437.9117647058824 540.6440308174815 3416.970588235294 540.8840253630599 3396.029411764706 541.1531101565873 3375.0882352941176 541.3276516442808 3354.1470588235293 541.6112815617827 3333.205882352941 541.8803663553101 3312.264705882353 542.4621713142883 3291.323529411765 542.9348878434581 3270.3823529411766 543.4948751164746 3249.4411764705883 544.0839526374401 3228.5 544.5493966046226 3228.5 705.6657348696621Z" fill="#55c0e9" opacity="0.9" />
		</g>
		<g>
			<path d="M3228.5 544.5493966046226 3249.4411764705883 544.0839526374401 3270.3823529411766 543.4948751164746 3291.323529411765 542.9348878434581 3312.264705882353 542.4621713142883 3333.205882352941 541.8803663553101 3354.1470588235293 541.6112815617827 3375.0882352941176 541.3276516442808 3396.029411764706 541.1531101565873 3416.970588235294 540.8840253630599 3437.9117647058824 540.6440308174815 3458.8529411764707 540.2876752801074 3479.794117647059 539.9385923047204 3500.735294117647 539.6331447012567 3521.676470588235 539.1531556100998 3542.6176470588234 538.6077134610576 3563.5588235294117 537.9531828822073 3584.5 537.3931956091906 3605.4411764705883 536.9277516420082 3626.3823529411766 536.5495784186722 3647.323529411765 536.1059521374514 3668.264705882353 535.647780732256 3689.205882352941 535.5605099884093 3710.1470588235293 535.393241062703 3731.0882352941176 535.3423331287925 3752.029411764706 535.0005227153928 3772.970588235294 534.7750732937889 3793.9117647058824 534.3387195745552 3814.8529411764707 533.9314561032704 3835.7941176470586 533.4878298220494 3856.735294117647 533.0223858548669 3877.676470588235 532.6369400695438 3898.6176470588234 532.2587668462081 3919.5588235294117 531.8224131269744 3940.5 531.4733301515874 3961.4411764705883 531.1606099861367 3982.3823529411766 530.7097111429287 4003.323529411765 530.1569964318992 4024.264705882353 529.6188268448445 4045.2058823529414 529.2988341174064 4066.1470588235293 528.8479352741983 4087.0882352941176 528.3752187450285 4108.029411764706 527.9243199018204 4128.970588235294 527.4443308106634 4149.911764705882 526.949796595532 4170.85294117647 526.5643508102089 4191.794117647059 526.1425422149496 4212.735294117647 525.7280061816778 4233.676470588235 525.1389286607123 4254.617647058823 524.7025749414786 4275.558823529412 524.2953114701938 4296.5 524.077134610577 4296.5 447.0679757278243 4275.558823529412 447.30069771141564 4254.617647058823 447.75159655462375 4233.676470588235 448.2024953978319 4212.735294117647 448.8497534146952 4191.794117647059 449.27883457194145 4170.85294117647 449.73700597713696 4149.911764705882 450.2097225063068 4128.970588235294 450.733346969387 4108.029411764706 451.2496988704802 4087.0882352941176 451.72968796163724 4066.1470588235293 452.2460398627304 4045.2058823529414 452.7551192018363 4024.264705882353 453.11147473921056 4003.323529411765 453.7150973841503 3982.3823529411766 454.3623554010137 3961.4411764705883 454.84234449217064 3940.5 455.19870002954474 3919.5588235294117 455.59141837685513 3898.6176470588234 456.0859525919866 3877.676470588235 456.5077611872457 3856.735294117647 456.9077520965432 3835.7941176470586 457.3877411877002 3814.8529411764707 457.8604577168701 3793.9117647058824 458.2968114361038 3772.970588235294 458.7549828412991 3752.029411764706 459.1986091225199 3731.0882352941176 459.55496465989404 3710.1470588235293 459.61314515579187 3689.205882352941 459.79495920547254 3668.264705882353 459.8895025113065 3647.323529411765 460.3767641644507 3626.3823529411766 460.864025817595 3605.4411764705883 461.2712892888798 3584.5 461.7730960659984 3563.5588235294117 462.38399127292575 3542.6176470588234 463.0748846617122 3521.676470588235 463.63487193472884 3500.735294117647 464.158496397809 3479.794117647059 464.47848912524717 3458.8529411764707 464.8566623485831 3437.9117647058824 465.2275630099317 3416.970588235294 465.4748301174973 3396.029411764706 465.7657325969864 3375.0882352941176 465.95481920865427 3354.1470588235293 466.25299425013066 3333.205882352941 466.55116929160704 3312.264705882353 467.1402468125724 3291.323529411765 467.6347810277039 3270.3823529411766 468.2093134246949 3249.4411764705883 468.85657144155823 3228.5 469.35110565668964 3228.5 544.5493966046226Z" fill="#f6a118" opacity="0.9" />
		</g>
		<g>
			<path d="M3228.5 469.35110565668964 3249.4411764705883 468.85657144155823 3270.3823529411766 468.2093134246949 3291.323529411765 467.6347810277039 3312.264705882353 467.1402468125724 3333.205882352941 466.55116929160704 3354.1470588235293 466.25299425013066 3375.0882352941176 465.95481920865427 3396.029411764706 465.7657325969864 3416.970588235294 465.4748301174973 3437.9117647058824 465.2275630099317 3458.8529411764707 464.8566623485831 3479.794117647059 464.47848912524717 3500.735294117647 464.158496397809 3521.676470588235 463.63487193472884 3542.6176470588234 463.0748846617122 3563.5588235294117 462.38399127292575 3584.5 461.7730960659984 3605.4411764705883 461.2712892888798 3626.3823529411766 460.864025817595 3647.323529411765 460.3767641644507 3668.264705882353 459.8895025113065 3689.205882352941 459.79495920547254 3710.1470588235293 459.61314515579187 3731.0882352941176 459.55496465989404 3752.029411764706 459.1986091225199 3772.970588235294 458.7549828412991 3793.9117647058824 458.2968114361038 3814.8529411764707 457.8604577168701 3835.7941176470586 457.3877411877002 3856.735294117647 456.9077520965432 3877.676470588235 456.5077611872457 3898.6176470588234 456.0859525919866 3919.5588235294117 455.59141837685513 3940.5 455.19870002954474 3961.4411764705883 454.84234449217064 3982.3823529411766 454.3623554010137 4003.323529411765 453.7150973841503 4024.264705882353 453.11147473921056 4045.2058823529414 452.7551192018363 4066.1470588235293 452.2460398627304 4087.0882352941176 451.72968796163724 4108.029411764706 451.2496988704802 4128.970588235294 450.733346969387 4149.911764705882 450.2097225063068 4170.85294117647 449.73700597713696 4191.794117647059 449.27883457194145 4212.735294117647 448.8497534146952 4233.676470588235 448.2024953978319 4254.617647058823 447.75159655462375 4275.558823529412 447.30069771141564 4296.5 447.0679757278243 4296.5 399.35269652962427 4275.558823529412 399.6654166950751 4254.617647058823 400.36358264584896 4233.676470588235 401.0835662825845 4212.735294117647 402.34171950637494 4191.794117647059 403.0180677711869 4170.85294117647 403.7089611599737 4149.911764705882 404.42167223472205 4128.970588235294 405.1343833094702 4108.029411764706 405.861639508193 4087.0882352941176 406.5743505829413 4066.1470588235293 407.2870616576896 4045.2058823529414 407.9925001704506 4024.264705882353 408.5379423194928 4003.323529411765 409.4542851298833 3982.3823529411766 410.2760846344402 3961.4411764705883 411.0033408331629 3940.5 411.56332810617937 3919.5588235294117 412.24694893297885 3898.6176470588234 412.93784232176546 3877.676470588235 413.62146314856477 3856.735294117647 414.3123565373514 3835.7941176470586 415.0105224881252 3814.8529411764707 415.7305061248608 3793.9117647058824 416.44321719960914 3772.970588235294 417.17774596031916 3752.029411764706 417.86863934910565 3731.0882352941176 418.55953273789225 3710.1470588235293 419.2431535646917 3689.205882352941 419.8976841435421 3668.264705882353 420.5522147223926 3647.323529411765 421.301288607077 3626.3823529411766 421.8903661280425 3605.4411764705883 422.4358082770846 3584.5 423.0757937319605 3563.5588235294117 423.83941274061965 3542.6176470588234 424.5812140633167 3521.676470588235 425.257562328129 3500.735294117647 425.8175496011453 3479.794117647059 426.1666325765324 3458.8529411764707 426.5957137337789 3437.9117647058824 426.9884320810892 3416.970588235294 427.35933274243763 3396.029411764706 427.8247767096202 3375.0882352941176 428.45021704052175 3354.1470588235293 429.21383604918066 3333.205882352941 429.63564464443994 3312.264705882353 430.26835753732865 3291.323529411765 430.89379786823025 3270.3823529411766 431.50469307515743 3249.4411764705883 432.2464943978547 3228.5 432.8428444808073 3228.5 469.35110565668964Z" fill="#fdd5a4" opacity="0.9" />
		</g>
		<g>
			<path d="M3228.5 432.8428444808073 3249.4411764705883 432.2464943978547 3270.3823529411766 431.50469307515743 3291.323529411765 430.89379786823025 3312.264705882353 430.26835753732865 3333.205882352941 429.63564464443994 3354.1470588235293 429.21383604918066 3375.0882352941176 428.45021704052175 3396.029411764706 427.8247767096202 3416.970588235294 427.35933274243763 3437.9117647058824 426.9884320810892 3458.8529411764707 426.5957137337789 3479.794117647059 426.1666325765324 3500.735294117647 425.8175496011453 3521.676470588235 425.257562328129 3542.6176470588234 424.5812140633167 3563.5588235294117 423.83941274061965 3584.5 423.0757937319605 3605.4411764705883 422.4358082770846 3626.3823529411766 421.8903661280425 3647.323529411765 421.301288607077 3668.264705882353 420.5522147223926 3689.205882352941 419.8976841435421 3710.1470588235293 419.2431535646917 3731.0882352941176 418.55953273789225 3752.029411764706 417.86863934910565 3772.970588235294 417.17774596031916 3793.9117647058824 416.44321719960914 3814.8529411764707 415.7305061248608 3835.7941176470586 415.0105224881252 3856.735294117647 414.3123565373514 3877.676470588235 413.62146314856477 3898.6176470588234 412.93784232176546 3919.5588235294117 412.24694893297885 3940.5 411.56332810617937 3961.4411764705883 411.0033408331629 3982.3823529411766 410.2760846344402 4003.323529411765 409.4542851298833 4024.264705882353 408.5379423194928 4045.2058823529414 407.9925001704506 4066.1470588235293 407.2870616576896 4087.0882352941176 406.5743505829413 4108.029411764706 405.861639508193 4128.970588235294 405.1343833094702 4149.911764705882 404.42167223472205 4170.85294117647 403.7089611599737 4191.794117647059 403.0180677711869 4212.735294117647 402.34171950637494 4233.676470588235 401.0835662825845 4254.617647058823 400.36358264584896 4275.558823529412 399.6654166950751 4296.5 399.35269652962427 4296.5 397.99999999999994 4275.558823529412 398.3127201654508 4254.617647058823 399.01088611622464 4233.676470588235 399.7308697529602 4212.735294117647 400.9890229767506 4191.794117647059 401.6653712415626 4170.85294117647 402.35626463034936 4149.911764705882 403.0689757050977 4128.970588235294 403.7889593418331 4108.029411764706 404.5234881025431 4087.0882352941176 405.23619917729144 4066.1470588235293 405.94891025203975 4045.2058823529414 406.6543487648008 4024.264705882353 407.19979091384295 4003.323529411765 408.11613372423346 3982.3823529411766 408.93793322879037 3961.4411764705883 409.66518942751304 3940.5 410.2251767005295 3919.5588235294117 410.908797527329 3898.6176470588234 411.5996909161156 3877.676470588235 412.2833117429149 3856.735294117647 412.9742051317015 3835.7941176470586 413.67237108247537 3814.8529411764707 414.39235471921097 3793.9117647058824 415.1050657939593 3772.970588235294 415.8395945546693 3752.029411764706 416.5304879434558 3731.0882352941176 417.2213813322424 3710.1470588235293 417.9050021590418 3689.205882352941 418.55953273789225 3668.264705882353 419.21406331674274 3647.323529411765 419.9631372014272 3626.3823529411766 420.55221472239265 3605.4411764705883 421.09765687143476 3584.5 421.73764232631066 3563.5588235294117 422.5012613349698 3542.6176470588234 423.2430626576668 3521.676470588235 423.93395604645355 3500.735294117647 424.49394331946985 3479.794117647059 424.84302629485694 3458.8529411764707 425.27210745210346 3437.9117647058824 425.66482579941373 3416.970588235294 426.0357264607622 3396.029411764706 426.50117042794477 3375.0882352941176 427.1266107588463 3354.1470588235293 427.8902297675052 3333.205882352941 428.3120383627645 3312.264705882353 428.9447512556532 3291.323529411765 429.5701915865548 3270.3823529411766 430.181086793482 3249.4411764705883 430.92288811617925 3228.5 431.51923819913185 3228.5 432.8428444808073Z" fill="#005aa6" opacity="0.9" />
		</g>
		<g>
			<rect x="4372" y="431" width="22.9995" height="23" fill="#e62d39" />
		</g>
		<g>
			<text fill="#595959" font-family="Verdana,sans-serif" font-weight="400" font-size="41" transform="matrix(1 0 0 1 4404.56 454)">Smartphone</text>
		</g>
		<g>
			<rect x="4372" y="508" width="22.9995" height="23" fill="#55c0e9" />
		</g>
		<g>
			<text fill="#595959" font-family="Verdana,sans-serif" font-weight="400" font-size="41" transform="matrix(1 0 0 1 4404.56 531)">Tablet</text>
		</g>
		<g>
			<rect x="4372" y="585" width="22.9995" height="23" fill="#f6a118" />
		</g>
		<g>
			<text fill="#595959" font-family="Verdana,sans-serif" font-weight="400" font-size="41" transform="matrix(1 0 0 1 4404.56 608)">Other</text>
		</g>
		<g>
			<rect x="4372" y="662" width="22.9995" height="23" fill="#fdd5a4" />
		</g>
		<g>
			<text fill="#595959" font-family="Verdana,sans-serif" font-weight="400" font-size="41" transform="matrix(1 0 0 1 4404.56 685)">Tv</text>
		</g>
		<g>
			<rect x="4372" y="739" width="22.9995" height="23" fill="#005aa6" />
		</g>
		<g>
			<text fill="#595959" font-family="Verdana,sans-serif" font-weight="400" font-size="41" transform="matrix(1 0 0 1 4404.56 762)">Desktop</text>
		</g>
	</g>
</svg>
