<svg width="1763" height="1046"
    xmlns="http://www.w3.org/2000/svg"
	xmlns:xlink="http://www.w3.org/1999/xlink" xml:space="preserve" overflow="hidden">
	<defs>
		<clipPath id="clip0">
			<rect x="2917" y="346" width="1763" height="1046"/>
		</clipPath>
	</defs>
	<g clip-path="url(#clip0)" transform="translate(-2917 -346)">
		<rect x="2918" y="347" width="1760" height="1043" fill="#FFFFFF" />
		<g>
			<path d="
			M3228.5 974.532 4296.5 974.532
			M3228.5 910.53 4296.5 910.53
			M3228.5 846.528 4296.5 846.528
			M3228.5 781.526 4296.5 781.526
			M3228.5 717.524 4296.5 717.524
			M3228.5 653.522 4296.5 653.522
			M3228.5 589.52 4296.5 589.52
			M3228.5 525.517 4296.5 525.517
			M3228.5 461.515 4296.5 461.515
			M3228.5 397.5 4296.5 397.5" stroke="#D9D9D9" stroke-width="3.4375" stroke-linejoin="round" stroke-miterlimit="10" fill="none" />
		</g>
		<g>
			<path d="M 1038.5 4296.5 1038.5" stroke="#D9D9D9" stroke-width="3.4375" stroke-linejoin="round" stroke-miterlimit="10" fill="none" fill-rule="evenodd" />
		</g>
		<g>
			<text fill="#595959" font-family="Verdana,Open Sans,DejaVu Sans,sans-serif" font-weight="400" font-size="41" transform="matrix(6.12323e-17 -1 1 6.12323e-17 3248.269287109375 1214.75341796875)">12-May</text>
		</g>
		<g>
			<text fill="#595959" font-family="Verdana,Open Sans,DejaVu Sans,sans-serif" font-weight="400" font-size="41" transform="matrix(6.12323e-17 -1 1 6.12323e-17 3332.6382421875 1192.2914962768555)">16-Jun</text>
		</g>
		<g>
			<text fill="#595959" font-family="Verdana,Open Sans,DejaVu Sans,sans-serif" font-weight="400" font-size="41" transform="matrix(6.12323e-17 -1 1 6.12323e-17 3418.808955078125 1177.2768478393555)">14-Jul</text>
		</g>
		<g>
			<text fill="#595959" font-family="Verdana,Open Sans,DejaVu Sans,sans-serif" font-weight="400" font-size="41" transform="matrix(6.12323e-17 -1 1 6.12323e-17 3504.439140625 1206.90576171875)">11-Aug</text>
		</g>
		<g>
			<text fill="#595959" font-family="Verdana,Open Sans,DejaVu Sans,sans-serif" font-weight="400" font-size="41" transform="matrix(6.12323e-17 -1 1 6.12323e-17 3590.049306640625 1204.38330078125)">08-Sep</text>
		</g>
		<g>
			<text fill="#595959" font-family="Verdana,Open Sans,DejaVu Sans,sans-serif" font-weight="400" font-size="41" transform="matrix(6.12323e-17 -1 1 6.12323e-17 3670.764697265625 1201.1000900268555)">06-Oct</text>
		</g>
		<g>
			<text fill="#595959" font-family="Verdana,Open Sans,DejaVu Sans,sans-serif" font-weight="400" font-size="41" transform="matrix(6.12323e-17 -1 1 6.12323e-17 3756.204697265625 1211.43017578125)">03-Nov</text>
		</g>
		<g>
			<text fill="#595959" font-family="Verdana,Open Sans,DejaVu Sans,sans-serif" font-weight="400" font-size="41" transform="matrix(6.12323e-17 -1 1 6.12323e-17 3841.644697265625 1207.0859375)">01-Dec</text>
		</g>
		<g>
			<text fill="#595959" font-family="Verdana,Open Sans,DejaVu Sans,sans-serif" font-weight="400" font-size="41" transform="matrix(6.12323e-17 -1 1 6.12323e-17 3927.064677734375 1207.1259765625)">29-Dec</text>
		</g>
		<g>
			<text fill="#595959" font-family="Verdana,Open Sans,DejaVu Sans,sans-serif" font-weight="400" font-size="41" transform="matrix(6.12323e-17 -1 1 6.12323e-17 4016.1582421875 1191.6909103393555)">26-Jan</text>
		</g>
		<g>
			<text fill="#595959" font-family="Verdana,Open Sans,DejaVu Sans,sans-serif" font-weight="400" font-size="41" transform="matrix(6.12323e-17 -1 1 6.12323e-17 4098.675390625 1203.08203125)">23-Feb</text>
		</g>
		<g>
			<text fill="#595959" font-family="Verdana,Open Sans,DejaVu Sans,sans-serif" font-weight="400" font-size="41" transform="matrix(6.12323e-17 -1 1 6.12323e-17 4183.384677734375 1212.05078125)">23-Mar</text>
		</g>
		<g>
			<text fill="#595959" font-family="Verdana,Open Sans,DejaVu Sans,sans-serif" font-weight="400" font-size="41" transform="matrix(6.12323e-17 -1 1 6.12323e-17 4273.569306640625 1203.3022384643555)">20-Apr</text>
		</g>
		<g>
			<text fill="#595959" font-family="Verdana,Open Sans,DejaVu Sans,sans-serif" font-weight="400" font-size="41" transform="matrix(1 0 0 1 3135.4482421875 1050)">0%</text>
		</g>
		<g>
			<text fill="#595959" font-family="Verdana,Open Sans,DejaVu Sans,sans-serif" font-weight="400" font-size="41" transform="matrix(1 0 0 1 3111.96533203125 922)">20%</text>
		</g>
		<g>
			<text fill="#595959" font-family="Verdana,Open Sans,DejaVu Sans,sans-serif" font-weight="400" font-size="41" transform="matrix(1 0 0 1 3110.82421875 794)">40%</text>
		</g>
		<g>
			<text fill="#595959" font-family="Verdana,Open Sans,DejaVu Sans,sans-serif" font-weight="400" font-size="41" transform="matrix(1 0 0 1 3112.3056640625 666)">60%</text>
		</g>
		<g>
			<text fill="#595959" font-family="Verdana,Open Sans,DejaVu Sans,sans-serif" font-weight="400" font-size="41" transform="matrix(1 0 0 1 3112.04541015625 538)">80%</text>
		</g>
		<g>
			<text fill="#595959" font-family="Verdana,Open Sans,DejaVu Sans,sans-serif" font-weight="400" font-size="41" transform="matrix(1 0 0 1 3090.2841796875 410)">100%</text>
		</g>
		<g>
			<text fill="#595959" font-family="Verdana,Open Sans,DejaVu Sans,sans-serif" font-weight="400" font-size="41" transform="matrix(1 0 0 1 3556.97119140625 1321)">Week Commencing</text>
		</g>
		<g>
			<text fill="#595959" font-family="Verdana,Open Sans,DejaVu Sans,sans-serif" font-weight="400" font-size="46" transform="matrix(6.12323e-17 -1 1 6.12323e-17 3019.73 936.7665710449219)">Requests (% of Total)</text>
		</g>
		<rect x="2918.5" y="347.5" width="1760" height="1043" stroke="#D9D9D9" stroke-width="3.4375" stroke-linejoin="round" stroke-miterlimit="10" fill="none" />
		<g>
			<path d="M3228.5 1038 3249.86 1038 3271.22 1038 3292.58 1038 3313.94 1038 3335.3 1038 3356.66 1038 3378.02 1038 3399.38 1038 3420.74 1038 3442.1 1038 3463.46 1038 3484.82 1038 3506.18 1038 3527.54 1038 3548.9 1038 3570.26 1038 3591.62 1038 3612.98 1038 3634.34 1038 3655.7 1038 3677.06 1038 3698.42 1038 3719.7799999999997 1038 3741.14 1038 3762.5 1038 3783.86 1038 3805.2200000000003 1038 3826.58 1038 3847.94 1038 3869.3 1038 3890.66 1038 3912.02 1038 3933.38 1038 3954.74 1038 3976.1 1038 3997.46 1038 4018.8199999999997 1038 4040.18 1038 4061.54 1038 4082.9 1038 4104.26 1038 4125.62 1038 4146.98 1038 4168.34 1038 4189.7 1038 4211.0599999999995 1038 4232.42 1038 4253.78 1038 4275.139999999999 1038 4296.5 1038 4296.5 514.8699697557453 4275.139999999999 514.4591536928097 4253.78 513.7115682020872 4232.42 513.7040174538956 4211.0599999999995 511.73186653387097 4189.7 511.24288256352213 4168.34 510.6038163301091 4146.98 510.132951236195 4125.62 509.98967442059063 4104.26 509.86699372684916 4082.9 508.8578828355521 4061.54 508.84856730181616 4040.18 509.7800526172698 4018.8199999999997 510.0683304392354 3997.46 509.78758316632 3976.1 510.8817631047316 3954.74 510.8708866486968 3933.38 510.91527035566935 3912.02 511.17358261897925 3890.66 511.20549455604134 3869.3 512.098115952951 3847.94 512.1329612369273 3826.58 512.9189284987364 3805.2200000000003 515.8919455572111 3783.86 514.7969648318594 3762.5 515.125626744456 3741.14 517.3539587629043 3719.7799999999997 517.3728872760798 3698.42 517.3795154992906 3677.06 517.3746698568546 3655.7 518.2845849198919 3634.34 518.2786881359634 3612.98 518.6674644160128 3591.62 519.0934355637311 3570.26 520.9052457535156 3548.9 521.6318852573548 3527.54 521.6184156458323 3506.18 522.2681085366032 3484.82 527.8351358448251 3463.46 527.8182060044346 3442.1 527.8171189568005 3420.74 527.8195281696414 3399.38 527.7185125063723 3378.02 528.1749639028288 3356.66 526.0738068609967 3335.3 526.0690930129186 3313.94 526.4517905907722 3292.58 526.966587562726 3271.22 527.7344479046612 3249.86 528.0922596265774 3228.5 528.3637575953018 3228.5 1038Z" fill="#e62d39" opacity="0.9" />
		</g>
		<g>
			<path d="M3228.5 528.3637575953018 3249.86 528.0922596265774 3271.22 527.7344479046612 3292.58 526.966587562726 3313.94 526.4517905907722 3335.3 526.0690930129186 3356.66 526.0738068609967 3378.02 528.1749639028288 3399.38 527.7185125063723 3420.74 527.8195281696414 3442.1 527.8171189568005 3463.46 527.8182060044346 3484.82 527.8351358448251 3506.18 522.2681085366032 3527.54 521.6184156458323 3548.9 521.6318852573548 3570.26 520.9052457535156 3591.62 519.0934355637311 3612.98 518.6674644160128 3634.34 518.2786881359634 3655.7 518.2845849198919 3677.06 517.3746698568546 3698.42 517.3795154992906 3719.7799999999997 517.3728872760798 3741.14 517.3539587629043 3762.5 515.125626744456 3783.86 514.7969648318594 3805.2200000000003 515.8919455572111 3826.58 512.9189284987364 3847.94 512.1329612369273 3869.3 512.098115952951 3890.66 511.20549455604134 3912.02 511.17358261897925 3933.38 510.91527035566935 3954.74 510.8708866486968 3976.1 510.8817631047316 3997.46 509.78758316632 4018.8199999999997 510.0683304392354 4040.18 509.7800526172698 4061.54 508.84856730181616 4082.9 508.8578828355521 4104.26 509.86699372684916 4125.62 509.98967442059063 4146.98 510.132951236195 4168.34 510.6038163301091 4189.7 511.24288256352213 4211.0599999999995 511.73186653387097 4232.42 513.7040174538956 4253.78 513.7115682020872 4275.139999999999 514.4591536928097 4296.5 514.8699697557453 4296.5 434.41028016829483 4275.139999999999 434.41256244945146 4253.78 434.2514890219162 4232.42 434.3112809177816 4211.0599999999995 433.7867264580397 4189.7 433.5622430486118 4168.34 433.4002138201585 4146.98 433.30898701618065 4125.62 433.292322077633 4104.26 433.3119961556043 4082.9 433.4349407881655 4061.54 433.4317855995608 4040.18 433.4209825154003 4018.8199999999997 433.6740677450532 3997.46 433.75103255338803 3976.1 435.36079839131713 3954.74 435.3425795567811 3933.38 435.3887976286378 3912.02 435.3992247727013 3890.66 435.7778149248337 3869.3 435.69457104984326 3847.94 435.7373894918581 3826.58 436.0183299632218 3805.2200000000003 437.1107633727561 3783.86 436.7049406114033 3762.5 436.8606414580909 3741.14 437.9222955771362 3719.7799999999997 437.9259398239807 3698.42 437.9087165382534 3677.06 437.90716134158686 3655.7 438.3816771158473 3634.34 438.3811488943986 3612.98 438.6583696725575 3591.62 438.939493870515 3570.26 439.76778884064066 3548.9 440.12172845279287 3527.54 440.1025942817036 3506.18 440.43245647629897 3484.82 446.0049434709254 3463.46 445.99448025532104 3442.1 445.9906298366525 3420.74 445.9850763388172 3399.38 446.00044835106377 3378.02 445.48995832347725 3356.66 440.7320769519542 3335.3 440.71015435347675 3313.94 440.79849020545294 3292.58 441.02669160650083 3271.22 441.4805241599953 3249.86 441.7146387359797 3228.5 441.87434560441795 3228.5 528.3637575953018Z" fill="#005aa6" opacity="0.9" />
		</g>
		<g>
			<path d="M3228.5 441.87434560441795 3249.86 441.7146387359797 3271.22 441.4805241599953 3292.58 441.02669160650083 3313.94 440.79849020545294 3335.3 440.71015435347675 3356.66 440.7320769519542 3378.02 445.48995832347725 3399.38 446.00044835106377 3420.74 445.9850763388172 3442.1 445.9906298366525 3463.46 445.99448025532104 3484.82 446.0049434709254 3506.18 440.43245647629897 3527.54 440.1025942817036 3548.9 440.12172845279287 3570.26 439.76778884064066 3591.62 438.939493870515 3612.98 438.6583696725575 3634.34 438.3811488943986 3655.7 438.3816771158473 3677.06 437.90716134158686 3698.42 437.9087165382534 3719.7799999999997 437.9259398239807 3741.14 437.9222955771362 3762.5 436.8606414580909 3783.86 436.7049406114033 3805.2200000000003 437.1107633727561 3826.58 436.0183299632218 3847.94 435.7373894918581 3869.3 435.69457104984326 3890.66 435.7778149248337 3912.02 435.3992247727013 3933.38 435.3887976286378 3954.74 435.3425795567811 3976.1 435.36079839131713 3997.46 433.75103255338803 4018.8199999999997 433.6740677450532 4040.18 433.4209825154003 4061.54 433.4317855995608 4082.9 433.4349407881655 4104.26 433.3119961556043 4125.62 433.292322077633 4146.98 433.30898701618065 4168.34 433.4002138201585 4189.7 433.5622430486118 4211.0599999999995 433.7867264580397 4232.42 434.3112809177816 4253.78 434.2514890219162 4275.139999999999 434.41256244945146 4296.5 434.41028016829483 4296.5 419.1905897446522 4275.139999999999 419.3252006349649 4253.78 419.3173788245391 4232.42 419.38277881126857 4211.0599999999995 419.06411966387026 4189.7 418.9097932778808 4168.34 418.82069167553175 4146.98 418.78153120455926 4125.62 418.761446442615 4104.26 418.77023699293045 4082.9 418.9275739202609 4061.54 418.92551623383343 4040.18 418.96035428104784 4018.8199999999997 419.15736729425555 3997.46 419.17384173683575 3976.1 420.87551367904683 3954.74 420.8556038374519 3933.38 420.90079943263 3912.02 420.9199678677945 3890.66 421.17546638387716 3869.3 421.2737767063939 3847.94 421.31851350204755 3826.58 421.5482860386991 3805.2200000000003 422.28800089553556 3783.86 422.10195037941145 3762.5 422.2371615504225 3741.14 423.16774393881434 3719.7799999999997 423.167665092679 3698.42 423.14655140370303 3677.06 423.1457070138017 3655.7 423.56516266700936 3634.34 423.5655214379781 3612.98 423.8109003038261 3591.62 424.0558120196192 3570.26 424.7181344913808 3548.9 425.0236349944547 3527.54 425.0035344441698 3506.18 425.28465904377634 3484.82 430.8274530925998 3463.46 430.81817356835387 3442.1 430.8139007331268 3420.74 430.8069864095142 3399.38 430.9020970833825 3378.02 430.23142599790555 3356.66 425.0017650883845 3335.3 424.9767523660499 3313.94 425.0257701995382 3292.58 425.20583580775155 3271.22 425.4986687976815 3249.86 425.6867840212037 3228.5 425.8119685721377 3228.5 441.87434560441795Z" fill="#55c0e9" opacity="0.9" />
		</g>
		<g>
			<path d="M3228.5 425.8119685721377 3249.86 425.6867840212037 3271.22 425.4986687976815 3292.58 425.20583580775155 3313.94 425.0257701995382 3335.3 424.9767523660499 3356.66 425.0017650883845 3378.02 430.23142599790555 3399.38 430.9020970833825 3420.74 430.8069864095142 3442.1 430.8139007331268 3463.46 430.81817356835387 3484.82 430.8274530925998 3506.18 425.28465904377634 3527.54 425.0035344441698 3548.9 425.0236349944547 3570.26 424.7181344913808 3591.62 424.0558120196192 3612.98 423.8109003038261 3634.34 423.5655214379781 3655.7 423.56516266700936 3677.06 423.1457070138017 3698.42 423.14655140370303 3719.7799999999997 423.167665092679 3741.14 423.16774393881434 3762.5 422.2371615504225 3783.86 422.10195037941145 3805.2200000000003 422.28800089553556 3826.58 421.5482860386991 3847.94 421.31851350204755 3869.3 421.2737767063939 3890.66 421.17546638387716 3912.02 420.9199678677945 3933.38 420.90079943263 3954.74 420.8556038374519 3976.1 420.87551367904683 3997.46 419.17384173683575 4018.8199999999997 419.15736729425555 4040.18 418.96035428104784 4061.54 418.92551623383343 4082.9 418.9275739202609 4104.26 418.77023699293045 4125.62 418.761446442615 4146.98 418.78153120455926 4168.34 418.82069167553175 4189.7 418.9097932778808 4211.0599999999995 419.06411966387026 4232.42 419.38277881126857 4253.78 419.3173788245391 4275.139999999999 419.3252006349649 4296.5 419.1905897446522 4296.5 407.9818173974173 4275.139999999999 408.11018073556585 4253.78 408.1048162089461 4232.42 408.0817858854454 4211.0599999999995 407.87702549305874 4189.7 407.75714820436707 4168.34 407.68691925855956 4146.98 407.6472692730448 4125.62 407.61824955966534 4104.26 407.61722466292395 4082.9 407.63262030600544 4061.54 407.63004242027574 4040.18 407.6085547272844 4018.8199999999997 407.70041641084794 3997.46 407.73331438233555 3976.1 409.46082329286793 3954.74 409.44561346924576 3933.38 409.4552564157993 3912.02 409.442567653401 3890.66 409.50831649918746 3869.3 409.55722453750167 3847.94 409.60566872011515 3826.58 409.72296665824126 3805.2200000000003 410.10948315685346 3783.86 410.00098369930805 3762.5 410.02158135972263 3741.14 410.3831921847201 3719.7799999999997 410.3816258742522 3698.42 410.3693732840644 3677.06 410.36817686183286 3655.7 410.49749865569987 3634.34 410.49874026393246 3612.98 410.5976679252191 3591.62 410.7016436985356 3570.26 410.9789161674267 3548.9 411.1035757536376 3527.54 411.0839891917173 3506.18 411.22347657579 3484.82 416.32051328878225 3463.46 416.3159617889731 3442.1 416.31921689377526 3420.74 416.31736632943614 3399.38 416.3210682719641 3378.02 415.85243189703715 3356.66 410.86025631578275 3335.3 410.8513168557256 3313.94 410.8010080993925 3292.58 410.8532595598375 3271.22 410.9689719408518 3249.86 411.04822058755076 3228.5 411.09796238059005 3228.5 425.8119685721377Z" fill="#f6a118" opacity="0.9" />
		</g>
		<g>
			<path d="M3228.5 411.09796238059005 3249.86 411.04822058755076 3271.22 410.9689719408518 3292.58 410.8532595598375 3313.94 410.8010080993925 3335.3 410.8513168557256 3356.66 410.86025631578275 3378.02 415.85243189703715 3399.38 416.3210682719641 3420.74 416.31736632943614 3442.1 416.31921689377526 3463.46 416.3159617889731 3484.82 416.32051328878225 3506.18 411.22347657579 3527.54 411.0839891917173 3548.9 411.1035757536376 3570.26 410.9789161674267 3591.62 410.7016436985356 3612.98 410.5976679252191 3634.34 410.49874026393246 3655.7 410.49749865569987 3677.06 410.36817686183286 3698.42 410.3693732840644 3719.7799999999997 410.3816258742522 3741.14 410.3831921847201 3762.5 410.02158135972263 3783.86 410.00098369930805 3805.2200000000003 410.10948315685346 3826.58 409.72296665824126 3847.94 409.60566872011515 3869.3 409.55722453750167 3890.66 409.50831649918746 3912.02 409.442567653401 3933.38 409.4552564157993 3954.74 409.44561346924576 3976.1 409.46082329286793 3997.46 407.73331438233555 4018.8199999999997 407.70041641084794 4040.18 407.6085547272844 4061.54 407.63004242027574 4082.9 407.63262030600544 4104.26 407.61722466292395 4125.62 407.61824955966534 4146.98 407.6472692730448 4168.34 407.68691925855956 4189.7 407.75714820436707 4211.0599999999995 407.87702549305874 4232.42 408.0817858854454 4253.78 408.1048162089461 4275.139999999999 408.11018073556585 4296.5 407.9818173974173 4296.5 401.6209440754654 4275.139999999999 401.61138841718946 4253.78 401.5713543251516 4232.42 401.5224410608846 4211.0599999999995 401.3910702758112 4189.7 401.2959815163896 4168.34 401.2284149226283 4146.98 401.2178574312743 4125.62 401.2271449370171 4104.26 401.22998698493177 4082.9 401.24723467475025 4061.54 401.24799680108157 4040.18 401.25127865193434 4018.8199999999997 401.2738697689626 3997.46 401.29212425152997 3976.1 402.9378506891094 3954.74 402.9552515332576 3933.38 402.9599325586472 3912.02 402.96405971887924 3890.66 403.01449278802465 3869.3 402.9591913948528 3847.94 403.01566327837304 3826.58 403.0312697625879 3805.2200000000003 403.17379003690496 3783.86 403.039123205232 3762.5 403.0276937585125 3741.14 402.88697047759695 3719.7799999999997 402.8853442705775 3698.42 402.8987404525652 3677.06 402.9002345633593 3655.7 402.80439160515203 3634.34 402.8071737793706 3612.98 402.7885058788081 3591.62 402.75682438501997 3570.26 402.64364301985916 3548.9 402.6213127942401 3527.54 402.6374941256268 3506.18 402.6382934643876 3484.82 407.18303418872716 3463.46 407.1809148990988 3442.1 407.1872998554764 3420.74 407.1917111103271 3399.38 407.1621562125779 3378.02 406.9309868112197 3356.66 402.3499262788061 3335.3 402.3497550933614 3313.94 402.31710391583925 3292.58 402.31377839166817 3271.22 402.32705082967294 3249.86 402.3105155472352 3228.5 402.3328782432905 3228.5 411.09796238059005Z" fill="#fdd5a4" opacity="0.9" />
		</g>
		<g>
			<path d="M3228.5 402.3328782432905 3249.86 402.3105155472352 3271.22 402.32705082967294 3292.58 402.31377839166817 3313.94 402.31710391583925 3335.3 402.3497550933614 3356.66 402.3499262788061 3378.02 406.9309868112197 3399.38 407.1621562125779 3420.74 407.1917111103271 3442.1 407.1872998554764 3463.46 407.1809148990988 3484.82 407.18303418872716 3506.18 402.6382934643876 3527.54 402.6374941256268 3548.9 402.6213127942401 3570.26 402.64364301985916 3591.62 402.75682438501997 3612.98 402.7885058788081 3634.34 402.8071737793706 3655.7 402.80439160515203 3677.06 402.9002345633593 3698.42 402.8987404525652 3719.7799999999997 402.8853442705775 3741.14 402.88697047759695 3762.5 403.0276937585125 3783.86 403.039123205232 3805.2200000000003 403.17379003690496 3826.58 403.0312697625879 3847.94 403.01566327837304 3869.3 402.9591913948528 3890.66 403.01449278802465 3912.02 402.96405971887924 3933.38 402.9599325586472 3954.74 402.9552515332576 3976.1 402.9378506891094 3997.46 401.29212425152997 4018.8199999999997 401.2738697689626 4040.18 401.25127865193434 4061.54 401.24799680108157 4082.9 401.24723467475025 4104.26 401.22998698493177 4125.62 401.2271449370171 4146.98 401.2178574312743 4168.34 401.2284149226283 4189.7 401.2959815163896 4211.0599999999995 401.3910702758112 4232.42 401.5224410608846 4253.78 401.5713543251516 4275.139999999999 401.61138841718946 4296.5 401.6209440754654 4296.5 397.99999999999994 4275.139999999999 398 4253.78 398 4232.42 398.00000000000006 4211.0599999999995 398 4189.7 398.00000000000006 4168.34 397.9999999999999 4146.98 398.0000000000001 4125.62 398.0000000000001 4104.26 398 4082.9 398 4061.54 398.00000000000006 4040.18 398 4018.8199999999997 397.99999999999994 3997.46 397.99999999999994 3976.1 398.00000000000006 3954.74 397.99999999999994 3933.38 397.9999999999999 3912.02 398 3890.66 398 3869.3 398.00000000000006 3847.94 397.99999999999994 3826.58 398.00000000000006 3805.2200000000003 397.99999999999994 3783.86 398 3762.5 398 3741.14 397.9999999999999 3719.7799999999997 398.00000000000006 3698.42 398.0000000000001 3677.06 398.00000000000006 3655.7 398 3634.34 397.99999999999994 3612.98 398 3591.62 398 3570.26 398 3548.9 397.99999999999994 3527.54 398.00000000000006 3506.18 397.99999999999994 3484.82 397.9999999999999 3463.46 398.0000000000001 3442.1 397.99999999999994 3420.74 398 3399.38 398 3378.02 398 3356.66 398 3335.3 398 3313.94 398.00000000000006 3292.58 398 3271.22 398.0000000000001 3249.86 398.0000000000001 3228.5 398 3228.5 402.3328782432905Z" fill="#393d41" opacity="0.9" />
		</g>
		<g>
			<rect x="4372" y="431" width="22.9995" height="23" fill="#e62d39" />
		</g>
		<g>
			<text fill="#595959" font-family="Verdana,Open Sans,DejaVu Sans,sans-serif" font-weight="400" font-size="41" transform="matrix(1 0 0 1 4404.56 454)">Smartphone</text>
		</g>
		<g>
			<rect x="4372" y="508" width="22.9995" height="23" fill="#005aa6" />
		</g>
		<g>
			<text fill="#595959" font-family="Verdana,Open Sans,DejaVu Sans,sans-serif" font-weight="400" font-size="41" transform="matrix(1 0 0 1 4404.56 531)">Desktop</text>
		</g>
		<g>
			<rect x="4372" y="585" width="22.9995" height="23" fill="#55c0e9" />
		</g>
		<g>
			<text fill="#595959" font-family="Verdana,Open Sans,DejaVu Sans,sans-serif" font-weight="400" font-size="41" transform="matrix(1 0 0 1 4404.56 608)">Other</text>
		</g>
		<g>
			<rect x="4372" y="662" width="22.9995" height="23" fill="#f6a118" />
		</g>
		<g>
			<text fill="#595959" font-family="Verdana,Open Sans,DejaVu Sans,sans-serif" font-weight="400" font-size="41" transform="matrix(1 0 0 1 4404.56 685)">Tablet</text>
		</g>
		<g>
			<rect x="4372" y="739" width="22.9995" height="23" fill="#fdd5a4" />
		</g>
		<g>
			<text fill="#595959" font-family="Verdana,Open Sans,DejaVu Sans,sans-serif" font-weight="400" font-size="41" transform="matrix(1 0 0 1 4404.56 762)">Tv</text>
		</g>
		<g>
			<rect x="4372" y="816" width="22.9995" height="23" fill="#393d41" />
		</g>
		<g>
			<text fill="#595959" font-family="Verdana,Open Sans,DejaVu Sans,sans-serif" font-weight="400" font-size="41" transform="matrix(1 0 0 1 4404.56 839)">Unclassified</text>
		</g>
	</g>
</svg>
