<svg width="1763" height="1046"
    xmlns="http://www.w3.org/2000/svg"
	xmlns:xlink="http://www.w3.org/1999/xlink" xml:space="preserve" overflow="hidden">
	<defs>
		<clipPath id="clip0">
			<rect x="2917" y="346" width="1763" height="1046"/>
		</clipPath>
	</defs>
	<g clip-path="url(#clip0)" transform="translate(-2917 -346)">
		<rect x="2918" y="347" width="1760" height="1043" fill="#FFFFFF" />
		<g>
			<path d="
			M3228.5 974.532 4296.5 974.532
			M3228.5 910.53 4296.5 910.53
			M3228.5 846.528 4296.5 846.528
			M3228.5 781.526 4296.5 781.526
			M3228.5 717.524 4296.5 717.524
			M3228.5 653.522 4296.5 653.522
			M3228.5 589.52 4296.5 589.52
			M3228.5 525.517 4296.5 525.517
			M3228.5 461.515 4296.5 461.515
			M3228.5 397.5 4296.5 397.5" stroke="#D9D9D9" stroke-width="3.4375" stroke-linejoin="round" stroke-miterlimit="10" fill="none" />
		</g>
		<g>
			<path d="M 1038.5 4296.5 1038.5" stroke="#D9D9D9" stroke-width="3.4375" stroke-linejoin="round" stroke-miterlimit="10" fill="none" fill-rule="evenodd" />
		</g>
		<g>
			<text fill="#595959" font-family="Verdana,sans-serif" font-weight="400" font-size="41" transform="matrix(6.12323e-17 -1 1 6.12323e-17 3244.5 1225)">06-Nov</text>
		</g>
		<g>
			<text fill="#595959" font-family="Verdana,sans-serif" font-weight="400" font-size="41" transform="matrix(6.12323e-17 -1 1 6.12323e-17 3366.557142857143 1223)">04-Dec</text>
		</g>
		<g>
			<text fill="#595959" font-family="Verdana,sans-serif" font-weight="400" font-size="41" transform="matrix(6.12323e-17 -1 1 6.12323e-17 3488.614285714286 1210)">01-Jan</text>
		</g>
		<g>
			<text fill="#595959" font-family="Verdana,sans-serif" font-weight="400" font-size="41" transform="matrix(6.12323e-17 -1 1 6.12323e-17 3610.671428571429 1210)">29-Jan</text>
		</g>
		<g>
			<text fill="#595959" font-family="Verdana,sans-serif" font-weight="400" font-size="41" transform="matrix(6.12323e-17 -1 1 6.12323e-17 3732.7285714285713 1216)">26-Feb</text>
		</g>
		<g>
			<text fill="#595959" font-family="Verdana,sans-serif" font-weight="400" font-size="41" transform="matrix(6.12323e-17 -1 1 6.12323e-17 3854.785714285714 1223)">25-Mar</text>
		</g>
		<g>
			<text fill="#595959" font-family="Verdana,sans-serif" font-weight="400" font-size="41" transform="matrix(6.12323e-17 -1 1 6.12323e-17 3980.342857142857 1216)">22-Apr</text>
		</g>
		<g>
			<text fill="#595959" font-family="Verdana,sans-serif" font-weight="400" font-size="41" transform="matrix(6.12323e-17 -1 1 6.12323e-17 4102.4 1228)">20-May</text>
		</g>
		<g>
			<text fill="#595959" font-family="Verdana,sans-serif" font-weight="400" font-size="41" transform="matrix(6.12323e-17 -1 1 6.12323e-17 4220.457142857143 1209)">17-Jun</text>
		</g>
		<g>
			<text fill="#595959" font-family="Verdana,sans-serif" font-weight="400" font-size="41" transform="matrix(1 0 0 1 3167.5 1050)">0</text>
		</g>
		<g>
			<text fill="#595959" font-family="Verdana,sans-serif" font-weight="400" font-size="41" transform="matrix(1 0 0 1 3051.5 922)">17,130</text>
		</g>
		<g>
			<text fill="#595959" font-family="Verdana,sans-serif" font-weight="400" font-size="41" transform="matrix(1 0 0 1 3048.5 794)">34,260</text>
		</g>
		<g>
			<text fill="#595959" font-family="Verdana,sans-serif" font-weight="400" font-size="41" transform="matrix(1 0 0 1 3049.5 666)">51,390</text>
		</g>
		<g>
			<text fill="#595959" font-family="Verdana,sans-serif" font-weight="400" font-size="41" transform="matrix(1 0 0 1 3048.5 538)">68,520</text>
		</g>
		<g>
			<text fill="#595959" font-family="Verdana,sans-serif" font-weight="400" font-size="41" transform="matrix(1 0 0 1 3047.5 410)">85,650</text>
		</g>
		<g>
			<text fill="#595959" font-family="Verdana,sans-serif" font-weight="400" font-size="41" transform="matrix(1 0 0 1 3544.5 1321)">Week Commencing</text>
		</g>
		<g>
			<text fill="#595959" font-family="Verdana,sans-serif" font-weight="400" font-size="46" transform="matrix(6.12323e-17 -1 1 6.12323e-17 3019.73 1048.25)">Number of Hardware Profiles</text>
		</g>
		<rect x="2918.5" y="347.5" width="1760" height="1043" stroke="#D9D9D9" stroke-width="3.4375" stroke-linejoin="round" stroke-miterlimit="10" fill="none" />
		<g>
			<path d="M3228.5 1038 3259.0142857142855 1038 3289.5285714285715 1038 3320.042857142857 1038 3350.557142857143 1038 3381.0714285714284 1038 3411.5857142857144 1038 3442.1 1038 3472.614285714286 1038 3503.1285714285714 1038 3533.6428571428573 1038 3564.157142857143 1038 3594.671428571429 1038 3625.1857142857143 1038 3655.7 1038 3686.214285714286 1038 3716.7285714285713 1038 3747.2428571428572 1038 3777.7571428571428 1038 3808.2714285714287 1038 3838.785714285714 1038 3869.3 1038 3899.8142857142857 1038 3930.328571428571 1038 3960.842857142857 1038 3991.357142857143 1038 4021.8714285714286 1038 4052.385714285714 1038 4082.9 1038 4113.414285714286 1038 4143.928571428572 1038 4174.442857142857 1038 4204.957142857143 1038 4235.471428571429 1038 4265.9857142857145 1038 4296.5 1038 4296.5 689.0673671920607 4265.9857142857145 689.3812025685932 4235.471428571429 689.7099824868651 4204.957142857143 689.9864565090485 4174.442857142857 690.0163455925277 4143.928571428572 690.1508464681845 4113.414285714286 690.2330414477525 4082.9 690.5618213660246 4052.385714285714 690.8009340338588 4021.8714285714286 690.9653239929947 3991.357142857143 691.2716870986574 3960.842857142857 691.6527729130181 3930.328571428571 692.1085814360771 3899.8142857142857 692.482194979568 3869.3 692.8109748978401 3838.785714285714 693.0426152948045 3808.2714285714287 693.3190893169877 3777.7571428571428 693.5656742556918 3747.2428571428572 693.7524810274373 3716.7285714285713 693.9168709865733 3686.214285714286 694.0364273204904 3655.7 694.2307063631057 3625.1857142857143 694.4324576765907 3594.671428571429 694.9256275539988 3564.157142857143 695.2842965557502 3533.6428571428573 695.7326328079394 3503.1285714285714 696.1959136018681 3472.614285714286 696.5396380618797 3442.1 696.4798598949212 3411.5857142857144 696.7712784588441 3381.0714285714284 697.107530647986 3350.557142857143 697.3765323992995 3320.042857142857 697.7352014010507 3289.5285714285715 698.0415645067134 3259.0142857142855 698.347927612376 3228.5 698.8336252189142 3228.5 1038Z" fill="#e62d39" opacity="0.9" />
		</g>
		<g>
			<path d="M3228.5 698.8336252189142 3259.0142857142855 698.347927612376 3289.5285714285715 698.0415645067134 3320.042857142857 697.7352014010507 3350.557142857143 697.3765323992995 3381.0714285714284 697.107530647986 3411.5857142857144 696.7712784588441 3442.1 696.4798598949212 3472.614285714286 696.5396380618797 3503.1285714285714 696.1959136018681 3533.6428571428573 695.7326328079394 3564.157142857143 695.2842965557502 3594.671428571429 694.9256275539988 3625.1857142857143 694.4324576765907 3655.7 694.2307063631057 3686.214285714286 694.0364273204904 3716.7285714285713 693.9168709865733 3747.2428571428572 693.7524810274373 3777.7571428571428 693.5656742556918 3808.2714285714287 693.3190893169877 3838.785714285714 693.0426152948045 3869.3 692.8109748978401 3899.8142857142857 692.482194979568 3930.328571428571 692.1085814360771 3960.842857142857 691.6527729130181 3991.357142857143 691.2716870986574 4021.8714285714286 690.9653239929947 4052.385714285714 690.8009340338588 4082.9 690.5618213660246 4113.414285714286 690.2330414477525 4143.928571428572 690.1508464681845 4174.442857142857 690.0163455925277 4204.957142857143 689.9864565090485 4235.471428571429 689.7099824868651 4265.9857142857145 689.3812025685932 4296.5 689.0673671920607 4296.5 520.5078809106831 4265.9857142857145 520.9562171628722 4235.471428571429 521.1878575598365 4204.957142857143 521.539054290718 4174.442857142857 521.5913601868068 4143.928571428572 521.7632224168126 4113.414285714286 521.8528896672505 4082.9 522.323642732049 4052.385714285714 522.779451255108 4021.8714285714286 523.1680093403386 3991.357142857143 523.646234676007 3960.842857142857 524.2215995329831 3930.328571428571 524.8941039112668 3899.8142857142857 525.4545242265033 3869.3 525.9476941039113 3838.785714285714 526.2615294804438 3808.2714285714287 526.620198482195 3777.7571428571428 526.9863397548161 3747.2428571428572 527.2329246935202 3716.7285714285713 527.5093987157035 3686.214285714286 527.6887332165791 3655.7 527.9801517805021 3625.1857142857143 528.2566258026853 3594.671428571429 528.8544074722709 3564.157142857143 529.3401050788092 3533.6428571428573 529.9154699357853 3503.1285714285714 530.5207238762406 3472.614285714286 530.9989492119089 3442.1 530.9466433158202 3411.5857142857144 531.3127845884413 3381.0714285714284 531.7984821949796 3350.557142857143 532.3439579684764 3320.042857142857 532.934267367192 3289.5285714285715 533.5768826619965 3259.0142857142855 534.1597197898425 3228.5 534.8322241681261 3228.5 698.8336252189142Z" fill="#f6a118" opacity="0.9" />
		</g>
		<g>
			<path d="M3228.5 534.8322241681261 3259.0142857142855 534.1597197898425 3289.5285714285715 533.5768826619965 3320.042857142857 532.934267367192 3350.557142857143 532.3439579684764 3381.0714285714284 531.7984821949796 3411.5857142857144 531.3127845884413 3442.1 530.9466433158202 3472.614285714286 530.9989492119089 3503.1285714285714 530.5207238762406 3533.6428571428573 529.9154699357853 3564.157142857143 529.3401050788092 3594.671428571429 528.8544074722709 3625.1857142857143 528.2566258026853 3655.7 527.9801517805021 3686.214285714286 527.6887332165791 3716.7285714285713 527.5093987157035 3747.2428571428572 527.2329246935202 3777.7571428571428 526.9863397548161 3808.2714285714287 526.620198482195 3838.785714285714 526.2615294804438 3869.3 525.9476941039113 3899.8142857142857 525.4545242265033 3930.328571428571 524.8941039112668 3960.842857142857 524.2215995329831 3991.357142857143 523.646234676007 4021.8714285714286 523.1680093403386 4052.385714285714 522.779451255108 4082.9 522.323642732049 4113.414285714286 521.8528896672505 4143.928571428572 521.7632224168126 4174.442857142857 521.5913601868068 4204.957142857143 521.539054290718 4235.471428571429 521.1878575598365 4265.9857142857145 520.9562171628722 4296.5 520.5078809106831 4296.5 442.3778166958553 4265.9857142857145 442.8485697606539 4235.471428571429 443.30437828371277 4204.957142857143 443.6705195563339 4174.442857142857 443.7302977232925 4143.928571428572 443.91710449503796 4113.414285714286 444.01424401634563 4082.9 444.5148861646235 4052.385714285714 445.0155283129014 4021.8714285714286 445.43397548161124 3991.357142857143 445.9495621716287 3960.842857142857 446.57723292469353 3930.328571428571 447.2870986573264 3899.8142857142857 447.8624635143025 3869.3 448.4004670169294 3838.785714285714 448.7292469352015 3808.2714285714287 449.11780502043194 3777.7571428571428 449.49889083479275 3747.2428571428572 449.7529480443667 3716.7285714285713 450.0518388791594 3686.214285714286 450.2461179217746 3655.7 450.55248102743724 3625.1857142857143 450.8588441330998 3594.671428571429 451.46409807355514 3564.157142857143 451.97221249270297 3533.6428571428573 452.56252189141867 3503.1285714285714 453.22755399883255 3472.614285714286 453.73566841798015 3442.1 453.73566841798015 3411.5857142857144 454.1092819614711 3381.0714285714284 454.68464681844716 3350.557142857143 455.26748394629305 3320.042857142857 455.8652656158785 3289.5285714285715 456.5452422650321 3259.0142857142855 457.18785755983663 3228.5 457.912667834209 3228.5 534.8322241681261Z" fill="#55c0e9" opacity="0.9" />
		</g>
		<g>
			<path d="M3228.5 457.912667834209 3259.0142857142855 457.18785755983663 3289.5285714285715 456.5452422650321 3320.042857142857 455.8652656158785 3350.557142857143 455.26748394629305 3381.0714285714284 454.68464681844716 3411.5857142857144 454.1092819614711 3442.1 453.73566841798015 3472.614285714286 453.73566841798015 3503.1285714285714 453.22755399883255 3533.6428571428573 452.56252189141867 3564.157142857143 451.97221249270297 3594.671428571429 451.46409807355514 3625.1857142857143 450.8588441330998 3655.7 450.55248102743724 3686.214285714286 450.2461179217746 3716.7285714285713 450.0518388791594 3747.2428571428572 449.7529480443667 3777.7571428571428 449.49889083479275 3808.2714285714287 449.11780502043194 3838.785714285714 448.7292469352015 3869.3 448.4004670169294 3899.8142857142857 447.8624635143025 3930.328571428571 447.2870986573264 3960.842857142857 446.57723292469353 3991.357142857143 445.9495621716287 4021.8714285714286 445.43397548161124 4052.385714285714 445.0155283129014 4082.9 444.5148861646235 4113.414285714286 444.01424401634563 4143.928571428572 443.91710449503796 4174.442857142857 443.7302977232925 4204.957142857143 443.6705195563339 4235.471428571429 443.30437828371277 4265.9857142857145 442.8485697606539 4296.5 442.3778166958553 4296.5 399.3748978400468 4265.9857142857145 400.12959719789853 4235.471428571429 400.8394629305312 4204.957142857143 401.54932866316403 4174.442857142857 402.251722124927 4143.928571428572 402.9242265032108 4113.414285714286 403.5967308814945 4082.9 404.3663747810858 4052.385714285714 404.9716287215412 4021.8714285714286 405.5320490367776 3991.357142857143 406.1896088733217 3960.842857142857 406.97419731465266 3930.328571428571 407.73636894337426 3899.8142857142857 408.43129013426744 3869.3 409.00665499124347 3838.785714285714 409.36532399299483 3808.2714285714287 409.806187974314 3777.7571428571428 410.2096906012843 3747.2428571428572 410.59077641564517 3716.7285714285713 411.0690017513135 3686.214285714286 411.71161704611785 3655.7 412.49620548744895 3625.1857142857143 412.92959719789843 3594.671428571429 413.57968476357263 3564.157142857143 414.22230005837724 3533.6428571428573 414.849970811442 3503.1285714285714 415.61214244016355 3472.614285714286 416.22486865148863 3442.1 416.22486865148863 3411.5857142857144 416.68814944541737 3381.0714285714284 417.3681260945709 3350.557142857143 418.0555750145943 3320.042857142857 418.7953298307063 3289.5285714285715 419.6098073555166 3259.0142857142855 420.32714535901937 3228.5 421.17151196730885 3228.5 457.912667834209Z" fill="#fdd5a4" opacity="0.9" />
		</g>
		<g>
			<path d="M3228.5 421.17151196730885 3259.0142857142855 420.32714535901937 3289.5285714285715 419.6098073555166 3320.042857142857 418.7953298307063 3350.557142857143 418.0555750145943 3381.0714285714284 417.3681260945709 3411.5857142857144 416.68814944541737 3442.1 416.22486865148863 3472.614285714286 416.22486865148863 3503.1285714285714 415.61214244016355 3533.6428571428573 414.849970811442 3564.157142857143 414.22230005837724 3594.671428571429 413.57968476357263 3625.1857142857143 412.92959719789843 3655.7 412.49620548744895 3686.214285714286 411.71161704611785 3716.7285714285713 411.0690017513135 3747.2428571428572 410.59077641564517 3777.7571428571428 410.2096906012843 3808.2714285714287 409.806187974314 3838.785714285714 409.36532399299483 3869.3 409.00665499124347 3899.8142857142857 408.43129013426744 3930.328571428571 407.73636894337426 3960.842857142857 406.97419731465266 3991.357142857143 406.1896088733217 4021.8714285714286 405.5320490367776 4052.385714285714 404.9716287215412 4082.9 404.3663747810858 4113.414285714286 403.5967308814945 4143.928571428572 402.9242265032108 4174.442857142857 402.251722124927 4204.957142857143 401.54932866316403 4235.471428571429 400.8394629305312 4265.9857142857145 400.12959719789853 4296.5 399.3748978400468 4296.5 398.0000000000001 4265.9857142857145 398.75469935785185 4235.471428571429 399.46456509048454 4204.957142857143 400.17443082311735 4174.442857142857 400.87682428488034 4143.928571428572 401.5493286631641 4113.414285714286 402.22183304144784 4082.9 402.99147694103914 4052.385714285714 403.5967308814945 4021.8714285714286 404.1571511967309 3991.357142857143 404.814711033275 3960.842857142857 405.59929947460597 3930.328571428571 406.3614711033276 3899.8142857142857 407.0713368359604 3869.3 407.6467016929364 3838.785714285714 408.00537069468777 3808.2714285714287 408.44623467600695 3777.7571428571428 408.84973730297725 3747.2428571428572 409.2308231173381 3716.7285714285713 409.70904845300646 3686.214285714286 410.3516637478108 3655.7 411.1362521891419 3625.1857142857143 411.56964389959137 3594.671428571429 412.21973146526557 3564.157142857143 412.8623467600702 3533.6428571428573 413.49001751313494 3503.1285714285714 414.2521891418565 3472.614285714286 414.8649153531816 3442.1 414.8649153531816 3411.5857142857144 415.35808523058955 3381.0714285714284 416.045534150613 3350.557142857143 416.73298307063635 3320.042857142857 417.47273788674835 3289.5285714285715 418.28721541155863 3259.0142857142855 419.0045534150614 3228.5 419.8489200233509 3228.5 421.17151196730885Z" fill="#005aa6" opacity="0.9" />
		</g>
		<g>
			<rect x="4372" y="431" width="22.9995" height="23" fill="#e62d39" />
		</g>
		<g>
			<text fill="#595959" font-family="Verdana,sans-serif" font-weight="400" font-size="41" transform="matrix(1 0 0 1 4404.56 454)">Smartphone</text>
		</g>
		<g>
			<rect x="4372" y="508" width="22.9995" height="23" fill="#f6a118" />
		</g>
		<g>
			<text fill="#595959" font-family="Verdana,sans-serif" font-weight="400" font-size="41" transform="matrix(1 0 0 1 4404.56 531)">Tablet</text>
		</g>
		<g>
			<rect x="4372" y="585" width="22.9995" height="23" fill="#55c0e9" />
		</g>
		<g>
			<text fill="#595959" font-family="Verdana,sans-serif" font-weight="400" font-size="41" transform="matrix(1 0 0 1 4404.56 608)">Other</text>
		</g>
		<g>
			<rect x="4372" y="662" width="22.9995" height="23" fill="#fdd5a4" />
		</g>
		<g>
			<text fill="#595959" font-family="Verdana,sans-serif" font-weight="400" font-size="41" transform="matrix(1 0 0 1 4404.56 685)">Tv</text>
		</g>
		<g>
			<rect x="4372" y="739" width="22.9995" height="23" fill="#005aa6" />
		</g>
		<g>
			<text fill="#595959" font-family="Verdana,sans-serif" font-weight="400" font-size="41" transform="matrix(1 0 0 1 4404.56 762)">Desktop</text>
		</g>
	</g>
</svg>
