<svg width="1763" height="1046"
    xmlns="http://www.w3.org/2000/svg"
	xmlns:xlink="http://www.w3.org/1999/xlink" xml:space="preserve" overflow="hidden">
	<defs>
		<clipPath id="clip0">
			<rect x="2917" y="346" width="1763" height="1046"/>
		</clipPath>
	</defs>
	<g clip-path="url(#clip0)" transform="translate(-2917 -346)">
		<rect x="2918" y="347" width="1760" height="1043" fill="#FFFFFF" />
		<g>
			<path d="
			M3228.5 974.532 4296.5 974.532
			M3228.5 910.53 4296.5 910.53
			M3228.5 846.528 4296.5 846.528
			M3228.5 781.526 4296.5 781.526
			M3228.5 717.524 4296.5 717.524
			M3228.5 653.522 4296.5 653.522
			M3228.5 589.52 4296.5 589.52
			M3228.5 525.517 4296.5 525.517
			M3228.5 461.515 4296.5 461.515
			M3228.5 397.5 4296.5 397.5" stroke="#D9D9D9" stroke-width="3.4375" stroke-linejoin="round" stroke-miterlimit="10" fill="none" />
		</g>
		<g>
			<path d="M 1038.5 4296.5 1038.5" stroke="#D9D9D9" stroke-width="3.4375" stroke-linejoin="round" stroke-miterlimit="10" fill="none" fill-rule="evenodd" />
		</g>
		<g>
			<text fill="#595959" font-family="Verdana,sans-serif" font-weight="400" font-size="41" transform="matrix(6.12323e-17 -1 1 6.12323e-17 3248 1228)">27-May</text>
		</g>
		<g>
			<text fill="#595959" font-family="Verdana,sans-serif" font-weight="400" font-size="41" transform="matrix(6.12323e-17 -1 1 6.12323e-17 3329.94 1211)">24-Jun</text>
		</g>
		<g>
			<text fill="#595959" font-family="Verdana,sans-serif" font-weight="400" font-size="41" transform="matrix(6.12323e-17 -1 1 6.12323e-17 3415.38 1196)">22-Jul</text>
		</g>
		<g>
			<text fill="#595959" font-family="Verdana,sans-serif" font-weight="400" font-size="41" transform="matrix(6.12323e-17 -1 1 6.12323e-17 3504.32 1218)">19-Aug</text>
		</g>
		<g>
			<text fill="#595959" font-family="Verdana,sans-serif" font-weight="400" font-size="41" transform="matrix(6.12323e-17 -1 1 6.12323e-17 3589.76 1219)">16-Sep</text>
		</g>
		<g>
			<text fill="#595959" font-family="Verdana,sans-serif" font-weight="400" font-size="41" transform="matrix(6.12323e-17 -1 1 6.12323e-17 3671.7 1213)">14-Oct</text>
		</g>
		<g>
			<text fill="#595959" font-family="Verdana,sans-serif" font-weight="400" font-size="41" transform="matrix(6.12323e-17 -1 1 6.12323e-17 3756.64 1222)">11-Nov</text>
		</g>
		<g>
			<text fill="#595959" font-family="Verdana,sans-serif" font-weight="400" font-size="41" transform="matrix(6.12323e-17 -1 1 6.12323e-17 3842.08 1220)">16-Dec</text>
		</g>
		<g>
			<text fill="#595959" font-family="Verdana,sans-serif" font-weight="400" font-size="41" transform="matrix(6.12323e-17 -1 1 6.12323e-17 3928.02 1207)">13-Jan</text>
		</g>
		<g>
			<text fill="#595959" font-family="Verdana,sans-serif" font-weight="400" font-size="41" transform="matrix(6.12323e-17 -1 1 6.12323e-17 4013.46 1214)">10-Feb</text>
		</g>
		<g>
			<text fill="#595959" font-family="Verdana,sans-serif" font-weight="400" font-size="41" transform="matrix(6.12323e-17 -1 1 6.12323e-17 4098.9 1221)">10-Mar</text>
		</g>
		<g>
			<text fill="#595959" font-family="Verdana,sans-serif" font-weight="400" font-size="41" transform="matrix(6.12323e-17 -1 1 6.12323e-17 4187.84 1217)">07-Apr</text>
		</g>
		<g>
			<text fill="#595959" font-family="Verdana,sans-serif" font-weight="400" font-size="41" transform="matrix(6.12323e-17 -1 1 6.12323e-17 4273.28 1228)">05-May</text>
		</g>
		<g>
			<text fill="#595959" font-family="Verdana,sans-serif" font-weight="400" font-size="41" transform="matrix(1 0 0 1 3123.5 1050)">0%</text>
		</g>
		<g>
			<text fill="#595959" font-family="Verdana,sans-serif" font-weight="400" font-size="41" transform="matrix(1 0 0 1 3097.5 922)">20%</text>
		</g>
		<g>
			<text fill="#595959" font-family="Verdana,sans-serif" font-weight="400" font-size="41" transform="matrix(1 0 0 1 3096.5 794)">40%</text>
		</g>
		<g>
			<text fill="#595959" font-family="Verdana,sans-serif" font-weight="400" font-size="41" transform="matrix(1 0 0 1 3097.5 666)">60%</text>
		</g>
		<g>
			<text fill="#595959" font-family="Verdana,sans-serif" font-weight="400" font-size="41" transform="matrix(1 0 0 1 3097.5 538)">80%</text>
		</g>
		<g>
			<text fill="#595959" font-family="Verdana,sans-serif" font-weight="400" font-size="41" transform="matrix(1 0 0 1 3074.5 410)">100%</text>
		</g>
		<g>
			<text fill="#595959" font-family="Verdana,sans-serif" font-weight="400" font-size="41" transform="matrix(1 0 0 1 3544.5 1321)">Week Commencing</text>
		</g>
		<g>
			<text fill="#595959" font-family="Verdana,sans-serif" font-weight="400" font-size="46" transform="matrix(6.12323e-17 -1 1 6.12323e-17 3019.73 965.25)">Requests (% of Total)</text>
		</g>
		<rect x="2918.5" y="347.5" width="1760" height="1043" stroke="#D9D9D9" stroke-width="3.4375" stroke-linejoin="round" stroke-miterlimit="10" fill="none" />
		<g>
			<path d="M3228.5 1038 3249.86 1038 3271.22 1038 3292.58 1038 3313.94 1038 3335.3 1038 3356.66 1038 3378.02 1038 3399.38 1038 3420.74 1038 3442.1 1038 3463.46 1038 3484.82 1038 3506.18 1038 3527.54 1038 3548.9 1038 3570.26 1038 3591.62 1038 3612.98 1038 3634.34 1038 3655.7 1038 3677.06 1038 3698.42 1038 3719.7799999999997 1038 3741.14 1038 3762.5 1038 3783.86 1038 3805.2200000000003 1038 3826.58 1038 3847.94 1038 3869.3 1038 3890.66 1038 3912.02 1038 3933.38 1038 3954.74 1038 3976.1 1038 3997.46 1038 4018.8199999999997 1038 4040.18 1038 4061.54 1038 4082.9 1038 4104.26 1038 4125.62 1038 4146.98 1038 4168.34 1038 4189.7 1038 4211.0599999999995 1038 4232.42 1038 4253.78 1038 4275.139999999999 1038 4296.5 1038 4296.5 528.0922596265774 4275.139999999999 528.3637575953018 4253.78 528.4473950245434 4232.42 528.3817437118579 4211.0599999999995 528.3209049784523 4189.7 528.6035113858115 4168.34 529.0722280244075 4146.98 529.4214956662862 4125.62 529.807429199031 4104.26 533.5058286789898 4082.9 533.4031264720519 4061.54 533.4021762961523 4040.18 533.7756525096236 4018.8199999999997 533.8956466575289 3997.46 533.9572095457534 3976.1 533.4841990448925 3954.74 533.4528010722697 3933.38 533.722746014736 3912.02 533.7853664259474 3890.66 533.8294455926118 3869.3 533.7499584959044 3847.94 533.5577242345337 3826.58 533.3794235575219 3805.2200000000003 533.1839579715512 3783.86 532.7385960569093 3762.5 532.9945218339117 3741.14 533.5883597667535 3719.7799999999997 534.4892592748513 3698.42 535.2648007319358 3677.06 642.4592997578948 3655.7 641.7348258019537 3634.34 641.0274072878076 3612.98 640.0328656683237 3591.62 638.7439704461906 3570.26 637.5953366301156 3548.9 636.388984334016 3527.54 635.2830954215428 3506.18 634.2801376637599 3484.82 633.5123019251453 3463.46 632.703376074059 3442.1 631.9415100696045 3420.74 630.857109120077 3399.38 629.6835942752446 3378.02 628.7570391925642 3356.66 627.5176878063296 3335.3 626.3963136974012 3313.94 625.2428890685153 3292.58 624.0667377001988 3271.22 622.80172023452 3249.86 632.4054355541638 3228.5 630.9533026623258 3228.5 1038Z" fill="#e62d39" opacity="0.9" />
		</g>
		<g>
			<path d="M3228.5 630.9533026623258 3249.86 632.4054355541638 3271.22 622.80172023452 3292.58 624.0667377001988 3313.94 625.2428890685153 3335.3 626.3963136974012 3356.66 627.5176878063296 3378.02 628.7570391925642 3399.38 629.6835942752446 3420.74 630.857109120077 3442.1 631.9415100696045 3463.46 632.703376074059 3484.82 633.5123019251453 3506.18 634.2801376637599 3527.54 635.2830954215428 3548.9 636.388984334016 3570.26 637.5953366301156 3591.62 638.7439704461906 3612.98 640.0328656683237 3634.34 641.0274072878076 3655.7 641.7348258019537 3677.06 642.4592997578948 3698.42 535.2648007319358 3719.7799999999997 534.4892592748513 3741.14 533.5883597667535 3762.5 532.9945218339117 3783.86 532.7385960569093 3805.2200000000003 533.1839579715512 3826.58 533.3794235575219 3847.94 533.5577242345337 3869.3 533.7499584959044 3890.66 533.8294455926118 3912.02 533.7853664259474 3933.38 533.722746014736 3954.74 533.4528010722697 3976.1 533.4841990448925 3997.46 533.9572095457534 4018.8199999999997 533.8956466575289 4040.18 533.7756525096236 4061.54 533.4021762961523 4082.9 533.4031264720519 4104.26 533.5058286789898 4125.62 529.807429199031 4146.98 529.4214956662862 4168.34 529.0722280244075 4189.7 528.6035113858115 4211.0599999999995 528.3209049784523 4232.42 528.3817437118579 4253.78 528.4473950245434 4275.139999999999 528.3637575953018 4296.5 528.0922596265774 4296.5 441.7146387359797 4275.139999999999 441.87434560441795 4253.78 442.00506484989137 4232.42 442.0536403247141 4211.0599999999995 442.1004848135459 4189.7 442.29078701208255 4168.34 442.5177613549289 4146.98 442.75370380577044 4125.62 443.0039649820596 4104.26 447.2266118196212 4082.9 447.3367564362345 4061.54 447.478410212555 4040.18 447.7812344269998 4018.8199999999997 447.9735867247491 3997.46 448.11744019003095 3976.1 447.90712750570685 3954.74 447.65114758474357 3933.38 447.63691579979616 3912.02 447.6548818464415 3890.66 447.68514400974766 3869.3 447.6730658977694 3847.94 447.6266609249292 3826.58 447.6323779302626 3805.2200000000003 447.6574339250563 3783.86 447.5983732210459 3762.5 447.82372841614773 3741.14 448.23400972704667 3719.7799999999997 448.85972838125235 3698.42 449.3446349967366 3677.06 564.013087594675 3655.7 563.0569322713101 3634.34 562.1201699126104 3612.98 560.9592369816268 3591.62 559.5178863272408 3570.26 558.0421991553968 3548.9 556.6183211021491 3527.54 555.218566955861 3506.18 553.8747604661306 3484.82 552.795294537007 3463.46 551.5476668303065 3442.1 550.4510715595417 3420.74 549.056064697407 3399.38 547.7069248917836 3378.02 546.4892681197156 3356.66 545.0068552240035 3335.3 543.5872074138473 3313.94 542.2071477253921 3292.58 540.7523658360859 3271.22 539.1846046453284 3249.86 550.69398337688 3228.5 549.0305649530324 3228.5 630.9533026623258Z" fill="#005aa6" opacity="0.9" />
		</g>
		<g>
			<path d="M3228.5 549.0305649530324 3249.86 550.69398337688 3271.22 539.1846046453284 3292.58 540.7523658360859 3313.94 542.2071477253921 3335.3 543.5872074138473 3356.66 545.0068552240035 3378.02 546.4892681197156 3399.38 547.7069248917836 3420.74 549.056064697407 3442.1 550.4510715595417 3463.46 551.5476668303065 3484.82 552.795294537007 3506.18 553.8747604661306 3527.54 555.218566955861 3548.9 556.6183211021491 3570.26 558.0421991553968 3591.62 559.5178863272408 3612.98 560.9592369816268 3634.34 562.1201699126104 3655.7 563.0569322713101 3677.06 564.013087594675 3698.42 449.3446349967366 3719.7799999999997 448.85972838125235 3741.14 448.23400972704667 3762.5 447.82372841614773 3783.86 447.5983732210459 3805.2200000000003 447.6574339250563 3826.58 447.6323779302626 3847.94 447.6266609249292 3869.3 447.6730658977694 3890.66 447.68514400974766 3912.02 447.6548818464415 3933.38 447.63691579979616 3954.74 447.65114758474357 3976.1 447.90712750570685 3997.46 448.11744019003095 4018.8199999999997 447.9735867247491 4040.18 447.7812344269998 4061.54 447.478410212555 4082.9 447.3367564362345 4104.26 447.2266118196212 4125.62 443.0039649820596 4146.98 442.75370380577044 4168.34 442.5177613549289 4189.7 442.29078701208255 4211.0599999999995 442.1004848135459 4232.42 442.0536403247141 4253.78 442.00506484989137 4275.139999999999 441.87434560441795 4296.5 441.7146387359797 4296.5 425.6867840212037 4275.139999999999 425.8119685721377 4253.78 425.9104888133743 4232.42 425.92679886960804 4211.0599999999995 425.94362826788443 4189.7 426.1140510532148 4168.34 426.3120783472338 4146.98 426.5518003809951 4125.62 426.81320471249694 4104.26 431.1686011749783 4082.9 431.3401421096995 4061.54 431.5247092372164 4040.18 431.81676347027957 4018.8199999999997 431.99440912392726 3997.46 432.1329946808099 3976.1 432.00359297169024 3954.74 431.84731630596053 3933.38 431.8659139096981 3912.02 431.93242137634724 3890.66 431.9599475077045 3869.3 431.9558731937295 3847.94 431.9405589448202 3826.58 431.96727576259724 3805.2200000000003 432.02029212049626 3783.86 431.97528739378606 3762.5 432.15561530771527 3741.14 432.4754364071281 3719.7799999999997 433.0084053536388 3698.42 433.3913361237896 3677.06 540.8290503164301 3655.7 539.7717503889384 3634.34 538.7148538649283 3612.98 537.4631522646897 3591.62 535.9474999414622 3570.26 534.3593851680338 3548.9 532.8484801447386 3527.54 531.3863925452272 3506.18 529.9440403710025 3484.82 528.7702332186351 3463.46 527.9710368276562 3442.1 526.7914366981524 3420.74 525.3123672531278 3399.38 523.9349092321237 3378.02 522.6767257917172 3356.66 521.1207351787452 3335.3 519.5911430965305 3313.94 518.1357144384516 3292.58 516.5996074824589 3271.22 514.9659833917357 3249.86 527.0438985976282 3228.5 525.3024251103315 3228.5 549.0305649530324Z" fill="#55c0e9" opacity="0.9" />
		</g>
		<g>
			<path d="M3228.5 525.3024251103315 3249.86 527.0438985976282 3271.22 514.9659833917357 3292.58 516.5996074824589 3313.94 518.1357144384516 3335.3 519.5911430965305 3356.66 521.1207351787452 3378.02 522.6767257917172 3399.38 523.9349092321237 3420.74 525.3123672531278 3442.1 526.7914366981524 3463.46 527.9710368276562 3484.82 528.7702332186351 3506.18 529.9440403710025 3527.54 531.3863925452272 3548.9 532.8484801447386 3570.26 534.3593851680338 3591.62 535.9474999414622 3612.98 537.4631522646897 3634.34 538.7148538649283 3655.7 539.7717503889384 3677.06 540.8290503164301 3698.42 433.3913361237896 3719.7799999999997 433.0084053536388 3741.14 432.4754364071281 3762.5 432.15561530771527 3783.86 431.97528739378606 3805.2200000000003 432.02029212049626 3826.58 431.96727576259724 3847.94 431.9405589448202 3869.3 431.9558731937295 3890.66 431.9599475077045 3912.02 431.93242137634724 3933.38 431.8659139096981 3954.74 431.84731630596053 3976.1 432.00359297169024 3997.46 432.1329946808099 4018.8199999999997 431.99440912392726 4040.18 431.81676347027957 4061.54 431.5247092372164 4082.9 431.3401421096995 4104.26 431.1686011749783 4125.62 426.81320471249694 4146.98 426.5518003809951 4168.34 426.3120783472338 4189.7 426.1140510532148 4211.0599999999995 425.94362826788443 4232.42 425.92679886960804 4253.78 425.9104888133743 4275.139999999999 425.8119685721377 4296.5 425.6867840212037 4296.5 411.04822058755076 4275.139999999999 411.09796238059005 4253.78 411.13309600464333 4232.42 411.08525540240214 4211.0599999999995 411.0502804931489 4189.7 411.15507042479464 4168.34 411.2715831935364 4146.98 411.39453051492376 4125.62 411.52533019336687 4104.26 415.89173436048446 4082.9 415.95861191477786 4061.54 416.055066900616 4040.18 416.2345639289736 4018.8199999999997 416.4071449754411 3997.46 416.47817812627426 3976.1 416.34836086389726 3954.74 416.1564242259188 3933.38 416.1235996870702 3912.02 416.0562889706207 3890.66 416.0954395000898 3869.3 416.0465069983401 3847.94 416.000160121671 3826.58 416.0062420628137 3805.2200000000003 416.05161909433286 3783.86 415.99893833884835 3762.5 416.12431960001913 3741.14 416.33420162951643 3719.7799999999997 416.71311285195446 3698.42 416.98069451994184 3677.06 523.7363657522843 3655.7 522.5716439040438 3634.34 521.4074163425901 3612.98 520.0402408469882 3591.62 518.4759534407176 3570.26 516.9133817380589 3548.9 515.447116697529 3527.54 514.0614365046936 3506.18 512.7024056997157 3484.82 511.5800205959148 3463.46 510.82918253556556 3442.1 509.7179568015223 3420.74 508.3175496659528 3399.38 507.0170454704227 3378.02 505.81218353227047 3356.66 504.3173344906431 3335.3 502.8338970689489 3313.94 501.4426511937707 3292.58 499.97387766322737 3271.22 498.4242329984132 3249.86 510.99365573350235 3228.5 509.31973026750774 3228.5 525.3024251103315Z" fill="#f6a118" opacity="0.9" />
		</g>
		<g>
			<path d="M3228.5 509.31973026750774 3249.86 510.99365573350235 3271.22 498.4242329984132 3292.58 499.97387766322737 3313.94 501.4426511937707 3335.3 502.8338970689489 3356.66 504.3173344906431 3378.02 505.81218353227047 3399.38 507.0170454704227 3420.74 508.3175496659528 3442.1 509.7179568015223 3463.46 510.82918253556556 3484.82 511.5800205959148 3506.18 512.7024056997157 3527.54 514.0614365046936 3548.9 515.447116697529 3570.26 516.9133817380589 3591.62 518.4759534407176 3612.98 520.0402408469882 3634.34 521.4074163425901 3655.7 522.5716439040438 3677.06 523.7363657522843 3698.42 416.98069451994184 3719.7799999999997 416.71311285195446 3741.14 416.33420162951643 3762.5 416.12431960001913 3783.86 415.99893833884835 3805.2200000000003 416.05161909433286 3826.58 416.0062420628137 3847.94 416.000160121671 3869.3 416.0465069983401 3890.66 416.0954395000898 3912.02 416.0562889706207 3933.38 416.1235996870702 3954.74 416.1564242259188 3976.1 416.34836086389726 3997.46 416.47817812627426 4018.8199999999997 416.4071449754411 4040.18 416.2345639289736 4061.54 416.055066900616 4082.9 415.95861191477786 4104.26 415.89173436048446 4125.62 411.52533019336687 4146.98 411.39453051492376 4168.34 411.2715831935364 4189.7 411.15507042479464 4211.0599999999995 411.0502804931489 4232.42 411.08525540240214 4253.78 411.13309600464333 4275.139999999999 411.09796238059005 4296.5 411.04822058755076 4296.5 402.3105155472352 4275.139999999999 402.3328782432905 4253.78 402.29313148871324 4232.42 402.27347913416367 4211.0599999999995 402.24951221526595 4189.7 402.264400535425 4168.34 402.2771754039698 4146.98 402.3026796088189 4125.62 402.31237144781545 4104.26 406.6903311154683 4082.9 406.6504534424193 4061.54 406.63653513437157 4040.18 406.73881659701254 4018.8199999999997 406.7913155812626 3997.46 406.7895314471883 3976.1 406.7538978821639 3954.74 406.6419996355151 3933.38 406.66475151485594 3912.02 406.64954838762975 3890.66 406.6900606081659 3869.3 406.67423043388266 3847.94 406.6442240275461 3826.58 406.6769627823681 3805.2200000000003 406.7486576922467 3783.86 406.88204596503937 3762.5 407.2984950463532 3741.14 407.42058087187377 3719.7799999999997 407.6496849699309 3698.42 407.85452807822685 3677.06 510.457001187623 3655.7 509.25430348013276 3634.34 508.03326088042445 3612.98 506.6178498444704 3591.62 505.0214210075742 3570.26 503.4488995208447 3548.9 501.99414638500895 3527.54 500.6747796739521 3506.18 499.3250304832202 3484.82 498.1994618351249 3463.46 497.43345523107604 3442.1 496.34925589643314 3420.74 495.0253467220932 3399.38 493.7905717710478 3378.02 492.5921558346354 3356.66 491.08339968159794 3335.3 489.589994805443 3313.94 488.205911277506 3292.58 486.75823132244886 3271.22 485.3927174126073 3249.86 498.4720025363811 3228.5 497.0382614705632 3228.5 509.31973026750774Z" fill="#fdd5a4" opacity="0.9" />
		</g>
		<g>
			<path d="M3228.5 497.0382614705632 3249.86 498.4720025363811 3271.22 485.3927174126073 3292.58 486.75823132244886 3313.94 488.205911277506 3335.3 489.589994805443 3356.66 491.08339968159794 3378.02 492.5921558346354 3399.38 493.7905717710478 3420.74 495.0253467220932 3442.1 496.34925589643314 3463.46 497.43345523107604 3484.82 498.1994618351249 3506.18 499.3250304832202 3527.54 500.6747796739521 3548.9 501.99414638500895 3570.26 503.4488995208447 3591.62 505.0214210075742 3612.98 506.6178498444704 3634.34 508.03326088042445 3655.7 509.25430348013276 3677.06 510.457001187623 3698.42 407.85452807822685 3719.7799999999997 407.6496849699309 3741.14 407.42058087187377 3762.5 407.2984950463532 3783.86 406.88204596503937 3805.2200000000003 406.7486576922467 3826.58 406.6769627823681 3847.94 406.6442240275461 3869.3 406.67423043388266 3890.66 406.6900606081659 3912.02 406.64954838762975 3933.38 406.66475151485594 3954.74 406.6419996355151 3976.1 406.7538978821639 3997.46 406.7895314471883 4018.8199999999997 406.7913155812626 4040.18 406.73881659701254 4061.54 406.63653513437157 4082.9 406.6504534424193 4104.26 406.6903311154683 4125.62 402.31237144781545 4146.98 402.3026796088189 4168.34 402.2771754039698 4189.7 402.264400535425 4211.0599999999995 402.24951221526595 4232.42 402.27347913416367 4253.78 402.29313148871324 4275.139999999999 402.3328782432905 4296.5 402.3105155472352 4296.5 398.0000000000001 4275.139999999999 398 4253.78 398 4232.42 398.00000000000006 4211.0599999999995 398.0000000000001 4189.7 398 4168.34 397.99999999999994 4146.98 398 4125.62 397.99999999999994 4104.26 398 4082.9 398 4061.54 398 4040.18 398.0000000000001 4018.8199999999997 398.00000000000006 3997.46 398 3976.1 398 3954.74 398 3933.38 398 3912.02 397.99999999999994 3890.66 398 3869.3 398.0000000000001 3847.94 398.00000000000006 3826.58 398 3805.2200000000003 397.9999999999999 3783.86 398 3762.5 397.99999999999994 3741.14 398.0000000000001 3719.7799999999997 397.99999999999994 3698.42 398.00000000000006 3677.06 398 3655.7 397.9999999999999 3634.34 398 3612.98 397.99999999999983 3591.62 398.0000000000001 3570.26 397.99999999999994 3548.9 397.9999999999999 3527.54 398.0000000000001 3506.18 398 3484.82 397.9999999999999 3463.46 397.99999999999994 3442.1 398.00000000000006 3420.74 398.00000000000006 3399.38 398 3378.02 397.9999999999999 3356.66 398 3335.3 397.9999999999999 3313.94 397.9999999999999 3292.58 398.00000000000006 3271.22 398 3249.86 398 3228.5 397.9999999999999 3228.5 497.0382614705632Z" fill="#393d41" opacity="0.9" />
		</g>
		<g>
			<rect x="4372" y="431" width="22.9995" height="23" fill="#e62d39" />
		</g>
		<g>
			<text fill="#595959" font-family="Verdana,sans-serif" font-weight="400" font-size="41" transform="matrix(1 0 0 1 4404.56 454)">Smartphone</text>
		</g>
		<g>
			<rect x="4372" y="508" width="22.9995" height="23" fill="#005aa6" />
		</g>
		<g>
			<text fill="#595959" font-family="Verdana,sans-serif" font-weight="400" font-size="41" transform="matrix(1 0 0 1 4404.56 531)">Desktop</text>
		</g>
		<g>
			<rect x="4372" y="585" width="22.9995" height="23" fill="#55c0e9" />
		</g>
		<g>
			<text fill="#595959" font-family="Verdana,sans-serif" font-weight="400" font-size="41" transform="matrix(1 0 0 1 4404.56 608)">Other</text>
		</g>
		<g>
			<rect x="4372" y="662" width="22.9995" height="23" fill="#f6a118" />
		</g>
		<g>
			<text fill="#595959" font-family="Verdana,sans-serif" font-weight="400" font-size="41" transform="matrix(1 0 0 1 4404.56 685)">Tablet</text>
		</g>
		<g>
			<rect x="4372" y="739" width="22.9995" height="23" fill="#fdd5a4" />
		</g>
		<g>
			<text fill="#595959" font-family="Verdana,sans-serif" font-weight="400" font-size="41" transform="matrix(1 0 0 1 4404.56 762)">Tv</text>
		</g>
		<g>
			<rect x="4372" y="816" width="22.9995" height="23" fill="#393d41" />
		</g>
		<g>
			<text fill="#595959" font-family="Verdana,sans-serif" font-weight="400" font-size="41" transform="matrix(1 0 0 1 4404.56 839)">Unclassified</text>
		</g>
	</g>
</svg>
