<svg width="1763" height="1046"
    xmlns="http://www.w3.org/2000/svg"
	xmlns:xlink="http://www.w3.org/1999/xlink" xml:space="preserve" overflow="hidden">
	<defs>
		<clipPath id="clip0">
			<rect x="2917" y="346" width="1763" height="1046"/>
		</clipPath>
	</defs>
	<g clip-path="url(#clip0)" transform="translate(-2917 -346)">
		<rect x="2918" y="347" width="1760" height="1043" fill="#FFFFFF" />
		<g>
			<path d="
			M3228.5 974.532 4296.5 974.532
			M3228.5 910.53 4296.5 910.53
			M3228.5 846.528 4296.5 846.528
			M3228.5 781.526 4296.5 781.526
			M3228.5 717.524 4296.5 717.524
			M3228.5 653.522 4296.5 653.522
			M3228.5 589.52 4296.5 589.52
			M3228.5 525.517 4296.5 525.517
			M3228.5 461.515 4296.5 461.515
			M3228.5 397.5 4296.5 397.5" stroke="#D9D9D9" stroke-width="3.4375" stroke-linejoin="round" stroke-miterlimit="10" fill="none" />
		</g>
		<g>
			<path d="M 1038.5 4296.5 1038.5" stroke="#D9D9D9" stroke-width="3.4375" stroke-linejoin="round" stroke-miterlimit="10" fill="none" fill-rule="evenodd" />
		</g>
		<g>
			<text fill="#595959" font-family="Verdana,sans-serif" font-weight="400" font-size="41" transform="matrix(6.12323e-17 -1 1 6.12323e-17 3244.5 1227)">06-Nov</text>
		</g>
		<g>
			<text fill="#595959" font-family="Verdana,sans-serif" font-weight="400" font-size="41" transform="matrix(6.12323e-17 -1 1 6.12323e-17 3363.1666666666665 1226)">20-Nov</text>
		</g>
		<g>
			<text fill="#595959" font-family="Verdana,sans-serif" font-weight="400" font-size="41" transform="matrix(6.12323e-17 -1 1 6.12323e-17 3481.8333333333335 1225)">04-Dec</text>
		</g>
		<g>
			<text fill="#595959" font-family="Verdana,sans-serif" font-weight="400" font-size="41" transform="matrix(6.12323e-17 -1 1 6.12323e-17 3600.5 1222)">18-Dec</text>
		</g>
		<g>
			<text fill="#595959" font-family="Verdana,sans-serif" font-weight="400" font-size="41" transform="matrix(6.12323e-17 -1 1 6.12323e-17 3719.1666666666665 1212)">01-Jan</text>
		</g>
		<g>
			<text fill="#595959" font-family="Verdana,sans-serif" font-weight="400" font-size="41" transform="matrix(6.12323e-17 -1 1 6.12323e-17 3837.3333333333335 1209)">15-Jan</text>
		</g>
		<g>
			<text fill="#595959" font-family="Verdana,sans-serif" font-weight="400" font-size="41" transform="matrix(6.12323e-17 -1 1 6.12323e-17 3956.5 1211)">29-Jan</text>
		</g>
		<g>
			<text fill="#595959" font-family="Verdana,sans-serif" font-weight="400" font-size="41" transform="matrix(6.12323e-17 -1 1 6.12323e-17 4075.166666666667 1216)">12-Feb</text>
		</g>
		<g>
			<text fill="#595959" font-family="Verdana,sans-serif" font-weight="400" font-size="41" transform="matrix(6.12323e-17 -1 1 6.12323e-17 4193.833333333333 1218)">26-Feb</text>
		</g>
		<g>
			<text fill="#595959" font-family="Verdana,sans-serif" font-weight="400" font-size="41" transform="matrix(6.12323e-17 -1 1 6.12323e-17 4312 1222)">11-Mar</text>
		</g>
		<g>
			<text fill="#595959" font-family="Verdana,sans-serif" font-weight="400" font-size="41" transform="matrix(1 0 0 1 3123.5 1050)">0%</text>
		</g>
		<g>
			<text fill="#595959" font-family="Verdana,sans-serif" font-weight="400" font-size="41" transform="matrix(1 0 0 1 3097.5 922)">20%</text>
		</g>
		<g>
			<text fill="#595959" font-family="Verdana,sans-serif" font-weight="400" font-size="41" transform="matrix(1 0 0 1 3095.5 794)">40%</text>
		</g>
		<g>
			<text fill="#595959" font-family="Verdana,sans-serif" font-weight="400" font-size="41" transform="matrix(1 0 0 1 3096.5 666)">60%</text>
		</g>
		<g>
			<text fill="#595959" font-family="Verdana,sans-serif" font-weight="400" font-size="41" transform="matrix(1 0 0 1 3096.5 538)">80%</text>
		</g>
		<g>
			<text fill="#595959" font-family="Verdana,sans-serif" font-weight="400" font-size="41" transform="matrix(1 0 0 1 3073.5 410)">100%</text>
		</g>
		<g>
			<text fill="#595959" font-family="Verdana,sans-serif" font-weight="400" font-size="41" transform="matrix(1 0 0 1 3541.5 1321)">Week Commencing</text>
		</g>
		<g>
			<text fill="#595959" font-family="Verdana,sans-serif" font-weight="400" font-size="46" transform="matrix(6.12323e-17 -1 1 6.12323e-17 3019.73 968.75)">Requests (% of Total)</text>
		</g>
		<rect x="2918.5" y="347.5" width="1760" height="1043" stroke="#D9D9D9" stroke-width="3.4375" stroke-linejoin="round" stroke-miterlimit="10" fill="none" />
		<g>
			<path d="M3228.5 1038 3287.8333333333335 1038 3347.1666666666665 1038 3406.5 1038 3465.8333333333335 1038 3525.1666666666665 1038 3584.5 1038 3643.8333333333335 1038 3703.1666666666665 1038 3762.5 1038 3821.8333333333335 1038 3881.166666666667 1038 3940.5 1038 3999.8333333333335 1038 4059.166666666667 1038 4118.5 1038 4177.833333333333 1038 4237.166666666667 1038 4296.5 1038 4296.5 621.5001438018157 4237.166666666667 620.7479883324611 4177.833333333333 618.9772962489769 4118.5 616.6754829613407 4059.166666666667 614.5117939817052 3999.8333333333335 615.2796120230914 3940.5 615.9275087100596 3881.166666666667 616.3813797093885 3821.8333333333335 616.3755182018299 3762.5 569.065986327317 3703.1666666666665 568.8533275368973 3643.8333333333335 570.4200135868562 3584.5 571.2367304637471 3525.1666666666665 574.6430294813756 3465.8333333333335 573.9159777926823 3406.5 571.940753677543 3347.1666666666665 571.7928428278394 3287.8333333333335 571.6102570585995 3228.5 570.6431995209241 3228.5 1038Z" fill="#e62d39" opacity="0.9" />
		</g>
		<g>
			<path d="M3228.5 570.6431995209241 3287.8333333333335 571.6102570585995 3347.1666666666665 571.7928428278394 3406.5 571.940753677543 3465.8333333333335 573.9159777926823 3525.1666666666665 574.6430294813756 3584.5 571.2367304637471 3643.8333333333335 570.4200135868562 3703.1666666666665 568.8533275368973 3762.5 569.065986327317 3821.8333333333335 616.3755182018299 3881.166666666667 616.3813797093885 3940.5 615.9275087100596 3999.8333333333335 615.2796120230914 4059.166666666667 614.5117939817052 4118.5 616.6754829613407 4177.833333333333 618.9772962489769 4237.166666666667 620.7479883324611 4296.5 621.5001438018157 4296.5 541.8846686674905 4237.166666666667 541.0539314470215 4177.833333333333 539.8778029714027 4118.5 538.0311425357806 4059.166666666667 536.4270145966814 3999.8333333333335 536.7106293649022 3940.5 536.9764016245806 3881.166666666667 535.7941999215749 3821.8333333333335 535.7525782888524 3762.5 509.06513243323207 3703.1666666666665 509.44212806241245 3643.8333333333335 509.38220585337143 3584.5 509.60866877735396 3525.1666666666665 511.9603578529975 3465.8333333333335 511.0153758579769 3406.5 509.7472741468517 3347.1666666666665 509.176439393107 3287.8333333333335 508.6338001891333 3228.5 508.14325383903014 3228.5 570.6431995209241Z" fill="#005aa6" opacity="0.9" />
		</g>
		<g>
			<path d="M3228.5 508.14325383903014 3287.8333333333335 508.6338001891333 3347.1666666666665 509.176439393107 3406.5 509.7472741468517 3465.8333333333335 511.0153758579769 3525.1666666666665 511.9603578529975 3584.5 509.60866877735396 3643.8333333333335 509.38220585337143 3703.1666666666665 509.44212806241245 3762.5 509.06513243323207 3821.8333333333335 535.7525782888524 3881.166666666667 535.7941999215749 3940.5 536.9764016245806 3999.8333333333335 536.7106293649022 4059.166666666667 536.4270145966814 4118.5 538.0311425357806 4177.833333333333 539.8778029714027 4237.166666666667 541.0539314470215 4296.5 541.8846686674905 4296.5 520.8422961076436 4237.166666666667 519.941244366186 4177.833333333333 518.8725186340012 4118.5 517.1348567955661 4059.166666666667 515.650021587989 3999.8333333333335 515.7382849108784 3940.5 515.8356026961703 3881.166666666667 514.2250429205485 3821.8333333333335 514.175265377396 3762.5 492.9059942279181 3703.1666666666665 493.0966047321476 3643.8333333333335 492.88332734476376 3584.5 492.95479515937706 3525.1666666666665 494.7801665319999 3465.8333333333335 493.78468973551225 3406.5 492.5320066774311 3347.1666666666665 491.93197908298504 3287.8333333333335 491.34916929089724 3228.5 490.7876094955426 3228.5 508.14325383903014Z" fill="#55c0e9" opacity="0.9" />
		</g>
		<g>
			<path d="M3228.5 490.7876094955426 3287.8333333333335 491.34916929089724 3347.1666666666665 491.93197908298504 3406.5 492.5320066774311 3465.8333333333335 493.78468973551225 3525.1666666666665 494.7801665319999 3584.5 492.95479515937706 3643.8333333333335 492.88332734476376 3703.1666666666665 493.0966047321476 3762.5 492.9059942279181 3821.8333333333335 514.175265377396 3881.166666666667 514.2250429205485 3940.5 515.8356026961703 3999.8333333333335 515.7382849108784 4059.166666666667 515.650021587989 4118.5 517.1348567955661 4177.833333333333 518.8725186340012 4237.166666666667 519.941244366186 4296.5 520.8422961076436 4296.5 502.94320923041516 4237.166666666667 502.107038956447 4177.833333333333 501.18268987180403 4118.5 499.5661579814509 4059.166666666667 498.2407663238116 3999.8333333333335 498.34179455703446 3940.5 498.4409678079612 3881.166666666667 496.7688079778267 3821.8333333333335 496.7252878979315 3762.5 467.1119991855256 3703.1666666666665 467.30287783529656 3643.8333333333335 467.12354601368946 3584.5 467.18090658715477 3525.1666666666665 468.4609806530692 3465.8333333333335 467.6706174617695 3406.5 466.5807912489142 3347.1666666666665 466.04765597528194 3287.8333333333335 465.50683076275004 3228.5 465.1003985575009 3228.5 490.7876094955426Z" fill="#f6a118" opacity="0.9" />
		</g>
		<g>
			<path d="M3228.5 465.1003985575009 3287.8333333333335 465.50683076275004 3347.1666666666665 466.04765597528194 3406.5 466.5807912489142 3465.8333333333335 467.6706174617695 3525.1666666666665 468.4609806530692 3584.5 467.18090658715477 3643.8333333333335 467.12354601368946 3703.1666666666665 467.30287783529656 3762.5 467.1119991855256 3821.8333333333335 496.7252878979315 3881.166666666667 496.7688079778267 3940.5 498.4409678079612 3999.8333333333335 498.34179455703446 4059.166666666667 498.2407663238116 4118.5 499.5661579814509 4177.833333333333 501.18268987180403 4237.166666666667 502.107038956447 4296.5 502.94320923041516 4296.5 492.37221825805364 4237.166666666667 491.90854325848505 4177.833333333333 491.3515350353937 4118.5 490.22585688768174 4059.166666666667 489.18947576032576 3999.8333333333335 489.22333619864025 3940.5 489.223179567103 3881.166666666667 489.59463668666535 3821.8333333333335 489.6274021960388 3762.5 465.84397535618723 3703.1666666666665 466.0407574120686 3643.8333333333335 465.8767979346657 3584.5 465.9500572477321 3525.1666666666665 467.2202695247198 3465.8333333333335 466.45583538595343 3406.5 465.39864568725244 3347.1666666666665 464.88886642683036 3287.8333333333335 464.365762498016 3228.5 463.97855376512575 3228.5 465.1003985575009Z" fill="#fdd5a4" opacity="0.9" />
		</g>
		<g>
			<path d="M3228.5 463.97855376512575 3287.8333333333335 464.365762498016 3347.1666666666665 464.88886642683036 3406.5 465.39864568725244 3465.8333333333335 466.45583538595343 3525.1666666666665 467.2202695247198 3584.5 465.9500572477321 3643.8333333333335 465.8767979346657 3703.1666666666665 466.0407574120686 3762.5 465.84397535618723 3821.8333333333335 489.6274021960388 3881.166666666667 489.59463668666535 3940.5 489.223179567103 3999.8333333333335 489.22333619864025 4059.166666666667 489.18947576032576 4118.5 490.22585688768174 4177.833333333333 491.3515350353937 4237.166666666667 491.90854325848505 4296.5 492.37221825805364 4296.5 397.9999999999999 4237.166666666667 398.0000000000001 4177.833333333333 398 4118.5 397.99999999999994 4059.166666666667 398 3999.8333333333335 398 3940.5 397.99999999999994 3881.166666666667 398.0000000000001 3821.8333333333335 397.9999999999999 3762.5 397.9999999999999 3703.1666666666665 398 3643.8333333333335 397.9999999999999 3584.5 397.99999999999994 3525.1666666666665 397.9999999999999 3465.8333333333335 397.99999999999994 3406.5 398 3347.1666666666665 398.00000000000006 3287.8333333333335 397.99999999999983 3228.5 398.0000000000001 3228.5 463.97855376512575Z" fill="#393d41" opacity="0.9" />
		</g>
		<g>
			<rect x="4372" y="431" width="22.9995" height="23" fill="#e62d39" />
		</g>
		<g>
			<text fill="#595959" font-family="Verdana,sans-serif" font-weight="400" font-size="41" transform="matrix(1 0 0 1 4404.56 454)">Smartphone</text>
		</g>
		<g>
			<rect x="4372" y="508" width="22.9995" height="23" fill="#005aa6" />
		</g>
		<g>
			<text fill="#595959" font-family="Verdana,sans-serif" font-weight="400" font-size="41" transform="matrix(1 0 0 1 4404.56 531)">Desktop</text>
		</g>
		<g>
			<rect x="4372" y="585" width="22.9995" height="23" fill="#55c0e9" />
		</g>
		<g>
			<text fill="#595959" font-family="Verdana,sans-serif" font-weight="400" font-size="41" transform="matrix(1 0 0 1 4404.56 608)">Other</text>
		</g>
		<g>
			<rect x="4372" y="662" width="22.9995" height="23" fill="#f6a118" />
		</g>
		<g>
			<text fill="#595959" font-family="Verdana,sans-serif" font-weight="400" font-size="41" transform="matrix(1 0 0 1 4404.56 685)">Tablet</text>
		</g>
		<g>
			<rect x="4372" y="739" width="22.9995" height="23" fill="#fdd5a4" />
		</g>
		<g>
			<text fill="#595959" font-family="Verdana,sans-serif" font-weight="400" font-size="41" transform="matrix(1 0 0 1 4404.56 762)">Tv</text>
		</g>
		<g>
			<rect x="4372" y="816" width="22.9995" height="23" fill="#393d41" />
		</g>
		<g>
			<text fill="#595959" font-family="Verdana,sans-serif" font-weight="400" font-size="41" transform="matrix(1 0 0 1 4404.56 839)">Unclassified</text>
		</g>
	</g>
</svg>
