<svg width="1763" height="1046"
    xmlns="http://www.w3.org/2000/svg"
	xmlns:xlink="http://www.w3.org/1999/xlink" xml:space="preserve" overflow="hidden">
	<defs>
		<clipPath id="clip0">
			<rect x="2917" y="346" width="1763" height="1046"/>
		</clipPath>
	</defs>
	<g clip-path="url(#clip0)" transform="translate(-2917 -346)">
		<rect x="2918" y="347" width="1760" height="1043" fill="#FFFFFF" />
		<g>
			<path d="
			M3228.5 974.532 4296.5 974.532
			M3228.5 910.53 4296.5 910.53
			M3228.5 846.528 4296.5 846.528
			M3228.5 781.526 4296.5 781.526
			M3228.5 717.524 4296.5 717.524
			M3228.5 653.522 4296.5 653.522
			M3228.5 589.52 4296.5 589.52
			M3228.5 525.517 4296.5 525.517
			M3228.5 461.515 4296.5 461.515
			M3228.5 397.5 4296.5 397.5" stroke="#D9D9D9" stroke-width="3.4375" stroke-linejoin="round" stroke-miterlimit="10" fill="none" />
		</g>
		<g>
			<path d="M 1038.5 4296.5 1038.5" stroke="#D9D9D9" stroke-width="3.4375" stroke-linejoin="round" stroke-miterlimit="10" fill="none" fill-rule="evenodd" />
		</g>
		<g>
			<text fill="#595959" font-family="Verdana,Open Sans,DejaVu Sans,sans-serif" font-weight="400" font-size="41" transform="matrix(6.12323e-17 -1 1 6.12323e-17 3247.928955078125 1178.9985275268555)">07-Jul</text>
		</g>
		<g>
			<text fill="#595959" font-family="Verdana,Open Sans,DejaVu Sans,sans-serif" font-weight="400" font-size="41" transform="matrix(6.12323e-17 -1 1 6.12323e-17 3330.443152794471 1208.62744140625)">04-Aug</text>
		</g>
		<g>
			<text fill="#595959" font-family="Verdana,Open Sans,DejaVu Sans,sans-serif" font-weight="400" font-size="41" transform="matrix(6.12323e-17 -1 1 6.12323e-17 3412.5969989483174 1204.38330078125)">01-Sep</text>
		</g>
		<g>
			<text fill="#595959" font-family="Verdana,Open Sans,DejaVu Sans,sans-serif" font-weight="400" font-size="41" transform="matrix(6.12323e-17 -1 1 6.12323e-17 3494.7308255709136 1204.42333984375)">29-Sep</text>
		</g>
		<g>
			<text fill="#595959" font-family="Verdana,Open Sans,DejaVu Sans,sans-serif" font-weight="400" font-size="41" transform="matrix(6.12323e-17 -1 1 6.12323e-17 3572.1800818810098 1201.1401290893555)">27-Oct</text>
		</g>
		<g>
			<text fill="#595959" font-family="Verdana,Open Sans,DejaVu Sans,sans-serif" font-weight="400" font-size="41" transform="matrix(6.12323e-17 -1 1 6.12323e-17 3654.313908503606 1211.47021484375)">24-Nov</text>
		</g>
		<g>
			<text fill="#595959" font-family="Verdana,Open Sans,DejaVu Sans,sans-serif" font-weight="400" font-size="41" transform="matrix(6.12323e-17 -1 1 6.12323e-17 3736.467754657452 1207.1259765625)">22-Dec</text>
		</g>
		<g>
			<text fill="#595959" font-family="Verdana,Open Sans,DejaVu Sans,sans-serif" font-weight="400" font-size="41" transform="matrix(6.12323e-17 -1 1 6.12323e-17 3822.275165264423 1189.9291915893555)">19-Jan</text>
		</g>
		<g>
			<text fill="#595959" font-family="Verdana,Open Sans,DejaVu Sans,sans-serif" font-weight="400" font-size="41" transform="matrix(6.12323e-17 -1 1 6.12323e-17 3901.5061598557695 1201.3203125)">16-Feb</text>
		</g>
		<g>
			<text fill="#595959" font-family="Verdana,Open Sans,DejaVu Sans,sans-serif" font-weight="400" font-size="41" transform="matrix(6.12323e-17 -1 1 6.12323e-17 3982.9292931189902 1210.2890625)">16-Mar</text>
		</g>
		<g>
			<text fill="#595959" font-family="Verdana,Open Sans,DejaVu Sans,sans-serif" font-weight="400" font-size="41" transform="matrix(6.12323e-17 -1 1 6.12323e-17 4069.807748647837 1201.5405197143555)">13-Apr</text>
		</g>
		<g>
			<text fill="#595959" font-family="Verdana,Open Sans,DejaVu Sans,sans-serif" font-weight="400" font-size="41" transform="matrix(6.12323e-17 -1 1 6.12323e-17 4151.751389723558 1214.75341796875)">11-May</text>
		</g>
		<g>
			<text fill="#595959" font-family="Verdana,Open Sans,DejaVu Sans,sans-serif" font-weight="400" font-size="41" transform="matrix(6.12323e-17 -1 1 6.12323e-17 4233.064415564904 1194.0131759643555)">08-Jun</text>
		</g>
		<g>
			<text fill="#595959" font-family="Verdana,Open Sans,DejaVu Sans,sans-serif" font-weight="400" font-size="41" transform="matrix(6.12323e-17 -1 1 6.12323e-17 4315.928955078125 1178.9985275268555)">06-Jul</text>
		</g>
		<g>
			<text fill="#595959" font-family="Verdana,Open Sans,DejaVu Sans,sans-serif" font-weight="400" font-size="41" transform="matrix(1 0 0 1 3169.14111328125 1050)">0</text>
		</g>
		<g>
			<text fill="#595959" font-family="Verdana,Open Sans,DejaVu Sans,sans-serif" font-weight="400" font-size="41" transform="matrix(1 0 0 1 3067.0815505981445 922)">18,947</text>
		</g>
		<g>
			<text fill="#595959" font-family="Verdana,Open Sans,DejaVu Sans,sans-serif" font-weight="400" font-size="41" transform="matrix(1 0 0 1 3065.4799880981445 794)">37,895</text>
		</g>
		<g>
			<text fill="#595959" font-family="Verdana,Open Sans,DejaVu Sans,sans-serif" font-weight="400" font-size="41" transform="matrix(1 0 0 1 3066.1005935668945 666)">56,842</text>
		</g>
		<g>
			<text fill="#595959" font-family="Verdana,Open Sans,DejaVu Sans,sans-serif" font-weight="400" font-size="41" transform="matrix(1 0 0 1 3065.1596755981445 538)">75,790</text>
		</g>
		<g>
			<text fill="#595959" font-family="Verdana,Open Sans,DejaVu Sans,sans-serif" font-weight="400" font-size="41" transform="matrix(1 0 0 1 3065.4399490356445 410)">94,737</text>
		</g>
		<g>
			<text fill="#595959" font-family="Verdana,Open Sans,DejaVu Sans,sans-serif" font-weight="400" font-size="41" transform="matrix(1 0 0 1 3556.97119140625 1321)">Week Commencing</text>
		</g>
		<g>
			<text fill="#595959" font-family="Verdana,Open Sans,DejaVu Sans,sans-serif" font-weight="400" font-size="46" transform="matrix(6.12323e-17 -1 1 6.12323e-17 3019.73 1028.5532531738281)">Number of Hardware Profiles</text>
		</g>
		<rect x="2918.5" y="347.5" width="1760" height="1043" stroke="#D9D9D9" stroke-width="3.4375" stroke-linejoin="round" stroke-miterlimit="10" fill="none" />
		<g>
			<path d="M3228.5 1038 3249.0384615384614 1038 3269.576923076923 1038 3290.1153846153848 1038 3310.653846153846 1038 3331.1923076923076 1038 3351.730769230769 1038 3372.269230769231 1038 3392.8076923076924 1038 3413.346153846154 1038 3433.8846153846152 1038 3454.423076923077 1038 3474.9615384615386 1038 3495.5 1038 3516.0384615384614 1038 3536.576923076923 1038 3557.1153846153848 1038 3577.653846153846 1038 3598.1923076923076 1038 3618.7307692307695 1038 3639.269230769231 1038 3659.8076923076924 1038 3680.346153846154 1038 3700.8846153846152 1038 3721.423076923077 1038 3741.9615384615386 1038 3762.5 1038 3783.0384615384614 1038 3803.576923076923 1038 3824.1153846153848 1038 3844.653846153846 1038 3865.1923076923076 1038 3885.7307692307695 1038 3906.269230769231 1038 3926.8076923076924 1038 3947.346153846154 1038 3967.8846153846152 1038 3988.423076923077 1038 4008.9615384615386 1038 4029.5 1038 4050.038461538462 1038 4070.576923076923 1038 4091.1153846153848 1038 4111.653846153846 1038 4132.192307692308 1038 4152.7307692307695 1038 4173.2692307692305 1038 4193.807692307692 1038 4214.346153846154 1038 4234.884615384615 1038 4255.423076923077 1038 4275.961538461539 1038 4296.5 1038 4296.5 693.5820851409692 4275.961538461539 693.9266179000813 4255.423076923077 694.2508840263044 4234.884615384615 694.4738169880828 4214.346153846154 694.6156834183055 4193.807692307692 694.777816481417 4173.2692307692305 694.9939938988991 4152.7307692307695 695.270971215048 4132.192307692308 695.4466153667522 4111.653846153846 695.6019928855674 4091.1153846153848 695.980303366161 4070.576923076923 696.2707917709026 4050.038461538462 696.5275024541626 4029.5 696.6963910615705 4008.9615384615386 696.9125684790525 3988.423076923077 697.2706123267573 3967.8846153846152 697.6894560731288 3947.346153846154 697.9596778449813 3926.8076923076924 698.1690997181672 3906.269230769231 698.4190548571307 3885.7307692307695 698.6892766289834 3865.1923076923076 698.8378986035023 3844.653846153846 699.087853742466 3824.1153846153848 699.3107867042444 3803.576923076923 699.6958527291343 3783.0384615384614 699.9525634123943 3762.5 700.2565629057285 3741.9615384615386 700.3578960701732 3721.423076923077 700.4794958675069 3700.8846153846152 700.695673284989 3680.346153846154 700.952383968249 3659.8076923076924 701.1550502971384 3639.269230769231 701.3577166260279 3618.7307692307695 701.553627410621 3598.1923076923076 701.7292715623253 3577.653846153846 701.9049157140294 3557.1153846153848 702.1616263972894 3536.576923076923 702.4521148020309 3516.0384615384614 702.6818033081056 3495.5 702.9317584470693 3474.9615384615386 703.2627801175887 3454.423076923077 703.6613572310713 3433.8846153846152 704.0126455344797 3413.346153846154 704.3234005721101 3392.8076923076924 704.6274000654444 3372.269230769231 704.8233108500375 3351.730769230769 705.1408214319642 3331.1923076923076 705.4042876595206 3310.653846153846 705.7150426971511 3290.1153846153848 706.100108722041 3269.576923076923 706.3838415824862 3249.0384615384614 706.6473078100425 3228.5 706.9715739362657 3228.5 1038Z" fill="#e62d39" opacity="0.9" />
		</g>
		<g>
			<path d="M3228.5 706.9715739362657 3249.0384615384614 706.6473078100425 3269.576923076923 706.3838415824862 3290.1153846153848 706.100108722041 3310.653846153846 705.7150426971511 3331.1923076923076 705.4042876595206 3351.730769230769 705.1408214319642 3372.269230769231 704.8233108500375 3392.8076923076924 704.6274000654444 3413.346153846154 704.3234005721101 3433.8846153846152 704.0126455344797 3454.423076923077 703.6613572310713 3474.9615384615386 703.2627801175887 3495.5 702.9317584470693 3516.0384615384614 702.6818033081056 3536.576923076923 702.4521148020309 3557.1153846153848 702.1616263972894 3577.653846153846 701.9049157140294 3598.1923076923076 701.7292715623253 3618.7307692307695 701.553627410621 3639.269230769231 701.3577166260279 3659.8076923076924 701.1550502971384 3680.346153846154 700.952383968249 3700.8846153846152 700.695673284989 3721.423076923077 700.4794958675069 3741.9615384615386 700.3578960701732 3762.5 700.2565629057285 3783.0384615384614 699.9525634123943 3803.576923076923 699.6958527291343 3824.1153846153848 699.3107867042444 3844.653846153846 699.087853742466 3865.1923076923076 698.8378986035023 3885.7307692307695 698.6892766289834 3906.269230769231 698.4190548571307 3926.8076923076924 698.1690997181672 3947.346153846154 697.9596778449813 3967.8846153846152 697.6894560731288 3988.423076923077 697.2706123267573 4008.9615384615386 696.9125684790525 4029.5 696.6963910615705 4050.038461538462 696.5275024541626 4070.576923076923 696.2707917709026 4091.1153846153848 695.980303366161 4111.653846153846 695.6019928855674 4132.192307692308 695.4466153667522 4152.7307692307695 695.270971215048 4173.2692307692305 694.9939938988991 4193.807692307692 694.777816481417 4214.346153846154 694.6156834183055 4234.884615384615 694.4738169880828 4255.423076923077 694.2508840263044 4275.961538461539 693.9266179000813 4296.5 693.5820851409692 4296.5 530.0236021828853 4275.961538461539 530.4762236507383 4255.423076923077 530.9220895742952 4234.884615384615 531.2260890676293 4214.346153846154 531.4760442065931 4193.807692307692 531.7192438012603 4173.2692307692305 532.0029766617056 4152.7307692307695 532.4691092181513 4132.192307692308 532.7325754457077 4111.653846153846 533.0095527618564 4091.1153846153848 533.4419075968207 4070.576923076923 533.7999514445254 4050.038461538462 534.1174620264521 4029.5 534.326883899638 4008.9615384615386 534.563327950009 3988.423076923077 534.9889272406768 3967.8846153846152 535.421282075641 3947.346153846154 535.7252815689751 3926.8076923076924 535.9955033408278 3906.269230769231 536.2995028341619 3885.7307692307695 536.6170134160888 3865.1923076923076 536.8061686563855 3844.653846153846 537.1169236940161 3824.1153846153848 537.4141676430539 3803.576923076923 537.9411000981665 3783.0384615384614 538.2653662243896 3762.5 538.7112321479465 3741.9615384615386 538.8868762996506 3721.423076923077 539.0287427298732 3700.8846153846152 539.3192311346147 3680.346153846154 539.6840305266159 3659.8076923076924 539.9610078427647 3639.269230769231 540.24474070321 3618.7307692307695 540.5082069307662 3598.1923076923076 540.7919397912116 3577.653846153846 541.0891837402494 3557.1153846153848 541.4945163980283 3536.576923076923 541.9201156886961 3516.0384615384614 542.325448346475 3495.5 542.7240254599576 3474.9615384615386 543.2239357378849 3454.423076923077 543.7441126487012 3433.8846153846152 544.1967341165544 3413.346153846154 544.6358444958147 3392.8076923076924 545.0411771535937 3372.269230769231 545.2641101153721 3351.730769230769 545.6424205959656 3331.1923076923076 546.054508798041 3310.653846153846 546.5409079873757 3290.1153846153848 547.0948626196734 3269.576923076923 547.5069508217485 3249.0384615384614 548.0068610996759 3228.5 548.4662381118254 3228.5 706.9715739362657Z" fill="#f6a118" opacity="0.9" />
		</g>
		<g>
			<path d="M3228.5 548.4662381118254 3249.0384615384614 548.0068610996759 3269.576923076923 547.5069508217485 3290.1153846153848 547.0948626196734 3310.653846153846 546.5409079873757 3331.1923076923076 546.054508798041 3351.730769230769 545.6424205959656 3372.269230769231 545.2641101153721 3392.8076923076924 545.0411771535937 3413.346153846154 544.6358444958147 3433.8846153846152 544.1967341165544 3454.423076923077 543.7441126487012 3474.9615384615386 543.2239357378849 3495.5 542.7240254599576 3516.0384615384614 542.325448346475 3536.576923076923 541.9201156886961 3557.1153846153848 541.4945163980283 3577.653846153846 541.0891837402494 3598.1923076923076 540.7919397912116 3618.7307692307695 540.5082069307662 3639.269230769231 540.24474070321 3659.8076923076924 539.9610078427647 3680.346153846154 539.6840305266159 3700.8846153846152 539.3192311346147 3721.423076923077 539.0287427298732 3741.9615384615386 538.8868762996506 3762.5 538.7112321479465 3783.0384615384614 538.2653662243896 3803.576923076923 537.9411000981665 3824.1153846153848 537.4141676430539 3844.653846153846 537.1169236940161 3865.1923076923076 536.8061686563855 3885.7307692307695 536.6170134160888 3906.269230769231 536.2995028341619 3926.8076923076924 535.9955033408278 3947.346153846154 535.7252815689751 3967.8846153846152 535.421282075641 3988.423076923077 534.9889272406768 4008.9615384615386 534.563327950009 4029.5 534.326883899638 4050.038461538462 534.1174620264521 4070.576923076923 533.7999514445254 4091.1153846153848 533.4419075968207 4111.653846153846 533.0095527618564 4132.192307692308 532.7325754457077 4152.7307692307695 532.4691092181513 4173.2692307692305 532.0029766617056 4193.807692307692 531.7192438012603 4214.346153846154 531.4760442065931 4234.884615384615 531.2260890676293 4255.423076923077 530.9220895742952 4275.961538461539 530.4762236507383 4296.5 530.0236021828853 4296.5 456.14496975838375 4275.961538461539 456.60434677053314 4255.423076923077 457.10425704846057 4234.884615384615 457.4285231746836 4214.346153846154 457.7122560351289 4193.807692307692 457.96896671838874 4173.2692307692305 458.25945512313035 4152.7307692307695 458.74585431246504 4132.192307692308 459.0566093500956 4111.653846153846 459.34034221054065 4091.1153846153848 459.7997192226902 4070.576923076923 460.17127415898756 4050.038461538462 460.51580691809954 4029.5 460.7252287912854 4008.9615384615386 460.96842838595273 3988.423076923077 461.4075387652132 3967.8846153846152 461.83989360017733 3947.346153846154 462.14389309351145 3926.8076923076924 462.4141148653641 3906.269230769231 462.73162544729087 3885.7307692307695 463.06264711781034 3865.1923076923076 463.2653134466997 3844.653846153846 463.57606848433034 3824.1153846153848 463.89357906625713 3803.576923076923 464.4542892428513 3783.0384615384614 464.78531091337067 3762.5 465.24468792552017 3741.9615384615386 465.42708762152057 3721.423076923077 465.5689540517432 3700.8846153846152 465.89997572226264 3680.346153846154 466.31206392433796 3659.8076923076924 466.6430855948574 3639.269230769231 466.9470850881916 3618.7307692307695 467.21730686004406 3598.1923076923076 467.53481744197103 3577.653846153846 467.87935020108307 3557.1153846153848 468.3860160233067 3536.576923076923 468.8589041240487 3516.0384615384614 469.31152559190184 3495.5 469.7573915154586 3474.9615384615386 470.37214604642327 3454.423076923077 470.93285622301744 3433.8846153846152 471.4124998680559 3413.346153846154 471.8921435130941 3392.8076923076924 472.3109872594658 3372.269230769231 472.5609423984294 3351.730769230769 472.9932972333935 3331.1923076923076 473.48645196702455 3310.653846153846 473.99987333354454 3290.1153846153848 474.5740945987313 3269.576923076923 474.999693889399 3249.0384615384614 475.5333818888079 3228.5 476.03329216673535 3228.5 548.4662381118254Z" fill="#55c0e9" opacity="0.9" />
		</g>
		<g>
			<path d="M3228.5 476.03329216673535 3249.0384615384614 475.5333818888079 3269.576923076923 474.999693889399 3290.1153846153848 474.5740945987313 3310.653846153846 473.99987333354454 3331.1923076923076 473.48645196702455 3351.730769230769 472.9932972333935 3372.269230769231 472.5609423984294 3392.8076923076924 472.3109872594658 3413.346153846154 471.8921435130941 3433.8846153846152 471.4124998680559 3454.423076923077 470.93285622301744 3474.9615384615386 470.37214604642327 3495.5 469.7573915154586 3516.0384615384614 469.31152559190184 3536.576923076923 468.8589041240487 3557.1153846153848 468.3860160233067 3577.653846153846 467.87935020108307 3598.1923076923076 467.53481744197103 3618.7307692307695 467.21730686004406 3639.269230769231 466.9470850881916 3659.8076923076924 466.6430855948574 3680.346153846154 466.31206392433796 3700.8846153846152 465.89997572226264 3721.423076923077 465.5689540517432 3741.9615384615386 465.42708762152057 3762.5 465.24468792552017 3783.0384615384614 464.78531091337067 3803.576923076923 464.4542892428513 3824.1153846153848 463.89357906625713 3844.653846153846 463.57606848433034 3865.1923076923076 463.2653134466997 3885.7307692307695 463.06264711781034 3906.269230769231 462.73162544729087 3926.8076923076924 462.4141148653641 3947.346153846154 462.14389309351145 3967.8846153846152 461.83989360017733 3988.423076923077 461.4075387652132 4008.9615384615386 460.96842838595273 4029.5 460.7252287912854 4050.038461538462 460.51580691809954 4070.576923076923 460.17127415898756 4091.1153846153848 459.7997192226902 4111.653846153846 459.34034221054065 4132.192307692308 459.0566093500956 4152.7307692307695 458.74585431246504 4173.2692307692305 458.25945512313035 4193.807692307692 457.96896671838874 4214.346153846154 457.7122560351289 4234.884615384615 457.4285231746836 4255.423076923077 457.10425704846057 4275.961538461539 456.60434677053314 4296.5 456.14496975838375 4296.5 399.27004232770724 4275.961538461539 399.98613002311663 4255.423076923077 400.6954621742298 4234.884615384615 401.195372452157 4214.346153846154 401.5804384770471 4193.807692307692 402.03305994490006 4173.2692307692305 402.42488151408634 4152.7307692307695 403.09368039942154 4132.192307692308 403.55305741157105 4111.653846153846 404.0124344237203 4091.1153846153848 404.7014999419446 4070.576923076923 405.42434318165033 4050.038461538462 405.9850533582444 4029.5 406.4376748260976 4008.9615384615386 406.8497630281728 3988.423076923077 407.3361622175074 3967.8846153846152 408.01847219143525 3947.346153846154 408.4846047478809 3926.8076923076924 408.869670772771 3906.269230769231 409.4911808480319 3885.7307692307695 410.1599797333671 3865.1923076923076 410.63962337840536 3844.653846153846 411.29491117514806 3824.1153846153848 411.7475326430012 3803.576923076923 412.4771314270032 3783.0384615384614 412.9365084391526 3762.5 413.51748524863575 3741.9615384615386 413.760684843303 3721.423076923077 413.96335117219246 3700.8846153846152 414.4024615514529 3680.346153846154 414.91588291797297 3659.8076923076924 415.30094894286293 3639.269230769231 415.74005932212344 3618.7307692307695 416.13188089130955 3598.1923076923076 416.56423572627386 3577.653846153846 417.05739045990487 3557.1153846153848 417.69916716805477 3536.576923076923 418.1923219016858 3516.0384615384614 418.8340986098357 3495.5 419.4353420522077 3474.9615384615386 420.10414093754287 3454.423076923077 420.813473088656 3433.8846153846152 421.326894455176 3413.346153846154 421.9686711633258 3392.8076923076924 422.5631590614017 3372.269230769231 422.9076918205137 3351.730769230769 423.50893526288564 3331.1923076923076 424.20475632540615 3310.653846153846 424.8803107550377 3290.1153846153848 425.5153319188913 3269.576923076923 426.10306427267057 3249.0384615384614 426.7245743479316 3228.5 427.3866176889706 3228.5 476.03329216673535Z" fill="#fdd5a4" opacity="0.9" />
		</g>
		<g>
			<path d="M3228.5 427.3866176889706 3249.0384615384614 426.7245743479316 3269.576923076923 426.10306427267057 3290.1153846153848 425.5153319188913 3310.653846153846 424.8803107550377 3331.1923076923076 424.20475632540615 3351.730769230769 423.50893526288564 3372.269230769231 422.9076918205137 3392.8076923076924 422.5631590614017 3413.346153846154 421.9686711633258 3433.8846153846152 421.326894455176 3454.423076923077 420.813473088656 3474.9615384615386 420.10414093754287 3495.5 419.4353420522077 3516.0384615384614 418.8340986098357 3536.576923076923 418.1923219016858 3557.1153846153848 417.69916716805477 3577.653846153846 417.05739045990487 3598.1923076923076 416.56423572627386 3618.7307692307695 416.13188089130955 3639.269230769231 415.74005932212344 3659.8076923076924 415.30094894286293 3680.346153846154 414.91588291797297 3700.8846153846152 414.4024615514529 3721.423076923077 413.96335117219246 3741.9615384615386 413.760684843303 3762.5 413.51748524863575 3783.0384615384614 412.9365084391526 3803.576923076923 412.4771314270032 3824.1153846153848 411.7475326430012 3844.653846153846 411.29491117514806 3865.1923076923076 410.63962337840536 3885.7307692307695 410.1599797333671 3906.269230769231 409.4911808480319 3926.8076923076924 408.869670772771 3947.346153846154 408.4846047478809 3967.8846153846152 408.01847219143525 3988.423076923077 407.3361622175074 4008.9615384615386 406.8497630281728 4029.5 406.4376748260976 4050.038461538462 405.9850533582444 4070.576923076923 405.42434318165033 4091.1153846153848 404.7014999419446 4111.653846153846 404.0124344237203 4132.192307692308 403.55305741157105 4152.7307692307695 403.09368039942154 4173.2692307692305 402.42488151408634 4193.807692307692 402.03305994490006 4214.346153846154 401.5804384770471 4234.884615384615 401.195372452157 4255.423076923077 400.6954621742298 4275.961538461539 399.98613002311663 4296.5 399.27004232770724 4296.5 398 4275.961538461539 398.7160876954094 4255.423076923077 399.4254198465226 4234.884615384615 399.9253301244498 4214.346153846154 400.31039614933985 4193.807692307692 400.7630176171928 4173.2692307692305 401.1548391863791 4152.7307692307695 401.8236380717143 4132.192307692308 402.2830150838638 4111.653846153846 402.7423920960131 4091.1153846153848 403.43145761423733 4070.576923076923 404.1543008539431 4050.038461538462 404.71501103053714 4029.5 405.16763249839033 4008.9615384615386 405.57972070046554 3988.423076923077 406.0661198898002 3967.8846153846152 406.748429863728 3947.346153846154 407.21456242017365 3926.8076923076924 407.59962844506373 3906.269230769231 408.22113852032464 3885.7307692307695 408.88993740565985 3865.1923076923076 409.3695810506981 3844.653846153846 410.0248688474408 3824.1153846153848 410.47749031529395 3803.576923076923 411.20708909929596 3783.0384615384614 411.66646611144535 3762.5 412.2474429209285 3741.9615384615386 412.49064251559577 3721.423076923077 412.6933088444852 3700.8846153846152 413.13241922374567 3680.346153846154 413.6458405902657 3659.8076923076924 414.0444177037483 3639.269230769231 414.4835280830088 3618.7307692307695 414.8753496521949 3598.1923076923076 415.30770448715924 3577.653846153846 415.80085922079024 3557.1153846153848 416.44263592894015 3536.576923076923 416.93579066257115 3516.0384615384614 417.57756737072106 3495.5 418.1788108130931 3474.9615384615386 418.84760969842824 3454.423076923077 419.5569418495414 3433.8846153846152 420.07036321606137 3413.346153846154 420.71213992421116 3392.8076923076924 421.30662782228706 3372.269230769231 421.6511605813991 3351.730769230769 422.252404023771 3331.1923076923076 422.94822508629153 3310.653846153846 423.6237795159231 3290.1153846153848 424.2588006797767 3269.576923076923 424.84653303355594 3249.0384615384614 425.46804310881697 3228.5 426.130086449856 3228.5 427.3866176889706Z" fill="#005aa6" opacity="0.9" />
		</g>
		<g>
			<rect x="4372" y="431" width="22.9995" height="23" fill="#e62d39" />
		</g>
		<g>
			<text fill="#595959" font-family="Verdana,Open Sans,DejaVu Sans,sans-serif" font-weight="400" font-size="41" transform="matrix(1 0 0 1 4404.56 454)">Smartphone</text>
		</g>
		<g>
			<rect x="4372" y="508" width="22.9995" height="23" fill="#f6a118" />
		</g>
		<g>
			<text fill="#595959" font-family="Verdana,Open Sans,DejaVu Sans,sans-serif" font-weight="400" font-size="41" transform="matrix(1 0 0 1 4404.56 531)">Tablet</text>
		</g>
		<g>
			<rect x="4372" y="585" width="22.9995" height="23" fill="#55c0e9" />
		</g>
		<g>
			<text fill="#595959" font-family="Verdana,Open Sans,DejaVu Sans,sans-serif" font-weight="400" font-size="41" transform="matrix(1 0 0 1 4404.56 608)">Other</text>
		</g>
		<g>
			<rect x="4372" y="662" width="22.9995" height="23" fill="#fdd5a4" />
		</g>
		<g>
			<text fill="#595959" font-family="Verdana,Open Sans,DejaVu Sans,sans-serif" font-weight="400" font-size="41" transform="matrix(1 0 0 1 4404.56 685)">Tv</text>
		</g>
		<g>
			<rect x="4372" y="739" width="22.9995" height="23" fill="#005aa6" />
		</g>
		<g>
			<text fill="#595959" font-family="Verdana,Open Sans,DejaVu Sans,sans-serif" font-weight="400" font-size="41" transform="matrix(1 0 0 1 4404.56 762)">Desktop</text>
		</g>
	</g>
</svg>
