<svg width="1763" height="1046"
    xmlns="http://www.w3.org/2000/svg"
	xmlns:xlink="http://www.w3.org/1999/xlink" xml:space="preserve" overflow="hidden">
	<defs>
		<clipPath id="clip0">
			<rect x="2917" y="346" width="1763" height="1046"/>
		</clipPath>
	</defs>
	<g clip-path="url(#clip0)" transform="translate(-2917 -346)">
		<rect x="2918" y="347" width="1760" height="1043" fill="#FFFFFF" />
		<g>
			<path d="
			M3228.5 974.532 4296.5 974.532
			M3228.5 910.53 4296.5 910.53
			M3228.5 846.528 4296.5 846.528
			M3228.5 781.526 4296.5 781.526
			M3228.5 717.524 4296.5 717.524
			M3228.5 653.522 4296.5 653.522
			M3228.5 589.52 4296.5 589.52
			M3228.5 525.517 4296.5 525.517
			M3228.5 461.515 4296.5 461.515
			M3228.5 397.5 4296.5 397.5" stroke="#D9D9D9" stroke-width="3.4375" stroke-linejoin="round" stroke-miterlimit="10" fill="none" />
		</g>
		<g>
			<path d="M 1038.5 4296.5 1038.5" stroke="#D9D9D9" stroke-width="3.4375" stroke-linejoin="round" stroke-miterlimit="10" fill="none" fill-rule="evenodd" />
		</g>
		<g>
			<text fill="#595959" font-family="Verdana,sans-serif" font-weight="400" font-size="41" transform="matrix(6.12323e-17 -1 1 6.12323e-17 3244.5 1227)">06-Nov</text>
		</g>
		<g>
			<text fill="#595959" font-family="Verdana,sans-serif" font-weight="400" font-size="41" transform="matrix(6.12323e-17 -1 1 6.12323e-17 3333.5 1226)">20-Nov</text>
		</g>
		<g>
			<text fill="#595959" font-family="Verdana,sans-serif" font-weight="400" font-size="41" transform="matrix(6.12323e-17 -1 1 6.12323e-17 3422.5 1225)">04-Dec</text>
		</g>
		<g>
			<text fill="#595959" font-family="Verdana,sans-serif" font-weight="400" font-size="41" transform="matrix(6.12323e-17 -1 1 6.12323e-17 3511.5 1222)">18-Dec</text>
		</g>
		<g>
			<text fill="#595959" font-family="Verdana,sans-serif" font-weight="400" font-size="41" transform="matrix(6.12323e-17 -1 1 6.12323e-17 3600.5 1212)">01-Jan</text>
		</g>
		<g>
			<text fill="#595959" font-family="Verdana,sans-serif" font-weight="400" font-size="41" transform="matrix(6.12323e-17 -1 1 6.12323e-17 3689 1209)">15-Jan</text>
		</g>
		<g>
			<text fill="#595959" font-family="Verdana,sans-serif" font-weight="400" font-size="41" transform="matrix(6.12323e-17 -1 1 6.12323e-17 3778.5 1211)">29-Jan</text>
		</g>
		<g>
			<text fill="#595959" font-family="Verdana,sans-serif" font-weight="400" font-size="41" transform="matrix(6.12323e-17 -1 1 6.12323e-17 3867.5 1216)">12-Feb</text>
		</g>
		<g>
			<text fill="#595959" font-family="Verdana,sans-serif" font-weight="400" font-size="41" transform="matrix(6.12323e-17 -1 1 6.12323e-17 3956.5 1218)">26-Feb</text>
		</g>
		<g>
			<text fill="#595959" font-family="Verdana,sans-serif" font-weight="400" font-size="41" transform="matrix(6.12323e-17 -1 1 6.12323e-17 4045 1222)">11-Mar</text>
		</g>
		<g>
			<text fill="#595959" font-family="Verdana,sans-serif" font-weight="400" font-size="41" transform="matrix(6.12323e-17 -1 1 6.12323e-17 4134.5 1225)">25-Mar</text>
		</g>
		<g>
			<text fill="#595959" font-family="Verdana,sans-serif" font-weight="400" font-size="41" transform="matrix(6.12323e-17 -1 1 6.12323e-17 4227 1218)">08-Apr</text>
		</g>
		<g>
			<text fill="#595959" font-family="Verdana,sans-serif" font-weight="400" font-size="41" transform="matrix(6.12323e-17 -1 1 6.12323e-17 4316 1218)">22-Apr</text>
		</g>
		<g>
			<text fill="#595959" font-family="Verdana,sans-serif" font-weight="400" font-size="41" transform="matrix(1 0 0 1 3123.5 1050)">0%</text>
		</g>
		<g>
			<text fill="#595959" font-family="Verdana,sans-serif" font-weight="400" font-size="41" transform="matrix(1 0 0 1 3097.5 922)">20%</text>
		</g>
		<g>
			<text fill="#595959" font-family="Verdana,sans-serif" font-weight="400" font-size="41" transform="matrix(1 0 0 1 3095.5 794)">40%</text>
		</g>
		<g>
			<text fill="#595959" font-family="Verdana,sans-serif" font-weight="400" font-size="41" transform="matrix(1 0 0 1 3096.5 666)">60%</text>
		</g>
		<g>
			<text fill="#595959" font-family="Verdana,sans-serif" font-weight="400" font-size="41" transform="matrix(1 0 0 1 3096.5 538)">80%</text>
		</g>
		<g>
			<text fill="#595959" font-family="Verdana,sans-serif" font-weight="400" font-size="41" transform="matrix(1 0 0 1 3073.5 410)">100%</text>
		</g>
		<g>
			<text fill="#595959" font-family="Verdana,sans-serif" font-weight="400" font-size="41" transform="matrix(1 0 0 1 3541.5 1321)">Week Commencing</text>
		</g>
		<g>
			<text fill="#595959" font-family="Verdana,sans-serif" font-weight="400" font-size="46" transform="matrix(6.12323e-17 -1 1 6.12323e-17 3019.73 968.75)">Requests (% of Total)</text>
		</g>
		<rect x="2918.5" y="347.5" width="1760" height="1043" stroke="#D9D9D9" stroke-width="3.4375" stroke-linejoin="round" stroke-miterlimit="10" fill="none" />
		<g>
			<path d="M3228.5 1038 3273 1038 3317.5 1038 3362 1038 3406.5 1038 3451 1038 3495.5 1038 3540 1038 3584.5 1038 3629 1038 3673.5 1038 3718 1038 3762.5 1038 3807 1038 3851.5 1038 3896 1038 3940.5 1038 3985 1038 4029.5 1038 4074 1038 4118.5 1038 4163 1038 4207.5 1038 4252 1038 4296.5 1038 4296.5 628.7712194186788 4252 629.1405060461395 4207.5 630.4544284738802 4163 631.6183228637996 4118.5 647.4118241208081 4074 648.3895796632379 4029.5 621.5001438018157 3985 620.7479883324611 3940.5 618.9772962489769 3896 616.6754829613407 3851.5 614.5117939817052 3807 615.2796120230914 3762.5 615.9275087100596 3718 616.3813797093885 3673.5 616.3755182018299 3629 569.065986327317 3584.5 568.8533275368973 3540 570.4200135868562 3495.5 571.2367304637471 3451 574.6430294813756 3406.5 573.9159777926823 3362 571.940753677543 3317.5 571.7928428278394 3273 571.6102570585995 3228.5 570.6431995209241 3228.5 1038Z" fill="#e62d39" opacity="0.9" />
		</g>
		<g>
			<path d="M3228.5 570.6431995209241 3273 571.6102570585995 3317.5 571.7928428278394 3362 571.940753677543 3406.5 573.9159777926823 3451 574.6430294813756 3495.5 571.2367304637471 3540 570.4200135868562 3584.5 568.8533275368973 3629 569.065986327317 3673.5 616.3755182018299 3718 616.3813797093885 3762.5 615.9275087100596 3807 615.2796120230914 3851.5 614.5117939817052 3896 616.6754829613407 3940.5 618.9772962489769 3985 620.7479883324611 4029.5 621.5001438018157 4074 648.3895796632379 4118.5 647.4118241208081 4163 631.6183228637996 4207.5 630.4544284738802 4252 629.1405060461395 4296.5 628.7712194186788 4296.5 546.1401156456737 4252 546.162084159149 4207.5 547.0193242259644 4163 547.5943073684911 4118.5 565.6397555577983 4074 566.0005705781988 4029.5 541.8846686674905 3985 541.0539314470215 3940.5 539.8778029714027 3896 538.0311425357806 3851.5 536.4270145966814 3807 536.7106293649022 3762.5 536.9764016245806 3718 535.7941999215749 3673.5 535.7525782888524 3629 509.06513243323207 3584.5 509.44212806241245 3540 509.38220585337143 3495.5 509.60866877735396 3451 511.9603578529975 3406.5 511.0153758579769 3362 509.7472741468517 3317.5 509.176439393107 3273 508.6338001891333 3228.5 508.14325383903014 3228.5 570.6431995209241Z" fill="#005aa6" opacity="0.9" />
		</g>
		<g>
			<path d="M3228.5 508.14325383903014 3273 508.6338001891333 3317.5 509.176439393107 3362 509.7472741468517 3406.5 511.0153758579769 3451 511.9603578529975 3495.5 509.60866877735396 3540 509.38220585337143 3584.5 509.44212806241245 3629 509.06513243323207 3673.5 535.7525782888524 3718 535.7941999215749 3762.5 536.9764016245806 3807 536.7106293649022 3851.5 536.4270145966814 3896 538.0311425357806 3940.5 539.8778029714027 3985 541.0539314470215 4029.5 541.8846686674905 4074 566.0005705781988 4118.5 565.6397555577983 4163 547.5943073684911 4207.5 547.0193242259644 4252 546.162084159149 4296.5 546.1401156456737 4296.5 521.7061803820658 4252 521.4815581773842 4207.5 522.0175391594702 4163 522.2390966744398 4118.5 540.7792433621357 4074 540.7347903265445 4029.5 520.8422961076436 3985 519.941244366186 3940.5 518.8725186340012 3896 517.1348567955661 3851.5 515.650021587989 3807 515.7382849108784 3762.5 515.8356026961703 3718 514.2250429205485 3673.5 514.175265377396 3629 492.9059942279181 3584.5 493.0966047321476 3540 492.88332734476376 3495.5 492.95479515937706 3451 494.7801665319999 3406.5 493.78468973551225 3362 492.5320066774311 3317.5 491.93197908298504 3273 491.34916929089724 3228.5 490.7876094955426 3228.5 508.14325383903014Z" fill="#55c0e9" opacity="0.9" />
		</g>
		<g>
			<path d="M3228.5 490.7876094955426 3273 491.34916929089724 3317.5 491.93197908298504 3362 492.5320066774311 3406.5 493.78468973551225 3451 494.7801665319999 3495.5 492.95479515937706 3540 492.88332734476376 3584.5 493.0966047321476 3629 492.9059942279181 3673.5 514.175265377396 3718 514.2250429205485 3762.5 515.8356026961703 3807 515.7382849108784 3851.5 515.650021587989 3896 517.1348567955661 3940.5 518.8725186340012 3985 519.941244366186 4029.5 520.8422961076436 4074 540.7347903265445 4118.5 540.7792433621357 4163 522.2390966744398 4207.5 522.0175391594702 4252 521.4815581773842 4296.5 521.7061803820658 4296.5 506.1065487459215 4252 505.9043627233751 4207.5 506.4216643610348 4163 506.6484163233015 4118.5 525.7580510881946 4074 525.7315703546495 4029.5 502.94320923041516 3985 502.107038956447 3940.5 501.18268987180403 3896 499.5661579814509 3851.5 498.2407663238116 3807 498.34179455703446 3762.5 498.4409678079612 3718 496.7688079778267 3673.5 496.7252878979315 3629 467.1119991855256 3584.5 467.30287783529656 3540 467.12354601368946 3495.5 467.18090658715477 3451 468.4609806530692 3406.5 467.6706174617695 3362 466.5807912489142 3317.5 466.04765597528194 3273 465.50683076275004 3228.5 465.1003985575009 3228.5 490.7876094955426Z" fill="#f6a118" opacity="0.9" />
		</g>
		<g>
			<path d="M3228.5 465.1003985575009 3273 465.50683076275004 3317.5 466.04765597528194 3362 466.5807912489142 3406.5 467.6706174617695 3451 468.4609806530692 3495.5 467.18090658715477 3540 467.12354601368946 3584.5 467.30287783529656 3629 467.1119991855256 3673.5 496.7252878979315 3718 496.7688079778267 3762.5 498.4409678079612 3807 498.34179455703446 3851.5 498.2407663238116 3896 499.5661579814509 3940.5 501.18268987180403 3985 502.107038956447 4029.5 502.94320923041516 4074 525.7315703546495 4118.5 525.7580510881946 4163 506.6484163233015 4207.5 506.4216643610348 4252 505.9043627233751 4296.5 506.1065487459215 4296.5 493.7747398235285 4252 493.46369672124194 4207.5 493.7814105421057 4163 493.8307143677906 4118.5 513.2062038257327 4074 513.0191600354991 4029.5 492.37221825805364 3985 491.90854325848505 3940.5 491.3515350353937 3896 490.22585688768174 3851.5 489.18947576032576 3807 489.22333619864025 3762.5 489.223179567103 3718 489.59463668666535 3673.5 489.6274021960388 3629 465.84397535618723 3584.5 466.0407574120686 3540 465.8767979346657 3495.5 465.9500572477321 3451 467.2202695247198 3406.5 466.45583538595343 3362 465.39864568725244 3317.5 464.88886642683036 3273 464.365762498016 3228.5 463.97855376512575 3228.5 465.1003985575009Z" fill="#fdd5a4" opacity="0.9" />
		</g>
		<g>
			<path d="M3228.5 463.97855376512575 3273 464.365762498016 3317.5 464.88886642683036 3362 465.39864568725244 3406.5 466.45583538595343 3451 467.2202695247198 3495.5 465.9500572477321 3540 465.8767979346657 3584.5 466.0407574120686 3629 465.84397535618723 3673.5 489.6274021960388 3718 489.59463668666535 3762.5 489.223179567103 3807 489.22333619864025 3851.5 489.18947576032576 3896 490.22585688768174 3940.5 491.3515350353937 3985 491.90854325848505 4029.5 492.37221825805364 4074 513.0191600354991 4118.5 513.2062038257327 4163 493.8307143677906 4207.5 493.7814105421057 4252 493.46369672124194 4296.5 493.7747398235285 4296.5 397.99999999999994 4252 398 4207.5 397.9999999999999 4163 398.0000000000001 4118.5 398.0000000000001 4074 398 4029.5 397.9999999999999 3985 398.0000000000001 3940.5 398 3896 397.99999999999994 3851.5 398 3807 398 3762.5 397.99999999999994 3718 398.0000000000001 3673.5 397.9999999999999 3629 397.9999999999999 3584.5 398 3540 397.9999999999999 3495.5 397.99999999999994 3451 397.9999999999999 3406.5 397.99999999999994 3362 398 3317.5 398.00000000000006 3273 397.99999999999983 3228.5 398.0000000000001 3228.5 463.97855376512575Z" fill="#393d41" opacity="0.9" />
		</g>
		<g>
			<rect x="4372" y="431" width="22.9995" height="23" fill="#e62d39" />
		</g>
		<g>
			<text fill="#595959" font-family="Verdana,sans-serif" font-weight="400" font-size="41" transform="matrix(1 0 0 1 4404.56 454)">Smartphone</text>
		</g>
		<g>
			<rect x="4372" y="508" width="22.9995" height="23" fill="#005aa6" />
		</g>
		<g>
			<text fill="#595959" font-family="Verdana,sans-serif" font-weight="400" font-size="41" transform="matrix(1 0 0 1 4404.56 531)">Desktop</text>
		</g>
		<g>
			<rect x="4372" y="585" width="22.9995" height="23" fill="#55c0e9" />
		</g>
		<g>
			<text fill="#595959" font-family="Verdana,sans-serif" font-weight="400" font-size="41" transform="matrix(1 0 0 1 4404.56 608)">Other</text>
		</g>
		<g>
			<rect x="4372" y="662" width="22.9995" height="23" fill="#f6a118" />
		</g>
		<g>
			<text fill="#595959" font-family="Verdana,sans-serif" font-weight="400" font-size="41" transform="matrix(1 0 0 1 4404.56 685)">Tablet</text>
		</g>
		<g>
			<rect x="4372" y="739" width="22.9995" height="23" fill="#fdd5a4" />
		</g>
		<g>
			<text fill="#595959" font-family="Verdana,sans-serif" font-weight="400" font-size="41" transform="matrix(1 0 0 1 4404.56 762)">Tv</text>
		</g>
		<g>
			<rect x="4372" y="816" width="22.9995" height="23" fill="#393d41" />
		</g>
		<g>
			<text fill="#595959" font-family="Verdana,sans-serif" font-weight="400" font-size="41" transform="matrix(1 0 0 1 4404.56 839)">Unclassified</text>
		</g>
	</g>
</svg>
