<svg width="1763" height="1046"
    xmlns="http://www.w3.org/2000/svg"
	xmlns:xlink="http://www.w3.org/1999/xlink" xml:space="preserve" overflow="hidden">
	<defs>
		<clipPath id="clip0">
			<rect x="2917" y="346" width="1763" height="1046"/>
		</clipPath>
	</defs>
	<g clip-path="url(#clip0)" transform="translate(-2917 -346)">
		<rect x="2918" y="347" width="1760" height="1043" fill="#FFFFFF" />
		<g>
			<path d="
			M3228.5 974.532 4296.5 974.532
			M3228.5 910.53 4296.5 910.53
			M3228.5 846.528 4296.5 846.528
			M3228.5 781.526 4296.5 781.526
			M3228.5 717.524 4296.5 717.524
			M3228.5 653.522 4296.5 653.522
			M3228.5 589.52 4296.5 589.52
			M3228.5 525.517 4296.5 525.517
			M3228.5 461.515 4296.5 461.515
			M3228.5 397.5 4296.5 397.5" stroke="#D9D9D9" stroke-width="3.4375" stroke-linejoin="round" stroke-miterlimit="10" fill="none" />
		</g>
		<g>
			<path d="M 1038.5 4296.5 1038.5" stroke="#D9D9D9" stroke-width="3.4375" stroke-linejoin="round" stroke-miterlimit="10" fill="none" fill-rule="evenodd" />
		</g>
		<g>
			<text fill="#595959" font-family="Verdana,sans-serif" font-weight="400" font-size="41" transform="matrix(6.12323e-17 -1 1 6.12323e-17 3244.5 1210)">01-Jan</text>
		</g>
		<g>
			<text fill="#595959" font-family="Verdana,sans-serif" font-weight="400" font-size="41" transform="matrix(6.12323e-17 -1 1 6.12323e-17 3328.264705882353 1210)">29-Jan</text>
		</g>
		<g>
			<text fill="#595959" font-family="Verdana,sans-serif" font-weight="400" font-size="41" transform="matrix(6.12323e-17 -1 1 6.12323e-17 3412.029411764706 1216)">26-Feb</text>
		</g>
		<g>
			<text fill="#595959" font-family="Verdana,sans-serif" font-weight="400" font-size="41" transform="matrix(6.12323e-17 -1 1 6.12323e-17 3495.794117647059 1223)">25-Mar</text>
		</g>
		<g>
			<text fill="#595959" font-family="Verdana,sans-serif" font-weight="400" font-size="41" transform="matrix(6.12323e-17 -1 1 6.12323e-17 3583.0588235294117 1216)">22-Apr</text>
		</g>
		<g>
			<text fill="#595959" font-family="Verdana,sans-serif" font-weight="400" font-size="41" transform="matrix(6.12323e-17 -1 1 6.12323e-17 3666.823529411765 1228)">20-May</text>
		</g>
		<g>
			<text fill="#595959" font-family="Verdana,sans-serif" font-weight="400" font-size="41" transform="matrix(6.12323e-17 -1 1 6.12323e-17 3746.5882352941176 1209)">17-Jun</text>
		</g>
		<g>
			<text fill="#595959" font-family="Verdana,sans-serif" font-weight="400" font-size="41" transform="matrix(6.12323e-17 -1 1 6.12323e-17 3830.8529411764707 1194)">15-Jul</text>
		</g>
		<g>
			<text fill="#595959" font-family="Verdana,sans-serif" font-weight="400" font-size="41" transform="matrix(6.12323e-17 -1 1 6.12323e-17 3918.1176470588234 1218)">12-Aug</text>
		</g>
		<g>
			<text fill="#595959" font-family="Verdana,sans-serif" font-weight="400" font-size="41" transform="matrix(6.12323e-17 -1 1 6.12323e-17 4001.8823529411766 1222)">09-Sep</text>
		</g>
		<g>
			<text fill="#595959" font-family="Verdana,sans-serif" font-weight="400" font-size="41" transform="matrix(6.12323e-17 -1 1 6.12323e-17 4082.1470588235293 1215)">07-Oct</text>
		</g>
		<g>
			<text fill="#595959" font-family="Verdana,sans-serif" font-weight="400" font-size="41" transform="matrix(6.12323e-17 -1 1 6.12323e-17 4165.911764705882 1225)">04-Nov</text>
		</g>
		<g>
			<text fill="#595959" font-family="Verdana,sans-serif" font-weight="400" font-size="41" transform="matrix(6.12323e-17 -1 1 6.12323e-17 4249.676470588235 1223)">09-Dec</text>
		</g>
		<g>
			<text fill="#595959" font-family="Verdana,sans-serif" font-weight="400" font-size="41" transform="matrix(1 0 0 1 3123.5 1050)">0%</text>
		</g>
		<g>
			<text fill="#595959" font-family="Verdana,sans-serif" font-weight="400" font-size="41" transform="matrix(1 0 0 1 3097.5 922)">20%</text>
		</g>
		<g>
			<text fill="#595959" font-family="Verdana,sans-serif" font-weight="400" font-size="41" transform="matrix(1 0 0 1 3096.5 794)">40%</text>
		</g>
		<g>
			<text fill="#595959" font-family="Verdana,sans-serif" font-weight="400" font-size="41" transform="matrix(1 0 0 1 3097.5 666)">60%</text>
		</g>
		<g>
			<text fill="#595959" font-family="Verdana,sans-serif" font-weight="400" font-size="41" transform="matrix(1 0 0 1 3097.5 538)">80%</text>
		</g>
		<g>
			<text fill="#595959" font-family="Verdana,sans-serif" font-weight="400" font-size="41" transform="matrix(1 0 0 1 3074.5 410)">100%</text>
		</g>
		<g>
			<text fill="#595959" font-family="Verdana,sans-serif" font-weight="400" font-size="41" transform="matrix(1 0 0 1 3544.5 1321)">Week Commencing</text>
		</g>
		<g>
			<text fill="#595959" font-family="Verdana,sans-serif" font-weight="400" font-size="46" transform="matrix(6.12323e-17 -1 1 6.12323e-17 3019.73 965.25)">Requests (% of Total)</text>
		</g>
		<rect x="2918.5" y="347.5" width="1760" height="1043" stroke="#D9D9D9" stroke-width="3.4375" stroke-linejoin="round" stroke-miterlimit="10" fill="none" />
		<g>
			<path d="M3228.5 1038 3249.4411764705883 1038 3270.3823529411766 1038 3291.323529411765 1038 3312.264705882353 1038 3333.205882352941 1038 3354.1470588235293 1038 3375.0882352941176 1038 3396.029411764706 1038 3416.970588235294 1038 3437.9117647058824 1038 3458.8529411764707 1038 3479.794117647059 1038 3500.735294117647 1038 3521.676470588235 1038 3542.6176470588234 1038 3563.5588235294117 1038 3584.5 1038 3605.4411764705883 1038 3626.3823529411766 1038 3647.323529411765 1038 3668.264705882353 1038 3689.205882352941 1038 3710.1470588235293 1038 3731.0882352941176 1038 3752.029411764706 1038 3772.970588235294 1038 3793.9117647058824 1038 3814.8529411764707 1038 3835.7941176470586 1038 3856.735294117647 1038 3877.676470588235 1038 3898.6176470588234 1038 3919.5588235294117 1038 3940.5 1038 3961.4411764705883 1038 3982.3823529411766 1038 4003.323529411765 1038 4024.264705882353 1038 4045.2058823529414 1038 4066.1470588235293 1038 4087.0882352941176 1038 4108.029411764706 1038 4128.970588235294 1038 4149.911764705882 1038 4170.85294117647 1038 4191.794117647059 1038 4212.735294117647 1038 4233.676470588235 1038 4254.617647058823 1038 4275.558823529412 1038 4296.5 1038 4296.5 533.7499584959044 4275.558823529412 533.5577242345337 4254.617647058823 533.3794235575219 4233.676470588235 533.1839579715512 4212.735294117647 532.7385960569093 4191.794117647059 532.9945218339117 4170.85294117647 533.5883597667535 4149.911764705882 534.4892592748513 4128.970588235294 535.2648007319358 4108.029411764706 642.4592997578948 4087.0882352941176 641.7348258019537 4066.1470588235293 641.0274072878076 4045.2058823529414 640.0328656683237 4024.264705882353 638.7439704461906 4003.323529411765 637.5953366301156 3982.3823529411766 636.388984334016 3961.4411764705883 635.2830954215428 3940.5 634.2801376637599 3919.5588235294117 633.5123019251453 3898.6176470588234 632.703376074059 3877.676470588235 631.9415100696045 3856.735294117647 630.857109120077 3835.7941176470586 629.6835942752446 3814.8529411764707 628.7570391925642 3793.9117647058824 627.5176878063296 3772.970588235294 626.3963136974012 3752.029411764706 625.2428890685153 3731.0882352941176 624.0667377001988 3710.1470588235293 622.80172023452 3689.205882352941 632.4054355541638 3668.264705882353 630.9533026623258 3647.323529411765 630.0731822124889 3626.3823529411766 629.6411395703622 3605.4411764705883 629.3637077507597 3584.5 629.112232069277 3563.5588235294117 628.7712194186788 3542.6176470588234 629.1405060461395 3521.676470588235 630.4544284738802 3500.735294117647 631.6183228637996 3479.794117647059 647.4118241208081 3458.8529411764707 648.3895796632379 3437.9117647058824 621.5001438018157 3416.970588235294 620.7479883324611 3396.029411764706 618.9772962489769 3375.0882352941176 616.6754829613407 3354.1470588235293 614.5117939817052 3333.205882352941 615.2796120230914 3312.264705882353 615.9275087100596 3291.323529411765 616.3813797093885 3270.3823529411766 616.3755182018299 3249.4411764705883 569.065986327317 3228.5 568.8533275368973 3228.5 1038Z" fill="#e62d39" opacity="0.9" />
		</g>
		<g>
			<path d="M3228.5 568.8533275368973 3249.4411764705883 569.065986327317 3270.3823529411766 616.3755182018299 3291.323529411765 616.3813797093885 3312.264705882353 615.9275087100596 3333.205882352941 615.2796120230914 3354.1470588235293 614.5117939817052 3375.0882352941176 616.6754829613407 3396.029411764706 618.9772962489769 3416.970588235294 620.7479883324611 3437.9117647058824 621.5001438018157 3458.8529411764707 648.3895796632379 3479.794117647059 647.4118241208081 3500.735294117647 631.6183228637996 3521.676470588235 630.4544284738802 3542.6176470588234 629.1405060461395 3563.5588235294117 628.7712194186788 3584.5 629.112232069277 3605.4411764705883 629.3637077507597 3626.3823529411766 629.6411395703622 3647.323529411765 630.0731822124889 3668.264705882353 630.9533026623258 3689.205882352941 632.4054355541638 3710.1470588235293 622.80172023452 3731.0882352941176 624.0667377001988 3752.029411764706 625.2428890685153 3772.970588235294 626.3963136974012 3793.9117647058824 627.5176878063296 3814.8529411764707 628.7570391925642 3835.7941176470586 629.6835942752446 3856.735294117647 630.857109120077 3877.676470588235 631.9415100696045 3898.6176470588234 632.703376074059 3919.5588235294117 633.5123019251453 3940.5 634.2801376637599 3961.4411764705883 635.2830954215428 3982.3823529411766 636.388984334016 4003.323529411765 637.5953366301156 4024.264705882353 638.7439704461906 4045.2058823529414 640.0328656683237 4066.1470588235293 641.0274072878076 4087.0882352941176 641.7348258019537 4108.029411764706 642.4592997578948 4128.970588235294 535.2648007319358 4149.911764705882 534.4892592748513 4170.85294117647 533.5883597667535 4191.794117647059 532.9945218339117 4212.735294117647 532.7385960569093 4233.676470588235 533.1839579715512 4254.617647058823 533.3794235575219 4275.558823529412 533.5577242345337 4296.5 533.7499584959044 4296.5 447.6730658977694 4275.558823529412 447.6266609249292 4254.617647058823 447.6323779302626 4233.676470588235 447.6574339250563 4212.735294117647 447.5983732210459 4191.794117647059 447.82372841614773 4170.85294117647 448.23400972704667 4149.911764705882 448.85972838125235 4128.970588235294 449.3446349967366 4108.029411764706 564.013087594675 4087.0882352941176 563.0569322713101 4066.1470588235293 562.1201699126104 4045.2058823529414 560.9592369816268 4024.264705882353 559.5178863272408 4003.323529411765 558.0421991553968 3982.3823529411766 556.6183211021491 3961.4411764705883 555.218566955861 3940.5 553.8747604661306 3919.5588235294117 552.795294537007 3898.6176470588234 551.5476668303065 3877.676470588235 550.4510715595417 3856.735294117647 549.056064697407 3835.7941176470586 547.7069248917836 3814.8529411764707 546.4892681197156 3793.9117647058824 545.0068552240035 3772.970588235294 543.5872074138473 3752.029411764706 542.2071477253921 3731.0882352941176 540.7523658360859 3710.1470588235293 539.1846046453284 3689.205882352941 550.69398337688 3668.264705882353 549.0305649530324 3647.323529411765 547.8419869340069 3626.3823529411766 547.2972215888882 3605.4411764705883 546.9206806705122 3584.5 546.5765460991323 3563.5588235294117 546.1401156456737 3542.6176470588234 546.162084159149 3521.676470588235 547.0193242259644 3500.735294117647 547.5943073684911 3479.794117647059 565.6397555577983 3458.8529411764707 566.0005705781988 3437.9117647058824 541.8846686674905 3416.970588235294 541.0539314470215 3396.029411764706 539.8778029714027 3375.0882352941176 538.0311425357806 3354.1470588235293 536.4270145966814 3333.205882352941 536.7106293649022 3312.264705882353 536.9764016245806 3291.323529411765 535.7941999215749 3270.3823529411766 535.7525782888524 3249.4411764705883 509.06513243323207 3228.5 509.44212806241245 3228.5 568.8533275368973Z" fill="#005aa6" opacity="0.9" />
		</g>
		<g>
			<path d="M3228.5 509.44212806241245 3249.4411764705883 509.06513243323207 3270.3823529411766 535.7525782888524 3291.323529411765 535.7941999215749 3312.264705882353 536.9764016245806 3333.205882352941 536.7106293649022 3354.1470588235293 536.4270145966814 3375.0882352941176 538.0311425357806 3396.029411764706 539.8778029714027 3416.970588235294 541.0539314470215 3437.9117647058824 541.8846686674905 3458.8529411764707 566.0005705781988 3479.794117647059 565.6397555577983 3500.735294117647 547.5943073684911 3521.676470588235 547.0193242259644 3542.6176470588234 546.162084159149 3563.5588235294117 546.1401156456737 3584.5 546.5765460991323 3605.4411764705883 546.9206806705122 3626.3823529411766 547.2972215888882 3647.323529411765 547.8419869340069 3668.264705882353 549.0305649530324 3689.205882352941 550.69398337688 3710.1470588235293 539.1846046453284 3731.0882352941176 540.7523658360859 3752.029411764706 542.2071477253921 3772.970588235294 543.5872074138473 3793.9117647058824 545.0068552240035 3814.8529411764707 546.4892681197156 3835.7941176470586 547.7069248917836 3856.735294117647 549.056064697407 3877.676470588235 550.4510715595417 3898.6176470588234 551.5476668303065 3919.5588235294117 552.795294537007 3940.5 553.8747604661306 3961.4411764705883 555.218566955861 3982.3823529411766 556.6183211021491 4003.323529411765 558.0421991553968 4024.264705882353 559.5178863272408 4045.2058823529414 560.9592369816268 4066.1470588235293 562.1201699126104 4087.0882352941176 563.0569322713101 4108.029411764706 564.013087594675 4128.970588235294 449.3446349967366 4149.911764705882 448.85972838125235 4170.85294117647 448.23400972704667 4191.794117647059 447.82372841614773 4212.735294117647 447.5983732210459 4233.676470588235 447.6574339250563 4254.617647058823 447.6323779302626 4275.558823529412 447.6266609249292 4296.5 447.6730658977694 4296.5 431.76369970238 4275.558823529412 431.68626210177996 4254.617647058823 431.67134423047906 4233.676470588235 431.6887608988929 4212.735294117647 431.6220241661082 4191.794117647059 431.7924327084516 4170.85294117647 432.092774949435 4149.911764705882 432.564435879568 4128.970588235294 432.93399339288885 4108.029411764706 546.9204030305292 4087.0882352941176 545.8568257864155 4066.1470588235293 544.8127323902722 4045.2058823529414 543.5363255639253 4024.264705882353 542.0463398264963 4003.323529411765 540.5961957254219 3982.3823529411766 539.2169576549396 3961.4411764705883 537.8936109153274 3940.5 536.6331257948437 3919.5588235294117 535.6050819142866 3898.6176470588234 534.4058125382159 3877.676470588235 533.3775916629115 3856.735294117647 532.061247110232 3835.7941176470586 530.7890611300827 3814.8529411764707 529.6247258602689 3793.9117647058824 528.2034545359014 3772.970588235294 526.8299613862657 3752.029411764706 525.5140844807112 3731.0882352941176 524.1266360168544 3710.1470588235293 522.6428542520058 3689.205882352941 534.6437405127542 3668.264705882353 533.0478701102087 3647.323529411765 531.9338589484795 3626.3823529411766 531.4787032380433 3605.4411764705883 531.1766187579238 3584.5 530.9100261254564 3563.5588235294117 530.5404840095295 3542.6176470588234 530.58488870514 3521.676470588235 531.423449427529 3500.735294117647 532.0036270173528 3479.794117647059 550.6185632838572 3458.8529411764707 550.9973506063038 3437.9117647058824 523.985581790262 3416.970588235294 523.2197260372825 3396.029411764706 522.1879742092055 3375.0882352941176 520.4624437216655 3354.1470588235293 519.0177593325039 3333.205882352941 519.3141390110583 3312.264705882353 519.5817667363715 3291.323529411765 518.337964978853 3270.3823529411766 518.3026008093879 3249.4411764705883 483.27113739083956 3228.5 483.6484011655614 3228.5 509.44212806241245Z" fill="#55c0e9" opacity="0.9" />
		</g>
		<g>
			<path d="M3228.5 483.6484011655614 3249.4411764705883 483.27113739083956 3270.3823529411766 518.3026008093879 3291.323529411765 518.337964978853 3312.264705882353 519.5817667363715 3333.205882352941 519.3141390110583 3354.1470588235293 519.0177593325039 3375.0882352941176 520.4624437216655 3396.029411764706 522.1879742092055 3416.970588235294 523.2197260372825 3437.9117647058824 523.985581790262 3458.8529411764707 550.9973506063038 3479.794117647059 550.6185632838572 3500.735294117647 532.0036270173528 3521.676470588235 531.423449427529 3542.6176470588234 530.58488870514 3563.5588235294117 530.5404840095295 3584.5 530.9100261254564 3605.4411764705883 531.1766187579238 3626.3823529411766 531.4787032380433 3647.323529411765 531.9338589484795 3668.264705882353 533.0478701102087 3689.205882352941 534.6437405127542 3710.1470588235293 522.6428542520058 3731.0882352941176 524.1266360168544 3752.029411764706 525.5140844807112 3772.970588235294 526.8299613862657 3793.9117647058824 528.2034545359014 3814.8529411764707 529.6247258602689 3835.7941176470586 530.7890611300827 3856.735294117647 532.061247110232 3877.676470588235 533.3775916629115 3898.6176470588234 534.4058125382159 3919.5588235294117 535.6050819142866 3940.5 536.6331257948437 3961.4411764705883 537.8936109153274 3982.3823529411766 539.2169576549396 4003.323529411765 540.5961957254219 4024.264705882353 542.0463398264963 4045.2058823529414 543.5363255639253 4066.1470588235293 544.8127323902722 4087.0882352941176 545.8568257864155 4108.029411764706 546.9204030305292 4128.970588235294 432.93399339288885 4149.911764705882 432.564435879568 4170.85294117647 432.092774949435 4191.794117647059 431.7924327084516 4212.735294117647 431.6220241661082 4233.676470588235 431.6887608988929 4254.617647058823 431.67134423047906 4275.558823529412 431.68626210177996 4296.5 431.76369970238 4296.5 416.0465069983401 4275.558823529412 416.000160121671 4254.617647058823 416.0062420628137 4233.676470588235 416.05161909433286 4212.735294117647 415.99893833884835 4191.794117647059 416.12431960001913 4170.85294117647 416.33420162951643 4149.911764705882 416.71311285195446 4128.970588235294 416.98069451994184 4108.029411764706 523.7363657522843 4087.0882352941176 522.5716439040438 4066.1470588235293 521.4074163425901 4045.2058823529414 520.0402408469882 4024.264705882353 518.4759534407176 4003.323529411765 516.9133817380589 3982.3823529411766 515.447116697529 3961.4411764705883 514.0614365046936 3940.5 512.7024056997157 3919.5588235294117 511.58002059591473 3898.6176470588234 510.82918253556556 3877.676470588235 509.71795680152235 3856.735294117647 508.31754966595287 3835.7941176470586 507.0170454704228 3814.8529411764707 505.8121835322706 3793.9117647058824 504.3173344906432 3772.970588235294 502.8338970689489 3752.029411764706 501.44265119377064 3731.0882352941176 499.9738776632273 3710.1470588235293 498.4242329984132 3689.205882352941 510.9936557335024 3668.264705882353 509.31973026750785 3647.323529411765 508.0481610967102 3626.3823529411766 507.4613080044525 3605.4411764705883 507.0233752398185 3584.5 506.6082216132898 3563.5588235294117 506.1065487459215 3542.6176470588234 505.9043627233751 3521.676470588235 506.42166436103486 3500.735294117647 506.6484163233015 3479.794117647059 525.7580510881946 3458.8529411764707 525.7315703546496 3437.9117647058824 502.94320923041516 3416.970588235294 502.10703895644696 3396.029411764706 501.18268987180403 3375.0882352941176 499.566157981451 3354.1470588235293 498.2407663238116 3333.205882352941 498.3417945570345 3312.264705882353 498.4409678079612 3291.323529411765 496.76880797782667 3270.3823529411766 496.7252878979314 3249.4411764705883 467.1119991855256 3228.5 467.3028778352965 3228.5 483.6484011655614Z" fill="#f6a118" opacity="0.9" />
		</g>
		<g>
			<path d="M3228.5 467.3028778352965 3249.4411764705883 467.1119991855256 3270.3823529411766 496.7252878979314 3291.323529411765 496.76880797782667 3312.264705882353 498.4409678079612 3333.205882352941 498.3417945570345 3354.1470588235293 498.2407663238116 3375.0882352941176 499.566157981451 3396.029411764706 501.18268987180403 3416.970588235294 502.10703895644696 3437.9117647058824 502.94320923041516 3458.8529411764707 525.7315703546496 3479.794117647059 525.7580510881946 3500.735294117647 506.6484163233015 3521.676470588235 506.42166436103486 3542.6176470588234 505.9043627233751 3563.5588235294117 506.1065487459215 3584.5 506.6082216132898 3605.4411764705883 507.0233752398185 3626.3823529411766 507.4613080044525 3647.323529411765 508.0481610967102 3668.264705882353 509.31973026750785 3689.205882352941 510.9936557335024 3710.1470588235293 498.4242329984132 3731.0882352941176 499.9738776632273 3752.029411764706 501.44265119377064 3772.970588235294 502.8338970689489 3793.9117647058824 504.3173344906432 3814.8529411764707 505.8121835322706 3835.7941176470586 507.0170454704228 3856.735294117647 508.31754966595287 3877.676470588235 509.71795680152235 3898.6176470588234 510.82918253556556 3919.5588235294117 511.58002059591473 3940.5 512.7024056997157 3961.4411764705883 514.0614365046936 3982.3823529411766 515.447116697529 4003.323529411765 516.9133817380589 4024.264705882353 518.4759534407176 4045.2058823529414 520.0402408469882 4066.1470588235293 521.4074163425901 4087.0882352941176 522.5716439040438 4108.029411764706 523.7363657522843 4128.970588235294 416.98069451994184 4149.911764705882 416.71311285195446 4170.85294117647 416.33420162951643 4191.794117647059 416.12431960001913 4212.735294117647 415.99893833884835 4233.676470588235 416.05161909433286 4254.617647058823 416.0062420628137 4275.558823529412 416.000160121671 4296.5 416.0465069983401 4296.5 406.67423043388266 4275.558823529412 406.6442240275461 4254.617647058823 406.6769627823681 4233.676470588235 406.7486576922467 4212.735294117647 406.88204596503937 4191.794117647059 407.2984950463532 4170.85294117647 407.42058087187377 4149.911764705882 407.6496849699309 4128.970588235294 407.85452807822685 4108.029411764706 510.457001187623 4087.0882352941176 509.25430348013276 4066.1470588235293 508.03326088042445 4045.2058823529414 506.6178498444704 4024.264705882353 505.0214210075742 4003.323529411765 503.4488995208447 3982.3823529411766 501.99414638500895 3961.4411764705883 500.6747796739521 3940.5 499.3250304832202 3919.5588235294117 498.19946183512485 3898.6176470588234 497.43345523107604 3877.676470588235 496.3492558964332 3856.735294117647 495.0253467220933 3835.7941176470586 493.79057177104784 3814.8529411764707 492.5921558346355 3793.9117647058824 491.08339968159805 3772.970588235294 489.589994805443 3752.029411764706 488.20591127750595 3731.0882352941176 486.7582313224488 3710.1470588235293 485.3927174126073 3689.205882352941 498.4720025363812 3668.264705882353 497.0382614705633 3647.323529411765 495.82345643600064 3626.3823529411766 495.2019189929631 3605.4411764705883 494.71994133496287 3584.5 494.2530601968761 3563.5588235294117 493.7747398235285 3542.6176470588234 493.46369672124194 3521.676470588235 493.78141054210573 3500.735294117647 493.8307143677906 3479.794117647059 513.2062038257327 3458.8529411764707 513.0191600354992 3437.9117647058824 492.37221825805364 3416.970588235294 491.908543258485 3396.029411764706 491.3515350353937 3375.0882352941176 490.22585688768186 3354.1470588235293 489.18947576032576 3333.205882352941 489.2233361986403 3312.264705882353 489.223179567103 3291.323529411765 489.5946366866653 3270.3823529411766 489.6274021960388 3249.4411764705883 465.84397535618723 3228.5 466.04075741206856 3228.5 467.3028778352965Z" fill="#fdd5a4" opacity="0.9" />
		</g>
		<g>
			<path d="M3228.5 466.04075741206856 3249.4411764705883 465.84397535618723 3270.3823529411766 489.6274021960388 3291.323529411765 489.5946366866653 3312.264705882353 489.223179567103 3333.205882352941 489.2233361986403 3354.1470588235293 489.18947576032576 3375.0882352941176 490.22585688768186 3396.029411764706 491.3515350353937 3416.970588235294 491.908543258485 3437.9117647058824 492.37221825805364 3458.8529411764707 513.0191600354992 3479.794117647059 513.2062038257327 3500.735294117647 493.8307143677906 3521.676470588235 493.78141054210573 3542.6176470588234 493.46369672124194 3563.5588235294117 493.7747398235285 3584.5 494.2530601968761 3605.4411764705883 494.71994133496287 3626.3823529411766 495.2019189929631 3647.323529411765 495.82345643600064 3668.264705882353 497.0382614705633 3689.205882352941 498.4720025363812 3710.1470588235293 485.3927174126073 3731.0882352941176 486.7582313224488 3752.029411764706 488.20591127750595 3772.970588235294 489.589994805443 3793.9117647058824 491.08339968159805 3814.8529411764707 492.5921558346355 3835.7941176470586 493.79057177104784 3856.735294117647 495.0253467220933 3877.676470588235 496.3492558964332 3898.6176470588234 497.43345523107604 3919.5588235294117 498.19946183512485 3940.5 499.3250304832202 3961.4411764705883 500.6747796739521 3982.3823529411766 501.99414638500895 4003.323529411765 503.4488995208447 4024.264705882353 505.0214210075742 4045.2058823529414 506.6178498444704 4066.1470588235293 508.03326088042445 4087.0882352941176 509.25430348013276 4108.029411764706 510.457001187623 4128.970588235294 407.85452807822685 4149.911764705882 407.6496849699309 4170.85294117647 407.42058087187377 4191.794117647059 407.2984950463532 4212.735294117647 406.88204596503937 4233.676470588235 406.7486576922467 4254.617647058823 406.6769627823681 4275.558823529412 406.6442240275461 4296.5 406.67423043388266 4296.5 398.0000000000001 4275.558823529412 398.00000000000006 4254.617647058823 398 4233.676470588235 397.9999999999999 4212.735294117647 398 4191.794117647059 397.99999999999994 4170.85294117647 398.0000000000001 4149.911764705882 397.99999999999994 4128.970588235294 398.00000000000006 4108.029411764706 398 4087.0882352941176 397.9999999999999 4066.1470588235293 398 4045.2058823529414 397.99999999999983 4024.264705882353 398.0000000000001 4003.323529411765 397.99999999999994 3982.3823529411766 397.9999999999999 3961.4411764705883 398.0000000000001 3940.5 398 3919.5588235294117 397.99999999999983 3898.6176470588234 397.99999999999994 3877.676470588235 398.0000000000001 3856.735294117647 398.0000000000001 3835.7941176470586 398.00000000000006 3814.8529411764707 398 3793.9117647058824 398.0000000000001 3772.970588235294 397.9999999999999 3752.029411764706 397.99999999999983 3731.0882352941176 398 3710.1470588235293 398 3689.205882352941 398.00000000000006 3668.264705882353 398 3647.323529411765 398.0000000000001 3626.3823529411766 397.99999999999994 3605.4411764705883 398 3584.5 397.99999999999994 3563.5588235294117 397.99999999999994 3542.6176470588234 398 3521.676470588235 398 3500.735294117647 398.0000000000001 3479.794117647059 398.0000000000001 3458.8529411764707 398.0000000000001 3437.9117647058824 397.9999999999999 3416.970588235294 398 3396.029411764706 398 3375.0882352941176 398.00000000000006 3354.1470588235293 398 3333.205882352941 398.0000000000001 3312.264705882353 397.99999999999994 3291.323529411765 398.00000000000006 3270.3823529411766 397.9999999999999 3249.4411764705883 397.9999999999999 3228.5 397.99999999999994 3228.5 466.04075741206856Z" fill="#393d41" opacity="0.9" />
		</g>
		<g>
			<rect x="4372" y="431" width="22.9995" height="23" fill="#e62d39" />
		</g>
		<g>
			<text fill="#595959" font-family="Verdana,sans-serif" font-weight="400" font-size="41" transform="matrix(1 0 0 1 4404.56 454)">Smartphone</text>
		</g>
		<g>
			<rect x="4372" y="508" width="22.9995" height="23" fill="#005aa6" />
		</g>
		<g>
			<text fill="#595959" font-family="Verdana,sans-serif" font-weight="400" font-size="41" transform="matrix(1 0 0 1 4404.56 531)">Desktop</text>
		</g>
		<g>
			<rect x="4372" y="585" width="22.9995" height="23" fill="#55c0e9" />
		</g>
		<g>
			<text fill="#595959" font-family="Verdana,sans-serif" font-weight="400" font-size="41" transform="matrix(1 0 0 1 4404.56 608)">Tablet</text>
		</g>
		<g>
			<rect x="4372" y="662" width="22.9995" height="23" fill="#f6a118" />
		</g>
		<g>
			<text fill="#595959" font-family="Verdana,sans-serif" font-weight="400" font-size="41" transform="matrix(1 0 0 1 4404.56 685)">Other</text>
		</g>
		<g>
			<rect x="4372" y="739" width="22.9995" height="23" fill="#fdd5a4" />
		</g>
		<g>
			<text fill="#595959" font-family="Verdana,sans-serif" font-weight="400" font-size="41" transform="matrix(1 0 0 1 4404.56 762)">Tv</text>
		</g>
		<g>
			<rect x="4372" y="816" width="22.9995" height="23" fill="#393d41" />
		</g>
		<g>
			<text fill="#595959" font-family="Verdana,sans-serif" font-weight="400" font-size="41" transform="matrix(1 0 0 1 4404.56 839)">Unclassified</text>
		</g>
	</g>
</svg>
