<svg width="1763" height="1046"
    xmlns="http://www.w3.org/2000/svg"
	xmlns:xlink="http://www.w3.org/1999/xlink" xml:space="preserve" overflow="hidden">
	<defs>
		<clipPath id="clip0">
			<rect x="2917" y="346" width="1763" height="1046"/>
		</clipPath>
	</defs>
	<g clip-path="url(#clip0)" transform="translate(-2917 -346)">
		<rect x="2918" y="347" width="1760" height="1043" fill="#FFFFFF" />
		<g>
			<path d="
			M3228.5 974.532 4296.5 974.532
			M3228.5 910.53 4296.5 910.53
			M3228.5 846.528 4296.5 846.528
			M3228.5 781.526 4296.5 781.526
			M3228.5 717.524 4296.5 717.524
			M3228.5 653.522 4296.5 653.522
			M3228.5 589.52 4296.5 589.52
			M3228.5 525.517 4296.5 525.517
			M3228.5 461.515 4296.5 461.515
			M3228.5 397.5 4296.5 397.5" stroke="#D9D9D9" stroke-width="3.4375" stroke-linejoin="round" stroke-miterlimit="10" fill="none" />
		</g>
		<g>
			<path d="M 1038.5 4296.5 1038.5" stroke="#D9D9D9" stroke-width="3.4375" stroke-linejoin="round" stroke-miterlimit="10" fill="none" fill-rule="evenodd" />
		</g>
		<g>
			<text fill="#595959" font-family="Verdana,sans-serif" font-weight="400" font-size="41" transform="matrix(6.12323e-17 -1 1 6.12323e-17 3244.5 1225)">06-Nov</text>
		</g>
		<g>
			<text fill="#595959" font-family="Verdana,sans-serif" font-weight="400" font-size="41" transform="matrix(6.12323e-17 -1 1 6.12323e-17 3370.1470588235293 1223)">04-Dec</text>
		</g>
		<g>
			<text fill="#595959" font-family="Verdana,sans-serif" font-weight="400" font-size="41" transform="matrix(6.12323e-17 -1 1 6.12323e-17 3495.794117647059 1210)">01-Jan</text>
		</g>
		<g>
			<text fill="#595959" font-family="Verdana,sans-serif" font-weight="400" font-size="41" transform="matrix(6.12323e-17 -1 1 6.12323e-17 3621.4411764705883 1210)">29-Jan</text>
		</g>
		<g>
			<text fill="#595959" font-family="Verdana,sans-serif" font-weight="400" font-size="41" transform="matrix(6.12323e-17 -1 1 6.12323e-17 3747.0882352941176 1216)">26-Feb</text>
		</g>
		<g>
			<text fill="#595959" font-family="Verdana,sans-serif" font-weight="400" font-size="41" transform="matrix(6.12323e-17 -1 1 6.12323e-17 3872.735294117647 1223)">25-Mar</text>
		</g>
		<g>
			<text fill="#595959" font-family="Verdana,sans-serif" font-weight="400" font-size="41" transform="matrix(6.12323e-17 -1 1 6.12323e-17 4001.8823529411766 1216)">22-Apr</text>
		</g>
		<g>
			<text fill="#595959" font-family="Verdana,sans-serif" font-weight="400" font-size="41" transform="matrix(6.12323e-17 -1 1 6.12323e-17 4127.529411764706 1228)">20-May</text>
		</g>
		<g>
			<text fill="#595959" font-family="Verdana,sans-serif" font-weight="400" font-size="41" transform="matrix(6.12323e-17 -1 1 6.12323e-17 4249.176470588235 1209)">17-Jun</text>
		</g>
		<g>
			<text fill="#595959" font-family="Verdana,sans-serif" font-weight="400" font-size="41" transform="matrix(1 0 0 1 3167.5 1050)">0</text>
		</g>
		<g>
			<text fill="#595959" font-family="Verdana,sans-serif" font-weight="400" font-size="41" transform="matrix(1 0 0 1 3051.5 922)">17,110</text>
		</g>
		<g>
			<text fill="#595959" font-family="Verdana,sans-serif" font-weight="400" font-size="41" transform="matrix(1 0 0 1 3048.5 794)">34,220</text>
		</g>
		<g>
			<text fill="#595959" font-family="Verdana,sans-serif" font-weight="400" font-size="41" transform="matrix(1 0 0 1 3049.5 666)">51,329</text>
		</g>
		<g>
			<text fill="#595959" font-family="Verdana,sans-serif" font-weight="400" font-size="41" transform="matrix(1 0 0 1 3048.5 538)">68,439</text>
		</g>
		<g>
			<text fill="#595959" font-family="Verdana,sans-serif" font-weight="400" font-size="41" transform="matrix(1 0 0 1 3047.5 410)">85,549</text>
		</g>
		<g>
			<text fill="#595959" font-family="Verdana,sans-serif" font-weight="400" font-size="41" transform="matrix(1 0 0 1 3544.5 1321)">Week Commencing</text>
		</g>
		<g>
			<text fill="#595959" font-family="Verdana,sans-serif" font-weight="400" font-size="46" transform="matrix(6.12323e-17 -1 1 6.12323e-17 3019.73 1048.25)">Number of Hardware Profiles</text>
		</g>
		<rect x="2918.5" y="347.5" width="1760" height="1043" stroke="#D9D9D9" stroke-width="3.4375" stroke-linejoin="round" stroke-miterlimit="10" fill="none" />
		<g>
			<path d="M3228.5 1038 3259.9117647058824 1038 3291.323529411765 1038 3322.735294117647 1038 3354.1470588235293 1038 3385.5588235294117 1038 3416.970588235294 1038 3448.3823529411766 1038 3479.794117647059 1038 3511.205882352941 1038 3542.6176470588234 1038 3574.029411764706 1038 3605.4411764705883 1038 3636.8529411764707 1038 3668.264705882353 1038 3699.676470588235 1038 3731.0882352941176 1038 3762.5 1038 3793.9117647058824 1038 3825.323529411765 1038 3856.735294117647 1038 3888.1470588235293 1038 3919.5588235294117 1038 3950.970588235294 1038 3982.3823529411766 1038 4013.7941176470586 1038 4045.205882352941 1038 4076.6176470588234 1038 4108.029411764706 1038 4139.441176470588 1038 4170.85294117647 1038 4202.264705882353 1038 4233.676470588235 1038 4265.088235294117 1038 4296.5 1038 4296.5 688.9696197500848 4265.088235294117 689.2987878291973 4233.676470588235 689.5755882593601 4202.264705882353 689.6055126301885 4170.85294117647 689.7401722989164 4139.441176470588 689.8224643186945 4108.029411764706 690.1516323978071 4076.6176470588234 690.3910273644344 4045.205882352941 690.5556114039907 4013.7941176470586 690.862336204982 3982.3823529411766 691.2438719330441 3950.970588235294 691.7002185881776 3919.5588235294117 692.0742732235327 3888.1470588235293 692.4034413026452 3856.735294117647 692.6353551765656 3825.323529411765 692.9121556067283 3793.9117647058824 693.1590316660627 3762.5 693.3460589837402 3731.0882352941176 693.5106430232966 3699.676470588235 693.6303405066103 3668.264705882353 693.8248489169949 3636.8529411764707 694.0268384200867 3605.4411764705883 694.5205905387556 3574.029411764706 694.8796829886966 3542.6176470588234 695.3285485511228 3511.205882352941 695.7923762989632 3479.794117647059 696.13650656349 3448.3823529411766 696.0766578218331 3416.970588235294 696.3684204374101 3385.5588235294117 696.7050696092298 3354.1470588235293 696.9743889466856 3322.735294117647 697.3334813966264 3291.323529411765 697.6402061976178 3259.9117647058824 697.946930998609 3228.5 698.4332020245707 3228.5 1038Z" fill="#e62d39" opacity="0.9" />
		</g>
		<g>
			<path d="M3228.5 698.4332020245707 3259.9117647058824 697.946930998609 3291.323529411765 697.6402061976178 3322.735294117647 697.3334813966264 3354.1470588235293 696.9743889466856 3385.5588235294117 696.7050696092298 3416.970588235294 696.3684204374101 3448.3823529411766 696.0766578218331 3479.794117647059 696.13650656349 3511.205882352941 695.7923762989632 3542.6176470588234 695.3285485511228 3574.029411764706 694.8796829886966 3605.4411764705883 694.5205905387556 3636.8529411764707 694.0268384200867 3668.264705882353 693.8248489169949 3699.676470588235 693.6303405066103 3731.0882352941176 693.5106430232966 3762.5 693.3460589837402 3793.9117647058824 693.1590316660627 3825.323529411765 692.9121556067283 3856.735294117647 692.6353551765656 3888.1470588235293 692.4034413026452 3919.5588235294117 692.0742732235327 3950.970588235294 691.7002185881776 3982.3823529411766 691.2438719330441 4013.7941176470586 690.862336204982 4045.205882352941 690.5556114039907 4076.6176470588234 690.3910273644344 4108.029411764706 690.1516323978071 4139.441176470588 689.8224643186945 4170.85294117647 689.7401722989164 4202.264705882353 689.6055126301885 4233.676470588235 689.5755882593601 4265.088235294117 689.2987878291973 4296.5 688.9696197500848 4296.5 520.3457901319712 4265.088235294117 520.5777040058913 4233.676470588235 520.9293153631252 4202.264705882353 520.9816830120749 4170.85294117647 521.1537481443384 4139.441176470588 521.2435212568236 4108.029411764706 521.7148300973711 4076.6176470588234 522.1711767525044 4045.205882352941 522.5601935732739 4013.7941176470586 523.0389835065284 3982.3823529411766 523.6150276449753 3950.970588235294 524.2883259886148 3919.5588235294117 524.8494079416475 3888.1470588235293 525.3431600603162 3856.735294117647 525.6573659540147 3825.323529411765 526.0164584039557 3793.9117647058824 526.3830319466036 3762.5 526.6299080059381 3731.0882352941176 526.9067084361009 3699.676470588235 527.0862546610715 3668.264705882353 527.3780172766485 3636.8529411764707 527.6548177068113 3605.4411764705883 528.2533051233797 3574.029411764706 528.7395761493414 3542.6176470588234 529.3156202877883 3511.205882352941 529.9215887970637 3479.794117647059 530.4003787303184 3448.3823529411766 530.3480110813687 3416.970588235294 530.7145846240167 3385.5588235294117 531.2008556499784 3354.1470588235293 531.746975417597 3322.735294117647 532.3379817414581 3291.323529411765 532.9813557142691 3259.9117647058824 533.564880945423 3228.5 534.2381792890624 3228.5 698.4332020245707Z" fill="#f6a118" opacity="0.9" />
		</g>
		<g>
			<path d="M3228.5 534.2381792890624 3259.9117647058824 533.564880945423 3291.323529411765 532.9813557142691 3322.735294117647 532.3379817414581 3354.1470588235293 531.746975417597 3385.5588235294117 531.2008556499784 3416.970588235294 530.7145846240167 3448.3823529411766 530.3480110813687 3479.794117647059 530.4003787303184 3511.205882352941 529.9215887970637 3542.6176470588234 529.3156202877883 3574.029411764706 528.7395761493414 3605.4411764705883 528.2533051233797 3636.8529411764707 527.6548177068113 3668.264705882353 527.3780172766485 3699.676470588235 527.0862546610715 3731.0882352941176 526.9067084361009 3762.5 526.6299080059381 3793.9117647058824 526.3830319466036 3825.323529411765 526.0164584039557 3856.735294117647 525.6573659540147 3888.1470588235293 525.3431600603162 3919.5588235294117 524.8494079416475 3950.970588235294 524.2883259886148 3982.3823529411766 523.6150276449753 4013.7941176470586 523.0389835065284 4045.205882352941 522.5601935732739 4076.6176470588234 522.1711767525044 4108.029411764706 521.7148300973711 4139.441176470588 521.2435212568236 4170.85294117647 521.1537481443384 4202.264705882353 520.9816830120749 4233.676470588235 520.9293153631252 4265.088235294117 520.5777040058913 4296.5 520.3457901319712 4296.5 442.145928064618 4265.088235294117 442.6022747197512 4233.676470588235 442.96884826239926 4202.264705882353 443.0286970040561 4170.85294117647 443.2157243217338 4139.441176470588 443.3129785269261 4108.029411764706 443.814211738302 4076.6176470588234 444.31544494967795 4045.205882352941 444.7343861412758 4013.7941176470586 445.25058153806594 3982.3823529411766 445.8789933254625 3950.970588235294 446.5896971326375 3919.5588235294117 447.16574127108447 3888.1470588235293 447.7043799459958 3856.735294117647 448.0335480251085 3825.323529411765 448.42256484587784 3793.9117647058824 448.80410057394 3762.5 449.0584577259816 3731.0882352941176 449.35770143426566 3699.676470588235 449.5522098446505 3668.264705882353 449.85893464564174 3636.8529411764707 450.1656594466329 3605.4411764705883 450.77162795590846 3574.029411764706 451.2803422599914 3542.6176470588234 451.8713485838525 3511.205882352941 452.5371658347848 3479.794117647059 453.04588013886786 3448.3823529411766 453.0458801388679 3416.970588235294 453.41993477422295 3385.5588235294117 453.99597891266995 3354.1470588235293 454.5795041438241 3322.735294117647 455.17799156039223 3291.323529411765 455.85877099673877 3259.9117647058824 456.5021449695496 3228.5 457.2278109621386 3228.5 534.2381792890624Z" fill="#55c0e9" opacity="0.9" />
		</g>
		<g>
			<path d="M3228.5 457.2278109621386 3259.9117647058824 456.5021449695496 3291.323529411765 455.85877099673877 3322.735294117647 455.17799156039223 3354.1470588235293 454.5795041438241 3385.5588235294117 453.99597891266995 3416.970588235294 453.41993477422295 3448.3823529411766 453.0458801388679 3479.794117647059 453.04588013886786 3511.205882352941 452.5371658347848 3542.6176470588234 451.8713485838525 3574.029411764706 451.2803422599914 3605.4411764705883 450.77162795590846 3636.8529411764707 450.1656594466329 3668.264705882353 449.85893464564174 3699.676470588235 449.5522098446505 3731.0882352941176 449.35770143426566 3762.5 449.0584577259816 3793.9117647058824 448.80410057394 3825.323529411765 448.42256484587784 3856.735294117647 448.0335480251085 3888.1470588235293 447.7043799459958 3919.5588235294117 447.16574127108447 3950.970588235294 446.5896971326375 3982.3823529411766 445.8789933254625 4013.7941176470586 445.25058153806594 4045.205882352941 444.7343861412758 4076.6176470588234 444.31544494967795 4108.029411764706 443.814211738302 4139.441176470588 443.3129785269261 4170.85294117647 443.2157243217338 4202.264705882353 443.0286970040561 4233.676470588235 442.96884826239926 4265.088235294117 442.6022747197512 4296.5 442.145928064618 4296.5 399.3765210581071 4265.088235294117 400.0872248652819 4233.676470588235 400.79792867245664 4202.264705882353 401.5011513869244 4170.85294117647 402.1744497305638 4139.441176470588 402.8477480742031 4108.029411764706 403.6183006230347 4076.6176470588234 404.22426913231016 4045.205882352941 404.785351085343 4013.7941176470586 405.44368724356804 3982.3823529411766 406.2292019778138 3950.970588235294 406.9922734339385 3919.5588235294117 407.6880150556991 3888.1470588235293 408.264059194146 3856.735294117647 408.6231516440871 3825.323529411765 409.0645361138062 3793.9117647058824 409.4685151199896 3762.5 409.850050848052 3731.0882352941176 410.32884078130655 3699.676470588235 410.9722147541176 3668.264705882353 411.75772948836345 3636.8529411764707 412.19163286537537 3605.4411764705883 412.8424879308935 3574.029411764706 413.4858619037044 3542.6176470588234 414.114273691101 3511.205882352941 414.8773451472256 3479.794117647059 415.49079474920813 3448.3823529411766 415.4907947492082 3416.970588235294 415.9546224970485 3385.5588235294117 416.6354019333949 3354.1470588235293 417.3236624624485 3322.735294117647 418.0642906404516 3291.323529411765 418.879729745526 3259.9117647058824 419.59791464540785 3228.5 420.4432781213105 3228.5 457.2278109621386Z" fill="#fdd5a4" opacity="0.9" />
		</g>
		<g>
			<path d="M3228.5 420.4432781213105 3259.9117647058824 419.59791464540785 3291.323529411765 418.879729745526 3322.735294117647 418.0642906404516 3354.1470588235293 417.3236624624485 3385.5588235294117 416.6354019333949 3416.970588235294 415.9546224970485 3448.3823529411766 415.4907947492082 3479.794117647059 415.49079474920813 3511.205882352941 414.8773451472256 3542.6176470588234 414.114273691101 3574.029411764706 413.4858619037044 3605.4411764705883 412.8424879308935 3636.8529411764707 412.19163286537537 3668.264705882353 411.75772948836345 3699.676470588235 410.9722147541176 3731.0882352941176 410.32884078130655 3762.5 409.850050848052 3793.9117647058824 409.4685151199896 3825.323529411765 409.0645361138062 3856.735294117647 408.6231516440871 3888.1470588235293 408.264059194146 3919.5588235294117 407.6880150556991 3950.970588235294 406.9922734339385 3982.3823529411766 406.2292019778138 4013.7941176470586 405.44368724356804 4045.205882352941 404.785351085343 4076.6176470588234 404.22426913231016 4108.029411764706 403.6183006230347 4139.441176470588 402.8477480742031 4170.85294117647 402.1744497305638 4202.264705882353 401.5011513869244 4233.676470588235 400.79792867245664 4265.088235294117 400.0872248652819 4296.5 399.3765210581071 4296.5 398 4265.088235294117 398.7107038071748 4233.676470588235 399.42140761434956 4202.264705882353 400.1246303288173 4170.85294117647 400.79792867245675 4139.441176470588 401.471227016096 4108.029411764706 402.24177956492764 4076.6176470588234 402.8477480742031 4045.205882352941 403.4088300272359 4013.7941176470586 404.06716618546096 3982.3823529411766 404.8526809197067 3950.970588235294 405.61575237583145 3919.5588235294117 406.32645618300626 3888.1470588235293 406.90250032145315 3856.735294117647 407.26159277139425 3825.323529411765 407.70297724111333 3793.9117647058824 408.10695624729675 3762.5 408.4884919753591 3731.0882352941176 408.9672819086137 3699.676470588235 409.61065588142475 3668.264705882353 410.3961706156706 3636.8529411764707 410.8300739926825 3605.4411764705883 411.4809290582007 3574.029411764706 412.12430303101155 3542.6176470588234 412.75271481840815 3511.205882352941 413.51578627453273 3479.794117647059 414.1292358765153 3448.3823529411766 414.12923587651534 3416.970588235294 414.6229879951841 3385.5588235294117 415.3112485242376 3354.1470588235293 415.9995090532912 3322.735294117647 416.7401372312943 3291.323529411765 417.5555763363687 3259.9117647058824 418.27376123625055 3228.5 419.1191247121532 3228.5 420.4432781213105Z" fill="#005aa6" opacity="0.9" />
		</g>
		<g>
			<rect x="4372" y="431" width="22.9995" height="23" fill="#e62d39" />
		</g>
		<g>
			<text fill="#595959" font-family="Verdana,sans-serif" font-weight="400" font-size="41" transform="matrix(1 0 0 1 4404.56 454)">Smartphone</text>
		</g>
		<g>
			<rect x="4372" y="508" width="22.9995" height="23" fill="#f6a118" />
		</g>
		<g>
			<text fill="#595959" font-family="Verdana,sans-serif" font-weight="400" font-size="41" transform="matrix(1 0 0 1 4404.56 531)">Tablet</text>
		</g>
		<g>
			<rect x="4372" y="585" width="22.9995" height="23" fill="#55c0e9" />
		</g>
		<g>
			<text fill="#595959" font-family="Verdana,sans-serif" font-weight="400" font-size="41" transform="matrix(1 0 0 1 4404.56 608)">Other</text>
		</g>
		<g>
			<rect x="4372" y="662" width="22.9995" height="23" fill="#fdd5a4" />
		</g>
		<g>
			<text fill="#595959" font-family="Verdana,sans-serif" font-weight="400" font-size="41" transform="matrix(1 0 0 1 4404.56 685)">Tv</text>
		</g>
		<g>
			<rect x="4372" y="739" width="22.9995" height="23" fill="#005aa6" />
		</g>
		<g>
			<text fill="#595959" font-family="Verdana,sans-serif" font-weight="400" font-size="41" transform="matrix(1 0 0 1 4404.56 762)">Desktop</text>
		</g>
	</g>
</svg>
