<svg width="1763" height="1046"
    xmlns="http://www.w3.org/2000/svg"
	xmlns:xlink="http://www.w3.org/1999/xlink" xml:space="preserve" overflow="hidden">
	<defs>
		<clipPath id="clip0">
			<rect x="2917" y="346" width="1763" height="1046"/>
		</clipPath>
	</defs>
	<g clip-path="url(#clip0)" transform="translate(-2917 -346)">
		<rect x="2918" y="347" width="1760" height="1043" fill="#FFFFFF" />
		<g>
			<path d="
			M3228.5 974.532 4296.5 974.532
			M3228.5 910.53 4296.5 910.53
			M3228.5 846.528 4296.5 846.528
			M3228.5 781.526 4296.5 781.526
			M3228.5 717.524 4296.5 717.524
			M3228.5 653.522 4296.5 653.522
			M3228.5 589.52 4296.5 589.52
			M3228.5 525.517 4296.5 525.517
			M3228.5 461.515 4296.5 461.515
			M3228.5 397.5 4296.5 397.5" stroke="#D9D9D9" stroke-width="3.4375" stroke-linejoin="round" stroke-miterlimit="10" fill="none" />
		</g>
		<g>
			<path d="M 1038.5 4296.5 1038.5" stroke="#D9D9D9" stroke-width="3.4375" stroke-linejoin="round" stroke-miterlimit="10" fill="none" fill-rule="evenodd" />
		</g>
		<g>
			<text fill="#595959" font-family="Verdana,Open Sans,DejaVu Sans,sans-serif" font-weight="400" font-size="41" transform="matrix(6.12323e-17 -1 1 6.12323e-17 3247.928955078125 1179.0385665893555)">21-Jul</text>
		</g>
		<g>
			<text fill="#595959" font-family="Verdana,Open Sans,DejaVu Sans,sans-serif" font-weight="400" font-size="41" transform="matrix(6.12323e-17 -1 1 6.12323e-17 3330.423133263221 1206.90576171875)">18-Aug</text>
		</g>
		<g>
			<text fill="#595959" font-family="Verdana,Open Sans,DejaVu Sans,sans-serif" font-weight="400" font-size="41" transform="matrix(6.12323e-17 -1 1 6.12323e-17 3412.5769794170674 1202.66162109375)">15-Sep</text>
		</g>
		<g>
			<text fill="#595959" font-family="Verdana,Open Sans,DejaVu Sans,sans-serif" font-weight="400" font-size="41" transform="matrix(6.12323e-17 -1 1 6.12323e-17 3490.0262357271636 1199.3784103393555)">13-Oct</text>
		</g>
		<g>
			<text fill="#595959" font-family="Verdana,Open Sans,DejaVu Sans,sans-serif" font-weight="400" font-size="41" transform="matrix(6.12323e-17 -1 1 6.12323e-17 3572.1800818810098 1209.70849609375)">10-Nov</text>
		</g>
		<g>
			<text fill="#595959" font-family="Verdana,Open Sans,DejaVu Sans,sans-serif" font-weight="400" font-size="41" transform="matrix(6.12323e-17 -1 1 6.12323e-17 3654.333928034856 1207.0859375)">08-Dec</text>
		</g>
		<g>
			<text fill="#595959" font-family="Verdana,Open Sans,DejaVu Sans,sans-serif" font-weight="400" font-size="41" transform="matrix(6.12323e-17 -1 1 6.12323e-17 3740.141338641827 1191.6508712768555)">05-Jan</text>
		</g>
		<g>
			<text fill="#595959" font-family="Verdana,Open Sans,DejaVu Sans,sans-serif" font-weight="400" font-size="41" transform="matrix(6.12323e-17 -1 1 6.12323e-17 3819.352313701923 1203.0419921875)">02-Feb</text>
		</g>
		<g>
			<text fill="#595959" font-family="Verdana,Open Sans,DejaVu Sans,sans-serif" font-weight="400" font-size="41" transform="matrix(6.12323e-17 -1 1 6.12323e-17 3900.7954664963945 1212.0107421875)">02-Mar</text>
		</g>
		<g>
			<text fill="#595959" font-family="Verdana,Open Sans,DejaVu Sans,sans-serif" font-weight="400" font-size="41" transform="matrix(6.12323e-17 -1 1 6.12323e-17 3982.9493126502402 1212.1708984375)">30-Mar</text>
		</g>
		<g>
			<text fill="#595959" font-family="Verdana,Open Sans,DejaVu Sans,sans-serif" font-weight="400" font-size="41" transform="matrix(6.12323e-17 -1 1 6.12323e-17 4069.807748647837 1203.3022384643555)">27-Apr</text>
		</g>
		<g>
			<text fill="#595959" font-family="Verdana,Open Sans,DejaVu Sans,sans-serif" font-weight="400" font-size="41" transform="matrix(6.12323e-17 -1 1 6.12323e-17 4151.961594801683 1216.51513671875)">25-May</text>
		</g>
		<g>
			<text fill="#595959" font-family="Verdana,Open Sans,DejaVu Sans,sans-serif" font-weight="400" font-size="41" transform="matrix(6.12323e-17 -1 1 6.12323e-17 4233.044396033654 1194.0532150268555)">22-Jun</text>
		</g>
		<g>
			<text fill="#595959" font-family="Verdana,Open Sans,DejaVu Sans,sans-serif" font-weight="400" font-size="41" transform="matrix(6.12323e-17 -1 1 6.12323e-17 4315.928955078125 1179.0385665893555)">20-Jul</text>
		</g>
		<g>
			<text fill="#595959" font-family="Verdana,Open Sans,DejaVu Sans,sans-serif" font-weight="400" font-size="41" transform="matrix(1 0 0 1 3135.4482421875 1050)">0%</text>
		</g>
		<g>
			<text fill="#595959" font-family="Verdana,Open Sans,DejaVu Sans,sans-serif" font-weight="400" font-size="41" transform="matrix(1 0 0 1 3111.96533203125 922)">20%</text>
		</g>
		<g>
			<text fill="#595959" font-family="Verdana,Open Sans,DejaVu Sans,sans-serif" font-weight="400" font-size="41" transform="matrix(1 0 0 1 3110.82421875 794)">40%</text>
		</g>
		<g>
			<text fill="#595959" font-family="Verdana,Open Sans,DejaVu Sans,sans-serif" font-weight="400" font-size="41" transform="matrix(1 0 0 1 3112.3056640625 666)">60%</text>
		</g>
		<g>
			<text fill="#595959" font-family="Verdana,Open Sans,DejaVu Sans,sans-serif" font-weight="400" font-size="41" transform="matrix(1 0 0 1 3112.04541015625 538)">80%</text>
		</g>
		<g>
			<text fill="#595959" font-family="Verdana,Open Sans,DejaVu Sans,sans-serif" font-weight="400" font-size="41" transform="matrix(1 0 0 1 3090.2841796875 410)">100%</text>
		</g>
		<g>
			<text fill="#595959" font-family="Verdana,Open Sans,DejaVu Sans,sans-serif" font-weight="400" font-size="41" transform="matrix(1 0 0 1 3556.97119140625 1321)">Week Commencing</text>
		</g>
		<g>
			<text fill="#595959" font-family="Verdana,Open Sans,DejaVu Sans,sans-serif" font-weight="400" font-size="46" transform="matrix(6.12323e-17 -1 1 6.12323e-17 3019.73 936.7665710449219)">Requests (% of Total)</text>
		</g>
		<rect x="2918.5" y="347.5" width="1760" height="1043" stroke="#D9D9D9" stroke-width="3.4375" stroke-linejoin="round" stroke-miterlimit="10" fill="none" />
		<g>
			<path d="M3228.5 1038 3249.0384615384614 1038 3269.576923076923 1038 3290.1153846153848 1038 3310.653846153846 1038 3331.1923076923076 1038 3351.730769230769 1038 3372.269230769231 1038 3392.8076923076924 1038 3413.346153846154 1038 3433.8846153846152 1038 3454.423076923077 1038 3474.9615384615386 1038 3495.5 1038 3516.0384615384614 1038 3536.576923076923 1038 3557.1153846153848 1038 3577.653846153846 1038 3598.1923076923076 1038 3618.7307692307695 1038 3639.269230769231 1038 3659.8076923076924 1038 3680.346153846154 1038 3700.8846153846152 1038 3721.423076923077 1038 3741.9615384615386 1038 3762.5 1038 3783.0384615384614 1038 3803.576923076923 1038 3824.1153846153848 1038 3844.653846153846 1038 3865.1923076923076 1038 3885.7307692307695 1038 3906.269230769231 1038 3926.8076923076924 1038 3947.346153846154 1038 3967.8846153846152 1038 3988.423076923077 1038 4008.9615384615386 1038 4029.5 1038 4050.038461538462 1038 4070.576923076923 1038 4091.1153846153848 1038 4111.653846153846 1038 4132.192307692308 1038 4152.7307692307695 1038 4173.2692307692305 1038 4193.807692307692 1038 4214.346153846154 1038 4234.884615384615 1038 4255.423076923077 1038 4275.961538461539 1038 4296.5 1038 4296.5 533.8778602696915 4275.961538461539 514.0899758544781 4255.423076923077 520.3730054020637 4234.884615384615 520.3835914810091 4214.346153846154 519.3281707330073 4193.807692307692 518.4154880673141 4173.2692307692305 517.6700650283706 4152.7307692307695 515.8899714255157 4132.192307692308 515.9024833863414 4111.653846153846 515.904578724329 4091.1153846153848 515.3245661762351 4070.576923076923 514.8699697557453 4050.038461538462 514.4591536928097 4029.5 513.7115682020872 4008.9615384615386 513.7040174538956 3988.423076923077 511.73186653387097 3967.8846153846152 511.24288256352213 3947.346153846154 510.6038163301091 3926.8076923076924 510.132951236195 3906.269230769231 509.98967442059063 3885.7307692307695 509.86699372684916 3865.1923076923076 508.8578828355521 3844.653846153846 508.84856730181616 3824.1153846153848 509.7800526172698 3803.576923076923 510.0683304392354 3783.0384615384614 509.78758316632 3762.5 510.8817631047316 3741.9615384615386 510.8708866486968 3721.423076923077 510.91527035566935 3700.8846153846152 511.17358261897925 3680.346153846154 511.20549455604134 3659.8076923076924 512.098115952951 3639.269230769231 512.1329612369273 3618.7307692307695 512.9189284987364 3598.1923076923076 515.8919455572111 3577.653846153846 514.7969648318594 3557.1153846153848 515.125626744456 3536.576923076923 517.3539587629043 3516.0384615384614 517.3728872760798 3495.5 517.3795154992906 3474.9615384615386 517.3746698568546 3454.423076923077 518.2845849198919 3433.8846153846152 518.2786881359634 3413.346153846154 518.6674644160128 3392.8076923076924 519.0934355637311 3372.269230769231 520.9052457535156 3351.730769230769 521.6318852573548 3331.1923076923076 521.6184156458323 3310.653846153846 522.2681085366032 3290.1153846153848 527.8351358448251 3269.576923076923 527.8182060044346 3249.0384615384614 527.8171189568005 3228.5 527.8195281696414 3228.5 1038Z" fill="#e62d39" opacity="0.9" />
		</g>
		<g>
			<path d="M3228.5 527.8195281696414 3249.0384615384614 527.8171189568005 3269.576923076923 527.8182060044346 3290.1153846153848 527.8351358448251 3310.653846153846 522.2681085366032 3331.1923076923076 521.6184156458323 3351.730769230769 521.6318852573548 3372.269230769231 520.9052457535156 3392.8076923076924 519.0934355637311 3413.346153846154 518.6674644160128 3433.8846153846152 518.2786881359634 3454.423076923077 518.2845849198919 3474.9615384615386 517.3746698568546 3495.5 517.3795154992906 3516.0384615384614 517.3728872760798 3536.576923076923 517.3539587629043 3557.1153846153848 515.125626744456 3577.653846153846 514.7969648318594 3598.1923076923076 515.8919455572111 3618.7307692307695 512.9189284987364 3639.269230769231 512.1329612369273 3659.8076923076924 512.098115952951 3680.346153846154 511.20549455604134 3700.8846153846152 511.17358261897925 3721.423076923077 510.91527035566935 3741.9615384615386 510.8708866486968 3762.5 510.8817631047316 3783.0384615384614 509.78758316632 3803.576923076923 510.0683304392354 3824.1153846153848 509.7800526172698 3844.653846153846 508.84856730181616 3865.1923076923076 508.8578828355521 3885.7307692307695 509.86699372684916 3906.269230769231 509.98967442059063 3926.8076923076924 510.132951236195 3947.346153846154 510.6038163301091 3967.8846153846152 511.24288256352213 3988.423076923077 511.73186653387097 4008.9615384615386 513.7040174538956 4029.5 513.7115682020872 4050.038461538462 514.4591536928097 4070.576923076923 514.8699697557453 4091.1153846153848 515.3245661762351 4111.653846153846 515.904578724329 4132.192307692308 515.9024833863414 4152.7307692307695 515.8899714255157 4173.2692307692305 517.6700650283706 4193.807692307692 518.4154880673141 4214.346153846154 519.3281707330073 4234.884615384615 520.3835914810091 4255.423076923077 520.3730054020637 4275.961538461539 514.0899758544781 4296.5 533.8778602696915 4296.5 438.5835163053409 4275.961538461539 439.82384498810086 4255.423076923077 435.1761875878909 4234.884615384615 435.1801119588464 4214.346153846154 435.2370369478745 4193.807692307692 435.07809792423006 4173.2692307692305 434.997709329357 4152.7307692307695 434.59506942257184 4132.192307692308 434.5999601619039 4111.653846153846 434.5980914867922 4091.1153846153848 434.4867324208523 4070.576923076923 434.41028016829483 4050.038461538462 434.41256244945146 4029.5 434.2514890219162 4008.9615384615386 434.3112809177816 3988.423076923077 433.7867264580397 3967.8846153846152 433.5622430486118 3947.346153846154 433.4002138201585 3926.8076923076924 433.30898701618065 3906.269230769231 433.292322077633 3885.7307692307695 433.3119961556043 3865.1923076923076 433.4349407881655 3844.653846153846 433.4317855995608 3824.1153846153848 433.4209825154003 3803.576923076923 433.6740677450532 3783.0384615384614 433.75103255338803 3762.5 435.36079839131713 3741.9615384615386 435.3425795567811 3721.423076923077 435.3887976286378 3700.8846153846152 435.3992247727013 3680.346153846154 435.7778149248337 3659.8076923076924 435.69457104984326 3639.269230769231 435.7373894918581 3618.7307692307695 436.0183299632218 3598.1923076923076 437.1107633727561 3577.653846153846 436.7049406114033 3557.1153846153848 436.8606414580909 3536.576923076923 437.9222955771362 3516.0384615384614 437.9259398239807 3495.5 437.9087165382534 3474.9615384615386 437.90716134158686 3454.423076923077 438.3816771158473 3433.8846153846152 438.3811488943986 3413.346153846154 438.6583696725575 3392.8076923076924 438.939493870515 3372.269230769231 439.76778884064066 3351.730769230769 440.12172845279287 3331.1923076923076 440.1025942817036 3310.653846153846 440.43245647629897 3290.1153846153848 446.0049434709254 3269.576923076923 445.99448025532104 3249.0384615384614 445.9906298366525 3228.5 445.9850763388172 3228.5 527.8195281696414Z" fill="#005aa6" opacity="0.9" />
		</g>
		<g>
			<path d="M3228.5 445.9850763388172 3249.0384615384614 445.9906298366525 3269.576923076923 445.99448025532104 3290.1153846153848 446.0049434709254 3310.653846153846 440.43245647629897 3331.1923076923076 440.1025942817036 3351.730769230769 440.12172845279287 3372.269230769231 439.76778884064066 3392.8076923076924 438.939493870515 3413.346153846154 438.6583696725575 3433.8846153846152 438.3811488943986 3454.423076923077 438.3816771158473 3474.9615384615386 437.90716134158686 3495.5 437.9087165382534 3516.0384615384614 437.9259398239807 3536.576923076923 437.9222955771362 3557.1153846153848 436.8606414580909 3577.653846153846 436.7049406114033 3598.1923076923076 437.1107633727561 3618.7307692307695 436.0183299632218 3639.269230769231 435.7373894918581 3659.8076923076924 435.69457104984326 3680.346153846154 435.7778149248337 3700.8846153846152 435.3992247727013 3721.423076923077 435.3887976286378 3741.9615384615386 435.3425795567811 3762.5 435.36079839131713 3783.0384615384614 433.75103255338803 3803.576923076923 433.6740677450532 3824.1153846153848 433.4209825154003 3844.653846153846 433.4317855995608 3865.1923076923076 433.4349407881655 3885.7307692307695 433.3119961556043 3906.269230769231 433.292322077633 3926.8076923076924 433.30898701618065 3947.346153846154 433.4002138201585 3967.8846153846152 433.5622430486118 3988.423076923077 433.7867264580397 4008.9615384615386 434.3112809177816 4029.5 434.2514890219162 4050.038461538462 434.41256244945146 4070.576923076923 434.41028016829483 4091.1153846153848 434.4867324208523 4111.653846153846 434.5980914867922 4132.192307692308 434.5999601619039 4152.7307692307695 434.59506942257184 4173.2692307692305 434.997709329357 4193.807692307692 435.07809792423006 4214.346153846154 435.2370369478745 4234.884615384615 435.1801119588464 4255.423076923077 435.1761875878909 4275.961538461539 439.82384498810086 4296.5 438.5835163053409 4296.5 419.93667043046275 4275.961538461539 420.43365956646437 4255.423076923077 419.0050670543226 4234.884615384615 419.00714932912695 4214.346153846154 419.2448166238151 4193.807692307692 419.18507978121073 4173.2692307692305 419.1891803391261 4152.7307692307695 419.18259335546594 4132.192307692308 419.1845762228745 4111.653846153846 419.1803984405126 4091.1153846153848 419.1652008835702 4070.576923076923 419.1905897446522 4050.038461538462 419.3252006349649 4029.5 419.3173788245391 4008.9615384615386 419.38277881126857 3988.423076923077 419.06411966387026 3967.8846153846152 418.9097932778808 3947.346153846154 418.82069167553175 3926.8076923076924 418.78153120455926 3906.269230769231 418.761446442615 3885.7307692307695 418.77023699293045 3865.1923076923076 418.9275739202609 3844.653846153846 418.92551623383343 3824.1153846153848 418.96035428104784 3803.576923076923 419.15736729425555 3783.0384615384614 419.17384173683575 3762.5 420.87551367904683 3741.9615384615386 420.8556038374519 3721.423076923077 420.90079943263 3700.8846153846152 420.9199678677945 3680.346153846154 421.17546638387716 3659.8076923076924 421.2737767063939 3639.269230769231 421.31851350204755 3618.7307692307695 421.5482860386991 3598.1923076923076 422.28800089553556 3577.653846153846 422.10195037941145 3557.1153846153848 422.2371615504225 3536.576923076923 423.16774393881434 3516.0384615384614 423.167665092679 3495.5 423.14655140370303 3474.9615384615386 423.1457070138017 3454.423076923077 423.56516266700936 3433.8846153846152 423.5655214379781 3413.346153846154 423.8109003038261 3392.8076923076924 424.0558120196192 3372.269230769231 424.7181344913808 3351.730769230769 425.0236349944547 3331.1923076923076 425.0035344441698 3310.653846153846 425.28465904377634 3290.1153846153848 430.8274530925998 3269.576923076923 430.81817356835387 3249.0384615384614 430.8139007331268 3228.5 430.8069864095142 3228.5 445.9850763388172Z" fill="#55c0e9" opacity="0.9" />
		</g>
		<g>
			<path d="M3228.5 430.8069864095142 3249.0384615384614 430.8139007331268 3269.576923076923 430.81817356835387 3290.1153846153848 430.8274530925998 3310.653846153846 425.28465904377634 3331.1923076923076 425.0035344441698 3351.730769230769 425.0236349944547 3372.269230769231 424.7181344913808 3392.8076923076924 424.0558120196192 3413.346153846154 423.8109003038261 3433.8846153846152 423.5655214379781 3454.423076923077 423.56516266700936 3474.9615384615386 423.1457070138017 3495.5 423.14655140370303 3516.0384615384614 423.167665092679 3536.576923076923 423.16774393881434 3557.1153846153848 422.2371615504225 3577.653846153846 422.10195037941145 3598.1923076923076 422.28800089553556 3618.7307692307695 421.5482860386991 3639.269230769231 421.31851350204755 3659.8076923076924 421.2737767063939 3680.346153846154 421.17546638387716 3700.8846153846152 420.9199678677945 3721.423076923077 420.90079943263 3741.9615384615386 420.8556038374519 3762.5 420.87551367904683 3783.0384615384614 419.17384173683575 3803.576923076923 419.15736729425555 3824.1153846153848 418.96035428104784 3844.653846153846 418.92551623383343 3865.1923076923076 418.9275739202609 3885.7307692307695 418.77023699293045 3906.269230769231 418.761446442615 3926.8076923076924 418.78153120455926 3947.346153846154 418.82069167553175 3967.8846153846152 418.9097932778808 3988.423076923077 419.06411966387026 4008.9615384615386 419.38277881126857 4029.5 419.3173788245391 4050.038461538462 419.3252006349649 4070.576923076923 419.1905897446522 4091.1153846153848 419.1652008835702 4111.653846153846 419.1803984405126 4132.192307692308 419.1845762228745 4152.7307692307695 419.18259335546594 4173.2692307692305 419.1891803391261 4193.807692307692 419.18507978121073 4214.346153846154 419.2448166238151 4234.884615384615 419.00714932912695 4255.423076923077 419.0050670543226 4275.961538461539 420.43365956646437 4296.5 419.93667043046275 4296.5 408.76226730843985 4275.961538461539 408.84720746904014 4255.423076923077 408.0054992347242 4234.884615384615 408.0048584396185 4214.346153846154 408.0535190455706 4193.807692307692 407.98648545071296 4173.2692307692305 407.9990828124398 4152.7307692307695 407.9899657152077 4132.192307692308 407.98614151624224 4111.653846153846 407.9802171887366 4091.1153846153848 407.9632689961355 4070.576923076923 407.9818173974173 4050.038461538462 408.11018073556585 4029.5 408.1048162089461 4008.9615384615386 408.0817858854454 3988.423076923077 407.87702549305874 3967.8846153846152 407.75714820436707 3947.346153846154 407.68691925855956 3926.8076923076924 407.6472692730448 3906.269230769231 407.61824955966534 3885.7307692307695 407.61722466292395 3865.1923076923076 407.63262030600544 3844.653846153846 407.63004242027574 3824.1153846153848 407.6085547272844 3803.576923076923 407.70041641084794 3783.0384615384614 407.73331438233555 3762.5 409.46082329286793 3741.9615384615386 409.44561346924576 3721.423076923077 409.4552564157993 3700.8846153846152 409.442567653401 3680.346153846154 409.50831649918746 3659.8076923076924 409.55722453750167 3639.269230769231 409.60566872011515 3618.7307692307695 409.72296665824126 3598.1923076923076 410.10948315685346 3577.653846153846 410.00098369930805 3557.1153846153848 410.02158135972263 3536.576923076923 410.3831921847201 3516.0384615384614 410.3816258742522 3495.5 410.3693732840644 3474.9615384615386 410.36817686183286 3454.423076923077 410.49749865569987 3433.8846153846152 410.49874026393246 3413.346153846154 410.5976679252191 3392.8076923076924 410.7016436985356 3372.269230769231 410.9789161674267 3351.730769230769 411.1035757536376 3331.1923076923076 411.0839891917173 3310.653846153846 411.22347657579 3290.1153846153848 416.32051328878225 3269.576923076923 416.3159617889731 3249.0384615384614 416.31921689377526 3228.5 416.31736632943614 3228.5 430.8069864095142Z" fill="#f6a118" opacity="0.9" />
		</g>
		<g>
			<path d="M3228.5 416.31736632943614 3249.0384615384614 416.31921689377526 3269.576923076923 416.3159617889731 3290.1153846153848 416.32051328878225 3310.653846153846 411.22347657579 3331.1923076923076 411.0839891917173 3351.730769230769 411.1035757536376 3372.269230769231 410.9789161674267 3392.8076923076924 410.7016436985356 3413.346153846154 410.5976679252191 3433.8846153846152 410.49874026393246 3454.423076923077 410.49749865569987 3474.9615384615386 410.36817686183286 3495.5 410.3693732840644 3516.0384615384614 410.3816258742522 3536.576923076923 410.3831921847201 3557.1153846153848 410.02158135972263 3577.653846153846 410.00098369930805 3598.1923076923076 410.10948315685346 3618.7307692307695 409.72296665824126 3639.269230769231 409.60566872011515 3659.8076923076924 409.55722453750167 3680.346153846154 409.50831649918746 3700.8846153846152 409.442567653401 3721.423076923077 409.4552564157993 3741.9615384615386 409.44561346924576 3762.5 409.46082329286793 3783.0384615384614 407.73331438233555 3803.576923076923 407.70041641084794 3824.1153846153848 407.6085547272844 3844.653846153846 407.63004242027574 3865.1923076923076 407.63262030600544 3885.7307692307695 407.61722466292395 3906.269230769231 407.61824955966534 3926.8076923076924 407.6472692730448 3947.346153846154 407.68691925855956 3967.8846153846152 407.75714820436707 3988.423076923077 407.87702549305874 4008.9615384615386 408.0817858854454 4029.5 408.1048162089461 4050.038461538462 408.11018073556585 4070.576923076923 407.9818173974173 4091.1153846153848 407.9632689961355 4111.653846153846 407.9802171887366 4132.192307692308 407.98614151624224 4152.7307692307695 407.9899657152077 4173.2692307692305 407.9990828124398 4193.807692307692 407.98648545071296 4214.346153846154 408.0535190455706 4234.884615384615 408.0048584396185 4255.423076923077 408.0054992347242 4275.961538461539 408.84720746904014 4296.5 408.76226730843985 4296.5 402.777094566316 4275.961538461539 402.7836349974704 4255.423076923077 401.88388020399697 4234.884615384615 401.8853941174167 4214.346153846154 401.75865786959383 4193.807692307692 401.7191641372412 4173.2692307692305 401.71119593710176 4152.7307692307695 401.6277266848161 4132.192307692308 401.6289336415737 4111.653846153846 401.63465456330465 4091.1153846153848 401.62283575026396 4070.576923076923 401.6209440754654 4050.038461538462 401.61138841718946 4029.5 401.5713543251516 4008.9615384615386 401.5224410608846 3988.423076923077 401.3910702758112 3967.8846153846152 401.2959815163896 3947.346153846154 401.2284149226283 3926.8076923076924 401.2178574312743 3906.269230769231 401.2271449370171 3885.7307692307695 401.22998698493177 3865.1923076923076 401.24723467475025 3844.653846153846 401.24799680108157 3824.1153846153848 401.25127865193434 3803.576923076923 401.2738697689626 3783.0384615384614 401.29212425152997 3762.5 402.9378506891094 3741.9615384615386 402.9552515332576 3721.423076923077 402.9599325586472 3700.8846153846152 402.96405971887924 3680.346153846154 403.01449278802465 3659.8076923076924 402.9591913948528 3639.269230769231 403.01566327837304 3618.7307692307695 403.0312697625879 3598.1923076923076 403.17379003690496 3577.653846153846 403.039123205232 3557.1153846153848 403.0276937585125 3536.576923076923 402.88697047759695 3516.0384615384614 402.8853442705775 3495.5 402.8987404525652 3474.9615384615386 402.9002345633593 3454.423076923077 402.80439160515203 3433.8846153846152 402.8071737793706 3413.346153846154 402.7885058788081 3392.8076923076924 402.75682438501997 3372.269230769231 402.64364301985916 3351.730769230769 402.6213127942401 3331.1923076923076 402.6374941256268 3310.653846153846 402.6382934643876 3290.1153846153848 407.18303418872716 3269.576923076923 407.1809148990988 3249.0384615384614 407.1872998554764 3228.5 407.1917111103271 3228.5 416.31736632943614Z" fill="#fdd5a4" opacity="0.9" />
		</g>
		<g>
			<path d="M3228.5 407.1917111103271 3249.0384615384614 407.1872998554764 3269.576923076923 407.1809148990988 3290.1153846153848 407.18303418872716 3310.653846153846 402.6382934643876 3331.1923076923076 402.6374941256268 3351.730769230769 402.6213127942401 3372.269230769231 402.64364301985916 3392.8076923076924 402.75682438501997 3413.346153846154 402.7885058788081 3433.8846153846152 402.8071737793706 3454.423076923077 402.80439160515203 3474.9615384615386 402.9002345633593 3495.5 402.8987404525652 3516.0384615384614 402.8853442705775 3536.576923076923 402.88697047759695 3557.1153846153848 403.0276937585125 3577.653846153846 403.039123205232 3598.1923076923076 403.17379003690496 3618.7307692307695 403.0312697625879 3639.269230769231 403.01566327837304 3659.8076923076924 402.9591913948528 3680.346153846154 403.01449278802465 3700.8846153846152 402.96405971887924 3721.423076923077 402.9599325586472 3741.9615384615386 402.9552515332576 3762.5 402.9378506891094 3783.0384615384614 401.29212425152997 3803.576923076923 401.2738697689626 3824.1153846153848 401.25127865193434 3844.653846153846 401.24799680108157 3865.1923076923076 401.24723467475025 3885.7307692307695 401.22998698493177 3906.269230769231 401.2271449370171 3926.8076923076924 401.2178574312743 3947.346153846154 401.2284149226283 3967.8846153846152 401.2959815163896 3988.423076923077 401.3910702758112 4008.9615384615386 401.5224410608846 4029.5 401.5713543251516 4050.038461538462 401.61138841718946 4070.576923076923 401.6209440754654 4091.1153846153848 401.62283575026396 4111.653846153846 401.63465456330465 4132.192307692308 401.6289336415737 4152.7307692307695 401.6277266848161 4173.2692307692305 401.71119593710176 4193.807692307692 401.7191641372412 4214.346153846154 401.75865786959383 4234.884615384615 401.8853941174167 4255.423076923077 401.88388020399697 4275.961538461539 402.7836349974704 4296.5 402.777094566316 4296.5 398 4275.961538461539 397.9999999999999 4255.423076923077 398 4234.884615384615 398 4214.346153846154 398 4193.807692307692 398 4173.2692307692305 398 4152.7307692307695 398.0000000000001 4132.192307692308 398 4111.653846153846 397.9999999999999 4091.1153846153848 398.00000000000006 4070.576923076923 397.99999999999994 4050.038461538462 398 4029.5 398 4008.9615384615386 398.00000000000006 3988.423076923077 398 3967.8846153846152 398.00000000000006 3947.346153846154 397.9999999999999 3926.8076923076924 398.0000000000001 3906.269230769231 398.0000000000001 3885.7307692307695 398 3865.1923076923076 398 3844.653846153846 398.00000000000006 3824.1153846153848 398 3803.576923076923 397.99999999999994 3783.0384615384614 397.99999999999994 3762.5 398.00000000000006 3741.9615384615386 397.99999999999994 3721.423076923077 397.9999999999999 3700.8846153846152 398 3680.346153846154 398 3659.8076923076924 398.00000000000006 3639.269230769231 397.99999999999994 3618.7307692307695 398.00000000000006 3598.1923076923076 397.99999999999994 3577.653846153846 398 3557.1153846153848 398 3536.576923076923 397.9999999999999 3516.0384615384614 398.00000000000006 3495.5 398.0000000000001 3474.9615384615386 398.00000000000006 3454.423076923077 398 3433.8846153846152 397.99999999999994 3413.346153846154 398 3392.8076923076924 398 3372.269230769231 398 3351.730769230769 397.99999999999994 3331.1923076923076 398.00000000000006 3310.653846153846 397.99999999999994 3290.1153846153848 397.9999999999999 3269.576923076923 398.0000000000001 3249.0384615384614 397.99999999999994 3228.5 398 3228.5 407.1917111103271Z" fill="#393d41" opacity="0.9" />
		</g>
		<g>
			<rect x="4372" y="431" width="22.9995" height="23" fill="#e62d39" />
		</g>
		<g>
			<text fill="#595959" font-family="Verdana,Open Sans,DejaVu Sans,sans-serif" font-weight="400" font-size="41" transform="matrix(1 0 0 1 4404.56 454)">Smartphone</text>
		</g>
		<g>
			<rect x="4372" y="508" width="22.9995" height="23" fill="#005aa6" />
		</g>
		<g>
			<text fill="#595959" font-family="Verdana,Open Sans,DejaVu Sans,sans-serif" font-weight="400" font-size="41" transform="matrix(1 0 0 1 4404.56 531)">Desktop</text>
		</g>
		<g>
			<rect x="4372" y="585" width="22.9995" height="23" fill="#55c0e9" />
		</g>
		<g>
			<text fill="#595959" font-family="Verdana,Open Sans,DejaVu Sans,sans-serif" font-weight="400" font-size="41" transform="matrix(1 0 0 1 4404.56 608)">Other</text>
		</g>
		<g>
			<rect x="4372" y="662" width="22.9995" height="23" fill="#f6a118" />
		</g>
		<g>
			<text fill="#595959" font-family="Verdana,Open Sans,DejaVu Sans,sans-serif" font-weight="400" font-size="41" transform="matrix(1 0 0 1 4404.56 685)">Tablet</text>
		</g>
		<g>
			<rect x="4372" y="739" width="22.9995" height="23" fill="#fdd5a4" />
		</g>
		<g>
			<text fill="#595959" font-family="Verdana,Open Sans,DejaVu Sans,sans-serif" font-weight="400" font-size="41" transform="matrix(1 0 0 1 4404.56 762)">Tv</text>
		</g>
		<g>
			<rect x="4372" y="816" width="22.9995" height="23" fill="#393d41" />
		</g>
		<g>
			<text fill="#595959" font-family="Verdana,Open Sans,DejaVu Sans,sans-serif" font-weight="400" font-size="41" transform="matrix(1 0 0 1 4404.56 839)">Unclassified</text>
		</g>
	</g>
</svg>
