<svg width="1763" height="1046"
    xmlns="http://www.w3.org/2000/svg"
	xmlns:xlink="http://www.w3.org/1999/xlink" xml:space="preserve" overflow="hidden">
	<defs>
		<clipPath id="clip0">
			<rect x="2917" y="346" width="1763" height="1046"/>
		</clipPath>
	</defs>
	<g clip-path="url(#clip0)" transform="translate(-2917 -346)">
		<rect x="2918" y="347" width="1760" height="1043" fill="#FFFFFF" />
		<g>
			<path d="
			M3228.5 974.532 4296.5 974.532
			M3228.5 910.53 4296.5 910.53
			M3228.5 846.528 4296.5 846.528
			M3228.5 781.526 4296.5 781.526
			M3228.5 717.524 4296.5 717.524
			M3228.5 653.522 4296.5 653.522
			M3228.5 589.52 4296.5 589.52
			M3228.5 525.517 4296.5 525.517
			M3228.5 461.515 4296.5 461.515
			M3228.5 397.5 4296.5 397.5" stroke="#D9D9D9" stroke-width="3.4375" stroke-linejoin="round" stroke-miterlimit="10" fill="none" />
		</g>
		<g>
			<path d="M 1038.5 4296.5 1038.5" stroke="#D9D9D9" stroke-width="3.4375" stroke-linejoin="round" stroke-miterlimit="10" fill="none" fill-rule="evenodd" />
		</g>
		<g>
			<text fill="#595959" font-family="Verdana,sans-serif" font-weight="400" font-size="41" transform="matrix(6.12323e-17 -1 1 6.12323e-17 3244.5 1225)">06-Nov</text>
		</g>
		<g>
			<text fill="#595959" font-family="Verdana,sans-serif" font-weight="400" font-size="41" transform="matrix(6.12323e-17 -1 1 6.12323e-17 3343.8488372093025 1223)">04-Dec</text>
		</g>
		<g>
			<text fill="#595959" font-family="Verdana,sans-serif" font-weight="400" font-size="41" transform="matrix(6.12323e-17 -1 1 6.12323e-17 3443.1976744186045 1210)">01-Jan</text>
		</g>
		<g>
			<text fill="#595959" font-family="Verdana,sans-serif" font-weight="400" font-size="41" transform="matrix(6.12323e-17 -1 1 6.12323e-17 3542.546511627907 1210)">29-Jan</text>
		</g>
		<g>
			<text fill="#595959" font-family="Verdana,sans-serif" font-weight="400" font-size="41" transform="matrix(6.12323e-17 -1 1 6.12323e-17 3641.8953488372094 1216)">26-Feb</text>
		</g>
		<g>
			<text fill="#595959" font-family="Verdana,sans-serif" font-weight="400" font-size="41" transform="matrix(6.12323e-17 -1 1 6.12323e-17 3741.2441860465115 1223)">25-Mar</text>
		</g>
		<g>
			<text fill="#595959" font-family="Verdana,sans-serif" font-weight="400" font-size="41" transform="matrix(6.12323e-17 -1 1 6.12323e-17 3844.093023255814 1216)">22-Apr</text>
		</g>
		<g>
			<text fill="#595959" font-family="Verdana,sans-serif" font-weight="400" font-size="41" transform="matrix(6.12323e-17 -1 1 6.12323e-17 3943.4418604651164 1228)">20-May</text>
		</g>
		<g>
			<text fill="#595959" font-family="Verdana,sans-serif" font-weight="400" font-size="41" transform="matrix(6.12323e-17 -1 1 6.12323e-17 4038.790697674419 1209)">17-Jun</text>
		</g>
		<g>
			<text fill="#595959" font-family="Verdana,sans-serif" font-weight="400" font-size="41" transform="matrix(6.12323e-17 -1 1 6.12323e-17 4138.639534883721 1194)">15-Jul</text>
		</g>
		<g>
			<text fill="#595959" font-family="Verdana,sans-serif" font-weight="400" font-size="41" transform="matrix(6.12323e-17 -1 1 6.12323e-17 4241.488372093023 1218)">12-Aug</text>
		</g>
		<g>
			<text fill="#595959" font-family="Verdana,sans-serif" font-weight="400" font-size="41" transform="matrix(1 0 0 1 3167.5 1050)">0</text>
		</g>
		<g>
			<text fill="#595959" font-family="Verdana,sans-serif" font-weight="400" font-size="41" transform="matrix(1 0 0 1 3051.5 922)">17,280</text>
		</g>
		<g>
			<text fill="#595959" font-family="Verdana,sans-serif" font-weight="400" font-size="41" transform="matrix(1 0 0 1 3048.5 794)">34,559</text>
		</g>
		<g>
			<text fill="#595959" font-family="Verdana,sans-serif" font-weight="400" font-size="41" transform="matrix(1 0 0 1 3049.5 666)">51,839</text>
		</g>
		<g>
			<text fill="#595959" font-family="Verdana,sans-serif" font-weight="400" font-size="41" transform="matrix(1 0 0 1 3047.5 538)">69,118</text>
		</g>
		<g>
			<text fill="#595959" font-family="Verdana,sans-serif" font-weight="400" font-size="41" transform="matrix(1 0 0 1 3047.5 410)">86,398</text>
		</g>
		<g>
			<text fill="#595959" font-family="Verdana,sans-serif" font-weight="400" font-size="41" transform="matrix(1 0 0 1 3544.5 1321)">Week Commencing</text>
		</g>
		<g>
			<text fill="#595959" font-family="Verdana,sans-serif" font-weight="400" font-size="46" transform="matrix(6.12323e-17 -1 1 6.12323e-17 3019.73 1048.25)">Number of Hardware Profiles</text>
		</g>
		<rect x="2918.5" y="347.5" width="1760" height="1043" stroke="#D9D9D9" stroke-width="3.4375" stroke-linejoin="round" stroke-miterlimit="10" fill="none" />
		<g>
			<path d="M3228.5 1038 3253.3372093023254 1038 3278.1744186046512 1038 3303.0116279069766 1038 3327.8488372093025 1038 3352.686046511628 1038 3377.5232558139533 1038 3402.360465116279 1038 3427.1976744186045 1038 3452.0348837209303 1038 3476.8720930232557 1038 3501.7093023255816 1038 3526.546511627907 1038 3551.383720930233 1038 3576.220930232558 1038 3601.0581395348836 1038 3625.8953488372094 1038 3650.732558139535 1038 3675.5697674418607 1038 3700.406976744186 1038 3725.2441860465115 1038 3750.0813953488373 1038 3774.9186046511627 1038 3799.7558139534885 1038 3824.593023255814 1038 3849.4302325581393 1038 3874.267441860465 1038 3899.104651162791 1038 3923.9418604651164 1038 3948.779069767442 1038 3973.6162790697676 1038 3998.453488372093 1038 4023.290697674419 1038 4048.1279069767443 1038 4072.9651162790697 1038 4097.802325581395 1038 4122.639534883721 1038 4147.476744186047 1038 4172.313953488372 1038 4197.1511627906975 1038 4221.988372093023 1038 4246.825581395349 1038 4271.662790697675 1038 4296.5 1038 4296.5 689.7252714183198 4271.662790697675 689.9326836269358 4246.825581395349 690.1919488877057 4221.988372093023 690.5104747795087 4197.1511627906975 690.8067779346744 4172.313953488372 691.043820458807 4147.476744186047 691.4290145605222 4122.639534883721 691.7475404523252 4097.802325581395 692.0882890807658 4072.9651162790697 692.3994073936897 4048.1279069767443 692.7253408643719 4023.290697674419 692.9994212829001 3998.453488372093 693.0290515984166 3973.6162790697676 693.1623880182412 3948.779069767442 693.2438713859117 3923.9418604651164 693.5698048565939 3899.104651162791 693.8068473807264 3874.267441860465 693.9698141160675 3849.4302325581393 694.2735248501123 3824.593023255814 694.6513113729484 3799.7558139534885 695.103173684576 3774.9186046511627 695.4735526285331 3750.0813953488373 695.7994860992153 3725.2441860465115 696.0291210444686 3700.406976744186 696.3032014629969 3675.5697674418607 696.5476515660084 3650.732558139535 696.732841037987 3625.8953488372094 696.8958077733281 3601.0581395348836 697.0143290353943 3576.220930232558 697.206926086252 3551.383720930233 697.4069307159888 3526.546511627907 697.895830922012 3501.7093023255816 698.2513947082109 3476.8720930232557 698.6958494409594 3452.0348837209303 699.155119331466 3427.1976744186045 699.4958679599065 3402.360465116279 699.4366073288734 3377.5232558139533 699.7255029051598 3352.686046511628 700.0588439547212 3327.8488372093025 700.3255167943703 3303.0116279069766 700.681080580569 3278.1744186046512 700.9847913146137 3253.3372093023254 701.2885020486585 3228.5 701.7699946758028 3228.5 1038Z" fill="#e62d39" opacity="0.9" />
		</g>
		<g>
			<path d="M3228.5 701.7699946758028 3253.3372093023254 701.2885020486585 3278.1744186046512 700.9847913146137 3303.0116279069766 700.681080580569 3327.8488372093025 700.3255167943703 3352.686046511628 700.0588439547212 3377.5232558139533 699.7255029051598 3402.360465116279 699.4366073288734 3427.1976744186045 699.4958679599065 3452.0348837209303 699.155119331466 3476.8720930232557 698.6958494409594 3501.7093023255816 698.2513947082109 3526.546511627907 697.895830922012 3551.383720930233 697.4069307159888 3576.220930232558 697.206926086252 3601.0581395348836 697.0143290353943 3625.8953488372094 696.8958077733281 3650.732558139535 696.732841037987 3675.5697674418607 696.5476515660084 3700.406976744186 696.3032014629969 3725.2441860465115 696.0291210444686 3750.0813953488373 695.7994860992153 3774.9186046511627 695.4735526285331 3799.7558139534885 695.103173684576 3824.593023255814 694.6513113729484 3849.4302325581393 694.2735248501123 3874.267441860465 693.9698141160675 3899.104651162791 693.8068473807264 3923.9418604651164 693.5698048565939 3948.779069767442 693.2438713859117 3973.6162790697676 693.1623880182412 3998.453488372093 693.0290515984166 4023.290697674419 692.9994212829001 4048.1279069767443 692.7253408643719 4072.9651162790697 692.3994073936897 4097.802325581395 692.0882890807658 4122.639534883721 691.7475404523252 4147.476744186047 691.4290145605222 4172.313953488372 691.043820458807 4197.1511627906975 690.8067779346744 4221.988372093023 690.5104747795087 4246.825581395349 690.1919488877057 4271.662790697675 689.9326836269358 4296.5 689.7252714183198 4296.5 521.7510127549249 4271.662790697675 522.069538646728 4246.825581395349 522.4251024329267 4221.988372093023 522.8695571656751 4197.1511627906975 523.2547512673905 4172.313953488372 523.6473529479849 4147.476744186047 524.1214379962498 4122.639534883721 524.5733003078774 4097.802325581395 524.9881247251094 4072.9651162790697 525.4325794578579 4048.1279069767443 525.6622144031112 4023.290697674419 526.0103706104309 3998.453488372093 526.0622236625848 3973.6162790697676 526.2325979768051 3948.779069767442 526.3214889233547 3923.9418604651164 526.7881663927405 3899.104651162791 527.2400287043681 3874.267441860465 527.6252228060835 3849.4302325581393 528.0993078543485 3824.593023255814 528.6696914280423 3799.7558139534885 529.3363735271649 3774.9186046511627 529.8919419431005 3750.0813953488373 530.3808421491239 3725.2441860465115 530.6919604620477 3700.406976744186 531.0475242482465 3675.5697674418607 531.4104956133243 3650.732558139535 531.654945716336 3625.8953488372094 531.9290261348642 3601.0581395348836 532.1068080279636 3576.220930232558 532.3957036042501 3551.383720930233 532.6697840227782 3526.546511627907 533.2623903331095 3501.7093023255816 533.7438829602538 3476.8720930232557 534.3142665339476 3452.0348837209303 534.914280423158 3427.1976744186045 535.388365471423 3402.360465116279 535.336512419269 3377.5232558139533 535.6994837843469 3352.686046511628 536.180976411491 3327.8488372093025 536.7217296696683 3303.0116279069766 537.3069284011203 3278.1744186046512 537.9439801847265 3253.3372093023254 538.5217713372995 3228.5 539.1884534364222 3228.5 701.7699946758028Z" fill="#f6a118" opacity="0.9" />
		</g>
		<g>
			<path d="M3228.5 539.1884534364222 3253.3372093023254 538.5217713372995 3278.1744186046512 537.9439801847265 3303.0116279069766 537.3069284011203 3327.8488372093025 536.7217296696683 3352.686046511628 536.180976411491 3377.5232558139533 535.6994837843469 3402.360465116279 535.336512419269 3427.1976744186045 535.388365471423 3452.0348837209303 534.914280423158 3476.8720930232557 534.3142665339476 3501.7093023255816 533.7438829602538 3526.546511627907 533.2623903331095 3551.383720930233 532.6697840227782 3576.220930232558 532.3957036042501 3601.0581395348836 532.1068080279636 3625.8953488372094 531.9290261348642 3650.732558139535 531.654945716336 3675.5697674418607 531.4104956133243 3700.406976744186 531.0475242482465 3725.2441860465115 530.6919604620477 3750.0813953488373 530.3808421491239 3774.9186046511627 529.8919419431005 3799.7558139534885 529.3363735271649 3824.593023255814 528.6696914280423 3849.4302325581393 528.0993078543485 3874.267441860465 527.6252228060835 3899.104651162791 527.2400287043681 3923.9418604651164 526.7881663927405 3948.779069767442 526.3214889233547 3973.6162790697676 526.2325979768051 3998.453488372093 526.0622236625848 4023.290697674419 526.0103706104309 4048.1279069767443 525.6622144031112 4072.9651162790697 525.4325794578579 4097.802325581395 524.9881247251094 4122.639534883721 524.5733003078774 4147.476744186047 524.1214379962498 4172.313953488372 523.6473529479849 4197.1511627906975 523.2547512673905 4221.988372093023 522.8695571656751 4246.825581395349 522.4251024329267 4271.662790697675 522.069538646728 4296.5 521.7510127549249 4296.5 444.01587999722216 4271.662790697675 444.3788513623001 4246.825581395349 444.7788606217737 4221.988372093023 445.28257598555524 4197.1511627906975 445.7122155605454 4172.313953488372 446.11963239889815 4147.476744186047 446.6085326049213 4122.639534883721 447.09002523206544 4097.802325581395 447.534479964814 4072.9651162790697 448.0011574341999 4048.1279069767443 448.4530197458275 4023.290697674419 448.81599111090543 3998.453488372093 448.8752517419384 3973.6162790697676 449.06044121391704 3948.779069767442 449.15673973934577 3923.9418604651164 449.6530475242482 3899.104651162791 450.1493553091506 3874.267441860465 450.5641797263825 3849.4302325581393 451.07530266904325 3824.593023255814 451.69753929489104 3799.7558139534885 452.4012592884094 3774.9186046511627 452.9716428621033 3750.0813953488373 453.5049885414014 3725.2441860465115 453.83092201208365 3700.406976744186 454.216116113799 3675.5697674418607 454.59390263663505 3650.732558139535 454.84576031852583 3625.8953488372094 455.1420634736915 3601.0581395348836 455.3346605245491 3576.220930232558 455.63837125859396 3551.383720930233 455.94208199263863 3526.546511627907 456.54209588184904 3501.7093023255816 457.0458112456308 3476.8720930232557 457.63100997708284 3452.0348837209303 458.2902844973263 3427.1976744186045 458.7939998611079 3402.360465116279 458.79399986110786 3377.5232558139533 459.1643788050649 3352.686046511628 459.7347623787587 3327.8488372093025 460.3125535313318 3303.0116279069766 460.9051598416629 3278.1744186046512 461.57924951966476 3253.3372093023254 462.21630130327094 3228.5 462.93483645454756 3228.5 539.1884534364222Z" fill="#55c0e9" opacity="0.9" />
		</g>
		<g>
			<path d="M3228.5 462.93483645454756 3253.3372093023254 462.21630130327094 3278.1744186046512 461.57924951966476 3303.0116279069766 460.9051598416629 3327.8488372093025 460.3125535313318 3352.686046511628 459.7347623787587 3377.5232558139533 459.1643788050649 3402.360465116279 458.79399986110786 3427.1976744186045 458.7939998611079 3452.0348837209303 458.2902844973263 3476.8720930232557 457.63100997708284 3501.7093023255816 457.0458112456308 3526.546511627907 456.54209588184904 3551.383720930233 455.94208199263863 3576.220930232558 455.63837125859396 3601.0581395348836 455.3346605245491 3625.8953488372094 455.1420634736915 3650.732558139535 454.84576031852583 3675.5697674418607 454.59390263663505 3700.406976744186 454.216116113799 3725.2441860465115 453.83092201208365 3750.0813953488373 453.5049885414014 3774.9186046511627 452.9716428621033 3799.7558139534885 452.4012592884094 3824.593023255814 451.69753929489104 3849.4302325581393 451.07530266904325 3874.267441860465 450.5641797263825 3899.104651162791 450.1493553091506 3923.9418604651164 449.6530475242482 3948.779069767442 449.15673973934577 3973.6162790697676 449.06044121391704 3998.453488372093 448.8752517419384 4023.290697674419 448.81599111090543 4048.1279069767443 448.4530197458275 4072.9651162790697 448.0011574341999 4097.802325581395 447.534479964814 4122.639534883721 447.09002523206544 4147.476744186047 446.6085326049213 4172.313953488372 446.11963239889815 4197.1511627906975 445.7122155605454 4221.988372093023 445.28257598555524 4246.825581395349 444.7788606217737 4271.662790697675 444.3788513623001 4296.5 444.01587999722216 4296.5 399.3629945137619 4271.662790697675 399.93337808745576 4246.825581395349 400.629690502095 4221.988372093023 401.33341049561335 4197.1511627906975 402.0297229102526 4172.313953488372 402.73344290377094 4147.476744186047 403.44457047616834 4122.639534883721 404.17792078520324 4097.802325581395 404.90386351535915 4072.9651162790697 405.6520289821524 4048.1279069767443 406.35574897567074 4023.290697674419 407.0594689691892 3998.453488372093 407.75578138382826 3973.6162790697676 408.42246348295106 3948.779069767442 409.0891455820736 3923.9418604651164 409.85212620662514 3899.104651162791 410.4521400958355 3874.267441860465 411.00770851177106 3849.4302325581393 411.65957545313546 3824.593023255814 412.4373712354452 3799.7558139534885 413.19294428111755 3774.9186046511627 413.88184911687773 3750.0813953488373 414.4522326905715 3725.2441860465115 414.8077964767703 3700.406976744186 415.24484363063965 3675.5697674418607 415.64485289011316 3650.732558139535 416.02263941294933 3625.8953488372094 416.4967244612144 3601.0581395348836 417.1337762448204 3576.220930232558 417.91157202713026 3551.383720930233 418.3412116021203 3526.546511627907 418.98567096460556 3501.7093023255816 419.62272274821186 3476.8720930232557 420.2449593740596 3452.0348837209303 421.00053241973194 3427.1976744186045 421.6079538878215 3402.360465116279 421.60795388782145 3377.5232558139533 422.0672237783282 3352.686046511628 422.74131345633 3327.8488372093025 423.422810713211 3303.0116279069766 424.1561610222458 3278.1744186046512 424.9635871200722 3253.3372093023254 425.67471469246976 3228.5 426.5117711058126 3228.5 462.93483645454756Z" fill="#fdd5a4" opacity="0.9" />
		</g>
		<g>
			<path d="M3228.5 426.5117711058126 3253.3372093023254 425.67471469246976 3278.1744186046512 424.9635871200722 3303.0116279069766 424.1561610222458 3327.8488372093025 423.422810713211 3352.686046511628 422.74131345633 3377.5232558139533 422.0672237783282 3402.360465116279 421.60795388782145 3427.1976744186045 421.6079538878215 3452.0348837209303 421.00053241973194 3476.8720930232557 420.2449593740596 3501.7093023255816 419.62272274821186 3526.546511627907 418.98567096460556 3551.383720930233 418.3412116021203 3576.220930232558 417.91157202713026 3601.0581395348836 417.1337762448204 3625.8953488372094 416.4967244612144 3650.732558139535 416.02263941294933 3675.5697674418607 415.64485289011316 3700.406976744186 415.24484363063965 3725.2441860465115 414.8077964767703 3750.0813953488373 414.4522326905715 3774.9186046511627 413.88184911687773 3799.7558139534885 413.19294428111755 3824.593023255814 412.4373712354452 3849.4302325581393 411.65957545313546 3874.267441860465 411.00770851177106 3899.104651162791 410.4521400958355 3923.9418604651164 409.85212620662514 3948.779069767442 409.0891455820736 3973.6162790697676 408.42246348295106 3998.453488372093 407.75578138382826 4023.290697674419 407.0594689691892 4048.1279069767443 406.35574897567074 4072.9651162790697 405.6520289821524 4097.802325581395 404.90386351535915 4122.639534883721 404.17792078520324 4147.476744186047 403.44457047616834 4172.313953488372 402.73344290377094 4197.1511627906975 402.0297229102526 4221.988372093023 401.33341049561335 4246.825581395349 400.629690502095 4271.662790697675 399.93337808745576 4296.5 399.3629945137619 4296.5 398 4271.662790697675 398.57038357369385 4246.825581395349 399.2666959883331 4221.988372093023 399.97041598185143 4197.1511627906975 400.66672839649067 4172.313953488372 401.370448390009 4147.476744186047 402.0815759624064 4122.639534883721 402.8149262714413 4097.802325581395 403.54086900159723 4072.9651162790697 404.28903446839047 4048.1279069767443 404.9927544619088 4023.290697674419 405.6964744554273 3998.453488372093 406.39278687006635 3973.6162790697676 407.05946896918914 3948.779069767442 407.7261510683117 3923.9418604651164 408.4891316928632 3899.104651162791 409.08914558207357 3874.267441860465 409.64471399800914 3849.4302325581393 410.29658093937354 3824.593023255814 411.0743767216833 3799.7558139534885 411.82994976735563 3774.9186046511627 412.53366976087415 3750.0813953488373 413.10405333456794 3725.2441860465115 413.4596171207667 3700.406976744186 413.89666427463607 3675.5697674418607 414.2966735341096 3650.732558139535 414.67446005694575 3625.8953488372094 415.1485451052108 3601.0581395348836 415.7855968888168 3576.220930232558 416.5633926711267 3551.383720930233 416.99303224611674 3526.546511627907 417.637491608602 3501.7093023255816 418.2745433922083 3476.8720930232557 418.896780018056 3452.0348837209303 419.65235306372836 3427.1976744186045 420.2597745318179 3402.360465116279 420.25977453181787 3377.5232558139533 420.74867473784116 3352.686046511628 421.43017199472206 3327.8488372093025 422.1116692516031 3303.0116279069766 422.84501956063787 3278.1744186046512 423.6524456584643 3253.3372093023254 424.36357323086185 3228.5 425.2006296442047 3228.5 426.5117711058126Z" fill="#005aa6" opacity="0.9" />
		</g>
		<g>
			<rect x="4372" y="431" width="22.9995" height="23" fill="#e62d39" />
		</g>
		<g>
			<text fill="#595959" font-family="Verdana,sans-serif" font-weight="400" font-size="41" transform="matrix(1 0 0 1 4404.56 454)">Smartphone</text>
		</g>
		<g>
			<rect x="4372" y="508" width="22.9995" height="23" fill="#f6a118" />
		</g>
		<g>
			<text fill="#595959" font-family="Verdana,sans-serif" font-weight="400" font-size="41" transform="matrix(1 0 0 1 4404.56 531)">Tablet</text>
		</g>
		<g>
			<rect x="4372" y="585" width="22.9995" height="23" fill="#55c0e9" />
		</g>
		<g>
			<text fill="#595959" font-family="Verdana,sans-serif" font-weight="400" font-size="41" transform="matrix(1 0 0 1 4404.56 608)">Other</text>
		</g>
		<g>
			<rect x="4372" y="662" width="22.9995" height="23" fill="#fdd5a4" />
		</g>
		<g>
			<text fill="#595959" font-family="Verdana,sans-serif" font-weight="400" font-size="41" transform="matrix(1 0 0 1 4404.56 685)">Tv</text>
		</g>
		<g>
			<rect x="4372" y="739" width="22.9995" height="23" fill="#005aa6" />
		</g>
		<g>
			<text fill="#595959" font-family="Verdana,sans-serif" font-weight="400" font-size="41" transform="matrix(1 0 0 1 4404.56 762)">Desktop</text>
		</g>
	</g>
</svg>
