<svg width="1763" height="1046"
    xmlns="http://www.w3.org/2000/svg"
	xmlns:xlink="http://www.w3.org/1999/xlink" xml:space="preserve" overflow="hidden">
	<defs>
		<clipPath id="clip0">
			<rect x="2917" y="346" width="1763" height="1046"/>
		</clipPath>
	</defs>
	<g clip-path="url(#clip0)" transform="translate(-2917 -346)">
		<rect x="2918" y="347" width="1760" height="1043" fill="#FFFFFF" />
		<g>
			<path d="
			M3228.5 974.532 4296.5 974.532
			M3228.5 910.53 4296.5 910.53
			M3228.5 846.528 4296.5 846.528
			M3228.5 781.526 4296.5 781.526
			M3228.5 717.524 4296.5 717.524
			M3228.5 653.522 4296.5 653.522
			M3228.5 589.52 4296.5 589.52
			M3228.5 525.517 4296.5 525.517
			M3228.5 461.515 4296.5 461.515
			M3228.5 397.5 4296.5 397.5" stroke="#D9D9D9" stroke-width="3.4375" stroke-linejoin="round" stroke-miterlimit="10" fill="none" />
		</g>
		<g>
			<path d="M 1038.5 4296.5 1038.5" stroke="#D9D9D9" stroke-width="3.4375" stroke-linejoin="round" stroke-miterlimit="10" fill="none" fill-rule="evenodd" />
		</g>
		<g>
			<text fill="#595959" font-family="Verdana,sans-serif" font-weight="400" font-size="41" transform="matrix(6.12323e-17 -1 1 6.12323e-17 3244 1221)">11-Mar</text>
		</g>
		<g>
			<text fill="#595959" font-family="Verdana,sans-serif" font-weight="400" font-size="41" transform="matrix(6.12323e-17 -1 1 6.12323e-17 3331.764705882353 1217)">08-Apr</text>
		</g>
		<g>
			<text fill="#595959" font-family="Verdana,sans-serif" font-weight="400" font-size="41" transform="matrix(6.12323e-17 -1 1 6.12323e-17 3415.529411764706 1228)">06-May</text>
		</g>
		<g>
			<text fill="#595959" font-family="Verdana,sans-serif" font-weight="400" font-size="41" transform="matrix(6.12323e-17 -1 1 6.12323e-17 3495.794117647059 1211)">03-Jun</text>
		</g>
		<g>
			<text fill="#595959" font-family="Verdana,sans-serif" font-weight="400" font-size="41" transform="matrix(6.12323e-17 -1 1 6.12323e-17 3579.5588235294117 1197)">01-Jul</text>
		</g>
		<g>
			<text fill="#595959" font-family="Verdana,sans-serif" font-weight="400" font-size="41" transform="matrix(6.12323e-17 -1 1 6.12323e-17 3663.323529411765 1196)">29-Jul</text>
		</g>
		<g>
			<text fill="#595959" font-family="Verdana,sans-serif" font-weight="400" font-size="41" transform="matrix(6.12323e-17 -1 1 6.12323e-17 3750.5882352941176 1221)">26-Aug</text>
		</g>
		<g>
			<text fill="#595959" font-family="Verdana,sans-serif" font-weight="400" font-size="41" transform="matrix(6.12323e-17 -1 1 6.12323e-17 3834.3529411764707 1221)">23-Sep</text>
		</g>
		<g>
			<text fill="#595959" font-family="Verdana,sans-serif" font-weight="400" font-size="41" transform="matrix(6.12323e-17 -1 1 6.12323e-17 3914.6176470588234 1215)">21-Oct</text>
		</g>
		<g>
			<text fill="#595959" font-family="Verdana,sans-serif" font-weight="400" font-size="41" transform="matrix(6.12323e-17 -1 1 6.12323e-17 3998.3823529411766 1222)">18-Nov</text>
		</g>
		<g>
			<text fill="#595959" font-family="Verdana,sans-serif" font-weight="400" font-size="41" transform="matrix(6.12323e-17 -1 1 6.12323e-17 4082.1470588235293 1222)">23-Dec</text>
		</g>
		<g>
			<text fill="#595959" font-family="Verdana,sans-serif" font-weight="400" font-size="41" transform="matrix(6.12323e-17 -1 1 6.12323e-17 4165.911764705882 1210)">20-Jan</text>
		</g>
		<g>
			<text fill="#595959" font-family="Verdana,sans-serif" font-weight="400" font-size="41" transform="matrix(6.12323e-17 -1 1 6.12323e-17 4249.676470588235 1214)">17-Feb</text>
		</g>
		<g>
			<text fill="#595959" font-family="Verdana,sans-serif" font-weight="400" font-size="41" transform="matrix(1 0 0 1 3123.5 1050)">0%</text>
		</g>
		<g>
			<text fill="#595959" font-family="Verdana,sans-serif" font-weight="400" font-size="41" transform="matrix(1 0 0 1 3097.5 922)">20%</text>
		</g>
		<g>
			<text fill="#595959" font-family="Verdana,sans-serif" font-weight="400" font-size="41" transform="matrix(1 0 0 1 3096.5 794)">40%</text>
		</g>
		<g>
			<text fill="#595959" font-family="Verdana,sans-serif" font-weight="400" font-size="41" transform="matrix(1 0 0 1 3097.5 666)">60%</text>
		</g>
		<g>
			<text fill="#595959" font-family="Verdana,sans-serif" font-weight="400" font-size="41" transform="matrix(1 0 0 1 3097.5 538)">80%</text>
		</g>
		<g>
			<text fill="#595959" font-family="Verdana,sans-serif" font-weight="400" font-size="41" transform="matrix(1 0 0 1 3074.5 410)">100%</text>
		</g>
		<g>
			<text fill="#595959" font-family="Verdana,sans-serif" font-weight="400" font-size="41" transform="matrix(1 0 0 1 3544.5 1321)">Week Commencing</text>
		</g>
		<g>
			<text fill="#595959" font-family="Verdana,sans-serif" font-weight="400" font-size="46" transform="matrix(6.12323e-17 -1 1 6.12323e-17 3019.73 965.25)">Requests (% of Total)</text>
		</g>
		<rect x="2918.5" y="347.5" width="1760" height="1043" stroke="#D9D9D9" stroke-width="3.4375" stroke-linejoin="round" stroke-miterlimit="10" fill="none" />
		<g>
			<path d="M3228.5 1038 3249.4411764705883 1038 3270.3823529411766 1038 3291.323529411765 1038 3312.264705882353 1038 3333.205882352941 1038 3354.1470588235293 1038 3375.0882352941176 1038 3396.029411764706 1038 3416.970588235294 1038 3437.9117647058824 1038 3458.8529411764707 1038 3479.794117647059 1038 3500.735294117647 1038 3521.676470588235 1038 3542.6176470588234 1038 3563.5588235294117 1038 3584.5 1038 3605.4411764705883 1038 3626.3823529411766 1038 3647.323529411765 1038 3668.264705882353 1038 3689.205882352941 1038 3710.1470588235293 1038 3731.0882352941176 1038 3752.029411764706 1038 3772.970588235294 1038 3793.9117647058824 1038 3814.8529411764707 1038 3835.7941176470586 1038 3856.735294117647 1038 3877.676470588235 1038 3898.6176470588234 1038 3919.5588235294117 1038 3940.5 1038 3961.4411764705883 1038 3982.3823529411766 1038 4003.323529411765 1038 4024.264705882353 1038 4045.2058823529414 1038 4066.1470588235293 1038 4087.0882352941176 1038 4108.029411764706 1038 4128.970588235294 1038 4149.911764705882 1038 4170.85294117647 1038 4191.794117647059 1038 4212.735294117647 1038 4233.676470588235 1038 4254.617647058823 1038 4275.558823529412 1038 4296.5 1038 4296.5 533.4031264720519 4275.558823529412 533.4021762961523 4254.617647058823 533.7756525096236 4233.676470588235 533.8956466575289 4212.735294117647 533.9572095457534 4191.794117647059 533.4841990448925 4170.85294117647 533.4528010722697 4149.911764705882 533.722746014736 4128.970588235294 533.7853664259474 4108.029411764706 533.8294455926118 4087.0882352941176 533.7499584959044 4066.1470588235293 533.5577242345337 4045.2058823529414 533.3794235575219 4024.264705882353 533.1839579715512 4003.323529411765 532.7385960569093 3982.3823529411766 532.9945218339117 3961.4411764705883 533.5883597667535 3940.5 534.4892592748513 3919.5588235294117 535.2648007319358 3898.6176470588234 642.4592997578948 3877.676470588235 641.7348258019537 3856.735294117647 641.0274072878076 3835.7941176470586 640.0328656683237 3814.8529411764707 638.7439704461906 3793.9117647058824 637.5953366301156 3772.970588235294 636.388984334016 3752.029411764706 635.2830954215428 3731.0882352941176 634.2801376637599 3710.1470588235293 633.5123019251453 3689.205882352941 632.703376074059 3668.264705882353 631.9415100696045 3647.323529411765 630.857109120077 3626.3823529411766 629.6835942752446 3605.4411764705883 628.7570391925642 3584.5 627.5176878063296 3563.5588235294117 626.3963136974012 3542.6176470588234 625.2428890685153 3521.676470588235 624.0667377001988 3500.735294117647 622.80172023452 3479.794117647059 632.4054355541638 3458.8529411764707 630.9533026623258 3437.9117647058824 630.0731822124889 3416.970588235294 629.6411395703622 3396.029411764706 629.3637077507597 3375.0882352941176 629.112232069277 3354.1470588235293 628.7712194186788 3333.205882352941 629.1405060461395 3312.264705882353 630.4544284738802 3291.323529411765 631.6183228637996 3270.3823529411766 647.4118241208081 3249.4411764705883 648.3895796632379 3228.5 621.5001438018157 3228.5 1038Z" fill="#e62d39" opacity="0.9" />
		</g>
		<g>
			<path d="M3228.5 621.5001438018157 3249.4411764705883 648.3895796632379 3270.3823529411766 647.4118241208081 3291.323529411765 631.6183228637996 3312.264705882353 630.4544284738802 3333.205882352941 629.1405060461395 3354.1470588235293 628.7712194186788 3375.0882352941176 629.112232069277 3396.029411764706 629.3637077507597 3416.970588235294 629.6411395703622 3437.9117647058824 630.0731822124889 3458.8529411764707 630.9533026623258 3479.794117647059 632.4054355541638 3500.735294117647 622.80172023452 3521.676470588235 624.0667377001988 3542.6176470588234 625.2428890685153 3563.5588235294117 626.3963136974012 3584.5 627.5176878063296 3605.4411764705883 628.7570391925642 3626.3823529411766 629.6835942752446 3647.323529411765 630.857109120077 3668.264705882353 631.9415100696045 3689.205882352941 632.703376074059 3710.1470588235293 633.5123019251453 3731.0882352941176 634.2801376637599 3752.029411764706 635.2830954215428 3772.970588235294 636.388984334016 3793.9117647058824 637.5953366301156 3814.8529411764707 638.7439704461906 3835.7941176470586 640.0328656683237 3856.735294117647 641.0274072878076 3877.676470588235 641.7348258019537 3898.6176470588234 642.4592997578948 3919.5588235294117 535.2648007319358 3940.5 534.4892592748513 3961.4411764705883 533.5883597667535 3982.3823529411766 532.9945218339117 4003.323529411765 532.7385960569093 4024.264705882353 533.1839579715512 4045.2058823529414 533.3794235575219 4066.1470588235293 533.5577242345337 4087.0882352941176 533.7499584959044 4108.029411764706 533.8294455926118 4128.970588235294 533.7853664259474 4149.911764705882 533.722746014736 4170.85294117647 533.4528010722697 4191.794117647059 533.4841990448925 4212.735294117647 533.9572095457534 4233.676470588235 533.8956466575289 4254.617647058823 533.7756525096236 4275.558823529412 533.4021762961523 4296.5 533.4031264720519 4296.5 447.3367564362345 4275.558823529412 447.478410212555 4254.617647058823 447.7812344269998 4233.676470588235 447.9735867247491 4212.735294117647 448.11744019003095 4191.794117647059 447.90712750570685 4170.85294117647 447.65114758474357 4149.911764705882 447.63691579979616 4128.970588235294 447.6548818464415 4108.029411764706 447.68514400974766 4087.0882352941176 447.6730658977694 4066.1470588235293 447.6266609249292 4045.2058823529414 447.6323779302626 4024.264705882353 447.6574339250563 4003.323529411765 447.5983732210459 3982.3823529411766 447.82372841614773 3961.4411764705883 448.23400972704667 3940.5 448.85972838125235 3919.5588235294117 449.3446349967366 3898.6176470588234 564.013087594675 3877.676470588235 563.0569322713101 3856.735294117647 562.1201699126104 3835.7941176470586 560.9592369816268 3814.8529411764707 559.5178863272408 3793.9117647058824 558.0421991553968 3772.970588235294 556.6183211021491 3752.029411764706 555.218566955861 3731.0882352941176 553.8747604661306 3710.1470588235293 552.795294537007 3689.205882352941 551.5476668303065 3668.264705882353 550.4510715595417 3647.323529411765 549.056064697407 3626.3823529411766 547.7069248917836 3605.4411764705883 546.4892681197156 3584.5 545.0068552240035 3563.5588235294117 543.5872074138473 3542.6176470588234 542.2071477253921 3521.676470588235 540.7523658360859 3500.735294117647 539.1846046453284 3479.794117647059 550.69398337688 3458.8529411764707 549.0305649530324 3437.9117647058824 547.8419869340069 3416.970588235294 547.2972215888882 3396.029411764706 546.9206806705122 3375.0882352941176 546.5765460991323 3354.1470588235293 546.1401156456737 3333.205882352941 546.162084159149 3312.264705882353 547.0193242259644 3291.323529411765 547.5943073684911 3270.3823529411766 565.6397555577983 3249.4411764705883 566.0005705781988 3228.5 541.8846686674905 3228.5 621.5001438018157Z" fill="#005aa6" opacity="0.9" />
		</g>
		<g>
			<path d="M3228.5 541.8846686674905 3249.4411764705883 566.0005705781988 3270.3823529411766 565.6397555577983 3291.323529411765 547.5943073684911 3312.264705882353 547.0193242259644 3333.205882352941 546.162084159149 3354.1470588235293 546.1401156456737 3375.0882352941176 546.5765460991323 3396.029411764706 546.9206806705122 3416.970588235294 547.2972215888882 3437.9117647058824 547.8419869340069 3458.8529411764707 549.0305649530324 3479.794117647059 550.69398337688 3500.735294117647 539.1846046453284 3521.676470588235 540.7523658360859 3542.6176470588234 542.2071477253921 3563.5588235294117 543.5872074138473 3584.5 545.0068552240035 3605.4411764705883 546.4892681197156 3626.3823529411766 547.7069248917836 3647.323529411765 549.056064697407 3668.264705882353 550.4510715595417 3689.205882352941 551.5476668303065 3710.1470588235293 552.795294537007 3731.0882352941176 553.8747604661306 3752.029411764706 555.218566955861 3772.970588235294 556.6183211021491 3793.9117647058824 558.0421991553968 3814.8529411764707 559.5178863272408 3835.7941176470586 560.9592369816268 3856.735294117647 562.1201699126104 3877.676470588235 563.0569322713101 3898.6176470588234 564.013087594675 3919.5588235294117 449.3446349967366 3940.5 448.85972838125235 3961.4411764705883 448.23400972704667 3982.3823529411766 447.82372841614773 4003.323529411765 447.5983732210459 4024.264705882353 447.6574339250563 4045.2058823529414 447.6323779302626 4066.1470588235293 447.6266609249292 4087.0882352941176 447.6730658977694 4108.029411764706 447.68514400974766 4128.970588235294 447.6548818464415 4149.911764705882 447.63691579979616 4170.85294117647 447.65114758474357 4191.794117647059 447.90712750570685 4212.735294117647 448.11744019003095 4233.676470588235 447.9735867247491 4254.617647058823 447.7812344269998 4275.558823529412 447.478410212555 4296.5 447.3367564362345 4296.5 431.3401421096995 4275.558823529412 431.5247092372164 4254.617647058823 431.81676347027957 4233.676470588235 431.99440912392726 4212.735294117647 432.1329946808099 4191.794117647059 432.00359297169024 4170.85294117647 431.84731630596053 4149.911764705882 431.8659139096981 4128.970588235294 431.93242137634724 4108.029411764706 431.9599475077045 4087.0882352941176 431.9558731937295 4066.1470588235293 431.9405589448202 4045.2058823529414 431.96727576259724 4024.264705882353 432.02029212049626 4003.323529411765 431.97528739378606 3982.3823529411766 432.15561530771527 3961.4411764705883 432.4754364071281 3940.5 433.0084053536388 3919.5588235294117 433.3913361237896 3898.6176470588234 540.8290503164301 3877.676470588235 539.7717503889384 3856.735294117647 538.7148538649283 3835.7941176470586 537.4631522646897 3814.8529411764707 535.9474999414622 3793.9117647058824 534.3593851680338 3772.970588235294 532.8484801447386 3752.029411764706 531.3863925452272 3731.0882352941176 529.9440403710025 3710.1470588235293 528.7702332186351 3689.205882352941 527.9710368276562 3668.264705882353 526.7914366981524 3647.323529411765 525.3123672531278 3626.3823529411766 523.9349092321237 3605.4411764705883 522.6767257917172 3584.5 521.1207351787452 3563.5588235294117 519.5911430965305 3542.6176470588234 518.1357144384516 3521.676470588235 516.5996074824589 3500.735294117647 514.9659833917357 3479.794117647059 527.0438985976282 3458.8529411764707 525.3024251103315 3437.9117647058824 523.9562890822376 3416.970588235294 523.2798263552974 3396.029411764706 522.7674371524068 3375.0882352941176 522.2747415869658 3354.1470588235293 521.7061803820658 3333.205882352941 521.4815581773842 3312.264705882353 522.0175391594702 3291.323529411765 522.2390966744398 3270.3823529411766 540.7792433621357 3249.4411764705883 540.7347903265445 3228.5 520.8422961076436 3228.5 541.8846686674905Z" fill="#55c0e9" opacity="0.9" />
		</g>
		<g>
			<path d="M3228.5 520.8422961076436 3249.4411764705883 540.7347903265445 3270.3823529411766 540.7792433621357 3291.323529411765 522.2390966744398 3312.264705882353 522.0175391594702 3333.205882352941 521.4815581773842 3354.1470588235293 521.7061803820658 3375.0882352941176 522.2747415869658 3396.029411764706 522.7674371524068 3416.970588235294 523.2798263552974 3437.9117647058824 523.9562890822376 3458.8529411764707 525.3024251103315 3479.794117647059 527.0438985976282 3500.735294117647 514.9659833917357 3521.676470588235 516.5996074824589 3542.6176470588234 518.1357144384516 3563.5588235294117 519.5911430965305 3584.5 521.1207351787452 3605.4411764705883 522.6767257917172 3626.3823529411766 523.9349092321237 3647.323529411765 525.3123672531278 3668.264705882353 526.7914366981524 3689.205882352941 527.9710368276562 3710.1470588235293 528.7702332186351 3731.0882352941176 529.9440403710025 3752.029411764706 531.3863925452272 3772.970588235294 532.8484801447386 3793.9117647058824 534.3593851680338 3814.8529411764707 535.9474999414622 3835.7941176470586 537.4631522646897 3856.735294117647 538.7148538649283 3877.676470588235 539.7717503889384 3898.6176470588234 540.8290503164301 3919.5588235294117 433.3913361237896 3940.5 433.0084053536388 3961.4411764705883 432.4754364071281 3982.3823529411766 432.15561530771527 4003.323529411765 431.97528739378606 4024.264705882353 432.02029212049626 4045.2058823529414 431.96727576259724 4066.1470588235293 431.9405589448202 4087.0882352941176 431.9558731937295 4108.029411764706 431.9599475077045 4128.970588235294 431.93242137634724 4149.911764705882 431.8659139096981 4170.85294117647 431.84731630596053 4191.794117647059 432.00359297169024 4212.735294117647 432.1329946808099 4233.676470588235 431.99440912392726 4254.617647058823 431.81676347027957 4275.558823529412 431.5247092372164 4296.5 431.3401421096995 4296.5 415.95861191477786 4275.558823529412 416.055066900616 4254.617647058823 416.2345639289736 4233.676470588235 416.4071449754411 4212.735294117647 416.47817812627426 4191.794117647059 416.34836086389726 4170.85294117647 416.1564242259188 4149.911764705882 416.1235996870702 4128.970588235294 416.0562889706207 4108.029411764706 416.0954395000898 4087.0882352941176 416.0465069983401 4066.1470588235293 416.000160121671 4045.2058823529414 416.0062420628137 4024.264705882353 416.05161909433286 4003.323529411765 415.99893833884835 3982.3823529411766 416.12431960001913 3961.4411764705883 416.33420162951643 3940.5 416.71311285195446 3919.5588235294117 416.98069451994184 3898.6176470588234 523.7363657522843 3877.676470588235 522.5716439040438 3856.735294117647 521.4074163425901 3835.7941176470586 520.0402408469882 3814.8529411764707 518.4759534407176 3793.9117647058824 516.9133817380589 3772.970588235294 515.447116697529 3752.029411764706 514.0614365046936 3731.0882352941176 512.7024056997157 3710.1470588235293 511.5800205959148 3689.205882352941 510.82918253556556 3668.264705882353 509.7179568015223 3647.323529411765 508.3175496659528 3626.3823529411766 507.0170454704227 3605.4411764705883 505.81218353227047 3584.5 504.3173344906431 3563.5588235294117 502.8338970689489 3542.6176470588234 501.4426511937707 3521.676470588235 499.97387766322737 3500.735294117647 498.4242329984132 3479.794117647059 510.99365573350235 3458.8529411764707 509.31973026750774 3437.9117647058824 508.0481610967102 3416.970588235294 507.46130800445246 3396.029411764706 507.0233752398185 3375.0882352941176 506.60822161328986 3354.1470588235293 506.1065487459215 3333.205882352941 505.9043627233751 3312.264705882353 506.4216643610348 3291.323529411765 506.6484163233015 3270.3823529411766 525.7580510881946 3249.4411764705883 525.7315703546495 3228.5 502.94320923041516 3228.5 520.8422961076436Z" fill="#f6a118" opacity="0.9" />
		</g>
		<g>
			<path d="M3228.5 502.94320923041516 3249.4411764705883 525.7315703546495 3270.3823529411766 525.7580510881946 3291.323529411765 506.6484163233015 3312.264705882353 506.4216643610348 3333.205882352941 505.9043627233751 3354.1470588235293 506.1065487459215 3375.0882352941176 506.60822161328986 3396.029411764706 507.0233752398185 3416.970588235294 507.46130800445246 3437.9117647058824 508.0481610967102 3458.8529411764707 509.31973026750774 3479.794117647059 510.99365573350235 3500.735294117647 498.4242329984132 3521.676470588235 499.97387766322737 3542.6176470588234 501.4426511937707 3563.5588235294117 502.8338970689489 3584.5 504.3173344906431 3605.4411764705883 505.81218353227047 3626.3823529411766 507.0170454704227 3647.323529411765 508.3175496659528 3668.264705882353 509.7179568015223 3689.205882352941 510.82918253556556 3710.1470588235293 511.5800205959148 3731.0882352941176 512.7024056997157 3752.029411764706 514.0614365046936 3772.970588235294 515.447116697529 3793.9117647058824 516.9133817380589 3814.8529411764707 518.4759534407176 3835.7941176470586 520.0402408469882 3856.735294117647 521.4074163425901 3877.676470588235 522.5716439040438 3898.6176470588234 523.7363657522843 3919.5588235294117 416.98069451994184 3940.5 416.71311285195446 3961.4411764705883 416.33420162951643 3982.3823529411766 416.12431960001913 4003.323529411765 415.99893833884835 4024.264705882353 416.05161909433286 4045.2058823529414 416.0062420628137 4066.1470588235293 416.000160121671 4087.0882352941176 416.0465069983401 4108.029411764706 416.0954395000898 4128.970588235294 416.0562889706207 4149.911764705882 416.1235996870702 4170.85294117647 416.1564242259188 4191.794117647059 416.34836086389726 4212.735294117647 416.47817812627426 4233.676470588235 416.4071449754411 4254.617647058823 416.2345639289736 4275.558823529412 416.055066900616 4296.5 415.95861191477786 4296.5 406.6504534424193 4275.558823529412 406.63653513437157 4254.617647058823 406.73881659701254 4233.676470588235 406.7913155812626 4212.735294117647 406.7895314471883 4191.794117647059 406.7538978821639 4170.85294117647 406.6419996355151 4149.911764705882 406.66475151485594 4128.970588235294 406.64954838762975 4108.029411764706 406.6900606081659 4087.0882352941176 406.67423043388266 4066.1470588235293 406.6442240275461 4045.2058823529414 406.6769627823681 4024.264705882353 406.7486576922467 4003.323529411765 406.88204596503937 3982.3823529411766 407.2984950463532 3961.4411764705883 407.42058087187377 3940.5 407.6496849699309 3919.5588235294117 407.85452807822685 3898.6176470588234 510.457001187623 3877.676470588235 509.25430348013276 3856.735294117647 508.03326088042445 3835.7941176470586 506.6178498444704 3814.8529411764707 505.0214210075742 3793.9117647058824 503.4488995208447 3772.970588235294 501.99414638500895 3752.029411764706 500.6747796739521 3731.0882352941176 499.3250304832202 3710.1470588235293 498.1994618351249 3689.205882352941 497.43345523107604 3668.264705882353 496.34925589643314 3647.323529411765 495.0253467220932 3626.3823529411766 493.7905717710478 3605.4411764705883 492.5921558346354 3584.5 491.08339968159794 3563.5588235294117 489.589994805443 3542.6176470588234 488.205911277506 3521.676470588235 486.75823132244886 3500.735294117647 485.3927174126073 3479.794117647059 498.4720025363811 3458.8529411764707 497.0382614705632 3437.9117647058824 495.82345643600064 3416.970588235294 495.20191899296304 3396.029411764706 494.71994133496287 3375.0882352941176 494.25306019687616 3354.1470588235293 493.7747398235285 3333.205882352941 493.46369672124194 3312.264705882353 493.7814105421057 3291.323529411765 493.8307143677906 3270.3823529411766 513.2062038257327 3249.4411764705883 513.0191600354991 3228.5 492.37221825805364 3228.5 502.94320923041516Z" fill="#fdd5a4" opacity="0.9" />
		</g>
		<g>
			<path d="M3228.5 492.37221825805364 3249.4411764705883 513.0191600354991 3270.3823529411766 513.2062038257327 3291.323529411765 493.8307143677906 3312.264705882353 493.7814105421057 3333.205882352941 493.46369672124194 3354.1470588235293 493.7747398235285 3375.0882352941176 494.25306019687616 3396.029411764706 494.71994133496287 3416.970588235294 495.20191899296304 3437.9117647058824 495.82345643600064 3458.8529411764707 497.0382614705632 3479.794117647059 498.4720025363811 3500.735294117647 485.3927174126073 3521.676470588235 486.75823132244886 3542.6176470588234 488.205911277506 3563.5588235294117 489.589994805443 3584.5 491.08339968159794 3605.4411764705883 492.5921558346354 3626.3823529411766 493.7905717710478 3647.323529411765 495.0253467220932 3668.264705882353 496.34925589643314 3689.205882352941 497.43345523107604 3710.1470588235293 498.1994618351249 3731.0882352941176 499.3250304832202 3752.029411764706 500.6747796739521 3772.970588235294 501.99414638500895 3793.9117647058824 503.4488995208447 3814.8529411764707 505.0214210075742 3835.7941176470586 506.6178498444704 3856.735294117647 508.03326088042445 3877.676470588235 509.25430348013276 3898.6176470588234 510.457001187623 3919.5588235294117 407.85452807822685 3940.5 407.6496849699309 3961.4411764705883 407.42058087187377 3982.3823529411766 407.2984950463532 4003.323529411765 406.88204596503937 4024.264705882353 406.7486576922467 4045.2058823529414 406.6769627823681 4066.1470588235293 406.6442240275461 4087.0882352941176 406.67423043388266 4108.029411764706 406.6900606081659 4128.970588235294 406.64954838762975 4149.911764705882 406.66475151485594 4170.85294117647 406.6419996355151 4191.794117647059 406.7538978821639 4212.735294117647 406.7895314471883 4233.676470588235 406.7913155812626 4254.617647058823 406.73881659701254 4275.558823529412 406.63653513437157 4296.5 406.6504534424193 4296.5 398 4275.558823529412 398 4254.617647058823 398.0000000000001 4233.676470588235 398.00000000000006 4212.735294117647 398 4191.794117647059 398 4170.85294117647 398 4149.911764705882 398 4128.970588235294 397.99999999999994 4108.029411764706 398 4087.0882352941176 398.0000000000001 4066.1470588235293 398.00000000000006 4045.2058823529414 398 4024.264705882353 397.9999999999999 4003.323529411765 398 3982.3823529411766 397.99999999999994 3961.4411764705883 398.0000000000001 3940.5 397.99999999999994 3919.5588235294117 398.00000000000006 3898.6176470588234 398 3877.676470588235 397.9999999999999 3856.735294117647 398 3835.7941176470586 397.99999999999983 3814.8529411764707 398.0000000000001 3793.9117647058824 397.99999999999994 3772.970588235294 397.9999999999999 3752.029411764706 398.0000000000001 3731.0882352941176 398 3710.1470588235293 397.9999999999999 3689.205882352941 397.99999999999994 3668.264705882353 398.00000000000006 3647.323529411765 398.00000000000006 3626.3823529411766 398 3605.4411764705883 397.9999999999999 3584.5 398 3563.5588235294117 397.9999999999999 3542.6176470588234 397.9999999999999 3521.676470588235 398.00000000000006 3500.735294117647 398 3479.794117647059 398 3458.8529411764707 397.9999999999999 3437.9117647058824 398.0000000000001 3416.970588235294 397.9999999999999 3396.029411764706 398 3375.0882352941176 398 3354.1470588235293 397.99999999999994 3333.205882352941 398 3312.264705882353 397.9999999999999 3291.323529411765 398.0000000000001 3270.3823529411766 398.0000000000001 3249.4411764705883 398 3228.5 397.9999999999999 3228.5 492.37221825805364Z" fill="#393d41" opacity="0.9" />
		</g>
		<g>
			<rect x="4372" y="431" width="22.9995" height="23" fill="#e62d39" />
		</g>
		<g>
			<text fill="#595959" font-family="Verdana,sans-serif" font-weight="400" font-size="41" transform="matrix(1 0 0 1 4404.56 454)">Smartphone</text>
		</g>
		<g>
			<rect x="4372" y="508" width="22.9995" height="23" fill="#005aa6" />
		</g>
		<g>
			<text fill="#595959" font-family="Verdana,sans-serif" font-weight="400" font-size="41" transform="matrix(1 0 0 1 4404.56 531)">Desktop</text>
		</g>
		<g>
			<rect x="4372" y="585" width="22.9995" height="23" fill="#55c0e9" />
		</g>
		<g>
			<text fill="#595959" font-family="Verdana,sans-serif" font-weight="400" font-size="41" transform="matrix(1 0 0 1 4404.56 608)">Other</text>
		</g>
		<g>
			<rect x="4372" y="662" width="22.9995" height="23" fill="#f6a118" />
		</g>
		<g>
			<text fill="#595959" font-family="Verdana,sans-serif" font-weight="400" font-size="41" transform="matrix(1 0 0 1 4404.56 685)">Tablet</text>
		</g>
		<g>
			<rect x="4372" y="739" width="22.9995" height="23" fill="#fdd5a4" />
		</g>
		<g>
			<text fill="#595959" font-family="Verdana,sans-serif" font-weight="400" font-size="41" transform="matrix(1 0 0 1 4404.56 762)">Tv</text>
		</g>
		<g>
			<rect x="4372" y="816" width="22.9995" height="23" fill="#393d41" />
		</g>
		<g>
			<text fill="#595959" font-family="Verdana,sans-serif" font-weight="400" font-size="41" transform="matrix(1 0 0 1 4404.56 839)">Unclassified</text>
		</g>
	</g>
</svg>
