<svg width="1763" height="1046"
    xmlns="http://www.w3.org/2000/svg"
	xmlns:xlink="http://www.w3.org/1999/xlink" xml:space="preserve" overflow="hidden">
	<defs>
		<clipPath id="clip0">
			<rect x="2917" y="346" width="1763" height="1046"/>
		</clipPath>
	</defs>
	<g clip-path="url(#clip0)" transform="translate(-2917 -346)">
		<rect x="2918" y="347" width="1760" height="1043" fill="#FFFFFF" />
		<g>
			<path d="
			M3228.5 974.532 4296.5 974.532
			M3228.5 910.53 4296.5 910.53
			M3228.5 846.528 4296.5 846.528
			M3228.5 781.526 4296.5 781.526
			M3228.5 717.524 4296.5 717.524
			M3228.5 653.522 4296.5 653.522
			M3228.5 589.52 4296.5 589.52
			M3228.5 525.517 4296.5 525.517
			M3228.5 461.515 4296.5 461.515
			M3228.5 397.5 4296.5 397.5" stroke="#D9D9D9" stroke-width="3.4375" stroke-linejoin="round" stroke-miterlimit="10" fill="none" />
		</g>
		<g>
			<path d="M 1038.5 4296.5 1038.5" stroke="#D9D9D9" stroke-width="3.4375" stroke-linejoin="round" stroke-miterlimit="10" fill="none" fill-rule="evenodd" />
		</g>
		<g>
			<text fill="#595959" font-family="Verdana,sans-serif" font-weight="400" font-size="41" transform="matrix(6.12323e-17 -1 1 6.12323e-17 3248 1216)">22-Apr</text>
		</g>
		<g>
			<text fill="#595959" font-family="Verdana,sans-serif" font-weight="400" font-size="41" transform="matrix(6.12323e-17 -1 1 6.12323e-17 3331.764705882353 1228)">20-May</text>
		</g>
		<g>
			<text fill="#595959" font-family="Verdana,sans-serif" font-weight="400" font-size="41" transform="matrix(6.12323e-17 -1 1 6.12323e-17 3411.529411764706 1209)">17-Jun</text>
		</g>
		<g>
			<text fill="#595959" font-family="Verdana,sans-serif" font-weight="400" font-size="41" transform="matrix(6.12323e-17 -1 1 6.12323e-17 3495.794117647059 1194)">15-Jul</text>
		</g>
		<g>
			<text fill="#595959" font-family="Verdana,sans-serif" font-weight="400" font-size="41" transform="matrix(6.12323e-17 -1 1 6.12323e-17 3583.0588235294117 1218)">12-Aug</text>
		</g>
		<g>
			<text fill="#595959" font-family="Verdana,sans-serif" font-weight="400" font-size="41" transform="matrix(6.12323e-17 -1 1 6.12323e-17 3666.823529411765 1222)">09-Sep</text>
		</g>
		<g>
			<text fill="#595959" font-family="Verdana,sans-serif" font-weight="400" font-size="41" transform="matrix(6.12323e-17 -1 1 6.12323e-17 3747.0882352941176 1215)">07-Oct</text>
		</g>
		<g>
			<text fill="#595959" font-family="Verdana,sans-serif" font-weight="400" font-size="41" transform="matrix(6.12323e-17 -1 1 6.12323e-17 3830.8529411764707 1225)">04-Nov</text>
		</g>
		<g>
			<text fill="#595959" font-family="Verdana,sans-serif" font-weight="400" font-size="41" transform="matrix(6.12323e-17 -1 1 6.12323e-17 3914.6176470588234 1223)">09-Dec</text>
		</g>
		<g>
			<text fill="#595959" font-family="Verdana,sans-serif" font-weight="400" font-size="41" transform="matrix(6.12323e-17 -1 1 6.12323e-17 3998.3823529411766 1210)">06-Jan</text>
		</g>
		<g>
			<text fill="#595959" font-family="Verdana,sans-serif" font-weight="400" font-size="41" transform="matrix(6.12323e-17 -1 1 6.12323e-17 4082.1470588235293 1217)">03-Feb</text>
		</g>
		<g>
			<text fill="#595959" font-family="Verdana,sans-serif" font-weight="400" font-size="41" transform="matrix(6.12323e-17 -1 1 6.12323e-17 4165.911764705882 1223)">03-Mar</text>
		</g>
		<g>
			<text fill="#595959" font-family="Verdana,sans-serif" font-weight="400" font-size="41" transform="matrix(6.12323e-17 -1 1 6.12323e-17 4249.676470588235 1223)">31-Mar</text>
		</g>
		<g>
			<text fill="#595959" font-family="Verdana,sans-serif" font-weight="400" font-size="41" transform="matrix(1 0 0 1 3167.5 1050)">0</text>
		</g>
		<g>
			<text fill="#595959" font-family="Verdana,sans-serif" font-weight="400" font-size="41" transform="matrix(1 0 0 1 3050.5 922)">17,908</text>
		</g>
		<g>
			<text fill="#595959" font-family="Verdana,sans-serif" font-weight="400" font-size="41" transform="matrix(1 0 0 1 3049.5 794)">35,815</text>
		</g>
		<g>
			<text fill="#595959" font-family="Verdana,sans-serif" font-weight="400" font-size="41" transform="matrix(1 0 0 1 3049.5 666)">53,723</text>
		</g>
		<g>
			<text fill="#595959" font-family="Verdana,sans-serif" font-weight="400" font-size="41" transform="matrix(1 0 0 1 3048.5 538)">71,630</text>
		</g>
		<g>
			<text fill="#595959" font-family="Verdana,sans-serif" font-weight="400" font-size="41" transform="matrix(1 0 0 1 3047.5 410)">89,538</text>
		</g>
		<g>
			<text fill="#595959" font-family="Verdana,sans-serif" font-weight="400" font-size="41" transform="matrix(1 0 0 1 3544.5 1321)">Week Commencing</text>
		</g>
		<g>
			<text fill="#595959" font-family="Verdana,sans-serif" font-weight="400" font-size="46" transform="matrix(6.12323e-17 -1 1 6.12323e-17 3019.73 1048.25)">Number of Hardware Profiles</text>
		</g>
		<rect x="2918.5" y="347.5" width="1760" height="1043" stroke="#D9D9D9" stroke-width="3.4375" stroke-linejoin="round" stroke-miterlimit="10" fill="none" />
		<g>
			<path d="M3228.5 1038 3249.4411764705883 1038 3270.3823529411766 1038 3291.323529411765 1038 3312.264705882353 1038 3333.205882352941 1038 3354.1470588235293 1038 3375.0882352941176 1038 3396.029411764706 1038 3416.970588235294 1038 3437.9117647058824 1038 3458.8529411764707 1038 3479.794117647059 1038 3500.735294117647 1038 3521.676470588235 1038 3542.6176470588234 1038 3563.5588235294117 1038 3584.5 1038 3605.4411764705883 1038 3626.3823529411766 1038 3647.323529411765 1038 3668.264705882353 1038 3689.205882352941 1038 3710.1470588235293 1038 3731.0882352941176 1038 3752.029411764706 1038 3772.970588235294 1038 3793.9117647058824 1038 3814.8529411764707 1038 3835.7941176470586 1038 3856.735294117647 1038 3877.676470588235 1038 3898.6176470588234 1038 3919.5588235294117 1038 3940.5 1038 3961.4411764705883 1038 3982.3823529411766 1038 4003.323529411765 1038 4024.264705882353 1038 4045.2058823529414 1038 4066.1470588235293 1038 4087.0882352941176 1038 4108.029411764706 1038 4128.970588235294 1038 4149.911764705882 1038 4170.85294117647 1038 4191.794117647059 1038 4212.735294117647 1038 4233.676470588235 1038 4254.617647058823 1038 4275.558823529412 1038 4296.5 1038 4296.5 691.5888672965668 4275.558823529412 691.9534052581027 4254.617647058823 692.3107954164711 4233.676470588235 692.6181509526682 4212.735294117647 692.9540977015345 4191.794117647059 693.3472268757399 4170.85294117647 693.6974692309411 4149.911764705882 694.0620071924769 4128.970588235294 694.3622149255065 4108.029411764706 694.7624919028792 4087.0882352941176 695.1270298644151 4066.1470588235293 695.5273068417878 4045.2058823529414 695.877549196989 4024.264705882353 696.1849047331859 4003.323529411765 696.4779646630482 3982.3823529411766 696.7567289865756 3961.4411764705883 696.9568674752619 3940.5 697.1427103576135 3919.5588235294117 697.421474681141 3898.6176470588234 697.807456052179 3877.676470588235 698.1934374232169 3856.735294117647 698.5150885657486 3835.7941176470586 698.7795572829414 3814.8529411764707 699.0082869842972 3793.9117647058824 699.2799035046572 3772.970588235294 699.6301458598584 3752.029411764706 699.9875360182268 3731.0882352941176 700.316334963926 3710.1470588235293 700.6093948937881 3689.205882352941 700.7952377761397 3668.264705882353 701.1883669503451 3647.323529411765 701.6672697625589 3626.3823529411766 701.9388862829189 3605.4411764705883 702.1390247716054 3584.5 702.3891978824633 3563.5588235294117 702.6965534186602 3542.6176470588234 702.9824655453551 3521.676470588235 703.2111952467109 3500.735294117647 703.5828810114142 3479.794117647059 703.890236547611 3458.8529411764707 704.2190354933101 3437.9117647058824 704.5192432263397 3416.970588235294 704.8337465657039 3396.029411764706 705.0982152828967 3375.0882352941176 705.1268064955661 3354.1470588235293 705.2554669525788 3333.205882352941 705.3340927874199 3312.264705882353 705.6485961267842 3291.323529411765 705.87732582814 3270.3823529411766 706.0345774978222 3249.4411764705883 706.3276374276843 3228.5 706.6921753892202 3228.5 1038Z" fill="#e62d39" opacity="0.9" />
		</g>
		<g>
			<path d="M3228.5 706.6921753892202 3249.4411764705883 706.3276374276843 3270.3823529411766 706.0345774978222 3291.323529411765 705.87732582814 3312.264705882353 705.6485961267842 3333.205882352941 705.3340927874199 3354.1470588235293 705.2554669525788 3375.0882352941176 705.1268064955661 3396.029411764706 705.0982152828967 3416.970588235294 704.8337465657039 3437.9117647058824 704.5192432263397 3458.8529411764707 704.2190354933101 3479.794117647059 703.890236547611 3500.735294117647 703.5828810114142 3521.676470588235 703.2111952467109 3542.6176470588234 702.9824655453551 3563.5588235294117 702.6965534186602 3584.5 702.3891978824633 3605.4411764705883 702.1390247716054 3626.3823529411766 701.9388862829189 3647.323529411765 701.6672697625589 3668.264705882353 701.1883669503451 3689.205882352941 700.7952377761397 3710.1470588235293 700.6093948937881 3731.0882352941176 700.316334963926 3752.029411764706 699.9875360182268 3772.970588235294 699.6301458598584 3793.9117647058824 699.2799035046572 3814.8529411764707 699.0082869842972 3835.7941176470586 698.7795572829414 3856.735294117647 698.5150885657486 3877.676470588235 698.1934374232169 3898.6176470588234 697.807456052179 3919.5588235294117 697.421474681141 3940.5 697.1427103576135 3961.4411764705883 696.9568674752619 3982.3823529411766 696.7567289865756 4003.323529411765 696.4779646630482 4024.264705882353 696.1849047331859 4045.2058823529414 695.877549196989 4066.1470588235293 695.5273068417878 4087.0882352941176 695.1270298644151 4108.029411764706 694.7624919028792 4128.970588235294 694.3622149255065 4149.911764705882 694.0620071924769 4170.85294117647 693.6974692309411 4191.794117647059 693.3472268757399 4212.735294117647 692.9540977015345 4233.676470588235 692.6181509526682 4254.617647058823 692.3107954164711 4275.558823529412 691.9534052581027 4296.5 691.5888672965668 4296.5 525.4810694900489 4275.558823529412 526.0385981371038 4254.617647058823 526.5532399651544 4233.676470588235 527.0321427773683 4212.735294117647 527.5539324085862 4191.794117647059 528.068574236637 4170.85294117647 528.5260336393487 4149.911764705882 528.9906408452277 4128.970588235294 529.3909178226004 4108.029411764706 529.8626728316469 4087.0882352941176 530.3701668565302 4066.1470588235293 530.8776608814135 4045.2058823529414 531.292233465121 4024.264705882353 531.7568406710001 4003.323529411765 532.2143000737118 3982.3823529411766 532.6503160669214 3961.4411764705883 532.893341374612 3940.5 533.107775469633 3919.5588235294117 533.5080524470059 3898.6176470588234 533.9369206370479 3877.676470588235 534.5158926936049 3856.735294117647 534.923317474145 3835.7941176470586 535.3378900578525 3814.8529411764707 535.7167236257233 3793.9117647058824 536.2027742411043 3772.970588235294 536.6745292501508 3752.029411764706 537.1176930465276 3731.0882352941176 537.5823002524069 3710.1470588235293 538.0254640487838 3689.205882352941 538.339967388148 3668.264705882353 538.8689048225334 3647.323529411765 539.4121378632536 3626.3823529411766 539.8553016596305 3605.4411764705883 540.1626571958275 3584.5 540.5057517478613 3563.5588235294117 540.9346199379034 3542.6176470588234 541.3063057026068 3521.676470588235 541.6851392704773 3500.735294117647 542.1425986731891 3479.794117647059 542.5786146663986 3458.8529411764707 542.9788916437714 3437.9117647058824 543.4077598338135 3416.970588235294 543.629341732002 3396.029411764706 543.9652884808686 3375.0882352941176 544.01532310304 3354.1470588235293 544.1797225758896 3333.205882352941 544.265496213898 3312.264705882353 544.7158078134424 3291.323529411765 545.1518238066519 3270.3823529411766 545.5235095713551 3249.4411764705883 545.9809689740669 3228.5 546.5313498179544 3228.5 706.6921753892202Z" fill="#f6a118" opacity="0.9" />
		</g>
		<g>
			<path d="M3228.5 546.5313498179544 3249.4411764705883 545.9809689740669 3270.3823529411766 545.5235095713551 3291.323529411765 545.1518238066519 3312.264705882353 544.7158078134424 3333.205882352941 544.265496213898 3354.1470588235293 544.1797225758896 3375.0882352941176 544.01532310304 3396.029411764706 543.9652884808686 3416.970588235294 543.629341732002 3437.9117647058824 543.4077598338135 3458.8529411764707 542.9788916437714 3479.794117647059 542.5786146663986 3500.735294117647 542.1425986731891 3521.676470588235 541.6851392704773 3542.6176470588234 541.3063057026068 3563.5588235294117 540.9346199379034 3584.5 540.5057517478613 3605.4411764705883 540.1626571958275 3626.3823529411766 539.8553016596305 3647.323529411765 539.4121378632536 3668.264705882353 538.8689048225334 3689.205882352941 538.339967388148 3710.1470588235293 538.0254640487838 3731.0882352941176 537.5823002524069 3752.029411764706 537.1176930465276 3772.970588235294 536.6745292501508 3793.9117647058824 536.2027742411043 3814.8529411764707 535.7167236257233 3835.7941176470586 535.3378900578525 3856.735294117647 534.923317474145 3877.676470588235 534.5158926936049 3898.6176470588234 533.9369206370479 3919.5588235294117 533.5080524470059 3940.5 533.107775469633 3961.4411764705883 532.893341374612 3982.3823529411766 532.6503160669214 4003.323529411765 532.2143000737118 4024.264705882353 531.7568406710001 4045.2058823529414 531.292233465121 4066.1470588235293 530.8776608814135 4087.0882352941176 530.3701668565302 4108.029411764706 529.8626728316469 4128.970588235294 529.3909178226004 4149.911764705882 528.9906408452277 4170.85294117647 528.5260336393487 4191.794117647059 528.068574236637 4212.735294117647 527.5539324085862 4233.676470588235 527.0321427773683 4254.617647058823 526.5532399651544 4275.558823529412 526.0385981371038 4296.5 525.4810694900489 4296.5 449.32122674171853 4275.558823529412 449.9001987982756 4254.617647058823 450.4791708548325 4233.676470588235 450.9795170765486 4212.735294117647 451.5084545109338 4191.794117647059 452.0445397484867 4170.85294117647 452.5377381670353 4149.911764705882 453.02378878241643 4128.970588235294 453.48124818512804 4108.029411764706 453.9958900131788 4087.0882352941176 454.5105318412294 4066.1470588235293 455.03232147244745 4045.2058823529414 455.4611896624897 4024.264705882353 455.9758314905404 4003.323529411765 456.47617771225634 3982.3823529411766 456.95508052447013 3961.4411764705883 457.20525363532806 3940.5 457.43398333668387 3919.5588235294117 457.87714713306093 3898.6176470588234 458.32031092943777 3877.676470588235 458.9564654113337 3856.735294117647 459.37818579820856 3835.7941176470586 459.8284973977529 3814.8529411764707 460.29310460363206 3793.9117647058824 460.80774643168263 3772.970588235294 461.315240456566 3752.029411764706 461.7869954656122 3731.0882352941176 462.2944894904957 3710.1470588235293 462.7948357122116 3689.205882352941 463.14507806741267 3668.264705882353 463.73834573030445 3647.323529411765 464.3745002122005 3626.3823529411766 464.8462552212468 3605.4411764705883 465.196497576448 3584.5 465.58247894748604 3563.5588235294117 466.0685295628672 3542.6176470588234 466.4831021465747 3521.676470588235 466.87623132078 3500.735294117647 467.34798632982654 3479.794117647059 467.8125935357055 3458.8529411764707 468.24146172574774 3437.9117647058824 468.69177332529205 3416.970588235294 469.1277893185016 3396.029411764706 469.4780316737029 3375.0882352941176 469.5352140990417 3354.1470588235293 469.71390917822606 3333.205882352941 469.8068306194018 3312.264705882353 470.2857334316157 3291.323529411765 470.76463624382944 3270.3823529411766 471.16491322120214 3249.4411764705883 471.6581116397507 3228.5 472.25852710580983 3228.5 546.5313498179544Z" fill="#55c0e9" opacity="0.9" />
		</g>
		<g>
			<path d="M3228.5 472.25852710580983 3249.4411764705883 471.6581116397507 3270.3823529411766 471.16491322120214 3291.323529411765 470.76463624382944 3312.264705882353 470.2857334316157 3333.205882352941 469.8068306194018 3354.1470588235293 469.71390917822606 3375.0882352941176 469.5352140990417 3396.029411764706 469.4780316737029 3416.970588235294 469.1277893185016 3437.9117647058824 468.69177332529205 3458.8529411764707 468.24146172574774 3479.794117647059 467.8125935357055 3500.735294117647 467.34798632982654 3521.676470588235 466.87623132078 3542.6176470588234 466.4831021465747 3563.5588235294117 466.0685295628672 3584.5 465.58247894748604 3605.4411764705883 465.196497576448 3626.3823529411766 464.8462552212468 3647.323529411765 464.3745002122005 3668.264705882353 463.73834573030445 3689.205882352941 463.14507806741267 3710.1470588235293 462.7948357122116 3731.0882352941176 462.2944894904957 3752.029411764706 461.7869954656122 3772.970588235294 461.315240456566 3793.9117647058824 460.80774643168263 3814.8529411764707 460.29310460363206 3835.7941176470586 459.8284973977529 3856.735294117647 459.37818579820856 3877.676470588235 458.9564654113337 3898.6176470588234 458.32031092943777 3919.5588235294117 457.87714713306093 3940.5 457.43398333668387 3961.4411764705883 457.20525363532806 3982.3823529411766 456.95508052447013 4003.323529411765 456.47617771225634 4024.264705882353 455.9758314905404 4045.2058823529414 455.4611896624897 4066.1470588235293 455.03232147244745 4087.0882352941176 454.5105318412294 4108.029411764706 453.9958900131788 4128.970588235294 453.48124818512804 4149.911764705882 453.02378878241643 4170.85294117647 452.5377381670353 4191.794117647059 452.0445397484867 4212.735294117647 451.5084545109338 4233.676470588235 450.9795170765486 4254.617647058823 450.4791708548325 4275.558823529412 449.9001987982756 4296.5 449.32122674171853 4296.5 399.3294913891308 4275.558823529412 400.05141950903527 4254.617647058823 400.81623444794377 4233.676470588235 401.5095713551789 4212.735294117647 402.1886126560789 4191.794117647059 402.91054077598346 4170.85294117647 403.61102548638576 4149.911764705882 404.3543970157922 4128.970588235294 405.0620295293618 4108.029411764706 405.78395764926626 4087.0882352941176 406.5058857691706 4066.1470588235293 407.21351828274027 4045.2058823529414 407.84967276463624 4024.264705882353 408.5858964908754 4003.323529411765 409.29352900444513 3982.3823529411766 410.0154571243495 3961.4411764705883 410.3085170542117 3940.5 410.61587259040857 3919.5588235294117 411.3020616944762 3898.6176470588234 412.00969420804574 3877.676470588235 413.24626415600073 3856.735294117647 413.91100985056624 3835.7941176470586 414.5900511514664 3814.8529411764707 415.29053586186876 3793.9117647058824 415.991020572271 3772.970588235294 416.7058008890081 3752.029411764706 417.4062855994102 3731.0882352941176 418.10677030981265 3710.1470588235293 418.8001072170475 3689.205882352941 419.3361924546002 3668.264705882353 420.23681565368895 3647.323529411765 421.0445174116019 3626.3823529411766 421.75929772833877 3605.4411764705883 422.30967857222635 3584.5 422.98157206995916 3563.5588235294117 423.6606133708593 3542.6176470588234 424.3325068685922 3521.676470588235 425.01154816949224 3500.735294117647 425.69773727355994 3479.794117647059 426.4053697871295 3458.8529411764707 427.10585449753177 3437.9117647058824 427.8277826174362 3416.970588235294 428.5068239183363 3396.029411764706 429.18586521923663 3375.0882352941176 429.8577587169693 3354.1470588235293 430.5010610020327 3333.205882352941 431.144363287096 3312.264705882353 431.88058701333523 3291.323529411765 432.4595590698921 3270.3823529411766 432.9956443074449 3249.4411764705883 433.62465098617344 3228.5 434.37517031874734 3228.5 472.25852710580983Z" fill="#fdd5a4" opacity="0.9" />
		</g>
		<g>
			<path d="M3228.5 434.37517031874734 3249.4411764705883 433.62465098617344 3270.3823529411766 432.9956443074449 3291.323529411765 432.4595590698921 3312.264705882353 431.88058701333523 3333.205882352941 431.144363287096 3354.1470588235293 430.5010610020327 3375.0882352941176 429.8577587169693 3396.029411764706 429.18586521923663 3416.970588235294 428.5068239183363 3437.9117647058824 427.8277826174362 3458.8529411764707 427.10585449753177 3479.794117647059 426.4053697871295 3500.735294117647 425.69773727355994 3521.676470588235 425.01154816949224 3542.6176470588234 424.3325068685922 3563.5588235294117 423.6606133708593 3584.5 422.98157206995916 3605.4411764705883 422.30967857222635 3626.3823529411766 421.75929772833877 3647.323529411765 421.0445174116019 3668.264705882353 420.23681565368895 3689.205882352941 419.3361924546002 3710.1470588235293 418.8001072170475 3731.0882352941176 418.10677030981265 3752.029411764706 417.4062855994102 3772.970588235294 416.7058008890081 3793.9117647058824 415.991020572271 3814.8529411764707 415.29053586186876 3835.7941176470586 414.5900511514664 3856.735294117647 413.91100985056624 3877.676470588235 413.24626415600073 3898.6176470588234 412.00969420804574 3919.5588235294117 411.3020616944762 3940.5 410.61587259040857 3961.4411764705883 410.3085170542117 3982.3823529411766 410.0154571243495 4003.323529411765 409.29352900444513 4024.264705882353 408.5858964908754 4045.2058823529414 407.84967276463624 4066.1470588235293 407.21351828274027 4087.0882352941176 406.5058857691706 4108.029411764706 405.78395764926626 4128.970588235294 405.0620295293618 4149.911764705882 404.3543970157922 4170.85294117647 403.61102548638576 4191.794117647059 402.91054077598346 4212.735294117647 402.1886126560789 4233.676470588235 401.5095713551789 4254.617647058823 400.81623444794377 4275.558823529412 400.05141950903527 4296.5 399.3294913891308 4296.5 397.99999999999994 4275.558823529412 398.7219281199044 4254.617647058823 399.4867430588129 4233.676470588235 400.180079966048 4212.735294117647 400.859121266948 4191.794117647059 401.5810493868526 4170.85294117647 402.2815340972549 4149.911764705882 403.02490562666134 4128.970588235294 403.73253814023093 4108.029411764706 404.4544662601354 4087.0882352941176 405.17639438003977 4066.1470588235293 405.8840268936094 4045.2058823529414 406.5201813755054 4024.264705882353 407.2564051017446 4003.323529411765 407.9640376153143 3982.3823529411766 408.68596573521864 3961.4411764705883 408.9790256650808 3940.5 409.2863812012777 3919.5588235294117 409.97257030534536 3898.6176470588234 410.6802028189149 3877.676470588235 411.9167727668699 3856.735294117647 412.5815184614354 3835.7941176470586 413.26055976233556 3814.8529411764707 413.9610444727379 3793.9117647058824 414.6686769863075 3772.970588235294 415.390605106212 3752.029411764706 416.09108981661404 3731.0882352941176 416.7915745270165 3710.1470588235293 417.4849114342514 3689.205882352941 418.0209966718041 3668.264705882353 418.9216198708928 3647.323529411765 419.72932162880574 3626.3823529411766 420.4441019455426 3605.4411764705883 420.9944827894302 3584.5 421.666376287163 3563.5588235294117 422.3454175880632 3542.6176470588234 423.01731108579605 3521.676470588235 423.6963523866961 3500.735294117647 424.3825414907638 3479.794117647059 425.09017400433333 3458.8529411764707 425.7906587147356 3437.9117647058824 426.51258683464005 3416.970588235294 427.19162813554016 3396.029411764706 427.8706694364405 3375.0882352941176 428.54256293417313 3354.1470588235293 429.1858652192366 3333.205882352941 429.82916750429985 3312.264705882353 430.5653912305391 3291.323529411765 431.144363287096 3270.3823529411766 431.68044852464874 3249.4411764705883 432.3094552033773 3228.5 433.0599745359512 3228.5 434.37517031874734Z" fill="#005aa6" opacity="0.9" />
		</g>
		<g>
			<rect x="4372" y="431" width="22.9995" height="23" fill="#e62d39" />
		</g>
		<g>
			<text fill="#595959" font-family="Verdana,sans-serif" font-weight="400" font-size="41" transform="matrix(1 0 0 1 4404.56 454)">Smartphone</text>
		</g>
		<g>
			<rect x="4372" y="508" width="22.9995" height="23" fill="#f6a118" />
		</g>
		<g>
			<text fill="#595959" font-family="Verdana,sans-serif" font-weight="400" font-size="41" transform="matrix(1 0 0 1 4404.56 531)">Tablet</text>
		</g>
		<g>
			<rect x="4372" y="585" width="22.9995" height="23" fill="#55c0e9" />
		</g>
		<g>
			<text fill="#595959" font-family="Verdana,sans-serif" font-weight="400" font-size="41" transform="matrix(1 0 0 1 4404.56 608)">Other</text>
		</g>
		<g>
			<rect x="4372" y="662" width="22.9995" height="23" fill="#fdd5a4" />
		</g>
		<g>
			<text fill="#595959" font-family="Verdana,sans-serif" font-weight="400" font-size="41" transform="matrix(1 0 0 1 4404.56 685)">Tv</text>
		</g>
		<g>
			<rect x="4372" y="739" width="22.9995" height="23" fill="#005aa6" />
		</g>
		<g>
			<text fill="#595959" font-family="Verdana,sans-serif" font-weight="400" font-size="41" transform="matrix(1 0 0 1 4404.56 762)">Desktop</text>
		</g>
	</g>
</svg>
