<svg width="1763" height="1046"
    xmlns="http://www.w3.org/2000/svg"
	xmlns:xlink="http://www.w3.org/1999/xlink" xml:space="preserve" overflow="hidden">
	<defs>
		<clipPath id="clip0">
			<rect x="2917" y="346" width="1763" height="1046"/>
		</clipPath>
	</defs>
	<g clip-path="url(#clip0)" transform="translate(-2917 -346)">
		<rect x="2918" y="347" width="1760" height="1043" fill="#FFFFFF" />
		<g>
			<path d="
			M3228.5 974.532 4296.5 974.532
			M3228.5 910.53 4296.5 910.53
			M3228.5 846.528 4296.5 846.528
			M3228.5 781.526 4296.5 781.526
			M3228.5 717.524 4296.5 717.524
			M3228.5 653.522 4296.5 653.522
			M3228.5 589.52 4296.5 589.52
			M3228.5 525.517 4296.5 525.517
			M3228.5 461.515 4296.5 461.515
			M3228.5 397.5 4296.5 397.5" stroke="#D9D9D9" stroke-width="3.4375" stroke-linejoin="round" stroke-miterlimit="10" fill="none" />
		</g>
		<g>
			<path d="M 1038.5 4296.5 1038.5" stroke="#D9D9D9" stroke-width="3.4375" stroke-linejoin="round" stroke-miterlimit="10" fill="none" fill-rule="evenodd" />
		</g>
		<g>
			<text fill="#595959" font-family="Verdana,sans-serif" font-weight="400" font-size="41" transform="matrix(6.12323e-17 -1 1 6.12323e-17 3244.5 1225)">06-Nov</text>
		</g>
		<g>
			<text fill="#595959" font-family="Verdana,sans-serif" font-weight="400" font-size="41" transform="matrix(6.12323e-17 -1 1 6.12323e-17 3320.785714285714 1224)">20-Nov</text>
		</g>
		<g>
			<text fill="#595959" font-family="Verdana,sans-serif" font-weight="400" font-size="41" transform="matrix(6.12323e-17 -1 1 6.12323e-17 3397.0714285714284 1223)">04-Dec</text>
		</g>
		<g>
			<text fill="#595959" font-family="Verdana,sans-serif" font-weight="400" font-size="41" transform="matrix(6.12323e-17 -1 1 6.12323e-17 3473.357142857143 1220)">18-Dec</text>
		</g>
		<g>
			<text fill="#595959" font-family="Verdana,sans-serif" font-weight="400" font-size="41" transform="matrix(6.12323e-17 -1 1 6.12323e-17 3549.6428571428573 1210)">01-Jan</text>
		</g>
		<g>
			<text fill="#595959" font-family="Verdana,sans-serif" font-weight="400" font-size="41" transform="matrix(6.12323e-17 -1 1 6.12323e-17 3625.4285714285716 1207)">15-Jan</text>
		</g>
		<g>
			<text fill="#595959" font-family="Verdana,sans-serif" font-weight="400" font-size="41" transform="matrix(6.12323e-17 -1 1 6.12323e-17 3702.214285714286 1210)">29-Jan</text>
		</g>
		<g>
			<text fill="#595959" font-family="Verdana,sans-serif" font-weight="400" font-size="41" transform="matrix(6.12323e-17 -1 1 6.12323e-17 3778.5 1214)">12-Feb</text>
		</g>
		<g>
			<text fill="#595959" font-family="Verdana,sans-serif" font-weight="400" font-size="41" transform="matrix(6.12323e-17 -1 1 6.12323e-17 3854.785714285714 1216)">26-Feb</text>
		</g>
		<g>
			<text fill="#595959" font-family="Verdana,sans-serif" font-weight="400" font-size="41" transform="matrix(6.12323e-17 -1 1 6.12323e-17 3930.5714285714284 1221)">11-Mar</text>
		</g>
		<g>
			<text fill="#595959" font-family="Verdana,sans-serif" font-weight="400" font-size="41" transform="matrix(6.12323e-17 -1 1 6.12323e-17 4007.357142857143 1223)">25-Mar</text>
		</g>
		<g>
			<text fill="#595959" font-family="Verdana,sans-serif" font-weight="400" font-size="41" transform="matrix(6.12323e-17 -1 1 6.12323e-17 4087.1428571428573 1217)">08-Apr</text>
		</g>
		<g>
			<text fill="#595959" font-family="Verdana,sans-serif" font-weight="400" font-size="41" transform="matrix(6.12323e-17 -1 1 6.12323e-17 4163.428571428572 1216)">22-Apr</text>
		</g>
		<g>
			<text fill="#595959" font-family="Verdana,sans-serif" font-weight="400" font-size="41" transform="matrix(6.12323e-17 -1 1 6.12323e-17 4239.714285714286 1228)">06-May</text>
		</g>
		<g>
			<text fill="#595959" font-family="Verdana,sans-serif" font-weight="400" font-size="41" transform="matrix(6.12323e-17 -1 1 6.12323e-17 4316 1228)">20-May</text>
		</g>
		<g>
			<text fill="#595959" font-family="Verdana,sans-serif" font-weight="400" font-size="41" transform="matrix(1 0 0 1 3167.5 1050)">0</text>
		</g>
		<g>
			<text fill="#595959" font-family="Verdana,sans-serif" font-weight="400" font-size="41" transform="matrix(1 0 0 1 3050.5 922)">16,996</text>
		</g>
		<g>
			<text fill="#595959" font-family="Verdana,sans-serif" font-weight="400" font-size="41" transform="matrix(1 0 0 1 3049.5 794)">33,993</text>
		</g>
		<g>
			<text fill="#595959" font-family="Verdana,sans-serif" font-weight="400" font-size="41" transform="matrix(1 0 0 1 3049.5 666)">50,989</text>
		</g>
		<g>
			<text fill="#595959" font-family="Verdana,sans-serif" font-weight="400" font-size="41" transform="matrix(1 0 0 1 3047.5 538)">67,986</text>
		</g>
		<g>
			<text fill="#595959" font-family="Verdana,sans-serif" font-weight="400" font-size="41" transform="matrix(1 0 0 1 3047.5 410)">84,982</text>
		</g>
		<g>
			<text fill="#595959" font-family="Verdana,sans-serif" font-weight="400" font-size="41" transform="matrix(1 0 0 1 3544.5 1321)">Week Commencing</text>
		</g>
		<g>
			<text fill="#595959" font-family="Verdana,sans-serif" font-weight="400" font-size="46" transform="matrix(6.12323e-17 -1 1 6.12323e-17 3019.73 1048.25)">Number of Hardware Profiles</text>
		</g>
		<rect x="2918.5" y="347.5" width="1760" height="1043" stroke="#D9D9D9" stroke-width="3.4375" stroke-linejoin="round" stroke-miterlimit="10" fill="none" />
		<g>
			<path d="M3228.5 1038 3266.6428571428573 1038 3304.785714285714 1038 3342.9285714285716 1038 3381.0714285714284 1038 3419.214285714286 1038 3457.357142857143 1038 3495.5 1038 3533.6428571428573 1038 3571.785714285714 1038 3609.9285714285716 1038 3648.0714285714284 1038 3686.214285714286 1038 3724.357142857143 1038 3762.5 1038 3800.6428571428573 1038 3838.785714285714 1038 3876.9285714285716 1038 3915.0714285714284 1038 3953.214285714286 1038 3991.357142857143 1038 4029.5 1038 4067.6428571428573 1038 4105.785714285715 1038 4143.928571428572 1038 4182.071428571428 1038 4220.214285714286 1038 4258.357142857143 1038 4296.5 1038 4296.5 687.8307876962181 4258.357142857143 688.0717799063331 4220.214285714286 688.2374620507871 4182.071428571428 688.5462333199971 4143.928571428572 688.9303146548681 4105.785714285715 689.3897060554 4067.6428571428573 689.7662563837048 4029.5 690.097620672613 3991.357142857143 690.331081876162 3953.214285714286 690.6097291191076 3915.0714285714284 690.8582523357887 3876.9285714285716 691.0465274999411 3838.785714285714 691.2122096443952 3800.6428571428573 691.3327057494528 3762.5 691.5285119201712 3724.357142857143 691.7318490974559 3686.214285714286 692.2288955308182 3648.0714285714284 692.5903838459909 3609.9285714285716 693.0422442399567 3571.785714285714 693.5091666470546 3533.6428571428573 693.8555929490951 3495.5 693.7953448965663 3457.357142857143 694.089054152644 3419.214285714286 694.4279494481184 3381.0714285714284 694.6990656844979 3342.9285714285716 695.0605539996704 3304.785714285714 695.3693252688804 3266.6428571428573 695.6780965380904 3228.5 696.1676119648866 3228.5 1038Z" fill="#e62d39" opacity="0.9" />
		</g>
		<g>
			<path d="M3228.5 696.1676119648866 3266.6428571428573 695.6780965380904 3304.785714285714 695.3693252688804 3342.9285714285716 695.0605539996704 3381.0714285714284 694.6990656844979 3419.214285714286 694.4279494481184 3457.357142857143 694.089054152644 3495.5 693.7953448965663 3533.6428571428573 693.8555929490951 3571.785714285714 693.5091666470546 3609.9285714285716 693.0422442399567 3648.0714285714284 692.5903838459909 3686.214285714286 692.2288955308182 3724.357142857143 691.7318490974559 3762.5 691.5285119201712 3800.6428571428573 691.3327057494528 3838.785714285714 691.2122096443952 3876.9285714285716 691.0465274999411 3915.0714285714284 690.8582523357887 3953.214285714286 690.6097291191076 3991.357142857143 690.331081876162 4029.5 690.097620672613 4067.6428571428573 689.7662563837048 4105.785714285715 689.3897060554 4143.928571428572 688.9303146548681 4182.071428571428 688.5462333199971 4220.214285714286 688.2374620507871 4258.357142857143 688.0717799063331 4296.5 687.8307876962181 4296.5 518.2701748605588 4258.357142857143 518.7295662610906 4220.214285714286 519.1211786025275 4182.071428571428 519.6031630227577 4143.928571428572 520.1830505283472 4105.785714285715 520.8608411192959 4067.6428571428573 521.4256666117531 4029.5 521.9227130451154 3991.357142857143 522.2390153208914 3953.214285714286 522.6005036360641 3915.0714285714284 522.9695229578028 3876.9285714285716 523.218046174484 3838.785714285714 523.4966934174295 3800.6428571428573 523.6774375750158 3762.5 523.9711468310935 3724.357142857143 524.2497940740392 3686.214285714286 524.8522745993268 3648.0714285714284 525.3417900261231 3609.9285714285716 525.9216775317127 3571.785714285714 526.5316890635663 3533.6428571428573 527.0136734837965 3495.5 526.9609564378339 3457.357142857143 527.3299757595726 3419.214285714286 527.8194911863689 3381.0714285714284 528.3692546656939 3342.9285714285716 528.9642041844154 3304.785714285714 529.6118707490997 3266.6428571428573 530.1992892612552 3228.5 530.8770798522039 3228.5 696.1676119648866Z" fill="#f6a118" opacity="0.9" />
		</g>
		<g>
			<path d="M3228.5 530.8770798522039 3266.6428571428573 530.1992892612552 3304.785714285714 529.6118707490997 3342.9285714285716 528.9642041844154 3381.0714285714284 528.3692546656939 3419.214285714286 527.8194911863689 3457.357142857143 527.3299757595726 3495.5 526.9609564378339 3533.6428571428573 527.0136734837965 3571.785714285714 526.5316890635663 3609.9285714285716 525.9216775317127 3648.0714285714284 525.3417900261231 3686.214285714286 524.8522745993268 3724.357142857143 524.2497940740392 3762.5 523.9711468310935 3800.6428571428573 523.6774375750158 3838.785714285714 523.4966934174295 3876.9285714285716 523.218046174484 3915.0714285714284 522.9695229578028 3953.214285714286 522.6005036360641 3991.357142857143 522.2390153208914 4029.5 521.9227130451154 4067.6428571428573 521.4256666117531 4105.785714285715 520.8608411192959 4143.928571428572 520.1830505283472 4182.071428571428 519.6031630227577 4220.214285714286 519.1211786025275 4258.357142857143 518.7295662610906 4296.5 518.2701748605588 4296.5 439.8498034877975 4258.357142857143 440.35438092772586 4220.214285714286 440.7761172954272 4182.071428571428 441.29575674848786 4143.928571428572 441.92836130004 4105.785714285715 442.64380692381917 4067.6428571428573 443.22369442940857 4029.5 443.7659269021675 3991.357142857143 444.0972911910757 3953.214285714286 444.4889035325128 3915.0714285714284 444.8729848673837 3876.9285714285716 445.12903909063095 3838.785714285714 445.4302793532747 3800.6428571428573 445.6260855239932 3762.5 445.93485679320315 3724.357142857143 446.2436280624132 3686.214285714286 446.85363959426695 3648.0714285714284 447.36574804076156 3609.9285714285716 447.96069755948326 3571.785714285714 448.63095714386566 3533.6428571428573 449.14306559036027 3495.5 449.1430655903604 3457.357142857143 449.51961591866507 3419.214285714286 450.0995034242545 3381.0714285714284 450.68692193641004 3342.9285714285716 451.28940246169765 3304.785714285714 451.9747240592124 3266.6428571428573 452.6223906238967 3228.5 453.35289826080805 3228.5 530.8770798522039Z" fill="#55c0e9" opacity="0.9" />
		</g>
		<g>
			<path d="M3228.5 453.35289826080805 3266.6428571428573 452.6223906238967 3304.785714285714 451.9747240592124 3342.9285714285716 451.28940246169765 3381.0714285714284 450.68692193641004 3419.214285714286 450.0995034242545 3457.357142857143 449.51961591866507 3495.5 449.1430655903604 3533.6428571428573 449.14306559036027 3571.785714285714 448.63095714386566 3609.9285714285716 447.96069755948326 3648.0714285714284 447.36574804076156 3686.214285714286 446.85363959426695 3724.357142857143 446.2436280624132 3762.5 445.93485679320315 3800.6428571428573 445.6260855239932 3838.785714285714 445.4302793532747 3876.9285714285716 445.12903909063095 3915.0714285714284 444.8729848673837 3953.214285714286 444.4889035325128 3991.357142857143 444.0972911910757 4029.5 443.7659269021675 4067.6428571428573 443.22369442940857 4105.785714285715 442.64380692381917 4143.928571428572 441.92836130004 4182.071428571428 441.29575674848786 4220.214285714286 440.7761172954272 4258.357142857143 440.35438092772586 4296.5 439.8498034877975 4296.5 399.38570520816177 4258.357142857143 399.9957167400155 4220.214285714286 400.5605422324727 4182.071428571428 401.2232708102892 4143.928571428572 402.01402649972937 4105.785714285715 402.78218916947117 4067.6428571428573 403.4825727801181 4029.5 404.0624602857076 3991.357142857143 404.4239486008802 3953.214285714286 404.8682779882799 3915.0714285714284 405.2749523428491 3876.9285714285716 405.65903367772 3838.785714285714 406.14101809795005 3800.6428571428573 406.7886846626343 3762.5 407.57944035207447 3724.357142857143 408.01623873290816 3686.214285714286 408.6714363041585 3648.0714285714284 409.3191028688428 3609.9285714285716 409.951707420395 3571.785714285714 410.7198700901366 3533.6428571428573 411.3374126285566 3495.5 411.3374126285567 3457.357142857143 411.80433503565456 3419.214285714286 412.4896566331694 3381.0714285714284 413.1825092372502 3342.9285714285716 413.9280788872937 3304.785714285714 414.74895860299813 3266.6428571428573 415.4719352333434 3228.5 416.3229389753123 3228.5 453.35289826080805Z" fill="#fdd5a4" opacity="0.9" />
		</g>
		<g>
			<path d="M3228.5 416.3229389753123 3266.6428571428573 415.4719352333434 3304.785714285714 414.74895860299813 3342.9285714285716 413.9280788872937 3381.0714285714284 413.1825092372502 3419.214285714286 412.4896566331694 3457.357142857143 411.80433503565456 3495.5 411.3374126285567 3533.6428571428573 411.3374126285566 3571.785714285714 410.7198700901366 3609.9285714285716 409.951707420395 3648.0714285714284 409.3191028688428 3686.214285714286 408.6714363041585 3724.357142857143 408.01623873290816 3762.5 407.57944035207447 3800.6428571428573 406.7886846626343 3838.785714285714 406.14101809795005 3876.9285714285716 405.65903367772 3915.0714285714284 405.2749523428491 3953.214285714286 404.8682779882799 3991.357142857143 404.4239486008802 4029.5 404.0624602857076 4067.6428571428573 403.4825727801181 4105.785714285715 402.78218916947117 4143.928571428572 402.01402649972937 4182.071428571428 401.2232708102892 4220.214285714286 400.5605422324727 4258.357142857143 399.9957167400155 4296.5 399.38570520816177 4296.5 398.00000000000006 4258.357142857143 398.6100115318538 4220.214285714286 399.174837024311 4182.071428571428 399.8375656021275 4143.928571428572 400.62832129156766 4105.785714285715 401.39648396130946 4067.6428571428573 402.1119295850886 4029.5 402.69181709067806 3991.357142857143 403.05330540585067 3953.214285714286 403.49763479325037 3915.0714285714284 403.90430914781956 3876.9285714285716 404.2883904826905 3838.785714285714 404.77037490292054 3800.6428571428573 405.4180414676048 3762.5 406.20879715704496 3724.357142857143 406.64559553787865 3686.214285714286 407.30079310912896 3648.0714285714284 407.94845967381326 3609.9285714285716 408.5810642253655 3571.785714285714 409.3492268951071 3533.6428571428573 409.9667694335271 3495.5 409.9667694335272 3457.357142857143 410.46381586688943 3419.214285714286 411.1566684709703 3381.0714285714284 411.84952107505114 3342.9285714285716 412.5950907250946 3304.785714285714 413.4159704407991 3266.6428571428573 414.13894707114434 3228.5 414.98995081311324 3228.5 416.3229389753123Z" fill="#005aa6" opacity="0.9" />
		</g>
		<g>
			<rect x="4372" y="431" width="22.9995" height="23" fill="#e62d39" />
		</g>
		<g>
			<text fill="#595959" font-family="Verdana,sans-serif" font-weight="400" font-size="41" transform="matrix(1 0 0 1 4404.56 454)">Smartphone</text>
		</g>
		<g>
			<rect x="4372" y="508" width="22.9995" height="23" fill="#f6a118" />
		</g>
		<g>
			<text fill="#595959" font-family="Verdana,sans-serif" font-weight="400" font-size="41" transform="matrix(1 0 0 1 4404.56 531)">Tablet</text>
		</g>
		<g>
			<rect x="4372" y="585" width="22.9995" height="23" fill="#55c0e9" />
		</g>
		<g>
			<text fill="#595959" font-family="Verdana,sans-serif" font-weight="400" font-size="41" transform="matrix(1 0 0 1 4404.56 608)">Other</text>
		</g>
		<g>
			<rect x="4372" y="662" width="22.9995" height="23" fill="#fdd5a4" />
		</g>
		<g>
			<text fill="#595959" font-family="Verdana,sans-serif" font-weight="400" font-size="41" transform="matrix(1 0 0 1 4404.56 685)">Tv</text>
		</g>
		<g>
			<rect x="4372" y="739" width="22.9995" height="23" fill="#005aa6" />
		</g>
		<g>
			<text fill="#595959" font-family="Verdana,sans-serif" font-weight="400" font-size="41" transform="matrix(1 0 0 1 4404.56 762)">Desktop</text>
		</g>
	</g>
</svg>
