<svg width="1763" height="1046"
    xmlns="http://www.w3.org/2000/svg"
	xmlns:xlink="http://www.w3.org/1999/xlink" xml:space="preserve" overflow="hidden">
	<defs>
		<clipPath id="clip0">
			<rect x="2917" y="346" width="1763" height="1046"/>
		</clipPath>
	</defs>
	<g clip-path="url(#clip0)" transform="translate(-2917 -346)">
		<rect x="2918" y="347" width="1760" height="1043" fill="#FFFFFF" />
		<g>
			<path d="
			M3228.5 974.532 4296.5 974.532
			M3228.5 910.53 4296.5 910.53
			M3228.5 846.528 4296.5 846.528
			M3228.5 781.526 4296.5 781.526
			M3228.5 717.524 4296.5 717.524
			M3228.5 653.522 4296.5 653.522
			M3228.5 589.52 4296.5 589.52
			M3228.5 525.517 4296.5 525.517
			M3228.5 461.515 4296.5 461.515
			M3228.5 397.5 4296.5 397.5" stroke="#D9D9D9" stroke-width="3.4375" stroke-linejoin="round" stroke-miterlimit="10" fill="none" />
		</g>
		<g>
			<path d="M 1038.5 4296.5 1038.5" stroke="#D9D9D9" stroke-width="3.4375" stroke-linejoin="round" stroke-miterlimit="10" fill="none" fill-rule="evenodd" />
		</g>
		<g>
			<text fill="#595959" font-family="Verdana,sans-serif" font-weight="400" font-size="41" transform="matrix(6.12323e-17 -1 1 6.12323e-17 3244.5 1210)">22-Jan</text>
		</g>
		<g>
			<text fill="#595959" font-family="Verdana,sans-serif" font-weight="400" font-size="41" transform="matrix(6.12323e-17 -1 1 6.12323e-17 3329.94 1214)">19-Feb</text>
		</g>
		<g>
			<text fill="#595959" font-family="Verdana,sans-serif" font-weight="400" font-size="41" transform="matrix(6.12323e-17 -1 1 6.12323e-17 3415.38 1221)">18-Mar</text>
		</g>
		<g>
			<text fill="#595959" font-family="Verdana,sans-serif" font-weight="400" font-size="41" transform="matrix(6.12323e-17 -1 1 6.12323e-17 3504.32 1214)">15-Apr</text>
		</g>
		<g>
			<text fill="#595959" font-family="Verdana,sans-serif" font-weight="400" font-size="41" transform="matrix(6.12323e-17 -1 1 6.12323e-17 3589.76 1226)">13-May</text>
		</g>
		<g>
			<text fill="#595959" font-family="Verdana,sans-serif" font-weight="400" font-size="41" transform="matrix(6.12323e-17 -1 1 6.12323e-17 3671.7 1209)">10-Jun</text>
		</g>
		<g>
			<text fill="#595959" font-family="Verdana,sans-serif" font-weight="400" font-size="41" transform="matrix(6.12323e-17 -1 1 6.12323e-17 3757.14 1197)">08-Jul</text>
		</g>
		<g>
			<text fill="#595959" font-family="Verdana,sans-serif" font-weight="400" font-size="41" transform="matrix(6.12323e-17 -1 1 6.12323e-17 3846.08 1221)">05-Aug</text>
		</g>
		<g>
			<text fill="#595959" font-family="Verdana,sans-serif" font-weight="400" font-size="41" transform="matrix(6.12323e-17 -1 1 6.12323e-17 3931.52 1222)">02-Sep</text>
		</g>
		<g>
			<text fill="#595959" font-family="Verdana,sans-serif" font-weight="400" font-size="41" transform="matrix(6.12323e-17 -1 1 6.12323e-17 4016.96 1221)">30-Sep</text>
		</g>
		<g>
			<text fill="#595959" font-family="Verdana,sans-serif" font-weight="400" font-size="41" transform="matrix(6.12323e-17 -1 1 6.12323e-17 4098.9 1215)">28-Oct</text>
		</g>
		<g>
			<text fill="#595959" font-family="Verdana,sans-serif" font-weight="400" font-size="41" transform="matrix(6.12323e-17 -1 1 6.12323e-17 4184.34 1224)">25-Nov</text>
		</g>
		<g>
			<text fill="#595959" font-family="Verdana,sans-serif" font-weight="400" font-size="41" transform="matrix(6.12323e-17 -1 1 6.12323e-17 4269.78 1222)">30-Dec</text>
		</g>
		<g>
			<text fill="#595959" font-family="Verdana,sans-serif" font-weight="400" font-size="41" transform="matrix(1 0 0 1 3123.5 1050)">0%</text>
		</g>
		<g>
			<text fill="#595959" font-family="Verdana,sans-serif" font-weight="400" font-size="41" transform="matrix(1 0 0 1 3097.5 922)">20%</text>
		</g>
		<g>
			<text fill="#595959" font-family="Verdana,sans-serif" font-weight="400" font-size="41" transform="matrix(1 0 0 1 3096.5 794)">40%</text>
		</g>
		<g>
			<text fill="#595959" font-family="Verdana,sans-serif" font-weight="400" font-size="41" transform="matrix(1 0 0 1 3097.5 666)">60%</text>
		</g>
		<g>
			<text fill="#595959" font-family="Verdana,sans-serif" font-weight="400" font-size="41" transform="matrix(1 0 0 1 3097.5 538)">80%</text>
		</g>
		<g>
			<text fill="#595959" font-family="Verdana,sans-serif" font-weight="400" font-size="41" transform="matrix(1 0 0 1 3074.5 410)">100%</text>
		</g>
		<g>
			<text fill="#595959" font-family="Verdana,sans-serif" font-weight="400" font-size="41" transform="matrix(1 0 0 1 3544.5 1321)">Week Commencing</text>
		</g>
		<g>
			<text fill="#595959" font-family="Verdana,sans-serif" font-weight="400" font-size="46" transform="matrix(6.12323e-17 -1 1 6.12323e-17 3019.73 965.25)">Requests (% of Total)</text>
		</g>
		<rect x="2918.5" y="347.5" width="1760" height="1043" stroke="#D9D9D9" stroke-width="3.4375" stroke-linejoin="round" stroke-miterlimit="10" fill="none" />
		<g>
			<path d="M3228.5 1038 3249.86 1038 3271.22 1038 3292.58 1038 3313.94 1038 3335.3 1038 3356.66 1038 3378.02 1038 3399.38 1038 3420.74 1038 3442.1 1038 3463.46 1038 3484.82 1038 3506.18 1038 3527.54 1038 3548.9 1038 3570.26 1038 3591.62 1038 3612.98 1038 3634.34 1038 3655.7 1038 3677.06 1038 3698.42 1038 3719.7799999999997 1038 3741.14 1038 3762.5 1038 3783.86 1038 3805.2200000000003 1038 3826.58 1038 3847.94 1038 3869.3 1038 3890.66 1038 3912.02 1038 3933.38 1038 3954.74 1038 3976.1 1038 3997.46 1038 4018.8199999999997 1038 4040.18 1038 4061.54 1038 4082.9 1038 4104.26 1038 4125.62 1038 4146.98 1038 4168.34 1038 4189.7 1038 4211.0599999999995 1038 4232.42 1038 4253.78 1038 4275.139999999999 1038 4296.5 1038 4296.5 533.7853664259474 4275.139999999999 533.8294455926118 4253.78 533.7499584959044 4232.42 533.5577242345337 4211.0599999999995 533.3794235575219 4189.7 533.1839579715512 4168.34 532.7385960569093 4146.98 532.9945218339117 4125.62 533.5883597667535 4104.26 534.4892592748513 4082.9 535.2648007319358 4061.54 642.4592997578948 4040.18 641.7348258019537 4018.8199999999997 641.0274072878076 3997.46 640.0328656683237 3976.1 638.7439704461906 3954.74 637.5953366301156 3933.38 636.388984334016 3912.02 635.2830954215428 3890.66 634.2801376637599 3869.3 633.5123019251453 3847.94 632.703376074059 3826.58 631.9415100696045 3805.2200000000003 630.857109120077 3783.86 629.6835942752446 3762.5 628.7570391925642 3741.14 627.5176878063296 3719.7799999999997 626.3963136974012 3698.42 625.2428890685153 3677.06 624.0667377001988 3655.7 622.80172023452 3634.34 632.4054355541638 3612.98 630.9533026623258 3591.62 630.0731822124889 3570.26 629.6411395703622 3548.9 629.3637077507597 3527.54 629.112232069277 3506.18 628.7712194186788 3484.82 629.1405060461395 3463.46 630.4544284738802 3442.1 631.6183228637996 3420.74 647.4118241208081 3399.38 648.3895796632379 3378.02 621.5001438018157 3356.66 620.7479883324611 3335.3 618.9772962489769 3313.94 616.6754829613407 3292.58 614.5117939817052 3271.22 615.2796120230914 3249.86 615.9275087100596 3228.5 616.3813797093885 3228.5 1038Z" fill="#e62d39" opacity="0.9" />
		</g>
		<g>
			<path d="M3228.5 616.3813797093885 3249.86 615.9275087100596 3271.22 615.2796120230914 3292.58 614.5117939817052 3313.94 616.6754829613407 3335.3 618.9772962489769 3356.66 620.7479883324611 3378.02 621.5001438018157 3399.38 648.3895796632379 3420.74 647.4118241208081 3442.1 631.6183228637996 3463.46 630.4544284738802 3484.82 629.1405060461395 3506.18 628.7712194186788 3527.54 629.112232069277 3548.9 629.3637077507597 3570.26 629.6411395703622 3591.62 630.0731822124889 3612.98 630.9533026623258 3634.34 632.4054355541638 3655.7 622.80172023452 3677.06 624.0667377001988 3698.42 625.2428890685153 3719.7799999999997 626.3963136974012 3741.14 627.5176878063296 3762.5 628.7570391925642 3783.86 629.6835942752446 3805.2200000000003 630.857109120077 3826.58 631.9415100696045 3847.94 632.703376074059 3869.3 633.5123019251453 3890.66 634.2801376637599 3912.02 635.2830954215428 3933.38 636.388984334016 3954.74 637.5953366301156 3976.1 638.7439704461906 3997.46 640.0328656683237 4018.8199999999997 641.0274072878076 4040.18 641.7348258019537 4061.54 642.4592997578948 4082.9 535.2648007319358 4104.26 534.4892592748513 4125.62 533.5883597667535 4146.98 532.9945218339117 4168.34 532.7385960569093 4189.7 533.1839579715512 4211.0599999999995 533.3794235575219 4232.42 533.5577242345337 4253.78 533.7499584959044 4275.139999999999 533.8294455926118 4296.5 533.7853664259474 4296.5 447.6548818464415 4275.139999999999 447.68514400974766 4253.78 447.6730658977694 4232.42 447.6266609249292 4211.0599999999995 447.6323779302626 4189.7 447.6574339250563 4168.34 447.5983732210459 4146.98 447.82372841614773 4125.62 448.23400972704667 4104.26 448.85972838125235 4082.9 449.3446349967366 4061.54 564.013087594675 4040.18 563.0569322713101 4018.8199999999997 562.1201699126104 3997.46 560.9592369816268 3976.1 559.5178863272408 3954.74 558.0421991553968 3933.38 556.6183211021491 3912.02 555.218566955861 3890.66 553.8747604661306 3869.3 552.795294537007 3847.94 551.5476668303065 3826.58 550.4510715595417 3805.2200000000003 549.056064697407 3783.86 547.7069248917836 3762.5 546.4892681197156 3741.14 545.0068552240035 3719.7799999999997 543.5872074138473 3698.42 542.2071477253921 3677.06 540.7523658360859 3655.7 539.1846046453284 3634.34 550.69398337688 3612.98 549.0305649530324 3591.62 547.8419869340069 3570.26 547.2972215888882 3548.9 546.9206806705122 3527.54 546.5765460991323 3506.18 546.1401156456737 3484.82 546.162084159149 3463.46 547.0193242259644 3442.1 547.5943073684911 3420.74 565.6397555577983 3399.38 566.0005705781988 3378.02 541.8846686674905 3356.66 541.0539314470215 3335.3 539.8778029714027 3313.94 538.0311425357806 3292.58 536.4270145966814 3271.22 536.7106293649022 3249.86 536.9764016245806 3228.5 535.7941999215749 3228.5 616.3813797093885Z" fill="#005aa6" opacity="0.9" />
		</g>
		<g>
			<path d="M3228.5 535.7941999215749 3249.86 536.9764016245806 3271.22 536.7106293649022 3292.58 536.4270145966814 3313.94 538.0311425357806 3335.3 539.8778029714027 3356.66 541.0539314470215 3378.02 541.8846686674905 3399.38 566.0005705781988 3420.74 565.6397555577983 3442.1 547.5943073684911 3463.46 547.0193242259644 3484.82 546.162084159149 3506.18 546.1401156456737 3527.54 546.5765460991323 3548.9 546.9206806705122 3570.26 547.2972215888882 3591.62 547.8419869340069 3612.98 549.0305649530324 3634.34 550.69398337688 3655.7 539.1846046453284 3677.06 540.7523658360859 3698.42 542.2071477253921 3719.7799999999997 543.5872074138473 3741.14 545.0068552240035 3762.5 546.4892681197156 3783.86 547.7069248917836 3805.2200000000003 549.056064697407 3826.58 550.4510715595417 3847.94 551.5476668303065 3869.3 552.795294537007 3890.66 553.8747604661306 3912.02 555.218566955861 3933.38 556.6183211021491 3954.74 558.0421991553968 3976.1 559.5178863272408 3997.46 560.9592369816268 4018.8199999999997 562.1201699126104 4040.18 563.0569322713101 4061.54 564.013087594675 4082.9 449.3446349967366 4104.26 448.85972838125235 4125.62 448.23400972704667 4146.98 447.82372841614773 4168.34 447.5983732210459 4189.7 447.6574339250563 4211.0599999999995 447.6323779302626 4232.42 447.6266609249292 4253.78 447.6730658977694 4275.139999999999 447.68514400974766 4296.5 447.6548818464415 4296.5 431.778749440715 4275.139999999999 431.82063600213297 4253.78 431.76369970238 4232.42 431.68626210177996 4211.0599999999995 431.67134423047906 4189.7 431.6887608988929 4168.34 431.6220241661082 4146.98 431.7924327084516 4125.62 432.092774949435 4104.26 432.564435879568 4082.9 432.93399339288885 4061.54 546.9204030305292 4040.18 545.8568257864155 4018.8199999999997 544.8127323902722 3997.46 543.5363255639253 3976.1 542.0463398264963 3954.74 540.5961957254219 3933.38 539.2169576549396 3912.02 537.8936109153274 3890.66 536.6331257948437 3869.3 535.6050819142866 3847.94 534.4058125382159 3826.58 533.3775916629115 3805.2200000000003 532.061247110232 3783.86 530.7890611300827 3762.5 529.6247258602689 3741.14 528.2034545359014 3719.7799999999997 526.8299613862657 3698.42 525.5140844807112 3677.06 524.1266360168544 3655.7 522.6428542520058 3634.34 534.6437405127542 3612.98 533.0478701102087 3591.62 531.9338589484795 3570.26 531.4787032380433 3548.9 531.1766187579238 3527.54 530.9100261254564 3506.18 530.5404840095295 3484.82 530.58488870514 3463.46 531.423449427529 3442.1 532.0036270173528 3420.74 550.6185632838572 3399.38 550.9973506063038 3378.02 523.985581790262 3356.66 523.2197260372825 3335.3 522.1879742092055 3313.94 520.4624437216655 3292.58 519.0177593325039 3271.22 519.3141390110583 3249.86 519.5817667363715 3228.5 518.337964978853 3228.5 535.7941999215749Z" fill="#55c0e9" opacity="0.9" />
		</g>
		<g>
			<path d="M3228.5 518.337964978853 3249.86 519.5817667363715 3271.22 519.3141390110583 3292.58 519.0177593325039 3313.94 520.4624437216655 3335.3 522.1879742092055 3356.66 523.2197260372825 3378.02 523.985581790262 3399.38 550.9973506063038 3420.74 550.6185632838572 3442.1 532.0036270173528 3463.46 531.423449427529 3484.82 530.58488870514 3506.18 530.5404840095295 3527.54 530.9100261254564 3548.9 531.1766187579238 3570.26 531.4787032380433 3591.62 531.9338589484795 3612.98 533.0478701102087 3634.34 534.6437405127542 3655.7 522.6428542520058 3677.06 524.1266360168544 3698.42 525.5140844807112 3719.7799999999997 526.8299613862657 3741.14 528.2034545359014 3762.5 529.6247258602689 3783.86 530.7890611300827 3805.2200000000003 532.061247110232 3826.58 533.3775916629115 3847.94 534.4058125382159 3869.3 535.6050819142866 3890.66 536.6331257948437 3912.02 537.8936109153274 3933.38 539.2169576549396 3954.74 540.5961957254219 3976.1 542.0463398264963 3997.46 543.5363255639253 4018.8199999999997 544.8127323902722 4040.18 545.8568257864155 4061.54 546.9204030305292 4082.9 432.93399339288885 4104.26 432.564435879568 4125.62 432.092774949435 4146.98 431.7924327084516 4168.34 431.6220241661082 4189.7 431.6887608988929 4211.0599999999995 431.67134423047906 4232.42 431.68626210177996 4253.78 431.76369970238 4275.139999999999 431.82063600213297 4296.5 431.778749440715 4296.5 416.0562889706207 4275.139999999999 416.0954395000898 4253.78 416.0465069983401 4232.42 416.000160121671 4211.0599999999995 416.0062420628137 4189.7 416.05161909433286 4168.34 415.99893833884835 4146.98 416.12431960001913 4125.62 416.33420162951643 4104.26 416.71311285195446 4082.9 416.98069451994184 4061.54 523.7363657522843 4040.18 522.5716439040438 4018.8199999999997 521.4074163425901 3997.46 520.0402408469882 3976.1 518.4759534407176 3954.74 516.9133817380589 3933.38 515.447116697529 3912.02 514.0614365046936 3890.66 512.7024056997157 3869.3 511.58002059591473 3847.94 510.82918253556556 3826.58 509.71795680152235 3805.2200000000003 508.31754966595287 3783.86 507.0170454704228 3762.5 505.8121835322706 3741.14 504.3173344906432 3719.7799999999997 502.8338970689489 3698.42 501.44265119377064 3677.06 499.9738776632273 3655.7 498.4242329984132 3634.34 510.9936557335024 3612.98 509.31973026750785 3591.62 508.0481610967102 3570.26 507.4613080044525 3548.9 507.0233752398185 3527.54 506.6082216132898 3506.18 506.1065487459215 3484.82 505.9043627233751 3463.46 506.42166436103486 3442.1 506.6484163233015 3420.74 525.7580510881946 3399.38 525.7315703546496 3378.02 502.94320923041516 3356.66 502.10703895644696 3335.3 501.18268987180403 3313.94 499.566157981451 3292.58 498.2407663238116 3271.22 498.3417945570345 3249.86 498.4409678079612 3228.5 496.76880797782667 3228.5 518.337964978853Z" fill="#f6a118" opacity="0.9" />
		</g>
		<g>
			<path d="M3228.5 496.76880797782667 3249.86 498.4409678079612 3271.22 498.3417945570345 3292.58 498.2407663238116 3313.94 499.566157981451 3335.3 501.18268987180403 3356.66 502.10703895644696 3378.02 502.94320923041516 3399.38 525.7315703546496 3420.74 525.7580510881946 3442.1 506.6484163233015 3463.46 506.42166436103486 3484.82 505.9043627233751 3506.18 506.1065487459215 3527.54 506.6082216132898 3548.9 507.0233752398185 3570.26 507.4613080044525 3591.62 508.0481610967102 3612.98 509.31973026750785 3634.34 510.9936557335024 3655.7 498.4242329984132 3677.06 499.9738776632273 3698.42 501.44265119377064 3719.7799999999997 502.8338970689489 3741.14 504.3173344906432 3762.5 505.8121835322706 3783.86 507.0170454704228 3805.2200000000003 508.31754966595287 3826.58 509.71795680152235 3847.94 510.82918253556556 3869.3 511.58002059591473 3890.66 512.7024056997157 3912.02 514.0614365046936 3933.38 515.447116697529 3954.74 516.9133817380589 3976.1 518.4759534407176 3997.46 520.0402408469882 4018.8199999999997 521.4074163425901 4040.18 522.5716439040438 4061.54 523.7363657522843 4082.9 416.98069451994184 4104.26 416.71311285195446 4125.62 416.33420162951643 4146.98 416.12431960001913 4168.34 415.99893833884835 4189.7 416.05161909433286 4211.0599999999995 416.0062420628137 4232.42 416.000160121671 4253.78 416.0465069983401 4275.139999999999 416.0954395000898 4296.5 416.0562889706207 4296.5 406.64954838762975 4275.139999999999 406.6900606081659 4253.78 406.67423043388266 4232.42 406.6442240275461 4211.0599999999995 406.6769627823681 4189.7 406.7486576922467 4168.34 406.88204596503937 4146.98 407.2984950463532 4125.62 407.42058087187377 4104.26 407.6496849699309 4082.9 407.85452807822685 4061.54 510.457001187623 4040.18 509.25430348013276 4018.8199999999997 508.03326088042445 3997.46 506.6178498444704 3976.1 505.0214210075742 3954.74 503.4488995208447 3933.38 501.99414638500895 3912.02 500.6747796739521 3890.66 499.3250304832202 3869.3 498.19946183512485 3847.94 497.43345523107604 3826.58 496.3492558964332 3805.2200000000003 495.0253467220933 3783.86 493.79057177104784 3762.5 492.5921558346355 3741.14 491.08339968159805 3719.7799999999997 489.589994805443 3698.42 488.20591127750595 3677.06 486.7582313224488 3655.7 485.3927174126073 3634.34 498.4720025363812 3612.98 497.0382614705633 3591.62 495.82345643600064 3570.26 495.2019189929631 3548.9 494.71994133496287 3527.54 494.2530601968761 3506.18 493.7747398235285 3484.82 493.46369672124194 3463.46 493.78141054210573 3442.1 493.8307143677906 3420.74 513.2062038257327 3399.38 513.0191600354992 3378.02 492.37221825805364 3356.66 491.908543258485 3335.3 491.3515350353937 3313.94 490.22585688768186 3292.58 489.18947576032576 3271.22 489.2233361986403 3249.86 489.223179567103 3228.5 489.5946366866653 3228.5 496.76880797782667Z" fill="#fdd5a4" opacity="0.9" />
		</g>
		<g>
			<path d="M3228.5 489.5946366866653 3249.86 489.223179567103 3271.22 489.2233361986403 3292.58 489.18947576032576 3313.94 490.22585688768186 3335.3 491.3515350353937 3356.66 491.908543258485 3378.02 492.37221825805364 3399.38 513.0191600354992 3420.74 513.2062038257327 3442.1 493.8307143677906 3463.46 493.78141054210573 3484.82 493.46369672124194 3506.18 493.7747398235285 3527.54 494.2530601968761 3548.9 494.71994133496287 3570.26 495.2019189929631 3591.62 495.82345643600064 3612.98 497.0382614705633 3634.34 498.4720025363812 3655.7 485.3927174126073 3677.06 486.7582313224488 3698.42 488.20591127750595 3719.7799999999997 489.589994805443 3741.14 491.08339968159805 3762.5 492.5921558346355 3783.86 493.79057177104784 3805.2200000000003 495.0253467220933 3826.58 496.3492558964332 3847.94 497.43345523107604 3869.3 498.19946183512485 3890.66 499.3250304832202 3912.02 500.6747796739521 3933.38 501.99414638500895 3954.74 503.4488995208447 3976.1 505.0214210075742 3997.46 506.6178498444704 4018.8199999999997 508.03326088042445 4040.18 509.25430348013276 4061.54 510.457001187623 4082.9 407.85452807822685 4104.26 407.6496849699309 4125.62 407.42058087187377 4146.98 407.2984950463532 4168.34 406.88204596503937 4189.7 406.7486576922467 4211.0599999999995 406.6769627823681 4232.42 406.6442240275461 4253.78 406.67423043388266 4275.139999999999 406.6900606081659 4296.5 406.64954838762975 4296.5 397.99999999999994 4275.139999999999 398 4253.78 398.0000000000001 4232.42 398.00000000000006 4211.0599999999995 398 4189.7 397.9999999999999 4168.34 398 4146.98 397.99999999999994 4125.62 398.0000000000001 4104.26 397.99999999999994 4082.9 398.00000000000006 4061.54 398 4040.18 397.9999999999999 4018.8199999999997 398 3997.46 397.99999999999983 3976.1 398.0000000000001 3954.74 397.99999999999994 3933.38 397.9999999999999 3912.02 398.0000000000001 3890.66 398 3869.3 397.99999999999983 3847.94 397.99999999999994 3826.58 398.0000000000001 3805.2200000000003 398.0000000000001 3783.86 398.00000000000006 3762.5 398 3741.14 398.0000000000001 3719.7799999999997 397.9999999999999 3698.42 397.99999999999983 3677.06 398 3655.7 398 3634.34 398.00000000000006 3612.98 398 3591.62 398.0000000000001 3570.26 397.99999999999994 3548.9 398 3527.54 397.99999999999994 3506.18 397.99999999999994 3484.82 398 3463.46 398 3442.1 398.0000000000001 3420.74 398.0000000000001 3399.38 398.0000000000001 3378.02 397.9999999999999 3356.66 398 3335.3 398 3313.94 398.00000000000006 3292.58 398 3271.22 398.0000000000001 3249.86 397.99999999999994 3228.5 398.00000000000006 3228.5 489.5946366866653Z" fill="#393d41" opacity="0.9" />
		</g>
		<g>
			<rect x="4372" y="431" width="22.9995" height="23" fill="#e62d39" />
		</g>
		<g>
			<text fill="#595959" font-family="Verdana,sans-serif" font-weight="400" font-size="41" transform="matrix(1 0 0 1 4404.56 454)">Smartphone</text>
		</g>
		<g>
			<rect x="4372" y="508" width="22.9995" height="23" fill="#005aa6" />
		</g>
		<g>
			<text fill="#595959" font-family="Verdana,sans-serif" font-weight="400" font-size="41" transform="matrix(1 0 0 1 4404.56 531)">Desktop</text>
		</g>
		<g>
			<rect x="4372" y="585" width="22.9995" height="23" fill="#55c0e9" />
		</g>
		<g>
			<text fill="#595959" font-family="Verdana,sans-serif" font-weight="400" font-size="41" transform="matrix(1 0 0 1 4404.56 608)">Tablet</text>
		</g>
		<g>
			<rect x="4372" y="662" width="22.9995" height="23" fill="#f6a118" />
		</g>
		<g>
			<text fill="#595959" font-family="Verdana,sans-serif" font-weight="400" font-size="41" transform="matrix(1 0 0 1 4404.56 685)">Other</text>
		</g>
		<g>
			<rect x="4372" y="739" width="22.9995" height="23" fill="#fdd5a4" />
		</g>
		<g>
			<text fill="#595959" font-family="Verdana,sans-serif" font-weight="400" font-size="41" transform="matrix(1 0 0 1 4404.56 762)">Tv</text>
		</g>
		<g>
			<rect x="4372" y="816" width="22.9995" height="23" fill="#393d41" />
		</g>
		<g>
			<text fill="#595959" font-family="Verdana,sans-serif" font-weight="400" font-size="41" transform="matrix(1 0 0 1 4404.56 839)">Unclassified</text>
		</g>
	</g>
</svg>
