<svg width="1763" height="1046"
    xmlns="http://www.w3.org/2000/svg"
	xmlns:xlink="http://www.w3.org/1999/xlink" xml:space="preserve" overflow="hidden">
	<defs>
		<clipPath id="clip0">
			<rect x="2917" y="346" width="1763" height="1046"/>
		</clipPath>
	</defs>
	<g clip-path="url(#clip0)" transform="translate(-2917 -346)">
		<rect x="2918" y="347" width="1760" height="1043" fill="#FFFFFF" />
		<g>
			<path d="
			M3228.5 974.532 4296.5 974.532
			M3228.5 910.53 4296.5 910.53
			M3228.5 846.528 4296.5 846.528
			M3228.5 781.526 4296.5 781.526
			M3228.5 717.524 4296.5 717.524
			M3228.5 653.522 4296.5 653.522
			M3228.5 589.52 4296.5 589.52
			M3228.5 525.517 4296.5 525.517
			M3228.5 461.515 4296.5 461.515
			M3228.5 397.5 4296.5 397.5" stroke="#D9D9D9" stroke-width="3.4375" stroke-linejoin="round" stroke-miterlimit="10" fill="none" />
		</g>
		<g>
			<path d="M 1038.5 4296.5 1038.5" stroke="#D9D9D9" stroke-width="3.4375" stroke-linejoin="round" stroke-miterlimit="10" fill="none" fill-rule="evenodd" />
		</g>
		<g>
			<text fill="#595959" font-family="Verdana,Open Sans,DejaVu Sans,sans-serif" font-weight="400" font-size="41" transform="matrix(6.12323e-17 -1 1 6.12323e-17 3247.21826171875 1191.6508712768555)">06-Jan</text>
		</g>
		<g>
			<text fill="#595959" font-family="Verdana,Open Sans,DejaVu Sans,sans-serif" font-weight="400" font-size="41" transform="matrix(6.12323e-17 -1 1 6.12323e-17 3328.040096507353 1203.0419921875)">03-Feb</text>
		</g>
		<g>
			<text fill="#595959" font-family="Verdana,Open Sans,DejaVu Sans,sans-serif" font-weight="400" font-size="41" transform="matrix(6.12323e-17 -1 1 6.12323e-17 3411.094109030331 1212.0107421875)">03-Mar</text>
		</g>
		<g>
			<text fill="#595959" font-family="Verdana,Open Sans,DejaVu Sans,sans-serif" font-weight="400" font-size="41" transform="matrix(6.12323e-17 -1 1 6.12323e-17 3494.838795381434 1212.1708984375)">31-Mar</text>
		</g>
		<g>
			<text fill="#595959" font-family="Verdana,Open Sans,DejaVu Sans,sans-serif" font-weight="400" font-size="41" transform="matrix(6.12323e-17 -1 1 6.12323e-17 3583.3281106387867 1203.3022384643555)">28-Apr</text>
		</g>
		<g>
			<text fill="#595959" font-family="Verdana,Open Sans,DejaVu Sans,sans-serif" font-weight="400" font-size="41" transform="matrix(6.12323e-17 -1 1 6.12323e-17 3667.09281652114 1216.51513671875)">26-May</text>
		</g>
		<g>
			<text fill="#595959" font-family="Verdana,Open Sans,DejaVu Sans,sans-serif" font-weight="400" font-size="41" transform="matrix(6.12323e-17 -1 1 6.12323e-17 3749.8064970128676 1194.1733322143555)">30-Jun</text>
		</g>
		<g>
			<text fill="#595959" font-family="Verdana,Open Sans,DejaVu Sans,sans-serif" font-weight="400" font-size="41" transform="matrix(6.12323e-17 -1 1 6.12323e-17 3834.2818962545957 1179.0385665893555)">28-Jul</text>
		</g>
		<g>
			<text fill="#595959" font-family="Verdana,Open Sans,DejaVu Sans,sans-serif" font-weight="400" font-size="41" transform="matrix(6.12323e-17 -1 1 6.12323e-17 3918.3869341681984 1208.66748046875)">25-Aug</text>
		</g>
		<g>
			<text fill="#595959" font-family="Verdana,Open Sans,DejaVu Sans,sans-serif" font-weight="400" font-size="41" transform="matrix(6.12323e-17 -1 1 6.12323e-17 4002.1516400505516 1204.42333984375)">22-Sep</text>
		</g>
		<g>
			<text fill="#595959" font-family="Verdana,Open Sans,DejaVu Sans,sans-serif" font-weight="400" font-size="41" transform="matrix(6.12323e-17 -1 1 6.12323e-17 4081.2117560891543 1201.1401290893555)">20-Oct</text>
		</g>
		<g>
			<text fill="#595959" font-family="Verdana,Open Sans,DejaVu Sans,sans-serif" font-weight="400" font-size="41" transform="matrix(6.12323e-17 -1 1 6.12323e-17 4164.746237362132 1209.70849609375)">17-Nov</text>
		</g>
		<g>
			<text fill="#595959" font-family="Verdana,Open Sans,DejaVu Sans,sans-serif" font-weight="400" font-size="41" transform="matrix(6.12323e-17 -1 1 6.12323e-17 4248.510943244485 1205.3642578125)">15-Dec</text>
		</g>
		<g>
			<text fill="#595959" font-family="Verdana,Open Sans,DejaVu Sans,sans-serif" font-weight="400" font-size="41" transform="matrix(1 0 0 1 3135.4482421875 1050)">0%</text>
		</g>
		<g>
			<text fill="#595959" font-family="Verdana,Open Sans,DejaVu Sans,sans-serif" font-weight="400" font-size="41" transform="matrix(1 0 0 1 3111.96533203125 922)">20%</text>
		</g>
		<g>
			<text fill="#595959" font-family="Verdana,Open Sans,DejaVu Sans,sans-serif" font-weight="400" font-size="41" transform="matrix(1 0 0 1 3110.82421875 794)">40%</text>
		</g>
		<g>
			<text fill="#595959" font-family="Verdana,Open Sans,DejaVu Sans,sans-serif" font-weight="400" font-size="41" transform="matrix(1 0 0 1 3112.3056640625 666)">60%</text>
		</g>
		<g>
			<text fill="#595959" font-family="Verdana,Open Sans,DejaVu Sans,sans-serif" font-weight="400" font-size="41" transform="matrix(1 0 0 1 3112.04541015625 538)">80%</text>
		</g>
		<g>
			<text fill="#595959" font-family="Verdana,Open Sans,DejaVu Sans,sans-serif" font-weight="400" font-size="41" transform="matrix(1 0 0 1 3090.2841796875 410)">100%</text>
		</g>
		<g>
			<text fill="#595959" font-family="Verdana,Open Sans,DejaVu Sans,sans-serif" font-weight="400" font-size="41" transform="matrix(1 0 0 1 3556.97119140625 1321)">Week Commencing</text>
		</g>
		<g>
			<text fill="#595959" font-family="Verdana,Open Sans,DejaVu Sans,sans-serif" font-weight="400" font-size="46" transform="matrix(6.12323e-17 -1 1 6.12323e-17 3019.73 936.7665710449219)">Requests (% of Total)</text>
		</g>
		<rect x="2918.5" y="347.5" width="1760" height="1043" stroke="#D9D9D9" stroke-width="3.4375" stroke-linejoin="round" stroke-miterlimit="10" fill="none" />
		<g>
			<path d="M3228.5 1038 3249.4411764705883 1038 3270.3823529411766 1038 3291.323529411765 1038 3312.264705882353 1038 3333.205882352941 1038 3354.1470588235293 1038 3375.0882352941176 1038 3396.029411764706 1038 3416.970588235294 1038 3437.9117647058824 1038 3458.8529411764707 1038 3479.794117647059 1038 3500.735294117647 1038 3521.676470588235 1038 3542.6176470588234 1038 3563.5588235294117 1038 3584.5 1038 3605.4411764705883 1038 3626.3823529411766 1038 3647.323529411765 1038 3668.264705882353 1038 3689.205882352941 1038 3710.1470588235293 1038 3731.0882352941176 1038 3752.029411764706 1038 3772.970588235294 1038 3793.9117647058824 1038 3814.8529411764707 1038 3835.7941176470586 1038 3856.735294117647 1038 3877.676470588235 1038 3898.6176470588234 1038 3919.5588235294117 1038 3940.5 1038 3961.4411764705883 1038 3982.3823529411766 1038 4003.323529411765 1038 4024.264705882353 1038 4045.2058823529414 1038 4066.1470588235293 1038 4087.0882352941176 1038 4108.029411764706 1038 4128.970588235294 1038 4149.911764705882 1038 4170.85294117647 1038 4191.794117647059 1038 4212.735294117647 1038 4233.676470588235 1038 4254.617647058823 1038 4275.558823529412 1038 4296.5 1038 4296.5 510.91527035566935 4275.558823529412 511.17358261897925 4254.617647058823 511.20549455604134 4233.676470588235 512.098115952951 4212.735294117647 512.1329612369273 4191.794117647059 512.9189284987364 4170.85294117647 515.8919455572111 4149.911764705882 514.7969648318594 4128.970588235294 515.125626744456 4108.029411764706 517.3539587629043 4087.0882352941176 517.3728872760798 4066.1470588235293 517.3795154992906 4045.2058823529414 517.3746698568546 4024.264705882353 518.2845849198919 4003.323529411765 518.2786881359634 3982.3823529411766 518.6674644160128 3961.4411764705883 519.0934355637311 3940.5 520.9052457535156 3919.5588235294117 521.6318852573548 3898.6176470588234 521.6184156458323 3877.676470588235 522.2681085366032 3856.735294117647 527.8351358448251 3835.7941176470586 527.8182060044346 3814.8529411764707 527.8171189568005 3793.9117647058824 527.8195281696414 3772.970588235294 527.7185125063723 3752.029411764706 528.1749639028288 3731.0882352941176 526.0738068609967 3710.1470588235293 526.0690930129186 3689.205882352941 526.4517905907722 3668.264705882353 526.966587562726 3647.323529411765 527.7344479046612 3626.3823529411766 528.0922596265774 3605.4411764705883 528.3637575953018 3584.5 528.4473950245434 3563.5588235294117 528.3817437118579 3542.6176470588234 528.3209049784523 3521.676470588235 528.6035113858115 3500.735294117647 529.0722280244075 3479.794117647059 529.4214956662862 3458.8529411764707 529.807429199031 3437.9117647058824 533.5058286789898 3416.970588235294 533.4031264720519 3396.029411764706 533.4021762961523 3375.0882352941176 533.7756525096236 3354.1470588235293 533.8956466575289 3333.205882352941 533.9572095457534 3312.264705882353 533.4841990448925 3291.323529411765 533.4528010722697 3270.3823529411766 533.722746014736 3249.4411764705883 533.7853664259474 3228.5 533.8294455926118 3228.5 1038Z" fill="#e62d39" opacity="0.9" />
		</g>
		<g>
			<path d="M3228.5 533.8294455926118 3249.4411764705883 533.7853664259474 3270.3823529411766 533.722746014736 3291.323529411765 533.4528010722697 3312.264705882353 533.4841990448925 3333.205882352941 533.9572095457534 3354.1470588235293 533.8956466575289 3375.0882352941176 533.7756525096236 3396.029411764706 533.4021762961523 3416.970588235294 533.4031264720519 3437.9117647058824 533.5058286789898 3458.8529411764707 529.807429199031 3479.794117647059 529.4214956662862 3500.735294117647 529.0722280244075 3521.676470588235 528.6035113858115 3542.6176470588234 528.3209049784523 3563.5588235294117 528.3817437118579 3584.5 528.4473950245434 3605.4411764705883 528.3637575953018 3626.3823529411766 528.0922596265774 3647.323529411765 527.7344479046612 3668.264705882353 526.966587562726 3689.205882352941 526.4517905907722 3710.1470588235293 526.0690930129186 3731.0882352941176 526.0738068609967 3752.029411764706 528.1749639028288 3772.970588235294 527.7185125063723 3793.9117647058824 527.8195281696414 3814.8529411764707 527.8171189568005 3835.7941176470586 527.8182060044346 3856.735294117647 527.8351358448251 3877.676470588235 522.2681085366032 3898.6176470588234 521.6184156458323 3919.5588235294117 521.6318852573548 3940.5 520.9052457535156 3961.4411764705883 519.0934355637311 3982.3823529411766 518.6674644160128 4003.323529411765 518.2786881359634 4024.264705882353 518.2845849198919 4045.2058823529414 517.3746698568546 4066.1470588235293 517.3795154992906 4087.0882352941176 517.3728872760798 4108.029411764706 517.3539587629043 4128.970588235294 515.125626744456 4149.911764705882 514.7969648318594 4170.85294117647 515.8919455572111 4191.794117647059 512.9189284987364 4212.735294117647 512.1329612369273 4233.676470588235 512.098115952951 4254.617647058823 511.20549455604134 4275.558823529412 511.17358261897925 4296.5 510.91527035566935 4296.5 435.3887976286378 4275.558823529412 435.3992247727013 4254.617647058823 435.7778149248337 4233.676470588235 435.69457104984326 4212.735294117647 435.7373894918581 4191.794117647059 436.0183299632218 4170.85294117647 437.1107633727561 4149.911764705882 436.7049406114033 4128.970588235294 436.8606414580909 4108.029411764706 437.9222955771362 4087.0882352941176 437.9259398239807 4066.1470588235293 437.9087165382534 4045.2058823529414 437.90716134158686 4024.264705882353 438.3816771158473 4003.323529411765 438.3811488943986 3982.3823529411766 438.6583696725575 3961.4411764705883 438.939493870515 3940.5 439.76778884064066 3919.5588235294117 440.12172845279287 3898.6176470588234 440.1025942817036 3877.676470588235 440.43245647629897 3856.735294117647 446.0049434709254 3835.7941176470586 445.99448025532104 3814.8529411764707 445.9906298366525 3793.9117647058824 445.9850763388172 3772.970588235294 446.00044835106377 3752.029411764706 445.48995832347725 3731.0882352941176 440.7320769519542 3710.1470588235293 440.71015435347675 3689.205882352941 440.79849020545294 3668.264705882353 441.02669160650083 3647.323529411765 441.4805241599953 3626.3823529411766 441.7146387359797 3605.4411764705883 441.87434560441795 3584.5 442.00506484989137 3563.5588235294117 442.0536403247141 3542.6176470588234 442.1004848135459 3521.676470588235 442.29078701208255 3500.735294117647 442.5177613549289 3479.794117647059 442.75370380577044 3458.8529411764707 443.0039649820596 3437.9117647058824 447.2266118196212 3416.970588235294 447.3367564362345 3396.029411764706 447.478410212555 3375.0882352941176 447.7812344269998 3354.1470588235293 447.9735867247491 3333.205882352941 448.11744019003095 3312.264705882353 447.90712750570685 3291.323529411765 447.65114758474357 3270.3823529411766 447.63691579979616 3249.4411764705883 447.6548818464415 3228.5 447.68514400974766 3228.5 533.8294455926118Z" fill="#005aa6" opacity="0.9" />
		</g>
		<g>
			<path d="M3228.5 447.68514400974766 3249.4411764705883 447.6548818464415 3270.3823529411766 447.63691579979616 3291.323529411765 447.65114758474357 3312.264705882353 447.90712750570685 3333.205882352941 448.11744019003095 3354.1470588235293 447.9735867247491 3375.0882352941176 447.7812344269998 3396.029411764706 447.478410212555 3416.970588235294 447.3367564362345 3437.9117647058824 447.2266118196212 3458.8529411764707 443.0039649820596 3479.794117647059 442.75370380577044 3500.735294117647 442.5177613549289 3521.676470588235 442.29078701208255 3542.6176470588234 442.1004848135459 3563.5588235294117 442.0536403247141 3584.5 442.00506484989137 3605.4411764705883 441.87434560441795 3626.3823529411766 441.7146387359797 3647.323529411765 441.4805241599953 3668.264705882353 441.02669160650083 3689.205882352941 440.79849020545294 3710.1470588235293 440.71015435347675 3731.0882352941176 440.7320769519542 3752.029411764706 445.48995832347725 3772.970588235294 446.00044835106377 3793.9117647058824 445.9850763388172 3814.8529411764707 445.9906298366525 3835.7941176470586 445.99448025532104 3856.735294117647 446.0049434709254 3877.676470588235 440.43245647629897 3898.6176470588234 440.1025942817036 3919.5588235294117 440.12172845279287 3940.5 439.76778884064066 3961.4411764705883 438.939493870515 3982.3823529411766 438.6583696725575 4003.323529411765 438.3811488943986 4024.264705882353 438.3816771158473 4045.2058823529414 437.90716134158686 4066.1470588235293 437.9087165382534 4087.0882352941176 437.9259398239807 4108.029411764706 437.9222955771362 4128.970588235294 436.8606414580909 4149.911764705882 436.7049406114033 4170.85294117647 437.1107633727561 4191.794117647059 436.0183299632218 4212.735294117647 435.7373894918581 4233.676470588235 435.69457104984326 4254.617647058823 435.7778149248337 4275.558823529412 435.3992247727013 4296.5 435.3887976286378 4296.5 420.90079943263 4275.558823529412 420.9199678677945 4254.617647058823 421.17546638387716 4233.676470588235 421.2737767063939 4212.735294117647 421.31851350204755 4191.794117647059 421.5482860386991 4170.85294117647 422.28800089553556 4149.911764705882 422.10195037941145 4128.970588235294 422.2371615504225 4108.029411764706 423.16774393881434 4087.0882352941176 423.167665092679 4066.1470588235293 423.14655140370303 4045.2058823529414 423.1457070138017 4024.264705882353 423.56516266700936 4003.323529411765 423.5655214379781 3982.3823529411766 423.8109003038261 3961.4411764705883 424.0558120196192 3940.5 424.7181344913808 3919.5588235294117 425.0236349944547 3898.6176470588234 425.0035344441698 3877.676470588235 425.28465904377634 3856.735294117647 430.8274530925998 3835.7941176470586 430.81817356835387 3814.8529411764707 430.8139007331268 3793.9117647058824 430.8069864095142 3772.970588235294 430.9020970833825 3752.029411764706 430.23142599790555 3731.0882352941176 425.0017650883845 3710.1470588235293 424.9767523660499 3689.205882352941 425.0257701995382 3668.264705882353 425.20583580775155 3647.323529411765 425.4986687976815 3626.3823529411766 425.6867840212037 3605.4411764705883 425.8119685721377 3584.5 425.9104888133743 3563.5588235294117 425.92679886960804 3542.6176470588234 425.94362826788443 3521.676470588235 426.1140510532148 3500.735294117647 426.3120783472338 3479.794117647059 426.5518003809951 3458.8529411764707 426.81320471249694 3437.9117647058824 431.1686011749783 3416.970588235294 431.3401421096995 3396.029411764706 431.5247092372164 3375.0882352941176 431.81676347027957 3354.1470588235293 431.99440912392726 3333.205882352941 432.1329946808099 3312.264705882353 432.00359297169024 3291.323529411765 431.84731630596053 3270.3823529411766 431.8659139096981 3249.4411764705883 431.93242137634724 3228.5 431.9599475077045 3228.5 447.68514400974766Z" fill="#55c0e9" opacity="0.9" />
		</g>
		<g>
			<path d="M3228.5 431.9599475077045 3249.4411764705883 431.93242137634724 3270.3823529411766 431.8659139096981 3291.323529411765 431.84731630596053 3312.264705882353 432.00359297169024 3333.205882352941 432.1329946808099 3354.1470588235293 431.99440912392726 3375.0882352941176 431.81676347027957 3396.029411764706 431.5247092372164 3416.970588235294 431.3401421096995 3437.9117647058824 431.1686011749783 3458.8529411764707 426.81320471249694 3479.794117647059 426.5518003809951 3500.735294117647 426.3120783472338 3521.676470588235 426.1140510532148 3542.6176470588234 425.94362826788443 3563.5588235294117 425.92679886960804 3584.5 425.9104888133743 3605.4411764705883 425.8119685721377 3626.3823529411766 425.6867840212037 3647.323529411765 425.4986687976815 3668.264705882353 425.20583580775155 3689.205882352941 425.0257701995382 3710.1470588235293 424.9767523660499 3731.0882352941176 425.0017650883845 3752.029411764706 430.23142599790555 3772.970588235294 430.9020970833825 3793.9117647058824 430.8069864095142 3814.8529411764707 430.8139007331268 3835.7941176470586 430.81817356835387 3856.735294117647 430.8274530925998 3877.676470588235 425.28465904377634 3898.6176470588234 425.0035344441698 3919.5588235294117 425.0236349944547 3940.5 424.7181344913808 3961.4411764705883 424.0558120196192 3982.3823529411766 423.8109003038261 4003.323529411765 423.5655214379781 4024.264705882353 423.56516266700936 4045.2058823529414 423.1457070138017 4066.1470588235293 423.14655140370303 4087.0882352941176 423.167665092679 4108.029411764706 423.16774393881434 4128.970588235294 422.2371615504225 4149.911764705882 422.10195037941145 4170.85294117647 422.28800089553556 4191.794117647059 421.5482860386991 4212.735294117647 421.31851350204755 4233.676470588235 421.2737767063939 4254.617647058823 421.17546638387716 4275.558823529412 420.9199678677945 4296.5 420.90079943263 4296.5 409.4552564157993 4275.558823529412 409.442567653401 4254.617647058823 409.50831649918746 4233.676470588235 409.55722453750167 4212.735294117647 409.60566872011515 4191.794117647059 409.72296665824126 4170.85294117647 410.10948315685346 4149.911764705882 410.00098369930805 4128.970588235294 410.02158135972263 4108.029411764706 410.3831921847201 4087.0882352941176 410.3816258742522 4066.1470588235293 410.3693732840644 4045.2058823529414 410.36817686183286 4024.264705882353 410.49749865569987 4003.323529411765 410.49874026393246 3982.3823529411766 410.5976679252191 3961.4411764705883 410.7016436985356 3940.5 410.9789161674267 3919.5588235294117 411.1035757536376 3898.6176470588234 411.0839891917173 3877.676470588235 411.22347657579 3856.735294117647 416.32051328878225 3835.7941176470586 416.3159617889731 3814.8529411764707 416.31921689377526 3793.9117647058824 416.31736632943614 3772.970588235294 416.3210682719641 3752.029411764706 415.85243189703715 3731.0882352941176 410.86025631578275 3710.1470588235293 410.8513168557256 3689.205882352941 410.8010080993925 3668.264705882353 410.8532595598375 3647.323529411765 410.9689719408518 3626.3823529411766 411.04822058755076 3605.4411764705883 411.09796238059005 3584.5 411.13309600464333 3563.5588235294117 411.08525540240214 3542.6176470588234 411.0502804931489 3521.676470588235 411.15507042479464 3500.735294117647 411.2715831935364 3479.794117647059 411.39453051492376 3458.8529411764707 411.52533019336687 3437.9117647058824 415.89173436048446 3416.970588235294 415.95861191477786 3396.029411764706 416.055066900616 3375.0882352941176 416.2345639289736 3354.1470588235293 416.4071449754411 3333.205882352941 416.47817812627426 3312.264705882353 416.34836086389726 3291.323529411765 416.1564242259188 3270.3823529411766 416.1235996870702 3249.4411764705883 416.0562889706207 3228.5 416.0954395000898 3228.5 431.9599475077045Z" fill="#f6a118" opacity="0.9" />
		</g>
		<g>
			<path d="M3228.5 416.0954395000898 3249.4411764705883 416.0562889706207 3270.3823529411766 416.1235996870702 3291.323529411765 416.1564242259188 3312.264705882353 416.34836086389726 3333.205882352941 416.47817812627426 3354.1470588235293 416.4071449754411 3375.0882352941176 416.2345639289736 3396.029411764706 416.055066900616 3416.970588235294 415.95861191477786 3437.9117647058824 415.89173436048446 3458.8529411764707 411.52533019336687 3479.794117647059 411.39453051492376 3500.735294117647 411.2715831935364 3521.676470588235 411.15507042479464 3542.6176470588234 411.0502804931489 3563.5588235294117 411.08525540240214 3584.5 411.13309600464333 3605.4411764705883 411.09796238059005 3626.3823529411766 411.04822058755076 3647.323529411765 410.9689719408518 3668.264705882353 410.8532595598375 3689.205882352941 410.8010080993925 3710.1470588235293 410.8513168557256 3731.0882352941176 410.86025631578275 3752.029411764706 415.85243189703715 3772.970588235294 416.3210682719641 3793.9117647058824 416.31736632943614 3814.8529411764707 416.31921689377526 3835.7941176470586 416.3159617889731 3856.735294117647 416.32051328878225 3877.676470588235 411.22347657579 3898.6176470588234 411.0839891917173 3919.5588235294117 411.1035757536376 3940.5 410.9789161674267 3961.4411764705883 410.7016436985356 3982.3823529411766 410.5976679252191 4003.323529411765 410.49874026393246 4024.264705882353 410.49749865569987 4045.2058823529414 410.36817686183286 4066.1470588235293 410.3693732840644 4087.0882352941176 410.3816258742522 4108.029411764706 410.3831921847201 4128.970588235294 410.02158135972263 4149.911764705882 410.00098369930805 4170.85294117647 410.10948315685346 4191.794117647059 409.72296665824126 4212.735294117647 409.60566872011515 4233.676470588235 409.55722453750167 4254.617647058823 409.50831649918746 4275.558823529412 409.442567653401 4296.5 409.4552564157993 4296.5 402.9599325586472 4275.558823529412 402.96405971887924 4254.617647058823 403.01449278802465 4233.676470588235 402.9591913948528 4212.735294117647 403.01566327837304 4191.794117647059 403.0312697625879 4170.85294117647 403.17379003690496 4149.911764705882 403.039123205232 4128.970588235294 403.0276937585125 4108.029411764706 402.88697047759695 4087.0882352941176 402.8853442705775 4066.1470588235293 402.8987404525652 4045.2058823529414 402.9002345633593 4024.264705882353 402.80439160515203 4003.323529411765 402.8071737793706 3982.3823529411766 402.7885058788081 3961.4411764705883 402.75682438501997 3940.5 402.64364301985916 3919.5588235294117 402.6213127942401 3898.6176470588234 402.6374941256268 3877.676470588235 402.6382934643876 3856.735294117647 407.18303418872716 3835.7941176470586 407.1809148990988 3814.8529411764707 407.1872998554764 3793.9117647058824 407.1917111103271 3772.970588235294 407.1621562125779 3752.029411764706 406.9309868112197 3731.0882352941176 402.3499262788061 3710.1470588235293 402.3497550933614 3689.205882352941 402.31710391583925 3668.264705882353 402.31377839166817 3647.323529411765 402.32705082967294 3626.3823529411766 402.3105155472352 3605.4411764705883 402.3328782432905 3584.5 402.29313148871324 3563.5588235294117 402.27347913416367 3542.6176470588234 402.24951221526595 3521.676470588235 402.264400535425 3500.735294117647 402.2771754039698 3479.794117647059 402.3026796088189 3458.8529411764707 402.31237144781545 3437.9117647058824 406.6903311154683 3416.970588235294 406.6504534424193 3396.029411764706 406.63653513437157 3375.0882352941176 406.73881659701254 3354.1470588235293 406.7913155812626 3333.205882352941 406.7895314471883 3312.264705882353 406.7538978821639 3291.323529411765 406.6419996355151 3270.3823529411766 406.66475151485594 3249.4411764705883 406.64954838762975 3228.5 406.6900606081659 3228.5 416.0954395000898Z" fill="#fdd5a4" opacity="0.9" />
		</g>
		<g>
			<path d="M3228.5 406.6900606081659 3249.4411764705883 406.64954838762975 3270.3823529411766 406.66475151485594 3291.323529411765 406.6419996355151 3312.264705882353 406.7538978821639 3333.205882352941 406.7895314471883 3354.1470588235293 406.7913155812626 3375.0882352941176 406.73881659701254 3396.029411764706 406.63653513437157 3416.970588235294 406.6504534424193 3437.9117647058824 406.6903311154683 3458.8529411764707 402.31237144781545 3479.794117647059 402.3026796088189 3500.735294117647 402.2771754039698 3521.676470588235 402.264400535425 3542.6176470588234 402.24951221526595 3563.5588235294117 402.27347913416367 3584.5 402.29313148871324 3605.4411764705883 402.3328782432905 3626.3823529411766 402.3105155472352 3647.323529411765 402.32705082967294 3668.264705882353 402.31377839166817 3689.205882352941 402.31710391583925 3710.1470588235293 402.3497550933614 3731.0882352941176 402.3499262788061 3752.029411764706 406.9309868112197 3772.970588235294 407.1621562125779 3793.9117647058824 407.1917111103271 3814.8529411764707 407.1872998554764 3835.7941176470586 407.1809148990988 3856.735294117647 407.18303418872716 3877.676470588235 402.6382934643876 3898.6176470588234 402.6374941256268 3919.5588235294117 402.6213127942401 3940.5 402.64364301985916 3961.4411764705883 402.75682438501997 3982.3823529411766 402.7885058788081 4003.323529411765 402.8071737793706 4024.264705882353 402.80439160515203 4045.2058823529414 402.9002345633593 4066.1470588235293 402.8987404525652 4087.0882352941176 402.8853442705775 4108.029411764706 402.88697047759695 4128.970588235294 403.0276937585125 4149.911764705882 403.039123205232 4170.85294117647 403.17379003690496 4191.794117647059 403.0312697625879 4212.735294117647 403.01566327837304 4233.676470588235 402.9591913948528 4254.617647058823 403.01449278802465 4275.558823529412 402.96405971887924 4296.5 402.9599325586472 4296.5 397.9999999999999 4275.558823529412 398 4254.617647058823 398 4233.676470588235 398.00000000000006 4212.735294117647 397.99999999999994 4191.794117647059 398.00000000000006 4170.85294117647 397.99999999999994 4149.911764705882 398 4128.970588235294 398 4108.029411764706 397.9999999999999 4087.0882352941176 398.00000000000006 4066.1470588235293 398.0000000000001 4045.2058823529414 398.00000000000006 4024.264705882353 398 4003.323529411765 397.99999999999994 3982.3823529411766 398 3961.4411764705883 398 3940.5 398 3919.5588235294117 397.99999999999994 3898.6176470588234 398.00000000000006 3877.676470588235 397.99999999999994 3856.735294117647 397.9999999999999 3835.7941176470586 398.0000000000001 3814.8529411764707 397.99999999999994 3793.9117647058824 398 3772.970588235294 398 3752.029411764706 398 3731.0882352941176 398 3710.1470588235293 398 3689.205882352941 398.00000000000006 3668.264705882353 398 3647.323529411765 398.0000000000001 3626.3823529411766 398.0000000000001 3605.4411764705883 398 3584.5 398 3563.5588235294117 398.00000000000006 3542.6176470588234 398.0000000000001 3521.676470588235 398 3500.735294117647 397.99999999999994 3479.794117647059 398 3458.8529411764707 397.99999999999994 3437.9117647058824 398 3416.970588235294 398 3396.029411764706 398 3375.0882352941176 398.0000000000001 3354.1470588235293 398.00000000000006 3333.205882352941 398 3312.264705882353 398 3291.323529411765 398 3270.3823529411766 398 3249.4411764705883 397.99999999999994 3228.5 398 3228.5 406.6900606081659Z" fill="#393d41" opacity="0.9" />
		</g>
		<g>
			<rect x="4372" y="431" width="22.9995" height="23" fill="#e62d39" />
		</g>
		<g>
			<text fill="#595959" font-family="Verdana,Open Sans,DejaVu Sans,sans-serif" font-weight="400" font-size="41" transform="matrix(1 0 0 1 4404.56 454)">Smartphone</text>
		</g>
		<g>
			<rect x="4372" y="508" width="22.9995" height="23" fill="#005aa6" />
		</g>
		<g>
			<text fill="#595959" font-family="Verdana,Open Sans,DejaVu Sans,sans-serif" font-weight="400" font-size="41" transform="matrix(1 0 0 1 4404.56 531)">Desktop</text>
		</g>
		<g>
			<rect x="4372" y="585" width="22.9995" height="23" fill="#55c0e9" />
		</g>
		<g>
			<text fill="#595959" font-family="Verdana,Open Sans,DejaVu Sans,sans-serif" font-weight="400" font-size="41" transform="matrix(1 0 0 1 4404.56 608)">Other</text>
		</g>
		<g>
			<rect x="4372" y="662" width="22.9995" height="23" fill="#f6a118" />
		</g>
		<g>
			<text fill="#595959" font-family="Verdana,Open Sans,DejaVu Sans,sans-serif" font-weight="400" font-size="41" transform="matrix(1 0 0 1 4404.56 685)">Tablet</text>
		</g>
		<g>
			<rect x="4372" y="739" width="22.9995" height="23" fill="#fdd5a4" />
		</g>
		<g>
			<text fill="#595959" font-family="Verdana,Open Sans,DejaVu Sans,sans-serif" font-weight="400" font-size="41" transform="matrix(1 0 0 1 4404.56 762)">Tv</text>
		</g>
		<g>
			<rect x="4372" y="816" width="22.9995" height="23" fill="#393d41" />
		</g>
		<g>
			<text fill="#595959" font-family="Verdana,Open Sans,DejaVu Sans,sans-serif" font-weight="400" font-size="41" transform="matrix(1 0 0 1 4404.56 839)">Unclassified</text>
		</g>
	</g>
</svg>
