<svg width="1763" height="1046"
    xmlns="http://www.w3.org/2000/svg"
	xmlns:xlink="http://www.w3.org/1999/xlink" xml:space="preserve" overflow="hidden">
	<defs>
		<clipPath id="clip0">
			<rect x="2917" y="346" width="1763" height="1046"/>
		</clipPath>
	</defs>
	<g clip-path="url(#clip0)" transform="translate(-2917 -346)">
		<rect x="2918" y="347" width="1760" height="1043" fill="#FFFFFF" />
		<g>
			<path d="
			M3228.5 974.532 4296.5 974.532
			M3228.5 910.53 4296.5 910.53
			M3228.5 846.528 4296.5 846.528
			M3228.5 781.526 4296.5 781.526
			M3228.5 717.524 4296.5 717.524
			M3228.5 653.522 4296.5 653.522
			M3228.5 589.52 4296.5 589.52
			M3228.5 525.517 4296.5 525.517
			M3228.5 461.515 4296.5 461.515
			M3228.5 397.5 4296.5 397.5" stroke="#D9D9D9" stroke-width="3.4375" stroke-linejoin="round" stroke-miterlimit="10" fill="none" />
		</g>
		<g>
			<path d="M 1038.5 4296.5 1038.5" stroke="#D9D9D9" stroke-width="3.4375" stroke-linejoin="round" stroke-miterlimit="10" fill="none" fill-rule="evenodd" />
		</g>
		<g>
			<text fill="#595959" font-family="Verdana,Open Sans,DejaVu Sans,sans-serif" font-weight="400" font-size="41" transform="matrix(6.12323e-17 -1 1 6.12323e-17 3248.269287109375 1203.3022384643555)">21-Apr</text>
		</g>
		<g>
			<text fill="#595959" font-family="Verdana,Open Sans,DejaVu Sans,sans-serif" font-weight="400" font-size="41" transform="matrix(6.12323e-17 -1 1 6.12323e-17 3333.709287109375 1214.75341796875)">19-May</text>
		</g>
		<g>
			<text fill="#595959" font-family="Verdana,Open Sans,DejaVu Sans,sans-serif" font-weight="400" font-size="41" transform="matrix(6.12323e-17 -1 1 6.12323e-17 3418.0782421875 1194.0532150268555)">23-Jun</text>
		</g>
		<g>
			<text fill="#595959" font-family="Verdana,Open Sans,DejaVu Sans,sans-serif" font-weight="400" font-size="41" transform="matrix(6.12323e-17 -1 1 6.12323e-17 3504.248955078125 1179.0385665893555)">21-Jul</text>
		</g>
		<g>
			<text fill="#595959" font-family="Verdana,Open Sans,DejaVu Sans,sans-serif" font-weight="400" font-size="41" transform="matrix(6.12323e-17 -1 1 6.12323e-17 3590.029287109375 1206.90576171875)">18-Aug</text>
		</g>
		<g>
			<text fill="#595959" font-family="Verdana,Open Sans,DejaVu Sans,sans-serif" font-weight="400" font-size="41" transform="matrix(6.12323e-17 -1 1 6.12323e-17 3675.469287109375 1202.66162109375)">15-Sep</text>
		</g>
		<g>
			<text fill="#595959" font-family="Verdana,Open Sans,DejaVu Sans,sans-serif" font-weight="400" font-size="41" transform="matrix(6.12323e-17 -1 1 6.12323e-17 3756.204697265625 1199.3784103393555)">13-Oct</text>
		</g>
		<g>
			<text fill="#595959" font-family="Verdana,Open Sans,DejaVu Sans,sans-serif" font-weight="400" font-size="41" transform="matrix(6.12323e-17 -1 1 6.12323e-17 3841.644697265625 1209.70849609375)">10-Nov</text>
		</g>
		<g>
			<text fill="#595959" font-family="Verdana,Open Sans,DejaVu Sans,sans-serif" font-weight="400" font-size="41" transform="matrix(6.12323e-17 -1 1 6.12323e-17 3927.084697265625 1207.0859375)">08-Dec</text>
		</g>
		<g>
			<text fill="#595959" font-family="Verdana,Open Sans,DejaVu Sans,sans-serif" font-weight="400" font-size="41" transform="matrix(6.12323e-17 -1 1 6.12323e-17 4016.17826171875 1191.6508712768555)">05-Jan</text>
		</g>
		<g>
			<text fill="#595959" font-family="Verdana,Open Sans,DejaVu Sans,sans-serif" font-weight="400" font-size="41" transform="matrix(6.12323e-17 -1 1 6.12323e-17 4098.675390625 1203.0419921875)">02-Feb</text>
		</g>
		<g>
			<text fill="#595959" font-family="Verdana,Open Sans,DejaVu Sans,sans-serif" font-weight="400" font-size="41" transform="matrix(6.12323e-17 -1 1 6.12323e-17 4183.404697265625 1212.0107421875)">02-Mar</text>
		</g>
		<g>
			<text fill="#595959" font-family="Verdana,Open Sans,DejaVu Sans,sans-serif" font-weight="400" font-size="41" transform="matrix(6.12323e-17 -1 1 6.12323e-17 4268.844697265625 1212.1708984375)">30-Mar</text>
		</g>
		<g>
			<text fill="#595959" font-family="Verdana,Open Sans,DejaVu Sans,sans-serif" font-weight="400" font-size="41" transform="matrix(1 0 0 1 3135.4482421875 1050)">0%</text>
		</g>
		<g>
			<text fill="#595959" font-family="Verdana,Open Sans,DejaVu Sans,sans-serif" font-weight="400" font-size="41" transform="matrix(1 0 0 1 3111.96533203125 922)">20%</text>
		</g>
		<g>
			<text fill="#595959" font-family="Verdana,Open Sans,DejaVu Sans,sans-serif" font-weight="400" font-size="41" transform="matrix(1 0 0 1 3110.82421875 794)">40%</text>
		</g>
		<g>
			<text fill="#595959" font-family="Verdana,Open Sans,DejaVu Sans,sans-serif" font-weight="400" font-size="41" transform="matrix(1 0 0 1 3112.3056640625 666)">60%</text>
		</g>
		<g>
			<text fill="#595959" font-family="Verdana,Open Sans,DejaVu Sans,sans-serif" font-weight="400" font-size="41" transform="matrix(1 0 0 1 3112.04541015625 538)">80%</text>
		</g>
		<g>
			<text fill="#595959" font-family="Verdana,Open Sans,DejaVu Sans,sans-serif" font-weight="400" font-size="41" transform="matrix(1 0 0 1 3090.2841796875 410)">100%</text>
		</g>
		<g>
			<text fill="#595959" font-family="Verdana,Open Sans,DejaVu Sans,sans-serif" font-weight="400" font-size="41" transform="matrix(1 0 0 1 3556.97119140625 1321)">Week Commencing</text>
		</g>
		<g>
			<text fill="#595959" font-family="Verdana,Open Sans,DejaVu Sans,sans-serif" font-weight="400" font-size="46" transform="matrix(6.12323e-17 -1 1 6.12323e-17 3019.73 936.7665710449219)">Requests (% of Total)</text>
		</g>
		<rect x="2918.5" y="347.5" width="1760" height="1043" stroke="#D9D9D9" stroke-width="3.4375" stroke-linejoin="round" stroke-miterlimit="10" fill="none" />
		<g>
			<path d="M3228.5 1038 3249.86 1038 3271.22 1038 3292.58 1038 3313.94 1038 3335.3 1038 3356.66 1038 3378.02 1038 3399.38 1038 3420.74 1038 3442.1 1038 3463.46 1038 3484.82 1038 3506.18 1038 3527.54 1038 3548.9 1038 3570.26 1038 3591.62 1038 3612.98 1038 3634.34 1038 3655.7 1038 3677.06 1038 3698.42 1038 3719.7799999999997 1038 3741.14 1038 3762.5 1038 3783.86 1038 3805.2200000000003 1038 3826.58 1038 3847.94 1038 3869.3 1038 3890.66 1038 3912.02 1038 3933.38 1038 3954.74 1038 3976.1 1038 3997.46 1038 4018.8199999999997 1038 4040.18 1038 4061.54 1038 4082.9 1038 4104.26 1038 4125.62 1038 4146.98 1038 4168.34 1038 4189.7 1038 4211.0599999999995 1038 4232.42 1038 4253.78 1038 4275.139999999999 1038 4296.5 1038 4296.5 513.7040174538956 4275.139999999999 511.73186653387097 4253.78 511.24288256352213 4232.42 510.6038163301091 4211.0599999999995 510.132951236195 4189.7 509.98967442059063 4168.34 509.86699372684916 4146.98 508.8578828355521 4125.62 508.84856730181616 4104.26 509.7800526172698 4082.9 510.0683304392354 4061.54 509.78758316632 4040.18 510.8817631047316 4018.8199999999997 510.8708866486968 3997.46 510.91527035566935 3976.1 511.17358261897925 3954.74 511.20549455604134 3933.38 512.098115952951 3912.02 512.1329612369273 3890.66 512.9189284987364 3869.3 515.8919455572111 3847.94 514.7969648318594 3826.58 515.125626744456 3805.2200000000003 517.3539587629043 3783.86 517.3728872760798 3762.5 517.3795154992906 3741.14 517.3746698568546 3719.7799999999997 518.2845849198919 3698.42 518.2786881359634 3677.06 518.6674644160128 3655.7 519.0934355637311 3634.34 520.9052457535156 3612.98 521.6318852573548 3591.62 521.6184156458323 3570.26 522.2681085366032 3548.9 527.8351358448251 3527.54 527.8182060044346 3506.18 527.8171189568005 3484.82 527.8195281696414 3463.46 527.7185125063723 3442.1 528.1749639028288 3420.74 526.0738068609967 3399.38 526.0690930129186 3378.02 526.4517905907722 3356.66 526.966587562726 3335.3 527.7344479046612 3313.94 528.0922596265774 3292.58 528.3637575953018 3271.22 528.4473950245434 3249.86 528.3817437118579 3228.5 528.3209049784523 3228.5 1038Z" fill="#e62d39" opacity="0.9" />
		</g>
		<g>
			<path d="M3228.5 528.3209049784523 3249.86 528.3817437118579 3271.22 528.4473950245434 3292.58 528.3637575953018 3313.94 528.0922596265774 3335.3 527.7344479046612 3356.66 526.966587562726 3378.02 526.4517905907722 3399.38 526.0690930129186 3420.74 526.0738068609967 3442.1 528.1749639028288 3463.46 527.7185125063723 3484.82 527.8195281696414 3506.18 527.8171189568005 3527.54 527.8182060044346 3548.9 527.8351358448251 3570.26 522.2681085366032 3591.62 521.6184156458323 3612.98 521.6318852573548 3634.34 520.9052457535156 3655.7 519.0934355637311 3677.06 518.6674644160128 3698.42 518.2786881359634 3719.7799999999997 518.2845849198919 3741.14 517.3746698568546 3762.5 517.3795154992906 3783.86 517.3728872760798 3805.2200000000003 517.3539587629043 3826.58 515.125626744456 3847.94 514.7969648318594 3869.3 515.8919455572111 3890.66 512.9189284987364 3912.02 512.1329612369273 3933.38 512.098115952951 3954.74 511.20549455604134 3976.1 511.17358261897925 3997.46 510.91527035566935 4018.8199999999997 510.8708866486968 4040.18 510.8817631047316 4061.54 509.78758316632 4082.9 510.0683304392354 4104.26 509.7800526172698 4125.62 508.84856730181616 4146.98 508.8578828355521 4168.34 509.86699372684916 4189.7 509.98967442059063 4211.0599999999995 510.132951236195 4232.42 510.6038163301091 4253.78 511.24288256352213 4275.139999999999 511.73186653387097 4296.5 513.7040174538956 4296.5 434.3112809177816 4275.139999999999 433.7867264580397 4253.78 433.5622430486118 4232.42 433.4002138201585 4211.0599999999995 433.30898701618065 4189.7 433.292322077633 4168.34 433.3119961556043 4146.98 433.4349407881655 4125.62 433.4317855995608 4104.26 433.4209825154003 4082.9 433.6740677450532 4061.54 433.75103255338803 4040.18 435.36079839131713 4018.8199999999997 435.3425795567811 3997.46 435.3887976286378 3976.1 435.3992247727013 3954.74 435.7778149248337 3933.38 435.69457104984326 3912.02 435.7373894918581 3890.66 436.0183299632218 3869.3 437.1107633727561 3847.94 436.7049406114033 3826.58 436.8606414580909 3805.2200000000003 437.9222955771362 3783.86 437.9259398239807 3762.5 437.9087165382534 3741.14 437.90716134158686 3719.7799999999997 438.3816771158473 3698.42 438.3811488943986 3677.06 438.6583696725575 3655.7 438.939493870515 3634.34 439.76778884064066 3612.98 440.12172845279287 3591.62 440.1025942817036 3570.26 440.43245647629897 3548.9 446.0049434709254 3527.54 445.99448025532104 3506.18 445.9906298366525 3484.82 445.9850763388172 3463.46 446.00044835106377 3442.1 445.48995832347725 3420.74 440.7320769519542 3399.38 440.71015435347675 3378.02 440.79849020545294 3356.66 441.02669160650083 3335.3 441.4805241599953 3313.94 441.7146387359797 3292.58 441.87434560441795 3271.22 442.00506484989137 3249.86 442.0536403247141 3228.5 442.1004848135459 3228.5 528.3209049784523Z" fill="#005aa6" opacity="0.9" />
		</g>
		<g>
			<path d="M3228.5 442.1004848135459 3249.86 442.0536403247141 3271.22 442.00506484989137 3292.58 441.87434560441795 3313.94 441.7146387359797 3335.3 441.4805241599953 3356.66 441.02669160650083 3378.02 440.79849020545294 3399.38 440.71015435347675 3420.74 440.7320769519542 3442.1 445.48995832347725 3463.46 446.00044835106377 3484.82 445.9850763388172 3506.18 445.9906298366525 3527.54 445.99448025532104 3548.9 446.0049434709254 3570.26 440.43245647629897 3591.62 440.1025942817036 3612.98 440.12172845279287 3634.34 439.76778884064066 3655.7 438.939493870515 3677.06 438.6583696725575 3698.42 438.3811488943986 3719.7799999999997 438.3816771158473 3741.14 437.90716134158686 3762.5 437.9087165382534 3783.86 437.9259398239807 3805.2200000000003 437.9222955771362 3826.58 436.8606414580909 3847.94 436.7049406114033 3869.3 437.1107633727561 3890.66 436.0183299632218 3912.02 435.7373894918581 3933.38 435.69457104984326 3954.74 435.7778149248337 3976.1 435.3992247727013 3997.46 435.3887976286378 4018.8199999999997 435.3425795567811 4040.18 435.36079839131713 4061.54 433.75103255338803 4082.9 433.6740677450532 4104.26 433.4209825154003 4125.62 433.4317855995608 4146.98 433.4349407881655 4168.34 433.3119961556043 4189.7 433.292322077633 4211.0599999999995 433.30898701618065 4232.42 433.4002138201585 4253.78 433.5622430486118 4275.139999999999 433.7867264580397 4296.5 434.3112809177816 4296.5 419.38277881126857 4275.139999999999 419.06411966387026 4253.78 418.9097932778808 4232.42 418.82069167553175 4211.0599999999995 418.78153120455926 4189.7 418.761446442615 4168.34 418.77023699293045 4146.98 418.9275739202609 4125.62 418.92551623383343 4104.26 418.96035428104784 4082.9 419.15736729425555 4061.54 419.17384173683575 4040.18 420.87551367904683 4018.8199999999997 420.8556038374519 3997.46 420.90079943263 3976.1 420.9199678677945 3954.74 421.17546638387716 3933.38 421.2737767063939 3912.02 421.31851350204755 3890.66 421.5482860386991 3869.3 422.28800089553556 3847.94 422.10195037941145 3826.58 422.2371615504225 3805.2200000000003 423.16774393881434 3783.86 423.167665092679 3762.5 423.14655140370303 3741.14 423.1457070138017 3719.7799999999997 423.56516266700936 3698.42 423.5655214379781 3677.06 423.8109003038261 3655.7 424.0558120196192 3634.34 424.7181344913808 3612.98 425.0236349944547 3591.62 425.0035344441698 3570.26 425.28465904377634 3548.9 430.8274530925998 3527.54 430.81817356835387 3506.18 430.8139007331268 3484.82 430.8069864095142 3463.46 430.9020970833825 3442.1 430.23142599790555 3420.74 425.0017650883845 3399.38 424.9767523660499 3378.02 425.0257701995382 3356.66 425.20583580775155 3335.3 425.4986687976815 3313.94 425.6867840212037 3292.58 425.8119685721377 3271.22 425.9104888133743 3249.86 425.92679886960804 3228.5 425.94362826788443 3228.5 442.1004848135459Z" fill="#55c0e9" opacity="0.9" />
		</g>
		<g>
			<path d="M3228.5 425.94362826788443 3249.86 425.92679886960804 3271.22 425.9104888133743 3292.58 425.8119685721377 3313.94 425.6867840212037 3335.3 425.4986687976815 3356.66 425.20583580775155 3378.02 425.0257701995382 3399.38 424.9767523660499 3420.74 425.0017650883845 3442.1 430.23142599790555 3463.46 430.9020970833825 3484.82 430.8069864095142 3506.18 430.8139007331268 3527.54 430.81817356835387 3548.9 430.8274530925998 3570.26 425.28465904377634 3591.62 425.0035344441698 3612.98 425.0236349944547 3634.34 424.7181344913808 3655.7 424.0558120196192 3677.06 423.8109003038261 3698.42 423.5655214379781 3719.7799999999997 423.56516266700936 3741.14 423.1457070138017 3762.5 423.14655140370303 3783.86 423.167665092679 3805.2200000000003 423.16774393881434 3826.58 422.2371615504225 3847.94 422.10195037941145 3869.3 422.28800089553556 3890.66 421.5482860386991 3912.02 421.31851350204755 3933.38 421.2737767063939 3954.74 421.17546638387716 3976.1 420.9199678677945 3997.46 420.90079943263 4018.8199999999997 420.8556038374519 4040.18 420.87551367904683 4061.54 419.17384173683575 4082.9 419.15736729425555 4104.26 418.96035428104784 4125.62 418.92551623383343 4146.98 418.9275739202609 4168.34 418.77023699293045 4189.7 418.761446442615 4211.0599999999995 418.78153120455926 4232.42 418.82069167553175 4253.78 418.9097932778808 4275.139999999999 419.06411966387026 4296.5 419.38277881126857 4296.5 408.0817858854454 4275.139999999999 407.87702549305874 4253.78 407.75714820436707 4232.42 407.68691925855956 4211.0599999999995 407.6472692730448 4189.7 407.61824955966534 4168.34 407.61722466292395 4146.98 407.63262030600544 4125.62 407.63004242027574 4104.26 407.6085547272844 4082.9 407.70041641084794 4061.54 407.73331438233555 4040.18 409.46082329286793 4018.8199999999997 409.44561346924576 3997.46 409.4552564157993 3976.1 409.442567653401 3954.74 409.50831649918746 3933.38 409.55722453750167 3912.02 409.60566872011515 3890.66 409.72296665824126 3869.3 410.10948315685346 3847.94 410.00098369930805 3826.58 410.02158135972263 3805.2200000000003 410.3831921847201 3783.86 410.3816258742522 3762.5 410.3693732840644 3741.14 410.36817686183286 3719.7799999999997 410.49749865569987 3698.42 410.49874026393246 3677.06 410.5976679252191 3655.7 410.7016436985356 3634.34 410.9789161674267 3612.98 411.1035757536376 3591.62 411.0839891917173 3570.26 411.22347657579 3548.9 416.32051328878225 3527.54 416.3159617889731 3506.18 416.31921689377526 3484.82 416.31736632943614 3463.46 416.3210682719641 3442.1 415.85243189703715 3420.74 410.86025631578275 3399.38 410.8513168557256 3378.02 410.8010080993925 3356.66 410.8532595598375 3335.3 410.9689719408518 3313.94 411.04822058755076 3292.58 411.09796238059005 3271.22 411.13309600464333 3249.86 411.08525540240214 3228.5 411.0502804931489 3228.5 425.94362826788443Z" fill="#f6a118" opacity="0.9" />
		</g>
		<g>
			<path d="M3228.5 411.0502804931489 3249.86 411.08525540240214 3271.22 411.13309600464333 3292.58 411.09796238059005 3313.94 411.04822058755076 3335.3 410.9689719408518 3356.66 410.8532595598375 3378.02 410.8010080993925 3399.38 410.8513168557256 3420.74 410.86025631578275 3442.1 415.85243189703715 3463.46 416.3210682719641 3484.82 416.31736632943614 3506.18 416.31921689377526 3527.54 416.3159617889731 3548.9 416.32051328878225 3570.26 411.22347657579 3591.62 411.0839891917173 3612.98 411.1035757536376 3634.34 410.9789161674267 3655.7 410.7016436985356 3677.06 410.5976679252191 3698.42 410.49874026393246 3719.7799999999997 410.49749865569987 3741.14 410.36817686183286 3762.5 410.3693732840644 3783.86 410.3816258742522 3805.2200000000003 410.3831921847201 3826.58 410.02158135972263 3847.94 410.00098369930805 3869.3 410.10948315685346 3890.66 409.72296665824126 3912.02 409.60566872011515 3933.38 409.55722453750167 3954.74 409.50831649918746 3976.1 409.442567653401 3997.46 409.4552564157993 4018.8199999999997 409.44561346924576 4040.18 409.46082329286793 4061.54 407.73331438233555 4082.9 407.70041641084794 4104.26 407.6085547272844 4125.62 407.63004242027574 4146.98 407.63262030600544 4168.34 407.61722466292395 4189.7 407.61824955966534 4211.0599999999995 407.6472692730448 4232.42 407.68691925855956 4253.78 407.75714820436707 4275.139999999999 407.87702549305874 4296.5 408.0817858854454 4296.5 401.5224410608846 4275.139999999999 401.3910702758112 4253.78 401.2959815163896 4232.42 401.2284149226283 4211.0599999999995 401.2178574312743 4189.7 401.2271449370171 4168.34 401.22998698493177 4146.98 401.24723467475025 4125.62 401.24799680108157 4104.26 401.25127865193434 4082.9 401.2738697689626 4061.54 401.29212425152997 4040.18 402.9378506891094 4018.8199999999997 402.9552515332576 3997.46 402.9599325586472 3976.1 402.96405971887924 3954.74 403.01449278802465 3933.38 402.9591913948528 3912.02 403.01566327837304 3890.66 403.0312697625879 3869.3 403.17379003690496 3847.94 403.039123205232 3826.58 403.0276937585125 3805.2200000000003 402.88697047759695 3783.86 402.8853442705775 3762.5 402.8987404525652 3741.14 402.9002345633593 3719.7799999999997 402.80439160515203 3698.42 402.8071737793706 3677.06 402.7885058788081 3655.7 402.75682438501997 3634.34 402.64364301985916 3612.98 402.6213127942401 3591.62 402.6374941256268 3570.26 402.6382934643876 3548.9 407.18303418872716 3527.54 407.1809148990988 3506.18 407.1872998554764 3484.82 407.1917111103271 3463.46 407.1621562125779 3442.1 406.9309868112197 3420.74 402.3499262788061 3399.38 402.3497550933614 3378.02 402.31710391583925 3356.66 402.31377839166817 3335.3 402.32705082967294 3313.94 402.3105155472352 3292.58 402.3328782432905 3271.22 402.29313148871324 3249.86 402.27347913416367 3228.5 402.24951221526595 3228.5 411.0502804931489Z" fill="#fdd5a4" opacity="0.9" />
		</g>
		<g>
			<path d="M3228.5 402.24951221526595 3249.86 402.27347913416367 3271.22 402.29313148871324 3292.58 402.3328782432905 3313.94 402.3105155472352 3335.3 402.32705082967294 3356.66 402.31377839166817 3378.02 402.31710391583925 3399.38 402.3497550933614 3420.74 402.3499262788061 3442.1 406.9309868112197 3463.46 407.1621562125779 3484.82 407.1917111103271 3506.18 407.1872998554764 3527.54 407.1809148990988 3548.9 407.18303418872716 3570.26 402.6382934643876 3591.62 402.6374941256268 3612.98 402.6213127942401 3634.34 402.64364301985916 3655.7 402.75682438501997 3677.06 402.7885058788081 3698.42 402.8071737793706 3719.7799999999997 402.80439160515203 3741.14 402.9002345633593 3762.5 402.8987404525652 3783.86 402.8853442705775 3805.2200000000003 402.88697047759695 3826.58 403.0276937585125 3847.94 403.039123205232 3869.3 403.17379003690496 3890.66 403.0312697625879 3912.02 403.01566327837304 3933.38 402.9591913948528 3954.74 403.01449278802465 3976.1 402.96405971887924 3997.46 402.9599325586472 4018.8199999999997 402.9552515332576 4040.18 402.9378506891094 4061.54 401.29212425152997 4082.9 401.2738697689626 4104.26 401.25127865193434 4125.62 401.24799680108157 4146.98 401.24723467475025 4168.34 401.22998698493177 4189.7 401.2271449370171 4211.0599999999995 401.2178574312743 4232.42 401.2284149226283 4253.78 401.2959815163896 4275.139999999999 401.3910702758112 4296.5 401.5224410608846 4296.5 398.00000000000006 4275.139999999999 398 4253.78 398.00000000000006 4232.42 397.9999999999999 4211.0599999999995 398.0000000000001 4189.7 398.0000000000001 4168.34 398 4146.98 398 4125.62 398.00000000000006 4104.26 398 4082.9 397.99999999999994 4061.54 397.99999999999994 4040.18 398.00000000000006 4018.8199999999997 397.99999999999994 3997.46 397.9999999999999 3976.1 398 3954.74 398 3933.38 398.00000000000006 3912.02 397.99999999999994 3890.66 398.00000000000006 3869.3 397.99999999999994 3847.94 398 3826.58 398 3805.2200000000003 397.9999999999999 3783.86 398.00000000000006 3762.5 398.0000000000001 3741.14 398.00000000000006 3719.7799999999997 398 3698.42 397.99999999999994 3677.06 398 3655.7 398 3634.34 398 3612.98 397.99999999999994 3591.62 398.00000000000006 3570.26 397.99999999999994 3548.9 397.9999999999999 3527.54 398.0000000000001 3506.18 397.99999999999994 3484.82 398 3463.46 398 3442.1 398 3420.74 398 3399.38 398 3378.02 398.00000000000006 3356.66 398 3335.3 398.0000000000001 3313.94 398.0000000000001 3292.58 398 3271.22 398 3249.86 398.00000000000006 3228.5 398.0000000000001 3228.5 402.24951221526595Z" fill="#393d41" opacity="0.9" />
		</g>
		<g>
			<rect x="4372" y="431" width="22.9995" height="23" fill="#e62d39" />
		</g>
		<g>
			<text fill="#595959" font-family="Verdana,Open Sans,DejaVu Sans,sans-serif" font-weight="400" font-size="41" transform="matrix(1 0 0 1 4404.56 454)">Smartphone</text>
		</g>
		<g>
			<rect x="4372" y="508" width="22.9995" height="23" fill="#005aa6" />
		</g>
		<g>
			<text fill="#595959" font-family="Verdana,Open Sans,DejaVu Sans,sans-serif" font-weight="400" font-size="41" transform="matrix(1 0 0 1 4404.56 531)">Desktop</text>
		</g>
		<g>
			<rect x="4372" y="585" width="22.9995" height="23" fill="#55c0e9" />
		</g>
		<g>
			<text fill="#595959" font-family="Verdana,Open Sans,DejaVu Sans,sans-serif" font-weight="400" font-size="41" transform="matrix(1 0 0 1 4404.56 608)">Other</text>
		</g>
		<g>
			<rect x="4372" y="662" width="22.9995" height="23" fill="#f6a118" />
		</g>
		<g>
			<text fill="#595959" font-family="Verdana,Open Sans,DejaVu Sans,sans-serif" font-weight="400" font-size="41" transform="matrix(1 0 0 1 4404.56 685)">Tablet</text>
		</g>
		<g>
			<rect x="4372" y="739" width="22.9995" height="23" fill="#fdd5a4" />
		</g>
		<g>
			<text fill="#595959" font-family="Verdana,Open Sans,DejaVu Sans,sans-serif" font-weight="400" font-size="41" transform="matrix(1 0 0 1 4404.56 762)">Tv</text>
		</g>
		<g>
			<rect x="4372" y="816" width="22.9995" height="23" fill="#393d41" />
		</g>
		<g>
			<text fill="#595959" font-family="Verdana,Open Sans,DejaVu Sans,sans-serif" font-weight="400" font-size="41" transform="matrix(1 0 0 1 4404.56 839)">Unclassified</text>
		</g>
	</g>
</svg>
