<svg width="1763" height="1046"
    xmlns="http://www.w3.org/2000/svg"
	xmlns:xlink="http://www.w3.org/1999/xlink" xml:space="preserve" overflow="hidden">
	<defs>
		<clipPath id="clip0">
			<rect x="2917" y="346" width="1763" height="1046"/>
		</clipPath>
	</defs>
	<g clip-path="url(#clip0)" transform="translate(-2917 -346)">
		<rect x="2918" y="347" width="1760" height="1043" fill="#FFFFFF" />
		<g>
			<path d="
			M3228.5 974.532 4296.5 974.532
			M3228.5 910.53 4296.5 910.53
			M3228.5 846.528 4296.5 846.528
			M3228.5 781.526 4296.5 781.526
			M3228.5 717.524 4296.5 717.524
			M3228.5 653.522 4296.5 653.522
			M3228.5 589.52 4296.5 589.52
			M3228.5 525.517 4296.5 525.517
			M3228.5 461.515 4296.5 461.515
			M3228.5 397.5 4296.5 397.5" stroke="#D9D9D9" stroke-width="3.4375" stroke-linejoin="round" stroke-miterlimit="10" fill="none" />
		</g>
		<g>
			<path d="M 1038.5 4296.5 1038.5" stroke="#D9D9D9" stroke-width="3.4375" stroke-linejoin="round" stroke-miterlimit="10" fill="none" fill-rule="evenodd" />
		</g>
		<g>
			<text fill="#595959" font-family="Verdana,Open Sans,DejaVu Sans,sans-serif" font-weight="400" font-size="41" transform="matrix(6.12323e-17 -1 1 6.12323e-17 3243.544677734375 1212.05078125)">24-Mar</text>
		</g>
		<g>
			<text fill="#595959" font-family="Verdana,Open Sans,DejaVu Sans,sans-serif" font-weight="400" font-size="41" transform="matrix(6.12323e-17 -1 1 6.12323e-17 3333.709287109375 1203.3022384643555)">21-Apr</text>
		</g>
		<g>
			<text fill="#595959" font-family="Verdana,Open Sans,DejaVu Sans,sans-serif" font-weight="400" font-size="41" transform="matrix(6.12323e-17 -1 1 6.12323e-17 3419.149287109375 1214.75341796875)">19-May</text>
		</g>
		<g>
			<text fill="#595959" font-family="Verdana,Open Sans,DejaVu Sans,sans-serif" font-weight="400" font-size="41" transform="matrix(6.12323e-17 -1 1 6.12323e-17 3503.5182421875 1194.0532150268555)">23-Jun</text>
		</g>
		<g>
			<text fill="#595959" font-family="Verdana,Open Sans,DejaVu Sans,sans-serif" font-weight="400" font-size="41" transform="matrix(6.12323e-17 -1 1 6.12323e-17 3589.688955078125 1179.0385665893555)">21-Jul</text>
		</g>
		<g>
			<text fill="#595959" font-family="Verdana,Open Sans,DejaVu Sans,sans-serif" font-weight="400" font-size="41" transform="matrix(6.12323e-17 -1 1 6.12323e-17 3675.469287109375 1206.90576171875)">18-Aug</text>
		</g>
		<g>
			<text fill="#595959" font-family="Verdana,Open Sans,DejaVu Sans,sans-serif" font-weight="400" font-size="41" transform="matrix(6.12323e-17 -1 1 6.12323e-17 3760.909287109375 1202.66162109375)">15-Sep</text>
		</g>
		<g>
			<text fill="#595959" font-family="Verdana,Open Sans,DejaVu Sans,sans-serif" font-weight="400" font-size="41" transform="matrix(6.12323e-17 -1 1 6.12323e-17 3841.644697265625 1199.3784103393555)">13-Oct</text>
		</g>
		<g>
			<text fill="#595959" font-family="Verdana,Open Sans,DejaVu Sans,sans-serif" font-weight="400" font-size="41" transform="matrix(6.12323e-17 -1 1 6.12323e-17 3927.084697265625 1209.70849609375)">10-Nov</text>
		</g>
		<g>
			<text fill="#595959" font-family="Verdana,Open Sans,DejaVu Sans,sans-serif" font-weight="400" font-size="41" transform="matrix(6.12323e-17 -1 1 6.12323e-17 4012.524697265625 1207.0859375)">08-Dec</text>
		</g>
		<g>
			<text fill="#595959" font-family="Verdana,Open Sans,DejaVu Sans,sans-serif" font-weight="400" font-size="41" transform="matrix(6.12323e-17 -1 1 6.12323e-17 4101.61826171875 1191.6508712768555)">05-Jan</text>
		</g>
		<g>
			<text fill="#595959" font-family="Verdana,Open Sans,DejaVu Sans,sans-serif" font-weight="400" font-size="41" transform="matrix(6.12323e-17 -1 1 6.12323e-17 4184.115390625 1203.0419921875)">02-Feb</text>
		</g>
		<g>
			<text fill="#595959" font-family="Verdana,Open Sans,DejaVu Sans,sans-serif" font-weight="400" font-size="41" transform="matrix(6.12323e-17 -1 1 6.12323e-17 4268.844697265625 1212.0107421875)">02-Mar</text>
		</g>
		<g>
			<text fill="#595959" font-family="Verdana,Open Sans,DejaVu Sans,sans-serif" font-weight="400" font-size="41" transform="matrix(1 0 0 1 3169.14111328125 1050)">0</text>
		</g>
		<g>
			<text fill="#595959" font-family="Verdana,Open Sans,DejaVu Sans,sans-serif" font-weight="400" font-size="41" transform="matrix(1 0 0 1 3067.1215896606445 922)">18,688</text>
		</g>
		<g>
			<text fill="#595959" font-family="Verdana,Open Sans,DejaVu Sans,sans-serif" font-weight="400" font-size="41" transform="matrix(1 0 0 1 3065.1997146606445 794)">37,377</text>
		</g>
		<g>
			<text fill="#595959" font-family="Verdana,Open Sans,DejaVu Sans,sans-serif" font-weight="400" font-size="41" transform="matrix(1 0 0 1 3066.2607498168945 666)">56,065</text>
		</g>
		<g>
			<text fill="#595959" font-family="Verdana,Open Sans,DejaVu Sans,sans-serif" font-weight="400" font-size="41" transform="matrix(1 0 0 1 3063.9384841918945 538)">74,754</text>
		</g>
		<g>
			<text fill="#595959" font-family="Verdana,Open Sans,DejaVu Sans,sans-serif" font-weight="400" font-size="41" transform="matrix(1 0 0 1 3065.5600662231445 410)">93,442</text>
		</g>
		<g>
			<text fill="#595959" font-family="Verdana,Open Sans,DejaVu Sans,sans-serif" font-weight="400" font-size="41" transform="matrix(1 0 0 1 3556.97119140625 1321)">Week Commencing</text>
		</g>
		<g>
			<text fill="#595959" font-family="Verdana,Open Sans,DejaVu Sans,sans-serif" font-weight="400" font-size="46" transform="matrix(6.12323e-17 -1 1 6.12323e-17 3019.73 1028.5532531738281)">Number of Hardware Profiles</text>
		</g>
		<rect x="2918.5" y="347.5" width="1760" height="1043" stroke="#D9D9D9" stroke-width="3.4375" stroke-linejoin="round" stroke-miterlimit="10" fill="none" />
		<g>
			<path d="M3228.5 1038 3249.86 1038 3271.22 1038 3292.58 1038 3313.94 1038 3335.3 1038 3356.66 1038 3378.02 1038 3399.38 1038 3420.74 1038 3442.1 1038 3463.46 1038 3484.82 1038 3506.18 1038 3527.54 1038 3548.9 1038 3570.26 1038 3591.62 1038 3612.98 1038 3634.34 1038 3655.7 1038 3677.06 1038 3698.42 1038 3719.7799999999997 1038 3741.14 1038 3762.5 1038 3783.86 1038 3805.2200000000003 1038 3826.58 1038 3847.94 1038 3869.3 1038 3890.66 1038 3912.02 1038 3933.38 1038 3954.74 1038 3976.1 1038 3997.46 1038 4018.8199999999997 1038 4040.18 1038 4061.54 1038 4082.9 1038 4104.26 1038 4125.62 1038 4146.98 1038 4168.34 1038 4189.7 1038 4211.0599999999995 1038 4232.42 1038 4253.78 1038 4275.139999999999 1038 4296.5 1038 4296.5 692.973138417414 4275.139999999999 693.2471051561397 4253.78 693.459429378652 4232.42 693.7128486119732 4211.0599999999995 693.9868153506989 4189.7 694.137497056998 4168.34 694.3909162903192 4146.98 694.6169388497677 4125.62 695.0073414524518 4104.26 695.2676098542411 4082.9 695.5758224353074 4061.54 695.6785599623295 4040.18 695.801844994756 4018.8199999999997 696.0210183857366 3997.46 696.2812867875259 3976.1 696.4867618415701 3954.74 696.6922368956143 3933.38 696.8908627811904 3912.02 697.0689411613621 3890.66 697.2470195415337 3869.3 697.507287943323 3847.94 697.8018021874532 3826.58 698.0346739153699 3805.2200000000003 698.2880931486911 3783.86 698.62370240363 3762.5 699.0278033432503 3741.14 699.3839601035936 3719.7799999999997 699.6990218531281 3698.42 700.0072344341945 3677.06 700.2058603197705 3655.7 700.5277712377731 3634.34 700.7948888080307 3612.98 701.1099505575651 3591.62 701.5003531602491 3570.26 701.7880182359111 3548.9 702.0551358061684 3527.54 702.3838958926392 3506.18 702.6989576421738 3484.82 702.9866227178356 3463.46 703.349628646647 3442.1 703.7948245970763 3420.74 704.3359089060593 3399.38 704.6989148348708 3378.02 705.0208257528734 3356.66 705.3975300186212 3335.3 705.7605359474326 3313.94 706.0618993600308 3292.58 706.411206951906 3271.22 706.753665375313 3249.86 707.0481796194431 3228.5 707.3700905374457 3228.5 1038Z" fill="#e62d39" opacity="0.9" />
		</g>
		<g>
			<path d="M3228.5 707.3700905374457 3249.86 707.0481796194431 3271.22 706.753665375313 3292.58 706.411206951906 3313.94 706.0618993600308 3335.3 705.7605359474326 3356.66 705.3975300186212 3378.02 705.0208257528734 3399.38 704.6989148348708 3420.74 704.3359089060593 3442.1 703.7948245970763 3463.46 703.349628646647 3484.82 702.9866227178356 3506.18 702.6989576421738 3527.54 702.3838958926392 3548.9 702.0551358061684 3570.26 701.7880182359111 3591.62 701.5003531602491 3612.98 701.1099505575651 3634.34 700.7948888080307 3655.7 700.5277712377731 3677.06 700.2058603197705 3698.42 700.0072344341945 3719.7799999999997 699.6990218531281 3741.14 699.3839601035936 3762.5 699.0278033432503 3783.86 698.62370240363 3805.2200000000003 698.2880931486911 3826.58 698.0346739153699 3847.94 697.8018021874532 3869.3 697.507287943323 3890.66 697.2470195415337 3912.02 697.0689411613621 3933.38 696.8908627811904 3954.74 696.6922368956143 3976.1 696.4867618415701 3997.46 696.2812867875259 4018.8199999999997 696.0210183857366 4040.18 695.801844994756 4061.54 695.6785599623295 4082.9 695.5758224353074 4104.26 695.2676098542411 4125.62 695.0073414524518 4146.98 694.6169388497677 4168.34 694.3909162903192 4189.7 694.137497056998 4211.0599999999995 693.9868153506989 4232.42 693.7128486119732 4253.78 693.459429378652 4275.139999999999 693.2471051561397 4296.5 692.973138417414 4296.5 528.4561118126752 4275.139999999999 528.7643243937416 4253.78 529.0382911324672 4232.42 529.3465037135335 4211.0599999999995 529.6684146315362 4189.7 529.8601913486441 4168.34 530.1752530981786 4146.98 530.4766165107767 4125.62 531.0108516512917 4104.26 531.3396117377624 4082.9 531.7916568566596 4061.54 531.9697352368313 4040.18 532.1135677746622 4018.8199999999997 532.4080820187924 3997.46 532.7779371160719 3976.1 533.0587530232657 3954.74 533.3464180989276 3933.38 533.6135356691851 3912.02 533.9012007448471 3890.66 534.2025641574452 3869.3 534.6135142655336 3847.94 535.0450118790266 3826.58 535.455961987115 3805.2200000000003 535.8600629267353 3783.86 536.3669013933776 3762.5 536.8942873654245 3741.14 537.3531816527899 3719.7799999999997 537.798377603219 3698.42 538.2093277113077 3677.06 538.4353502707561 3655.7 538.818903704972 3634.34 539.2367029815287 3612.98 539.7298431112347 3591.62 540.2914749256223 3570.26 540.7092742021789 3548.9 541.2161126688212 3527.54 541.6818561246548 3506.18 542.1749962543611 3484.82 542.6681363840671 3463.46 543.202371524582 3442.1 543.784550844374 3420.74 544.6543952398279 3399.38 545.147535369534 3378.02 545.5721838145587 3356.66 546.024228933456 3335.3 546.5036707262259 3313.94 546.8940733289098 3292.58 547.4283084694249 3271.22 547.9214485991309 3249.86 548.3803428864965 3228.5 548.8803321846707 3228.5 707.3700905374457Z" fill="#f6a118" opacity="0.9" />
		</g>
		<g>
			<path d="M3228.5 548.8803321846707 3249.86 548.3803428864965 3271.22 547.9214485991309 3292.58 547.4283084694249 3313.94 546.8940733289098 3335.3 546.5036707262259 3356.66 546.024228933456 3378.02 545.5721838145587 3399.38 545.147535369534 3420.74 544.6543952398279 3442.1 543.784550844374 3463.46 543.202371524582 3484.82 542.6681363840671 3506.18 542.1749962543611 3527.54 541.6818561246548 3548.9 541.2161126688212 3570.26 540.7092742021789 3591.62 540.2914749256223 3612.98 539.7298431112347 3634.34 539.2367029815287 3655.7 538.818903704972 3677.06 538.4353502707561 3698.42 538.2093277113077 3719.7799999999997 537.798377603219 3741.14 537.3531816527899 3762.5 536.8942873654245 3783.86 536.3669013933776 3805.2200000000003 535.8600629267353 3826.58 535.455961987115 3847.94 535.0450118790266 3869.3 534.6135142655336 3890.66 534.2025641574452 3912.02 533.9012007448471 3933.38 533.6135356691851 3954.74 533.3464180989276 3976.1 533.0587530232657 3997.46 532.7779371160719 4018.8199999999997 532.4080820187924 4040.18 532.1135677746622 4061.54 531.9697352368313 4082.9 531.7916568566596 4104.26 531.3396117377624 4125.62 531.0108516512917 4146.98 530.4766165107767 4168.34 530.1752530981786 4189.7 529.8601913486441 4211.0599999999995 529.6684146315362 4232.42 529.3465037135335 4253.78 529.0382911324672 4275.139999999999 528.7643243937416 4296.5 528.4561118126752 4296.5 453.8549688576871 4275.139999999999 454.1631814387535 4253.78 454.43714817747906 4232.42 454.75905909548163 4211.0599999999995 455.0946683504206 4189.7 455.3001434044648 4168.34 455.6152051539993 4146.98 455.9371160720018 4125.62 456.5055970548575 4104.26 456.8412063097964 4082.9 457.3069497656299 4061.54 457.4918773142697 4040.18 457.6357098521006 4018.8199999999997 457.9713191070396 3997.46 458.38911838359616 3976.1 458.72472763853506 3954.74 459.0329402196014 3933.38 459.30690695832703 3912.02 459.6288178763297 3890.66 459.9781254682048 3869.3 460.4918131033153 3847.94 460.97125489608527 3826.58 461.4301491834507 3805.2200000000003 461.88219430234795 3783.86 462.50546863294863 3762.5 463.0739496158044 3741.14 463.56024057704235 3719.7799999999997 464.0465315382803 3698.42 464.47117998330526 3677.06 464.72459921662625 3655.7 465.16294599858725 3634.34 465.66293529676165 3612.98 466.1834721003402 3591.62 466.76565142013226 3570.26 467.1971490336251 3548.9 467.73823334260817 3527.54 468.2450718092506 3506.18 468.7519102758931 3484.82 469.2998437533443 3463.46 469.86832473619984 3442.1 470.48474989833267 3420.74 471.45048265234044 3399.38 471.99841612979174 3378.02 472.4778579225615 3356.66 472.95045054686324 3335.3 473.49838402431453 3313.94 473.916183300871 3292.58 474.47096594679056 3271.22 475.0257485927099 3249.86 475.5051903854798 3228.5 476.01202885212217 3228.5 548.8803321846707Z" fill="#55c0e9" opacity="0.9" />
		</g>
		<g>
			<path d="M3228.5 476.01202885212217 3249.86 475.5051903854798 3271.22 475.0257485927099 3292.58 474.47096594679056 3313.94 473.916183300871 3335.3 473.49838402431453 3356.66 472.95045054686324 3378.02 472.4778579225615 3399.38 471.99841612979174 3420.74 471.45048265234044 3442.1 470.48474989833267 3463.46 469.86832473619984 3484.82 469.2998437533443 3506.18 468.7519102758931 3527.54 468.2450718092506 3548.9 467.73823334260817 3570.26 467.1971490336251 3591.62 466.76565142013226 3612.98 466.1834721003402 3634.34 465.66293529676165 3655.7 465.16294599858725 3677.06 464.72459921662625 3698.42 464.47117998330526 3719.7799999999997 464.0465315382803 3741.14 463.56024057704235 3762.5 463.0739496158044 3783.86 462.50546863294863 3805.2200000000003 461.88219430234795 3826.58 461.4301491834507 3847.94 460.97125489608527 3869.3 460.4918131033153 3890.66 459.9781254682048 3912.02 459.6288178763297 3933.38 459.30690695832703 3954.74 459.0329402196014 3976.1 458.72472763853506 3997.46 458.38911838359616 4018.8199999999997 457.9713191070396 4040.18 457.6357098521006 4061.54 457.4918773142697 4082.9 457.3069497656299 4104.26 456.8412063097964 4125.62 456.5055970548575 4146.98 455.9371160720018 4168.34 455.6152051539993 4189.7 455.3001434044648 4211.0599999999995 455.0946683504206 4232.42 454.75905909548163 4253.78 454.43714817747906 4275.139999999999 454.1631814387535 4296.5 453.8549688576871 4296.5 399.2876436720104 4275.139999999999 399.7602362963122 4253.78 400.15063889899614 4232.42 400.78076239806506 4211.0599999999995 401.45883007641106 4189.7 401.945121037649 4168.34 402.6094903790587 4146.98 403.068384666424 4125.62 403.8080948609832 4104.26 404.2738383168168 4082.9 404.8628668050768 4061.54 405.1094368699299 4040.18 405.3149119239741 4018.8199999999997 405.76010787440333 3997.46 406.28064467798197 3976.1 406.671047280666 3954.74 407.11624323109515 3933.38 407.51349500224734 3912.02 407.9518417842084 3890.66 408.45183108238257 3869.3 409.10250208685585 3847.94 409.6024913850303 3826.58 410.25316238950364 3805.2200000000003 410.86273838316816 3783.86 411.54080606151393 3762.5 412.2599687506688 3741.14 412.78050555424744 3719.7799999999997 413.4311765587208 3698.42 414.0339033839174 3677.06 414.38321097579234 3655.7 414.99278696945686 3634.34 415.6982513216755 3612.98 416.3831681684894 3591.62 417.02699000449473 3570.26 417.622867661223 3548.9 418.25299116029186 3527.54 418.92420967016966 3506.18 419.6022773485157 3484.82 420.26664668992527 3463.46 420.97211104214364 3442.1 421.67072622589416 3420.74 422.88987821322314 3399.38 423.5747950600372 3378.02 424.2665610753194 3356.66 424.8418912266432 3335.3 425.513109736521 3313.94 426.0130990346952 3292.58 426.70486504997757 3271.22 427.43772607606854 3249.86 428.10209541747827 3228.5 428.7527664219516 3228.5 476.01202885212217Z" fill="#fdd5a4" opacity="0.9" />
		</g>
		<g>
			<path d="M3228.5 428.7527664219516 3249.86 428.10209541747827 3271.22 427.43772607606854 3292.58 426.70486504997757 3313.94 426.0130990346952 3335.3 425.513109736521 3356.66 424.8418912266432 3378.02 424.2665610753194 3399.38 423.5747950600372 3420.74 422.88987821322314 3442.1 421.67072622589416 3463.46 420.97211104214364 3484.82 420.26664668992527 3506.18 419.6022773485157 3527.54 418.92420967016966 3548.9 418.25299116029186 3570.26 417.622867661223 3591.62 417.02699000449473 3612.98 416.3831681684894 3634.34 415.6982513216755 3655.7 414.99278696945686 3677.06 414.38321097579234 3698.42 414.0339033839174 3719.7799999999997 413.4311765587208 3741.14 412.78050555424744 3762.5 412.2599687506688 3783.86 411.54080606151393 3805.2200000000003 410.86273838316816 3826.58 410.25316238950364 3847.94 409.6024913850303 3869.3 409.10250208685585 3890.66 408.45183108238257 3912.02 407.9518417842084 3933.38 407.51349500224734 3954.74 407.11624323109515 3976.1 406.671047280666 3997.46 406.28064467798197 4018.8199999999997 405.76010787440333 4040.18 405.3149119239741 4061.54 405.1094368699299 4082.9 404.8628668050768 4104.26 404.2738383168168 4125.62 403.8080948609832 4146.98 403.068384666424 4168.34 402.6094903790587 4189.7 401.945121037649 4211.0599999999995 401.45883007641106 4232.42 400.78076239806506 4253.78 400.15063889899614 4275.139999999999 399.7602362963122 4296.5 399.2876436720104 4296.5 397.99999999999994 4275.139999999999 398.47259262430174 4253.78 398.8629952269857 4232.42 399.4931187260546 4211.0599999999995 400.1711864044006 4189.7 400.65747736563856 4168.34 401.3218467070482 4146.98 401.7807409944135 4125.62 402.52045118897274 4104.26 402.98619464480635 4082.9 403.57522313306634 4061.54 403.8217931979194 4040.18 404.0272682519636 4018.8199999999997 404.47246420239287 3997.46 404.9930010059715 3976.1 405.3971019455918 3954.74 405.84229789602097 3933.38 406.23954966717315 3912.02 406.6778964491342 3890.66 407.1778857473084 3869.3 407.82855675178166 3847.94 408.3285460499561 3826.58 408.97921705442945 3805.2200000000003 409.588793048094 3783.86 410.26686072643975 3762.5 410.9860234155946 3741.14 411.50656021917325 3719.7799999999997 412.1572312236466 3698.42 412.7599580488432 3677.06 413.10926564071815 3655.7 413.71884163438267 3634.34 414.4243059866013 3612.98 415.10922283341523 3591.62 415.75304466942055 3570.26 416.3489223261488 3548.9 416.97904582521767 3527.54 417.65026433509547 3506.18 418.3283320134415 3484.82 418.9927013548511 3463.46 419.69816570706945 3442.1 420.39678089081997 3420.74 421.61593287814895 3399.38 422.30084972496303 3378.02 422.9926157402452 3356.66 423.567945891569 3335.3 424.2391644014468 3313.94 424.739153699621 3292.58 425.4309197149034 3271.22 426.16378074099435 3249.86 426.8281500824041 3228.5 427.4788210868774 3228.5 428.7527664219516Z" fill="#005aa6" opacity="0.9" />
		</g>
		<g>
			<rect x="4372" y="431" width="22.9995" height="23" fill="#e62d39" />
		</g>
		<g>
			<text fill="#595959" font-family="Verdana,Open Sans,DejaVu Sans,sans-serif" font-weight="400" font-size="41" transform="matrix(1 0 0 1 4404.56 454)">Smartphone</text>
		</g>
		<g>
			<rect x="4372" y="508" width="22.9995" height="23" fill="#f6a118" />
		</g>
		<g>
			<text fill="#595959" font-family="Verdana,Open Sans,DejaVu Sans,sans-serif" font-weight="400" font-size="41" transform="matrix(1 0 0 1 4404.56 531)">Tablet</text>
		</g>
		<g>
			<rect x="4372" y="585" width="22.9995" height="23" fill="#55c0e9" />
		</g>
		<g>
			<text fill="#595959" font-family="Verdana,Open Sans,DejaVu Sans,sans-serif" font-weight="400" font-size="41" transform="matrix(1 0 0 1 4404.56 608)">Other</text>
		</g>
		<g>
			<rect x="4372" y="662" width="22.9995" height="23" fill="#fdd5a4" />
		</g>
		<g>
			<text fill="#595959" font-family="Verdana,Open Sans,DejaVu Sans,sans-serif" font-weight="400" font-size="41" transform="matrix(1 0 0 1 4404.56 685)">Tv</text>
		</g>
		<g>
			<rect x="4372" y="739" width="22.9995" height="23" fill="#005aa6" />
		</g>
		<g>
			<text fill="#595959" font-family="Verdana,Open Sans,DejaVu Sans,sans-serif" font-weight="400" font-size="41" transform="matrix(1 0 0 1 4404.56 762)">Desktop</text>
		</g>
	</g>
</svg>
