<svg width="1763" height="1046"
    xmlns="http://www.w3.org/2000/svg"
	xmlns:xlink="http://www.w3.org/1999/xlink" xml:space="preserve" overflow="hidden">
	<defs>
		<clipPath id="clip0">
			<rect x="2917" y="346" width="1763" height="1046"/>
		</clipPath>
	</defs>
	<g clip-path="url(#clip0)" transform="translate(-2917 -346)">
		<rect x="2918" y="347" width="1760" height="1043" fill="#FFFFFF" />
		<g>
			<path d="
			M3228.5 974.532 4296.5 974.532
			M3228.5 910.53 4296.5 910.53
			M3228.5 846.528 4296.5 846.528
			M3228.5 781.526 4296.5 781.526
			M3228.5 717.524 4296.5 717.524
			M3228.5 653.522 4296.5 653.522
			M3228.5 589.52 4296.5 589.52
			M3228.5 525.517 4296.5 525.517
			M3228.5 461.515 4296.5 461.515
			M3228.5 397.5 4296.5 397.5" stroke="#D9D9D9" stroke-width="3.4375" stroke-linejoin="round" stroke-miterlimit="10" fill="none" />
		</g>
		<g>
			<path d="M 1038.5 4296.5 1038.5" stroke="#D9D9D9" stroke-width="3.4375" stroke-linejoin="round" stroke-miterlimit="10" fill="none" fill-rule="evenodd" />
		</g>
		<g>
			<text fill="#595959" font-family="Verdana,sans-serif" font-weight="400" font-size="41" transform="matrix(6.12323e-17 -1 1 6.12323e-17 3244.5 1227)">06-Nov</text>
		</g>
		<g>
			<text fill="#595959" font-family="Verdana,sans-serif" font-weight="400" font-size="41" transform="matrix(6.12323e-17 -1 1 6.12323e-17 3333.5 1226)">20-Nov</text>
		</g>
		<g>
			<text fill="#595959" font-family="Verdana,sans-serif" font-weight="400" font-size="41" transform="matrix(6.12323e-17 -1 1 6.12323e-17 3422.5 1225)">04-Dec</text>
		</g>
		<g>
			<text fill="#595959" font-family="Verdana,sans-serif" font-weight="400" font-size="41" transform="matrix(6.12323e-17 -1 1 6.12323e-17 3511.5 1222)">18-Dec</text>
		</g>
		<g>
			<text fill="#595959" font-family="Verdana,sans-serif" font-weight="400" font-size="41" transform="matrix(6.12323e-17 -1 1 6.12323e-17 3600.5 1212)">01-Jan</text>
		</g>
		<g>
			<text fill="#595959" font-family="Verdana,sans-serif" font-weight="400" font-size="41" transform="matrix(6.12323e-17 -1 1 6.12323e-17 3689 1209)">15-Jan</text>
		</g>
		<g>
			<text fill="#595959" font-family="Verdana,sans-serif" font-weight="400" font-size="41" transform="matrix(6.12323e-17 -1 1 6.12323e-17 3778.5 1211)">29-Jan</text>
		</g>
		<g>
			<text fill="#595959" font-family="Verdana,sans-serif" font-weight="400" font-size="41" transform="matrix(6.12323e-17 -1 1 6.12323e-17 3867.5 1216)">12-Feb</text>
		</g>
		<g>
			<text fill="#595959" font-family="Verdana,sans-serif" font-weight="400" font-size="41" transform="matrix(6.12323e-17 -1 1 6.12323e-17 3956.5 1218)">26-Feb</text>
		</g>
		<g>
			<text fill="#595959" font-family="Verdana,sans-serif" font-weight="400" font-size="41" transform="matrix(6.12323e-17 -1 1 6.12323e-17 4045 1222)">11-Mar</text>
		</g>
		<g>
			<text fill="#595959" font-family="Verdana,sans-serif" font-weight="400" font-size="41" transform="matrix(6.12323e-17 -1 1 6.12323e-17 4134.5 1225)">25-Mar</text>
		</g>
		<g>
			<text fill="#595959" font-family="Verdana,sans-serif" font-weight="400" font-size="41" transform="matrix(6.12323e-17 -1 1 6.12323e-17 4227 1218)">08-Apr</text>
		</g>
		<g>
			<text fill="#595959" font-family="Verdana,sans-serif" font-weight="400" font-size="41" transform="matrix(6.12323e-17 -1 1 6.12323e-17 4316 1218)">22-Apr</text>
		</g>
		<g>
			<text fill="#595959" font-family="Verdana,sans-serif" font-weight="400" font-size="41" transform="matrix(1 0 0 1 3167.5 1050)">0</text>
		</g>
		<g>
			<text fill="#595959" font-family="Verdana,sans-serif" font-weight="400" font-size="41" transform="matrix(1 0 0 1 3049.5 922)">16,927</text>
		</g>
		<g>
			<text fill="#595959" font-family="Verdana,sans-serif" font-weight="400" font-size="41" transform="matrix(1 0 0 1 3047.5 794)">33,853</text>
		</g>
		<g>
			<text fill="#595959" font-family="Verdana,sans-serif" font-weight="400" font-size="41" transform="matrix(1 0 0 1 3047.5 666)">50,780</text>
		</g>
		<g>
			<text fill="#595959" font-family="Verdana,sans-serif" font-weight="400" font-size="41" transform="matrix(1 0 0 1 3046.5 538)">67,706</text>
		</g>
		<g>
			<text fill="#595959" font-family="Verdana,sans-serif" font-weight="400" font-size="41" transform="matrix(1 0 0 1 3046.5 410)">84,633</text>
		</g>
		<g>
			<text fill="#595959" font-family="Verdana,sans-serif" font-weight="400" font-size="41" transform="matrix(1 0 0 1 3541.5 1321)">Week Commencing</text>
		</g>
		<g>
			<text fill="#595959" font-family="Verdana,sans-serif" font-weight="400" font-size="46" transform="matrix(6.12323e-17 -1 1 6.12323e-17 3019.73 1052.75)">Number of Hardware Profiles</text>
		</g>
		<rect x="2918.5" y="347.5" width="1760" height="1043" stroke="#D9D9D9" stroke-width="3.4375" stroke-linejoin="round" stroke-miterlimit="10" fill="none" />
		<g>
			<path d="M3228.5 1038 3273 1038 3317.5 1038 3362 1038 3406.5 1038 3451 1038 3495.5 1038 3540 1038 3584.5 1038 3629 1038 3673.5 1038 3718 1038 3762.5 1038 3807 1038 3851.5 1038 3896 1038 3940.5 1038 3985 1038 4029.5 1038 4074 1038 4118.5 1038 4163 1038 4207.5 1038 4252 1038 4296.5 1038 4296.5 687.4908605390333 4252 687.9521463259013 4207.5 688.3302494298914 4163 688.6629801614027 4118.5 688.8974040858766 4074 689.1772003828294 4029.5 689.4267484314629 3985 689.6157999834579 3940.5 689.7821653492136 3896 689.9031583424905 3851.5 690.0997719565654 3807 690.3039476327201 3762.5 690.8030437299872 3718 691.1660227098178 3673.5 691.6197464346059 3629 692.0885942835537 3584.5 692.4364491392246 3540 692.3759526425863 3495.5 692.6708730636985 3451 693.0111658572897 3406.5 693.2834000921625 3362 693.6463790719931 3317.5 693.956423617265 3273 694.2664681625371 3228.5 694.7580021977243 3228.5 1038Z" fill="#e62d39" opacity="0.9" />
		</g>
		<g>
			<path d="M3228.5 694.7580021977243 3273 694.2664681625371 3317.5 693.956423617265 3362 693.6463790719931 3406.5 693.2834000921625 3451 693.0111658572897 3495.5 692.6708730636985 3540 692.3759526425863 3584.5 692.4364491392246 3629 692.0885942835537 3673.5 691.6197464346059 3718 691.1660227098178 3762.5 690.8030437299872 3807 690.3039476327201 3851.5 690.0997719565654 3896 689.9031583424905 3940.5 689.7821653492136 3985 689.6157999834579 4029.5 689.4267484314629 4074 689.1772003828294 4118.5 688.8974040858766 4163 688.6629801614027 4207.5 688.3302494298914 4252 687.9521463259013 4296.5 687.4908605390333 4296.5 518.0477355168788 4252 518.728321104061 4207.5 519.2954757600463 4163 519.7945718573133 4118.5 520.112178464665 4074 520.4751574444956 4029.5 520.845698486406 3985 521.0952465350395 3940.5 521.3750428319922 3896 521.5565323219075 3851.5 521.8514527430199 3807 522.1312490399725 3762.5 522.7362140063569 3718 523.2277480415441 3673.5 523.8100268216889 3629 524.422553850153 3584.5 524.9065258232604 3540 524.853591388702 3495.5 525.2241324306121 3451 525.7156664657994 3406.5 526.267696997625 3362 526.8650999019294 3317.5 527.5154372407925 3273 528.1052780830173 3228.5 528.7858636701995 3228.5 694.7580021977243Z" fill="#f6a118" opacity="0.9" />
		</g>
		<g>
			<path d="M3228.5 528.7858636701995 3273 528.1052780830173 3317.5 527.5154372407925 3362 526.8650999019294 3406.5 526.267696997625 3451 525.7156664657994 3495.5 525.2241324306121 3540 524.853591388702 3584.5 524.9065258232604 3629 524.422553850153 3673.5 523.8100268216889 3718 523.2277480415441 3762.5 522.7362140063569 3807 522.1312490399725 3851.5 521.8514527430199 3896 521.5565323219075 3940.5 521.3750428319922 3985 521.0952465350395 4029.5 520.845698486406 4074 520.4751574444956 4118.5 520.112178464665 4163 519.7945718573133 4207.5 519.2954757600463 4252 518.728321104061 4296.5 518.0477355168788 4296.5 439.4703484456418 4252 440.18874434322305 4207.5 440.77102312336797 4163 441.31549159311373 4118.5 441.64822232462507 4074 442.0414495527749 4029.5 442.4271147188449 3985 442.68422482955816 3940.5 442.98670731275035 3896 443.1833209268252 3851.5 443.4933654720972 3807 443.80341001736906 3762.5 444.4159370458333 3718 444.9301572672599 3673.5 445.52756017156423 3629 446.2005836966668 3584.5 446.71480391809337 3540 446.71480391809354 3495.5 447.0929070220835 3451 447.6751858022284 3406.5 448.26502664445303 3362 448.86999161083725 3317.5 449.5581392600994 3273 450.20847659896265 3228.5 450.9419966207035 3228.5 528.7858636701995Z" fill="#55c0e9" opacity="0.9" />
		</g>
		<g>
			<path d="M3228.5 450.9419966207035 3273 450.20847659896265 3317.5 449.5581392600994 3362 448.86999161083725 3406.5 448.26502664445303 3451 447.6751858022284 3495.5 447.0929070220835 3540 446.71480391809354 3584.5 446.71480391809337 3629 446.2005836966668 3673.5 445.52756017156423 3718 444.9301572672599 3762.5 444.4159370458333 3807 443.80341001736906 3851.5 443.4933654720972 3896 443.1833209268252 3940.5 442.98670731275035 3985 442.68422482955816 4029.5 442.4271147188449 4074 442.0414495527749 4118.5 441.64822232462507 4163 441.31549159311373 4207.5 440.77102312336797 4252 440.18874434322305 4296.5 439.4703484456418 4296.5 399.39141942268384 4252 400.1627497548237 4207.5 400.8660215282455 4163 401.4483003083903 4118.5 401.8112792882208 4074 402.2574409509293 4029.5 402.6657923032387 3985 403.0514574693086 3940.5 403.5354294424161 3896 404.18576678127914 3851.5 404.97978329965855 3807 405.41838290028704 3762.5 406.0762823012301 3718 406.7266196400932 3673.5 407.36183285479655 3629 408.13316318693654 3584.5 408.7532522774804 3540 408.75325227748056 3495.5 409.22210012642813 3451 409.91024777569027 3406.5 410.6059574870322 3362 411.35460163293266 3317.5 412.17886639963126 3273 412.90482435929255 3228.5 413.75933737431023 3228.5 450.9419966207035Z" fill="#fdd5a4" opacity="0.9" />
		</g>
		<g>
			<path d="M3228.5 413.75933737431023 3273 412.90482435929255 3317.5 412.17886639963126 3362 411.35460163293266 3406.5 410.6059574870322 3451 409.91024777569027 3495.5 409.22210012642813 3540 408.75325227748056 3584.5 408.7532522774804 3629 408.13316318693654 3673.5 407.36183285479655 3718 406.7266196400932 3762.5 406.0762823012301 3807 405.41838290028704 3851.5 404.97978329965855 3896 404.18576678127914 3940.5 403.5354294424161 3985 403.0514574693086 4029.5 402.6657923032387 4074 402.2574409509293 4118.5 401.8112792882208 4163 401.4483003083903 4207.5 400.8660215282455 4252 400.1627497548237 4296.5 399.39141942268384 4296.5 398 4252 398.7713303321399 4207.5 399.48972622972127 4163 400.0720050098661 4118.5 400.4349839896966 4074 400.8811456524051 4029.5 401.28949700471446 3985 401.6751621707844 3940.5 402.1591341438919 3896 402.80947148275493 3851.5 403.60348800113434 3807 404.04208760176283 3762.5 404.6999870027059 3718 405.350324341569 3673.5 405.98553755627233 3629 406.75686788841233 3584.5 407.3769569789562 3540 407.37695697895634 3495.5 407.8760530762231 3451 408.5717627875651 3406.5 409.267472498907 3362 410.0161166448075 3317.5 410.8403814115061 3273 411.5663393711674 3228.5 412.42085238618506 3228.5 413.75933737431023Z" fill="#005aa6" opacity="0.9" />
		</g>
		<g>
			<rect x="4372" y="431" width="22.9995" height="23" fill="#e62d39" />
		</g>
		<g>
			<text fill="#595959" font-family="Verdana,sans-serif" font-weight="400" font-size="41" transform="matrix(1 0 0 1 4404.56 454)">Smartphone</text>
		</g>
		<g>
			<rect x="4372" y="508" width="22.9995" height="23" fill="#f6a118" />
		</g>
		<g>
			<text fill="#595959" font-family="Verdana,sans-serif" font-weight="400" font-size="41" transform="matrix(1 0 0 1 4404.56 531)">Tablet</text>
		</g>
		<g>
			<rect x="4372" y="585" width="22.9995" height="23" fill="#55c0e9" />
		</g>
		<g>
			<text fill="#595959" font-family="Verdana,sans-serif" font-weight="400" font-size="41" transform="matrix(1 0 0 1 4404.56 608)">Other</text>
		</g>
		<g>
			<rect x="4372" y="662" width="22.9995" height="23" fill="#fdd5a4" />
		</g>
		<g>
			<text fill="#595959" font-family="Verdana,sans-serif" font-weight="400" font-size="41" transform="matrix(1 0 0 1 4404.56 685)">Tv</text>
		</g>
		<g>
			<rect x="4372" y="739" width="22.9995" height="23" fill="#005aa6" />
		</g>
		<g>
			<text fill="#595959" font-family="Verdana,sans-serif" font-weight="400" font-size="41" transform="matrix(1 0 0 1 4404.56 762)">Desktop</text>
		</g>
	</g>
</svg>
