<svg width="1763" height="1046"
    xmlns="http://www.w3.org/2000/svg"
	xmlns:xlink="http://www.w3.org/1999/xlink" xml:space="preserve" overflow="hidden">
	<defs>
		<clipPath id="clip0">
			<rect x="2917" y="346" width="1763" height="1046"/>
		</clipPath>
	</defs>
	<g clip-path="url(#clip0)" transform="translate(-2917 -346)">
		<rect x="2918" y="347" width="1760" height="1043" fill="#FFFFFF" />
		<g>
			<path d="
			M3228.5 974.532 4296.5 974.532
			M3228.5 910.53 4296.5 910.53
			M3228.5 846.528 4296.5 846.528
			M3228.5 781.526 4296.5 781.526
			M3228.5 717.524 4296.5 717.524
			M3228.5 653.522 4296.5 653.522
			M3228.5 589.52 4296.5 589.52
			M3228.5 525.517 4296.5 525.517
			M3228.5 461.515 4296.5 461.515
			M3228.5 397.5 4296.5 397.5" stroke="#D9D9D9" stroke-width="3.4375" stroke-linejoin="round" stroke-miterlimit="10" fill="none" />
		</g>
		<g>
			<path d="M 1038.5 4296.5 1038.5" stroke="#D9D9D9" stroke-width="3.4375" stroke-linejoin="round" stroke-miterlimit="10" fill="none" fill-rule="evenodd" />
		</g>
		<g>
			<text fill="#595959" font-family="Verdana,Open Sans,DejaVu Sans,sans-serif" font-weight="400" font-size="41" transform="matrix(6.12323e-17 -1 1 6.12323e-17 3243.544677734375 1212.05078125)">24-Mar</text>
		</g>
		<g>
			<text fill="#595959" font-family="Verdana,Open Sans,DejaVu Sans,sans-serif" font-weight="400" font-size="41" transform="matrix(6.12323e-17 -1 1 6.12323e-17 3333.709287109375 1203.3022384643555)">21-Apr</text>
		</g>
		<g>
			<text fill="#595959" font-family="Verdana,Open Sans,DejaVu Sans,sans-serif" font-weight="400" font-size="41" transform="matrix(6.12323e-17 -1 1 6.12323e-17 3419.149287109375 1214.75341796875)">19-May</text>
		</g>
		<g>
			<text fill="#595959" font-family="Verdana,Open Sans,DejaVu Sans,sans-serif" font-weight="400" font-size="41" transform="matrix(6.12323e-17 -1 1 6.12323e-17 3503.5182421875 1194.0532150268555)">23-Jun</text>
		</g>
		<g>
			<text fill="#595959" font-family="Verdana,Open Sans,DejaVu Sans,sans-serif" font-weight="400" font-size="41" transform="matrix(6.12323e-17 -1 1 6.12323e-17 3589.688955078125 1179.0385665893555)">21-Jul</text>
		</g>
		<g>
			<text fill="#595959" font-family="Verdana,Open Sans,DejaVu Sans,sans-serif" font-weight="400" font-size="41" transform="matrix(6.12323e-17 -1 1 6.12323e-17 3675.469287109375 1206.90576171875)">18-Aug</text>
		</g>
		<g>
			<text fill="#595959" font-family="Verdana,Open Sans,DejaVu Sans,sans-serif" font-weight="400" font-size="41" transform="matrix(6.12323e-17 -1 1 6.12323e-17 3760.909287109375 1202.66162109375)">15-Sep</text>
		</g>
		<g>
			<text fill="#595959" font-family="Verdana,Open Sans,DejaVu Sans,sans-serif" font-weight="400" font-size="41" transform="matrix(6.12323e-17 -1 1 6.12323e-17 3841.644697265625 1199.3784103393555)">13-Oct</text>
		</g>
		<g>
			<text fill="#595959" font-family="Verdana,Open Sans,DejaVu Sans,sans-serif" font-weight="400" font-size="41" transform="matrix(6.12323e-17 -1 1 6.12323e-17 3927.084697265625 1209.70849609375)">10-Nov</text>
		</g>
		<g>
			<text fill="#595959" font-family="Verdana,Open Sans,DejaVu Sans,sans-serif" font-weight="400" font-size="41" transform="matrix(6.12323e-17 -1 1 6.12323e-17 4012.524697265625 1207.0859375)">08-Dec</text>
		</g>
		<g>
			<text fill="#595959" font-family="Verdana,Open Sans,DejaVu Sans,sans-serif" font-weight="400" font-size="41" transform="matrix(6.12323e-17 -1 1 6.12323e-17 4101.61826171875 1191.6508712768555)">05-Jan</text>
		</g>
		<g>
			<text fill="#595959" font-family="Verdana,Open Sans,DejaVu Sans,sans-serif" font-weight="400" font-size="41" transform="matrix(6.12323e-17 -1 1 6.12323e-17 4184.115390625 1203.0419921875)">02-Feb</text>
		</g>
		<g>
			<text fill="#595959" font-family="Verdana,Open Sans,DejaVu Sans,sans-serif" font-weight="400" font-size="41" transform="matrix(6.12323e-17 -1 1 6.12323e-17 4268.844697265625 1212.0107421875)">02-Mar</text>
		</g>
		<g>
			<text fill="#595959" font-family="Verdana,Open Sans,DejaVu Sans,sans-serif" font-weight="400" font-size="41" transform="matrix(1 0 0 1 3135.4482421875 1050)">0%</text>
		</g>
		<g>
			<text fill="#595959" font-family="Verdana,Open Sans,DejaVu Sans,sans-serif" font-weight="400" font-size="41" transform="matrix(1 0 0 1 3111.96533203125 922)">20%</text>
		</g>
		<g>
			<text fill="#595959" font-family="Verdana,Open Sans,DejaVu Sans,sans-serif" font-weight="400" font-size="41" transform="matrix(1 0 0 1 3110.82421875 794)">40%</text>
		</g>
		<g>
			<text fill="#595959" font-family="Verdana,Open Sans,DejaVu Sans,sans-serif" font-weight="400" font-size="41" transform="matrix(1 0 0 1 3112.3056640625 666)">60%</text>
		</g>
		<g>
			<text fill="#595959" font-family="Verdana,Open Sans,DejaVu Sans,sans-serif" font-weight="400" font-size="41" transform="matrix(1 0 0 1 3112.04541015625 538)">80%</text>
		</g>
		<g>
			<text fill="#595959" font-family="Verdana,Open Sans,DejaVu Sans,sans-serif" font-weight="400" font-size="41" transform="matrix(1 0 0 1 3090.2841796875 410)">100%</text>
		</g>
		<g>
			<text fill="#595959" font-family="Verdana,Open Sans,DejaVu Sans,sans-serif" font-weight="400" font-size="41" transform="matrix(1 0 0 1 3556.97119140625 1321)">Week Commencing</text>
		</g>
		<g>
			<text fill="#595959" font-family="Verdana,Open Sans,DejaVu Sans,sans-serif" font-weight="400" font-size="46" transform="matrix(6.12323e-17 -1 1 6.12323e-17 3019.73 936.7665710449219)">Requests (% of Total)</text>
		</g>
		<rect x="2918.5" y="347.5" width="1760" height="1043" stroke="#D9D9D9" stroke-width="3.4375" stroke-linejoin="round" stroke-miterlimit="10" fill="none" />
		<g>
			<path d="M3228.5 1038 3249.86 1038 3271.22 1038 3292.58 1038 3313.94 1038 3335.3 1038 3356.66 1038 3378.02 1038 3399.38 1038 3420.74 1038 3442.1 1038 3463.46 1038 3484.82 1038 3506.18 1038 3527.54 1038 3548.9 1038 3570.26 1038 3591.62 1038 3612.98 1038 3634.34 1038 3655.7 1038 3677.06 1038 3698.42 1038 3719.7799999999997 1038 3741.14 1038 3762.5 1038 3783.86 1038 3805.2200000000003 1038 3826.58 1038 3847.94 1038 3869.3 1038 3890.66 1038 3912.02 1038 3933.38 1038 3954.74 1038 3976.1 1038 3997.46 1038 4018.8199999999997 1038 4040.18 1038 4061.54 1038 4082.9 1038 4104.26 1038 4125.62 1038 4146.98 1038 4168.34 1038 4189.7 1038 4211.0599999999995 1038 4232.42 1038 4253.78 1038 4275.139999999999 1038 4296.5 1038 4296.5 510.132951236195 4275.139999999999 509.98967442059063 4253.78 509.86699372684916 4232.42 508.8578828355521 4211.0599999999995 508.84856730181616 4189.7 509.7800526172698 4168.34 510.0683304392354 4146.98 509.78758316632 4125.62 510.8817631047316 4104.26 510.8708866486968 4082.9 510.91527035566935 4061.54 511.17358261897925 4040.18 511.20549455604134 4018.8199999999997 512.098115952951 3997.46 512.1329612369273 3976.1 512.9189284987364 3954.74 515.8919455572111 3933.38 514.7969648318594 3912.02 515.125626744456 3890.66 517.3539587629043 3869.3 517.3728872760798 3847.94 517.3795154992906 3826.58 517.3746698568546 3805.2200000000003 518.2845849198919 3783.86 518.2786881359634 3762.5 518.6674644160128 3741.14 519.0934355637311 3719.7799999999997 520.9052457535156 3698.42 521.6318852573548 3677.06 521.6184156458323 3655.7 522.2681085366032 3634.34 527.8351358448251 3612.98 527.8182060044346 3591.62 527.8171189568005 3570.26 527.8195281696414 3548.9 527.7185125063723 3527.54 528.1749639028288 3506.18 526.0738068609967 3484.82 526.0690930129186 3463.46 526.4517905907722 3442.1 526.966587562726 3420.74 527.7344479046612 3399.38 528.0922596265774 3378.02 528.3637575953018 3356.66 528.4473950245434 3335.3 528.3817437118579 3313.94 528.3209049784523 3292.58 528.6035113858115 3271.22 529.0722280244075 3249.86 529.4214956662862 3228.5 529.807429199031 3228.5 1038Z" fill="#e62d39" opacity="0.9" />
		</g>
		<g>
			<path d="M3228.5 529.807429199031 3249.86 529.4214956662862 3271.22 529.0722280244075 3292.58 528.6035113858115 3313.94 528.3209049784523 3335.3 528.3817437118579 3356.66 528.4473950245434 3378.02 528.3637575953018 3399.38 528.0922596265774 3420.74 527.7344479046612 3442.1 526.966587562726 3463.46 526.4517905907722 3484.82 526.0690930129186 3506.18 526.0738068609967 3527.54 528.1749639028288 3548.9 527.7185125063723 3570.26 527.8195281696414 3591.62 527.8171189568005 3612.98 527.8182060044346 3634.34 527.8351358448251 3655.7 522.2681085366032 3677.06 521.6184156458323 3698.42 521.6318852573548 3719.7799999999997 520.9052457535156 3741.14 519.0934355637311 3762.5 518.6674644160128 3783.86 518.2786881359634 3805.2200000000003 518.2845849198919 3826.58 517.3746698568546 3847.94 517.3795154992906 3869.3 517.3728872760798 3890.66 517.3539587629043 3912.02 515.125626744456 3933.38 514.7969648318594 3954.74 515.8919455572111 3976.1 512.9189284987364 3997.46 512.1329612369273 4018.8199999999997 512.098115952951 4040.18 511.20549455604134 4061.54 511.17358261897925 4082.9 510.91527035566935 4104.26 510.8708866486968 4125.62 510.8817631047316 4146.98 509.78758316632 4168.34 510.0683304392354 4189.7 509.7800526172698 4211.0599999999995 508.84856730181616 4232.42 508.8578828355521 4253.78 509.86699372684916 4275.139999999999 509.98967442059063 4296.5 510.132951236195 4296.5 433.30898701618065 4275.139999999999 433.292322077633 4253.78 433.3119961556043 4232.42 433.4349407881655 4211.0599999999995 433.4317855995608 4189.7 433.4209825154003 4168.34 433.6740677450532 4146.98 433.75103255338803 4125.62 435.36079839131713 4104.26 435.3425795567811 4082.9 435.3887976286378 4061.54 435.3992247727013 4040.18 435.7778149248337 4018.8199999999997 435.69457104984326 3997.46 435.7373894918581 3976.1 436.0183299632218 3954.74 437.1107633727561 3933.38 436.7049406114033 3912.02 436.8606414580909 3890.66 437.9222955771362 3869.3 437.9259398239807 3847.94 437.9087165382534 3826.58 437.90716134158686 3805.2200000000003 438.3816771158473 3783.86 438.3811488943986 3762.5 438.6583696725575 3741.14 438.939493870515 3719.7799999999997 439.76778884064066 3698.42 440.12172845279287 3677.06 440.1025942817036 3655.7 440.43245647629897 3634.34 446.0049434709254 3612.98 445.99448025532104 3591.62 445.9906298366525 3570.26 445.9850763388172 3548.9 446.00044835106377 3527.54 445.48995832347725 3506.18 440.7320769519542 3484.82 440.71015435347675 3463.46 440.79849020545294 3442.1 441.02669160650083 3420.74 441.4805241599953 3399.38 441.7146387359797 3378.02 441.87434560441795 3356.66 442.00506484989137 3335.3 442.0536403247141 3313.94 442.1004848135459 3292.58 442.29078701208255 3271.22 442.5177613549289 3249.86 442.75370380577044 3228.5 443.0039649820596 3228.5 529.807429199031Z" fill="#005aa6" opacity="0.9" />
		</g>
		<g>
			<path d="M3228.5 443.0039649820596 3249.86 442.75370380577044 3271.22 442.5177613549289 3292.58 442.29078701208255 3313.94 442.1004848135459 3335.3 442.0536403247141 3356.66 442.00506484989137 3378.02 441.87434560441795 3399.38 441.7146387359797 3420.74 441.4805241599953 3442.1 441.02669160650083 3463.46 440.79849020545294 3484.82 440.71015435347675 3506.18 440.7320769519542 3527.54 445.48995832347725 3548.9 446.00044835106377 3570.26 445.9850763388172 3591.62 445.9906298366525 3612.98 445.99448025532104 3634.34 446.0049434709254 3655.7 440.43245647629897 3677.06 440.1025942817036 3698.42 440.12172845279287 3719.7799999999997 439.76778884064066 3741.14 438.939493870515 3762.5 438.6583696725575 3783.86 438.3811488943986 3805.2200000000003 438.3816771158473 3826.58 437.90716134158686 3847.94 437.9087165382534 3869.3 437.9259398239807 3890.66 437.9222955771362 3912.02 436.8606414580909 3933.38 436.7049406114033 3954.74 437.1107633727561 3976.1 436.0183299632218 3997.46 435.7373894918581 4018.8199999999997 435.69457104984326 4040.18 435.7778149248337 4061.54 435.3992247727013 4082.9 435.3887976286378 4104.26 435.3425795567811 4125.62 435.36079839131713 4146.98 433.75103255338803 4168.34 433.6740677450532 4189.7 433.4209825154003 4211.0599999999995 433.4317855995608 4232.42 433.4349407881655 4253.78 433.3119961556043 4275.139999999999 433.292322077633 4296.5 433.30898701618065 4296.5 418.78153120455926 4275.139999999999 418.761446442615 4253.78 418.77023699293045 4232.42 418.9275739202609 4211.0599999999995 418.92551623383343 4189.7 418.96035428104784 4168.34 419.15736729425555 4146.98 419.17384173683575 4125.62 420.87551367904683 4104.26 420.8556038374519 4082.9 420.90079943263 4061.54 420.9199678677945 4040.18 421.17546638387716 4018.8199999999997 421.2737767063939 3997.46 421.31851350204755 3976.1 421.5482860386991 3954.74 422.28800089553556 3933.38 422.10195037941145 3912.02 422.2371615504225 3890.66 423.16774393881434 3869.3 423.167665092679 3847.94 423.14655140370303 3826.58 423.1457070138017 3805.2200000000003 423.56516266700936 3783.86 423.5655214379781 3762.5 423.8109003038261 3741.14 424.0558120196192 3719.7799999999997 424.7181344913808 3698.42 425.0236349944547 3677.06 425.0035344441698 3655.7 425.28465904377634 3634.34 430.8274530925998 3612.98 430.81817356835387 3591.62 430.8139007331268 3570.26 430.8069864095142 3548.9 430.9020970833825 3527.54 430.23142599790555 3506.18 425.0017650883845 3484.82 424.9767523660499 3463.46 425.0257701995382 3442.1 425.20583580775155 3420.74 425.4986687976815 3399.38 425.6867840212037 3378.02 425.8119685721377 3356.66 425.9104888133743 3335.3 425.92679886960804 3313.94 425.94362826788443 3292.58 426.1140510532148 3271.22 426.3120783472338 3249.86 426.5518003809951 3228.5 426.81320471249694 3228.5 443.0039649820596Z" fill="#55c0e9" opacity="0.9" />
		</g>
		<g>
			<path d="M3228.5 426.81320471249694 3249.86 426.5518003809951 3271.22 426.3120783472338 3292.58 426.1140510532148 3313.94 425.94362826788443 3335.3 425.92679886960804 3356.66 425.9104888133743 3378.02 425.8119685721377 3399.38 425.6867840212037 3420.74 425.4986687976815 3442.1 425.20583580775155 3463.46 425.0257701995382 3484.82 424.9767523660499 3506.18 425.0017650883845 3527.54 430.23142599790555 3548.9 430.9020970833825 3570.26 430.8069864095142 3591.62 430.8139007331268 3612.98 430.81817356835387 3634.34 430.8274530925998 3655.7 425.28465904377634 3677.06 425.0035344441698 3698.42 425.0236349944547 3719.7799999999997 424.7181344913808 3741.14 424.0558120196192 3762.5 423.8109003038261 3783.86 423.5655214379781 3805.2200000000003 423.56516266700936 3826.58 423.1457070138017 3847.94 423.14655140370303 3869.3 423.167665092679 3890.66 423.16774393881434 3912.02 422.2371615504225 3933.38 422.10195037941145 3954.74 422.28800089553556 3976.1 421.5482860386991 3997.46 421.31851350204755 4018.8199999999997 421.2737767063939 4040.18 421.17546638387716 4061.54 420.9199678677945 4082.9 420.90079943263 4104.26 420.8556038374519 4125.62 420.87551367904683 4146.98 419.17384173683575 4168.34 419.15736729425555 4189.7 418.96035428104784 4211.0599999999995 418.92551623383343 4232.42 418.9275739202609 4253.78 418.77023699293045 4275.139999999999 418.761446442615 4296.5 418.78153120455926 4296.5 407.6472692730448 4275.139999999999 407.61824955966534 4253.78 407.61722466292395 4232.42 407.63262030600544 4211.0599999999995 407.63004242027574 4189.7 407.6085547272844 4168.34 407.70041641084794 4146.98 407.73331438233555 4125.62 409.46082329286793 4104.26 409.44561346924576 4082.9 409.4552564157993 4061.54 409.442567653401 4040.18 409.50831649918746 4018.8199999999997 409.55722453750167 3997.46 409.60566872011515 3976.1 409.72296665824126 3954.74 410.10948315685346 3933.38 410.00098369930805 3912.02 410.02158135972263 3890.66 410.3831921847201 3869.3 410.3816258742522 3847.94 410.3693732840644 3826.58 410.36817686183286 3805.2200000000003 410.49749865569987 3783.86 410.49874026393246 3762.5 410.5976679252191 3741.14 410.7016436985356 3719.7799999999997 410.9789161674267 3698.42 411.1035757536376 3677.06 411.0839891917173 3655.7 411.22347657579 3634.34 416.32051328878225 3612.98 416.3159617889731 3591.62 416.31921689377526 3570.26 416.31736632943614 3548.9 416.3210682719641 3527.54 415.85243189703715 3506.18 410.86025631578275 3484.82 410.8513168557256 3463.46 410.8010080993925 3442.1 410.8532595598375 3420.74 410.9689719408518 3399.38 411.04822058755076 3378.02 411.09796238059005 3356.66 411.13309600464333 3335.3 411.08525540240214 3313.94 411.0502804931489 3292.58 411.15507042479464 3271.22 411.2715831935364 3249.86 411.39453051492376 3228.5 411.52533019336687 3228.5 426.81320471249694Z" fill="#f6a118" opacity="0.9" />
		</g>
		<g>
			<path d="M3228.5 411.52533019336687 3249.86 411.39453051492376 3271.22 411.2715831935364 3292.58 411.15507042479464 3313.94 411.0502804931489 3335.3 411.08525540240214 3356.66 411.13309600464333 3378.02 411.09796238059005 3399.38 411.04822058755076 3420.74 410.9689719408518 3442.1 410.8532595598375 3463.46 410.8010080993925 3484.82 410.8513168557256 3506.18 410.86025631578275 3527.54 415.85243189703715 3548.9 416.3210682719641 3570.26 416.31736632943614 3591.62 416.31921689377526 3612.98 416.3159617889731 3634.34 416.32051328878225 3655.7 411.22347657579 3677.06 411.0839891917173 3698.42 411.1035757536376 3719.7799999999997 410.9789161674267 3741.14 410.7016436985356 3762.5 410.5976679252191 3783.86 410.49874026393246 3805.2200000000003 410.49749865569987 3826.58 410.36817686183286 3847.94 410.3693732840644 3869.3 410.3816258742522 3890.66 410.3831921847201 3912.02 410.02158135972263 3933.38 410.00098369930805 3954.74 410.10948315685346 3976.1 409.72296665824126 3997.46 409.60566872011515 4018.8199999999997 409.55722453750167 4040.18 409.50831649918746 4061.54 409.442567653401 4082.9 409.4552564157993 4104.26 409.44561346924576 4125.62 409.46082329286793 4146.98 407.73331438233555 4168.34 407.70041641084794 4189.7 407.6085547272844 4211.0599999999995 407.63004242027574 4232.42 407.63262030600544 4253.78 407.61722466292395 4275.139999999999 407.61824955966534 4296.5 407.6472692730448 4296.5 401.2178574312743 4275.139999999999 401.2271449370171 4253.78 401.22998698493177 4232.42 401.24723467475025 4211.0599999999995 401.24799680108157 4189.7 401.25127865193434 4168.34 401.2738697689626 4146.98 401.29212425152997 4125.62 402.9378506891094 4104.26 402.9552515332576 4082.9 402.9599325586472 4061.54 402.96405971887924 4040.18 403.01449278802465 4018.8199999999997 402.9591913948528 3997.46 403.01566327837304 3976.1 403.0312697625879 3954.74 403.17379003690496 3933.38 403.039123205232 3912.02 403.0276937585125 3890.66 402.88697047759695 3869.3 402.8853442705775 3847.94 402.8987404525652 3826.58 402.9002345633593 3805.2200000000003 402.80439160515203 3783.86 402.8071737793706 3762.5 402.7885058788081 3741.14 402.75682438501997 3719.7799999999997 402.64364301985916 3698.42 402.6213127942401 3677.06 402.6374941256268 3655.7 402.6382934643876 3634.34 407.18303418872716 3612.98 407.1809148990988 3591.62 407.1872998554764 3570.26 407.1917111103271 3548.9 407.1621562125779 3527.54 406.9309868112197 3506.18 402.3499262788061 3484.82 402.3497550933614 3463.46 402.31710391583925 3442.1 402.31377839166817 3420.74 402.32705082967294 3399.38 402.3105155472352 3378.02 402.3328782432905 3356.66 402.29313148871324 3335.3 402.27347913416367 3313.94 402.24951221526595 3292.58 402.264400535425 3271.22 402.2771754039698 3249.86 402.3026796088189 3228.5 402.31237144781545 3228.5 411.52533019336687Z" fill="#fdd5a4" opacity="0.9" />
		</g>
		<g>
			<path d="M3228.5 402.31237144781545 3249.86 402.3026796088189 3271.22 402.2771754039698 3292.58 402.264400535425 3313.94 402.24951221526595 3335.3 402.27347913416367 3356.66 402.29313148871324 3378.02 402.3328782432905 3399.38 402.3105155472352 3420.74 402.32705082967294 3442.1 402.31377839166817 3463.46 402.31710391583925 3484.82 402.3497550933614 3506.18 402.3499262788061 3527.54 406.9309868112197 3548.9 407.1621562125779 3570.26 407.1917111103271 3591.62 407.1872998554764 3612.98 407.1809148990988 3634.34 407.18303418872716 3655.7 402.6382934643876 3677.06 402.6374941256268 3698.42 402.6213127942401 3719.7799999999997 402.64364301985916 3741.14 402.75682438501997 3762.5 402.7885058788081 3783.86 402.8071737793706 3805.2200000000003 402.80439160515203 3826.58 402.9002345633593 3847.94 402.8987404525652 3869.3 402.8853442705775 3890.66 402.88697047759695 3912.02 403.0276937585125 3933.38 403.039123205232 3954.74 403.17379003690496 3976.1 403.0312697625879 3997.46 403.01566327837304 4018.8199999999997 402.9591913948528 4040.18 403.01449278802465 4061.54 402.96405971887924 4082.9 402.9599325586472 4104.26 402.9552515332576 4125.62 402.9378506891094 4146.98 401.29212425152997 4168.34 401.2738697689626 4189.7 401.25127865193434 4211.0599999999995 401.24799680108157 4232.42 401.24723467475025 4253.78 401.22998698493177 4275.139999999999 401.2271449370171 4296.5 401.2178574312743 4296.5 398.0000000000001 4275.139999999999 398.0000000000001 4253.78 398 4232.42 398 4211.0599999999995 398.00000000000006 4189.7 398 4168.34 397.99999999999994 4146.98 397.99999999999994 4125.62 398.00000000000006 4104.26 397.99999999999994 4082.9 397.9999999999999 4061.54 398 4040.18 398 4018.8199999999997 398.00000000000006 3997.46 397.99999999999994 3976.1 398.00000000000006 3954.74 397.99999999999994 3933.38 398 3912.02 398 3890.66 397.9999999999999 3869.3 398.00000000000006 3847.94 398.0000000000001 3826.58 398.00000000000006 3805.2200000000003 398 3783.86 397.99999999999994 3762.5 398 3741.14 398 3719.7799999999997 398 3698.42 397.99999999999994 3677.06 398.00000000000006 3655.7 397.99999999999994 3634.34 397.9999999999999 3612.98 398.0000000000001 3591.62 397.99999999999994 3570.26 398 3548.9 398 3527.54 398 3506.18 398 3484.82 398 3463.46 398.00000000000006 3442.1 398 3420.74 398.0000000000001 3399.38 398.0000000000001 3378.02 398 3356.66 398 3335.3 398.00000000000006 3313.94 398.0000000000001 3292.58 398 3271.22 397.99999999999994 3249.86 398 3228.5 397.99999999999994 3228.5 402.31237144781545Z" fill="#393d41" opacity="0.9" />
		</g>
		<g>
			<rect x="4372" y="431" width="22.9995" height="23" fill="#e62d39" />
		</g>
		<g>
			<text fill="#595959" font-family="Verdana,Open Sans,DejaVu Sans,sans-serif" font-weight="400" font-size="41" transform="matrix(1 0 0 1 4404.56 454)">Smartphone</text>
		</g>
		<g>
			<rect x="4372" y="508" width="22.9995" height="23" fill="#005aa6" />
		</g>
		<g>
			<text fill="#595959" font-family="Verdana,Open Sans,DejaVu Sans,sans-serif" font-weight="400" font-size="41" transform="matrix(1 0 0 1 4404.56 531)">Desktop</text>
		</g>
		<g>
			<rect x="4372" y="585" width="22.9995" height="23" fill="#55c0e9" />
		</g>
		<g>
			<text fill="#595959" font-family="Verdana,Open Sans,DejaVu Sans,sans-serif" font-weight="400" font-size="41" transform="matrix(1 0 0 1 4404.56 608)">Other</text>
		</g>
		<g>
			<rect x="4372" y="662" width="22.9995" height="23" fill="#f6a118" />
		</g>
		<g>
			<text fill="#595959" font-family="Verdana,Open Sans,DejaVu Sans,sans-serif" font-weight="400" font-size="41" transform="matrix(1 0 0 1 4404.56 685)">Tablet</text>
		</g>
		<g>
			<rect x="4372" y="739" width="22.9995" height="23" fill="#fdd5a4" />
		</g>
		<g>
			<text fill="#595959" font-family="Verdana,Open Sans,DejaVu Sans,sans-serif" font-weight="400" font-size="41" transform="matrix(1 0 0 1 4404.56 762)">Tv</text>
		</g>
		<g>
			<rect x="4372" y="816" width="22.9995" height="23" fill="#393d41" />
		</g>
		<g>
			<text fill="#595959" font-family="Verdana,Open Sans,DejaVu Sans,sans-serif" font-weight="400" font-size="41" transform="matrix(1 0 0 1 4404.56 839)">Unclassified</text>
		</g>
	</g>
</svg>
