<svg width="1763" height="1046"
    xmlns="http://www.w3.org/2000/svg"
	xmlns:xlink="http://www.w3.org/1999/xlink" xml:space="preserve" overflow="hidden">
	<defs>
		<clipPath id="clip0">
			<rect x="2917" y="346" width="1763" height="1046"/>
		</clipPath>
	</defs>
	<g clip-path="url(#clip0)" transform="translate(-2917 -346)">
		<rect x="2918" y="347" width="1760" height="1043" fill="#FFFFFF" />
		<g>
			<path d="
			M3228.5 974.532 4296.5 974.532
			M3228.5 910.53 4296.5 910.53
			M3228.5 846.528 4296.5 846.528
			M3228.5 781.526 4296.5 781.526
			M3228.5 717.524 4296.5 717.524
			M3228.5 653.522 4296.5 653.522
			M3228.5 589.52 4296.5 589.52
			M3228.5 525.517 4296.5 525.517
			M3228.5 461.515 4296.5 461.515
			M3228.5 397.5 4296.5 397.5" stroke="#D9D9D9" stroke-width="3.4375" stroke-linejoin="round" stroke-miterlimit="10" fill="none" />
		</g>
		<g>
			<path d="M 1038.5 4296.5 1038.5" stroke="#D9D9D9" stroke-width="3.4375" stroke-linejoin="round" stroke-miterlimit="10" fill="none" fill-rule="evenodd" />
		</g>
		<g>
			<text fill="#595959" font-family="Verdana,Open Sans,DejaVu Sans,sans-serif" font-weight="400" font-size="41" transform="matrix(6.12323e-17 -1 1 6.12323e-17 3248.289306640625 1204.54345703125)">30-Sep</text>
		</g>
		<g>
			<text fill="#595959" font-family="Verdana,Open Sans,DejaVu Sans,sans-serif" font-weight="400" font-size="41" transform="matrix(6.12323e-17 -1 1 6.12323e-17 3330.748370735013 1201.1401290893555)">28-Oct</text>
		</g>
		<g>
			<text fill="#595959" font-family="Verdana,Open Sans,DejaVu Sans,sans-serif" font-weight="400" font-size="41" transform="matrix(6.12323e-17 -1 1 6.12323e-17 3417.9120246731504 1211.47021484375)">25-Nov</text>
		</g>
		<g>
			<text fill="#595959" font-family="Verdana,Open Sans,DejaVu Sans,sans-serif" font-weight="400" font-size="41" transform="matrix(6.12323e-17 -1 1 6.12323e-17 3505.1157176737884 1207.24609375)">30-Dec</text>
		</g>
		<g>
			<text fill="#595959" font-family="Verdana,Open Sans,DejaVu Sans,sans-serif" font-weight="400" font-size="41" transform="matrix(6.12323e-17 -1 1 6.12323e-17 3595.932936065051 1191.6909103393555)">27-Jan</text>
		</g>
		<g>
			<text fill="#595959" font-family="Verdana,Open Sans,DejaVu Sans,sans-serif" font-weight="400" font-size="41" transform="matrix(6.12323e-17 -1 1 6.12323e-17 3680.193757971939 1203.08203125)">24-Feb</text>
		</g>
		<g>
			<text fill="#595959" font-family="Verdana,Open Sans,DejaVu Sans,sans-serif" font-weight="400" font-size="41" transform="matrix(6.12323e-17 -1 1 6.12323e-17 3766.6467185507017 1212.05078125)">24-Mar</text>
		</g>
		<g>
			<text fill="#595959" font-family="Verdana,Open Sans,DejaVu Sans,sans-serif" font-weight="400" font-size="41" transform="matrix(6.12323e-17 -1 1 6.12323e-17 3858.555001395089 1203.3022384643555)">21-Apr</text>
		</g>
		<g>
			<text fill="#595959" font-family="Verdana,Open Sans,DejaVu Sans,sans-serif" font-weight="400" font-size="41" transform="matrix(6.12323e-17 -1 1 6.12323e-17 3945.738674864477 1214.75341796875)">19-May</text>
		</g>
		<g>
			<text fill="#595959" font-family="Verdana,Open Sans,DejaVu Sans,sans-serif" font-weight="400" font-size="41" transform="matrix(6.12323e-17 -1 1 6.12323e-17 4031.8513034119896 1194.0532150268555)">23-Jun</text>
		</g>
		<g>
			<text fill="#595959" font-family="Verdana,Open Sans,DejaVu Sans,sans-serif" font-weight="400" font-size="41" transform="matrix(6.12323e-17 -1 1 6.12323e-17 4119.765689772003 1179.0385665893555)">21-Jul</text>
		</g>
		<g>
			<text fill="#595959" font-family="Verdana,Open Sans,DejaVu Sans,sans-serif" font-weight="400" font-size="41" transform="matrix(6.12323e-17 -1 1 6.12323e-17 4207.2896952726405 1206.90576171875)">18-Aug</text>
		</g>
		<g>
			<text fill="#595959" font-family="Verdana,Open Sans,DejaVu Sans,sans-serif" font-weight="400" font-size="41" transform="matrix(6.12323e-17 -1 1 6.12323e-17 4294.4733687420285 1202.66162109375)">15-Sep</text>
		</g>
		<g>
			<text fill="#595959" font-family="Verdana,Open Sans,DejaVu Sans,sans-serif" font-weight="400" font-size="41" transform="matrix(1 0 0 1 3169.14111328125 1050)">0</text>
		</g>
		<g>
			<text fill="#595959" font-family="Verdana,Open Sans,DejaVu Sans,sans-serif" font-weight="400" font-size="41" transform="matrix(1 0 0 1 3067.2016677856445 922)">18,309</text>
		</g>
		<g>
			<text fill="#595959" font-family="Verdana,Open Sans,DejaVu Sans,sans-serif" font-weight="400" font-size="41" transform="matrix(1 0 0 1 3065.2397537231445 794)">36,618</text>
		</g>
		<g>
			<text fill="#595959" font-family="Verdana,Open Sans,DejaVu Sans,sans-serif" font-weight="400" font-size="41" transform="matrix(1 0 0 1 3066.0205154418945 666)">54,928</text>
		</g>
		<g>
			<text fill="#595959" font-family="Verdana,Open Sans,DejaVu Sans,sans-serif" font-weight="400" font-size="41" transform="matrix(1 0 0 1 3065.1997146606445 538)">73,237</text>
		</g>
		<g>
			<text fill="#595959" font-family="Verdana,Open Sans,DejaVu Sans,sans-serif" font-weight="400" font-size="41" transform="matrix(1 0 0 1 3065.3598709106445 410)">91,546</text>
		</g>
		<g>
			<text fill="#595959" font-family="Verdana,Open Sans,DejaVu Sans,sans-serif" font-weight="400" font-size="41" transform="matrix(1 0 0 1 3556.97119140625 1321)">Week Commencing</text>
		</g>
		<g>
			<text fill="#595959" font-family="Verdana,Open Sans,DejaVu Sans,sans-serif" font-weight="400" font-size="46" transform="matrix(6.12323e-17 -1 1 6.12323e-17 3019.73 1028.5532531738281)">Number of Hardware Profiles</text>
		</g>
		<rect x="2918.5" y="347.5" width="1760" height="1043" stroke="#D9D9D9" stroke-width="3.4375" stroke-linejoin="round" stroke-miterlimit="10" fill="none" />
		<g>
			<path d="M3228.5 1038 3250.295918367347 1038 3272.091836734694 1038 3293.887755102041 1038 3315.683673469388 1038 3337.4795918367345 1038 3359.2755102040815 1038 3381.0714285714284 1038 3402.8673469387754 1038 3424.6632653061224 1038 3446.4591836734694 1038 3468.2551020408164 1038 3490.0510204081634 1038 3511.8469387755104 1038 3533.6428571428573 1038 3555.4387755102043 1038 3577.234693877551 1038 3599.030612244898 1038 3620.826530612245 1038 3642.622448979592 1038 3664.418367346939 1038 3686.214285714286 1038 3708.0102040816328 1038 3729.8061224489797 1038 3751.6020408163267 1038 3773.3979591836733 1038 3795.1938775510203 1038 3816.9897959183672 1038 3838.785714285714 1038 3860.581632653061 1038 3882.377551020408 1038 3904.173469387755 1038 3925.969387755102 1038 3947.765306122449 1038 3969.5612244897957 1038 3991.357142857143 1038 4013.1530612244896 1038 4034.9489795918366 1038 4056.7448979591836 1038 4078.5408163265306 1038 4100.336734693878 1038 4122.132653061224 1038 4143.928571428572 1038 4165.724489795918 1038 4187.5204081632655 1038 4209.316326530612 1038 4231.1122448979595 1038 4252.908163265306 1038 4274.7040816326535 1038 4296.5 1038 4296.5 692.0073842658335 4274.7040816326535 692.3709173530247 4252.908163265306 692.6925043147708 4231.1122448979595 693.0071002556092 4209.316326530612 693.2098398619273 4187.5204081632655 693.5384178445809 4165.724489795918 693.8110676599742 4143.928571428572 694.1326546217202 4122.132653061224 694.5311428134489 4100.336734693878 694.8247656915648 4078.5408163265306 695.0974155069582 4056.7448979591836 695.4329845105193 4034.9489795918366 695.7545714722653 4013.1530612244896 696.0481943503812 3991.357142857143 696.4187184584798 3969.5612244897957 696.8731348174688 3947.765306122449 697.425425469163 3925.969387755102 697.7959495772617 3904.173469387755 698.1245275599152 3882.377551020408 698.5090337098289 3860.581632653061 698.8795578179277 3838.785714285714 699.1871627378586 3816.9897959183672 699.5437048041422 3795.1938775510203 699.8932558495183 3773.3979591836733 700.1938697485417 3751.6020408163267 700.5224477311951 3729.8061224489797 700.9069538811088 3708.0102040816328 701.2495139055775 3686.214285714286 701.6060559718611 3664.418367346939 701.899678849977 3642.622448979592 702.2911760207983 3620.826530612245 702.6477180870819 3599.030612244898 703.0392152579032 3577.234693877551 703.3817752823717 3555.4387755102043 703.6823891813951 3533.6428571428573 703.9690210386035 3511.8469387755104 704.2416708539969 3490.0510204081634 704.4374194394074 3468.2551020408164 704.619185983003 3446.4591836734694 704.8918357983964 3424.6632653061224 705.2693509274027 3402.8673469387754 705.6468660564087 3381.0714285714284 705.9614619972473 3359.2755102040815 706.2201297708256 3337.4795918367345 706.4438424398663 3315.683673469388 706.709501234352 3293.887755102041 707.0520612588207 3272.091836734694 707.4016123041968 3250.295918367347 707.7231992659429 3228.5 708.0098311231511 3228.5 1038Z" fill="#e62d39" opacity="0.9" />
		</g>
		<g>
			<path d="M3228.5 708.0098311231511 3250.295918367347 707.7231992659429 3272.091836734694 707.4016123041968 3293.887755102041 707.0520612588207 3315.683673469388 706.709501234352 3337.4795918367345 706.4438424398663 3359.2755102040815 706.2201297708256 3381.0714285714284 705.9614619972473 3402.8673469387754 705.6468660564087 3424.6632653061224 705.2693509274027 3446.4591836734694 704.8918357983964 3468.2551020408164 704.619185983003 3490.0510204081634 704.4374194394074 3511.8469387755104 704.2416708539969 3533.6428571428573 703.9690210386035 3555.4387755102043 703.6823891813951 3577.234693877551 703.3817752823717 3599.030612244898 703.0392152579032 3620.826530612245 702.6477180870819 3642.622448979592 702.2911760207983 3664.418367346939 701.899678849977 3686.214285714286 701.6060559718611 3708.0102040816328 701.2495139055775 3729.8061224489797 700.9069538811088 3751.6020408163267 700.5224477311951 3773.3979591836733 700.1938697485417 3795.1938775510203 699.8932558495183 3816.9897959183672 699.5437048041422 3838.785714285714 699.1871627378586 3860.581632653061 698.8795578179277 3882.377551020408 698.5090337098289 3904.173469387755 698.1245275599152 3925.969387755102 697.7959495772617 3947.765306122449 697.425425469163 3969.5612244897957 696.8731348174688 3991.357142857143 696.4187184584798 4013.1530612244896 696.0481943503812 4034.9489795918366 695.7545714722653 4056.7448979591836 695.4329845105193 4078.5408163265306 695.0974155069582 4100.336734693878 694.8247656915648 4122.132653061224 694.5311428134489 4143.928571428572 694.1326546217202 4165.724489795918 693.8110676599742 4187.5204081632655 693.5384178445809 4209.316326530612 693.2098398619273 4231.1122448979595 693.0071002556092 4252.908163265306 692.6925043147708 4274.7040816326535 692.3709173530247 4296.5 692.0073842658335 4296.5 526.515937342975 4274.7040816326535 526.984335743779 4252.908163265306 527.438752102768 4231.1122448979595 527.8582133572193 4209.316326530612 528.0889170471676 4187.5204081632655 528.4804142179887 4165.724489795918 528.9068664933476 4143.928571428572 529.4102199986892 4122.132653061224 529.9834837131059 4100.336734693878 530.4099359884648 4078.5408163265306 530.9272715356215 4056.7448979591836 531.402660957333 4034.9489795918366 531.9060144626744 4013.1530612244896 532.4093679680161 3991.357142857143 532.9546675988026 3969.5612244897957 533.5489043759421 3947.765306122449 534.4367640311973 3925.969387755102 534.940117536539 3904.173469387755 535.3735608328054 3882.377551020408 535.8349682127018 3860.581632653061 536.3243396762284 3838.785714285714 536.7228278679571 3816.9897959183672 537.2681274987438 3795.1938775510203 537.7714810040853 3773.3979591836733 538.2398794048893 3751.6020408163267 538.7502239311383 3729.8061224489797 539.2535774364799 3708.0102040816328 539.7010027745614 3686.214285714286 540.1554191335504 3664.418367346939 540.5469163043715 3642.622448979592 541.008323684268 3620.826530612245 541.504686168702 3599.030612244898 542.0010486531362 3577.234693877551 542.4065278657724 3555.4387755102043 542.8609442247613 3533.6428571428573 543.3083695628427 3511.8469387755104 543.7348218382015 3490.0510204081634 543.9725165490572 3468.2551020408164 544.1822471762829 3446.4591836734694 544.5737443471041 3424.6632653061224 544.9932056015556 3402.8673469387754 545.5594782950648 3381.0714285714284 545.9579664867936 3359.2755102040815 546.3634456994298 3337.4795918367345 546.7339698075284 3315.683673469388 547.2093592292399 3293.887755102041 547.6707666091363 3272.091836734694 548.1042099054027 3250.295918367347 548.5586262643917 3228.5 548.9920695606579 3228.5 708.0098311231511Z" fill="#f6a118" opacity="0.9" />
		</g>
		<g>
			<path d="M3228.5 548.9920695606579 3250.295918367347 548.5586262643917 3272.091836734694 548.1042099054027 3293.887755102041 547.6707666091363 3315.683673469388 547.2093592292399 3337.4795918367345 546.7339698075284 3359.2755102040815 546.3634456994298 3381.0714285714284 545.9579664867936 3402.8673469387754 545.5594782950648 3424.6632653061224 544.9932056015556 3446.4591836734694 544.5737443471041 3468.2551020408164 544.1822471762829 3490.0510204081634 543.9725165490572 3511.8469387755104 543.7348218382015 3533.6428571428573 543.3083695628427 3555.4387755102043 542.8609442247613 3577.234693877551 542.4065278657724 3599.030612244898 542.0010486531362 3620.826530612245 541.504686168702 3642.622448979592 541.008323684268 3664.418367346939 540.5469163043715 3686.214285714286 540.1554191335504 3708.0102040816328 539.7010027745614 3729.8061224489797 539.2535774364799 3751.6020408163267 538.7502239311383 3773.3979591836733 538.2398794048893 3795.1938775510203 537.7714810040853 3816.9897959183672 537.2681274987438 3838.785714285714 536.7228278679571 3860.581632653061 536.3243396762284 3882.377551020408 535.8349682127018 3904.173469387755 535.3735608328054 3925.969387755102 534.940117536539 3947.765306122449 534.4367640311973 3969.5612244897957 533.5489043759421 3991.357142857143 532.9546675988026 4013.1530612244896 532.4093679680161 4034.9489795918366 531.9060144626744 4056.7448979591836 531.402660957333 4078.5408163265306 530.9272715356215 4100.336734693878 530.4099359884648 4122.132653061224 529.9834837131059 4143.928571428572 529.4102199986892 4165.724489795918 528.9068664933476 4187.5204081632655 528.4804142179887 4209.316326530612 528.0889170471676 4231.1122448979595 527.8582133572193 4252.908163265306 527.438752102768 4274.7040816326535 526.984335743779 4296.5 526.515937342975 4296.5 451.16671400170395 4274.7040816326535 451.663076486138 4252.908163265306 452.1594389705722 4231.1122448979595 452.59288226683844 4209.316326530612 452.8515500404169 4187.5204081632655 453.2989753784982 4165.724489795918 453.8093199047473 4143.928571428572 454.340637493719 4122.132653061224 454.93487427085824 4100.336734693878 455.3753085880322 4078.5408163265306 455.9275992397265 4056.7448979591836 456.4449347868831 4034.9489795918366 456.96227033403966 4013.1530612244896 457.5215520066415 3991.357142857143 458.1018067419657 3969.5612244897957 458.73099862364273 3947.765306122449 459.7167325716032 3925.969387755102 460.27601424420504 3904.173469387755 460.7653857077317 3882.377551020408 461.2477661503507 3860.581632653061 461.8070478229525 3838.785714285714 462.23350009831125 3816.9897959183672 462.7997727918205 3795.1938775510203 463.3660454853297 3773.3979591836733 463.85541694885626 3751.6020408163267 464.37275249601277 3729.8061224489797 464.89707906407693 3708.0102040816328 465.3794595066961 3686.214285714286 465.8548489284076 3664.418367346939 466.3022742664889 3642.622448979592 466.8056277718306 3620.826530612245 467.3089812771721 3599.030612244898 467.8193258034213 3577.234693877551 468.23878705787257 3555.4387755102043 468.7421405632141 3533.6428571428573 469.23151202674063 3511.8469387755104 469.6999104275445 3490.0510204081634 469.9445961593078 3468.2551020408164 470.16830882834853 3446.4591836734694 470.6017521246149 3424.6632653061224 471.0351954208814 3402.8673469387754 471.65739628165073 3381.0714285714284 472.0698665151946 3359.2755102040815 472.51030083236844 3337.4795918367345 472.9647171913573 3315.683673469388 473.4680706966989 3293.887755102041 473.9644331811329 3272.091836734694 474.4258405610294 3250.295918367347 474.9222030454635 3228.5 475.4115745089899 3228.5 548.9920695606579Z" fill="#55c0e9" opacity="0.9" />
		</g>
		<g>
			<path d="M3228.5 475.4115745089899 3250.295918367347 474.9222030454635 3272.091836734694 474.4258405610294 3293.887755102041 473.9644331811329 3315.683673469388 473.4680706966989 3337.4795918367345 472.9647171913573 3359.2755102040815 472.51030083236844 3381.0714285714284 472.0698665151946 3402.8673469387754 471.65739628165073 3424.6632653061224 471.0351954208814 3446.4591836734694 470.6017521246149 3468.2551020408164 470.16830882834853 3490.0510204081634 469.9445961593078 3511.8469387755104 469.6999104275445 3533.6428571428573 469.23151202674063 3555.4387755102043 468.7421405632141 3577.234693877551 468.23878705787257 3599.030612244898 467.8193258034213 3620.826530612245 467.3089812771721 3642.622448979592 466.8056277718306 3664.418367346939 466.3022742664889 3686.214285714286 465.8548489284076 3708.0102040816328 465.3794595066961 3729.8061224489797 464.89707906407693 3751.6020408163267 464.37275249601277 3773.3979591836733 463.85541694885626 3795.1938775510203 463.3660454853297 3816.9897959183672 462.7997727918205 3838.785714285714 462.23350009831125 3860.581632653061 461.8070478229525 3882.377551020408 461.2477661503507 3904.173469387755 460.7653857077317 3925.969387755102 460.27601424420504 3947.765306122449 459.7167325716032 3969.5612244897957 458.73099862364273 3991.357142857143 458.1018067419657 4013.1530612244896 457.5215520066415 4034.9489795918366 456.96227033403966 4056.7448979591836 456.4449347868831 4078.5408163265306 455.9275992397265 4100.336734693878 455.3753085880322 4122.132653061224 454.93487427085824 4143.928571428572 454.340637493719 4165.724489795918 453.8093199047473 4187.5204081632655 453.2989753784982 4209.316326530612 452.8515500404169 4231.1122448979595 452.59288226683844 4252.908163265306 452.1594389705722 4274.7040816326535 451.663076486138 4296.5 451.16671400170395 4296.5 399.30032988879896 4274.7040816326535 399.8316474777706 4252.908163265306 400.4957944639853 4231.1122448979595 401.11100430384715 4209.316326530612 401.4675463701309 4187.5204081632655 402.0897472309003 4165.724489795918 402.809822384375 4143.928571428572 403.50892447512723 4122.132653061224 404.1660804404342 4100.336734693878 404.7742992593887 4078.5408163265306 405.4174731828807 4056.7448979591836 406.1025932318179 4034.9489795918366 406.7947043016625 4013.1530612244896 407.4728333296922 3991.357142857143 408.19290848316683 3969.5612244897957 408.90599261573414 3947.765306122449 410.1503943372729 3925.969387755102 410.8494964280252 3904.173469387755 411.555589539685 3882.377551020408 412.1428352959168 3860.581632653061 412.82795534485405 3838.785714285714 413.33829987110306 3816.9897959183672 414.04439298276276 3795.1938775510203 414.7924322198676 3773.3979591836733 415.4705612478972 3751.6020408163267 416.13470823411166 3729.8061224489797 416.8408013457714 3708.0102040816328 417.5259213947087 3686.214285714286 418.252987569091 3664.418367346939 418.9450986389355 3642.622448979592 419.65119175059533 3620.826530612245 420.357284862255 3599.030612244898 421.04939593209974 3577.234693877551 421.6715967928692 3555.4387755102043 422.3916719463439 3533.6428571428573 423.08378301618853 3511.8469387755104 423.7898761278482 3490.0510204081634 424.07650798505665 3468.2551020408164 424.37712188408005 3446.4591836734694 425.0482598912022 3424.6632653061224 425.740370961047 3402.8673469387754 426.94981757804817 3381.0714285714284 427.59998252244776 3359.2755102040815 428.26412950866234 3337.4795918367345 428.9492495575994 3315.683673469388 429.63436960653655 3293.887755102041 430.3334716972887 3272.091836734694 431.0185917462259 3250.295918367347 431.7037117951631 3228.5 432.3818408231926 3228.5 475.4115745089899Z" fill="#fdd5a4" opacity="0.9" />
		</g>
		<g>
			<path d="M3228.5 432.3818408231926 3250.295918367347 431.7037117951631 3272.091836734694 431.0185917462259 3293.887755102041 430.3334716972887 3315.683673469388 429.63436960653655 3337.4795918367345 428.9492495575994 3359.2755102040815 428.26412950866234 3381.0714285714284 427.59998252244776 3402.8673469387754 426.94981757804817 3424.6632653061224 425.740370961047 3446.4591836734694 425.0482598912022 3468.2551020408164 424.37712188408005 3490.0510204081634 424.07650798505665 3511.8469387755104 423.7898761278482 3533.6428571428573 423.08378301618853 3555.4387755102043 422.3916719463439 3577.234693877551 421.6715967928692 3599.030612244898 421.04939593209974 3620.826530612245 420.357284862255 3642.622448979592 419.65119175059533 3664.418367346939 418.9450986389355 3686.214285714286 418.252987569091 3708.0102040816328 417.5259213947087 3729.8061224489797 416.8408013457714 3751.6020408163267 416.13470823411166 3773.3979591836733 415.4705612478972 3795.1938775510203 414.7924322198676 3816.9897959183672 414.04439298276276 3838.785714285714 413.33829987110306 3860.581632653061 412.82795534485405 3882.377551020408 412.1428352959168 3904.173469387755 411.555589539685 3925.969387755102 410.8494964280252 3947.765306122449 410.1503943372729 3969.5612244897957 408.90599261573414 3991.357142857143 408.19290848316683 4013.1530612244896 407.4728333296922 4034.9489795918366 406.7947043016625 4056.7448979591836 406.1025932318179 4078.5408163265306 405.4174731828807 4100.336734693878 404.7742992593887 4122.132653061224 404.1660804404342 4143.928571428572 403.50892447512723 4165.724489795918 402.809822384375 4187.5204081632655 402.0897472309003 4209.316326530612 401.4675463701309 4231.1122448979595 401.11100430384715 4252.908163265306 400.4957944639853 4274.7040816326535 399.8316474777706 4296.5 399.30032988879896 4296.5 397.9999999999999 4274.7040816326535 398.53131758897155 4252.908163265306 399.19546457518624 4231.1122448979595 399.8106744150481 4209.316326530612 400.1672164813318 4187.5204081632655 400.7894173421012 4165.724489795918 401.50949249557596 4143.928571428572 402.20859458632816 4122.132653061224 402.86575055163513 4100.336734693878 403.47396937058966 4078.5408163265306 404.11714329408164 4056.7448979591836 404.8022633430188 4034.9489795918366 405.4943744128634 4013.1530612244896 406.17250344089314 3991.357142857143 406.89257859436776 3969.5612244897957 407.60566272693507 3947.765306122449 408.85006444847386 3925.969387755102 409.5491665392261 3904.173469387755 410.25525965088593 3882.377551020408 410.84250540711776 3860.581632653061 411.527625456055 3838.785714285714 412.037969982304 3816.9897959183672 412.7440630939637 3795.1938775510203 413.4921023310685 3773.3979591836733 414.1702313590981 3751.6020408163267 414.8343783453126 3729.8061224489797 415.54047145697234 3708.0102040816328 416.2255915059096 3686.214285714286 416.9526576802919 3664.418367346939 417.64476875013645 3642.622448979592 418.35086186179626 3620.826530612245 419.05695497345596 3599.030612244898 419.7490660433007 3577.234693877551 420.3712669040701 3555.4387755102043 421.0913420575448 3533.6428571428573 421.78345312738946 3511.8469387755104 422.4895462390491 3490.0510204081634 422.7761780962576 3468.2551020408164 423.076791995281 3446.4591836734694 423.7479300024031 3424.6632653061224 424.44004107224794 3402.8673469387754 425.6494876892491 3381.0714285714284 426.2996526336487 3359.2755102040815 426.96379961986327 3337.4795918367345 427.6489196688003 3315.683673469388 428.341030738645 3293.887755102041 429.0471238503047 3272.091836734694 429.7322438992419 3250.295918367347 430.41736394817906 3228.5 431.09549297620856 3228.5 432.3818408231926Z" fill="#005aa6" opacity="0.9" />
		</g>
		<g>
			<rect x="4372" y="431" width="22.9995" height="23" fill="#e62d39" />
		</g>
		<g>
			<text fill="#595959" font-family="Verdana,Open Sans,DejaVu Sans,sans-serif" font-weight="400" font-size="41" transform="matrix(1 0 0 1 4404.56 454)">Smartphone</text>
		</g>
		<g>
			<rect x="4372" y="508" width="22.9995" height="23" fill="#f6a118" />
		</g>
		<g>
			<text fill="#595959" font-family="Verdana,Open Sans,DejaVu Sans,sans-serif" font-weight="400" font-size="41" transform="matrix(1 0 0 1 4404.56 531)">Tablet</text>
		</g>
		<g>
			<rect x="4372" y="585" width="22.9995" height="23" fill="#55c0e9" />
		</g>
		<g>
			<text fill="#595959" font-family="Verdana,Open Sans,DejaVu Sans,sans-serif" font-weight="400" font-size="41" transform="matrix(1 0 0 1 4404.56 608)">Other</text>
		</g>
		<g>
			<rect x="4372" y="662" width="22.9995" height="23" fill="#fdd5a4" />
		</g>
		<g>
			<text fill="#595959" font-family="Verdana,Open Sans,DejaVu Sans,sans-serif" font-weight="400" font-size="41" transform="matrix(1 0 0 1 4404.56 685)">Tv</text>
		</g>
		<g>
			<rect x="4372" y="739" width="22.9995" height="23" fill="#005aa6" />
		</g>
		<g>
			<text fill="#595959" font-family="Verdana,Open Sans,DejaVu Sans,sans-serif" font-weight="400" font-size="41" transform="matrix(1 0 0 1 4404.56 762)">Desktop</text>
		</g>
	</g>
</svg>
