<svg width="1763" height="1046"
    xmlns="http://www.w3.org/2000/svg"
	xmlns:xlink="http://www.w3.org/1999/xlink" xml:space="preserve" overflow="hidden">
	<defs>
		<clipPath id="clip0">
			<rect x="2917" y="346" width="1763" height="1046"/>
		</clipPath>
	</defs>
	<g clip-path="url(#clip0)" transform="translate(-2917 -346)">
		<rect x="2918" y="347" width="1760" height="1043" fill="#FFFFFF" />
		<g>
			<path d="
			M3228.5 974.532 4296.5 974.532
			M3228.5 910.53 4296.5 910.53
			M3228.5 846.528 4296.5 846.528
			M3228.5 781.526 4296.5 781.526
			M3228.5 717.524 4296.5 717.524
			M3228.5 653.522 4296.5 653.522
			M3228.5 589.52 4296.5 589.52
			M3228.5 525.517 4296.5 525.517
			M3228.5 461.515 4296.5 461.515
			M3228.5 397.5 4296.5 397.5" stroke="#D9D9D9" stroke-width="3.4375" stroke-linejoin="round" stroke-miterlimit="10" fill="none" />
		</g>
		<g>
			<path d="M 1038.5 4296.5 1038.5" stroke="#D9D9D9" stroke-width="3.4375" stroke-linejoin="round" stroke-miterlimit="10" fill="none" fill-rule="evenodd" />
		</g>
		<g>
			<text fill="#595959" font-family="Verdana,sans-serif" font-weight="400" font-size="41" transform="matrix(6.12323e-17 -1 1 6.12323e-17 3244.5 1220)">18-Dec</text>
		</g>
		<g>
			<text fill="#595959" font-family="Verdana,sans-serif" font-weight="400" font-size="41" transform="matrix(6.12323e-17 -1 1 6.12323e-17 3327.764705882353 1207)">15-Jan</text>
		</g>
		<g>
			<text fill="#595959" font-family="Verdana,sans-serif" font-weight="400" font-size="41" transform="matrix(6.12323e-17 -1 1 6.12323e-17 3412.029411764706 1214)">12-Feb</text>
		</g>
		<g>
			<text fill="#595959" font-family="Verdana,sans-serif" font-weight="400" font-size="41" transform="matrix(6.12323e-17 -1 1 6.12323e-17 3495.294117647059 1221)">11-Mar</text>
		</g>
		<g>
			<text fill="#595959" font-family="Verdana,sans-serif" font-weight="400" font-size="41" transform="matrix(6.12323e-17 -1 1 6.12323e-17 3583.0588235294117 1217)">08-Apr</text>
		</g>
		<g>
			<text fill="#595959" font-family="Verdana,sans-serif" font-weight="400" font-size="41" transform="matrix(6.12323e-17 -1 1 6.12323e-17 3666.823529411765 1228)">06-May</text>
		</g>
		<g>
			<text fill="#595959" font-family="Verdana,sans-serif" font-weight="400" font-size="41" transform="matrix(6.12323e-17 -1 1 6.12323e-17 3747.0882352941176 1211)">03-Jun</text>
		</g>
		<g>
			<text fill="#595959" font-family="Verdana,sans-serif" font-weight="400" font-size="41" transform="matrix(6.12323e-17 -1 1 6.12323e-17 3830.8529411764707 1197)">01-Jul</text>
		</g>
		<g>
			<text fill="#595959" font-family="Verdana,sans-serif" font-weight="400" font-size="41" transform="matrix(6.12323e-17 -1 1 6.12323e-17 3914.6176470588234 1196)">29-Jul</text>
		</g>
		<g>
			<text fill="#595959" font-family="Verdana,sans-serif" font-weight="400" font-size="41" transform="matrix(6.12323e-17 -1 1 6.12323e-17 4001.8823529411766 1221)">26-Aug</text>
		</g>
		<g>
			<text fill="#595959" font-family="Verdana,sans-serif" font-weight="400" font-size="41" transform="matrix(6.12323e-17 -1 1 6.12323e-17 4085.6470588235293 1221)">23-Sep</text>
		</g>
		<g>
			<text fill="#595959" font-family="Verdana,sans-serif" font-weight="400" font-size="41" transform="matrix(6.12323e-17 -1 1 6.12323e-17 4165.911764705882 1215)">21-Oct</text>
		</g>
		<g>
			<text fill="#595959" font-family="Verdana,sans-serif" font-weight="400" font-size="41" transform="matrix(6.12323e-17 -1 1 6.12323e-17 4249.676470588235 1222)">18-Nov</text>
		</g>
		<g>
			<text fill="#595959" font-family="Verdana,sans-serif" font-weight="400" font-size="41" transform="matrix(1 0 0 1 3167.5 1050)">0</text>
		</g>
		<g>
			<text fill="#595959" font-family="Verdana,sans-serif" font-weight="400" font-size="41" transform="matrix(1 0 0 1 3051.5 922)">17,573</text>
		</g>
		<g>
			<text fill="#595959" font-family="Verdana,sans-serif" font-weight="400" font-size="41" transform="matrix(1 0 0 1 3049.5 794)">35,145</text>
		</g>
		<g>
			<text fill="#595959" font-family="Verdana,sans-serif" font-weight="400" font-size="41" transform="matrix(1 0 0 1 3048.5 666)">52,718</text>
		</g>
		<g>
			<text fill="#595959" font-family="Verdana,sans-serif" font-weight="400" font-size="41" transform="matrix(1 0 0 1 3048.5 538)">70,290</text>
		</g>
		<g>
			<text fill="#595959" font-family="Verdana,sans-serif" font-weight="400" font-size="41" transform="matrix(1 0 0 1 3048.5 410)">87,863</text>
		</g>
		<g>
			<text fill="#595959" font-family="Verdana,sans-serif" font-weight="400" font-size="41" transform="matrix(1 0 0 1 3544.5 1321)">Week Commencing</text>
		</g>
		<g>
			<text fill="#595959" font-family="Verdana,sans-serif" font-weight="400" font-size="46" transform="matrix(6.12323e-17 -1 1 6.12323e-17 3019.73 1048.25)">Number of Hardware Profiles</text>
		</g>
		<rect x="2918.5" y="347.5" width="1760" height="1043" stroke="#D9D9D9" stroke-width="3.4375" stroke-linejoin="round" stroke-miterlimit="10" fill="none" />
		<g>
			<path d="M3228.5 1038 3249.4411764705883 1038 3270.3823529411766 1038 3291.323529411765 1038 3312.264705882353 1038 3333.205882352941 1038 3354.1470588235293 1038 3375.0882352941176 1038 3396.029411764706 1038 3416.970588235294 1038 3437.9117647058824 1038 3458.8529411764707 1038 3479.794117647059 1038 3500.735294117647 1038 3521.676470588235 1038 3542.6176470588234 1038 3563.5588235294117 1038 3584.5 1038 3605.4411764705883 1038 3626.3823529411766 1038 3647.323529411765 1038 3668.264705882353 1038 3689.205882352941 1038 3710.1470588235293 1038 3731.0882352941176 1038 3752.029411764706 1038 3772.970588235294 1038 3793.9117647058824 1038 3814.8529411764707 1038 3835.7941176470586 1038 3856.735294117647 1038 3877.676470588235 1038 3898.6176470588234 1038 3919.5588235294117 1038 3940.5 1038 3961.4411764705883 1038 3982.3823529411766 1038 4003.323529411765 1038 4024.264705882353 1038 4045.2058823529414 1038 4066.1470588235293 1038 4087.0882352941176 1038 4108.029411764706 1038 4128.970588235294 1038 4149.911764705882 1038 4170.85294117647 1038 4191.794117647059 1038 4212.735294117647 1038 4233.676470588235 1038 4254.617647058823 1038 4275.558823529412 1038 4296.5 1038 4296.5 690.9287640986536 4275.558823529412 691.3221037296701 4254.617647058823 691.7154433606865 4233.676470588235 692.0432263865337 4212.735294117647 692.3127368744523 4191.794117647059 692.5458270261657 4170.85294117647 692.8226215813254 4149.911764705882 693.1795408761367 4128.970588235294 693.543744238189 4108.029411764706 693.8788113312771 4087.0882352941176 694.1774580881599 4066.1470588235293 694.3668438364272 4045.2058823529414 694.7674675346847 4024.264705882353 695.2555000398347 4003.323529411765 695.5322945949945 3982.3823529411766 695.7362484777437 3961.4411764705883 695.9911908311803 3940.5 696.3044057225453 3919.5588235294117 696.5957684121872 3898.6176470588234 696.8288585639007 3877.676470588235 697.207630060435 3856.735294117647 697.5208449518 3835.7941176470586 697.8559120448881 3814.8529411764707 698.1618428690119 3793.9117647058824 698.482341827618 3772.970588235294 698.7518523155367 3752.029411764706 698.7809885845008 3731.0882352941176 698.9121017948397 3710.1470588235293 698.9922265344912 3689.205882352941 699.3127254930972 3668.264705882353 699.5458156448107 3647.323529411765 699.7060651241136 3626.3823529411766 700.0047118809965 3605.4411764705883 700.3761993102898 3584.5 700.8205274119937 3563.5588235294117 701.1847307740459 3542.6176470588234 701.505229732652 3521.676470588235 701.7310358171244 3500.735294117647 702.0005463050431 3479.794117647059 702.2409205239976 3458.8529411764707 702.4230222050237 3437.9117647058824 702.5832716843267 3416.970588235294 702.6998167601835 3396.029411764706 702.8892025084506 3375.0882352941176 703.0858723239589 3354.1470588235293 703.5666207618679 3333.205882352941 703.9162559894381 3312.264705882353 704.3533000239008 3291.323529411765 704.8049121928457 3270.3823529411766 705.1399792859338 3249.4411764705883 705.0817067480054 3228.5 705.3657853704062 3228.5 1038Z" fill="#e62d39" opacity="0.9" />
		</g>
		<g>
			<path d="M3228.5 705.3657853704062 3249.4411764705883 705.0817067480054 3270.3823529411766 705.1399792859338 3291.323529411765 704.8049121928457 3312.264705882353 704.3533000239008 3333.205882352941 703.9162559894381 3354.1470588235293 703.5666207618679 3375.0882352941176 703.0858723239589 3396.029411764706 702.8892025084506 3416.970588235294 702.6998167601835 3437.9117647058824 702.5832716843267 3458.8529411764707 702.4230222050237 3479.794117647059 702.2409205239976 3500.735294117647 702.0005463050431 3521.676470588235 701.7310358171244 3542.6176470588234 701.505229732652 3563.5588235294117 701.1847307740459 3584.5 700.8205274119937 3605.4411764705883 700.3761993102898 3626.3823529411766 700.0047118809965 3647.323529411765 699.7060651241136 3668.264705882353 699.5458156448107 3689.205882352941 699.3127254930972 3710.1470588235293 698.9922265344912 3731.0882352941176 698.9121017948397 3752.029411764706 698.7809885845008 3772.970588235294 698.7518523155367 3793.9117647058824 698.482341827618 3814.8529411764707 698.1618428690119 3835.7941176470586 697.8559120448881 3856.735294117647 697.5208449518 3877.676470588235 697.207630060435 3898.6176470588234 696.8288585639007 3919.5588235294117 696.5957684121872 3940.5 696.3044057225453 3961.4411764705883 695.9911908311803 3982.3823529411766 695.7362484777437 4003.323529411765 695.5322945949945 4024.264705882353 695.2555000398347 4045.2058823529414 694.7674675346847 4066.1470588235293 694.3668438364272 4087.0882352941176 694.1774580881599 4108.029411764706 693.8788113312771 4128.970588235294 693.543744238189 4149.911764705882 693.1795408761367 4170.85294117647 692.8226215813254 4191.794117647059 692.5458270261657 4212.735294117647 692.3127368744523 4233.676470588235 692.0432263865337 4254.617647058823 691.7154433606865 4275.558823529412 691.3221037296701 4296.5 690.9287640986536 4296.5 523.8905341269931 4275.558823529412 524.3275781614559 4254.617647058823 524.9175876079806 4233.676470588235 525.3327794407203 4212.735294117647 525.7552553407008 4191.794117647059 526.1413109044763 4170.85294117647 526.6366274768673 4149.911764705882 527.1173759147764 4128.970588235294 527.5689880837213 4108.029411764706 528.0424524543893 4087.0882352941176 528.494064623334 4066.1470588235293 528.8145635819401 4045.2058823529414 529.3535845577775 4024.264705882353 529.9071736680969 4003.323529411765 530.3587858370418 3982.3823529411766 530.6720007284067 3961.4411764705883 531.0216359559769 3940.5 531.4586799904396 3919.5588235294117 531.8374514869741 3898.6176470588234 532.2235070507495 3877.676470588235 532.6896873541764 3856.735294117647 533.1340154558802 3835.7941176470586 533.5419232213787 3814.8529411764707 533.9789672558414 3793.9117647058824 534.204773340314 3772.970588235294 534.547124500643 3752.029411764706 534.5981129713304 3731.0882352941176 534.7656465178744 3710.1470588235293 534.853055324767 3689.205882352941 535.3119515609528 3668.264705882353 535.7562796626567 3647.323529411765 536.1350511591909 3626.3823529411766 536.6012314626179 3605.4411764705883 537.1621046401784 3584.5 537.8176706918725 3563.5588235294117 538.3639757349509 3542.6176470588234 538.84472417286 3521.676470588235 539.1506549969839 3500.735294117647 539.5002902245542 3479.794117647059 539.8572095193654 3458.8529411764707 540.0975837383198 3437.9117647058824 540.3670942262386 3416.970588235294 540.5419118400237 3396.029411764706 540.8259904624244 3375.0882352941176 541.0955009503432 3354.1470588235293 541.6782263296268 3333.205882352941 542.1516907002948 3312.264705882353 542.7125638778552 3291.323529411765 543.30257332438 3270.3823529411766 543.768753627807 3249.4411764705883 543.7177651571196 3228.5 544.0746844519308 3228.5 705.3657853704062Z" fill="#55c0e9" opacity="0.9" />
		</g>
		<g>
			<path d="M3228.5 544.0746844519308 3249.4411764705883 543.7177651571196 3270.3823529411766 543.768753627807 3291.323529411765 543.30257332438 3312.264705882353 542.7125638778552 3333.205882352941 542.1516907002948 3354.1470588235293 541.6782263296268 3375.0882352941176 541.0955009503432 3396.029411764706 540.8259904624244 3416.970588235294 540.5419118400237 3437.9117647058824 540.3670942262386 3458.8529411764707 540.0975837383198 3479.794117647059 539.8572095193654 3500.735294117647 539.5002902245542 3521.676470588235 539.1506549969839 3542.6176470588234 538.84472417286 3563.5588235294117 538.3639757349509 3584.5 537.8176706918725 3605.4411764705883 537.1621046401784 3626.3823529411766 536.6012314626179 3647.323529411765 536.1350511591909 3668.264705882353 535.7562796626567 3689.205882352941 535.3119515609528 3710.1470588235293 534.853055324767 3731.0882352941176 534.7656465178744 3752.029411764706 534.5981129713304 3772.970588235294 534.547124500643 3793.9117647058824 534.204773340314 3814.8529411764707 533.9789672558414 3835.7941176470586 533.5419232213787 3856.735294117647 533.1340154558802 3877.676470588235 532.6896873541764 3898.6176470588234 532.2235070507495 3919.5588235294117 531.8374514869741 3940.5 531.4586799904396 3961.4411764705883 531.0216359559769 3982.3823529411766 530.6720007284067 4003.323529411765 530.3587858370418 4024.264705882353 529.9071736680969 4045.2058823529414 529.3535845577775 4066.1470588235293 528.8145635819401 4087.0882352941176 528.494064623334 4108.029411764706 528.0424524543893 4128.970588235294 527.5689880837213 4149.911764705882 527.1173759147764 4170.85294117647 526.6366274768673 4191.794117647059 526.1413109044763 4212.735294117647 525.7552553407008 4233.676470588235 525.3327794407203 4254.617647058823 524.9175876079806 4275.558823529412 524.3275781614559 4296.5 523.8905341269931 4296.5 446.81781864948834 4275.558823529412 447.26943081843325 4254.617647058823 447.91771280288634 4233.676470588235 448.3474727701081 4212.735294117647 448.80636900629383 4191.794117647059 449.2798333769619 4170.85294117647 449.80428621831703 4149.911764705882 450.32145499243137 4128.970588235294 450.8022034303404 4108.029411764706 451.3193722044547 4087.0882352941176 451.8292569113278 4066.1470588235293 452.1861762061391 4045.2058823529414 452.79075378714595 4024.264705882353 453.4390357715989 4003.323529411765 453.91978420950795 3982.3823529411766 454.27670350431924 3961.4411764705883 454.6700431353356 3940.5 455.16535970772674 3919.5588235294117 455.5878356077076 3898.6176470588234 455.988459305965 3877.676470588235 456.469207743874 3856.735294117647 456.942672114542 3835.7941176470586 457.3797161490047 3814.8529411764707 457.8386123851906 3793.9117647058824 458.28294048689446 3772.970588235294 458.6398597817056 3752.029411764706 458.69813231963394 3731.0882352941176 458.8802340006601 3710.1470588235293 458.9749268747937 3689.205882352941 459.46295937994375 3668.264705882353 459.95099188509386 3647.323529411765 460.35889965059226 3626.3823529411766 460.8615002902245 3605.4411764705883 461.47336193847235 3584.5 462.1653483263717 3563.5588235294117 462.7262215039322 3542.6176470588234 463.2506743452875 3521.676470588235 463.57117330389354 3500.735294117647 463.949944800428 3479.794117647059 464.32143222972127 3458.8529411764707 464.56909051591674 3437.9117647058824 464.86045320555866 3416.970588235294 465.0498389538258 3396.029411764706 465.3484857107087 3375.0882352941176 465.64713246759163 3354.1470588235293 466.23714191411625 3333.205882352941 466.7324584865074 3312.264705882353 467.30789979854995 3291.323529411765 467.95618178300305 3270.3823529411766 468.4514983553942 3249.4411764705883 468.4514983553942 3228.5 468.8157017174465 3228.5 544.0746844519308Z" fill="#f6a118" opacity="0.9" />
		</g>
		<g>
			<path d="M3228.5 468.8157017174465 3249.4411764705883 468.4514983553942 3270.3823529411766 468.4514983553942 3291.323529411765 467.95618178300305 3312.264705882353 467.30789979854995 3333.205882352941 466.7324584865074 3354.1470588235293 466.23714191411625 3375.0882352941176 465.64713246759163 3396.029411764706 465.3484857107087 3416.970588235294 465.0498389538258 3437.9117647058824 464.86045320555866 3458.8529411764707 464.56909051591674 3479.794117647059 464.32143222972127 3500.735294117647 463.949944800428 3521.676470588235 463.57117330389354 3542.6176470588234 463.2506743452875 3563.5588235294117 462.7262215039322 3584.5 462.1653483263717 3605.4411764705883 461.47336193847235 3626.3823529411766 460.8615002902245 3647.323529411765 460.35889965059226 3668.264705882353 459.95099188509386 3689.205882352941 459.46295937994375 3710.1470588235293 458.9749268747937 3731.0882352941176 458.8802340006601 3752.029411764706 458.69813231963394 3772.970588235294 458.6398597817056 3793.9117647058824 458.28294048689446 3814.8529411764707 457.8386123851906 3835.7941176470586 457.3797161490047 3856.735294117647 456.942672114542 3877.676470588235 456.469207743874 3898.6176470588234 455.988459305965 3919.5588235294117 455.5878356077076 3940.5 455.16535970772674 3961.4411764705883 454.6700431353356 3982.3823529411766 454.27670350431924 4003.323529411765 453.91978420950795 4024.264705882353 453.4390357715989 4045.2058823529414 452.79075378714595 4066.1470588235293 452.1861762061391 4087.0882352941176 451.8292569113278 4108.029411764706 451.3193722044547 4128.970588235294 450.8022034303404 4149.911764705882 450.32145499243137 4170.85294117647 449.80428621831703 4191.794117647059 449.2798333769619 4212.735294117647 448.80636900629383 4233.676470588235 448.3474727701081 4254.617647058823 447.91771280288634 4275.558823529412 447.26943081843325 4296.5 446.81781864948834 4296.5 399.35483650683443 4275.558823529412 400.07595916369803 4254.617647058823 401.33610279639896 4233.676470588235 402.0135210498163 4212.735294117647 402.7055074377155 4191.794117647059 403.41934602733807 4170.85294117647 404.13318461696036 4149.911764705882 404.86159134106504 4128.970588235294 405.5754299306875 4108.029411764706 406.28926852031003 4087.0882352941176 406.99582304269137 4066.1470588235293 407.5421280857699 4045.2058823529414 408.4599205581417 4024.264705882353 409.2830201563798 4003.323529411765 410.01142688048435 3982.3823529411766 410.5723000580449 3961.4411764705883 411.25700237870313 3940.5 411.9489887666025 3919.5588235294117 412.63369108726096 3898.6176470588234 413.32567747516026 3877.676470588235 414.0249479303006 3856.735294117647 414.7460705871641 3835.7941176470586 415.4599091767866 3814.8529411764707 416.1955999681322 3793.9117647058824 416.88758635603165 3772.970588235294 417.57957274393084 3752.029411764706 418.2642750645891 3731.0882352941176 418.9198411162833 3710.1470588235293 419.5754071679774 3689.205882352941 420.3256660938051 3668.264705882353 420.91567554032986 3647.323529411765 421.46198058340815 3626.3823529411766 422.1029785006202 3605.4411764705883 422.86780556093004 3584.5 423.61078041951674 3563.5588235294117 424.28819867293396 3542.6176470588234 424.84907185049445 3521.676470588235 425.1987070780647 3500.735294117647 425.62846704528647 3479.794117647059 426.0218066763029 3458.8529411764707 426.3932941055961 3437.9117647058824 426.85947440902316 3416.970588235294 427.48590419175304 3396.029411764706 428.25073125206285 3375.0882352941176 428.6732071520436 3354.1470588235293 429.30692100201446 3333.205882352941 429.93335078474445 3312.264705882353 430.54521243299223 3291.323529411765 431.2881872915789 3270.3823529411766 431.88548080534474 3249.4411764705883 431.88548080534474 3228.5 432.33709297428953 3228.5 468.8157017174465Z" fill="#fdd5a4" opacity="0.9" />
		</g>
		<g>
			<path d="M3228.5 432.33709297428953 3249.4411764705883 431.88548080534474 3270.3823529411766 431.88548080534474 3291.323529411765 431.2881872915789 3312.264705882353 430.54521243299223 3333.205882352941 429.93335078474445 3354.1470588235293 429.30692100201446 3375.0882352941176 428.6732071520436 3396.029411764706 428.25073125206285 3416.970588235294 427.48590419175304 3437.9117647058824 426.85947440902316 3458.8529411764707 426.3932941055961 3479.794117647059 426.0218066763029 3500.735294117647 425.62846704528647 3521.676470588235 425.1987070780647 3542.6176470588234 424.84907185049445 3563.5588235294117 424.28819867293396 3584.5 423.61078041951674 3605.4411764705883 422.86780556093004 3626.3823529411766 422.1029785006202 3647.323529411765 421.46198058340815 3668.264705882353 420.91567554032986 3689.205882352941 420.3256660938051 3710.1470588235293 419.5754071679774 3731.0882352941176 418.9198411162833 3752.029411764706 418.2642750645891 3772.970588235294 417.57957274393084 3793.9117647058824 416.88758635603165 3814.8529411764707 416.1955999681322 3835.7941176470586 415.4599091767866 3856.735294117647 414.7460705871641 3877.676470588235 414.0249479303006 3898.6176470588234 413.32567747516026 3919.5588235294117 412.63369108726096 3940.5 411.9489887666025 3961.4411764705883 411.25700237870313 3982.3823529411766 410.5723000580449 4003.323529411765 410.01142688048435 4024.264705882353 409.2830201563798 4045.2058823529414 408.4599205581417 4066.1470588235293 407.5421280857699 4087.0882352941176 406.99582304269137 4108.029411764706 406.28926852031003 4128.970588235294 405.5754299306875 4149.911764705882 404.86159134106504 4170.85294117647 404.13318461696036 4191.794117647059 403.41934602733807 4212.735294117647 402.7055074377155 4233.676470588235 402.0135210498163 4254.617647058823 401.33610279639896 4275.558823529412 400.07595916369803 4296.5 399.35483650683443 4296.5 397.99999999999994 4275.558823529412 398.72112265686354 4254.617647058823 399.9812662895645 4233.676470588235 400.6586845429818 4212.735294117647 401.350670930881 4191.794117647059 402.0645095205036 4170.85294117647 402.7856321773669 4149.911764705882 403.52132296871264 4128.970588235294 404.2351615583351 4108.029411764706 404.94900014795763 4087.0882352941176 405.655554670339 4066.1470588235293 406.2018597134175 4045.2058823529414 407.1196521857893 4024.264705882353 407.9427517840274 4003.323529411765 408.67115850813195 3982.3823529411766 409.2320316856925 3961.4411764705883 409.91673400635074 3940.5 410.6087203942501 3919.5588235294117 411.29342271490856 3898.6176470588234 411.98540910280786 3877.676470588235 412.6846795579482 3856.735294117647 413.40580221481173 3835.7941176470586 414.1196408044342 3814.8529411764707 414.85533159577983 3793.9117647058824 415.54731798367925 3772.970588235294 416.23930437157844 3752.029411764706 416.92400669223673 3731.0882352941176 417.5795727439309 3710.1470588235293 418.235138795625 3689.205882352941 418.9853977214527 3668.264705882353 419.57540716797746 3647.323529411765 420.12171221105575 3626.3823529411766 420.7627101282678 3605.4411764705883 421.52753718857764 3584.5 422.27051204716435 3563.5588235294117 422.96249843506365 3542.6176470588234 423.52337161262415 3521.676470588235 423.87300684019436 3500.735294117647 424.30276680741616 3479.794117647059 424.6961064384326 3458.8529411764707 425.0675938677258 3437.9117647058824 425.53377417115286 3416.970588235294 426.16020395388273 3396.029411764706 426.92503101419254 3375.0882352941176 427.34750691417327 3354.1470588235293 427.98122076414415 3333.205882352941 428.60765054687414 3312.264705882353 429.2195121951219 3291.323529411765 429.96248705370857 3270.3823529411766 430.55978056747443 3249.4411764705883 430.55978056747443 3228.5 431.0405290053834 3228.5 432.33709297428953Z" fill="#005aa6" opacity="0.9" />
		</g>
		<g>
			<rect x="4372" y="431" width="22.9995" height="23" fill="#e62d39" />
		</g>
		<g>
			<text fill="#595959" font-family="Verdana,sans-serif" font-weight="400" font-size="41" transform="matrix(1 0 0 1 4404.56 454)">Smartphone</text>
		</g>
		<g>
			<rect x="4372" y="508" width="22.9995" height="23" fill="#55c0e9" />
		</g>
		<g>
			<text fill="#595959" font-family="Verdana,sans-serif" font-weight="400" font-size="41" transform="matrix(1 0 0 1 4404.56 531)">Tablet</text>
		</g>
		<g>
			<rect x="4372" y="585" width="22.9995" height="23" fill="#f6a118" />
		</g>
		<g>
			<text fill="#595959" font-family="Verdana,sans-serif" font-weight="400" font-size="41" transform="matrix(1 0 0 1 4404.56 608)">Other</text>
		</g>
		<g>
			<rect x="4372" y="662" width="22.9995" height="23" fill="#fdd5a4" />
		</g>
		<g>
			<text fill="#595959" font-family="Verdana,sans-serif" font-weight="400" font-size="41" transform="matrix(1 0 0 1 4404.56 685)">Tv</text>
		</g>
		<g>
			<rect x="4372" y="739" width="22.9995" height="23" fill="#005aa6" />
		</g>
		<g>
			<text fill="#595959" font-family="Verdana,sans-serif" font-weight="400" font-size="41" transform="matrix(1 0 0 1 4404.56 762)">Desktop</text>
		</g>
	</g>
</svg>
