<svg width="1763" height="1046"
    xmlns="http://www.w3.org/2000/svg"
	xmlns:xlink="http://www.w3.org/1999/xlink" xml:space="preserve" overflow="hidden">
	<defs>
		<clipPath id="clip0">
			<rect x="2917" y="346" width="1763" height="1046"/>
		</clipPath>
	</defs>
	<g clip-path="url(#clip0)" transform="translate(-2917 -346)">
		<rect x="2918" y="347" width="1760" height="1043" fill="#FFFFFF" />
		<g>
			<path d="
			M3228.5 974.532 4296.5 974.532
			M3228.5 910.53 4296.5 910.53
			M3228.5 846.528 4296.5 846.528
			M3228.5 781.526 4296.5 781.526
			M3228.5 717.524 4296.5 717.524
			M3228.5 653.522 4296.5 653.522
			M3228.5 589.52 4296.5 589.52
			M3228.5 525.517 4296.5 525.517
			M3228.5 461.515 4296.5 461.515
			M3228.5 397.5 4296.5 397.5" stroke="#D9D9D9" stroke-width="3.4375" stroke-linejoin="round" stroke-miterlimit="10" fill="none" />
		</g>
		<g>
			<path d="M 1038.5 4296.5 1038.5" stroke="#D9D9D9" stroke-width="3.4375" stroke-linejoin="round" stroke-miterlimit="10" fill="none" fill-rule="evenodd" />
		</g>
		<g>
			<text fill="#595959" font-family="Verdana,Open Sans,DejaVu Sans,sans-serif" font-weight="400" font-size="41" transform="matrix(6.12323e-17 -1 1 6.12323e-17 3248.269287109375 1214.75341796875)">12-May</text>
		</g>
		<g>
			<text fill="#595959" font-family="Verdana,Open Sans,DejaVu Sans,sans-serif" font-weight="400" font-size="41" transform="matrix(6.12323e-17 -1 1 6.12323e-17 3332.6382421875 1192.2914962768555)">16-Jun</text>
		</g>
		<g>
			<text fill="#595959" font-family="Verdana,Open Sans,DejaVu Sans,sans-serif" font-weight="400" font-size="41" transform="matrix(6.12323e-17 -1 1 6.12323e-17 3418.808955078125 1177.2768478393555)">14-Jul</text>
		</g>
		<g>
			<text fill="#595959" font-family="Verdana,Open Sans,DejaVu Sans,sans-serif" font-weight="400" font-size="41" transform="matrix(6.12323e-17 -1 1 6.12323e-17 3504.439140625 1206.90576171875)">11-Aug</text>
		</g>
		<g>
			<text fill="#595959" font-family="Verdana,Open Sans,DejaVu Sans,sans-serif" font-weight="400" font-size="41" transform="matrix(6.12323e-17 -1 1 6.12323e-17 3590.049306640625 1204.38330078125)">08-Sep</text>
		</g>
		<g>
			<text fill="#595959" font-family="Verdana,Open Sans,DejaVu Sans,sans-serif" font-weight="400" font-size="41" transform="matrix(6.12323e-17 -1 1 6.12323e-17 3670.764697265625 1201.1000900268555)">06-Oct</text>
		</g>
		<g>
			<text fill="#595959" font-family="Verdana,Open Sans,DejaVu Sans,sans-serif" font-weight="400" font-size="41" transform="matrix(6.12323e-17 -1 1 6.12323e-17 3756.204697265625 1211.43017578125)">03-Nov</text>
		</g>
		<g>
			<text fill="#595959" font-family="Verdana,Open Sans,DejaVu Sans,sans-serif" font-weight="400" font-size="41" transform="matrix(6.12323e-17 -1 1 6.12323e-17 3841.644697265625 1207.0859375)">01-Dec</text>
		</g>
		<g>
			<text fill="#595959" font-family="Verdana,Open Sans,DejaVu Sans,sans-serif" font-weight="400" font-size="41" transform="matrix(6.12323e-17 -1 1 6.12323e-17 3927.064677734375 1207.1259765625)">29-Dec</text>
		</g>
		<g>
			<text fill="#595959" font-family="Verdana,Open Sans,DejaVu Sans,sans-serif" font-weight="400" font-size="41" transform="matrix(6.12323e-17 -1 1 6.12323e-17 4016.1582421875 1191.6909103393555)">26-Jan</text>
		</g>
		<g>
			<text fill="#595959" font-family="Verdana,Open Sans,DejaVu Sans,sans-serif" font-weight="400" font-size="41" transform="matrix(6.12323e-17 -1 1 6.12323e-17 4098.675390625 1203.08203125)">23-Feb</text>
		</g>
		<g>
			<text fill="#595959" font-family="Verdana,Open Sans,DejaVu Sans,sans-serif" font-weight="400" font-size="41" transform="matrix(6.12323e-17 -1 1 6.12323e-17 4183.384677734375 1212.05078125)">23-Mar</text>
		</g>
		<g>
			<text fill="#595959" font-family="Verdana,Open Sans,DejaVu Sans,sans-serif" font-weight="400" font-size="41" transform="matrix(6.12323e-17 -1 1 6.12323e-17 4273.569306640625 1203.3022384643555)">20-Apr</text>
		</g>
		<g>
			<text fill="#595959" font-family="Verdana,Open Sans,DejaVu Sans,sans-serif" font-weight="400" font-size="41" transform="matrix(1 0 0 1 3169.14111328125 1050)">0</text>
		</g>
		<g>
			<text fill="#595959" font-family="Verdana,Open Sans,DejaVu Sans,sans-serif" font-weight="400" font-size="41" transform="matrix(1 0 0 1 3067.0815505981445 922)">18,807</text>
		</g>
		<g>
			<text fill="#595959" font-family="Verdana,Open Sans,DejaVu Sans,sans-serif" font-weight="400" font-size="41" transform="matrix(1 0 0 1 3063.9384841918945 794)">37,614</text>
		</g>
		<g>
			<text fill="#595959" font-family="Verdana,Open Sans,DejaVu Sans,sans-serif" font-weight="400" font-size="41" transform="matrix(1 0 0 1 3073.0273513793945 666)">56,421</text>
		</g>
		<g>
			<text fill="#595959" font-family="Verdana,Open Sans,DejaVu Sans,sans-serif" font-weight="400" font-size="41" transform="matrix(1 0 0 1 3065.2397537231445 538)">75,228</text>
		</g>
		<g>
			<text fill="#595959" font-family="Verdana,Open Sans,DejaVu Sans,sans-serif" font-weight="400" font-size="41" transform="matrix(1 0 0 1 3065.7202224731445 410)">94,035</text>
		</g>
		<g>
			<text fill="#595959" font-family="Verdana,Open Sans,DejaVu Sans,sans-serif" font-weight="400" font-size="41" transform="matrix(1 0 0 1 3556.97119140625 1321)">Week Commencing</text>
		</g>
		<g>
			<text fill="#595959" font-family="Verdana,Open Sans,DejaVu Sans,sans-serif" font-weight="400" font-size="46" transform="matrix(6.12323e-17 -1 1 6.12323e-17 3019.73 1028.5532531738281)">Number of Hardware Profiles</text>
		</g>
		<rect x="2918.5" y="347.5" width="1760" height="1043" stroke="#D9D9D9" stroke-width="3.4375" stroke-linejoin="round" stroke-miterlimit="10" fill="none" />
		<g>
			<path d="M3228.5 1038 3249.86 1038 3271.22 1038 3292.58 1038 3313.94 1038 3335.3 1038 3356.66 1038 3378.02 1038 3399.38 1038 3420.74 1038 3442.1 1038 3463.46 1038 3484.82 1038 3506.18 1038 3527.54 1038 3548.9 1038 3570.26 1038 3591.62 1038 3612.98 1038 3634.34 1038 3655.7 1038 3677.06 1038 3698.42 1038 3719.7799999999997 1038 3741.14 1038 3762.5 1038 3783.86 1038 3805.2200000000003 1038 3826.58 1038 3847.94 1038 3869.3 1038 3890.66 1038 3912.02 1038 3933.38 1038 3954.74 1038 3976.1 1038 3997.46 1038 4018.8199999999997 1038 4040.18 1038 4061.54 1038 4082.9 1038 4104.26 1038 4125.62 1038 4146.98 1038 4168.34 1038 4189.7 1038 4211.0599999999995 1038 4232.42 1038 4253.78 1038 4275.139999999999 1038 4296.5 1038 4296.5 693.0458871696709 4275.139999999999 693.4270218535652 4253.78 693.719678842984 4232.42 693.9783059499123 4211.0599999999995 694.1484553623651 4189.7 694.3662466103046 4168.34 694.7269633647047 4146.98 695.1489339075877 4125.62 695.4211729675121 4104.26 695.6321582389536 4082.9 695.8839793693837 4061.54 696.1562184293082 4040.18 696.3059499122667 4018.8199999999997 696.5577710426969 3997.46 696.7823682671346 3976.1 697.170308927527 3954.74 697.4289360344553 3933.38 697.7352049768704 3912.02 697.837294624342 3890.66 697.9598022013081 3869.3 698.1775934492476 3847.94 698.4362205561758 3826.58 698.6403998511194 3805.2200000000003 698.8445791460626 3783.86 699.0419524645079 3762.5 699.2189078534589 3741.14 699.3958632424097 3719.7799999999997 699.654490349338 3698.42 699.9471473387568 3677.06 700.1785505396927 3655.7 700.4303716701229 3634.34 700.7638645185303 3612.98 701.165417131919 3591.62 701.5193279098208 3570.26 701.8324028287341 3548.9 702.1386717711491 3527.54 702.3360450895943 3506.18 702.6559259850055 3484.82 702.9213590684319 3463.46 703.2344339873451 3442.1 703.6223746477376 3420.74 703.9082256606582 3399.38 704.1736587440846 3378.02 704.5003456159941 3356.66 704.8134205349072 3335.3 705.0992715478279 3313.94 705.4599883022279 3292.58 705.9023767746053 3271.22 706.4400489179561 3249.86 706.8007656723561 3228.5 707.1206465677674 3228.5 1038Z" fill="#e62d39" opacity="0.9" />
		</g>
		<g>
			<path d="M3228.5 707.1206465677674 3249.86 706.8007656723561 3271.22 706.4400489179561 3292.58 705.9023767746053 3313.94 705.4599883022279 3335.3 705.0992715478279 3356.66 704.8134205349072 3378.02 704.5003456159941 3399.38 704.1736587440846 3420.74 703.9082256606582 3442.1 703.6223746477376 3463.46 703.2344339873451 3484.82 702.9213590684319 3506.18 702.6559259850055 3527.54 702.3360450895943 3548.9 702.1386717711491 3570.26 701.8324028287341 3591.62 701.5193279098208 3612.98 701.165417131919 3634.34 700.7638645185303 3655.7 700.4303716701229 3677.06 700.1785505396927 3698.42 699.9471473387568 3719.7799999999997 699.654490349338 3741.14 699.3958632424097 3762.5 699.2189078534589 3783.86 699.0419524645079 3805.2200000000003 698.8445791460626 3826.58 698.6403998511194 3847.94 698.4362205561758 3869.3 698.1775934492476 3890.66 697.9598022013081 3912.02 697.837294624342 3933.38 697.7352049768704 3954.74 697.4289360344553 3976.1 697.170308927527 3997.46 696.7823682671346 4018.8199999999997 696.5577710426969 4040.18 696.3059499122667 4061.54 696.1562184293082 4082.9 695.8839793693837 4104.26 695.6321582389536 4125.62 695.4211729675121 4146.98 695.1489339075877 4168.34 694.7269633647047 4189.7 694.3662466103046 4211.0599999999995 694.1484553623651 4232.42 693.9783059499123 4253.78 693.719678842984 4275.139999999999 693.4270218535652 4296.5 693.0458871696709 4296.5 529.2396448131016 4275.139999999999 529.6752273089808 4253.78 530.0359440633806 4232.42 530.355824958792 4211.0599999999995 530.5668102302334 4189.7 530.8050194076674 4168.34 531.2337959270485 4146.98 531.6693784229277 4125.62 531.9756473653428 4104.26 532.2478864252672 4082.9 532.5541553676823 4061.54 532.8740362630934 4040.18 533.0646036050407 4018.8199999999997 533.3776785239539 3997.46 533.6771414898709 3976.1 534.2080076567236 3954.74 534.534694528633 3933.38 534.9838889775084 3912.02 535.1608443664593 3890.66 535.3037698729197 3869.3 535.5964268623385 3847.94 535.9639495932365 3826.58 536.2429946296593 3805.2200000000003 536.5288456425799 3783.86 536.7942787260063 3762.5 537.0801297389271 3741.14 537.379592704844 3719.7799999999997 537.7879512947306 3698.42 538.2167278141118 3677.06 538.6250864039985 3655.7 539.0266390173872 3634.34 539.5302812782475 3612.98 540.0543414686022 3591.62 540.5103418939757 3570.26 540.9527303663531 3548.9 541.3610889562398 3527.54 541.5856861806774 3506.18 541.9668208645717 3484.82 542.3819854309565 3463.46 542.8720157388207 3442.1 543.430105811666 3420.74 543.8452703780507 3399.38 544.348912638911 3378.02 544.8117190407827 3356.66 545.3017493486468 3335.3 545.7917796565109 3313.94 546.3226458233637 3292.58 546.9011538257032 3271.22 547.7655128409635 3249.86 548.2555431488277 3228.5 548.6775136917106 3228.5 707.1206465677674Z" fill="#f6a118" opacity="0.9" />
		</g>
		<g>
			<path d="M3228.5 548.6775136917106 3249.86 548.2555431488277 3271.22 547.7655128409635 3292.58 546.9011538257032 3313.94 546.3226458233637 3335.3 545.7917796565109 3356.66 545.3017493486468 3378.02 544.8117190407827 3399.38 544.348912638911 3420.74 543.8452703780507 3442.1 543.430105811666 3463.46 542.8720157388207 3484.82 542.3819854309565 3506.18 541.9668208645717 3527.54 541.5856861806774 3548.9 541.3610889562398 3570.26 540.9527303663531 3591.62 540.5103418939757 3612.98 540.0543414686022 3634.34 539.5302812782475 3655.7 539.0266390173872 3677.06 538.6250864039985 3698.42 538.2167278141118 3719.7799999999997 537.7879512947306 3741.14 537.379592704844 3762.5 537.0801297389271 3783.86 536.7942787260063 3805.2200000000003 536.5288456425799 3826.58 536.2429946296593 3847.94 535.9639495932365 3869.3 535.5964268623385 3890.66 535.3037698729197 3912.02 535.1608443664593 3933.38 534.9838889775084 3954.74 534.534694528633 3976.1 534.2080076567236 3997.46 533.6771414898709 4018.8199999999997 533.3776785239539 4040.18 533.0646036050407 4061.54 532.8740362630934 4082.9 532.5541553676823 4104.26 532.2478864252672 4125.62 531.9756473653428 4146.98 531.6693784229277 4168.34 531.2337959270485 4189.7 530.8050194076674 4211.0599999999995 530.5668102302334 4232.42 530.355824958792 4253.78 530.0359440633806 4275.139999999999 529.6752273089808 4296.5 529.2396448131016 4296.5 455.02047110118576 4275.139999999999 455.4832775030574 4253.78 455.8576062104535 4232.42 456.2047110118574 4211.0599999999995 456.41569628329876 4189.7 456.6607114372308 4168.34 457.1030999096082 4146.98 457.5386824054874 4125.62 457.84495134790245 4104.26 458.1171904078269 4082.9 458.43707130323816 4061.54 458.7705641516456 4040.18 458.97474344658906 4018.8199999999997 459.2878183655023 3997.46 459.6076992609136 3976.1 460.17259531025684 3954.74 460.5060881586644 3933.38 460.968894560536 3912.02 461.152655925985 3890.66 461.29558143244543 3869.3 461.6290742808529 3847.94 462.0442388472377 3826.58 462.37773169564537 3805.2200000000003 462.6840006380603 3783.86 462.95623969798476 3762.5 463.2761205933962 3741.14 463.6232253947998 3719.7799999999997 464.1336736321582 3698.42 464.6100919870261 3677.06 465.0660924123996 3655.7 465.5152868612751 3634.34 466.1346307226033 3612.98 466.6995267719467 3591.62 467.1827511033126 3570.26 467.66597543467867 3548.9 468.0879459775616 3527.54 468.3397671079917 3506.18 468.7753496038709 3484.82 469.2721858882331 3463.46 469.78944010208966 3442.1 470.3679481044293 3420.74 470.7967246238103 3399.38 471.3343967671611 3378.02 471.8380390280215 3356.66 472.34168128888183 3335.3 472.88615940873086 3313.94 473.45105545807417 3292.58 474.06359334290426 3271.22 475.02323602913816 3249.86 475.5677141489872 3228.5 476.04413250385505 3228.5 548.6775136917106Z" fill="#55c0e9" opacity="0.9" />
		</g>
		<g>
			<path d="M3228.5 476.04413250385505 3249.86 475.5677141489872 3271.22 475.02323602913816 3292.58 474.06359334290426 3313.94 473.45105545807417 3335.3 472.88615940873086 3356.66 472.34168128888183 3378.02 471.8380390280215 3399.38 471.3343967671611 3420.74 470.7967246238103 3442.1 470.3679481044293 3463.46 469.78944010208966 3484.82 469.2721858882331 3506.18 468.7753496038709 3527.54 468.3397671079917 3548.9 468.0879459775616 3570.26 467.66597543467867 3591.62 467.1827511033126 3612.98 466.6995267719467 3634.34 466.1346307226033 3655.7 465.5152868612751 3677.06 465.0660924123996 3698.42 464.6100919870261 3719.7799999999997 464.1336736321582 3741.14 463.6232253947998 3762.5 463.2761205933962 3783.86 462.95623969798476 3805.2200000000003 462.6840006380603 3826.58 462.37773169564537 3847.94 462.0442388472377 3869.3 461.6290742808529 3890.66 461.29558143244543 3912.02 461.152655925985 3933.38 460.968894560536 3954.74 460.5060881586644 3976.1 460.17259531025684 3997.46 459.6076992609136 4018.8199999999997 459.2878183655023 4040.18 458.97474344658906 4061.54 458.7705641516456 4082.9 458.43707130323816 4104.26 458.1171904078269 4125.62 457.84495134790245 4146.98 457.5386824054874 4168.34 457.1030999096082 4189.7 456.6607114372308 4211.0599999999995 456.41569628329876 4232.42 456.2047110118574 4253.78 455.8576062104535 4275.139999999999 455.4832775030574 4296.5 455.02047110118576 4296.5 399.27952358164515 4275.139999999999 399.97373318445267 4253.78 400.7019726697506 4232.42 401.2668687190941 4211.0599999999995 401.7228691444675 4189.7 402.13803371085237 4168.34 402.6280640187165 4146.98 403.3154676450259 4125.62 403.7850800233956 4104.26 404.17302068378797 4082.9 404.7991705216143 4061.54 405.4729621949274 4040.18 405.95618652629344 4018.8199999999997 406.61636624661037 3997.46 407.07236667198396 3976.1 407.80741213378 3954.74 408.2702185356517 3933.38 408.8555325144893 3912.02 409.1005476684213 3890.66 409.30472696336477 3869.3 409.747115435742 3847.94 410.2643696495985 3826.58 410.6523103099911 3805.2200000000003 411.09469878236825 3783.86 411.48944541925874 3762.5 411.92502791513806 3741.14 412.4218641995002 3719.7799999999997 413.0684319668208 3698.42 413.5652682511831 3677.06 414.21183601850373 3655.7 414.8175679268358 3634.34 415.4913596001489 3612.98 416.2059871324508 3591.62 416.72324134630725 3570.26 417.369809113628 3548.9 417.96873504546187 3527.54 418.3158398468655 3506.18 418.92157175519753 3484.82 419.62258733450307 3463.46 420.3031849843144 3442.1 420.942946775137 3420.74 421.5350667304727 3399.38 422.161216568299 3378.02 422.8282022651141 3356.66 423.50199393842723 3335.3 424.16217365874417 3313.94 424.8631892380497 3292.58 425.55739884085716 3271.22 426.7688626575212 3249.86 427.4494603073325 3228.5 428.13686393364185 3228.5 476.04413250385505Z" fill="#fdd5a4" opacity="0.9" />
		</g>
		<g>
			<path d="M3228.5 428.13686393364185 3249.86 427.4494603073325 3271.22 426.7688626575212 3292.58 425.55739884085716 3313.94 424.8631892380497 3335.3 424.16217365874417 3356.66 423.50199393842723 3378.02 422.8282022651141 3399.38 422.161216568299 3420.74 421.5350667304727 3442.1 420.942946775137 3463.46 420.3031849843144 3484.82 419.62258733450307 3506.18 418.92157175519753 3527.54 418.3158398468655 3548.9 417.96873504546187 3570.26 417.369809113628 3591.62 416.72324134630725 3612.98 416.2059871324508 3634.34 415.4913596001489 3655.7 414.8175679268358 3677.06 414.21183601850373 3698.42 413.5652682511831 3719.7799999999997 413.0684319668208 3741.14 412.4218641995002 3762.5 411.92502791513806 3783.86 411.48944541925874 3805.2200000000003 411.09469878236825 3826.58 410.6523103099911 3847.94 410.2643696495985 3869.3 409.747115435742 3890.66 409.30472696336477 3912.02 409.1005476684213 3933.38 408.8555325144893 3954.74 408.2702185356517 3976.1 407.80741213378 3997.46 407.07236667198396 4018.8199999999997 406.61636624661037 4040.18 405.95618652629344 4061.54 405.4729621949274 4082.9 404.7991705216143 4104.26 404.17302068378797 4125.62 403.7850800233956 4146.98 403.3154676450259 4168.34 402.6280640187165 4189.7 402.13803371085237 4211.0599999999995 401.7228691444675 4232.42 401.2668687190941 4253.78 400.7019726697506 4275.139999999999 399.97373318445267 4296.5 399.27952358164515 4296.5 398 4275.139999999999 398.6942096028075 4253.78 399.42244908810545 4232.42 399.9873451374489 4211.0599999999995 400.44334556282234 4189.7 400.8585101292072 4168.34 401.34854043707134 4146.98 402.0359440633807 4125.62 402.50555644175046 4104.26 402.8934971021428 4082.9 403.51964693996916 4061.54 404.19343861328224 4040.18 404.6766629446483 4018.8199999999997 405.3368426649652 3997.46 405.7928430903388 3976.1 406.52788855213487 3954.74 406.9906949540065 3933.38 407.57600893284416 3912.02 407.82102408677616 3890.66 408.0252033817196 3869.3 408.46759185409684 3847.94 408.98484606795336 3826.58 409.3863986813422 3805.2200000000003 409.82878715371936 3783.86 410.22353379060985 3762.5 410.65911628648917 3741.14 411.1559525708513 3719.7799999999997 411.8025203381719 3698.42 412.2993566225342 3677.06 412.94592438985484 3655.7 413.5516562981869 3634.34 414.2254479715 3612.98 414.9400755038019 3591.62 415.45732971765835 3570.26 416.1038974849791 3548.9 416.702823416813 3527.54 417.0499282182166 3506.18 417.65566012654864 3484.82 418.3566757058542 3463.46 419.0372733556655 3442.1 419.6770351464881 3420.74 420.2691551018238 3399.38 420.8953049396501 3378.02 421.5622906364652 3356.66 422.23608230977834 3335.3 422.8962620300953 3313.94 423.5972776094008 3292.58 424.29148721220827 3271.22 425.5029510288723 3249.86 426.1835486786836 3228.5 426.87095230499295 3228.5 428.13686393364185Z" fill="#005aa6" opacity="0.9" />
		</g>
		<g>
			<rect x="4372" y="431" width="22.9995" height="23" fill="#e62d39" />
		</g>
		<g>
			<text fill="#595959" font-family="Verdana,Open Sans,DejaVu Sans,sans-serif" font-weight="400" font-size="41" transform="matrix(1 0 0 1 4404.56 454)">Smartphone</text>
		</g>
		<g>
			<rect x="4372" y="508" width="22.9995" height="23" fill="#f6a118" />
		</g>
		<g>
			<text fill="#595959" font-family="Verdana,Open Sans,DejaVu Sans,sans-serif" font-weight="400" font-size="41" transform="matrix(1 0 0 1 4404.56 531)">Tablet</text>
		</g>
		<g>
			<rect x="4372" y="585" width="22.9995" height="23" fill="#55c0e9" />
		</g>
		<g>
			<text fill="#595959" font-family="Verdana,Open Sans,DejaVu Sans,sans-serif" font-weight="400" font-size="41" transform="matrix(1 0 0 1 4404.56 608)">Other</text>
		</g>
		<g>
			<rect x="4372" y="662" width="22.9995" height="23" fill="#fdd5a4" />
		</g>
		<g>
			<text fill="#595959" font-family="Verdana,Open Sans,DejaVu Sans,sans-serif" font-weight="400" font-size="41" transform="matrix(1 0 0 1 4404.56 685)">Tv</text>
		</g>
		<g>
			<rect x="4372" y="739" width="22.9995" height="23" fill="#005aa6" />
		</g>
		<g>
			<text fill="#595959" font-family="Verdana,Open Sans,DejaVu Sans,sans-serif" font-weight="400" font-size="41" transform="matrix(1 0 0 1 4404.56 762)">Desktop</text>
		</g>
	</g>
</svg>
