<svg width="1763" height="1046"
    xmlns="http://www.w3.org/2000/svg"
	xmlns:xlink="http://www.w3.org/1999/xlink" xml:space="preserve" overflow="hidden">
	<defs>
		<clipPath id="clip0">
			<rect x="2917" y="346" width="1763" height="1046"/>
		</clipPath>
	</defs>
	<g clip-path="url(#clip0)" transform="translate(-2917 -346)">
		<rect x="2918" y="347" width="1760" height="1043" fill="#FFFFFF" />
		<g>
			<path d="
			M3228.5 974.532 4296.5 974.532
			M3228.5 910.53 4296.5 910.53
			M3228.5 846.528 4296.5 846.528
			M3228.5 781.526 4296.5 781.526
			M3228.5 717.524 4296.5 717.524
			M3228.5 653.522 4296.5 653.522
			M3228.5 589.52 4296.5 589.52
			M3228.5 525.517 4296.5 525.517
			M3228.5 461.515 4296.5 461.515
			M3228.5 397.5 4296.5 397.5" stroke="#D9D9D9" stroke-width="3.4375" stroke-linejoin="round" stroke-miterlimit="10" fill="none" />
		</g>
		<g>
			<path d="M 1038.5 4296.5 1038.5" stroke="#D9D9D9" stroke-width="3.4375" stroke-linejoin="round" stroke-miterlimit="10" fill="none" fill-rule="evenodd" />
		</g>
		<g>
			<text fill="#595959" font-family="Verdana,Open Sans,DejaVu Sans,sans-serif" font-weight="400" font-size="41" transform="matrix(6.12323e-17 -1 1 6.12323e-17 3243.564697265625 1211.43017578125)">04-Nov</text>
		</g>
		<g>
			<text fill="#595959" font-family="Verdana,Open Sans,DejaVu Sans,sans-serif" font-weight="400" font-size="41" transform="matrix(6.12323e-17 -1 1 6.12323e-17 3329.004697265625 1207.0859375)">09-Dec</text>
		</g>
		<g>
			<text fill="#595959" font-family="Verdana,Open Sans,DejaVu Sans,sans-serif" font-weight="400" font-size="41" transform="matrix(6.12323e-17 -1 1 6.12323e-17 3418.09826171875 1191.6508712768555)">06-Jan</text>
		</g>
		<g>
			<text fill="#595959" font-family="Verdana,Open Sans,DejaVu Sans,sans-serif" font-weight="400" font-size="41" transform="matrix(6.12323e-17 -1 1 6.12323e-17 3500.595390625 1203.0419921875)">03-Feb</text>
		</g>
		<g>
			<text fill="#595959" font-family="Verdana,Open Sans,DejaVu Sans,sans-serif" font-weight="400" font-size="41" transform="matrix(6.12323e-17 -1 1 6.12323e-17 3585.324697265625 1212.0107421875)">03-Mar</text>
		</g>
		<g>
			<text fill="#595959" font-family="Verdana,Open Sans,DejaVu Sans,sans-serif" font-weight="400" font-size="41" transform="matrix(6.12323e-17 -1 1 6.12323e-17 3670.744677734375 1212.1708984375)">31-Mar</text>
		</g>
		<g>
			<text fill="#595959" font-family="Verdana,Open Sans,DejaVu Sans,sans-serif" font-weight="400" font-size="41" transform="matrix(6.12323e-17 -1 1 6.12323e-17 3760.909287109375 1203.3022384643555)">28-Apr</text>
		</g>
		<g>
			<text fill="#595959" font-family="Verdana,Open Sans,DejaVu Sans,sans-serif" font-weight="400" font-size="41" transform="matrix(6.12323e-17 -1 1 6.12323e-17 3846.349287109375 1216.51513671875)">26-May</text>
		</g>
		<g>
			<text fill="#595959" font-family="Verdana,Open Sans,DejaVu Sans,sans-serif" font-weight="400" font-size="41" transform="matrix(6.12323e-17 -1 1 6.12323e-17 3930.73826171875 1194.1733322143555)">30-Jun</text>
		</g>
		<g>
			<text fill="#595959" font-family="Verdana,Open Sans,DejaVu Sans,sans-serif" font-weight="400" font-size="41" transform="matrix(6.12323e-17 -1 1 6.12323e-17 4016.888955078125 1179.0385665893555)">28-Jul</text>
		</g>
		<g>
			<text fill="#595959" font-family="Verdana,Open Sans,DejaVu Sans,sans-serif" font-weight="400" font-size="41" transform="matrix(6.12323e-17 -1 1 6.12323e-17 4102.669287109375 1208.66748046875)">25-Aug</text>
		</g>
		<g>
			<text fill="#595959" font-family="Verdana,Open Sans,DejaVu Sans,sans-serif" font-weight="400" font-size="41" transform="matrix(6.12323e-17 -1 1 6.12323e-17 4188.109287109375 1204.42333984375)">22-Sep</text>
		</g>
		<g>
			<text fill="#595959" font-family="Verdana,Open Sans,DejaVu Sans,sans-serif" font-weight="400" font-size="41" transform="matrix(6.12323e-17 -1 1 6.12323e-17 4268.844697265625 1201.1401290893555)">20-Oct</text>
		</g>
		<g>
			<text fill="#595959" font-family="Verdana,Open Sans,DejaVu Sans,sans-serif" font-weight="400" font-size="41" transform="matrix(1 0 0 1 3169.14111328125 1050)">0</text>
		</g>
		<g>
			<text fill="#595959" font-family="Verdana,Open Sans,DejaVu Sans,sans-serif" font-weight="400" font-size="41" transform="matrix(1 0 0 1 3067.0415115356445 922)">18,420</text>
		</g>
		<g>
			<text fill="#595959" font-family="Verdana,Open Sans,DejaVu Sans,sans-serif" font-weight="400" font-size="41" transform="matrix(1 0 0 1 3072.2465896606445 794)">36,841</text>
		</g>
		<g>
			<text fill="#595959" font-family="Verdana,Open Sans,DejaVu Sans,sans-serif" font-weight="400" font-size="41" transform="matrix(1 0 0 1 3073.0273513793945 666)">55,261</text>
		</g>
		<g>
			<text fill="#595959" font-family="Verdana,Open Sans,DejaVu Sans,sans-serif" font-weight="400" font-size="41" transform="matrix(1 0 0 1 3065.3198318481445 538)">73,682</text>
		</g>
		<g>
			<text fill="#595959" font-family="Verdana,Open Sans,DejaVu Sans,sans-serif" font-weight="400" font-size="41" transform="matrix(1 0 0 1 3065.5600662231445 410)">92,102</text>
		</g>
		<g>
			<text fill="#595959" font-family="Verdana,Open Sans,DejaVu Sans,sans-serif" font-weight="400" font-size="41" transform="matrix(1 0 0 1 3556.97119140625 1321)">Week Commencing</text>
		</g>
		<g>
			<text fill="#595959" font-family="Verdana,Open Sans,DejaVu Sans,sans-serif" font-weight="400" font-size="46" transform="matrix(6.12323e-17 -1 1 6.12323e-17 3019.73 1028.5532531738281)">Number of Hardware Profiles</text>
		</g>
		<rect x="2918.5" y="347.5" width="1760" height="1043" stroke="#D9D9D9" stroke-width="3.4375" stroke-linejoin="round" stroke-miterlimit="10" fill="none" />
		<g>
			<path d="M3228.5 1038 3249.86 1038 3271.22 1038 3292.58 1038 3313.94 1038 3335.3 1038 3356.66 1038 3378.02 1038 3399.38 1038 3420.74 1038 3442.1 1038 3463.46 1038 3484.82 1038 3506.18 1038 3527.54 1038 3548.9 1038 3570.26 1038 3591.62 1038 3612.98 1038 3634.34 1038 3655.7 1038 3677.06 1038 3698.42 1038 3719.7799999999997 1038 3741.14 1038 3762.5 1038 3783.86 1038 3805.2200000000003 1038 3826.58 1038 3847.94 1038 3869.3 1038 3890.66 1038 3912.02 1038 3933.38 1038 3954.74 1038 3976.1 1038 3997.46 1038 4018.8199999999997 1038 4040.18 1038 4061.54 1038 4082.9 1038 4104.26 1038 4125.62 1038 4146.98 1038 4168.34 1038 4189.7 1038 4211.0599999999995 1038 4232.42 1038 4253.78 1038 4275.139999999999 1038 4296.5 1038 4296.5 692.2893748235651 4275.139999999999 692.5534298929448 4253.78 692.8522290504006 4232.42 693.0884888493192 4211.0599999999995 693.3455951010835 4189.7 693.6860871642309 4168.34 694.0960674035309 4146.98 694.457405919524 4125.62 694.7770515298256 4104.26 695.0897483225119 4082.9 695.2912640333543 4061.54 695.6178584612712 4040.18 695.888862348266 4018.8199999999997 696.2085079585677 3997.46 696.6045905626371 3976.1 696.8964409024777 3954.74 697.1674447894725 3933.38 697.5009880350046 3912.02 697.8206336453063 3890.66 698.1124839851469 3869.3 698.4807713187553 3847.94 698.9324444637467 3826.58 699.4814010553516 3805.2200000000003 699.8496883889601 3783.86 700.1762828168769 3762.5 700.5584677857158 3741.14 700.9267551193243 3719.7799999999997 701.2325030943953 3698.42 701.5868927927731 3677.06 701.9343336735358 3655.7 702.2331328309917 3634.34 702.5597272589087 3612.98 702.9419122277475 3591.62 703.2824042908949 3570.26 703.6367939892727 3548.9 703.9286443291134 3527.54 704.3177781155675 3506.18 704.6721678139454 3484.82 705.0613016003995 3463.46 705.4017936635469 3442.1 705.7005928210028 3420.74 705.9854943432281 3399.38 706.2564982302231 3378.02 706.45106512345 3356.66 706.6317343814467 3335.3 706.9027382684415 3313.94 707.2779744196652 3292.58 707.6532105708889 3271.22 707.9659073635752 3249.86 708.2230136153396 3228.5 708.4453757790276 3228.5 1038Z" fill="#e62d39" opacity="0.9" />
		</g>
		<g>
			<path d="M3228.5 708.4453757790276 3249.86 708.2230136153396 3271.22 707.9659073635752 3292.58 707.6532105708889 3313.94 707.2779744196652 3335.3 706.9027382684415 3356.66 706.6317343814467 3378.02 706.45106512345 3399.38 706.2564982302231 3420.74 705.9854943432281 3442.1 705.7005928210028 3463.46 705.4017936635469 3484.82 705.0613016003995 3506.18 704.6721678139454 3527.54 704.3177781155675 3548.9 703.9286443291134 3570.26 703.6367939892727 3591.62 703.2824042908949 3612.98 702.9419122277475 3634.34 702.5597272589087 3655.7 702.2331328309917 3677.06 701.9343336735358 3698.42 701.5868927927731 3719.7799999999997 701.2325030943953 3741.14 700.9267551193243 3762.5 700.5584677857158 3783.86 700.1762828168769 3805.2200000000003 699.8496883889601 3826.58 699.4814010553516 3847.94 698.9324444637467 3869.3 698.4807713187553 3890.66 698.1124839851469 3912.02 697.8206336453063 3933.38 697.5009880350046 3954.74 697.1674447894725 3976.1 696.8964409024777 3997.46 696.6045905626371 4018.8199999999997 696.2085079585677 4040.18 695.888862348266 4061.54 695.6178584612712 4082.9 695.2912640333543 4104.26 695.0897483225119 4125.62 694.7770515298256 4146.98 694.457405919524 4168.34 694.0960674035309 4189.7 693.6860871642309 4211.0599999999995 693.3455951010835 4232.42 693.0884888493192 4253.78 692.8522290504006 4275.139999999999 692.5534298929448 4296.5 692.2893748235651 4296.5 526.8727714924757 4275.139999999999 527.2897005493909 4253.78 527.7274760591517 4232.42 528.144405116067 4211.0599999999995 528.5543853553668 4189.7 529.0685978588955 4168.34 529.6036568152701 4146.98 530.069227595492 4125.62 530.5209007404833 4104.26 530.9378297973984 4082.9 531.1671407787019 4061.54 531.5562745651561 4040.18 531.9801524396864 4018.8199999999997 532.4804673079847 3997.46 533.0502703524354 3976.1 533.4741482269658 3954.74 533.9883607304944 3933.38 534.4608803283315 3912.02 534.9611951966299 3890.66 535.461510064928 3869.3 536.0035178389177 3847.94 536.5941673362142 3826.58 537.4766671733512 3805.2200000000003 537.9769820416495 3783.86 538.407808733795 3762.5 538.8664306964018 3741.14 539.3528479294696 3719.7799999999997 539.7489305335389 3698.42 540.2909383075284 3677.06 540.7912531758267 3655.7 541.2568239560487 3634.34 541.7640876419622 3612.98 542.2644025102603 3591.62 542.7091268376365 3570.26 543.160799982628 3548.9 543.5499337690821 3527.54 544.0085557316888 3506.18 544.5019217823717 3484.82 544.9952878330546 3463.46 545.3983192547392 3442.1 545.8499923997308 3420.74 546.2947167271068 3399.38 546.7185946016374 3378.02 546.9548544005559 3356.66 547.1633189290135 3335.3 547.5524527154676 3313.94 547.9693817723828 3292.58 548.5322359992183 3271.22 548.9283186032876 3249.86 549.3313500249724 3228.5 549.6996373585807 3228.5 708.4453757790276Z" fill="#f6a118" opacity="0.9" />
		</g>
		<g>
			<path d="M3228.5 549.6996373585807 3249.86 549.3313500249724 3271.22 548.9283186032876 3292.58 548.5322359992183 3313.94 547.9693817723828 3335.3 547.5524527154676 3356.66 547.1633189290135 3378.02 546.9548544005559 3399.38 546.7185946016374 3420.74 546.2947167271068 3442.1 545.8499923997308 3463.46 545.3983192547392 3484.82 544.9952878330546 3506.18 544.5019217823717 3527.54 544.0085557316888 3548.9 543.5499337690821 3570.26 543.160799982628 3591.62 542.7091268376365 3612.98 542.2644025102603 3634.34 541.7640876419622 3655.7 541.2568239560487 3677.06 540.7912531758267 3698.42 540.2909383075284 3719.7799999999997 539.7489305335389 3741.14 539.3528479294696 3762.5 538.8664306964018 3783.86 538.407808733795 3805.2200000000003 537.9769820416495 3826.58 537.4766671733512 3847.94 536.5941673362142 3869.3 536.0035178389177 3890.66 535.461510064928 3912.02 534.9611951966299 3933.38 534.4608803283315 3954.74 533.9883607304944 3976.1 533.4741482269658 3997.46 533.0502703524354 4018.8199999999997 532.4804673079847 4040.18 531.9801524396864 4061.54 531.5562745651561 4082.9 531.1671407787019 4104.26 530.9378297973984 4125.62 530.5209007404833 4146.98 530.069227595492 4168.34 529.6036568152701 4189.7 529.0685978588955 4211.0599999999995 528.5543853553668 4232.42 528.144405116067 4253.78 527.7274760591517 4275.139999999999 527.2897005493909 4296.5 526.8727714924757 4296.5 451.5684349959827 4275.139999999999 452.0895963171267 4253.78 452.57601355019426 4232.42 453.0415843304163 4211.0599999999995 453.50020629302287 4189.7 454.1325486960109 4168.34 454.709300558077 4146.98 455.20266660875984 4125.62 455.6960326594427 4104.26 456.12685935158834 4082.9 456.3839656033528 4061.54 456.828689930729 4040.18 457.3359536166424 4018.8199999999997 457.8640637554017 3997.46 458.4547132526982 3976.1 458.89248876245904 3954.74 459.4414453540639 3933.38 459.95565785759254 3912.02 460.4698703611214 3890.66 461.02577577034157 3869.3 461.6025276324075 3847.94 462.22792121778036 3826.58 463.2077045015308 3805.2200000000003 463.7636099107512 3783.86 464.25002714381867 3762.5 464.72949555927124 3741.14 465.28540096849156 3719.7799999999997 465.7092788430219 3698.42 466.2721330698572 3677.06 466.8349872966927 3655.7 467.32140452976046 3634.34 467.83561703328917 3612.98 468.35677835443306 3591.62 468.8362467698855 3570.26 469.30876636772274 3548.9 469.75349069509895 3527.54 470.2538055633971 3506.18 470.7541204316953 3484.82 471.26138411760866 3463.46 471.67831317452385 3442.1 472.1786280428222 3420.74 472.66504527588967 3399.38 473.13061605611176 3378.02 473.37382467264547 3356.66 473.59618683633363 3335.3 474.0270135284792 3313.94 474.457840220625 3292.58 475.0762849883825 3271.22 475.4862652276823 3249.86 475.9240407374433 3228.5 476.37571388243475 3228.5 549.6996373585807Z" fill="#55c0e9" opacity="0.9" />
		</g>
		<g>
			<path d="M3228.5 476.37571388243475 3249.86 475.9240407374433 3271.22 475.4862652276823 3292.58 475.0762849883825 3313.94 474.457840220625 3335.3 474.0270135284792 3356.66 473.59618683633363 3378.02 473.37382467264547 3399.38 473.13061605611176 3420.74 472.66504527588967 3442.1 472.1786280428222 3463.46 471.67831317452385 3484.82 471.26138411760866 3506.18 470.7541204316953 3527.54 470.2538055633971 3548.9 469.75349069509895 3570.26 469.30876636772274 3591.62 468.8362467698855 3612.98 468.35677835443306 3634.34 467.83561703328917 3655.7 467.32140452976046 3677.06 466.8349872966927 3698.42 466.2721330698572 3719.7799999999997 465.7092788430219 3741.14 465.28540096849156 3762.5 464.72949555927124 3783.86 464.25002714381867 3805.2200000000003 463.7636099107512 3826.58 463.2077045015308 3847.94 462.22792121778036 3869.3 461.6025276324075 3890.66 461.02577577034157 3912.02 460.4698703611214 3933.38 459.95565785759254 3954.74 459.4414453540639 3976.1 458.89248876245904 3997.46 458.4547132526982 4018.8199999999997 457.8640637554017 4040.18 457.3359536166424 4061.54 456.828689930729 4082.9 456.3839656033528 4104.26 456.12685935158834 4125.62 455.6960326594427 4146.98 455.20266660875984 4168.34 454.709300558077 4189.7 454.1325486960109 4211.0599999999995 453.50020629302287 4232.42 453.0415843304163 4253.78 452.57601355019426 4275.139999999999 452.0895963171267 4296.5 451.5684349959827 4296.5 399.292480076437 4275.139999999999 399.95261774988603 4253.78 400.45988143579933 4232.42 401.12001910924846 4211.0599999999995 401.73846387700587 4189.7 402.4263968209159 4168.34 403.1560226705176 4146.98 403.68413280927666 4125.62 404.3442704827256 4104.26 404.9557664328678 4082.9 405.3101561312458 4061.54 405.9286008990033 4040.18 406.6443291133743 4018.8199999999997 407.3392108748996 3997.46 407.9923997307334 3976.1 408.5969468632603 3954.74 409.23623808386344 3933.38 409.9172222101582 3912.02 410.60515515406837 3890.66 411.2791904627478 3869.3 411.9949186771188 3847.94 412.7036980738747 3826.58 413.9405876093895 3805.2200000000003 414.63546937091496 3783.86 415.33729995005524 3762.5 415.92100062973657 3741.14 416.60198475603147 3719.7799999999997 417.1092484419448 3698.42 417.8110790210852 3677.06 418.5546025059173 3655.7 419.2286378145968 3634.34 419.88877548804584 3612.98 420.5906060671863 3591.62 421.2715901934811 3570.26 421.9942672254674 3548.9 422.68220016937744 3527.54 423.38403074851794 3506.18 424.08586132765845 3484.82 424.7737942715684 3463.46 425.3922390393259 3442.1 426.1079672536971 3420.74 426.7959001976069 3399.38 427.4977307767476 3378.02 427.78263229897277 3356.66 428.08143145642873 3335.3 428.74851794749287 3313.94 429.436450891403 3292.58 430.63859633884175 3271.22 431.2848363770602 3249.86 431.94497405050924 3228.5 432.62595817680403 3228.5 476.37571388243475Z" fill="#fdd5a4" opacity="0.9" />
		</g>
		<g>
			<path d="M3228.5 432.62595817680403 3249.86 431.94497405050924 3271.22 431.2848363770602 3292.58 430.63859633884175 3313.94 429.436450891403 3335.3 428.74851794749287 3356.66 428.08143145642873 3378.02 427.78263229897277 3399.38 427.4977307767476 3420.74 426.7959001976069 3442.1 426.1079672536971 3463.46 425.3922390393259 3484.82 424.7737942715684 3506.18 424.08586132765845 3527.54 423.38403074851794 3548.9 422.68220016937744 3570.26 421.9942672254674 3591.62 421.2715901934811 3612.98 420.5906060671863 3634.34 419.88877548804584 3655.7 419.2286378145968 3677.06 418.5546025059173 3698.42 417.8110790210852 3719.7799999999997 417.1092484419448 3741.14 416.60198475603147 3762.5 415.92100062973657 3783.86 415.33729995005524 3805.2200000000003 414.63546937091496 3826.58 413.9405876093895 3847.94 412.7036980738747 3869.3 411.9949186771188 3890.66 411.2791904627478 3912.02 410.60515515406837 3933.38 409.9172222101582 3954.74 409.23623808386344 3976.1 408.5969468632603 3997.46 407.9923997307334 4018.8199999999997 407.3392108748996 4040.18 406.6443291133743 4061.54 405.9286008990033 4082.9 405.3101561312458 4104.26 404.9557664328678 4125.62 404.3442704827256 4146.98 403.68413280927666 4168.34 403.1560226705176 4189.7 402.4263968209159 4211.0599999999995 401.73846387700587 4232.42 401.12001910924846 4253.78 400.45988143579933 4275.139999999999 399.95261774988603 4296.5 399.292480076437 4296.5 398 4275.139999999999 398.660137673449 4253.78 399.1674013593623 4232.42 399.82753903281144 4211.0599999999995 400.44598380056885 4189.7 401.1339167444789 4168.34 401.86354259408057 4146.98 402.39165273283965 4125.62 403.0517904062886 4104.26 403.6632863564308 4082.9 404.01767605480876 4061.54 404.6361208225663 4040.18 405.35184903693727 4018.8199999999997 406.0467307984626 3997.46 406.69991965429637 3976.1 407.3044667868233 3954.74 407.9437580074264 3933.38 408.62474213372116 3912.02 409.31267507763135 3890.66 409.9867103863108 3869.3 410.7024386006818 3847.94 411.4112179974377 3826.58 412.6481075329525 3805.2200000000003 413.34298929447795 3783.86 414.0448198736182 3762.5 414.62852055329955 3741.14 415.30950467959445 3719.7799999999997 415.8167683655078 3698.42 416.5185989446482 3677.06 417.26212242948026 3655.7 417.9361577381598 3634.34 418.5962954116088 3612.98 419.29812599074927 3591.62 419.97911011704406 3570.26 420.7017871490304 3548.9 421.3897200929404 3527.54 422.0915506720809 3506.18 422.79338125122143 3484.82 423.4813141951314 3463.46 424.09975896288887 3442.1 424.8154871772601 3420.74 425.5034201211699 3399.38 426.20525070031056 3378.02 426.49015222253576 3356.66 426.7889513799917 3335.3 427.45603787105586 3313.94 428.143970814966 3292.58 429.34611626240473 3271.22 429.99235630062316 3249.86 430.65249397407223 3228.5 431.333478100367 3228.5 432.62595817680403Z" fill="#005aa6" opacity="0.9" />
		</g>
		<g>
			<rect x="4372" y="431" width="22.9995" height="23" fill="#e62d39" />
		</g>
		<g>
			<text fill="#595959" font-family="Verdana,Open Sans,DejaVu Sans,sans-serif" font-weight="400" font-size="41" transform="matrix(1 0 0 1 4404.56 454)">Smartphone</text>
		</g>
		<g>
			<rect x="4372" y="508" width="22.9995" height="23" fill="#f6a118" />
		</g>
		<g>
			<text fill="#595959" font-family="Verdana,Open Sans,DejaVu Sans,sans-serif" font-weight="400" font-size="41" transform="matrix(1 0 0 1 4404.56 531)">Tablet</text>
		</g>
		<g>
			<rect x="4372" y="585" width="22.9995" height="23" fill="#55c0e9" />
		</g>
		<g>
			<text fill="#595959" font-family="Verdana,Open Sans,DejaVu Sans,sans-serif" font-weight="400" font-size="41" transform="matrix(1 0 0 1 4404.56 608)">Other</text>
		</g>
		<g>
			<rect x="4372" y="662" width="22.9995" height="23" fill="#fdd5a4" />
		</g>
		<g>
			<text fill="#595959" font-family="Verdana,Open Sans,DejaVu Sans,sans-serif" font-weight="400" font-size="41" transform="matrix(1 0 0 1 4404.56 685)">Tv</text>
		</g>
		<g>
			<rect x="4372" y="739" width="22.9995" height="23" fill="#005aa6" />
		</g>
		<g>
			<text fill="#595959" font-family="Verdana,Open Sans,DejaVu Sans,sans-serif" font-weight="400" font-size="41" transform="matrix(1 0 0 1 4404.56 762)">Desktop</text>
		</g>
	</g>
</svg>
