<svg width="1763" height="1046"
    xmlns="http://www.w3.org/2000/svg"
	xmlns:xlink="http://www.w3.org/1999/xlink" xml:space="preserve" overflow="hidden">
	<defs>
		<clipPath id="clip0">
			<rect x="2917" y="346" width="1763" height="1046"/>
		</clipPath>
	</defs>
	<g clip-path="url(#clip0)" transform="translate(-2917 -346)">
		<rect x="2918" y="347" width="1760" height="1043" fill="#FFFFFF" />
		<g>
			<path d="
			M3228.5 974.532 4296.5 974.532
			M3228.5 910.53 4296.5 910.53
			M3228.5 846.528 4296.5 846.528
			M3228.5 781.526 4296.5 781.526
			M3228.5 717.524 4296.5 717.524
			M3228.5 653.522 4296.5 653.522
			M3228.5 589.52 4296.5 589.52
			M3228.5 525.517 4296.5 525.517
			M3228.5 461.515 4296.5 461.515
			M3228.5 397.5 4296.5 397.5" stroke="#D9D9D9" stroke-width="3.4375" stroke-linejoin="round" stroke-miterlimit="10" fill="none" />
		</g>
		<g>
			<path d="M 1038.5 4296.5 1038.5" stroke="#D9D9D9" stroke-width="3.4375" stroke-linejoin="round" stroke-miterlimit="10" fill="none" fill-rule="evenodd" />
		</g>
		<g>
			<text fill="#595959" font-family="Verdana,sans-serif" font-weight="400" font-size="41" transform="matrix(6.12323e-17 -1 1 6.12323e-17 3244.5 1210)">22-Jan</text>
		</g>
		<g>
			<text fill="#595959" font-family="Verdana,sans-serif" font-weight="400" font-size="41" transform="matrix(6.12323e-17 -1 1 6.12323e-17 3328.264705882353 1214)">19-Feb</text>
		</g>
		<g>
			<text fill="#595959" font-family="Verdana,sans-serif" font-weight="400" font-size="41" transform="matrix(6.12323e-17 -1 1 6.12323e-17 3412.029411764706 1221)">18-Mar</text>
		</g>
		<g>
			<text fill="#595959" font-family="Verdana,sans-serif" font-weight="400" font-size="41" transform="matrix(6.12323e-17 -1 1 6.12323e-17 3499.294117647059 1214)">15-Apr</text>
		</g>
		<g>
			<text fill="#595959" font-family="Verdana,sans-serif" font-weight="400" font-size="41" transform="matrix(6.12323e-17 -1 1 6.12323e-17 3583.0588235294117 1226)">13-May</text>
		</g>
		<g>
			<text fill="#595959" font-family="Verdana,sans-serif" font-weight="400" font-size="41" transform="matrix(6.12323e-17 -1 1 6.12323e-17 3663.323529411765 1209)">10-Jun</text>
		</g>
		<g>
			<text fill="#595959" font-family="Verdana,sans-serif" font-weight="400" font-size="41" transform="matrix(6.12323e-17 -1 1 6.12323e-17 3747.0882352941176 1197)">08-Jul</text>
		</g>
		<g>
			<text fill="#595959" font-family="Verdana,sans-serif" font-weight="400" font-size="41" transform="matrix(6.12323e-17 -1 1 6.12323e-17 3834.3529411764707 1221)">05-Aug</text>
		</g>
		<g>
			<text fill="#595959" font-family="Verdana,sans-serif" font-weight="400" font-size="41" transform="matrix(6.12323e-17 -1 1 6.12323e-17 3918.1176470588234 1222)">02-Sep</text>
		</g>
		<g>
			<text fill="#595959" font-family="Verdana,sans-serif" font-weight="400" font-size="41" transform="matrix(6.12323e-17 -1 1 6.12323e-17 4001.8823529411766 1221)">30-Sep</text>
		</g>
		<g>
			<text fill="#595959" font-family="Verdana,sans-serif" font-weight="400" font-size="41" transform="matrix(6.12323e-17 -1 1 6.12323e-17 4082.1470588235293 1215)">28-Oct</text>
		</g>
		<g>
			<text fill="#595959" font-family="Verdana,sans-serif" font-weight="400" font-size="41" transform="matrix(6.12323e-17 -1 1 6.12323e-17 4165.911764705882 1224)">25-Nov</text>
		</g>
		<g>
			<text fill="#595959" font-family="Verdana,sans-serif" font-weight="400" font-size="41" transform="matrix(6.12323e-17 -1 1 6.12323e-17 4249.676470588235 1222)">30-Dec</text>
		</g>
		<g>
			<text fill="#595959" font-family="Verdana,sans-serif" font-weight="400" font-size="41" transform="matrix(1 0 0 1 3167.5 1050)">0</text>
		</g>
		<g>
			<text fill="#595959" font-family="Verdana,sans-serif" font-weight="400" font-size="41" transform="matrix(1 0 0 1 3051.5 922)">17,649</text>
		</g>
		<g>
			<text fill="#595959" font-family="Verdana,sans-serif" font-weight="400" font-size="41" transform="matrix(1 0 0 1 3048.5 794)">35,297</text>
		</g>
		<g>
			<text fill="#595959" font-family="Verdana,sans-serif" font-weight="400" font-size="41" transform="matrix(1 0 0 1 3048.5 666)">52,946</text>
		</g>
		<g>
			<text fill="#595959" font-family="Verdana,sans-serif" font-weight="400" font-size="41" transform="matrix(1 0 0 1 3047.5 538)">70,594</text>
		</g>
		<g>
			<text fill="#595959" font-family="Verdana,sans-serif" font-weight="400" font-size="41" transform="matrix(1 0 0 1 3048.5 410)">88,243</text>
		</g>
		<g>
			<text fill="#595959" font-family="Verdana,sans-serif" font-weight="400" font-size="41" transform="matrix(1 0 0 1 3544.5 1321)">Week Commencing</text>
		</g>
		<g>
			<text fill="#595959" font-family="Verdana,sans-serif" font-weight="400" font-size="46" transform="matrix(6.12323e-17 -1 1 6.12323e-17 3019.73 1048.25)">Number of Hardware Profiles</text>
		</g>
		<rect x="2918.5" y="347.5" width="1760" height="1043" stroke="#D9D9D9" stroke-width="3.4375" stroke-linejoin="round" stroke-miterlimit="10" fill="none" />
		<g>
			<path d="M3228.5 1038 3249.4411764705883 1038 3270.3823529411766 1038 3291.323529411765 1038 3312.264705882353 1038 3333.205882352941 1038 3354.1470588235293 1038 3375.0882352941176 1038 3396.029411764706 1038 3416.970588235294 1038 3437.9117647058824 1038 3458.8529411764707 1038 3479.794117647059 1038 3500.735294117647 1038 3521.676470588235 1038 3542.6176470588234 1038 3563.5588235294117 1038 3584.5 1038 3605.4411764705883 1038 3626.3823529411766 1038 3647.323529411765 1038 3668.264705882353 1038 3689.205882352941 1038 3710.1470588235293 1038 3731.0882352941176 1038 3752.029411764706 1038 3772.970588235294 1038 3793.9117647058824 1038 3814.8529411764707 1038 3835.7941176470586 1038 3856.735294117647 1038 3877.676470588235 1038 3898.6176470588234 1038 3919.5588235294117 1038 3940.5 1038 3961.4411764705883 1038 3982.3823529411766 1038 4003.323529411765 1038 4024.264705882353 1038 4045.2058823529414 1038 4066.1470588235293 1038 4087.0882352941176 1038 4108.029411764706 1038 4128.970588235294 1038 4149.911764705882 1038 4170.85294117647 1038 4191.794117647059 1038 4212.735294117647 1038 4233.676470588235 1038 4254.617647058823 1038 4275.558823529412 1038 4296.5 1038 4296.5 691.1686366057364 4275.558823529412 691.4659973029022 4254.617647058823 691.7488526002062 4233.676470588235 691.9519281982707 4212.735294117647 692.1404983964734 4191.794117647059 692.4233536937775 4170.85294117647 692.8149994900446 4149.911764705882 693.2066452863116 4128.970588235294 693.533016783201 4108.029411764706 693.8013666806432 4087.0882352941176 694.0334530784312 4066.1470588235293 694.3090556758043 4045.2058823529414 694.6644379724171 4024.264705882353 695.0270729689607 4003.323529411765 695.3606971657808 3982.3823529411766 695.6580578629466 3961.4411764705883 695.8466280611493 3940.5 696.2455265573474 3919.5588235294117 696.7314574527159 3898.6176470588234 697.007060050089 3877.676470588235 697.2101356481534 3856.735294117647 697.4639801457339 3835.7941176470586 697.7758462427614 3814.8529411764707 698.0659542399964 3793.9117647058824 698.2980406377843 3772.970588235294 698.6751810341897 3752.029411764706 698.9870471312172 3731.0882352941176 699.3206713280374 3710.1470588235293 699.625284725134 3689.205882352941 699.9444035220924 3668.264705882353 700.2127534195347 3647.323529411765 700.2417642192581 3626.3823529411766 700.3723128180138 3605.4411764705883 700.4520925172535 3584.5 700.7712113142119 3563.5588235294117 701.0032977119998 3542.6176470588234 701.1628571104791 3521.676470588235 701.4602178076448 3500.735294117647 701.8301055041193 3479.794117647059 702.2725201999026 3458.8529411764707 702.6351551964462 3437.9117647058824 702.9542739934045 3416.970588235294 703.1791076912616 3396.029411764706 703.4474575887039 3375.0882352941176 703.6867966864227 3354.1470588235293 703.8681141846946 3333.205882352941 704.0276735831737 3312.264705882353 704.1437167820677 3291.323529411765 704.3322869802704 3270.3823529411766 704.5281098784039 3249.4411764705883 705.0067880738416 3228.5 705.3549176705235 3228.5 1038Z" fill="#e62d39" opacity="0.9" />
		</g>
		<g>
			<path d="M3228.5 705.3549176705235 3249.4411764705883 705.0067880738416 3270.3823529411766 704.5281098784039 3291.323529411765 704.3322869802704 3312.264705882353 704.1437167820677 3333.205882352941 704.0276735831737 3354.1470588235293 703.8681141846946 3375.0882352941176 703.6867966864227 3396.029411764706 703.4474575887039 3416.970588235294 703.1791076912616 3437.9117647058824 702.9542739934045 3458.8529411764707 702.6351551964462 3479.794117647059 702.2725201999026 3500.735294117647 701.8301055041193 3521.676470588235 701.4602178076448 3542.6176470588234 701.1628571104791 3563.5588235294117 701.0032977119998 3584.5 700.7712113142119 3605.4411764705883 700.4520925172535 3626.3823529411766 700.3723128180138 3647.323529411765 700.2417642192581 3668.264705882353 700.2127534195347 3689.205882352941 699.9444035220924 3710.1470588235293 699.625284725134 3731.0882352941176 699.3206713280374 3752.029411764706 698.9870471312172 3772.970588235294 698.6751810341897 3793.9117647058824 698.2980406377843 3814.8529411764707 698.0659542399964 3835.7941176470586 697.7758462427614 3856.735294117647 697.4639801457339 3877.676470588235 697.2101356481534 3898.6176470588234 697.007060050089 3919.5588235294117 696.7314574527159 3940.5 696.2455265573474 3961.4411764705883 695.8466280611493 3982.3823529411766 695.6580578629466 4003.323529411765 695.3606971657808 4024.264705882353 695.0270729689607 4045.2058823529414 694.6644379724171 4066.1470588235293 694.3090556758043 4087.0882352941176 694.0334530784312 4108.029411764706 693.8013666806432 4128.970588235294 693.533016783201 4149.911764705882 693.2066452863116 4170.85294117647 692.8149994900446 4191.794117647059 692.4233536937775 4212.735294117647 692.1404983964734 4233.676470588235 691.9519281982707 4254.617647058823 691.7488526002062 4275.558823529412 691.4659973029022 4296.5 691.1686366057364 4296.5 524.3275273959407 4275.558823529412 524.7917001915166 4254.617647058823 525.2341148872997 4233.676470588235 525.4807066849495 4212.735294117647 525.6982876828757 4191.794117647059 526.1044388790046 4170.85294117647 526.5396008748569 4149.911764705882 527.1270695692576 4128.970588235294 527.5404734653174 4108.029411764706 527.961130061308 4087.0882352941176 528.3455231576443 4066.1470588235293 528.8387067529436 4045.2058823529414 529.3173849483812 4024.264705882353 529.7670523440953 4003.323529411765 530.238477839602 3982.3823529411766 530.6881452353161 3961.4411764705883 531.0072640322745 3940.5 531.5439638271591 3919.5588235294117 532.0951690219055 3898.6176470588234 532.5448364176195 3877.676470588235 532.856702514647 3856.735294117647 533.2048321113289 3835.7941176470586 533.6399941071812 3814.8529411764707 534.0171345035867 3793.9117647058824 534.4015275999229 3772.970588235294 534.8657003954988 3752.029411764706 535.308115091282 3731.0882352941176 535.714266287411 3710.1470588235293 536.1494282832632 3689.205882352941 536.3742619811203 3668.264705882353 536.7151388778714 3647.323529411765 536.7659077773874 3626.3823529411766 536.9327198757974 3605.4411764705883 537.019752274968 3584.5 537.476672370613 3563.5588235294117 537.9190870663962 3542.6176470588234 538.2962274628017 3521.676470588235 538.7604002583773 3500.735294117647 539.3188581530546 3479.794117647059 539.9716011468332 3458.8529411764707 540.5155536416487 3437.9117647058824 540.9942318370861 3416.970588235294 541.2988452341829 3396.029411764706 541.6469748308647 3375.0882352941176 542.0023571274775 3354.1470588235293 542.2416962251964 3333.205882352941 542.5100461226386 3312.264705882353 542.6841109209796 3291.323529411765 542.9669662182836 3270.3823529411766 543.2353161157259 3249.4411764705883 543.8155321101957 3228.5 544.2869576057025 3228.5 705.3549176705235Z" fill="#f6a118" opacity="0.9" />
		</g>
		<g>
			<path d="M3228.5 544.2869576057025 3249.4411764705883 543.8155321101957 3270.3823529411766 543.2353161157259 3291.323529411765 542.9669662182836 3312.264705882353 542.6841109209796 3333.205882352941 542.5100461226386 3354.1470588235293 542.2416962251964 3375.0882352941176 542.0023571274775 3396.029411764706 541.6469748308647 3416.970588235294 541.2988452341829 3437.9117647058824 540.9942318370861 3458.8529411764707 540.5155536416487 3479.794117647059 539.9716011468332 3500.735294117647 539.3188581530546 3521.676470588235 538.7604002583773 3542.6176470588234 538.2962274628017 3563.5588235294117 537.9190870663962 3584.5 537.476672370613 3605.4411764705883 537.019752274968 3626.3823529411766 536.9327198757974 3647.323529411765 536.7659077773874 3668.264705882353 536.7151388778714 3689.205882352941 536.3742619811203 3710.1470588235293 536.1494282832632 3731.0882352941176 535.714266287411 3752.029411764706 535.308115091282 3772.970588235294 534.8657003954988 3793.9117647058824 534.4015275999229 3814.8529411764707 534.0171345035867 3835.7941176470586 533.6399941071812 3856.735294117647 533.2048321113289 3877.676470588235 532.856702514647 3898.6176470588234 532.5448364176195 3919.5588235294117 532.0951690219055 3940.5 531.5439638271591 3961.4411764705883 531.0072640322745 3982.3823529411766 530.6881452353161 4003.323529411765 530.238477839602 4024.264705882353 529.7670523440953 4045.2058823529414 529.3173849483812 4066.1470588235293 528.8387067529436 4087.0882352941176 528.3455231576443 4108.029411764706 527.961130061308 4128.970588235294 527.5404734653174 4149.911764705882 527.1270695692576 4170.85294117647 526.5396008748569 4191.794117647059 526.1044388790046 4212.735294117647 525.6982876828757 4233.676470588235 525.4807066849495 4254.617647058823 525.2341148872997 4275.558823529412 524.7917001915166 4296.5 524.3275273959407 4296.5 447.43440272882833 4275.558823529412 447.94209172398945 4254.617647058823 448.42802261935776 4233.676470588235 448.6818671169384 4212.735294117647 448.9139535147264 4191.794117647059 449.36362091044055 4170.85294117647 449.81328830615456 4149.911764705882 450.4587786000023 4128.970588235294 450.8866878959238 4108.029411764706 451.3436079915688 4087.0882352941176 451.8150334870755 4066.1470588235293 452.3372278820983 4045.2058823529414 452.8521695771903 4024.264705882353 453.33084777262786 4003.323529411765 453.8457894677198 3982.3823529411766 454.35347846288096 3961.4411764705883 454.7088607594937 3940.5 455.31083485375615 3919.5588235294117 455.9563251476038 3898.6176470588234 456.4350033430414 3877.676470588235 456.7903856396541 3856.735294117647 457.1820314359212 3835.7941176470586 457.67521503122055 3814.8529411764707 458.09587162721124 3793.9117647058824 458.49477012340924 3772.970588235294 458.97344831884686 3752.029411764706 459.44487381435357 3731.0882352941176 459.880035810206 3710.1470588235293 460.3369559058508 3689.205882352941 460.7793706016341 3668.264705882353 461.1347528982469 3647.323529411765 461.1927744976938 3626.3823529411766 461.37409199596556 3605.4411764705883 461.46837709506707 3584.5 461.9543079904355 3563.5588235294117 462.4402388858039 3542.6176470588234 462.8463900819329 3521.676470588235 463.346826377163 3500.735294117647 463.95605317135636 3479.794117647059 464.6450596647893 3458.8529411764707 465.20351755946655 3437.9117647058824 465.72571195448916 3416.970588235294 466.0448307514477 3396.029411764706 466.421971147853 3375.0882352941176 466.7918588443275 3354.1470588235293 467.0384506419773 3333.205882352941 467.3285586392122 3312.264705882353 467.51712883741493 3291.323529411765 467.8144895345806 3270.3823529411766 468.1118502317465 3249.4411764705883 468.6993189261471 3228.5 469.1925025214465 3228.5 544.2869576057025Z" fill="#55c0e9" opacity="0.9" />
		</g>
		<g>
			<path d="M3228.5 469.1925025214465 3249.4411764705883 468.6993189261471 3270.3823529411766 468.1118502317465 3291.323529411765 467.8144895345806 3312.264705882353 467.51712883741493 3333.205882352941 467.3285586392122 3354.1470588235293 467.0384506419773 3375.0882352941176 466.7918588443275 3396.029411764706 466.421971147853 3416.970588235294 466.0448307514477 3437.9117647058824 465.72571195448916 3458.8529411764707 465.20351755946655 3479.794117647059 464.6450596647893 3500.735294117647 463.95605317135636 3521.676470588235 463.346826377163 3542.6176470588234 462.8463900819329 3563.5588235294117 462.4402388858039 3584.5 461.9543079904355 3605.4411764705883 461.46837709506707 3626.3823529411766 461.37409199596556 3647.323529411765 461.1927744976938 3668.264705882353 461.1347528982469 3689.205882352941 460.7793706016341 3710.1470588235293 460.3369559058508 3731.0882352941176 459.880035810206 3752.029411764706 459.44487381435357 3772.970588235294 458.97344831884686 3793.9117647058824 458.49477012340924 3814.8529411764707 458.09587162721124 3835.7941176470586 457.67521503122055 3856.735294117647 457.1820314359212 3877.676470588235 456.7903856396541 3898.6176470588234 456.4350033430414 3919.5588235294117 455.9563251476038 3940.5 455.31083485375615 3961.4411764705883 454.7088607594937 3982.3823529411766 454.35347846288096 4003.323529411765 453.8457894677198 4024.264705882353 453.33084777262786 4045.2058823529414 452.8521695771903 4066.1470588235293 452.3372278820983 4087.0882352941176 451.8150334870755 4108.029411764706 451.3436079915688 4128.970588235294 450.8866878959238 4149.911764705882 450.4587786000023 4170.85294117647 449.81328830615456 4191.794117647059 449.36362091044055 4212.735294117647 448.9139535147264 4233.676470588235 448.6818671169384 4254.617647058823 448.42802261935776 4275.558823529412 447.94209172398945 4296.5 447.43440272882833 4296.5 399.34900218714233 4275.558823529412 400.0670194802987 4254.617647058823 400.7995421733167 4233.676470588235 401.0969028704826 4212.735294117647 401.4087689675102 4191.794117647059 402.105028160874 4170.85294117647 402.8230454540303 4149.911764705882 404.07776254207135 4128.970588235294 404.7522636356425 4108.029411764706 405.4412701290754 4087.0882352941176 406.1520347223009 4066.1470588235293 406.86279931552644 4045.2058823529414 407.58806930861374 4024.264705882353 408.29883390183926 4003.323529411765 409.0095984950647 3982.3823529411766 409.7131103883595 3961.4411764705883 410.2570628831749 3940.5 411.1709030744649 3919.5588235294117 411.99045816665347 3898.6176470588234 412.7157281597407 3877.676470588235 413.2741860544179 3856.735294117647 413.95593984791986 3835.7941176470586 414.6449463413528 3814.8529411764707 415.3267001348549 3793.9117647058824 416.01570662828783 3772.970588235294 416.71196582165163 3752.029411764706 417.429983114808 3731.0882352941176 418.1407477080336 3710.1470588235293 418.87327040105157 3689.205882352941 419.56227689448457 3668.264705882353 420.2512833879175 3647.323529411765 420.9330371814194 3626.3823529411766 421.5857801751979 3605.4411764705883 422.2385231689766 3584.5 422.9855512618565 3563.5588235294117 423.5730199562571 3542.6176470588234 424.1169724510727 3521.676470588235 424.7552100449893 3500.735294117647 425.51674353773103 3479.794117647059 426.2565189306801 3458.8529411764707 426.93102002425127 3437.9117647058824 427.4894779189283 3416.970588235294 427.83760751561033 3396.029411764706 428.2655168115317 3375.0882352941176 428.65716260779885 3354.1470588235293 429.0270503042735 3333.205882352941 429.4912230998493 3312.264705882353 430.1149552939044 3291.323529411765 430.87648878664595 3270.3823529411766 431.29714538263664 3249.4411764705883 431.9281302766225 3228.5 432.5518624706776 3228.5 469.1925025214465Z" fill="#fdd5a4" opacity="0.9" />
		</g>
		<g>
			<path d="M3228.5 432.5518624706776 3249.4411764705883 431.9281302766225 3270.3823529411766 431.29714538263664 3291.323529411765 430.87648878664595 3312.264705882353 430.1149552939044 3333.205882352941 429.4912230998493 3354.1470588235293 429.0270503042735 3375.0882352941176 428.65716260779885 3396.029411764706 428.2655168115317 3416.970588235294 427.83760751561033 3437.9117647058824 427.4894779189283 3458.8529411764707 426.93102002425127 3479.794117647059 426.2565189306801 3500.735294117647 425.51674353773103 3521.676470588235 424.7552100449893 3542.6176470588234 424.1169724510727 3563.5588235294117 423.5730199562571 3584.5 422.9855512618565 3605.4411764705883 422.2385231689766 3626.3823529411766 421.5857801751979 3647.323529411765 420.9330371814194 3668.264705882353 420.2512833879175 3689.205882352941 419.56227689448457 3710.1470588235293 418.87327040105157 3731.0882352941176 418.1407477080336 3752.029411764706 417.429983114808 3772.970588235294 416.71196582165163 3793.9117647058824 416.01570662828783 3814.8529411764707 415.3267001348549 3835.7941176470586 414.6449463413528 3856.735294117647 413.95593984791986 3877.676470588235 413.2741860544179 3898.6176470588234 412.7157281597407 3919.5588235294117 411.99045816665347 3940.5 411.1709030744649 3961.4411764705883 410.2570628831749 3982.3823529411766 409.7131103883595 4003.323529411765 409.0095984950647 4024.264705882353 408.29883390183926 4045.2058823529414 407.58806930861374 4066.1470588235293 406.86279931552644 4087.0882352941176 406.1520347223009 4108.029411764706 405.4412701290754 4128.970588235294 404.7522636356425 4149.911764705882 404.07776254207135 4170.85294117647 402.8230454540303 4191.794117647059 402.105028160874 4212.735294117647 401.4087689675102 4233.676470588235 401.0969028704826 4254.617647058823 400.7995421733167 4275.558823529412 400.0670194802987 4296.5 399.34900218714233 4296.5 398 4275.558823529412 398.7180172931564 4254.617647058823 399.45053998617436 4233.676470588235 399.7479006833403 4212.735294117647 400.05976678036785 4191.794117647059 400.75602597373165 4170.85294117647 401.474043266888 4149.911764705882 402.728760354929 4128.970588235294 403.4032614485002 4108.029411764706 404.0922679419331 4087.0882352941176 404.8030325351586 4066.1470588235293 405.521049828315 4045.2058823529414 406.2535725213332 4024.264705882353 406.9643371145587 4003.323529411765 407.67510170778417 3982.3823529411766 408.37861360107894 3961.4411764705883 408.92256609589435 3940.5 409.83640628718433 3919.5588235294117 410.6559613793729 3898.6176470588234 411.38123137246015 3877.676470588235 411.93968926713734 3856.735294117647 412.6214430606393 3835.7941176470586 413.31044955407225 3814.8529411764707 413.99220334757433 3793.9117647058824 414.6812098410073 3772.970588235294 415.3774690343711 3752.029411764706 416.09548632752745 3731.0882352941176 416.80625092075303 3710.1470588235293 417.538773613771 3689.205882352941 418.227780107204 3668.264705882353 418.91678660063695 3647.323529411765 419.59854039413887 3626.3823529411766 420.25128338791734 3605.4411764705883 420.90402638169604 3584.5 421.6510544745759 3563.5588235294117 422.23852316897654 3542.6176470588234 422.7824756637921 3521.676470588235 423.42071325770877 3500.735294117647 424.1822467504505 3479.794117647059 424.92202214339954 3458.8529411764707 425.61102863683243 3437.9117647058824 426.16948653150945 3416.970588235294 426.5176161281915 3396.029411764706 426.9455254241129 3375.0882352941176 427.33717122038 3354.1470588235293 427.70705891685463 3333.205882352941 428.1712317124305 3312.264705882353 428.7949639064856 3291.323529411765 429.5564973992271 3270.3823529411766 429.9771539952178 3249.4411764705883 430.60813888920364 3228.5 431.23187108325874 3228.5 432.5518624706776Z" fill="#005aa6" opacity="0.9" />
		</g>
		<g>
			<rect x="4372" y="431" width="22.9995" height="23" fill="#e62d39" />
		</g>
		<g>
			<text fill="#595959" font-family="Verdana,sans-serif" font-weight="400" font-size="41" transform="matrix(1 0 0 1 4404.56 454)">Smartphone</text>
		</g>
		<g>
			<rect x="4372" y="508" width="22.9995" height="23" fill="#f6a118" />
		</g>
		<g>
			<text fill="#595959" font-family="Verdana,sans-serif" font-weight="400" font-size="41" transform="matrix(1 0 0 1 4404.56 531)">Tablet</text>
		</g>
		<g>
			<rect x="4372" y="585" width="22.9995" height="23" fill="#55c0e9" />
		</g>
		<g>
			<text fill="#595959" font-family="Verdana,sans-serif" font-weight="400" font-size="41" transform="matrix(1 0 0 1 4404.56 608)">Other</text>
		</g>
		<g>
			<rect x="4372" y="662" width="22.9995" height="23" fill="#fdd5a4" />
		</g>
		<g>
			<text fill="#595959" font-family="Verdana,sans-serif" font-weight="400" font-size="41" transform="matrix(1 0 0 1 4404.56 685)">Tv</text>
		</g>
		<g>
			<rect x="4372" y="739" width="22.9995" height="23" fill="#005aa6" />
		</g>
		<g>
			<text fill="#595959" font-family="Verdana,sans-serif" font-weight="400" font-size="41" transform="matrix(1 0 0 1 4404.56 762)">Desktop</text>
		</g>
	</g>
</svg>
