<svg width="1763" height="1046"
    xmlns="http://www.w3.org/2000/svg"
	xmlns:xlink="http://www.w3.org/1999/xlink" xml:space="preserve" overflow="hidden">
	<defs>
		<clipPath id="clip0">
			<rect x="2917" y="346" width="1763" height="1046"/>
		</clipPath>
	</defs>
	<g clip-path="url(#clip0)" transform="translate(-2917 -346)">
		<rect x="2918" y="347" width="1760" height="1043" fill="#FFFFFF" />
		<g>
			<path d="
			M3228.5 974.532 4296.5 974.532
			M3228.5 910.53 4296.5 910.53
			M3228.5 846.528 4296.5 846.528
			M3228.5 781.526 4296.5 781.526
			M3228.5 717.524 4296.5 717.524
			M3228.5 653.522 4296.5 653.522
			M3228.5 589.52 4296.5 589.52
			M3228.5 525.517 4296.5 525.517
			M3228.5 461.515 4296.5 461.515
			M3228.5 397.5 4296.5 397.5" stroke="#D9D9D9" stroke-width="3.4375" stroke-linejoin="round" stroke-miterlimit="10" fill="none" />
		</g>
		<g>
			<path d="M 1038.5 4296.5 1038.5" stroke="#D9D9D9" stroke-width="3.4375" stroke-linejoin="round" stroke-miterlimit="10" fill="none" fill-rule="evenodd" />
		</g>
		<g>
			<text fill="#595959" font-family="Verdana,sans-serif" font-weight="400" font-size="41" transform="matrix(6.12323e-17 -1 1 6.12323e-17 3244.5 1227)">06-Nov</text>
		</g>
		<g>
			<text fill="#595959" font-family="Verdana,sans-serif" font-weight="400" font-size="41" transform="matrix(6.12323e-17 -1 1 6.12323e-17 3363.1666666666665 1226)">20-Nov</text>
		</g>
		<g>
			<text fill="#595959" font-family="Verdana,sans-serif" font-weight="400" font-size="41" transform="matrix(6.12323e-17 -1 1 6.12323e-17 3481.8333333333335 1225)">04-Dec</text>
		</g>
		<g>
			<text fill="#595959" font-family="Verdana,sans-serif" font-weight="400" font-size="41" transform="matrix(6.12323e-17 -1 1 6.12323e-17 3600.5 1222)">18-Dec</text>
		</g>
		<g>
			<text fill="#595959" font-family="Verdana,sans-serif" font-weight="400" font-size="41" transform="matrix(6.12323e-17 -1 1 6.12323e-17 3719.1666666666665 1212)">01-Jan</text>
		</g>
		<g>
			<text fill="#595959" font-family="Verdana,sans-serif" font-weight="400" font-size="41" transform="matrix(6.12323e-17 -1 1 6.12323e-17 3837.3333333333335 1209)">15-Jan</text>
		</g>
		<g>
			<text fill="#595959" font-family="Verdana,sans-serif" font-weight="400" font-size="41" transform="matrix(6.12323e-17 -1 1 6.12323e-17 3956.5 1211)">29-Jan</text>
		</g>
		<g>
			<text fill="#595959" font-family="Verdana,sans-serif" font-weight="400" font-size="41" transform="matrix(6.12323e-17 -1 1 6.12323e-17 4075.166666666667 1216)">12-Feb</text>
		</g>
		<g>
			<text fill="#595959" font-family="Verdana,sans-serif" font-weight="400" font-size="41" transform="matrix(6.12323e-17 -1 1 6.12323e-17 4193.833333333333 1218)">26-Feb</text>
		</g>
		<g>
			<text fill="#595959" font-family="Verdana,sans-serif" font-weight="400" font-size="41" transform="matrix(6.12323e-17 -1 1 6.12323e-17 4312 1222)">11-Mar</text>
		</g>
		<g>
			<text fill="#595959" font-family="Verdana,sans-serif" font-weight="400" font-size="41" transform="matrix(1 0 0 1 3167.5 1050)">0</text>
		</g>
		<g>
			<text fill="#595959" font-family="Verdana,sans-serif" font-weight="400" font-size="41" transform="matrix(1 0 0 1 3049.5 922)">16,840</text>
		</g>
		<g>
			<text fill="#595959" font-family="Verdana,sans-serif" font-weight="400" font-size="41" transform="matrix(1 0 0 1 3047.5 794)">33,679</text>
		</g>
		<g>
			<text fill="#595959" font-family="Verdana,sans-serif" font-weight="400" font-size="41" transform="matrix(1 0 0 1 3047.5 666)">50,519</text>
		</g>
		<g>
			<text fill="#595959" font-family="Verdana,sans-serif" font-weight="400" font-size="41" transform="matrix(1 0 0 1 3046.5 538)">67,358</text>
		</g>
		<g>
			<text fill="#595959" font-family="Verdana,sans-serif" font-weight="400" font-size="41" transform="matrix(1 0 0 1 3045.5 410)">84,198</text>
		</g>
		<g>
			<text fill="#595959" font-family="Verdana,sans-serif" font-weight="400" font-size="41" transform="matrix(1 0 0 1 3541.5 1321)">Week Commencing</text>
		</g>
		<g>
			<text fill="#595959" font-family="Verdana,sans-serif" font-weight="400" font-size="46" transform="matrix(6.12323e-17 -1 1 6.12323e-17 3019.73 1052.75)">Number of Hardware Profiles</text>
		</g>
		<rect x="2918.5" y="347.5" width="1760" height="1043" stroke="#D9D9D9" stroke-width="3.4375" stroke-linejoin="round" stroke-miterlimit="10" fill="none" />
		<g>
			<path d="M3228.5 1038 3287.8333333333335 1038 3347.1666666666665 1038 3406.5 1038 3465.8333333333335 1038 3525.1666666666665 1038 3584.5 1038 3643.8333333333335 1038 3703.1666666666665 1038 3762.5 1038 3821.8333333333335 1038 3881.166666666667 1038 3940.5 1038 3999.8333333333335 1038 4059.166666666667 1038 4118.5 1038 4177.833333333333 1038 4237.166666666667 1038 4296.5 1038 4296.5 687.6258818499252 4237.166666666667 687.8159101166298 4177.833333333333 687.98313499133 4118.5 688.1047530820209 4059.166666666667 688.3023824793938 3999.8333333333335 688.5076130074349 3940.5 689.0092876315352 3881.166666666667 689.3741419036081 3821.8333333333335 689.8302097436994 3762.5 690.301479845127 3703.1666666666665 690.6511318558635 3643.8333333333335 690.590322810518 3584.5 690.8867669065773 3525.1666666666665 691.2288177866458 3465.8333333333335 691.5024584907005 3406.5 691.8673127627735 3347.1666666666665 692.1789591201691 3287.8333333333335 692.4906054775647 3228.5 692.9846789709969 3228.5 1038Z" fill="#e62d39" opacity="0.9" />
		</g>
		<g>
			<path d="M3228.5 692.9846789709969 3287.8333333333335 692.4906054775647 3347.1666666666665 692.1789591201691 3406.5 691.8673127627735 3465.8333333333335 691.5024584907005 3525.1666666666665 691.2288177866458 3584.5 690.8867669065773 3643.8333333333335 690.590322810518 3703.1666666666665 690.6511318558635 3762.5 690.301479845127 3821.8333333333335 689.8302097436994 3881.166666666667 689.3741419036081 3940.5 689.0092876315352 3999.8333333333335 688.5076130074349 4059.166666666667 688.3023824793938 4118.5 688.1047530820209 4177.833333333333 687.98313499133 4237.166666666667 687.8159101166298 4296.5 687.6258818499252 4296.5 518.1738758640348 4237.166666666667 518.4247131760849 4177.833333333333 518.7059550108079 4118.5 518.8883821468443 4059.166666666667 519.1848262429037 3999.8333333333335 519.4660680776266 3940.5 520.0741585310816 3881.166666666667 520.5682320245136 3821.8333333333335 521.153519085964 3762.5 521.7692106700872 3703.1666666666665 522.255683032851 3643.8333333333335 522.2024751181738 3584.5 522.5749305209149 3525.1666666666665 523.0690040143471 3465.8333333333335 523.6238865531247 3406.5 524.2243758759116 3347.1666666666665 524.8780731133756 3287.8333333333335 525.4709613054941 3228.5 526.155063065631 3228.5 692.9846789709969Z" fill="#f6a118" opacity="0.9" />
		</g>
		<g>
			<path d="M3228.5 526.155063065631 3287.8333333333335 525.4709613054941 3347.1666666666665 524.8780731133756 3406.5 524.2243758759116 3465.8333333333335 523.6238865531247 3525.1666666666665 523.0690040143471 3584.5 522.5749305209149 3643.8333333333335 522.2024751181738 3703.1666666666665 522.255683032851 3762.5 521.7692106700872 3821.8333333333335 521.153519085964 3881.166666666667 520.5682320245136 3940.5 520.0741585310816 3999.8333333333335 519.4660680776266 4059.166666666667 519.1848262429037 4118.5 518.8883821468443 4177.833333333333 518.7059550108079 4237.166666666667 518.4247131760849 4296.5 518.1738758640348 4296.5 439.3501508349367 4237.166666666667 439.60858927765497 4177.833333333333 439.91263450438254 4118.5 440.1102639017553 4059.166666666667 440.4219102591511 3999.8333333333335 440.7335566165467 3940.5 441.34924820066993 3881.166666666667 441.8661250861065 3821.8333333333335 442.4666144088933 3762.5 443.143115038362 3703.1666666666665 443.65999192379854 3643.8333333333335 443.6599919237986 3584.5 444.04004845720794 3525.1666666666665 444.6253355186584 3465.8333333333335 445.21822371077695 3406.5 445.82631416423203 3347.1666666666665 446.518017055037 3287.8333333333335 447.17171429250095 3228.5 447.90902396731514 3228.5 526.155063065631Z" fill="#55c0e9" opacity="0.9" />
		</g>
		<g>
			<path d="M3228.5 447.90902396731514 3287.8333333333335 447.17171429250095 3347.1666666666665 446.518017055037 3406.5 445.82631416423203 3465.8333333333335 445.21822371077695 3525.1666666666665 444.6253355186584 3584.5 444.04004845720794 3643.8333333333335 443.6599919237986 3703.1666666666665 443.65999192379854 3762.5 443.143115038362 3821.8333333333335 442.4666144088933 3881.166666666667 441.8661250861065 3940.5 441.34924820066993 3999.8333333333335 440.7335566165467 4059.166666666667 440.4219102591511 4118.5 440.1102639017553 4177.833333333333 439.91263450438254 4237.166666666667 439.60858927765497 4296.5 439.3501508349367 4296.5 399.38340578161 4237.166666666667 399.77106344568745 4177.833333333333 400.2575358084515 4118.5 400.9112330459155 4059.166666666667 401.70935176607526 3999.8333333333335 402.15021734483 3940.5 402.8115157129624 3881.166666666667 403.4652129504263 3821.8333333333335 404.103707926554 3762.5 404.8790232547092 3703.1666666666665 405.50231596950033 3643.8333333333335 405.5023159695004 3584.5 405.973586070928 3525.1666666666665 406.66528896173304 3465.8333333333335 407.3645929832062 3406.5 408.11710491935685 3347.1666666666665 408.94562816218917 3287.8333333333335 409.67533670633503 3228.5 410.5342644718402 3228.5 447.90902396731514Z" fill="#fdd5a4" opacity="0.9" />
		</g>
		<g>
			<path d="M3228.5 410.5342644718402 3287.8333333333335 409.67533670633503 3347.1666666666665 408.94562816218917 3406.5 408.11710491935685 3465.8333333333335 407.3645929832062 3525.1666666666665 406.66528896173304 3584.5 405.973586070928 3643.8333333333335 405.5023159695004 3703.1666666666665 405.50231596950033 3762.5 404.8790232547092 3821.8333333333335 404.103707926554 3881.166666666667 403.4652129504263 3940.5 402.8115157129624 3999.8333333333335 402.15021734483 4059.166666666667 401.70935176607526 4118.5 400.9112330459155 4177.833333333333 400.2575358084515 4237.166666666667 399.77106344568745 4296.5 399.38340578161 4296.5 398 4237.166666666667 398.38765766407744 4177.833333333333 398.8741300268415 4118.5 399.5278272643055 4059.166666666667 400.32594598446525 3999.8333333333335 400.76681156322 3940.5 401.42810993135237 3881.166666666667 402.0818071688163 3821.8333333333335 402.720302144944 3762.5 403.4956174730992 3703.1666666666665 404.1189101878903 3643.8333333333335 404.1189101878904 3584.5 404.62058481199074 3525.1666666666665 405.31988883346395 3465.8333333333335 406.0191928549371 3406.5 406.77170479108776 3347.1666666666665 407.6002280339201 3287.8333333333335 408.32993657806594 3228.5 409.1888643435711 3228.5 410.5342644718402Z" fill="#005aa6" opacity="0.9" />
		</g>
		<g>
			<rect x="4372" y="431" width="22.9995" height="23" fill="#e62d39" />
		</g>
		<g>
			<text fill="#595959" font-family="Verdana,sans-serif" font-weight="400" font-size="41" transform="matrix(1 0 0 1 4404.56 454)">Smartphone</text>
		</g>
		<g>
			<rect x="4372" y="508" width="22.9995" height="23" fill="#f6a118" />
		</g>
		<g>
			<text fill="#595959" font-family="Verdana,sans-serif" font-weight="400" font-size="41" transform="matrix(1 0 0 1 4404.56 531)">Tablet</text>
		</g>
		<g>
			<rect x="4372" y="585" width="22.9995" height="23" fill="#55c0e9" />
		</g>
		<g>
			<text fill="#595959" font-family="Verdana,sans-serif" font-weight="400" font-size="41" transform="matrix(1 0 0 1 4404.56 608)">Other</text>
		</g>
		<g>
			<rect x="4372" y="662" width="22.9995" height="23" fill="#fdd5a4" />
		</g>
		<g>
			<text fill="#595959" font-family="Verdana,sans-serif" font-weight="400" font-size="41" transform="matrix(1 0 0 1 4404.56 685)">Tv</text>
		</g>
		<g>
			<rect x="4372" y="739" width="22.9995" height="23" fill="#005aa6" />
		</g>
		<g>
			<text fill="#595959" font-family="Verdana,sans-serif" font-weight="400" font-size="41" transform="matrix(1 0 0 1 4404.56 762)">Desktop</text>
		</g>
	</g>
</svg>
