<svg width="1763" height="1046"
    xmlns="http://www.w3.org/2000/svg"
	xmlns:xlink="http://www.w3.org/1999/xlink" xml:space="preserve" overflow="hidden">
	<defs>
		<clipPath id="clip0">
			<rect x="2917" y="346" width="1763" height="1046"/>
		</clipPath>
	</defs>
	<g clip-path="url(#clip0)" transform="translate(-2917 -346)">
		<rect x="2918" y="347" width="1760" height="1043" fill="#FFFFFF" />
		<g>
			<path d="
			M3228.5 974.532 4296.5 974.532
			M3228.5 910.53 4296.5 910.53
			M3228.5 846.528 4296.5 846.528
			M3228.5 781.526 4296.5 781.526
			M3228.5 717.524 4296.5 717.524
			M3228.5 653.522 4296.5 653.522
			M3228.5 589.52 4296.5 589.52
			M3228.5 525.517 4296.5 525.517
			M3228.5 461.515 4296.5 461.515
			M3228.5 397.5 4296.5 397.5" stroke="#D9D9D9" stroke-width="3.4375" stroke-linejoin="round" stroke-miterlimit="10" fill="none" />
		</g>
		<g>
			<path d="M 1038.5 4296.5 1038.5" stroke="#D9D9D9" stroke-width="3.4375" stroke-linejoin="round" stroke-miterlimit="10" fill="none" fill-rule="evenodd" />
		</g>
		<g>
			<text fill="#595959" font-family="Verdana,Open Sans,DejaVu Sans,sans-serif" font-weight="400" font-size="41" transform="matrix(6.12323e-17 -1 1 6.12323e-17 3247.21826171875 1191.6508712768555)">06-Jan</text>
		</g>
		<g>
			<text fill="#595959" font-family="Verdana,Open Sans,DejaVu Sans,sans-serif" font-weight="400" font-size="41" transform="matrix(6.12323e-17 -1 1 6.12323e-17 3329.715390625 1203.0419921875)">03-Feb</text>
		</g>
		<g>
			<text fill="#595959" font-family="Verdana,Open Sans,DejaVu Sans,sans-serif" font-weight="400" font-size="41" transform="matrix(6.12323e-17 -1 1 6.12323e-17 3414.444697265625 1212.0107421875)">03-Mar</text>
		</g>
		<g>
			<text fill="#595959" font-family="Verdana,Open Sans,DejaVu Sans,sans-serif" font-weight="400" font-size="41" transform="matrix(6.12323e-17 -1 1 6.12323e-17 3499.864677734375 1212.1708984375)">31-Mar</text>
		</g>
		<g>
			<text fill="#595959" font-family="Verdana,Open Sans,DejaVu Sans,sans-serif" font-weight="400" font-size="41" transform="matrix(6.12323e-17 -1 1 6.12323e-17 3590.029287109375 1203.3022384643555)">28-Apr</text>
		</g>
		<g>
			<text fill="#595959" font-family="Verdana,Open Sans,DejaVu Sans,sans-serif" font-weight="400" font-size="41" transform="matrix(6.12323e-17 -1 1 6.12323e-17 3675.469287109375 1216.51513671875)">26-May</text>
		</g>
		<g>
			<text fill="#595959" font-family="Verdana,Open Sans,DejaVu Sans,sans-serif" font-weight="400" font-size="41" transform="matrix(6.12323e-17 -1 1 6.12323e-17 3759.85826171875 1194.1733322143555)">30-Jun</text>
		</g>
		<g>
			<text fill="#595959" font-family="Verdana,Open Sans,DejaVu Sans,sans-serif" font-weight="400" font-size="41" transform="matrix(6.12323e-17 -1 1 6.12323e-17 3846.008955078125 1179.0385665893555)">28-Jul</text>
		</g>
		<g>
			<text fill="#595959" font-family="Verdana,Open Sans,DejaVu Sans,sans-serif" font-weight="400" font-size="41" transform="matrix(6.12323e-17 -1 1 6.12323e-17 3931.789287109375 1208.66748046875)">25-Aug</text>
		</g>
		<g>
			<text fill="#595959" font-family="Verdana,Open Sans,DejaVu Sans,sans-serif" font-weight="400" font-size="41" transform="matrix(6.12323e-17 -1 1 6.12323e-17 4017.229287109375 1204.42333984375)">22-Sep</text>
		</g>
		<g>
			<text fill="#595959" font-family="Verdana,Open Sans,DejaVu Sans,sans-serif" font-weight="400" font-size="41" transform="matrix(6.12323e-17 -1 1 6.12323e-17 4097.964697265625 1201.1401290893555)">20-Oct</text>
		</g>
		<g>
			<text fill="#595959" font-family="Verdana,Open Sans,DejaVu Sans,sans-serif" font-weight="400" font-size="41" transform="matrix(6.12323e-17 -1 1 6.12323e-17 4183.17447265625 1209.70849609375)">17-Nov</text>
		</g>
		<g>
			<text fill="#595959" font-family="Verdana,Open Sans,DejaVu Sans,sans-serif" font-weight="400" font-size="41" transform="matrix(6.12323e-17 -1 1 6.12323e-17 4268.61447265625 1205.3642578125)">15-Dec</text>
		</g>
		<g>
			<text fill="#595959" font-family="Verdana,Open Sans,DejaVu Sans,sans-serif" font-weight="400" font-size="41" transform="matrix(1 0 0 1 3135.4482421875 1050)">0%</text>
		</g>
		<g>
			<text fill="#595959" font-family="Verdana,Open Sans,DejaVu Sans,sans-serif" font-weight="400" font-size="41" transform="matrix(1 0 0 1 3111.96533203125 922)">20%</text>
		</g>
		<g>
			<text fill="#595959" font-family="Verdana,Open Sans,DejaVu Sans,sans-serif" font-weight="400" font-size="41" transform="matrix(1 0 0 1 3110.82421875 794)">40%</text>
		</g>
		<g>
			<text fill="#595959" font-family="Verdana,Open Sans,DejaVu Sans,sans-serif" font-weight="400" font-size="41" transform="matrix(1 0 0 1 3112.3056640625 666)">60%</text>
		</g>
		<g>
			<text fill="#595959" font-family="Verdana,Open Sans,DejaVu Sans,sans-serif" font-weight="400" font-size="41" transform="matrix(1 0 0 1 3112.04541015625 538)">80%</text>
		</g>
		<g>
			<text fill="#595959" font-family="Verdana,Open Sans,DejaVu Sans,sans-serif" font-weight="400" font-size="41" transform="matrix(1 0 0 1 3090.2841796875 410)">100%</text>
		</g>
		<g>
			<text fill="#595959" font-family="Verdana,Open Sans,DejaVu Sans,sans-serif" font-weight="400" font-size="41" transform="matrix(1 0 0 1 3556.97119140625 1321)">Week Commencing</text>
		</g>
		<g>
			<text fill="#595959" font-family="Verdana,Open Sans,DejaVu Sans,sans-serif" font-weight="400" font-size="46" transform="matrix(6.12323e-17 -1 1 6.12323e-17 3019.73 936.7665710449219)">Requests (% of Total)</text>
		</g>
		<rect x="2918.5" y="347.5" width="1760" height="1043" stroke="#D9D9D9" stroke-width="3.4375" stroke-linejoin="round" stroke-miterlimit="10" fill="none" />
		<g>
			<path d="M3228.5 1038 3249.86 1038 3271.22 1038 3292.58 1038 3313.94 1038 3335.3 1038 3356.66 1038 3378.02 1038 3399.38 1038 3420.74 1038 3442.1 1038 3463.46 1038 3484.82 1038 3506.18 1038 3527.54 1038 3548.9 1038 3570.26 1038 3591.62 1038 3612.98 1038 3634.34 1038 3655.7 1038 3677.06 1038 3698.42 1038 3719.7799999999997 1038 3741.14 1038 3762.5 1038 3783.86 1038 3805.2200000000003 1038 3826.58 1038 3847.94 1038 3869.3 1038 3890.66 1038 3912.02 1038 3933.38 1038 3954.74 1038 3976.1 1038 3997.46 1038 4018.8199999999997 1038 4040.18 1038 4061.54 1038 4082.9 1038 4104.26 1038 4125.62 1038 4146.98 1038 4168.34 1038 4189.7 1038 4211.0599999999995 1038 4232.42 1038 4253.78 1038 4275.139999999999 1038 4296.5 1038 4296.5 511.17358261897925 4275.139999999999 511.20549455604134 4253.78 512.098115952951 4232.42 512.1329612369273 4211.0599999999995 512.9189284987364 4189.7 515.8919455572111 4168.34 514.7969648318594 4146.98 515.125626744456 4125.62 517.3539587629043 4104.26 517.3728872760798 4082.9 517.3795154992906 4061.54 517.3746698568546 4040.18 518.2845849198919 4018.8199999999997 518.2786881359634 3997.46 518.6674644160128 3976.1 519.0934355637311 3954.74 520.9052457535156 3933.38 521.6318852573548 3912.02 521.6184156458323 3890.66 522.2681085366032 3869.3 527.8351358448251 3847.94 527.8182060044346 3826.58 527.8171189568005 3805.2200000000003 527.8195281696414 3783.86 527.7185125063723 3762.5 528.1749639028288 3741.14 526.0738068609967 3719.7799999999997 526.0690930129186 3698.42 526.4517905907722 3677.06 526.966587562726 3655.7 527.7344479046612 3634.34 528.0922596265774 3612.98 528.3637575953018 3591.62 528.4473950245434 3570.26 528.3817437118579 3548.9 528.3209049784523 3527.54 528.6035113858115 3506.18 529.0722280244075 3484.82 529.4214956662862 3463.46 529.807429199031 3442.1 533.5058286789898 3420.74 533.4031264720519 3399.38 533.4021762961523 3378.02 533.7756525096236 3356.66 533.8956466575289 3335.3 533.9572095457534 3313.94 533.4841990448925 3292.58 533.4528010722697 3271.22 533.722746014736 3249.86 533.7853664259474 3228.5 533.8294455926118 3228.5 1038Z" fill="#e62d39" opacity="0.9" />
		</g>
		<g>
			<path d="M3228.5 533.8294455926118 3249.86 533.7853664259474 3271.22 533.722746014736 3292.58 533.4528010722697 3313.94 533.4841990448925 3335.3 533.9572095457534 3356.66 533.8956466575289 3378.02 533.7756525096236 3399.38 533.4021762961523 3420.74 533.4031264720519 3442.1 533.5058286789898 3463.46 529.807429199031 3484.82 529.4214956662862 3506.18 529.0722280244075 3527.54 528.6035113858115 3548.9 528.3209049784523 3570.26 528.3817437118579 3591.62 528.4473950245434 3612.98 528.3637575953018 3634.34 528.0922596265774 3655.7 527.7344479046612 3677.06 526.966587562726 3698.42 526.4517905907722 3719.7799999999997 526.0690930129186 3741.14 526.0738068609967 3762.5 528.1749639028288 3783.86 527.7185125063723 3805.2200000000003 527.8195281696414 3826.58 527.8171189568005 3847.94 527.8182060044346 3869.3 527.8351358448251 3890.66 522.2681085366032 3912.02 521.6184156458323 3933.38 521.6318852573548 3954.74 520.9052457535156 3976.1 519.0934355637311 3997.46 518.6674644160128 4018.8199999999997 518.2786881359634 4040.18 518.2845849198919 4061.54 517.3746698568546 4082.9 517.3795154992906 4104.26 517.3728872760798 4125.62 517.3539587629043 4146.98 515.125626744456 4168.34 514.7969648318594 4189.7 515.8919455572111 4211.0599999999995 512.9189284987364 4232.42 512.1329612369273 4253.78 512.098115952951 4275.139999999999 511.20549455604134 4296.5 511.17358261897925 4296.5 435.3992247727013 4275.139999999999 435.7778149248337 4253.78 435.69457104984326 4232.42 435.7373894918581 4211.0599999999995 436.0183299632218 4189.7 437.1107633727561 4168.34 436.7049406114033 4146.98 436.8606414580909 4125.62 437.9222955771362 4104.26 437.9259398239807 4082.9 437.9087165382534 4061.54 437.90716134158686 4040.18 438.3816771158473 4018.8199999999997 438.3811488943986 3997.46 438.6583696725575 3976.1 438.939493870515 3954.74 439.76778884064066 3933.38 440.12172845279287 3912.02 440.1025942817036 3890.66 440.43245647629897 3869.3 446.0049434709254 3847.94 445.99448025532104 3826.58 445.9906298366525 3805.2200000000003 445.9850763388172 3783.86 446.00044835106377 3762.5 445.48995832347725 3741.14 440.7320769519542 3719.7799999999997 440.71015435347675 3698.42 440.79849020545294 3677.06 441.02669160650083 3655.7 441.4805241599953 3634.34 441.7146387359797 3612.98 441.87434560441795 3591.62 442.00506484989137 3570.26 442.0536403247141 3548.9 442.1004848135459 3527.54 442.29078701208255 3506.18 442.5177613549289 3484.82 442.75370380577044 3463.46 443.0039649820596 3442.1 447.2266118196212 3420.74 447.3367564362345 3399.38 447.478410212555 3378.02 447.7812344269998 3356.66 447.9735867247491 3335.3 448.11744019003095 3313.94 447.90712750570685 3292.58 447.65114758474357 3271.22 447.63691579979616 3249.86 447.6548818464415 3228.5 447.68514400974766 3228.5 533.8294455926118Z" fill="#005aa6" opacity="0.9" />
		</g>
		<g>
			<path d="M3228.5 447.68514400974766 3249.86 447.6548818464415 3271.22 447.63691579979616 3292.58 447.65114758474357 3313.94 447.90712750570685 3335.3 448.11744019003095 3356.66 447.9735867247491 3378.02 447.7812344269998 3399.38 447.478410212555 3420.74 447.3367564362345 3442.1 447.2266118196212 3463.46 443.0039649820596 3484.82 442.75370380577044 3506.18 442.5177613549289 3527.54 442.29078701208255 3548.9 442.1004848135459 3570.26 442.0536403247141 3591.62 442.00506484989137 3612.98 441.87434560441795 3634.34 441.7146387359797 3655.7 441.4805241599953 3677.06 441.02669160650083 3698.42 440.79849020545294 3719.7799999999997 440.71015435347675 3741.14 440.7320769519542 3762.5 445.48995832347725 3783.86 446.00044835106377 3805.2200000000003 445.9850763388172 3826.58 445.9906298366525 3847.94 445.99448025532104 3869.3 446.0049434709254 3890.66 440.43245647629897 3912.02 440.1025942817036 3933.38 440.12172845279287 3954.74 439.76778884064066 3976.1 438.939493870515 3997.46 438.6583696725575 4018.8199999999997 438.3811488943986 4040.18 438.3816771158473 4061.54 437.90716134158686 4082.9 437.9087165382534 4104.26 437.9259398239807 4125.62 437.9222955771362 4146.98 436.8606414580909 4168.34 436.7049406114033 4189.7 437.1107633727561 4211.0599999999995 436.0183299632218 4232.42 435.7373894918581 4253.78 435.69457104984326 4275.139999999999 435.7778149248337 4296.5 435.3992247727013 4296.5 420.9199678677945 4275.139999999999 421.17546638387716 4253.78 421.2737767063939 4232.42 421.31851350204755 4211.0599999999995 421.5482860386991 4189.7 422.28800089553556 4168.34 422.10195037941145 4146.98 422.2371615504225 4125.62 423.16774393881434 4104.26 423.167665092679 4082.9 423.14655140370303 4061.54 423.1457070138017 4040.18 423.56516266700936 4018.8199999999997 423.5655214379781 3997.46 423.8109003038261 3976.1 424.0558120196192 3954.74 424.7181344913808 3933.38 425.0236349944547 3912.02 425.0035344441698 3890.66 425.28465904377634 3869.3 430.8274530925998 3847.94 430.81817356835387 3826.58 430.8139007331268 3805.2200000000003 430.8069864095142 3783.86 430.9020970833825 3762.5 430.23142599790555 3741.14 425.0017650883845 3719.7799999999997 424.9767523660499 3698.42 425.0257701995382 3677.06 425.20583580775155 3655.7 425.4986687976815 3634.34 425.6867840212037 3612.98 425.8119685721377 3591.62 425.9104888133743 3570.26 425.92679886960804 3548.9 425.94362826788443 3527.54 426.1140510532148 3506.18 426.3120783472338 3484.82 426.5518003809951 3463.46 426.81320471249694 3442.1 431.1686011749783 3420.74 431.3401421096995 3399.38 431.5247092372164 3378.02 431.81676347027957 3356.66 431.99440912392726 3335.3 432.1329946808099 3313.94 432.00359297169024 3292.58 431.84731630596053 3271.22 431.8659139096981 3249.86 431.93242137634724 3228.5 431.9599475077045 3228.5 447.68514400974766Z" fill="#55c0e9" opacity="0.9" />
		</g>
		<g>
			<path d="M3228.5 431.9599475077045 3249.86 431.93242137634724 3271.22 431.8659139096981 3292.58 431.84731630596053 3313.94 432.00359297169024 3335.3 432.1329946808099 3356.66 431.99440912392726 3378.02 431.81676347027957 3399.38 431.5247092372164 3420.74 431.3401421096995 3442.1 431.1686011749783 3463.46 426.81320471249694 3484.82 426.5518003809951 3506.18 426.3120783472338 3527.54 426.1140510532148 3548.9 425.94362826788443 3570.26 425.92679886960804 3591.62 425.9104888133743 3612.98 425.8119685721377 3634.34 425.6867840212037 3655.7 425.4986687976815 3677.06 425.20583580775155 3698.42 425.0257701995382 3719.7799999999997 424.9767523660499 3741.14 425.0017650883845 3762.5 430.23142599790555 3783.86 430.9020970833825 3805.2200000000003 430.8069864095142 3826.58 430.8139007331268 3847.94 430.81817356835387 3869.3 430.8274530925998 3890.66 425.28465904377634 3912.02 425.0035344441698 3933.38 425.0236349944547 3954.74 424.7181344913808 3976.1 424.0558120196192 3997.46 423.8109003038261 4018.8199999999997 423.5655214379781 4040.18 423.56516266700936 4061.54 423.1457070138017 4082.9 423.14655140370303 4104.26 423.167665092679 4125.62 423.16774393881434 4146.98 422.2371615504225 4168.34 422.10195037941145 4189.7 422.28800089553556 4211.0599999999995 421.5482860386991 4232.42 421.31851350204755 4253.78 421.2737767063939 4275.139999999999 421.17546638387716 4296.5 420.9199678677945 4296.5 409.442567653401 4275.139999999999 409.50831649918746 4253.78 409.55722453750167 4232.42 409.60566872011515 4211.0599999999995 409.72296665824126 4189.7 410.10948315685346 4168.34 410.00098369930805 4146.98 410.02158135972263 4125.62 410.3831921847201 4104.26 410.3816258742522 4082.9 410.3693732840644 4061.54 410.36817686183286 4040.18 410.49749865569987 4018.8199999999997 410.49874026393246 3997.46 410.5976679252191 3976.1 410.7016436985356 3954.74 410.9789161674267 3933.38 411.1035757536376 3912.02 411.0839891917173 3890.66 411.22347657579 3869.3 416.32051328878225 3847.94 416.3159617889731 3826.58 416.31921689377526 3805.2200000000003 416.31736632943614 3783.86 416.3210682719641 3762.5 415.85243189703715 3741.14 410.86025631578275 3719.7799999999997 410.8513168557256 3698.42 410.8010080993925 3677.06 410.8532595598375 3655.7 410.9689719408518 3634.34 411.04822058755076 3612.98 411.09796238059005 3591.62 411.13309600464333 3570.26 411.08525540240214 3548.9 411.0502804931489 3527.54 411.15507042479464 3506.18 411.2715831935364 3484.82 411.39453051492376 3463.46 411.52533019336687 3442.1 415.89173436048446 3420.74 415.95861191477786 3399.38 416.055066900616 3378.02 416.2345639289736 3356.66 416.4071449754411 3335.3 416.47817812627426 3313.94 416.34836086389726 3292.58 416.1564242259188 3271.22 416.1235996870702 3249.86 416.0562889706207 3228.5 416.0954395000898 3228.5 431.9599475077045Z" fill="#f6a118" opacity="0.9" />
		</g>
		<g>
			<path d="M3228.5 416.0954395000898 3249.86 416.0562889706207 3271.22 416.1235996870702 3292.58 416.1564242259188 3313.94 416.34836086389726 3335.3 416.47817812627426 3356.66 416.4071449754411 3378.02 416.2345639289736 3399.38 416.055066900616 3420.74 415.95861191477786 3442.1 415.89173436048446 3463.46 411.52533019336687 3484.82 411.39453051492376 3506.18 411.2715831935364 3527.54 411.15507042479464 3548.9 411.0502804931489 3570.26 411.08525540240214 3591.62 411.13309600464333 3612.98 411.09796238059005 3634.34 411.04822058755076 3655.7 410.9689719408518 3677.06 410.8532595598375 3698.42 410.8010080993925 3719.7799999999997 410.8513168557256 3741.14 410.86025631578275 3762.5 415.85243189703715 3783.86 416.3210682719641 3805.2200000000003 416.31736632943614 3826.58 416.31921689377526 3847.94 416.3159617889731 3869.3 416.32051328878225 3890.66 411.22347657579 3912.02 411.0839891917173 3933.38 411.1035757536376 3954.74 410.9789161674267 3976.1 410.7016436985356 3997.46 410.5976679252191 4018.8199999999997 410.49874026393246 4040.18 410.49749865569987 4061.54 410.36817686183286 4082.9 410.3693732840644 4104.26 410.3816258742522 4125.62 410.3831921847201 4146.98 410.02158135972263 4168.34 410.00098369930805 4189.7 410.10948315685346 4211.0599999999995 409.72296665824126 4232.42 409.60566872011515 4253.78 409.55722453750167 4275.139999999999 409.50831649918746 4296.5 409.442567653401 4296.5 402.96405971887924 4275.139999999999 403.01449278802465 4253.78 402.9591913948528 4232.42 403.01566327837304 4211.0599999999995 403.0312697625879 4189.7 403.17379003690496 4168.34 403.039123205232 4146.98 403.0276937585125 4125.62 402.88697047759695 4104.26 402.8853442705775 4082.9 402.8987404525652 4061.54 402.9002345633593 4040.18 402.80439160515203 4018.8199999999997 402.8071737793706 3997.46 402.7885058788081 3976.1 402.75682438501997 3954.74 402.64364301985916 3933.38 402.6213127942401 3912.02 402.6374941256268 3890.66 402.6382934643876 3869.3 407.18303418872716 3847.94 407.1809148990988 3826.58 407.1872998554764 3805.2200000000003 407.1917111103271 3783.86 407.1621562125779 3762.5 406.9309868112197 3741.14 402.3499262788061 3719.7799999999997 402.3497550933614 3698.42 402.31710391583925 3677.06 402.31377839166817 3655.7 402.32705082967294 3634.34 402.3105155472352 3612.98 402.3328782432905 3591.62 402.29313148871324 3570.26 402.27347913416367 3548.9 402.24951221526595 3527.54 402.264400535425 3506.18 402.2771754039698 3484.82 402.3026796088189 3463.46 402.31237144781545 3442.1 406.6903311154683 3420.74 406.6504534424193 3399.38 406.63653513437157 3378.02 406.73881659701254 3356.66 406.7913155812626 3335.3 406.7895314471883 3313.94 406.7538978821639 3292.58 406.6419996355151 3271.22 406.66475151485594 3249.86 406.64954838762975 3228.5 406.6900606081659 3228.5 416.0954395000898Z" fill="#fdd5a4" opacity="0.9" />
		</g>
		<g>
			<path d="M3228.5 406.6900606081659 3249.86 406.64954838762975 3271.22 406.66475151485594 3292.58 406.6419996355151 3313.94 406.7538978821639 3335.3 406.7895314471883 3356.66 406.7913155812626 3378.02 406.73881659701254 3399.38 406.63653513437157 3420.74 406.6504534424193 3442.1 406.6903311154683 3463.46 402.31237144781545 3484.82 402.3026796088189 3506.18 402.2771754039698 3527.54 402.264400535425 3548.9 402.24951221526595 3570.26 402.27347913416367 3591.62 402.29313148871324 3612.98 402.3328782432905 3634.34 402.3105155472352 3655.7 402.32705082967294 3677.06 402.31377839166817 3698.42 402.31710391583925 3719.7799999999997 402.3497550933614 3741.14 402.3499262788061 3762.5 406.9309868112197 3783.86 407.1621562125779 3805.2200000000003 407.1917111103271 3826.58 407.1872998554764 3847.94 407.1809148990988 3869.3 407.18303418872716 3890.66 402.6382934643876 3912.02 402.6374941256268 3933.38 402.6213127942401 3954.74 402.64364301985916 3976.1 402.75682438501997 3997.46 402.7885058788081 4018.8199999999997 402.8071737793706 4040.18 402.80439160515203 4061.54 402.9002345633593 4082.9 402.8987404525652 4104.26 402.8853442705775 4125.62 402.88697047759695 4146.98 403.0276937585125 4168.34 403.039123205232 4189.7 403.17379003690496 4211.0599999999995 403.0312697625879 4232.42 403.01566327837304 4253.78 402.9591913948528 4275.139999999999 403.01449278802465 4296.5 402.96405971887924 4296.5 398 4275.139999999999 398 4253.78 398.00000000000006 4232.42 397.99999999999994 4211.0599999999995 398.00000000000006 4189.7 397.99999999999994 4168.34 398 4146.98 398 4125.62 397.9999999999999 4104.26 398.00000000000006 4082.9 398.0000000000001 4061.54 398.00000000000006 4040.18 398 4018.8199999999997 397.99999999999994 3997.46 398 3976.1 398 3954.74 398 3933.38 397.99999999999994 3912.02 398.00000000000006 3890.66 397.99999999999994 3869.3 397.9999999999999 3847.94 398.0000000000001 3826.58 397.99999999999994 3805.2200000000003 398 3783.86 398 3762.5 398 3741.14 398 3719.7799999999997 398 3698.42 398.00000000000006 3677.06 398 3655.7 398.0000000000001 3634.34 398.0000000000001 3612.98 398 3591.62 398 3570.26 398.00000000000006 3548.9 398.0000000000001 3527.54 398 3506.18 397.99999999999994 3484.82 398 3463.46 397.99999999999994 3442.1 398 3420.74 398 3399.38 398 3378.02 398.0000000000001 3356.66 398.00000000000006 3335.3 398 3313.94 398 3292.58 398 3271.22 398 3249.86 397.99999999999994 3228.5 398 3228.5 406.6900606081659Z" fill="#393d41" opacity="0.9" />
		</g>
		<g>
			<rect x="4372" y="431" width="22.9995" height="23" fill="#e62d39" />
		</g>
		<g>
			<text fill="#595959" font-family="Verdana,Open Sans,DejaVu Sans,sans-serif" font-weight="400" font-size="41" transform="matrix(1 0 0 1 4404.56 454)">Smartphone</text>
		</g>
		<g>
			<rect x="4372" y="508" width="22.9995" height="23" fill="#005aa6" />
		</g>
		<g>
			<text fill="#595959" font-family="Verdana,Open Sans,DejaVu Sans,sans-serif" font-weight="400" font-size="41" transform="matrix(1 0 0 1 4404.56 531)">Desktop</text>
		</g>
		<g>
			<rect x="4372" y="585" width="22.9995" height="23" fill="#55c0e9" />
		</g>
		<g>
			<text fill="#595959" font-family="Verdana,Open Sans,DejaVu Sans,sans-serif" font-weight="400" font-size="41" transform="matrix(1 0 0 1 4404.56 608)">Other</text>
		</g>
		<g>
			<rect x="4372" y="662" width="22.9995" height="23" fill="#f6a118" />
		</g>
		<g>
			<text fill="#595959" font-family="Verdana,Open Sans,DejaVu Sans,sans-serif" font-weight="400" font-size="41" transform="matrix(1 0 0 1 4404.56 685)">Tablet</text>
		</g>
		<g>
			<rect x="4372" y="739" width="22.9995" height="23" fill="#fdd5a4" />
		</g>
		<g>
			<text fill="#595959" font-family="Verdana,Open Sans,DejaVu Sans,sans-serif" font-weight="400" font-size="41" transform="matrix(1 0 0 1 4404.56 762)">Tv</text>
		</g>
		<g>
			<rect x="4372" y="816" width="22.9995" height="23" fill="#393d41" />
		</g>
		<g>
			<text fill="#595959" font-family="Verdana,Open Sans,DejaVu Sans,sans-serif" font-weight="400" font-size="41" transform="matrix(1 0 0 1 4404.56 839)">Unclassified</text>
		</g>
	</g>
</svg>
