<svg width="1763" height="1046"
    xmlns="http://www.w3.org/2000/svg"
	xmlns:xlink="http://www.w3.org/1999/xlink" xml:space="preserve" overflow="hidden">
	<defs>
		<clipPath id="clip0">
			<rect x="2917" y="346" width="1763" height="1046"/>
		</clipPath>
	</defs>
	<g clip-path="url(#clip0)" transform="translate(-2917 -346)">
		<rect x="2918" y="347" width="1760" height="1043" fill="#FFFFFF" />
		<g>
			<path d="
			M3228.5 974.532 4296.5 974.532
			M3228.5 910.53 4296.5 910.53
			M3228.5 846.528 4296.5 846.528
			M3228.5 781.526 4296.5 781.526
			M3228.5 717.524 4296.5 717.524
			M3228.5 653.522 4296.5 653.522
			M3228.5 589.52 4296.5 589.52
			M3228.5 525.517 4296.5 525.517
			M3228.5 461.515 4296.5 461.515
			M3228.5 397.5 4296.5 397.5" stroke="#D9D9D9" stroke-width="3.4375" stroke-linejoin="round" stroke-miterlimit="10" fill="none" />
		</g>
		<g>
			<path d="M 1038.5 4296.5 1038.5" stroke="#D9D9D9" stroke-width="3.4375" stroke-linejoin="round" stroke-miterlimit="10" fill="none" fill-rule="evenodd" />
		</g>
		<g>
			<text fill="#595959" font-family="Verdana,Open Sans,DejaVu Sans,sans-serif" font-weight="400" font-size="41" transform="matrix(6.12323e-17 -1 1 6.12323e-17 3248.269287109375 1203.3022384643555)">21-Apr</text>
		</g>
		<g>
			<text fill="#595959" font-family="Verdana,Open Sans,DejaVu Sans,sans-serif" font-weight="400" font-size="41" transform="matrix(6.12323e-17 -1 1 6.12323e-17 3333.709287109375 1214.75341796875)">19-May</text>
		</g>
		<g>
			<text fill="#595959" font-family="Verdana,Open Sans,DejaVu Sans,sans-serif" font-weight="400" font-size="41" transform="matrix(6.12323e-17 -1 1 6.12323e-17 3418.0782421875 1194.0532150268555)">23-Jun</text>
		</g>
		<g>
			<text fill="#595959" font-family="Verdana,Open Sans,DejaVu Sans,sans-serif" font-weight="400" font-size="41" transform="matrix(6.12323e-17 -1 1 6.12323e-17 3504.248955078125 1179.0385665893555)">21-Jul</text>
		</g>
		<g>
			<text fill="#595959" font-family="Verdana,Open Sans,DejaVu Sans,sans-serif" font-weight="400" font-size="41" transform="matrix(6.12323e-17 -1 1 6.12323e-17 3590.029287109375 1206.90576171875)">18-Aug</text>
		</g>
		<g>
			<text fill="#595959" font-family="Verdana,Open Sans,DejaVu Sans,sans-serif" font-weight="400" font-size="41" transform="matrix(6.12323e-17 -1 1 6.12323e-17 3675.469287109375 1202.66162109375)">15-Sep</text>
		</g>
		<g>
			<text fill="#595959" font-family="Verdana,Open Sans,DejaVu Sans,sans-serif" font-weight="400" font-size="41" transform="matrix(6.12323e-17 -1 1 6.12323e-17 3756.204697265625 1199.3784103393555)">13-Oct</text>
		</g>
		<g>
			<text fill="#595959" font-family="Verdana,Open Sans,DejaVu Sans,sans-serif" font-weight="400" font-size="41" transform="matrix(6.12323e-17 -1 1 6.12323e-17 3841.644697265625 1209.70849609375)">10-Nov</text>
		</g>
		<g>
			<text fill="#595959" font-family="Verdana,Open Sans,DejaVu Sans,sans-serif" font-weight="400" font-size="41" transform="matrix(6.12323e-17 -1 1 6.12323e-17 3927.084697265625 1207.0859375)">08-Dec</text>
		</g>
		<g>
			<text fill="#595959" font-family="Verdana,Open Sans,DejaVu Sans,sans-serif" font-weight="400" font-size="41" transform="matrix(6.12323e-17 -1 1 6.12323e-17 4016.17826171875 1191.6508712768555)">05-Jan</text>
		</g>
		<g>
			<text fill="#595959" font-family="Verdana,Open Sans,DejaVu Sans,sans-serif" font-weight="400" font-size="41" transform="matrix(6.12323e-17 -1 1 6.12323e-17 4098.675390625 1203.0419921875)">02-Feb</text>
		</g>
		<g>
			<text fill="#595959" font-family="Verdana,Open Sans,DejaVu Sans,sans-serif" font-weight="400" font-size="41" transform="matrix(6.12323e-17 -1 1 6.12323e-17 4183.404697265625 1212.0107421875)">02-Mar</text>
		</g>
		<g>
			<text fill="#595959" font-family="Verdana,Open Sans,DejaVu Sans,sans-serif" font-weight="400" font-size="41" transform="matrix(6.12323e-17 -1 1 6.12323e-17 4268.844697265625 1212.1708984375)">30-Mar</text>
		</g>
		<g>
			<text fill="#595959" font-family="Verdana,Open Sans,DejaVu Sans,sans-serif" font-weight="400" font-size="41" transform="matrix(1 0 0 1 3169.14111328125 1050)">0</text>
		</g>
		<g>
			<text fill="#595959" font-family="Verdana,Open Sans,DejaVu Sans,sans-serif" font-weight="400" font-size="41" transform="matrix(1 0 0 1 3067.2016677856445 922)">18,749</text>
		</g>
		<g>
			<text fill="#595959" font-family="Verdana,Open Sans,DejaVu Sans,sans-serif" font-weight="400" font-size="41" transform="matrix(1 0 0 1 3065.1997146606445 794)">37,497</text>
		</g>
		<g>
			<text fill="#595959" font-family="Verdana,Open Sans,DejaVu Sans,sans-serif" font-weight="400" font-size="41" transform="matrix(1 0 0 1 3065.9003982543945 666)">56,246</text>
		</g>
		<g>
			<text fill="#595959" font-family="Verdana,Open Sans,DejaVu Sans,sans-serif" font-weight="400" font-size="41" transform="matrix(1 0 0 1 3063.9384841918945 538)">74,994</text>
		</g>
		<g>
			<text fill="#595959" font-family="Verdana,Open Sans,DejaVu Sans,sans-serif" font-weight="400" font-size="41" transform="matrix(1 0 0 1 3065.7602615356445 410)">93,743</text>
		</g>
		<g>
			<text fill="#595959" font-family="Verdana,Open Sans,DejaVu Sans,sans-serif" font-weight="400" font-size="41" transform="matrix(1 0 0 1 3556.97119140625 1321)">Week Commencing</text>
		</g>
		<g>
			<text fill="#595959" font-family="Verdana,Open Sans,DejaVu Sans,sans-serif" font-weight="400" font-size="46" transform="matrix(6.12323e-17 -1 1 6.12323e-17 3019.73 1028.5532531738281)">Number of Hardware Profiles</text>
		</g>
		<rect x="2918.5" y="347.5" width="1760" height="1043" stroke="#D9D9D9" stroke-width="3.4375" stroke-linejoin="round" stroke-miterlimit="10" fill="none" />
		<g>
			<path d="M3228.5 1038 3249.86 1038 3271.22 1038 3292.58 1038 3313.94 1038 3335.3 1038 3356.66 1038 3378.02 1038 3399.38 1038 3420.74 1038 3442.1 1038 3463.46 1038 3484.82 1038 3506.18 1038 3527.54 1038 3548.9 1038 3570.26 1038 3591.62 1038 3612.98 1038 3634.34 1038 3655.7 1038 3677.06 1038 3698.42 1038 3719.7799999999997 1038 3741.14 1038 3762.5 1038 3783.86 1038 3805.2200000000003 1038 3826.58 1038 3847.94 1038 3869.3 1038 3890.66 1038 3912.02 1038 3933.38 1038 3954.74 1038 3976.1 1038 3997.46 1038 4018.8199999999997 1038 4040.18 1038 4061.54 1038 4082.9 1038 4104.26 1038 4125.62 1038 4146.98 1038 4168.34 1038 4189.7 1038 4211.0599999999995 1038 4232.42 1038 4253.78 1038 4275.139999999999 1038 4296.5 1038 4296.5 692.9067130345733 4275.139999999999 693.0773924453026 4253.78 693.2958620910362 4232.42 693.6577024417822 4211.0599999999995 694.0809873803911 4189.7 694.354074437558 4168.34 694.5657169068625 4146.98 694.8183224347417 4125.62 695.0914094919087 4104.26 695.2416073733506 4082.9 695.49421290123 4061.54 695.7195097233927 4040.18 696.1086587798555 4018.8199999999997 696.3680914841641 3997.46 696.675314423477 3976.1 696.7777220699145 3954.74 696.9006112456397 3933.38 697.1190808913732 3912.02 697.3785135956819 3890.66 697.5833288885569 3869.3 697.7881441814322 3847.94 697.9861322978783 3826.58 698.1636388850368 3805.2200000000003 698.3411454721952 3783.86 698.6005781765039 3762.5 698.8941467629584 3741.14 699.1262707615501 3719.7799999999997 699.3788762894296 3698.42 699.7134079344592 3677.06 700.1162113437804 3655.7 700.4712245180974 3634.34 700.7852746338393 3612.98 701.0924975731521 3591.62 701.2904856895982 3570.26 701.6113629817694 3548.9 701.877622862507 3527.54 702.191672978249 3506.18 702.5808220347119 3484.82 702.8675634447372 3463.46 703.133823325475 3442.1 703.4615277940753 3420.74 703.7755779098172 3399.38 704.0623193198426 3378.02 704.4241596705888 3356.66 704.867926138485 3335.3 705.4072730763896 3313.94 705.7691134271358 3292.58 706.089990719307 3271.22 706.4654854229116 3249.86 706.8273257736578 3228.5 707.1277215365415 3228.5 1038Z" fill="#e62d39" opacity="0.9" />
		</g>
		<g>
			<path d="M3228.5 707.1277215365415 3249.86 706.8273257736578 3271.22 706.4654854229116 3292.58 706.089990719307 3313.94 705.7691134271358 3335.3 705.4072730763896 3356.66 704.867926138485 3378.02 704.4241596705888 3399.38 704.0623193198426 3420.74 703.7755779098172 3442.1 703.4615277940753 3463.46 703.133823325475 3484.82 702.8675634447372 3506.18 702.5808220347119 3527.54 702.191672978249 3548.9 701.877622862507 3570.26 701.6113629817694 3591.62 701.2904856895982 3612.98 701.0924975731521 3634.34 700.7852746338393 3655.7 700.4712245180974 3677.06 700.1162113437804 3698.42 699.7134079344592 3719.7799999999997 699.3788762894296 3741.14 699.1262707615501 3762.5 698.8941467629584 3783.86 698.6005781765039 3805.2200000000003 698.3411454721952 3826.58 698.1636388850368 3847.94 697.9861322978783 3869.3 697.7881441814322 3890.66 697.5833288885569 3912.02 697.3785135956819 3933.38 697.1190808913732 3954.74 696.9006112456397 3976.1 696.7777220699145 3997.46 696.675314423477 4018.8199999999997 696.3680914841641 4040.18 696.1086587798555 4061.54 695.7195097233927 4082.9 695.49421290123 4104.26 695.2416073733506 4125.62 695.0914094919087 4146.98 694.8183224347417 4168.34 694.5657169068625 4189.7 694.354074437558 4211.0599999999995 694.0809873803911 4232.42 693.6577024417822 4253.78 693.2958620910362 4275.139999999999 693.0773924453026 4296.5 692.9067130345733 4296.5 528.774564500816 4275.139999999999 528.9862069701205 4253.78 529.2251581451416 4232.42 529.6552702601793 4211.0599999999995 530.0922095516465 4189.7 530.3994324909593 4168.34 530.6725195481264 4146.98 530.979742487439 4125.62 531.3006197796102 4104.26 531.4917807196271 4082.9 531.8058308353691 4061.54 532.1062265982526 4040.18 532.6387463597282 4018.8199999999997 532.9664508283284 3997.46 533.417044472654 3976.1 533.5945510598124 3954.74 533.737921764825 3933.38 534.0314903512796 3912.02 534.4001578784549 3890.66 534.680072112051 3869.3 534.9668135220763 3847.94 535.2330734028142 3826.58 535.5198148128394 3805.2200000000003 535.820210575723 3783.86 536.2298411614734 3762.5 536.6599532765114 3741.14 537.0695838622617 3719.7799999999997 537.472387271583 3698.42 537.9775983273419 3677.06 538.5032909123881 3655.7 538.9607117331428 3634.34 539.404478201039 3612.98 539.8141087867893 3591.62 540.0394056089522 3570.26 540.4217274889859 3548.9 540.8381852511653 3527.54 541.3297419540659 3506.18 541.8895704212581 3484.82 542.3060281834378 3463.46 542.8112392391965 3442.1 543.2754872363803 3420.74 543.7670439392807 3399.38 544.2586006421814 3378.02 544.7911204036568 3356.66 545.3714304001365 3335.3 546.2384818066415 3313.94 546.730038509542 3292.58 547.1533234481508 3271.22 547.6039170924762 3249.86 548.0818194425184 3228.5 548.4709684989814 3228.5 707.1277215365415Z" fill="#f6a118" opacity="0.9" />
		</g>
		<g>
			<path d="M3228.5 548.4709684989814 3249.86 548.0818194425184 3271.22 547.6039170924762 3292.58 547.1533234481508 3313.94 546.730038509542 3335.3 546.2384818066415 3356.66 545.3714304001365 3378.02 544.7911204036568 3399.38 544.2586006421814 3420.74 543.7670439392807 3442.1 543.2754872363803 3463.46 542.8112392391965 3484.82 542.3060281834378 3506.18 541.8895704212581 3527.54 541.3297419540659 3548.9 540.8381852511653 3570.26 540.4217274889859 3591.62 540.0394056089522 3612.98 539.8141087867893 3634.34 539.404478201039 3655.7 538.9607117331428 3677.06 538.5032909123881 3698.42 537.9775983273419 3719.7799999999997 537.472387271583 3741.14 537.0695838622617 3762.5 536.6599532765114 3783.86 536.2298411614734 3805.2200000000003 535.820210575723 3826.58 535.5198148128394 3847.94 535.2330734028142 3869.3 534.9668135220763 3890.66 534.680072112051 3912.02 534.4001578784549 3933.38 534.0314903512796 3954.74 533.737921764825 3976.1 533.5945510598124 3997.46 533.417044472654 4018.8199999999997 532.9664508283284 4040.18 532.6387463597282 4061.54 532.1062265982526 4082.9 531.8058308353691 4104.26 531.4917807196271 4125.62 531.3006197796102 4146.98 530.979742487439 4168.34 530.6725195481264 4189.7 530.3994324909593 4211.0599999999995 530.0922095516465 4232.42 529.6552702601793 4253.78 529.2251581451416 4275.139999999999 528.9862069701205 4296.5 528.774564500816 4296.5 454.3924773049721 4275.139999999999 454.60411977427657 4253.78 454.8498981257268 4232.42 455.2936645936229 4211.0599999999995 455.7306038850901 4189.7 456.0378268244028 4168.34 456.31091388156995 4146.98 456.6317911737409 4125.62 456.96632281877044 4104.26 457.17113811164563 4082.9 457.48518822738765 4061.54 457.8060655195588 4040.18 458.3727211631802 4018.8199999999997 458.7072528082096 3997.46 459.17150080539346 3976.1 459.3558345689811 3954.74 459.49920527399377 3933.38 459.8337369190233 3912.02 460.25019468120286 3890.66 460.5847263262323 3869.3 460.8919492655452 3847.94 461.1650363227122 3826.58 461.4859136148833 3805.2200000000003 461.83409961277107 3783.86 462.34613784495906 3762.5 462.8240401950013 3741.14 463.2814610157558 3719.7799999999997 463.7320546600813 3698.42 464.3533277151362 3677.06 464.91998335875746 3655.7 465.40471288522883 3634.34 465.88944241170003 3612.98 466.31272735030876 3591.62 466.56533287818826 3570.26 467.0022721696554 3548.9 467.50065604898487 3527.54 468.01952145760214 3506.18 468.5998314540819 3484.82 469.0299435691199 3463.46 469.56929050702456 3442.1 470.0745015627833 3420.74 470.5797126185421 3399.38 471.12588673287615 3378.02 471.69254237649744 3356.66 472.3069882551231 3335.3 473.26962013163643 3313.94 473.8157942459704 3292.58 474.2936965960125 3271.22 474.76477176962544 3249.86 475.31094588395933 3228.5 475.72740364613907 3228.5 548.4709684989814Z" fill="#55c0e9" opacity="0.9" />
		</g>
		<g>
			<path d="M3228.5 475.72740364613907 3249.86 475.31094588395933 3271.22 474.76477176962544 3292.58 474.2936965960125 3313.94 473.8157942459704 3335.3 473.26962013163643 3356.66 472.3069882551231 3378.02 471.69254237649744 3399.38 471.12588673287615 3420.74 470.5797126185421 3442.1 470.0745015627833 3463.46 469.56929050702456 3484.82 469.0299435691199 3506.18 468.5998314540819 3527.54 468.01952145760214 3548.9 467.50065604898487 3570.26 467.0022721696554 3591.62 466.56533287818826 3612.98 466.31272735030876 3634.34 465.88944241170003 3655.7 465.40471288522883 3677.06 464.91998335875746 3698.42 464.3533277151362 3719.7799999999997 463.7320546600813 3741.14 463.2814610157558 3762.5 462.8240401950013 3783.86 462.34613784495906 3805.2200000000003 461.83409961277107 3826.58 461.4859136148833 3847.94 461.1650363227122 3869.3 460.8919492655452 3890.66 460.5847263262323 3912.02 460.25019468120286 3933.38 459.8337369190233 3954.74 459.49920527399377 3976.1 459.3558345689811 3997.46 459.17150080539346 4018.8199999999997 458.7072528082096 4040.18 458.3727211631802 4061.54 457.8060655195588 4082.9 457.48518822738765 4104.26 457.17113811164563 4125.62 456.96632281877044 4146.98 456.6317911737409 4168.34 456.31091388156995 4189.7 456.0378268244028 4211.0599999999995 455.7306038850901 4232.42 455.2936645936229 4253.78 454.8498981257268 4275.139999999999 454.60411977427657 4296.5 454.3924773049721 4296.5 399.2835091686846 4275.139999999999 399.7409299894393 4253.78 400.15738775161884 4232.42 400.6489444545192 4211.0599999999995 401.3384892738658 4189.7 401.8095644474787 4168.34 402.19871350394175 4146.98 402.8268137354255 4125.62 403.50270420191373 4104.26 403.987433728385 4082.9 404.6496698420149 4061.54 405.10709066276945 4040.18 405.8444257171202 4018.8199999999997 406.30867371430395 3997.46 406.8958108872129 3976.1 407.1415892386631 3954.74 407.3464045315383 3933.38 407.7901709994346 3912.02 408.3090364080518 3890.66 408.69818546451467 3869.3 409.14195193241096 3847.94 409.53792816530313 3826.58 409.9748674567702 3805.2200000000003 410.47325133609974 3783.86 411.1218330968712 3762.5 411.620216976201 3741.14 412.2687987369723 3719.7799999999997 412.8764174391688 3698.42 413.5523079056571 3677.06 414.26916143072015 3655.7 414.7880268393374 3634.34 415.4366086001088 3612.98 416.037400125876 3591.62 416.3855861237639 3570.26 416.9932048259604 3548.9 417.69640399816507 3527.54 418.3791216410825 3506.18 419.0208762254248 3484.82 419.614840574763 3463.46 420.2429408062469 3442.1 420.91200409630585 3420.74 421.5878945627939 3399.38 422.25013067642396 3378.02 422.9533298486287 3356.66 423.64970184440443 3335.3 424.86493924879716 3313.94 425.5476568917146 3292.58 426.2372017110611 3271.22 426.81068453111163 3249.86 427.47974782117063 3228.5 427.97813170050046 3228.5 475.72740364613907Z" fill="#fdd5a4" opacity="0.9" />
		</g>
		<g>
			<path d="M3228.5 427.97813170050046 3249.86 427.47974782117063 3271.22 426.81068453111163 3292.58 426.2372017110611 3313.94 425.5476568917146 3335.3 424.86493924879716 3356.66 423.64970184440443 3378.02 422.9533298486287 3399.38 422.25013067642396 3420.74 421.5878945627939 3442.1 420.91200409630585 3463.46 420.2429408062469 3484.82 419.614840574763 3506.18 419.0208762254248 3527.54 418.3791216410825 3548.9 417.69640399816507 3570.26 416.9932048259604 3591.62 416.3855861237639 3612.98 416.037400125876 3634.34 415.4366086001088 3655.7 414.7880268393374 3677.06 414.26916143072015 3698.42 413.5523079056571 3719.7799999999997 412.8764174391688 3741.14 412.2687987369723 3762.5 411.620216976201 3783.86 411.1218330968712 3805.2200000000003 410.47325133609974 3826.58 409.9748674567702 3847.94 409.53792816530313 3869.3 409.14195193241096 3890.66 408.69818546451467 3912.02 408.3090364080518 3933.38 407.7901709994346 3954.74 407.3464045315383 3976.1 407.1415892386631 3997.46 406.8958108872129 4018.8199999999997 406.30867371430395 4040.18 405.8444257171202 4061.54 405.10709066276945 4082.9 404.6496698420149 4104.26 403.987433728385 4125.62 403.50270420191373 4146.98 402.8268137354255 4168.34 402.19871350394175 4189.7 401.8095644474787 4211.0599999999995 401.3384892738658 4232.42 400.6489444545192 4253.78 400.15738775161884 4275.139999999999 399.7409299894393 4296.5 399.2835091686846 4296.5 398 4275.139999999999 398.4574208207547 4253.78 398.87387858293425 4232.42 399.3654352858346 4211.0599999999995 400.0549801051812 4189.7 400.5260552787941 4168.34 400.91520433525716 4146.98 401.5433045667409 4125.62 402.21919503322914 4104.26 402.7039245597004 4082.9 403.3661606733303 4061.54 403.82358149408486 4040.18 404.5609165484356 4018.8199999999997 405.02516454561936 3997.46 405.61230171852833 3976.1 405.8580800699785 3954.74 406.06289536285374 3933.38 406.50666183075003 3912.02 407.0255272393672 3890.66 407.4283306486884 3869.3 407.8720971165847 3847.94 408.2680733494769 3826.58 408.70501264094395 3805.2200000000003 409.2033965202735 3783.86 409.851978281045 3762.5 410.35036216037474 3741.14 410.99894392114606 3719.7799999999997 411.60656262334254 3698.42 412.2824530898308 3677.06 412.9993066148939 3655.7 413.51817202351117 3634.34 414.16675378428255 3612.98 414.76754531004974 3591.62 415.11573130793766 3570.26 415.72335001013414 3548.9 416.4265491823388 3527.54 417.10926682525627 3506.18 417.75102140959854 3484.82 418.34498575893673 3463.46 418.97308599042066 3442.1 419.6421492804796 3420.74 420.31803974696766 3399.38 420.9802758605977 3378.02 421.68347503280245 3356.66 422.3798470285782 3335.3 423.5950844329709 3313.94 424.27780207588836 3292.58 424.96734689523487 3271.22 425.5408297152854 3249.86 426.2098930053444 3228.5 426.7082768846742 3228.5 427.97813170050046Z" fill="#005aa6" opacity="0.9" />
		</g>
		<g>
			<rect x="4372" y="431" width="22.9995" height="23" fill="#e62d39" />
		</g>
		<g>
			<text fill="#595959" font-family="Verdana,Open Sans,DejaVu Sans,sans-serif" font-weight="400" font-size="41" transform="matrix(1 0 0 1 4404.56 454)">Smartphone</text>
		</g>
		<g>
			<rect x="4372" y="508" width="22.9995" height="23" fill="#f6a118" />
		</g>
		<g>
			<text fill="#595959" font-family="Verdana,Open Sans,DejaVu Sans,sans-serif" font-weight="400" font-size="41" transform="matrix(1 0 0 1 4404.56 531)">Tablet</text>
		</g>
		<g>
			<rect x="4372" y="585" width="22.9995" height="23" fill="#55c0e9" />
		</g>
		<g>
			<text fill="#595959" font-family="Verdana,Open Sans,DejaVu Sans,sans-serif" font-weight="400" font-size="41" transform="matrix(1 0 0 1 4404.56 608)">Other</text>
		</g>
		<g>
			<rect x="4372" y="662" width="22.9995" height="23" fill="#fdd5a4" />
		</g>
		<g>
			<text fill="#595959" font-family="Verdana,Open Sans,DejaVu Sans,sans-serif" font-weight="400" font-size="41" transform="matrix(1 0 0 1 4404.56 685)">Tv</text>
		</g>
		<g>
			<rect x="4372" y="739" width="22.9995" height="23" fill="#005aa6" />
		</g>
		<g>
			<text fill="#595959" font-family="Verdana,Open Sans,DejaVu Sans,sans-serif" font-weight="400" font-size="41" transform="matrix(1 0 0 1 4404.56 762)">Desktop</text>
		</g>
	</g>
</svg>
