<svg width="1763" height="1046"
    xmlns="http://www.w3.org/2000/svg"
	xmlns:xlink="http://www.w3.org/1999/xlink" xml:space="preserve" overflow="hidden">
	<defs>
		<clipPath id="clip0">
			<rect x="2917" y="346" width="1763" height="1046"/>
		</clipPath>
	</defs>
	<g clip-path="url(#clip0)" transform="translate(-2917 -346)">
		<rect x="2918" y="347" width="1760" height="1043" fill="#FFFFFF" />
		<g>
			<path d="
			M3228.5 974.532 4296.5 974.532
			M3228.5 910.53 4296.5 910.53
			M3228.5 846.528 4296.5 846.528
			M3228.5 781.526 4296.5 781.526
			M3228.5 717.524 4296.5 717.524
			M3228.5 653.522 4296.5 653.522
			M3228.5 589.52 4296.5 589.52
			M3228.5 525.517 4296.5 525.517
			M3228.5 461.515 4296.5 461.515
			M3228.5 397.5 4296.5 397.5" stroke="#D9D9D9" stroke-width="3.4375" stroke-linejoin="round" stroke-miterlimit="10" fill="none" />
		</g>
		<g>
			<path d="M 1038.5 4296.5 1038.5" stroke="#D9D9D9" stroke-width="3.4375" stroke-linejoin="round" stroke-miterlimit="10" fill="none" fill-rule="evenodd" />
		</g>
		<g>
			<text fill="#595959" font-family="Verdana,sans-serif" font-weight="400" font-size="41" transform="matrix(6.12323e-17 -1 1 6.12323e-17 3244.5 1225)">06-Nov</text>
		</g>
		<g>
			<text fill="#595959" font-family="Verdana,sans-serif" font-weight="400" font-size="41" transform="matrix(6.12323e-17 -1 1 6.12323e-17 3323.6111111111113 1224)">20-Nov</text>
		</g>
		<g>
			<text fill="#595959" font-family="Verdana,sans-serif" font-weight="400" font-size="41" transform="matrix(6.12323e-17 -1 1 6.12323e-17 3402.722222222222 1223)">04-Dec</text>
		</g>
		<g>
			<text fill="#595959" font-family="Verdana,sans-serif" font-weight="400" font-size="41" transform="matrix(6.12323e-17 -1 1 6.12323e-17 3481.8333333333335 1220)">18-Dec</text>
		</g>
		<g>
			<text fill="#595959" font-family="Verdana,sans-serif" font-weight="400" font-size="41" transform="matrix(6.12323e-17 -1 1 6.12323e-17 3560.9444444444443 1210)">01-Jan</text>
		</g>
		<g>
			<text fill="#595959" font-family="Verdana,sans-serif" font-weight="400" font-size="41" transform="matrix(6.12323e-17 -1 1 6.12323e-17 3639.5555555555557 1207)">15-Jan</text>
		</g>
		<g>
			<text fill="#595959" font-family="Verdana,sans-serif" font-weight="400" font-size="41" transform="matrix(6.12323e-17 -1 1 6.12323e-17 3719.1666666666665 1210)">29-Jan</text>
		</g>
		<g>
			<text fill="#595959" font-family="Verdana,sans-serif" font-weight="400" font-size="41" transform="matrix(6.12323e-17 -1 1 6.12323e-17 3798.277777777778 1214)">12-Feb</text>
		</g>
		<g>
			<text fill="#595959" font-family="Verdana,sans-serif" font-weight="400" font-size="41" transform="matrix(6.12323e-17 -1 1 6.12323e-17 3877.3888888888887 1216)">26-Feb</text>
		</g>
		<g>
			<text fill="#595959" font-family="Verdana,sans-serif" font-weight="400" font-size="41" transform="matrix(6.12323e-17 -1 1 6.12323e-17 3956 1221)">11-Mar</text>
		</g>
		<g>
			<text fill="#595959" font-family="Verdana,sans-serif" font-weight="400" font-size="41" transform="matrix(6.12323e-17 -1 1 6.12323e-17 4035.6111111111113 1223)">25-Mar</text>
		</g>
		<g>
			<text fill="#595959" font-family="Verdana,sans-serif" font-weight="400" font-size="41" transform="matrix(6.12323e-17 -1 1 6.12323e-17 4118.222222222223 1217)">08-Apr</text>
		</g>
		<g>
			<text fill="#595959" font-family="Verdana,sans-serif" font-weight="400" font-size="41" transform="matrix(6.12323e-17 -1 1 6.12323e-17 4197.333333333333 1216)">22-Apr</text>
		</g>
		<g>
			<text fill="#595959" font-family="Verdana,sans-serif" font-weight="400" font-size="41" transform="matrix(6.12323e-17 -1 1 6.12323e-17 4276.444444444444 1228)">06-May</text>
		</g>
		<g>
			<text fill="#595959" font-family="Verdana,sans-serif" font-weight="400" font-size="41" transform="matrix(1 0 0 1 3167.5 1050)">0</text>
		</g>
		<g>
			<text fill="#595959" font-family="Verdana,sans-serif" font-weight="400" font-size="41" transform="matrix(1 0 0 1 3051.5 922)">16,980</text>
		</g>
		<g>
			<text fill="#595959" font-family="Verdana,sans-serif" font-weight="400" font-size="41" transform="matrix(1 0 0 1 3048.5 794)">33,960</text>
		</g>
		<g>
			<text fill="#595959" font-family="Verdana,sans-serif" font-weight="400" font-size="41" transform="matrix(1 0 0 1 3050.5 666)">50,941</text>
		</g>
		<g>
			<text fill="#595959" font-family="Verdana,sans-serif" font-weight="400" font-size="41" transform="matrix(1 0 0 1 3049.5 538)">67,921</text>
		</g>
		<g>
			<text fill="#595959" font-family="Verdana,sans-serif" font-weight="400" font-size="41" transform="matrix(1 0 0 1 3049.5 410)">84,901</text>
		</g>
		<g>
			<text fill="#595959" font-family="Verdana,sans-serif" font-weight="400" font-size="41" transform="matrix(1 0 0 1 3544.5 1321)">Week Commencing</text>
		</g>
		<g>
			<text fill="#595959" font-family="Verdana,sans-serif" font-weight="400" font-size="46" transform="matrix(6.12323e-17 -1 1 6.12323e-17 3019.73 1048.25)">Number of Hardware Profiles</text>
		</g>
		<rect x="2918.5" y="347.5" width="1760" height="1043" stroke="#D9D9D9" stroke-width="3.4375" stroke-linejoin="round" stroke-miterlimit="10" fill="none" />
		<g>
			<path d="M3228.5 1038 3268.0555555555557 1038 3307.6111111111113 1038 3347.1666666666665 1038 3386.722222222222 1038 3426.277777777778 1038 3465.8333333333335 1038 3505.3888888888887 1038 3544.9444444444443 1038 3584.5 1038 3624.0555555555557 1038 3663.6111111111113 1038 3703.1666666666665 1038 3742.722222222222 1038 3782.277777777778 1038 3821.8333333333335 1038 3861.3888888888887 1038 3900.9444444444443 1038 3940.5 1038 3980.0555555555557 1038 4019.6111111111113 1038 4059.166666666667 1038 4098.722222222223 1038 4138.277777777777 1038 4177.833333333333 1038 4217.388888888889 1038 4256.944444444444 1038 4296.5 1038 4296.5 687.7379300597165 4256.944444444444 687.9037702736127 4217.388888888889 688.2128361267829 4177.833333333333 688.5972838953605 4138.277777777777 689.0571135793454 4098.722222222223 689.4340231563822 4059.166666666667 689.7657035841745 4019.6111111111113 689.9993875219373 3980.0555555555557 690.2783006089445 3940.5 690.5270609297888 3900.9444444444443 690.7155157183072 3861.3888888888887 690.8813559322034 3821.8333333333335 691.0019669968551 3782.277777777778 691.1979599769143 3742.722222222222 691.4014911485142 3703.1666666666665 691.8990117902026 3663.6111111111113 692.260844984158 3624.0555555555557 692.7131364766021 3584.5 693.1805043521277 3544.9444444444443 693.5272611630016 3505.3888888888887 693.4669556306758 3465.8333333333335 693.7609451007644 3426.277777777778 694.1001637200975 3386.722222222222 694.3715386155641 3347.1666666666665 694.7333718095193 3307.6111111111113 695.0424376626895 3268.0555555555557 695.3515035158596 3228.5 695.8414859660074 3228.5 1038Z" fill="#e62d39" opacity="0.9" />
		</g>
		<g>
			<path d="M3228.5 695.8414859660074 3268.0555555555557 695.3515035158596 3307.6111111111113 695.0424376626895 3347.1666666666665 694.7333718095193 3386.722222222222 694.3715386155641 3426.277777777778 694.1001637200975 3465.8333333333335 693.7609451007644 3505.3888888888887 693.4669556306758 3544.9444444444443 693.5272611630016 3584.5 693.1805043521277 3624.0555555555557 692.7131364766021 3663.6111111111113 692.260844984158 3703.1666666666665 691.8990117902026 3742.722222222222 691.4014911485142 3782.277777777778 691.1979599769143 3821.8333333333335 691.0019669968551 3861.3888888888887 690.8813559322034 3900.9444444444443 690.7155157183072 3940.5 690.5270609297888 3980.0555555555557 690.2783006089445 4019.6111111111113 689.9993875219373 4059.166666666667 689.7657035841745 4098.722222222223 689.4340231563822 4138.277777777777 689.0571135793454 4177.833333333333 688.5972838953605 4217.388888888889 688.2128361267829 4256.944444444444 687.9037702736127 4296.5 687.7379300597165 4296.5 518.234155074734 4256.944444444444 518.6261410348523 4217.388888888889 519.1085852934593 4177.833333333333 519.6890260420962 4138.277777777777 520.3674632807623 4098.722222222223 520.9328276463175 4059.166666666667 521.430348288006 4019.6111111111113 521.7469523327169 3980.0555555555557 522.1087855266721 3940.5 522.4781569121683 3900.9444444444443 522.7269172330125 3861.3888888888887 523.0058303200198 3821.8333333333335 523.1867469169974 3782.277777777778 523.4807363870862 3742.722222222222 523.7596494740934 3703.1666666666665 524.3627047973521 3663.6111111111113 524.8526872475 3624.0555555555557 525.4331279961366 3584.5 526.0437215109362 3544.9444444444443 526.5261657695434 3505.3888888888887 526.4733984287583 3465.8333333333335 526.8427698142542 3426.277777777778 527.3327522644021 3386.722222222222 527.8830402468758 3347.1666666666665 528.4785573785939 3307.6111111111113 529.1268418510972 3268.0555555555557 529.7148207912744 3228.5 530.3932580299407 3228.5 695.8414859660074Z" fill="#f6a118" opacity="0.9" />
		</g>
		<g>
			<path d="M3228.5 530.3932580299407 3268.0555555555557 529.7148207912744 3307.6111111111113 529.1268418510972 3347.1666666666665 528.4785573785939 3386.722222222222 527.8830402468758 3426.277777777778 527.3327522644021 3465.8333333333335 526.8427698142542 3505.3888888888887 526.4733984287583 3544.9444444444443 526.5261657695434 3584.5 526.0437215109362 3624.0555555555557 525.4331279961366 3663.6111111111113 524.8526872475 3703.1666666666665 524.3627047973521 3742.722222222222 523.7596494740934 3782.277777777778 523.4807363870862 3821.8333333333335 523.1867469169974 3861.3888888888887 523.0058303200198 3900.9444444444443 522.7269172330125 3940.5 522.4781569121683 3980.0555555555557 522.1087855266721 4019.6111111111113 521.7469523327169 4059.166666666667 521.430348288006 4098.722222222223 520.9328276463175 4138.277777777777 520.3674632807623 4177.833333333333 519.6890260420962 4217.388888888889 519.1085852934593 4256.944444444444 518.6261410348523 4296.5 518.234155074734 4296.5 439.78419571029775 4256.944444444444 440.20633443657897 4217.388888888889 440.7264696528897 4177.833333333333 441.35967774231176 4138.277777777777 442.0758059386815 4098.722222222223 442.6562466873182 4059.166666666667 443.19899647825116 4019.6111111111113 443.5306769060435 3980.0555555555557 443.92266286616166 3940.5 444.3071106347393 3900.9444444444443 444.5634091471242 3861.3888888888887 444.86493680875367 3821.8333333333335 445.0609297888128 3782.277777777778 445.369995641983 3742.722222222222 445.67906149515323 3703.1666666666665 446.28965500995264 3663.6111111111113 446.8022520347227 3624.0555555555557 447.3977691664408 3584.5 448.0686682135663 3544.9444444444443 448.5812652383364 3505.3888888888887 448.5812652383365 3465.8333333333335 448.9581748153731 3426.277777777778 449.53861556400983 3386.722222222222 450.12659450418727 3347.1666666666665 450.7296498274461 3307.6111111111113 451.41562525765306 3268.0555555555557 452.0639097301562 3228.5 452.79511430960764 3228.5 530.3932580299407Z" fill="#55c0e9" opacity="0.9" />
		</g>
		<g>
			<path d="M3228.5 452.79511430960764 3268.0555555555557 452.0639097301562 3307.6111111111113 451.41562525765306 3347.1666666666665 450.7296498274461 3386.722222222222 450.12659450418727 3426.277777777778 449.53861556400983 3465.8333333333335 448.9581748153731 3505.3888888888887 448.5812652383365 3544.9444444444443 448.5812652383364 3584.5 448.0686682135663 3624.0555555555557 447.3977691664408 3663.6111111111113 446.8022520347227 3703.1666666666665 446.28965500995264 3742.722222222222 445.67906149515323 3782.277777777778 445.369995641983 3821.8333333333335 445.0609297888128 3861.3888888888887 444.86493680875367 3900.9444444444443 444.5634091471242 3940.5 444.3071106347393 3980.0555555555557 443.92266286616166 4019.6111111111113 443.5306769060435 4059.166666666667 443.19899647825116 4098.722222222223 442.6562466873182 4138.277777777777 442.0758059386815 4177.833333333333 441.35967774231176 4217.388888888889 440.7264696528897 4256.944444444444 440.20633443657897 4296.5 439.78419571029775 4296.5 399.38702724349525 4256.944444444444 399.95239160905044 4217.388888888889 400.61575246463514 4177.833333333333 401.4072625764127 4138.277777777777 402.17615811356757 4098.722222222223 402.877209926856 4059.166666666667 403.45765067549263 4019.6111111111113 403.81948386944794 3980.0555555555557 404.26423717035124 3940.5 404.67129951355105 3900.9444444444443 405.0557472821285 3861.3888888888887 405.5381915407356 3821.8333333333335 406.1864760132389 3782.277777777778 406.9779861250162 3742.722222222222 407.4152012343789 3703.1666666666665 408.0710238984227 3663.6111111111113 408.71930837092606 3624.0555555555557 409.35251646034783 3584.5 410.1214119975029 3544.9444444444443 410.7395437038433 3505.3888888888887 410.7395437038434 3465.8333333333335 411.2069115793688 3426.277777777778 411.8928870095758 3386.722222222222 412.58640063132356 3347.1666666666665 413.3326815938564 3307.6111111111113 414.1543444717966 3268.0555555555557 414.87801085970705 3228.5 415.7298265038103 3228.5 452.79511430960764Z" fill="#fdd5a4" opacity="0.9" />
		</g>
		<g>
			<path d="M3228.5 415.7298265038103 3268.0555555555557 414.87801085970705 3307.6111111111113 414.1543444717966 3347.1666666666665 413.3326815938564 3386.722222222222 412.58640063132356 3426.277777777778 411.8928870095758 3465.8333333333335 411.2069115793688 3505.3888888888887 410.7395437038434 3544.9444444444443 410.7395437038433 3584.5 410.1214119975029 3624.0555555555557 409.35251646034783 3663.6111111111113 408.71930837092606 3703.1666666666665 408.0710238984227 3742.722222222222 407.4152012343789 3782.277777777778 406.9779861250162 3821.8333333333335 406.1864760132389 3861.3888888888887 405.5381915407356 3900.9444444444443 405.0557472821285 3940.5 404.67129951355105 3980.0555555555557 404.26423717035124 4019.6111111111113 403.81948386944794 4059.166666666667 403.45765067549263 4098.722222222223 402.877209926856 4138.277777777777 402.17615811356757 4177.833333333333 401.4072625764127 4217.388888888889 400.61575246463514 4256.944444444444 399.95239160905044 4296.5 399.38702724349525 4296.5 397.9999999999999 4256.944444444444 398.56536436555507 4217.388888888889 399.22872522113977 4177.833333333333 400.0202353329173 4138.277777777777 400.7891308700722 4098.722222222223 401.5052590664421 4059.166666666667 402.0856998150787 4019.6111111111113 402.44753300903403 3980.0555555555557 402.89228630993733 3940.5 403.29934865313714 3900.9444444444443 403.6837964217146 3861.3888888888887 404.1662406803217 3821.8333333333335 404.814525152825 3782.277777777778 405.60603526460227 3742.722222222222 406.043250373965 3703.1666666666665 406.6990730380088 3663.6111111111113 407.34735751051215 3624.0555555555557 407.9805655999339 3584.5 408.749461137089 3544.9444444444443 409.3675928434294 3505.3888888888887 409.3675928434295 3465.8333333333335 409.86511348511783 3426.277777777778 410.5586271068656 3386.722222222222 411.2521407286133 3347.1666666666665 411.9984216911462 3307.6111111111113 412.82008456908636 3268.0555555555557 413.5437509569968 3228.5 414.39556660110003 3228.5 415.7298265038103Z" fill="#005aa6" opacity="0.9" />
		</g>
		<g>
			<rect x="4372" y="431" width="22.9995" height="23" fill="#e62d39" />
		</g>
		<g>
			<text fill="#595959" font-family="Verdana,sans-serif" font-weight="400" font-size="41" transform="matrix(1 0 0 1 4404.56 454)">Smartphone</text>
		</g>
		<g>
			<rect x="4372" y="508" width="22.9995" height="23" fill="#f6a118" />
		</g>
		<g>
			<text fill="#595959" font-family="Verdana,sans-serif" font-weight="400" font-size="41" transform="matrix(1 0 0 1 4404.56 531)">Tablet</text>
		</g>
		<g>
			<rect x="4372" y="585" width="22.9995" height="23" fill="#55c0e9" />
		</g>
		<g>
			<text fill="#595959" font-family="Verdana,sans-serif" font-weight="400" font-size="41" transform="matrix(1 0 0 1 4404.56 608)">Other</text>
		</g>
		<g>
			<rect x="4372" y="662" width="22.9995" height="23" fill="#fdd5a4" />
		</g>
		<g>
			<text fill="#595959" font-family="Verdana,sans-serif" font-weight="400" font-size="41" transform="matrix(1 0 0 1 4404.56 685)">Tv</text>
		</g>
		<g>
			<rect x="4372" y="739" width="22.9995" height="23" fill="#005aa6" />
		</g>
		<g>
			<text fill="#595959" font-family="Verdana,sans-serif" font-weight="400" font-size="41" transform="matrix(1 0 0 1 4404.56 762)">Desktop</text>
		</g>
	</g>
</svg>
