<svg width="1763" height="1046"
    xmlns="http://www.w3.org/2000/svg"
	xmlns:xlink="http://www.w3.org/1999/xlink" xml:space="preserve" overflow="hidden">
	<defs>
		<clipPath id="clip0">
			<rect x="2917" y="346" width="1763" height="1046"/>
		</clipPath>
	</defs>
	<g clip-path="url(#clip0)" transform="translate(-2917 -346)">
		<rect x="2918" y="347" width="1760" height="1043" fill="#FFFFFF" />
		<g>
			<path d="
			M3228.5 974.532 4296.5 974.532
			M3228.5 910.53 4296.5 910.53
			M3228.5 846.528 4296.5 846.528
			M3228.5 781.526 4296.5 781.526
			M3228.5 717.524 4296.5 717.524
			M3228.5 653.522 4296.5 653.522
			M3228.5 589.52 4296.5 589.52
			M3228.5 525.517 4296.5 525.517
			M3228.5 461.515 4296.5 461.515
			M3228.5 397.5 4296.5 397.5" stroke="#D9D9D9" stroke-width="3.4375" stroke-linejoin="round" stroke-miterlimit="10" fill="none" />
		</g>
		<g>
			<path d="M 1038.5 4296.5 1038.5" stroke="#D9D9D9" stroke-width="3.4375" stroke-linejoin="round" stroke-miterlimit="10" fill="none" fill-rule="evenodd" />
		</g>
		<g>
			<text fill="#595959" font-family="Verdana,Open Sans,DejaVu Sans,sans-serif" font-weight="400" font-size="41" transform="matrix(6.12323e-17 -1 1 6.12323e-17 3247.928955078125 1179.0385665893555)">22-Jul</text>
		</g>
		<g>
			<text fill="#595959" font-family="Verdana,Open Sans,DejaVu Sans,sans-serif" font-weight="400" font-size="41" transform="matrix(6.12323e-17 -1 1 6.12323e-17 3333.709287109375 1206.90576171875)">19-Aug</text>
		</g>
		<g>
			<text fill="#595959" font-family="Verdana,Open Sans,DejaVu Sans,sans-serif" font-weight="400" font-size="41" transform="matrix(6.12323e-17 -1 1 6.12323e-17 3419.149287109375 1202.66162109375)">16-Sep</text>
		</g>
		<g>
			<text fill="#595959" font-family="Verdana,Open Sans,DejaVu Sans,sans-serif" font-weight="400" font-size="41" transform="matrix(6.12323e-17 -1 1 6.12323e-17 3499.884697265625 1199.3784103393555)">14-Oct</text>
		</g>
		<g>
			<text fill="#595959" font-family="Verdana,Open Sans,DejaVu Sans,sans-serif" font-weight="400" font-size="41" transform="matrix(6.12323e-17 -1 1 6.12323e-17 3585.09447265625 1209.70849609375)">11-Nov</text>
		</g>
		<g>
			<text fill="#595959" font-family="Verdana,Open Sans,DejaVu Sans,sans-serif" font-weight="400" font-size="41" transform="matrix(6.12323e-17 -1 1 6.12323e-17 3670.744677734375 1205.3642578125)">16-Dec</text>
		</g>
		<g>
			<text fill="#595959" font-family="Verdana,Open Sans,DejaVu Sans,sans-serif" font-weight="400" font-size="41" transform="matrix(6.12323e-17 -1 1 6.12323e-17 3759.8382421875 1189.9291915893555)">13-Jan</text>
		</g>
		<g>
			<text fill="#595959" font-family="Verdana,Open Sans,DejaVu Sans,sans-serif" font-weight="400" font-size="41" transform="matrix(6.12323e-17 -1 1 6.12323e-17 3842.355390625 1201.3203125)">10-Feb</text>
		</g>
		<g>
			<text fill="#595959" font-family="Verdana,Open Sans,DejaVu Sans,sans-serif" font-weight="400" font-size="41" transform="matrix(6.12323e-17 -1 1 6.12323e-17 3927.084697265625 1210.2890625)">10-Mar</text>
		</g>
		<g>
			<text fill="#595959" font-family="Verdana,Open Sans,DejaVu Sans,sans-serif" font-weight="400" font-size="41" transform="matrix(6.12323e-17 -1 1 6.12323e-17 4017.249306640625 1203.2621994018555)">07-Apr</text>
		</g>
		<g>
			<text fill="#595959" font-family="Verdana,Open Sans,DejaVu Sans,sans-serif" font-weight="400" font-size="41" transform="matrix(6.12323e-17 -1 1 6.12323e-17 4102.689306640625 1216.47509765625)">05-May</text>
		</g>
		<g>
			<text fill="#595959" font-family="Verdana,Open Sans,DejaVu Sans,sans-serif" font-weight="400" font-size="41" transform="matrix(6.12323e-17 -1 1 6.12323e-17 4187.05826171875 1194.0131759643555)">09-Jun</text>
		</g>
		<g>
			<text fill="#595959" font-family="Verdana,Open Sans,DejaVu Sans,sans-serif" font-weight="400" font-size="41" transform="matrix(6.12323e-17 -1 1 6.12323e-17 4273.208955078125 1178.9985275268555)">07-Jul</text>
		</g>
		<g>
			<text fill="#595959" font-family="Verdana,Open Sans,DejaVu Sans,sans-serif" font-weight="400" font-size="41" transform="matrix(1 0 0 1 3135.4482421875 1050)">0%</text>
		</g>
		<g>
			<text fill="#595959" font-family="Verdana,Open Sans,DejaVu Sans,sans-serif" font-weight="400" font-size="41" transform="matrix(1 0 0 1 3111.96533203125 922)">20%</text>
		</g>
		<g>
			<text fill="#595959" font-family="Verdana,Open Sans,DejaVu Sans,sans-serif" font-weight="400" font-size="41" transform="matrix(1 0 0 1 3110.82421875 794)">40%</text>
		</g>
		<g>
			<text fill="#595959" font-family="Verdana,Open Sans,DejaVu Sans,sans-serif" font-weight="400" font-size="41" transform="matrix(1 0 0 1 3112.3056640625 666)">60%</text>
		</g>
		<g>
			<text fill="#595959" font-family="Verdana,Open Sans,DejaVu Sans,sans-serif" font-weight="400" font-size="41" transform="matrix(1 0 0 1 3112.04541015625 538)">80%</text>
		</g>
		<g>
			<text fill="#595959" font-family="Verdana,Open Sans,DejaVu Sans,sans-serif" font-weight="400" font-size="41" transform="matrix(1 0 0 1 3090.2841796875 410)">100%</text>
		</g>
		<g>
			<text fill="#595959" font-family="Verdana,Open Sans,DejaVu Sans,sans-serif" font-weight="400" font-size="41" transform="matrix(1 0 0 1 3556.97119140625 1321)">Week Commencing</text>
		</g>
		<g>
			<text fill="#595959" font-family="Verdana,Open Sans,DejaVu Sans,sans-serif" font-weight="400" font-size="46" transform="matrix(6.12323e-17 -1 1 6.12323e-17 3019.73 936.7665710449219)">Requests (% of Total)</text>
		</g>
		<rect x="2918.5" y="347.5" width="1760" height="1043" stroke="#D9D9D9" stroke-width="3.4375" stroke-linejoin="round" stroke-miterlimit="10" fill="none" />
		<g>
			<path d="M3228.5 1038 3249.86 1038 3271.22 1038 3292.58 1038 3313.94 1038 3335.3 1038 3356.66 1038 3378.02 1038 3399.38 1038 3420.74 1038 3442.1 1038 3463.46 1038 3484.82 1038 3506.18 1038 3527.54 1038 3548.9 1038 3570.26 1038 3591.62 1038 3612.98 1038 3634.34 1038 3655.7 1038 3677.06 1038 3698.42 1038 3719.7799999999997 1038 3741.14 1038 3762.5 1038 3783.86 1038 3805.2200000000003 1038 3826.58 1038 3847.94 1038 3869.3 1038 3890.66 1038 3912.02 1038 3933.38 1038 3954.74 1038 3976.1 1038 3997.46 1038 4018.8199999999997 1038 4040.18 1038 4061.54 1038 4082.9 1038 4104.26 1038 4125.62 1038 4146.98 1038 4168.34 1038 4189.7 1038 4211.0599999999995 1038 4232.42 1038 4253.78 1038 4275.139999999999 1038 4296.5 1038 4296.5 527.8195281696414 4275.139999999999 527.7185125063723 4253.78 528.1749639028288 4232.42 526.0738068609967 4211.0599999999995 526.0690930129186 4189.7 526.4517905907722 4168.34 526.966587562726 4146.98 527.7344479046612 4125.62 528.0922596265774 4104.26 528.3637575953018 4082.9 528.4473950245434 4061.54 528.3817437118579 4040.18 528.3209049784523 4018.8199999999997 528.6035113858115 3997.46 529.0722280244075 3976.1 529.4214956662862 3954.74 529.807429199031 3933.38 533.5058286789898 3912.02 533.4031264720519 3890.66 533.4021762961523 3869.3 533.7756525096236 3847.94 533.8956466575289 3826.58 533.9572095457534 3805.2200000000003 533.4841990448925 3783.86 533.4528010722697 3762.5 533.722746014736 3741.14 533.7853664259474 3719.7799999999997 533.8294455926118 3698.42 533.7499584959044 3677.06 533.5577242345337 3655.7 533.3794235575219 3634.34 533.1839579715512 3612.98 532.7385960569093 3591.62 532.9945218339117 3570.26 533.5883597667535 3548.9 534.4892592748513 3527.54 535.2648007319358 3506.18 642.4592997578948 3484.82 641.7348258019537 3463.46 641.0274072878076 3442.1 640.0328656683237 3420.74 638.7439704461906 3399.38 637.5953366301156 3378.02 636.388984334016 3356.66 635.2830954215428 3335.3 634.2801376637599 3313.94 633.5123019251453 3292.58 632.703376074059 3271.22 631.9415100696045 3249.86 630.857109120077 3228.5 629.6835942752446 3228.5 1038Z" fill="#e62d39" opacity="0.9" />
		</g>
		<g>
			<path d="M3228.5 629.6835942752446 3249.86 630.857109120077 3271.22 631.9415100696045 3292.58 632.703376074059 3313.94 633.5123019251453 3335.3 634.2801376637599 3356.66 635.2830954215428 3378.02 636.388984334016 3399.38 637.5953366301156 3420.74 638.7439704461906 3442.1 640.0328656683237 3463.46 641.0274072878076 3484.82 641.7348258019537 3506.18 642.4592997578948 3527.54 535.2648007319358 3548.9 534.4892592748513 3570.26 533.5883597667535 3591.62 532.9945218339117 3612.98 532.7385960569093 3634.34 533.1839579715512 3655.7 533.3794235575219 3677.06 533.5577242345337 3698.42 533.7499584959044 3719.7799999999997 533.8294455926118 3741.14 533.7853664259474 3762.5 533.722746014736 3783.86 533.4528010722697 3805.2200000000003 533.4841990448925 3826.58 533.9572095457534 3847.94 533.8956466575289 3869.3 533.7756525096236 3890.66 533.4021762961523 3912.02 533.4031264720519 3933.38 533.5058286789898 3954.74 529.807429199031 3976.1 529.4214956662862 3997.46 529.0722280244075 4018.8199999999997 528.6035113858115 4040.18 528.3209049784523 4061.54 528.3817437118579 4082.9 528.4473950245434 4104.26 528.3637575953018 4125.62 528.0922596265774 4146.98 527.7344479046612 4168.34 526.966587562726 4189.7 526.4517905907722 4211.0599999999995 526.0690930129186 4232.42 526.0738068609967 4253.78 528.1749639028288 4275.139999999999 527.7185125063723 4296.5 527.8195281696414 4296.5 445.9850763388172 4275.139999999999 446.00044835106377 4253.78 445.48995832347725 4232.42 440.7320769519542 4211.0599999999995 440.71015435347675 4189.7 440.79849020545294 4168.34 441.02669160650083 4146.98 441.4805241599953 4125.62 441.7146387359797 4104.26 441.87434560441795 4082.9 442.00506484989137 4061.54 442.0536403247141 4040.18 442.1004848135459 4018.8199999999997 442.29078701208255 3997.46 442.5177613549289 3976.1 442.75370380577044 3954.74 443.0039649820596 3933.38 447.2266118196212 3912.02 447.3367564362345 3890.66 447.478410212555 3869.3 447.7812344269998 3847.94 447.9735867247491 3826.58 448.11744019003095 3805.2200000000003 447.90712750570685 3783.86 447.65114758474357 3762.5 447.63691579979616 3741.14 447.6548818464415 3719.7799999999997 447.68514400974766 3698.42 447.6730658977694 3677.06 447.6266609249292 3655.7 447.6323779302626 3634.34 447.6574339250563 3612.98 447.5983732210459 3591.62 447.82372841614773 3570.26 448.23400972704667 3548.9 448.85972838125235 3527.54 449.3446349967366 3506.18 564.013087594675 3484.82 563.0569322713101 3463.46 562.1201699126104 3442.1 560.9592369816268 3420.74 559.5178863272408 3399.38 558.0421991553968 3378.02 556.6183211021491 3356.66 555.218566955861 3335.3 553.8747604661306 3313.94 552.795294537007 3292.58 551.5476668303065 3271.22 550.4510715595417 3249.86 549.056064697407 3228.5 547.7069248917836 3228.5 629.6835942752446Z" fill="#005aa6" opacity="0.9" />
		</g>
		<g>
			<path d="M3228.5 547.7069248917836 3249.86 549.056064697407 3271.22 550.4510715595417 3292.58 551.5476668303065 3313.94 552.795294537007 3335.3 553.8747604661306 3356.66 555.218566955861 3378.02 556.6183211021491 3399.38 558.0421991553968 3420.74 559.5178863272408 3442.1 560.9592369816268 3463.46 562.1201699126104 3484.82 563.0569322713101 3506.18 564.013087594675 3527.54 449.3446349967366 3548.9 448.85972838125235 3570.26 448.23400972704667 3591.62 447.82372841614773 3612.98 447.5983732210459 3634.34 447.6574339250563 3655.7 447.6323779302626 3677.06 447.6266609249292 3698.42 447.6730658977694 3719.7799999999997 447.68514400974766 3741.14 447.6548818464415 3762.5 447.63691579979616 3783.86 447.65114758474357 3805.2200000000003 447.90712750570685 3826.58 448.11744019003095 3847.94 447.9735867247491 3869.3 447.7812344269998 3890.66 447.478410212555 3912.02 447.3367564362345 3933.38 447.2266118196212 3954.74 443.0039649820596 3976.1 442.75370380577044 3997.46 442.5177613549289 4018.8199999999997 442.29078701208255 4040.18 442.1004848135459 4061.54 442.0536403247141 4082.9 442.00506484989137 4104.26 441.87434560441795 4125.62 441.7146387359797 4146.98 441.4805241599953 4168.34 441.02669160650083 4189.7 440.79849020545294 4211.0599999999995 440.71015435347675 4232.42 440.7320769519542 4253.78 445.48995832347725 4275.139999999999 446.00044835106377 4296.5 445.9850763388172 4296.5 430.8069864095142 4275.139999999999 430.9020970833825 4253.78 430.23142599790555 4232.42 425.0017650883845 4211.0599999999995 424.9767523660499 4189.7 425.0257701995382 4168.34 425.20583580775155 4146.98 425.4986687976815 4125.62 425.6867840212037 4104.26 425.8119685721377 4082.9 425.9104888133743 4061.54 425.92679886960804 4040.18 425.94362826788443 4018.8199999999997 426.1140510532148 3997.46 426.3120783472338 3976.1 426.5518003809951 3954.74 426.81320471249694 3933.38 431.1686011749783 3912.02 431.3401421096995 3890.66 431.5247092372164 3869.3 431.81676347027957 3847.94 431.99440912392726 3826.58 432.1329946808099 3805.2200000000003 432.00359297169024 3783.86 431.84731630596053 3762.5 431.8659139096981 3741.14 431.93242137634724 3719.7799999999997 431.9599475077045 3698.42 431.9558731937295 3677.06 431.9405589448202 3655.7 431.96727576259724 3634.34 432.02029212049626 3612.98 431.97528739378606 3591.62 432.15561530771527 3570.26 432.4754364071281 3548.9 433.0084053536388 3527.54 433.3913361237896 3506.18 540.8290503164301 3484.82 539.7717503889384 3463.46 538.7148538649283 3442.1 537.4631522646897 3420.74 535.9474999414622 3399.38 534.3593851680338 3378.02 532.8484801447386 3356.66 531.3863925452272 3335.3 529.9440403710025 3313.94 528.7702332186351 3292.58 527.9710368276562 3271.22 526.7914366981524 3249.86 525.3123672531278 3228.5 523.9349092321237 3228.5 547.7069248917836Z" fill="#55c0e9" opacity="0.9" />
		</g>
		<g>
			<path d="M3228.5 523.9349092321237 3249.86 525.3123672531278 3271.22 526.7914366981524 3292.58 527.9710368276562 3313.94 528.7702332186351 3335.3 529.9440403710025 3356.66 531.3863925452272 3378.02 532.8484801447386 3399.38 534.3593851680338 3420.74 535.9474999414622 3442.1 537.4631522646897 3463.46 538.7148538649283 3484.82 539.7717503889384 3506.18 540.8290503164301 3527.54 433.3913361237896 3548.9 433.0084053536388 3570.26 432.4754364071281 3591.62 432.15561530771527 3612.98 431.97528739378606 3634.34 432.02029212049626 3655.7 431.96727576259724 3677.06 431.9405589448202 3698.42 431.9558731937295 3719.7799999999997 431.9599475077045 3741.14 431.93242137634724 3762.5 431.8659139096981 3783.86 431.84731630596053 3805.2200000000003 432.00359297169024 3826.58 432.1329946808099 3847.94 431.99440912392726 3869.3 431.81676347027957 3890.66 431.5247092372164 3912.02 431.3401421096995 3933.38 431.1686011749783 3954.74 426.81320471249694 3976.1 426.5518003809951 3997.46 426.3120783472338 4018.8199999999997 426.1140510532148 4040.18 425.94362826788443 4061.54 425.92679886960804 4082.9 425.9104888133743 4104.26 425.8119685721377 4125.62 425.6867840212037 4146.98 425.4986687976815 4168.34 425.20583580775155 4189.7 425.0257701995382 4211.0599999999995 424.9767523660499 4232.42 425.0017650883845 4253.78 430.23142599790555 4275.139999999999 430.9020970833825 4296.5 430.8069864095142 4296.5 416.31736632943614 4275.139999999999 416.3210682719641 4253.78 415.85243189703715 4232.42 410.86025631578275 4211.0599999999995 410.8513168557256 4189.7 410.8010080993925 4168.34 410.8532595598375 4146.98 410.9689719408518 4125.62 411.04822058755076 4104.26 411.09796238059005 4082.9 411.13309600464333 4061.54 411.08525540240214 4040.18 411.0502804931489 4018.8199999999997 411.15507042479464 3997.46 411.2715831935364 3976.1 411.39453051492376 3954.74 411.52533019336687 3933.38 415.89173436048446 3912.02 415.95861191477786 3890.66 416.055066900616 3869.3 416.2345639289736 3847.94 416.4071449754411 3826.58 416.47817812627426 3805.2200000000003 416.34836086389726 3783.86 416.1564242259188 3762.5 416.1235996870702 3741.14 416.0562889706207 3719.7799999999997 416.0954395000898 3698.42 416.0465069983401 3677.06 416.000160121671 3655.7 416.0062420628137 3634.34 416.05161909433286 3612.98 415.99893833884835 3591.62 416.12431960001913 3570.26 416.33420162951643 3548.9 416.71311285195446 3527.54 416.98069451994184 3506.18 523.7363657522843 3484.82 522.5716439040438 3463.46 521.4074163425901 3442.1 520.0402408469882 3420.74 518.4759534407176 3399.38 516.9133817380589 3378.02 515.447116697529 3356.66 514.0614365046936 3335.3 512.7024056997157 3313.94 511.5800205959148 3292.58 510.82918253556556 3271.22 509.7179568015223 3249.86 508.3175496659528 3228.5 507.0170454704227 3228.5 523.9349092321237Z" fill="#f6a118" opacity="0.9" />
		</g>
		<g>
			<path d="M3228.5 507.0170454704227 3249.86 508.3175496659528 3271.22 509.7179568015223 3292.58 510.82918253556556 3313.94 511.5800205959148 3335.3 512.7024056997157 3356.66 514.0614365046936 3378.02 515.447116697529 3399.38 516.9133817380589 3420.74 518.4759534407176 3442.1 520.0402408469882 3463.46 521.4074163425901 3484.82 522.5716439040438 3506.18 523.7363657522843 3527.54 416.98069451994184 3548.9 416.71311285195446 3570.26 416.33420162951643 3591.62 416.12431960001913 3612.98 415.99893833884835 3634.34 416.05161909433286 3655.7 416.0062420628137 3677.06 416.000160121671 3698.42 416.0465069983401 3719.7799999999997 416.0954395000898 3741.14 416.0562889706207 3762.5 416.1235996870702 3783.86 416.1564242259188 3805.2200000000003 416.34836086389726 3826.58 416.47817812627426 3847.94 416.4071449754411 3869.3 416.2345639289736 3890.66 416.055066900616 3912.02 415.95861191477786 3933.38 415.89173436048446 3954.74 411.52533019336687 3976.1 411.39453051492376 3997.46 411.2715831935364 4018.8199999999997 411.15507042479464 4040.18 411.0502804931489 4061.54 411.08525540240214 4082.9 411.13309600464333 4104.26 411.09796238059005 4125.62 411.04822058755076 4146.98 410.9689719408518 4168.34 410.8532595598375 4189.7 410.8010080993925 4211.0599999999995 410.8513168557256 4232.42 410.86025631578275 4253.78 415.85243189703715 4275.139999999999 416.3210682719641 4296.5 416.31736632943614 4296.5 407.1917111103271 4275.139999999999 407.1621562125779 4253.78 406.9309868112197 4232.42 402.3499262788061 4211.0599999999995 402.3497550933614 4189.7 402.31710391583925 4168.34 402.31377839166817 4146.98 402.32705082967294 4125.62 402.3105155472352 4104.26 402.3328782432905 4082.9 402.29313148871324 4061.54 402.27347913416367 4040.18 402.24951221526595 4018.8199999999997 402.264400535425 3997.46 402.2771754039698 3976.1 402.3026796088189 3954.74 402.31237144781545 3933.38 406.6903311154683 3912.02 406.6504534424193 3890.66 406.63653513437157 3869.3 406.73881659701254 3847.94 406.7913155812626 3826.58 406.7895314471883 3805.2200000000003 406.7538978821639 3783.86 406.6419996355151 3762.5 406.66475151485594 3741.14 406.64954838762975 3719.7799999999997 406.6900606081659 3698.42 406.67423043388266 3677.06 406.6442240275461 3655.7 406.6769627823681 3634.34 406.7486576922467 3612.98 406.88204596503937 3591.62 407.2984950463532 3570.26 407.42058087187377 3548.9 407.6496849699309 3527.54 407.85452807822685 3506.18 510.457001187623 3484.82 509.25430348013276 3463.46 508.03326088042445 3442.1 506.6178498444704 3420.74 505.0214210075742 3399.38 503.4488995208447 3378.02 501.99414638500895 3356.66 500.6747796739521 3335.3 499.3250304832202 3313.94 498.1994618351249 3292.58 497.43345523107604 3271.22 496.34925589643314 3249.86 495.0253467220932 3228.5 493.7905717710478 3228.5 507.0170454704227Z" fill="#fdd5a4" opacity="0.9" />
		</g>
		<g>
			<path d="M3228.5 493.7905717710478 3249.86 495.0253467220932 3271.22 496.34925589643314 3292.58 497.43345523107604 3313.94 498.1994618351249 3335.3 499.3250304832202 3356.66 500.6747796739521 3378.02 501.99414638500895 3399.38 503.4488995208447 3420.74 505.0214210075742 3442.1 506.6178498444704 3463.46 508.03326088042445 3484.82 509.25430348013276 3506.18 510.457001187623 3527.54 407.85452807822685 3548.9 407.6496849699309 3570.26 407.42058087187377 3591.62 407.2984950463532 3612.98 406.88204596503937 3634.34 406.7486576922467 3655.7 406.6769627823681 3677.06 406.6442240275461 3698.42 406.67423043388266 3719.7799999999997 406.6900606081659 3741.14 406.64954838762975 3762.5 406.66475151485594 3783.86 406.6419996355151 3805.2200000000003 406.7538978821639 3826.58 406.7895314471883 3847.94 406.7913155812626 3869.3 406.73881659701254 3890.66 406.63653513437157 3912.02 406.6504534424193 3933.38 406.6903311154683 3954.74 402.31237144781545 3976.1 402.3026796088189 3997.46 402.2771754039698 4018.8199999999997 402.264400535425 4040.18 402.24951221526595 4061.54 402.27347913416367 4082.9 402.29313148871324 4104.26 402.3328782432905 4125.62 402.3105155472352 4146.98 402.32705082967294 4168.34 402.31377839166817 4189.7 402.31710391583925 4211.0599999999995 402.3497550933614 4232.42 402.3499262788061 4253.78 406.9309868112197 4275.139999999999 407.1621562125779 4296.5 407.1917111103271 4296.5 398 4275.139999999999 398 4253.78 398 4232.42 398 4211.0599999999995 398 4189.7 398.00000000000006 4168.34 398 4146.98 398.0000000000001 4125.62 398.0000000000001 4104.26 398 4082.9 398 4061.54 398.00000000000006 4040.18 398.0000000000001 4018.8199999999997 398 3997.46 397.99999999999994 3976.1 398 3954.74 397.99999999999994 3933.38 398 3912.02 398 3890.66 398 3869.3 398.0000000000001 3847.94 398.00000000000006 3826.58 398 3805.2200000000003 398 3783.86 398 3762.5 398 3741.14 397.99999999999994 3719.7799999999997 398 3698.42 398.0000000000001 3677.06 398.00000000000006 3655.7 398 3634.34 397.9999999999999 3612.98 398 3591.62 397.99999999999994 3570.26 398.0000000000001 3548.9 397.99999999999994 3527.54 398.00000000000006 3506.18 398 3484.82 397.9999999999999 3463.46 398 3442.1 397.99999999999983 3420.74 398.0000000000001 3399.38 397.99999999999994 3378.02 397.9999999999999 3356.66 398.0000000000001 3335.3 398 3313.94 397.9999999999999 3292.58 397.99999999999994 3271.22 398.00000000000006 3249.86 398.00000000000006 3228.5 398 3228.5 493.7905717710478Z" fill="#393d41" opacity="0.9" />
		</g>
		<g>
			<rect x="4372" y="431" width="22.9995" height="23" fill="#e62d39" />
		</g>
		<g>
			<text fill="#595959" font-family="Verdana,Open Sans,DejaVu Sans,sans-serif" font-weight="400" font-size="41" transform="matrix(1 0 0 1 4404.56 454)">Smartphone</text>
		</g>
		<g>
			<rect x="4372" y="508" width="22.9995" height="23" fill="#005aa6" />
		</g>
		<g>
			<text fill="#595959" font-family="Verdana,Open Sans,DejaVu Sans,sans-serif" font-weight="400" font-size="41" transform="matrix(1 0 0 1 4404.56 531)">Desktop</text>
		</g>
		<g>
			<rect x="4372" y="585" width="22.9995" height="23" fill="#55c0e9" />
		</g>
		<g>
			<text fill="#595959" font-family="Verdana,Open Sans,DejaVu Sans,sans-serif" font-weight="400" font-size="41" transform="matrix(1 0 0 1 4404.56 608)">Other</text>
		</g>
		<g>
			<rect x="4372" y="662" width="22.9995" height="23" fill="#f6a118" />
		</g>
		<g>
			<text fill="#595959" font-family="Verdana,Open Sans,DejaVu Sans,sans-serif" font-weight="400" font-size="41" transform="matrix(1 0 0 1 4404.56 685)">Tablet</text>
		</g>
		<g>
			<rect x="4372" y="739" width="22.9995" height="23" fill="#fdd5a4" />
		</g>
		<g>
			<text fill="#595959" font-family="Verdana,Open Sans,DejaVu Sans,sans-serif" font-weight="400" font-size="41" transform="matrix(1 0 0 1 4404.56 762)">Tv</text>
		</g>
		<g>
			<rect x="4372" y="816" width="22.9995" height="23" fill="#393d41" />
		</g>
		<g>
			<text fill="#595959" font-family="Verdana,Open Sans,DejaVu Sans,sans-serif" font-weight="400" font-size="41" transform="matrix(1 0 0 1 4404.56 839)">Unclassified</text>
		</g>
	</g>
</svg>
