<svg width="1763" height="1046"
    xmlns="http://www.w3.org/2000/svg"
	xmlns:xlink="http://www.w3.org/1999/xlink" xml:space="preserve" overflow="hidden">
	<defs>
		<clipPath id="clip0">
			<rect x="2917" y="346" width="1763" height="1046"/>
		</clipPath>
	</defs>
	<g clip-path="url(#clip0)" transform="translate(-2917 -346)">
		<rect x="2918" y="347" width="1760" height="1043" fill="#FFFFFF" />
		<g>
			<path d="
			M3228.5 974.532 4296.5 974.532
			M3228.5 910.53 4296.5 910.53
			M3228.5 846.528 4296.5 846.528
			M3228.5 781.526 4296.5 781.526
			M3228.5 717.524 4296.5 717.524
			M3228.5 653.522 4296.5 653.522
			M3228.5 589.52 4296.5 589.52
			M3228.5 525.517 4296.5 525.517
			M3228.5 461.515 4296.5 461.515
			M3228.5 397.5 4296.5 397.5" stroke="#D9D9D9" stroke-width="3.4375" stroke-linejoin="round" stroke-miterlimit="10" fill="none" />
		</g>
		<g>
			<path d="M 1038.5 4296.5 1038.5" stroke="#D9D9D9" stroke-width="3.4375" stroke-linejoin="round" stroke-miterlimit="10" fill="none" fill-rule="evenodd" />
		</g>
		<g>
			<text fill="#595959" font-family="Verdana,sans-serif" font-weight="400" font-size="41" transform="matrix(6.12323e-17 -1 1 6.12323e-17 3248 1226)">13-May</text>
		</g>
		<g>
			<text fill="#595959" font-family="Verdana,sans-serif" font-weight="400" font-size="41" transform="matrix(6.12323e-17 -1 1 6.12323e-17 3328.264705882353 1209)">10-Jun</text>
		</g>
		<g>
			<text fill="#595959" font-family="Verdana,sans-serif" font-weight="400" font-size="41" transform="matrix(6.12323e-17 -1 1 6.12323e-17 3412.029411764706 1197)">08-Jul</text>
		</g>
		<g>
			<text fill="#595959" font-family="Verdana,sans-serif" font-weight="400" font-size="41" transform="matrix(6.12323e-17 -1 1 6.12323e-17 3499.294117647059 1221)">05-Aug</text>
		</g>
		<g>
			<text fill="#595959" font-family="Verdana,sans-serif" font-weight="400" font-size="41" transform="matrix(6.12323e-17 -1 1 6.12323e-17 3583.0588235294117 1222)">02-Sep</text>
		</g>
		<g>
			<text fill="#595959" font-family="Verdana,sans-serif" font-weight="400" font-size="41" transform="matrix(6.12323e-17 -1 1 6.12323e-17 3666.823529411765 1221)">30-Sep</text>
		</g>
		<g>
			<text fill="#595959" font-family="Verdana,sans-serif" font-weight="400" font-size="41" transform="matrix(6.12323e-17 -1 1 6.12323e-17 3747.0882352941176 1215)">28-Oct</text>
		</g>
		<g>
			<text fill="#595959" font-family="Verdana,sans-serif" font-weight="400" font-size="41" transform="matrix(6.12323e-17 -1 1 6.12323e-17 3830.8529411764707 1224)">25-Nov</text>
		</g>
		<g>
			<text fill="#595959" font-family="Verdana,sans-serif" font-weight="400" font-size="41" transform="matrix(6.12323e-17 -1 1 6.12323e-17 3914.6176470588234 1222)">30-Dec</text>
		</g>
		<g>
			<text fill="#595959" font-family="Verdana,sans-serif" font-weight="400" font-size="41" transform="matrix(6.12323e-17 -1 1 6.12323e-17 3998.3823529411766 1210)">27-Jan</text>
		</g>
		<g>
			<text fill="#595959" font-family="Verdana,sans-serif" font-weight="400" font-size="41" transform="matrix(6.12323e-17 -1 1 6.12323e-17 4082.1470588235293 1216)">24-Feb</text>
		</g>
		<g>
			<text fill="#595959" font-family="Verdana,sans-serif" font-weight="400" font-size="41" transform="matrix(6.12323e-17 -1 1 6.12323e-17 4165.911764705882 1223)">24-Mar</text>
		</g>
		<g>
			<text fill="#595959" font-family="Verdana,sans-serif" font-weight="400" font-size="41" transform="matrix(6.12323e-17 -1 1 6.12323e-17 4253.176470588235 1216)">21-Apr</text>
		</g>
		<g>
			<text fill="#595959" font-family="Verdana,sans-serif" font-weight="400" font-size="41" transform="matrix(1 0 0 1 3123.5 1050)">0%</text>
		</g>
		<g>
			<text fill="#595959" font-family="Verdana,sans-serif" font-weight="400" font-size="41" transform="matrix(1 0 0 1 3097.5 922)">20%</text>
		</g>
		<g>
			<text fill="#595959" font-family="Verdana,sans-serif" font-weight="400" font-size="41" transform="matrix(1 0 0 1 3096.5 794)">40%</text>
		</g>
		<g>
			<text fill="#595959" font-family="Verdana,sans-serif" font-weight="400" font-size="41" transform="matrix(1 0 0 1 3097.5 666)">60%</text>
		</g>
		<g>
			<text fill="#595959" font-family="Verdana,sans-serif" font-weight="400" font-size="41" transform="matrix(1 0 0 1 3097.5 538)">80%</text>
		</g>
		<g>
			<text fill="#595959" font-family="Verdana,sans-serif" font-weight="400" font-size="41" transform="matrix(1 0 0 1 3074.5 410)">100%</text>
		</g>
		<g>
			<text fill="#595959" font-family="Verdana,sans-serif" font-weight="400" font-size="41" transform="matrix(1 0 0 1 3544.5 1321)">Week Commencing</text>
		</g>
		<g>
			<text fill="#595959" font-family="Verdana,sans-serif" font-weight="400" font-size="46" transform="matrix(6.12323e-17 -1 1 6.12323e-17 3019.73 965.25)">Requests (% of Total)</text>
		</g>
		<rect x="2918.5" y="347.5" width="1760" height="1043" stroke="#D9D9D9" stroke-width="3.4375" stroke-linejoin="round" stroke-miterlimit="10" fill="none" />
		<g>
			<path d="M3228.5 1038 3249.4411764705883 1038 3270.3823529411766 1038 3291.323529411765 1038 3312.264705882353 1038 3333.205882352941 1038 3354.1470588235293 1038 3375.0882352941176 1038 3396.029411764706 1038 3416.970588235294 1038 3437.9117647058824 1038 3458.8529411764707 1038 3479.794117647059 1038 3500.735294117647 1038 3521.676470588235 1038 3542.6176470588234 1038 3563.5588235294117 1038 3584.5 1038 3605.4411764705883 1038 3626.3823529411766 1038 3647.323529411765 1038 3668.264705882353 1038 3689.205882352941 1038 3710.1470588235293 1038 3731.0882352941176 1038 3752.029411764706 1038 3772.970588235294 1038 3793.9117647058824 1038 3814.8529411764707 1038 3835.7941176470586 1038 3856.735294117647 1038 3877.676470588235 1038 3898.6176470588234 1038 3919.5588235294117 1038 3940.5 1038 3961.4411764705883 1038 3982.3823529411766 1038 4003.323529411765 1038 4024.264705882353 1038 4045.2058823529414 1038 4066.1470588235293 1038 4087.0882352941176 1038 4108.029411764706 1038 4128.970588235294 1038 4149.911764705882 1038 4170.85294117647 1038 4191.794117647059 1038 4212.735294117647 1038 4233.676470588235 1038 4254.617647058823 1038 4275.558823529412 1038 4296.5 1038 4296.5 528.3637575953018 4275.558823529412 528.4473950245434 4254.617647058823 528.3817437118579 4233.676470588235 528.3209049784523 4212.735294117647 528.6035113858115 4191.794117647059 529.0722280244075 4170.85294117647 529.4214956662862 4149.911764705882 529.807429199031 4128.970588235294 533.5058286789898 4108.029411764706 533.4031264720519 4087.0882352941176 533.4021762961523 4066.1470588235293 533.7756525096236 4045.2058823529414 533.8956466575289 4024.264705882353 533.9572095457534 4003.323529411765 533.4841990448925 3982.3823529411766 533.4528010722697 3961.4411764705883 533.722746014736 3940.5 533.7853664259474 3919.5588235294117 533.8294455926118 3898.6176470588234 533.7499584959044 3877.676470588235 533.5577242345337 3856.735294117647 533.3794235575219 3835.7941176470586 533.1839579715512 3814.8529411764707 532.7385960569093 3793.9117647058824 532.9945218339117 3772.970588235294 533.5883597667535 3752.029411764706 534.4892592748513 3731.0882352941176 535.2648007319358 3710.1470588235293 642.4592997578948 3689.205882352941 641.7348258019537 3668.264705882353 641.0274072878076 3647.323529411765 640.0328656683237 3626.3823529411766 638.7439704461906 3605.4411764705883 637.5953366301156 3584.5 636.388984334016 3563.5588235294117 635.2830954215428 3542.6176470588234 634.2801376637599 3521.676470588235 633.5123019251453 3500.735294117647 632.703376074059 3479.794117647059 631.9415100696045 3458.8529411764707 630.857109120077 3437.9117647058824 629.6835942752446 3416.970588235294 628.7570391925642 3396.029411764706 627.5176878063296 3375.0882352941176 626.3963136974012 3354.1470588235293 625.2428890685153 3333.205882352941 624.0667377001988 3312.264705882353 622.80172023452 3291.323529411765 632.4054355541638 3270.3823529411766 630.9533026623258 3249.4411764705883 630.0731822124889 3228.5 629.6411395703622 3228.5 1038Z" fill="#e62d39" opacity="0.9" />
		</g>
		<g>
			<path d="M3228.5 629.6411395703622 3249.4411764705883 630.0731822124889 3270.3823529411766 630.9533026623258 3291.323529411765 632.4054355541638 3312.264705882353 622.80172023452 3333.205882352941 624.0667377001988 3354.1470588235293 625.2428890685153 3375.0882352941176 626.3963136974012 3396.029411764706 627.5176878063296 3416.970588235294 628.7570391925642 3437.9117647058824 629.6835942752446 3458.8529411764707 630.857109120077 3479.794117647059 631.9415100696045 3500.735294117647 632.703376074059 3521.676470588235 633.5123019251453 3542.6176470588234 634.2801376637599 3563.5588235294117 635.2830954215428 3584.5 636.388984334016 3605.4411764705883 637.5953366301156 3626.3823529411766 638.7439704461906 3647.323529411765 640.0328656683237 3668.264705882353 641.0274072878076 3689.205882352941 641.7348258019537 3710.1470588235293 642.4592997578948 3731.0882352941176 535.2648007319358 3752.029411764706 534.4892592748513 3772.970588235294 533.5883597667535 3793.9117647058824 532.9945218339117 3814.8529411764707 532.7385960569093 3835.7941176470586 533.1839579715512 3856.735294117647 533.3794235575219 3877.676470588235 533.5577242345337 3898.6176470588234 533.7499584959044 3919.5588235294117 533.8294455926118 3940.5 533.7853664259474 3961.4411764705883 533.722746014736 3982.3823529411766 533.4528010722697 4003.323529411765 533.4841990448925 4024.264705882353 533.9572095457534 4045.2058823529414 533.8956466575289 4066.1470588235293 533.7756525096236 4087.0882352941176 533.4021762961523 4108.029411764706 533.4031264720519 4128.970588235294 533.5058286789898 4149.911764705882 529.807429199031 4170.85294117647 529.4214956662862 4191.794117647059 529.0722280244075 4212.735294117647 528.6035113858115 4233.676470588235 528.3209049784523 4254.617647058823 528.3817437118579 4275.558823529412 528.4473950245434 4296.5 528.3637575953018 4296.5 441.87434560441795 4275.558823529412 442.00506484989137 4254.617647058823 442.0536403247141 4233.676470588235 442.1004848135459 4212.735294117647 442.29078701208255 4191.794117647059 442.5177613549289 4170.85294117647 442.75370380577044 4149.911764705882 443.0039649820596 4128.970588235294 447.2266118196212 4108.029411764706 447.3367564362345 4087.0882352941176 447.478410212555 4066.1470588235293 447.7812344269998 4045.2058823529414 447.9735867247491 4024.264705882353 448.11744019003095 4003.323529411765 447.90712750570685 3982.3823529411766 447.65114758474357 3961.4411764705883 447.63691579979616 3940.5 447.6548818464415 3919.5588235294117 447.68514400974766 3898.6176470588234 447.6730658977694 3877.676470588235 447.6266609249292 3856.735294117647 447.6323779302626 3835.7941176470586 447.6574339250563 3814.8529411764707 447.5983732210459 3793.9117647058824 447.82372841614773 3772.970588235294 448.23400972704667 3752.029411764706 448.85972838125235 3731.0882352941176 449.3446349967366 3710.1470588235293 564.013087594675 3689.205882352941 563.0569322713101 3668.264705882353 562.1201699126104 3647.323529411765 560.9592369816268 3626.3823529411766 559.5178863272408 3605.4411764705883 558.0421991553968 3584.5 556.6183211021491 3563.5588235294117 555.218566955861 3542.6176470588234 553.8747604661306 3521.676470588235 552.795294537007 3500.735294117647 551.5476668303065 3479.794117647059 550.4510715595417 3458.8529411764707 549.056064697407 3437.9117647058824 547.7069248917836 3416.970588235294 546.4892681197156 3396.029411764706 545.0068552240035 3375.0882352941176 543.5872074138473 3354.1470588235293 542.2071477253921 3333.205882352941 540.7523658360859 3312.264705882353 539.1846046453284 3291.323529411765 550.69398337688 3270.3823529411766 549.0305649530324 3249.4411764705883 547.8419869340069 3228.5 547.2972215888882 3228.5 629.6411395703622Z" fill="#005aa6" opacity="0.9" />
		</g>
		<g>
			<path d="M3228.5 547.2972215888882 3249.4411764705883 547.8419869340069 3270.3823529411766 549.0305649530324 3291.323529411765 550.69398337688 3312.264705882353 539.1846046453284 3333.205882352941 540.7523658360859 3354.1470588235293 542.2071477253921 3375.0882352941176 543.5872074138473 3396.029411764706 545.0068552240035 3416.970588235294 546.4892681197156 3437.9117647058824 547.7069248917836 3458.8529411764707 549.056064697407 3479.794117647059 550.4510715595417 3500.735294117647 551.5476668303065 3521.676470588235 552.795294537007 3542.6176470588234 553.8747604661306 3563.5588235294117 555.218566955861 3584.5 556.6183211021491 3605.4411764705883 558.0421991553968 3626.3823529411766 559.5178863272408 3647.323529411765 560.9592369816268 3668.264705882353 562.1201699126104 3689.205882352941 563.0569322713101 3710.1470588235293 564.013087594675 3731.0882352941176 449.3446349967366 3752.029411764706 448.85972838125235 3772.970588235294 448.23400972704667 3793.9117647058824 447.82372841614773 3814.8529411764707 447.5983732210459 3835.7941176470586 447.6574339250563 3856.735294117647 447.6323779302626 3877.676470588235 447.6266609249292 3898.6176470588234 447.6730658977694 3919.5588235294117 447.68514400974766 3940.5 447.6548818464415 3961.4411764705883 447.63691579979616 3982.3823529411766 447.65114758474357 4003.323529411765 447.90712750570685 4024.264705882353 448.11744019003095 4045.2058823529414 447.9735867247491 4066.1470588235293 447.7812344269998 4087.0882352941176 447.478410212555 4108.029411764706 447.3367564362345 4128.970588235294 447.2266118196212 4149.911764705882 443.0039649820596 4170.85294117647 442.75370380577044 4191.794117647059 442.5177613549289 4212.735294117647 442.29078701208255 4233.676470588235 442.1004848135459 4254.617647058823 442.0536403247141 4275.558823529412 442.00506484989137 4296.5 441.87434560441795 4296.5 425.8119685721377 4275.558823529412 425.9104888133743 4254.617647058823 425.92679886960804 4233.676470588235 425.94362826788443 4212.735294117647 426.1140510532148 4191.794117647059 426.3120783472338 4170.85294117647 426.5518003809951 4149.911764705882 426.81320471249694 4128.970588235294 431.1686011749783 4108.029411764706 431.3401421096995 4087.0882352941176 431.5247092372164 4066.1470588235293 431.81676347027957 4045.2058823529414 431.99440912392726 4024.264705882353 432.1329946808099 4003.323529411765 432.00359297169024 3982.3823529411766 431.84731630596053 3961.4411764705883 431.8659139096981 3940.5 431.93242137634724 3919.5588235294117 431.9599475077045 3898.6176470588234 431.9558731937295 3877.676470588235 431.9405589448202 3856.735294117647 431.96727576259724 3835.7941176470586 432.02029212049626 3814.8529411764707 431.97528739378606 3793.9117647058824 432.15561530771527 3772.970588235294 432.4754364071281 3752.029411764706 433.0084053536388 3731.0882352941176 433.3913361237896 3710.1470588235293 540.8290503164301 3689.205882352941 539.7717503889384 3668.264705882353 538.7148538649283 3647.323529411765 537.4631522646897 3626.3823529411766 535.9474999414622 3605.4411764705883 534.3593851680338 3584.5 532.8484801447386 3563.5588235294117 531.3863925452272 3542.6176470588234 529.9440403710025 3521.676470588235 528.7702332186351 3500.735294117647 527.9710368276562 3479.794117647059 526.7914366981524 3458.8529411764707 525.3123672531278 3437.9117647058824 523.9349092321237 3416.970588235294 522.6767257917172 3396.029411764706 521.1207351787452 3375.0882352941176 519.5911430965305 3354.1470588235293 518.1357144384516 3333.205882352941 516.5996074824589 3312.264705882353 514.9659833917357 3291.323529411765 527.0438985976282 3270.3823529411766 525.3024251103315 3249.4411764705883 523.9562890822376 3228.5 523.2798263552974 3228.5 547.2972215888882Z" fill="#55c0e9" opacity="0.9" />
		</g>
		<g>
			<path d="M3228.5 523.2798263552974 3249.4411764705883 523.9562890822376 3270.3823529411766 525.3024251103315 3291.323529411765 527.0438985976282 3312.264705882353 514.9659833917357 3333.205882352941 516.5996074824589 3354.1470588235293 518.1357144384516 3375.0882352941176 519.5911430965305 3396.029411764706 521.1207351787452 3416.970588235294 522.6767257917172 3437.9117647058824 523.9349092321237 3458.8529411764707 525.3123672531278 3479.794117647059 526.7914366981524 3500.735294117647 527.9710368276562 3521.676470588235 528.7702332186351 3542.6176470588234 529.9440403710025 3563.5588235294117 531.3863925452272 3584.5 532.8484801447386 3605.4411764705883 534.3593851680338 3626.3823529411766 535.9474999414622 3647.323529411765 537.4631522646897 3668.264705882353 538.7148538649283 3689.205882352941 539.7717503889384 3710.1470588235293 540.8290503164301 3731.0882352941176 433.3913361237896 3752.029411764706 433.0084053536388 3772.970588235294 432.4754364071281 3793.9117647058824 432.15561530771527 3814.8529411764707 431.97528739378606 3835.7941176470586 432.02029212049626 3856.735294117647 431.96727576259724 3877.676470588235 431.9405589448202 3898.6176470588234 431.9558731937295 3919.5588235294117 431.9599475077045 3940.5 431.93242137634724 3961.4411764705883 431.8659139096981 3982.3823529411766 431.84731630596053 4003.323529411765 432.00359297169024 4024.264705882353 432.1329946808099 4045.2058823529414 431.99440912392726 4066.1470588235293 431.81676347027957 4087.0882352941176 431.5247092372164 4108.029411764706 431.3401421096995 4128.970588235294 431.1686011749783 4149.911764705882 426.81320471249694 4170.85294117647 426.5518003809951 4191.794117647059 426.3120783472338 4212.735294117647 426.1140510532148 4233.676470588235 425.94362826788443 4254.617647058823 425.92679886960804 4275.558823529412 425.9104888133743 4296.5 425.8119685721377 4296.5 411.09796238059005 4275.558823529412 411.13309600464333 4254.617647058823 411.08525540240214 4233.676470588235 411.0502804931489 4212.735294117647 411.15507042479464 4191.794117647059 411.2715831935364 4170.85294117647 411.39453051492376 4149.911764705882 411.52533019336687 4128.970588235294 415.89173436048446 4108.029411764706 415.95861191477786 4087.0882352941176 416.055066900616 4066.1470588235293 416.2345639289736 4045.2058823529414 416.4071449754411 4024.264705882353 416.47817812627426 4003.323529411765 416.34836086389726 3982.3823529411766 416.1564242259188 3961.4411764705883 416.1235996870702 3940.5 416.0562889706207 3919.5588235294117 416.0954395000898 3898.6176470588234 416.0465069983401 3877.676470588235 416.000160121671 3856.735294117647 416.0062420628137 3835.7941176470586 416.05161909433286 3814.8529411764707 415.99893833884835 3793.9117647058824 416.12431960001913 3772.970588235294 416.33420162951643 3752.029411764706 416.71311285195446 3731.0882352941176 416.98069451994184 3710.1470588235293 523.7363657522843 3689.205882352941 522.5716439040438 3668.264705882353 521.4074163425901 3647.323529411765 520.0402408469882 3626.3823529411766 518.4759534407176 3605.4411764705883 516.9133817380589 3584.5 515.447116697529 3563.5588235294117 514.0614365046936 3542.6176470588234 512.7024056997157 3521.676470588235 511.5800205959148 3500.735294117647 510.82918253556556 3479.794117647059 509.7179568015223 3458.8529411764707 508.3175496659528 3437.9117647058824 507.0170454704227 3416.970588235294 505.81218353227047 3396.029411764706 504.3173344906431 3375.0882352941176 502.8338970689489 3354.1470588235293 501.4426511937707 3333.205882352941 499.97387766322737 3312.264705882353 498.4242329984132 3291.323529411765 510.99365573350235 3270.3823529411766 509.31973026750774 3249.4411764705883 508.0481610967102 3228.5 507.46130800445246 3228.5 523.2798263552974Z" fill="#f6a118" opacity="0.9" />
		</g>
		<g>
			<path d="M3228.5 507.46130800445246 3249.4411764705883 508.0481610967102 3270.3823529411766 509.31973026750774 3291.323529411765 510.99365573350235 3312.264705882353 498.4242329984132 3333.205882352941 499.97387766322737 3354.1470588235293 501.4426511937707 3375.0882352941176 502.8338970689489 3396.029411764706 504.3173344906431 3416.970588235294 505.81218353227047 3437.9117647058824 507.0170454704227 3458.8529411764707 508.3175496659528 3479.794117647059 509.7179568015223 3500.735294117647 510.82918253556556 3521.676470588235 511.5800205959148 3542.6176470588234 512.7024056997157 3563.5588235294117 514.0614365046936 3584.5 515.447116697529 3605.4411764705883 516.9133817380589 3626.3823529411766 518.4759534407176 3647.323529411765 520.0402408469882 3668.264705882353 521.4074163425901 3689.205882352941 522.5716439040438 3710.1470588235293 523.7363657522843 3731.0882352941176 416.98069451994184 3752.029411764706 416.71311285195446 3772.970588235294 416.33420162951643 3793.9117647058824 416.12431960001913 3814.8529411764707 415.99893833884835 3835.7941176470586 416.05161909433286 3856.735294117647 416.0062420628137 3877.676470588235 416.000160121671 3898.6176470588234 416.0465069983401 3919.5588235294117 416.0954395000898 3940.5 416.0562889706207 3961.4411764705883 416.1235996870702 3982.3823529411766 416.1564242259188 4003.323529411765 416.34836086389726 4024.264705882353 416.47817812627426 4045.2058823529414 416.4071449754411 4066.1470588235293 416.2345639289736 4087.0882352941176 416.055066900616 4108.029411764706 415.95861191477786 4128.970588235294 415.89173436048446 4149.911764705882 411.52533019336687 4170.85294117647 411.39453051492376 4191.794117647059 411.2715831935364 4212.735294117647 411.15507042479464 4233.676470588235 411.0502804931489 4254.617647058823 411.08525540240214 4275.558823529412 411.13309600464333 4296.5 411.09796238059005 4296.5 402.3328782432905 4275.558823529412 402.29313148871324 4254.617647058823 402.27347913416367 4233.676470588235 402.24951221526595 4212.735294117647 402.264400535425 4191.794117647059 402.2771754039698 4170.85294117647 402.3026796088189 4149.911764705882 402.31237144781545 4128.970588235294 406.6903311154683 4108.029411764706 406.6504534424193 4087.0882352941176 406.63653513437157 4066.1470588235293 406.73881659701254 4045.2058823529414 406.7913155812626 4024.264705882353 406.7895314471883 4003.323529411765 406.7538978821639 3982.3823529411766 406.6419996355151 3961.4411764705883 406.66475151485594 3940.5 406.64954838762975 3919.5588235294117 406.6900606081659 3898.6176470588234 406.67423043388266 3877.676470588235 406.6442240275461 3856.735294117647 406.6769627823681 3835.7941176470586 406.7486576922467 3814.8529411764707 406.88204596503937 3793.9117647058824 407.2984950463532 3772.970588235294 407.42058087187377 3752.029411764706 407.6496849699309 3731.0882352941176 407.85452807822685 3710.1470588235293 510.457001187623 3689.205882352941 509.25430348013276 3668.264705882353 508.03326088042445 3647.323529411765 506.6178498444704 3626.3823529411766 505.0214210075742 3605.4411764705883 503.4488995208447 3584.5 501.99414638500895 3563.5588235294117 500.6747796739521 3542.6176470588234 499.3250304832202 3521.676470588235 498.1994618351249 3500.735294117647 497.43345523107604 3479.794117647059 496.34925589643314 3458.8529411764707 495.0253467220932 3437.9117647058824 493.7905717710478 3416.970588235294 492.5921558346354 3396.029411764706 491.08339968159794 3375.0882352941176 489.589994805443 3354.1470588235293 488.205911277506 3333.205882352941 486.75823132244886 3312.264705882353 485.3927174126073 3291.323529411765 498.4720025363811 3270.3823529411766 497.0382614705632 3249.4411764705883 495.82345643600064 3228.5 495.20191899296304 3228.5 507.46130800445246Z" fill="#fdd5a4" opacity="0.9" />
		</g>
		<g>
			<path d="M3228.5 495.20191899296304 3249.4411764705883 495.82345643600064 3270.3823529411766 497.0382614705632 3291.323529411765 498.4720025363811 3312.264705882353 485.3927174126073 3333.205882352941 486.75823132244886 3354.1470588235293 488.205911277506 3375.0882352941176 489.589994805443 3396.029411764706 491.08339968159794 3416.970588235294 492.5921558346354 3437.9117647058824 493.7905717710478 3458.8529411764707 495.0253467220932 3479.794117647059 496.34925589643314 3500.735294117647 497.43345523107604 3521.676470588235 498.1994618351249 3542.6176470588234 499.3250304832202 3563.5588235294117 500.6747796739521 3584.5 501.99414638500895 3605.4411764705883 503.4488995208447 3626.3823529411766 505.0214210075742 3647.323529411765 506.6178498444704 3668.264705882353 508.03326088042445 3689.205882352941 509.25430348013276 3710.1470588235293 510.457001187623 3731.0882352941176 407.85452807822685 3752.029411764706 407.6496849699309 3772.970588235294 407.42058087187377 3793.9117647058824 407.2984950463532 3814.8529411764707 406.88204596503937 3835.7941176470586 406.7486576922467 3856.735294117647 406.6769627823681 3877.676470588235 406.6442240275461 3898.6176470588234 406.67423043388266 3919.5588235294117 406.6900606081659 3940.5 406.64954838762975 3961.4411764705883 406.66475151485594 3982.3823529411766 406.6419996355151 4003.323529411765 406.7538978821639 4024.264705882353 406.7895314471883 4045.2058823529414 406.7913155812626 4066.1470588235293 406.73881659701254 4087.0882352941176 406.63653513437157 4108.029411764706 406.6504534424193 4128.970588235294 406.6903311154683 4149.911764705882 402.31237144781545 4170.85294117647 402.3026796088189 4191.794117647059 402.2771754039698 4212.735294117647 402.264400535425 4233.676470588235 402.24951221526595 4254.617647058823 402.27347913416367 4275.558823529412 402.29313148871324 4296.5 402.3328782432905 4296.5 398 4275.558823529412 398 4254.617647058823 398.00000000000006 4233.676470588235 398.0000000000001 4212.735294117647 398 4191.794117647059 397.99999999999994 4170.85294117647 398 4149.911764705882 397.99999999999994 4128.970588235294 398 4108.029411764706 398 4087.0882352941176 398 4066.1470588235293 398.0000000000001 4045.2058823529414 398.00000000000006 4024.264705882353 398 4003.323529411765 398 3982.3823529411766 398 3961.4411764705883 398 3940.5 397.99999999999994 3919.5588235294117 398 3898.6176470588234 398.0000000000001 3877.676470588235 398.00000000000006 3856.735294117647 398 3835.7941176470586 397.9999999999999 3814.8529411764707 398 3793.9117647058824 397.99999999999994 3772.970588235294 398.0000000000001 3752.029411764706 397.99999999999994 3731.0882352941176 398.00000000000006 3710.1470588235293 398 3689.205882352941 397.9999999999999 3668.264705882353 398 3647.323529411765 397.99999999999983 3626.3823529411766 398.0000000000001 3605.4411764705883 397.99999999999994 3584.5 397.9999999999999 3563.5588235294117 398.0000000000001 3542.6176470588234 398 3521.676470588235 397.9999999999999 3500.735294117647 397.99999999999994 3479.794117647059 398.00000000000006 3458.8529411764707 398.00000000000006 3437.9117647058824 398 3416.970588235294 397.9999999999999 3396.029411764706 398 3375.0882352941176 397.9999999999999 3354.1470588235293 397.9999999999999 3333.205882352941 398.00000000000006 3312.264705882353 398 3291.323529411765 398 3270.3823529411766 397.9999999999999 3249.4411764705883 398.0000000000001 3228.5 397.9999999999999 3228.5 495.20191899296304Z" fill="#393d41" opacity="0.9" />
		</g>
		<g>
			<rect x="4372" y="431" width="22.9995" height="23" fill="#e62d39" />
		</g>
		<g>
			<text fill="#595959" font-family="Verdana,sans-serif" font-weight="400" font-size="41" transform="matrix(1 0 0 1 4404.56 454)">Smartphone</text>
		</g>
		<g>
			<rect x="4372" y="508" width="22.9995" height="23" fill="#005aa6" />
		</g>
		<g>
			<text fill="#595959" font-family="Verdana,sans-serif" font-weight="400" font-size="41" transform="matrix(1 0 0 1 4404.56 531)">Desktop</text>
		</g>
		<g>
			<rect x="4372" y="585" width="22.9995" height="23" fill="#55c0e9" />
		</g>
		<g>
			<text fill="#595959" font-family="Verdana,sans-serif" font-weight="400" font-size="41" transform="matrix(1 0 0 1 4404.56 608)">Other</text>
		</g>
		<g>
			<rect x="4372" y="662" width="22.9995" height="23" fill="#f6a118" />
		</g>
		<g>
			<text fill="#595959" font-family="Verdana,sans-serif" font-weight="400" font-size="41" transform="matrix(1 0 0 1 4404.56 685)">Tablet</text>
		</g>
		<g>
			<rect x="4372" y="739" width="22.9995" height="23" fill="#fdd5a4" />
		</g>
		<g>
			<text fill="#595959" font-family="Verdana,sans-serif" font-weight="400" font-size="41" transform="matrix(1 0 0 1 4404.56 762)">Tv</text>
		</g>
		<g>
			<rect x="4372" y="816" width="22.9995" height="23" fill="#393d41" />
		</g>
		<g>
			<text fill="#595959" font-family="Verdana,sans-serif" font-weight="400" font-size="41" transform="matrix(1 0 0 1 4404.56 839)">Unclassified</text>
		</g>
	</g>
</svg>
