<svg width="1763" height="1046"
    xmlns="http://www.w3.org/2000/svg"
	xmlns:xlink="http://www.w3.org/1999/xlink" xml:space="preserve" overflow="hidden">
	<defs>
		<clipPath id="clip0">
			<rect x="2917" y="346" width="1763" height="1046"/>
		</clipPath>
	</defs>
	<g clip-path="url(#clip0)" transform="translate(-2917 -346)">
		<rect x="2918" y="347" width="1760" height="1043" fill="#FFFFFF" />
		<g>
			<path d="
			M3228.5 974.532 4296.5 974.532
			M3228.5 910.53 4296.5 910.53
			M3228.5 846.528 4296.5 846.528
			M3228.5 781.526 4296.5 781.526
			M3228.5 717.524 4296.5 717.524
			M3228.5 653.522 4296.5 653.522
			M3228.5 589.52 4296.5 589.52
			M3228.5 525.517 4296.5 525.517
			M3228.5 461.515 4296.5 461.515
			M3228.5 397.5 4296.5 397.5" stroke="#D9D9D9" stroke-width="3.4375" stroke-linejoin="round" stroke-miterlimit="10" fill="none" />
		</g>
		<g>
			<path d="M 1038.5 4296.5 1038.5" stroke="#D9D9D9" stroke-width="3.4375" stroke-linejoin="round" stroke-miterlimit="10" fill="none" fill-rule="evenodd" />
		</g>
		<g>
			<text fill="#595959" font-family="Verdana,Open Sans,DejaVu Sans,sans-serif" font-weight="400" font-size="41" transform="matrix(6.12323e-17 -1 1 6.12323e-17 3248.269287109375 1208.66748046875)">26-Aug</text>
		</g>
		<g>
			<text fill="#595959" font-family="Verdana,Open Sans,DejaVu Sans,sans-serif" font-weight="400" font-size="41" transform="matrix(6.12323e-17 -1 1 6.12323e-17 3335.452960578763 1204.42333984375)">23-Sep</text>
		</g>
		<g>
			<text fill="#595959" font-family="Verdana,Open Sans,DejaVu Sans,sans-serif" font-weight="400" font-size="41" transform="matrix(6.12323e-17 -1 1 6.12323e-17 3417.9320442044004 1201.1401290893555)">21-Oct</text>
		</g>
		<g>
			<text fill="#595959" font-family="Verdana,Open Sans,DejaVu Sans,sans-serif" font-weight="400" font-size="41" transform="matrix(6.12323e-17 -1 1 6.12323e-17 3505.0956981425384 1209.70849609375)">18-Nov</text>
		</g>
		<g>
			<text fill="#595959" font-family="Verdana,Open Sans,DejaVu Sans,sans-serif" font-weight="400" font-size="41" transform="matrix(6.12323e-17 -1 1 6.12323e-17 3592.279371611926 1207.1259765625)">23-Dec</text>
		</g>
		<g>
			<text fill="#595959" font-family="Verdana,Open Sans,DejaVu Sans,sans-serif" font-weight="400" font-size="41" transform="matrix(6.12323e-17 -1 1 6.12323e-17 3683.136629065689 1191.6909103393555)">20-Jan</text>
		</g>
		<g>
			<text fill="#595959" font-family="Verdana,Open Sans,DejaVu Sans,sans-serif" font-weight="400" font-size="41" transform="matrix(6.12323e-17 -1 1 6.12323e-17 3767.3774314413267 1201.3203125)">17-Feb</text>
		</g>
		<g>
			<text fill="#595959" font-family="Verdana,Open Sans,DejaVu Sans,sans-serif" font-weight="400" font-size="41" transform="matrix(6.12323e-17 -1 1 6.12323e-17 3853.620186941964 1210.2890625)">17-Mar</text>
		</g>
		<g>
			<text fill="#595959" font-family="Verdana,Open Sans,DejaVu Sans,sans-serif" font-weight="400" font-size="41" transform="matrix(6.12323e-17 -1 1 6.12323e-17 3945.608547911352 1201.5405197143555)">14-Apr</text>
		</g>
		<g>
			<text fill="#595959" font-family="Verdana,Open Sans,DejaVu Sans,sans-serif" font-weight="400" font-size="41" transform="matrix(6.12323e-17 -1 1 6.12323e-17 4032.9223483338646 1214.75341796875)">12-May</text>
		</g>
		<g>
			<text fill="#595959" font-family="Verdana,Open Sans,DejaVu Sans,sans-serif" font-weight="400" font-size="41" transform="matrix(6.12323e-17 -1 1 6.12323e-17 4119.034976881378 1192.2914962768555)">16-Jun</text>
		</g>
		<g>
			<text fill="#595959" font-family="Verdana,Open Sans,DejaVu Sans,sans-serif" font-weight="400" font-size="41" transform="matrix(6.12323e-17 -1 1 6.12323e-17 4206.9493632413905 1177.2768478393555)">14-Jul</text>
		</g>
		<g>
			<text fill="#595959" font-family="Verdana,Open Sans,DejaVu Sans,sans-serif" font-weight="400" font-size="41" transform="matrix(6.12323e-17 -1 1 6.12323e-17 4294.3232222576535 1206.90576171875)">11-Aug</text>
		</g>
		<g>
			<text fill="#595959" font-family="Verdana,Open Sans,DejaVu Sans,sans-serif" font-weight="400" font-size="41" transform="matrix(1 0 0 1 3169.14111328125 1050)">0</text>
		</g>
		<g>
			<text fill="#595959" font-family="Verdana,Open Sans,DejaVu Sans,sans-serif" font-weight="400" font-size="41" transform="matrix(1 0 0 1 3067.2016677856445 922)">18,229</text>
		</g>
		<g>
			<text fill="#595959" font-family="Verdana,Open Sans,DejaVu Sans,sans-serif" font-weight="400" font-size="41" transform="matrix(1 0 0 1 3065.3198318481445 794)">36,459</text>
		</g>
		<g>
			<text fill="#595959" font-family="Verdana,Open Sans,DejaVu Sans,sans-serif" font-weight="400" font-size="41" transform="matrix(1 0 0 1 3066.0205154418945 666)">54,688</text>
		</g>
		<g>
			<text fill="#595959" font-family="Verdana,Open Sans,DejaVu Sans,sans-serif" font-weight="400" font-size="41" transform="matrix(1 0 0 1 3065.2397537231445 538)">72,918</text>
		</g>
		<g>
			<text fill="#595959" font-family="Verdana,Open Sans,DejaVu Sans,sans-serif" font-weight="400" font-size="41" transform="matrix(1 0 0 1 3065.4399490356445 410)">91,147</text>
		</g>
		<g>
			<text fill="#595959" font-family="Verdana,Open Sans,DejaVu Sans,sans-serif" font-weight="400" font-size="41" transform="matrix(1 0 0 1 3556.97119140625 1321)">Week Commencing</text>
		</g>
		<g>
			<text fill="#595959" font-family="Verdana,Open Sans,DejaVu Sans,sans-serif" font-weight="400" font-size="46" transform="matrix(6.12323e-17 -1 1 6.12323e-17 3019.73 1028.5532531738281)">Number of Hardware Profiles</text>
		</g>
		<rect x="2918.5" y="347.5" width="1760" height="1043" stroke="#D9D9D9" stroke-width="3.4375" stroke-linejoin="round" stroke-miterlimit="10" fill="none" />
		<g>
			<path d="M3228.5 1038 3250.295918367347 1038 3272.091836734694 1038 3293.887755102041 1038 3315.683673469388 1038 3337.4795918367345 1038 3359.2755102040815 1038 3381.0714285714284 1038 3402.8673469387754 1038 3424.6632653061224 1038 3446.4591836734694 1038 3468.2551020408164 1038 3490.0510204081634 1038 3511.8469387755104 1038 3533.6428571428573 1038 3555.4387755102043 1038 3577.234693877551 1038 3599.030612244898 1038 3620.826530612245 1038 3642.622448979592 1038 3664.418367346939 1038 3686.214285714286 1038 3708.0102040816328 1038 3729.8061224489797 1038 3751.6020408163267 1038 3773.3979591836733 1038 3795.1938775510203 1038 3816.9897959183672 1038 3838.785714285714 1038 3860.581632653061 1038 3882.377551020408 1038 3904.173469387755 1038 3925.969387755102 1038 3947.765306122449 1038 3969.5612244897957 1038 3991.357142857143 1038 4013.1530612244896 1038 4034.9489795918366 1038 4056.7448979591836 1038 4078.5408163265306 1038 4100.336734693878 1038 4122.132653061224 1038 4143.928571428572 1038 4165.724489795918 1038 4187.5204081632655 1038 4209.316326530612 1038 4231.1122448979595 1038 4252.908163265306 1038 4274.7040816326535 1038 4296.5 1038 4296.5 692.0305221236025 4274.7040816326535 692.3043654755504 4252.908163265306 692.6273601983609 4231.1122448979595 693.0275927896694 4209.316326530612 693.3225010148442 4187.5204081632655 693.5963443667921 4165.724489795918 693.9333823384204 4143.928571428572 694.2563770612308 4122.132653061224 694.5512852864055 4100.336734693878 694.9234313800783 4078.5408163265306 695.3798369666582 4056.7448979591836 695.9345452949631 4034.9489795918366 696.306691388636 4013.1530612244896 696.6367077358552 3991.357142857143 697.022897078346 3969.5612244897957 697.3950431720189 3947.765306122449 697.7039946460113 3925.969387755102 698.0620974908663 3904.173469387755 698.4131787113124 3882.377551020408 698.7151085608962 3860.581632653061 699.0451249081154 3838.785714285714 699.4313142506062 3816.9897959183672 699.7753738466433 3795.1938775510203 700.1334766914983 3773.3979591836733 700.428384916673 3751.6020408163267 700.8215958835726 3729.8061224489797 701.1796987284276 3708.0102040816328 701.5729096953273 3686.214285714286 701.9169692913645 3664.418367346939 702.2188991409481 3642.622448979592 702.5067857417139 3620.826530612245 702.7806290936619 3599.030612244898 702.9772345771116 3577.234693877551 703.1597968117437 3555.4387755102043 703.4336401636916 3533.6428571428573 703.8128078817733 3511.8469387755104 704.1919755998551 3490.0510204081634 704.5079486982567 3468.2551020408164 704.7677488013867 3446.4591836734694 704.9924407824723 3424.6632653061224 705.2592625100112 3402.8673469387754 705.6033221060484 3381.0714285714284 705.9544033264946 3359.2755102040815 706.277398049305 3337.4795918367345 706.5652846500707 3315.683673469388 706.7478468847028 3293.887755102041 707.1340362271934 3272.091836734694 707.6044850625913 3250.295918367347 707.8713067901302 3228.5 708.0679122735801 3228.5 1038Z" fill="#e62d39" opacity="0.9" />
		</g>
		<g>
			<path d="M3228.5 708.0679122735801 3250.295918367347 707.8713067901302 3272.091836734694 707.6044850625913 3293.887755102041 707.1340362271934 3315.683673469388 706.7478468847028 3337.4795918367345 706.5652846500707 3359.2755102040815 706.277398049305 3381.0714285714284 705.9544033264946 3402.8673469387754 705.6033221060484 3424.6632653061224 705.2592625100112 3446.4591836734694 704.9924407824723 3468.2551020408164 704.7677488013867 3490.0510204081634 704.5079486982567 3511.8469387755104 704.1919755998551 3533.6428571428573 703.8128078817733 3555.4387755102043 703.4336401636916 3577.234693877551 703.1597968117437 3599.030612244898 702.9772345771116 3620.826530612245 702.7806290936619 3642.622448979592 702.5067857417139 3664.418367346939 702.2188991409481 3686.214285714286 701.9169692913645 3708.0102040816328 701.5729096953273 3729.8061224489797 701.1796987284276 3751.6020408163267 700.8215958835726 3773.3979591836733 700.428384916673 3795.1938775510203 700.1334766914983 3816.9897959183672 699.7753738466433 3838.785714285714 699.4313142506062 3860.581632653061 699.0451249081154 3882.377551020408 698.7151085608962 3904.173469387755 698.4131787113124 3925.969387755102 698.0620974908663 3947.765306122449 697.7039946460113 3969.5612244897957 697.3950431720189 3991.357142857143 697.022897078346 4013.1530612244896 696.6367077358552 4034.9489795918366 696.306691388636 4056.7448979591836 695.9345452949631 4078.5408163265306 695.3798369666582 4100.336734693878 694.9234313800783 4122.132653061224 694.5512852864055 4143.928571428572 694.2563770612308 4165.724489795918 693.9333823384204 4187.5204081632655 693.5963443667921 4209.316326530612 693.3225010148442 4231.1122448979595 693.0275927896694 4252.908163265306 692.6273601983609 4274.7040816326535 692.3043654755504 4296.5 692.0305221236025 4296.5 526.2499698289575 4274.7040816326535 526.6782889179018 4252.908163265306 527.1838458753442 4231.1122448979595 527.7596190768758 4209.316326530612 528.18793816582 4187.5204081632655 528.7075383720803 4165.724489795918 529.185008831887 4143.928571428572 529.6905657893293 4122.132653061224 530.1961227467716 4100.336734693878 530.7438094506676 4078.5408163265306 531.3406475254259 4056.7448979591836 532.232393825359 4034.9489795918366 532.7379507828014 4013.1530612244896 533.1732914961545 3991.357142857143 533.6367187071435 3969.5612244897957 534.128232415768 3947.765306122449 534.5284650070764 3925.969387755102 535.0761517109723 3904.173469387755 535.5817086684146 3882.377551020408 536.0521575038125 3860.581632653061 536.5647360856638 3838.785714285714 537.0702930431062 3816.9897959183672 537.5196770052771 3795.1938775510203 537.9760825918571 3773.3979591836733 538.3692935587567 3751.6020408163267 538.8327207697455 3729.8061224489797 539.331256102779 3708.0102040816328 539.8297914358125 3686.214285714286 540.2370456515299 3664.418367346939 540.6934512381099 3642.622448979592 541.1428352002808 3620.826530612245 541.5711542892251 3599.030612244898 541.8098895191283 3577.234693877551 542.0205382513961 3555.4387755102043 542.4137492182957 3533.6428571428573 542.8350466828309 3511.8469387755104 543.4037982599536 3490.0510204081634 543.8040308512623 3468.2551020408164 544.2112850669796 3446.4591836734694 544.5834311606526 3424.6632653061224 545.0609016204592 3402.8673469387754 545.524328831448 3381.0714285714284 545.9596695448013 3359.2755102040815 546.4160751313811 3337.4795918367345 546.8514158447342 3315.683673469388 547.1603673187269 3293.887755102041 547.6799675249871 3272.091836734694 548.2136109800653 3250.295918367347 548.6489516934183 3228.5 548.950881543002 3228.5 708.0679122735801Z" fill="#f6a118" opacity="0.9" />
		</g>
		<g>
			<path d="M3228.5 548.950881543002 3250.295918367347 548.6489516934183 3272.091836734694 548.2136109800653 3293.887755102041 547.6799675249871 3315.683673469388 547.1603673187269 3337.4795918367345 546.8514158447342 3359.2755102040815 546.4160751313811 3381.0714285714284 545.9596695448013 3402.8673469387754 545.524328831448 3424.6632653061224 545.0609016204592 3446.4591836734694 544.5834311606526 3468.2551020408164 544.2112850669796 3490.0510204081634 543.8040308512623 3511.8469387755104 543.4037982599536 3533.6428571428573 542.8350466828309 3555.4387755102043 542.4137492182957 3577.234693877551 542.0205382513961 3599.030612244898 541.8098895191283 3620.826530612245 541.5711542892251 3642.622448979592 541.1428352002808 3664.418367346939 540.6934512381099 3686.214285714286 540.2370456515299 3708.0102040816328 539.8297914358125 3729.8061224489797 539.331256102779 3751.6020408163267 538.8327207697455 3773.3979591836733 538.3692935587567 3795.1938775510203 537.9760825918571 3816.9897959183672 537.5196770052771 3838.785714285714 537.0702930431062 3860.581632653061 536.5647360856638 3882.377551020408 536.0521575038125 3904.173469387755 535.5817086684146 3925.969387755102 535.0761517109723 3947.765306122449 534.5284650070764 3969.5612244897957 534.128232415768 3991.357142857143 533.6367187071435 4013.1530612244896 533.1732914961545 4034.9489795918366 532.7379507828014 4056.7448979591836 532.232393825359 4078.5408163265306 531.3406475254259 4100.336734693878 530.7438094506676 4122.132653061224 530.1961227467716 4143.928571428572 529.6905657893293 4165.724489795918 529.185008831887 4187.5204081632655 528.7075383720803 4209.316326530612 528.18793816582 4231.1122448979595 527.7596190768758 4252.908163265306 527.1838458753442 4274.7040816326535 526.6782889179018 4296.5 526.2499698289575 4296.5 450.73942093541194 4274.7040816326535 451.25199951726324 4252.908163265306 451.7856429723414 4231.1122448979595 452.3824810470997 4209.316326530612 452.82484338486177 4187.5204081632655 453.3795517131667 4165.724489795918 453.8991519194269 4143.928571428572 454.41875212568704 4122.132653061224 454.9804820784007 4100.336734693878 455.56327690434136 4078.5408163265306 456.1952231011442 4056.7448979591836 457.1852721428023 4034.9489795918366 457.747002095516 4013.1530612244896 458.23851580414055 3991.357142857143 458.7230078883562 3969.5612244897957 459.28473784107 3947.765306122449 459.7130569300141 3925.969387755102 460.28180850713676 3904.173469387755 460.85056008425937 3882.377551020408 461.342073792884 3860.581632653061 461.86167399914416 3838.785714285714 462.3882958298134 3816.9897959183672 462.8727879140289 3795.1938775510203 463.3502583738357 3773.3979591836733 463.7996423360066 3751.6020408163267 464.30519929344894 3729.8061224489797 464.81075625089136 3708.0102040816328 465.3233348327427 3686.214285714286 465.744632297278 3664.418367346939 466.25018925472045 3642.622448979592 466.7417029633449 3620.826530612245 467.2121517987427 3599.030612244898 467.4579086530548 3577.234693877551 467.6826006341405 3555.4387755102043 468.1179413474936 3533.6428571428573 468.55328206084664 3511.8469387755104 469.17820663324073 3490.0510204081634 469.5924824733672 3468.2551020408164 470.0348448111292 3446.4591836734694 470.4912503977092 3424.6632653061224 470.9968073551515 3402.8673469387754 471.4953426881849 3381.0714285714284 471.9587698991739 3359.2755102040815 472.4573052322073 3337.4795918367345 472.94881894083176 3315.683673469388 473.292878536869 3293.887755102041 473.8756733628095 3272.091836734694 474.50059793520364 3250.295918367347 474.9640251461924 3228.5 475.3080847422296 3228.5 548.950881543002Z" fill="#55c0e9" opacity="0.9" />
		</g>
		<g>
			<path d="M3228.5 475.3080847422296 3250.295918367347 474.9640251461924 3272.091836734694 474.50059793520364 3293.887755102041 473.8756733628095 3315.683673469388 473.292878536869 3337.4795918367345 472.94881894083176 3359.2755102040815 472.4573052322073 3381.0714285714284 471.9587698991739 3402.8673469387754 471.4953426881849 3424.6632653061224 470.9968073551515 3446.4591836734694 470.4912503977092 3468.2551020408164 470.0348448111292 3490.0510204081634 469.5924824733672 3511.8469387755104 469.17820663324073 3533.6428571428573 468.55328206084664 3555.4387755102043 468.1179413474936 3577.234693877551 467.6826006341405 3599.030612244898 467.4579086530548 3620.826530612245 467.2121517987427 3642.622448979592 466.7417029633449 3664.418367346939 466.25018925472045 3686.214285714286 465.744632297278 3708.0102040816328 465.3233348327427 3729.8061224489797 464.81075625089136 3751.6020408163267 464.30519929344894 3773.3979591836733 463.7996423360066 3795.1938775510203 463.3502583738357 3816.9897959183672 462.8727879140289 3838.785714285714 462.3882958298134 3860.581632653061 461.86167399914416 3882.377551020408 461.342073792884 3904.173469387755 460.85056008425937 3925.969387755102 460.28180850713676 3947.765306122449 459.7130569300141 3969.5612244897957 459.28473784107 3991.357142857143 458.7230078883562 4013.1530612244896 458.23851580414055 4034.9489795918366 457.747002095516 4056.7448979591836 457.1852721428023 4078.5408163265306 456.1952231011442 4100.336734693878 455.56327690434136 4122.132653061224 454.9804820784007 4143.928571428572 454.41875212568704 4165.724489795918 453.8991519194269 4187.5204081632655 453.3795517131667 4209.316326530612 452.82484338486177 4231.1122448979595 452.3824810470997 4252.908163265306 451.7856429723414 4274.7040816326535 451.25199951726324 4296.5 450.73942093541194 4296.5 399.3060221400594 4274.7040816326535 400.02924945417834 4252.908163265306 400.7314118950706 4231.1122448979595 401.3914445895092 4209.316326530612 402.00232591308543 4187.5204081632655 402.6483153587063 4165.724489795918 403.33643455078067 4143.928571428572 404.0315753672638 4122.132653061224 404.7126729349292 4100.336734693878 405.43590024904825 4078.5408163265306 406.15210593875815 4056.7448979591836 407.4019550835464 4034.9489795918366 408.1041175244385 4013.1530612244896 408.81330158973964 3991.357142857143 409.4031180400891 3969.5612244897957 410.0912372321635 3947.765306122449 410.60381581401464 3925.969387755102 411.3129998793158 3904.173469387755 412.06431369107037 3882.377551020408 412.7454112587358 3860.581632653061 413.41246557758336 3838.785714285714 414.12164964288456 3816.9897959183672 414.80976883495885 3795.1938775510203 415.5400177734868 3773.3979591836733 416.23515858997 3751.6020408163267 416.94434265527104 3729.8061224489797 417.6535267205722 3708.0102040816328 418.3486675370555 3686.214285714286 418.9735921094495 3664.418367346939 419.69681942356857 3642.622448979592 420.39196024005173 3620.826530612245 421.1011443053529 3599.030612244898 421.38903090611853 3577.234693877551 421.69096075570235 3555.4387755102043 422.3650366989588 3533.6428571428573 423.060177515442 3511.8469387755104 424.2749185381855 3490.0510204081634 424.9279296082153 3468.2551020408164 425.5949839270628 3446.4591836734694 426.28310311913725 3424.6632653061224 426.9712223112115 3402.8673469387754 427.67338475210363 3381.0714285714284 428.36150394417814 3359.2755102040815 429.0496231362524 3337.4795918367345 429.73072070391777 3315.683673469388 430.257342534587 3293.887755102041 431.1420672101111 3272.091836734694 431.9355107683194 3250.295918367347 432.63767320921147 3228.5 433.17833828869846 3228.5 475.3080847422296Z" fill="#fdd5a4" opacity="0.9" />
		</g>
		<g>
			<path d="M3228.5 433.17833828869846 3250.295918367347 432.63767320921147 3272.091836734694 431.9355107683194 3293.887755102041 431.1420672101111 3315.683673469388 430.257342534587 3337.4795918367345 429.73072070391777 3359.2755102040815 429.0496231362524 3381.0714285714284 428.36150394417814 3402.8673469387754 427.67338475210363 3424.6632653061224 426.9712223112115 3446.4591836734694 426.28310311913725 3468.2551020408164 425.5949839270628 3490.0510204081634 424.9279296082153 3511.8469387755104 424.2749185381855 3533.6428571428573 423.060177515442 3555.4387755102043 422.3650366989588 3577.234693877551 421.69096075570235 3599.030612244898 421.38903090611853 3620.826530612245 421.1011443053529 3642.622448979592 420.39196024005173 3664.418367346939 419.69681942356857 3686.214285714286 418.9735921094495 3708.0102040816328 418.3486675370555 3729.8061224489797 417.6535267205722 3751.6020408163267 416.94434265527104 3773.3979591836733 416.23515858997 3795.1938775510203 415.5400177734868 3816.9897959183672 414.80976883495885 3838.785714285714 414.12164964288456 3860.581632653061 413.41246557758336 3882.377551020408 412.7454112587358 3904.173469387755 412.06431369107037 3925.969387755102 411.3129998793158 3947.765306122449 410.60381581401464 3969.5612244897957 410.0912372321635 3991.357142857143 409.4031180400891 4013.1530612244896 408.81330158973964 4034.9489795918366 408.1041175244385 4056.7448979591836 407.4019550835464 4078.5408163265306 406.15210593875815 4100.336734693878 405.43590024904825 4122.132653061224 404.7126729349292 4143.928571428572 404.0315753672638 4165.724489795918 403.33643455078067 4187.5204081632655 402.6483153587063 4209.316326530612 402.00232591308543 4231.1122448979595 401.3914445895092 4252.908163265306 400.7314118950706 4274.7040816326535 400.02924945417834 4296.5 399.3060221400594 4296.5 397.99999999999994 4274.7040816326535 398.7232273141189 4252.908163265306 399.42538975501117 4231.1122448979595 400.08542244944977 4209.316326530612 400.696303773026 4187.5204081632655 401.3422932186469 4165.724489795918 402.0304124107212 4143.928571428572 402.7255532272044 4122.132653061224 403.40665079486973 4100.336734693878 404.1298781089888 4078.5408163265306 404.8460837986987 4056.7448979591836 406.09593294348696 4034.9489795918366 406.79809538437905 4013.1530612244896 407.5072794496802 3991.357142857143 408.0970959000297 3969.5612244897957 408.78521509210407 3947.765306122449 409.2977936739552 3925.969387755102 410.00697773925634 3904.173469387755 410.7582915510109 3882.377551020408 411.4393891186764 3860.581632653061 412.1064434375239 3838.785714285714 412.8156275028251 3816.9897959183672 413.5037466948994 3795.1938775510203 414.23399563342736 3773.3979591836733 414.9291364499106 3751.6020408163267 415.6383205152116 3729.8061224489797 416.34750458051275 3708.0102040816328 417.0426453969961 3686.214285714286 417.66756996939006 3664.418367346939 418.39079728350913 3642.622448979592 419.0859380999923 3620.826530612245 419.79512216529344 3599.030612244898 420.0830087660591 3577.234693877551 420.3849386156429 3555.4387755102043 421.0590145588994 3533.6428571428573 421.75415537538254 3511.8469387755104 422.96889639812605 3490.0510204081634 423.6219074681559 3468.2551020408164 424.28896178700336 3446.4591836734694 424.9770809790778 3424.6632653061224 425.6722217955609 3402.8673469387754 426.381405860862 3381.0714285714284 427.0695250529365 3359.2755102040815 427.7576442450108 3337.4795918367345 428.43874181267614 3315.683673469388 428.96536364334537 3293.887755102041 429.8500883188695 3272.091836734694 430.64353187707775 3250.295918367347 431.34569431796984 3228.5 431.88635939745683 3228.5 433.17833828869846Z" fill="#005aa6" opacity="0.9" />
		</g>
		<g>
			<rect x="4372" y="431" width="22.9995" height="23" fill="#e62d39" />
		</g>
		<g>
			<text fill="#595959" font-family="Verdana,Open Sans,DejaVu Sans,sans-serif" font-weight="400" font-size="41" transform="matrix(1 0 0 1 4404.56 454)">Smartphone</text>
		</g>
		<g>
			<rect x="4372" y="508" width="22.9995" height="23" fill="#f6a118" />
		</g>
		<g>
			<text fill="#595959" font-family="Verdana,Open Sans,DejaVu Sans,sans-serif" font-weight="400" font-size="41" transform="matrix(1 0 0 1 4404.56 531)">Tablet</text>
		</g>
		<g>
			<rect x="4372" y="585" width="22.9995" height="23" fill="#55c0e9" />
		</g>
		<g>
			<text fill="#595959" font-family="Verdana,Open Sans,DejaVu Sans,sans-serif" font-weight="400" font-size="41" transform="matrix(1 0 0 1 4404.56 608)">Other</text>
		</g>
		<g>
			<rect x="4372" y="662" width="22.9995" height="23" fill="#fdd5a4" />
		</g>
		<g>
			<text fill="#595959" font-family="Verdana,Open Sans,DejaVu Sans,sans-serif" font-weight="400" font-size="41" transform="matrix(1 0 0 1 4404.56 685)">Tv</text>
		</g>
		<g>
			<rect x="4372" y="739" width="22.9995" height="23" fill="#005aa6" />
		</g>
		<g>
			<text fill="#595959" font-family="Verdana,Open Sans,DejaVu Sans,sans-serif" font-weight="400" font-size="41" transform="matrix(1 0 0 1 4404.56 762)">Desktop</text>
		</g>
	</g>
</svg>
