<svg width="1763" height="1046"
    xmlns="http://www.w3.org/2000/svg"
	xmlns:xlink="http://www.w3.org/1999/xlink" xml:space="preserve" overflow="hidden">
	<defs>
		<clipPath id="clip0">
			<rect x="2917" y="346" width="1763" height="1046"/>
		</clipPath>
	</defs>
	<g clip-path="url(#clip0)" transform="translate(-2917 -346)">
		<rect x="2918" y="347" width="1760" height="1043" fill="#FFFFFF" />
		<g>
			<path d="
			M3228.5 974.532 4296.5 974.532
			M3228.5 910.53 4296.5 910.53
			M3228.5 846.528 4296.5 846.528
			M3228.5 781.526 4296.5 781.526
			M3228.5 717.524 4296.5 717.524
			M3228.5 653.522 4296.5 653.522
			M3228.5 589.52 4296.5 589.52
			M3228.5 525.517 4296.5 525.517
			M3228.5 461.515 4296.5 461.515
			M3228.5 397.5 4296.5 397.5" stroke="#D9D9D9" stroke-width="3.4375" stroke-linejoin="round" stroke-miterlimit="10" fill="none" />
		</g>
		<g>
			<path d="M 1038.5 4296.5 1038.5" stroke="#D9D9D9" stroke-width="3.4375" stroke-linejoin="round" stroke-miterlimit="10" fill="none" fill-rule="evenodd" />
		</g>
		<g>
			<text fill="#595959" font-family="Verdana,Open Sans,DejaVu Sans,sans-serif" font-weight="400" font-size="41" transform="matrix(6.12323e-17 -1 1 6.12323e-17 3243.564697265625 1201.1000900268555)">07-Oct</text>
		</g>
		<g>
			<text fill="#595959" font-family="Verdana,Open Sans,DejaVu Sans,sans-serif" font-weight="400" font-size="41" transform="matrix(6.12323e-17 -1 1 6.12323e-17 3330.748370735013 1211.43017578125)">04-Nov</text>
		</g>
		<g>
			<text fill="#595959" font-family="Verdana,Open Sans,DejaVu Sans,sans-serif" font-weight="400" font-size="41" transform="matrix(6.12323e-17 -1 1 6.12323e-17 3417.9320442044004 1207.0859375)">09-Dec</text>
		</g>
		<g>
			<text fill="#595959" font-family="Verdana,Open Sans,DejaVu Sans,sans-serif" font-weight="400" font-size="41" transform="matrix(6.12323e-17 -1 1 6.12323e-17 3508.7692821269134 1191.6508712768555)">06-Jan</text>
		</g>
		<g>
			<text fill="#595959" font-family="Verdana,Open Sans,DejaVu Sans,sans-serif" font-weight="400" font-size="41" transform="matrix(6.12323e-17 -1 1 6.12323e-17 3593.010084502551 1203.0419921875)">03-Feb</text>
		</g>
		<g>
			<text fill="#595959" font-family="Verdana,Open Sans,DejaVu Sans,sans-serif" font-weight="400" font-size="41" transform="matrix(6.12323e-17 -1 1 6.12323e-17 3679.483064612564 1212.0107421875)">03-Mar</text>
		</g>
		<g>
			<text fill="#595959" font-family="Verdana,Open Sans,DejaVu Sans,sans-serif" font-weight="400" font-size="41" transform="matrix(6.12323e-17 -1 1 6.12323e-17 3766.6467185507017 1212.1708984375)">31-Mar</text>
		</g>
		<g>
			<text fill="#595959" font-family="Verdana,Open Sans,DejaVu Sans,sans-serif" font-weight="400" font-size="41" transform="matrix(6.12323e-17 -1 1 6.12323e-17 3858.555001395089 1203.3022384643555)">28-Apr</text>
		</g>
		<g>
			<text fill="#595959" font-family="Verdana,Open Sans,DejaVu Sans,sans-serif" font-weight="400" font-size="41" transform="matrix(6.12323e-17 -1 1 6.12323e-17 3945.738674864477 1216.51513671875)">26-May</text>
		</g>
		<g>
			<text fill="#595959" font-family="Verdana,Open Sans,DejaVu Sans,sans-serif" font-weight="400" font-size="41" transform="matrix(6.12323e-17 -1 1 6.12323e-17 4031.8713229432396 1194.1733322143555)">30-Jun</text>
		</g>
		<g>
			<text fill="#595959" font-family="Verdana,Open Sans,DejaVu Sans,sans-serif" font-weight="400" font-size="41" transform="matrix(6.12323e-17 -1 1 6.12323e-17 4119.765689772003 1179.0385665893555)">28-Jul</text>
		</g>
		<g>
			<text fill="#595959" font-family="Verdana,Open Sans,DejaVu Sans,sans-serif" font-weight="400" font-size="41" transform="matrix(6.12323e-17 -1 1 6.12323e-17 4207.2896952726405 1208.66748046875)">25-Aug</text>
		</g>
		<g>
			<text fill="#595959" font-family="Verdana,Open Sans,DejaVu Sans,sans-serif" font-weight="400" font-size="41" transform="matrix(6.12323e-17 -1 1 6.12323e-17 4294.4733687420285 1204.42333984375)">22-Sep</text>
		</g>
		<g>
			<text fill="#595959" font-family="Verdana,Open Sans,DejaVu Sans,sans-serif" font-weight="400" font-size="41" transform="matrix(1 0 0 1 3169.14111328125 1050)">0</text>
		</g>
		<g>
			<text fill="#595959" font-family="Verdana,Open Sans,DejaVu Sans,sans-serif" font-weight="400" font-size="41" transform="matrix(1 0 0 1 3067.0415115356445 922)">18,330</text>
		</g>
		<g>
			<text fill="#595959" font-family="Verdana,Open Sans,DejaVu Sans,sans-serif" font-weight="400" font-size="41" transform="matrix(1 0 0 1 3065.1596755981445 794)">36,660</text>
		</g>
		<g>
			<text fill="#595959" font-family="Verdana,Open Sans,DejaVu Sans,sans-serif" font-weight="400" font-size="41" transform="matrix(1 0 0 1 3073.0273513793945 666)">54,991</text>
		</g>
		<g>
			<text fill="#595959" font-family="Verdana,Open Sans,DejaVu Sans,sans-serif" font-weight="400" font-size="41" transform="matrix(1 0 0 1 3072.2465896606445 538)">73,321</text>
		</g>
		<g>
			<text fill="#595959" font-family="Verdana,Open Sans,DejaVu Sans,sans-serif" font-weight="400" font-size="41" transform="matrix(1 0 0 1 3072.4868240356445 410)">91,651</text>
		</g>
		<g>
			<text fill="#595959" font-family="Verdana,Open Sans,DejaVu Sans,sans-serif" font-weight="400" font-size="41" transform="matrix(1 0 0 1 3556.97119140625 1321)">Week Commencing</text>
		</g>
		<g>
			<text fill="#595959" font-family="Verdana,Open Sans,DejaVu Sans,sans-serif" font-weight="400" font-size="46" transform="matrix(6.12323e-17 -1 1 6.12323e-17 3019.73 1028.5532531738281)">Number of Hardware Profiles</text>
		</g>
		<rect x="2918.5" y="347.5" width="1760" height="1043" stroke="#D9D9D9" stroke-width="3.4375" stroke-linejoin="round" stroke-miterlimit="10" fill="none" />
		<g>
			<path d="M3228.5 1038 3250.295918367347 1038 3272.091836734694 1038 3293.887755102041 1038 3315.683673469388 1038 3337.4795918367345 1038 3359.2755102040815 1038 3381.0714285714284 1038 3402.8673469387754 1038 3424.6632653061224 1038 3446.4591836734694 1038 3468.2551020408164 1038 3490.0510204081634 1038 3511.8469387755104 1038 3533.6428571428573 1038 3555.4387755102043 1038 3577.234693877551 1038 3599.030612244898 1038 3620.826530612245 1038 3642.622448979592 1038 3664.418367346939 1038 3686.214285714286 1038 3708.0102040816328 1038 3729.8061224489797 1038 3751.6020408163267 1038 3773.3979591836733 1038 3795.1938775510203 1038 3816.9897959183672 1038 3838.785714285714 1038 3860.581632653061 1038 3882.377551020408 1038 3904.173469387755 1038 3925.969387755102 1038 3947.765306122449 1038 3969.5612244897957 1038 3991.357142857143 1038 4013.1530612244896 1038 4034.9489795918366 1038 4056.7448979591836 1038 4078.5408163265306 1038 4100.336734693878 1038 4122.132653061224 1038 4143.928571428572 1038 4165.724489795918 1038 4187.5204081632655 1038 4209.316326530612 1038 4231.1122448979595 1038 4252.908163265306 1038 4274.7040816326535 1038 4296.5 1038 4296.5 691.9917731394094 4274.7040816326535 692.4037708262867 4252.908163265306 692.7668874316702 4231.1122448979595 693.0881059672017 4209.316326530612 693.4023414910912 4187.5204081632655 693.6048488287089 4165.724489795918 693.9330503758824 4143.928571428572 694.20538782992 4122.132653061224 694.5266063654516 4100.336734693878 694.9246380290449 4078.5408163265306 695.2179245180085 4056.7448979591836 695.4902619720461 4034.9489795918366 695.8254465308617 4013.1530612244896 696.1466650663931 3991.357142857143 696.4399515553567 3969.5612244897957 696.8100511723821 3947.765306122449 697.2639469291115 3925.969387755102 697.8156048488288 3904.173469387755 698.1857044658542 3882.377551020408 698.5139060130277 3860.581632653061 698.8979716533372 3838.785714285714 699.2680712703625 3816.9897959183672 699.5753237826102 3795.1938775510203 699.9314573763515 3773.3979591836733 700.2806079584511 3751.6020408163267 700.5808774590566 3729.8061224489797 700.9090790062302 3708.0102040816328 701.2931446465395 3686.214285714286 701.6353122169971 3664.418367346939 701.9914458107386 3642.622448979592 702.2847322997021 3620.826530612245 702.6757809516536 3599.030612244898 703.031914545395 3577.234693877551 703.4229631973465 3555.4387755102043 703.765130767804 3533.6428571428573 704.0654002684096 3511.8469387755104 704.3517037457311 3490.0510204081634 704.6240411997687 3468.2551020408164 704.8195655257443 3446.4591836734694 705.0011238284362 3424.6632653061224 705.2734612824738 3402.8673469387754 705.6505439111412 3381.0714285714284 706.0276265398086 3359.2755102040815 706.3418620636982 3337.4795918367345 706.6002334944518 3315.683673469388 706.8236898669954 3293.887755102041 707.089044309391 3272.091836734694 707.4312118798485 3250.295918367347 707.780362461948 3228.5 708.1015809974796 3228.5 1038Z" fill="#e62d39" opacity="0.9" />
		</g>
		<g>
			<path d="M3228.5 708.1015809974796 3250.295918367347 707.780362461948 3272.091836734694 707.4312118798485 3293.887755102041 707.089044309391 3315.683673469388 706.8236898669954 3337.4795918367345 706.6002334944518 3359.2755102040815 706.3418620636982 3381.0714285714284 706.0276265398086 3402.8673469387754 705.6505439111412 3424.6632653061224 705.2734612824738 3446.4591836734694 705.0011238284362 3468.2551020408164 704.8195655257443 3490.0510204081634 704.6240411997687 3511.8469387755104 704.3517037457311 3533.6428571428573 704.0654002684096 3555.4387755102043 703.765130767804 3577.234693877551 703.4229631973465 3599.030612244898 703.031914545395 3620.826530612245 702.6757809516536 3642.622448979592 702.2847322997021 3664.418367346939 701.9914458107386 3686.214285714286 701.6353122169971 3708.0102040816328 701.2931446465395 3729.8061224489797 700.9090790062302 3751.6020408163267 700.5808774590566 3773.3979591836733 700.2806079584511 3795.1938775510203 699.9314573763515 3816.9897959183672 699.5753237826102 3838.785714285714 699.2680712703625 3860.581632653061 698.8979716533372 3882.377551020408 698.5139060130277 3904.173469387755 698.1857044658542 3925.969387755102 697.8156048488288 3947.765306122449 697.2639469291115 3969.5612244897957 696.8100511723821 3991.357142857143 696.4399515553567 4013.1530612244896 696.1466650663931 4034.9489795918366 695.8254465308617 4056.7448979591836 695.4902619720461 4078.5408163265306 695.2179245180085 4100.336734693878 694.9246380290449 4122.132653061224 694.5266063654516 4143.928571428572 694.20538782992 4165.724489795918 693.9330503758824 4187.5204081632655 693.6048488287089 4209.316326530612 693.4023414910912 4231.1122448979595 693.0881059672017 4252.908163265306 692.7668874316702 4274.7040816326535 692.4037708262867 4296.5 691.9917731394094 4296.5 526.5642273406729 4274.7040816326535 527.101919237106 4252.908163265306 527.5697810171193 4231.1122448979595 528.0236767738487 4209.316326530612 528.442657472368 4187.5204081632655 528.6730968565537 4165.724489795918 529.0641455085051 4143.928571428572 529.4901092186665 4122.132653061224 529.9928860568898 4100.336734693878 530.5654930115328 4078.5408163265306 530.9914567216942 4056.7448979591836 531.5081995832015 4034.9489795918366 531.9830443748568 4013.1530612244896 532.48582121308 3991.357142857143 532.9885980513034 3969.5612244897957 533.5332729593785 3947.765306122449 534.1268289489476 3925.969387755102 535.0136714274804 3904.173469387755 535.5164482657036 3882.377551020408 535.949394987507 3860.581632653061 536.4102737558784 3838.785714285714 536.8990845708174 3816.9897959183672 537.2971162344111 3795.1938775510203 537.8417911424862 3773.3979591836733 538.3445679807095 3751.6020408163267 538.8124297607228 3729.8061224489797 539.322189610588 3708.0102040816328 539.8249664488112 3686.214285714286 540.2718791938987 3664.418367346939 540.725774950628 3642.622448979592 541.1168236025793 3620.826530612245 541.5777023709506 3599.030612244898 542.073496197532 3577.234693877551 542.5692900241132 3555.4387755102043 542.9743046993486 3533.6428571428573 543.428200456078 3511.8469387755104 543.8751132011653 3490.0510204081634 544.3010769113267 3468.2551020408164 544.5384993071543 3446.4591836734694 544.7479896564141 3424.6632653061224 545.1390383083656 3402.8673469387754 545.5580190068848 3381.0714285714284 546.123642949886 3359.2755102040815 546.5216746134794 3337.4795918367345 546.9266892887148 3315.683673469388 547.2967889057402 3293.887755102041 547.7716336973956 3272.091836734694 548.2325124657668 3250.295918367347 548.6654591875701 3228.5 549.1193549442996 3228.5 708.1015809974796Z" fill="#f6a118" opacity="0.9" />
		</g>
		<g>
			<path d="M3228.5 549.1193549442996 3250.295918367347 548.6654591875701 3272.091836734694 548.2325124657668 3293.887755102041 547.7716336973956 3315.683673469388 547.2967889057402 3337.4795918367345 546.9266892887148 3359.2755102040815 546.5216746134794 3381.0714285714284 546.123642949886 3402.8673469387754 545.5580190068848 3424.6632653061224 545.1390383083656 3446.4591836734694 544.7479896564141 3468.2551020408164 544.5384993071543 3490.0510204081634 544.3010769113267 3511.8469387755104 543.8751132011653 3533.6428571428573 543.428200456078 3555.4387755102043 542.9743046993486 3577.234693877551 542.5692900241132 3599.030612244898 542.073496197532 3620.826530612245 541.5777023709506 3642.622448979592 541.1168236025793 3664.418367346939 540.725774950628 3686.214285714286 540.2718791938987 3708.0102040816328 539.8249664488112 3729.8061224489797 539.322189610588 3751.6020408163267 538.8124297607228 3773.3979591836733 538.3445679807095 3795.1938775510203 537.8417911424862 3816.9897959183672 537.2971162344111 3838.785714285714 536.8990845708174 3860.581632653061 536.4102737558784 3882.377551020408 535.949394987507 3904.173469387755 535.5164482657036 3925.969387755102 535.0136714274804 3947.765306122449 534.1268289489476 3969.5612244897957 533.5332729593785 3991.357142857143 532.9885980513034 4013.1530612244896 532.48582121308 4034.9489795918366 531.9830443748568 4056.7448979591836 531.5081995832015 4078.5408163265306 530.9914567216942 4100.336734693878 530.5654930115328 4122.132653061224 529.9928860568898 4143.928571428572 529.4901092186665 4165.724489795918 529.0641455085051 4187.5204081632655 528.6730968565537 4209.316326530612 528.442657472368 4231.1122448979595 528.0236767738487 4252.908163265306 527.5697810171193 4274.7040816326535 527.101919237106 4296.5 526.5642273406729 4296.5 451.25942979345575 4274.7040816326535 451.8390197597408 4252.908163265306 452.33481358632207 4231.1122448979595 452.83060741290336 4209.316326530612 453.2635541347066 4187.5204081632655 453.52192556546026 4165.724489795918 453.96883831054765 4143.928571428572 454.4785981604129 4122.132653061224 455.0093070452042 4100.336734693878 455.6028630347731 4078.5408163265306 456.04279276821853 4056.7448979591836 456.5944506879358 4034.9489795918366 457.11119354944304 4013.1530612244896 457.6279364109502 3991.357142857143 458.1865773423095 3969.5612244897957 458.7661673085945 3947.765306122449 459.3946383563736 3925.969387755102 460.37924299789427 3904.173469387755 460.9378839292534 3882.377551020408 461.42669474419273 3860.581632653061 461.90852254749007 3838.785714285714 462.467163478849 3816.9897959183672 462.8931271890106 3795.1938775510203 463.4587511320116 3773.3979591836733 464.02437507501287 3751.6020408163267 464.5131858899522 3729.8061224489797 465.02992875145935 3708.0102040816328 465.5536546246085 3686.214285714286 466.035482427906 3664.418367346939 466.5103272195612 3642.622448979592 466.95723996464847 3620.826530612245 467.46001680287173 3599.030612244898 467.96279364109506 3577.234693877551 468.4725534909603 3555.4387755102043 468.89153418947967 3533.6428571428573 469.394311027703 3511.8469387755104 469.8831218426422 3490.0510204081634 470.3509836226556 3468.2551020408164 470.59538903012515 3446.4591836734694 470.81884540266896 3424.6632653061224 471.25179212447233 3402.8673469387754 471.68473884627554 3381.0714285714284 472.3062268824126 3359.2755102040815 472.71822456929 3337.4795918367345 473.1581543027354 3315.683673469388 473.61205005946465 3293.887755102041 474.11482689768803 3272.091836734694 474.6106207242692 3250.295918367347 475.07149949264044 3228.5 475.5672933192219 3228.5 549.1193549442996Z" fill="#55c0e9" opacity="0.9" />
		</g>
		<g>
			<path d="M3228.5 475.5672933192219 3250.295918367347 475.07149949264044 3272.091836734694 474.6106207242692 3293.887755102041 474.11482689768803 3315.683673469388 473.61205005946465 3337.4795918367345 473.1581543027354 3359.2755102040815 472.71822456929 3381.0714285714284 472.3062268824126 3402.8673469387754 471.68473884627554 3424.6632653061224 471.25179212447233 3446.4591836734694 470.81884540266896 3468.2551020408164 470.59538903012515 3490.0510204081634 470.3509836226556 3511.8469387755104 469.8831218426422 3533.6428571428573 469.394311027703 3555.4387755102043 468.89153418947967 3577.234693877551 468.4725534909603 3599.030612244898 467.96279364109506 3620.826530612245 467.46001680287173 3642.622448979592 466.95723996464847 3664.418367346939 466.5103272195612 3686.214285714286 466.035482427906 3708.0102040816328 465.5536546246085 3729.8061224489797 465.02992875145935 3751.6020408163267 464.5131858899522 3773.3979591836733 464.02437507501287 3795.1938775510203 463.4587511320116 3816.9897959183672 462.8931271890106 3838.785714285714 462.467163478849 3860.581632653061 461.90852254749007 3882.377551020408 461.42669474419273 3904.173469387755 460.9378839292534 3925.969387755102 460.37924299789427 3947.765306122449 459.3946383563736 3969.5612244897957 458.7661673085945 3991.357142857143 458.1865773423095 4013.1530612244896 457.6279364109502 4034.9489795918366 457.11119354944304 4056.7448979591836 456.5944506879358 4078.5408163265306 456.04279276821853 4100.336734693878 455.6028630347731 4122.132653061224 455.0093070452042 4143.928571428572 454.4785981604129 4165.724489795918 453.96883831054765 4187.5204081632655 453.52192556546026 4209.316326530612 453.2635541347066 4231.1122448979595 452.83060741290336 4252.908163265306 452.33481358632207 4274.7040816326535 451.8390197597408 4296.5 451.25942979345575 4296.5 399.29884016541024 4274.7040816326535 400.032056387819 4252.908163265306 400.56276527261025 4231.1122448979595 401.2261513785993 4209.316326530612 401.84065640309433 4187.5204081632655 402.19678999683583 4165.724489795918 402.81827803297296 4143.928571428572 403.5375282320979 4122.132653061224 404.23582939629694 4100.336734693878 404.8922324906438 4078.5408163265306 405.49975450349694 4056.7448979591836 406.14219157456006 4034.9489795918366 406.82652671547504 4013.1530612244896 407.51784486803194 3991.357142857143 408.19519699730506 3969.5612244897957 408.9144471964299 3947.765306122449 409.6267143839128 3925.969387755102 410.86969045618713 3904.173469387755 411.56799162038607 3882.377551020408 412.2732757962271 3860.581632653061 412.8598487741543 3838.785714285714 413.54418391506897 3816.9897959183672 414.0539437649345 3795.1938775510203 414.7592279407753 3773.3979591836733 415.5064101864683 3751.6020408163267 416.1837623157413 3729.8061224489797 416.84714842173025 3708.0102040816328 417.55243259757117 3686.214285714286 418.2367677384864 3664.418367346939 418.96300094925317 3642.622448979592 419.6543191018101 3620.826530612245 420.35960327765105 3599.030612244898 421.0648874534921 3577.234693877551 421.7562056060491 3555.4387755102043 422.37769364218616 3533.6428571428573 423.09694384131114 3511.8469387755104 423.78826199386805 3490.0510204081634 424.4935461697091 3468.2551020408164 424.7798496470306 3446.4591836734694 425.0801191476363 3424.6632653061224 425.75048826526734 3402.8673469387754 426.4418064178241 3381.0714285714284 427.6498674318883 3359.2755102040815 428.29928751459335 3337.4795918367345 428.96267362058245 3315.683673469388 429.6470087614974 3293.887755102041 430.33134390241247 3272.091836734694 431.02964506661135 3250.295918367347 431.7139802075263 3228.5 432.39831534844143 3228.5 475.5672933192219Z" fill="#fdd5a4" opacity="0.9" />
		</g>
		<g>
			<path d="M3228.5 432.39831534844143 3250.295918367347 431.7139802075263 3272.091836734694 431.02964506661135 3293.887755102041 430.33134390241247 3315.683673469388 429.6470087614974 3337.4795918367345 428.96267362058245 3359.2755102040815 428.29928751459335 3381.0714285714284 427.6498674318883 3402.8673469387754 426.4418064178241 3424.6632653061224 425.75048826526734 3446.4591836734694 425.0801191476363 3468.2551020408164 424.7798496470306 3490.0510204081634 424.4935461697091 3511.8469387755104 423.78826199386805 3533.6428571428573 423.09694384131114 3555.4387755102043 422.37769364218616 3577.234693877551 421.7562056060491 3599.030612244898 421.0648874534921 3620.826530612245 420.35960327765105 3642.622448979592 419.6543191018101 3664.418367346939 418.96300094925317 3686.214285714286 418.2367677384864 3708.0102040816328 417.55243259757117 3729.8061224489797 416.84714842173025 3751.6020408163267 416.1837623157413 3773.3979591836733 415.5064101864683 3795.1938775510203 414.7592279407753 3816.9897959183672 414.0539437649345 3838.785714285714 413.54418391506897 3860.581632653061 412.8598487741543 3882.377551020408 412.2732757962271 3904.173469387755 411.56799162038607 3925.969387755102 410.86969045618713 3947.765306122449 409.6267143839128 3969.5612244897957 408.9144471964299 3991.357142857143 408.19519699730506 4013.1530612244896 407.51784486803194 4034.9489795918366 406.82652671547504 4056.7448979591836 406.14219157456006 4078.5408163265306 405.49975450349694 4100.336734693878 404.8922324906438 4122.132653061224 404.23582939629694 4143.928571428572 403.5375282320979 4165.724489795918 402.81827803297296 4187.5204081632655 402.19678999683583 4209.316326530612 401.84065640309433 4231.1122448979595 401.2261513785993 4252.908163265306 400.56276527261025 4274.7040816326535 400.032056387819 4296.5 399.29884016541024 4296.5 398.00000000000017 4274.7040816326535 398.73321622240894 4252.908163265306 399.2639251072002 4231.1122448979595 399.9273112131892 4209.316326530612 400.54181623768426 4187.5204081632655 400.89794983142576 4165.724489795918 401.5194378675629 4143.928571428572 402.2386880666878 4122.132653061224 402.93698923088687 4100.336734693878 403.5933923252337 4078.5408163265306 404.2009143380869 4056.7448979591836 404.84335140915 4034.9489795918366 405.52768655006497 4013.1530612244896 406.2190047026219 3991.357142857143 406.896356831895 3969.5612244897957 407.6156070310198 3947.765306122449 408.32787421850276 3925.969387755102 409.57085029077706 3904.173469387755 410.269151454976 3882.377551020408 410.974435630817 3860.581632653061 411.5610086087442 3838.785714285714 412.2453437496589 3816.9897959183672 412.75510359952443 3795.1938775510203 413.46038777536523 3773.3979591836733 414.20757002105825 3751.6020408163267 414.88492215033125 3729.8061224489797 415.5483082563202 3708.0102040816328 416.2535924321611 3686.214285714286 416.9379275730763 3664.418367346939 417.6641607838431 3642.622448979592 418.3554789364 3620.826530612245 419.060763112241 3599.030612244898 419.766047288082 3577.234693877551 420.457365440639 3555.4387755102043 421.0788534767761 3533.6428571428573 421.7981036759011 3511.8469387755104 422.489421828458 3490.0510204081634 423.194706004299 3468.2551020408164 423.4810094816205 3446.4591836734694 423.78127898222624 3424.6632653061224 424.45164809985727 3402.8673469387754 425.14296625241406 3381.0714285714284 426.35102726647824 3359.2755102040815 427.0004473491833 3337.4795918367345 427.6638334551724 3315.683673469388 428.3481685960873 3293.887755102041 429.0394867486444 3272.091836734694 429.74477092448524 3250.295918367347 430.42910606540016 3228.5 431.1134412063153 3228.5 432.39831534844143Z" fill="#005aa6" opacity="0.9" />
		</g>
		<g>
			<rect x="4372" y="431" width="22.9995" height="23" fill="#e62d39" />
		</g>
		<g>
			<text fill="#595959" font-family="Verdana,Open Sans,DejaVu Sans,sans-serif" font-weight="400" font-size="41" transform="matrix(1 0 0 1 4404.56 454)">Smartphone</text>
		</g>
		<g>
			<rect x="4372" y="508" width="22.9995" height="23" fill="#f6a118" />
		</g>
		<g>
			<text fill="#595959" font-family="Verdana,Open Sans,DejaVu Sans,sans-serif" font-weight="400" font-size="41" transform="matrix(1 0 0 1 4404.56 531)">Tablet</text>
		</g>
		<g>
			<rect x="4372" y="585" width="22.9995" height="23" fill="#55c0e9" />
		</g>
		<g>
			<text fill="#595959" font-family="Verdana,Open Sans,DejaVu Sans,sans-serif" font-weight="400" font-size="41" transform="matrix(1 0 0 1 4404.56 608)">Other</text>
		</g>
		<g>
			<rect x="4372" y="662" width="22.9995" height="23" fill="#fdd5a4" />
		</g>
		<g>
			<text fill="#595959" font-family="Verdana,Open Sans,DejaVu Sans,sans-serif" font-weight="400" font-size="41" transform="matrix(1 0 0 1 4404.56 685)">Tv</text>
		</g>
		<g>
			<rect x="4372" y="739" width="22.9995" height="23" fill="#005aa6" />
		</g>
		<g>
			<text fill="#595959" font-family="Verdana,Open Sans,DejaVu Sans,sans-serif" font-weight="400" font-size="41" transform="matrix(1 0 0 1 4404.56 762)">Desktop</text>
		</g>
	</g>
</svg>
