<svg width="1763" height="1046"
    xmlns="http://www.w3.org/2000/svg"
	xmlns:xlink="http://www.w3.org/1999/xlink" xml:space="preserve" overflow="hidden">
	<defs>
		<clipPath id="clip0">
			<rect x="2917" y="346" width="1763" height="1046"/>
		</clipPath>
	</defs>
	<g clip-path="url(#clip0)" transform="translate(-2917 -346)">
		<rect x="2918" y="347" width="1760" height="1043" fill="#FFFFFF" />
		<g>
			<path d="
			M3228.5 974.532 4296.5 974.532
			M3228.5 910.53 4296.5 910.53
			M3228.5 846.528 4296.5 846.528
			M3228.5 781.526 4296.5 781.526
			M3228.5 717.524 4296.5 717.524
			M3228.5 653.522 4296.5 653.522
			M3228.5 589.52 4296.5 589.52
			M3228.5 525.517 4296.5 525.517
			M3228.5 461.515 4296.5 461.515
			M3228.5 397.5 4296.5 397.5" stroke="#D9D9D9" stroke-width="3.4375" stroke-linejoin="round" stroke-miterlimit="10" fill="none" />
		</g>
		<g>
			<path d="M 1038.5 4296.5 1038.5" stroke="#D9D9D9" stroke-width="3.4375" stroke-linejoin="round" stroke-miterlimit="10" fill="none" fill-rule="evenodd" />
		</g>
		<g>
			<text fill="#595959" font-family="Verdana,Open Sans,DejaVu Sans,sans-serif" font-weight="400" font-size="41" transform="matrix(6.12323e-17 -1 1 6.12323e-17 3243.544677734375 1205.3642578125)">16-Dec</text>
		</g>
		<g>
			<text fill="#595959" font-family="Verdana,Open Sans,DejaVu Sans,sans-serif" font-weight="400" font-size="41" transform="matrix(6.12323e-17 -1 1 6.12323e-17 3332.6382421875 1189.9291915893555)">13-Jan</text>
		</g>
		<g>
			<text fill="#595959" font-family="Verdana,Open Sans,DejaVu Sans,sans-serif" font-weight="400" font-size="41" transform="matrix(6.12323e-17 -1 1 6.12323e-17 3415.155390625 1201.3203125)">10-Feb</text>
		</g>
		<g>
			<text fill="#595959" font-family="Verdana,Open Sans,DejaVu Sans,sans-serif" font-weight="400" font-size="41" transform="matrix(6.12323e-17 -1 1 6.12323e-17 3499.884697265625 1210.2890625)">10-Mar</text>
		</g>
		<g>
			<text fill="#595959" font-family="Verdana,Open Sans,DejaVu Sans,sans-serif" font-weight="400" font-size="41" transform="matrix(6.12323e-17 -1 1 6.12323e-17 3590.049306640625 1203.2621994018555)">07-Apr</text>
		</g>
		<g>
			<text fill="#595959" font-family="Verdana,Open Sans,DejaVu Sans,sans-serif" font-weight="400" font-size="41" transform="matrix(6.12323e-17 -1 1 6.12323e-17 3675.489306640625 1216.47509765625)">05-May</text>
		</g>
		<g>
			<text fill="#595959" font-family="Verdana,Open Sans,DejaVu Sans,sans-serif" font-weight="400" font-size="41" transform="matrix(6.12323e-17 -1 1 6.12323e-17 3759.85826171875 1194.0131759643555)">09-Jun</text>
		</g>
		<g>
			<text fill="#595959" font-family="Verdana,Open Sans,DejaVu Sans,sans-serif" font-weight="400" font-size="41" transform="matrix(6.12323e-17 -1 1 6.12323e-17 3846.008955078125 1178.9985275268555)">07-Jul</text>
		</g>
		<g>
			<text fill="#595959" font-family="Verdana,Open Sans,DejaVu Sans,sans-serif" font-weight="400" font-size="41" transform="matrix(6.12323e-17 -1 1 6.12323e-17 3931.809306640625 1208.62744140625)">04-Aug</text>
		</g>
		<g>
			<text fill="#595959" font-family="Verdana,Open Sans,DejaVu Sans,sans-serif" font-weight="400" font-size="41" transform="matrix(6.12323e-17 -1 1 6.12323e-17 4017.249306640625 1204.38330078125)">01-Sep</text>
		</g>
		<g>
			<text fill="#595959" font-family="Verdana,Open Sans,DejaVu Sans,sans-serif" font-weight="400" font-size="41" transform="matrix(6.12323e-17 -1 1 6.12323e-17 4102.669287109375 1204.42333984375)">29-Sep</text>
		</g>
		<g>
			<text fill="#595959" font-family="Verdana,Open Sans,DejaVu Sans,sans-serif" font-weight="400" font-size="41" transform="matrix(6.12323e-17 -1 1 6.12323e-17 4183.404697265625 1201.1401290893555)">27-Oct</text>
		</g>
		<g>
			<text fill="#595959" font-family="Verdana,Open Sans,DejaVu Sans,sans-serif" font-weight="400" font-size="41" transform="matrix(6.12323e-17 -1 1 6.12323e-17 4268.824677734375 1211.47021484375)">24-Nov</text>
		</g>
		<g>
			<text fill="#595959" font-family="Verdana,Open Sans,DejaVu Sans,sans-serif" font-weight="400" font-size="41" transform="matrix(1 0 0 1 3135.4482421875 1050)">0%</text>
		</g>
		<g>
			<text fill="#595959" font-family="Verdana,Open Sans,DejaVu Sans,sans-serif" font-weight="400" font-size="41" transform="matrix(1 0 0 1 3111.96533203125 922)">20%</text>
		</g>
		<g>
			<text fill="#595959" font-family="Verdana,Open Sans,DejaVu Sans,sans-serif" font-weight="400" font-size="41" transform="matrix(1 0 0 1 3110.82421875 794)">40%</text>
		</g>
		<g>
			<text fill="#595959" font-family="Verdana,Open Sans,DejaVu Sans,sans-serif" font-weight="400" font-size="41" transform="matrix(1 0 0 1 3112.3056640625 666)">60%</text>
		</g>
		<g>
			<text fill="#595959" font-family="Verdana,Open Sans,DejaVu Sans,sans-serif" font-weight="400" font-size="41" transform="matrix(1 0 0 1 3112.04541015625 538)">80%</text>
		</g>
		<g>
			<text fill="#595959" font-family="Verdana,Open Sans,DejaVu Sans,sans-serif" font-weight="400" font-size="41" transform="matrix(1 0 0 1 3090.2841796875 410)">100%</text>
		</g>
		<g>
			<text fill="#595959" font-family="Verdana,Open Sans,DejaVu Sans,sans-serif" font-weight="400" font-size="41" transform="matrix(1 0 0 1 3556.97119140625 1321)">Week Commencing</text>
		</g>
		<g>
			<text fill="#595959" font-family="Verdana,Open Sans,DejaVu Sans,sans-serif" font-weight="400" font-size="46" transform="matrix(6.12323e-17 -1 1 6.12323e-17 3019.73 936.7665710449219)">Requests (% of Total)</text>
		</g>
		<rect x="2918.5" y="347.5" width="1760" height="1043" stroke="#D9D9D9" stroke-width="3.4375" stroke-linejoin="round" stroke-miterlimit="10" fill="none" />
		<g>
			<path d="M3228.5 1038 3249.86 1038 3271.22 1038 3292.58 1038 3313.94 1038 3335.3 1038 3356.66 1038 3378.02 1038 3399.38 1038 3420.74 1038 3442.1 1038 3463.46 1038 3484.82 1038 3506.18 1038 3527.54 1038 3548.9 1038 3570.26 1038 3591.62 1038 3612.98 1038 3634.34 1038 3655.7 1038 3677.06 1038 3698.42 1038 3719.7799999999997 1038 3741.14 1038 3762.5 1038 3783.86 1038 3805.2200000000003 1038 3826.58 1038 3847.94 1038 3869.3 1038 3890.66 1038 3912.02 1038 3933.38 1038 3954.74 1038 3976.1 1038 3997.46 1038 4018.8199999999997 1038 4040.18 1038 4061.54 1038 4082.9 1038 4104.26 1038 4125.62 1038 4146.98 1038 4168.34 1038 4189.7 1038 4211.0599999999995 1038 4232.42 1038 4253.78 1038 4275.139999999999 1038 4296.5 1038 4296.5 512.1329612369273 4275.139999999999 512.9189284987364 4253.78 515.8919455572111 4232.42 514.7969648318594 4211.0599999999995 515.125626744456 4189.7 517.3539587629043 4168.34 517.3728872760798 4146.98 517.3795154992906 4125.62 517.3746698568546 4104.26 518.2845849198919 4082.9 518.2786881359634 4061.54 518.6674644160128 4040.18 519.0934355637311 4018.8199999999997 520.9052457535156 3997.46 521.6318852573548 3976.1 521.6184156458323 3954.74 522.2681085366032 3933.38 527.8351358448251 3912.02 527.8182060044346 3890.66 527.8171189568005 3869.3 527.8195281696414 3847.94 527.7185125063723 3826.58 528.1749639028288 3805.2200000000003 526.0738068609967 3783.86 526.0690930129186 3762.5 526.4517905907722 3741.14 526.966587562726 3719.7799999999997 527.7344479046612 3698.42 528.0922596265774 3677.06 528.3637575953018 3655.7 528.4473950245434 3634.34 528.3817437118579 3612.98 528.3209049784523 3591.62 528.6035113858115 3570.26 529.0722280244075 3548.9 529.4214956662862 3527.54 529.807429199031 3506.18 533.5058286789898 3484.82 533.4031264720519 3463.46 533.4021762961523 3442.1 533.7756525096236 3420.74 533.8956466575289 3399.38 533.9572095457534 3378.02 533.4841990448925 3356.66 533.4528010722697 3335.3 533.722746014736 3313.94 533.7853664259474 3292.58 533.8294455926118 3271.22 533.7499584959044 3249.86 533.5577242345337 3228.5 533.3794235575219 3228.5 1038Z" fill="#e62d39" opacity="0.9" />
		</g>
		<g>
			<path d="M3228.5 533.3794235575219 3249.86 533.5577242345337 3271.22 533.7499584959044 3292.58 533.8294455926118 3313.94 533.7853664259474 3335.3 533.722746014736 3356.66 533.4528010722697 3378.02 533.4841990448925 3399.38 533.9572095457534 3420.74 533.8956466575289 3442.1 533.7756525096236 3463.46 533.4021762961523 3484.82 533.4031264720519 3506.18 533.5058286789898 3527.54 529.807429199031 3548.9 529.4214956662862 3570.26 529.0722280244075 3591.62 528.6035113858115 3612.98 528.3209049784523 3634.34 528.3817437118579 3655.7 528.4473950245434 3677.06 528.3637575953018 3698.42 528.0922596265774 3719.7799999999997 527.7344479046612 3741.14 526.966587562726 3762.5 526.4517905907722 3783.86 526.0690930129186 3805.2200000000003 526.0738068609967 3826.58 528.1749639028288 3847.94 527.7185125063723 3869.3 527.8195281696414 3890.66 527.8171189568005 3912.02 527.8182060044346 3933.38 527.8351358448251 3954.74 522.2681085366032 3976.1 521.6184156458323 3997.46 521.6318852573548 4018.8199999999997 520.9052457535156 4040.18 519.0934355637311 4061.54 518.6674644160128 4082.9 518.2786881359634 4104.26 518.2845849198919 4125.62 517.3746698568546 4146.98 517.3795154992906 4168.34 517.3728872760798 4189.7 517.3539587629043 4211.0599999999995 515.125626744456 4232.42 514.7969648318594 4253.78 515.8919455572111 4275.139999999999 512.9189284987364 4296.5 512.1329612369273 4296.5 435.7373894918581 4275.139999999999 436.0183299632218 4253.78 437.1107633727561 4232.42 436.7049406114033 4211.0599999999995 436.8606414580909 4189.7 437.9222955771362 4168.34 437.9259398239807 4146.98 437.9087165382534 4125.62 437.90716134158686 4104.26 438.3816771158473 4082.9 438.3811488943986 4061.54 438.6583696725575 4040.18 438.939493870515 4018.8199999999997 439.76778884064066 3997.46 440.12172845279287 3976.1 440.1025942817036 3954.74 440.43245647629897 3933.38 446.0049434709254 3912.02 445.99448025532104 3890.66 445.9906298366525 3869.3 445.9850763388172 3847.94 446.00044835106377 3826.58 445.48995832347725 3805.2200000000003 440.7320769519542 3783.86 440.71015435347675 3762.5 440.79849020545294 3741.14 441.02669160650083 3719.7799999999997 441.4805241599953 3698.42 441.7146387359797 3677.06 441.87434560441795 3655.7 442.00506484989137 3634.34 442.0536403247141 3612.98 442.1004848135459 3591.62 442.29078701208255 3570.26 442.5177613549289 3548.9 442.75370380577044 3527.54 443.0039649820596 3506.18 447.2266118196212 3484.82 447.3367564362345 3463.46 447.478410212555 3442.1 447.7812344269998 3420.74 447.9735867247491 3399.38 448.11744019003095 3378.02 447.90712750570685 3356.66 447.65114758474357 3335.3 447.63691579979616 3313.94 447.6548818464415 3292.58 447.68514400974766 3271.22 447.6730658977694 3249.86 447.6266609249292 3228.5 447.6323779302626 3228.5 533.3794235575219Z" fill="#005aa6" opacity="0.9" />
		</g>
		<g>
			<path d="M3228.5 447.6323779302626 3249.86 447.6266609249292 3271.22 447.6730658977694 3292.58 447.68514400974766 3313.94 447.6548818464415 3335.3 447.63691579979616 3356.66 447.65114758474357 3378.02 447.90712750570685 3399.38 448.11744019003095 3420.74 447.9735867247491 3442.1 447.7812344269998 3463.46 447.478410212555 3484.82 447.3367564362345 3506.18 447.2266118196212 3527.54 443.0039649820596 3548.9 442.75370380577044 3570.26 442.5177613549289 3591.62 442.29078701208255 3612.98 442.1004848135459 3634.34 442.0536403247141 3655.7 442.00506484989137 3677.06 441.87434560441795 3698.42 441.7146387359797 3719.7799999999997 441.4805241599953 3741.14 441.02669160650083 3762.5 440.79849020545294 3783.86 440.71015435347675 3805.2200000000003 440.7320769519542 3826.58 445.48995832347725 3847.94 446.00044835106377 3869.3 445.9850763388172 3890.66 445.9906298366525 3912.02 445.99448025532104 3933.38 446.0049434709254 3954.74 440.43245647629897 3976.1 440.1025942817036 3997.46 440.12172845279287 4018.8199999999997 439.76778884064066 4040.18 438.939493870515 4061.54 438.6583696725575 4082.9 438.3811488943986 4104.26 438.3816771158473 4125.62 437.90716134158686 4146.98 437.9087165382534 4168.34 437.9259398239807 4189.7 437.9222955771362 4211.0599999999995 436.8606414580909 4232.42 436.7049406114033 4253.78 437.1107633727561 4275.139999999999 436.0183299632218 4296.5 435.7373894918581 4296.5 421.31851350204755 4275.139999999999 421.5482860386991 4253.78 422.28800089553556 4232.42 422.10195037941145 4211.0599999999995 422.2371615504225 4189.7 423.16774393881434 4168.34 423.167665092679 4146.98 423.14655140370303 4125.62 423.1457070138017 4104.26 423.56516266700936 4082.9 423.5655214379781 4061.54 423.8109003038261 4040.18 424.0558120196192 4018.8199999999997 424.7181344913808 3997.46 425.0236349944547 3976.1 425.0035344441698 3954.74 425.28465904377634 3933.38 430.8274530925998 3912.02 430.81817356835387 3890.66 430.8139007331268 3869.3 430.8069864095142 3847.94 430.9020970833825 3826.58 430.23142599790555 3805.2200000000003 425.0017650883845 3783.86 424.9767523660499 3762.5 425.0257701995382 3741.14 425.20583580775155 3719.7799999999997 425.4986687976815 3698.42 425.6867840212037 3677.06 425.8119685721377 3655.7 425.9104888133743 3634.34 425.92679886960804 3612.98 425.94362826788443 3591.62 426.1140510532148 3570.26 426.3120783472338 3548.9 426.5518003809951 3527.54 426.81320471249694 3506.18 431.1686011749783 3484.82 431.3401421096995 3463.46 431.5247092372164 3442.1 431.81676347027957 3420.74 431.99440912392726 3399.38 432.1329946808099 3378.02 432.00359297169024 3356.66 431.84731630596053 3335.3 431.8659139096981 3313.94 431.93242137634724 3292.58 431.9599475077045 3271.22 431.9558731937295 3249.86 431.9405589448202 3228.5 431.96727576259724 3228.5 447.6323779302626Z" fill="#55c0e9" opacity="0.9" />
		</g>
		<g>
			<path d="M3228.5 431.96727576259724 3249.86 431.9405589448202 3271.22 431.9558731937295 3292.58 431.9599475077045 3313.94 431.93242137634724 3335.3 431.8659139096981 3356.66 431.84731630596053 3378.02 432.00359297169024 3399.38 432.1329946808099 3420.74 431.99440912392726 3442.1 431.81676347027957 3463.46 431.5247092372164 3484.82 431.3401421096995 3506.18 431.1686011749783 3527.54 426.81320471249694 3548.9 426.5518003809951 3570.26 426.3120783472338 3591.62 426.1140510532148 3612.98 425.94362826788443 3634.34 425.92679886960804 3655.7 425.9104888133743 3677.06 425.8119685721377 3698.42 425.6867840212037 3719.7799999999997 425.4986687976815 3741.14 425.20583580775155 3762.5 425.0257701995382 3783.86 424.9767523660499 3805.2200000000003 425.0017650883845 3826.58 430.23142599790555 3847.94 430.9020970833825 3869.3 430.8069864095142 3890.66 430.8139007331268 3912.02 430.81817356835387 3933.38 430.8274530925998 3954.74 425.28465904377634 3976.1 425.0035344441698 3997.46 425.0236349944547 4018.8199999999997 424.7181344913808 4040.18 424.0558120196192 4061.54 423.8109003038261 4082.9 423.5655214379781 4104.26 423.56516266700936 4125.62 423.1457070138017 4146.98 423.14655140370303 4168.34 423.167665092679 4189.7 423.16774393881434 4211.0599999999995 422.2371615504225 4232.42 422.10195037941145 4253.78 422.28800089553556 4275.139999999999 421.5482860386991 4296.5 421.31851350204755 4296.5 409.60566872011515 4275.139999999999 409.72296665824126 4253.78 410.10948315685346 4232.42 410.00098369930805 4211.0599999999995 410.02158135972263 4189.7 410.3831921847201 4168.34 410.3816258742522 4146.98 410.3693732840644 4125.62 410.36817686183286 4104.26 410.49749865569987 4082.9 410.49874026393246 4061.54 410.5976679252191 4040.18 410.7016436985356 4018.8199999999997 410.9789161674267 3997.46 411.1035757536376 3976.1 411.0839891917173 3954.74 411.22347657579 3933.38 416.32051328878225 3912.02 416.3159617889731 3890.66 416.31921689377526 3869.3 416.31736632943614 3847.94 416.3210682719641 3826.58 415.85243189703715 3805.2200000000003 410.86025631578275 3783.86 410.8513168557256 3762.5 410.8010080993925 3741.14 410.8532595598375 3719.7799999999997 410.9689719408518 3698.42 411.04822058755076 3677.06 411.09796238059005 3655.7 411.13309600464333 3634.34 411.08525540240214 3612.98 411.0502804931489 3591.62 411.15507042479464 3570.26 411.2715831935364 3548.9 411.39453051492376 3527.54 411.52533019336687 3506.18 415.89173436048446 3484.82 415.95861191477786 3463.46 416.055066900616 3442.1 416.2345639289736 3420.74 416.4071449754411 3399.38 416.47817812627426 3378.02 416.34836086389726 3356.66 416.1564242259188 3335.3 416.1235996870702 3313.94 416.0562889706207 3292.58 416.0954395000898 3271.22 416.0465069983401 3249.86 416.000160121671 3228.5 416.0062420628137 3228.5 431.96727576259724Z" fill="#f6a118" opacity="0.9" />
		</g>
		<g>
			<path d="M3228.5 416.0062420628137 3249.86 416.000160121671 3271.22 416.0465069983401 3292.58 416.0954395000898 3313.94 416.0562889706207 3335.3 416.1235996870702 3356.66 416.1564242259188 3378.02 416.34836086389726 3399.38 416.47817812627426 3420.74 416.4071449754411 3442.1 416.2345639289736 3463.46 416.055066900616 3484.82 415.95861191477786 3506.18 415.89173436048446 3527.54 411.52533019336687 3548.9 411.39453051492376 3570.26 411.2715831935364 3591.62 411.15507042479464 3612.98 411.0502804931489 3634.34 411.08525540240214 3655.7 411.13309600464333 3677.06 411.09796238059005 3698.42 411.04822058755076 3719.7799999999997 410.9689719408518 3741.14 410.8532595598375 3762.5 410.8010080993925 3783.86 410.8513168557256 3805.2200000000003 410.86025631578275 3826.58 415.85243189703715 3847.94 416.3210682719641 3869.3 416.31736632943614 3890.66 416.31921689377526 3912.02 416.3159617889731 3933.38 416.32051328878225 3954.74 411.22347657579 3976.1 411.0839891917173 3997.46 411.1035757536376 4018.8199999999997 410.9789161674267 4040.18 410.7016436985356 4061.54 410.5976679252191 4082.9 410.49874026393246 4104.26 410.49749865569987 4125.62 410.36817686183286 4146.98 410.3693732840644 4168.34 410.3816258742522 4189.7 410.3831921847201 4211.0599999999995 410.02158135972263 4232.42 410.00098369930805 4253.78 410.10948315685346 4275.139999999999 409.72296665824126 4296.5 409.60566872011515 4296.5 403.01566327837304 4275.139999999999 403.0312697625879 4253.78 403.17379003690496 4232.42 403.039123205232 4211.0599999999995 403.0276937585125 4189.7 402.88697047759695 4168.34 402.8853442705775 4146.98 402.8987404525652 4125.62 402.9002345633593 4104.26 402.80439160515203 4082.9 402.8071737793706 4061.54 402.7885058788081 4040.18 402.75682438501997 4018.8199999999997 402.64364301985916 3997.46 402.6213127942401 3976.1 402.6374941256268 3954.74 402.6382934643876 3933.38 407.18303418872716 3912.02 407.1809148990988 3890.66 407.1872998554764 3869.3 407.1917111103271 3847.94 407.1621562125779 3826.58 406.9309868112197 3805.2200000000003 402.3499262788061 3783.86 402.3497550933614 3762.5 402.31710391583925 3741.14 402.31377839166817 3719.7799999999997 402.32705082967294 3698.42 402.3105155472352 3677.06 402.3328782432905 3655.7 402.29313148871324 3634.34 402.27347913416367 3612.98 402.24951221526595 3591.62 402.264400535425 3570.26 402.2771754039698 3548.9 402.3026796088189 3527.54 402.31237144781545 3506.18 406.6903311154683 3484.82 406.6504534424193 3463.46 406.63653513437157 3442.1 406.73881659701254 3420.74 406.7913155812626 3399.38 406.7895314471883 3378.02 406.7538978821639 3356.66 406.6419996355151 3335.3 406.66475151485594 3313.94 406.64954838762975 3292.58 406.6900606081659 3271.22 406.67423043388266 3249.86 406.6442240275461 3228.5 406.6769627823681 3228.5 416.0062420628137Z" fill="#fdd5a4" opacity="0.9" />
		</g>
		<g>
			<path d="M3228.5 406.6769627823681 3249.86 406.6442240275461 3271.22 406.67423043388266 3292.58 406.6900606081659 3313.94 406.64954838762975 3335.3 406.66475151485594 3356.66 406.6419996355151 3378.02 406.7538978821639 3399.38 406.7895314471883 3420.74 406.7913155812626 3442.1 406.73881659701254 3463.46 406.63653513437157 3484.82 406.6504534424193 3506.18 406.6903311154683 3527.54 402.31237144781545 3548.9 402.3026796088189 3570.26 402.2771754039698 3591.62 402.264400535425 3612.98 402.24951221526595 3634.34 402.27347913416367 3655.7 402.29313148871324 3677.06 402.3328782432905 3698.42 402.3105155472352 3719.7799999999997 402.32705082967294 3741.14 402.31377839166817 3762.5 402.31710391583925 3783.86 402.3497550933614 3805.2200000000003 402.3499262788061 3826.58 406.9309868112197 3847.94 407.1621562125779 3869.3 407.1917111103271 3890.66 407.1872998554764 3912.02 407.1809148990988 3933.38 407.18303418872716 3954.74 402.6382934643876 3976.1 402.6374941256268 3997.46 402.6213127942401 4018.8199999999997 402.64364301985916 4040.18 402.75682438501997 4061.54 402.7885058788081 4082.9 402.8071737793706 4104.26 402.80439160515203 4125.62 402.9002345633593 4146.98 402.8987404525652 4168.34 402.8853442705775 4189.7 402.88697047759695 4211.0599999999995 403.0276937585125 4232.42 403.039123205232 4253.78 403.17379003690496 4275.139999999999 403.0312697625879 4296.5 403.01566327837304 4296.5 397.99999999999994 4275.139999999999 398.00000000000006 4253.78 397.99999999999994 4232.42 398 4211.0599999999995 398 4189.7 397.9999999999999 4168.34 398.00000000000006 4146.98 398.0000000000001 4125.62 398.00000000000006 4104.26 398 4082.9 397.99999999999994 4061.54 398 4040.18 398 4018.8199999999997 398 3997.46 397.99999999999994 3976.1 398.00000000000006 3954.74 397.99999999999994 3933.38 397.9999999999999 3912.02 398.0000000000001 3890.66 397.99999999999994 3869.3 398 3847.94 398 3826.58 398 3805.2200000000003 398 3783.86 398 3762.5 398.00000000000006 3741.14 398 3719.7799999999997 398.0000000000001 3698.42 398.0000000000001 3677.06 398 3655.7 398 3634.34 398.00000000000006 3612.98 398.0000000000001 3591.62 398 3570.26 397.99999999999994 3548.9 398 3527.54 397.99999999999994 3506.18 398 3484.82 398 3463.46 398 3442.1 398.0000000000001 3420.74 398.00000000000006 3399.38 398 3378.02 398 3356.66 398 3335.3 398 3313.94 397.99999999999994 3292.58 398 3271.22 398.0000000000001 3249.86 398.00000000000006 3228.5 398 3228.5 406.6769627823681Z" fill="#393d41" opacity="0.9" />
		</g>
		<g>
			<rect x="4372" y="431" width="22.9995" height="23" fill="#e62d39" />
		</g>
		<g>
			<text fill="#595959" font-family="Verdana,Open Sans,DejaVu Sans,sans-serif" font-weight="400" font-size="41" transform="matrix(1 0 0 1 4404.56 454)">Smartphone</text>
		</g>
		<g>
			<rect x="4372" y="508" width="22.9995" height="23" fill="#005aa6" />
		</g>
		<g>
			<text fill="#595959" font-family="Verdana,Open Sans,DejaVu Sans,sans-serif" font-weight="400" font-size="41" transform="matrix(1 0 0 1 4404.56 531)">Desktop</text>
		</g>
		<g>
			<rect x="4372" y="585" width="22.9995" height="23" fill="#55c0e9" />
		</g>
		<g>
			<text fill="#595959" font-family="Verdana,Open Sans,DejaVu Sans,sans-serif" font-weight="400" font-size="41" transform="matrix(1 0 0 1 4404.56 608)">Other</text>
		</g>
		<g>
			<rect x="4372" y="662" width="22.9995" height="23" fill="#f6a118" />
		</g>
		<g>
			<text fill="#595959" font-family="Verdana,Open Sans,DejaVu Sans,sans-serif" font-weight="400" font-size="41" transform="matrix(1 0 0 1 4404.56 685)">Tablet</text>
		</g>
		<g>
			<rect x="4372" y="739" width="22.9995" height="23" fill="#fdd5a4" />
		</g>
		<g>
			<text fill="#595959" font-family="Verdana,Open Sans,DejaVu Sans,sans-serif" font-weight="400" font-size="41" transform="matrix(1 0 0 1 4404.56 762)">Tv</text>
		</g>
		<g>
			<rect x="4372" y="816" width="22.9995" height="23" fill="#393d41" />
		</g>
		<g>
			<text fill="#595959" font-family="Verdana,Open Sans,DejaVu Sans,sans-serif" font-weight="400" font-size="41" transform="matrix(1 0 0 1 4404.56 839)">Unclassified</text>
		</g>
	</g>
</svg>
