<svg width="1763" height="1046"
    xmlns="http://www.w3.org/2000/svg"
	xmlns:xlink="http://www.w3.org/1999/xlink" xml:space="preserve" overflow="hidden">
	<defs>
		<clipPath id="clip0">
			<rect x="2917" y="346" width="1763" height="1046"/>
		</clipPath>
	</defs>
	<g clip-path="url(#clip0)" transform="translate(-2917 -346)">
		<rect x="2918" y="347" width="1760" height="1043" fill="#FFFFFF" />
		<g>
			<path d="
			M3228.5 974.532 4296.5 974.532
			M3228.5 910.53 4296.5 910.53
			M3228.5 846.528 4296.5 846.528
			M3228.5 781.526 4296.5 781.526
			M3228.5 717.524 4296.5 717.524
			M3228.5 653.522 4296.5 653.522
			M3228.5 589.52 4296.5 589.52
			M3228.5 525.517 4296.5 525.517
			M3228.5 461.515 4296.5 461.515
			M3228.5 397.5 4296.5 397.5" stroke="#D9D9D9" stroke-width="3.4375" stroke-linejoin="round" stroke-miterlimit="10" fill="none" />
		</g>
		<g>
			<path d="M 1038.5 4296.5 1038.5" stroke="#D9D9D9" stroke-width="3.4375" stroke-linejoin="round" stroke-miterlimit="10" fill="none" fill-rule="evenodd" />
		</g>
		<g>
			<text fill="#595959" font-family="Verdana,sans-serif" font-weight="400" font-size="41" transform="matrix(6.12323e-17 -1 1 6.12323e-17 3248 1217)">08-Apr</text>
		</g>
		<g>
			<text fill="#595959" font-family="Verdana,sans-serif" font-weight="400" font-size="41" transform="matrix(6.12323e-17 -1 1 6.12323e-17 3331.764705882353 1228)">06-May</text>
		</g>
		<g>
			<text fill="#595959" font-family="Verdana,sans-serif" font-weight="400" font-size="41" transform="matrix(6.12323e-17 -1 1 6.12323e-17 3412.029411764706 1211)">03-Jun</text>
		</g>
		<g>
			<text fill="#595959" font-family="Verdana,sans-serif" font-weight="400" font-size="41" transform="matrix(6.12323e-17 -1 1 6.12323e-17 3495.794117647059 1197)">01-Jul</text>
		</g>
		<g>
			<text fill="#595959" font-family="Verdana,sans-serif" font-weight="400" font-size="41" transform="matrix(6.12323e-17 -1 1 6.12323e-17 3579.5588235294117 1196)">29-Jul</text>
		</g>
		<g>
			<text fill="#595959" font-family="Verdana,sans-serif" font-weight="400" font-size="41" transform="matrix(6.12323e-17 -1 1 6.12323e-17 3666.823529411765 1221)">26-Aug</text>
		</g>
		<g>
			<text fill="#595959" font-family="Verdana,sans-serif" font-weight="400" font-size="41" transform="matrix(6.12323e-17 -1 1 6.12323e-17 3750.5882352941176 1221)">23-Sep</text>
		</g>
		<g>
			<text fill="#595959" font-family="Verdana,sans-serif" font-weight="400" font-size="41" transform="matrix(6.12323e-17 -1 1 6.12323e-17 3830.8529411764707 1215)">21-Oct</text>
		</g>
		<g>
			<text fill="#595959" font-family="Verdana,sans-serif" font-weight="400" font-size="41" transform="matrix(6.12323e-17 -1 1 6.12323e-17 3914.6176470588234 1222)">18-Nov</text>
		</g>
		<g>
			<text fill="#595959" font-family="Verdana,sans-serif" font-weight="400" font-size="41" transform="matrix(6.12323e-17 -1 1 6.12323e-17 3998.3823529411766 1222)">23-Dec</text>
		</g>
		<g>
			<text fill="#595959" font-family="Verdana,sans-serif" font-weight="400" font-size="41" transform="matrix(6.12323e-17 -1 1 6.12323e-17 4082.1470588235293 1210)">20-Jan</text>
		</g>
		<g>
			<text fill="#595959" font-family="Verdana,sans-serif" font-weight="400" font-size="41" transform="matrix(6.12323e-17 -1 1 6.12323e-17 4165.911764705882 1214)">17-Feb</text>
		</g>
		<g>
			<text fill="#595959" font-family="Verdana,sans-serif" font-weight="400" font-size="41" transform="matrix(6.12323e-17 -1 1 6.12323e-17 4249.176470588235 1221)">17-Mar</text>
		</g>
		<g>
			<text fill="#595959" font-family="Verdana,sans-serif" font-weight="400" font-size="41" transform="matrix(1 0 0 1 3167.5 1050)">0</text>
		</g>
		<g>
			<text fill="#595959" font-family="Verdana,sans-serif" font-weight="400" font-size="41" transform="matrix(1 0 0 1 3050.5 922)">17,866</text>
		</g>
		<g>
			<text fill="#595959" font-family="Verdana,sans-serif" font-weight="400" font-size="41" transform="matrix(1 0 0 1 3048.5 794)">35,732</text>
		</g>
		<g>
			<text fill="#595959" font-family="Verdana,sans-serif" font-weight="400" font-size="41" transform="matrix(1 0 0 1 3048.5 666)">53,598</text>
		</g>
		<g>
			<text fill="#595959" font-family="Verdana,sans-serif" font-weight="400" font-size="41" transform="matrix(1 0 0 1 3047.5 538)">71,464</text>
		</g>
		<g>
			<text fill="#595959" font-family="Verdana,sans-serif" font-weight="400" font-size="41" transform="matrix(1 0 0 1 3047.5 410)">89,330</text>
		</g>
		<g>
			<text fill="#595959" font-family="Verdana,sans-serif" font-weight="400" font-size="41" transform="matrix(1 0 0 1 3544.5 1321)">Week Commencing</text>
		</g>
		<g>
			<text fill="#595959" font-family="Verdana,sans-serif" font-weight="400" font-size="46" transform="matrix(6.12323e-17 -1 1 6.12323e-17 3019.73 1048.25)">Number of Hardware Profiles</text>
		</g>
		<rect x="2918.5" y="347.5" width="1760" height="1043" stroke="#D9D9D9" stroke-width="3.4375" stroke-linejoin="round" stroke-miterlimit="10" fill="none" />
		<g>
			<path d="M3228.5 1038 3249.4411764705883 1038 3270.3823529411766 1038 3291.323529411765 1038 3312.264705882353 1038 3333.205882352941 1038 3354.1470588235293 1038 3375.0882352941176 1038 3396.029411764706 1038 3416.970588235294 1038 3437.9117647058824 1038 3458.8529411764707 1038 3479.794117647059 1038 3500.735294117647 1038 3521.676470588235 1038 3542.6176470588234 1038 3563.5588235294117 1038 3584.5 1038 3605.4411764705883 1038 3626.3823529411766 1038 3647.323529411765 1038 3668.264705882353 1038 3689.205882352941 1038 3710.1470588235293 1038 3731.0882352941176 1038 3752.029411764706 1038 3772.970588235294 1038 3793.9117647058824 1038 3814.8529411764707 1038 3835.7941176470586 1038 3856.735294117647 1038 3877.676470588235 1038 3898.6176470588234 1038 3919.5588235294117 1038 3940.5 1038 3961.4411764705883 1038 3982.3823529411766 1038 4003.323529411765 1038 4024.264705882353 1038 4045.2058823529414 1038 4066.1470588235293 1038 4087.0882352941176 1038 4108.029411764706 1038 4128.970588235294 1038 4149.911764705882 1038 4170.85294117647 1038 4191.794117647059 1038 4212.735294117647 1038 4233.676470588235 1038 4254.617647058823 1038 4275.558823529412 1038 4296.5 1038 4296.5 691.5058770849658 4275.558823529412 691.8139482816523 4254.617647058823 692.1506772640771 4233.676470588235 692.5447218179784 4212.735294117647 692.8957796932722 4191.794117647059 693.2611664614351 4170.85294117647 693.562073211687 4149.911764705882 693.9632822120229 4128.970588235294 694.3286689801859 4108.029411764706 694.7298779805217 4087.0882352941176 695.0809358558156 4066.1470588235293 695.3890070525019 4045.2058823529414 695.6827493563193 4024.264705882353 695.9621627672675 4003.323529411765 696.1627672674354 3982.3823529411766 696.3490428747341 3961.4411764705883 696.6284562856823 3940.5 697.015336393149 3919.5588235294117 697.4022165006156 3898.6176470588234 697.7246165901713 3877.676470588235 697.9897011082503 3856.735294117647 698.2189633941565 3835.7941176470586 698.49121235867 3814.8529411764707 698.842270233964 3793.9117647058824 699.2004925556923 3772.970588235294 699.5300570916825 3752.029411764706 699.8237993954999 3731.0882352941176 700.0100750027987 3710.1470588235293 700.4041195566999 3689.205882352941 700.8841374678159 3668.264705882353 701.1563864323296 3647.323529411765 701.3569909324974 3626.3823529411766 701.6077465577074 3605.4411764705883 701.9158177543939 3584.5 702.2023956117766 3563.5588235294117 702.4316578976827 3542.6176470588234 702.8042091122803 3521.676470588235 703.1122803089668 3500.735294117647 703.4418448449569 3479.794117647059 703.7427515952088 3458.8529411764707 704.0579872383298 3437.9117647058824 704.3230717564088 3416.970588235294 704.351729542147 3396.029411764706 704.4806895779693 3375.0882352941176 704.5594984887496 3354.1470588235293 704.8747341318706 3333.205882352941 705.1039964177768 3312.264705882353 705.2616142393373 3291.323529411765 705.5553565431546 3270.3823529411766 705.9207433113177 3249.4411764705883 706.3577745438263 3228.5 706.7159968655546 3228.5 1038Z" fill="#e62d39" opacity="0.9" />
		</g>
		<g>
			<path d="M3228.5 706.7159968655546 3249.4411764705883 706.3577745438263 3270.3823529411766 705.9207433113177 3291.323529411765 705.5553565431546 3312.264705882353 705.2616142393373 3333.205882352941 705.1039964177768 3354.1470588235293 704.8747341318706 3375.0882352941176 704.5594984887496 3396.029411764706 704.4806895779693 3416.970588235294 704.351729542147 3437.9117647058824 704.3230717564088 3458.8529411764707 704.0579872383298 3479.794117647059 703.7427515952088 3500.735294117647 703.4418448449569 3521.676470588235 703.1122803089668 3542.6176470588234 702.8042091122803 3563.5588235294117 702.4316578976827 3584.5 702.2023956117766 3605.4411764705883 701.9158177543939 3626.3823529411766 701.6077465577074 3647.323529411765 701.3569909324974 3668.264705882353 701.1563864323296 3689.205882352941 700.8841374678159 3710.1470588235293 700.4041195566999 3731.0882352941176 700.0100750027987 3752.029411764706 699.8237993954999 3772.970588235294 699.5300570916825 3793.9117647058824 699.2004925556923 3814.8529411764707 698.842270233964 3835.7941176470586 698.49121235867 3856.735294117647 698.2189633941565 3877.676470588235 697.9897011082503 3898.6176470588234 697.7246165901713 3919.5588235294117 697.4022165006156 3940.5 697.015336393149 3961.4411764705883 696.6284562856823 3982.3823529411766 696.3490428747341 4003.323529411765 696.1627672674354 4024.264705882353 695.9621627672675 4045.2058823529414 695.6827493563193 4066.1470588235293 695.3890070525019 4087.0882352941176 695.0809358558156 4108.029411764706 694.7298779805217 4128.970588235294 694.3286689801859 4149.911764705882 693.9632822120229 4170.85294117647 693.562073211687 4191.794117647059 693.2611664614351 4212.735294117647 692.8957796932722 4233.676470588235 692.5447218179784 4254.617647058823 692.1506772640771 4275.558823529412 691.8139482816523 4296.5 691.5058770849658 4296.5 525.3623642673234 4275.558823529412 525.8423821784395 4254.617647058823 526.365386768163 4233.676470588235 526.881226911452 4212.735294117647 527.3397514832643 4191.794117647059 527.8054405015112 4170.85294117647 528.2066495018471 4149.911764705882 528.6795029665287 4128.970588235294 529.188178663383 4108.029411764706 529.6968543602374 4087.0882352941176 530.1123922534424 4066.1470588235293 530.5780812716893 4045.2058823529414 531.0366058435017 4024.264705882353 531.4736370760104 4003.323529411765 531.7172282547856 3982.3823529411766 531.9321616478227 3961.4411764705883 532.3333706481585 3940.5 532.7632374342327 3919.5588235294117 533.3435575954326 3898.6176470588234 533.7519310422031 3877.676470588235 534.167468935408 3856.735294117647 534.5471845964402 3835.7941176470586 535.0343669539908 3814.8529411764707 535.5072204186724 3793.9117647058824 535.9514160976155 3772.970588235294 536.4171051158625 3752.029411764706 536.8613007948059 3731.0882352941176 537.1765364379269 3710.1470588235293 537.7067054740849 3689.205882352941 538.251203403112 3668.264705882353 538.6953990820552 3647.323529411765 539.0034702787417 3626.3823529411766 539.3473637076011 3605.4411764705883 539.7772304936752 3584.5 540.1497817082727 3563.5588235294117 540.5294973693049 3542.6176470588234 540.9880219411173 3521.676470588235 541.4250531736259 3500.735294117647 541.8262621739617 3479.794117647059 542.2561289600359 3458.8529411764707 542.4782267995074 3437.9117647058824 542.8149557819322 3416.970588235294 542.8651069069741 3396.029411764706 543.0298891749692 3375.0882352941176 543.115862532184 3354.1470588235293 543.5672226575618 3333.205882352941 544.0042538900706 3312.264705882353 544.376805104668 3291.323529411765 544.8353296764806 3270.3823529411766 545.3869920519423 3249.4411764705883 546.0317922310535 3228.5 546.569125713646 3228.5 706.7159968655546Z" fill="#f6a118" opacity="0.9" />
		</g>
		<g>
			<path d="M3228.5 546.569125713646 3249.4411764705883 546.0317922310535 3270.3823529411766 545.3869920519423 3291.323529411765 544.8353296764806 3312.264705882353 544.376805104668 3333.205882352941 544.0042538900706 3354.1470588235293 543.5672226575618 3375.0882352941176 543.115862532184 3396.029411764706 543.0298891749692 3416.970588235294 542.8651069069741 3437.9117647058824 542.8149557819322 3458.8529411764707 542.4782267995074 3479.794117647059 542.2561289600359 3500.735294117647 541.8262621739617 3521.676470588235 541.4250531736259 3542.6176470588234 540.9880219411173 3563.5588235294117 540.5294973693049 3584.5 540.1497817082727 3605.4411764705883 539.7772304936752 3626.3823529411766 539.3473637076011 3647.323529411765 539.0034702787417 3668.264705882353 538.6953990820552 3689.205882352941 538.251203403112 3710.1470588235293 537.7067054740849 3731.0882352941176 537.1765364379269 3752.029411764706 536.8613007948059 3772.970588235294 536.4171051158625 3793.9117647058824 535.9514160976155 3814.8529411764707 535.5072204186724 3835.7941176470586 535.0343669539908 3856.735294117647 534.5471845964402 3877.676470588235 534.167468935408 3898.6176470588234 533.7519310422031 3919.5588235294117 533.3435575954326 3940.5 532.7632374342327 3961.4411764705883 532.3333706481585 3982.3823529411766 531.9321616478227 4003.323529411765 531.7172282547856 4024.264705882353 531.4736370760104 4045.2058823529414 531.0366058435017 4066.1470588235293 530.5780812716893 4087.0882352941176 530.1123922534424 4108.029411764706 529.6968543602374 4128.970588235294 529.188178663383 4149.911764705882 528.6795029665287 4170.85294117647 528.2066495018471 4191.794117647059 527.8054405015112 4212.735294117647 527.3397514832643 4233.676470588235 526.881226911452 4254.617647058823 526.365386768163 4275.558823529412 525.8423821784395 4296.5 525.3623642673234 4296.5 449.11116086421134 4275.558823529412 449.61267211463115 4254.617647058823 450.14284115078925 4233.676470588235 450.68017463338197 4212.735294117647 451.17452143736705 4191.794117647059 451.6617037949176 4170.85294117647 452.1202283667301 4149.911764705882 452.6360685100192 4128.970588235294 453.15190865330806 4108.029411764706 453.6749132430315 4087.0882352941176 454.10478002910565 4066.1470588235293 454.6206201723945 4045.2058823529414 455.12213142281433 4024.264705882353 455.60214933393047 4003.323529411765 455.85290495914023 3982.3823529411766 456.08216724504643 3961.4411764705883 456.5263629239897 3940.5 456.970558602933 3919.5588235294117 457.6081943356094 3898.6176470588234 458.0308966752491 3877.676470588235 458.4822568006269 3856.735294117647 458.94794581887385 3835.7941176470586 459.4637859621628 3814.8529411764707 459.9724616590172 3793.9117647058824 460.44531512369855 3772.970588235294 460.9539908205529 3752.029411764706 461.4555020709729 3731.0882352941176 461.8065599462667 3710.1470588235293 462.4012090003358 3689.205882352941 463.0388447330123 3668.264705882353 463.5116981976939 3647.323529411765 463.86275607298774 3626.3823529411766 464.24963618045456 3605.4411764705883 464.73681853800525 3584.5 465.15235643121014 3563.5588235294117 465.5464009851114 3542.6176470588234 466.019254449793 3521.676470588235 466.4849434680399 3500.735294117647 466.91481025411395 3479.794117647059 467.36617037949185 3458.8529411764707 467.8032016120004 3437.9117647058824 468.1542594872943 3416.970588235294 468.21157505877085 3396.029411764706 468.39068621963503 3375.0882352941176 468.4838240232844 3354.1470588235293 468.96384193440053 3333.205882352941 469.44385984551667 3312.264705882353 469.84506884585244 3291.323529411765 470.3394156498378 3270.3823529411766 470.94122915034154 3249.4411764705883 471.62185156162553 3228.5 472.1735139370872 3228.5 546.569125713646Z" fill="#55c0e9" opacity="0.9" />
		</g>
		<g>
			<path d="M3228.5 472.1735139370872 3249.4411764705883 471.62185156162553 3270.3823529411766 470.94122915034154 3291.323529411765 470.3394156498378 3312.264705882353 469.84506884585244 3333.205882352941 469.44385984551667 3354.1470588235293 468.96384193440053 3375.0882352941176 468.4838240232844 3396.029411764706 468.39068621963503 3416.970588235294 468.21157505877085 3437.9117647058824 468.1542594872943 3458.8529411764707 467.8032016120004 3479.794117647059 467.36617037949185 3500.735294117647 466.91481025411395 3521.676470588235 466.4849434680399 3542.6176470588234 466.019254449793 3563.5588235294117 465.5464009851114 3584.5 465.15235643121014 3605.4411764705883 464.73681853800525 3626.3823529411766 464.24963618045456 3647.323529411765 463.86275607298774 3668.264705882353 463.5116981976939 3689.205882352941 463.0388447330123 3710.1470588235293 462.4012090003358 3731.0882352941176 461.8065599462667 3752.029411764706 461.4555020709729 3772.970588235294 460.9539908205529 3793.9117647058824 460.44531512369855 3814.8529411764707 459.9724616590172 3835.7941176470586 459.4637859621628 3856.735294117647 458.94794581887385 3877.676470588235 458.4822568006269 3898.6176470588234 458.0308966752491 3919.5588235294117 457.6081943356094 3940.5 456.970558602933 3961.4411764705883 456.5263629239897 3982.3823529411766 456.08216724504643 4003.323529411765 455.85290495914023 4024.264705882353 455.60214933393047 4045.2058823529414 455.12213142281433 4066.1470588235293 454.6206201723945 4087.0882352941176 454.10478002910565 4108.029411764706 453.6749132430315 4128.970588235294 453.15190865330806 4149.911764705882 452.6360685100192 4170.85294117647 452.1202283667301 4191.794117647059 451.6617037949176 4212.735294117647 451.17452143736705 4233.676470588235 450.68017463338197 4254.617647058823 450.14284115078925 4275.558823529412 449.61267211463115 4296.5 449.11116086421134 4296.5 399.33258703682975 4275.558823529412 400.0275383409829 4254.617647058823 400.7081607522669 4233.676470588235 401.4317698421584 4212.735294117647 402.13388559274597 4191.794117647059 402.87898802194104 4170.85294117647 403.5882682189634 4149.911764705882 404.31187730885495 4128.970588235294 405.03548639874634 4108.029411764706 405.7447665957685 4087.0882352941176 406.3824023284452 4066.1470588235293 407.12034031120567 4045.2058823529414 407.82962050822795 4024.264705882353 408.55322959811946 4003.323529411765 408.8469719019366 3982.3823529411766 409.1550430986231 3961.4411764705883 409.8428299563417 3940.5 410.55211015336397 3919.5588235294117 411.7915593865442 3898.6176470588234 412.45785290495917 3877.676470588235 413.13847531624316 3856.735294117647 413.8405910668309 3835.7941176470586 414.54270681741855 3814.8529411764707 415.2591514608755 3793.9117647058824 415.961267211463 3772.970588235294 416.6633829620507 3752.029411764706 417.35833426620405 3731.0882352941176 417.89566774879665 3710.1470588235293 418.79838799955223 3689.205882352941 419.6079704466583 3668.264705882353 420.3244150901152 3647.323529411765 420.876077465577 3626.3823529411766 421.54953543042654 3605.4411764705883 422.2301578417106 3584.5 422.90361580655997 3563.5588235294117 423.58423821784396 3542.6176470588234 424.2720250755626 3521.676470588235 424.98130527258485 3500.735294117647 425.6834210231725 3479.794117647059 426.407030113064 3458.8529411764707 427.0876525243479 3437.9117647058824 427.76827493563195 3416.970588235294 428.4417329004814 3396.029411764706 429.08653307959247 3375.0882352941176 429.7313332587036 3354.1470588235293 430.46927124146424 3333.205882352941 431.0495914026643 3312.264705882353 431.5869248852569 3291.323529411765 432.21739617149905 3270.3823529411766 432.96966304712873 3249.4411764705883 433.7004365834547 3228.5 434.36673010186945 3228.5 472.1735139370872Z" fill="#fdd5a4" opacity="0.9" />
		</g>
		<g>
			<path d="M3228.5 434.36673010186945 3249.4411764705883 433.7004365834547 3270.3823529411766 432.96966304712873 3291.323529411765 432.21739617149905 3312.264705882353 431.5869248852569 3333.205882352941 431.0495914026643 3354.1470588235293 430.46927124146424 3375.0882352941176 429.7313332587036 3396.029411764706 429.08653307959247 3416.970588235294 428.4417329004814 3437.9117647058824 427.76827493563195 3458.8529411764707 427.0876525243479 3479.794117647059 426.407030113064 3500.735294117647 425.6834210231725 3521.676470588235 424.98130527258485 3542.6176470588234 424.2720250755626 3563.5588235294117 423.58423821784396 3584.5 422.90361580655997 3605.4411764705883 422.2301578417106 3626.3823529411766 421.54953543042654 3647.323529411765 420.876077465577 3668.264705882353 420.3244150901152 3689.205882352941 419.6079704466583 3710.1470588235293 418.79838799955223 3731.0882352941176 417.89566774879665 3752.029411764706 417.35833426620405 3772.970588235294 416.6633829620507 3793.9117647058824 415.961267211463 3814.8529411764707 415.2591514608755 3835.7941176470586 414.54270681741855 3856.735294117647 413.8405910668309 3877.676470588235 413.13847531624316 3898.6176470588234 412.45785290495917 3919.5588235294117 411.7915593865442 3940.5 410.55211015336397 3961.4411764705883 409.8428299563417 3982.3823529411766 409.1550430986231 4003.323529411765 408.8469719019366 4024.264705882353 408.55322959811946 4045.2058823529414 407.82962050822795 4066.1470588235293 407.12034031120567 4087.0882352941176 406.3824023284452 4108.029411764706 405.7447665957685 4128.970588235294 405.03548639874634 4149.911764705882 404.31187730885495 4170.85294117647 403.5882682189634 4191.794117647059 402.87898802194104 4212.735294117647 402.13388559274597 4233.676470588235 401.4317698421584 4254.617647058823 400.7081607522669 4275.558823529412 400.0275383409829 4296.5 399.33258703682975 4296.5 398 4275.558823529412 398.69495130415316 4254.617647058823 399.37557371543716 4233.676470588235 400.09918280532867 4212.735294117647 400.8012985559162 4191.794117647059 401.5464009851113 4170.85294117647 402.2556811821336 4149.911764705882 402.9792902720252 4128.970588235294 403.7028993619166 4108.029411764706 404.41217955893876 4087.0882352941176 405.04981529161546 4066.1470588235293 405.7877532743759 4045.2058823529414 406.4970334713982 4024.264705882353 407.2206425612897 4003.323529411765 407.5143848651069 3982.3823529411766 407.82245606179333 3961.4411764705883 408.51024291951194 3940.5 409.2195231165342 3919.5588235294117 410.45897234971443 3898.6176470588234 411.1252658681294 3877.676470588235 411.8058882794134 3856.735294117647 412.50800403000113 3835.7941176470586 413.21728422702336 3814.8529411764707 413.9408933169149 3793.9117647058824 414.6430090675024 3772.970588235294 415.34512481809014 3752.029411764706 416.0400761222435 3731.0882352941176 416.5774096048361 3710.1470588235293 417.48012985559166 3689.205882352941 418.28971230269775 3668.264705882353 419.00615694615465 3647.323529411765 419.5578193216164 3626.3823529411766 420.23127728646597 3605.4411764705883 420.91189969775 3584.5 421.5853576625994 3563.5588235294117 422.2659800738834 3542.6176470588234 422.95376693160205 3521.676470588235 423.66304712862427 3500.735294117647 424.36516287921194 3479.794117647059 425.08877196910345 3458.8529411764707 425.7693943803873 3437.9117647058824 426.4500167916714 3416.970588235294 427.1234747565208 3396.029411764706 427.7682749356319 3375.0882352941176 428.41307511474304 3354.1470588235293 429.15101309750366 3333.205882352941 429.7313332587037 3312.264705882353 430.26866674129633 3291.323529411765 430.89913802753847 3270.3823529411766 431.65140490316816 3249.4411764705883 432.3821784394941 3228.5 433.062800850778 3228.5 434.36673010186945Z" fill="#005aa6" opacity="0.9" />
		</g>
		<g>
			<rect x="4372" y="431" width="22.9995" height="23" fill="#e62d39" />
		</g>
		<g>
			<text fill="#595959" font-family="Verdana,sans-serif" font-weight="400" font-size="41" transform="matrix(1 0 0 1 4404.56 454)">Smartphone</text>
		</g>
		<g>
			<rect x="4372" y="508" width="22.9995" height="23" fill="#f6a118" />
		</g>
		<g>
			<text fill="#595959" font-family="Verdana,sans-serif" font-weight="400" font-size="41" transform="matrix(1 0 0 1 4404.56 531)">Tablet</text>
		</g>
		<g>
			<rect x="4372" y="585" width="22.9995" height="23" fill="#55c0e9" />
		</g>
		<g>
			<text fill="#595959" font-family="Verdana,sans-serif" font-weight="400" font-size="41" transform="matrix(1 0 0 1 4404.56 608)">Other</text>
		</g>
		<g>
			<rect x="4372" y="662" width="22.9995" height="23" fill="#fdd5a4" />
		</g>
		<g>
			<text fill="#595959" font-family="Verdana,sans-serif" font-weight="400" font-size="41" transform="matrix(1 0 0 1 4404.56 685)">Tv</text>
		</g>
		<g>
			<rect x="4372" y="739" width="22.9995" height="23" fill="#005aa6" />
		</g>
		<g>
			<text fill="#595959" font-family="Verdana,sans-serif" font-weight="400" font-size="41" transform="matrix(1 0 0 1 4404.56 762)">Desktop</text>
		</g>
	</g>
</svg>
