<svg width="1763" height="1046"
    xmlns="http://www.w3.org/2000/svg"
	xmlns:xlink="http://www.w3.org/1999/xlink" xml:space="preserve" overflow="hidden">
	<defs>
		<clipPath id="clip0">
			<rect x="2917" y="346" width="1763" height="1046"/>
		</clipPath>
	</defs>
	<g clip-path="url(#clip0)" transform="translate(-2917 -346)">
		<rect x="2918" y="347" width="1760" height="1043" fill="#FFFFFF" />
		<g>
			<path d="
			M3228.5 974.532 4296.5 974.532
			M3228.5 910.53 4296.5 910.53
			M3228.5 846.528 4296.5 846.528
			M3228.5 781.526 4296.5 781.526
			M3228.5 717.524 4296.5 717.524
			M3228.5 653.522 4296.5 653.522
			M3228.5 589.52 4296.5 589.52
			M3228.5 525.517 4296.5 525.517
			M3228.5 461.515 4296.5 461.515
			M3228.5 397.5 4296.5 397.5" stroke="#D9D9D9" stroke-width="3.4375" stroke-linejoin="round" stroke-miterlimit="10" fill="none" />
		</g>
		<g>
			<path d="M 1038.5 4296.5 1038.5" stroke="#D9D9D9" stroke-width="3.4375" stroke-linejoin="round" stroke-miterlimit="10" fill="none" fill-rule="evenodd" />
		</g>
		<g>
			<text fill="#595959" font-family="Verdana,sans-serif" font-weight="400" font-size="41" transform="matrix(6.12323e-17 -1 1 6.12323e-17 3244.5 1217)">05-Feb</text>
		</g>
		<g>
			<text fill="#595959" font-family="Verdana,sans-serif" font-weight="400" font-size="41" transform="matrix(6.12323e-17 -1 1 6.12323e-17 3328.264705882353 1223)">04-Mar</text>
		</g>
		<g>
			<text fill="#595959" font-family="Verdana,sans-serif" font-weight="400" font-size="41" transform="matrix(6.12323e-17 -1 1 6.12323e-17 3415.529411764706 1217)">01-Apr</text>
		</g>
		<g>
			<text fill="#595959" font-family="Verdana,sans-serif" font-weight="400" font-size="41" transform="matrix(6.12323e-17 -1 1 6.12323e-17 3499.294117647059 1216)">29-Apr</text>
		</g>
		<g>
			<text fill="#595959" font-family="Verdana,sans-serif" font-weight="400" font-size="41" transform="matrix(6.12323e-17 -1 1 6.12323e-17 3583.0588235294117 1228)">27-May</text>
		</g>
		<g>
			<text fill="#595959" font-family="Verdana,sans-serif" font-weight="400" font-size="41" transform="matrix(6.12323e-17 -1 1 6.12323e-17 3663.323529411765 1211)">24-Jun</text>
		</g>
		<g>
			<text fill="#595959" font-family="Verdana,sans-serif" font-weight="400" font-size="41" transform="matrix(6.12323e-17 -1 1 6.12323e-17 3747.0882352941176 1196)">22-Jul</text>
		</g>
		<g>
			<text fill="#595959" font-family="Verdana,sans-serif" font-weight="400" font-size="41" transform="matrix(6.12323e-17 -1 1 6.12323e-17 3834.3529411764707 1218)">19-Aug</text>
		</g>
		<g>
			<text fill="#595959" font-family="Verdana,sans-serif" font-weight="400" font-size="41" transform="matrix(6.12323e-17 -1 1 6.12323e-17 3918.1176470588234 1219)">16-Sep</text>
		</g>
		<g>
			<text fill="#595959" font-family="Verdana,sans-serif" font-weight="400" font-size="41" transform="matrix(6.12323e-17 -1 1 6.12323e-17 3998.3823529411766 1213)">14-Oct</text>
		</g>
		<g>
			<text fill="#595959" font-family="Verdana,sans-serif" font-weight="400" font-size="41" transform="matrix(6.12323e-17 -1 1 6.12323e-17 4081.6470588235293 1222)">11-Nov</text>
		</g>
		<g>
			<text fill="#595959" font-family="Verdana,sans-serif" font-weight="400" font-size="41" transform="matrix(6.12323e-17 -1 1 6.12323e-17 4165.411764705882 1220)">16-Dec</text>
		</g>
		<g>
			<text fill="#595959" font-family="Verdana,sans-serif" font-weight="400" font-size="41" transform="matrix(6.12323e-17 -1 1 6.12323e-17 4249.676470588235 1207)">13-Jan</text>
		</g>
		<g>
			<text fill="#595959" font-family="Verdana,sans-serif" font-weight="400" font-size="41" transform="matrix(1 0 0 1 3123.5 1050)">0%</text>
		</g>
		<g>
			<text fill="#595959" font-family="Verdana,sans-serif" font-weight="400" font-size="41" transform="matrix(1 0 0 1 3097.5 922)">20%</text>
		</g>
		<g>
			<text fill="#595959" font-family="Verdana,sans-serif" font-weight="400" font-size="41" transform="matrix(1 0 0 1 3096.5 794)">40%</text>
		</g>
		<g>
			<text fill="#595959" font-family="Verdana,sans-serif" font-weight="400" font-size="41" transform="matrix(1 0 0 1 3097.5 666)">60%</text>
		</g>
		<g>
			<text fill="#595959" font-family="Verdana,sans-serif" font-weight="400" font-size="41" transform="matrix(1 0 0 1 3097.5 538)">80%</text>
		</g>
		<g>
			<text fill="#595959" font-family="Verdana,sans-serif" font-weight="400" font-size="41" transform="matrix(1 0 0 1 3074.5 410)">100%</text>
		</g>
		<g>
			<text fill="#595959" font-family="Verdana,sans-serif" font-weight="400" font-size="41" transform="matrix(1 0 0 1 3544.5 1321)">Week Commencing</text>
		</g>
		<g>
			<text fill="#595959" font-family="Verdana,sans-serif" font-weight="400" font-size="46" transform="matrix(6.12323e-17 -1 1 6.12323e-17 3019.73 965.25)">Requests (% of Total)</text>
		</g>
		<rect x="2918.5" y="347.5" width="1760" height="1043" stroke="#D9D9D9" stroke-width="3.4375" stroke-linejoin="round" stroke-miterlimit="10" fill="none" />
		<g>
			<path d="M3228.5 1038 3249.4411764705883 1038 3270.3823529411766 1038 3291.323529411765 1038 3312.264705882353 1038 3333.205882352941 1038 3354.1470588235293 1038 3375.0882352941176 1038 3396.029411764706 1038 3416.970588235294 1038 3437.9117647058824 1038 3458.8529411764707 1038 3479.794117647059 1038 3500.735294117647 1038 3521.676470588235 1038 3542.6176470588234 1038 3563.5588235294117 1038 3584.5 1038 3605.4411764705883 1038 3626.3823529411766 1038 3647.323529411765 1038 3668.264705882353 1038 3689.205882352941 1038 3710.1470588235293 1038 3731.0882352941176 1038 3752.029411764706 1038 3772.970588235294 1038 3793.9117647058824 1038 3814.8529411764707 1038 3835.7941176470586 1038 3856.735294117647 1038 3877.676470588235 1038 3898.6176470588234 1038 3919.5588235294117 1038 3940.5 1038 3961.4411764705883 1038 3982.3823529411766 1038 4003.323529411765 1038 4024.264705882353 1038 4045.2058823529414 1038 4066.1470588235293 1038 4087.0882352941176 1038 4108.029411764706 1038 4128.970588235294 1038 4149.911764705882 1038 4170.85294117647 1038 4191.794117647059 1038 4212.735294117647 1038 4233.676470588235 1038 4254.617647058823 1038 4275.558823529412 1038 4296.5 1038 4296.5 533.4841990448925 4275.558823529412 533.4528010722697 4254.617647058823 533.722746014736 4233.676470588235 533.7853664259474 4212.735294117647 533.8294455926118 4191.794117647059 533.7499584959044 4170.85294117647 533.5577242345337 4149.911764705882 533.3794235575219 4128.970588235294 533.1839579715512 4108.029411764706 532.7385960569093 4087.0882352941176 532.9945218339117 4066.1470588235293 533.5883597667535 4045.2058823529414 534.4892592748513 4024.264705882353 535.2648007319358 4003.323529411765 642.4592997578948 3982.3823529411766 641.7348258019537 3961.4411764705883 641.0274072878076 3940.5 640.0328656683237 3919.5588235294117 638.7439704461906 3898.6176470588234 637.5953366301156 3877.676470588235 636.388984334016 3856.735294117647 635.2830954215428 3835.7941176470586 634.2801376637599 3814.8529411764707 633.5123019251453 3793.9117647058824 632.703376074059 3772.970588235294 631.9415100696045 3752.029411764706 630.857109120077 3731.0882352941176 629.6835942752446 3710.1470588235293 628.7570391925642 3689.205882352941 627.5176878063296 3668.264705882353 626.3963136974012 3647.323529411765 625.2428890685153 3626.3823529411766 624.0667377001988 3605.4411764705883 622.80172023452 3584.5 632.4054355541638 3563.5588235294117 630.9533026623258 3542.6176470588234 630.0731822124889 3521.676470588235 629.6411395703622 3500.735294117647 629.3637077507597 3479.794117647059 629.112232069277 3458.8529411764707 628.7712194186788 3437.9117647058824 629.1405060461395 3416.970588235294 630.4544284738802 3396.029411764706 631.6183228637996 3375.0882352941176 647.4118241208081 3354.1470588235293 648.3895796632379 3333.205882352941 621.5001438018157 3312.264705882353 620.7479883324611 3291.323529411765 618.9772962489769 3270.3823529411766 616.6754829613407 3249.4411764705883 614.5117939817052 3228.5 615.2796120230914 3228.5 1038Z" fill="#e62d39" opacity="0.9" />
		</g>
		<g>
			<path d="M3228.5 615.2796120230914 3249.4411764705883 614.5117939817052 3270.3823529411766 616.6754829613407 3291.323529411765 618.9772962489769 3312.264705882353 620.7479883324611 3333.205882352941 621.5001438018157 3354.1470588235293 648.3895796632379 3375.0882352941176 647.4118241208081 3396.029411764706 631.6183228637996 3416.970588235294 630.4544284738802 3437.9117647058824 629.1405060461395 3458.8529411764707 628.7712194186788 3479.794117647059 629.112232069277 3500.735294117647 629.3637077507597 3521.676470588235 629.6411395703622 3542.6176470588234 630.0731822124889 3563.5588235294117 630.9533026623258 3584.5 632.4054355541638 3605.4411764705883 622.80172023452 3626.3823529411766 624.0667377001988 3647.323529411765 625.2428890685153 3668.264705882353 626.3963136974012 3689.205882352941 627.5176878063296 3710.1470588235293 628.7570391925642 3731.0882352941176 629.6835942752446 3752.029411764706 630.857109120077 3772.970588235294 631.9415100696045 3793.9117647058824 632.703376074059 3814.8529411764707 633.5123019251453 3835.7941176470586 634.2801376637599 3856.735294117647 635.2830954215428 3877.676470588235 636.388984334016 3898.6176470588234 637.5953366301156 3919.5588235294117 638.7439704461906 3940.5 640.0328656683237 3961.4411764705883 641.0274072878076 3982.3823529411766 641.7348258019537 4003.323529411765 642.4592997578948 4024.264705882353 535.2648007319358 4045.2058823529414 534.4892592748513 4066.1470588235293 533.5883597667535 4087.0882352941176 532.9945218339117 4108.029411764706 532.7385960569093 4128.970588235294 533.1839579715512 4149.911764705882 533.3794235575219 4170.85294117647 533.5577242345337 4191.794117647059 533.7499584959044 4212.735294117647 533.8294455926118 4233.676470588235 533.7853664259474 4254.617647058823 533.722746014736 4275.558823529412 533.4528010722697 4296.5 533.4841990448925 4296.5 447.90712750570685 4275.558823529412 447.65114758474357 4254.617647058823 447.63691579979616 4233.676470588235 447.6548818464415 4212.735294117647 447.68514400974766 4191.794117647059 447.6730658977694 4170.85294117647 447.6266609249292 4149.911764705882 447.6323779302626 4128.970588235294 447.6574339250563 4108.029411764706 447.5983732210459 4087.0882352941176 447.82372841614773 4066.1470588235293 448.23400972704667 4045.2058823529414 448.85972838125235 4024.264705882353 449.3446349967366 4003.323529411765 564.013087594675 3982.3823529411766 563.0569322713101 3961.4411764705883 562.1201699126104 3940.5 560.9592369816268 3919.5588235294117 559.5178863272408 3898.6176470588234 558.0421991553968 3877.676470588235 556.6183211021491 3856.735294117647 555.218566955861 3835.7941176470586 553.8747604661306 3814.8529411764707 552.795294537007 3793.9117647058824 551.5476668303065 3772.970588235294 550.4510715595417 3752.029411764706 549.056064697407 3731.0882352941176 547.7069248917836 3710.1470588235293 546.4892681197156 3689.205882352941 545.0068552240035 3668.264705882353 543.5872074138473 3647.323529411765 542.2071477253921 3626.3823529411766 540.7523658360859 3605.4411764705883 539.1846046453284 3584.5 550.69398337688 3563.5588235294117 549.0305649530324 3542.6176470588234 547.8419869340069 3521.676470588235 547.2972215888882 3500.735294117647 546.9206806705122 3479.794117647059 546.5765460991323 3458.8529411764707 546.1401156456737 3437.9117647058824 546.162084159149 3416.970588235294 547.0193242259644 3396.029411764706 547.5943073684911 3375.0882352941176 565.6397555577983 3354.1470588235293 566.0005705781988 3333.205882352941 541.8846686674905 3312.264705882353 541.0539314470215 3291.323529411765 539.8778029714027 3270.3823529411766 538.0311425357806 3249.4411764705883 536.4270145966814 3228.5 536.7106293649022 3228.5 615.2796120230914Z" fill="#005aa6" opacity="0.9" />
		</g>
		<g>
			<path d="M3228.5 536.7106293649022 3249.4411764705883 536.4270145966814 3270.3823529411766 538.0311425357806 3291.323529411765 539.8778029714027 3312.264705882353 541.0539314470215 3333.205882352941 541.8846686674905 3354.1470588235293 566.0005705781988 3375.0882352941176 565.6397555577983 3396.029411764706 547.5943073684911 3416.970588235294 547.0193242259644 3437.9117647058824 546.162084159149 3458.8529411764707 546.1401156456737 3479.794117647059 546.5765460991323 3500.735294117647 546.9206806705122 3521.676470588235 547.2972215888882 3542.6176470588234 547.8419869340069 3563.5588235294117 549.0305649530324 3584.5 550.69398337688 3605.4411764705883 539.1846046453284 3626.3823529411766 540.7523658360859 3647.323529411765 542.2071477253921 3668.264705882353 543.5872074138473 3689.205882352941 545.0068552240035 3710.1470588235293 546.4892681197156 3731.0882352941176 547.7069248917836 3752.029411764706 549.056064697407 3772.970588235294 550.4510715595417 3793.9117647058824 551.5476668303065 3814.8529411764707 552.795294537007 3835.7941176470586 553.8747604661306 3856.735294117647 555.218566955861 3877.676470588235 556.6183211021491 3898.6176470588234 558.0421991553968 3919.5588235294117 559.5178863272408 3940.5 560.9592369816268 3961.4411764705883 562.1201699126104 3982.3823529411766 563.0569322713101 4003.323529411765 564.013087594675 4024.264705882353 449.3446349967366 4045.2058823529414 448.85972838125235 4066.1470588235293 448.23400972704667 4087.0882352941176 447.82372841614773 4108.029411764706 447.5983732210459 4128.970588235294 447.6574339250563 4149.911764705882 447.6323779302626 4170.85294117647 447.6266609249292 4191.794117647059 447.6730658977694 4212.735294117647 447.68514400974766 4233.676470588235 447.6548818464415 4254.617647058823 447.63691579979616 4275.558823529412 447.65114758474357 4296.5 447.90712750570685 4296.5 432.00359297169024 4275.558823529412 431.84731630596053 4254.617647058823 431.8659139096981 4233.676470588235 431.93242137634724 4212.735294117647 431.9599475077045 4191.794117647059 431.9558731937295 4170.85294117647 431.9405589448202 4149.911764705882 431.96727576259724 4128.970588235294 432.02029212049626 4108.029411764706 431.97528739378606 4087.0882352941176 432.15561530771527 4066.1470588235293 432.4754364071281 4045.2058823529414 433.0084053536388 4024.264705882353 433.3913361237896 4003.323529411765 540.8290503164301 3982.3823529411766 539.7717503889384 3961.4411764705883 538.7148538649283 3940.5 537.4631522646897 3919.5588235294117 535.9474999414622 3898.6176470588234 534.3593851680338 3877.676470588235 532.8484801447386 3856.735294117647 531.3863925452272 3835.7941176470586 529.9440403710025 3814.8529411764707 528.7702332186351 3793.9117647058824 527.9710368276562 3772.970588235294 526.7914366981524 3752.029411764706 525.3123672531278 3731.0882352941176 523.9349092321237 3710.1470588235293 522.6767257917172 3689.205882352941 521.1207351787452 3668.264705882353 519.5911430965305 3647.323529411765 518.1357144384516 3626.3823529411766 516.5996074824589 3605.4411764705883 514.9659833917357 3584.5 527.0438985976282 3563.5588235294117 525.3024251103315 3542.6176470588234 523.9562890822376 3521.676470588235 523.2798263552974 3500.735294117647 522.7674371524068 3479.794117647059 522.2747415869658 3458.8529411764707 521.7061803820658 3437.9117647058824 521.4815581773842 3416.970588235294 522.0175391594702 3396.029411764706 522.2390966744398 3375.0882352941176 540.7792433621357 3354.1470588235293 540.7347903265445 3333.205882352941 520.8422961076436 3312.264705882353 519.941244366186 3291.323529411765 518.8725186340012 3270.3823529411766 517.1348567955661 3249.4411764705883 515.650021587989 3228.5 515.7382849108784 3228.5 536.7106293649022Z" fill="#55c0e9" opacity="0.9" />
		</g>
		<g>
			<path d="M3228.5 515.7382849108784 3249.4411764705883 515.650021587989 3270.3823529411766 517.1348567955661 3291.323529411765 518.8725186340012 3312.264705882353 519.941244366186 3333.205882352941 520.8422961076436 3354.1470588235293 540.7347903265445 3375.0882352941176 540.7792433621357 3396.029411764706 522.2390966744398 3416.970588235294 522.0175391594702 3437.9117647058824 521.4815581773842 3458.8529411764707 521.7061803820658 3479.794117647059 522.2747415869658 3500.735294117647 522.7674371524068 3521.676470588235 523.2798263552974 3542.6176470588234 523.9562890822376 3563.5588235294117 525.3024251103315 3584.5 527.0438985976282 3605.4411764705883 514.9659833917357 3626.3823529411766 516.5996074824589 3647.323529411765 518.1357144384516 3668.264705882353 519.5911430965305 3689.205882352941 521.1207351787452 3710.1470588235293 522.6767257917172 3731.0882352941176 523.9349092321237 3752.029411764706 525.3123672531278 3772.970588235294 526.7914366981524 3793.9117647058824 527.9710368276562 3814.8529411764707 528.7702332186351 3835.7941176470586 529.9440403710025 3856.735294117647 531.3863925452272 3877.676470588235 532.8484801447386 3898.6176470588234 534.3593851680338 3919.5588235294117 535.9474999414622 3940.5 537.4631522646897 3961.4411764705883 538.7148538649283 3982.3823529411766 539.7717503889384 4003.323529411765 540.8290503164301 4024.264705882353 433.3913361237896 4045.2058823529414 433.0084053536388 4066.1470588235293 432.4754364071281 4087.0882352941176 432.15561530771527 4108.029411764706 431.97528739378606 4128.970588235294 432.02029212049626 4149.911764705882 431.96727576259724 4170.85294117647 431.9405589448202 4191.794117647059 431.9558731937295 4212.735294117647 431.9599475077045 4233.676470588235 431.93242137634724 4254.617647058823 431.8659139096981 4275.558823529412 431.84731630596053 4296.5 432.00359297169024 4296.5 416.34836086389726 4275.558823529412 416.1564242259188 4254.617647058823 416.1235996870702 4233.676470588235 416.0562889706207 4212.735294117647 416.0954395000898 4191.794117647059 416.0465069983401 4170.85294117647 416.000160121671 4149.911764705882 416.0062420628137 4128.970588235294 416.05161909433286 4108.029411764706 415.99893833884835 4087.0882352941176 416.12431960001913 4066.1470588235293 416.33420162951643 4045.2058823529414 416.71311285195446 4024.264705882353 416.98069451994184 4003.323529411765 523.7363657522843 3982.3823529411766 522.5716439040438 3961.4411764705883 521.4074163425901 3940.5 520.0402408469882 3919.5588235294117 518.4759534407176 3898.6176470588234 516.9133817380589 3877.676470588235 515.447116697529 3856.735294117647 514.0614365046936 3835.7941176470586 512.7024056997157 3814.8529411764707 511.5800205959148 3793.9117647058824 510.82918253556556 3772.970588235294 509.7179568015223 3752.029411764706 508.3175496659528 3731.0882352941176 507.0170454704227 3710.1470588235293 505.81218353227047 3689.205882352941 504.3173344906431 3668.264705882353 502.8338970689489 3647.323529411765 501.4426511937707 3626.3823529411766 499.97387766322737 3605.4411764705883 498.4242329984132 3584.5 510.99365573350235 3563.5588235294117 509.31973026750774 3542.6176470588234 508.0481610967102 3521.676470588235 507.46130800445246 3500.735294117647 507.0233752398185 3479.794117647059 506.60822161328986 3458.8529411764707 506.1065487459215 3437.9117647058824 505.9043627233751 3416.970588235294 506.4216643610348 3396.029411764706 506.6484163233015 3375.0882352941176 525.7580510881946 3354.1470588235293 525.7315703546495 3333.205882352941 502.94320923041516 3312.264705882353 502.107038956447 3291.323529411765 501.18268987180403 3270.3823529411766 499.5661579814509 3249.4411764705883 498.2407663238116 3228.5 498.34179455703446 3228.5 515.7382849108784Z" fill="#f6a118" opacity="0.9" />
		</g>
		<g>
			<path d="M3228.5 498.34179455703446 3249.4411764705883 498.2407663238116 3270.3823529411766 499.5661579814509 3291.323529411765 501.18268987180403 3312.264705882353 502.107038956447 3333.205882352941 502.94320923041516 3354.1470588235293 525.7315703546495 3375.0882352941176 525.7580510881946 3396.029411764706 506.6484163233015 3416.970588235294 506.4216643610348 3437.9117647058824 505.9043627233751 3458.8529411764707 506.1065487459215 3479.794117647059 506.60822161328986 3500.735294117647 507.0233752398185 3521.676470588235 507.46130800445246 3542.6176470588234 508.0481610967102 3563.5588235294117 509.31973026750774 3584.5 510.99365573350235 3605.4411764705883 498.4242329984132 3626.3823529411766 499.97387766322737 3647.323529411765 501.4426511937707 3668.264705882353 502.8338970689489 3689.205882352941 504.3173344906431 3710.1470588235293 505.81218353227047 3731.0882352941176 507.0170454704227 3752.029411764706 508.3175496659528 3772.970588235294 509.7179568015223 3793.9117647058824 510.82918253556556 3814.8529411764707 511.5800205959148 3835.7941176470586 512.7024056997157 3856.735294117647 514.0614365046936 3877.676470588235 515.447116697529 3898.6176470588234 516.9133817380589 3919.5588235294117 518.4759534407176 3940.5 520.0402408469882 3961.4411764705883 521.4074163425901 3982.3823529411766 522.5716439040438 4003.323529411765 523.7363657522843 4024.264705882353 416.98069451994184 4045.2058823529414 416.71311285195446 4066.1470588235293 416.33420162951643 4087.0882352941176 416.12431960001913 4108.029411764706 415.99893833884835 4128.970588235294 416.05161909433286 4149.911764705882 416.0062420628137 4170.85294117647 416.000160121671 4191.794117647059 416.0465069983401 4212.735294117647 416.0954395000898 4233.676470588235 416.0562889706207 4254.617647058823 416.1235996870702 4275.558823529412 416.1564242259188 4296.5 416.34836086389726 4296.5 406.7538978821639 4275.558823529412 406.6419996355151 4254.617647058823 406.66475151485594 4233.676470588235 406.64954838762975 4212.735294117647 406.6900606081659 4191.794117647059 406.67423043388266 4170.85294117647 406.6442240275461 4149.911764705882 406.6769627823681 4128.970588235294 406.7486576922467 4108.029411764706 406.88204596503937 4087.0882352941176 407.2984950463532 4066.1470588235293 407.42058087187377 4045.2058823529414 407.6496849699309 4024.264705882353 407.85452807822685 4003.323529411765 510.457001187623 3982.3823529411766 509.25430348013276 3961.4411764705883 508.03326088042445 3940.5 506.6178498444704 3919.5588235294117 505.0214210075742 3898.6176470588234 503.4488995208447 3877.676470588235 501.99414638500895 3856.735294117647 500.6747796739521 3835.7941176470586 499.3250304832202 3814.8529411764707 498.1994618351249 3793.9117647058824 497.43345523107604 3772.970588235294 496.34925589643314 3752.029411764706 495.0253467220932 3731.0882352941176 493.7905717710478 3710.1470588235293 492.5921558346354 3689.205882352941 491.08339968159794 3668.264705882353 489.589994805443 3647.323529411765 488.205911277506 3626.3823529411766 486.75823132244886 3605.4411764705883 485.3927174126073 3584.5 498.4720025363811 3563.5588235294117 497.0382614705632 3542.6176470588234 495.82345643600064 3521.676470588235 495.20191899296304 3500.735294117647 494.71994133496287 3479.794117647059 494.25306019687616 3458.8529411764707 493.7747398235285 3437.9117647058824 493.46369672124194 3416.970588235294 493.7814105421057 3396.029411764706 493.8307143677906 3375.0882352941176 513.2062038257327 3354.1470588235293 513.0191600354991 3333.205882352941 492.37221825805364 3312.264705882353 491.90854325848505 3291.323529411765 491.3515350353937 3270.3823529411766 490.22585688768174 3249.4411764705883 489.18947576032576 3228.5 489.22333619864025 3228.5 498.34179455703446Z" fill="#fdd5a4" opacity="0.9" />
		</g>
		<g>
			<path d="M3228.5 489.22333619864025 3249.4411764705883 489.18947576032576 3270.3823529411766 490.22585688768174 3291.323529411765 491.3515350353937 3312.264705882353 491.90854325848505 3333.205882352941 492.37221825805364 3354.1470588235293 513.0191600354991 3375.0882352941176 513.2062038257327 3396.029411764706 493.8307143677906 3416.970588235294 493.7814105421057 3437.9117647058824 493.46369672124194 3458.8529411764707 493.7747398235285 3479.794117647059 494.25306019687616 3500.735294117647 494.71994133496287 3521.676470588235 495.20191899296304 3542.6176470588234 495.82345643600064 3563.5588235294117 497.0382614705632 3584.5 498.4720025363811 3605.4411764705883 485.3927174126073 3626.3823529411766 486.75823132244886 3647.323529411765 488.205911277506 3668.264705882353 489.589994805443 3689.205882352941 491.08339968159794 3710.1470588235293 492.5921558346354 3731.0882352941176 493.7905717710478 3752.029411764706 495.0253467220932 3772.970588235294 496.34925589643314 3793.9117647058824 497.43345523107604 3814.8529411764707 498.1994618351249 3835.7941176470586 499.3250304832202 3856.735294117647 500.6747796739521 3877.676470588235 501.99414638500895 3898.6176470588234 503.4488995208447 3919.5588235294117 505.0214210075742 3940.5 506.6178498444704 3961.4411764705883 508.03326088042445 3982.3823529411766 509.25430348013276 4003.323529411765 510.457001187623 4024.264705882353 407.85452807822685 4045.2058823529414 407.6496849699309 4066.1470588235293 407.42058087187377 4087.0882352941176 407.2984950463532 4108.029411764706 406.88204596503937 4128.970588235294 406.7486576922467 4149.911764705882 406.6769627823681 4170.85294117647 406.6442240275461 4191.794117647059 406.67423043388266 4212.735294117647 406.6900606081659 4233.676470588235 406.64954838762975 4254.617647058823 406.66475151485594 4275.558823529412 406.6419996355151 4296.5 406.7538978821639 4296.5 398 4275.558823529412 398 4254.617647058823 398 4233.676470588235 397.99999999999994 4212.735294117647 398 4191.794117647059 398.0000000000001 4170.85294117647 398.00000000000006 4149.911764705882 398 4128.970588235294 397.9999999999999 4108.029411764706 398 4087.0882352941176 397.99999999999994 4066.1470588235293 398.0000000000001 4045.2058823529414 397.99999999999994 4024.264705882353 398.00000000000006 4003.323529411765 398 3982.3823529411766 397.9999999999999 3961.4411764705883 398 3940.5 397.99999999999983 3919.5588235294117 398.0000000000001 3898.6176470588234 397.99999999999994 3877.676470588235 397.9999999999999 3856.735294117647 398.0000000000001 3835.7941176470586 398 3814.8529411764707 397.9999999999999 3793.9117647058824 397.99999999999994 3772.970588235294 398.00000000000006 3752.029411764706 398.00000000000006 3731.0882352941176 398 3710.1470588235293 397.9999999999999 3689.205882352941 398 3668.264705882353 397.9999999999999 3647.323529411765 397.9999999999999 3626.3823529411766 398.00000000000006 3605.4411764705883 398 3584.5 398 3563.5588235294117 397.9999999999999 3542.6176470588234 398.0000000000001 3521.676470588235 397.9999999999999 3500.735294117647 398 3479.794117647059 398 3458.8529411764707 397.99999999999994 3437.9117647058824 398 3416.970588235294 397.9999999999999 3396.029411764706 398.0000000000001 3375.0882352941176 398.0000000000001 3354.1470588235293 398 3333.205882352941 397.9999999999999 3312.264705882353 398.0000000000001 3291.323529411765 398 3270.3823529411766 397.99999999999994 3249.4411764705883 398 3228.5 398 3228.5 489.22333619864025Z" fill="#393d41" opacity="0.9" />
		</g>
		<g>
			<rect x="4372" y="431" width="22.9995" height="23" fill="#e62d39" />
		</g>
		<g>
			<text fill="#595959" font-family="Verdana,sans-serif" font-weight="400" font-size="41" transform="matrix(1 0 0 1 4404.56 454)">Smartphone</text>
		</g>
		<g>
			<rect x="4372" y="508" width="22.9995" height="23" fill="#005aa6" />
		</g>
		<g>
			<text fill="#595959" font-family="Verdana,sans-serif" font-weight="400" font-size="41" transform="matrix(1 0 0 1 4404.56 531)">Desktop</text>
		</g>
		<g>
			<rect x="4372" y="585" width="22.9995" height="23" fill="#55c0e9" />
		</g>
		<g>
			<text fill="#595959" font-family="Verdana,sans-serif" font-weight="400" font-size="41" transform="matrix(1 0 0 1 4404.56 608)">Other</text>
		</g>
		<g>
			<rect x="4372" y="662" width="22.9995" height="23" fill="#f6a118" />
		</g>
		<g>
			<text fill="#595959" font-family="Verdana,sans-serif" font-weight="400" font-size="41" transform="matrix(1 0 0 1 4404.56 685)">Tablet</text>
		</g>
		<g>
			<rect x="4372" y="739" width="22.9995" height="23" fill="#fdd5a4" />
		</g>
		<g>
			<text fill="#595959" font-family="Verdana,sans-serif" font-weight="400" font-size="41" transform="matrix(1 0 0 1 4404.56 762)">Tv</text>
		</g>
		<g>
			<rect x="4372" y="816" width="22.9995" height="23" fill="#393d41" />
		</g>
		<g>
			<text fill="#595959" font-family="Verdana,sans-serif" font-weight="400" font-size="41" transform="matrix(1 0 0 1 4404.56 839)">Unclassified</text>
		</g>
	</g>
</svg>
