<svg width="1763" height="1046"
    xmlns="http://www.w3.org/2000/svg"
	xmlns:xlink="http://www.w3.org/1999/xlink" xml:space="preserve" overflow="hidden">
	<defs>
		<clipPath id="clip0">
			<rect x="2917" y="346" width="1763" height="1046"/>
		</clipPath>
	</defs>
	<g clip-path="url(#clip0)" transform="translate(-2917 -346)">
		<rect x="2918" y="347" width="1760" height="1043" fill="#FFFFFF" />
		<g>
			<path d="
			M3228.5 974.532 4296.5 974.532
			M3228.5 910.53 4296.5 910.53
			M3228.5 846.528 4296.5 846.528
			M3228.5 781.526 4296.5 781.526
			M3228.5 717.524 4296.5 717.524
			M3228.5 653.522 4296.5 653.522
			M3228.5 589.52 4296.5 589.52
			M3228.5 525.517 4296.5 525.517
			M3228.5 461.515 4296.5 461.515
			M3228.5 397.5 4296.5 397.5" stroke="#D9D9D9" stroke-width="3.4375" stroke-linejoin="round" stroke-miterlimit="10" fill="none" />
		</g>
		<g>
			<path d="M 1038.5 4296.5 1038.5" stroke="#D9D9D9" stroke-width="3.4375" stroke-linejoin="round" stroke-miterlimit="10" fill="none" fill-rule="evenodd" />
		</g>
		<g>
			<text fill="#595959" font-family="Verdana,sans-serif" font-weight="400" font-size="41" transform="matrix(6.12323e-17 -1 1 6.12323e-17 3244.5 1225)">06-Nov</text>
		</g>
		<g>
			<text fill="#595959" font-family="Verdana,sans-serif" font-weight="400" font-size="41" transform="matrix(6.12323e-17 -1 1 6.12323e-17 3363.1666666666665 1223)">04-Dec</text>
		</g>
		<g>
			<text fill="#595959" font-family="Verdana,sans-serif" font-weight="400" font-size="41" transform="matrix(6.12323e-17 -1 1 6.12323e-17 3481.8333333333335 1210)">01-Jan</text>
		</g>
		<g>
			<text fill="#595959" font-family="Verdana,sans-serif" font-weight="400" font-size="41" transform="matrix(6.12323e-17 -1 1 6.12323e-17 3600.5 1210)">29-Jan</text>
		</g>
		<g>
			<text fill="#595959" font-family="Verdana,sans-serif" font-weight="400" font-size="41" transform="matrix(6.12323e-17 -1 1 6.12323e-17 3719.1666666666665 1216)">26-Feb</text>
		</g>
		<g>
			<text fill="#595959" font-family="Verdana,sans-serif" font-weight="400" font-size="41" transform="matrix(6.12323e-17 -1 1 6.12323e-17 3837.8333333333335 1223)">25-Mar</text>
		</g>
		<g>
			<text fill="#595959" font-family="Verdana,sans-serif" font-weight="400" font-size="41" transform="matrix(6.12323e-17 -1 1 6.12323e-17 3960 1216)">22-Apr</text>
		</g>
		<g>
			<text fill="#595959" font-family="Verdana,sans-serif" font-weight="400" font-size="41" transform="matrix(6.12323e-17 -1 1 6.12323e-17 4078.666666666667 1228)">20-May</text>
		</g>
		<g>
			<text fill="#595959" font-family="Verdana,sans-serif" font-weight="400" font-size="41" transform="matrix(6.12323e-17 -1 1 6.12323e-17 4193.333333333333 1209)">17-Jun</text>
		</g>
		<g>
			<text fill="#595959" font-family="Verdana,sans-serif" font-weight="400" font-size="41" transform="matrix(6.12323e-17 -1 1 6.12323e-17 4312.5 1194)">15-Jul</text>
		</g>
		<g>
			<text fill="#595959" font-family="Verdana,sans-serif" font-weight="400" font-size="41" transform="matrix(1 0 0 1 3123.5 1050)">0%</text>
		</g>
		<g>
			<text fill="#595959" font-family="Verdana,sans-serif" font-weight="400" font-size="41" transform="matrix(1 0 0 1 3097.5 922)">20%</text>
		</g>
		<g>
			<text fill="#595959" font-family="Verdana,sans-serif" font-weight="400" font-size="41" transform="matrix(1 0 0 1 3096.5 794)">40%</text>
		</g>
		<g>
			<text fill="#595959" font-family="Verdana,sans-serif" font-weight="400" font-size="41" transform="matrix(1 0 0 1 3097.5 666)">60%</text>
		</g>
		<g>
			<text fill="#595959" font-family="Verdana,sans-serif" font-weight="400" font-size="41" transform="matrix(1 0 0 1 3097.5 538)">80%</text>
		</g>
		<g>
			<text fill="#595959" font-family="Verdana,sans-serif" font-weight="400" font-size="41" transform="matrix(1 0 0 1 3074.5 410)">100%</text>
		</g>
		<g>
			<text fill="#595959" font-family="Verdana,sans-serif" font-weight="400" font-size="41" transform="matrix(1 0 0 1 3544.5 1321)">Week Commencing</text>
		</g>
		<g>
			<text fill="#595959" font-family="Verdana,sans-serif" font-weight="400" font-size="46" transform="matrix(6.12323e-17 -1 1 6.12323e-17 3019.73 965.25)">Requests (% of Total)</text>
		</g>
		<rect x="2918.5" y="347.5" width="1760" height="1043" stroke="#D9D9D9" stroke-width="3.4375" stroke-linejoin="round" stroke-miterlimit="10" fill="none" />
		<g>
			<path d="M3228.5 1038 3258.1666666666665 1038 3287.8333333333335 1038 3317.5 1038 3347.1666666666665 1038 3376.8333333333335 1038 3406.5 1038 3436.1666666666665 1038 3465.8333333333335 1038 3495.5 1038 3525.1666666666665 1038 3554.8333333333335 1038 3584.5 1038 3614.1666666666665 1038 3643.8333333333335 1038 3673.5 1038 3703.1666666666665 1038 3732.8333333333335 1038 3762.5 1038 3792.166666666667 1038 3821.8333333333335 1038 3851.5 1038 3881.166666666667 1038 3910.8333333333335 1038 3940.5 1038 3970.166666666667 1038 3999.8333333333335 1038 4029.5 1038 4059.166666666667 1038 4088.8333333333335 1038 4118.5 1038 4148.166666666667 1038 4177.833333333333 1038 4207.5 1038 4237.166666666667 1038 4266.833333333334 1038 4296.5 1038 4296.5 628.7570391925642 4266.833333333334 627.5176878063296 4237.166666666667 626.3963136974012 4207.5 625.2428890685153 4177.833333333333 624.0667377001988 4148.166666666667 622.80172023452 4118.5 632.4054355541638 4088.8333333333335 630.9533026623258 4059.166666666667 630.0731822124889 4029.5 629.6411395703622 3999.8333333333335 629.3637077507597 3970.166666666667 629.112232069277 3940.5 628.7712194186788 3910.8333333333335 629.1405060461395 3881.166666666667 630.4544284738802 3851.5 631.6183228637996 3821.8333333333335 647.4118241208081 3792.166666666667 648.3895796632379 3762.5 621.5001438018157 3732.8333333333335 620.7479883324611 3703.1666666666665 618.9772962489769 3673.5 616.6754829613407 3643.8333333333335 614.5117939817052 3614.1666666666665 615.2796120230914 3584.5 615.9275087100596 3554.8333333333335 616.3813797093885 3525.1666666666665 616.3755182018299 3495.5 569.065986327317 3465.8333333333335 568.8533275368973 3436.1666666666665 570.4200135868562 3406.5 571.2367304637471 3376.8333333333335 574.6430294813756 3347.1666666666665 573.9159777926823 3317.5 571.940753677543 3287.8333333333335 571.7928428278394 3258.1666666666665 571.6102570585995 3228.5 570.6431995209241 3228.5 1038Z" fill="#e62d39" opacity="0.9" />
		</g>
		<g>
			<path d="M3228.5 570.6431995209241 3258.1666666666665 571.6102570585995 3287.8333333333335 571.7928428278394 3317.5 571.940753677543 3347.1666666666665 573.9159777926823 3376.8333333333335 574.6430294813756 3406.5 571.2367304637471 3436.1666666666665 570.4200135868562 3465.8333333333335 568.8533275368973 3495.5 569.065986327317 3525.1666666666665 616.3755182018299 3554.8333333333335 616.3813797093885 3584.5 615.9275087100596 3614.1666666666665 615.2796120230914 3643.8333333333335 614.5117939817052 3673.5 616.6754829613407 3703.1666666666665 618.9772962489769 3732.8333333333335 620.7479883324611 3762.5 621.5001438018157 3792.166666666667 648.3895796632379 3821.8333333333335 647.4118241208081 3851.5 631.6183228637996 3881.166666666667 630.4544284738802 3910.8333333333335 629.1405060461395 3940.5 628.7712194186788 3970.166666666667 629.112232069277 3999.8333333333335 629.3637077507597 4029.5 629.6411395703622 4059.166666666667 630.0731822124889 4088.8333333333335 630.9533026623258 4118.5 632.4054355541638 4148.166666666667 622.80172023452 4177.833333333333 624.0667377001988 4207.5 625.2428890685153 4237.166666666667 626.3963136974012 4266.833333333334 627.5176878063296 4296.5 628.7570391925642 4296.5 546.4892681197156 4266.833333333334 545.0068552240035 4237.166666666667 543.5872074138473 4207.5 542.2071477253921 4177.833333333333 540.7523658360859 4148.166666666667 539.1846046453284 4118.5 550.69398337688 4088.8333333333335 549.0305649530324 4059.166666666667 547.8419869340069 4029.5 547.2972215888882 3999.8333333333335 546.9206806705122 3970.166666666667 546.5765460991323 3940.5 546.1401156456737 3910.8333333333335 546.162084159149 3881.166666666667 547.0193242259644 3851.5 547.5943073684911 3821.8333333333335 565.6397555577983 3792.166666666667 566.0005705781988 3762.5 541.8846686674905 3732.8333333333335 541.0539314470215 3703.1666666666665 539.8778029714027 3673.5 538.0311425357806 3643.8333333333335 536.4270145966814 3614.1666666666665 536.7106293649022 3584.5 536.9764016245806 3554.8333333333335 535.7941999215749 3525.1666666666665 535.7525782888524 3495.5 509.06513243323207 3465.8333333333335 509.44212806241245 3436.1666666666665 509.38220585337143 3406.5 509.60866877735396 3376.8333333333335 511.9603578529975 3347.1666666666665 511.0153758579769 3317.5 509.7472741468517 3287.8333333333335 509.176439393107 3258.1666666666665 508.6338001891333 3228.5 508.14325383903014 3228.5 570.6431995209241Z" fill="#005aa6" opacity="0.9" />
		</g>
		<g>
			<path d="M3228.5 508.14325383903014 3258.1666666666665 508.6338001891333 3287.8333333333335 509.176439393107 3317.5 509.7472741468517 3347.1666666666665 511.0153758579769 3376.8333333333335 511.9603578529975 3406.5 509.60866877735396 3436.1666666666665 509.38220585337143 3465.8333333333335 509.44212806241245 3495.5 509.06513243323207 3525.1666666666665 535.7525782888524 3554.8333333333335 535.7941999215749 3584.5 536.9764016245806 3614.1666666666665 536.7106293649022 3643.8333333333335 536.4270145966814 3673.5 538.0311425357806 3703.1666666666665 539.8778029714027 3732.8333333333335 541.0539314470215 3762.5 541.8846686674905 3792.166666666667 566.0005705781988 3821.8333333333335 565.6397555577983 3851.5 547.5943073684911 3881.166666666667 547.0193242259644 3910.8333333333335 546.162084159149 3940.5 546.1401156456737 3970.166666666667 546.5765460991323 3999.8333333333335 546.9206806705122 4029.5 547.2972215888882 4059.166666666667 547.8419869340069 4088.8333333333335 549.0305649530324 4118.5 550.69398337688 4148.166666666667 539.1846046453284 4177.833333333333 540.7523658360859 4207.5 542.2071477253921 4237.166666666667 543.5872074138473 4266.833333333334 545.0068552240035 4296.5 546.4892681197156 4296.5 522.6767257917172 4266.833333333334 521.1207351787452 4237.166666666667 519.5911430965305 4207.5 518.1357144384516 4177.833333333333 516.5996074824589 4148.166666666667 514.9659833917357 4118.5 527.0438985976282 4088.8333333333335 525.3024251103315 4059.166666666667 523.9562890822376 4029.5 523.2798263552974 3999.8333333333335 522.7674371524068 3970.166666666667 522.2747415869658 3940.5 521.7061803820658 3910.8333333333335 521.4815581773842 3881.166666666667 522.0175391594702 3851.5 522.2390966744398 3821.8333333333335 540.7792433621357 3792.166666666667 540.7347903265445 3762.5 520.8422961076436 3732.8333333333335 519.941244366186 3703.1666666666665 518.8725186340012 3673.5 517.1348567955661 3643.8333333333335 515.650021587989 3614.1666666666665 515.7382849108784 3584.5 515.8356026961703 3554.8333333333335 514.2250429205485 3525.1666666666665 514.175265377396 3495.5 492.9059942279181 3465.8333333333335 493.0966047321476 3436.1666666666665 492.88332734476376 3406.5 492.95479515937706 3376.8333333333335 494.7801665319999 3347.1666666666665 493.78468973551225 3317.5 492.5320066774311 3287.8333333333335 491.93197908298504 3258.1666666666665 491.34916929089724 3228.5 490.7876094955426 3228.5 508.14325383903014Z" fill="#55c0e9" opacity="0.9" />
		</g>
		<g>
			<path d="M3228.5 490.7876094955426 3258.1666666666665 491.34916929089724 3287.8333333333335 491.93197908298504 3317.5 492.5320066774311 3347.1666666666665 493.78468973551225 3376.8333333333335 494.7801665319999 3406.5 492.95479515937706 3436.1666666666665 492.88332734476376 3465.8333333333335 493.0966047321476 3495.5 492.9059942279181 3525.1666666666665 514.175265377396 3554.8333333333335 514.2250429205485 3584.5 515.8356026961703 3614.1666666666665 515.7382849108784 3643.8333333333335 515.650021587989 3673.5 517.1348567955661 3703.1666666666665 518.8725186340012 3732.8333333333335 519.941244366186 3762.5 520.8422961076436 3792.166666666667 540.7347903265445 3821.8333333333335 540.7792433621357 3851.5 522.2390966744398 3881.166666666667 522.0175391594702 3910.8333333333335 521.4815581773842 3940.5 521.7061803820658 3970.166666666667 522.2747415869658 3999.8333333333335 522.7674371524068 4029.5 523.2798263552974 4059.166666666667 523.9562890822376 4088.8333333333335 525.3024251103315 4118.5 527.0438985976282 4148.166666666667 514.9659833917357 4177.833333333333 516.5996074824589 4207.5 518.1357144384516 4237.166666666667 519.5911430965305 4266.833333333334 521.1207351787452 4296.5 522.6767257917172 4296.5 505.81218353227047 4266.833333333334 504.3173344906431 4237.166666666667 502.8338970689489 4207.5 501.4426511937707 4177.833333333333 499.97387766322737 4148.166666666667 498.4242329984132 4118.5 510.99365573350235 4088.8333333333335 509.31973026750774 4059.166666666667 508.0481610967102 4029.5 507.46130800445246 3999.8333333333335 507.0233752398185 3970.166666666667 506.60822161328986 3940.5 506.1065487459215 3910.8333333333335 505.9043627233751 3881.166666666667 506.4216643610348 3851.5 506.6484163233015 3821.8333333333335 525.7580510881946 3792.166666666667 525.7315703546495 3762.5 502.94320923041516 3732.8333333333335 502.107038956447 3703.1666666666665 501.18268987180403 3673.5 499.5661579814509 3643.8333333333335 498.2407663238116 3614.1666666666665 498.34179455703446 3584.5 498.4409678079612 3554.8333333333335 496.7688079778267 3525.1666666666665 496.7252878979315 3495.5 467.1119991855256 3465.8333333333335 467.30287783529656 3436.1666666666665 467.12354601368946 3406.5 467.18090658715477 3376.8333333333335 468.4609806530692 3347.1666666666665 467.6706174617695 3317.5 466.5807912489142 3287.8333333333335 466.04765597528194 3258.1666666666665 465.50683076275004 3228.5 465.1003985575009 3228.5 490.7876094955426Z" fill="#f6a118" opacity="0.9" />
		</g>
		<g>
			<path d="M3228.5 465.1003985575009 3258.1666666666665 465.50683076275004 3287.8333333333335 466.04765597528194 3317.5 466.5807912489142 3347.1666666666665 467.6706174617695 3376.8333333333335 468.4609806530692 3406.5 467.18090658715477 3436.1666666666665 467.12354601368946 3465.8333333333335 467.30287783529656 3495.5 467.1119991855256 3525.1666666666665 496.7252878979315 3554.8333333333335 496.7688079778267 3584.5 498.4409678079612 3614.1666666666665 498.34179455703446 3643.8333333333335 498.2407663238116 3673.5 499.5661579814509 3703.1666666666665 501.18268987180403 3732.8333333333335 502.107038956447 3762.5 502.94320923041516 3792.166666666667 525.7315703546495 3821.8333333333335 525.7580510881946 3851.5 506.6484163233015 3881.166666666667 506.4216643610348 3910.8333333333335 505.9043627233751 3940.5 506.1065487459215 3970.166666666667 506.60822161328986 3999.8333333333335 507.0233752398185 4029.5 507.46130800445246 4059.166666666667 508.0481610967102 4088.8333333333335 509.31973026750774 4118.5 510.99365573350235 4148.166666666667 498.4242329984132 4177.833333333333 499.97387766322737 4207.5 501.4426511937707 4237.166666666667 502.8338970689489 4266.833333333334 504.3173344906431 4296.5 505.81218353227047 4296.5 492.5921558346354 4266.833333333334 491.08339968159794 4237.166666666667 489.589994805443 4207.5 488.205911277506 4177.833333333333 486.75823132244886 4148.166666666667 485.3927174126073 4118.5 498.4720025363811 4088.8333333333335 497.0382614705632 4059.166666666667 495.82345643600064 4029.5 495.20191899296304 3999.8333333333335 494.71994133496287 3970.166666666667 494.25306019687616 3940.5 493.7747398235285 3910.8333333333335 493.46369672124194 3881.166666666667 493.7814105421057 3851.5 493.8307143677906 3821.8333333333335 513.2062038257327 3792.166666666667 513.0191600354991 3762.5 492.37221825805364 3732.8333333333335 491.90854325848505 3703.1666666666665 491.3515350353937 3673.5 490.22585688768174 3643.8333333333335 489.18947576032576 3614.1666666666665 489.22333619864025 3584.5 489.223179567103 3554.8333333333335 489.59463668666535 3525.1666666666665 489.6274021960388 3495.5 465.84397535618723 3465.8333333333335 466.0407574120686 3436.1666666666665 465.8767979346657 3406.5 465.9500572477321 3376.8333333333335 467.2202695247198 3347.1666666666665 466.45583538595343 3317.5 465.39864568725244 3287.8333333333335 464.88886642683036 3258.1666666666665 464.365762498016 3228.5 463.97855376512575 3228.5 465.1003985575009Z" fill="#fdd5a4" opacity="0.9" />
		</g>
		<g>
			<path d="M3228.5 463.97855376512575 3258.1666666666665 464.365762498016 3287.8333333333335 464.88886642683036 3317.5 465.39864568725244 3347.1666666666665 466.45583538595343 3376.8333333333335 467.2202695247198 3406.5 465.9500572477321 3436.1666666666665 465.8767979346657 3465.8333333333335 466.0407574120686 3495.5 465.84397535618723 3525.1666666666665 489.6274021960388 3554.8333333333335 489.59463668666535 3584.5 489.223179567103 3614.1666666666665 489.22333619864025 3643.8333333333335 489.18947576032576 3673.5 490.22585688768174 3703.1666666666665 491.3515350353937 3732.8333333333335 491.90854325848505 3762.5 492.37221825805364 3792.166666666667 513.0191600354991 3821.8333333333335 513.2062038257327 3851.5 493.8307143677906 3881.166666666667 493.7814105421057 3910.8333333333335 493.46369672124194 3940.5 493.7747398235285 3970.166666666667 494.25306019687616 3999.8333333333335 494.71994133496287 4029.5 495.20191899296304 4059.166666666667 495.82345643600064 4088.8333333333335 497.0382614705632 4118.5 498.4720025363811 4148.166666666667 485.3927174126073 4177.833333333333 486.75823132244886 4207.5 488.205911277506 4237.166666666667 489.589994805443 4266.833333333334 491.08339968159794 4296.5 492.5921558346354 4296.5 397.9999999999999 4266.833333333334 398 4237.166666666667 397.9999999999999 4207.5 397.9999999999999 4177.833333333333 398.00000000000006 4148.166666666667 398 4118.5 398 4088.8333333333335 397.9999999999999 4059.166666666667 398.0000000000001 4029.5 397.9999999999999 3999.8333333333335 398 3970.166666666667 398 3940.5 397.99999999999994 3910.8333333333335 398 3881.166666666667 397.9999999999999 3851.5 398.0000000000001 3821.8333333333335 398.0000000000001 3792.166666666667 398 3762.5 397.9999999999999 3732.8333333333335 398.0000000000001 3703.1666666666665 398 3673.5 397.99999999999994 3643.8333333333335 398 3614.1666666666665 398 3584.5 397.99999999999994 3554.8333333333335 398.0000000000001 3525.1666666666665 397.9999999999999 3495.5 397.9999999999999 3465.8333333333335 398 3436.1666666666665 397.9999999999999 3406.5 397.99999999999994 3376.8333333333335 397.9999999999999 3347.1666666666665 397.99999999999994 3317.5 398 3287.8333333333335 398.00000000000006 3258.1666666666665 397.99999999999983 3228.5 398.0000000000001 3228.5 463.97855376512575Z" fill="#393d41" opacity="0.9" />
		</g>
		<g>
			<rect x="4372" y="431" width="22.9995" height="23" fill="#e62d39" />
		</g>
		<g>
			<text fill="#595959" font-family="Verdana,sans-serif" font-weight="400" font-size="41" transform="matrix(1 0 0 1 4404.56 454)">Smartphone</text>
		</g>
		<g>
			<rect x="4372" y="508" width="22.9995" height="23" fill="#005aa6" />
		</g>
		<g>
			<text fill="#595959" font-family="Verdana,sans-serif" font-weight="400" font-size="41" transform="matrix(1 0 0 1 4404.56 531)">Desktop</text>
		</g>
		<g>
			<rect x="4372" y="585" width="22.9995" height="23" fill="#55c0e9" />
		</g>
		<g>
			<text fill="#595959" font-family="Verdana,sans-serif" font-weight="400" font-size="41" transform="matrix(1 0 0 1 4404.56 608)">Other</text>
		</g>
		<g>
			<rect x="4372" y="662" width="22.9995" height="23" fill="#f6a118" />
		</g>
		<g>
			<text fill="#595959" font-family="Verdana,sans-serif" font-weight="400" font-size="41" transform="matrix(1 0 0 1 4404.56 685)">Tablet</text>
		</g>
		<g>
			<rect x="4372" y="739" width="22.9995" height="23" fill="#fdd5a4" />
		</g>
		<g>
			<text fill="#595959" font-family="Verdana,sans-serif" font-weight="400" font-size="41" transform="matrix(1 0 0 1 4404.56 762)">Tv</text>
		</g>
		<g>
			<rect x="4372" y="816" width="22.9995" height="23" fill="#393d41" />
		</g>
		<g>
			<text fill="#595959" font-family="Verdana,sans-serif" font-weight="400" font-size="41" transform="matrix(1 0 0 1 4404.56 839)">Unclassified</text>
		</g>
	</g>
</svg>
