<svg width="1763" height="1046"
    xmlns="http://www.w3.org/2000/svg"
	xmlns:xlink="http://www.w3.org/1999/xlink" xml:space="preserve" overflow="hidden">
	<defs>
		<clipPath id="clip0">
			<rect x="2917" y="346" width="1763" height="1046"/>
		</clipPath>
	</defs>
	<g clip-path="url(#clip0)" transform="translate(-2917 -346)">
		<rect x="2918" y="347" width="1760" height="1043" fill="#FFFFFF" />
		<g>
			<path d="
			M3228.5 974.532 4296.5 974.532
			M3228.5 910.53 4296.5 910.53
			M3228.5 846.528 4296.5 846.528
			M3228.5 781.526 4296.5 781.526
			M3228.5 717.524 4296.5 717.524
			M3228.5 653.522 4296.5 653.522
			M3228.5 589.52 4296.5 589.52
			M3228.5 525.517 4296.5 525.517
			M3228.5 461.515 4296.5 461.515
			M3228.5 397.5 4296.5 397.5" stroke="#D9D9D9" stroke-width="3.4375" stroke-linejoin="round" stroke-miterlimit="10" fill="none" />
		</g>
		<g>
			<path d="M 1038.5 4296.5 1038.5" stroke="#D9D9D9" stroke-width="3.4375" stroke-linejoin="round" stroke-miterlimit="10" fill="none" fill-rule="evenodd" />
		</g>
		<g>
			<text fill="#595959" font-family="Verdana,sans-serif" font-weight="400" font-size="41" transform="matrix(6.12323e-17 -1 1 6.12323e-17 3244.5 1225)">06-Nov</text>
		</g>
		<g>
			<text fill="#595959" font-family="Verdana,sans-serif" font-weight="400" font-size="41" transform="matrix(6.12323e-17 -1 1 6.12323e-17 3311.25 1224)">20-Nov</text>
		</g>
		<g>
			<text fill="#595959" font-family="Verdana,sans-serif" font-weight="400" font-size="41" transform="matrix(6.12323e-17 -1 1 6.12323e-17 3378 1223)">04-Dec</text>
		</g>
		<g>
			<text fill="#595959" font-family="Verdana,sans-serif" font-weight="400" font-size="41" transform="matrix(6.12323e-17 -1 1 6.12323e-17 3444.75 1220)">18-Dec</text>
		</g>
		<g>
			<text fill="#595959" font-family="Verdana,sans-serif" font-weight="400" font-size="41" transform="matrix(6.12323e-17 -1 1 6.12323e-17 3511.5 1210)">01-Jan</text>
		</g>
		<g>
			<text fill="#595959" font-family="Verdana,sans-serif" font-weight="400" font-size="41" transform="matrix(6.12323e-17 -1 1 6.12323e-17 3577.75 1207)">15-Jan</text>
		</g>
		<g>
			<text fill="#595959" font-family="Verdana,sans-serif" font-weight="400" font-size="41" transform="matrix(6.12323e-17 -1 1 6.12323e-17 3645 1210)">29-Jan</text>
		</g>
		<g>
			<text fill="#595959" font-family="Verdana,sans-serif" font-weight="400" font-size="41" transform="matrix(6.12323e-17 -1 1 6.12323e-17 3711.75 1214)">12-Feb</text>
		</g>
		<g>
			<text fill="#595959" font-family="Verdana,sans-serif" font-weight="400" font-size="41" transform="matrix(6.12323e-17 -1 1 6.12323e-17 3778.5 1216)">26-Feb</text>
		</g>
		<g>
			<text fill="#595959" font-family="Verdana,sans-serif" font-weight="400" font-size="41" transform="matrix(6.12323e-17 -1 1 6.12323e-17 3844.75 1221)">11-Mar</text>
		</g>
		<g>
			<text fill="#595959" font-family="Verdana,sans-serif" font-weight="400" font-size="41" transform="matrix(6.12323e-17 -1 1 6.12323e-17 3912 1223)">25-Mar</text>
		</g>
		<g>
			<text fill="#595959" font-family="Verdana,sans-serif" font-weight="400" font-size="41" transform="matrix(6.12323e-17 -1 1 6.12323e-17 3982.25 1217)">08-Apr</text>
		</g>
		<g>
			<text fill="#595959" font-family="Verdana,sans-serif" font-weight="400" font-size="41" transform="matrix(6.12323e-17 -1 1 6.12323e-17 4049 1216)">22-Apr</text>
		</g>
		<g>
			<text fill="#595959" font-family="Verdana,sans-serif" font-weight="400" font-size="41" transform="matrix(6.12323e-17 -1 1 6.12323e-17 4115.75 1228)">06-May</text>
		</g>
		<g>
			<text fill="#595959" font-family="Verdana,sans-serif" font-weight="400" font-size="41" transform="matrix(6.12323e-17 -1 1 6.12323e-17 4182.5 1228)">20-May</text>
		</g>
		<g>
			<text fill="#595959" font-family="Verdana,sans-serif" font-weight="400" font-size="41" transform="matrix(6.12323e-17 -1 1 6.12323e-17 4245.75 1211)">03-Jun</text>
		</g>
		<g>
			<text fill="#595959" font-family="Verdana,sans-serif" font-weight="400" font-size="41" transform="matrix(6.12323e-17 -1 1 6.12323e-17 4312 1209)">17-Jun</text>
		</g>
		<g>
			<text fill="#595959" font-family="Verdana,sans-serif" font-weight="400" font-size="41" transform="matrix(1 0 0 1 3167.5 1050)">0</text>
		</g>
		<g>
			<text fill="#595959" font-family="Verdana,sans-serif" font-weight="400" font-size="41" transform="matrix(1 0 0 1 3050.5 922)">17,072</text>
		</g>
		<g>
			<text fill="#595959" font-family="Verdana,sans-serif" font-weight="400" font-size="41" transform="matrix(1 0 0 1 3048.5 794)">34,144</text>
		</g>
		<g>
			<text fill="#595959" font-family="Verdana,sans-serif" font-weight="400" font-size="41" transform="matrix(1 0 0 1 3049.5 666)">51,215</text>
		</g>
		<g>
			<text fill="#595959" font-family="Verdana,sans-serif" font-weight="400" font-size="41" transform="matrix(1 0 0 1 3048.5 538)">68,287</text>
		</g>
		<g>
			<text fill="#595959" font-family="Verdana,sans-serif" font-weight="400" font-size="41" transform="matrix(1 0 0 1 3047.5 410)">85,359</text>
		</g>
		<g>
			<text fill="#595959" font-family="Verdana,sans-serif" font-weight="400" font-size="41" transform="matrix(1 0 0 1 3544.5 1321)">Week Commencing</text>
		</g>
		<g>
			<text fill="#595959" font-family="Verdana,sans-serif" font-weight="400" font-size="46" transform="matrix(6.12323e-17 -1 1 6.12323e-17 3019.73 1048.25)">Number of Hardware Profiles</text>
		</g>
		<rect x="2918.5" y="347.5" width="1760" height="1043" stroke="#D9D9D9" stroke-width="3.4375" stroke-linejoin="round" stroke-miterlimit="10" fill="none" />
		<g>
			<path d="M3228.5 1038 3261.875 1038 3295.25 1038 3328.625 1038 3362 1038 3395.375 1038 3428.75 1038 3462.125 1038 3495.5 1038 3528.875 1038 3562.25 1038 3595.625 1038 3629 1038 3662.375 1038 3695.75 1038 3729.125 1038 3762.5 1038 3795.875 1038 3829.25 1038 3862.625 1038 3896 1038 3929.375 1038 3962.75 1038 3996.125 1038 4029.5 1038 4062.875 1038 4096.25 1038 4129.625 1038 4163 1038 4196.375 1038 4229.75 1038 4263.125 1038 4296.5 1038 4296.5 688.8000328026336 4263.125 688.8300237819094 4229.75 688.9649831886503 4196.375 689.0474583816587 4163 689.377359153692 4129.625 689.6172869878982 4096.25 689.7822373739149 4062.875 690.0896449114914 4029.5 690.4720298972575 3996.125 690.929392331213 3962.75 691.3042795721599 3929.375 691.6341803441933 3896 691.8666104335805 3862.625 692.1440269918813 3829.25 692.3914525709065 3795.875 692.57889619138 3762.5 692.7438465773967 3729.125 692.8638104944997 3695.75 693.0587518597922 3662.375 693.2611909699035 3629 693.7560421279537 3595.625 694.1159338792629 3562.25 694.5657985683994 3528.875 695.0306587471737 3495.5 695.375555008845 3462.125 695.3155730502936 3428.75 695.6079850982321 3395.375 695.9453836150846 3362 696.2153024285665 3328.625 696.5751941798756 3295.25 696.8826017174522 3261.875 697.1900092550288 3228.5 697.67736266826 3228.5 1038Z" fill="#e62d39" opacity="0.9" />
		</g>
		<g>
			<path d="M3228.5 697.67736266826 3261.875 697.1900092550288 3295.25 696.8826017174522 3328.625 696.5751941798756 3362 696.2153024285665 3395.375 695.9453836150846 3428.75 695.6079850982321 3462.125 695.3155730502936 3495.5 695.375555008845 3528.875 695.0306587471737 3562.25 694.5657985683994 3595.625 694.1159338792629 3629 693.7560421279537 3662.375 693.2611909699035 3695.75 693.0587518597922 3729.125 692.8638104944997 3762.5 692.7438465773967 3795.875 692.57889619138 3829.25 692.3914525709065 3862.625 692.1440269918813 3896 691.8666104335805 3929.375 691.6341803441933 3962.75 691.3042795721599 3996.125 690.929392331213 4029.5 690.4720298972575 4062.875 690.0896449114914 4096.25 689.7822373739149 4129.625 689.6172869878982 4163 689.377359153692 4196.375 689.0474583816587 4229.75 688.9649831886503 4263.125 688.8300237819094 4296.5 688.8000328026336 4296.5 519.7783713492427 4263.125 519.8308555629753 4229.75 520.0033036938108 4196.375 520.0932766316382 4163 520.5656345552314 4129.625 521.0229969891868 4096.25 521.4128797197718 4062.875 521.892735388184 4029.5 522.4700617392425 3996.125 523.1448587729473 3962.75 523.7071896343678 3929.375 524.2020407924178 3896 524.5169460748134 3862.625 524.8768378261226 3829.25 525.2442273222508 3795.875 525.4916529012758 3762.5 525.7690694595766 3729.125 525.9490153352313 3695.75 526.2414273831699 3662.375 526.5188439414707 3629 527.118663526986 3595.625 527.6060169402173 3562.25 528.1833432912757 3528.875 528.7906606216098 3495.5 529.2705162900222 3462.125 529.2180320762897 3428.75 529.5854215724177 3395.375 530.072774985649 3362 530.6201103574316 3328.625 531.2124321981279 3295.25 531.8572382525568 3261.875 532.4420623484343 3228.5 533.1168593821391 3228.5 697.67736266826Z" fill="#f6a118" opacity="0.9" />
		</g>
		<g>
			<path d="M3228.5 533.1168593821391 3261.875 532.4420623484343 3295.25 531.8572382525568 3328.625 531.2124321981279 3362 530.6201103574316 3395.375 530.072774985649 3428.75 529.5854215724177 3462.125 529.2180320762897 3495.5 529.2705162900222 3528.875 528.7906606216098 3562.25 528.1833432912757 3595.625 527.6060169402173 3629 527.118663526986 3662.375 526.5188439414707 3695.75 526.2414273831699 3729.125 525.9490153352313 3762.5 525.7690694595766 3795.875 525.4916529012758 3829.25 525.2442273222508 3862.625 524.8768378261226 3896 524.5169460748134 3929.375 524.2020407924178 3962.75 523.7071896343678 3996.125 523.1448587729473 4029.5 522.4700617392425 4062.875 521.892735388184 4096.25 521.4128797197718 4129.625 521.0229969891868 4163 520.5656345552314 4196.375 520.0932766316382 4229.75 520.0033036938108 4263.125 519.8308555629753 4296.5 519.7783713492427 4296.5 441.64437259105665 4263.125 441.70435454960824 4229.75 441.89179817008164 4196.375 441.98926885272795 4163 442.49161775559696 4129.625 442.993966658466 4096.25 443.41384036832676 4062.875 443.9311847608336 4029.5 444.56099532562473 3996.125 445.2732810834242 3962.75 445.8506074344826 3929.375 446.3904450614463 3896 446.72034583347977 3862.625 447.1102285640647 3829.25 447.4926135498308 3795.875 447.7475368736747 3762.5 448.04744666643234 3729.125 448.2423880317249 3695.75 448.54979556930147 3662.375 448.85720310687793 3629 449.4645204372122 3595.625 449.97436708490034 3562.25 450.5666889255966 3528.875 451.23398821448234 3495.5 451.74383486217044 3462.125 451.7438348621705 3428.75 452.1187221031174 3395.375 452.696048454176 3362 453.28087255005335 3328.625 453.88069213556855 3295.25 454.5629869140922 3261.875 455.20779296852123 3228.5 455.9350742159586 3228.5 533.1168593821391Z" fill="#55c0e9" opacity="0.9" />
		</g>
		<g>
			<path d="M3228.5 455.9350742159586 3261.875 455.20779296852123 3295.25 454.5629869140922 3328.625 453.88069213556855 3362 453.28087255005335 3395.375 452.696048454176 3428.75 452.1187221031174 3462.125 451.7438348621705 3495.5 451.74383486217044 3528.875 451.23398821448234 3562.25 450.5666889255966 3595.625 449.97436708490034 3629 449.4645204372122 3662.375 448.85720310687793 3695.75 448.54979556930147 3729.125 448.2423880317249 3762.5 448.04744666643234 3795.875 447.7475368736747 3829.25 447.4926135498308 3862.625 447.1102285640647 3896 446.72034583347977 3929.375 446.3904450614463 3962.75 445.8506074344826 3996.125 445.2732810834242 4029.5 444.56099532562473 4062.875 443.9311847608336 4096.25 443.41384036832676 4129.625 442.993966658466 4163 442.49161775559696 4196.375 441.98926885272795 4229.75 441.89179817008164 4263.125 441.70435454960824 4296.5 441.64437259105665 4296.5 399.37958504668524 4263.125 400.0843730596658 4229.75 400.75917009337036 4196.375 401.4339671270751 4163 402.20623484342605 4129.625 402.81355217376023 4096.25 403.3758830351809 4062.875 404.03568457924763 4029.5 404.82294778523647 3996.125 405.58771775676854 3962.75 406.28500802493 3929.375 406.86233437598844 3896 407.22222612729763 3862.625 407.6645930716152 3829.25 408.0694712918381 3795.875 408.45185627760395 3762.5 408.9317119460162 3729.125 409.5765180004452 3695.75 410.36378120643406 3662.375 410.7986504059325 3629 411.4509542051804 3595.625 412.0957602596095 3562.25 412.7255708244005 3528.875 413.49034079593247 3495.5 414.10515587108574 3462.125 414.1051558710858 3428.75 414.57001604986 3395.375 415.25231082838377 3362 415.9421033517263 3328.625 416.6843800888014 3295.25 417.50163427406596 3261.875 418.2214177766844 3228.5 419.06866294122483 3228.5 455.9350742159586Z" fill="#fdd5a4" opacity="0.9" />
		</g>
		<g>
			<path d="M3228.5 419.06866294122483 3261.875 418.2214177766844 3295.25 417.50163427406596 3328.625 416.6843800888014 3362 415.9421033517263 3395.375 415.25231082838377 3428.75 414.57001604986 3462.125 414.1051558710858 3495.5 414.10515587108574 3528.875 413.49034079593247 3562.25 412.7255708244005 3595.625 412.0957602596095 3629 411.4509542051804 3662.375 410.7986504059325 3695.75 410.36378120643406 3729.125 409.5765180004452 3762.5 408.9317119460162 3795.875 408.45185627760395 3829.25 408.0694712918381 3862.625 407.6645930716152 3896 407.22222612729763 3929.375 406.86233437598844 3962.75 406.28500802493 3996.125 405.58771775676854 4029.5 404.82294778523647 4062.875 404.03568457924763 4096.25 403.3758830351809 4129.625 402.81355217376023 4163 402.20623484342605 4196.375 401.4339671270751 4229.75 400.75917009337036 4263.125 400.0843730596658 4296.5 399.37958504668524 4296.5 398.00000000000006 4263.125 398.7047880129806 4229.75 399.3795850466852 4196.375 400.0543820803899 4163 400.82664979674087 4129.625 401.43396712707505 4096.25 401.9962979884957 4062.875 402.65609953256245 4029.5 403.4433627385513 3996.125 404.20813271008336 3962.75 404.9204184678827 3929.375 405.49774481894116 3896 405.85763657025035 3862.625 406.3000035145679 3829.25 406.70488173479083 3795.875 407.08726672055667 3762.5 407.5671223889689 3729.125 408.21192844339794 3695.75 408.9991916493868 3662.375 409.4340608488852 3629 410.0863646481331 3595.625 410.7311707025622 3562.25 411.3609812673532 3528.875 412.1257512388852 3495.5 412.74056631403846 3462.125 412.7405663140385 3428.75 413.23541747208844 3395.375 413.9252099954312 3362 414.61500251877374 3328.625 415.3572792558488 3295.25 416.1745334411134 3261.875 416.89431694373184 3228.5 417.74156210827226 3228.5 419.06866294122483Z" fill="#005aa6" opacity="0.9" />
		</g>
		<g>
			<rect x="4372" y="431" width="22.9995" height="23" fill="#e62d39" />
		</g>
		<g>
			<text fill="#595959" font-family="Verdana,sans-serif" font-weight="400" font-size="41" transform="matrix(1 0 0 1 4404.56 454)">Smartphone</text>
		</g>
		<g>
			<rect x="4372" y="508" width="22.9995" height="23" fill="#f6a118" />
		</g>
		<g>
			<text fill="#595959" font-family="Verdana,sans-serif" font-weight="400" font-size="41" transform="matrix(1 0 0 1 4404.56 531)">Tablet</text>
		</g>
		<g>
			<rect x="4372" y="585" width="22.9995" height="23" fill="#55c0e9" />
		</g>
		<g>
			<text fill="#595959" font-family="Verdana,sans-serif" font-weight="400" font-size="41" transform="matrix(1 0 0 1 4404.56 608)">Other</text>
		</g>
		<g>
			<rect x="4372" y="662" width="22.9995" height="23" fill="#fdd5a4" />
		</g>
		<g>
			<text fill="#595959" font-family="Verdana,sans-serif" font-weight="400" font-size="41" transform="matrix(1 0 0 1 4404.56 685)">Tv</text>
		</g>
		<g>
			<rect x="4372" y="739" width="22.9995" height="23" fill="#005aa6" />
		</g>
		<g>
			<text fill="#595959" font-family="Verdana,sans-serif" font-weight="400" font-size="41" transform="matrix(1 0 0 1 4404.56 762)">Desktop</text>
		</g>
	</g>
</svg>
