<svg width="1763" height="1046"
    xmlns="http://www.w3.org/2000/svg"
	xmlns:xlink="http://www.w3.org/1999/xlink" xml:space="preserve" overflow="hidden">
	<defs>
		<clipPath id="clip0">
			<rect x="2917" y="346" width="1763" height="1046"/>
		</clipPath>
	</defs>
	<g clip-path="url(#clip0)" transform="translate(-2917 -346)">
		<rect x="2918" y="347" width="1760" height="1043" fill="#FFFFFF" />
		<g>
			<path d="
			M3228.5 974.532 4296.5 974.532
			M3228.5 910.53 4296.5 910.53
			M3228.5 846.528 4296.5 846.528
			M3228.5 781.526 4296.5 781.526
			M3228.5 717.524 4296.5 717.524
			M3228.5 653.522 4296.5 653.522
			M3228.5 589.52 4296.5 589.52
			M3228.5 525.517 4296.5 525.517
			M3228.5 461.515 4296.5 461.515
			M3228.5 397.5 4296.5 397.5" stroke="#D9D9D9" stroke-width="3.4375" stroke-linejoin="round" stroke-miterlimit="10" fill="none" />
		</g>
		<g>
			<path d="M 1038.5 4296.5 1038.5" stroke="#D9D9D9" stroke-width="3.4375" stroke-linejoin="round" stroke-miterlimit="10" fill="none" fill-rule="evenodd" />
		</g>
		<g>
			<text fill="#595959" font-family="Verdana,sans-serif" font-weight="400" font-size="41" transform="matrix(6.12323e-17 -1 1 6.12323e-17 3244.5 1225)">06-Nov</text>
		</g>
		<g>
			<text fill="#595959" font-family="Verdana,sans-serif" font-weight="400" font-size="41" transform="matrix(6.12323e-17 -1 1 6.12323e-17 3359.9594594594596 1223)">04-Dec</text>
		</g>
		<g>
			<text fill="#595959" font-family="Verdana,sans-serif" font-weight="400" font-size="41" transform="matrix(6.12323e-17 -1 1 6.12323e-17 3475.4189189189187 1210)">01-Jan</text>
		</g>
		<g>
			<text fill="#595959" font-family="Verdana,sans-serif" font-weight="400" font-size="41" transform="matrix(6.12323e-17 -1 1 6.12323e-17 3590.8783783783783 1210)">29-Jan</text>
		</g>
		<g>
			<text fill="#595959" font-family="Verdana,sans-serif" font-weight="400" font-size="41" transform="matrix(6.12323e-17 -1 1 6.12323e-17 3706.337837837838 1216)">26-Feb</text>
		</g>
		<g>
			<text fill="#595959" font-family="Verdana,sans-serif" font-weight="400" font-size="41" transform="matrix(6.12323e-17 -1 1 6.12323e-17 3821.7972972972975 1223)">25-Mar</text>
		</g>
		<g>
			<text fill="#595959" font-family="Verdana,sans-serif" font-weight="400" font-size="41" transform="matrix(6.12323e-17 -1 1 6.12323e-17 3940.7567567567567 1216)">22-Apr</text>
		</g>
		<g>
			<text fill="#595959" font-family="Verdana,sans-serif" font-weight="400" font-size="41" transform="matrix(6.12323e-17 -1 1 6.12323e-17 4056.2162162162163 1228)">20-May</text>
		</g>
		<g>
			<text fill="#595959" font-family="Verdana,sans-serif" font-weight="400" font-size="41" transform="matrix(6.12323e-17 -1 1 6.12323e-17 4167.675675675676 1209)">17-Jun</text>
		</g>
		<g>
			<text fill="#595959" font-family="Verdana,sans-serif" font-weight="400" font-size="41" transform="matrix(6.12323e-17 -1 1 6.12323e-17 4283.635135135135 1194)">15-Jul</text>
		</g>
		<g>
			<text fill="#595959" font-family="Verdana,sans-serif" font-weight="400" font-size="41" transform="matrix(1 0 0 1 3123.5 1050)">0%</text>
		</g>
		<g>
			<text fill="#595959" font-family="Verdana,sans-serif" font-weight="400" font-size="41" transform="matrix(1 0 0 1 3097.5 922)">20%</text>
		</g>
		<g>
			<text fill="#595959" font-family="Verdana,sans-serif" font-weight="400" font-size="41" transform="matrix(1 0 0 1 3096.5 794)">40%</text>
		</g>
		<g>
			<text fill="#595959" font-family="Verdana,sans-serif" font-weight="400" font-size="41" transform="matrix(1 0 0 1 3097.5 666)">60%</text>
		</g>
		<g>
			<text fill="#595959" font-family="Verdana,sans-serif" font-weight="400" font-size="41" transform="matrix(1 0 0 1 3097.5 538)">80%</text>
		</g>
		<g>
			<text fill="#595959" font-family="Verdana,sans-serif" font-weight="400" font-size="41" transform="matrix(1 0 0 1 3074.5 410)">100%</text>
		</g>
		<g>
			<text fill="#595959" font-family="Verdana,sans-serif" font-weight="400" font-size="41" transform="matrix(1 0 0 1 3544.5 1321)">Week Commencing</text>
		</g>
		<g>
			<text fill="#595959" font-family="Verdana,sans-serif" font-weight="400" font-size="46" transform="matrix(6.12323e-17 -1 1 6.12323e-17 3019.73 965.25)">Requests (% of Total)</text>
		</g>
		<rect x="2918.5" y="347.5" width="1760" height="1043" stroke="#D9D9D9" stroke-width="3.4375" stroke-linejoin="round" stroke-miterlimit="10" fill="none" />
		<g>
			<path d="M3228.5 1038 3257.364864864865 1038 3286.2297297297296 1038 3315.0945945945946 1038 3343.9594594594596 1038 3372.824324324324 1038 3401.689189189189 1038 3430.554054054054 1038 3459.4189189189187 1038 3488.2837837837837 1038 3517.1486486486488 1038 3546.0135135135133 1038 3574.8783783783783 1038 3603.7432432432433 1038 3632.608108108108 1038 3661.472972972973 1038 3690.337837837838 1038 3719.2027027027025 1038 3748.0675675675675 1038 3776.9324324324325 1038 3805.7972972972975 1038 3834.662162162162 1038 3863.527027027027 1038 3892.3918918918916 1038 3921.2567567567567 1038 3950.1216216216217 1038 3978.9864864864867 1038 4007.8513513513512 1038 4036.7162162162163 1038 4065.581081081081 1038 4094.445945945946 1038 4123.310810810811 1038 4152.175675675676 1038 4181.040540540541 1038 4209.905405405405 1038 4238.77027027027 1038 4267.635135135135 1038 4296.5 1038 4296.5 629.6835942752446 4267.635135135135 628.7570391925642 4238.77027027027 627.5176878063296 4209.905405405405 626.3963136974012 4181.040540540541 625.2428890685153 4152.175675675676 624.0667377001988 4123.310810810811 622.80172023452 4094.445945945946 632.4054355541638 4065.581081081081 630.9533026623258 4036.7162162162163 630.0731822124889 4007.8513513513512 629.6411395703622 3978.9864864864867 629.3637077507597 3950.1216216216217 629.112232069277 3921.2567567567567 628.7712194186788 3892.3918918918916 629.1405060461395 3863.527027027027 630.4544284738802 3834.662162162162 631.6183228637996 3805.7972972972975 647.4118241208081 3776.9324324324325 648.3895796632379 3748.0675675675675 621.5001438018157 3719.2027027027025 620.7479883324611 3690.337837837838 618.9772962489769 3661.472972972973 616.6754829613407 3632.608108108108 614.5117939817052 3603.7432432432433 615.2796120230914 3574.8783783783783 615.9275087100596 3546.0135135135133 616.3813797093885 3517.1486486486488 616.3755182018299 3488.2837837837837 569.065986327317 3459.4189189189187 568.8533275368973 3430.554054054054 570.4200135868562 3401.689189189189 571.2367304637471 3372.824324324324 574.6430294813756 3343.9594594594596 573.9159777926823 3315.0945945945946 571.940753677543 3286.2297297297296 571.7928428278394 3257.364864864865 571.6102570585995 3228.5 570.6431995209241 3228.5 1038Z" fill="#e62d39" opacity="0.9" />
		</g>
		<g>
			<path d="M3228.5 570.6431995209241 3257.364864864865 571.6102570585995 3286.2297297297296 571.7928428278394 3315.0945945945946 571.940753677543 3343.9594594594596 573.9159777926823 3372.824324324324 574.6430294813756 3401.689189189189 571.2367304637471 3430.554054054054 570.4200135868562 3459.4189189189187 568.8533275368973 3488.2837837837837 569.065986327317 3517.1486486486488 616.3755182018299 3546.0135135135133 616.3813797093885 3574.8783783783783 615.9275087100596 3603.7432432432433 615.2796120230914 3632.608108108108 614.5117939817052 3661.472972972973 616.6754829613407 3690.337837837838 618.9772962489769 3719.2027027027025 620.7479883324611 3748.0675675675675 621.5001438018157 3776.9324324324325 648.3895796632379 3805.7972972972975 647.4118241208081 3834.662162162162 631.6183228637996 3863.527027027027 630.4544284738802 3892.3918918918916 629.1405060461395 3921.2567567567567 628.7712194186788 3950.1216216216217 629.112232069277 3978.9864864864867 629.3637077507597 4007.8513513513512 629.6411395703622 4036.7162162162163 630.0731822124889 4065.581081081081 630.9533026623258 4094.445945945946 632.4054355541638 4123.310810810811 622.80172023452 4152.175675675676 624.0667377001988 4181.040540540541 625.2428890685153 4209.905405405405 626.3963136974012 4238.77027027027 627.5176878063296 4267.635135135135 628.7570391925642 4296.5 629.6835942752446 4296.5 547.7069248917836 4267.635135135135 546.4892681197156 4238.77027027027 545.0068552240035 4209.905405405405 543.5872074138473 4181.040540540541 542.2071477253921 4152.175675675676 540.7523658360859 4123.310810810811 539.1846046453284 4094.445945945946 550.69398337688 4065.581081081081 549.0305649530324 4036.7162162162163 547.8419869340069 4007.8513513513512 547.2972215888882 3978.9864864864867 546.9206806705122 3950.1216216216217 546.5765460991323 3921.2567567567567 546.1401156456737 3892.3918918918916 546.162084159149 3863.527027027027 547.0193242259644 3834.662162162162 547.5943073684911 3805.7972972972975 565.6397555577983 3776.9324324324325 566.0005705781988 3748.0675675675675 541.8846686674905 3719.2027027027025 541.0539314470215 3690.337837837838 539.8778029714027 3661.472972972973 538.0311425357806 3632.608108108108 536.4270145966814 3603.7432432432433 536.7106293649022 3574.8783783783783 536.9764016245806 3546.0135135135133 535.7941999215749 3517.1486486486488 535.7525782888524 3488.2837837837837 509.06513243323207 3459.4189189189187 509.44212806241245 3430.554054054054 509.38220585337143 3401.689189189189 509.60866877735396 3372.824324324324 511.9603578529975 3343.9594594594596 511.0153758579769 3315.0945945945946 509.7472741468517 3286.2297297297296 509.176439393107 3257.364864864865 508.6338001891333 3228.5 508.14325383903014 3228.5 570.6431995209241Z" fill="#005aa6" opacity="0.9" />
		</g>
		<g>
			<path d="M3228.5 508.14325383903014 3257.364864864865 508.6338001891333 3286.2297297297296 509.176439393107 3315.0945945945946 509.7472741468517 3343.9594594594596 511.0153758579769 3372.824324324324 511.9603578529975 3401.689189189189 509.60866877735396 3430.554054054054 509.38220585337143 3459.4189189189187 509.44212806241245 3488.2837837837837 509.06513243323207 3517.1486486486488 535.7525782888524 3546.0135135135133 535.7941999215749 3574.8783783783783 536.9764016245806 3603.7432432432433 536.7106293649022 3632.608108108108 536.4270145966814 3661.472972972973 538.0311425357806 3690.337837837838 539.8778029714027 3719.2027027027025 541.0539314470215 3748.0675675675675 541.8846686674905 3776.9324324324325 566.0005705781988 3805.7972972972975 565.6397555577983 3834.662162162162 547.5943073684911 3863.527027027027 547.0193242259644 3892.3918918918916 546.162084159149 3921.2567567567567 546.1401156456737 3950.1216216216217 546.5765460991323 3978.9864864864867 546.9206806705122 4007.8513513513512 547.2972215888882 4036.7162162162163 547.8419869340069 4065.581081081081 549.0305649530324 4094.445945945946 550.69398337688 4123.310810810811 539.1846046453284 4152.175675675676 540.7523658360859 4181.040540540541 542.2071477253921 4209.905405405405 543.5872074138473 4238.77027027027 545.0068552240035 4267.635135135135 546.4892681197156 4296.5 547.7069248917836 4296.5 523.9349092321237 4267.635135135135 522.6767257917172 4238.77027027027 521.1207351787452 4209.905405405405 519.5911430965305 4181.040540540541 518.1357144384516 4152.175675675676 516.5996074824589 4123.310810810811 514.9659833917357 4094.445945945946 527.0438985976282 4065.581081081081 525.3024251103315 4036.7162162162163 523.9562890822376 4007.8513513513512 523.2798263552974 3978.9864864864867 522.7674371524068 3950.1216216216217 522.2747415869658 3921.2567567567567 521.7061803820658 3892.3918918918916 521.4815581773842 3863.527027027027 522.0175391594702 3834.662162162162 522.2390966744398 3805.7972972972975 540.7792433621357 3776.9324324324325 540.7347903265445 3748.0675675675675 520.8422961076436 3719.2027027027025 519.941244366186 3690.337837837838 518.8725186340012 3661.472972972973 517.1348567955661 3632.608108108108 515.650021587989 3603.7432432432433 515.7382849108784 3574.8783783783783 515.8356026961703 3546.0135135135133 514.2250429205485 3517.1486486486488 514.175265377396 3488.2837837837837 492.9059942279181 3459.4189189189187 493.0966047321476 3430.554054054054 492.88332734476376 3401.689189189189 492.95479515937706 3372.824324324324 494.7801665319999 3343.9594594594596 493.78468973551225 3315.0945945945946 492.5320066774311 3286.2297297297296 491.93197908298504 3257.364864864865 491.34916929089724 3228.5 490.7876094955426 3228.5 508.14325383903014Z" fill="#55c0e9" opacity="0.9" />
		</g>
		<g>
			<path d="M3228.5 490.7876094955426 3257.364864864865 491.34916929089724 3286.2297297297296 491.93197908298504 3315.0945945945946 492.5320066774311 3343.9594594594596 493.78468973551225 3372.824324324324 494.7801665319999 3401.689189189189 492.95479515937706 3430.554054054054 492.88332734476376 3459.4189189189187 493.0966047321476 3488.2837837837837 492.9059942279181 3517.1486486486488 514.175265377396 3546.0135135135133 514.2250429205485 3574.8783783783783 515.8356026961703 3603.7432432432433 515.7382849108784 3632.608108108108 515.650021587989 3661.472972972973 517.1348567955661 3690.337837837838 518.8725186340012 3719.2027027027025 519.941244366186 3748.0675675675675 520.8422961076436 3776.9324324324325 540.7347903265445 3805.7972972972975 540.7792433621357 3834.662162162162 522.2390966744398 3863.527027027027 522.0175391594702 3892.3918918918916 521.4815581773842 3921.2567567567567 521.7061803820658 3950.1216216216217 522.2747415869658 3978.9864864864867 522.7674371524068 4007.8513513513512 523.2798263552974 4036.7162162162163 523.9562890822376 4065.581081081081 525.3024251103315 4094.445945945946 527.0438985976282 4123.310810810811 514.9659833917357 4152.175675675676 516.5996074824589 4181.040540540541 518.1357144384516 4209.905405405405 519.5911430965305 4238.77027027027 521.1207351787452 4267.635135135135 522.6767257917172 4296.5 523.9349092321237 4296.5 507.0170454704227 4267.635135135135 505.81218353227047 4238.77027027027 504.3173344906431 4209.905405405405 502.8338970689489 4181.040540540541 501.4426511937707 4152.175675675676 499.97387766322737 4123.310810810811 498.4242329984132 4094.445945945946 510.99365573350235 4065.581081081081 509.31973026750774 4036.7162162162163 508.0481610967102 4007.8513513513512 507.46130800445246 3978.9864864864867 507.0233752398185 3950.1216216216217 506.60822161328986 3921.2567567567567 506.1065487459215 3892.3918918918916 505.9043627233751 3863.527027027027 506.4216643610348 3834.662162162162 506.6484163233015 3805.7972972972975 525.7580510881946 3776.9324324324325 525.7315703546495 3748.0675675675675 502.94320923041516 3719.2027027027025 502.107038956447 3690.337837837838 501.18268987180403 3661.472972972973 499.5661579814509 3632.608108108108 498.2407663238116 3603.7432432432433 498.34179455703446 3574.8783783783783 498.4409678079612 3546.0135135135133 496.7688079778267 3517.1486486486488 496.7252878979315 3488.2837837837837 467.1119991855256 3459.4189189189187 467.30287783529656 3430.554054054054 467.12354601368946 3401.689189189189 467.18090658715477 3372.824324324324 468.4609806530692 3343.9594594594596 467.6706174617695 3315.0945945945946 466.5807912489142 3286.2297297297296 466.04765597528194 3257.364864864865 465.50683076275004 3228.5 465.1003985575009 3228.5 490.7876094955426Z" fill="#f6a118" opacity="0.9" />
		</g>
		<g>
			<path d="M3228.5 465.1003985575009 3257.364864864865 465.50683076275004 3286.2297297297296 466.04765597528194 3315.0945945945946 466.5807912489142 3343.9594594594596 467.6706174617695 3372.824324324324 468.4609806530692 3401.689189189189 467.18090658715477 3430.554054054054 467.12354601368946 3459.4189189189187 467.30287783529656 3488.2837837837837 467.1119991855256 3517.1486486486488 496.7252878979315 3546.0135135135133 496.7688079778267 3574.8783783783783 498.4409678079612 3603.7432432432433 498.34179455703446 3632.608108108108 498.2407663238116 3661.472972972973 499.5661579814509 3690.337837837838 501.18268987180403 3719.2027027027025 502.107038956447 3748.0675675675675 502.94320923041516 3776.9324324324325 525.7315703546495 3805.7972972972975 525.7580510881946 3834.662162162162 506.6484163233015 3863.527027027027 506.4216643610348 3892.3918918918916 505.9043627233751 3921.2567567567567 506.1065487459215 3950.1216216216217 506.60822161328986 3978.9864864864867 507.0233752398185 4007.8513513513512 507.46130800445246 4036.7162162162163 508.0481610967102 4065.581081081081 509.31973026750774 4094.445945945946 510.99365573350235 4123.310810810811 498.4242329984132 4152.175675675676 499.97387766322737 4181.040540540541 501.4426511937707 4209.905405405405 502.8338970689489 4238.77027027027 504.3173344906431 4267.635135135135 505.81218353227047 4296.5 507.0170454704227 4296.5 493.7905717710478 4267.635135135135 492.5921558346354 4238.77027027027 491.08339968159794 4209.905405405405 489.589994805443 4181.040540540541 488.205911277506 4152.175675675676 486.75823132244886 4123.310810810811 485.3927174126073 4094.445945945946 498.4720025363811 4065.581081081081 497.0382614705632 4036.7162162162163 495.82345643600064 4007.8513513513512 495.20191899296304 3978.9864864864867 494.71994133496287 3950.1216216216217 494.25306019687616 3921.2567567567567 493.7747398235285 3892.3918918918916 493.46369672124194 3863.527027027027 493.7814105421057 3834.662162162162 493.8307143677906 3805.7972972972975 513.2062038257327 3776.9324324324325 513.0191600354991 3748.0675675675675 492.37221825805364 3719.2027027027025 491.90854325848505 3690.337837837838 491.3515350353937 3661.472972972973 490.22585688768174 3632.608108108108 489.18947576032576 3603.7432432432433 489.22333619864025 3574.8783783783783 489.223179567103 3546.0135135135133 489.59463668666535 3517.1486486486488 489.6274021960388 3488.2837837837837 465.84397535618723 3459.4189189189187 466.0407574120686 3430.554054054054 465.8767979346657 3401.689189189189 465.9500572477321 3372.824324324324 467.2202695247198 3343.9594594594596 466.45583538595343 3315.0945945945946 465.39864568725244 3286.2297297297296 464.88886642683036 3257.364864864865 464.365762498016 3228.5 463.97855376512575 3228.5 465.1003985575009Z" fill="#fdd5a4" opacity="0.9" />
		</g>
		<g>
			<path d="M3228.5 463.97855376512575 3257.364864864865 464.365762498016 3286.2297297297296 464.88886642683036 3315.0945945945946 465.39864568725244 3343.9594594594596 466.45583538595343 3372.824324324324 467.2202695247198 3401.689189189189 465.9500572477321 3430.554054054054 465.8767979346657 3459.4189189189187 466.0407574120686 3488.2837837837837 465.84397535618723 3517.1486486486488 489.6274021960388 3546.0135135135133 489.59463668666535 3574.8783783783783 489.223179567103 3603.7432432432433 489.22333619864025 3632.608108108108 489.18947576032576 3661.472972972973 490.22585688768174 3690.337837837838 491.3515350353937 3719.2027027027025 491.90854325848505 3748.0675675675675 492.37221825805364 3776.9324324324325 513.0191600354991 3805.7972972972975 513.2062038257327 3834.662162162162 493.8307143677906 3863.527027027027 493.7814105421057 3892.3918918918916 493.46369672124194 3921.2567567567567 493.7747398235285 3950.1216216216217 494.25306019687616 3978.9864864864867 494.71994133496287 4007.8513513513512 495.20191899296304 4036.7162162162163 495.82345643600064 4065.581081081081 497.0382614705632 4094.445945945946 498.4720025363811 4123.310810810811 485.3927174126073 4152.175675675676 486.75823132244886 4181.040540540541 488.205911277506 4209.905405405405 489.589994805443 4238.77027027027 491.08339968159794 4267.635135135135 492.5921558346354 4296.5 493.7905717710478 4296.5 398 4267.635135135135 397.9999999999999 4238.77027027027 398 4209.905405405405 397.9999999999999 4181.040540540541 397.9999999999999 4152.175675675676 398.00000000000006 4123.310810810811 398 4094.445945945946 398 4065.581081081081 397.9999999999999 4036.7162162162163 398.0000000000001 4007.8513513513512 397.9999999999999 3978.9864864864867 398 3950.1216216216217 398 3921.2567567567567 397.99999999999994 3892.3918918918916 398 3863.527027027027 397.9999999999999 3834.662162162162 398.0000000000001 3805.7972972972975 398.0000000000001 3776.9324324324325 398 3748.0675675675675 397.9999999999999 3719.2027027027025 398.0000000000001 3690.337837837838 398 3661.472972972973 397.99999999999994 3632.608108108108 398 3603.7432432432433 398 3574.8783783783783 397.99999999999994 3546.0135135135133 398.0000000000001 3517.1486486486488 397.9999999999999 3488.2837837837837 397.9999999999999 3459.4189189189187 398 3430.554054054054 397.9999999999999 3401.689189189189 397.99999999999994 3372.824324324324 397.9999999999999 3343.9594594594596 397.99999999999994 3315.0945945945946 398 3286.2297297297296 398.00000000000006 3257.364864864865 397.99999999999983 3228.5 398.0000000000001 3228.5 463.97855376512575Z" fill="#393d41" opacity="0.9" />
		</g>
		<g>
			<rect x="4372" y="431" width="22.9995" height="23" fill="#e62d39" />
		</g>
		<g>
			<text fill="#595959" font-family="Verdana,sans-serif" font-weight="400" font-size="41" transform="matrix(1 0 0 1 4404.56 454)">Smartphone</text>
		</g>
		<g>
			<rect x="4372" y="508" width="22.9995" height="23" fill="#005aa6" />
		</g>
		<g>
			<text fill="#595959" font-family="Verdana,sans-serif" font-weight="400" font-size="41" transform="matrix(1 0 0 1 4404.56 531)">Desktop</text>
		</g>
		<g>
			<rect x="4372" y="585" width="22.9995" height="23" fill="#55c0e9" />
		</g>
		<g>
			<text fill="#595959" font-family="Verdana,sans-serif" font-weight="400" font-size="41" transform="matrix(1 0 0 1 4404.56 608)">Other</text>
		</g>
		<g>
			<rect x="4372" y="662" width="22.9995" height="23" fill="#f6a118" />
		</g>
		<g>
			<text fill="#595959" font-family="Verdana,sans-serif" font-weight="400" font-size="41" transform="matrix(1 0 0 1 4404.56 685)">Tablet</text>
		</g>
		<g>
			<rect x="4372" y="739" width="22.9995" height="23" fill="#fdd5a4" />
		</g>
		<g>
			<text fill="#595959" font-family="Verdana,sans-serif" font-weight="400" font-size="41" transform="matrix(1 0 0 1 4404.56 762)">Tv</text>
		</g>
		<g>
			<rect x="4372" y="816" width="22.9995" height="23" fill="#393d41" />
		</g>
		<g>
			<text fill="#595959" font-family="Verdana,sans-serif" font-weight="400" font-size="41" transform="matrix(1 0 0 1 4404.56 839)">Unclassified</text>
		</g>
	</g>
</svg>
