<svg width="1763" height="1046"
    xmlns="http://www.w3.org/2000/svg"
	xmlns:xlink="http://www.w3.org/1999/xlink" xml:space="preserve" overflow="hidden">
	<defs>
		<clipPath id="clip0">
			<rect x="2917" y="346" width="1763" height="1046"/>
		</clipPath>
	</defs>
	<g clip-path="url(#clip0)" transform="translate(-2917 -346)">
		<rect x="2918" y="347" width="1760" height="1043" fill="#FFFFFF" />
		<g>
			<path d="
			M3228.5 974.532 4296.5 974.532
			M3228.5 910.53 4296.5 910.53
			M3228.5 846.528 4296.5 846.528
			M3228.5 781.526 4296.5 781.526
			M3228.5 717.524 4296.5 717.524
			M3228.5 653.522 4296.5 653.522
			M3228.5 589.52 4296.5 589.52
			M3228.5 525.517 4296.5 525.517
			M3228.5 461.515 4296.5 461.515
			M3228.5 397.5 4296.5 397.5" stroke="#D9D9D9" stroke-width="3.4375" stroke-linejoin="round" stroke-miterlimit="10" fill="none" />
		</g>
		<g>
			<path d="M 1038.5 4296.5 1038.5" stroke="#D9D9D9" stroke-width="3.4375" stroke-linejoin="round" stroke-miterlimit="10" fill="none" fill-rule="evenodd" />
		</g>
		<g>
			<text fill="#595959" font-family="Verdana,sans-serif" font-weight="400" font-size="41" transform="matrix(6.12323e-17 -1 1 6.12323e-17 3248 1214)">15-Apr</text>
		</g>
		<g>
			<text fill="#595959" font-family="Verdana,sans-serif" font-weight="400" font-size="41" transform="matrix(6.12323e-17 -1 1 6.12323e-17 3331.764705882353 1226)">13-May</text>
		</g>
		<g>
			<text fill="#595959" font-family="Verdana,sans-serif" font-weight="400" font-size="41" transform="matrix(6.12323e-17 -1 1 6.12323e-17 3412.029411764706 1209)">10-Jun</text>
		</g>
		<g>
			<text fill="#595959" font-family="Verdana,sans-serif" font-weight="400" font-size="41" transform="matrix(6.12323e-17 -1 1 6.12323e-17 3495.794117647059 1197)">08-Jul</text>
		</g>
		<g>
			<text fill="#595959" font-family="Verdana,sans-serif" font-weight="400" font-size="41" transform="matrix(6.12323e-17 -1 1 6.12323e-17 3583.0588235294117 1221)">05-Aug</text>
		</g>
		<g>
			<text fill="#595959" font-family="Verdana,sans-serif" font-weight="400" font-size="41" transform="matrix(6.12323e-17 -1 1 6.12323e-17 3666.823529411765 1222)">02-Sep</text>
		</g>
		<g>
			<text fill="#595959" font-family="Verdana,sans-serif" font-weight="400" font-size="41" transform="matrix(6.12323e-17 -1 1 6.12323e-17 3750.5882352941176 1221)">30-Sep</text>
		</g>
		<g>
			<text fill="#595959" font-family="Verdana,sans-serif" font-weight="400" font-size="41" transform="matrix(6.12323e-17 -1 1 6.12323e-17 3830.8529411764707 1215)">28-Oct</text>
		</g>
		<g>
			<text fill="#595959" font-family="Verdana,sans-serif" font-weight="400" font-size="41" transform="matrix(6.12323e-17 -1 1 6.12323e-17 3914.6176470588234 1224)">25-Nov</text>
		</g>
		<g>
			<text fill="#595959" font-family="Verdana,sans-serif" font-weight="400" font-size="41" transform="matrix(6.12323e-17 -1 1 6.12323e-17 3998.3823529411766 1222)">30-Dec</text>
		</g>
		<g>
			<text fill="#595959" font-family="Verdana,sans-serif" font-weight="400" font-size="41" transform="matrix(6.12323e-17 -1 1 6.12323e-17 4082.1470588235293 1210)">27-Jan</text>
		</g>
		<g>
			<text fill="#595959" font-family="Verdana,sans-serif" font-weight="400" font-size="41" transform="matrix(6.12323e-17 -1 1 6.12323e-17 4165.911764705882 1216)">24-Feb</text>
		</g>
		<g>
			<text fill="#595959" font-family="Verdana,sans-serif" font-weight="400" font-size="41" transform="matrix(6.12323e-17 -1 1 6.12323e-17 4249.676470588235 1223)">24-Mar</text>
		</g>
		<g>
			<text fill="#595959" font-family="Verdana,sans-serif" font-weight="400" font-size="41" transform="matrix(1 0 0 1 3167.5 1050)">0</text>
		</g>
		<g>
			<text fill="#595959" font-family="Verdana,sans-serif" font-weight="400" font-size="41" transform="matrix(1 0 0 1 3050.5 922)">17,887</text>
		</g>
		<g>
			<text fill="#595959" font-family="Verdana,sans-serif" font-weight="400" font-size="41" transform="matrix(1 0 0 1 3049.5 794)">35,775</text>
		</g>
		<g>
			<text fill="#595959" font-family="Verdana,sans-serif" font-weight="400" font-size="41" transform="matrix(1 0 0 1 3049.5 666)">53,662</text>
		</g>
		<g>
			<text fill="#595959" font-family="Verdana,sans-serif" font-weight="400" font-size="41" transform="matrix(1 0 0 1 3048.5 538)">71,550</text>
		</g>
		<g>
			<text fill="#595959" font-family="Verdana,sans-serif" font-weight="400" font-size="41" transform="matrix(1 0 0 1 3047.5 410)">89,437</text>
		</g>
		<g>
			<text fill="#595959" font-family="Verdana,sans-serif" font-weight="400" font-size="41" transform="matrix(1 0 0 1 3544.5 1321)">Week Commencing</text>
		</g>
		<g>
			<text fill="#595959" font-family="Verdana,sans-serif" font-weight="400" font-size="46" transform="matrix(6.12323e-17 -1 1 6.12323e-17 3019.73 1048.25)">Number of Hardware Profiles</text>
		</g>
		<rect x="2918.5" y="347.5" width="1760" height="1043" stroke="#D9D9D9" stroke-width="3.4375" stroke-linejoin="round" stroke-miterlimit="10" fill="none" />
		<g>
			<path d="M3228.5 1038 3249.4411764705883 1038 3270.3823529411766 1038 3291.323529411765 1038 3312.264705882353 1038 3333.205882352941 1038 3354.1470588235293 1038 3375.0882352941176 1038 3396.029411764706 1038 3416.970588235294 1038 3437.9117647058824 1038 3458.8529411764707 1038 3479.794117647059 1038 3500.735294117647 1038 3521.676470588235 1038 3542.6176470588234 1038 3563.5588235294117 1038 3584.5 1038 3605.4411764705883 1038 3626.3823529411766 1038 3647.323529411765 1038 3668.264705882353 1038 3689.205882352941 1038 3710.1470588235293 1038 3731.0882352941176 1038 3752.029411764706 1038 3772.970588235294 1038 3793.9117647058824 1038 3814.8529411764707 1038 3835.7941176470586 1038 3856.735294117647 1038 3877.676470588235 1038 3898.6176470588234 1038 3919.5588235294117 1038 3940.5 1038 3961.4411764705883 1038 3982.3823529411766 1038 4003.323529411765 1038 4024.264705882353 1038 4045.2058823529414 1038 4066.1470588235293 1038 4087.0882352941176 1038 4108.029411764706 1038 4128.970588235294 1038 4149.911764705882 1038 4170.85294117647 1038 4191.794117647059 1038 4212.735294117647 1038 4233.676470588235 1038 4254.617647058823 1038 4275.558823529412 1038 4296.5 1038 4296.5 691.5626194975234 4275.558823529412 691.9204132517862 4254.617647058823 692.2281158804522 4233.676470588235 692.5644420094592 4212.735294117647 692.9580151391483 4191.794117647059 693.3086530183257 4170.85294117647 693.6736026476738 4149.911764705882 693.9741494012545 4128.970588235294 694.3748784060288 4108.029411764706 694.7398280353768 4087.0882352941176 695.1405570401512 4066.1470588235293 695.4911949193287 4045.2058823529414 695.7988975479947 4024.264705882353 696.0922884264901 4003.323529411765 696.3713675548152 3982.3823529411766 696.5717320572023 3961.4411764705883 696.7577848094189 3940.5 697.0368639377439 3919.5588235294117 697.4232811923478 3898.6176470588234 697.8096984469514 3877.676470588235 698.131712825788 3856.735294117647 698.3964802039425 3835.7941176470586 698.6254682066706 3814.8529411764707 698.8973914599103 3793.9117647058824 699.2480293390879 3772.970588235294 699.6058230933506 3752.029411764706 699.9349933472724 3731.0882352941176 700.2283842257679 3710.1470588235293 700.4144369779845 3689.205882352941 700.8080101076736 3668.264705882353 701.2874537383857 3647.323529411765 701.5593769916254 3626.3823529411766 701.7597414940126 3605.4411764705883 702.0101971219965 3584.5 702.3178997506625 3563.5588235294117 702.6041347540727 3542.6176470588234 702.8331227568009 3521.676470588235 703.2052282612342 3500.735294117647 703.5129308899002 3479.794117647059 703.842101143822 3458.8529411764707 704.1426478974026 3437.9117647058824 704.4575064011539 3416.970588235294 704.7222737793084 3396.029411764706 704.7508972796493 3375.0882352941176 704.8797030311839 3354.1470588235293 704.9584176571218 3333.205882352941 705.273276160873 3312.264705882353 705.5022641636012 3291.323529411765 705.6596934154768 3270.3823529411766 705.9530842939723 3249.4411764705883 706.3180339233204 3228.5 706.7545423035209 3228.5 1038Z" fill="#e62d39" opacity="0.9" />
		</g>
		<g>
			<path d="M3228.5 706.7545423035209 3249.4411764705883 706.3180339233204 3270.3823529411766 705.9530842939723 3291.323529411765 705.6596934154768 3312.264705882353 705.5022641636012 3333.205882352941 705.273276160873 3354.1470588235293 704.9584176571218 3375.0882352941176 704.8797030311839 3396.029411764706 704.7508972796493 3416.970588235294 704.7222737793084 3437.9117647058824 704.4575064011539 3458.8529411764707 704.1426478974026 3479.794117647059 703.842101143822 3500.735294117647 703.5129308899002 3521.676470588235 703.2052282612342 3542.6176470588234 702.8331227568009 3563.5588235294117 702.6041347540727 3584.5 702.3178997506625 3605.4411764705883 702.0101971219965 3626.3823529411766 701.7597414940126 3647.323529411765 701.5593769916254 3668.264705882353 701.2874537383857 3689.205882352941 700.8080101076736 3710.1470588235293 700.4144369779845 3731.0882352941176 700.2283842257679 3752.029411764706 699.9349933472724 3772.970588235294 699.6058230933506 3793.9117647058824 699.2480293390879 3814.8529411764707 698.8973914599103 3835.7941176470586 698.6254682066706 3856.735294117647 698.3964802039425 3877.676470588235 698.131712825788 3898.6176470588234 697.8096984469514 3919.5588235294117 697.4232811923478 3940.5 697.0368639377439 3961.4411764705883 696.7577848094189 3982.3823529411766 696.5717320572023 4003.323529411765 696.3713675548152 4024.264705882353 696.0922884264901 4045.2058823529414 695.7988975479947 4066.1470588235293 695.4911949193287 4087.0882352941176 695.1405570401512 4108.029411764706 694.7398280353768 4128.970588235294 694.3748784060288 4149.911764705882 693.9741494012545 4170.85294117647 693.6736026476738 4191.794117647059 693.3086530183257 4212.735294117647 692.9580151391483 4233.676470588235 692.5644420094592 4254.617647058823 692.2281158804522 4275.558823529412 691.9204132517862 4296.5 691.5626194975234 4296.5 525.4604470185718 4275.558823529412 525.9756700247101 4254.617647058823 526.4551136554222 4233.676470588235 526.977492536646 4212.735294117647 527.4927155427844 4191.794117647059 527.9506915482406 4170.85294117647 528.4158234287822 4149.911764705882 528.8165524335566 4128.970588235294 529.2888401891834 4108.029411764706 529.7969073202365 4087.0882352941176 530.3049744512898 4066.1470588235293 530.7200152062345 4045.2058823529414 531.1851470867762 4024.264705882353 531.6431230922325 4003.323529411765 532.0796314724331 3982.3823529411766 532.3229312253318 3961.4411764705883 532.5376074778894 3940.5 532.9383364826638 3919.5588235294117 533.3676889877792 3898.6176470588234 533.9473148696848 3877.676470588235 534.3551997495443 3856.735294117647 534.7702405044893 3835.7941176470586 535.1495018840077 3814.8529411764707 535.636101389805 3793.9117647058824 536.108389145432 3772.970588235294 536.5520534007178 3752.029411764706 537.0171852812595 3731.0882352941176 537.4608495365453 3710.1470588235293 537.7757080402964 3689.205882352941 538.3052427966054 3668.264705882353 538.8490893030848 3647.323529411765 539.2927535583707 3626.3823529411766 539.6004561870368 3605.4411764705883 539.943938191129 3584.5 540.3732906962443 3563.5588235294117 540.7453962006775 3542.6176470588234 541.1246575801961 3521.676470588235 541.5826335856525 3500.735294117647 542.0191419658531 3479.794117647059 542.4198709706275 3458.8529411764707 542.8492234757427 3437.9117647058824 543.0710556033856 3416.970588235294 543.4073817323927 3396.029411764706 543.4574728579894 3375.0882352941176 543.6220579849503 3354.1470588235293 543.7079284859734 3333.205882352941 544.1587486163445 3312.264705882353 544.5952569965451 3291.323529411765 544.9673625009783 3270.3823529411766 545.4253385064347 3249.4411764705883 545.9763408879994 3228.5 546.6203696456723 3228.5 706.7545423035209Z" fill="#f6a118" opacity="0.9" />
		</g>
		<g>
			<path d="M3228.5 546.6203696456723 3249.4411764705883 545.9763408879994 3270.3823529411766 545.4253385064347 3291.323529411765 544.9673625009783 3312.264705882353 544.5952569965451 3333.205882352941 544.1587486163445 3354.1470588235293 543.7079284859734 3375.0882352941176 543.6220579849503 3396.029411764706 543.4574728579894 3416.970588235294 543.4073817323927 3437.9117647058824 543.0710556033856 3458.8529411764707 542.8492234757427 3479.794117647059 542.4198709706275 3500.735294117647 542.0191419658531 3521.676470588235 541.5826335856525 3542.6176470588234 541.1246575801961 3563.5588235294117 540.7453962006775 3584.5 540.3732906962443 3605.4411764705883 539.943938191129 3626.3823529411766 539.6004561870368 3647.323529411765 539.2927535583707 3668.264705882353 538.8490893030848 3689.205882352941 538.3052427966054 3710.1470588235293 537.7757080402964 3731.0882352941176 537.4608495365453 3752.029411764706 537.0171852812595 3772.970588235294 536.5520534007178 3793.9117647058824 536.108389145432 3814.8529411764707 535.636101389805 3835.7941176470586 535.1495018840077 3856.735294117647 534.7702405044893 3877.676470588235 534.3551997495443 3898.6176470588234 533.9473148696848 3919.5588235294117 533.3676889877792 3940.5 532.9383364826638 3961.4411764705883 532.5376074778894 3982.3823529411766 532.3229312253318 4003.323529411765 532.0796314724331 4024.264705882353 531.6431230922325 4045.2058823529414 531.1851470867762 4066.1470588235293 530.7200152062345 4087.0882352941176 530.3049744512898 4108.029411764706 529.7969073202365 4128.970588235294 529.2888401891834 4149.911764705882 528.8165524335566 4170.85294117647 528.4158234287822 4191.794117647059 527.9506915482406 4212.735294117647 527.4927155427844 4233.676470588235 526.977492536646 4254.617647058823 526.4551136554222 4275.558823529412 525.9756700247101 4296.5 525.4604470185718 4296.5 449.23606561042976 4275.558823529412 449.81569149233536 4254.617647058823 450.31660274830324 4233.676470588235 450.8461375046122 4212.735294117647 451.3828281360064 4191.794117647059 451.8765835168889 4170.85294117647 452.3631830226863 4149.911764705882 452.8211590281427 4128.970588235294 453.33638203428103 4108.029411764706 453.8516050404195 4087.0882352941176 454.37398392164323 4066.1470588235293 454.80333642675845 4045.2058823529414 455.3185594328969 4024.264705882353 455.8194706888647 4003.323529411765 456.2989143195769 3982.3823529411766 456.5493699475609 3961.4411764705883 456.778357950289 3940.5 457.2220222055749 3919.5588235294117 457.6656864608608 3898.6176470588234 458.3025593434484 3877.676470588235 458.7247559734785 3856.735294117647 459.1755761038497 3835.7941176470586 459.6407079843912 3814.8529411764707 460.15593099052955 3793.9117647058824 460.66399812158284 3772.970588235294 461.1362858772096 3752.029411764706 461.64435300826284 3731.0882352941176 462.1452642642307 3710.1470588235293 462.4959021434081 3689.205882352941 463.0898397754844 3668.264705882353 463.72671265807213 3647.323529411765 464.199000413699 3626.3823529411766 464.5496382928767 3605.4411764705883 464.93605554748035 3584.5 465.42265505327777 3563.5588235294117 465.8376958082225 3542.6176470588234 466.2312689379116 3521.676470588235 466.70355669353853 3500.735294117647 467.16868857408014 3479.794117647059 467.5980410791955 3458.8529411764707 468.04886120956655 3437.9117647058824 468.48536958976706 3416.970588235294 468.8360074689447 3396.029411764706 468.89325446962664 3375.0882352941176 469.07215134675806 3354.1470588235293 469.1651777228664 3333.205882352941 469.64462135357854 3312.264705882353 470.12406498429067 3291.323529411765 470.5247939890649 3270.3823529411766 471.0185493699476 3249.4411764705883 471.6196428771091 3228.5 472.29945101020826 3228.5 546.6203696456723Z" fill="#55c0e9" opacity="0.9" />
		</g>
		<g>
			<path d="M3228.5 472.29945101020826 3249.4411764705883 471.6196428771091 3270.3823529411766 471.0185493699476 3291.323529411765 470.5247939890649 3312.264705882353 470.12406498429067 3333.205882352941 469.64462135357854 3354.1470588235293 469.1651777228664 3375.0882352941176 469.07215134675806 3396.029411764706 468.89325446962664 3416.970588235294 468.8360074689447 3437.9117647058824 468.48536958976706 3458.8529411764707 468.04886120956655 3479.794117647059 467.5980410791955 3500.735294117647 467.16868857408014 3521.676470588235 466.70355669353853 3542.6176470588234 466.2312689379116 3563.5588235294117 465.8376958082225 3584.5 465.42265505327777 3605.4411764705883 464.93605554748035 3626.3823529411766 464.5496382928767 3647.323529411765 464.199000413699 3668.264705882353 463.72671265807213 3689.205882352941 463.0898397754844 3710.1470588235293 462.4959021434081 3731.0882352941176 462.1452642642307 3752.029411764706 461.64435300826284 3772.970588235294 461.1362858772096 3793.9117647058824 460.66399812158284 3814.8529411764707 460.15593099052955 3835.7941176470586 459.6407079843912 3856.735294117647 459.1755761038497 3877.676470588235 458.7247559734785 3898.6176470588234 458.3025593434484 3919.5588235294117 457.6656864608608 3940.5 457.2220222055749 3961.4411764705883 456.778357950289 3982.3823529411766 456.5493699475609 4003.323529411765 456.2989143195769 4024.264705882353 455.8194706888647 4045.2058823529414 455.3185594328969 4066.1470588235293 454.80333642675845 4087.0882352941176 454.37398392164323 4108.029411764706 453.8516050404195 4128.970588235294 453.33638203428103 4149.911764705882 452.8211590281427 4170.85294117647 452.3631830226863 4191.794117647059 451.8765835168889 4212.735294117647 451.3828281360064 4233.676470588235 450.8461375046122 4254.617647058823 450.31660274830324 4275.558823529412 449.81569149233536 4296.5 449.23606561042976 4296.5 399.3309927658576 4275.558823529412 400.09667139997987 4254.617647058823 400.79079128324963 4233.676470588235 401.470599416349 4212.735294117647 402.19334279995985 4191.794117647059 402.89461855831473 4170.85294117647 403.63882956718135 4149.911764705882 404.34726120062163 4128.970588235294 405.0700045842324 4108.029411764706 405.79274796784324 4087.0882352941176 406.50117960128364 4066.1470588235293 407.13805248387126 4045.2058823529414 407.87510761765265 4024.264705882353 408.5835392510929 4003.323529411765 409.30628263470373 3982.3823529411766 409.59967351319926 3961.4411764705883 409.90737614186514 3940.5 410.5943401500498 3919.5588235294117 411.30277178349013 3898.6176470588234 412.5407381732392 3877.676470588235 413.206234556168 3856.735294117647 413.8860426892674 3835.7941176470586 414.5873184476223 3814.8529411764707 415.2885942059773 3793.9117647058824 416.004181714503 3772.970588235294 416.705457472858 3752.029411764706 417.4067332312131 3731.0882352941176 418.10085311448285 3710.1470588235293 418.6375437458769 3689.205882352941 419.53918400661917 3668.264705882353 420.34779789125304 3647.323529411765 421.0633853997786 3626.3823529411766 421.61438778134345 3605.4411764705883 422.2870400393573 3584.5 422.96684817245665 3563.5588235294117 423.6395004304706 3542.6176470588234 424.31930856356985 3521.676470588235 425.0062725717545 3500.735294117647 425.7147042051948 3479.794117647059 426.4159799635499 3458.8529411764707 427.13872334716064 3437.9117647058824 427.8185314802598 3416.970588235294 428.4983396133592 3396.029411764706 429.17099187137313 3375.0882352941176 429.81502062904616 3354.1470588235293 430.4590493867192 3333.205882352941 431.1961045205005 3312.264705882353 431.7757304024062 3291.323529411765 432.3124210338003 3270.3823529411766 432.9421380413029 3249.4411764705883 433.6935049252547 3228.5 434.42340418395065 3228.5 472.29945101020826Z" fill="#fdd5a4" opacity="0.9" />
		</g>
		<g>
			<path d="M3228.5 434.42340418395065 3249.4411764705883 433.6935049252547 3270.3823529411766 432.9421380413029 3291.323529411765 432.3124210338003 3312.264705882353 431.7757304024062 3333.205882352941 431.1961045205005 3354.1470588235293 430.4590493867192 3375.0882352941176 429.81502062904616 3396.029411764706 429.17099187137313 3416.970588235294 428.4983396133592 3437.9117647058824 427.8185314802598 3458.8529411764707 427.13872334716064 3479.794117647059 426.4159799635499 3500.735294117647 425.7147042051948 3521.676470588235 425.0062725717545 3542.6176470588234 424.31930856356985 3563.5588235294117 423.6395004304706 3584.5 422.96684817245665 3605.4411764705883 422.2870400393573 3626.3823529411766 421.61438778134345 3647.323529411765 421.0633853997786 3668.264705882353 420.34779789125304 3689.205882352941 419.53918400661917 3710.1470588235293 418.6375437458769 3731.0882352941176 418.10085311448285 3752.029411764706 417.4067332312131 3772.970588235294 416.705457472858 3793.9117647058824 416.004181714503 3814.8529411764707 415.2885942059773 3835.7941176470586 414.5873184476223 3856.735294117647 413.8860426892674 3877.676470588235 413.206234556168 3898.6176470588234 412.5407381732392 3919.5588235294117 411.30277178349013 3940.5 410.5943401500498 3961.4411764705883 409.90737614186514 3982.3823529411766 409.59967351319926 4003.323529411765 409.30628263470373 4024.264705882353 408.5835392510929 4045.2058823529414 407.87510761765265 4066.1470588235293 407.13805248387126 4087.0882352941176 406.50117960128364 4108.029411764706 405.79274796784324 4128.970588235294 405.0700045842324 4149.911764705882 404.34726120062163 4170.85294117647 403.63882956718135 4191.794117647059 402.89461855831473 4212.735294117647 402.19334279995985 4233.676470588235 401.470599416349 4254.617647058823 400.79079128324963 4275.558823529412 400.09667139997987 4296.5 399.3309927658576 4296.5 398.00000000000006 4275.558823529412 398.7656786341223 4254.617647058823 399.4597985173921 4233.676470588235 400.13960665049143 4212.735294117647 400.8623500341023 4191.794117647059 401.5636257924572 4170.85294117647 402.3078368013238 4149.911764705882 403.0162684347641 4128.970588235294 403.7390118183748 4108.029411764706 404.4617552019857 4087.0882352941176 405.1701868354261 4066.1470588235293 405.8070597180137 4045.2058823529414 406.5441148517951 4024.264705882353 407.2525464852353 4003.323529411765 407.9752898688462 3982.3823529411766 408.2686807473417 3961.4411764705883 408.5763833760076 3940.5 409.26334738419223 3919.5588235294117 409.97177901763257 3898.6176470588234 411.20974540738166 3877.676470588235 411.87524179031044 3856.735294117647 412.55504992340985 3835.7941176470586 413.25632568176474 3814.8529411764707 413.964757315205 3793.9117647058824 414.68750069881594 3772.970588235294 415.38877645717093 3752.029411764706 416.09005221552604 3731.0882352941176 416.7841720987958 3710.1470588235293 417.32086273018984 3689.205882352941 418.2225029909321 3668.264705882353 419.031116875566 3647.323529411765 419.7467043840916 3626.3823529411766 420.2977067656564 3605.4411764705883 420.97035902367026 3584.5 421.6501671567696 3563.5588235294117 422.32281941478357 3542.6176470588234 423.0026275478828 3521.676470588235 423.68959155606746 3500.735294117647 424.39802318950774 3479.794117647059 425.09929894786285 3458.8529411764707 425.8220423314736 3437.9117647058824 426.5018504645728 3416.970588235294 427.18165859767214 3396.029411764706 427.8543108556861 3375.0882352941176 428.4983396133591 3354.1470588235293 429.14236837103215 3333.205882352941 429.8794235048135 3312.264705882353 430.4590493867192 3291.323529411765 430.9957400181133 3270.3823529411766 431.62545702561584 3249.4411764705883 432.37682390956763 3228.5 433.1067231682636 3228.5 434.42340418395065Z" fill="#005aa6" opacity="0.9" />
		</g>
		<g>
			<rect x="4372" y="431" width="22.9995" height="23" fill="#e62d39" />
		</g>
		<g>
			<text fill="#595959" font-family="Verdana,sans-serif" font-weight="400" font-size="41" transform="matrix(1 0 0 1 4404.56 454)">Smartphone</text>
		</g>
		<g>
			<rect x="4372" y="508" width="22.9995" height="23" fill="#f6a118" />
		</g>
		<g>
			<text fill="#595959" font-family="Verdana,sans-serif" font-weight="400" font-size="41" transform="matrix(1 0 0 1 4404.56 531)">Tablet</text>
		</g>
		<g>
			<rect x="4372" y="585" width="22.9995" height="23" fill="#55c0e9" />
		</g>
		<g>
			<text fill="#595959" font-family="Verdana,sans-serif" font-weight="400" font-size="41" transform="matrix(1 0 0 1 4404.56 608)">Other</text>
		</g>
		<g>
			<rect x="4372" y="662" width="22.9995" height="23" fill="#fdd5a4" />
		</g>
		<g>
			<text fill="#595959" font-family="Verdana,sans-serif" font-weight="400" font-size="41" transform="matrix(1 0 0 1 4404.56 685)">Tv</text>
		</g>
		<g>
			<rect x="4372" y="739" width="22.9995" height="23" fill="#005aa6" />
		</g>
		<g>
			<text fill="#595959" font-family="Verdana,sans-serif" font-weight="400" font-size="41" transform="matrix(1 0 0 1 4404.56 762)">Desktop</text>
		</g>
	</g>
</svg>
