<svg width="1763" height="1046"
    xmlns="http://www.w3.org/2000/svg"
	xmlns:xlink="http://www.w3.org/1999/xlink" xml:space="preserve" overflow="hidden">
	<defs>
		<clipPath id="clip0">
			<rect x="2917" y="346" width="1763" height="1046"/>
		</clipPath>
	</defs>
	<g clip-path="url(#clip0)" transform="translate(-2917 -346)">
		<rect x="2918" y="347" width="1760" height="1043" fill="#FFFFFF" />
		<g>
			<path d="
			M3228.5 974.532 4296.5 974.532
			M3228.5 910.53 4296.5 910.53
			M3228.5 846.528 4296.5 846.528
			M3228.5 781.526 4296.5 781.526
			M3228.5 717.524 4296.5 717.524
			M3228.5 653.522 4296.5 653.522
			M3228.5 589.52 4296.5 589.52
			M3228.5 525.517 4296.5 525.517
			M3228.5 461.515 4296.5 461.515
			M3228.5 397.5 4296.5 397.5" stroke="#D9D9D9" stroke-width="3.4375" stroke-linejoin="round" stroke-miterlimit="10" fill="none" />
		</g>
		<g>
			<path d="M 1038.5 4296.5 1038.5" stroke="#D9D9D9" stroke-width="3.4375" stroke-linejoin="round" stroke-miterlimit="10" fill="none" fill-rule="evenodd" />
		</g>
		<g>
			<text fill="#595959" font-family="Verdana,Open Sans,DejaVu Sans,sans-serif" font-weight="400" font-size="41" transform="matrix(6.12323e-17 -1 1 6.12323e-17 3247.928955078125 1178.9985275268555)">08-Jul</text>
		</g>
		<g>
			<text fill="#595959" font-family="Verdana,Open Sans,DejaVu Sans,sans-serif" font-weight="400" font-size="41" transform="matrix(6.12323e-17 -1 1 6.12323e-17 3335.472980110013 1208.62744140625)">05-Aug</text>
		</g>
		<g>
			<text fill="#595959" font-family="Verdana,Open Sans,DejaVu Sans,sans-serif" font-weight="400" font-size="41" transform="matrix(6.12323e-17 -1 1 6.12323e-17 3422.6566535794004 1204.38330078125)">02-Sep</text>
		</g>
		<g>
			<text fill="#595959" font-family="Verdana,Open Sans,DejaVu Sans,sans-serif" font-weight="400" font-size="41" transform="matrix(6.12323e-17 -1 1 6.12323e-17 3509.8403270487884 1204.54345703125)">30-Sep</text>
		</g>
		<g>
			<text fill="#595959" font-family="Verdana,Open Sans,DejaVu Sans,sans-serif" font-weight="400" font-size="41" transform="matrix(6.12323e-17 -1 1 6.12323e-17 3592.299391143176 1201.1401290893555)">28-Oct</text>
		</g>
		<g>
			<text fill="#595959" font-family="Verdana,Open Sans,DejaVu Sans,sans-serif" font-weight="400" font-size="41" transform="matrix(6.12323e-17 -1 1 6.12323e-17 3679.463045081314 1211.47021484375)">25-Nov</text>
		</g>
		<g>
			<text fill="#595959" font-family="Verdana,Open Sans,DejaVu Sans,sans-serif" font-weight="400" font-size="41" transform="matrix(6.12323e-17 -1 1 6.12323e-17 3766.6667380819517 1207.24609375)">30-Dec</text>
		</g>
		<g>
			<text fill="#595959" font-family="Verdana,Open Sans,DejaVu Sans,sans-serif" font-weight="400" font-size="41" transform="matrix(6.12323e-17 -1 1 6.12323e-17 3857.483956473214 1191.6909103393555)">27-Jan</text>
		</g>
		<g>
			<text fill="#595959" font-family="Verdana,Open Sans,DejaVu Sans,sans-serif" font-weight="400" font-size="41" transform="matrix(6.12323e-17 -1 1 6.12323e-17 3941.744778380102 1203.08203125)">24-Feb</text>
		</g>
		<g>
			<text fill="#595959" font-family="Verdana,Open Sans,DejaVu Sans,sans-serif" font-weight="400" font-size="41" transform="matrix(6.12323e-17 -1 1 6.12323e-17 4028.1977389588646 1212.05078125)">24-Mar</text>
		</g>
		<g>
			<text fill="#595959" font-family="Verdana,Open Sans,DejaVu Sans,sans-serif" font-weight="400" font-size="41" transform="matrix(6.12323e-17 -1 1 6.12323e-17 4120.106021803253 1203.3022384643555)">21-Apr</text>
		</g>
		<g>
			<text fill="#595959" font-family="Verdana,Open Sans,DejaVu Sans,sans-serif" font-weight="400" font-size="41" transform="matrix(6.12323e-17 -1 1 6.12323e-17 4207.2896952726405 1214.75341796875)">19-May</text>
		</g>
		<g>
			<text fill="#595959" font-family="Verdana,Open Sans,DejaVu Sans,sans-serif" font-weight="400" font-size="41" transform="matrix(6.12323e-17 -1 1 6.12323e-17 4293.4023238201535 1194.0532150268555)">23-Jun</text>
		</g>
		<g>
			<text fill="#595959" font-family="Verdana,Open Sans,DejaVu Sans,sans-serif" font-weight="400" font-size="41" transform="matrix(1 0 0 1 3135.4482421875 1050)">0%</text>
		</g>
		<g>
			<text fill="#595959" font-family="Verdana,Open Sans,DejaVu Sans,sans-serif" font-weight="400" font-size="41" transform="matrix(1 0 0 1 3111.96533203125 922)">20%</text>
		</g>
		<g>
			<text fill="#595959" font-family="Verdana,Open Sans,DejaVu Sans,sans-serif" font-weight="400" font-size="41" transform="matrix(1 0 0 1 3110.82421875 794)">40%</text>
		</g>
		<g>
			<text fill="#595959" font-family="Verdana,Open Sans,DejaVu Sans,sans-serif" font-weight="400" font-size="41" transform="matrix(1 0 0 1 3112.3056640625 666)">60%</text>
		</g>
		<g>
			<text fill="#595959" font-family="Verdana,Open Sans,DejaVu Sans,sans-serif" font-weight="400" font-size="41" transform="matrix(1 0 0 1 3112.04541015625 538)">80%</text>
		</g>
		<g>
			<text fill="#595959" font-family="Verdana,Open Sans,DejaVu Sans,sans-serif" font-weight="400" font-size="41" transform="matrix(1 0 0 1 3090.2841796875 410)">100%</text>
		</g>
		<g>
			<text fill="#595959" font-family="Verdana,Open Sans,DejaVu Sans,sans-serif" font-weight="400" font-size="41" transform="matrix(1 0 0 1 3556.97119140625 1321)">Week Commencing</text>
		</g>
		<g>
			<text fill="#595959" font-family="Verdana,Open Sans,DejaVu Sans,sans-serif" font-weight="400" font-size="46" transform="matrix(6.12323e-17 -1 1 6.12323e-17 3019.73 936.7665710449219)">Requests (% of Total)</text>
		</g>
		<rect x="2918.5" y="347.5" width="1760" height="1043" stroke="#D9D9D9" stroke-width="3.4375" stroke-linejoin="round" stroke-miterlimit="10" fill="none" />
		<g>
			<path d="M3228.5 1038 3250.295918367347 1038 3272.091836734694 1038 3293.887755102041 1038 3315.683673469388 1038 3337.4795918367345 1038 3359.2755102040815 1038 3381.0714285714284 1038 3402.8673469387754 1038 3424.6632653061224 1038 3446.4591836734694 1038 3468.2551020408164 1038 3490.0510204081634 1038 3511.8469387755104 1038 3533.6428571428573 1038 3555.4387755102043 1038 3577.234693877551 1038 3599.030612244898 1038 3620.826530612245 1038 3642.622448979592 1038 3664.418367346939 1038 3686.214285714286 1038 3708.0102040816328 1038 3729.8061224489797 1038 3751.6020408163267 1038 3773.3979591836733 1038 3795.1938775510203 1038 3816.9897959183672 1038 3838.785714285714 1038 3860.581632653061 1038 3882.377551020408 1038 3904.173469387755 1038 3925.969387755102 1038 3947.765306122449 1038 3969.5612244897957 1038 3991.357142857143 1038 4013.1530612244896 1038 4034.9489795918366 1038 4056.7448979591836 1038 4078.5408163265306 1038 4100.336734693878 1038 4122.132653061224 1038 4143.928571428572 1038 4165.724489795918 1038 4187.5204081632655 1038 4209.316326530612 1038 4231.1122448979595 1038 4252.908163265306 1038 4274.7040816326535 1038 4296.5 1038 4296.5 526.0738068609967 4274.7040816326535 526.0690930129186 4252.908163265306 526.4517905907722 4231.1122448979595 526.966587562726 4209.316326530612 527.7344479046612 4187.5204081632655 528.0922596265774 4165.724489795918 528.3637575953018 4143.928571428572 528.4473950245434 4122.132653061224 528.3817437118579 4100.336734693878 528.3209049784523 4078.5408163265306 528.6035113858115 4056.7448979591836 529.0722280244075 4034.9489795918366 529.4214956662862 4013.1530612244896 529.807429199031 3991.357142857143 533.5058286789898 3969.5612244897957 533.4031264720519 3947.765306122449 533.4021762961523 3925.969387755102 533.7756525096236 3904.173469387755 533.8956466575289 3882.377551020408 533.9572095457534 3860.581632653061 533.4841990448925 3838.785714285714 533.4528010722697 3816.9897959183672 533.722746014736 3795.1938775510203 533.7853664259474 3773.3979591836733 533.8294455926118 3751.6020408163267 533.7499584959044 3729.8061224489797 533.5577242345337 3708.0102040816328 533.3794235575219 3686.214285714286 533.1839579715512 3664.418367346939 532.7385960569093 3642.622448979592 532.9945218339117 3620.826530612245 533.5883597667535 3599.030612244898 534.4892592748513 3577.234693877551 535.2648007319358 3555.4387755102043 642.4592997578948 3533.6428571428573 641.7348258019537 3511.8469387755104 641.0274072878076 3490.0510204081634 640.0328656683237 3468.2551020408164 638.7439704461906 3446.4591836734694 637.5953366301156 3424.6632653061224 636.388984334016 3402.8673469387754 635.2830954215428 3381.0714285714284 634.2801376637599 3359.2755102040815 633.5123019251453 3337.4795918367345 632.703376074059 3315.683673469388 631.9415100696045 3293.887755102041 630.857109120077 3272.091836734694 629.6835942752446 3250.295918367347 628.7570391925642 3228.5 627.5176878063296 3228.5 1038Z" fill="#e62d39" opacity="0.9" />
		</g>
		<g>
			<path d="M3228.5 627.5176878063296 3250.295918367347 628.7570391925642 3272.091836734694 629.6835942752446 3293.887755102041 630.857109120077 3315.683673469388 631.9415100696045 3337.4795918367345 632.703376074059 3359.2755102040815 633.5123019251453 3381.0714285714284 634.2801376637599 3402.8673469387754 635.2830954215428 3424.6632653061224 636.388984334016 3446.4591836734694 637.5953366301156 3468.2551020408164 638.7439704461906 3490.0510204081634 640.0328656683237 3511.8469387755104 641.0274072878076 3533.6428571428573 641.7348258019537 3555.4387755102043 642.4592997578948 3577.234693877551 535.2648007319358 3599.030612244898 534.4892592748513 3620.826530612245 533.5883597667535 3642.622448979592 532.9945218339117 3664.418367346939 532.7385960569093 3686.214285714286 533.1839579715512 3708.0102040816328 533.3794235575219 3729.8061224489797 533.5577242345337 3751.6020408163267 533.7499584959044 3773.3979591836733 533.8294455926118 3795.1938775510203 533.7853664259474 3816.9897959183672 533.722746014736 3838.785714285714 533.4528010722697 3860.581632653061 533.4841990448925 3882.377551020408 533.9572095457534 3904.173469387755 533.8956466575289 3925.969387755102 533.7756525096236 3947.765306122449 533.4021762961523 3969.5612244897957 533.4031264720519 3991.357142857143 533.5058286789898 4013.1530612244896 529.807429199031 4034.9489795918366 529.4214956662862 4056.7448979591836 529.0722280244075 4078.5408163265306 528.6035113858115 4100.336734693878 528.3209049784523 4122.132653061224 528.3817437118579 4143.928571428572 528.4473950245434 4165.724489795918 528.3637575953018 4187.5204081632655 528.0922596265774 4209.316326530612 527.7344479046612 4231.1122448979595 526.966587562726 4252.908163265306 526.4517905907722 4274.7040816326535 526.0690930129186 4296.5 526.0738068609967 4296.5 440.7320769519542 4274.7040816326535 440.71015435347675 4252.908163265306 440.79849020545294 4231.1122448979595 441.02669160650083 4209.316326530612 441.4805241599953 4187.5204081632655 441.7146387359797 4165.724489795918 441.87434560441795 4143.928571428572 442.00506484989137 4122.132653061224 442.0536403247141 4100.336734693878 442.1004848135459 4078.5408163265306 442.29078701208255 4056.7448979591836 442.5177613549289 4034.9489795918366 442.75370380577044 4013.1530612244896 443.0039649820596 3991.357142857143 447.2266118196212 3969.5612244897957 447.3367564362345 3947.765306122449 447.478410212555 3925.969387755102 447.7812344269998 3904.173469387755 447.9735867247491 3882.377551020408 448.11744019003095 3860.581632653061 447.90712750570685 3838.785714285714 447.65114758474357 3816.9897959183672 447.63691579979616 3795.1938775510203 447.6548818464415 3773.3979591836733 447.68514400974766 3751.6020408163267 447.6730658977694 3729.8061224489797 447.6266609249292 3708.0102040816328 447.6323779302626 3686.214285714286 447.6574339250563 3664.418367346939 447.5983732210459 3642.622448979592 447.82372841614773 3620.826530612245 448.23400972704667 3599.030612244898 448.85972838125235 3577.234693877551 449.3446349967366 3555.4387755102043 564.013087594675 3533.6428571428573 563.0569322713101 3511.8469387755104 562.1201699126104 3490.0510204081634 560.9592369816268 3468.2551020408164 559.5178863272408 3446.4591836734694 558.0421991553968 3424.6632653061224 556.6183211021491 3402.8673469387754 555.218566955861 3381.0714285714284 553.8747604661306 3359.2755102040815 552.795294537007 3337.4795918367345 551.5476668303065 3315.683673469388 550.4510715595417 3293.887755102041 549.056064697407 3272.091836734694 547.7069248917836 3250.295918367347 546.4892681197156 3228.5 545.0068552240035 3228.5 627.5176878063296Z" fill="#005aa6" opacity="0.9" />
		</g>
		<g>
			<path d="M3228.5 545.0068552240035 3250.295918367347 546.4892681197156 3272.091836734694 547.7069248917836 3293.887755102041 549.056064697407 3315.683673469388 550.4510715595417 3337.4795918367345 551.5476668303065 3359.2755102040815 552.795294537007 3381.0714285714284 553.8747604661306 3402.8673469387754 555.218566955861 3424.6632653061224 556.6183211021491 3446.4591836734694 558.0421991553968 3468.2551020408164 559.5178863272408 3490.0510204081634 560.9592369816268 3511.8469387755104 562.1201699126104 3533.6428571428573 563.0569322713101 3555.4387755102043 564.013087594675 3577.234693877551 449.3446349967366 3599.030612244898 448.85972838125235 3620.826530612245 448.23400972704667 3642.622448979592 447.82372841614773 3664.418367346939 447.5983732210459 3686.214285714286 447.6574339250563 3708.0102040816328 447.6323779302626 3729.8061224489797 447.6266609249292 3751.6020408163267 447.6730658977694 3773.3979591836733 447.68514400974766 3795.1938775510203 447.6548818464415 3816.9897959183672 447.63691579979616 3838.785714285714 447.65114758474357 3860.581632653061 447.90712750570685 3882.377551020408 448.11744019003095 3904.173469387755 447.9735867247491 3925.969387755102 447.7812344269998 3947.765306122449 447.478410212555 3969.5612244897957 447.3367564362345 3991.357142857143 447.2266118196212 4013.1530612244896 443.0039649820596 4034.9489795918366 442.75370380577044 4056.7448979591836 442.5177613549289 4078.5408163265306 442.29078701208255 4100.336734693878 442.1004848135459 4122.132653061224 442.0536403247141 4143.928571428572 442.00506484989137 4165.724489795918 441.87434560441795 4187.5204081632655 441.7146387359797 4209.316326530612 441.4805241599953 4231.1122448979595 441.02669160650083 4252.908163265306 440.79849020545294 4274.7040816326535 440.71015435347675 4296.5 440.7320769519542 4296.5 425.0017650883845 4274.7040816326535 424.9767523660499 4252.908163265306 425.0257701995382 4231.1122448979595 425.20583580775155 4209.316326530612 425.4986687976815 4187.5204081632655 425.6867840212037 4165.724489795918 425.8119685721377 4143.928571428572 425.9104888133743 4122.132653061224 425.92679886960804 4100.336734693878 425.94362826788443 4078.5408163265306 426.1140510532148 4056.7448979591836 426.3120783472338 4034.9489795918366 426.5518003809951 4013.1530612244896 426.81320471249694 3991.357142857143 431.1686011749783 3969.5612244897957 431.3401421096995 3947.765306122449 431.5247092372164 3925.969387755102 431.81676347027957 3904.173469387755 431.99440912392726 3882.377551020408 432.1329946808099 3860.581632653061 432.00359297169024 3838.785714285714 431.84731630596053 3816.9897959183672 431.8659139096981 3795.1938775510203 431.93242137634724 3773.3979591836733 431.9599475077045 3751.6020408163267 431.9558731937295 3729.8061224489797 431.9405589448202 3708.0102040816328 431.96727576259724 3686.214285714286 432.02029212049626 3664.418367346939 431.97528739378606 3642.622448979592 432.15561530771527 3620.826530612245 432.4754364071281 3599.030612244898 433.0084053536388 3577.234693877551 433.3913361237896 3555.4387755102043 540.8290503164301 3533.6428571428573 539.7717503889384 3511.8469387755104 538.7148538649283 3490.0510204081634 537.4631522646897 3468.2551020408164 535.9474999414622 3446.4591836734694 534.3593851680338 3424.6632653061224 532.8484801447386 3402.8673469387754 531.3863925452272 3381.0714285714284 529.9440403710025 3359.2755102040815 528.7702332186351 3337.4795918367345 527.9710368276562 3315.683673469388 526.7914366981524 3293.887755102041 525.3123672531278 3272.091836734694 523.9349092321237 3250.295918367347 522.6767257917172 3228.5 521.1207351787452 3228.5 545.0068552240035Z" fill="#55c0e9" opacity="0.9" />
		</g>
		<g>
			<path d="M3228.5 521.1207351787452 3250.295918367347 522.6767257917172 3272.091836734694 523.9349092321237 3293.887755102041 525.3123672531278 3315.683673469388 526.7914366981524 3337.4795918367345 527.9710368276562 3359.2755102040815 528.7702332186351 3381.0714285714284 529.9440403710025 3402.8673469387754 531.3863925452272 3424.6632653061224 532.8484801447386 3446.4591836734694 534.3593851680338 3468.2551020408164 535.9474999414622 3490.0510204081634 537.4631522646897 3511.8469387755104 538.7148538649283 3533.6428571428573 539.7717503889384 3555.4387755102043 540.8290503164301 3577.234693877551 433.3913361237896 3599.030612244898 433.0084053536388 3620.826530612245 432.4754364071281 3642.622448979592 432.15561530771527 3664.418367346939 431.97528739378606 3686.214285714286 432.02029212049626 3708.0102040816328 431.96727576259724 3729.8061224489797 431.9405589448202 3751.6020408163267 431.9558731937295 3773.3979591836733 431.9599475077045 3795.1938775510203 431.93242137634724 3816.9897959183672 431.8659139096981 3838.785714285714 431.84731630596053 3860.581632653061 432.00359297169024 3882.377551020408 432.1329946808099 3904.173469387755 431.99440912392726 3925.969387755102 431.81676347027957 3947.765306122449 431.5247092372164 3969.5612244897957 431.3401421096995 3991.357142857143 431.1686011749783 4013.1530612244896 426.81320471249694 4034.9489795918366 426.5518003809951 4056.7448979591836 426.3120783472338 4078.5408163265306 426.1140510532148 4100.336734693878 425.94362826788443 4122.132653061224 425.92679886960804 4143.928571428572 425.9104888133743 4165.724489795918 425.8119685721377 4187.5204081632655 425.6867840212037 4209.316326530612 425.4986687976815 4231.1122448979595 425.20583580775155 4252.908163265306 425.0257701995382 4274.7040816326535 424.9767523660499 4296.5 425.0017650883845 4296.5 410.86025631578275 4274.7040816326535 410.8513168557256 4252.908163265306 410.8010080993925 4231.1122448979595 410.8532595598375 4209.316326530612 410.9689719408518 4187.5204081632655 411.04822058755076 4165.724489795918 411.09796238059005 4143.928571428572 411.13309600464333 4122.132653061224 411.08525540240214 4100.336734693878 411.0502804931489 4078.5408163265306 411.15507042479464 4056.7448979591836 411.2715831935364 4034.9489795918366 411.39453051492376 4013.1530612244896 411.52533019336687 3991.357142857143 415.89173436048446 3969.5612244897957 415.95861191477786 3947.765306122449 416.055066900616 3925.969387755102 416.2345639289736 3904.173469387755 416.4071449754411 3882.377551020408 416.47817812627426 3860.581632653061 416.34836086389726 3838.785714285714 416.1564242259188 3816.9897959183672 416.1235996870702 3795.1938775510203 416.0562889706207 3773.3979591836733 416.0954395000898 3751.6020408163267 416.0465069983401 3729.8061224489797 416.000160121671 3708.0102040816328 416.0062420628137 3686.214285714286 416.05161909433286 3664.418367346939 415.99893833884835 3642.622448979592 416.12431960001913 3620.826530612245 416.33420162951643 3599.030612244898 416.71311285195446 3577.234693877551 416.98069451994184 3555.4387755102043 523.7363657522843 3533.6428571428573 522.5716439040438 3511.8469387755104 521.4074163425901 3490.0510204081634 520.0402408469882 3468.2551020408164 518.4759534407176 3446.4591836734694 516.9133817380589 3424.6632653061224 515.447116697529 3402.8673469387754 514.0614365046936 3381.0714285714284 512.7024056997157 3359.2755102040815 511.5800205959148 3337.4795918367345 510.82918253556556 3315.683673469388 509.7179568015223 3293.887755102041 508.3175496659528 3272.091836734694 507.0170454704227 3250.295918367347 505.81218353227047 3228.5 504.3173344906431 3228.5 521.1207351787452Z" fill="#f6a118" opacity="0.9" />
		</g>
		<g>
			<path d="M3228.5 504.3173344906431 3250.295918367347 505.81218353227047 3272.091836734694 507.0170454704227 3293.887755102041 508.3175496659528 3315.683673469388 509.7179568015223 3337.4795918367345 510.82918253556556 3359.2755102040815 511.5800205959148 3381.0714285714284 512.7024056997157 3402.8673469387754 514.0614365046936 3424.6632653061224 515.447116697529 3446.4591836734694 516.9133817380589 3468.2551020408164 518.4759534407176 3490.0510204081634 520.0402408469882 3511.8469387755104 521.4074163425901 3533.6428571428573 522.5716439040438 3555.4387755102043 523.7363657522843 3577.234693877551 416.98069451994184 3599.030612244898 416.71311285195446 3620.826530612245 416.33420162951643 3642.622448979592 416.12431960001913 3664.418367346939 415.99893833884835 3686.214285714286 416.05161909433286 3708.0102040816328 416.0062420628137 3729.8061224489797 416.000160121671 3751.6020408163267 416.0465069983401 3773.3979591836733 416.0954395000898 3795.1938775510203 416.0562889706207 3816.9897959183672 416.1235996870702 3838.785714285714 416.1564242259188 3860.581632653061 416.34836086389726 3882.377551020408 416.47817812627426 3904.173469387755 416.4071449754411 3925.969387755102 416.2345639289736 3947.765306122449 416.055066900616 3969.5612244897957 415.95861191477786 3991.357142857143 415.89173436048446 4013.1530612244896 411.52533019336687 4034.9489795918366 411.39453051492376 4056.7448979591836 411.2715831935364 4078.5408163265306 411.15507042479464 4100.336734693878 411.0502804931489 4122.132653061224 411.08525540240214 4143.928571428572 411.13309600464333 4165.724489795918 411.09796238059005 4187.5204081632655 411.04822058755076 4209.316326530612 410.9689719408518 4231.1122448979595 410.8532595598375 4252.908163265306 410.8010080993925 4274.7040816326535 410.8513168557256 4296.5 410.86025631578275 4296.5 402.3499262788061 4274.7040816326535 402.3497550933614 4252.908163265306 402.31710391583925 4231.1122448979595 402.31377839166817 4209.316326530612 402.32705082967294 4187.5204081632655 402.3105155472352 4165.724489795918 402.3328782432905 4143.928571428572 402.29313148871324 4122.132653061224 402.27347913416367 4100.336734693878 402.24951221526595 4078.5408163265306 402.264400535425 4056.7448979591836 402.2771754039698 4034.9489795918366 402.3026796088189 4013.1530612244896 402.31237144781545 3991.357142857143 406.6903311154683 3969.5612244897957 406.6504534424193 3947.765306122449 406.63653513437157 3925.969387755102 406.73881659701254 3904.173469387755 406.7913155812626 3882.377551020408 406.7895314471883 3860.581632653061 406.7538978821639 3838.785714285714 406.6419996355151 3816.9897959183672 406.66475151485594 3795.1938775510203 406.64954838762975 3773.3979591836733 406.6900606081659 3751.6020408163267 406.67423043388266 3729.8061224489797 406.6442240275461 3708.0102040816328 406.6769627823681 3686.214285714286 406.7486576922467 3664.418367346939 406.88204596503937 3642.622448979592 407.2984950463532 3620.826530612245 407.42058087187377 3599.030612244898 407.6496849699309 3577.234693877551 407.85452807822685 3555.4387755102043 510.457001187623 3533.6428571428573 509.25430348013276 3511.8469387755104 508.03326088042445 3490.0510204081634 506.6178498444704 3468.2551020408164 505.0214210075742 3446.4591836734694 503.4488995208447 3424.6632653061224 501.99414638500895 3402.8673469387754 500.6747796739521 3381.0714285714284 499.3250304832202 3359.2755102040815 498.1994618351249 3337.4795918367345 497.43345523107604 3315.683673469388 496.34925589643314 3293.887755102041 495.0253467220932 3272.091836734694 493.7905717710478 3250.295918367347 492.5921558346354 3228.5 491.08339968159794 3228.5 504.3173344906431Z" fill="#fdd5a4" opacity="0.9" />
		</g>
		<g>
			<path d="M3228.5 491.08339968159794 3250.295918367347 492.5921558346354 3272.091836734694 493.7905717710478 3293.887755102041 495.0253467220932 3315.683673469388 496.34925589643314 3337.4795918367345 497.43345523107604 3359.2755102040815 498.1994618351249 3381.0714285714284 499.3250304832202 3402.8673469387754 500.6747796739521 3424.6632653061224 501.99414638500895 3446.4591836734694 503.4488995208447 3468.2551020408164 505.0214210075742 3490.0510204081634 506.6178498444704 3511.8469387755104 508.03326088042445 3533.6428571428573 509.25430348013276 3555.4387755102043 510.457001187623 3577.234693877551 407.85452807822685 3599.030612244898 407.6496849699309 3620.826530612245 407.42058087187377 3642.622448979592 407.2984950463532 3664.418367346939 406.88204596503937 3686.214285714286 406.7486576922467 3708.0102040816328 406.6769627823681 3729.8061224489797 406.6442240275461 3751.6020408163267 406.67423043388266 3773.3979591836733 406.6900606081659 3795.1938775510203 406.64954838762975 3816.9897959183672 406.66475151485594 3838.785714285714 406.6419996355151 3860.581632653061 406.7538978821639 3882.377551020408 406.7895314471883 3904.173469387755 406.7913155812626 3925.969387755102 406.73881659701254 3947.765306122449 406.63653513437157 3969.5612244897957 406.6504534424193 3991.357142857143 406.6903311154683 4013.1530612244896 402.31237144781545 4034.9489795918366 402.3026796088189 4056.7448979591836 402.2771754039698 4078.5408163265306 402.264400535425 4100.336734693878 402.24951221526595 4122.132653061224 402.27347913416367 4143.928571428572 402.29313148871324 4165.724489795918 402.3328782432905 4187.5204081632655 402.3105155472352 4209.316326530612 402.32705082967294 4231.1122448979595 402.31377839166817 4252.908163265306 402.31710391583925 4274.7040816326535 402.3497550933614 4296.5 402.3499262788061 4296.5 398 4274.7040816326535 398 4252.908163265306 398.00000000000006 4231.1122448979595 398 4209.316326530612 398.0000000000001 4187.5204081632655 398.0000000000001 4165.724489795918 398 4143.928571428572 398 4122.132653061224 398.00000000000006 4100.336734693878 398.0000000000001 4078.5408163265306 398 4056.7448979591836 397.99999999999994 4034.9489795918366 398 4013.1530612244896 397.99999999999994 3991.357142857143 398 3969.5612244897957 398 3947.765306122449 398 3925.969387755102 398.0000000000001 3904.173469387755 398.00000000000006 3882.377551020408 398 3860.581632653061 398 3838.785714285714 398 3816.9897959183672 398 3795.1938775510203 397.99999999999994 3773.3979591836733 398 3751.6020408163267 398.0000000000001 3729.8061224489797 398.00000000000006 3708.0102040816328 398 3686.214285714286 397.9999999999999 3664.418367346939 398 3642.622448979592 397.99999999999994 3620.826530612245 398.0000000000001 3599.030612244898 397.99999999999994 3577.234693877551 398.00000000000006 3555.4387755102043 398 3533.6428571428573 397.9999999999999 3511.8469387755104 398 3490.0510204081634 397.99999999999983 3468.2551020408164 398.0000000000001 3446.4591836734694 397.99999999999994 3424.6632653061224 397.9999999999999 3402.8673469387754 398.0000000000001 3381.0714285714284 398 3359.2755102040815 397.9999999999999 3337.4795918367345 397.99999999999994 3315.683673469388 398.00000000000006 3293.887755102041 398.00000000000006 3272.091836734694 398 3250.295918367347 397.9999999999999 3228.5 398 3228.5 491.08339968159794Z" fill="#393d41" opacity="0.9" />
		</g>
		<g>
			<rect x="4372" y="431" width="22.9995" height="23" fill="#e62d39" />
		</g>
		<g>
			<text fill="#595959" font-family="Verdana,Open Sans,DejaVu Sans,sans-serif" font-weight="400" font-size="41" transform="matrix(1 0 0 1 4404.56 454)">Smartphone</text>
		</g>
		<g>
			<rect x="4372" y="508" width="22.9995" height="23" fill="#005aa6" />
		</g>
		<g>
			<text fill="#595959" font-family="Verdana,Open Sans,DejaVu Sans,sans-serif" font-weight="400" font-size="41" transform="matrix(1 0 0 1 4404.56 531)">Desktop</text>
		</g>
		<g>
			<rect x="4372" y="585" width="22.9995" height="23" fill="#55c0e9" />
		</g>
		<g>
			<text fill="#595959" font-family="Verdana,Open Sans,DejaVu Sans,sans-serif" font-weight="400" font-size="41" transform="matrix(1 0 0 1 4404.56 608)">Other</text>
		</g>
		<g>
			<rect x="4372" y="662" width="22.9995" height="23" fill="#f6a118" />
		</g>
		<g>
			<text fill="#595959" font-family="Verdana,Open Sans,DejaVu Sans,sans-serif" font-weight="400" font-size="41" transform="matrix(1 0 0 1 4404.56 685)">Tablet</text>
		</g>
		<g>
			<rect x="4372" y="739" width="22.9995" height="23" fill="#fdd5a4" />
		</g>
		<g>
			<text fill="#595959" font-family="Verdana,Open Sans,DejaVu Sans,sans-serif" font-weight="400" font-size="41" transform="matrix(1 0 0 1 4404.56 762)">Tv</text>
		</g>
		<g>
			<rect x="4372" y="816" width="22.9995" height="23" fill="#393d41" />
		</g>
		<g>
			<text fill="#595959" font-family="Verdana,Open Sans,DejaVu Sans,sans-serif" font-weight="400" font-size="41" transform="matrix(1 0 0 1 4404.56 839)">Unclassified</text>
		</g>
	</g>
</svg>
