<svg width="1763" height="1046"
    xmlns="http://www.w3.org/2000/svg"
	xmlns:xlink="http://www.w3.org/1999/xlink" xml:space="preserve" overflow="hidden">
	<defs>
		<clipPath id="clip0">
			<rect x="2917" y="346" width="1763" height="1046"/>
		</clipPath>
	</defs>
	<g clip-path="url(#clip0)" transform="translate(-2917 -346)">
		<rect x="2918" y="347" width="1760" height="1043" fill="#FFFFFF" />
		<g>
			<path d="
			M3228.5 974.532 4296.5 974.532
			M3228.5 910.53 4296.5 910.53
			M3228.5 846.528 4296.5 846.528
			M3228.5 781.526 4296.5 781.526
			M3228.5 717.524 4296.5 717.524
			M3228.5 653.522 4296.5 653.522
			M3228.5 589.52 4296.5 589.52
			M3228.5 525.517 4296.5 525.517
			M3228.5 461.515 4296.5 461.515
			M3228.5 397.5 4296.5 397.5" stroke="#D9D9D9" stroke-width="3.4375" stroke-linejoin="round" stroke-miterlimit="10" fill="none" />
		</g>
		<g>
			<path d="M 1038.5 4296.5 1038.5" stroke="#D9D9D9" stroke-width="3.4375" stroke-linejoin="round" stroke-miterlimit="10" fill="none" fill-rule="evenodd" />
		</g>
		<g>
			<text fill="#595959" font-family="Verdana,sans-serif" font-weight="400" font-size="41" transform="matrix(6.12323e-17 -1 1 6.12323e-17 3248 1216)">29-Apr</text>
		</g>
		<g>
			<text fill="#595959" font-family="Verdana,sans-serif" font-weight="400" font-size="41" transform="matrix(6.12323e-17 -1 1 6.12323e-17 3331.764705882353 1228)">27-May</text>
		</g>
		<g>
			<text fill="#595959" font-family="Verdana,sans-serif" font-weight="400" font-size="41" transform="matrix(6.12323e-17 -1 1 6.12323e-17 3412.029411764706 1211)">24-Jun</text>
		</g>
		<g>
			<text fill="#595959" font-family="Verdana,sans-serif" font-weight="400" font-size="41" transform="matrix(6.12323e-17 -1 1 6.12323e-17 3495.794117647059 1196)">22-Jul</text>
		</g>
		<g>
			<text fill="#595959" font-family="Verdana,sans-serif" font-weight="400" font-size="41" transform="matrix(6.12323e-17 -1 1 6.12323e-17 3583.0588235294117 1218)">19-Aug</text>
		</g>
		<g>
			<text fill="#595959" font-family="Verdana,sans-serif" font-weight="400" font-size="41" transform="matrix(6.12323e-17 -1 1 6.12323e-17 3666.823529411765 1219)">16-Sep</text>
		</g>
		<g>
			<text fill="#595959" font-family="Verdana,sans-serif" font-weight="400" font-size="41" transform="matrix(6.12323e-17 -1 1 6.12323e-17 3747.0882352941176 1213)">14-Oct</text>
		</g>
		<g>
			<text fill="#595959" font-family="Verdana,sans-serif" font-weight="400" font-size="41" transform="matrix(6.12323e-17 -1 1 6.12323e-17 3830.3529411764707 1222)">11-Nov</text>
		</g>
		<g>
			<text fill="#595959" font-family="Verdana,sans-serif" font-weight="400" font-size="41" transform="matrix(6.12323e-17 -1 1 6.12323e-17 3914.1176470588234 1220)">16-Dec</text>
		</g>
		<g>
			<text fill="#595959" font-family="Verdana,sans-serif" font-weight="400" font-size="41" transform="matrix(6.12323e-17 -1 1 6.12323e-17 3998.3823529411766 1207)">13-Jan</text>
		</g>
		<g>
			<text fill="#595959" font-family="Verdana,sans-serif" font-weight="400" font-size="41" transform="matrix(6.12323e-17 -1 1 6.12323e-17 4082.1470588235293 1214)">10-Feb</text>
		</g>
		<g>
			<text fill="#595959" font-family="Verdana,sans-serif" font-weight="400" font-size="41" transform="matrix(6.12323e-17 -1 1 6.12323e-17 4165.911764705882 1221)">10-Mar</text>
		</g>
		<g>
			<text fill="#595959" font-family="Verdana,sans-serif" font-weight="400" font-size="41" transform="matrix(6.12323e-17 -1 1 6.12323e-17 4253.176470588235 1217)">07-Apr</text>
		</g>
		<g>
			<text fill="#595959" font-family="Verdana,sans-serif" font-weight="400" font-size="41" transform="matrix(1 0 0 1 3123.5 1050)">0%</text>
		</g>
		<g>
			<text fill="#595959" font-family="Verdana,sans-serif" font-weight="400" font-size="41" transform="matrix(1 0 0 1 3097.5 922)">20%</text>
		</g>
		<g>
			<text fill="#595959" font-family="Verdana,sans-serif" font-weight="400" font-size="41" transform="matrix(1 0 0 1 3096.5 794)">40%</text>
		</g>
		<g>
			<text fill="#595959" font-family="Verdana,sans-serif" font-weight="400" font-size="41" transform="matrix(1 0 0 1 3097.5 666)">60%</text>
		</g>
		<g>
			<text fill="#595959" font-family="Verdana,sans-serif" font-weight="400" font-size="41" transform="matrix(1 0 0 1 3097.5 538)">80%</text>
		</g>
		<g>
			<text fill="#595959" font-family="Verdana,sans-serif" font-weight="400" font-size="41" transform="matrix(1 0 0 1 3074.5 410)">100%</text>
		</g>
		<g>
			<text fill="#595959" font-family="Verdana,sans-serif" font-weight="400" font-size="41" transform="matrix(1 0 0 1 3544.5 1321)">Week Commencing</text>
		</g>
		<g>
			<text fill="#595959" font-family="Verdana,sans-serif" font-weight="400" font-size="46" transform="matrix(6.12323e-17 -1 1 6.12323e-17 3019.73 965.25)">Requests (% of Total)</text>
		</g>
		<rect x="2918.5" y="347.5" width="1760" height="1043" stroke="#D9D9D9" stroke-width="3.4375" stroke-linejoin="round" stroke-miterlimit="10" fill="none" />
		<g>
			<path d="M3228.5 1038 3249.4411764705883 1038 3270.3823529411766 1038 3291.323529411765 1038 3312.264705882353 1038 3333.205882352941 1038 3354.1470588235293 1038 3375.0882352941176 1038 3396.029411764706 1038 3416.970588235294 1038 3437.9117647058824 1038 3458.8529411764707 1038 3479.794117647059 1038 3500.735294117647 1038 3521.676470588235 1038 3542.6176470588234 1038 3563.5588235294117 1038 3584.5 1038 3605.4411764705883 1038 3626.3823529411766 1038 3647.323529411765 1038 3668.264705882353 1038 3689.205882352941 1038 3710.1470588235293 1038 3731.0882352941176 1038 3752.029411764706 1038 3772.970588235294 1038 3793.9117647058824 1038 3814.8529411764707 1038 3835.7941176470586 1038 3856.735294117647 1038 3877.676470588235 1038 3898.6176470588234 1038 3919.5588235294117 1038 3940.5 1038 3961.4411764705883 1038 3982.3823529411766 1038 4003.323529411765 1038 4024.264705882353 1038 4045.2058823529414 1038 4066.1470588235293 1038 4087.0882352941176 1038 4108.029411764706 1038 4128.970588235294 1038 4149.911764705882 1038 4170.85294117647 1038 4191.794117647059 1038 4212.735294117647 1038 4233.676470588235 1038 4254.617647058823 1038 4275.558823529412 1038 4296.5 1038 4296.5 528.3817437118579 4275.558823529412 528.3209049784523 4254.617647058823 528.6035113858115 4233.676470588235 529.0722280244075 4212.735294117647 529.4214956662862 4191.794117647059 529.807429199031 4170.85294117647 533.5058286789898 4149.911764705882 533.4031264720519 4128.970588235294 533.4021762961523 4108.029411764706 533.7756525096236 4087.0882352941176 533.8956466575289 4066.1470588235293 533.9572095457534 4045.2058823529414 533.4841990448925 4024.264705882353 533.4528010722697 4003.323529411765 533.722746014736 3982.3823529411766 533.7853664259474 3961.4411764705883 533.8294455926118 3940.5 533.7499584959044 3919.5588235294117 533.5577242345337 3898.6176470588234 533.3794235575219 3877.676470588235 533.1839579715512 3856.735294117647 532.7385960569093 3835.7941176470586 532.9945218339117 3814.8529411764707 533.5883597667535 3793.9117647058824 534.4892592748513 3772.970588235294 535.2648007319358 3752.029411764706 642.4592997578948 3731.0882352941176 641.7348258019537 3710.1470588235293 641.0274072878076 3689.205882352941 640.0328656683237 3668.264705882353 638.7439704461906 3647.323529411765 637.5953366301156 3626.3823529411766 636.388984334016 3605.4411764705883 635.2830954215428 3584.5 634.2801376637599 3563.5588235294117 633.5123019251453 3542.6176470588234 632.703376074059 3521.676470588235 631.9415100696045 3500.735294117647 630.857109120077 3479.794117647059 629.6835942752446 3458.8529411764707 628.7570391925642 3437.9117647058824 627.5176878063296 3416.970588235294 626.3963136974012 3396.029411764706 625.2428890685153 3375.0882352941176 624.0667377001988 3354.1470588235293 622.80172023452 3333.205882352941 632.4054355541638 3312.264705882353 630.9533026623258 3291.323529411765 630.0731822124889 3270.3823529411766 629.6411395703622 3249.4411764705883 629.3637077507597 3228.5 629.112232069277 3228.5 1038Z" fill="#e62d39" opacity="0.9" />
		</g>
		<g>
			<path d="M3228.5 629.112232069277 3249.4411764705883 629.3637077507597 3270.3823529411766 629.6411395703622 3291.323529411765 630.0731822124889 3312.264705882353 630.9533026623258 3333.205882352941 632.4054355541638 3354.1470588235293 622.80172023452 3375.0882352941176 624.0667377001988 3396.029411764706 625.2428890685153 3416.970588235294 626.3963136974012 3437.9117647058824 627.5176878063296 3458.8529411764707 628.7570391925642 3479.794117647059 629.6835942752446 3500.735294117647 630.857109120077 3521.676470588235 631.9415100696045 3542.6176470588234 632.703376074059 3563.5588235294117 633.5123019251453 3584.5 634.2801376637599 3605.4411764705883 635.2830954215428 3626.3823529411766 636.388984334016 3647.323529411765 637.5953366301156 3668.264705882353 638.7439704461906 3689.205882352941 640.0328656683237 3710.1470588235293 641.0274072878076 3731.0882352941176 641.7348258019537 3752.029411764706 642.4592997578948 3772.970588235294 535.2648007319358 3793.9117647058824 534.4892592748513 3814.8529411764707 533.5883597667535 3835.7941176470586 532.9945218339117 3856.735294117647 532.7385960569093 3877.676470588235 533.1839579715512 3898.6176470588234 533.3794235575219 3919.5588235294117 533.5577242345337 3940.5 533.7499584959044 3961.4411764705883 533.8294455926118 3982.3823529411766 533.7853664259474 4003.323529411765 533.722746014736 4024.264705882353 533.4528010722697 4045.2058823529414 533.4841990448925 4066.1470588235293 533.9572095457534 4087.0882352941176 533.8956466575289 4108.029411764706 533.7756525096236 4128.970588235294 533.4021762961523 4149.911764705882 533.4031264720519 4170.85294117647 533.5058286789898 4191.794117647059 529.807429199031 4212.735294117647 529.4214956662862 4233.676470588235 529.0722280244075 4254.617647058823 528.6035113858115 4275.558823529412 528.3209049784523 4296.5 528.3817437118579 4296.5 442.0536403247141 4275.558823529412 442.1004848135459 4254.617647058823 442.29078701208255 4233.676470588235 442.5177613549289 4212.735294117647 442.75370380577044 4191.794117647059 443.0039649820596 4170.85294117647 447.2266118196212 4149.911764705882 447.3367564362345 4128.970588235294 447.478410212555 4108.029411764706 447.7812344269998 4087.0882352941176 447.9735867247491 4066.1470588235293 448.11744019003095 4045.2058823529414 447.90712750570685 4024.264705882353 447.65114758474357 4003.323529411765 447.63691579979616 3982.3823529411766 447.6548818464415 3961.4411764705883 447.68514400974766 3940.5 447.6730658977694 3919.5588235294117 447.6266609249292 3898.6176470588234 447.6323779302626 3877.676470588235 447.6574339250563 3856.735294117647 447.5983732210459 3835.7941176470586 447.82372841614773 3814.8529411764707 448.23400972704667 3793.9117647058824 448.85972838125235 3772.970588235294 449.3446349967366 3752.029411764706 564.013087594675 3731.0882352941176 563.0569322713101 3710.1470588235293 562.1201699126104 3689.205882352941 560.9592369816268 3668.264705882353 559.5178863272408 3647.323529411765 558.0421991553968 3626.3823529411766 556.6183211021491 3605.4411764705883 555.218566955861 3584.5 553.8747604661306 3563.5588235294117 552.795294537007 3542.6176470588234 551.5476668303065 3521.676470588235 550.4510715595417 3500.735294117647 549.056064697407 3479.794117647059 547.7069248917836 3458.8529411764707 546.4892681197156 3437.9117647058824 545.0068552240035 3416.970588235294 543.5872074138473 3396.029411764706 542.2071477253921 3375.0882352941176 540.7523658360859 3354.1470588235293 539.1846046453284 3333.205882352941 550.69398337688 3312.264705882353 549.0305649530324 3291.323529411765 547.8419869340069 3270.3823529411766 547.2972215888882 3249.4411764705883 546.9206806705122 3228.5 546.5765460991323 3228.5 629.112232069277Z" fill="#005aa6" opacity="0.9" />
		</g>
		<g>
			<path d="M3228.5 546.5765460991323 3249.4411764705883 546.9206806705122 3270.3823529411766 547.2972215888882 3291.323529411765 547.8419869340069 3312.264705882353 549.0305649530324 3333.205882352941 550.69398337688 3354.1470588235293 539.1846046453284 3375.0882352941176 540.7523658360859 3396.029411764706 542.2071477253921 3416.970588235294 543.5872074138473 3437.9117647058824 545.0068552240035 3458.8529411764707 546.4892681197156 3479.794117647059 547.7069248917836 3500.735294117647 549.056064697407 3521.676470588235 550.4510715595417 3542.6176470588234 551.5476668303065 3563.5588235294117 552.795294537007 3584.5 553.8747604661306 3605.4411764705883 555.218566955861 3626.3823529411766 556.6183211021491 3647.323529411765 558.0421991553968 3668.264705882353 559.5178863272408 3689.205882352941 560.9592369816268 3710.1470588235293 562.1201699126104 3731.0882352941176 563.0569322713101 3752.029411764706 564.013087594675 3772.970588235294 449.3446349967366 3793.9117647058824 448.85972838125235 3814.8529411764707 448.23400972704667 3835.7941176470586 447.82372841614773 3856.735294117647 447.5983732210459 3877.676470588235 447.6574339250563 3898.6176470588234 447.6323779302626 3919.5588235294117 447.6266609249292 3940.5 447.6730658977694 3961.4411764705883 447.68514400974766 3982.3823529411766 447.6548818464415 4003.323529411765 447.63691579979616 4024.264705882353 447.65114758474357 4045.2058823529414 447.90712750570685 4066.1470588235293 448.11744019003095 4087.0882352941176 447.9735867247491 4108.029411764706 447.7812344269998 4128.970588235294 447.478410212555 4149.911764705882 447.3367564362345 4170.85294117647 447.2266118196212 4191.794117647059 443.0039649820596 4212.735294117647 442.75370380577044 4233.676470588235 442.5177613549289 4254.617647058823 442.29078701208255 4275.558823529412 442.1004848135459 4296.5 442.0536403247141 4296.5 425.92679886960804 4275.558823529412 425.94362826788443 4254.617647058823 426.1140510532148 4233.676470588235 426.3120783472338 4212.735294117647 426.5518003809951 4191.794117647059 426.81320471249694 4170.85294117647 431.1686011749783 4149.911764705882 431.3401421096995 4128.970588235294 431.5247092372164 4108.029411764706 431.81676347027957 4087.0882352941176 431.99440912392726 4066.1470588235293 432.1329946808099 4045.2058823529414 432.00359297169024 4024.264705882353 431.84731630596053 4003.323529411765 431.8659139096981 3982.3823529411766 431.93242137634724 3961.4411764705883 431.9599475077045 3940.5 431.9558731937295 3919.5588235294117 431.9405589448202 3898.6176470588234 431.96727576259724 3877.676470588235 432.02029212049626 3856.735294117647 431.97528739378606 3835.7941176470586 432.15561530771527 3814.8529411764707 432.4754364071281 3793.9117647058824 433.0084053536388 3772.970588235294 433.3913361237896 3752.029411764706 540.8290503164301 3731.0882352941176 539.7717503889384 3710.1470588235293 538.7148538649283 3689.205882352941 537.4631522646897 3668.264705882353 535.9474999414622 3647.323529411765 534.3593851680338 3626.3823529411766 532.8484801447386 3605.4411764705883 531.3863925452272 3584.5 529.9440403710025 3563.5588235294117 528.7702332186351 3542.6176470588234 527.9710368276562 3521.676470588235 526.7914366981524 3500.735294117647 525.3123672531278 3479.794117647059 523.9349092321237 3458.8529411764707 522.6767257917172 3437.9117647058824 521.1207351787452 3416.970588235294 519.5911430965305 3396.029411764706 518.1357144384516 3375.0882352941176 516.5996074824589 3354.1470588235293 514.9659833917357 3333.205882352941 527.0438985976282 3312.264705882353 525.3024251103315 3291.323529411765 523.9562890822376 3270.3823529411766 523.2798263552974 3249.4411764705883 522.7674371524068 3228.5 522.2747415869658 3228.5 546.5765460991323Z" fill="#55c0e9" opacity="0.9" />
		</g>
		<g>
			<path d="M3228.5 522.2747415869658 3249.4411764705883 522.7674371524068 3270.3823529411766 523.2798263552974 3291.323529411765 523.9562890822376 3312.264705882353 525.3024251103315 3333.205882352941 527.0438985976282 3354.1470588235293 514.9659833917357 3375.0882352941176 516.5996074824589 3396.029411764706 518.1357144384516 3416.970588235294 519.5911430965305 3437.9117647058824 521.1207351787452 3458.8529411764707 522.6767257917172 3479.794117647059 523.9349092321237 3500.735294117647 525.3123672531278 3521.676470588235 526.7914366981524 3542.6176470588234 527.9710368276562 3563.5588235294117 528.7702332186351 3584.5 529.9440403710025 3605.4411764705883 531.3863925452272 3626.3823529411766 532.8484801447386 3647.323529411765 534.3593851680338 3668.264705882353 535.9474999414622 3689.205882352941 537.4631522646897 3710.1470588235293 538.7148538649283 3731.0882352941176 539.7717503889384 3752.029411764706 540.8290503164301 3772.970588235294 433.3913361237896 3793.9117647058824 433.0084053536388 3814.8529411764707 432.4754364071281 3835.7941176470586 432.15561530771527 3856.735294117647 431.97528739378606 3877.676470588235 432.02029212049626 3898.6176470588234 431.96727576259724 3919.5588235294117 431.9405589448202 3940.5 431.9558731937295 3961.4411764705883 431.9599475077045 3982.3823529411766 431.93242137634724 4003.323529411765 431.8659139096981 4024.264705882353 431.84731630596053 4045.2058823529414 432.00359297169024 4066.1470588235293 432.1329946808099 4087.0882352941176 431.99440912392726 4108.029411764706 431.81676347027957 4128.970588235294 431.5247092372164 4149.911764705882 431.3401421096995 4170.85294117647 431.1686011749783 4191.794117647059 426.81320471249694 4212.735294117647 426.5518003809951 4233.676470588235 426.3120783472338 4254.617647058823 426.1140510532148 4275.558823529412 425.94362826788443 4296.5 425.92679886960804 4296.5 411.08525540240214 4275.558823529412 411.0502804931489 4254.617647058823 411.15507042479464 4233.676470588235 411.2715831935364 4212.735294117647 411.39453051492376 4191.794117647059 411.52533019336687 4170.85294117647 415.89173436048446 4149.911764705882 415.95861191477786 4128.970588235294 416.055066900616 4108.029411764706 416.2345639289736 4087.0882352941176 416.4071449754411 4066.1470588235293 416.47817812627426 4045.2058823529414 416.34836086389726 4024.264705882353 416.1564242259188 4003.323529411765 416.1235996870702 3982.3823529411766 416.0562889706207 3961.4411764705883 416.0954395000898 3940.5 416.0465069983401 3919.5588235294117 416.000160121671 3898.6176470588234 416.0062420628137 3877.676470588235 416.05161909433286 3856.735294117647 415.99893833884835 3835.7941176470586 416.12431960001913 3814.8529411764707 416.33420162951643 3793.9117647058824 416.71311285195446 3772.970588235294 416.98069451994184 3752.029411764706 523.7363657522843 3731.0882352941176 522.5716439040438 3710.1470588235293 521.4074163425901 3689.205882352941 520.0402408469882 3668.264705882353 518.4759534407176 3647.323529411765 516.9133817380589 3626.3823529411766 515.447116697529 3605.4411764705883 514.0614365046936 3584.5 512.7024056997157 3563.5588235294117 511.5800205959148 3542.6176470588234 510.82918253556556 3521.676470588235 509.7179568015223 3500.735294117647 508.3175496659528 3479.794117647059 507.0170454704227 3458.8529411764707 505.81218353227047 3437.9117647058824 504.3173344906431 3416.970588235294 502.8338970689489 3396.029411764706 501.4426511937707 3375.0882352941176 499.97387766322737 3354.1470588235293 498.4242329984132 3333.205882352941 510.99365573350235 3312.264705882353 509.31973026750774 3291.323529411765 508.0481610967102 3270.3823529411766 507.46130800445246 3249.4411764705883 507.0233752398185 3228.5 506.60822161328986 3228.5 522.2747415869658Z" fill="#f6a118" opacity="0.9" />
		</g>
		<g>
			<path d="M3228.5 506.60822161328986 3249.4411764705883 507.0233752398185 3270.3823529411766 507.46130800445246 3291.323529411765 508.0481610967102 3312.264705882353 509.31973026750774 3333.205882352941 510.99365573350235 3354.1470588235293 498.4242329984132 3375.0882352941176 499.97387766322737 3396.029411764706 501.4426511937707 3416.970588235294 502.8338970689489 3437.9117647058824 504.3173344906431 3458.8529411764707 505.81218353227047 3479.794117647059 507.0170454704227 3500.735294117647 508.3175496659528 3521.676470588235 509.7179568015223 3542.6176470588234 510.82918253556556 3563.5588235294117 511.5800205959148 3584.5 512.7024056997157 3605.4411764705883 514.0614365046936 3626.3823529411766 515.447116697529 3647.323529411765 516.9133817380589 3668.264705882353 518.4759534407176 3689.205882352941 520.0402408469882 3710.1470588235293 521.4074163425901 3731.0882352941176 522.5716439040438 3752.029411764706 523.7363657522843 3772.970588235294 416.98069451994184 3793.9117647058824 416.71311285195446 3814.8529411764707 416.33420162951643 3835.7941176470586 416.12431960001913 3856.735294117647 415.99893833884835 3877.676470588235 416.05161909433286 3898.6176470588234 416.0062420628137 3919.5588235294117 416.000160121671 3940.5 416.0465069983401 3961.4411764705883 416.0954395000898 3982.3823529411766 416.0562889706207 4003.323529411765 416.1235996870702 4024.264705882353 416.1564242259188 4045.2058823529414 416.34836086389726 4066.1470588235293 416.47817812627426 4087.0882352941176 416.4071449754411 4108.029411764706 416.2345639289736 4128.970588235294 416.055066900616 4149.911764705882 415.95861191477786 4170.85294117647 415.89173436048446 4191.794117647059 411.52533019336687 4212.735294117647 411.39453051492376 4233.676470588235 411.2715831935364 4254.617647058823 411.15507042479464 4275.558823529412 411.0502804931489 4296.5 411.08525540240214 4296.5 402.27347913416367 4275.558823529412 402.24951221526595 4254.617647058823 402.264400535425 4233.676470588235 402.2771754039698 4212.735294117647 402.3026796088189 4191.794117647059 402.31237144781545 4170.85294117647 406.6903311154683 4149.911764705882 406.6504534424193 4128.970588235294 406.63653513437157 4108.029411764706 406.73881659701254 4087.0882352941176 406.7913155812626 4066.1470588235293 406.7895314471883 4045.2058823529414 406.7538978821639 4024.264705882353 406.6419996355151 4003.323529411765 406.66475151485594 3982.3823529411766 406.64954838762975 3961.4411764705883 406.6900606081659 3940.5 406.67423043388266 3919.5588235294117 406.6442240275461 3898.6176470588234 406.6769627823681 3877.676470588235 406.7486576922467 3856.735294117647 406.88204596503937 3835.7941176470586 407.2984950463532 3814.8529411764707 407.42058087187377 3793.9117647058824 407.6496849699309 3772.970588235294 407.85452807822685 3752.029411764706 510.457001187623 3731.0882352941176 509.25430348013276 3710.1470588235293 508.03326088042445 3689.205882352941 506.6178498444704 3668.264705882353 505.0214210075742 3647.323529411765 503.4488995208447 3626.3823529411766 501.99414638500895 3605.4411764705883 500.6747796739521 3584.5 499.3250304832202 3563.5588235294117 498.1994618351249 3542.6176470588234 497.43345523107604 3521.676470588235 496.34925589643314 3500.735294117647 495.0253467220932 3479.794117647059 493.7905717710478 3458.8529411764707 492.5921558346354 3437.9117647058824 491.08339968159794 3416.970588235294 489.589994805443 3396.029411764706 488.205911277506 3375.0882352941176 486.75823132244886 3354.1470588235293 485.3927174126073 3333.205882352941 498.4720025363811 3312.264705882353 497.0382614705632 3291.323529411765 495.82345643600064 3270.3823529411766 495.20191899296304 3249.4411764705883 494.71994133496287 3228.5 494.25306019687616 3228.5 506.60822161328986Z" fill="#fdd5a4" opacity="0.9" />
		</g>
		<g>
			<path d="M3228.5 494.25306019687616 3249.4411764705883 494.71994133496287 3270.3823529411766 495.20191899296304 3291.323529411765 495.82345643600064 3312.264705882353 497.0382614705632 3333.205882352941 498.4720025363811 3354.1470588235293 485.3927174126073 3375.0882352941176 486.75823132244886 3396.029411764706 488.205911277506 3416.970588235294 489.589994805443 3437.9117647058824 491.08339968159794 3458.8529411764707 492.5921558346354 3479.794117647059 493.7905717710478 3500.735294117647 495.0253467220932 3521.676470588235 496.34925589643314 3542.6176470588234 497.43345523107604 3563.5588235294117 498.1994618351249 3584.5 499.3250304832202 3605.4411764705883 500.6747796739521 3626.3823529411766 501.99414638500895 3647.323529411765 503.4488995208447 3668.264705882353 505.0214210075742 3689.205882352941 506.6178498444704 3710.1470588235293 508.03326088042445 3731.0882352941176 509.25430348013276 3752.029411764706 510.457001187623 3772.970588235294 407.85452807822685 3793.9117647058824 407.6496849699309 3814.8529411764707 407.42058087187377 3835.7941176470586 407.2984950463532 3856.735294117647 406.88204596503937 3877.676470588235 406.7486576922467 3898.6176470588234 406.6769627823681 3919.5588235294117 406.6442240275461 3940.5 406.67423043388266 3961.4411764705883 406.6900606081659 3982.3823529411766 406.64954838762975 4003.323529411765 406.66475151485594 4024.264705882353 406.6419996355151 4045.2058823529414 406.7538978821639 4066.1470588235293 406.7895314471883 4087.0882352941176 406.7913155812626 4108.029411764706 406.73881659701254 4128.970588235294 406.63653513437157 4149.911764705882 406.6504534424193 4170.85294117647 406.6903311154683 4191.794117647059 402.31237144781545 4212.735294117647 402.3026796088189 4233.676470588235 402.2771754039698 4254.617647058823 402.264400535425 4275.558823529412 402.24951221526595 4296.5 402.27347913416367 4296.5 398.00000000000006 4275.558823529412 398.0000000000001 4254.617647058823 398 4233.676470588235 397.99999999999994 4212.735294117647 398 4191.794117647059 397.99999999999994 4170.85294117647 398 4149.911764705882 398 4128.970588235294 398 4108.029411764706 398.0000000000001 4087.0882352941176 398.00000000000006 4066.1470588235293 398 4045.2058823529414 398 4024.264705882353 398 4003.323529411765 398 3982.3823529411766 397.99999999999994 3961.4411764705883 398 3940.5 398.0000000000001 3919.5588235294117 398.00000000000006 3898.6176470588234 398 3877.676470588235 397.9999999999999 3856.735294117647 398 3835.7941176470586 397.99999999999994 3814.8529411764707 398.0000000000001 3793.9117647058824 397.99999999999994 3772.970588235294 398.00000000000006 3752.029411764706 398 3731.0882352941176 397.9999999999999 3710.1470588235293 398 3689.205882352941 397.99999999999983 3668.264705882353 398.0000000000001 3647.323529411765 397.99999999999994 3626.3823529411766 397.9999999999999 3605.4411764705883 398.0000000000001 3584.5 398 3563.5588235294117 397.9999999999999 3542.6176470588234 397.99999999999994 3521.676470588235 398.00000000000006 3500.735294117647 398.00000000000006 3479.794117647059 398 3458.8529411764707 397.9999999999999 3437.9117647058824 398 3416.970588235294 397.9999999999999 3396.029411764706 397.9999999999999 3375.0882352941176 398.00000000000006 3354.1470588235293 398 3333.205882352941 398 3312.264705882353 397.9999999999999 3291.323529411765 398.0000000000001 3270.3823529411766 397.9999999999999 3249.4411764705883 398 3228.5 398 3228.5 494.25306019687616Z" fill="#393d41" opacity="0.9" />
		</g>
		<g>
			<rect x="4372" y="431" width="22.9995" height="23" fill="#e62d39" />
		</g>
		<g>
			<text fill="#595959" font-family="Verdana,sans-serif" font-weight="400" font-size="41" transform="matrix(1 0 0 1 4404.56 454)">Smartphone</text>
		</g>
		<g>
			<rect x="4372" y="508" width="22.9995" height="23" fill="#005aa6" />
		</g>
		<g>
			<text fill="#595959" font-family="Verdana,sans-serif" font-weight="400" font-size="41" transform="matrix(1 0 0 1 4404.56 531)">Desktop</text>
		</g>
		<g>
			<rect x="4372" y="585" width="22.9995" height="23" fill="#55c0e9" />
		</g>
		<g>
			<text fill="#595959" font-family="Verdana,sans-serif" font-weight="400" font-size="41" transform="matrix(1 0 0 1 4404.56 608)">Other</text>
		</g>
		<g>
			<rect x="4372" y="662" width="22.9995" height="23" fill="#f6a118" />
		</g>
		<g>
			<text fill="#595959" font-family="Verdana,sans-serif" font-weight="400" font-size="41" transform="matrix(1 0 0 1 4404.56 685)">Tablet</text>
		</g>
		<g>
			<rect x="4372" y="739" width="22.9995" height="23" fill="#fdd5a4" />
		</g>
		<g>
			<text fill="#595959" font-family="Verdana,sans-serif" font-weight="400" font-size="41" transform="matrix(1 0 0 1 4404.56 762)">Tv</text>
		</g>
		<g>
			<rect x="4372" y="816" width="22.9995" height="23" fill="#393d41" />
		</g>
		<g>
			<text fill="#595959" font-family="Verdana,sans-serif" font-weight="400" font-size="41" transform="matrix(1 0 0 1 4404.56 839)">Unclassified</text>
		</g>
	</g>
</svg>
