<svg width="1763" height="1046"
    xmlns="http://www.w3.org/2000/svg"
	xmlns:xlink="http://www.w3.org/1999/xlink" xml:space="preserve" overflow="hidden">
	<defs>
		<clipPath id="clip0">
			<rect x="2917" y="346" width="1763" height="1046"/>
		</clipPath>
	</defs>
	<g clip-path="url(#clip0)" transform="translate(-2917 -346)">
		<rect x="2918" y="347" width="1760" height="1043" fill="#FFFFFF" />
		<g>
			<path d="
			M3228.5 974.532 4296.5 974.532
			M3228.5 910.53 4296.5 910.53
			M3228.5 846.528 4296.5 846.528
			M3228.5 781.526 4296.5 781.526
			M3228.5 717.524 4296.5 717.524
			M3228.5 653.522 4296.5 653.522
			M3228.5 589.52 4296.5 589.52
			M3228.5 525.517 4296.5 525.517
			M3228.5 461.515 4296.5 461.515
			M3228.5 397.5 4296.5 397.5" stroke="#D9D9D9" stroke-width="3.4375" stroke-linejoin="round" stroke-miterlimit="10" fill="none" />
		</g>
		<g>
			<path d="M 1038.5 4296.5 1038.5" stroke="#D9D9D9" stroke-width="3.4375" stroke-linejoin="round" stroke-miterlimit="10" fill="none" fill-rule="evenodd" />
		</g>
		<g>
			<text fill="#595959" font-family="Verdana,Open Sans,DejaVu Sans,sans-serif" font-weight="400" font-size="41" transform="matrix(6.12323e-17 -1 1 6.12323e-17 3247.928955078125 1177.2768478393555)">15-Jul</text>
		</g>
		<g>
			<text fill="#595959" font-family="Verdana,Open Sans,DejaVu Sans,sans-serif" font-weight="400" font-size="41" transform="matrix(6.12323e-17 -1 1 6.12323e-17 3335.452960578763 1206.90576171875)">12-Aug</text>
		</g>
		<g>
			<text fill="#595959" font-family="Verdana,Open Sans,DejaVu Sans,sans-serif" font-weight="400" font-size="41" transform="matrix(6.12323e-17 -1 1 6.12323e-17 3422.6566535794004 1204.38330078125)">09-Sep</text>
		</g>
		<g>
			<text fill="#595959" font-family="Verdana,Open Sans,DejaVu Sans,sans-serif" font-weight="400" font-size="41" transform="matrix(6.12323e-17 -1 1 6.12323e-17 3505.1157176737884 1201.1000900268555)">07-Oct</text>
		</g>
		<g>
			<text fill="#595959" font-family="Verdana,Open Sans,DejaVu Sans,sans-serif" font-weight="400" font-size="41" transform="matrix(6.12323e-17 -1 1 6.12323e-17 3592.299391143176 1211.43017578125)">04-Nov</text>
		</g>
		<g>
			<text fill="#595959" font-family="Verdana,Open Sans,DejaVu Sans,sans-serif" font-weight="400" font-size="41" transform="matrix(6.12323e-17 -1 1 6.12323e-17 3679.483064612564 1207.0859375)">09-Dec</text>
		</g>
		<g>
			<text fill="#595959" font-family="Verdana,Open Sans,DejaVu Sans,sans-serif" font-weight="400" font-size="41" transform="matrix(6.12323e-17 -1 1 6.12323e-17 3770.3203025350767 1191.6508712768555)">06-Jan</text>
		</g>
		<g>
			<text fill="#595959" font-family="Verdana,Open Sans,DejaVu Sans,sans-serif" font-weight="400" font-size="41" transform="matrix(6.12323e-17 -1 1 6.12323e-17 3854.561104910714 1203.0419921875)">03-Feb</text>
		</g>
		<g>
			<text fill="#595959" font-family="Verdana,Open Sans,DejaVu Sans,sans-serif" font-weight="400" font-size="41" transform="matrix(6.12323e-17 -1 1 6.12323e-17 3941.034085020727 1212.0107421875)">03-Mar</text>
		</g>
		<g>
			<text fill="#595959" font-family="Verdana,Open Sans,DejaVu Sans,sans-serif" font-weight="400" font-size="41" transform="matrix(6.12323e-17 -1 1 6.12323e-17 4028.1977389588646 1212.1708984375)">31-Mar</text>
		</g>
		<g>
			<text fill="#595959" font-family="Verdana,Open Sans,DejaVu Sans,sans-serif" font-weight="400" font-size="41" transform="matrix(6.12323e-17 -1 1 6.12323e-17 4120.106021803253 1203.3022384643555)">28-Apr</text>
		</g>
		<g>
			<text fill="#595959" font-family="Verdana,Open Sans,DejaVu Sans,sans-serif" font-weight="400" font-size="41" transform="matrix(6.12323e-17 -1 1 6.12323e-17 4207.2896952726405 1216.51513671875)">26-May</text>
		</g>
		<g>
			<text fill="#595959" font-family="Verdana,Open Sans,DejaVu Sans,sans-serif" font-weight="400" font-size="41" transform="matrix(6.12323e-17 -1 1 6.12323e-17 4293.4223433514035 1194.1733322143555)">30-Jun</text>
		</g>
		<g>
			<text fill="#595959" font-family="Verdana,Open Sans,DejaVu Sans,sans-serif" font-weight="400" font-size="41" transform="matrix(1 0 0 1 3169.14111328125 1050)">0</text>
		</g>
		<g>
			<text fill="#595959" font-family="Verdana,Open Sans,DejaVu Sans,sans-serif" font-weight="400" font-size="41" transform="matrix(1 0 0 1 3067.3618240356445 922)">18,115</text>
		</g>
		<g>
			<text fill="#595959" font-family="Verdana,Open Sans,DejaVu Sans,sans-serif" font-weight="400" font-size="41" transform="matrix(1 0 0 1 3065.3198318481445 794)">36,229</text>
		</g>
		<g>
			<text fill="#595959" font-family="Verdana,Open Sans,DejaVu Sans,sans-serif" font-weight="400" font-size="41" transform="matrix(1 0 0 1 3064.7192459106445 666)">54,344</text>
		</g>
		<g>
			<text fill="#595959" font-family="Verdana,Open Sans,DejaVu Sans,sans-serif" font-weight="400" font-size="41" transform="matrix(1 0 0 1 3065.2397537231445 538)">72,458</text>
		</g>
		<g>
			<text fill="#595959" font-family="Verdana,Open Sans,DejaVu Sans,sans-serif" font-weight="400" font-size="41" transform="matrix(1 0 0 1 3065.7602615356445 410)">90,573</text>
		</g>
		<g>
			<text fill="#595959" font-family="Verdana,Open Sans,DejaVu Sans,sans-serif" font-weight="400" font-size="41" transform="matrix(1 0 0 1 3556.97119140625 1321)">Week Commencing</text>
		</g>
		<g>
			<text fill="#595959" font-family="Verdana,Open Sans,DejaVu Sans,sans-serif" font-weight="400" font-size="46" transform="matrix(6.12323e-17 -1 1 6.12323e-17 3019.73 1028.5532531738281)">Number of Hardware Profiles</text>
		</g>
		<rect x="2918.5" y="347.5" width="1760" height="1043" stroke="#D9D9D9" stroke-width="3.4375" stroke-linejoin="round" stroke-miterlimit="10" fill="none" />
		<g>
			<path d="M3228.5 1038 3250.295918367347 1038 3272.091836734694 1038 3293.887755102041 1038 3315.683673469388 1038 3337.4795918367345 1038 3359.2755102040815 1038 3381.0714285714284 1038 3402.8673469387754 1038 3424.6632653061224 1038 3446.4591836734694 1038 3468.2551020408164 1038 3490.0510204081634 1038 3511.8469387755104 1038 3533.6428571428573 1038 3555.4387755102043 1038 3577.234693877551 1038 3599.030612244898 1038 3620.826530612245 1038 3642.622448979592 1038 3664.418367346939 1038 3686.214285714286 1038 3708.0102040816328 1038 3729.8061224489797 1038 3751.6020408163267 1038 3773.3979591836733 1038 3795.1938775510203 1038 3816.9897959183672 1038 3838.785714285714 1038 3860.581632653061 1038 3882.377551020408 1038 3904.173469387755 1038 3925.969387755102 1038 3947.765306122449 1038 3969.5612244897957 1038 3991.357142857143 1038 4013.1530612244896 1038 4034.9489795918366 1038 4056.7448979591836 1038 4078.5408163265306 1038 4100.336734693878 1038 4122.132653061224 1038 4143.928571428572 1038 4165.724489795918 1038 4187.5204081632655 1038 4209.316326530612 1038 4231.1122448979595 1038 4252.908163265306 1038 4274.7040816326535 1038 4296.5 1038 4296.5 691.7528844136773 4274.7040816326535 692.077926092765 4252.908163265306 692.3747032780188 4231.1122448979595 692.7492078213154 4209.316326530612 693.208505846113 4187.5204081632655 693.7667295993288 4165.724489795918 694.1412341426253 4143.928571428572 694.4733419451713 4122.132653061224 694.8619787353847 4100.336734693878 695.2364832786812 4078.5408163265306 695.547392710852 4056.7448979591836 695.9077650072318 4034.9489795918366 696.2610711801531 4013.1530612244896 696.5649144888653 3991.357142857143 696.8970222914113 3969.5612244897957 697.2856590816248 3947.765306122449 697.6318991310876 3925.969387755102 697.9922714274674 3904.173469387755 698.2890486127212 3882.377551020408 698.684751526393 3860.581632653061 699.0451238227728 3838.785714285714 699.4408267364447 3816.9897959183672 699.7870667859074 3795.1938775510203 700.0909100946199 3773.3979591836733 700.3806211564153 3751.6020408163267 700.6561999712939 3729.8061224489797 700.8540514281298 3708.0102040816328 701.0377706380489 3686.214285714286 701.3133494529275 3664.418367346939 701.6949201196825 3642.622448979592 702.0764907864375 3620.826530612245 702.3944663420666 3599.030612244898 702.6559129100283 3577.234693877551 702.882028860698 3555.4387755102043 703.1505415521182 3533.6428571428573 703.496781601581 3511.8469387755104 703.8500877745023 3490.0510204081634 704.17512945359 3468.2551020408164 704.4648405153854 3446.4591836734694 704.6485597253045 3424.6632653061224 705.0371965155178 3402.8673469387754 705.5106267872325 3381.0714285714284 705.7791394786525 3359.2755102040815 705.9769909354885 3337.4795918367345 706.2243052565334 3315.683673469388 706.5281485652457 3293.887755102041 706.8107935035828 3272.091836734694 707.0369094542523 3250.295918367347 707.4043478740905 3228.5 707.7081911828028 3228.5 1038Z" fill="#e62d39" opacity="0.9" />
		</g>
		<g>
			<path d="M3228.5 707.7081911828028 3250.295918367347 707.4043478740905 3272.091836734694 707.0369094542523 3293.887755102041 706.8107935035828 3315.683673469388 706.5281485652457 3337.4795918367345 706.2243052565334 3359.2755102040815 705.9769909354885 3381.0714285714284 705.7791394786525 3402.8673469387754 705.5106267872325 3424.6632653061224 705.0371965155178 3446.4591836734694 704.6485597253045 3468.2551020408164 704.4648405153854 3490.0510204081634 704.17512945359 3511.8469387755104 703.8500877745023 3533.6428571428573 703.496781601581 3555.4387755102043 703.1505415521182 3577.234693877551 702.882028860698 3599.030612244898 702.6559129100283 3620.826530612245 702.3944663420666 3642.622448979592 702.0764907864375 3664.418367346939 701.6949201196825 3686.214285714286 701.3133494529275 3708.0102040816328 701.0377706380489 3729.8061224489797 700.8540514281298 3751.6020408163267 700.6561999712939 3773.3979591836733 700.3806211564153 3795.1938775510203 700.0909100946199 3816.9897959183672 699.7870667859074 3838.785714285714 699.4408267364447 3860.581632653061 699.0451238227728 3882.377551020408 698.684751526393 3904.173469387755 698.2890486127212 3925.969387755102 697.9922714274674 3947.765306122449 697.6318991310876 3969.5612244897957 697.2856590816248 3991.357142857143 696.8970222914113 4013.1530612244896 696.5649144888653 4034.9489795918366 696.2610711801531 4056.7448979591836 695.9077650072318 4078.5408163265306 695.547392710852 4100.336734693878 695.2364832786812 4122.132653061224 694.8619787353847 4143.928571428572 694.4733419451713 4165.724489795918 694.1412341426253 4187.5204081632655 693.7667295993288 4209.316326530612 693.208505846113 4231.1122448979595 692.7492078213154 4252.908163265306 692.3747032780188 4274.7040816326535 692.077926092765 4296.5 691.7528844136773 4296.5 525.9604297086328 4274.7040816326535 526.4691905976395 4252.908163265306 526.9779514866461 4231.1122448979595 527.5291091164033 4209.316326530612 528.1297296103694 4187.5204081632655 529.0271272895897 4165.724489795918 529.5358881785962 4143.928571428572 529.9739878330187 4122.132653061224 530.4403519812747 4100.336734693878 530.9349806233645 4078.5408163265306 531.3377496604949 4056.7448979591836 531.8889072902521 4034.9489795918366 532.3976681792587 4013.1530612244896 532.8710984509731 3991.357142857143 533.3869254634383 3969.5612244897957 533.895686352445 3947.765306122449 534.3479182537842 3925.969387755102 534.8072162785819 3904.173469387755 535.2029191922537 3882.377551020408 535.6692833405098 3860.581632653061 536.1709781060581 3838.785714285714 536.6726728716064 3816.9897959183672 537.0825080321949 3795.1938775510203 537.5418060569928 3773.3979591836733 537.994037958332 3751.6020408163267 538.4250714892959 3729.8061224489797 538.6653196868824 3708.0102040816328 538.8773033906352 3686.214285714286 539.273006304307 3664.418367346939 539.6969737118126 3642.622448979592 540.2693297119451 3620.826530612245 540.6720987490753 3599.030612244898 541.0819339096639 3577.234693877551 541.4564384529606 3555.4387755102043 541.9369348481335 3533.6428571428573 542.4032989963896 3511.8469387755104 542.841398650812 3490.0510204081634 543.3006966756097 3468.2551020408164 543.7387963300321 3446.4591836734694 544.0497057622028 3424.6632653061224 544.5725988981263 3402.8673469387754 545.1096242809667 3381.0714285714284 545.5477239353891 3359.2755102040815 545.8515672441015 3337.4795918367345 546.1907411701059 3315.683673469388 546.6147085776114 3293.887755102041 546.9821469974496 3272.091836734694 547.356651540746 3250.295918367347 547.8088834420854 3228.5 548.2399169730493 3228.5 707.7081911828028Z" fill="#f6a118" opacity="0.9" />
		</g>
		<g>
			<path d="M3228.5 548.2399169730493 3250.295918367347 547.8088834420854 3272.091836734694 547.356651540746 3293.887755102041 546.9821469974496 3315.683673469388 546.6147085776114 3337.4795918367345 546.1907411701059 3359.2755102040815 545.8515672441015 3381.0714285714284 545.5477239353891 3402.8673469387754 545.1096242809667 3424.6632653061224 544.5725988981263 3446.4591836734694 544.0497057622028 3468.2551020408164 543.7387963300321 3490.0510204081634 543.3006966756097 3511.8469387755104 542.841398650812 3533.6428571428573 542.4032989963896 3555.4387755102043 541.9369348481335 3577.234693877551 541.4564384529606 3599.030612244898 541.0819339096639 3620.826530612245 540.6720987490753 3642.622448979592 540.2693297119451 3664.418367346939 539.6969737118126 3686.214285714286 539.273006304307 3708.0102040816328 538.8773033906352 3729.8061224489797 538.6653196868824 3751.6020408163267 538.4250714892959 3773.3979591836733 537.994037958332 3795.1938775510203 537.5418060569928 3816.9897959183672 537.0825080321949 3838.785714285714 536.6726728716064 3860.581632653061 536.1709781060581 3882.377551020408 535.6692833405098 3904.173469387755 535.2029191922537 3925.969387755102 534.8072162785819 3947.765306122449 534.3479182537842 3969.5612244897957 533.895686352445 3991.357142857143 533.3869254634383 4013.1530612244896 532.8710984509731 4034.9489795918366 532.3976681792587 4056.7448979591836 531.8889072902521 4078.5408163265306 531.3377496604949 4100.336734693878 530.9349806233645 4122.132653061224 530.4403519812747 4143.928571428572 529.9739878330187 4165.724489795918 529.5358881785962 4187.5204081632655 529.0271272895897 4209.316326530612 528.1297296103694 4231.1122448979595 527.5291091164033 4252.908163265306 526.9779514866461 4274.7040816326535 526.4691905976395 4296.5 525.9604297086328 4296.5 450.1974539873913 4274.7040816326535 450.72034712331487 4252.908163265306 451.285636999989 4231.1122448979595 451.8721252470383 4209.316326530612 452.5080763582965 4187.5204081632655 453.5043997659347 4165.724489795918 454.0696896426087 4143.928571428572 454.5643182846985 4122.132653061224 455.0518808033298 4100.336734693878 455.6171706800039 4078.5408163265306 456.048204210968 4056.7448979591836 456.62056021110044 4034.9489795918366 457.19291621123295 4013.1530612244896 457.6875448533226 3991.357142857143 458.2104379892462 3969.5612244897957 458.74039724862814 3947.765306122449 459.2279597672595 3925.969387755102 459.7084561624325 3904.173469387755 460.1606880637717 3882.377551020408 460.66944895277834 3860.581632653061 461.1782098417851 3838.785714285714 461.69403685425027 3816.9897959183672 462.11800426175563 3795.1938775510203 462.6267651507624 3773.3979591836733 463.12139379285225 3751.6020408163267 463.59482406456664 3729.8061224489797 463.84213838561163 3708.0102040816328 464.06825433628126 3686.214285714286 464.50635399070364 3664.418367346939 464.94445364512603 3642.622448979592 465.57333863292604 3620.826530612245 465.990239916973 3599.030612244898 466.4354056948538 3577.234693877551 466.89470371965155 3555.4387755102043 467.40346460865817 3533.6428571428573 467.9051593742064 3511.8469387755104 468.37152352246255 3490.0510204081634 468.8732182880108 3468.2551020408164 469.36784693010054 3446.4591836734694 469.71408697956343 3424.6632653061224 470.30057522661275 3402.8673469387754 470.92946021441264 3381.0714285714284 471.3958243626687 3359.2755102040815 471.7420644121317 3337.4795918367345 472.12363507888665 3315.683673469388 472.60413147405956 3293.887755102041 473.01396663464834 3272.091836734694 473.4026034248616 3250.295918367347 473.86896757311786 3228.5 474.3282655979154 3228.5 548.2399169730493Z" fill="#55c0e9" opacity="0.9" />
		</g>
		<g>
			<path d="M3228.5 474.3282655979154 3250.295918367347 473.86896757311786 3272.091836734694 473.4026034248616 3293.887755102041 473.01396663464834 3315.683673469388 472.60413147405956 3337.4795918367345 472.12363507888665 3359.2755102040815 471.7420644121317 3381.0714285714284 471.3958243626687 3402.8673469387754 470.92946021441264 3424.6632653061224 470.30057522661275 3446.4591836734694 469.71408697956343 3468.2551020408164 469.36784693010054 3490.0510204081634 468.8732182880108 3511.8469387755104 468.37152352246255 3533.6428571428573 467.9051593742064 3555.4387755102043 467.40346460865817 3577.234693877551 466.89470371965155 3599.030612244898 466.4354056948538 3620.826530612245 465.990239916973 3642.622448979592 465.57333863292604 3664.418367346939 464.94445364512603 3686.214285714286 464.50635399070364 3708.0102040816328 464.06825433628126 3729.8061224489797 463.84213838561163 3751.6020408163267 463.59482406456664 3773.3979591836733 463.12139379285225 3795.1938775510203 462.6267651507624 3816.9897959183672 462.11800426175563 3838.785714285714 461.69403685425027 3860.581632653061 461.1782098417851 3882.377551020408 460.66944895277834 3904.173469387755 460.1606880637717 3925.969387755102 459.7084561624325 3947.765306122449 459.2279597672595 3969.5612244897957 458.74039724862814 3991.357142857143 458.2104379892462 4013.1530612244896 457.6875448533226 4034.9489795918366 457.19291621123295 4056.7448979591836 456.62056021110044 4078.5408163265306 456.048204210968 4100.336734693878 455.6171706800039 4122.132653061224 455.0518808033298 4143.928571428572 454.5643182846985 4165.724489795918 454.0696896426087 4187.5204081632655 453.5043997659347 4209.316326530612 452.5080763582965 4231.1122448979595 451.8721252470383 4252.908163265306 451.285636999989 4274.7040816326535 450.72034712331487 4296.5 450.1974539873913 4296.5 399.31429896326716 4274.7040816326535 400.01384518565135 4252.908163265306 400.6992591611187 4231.1122448979595 401.4270698773365 4209.316326530612 402.1478144700958 4187.5204081632655 403.40558444569575 4165.724489795918 404.1121967915383 4143.928571428572 404.8258752608393 4122.132653061224 405.419429631347 4100.336734693878 406.1119097302727 4078.5408163265306 406.6277367427379 4056.7448979591836 407.3414152120389 4034.9489795918366 408.0974904220905 4013.1530612244896 408.7829043975577 3991.357142857143 409.4541861261082 3969.5612244897957 410.1678645954092 3947.765306122449 410.8603446943349 3925.969387755102 411.5952215340113 3904.173469387755 412.29476775639534 3882.377551020408 413.00844622569633 3860.581632653061 413.7221246949974 3838.785714285714 414.4216709173817 3816.9897959183672 415.0505559051814 3795.1938775510203 415.77836662139936 3773.3979591836733 416.47791284378354 3751.6020408163267 417.1915913130844 3729.8061224489797 417.48130237488 3708.0102040816328 417.78514568359225 3686.214285714286 418.4634935356011 3664.418367346939 419.1630397579853 3642.622448979592 420.385479116293 3620.826530612245 421.04262859792647 3599.030612244898 421.7139103264769 3577.234693877551 422.4063904254027 3555.4387755102043 423.0988705243284 3533.6428571428573 423.805482870171 3511.8469387755104 424.49796296909676 3490.0510204081634 425.1904430680225 3468.2551020408164 425.87585704348976 3446.4591836734694 426.4058163028717 3424.6632653061224 427.29614785863333 3402.8673469387754 428.09461980943547 3381.0714285714284 428.80123215527794 3359.2755102040815 429.3453236615769 3337.4795918367345 430.00953926666887 3315.683673469388 430.6808209952193 3293.887755102041 431.3450366003114 3272.091836734694 432.01631832886164 3250.295918367347 432.69466618087074 3228.5 433.39421240325476 3228.5 474.3282655979154Z" fill="#fdd5a4" opacity="0.9" />
		</g>
		<g>
			<path d="M3228.5 433.39421240325476 3250.295918367347 432.69466618087074 3272.091836734694 432.01631832886164 3293.887755102041 431.3450366003114 3315.683673469388 430.6808209952193 3337.4795918367345 430.00953926666887 3359.2755102040815 429.3453236615769 3381.0714285714284 428.80123215527794 3402.8673469387754 428.09461980943547 3424.6632653061224 427.29614785863333 3446.4591836734694 426.4058163028717 3468.2551020408164 425.87585704348976 3490.0510204081634 425.1904430680225 3511.8469387755104 424.49796296909676 3533.6428571428573 423.805482870171 3555.4387755102043 423.0988705243284 3577.234693877551 422.4063904254027 3599.030612244898 421.7139103264769 3620.826530612245 421.04262859792647 3642.622448979592 420.385479116293 3664.418367346939 419.1630397579853 3686.214285714286 418.4634935356011 3708.0102040816328 417.78514568359225 3729.8061224489797 417.48130237488 3751.6020408163267 417.1915913130844 3773.3979591836733 416.47791284378354 3795.1938775510203 415.77836662139936 3816.9897959183672 415.0505559051814 3838.785714285714 414.4216709173817 3860.581632653061 413.7221246949974 3882.377551020408 413.00844622569633 3904.173469387755 412.29476775639534 3925.969387755102 411.5952215340113 3947.765306122449 410.8603446943349 3969.5612244897957 410.1678645954092 3991.357142857143 409.4541861261082 4013.1530612244896 408.7829043975577 4034.9489795918366 408.0974904220905 4056.7448979591836 407.3414152120389 4078.5408163265306 406.6277367427379 4100.336734693878 406.1119097302727 4122.132653061224 405.419429631347 4143.928571428572 404.8258752608393 4165.724489795918 404.1121967915383 4187.5204081632655 403.40558444569575 4209.316326530612 402.1478144700958 4231.1122448979595 401.4270698773365 4252.908163265306 400.6992591611187 4274.7040816326535 400.01384518565135 4296.5 399.31429896326716 4296.5 397.99999999999994 4274.7040816326535 398.69954622238413 4252.908163265306 399.38496019785146 4231.1122448979595 400.1127709140693 4209.316326530612 400.8335155068286 4187.5204081632655 402.09128548242853 4165.724489795918 402.79789782827106 4143.928571428572 403.5115762975721 4122.132653061224 404.10513066807977 4100.336734693878 404.7976107670055 4078.5408163265306 405.3134377794707 4056.7448979591836 406.0271162487717 4034.9489795918366 406.7831914588233 4013.1530612244896 407.46860543429045 3991.357142857143 408.139887162841 3969.5612244897957 408.85356563214197 3947.765306122449 409.5460457310677 3925.969387755102 410.28092257074405 3904.173469387755 410.9804687931281 3882.377551020408 411.6941472624291 3860.581632653061 412.40782573173016 3838.785714285714 413.10737195411446 3816.9897959183672 413.7362569419142 3795.1938775510203 414.46406765813214 3773.3979591836733 415.1636138805163 3751.6020408163267 415.8772923498172 3729.8061224489797 416.16700341161277 3708.0102040816328 416.470846720325 3686.214285714286 417.1491945723339 3664.418367346939 417.8487407947181 3642.622448979592 419.0711801530258 3620.826530612245 419.72832963465925 3599.030612244898 420.39961136320966 3577.234693877551 421.0920914621355 3555.4387755102043 421.7916376845196 3533.6428571428573 422.5053161538206 3511.8469387755104 423.1977962527464 3490.0510204081634 423.8902763516721 3468.2551020408164 424.5756903271394 3446.4591836734694 425.10564958652134 3424.6632653061224 425.995981142283 3402.8673469387754 426.7944530930851 3381.0714285714284 427.5010654389276 3359.2755102040815 428.04515694522655 3337.4795918367345 428.7093725503185 3315.683673469388 429.3806542788689 3293.887755102041 430.04486988396104 3272.091836734694 430.7161516125113 3250.295918367347 431.3944994645204 3228.5 432.0940456869044 3228.5 433.39421240325476Z" fill="#005aa6" opacity="0.9" />
		</g>
		<g>
			<rect x="4372" y="431" width="22.9995" height="23" fill="#e62d39" />
		</g>
		<g>
			<text fill="#595959" font-family="Verdana,Open Sans,DejaVu Sans,sans-serif" font-weight="400" font-size="41" transform="matrix(1 0 0 1 4404.56 454)">Smartphone</text>
		</g>
		<g>
			<rect x="4372" y="508" width="22.9995" height="23" fill="#f6a118" />
		</g>
		<g>
			<text fill="#595959" font-family="Verdana,Open Sans,DejaVu Sans,sans-serif" font-weight="400" font-size="41" transform="matrix(1 0 0 1 4404.56 531)">Tablet</text>
		</g>
		<g>
			<rect x="4372" y="585" width="22.9995" height="23" fill="#55c0e9" />
		</g>
		<g>
			<text fill="#595959" font-family="Verdana,Open Sans,DejaVu Sans,sans-serif" font-weight="400" font-size="41" transform="matrix(1 0 0 1 4404.56 608)">Other</text>
		</g>
		<g>
			<rect x="4372" y="662" width="22.9995" height="23" fill="#fdd5a4" />
		</g>
		<g>
			<text fill="#595959" font-family="Verdana,Open Sans,DejaVu Sans,sans-serif" font-weight="400" font-size="41" transform="matrix(1 0 0 1 4404.56 685)">Tv</text>
		</g>
		<g>
			<rect x="4372" y="739" width="22.9995" height="23" fill="#005aa6" />
		</g>
		<g>
			<text fill="#595959" font-family="Verdana,Open Sans,DejaVu Sans,sans-serif" font-weight="400" font-size="41" transform="matrix(1 0 0 1 4404.56 762)">Desktop</text>
		</g>
	</g>
</svg>
