<svg width="1763" height="1046"
    xmlns="http://www.w3.org/2000/svg"
	xmlns:xlink="http://www.w3.org/1999/xlink" xml:space="preserve" overflow="hidden">
	<defs>
		<clipPath id="clip0">
			<rect x="2917" y="346" width="1763" height="1046"/>
		</clipPath>
	</defs>
	<g clip-path="url(#clip0)" transform="translate(-2917 -346)">
		<rect x="2918" y="347" width="1760" height="1043" fill="#FFFFFF" />
		<g>
			<path d="
			M3228.5 974.532 4296.5 974.532
			M3228.5 910.53 4296.5 910.53
			M3228.5 846.528 4296.5 846.528
			M3228.5 781.526 4296.5 781.526
			M3228.5 717.524 4296.5 717.524
			M3228.5 653.522 4296.5 653.522
			M3228.5 589.52 4296.5 589.52
			M3228.5 525.517 4296.5 525.517
			M3228.5 461.515 4296.5 461.515
			M3228.5 397.5 4296.5 397.5" stroke="#D9D9D9" stroke-width="3.4375" stroke-linejoin="round" stroke-miterlimit="10" fill="none" />
		</g>
		<g>
			<path d="M 1038.5 4296.5 1038.5" stroke="#D9D9D9" stroke-width="3.4375" stroke-linejoin="round" stroke-miterlimit="10" fill="none" fill-rule="evenodd" />
		</g>
		<g>
			<text fill="#595959" font-family="Verdana,Open Sans,DejaVu Sans,sans-serif" font-weight="400" font-size="41" transform="matrix(6.12323e-17 -1 1 6.12323e-17 3248.289306640625 1204.54345703125)">30-Sep</text>
		</g>
		<g>
			<text fill="#595959" font-family="Verdana,Open Sans,DejaVu Sans,sans-serif" font-weight="400" font-size="41" transform="matrix(6.12323e-17 -1 1 6.12323e-17 3330.748370735013 1201.1401290893555)">28-Oct</text>
		</g>
		<g>
			<text fill="#595959" font-family="Verdana,Open Sans,DejaVu Sans,sans-serif" font-weight="400" font-size="41" transform="matrix(6.12323e-17 -1 1 6.12323e-17 3417.9120246731504 1211.47021484375)">25-Nov</text>
		</g>
		<g>
			<text fill="#595959" font-family="Verdana,Open Sans,DejaVu Sans,sans-serif" font-weight="400" font-size="41" transform="matrix(6.12323e-17 -1 1 6.12323e-17 3505.1157176737884 1207.24609375)">30-Dec</text>
		</g>
		<g>
			<text fill="#595959" font-family="Verdana,Open Sans,DejaVu Sans,sans-serif" font-weight="400" font-size="41" transform="matrix(6.12323e-17 -1 1 6.12323e-17 3595.932936065051 1191.6909103393555)">27-Jan</text>
		</g>
		<g>
			<text fill="#595959" font-family="Verdana,Open Sans,DejaVu Sans,sans-serif" font-weight="400" font-size="41" transform="matrix(6.12323e-17 -1 1 6.12323e-17 3680.193757971939 1203.08203125)">24-Feb</text>
		</g>
		<g>
			<text fill="#595959" font-family="Verdana,Open Sans,DejaVu Sans,sans-serif" font-weight="400" font-size="41" transform="matrix(6.12323e-17 -1 1 6.12323e-17 3766.6467185507017 1212.05078125)">24-Mar</text>
		</g>
		<g>
			<text fill="#595959" font-family="Verdana,Open Sans,DejaVu Sans,sans-serif" font-weight="400" font-size="41" transform="matrix(6.12323e-17 -1 1 6.12323e-17 3858.555001395089 1203.3022384643555)">21-Apr</text>
		</g>
		<g>
			<text fill="#595959" font-family="Verdana,Open Sans,DejaVu Sans,sans-serif" font-weight="400" font-size="41" transform="matrix(6.12323e-17 -1 1 6.12323e-17 3945.738674864477 1214.75341796875)">19-May</text>
		</g>
		<g>
			<text fill="#595959" font-family="Verdana,Open Sans,DejaVu Sans,sans-serif" font-weight="400" font-size="41" transform="matrix(6.12323e-17 -1 1 6.12323e-17 4031.8513034119896 1194.0532150268555)">23-Jun</text>
		</g>
		<g>
			<text fill="#595959" font-family="Verdana,Open Sans,DejaVu Sans,sans-serif" font-weight="400" font-size="41" transform="matrix(6.12323e-17 -1 1 6.12323e-17 4119.765689772003 1179.0385665893555)">21-Jul</text>
		</g>
		<g>
			<text fill="#595959" font-family="Verdana,Open Sans,DejaVu Sans,sans-serif" font-weight="400" font-size="41" transform="matrix(6.12323e-17 -1 1 6.12323e-17 4207.2896952726405 1206.90576171875)">18-Aug</text>
		</g>
		<g>
			<text fill="#595959" font-family="Verdana,Open Sans,DejaVu Sans,sans-serif" font-weight="400" font-size="41" transform="matrix(6.12323e-17 -1 1 6.12323e-17 4294.4733687420285 1202.66162109375)">15-Sep</text>
		</g>
		<g>
			<text fill="#595959" font-family="Verdana,Open Sans,DejaVu Sans,sans-serif" font-weight="400" font-size="41" transform="matrix(1 0 0 1 3135.4482421875 1050)">0%</text>
		</g>
		<g>
			<text fill="#595959" font-family="Verdana,Open Sans,DejaVu Sans,sans-serif" font-weight="400" font-size="41" transform="matrix(1 0 0 1 3111.96533203125 922)">20%</text>
		</g>
		<g>
			<text fill="#595959" font-family="Verdana,Open Sans,DejaVu Sans,sans-serif" font-weight="400" font-size="41" transform="matrix(1 0 0 1 3110.82421875 794)">40%</text>
		</g>
		<g>
			<text fill="#595959" font-family="Verdana,Open Sans,DejaVu Sans,sans-serif" font-weight="400" font-size="41" transform="matrix(1 0 0 1 3112.3056640625 666)">60%</text>
		</g>
		<g>
			<text fill="#595959" font-family="Verdana,Open Sans,DejaVu Sans,sans-serif" font-weight="400" font-size="41" transform="matrix(1 0 0 1 3112.04541015625 538)">80%</text>
		</g>
		<g>
			<text fill="#595959" font-family="Verdana,Open Sans,DejaVu Sans,sans-serif" font-weight="400" font-size="41" transform="matrix(1 0 0 1 3090.2841796875 410)">100%</text>
		</g>
		<g>
			<text fill="#595959" font-family="Verdana,Open Sans,DejaVu Sans,sans-serif" font-weight="400" font-size="41" transform="matrix(1 0 0 1 3556.97119140625 1321)">Week Commencing</text>
		</g>
		<g>
			<text fill="#595959" font-family="Verdana,Open Sans,DejaVu Sans,sans-serif" font-weight="400" font-size="46" transform="matrix(6.12323e-17 -1 1 6.12323e-17 3019.73 936.7665710449219)">Requests (% of Total)</text>
		</g>
		<rect x="2918.5" y="347.5" width="1760" height="1043" stroke="#D9D9D9" stroke-width="3.4375" stroke-linejoin="round" stroke-miterlimit="10" fill="none" />
		<g>
			<path d="M3228.5 1038 3250.295918367347 1038 3272.091836734694 1038 3293.887755102041 1038 3315.683673469388 1038 3337.4795918367345 1038 3359.2755102040815 1038 3381.0714285714284 1038 3402.8673469387754 1038 3424.6632653061224 1038 3446.4591836734694 1038 3468.2551020408164 1038 3490.0510204081634 1038 3511.8469387755104 1038 3533.6428571428573 1038 3555.4387755102043 1038 3577.234693877551 1038 3599.030612244898 1038 3620.826530612245 1038 3642.622448979592 1038 3664.418367346939 1038 3686.214285714286 1038 3708.0102040816328 1038 3729.8061224489797 1038 3751.6020408163267 1038 3773.3979591836733 1038 3795.1938775510203 1038 3816.9897959183672 1038 3838.785714285714 1038 3860.581632653061 1038 3882.377551020408 1038 3904.173469387755 1038 3925.969387755102 1038 3947.765306122449 1038 3969.5612244897957 1038 3991.357142857143 1038 4013.1530612244896 1038 4034.9489795918366 1038 4056.7448979591836 1038 4078.5408163265306 1038 4100.336734693878 1038 4122.132653061224 1038 4143.928571428572 1038 4165.724489795918 1038 4187.5204081632655 1038 4209.316326530612 1038 4231.1122448979595 1038 4252.908163265306 1038 4274.7040816326535 1038 4296.5 1038 4296.5 518.6674644160128 4274.7040816326535 519.0934355637311 4252.908163265306 520.9052457535156 4231.1122448979595 521.6318852573548 4209.316326530612 521.6184156458323 4187.5204081632655 522.2681085366032 4165.724489795918 527.8351358448251 4143.928571428572 527.8182060044346 4122.132653061224 527.8171189568005 4100.336734693878 527.8195281696414 4078.5408163265306 527.7185125063723 4056.7448979591836 528.1749639028288 4034.9489795918366 526.0738068609967 4013.1530612244896 526.0690930129186 3991.357142857143 526.4517905907722 3969.5612244897957 526.966587562726 3947.765306122449 527.7344479046612 3925.969387755102 528.0922596265774 3904.173469387755 528.3637575953018 3882.377551020408 528.4473950245434 3860.581632653061 528.3817437118579 3838.785714285714 528.3209049784523 3816.9897959183672 528.6035113858115 3795.1938775510203 529.0722280244075 3773.3979591836733 529.4214956662862 3751.6020408163267 529.807429199031 3729.8061224489797 533.5058286789898 3708.0102040816328 533.4031264720519 3686.214285714286 533.4021762961523 3664.418367346939 533.7756525096236 3642.622448979592 533.8956466575289 3620.826530612245 533.9572095457534 3599.030612244898 533.4841990448925 3577.234693877551 533.4528010722697 3555.4387755102043 533.722746014736 3533.6428571428573 533.7853664259474 3511.8469387755104 533.8294455926118 3490.0510204081634 533.7499584959044 3468.2551020408164 533.5577242345337 3446.4591836734694 533.3794235575219 3424.6632653061224 533.1839579715512 3402.8673469387754 532.7385960569093 3381.0714285714284 532.9945218339117 3359.2755102040815 533.5883597667535 3337.4795918367345 534.4892592748513 3315.683673469388 535.2648007319358 3293.887755102041 642.4592997578948 3272.091836734694 641.7348258019537 3250.295918367347 641.0274072878076 3228.5 640.0328656683237 3228.5 1038Z" fill="#e62d39" opacity="0.9" />
		</g>
		<g>
			<path d="M3228.5 640.0328656683237 3250.295918367347 641.0274072878076 3272.091836734694 641.7348258019537 3293.887755102041 642.4592997578948 3315.683673469388 535.2648007319358 3337.4795918367345 534.4892592748513 3359.2755102040815 533.5883597667535 3381.0714285714284 532.9945218339117 3402.8673469387754 532.7385960569093 3424.6632653061224 533.1839579715512 3446.4591836734694 533.3794235575219 3468.2551020408164 533.5577242345337 3490.0510204081634 533.7499584959044 3511.8469387755104 533.8294455926118 3533.6428571428573 533.7853664259474 3555.4387755102043 533.722746014736 3577.234693877551 533.4528010722697 3599.030612244898 533.4841990448925 3620.826530612245 533.9572095457534 3642.622448979592 533.8956466575289 3664.418367346939 533.7756525096236 3686.214285714286 533.4021762961523 3708.0102040816328 533.4031264720519 3729.8061224489797 533.5058286789898 3751.6020408163267 529.807429199031 3773.3979591836733 529.4214956662862 3795.1938775510203 529.0722280244075 3816.9897959183672 528.6035113858115 3838.785714285714 528.3209049784523 3860.581632653061 528.3817437118579 3882.377551020408 528.4473950245434 3904.173469387755 528.3637575953018 3925.969387755102 528.0922596265774 3947.765306122449 527.7344479046612 3969.5612244897957 526.966587562726 3991.357142857143 526.4517905907722 4013.1530612244896 526.0690930129186 4034.9489795918366 526.0738068609967 4056.7448979591836 528.1749639028288 4078.5408163265306 527.7185125063723 4100.336734693878 527.8195281696414 4122.132653061224 527.8171189568005 4143.928571428572 527.8182060044346 4165.724489795918 527.8351358448251 4187.5204081632655 522.2681085366032 4209.316326530612 521.6184156458323 4231.1122448979595 521.6318852573548 4252.908163265306 520.9052457535156 4274.7040816326535 519.0934355637311 4296.5 518.6674644160128 4296.5 438.6583696725575 4274.7040816326535 438.939493870515 4252.908163265306 439.76778884064066 4231.1122448979595 440.12172845279287 4209.316326530612 440.1025942817036 4187.5204081632655 440.43245647629897 4165.724489795918 446.0049434709254 4143.928571428572 445.99448025532104 4122.132653061224 445.9906298366525 4100.336734693878 445.9850763388172 4078.5408163265306 446.00044835106377 4056.7448979591836 445.48995832347725 4034.9489795918366 440.7320769519542 4013.1530612244896 440.71015435347675 3991.357142857143 440.79849020545294 3969.5612244897957 441.02669160650083 3947.765306122449 441.4805241599953 3925.969387755102 441.7146387359797 3904.173469387755 441.87434560441795 3882.377551020408 442.00506484989137 3860.581632653061 442.0536403247141 3838.785714285714 442.1004848135459 3816.9897959183672 442.29078701208255 3795.1938775510203 442.5177613549289 3773.3979591836733 442.75370380577044 3751.6020408163267 443.0039649820596 3729.8061224489797 447.2266118196212 3708.0102040816328 447.3367564362345 3686.214285714286 447.478410212555 3664.418367346939 447.7812344269998 3642.622448979592 447.9735867247491 3620.826530612245 448.11744019003095 3599.030612244898 447.90712750570685 3577.234693877551 447.65114758474357 3555.4387755102043 447.63691579979616 3533.6428571428573 447.6548818464415 3511.8469387755104 447.68514400974766 3490.0510204081634 447.6730658977694 3468.2551020408164 447.6266609249292 3446.4591836734694 447.6323779302626 3424.6632653061224 447.6574339250563 3402.8673469387754 447.5983732210459 3381.0714285714284 447.82372841614773 3359.2755102040815 448.23400972704667 3337.4795918367345 448.85972838125235 3315.683673469388 449.3446349967366 3293.887755102041 564.013087594675 3272.091836734694 563.0569322713101 3250.295918367347 562.1201699126104 3228.5 560.9592369816268 3228.5 640.0328656683237Z" fill="#005aa6" opacity="0.9" />
		</g>
		<g>
			<path d="M3228.5 560.9592369816268 3250.295918367347 562.1201699126104 3272.091836734694 563.0569322713101 3293.887755102041 564.013087594675 3315.683673469388 449.3446349967366 3337.4795918367345 448.85972838125235 3359.2755102040815 448.23400972704667 3381.0714285714284 447.82372841614773 3402.8673469387754 447.5983732210459 3424.6632653061224 447.6574339250563 3446.4591836734694 447.6323779302626 3468.2551020408164 447.6266609249292 3490.0510204081634 447.6730658977694 3511.8469387755104 447.68514400974766 3533.6428571428573 447.6548818464415 3555.4387755102043 447.63691579979616 3577.234693877551 447.65114758474357 3599.030612244898 447.90712750570685 3620.826530612245 448.11744019003095 3642.622448979592 447.9735867247491 3664.418367346939 447.7812344269998 3686.214285714286 447.478410212555 3708.0102040816328 447.3367564362345 3729.8061224489797 447.2266118196212 3751.6020408163267 443.0039649820596 3773.3979591836733 442.75370380577044 3795.1938775510203 442.5177613549289 3816.9897959183672 442.29078701208255 3838.785714285714 442.1004848135459 3860.581632653061 442.0536403247141 3882.377551020408 442.00506484989137 3904.173469387755 441.87434560441795 3925.969387755102 441.7146387359797 3947.765306122449 441.4805241599953 3969.5612244897957 441.02669160650083 3991.357142857143 440.79849020545294 4013.1530612244896 440.71015435347675 4034.9489795918366 440.7320769519542 4056.7448979591836 445.48995832347725 4078.5408163265306 446.00044835106377 4100.336734693878 445.9850763388172 4122.132653061224 445.9906298366525 4143.928571428572 445.99448025532104 4165.724489795918 446.0049434709254 4187.5204081632655 440.43245647629897 4209.316326530612 440.1025942817036 4231.1122448979595 440.12172845279287 4252.908163265306 439.76778884064066 4274.7040816326535 438.939493870515 4296.5 438.6583696725575 4296.5 423.8109003038261 4274.7040816326535 424.0558120196192 4252.908163265306 424.7181344913808 4231.1122448979595 425.0236349944547 4209.316326530612 425.0035344441698 4187.5204081632655 425.28465904377634 4165.724489795918 430.8274530925998 4143.928571428572 430.81817356835387 4122.132653061224 430.8139007331268 4100.336734693878 430.8069864095142 4078.5408163265306 430.9020970833825 4056.7448979591836 430.23142599790555 4034.9489795918366 425.0017650883845 4013.1530612244896 424.9767523660499 3991.357142857143 425.0257701995382 3969.5612244897957 425.20583580775155 3947.765306122449 425.4986687976815 3925.969387755102 425.6867840212037 3904.173469387755 425.8119685721377 3882.377551020408 425.9104888133743 3860.581632653061 425.92679886960804 3838.785714285714 425.94362826788443 3816.9897959183672 426.1140510532148 3795.1938775510203 426.3120783472338 3773.3979591836733 426.5518003809951 3751.6020408163267 426.81320471249694 3729.8061224489797 431.1686011749783 3708.0102040816328 431.3401421096995 3686.214285714286 431.5247092372164 3664.418367346939 431.81676347027957 3642.622448979592 431.99440912392726 3620.826530612245 432.1329946808099 3599.030612244898 432.00359297169024 3577.234693877551 431.84731630596053 3555.4387755102043 431.8659139096981 3533.6428571428573 431.93242137634724 3511.8469387755104 431.9599475077045 3490.0510204081634 431.9558731937295 3468.2551020408164 431.9405589448202 3446.4591836734694 431.96727576259724 3424.6632653061224 432.02029212049626 3402.8673469387754 431.97528739378606 3381.0714285714284 432.15561530771527 3359.2755102040815 432.4754364071281 3337.4795918367345 433.0084053536388 3315.683673469388 433.3913361237896 3293.887755102041 540.8290503164301 3272.091836734694 539.7717503889384 3250.295918367347 538.7148538649283 3228.5 537.4631522646897 3228.5 560.9592369816268Z" fill="#55c0e9" opacity="0.9" />
		</g>
		<g>
			<path d="M3228.5 537.4631522646897 3250.295918367347 538.7148538649283 3272.091836734694 539.7717503889384 3293.887755102041 540.8290503164301 3315.683673469388 433.3913361237896 3337.4795918367345 433.0084053536388 3359.2755102040815 432.4754364071281 3381.0714285714284 432.15561530771527 3402.8673469387754 431.97528739378606 3424.6632653061224 432.02029212049626 3446.4591836734694 431.96727576259724 3468.2551020408164 431.9405589448202 3490.0510204081634 431.9558731937295 3511.8469387755104 431.9599475077045 3533.6428571428573 431.93242137634724 3555.4387755102043 431.8659139096981 3577.234693877551 431.84731630596053 3599.030612244898 432.00359297169024 3620.826530612245 432.1329946808099 3642.622448979592 431.99440912392726 3664.418367346939 431.81676347027957 3686.214285714286 431.5247092372164 3708.0102040816328 431.3401421096995 3729.8061224489797 431.1686011749783 3751.6020408163267 426.81320471249694 3773.3979591836733 426.5518003809951 3795.1938775510203 426.3120783472338 3816.9897959183672 426.1140510532148 3838.785714285714 425.94362826788443 3860.581632653061 425.92679886960804 3882.377551020408 425.9104888133743 3904.173469387755 425.8119685721377 3925.969387755102 425.6867840212037 3947.765306122449 425.4986687976815 3969.5612244897957 425.20583580775155 3991.357142857143 425.0257701995382 4013.1530612244896 424.9767523660499 4034.9489795918366 425.0017650883845 4056.7448979591836 430.23142599790555 4078.5408163265306 430.9020970833825 4100.336734693878 430.8069864095142 4122.132653061224 430.8139007331268 4143.928571428572 430.81817356835387 4165.724489795918 430.8274530925998 4187.5204081632655 425.28465904377634 4209.316326530612 425.0035344441698 4231.1122448979595 425.0236349944547 4252.908163265306 424.7181344913808 4274.7040816326535 424.0558120196192 4296.5 423.8109003038261 4296.5 410.5976679252191 4274.7040816326535 410.7016436985356 4252.908163265306 410.9789161674267 4231.1122448979595 411.1035757536376 4209.316326530612 411.0839891917173 4187.5204081632655 411.22347657579 4165.724489795918 416.32051328878225 4143.928571428572 416.3159617889731 4122.132653061224 416.31921689377526 4100.336734693878 416.31736632943614 4078.5408163265306 416.3210682719641 4056.7448979591836 415.85243189703715 4034.9489795918366 410.86025631578275 4013.1530612244896 410.8513168557256 3991.357142857143 410.8010080993925 3969.5612244897957 410.8532595598375 3947.765306122449 410.9689719408518 3925.969387755102 411.04822058755076 3904.173469387755 411.09796238059005 3882.377551020408 411.13309600464333 3860.581632653061 411.08525540240214 3838.785714285714 411.0502804931489 3816.9897959183672 411.15507042479464 3795.1938775510203 411.2715831935364 3773.3979591836733 411.39453051492376 3751.6020408163267 411.52533019336687 3729.8061224489797 415.89173436048446 3708.0102040816328 415.95861191477786 3686.214285714286 416.055066900616 3664.418367346939 416.2345639289736 3642.622448979592 416.4071449754411 3620.826530612245 416.47817812627426 3599.030612244898 416.34836086389726 3577.234693877551 416.1564242259188 3555.4387755102043 416.1235996870702 3533.6428571428573 416.0562889706207 3511.8469387755104 416.0954395000898 3490.0510204081634 416.0465069983401 3468.2551020408164 416.000160121671 3446.4591836734694 416.0062420628137 3424.6632653061224 416.05161909433286 3402.8673469387754 415.99893833884835 3381.0714285714284 416.12431960001913 3359.2755102040815 416.33420162951643 3337.4795918367345 416.71311285195446 3315.683673469388 416.98069451994184 3293.887755102041 523.7363657522843 3272.091836734694 522.5716439040438 3250.295918367347 521.4074163425901 3228.5 520.0402408469882 3228.5 537.4631522646897Z" fill="#f6a118" opacity="0.9" />
		</g>
		<g>
			<path d="M3228.5 520.0402408469882 3250.295918367347 521.4074163425901 3272.091836734694 522.5716439040438 3293.887755102041 523.7363657522843 3315.683673469388 416.98069451994184 3337.4795918367345 416.71311285195446 3359.2755102040815 416.33420162951643 3381.0714285714284 416.12431960001913 3402.8673469387754 415.99893833884835 3424.6632653061224 416.05161909433286 3446.4591836734694 416.0062420628137 3468.2551020408164 416.000160121671 3490.0510204081634 416.0465069983401 3511.8469387755104 416.0954395000898 3533.6428571428573 416.0562889706207 3555.4387755102043 416.1235996870702 3577.234693877551 416.1564242259188 3599.030612244898 416.34836086389726 3620.826530612245 416.47817812627426 3642.622448979592 416.4071449754411 3664.418367346939 416.2345639289736 3686.214285714286 416.055066900616 3708.0102040816328 415.95861191477786 3729.8061224489797 415.89173436048446 3751.6020408163267 411.52533019336687 3773.3979591836733 411.39453051492376 3795.1938775510203 411.2715831935364 3816.9897959183672 411.15507042479464 3838.785714285714 411.0502804931489 3860.581632653061 411.08525540240214 3882.377551020408 411.13309600464333 3904.173469387755 411.09796238059005 3925.969387755102 411.04822058755076 3947.765306122449 410.9689719408518 3969.5612244897957 410.8532595598375 3991.357142857143 410.8010080993925 4013.1530612244896 410.8513168557256 4034.9489795918366 410.86025631578275 4056.7448979591836 415.85243189703715 4078.5408163265306 416.3210682719641 4100.336734693878 416.31736632943614 4122.132653061224 416.31921689377526 4143.928571428572 416.3159617889731 4165.724489795918 416.32051328878225 4187.5204081632655 411.22347657579 4209.316326530612 411.0839891917173 4231.1122448979595 411.1035757536376 4252.908163265306 410.9789161674267 4274.7040816326535 410.7016436985356 4296.5 410.5976679252191 4296.5 402.7885058788081 4274.7040816326535 402.75682438501997 4252.908163265306 402.64364301985916 4231.1122448979595 402.6213127942401 4209.316326530612 402.6374941256268 4187.5204081632655 402.6382934643876 4165.724489795918 407.18303418872716 4143.928571428572 407.1809148990988 4122.132653061224 407.1872998554764 4100.336734693878 407.1917111103271 4078.5408163265306 407.1621562125779 4056.7448979591836 406.9309868112197 4034.9489795918366 402.3499262788061 4013.1530612244896 402.3497550933614 3991.357142857143 402.31710391583925 3969.5612244897957 402.31377839166817 3947.765306122449 402.32705082967294 3925.969387755102 402.3105155472352 3904.173469387755 402.3328782432905 3882.377551020408 402.29313148871324 3860.581632653061 402.27347913416367 3838.785714285714 402.24951221526595 3816.9897959183672 402.264400535425 3795.1938775510203 402.2771754039698 3773.3979591836733 402.3026796088189 3751.6020408163267 402.31237144781545 3729.8061224489797 406.6903311154683 3708.0102040816328 406.6504534424193 3686.214285714286 406.63653513437157 3664.418367346939 406.73881659701254 3642.622448979592 406.7913155812626 3620.826530612245 406.7895314471883 3599.030612244898 406.7538978821639 3577.234693877551 406.6419996355151 3555.4387755102043 406.66475151485594 3533.6428571428573 406.64954838762975 3511.8469387755104 406.6900606081659 3490.0510204081634 406.67423043388266 3468.2551020408164 406.6442240275461 3446.4591836734694 406.6769627823681 3424.6632653061224 406.7486576922467 3402.8673469387754 406.88204596503937 3381.0714285714284 407.2984950463532 3359.2755102040815 407.42058087187377 3337.4795918367345 407.6496849699309 3315.683673469388 407.85452807822685 3293.887755102041 510.457001187623 3272.091836734694 509.25430348013276 3250.295918367347 508.03326088042445 3228.5 506.6178498444704 3228.5 520.0402408469882Z" fill="#fdd5a4" opacity="0.9" />
		</g>
		<g>
			<path d="M3228.5 506.6178498444704 3250.295918367347 508.03326088042445 3272.091836734694 509.25430348013276 3293.887755102041 510.457001187623 3315.683673469388 407.85452807822685 3337.4795918367345 407.6496849699309 3359.2755102040815 407.42058087187377 3381.0714285714284 407.2984950463532 3402.8673469387754 406.88204596503937 3424.6632653061224 406.7486576922467 3446.4591836734694 406.6769627823681 3468.2551020408164 406.6442240275461 3490.0510204081634 406.67423043388266 3511.8469387755104 406.6900606081659 3533.6428571428573 406.64954838762975 3555.4387755102043 406.66475151485594 3577.234693877551 406.6419996355151 3599.030612244898 406.7538978821639 3620.826530612245 406.7895314471883 3642.622448979592 406.7913155812626 3664.418367346939 406.73881659701254 3686.214285714286 406.63653513437157 3708.0102040816328 406.6504534424193 3729.8061224489797 406.6903311154683 3751.6020408163267 402.31237144781545 3773.3979591836733 402.3026796088189 3795.1938775510203 402.2771754039698 3816.9897959183672 402.264400535425 3838.785714285714 402.24951221526595 3860.581632653061 402.27347913416367 3882.377551020408 402.29313148871324 3904.173469387755 402.3328782432905 3925.969387755102 402.3105155472352 3947.765306122449 402.32705082967294 3969.5612244897957 402.31377839166817 3991.357142857143 402.31710391583925 4013.1530612244896 402.3497550933614 4034.9489795918366 402.3499262788061 4056.7448979591836 406.9309868112197 4078.5408163265306 407.1621562125779 4100.336734693878 407.1917111103271 4122.132653061224 407.1872998554764 4143.928571428572 407.1809148990988 4165.724489795918 407.18303418872716 4187.5204081632655 402.6382934643876 4209.316326530612 402.6374941256268 4231.1122448979595 402.6213127942401 4252.908163265306 402.64364301985916 4274.7040816326535 402.75682438501997 4296.5 402.7885058788081 4296.5 398 4274.7040816326535 398 4252.908163265306 398 4231.1122448979595 397.99999999999994 4209.316326530612 398.00000000000006 4187.5204081632655 397.99999999999994 4165.724489795918 397.9999999999999 4143.928571428572 398.0000000000001 4122.132653061224 397.99999999999994 4100.336734693878 398 4078.5408163265306 398 4056.7448979591836 398 4034.9489795918366 398 4013.1530612244896 398 3991.357142857143 398.00000000000006 3969.5612244897957 398 3947.765306122449 398.0000000000001 3925.969387755102 398.0000000000001 3904.173469387755 398 3882.377551020408 398 3860.581632653061 398.00000000000006 3838.785714285714 398.0000000000001 3816.9897959183672 398 3795.1938775510203 397.99999999999994 3773.3979591836733 398 3751.6020408163267 397.99999999999994 3729.8061224489797 398 3708.0102040816328 398 3686.214285714286 398 3664.418367346939 398.0000000000001 3642.622448979592 398.00000000000006 3620.826530612245 398 3599.030612244898 398 3577.234693877551 398 3555.4387755102043 398 3533.6428571428573 397.99999999999994 3511.8469387755104 398 3490.0510204081634 398.0000000000001 3468.2551020408164 398.00000000000006 3446.4591836734694 398 3424.6632653061224 397.9999999999999 3402.8673469387754 398 3381.0714285714284 397.99999999999994 3359.2755102040815 398.0000000000001 3337.4795918367345 397.99999999999994 3315.683673469388 398.00000000000006 3293.887755102041 398 3272.091836734694 397.9999999999999 3250.295918367347 398 3228.5 397.99999999999983 3228.5 506.6178498444704Z" fill="#393d41" opacity="0.9" />
		</g>
		<g>
			<rect x="4372" y="431" width="22.9995" height="23" fill="#e62d39" />
		</g>
		<g>
			<text fill="#595959" font-family="Verdana,Open Sans,DejaVu Sans,sans-serif" font-weight="400" font-size="41" transform="matrix(1 0 0 1 4404.56 454)">Smartphone</text>
		</g>
		<g>
			<rect x="4372" y="508" width="22.9995" height="23" fill="#005aa6" />
		</g>
		<g>
			<text fill="#595959" font-family="Verdana,Open Sans,DejaVu Sans,sans-serif" font-weight="400" font-size="41" transform="matrix(1 0 0 1 4404.56 531)">Desktop</text>
		</g>
		<g>
			<rect x="4372" y="585" width="22.9995" height="23" fill="#55c0e9" />
		</g>
		<g>
			<text fill="#595959" font-family="Verdana,Open Sans,DejaVu Sans,sans-serif" font-weight="400" font-size="41" transform="matrix(1 0 0 1 4404.56 608)">Other</text>
		</g>
		<g>
			<rect x="4372" y="662" width="22.9995" height="23" fill="#f6a118" />
		</g>
		<g>
			<text fill="#595959" font-family="Verdana,Open Sans,DejaVu Sans,sans-serif" font-weight="400" font-size="41" transform="matrix(1 0 0 1 4404.56 685)">Tablet</text>
		</g>
		<g>
			<rect x="4372" y="739" width="22.9995" height="23" fill="#fdd5a4" />
		</g>
		<g>
			<text fill="#595959" font-family="Verdana,Open Sans,DejaVu Sans,sans-serif" font-weight="400" font-size="41" transform="matrix(1 0 0 1 4404.56 762)">Tv</text>
		</g>
		<g>
			<rect x="4372" y="816" width="22.9995" height="23" fill="#393d41" />
		</g>
		<g>
			<text fill="#595959" font-family="Verdana,Open Sans,DejaVu Sans,sans-serif" font-weight="400" font-size="41" transform="matrix(1 0 0 1 4404.56 839)">Unclassified</text>
		</g>
	</g>
</svg>
