<svg width="1763" height="1046"
    xmlns="http://www.w3.org/2000/svg"
	xmlns:xlink="http://www.w3.org/1999/xlink" xml:space="preserve" overflow="hidden">
	<defs>
		<clipPath id="clip0">
			<rect x="2917" y="346" width="1763" height="1046"/>
		</clipPath>
	</defs>
	<g clip-path="url(#clip0)" transform="translate(-2917 -346)">
		<rect x="2918" y="347" width="1760" height="1043" fill="#FFFFFF" />
		<g>
			<path d="
			M3228.5 974.532 4296.5 974.532
			M3228.5 910.53 4296.5 910.53
			M3228.5 846.528 4296.5 846.528
			M3228.5 781.526 4296.5 781.526
			M3228.5 717.524 4296.5 717.524
			M3228.5 653.522 4296.5 653.522
			M3228.5 589.52 4296.5 589.52
			M3228.5 525.517 4296.5 525.517
			M3228.5 461.515 4296.5 461.515
			M3228.5 397.5 4296.5 397.5" stroke="#D9D9D9" stroke-width="3.4375" stroke-linejoin="round" stroke-miterlimit="10" fill="none" />
		</g>
		<g>
			<path d="M 1038.5 4296.5 1038.5" stroke="#D9D9D9" stroke-width="3.4375" stroke-linejoin="round" stroke-miterlimit="10" fill="none" fill-rule="evenodd" />
		</g>
		<g>
			<text fill="#595959" font-family="Verdana,sans-serif" font-weight="400" font-size="41" transform="matrix(6.12323e-17 -1 1 6.12323e-17 3244.5 1210)">22-Jan</text>
		</g>
		<g>
			<text fill="#595959" font-family="Verdana,sans-serif" font-weight="400" font-size="41" transform="matrix(6.12323e-17 -1 1 6.12323e-17 3328.264705882353 1214)">19-Feb</text>
		</g>
		<g>
			<text fill="#595959" font-family="Verdana,sans-serif" font-weight="400" font-size="41" transform="matrix(6.12323e-17 -1 1 6.12323e-17 3412.029411764706 1221)">18-Mar</text>
		</g>
		<g>
			<text fill="#595959" font-family="Verdana,sans-serif" font-weight="400" font-size="41" transform="matrix(6.12323e-17 -1 1 6.12323e-17 3499.294117647059 1214)">15-Apr</text>
		</g>
		<g>
			<text fill="#595959" font-family="Verdana,sans-serif" font-weight="400" font-size="41" transform="matrix(6.12323e-17 -1 1 6.12323e-17 3583.0588235294117 1226)">13-May</text>
		</g>
		<g>
			<text fill="#595959" font-family="Verdana,sans-serif" font-weight="400" font-size="41" transform="matrix(6.12323e-17 -1 1 6.12323e-17 3663.323529411765 1209)">10-Jun</text>
		</g>
		<g>
			<text fill="#595959" font-family="Verdana,sans-serif" font-weight="400" font-size="41" transform="matrix(6.12323e-17 -1 1 6.12323e-17 3747.0882352941176 1197)">08-Jul</text>
		</g>
		<g>
			<text fill="#595959" font-family="Verdana,sans-serif" font-weight="400" font-size="41" transform="matrix(6.12323e-17 -1 1 6.12323e-17 3834.3529411764707 1221)">05-Aug</text>
		</g>
		<g>
			<text fill="#595959" font-family="Verdana,sans-serif" font-weight="400" font-size="41" transform="matrix(6.12323e-17 -1 1 6.12323e-17 3918.1176470588234 1222)">02-Sep</text>
		</g>
		<g>
			<text fill="#595959" font-family="Verdana,sans-serif" font-weight="400" font-size="41" transform="matrix(6.12323e-17 -1 1 6.12323e-17 4001.8823529411766 1221)">30-Sep</text>
		</g>
		<g>
			<text fill="#595959" font-family="Verdana,sans-serif" font-weight="400" font-size="41" transform="matrix(6.12323e-17 -1 1 6.12323e-17 4082.1470588235293 1215)">28-Oct</text>
		</g>
		<g>
			<text fill="#595959" font-family="Verdana,sans-serif" font-weight="400" font-size="41" transform="matrix(6.12323e-17 -1 1 6.12323e-17 4165.911764705882 1224)">25-Nov</text>
		</g>
		<g>
			<text fill="#595959" font-family="Verdana,sans-serif" font-weight="400" font-size="41" transform="matrix(6.12323e-17 -1 1 6.12323e-17 4249.676470588235 1222)">30-Dec</text>
		</g>
		<g>
			<text fill="#595959" font-family="Verdana,sans-serif" font-weight="400" font-size="41" transform="matrix(1 0 0 1 3123.5 1050)">0%</text>
		</g>
		<g>
			<text fill="#595959" font-family="Verdana,sans-serif" font-weight="400" font-size="41" transform="matrix(1 0 0 1 3097.5 922)">20%</text>
		</g>
		<g>
			<text fill="#595959" font-family="Verdana,sans-serif" font-weight="400" font-size="41" transform="matrix(1 0 0 1 3096.5 794)">40%</text>
		</g>
		<g>
			<text fill="#595959" font-family="Verdana,sans-serif" font-weight="400" font-size="41" transform="matrix(1 0 0 1 3097.5 666)">60%</text>
		</g>
		<g>
			<text fill="#595959" font-family="Verdana,sans-serif" font-weight="400" font-size="41" transform="matrix(1 0 0 1 3097.5 538)">80%</text>
		</g>
		<g>
			<text fill="#595959" font-family="Verdana,sans-serif" font-weight="400" font-size="41" transform="matrix(1 0 0 1 3074.5 410)">100%</text>
		</g>
		<g>
			<text fill="#595959" font-family="Verdana,sans-serif" font-weight="400" font-size="41" transform="matrix(1 0 0 1 3544.5 1321)">Week Commencing</text>
		</g>
		<g>
			<text fill="#595959" font-family="Verdana,sans-serif" font-weight="400" font-size="46" transform="matrix(6.12323e-17 -1 1 6.12323e-17 3019.73 965.25)">Requests (% of Total)</text>
		</g>
		<rect x="2918.5" y="347.5" width="1760" height="1043" stroke="#D9D9D9" stroke-width="3.4375" stroke-linejoin="round" stroke-miterlimit="10" fill="none" />
		<g>
			<path d="M3228.5 1038 3249.4411764705883 1038 3270.3823529411766 1038 3291.323529411765 1038 3312.264705882353 1038 3333.205882352941 1038 3354.1470588235293 1038 3375.0882352941176 1038 3396.029411764706 1038 3416.970588235294 1038 3437.9117647058824 1038 3458.8529411764707 1038 3479.794117647059 1038 3500.735294117647 1038 3521.676470588235 1038 3542.6176470588234 1038 3563.5588235294117 1038 3584.5 1038 3605.4411764705883 1038 3626.3823529411766 1038 3647.323529411765 1038 3668.264705882353 1038 3689.205882352941 1038 3710.1470588235293 1038 3731.0882352941176 1038 3752.029411764706 1038 3772.970588235294 1038 3793.9117647058824 1038 3814.8529411764707 1038 3835.7941176470586 1038 3856.735294117647 1038 3877.676470588235 1038 3898.6176470588234 1038 3919.5588235294117 1038 3940.5 1038 3961.4411764705883 1038 3982.3823529411766 1038 4003.323529411765 1038 4024.264705882353 1038 4045.2058823529414 1038 4066.1470588235293 1038 4087.0882352941176 1038 4108.029411764706 1038 4128.970588235294 1038 4149.911764705882 1038 4170.85294117647 1038 4191.794117647059 1038 4212.735294117647 1038 4233.676470588235 1038 4254.617647058823 1038 4275.558823529412 1038 4296.5 1038 4296.5 533.722746014736 4275.558823529412 533.7853664259474 4254.617647058823 533.8294455926118 4233.676470588235 533.7499584959044 4212.735294117647 533.5577242345337 4191.794117647059 533.3794235575219 4170.85294117647 533.1839579715512 4149.911764705882 532.7385960569093 4128.970588235294 532.9945218339117 4108.029411764706 533.5883597667535 4087.0882352941176 534.4892592748513 4066.1470588235293 535.2648007319358 4045.2058823529414 642.4592997578948 4024.264705882353 641.7348258019537 4003.323529411765 641.0274072878076 3982.3823529411766 640.0328656683237 3961.4411764705883 638.7439704461906 3940.5 637.5953366301156 3919.5588235294117 636.388984334016 3898.6176470588234 635.2830954215428 3877.676470588235 634.2801376637599 3856.735294117647 633.5123019251453 3835.7941176470586 632.703376074059 3814.8529411764707 631.9415100696045 3793.9117647058824 630.857109120077 3772.970588235294 629.6835942752446 3752.029411764706 628.7570391925642 3731.0882352941176 627.5176878063296 3710.1470588235293 626.3963136974012 3689.205882352941 625.2428890685153 3668.264705882353 624.0667377001988 3647.323529411765 622.80172023452 3626.3823529411766 632.4054355541638 3605.4411764705883 630.9533026623258 3584.5 630.0731822124889 3563.5588235294117 629.6411395703622 3542.6176470588234 629.3637077507597 3521.676470588235 629.112232069277 3500.735294117647 628.7712194186788 3479.794117647059 629.1405060461395 3458.8529411764707 630.4544284738802 3437.9117647058824 631.6183228637996 3416.970588235294 647.4118241208081 3396.029411764706 648.3895796632379 3375.0882352941176 621.5001438018157 3354.1470588235293 620.7479883324611 3333.205882352941 618.9772962489769 3312.264705882353 616.6754829613407 3291.323529411765 614.5117939817052 3270.3823529411766 615.2796120230914 3249.4411764705883 615.9275087100596 3228.5 616.3813797093885 3228.5 1038Z" fill="#e62d39" opacity="0.9" />
		</g>
		<g>
			<path d="M3228.5 616.3813797093885 3249.4411764705883 615.9275087100596 3270.3823529411766 615.2796120230914 3291.323529411765 614.5117939817052 3312.264705882353 616.6754829613407 3333.205882352941 618.9772962489769 3354.1470588235293 620.7479883324611 3375.0882352941176 621.5001438018157 3396.029411764706 648.3895796632379 3416.970588235294 647.4118241208081 3437.9117647058824 631.6183228637996 3458.8529411764707 630.4544284738802 3479.794117647059 629.1405060461395 3500.735294117647 628.7712194186788 3521.676470588235 629.112232069277 3542.6176470588234 629.3637077507597 3563.5588235294117 629.6411395703622 3584.5 630.0731822124889 3605.4411764705883 630.9533026623258 3626.3823529411766 632.4054355541638 3647.323529411765 622.80172023452 3668.264705882353 624.0667377001988 3689.205882352941 625.2428890685153 3710.1470588235293 626.3963136974012 3731.0882352941176 627.5176878063296 3752.029411764706 628.7570391925642 3772.970588235294 629.6835942752446 3793.9117647058824 630.857109120077 3814.8529411764707 631.9415100696045 3835.7941176470586 632.703376074059 3856.735294117647 633.5123019251453 3877.676470588235 634.2801376637599 3898.6176470588234 635.2830954215428 3919.5588235294117 636.388984334016 3940.5 637.5953366301156 3961.4411764705883 638.7439704461906 3982.3823529411766 640.0328656683237 4003.323529411765 641.0274072878076 4024.264705882353 641.7348258019537 4045.2058823529414 642.4592997578948 4066.1470588235293 535.2648007319358 4087.0882352941176 534.4892592748513 4108.029411764706 533.5883597667535 4128.970588235294 532.9945218339117 4149.911764705882 532.7385960569093 4170.85294117647 533.1839579715512 4191.794117647059 533.3794235575219 4212.735294117647 533.5577242345337 4233.676470588235 533.7499584959044 4254.617647058823 533.8294455926118 4275.558823529412 533.7853664259474 4296.5 533.722746014736 4296.5 447.63691579979616 4275.558823529412 447.6548818464415 4254.617647058823 447.68514400974766 4233.676470588235 447.6730658977694 4212.735294117647 447.6266609249292 4191.794117647059 447.6323779302626 4170.85294117647 447.6574339250563 4149.911764705882 447.5983732210459 4128.970588235294 447.82372841614773 4108.029411764706 448.23400972704667 4087.0882352941176 448.85972838125235 4066.1470588235293 449.3446349967366 4045.2058823529414 564.013087594675 4024.264705882353 563.0569322713101 4003.323529411765 562.1201699126104 3982.3823529411766 560.9592369816268 3961.4411764705883 559.5178863272408 3940.5 558.0421991553968 3919.5588235294117 556.6183211021491 3898.6176470588234 555.218566955861 3877.676470588235 553.8747604661306 3856.735294117647 552.795294537007 3835.7941176470586 551.5476668303065 3814.8529411764707 550.4510715595417 3793.9117647058824 549.056064697407 3772.970588235294 547.7069248917836 3752.029411764706 546.4892681197156 3731.0882352941176 545.0068552240035 3710.1470588235293 543.5872074138473 3689.205882352941 542.2071477253921 3668.264705882353 540.7523658360859 3647.323529411765 539.1846046453284 3626.3823529411766 550.69398337688 3605.4411764705883 549.0305649530324 3584.5 547.8419869340069 3563.5588235294117 547.2972215888882 3542.6176470588234 546.9206806705122 3521.676470588235 546.5765460991323 3500.735294117647 546.1401156456737 3479.794117647059 546.162084159149 3458.8529411764707 547.0193242259644 3437.9117647058824 547.5943073684911 3416.970588235294 565.6397555577983 3396.029411764706 566.0005705781988 3375.0882352941176 541.8846686674905 3354.1470588235293 541.0539314470215 3333.205882352941 539.8778029714027 3312.264705882353 538.0311425357806 3291.323529411765 536.4270145966814 3270.3823529411766 536.7106293649022 3249.4411764705883 536.9764016245806 3228.5 535.7941999215749 3228.5 616.3813797093885Z" fill="#005aa6" opacity="0.9" />
		</g>
		<g>
			<path d="M3228.5 535.7941999215749 3249.4411764705883 536.9764016245806 3270.3823529411766 536.7106293649022 3291.323529411765 536.4270145966814 3312.264705882353 538.0311425357806 3333.205882352941 539.8778029714027 3354.1470588235293 541.0539314470215 3375.0882352941176 541.8846686674905 3396.029411764706 566.0005705781988 3416.970588235294 565.6397555577983 3437.9117647058824 547.5943073684911 3458.8529411764707 547.0193242259644 3479.794117647059 546.162084159149 3500.735294117647 546.1401156456737 3521.676470588235 546.5765460991323 3542.6176470588234 546.9206806705122 3563.5588235294117 547.2972215888882 3584.5 547.8419869340069 3605.4411764705883 549.0305649530324 3626.3823529411766 550.69398337688 3647.323529411765 539.1846046453284 3668.264705882353 540.7523658360859 3689.205882352941 542.2071477253921 3710.1470588235293 543.5872074138473 3731.0882352941176 545.0068552240035 3752.029411764706 546.4892681197156 3772.970588235294 547.7069248917836 3793.9117647058824 549.056064697407 3814.8529411764707 550.4510715595417 3835.7941176470586 551.5476668303065 3856.735294117647 552.795294537007 3877.676470588235 553.8747604661306 3898.6176470588234 555.218566955861 3919.5588235294117 556.6183211021491 3940.5 558.0421991553968 3961.4411764705883 559.5178863272408 3982.3823529411766 560.9592369816268 4003.323529411765 562.1201699126104 4024.264705882353 563.0569322713101 4045.2058823529414 564.013087594675 4066.1470588235293 449.3446349967366 4087.0882352941176 448.85972838125235 4108.029411764706 448.23400972704667 4128.970588235294 447.82372841614773 4149.911764705882 447.5983732210459 4170.85294117647 447.6574339250563 4191.794117647059 447.6323779302626 4212.735294117647 447.6266609249292 4233.676470588235 447.6730658977694 4254.617647058823 447.68514400974766 4275.558823529412 447.6548818464415 4296.5 447.63691579979616 4296.5 431.8659139096981 4275.558823529412 431.93242137634724 4254.617647058823 431.9599475077045 4233.676470588235 431.9558731937295 4212.735294117647 431.9405589448202 4191.794117647059 431.96727576259724 4170.85294117647 432.02029212049626 4149.911764705882 431.97528739378606 4128.970588235294 432.15561530771527 4108.029411764706 432.4754364071281 4087.0882352941176 433.0084053536388 4066.1470588235293 433.3913361237896 4045.2058823529414 540.8290503164301 4024.264705882353 539.7717503889384 4003.323529411765 538.7148538649283 3982.3823529411766 537.4631522646897 3961.4411764705883 535.9474999414622 3940.5 534.3593851680338 3919.5588235294117 532.8484801447386 3898.6176470588234 531.3863925452272 3877.676470588235 529.9440403710025 3856.735294117647 528.7702332186351 3835.7941176470586 527.9710368276562 3814.8529411764707 526.7914366981524 3793.9117647058824 525.3123672531278 3772.970588235294 523.9349092321237 3752.029411764706 522.6767257917172 3731.0882352941176 521.1207351787452 3710.1470588235293 519.5911430965305 3689.205882352941 518.1357144384516 3668.264705882353 516.5996074824589 3647.323529411765 514.9659833917357 3626.3823529411766 527.0438985976282 3605.4411764705883 525.3024251103315 3584.5 523.9562890822376 3563.5588235294117 523.2798263552974 3542.6176470588234 522.7674371524068 3521.676470588235 522.2747415869658 3500.735294117647 521.7061803820658 3479.794117647059 521.4815581773842 3458.8529411764707 522.0175391594702 3437.9117647058824 522.2390966744398 3416.970588235294 540.7792433621357 3396.029411764706 540.7347903265445 3375.0882352941176 520.8422961076436 3354.1470588235293 519.941244366186 3333.205882352941 518.8725186340012 3312.264705882353 517.1348567955661 3291.323529411765 515.650021587989 3270.3823529411766 515.7382849108784 3249.4411764705883 515.8356026961703 3228.5 514.2250429205485 3228.5 535.7941999215749Z" fill="#55c0e9" opacity="0.9" />
		</g>
		<g>
			<path d="M3228.5 514.2250429205485 3249.4411764705883 515.8356026961703 3270.3823529411766 515.7382849108784 3291.323529411765 515.650021587989 3312.264705882353 517.1348567955661 3333.205882352941 518.8725186340012 3354.1470588235293 519.941244366186 3375.0882352941176 520.8422961076436 3396.029411764706 540.7347903265445 3416.970588235294 540.7792433621357 3437.9117647058824 522.2390966744398 3458.8529411764707 522.0175391594702 3479.794117647059 521.4815581773842 3500.735294117647 521.7061803820658 3521.676470588235 522.2747415869658 3542.6176470588234 522.7674371524068 3563.5588235294117 523.2798263552974 3584.5 523.9562890822376 3605.4411764705883 525.3024251103315 3626.3823529411766 527.0438985976282 3647.323529411765 514.9659833917357 3668.264705882353 516.5996074824589 3689.205882352941 518.1357144384516 3710.1470588235293 519.5911430965305 3731.0882352941176 521.1207351787452 3752.029411764706 522.6767257917172 3772.970588235294 523.9349092321237 3793.9117647058824 525.3123672531278 3814.8529411764707 526.7914366981524 3835.7941176470586 527.9710368276562 3856.735294117647 528.7702332186351 3877.676470588235 529.9440403710025 3898.6176470588234 531.3863925452272 3919.5588235294117 532.8484801447386 3940.5 534.3593851680338 3961.4411764705883 535.9474999414622 3982.3823529411766 537.4631522646897 4003.323529411765 538.7148538649283 4024.264705882353 539.7717503889384 4045.2058823529414 540.8290503164301 4066.1470588235293 433.3913361237896 4087.0882352941176 433.0084053536388 4108.029411764706 432.4754364071281 4128.970588235294 432.15561530771527 4149.911764705882 431.97528739378606 4170.85294117647 432.02029212049626 4191.794117647059 431.96727576259724 4212.735294117647 431.9405589448202 4233.676470588235 431.9558731937295 4254.617647058823 431.9599475077045 4275.558823529412 431.93242137634724 4296.5 431.8659139096981 4296.5 416.1235996870702 4275.558823529412 416.0562889706207 4254.617647058823 416.0954395000898 4233.676470588235 416.0465069983401 4212.735294117647 416.000160121671 4191.794117647059 416.0062420628137 4170.85294117647 416.05161909433286 4149.911764705882 415.99893833884835 4128.970588235294 416.12431960001913 4108.029411764706 416.33420162951643 4087.0882352941176 416.71311285195446 4066.1470588235293 416.98069451994184 4045.2058823529414 523.7363657522843 4024.264705882353 522.5716439040438 4003.323529411765 521.4074163425901 3982.3823529411766 520.0402408469882 3961.4411764705883 518.4759534407176 3940.5 516.9133817380589 3919.5588235294117 515.447116697529 3898.6176470588234 514.0614365046936 3877.676470588235 512.7024056997157 3856.735294117647 511.5800205959148 3835.7941176470586 510.82918253556556 3814.8529411764707 509.7179568015223 3793.9117647058824 508.3175496659528 3772.970588235294 507.0170454704227 3752.029411764706 505.81218353227047 3731.0882352941176 504.3173344906431 3710.1470588235293 502.8338970689489 3689.205882352941 501.4426511937707 3668.264705882353 499.97387766322737 3647.323529411765 498.4242329984132 3626.3823529411766 510.99365573350235 3605.4411764705883 509.31973026750774 3584.5 508.0481610967102 3563.5588235294117 507.46130800445246 3542.6176470588234 507.0233752398185 3521.676470588235 506.60822161328986 3500.735294117647 506.1065487459215 3479.794117647059 505.9043627233751 3458.8529411764707 506.4216643610348 3437.9117647058824 506.6484163233015 3416.970588235294 525.7580510881946 3396.029411764706 525.7315703546495 3375.0882352941176 502.94320923041516 3354.1470588235293 502.107038956447 3333.205882352941 501.18268987180403 3312.264705882353 499.5661579814509 3291.323529411765 498.2407663238116 3270.3823529411766 498.34179455703446 3249.4411764705883 498.4409678079612 3228.5 496.7688079778267 3228.5 514.2250429205485Z" fill="#f6a118" opacity="0.9" />
		</g>
		<g>
			<path d="M3228.5 496.7688079778267 3249.4411764705883 498.4409678079612 3270.3823529411766 498.34179455703446 3291.323529411765 498.2407663238116 3312.264705882353 499.5661579814509 3333.205882352941 501.18268987180403 3354.1470588235293 502.107038956447 3375.0882352941176 502.94320923041516 3396.029411764706 525.7315703546495 3416.970588235294 525.7580510881946 3437.9117647058824 506.6484163233015 3458.8529411764707 506.4216643610348 3479.794117647059 505.9043627233751 3500.735294117647 506.1065487459215 3521.676470588235 506.60822161328986 3542.6176470588234 507.0233752398185 3563.5588235294117 507.46130800445246 3584.5 508.0481610967102 3605.4411764705883 509.31973026750774 3626.3823529411766 510.99365573350235 3647.323529411765 498.4242329984132 3668.264705882353 499.97387766322737 3689.205882352941 501.4426511937707 3710.1470588235293 502.8338970689489 3731.0882352941176 504.3173344906431 3752.029411764706 505.81218353227047 3772.970588235294 507.0170454704227 3793.9117647058824 508.3175496659528 3814.8529411764707 509.7179568015223 3835.7941176470586 510.82918253556556 3856.735294117647 511.5800205959148 3877.676470588235 512.7024056997157 3898.6176470588234 514.0614365046936 3919.5588235294117 515.447116697529 3940.5 516.9133817380589 3961.4411764705883 518.4759534407176 3982.3823529411766 520.0402408469882 4003.323529411765 521.4074163425901 4024.264705882353 522.5716439040438 4045.2058823529414 523.7363657522843 4066.1470588235293 416.98069451994184 4087.0882352941176 416.71311285195446 4108.029411764706 416.33420162951643 4128.970588235294 416.12431960001913 4149.911764705882 415.99893833884835 4170.85294117647 416.05161909433286 4191.794117647059 416.0062420628137 4212.735294117647 416.000160121671 4233.676470588235 416.0465069983401 4254.617647058823 416.0954395000898 4275.558823529412 416.0562889706207 4296.5 416.1235996870702 4296.5 406.66475151485594 4275.558823529412 406.64954838762975 4254.617647058823 406.6900606081659 4233.676470588235 406.67423043388266 4212.735294117647 406.6442240275461 4191.794117647059 406.6769627823681 4170.85294117647 406.7486576922467 4149.911764705882 406.88204596503937 4128.970588235294 407.2984950463532 4108.029411764706 407.42058087187377 4087.0882352941176 407.6496849699309 4066.1470588235293 407.85452807822685 4045.2058823529414 510.457001187623 4024.264705882353 509.25430348013276 4003.323529411765 508.03326088042445 3982.3823529411766 506.6178498444704 3961.4411764705883 505.0214210075742 3940.5 503.4488995208447 3919.5588235294117 501.99414638500895 3898.6176470588234 500.6747796739521 3877.676470588235 499.3250304832202 3856.735294117647 498.1994618351249 3835.7941176470586 497.43345523107604 3814.8529411764707 496.34925589643314 3793.9117647058824 495.0253467220932 3772.970588235294 493.7905717710478 3752.029411764706 492.5921558346354 3731.0882352941176 491.08339968159794 3710.1470588235293 489.589994805443 3689.205882352941 488.205911277506 3668.264705882353 486.75823132244886 3647.323529411765 485.3927174126073 3626.3823529411766 498.4720025363811 3605.4411764705883 497.0382614705632 3584.5 495.82345643600064 3563.5588235294117 495.20191899296304 3542.6176470588234 494.71994133496287 3521.676470588235 494.25306019687616 3500.735294117647 493.7747398235285 3479.794117647059 493.46369672124194 3458.8529411764707 493.7814105421057 3437.9117647058824 493.8307143677906 3416.970588235294 513.2062038257327 3396.029411764706 513.0191600354991 3375.0882352941176 492.37221825805364 3354.1470588235293 491.90854325848505 3333.205882352941 491.3515350353937 3312.264705882353 490.22585688768174 3291.323529411765 489.18947576032576 3270.3823529411766 489.22333619864025 3249.4411764705883 489.223179567103 3228.5 489.59463668666535 3228.5 496.7688079778267Z" fill="#fdd5a4" opacity="0.9" />
		</g>
		<g>
			<path d="M3228.5 489.59463668666535 3249.4411764705883 489.223179567103 3270.3823529411766 489.22333619864025 3291.323529411765 489.18947576032576 3312.264705882353 490.22585688768174 3333.205882352941 491.3515350353937 3354.1470588235293 491.90854325848505 3375.0882352941176 492.37221825805364 3396.029411764706 513.0191600354991 3416.970588235294 513.2062038257327 3437.9117647058824 493.8307143677906 3458.8529411764707 493.7814105421057 3479.794117647059 493.46369672124194 3500.735294117647 493.7747398235285 3521.676470588235 494.25306019687616 3542.6176470588234 494.71994133496287 3563.5588235294117 495.20191899296304 3584.5 495.82345643600064 3605.4411764705883 497.0382614705632 3626.3823529411766 498.4720025363811 3647.323529411765 485.3927174126073 3668.264705882353 486.75823132244886 3689.205882352941 488.205911277506 3710.1470588235293 489.589994805443 3731.0882352941176 491.08339968159794 3752.029411764706 492.5921558346354 3772.970588235294 493.7905717710478 3793.9117647058824 495.0253467220932 3814.8529411764707 496.34925589643314 3835.7941176470586 497.43345523107604 3856.735294117647 498.1994618351249 3877.676470588235 499.3250304832202 3898.6176470588234 500.6747796739521 3919.5588235294117 501.99414638500895 3940.5 503.4488995208447 3961.4411764705883 505.0214210075742 3982.3823529411766 506.6178498444704 4003.323529411765 508.03326088042445 4024.264705882353 509.25430348013276 4045.2058823529414 510.457001187623 4066.1470588235293 407.85452807822685 4087.0882352941176 407.6496849699309 4108.029411764706 407.42058087187377 4128.970588235294 407.2984950463532 4149.911764705882 406.88204596503937 4170.85294117647 406.7486576922467 4191.794117647059 406.6769627823681 4212.735294117647 406.6442240275461 4233.676470588235 406.67423043388266 4254.617647058823 406.6900606081659 4275.558823529412 406.64954838762975 4296.5 406.66475151485594 4296.5 398 4275.558823529412 397.99999999999994 4254.617647058823 398 4233.676470588235 398.0000000000001 4212.735294117647 398.00000000000006 4191.794117647059 398 4170.85294117647 397.9999999999999 4149.911764705882 398 4128.970588235294 397.99999999999994 4108.029411764706 398.0000000000001 4087.0882352941176 397.99999999999994 4066.1470588235293 398.00000000000006 4045.2058823529414 398 4024.264705882353 397.9999999999999 4003.323529411765 398 3982.3823529411766 397.99999999999983 3961.4411764705883 398.0000000000001 3940.5 397.99999999999994 3919.5588235294117 397.9999999999999 3898.6176470588234 398.0000000000001 3877.676470588235 398 3856.735294117647 397.9999999999999 3835.7941176470586 397.99999999999994 3814.8529411764707 398.00000000000006 3793.9117647058824 398.00000000000006 3772.970588235294 398 3752.029411764706 397.9999999999999 3731.0882352941176 398 3710.1470588235293 397.9999999999999 3689.205882352941 397.9999999999999 3668.264705882353 398.00000000000006 3647.323529411765 398 3626.3823529411766 398 3605.4411764705883 397.9999999999999 3584.5 398.0000000000001 3563.5588235294117 397.9999999999999 3542.6176470588234 398 3521.676470588235 398 3500.735294117647 397.99999999999994 3479.794117647059 398 3458.8529411764707 397.9999999999999 3437.9117647058824 398.0000000000001 3416.970588235294 398.0000000000001 3396.029411764706 398 3375.0882352941176 397.9999999999999 3354.1470588235293 398.0000000000001 3333.205882352941 398 3312.264705882353 397.99999999999994 3291.323529411765 398 3270.3823529411766 398 3249.4411764705883 397.99999999999994 3228.5 398.0000000000001 3228.5 489.59463668666535Z" fill="#393d41" opacity="0.9" />
		</g>
		<g>
			<rect x="4372" y="431" width="22.9995" height="23" fill="#e62d39" />
		</g>
		<g>
			<text fill="#595959" font-family="Verdana,sans-serif" font-weight="400" font-size="41" transform="matrix(1 0 0 1 4404.56 454)">Smartphone</text>
		</g>
		<g>
			<rect x="4372" y="508" width="22.9995" height="23" fill="#005aa6" />
		</g>
		<g>
			<text fill="#595959" font-family="Verdana,sans-serif" font-weight="400" font-size="41" transform="matrix(1 0 0 1 4404.56 531)">Desktop</text>
		</g>
		<g>
			<rect x="4372" y="585" width="22.9995" height="23" fill="#55c0e9" />
		</g>
		<g>
			<text fill="#595959" font-family="Verdana,sans-serif" font-weight="400" font-size="41" transform="matrix(1 0 0 1 4404.56 608)">Other</text>
		</g>
		<g>
			<rect x="4372" y="662" width="22.9995" height="23" fill="#f6a118" />
		</g>
		<g>
			<text fill="#595959" font-family="Verdana,sans-serif" font-weight="400" font-size="41" transform="matrix(1 0 0 1 4404.56 685)">Tablet</text>
		</g>
		<g>
			<rect x="4372" y="739" width="22.9995" height="23" fill="#fdd5a4" />
		</g>
		<g>
			<text fill="#595959" font-family="Verdana,sans-serif" font-weight="400" font-size="41" transform="matrix(1 0 0 1 4404.56 762)">Tv</text>
		</g>
		<g>
			<rect x="4372" y="816" width="22.9995" height="23" fill="#393d41" />
		</g>
		<g>
			<text fill="#595959" font-family="Verdana,sans-serif" font-weight="400" font-size="41" transform="matrix(1 0 0 1 4404.56 839)">Unclassified</text>
		</g>
	</g>
</svg>
