<svg width="1763" height="1046"
    xmlns="http://www.w3.org/2000/svg"
	xmlns:xlink="http://www.w3.org/1999/xlink" xml:space="preserve" overflow="hidden">
	<defs>
		<clipPath id="clip0">
			<rect x="2917" y="346" width="1763" height="1046"/>
		</clipPath>
	</defs>
	<g clip-path="url(#clip0)" transform="translate(-2917 -346)">
		<rect x="2918" y="347" width="1760" height="1043" fill="#FFFFFF" />
		<g>
			<path d="
			M3228.5 974.532 4296.5 974.532
			M3228.5 910.53 4296.5 910.53
			M3228.5 846.528 4296.5 846.528
			M3228.5 781.526 4296.5 781.526
			M3228.5 717.524 4296.5 717.524
			M3228.5 653.522 4296.5 653.522
			M3228.5 589.52 4296.5 589.52
			M3228.5 525.517 4296.5 525.517
			M3228.5 461.515 4296.5 461.515
			M3228.5 397.5 4296.5 397.5" stroke="#D9D9D9" stroke-width="3.4375" stroke-linejoin="round" stroke-miterlimit="10" fill="none" />
		</g>
		<g>
			<path d="M 1038.5 4296.5 1038.5" stroke="#D9D9D9" stroke-width="3.4375" stroke-linejoin="round" stroke-miterlimit="10" fill="none" fill-rule="evenodd" />
		</g>
		<g>
			<text fill="#595959" font-family="Verdana,sans-serif" font-weight="400" font-size="41" transform="matrix(6.12323e-17 -1 1 6.12323e-17 3244.5 1225)">06-Nov</text>
		</g>
		<g>
			<text fill="#595959" font-family="Verdana,sans-serif" font-weight="400" font-size="41" transform="matrix(6.12323e-17 -1 1 6.12323e-17 3343.8488372093025 1223)">04-Dec</text>
		</g>
		<g>
			<text fill="#595959" font-family="Verdana,sans-serif" font-weight="400" font-size="41" transform="matrix(6.12323e-17 -1 1 6.12323e-17 3443.1976744186045 1210)">01-Jan</text>
		</g>
		<g>
			<text fill="#595959" font-family="Verdana,sans-serif" font-weight="400" font-size="41" transform="matrix(6.12323e-17 -1 1 6.12323e-17 3542.546511627907 1210)">29-Jan</text>
		</g>
		<g>
			<text fill="#595959" font-family="Verdana,sans-serif" font-weight="400" font-size="41" transform="matrix(6.12323e-17 -1 1 6.12323e-17 3641.8953488372094 1216)">26-Feb</text>
		</g>
		<g>
			<text fill="#595959" font-family="Verdana,sans-serif" font-weight="400" font-size="41" transform="matrix(6.12323e-17 -1 1 6.12323e-17 3741.2441860465115 1223)">25-Mar</text>
		</g>
		<g>
			<text fill="#595959" font-family="Verdana,sans-serif" font-weight="400" font-size="41" transform="matrix(6.12323e-17 -1 1 6.12323e-17 3844.093023255814 1216)">22-Apr</text>
		</g>
		<g>
			<text fill="#595959" font-family="Verdana,sans-serif" font-weight="400" font-size="41" transform="matrix(6.12323e-17 -1 1 6.12323e-17 3943.4418604651164 1228)">20-May</text>
		</g>
		<g>
			<text fill="#595959" font-family="Verdana,sans-serif" font-weight="400" font-size="41" transform="matrix(6.12323e-17 -1 1 6.12323e-17 4038.790697674419 1209)">17-Jun</text>
		</g>
		<g>
			<text fill="#595959" font-family="Verdana,sans-serif" font-weight="400" font-size="41" transform="matrix(6.12323e-17 -1 1 6.12323e-17 4138.639534883721 1194)">15-Jul</text>
		</g>
		<g>
			<text fill="#595959" font-family="Verdana,sans-serif" font-weight="400" font-size="41" transform="matrix(6.12323e-17 -1 1 6.12323e-17 4241.488372093023 1218)">12-Aug</text>
		</g>
		<g>
			<text fill="#595959" font-family="Verdana,sans-serif" font-weight="400" font-size="41" transform="matrix(1 0 0 1 3123.5 1050)">0%</text>
		</g>
		<g>
			<text fill="#595959" font-family="Verdana,sans-serif" font-weight="400" font-size="41" transform="matrix(1 0 0 1 3097.5 922)">20%</text>
		</g>
		<g>
			<text fill="#595959" font-family="Verdana,sans-serif" font-weight="400" font-size="41" transform="matrix(1 0 0 1 3096.5 794)">40%</text>
		</g>
		<g>
			<text fill="#595959" font-family="Verdana,sans-serif" font-weight="400" font-size="41" transform="matrix(1 0 0 1 3097.5 666)">60%</text>
		</g>
		<g>
			<text fill="#595959" font-family="Verdana,sans-serif" font-weight="400" font-size="41" transform="matrix(1 0 0 1 3097.5 538)">80%</text>
		</g>
		<g>
			<text fill="#595959" font-family="Verdana,sans-serif" font-weight="400" font-size="41" transform="matrix(1 0 0 1 3074.5 410)">100%</text>
		</g>
		<g>
			<text fill="#595959" font-family="Verdana,sans-serif" font-weight="400" font-size="41" transform="matrix(1 0 0 1 3544.5 1321)">Week Commencing</text>
		</g>
		<g>
			<text fill="#595959" font-family="Verdana,sans-serif" font-weight="400" font-size="46" transform="matrix(6.12323e-17 -1 1 6.12323e-17 3019.73 965.25)">Requests (% of Total)</text>
		</g>
		<rect x="2918.5" y="347.5" width="1760" height="1043" stroke="#D9D9D9" stroke-width="3.4375" stroke-linejoin="round" stroke-miterlimit="10" fill="none" />
		<g>
			<path d="M3228.5 1038 3253.3372093023254 1038 3278.1744186046512 1038 3303.0116279069766 1038 3327.8488372093025 1038 3352.686046511628 1038 3377.5232558139533 1038 3402.360465116279 1038 3427.1976744186045 1038 3452.0348837209303 1038 3476.8720930232557 1038 3501.7093023255816 1038 3526.546511627907 1038 3551.383720930233 1038 3576.220930232558 1038 3601.0581395348836 1038 3625.8953488372094 1038 3650.732558139535 1038 3675.5697674418607 1038 3700.406976744186 1038 3725.2441860465115 1038 3750.0813953488373 1038 3774.9186046511627 1038 3799.7558139534885 1038 3824.593023255814 1038 3849.4302325581393 1038 3874.267441860465 1038 3899.104651162791 1038 3923.9418604651164 1038 3948.779069767442 1038 3973.6162790697676 1038 3998.453488372093 1038 4023.290697674419 1038 4048.1279069767443 1038 4072.9651162790697 1038 4097.802325581395 1038 4122.639534883721 1038 4147.476744186047 1038 4172.313953488372 1038 4197.1511627906975 1038 4221.988372093023 1038 4246.825581395349 1038 4271.662790697675 1038 4296.5 1038 4296.5 635.2830954215428 4271.662790697675 634.2801376637599 4246.825581395349 633.5123019251453 4221.988372093023 632.703376074059 4197.1511627906975 631.9415100696045 4172.313953488372 630.857109120077 4147.476744186047 629.6835942752446 4122.639534883721 628.7570391925642 4097.802325581395 627.5176878063296 4072.9651162790697 626.3963136974012 4048.1279069767443 625.2428890685153 4023.290697674419 624.0667377001988 3998.453488372093 622.80172023452 3973.6162790697676 632.4054355541638 3948.779069767442 630.9533026623258 3923.9418604651164 630.0731822124889 3899.104651162791 629.6411395703622 3874.267441860465 629.3637077507597 3849.4302325581393 629.112232069277 3824.593023255814 628.7712194186788 3799.7558139534885 629.1405060461395 3774.9186046511627 630.4544284738802 3750.0813953488373 631.6183228637996 3725.2441860465115 647.4118241208081 3700.406976744186 648.3895796632379 3675.5697674418607 621.5001438018157 3650.732558139535 620.7479883324611 3625.8953488372094 618.9772962489769 3601.0581395348836 616.6754829613407 3576.220930232558 614.5117939817052 3551.383720930233 615.2796120230914 3526.546511627907 615.9275087100596 3501.7093023255816 616.3813797093885 3476.8720930232557 616.3755182018299 3452.0348837209303 569.065986327317 3427.1976744186045 568.8533275368973 3402.360465116279 570.4200135868562 3377.5232558139533 571.2367304637471 3352.686046511628 574.6430294813756 3327.8488372093025 573.9159777926823 3303.0116279069766 571.940753677543 3278.1744186046512 571.7928428278394 3253.3372093023254 571.6102570585995 3228.5 570.6431995209241 3228.5 1038Z" fill="#e62d39" opacity="0.9" />
		</g>
		<g>
			<path d="M3228.5 570.6431995209241 3253.3372093023254 571.6102570585995 3278.1744186046512 571.7928428278394 3303.0116279069766 571.940753677543 3327.8488372093025 573.9159777926823 3352.686046511628 574.6430294813756 3377.5232558139533 571.2367304637471 3402.360465116279 570.4200135868562 3427.1976744186045 568.8533275368973 3452.0348837209303 569.065986327317 3476.8720930232557 616.3755182018299 3501.7093023255816 616.3813797093885 3526.546511627907 615.9275087100596 3551.383720930233 615.2796120230914 3576.220930232558 614.5117939817052 3601.0581395348836 616.6754829613407 3625.8953488372094 618.9772962489769 3650.732558139535 620.7479883324611 3675.5697674418607 621.5001438018157 3700.406976744186 648.3895796632379 3725.2441860465115 647.4118241208081 3750.0813953488373 631.6183228637996 3774.9186046511627 630.4544284738802 3799.7558139534885 629.1405060461395 3824.593023255814 628.7712194186788 3849.4302325581393 629.112232069277 3874.267441860465 629.3637077507597 3899.104651162791 629.6411395703622 3923.9418604651164 630.0731822124889 3948.779069767442 630.9533026623258 3973.6162790697676 632.4054355541638 3998.453488372093 622.80172023452 4023.290697674419 624.0667377001988 4048.1279069767443 625.2428890685153 4072.9651162790697 626.3963136974012 4097.802325581395 627.5176878063296 4122.639534883721 628.7570391925642 4147.476744186047 629.6835942752446 4172.313953488372 630.857109120077 4197.1511627906975 631.9415100696045 4221.988372093023 632.703376074059 4246.825581395349 633.5123019251453 4271.662790697675 634.2801376637599 4296.5 635.2830954215428 4296.5 555.218566955861 4271.662790697675 553.8747604661306 4246.825581395349 552.795294537007 4221.988372093023 551.5476668303065 4197.1511627906975 550.4510715595417 4172.313953488372 549.056064697407 4147.476744186047 547.7069248917836 4122.639534883721 546.4892681197156 4097.802325581395 545.0068552240035 4072.9651162790697 543.5872074138473 4048.1279069767443 542.2071477253921 4023.290697674419 540.7523658360859 3998.453488372093 539.1846046453284 3973.6162790697676 550.69398337688 3948.779069767442 549.0305649530324 3923.9418604651164 547.8419869340069 3899.104651162791 547.2972215888882 3874.267441860465 546.9206806705122 3849.4302325581393 546.5765460991323 3824.593023255814 546.1401156456737 3799.7558139534885 546.162084159149 3774.9186046511627 547.0193242259644 3750.0813953488373 547.5943073684911 3725.2441860465115 565.6397555577983 3700.406976744186 566.0005705781988 3675.5697674418607 541.8846686674905 3650.732558139535 541.0539314470215 3625.8953488372094 539.8778029714027 3601.0581395348836 538.0311425357806 3576.220930232558 536.4270145966814 3551.383720930233 536.7106293649022 3526.546511627907 536.9764016245806 3501.7093023255816 535.7941999215749 3476.8720930232557 535.7525782888524 3452.0348837209303 509.06513243323207 3427.1976744186045 509.44212806241245 3402.360465116279 509.38220585337143 3377.5232558139533 509.60866877735396 3352.686046511628 511.9603578529975 3327.8488372093025 511.0153758579769 3303.0116279069766 509.7472741468517 3278.1744186046512 509.176439393107 3253.3372093023254 508.6338001891333 3228.5 508.14325383903014 3228.5 570.6431995209241Z" fill="#005aa6" opacity="0.9" />
		</g>
		<g>
			<path d="M3228.5 508.14325383903014 3253.3372093023254 508.6338001891333 3278.1744186046512 509.176439393107 3303.0116279069766 509.7472741468517 3327.8488372093025 511.0153758579769 3352.686046511628 511.9603578529975 3377.5232558139533 509.60866877735396 3402.360465116279 509.38220585337143 3427.1976744186045 509.44212806241245 3452.0348837209303 509.06513243323207 3476.8720930232557 535.7525782888524 3501.7093023255816 535.7941999215749 3526.546511627907 536.9764016245806 3551.383720930233 536.7106293649022 3576.220930232558 536.4270145966814 3601.0581395348836 538.0311425357806 3625.8953488372094 539.8778029714027 3650.732558139535 541.0539314470215 3675.5697674418607 541.8846686674905 3700.406976744186 566.0005705781988 3725.2441860465115 565.6397555577983 3750.0813953488373 547.5943073684911 3774.9186046511627 547.0193242259644 3799.7558139534885 546.162084159149 3824.593023255814 546.1401156456737 3849.4302325581393 546.5765460991323 3874.267441860465 546.9206806705122 3899.104651162791 547.2972215888882 3923.9418604651164 547.8419869340069 3948.779069767442 549.0305649530324 3973.6162790697676 550.69398337688 3998.453488372093 539.1846046453284 4023.290697674419 540.7523658360859 4048.1279069767443 542.2071477253921 4072.9651162790697 543.5872074138473 4097.802325581395 545.0068552240035 4122.639534883721 546.4892681197156 4147.476744186047 547.7069248917836 4172.313953488372 549.056064697407 4197.1511627906975 550.4510715595417 4221.988372093023 551.5476668303065 4246.825581395349 552.795294537007 4271.662790697675 553.8747604661306 4296.5 555.218566955861 4296.5 531.3863925452272 4271.662790697675 529.9440403710025 4246.825581395349 528.7702332186351 4221.988372093023 527.9710368276562 4197.1511627906975 526.7914366981524 4172.313953488372 525.3123672531278 4147.476744186047 523.9349092321237 4122.639534883721 522.6767257917172 4097.802325581395 521.1207351787452 4072.9651162790697 519.5911430965305 4048.1279069767443 518.1357144384516 4023.290697674419 516.5996074824589 3998.453488372093 514.9659833917357 3973.6162790697676 527.0438985976282 3948.779069767442 525.3024251103315 3923.9418604651164 523.9562890822376 3899.104651162791 523.2798263552974 3874.267441860465 522.7674371524068 3849.4302325581393 522.2747415869658 3824.593023255814 521.7061803820658 3799.7558139534885 521.4815581773842 3774.9186046511627 522.0175391594702 3750.0813953488373 522.2390966744398 3725.2441860465115 540.7792433621357 3700.406976744186 540.7347903265445 3675.5697674418607 520.8422961076436 3650.732558139535 519.941244366186 3625.8953488372094 518.8725186340012 3601.0581395348836 517.1348567955661 3576.220930232558 515.650021587989 3551.383720930233 515.7382849108784 3526.546511627907 515.8356026961703 3501.7093023255816 514.2250429205485 3476.8720930232557 514.175265377396 3452.0348837209303 492.9059942279181 3427.1976744186045 493.0966047321476 3402.360465116279 492.88332734476376 3377.5232558139533 492.95479515937706 3352.686046511628 494.7801665319999 3327.8488372093025 493.78468973551225 3303.0116279069766 492.5320066774311 3278.1744186046512 491.93197908298504 3253.3372093023254 491.34916929089724 3228.5 490.7876094955426 3228.5 508.14325383903014Z" fill="#55c0e9" opacity="0.9" />
		</g>
		<g>
			<path d="M3228.5 490.7876094955426 3253.3372093023254 491.34916929089724 3278.1744186046512 491.93197908298504 3303.0116279069766 492.5320066774311 3327.8488372093025 493.78468973551225 3352.686046511628 494.7801665319999 3377.5232558139533 492.95479515937706 3402.360465116279 492.88332734476376 3427.1976744186045 493.0966047321476 3452.0348837209303 492.9059942279181 3476.8720930232557 514.175265377396 3501.7093023255816 514.2250429205485 3526.546511627907 515.8356026961703 3551.383720930233 515.7382849108784 3576.220930232558 515.650021587989 3601.0581395348836 517.1348567955661 3625.8953488372094 518.8725186340012 3650.732558139535 519.941244366186 3675.5697674418607 520.8422961076436 3700.406976744186 540.7347903265445 3725.2441860465115 540.7792433621357 3750.0813953488373 522.2390966744398 3774.9186046511627 522.0175391594702 3799.7558139534885 521.4815581773842 3824.593023255814 521.7061803820658 3849.4302325581393 522.2747415869658 3874.267441860465 522.7674371524068 3899.104651162791 523.2798263552974 3923.9418604651164 523.9562890822376 3948.779069767442 525.3024251103315 3973.6162790697676 527.0438985976282 3998.453488372093 514.9659833917357 4023.290697674419 516.5996074824589 4048.1279069767443 518.1357144384516 4072.9651162790697 519.5911430965305 4097.802325581395 521.1207351787452 4122.639534883721 522.6767257917172 4147.476744186047 523.9349092321237 4172.313953488372 525.3123672531278 4197.1511627906975 526.7914366981524 4221.988372093023 527.9710368276562 4246.825581395349 528.7702332186351 4271.662790697675 529.9440403710025 4296.5 531.3863925452272 4296.5 514.0614365046936 4271.662790697675 512.7024056997157 4246.825581395349 511.5800205959148 4221.988372093023 510.82918253556556 4197.1511627906975 509.7179568015223 4172.313953488372 508.3175496659528 4147.476744186047 507.0170454704227 4122.639534883721 505.81218353227047 4097.802325581395 504.3173344906431 4072.9651162790697 502.8338970689489 4048.1279069767443 501.4426511937707 4023.290697674419 499.97387766322737 3998.453488372093 498.4242329984132 3973.6162790697676 510.99365573350235 3948.779069767442 509.31973026750774 3923.9418604651164 508.0481610967102 3899.104651162791 507.46130800445246 3874.267441860465 507.0233752398185 3849.4302325581393 506.60822161328986 3824.593023255814 506.1065487459215 3799.7558139534885 505.9043627233751 3774.9186046511627 506.4216643610348 3750.0813953488373 506.6484163233015 3725.2441860465115 525.7580510881946 3700.406976744186 525.7315703546495 3675.5697674418607 502.94320923041516 3650.732558139535 502.107038956447 3625.8953488372094 501.18268987180403 3601.0581395348836 499.5661579814509 3576.220930232558 498.2407663238116 3551.383720930233 498.34179455703446 3526.546511627907 498.4409678079612 3501.7093023255816 496.7688079778267 3476.8720930232557 496.7252878979315 3452.0348837209303 467.1119991855256 3427.1976744186045 467.30287783529656 3402.360465116279 467.12354601368946 3377.5232558139533 467.18090658715477 3352.686046511628 468.4609806530692 3327.8488372093025 467.6706174617695 3303.0116279069766 466.5807912489142 3278.1744186046512 466.04765597528194 3253.3372093023254 465.50683076275004 3228.5 465.1003985575009 3228.5 490.7876094955426Z" fill="#f6a118" opacity="0.9" />
		</g>
		<g>
			<path d="M3228.5 465.1003985575009 3253.3372093023254 465.50683076275004 3278.1744186046512 466.04765597528194 3303.0116279069766 466.5807912489142 3327.8488372093025 467.6706174617695 3352.686046511628 468.4609806530692 3377.5232558139533 467.18090658715477 3402.360465116279 467.12354601368946 3427.1976744186045 467.30287783529656 3452.0348837209303 467.1119991855256 3476.8720930232557 496.7252878979315 3501.7093023255816 496.7688079778267 3526.546511627907 498.4409678079612 3551.383720930233 498.34179455703446 3576.220930232558 498.2407663238116 3601.0581395348836 499.5661579814509 3625.8953488372094 501.18268987180403 3650.732558139535 502.107038956447 3675.5697674418607 502.94320923041516 3700.406976744186 525.7315703546495 3725.2441860465115 525.7580510881946 3750.0813953488373 506.6484163233015 3774.9186046511627 506.4216643610348 3799.7558139534885 505.9043627233751 3824.593023255814 506.1065487459215 3849.4302325581393 506.60822161328986 3874.267441860465 507.0233752398185 3899.104651162791 507.46130800445246 3923.9418604651164 508.0481610967102 3948.779069767442 509.31973026750774 3973.6162790697676 510.99365573350235 3998.453488372093 498.4242329984132 4023.290697674419 499.97387766322737 4048.1279069767443 501.4426511937707 4072.9651162790697 502.8338970689489 4097.802325581395 504.3173344906431 4122.639534883721 505.81218353227047 4147.476744186047 507.0170454704227 4172.313953488372 508.3175496659528 4197.1511627906975 509.7179568015223 4221.988372093023 510.82918253556556 4246.825581395349 511.5800205959148 4271.662790697675 512.7024056997157 4296.5 514.0614365046936 4296.5 500.6747796739521 4271.662790697675 499.3250304832202 4246.825581395349 498.1994618351249 4221.988372093023 497.43345523107604 4197.1511627906975 496.34925589643314 4172.313953488372 495.0253467220932 4147.476744186047 493.7905717710478 4122.639534883721 492.5921558346354 4097.802325581395 491.08339968159794 4072.9651162790697 489.589994805443 4048.1279069767443 488.205911277506 4023.290697674419 486.75823132244886 3998.453488372093 485.3927174126073 3973.6162790697676 498.4720025363811 3948.779069767442 497.0382614705632 3923.9418604651164 495.82345643600064 3899.104651162791 495.20191899296304 3874.267441860465 494.71994133496287 3849.4302325581393 494.25306019687616 3824.593023255814 493.7747398235285 3799.7558139534885 493.46369672124194 3774.9186046511627 493.7814105421057 3750.0813953488373 493.8307143677906 3725.2441860465115 513.2062038257327 3700.406976744186 513.0191600354991 3675.5697674418607 492.37221825805364 3650.732558139535 491.90854325848505 3625.8953488372094 491.3515350353937 3601.0581395348836 490.22585688768174 3576.220930232558 489.18947576032576 3551.383720930233 489.22333619864025 3526.546511627907 489.223179567103 3501.7093023255816 489.59463668666535 3476.8720930232557 489.6274021960388 3452.0348837209303 465.84397535618723 3427.1976744186045 466.0407574120686 3402.360465116279 465.8767979346657 3377.5232558139533 465.9500572477321 3352.686046511628 467.2202695247198 3327.8488372093025 466.45583538595343 3303.0116279069766 465.39864568725244 3278.1744186046512 464.88886642683036 3253.3372093023254 464.365762498016 3228.5 463.97855376512575 3228.5 465.1003985575009Z" fill="#fdd5a4" opacity="0.9" />
		</g>
		<g>
			<path d="M3228.5 463.97855376512575 3253.3372093023254 464.365762498016 3278.1744186046512 464.88886642683036 3303.0116279069766 465.39864568725244 3327.8488372093025 466.45583538595343 3352.686046511628 467.2202695247198 3377.5232558139533 465.9500572477321 3402.360465116279 465.8767979346657 3427.1976744186045 466.0407574120686 3452.0348837209303 465.84397535618723 3476.8720930232557 489.6274021960388 3501.7093023255816 489.59463668666535 3526.546511627907 489.223179567103 3551.383720930233 489.22333619864025 3576.220930232558 489.18947576032576 3601.0581395348836 490.22585688768174 3625.8953488372094 491.3515350353937 3650.732558139535 491.90854325848505 3675.5697674418607 492.37221825805364 3700.406976744186 513.0191600354991 3725.2441860465115 513.2062038257327 3750.0813953488373 493.8307143677906 3774.9186046511627 493.7814105421057 3799.7558139534885 493.46369672124194 3824.593023255814 493.7747398235285 3849.4302325581393 494.25306019687616 3874.267441860465 494.71994133496287 3899.104651162791 495.20191899296304 3923.9418604651164 495.82345643600064 3948.779069767442 497.0382614705632 3973.6162790697676 498.4720025363811 3998.453488372093 485.3927174126073 4023.290697674419 486.75823132244886 4048.1279069767443 488.205911277506 4072.9651162790697 489.589994805443 4097.802325581395 491.08339968159794 4122.639534883721 492.5921558346354 4147.476744186047 493.7905717710478 4172.313953488372 495.0253467220932 4197.1511627906975 496.34925589643314 4221.988372093023 497.43345523107604 4246.825581395349 498.1994618351249 4271.662790697675 499.3250304832202 4296.5 500.6747796739521 4296.5 398.0000000000001 4271.662790697675 398 4246.825581395349 397.9999999999999 4221.988372093023 397.99999999999994 4197.1511627906975 398.00000000000006 4172.313953488372 398.00000000000006 4147.476744186047 398 4122.639534883721 397.9999999999999 4097.802325581395 398 4072.9651162790697 397.9999999999999 4048.1279069767443 397.9999999999999 4023.290697674419 398.00000000000006 3998.453488372093 398 3973.6162790697676 398 3948.779069767442 397.9999999999999 3923.9418604651164 398.0000000000001 3899.104651162791 397.9999999999999 3874.267441860465 398 3849.4302325581393 398 3824.593023255814 397.99999999999994 3799.7558139534885 398 3774.9186046511627 397.9999999999999 3750.0813953488373 398.0000000000001 3725.2441860465115 398.0000000000001 3700.406976744186 398 3675.5697674418607 397.9999999999999 3650.732558139535 398.0000000000001 3625.8953488372094 398 3601.0581395348836 397.99999999999994 3576.220930232558 398 3551.383720930233 398 3526.546511627907 397.99999999999994 3501.7093023255816 398.0000000000001 3476.8720930232557 397.9999999999999 3452.0348837209303 397.9999999999999 3427.1976744186045 398 3402.360465116279 397.9999999999999 3377.5232558139533 397.99999999999994 3352.686046511628 397.9999999999999 3327.8488372093025 397.99999999999994 3303.0116279069766 398 3278.1744186046512 398.00000000000006 3253.3372093023254 397.99999999999983 3228.5 398.0000000000001 3228.5 463.97855376512575Z" fill="#393d41" opacity="0.9" />
		</g>
		<g>
			<rect x="4372" y="431" width="22.9995" height="23" fill="#e62d39" />
		</g>
		<g>
			<text fill="#595959" font-family="Verdana,sans-serif" font-weight="400" font-size="41" transform="matrix(1 0 0 1 4404.56 454)">Smartphone</text>
		</g>
		<g>
			<rect x="4372" y="508" width="22.9995" height="23" fill="#005aa6" />
		</g>
		<g>
			<text fill="#595959" font-family="Verdana,sans-serif" font-weight="400" font-size="41" transform="matrix(1 0 0 1 4404.56 531)">Desktop</text>
		</g>
		<g>
			<rect x="4372" y="585" width="22.9995" height="23" fill="#55c0e9" />
		</g>
		<g>
			<text fill="#595959" font-family="Verdana,sans-serif" font-weight="400" font-size="41" transform="matrix(1 0 0 1 4404.56 608)">Other</text>
		</g>
		<g>
			<rect x="4372" y="662" width="22.9995" height="23" fill="#f6a118" />
		</g>
		<g>
			<text fill="#595959" font-family="Verdana,sans-serif" font-weight="400" font-size="41" transform="matrix(1 0 0 1 4404.56 685)">Tablet</text>
		</g>
		<g>
			<rect x="4372" y="739" width="22.9995" height="23" fill="#fdd5a4" />
		</g>
		<g>
			<text fill="#595959" font-family="Verdana,sans-serif" font-weight="400" font-size="41" transform="matrix(1 0 0 1 4404.56 762)">Tv</text>
		</g>
		<g>
			<rect x="4372" y="816" width="22.9995" height="23" fill="#393d41" />
		</g>
		<g>
			<text fill="#595959" font-family="Verdana,sans-serif" font-weight="400" font-size="41" transform="matrix(1 0 0 1 4404.56 839)">Unclassified</text>
		</g>
	</g>
</svg>
