<svg width="1763" height="1046"
    xmlns="http://www.w3.org/2000/svg"
	xmlns:xlink="http://www.w3.org/1999/xlink" xml:space="preserve" overflow="hidden">
	<defs>
		<clipPath id="clip0">
			<rect x="2917" y="346" width="1763" height="1046"/>
		</clipPath>
	</defs>
	<g clip-path="url(#clip0)" transform="translate(-2917 -346)">
		<rect x="2918" y="347" width="1760" height="1043" fill="#FFFFFF" />
		<g>
			<path d="
			M3228.5 974.532 4296.5 974.532
			M3228.5 910.53 4296.5 910.53
			M3228.5 846.528 4296.5 846.528
			M3228.5 781.526 4296.5 781.526
			M3228.5 717.524 4296.5 717.524
			M3228.5 653.522 4296.5 653.522
			M3228.5 589.52 4296.5 589.52
			M3228.5 525.517 4296.5 525.517
			M3228.5 461.515 4296.5 461.515
			M3228.5 397.5 4296.5 397.5" stroke="#D9D9D9" stroke-width="3.4375" stroke-linejoin="round" stroke-miterlimit="10" fill="none" />
		</g>
		<g>
			<path d="M 1038.5 4296.5 1038.5" stroke="#D9D9D9" stroke-width="3.4375" stroke-linejoin="round" stroke-miterlimit="10" fill="none" fill-rule="evenodd" />
		</g>
		<g>
			<text fill="#595959" font-family="Verdana,sans-serif" font-weight="400" font-size="41" transform="matrix(6.12323e-17 -1 1 6.12323e-17 3244.5 1225)">06-Nov</text>
		</g>
		<g>
			<text fill="#595959" font-family="Verdana,sans-serif" font-weight="400" font-size="41" transform="matrix(6.12323e-17 -1 1 6.12323e-17 3320.785714285714 1224)">20-Nov</text>
		</g>
		<g>
			<text fill="#595959" font-family="Verdana,sans-serif" font-weight="400" font-size="41" transform="matrix(6.12323e-17 -1 1 6.12323e-17 3397.0714285714284 1223)">04-Dec</text>
		</g>
		<g>
			<text fill="#595959" font-family="Verdana,sans-serif" font-weight="400" font-size="41" transform="matrix(6.12323e-17 -1 1 6.12323e-17 3473.357142857143 1220)">18-Dec</text>
		</g>
		<g>
			<text fill="#595959" font-family="Verdana,sans-serif" font-weight="400" font-size="41" transform="matrix(6.12323e-17 -1 1 6.12323e-17 3549.6428571428573 1210)">01-Jan</text>
		</g>
		<g>
			<text fill="#595959" font-family="Verdana,sans-serif" font-weight="400" font-size="41" transform="matrix(6.12323e-17 -1 1 6.12323e-17 3625.4285714285716 1207)">15-Jan</text>
		</g>
		<g>
			<text fill="#595959" font-family="Verdana,sans-serif" font-weight="400" font-size="41" transform="matrix(6.12323e-17 -1 1 6.12323e-17 3702.214285714286 1210)">29-Jan</text>
		</g>
		<g>
			<text fill="#595959" font-family="Verdana,sans-serif" font-weight="400" font-size="41" transform="matrix(6.12323e-17 -1 1 6.12323e-17 3778.5 1214)">12-Feb</text>
		</g>
		<g>
			<text fill="#595959" font-family="Verdana,sans-serif" font-weight="400" font-size="41" transform="matrix(6.12323e-17 -1 1 6.12323e-17 3854.785714285714 1216)">26-Feb</text>
		</g>
		<g>
			<text fill="#595959" font-family="Verdana,sans-serif" font-weight="400" font-size="41" transform="matrix(6.12323e-17 -1 1 6.12323e-17 3930.5714285714284 1221)">11-Mar</text>
		</g>
		<g>
			<text fill="#595959" font-family="Verdana,sans-serif" font-weight="400" font-size="41" transform="matrix(6.12323e-17 -1 1 6.12323e-17 4007.357142857143 1223)">25-Mar</text>
		</g>
		<g>
			<text fill="#595959" font-family="Verdana,sans-serif" font-weight="400" font-size="41" transform="matrix(6.12323e-17 -1 1 6.12323e-17 4087.1428571428573 1217)">08-Apr</text>
		</g>
		<g>
			<text fill="#595959" font-family="Verdana,sans-serif" font-weight="400" font-size="41" transform="matrix(6.12323e-17 -1 1 6.12323e-17 4163.428571428572 1216)">22-Apr</text>
		</g>
		<g>
			<text fill="#595959" font-family="Verdana,sans-serif" font-weight="400" font-size="41" transform="matrix(6.12323e-17 -1 1 6.12323e-17 4239.714285714286 1228)">06-May</text>
		</g>
		<g>
			<text fill="#595959" font-family="Verdana,sans-serif" font-weight="400" font-size="41" transform="matrix(6.12323e-17 -1 1 6.12323e-17 4316 1228)">20-May</text>
		</g>
		<g>
			<text fill="#595959" font-family="Verdana,sans-serif" font-weight="400" font-size="41" transform="matrix(1 0 0 1 3123.5 1050)">0%</text>
		</g>
		<g>
			<text fill="#595959" font-family="Verdana,sans-serif" font-weight="400" font-size="41" transform="matrix(1 0 0 1 3097.5 922)">20%</text>
		</g>
		<g>
			<text fill="#595959" font-family="Verdana,sans-serif" font-weight="400" font-size="41" transform="matrix(1 0 0 1 3096.5 794)">40%</text>
		</g>
		<g>
			<text fill="#595959" font-family="Verdana,sans-serif" font-weight="400" font-size="41" transform="matrix(1 0 0 1 3097.5 666)">60%</text>
		</g>
		<g>
			<text fill="#595959" font-family="Verdana,sans-serif" font-weight="400" font-size="41" transform="matrix(1 0 0 1 3097.5 538)">80%</text>
		</g>
		<g>
			<text fill="#595959" font-family="Verdana,sans-serif" font-weight="400" font-size="41" transform="matrix(1 0 0 1 3074.5 410)">100%</text>
		</g>
		<g>
			<text fill="#595959" font-family="Verdana,sans-serif" font-weight="400" font-size="41" transform="matrix(1 0 0 1 3544.5 1321)">Week Commencing</text>
		</g>
		<g>
			<text fill="#595959" font-family="Verdana,sans-serif" font-weight="400" font-size="46" transform="matrix(6.12323e-17 -1 1 6.12323e-17 3019.73 965.25)">Requests (% of Total)</text>
		</g>
		<rect x="2918.5" y="347.5" width="1760" height="1043" stroke="#D9D9D9" stroke-width="3.4375" stroke-linejoin="round" stroke-miterlimit="10" fill="none" />
		<g>
			<path d="M3228.5 1038 3266.6428571428573 1038 3304.785714285714 1038 3342.9285714285716 1038 3381.0714285714284 1038 3419.214285714286 1038 3457.357142857143 1038 3495.5 1038 3533.6428571428573 1038 3571.785714285714 1038 3609.9285714285716 1038 3648.0714285714284 1038 3686.214285714286 1038 3724.357142857143 1038 3762.5 1038 3800.6428571428573 1038 3838.785714285714 1038 3876.9285714285716 1038 3915.0714285714284 1038 3953.214285714286 1038 3991.357142857143 1038 4029.5 1038 4067.6428571428573 1038 4105.785714285715 1038 4143.928571428572 1038 4182.071428571428 1038 4220.214285714286 1038 4258.357142857143 1038 4296.5 1038 4296.5 630.0731822124889 4258.357142857143 629.6411395703622 4220.214285714286 629.3637077507597 4182.071428571428 629.112232069277 4143.928571428572 628.7712194186788 4105.785714285715 629.1405060461395 4067.6428571428573 630.4544284738802 4029.5 631.6183228637996 3991.357142857143 647.4118241208081 3953.214285714286 648.3895796632379 3915.0714285714284 621.5001438018157 3876.9285714285716 620.7479883324611 3838.785714285714 618.9772962489769 3800.6428571428573 616.6754829613407 3762.5 614.5117939817052 3724.357142857143 615.2796120230914 3686.214285714286 615.9275087100596 3648.0714285714284 616.3813797093885 3609.9285714285716 616.3755182018299 3571.785714285714 569.065986327317 3533.6428571428573 568.8533275368973 3495.5 570.4200135868562 3457.357142857143 571.2367304637471 3419.214285714286 574.6430294813756 3381.0714285714284 573.9159777926823 3342.9285714285716 571.940753677543 3304.785714285714 571.7928428278394 3266.6428571428573 571.6102570585995 3228.5 570.6431995209241 3228.5 1038Z" fill="#e62d39" opacity="0.9" />
		</g>
		<g>
			<path d="M3228.5 570.6431995209241 3266.6428571428573 571.6102570585995 3304.785714285714 571.7928428278394 3342.9285714285716 571.940753677543 3381.0714285714284 573.9159777926823 3419.214285714286 574.6430294813756 3457.357142857143 571.2367304637471 3495.5 570.4200135868562 3533.6428571428573 568.8533275368973 3571.785714285714 569.065986327317 3609.9285714285716 616.3755182018299 3648.0714285714284 616.3813797093885 3686.214285714286 615.9275087100596 3724.357142857143 615.2796120230914 3762.5 614.5117939817052 3800.6428571428573 616.6754829613407 3838.785714285714 618.9772962489769 3876.9285714285716 620.7479883324611 3915.0714285714284 621.5001438018157 3953.214285714286 648.3895796632379 3991.357142857143 647.4118241208081 4029.5 631.6183228637996 4067.6428571428573 630.4544284738802 4105.785714285715 629.1405060461395 4143.928571428572 628.7712194186788 4182.071428571428 629.112232069277 4220.214285714286 629.3637077507597 4258.357142857143 629.6411395703622 4296.5 630.0731822124889 4296.5 547.8419869340069 4258.357142857143 547.2972215888882 4220.214285714286 546.9206806705122 4182.071428571428 546.5765460991323 4143.928571428572 546.1401156456737 4105.785714285715 546.162084159149 4067.6428571428573 547.0193242259644 4029.5 547.5943073684911 3991.357142857143 565.6397555577983 3953.214285714286 566.0005705781988 3915.0714285714284 541.8846686674905 3876.9285714285716 541.0539314470215 3838.785714285714 539.8778029714027 3800.6428571428573 538.0311425357806 3762.5 536.4270145966814 3724.357142857143 536.7106293649022 3686.214285714286 536.9764016245806 3648.0714285714284 535.7941999215749 3609.9285714285716 535.7525782888524 3571.785714285714 509.06513243323207 3533.6428571428573 509.44212806241245 3495.5 509.38220585337143 3457.357142857143 509.60866877735396 3419.214285714286 511.9603578529975 3381.0714285714284 511.0153758579769 3342.9285714285716 509.7472741468517 3304.785714285714 509.176439393107 3266.6428571428573 508.6338001891333 3228.5 508.14325383903014 3228.5 570.6431995209241Z" fill="#005aa6" opacity="0.9" />
		</g>
		<g>
			<path d="M3228.5 508.14325383903014 3266.6428571428573 508.6338001891333 3304.785714285714 509.176439393107 3342.9285714285716 509.7472741468517 3381.0714285714284 511.0153758579769 3419.214285714286 511.9603578529975 3457.357142857143 509.60866877735396 3495.5 509.38220585337143 3533.6428571428573 509.44212806241245 3571.785714285714 509.06513243323207 3609.9285714285716 535.7525782888524 3648.0714285714284 535.7941999215749 3686.214285714286 536.9764016245806 3724.357142857143 536.7106293649022 3762.5 536.4270145966814 3800.6428571428573 538.0311425357806 3838.785714285714 539.8778029714027 3876.9285714285716 541.0539314470215 3915.0714285714284 541.8846686674905 3953.214285714286 566.0005705781988 3991.357142857143 565.6397555577983 4029.5 547.5943073684911 4067.6428571428573 547.0193242259644 4105.785714285715 546.162084159149 4143.928571428572 546.1401156456737 4182.071428571428 546.5765460991323 4220.214285714286 546.9206806705122 4258.357142857143 547.2972215888882 4296.5 547.8419869340069 4296.5 523.9562890822376 4258.357142857143 523.2798263552974 4220.214285714286 522.7674371524068 4182.071428571428 522.2747415869658 4143.928571428572 521.7061803820658 4105.785714285715 521.4815581773842 4067.6428571428573 522.0175391594702 4029.5 522.2390966744398 3991.357142857143 540.7792433621357 3953.214285714286 540.7347903265445 3915.0714285714284 520.8422961076436 3876.9285714285716 519.941244366186 3838.785714285714 518.8725186340012 3800.6428571428573 517.1348567955661 3762.5 515.650021587989 3724.357142857143 515.7382849108784 3686.214285714286 515.8356026961703 3648.0714285714284 514.2250429205485 3609.9285714285716 514.175265377396 3571.785714285714 492.9059942279181 3533.6428571428573 493.0966047321476 3495.5 492.88332734476376 3457.357142857143 492.95479515937706 3419.214285714286 494.7801665319999 3381.0714285714284 493.78468973551225 3342.9285714285716 492.5320066774311 3304.785714285714 491.93197908298504 3266.6428571428573 491.34916929089724 3228.5 490.7876094955426 3228.5 508.14325383903014Z" fill="#55c0e9" opacity="0.9" />
		</g>
		<g>
			<path d="M3228.5 490.7876094955426 3266.6428571428573 491.34916929089724 3304.785714285714 491.93197908298504 3342.9285714285716 492.5320066774311 3381.0714285714284 493.78468973551225 3419.214285714286 494.7801665319999 3457.357142857143 492.95479515937706 3495.5 492.88332734476376 3533.6428571428573 493.0966047321476 3571.785714285714 492.9059942279181 3609.9285714285716 514.175265377396 3648.0714285714284 514.2250429205485 3686.214285714286 515.8356026961703 3724.357142857143 515.7382849108784 3762.5 515.650021587989 3800.6428571428573 517.1348567955661 3838.785714285714 518.8725186340012 3876.9285714285716 519.941244366186 3915.0714285714284 520.8422961076436 3953.214285714286 540.7347903265445 3991.357142857143 540.7792433621357 4029.5 522.2390966744398 4067.6428571428573 522.0175391594702 4105.785714285715 521.4815581773842 4143.928571428572 521.7061803820658 4182.071428571428 522.2747415869658 4220.214285714286 522.7674371524068 4258.357142857143 523.2798263552974 4296.5 523.9562890822376 4296.5 508.0481610967102 4258.357142857143 507.46130800445246 4220.214285714286 507.0233752398185 4182.071428571428 506.60822161328986 4143.928571428572 506.1065487459215 4105.785714285715 505.9043627233751 4067.6428571428573 506.4216643610348 4029.5 506.6484163233015 3991.357142857143 525.7580510881946 3953.214285714286 525.7315703546495 3915.0714285714284 502.94320923041516 3876.9285714285716 502.107038956447 3838.785714285714 501.18268987180403 3800.6428571428573 499.5661579814509 3762.5 498.2407663238116 3724.357142857143 498.34179455703446 3686.214285714286 498.4409678079612 3648.0714285714284 496.7688079778267 3609.9285714285716 496.7252878979315 3571.785714285714 467.1119991855256 3533.6428571428573 467.30287783529656 3495.5 467.12354601368946 3457.357142857143 467.18090658715477 3419.214285714286 468.4609806530692 3381.0714285714284 467.6706174617695 3342.9285714285716 466.5807912489142 3304.785714285714 466.04765597528194 3266.6428571428573 465.50683076275004 3228.5 465.1003985575009 3228.5 490.7876094955426Z" fill="#f6a118" opacity="0.9" />
		</g>
		<g>
			<path d="M3228.5 465.1003985575009 3266.6428571428573 465.50683076275004 3304.785714285714 466.04765597528194 3342.9285714285716 466.5807912489142 3381.0714285714284 467.6706174617695 3419.214285714286 468.4609806530692 3457.357142857143 467.18090658715477 3495.5 467.12354601368946 3533.6428571428573 467.30287783529656 3571.785714285714 467.1119991855256 3609.9285714285716 496.7252878979315 3648.0714285714284 496.7688079778267 3686.214285714286 498.4409678079612 3724.357142857143 498.34179455703446 3762.5 498.2407663238116 3800.6428571428573 499.5661579814509 3838.785714285714 501.18268987180403 3876.9285714285716 502.107038956447 3915.0714285714284 502.94320923041516 3953.214285714286 525.7315703546495 3991.357142857143 525.7580510881946 4029.5 506.6484163233015 4067.6428571428573 506.4216643610348 4105.785714285715 505.9043627233751 4143.928571428572 506.1065487459215 4182.071428571428 506.60822161328986 4220.214285714286 507.0233752398185 4258.357142857143 507.46130800445246 4296.5 508.0481610967102 4296.5 495.82345643600064 4258.357142857143 495.20191899296304 4220.214285714286 494.71994133496287 4182.071428571428 494.25306019687616 4143.928571428572 493.7747398235285 4105.785714285715 493.46369672124194 4067.6428571428573 493.7814105421057 4029.5 493.8307143677906 3991.357142857143 513.2062038257327 3953.214285714286 513.0191600354991 3915.0714285714284 492.37221825805364 3876.9285714285716 491.90854325848505 3838.785714285714 491.3515350353937 3800.6428571428573 490.22585688768174 3762.5 489.18947576032576 3724.357142857143 489.22333619864025 3686.214285714286 489.223179567103 3648.0714285714284 489.59463668666535 3609.9285714285716 489.6274021960388 3571.785714285714 465.84397535618723 3533.6428571428573 466.0407574120686 3495.5 465.8767979346657 3457.357142857143 465.9500572477321 3419.214285714286 467.2202695247198 3381.0714285714284 466.45583538595343 3342.9285714285716 465.39864568725244 3304.785714285714 464.88886642683036 3266.6428571428573 464.365762498016 3228.5 463.97855376512575 3228.5 465.1003985575009Z" fill="#fdd5a4" opacity="0.9" />
		</g>
		<g>
			<path d="M3228.5 463.97855376512575 3266.6428571428573 464.365762498016 3304.785714285714 464.88886642683036 3342.9285714285716 465.39864568725244 3381.0714285714284 466.45583538595343 3419.214285714286 467.2202695247198 3457.357142857143 465.9500572477321 3495.5 465.8767979346657 3533.6428571428573 466.0407574120686 3571.785714285714 465.84397535618723 3609.9285714285716 489.6274021960388 3648.0714285714284 489.59463668666535 3686.214285714286 489.223179567103 3724.357142857143 489.22333619864025 3762.5 489.18947576032576 3800.6428571428573 490.22585688768174 3838.785714285714 491.3515350353937 3876.9285714285716 491.90854325848505 3915.0714285714284 492.37221825805364 3953.214285714286 513.0191600354991 3991.357142857143 513.2062038257327 4029.5 493.8307143677906 4067.6428571428573 493.7814105421057 4105.785714285715 493.46369672124194 4143.928571428572 493.7747398235285 4182.071428571428 494.25306019687616 4220.214285714286 494.71994133496287 4258.357142857143 495.20191899296304 4296.5 495.82345643600064 4296.5 398.0000000000001 4258.357142857143 397.9999999999999 4220.214285714286 398 4182.071428571428 398 4143.928571428572 397.99999999999994 4105.785714285715 398 4067.6428571428573 397.9999999999999 4029.5 398.0000000000001 3991.357142857143 398.0000000000001 3953.214285714286 398 3915.0714285714284 397.9999999999999 3876.9285714285716 398.0000000000001 3838.785714285714 398 3800.6428571428573 397.99999999999994 3762.5 398 3724.357142857143 398 3686.214285714286 397.99999999999994 3648.0714285714284 398.0000000000001 3609.9285714285716 397.9999999999999 3571.785714285714 397.9999999999999 3533.6428571428573 398 3495.5 397.9999999999999 3457.357142857143 397.99999999999994 3419.214285714286 397.9999999999999 3381.0714285714284 397.99999999999994 3342.9285714285716 398 3304.785714285714 398.00000000000006 3266.6428571428573 397.99999999999983 3228.5 398.0000000000001 3228.5 463.97855376512575Z" fill="#393d41" opacity="0.9" />
		</g>
		<g>
			<rect x="4372" y="431" width="22.9995" height="23" fill="#e62d39" />
		</g>
		<g>
			<text fill="#595959" font-family="Verdana,sans-serif" font-weight="400" font-size="41" transform="matrix(1 0 0 1 4404.56 454)">Smartphone</text>
		</g>
		<g>
			<rect x="4372" y="508" width="22.9995" height="23" fill="#005aa6" />
		</g>
		<g>
			<text fill="#595959" font-family="Verdana,sans-serif" font-weight="400" font-size="41" transform="matrix(1 0 0 1 4404.56 531)">Desktop</text>
		</g>
		<g>
			<rect x="4372" y="585" width="22.9995" height="23" fill="#55c0e9" />
		</g>
		<g>
			<text fill="#595959" font-family="Verdana,sans-serif" font-weight="400" font-size="41" transform="matrix(1 0 0 1 4404.56 608)">Other</text>
		</g>
		<g>
			<rect x="4372" y="662" width="22.9995" height="23" fill="#f6a118" />
		</g>
		<g>
			<text fill="#595959" font-family="Verdana,sans-serif" font-weight="400" font-size="41" transform="matrix(1 0 0 1 4404.56 685)">Tablet</text>
		</g>
		<g>
			<rect x="4372" y="739" width="22.9995" height="23" fill="#fdd5a4" />
		</g>
		<g>
			<text fill="#595959" font-family="Verdana,sans-serif" font-weight="400" font-size="41" transform="matrix(1 0 0 1 4404.56 762)">Tv</text>
		</g>
		<g>
			<rect x="4372" y="816" width="22.9995" height="23" fill="#393d41" />
		</g>
		<g>
			<text fill="#595959" font-family="Verdana,sans-serif" font-weight="400" font-size="41" transform="matrix(1 0 0 1 4404.56 839)">Unclassified</text>
		</g>
	</g>
</svg>
