<svg width="1763" height="1046"
    xmlns="http://www.w3.org/2000/svg"
	xmlns:xlink="http://www.w3.org/1999/xlink" xml:space="preserve" overflow="hidden">
	<defs>
		<clipPath id="clip0">
			<rect x="2917" y="346" width="1763" height="1046"/>
		</clipPath>
	</defs>
	<g clip-path="url(#clip0)" transform="translate(-2917 -346)">
		<rect x="2918" y="347" width="1760" height="1043" fill="#FFFFFF" />
		<g>
			<path d="
			M3228.5 974.532 4296.5 974.532
			M3228.5 910.53 4296.5 910.53
			M3228.5 846.528 4296.5 846.528
			M3228.5 781.526 4296.5 781.526
			M3228.5 717.524 4296.5 717.524
			M3228.5 653.522 4296.5 653.522
			M3228.5 589.52 4296.5 589.52
			M3228.5 525.517 4296.5 525.517
			M3228.5 461.515 4296.5 461.515
			M3228.5 397.5 4296.5 397.5" stroke="#D9D9D9" stroke-width="3.4375" stroke-linejoin="round" stroke-miterlimit="10" fill="none" />
		</g>
		<g>
			<path d="M 1038.5 4296.5 1038.5" stroke="#D9D9D9" stroke-width="3.4375" stroke-linejoin="round" stroke-miterlimit="10" fill="none" fill-rule="evenodd" />
		</g>
		<g>
			<text fill="#595959" font-family="Verdana,sans-serif" font-weight="400" font-size="41" transform="matrix(6.12323e-17 -1 1 6.12323e-17 3244.5 1217)">05-Feb</text>
		</g>
		<g>
			<text fill="#595959" font-family="Verdana,sans-serif" font-weight="400" font-size="41" transform="matrix(6.12323e-17 -1 1 6.12323e-17 3328.264705882353 1223)">04-Mar</text>
		</g>
		<g>
			<text fill="#595959" font-family="Verdana,sans-serif" font-weight="400" font-size="41" transform="matrix(6.12323e-17 -1 1 6.12323e-17 3415.529411764706 1217)">01-Apr</text>
		</g>
		<g>
			<text fill="#595959" font-family="Verdana,sans-serif" font-weight="400" font-size="41" transform="matrix(6.12323e-17 -1 1 6.12323e-17 3499.294117647059 1216)">29-Apr</text>
		</g>
		<g>
			<text fill="#595959" font-family="Verdana,sans-serif" font-weight="400" font-size="41" transform="matrix(6.12323e-17 -1 1 6.12323e-17 3583.0588235294117 1228)">27-May</text>
		</g>
		<g>
			<text fill="#595959" font-family="Verdana,sans-serif" font-weight="400" font-size="41" transform="matrix(6.12323e-17 -1 1 6.12323e-17 3663.323529411765 1211)">24-Jun</text>
		</g>
		<g>
			<text fill="#595959" font-family="Verdana,sans-serif" font-weight="400" font-size="41" transform="matrix(6.12323e-17 -1 1 6.12323e-17 3747.0882352941176 1196)">22-Jul</text>
		</g>
		<g>
			<text fill="#595959" font-family="Verdana,sans-serif" font-weight="400" font-size="41" transform="matrix(6.12323e-17 -1 1 6.12323e-17 3834.3529411764707 1218)">19-Aug</text>
		</g>
		<g>
			<text fill="#595959" font-family="Verdana,sans-serif" font-weight="400" font-size="41" transform="matrix(6.12323e-17 -1 1 6.12323e-17 3918.1176470588234 1219)">16-Sep</text>
		</g>
		<g>
			<text fill="#595959" font-family="Verdana,sans-serif" font-weight="400" font-size="41" transform="matrix(6.12323e-17 -1 1 6.12323e-17 3998.3823529411766 1213)">14-Oct</text>
		</g>
		<g>
			<text fill="#595959" font-family="Verdana,sans-serif" font-weight="400" font-size="41" transform="matrix(6.12323e-17 -1 1 6.12323e-17 4081.6470588235293 1222)">11-Nov</text>
		</g>
		<g>
			<text fill="#595959" font-family="Verdana,sans-serif" font-weight="400" font-size="41" transform="matrix(6.12323e-17 -1 1 6.12323e-17 4165.411764705882 1220)">16-Dec</text>
		</g>
		<g>
			<text fill="#595959" font-family="Verdana,sans-serif" font-weight="400" font-size="41" transform="matrix(6.12323e-17 -1 1 6.12323e-17 4249.676470588235 1207)">13-Jan</text>
		</g>
		<g>
			<text fill="#595959" font-family="Verdana,sans-serif" font-weight="400" font-size="41" transform="matrix(1 0 0 1 3167.5 1050)">0</text>
		</g>
		<g>
			<text fill="#595959" font-family="Verdana,sans-serif" font-weight="400" font-size="41" transform="matrix(1 0 0 1 3050.5 922)">17,687</text>
		</g>
		<g>
			<text fill="#595959" font-family="Verdana,sans-serif" font-weight="400" font-size="41" transform="matrix(1 0 0 1 3048.5 794)">35,374</text>
		</g>
		<g>
			<text fill="#595959" font-family="Verdana,sans-serif" font-weight="400" font-size="41" transform="matrix(1 0 0 1 3050.5 666)">53,061</text>
		</g>
		<g>
			<text fill="#595959" font-family="Verdana,sans-serif" font-weight="400" font-size="41" transform="matrix(1 0 0 1 3048.5 538)">70,748</text>
		</g>
		<g>
			<text fill="#595959" font-family="Verdana,sans-serif" font-weight="400" font-size="41" transform="matrix(1 0 0 1 3048.5 410)">88,435</text>
		</g>
		<g>
			<text fill="#595959" font-family="Verdana,sans-serif" font-weight="400" font-size="41" transform="matrix(1 0 0 1 3544.5 1321)">Week Commencing</text>
		</g>
		<g>
			<text fill="#595959" font-family="Verdana,sans-serif" font-weight="400" font-size="46" transform="matrix(6.12323e-17 -1 1 6.12323e-17 3019.73 1048.25)">Number of Hardware Profiles</text>
		</g>
		<rect x="2918.5" y="347.5" width="1760" height="1043" stroke="#D9D9D9" stroke-width="3.4375" stroke-linejoin="round" stroke-miterlimit="10" fill="none" />
		<g>
			<path d="M3228.5 1038 3249.4411764705883 1038 3270.3823529411766 1038 3291.323529411765 1038 3312.264705882353 1038 3333.205882352941 1038 3354.1470588235293 1038 3375.0882352941176 1038 3396.029411764706 1038 3416.970588235294 1038 3437.9117647058824 1038 3458.8529411764707 1038 3479.794117647059 1038 3500.735294117647 1038 3521.676470588235 1038 3542.6176470588234 1038 3563.5588235294117 1038 3584.5 1038 3605.4411764705883 1038 3626.3823529411766 1038 3647.323529411765 1038 3668.264705882353 1038 3689.205882352941 1038 3710.1470588235293 1038 3731.0882352941176 1038 3752.029411764706 1038 3772.970588235294 1038 3793.9117647058824 1038 3814.8529411764707 1038 3835.7941176470586 1038 3856.735294117647 1038 3877.676470588235 1038 3898.6176470588234 1038 3919.5588235294117 1038 3940.5 1038 3961.4411764705883 1038 3982.3823529411766 1038 4003.323529411765 1038 4024.264705882353 1038 4045.2058823529414 1038 4066.1470588235293 1038 4087.0882352941176 1038 4108.029411764706 1038 4128.970588235294 1038 4149.911764705882 1038 4170.85294117647 1038 4191.794117647059 1038 4212.735294117647 1038 4233.676470588235 1038 4254.617647058823 1038 4275.558823529412 1038 4296.5 1038 4296.5 691.2558376208515 4275.558823529412 691.6104483518968 4254.617647058823 691.9216373607735 4233.676470588235 692.2183524622603 4212.735294117647 692.5005936563578 4191.794117647059 692.7032283598123 4170.85294117647 692.8913891558772 4149.911764705882 693.1736303499745 4128.970588235294 693.564425849494 4108.029411764706 693.9552213490134 4087.0882352941176 694.2808842652796 4066.1470588235293 694.5486515519874 4045.2058823529414 694.780234070221 4024.264705882353 695.0552383106236 4003.323529411765 695.4098490416691 3982.3823529411766 695.7716967264092 3961.4411764705883 696.1045965963701 3940.5 696.4013116978572 3919.5588235294117 696.5894724939221 3898.6176470588234 696.9875049471364 3877.676470588235 697.4723808446881 3856.735294117647 697.7473850850907 3835.7941176470586 697.9500197885452 3814.8529411764707 698.2033131678634 3793.9117647058824 698.51450217674 3772.970588235294 698.8039803245322 3752.029411764706 699.0355628427658 3731.0882352941176 699.4118844348957 3710.1470588235293 699.7230734437723 3689.205882352941 700.0559733137333 3668.264705882353 700.359925368915 3647.323529411765 700.6783513314864 3626.3823529411766 700.9461186181941 3605.4411764705883 700.9750664329733 3584.5 701.1053315994798 3563.5588235294117 701.1849380901226 3542.6176470588234 701.503364052694 3521.676470588235 701.7349465709278 3500.735294117647 701.8941595522135 3479.794117647059 702.1908746537005 3458.8529411764707 702.5599592921354 3437.9117647058824 703.0014134675184 3416.970588235294 703.3632611522587 3396.029411764706 703.6816871148301 3375.0882352941176 703.906032679369 3354.1470588235293 704.1737999660768 3333.205882352941 704.4126194380053 3312.264705882353 704.5935432803753 3291.323529411765 704.752756261661 3270.3823529411766 704.868547520778 3249.4411764705883 705.0567083168428 3228.5 705.2521060666027 3228.5 1038Z" fill="#e62d39" opacity="0.9" />
		</g>
		<g>
			<path d="M3228.5 705.2521060666027 3249.4411764705883 705.0567083168428 3270.3823529411766 704.868547520778 3291.323529411765 704.752756261661 3312.264705882353 704.5935432803753 3333.205882352941 704.4126194380053 3354.1470588235293 704.1737999660768 3375.0882352941176 703.906032679369 3396.029411764706 703.6816871148301 3416.970588235294 703.3632611522587 3437.9117647058824 703.0014134675184 3458.8529411764707 702.5599592921354 3479.794117647059 702.1908746537005 3500.735294117647 701.8941595522135 3521.676470588235 701.7349465709278 3542.6176470588234 701.503364052694 3563.5588235294117 701.1849380901226 3584.5 701.1053315994798 3605.4411764705883 700.9750664329733 3626.3823529411766 700.9461186181941 3647.323529411765 700.6783513314864 3668.264705882353 700.359925368915 3689.205882352941 700.0559733137333 3710.1470588235293 699.7230734437723 3731.0882352941176 699.4118844348957 3752.029411764706 699.0355628427658 3772.970588235294 698.8039803245322 3793.9117647058824 698.51450217674 3814.8529411764707 698.2033131678634 3835.7941176470586 697.9500197885452 3856.735294117647 697.7473850850907 3877.676470588235 697.4723808446881 3898.6176470588234 696.9875049471364 3919.5588235294117 696.5894724939221 3940.5 696.4013116978572 3961.4411764705883 696.1045965963701 3982.3823529411766 695.7716967264092 4003.323529411765 695.4098490416691 4024.264705882353 695.0552383106236 4045.2058823529414 694.780234070221 4066.1470588235293 694.5486515519874 4087.0882352941176 694.2808842652796 4108.029411764706 693.9552213490134 4128.970588235294 693.564425849494 4149.911764705882 693.1736303499745 4170.85294117647 692.8913891558772 4191.794117647059 692.7032283598123 4212.735294117647 692.5005936563578 4233.676470588235 692.2183524622603 4254.617647058823 691.9216373607735 4275.558823529412 691.6104483518968 4296.5 691.2558376208515 4296.5 524.5526092610392 4275.558823529412 524.9723525753377 4254.617647058823 525.4427545655001 4233.676470588235 525.9059196019674 4212.735294117647 526.3473737773505 4191.794117647059 526.593430202974 4170.85294117647 526.8105388138181 4149.911764705882 527.215808220727 4128.970588235294 527.6500254424153 4108.029411764706 528.2362186916945 4087.0882352941176 528.6487250522983 4066.1470588235293 529.068468366597 4045.2058823529414 529.4520269124215 4024.264705882353 529.9441397636682 4003.323529411765 530.4217787075254 3982.3823529411766 530.8704698366032 3961.4411764705883 531.3408718267654 3940.5 531.7895629558433 3919.5588235294117 532.1079889184147 3898.6176470588234 532.6435234918301 3877.676470588235 533.1935319726352 3856.735294117647 533.6422231017132 3835.7941176470586 533.9534121105896 3814.8529411764707 534.3007858879403 3793.9117647058824 534.7350031096287 3772.970588235294 535.1113247017583 3752.029411764706 535.494883247583 3731.0882352941176 535.9580482840504 3710.1470588235293 536.3995024594335 3689.205882352941 536.8047718663425 3668.264705882353 537.2389890880307 3647.323529411765 537.4633346525696 3626.3823529411766 537.8034714762254 3605.4411764705883 537.854130152089 3584.5 538.0205800870696 3563.5588235294117 538.1074235314072 3542.6176470588234 538.5633516141799 3521.676470588235 539.004805789563 3500.735294117647 539.3811273816927 3479.794117647059 539.8442924181602 3458.8529411764707 540.4015378526601 3437.9117647058824 541.0528636851924 3416.970588235294 541.5956352123028 3396.029411764706 542.0732741561599 3375.0882352941176 542.3772262113416 3354.1470588235293 542.7245999886923 3333.205882352941 543.0792107197376 3312.264705882353 543.3180301916661 3291.323529411765 543.5857974783739 3270.3823529411766 543.7594843670493 3249.4411764705883 544.0417255611464 3228.5 544.3094928478545 3228.5 705.2521060666027Z" fill="#f6a118" opacity="0.9" />
		</g>
		<g>
			<path d="M3228.5 544.3094928478545 3249.4411764705883 544.0417255611464 3270.3823529411766 543.7594843670493 3291.323529411765 543.5857974783739 3312.264705882353 543.3180301916661 3333.205882352941 543.0792107197376 3354.1470588235293 542.7245999886923 3375.0882352941176 542.3772262113416 3396.029411764706 542.0732741561599 3416.970588235294 541.5956352123028 3437.9117647058824 541.0528636851924 3458.8529411764707 540.4015378526601 3479.794117647059 539.8442924181602 3500.735294117647 539.3811273816927 3521.676470588235 539.004805789563 3542.6176470588234 538.5633516141799 3563.5588235294117 538.1074235314072 3584.5 538.0205800870696 3605.4411764705883 537.854130152089 3626.3823529411766 537.8034714762254 3647.323529411765 537.4633346525696 3668.264705882353 537.2389890880307 3689.205882352941 536.8047718663425 3710.1470588235293 536.3995024594335 3731.0882352941176 535.9580482840504 3752.029411764706 535.494883247583 3772.970588235294 535.1113247017583 3793.9117647058824 534.7350031096287 3814.8529411764707 534.3007858879403 3835.7941176470586 533.9534121105896 3856.735294117647 533.6422231017132 3877.676470588235 533.1935319726352 3898.6176470588234 532.6435234918301 3919.5588235294117 532.1079889184147 3940.5 531.7895629558433 3961.4411764705883 531.3408718267654 3982.3823529411766 530.8704698366032 4003.323529411765 530.4217787075254 4024.264705882353 529.9441397636682 4045.2058823529414 529.4520269124215 4066.1470588235293 529.068468366597 4087.0882352941176 528.6487250522983 4108.029411764706 528.2362186916945 4128.970588235294 527.6500254424153 4149.911764705882 527.215808220727 4170.85294117647 526.8105388138181 4191.794117647059 526.593430202974 4212.735294117647 526.3473737773505 4233.676470588235 525.9059196019674 4254.617647058823 525.4427545655001 4275.558823529412 524.9723525753377 4296.5 524.5526092610392 4296.5 447.76129360547293 4275.558823529412 448.1955108271611 4254.617647058823 448.7165714931871 4233.676470588235 449.22315825182324 4212.735294117647 449.7080341493752 4191.794117647059 449.96132752869346 4170.85294117647 450.1929100469271 4149.911764705882 450.6416011760049 4128.970588235294 451.0902923050828 4108.029411764706 451.7343811839204 4087.0882352941176 452.1613614519139 4066.1470588235293 452.61728953468656 4045.2058823529414 453.0876915248487 4024.264705882353 453.6087521908746 4003.323529411765 454.1225759032058 3982.3823529411766 454.60021484706283 3961.4411764705883 455.11403855939386 3940.5 455.6206253180302 3919.5588235294117 455.9752360490756 3898.6176470588234 456.57590320574434 3877.676470588235 457.21999208458186 3856.735294117647 457.697631028439 3835.7941176470586 458.0522417594843 3814.8529411764707 458.44303725900375 3793.9117647058824 458.9351501102506 3772.970588235294 459.3548934245491 3752.029411764706 459.7529258777633 3731.0882352941176 460.23056482162036 3710.1470588235293 460.7009668117827 3689.205882352941 461.135184033471 3668.264705882353 461.59111211624355 3647.323529411765 462.0325662916266 3626.3823529411766 462.3871770226719 3605.4411764705883 462.4450726522304 3584.5 462.6259964946005 3563.5588235294117 462.72007689263296 3542.6176470588234 463.20495279018485 3521.676470588235 463.68982868773674 3500.735294117647 464.0950980946458 3479.794117647059 464.59444789958724 3458.8529411764707 465.2023520099508 3437.9117647058824 465.8898626109571 3416.970588235294 466.44710804545707 3396.029411764706 466.968168711483 3375.0882352941176 467.28659467405436 3354.1470588235293 467.6629162661842 3333.205882352941 468.03200090461917 3312.264705882353 468.2780573302425 3291.323529411765 468.5675354780347 3270.3823529411766 468.75569627409965 3249.4411764705883 469.0524113755864 3228.5 469.3491264770737 3228.5 544.3094928478545Z" fill="#55c0e9" opacity="0.9" />
		</g>
		<g>
			<path d="M3228.5 469.3491264770737 3249.4411764705883 469.0524113755864 3270.3823529411766 468.75569627409965 3291.323529411765 468.5675354780347 3312.264705882353 468.2780573302425 3333.205882352941 468.03200090461917 3354.1470588235293 467.6629162661842 3375.0882352941176 467.28659467405436 3396.029411764706 466.968168711483 3416.970588235294 466.44710804545707 3437.9117647058824 465.8898626109571 3458.8529411764707 465.2023520099508 3479.794117647059 464.59444789958724 3500.735294117647 464.0950980946458 3521.676470588235 463.68982868773674 3542.6176470588234 463.20495279018485 3563.5588235294117 462.72007689263296 3584.5 462.6259964946005 3605.4411764705883 462.4450726522304 3626.3823529411766 462.3871770226719 3647.323529411765 462.0325662916266 3668.264705882353 461.59111211624355 3689.205882352941 461.135184033471 3710.1470588235293 460.7009668117827 3731.0882352941176 460.23056482162036 3752.029411764706 459.7529258777633 3772.970588235294 459.3548934245491 3793.9117647058824 458.9351501102506 3814.8529411764707 458.44303725900375 3835.7941176470586 458.0522417594843 3856.735294117647 457.697631028439 3877.676470588235 457.21999208458186 3898.6176470588234 456.57590320574434 3919.5588235294117 455.9752360490756 3940.5 455.6206253180302 3961.4411764705883 455.11403855939386 3982.3823529411766 454.60021484706283 4003.323529411765 454.1225759032058 4024.264705882353 453.6087521908746 4045.2058823529414 453.0876915248487 4066.1470588235293 452.61728953468656 4087.0882352941176 452.1613614519139 4108.029411764706 451.7343811839204 4128.970588235294 451.0902923050828 4149.911764705882 450.6416011760049 4170.85294117647 450.1929100469271 4191.794117647059 449.96132752869346 4212.735294117647 449.7080341493752 4233.676470588235 449.22315825182324 4254.617647058823 448.7165714931871 4275.558823529412 448.1955108271611 4296.5 447.76129360547293 4296.5 399.34607338723356 4275.558823529412 399.990162266071 4254.617647058823 400.73556849663595 4233.676470588235 401.4520269124214 4212.735294117647 402.1829592355967 4191.794117647059 402.4796743370838 4170.85294117647 402.7908633459603 4149.911764705882 403.4856109006614 4128.970588235294 404.2020693164471 4108.029411764706 405.4540623056482 4087.0882352941176 406.12709899926506 4066.1470588235293 406.81460960027147 4045.2058823529414 407.52383106236215 4024.264705882353 408.23305252445294 4003.323529411765 408.9567478939335 3982.3823529411766 409.6659693560242 3961.4411764705883 410.37519081811496 3940.5 411.077175326511 3919.5588235294117 411.6199468536213 3898.6176470588234 412.5318030191666 3877.676470588235 413.34957878667944 3856.735294117647 414.0732741561599 3835.7941176470586 414.63051959065973 3814.8529411764707 415.3107932379713 3793.9117647058824 415.9983038389779 3772.970588235294 416.6785774862894 3752.029411764706 417.36608808729574 3731.0882352941176 418.0608356419969 3710.1470588235293 418.77729405778257 3689.205882352941 419.4865155198734 3668.264705882353 420.21744784304855 3647.323529411765 420.90495844405496 3626.3823529411766 421.5924690450612 3605.4411764705883 422.2727426923729 3584.5 422.92406852490524 3563.5588235294117 423.57539435743763 3542.6176470588234 424.32080058800244 3521.676470588235 424.9069938372816 3500.735294117647 425.4497653643919 3479.794117647059 426.0866172895347 3458.8529411764707 426.8464974274891 3437.9117647058824 427.58466670435905 3416.970588235294 428.2577033979759 3396.029411764706 428.8149488324758 3375.0882352941176 429.1623226098264 3354.1470588235293 429.5893028778199 3333.205882352941 429.98009837733923 3312.264705882353 430.34918301577426 3291.323529411765 430.81234805224176 3270.3823529411766 431.43472606999495 3249.4411764705883 432.19460620794916 3228.5 432.6143495222481 3228.5 469.3491264770737Z" fill="#fdd5a4" opacity="0.9" />
		</g>
		<g>
			<path d="M3228.5 432.6143495222481 3249.4411764705883 432.19460620794916 3270.3823529411766 431.43472606999495 3291.323529411765 430.81234805224176 3312.264705882353 430.34918301577426 3333.205882352941 429.98009837733923 3354.1470588235293 429.5893028778199 3375.0882352941176 429.1623226098264 3396.029411764706 428.8149488324758 3416.970588235294 428.2577033979759 3437.9117647058824 427.58466670435905 3458.8529411764707 426.8464974274891 3479.794117647059 426.0866172895347 3500.735294117647 425.4497653643919 3521.676470588235 424.9069938372816 3542.6176470588234 424.32080058800244 3563.5588235294117 423.57539435743763 3584.5 422.92406852490524 3605.4411764705883 422.2727426923729 3626.3823529411766 421.5924690450612 3647.323529411765 420.90495844405496 3668.264705882353 420.21744784304855 3689.205882352941 419.4865155198734 3710.1470588235293 418.77729405778257 3731.0882352941176 418.0608356419969 3752.029411764706 417.36608808729574 3772.970588235294 416.6785774862894 3793.9117647058824 415.9983038389779 3814.8529411764707 415.3107932379713 3835.7941176470586 414.63051959065973 3856.735294117647 414.0732741561599 3877.676470588235 413.34957878667944 3898.6176470588234 412.5318030191666 3919.5588235294117 411.6199468536213 3940.5 411.077175326511 3961.4411764705883 410.37519081811496 3982.3823529411766 409.6659693560242 4003.323529411765 408.9567478939335 4024.264705882353 408.23305252445294 4045.2058823529414 407.52383106236215 4066.1470588235293 406.81460960027147 4087.0882352941176 406.12709899926506 4108.029411764706 405.4540623056482 4128.970588235294 404.2020693164471 4149.911764705882 403.4856109006614 4170.85294117647 402.7908633459603 4191.794117647059 402.4796743370838 4212.735294117647 402.1829592355967 4233.676470588235 401.4520269124214 4254.617647058823 400.73556849663595 4275.558823529412 399.990162266071 4296.5 399.34607338723356 4296.5 398 4275.558823529412 398.64408887883747 4254.617647058823 399.3894951094024 4233.676470588235 400.10595352518783 4212.735294117647 400.8368858483631 4191.794117647059 401.13360094985023 4170.85294117647 401.44478995872674 4149.911764705882 402.13953751342785 4128.970588235294 402.8559959292135 4108.029411764706 404.10798891841466 4087.0882352941176 404.7810256120315 4066.1470588235293 405.4685362130379 4045.2058823529414 406.1777576751286 4024.264705882353 406.8942160909142 4003.323529411765 407.62514841408955 3982.3823529411766 408.3343698761803 3961.4411764705883 409.043591338271 3940.5 409.74557584666707 3919.5588235294117 410.28834737377736 3898.6176470588234 411.2002035393227 3877.676470588235 412.0179793068355 3856.735294117647 412.741674676316 3835.7941176470586 413.2989201108158 3814.8529411764707 413.9791937581274 3793.9117647058824 414.666704359134 3772.970588235294 415.34697800644545 3752.029411764706 416.0344886074518 3731.0882352941176 416.729236162153 3710.1470588235293 417.44569457793864 3689.205882352941 418.1549160400295 3668.264705882353 418.8858483632046 3647.323529411765 419.573358964211 3626.3823529411766 420.26086956521726 3605.4411764705883 420.94114321252897 3584.5 421.5924690450613 3563.5588235294117 422.2437948775937 3542.6176470588234 422.9892011081585 3521.676470588235 423.5753943574377 3500.735294117647 424.118165884548 3479.794117647059 424.75501780969074 3458.8529411764707 425.5148979476452 3437.9117647058824 426.2530672245151 3416.970588235294 426.94057782552153 3396.029411764706 427.49782326002145 3375.0882352941176 427.84519703737203 3354.1470588235293 428.2721773053655 3333.205882352941 428.6629728048849 3312.264705882353 429.0320574433199 3291.323529411765 429.4952224797874 3270.3823529411766 430.1176004975406 3249.4411764705883 430.8774806354948 3228.5 431.29722394979376 3228.5 432.6143495222481Z" fill="#005aa6" opacity="0.9" />
		</g>
		<g>
			<rect x="4372" y="431" width="22.9995" height="23" fill="#e62d39" />
		</g>
		<g>
			<text fill="#595959" font-family="Verdana,sans-serif" font-weight="400" font-size="41" transform="matrix(1 0 0 1 4404.56 454)">Smartphone</text>
		</g>
		<g>
			<rect x="4372" y="508" width="22.9995" height="23" fill="#f6a118" />
		</g>
		<g>
			<text fill="#595959" font-family="Verdana,sans-serif" font-weight="400" font-size="41" transform="matrix(1 0 0 1 4404.56 531)">Tablet</text>
		</g>
		<g>
			<rect x="4372" y="585" width="22.9995" height="23" fill="#55c0e9" />
		</g>
		<g>
			<text fill="#595959" font-family="Verdana,sans-serif" font-weight="400" font-size="41" transform="matrix(1 0 0 1 4404.56 608)">Other</text>
		</g>
		<g>
			<rect x="4372" y="662" width="22.9995" height="23" fill="#fdd5a4" />
		</g>
		<g>
			<text fill="#595959" font-family="Verdana,sans-serif" font-weight="400" font-size="41" transform="matrix(1 0 0 1 4404.56 685)">Tv</text>
		</g>
		<g>
			<rect x="4372" y="739" width="22.9995" height="23" fill="#005aa6" />
		</g>
		<g>
			<text fill="#595959" font-family="Verdana,sans-serif" font-weight="400" font-size="41" transform="matrix(1 0 0 1 4404.56 762)">Desktop</text>
		</g>
	</g>
</svg>
