<svg width="1763" height="1046"
    xmlns="http://www.w3.org/2000/svg"
	xmlns:xlink="http://www.w3.org/1999/xlink" xml:space="preserve" overflow="hidden">
	<defs>
		<clipPath id="clip0">
			<rect x="2917" y="346" width="1763" height="1046"/>
		</clipPath>
	</defs>
	<g clip-path="url(#clip0)" transform="translate(-2917 -346)">
		<rect x="2918" y="347" width="1760" height="1043" fill="#FFFFFF" />
		<g>
			<path d="
			M3228.5 974.532 4296.5 974.532
			M3228.5 910.53 4296.5 910.53
			M3228.5 846.528 4296.5 846.528
			M3228.5 781.526 4296.5 781.526
			M3228.5 717.524 4296.5 717.524
			M3228.5 653.522 4296.5 653.522
			M3228.5 589.52 4296.5 589.52
			M3228.5 525.517 4296.5 525.517
			M3228.5 461.515 4296.5 461.515
			M3228.5 397.5 4296.5 397.5" stroke="#D9D9D9" stroke-width="3.4375" stroke-linejoin="round" stroke-miterlimit="10" fill="none" />
		</g>
		<g>
			<path d="M 1038.5 4296.5 1038.5" stroke="#D9D9D9" stroke-width="3.4375" stroke-linejoin="round" stroke-miterlimit="10" fill="none" fill-rule="evenodd" />
		</g>
		<g>
			<text fill="#595959" font-family="Verdana,sans-serif" font-weight="400" font-size="41" transform="matrix(6.12323e-17 -1 1 6.12323e-17 3244.5 1225)">06-Nov</text>
		</g>
		<g>
			<text fill="#595959" font-family="Verdana,sans-serif" font-weight="400" font-size="41" transform="matrix(6.12323e-17 -1 1 6.12323e-17 3323.6111111111113 1224)">20-Nov</text>
		</g>
		<g>
			<text fill="#595959" font-family="Verdana,sans-serif" font-weight="400" font-size="41" transform="matrix(6.12323e-17 -1 1 6.12323e-17 3402.722222222222 1223)">04-Dec</text>
		</g>
		<g>
			<text fill="#595959" font-family="Verdana,sans-serif" font-weight="400" font-size="41" transform="matrix(6.12323e-17 -1 1 6.12323e-17 3481.8333333333335 1220)">18-Dec</text>
		</g>
		<g>
			<text fill="#595959" font-family="Verdana,sans-serif" font-weight="400" font-size="41" transform="matrix(6.12323e-17 -1 1 6.12323e-17 3560.9444444444443 1210)">01-Jan</text>
		</g>
		<g>
			<text fill="#595959" font-family="Verdana,sans-serif" font-weight="400" font-size="41" transform="matrix(6.12323e-17 -1 1 6.12323e-17 3639.5555555555557 1207)">15-Jan</text>
		</g>
		<g>
			<text fill="#595959" font-family="Verdana,sans-serif" font-weight="400" font-size="41" transform="matrix(6.12323e-17 -1 1 6.12323e-17 3719.1666666666665 1210)">29-Jan</text>
		</g>
		<g>
			<text fill="#595959" font-family="Verdana,sans-serif" font-weight="400" font-size="41" transform="matrix(6.12323e-17 -1 1 6.12323e-17 3798.277777777778 1214)">12-Feb</text>
		</g>
		<g>
			<text fill="#595959" font-family="Verdana,sans-serif" font-weight="400" font-size="41" transform="matrix(6.12323e-17 -1 1 6.12323e-17 3877.3888888888887 1216)">26-Feb</text>
		</g>
		<g>
			<text fill="#595959" font-family="Verdana,sans-serif" font-weight="400" font-size="41" transform="matrix(6.12323e-17 -1 1 6.12323e-17 3956 1221)">11-Mar</text>
		</g>
		<g>
			<text fill="#595959" font-family="Verdana,sans-serif" font-weight="400" font-size="41" transform="matrix(6.12323e-17 -1 1 6.12323e-17 4035.6111111111113 1223)">25-Mar</text>
		</g>
		<g>
			<text fill="#595959" font-family="Verdana,sans-serif" font-weight="400" font-size="41" transform="matrix(6.12323e-17 -1 1 6.12323e-17 4118.222222222223 1217)">08-Apr</text>
		</g>
		<g>
			<text fill="#595959" font-family="Verdana,sans-serif" font-weight="400" font-size="41" transform="matrix(6.12323e-17 -1 1 6.12323e-17 4197.333333333333 1216)">22-Apr</text>
		</g>
		<g>
			<text fill="#595959" font-family="Verdana,sans-serif" font-weight="400" font-size="41" transform="matrix(6.12323e-17 -1 1 6.12323e-17 4276.444444444444 1228)">06-May</text>
		</g>
		<g>
			<text fill="#595959" font-family="Verdana,sans-serif" font-weight="400" font-size="41" transform="matrix(1 0 0 1 3123.5 1050)">0%</text>
		</g>
		<g>
			<text fill="#595959" font-family="Verdana,sans-serif" font-weight="400" font-size="41" transform="matrix(1 0 0 1 3097.5 922)">20%</text>
		</g>
		<g>
			<text fill="#595959" font-family="Verdana,sans-serif" font-weight="400" font-size="41" transform="matrix(1 0 0 1 3096.5 794)">40%</text>
		</g>
		<g>
			<text fill="#595959" font-family="Verdana,sans-serif" font-weight="400" font-size="41" transform="matrix(1 0 0 1 3097.5 666)">60%</text>
		</g>
		<g>
			<text fill="#595959" font-family="Verdana,sans-serif" font-weight="400" font-size="41" transform="matrix(1 0 0 1 3097.5 538)">80%</text>
		</g>
		<g>
			<text fill="#595959" font-family="Verdana,sans-serif" font-weight="400" font-size="41" transform="matrix(1 0 0 1 3074.5 410)">100%</text>
		</g>
		<g>
			<text fill="#595959" font-family="Verdana,sans-serif" font-weight="400" font-size="41" transform="matrix(1 0 0 1 3544.5 1321)">Week Commencing</text>
		</g>
		<g>
			<text fill="#595959" font-family="Verdana,sans-serif" font-weight="400" font-size="46" transform="matrix(6.12323e-17 -1 1 6.12323e-17 3019.73 965.25)">Requests (% of Total)</text>
		</g>
		<rect x="2918.5" y="347.5" width="1760" height="1043" stroke="#D9D9D9" stroke-width="3.4375" stroke-linejoin="round" stroke-miterlimit="10" fill="none" />
		<g>
			<path d="M3228.5 1038 3268.0555555555557 1038 3307.6111111111113 1038 3347.1666666666665 1038 3386.722222222222 1038 3426.277777777778 1038 3465.8333333333335 1038 3505.3888888888887 1038 3544.9444444444443 1038 3584.5 1038 3624.0555555555557 1038 3663.6111111111113 1038 3703.1666666666665 1038 3742.722222222222 1038 3782.277777777778 1038 3821.8333333333335 1038 3861.3888888888887 1038 3900.9444444444443 1038 3940.5 1038 3980.0555555555557 1038 4019.6111111111113 1038 4059.166666666667 1038 4098.722222222223 1038 4138.277777777777 1038 4177.833333333333 1038 4217.388888888889 1038 4256.944444444444 1038 4296.5 1038 4296.5 629.6411395703622 4256.944444444444 629.3637077507597 4217.388888888889 629.112232069277 4177.833333333333 628.7712194186788 4138.277777777777 629.1405060461395 4098.722222222223 630.4544284738802 4059.166666666667 631.6183228637996 4019.6111111111113 647.4118241208081 3980.0555555555557 648.3895796632379 3940.5 621.5001438018157 3900.9444444444443 620.7479883324611 3861.3888888888887 618.9772962489769 3821.8333333333335 616.6754829613407 3782.277777777778 614.5117939817052 3742.722222222222 615.2796120230914 3703.1666666666665 615.9275087100596 3663.6111111111113 616.3813797093885 3624.0555555555557 616.3755182018299 3584.5 569.065986327317 3544.9444444444443 568.8533275368973 3505.3888888888887 570.4200135868562 3465.8333333333335 571.2367304637471 3426.277777777778 574.6430294813756 3386.722222222222 573.9159777926823 3347.1666666666665 571.940753677543 3307.6111111111113 571.7928428278394 3268.0555555555557 571.6102570585995 3228.5 570.6431995209241 3228.5 1038Z" fill="#e62d39" opacity="0.9" />
		</g>
		<g>
			<path d="M3228.5 570.6431995209241 3268.0555555555557 571.6102570585995 3307.6111111111113 571.7928428278394 3347.1666666666665 571.940753677543 3386.722222222222 573.9159777926823 3426.277777777778 574.6430294813756 3465.8333333333335 571.2367304637471 3505.3888888888887 570.4200135868562 3544.9444444444443 568.8533275368973 3584.5 569.065986327317 3624.0555555555557 616.3755182018299 3663.6111111111113 616.3813797093885 3703.1666666666665 615.9275087100596 3742.722222222222 615.2796120230914 3782.277777777778 614.5117939817052 3821.8333333333335 616.6754829613407 3861.3888888888887 618.9772962489769 3900.9444444444443 620.7479883324611 3940.5 621.5001438018157 3980.0555555555557 648.3895796632379 4019.6111111111113 647.4118241208081 4059.166666666667 631.6183228637996 4098.722222222223 630.4544284738802 4138.277777777777 629.1405060461395 4177.833333333333 628.7712194186788 4217.388888888889 629.112232069277 4256.944444444444 629.3637077507597 4296.5 629.6411395703622 4296.5 547.2972215888882 4256.944444444444 546.9206806705122 4217.388888888889 546.5765460991323 4177.833333333333 546.1401156456737 4138.277777777777 546.162084159149 4098.722222222223 547.0193242259644 4059.166666666667 547.5943073684911 4019.6111111111113 565.6397555577983 3980.0555555555557 566.0005705781988 3940.5 541.8846686674905 3900.9444444444443 541.0539314470215 3861.3888888888887 539.8778029714027 3821.8333333333335 538.0311425357806 3782.277777777778 536.4270145966814 3742.722222222222 536.7106293649022 3703.1666666666665 536.9764016245806 3663.6111111111113 535.7941999215749 3624.0555555555557 535.7525782888524 3584.5 509.06513243323207 3544.9444444444443 509.44212806241245 3505.3888888888887 509.38220585337143 3465.8333333333335 509.60866877735396 3426.277777777778 511.9603578529975 3386.722222222222 511.0153758579769 3347.1666666666665 509.7472741468517 3307.6111111111113 509.176439393107 3268.0555555555557 508.6338001891333 3228.5 508.14325383903014 3228.5 570.6431995209241Z" fill="#005aa6" opacity="0.9" />
		</g>
		<g>
			<path d="M3228.5 508.14325383903014 3268.0555555555557 508.6338001891333 3307.6111111111113 509.176439393107 3347.1666666666665 509.7472741468517 3386.722222222222 511.0153758579769 3426.277777777778 511.9603578529975 3465.8333333333335 509.60866877735396 3505.3888888888887 509.38220585337143 3544.9444444444443 509.44212806241245 3584.5 509.06513243323207 3624.0555555555557 535.7525782888524 3663.6111111111113 535.7941999215749 3703.1666666666665 536.9764016245806 3742.722222222222 536.7106293649022 3782.277777777778 536.4270145966814 3821.8333333333335 538.0311425357806 3861.3888888888887 539.8778029714027 3900.9444444444443 541.0539314470215 3940.5 541.8846686674905 3980.0555555555557 566.0005705781988 4019.6111111111113 565.6397555577983 4059.166666666667 547.5943073684911 4098.722222222223 547.0193242259644 4138.277777777777 546.162084159149 4177.833333333333 546.1401156456737 4217.388888888889 546.5765460991323 4256.944444444444 546.9206806705122 4296.5 547.2972215888882 4296.5 523.2798263552974 4256.944444444444 522.7674371524068 4217.388888888889 522.2747415869658 4177.833333333333 521.7061803820658 4138.277777777777 521.4815581773842 4098.722222222223 522.0175391594702 4059.166666666667 522.2390966744398 4019.6111111111113 540.7792433621357 3980.0555555555557 540.7347903265445 3940.5 520.8422961076436 3900.9444444444443 519.941244366186 3861.3888888888887 518.8725186340012 3821.8333333333335 517.1348567955661 3782.277777777778 515.650021587989 3742.722222222222 515.7382849108784 3703.1666666666665 515.8356026961703 3663.6111111111113 514.2250429205485 3624.0555555555557 514.175265377396 3584.5 492.9059942279181 3544.9444444444443 493.0966047321476 3505.3888888888887 492.88332734476376 3465.8333333333335 492.95479515937706 3426.277777777778 494.7801665319999 3386.722222222222 493.78468973551225 3347.1666666666665 492.5320066774311 3307.6111111111113 491.93197908298504 3268.0555555555557 491.34916929089724 3228.5 490.7876094955426 3228.5 508.14325383903014Z" fill="#55c0e9" opacity="0.9" />
		</g>
		<g>
			<path d="M3228.5 490.7876094955426 3268.0555555555557 491.34916929089724 3307.6111111111113 491.93197908298504 3347.1666666666665 492.5320066774311 3386.722222222222 493.78468973551225 3426.277777777778 494.7801665319999 3465.8333333333335 492.95479515937706 3505.3888888888887 492.88332734476376 3544.9444444444443 493.0966047321476 3584.5 492.9059942279181 3624.0555555555557 514.175265377396 3663.6111111111113 514.2250429205485 3703.1666666666665 515.8356026961703 3742.722222222222 515.7382849108784 3782.277777777778 515.650021587989 3821.8333333333335 517.1348567955661 3861.3888888888887 518.8725186340012 3900.9444444444443 519.941244366186 3940.5 520.8422961076436 3980.0555555555557 540.7347903265445 4019.6111111111113 540.7792433621357 4059.166666666667 522.2390966744398 4098.722222222223 522.0175391594702 4138.277777777777 521.4815581773842 4177.833333333333 521.7061803820658 4217.388888888889 522.2747415869658 4256.944444444444 522.7674371524068 4296.5 523.2798263552974 4296.5 507.46130800445246 4256.944444444444 507.0233752398185 4217.388888888889 506.60822161328986 4177.833333333333 506.1065487459215 4138.277777777777 505.9043627233751 4098.722222222223 506.4216643610348 4059.166666666667 506.6484163233015 4019.6111111111113 525.7580510881946 3980.0555555555557 525.7315703546495 3940.5 502.94320923041516 3900.9444444444443 502.107038956447 3861.3888888888887 501.18268987180403 3821.8333333333335 499.5661579814509 3782.277777777778 498.2407663238116 3742.722222222222 498.34179455703446 3703.1666666666665 498.4409678079612 3663.6111111111113 496.7688079778267 3624.0555555555557 496.7252878979315 3584.5 467.1119991855256 3544.9444444444443 467.30287783529656 3505.3888888888887 467.12354601368946 3465.8333333333335 467.18090658715477 3426.277777777778 468.4609806530692 3386.722222222222 467.6706174617695 3347.1666666666665 466.5807912489142 3307.6111111111113 466.04765597528194 3268.0555555555557 465.50683076275004 3228.5 465.1003985575009 3228.5 490.7876094955426Z" fill="#f6a118" opacity="0.9" />
		</g>
		<g>
			<path d="M3228.5 465.1003985575009 3268.0555555555557 465.50683076275004 3307.6111111111113 466.04765597528194 3347.1666666666665 466.5807912489142 3386.722222222222 467.6706174617695 3426.277777777778 468.4609806530692 3465.8333333333335 467.18090658715477 3505.3888888888887 467.12354601368946 3544.9444444444443 467.30287783529656 3584.5 467.1119991855256 3624.0555555555557 496.7252878979315 3663.6111111111113 496.7688079778267 3703.1666666666665 498.4409678079612 3742.722222222222 498.34179455703446 3782.277777777778 498.2407663238116 3821.8333333333335 499.5661579814509 3861.3888888888887 501.18268987180403 3900.9444444444443 502.107038956447 3940.5 502.94320923041516 3980.0555555555557 525.7315703546495 4019.6111111111113 525.7580510881946 4059.166666666667 506.6484163233015 4098.722222222223 506.4216643610348 4138.277777777777 505.9043627233751 4177.833333333333 506.1065487459215 4217.388888888889 506.60822161328986 4256.944444444444 507.0233752398185 4296.5 507.46130800445246 4296.5 495.20191899296304 4256.944444444444 494.71994133496287 4217.388888888889 494.25306019687616 4177.833333333333 493.7747398235285 4138.277777777777 493.46369672124194 4098.722222222223 493.7814105421057 4059.166666666667 493.8307143677906 4019.6111111111113 513.2062038257327 3980.0555555555557 513.0191600354991 3940.5 492.37221825805364 3900.9444444444443 491.90854325848505 3861.3888888888887 491.3515350353937 3821.8333333333335 490.22585688768174 3782.277777777778 489.18947576032576 3742.722222222222 489.22333619864025 3703.1666666666665 489.223179567103 3663.6111111111113 489.59463668666535 3624.0555555555557 489.6274021960388 3584.5 465.84397535618723 3544.9444444444443 466.0407574120686 3505.3888888888887 465.8767979346657 3465.8333333333335 465.9500572477321 3426.277777777778 467.2202695247198 3386.722222222222 466.45583538595343 3347.1666666666665 465.39864568725244 3307.6111111111113 464.88886642683036 3268.0555555555557 464.365762498016 3228.5 463.97855376512575 3228.5 465.1003985575009Z" fill="#fdd5a4" opacity="0.9" />
		</g>
		<g>
			<path d="M3228.5 463.97855376512575 3268.0555555555557 464.365762498016 3307.6111111111113 464.88886642683036 3347.1666666666665 465.39864568725244 3386.722222222222 466.45583538595343 3426.277777777778 467.2202695247198 3465.8333333333335 465.9500572477321 3505.3888888888887 465.8767979346657 3544.9444444444443 466.0407574120686 3584.5 465.84397535618723 3624.0555555555557 489.6274021960388 3663.6111111111113 489.59463668666535 3703.1666666666665 489.223179567103 3742.722222222222 489.22333619864025 3782.277777777778 489.18947576032576 3821.8333333333335 490.22585688768174 3861.3888888888887 491.3515350353937 3900.9444444444443 491.90854325848505 3940.5 492.37221825805364 3980.0555555555557 513.0191600354991 4019.6111111111113 513.2062038257327 4059.166666666667 493.8307143677906 4098.722222222223 493.7814105421057 4138.277777777777 493.46369672124194 4177.833333333333 493.7747398235285 4217.388888888889 494.25306019687616 4256.944444444444 494.71994133496287 4296.5 495.20191899296304 4296.5 397.9999999999999 4256.944444444444 398 4217.388888888889 398 4177.833333333333 397.99999999999994 4138.277777777777 398 4098.722222222223 397.9999999999999 4059.166666666667 398.0000000000001 4019.6111111111113 398.0000000000001 3980.0555555555557 398 3940.5 397.9999999999999 3900.9444444444443 398.0000000000001 3861.3888888888887 398 3821.8333333333335 397.99999999999994 3782.277777777778 398 3742.722222222222 398 3703.1666666666665 397.99999999999994 3663.6111111111113 398.0000000000001 3624.0555555555557 397.9999999999999 3584.5 397.9999999999999 3544.9444444444443 398 3505.3888888888887 397.9999999999999 3465.8333333333335 397.99999999999994 3426.277777777778 397.9999999999999 3386.722222222222 397.99999999999994 3347.1666666666665 398 3307.6111111111113 398.00000000000006 3268.0555555555557 397.99999999999983 3228.5 398.0000000000001 3228.5 463.97855376512575Z" fill="#393d41" opacity="0.9" />
		</g>
		<g>
			<rect x="4372" y="431" width="22.9995" height="23" fill="#e62d39" />
		</g>
		<g>
			<text fill="#595959" font-family="Verdana,sans-serif" font-weight="400" font-size="41" transform="matrix(1 0 0 1 4404.56 454)">Smartphone</text>
		</g>
		<g>
			<rect x="4372" y="508" width="22.9995" height="23" fill="#005aa6" />
		</g>
		<g>
			<text fill="#595959" font-family="Verdana,sans-serif" font-weight="400" font-size="41" transform="matrix(1 0 0 1 4404.56 531)">Desktop</text>
		</g>
		<g>
			<rect x="4372" y="585" width="22.9995" height="23" fill="#55c0e9" />
		</g>
		<g>
			<text fill="#595959" font-family="Verdana,sans-serif" font-weight="400" font-size="41" transform="matrix(1 0 0 1 4404.56 608)">Other</text>
		</g>
		<g>
			<rect x="4372" y="662" width="22.9995" height="23" fill="#f6a118" />
		</g>
		<g>
			<text fill="#595959" font-family="Verdana,sans-serif" font-weight="400" font-size="41" transform="matrix(1 0 0 1 4404.56 685)">Tablet</text>
		</g>
		<g>
			<rect x="4372" y="739" width="22.9995" height="23" fill="#fdd5a4" />
		</g>
		<g>
			<text fill="#595959" font-family="Verdana,sans-serif" font-weight="400" font-size="41" transform="matrix(1 0 0 1 4404.56 762)">Tv</text>
		</g>
		<g>
			<rect x="4372" y="816" width="22.9995" height="23" fill="#393d41" />
		</g>
		<g>
			<text fill="#595959" font-family="Verdana,sans-serif" font-weight="400" font-size="41" transform="matrix(1 0 0 1 4404.56 839)">Unclassified</text>
		</g>
	</g>
</svg>
