<svg width="1763" height="1046"
    xmlns="http://www.w3.org/2000/svg"
	xmlns:xlink="http://www.w3.org/1999/xlink" xml:space="preserve" overflow="hidden">
	<defs>
		<clipPath id="clip0">
			<rect x="2917" y="346" width="1763" height="1046"/>
		</clipPath>
	</defs>
	<g clip-path="url(#clip0)" transform="translate(-2917 -346)">
		<rect x="2918" y="347" width="1760" height="1043" fill="#FFFFFF" />
		<g>
			<path d="
			M3228.5 974.532 4296.5 974.532
			M3228.5 910.53 4296.5 910.53
			M3228.5 846.528 4296.5 846.528
			M3228.5 781.526 4296.5 781.526
			M3228.5 717.524 4296.5 717.524
			M3228.5 653.522 4296.5 653.522
			M3228.5 589.52 4296.5 589.52
			M3228.5 525.517 4296.5 525.517
			M3228.5 461.515 4296.5 461.515
			M3228.5 397.5 4296.5 397.5" stroke="#D9D9D9" stroke-width="3.4375" stroke-linejoin="round" stroke-miterlimit="10" fill="none" />
		</g>
		<g>
			<path d="M 1038.5 4296.5 1038.5" stroke="#D9D9D9" stroke-width="3.4375" stroke-linejoin="round" stroke-miterlimit="10" fill="none" fill-rule="evenodd" />
		</g>
		<g>
			<text fill="#595959" font-family="Verdana,sans-serif" font-weight="400" font-size="41" transform="matrix(6.12323e-17 -1 1 6.12323e-17 3244 1207)">15-Jan</text>
		</g>
		<g>
			<text fill="#595959" font-family="Verdana,sans-serif" font-weight="400" font-size="41" transform="matrix(6.12323e-17 -1 1 6.12323e-17 3329.94 1214)">12-Feb</text>
		</g>
		<g>
			<text fill="#595959" font-family="Verdana,sans-serif" font-weight="400" font-size="41" transform="matrix(6.12323e-17 -1 1 6.12323e-17 3414.88 1221)">11-Mar</text>
		</g>
		<g>
			<text fill="#595959" font-family="Verdana,sans-serif" font-weight="400" font-size="41" transform="matrix(6.12323e-17 -1 1 6.12323e-17 3504.32 1217)">08-Apr</text>
		</g>
		<g>
			<text fill="#595959" font-family="Verdana,sans-serif" font-weight="400" font-size="41" transform="matrix(6.12323e-17 -1 1 6.12323e-17 3589.76 1228)">06-May</text>
		</g>
		<g>
			<text fill="#595959" font-family="Verdana,sans-serif" font-weight="400" font-size="41" transform="matrix(6.12323e-17 -1 1 6.12323e-17 3671.7 1211)">03-Jun</text>
		</g>
		<g>
			<text fill="#595959" font-family="Verdana,sans-serif" font-weight="400" font-size="41" transform="matrix(6.12323e-17 -1 1 6.12323e-17 3757.14 1197)">01-Jul</text>
		</g>
		<g>
			<text fill="#595959" font-family="Verdana,sans-serif" font-weight="400" font-size="41" transform="matrix(6.12323e-17 -1 1 6.12323e-17 3842.58 1196)">29-Jul</text>
		</g>
		<g>
			<text fill="#595959" font-family="Verdana,sans-serif" font-weight="400" font-size="41" transform="matrix(6.12323e-17 -1 1 6.12323e-17 3931.52 1221)">26-Aug</text>
		</g>
		<g>
			<text fill="#595959" font-family="Verdana,sans-serif" font-weight="400" font-size="41" transform="matrix(6.12323e-17 -1 1 6.12323e-17 4016.96 1221)">23-Sep</text>
		</g>
		<g>
			<text fill="#595959" font-family="Verdana,sans-serif" font-weight="400" font-size="41" transform="matrix(6.12323e-17 -1 1 6.12323e-17 4098.9 1215)">21-Oct</text>
		</g>
		<g>
			<text fill="#595959" font-family="Verdana,sans-serif" font-weight="400" font-size="41" transform="matrix(6.12323e-17 -1 1 6.12323e-17 4184.34 1222)">18-Nov</text>
		</g>
		<g>
			<text fill="#595959" font-family="Verdana,sans-serif" font-weight="400" font-size="41" transform="matrix(6.12323e-17 -1 1 6.12323e-17 4269.78 1222)">23-Dec</text>
		</g>
		<g>
			<text fill="#595959" font-family="Verdana,sans-serif" font-weight="400" font-size="41" transform="matrix(1 0 0 1 3123.5 1050)">0%</text>
		</g>
		<g>
			<text fill="#595959" font-family="Verdana,sans-serif" font-weight="400" font-size="41" transform="matrix(1 0 0 1 3097.5 922)">20%</text>
		</g>
		<g>
			<text fill="#595959" font-family="Verdana,sans-serif" font-weight="400" font-size="41" transform="matrix(1 0 0 1 3096.5 794)">40%</text>
		</g>
		<g>
			<text fill="#595959" font-family="Verdana,sans-serif" font-weight="400" font-size="41" transform="matrix(1 0 0 1 3097.5 666)">60%</text>
		</g>
		<g>
			<text fill="#595959" font-family="Verdana,sans-serif" font-weight="400" font-size="41" transform="matrix(1 0 0 1 3097.5 538)">80%</text>
		</g>
		<g>
			<text fill="#595959" font-family="Verdana,sans-serif" font-weight="400" font-size="41" transform="matrix(1 0 0 1 3074.5 410)">100%</text>
		</g>
		<g>
			<text fill="#595959" font-family="Verdana,sans-serif" font-weight="400" font-size="41" transform="matrix(1 0 0 1 3544.5 1321)">Week Commencing</text>
		</g>
		<g>
			<text fill="#595959" font-family="Verdana,sans-serif" font-weight="400" font-size="46" transform="matrix(6.12323e-17 -1 1 6.12323e-17 3019.73 965.25)">Requests (% of Total)</text>
		</g>
		<rect x="2918.5" y="347.5" width="1760" height="1043" stroke="#D9D9D9" stroke-width="3.4375" stroke-linejoin="round" stroke-miterlimit="10" fill="none" />
		<g>
			<path d="M3228.5 1038 3249.86 1038 3271.22 1038 3292.58 1038 3313.94 1038 3335.3 1038 3356.66 1038 3378.02 1038 3399.38 1038 3420.74 1038 3442.1 1038 3463.46 1038 3484.82 1038 3506.18 1038 3527.54 1038 3548.9 1038 3570.26 1038 3591.62 1038 3612.98 1038 3634.34 1038 3655.7 1038 3677.06 1038 3698.42 1038 3719.7799999999997 1038 3741.14 1038 3762.5 1038 3783.86 1038 3805.2200000000003 1038 3826.58 1038 3847.94 1038 3869.3 1038 3890.66 1038 3912.02 1038 3933.38 1038 3954.74 1038 3976.1 1038 3997.46 1038 4018.8199999999997 1038 4040.18 1038 4061.54 1038 4082.9 1038 4104.26 1038 4125.62 1038 4146.98 1038 4168.34 1038 4189.7 1038 4211.0599999999995 1038 4232.42 1038 4253.78 1038 4275.139999999999 1038 4296.5 1038 4296.5 533.8294455926118 4275.139999999999 533.7499584959044 4253.78 533.5577242345337 4232.42 533.3794235575219 4211.0599999999995 533.1839579715512 4189.7 532.7385960569093 4168.34 532.9945218339117 4146.98 533.5883597667535 4125.62 534.4892592748513 4104.26 535.2648007319358 4082.9 642.4592997578948 4061.54 641.7348258019537 4040.18 641.0274072878076 4018.8199999999997 640.0328656683237 3997.46 638.7439704461906 3976.1 637.5953366301156 3954.74 636.388984334016 3933.38 635.2830954215428 3912.02 634.2801376637599 3890.66 633.5123019251453 3869.3 632.703376074059 3847.94 631.9415100696045 3826.58 630.857109120077 3805.2200000000003 629.6835942752446 3783.86 628.7570391925642 3762.5 627.5176878063296 3741.14 626.3963136974012 3719.7799999999997 625.2428890685153 3698.42 624.0667377001988 3677.06 622.80172023452 3655.7 632.4054355541638 3634.34 630.9533026623258 3612.98 630.0731822124889 3591.62 629.6411395703622 3570.26 629.3637077507597 3548.9 629.112232069277 3527.54 628.7712194186788 3506.18 629.1405060461395 3484.82 630.4544284738802 3463.46 631.6183228637996 3442.1 647.4118241208081 3420.74 648.3895796632379 3399.38 621.5001438018157 3378.02 620.7479883324611 3356.66 618.9772962489769 3335.3 616.6754829613407 3313.94 614.5117939817052 3292.58 615.2796120230914 3271.22 615.9275087100596 3249.86 616.3813797093885 3228.5 616.3755182018299 3228.5 1038Z" fill="#e62d39" opacity="0.9" />
		</g>
		<g>
			<path d="M3228.5 616.3755182018299 3249.86 616.3813797093885 3271.22 615.9275087100596 3292.58 615.2796120230914 3313.94 614.5117939817052 3335.3 616.6754829613407 3356.66 618.9772962489769 3378.02 620.7479883324611 3399.38 621.5001438018157 3420.74 648.3895796632379 3442.1 647.4118241208081 3463.46 631.6183228637996 3484.82 630.4544284738802 3506.18 629.1405060461395 3527.54 628.7712194186788 3548.9 629.112232069277 3570.26 629.3637077507597 3591.62 629.6411395703622 3612.98 630.0731822124889 3634.34 630.9533026623258 3655.7 632.4054355541638 3677.06 622.80172023452 3698.42 624.0667377001988 3719.7799999999997 625.2428890685153 3741.14 626.3963136974012 3762.5 627.5176878063296 3783.86 628.7570391925642 3805.2200000000003 629.6835942752446 3826.58 630.857109120077 3847.94 631.9415100696045 3869.3 632.703376074059 3890.66 633.5123019251453 3912.02 634.2801376637599 3933.38 635.2830954215428 3954.74 636.388984334016 3976.1 637.5953366301156 3997.46 638.7439704461906 4018.8199999999997 640.0328656683237 4040.18 641.0274072878076 4061.54 641.7348258019537 4082.9 642.4592997578948 4104.26 535.2648007319358 4125.62 534.4892592748513 4146.98 533.5883597667535 4168.34 532.9945218339117 4189.7 532.7385960569093 4211.0599999999995 533.1839579715512 4232.42 533.3794235575219 4253.78 533.5577242345337 4275.139999999999 533.7499584959044 4296.5 533.8294455926118 4296.5 447.68514400974766 4275.139999999999 447.6730658977694 4253.78 447.6266609249292 4232.42 447.6323779302626 4211.0599999999995 447.6574339250563 4189.7 447.5983732210459 4168.34 447.82372841614773 4146.98 448.23400972704667 4125.62 448.85972838125235 4104.26 449.3446349967366 4082.9 564.013087594675 4061.54 563.0569322713101 4040.18 562.1201699126104 4018.8199999999997 560.9592369816268 3997.46 559.5178863272408 3976.1 558.0421991553968 3954.74 556.6183211021491 3933.38 555.218566955861 3912.02 553.8747604661306 3890.66 552.795294537007 3869.3 551.5476668303065 3847.94 550.4510715595417 3826.58 549.056064697407 3805.2200000000003 547.7069248917836 3783.86 546.4892681197156 3762.5 545.0068552240035 3741.14 543.5872074138473 3719.7799999999997 542.2071477253921 3698.42 540.7523658360859 3677.06 539.1846046453284 3655.7 550.69398337688 3634.34 549.0305649530324 3612.98 547.8419869340069 3591.62 547.2972215888882 3570.26 546.9206806705122 3548.9 546.5765460991323 3527.54 546.1401156456737 3506.18 546.162084159149 3484.82 547.0193242259644 3463.46 547.5943073684911 3442.1 565.6397555577983 3420.74 566.0005705781988 3399.38 541.8846686674905 3378.02 541.0539314470215 3356.66 539.8778029714027 3335.3 538.0311425357806 3313.94 536.4270145966814 3292.58 536.7106293649022 3271.22 536.9764016245806 3249.86 535.7941999215749 3228.5 535.7525782888524 3228.5 616.3755182018299Z" fill="#005aa6" opacity="0.9" />
		</g>
		<g>
			<path d="M3228.5 535.7525782888524 3249.86 535.7941999215749 3271.22 536.9764016245806 3292.58 536.7106293649022 3313.94 536.4270145966814 3335.3 538.0311425357806 3356.66 539.8778029714027 3378.02 541.0539314470215 3399.38 541.8846686674905 3420.74 566.0005705781988 3442.1 565.6397555577983 3463.46 547.5943073684911 3484.82 547.0193242259644 3506.18 546.162084159149 3527.54 546.1401156456737 3548.9 546.5765460991323 3570.26 546.9206806705122 3591.62 547.2972215888882 3612.98 547.8419869340069 3634.34 549.0305649530324 3655.7 550.69398337688 3677.06 539.1846046453284 3698.42 540.7523658360859 3719.7799999999997 542.2071477253921 3741.14 543.5872074138473 3762.5 545.0068552240035 3783.86 546.4892681197156 3805.2200000000003 547.7069248917836 3826.58 549.056064697407 3847.94 550.4510715595417 3869.3 551.5476668303065 3890.66 552.795294537007 3912.02 553.8747604661306 3933.38 555.218566955861 3954.74 556.6183211021491 3976.1 558.0421991553968 3997.46 559.5178863272408 4018.8199999999997 560.9592369816268 4040.18 562.1201699126104 4061.54 563.0569322713101 4082.9 564.013087594675 4104.26 449.3446349967366 4125.62 448.85972838125235 4146.98 448.23400972704667 4168.34 447.82372841614773 4189.7 447.5983732210459 4211.0599999999995 447.6574339250563 4232.42 447.6323779302626 4253.78 447.6266609249292 4275.139999999999 447.6730658977694 4296.5 447.68514400974766 4296.5 431.82063600213297 4275.139999999999 431.76369970238 4253.78 431.68626210177996 4232.42 431.67134423047906 4211.0599999999995 431.6887608988929 4189.7 431.6220241661082 4168.34 431.7924327084516 4146.98 432.092774949435 4125.62 432.564435879568 4104.26 432.93399339288885 4082.9 546.9204030305292 4061.54 545.8568257864155 4040.18 544.8127323902722 4018.8199999999997 543.5363255639253 3997.46 542.0463398264963 3976.1 540.5961957254219 3954.74 539.2169576549396 3933.38 537.8936109153274 3912.02 536.6331257948437 3890.66 535.6050819142866 3869.3 534.4058125382159 3847.94 533.3775916629115 3826.58 532.061247110232 3805.2200000000003 530.7890611300827 3783.86 529.6247258602689 3762.5 528.2034545359014 3741.14 526.8299613862657 3719.7799999999997 525.5140844807112 3698.42 524.1266360168544 3677.06 522.6428542520058 3655.7 534.6437405127542 3634.34 533.0478701102087 3612.98 531.9338589484795 3591.62 531.4787032380433 3570.26 531.1766187579238 3548.9 530.9100261254564 3527.54 530.5404840095295 3506.18 530.58488870514 3484.82 531.423449427529 3463.46 532.0036270173528 3442.1 550.6185632838572 3420.74 550.9973506063038 3399.38 523.985581790262 3378.02 523.2197260372825 3356.66 522.1879742092055 3335.3 520.4624437216655 3313.94 519.0177593325039 3292.58 519.3141390110583 3271.22 519.5817667363715 3249.86 518.337964978853 3228.5 518.3026008093879 3228.5 535.7525782888524Z" fill="#55c0e9" opacity="0.9" />
		</g>
		<g>
			<path d="M3228.5 518.3026008093879 3249.86 518.337964978853 3271.22 519.5817667363715 3292.58 519.3141390110583 3313.94 519.0177593325039 3335.3 520.4624437216655 3356.66 522.1879742092055 3378.02 523.2197260372825 3399.38 523.985581790262 3420.74 550.9973506063038 3442.1 550.6185632838572 3463.46 532.0036270173528 3484.82 531.423449427529 3506.18 530.58488870514 3527.54 530.5404840095295 3548.9 530.9100261254564 3570.26 531.1766187579238 3591.62 531.4787032380433 3612.98 531.9338589484795 3634.34 533.0478701102087 3655.7 534.6437405127542 3677.06 522.6428542520058 3698.42 524.1266360168544 3719.7799999999997 525.5140844807112 3741.14 526.8299613862657 3762.5 528.2034545359014 3783.86 529.6247258602689 3805.2200000000003 530.7890611300827 3826.58 532.061247110232 3847.94 533.3775916629115 3869.3 534.4058125382159 3890.66 535.6050819142866 3912.02 536.6331257948437 3933.38 537.8936109153274 3954.74 539.2169576549396 3976.1 540.5961957254219 3997.46 542.0463398264963 4018.8199999999997 543.5363255639253 4040.18 544.8127323902722 4061.54 545.8568257864155 4082.9 546.9204030305292 4104.26 432.93399339288885 4125.62 432.564435879568 4146.98 432.092774949435 4168.34 431.7924327084516 4189.7 431.6220241661082 4211.0599999999995 431.6887608988929 4232.42 431.67134423047906 4253.78 431.68626210177996 4275.139999999999 431.76369970238 4296.5 431.82063600213297 4296.5 416.0954395000898 4275.139999999999 416.0465069983401 4253.78 416.000160121671 4232.42 416.0062420628137 4211.0599999999995 416.05161909433286 4189.7 415.99893833884835 4168.34 416.12431960001913 4146.98 416.33420162951643 4125.62 416.71311285195446 4104.26 416.98069451994184 4082.9 523.7363657522843 4061.54 522.5716439040438 4040.18 521.4074163425901 4018.8199999999997 520.0402408469882 3997.46 518.4759534407176 3976.1 516.9133817380589 3954.74 515.447116697529 3933.38 514.0614365046936 3912.02 512.7024056997157 3890.66 511.58002059591473 3869.3 510.82918253556556 3847.94 509.71795680152235 3826.58 508.31754966595287 3805.2200000000003 507.0170454704228 3783.86 505.8121835322706 3762.5 504.3173344906432 3741.14 502.8338970689489 3719.7799999999997 501.44265119377064 3698.42 499.9738776632273 3677.06 498.4242329984132 3655.7 510.9936557335024 3634.34 509.31973026750785 3612.98 508.0481610967102 3591.62 507.4613080044525 3570.26 507.0233752398185 3548.9 506.6082216132898 3527.54 506.1065487459215 3506.18 505.9043627233751 3484.82 506.42166436103486 3463.46 506.6484163233015 3442.1 525.7580510881946 3420.74 525.7315703546496 3399.38 502.94320923041516 3378.02 502.10703895644696 3356.66 501.18268987180403 3335.3 499.566157981451 3313.94 498.2407663238116 3292.58 498.3417945570345 3271.22 498.4409678079612 3249.86 496.76880797782667 3228.5 496.7252878979314 3228.5 518.3026008093879Z" fill="#f6a118" opacity="0.9" />
		</g>
		<g>
			<path d="M3228.5 496.7252878979314 3249.86 496.76880797782667 3271.22 498.4409678079612 3292.58 498.3417945570345 3313.94 498.2407663238116 3335.3 499.566157981451 3356.66 501.18268987180403 3378.02 502.10703895644696 3399.38 502.94320923041516 3420.74 525.7315703546496 3442.1 525.7580510881946 3463.46 506.6484163233015 3484.82 506.42166436103486 3506.18 505.9043627233751 3527.54 506.1065487459215 3548.9 506.6082216132898 3570.26 507.0233752398185 3591.62 507.4613080044525 3612.98 508.0481610967102 3634.34 509.31973026750785 3655.7 510.9936557335024 3677.06 498.4242329984132 3698.42 499.9738776632273 3719.7799999999997 501.44265119377064 3741.14 502.8338970689489 3762.5 504.3173344906432 3783.86 505.8121835322706 3805.2200000000003 507.0170454704228 3826.58 508.31754966595287 3847.94 509.71795680152235 3869.3 510.82918253556556 3890.66 511.58002059591473 3912.02 512.7024056997157 3933.38 514.0614365046936 3954.74 515.447116697529 3976.1 516.9133817380589 3997.46 518.4759534407176 4018.8199999999997 520.0402408469882 4040.18 521.4074163425901 4061.54 522.5716439040438 4082.9 523.7363657522843 4104.26 416.98069451994184 4125.62 416.71311285195446 4146.98 416.33420162951643 4168.34 416.12431960001913 4189.7 415.99893833884835 4211.0599999999995 416.05161909433286 4232.42 416.0062420628137 4253.78 416.000160121671 4275.139999999999 416.0465069983401 4296.5 416.0954395000898 4296.5 406.6900606081659 4275.139999999999 406.67423043388266 4253.78 406.6442240275461 4232.42 406.6769627823681 4211.0599999999995 406.7486576922467 4189.7 406.88204596503937 4168.34 407.2984950463532 4146.98 407.42058087187377 4125.62 407.6496849699309 4104.26 407.85452807822685 4082.9 510.457001187623 4061.54 509.25430348013276 4040.18 508.03326088042445 4018.8199999999997 506.6178498444704 3997.46 505.0214210075742 3976.1 503.4488995208447 3954.74 501.99414638500895 3933.38 500.6747796739521 3912.02 499.3250304832202 3890.66 498.19946183512485 3869.3 497.43345523107604 3847.94 496.3492558964332 3826.58 495.0253467220933 3805.2200000000003 493.79057177104784 3783.86 492.5921558346355 3762.5 491.08339968159805 3741.14 489.589994805443 3719.7799999999997 488.20591127750595 3698.42 486.7582313224488 3677.06 485.3927174126073 3655.7 498.4720025363812 3634.34 497.0382614705633 3612.98 495.82345643600064 3591.62 495.2019189929631 3570.26 494.71994133496287 3548.9 494.2530601968761 3527.54 493.7747398235285 3506.18 493.46369672124194 3484.82 493.78141054210573 3463.46 493.8307143677906 3442.1 513.2062038257327 3420.74 513.0191600354992 3399.38 492.37221825805364 3378.02 491.908543258485 3356.66 491.3515350353937 3335.3 490.22585688768186 3313.94 489.18947576032576 3292.58 489.2233361986403 3271.22 489.223179567103 3249.86 489.5946366866653 3228.5 489.6274021960388 3228.5 496.7252878979314Z" fill="#fdd5a4" opacity="0.9" />
		</g>
		<g>
			<path d="M3228.5 489.6274021960388 3249.86 489.5946366866653 3271.22 489.223179567103 3292.58 489.2233361986403 3313.94 489.18947576032576 3335.3 490.22585688768186 3356.66 491.3515350353937 3378.02 491.908543258485 3399.38 492.37221825805364 3420.74 513.0191600354992 3442.1 513.2062038257327 3463.46 493.8307143677906 3484.82 493.78141054210573 3506.18 493.46369672124194 3527.54 493.7747398235285 3548.9 494.2530601968761 3570.26 494.71994133496287 3591.62 495.2019189929631 3612.98 495.82345643600064 3634.34 497.0382614705633 3655.7 498.4720025363812 3677.06 485.3927174126073 3698.42 486.7582313224488 3719.7799999999997 488.20591127750595 3741.14 489.589994805443 3762.5 491.08339968159805 3783.86 492.5921558346355 3805.2200000000003 493.79057177104784 3826.58 495.0253467220933 3847.94 496.3492558964332 3869.3 497.43345523107604 3890.66 498.19946183512485 3912.02 499.3250304832202 3933.38 500.6747796739521 3954.74 501.99414638500895 3976.1 503.4488995208447 3997.46 505.0214210075742 4018.8199999999997 506.6178498444704 4040.18 508.03326088042445 4061.54 509.25430348013276 4082.9 510.457001187623 4104.26 407.85452807822685 4125.62 407.6496849699309 4146.98 407.42058087187377 4168.34 407.2984950463532 4189.7 406.88204596503937 4211.0599999999995 406.7486576922467 4232.42 406.6769627823681 4253.78 406.6442240275461 4275.139999999999 406.67423043388266 4296.5 406.6900606081659 4296.5 398 4275.139999999999 398.0000000000001 4253.78 398.00000000000006 4232.42 398 4211.0599999999995 397.9999999999999 4189.7 398 4168.34 397.99999999999994 4146.98 398.0000000000001 4125.62 397.99999999999994 4104.26 398.00000000000006 4082.9 398 4061.54 397.9999999999999 4040.18 398 4018.8199999999997 397.99999999999983 3997.46 398.0000000000001 3976.1 397.99999999999994 3954.74 397.9999999999999 3933.38 398.0000000000001 3912.02 398 3890.66 397.99999999999983 3869.3 397.99999999999994 3847.94 398.0000000000001 3826.58 398.0000000000001 3805.2200000000003 398.00000000000006 3783.86 398 3762.5 398.0000000000001 3741.14 397.9999999999999 3719.7799999999997 397.99999999999983 3698.42 398 3677.06 398 3655.7 398.00000000000006 3634.34 398 3612.98 398.0000000000001 3591.62 397.99999999999994 3570.26 398 3548.9 397.99999999999994 3527.54 397.99999999999994 3506.18 398 3484.82 398 3463.46 398.0000000000001 3442.1 398.0000000000001 3420.74 398.0000000000001 3399.38 397.9999999999999 3378.02 398 3356.66 398 3335.3 398.00000000000006 3313.94 398 3292.58 398.0000000000001 3271.22 397.99999999999994 3249.86 398.00000000000006 3228.5 397.9999999999999 3228.5 489.6274021960388Z" fill="#393d41" opacity="0.9" />
		</g>
		<g>
			<rect x="4372" y="431" width="22.9995" height="23" fill="#e62d39" />
		</g>
		<g>
			<text fill="#595959" font-family="Verdana,sans-serif" font-weight="400" font-size="41" transform="matrix(1 0 0 1 4404.56 454)">Smartphone</text>
		</g>
		<g>
			<rect x="4372" y="508" width="22.9995" height="23" fill="#005aa6" />
		</g>
		<g>
			<text fill="#595959" font-family="Verdana,sans-serif" font-weight="400" font-size="41" transform="matrix(1 0 0 1 4404.56 531)">Desktop</text>
		</g>
		<g>
			<rect x="4372" y="585" width="22.9995" height="23" fill="#55c0e9" />
		</g>
		<g>
			<text fill="#595959" font-family="Verdana,sans-serif" font-weight="400" font-size="41" transform="matrix(1 0 0 1 4404.56 608)">Tablet</text>
		</g>
		<g>
			<rect x="4372" y="662" width="22.9995" height="23" fill="#f6a118" />
		</g>
		<g>
			<text fill="#595959" font-family="Verdana,sans-serif" font-weight="400" font-size="41" transform="matrix(1 0 0 1 4404.56 685)">Other</text>
		</g>
		<g>
			<rect x="4372" y="739" width="22.9995" height="23" fill="#fdd5a4" />
		</g>
		<g>
			<text fill="#595959" font-family="Verdana,sans-serif" font-weight="400" font-size="41" transform="matrix(1 0 0 1 4404.56 762)">Tv</text>
		</g>
		<g>
			<rect x="4372" y="816" width="22.9995" height="23" fill="#393d41" />
		</g>
		<g>
			<text fill="#595959" font-family="Verdana,sans-serif" font-weight="400" font-size="41" transform="matrix(1 0 0 1 4404.56 839)">Unclassified</text>
		</g>
	</g>
</svg>
