<svg width="1763" height="1046"
    xmlns="http://www.w3.org/2000/svg"
	xmlns:xlink="http://www.w3.org/1999/xlink" xml:space="preserve" overflow="hidden">
	<defs>
		<clipPath id="clip0">
			<rect x="2917" y="346" width="1763" height="1046"/>
		</clipPath>
	</defs>
	<g clip-path="url(#clip0)" transform="translate(-2917 -346)">
		<rect x="2918" y="347" width="1760" height="1043" fill="#FFFFFF" />
		<g>
			<path d="
			M3228.5 974.532 4296.5 974.532
			M3228.5 910.53 4296.5 910.53
			M3228.5 846.528 4296.5 846.528
			M3228.5 781.526 4296.5 781.526
			M3228.5 717.524 4296.5 717.524
			M3228.5 653.522 4296.5 653.522
			M3228.5 589.52 4296.5 589.52
			M3228.5 525.517 4296.5 525.517
			M3228.5 461.515 4296.5 461.515
			M3228.5 397.5 4296.5 397.5" stroke="#D9D9D9" stroke-width="3.4375" stroke-linejoin="round" stroke-miterlimit="10" fill="none" />
		</g>
		<g>
			<path d="M 1038.5 4296.5 1038.5" stroke="#D9D9D9" stroke-width="3.4375" stroke-linejoin="round" stroke-miterlimit="10" fill="none" fill-rule="evenodd" />
		</g>
		<g>
			<text fill="#595959" font-family="Verdana,Open Sans,DejaVu Sans,sans-serif" font-weight="400" font-size="41" transform="matrix(6.12323e-17 -1 1 6.12323e-17 3244.275390625 1203.08203125)">24-Feb</text>
		</g>
		<g>
			<text fill="#595959" font-family="Verdana,Open Sans,DejaVu Sans,sans-serif" font-weight="400" font-size="41" transform="matrix(6.12323e-17 -1 1 6.12323e-17 3328.984677734375 1212.05078125)">24-Mar</text>
		</g>
		<g>
			<text fill="#595959" font-family="Verdana,Open Sans,DejaVu Sans,sans-serif" font-weight="400" font-size="41" transform="matrix(6.12323e-17 -1 1 6.12323e-17 3419.149287109375 1203.3022384643555)">21-Apr</text>
		</g>
		<g>
			<text fill="#595959" font-family="Verdana,Open Sans,DejaVu Sans,sans-serif" font-weight="400" font-size="41" transform="matrix(6.12323e-17 -1 1 6.12323e-17 3504.589287109375 1214.75341796875)">19-May</text>
		</g>
		<g>
			<text fill="#595959" font-family="Verdana,Open Sans,DejaVu Sans,sans-serif" font-weight="400" font-size="41" transform="matrix(6.12323e-17 -1 1 6.12323e-17 3588.9582421875 1194.0532150268555)">23-Jun</text>
		</g>
		<g>
			<text fill="#595959" font-family="Verdana,Open Sans,DejaVu Sans,sans-serif" font-weight="400" font-size="41" transform="matrix(6.12323e-17 -1 1 6.12323e-17 3675.128955078125 1179.0385665893555)">21-Jul</text>
		</g>
		<g>
			<text fill="#595959" font-family="Verdana,Open Sans,DejaVu Sans,sans-serif" font-weight="400" font-size="41" transform="matrix(6.12323e-17 -1 1 6.12323e-17 3760.909287109375 1206.90576171875)">18-Aug</text>
		</g>
		<g>
			<text fill="#595959" font-family="Verdana,Open Sans,DejaVu Sans,sans-serif" font-weight="400" font-size="41" transform="matrix(6.12323e-17 -1 1 6.12323e-17 3846.349287109375 1202.66162109375)">15-Sep</text>
		</g>
		<g>
			<text fill="#595959" font-family="Verdana,Open Sans,DejaVu Sans,sans-serif" font-weight="400" font-size="41" transform="matrix(6.12323e-17 -1 1 6.12323e-17 3927.084697265625 1199.3784103393555)">13-Oct</text>
		</g>
		<g>
			<text fill="#595959" font-family="Verdana,Open Sans,DejaVu Sans,sans-serif" font-weight="400" font-size="41" transform="matrix(6.12323e-17 -1 1 6.12323e-17 4012.524697265625 1209.70849609375)">10-Nov</text>
		</g>
		<g>
			<text fill="#595959" font-family="Verdana,Open Sans,DejaVu Sans,sans-serif" font-weight="400" font-size="41" transform="matrix(6.12323e-17 -1 1 6.12323e-17 4097.964697265625 1207.0859375)">08-Dec</text>
		</g>
		<g>
			<text fill="#595959" font-family="Verdana,Open Sans,DejaVu Sans,sans-serif" font-weight="400" font-size="41" transform="matrix(6.12323e-17 -1 1 6.12323e-17 4187.05826171875 1191.6508712768555)">05-Jan</text>
		</g>
		<g>
			<text fill="#595959" font-family="Verdana,Open Sans,DejaVu Sans,sans-serif" font-weight="400" font-size="41" transform="matrix(6.12323e-17 -1 1 6.12323e-17 4269.555390625 1203.0419921875)">02-Feb</text>
		</g>
		<g>
			<text fill="#595959" font-family="Verdana,Open Sans,DejaVu Sans,sans-serif" font-weight="400" font-size="41" transform="matrix(1 0 0 1 3169.14111328125 1050)">0</text>
		</g>
		<g>
			<text fill="#595959" font-family="Verdana,Open Sans,DejaVu Sans,sans-serif" font-weight="400" font-size="41" transform="matrix(1 0 0 1 3067.3618240356445 922)">18,625</text>
		</g>
		<g>
			<text fill="#595959" font-family="Verdana,Open Sans,DejaVu Sans,sans-serif" font-weight="400" font-size="41" transform="matrix(1 0 0 1 3065.1596755981445 794)">37,250</text>
		</g>
		<g>
			<text fill="#595959" font-family="Verdana,Open Sans,DejaVu Sans,sans-serif" font-weight="400" font-size="41" transform="matrix(1 0 0 1 3066.2607498168945 666)">55,875</text>
		</g>
		<g>
			<text fill="#595959" font-family="Verdana,Open Sans,DejaVu Sans,sans-serif" font-weight="400" font-size="41" transform="matrix(1 0 0 1 3065.1596755981445 538)">74,500</text>
		</g>
		<g>
			<text fill="#595959" font-family="Verdana,Open Sans,DejaVu Sans,sans-serif" font-weight="400" font-size="41" transform="matrix(1 0 0 1 3065.7202224731445 410)">93,125</text>
		</g>
		<g>
			<text fill="#595959" font-family="Verdana,Open Sans,DejaVu Sans,sans-serif" font-weight="400" font-size="41" transform="matrix(1 0 0 1 3556.97119140625 1321)">Week Commencing</text>
		</g>
		<g>
			<text fill="#595959" font-family="Verdana,Open Sans,DejaVu Sans,sans-serif" font-weight="400" font-size="46" transform="matrix(6.12323e-17 -1 1 6.12323e-17 3019.73 1028.5532531738281)">Number of Hardware Profiles</text>
		</g>
		<rect x="2918.5" y="347.5" width="1760" height="1043" stroke="#D9D9D9" stroke-width="3.4375" stroke-linejoin="round" stroke-miterlimit="10" fill="none" />
		<g>
			<path d="M3228.5 1038 3249.86 1038 3271.22 1038 3292.58 1038 3313.94 1038 3335.3 1038 3356.66 1038 3378.02 1038 3399.38 1038 3420.74 1038 3442.1 1038 3463.46 1038 3484.82 1038 3506.18 1038 3527.54 1038 3548.9 1038 3570.26 1038 3591.62 1038 3612.98 1038 3634.34 1038 3655.7 1038 3677.06 1038 3698.42 1038 3719.7799999999997 1038 3741.14 1038 3762.5 1038 3783.86 1038 3805.2200000000003 1038 3826.58 1038 3847.94 1038 3869.3 1038 3890.66 1038 3912.02 1038 3933.38 1038 3954.74 1038 3976.1 1038 3997.46 1038 4018.8199999999997 1038 4040.18 1038 4061.54 1038 4082.9 1038 4104.26 1038 4125.62 1038 4146.98 1038 4168.34 1038 4189.7 1038 4211.0599999999995 1038 4232.42 1038 4253.78 1038 4275.139999999999 1038 4296.5 1038 4296.5 692.8157852348993 4275.139999999999 692.9669798657718 4253.78 693.2212617449665 4232.42 693.4480536912752 4211.0599999999995 693.8397852348993 4189.7 694.1009395973153 4168.34 694.4102013422819 4146.98 694.513288590604 4125.62 694.6369932885906 4104.26 694.8569127516778 4082.9 695.118067114094 4061.54 695.3242416107382 4040.18 695.5304161073825 4018.8199999999997 695.7297181208053 3997.46 695.9084026845637 3976.1 696.0870872483222 3954.74 696.3482416107382 3933.38 696.6437583892617 3912.02 696.877422818792 3890.66 697.1317046979866 3869.3 697.468456375839 3847.94 697.873932885906 3826.58 698.2313020134228 3805.2200000000003 698.5474362416107 3783.86 698.8566979865772 3762.5 699.056 3741.14 699.3790067114094 3719.7799999999997 699.647033557047 3698.42 699.9631677852349 3677.06 700.3548993288591 3655.7 700.6435436241611 3634.34 700.9115704697986 3612.98 701.2414496644295 3591.62 701.5575838926175 3570.26 701.8462281879195 3548.9 702.2104697986576 3527.54 702.6571812080537 3506.18 703.2001073825503 3484.82 703.5643489932886 3463.46 703.8873557046979 3442.1 704.2653422818792 3420.74 704.6295838926175 3399.38 704.9319731543624 3378.02 705.2824697986578 3356.66 705.6260939597315 3335.3 705.921610738255 3313.94 706.2446174496645 3292.58 706.6226040268457 3271.22 706.959355704698 3249.86 707.3098523489932 3228.5 707.5984966442952 3228.5 1038Z" fill="#e62d39" opacity="0.9" />
		</g>
		<g>
			<path d="M3228.5 707.5984966442952 3249.86 707.3098523489932 3271.22 706.959355704698 3292.58 706.6226040268457 3313.94 706.2446174496645 3335.3 705.921610738255 3356.66 705.6260939597315 3378.02 705.2824697986578 3399.38 704.9319731543624 3420.74 704.6295838926175 3442.1 704.2653422818792 3463.46 703.8873557046979 3484.82 703.5643489932886 3506.18 703.2001073825503 3527.54 702.6571812080537 3548.9 702.2104697986576 3570.26 701.8462281879195 3591.62 701.5575838926175 3612.98 701.2414496644295 3634.34 700.9115704697986 3655.7 700.6435436241611 3677.06 700.3548993288591 3698.42 699.9631677852349 3719.7799999999997 699.647033557047 3741.14 699.3790067114094 3762.5 699.056 3783.86 698.8566979865772 3805.2200000000003 698.5474362416107 3826.58 698.2313020134228 3847.94 697.873932885906 3869.3 697.468456375839 3890.66 697.1317046979866 3912.02 696.877422818792 3933.38 696.6437583892617 3954.74 696.3482416107382 3976.1 696.0870872483222 3997.46 695.9084026845637 4018.8199999999997 695.7297181208053 4040.18 695.5304161073825 4061.54 695.3242416107382 4082.9 695.118067114094 4104.26 694.8569127516778 4125.62 694.6369932885906 4146.98 694.513288590604 4168.34 694.4102013422819 4189.7 694.1009395973153 4211.0599999999995 693.8397852348993 4232.42 693.4480536912752 4253.78 693.2212617449665 4275.139999999999 692.9669798657718 4296.5 692.8157852348993 4296.5 527.9380402684563 4275.139999999999 528.1304697986577 4253.78 528.4466040268456 4232.42 528.7489932885906 4211.0599999999995 529.2850469798657 4189.7 529.6149261744965 4168.34 530.0685100671141 4146.98 530.2471946308725 4125.62 530.3915167785235 4104.26 530.6870335570469 4082.9 531.0581476510067 4061.54 531.3399194630872 4040.18 531.6285637583892 4018.8199999999997 531.8965906040268 3997.46 532.1852348993289 3976.1 532.4876241610739 3954.74 532.8999731543624 3933.38 533.3329395973154 3912.02 533.745288590604 3890.66 534.1507651006712 3869.3 534.6593288590605 3847.94 535.1885100671141 3826.58 535.648966442953 3805.2200000000003 536.095677852349 3783.86 536.5080268456376 3762.5 536.7348187919463 3741.14 537.119677852349 3719.7799999999997 537.5388993288591 3698.42 538.0337181208054 3677.06 538.5972617449665 3655.7 539.0164832214765 3634.34 539.5250469798657 3612.98 539.9923758389261 3591.62 540.4871946308725 3570.26 540.9820134228188 3548.9 541.5180671140938 3527.54 542.1022281879194 3506.18 542.9750335570469 3484.82 543.4698523489933 3463.46 543.8959463087248 3442.1 544.3495302013423 3420.74 544.8306040268457 3399.38 545.2223355704698 3378.02 545.758389261745 3356.66 546.2532080536912 3335.3 546.7136644295301 3313.94 547.215355704698 3292.58 547.7101744966444 3271.22 548.1500134228188 3249.86 548.5967248322147 3228.5 548.9815838926173 3228.5 707.5984966442952Z" fill="#f6a118" opacity="0.9" />
		</g>
		<g>
			<path d="M3228.5 548.9815838926173 3249.86 548.5967248322147 3271.22 548.1500134228188 3292.58 547.7101744966444 3313.94 547.215355704698 3335.3 546.7136644295301 3356.66 546.2532080536912 3378.02 545.758389261745 3399.38 545.2223355704698 3420.74 544.8306040268457 3442.1 544.3495302013423 3463.46 543.8959463087248 3484.82 543.4698523489933 3506.18 542.9750335570469 3527.54 542.1022281879194 3548.9 541.5180671140938 3570.26 540.9820134228188 3591.62 540.4871946308725 3612.98 539.9923758389261 3634.34 539.5250469798657 3655.7 539.0164832214765 3677.06 538.5972617449665 3698.42 538.0337181208054 3719.7799999999997 537.5388993288591 3741.14 537.119677852349 3762.5 536.7348187919463 3783.86 536.5080268456376 3805.2200000000003 536.095677852349 3826.58 535.648966442953 3847.94 535.1885100671141 3869.3 534.6593288590605 3890.66 534.1507651006712 3912.02 533.745288590604 3933.38 533.3329395973154 3954.74 532.8999731543624 3976.1 532.4876241610739 3997.46 532.1852348993289 4018.8199999999997 531.8965906040268 4040.18 531.6285637583892 4061.54 531.3399194630872 4082.9 531.0581476510067 4104.26 530.6870335570469 4125.62 530.3915167785235 4146.98 530.2471946308725 4168.34 530.0685100671141 4189.7 529.6149261744965 4211.0599999999995 529.2850469798657 4232.42 528.7489932885906 4253.78 528.4466040268456 4275.139999999999 528.1304697986577 4296.5 527.9380402684563 4296.5 453.1104429530201 4275.139999999999 453.3166174496644 4253.78 453.63275167785235 4232.42 453.9557583892617 4211.0599999999995 454.5261744966442 4189.7 454.8629261744965 4168.34 455.330255033557 4146.98 455.51581208053693 4125.62 455.6601342281879 4104.26 455.9968859060402 4082.9 456.4161073825503 4061.54 456.7528590604026 4040.18 457.06212080536903 4018.8199999999997 457.3370201342281 3997.46 457.6600268456376 3976.1 458.01052348993295 3954.74 458.52595973154365 3933.38 459.00703355704695 3912.02 459.4674899328859 3890.66 459.92107382550336 3869.3 460.54646979865777 3847.94 461.11688590604024 3826.58 461.60483221476505 3805.2200000000003 462.09277852349 3783.86 462.51887248322146 3762.5 462.7731543624161 3741.14 463.2129932885906 3719.7799999999997 463.7146845637584 3698.42 464.2369932885906 3677.06 464.8211543624162 3655.7 465.2541208053691 3634.34 465.7970469798657 3612.98 466.305610738255 3591.62 466.81417449664434 3570.26 467.3639731543624 3548.9 467.9343892617448 3527.54 468.5529127516778 3506.18 469.521932885906 3484.82 470.0717315436242 3463.46 470.55280536912744 3442.1 471.0270067114094 3420.74 471.57680536912756 3399.38 471.9960268456376 3378.02 472.55269798657724 3356.66 473.1093691275167 3335.3 473.59044295302004 3313.94 474.0990067114094 3292.58 474.6144429530202 3271.22 475.088644295302 3249.86 475.55597315436233 3228.5 475.9958120805368 3228.5 548.9815838926173Z" fill="#55c0e9" opacity="0.9" />
		</g>
		<g>
			<path d="M3228.5 475.9958120805368 3249.86 475.55597315436233 3271.22 475.088644295302 3292.58 474.6144429530202 3313.94 474.0990067114094 3335.3 473.59044295302004 3356.66 473.1093691275167 3378.02 472.55269798657724 3399.38 471.9960268456376 3420.74 471.57680536912756 3442.1 471.0270067114094 3463.46 470.55280536912744 3484.82 470.0717315436242 3506.18 469.521932885906 3527.54 468.5529127516778 3548.9 467.9343892617448 3570.26 467.3639731543624 3591.62 466.81417449664434 3612.98 466.305610738255 3634.34 465.7970469798657 3655.7 465.2541208053691 3677.06 464.8211543624162 3698.42 464.2369932885906 3719.7799999999997 463.7146845637584 3741.14 463.2129932885906 3762.5 462.7731543624161 3783.86 462.51887248322146 3805.2200000000003 462.09277852349 3826.58 461.60483221476505 3847.94 461.11688590604024 3869.3 460.54646979865777 3890.66 459.92107382550336 3912.02 459.4674899328859 3933.38 459.00703355704695 3954.74 458.52595973154365 3976.1 458.01052348993295 3997.46 457.6600268456376 4018.8199999999997 457.3370201342281 4040.18 457.06212080536903 4061.54 456.7528590604026 4082.9 456.4161073825503 4104.26 455.9968859060402 4125.62 455.6601342281879 4146.98 455.51581208053693 4168.34 455.330255033557 4189.7 454.8629261744965 4211.0599999999995 454.5261744966442 4232.42 453.9557583892617 4253.78 453.63275167785235 4275.139999999999 453.3166174496644 4296.5 453.1104429530201 4296.5 399.2920268456375 4275.139999999999 399.7799731543624 4253.78 400.44660402684565 4232.42 400.9070604026845 4211.0599999999995 401.64928859060393 4189.7 402.1166174496643 4168.34 402.7076510067114 4146.98 402.9550604026846 4125.62 403.16123489932886 4104.26 403.60794630872476 4082.9 404.13025503355703 4061.54 404.5219865771811 4040.18 404.96869798657707 4018.8199999999997 405.3673020134228 3997.46 405.80714093959733 3976.1 406.3088322147652 3954.74 406.9617181208054 3933.38 407.46340939597314 3912.02 408.1162953020134 3890.66 408.7279463087248 3869.3 409.40832214765106 3847.94 410.129932885906 3826.58 410.6522416107382 3805.2200000000003 411.30512751677855 3783.86 411.9099060402684 3762.5 412.26040268456376 3741.14 412.87205369127514 3719.7799999999997 413.57991946308726 3698.42 414.2671677852349 3677.06 414.9131812080538 3655.7 415.5110872483221 3634.34 416.1433557046979 3612.98 416.81685906040263 3591.62 417.4972348993289 3570.26 418.163865771812 3548.9 418.871731543624 3527.54 419.5727248322147 3506.18 420.7960268456375 3484.82 421.4832751677853 3463.46 422.17739597315426 3442.1 422.75468456375836 3420.74 423.42818791946314 3399.38 423.92987919463087 3378.02 424.6240000000001 3356.66 425.3593557046979 3335.3 426.02598657718113 3313.94 426.6788724832215 3292.58 427.3729932885907 3271.22 428.0464966442953 3249.86 428.76123489932877 3228.5 429.4416107382549 3228.5 475.9958120805368Z" fill="#fdd5a4" opacity="0.9" />
		</g>
		<g>
			<path d="M3228.5 429.4416107382549 3249.86 428.76123489932877 3271.22 428.0464966442953 3292.58 427.3729932885907 3313.94 426.6788724832215 3335.3 426.02598657718113 3356.66 425.3593557046979 3378.02 424.6240000000001 3399.38 423.92987919463087 3420.74 423.42818791946314 3442.1 422.75468456375836 3463.46 422.17739597315426 3484.82 421.4832751677853 3506.18 420.7960268456375 3527.54 419.5727248322147 3548.9 418.871731543624 3570.26 418.163865771812 3591.62 417.4972348993289 3612.98 416.81685906040263 3634.34 416.1433557046979 3655.7 415.5110872483221 3677.06 414.9131812080538 3698.42 414.2671677852349 3719.7799999999997 413.57991946308726 3741.14 412.87205369127514 3762.5 412.26040268456376 3783.86 411.9099060402684 3805.2200000000003 411.30512751677855 3826.58 410.6522416107382 3847.94 410.129932885906 3869.3 409.40832214765106 3890.66 408.7279463087248 3912.02 408.1162953020134 3933.38 407.46340939597314 3954.74 406.9617181208054 3976.1 406.3088322147652 3997.46 405.80714093959733 4018.8199999999997 405.3673020134228 4040.18 404.96869798657707 4061.54 404.5219865771811 4082.9 404.13025503355703 4104.26 403.60794630872476 4125.62 403.16123489932886 4146.98 402.9550604026846 4168.34 402.7076510067114 4189.7 402.1166174496643 4211.0599999999995 401.64928859060393 4232.42 400.9070604026845 4253.78 400.44660402684565 4275.139999999999 399.7799731543624 4296.5 399.2920268456375 4296.5 397.99999999999994 4275.139999999999 398.4879463087248 4253.78 399.1545771812081 4232.42 399.61503355704696 4211.0599999999995 400.35726174496637 4189.7 400.82459060402675 4168.34 401.4156241610738 4146.98 401.663033557047 4125.62 401.8692080536913 4104.26 402.3159194630872 4082.9 402.83822818791947 4061.54 403.24370469798646 4040.18 403.6904161073824 4018.8199999999997 404.0890201342281 3997.46 404.5288590604027 3976.1 405.0305503355705 3954.74 405.68343624161076 3933.38 406.1851275167785 3912.02 406.83801342281873 3890.66 407.4496644295302 3869.3 408.1300402684564 3847.94 408.85165100671134 3826.58 409.37395973154355 3805.2200000000003 410.0268456375839 3783.86 410.6316241610738 3762.5 410.9821208053691 3741.14 411.5937718120805 3719.7799999999997 412.3016375838926 3698.42 412.98888590604025 3677.06 413.63489932885915 3655.7 414.23280536912745 3634.34 414.86507382550326 3612.98 415.538577181208 3591.62 416.2189530201342 3570.26 416.8855838926174 3548.9 417.59344966442933 3527.54 418.29444295302005 3506.18 419.5177449664429 3484.82 420.20499328859063 3463.46 420.8991140939596 3442.1 421.4764026845637 3420.74 422.1499060402685 3399.38 422.6515973154362 3378.02 423.34571812080543 3356.66 424.08107382550327 3335.3 424.7477046979865 3313.94 425.40059060402683 3292.58 426.09471140939604 3271.22 426.76821476510065 3249.86 427.4829530201341 3228.5 428.16332885906024 3228.5 429.4416107382549Z" fill="#005aa6" opacity="0.9" />
		</g>
		<g>
			<rect x="4372" y="431" width="22.9995" height="23" fill="#e62d39" />
		</g>
		<g>
			<text fill="#595959" font-family="Verdana,Open Sans,DejaVu Sans,sans-serif" font-weight="400" font-size="41" transform="matrix(1 0 0 1 4404.56 454)">Smartphone</text>
		</g>
		<g>
			<rect x="4372" y="508" width="22.9995" height="23" fill="#f6a118" />
		</g>
		<g>
			<text fill="#595959" font-family="Verdana,Open Sans,DejaVu Sans,sans-serif" font-weight="400" font-size="41" transform="matrix(1 0 0 1 4404.56 531)">Tablet</text>
		</g>
		<g>
			<rect x="4372" y="585" width="22.9995" height="23" fill="#55c0e9" />
		</g>
		<g>
			<text fill="#595959" font-family="Verdana,Open Sans,DejaVu Sans,sans-serif" font-weight="400" font-size="41" transform="matrix(1 0 0 1 4404.56 608)">Other</text>
		</g>
		<g>
			<rect x="4372" y="662" width="22.9995" height="23" fill="#fdd5a4" />
		</g>
		<g>
			<text fill="#595959" font-family="Verdana,Open Sans,DejaVu Sans,sans-serif" font-weight="400" font-size="41" transform="matrix(1 0 0 1 4404.56 685)">Tv</text>
		</g>
		<g>
			<rect x="4372" y="739" width="22.9995" height="23" fill="#005aa6" />
		</g>
		<g>
			<text fill="#595959" font-family="Verdana,Open Sans,DejaVu Sans,sans-serif" font-weight="400" font-size="41" transform="matrix(1 0 0 1 4404.56 762)">Desktop</text>
		</g>
	</g>
</svg>
