<svg width="1763" height="1046"
    xmlns="http://www.w3.org/2000/svg"
	xmlns:xlink="http://www.w3.org/1999/xlink" xml:space="preserve" overflow="hidden">
	<defs>
		<clipPath id="clip0">
			<rect x="2917" y="346" width="1763" height="1046"/>
		</clipPath>
	</defs>
	<g clip-path="url(#clip0)" transform="translate(-2917 -346)">
		<rect x="2918" y="347" width="1760" height="1043" fill="#FFFFFF" />
		<g>
			<path d="
			M3228.5 974.532 4296.5 974.532
			M3228.5 910.53 4296.5 910.53
			M3228.5 846.528 4296.5 846.528
			M3228.5 781.526 4296.5 781.526
			M3228.5 717.524 4296.5 717.524
			M3228.5 653.522 4296.5 653.522
			M3228.5 589.52 4296.5 589.52
			M3228.5 525.517 4296.5 525.517
			M3228.5 461.515 4296.5 461.515
			M3228.5 397.5 4296.5 397.5" stroke="#D9D9D9" stroke-width="3.4375" stroke-linejoin="round" stroke-miterlimit="10" fill="none" />
		</g>
		<g>
			<path d="M 1038.5 4296.5 1038.5" stroke="#D9D9D9" stroke-width="3.4375" stroke-linejoin="round" stroke-miterlimit="10" fill="none" fill-rule="evenodd" />
		</g>
		<g>
			<text fill="#595959" font-family="Verdana,Open Sans,DejaVu Sans,sans-serif" font-weight="400" font-size="41" transform="matrix(6.12323e-17 -1 1 6.12323e-17 3248.269287109375 1208.66748046875)">26-Aug</text>
		</g>
		<g>
			<text fill="#595959" font-family="Verdana,Open Sans,DejaVu Sans,sans-serif" font-weight="400" font-size="41" transform="matrix(6.12323e-17 -1 1 6.12323e-17 3335.452960578763 1204.42333984375)">23-Sep</text>
		</g>
		<g>
			<text fill="#595959" font-family="Verdana,Open Sans,DejaVu Sans,sans-serif" font-weight="400" font-size="41" transform="matrix(6.12323e-17 -1 1 6.12323e-17 3417.9320442044004 1201.1401290893555)">21-Oct</text>
		</g>
		<g>
			<text fill="#595959" font-family="Verdana,Open Sans,DejaVu Sans,sans-serif" font-weight="400" font-size="41" transform="matrix(6.12323e-17 -1 1 6.12323e-17 3505.0956981425384 1209.70849609375)">18-Nov</text>
		</g>
		<g>
			<text fill="#595959" font-family="Verdana,Open Sans,DejaVu Sans,sans-serif" font-weight="400" font-size="41" transform="matrix(6.12323e-17 -1 1 6.12323e-17 3592.279371611926 1207.1259765625)">23-Dec</text>
		</g>
		<g>
			<text fill="#595959" font-family="Verdana,Open Sans,DejaVu Sans,sans-serif" font-weight="400" font-size="41" transform="matrix(6.12323e-17 -1 1 6.12323e-17 3683.136629065689 1191.6909103393555)">20-Jan</text>
		</g>
		<g>
			<text fill="#595959" font-family="Verdana,Open Sans,DejaVu Sans,sans-serif" font-weight="400" font-size="41" transform="matrix(6.12323e-17 -1 1 6.12323e-17 3767.3774314413267 1201.3203125)">17-Feb</text>
		</g>
		<g>
			<text fill="#595959" font-family="Verdana,Open Sans,DejaVu Sans,sans-serif" font-weight="400" font-size="41" transform="matrix(6.12323e-17 -1 1 6.12323e-17 3853.620186941964 1210.2890625)">17-Mar</text>
		</g>
		<g>
			<text fill="#595959" font-family="Verdana,Open Sans,DejaVu Sans,sans-serif" font-weight="400" font-size="41" transform="matrix(6.12323e-17 -1 1 6.12323e-17 3945.608547911352 1201.5405197143555)">14-Apr</text>
		</g>
		<g>
			<text fill="#595959" font-family="Verdana,Open Sans,DejaVu Sans,sans-serif" font-weight="400" font-size="41" transform="matrix(6.12323e-17 -1 1 6.12323e-17 4032.9223483338646 1214.75341796875)">12-May</text>
		</g>
		<g>
			<text fill="#595959" font-family="Verdana,Open Sans,DejaVu Sans,sans-serif" font-weight="400" font-size="41" transform="matrix(6.12323e-17 -1 1 6.12323e-17 4119.034976881378 1192.2914962768555)">16-Jun</text>
		</g>
		<g>
			<text fill="#595959" font-family="Verdana,Open Sans,DejaVu Sans,sans-serif" font-weight="400" font-size="41" transform="matrix(6.12323e-17 -1 1 6.12323e-17 4206.9493632413905 1177.2768478393555)">14-Jul</text>
		</g>
		<g>
			<text fill="#595959" font-family="Verdana,Open Sans,DejaVu Sans,sans-serif" font-weight="400" font-size="41" transform="matrix(6.12323e-17 -1 1 6.12323e-17 4294.3232222576535 1206.90576171875)">11-Aug</text>
		</g>
		<g>
			<text fill="#595959" font-family="Verdana,Open Sans,DejaVu Sans,sans-serif" font-weight="400" font-size="41" transform="matrix(1 0 0 1 3135.4482421875 1050)">0%</text>
		</g>
		<g>
			<text fill="#595959" font-family="Verdana,Open Sans,DejaVu Sans,sans-serif" font-weight="400" font-size="41" transform="matrix(1 0 0 1 3111.96533203125 922)">20%</text>
		</g>
		<g>
			<text fill="#595959" font-family="Verdana,Open Sans,DejaVu Sans,sans-serif" font-weight="400" font-size="41" transform="matrix(1 0 0 1 3110.82421875 794)">40%</text>
		</g>
		<g>
			<text fill="#595959" font-family="Verdana,Open Sans,DejaVu Sans,sans-serif" font-weight="400" font-size="41" transform="matrix(1 0 0 1 3112.3056640625 666)">60%</text>
		</g>
		<g>
			<text fill="#595959" font-family="Verdana,Open Sans,DejaVu Sans,sans-serif" font-weight="400" font-size="41" transform="matrix(1 0 0 1 3112.04541015625 538)">80%</text>
		</g>
		<g>
			<text fill="#595959" font-family="Verdana,Open Sans,DejaVu Sans,sans-serif" font-weight="400" font-size="41" transform="matrix(1 0 0 1 3090.2841796875 410)">100%</text>
		</g>
		<g>
			<text fill="#595959" font-family="Verdana,Open Sans,DejaVu Sans,sans-serif" font-weight="400" font-size="41" transform="matrix(1 0 0 1 3556.97119140625 1321)">Week Commencing</text>
		</g>
		<g>
			<text fill="#595959" font-family="Verdana,Open Sans,DejaVu Sans,sans-serif" font-weight="400" font-size="46" transform="matrix(6.12323e-17 -1 1 6.12323e-17 3019.73 936.7665710449219)">Requests (% of Total)</text>
		</g>
		<rect x="2918.5" y="347.5" width="1760" height="1043" stroke="#D9D9D9" stroke-width="3.4375" stroke-linejoin="round" stroke-miterlimit="10" fill="none" />
		<g>
			<path d="M3228.5 1038 3250.295918367347 1038 3272.091836734694 1038 3293.887755102041 1038 3315.683673469388 1038 3337.4795918367345 1038 3359.2755102040815 1038 3381.0714285714284 1038 3402.8673469387754 1038 3424.6632653061224 1038 3446.4591836734694 1038 3468.2551020408164 1038 3490.0510204081634 1038 3511.8469387755104 1038 3533.6428571428573 1038 3555.4387755102043 1038 3577.234693877551 1038 3599.030612244898 1038 3620.826530612245 1038 3642.622448979592 1038 3664.418367346939 1038 3686.214285714286 1038 3708.0102040816328 1038 3729.8061224489797 1038 3751.6020408163267 1038 3773.3979591836733 1038 3795.1938775510203 1038 3816.9897959183672 1038 3838.785714285714 1038 3860.581632653061 1038 3882.377551020408 1038 3904.173469387755 1038 3925.969387755102 1038 3947.765306122449 1038 3969.5612244897957 1038 3991.357142857143 1038 4013.1530612244896 1038 4034.9489795918366 1038 4056.7448979591836 1038 4078.5408163265306 1038 4100.336734693878 1038 4122.132653061224 1038 4143.928571428572 1038 4165.724489795918 1038 4187.5204081632655 1038 4209.316326530612 1038 4231.1122448979595 1038 4252.908163265306 1038 4274.7040816326535 1038 4296.5 1038 4296.5 522.2681085366032 4274.7040816326535 527.8351358448251 4252.908163265306 527.8182060044346 4231.1122448979595 527.8171189568005 4209.316326530612 527.8195281696414 4187.5204081632655 527.7185125063723 4165.724489795918 528.1749639028288 4143.928571428572 526.0738068609967 4122.132653061224 526.0690930129186 4100.336734693878 526.4517905907722 4078.5408163265306 526.966587562726 4056.7448979591836 527.7344479046612 4034.9489795918366 528.0922596265774 4013.1530612244896 528.3637575953018 3991.357142857143 528.4473950245434 3969.5612244897957 528.3817437118579 3947.765306122449 528.3209049784523 3925.969387755102 528.6035113858115 3904.173469387755 529.0722280244075 3882.377551020408 529.4214956662862 3860.581632653061 529.807429199031 3838.785714285714 533.5058286789898 3816.9897959183672 533.4031264720519 3795.1938775510203 533.4021762961523 3773.3979591836733 533.7756525096236 3751.6020408163267 533.8956466575289 3729.8061224489797 533.9572095457534 3708.0102040816328 533.4841990448925 3686.214285714286 533.4528010722697 3664.418367346939 533.722746014736 3642.622448979592 533.7853664259474 3620.826530612245 533.8294455926118 3599.030612244898 533.7499584959044 3577.234693877551 533.5577242345337 3555.4387755102043 533.3794235575219 3533.6428571428573 533.1839579715512 3511.8469387755104 532.7385960569093 3490.0510204081634 532.9945218339117 3468.2551020408164 533.5883597667535 3446.4591836734694 534.4892592748513 3424.6632653061224 535.2648007319358 3402.8673469387754 642.4592997578948 3381.0714285714284 641.7348258019537 3359.2755102040815 641.0274072878076 3337.4795918367345 640.0328656683237 3315.683673469388 638.7439704461906 3293.887755102041 637.5953366301156 3272.091836734694 636.388984334016 3250.295918367347 635.2830954215428 3228.5 634.2801376637599 3228.5 1038Z" fill="#e62d39" opacity="0.9" />
		</g>
		<g>
			<path d="M3228.5 634.2801376637599 3250.295918367347 635.2830954215428 3272.091836734694 636.388984334016 3293.887755102041 637.5953366301156 3315.683673469388 638.7439704461906 3337.4795918367345 640.0328656683237 3359.2755102040815 641.0274072878076 3381.0714285714284 641.7348258019537 3402.8673469387754 642.4592997578948 3424.6632653061224 535.2648007319358 3446.4591836734694 534.4892592748513 3468.2551020408164 533.5883597667535 3490.0510204081634 532.9945218339117 3511.8469387755104 532.7385960569093 3533.6428571428573 533.1839579715512 3555.4387755102043 533.3794235575219 3577.234693877551 533.5577242345337 3599.030612244898 533.7499584959044 3620.826530612245 533.8294455926118 3642.622448979592 533.7853664259474 3664.418367346939 533.722746014736 3686.214285714286 533.4528010722697 3708.0102040816328 533.4841990448925 3729.8061224489797 533.9572095457534 3751.6020408163267 533.8956466575289 3773.3979591836733 533.7756525096236 3795.1938775510203 533.4021762961523 3816.9897959183672 533.4031264720519 3838.785714285714 533.5058286789898 3860.581632653061 529.807429199031 3882.377551020408 529.4214956662862 3904.173469387755 529.0722280244075 3925.969387755102 528.6035113858115 3947.765306122449 528.3209049784523 3969.5612244897957 528.3817437118579 3991.357142857143 528.4473950245434 4013.1530612244896 528.3637575953018 4034.9489795918366 528.0922596265774 4056.7448979591836 527.7344479046612 4078.5408163265306 526.966587562726 4100.336734693878 526.4517905907722 4122.132653061224 526.0690930129186 4143.928571428572 526.0738068609967 4165.724489795918 528.1749639028288 4187.5204081632655 527.7185125063723 4209.316326530612 527.8195281696414 4231.1122448979595 527.8171189568005 4252.908163265306 527.8182060044346 4274.7040816326535 527.8351358448251 4296.5 522.2681085366032 4296.5 440.43245647629897 4274.7040816326535 446.0049434709254 4252.908163265306 445.99448025532104 4231.1122448979595 445.9906298366525 4209.316326530612 445.9850763388172 4187.5204081632655 446.00044835106377 4165.724489795918 445.48995832347725 4143.928571428572 440.7320769519542 4122.132653061224 440.71015435347675 4100.336734693878 440.79849020545294 4078.5408163265306 441.02669160650083 4056.7448979591836 441.4805241599953 4034.9489795918366 441.7146387359797 4013.1530612244896 441.87434560441795 3991.357142857143 442.00506484989137 3969.5612244897957 442.0536403247141 3947.765306122449 442.1004848135459 3925.969387755102 442.29078701208255 3904.173469387755 442.5177613549289 3882.377551020408 442.75370380577044 3860.581632653061 443.0039649820596 3838.785714285714 447.2266118196212 3816.9897959183672 447.3367564362345 3795.1938775510203 447.478410212555 3773.3979591836733 447.7812344269998 3751.6020408163267 447.9735867247491 3729.8061224489797 448.11744019003095 3708.0102040816328 447.90712750570685 3686.214285714286 447.65114758474357 3664.418367346939 447.63691579979616 3642.622448979592 447.6548818464415 3620.826530612245 447.68514400974766 3599.030612244898 447.6730658977694 3577.234693877551 447.6266609249292 3555.4387755102043 447.6323779302626 3533.6428571428573 447.6574339250563 3511.8469387755104 447.5983732210459 3490.0510204081634 447.82372841614773 3468.2551020408164 448.23400972704667 3446.4591836734694 448.85972838125235 3424.6632653061224 449.3446349967366 3402.8673469387754 564.013087594675 3381.0714285714284 563.0569322713101 3359.2755102040815 562.1201699126104 3337.4795918367345 560.9592369816268 3315.683673469388 559.5178863272408 3293.887755102041 558.0421991553968 3272.091836734694 556.6183211021491 3250.295918367347 555.218566955861 3228.5 553.8747604661306 3228.5 634.2801376637599Z" fill="#005aa6" opacity="0.9" />
		</g>
		<g>
			<path d="M3228.5 553.8747604661306 3250.295918367347 555.218566955861 3272.091836734694 556.6183211021491 3293.887755102041 558.0421991553968 3315.683673469388 559.5178863272408 3337.4795918367345 560.9592369816268 3359.2755102040815 562.1201699126104 3381.0714285714284 563.0569322713101 3402.8673469387754 564.013087594675 3424.6632653061224 449.3446349967366 3446.4591836734694 448.85972838125235 3468.2551020408164 448.23400972704667 3490.0510204081634 447.82372841614773 3511.8469387755104 447.5983732210459 3533.6428571428573 447.6574339250563 3555.4387755102043 447.6323779302626 3577.234693877551 447.6266609249292 3599.030612244898 447.6730658977694 3620.826530612245 447.68514400974766 3642.622448979592 447.6548818464415 3664.418367346939 447.63691579979616 3686.214285714286 447.65114758474357 3708.0102040816328 447.90712750570685 3729.8061224489797 448.11744019003095 3751.6020408163267 447.9735867247491 3773.3979591836733 447.7812344269998 3795.1938775510203 447.478410212555 3816.9897959183672 447.3367564362345 3838.785714285714 447.2266118196212 3860.581632653061 443.0039649820596 3882.377551020408 442.75370380577044 3904.173469387755 442.5177613549289 3925.969387755102 442.29078701208255 3947.765306122449 442.1004848135459 3969.5612244897957 442.0536403247141 3991.357142857143 442.00506484989137 4013.1530612244896 441.87434560441795 4034.9489795918366 441.7146387359797 4056.7448979591836 441.4805241599953 4078.5408163265306 441.02669160650083 4100.336734693878 440.79849020545294 4122.132653061224 440.71015435347675 4143.928571428572 440.7320769519542 4165.724489795918 445.48995832347725 4187.5204081632655 446.00044835106377 4209.316326530612 445.9850763388172 4231.1122448979595 445.9906298366525 4252.908163265306 445.99448025532104 4274.7040816326535 446.0049434709254 4296.5 440.43245647629897 4296.5 425.28465904377634 4274.7040816326535 430.8274530925998 4252.908163265306 430.81817356835387 4231.1122448979595 430.8139007331268 4209.316326530612 430.8069864095142 4187.5204081632655 430.9020970833825 4165.724489795918 430.23142599790555 4143.928571428572 425.0017650883845 4122.132653061224 424.9767523660499 4100.336734693878 425.0257701995382 4078.5408163265306 425.20583580775155 4056.7448979591836 425.4986687976815 4034.9489795918366 425.6867840212037 4013.1530612244896 425.8119685721377 3991.357142857143 425.9104888133743 3969.5612244897957 425.92679886960804 3947.765306122449 425.94362826788443 3925.969387755102 426.1140510532148 3904.173469387755 426.3120783472338 3882.377551020408 426.5518003809951 3860.581632653061 426.81320471249694 3838.785714285714 431.1686011749783 3816.9897959183672 431.3401421096995 3795.1938775510203 431.5247092372164 3773.3979591836733 431.81676347027957 3751.6020408163267 431.99440912392726 3729.8061224489797 432.1329946808099 3708.0102040816328 432.00359297169024 3686.214285714286 431.84731630596053 3664.418367346939 431.8659139096981 3642.622448979592 431.93242137634724 3620.826530612245 431.9599475077045 3599.030612244898 431.9558731937295 3577.234693877551 431.9405589448202 3555.4387755102043 431.96727576259724 3533.6428571428573 432.02029212049626 3511.8469387755104 431.97528739378606 3490.0510204081634 432.15561530771527 3468.2551020408164 432.4754364071281 3446.4591836734694 433.0084053536388 3424.6632653061224 433.3913361237896 3402.8673469387754 540.8290503164301 3381.0714285714284 539.7717503889384 3359.2755102040815 538.7148538649283 3337.4795918367345 537.4631522646897 3315.683673469388 535.9474999414622 3293.887755102041 534.3593851680338 3272.091836734694 532.8484801447386 3250.295918367347 531.3863925452272 3228.5 529.9440403710025 3228.5 553.8747604661306Z" fill="#55c0e9" opacity="0.9" />
		</g>
		<g>
			<path d="M3228.5 529.9440403710025 3250.295918367347 531.3863925452272 3272.091836734694 532.8484801447386 3293.887755102041 534.3593851680338 3315.683673469388 535.9474999414622 3337.4795918367345 537.4631522646897 3359.2755102040815 538.7148538649283 3381.0714285714284 539.7717503889384 3402.8673469387754 540.8290503164301 3424.6632653061224 433.3913361237896 3446.4591836734694 433.0084053536388 3468.2551020408164 432.4754364071281 3490.0510204081634 432.15561530771527 3511.8469387755104 431.97528739378606 3533.6428571428573 432.02029212049626 3555.4387755102043 431.96727576259724 3577.234693877551 431.9405589448202 3599.030612244898 431.9558731937295 3620.826530612245 431.9599475077045 3642.622448979592 431.93242137634724 3664.418367346939 431.8659139096981 3686.214285714286 431.84731630596053 3708.0102040816328 432.00359297169024 3729.8061224489797 432.1329946808099 3751.6020408163267 431.99440912392726 3773.3979591836733 431.81676347027957 3795.1938775510203 431.5247092372164 3816.9897959183672 431.3401421096995 3838.785714285714 431.1686011749783 3860.581632653061 426.81320471249694 3882.377551020408 426.5518003809951 3904.173469387755 426.3120783472338 3925.969387755102 426.1140510532148 3947.765306122449 425.94362826788443 3969.5612244897957 425.92679886960804 3991.357142857143 425.9104888133743 4013.1530612244896 425.8119685721377 4034.9489795918366 425.6867840212037 4056.7448979591836 425.4986687976815 4078.5408163265306 425.20583580775155 4100.336734693878 425.0257701995382 4122.132653061224 424.9767523660499 4143.928571428572 425.0017650883845 4165.724489795918 430.23142599790555 4187.5204081632655 430.9020970833825 4209.316326530612 430.8069864095142 4231.1122448979595 430.8139007331268 4252.908163265306 430.81817356835387 4274.7040816326535 430.8274530925998 4296.5 425.28465904377634 4296.5 411.22347657579 4274.7040816326535 416.32051328878225 4252.908163265306 416.3159617889731 4231.1122448979595 416.31921689377526 4209.316326530612 416.31736632943614 4187.5204081632655 416.3210682719641 4165.724489795918 415.85243189703715 4143.928571428572 410.86025631578275 4122.132653061224 410.8513168557256 4100.336734693878 410.8010080993925 4078.5408163265306 410.8532595598375 4056.7448979591836 410.9689719408518 4034.9489795918366 411.04822058755076 4013.1530612244896 411.09796238059005 3991.357142857143 411.13309600464333 3969.5612244897957 411.08525540240214 3947.765306122449 411.0502804931489 3925.969387755102 411.15507042479464 3904.173469387755 411.2715831935364 3882.377551020408 411.39453051492376 3860.581632653061 411.52533019336687 3838.785714285714 415.89173436048446 3816.9897959183672 415.95861191477786 3795.1938775510203 416.055066900616 3773.3979591836733 416.2345639289736 3751.6020408163267 416.4071449754411 3729.8061224489797 416.47817812627426 3708.0102040816328 416.34836086389726 3686.214285714286 416.1564242259188 3664.418367346939 416.1235996870702 3642.622448979592 416.0562889706207 3620.826530612245 416.0954395000898 3599.030612244898 416.0465069983401 3577.234693877551 416.000160121671 3555.4387755102043 416.0062420628137 3533.6428571428573 416.05161909433286 3511.8469387755104 415.99893833884835 3490.0510204081634 416.12431960001913 3468.2551020408164 416.33420162951643 3446.4591836734694 416.71311285195446 3424.6632653061224 416.98069451994184 3402.8673469387754 523.7363657522843 3381.0714285714284 522.5716439040438 3359.2755102040815 521.4074163425901 3337.4795918367345 520.0402408469882 3315.683673469388 518.4759534407176 3293.887755102041 516.9133817380589 3272.091836734694 515.447116697529 3250.295918367347 514.0614365046936 3228.5 512.7024056997157 3228.5 529.9440403710025Z" fill="#f6a118" opacity="0.9" />
		</g>
		<g>
			<path d="M3228.5 512.7024056997157 3250.295918367347 514.0614365046936 3272.091836734694 515.447116697529 3293.887755102041 516.9133817380589 3315.683673469388 518.4759534407176 3337.4795918367345 520.0402408469882 3359.2755102040815 521.4074163425901 3381.0714285714284 522.5716439040438 3402.8673469387754 523.7363657522843 3424.6632653061224 416.98069451994184 3446.4591836734694 416.71311285195446 3468.2551020408164 416.33420162951643 3490.0510204081634 416.12431960001913 3511.8469387755104 415.99893833884835 3533.6428571428573 416.05161909433286 3555.4387755102043 416.0062420628137 3577.234693877551 416.000160121671 3599.030612244898 416.0465069983401 3620.826530612245 416.0954395000898 3642.622448979592 416.0562889706207 3664.418367346939 416.1235996870702 3686.214285714286 416.1564242259188 3708.0102040816328 416.34836086389726 3729.8061224489797 416.47817812627426 3751.6020408163267 416.4071449754411 3773.3979591836733 416.2345639289736 3795.1938775510203 416.055066900616 3816.9897959183672 415.95861191477786 3838.785714285714 415.89173436048446 3860.581632653061 411.52533019336687 3882.377551020408 411.39453051492376 3904.173469387755 411.2715831935364 3925.969387755102 411.15507042479464 3947.765306122449 411.0502804931489 3969.5612244897957 411.08525540240214 3991.357142857143 411.13309600464333 4013.1530612244896 411.09796238059005 4034.9489795918366 411.04822058755076 4056.7448979591836 410.9689719408518 4078.5408163265306 410.8532595598375 4100.336734693878 410.8010080993925 4122.132653061224 410.8513168557256 4143.928571428572 410.86025631578275 4165.724489795918 415.85243189703715 4187.5204081632655 416.3210682719641 4209.316326530612 416.31736632943614 4231.1122448979595 416.31921689377526 4252.908163265306 416.3159617889731 4274.7040816326535 416.32051328878225 4296.5 411.22347657579 4296.5 402.6382934643876 4274.7040816326535 407.18303418872716 4252.908163265306 407.1809148990988 4231.1122448979595 407.1872998554764 4209.316326530612 407.1917111103271 4187.5204081632655 407.1621562125779 4165.724489795918 406.9309868112197 4143.928571428572 402.3499262788061 4122.132653061224 402.3497550933614 4100.336734693878 402.31710391583925 4078.5408163265306 402.31377839166817 4056.7448979591836 402.32705082967294 4034.9489795918366 402.3105155472352 4013.1530612244896 402.3328782432905 3991.357142857143 402.29313148871324 3969.5612244897957 402.27347913416367 3947.765306122449 402.24951221526595 3925.969387755102 402.264400535425 3904.173469387755 402.2771754039698 3882.377551020408 402.3026796088189 3860.581632653061 402.31237144781545 3838.785714285714 406.6903311154683 3816.9897959183672 406.6504534424193 3795.1938775510203 406.63653513437157 3773.3979591836733 406.73881659701254 3751.6020408163267 406.7913155812626 3729.8061224489797 406.7895314471883 3708.0102040816328 406.7538978821639 3686.214285714286 406.6419996355151 3664.418367346939 406.66475151485594 3642.622448979592 406.64954838762975 3620.826530612245 406.6900606081659 3599.030612244898 406.67423043388266 3577.234693877551 406.6442240275461 3555.4387755102043 406.6769627823681 3533.6428571428573 406.7486576922467 3511.8469387755104 406.88204596503937 3490.0510204081634 407.2984950463532 3468.2551020408164 407.42058087187377 3446.4591836734694 407.6496849699309 3424.6632653061224 407.85452807822685 3402.8673469387754 510.457001187623 3381.0714285714284 509.25430348013276 3359.2755102040815 508.03326088042445 3337.4795918367345 506.6178498444704 3315.683673469388 505.0214210075742 3293.887755102041 503.4488995208447 3272.091836734694 501.99414638500895 3250.295918367347 500.6747796739521 3228.5 499.3250304832202 3228.5 512.7024056997157Z" fill="#fdd5a4" opacity="0.9" />
		</g>
		<g>
			<path d="M3228.5 499.3250304832202 3250.295918367347 500.6747796739521 3272.091836734694 501.99414638500895 3293.887755102041 503.4488995208447 3315.683673469388 505.0214210075742 3337.4795918367345 506.6178498444704 3359.2755102040815 508.03326088042445 3381.0714285714284 509.25430348013276 3402.8673469387754 510.457001187623 3424.6632653061224 407.85452807822685 3446.4591836734694 407.6496849699309 3468.2551020408164 407.42058087187377 3490.0510204081634 407.2984950463532 3511.8469387755104 406.88204596503937 3533.6428571428573 406.7486576922467 3555.4387755102043 406.6769627823681 3577.234693877551 406.6442240275461 3599.030612244898 406.67423043388266 3620.826530612245 406.6900606081659 3642.622448979592 406.64954838762975 3664.418367346939 406.66475151485594 3686.214285714286 406.6419996355151 3708.0102040816328 406.7538978821639 3729.8061224489797 406.7895314471883 3751.6020408163267 406.7913155812626 3773.3979591836733 406.73881659701254 3795.1938775510203 406.63653513437157 3816.9897959183672 406.6504534424193 3838.785714285714 406.6903311154683 3860.581632653061 402.31237144781545 3882.377551020408 402.3026796088189 3904.173469387755 402.2771754039698 3925.969387755102 402.264400535425 3947.765306122449 402.24951221526595 3969.5612244897957 402.27347913416367 3991.357142857143 402.29313148871324 4013.1530612244896 402.3328782432905 4034.9489795918366 402.3105155472352 4056.7448979591836 402.32705082967294 4078.5408163265306 402.31377839166817 4100.336734693878 402.31710391583925 4122.132653061224 402.3497550933614 4143.928571428572 402.3499262788061 4165.724489795918 406.9309868112197 4187.5204081632655 407.1621562125779 4209.316326530612 407.1917111103271 4231.1122448979595 407.1872998554764 4252.908163265306 407.1809148990988 4274.7040816326535 407.18303418872716 4296.5 402.6382934643876 4296.5 397.99999999999994 4274.7040816326535 397.9999999999999 4252.908163265306 398.0000000000001 4231.1122448979595 397.99999999999994 4209.316326530612 398 4187.5204081632655 398 4165.724489795918 398 4143.928571428572 398 4122.132653061224 398 4100.336734693878 398.00000000000006 4078.5408163265306 398 4056.7448979591836 398.0000000000001 4034.9489795918366 398.0000000000001 4013.1530612244896 398 3991.357142857143 398 3969.5612244897957 398.00000000000006 3947.765306122449 398.0000000000001 3925.969387755102 398 3904.173469387755 397.99999999999994 3882.377551020408 398 3860.581632653061 397.99999999999994 3838.785714285714 398 3816.9897959183672 398 3795.1938775510203 398 3773.3979591836733 398.0000000000001 3751.6020408163267 398.00000000000006 3729.8061224489797 398 3708.0102040816328 398 3686.214285714286 398 3664.418367346939 398 3642.622448979592 397.99999999999994 3620.826530612245 398 3599.030612244898 398.0000000000001 3577.234693877551 398.00000000000006 3555.4387755102043 398 3533.6428571428573 397.9999999999999 3511.8469387755104 398 3490.0510204081634 397.99999999999994 3468.2551020408164 398.0000000000001 3446.4591836734694 397.99999999999994 3424.6632653061224 398.00000000000006 3402.8673469387754 398 3381.0714285714284 397.9999999999999 3359.2755102040815 398 3337.4795918367345 397.99999999999983 3315.683673469388 398.0000000000001 3293.887755102041 397.99999999999994 3272.091836734694 397.9999999999999 3250.295918367347 398.0000000000001 3228.5 398 3228.5 499.3250304832202Z" fill="#393d41" opacity="0.9" />
		</g>
		<g>
			<rect x="4372" y="431" width="22.9995" height="23" fill="#e62d39" />
		</g>
		<g>
			<text fill="#595959" font-family="Verdana,Open Sans,DejaVu Sans,sans-serif" font-weight="400" font-size="41" transform="matrix(1 0 0 1 4404.56 454)">Smartphone</text>
		</g>
		<g>
			<rect x="4372" y="508" width="22.9995" height="23" fill="#005aa6" />
		</g>
		<g>
			<text fill="#595959" font-family="Verdana,Open Sans,DejaVu Sans,sans-serif" font-weight="400" font-size="41" transform="matrix(1 0 0 1 4404.56 531)">Desktop</text>
		</g>
		<g>
			<rect x="4372" y="585" width="22.9995" height="23" fill="#55c0e9" />
		</g>
		<g>
			<text fill="#595959" font-family="Verdana,Open Sans,DejaVu Sans,sans-serif" font-weight="400" font-size="41" transform="matrix(1 0 0 1 4404.56 608)">Other</text>
		</g>
		<g>
			<rect x="4372" y="662" width="22.9995" height="23" fill="#f6a118" />
		</g>
		<g>
			<text fill="#595959" font-family="Verdana,Open Sans,DejaVu Sans,sans-serif" font-weight="400" font-size="41" transform="matrix(1 0 0 1 4404.56 685)">Tablet</text>
		</g>
		<g>
			<rect x="4372" y="739" width="22.9995" height="23" fill="#fdd5a4" />
		</g>
		<g>
			<text fill="#595959" font-family="Verdana,Open Sans,DejaVu Sans,sans-serif" font-weight="400" font-size="41" transform="matrix(1 0 0 1 4404.56 762)">Tv</text>
		</g>
		<g>
			<rect x="4372" y="816" width="22.9995" height="23" fill="#393d41" />
		</g>
		<g>
			<text fill="#595959" font-family="Verdana,Open Sans,DejaVu Sans,sans-serif" font-weight="400" font-size="41" transform="matrix(1 0 0 1 4404.56 839)">Unclassified</text>
		</g>
	</g>
</svg>
