<svg width="1763" height="1046"
    xmlns="http://www.w3.org/2000/svg"
	xmlns:xlink="http://www.w3.org/1999/xlink" xml:space="preserve" overflow="hidden">
	<defs>
		<clipPath id="clip0">
			<rect x="2917" y="346" width="1763" height="1046"/>
		</clipPath>
	</defs>
	<g clip-path="url(#clip0)" transform="translate(-2917 -346)">
		<rect x="2918" y="347" width="1760" height="1043" fill="#FFFFFF" />
		<g>
			<path d="
			M3228.5 974.532 4296.5 974.532
			M3228.5 910.53 4296.5 910.53
			M3228.5 846.528 4296.5 846.528
			M3228.5 781.526 4296.5 781.526
			M3228.5 717.524 4296.5 717.524
			M3228.5 653.522 4296.5 653.522
			M3228.5 589.52 4296.5 589.52
			M3228.5 525.517 4296.5 525.517
			M3228.5 461.515 4296.5 461.515
			M3228.5 397.5 4296.5 397.5" stroke="#D9D9D9" stroke-width="3.4375" stroke-linejoin="round" stroke-miterlimit="10" fill="none" />
		</g>
		<g>
			<path d="M 1038.5 4296.5 1038.5" stroke="#D9D9D9" stroke-width="3.4375" stroke-linejoin="round" stroke-miterlimit="10" fill="none" fill-rule="evenodd" />
		</g>
		<g>
			<text fill="#595959" font-family="Verdana,sans-serif" font-weight="400" font-size="41" transform="matrix(6.12323e-17 -1 1 6.12323e-17 3244.5 1227)">06-Nov</text>
		</g>
		<g>
			<text fill="#595959" font-family="Verdana,sans-serif" font-weight="400" font-size="41" transform="matrix(6.12323e-17 -1 1 6.12323e-17 3329.94 1226)">20-Nov</text>
		</g>
		<g>
			<text fill="#595959" font-family="Verdana,sans-serif" font-weight="400" font-size="41" transform="matrix(6.12323e-17 -1 1 6.12323e-17 3415.38 1225)">04-Dec</text>
		</g>
		<g>
			<text fill="#595959" font-family="Verdana,sans-serif" font-weight="400" font-size="41" transform="matrix(6.12323e-17 -1 1 6.12323e-17 3500.82 1222)">18-Dec</text>
		</g>
		<g>
			<text fill="#595959" font-family="Verdana,sans-serif" font-weight="400" font-size="41" transform="matrix(6.12323e-17 -1 1 6.12323e-17 3586.26 1212)">01-Jan</text>
		</g>
		<g>
			<text fill="#595959" font-family="Verdana,sans-serif" font-weight="400" font-size="41" transform="matrix(6.12323e-17 -1 1 6.12323e-17 3671.2 1209)">15-Jan</text>
		</g>
		<g>
			<text fill="#595959" font-family="Verdana,sans-serif" font-weight="400" font-size="41" transform="matrix(6.12323e-17 -1 1 6.12323e-17 3757.14 1211)">29-Jan</text>
		</g>
		<g>
			<text fill="#595959" font-family="Verdana,sans-serif" font-weight="400" font-size="41" transform="matrix(6.12323e-17 -1 1 6.12323e-17 3842.58 1216)">12-Feb</text>
		</g>
		<g>
			<text fill="#595959" font-family="Verdana,sans-serif" font-weight="400" font-size="41" transform="matrix(6.12323e-17 -1 1 6.12323e-17 3928.02 1218)">26-Feb</text>
		</g>
		<g>
			<text fill="#595959" font-family="Verdana,sans-serif" font-weight="400" font-size="41" transform="matrix(6.12323e-17 -1 1 6.12323e-17 4012.96 1222)">11-Mar</text>
		</g>
		<g>
			<text fill="#595959" font-family="Verdana,sans-serif" font-weight="400" font-size="41" transform="matrix(6.12323e-17 -1 1 6.12323e-17 4098.9 1225)">25-Mar</text>
		</g>
		<g>
			<text fill="#595959" font-family="Verdana,sans-serif" font-weight="400" font-size="41" transform="matrix(6.12323e-17 -1 1 6.12323e-17 4187.84 1218)">08-Apr</text>
		</g>
		<g>
			<text fill="#595959" font-family="Verdana,sans-serif" font-weight="400" font-size="41" transform="matrix(6.12323e-17 -1 1 6.12323e-17 4273.28 1218)">22-Apr</text>
		</g>
		<g>
			<text fill="#595959" font-family="Verdana,sans-serif" font-weight="400" font-size="41" transform="matrix(1 0 0 1 3167.5 1050)">0</text>
		</g>
		<g>
			<text fill="#595959" font-family="Verdana,sans-serif" font-weight="400" font-size="41" transform="matrix(1 0 0 1 3049.5 922)">16,948</text>
		</g>
		<g>
			<text fill="#595959" font-family="Verdana,sans-serif" font-weight="400" font-size="41" transform="matrix(1 0 0 1 3047.5 794)">33,895</text>
		</g>
		<g>
			<text fill="#595959" font-family="Verdana,sans-serif" font-weight="400" font-size="41" transform="matrix(1 0 0 1 3047.5 666)">50,843</text>
		</g>
		<g>
			<text fill="#595959" font-family="Verdana,sans-serif" font-weight="400" font-size="41" transform="matrix(1 0 0 1 3046.5 538)">67,790</text>
		</g>
		<g>
			<text fill="#595959" font-family="Verdana,sans-serif" font-weight="400" font-size="41" transform="matrix(1 0 0 1 3045.5 410)">84,738</text>
		</g>
		<g>
			<text fill="#595959" font-family="Verdana,sans-serif" font-weight="400" font-size="41" transform="matrix(1 0 0 1 3541.5 1321)">Week Commencing</text>
		</g>
		<g>
			<text fill="#595959" font-family="Verdana,sans-serif" font-weight="400" font-size="46" transform="matrix(6.12323e-17 -1 1 6.12323e-17 3019.73 1052.75)">Number of Hardware Profiles</text>
		</g>
		<rect x="2918.5" y="347.5" width="1760" height="1043" stroke="#D9D9D9" stroke-width="3.4375" stroke-linejoin="round" stroke-miterlimit="10" fill="none" />
		<g>
			<path d="M3228.5 1038 3271.22 1038 3313.94 1038 3356.66 1038 3399.38 1038 3442.1 1038 3484.82 1038 3527.54 1038 3570.26 1038 3612.98 1038 3655.7 1038 3698.42 1038 3741.14 1038 3783.86 1038 3826.58 1038 3869.3 1038 3912.02 1038 3954.74 1038 3997.46 1038 4040.18 1038 4082.9 1038 4125.62 1038 4168.34 1038 4211.0599999999995 1038 4253.78 1038 4296.5 1038 4296.5 687.5399938634379 4253.78 687.925181146593 4211.0599999999995 688.385895348014 4168.34 688.7635299393424 4125.62 689.0958483797116 4082.9 689.3299818263353 4040.18 689.6094314239184 3997.46 689.8586702541952 3954.74 690.0474875498596 3912.02 690.2136467700441 3869.3 690.3344898392693 3826.58 690.5308598267601 3783.86 690.7347825060775 3741.14 691.2332601666312 3698.42 691.5957893743066 3655.7 692.0489508839009 3612.98 692.5172177771483 3570.26 692.8646416011707 3527.54 692.8042200665581 3484.82 693.0987750477943 3442.1 693.4386461799901 3399.38 693.7105430857466 3356.66 694.073072293422 3313.94 694.3827326583115 3271.22 694.6923930232009 3228.5 695.1833179919281 3228.5 1038Z" fill="#e62d39" opacity="0.9" />
		</g>
		<g>
			<path d="M3228.5 695.1833179919281 3271.22 694.6923930232009 3313.94 694.3827326583115 3356.66 694.073072293422 3399.38 693.7105430857466 3442.1 693.4386461799901 3484.82 693.0987750477943 3527.54 692.8042200665581 3570.26 692.8646416011707 3612.98 692.5172177771483 3655.7 692.0489508839009 3698.42 691.5957893743066 3741.14 691.2332601666312 3783.86 690.7347825060775 3826.58 690.5308598267601 3869.3 690.3344898392693 3912.02 690.2136467700441 3954.74 690.0474875498596 3997.46 689.8586702541952 4040.18 689.6094314239184 4082.9 689.3299818263353 4125.62 689.0958483797116 4168.34 688.7635299393424 4211.0599999999995 688.385895348014 4253.78 687.925181146593 4296.5 687.5399938634379 4296.5 518.1104581179636 4253.78 518.6920153886095 4211.0599999999995 519.371757653001 4168.34 519.9382095399939 4125.62 520.4366872005476 4082.9 520.7539002572635 4040.18 521.116429464939 3997.46 521.486511364441 3954.74 521.7357501947179 3912.02 522.0151997923009 3869.3 522.1964643961387 3826.58 522.4910193773749 3783.86 522.770468974958 3741.14 523.3746843210838 3698.42 523.8656092898109 3655.7 524.4471665604569 3612.98 525.0589345984091 3570.26 525.5423068753098 3527.54 525.4894380325237 3484.82 525.8595199320257 3442.1 526.3504449007529 3399.38 526.9017914040926 3356.66 527.4984540583916 3313.94 528.1479855554769 3271.22 528.7370955179495 3228.5 529.416837782341 3228.5 695.1833179919281Z" fill="#f6a118" opacity="0.9" />
		</g>
		<g>
			<path d="M3228.5 529.416837782341 3271.22 528.7370955179495 3313.94 528.1479855554769 3356.66 527.4984540583916 3399.38 526.9017914040926 3442.1 526.3504449007529 3484.82 525.8595199320257 3527.54 525.4894380325237 3570.26 525.5423068753098 3612.98 525.0589345984091 3655.7 524.4471665604569 3698.42 523.8656092898109 3741.14 523.3746843210838 3783.86 522.770468974958 3826.58 522.4910193773749 3869.3 522.1964643961387 3912.02 522.0151997923009 3954.74 521.7357501947179 3997.46 521.486511364441 4040.18 521.116429464939 4082.9 520.7539002572635 4125.62 520.4366872005476 4168.34 519.9382095399939 4211.0599999999995 519.371757653001 4253.78 518.6920153886095 4296.5 518.1104581179636 4296.5 439.5775685052751 4253.78 440.211994618707 4211.0599999999995 440.9295003422314 4168.34 441.5110576128773 4125.62 442.05485142439045 4082.9 442.3871698647595 4040.18 442.7799098397413 3997.46 443.16509712289644 3954.74 443.4218886449999 3912.02 443.72399631806263 3869.3 443.9203663055536 3826.58 444.2300266704429 3783.86 444.53968703533235 3741.14 445.1514550732847 3698.42 445.6650381174915 3655.7 446.2617007717907 3612.98 446.9338903443554 3570.26 447.4474733885624 3527.54 447.44747338856234 3484.82 447.8251079798909 3442.1 448.40666525053695 3399.38 448.9957752130095 3356.66 449.5999905591351 3313.94 450.28728551535323 3271.22 450.9368170124384 3228.5 451.6694281196159 3228.5 529.416837782341Z" fill="#55c0e9" opacity="0.9" />
		</g>
		<g>
			<path d="M3228.5 451.6694281196159 3271.22 450.9368170124384 3313.94 450.28728551535323 3356.66 449.5999905591351 3399.38 448.9957752130095 3442.1 448.40666525053695 3484.82 447.8251079798909 3527.54 447.44747338856234 3570.26 447.4474733885624 3612.98 446.9338903443554 3655.7 446.2617007717907 3698.42 445.6650381174915 3741.14 445.1514550732847 3783.86 444.53968703533235 3826.58 444.2300266704429 3869.3 443.9203663055536 3912.02 443.72399631806263 3954.74 443.4218886449999 3997.46 443.16509712289644 4040.18 442.7799098397413 4082.9 442.3871698647595 4125.62 442.05485142439045 4168.34 441.5110576128773 4211.0599999999995 440.9295003422314 4253.78 440.211994618707 4296.5 439.5775685052751 4296.5 399.38969529608914 4253.78 400.18272793787906 4211.0599999999995 400.9531025041894 4168.34 401.6555028440605 4125.62 402.2370601147065 4082.9 402.59958932238186 4040.18 403.04519814014964 3997.46 403.4530434987845 3954.74 403.83823078193967 3912.02 404.3216030588401 3869.3 404.97113455592535 3826.58 405.7641671977152 3783.86 406.20222332365637 3741.14 406.85930751256814 3698.42 407.50883900965323 3655.7 408.14326512308526 3612.98 408.9136396893954 3570.26 409.5329604191744 3527.54 409.53296041917434 3484.82 410.00122731242175 3442.1 410.6885222686398 3399.38 411.38336991668433 3356.66 412.13108640751483 3313.94 412.9543298166112 3271.22 413.6793882319621 3228.5 414.53284240836473 3228.5 451.6694281196159Z" fill="#fdd5a4" opacity="0.9" />
		</g>
		<g>
			<path d="M3228.5 414.53284240836473 3271.22 413.6793882319621 3313.94 412.9543298166112 3356.66 412.13108640751483 3399.38 411.38336991668433 3442.1 410.6885222686398 3484.82 410.00122731242175 3527.54 409.53296041917434 3570.26 409.5329604191744 3612.98 408.9136396893954 3655.7 408.14326512308526 3698.42 407.50883900965323 3741.14 406.85930751256814 3783.86 406.20222332365637 3826.58 405.7641671977152 3869.3 404.97113455592535 3912.02 404.3216030588401 3954.74 403.83823078193967 3997.46 403.4530434987845 4040.18 403.04519814014964 4082.9 402.59958932238186 4125.62 402.2370601147065 4168.34 401.6555028440605 4211.0599999999995 400.9531025041894 4253.78 400.18272793787906 4296.5 399.38969529608914 4296.5 398 4253.78 398.7930326417899 4211.0599999999995 399.5634072081003 4168.34 400.2809129316245 4125.62 400.8624702022705 4082.9 401.2249994099459 4040.18 401.67060822771367 3997.46 402.07845358634853 3954.74 402.4636408695037 3912.02 402.9470131464041 3869.3 403.5965446434894 3826.58 404.38957728527924 3783.86 404.8276334112204 3741.14 405.48471760013217 3698.42 406.13424909721726 3655.7 406.7686752106493 3612.98 407.5390497769594 3570.26 408.15837050673844 3527.54 408.1583705067384 3484.82 408.656848167292 3442.1 409.3516958153367 3399.38 410.0465434633812 3356.66 410.7942599542117 3313.94 411.6175033633081 3271.22 412.342561778659 3228.5 413.1960159550616 3228.5 414.53284240836473Z" fill="#005aa6" opacity="0.9" />
		</g>
		<g>
			<rect x="4372" y="431" width="22.9995" height="23" fill="#e62d39" />
		</g>
		<g>
			<text fill="#595959" font-family="Verdana,sans-serif" font-weight="400" font-size="41" transform="matrix(1 0 0 1 4404.56 454)">Smartphone</text>
		</g>
		<g>
			<rect x="4372" y="508" width="22.9995" height="23" fill="#f6a118" />
		</g>
		<g>
			<text fill="#595959" font-family="Verdana,sans-serif" font-weight="400" font-size="41" transform="matrix(1 0 0 1 4404.56 531)">Tablet</text>
		</g>
		<g>
			<rect x="4372" y="585" width="22.9995" height="23" fill="#55c0e9" />
		</g>
		<g>
			<text fill="#595959" font-family="Verdana,sans-serif" font-weight="400" font-size="41" transform="matrix(1 0 0 1 4404.56 608)">Other</text>
		</g>
		<g>
			<rect x="4372" y="662" width="22.9995" height="23" fill="#fdd5a4" />
		</g>
		<g>
			<text fill="#595959" font-family="Verdana,sans-serif" font-weight="400" font-size="41" transform="matrix(1 0 0 1 4404.56 685)">Tv</text>
		</g>
		<g>
			<rect x="4372" y="739" width="22.9995" height="23" fill="#005aa6" />
		</g>
		<g>
			<text fill="#595959" font-family="Verdana,sans-serif" font-weight="400" font-size="41" transform="matrix(1 0 0 1 4404.56 762)">Desktop</text>
		</g>
	</g>
</svg>
