<svg width="1763" height="1046"
    xmlns="http://www.w3.org/2000/svg"
	xmlns:xlink="http://www.w3.org/1999/xlink" xml:space="preserve" overflow="hidden">
	<defs>
		<clipPath id="clip0">
			<rect x="2917" y="346" width="1763" height="1046"/>
		</clipPath>
	</defs>
	<g clip-path="url(#clip0)" transform="translate(-2917 -346)">
		<rect x="2918" y="347" width="1760" height="1043" fill="#FFFFFF" />
		<g>
			<path d="
			M3228.5 974.532 4296.5 974.532
			M3228.5 910.53 4296.5 910.53
			M3228.5 846.528 4296.5 846.528
			M3228.5 781.526 4296.5 781.526
			M3228.5 717.524 4296.5 717.524
			M3228.5 653.522 4296.5 653.522
			M3228.5 589.52 4296.5 589.52
			M3228.5 525.517 4296.5 525.517
			M3228.5 461.515 4296.5 461.515
			M3228.5 397.5 4296.5 397.5" stroke="#D9D9D9" stroke-width="3.4375" stroke-linejoin="round" stroke-miterlimit="10" fill="none" />
		</g>
		<g>
			<path d="M 1038.5 4296.5 1038.5" stroke="#D9D9D9" stroke-width="3.4375" stroke-linejoin="round" stroke-miterlimit="10" fill="none" fill-rule="evenodd" />
		</g>
		<g>
			<text fill="#595959" font-family="Verdana,sans-serif" font-weight="400" font-size="41" transform="matrix(6.12323e-17 -1 1 6.12323e-17 3244.5 1225)">06-Nov</text>
		</g>
		<g>
			<text fill="#595959" font-family="Verdana,sans-serif" font-weight="400" font-size="41" transform="matrix(6.12323e-17 -1 1 6.12323e-17 3356.9210526315787 1223)">04-Dec</text>
		</g>
		<g>
			<text fill="#595959" font-family="Verdana,sans-serif" font-weight="400" font-size="41" transform="matrix(6.12323e-17 -1 1 6.12323e-17 3469.342105263158 1210)">01-Jan</text>
		</g>
		<g>
			<text fill="#595959" font-family="Verdana,sans-serif" font-weight="400" font-size="41" transform="matrix(6.12323e-17 -1 1 6.12323e-17 3581.7631578947367 1210)">29-Jan</text>
		</g>
		<g>
			<text fill="#595959" font-family="Verdana,sans-serif" font-weight="400" font-size="41" transform="matrix(6.12323e-17 -1 1 6.12323e-17 3694.184210526316 1216)">26-Feb</text>
		</g>
		<g>
			<text fill="#595959" font-family="Verdana,sans-serif" font-weight="400" font-size="41" transform="matrix(6.12323e-17 -1 1 6.12323e-17 3806.6052631578946 1223)">25-Mar</text>
		</g>
		<g>
			<text fill="#595959" font-family="Verdana,sans-serif" font-weight="400" font-size="41" transform="matrix(6.12323e-17 -1 1 6.12323e-17 3922.5263157894738 1216)">22-Apr</text>
		</g>
		<g>
			<text fill="#595959" font-family="Verdana,sans-serif" font-weight="400" font-size="41" transform="matrix(6.12323e-17 -1 1 6.12323e-17 4034.9473684210525 1228)">20-May</text>
		</g>
		<g>
			<text fill="#595959" font-family="Verdana,sans-serif" font-weight="400" font-size="41" transform="matrix(6.12323e-17 -1 1 6.12323e-17 4143.368421052632 1209)">17-Jun</text>
		</g>
		<g>
			<text fill="#595959" font-family="Verdana,sans-serif" font-weight="400" font-size="41" transform="matrix(6.12323e-17 -1 1 6.12323e-17 4256.289473684211 1194)">15-Jul</text>
		</g>
		<g>
			<text fill="#595959" font-family="Verdana,sans-serif" font-weight="400" font-size="41" transform="matrix(1 0 0 1 3167.5 1050)">0</text>
		</g>
		<g>
			<text fill="#595959" font-family="Verdana,sans-serif" font-weight="400" font-size="41" transform="matrix(1 0 0 1 3051.5 922)">17,189</text>
		</g>
		<g>
			<text fill="#595959" font-family="Verdana,sans-serif" font-weight="400" font-size="41" transform="matrix(1 0 0 1 3048.5 794)">34,377</text>
		</g>
		<g>
			<text fill="#595959" font-family="Verdana,sans-serif" font-weight="400" font-size="41" transform="matrix(1 0 0 1 3048.5 666)">51,566</text>
		</g>
		<g>
			<text fill="#595959" font-family="Verdana,sans-serif" font-weight="400" font-size="41" transform="matrix(1 0 0 1 3047.5 538)">68,754</text>
		</g>
		<g>
			<text fill="#595959" font-family="Verdana,sans-serif" font-weight="400" font-size="41" transform="matrix(1 0 0 1 3048.5 410)">85,943</text>
		</g>
		<g>
			<text fill="#595959" font-family="Verdana,sans-serif" font-weight="400" font-size="41" transform="matrix(1 0 0 1 3544.5 1321)">Week Commencing</text>
		</g>
		<g>
			<text fill="#595959" font-family="Verdana,sans-serif" font-weight="400" font-size="46" transform="matrix(6.12323e-17 -1 1 6.12323e-17 3019.73 1048.25)">Number of Hardware Profiles</text>
		</g>
		<rect x="2918.5" y="347.5" width="1760" height="1043" stroke="#D9D9D9" stroke-width="3.4375" stroke-linejoin="round" stroke-miterlimit="10" fill="none" />
		<g>
			<path d="M3228.5 1038 3256.6052631578946 1038 3284.7105263157896 1038 3312.815789473684 1038 3340.9210526315787 1038 3369.0263157894738 1038 3397.1315789473683 1038 3425.2368421052633 1038 3453.342105263158 1038 3481.4473684210525 1038 3509.5526315789475 1038 3537.657894736842 1038 3565.7631578947367 1038 3593.8684210526317 1038 3621.9736842105262 1038 3650.078947368421 1038 3678.184210526316 1038 3706.2894736842104 1038 3734.3947368421054 1038 3762.5 1038 3790.6052631578946 1038 3818.7105263157896 1038 3846.815789473684 1038 3874.921052631579 1038 3903.0263157894738 1038 3931.1315789473683 1038 3959.2368421052633 1038 3987.342105263158 1038 4015.4473684210525 1038 4043.5526315789475 1038 4071.657894736842 1038 4099.763157894737 1038 4127.868421052632 1038 4155.973684210527 1038 4184.078947368421 1038 4212.184210526316 1038 4240.289473684211 1038 4268.394736842105 1038 4296.5 1038 4296.5 689.2069627543838 4268.394736842105 689.5941961532644 4240.289473684211 689.9144083869542 4212.184210526316 690.2569610090409 4184.078947368421 690.5697264465983 4155.973684210527 690.8973854764204 4127.868421052632 691.1729169333163 4099.763157894737 691.2027041178455 4071.657894736842 691.3367464482274 4043.5526315789475 691.4186612056828 4015.4473684210525 691.746320235505 3987.342105263158 691.9846177117392 3959.2368421052633 692.1484472266502 3931.1315789473683 692.4537658680754 3903.0263157894738 692.8335524708236 3874.921052631579 693.2878070348952 3846.815789473684 693.6601468415113 3818.7105263157896 693.9878058713334 3790.6052631578946 694.2186565514353 3762.5 694.4941880083311 3734.3947368421054 694.7399322806978 3706.2894736842104 694.9261021840057 3678.184210526316 695.0899316989168 3650.078947368421 695.2090804370339 3621.9736842105262 695.4026971364742 3593.8684210526317 695.6037606320468 3565.7631578947367 696.09524917678 3537.657894736842 696.4526953911313 3509.5526315789475 696.8995031590705 3481.4473684210525 697.3612045192745 3453.342105263158 697.7037571413612 3425.2368421052633 697.6441827723027 3397.1315789473683 697.934607821463 3369.0263157894738 698.2697136474176 3340.9210526315787 698.537798308181 3312.815789473684 698.8952445225324 3284.7105263157896 699.2005631639574 3256.6052631578946 699.5058818053826 3228.5 699.9899235539835 3228.5 1038Z" fill="#e62d39" opacity="0.9" />
		</g>
		<g>
			<path d="M3228.5 699.9899235539835 3256.6052631578946 699.5058818053826 3284.7105263157896 699.2005631639574 3312.815789473684 698.8952445225324 3340.9210526315787 698.537798308181 3369.0263157894738 698.2697136474176 3397.1315789473683 697.934607821463 3425.2368421052633 697.6441827723027 3453.342105263158 697.7037571413612 3481.4473684210525 697.3612045192745 3509.5526315789475 696.8995031590705 3537.657894736842 696.4526953911313 3565.7631578947367 696.09524917678 3593.8684210526317 695.6037606320468 3621.9736842105262 695.4026971364742 3650.078947368421 695.2090804370339 3678.184210526316 695.0899316989168 3706.2894736842104 694.9261021840057 3734.3947368421054 694.7399322806978 3762.5 694.4941880083311 3790.6052631578946 694.2186565514353 3818.7105263157896 693.9878058713334 3846.815789473684 693.6601468415113 3874.921052631579 693.2878070348952 3903.0263157894738 692.8335524708236 3931.1315789473683 692.4537658680754 3959.2368421052633 692.1484472266502 3987.342105263158 691.9846177117392 4015.4473684210525 691.746320235505 4043.5526315789475 691.4186612056828 4071.657894736842 691.3367464482274 4099.763157894737 691.2027041178455 4127.868421052632 691.1729169333163 4155.973684210527 690.8973854764204 4184.078947368421 690.5697264465983 4212.184210526316 690.2569610090409 4240.289473684211 689.9144083869542 4268.394736842105 689.5941961532644 4296.5 689.2069627543838 4296.5 520.9242637562106 4268.394736842105 521.400858708679 4240.289473684211 521.8551132727506 4212.184210526316 522.2721338561605 4184.078947368421 522.7189416240997 4155.973684210527 522.9497923042015 4127.868421052632 523.2997917224207 4099.763157894737 523.351919295347 4071.657894736842 523.5231956063903 4043.5526315789475 523.6125571599781 4015.4473684210525 524.0817053163144 3987.342105263158 524.5359598803859 3959.2368421052633 524.9231932792665 3931.1315789473683 525.399788231735 3903.0263157894738 525.9731915339236 3874.921052631579 526.6434031858324 3846.815789473684 527.2019128957565 3818.7105263157896 527.6934014404898 3790.6052631578946 528.0061668780471 3762.5 528.3636130923985 3734.3947368421054 528.7285061028822 3706.2894736842104 528.9742503752487 3678.184210526316 529.2497818321447 3650.078947368421 529.4285049393203 3621.9736842105262 529.7189299884808 3593.8684210526317 529.9944614453766 3565.7631578947367 530.5902051359623 3537.657894736842 531.0742468845631 3509.5526315789475 531.6476501867517 3481.4473684210525 532.2508406734697 3453.342105263158 532.7274356259381 3425.2368421052633 532.675308053012 3397.1315789473683 533.0402010634955 3369.0263157894738 533.5242428120965 3340.9210526315787 534.0678589297557 3312.815789473684 534.6561558242091 3284.7105263157896 535.2965802915885 3256.6052631578946 535.8774303899096 3228.5 536.5476420418186 3228.5 699.9899235539835Z" fill="#f6a118" opacity="0.9" />
		</g>
		<g>
			<path d="M3228.5 536.5476420418186 3256.6052631578946 535.8774303899096 3284.7105263157896 535.2965802915885 3312.815789473684 534.6561558242091 3340.9210526315787 534.0678589297557 3369.0263157894738 533.5242428120965 3397.1315789473683 533.0402010634955 3425.2368421052633 532.675308053012 3453.342105263158 532.7274356259381 3481.4473684210525 532.2508406734697 3509.5526315789475 531.6476501867517 3537.657894736842 531.0742468845631 3565.7631578947367 530.5902051359623 3593.8684210526317 529.9944614453766 3621.9736842105262 529.7189299884808 3650.078947368421 529.4285049393203 3678.184210526316 529.2497818321447 3706.2894736842104 528.9742503752487 3734.3947368421054 528.7285061028822 3762.5 528.3636130923985 3790.6052631578946 528.0061668780471 3818.7105263157896 527.6934014404898 3846.815789473684 527.2019128957565 3874.921052631579 526.6434031858324 3903.0263157894738 525.9731915339236 3931.1315789473683 525.399788231735 3959.2368421052633 524.9231932792665 3987.342105263158 524.5359598803859 4015.4473684210525 524.0817053163144 4043.5526315789475 523.6125571599781 4071.657894736842 523.5231956063903 4099.763157894737 523.351919295347 4127.868421052632 523.2997917224207 4155.973684210527 522.9497923042015 4184.078947368421 522.7189416240997 4212.184210526316 522.2721338561605 4240.289473684211 521.8551132727506 4268.394736842105 521.400858708679 4296.5 520.9242637562106 4296.5 442.9860954353468 4268.394736842105 443.4775839800799 4240.289473684211 443.9616257286807 4212.184210526316 444.40843349661986 4184.078947368421 444.877581652956 4155.973684210527 445.3318362170275 4127.868421052632 445.69672922751124 4099.763157894737 445.75630359656986 4071.657894736842 445.9424734998779 4043.5526315789475 446.03928184959796 4015.4473684210525 446.5382171904635 3987.342105263158 447.03715253132896 3959.2368421052633 447.4541731147388 3931.1315789473683 447.96800204786894 3903.0263157894738 448.59353292298374 3874.921052631579 449.30097855555425 3846.815789473684 449.874381857743 3818.7105263157896 450.4105511792701 3790.6052631578946 450.73821020909213 3762.5 451.1254436079728 3734.3947368421054 451.5052302107211 3706.2894736842104 451.75842127922 3678.184210526316 452.0562931245129 3650.078947368421 452.24990982395315 3621.9736842105262 452.55522846537826 3593.8684210526317 452.8605471068034 3565.7631578947367 453.46373759352133 3537.657894736842 453.9701197305191 3509.5526315789475 454.5584166249723 3481.4473684210525 455.22118148074895 3453.342105263158 455.7275636177467 3425.2368421052633 455.7275636177468 3397.1315789473683 456.0999034243626 3369.0263157894738 456.67330672655146 3340.9210526315787 457.25415682487227 3312.815789473684 457.849900515458 3284.7105263157896 458.52755896349896 3256.6052631578946 459.1679834308786 3228.5 459.8903226557138 3228.5 536.5476420418186Z" fill="#55c0e9" opacity="0.9" />
		</g>
		<g>
			<path d="M3228.5 459.8903226557138 3256.6052631578946 459.1679834308786 3284.7105263157896 458.52755896349896 3312.815789473684 457.849900515458 3340.9210526315787 457.25415682487227 3369.0263157894738 456.67330672655146 3397.1315789473683 456.0999034243626 3425.2368421052633 455.7275636177468 3453.342105263158 455.7275636177467 3481.4473684210525 455.22118148074895 3509.5526315789475 454.5584166249723 3537.657894736842 453.9701197305191 3565.7631578947367 453.46373759352133 3593.8684210526317 452.8605471068034 3621.9736842105262 452.55522846537826 3650.078947368421 452.24990982395315 3678.184210526316 452.0562931245129 3706.2894736842104 451.75842127922 3734.3947368421054 451.5052302107211 3762.5 451.1254436079728 3790.6052631578946 450.73821020909213 3818.7105263157896 450.4105511792701 3846.815789473684 449.874381857743 3874.921052631579 449.30097855555425 3903.0263157894738 448.59353292298374 3931.1315789473683 447.96800204786894 3959.2368421052633 447.4541731147388 3987.342105263158 447.03715253132896 4015.4473684210525 446.5382171904635 4043.5526315789475 446.03928184959796 4071.657894736842 445.9424734998779 4099.763157894737 445.75630359656986 4127.868421052632 445.69672922751124 4155.973684210527 445.3318362170275 4184.078947368421 444.877581652956 4212.184210526316 444.40843349661986 4240.289473684211 443.9616257286807 4268.394736842105 443.4775839800799 4296.5 442.9860954353468 4296.5 399.370210488347 4268.394736842105 400.08510291704977 4240.289473684211 400.8223357341494 4212.184210526316 401.5521217551168 4184.078947368421 402.30424816448107 4155.973684210527 403.01169379705146 4127.868421052632 403.7191394296219 4099.763157894737 404.4191382660601 4071.657894736842 405.08934991796895 4043.5526315789475 405.7595615698777 4015.4473684210525 406.52658157150677 3987.342105263158 407.1297720582247 3959.2368421052633 407.6882817681486 3931.1315789473683 408.34359982779284 3903.0263157894738 409.1255134216864 3874.921052631579 409.8850866271831 3846.815789473684 410.577638667489 3818.7105263157896 411.1510419696777 3790.6052631578946 411.50848818402903 3762.5 411.9478491558359 3734.3947368421054 412.3499761469812 3706.2894736842104 412.7297627497295 3678.184210526316 413.2063577021981 3650.078947368421 413.8467821695776 3621.9736842105262 414.62869576347117 3593.8684210526317 415.06060993914576 3565.7631578947367 415.7084812026576 3537.657894736842 416.3489056700372 3509.5526315789475 416.974436545152 3481.4473684210525 417.7340097506488 3453.342105263158 418.344647033499 3425.2368421052633 418.3446470334991 3397.1315789473683 418.80634839370276 3369.0263157894738 419.4840068417441 3340.9210526315787 420.1691120859174 3312.815789473684 420.90634490301716 3284.7105263157896 421.71804568143995 3256.6052631578946 422.4329381101428 3228.5 423.2744260730951 3228.5 459.8903226557138Z" fill="#fdd5a4" opacity="0.9" />
		</g>
		<g>
			<path d="M3228.5 423.2744260730951 3256.6052631578946 422.4329381101428 3284.7105263157896 421.71804568143995 3312.815789473684 420.90634490301716 3340.9210526315787 420.1691120859174 3369.0263157894738 419.4840068417441 3397.1315789473683 418.80634839370276 3425.2368421052633 418.3446470334991 3453.342105263158 418.344647033499 3481.4473684210525 417.7340097506488 3509.5526315789475 416.974436545152 3537.657894736842 416.3489056700372 3565.7631578947367 415.7084812026576 3593.8684210526317 415.06060993914576 3621.9736842105262 414.62869576347117 3650.078947368421 413.8467821695776 3678.184210526316 413.2063577021981 3706.2894736842104 412.7297627497295 3734.3947368421054 412.3499761469812 3762.5 411.9478491558359 3790.6052631578946 411.50848818402903 3818.7105263157896 411.1510419696777 3846.815789473684 410.577638667489 3874.921052631579 409.8850866271831 3903.0263157894738 409.1255134216864 3931.1315789473683 408.34359982779284 3959.2368421052633 407.6882817681486 3987.342105263158 407.1297720582247 4015.4473684210525 406.52658157150677 4043.5526315789475 405.7595615698777 4071.657894736842 405.08934991796895 4099.763157894737 404.4191382660601 4127.868421052632 403.7191394296219 4155.973684210527 403.01169379705146 4184.078947368421 402.30424816448107 4212.184210526316 401.5521217551168 4240.289473684211 400.8223357341494 4268.394736842105 400.08510291704977 4296.5 399.370210488347 4296.5 398.0000000000001 4268.394736842105 398.71489242870285 4240.289473684211 399.4521252458025 4212.184210526316 400.1819112667699 4184.078947368421 400.93403767613415 4155.973684210527 401.64148330870455 4127.868421052632 402.348928941275 4099.763157894737 403.0489277777132 4071.657894736842 403.71913942962203 4043.5526315789475 404.3893510815308 4015.4473684210525 405.15637108315985 3987.342105263158 405.7595615698778 3959.2368421052633 406.3180712798017 3931.1315789473683 406.97338933944593 3903.0263157894738 407.75530293333946 3874.921052631579 408.5148761388362 3846.815789473684 409.2223217714067 3818.7105263157896 409.7957250735954 3790.6052631578946 410.15317128794675 3762.5 410.5925322597536 3734.3947368421054 410.9946592508989 3706.2894736842104 411.3744458536472 3678.184210526316 411.8510408061158 3650.078947368421 412.4914652734953 3621.9736842105262 413.2733788673889 3593.8684210526317 413.7052930430635 3565.7631578947367 414.3531643065753 3537.657894736842 414.9935887739549 3509.5526315789475 415.6191196490697 3481.4473684210525 416.3786928545665 3453.342105263158 416.9893301374167 3425.2368421052633 416.9893301374168 3397.1315789473683 417.48081868214973 3369.0263157894738 418.1659239263234 3340.9210526315787 418.8510291704967 3312.815789473684 419.58826198759647 3284.7105263157896 420.39996276601926 3256.6052631578946 421.1148551947221 3228.5 421.95634315767444 3228.5 423.2744260730951Z" fill="#005aa6" opacity="0.9" />
		</g>
		<g>
			<rect x="4372" y="431" width="22.9995" height="23" fill="#e62d39" />
		</g>
		<g>
			<text fill="#595959" font-family="Verdana,sans-serif" font-weight="400" font-size="41" transform="matrix(1 0 0 1 4404.56 454)">Smartphone</text>
		</g>
		<g>
			<rect x="4372" y="508" width="22.9995" height="23" fill="#f6a118" />
		</g>
		<g>
			<text fill="#595959" font-family="Verdana,sans-serif" font-weight="400" font-size="41" transform="matrix(1 0 0 1 4404.56 531)">Tablet</text>
		</g>
		<g>
			<rect x="4372" y="585" width="22.9995" height="23" fill="#55c0e9" />
		</g>
		<g>
			<text fill="#595959" font-family="Verdana,sans-serif" font-weight="400" font-size="41" transform="matrix(1 0 0 1 4404.56 608)">Other</text>
		</g>
		<g>
			<rect x="4372" y="662" width="22.9995" height="23" fill="#fdd5a4" />
		</g>
		<g>
			<text fill="#595959" font-family="Verdana,sans-serif" font-weight="400" font-size="41" transform="matrix(1 0 0 1 4404.56 685)">Tv</text>
		</g>
		<g>
			<rect x="4372" y="739" width="22.9995" height="23" fill="#005aa6" />
		</g>
		<g>
			<text fill="#595959" font-family="Verdana,sans-serif" font-weight="400" font-size="41" transform="matrix(1 0 0 1 4404.56 762)">Desktop</text>
		</g>
	</g>
</svg>
