<svg width="1763" height="1046"
    xmlns="http://www.w3.org/2000/svg"
	xmlns:xlink="http://www.w3.org/1999/xlink" xml:space="preserve" overflow="hidden">
	<defs>
		<clipPath id="clip0">
			<rect x="2917" y="346" width="1763" height="1046"/>
		</clipPath>
	</defs>
	<g clip-path="url(#clip0)" transform="translate(-2917 -346)">
		<rect x="2918" y="347" width="1760" height="1043" fill="#FFFFFF" />
		<g>
			<path d="
			M3228.5 974.532 4296.5 974.532
			M3228.5 910.53 4296.5 910.53
			M3228.5 846.528 4296.5 846.528
			M3228.5 781.526 4296.5 781.526
			M3228.5 717.524 4296.5 717.524
			M3228.5 653.522 4296.5 653.522
			M3228.5 589.52 4296.5 589.52
			M3228.5 525.517 4296.5 525.517
			M3228.5 461.515 4296.5 461.515
			M3228.5 397.5 4296.5 397.5" stroke="#D9D9D9" stroke-width="3.4375" stroke-linejoin="round" stroke-miterlimit="10" fill="none" />
		</g>
		<g>
			<path d="M 1038.5 4296.5 1038.5" stroke="#D9D9D9" stroke-width="3.4375" stroke-linejoin="round" stroke-miterlimit="10" fill="none" fill-rule="evenodd" />
		</g>
		<g>
			<text fill="#595959" font-family="Verdana,sans-serif" font-weight="400" font-size="41" transform="matrix(6.12323e-17 -1 1 6.12323e-17 3244.5 1211)">03-Jun</text>
		</g>
		<g>
			<text fill="#595959" font-family="Verdana,sans-serif" font-weight="400" font-size="41" transform="matrix(6.12323e-17 -1 1 6.12323e-17 3329.94 1197)">01-Jul</text>
		</g>
		<g>
			<text fill="#595959" font-family="Verdana,sans-serif" font-weight="400" font-size="41" transform="matrix(6.12323e-17 -1 1 6.12323e-17 3415.38 1196)">29-Jul</text>
		</g>
		<g>
			<text fill="#595959" font-family="Verdana,sans-serif" font-weight="400" font-size="41" transform="matrix(6.12323e-17 -1 1 6.12323e-17 3504.32 1221)">26-Aug</text>
		</g>
		<g>
			<text fill="#595959" font-family="Verdana,sans-serif" font-weight="400" font-size="41" transform="matrix(6.12323e-17 -1 1 6.12323e-17 3589.76 1221)">23-Sep</text>
		</g>
		<g>
			<text fill="#595959" font-family="Verdana,sans-serif" font-weight="400" font-size="41" transform="matrix(6.12323e-17 -1 1 6.12323e-17 3671.7 1215)">21-Oct</text>
		</g>
		<g>
			<text fill="#595959" font-family="Verdana,sans-serif" font-weight="400" font-size="41" transform="matrix(6.12323e-17 -1 1 6.12323e-17 3757.14 1222)">18-Nov</text>
		</g>
		<g>
			<text fill="#595959" font-family="Verdana,sans-serif" font-weight="400" font-size="41" transform="matrix(6.12323e-17 -1 1 6.12323e-17 3842.58 1222)">23-Dec</text>
		</g>
		<g>
			<text fill="#595959" font-family="Verdana,sans-serif" font-weight="400" font-size="41" transform="matrix(6.12323e-17 -1 1 6.12323e-17 3928.02 1210)">20-Jan</text>
		</g>
		<g>
			<text fill="#595959" font-family="Verdana,sans-serif" font-weight="400" font-size="41" transform="matrix(6.12323e-17 -1 1 6.12323e-17 4013.46 1214)">17-Feb</text>
		</g>
		<g>
			<text fill="#595959" font-family="Verdana,sans-serif" font-weight="400" font-size="41" transform="matrix(6.12323e-17 -1 1 6.12323e-17 4098.4 1221)">17-Mar</text>
		</g>
		<g>
			<text fill="#595959" font-family="Verdana,sans-serif" font-weight="400" font-size="41" transform="matrix(6.12323e-17 -1 1 6.12323e-17 4187.84 1214)">14-Apr</text>
		</g>
		<g>
			<text fill="#595959" font-family="Verdana,sans-serif" font-weight="400" font-size="41" transform="matrix(6.12323e-17 -1 1 6.12323e-17 4273.28 1226)">12-May</text>
		</g>
		<g>
			<text fill="#595959" font-family="Verdana,sans-serif" font-weight="400" font-size="41" transform="matrix(1 0 0 1 3123.5 1050)">0%</text>
		</g>
		<g>
			<text fill="#595959" font-family="Verdana,sans-serif" font-weight="400" font-size="41" transform="matrix(1 0 0 1 3097.5 922)">20%</text>
		</g>
		<g>
			<text fill="#595959" font-family="Verdana,sans-serif" font-weight="400" font-size="41" transform="matrix(1 0 0 1 3096.5 794)">40%</text>
		</g>
		<g>
			<text fill="#595959" font-family="Verdana,sans-serif" font-weight="400" font-size="41" transform="matrix(1 0 0 1 3097.5 666)">60%</text>
		</g>
		<g>
			<text fill="#595959" font-family="Verdana,sans-serif" font-weight="400" font-size="41" transform="matrix(1 0 0 1 3097.5 538)">80%</text>
		</g>
		<g>
			<text fill="#595959" font-family="Verdana,sans-serif" font-weight="400" font-size="41" transform="matrix(1 0 0 1 3074.5 410)">100%</text>
		</g>
		<g>
			<text fill="#595959" font-family="Verdana,sans-serif" font-weight="400" font-size="41" transform="matrix(1 0 0 1 3544.5 1321)">Week Commencing</text>
		</g>
		<g>
			<text fill="#595959" font-family="Verdana,sans-serif" font-weight="400" font-size="46" transform="matrix(6.12323e-17 -1 1 6.12323e-17 3019.73 965.25)">Requests (% of Total)</text>
		</g>
		<rect x="2918.5" y="347.5" width="1760" height="1043" stroke="#D9D9D9" stroke-width="3.4375" stroke-linejoin="round" stroke-miterlimit="10" fill="none" />
		<g>
			<path d="M3228.5 1038 3249.86 1038 3271.22 1038 3292.58 1038 3313.94 1038 3335.3 1038 3356.66 1038 3378.02 1038 3399.38 1038 3420.74 1038 3442.1 1038 3463.46 1038 3484.82 1038 3506.18 1038 3527.54 1038 3548.9 1038 3570.26 1038 3591.62 1038 3612.98 1038 3634.34 1038 3655.7 1038 3677.06 1038 3698.42 1038 3719.7799999999997 1038 3741.14 1038 3762.5 1038 3783.86 1038 3805.2200000000003 1038 3826.58 1038 3847.94 1038 3869.3 1038 3890.66 1038 3912.02 1038 3933.38 1038 3954.74 1038 3976.1 1038 3997.46 1038 4018.8199999999997 1038 4040.18 1038 4061.54 1038 4082.9 1038 4104.26 1038 4125.62 1038 4146.98 1038 4168.34 1038 4189.7 1038 4211.0599999999995 1038 4232.42 1038 4253.78 1038 4275.139999999999 1038 4296.5 1038 4296.5 527.7344479046612 4275.139999999999 528.0922596265774 4253.78 528.3637575953018 4232.42 528.4473950245434 4211.0599999999995 528.3817437118579 4189.7 528.3209049784523 4168.34 528.6035113858115 4146.98 529.0722280244075 4125.62 529.4214956662862 4104.26 529.807429199031 4082.9 533.5058286789898 4061.54 533.4031264720519 4040.18 533.4021762961523 4018.8199999999997 533.7756525096236 3997.46 533.8956466575289 3976.1 533.9572095457534 3954.74 533.4841990448925 3933.38 533.4528010722697 3912.02 533.722746014736 3890.66 533.7853664259474 3869.3 533.8294455926118 3847.94 533.7499584959044 3826.58 533.5577242345337 3805.2200000000003 533.3794235575219 3783.86 533.1839579715512 3762.5 532.7385960569093 3741.14 532.9945218339117 3719.7799999999997 533.5883597667535 3698.42 534.4892592748513 3677.06 535.2648007319358 3655.7 642.4592997578948 3634.34 641.7348258019537 3612.98 641.0274072878076 3591.62 640.0328656683237 3570.26 638.7439704461906 3548.9 637.5953366301156 3527.54 636.388984334016 3506.18 635.2830954215428 3484.82 634.2801376637599 3463.46 633.5123019251453 3442.1 632.703376074059 3420.74 631.9415100696045 3399.38 630.857109120077 3378.02 629.6835942752446 3356.66 628.7570391925642 3335.3 627.5176878063296 3313.94 626.3963136974012 3292.58 625.2428890685153 3271.22 624.0667377001988 3249.86 622.80172023452 3228.5 632.4054355541638 3228.5 1038Z" fill="#e62d39" opacity="0.9" />
		</g>
		<g>
			<path d="M3228.5 632.4054355541638 3249.86 622.80172023452 3271.22 624.0667377001988 3292.58 625.2428890685153 3313.94 626.3963136974012 3335.3 627.5176878063296 3356.66 628.7570391925642 3378.02 629.6835942752446 3399.38 630.857109120077 3420.74 631.9415100696045 3442.1 632.703376074059 3463.46 633.5123019251453 3484.82 634.2801376637599 3506.18 635.2830954215428 3527.54 636.388984334016 3548.9 637.5953366301156 3570.26 638.7439704461906 3591.62 640.0328656683237 3612.98 641.0274072878076 3634.34 641.7348258019537 3655.7 642.4592997578948 3677.06 535.2648007319358 3698.42 534.4892592748513 3719.7799999999997 533.5883597667535 3741.14 532.9945218339117 3762.5 532.7385960569093 3783.86 533.1839579715512 3805.2200000000003 533.3794235575219 3826.58 533.5577242345337 3847.94 533.7499584959044 3869.3 533.8294455926118 3890.66 533.7853664259474 3912.02 533.722746014736 3933.38 533.4528010722697 3954.74 533.4841990448925 3976.1 533.9572095457534 3997.46 533.8956466575289 4018.8199999999997 533.7756525096236 4040.18 533.4021762961523 4061.54 533.4031264720519 4082.9 533.5058286789898 4104.26 529.807429199031 4125.62 529.4214956662862 4146.98 529.0722280244075 4168.34 528.6035113858115 4189.7 528.3209049784523 4211.0599999999995 528.3817437118579 4232.42 528.4473950245434 4253.78 528.3637575953018 4275.139999999999 528.0922596265774 4296.5 527.7344479046612 4296.5 441.4805241599953 4275.139999999999 441.7146387359797 4253.78 441.87434560441795 4232.42 442.00506484989137 4211.0599999999995 442.0536403247141 4189.7 442.1004848135459 4168.34 442.29078701208255 4146.98 442.5177613549289 4125.62 442.75370380577044 4104.26 443.0039649820596 4082.9 447.2266118196212 4061.54 447.3367564362345 4040.18 447.478410212555 4018.8199999999997 447.7812344269998 3997.46 447.9735867247491 3976.1 448.11744019003095 3954.74 447.90712750570685 3933.38 447.65114758474357 3912.02 447.63691579979616 3890.66 447.6548818464415 3869.3 447.68514400974766 3847.94 447.6730658977694 3826.58 447.6266609249292 3805.2200000000003 447.6323779302626 3783.86 447.6574339250563 3762.5 447.5983732210459 3741.14 447.82372841614773 3719.7799999999997 448.23400972704667 3698.42 448.85972838125235 3677.06 449.3446349967366 3655.7 564.013087594675 3634.34 563.0569322713101 3612.98 562.1201699126104 3591.62 560.9592369816268 3570.26 559.5178863272408 3548.9 558.0421991553968 3527.54 556.6183211021491 3506.18 555.218566955861 3484.82 553.8747604661306 3463.46 552.795294537007 3442.1 551.5476668303065 3420.74 550.4510715595417 3399.38 549.056064697407 3378.02 547.7069248917836 3356.66 546.4892681197156 3335.3 545.0068552240035 3313.94 543.5872074138473 3292.58 542.2071477253921 3271.22 540.7523658360859 3249.86 539.1846046453284 3228.5 550.69398337688 3228.5 632.4054355541638Z" fill="#005aa6" opacity="0.9" />
		</g>
		<g>
			<path d="M3228.5 550.69398337688 3249.86 539.1846046453284 3271.22 540.7523658360859 3292.58 542.2071477253921 3313.94 543.5872074138473 3335.3 545.0068552240035 3356.66 546.4892681197156 3378.02 547.7069248917836 3399.38 549.056064697407 3420.74 550.4510715595417 3442.1 551.5476668303065 3463.46 552.795294537007 3484.82 553.8747604661306 3506.18 555.218566955861 3527.54 556.6183211021491 3548.9 558.0421991553968 3570.26 559.5178863272408 3591.62 560.9592369816268 3612.98 562.1201699126104 3634.34 563.0569322713101 3655.7 564.013087594675 3677.06 449.3446349967366 3698.42 448.85972838125235 3719.7799999999997 448.23400972704667 3741.14 447.82372841614773 3762.5 447.5983732210459 3783.86 447.6574339250563 3805.2200000000003 447.6323779302626 3826.58 447.6266609249292 3847.94 447.6730658977694 3869.3 447.68514400974766 3890.66 447.6548818464415 3912.02 447.63691579979616 3933.38 447.65114758474357 3954.74 447.90712750570685 3976.1 448.11744019003095 3997.46 447.9735867247491 4018.8199999999997 447.7812344269998 4040.18 447.478410212555 4061.54 447.3367564362345 4082.9 447.2266118196212 4104.26 443.0039649820596 4125.62 442.75370380577044 4146.98 442.5177613549289 4168.34 442.29078701208255 4189.7 442.1004848135459 4211.0599999999995 442.0536403247141 4232.42 442.00506484989137 4253.78 441.87434560441795 4275.139999999999 441.7146387359797 4296.5 441.4805241599953 4296.5 425.4986687976815 4275.139999999999 425.6867840212037 4253.78 425.8119685721377 4232.42 425.9104888133743 4211.0599999999995 425.92679886960804 4189.7 425.94362826788443 4168.34 426.1140510532148 4146.98 426.3120783472338 4125.62 426.5518003809951 4104.26 426.81320471249694 4082.9 431.1686011749783 4061.54 431.3401421096995 4040.18 431.5247092372164 4018.8199999999997 431.81676347027957 3997.46 431.99440912392726 3976.1 432.1329946808099 3954.74 432.00359297169024 3933.38 431.84731630596053 3912.02 431.8659139096981 3890.66 431.93242137634724 3869.3 431.9599475077045 3847.94 431.9558731937295 3826.58 431.9405589448202 3805.2200000000003 431.96727576259724 3783.86 432.02029212049626 3762.5 431.97528739378606 3741.14 432.15561530771527 3719.7799999999997 432.4754364071281 3698.42 433.0084053536388 3677.06 433.3913361237896 3655.7 540.8290503164301 3634.34 539.7717503889384 3612.98 538.7148538649283 3591.62 537.4631522646897 3570.26 535.9474999414622 3548.9 534.3593851680338 3527.54 532.8484801447386 3506.18 531.3863925452272 3484.82 529.9440403710025 3463.46 528.7702332186351 3442.1 527.9710368276562 3420.74 526.7914366981524 3399.38 525.3123672531278 3378.02 523.9349092321237 3356.66 522.6767257917172 3335.3 521.1207351787452 3313.94 519.5911430965305 3292.58 518.1357144384516 3271.22 516.5996074824589 3249.86 514.9659833917357 3228.5 527.0438985976282 3228.5 550.69398337688Z" fill="#55c0e9" opacity="0.9" />
		</g>
		<g>
			<path d="M3228.5 527.0438985976282 3249.86 514.9659833917357 3271.22 516.5996074824589 3292.58 518.1357144384516 3313.94 519.5911430965305 3335.3 521.1207351787452 3356.66 522.6767257917172 3378.02 523.9349092321237 3399.38 525.3123672531278 3420.74 526.7914366981524 3442.1 527.9710368276562 3463.46 528.7702332186351 3484.82 529.9440403710025 3506.18 531.3863925452272 3527.54 532.8484801447386 3548.9 534.3593851680338 3570.26 535.9474999414622 3591.62 537.4631522646897 3612.98 538.7148538649283 3634.34 539.7717503889384 3655.7 540.8290503164301 3677.06 433.3913361237896 3698.42 433.0084053536388 3719.7799999999997 432.4754364071281 3741.14 432.15561530771527 3762.5 431.97528739378606 3783.86 432.02029212049626 3805.2200000000003 431.96727576259724 3826.58 431.9405589448202 3847.94 431.9558731937295 3869.3 431.9599475077045 3890.66 431.93242137634724 3912.02 431.8659139096981 3933.38 431.84731630596053 3954.74 432.00359297169024 3976.1 432.1329946808099 3997.46 431.99440912392726 4018.8199999999997 431.81676347027957 4040.18 431.5247092372164 4061.54 431.3401421096995 4082.9 431.1686011749783 4104.26 426.81320471249694 4125.62 426.5518003809951 4146.98 426.3120783472338 4168.34 426.1140510532148 4189.7 425.94362826788443 4211.0599999999995 425.92679886960804 4232.42 425.9104888133743 4253.78 425.8119685721377 4275.139999999999 425.6867840212037 4296.5 425.4986687976815 4296.5 410.9689719408518 4275.139999999999 411.04822058755076 4253.78 411.09796238059005 4232.42 411.13309600464333 4211.0599999999995 411.08525540240214 4189.7 411.0502804931489 4168.34 411.15507042479464 4146.98 411.2715831935364 4125.62 411.39453051492376 4104.26 411.52533019336687 4082.9 415.89173436048446 4061.54 415.95861191477786 4040.18 416.055066900616 4018.8199999999997 416.2345639289736 3997.46 416.4071449754411 3976.1 416.47817812627426 3954.74 416.34836086389726 3933.38 416.1564242259188 3912.02 416.1235996870702 3890.66 416.0562889706207 3869.3 416.0954395000898 3847.94 416.0465069983401 3826.58 416.000160121671 3805.2200000000003 416.0062420628137 3783.86 416.05161909433286 3762.5 415.99893833884835 3741.14 416.12431960001913 3719.7799999999997 416.33420162951643 3698.42 416.71311285195446 3677.06 416.98069451994184 3655.7 523.7363657522843 3634.34 522.5716439040438 3612.98 521.4074163425901 3591.62 520.0402408469882 3570.26 518.4759534407176 3548.9 516.9133817380589 3527.54 515.447116697529 3506.18 514.0614365046936 3484.82 512.7024056997157 3463.46 511.5800205959148 3442.1 510.82918253556556 3420.74 509.7179568015223 3399.38 508.3175496659528 3378.02 507.0170454704227 3356.66 505.81218353227047 3335.3 504.3173344906431 3313.94 502.8338970689489 3292.58 501.4426511937707 3271.22 499.97387766322737 3249.86 498.4242329984132 3228.5 510.99365573350235 3228.5 527.0438985976282Z" fill="#f6a118" opacity="0.9" />
		</g>
		<g>
			<path d="M3228.5 510.99365573350235 3249.86 498.4242329984132 3271.22 499.97387766322737 3292.58 501.4426511937707 3313.94 502.8338970689489 3335.3 504.3173344906431 3356.66 505.81218353227047 3378.02 507.0170454704227 3399.38 508.3175496659528 3420.74 509.7179568015223 3442.1 510.82918253556556 3463.46 511.5800205959148 3484.82 512.7024056997157 3506.18 514.0614365046936 3527.54 515.447116697529 3548.9 516.9133817380589 3570.26 518.4759534407176 3591.62 520.0402408469882 3612.98 521.4074163425901 3634.34 522.5716439040438 3655.7 523.7363657522843 3677.06 416.98069451994184 3698.42 416.71311285195446 3719.7799999999997 416.33420162951643 3741.14 416.12431960001913 3762.5 415.99893833884835 3783.86 416.05161909433286 3805.2200000000003 416.0062420628137 3826.58 416.000160121671 3847.94 416.0465069983401 3869.3 416.0954395000898 3890.66 416.0562889706207 3912.02 416.1235996870702 3933.38 416.1564242259188 3954.74 416.34836086389726 3976.1 416.47817812627426 3997.46 416.4071449754411 4018.8199999999997 416.2345639289736 4040.18 416.055066900616 4061.54 415.95861191477786 4082.9 415.89173436048446 4104.26 411.52533019336687 4125.62 411.39453051492376 4146.98 411.2715831935364 4168.34 411.15507042479464 4189.7 411.0502804931489 4211.0599999999995 411.08525540240214 4232.42 411.13309600464333 4253.78 411.09796238059005 4275.139999999999 411.04822058755076 4296.5 410.9689719408518 4296.5 402.32705082967294 4275.139999999999 402.3105155472352 4253.78 402.3328782432905 4232.42 402.29313148871324 4211.0599999999995 402.27347913416367 4189.7 402.24951221526595 4168.34 402.264400535425 4146.98 402.2771754039698 4125.62 402.3026796088189 4104.26 402.31237144781545 4082.9 406.6903311154683 4061.54 406.6504534424193 4040.18 406.63653513437157 4018.8199999999997 406.73881659701254 3997.46 406.7913155812626 3976.1 406.7895314471883 3954.74 406.7538978821639 3933.38 406.6419996355151 3912.02 406.66475151485594 3890.66 406.64954838762975 3869.3 406.6900606081659 3847.94 406.67423043388266 3826.58 406.6442240275461 3805.2200000000003 406.6769627823681 3783.86 406.7486576922467 3762.5 406.88204596503937 3741.14 407.2984950463532 3719.7799999999997 407.42058087187377 3698.42 407.6496849699309 3677.06 407.85452807822685 3655.7 510.457001187623 3634.34 509.25430348013276 3612.98 508.03326088042445 3591.62 506.6178498444704 3570.26 505.0214210075742 3548.9 503.4488995208447 3527.54 501.99414638500895 3506.18 500.6747796739521 3484.82 499.3250304832202 3463.46 498.1994618351249 3442.1 497.43345523107604 3420.74 496.34925589643314 3399.38 495.0253467220932 3378.02 493.7905717710478 3356.66 492.5921558346354 3335.3 491.08339968159794 3313.94 489.589994805443 3292.58 488.205911277506 3271.22 486.75823132244886 3249.86 485.3927174126073 3228.5 498.4720025363811 3228.5 510.99365573350235Z" fill="#fdd5a4" opacity="0.9" />
		</g>
		<g>
			<path d="M3228.5 498.4720025363811 3249.86 485.3927174126073 3271.22 486.75823132244886 3292.58 488.205911277506 3313.94 489.589994805443 3335.3 491.08339968159794 3356.66 492.5921558346354 3378.02 493.7905717710478 3399.38 495.0253467220932 3420.74 496.34925589643314 3442.1 497.43345523107604 3463.46 498.1994618351249 3484.82 499.3250304832202 3506.18 500.6747796739521 3527.54 501.99414638500895 3548.9 503.4488995208447 3570.26 505.0214210075742 3591.62 506.6178498444704 3612.98 508.03326088042445 3634.34 509.25430348013276 3655.7 510.457001187623 3677.06 407.85452807822685 3698.42 407.6496849699309 3719.7799999999997 407.42058087187377 3741.14 407.2984950463532 3762.5 406.88204596503937 3783.86 406.7486576922467 3805.2200000000003 406.6769627823681 3826.58 406.6442240275461 3847.94 406.67423043388266 3869.3 406.6900606081659 3890.66 406.64954838762975 3912.02 406.66475151485594 3933.38 406.6419996355151 3954.74 406.7538978821639 3976.1 406.7895314471883 3997.46 406.7913155812626 4018.8199999999997 406.73881659701254 4040.18 406.63653513437157 4061.54 406.6504534424193 4082.9 406.6903311154683 4104.26 402.31237144781545 4125.62 402.3026796088189 4146.98 402.2771754039698 4168.34 402.264400535425 4189.7 402.24951221526595 4211.0599999999995 402.27347913416367 4232.42 402.29313148871324 4253.78 402.3328782432905 4275.139999999999 402.3105155472352 4296.5 402.32705082967294 4296.5 398.0000000000001 4275.139999999999 398.0000000000001 4253.78 398 4232.42 398 4211.0599999999995 398.00000000000006 4189.7 398.0000000000001 4168.34 398 4146.98 397.99999999999994 4125.62 398 4104.26 397.99999999999994 4082.9 398 4061.54 398 4040.18 398 4018.8199999999997 398.0000000000001 3997.46 398.00000000000006 3976.1 398 3954.74 398 3933.38 398 3912.02 398 3890.66 397.99999999999994 3869.3 398 3847.94 398.0000000000001 3826.58 398.00000000000006 3805.2200000000003 398 3783.86 397.9999999999999 3762.5 398 3741.14 397.99999999999994 3719.7799999999997 398.0000000000001 3698.42 397.99999999999994 3677.06 398.00000000000006 3655.7 398 3634.34 397.9999999999999 3612.98 398 3591.62 397.99999999999983 3570.26 398.0000000000001 3548.9 397.99999999999994 3527.54 397.9999999999999 3506.18 398.0000000000001 3484.82 398 3463.46 397.9999999999999 3442.1 397.99999999999994 3420.74 398.00000000000006 3399.38 398.00000000000006 3378.02 398 3356.66 397.9999999999999 3335.3 398 3313.94 397.9999999999999 3292.58 397.9999999999999 3271.22 398.00000000000006 3249.86 398 3228.5 398 3228.5 498.4720025363811Z" fill="#393d41" opacity="0.9" />
		</g>
		<g>
			<rect x="4372" y="431" width="22.9995" height="23" fill="#e62d39" />
		</g>
		<g>
			<text fill="#595959" font-family="Verdana,sans-serif" font-weight="400" font-size="41" transform="matrix(1 0 0 1 4404.56 454)">Smartphone</text>
		</g>
		<g>
			<rect x="4372" y="508" width="22.9995" height="23" fill="#005aa6" />
		</g>
		<g>
			<text fill="#595959" font-family="Verdana,sans-serif" font-weight="400" font-size="41" transform="matrix(1 0 0 1 4404.56 531)">Desktop</text>
		</g>
		<g>
			<rect x="4372" y="585" width="22.9995" height="23" fill="#55c0e9" />
		</g>
		<g>
			<text fill="#595959" font-family="Verdana,sans-serif" font-weight="400" font-size="41" transform="matrix(1 0 0 1 4404.56 608)">Other</text>
		</g>
		<g>
			<rect x="4372" y="662" width="22.9995" height="23" fill="#f6a118" />
		</g>
		<g>
			<text fill="#595959" font-family="Verdana,sans-serif" font-weight="400" font-size="41" transform="matrix(1 0 0 1 4404.56 685)">Tablet</text>
		</g>
		<g>
			<rect x="4372" y="739" width="22.9995" height="23" fill="#fdd5a4" />
		</g>
		<g>
			<text fill="#595959" font-family="Verdana,sans-serif" font-weight="400" font-size="41" transform="matrix(1 0 0 1 4404.56 762)">Tv</text>
		</g>
		<g>
			<rect x="4372" y="816" width="22.9995" height="23" fill="#393d41" />
		</g>
		<g>
			<text fill="#595959" font-family="Verdana,sans-serif" font-weight="400" font-size="41" transform="matrix(1 0 0 1 4404.56 839)">Unclassified</text>
		</g>
	</g>
</svg>
