<svg width="1763" height="1046"
    xmlns="http://www.w3.org/2000/svg"
	xmlns:xlink="http://www.w3.org/1999/xlink" xml:space="preserve" overflow="hidden">
	<defs>
		<clipPath id="clip0">
			<rect x="2917" y="346" width="1763" height="1046"/>
		</clipPath>
	</defs>
	<g clip-path="url(#clip0)" transform="translate(-2917 -346)">
		<rect x="2918" y="347" width="1760" height="1043" fill="#FFFFFF" />
		<g>
			<path d="
			M3228.5 974.532 4296.5 974.532
			M3228.5 910.53 4296.5 910.53
			M3228.5 846.528 4296.5 846.528
			M3228.5 781.526 4296.5 781.526
			M3228.5 717.524 4296.5 717.524
			M3228.5 653.522 4296.5 653.522
			M3228.5 589.52 4296.5 589.52
			M3228.5 525.517 4296.5 525.517
			M3228.5 461.515 4296.5 461.515
			M3228.5 397.5 4296.5 397.5" stroke="#D9D9D9" stroke-width="3.4375" stroke-linejoin="round" stroke-miterlimit="10" fill="none" />
		</g>
		<g>
			<path d="M 1038.5 4296.5 1038.5" stroke="#D9D9D9" stroke-width="3.4375" stroke-linejoin="round" stroke-miterlimit="10" fill="none" fill-rule="evenodd" />
		</g>
		<g>
			<text fill="#595959" font-family="Verdana,Open Sans,DejaVu Sans,sans-serif" font-weight="400" font-size="41" transform="matrix(6.12323e-17 -1 1 6.12323e-17 3248.269287109375 1206.90576171875)">19-Aug</text>
		</g>
		<g>
			<text fill="#595959" font-family="Verdana,Open Sans,DejaVu Sans,sans-serif" font-weight="400" font-size="41" transform="matrix(6.12323e-17 -1 1 6.12323e-17 3335.452960578763 1202.66162109375)">16-Sep</text>
		</g>
		<g>
			<text fill="#595959" font-family="Verdana,Open Sans,DejaVu Sans,sans-serif" font-weight="400" font-size="41" transform="matrix(6.12323e-17 -1 1 6.12323e-17 3417.9320442044004 1199.3784103393555)">14-Oct</text>
		</g>
		<g>
			<text fill="#595959" font-family="Verdana,Open Sans,DejaVu Sans,sans-serif" font-weight="400" font-size="41" transform="matrix(6.12323e-17 -1 1 6.12323e-17 3504.8854930644134 1209.70849609375)">11-Nov</text>
		</g>
		<g>
			<text fill="#595959" font-family="Verdana,Open Sans,DejaVu Sans,sans-serif" font-weight="400" font-size="41" transform="matrix(6.12323e-17 -1 1 6.12323e-17 3592.279371611926 1205.3642578125)">16-Dec</text>
		</g>
		<g>
			<text fill="#595959" font-family="Verdana,Open Sans,DejaVu Sans,sans-serif" font-weight="400" font-size="41" transform="matrix(6.12323e-17 -1 1 6.12323e-17 3683.116609534439 1189.9291915893555)">13-Jan</text>
		</g>
		<g>
			<text fill="#595959" font-family="Verdana,Open Sans,DejaVu Sans,sans-serif" font-weight="400" font-size="41" transform="matrix(6.12323e-17 -1 1 6.12323e-17 3767.3774314413267 1201.3203125)">10-Feb</text>
		</g>
		<g>
			<text fill="#595959" font-family="Verdana,Open Sans,DejaVu Sans,sans-serif" font-weight="400" font-size="41" transform="matrix(6.12323e-17 -1 1 6.12323e-17 3853.850411551339 1210.2890625)">10-Mar</text>
		</g>
		<g>
			<text fill="#595959" font-family="Verdana,Open Sans,DejaVu Sans,sans-serif" font-weight="400" font-size="41" transform="matrix(6.12323e-17 -1 1 6.12323e-17 3945.758694395727 1203.2621994018555)">07-Apr</text>
		</g>
		<g>
			<text fill="#595959" font-family="Verdana,Open Sans,DejaVu Sans,sans-serif" font-weight="400" font-size="41" transform="matrix(6.12323e-17 -1 1 6.12323e-17 4032.9423678651146 1216.47509765625)">05-May</text>
		</g>
		<g>
			<text fill="#595959" font-family="Verdana,Open Sans,DejaVu Sans,sans-serif" font-weight="400" font-size="41" transform="matrix(6.12323e-17 -1 1 6.12323e-17 4119.054996412628 1194.0131759643555)">09-Jun</text>
		</g>
		<g>
			<text fill="#595959" font-family="Verdana,Open Sans,DejaVu Sans,sans-serif" font-weight="400" font-size="41" transform="matrix(6.12323e-17 -1 1 6.12323e-17 4206.9493632413905 1178.9985275268555)">07-Jul</text>
		</g>
		<g>
			<text fill="#595959" font-family="Verdana,Open Sans,DejaVu Sans,sans-serif" font-weight="400" font-size="41" transform="matrix(6.12323e-17 -1 1 6.12323e-17 4294.4933882732785 1208.62744140625)">04-Aug</text>
		</g>
		<g>
			<text fill="#595959" font-family="Verdana,Open Sans,DejaVu Sans,sans-serif" font-weight="400" font-size="41" transform="matrix(1 0 0 1 3169.14111328125 1050)">0</text>
		</g>
		<g>
			<text fill="#595959" font-family="Verdana,Open Sans,DejaVu Sans,sans-serif" font-weight="400" font-size="41" transform="matrix(1 0 0 1 3067.2016677856445 922)">18,209</text>
		</g>
		<g>
			<text fill="#595959" font-family="Verdana,Open Sans,DejaVu Sans,sans-serif" font-weight="400" font-size="41" transform="matrix(1 0 0 1 3065.2397537231445 794)">36,418</text>
		</g>
		<g>
			<text fill="#595959" font-family="Verdana,Open Sans,DejaVu Sans,sans-serif" font-weight="400" font-size="41" transform="matrix(1 0 0 1 3065.9003982543945 666)">54,626</text>
		</g>
		<g>
			<text fill="#595959" font-family="Verdana,Open Sans,DejaVu Sans,sans-serif" font-weight="400" font-size="41" transform="matrix(1 0 0 1 3065.4799880981445 538)">72,835</text>
		</g>
		<g>
			<text fill="#595959" font-family="Verdana,Open Sans,DejaVu Sans,sans-serif" font-weight="400" font-size="41" transform="matrix(1 0 0 1 3064.1787185668945 410)">91,044</text>
		</g>
		<g>
			<text fill="#595959" font-family="Verdana,Open Sans,DejaVu Sans,sans-serif" font-weight="400" font-size="41" transform="matrix(1 0 0 1 3556.97119140625 1321)">Week Commencing</text>
		</g>
		<g>
			<text fill="#595959" font-family="Verdana,Open Sans,DejaVu Sans,sans-serif" font-weight="400" font-size="46" transform="matrix(6.12323e-17 -1 1 6.12323e-17 3019.73 1028.5532531738281)">Number of Hardware Profiles</text>
		</g>
		<rect x="2918.5" y="347.5" width="1760" height="1043" stroke="#D9D9D9" stroke-width="3.4375" stroke-linejoin="round" stroke-miterlimit="10" fill="none" />
		<g>
			<path d="M3228.5 1038 3250.295918367347 1038 3272.091836734694 1038 3293.887755102041 1038 3315.683673469388 1038 3337.4795918367345 1038 3359.2755102040815 1038 3381.0714285714284 1038 3402.8673469387754 1038 3424.6632653061224 1038 3446.4591836734694 1038 3468.2551020408164 1038 3490.0510204081634 1038 3511.8469387755104 1038 3533.6428571428573 1038 3555.4387755102043 1038 3577.234693877551 1038 3599.030612244898 1038 3620.826530612245 1038 3642.622448979592 1038 3664.418367346939 1038 3686.214285714286 1038 3708.0102040816328 1038 3729.8061224489797 1038 3751.6020408163267 1038 3773.3979591836733 1038 3795.1938775510203 1038 3816.9897959183672 1038 3838.785714285714 1038 3860.581632653061 1038 3882.377551020408 1038 3904.173469387755 1038 3925.969387755102 1038 3947.765306122449 1038 3969.5612244897957 1038 3991.357142857143 1038 4013.1530612244896 1038 4034.9489795918366 1038 4056.7448979591836 1038 4078.5408163265306 1038 4100.336734693878 1038 4122.132653061224 1038 4143.928571428572 1038 4165.724489795918 1038 4187.5204081632655 1038 4209.316326530612 1038 4231.1122448979595 1038 4252.908163265306 1038 4274.7040816326535 1038 4296.5 1038 4296.5 691.9132727033084 4274.7040816326535 692.2366328368701 4252.908163265306 692.6373182197619 4231.1122448979595 692.9325600808401 4209.316326530612 693.2067132375555 4187.5204081632655 693.5441325073591 4165.724489795918 693.8674926409209 4143.928571428572 694.162734501999 4122.132653061224 694.5353016124072 4100.336734693878 694.9922235402662 4078.5408163265306 695.547559421818 4056.7448979591836 695.9201265322263 4034.9489795918366 696.2505162339089 4013.1530612244896 696.6371424805589 3991.357142857143 697.0097095909671 3969.5612244897957 697.319010588287 3947.765306122449 697.6775185624533 3925.969387755102 698.0289969684987 3904.173469387755 698.3312683976978 3882.377551020408 698.6616580993805 3860.581632653061 699.0482843460305 3838.785714285714 699.392733183955 3816.9897959183672 699.7512411581214 3795.1938775510203 700.0464830191995 3773.3979591836733 700.4401388339704 3751.6020408163267 700.7986468081367 3729.8061224489797 701.1923026229076 3708.0102040816328 701.5367514608322 3686.214285714286 701.8390228900312 3664.418367346939 702.1272351829884 3642.622448979592 702.4013883397039 3620.826530612245 702.5982162470893 3599.030612244898 702.780985018233 3577.234693877551 703.0551381749484 3555.4387755102043 703.4347348534775 3533.6428571428573 703.8143315320065 3511.8469387755104 704.1306620974474 3490.0510204081634 704.390756117921 3468.2551020408164 704.6157022977901 3446.4591836734694 704.8828258863846 3424.6632653061224 705.2272747243092 3402.8673469387754 705.5787531303546 3381.0714285714284 705.9021132639164 3359.2755102040815 706.1903255568736 3337.4795918367345 706.3730943280173 3315.683673469388 706.7597205746672 3293.887755102041 707.2307016387681 3272.091836734694 707.4978252273627 3250.295918367347 707.694653134748 3228.5 707.9406880189799 3228.5 1038Z" fill="#e62d39" opacity="0.9" />
		</g>
		<g>
			<path d="M3228.5 707.9406880189799 3250.295918367347 707.694653134748 3272.091836734694 707.4978252273627 3293.887755102041 707.2307016387681 3315.683673469388 706.7597205746672 3337.4795918367345 706.3730943280173 3359.2755102040815 706.1903255568736 3381.0714285714284 705.9021132639164 3402.8673469387754 705.5787531303546 3424.6632653061224 705.2272747243092 3446.4591836734694 704.8828258863846 3468.2551020408164 704.6157022977901 3490.0510204081634 704.390756117921 3511.8469387755104 704.1306620974474 3533.6428571428573 703.8143315320065 3555.4387755102043 703.4347348534775 3577.234693877551 703.0551381749484 3599.030612244898 702.780985018233 3620.826530612245 702.5982162470893 3642.622448979592 702.4013883397039 3664.418367346939 702.1272351829884 3686.214285714286 701.8390228900312 3708.0102040816328 701.5367514608322 3729.8061224489797 701.1923026229076 3751.6020408163267 700.7986468081367 3773.3979591836733 700.4401388339704 3795.1938775510203 700.0464830191995 3816.9897959183672 699.7512411581214 3838.785714285714 699.392733183955 3860.581632653061 699.0482843460305 3882.377551020408 698.6616580993805 3904.173469387755 698.3312683976978 3925.969387755102 698.0289969684987 3947.765306122449 697.6775185624533 3969.5612244897957 697.319010588287 3991.357142857143 697.0097095909671 4013.1530612244896 696.6371424805589 4034.9489795918366 696.2505162339089 4056.7448979591836 695.9201265322263 4078.5408163265306 695.547559421818 4100.336734693878 694.9922235402662 4122.132653061224 694.5353016124072 4143.928571428572 694.162734501999 4165.724489795918 693.8674926409209 4187.5204081632655 693.5441325073591 4209.316326530612 693.2067132375555 4231.1122448979595 692.9325600808401 4252.908163265306 692.6373182197619 4274.7040816326535 692.2366328368701 4296.5 691.9132727033084 4296.5 526.099819867317 4274.7040816326535 526.6059487720223 4252.908163265306 527.1823733579369 4231.1122448979595 527.6111770133123 4209.316326530612 528.1313650542595 4187.5204081632655 528.6093756864814 4165.724489795918 529.1155045911867 4143.928571428572 529.6216334958921 4122.132653061224 530.1699398093231 4100.336734693878 530.7674530996002 4078.5408163265306 531.6602082509556 4056.7448979591836 532.166337155661 4034.9489795918366 532.6021703791573 4013.1530612244896 533.0661218751372 3991.357142857143 533.5581916436009 3969.5612244897957 533.9588770264927 3947.765306122449 534.5071833399236 3925.969387755102 535.013312244629 3904.173469387755 535.4842933087299 3882.377551020408 535.9974517815562 3860.581632653061 536.5035806862617 3838.785714285714 536.9534730459998 3816.9897959183672 537.4103949738588 3795.1938775510203 537.8040507886296 3773.3979591836733 538.2680022846097 3751.6020408163267 538.7671016211941 3729.8061224489797 539.2662009577787 3708.0102040816328 539.6739159087914 3686.214285714286 540.1308378366505 3664.418367346939 540.5807301963886 3642.622448979592 541.009533851764 3620.826530612245 541.2485391678749 3599.030612244898 541.4594262115022 3577.234693877551 541.8530820262731 3555.4387755102043 542.2748561135276 3533.6428571428573 542.8442511313211 3511.8469387755104 543.2449365142129 3490.0510204081634 543.6526514652256 3468.2551020408164 544.0252185756337 3446.4591836734694 544.5032292078555 3424.6632653061224 544.9671807038355 3402.8673469387754 545.4030139273318 3381.0714285714284 545.8599358551909 3359.2755102040815 546.2957690786873 3337.4795918367345 546.6050700760072 3315.683673469388 547.1252581169545 3293.887755102041 547.6595052941435 3272.091836734694 548.0953385176399 3250.295918367347 548.3976099468389 3228.5 548.7350292166426 3228.5 707.9406880189799Z" fill="#f6a118" opacity="0.9" />
		</g>
		<g>
			<path d="M3228.5 548.7350292166426 3250.295918367347 548.3976099468389 3272.091836734694 548.0953385176399 3293.887755102041 547.6595052941435 3315.683673469388 547.1252581169545 3337.4795918367345 546.6050700760072 3359.2755102040815 546.2957690786873 3381.0714285714284 545.8599358551909 3402.8673469387754 545.4030139273318 3424.6632653061224 544.9671807038355 3446.4591836734694 544.5032292078555 3468.2551020408164 544.0252185756337 3490.0510204081634 543.6526514652256 3511.8469387755104 543.2449365142129 3533.6428571428573 542.8442511313211 3555.4387755102043 542.2748561135276 3577.234693877551 541.8530820262731 3599.030612244898 541.4594262115022 3620.826530612245 541.2485391678749 3642.622448979592 541.009533851764 3664.418367346939 540.5807301963886 3686.214285714286 540.1308378366505 3708.0102040816328 539.6739159087914 3729.8061224489797 539.2662009577787 3751.6020408163267 538.7671016211941 3773.3979591836733 538.2680022846097 3795.1938775510203 537.8040507886296 3816.9897959183672 537.4103949738588 3838.785714285714 536.9534730459998 3860.581632653061 536.5035806862617 3882.377551020408 535.9974517815562 3904.173469387755 535.4842933087299 3925.969387755102 535.013312244629 3947.765306122449 534.5071833399236 3969.5612244897957 533.9588770264927 3991.357142857143 533.5581916436009 4013.1530612244896 533.0661218751372 4034.9489795918366 532.6021703791573 4056.7448979591836 532.166337155661 4078.5408163265306 531.6602082509556 4100.336734693878 530.7674530996002 4122.132653061224 530.1699398093231 4143.928571428572 529.6216334958921 4165.724489795918 529.1155045911867 4187.5204081632655 528.6093756864814 4209.316326530612 528.1313650542595 4231.1122448979595 527.6111770133123 4252.908163265306 527.1823733579369 4274.7040816326535 526.6059487720223 4296.5 526.099819867317 4296.5 450.58819911251715 4274.7040816326535 451.1224462897061 4252.908163265306 451.7199595799833 4231.1122448979595 452.16282237160056 4209.316326530612 452.71815825315235 4187.5204081632655 453.23834629409964 4165.724489795918 453.75853433504676 4143.928571428572 454.3208997847195 4122.132653061224 454.904353938755 4100.336734693878 455.53701506963665 4078.5408163265306 456.52818417468484 4056.7448979591836 457.0905496243575 4034.9489795918366 457.582619392821 4013.1530612244896 458.0676595931637 3991.357142857143 458.63002504283645 3969.5612244897957 459.05882869821187 3947.765306122449 459.6282237160055 3925.969387755102 460.19761873379906 3904.173469387755 460.6896885022627 3882.377551020408 461.2098765432099 3860.581632653061 461.73709415227813 3838.785714285714 462.22213435262074 3816.9897959183672 462.70014498484255 3795.1938775510203 463.1500373445806 3773.3979591836733 463.6561662492861 3751.6020408163267 464.16229515399147 3729.8061224489797 464.6754536268178 3708.0102040816328 465.09722771407235 3686.214285714286 465.6033566187778 3664.418367346939 466.09542638724133 3642.622448979592 466.56640745134223 3620.826530612245 466.8124423355741 3599.030612244898 467.0373885154431 3577.234693877551 467.4732217389395 3555.4387755102043 467.9090549624358 3533.6428571428573 468.5346865251966 3511.8469387755104 468.9494310443302 3490.0510204081634 469.3922938359475 3468.2551020408164 469.8492157638065 3446.4591836734694 470.35534466851186 3424.6632653061224 470.85444400509647 3402.8673469387754 471.3183955010764 3381.0714285714284 471.8174948376609 3359.2755102040815 472.3095646061246 3337.4795918367345 472.65401344404904 3315.683673469388 473.23746759808444 3293.887755102041 473.8630991608453 3272.091836734694 474.32705065682535 3250.295918367347 474.6714994947498 3228.5 475.05109617327895 3228.5 548.7350292166426Z" fill="#55c0e9" opacity="0.9" />
		</g>
		<g>
			<path d="M3228.5 475.05109617327895 3250.295918367347 474.6714994947498 3272.091836734694 474.32705065682535 3293.887755102041 473.8630991608453 3315.683673469388 473.23746759808444 3337.4795918367345 472.65401344404904 3359.2755102040815 472.3095646061246 3381.0714285714284 471.8174948376609 3402.8673469387754 471.3183955010764 3424.6632653061224 470.85444400509647 3446.4591836734694 470.35534466851186 3468.2551020408164 469.8492157638065 3490.0510204081634 469.3922938359475 3511.8469387755104 468.9494310443302 3533.6428571428573 468.5346865251966 3555.4387755102043 467.9090549624358 3577.234693877551 467.4732217389395 3599.030612244898 467.0373885154431 3620.826530612245 466.8124423355741 3642.622448979592 466.56640745134223 3664.418367346939 466.09542638724133 3686.214285714286 465.6033566187778 3708.0102040816328 465.09722771407235 3729.8061224489797 464.6754536268178 3751.6020408163267 464.16229515399147 3773.3979591836733 463.6561662492861 3795.1938775510203 463.1500373445806 3816.9897959183672 462.70014498484255 3838.785714285714 462.22213435262074 3860.581632653061 461.73709415227813 3882.377551020408 461.2098765432099 3904.173469387755 460.6896885022627 3925.969387755102 460.19761873379906 3947.765306122449 459.6282237160055 3969.5612244897957 459.05882869821187 3991.357142857143 458.63002504283645 4013.1530612244896 458.0676595931637 4034.9489795918366 457.582619392821 4056.7448979591836 457.0905496243575 4078.5408163265306 456.52818417468484 4100.336734693878 455.53701506963665 4122.132653061224 454.904353938755 4143.928571428572 454.3208997847195 4165.724489795918 453.75853433504676 4187.5204081632655 453.23834629409964 4209.316326530612 452.71815825315235 4231.1122448979595 452.16282237160056 4252.908163265306 451.7199595799833 4274.7040816326535 451.1224462897061 4296.5 450.58819911251715 4296.5 399.3074996704891 4274.7040816326535 400.01045648257985 4252.908163265306 400.6712358859453 4231.1122448979595 401.28280831246434 4209.316326530612 401.9295285795879 4187.5204081632655 402.61842625543704 4165.724489795918 403.3143534994069 4143.928571428572 403.996221607135 4122.132653061224 404.7202671235887 4100.336734693878 405.4372830719213 4078.5408163265306 406.6885461974431 4056.7448979591836 407.3915030095339 4034.9489795918366 408.10148938974555 4013.1530612244896 408.69197311190186 3991.357142857143 409.380870787751 3969.5612244897957 409.8940292605773 3947.765306122449 410.6040156407891 3925.969387755102 411.3561794297263 3904.173469387755 412.0380475374545 3882.377551020408 412.7058565089407 3860.581632653061 413.4158428891526 3838.785714285714 414.1047405650016 3816.9897959183672 414.8358156495761 3795.1938775510203 415.5317428935459 3773.3979591836733 416.2417292737578 3751.6020408163267 416.9517156539695 3729.8061224489797 417.6476428979394 3708.0102040816328 418.27327446070035 3686.214285714286 418.997319977154 3664.418367346939 419.69324722112384 3642.622448979592 420.4032336013356 3620.826530612245 420.69144589429294 3599.030612244898 420.993717323492 3577.234693877551 421.66855586309924 3555.4387755102043 422.36448310706913 3533.6428571428573 423.5805983919863 3511.8469387755104 424.2343482272308 3490.0510204081634 424.90215719871713 3468.2551020408164 425.59105487456617 3446.4591836734694 426.27995255041515 3424.6632653061224 426.98290936250606 3402.8673469387754 427.6718070383551 3381.0714285714284 428.3607047142041 3359.2755102040815 429.0425728219323 3337.4795918367345 429.5697904310004 3315.683673469388 430.4555160142349 3293.887755102041 431.24985721189756 3272.091836734694 431.9528140239885 3250.295918367347 432.4940907692984 3228.5 433.1548701726639 3228.5 475.05109617327895Z" fill="#fdd5a4" opacity="0.9" />
		</g>
		<g>
			<path d="M3228.5 433.1548701726639 3250.295918367347 432.4940907692984 3272.091836734694 431.9528140239885 3293.887755102041 431.24985721189756 3315.683673469388 430.4555160142349 3337.4795918367345 429.5697904310004 3359.2755102040815 429.0425728219323 3381.0714285714284 428.3607047142041 3402.8673469387754 427.6718070383551 3424.6632653061224 426.98290936250606 3446.4591836734694 426.27995255041515 3468.2551020408164 425.59105487456617 3490.0510204081634 424.90215719871713 3511.8469387755104 424.2343482272308 3533.6428571428573 423.5805983919863 3555.4387755102043 422.36448310706913 3577.234693877551 421.66855586309924 3599.030612244898 420.993717323492 3620.826530612245 420.69144589429294 3642.622448979592 420.4032336013356 3664.418367346939 419.69324722112384 3686.214285714286 418.997319977154 3708.0102040816328 418.27327446070035 3729.8061224489797 417.6476428979394 3751.6020408163267 416.9517156539695 3773.3979591836733 416.2417292737578 3795.1938775510203 415.5317428935459 3816.9897959183672 414.8358156495761 3838.785714285714 414.1047405650016 3860.581632653061 413.4158428891526 3882.377551020408 412.7058565089407 3904.173469387755 412.0380475374545 3925.969387755102 411.3561794297263 3947.765306122449 410.6040156407891 3969.5612244897957 409.8940292605773 3991.357142857143 409.380870787751 4013.1530612244896 408.69197311190186 4034.9489795918366 408.10148938974555 4056.7448979591836 407.3915030095339 4078.5408163265306 406.6885461974431 4100.336734693878 405.4372830719213 4122.132653061224 404.7202671235887 4143.928571428572 403.996221607135 4165.724489795918 403.3143534994069 4187.5204081632655 402.61842625543704 4209.316326530612 401.9295285795879 4231.1122448979595 401.28280831246434 4252.908163265306 400.6712358859453 4274.7040816326535 400.01045648257985 4296.5 399.3074996704891 4296.5 398.0000000000001 4274.7040816326535 398.70295681209086 4252.908163265306 399.3637362154563 4231.1122448979595 399.97530864197535 4209.316326530612 400.6220289090989 4187.5204081632655 401.31092658494805 4165.724489795918 402.0068538289179 4143.928571428572 402.688721936646 4122.132653061224 403.4127674530997 4100.336734693878 404.1297834014323 4078.5408163265306 405.3810465269541 4056.7448979591836 406.0840033390449 4034.9489795918366 406.79398971925656 4013.1530612244896 407.38447344141287 3991.357142857143 408.073371117262 3969.5612244897957 408.58652959008833 3947.765306122449 409.2965159703001 3925.969387755102 410.0486797592373 3904.173469387755 410.7305478669655 3882.377551020408 411.3983568384517 3860.581632653061 412.1083432186636 3838.785714285714 412.7972408945126 3816.9897959183672 413.5283159790871 3795.1938775510203 414.22424322305693 3773.3979591836733 414.9342296032688 3751.6020408163267 415.6442159834805 3729.8061224489797 416.3401432274504 3708.0102040816328 416.96577479021136 3686.214285714286 417.689820306665 3664.418367346939 418.38574755063485 3642.622448979592 419.0957339308466 3620.826530612245 419.38394622380395 3599.030612244898 419.686217653003 3577.234693877551 420.36105619261025 3555.4387755102043 421.05698343658014 3533.6428571428573 422.2730987214973 3511.8469387755104 422.9268485567418 3490.0510204081634 423.59465752822814 3468.2551020408164 424.2835552040772 3446.4591836734694 424.97948244804707 3424.6632653061224 425.6894688282589 3402.8673469387754 426.37836650410793 3381.0714285714284 427.0672641799569 3359.2755102040815 427.74913228768514 3337.4795918367345 428.27634989675323 3315.683673469388 429.1620754799877 3293.887755102041 429.9564166776504 3272.091836734694 430.6593734897413 3250.295918367347 431.2006502350512 3228.5 431.8614296384167 3228.5 433.1548701726639Z" fill="#005aa6" opacity="0.9" />
		</g>
		<g>
			<rect x="4372" y="431" width="22.9995" height="23" fill="#e62d39" />
		</g>
		<g>
			<text fill="#595959" font-family="Verdana,Open Sans,DejaVu Sans,sans-serif" font-weight="400" font-size="41" transform="matrix(1 0 0 1 4404.56 454)">Smartphone</text>
		</g>
		<g>
			<rect x="4372" y="508" width="22.9995" height="23" fill="#f6a118" />
		</g>
		<g>
			<text fill="#595959" font-family="Verdana,Open Sans,DejaVu Sans,sans-serif" font-weight="400" font-size="41" transform="matrix(1 0 0 1 4404.56 531)">Tablet</text>
		</g>
		<g>
			<rect x="4372" y="585" width="22.9995" height="23" fill="#55c0e9" />
		</g>
		<g>
			<text fill="#595959" font-family="Verdana,Open Sans,DejaVu Sans,sans-serif" font-weight="400" font-size="41" transform="matrix(1 0 0 1 4404.56 608)">Other</text>
		</g>
		<g>
			<rect x="4372" y="662" width="22.9995" height="23" fill="#fdd5a4" />
		</g>
		<g>
			<text fill="#595959" font-family="Verdana,Open Sans,DejaVu Sans,sans-serif" font-weight="400" font-size="41" transform="matrix(1 0 0 1 4404.56 685)">Tv</text>
		</g>
		<g>
			<rect x="4372" y="739" width="22.9995" height="23" fill="#005aa6" />
		</g>
		<g>
			<text fill="#595959" font-family="Verdana,Open Sans,DejaVu Sans,sans-serif" font-weight="400" font-size="41" transform="matrix(1 0 0 1 4404.56 762)">Desktop</text>
		</g>
	</g>
</svg>
