<svg width="1763" height="1046"
    xmlns="http://www.w3.org/2000/svg"
	xmlns:xlink="http://www.w3.org/1999/xlink" xml:space="preserve" overflow="hidden">
	<defs>
		<clipPath id="clip0">
			<rect x="2917" y="346" width="1763" height="1046"/>
		</clipPath>
	</defs>
	<g clip-path="url(#clip0)" transform="translate(-2917 -346)">
		<rect x="2918" y="347" width="1760" height="1043" fill="#FFFFFF" />
		<g>
			<path d="
			M3228.5 974.532 4296.5 974.532
			M3228.5 910.53 4296.5 910.53
			M3228.5 846.528 4296.5 846.528
			M3228.5 781.526 4296.5 781.526
			M3228.5 717.524 4296.5 717.524
			M3228.5 653.522 4296.5 653.522
			M3228.5 589.52 4296.5 589.52
			M3228.5 525.517 4296.5 525.517
			M3228.5 461.515 4296.5 461.515
			M3228.5 397.5 4296.5 397.5" stroke="#D9D9D9" stroke-width="3.4375" stroke-linejoin="round" stroke-miterlimit="10" fill="none" />
		</g>
		<g>
			<path d="M 1038.5 4296.5 1038.5" stroke="#D9D9D9" stroke-width="3.4375" stroke-linejoin="round" stroke-miterlimit="10" fill="none" fill-rule="evenodd" />
		</g>
		<g>
			<text fill="#595959" font-family="Verdana,Open Sans,DejaVu Sans,sans-serif" font-weight="400" font-size="41" transform="matrix(6.12323e-17 -1 1 6.12323e-17 3247.21826171875 1191.6508712768555)">06-Jan</text>
		</g>
		<g>
			<text fill="#595959" font-family="Verdana,Open Sans,DejaVu Sans,sans-serif" font-weight="400" font-size="41" transform="matrix(6.12323e-17 -1 1 6.12323e-17 3329.715390625 1203.0419921875)">03-Feb</text>
		</g>
		<g>
			<text fill="#595959" font-family="Verdana,Open Sans,DejaVu Sans,sans-serif" font-weight="400" font-size="41" transform="matrix(6.12323e-17 -1 1 6.12323e-17 3414.444697265625 1212.0107421875)">03-Mar</text>
		</g>
		<g>
			<text fill="#595959" font-family="Verdana,Open Sans,DejaVu Sans,sans-serif" font-weight="400" font-size="41" transform="matrix(6.12323e-17 -1 1 6.12323e-17 3499.864677734375 1212.1708984375)">31-Mar</text>
		</g>
		<g>
			<text fill="#595959" font-family="Verdana,Open Sans,DejaVu Sans,sans-serif" font-weight="400" font-size="41" transform="matrix(6.12323e-17 -1 1 6.12323e-17 3590.029287109375 1203.3022384643555)">28-Apr</text>
		</g>
		<g>
			<text fill="#595959" font-family="Verdana,Open Sans,DejaVu Sans,sans-serif" font-weight="400" font-size="41" transform="matrix(6.12323e-17 -1 1 6.12323e-17 3675.469287109375 1216.51513671875)">26-May</text>
		</g>
		<g>
			<text fill="#595959" font-family="Verdana,Open Sans,DejaVu Sans,sans-serif" font-weight="400" font-size="41" transform="matrix(6.12323e-17 -1 1 6.12323e-17 3759.85826171875 1194.1733322143555)">30-Jun</text>
		</g>
		<g>
			<text fill="#595959" font-family="Verdana,Open Sans,DejaVu Sans,sans-serif" font-weight="400" font-size="41" transform="matrix(6.12323e-17 -1 1 6.12323e-17 3846.008955078125 1179.0385665893555)">28-Jul</text>
		</g>
		<g>
			<text fill="#595959" font-family="Verdana,Open Sans,DejaVu Sans,sans-serif" font-weight="400" font-size="41" transform="matrix(6.12323e-17 -1 1 6.12323e-17 3931.789287109375 1208.66748046875)">25-Aug</text>
		</g>
		<g>
			<text fill="#595959" font-family="Verdana,Open Sans,DejaVu Sans,sans-serif" font-weight="400" font-size="41" transform="matrix(6.12323e-17 -1 1 6.12323e-17 4017.229287109375 1204.42333984375)">22-Sep</text>
		</g>
		<g>
			<text fill="#595959" font-family="Verdana,Open Sans,DejaVu Sans,sans-serif" font-weight="400" font-size="41" transform="matrix(6.12323e-17 -1 1 6.12323e-17 4097.964697265625 1201.1401290893555)">20-Oct</text>
		</g>
		<g>
			<text fill="#595959" font-family="Verdana,Open Sans,DejaVu Sans,sans-serif" font-weight="400" font-size="41" transform="matrix(6.12323e-17 -1 1 6.12323e-17 4183.17447265625 1209.70849609375)">17-Nov</text>
		</g>
		<g>
			<text fill="#595959" font-family="Verdana,Open Sans,DejaVu Sans,sans-serif" font-weight="400" font-size="41" transform="matrix(6.12323e-17 -1 1 6.12323e-17 4268.61447265625 1205.3642578125)">15-Dec</text>
		</g>
		<g>
			<text fill="#595959" font-family="Verdana,Open Sans,DejaVu Sans,sans-serif" font-weight="400" font-size="41" transform="matrix(1 0 0 1 3169.14111328125 1050)">0</text>
		</g>
		<g>
			<text fill="#595959" font-family="Verdana,Open Sans,DejaVu Sans,sans-serif" font-weight="400" font-size="41" transform="matrix(1 0 0 1 3067.1215896606445 922)">18,518</text>
		</g>
		<g>
			<text fill="#595959" font-family="Verdana,Open Sans,DejaVu Sans,sans-serif" font-weight="400" font-size="41" transform="matrix(1 0 0 1 3065.1997146606445 794)">37,037</text>
		</g>
		<g>
			<text fill="#595959" font-family="Verdana,Open Sans,DejaVu Sans,sans-serif" font-weight="400" font-size="41" transform="matrix(1 0 0 1 3066.2607498168945 666)">55,555</text>
		</g>
		<g>
			<text fill="#595959" font-family="Verdana,Open Sans,DejaVu Sans,sans-serif" font-weight="400" font-size="41" transform="matrix(1 0 0 1 3063.9384841918945 538)">74,074</text>
		</g>
		<g>
			<text fill="#595959" font-family="Verdana,Open Sans,DejaVu Sans,sans-serif" font-weight="400" font-size="41" transform="matrix(1 0 0 1 3065.5600662231445 410)">92,592</text>
		</g>
		<g>
			<text fill="#595959" font-family="Verdana,Open Sans,DejaVu Sans,sans-serif" font-weight="400" font-size="41" transform="matrix(1 0 0 1 3556.97119140625 1321)">Week Commencing</text>
		</g>
		<g>
			<text fill="#595959" font-family="Verdana,Open Sans,DejaVu Sans,sans-serif" font-weight="400" font-size="46" transform="matrix(6.12323e-17 -1 1 6.12323e-17 3019.73 1028.5532531738281)">Number of Hardware Profiles</text>
		</g>
		<rect x="2918.5" y="347.5" width="1760" height="1043" stroke="#D9D9D9" stroke-width="3.4375" stroke-linejoin="round" stroke-miterlimit="10" fill="none" />
		<g>
			<path d="M3228.5 1038 3249.86 1038 3271.22 1038 3292.58 1038 3313.94 1038 3335.3 1038 3356.66 1038 3378.02 1038 3399.38 1038 3420.74 1038 3442.1 1038 3463.46 1038 3484.82 1038 3506.18 1038 3527.54 1038 3548.9 1038 3570.26 1038 3591.62 1038 3612.98 1038 3634.34 1038 3655.7 1038 3677.06 1038 3698.42 1038 3719.7799999999997 1038 3741.14 1038 3762.5 1038 3783.86 1038 3805.2200000000003 1038 3826.58 1038 3847.94 1038 3869.3 1038 3890.66 1038 3912.02 1038 3933.38 1038 3954.74 1038 3976.1 1038 3997.46 1038 4018.8199999999997 1038 4040.18 1038 4061.54 1038 4082.9 1038 4104.26 1038 4125.62 1038 4146.98 1038 4168.34 1038 4189.7 1038 4211.0599999999995 1038 4232.42 1038 4253.78 1038 4275.139999999999 1038 4296.5 1038 4296.5 692.5360290305858 4275.139999999999 692.6604458268533 4253.78 692.88163124244 4232.42 693.1442889234492 4211.0599999999995 693.3516502505615 4189.7 693.559011577674 4168.34 693.7594608605496 4146.98 693.9391740107137 4125.62 694.1188871608779 4104.26 694.381544841887 4082.9 694.6787627440815 4061.54 694.9137722481423 4040.18 695.1695178849145 4018.8199999999997 695.5082080525315 3997.46 695.9160186625195 3976.1 696.2754449628478 3954.74 696.5933989977536 3933.38 696.9044409884223 3912.02 697.1048902712978 3890.66 697.4297563504406 3869.3 697.6993260756869 3847.94 698.0172801105928 3826.58 698.4112666321064 3805.2200000000003 698.7015724900639 3783.86 698.9711422153102 3762.5 699.3029203386902 3741.14 699.620874373596 3719.7799999999997 699.9111802315535 3698.42 700.2775185761188 3677.06 700.7268014515294 3655.7 701.2728529462588 3634.34 701.6391912908243 3612.98 701.9640573699671 3591.62 702.3442198030068 3570.26 702.7105581475721 3548.9 703.0146880940038 3527.54 703.3672023500951 3506.18 703.7128045619493 3484.82 704.0100224641437 3463.46 704.3348885432868 3442.1 704.7150509763262 3420.74 705.0537411439434 3399.38 705.4062554000345 3378.02 705.696561257992 3356.66 706.0836357352687 3335.3 706.43614999136 3313.94 706.8232244686367 3292.58 707.1619146362536 3271.22 707.4591325384483 3249.86 707.7425263521686 3228.5 708.012096077415 3228.5 1038Z" fill="#e62d39" opacity="0.9" />
		</g>
		<g>
			<path d="M3228.5 708.012096077415 3249.86 707.7425263521686 3271.22 707.4591325384483 3292.58 707.1619146362536 3313.94 706.8232244686367 3335.3 706.43614999136 3356.66 706.0836357352687 3378.02 705.696561257992 3399.38 705.4062554000345 3420.74 705.0537411439434 3442.1 704.7150509763262 3463.46 704.3348885432868 3484.82 704.0100224641437 3506.18 703.7128045619493 3527.54 703.3672023500951 3548.9 703.0146880940038 3570.26 702.7105581475721 3591.62 702.3442198030068 3612.98 701.9640573699671 3634.34 701.6391912908243 3655.7 701.2728529462588 3677.06 700.7268014515294 3698.42 700.2775185761188 3719.7799999999997 699.9111802315535 3741.14 699.620874373596 3762.5 699.3029203386902 3783.86 698.9711422153102 3805.2200000000003 698.7015724900639 3826.58 698.4112666321064 3847.94 698.0172801105928 3869.3 697.6993260756869 3890.66 697.4297563504406 3912.02 697.1048902712978 3933.38 696.9044409884223 3954.74 696.5933989977536 3976.1 696.2754449628478 3997.46 695.9160186625195 4018.8199999999997 695.5082080525315 4040.18 695.1695178849145 4061.54 694.9137722481423 4082.9 694.6787627440815 4104.26 694.381544841887 4125.62 694.1188871608779 4146.98 693.9391740107137 4168.34 693.7594608605496 4189.7 693.559011577674 4211.0599999999995 693.3516502505615 4232.42 693.1442889234492 4253.78 692.88163124244 4275.139999999999 692.6604458268533 4296.5 692.5360290305858 4296.5 527.3243476758252 4275.139999999999 527.4695006048039 4253.78 527.7667185069985 4232.42 528.139968895801 4211.0599999999995 528.4233627095213 4189.7 528.7136685674787 4168.34 528.9832382927251 4146.98 529.2735441506826 4125.62 529.5776740971143 4104.26 529.9923967513392 4082.9 530.4278555382754 4061.54 530.8425781925004 4040.18 531.2503888024884 4018.8199999999997 531.7618800760324 3997.46 532.2941074822879 3976.1 532.7572144461725 3954.74 533.2064973215829 3933.38 533.6212199758078 3912.02 533.8493174356316 3890.66 534.2363919129082 3869.3 534.6580266113704 3847.94 535.1556937964403 3826.58 535.722481423881 3805.2200000000003 536.1441161223431 3783.86 536.6556073958874 3762.5 537.125626404009 3741.14 537.623293589079 3719.7799999999997 538.120960774149 3698.42 538.6601002246414 3677.06 539.2476239847936 3655.7 540.125453602903 3634.34 540.6231207879731 3612.98 541.0516675306721 3591.62 541.5078624503197 3570.26 541.9917055469155 3548.9 542.3856920684292 3527.54 542.9248315189218 3506.18 543.4224987039918 3484.82 543.8856056678762 3463.46 544.3901848971834 3442.1 544.8878520822533 3420.74 545.3302229134267 3399.38 545.779505788837 3378.02 546.1665802661137 3356.66 546.6227751857612 3335.3 547.1135303265942 3313.94 547.6042854674271 3292.58 548.0051840331778 3271.22 548.4544669085883 3249.86 548.8968377397615 3228.5 549.3184724382237 3228.5 708.012096077415Z" fill="#f6a118" opacity="0.9" />
		</g>
		<g>
			<path d="M3228.5 549.3184724382237 3249.86 548.8968377397615 3271.22 548.4544669085883 3292.58 548.0051840331778 3313.94 547.6042854674271 3335.3 547.1135303265942 3356.66 546.6227751857612 3378.02 546.1665802661137 3399.38 545.779505788837 3420.74 545.3302229134267 3442.1 544.8878520822533 3463.46 544.3901848971834 3484.82 543.8856056678762 3506.18 543.4224987039918 3527.54 542.9248315189218 3548.9 542.3856920684292 3570.26 541.9917055469155 3591.62 541.5078624503197 3612.98 541.0516675306721 3634.34 540.6231207879731 3655.7 540.125453602903 3677.06 539.2476239847936 3698.42 538.6601002246414 3719.7799999999997 538.120960774149 3741.14 537.623293589079 3762.5 537.125626404009 3783.86 536.6556073958874 3805.2200000000003 536.1441161223431 3826.58 535.722481423881 3847.94 535.1556937964403 3869.3 534.6580266113704 3890.66 534.2363919129082 3912.02 533.8493174356316 3933.38 533.6212199758078 3954.74 533.2064973215829 3976.1 532.7572144461725 3997.46 532.2941074822879 4018.8199999999997 531.7618800760324 4040.18 531.2503888024884 4061.54 530.8425781925004 4082.9 530.4278555382754 4104.26 529.9923967513392 4125.62 529.5776740971143 4146.98 529.2735441506826 4168.34 528.9832382927251 4189.7 528.7136685674787 4211.0599999999995 528.4233627095213 4232.42 528.139968895801 4253.78 527.7667185069985 4275.139999999999 527.4695006048039 4296.5 527.3243476758252 4296.5 452.16277864178335 4275.139999999999 452.3079315707621 4253.78 452.64662173837917 4232.42 453.06825643684124 4211.0599999999995 453.4069466044582 4189.7 453.71798859512694 4168.34 453.9944703646104 4146.98 454.3193364437533 4125.62 454.6718506998445 4104.26 455.19025401762576 4082.9 455.67409711422147 4061.54 456.13720407810604 4040.18 456.59339899775364 4018.8199999999997 457.2223950233281 3997.46 457.7960946950061 3976.1 458.286849835839 3954.74 458.7776049766719 3933.38 459.20615171937095 3912.02 459.46189735614314 3890.66 459.90426818731635 3869.3 460.40884741662353 3847.94 460.93416277864185 3826.58 461.5216865387938 3805.2200000000003 461.95714532573004 3783.86 462.5031968204597 3762.5 463.0146880940039 3741.14 463.526179367548 3719.7799999999997 464.0791429065147 3698.42 464.65284257819246 3677.06 465.27492655953006 3655.7 466.24952479695867 3634.34 466.80248833592543 3612.98 467.28633143252114 3591.62 467.76326248488 3570.26 468.3162260238465 3548.9 468.7378607223086 3527.54 469.29773630551244 3506.18 469.8576118887162 3484.82 470.3414549853119 3463.46 470.85294625885615 3442.1 471.3713495766373 3420.74 471.8482806289961 3399.38 472.31829963711766 3378.02 472.760670468291 3356.66 473.25833765336097 3335.3 473.75600483843107 3313.94 474.26058406773814 3292.58 474.675306721963 3271.22 475.1729739070331 3249.86 475.6568170036288 3228.5 476.1199239675135 3228.5 549.3184724382237Z" fill="#55c0e9" opacity="0.9" />
		</g>
		<g>
			<path d="M3228.5 476.1199239675135 3249.86 475.6568170036288 3271.22 475.1729739070331 3292.58 474.675306721963 3313.94 474.26058406773814 3335.3 473.75600483843107 3356.66 473.25833765336097 3378.02 472.760670468291 3399.38 472.31829963711766 3420.74 471.8482806289961 3442.1 471.3713495766373 3463.46 470.85294625885615 3484.82 470.3414549853119 3506.18 469.8576118887162 3527.54 469.29773630551244 3548.9 468.7378607223086 3570.26 468.3162260238465 3591.62 467.76326248488 3612.98 467.28633143252114 3634.34 466.80248833592543 3655.7 466.24952479695867 3677.06 465.27492655953006 3698.42 464.65284257819246 3719.7799999999997 464.0791429065147 3741.14 463.526179367548 3762.5 463.0146880940039 3783.86 462.5031968204597 3805.2200000000003 461.95714532573004 3826.58 461.5216865387938 3847.94 460.93416277864185 3869.3 460.40884741662353 3890.66 459.90426818731635 3912.02 459.46189735614314 3933.38 459.20615171937095 3954.74 458.7776049766719 3976.1 458.286849835839 3997.46 457.7960946950061 4018.8199999999997 457.2223950233281 4040.18 456.59339899775364 4061.54 456.13720407810604 4082.9 455.67409711422147 4104.26 455.19025401762576 4125.62 454.6718506998445 4146.98 454.3193364437533 4168.34 453.9944703646104 4189.7 453.71798859512694 4211.0599999999995 453.4069466044582 4232.42 453.06825643684124 4253.78 452.64662173837917 4275.139999999999 452.3079315707621 4296.5 452.16277864178335 4296.5 399.2994643165717 4275.139999999999 399.5068256436842 4253.78 399.9561085190946 4232.42 400.4814238811129 4211.0599999999995 400.8754104026265 4189.7 401.32469327803693 4168.34 401.72559184378787 4146.98 402.1679626749612 4125.62 402.67254190426826 4104.26 403.32918610679116 4082.9 403.8337653360981 4061.54 404.490409538621 4040.18 405.1055814757215 4018.8199999999997 405.78987385519264 3997.46 406.5156385000865 3976.1 407.0409538621048 3954.74 407.6975980646277 3933.38 408.3058579574909 3912.02 408.65837221358225 3890.66 409.27354415068254 3869.3 409.98548470710216 3847.94 410.6766891308105 3826.58 411.3264212890962 3805.2200000000003 411.9277691377224 3783.86 412.56367720753417 3762.5 413.2410575427683 3741.14 413.92534992223955 3719.7799999999997 414.5958182132366 3698.42 415.30775876965606 3677.06 416.01278728183865 3655.7 417.24313115603934 3634.34 417.93433557974777 3612.98 418.63245204769305 3591.62 419.21306376360815 3570.26 419.8904440988422 3548.9 420.39502332814925 3527.54 421.09313979609476 3506.18 421.83272852946266 3484.82 422.5031968204596 3463.46 423.1598410229826 3442.1 423.8579574909279 3420.74 424.53533782616216 3399.38 425.2541904268187 3378.02 425.9384828062899 3356.66 426.6365992742353 3335.3 427.33471574218083 3313.94 428.01900812165206 3292.58 428.63418005875235 3271.22 429.346120615172 3249.86 430.03041299464314 3228.5 430.72852946258865 3228.5 476.1199239675135Z" fill="#fdd5a4" opacity="0.9" />
		</g>
		<g>
			<path d="M3228.5 430.72852946258865 3249.86 430.03041299464314 3271.22 429.346120615172 3292.58 428.63418005875235 3313.94 428.01900812165206 3335.3 427.33471574218083 3356.66 426.6365992742353 3378.02 425.9384828062899 3399.38 425.2541904268187 3420.74 424.53533782616216 3442.1 423.8579574909279 3463.46 423.1598410229826 3484.82 422.5031968204596 3506.18 421.83272852946266 3527.54 421.09313979609476 3548.9 420.39502332814925 3570.26 419.8904440988422 3591.62 419.21306376360815 3612.98 418.63245204769305 3634.34 417.93433557974777 3655.7 417.24313115603934 3677.06 416.01278728183865 3698.42 415.30775876965606 3719.7799999999997 414.5958182132366 3741.14 413.92534992223955 3762.5 413.2410575427683 3783.86 412.56367720753417 3805.2200000000003 411.9277691377224 3826.58 411.3264212890962 3847.94 410.6766891308105 3869.3 409.98548470710216 3890.66 409.27354415068254 3912.02 408.65837221358225 3933.38 408.3058579574909 3954.74 407.6975980646277 3976.1 407.0409538621048 3997.46 406.5156385000865 4018.8199999999997 405.78987385519264 4040.18 405.1055814757215 4061.54 404.490409538621 4082.9 403.8337653360981 4104.26 403.32918610679116 4125.62 402.67254190426826 4146.98 402.1679626749612 4168.34 401.72559184378787 4189.7 401.32469327803693 4211.0599999999995 400.8754104026265 4232.42 400.4814238811129 4253.78 399.9561085190946 4275.139999999999 399.5068256436842 4296.5 399.2994643165717 4296.5 398.00000000000006 4275.139999999999 398.20736132711255 4253.78 398.65664420252295 4232.42 399.1819595645413 4211.0599999999995 399.58977017452906 4189.7 400.03905304993947 4168.34 400.4399516156904 4146.98 400.8823224468637 4125.62 401.3869016761708 4104.26 402.0435458786937 4082.9 402.54812510800065 4061.54 403.20476931052355 4040.18 403.81994124762406 4018.8199999999997 404.5042336270952 3997.46 405.229998271989 3976.1 405.75531363400734 3954.74 406.41195783653023 3933.38 407.02021772939344 3912.02 407.3727319854848 3890.66 407.9879039225851 3869.3 408.6998444790047 3847.94 409.391048902713 3826.58 410.0407810609987 3805.2200000000003 410.64212890962494 3783.86 411.2780369794367 3762.5 411.95541731467085 3741.14 412.6397096941421 3719.7799999999997 413.31017798513915 3698.42 414.0221185415586 3677.06 414.7271470537412 3655.7 415.9574909279419 3634.34 416.6486953516503 3612.98 417.3468118195956 3591.62 417.9274235355107 3570.26 418.6048038707447 3548.9 419.1093831000518 3527.54 419.8074995679973 3506.18 420.5470883013652 3484.82 421.21755659236214 3463.46 421.87420079488516 3442.1 422.57231726283044 3420.74 423.2496975980647 3399.38 423.96855019872123 3378.02 424.65284257819246 3356.66 425.35095904613786 3335.3 426.04907551408337 3313.94 426.7333678935546 3292.58 427.3485398306549 3271.22 428.06048038707456 3249.86 428.7447727665457 3228.5 429.4428892344912 3228.5 430.72852946258865Z" fill="#005aa6" opacity="0.9" />
		</g>
		<g>
			<rect x="4372" y="431" width="22.9995" height="23" fill="#e62d39" />
		</g>
		<g>
			<text fill="#595959" font-family="Verdana,Open Sans,DejaVu Sans,sans-serif" font-weight="400" font-size="41" transform="matrix(1 0 0 1 4404.56 454)">Smartphone</text>
		</g>
		<g>
			<rect x="4372" y="508" width="22.9995" height="23" fill="#f6a118" />
		</g>
		<g>
			<text fill="#595959" font-family="Verdana,Open Sans,DejaVu Sans,sans-serif" font-weight="400" font-size="41" transform="matrix(1 0 0 1 4404.56 531)">Tablet</text>
		</g>
		<g>
			<rect x="4372" y="585" width="22.9995" height="23" fill="#55c0e9" />
		</g>
		<g>
			<text fill="#595959" font-family="Verdana,Open Sans,DejaVu Sans,sans-serif" font-weight="400" font-size="41" transform="matrix(1 0 0 1 4404.56 608)">Other</text>
		</g>
		<g>
			<rect x="4372" y="662" width="22.9995" height="23" fill="#fdd5a4" />
		</g>
		<g>
			<text fill="#595959" font-family="Verdana,Open Sans,DejaVu Sans,sans-serif" font-weight="400" font-size="41" transform="matrix(1 0 0 1 4404.56 685)">Tv</text>
		</g>
		<g>
			<rect x="4372" y="739" width="22.9995" height="23" fill="#005aa6" />
		</g>
		<g>
			<text fill="#595959" font-family="Verdana,Open Sans,DejaVu Sans,sans-serif" font-weight="400" font-size="41" transform="matrix(1 0 0 1 4404.56 762)">Desktop</text>
		</g>
	</g>
</svg>
