<svg width="1763" height="1046"
    xmlns="http://www.w3.org/2000/svg"
	xmlns:xlink="http://www.w3.org/1999/xlink" xml:space="preserve" overflow="hidden">
	<defs>
		<clipPath id="clip0">
			<rect x="2917" y="346" width="1763" height="1046"/>
		</clipPath>
	</defs>
	<g clip-path="url(#clip0)" transform="translate(-2917 -346)">
		<rect x="2918" y="347" width="1760" height="1043" fill="#FFFFFF" />
		<g>
			<path d="
			M3228.5 974.532 4296.5 974.532
			M3228.5 910.53 4296.5 910.53
			M3228.5 846.528 4296.5 846.528
			M3228.5 781.526 4296.5 781.526
			M3228.5 717.524 4296.5 717.524
			M3228.5 653.522 4296.5 653.522
			M3228.5 589.52 4296.5 589.52
			M3228.5 525.517 4296.5 525.517
			M3228.5 461.515 4296.5 461.515
			M3228.5 397.5 4296.5 397.5" stroke="#D9D9D9" stroke-width="3.4375" stroke-linejoin="round" stroke-miterlimit="10" fill="none" />
		</g>
		<g>
			<path d="M 1038.5 4296.5 1038.5" stroke="#D9D9D9" stroke-width="3.4375" stroke-linejoin="round" stroke-miterlimit="10" fill="none" fill-rule="evenodd" />
		</g>
		<g>
			<text fill="#595959" font-family="Verdana,Open Sans,DejaVu Sans,sans-serif" font-weight="400" font-size="41" transform="matrix(6.12323e-17 -1 1 6.12323e-17 3247.928955078125 1179.0385665893555)">21-Jul</text>
		</g>
		<g>
			<text fill="#595959" font-family="Verdana,Open Sans,DejaVu Sans,sans-serif" font-weight="400" font-size="41" transform="matrix(6.12323e-17 -1 1 6.12323e-17 3330.423133263221 1206.90576171875)">18-Aug</text>
		</g>
		<g>
			<text fill="#595959" font-family="Verdana,Open Sans,DejaVu Sans,sans-serif" font-weight="400" font-size="41" transform="matrix(6.12323e-17 -1 1 6.12323e-17 3412.5769794170674 1202.66162109375)">15-Sep</text>
		</g>
		<g>
			<text fill="#595959" font-family="Verdana,Open Sans,DejaVu Sans,sans-serif" font-weight="400" font-size="41" transform="matrix(6.12323e-17 -1 1 6.12323e-17 3490.0262357271636 1199.3784103393555)">13-Oct</text>
		</g>
		<g>
			<text fill="#595959" font-family="Verdana,Open Sans,DejaVu Sans,sans-serif" font-weight="400" font-size="41" transform="matrix(6.12323e-17 -1 1 6.12323e-17 3572.1800818810098 1209.70849609375)">10-Nov</text>
		</g>
		<g>
			<text fill="#595959" font-family="Verdana,Open Sans,DejaVu Sans,sans-serif" font-weight="400" font-size="41" transform="matrix(6.12323e-17 -1 1 6.12323e-17 3654.333928034856 1207.0859375)">08-Dec</text>
		</g>
		<g>
			<text fill="#595959" font-family="Verdana,Open Sans,DejaVu Sans,sans-serif" font-weight="400" font-size="41" transform="matrix(6.12323e-17 -1 1 6.12323e-17 3740.141338641827 1191.6508712768555)">05-Jan</text>
		</g>
		<g>
			<text fill="#595959" font-family="Verdana,Open Sans,DejaVu Sans,sans-serif" font-weight="400" font-size="41" transform="matrix(6.12323e-17 -1 1 6.12323e-17 3819.352313701923 1203.0419921875)">02-Feb</text>
		</g>
		<g>
			<text fill="#595959" font-family="Verdana,Open Sans,DejaVu Sans,sans-serif" font-weight="400" font-size="41" transform="matrix(6.12323e-17 -1 1 6.12323e-17 3900.7954664963945 1212.0107421875)">02-Mar</text>
		</g>
		<g>
			<text fill="#595959" font-family="Verdana,Open Sans,DejaVu Sans,sans-serif" font-weight="400" font-size="41" transform="matrix(6.12323e-17 -1 1 6.12323e-17 3982.9493126502402 1212.1708984375)">30-Mar</text>
		</g>
		<g>
			<text fill="#595959" font-family="Verdana,Open Sans,DejaVu Sans,sans-serif" font-weight="400" font-size="41" transform="matrix(6.12323e-17 -1 1 6.12323e-17 4069.807748647837 1203.3022384643555)">27-Apr</text>
		</g>
		<g>
			<text fill="#595959" font-family="Verdana,Open Sans,DejaVu Sans,sans-serif" font-weight="400" font-size="41" transform="matrix(6.12323e-17 -1 1 6.12323e-17 4151.961594801683 1216.51513671875)">25-May</text>
		</g>
		<g>
			<text fill="#595959" font-family="Verdana,Open Sans,DejaVu Sans,sans-serif" font-weight="400" font-size="41" transform="matrix(6.12323e-17 -1 1 6.12323e-17 4233.044396033654 1194.0532150268555)">22-Jun</text>
		</g>
		<g>
			<text fill="#595959" font-family="Verdana,Open Sans,DejaVu Sans,sans-serif" font-weight="400" font-size="41" transform="matrix(6.12323e-17 -1 1 6.12323e-17 4315.928955078125 1179.0385665893555)">20-Jul</text>
		</g>
		<g>
			<text fill="#595959" font-family="Verdana,Open Sans,DejaVu Sans,sans-serif" font-weight="400" font-size="41" transform="matrix(1 0 0 1 3169.14111328125 1050)">0</text>
		</g>
		<g>
			<text fill="#595959" font-family="Verdana,Open Sans,DejaVu Sans,sans-serif" font-weight="400" font-size="41" transform="matrix(1 0 0 1 3067.0815505981445 922)">18,987</text>
		</g>
		<g>
			<text fill="#595959" font-family="Verdana,Open Sans,DejaVu Sans,sans-serif" font-weight="400" font-size="41" transform="matrix(1 0 0 1 3063.9384841918945 794)">37,974</text>
		</g>
		<g>
			<text fill="#595959" font-family="Verdana,Open Sans,DejaVu Sans,sans-serif" font-weight="400" font-size="41" transform="matrix(1 0 0 1 3065.9404373168945 666)">56,960</text>
		</g>
		<g>
			<text fill="#595959" font-family="Verdana,Open Sans,DejaVu Sans,sans-serif" font-weight="400" font-size="41" transform="matrix(1 0 0 1 3065.1997146606445 538)">75,947</text>
		</g>
		<g>
			<text fill="#595959" font-family="Verdana,Open Sans,DejaVu Sans,sans-serif" font-weight="400" font-size="41" transform="matrix(1 0 0 1 3064.1787185668945 410)">94,934</text>
		</g>
		<g>
			<text fill="#595959" font-family="Verdana,Open Sans,DejaVu Sans,sans-serif" font-weight="400" font-size="41" transform="matrix(1 0 0 1 3556.97119140625 1321)">Week Commencing</text>
		</g>
		<g>
			<text fill="#595959" font-family="Verdana,Open Sans,DejaVu Sans,sans-serif" font-weight="400" font-size="46" transform="matrix(6.12323e-17 -1 1 6.12323e-17 3019.73 1028.5532531738281)">Number of Hardware Profiles</text>
		</g>
		<rect x="2918.5" y="347.5" width="1760" height="1043" stroke="#D9D9D9" stroke-width="3.4375" stroke-linejoin="round" stroke-miterlimit="10" fill="none" />
		<g>
			<path d="M3228.5 1038 3249.0384615384614 1038 3269.576923076923 1038 3290.1153846153848 1038 3310.653846153846 1038 3331.1923076923076 1038 3351.730769230769 1038 3372.269230769231 1038 3392.8076923076924 1038 3413.346153846154 1038 3433.8846153846152 1038 3454.423076923077 1038 3474.9615384615386 1038 3495.5 1038 3516.0384615384614 1038 3536.576923076923 1038 3557.1153846153848 1038 3577.653846153846 1038 3598.1923076923076 1038 3618.7307692307695 1038 3639.269230769231 1038 3659.8076923076924 1038 3680.346153846154 1038 3700.8846153846152 1038 3721.423076923077 1038 3741.9615384615386 1038 3762.5 1038 3783.0384615384614 1038 3803.576923076923 1038 3824.1153846153848 1038 3844.653846153846 1038 3865.1923076923076 1038 3885.7307692307695 1038 3906.269230769231 1038 3926.8076923076924 1038 3947.346153846154 1038 3967.8846153846152 1038 3988.423076923077 1038 4008.9615384615386 1038 4029.5 1038 4050.038461538462 1038 4070.576923076923 1038 4091.1153846153848 1038 4111.653846153846 1038 4132.192307692308 1038 4152.7307692307695 1038 4173.2692307692305 1038 4193.807692307692 1038 4214.346153846154 1038 4234.884615384615 1038 4255.423076923077 1038 4275.961538461539 1038 4296.5 1038 4296.5 693.7709566646301 4275.961538461539 694.0271346409083 4255.423076923077 694.2967956685698 4234.884615384615 694.6406134788378 4214.346153846154 694.9642067120315 4193.807692307692 695.1866770598522 4173.2692307692305 695.3282490993743 4152.7307692307695 695.4900457159711 4132.192307692308 695.7057745381002 4111.653846153846 695.982177091453 4091.1153846153848 696.1574567594329 4070.576923076923 696.3125118503381 4050.038461538462 696.690037289064 4029.5 696.9799228937999 4008.9615384615386 697.2361008700782 3988.423076923077 697.4046390123665 3967.8846153846152 697.6203678344955 3947.346153846154 697.9776686961468 3926.8076923076924 698.3956432890218 3906.269230769231 698.6653043166832 3885.7307692307695 698.8742916131207 3865.1923076923076 699.1237280637074 3844.653846153846 699.3933890913688 3824.1153846153848 699.5417026565824 3803.576923076923 699.7911391071692 3783.0384615384614 700.0136094549898 3762.5 700.3978764194071 3741.9615384615386 700.6540543956854 3721.423076923077 700.9574230518044 3700.8846153846152 701.0585459371774 3680.346153846154 701.1798933996249 3659.8076923076924 701.3956222217541 3639.269230769231 701.6518001980323 3618.7307692307695 701.8540459687783 3598.1923076923076 702.0562917395243 3577.653846153846 702.2517959845787 3557.1153846153848 702.4270756525586 3536.576923076923 702.6023553205384 3516.0384615384614 702.8585332968167 3495.5 703.1484189015526 3474.9615384615386 703.3776307750647 3454.423076923077 703.6270672256514 3433.8846153846152 703.9574019845365 3413.346153846154 704.3551520003371 3392.8076923076924 704.7057113362969 3372.269230769231 705.0158215181073 3351.730769230769 705.3191901742264 3331.1923076923076 705.5146944192808 3310.653846153846 705.8315461267828 3290.1153846153848 706.0944656287527 3269.576923076923 706.4045758105631 3249.0384615384614 706.7888427749806 3228.5 707.0719868540249 3228.5 1038Z" fill="#e62d39" opacity="0.9" />
		</g>
		<g>
			<path d="M3228.5 707.0719868540249 3249.0384615384614 706.7888427749806 3269.576923076923 706.4045758105631 3290.1153846153848 706.0944656287527 3310.653846153846 705.8315461267828 3331.1923076923076 705.5146944192808 3351.730769230769 705.3191901742264 3372.269230769231 705.0158215181073 3392.8076923076924 704.7057113362969 3413.346153846154 704.3551520003371 3433.8846153846152 703.9574019845365 3454.423076923077 703.6270672256514 3474.9615384615386 703.3776307750647 3495.5 703.1484189015526 3516.0384615384614 702.8585332968167 3536.576923076923 702.6023553205384 3557.1153846153848 702.4270756525586 3577.653846153846 702.2517959845787 3598.1923076923076 702.0562917395243 3618.7307692307695 701.8540459687783 3639.269230769231 701.6518001980323 3659.8076923076924 701.3956222217541 3680.346153846154 701.1798933996249 3700.8846153846152 701.0585459371774 3721.423076923077 700.9574230518044 3741.9615384615386 700.6540543956854 3762.5 700.3978764194071 3783.0384615384614 700.0136094549898 3803.576923076923 699.7911391071692 3824.1153846153848 699.5417026565824 3844.653846153846 699.3933890913688 3865.1923076923076 699.1237280637074 3885.7307692307695 698.8742916131207 3906.269230769231 698.6653043166832 3926.8076923076924 698.3956432890218 3947.346153846154 697.9776686961468 3967.8846153846152 697.6203678344955 3988.423076923077 697.4046390123665 4008.9615384615386 697.2361008700782 4029.5 696.9799228937999 4050.038461538462 696.690037289064 4070.576923076923 696.3125118503381 4091.1153846153848 696.1574567594329 4111.653846153846 695.982177091453 4132.192307692308 695.7057745381002 4152.7307692307695 695.4900457159711 4173.2692307692305 695.3282490993743 4193.807692307692 695.1866770598522 4214.346153846154 694.9642067120315 4234.884615384615 694.6406134788378 4255.423076923077 694.2967956685698 4275.961538461539 694.0271346409083 4296.5 693.7709566646301 4296.5 530.4642383129332 4275.961538461539 530.7473823919775 4255.423076923077 531.0777171508628 4234.884615384615 531.5293993721954 4214.346153846154 531.9743400678366 4193.807692307692 532.2777087239556 4173.2692307692305 532.5271451745423 4152.7307692307695 532.7698400994375 4132.192307692308 533.0529841784819 4111.653846153846 533.5181494511976 4091.1153846153848 533.7810689531675 4070.576923076923 534.0574715065202 4050.038461538462 534.4889291507784 4029.5 534.8462300124297 4008.9615384615386 535.1630817199318 3988.423076923077 535.3720690163693 3967.8846153846152 535.6080224155728 3947.346153846154 536.0327385341395 3926.8076923076924 536.4641961783975 3906.269230769231 536.7675648345166 3885.7307692307695 537.0372258621779 3865.1923076923076 537.3405945182969 3844.653846153846 537.657446225799 3824.1153846153848 537.8462089451618 3803.576923076923 538.1563191269724 3783.0384615384614 538.4529462573998 3762.5 538.9787852613395 3741.9615384615386 539.3023784945331 3721.423076923077 539.7473191901743 3700.8846153846152 539.9225988581541 3680.346153846154 540.0641708976761 3659.8076923076924 540.3540565024123 3639.269230769231 540.718098889755 3618.7307692307695 540.9945014431079 3598.1923076923076 541.2776455221523 3577.653846153846 541.540565024122 3557.1153846153848 541.8237091031665 3536.576923076923 542.1203362335939 3516.0384615384614 542.5248277750859 3495.5 542.9495438936524 3474.9615384615386 543.3540354351444 3454.423076923077 543.7517854509448 3433.8846153846152 544.2506583521182 3413.346153846154 544.7697558303663 3392.8076923076924 545.2214380516991 3372.269230769231 545.6596372216486 3351.730769230769 546.0641287631408 3331.1923076923076 546.2865991109613 3310.653846153846 546.6641245496871 3290.1153846153848 547.0753576168707 3269.576923076923 547.560747466661 3249.0384615384614 548.1135525733669 3228.5 548.5247856405502 3228.5 707.0719868540249Z" fill="#f6a118" opacity="0.9" />
		</g>
		<g>
			<path d="M3228.5 548.5247856405502 3249.0384615384614 548.1135525733669 3269.576923076923 547.560747466661 3290.1153846153848 547.0753576168707 3310.653846153846 546.6641245496871 3331.1923076923076 546.2865991109613 3351.730769230769 546.0641287631408 3372.269230769231 545.6596372216486 3392.8076923076924 545.2214380516991 3413.346153846154 544.7697558303663 3433.8846153846152 544.2506583521182 3454.423076923077 543.7517854509448 3474.9615384615386 543.3540354351444 3495.5 542.9495438936524 3516.0384615384614 542.5248277750859 3536.576923076923 542.1203362335939 3557.1153846153848 541.8237091031665 3577.653846153846 541.540565024122 3598.1923076923076 541.2776455221523 3618.7307692307695 540.9945014431079 3639.269230769231 540.718098889755 3659.8076923076924 540.3540565024123 3680.346153846154 540.0641708976761 3700.8846153846152 539.9225988581541 3721.423076923077 539.7473191901743 3741.9615384615386 539.3023784945331 3762.5 538.9787852613395 3783.0384615384614 538.4529462573998 3803.576923076923 538.1563191269724 3824.1153846153848 537.8462089451618 3844.653846153846 537.657446225799 3865.1923076923076 537.3405945182969 3885.7307692307695 537.0372258621779 3906.269230769231 536.7675648345166 3926.8076923076924 536.4641961783975 3947.346153846154 536.0327385341395 3967.8846153846152 535.6080224155728 3988.423076923077 535.3720690163693 4008.9615384615386 535.1630817199318 4029.5 534.8462300124297 4050.038461538462 534.4889291507784 4070.576923076923 534.0574715065202 4091.1153846153848 533.7810689531675 4111.653846153846 533.5181494511976 4132.192307692308 533.0529841784819 4152.7307692307695 532.7698400994375 4173.2692307692305 532.5271451745423 4193.807692307692 532.2777087239556 4214.346153846154 531.9743400678366 4234.884615384615 531.5293993721954 4255.423076923077 531.0777171508628 4275.961538461539 530.7473823919775 4296.5 530.4642383129332 4296.5 457.28497693134176 4275.961538461539 457.56812101038605 4255.423076923077 457.35239218825717 4234.884615384615 457.8108159352813 4214.346153846154 458.30968883645477 4193.807692307692 458.6332820696484 4173.2692307692305 458.9164261486927 4152.7307692307695 459.17260412497103 4132.192307692308 459.46248972970693 4111.653846153846 459.9478795794972 4091.1153846153848 460.2579897613079 4070.576923076923 460.54113384035213 4050.038461538462 460.99955758737644 4029.5 461.37034150041086 4008.9615384615386 461.71415931067907 3988.423076923077 461.92314660711656 3967.8846153846152 462.1658415320116 3947.346153846154 462.60404070196137 3926.8076923076924 463.03549834621936 3906.269230769231 463.3388670023385 3885.7307692307695 463.6085280299998 3865.1923076923076 463.9253797375019 3844.653846153846 464.25571449638704 3824.1153846153848 464.4579602671329 3803.576923076923 464.7680704489435 3783.0384615384614 465.0849221564455 3762.5 465.6444687888428 3741.9615384615386 465.9748035477279 3721.423076923077 466.4332272947522 3700.8846153846152 466.6152484884235 3680.346153846154 466.7568205279456 3659.8076923076924 467.0871552868309 3639.269230769231 467.49838835401437 3618.7307692307695 467.8287231128995 3598.1923076923076 468.13209176901853 3577.653846153846 468.4017527966797 3557.1153846153848 468.71860450418194 3536.576923076923 469.06242231445003 3516.0384615384614 469.56803674131504 3495.5 470.0399435397223 3474.9615384615386 470.49162576105505 3454.423076923077 470.93656645669614 3433.8846153846152 471.55004529462565 3413.346153846154 472.10959192702296 3392.8076923076924 472.5882402511219 3372.269230769231 473.06688857522056 3351.730769230769 473.4848631680959 3331.1923076923076 473.7342996186825 3310.653846153846 474.16575726294053 3290.1153846153848 474.65788863842255 3269.576923076923 475.170244590979 3249.0384615384614 475.7432742747594 3228.5 476.16799039332585 3228.5 548.5247856405502Z" fill="#55c0e9" opacity="0.9" />
		</g>
		<g>
			<path d="M3228.5 476.16799039332585 3249.0384615384614 475.7432742747594 3269.576923076923 475.170244590979 3290.1153846153848 474.65788863842255 3310.653846153846 474.16575726294053 3331.1923076923076 473.7342996186825 3351.730769230769 473.4848631680959 3372.269230769231 473.06688857522056 3392.8076923076924 472.5882402511219 3413.346153846154 472.10959192702296 3433.8846153846152 471.55004529462565 3454.423076923077 470.93656645669614 3474.9615384615386 470.49162576105505 3495.5 470.0399435397223 3516.0384615384614 469.56803674131504 3536.576923076923 469.06242231445003 3557.1153846153848 468.71860450418194 3577.653846153846 468.4017527966797 3598.1923076923076 468.13209176901853 3618.7307692307695 467.8287231128995 3639.269230769231 467.49838835401437 3659.8076923076924 467.0871552868309 3680.346153846154 466.7568205279456 3700.8846153846152 466.6152484884235 3721.423076923077 466.4332272947522 3741.9615384615386 465.9748035477279 3762.5 465.6444687888428 3783.0384615384614 465.0849221564455 3803.576923076923 464.7680704489435 3824.1153846153848 464.4579602671329 3844.653846153846 464.25571449638704 3865.1923076923076 463.9253797375019 3885.7307692307695 463.6085280299998 3906.269230769231 463.3388670023385 3926.8076923076924 463.03549834621936 3947.346153846154 462.60404070196137 3967.8846153846152 462.1658415320116 3988.423076923077 461.92314660711656 4008.9615384615386 461.71415931067907 4029.5 461.37034150041086 4050.038461538462 460.99955758737644 4070.576923076923 460.54113384035213 4091.1153846153848 460.2579897613079 4111.653846153846 459.9478795794972 4132.192307692308 459.46248972970693 4152.7307692307695 459.17260412497103 4173.2692307692305 458.9164261486927 4193.807692307692 458.6332820696484 4214.346153846154 458.30968883645477 4234.884615384615 457.8108159352813 4255.423076923077 457.35239218825717 4275.961538461539 457.56812101038605 4296.5 457.28497693134176 4296.5 399.2674068300082 4275.961538461539 399.93481787346985 4255.423076923077 400.5954873912403 4234.884615384615 401.3100891145427 4214.346153846154 402.0179493121537 4193.807692307692 402.51682221332715 4173.2692307692305 402.9010891777445 4152.7307692307695 403.35277139907726 4132.192307692308 403.74377988918616 4111.653846153846 404.41119093264786 4091.1153846153848 404.8696146796722 4070.576923076923 405.3280384266963 4050.038461538462 406.0156740472328 4029.5 406.7370172962269 4008.9615384615386 407.29656392862415 3988.423076923077 407.74824614995686 3967.8846153846152 408.1594792171402 3947.346153846154 408.6448690669307 3926.8076923076924 409.3257631617754 3906.269230769231 409.7909284344913 3885.7307692307695 410.1751953989087 3865.1923076923076 410.7954157625298 3844.653846153846 411.4628268059916 3824.1153846153848 411.9414751300903 3803.576923076923 412.5954031221691 3783.0384615384614 413.04708534350175 3762.5 413.7751701181874 3741.9615384615386 414.2335938652116 3721.423076923077 414.81336507468353 3700.8846153846152 415.0560599995786 3680.346153846154 415.2583057703245 3659.8076923076924 415.6965049402744 3639.269230769231 416.2088608928308 3618.7307692307695 416.59312785724825 3598.1923076923076 417.0313270271979 3577.653846153846 417.4223355173067 3557.1153846153848 417.85379316156497 3536.576923076923 418.3459245370468 3516.0384615384614 418.98636947774247 3495.5 419.4785008532243 3474.9615384615386 420.11894579392 3454.423076923077 420.7189415804663 3433.8846153846152 421.38635262392813 3413.346153846154 422.09421282153914 3392.8076923076924 422.6065687740957 3372.269230769231 423.2470137147912 3351.730769230769 423.8402679756464 3331.1923076923076 424.1840857859145 3310.653846153846 424.7840815724608 3290.1153846153848 425.47845871868884 3269.576923076923 426.1526112878421 3249.0384615384614 426.7863147028463 3228.5 427.3728274380095 3228.5 476.16799039332585Z" fill="#fdd5a4" opacity="0.9" />
		</g>
		<g>
			<path d="M3228.5 427.3728274380095 3249.0384615384614 426.7863147028463 3269.576923076923 426.1526112878421 3290.1153846153848 425.47845871868884 3310.653846153846 424.7840815724608 3331.1923076923076 424.1840857859145 3351.730769230769 423.8402679756464 3372.269230769231 423.2470137147912 3392.8076923076924 422.6065687740957 3413.346153846154 422.09421282153914 3433.8846153846152 421.38635262392813 3454.423076923077 420.7189415804663 3474.9615384615386 420.11894579392 3495.5 419.4785008532243 3516.0384615384614 418.98636947774247 3536.576923076923 418.3459245370468 3557.1153846153848 417.85379316156497 3577.653846153846 417.4223355173067 3598.1923076923076 417.0313270271979 3618.7307692307695 416.59312785724825 3639.269230769231 416.2088608928308 3659.8076923076924 415.6965049402744 3680.346153846154 415.2583057703245 3700.8846153846152 415.0560599995786 3721.423076923077 414.81336507468353 3741.9615384615386 414.2335938652116 3762.5 413.7751701181874 3783.0384615384614 413.04708534350175 3803.576923076923 412.5954031221691 3824.1153846153848 411.9414751300903 3844.653846153846 411.4628268059916 3865.1923076923076 410.7954157625298 3885.7307692307695 410.1751953989087 3906.269230769231 409.7909284344913 3926.8076923076924 409.3257631617754 3947.346153846154 408.6448690669307 3967.8846153846152 408.1594792171402 3988.423076923077 407.74824614995686 4008.9615384615386 407.29656392862415 4029.5 406.7370172962269 4050.038461538462 406.0156740472328 4070.576923076923 405.3280384266963 4091.1153846153848 404.8696146796722 4111.653846153846 404.41119093264786 4132.192307692308 403.74377988918616 4152.7307692307695 403.35277139907726 4173.2692307692305 402.9010891777445 4193.807692307692 402.51682221332715 4214.346153846154 402.0179493121537 4234.884615384615 401.3100891145427 4255.423076923077 400.5954873912403 4275.961538461539 399.93481787346985 4296.5 399.2674068300082 4296.5 398 4275.961538461539 398.66741104346164 4255.423076923077 399.32808056123207 4234.884615384615 400.04268228453446 4214.346153846154 400.7505424821455 4193.807692307692 401.24941538331893 4173.2692307692305 401.6336823477363 4152.7307692307695 402.08536456906904 4132.192307692308 402.47637305917794 4111.653846153846 403.14378410263964 4091.1153846153848 403.602207849664 4070.576923076923 404.0606315966881 4050.038461538462 404.74826721722457 4029.5 405.4696104662187 4008.9615384615386 406.02915709861594 3988.423076923077 406.48083931994864 3967.8846153846152 406.892072387132 3947.346153846154 407.3774622369225 3926.8076923076924 408.0583563317672 3906.269230769231 408.5235216044831 3885.7307692307695 408.9077885689005 3865.1923076923076 409.5280089325216 3844.653846153846 410.1954199759834 3824.1153846153848 410.67406830008207 3803.576923076923 411.3279962921609 3783.0384615384614 411.77967851349354 3762.5 412.5077632881792 3741.9615384615386 412.9661870352034 3721.423076923077 413.5459582446753 3700.8846153846152 413.7886531695704 3680.346153846154 413.9908989403163 3659.8076923076924 414.4290981102662 3639.269230769231 414.9414540628226 3618.7307692307695 415.3392040786231 3598.1923076923076 415.77740324857274 3577.653846153846 416.1684117386815 3557.1153846153848 416.5998693829398 3536.576923076923 417.09200075842165 3516.0384615384614 417.7324456991173 3495.5 418.22457707459915 3474.9615384615386 418.8650220152948 3454.423076923077 419.46501780184116 3433.8846153846152 420.13242884530297 3413.346153846154 420.840289042914 3392.8076923076924 421.35264499547054 3372.269230769231 421.99308993616603 3351.730769230769 422.5863441970212 3331.1923076923076 422.9301620072893 3310.653846153846 423.53015779383566 3290.1153846153848 424.2245349400637 3269.576923076923 424.8986875092169 3249.0384615384614 425.53239092422115 3228.5 426.11890365938433 3228.5 427.3728274380095Z" fill="#005aa6" opacity="0.9" />
		</g>
		<g>
			<rect x="4372" y="431" width="22.9995" height="23" fill="#e62d39" />
		</g>
		<g>
			<text fill="#595959" font-family="Verdana,Open Sans,DejaVu Sans,sans-serif" font-weight="400" font-size="41" transform="matrix(1 0 0 1 4404.56 454)">Smartphone</text>
		</g>
		<g>
			<rect x="4372" y="508" width="22.9995" height="23" fill="#f6a118" />
		</g>
		<g>
			<text fill="#595959" font-family="Verdana,Open Sans,DejaVu Sans,sans-serif" font-weight="400" font-size="41" transform="matrix(1 0 0 1 4404.56 531)">Tablet</text>
		</g>
		<g>
			<rect x="4372" y="585" width="22.9995" height="23" fill="#55c0e9" />
		</g>
		<g>
			<text fill="#595959" font-family="Verdana,Open Sans,DejaVu Sans,sans-serif" font-weight="400" font-size="41" transform="matrix(1 0 0 1 4404.56 608)">Other</text>
		</g>
		<g>
			<rect x="4372" y="662" width="22.9995" height="23" fill="#fdd5a4" />
		</g>
		<g>
			<text fill="#595959" font-family="Verdana,Open Sans,DejaVu Sans,sans-serif" font-weight="400" font-size="41" transform="matrix(1 0 0 1 4404.56 685)">Tv</text>
		</g>
		<g>
			<rect x="4372" y="739" width="22.9995" height="23" fill="#005aa6" />
		</g>
		<g>
			<text fill="#595959" font-family="Verdana,Open Sans,DejaVu Sans,sans-serif" font-weight="400" font-size="41" transform="matrix(1 0 0 1 4404.56 762)">Desktop</text>
		</g>
	</g>
</svg>
