<svg width="1763" height="1046"
    xmlns="http://www.w3.org/2000/svg"
	xmlns:xlink="http://www.w3.org/1999/xlink" xml:space="preserve" overflow="hidden">
	<defs>
		<clipPath id="clip0">
			<rect x="2917" y="346" width="1763" height="1046"/>
		</clipPath>
	</defs>
	<g clip-path="url(#clip0)" transform="translate(-2917 -346)">
		<rect x="2918" y="347" width="1760" height="1043" fill="#FFFFFF" />
		<g>
			<path d="
			M3228.5 974.532 4296.5 974.532
			M3228.5 910.53 4296.5 910.53
			M3228.5 846.528 4296.5 846.528
			M3228.5 781.526 4296.5 781.526
			M3228.5 717.524 4296.5 717.524
			M3228.5 653.522 4296.5 653.522
			M3228.5 589.52 4296.5 589.52
			M3228.5 525.517 4296.5 525.517
			M3228.5 461.515 4296.5 461.515
			M3228.5 397.5 4296.5 397.5" stroke="#D9D9D9" stroke-width="3.4375" stroke-linejoin="round" stroke-miterlimit="10" fill="none" />
		</g>
		<g>
			<path d="M 1038.5 4296.5 1038.5" stroke="#D9D9D9" stroke-width="3.4375" stroke-linejoin="round" stroke-miterlimit="10" fill="none" fill-rule="evenodd" />
		</g>
		<g>
			<text fill="#595959" font-family="Verdana,sans-serif" font-weight="400" font-size="41" transform="matrix(6.12323e-17 -1 1 6.12323e-17 3244.5 1225)">06-Nov</text>
		</g>
		<g>
			<text fill="#595959" font-family="Verdana,sans-serif" font-weight="400" font-size="41" transform="matrix(6.12323e-17 -1 1 6.12323e-17 3354.0384615384614 1223)">04-Dec</text>
		</g>
		<g>
			<text fill="#595959" font-family="Verdana,sans-serif" font-weight="400" font-size="41" transform="matrix(6.12323e-17 -1 1 6.12323e-17 3463.576923076923 1210)">01-Jan</text>
		</g>
		<g>
			<text fill="#595959" font-family="Verdana,sans-serif" font-weight="400" font-size="41" transform="matrix(6.12323e-17 -1 1 6.12323e-17 3573.1153846153848 1210)">29-Jan</text>
		</g>
		<g>
			<text fill="#595959" font-family="Verdana,sans-serif" font-weight="400" font-size="41" transform="matrix(6.12323e-17 -1 1 6.12323e-17 3682.653846153846 1216)">26-Feb</text>
		</g>
		<g>
			<text fill="#595959" font-family="Verdana,sans-serif" font-weight="400" font-size="41" transform="matrix(6.12323e-17 -1 1 6.12323e-17 3792.1923076923076 1223)">25-Mar</text>
		</g>
		<g>
			<text fill="#595959" font-family="Verdana,sans-serif" font-weight="400" font-size="41" transform="matrix(6.12323e-17 -1 1 6.12323e-17 3905.230769230769 1216)">22-Apr</text>
		</g>
		<g>
			<text fill="#595959" font-family="Verdana,sans-serif" font-weight="400" font-size="41" transform="matrix(6.12323e-17 -1 1 6.12323e-17 4014.7692307692305 1228)">20-May</text>
		</g>
		<g>
			<text fill="#595959" font-family="Verdana,sans-serif" font-weight="400" font-size="41" transform="matrix(6.12323e-17 -1 1 6.12323e-17 4120.307692307692 1209)">17-Jun</text>
		</g>
		<g>
			<text fill="#595959" font-family="Verdana,sans-serif" font-weight="400" font-size="41" transform="matrix(6.12323e-17 -1 1 6.12323e-17 4230.346153846154 1194)">15-Jul</text>
		</g>
		<g>
			<text fill="#595959" font-family="Verdana,sans-serif" font-weight="400" font-size="41" transform="matrix(1 0 0 1 3123.5 1050)">0%</text>
		</g>
		<g>
			<text fill="#595959" font-family="Verdana,sans-serif" font-weight="400" font-size="41" transform="matrix(1 0 0 1 3097.5 922)">20%</text>
		</g>
		<g>
			<text fill="#595959" font-family="Verdana,sans-serif" font-weight="400" font-size="41" transform="matrix(1 0 0 1 3096.5 794)">40%</text>
		</g>
		<g>
			<text fill="#595959" font-family="Verdana,sans-serif" font-weight="400" font-size="41" transform="matrix(1 0 0 1 3097.5 666)">60%</text>
		</g>
		<g>
			<text fill="#595959" font-family="Verdana,sans-serif" font-weight="400" font-size="41" transform="matrix(1 0 0 1 3097.5 538)">80%</text>
		</g>
		<g>
			<text fill="#595959" font-family="Verdana,sans-serif" font-weight="400" font-size="41" transform="matrix(1 0 0 1 3074.5 410)">100%</text>
		</g>
		<g>
			<text fill="#595959" font-family="Verdana,sans-serif" font-weight="400" font-size="41" transform="matrix(1 0 0 1 3544.5 1321)">Week Commencing</text>
		</g>
		<g>
			<text fill="#595959" font-family="Verdana,sans-serif" font-weight="400" font-size="46" transform="matrix(6.12323e-17 -1 1 6.12323e-17 3019.73 965.25)">Requests (% of Total)</text>
		</g>
		<rect x="2918.5" y="347.5" width="1760" height="1043" stroke="#D9D9D9" stroke-width="3.4375" stroke-linejoin="round" stroke-miterlimit="10" fill="none" />
		<g>
			<path d="M3228.5 1038 3255.8846153846152 1038 3283.269230769231 1038 3310.653846153846 1038 3338.0384615384614 1038 3365.423076923077 1038 3392.8076923076924 1038 3420.1923076923076 1038 3447.576923076923 1038 3474.9615384615386 1038 3502.346153846154 1038 3529.730769230769 1038 3557.1153846153848 1038 3584.5 1038 3611.8846153846152 1038 3639.269230769231 1038 3666.653846153846 1038 3694.0384615384614 1038 3721.423076923077 1038 3748.8076923076924 1038 3776.1923076923076 1038 3803.576923076923 1038 3830.9615384615386 1038 3858.346153846154 1038 3885.730769230769 1038 3913.1153846153848 1038 3940.5 1038 3967.8846153846152 1038 3995.2692307692305 1038 4022.653846153846 1038 4050.0384615384614 1038 4077.423076923077 1038 4104.807692307692 1038 4132.192307692308 1038 4159.576923076923 1038 4186.961538461538 1038 4214.346153846154 1038 4241.7307692307695 1038 4269.115384615385 1038 4296.5 1038 4296.5 631.9415100696045 4269.115384615385 630.857109120077 4241.7307692307695 629.6835942752446 4214.346153846154 628.7570391925642 4186.961538461538 627.5176878063296 4159.576923076923 626.3963136974012 4132.192307692308 625.2428890685153 4104.807692307692 624.0667377001988 4077.423076923077 622.80172023452 4050.0384615384614 632.4054355541638 4022.653846153846 630.9533026623258 3995.2692307692305 630.0731822124889 3967.8846153846152 629.6411395703622 3940.5 629.3637077507597 3913.1153846153848 629.112232069277 3885.730769230769 628.7712194186788 3858.346153846154 629.1405060461395 3830.9615384615386 630.4544284738802 3803.576923076923 631.6183228637996 3776.1923076923076 647.4118241208081 3748.8076923076924 648.3895796632379 3721.423076923077 621.5001438018157 3694.0384615384614 620.7479883324611 3666.653846153846 618.9772962489769 3639.269230769231 616.6754829613407 3611.8846153846152 614.5117939817052 3584.5 615.2796120230914 3557.1153846153848 615.9275087100596 3529.730769230769 616.3813797093885 3502.346153846154 616.3755182018299 3474.9615384615386 569.065986327317 3447.576923076923 568.8533275368973 3420.1923076923076 570.4200135868562 3392.8076923076924 571.2367304637471 3365.423076923077 574.6430294813756 3338.0384615384614 573.9159777926823 3310.653846153846 571.940753677543 3283.269230769231 571.7928428278394 3255.8846153846152 571.6102570585995 3228.5 570.6431995209241 3228.5 1038Z" fill="#e62d39" opacity="0.9" />
		</g>
		<g>
			<path d="M3228.5 570.6431995209241 3255.8846153846152 571.6102570585995 3283.269230769231 571.7928428278394 3310.653846153846 571.940753677543 3338.0384615384614 573.9159777926823 3365.423076923077 574.6430294813756 3392.8076923076924 571.2367304637471 3420.1923076923076 570.4200135868562 3447.576923076923 568.8533275368973 3474.9615384615386 569.065986327317 3502.346153846154 616.3755182018299 3529.730769230769 616.3813797093885 3557.1153846153848 615.9275087100596 3584.5 615.2796120230914 3611.8846153846152 614.5117939817052 3639.269230769231 616.6754829613407 3666.653846153846 618.9772962489769 3694.0384615384614 620.7479883324611 3721.423076923077 621.5001438018157 3748.8076923076924 648.3895796632379 3776.1923076923076 647.4118241208081 3803.576923076923 631.6183228637996 3830.9615384615386 630.4544284738802 3858.346153846154 629.1405060461395 3885.730769230769 628.7712194186788 3913.1153846153848 629.112232069277 3940.5 629.3637077507597 3967.8846153846152 629.6411395703622 3995.2692307692305 630.0731822124889 4022.653846153846 630.9533026623258 4050.0384615384614 632.4054355541638 4077.423076923077 622.80172023452 4104.807692307692 624.0667377001988 4132.192307692308 625.2428890685153 4159.576923076923 626.3963136974012 4186.961538461538 627.5176878063296 4214.346153846154 628.7570391925642 4241.7307692307695 629.6835942752446 4269.115384615385 630.857109120077 4296.5 631.9415100696045 4296.5 550.4510715595417 4269.115384615385 549.056064697407 4241.7307692307695 547.7069248917836 4214.346153846154 546.4892681197156 4186.961538461538 545.0068552240035 4159.576923076923 543.5872074138473 4132.192307692308 542.2071477253921 4104.807692307692 540.7523658360859 4077.423076923077 539.1846046453284 4050.0384615384614 550.69398337688 4022.653846153846 549.0305649530324 3995.2692307692305 547.8419869340069 3967.8846153846152 547.2972215888882 3940.5 546.9206806705122 3913.1153846153848 546.5765460991323 3885.730769230769 546.1401156456737 3858.346153846154 546.162084159149 3830.9615384615386 547.0193242259644 3803.576923076923 547.5943073684911 3776.1923076923076 565.6397555577983 3748.8076923076924 566.0005705781988 3721.423076923077 541.8846686674905 3694.0384615384614 541.0539314470215 3666.653846153846 539.8778029714027 3639.269230769231 538.0311425357806 3611.8846153846152 536.4270145966814 3584.5 536.7106293649022 3557.1153846153848 536.9764016245806 3529.730769230769 535.7941999215749 3502.346153846154 535.7525782888524 3474.9615384615386 509.06513243323207 3447.576923076923 509.44212806241245 3420.1923076923076 509.38220585337143 3392.8076923076924 509.60866877735396 3365.423076923077 511.9603578529975 3338.0384615384614 511.0153758579769 3310.653846153846 509.7472741468517 3283.269230769231 509.176439393107 3255.8846153846152 508.6338001891333 3228.5 508.14325383903014 3228.5 570.6431995209241Z" fill="#005aa6" opacity="0.9" />
		</g>
		<g>
			<path d="M3228.5 508.14325383903014 3255.8846153846152 508.6338001891333 3283.269230769231 509.176439393107 3310.653846153846 509.7472741468517 3338.0384615384614 511.0153758579769 3365.423076923077 511.9603578529975 3392.8076923076924 509.60866877735396 3420.1923076923076 509.38220585337143 3447.576923076923 509.44212806241245 3474.9615384615386 509.06513243323207 3502.346153846154 535.7525782888524 3529.730769230769 535.7941999215749 3557.1153846153848 536.9764016245806 3584.5 536.7106293649022 3611.8846153846152 536.4270145966814 3639.269230769231 538.0311425357806 3666.653846153846 539.8778029714027 3694.0384615384614 541.0539314470215 3721.423076923077 541.8846686674905 3748.8076923076924 566.0005705781988 3776.1923076923076 565.6397555577983 3803.576923076923 547.5943073684911 3830.9615384615386 547.0193242259644 3858.346153846154 546.162084159149 3885.730769230769 546.1401156456737 3913.1153846153848 546.5765460991323 3940.5 546.9206806705122 3967.8846153846152 547.2972215888882 3995.2692307692305 547.8419869340069 4022.653846153846 549.0305649530324 4050.0384615384614 550.69398337688 4077.423076923077 539.1846046453284 4104.807692307692 540.7523658360859 4132.192307692308 542.2071477253921 4159.576923076923 543.5872074138473 4186.961538461538 545.0068552240035 4214.346153846154 546.4892681197156 4241.7307692307695 547.7069248917836 4269.115384615385 549.056064697407 4296.5 550.4510715595417 4296.5 526.7914366981524 4269.115384615385 525.3123672531278 4241.7307692307695 523.9349092321237 4214.346153846154 522.6767257917172 4186.961538461538 521.1207351787452 4159.576923076923 519.5911430965305 4132.192307692308 518.1357144384516 4104.807692307692 516.5996074824589 4077.423076923077 514.9659833917357 4050.0384615384614 527.0438985976282 4022.653846153846 525.3024251103315 3995.2692307692305 523.9562890822376 3967.8846153846152 523.2798263552974 3940.5 522.7674371524068 3913.1153846153848 522.2747415869658 3885.730769230769 521.7061803820658 3858.346153846154 521.4815581773842 3830.9615384615386 522.0175391594702 3803.576923076923 522.2390966744398 3776.1923076923076 540.7792433621357 3748.8076923076924 540.7347903265445 3721.423076923077 520.8422961076436 3694.0384615384614 519.941244366186 3666.653846153846 518.8725186340012 3639.269230769231 517.1348567955661 3611.8846153846152 515.650021587989 3584.5 515.7382849108784 3557.1153846153848 515.8356026961703 3529.730769230769 514.2250429205485 3502.346153846154 514.175265377396 3474.9615384615386 492.9059942279181 3447.576923076923 493.0966047321476 3420.1923076923076 492.88332734476376 3392.8076923076924 492.95479515937706 3365.423076923077 494.7801665319999 3338.0384615384614 493.78468973551225 3310.653846153846 492.5320066774311 3283.269230769231 491.93197908298504 3255.8846153846152 491.34916929089724 3228.5 490.7876094955426 3228.5 508.14325383903014Z" fill="#55c0e9" opacity="0.9" />
		</g>
		<g>
			<path d="M3228.5 490.7876094955426 3255.8846153846152 491.34916929089724 3283.269230769231 491.93197908298504 3310.653846153846 492.5320066774311 3338.0384615384614 493.78468973551225 3365.423076923077 494.7801665319999 3392.8076923076924 492.95479515937706 3420.1923076923076 492.88332734476376 3447.576923076923 493.0966047321476 3474.9615384615386 492.9059942279181 3502.346153846154 514.175265377396 3529.730769230769 514.2250429205485 3557.1153846153848 515.8356026961703 3584.5 515.7382849108784 3611.8846153846152 515.650021587989 3639.269230769231 517.1348567955661 3666.653846153846 518.8725186340012 3694.0384615384614 519.941244366186 3721.423076923077 520.8422961076436 3748.8076923076924 540.7347903265445 3776.1923076923076 540.7792433621357 3803.576923076923 522.2390966744398 3830.9615384615386 522.0175391594702 3858.346153846154 521.4815581773842 3885.730769230769 521.7061803820658 3913.1153846153848 522.2747415869658 3940.5 522.7674371524068 3967.8846153846152 523.2798263552974 3995.2692307692305 523.9562890822376 4022.653846153846 525.3024251103315 4050.0384615384614 527.0438985976282 4077.423076923077 514.9659833917357 4104.807692307692 516.5996074824589 4132.192307692308 518.1357144384516 4159.576923076923 519.5911430965305 4186.961538461538 521.1207351787452 4214.346153846154 522.6767257917172 4241.7307692307695 523.9349092321237 4269.115384615385 525.3123672531278 4296.5 526.7914366981524 4296.5 509.7179568015223 4269.115384615385 508.3175496659528 4241.7307692307695 507.0170454704227 4214.346153846154 505.81218353227047 4186.961538461538 504.3173344906431 4159.576923076923 502.8338970689489 4132.192307692308 501.4426511937707 4104.807692307692 499.97387766322737 4077.423076923077 498.4242329984132 4050.0384615384614 510.99365573350235 4022.653846153846 509.31973026750774 3995.2692307692305 508.0481610967102 3967.8846153846152 507.46130800445246 3940.5 507.0233752398185 3913.1153846153848 506.60822161328986 3885.730769230769 506.1065487459215 3858.346153846154 505.9043627233751 3830.9615384615386 506.4216643610348 3803.576923076923 506.6484163233015 3776.1923076923076 525.7580510881946 3748.8076923076924 525.7315703546495 3721.423076923077 502.94320923041516 3694.0384615384614 502.107038956447 3666.653846153846 501.18268987180403 3639.269230769231 499.5661579814509 3611.8846153846152 498.2407663238116 3584.5 498.34179455703446 3557.1153846153848 498.4409678079612 3529.730769230769 496.7688079778267 3502.346153846154 496.7252878979315 3474.9615384615386 467.1119991855256 3447.576923076923 467.30287783529656 3420.1923076923076 467.12354601368946 3392.8076923076924 467.18090658715477 3365.423076923077 468.4609806530692 3338.0384615384614 467.6706174617695 3310.653846153846 466.5807912489142 3283.269230769231 466.04765597528194 3255.8846153846152 465.50683076275004 3228.5 465.1003985575009 3228.5 490.7876094955426Z" fill="#f6a118" opacity="0.9" />
		</g>
		<g>
			<path d="M3228.5 465.1003985575009 3255.8846153846152 465.50683076275004 3283.269230769231 466.04765597528194 3310.653846153846 466.5807912489142 3338.0384615384614 467.6706174617695 3365.423076923077 468.4609806530692 3392.8076923076924 467.18090658715477 3420.1923076923076 467.12354601368946 3447.576923076923 467.30287783529656 3474.9615384615386 467.1119991855256 3502.346153846154 496.7252878979315 3529.730769230769 496.7688079778267 3557.1153846153848 498.4409678079612 3584.5 498.34179455703446 3611.8846153846152 498.2407663238116 3639.269230769231 499.5661579814509 3666.653846153846 501.18268987180403 3694.0384615384614 502.107038956447 3721.423076923077 502.94320923041516 3748.8076923076924 525.7315703546495 3776.1923076923076 525.7580510881946 3803.576923076923 506.6484163233015 3830.9615384615386 506.4216643610348 3858.346153846154 505.9043627233751 3885.730769230769 506.1065487459215 3913.1153846153848 506.60822161328986 3940.5 507.0233752398185 3967.8846153846152 507.46130800445246 3995.2692307692305 508.0481610967102 4022.653846153846 509.31973026750774 4050.0384615384614 510.99365573350235 4077.423076923077 498.4242329984132 4104.807692307692 499.97387766322737 4132.192307692308 501.4426511937707 4159.576923076923 502.8338970689489 4186.961538461538 504.3173344906431 4214.346153846154 505.81218353227047 4241.7307692307695 507.0170454704227 4269.115384615385 508.3175496659528 4296.5 509.7179568015223 4296.5 496.34925589643314 4269.115384615385 495.0253467220932 4241.7307692307695 493.7905717710478 4214.346153846154 492.5921558346354 4186.961538461538 491.08339968159794 4159.576923076923 489.589994805443 4132.192307692308 488.205911277506 4104.807692307692 486.75823132244886 4077.423076923077 485.3927174126073 4050.0384615384614 498.4720025363811 4022.653846153846 497.0382614705632 3995.2692307692305 495.82345643600064 3967.8846153846152 495.20191899296304 3940.5 494.71994133496287 3913.1153846153848 494.25306019687616 3885.730769230769 493.7747398235285 3858.346153846154 493.46369672124194 3830.9615384615386 493.7814105421057 3803.576923076923 493.8307143677906 3776.1923076923076 513.2062038257327 3748.8076923076924 513.0191600354991 3721.423076923077 492.37221825805364 3694.0384615384614 491.90854325848505 3666.653846153846 491.3515350353937 3639.269230769231 490.22585688768174 3611.8846153846152 489.18947576032576 3584.5 489.22333619864025 3557.1153846153848 489.223179567103 3529.730769230769 489.59463668666535 3502.346153846154 489.6274021960388 3474.9615384615386 465.84397535618723 3447.576923076923 466.0407574120686 3420.1923076923076 465.8767979346657 3392.8076923076924 465.9500572477321 3365.423076923077 467.2202695247198 3338.0384615384614 466.45583538595343 3310.653846153846 465.39864568725244 3283.269230769231 464.88886642683036 3255.8846153846152 464.365762498016 3228.5 463.97855376512575 3228.5 465.1003985575009Z" fill="#fdd5a4" opacity="0.9" />
		</g>
		<g>
			<path d="M3228.5 463.97855376512575 3255.8846153846152 464.365762498016 3283.269230769231 464.88886642683036 3310.653846153846 465.39864568725244 3338.0384615384614 466.45583538595343 3365.423076923077 467.2202695247198 3392.8076923076924 465.9500572477321 3420.1923076923076 465.8767979346657 3447.576923076923 466.0407574120686 3474.9615384615386 465.84397535618723 3502.346153846154 489.6274021960388 3529.730769230769 489.59463668666535 3557.1153846153848 489.223179567103 3584.5 489.22333619864025 3611.8846153846152 489.18947576032576 3639.269230769231 490.22585688768174 3666.653846153846 491.3515350353937 3694.0384615384614 491.90854325848505 3721.423076923077 492.37221825805364 3748.8076923076924 513.0191600354991 3776.1923076923076 513.2062038257327 3803.576923076923 493.8307143677906 3830.9615384615386 493.7814105421057 3858.346153846154 493.46369672124194 3885.730769230769 493.7747398235285 3913.1153846153848 494.25306019687616 3940.5 494.71994133496287 3967.8846153846152 495.20191899296304 3995.2692307692305 495.82345643600064 4022.653846153846 497.0382614705632 4050.0384615384614 498.4720025363811 4077.423076923077 485.3927174126073 4104.807692307692 486.75823132244886 4132.192307692308 488.205911277506 4159.576923076923 489.589994805443 4186.961538461538 491.08339968159794 4214.346153846154 492.5921558346354 4241.7307692307695 493.7905717710478 4269.115384615385 495.0253467220932 4296.5 496.34925589643314 4296.5 398.00000000000006 4269.115384615385 398.00000000000006 4241.7307692307695 398 4214.346153846154 397.9999999999999 4186.961538461538 398 4159.576923076923 397.9999999999999 4132.192307692308 397.9999999999999 4104.807692307692 398.00000000000006 4077.423076923077 398 4050.0384615384614 398 4022.653846153846 397.9999999999999 3995.2692307692305 398.0000000000001 3967.8846153846152 397.9999999999999 3940.5 398 3913.1153846153848 398 3885.730769230769 397.99999999999994 3858.346153846154 398 3830.9615384615386 397.9999999999999 3803.576923076923 398.0000000000001 3776.1923076923076 398.0000000000001 3748.8076923076924 398 3721.423076923077 397.9999999999999 3694.0384615384614 398.0000000000001 3666.653846153846 398 3639.269230769231 397.99999999999994 3611.8846153846152 398 3584.5 398 3557.1153846153848 397.99999999999994 3529.730769230769 398.0000000000001 3502.346153846154 397.9999999999999 3474.9615384615386 397.9999999999999 3447.576923076923 398 3420.1923076923076 397.9999999999999 3392.8076923076924 397.99999999999994 3365.423076923077 397.9999999999999 3338.0384615384614 397.99999999999994 3310.653846153846 398 3283.269230769231 398.00000000000006 3255.8846153846152 397.99999999999983 3228.5 398.0000000000001 3228.5 463.97855376512575Z" fill="#393d41" opacity="0.9" />
		</g>
		<g>
			<rect x="4372" y="431" width="22.9995" height="23" fill="#e62d39" />
		</g>
		<g>
			<text fill="#595959" font-family="Verdana,sans-serif" font-weight="400" font-size="41" transform="matrix(1 0 0 1 4404.56 454)">Smartphone</text>
		</g>
		<g>
			<rect x="4372" y="508" width="22.9995" height="23" fill="#005aa6" />
		</g>
		<g>
			<text fill="#595959" font-family="Verdana,sans-serif" font-weight="400" font-size="41" transform="matrix(1 0 0 1 4404.56 531)">Desktop</text>
		</g>
		<g>
			<rect x="4372" y="585" width="22.9995" height="23" fill="#55c0e9" />
		</g>
		<g>
			<text fill="#595959" font-family="Verdana,sans-serif" font-weight="400" font-size="41" transform="matrix(1 0 0 1 4404.56 608)">Other</text>
		</g>
		<g>
			<rect x="4372" y="662" width="22.9995" height="23" fill="#f6a118" />
		</g>
		<g>
			<text fill="#595959" font-family="Verdana,sans-serif" font-weight="400" font-size="41" transform="matrix(1 0 0 1 4404.56 685)">Tablet</text>
		</g>
		<g>
			<rect x="4372" y="739" width="22.9995" height="23" fill="#fdd5a4" />
		</g>
		<g>
			<text fill="#595959" font-family="Verdana,sans-serif" font-weight="400" font-size="41" transform="matrix(1 0 0 1 4404.56 762)">Tv</text>
		</g>
		<g>
			<rect x="4372" y="816" width="22.9995" height="23" fill="#393d41" />
		</g>
		<g>
			<text fill="#595959" font-family="Verdana,sans-serif" font-weight="400" font-size="41" transform="matrix(1 0 0 1 4404.56 839)">Unclassified</text>
		</g>
	</g>
</svg>
