<svg width="1763" height="1046"
    xmlns="http://www.w3.org/2000/svg"
	xmlns:xlink="http://www.w3.org/1999/xlink" xml:space="preserve" overflow="hidden">
	<defs>
		<clipPath id="clip0">
			<rect x="2917" y="346" width="1763" height="1046"/>
		</clipPath>
	</defs>
	<g clip-path="url(#clip0)" transform="translate(-2917 -346)">
		<rect x="2918" y="347" width="1760" height="1043" fill="#FFFFFF" />
		<g>
			<path d="
			M3228.5 974.532 4296.5 974.532
			M3228.5 910.53 4296.5 910.53
			M3228.5 846.528 4296.5 846.528
			M3228.5 781.526 4296.5 781.526
			M3228.5 717.524 4296.5 717.524
			M3228.5 653.522 4296.5 653.522
			M3228.5 589.52 4296.5 589.52
			M3228.5 525.517 4296.5 525.517
			M3228.5 461.515 4296.5 461.515
			M3228.5 397.5 4296.5 397.5" stroke="#D9D9D9" stroke-width="3.4375" stroke-linejoin="round" stroke-miterlimit="10" fill="none" />
		</g>
		<g>
			<path d="M 1038.5 4296.5 1038.5" stroke="#D9D9D9" stroke-width="3.4375" stroke-linejoin="round" stroke-miterlimit="10" fill="none" fill-rule="evenodd" />
		</g>
		<g>
			<text fill="#595959" font-family="Verdana,Open Sans,DejaVu Sans,sans-serif" font-weight="400" font-size="41" transform="matrix(6.12323e-17 -1 1 6.12323e-17 3248.13916015625 1201.5405197143555)">14-Apr</text>
		</g>
		<g>
			<text fill="#595959" font-family="Verdana,Open Sans,DejaVu Sans,sans-serif" font-weight="400" font-size="41" transform="matrix(6.12323e-17 -1 1 6.12323e-17 3333.709287109375 1214.75341796875)">12-May</text>
		</g>
		<g>
			<text fill="#595959" font-family="Verdana,Open Sans,DejaVu Sans,sans-serif" font-weight="400" font-size="41" transform="matrix(6.12323e-17 -1 1 6.12323e-17 3418.0782421875 1192.2914962768555)">16-Jun</text>
		</g>
		<g>
			<text fill="#595959" font-family="Verdana,Open Sans,DejaVu Sans,sans-serif" font-weight="400" font-size="41" transform="matrix(6.12323e-17 -1 1 6.12323e-17 3504.248955078125 1177.2768478393555)">14-Jul</text>
		</g>
		<g>
			<text fill="#595959" font-family="Verdana,Open Sans,DejaVu Sans,sans-serif" font-weight="400" font-size="41" transform="matrix(6.12323e-17 -1 1 6.12323e-17 3589.879140625 1206.90576171875)">11-Aug</text>
		</g>
		<g>
			<text fill="#595959" font-family="Verdana,Open Sans,DejaVu Sans,sans-serif" font-weight="400" font-size="41" transform="matrix(6.12323e-17 -1 1 6.12323e-17 3675.489306640625 1204.38330078125)">08-Sep</text>
		</g>
		<g>
			<text fill="#595959" font-family="Verdana,Open Sans,DejaVu Sans,sans-serif" font-weight="400" font-size="41" transform="matrix(6.12323e-17 -1 1 6.12323e-17 3756.204697265625 1201.1000900268555)">06-Oct</text>
		</g>
		<g>
			<text fill="#595959" font-family="Verdana,Open Sans,DejaVu Sans,sans-serif" font-weight="400" font-size="41" transform="matrix(6.12323e-17 -1 1 6.12323e-17 3841.644697265625 1211.43017578125)">03-Nov</text>
		</g>
		<g>
			<text fill="#595959" font-family="Verdana,Open Sans,DejaVu Sans,sans-serif" font-weight="400" font-size="41" transform="matrix(6.12323e-17 -1 1 6.12323e-17 3927.084697265625 1207.0859375)">01-Dec</text>
		</g>
		<g>
			<text fill="#595959" font-family="Verdana,Open Sans,DejaVu Sans,sans-serif" font-weight="400" font-size="41" transform="matrix(6.12323e-17 -1 1 6.12323e-17 4012.504677734375 1207.1259765625)">29-Dec</text>
		</g>
		<g>
			<text fill="#595959" font-family="Verdana,Open Sans,DejaVu Sans,sans-serif" font-weight="400" font-size="41" transform="matrix(6.12323e-17 -1 1 6.12323e-17 4101.5982421875 1191.6909103393555)">26-Jan</text>
		</g>
		<g>
			<text fill="#595959" font-family="Verdana,Open Sans,DejaVu Sans,sans-serif" font-weight="400" font-size="41" transform="matrix(6.12323e-17 -1 1 6.12323e-17 4184.115390625 1203.08203125)">23-Feb</text>
		</g>
		<g>
			<text fill="#595959" font-family="Verdana,Open Sans,DejaVu Sans,sans-serif" font-weight="400" font-size="41" transform="matrix(6.12323e-17 -1 1 6.12323e-17 4268.824677734375 1212.05078125)">23-Mar</text>
		</g>
		<g>
			<text fill="#595959" font-family="Verdana,Open Sans,DejaVu Sans,sans-serif" font-weight="400" font-size="41" transform="matrix(1 0 0 1 3135.4482421875 1050)">0%</text>
		</g>
		<g>
			<text fill="#595959" font-family="Verdana,Open Sans,DejaVu Sans,sans-serif" font-weight="400" font-size="41" transform="matrix(1 0 0 1 3111.96533203125 922)">20%</text>
		</g>
		<g>
			<text fill="#595959" font-family="Verdana,Open Sans,DejaVu Sans,sans-serif" font-weight="400" font-size="41" transform="matrix(1 0 0 1 3110.82421875 794)">40%</text>
		</g>
		<g>
			<text fill="#595959" font-family="Verdana,Open Sans,DejaVu Sans,sans-serif" font-weight="400" font-size="41" transform="matrix(1 0 0 1 3112.3056640625 666)">60%</text>
		</g>
		<g>
			<text fill="#595959" font-family="Verdana,Open Sans,DejaVu Sans,sans-serif" font-weight="400" font-size="41" transform="matrix(1 0 0 1 3112.04541015625 538)">80%</text>
		</g>
		<g>
			<text fill="#595959" font-family="Verdana,Open Sans,DejaVu Sans,sans-serif" font-weight="400" font-size="41" transform="matrix(1 0 0 1 3090.2841796875 410)">100%</text>
		</g>
		<g>
			<text fill="#595959" font-family="Verdana,Open Sans,DejaVu Sans,sans-serif" font-weight="400" font-size="41" transform="matrix(1 0 0 1 3556.97119140625 1321)">Week Commencing</text>
		</g>
		<g>
			<text fill="#595959" font-family="Verdana,Open Sans,DejaVu Sans,sans-serif" font-weight="400" font-size="46" transform="matrix(6.12323e-17 -1 1 6.12323e-17 3019.73 936.7665710449219)">Requests (% of Total)</text>
		</g>
		<rect x="2918.5" y="347.5" width="1760" height="1043" stroke="#D9D9D9" stroke-width="3.4375" stroke-linejoin="round" stroke-miterlimit="10" fill="none" />
		<g>
			<path d="M3228.5 1038 3249.86 1038 3271.22 1038 3292.58 1038 3313.94 1038 3335.3 1038 3356.66 1038 3378.02 1038 3399.38 1038 3420.74 1038 3442.1 1038 3463.46 1038 3484.82 1038 3506.18 1038 3527.54 1038 3548.9 1038 3570.26 1038 3591.62 1038 3612.98 1038 3634.34 1038 3655.7 1038 3677.06 1038 3698.42 1038 3719.7799999999997 1038 3741.14 1038 3762.5 1038 3783.86 1038 3805.2200000000003 1038 3826.58 1038 3847.94 1038 3869.3 1038 3890.66 1038 3912.02 1038 3933.38 1038 3954.74 1038 3976.1 1038 3997.46 1038 4018.8199999999997 1038 4040.18 1038 4061.54 1038 4082.9 1038 4104.26 1038 4125.62 1038 4146.98 1038 4168.34 1038 4189.7 1038 4211.0599999999995 1038 4232.42 1038 4253.78 1038 4275.139999999999 1038 4296.5 1038 4296.5 511.73186653387097 4275.139999999999 511.24288256352213 4253.78 510.6038163301091 4232.42 510.132951236195 4211.0599999999995 509.98967442059063 4189.7 509.86699372684916 4168.34 508.8578828355521 4146.98 508.84856730181616 4125.62 509.7800526172698 4104.26 510.0683304392354 4082.9 509.78758316632 4061.54 510.8817631047316 4040.18 510.8708866486968 4018.8199999999997 510.91527035566935 3997.46 511.17358261897925 3976.1 511.20549455604134 3954.74 512.098115952951 3933.38 512.1329612369273 3912.02 512.9189284987364 3890.66 515.8919455572111 3869.3 514.7969648318594 3847.94 515.125626744456 3826.58 517.3539587629043 3805.2200000000003 517.3728872760798 3783.86 517.3795154992906 3762.5 517.3746698568546 3741.14 518.2845849198919 3719.7799999999997 518.2786881359634 3698.42 518.6674644160128 3677.06 519.0934355637311 3655.7 520.9052457535156 3634.34 521.6318852573548 3612.98 521.6184156458323 3591.62 522.2681085366032 3570.26 527.8351358448251 3548.9 527.8182060044346 3527.54 527.8171189568005 3506.18 527.8195281696414 3484.82 527.7185125063723 3463.46 528.1749639028288 3442.1 526.0738068609967 3420.74 526.0690930129186 3399.38 526.4517905907722 3378.02 526.966587562726 3356.66 527.7344479046612 3335.3 528.0922596265774 3313.94 528.3637575953018 3292.58 528.4473950245434 3271.22 528.3817437118579 3249.86 528.3209049784523 3228.5 528.6035113858115 3228.5 1038Z" fill="#e62d39" opacity="0.9" />
		</g>
		<g>
			<path d="M3228.5 528.6035113858115 3249.86 528.3209049784523 3271.22 528.3817437118579 3292.58 528.4473950245434 3313.94 528.3637575953018 3335.3 528.0922596265774 3356.66 527.7344479046612 3378.02 526.966587562726 3399.38 526.4517905907722 3420.74 526.0690930129186 3442.1 526.0738068609967 3463.46 528.1749639028288 3484.82 527.7185125063723 3506.18 527.8195281696414 3527.54 527.8171189568005 3548.9 527.8182060044346 3570.26 527.8351358448251 3591.62 522.2681085366032 3612.98 521.6184156458323 3634.34 521.6318852573548 3655.7 520.9052457535156 3677.06 519.0934355637311 3698.42 518.6674644160128 3719.7799999999997 518.2786881359634 3741.14 518.2845849198919 3762.5 517.3746698568546 3783.86 517.3795154992906 3805.2200000000003 517.3728872760798 3826.58 517.3539587629043 3847.94 515.125626744456 3869.3 514.7969648318594 3890.66 515.8919455572111 3912.02 512.9189284987364 3933.38 512.1329612369273 3954.74 512.098115952951 3976.1 511.20549455604134 3997.46 511.17358261897925 4018.8199999999997 510.91527035566935 4040.18 510.8708866486968 4061.54 510.8817631047316 4082.9 509.78758316632 4104.26 510.0683304392354 4125.62 509.7800526172698 4146.98 508.84856730181616 4168.34 508.8578828355521 4189.7 509.86699372684916 4211.0599999999995 509.98967442059063 4232.42 510.132951236195 4253.78 510.6038163301091 4275.139999999999 511.24288256352213 4296.5 511.73186653387097 4296.5 433.7867264580397 4275.139999999999 433.5622430486118 4253.78 433.4002138201585 4232.42 433.30898701618065 4211.0599999999995 433.292322077633 4189.7 433.3119961556043 4168.34 433.4349407881655 4146.98 433.4317855995608 4125.62 433.4209825154003 4104.26 433.6740677450532 4082.9 433.75103255338803 4061.54 435.36079839131713 4040.18 435.3425795567811 4018.8199999999997 435.3887976286378 3997.46 435.3992247727013 3976.1 435.7778149248337 3954.74 435.69457104984326 3933.38 435.7373894918581 3912.02 436.0183299632218 3890.66 437.1107633727561 3869.3 436.7049406114033 3847.94 436.8606414580909 3826.58 437.9222955771362 3805.2200000000003 437.9259398239807 3783.86 437.9087165382534 3762.5 437.90716134158686 3741.14 438.3816771158473 3719.7799999999997 438.3811488943986 3698.42 438.6583696725575 3677.06 438.939493870515 3655.7 439.76778884064066 3634.34 440.12172845279287 3612.98 440.1025942817036 3591.62 440.43245647629897 3570.26 446.0049434709254 3548.9 445.99448025532104 3527.54 445.9906298366525 3506.18 445.9850763388172 3484.82 446.00044835106377 3463.46 445.48995832347725 3442.1 440.7320769519542 3420.74 440.71015435347675 3399.38 440.79849020545294 3378.02 441.02669160650083 3356.66 441.4805241599953 3335.3 441.7146387359797 3313.94 441.87434560441795 3292.58 442.00506484989137 3271.22 442.0536403247141 3249.86 442.1004848135459 3228.5 442.29078701208255 3228.5 528.6035113858115Z" fill="#005aa6" opacity="0.9" />
		</g>
		<g>
			<path d="M3228.5 442.29078701208255 3249.86 442.1004848135459 3271.22 442.0536403247141 3292.58 442.00506484989137 3313.94 441.87434560441795 3335.3 441.7146387359797 3356.66 441.4805241599953 3378.02 441.02669160650083 3399.38 440.79849020545294 3420.74 440.71015435347675 3442.1 440.7320769519542 3463.46 445.48995832347725 3484.82 446.00044835106377 3506.18 445.9850763388172 3527.54 445.9906298366525 3548.9 445.99448025532104 3570.26 446.0049434709254 3591.62 440.43245647629897 3612.98 440.1025942817036 3634.34 440.12172845279287 3655.7 439.76778884064066 3677.06 438.939493870515 3698.42 438.6583696725575 3719.7799999999997 438.3811488943986 3741.14 438.3816771158473 3762.5 437.90716134158686 3783.86 437.9087165382534 3805.2200000000003 437.9259398239807 3826.58 437.9222955771362 3847.94 436.8606414580909 3869.3 436.7049406114033 3890.66 437.1107633727561 3912.02 436.0183299632218 3933.38 435.7373894918581 3954.74 435.69457104984326 3976.1 435.7778149248337 3997.46 435.3992247727013 4018.8199999999997 435.3887976286378 4040.18 435.3425795567811 4061.54 435.36079839131713 4082.9 433.75103255338803 4104.26 433.6740677450532 4125.62 433.4209825154003 4146.98 433.4317855995608 4168.34 433.4349407881655 4189.7 433.3119961556043 4211.0599999999995 433.292322077633 4232.42 433.30898701618065 4253.78 433.4002138201585 4275.139999999999 433.5622430486118 4296.5 433.7867264580397 4296.5 419.06411966387026 4275.139999999999 418.9097932778808 4253.78 418.82069167553175 4232.42 418.78153120455926 4211.0599999999995 418.761446442615 4189.7 418.77023699293045 4168.34 418.9275739202609 4146.98 418.92551623383343 4125.62 418.96035428104784 4104.26 419.15736729425555 4082.9 419.17384173683575 4061.54 420.87551367904683 4040.18 420.8556038374519 4018.8199999999997 420.90079943263 3997.46 420.9199678677945 3976.1 421.17546638387716 3954.74 421.2737767063939 3933.38 421.31851350204755 3912.02 421.5482860386991 3890.66 422.28800089553556 3869.3 422.10195037941145 3847.94 422.2371615504225 3826.58 423.16774393881434 3805.2200000000003 423.167665092679 3783.86 423.14655140370303 3762.5 423.1457070138017 3741.14 423.56516266700936 3719.7799999999997 423.5655214379781 3698.42 423.8109003038261 3677.06 424.0558120196192 3655.7 424.7181344913808 3634.34 425.0236349944547 3612.98 425.0035344441698 3591.62 425.28465904377634 3570.26 430.8274530925998 3548.9 430.81817356835387 3527.54 430.8139007331268 3506.18 430.8069864095142 3484.82 430.9020970833825 3463.46 430.23142599790555 3442.1 425.0017650883845 3420.74 424.9767523660499 3399.38 425.0257701995382 3378.02 425.20583580775155 3356.66 425.4986687976815 3335.3 425.6867840212037 3313.94 425.8119685721377 3292.58 425.9104888133743 3271.22 425.92679886960804 3249.86 425.94362826788443 3228.5 426.1140510532148 3228.5 442.29078701208255Z" fill="#55c0e9" opacity="0.9" />
		</g>
		<g>
			<path d="M3228.5 426.1140510532148 3249.86 425.94362826788443 3271.22 425.92679886960804 3292.58 425.9104888133743 3313.94 425.8119685721377 3335.3 425.6867840212037 3356.66 425.4986687976815 3378.02 425.20583580775155 3399.38 425.0257701995382 3420.74 424.9767523660499 3442.1 425.0017650883845 3463.46 430.23142599790555 3484.82 430.9020970833825 3506.18 430.8069864095142 3527.54 430.8139007331268 3548.9 430.81817356835387 3570.26 430.8274530925998 3591.62 425.28465904377634 3612.98 425.0035344441698 3634.34 425.0236349944547 3655.7 424.7181344913808 3677.06 424.0558120196192 3698.42 423.8109003038261 3719.7799999999997 423.5655214379781 3741.14 423.56516266700936 3762.5 423.1457070138017 3783.86 423.14655140370303 3805.2200000000003 423.167665092679 3826.58 423.16774393881434 3847.94 422.2371615504225 3869.3 422.10195037941145 3890.66 422.28800089553556 3912.02 421.5482860386991 3933.38 421.31851350204755 3954.74 421.2737767063939 3976.1 421.17546638387716 3997.46 420.9199678677945 4018.8199999999997 420.90079943263 4040.18 420.8556038374519 4061.54 420.87551367904683 4082.9 419.17384173683575 4104.26 419.15736729425555 4125.62 418.96035428104784 4146.98 418.92551623383343 4168.34 418.9275739202609 4189.7 418.77023699293045 4211.0599999999995 418.761446442615 4232.42 418.78153120455926 4253.78 418.82069167553175 4275.139999999999 418.9097932778808 4296.5 419.06411966387026 4296.5 407.87702549305874 4275.139999999999 407.75714820436707 4253.78 407.68691925855956 4232.42 407.6472692730448 4211.0599999999995 407.61824955966534 4189.7 407.61722466292395 4168.34 407.63262030600544 4146.98 407.63004242027574 4125.62 407.6085547272844 4104.26 407.70041641084794 4082.9 407.73331438233555 4061.54 409.46082329286793 4040.18 409.44561346924576 4018.8199999999997 409.4552564157993 3997.46 409.442567653401 3976.1 409.50831649918746 3954.74 409.55722453750167 3933.38 409.60566872011515 3912.02 409.72296665824126 3890.66 410.10948315685346 3869.3 410.00098369930805 3847.94 410.02158135972263 3826.58 410.3831921847201 3805.2200000000003 410.3816258742522 3783.86 410.3693732840644 3762.5 410.36817686183286 3741.14 410.49749865569987 3719.7799999999997 410.49874026393246 3698.42 410.5976679252191 3677.06 410.7016436985356 3655.7 410.9789161674267 3634.34 411.1035757536376 3612.98 411.0839891917173 3591.62 411.22347657579 3570.26 416.32051328878225 3548.9 416.3159617889731 3527.54 416.31921689377526 3506.18 416.31736632943614 3484.82 416.3210682719641 3463.46 415.85243189703715 3442.1 410.86025631578275 3420.74 410.8513168557256 3399.38 410.8010080993925 3378.02 410.8532595598375 3356.66 410.9689719408518 3335.3 411.04822058755076 3313.94 411.09796238059005 3292.58 411.13309600464333 3271.22 411.08525540240214 3249.86 411.0502804931489 3228.5 411.15507042479464 3228.5 426.1140510532148Z" fill="#f6a118" opacity="0.9" />
		</g>
		<g>
			<path d="M3228.5 411.15507042479464 3249.86 411.0502804931489 3271.22 411.08525540240214 3292.58 411.13309600464333 3313.94 411.09796238059005 3335.3 411.04822058755076 3356.66 410.9689719408518 3378.02 410.8532595598375 3399.38 410.8010080993925 3420.74 410.8513168557256 3442.1 410.86025631578275 3463.46 415.85243189703715 3484.82 416.3210682719641 3506.18 416.31736632943614 3527.54 416.31921689377526 3548.9 416.3159617889731 3570.26 416.32051328878225 3591.62 411.22347657579 3612.98 411.0839891917173 3634.34 411.1035757536376 3655.7 410.9789161674267 3677.06 410.7016436985356 3698.42 410.5976679252191 3719.7799999999997 410.49874026393246 3741.14 410.49749865569987 3762.5 410.36817686183286 3783.86 410.3693732840644 3805.2200000000003 410.3816258742522 3826.58 410.3831921847201 3847.94 410.02158135972263 3869.3 410.00098369930805 3890.66 410.10948315685346 3912.02 409.72296665824126 3933.38 409.60566872011515 3954.74 409.55722453750167 3976.1 409.50831649918746 3997.46 409.442567653401 4018.8199999999997 409.4552564157993 4040.18 409.44561346924576 4061.54 409.46082329286793 4082.9 407.73331438233555 4104.26 407.70041641084794 4125.62 407.6085547272844 4146.98 407.63004242027574 4168.34 407.63262030600544 4189.7 407.61722466292395 4211.0599999999995 407.61824955966534 4232.42 407.6472692730448 4253.78 407.68691925855956 4275.139999999999 407.75714820436707 4296.5 407.87702549305874 4296.5 401.3910702758112 4275.139999999999 401.2959815163896 4253.78 401.2284149226283 4232.42 401.2178574312743 4211.0599999999995 401.2271449370171 4189.7 401.22998698493177 4168.34 401.24723467475025 4146.98 401.24799680108157 4125.62 401.25127865193434 4104.26 401.2738697689626 4082.9 401.29212425152997 4061.54 402.9378506891094 4040.18 402.9552515332576 4018.8199999999997 402.9599325586472 3997.46 402.96405971887924 3976.1 403.01449278802465 3954.74 402.9591913948528 3933.38 403.01566327837304 3912.02 403.0312697625879 3890.66 403.17379003690496 3869.3 403.039123205232 3847.94 403.0276937585125 3826.58 402.88697047759695 3805.2200000000003 402.8853442705775 3783.86 402.8987404525652 3762.5 402.9002345633593 3741.14 402.80439160515203 3719.7799999999997 402.8071737793706 3698.42 402.7885058788081 3677.06 402.75682438501997 3655.7 402.64364301985916 3634.34 402.6213127942401 3612.98 402.6374941256268 3591.62 402.6382934643876 3570.26 407.18303418872716 3548.9 407.1809148990988 3527.54 407.1872998554764 3506.18 407.1917111103271 3484.82 407.1621562125779 3463.46 406.9309868112197 3442.1 402.3499262788061 3420.74 402.3497550933614 3399.38 402.31710391583925 3378.02 402.31377839166817 3356.66 402.32705082967294 3335.3 402.3105155472352 3313.94 402.3328782432905 3292.58 402.29313148871324 3271.22 402.27347913416367 3249.86 402.24951221526595 3228.5 402.264400535425 3228.5 411.15507042479464Z" fill="#fdd5a4" opacity="0.9" />
		</g>
		<g>
			<path d="M3228.5 402.264400535425 3249.86 402.24951221526595 3271.22 402.27347913416367 3292.58 402.29313148871324 3313.94 402.3328782432905 3335.3 402.3105155472352 3356.66 402.32705082967294 3378.02 402.31377839166817 3399.38 402.31710391583925 3420.74 402.3497550933614 3442.1 402.3499262788061 3463.46 406.9309868112197 3484.82 407.1621562125779 3506.18 407.1917111103271 3527.54 407.1872998554764 3548.9 407.1809148990988 3570.26 407.18303418872716 3591.62 402.6382934643876 3612.98 402.6374941256268 3634.34 402.6213127942401 3655.7 402.64364301985916 3677.06 402.75682438501997 3698.42 402.7885058788081 3719.7799999999997 402.8071737793706 3741.14 402.80439160515203 3762.5 402.9002345633593 3783.86 402.8987404525652 3805.2200000000003 402.8853442705775 3826.58 402.88697047759695 3847.94 403.0276937585125 3869.3 403.039123205232 3890.66 403.17379003690496 3912.02 403.0312697625879 3933.38 403.01566327837304 3954.74 402.9591913948528 3976.1 403.01449278802465 3997.46 402.96405971887924 4018.8199999999997 402.9599325586472 4040.18 402.9552515332576 4061.54 402.9378506891094 4082.9 401.29212425152997 4104.26 401.2738697689626 4125.62 401.25127865193434 4146.98 401.24799680108157 4168.34 401.24723467475025 4189.7 401.22998698493177 4211.0599999999995 401.2271449370171 4232.42 401.2178574312743 4253.78 401.2284149226283 4275.139999999999 401.2959815163896 4296.5 401.3910702758112 4296.5 398 4275.139999999999 398.00000000000006 4253.78 397.9999999999999 4232.42 398.0000000000001 4211.0599999999995 398.0000000000001 4189.7 398 4168.34 398 4146.98 398.00000000000006 4125.62 398 4104.26 397.99999999999994 4082.9 397.99999999999994 4061.54 398.00000000000006 4040.18 397.99999999999994 4018.8199999999997 397.9999999999999 3997.46 398 3976.1 398 3954.74 398.00000000000006 3933.38 397.99999999999994 3912.02 398.00000000000006 3890.66 397.99999999999994 3869.3 398 3847.94 398 3826.58 397.9999999999999 3805.2200000000003 398.00000000000006 3783.86 398.0000000000001 3762.5 398.00000000000006 3741.14 398 3719.7799999999997 397.99999999999994 3698.42 398 3677.06 398 3655.7 398 3634.34 397.99999999999994 3612.98 398.00000000000006 3591.62 397.99999999999994 3570.26 397.9999999999999 3548.9 398.0000000000001 3527.54 397.99999999999994 3506.18 398 3484.82 398 3463.46 398 3442.1 398 3420.74 398 3399.38 398.00000000000006 3378.02 398 3356.66 398.0000000000001 3335.3 398.0000000000001 3313.94 398 3292.58 398 3271.22 398.00000000000006 3249.86 398.0000000000001 3228.5 398 3228.5 402.264400535425Z" fill="#393d41" opacity="0.9" />
		</g>
		<g>
			<rect x="4372" y="431" width="22.9995" height="23" fill="#e62d39" />
		</g>
		<g>
			<text fill="#595959" font-family="Verdana,Open Sans,DejaVu Sans,sans-serif" font-weight="400" font-size="41" transform="matrix(1 0 0 1 4404.56 454)">Smartphone</text>
		</g>
		<g>
			<rect x="4372" y="508" width="22.9995" height="23" fill="#005aa6" />
		</g>
		<g>
			<text fill="#595959" font-family="Verdana,Open Sans,DejaVu Sans,sans-serif" font-weight="400" font-size="41" transform="matrix(1 0 0 1 4404.56 531)">Desktop</text>
		</g>
		<g>
			<rect x="4372" y="585" width="22.9995" height="23" fill="#55c0e9" />
		</g>
		<g>
			<text fill="#595959" font-family="Verdana,Open Sans,DejaVu Sans,sans-serif" font-weight="400" font-size="41" transform="matrix(1 0 0 1 4404.56 608)">Other</text>
		</g>
		<g>
			<rect x="4372" y="662" width="22.9995" height="23" fill="#f6a118" />
		</g>
		<g>
			<text fill="#595959" font-family="Verdana,Open Sans,DejaVu Sans,sans-serif" font-weight="400" font-size="41" transform="matrix(1 0 0 1 4404.56 685)">Tablet</text>
		</g>
		<g>
			<rect x="4372" y="739" width="22.9995" height="23" fill="#fdd5a4" />
		</g>
		<g>
			<text fill="#595959" font-family="Verdana,Open Sans,DejaVu Sans,sans-serif" font-weight="400" font-size="41" transform="matrix(1 0 0 1 4404.56 762)">Tv</text>
		</g>
		<g>
			<rect x="4372" y="816" width="22.9995" height="23" fill="#393d41" />
		</g>
		<g>
			<text fill="#595959" font-family="Verdana,Open Sans,DejaVu Sans,sans-serif" font-weight="400" font-size="41" transform="matrix(1 0 0 1 4404.56 839)">Unclassified</text>
		</g>
	</g>
</svg>
