<svg width="1763" height="1046"
    xmlns="http://www.w3.org/2000/svg"
	xmlns:xlink="http://www.w3.org/1999/xlink" xml:space="preserve" overflow="hidden">
	<defs>
		<clipPath id="clip0">
			<rect x="2917" y="346" width="1763" height="1046"/>
		</clipPath>
	</defs>
	<g clip-path="url(#clip0)" transform="translate(-2917 -346)">
		<rect x="2918" y="347" width="1760" height="1043" fill="#FFFFFF" />
		<g>
			<path d="
			M3228.5 974.532 4296.5 974.532
			M3228.5 910.53 4296.5 910.53
			M3228.5 846.528 4296.5 846.528
			M3228.5 781.526 4296.5 781.526
			M3228.5 717.524 4296.5 717.524
			M3228.5 653.522 4296.5 653.522
			M3228.5 589.52 4296.5 589.52
			M3228.5 525.517 4296.5 525.517
			M3228.5 461.515 4296.5 461.515
			M3228.5 397.5 4296.5 397.5" stroke="#D9D9D9" stroke-width="3.4375" stroke-linejoin="round" stroke-miterlimit="10" fill="none" />
		</g>
		<g>
			<path d="M 1038.5 4296.5 1038.5" stroke="#D9D9D9" stroke-width="3.4375" stroke-linejoin="round" stroke-miterlimit="10" fill="none" fill-rule="evenodd" />
		</g>
		<g>
			<text fill="#595959" font-family="Verdana,Open Sans,DejaVu Sans,sans-serif" font-weight="400" font-size="41" transform="matrix(6.12323e-17 -1 1 6.12323e-17 3247.21826171875 1194.1733322143555)">30-Jun</text>
		</g>
		<g>
			<text fill="#595959" font-family="Verdana,Open Sans,DejaVu Sans,sans-serif" font-weight="400" font-size="41" transform="matrix(6.12323e-17 -1 1 6.12323e-17 3331.693660960478 1179.0385665893555)">28-Jul</text>
		</g>
		<g>
			<text fill="#595959" font-family="Verdana,Open Sans,DejaVu Sans,sans-serif" font-weight="400" font-size="41" transform="matrix(6.12323e-17 -1 1 6.12323e-17 3415.798698874081 1208.66748046875)">25-Aug</text>
		</g>
		<g>
			<text fill="#595959" font-family="Verdana,Open Sans,DejaVu Sans,sans-serif" font-weight="400" font-size="41" transform="matrix(6.12323e-17 -1 1 6.12323e-17 3499.563404756434 1204.42333984375)">22-Sep</text>
		</g>
		<g>
			<text fill="#595959" font-family="Verdana,Open Sans,DejaVu Sans,sans-serif" font-weight="400" font-size="41" transform="matrix(6.12323e-17 -1 1 6.12323e-17 3578.6235207950367 1201.1401290893555)">20-Oct</text>
		</g>
		<g>
			<text fill="#595959" font-family="Verdana,Open Sans,DejaVu Sans,sans-serif" font-weight="400" font-size="41" transform="matrix(6.12323e-17 -1 1 6.12323e-17 3662.158002068015 1209.70849609375)">17-Nov</text>
		</g>
		<g>
			<text fill="#595959" font-family="Verdana,Open Sans,DejaVu Sans,sans-serif" font-weight="400" font-size="41" transform="matrix(6.12323e-17 -1 1 6.12323e-17 3745.9227079503676 1205.3642578125)">15-Dec</text>
		</g>
		<g>
			<text fill="#595959" font-family="Verdana,Open Sans,DejaVu Sans,sans-serif" font-weight="400" font-size="41" transform="matrix(6.12323e-17 -1 1 6.12323e-17 3833.5511833639707 1189.9291915893555)">12-Jan</text>
		</g>
		<g>
			<text fill="#595959" font-family="Verdana,Open Sans,DejaVu Sans,sans-serif" font-weight="400" font-size="41" transform="matrix(6.12323e-17 -1 1 6.12323e-17 3914.3930376838234 1203.0419921875)">09-Feb</text>
		</g>
		<g>
			<text fill="#595959" font-family="Verdana,Open Sans,DejaVu Sans,sans-serif" font-weight="400" font-size="41" transform="matrix(6.12323e-17 -1 1 6.12323e-17 3997.4470502068016 1212.0107421875)">09-Mar</text>
		</g>
		<g>
			<text fill="#595959" font-family="Verdana,Open Sans,DejaVu Sans,sans-serif" font-weight="400" font-size="41" transform="matrix(6.12323e-17 -1 1 6.12323e-17 4085.9363654641543 1203.2621994018555)">06-Apr</text>
		</g>
		<g>
			<text fill="#595959" font-family="Verdana,Open Sans,DejaVu Sans,sans-serif" font-weight="400" font-size="41" transform="matrix(6.12323e-17 -1 1 6.12323e-17 4169.701071346507 1216.47509765625)">04-May</text>
		</g>
		<g>
			<text fill="#595959" font-family="Verdana,Open Sans,DejaVu Sans,sans-serif" font-weight="400" font-size="41" transform="matrix(6.12323e-17 -1 1 6.12323e-17 4252.394732306985 1194.0131759643555)">01-Jun</text>
		</g>
		<g>
			<text fill="#595959" font-family="Verdana,Open Sans,DejaVu Sans,sans-serif" font-weight="400" font-size="41" transform="matrix(1 0 0 1 3169.14111328125 1050)">0</text>
		</g>
		<g>
			<text fill="#595959" font-family="Verdana,Open Sans,DejaVu Sans,sans-serif" font-weight="400" font-size="41" transform="matrix(1 0 0 1 3067.3618240356445 922)">18,905</text>
		</g>
		<g>
			<text fill="#595959" font-family="Verdana,Open Sans,DejaVu Sans,sans-serif" font-weight="400" font-size="41" transform="matrix(1 0 0 1 3065.1596755981445 794)">37,810</text>
		</g>
		<g>
			<text fill="#595959" font-family="Verdana,Open Sans,DejaVu Sans,sans-serif" font-weight="400" font-size="41" transform="matrix(1 0 0 1 3065.9003982543945 666)">56,716</text>
		</g>
		<g>
			<text fill="#595959" font-family="Verdana,Open Sans,DejaVu Sans,sans-serif" font-weight="400" font-size="41" transform="matrix(1 0 0 1 3072.2465896606445 538)">75,621</text>
		</g>
		<g>
			<text fill="#595959" font-family="Verdana,Open Sans,DejaVu Sans,sans-serif" font-weight="400" font-size="41" transform="matrix(1 0 0 1 3065.3598709106445 410)">94,526</text>
		</g>
		<g>
			<text fill="#595959" font-family="Verdana,Open Sans,DejaVu Sans,sans-serif" font-weight="400" font-size="41" transform="matrix(1 0 0 1 3556.97119140625 1321)">Week Commencing</text>
		</g>
		<g>
			<text fill="#595959" font-family="Verdana,Open Sans,DejaVu Sans,sans-serif" font-weight="400" font-size="46" transform="matrix(6.12323e-17 -1 1 6.12323e-17 3019.73 1028.5532531738281)">Number of Hardware Profiles</text>
		</g>
		<rect x="2918.5" y="347.5" width="1760" height="1043" stroke="#D9D9D9" stroke-width="3.4375" stroke-linejoin="round" stroke-miterlimit="10" fill="none" />
		<g>
			<path d="M3228.5 1038 3249.4411764705883 1038 3270.3823529411766 1038 3291.323529411765 1038 3312.264705882353 1038 3333.205882352941 1038 3354.1470588235293 1038 3375.0882352941176 1038 3396.029411764706 1038 3416.970588235294 1038 3437.9117647058824 1038 3458.8529411764707 1038 3479.794117647059 1038 3500.735294117647 1038 3521.676470588235 1038 3542.6176470588234 1038 3563.5588235294117 1038 3584.5 1038 3605.4411764705883 1038 3626.3823529411766 1038 3647.323529411765 1038 3668.264705882353 1038 3689.205882352941 1038 3710.1470588235293 1038 3731.0882352941176 1038 3752.029411764706 1038 3772.970588235294 1038 3793.9117647058824 1038 3814.8529411764707 1038 3835.7941176470586 1038 3856.735294117647 1038 3877.676470588235 1038 3898.6176470588234 1038 3919.5588235294117 1038 3940.5 1038 3961.4411764705883 1038 3982.3823529411766 1038 4003.323529411765 1038 4024.264705882353 1038 4045.2058823529414 1038 4066.1470588235293 1038 4087.0882352941176 1038 4108.029411764706 1038 4128.970588235294 1038 4149.911764705882 1038 4170.85294117647 1038 4191.794117647059 1038 4212.735294117647 1038 4233.676470588235 1038 4254.617647058823 1038 4275.558823529412 1038 4296.5 1038 4296.5 693.4835706578085 4275.558823529412 693.7070012483339 4254.617647058823 693.8491843513954 4233.676470588235 694.0116793263229 4212.735294117647 694.228339292893 4191.794117647059 694.5059348750608 4170.85294117647 694.681971097899 4149.911764705882 694.8376954488713 4128.970588235294 695.2168503903688 4108.029411764706 695.5079872204474 4087.0882352941176 695.7652709307492 4066.1470588235293 695.934536529632 4045.2058823529414 696.1511964962021 4024.264705882353 696.5100395658337 4003.323529411765 696.9298182510631 3982.3823529411766 697.2006432092758 3961.4411764705883 697.4105325518905 3940.5 697.661045638237 3919.5588235294117 697.9318705964497 3898.6176470588234 698.0808243234666 3877.676470588235 698.3313374098132 3856.735294117647 698.5547680003385 3835.7941176470586 698.9406935657914 3814.8529411764707 699.1979772760933 3793.9117647058824 699.5026553540824 3772.970588235294 699.6042147134121 3752.029411764706 699.7260859446078 3731.0882352941176 699.9427459111779 3710.1470588235293 700.2000296214799 3689.205882352941 700.4031483401393 3668.264705882353 700.6062670587987 3647.323529411765 700.8026151535028 3626.3823529411766 700.9786513763408 3605.4411764705883 701.154687599179 3584.5 701.411971309481 3563.5588235294117 701.7031081395595 3542.6176470588234 701.9333093540401 3521.676470588235 702.1838224403868 3500.735294117647 702.5155830141971 3479.794117647059 702.9150498275607 3458.8529411764707 703.267122273237 3437.9117647058824 703.5785709751815 3416.970588235294 703.8832490531706 3396.029411764706 704.0795971478747 3375.0882352941176 704.3978164737744 3354.1470588235293 704.6618708080316 3333.205882352941 704.9733195099761 3312.264705882353 705.359245075429 3291.323529411765 705.6436112815522 3270.3823529411766 705.9076656158095 3249.4411764705883 706.2326555656645 3228.5 706.5441042676089 3228.5 1038Z" fill="#e62d39" opacity="0.9" />
		</g>
		<g>
			<path d="M3228.5 706.5441042676089 3249.4411764705883 706.2326555656645 3270.3823529411766 705.9076656158095 3291.323529411765 705.6436112815522 3312.264705882353 705.359245075429 3333.205882352941 704.9733195099761 3354.1470588235293 704.6618708080316 3375.0882352941176 704.3978164737744 3396.029411764706 704.0795971478747 3416.970588235294 703.8832490531706 3437.9117647058824 703.5785709751815 3458.8529411764707 703.267122273237 3479.794117647059 702.9150498275607 3500.735294117647 702.5155830141971 3521.676470588235 702.1838224403868 3542.6176470588234 701.9333093540401 3563.5588235294117 701.7031081395595 3584.5 701.411971309481 3605.4411764705883 701.154687599179 3626.3823529411766 700.9786513763408 3647.323529411765 700.8026151535028 3668.264705882353 700.6062670587987 3689.205882352941 700.4031483401393 3710.1470588235293 700.2000296214799 3731.0882352941176 699.9427459111779 3752.029411764706 699.7260859446078 3772.970588235294 699.6042147134121 3793.9117647058824 699.5026553540824 3814.8529411764707 699.1979772760933 3835.7941176470586 698.9406935657914 3856.735294117647 698.5547680003385 3877.676470588235 698.3313374098132 3898.6176470588234 698.0808243234666 3919.5588235294117 697.9318705964497 3940.5 697.661045638237 3961.4411764705883 697.4105325518905 3982.3823529411766 697.2006432092758 4003.323529411765 696.9298182510631 4024.264705882353 696.5100395658337 4045.2058823529414 696.1511964962021 4066.1470588235293 695.934536529632 4087.0882352941176 695.7652709307492 4108.029411764706 695.5079872204474 4128.970588235294 695.2168503903688 4149.911764705882 694.8376954488713 4170.85294117647 694.681971097899 4191.794117647059 694.5059348750608 4212.735294117647 694.228339292893 4233.676470588235 694.0116793263229 4254.617647058823 693.8491843513954 4275.558823529412 693.7070012483339 4296.5 693.4835706578085 4296.5 529.7901952901848 4275.558823529412 530.0948733681739 4254.617647058823 530.3453864545204 4233.676470588235 530.5891289169117 4212.735294117647 530.873495123035 4191.794117647059 531.3406681759516 4170.85294117647 531.6047225102088 4149.911764705882 531.8823180923767 4128.970588235294 532.3156380255168 4108.029411764706 532.6744810951485 4087.0882352941176 532.9927004210482 4066.1470588235293 533.2025897636629 4045.2058823529414 533.4395616020989 4024.264705882353 533.8661109112836 4003.323529411765 534.2994308444237 3982.3823529411766 534.6041089224129 3961.4411764705883 534.8749338806255 3940.5 535.1796119586145 3919.5588235294117 535.4978312845144 3898.6176470588234 535.687408755263 3877.676470588235 535.9988574572076 3856.735294117647 536.2967649112413 3835.7941176470586 536.8248735797558 3814.8529411764707 537.1498635296109 3793.9117647058824 537.5967247106616 3772.970588235294 537.7727609334997 3752.029411764706 537.9149440365613 3731.0882352941176 538.2060808666399 3710.1470588235293 538.5716945602269 3689.205882352941 538.8492901423947 3668.264705882353 539.1336563485179 3647.323529411765 539.3977106827751 3626.3823529411766 539.6820768888982 3605.4411764705883 539.9799843429321 3584.5 540.3862217802509 3563.5588235294117 540.8127710894357 3542.6176470588234 541.2190085267546 3521.676470588235 541.6184753401182 3500.735294117647 542.1195015128112 3479.794117647059 542.6408395573704 3458.8529411764707 543.0944713623765 3437.9117647058824 543.534561919472 3416.970588235294 543.9407993567908 3396.029411764706 544.1642299473161 3375.0882352941176 544.5433848888136 3354.1470588235293 544.9563929500878 3333.205882352941 545.4438778748704 3312.264705882353 545.9990690392062 3291.323529411765 546.4120771004804 3270.3823529411766 546.9131032731736 3249.4411764705883 547.3735057021348 3228.5 547.8609906269174 3228.5 706.5441042676089Z" fill="#f6a118" opacity="0.9" />
		</g>
		<g>
			<path d="M3228.5 547.8609906269174 3249.4411764705883 547.3735057021348 3270.3823529411766 546.9131032731736 3291.323529411765 546.4120771004804 3312.264705882353 545.9990690392062 3333.205882352941 545.4438778748704 3354.1470588235293 544.9563929500878 3375.0882352941176 544.5433848888136 3396.029411764706 544.1642299473161 3416.970588235294 543.9407993567908 3437.9117647058824 543.534561919472 3458.8529411764707 543.0944713623765 3479.794117647059 542.6408395573704 3500.735294117647 542.1195015128112 3521.676470588235 541.6184753401182 3542.6176470588234 541.2190085267546 3563.5588235294117 540.8127710894357 3584.5 540.3862217802509 3605.4411764705883 539.9799843429321 3626.3823529411766 539.6820768888982 3647.323529411765 539.3977106827751 3668.264705882353 539.1336563485179 3689.205882352941 538.8492901423947 3710.1470588235293 538.5716945602269 3731.0882352941176 538.2060808666399 3752.029411764706 537.9149440365613 3772.970588235294 537.7727609334997 3793.9117647058824 537.5967247106616 3814.8529411764707 537.1498635296109 3835.7941176470586 536.8248735797558 3856.735294117647 536.2967649112413 3877.676470588235 535.9988574572076 3898.6176470588234 535.687408755263 3919.5588235294117 535.4978312845144 3940.5 535.1796119586145 3961.4411764705883 534.8749338806255 3982.3823529411766 534.6041089224129 4003.323529411765 534.2994308444237 4024.264705882353 533.8661109112836 4045.2058823529414 533.4395616020989 4066.1470588235293 533.2025897636629 4087.0882352941176 532.9927004210482 4108.029411764706 532.6744810951485 4128.970588235294 532.3156380255168 4149.911764705882 531.8823180923767 4170.85294117647 531.6047225102088 4191.794117647059 531.3406681759516 4212.735294117647 530.873495123035 4233.676470588235 530.5891289169117 4254.617647058823 530.3453864545204 4275.558823529412 530.0948733681739 4296.5 529.7901952901848 4296.5 455.80758733047 4275.558823529412 456.1325772803251 4254.617647058823 456.41694348644813 4233.676470588235 456.67422719675005 4212.735294117647 456.9653640268287 4191.794117647059 457.4528489516112 4170.85294117647 457.7642976535556 4149.911764705882 458.04866385967887 4128.970588235294 458.5090662886402 4108.029411764706 458.8814506061825 4087.0882352941176 459.2267524279035 4066.1470588235293 459.4366417705182 4045.2058823529414 459.6803842329095 4024.264705882353 460.1204747900048 4003.323529411765 460.55379472314485 3982.3823529411766 460.8584728011341 3961.4411764705883 461.1292977593466 3940.5 461.4475170852463 3919.5588235294117 461.77927765905685 3898.6176470588234 461.9823963777161 3877.676470588235 462.2938450796606 3856.735294117647 462.6120644055603 3835.7941176470586 463.17402619385143 3814.8529411764707 463.5057867676618 3793.9117647058824 463.9661891966232 3772.970588235294 464.14899604341656 3752.029411764706 464.29117914647816 3731.0882352941176 464.6229397202886 3710.1470588235293 465.0359477815628 3689.205882352941 465.3677083553731 3668.264705882353 465.67238643336225 3647.323529411765 465.94321139157483 3626.3823529411766 466.26143071747447 3605.4411764705883 466.60673253919555 3584.5 467.1145293358441 3563.5588235294117 467.5884730127161 3542.6176470588234 468.04210481772213 3521.676470588235 468.4889659987729 3500.735294117647 469.1050927787063 3479.794117647059 469.6670545669974 3458.8529411764707 470.1477688678247 3437.9117647058824 470.62848316865217 3416.970588235294 471.0482618538815 3396.029411764706 471.2987749402281 3375.0882352941176 471.73209487336817 3354.1470588235293 472.22635042210607 3333.205882352941 472.7409178427099 3312.264705882353 473.3164208789117 3291.323529411765 473.7429701880965 3270.3823529411766 474.2778494805663 3249.4411764705883 474.7788756532594 3228.5 475.2799018259526 3228.5 547.8609906269174Z" fill="#55c0e9" opacity="0.9" />
		</g>
		<g>
			<path d="M3228.5 475.2799018259526 3249.4411764705883 474.7788756532594 3270.3823529411766 474.2778494805663 3291.323529411765 473.7429701880965 3312.264705882353 473.3164208789117 3333.205882352941 472.7409178427099 3354.1470588235293 472.22635042210607 3375.0882352941176 471.73209487336817 3396.029411764706 471.2987749402281 3416.970588235294 471.0482618538815 3437.9117647058824 470.62848316865217 3458.8529411764707 470.1477688678247 3479.794117647059 469.6670545669974 3500.735294117647 469.1050927787063 3521.676470588235 468.4889659987729 3542.6176470588234 468.04210481772213 3563.5588235294117 467.5884730127161 3584.5 467.1145293358441 3605.4411764705883 466.60673253919555 3626.3823529411766 466.26143071747447 3647.323529411765 465.94321139157483 3668.264705882353 465.67238643336225 3689.205882352941 465.3677083553731 3710.1470588235293 465.0359477815628 3731.0882352941176 464.6229397202886 3752.029411764706 464.29117914647816 3772.970588235294 464.14899604341656 3793.9117647058824 463.9661891966232 3814.8529411764707 463.5057867676618 3835.7941176470586 463.17402619385143 3856.735294117647 462.6120644055603 3877.676470588235 462.2938450796606 3898.6176470588234 461.9823963777161 3919.5588235294117 461.77927765905685 3940.5 461.4475170852463 3961.4411764705883 461.1292977593466 3982.3823529411766 460.8584728011341 4003.323529411765 460.55379472314485 4024.264705882353 460.1204747900048 4045.2058823529414 459.6803842329095 4066.1470588235293 459.4366417705182 4087.0882352941176 459.2267524279035 4108.029411764706 458.8814506061825 4128.970588235294 458.5090662886402 4149.911764705882 458.04866385967887 4170.85294117647 457.7642976535556 4191.794117647059 457.4528489516112 4212.735294117647 456.9653640268287 4233.676470588235 456.67422719675005 4254.617647058823 456.41694348644813 4275.558823529412 456.1325772803251 4296.5 455.80758733047 4296.5 399.2728773035991 4275.558823529412 399.77390347629233 4254.617647058823 400.15982904174507 4233.676470588235 400.6134608467511 4212.735294117647 401.0061570361595 4191.794117647059 401.6764488077354 4170.85294117647 402.13685123669677 4149.911764705882 402.5972536656582 4128.970588235294 403.2878573091002 4108.029411764706 404.0123140723188 4087.0882352941176 404.5742758606098 4066.1470588235293 405.0279076656158 4045.2058823529414 405.44091572689 4024.264705882353 405.92840065167246 4003.323529411765 406.6122336711592 3982.3823529411766 407.07940672407597 3961.4411764705883 407.4653322895288 3940.5 408.0882296934176 3919.5588235294117 408.7585214649938 3898.6176470588234 409.239235765821 3877.676470588235 409.8959862894865 3856.735294117647 410.3496180944925 3835.7941176470586 411.0808454816664 3814.8529411764707 411.54124791062776 3793.9117647058824 412.1235215707848 3772.970588235294 412.367264033176 3752.029411764706 412.57038275183544 3731.0882352941176 413.0104733089309 3710.1470588235293 413.5250407295348 3689.205882352941 413.9109662949876 3668.264705882353 414.35105685208305 3647.323529411765 414.74375304149123 3626.3823529411766 415.17707297463124 3605.4411764705883 415.6713285233692 3584.5 416.3145377991241 3563.5588235294117 416.808793347862 3542.6176470588234 417.4520026236168 3521.676470588235 418.0545881556398 3500.735294117647 418.72487992721574 3479.794117647059 419.4357954425237 3458.8529411764707 419.95036286312757 3437.9117647058824 420.59357213888256 3416.970588235294 421.18938704695006 3396.029411764706 421.5346888686711 3375.0882352941176 422.13727440069397 3354.1470588235293 422.8346486680913 3333.205882352941 423.51171106362267 3312.264705882353 424.1481497154223 3291.323529411765 424.7371939995346 3270.3823529411766 425.36009140342355 3249.4411764705883 426.0236125510441 3228.5 426.6939043226202 3228.5 475.2799018259526Z" fill="#fdd5a4" opacity="0.9" />
		</g>
		<g>
			<path d="M3228.5 426.6939043226202 3249.4411764705883 426.0236125510441 3270.3823529411766 425.36009140342355 3291.323529411765 424.7371939995346 3312.264705882353 424.1481497154223 3333.205882352941 423.51171106362267 3354.1470588235293 422.8346486680913 3375.0882352941176 422.13727440069397 3396.029411764706 421.5346888686711 3416.970588235294 421.18938704695006 3437.9117647058824 420.59357213888256 3458.8529411764707 419.95036286312757 3479.794117647059 419.4357954425237 3500.735294117647 418.72487992721574 3521.676470588235 418.0545881556398 3542.6176470588234 417.4520026236168 3563.5588235294117 416.808793347862 3584.5 416.3145377991241 3605.4411764705883 415.6713285233692 3626.3823529411766 415.17707297463124 3647.323529411765 414.74375304149123 3668.264705882353 414.35105685208305 3689.205882352941 413.9109662949876 3710.1470588235293 413.5250407295348 3731.0882352941176 413.0104733089309 3752.029411764706 412.57038275183544 3772.970588235294 412.367264033176 3793.9117647058824 412.1235215707848 3814.8529411764707 411.54124791062776 3835.7941176470586 411.0808454816664 3856.735294117647 410.3496180944925 3877.676470588235 409.8959862894865 3898.6176470588234 409.239235765821 3919.5588235294117 408.7585214649938 3940.5 408.0882296934176 3961.4411764705883 407.4653322895288 3982.3823529411766 407.07940672407597 4003.323529411765 406.6122336711592 4024.264705882353 405.92840065167246 4045.2058823529414 405.44091572689 4066.1470588235293 405.0279076656158 4087.0882352941176 404.5742758606098 4108.029411764706 404.0123140723188 4128.970588235294 403.2878573091002 4149.911764705882 402.5972536656582 4170.85294117647 402.13685123669677 4191.794117647059 401.6764488077354 4212.735294117647 401.0061570361595 4233.676470588235 400.6134608467511 4254.617647058823 400.15982904174507 4275.558823529412 399.77390347629233 4296.5 399.2728773035991 4296.5 398.0000000000001 4275.558823529412 398.50102617269334 4254.617647058823 398.8869517381461 4233.676470588235 399.3405835431521 4212.735294117647 399.7332797325605 4191.794117647059 400.40357150413644 4170.85294117647 400.8639739330978 4149.911764705882 401.3243763620592 4128.970588235294 402.01498000550123 4108.029411764706 402.7394367687198 4087.0882352941176 403.3013985570108 4066.1470588235293 403.75503036201684 4045.2058823529414 404.168038423291 4024.264705882353 404.6555233480735 4003.323529411765 405.3393563675602 3982.3823529411766 405.806529420477 3961.4411764705883 406.1924549859298 3940.5 406.8153523898186 3919.5588235294117 407.4856441613948 3898.6176470588234 407.966358462222 3877.676470588235 408.6231089858875 3856.735294117647 409.0767407908935 3835.7941176470586 409.8079681780674 3814.8529411764707 410.26837060702877 3793.9117647058824 410.8506442671858 3772.970588235294 411.094386729577 3752.029411764706 411.29750544823645 3731.0882352941176 411.7375960053319 3710.1470588235293 412.2521634259358 3689.205882352941 412.6516302392992 3668.264705882353 413.09172079639467 3647.323529411765 413.48441698580285 3626.3823529411766 413.91773691894286 3605.4411764705883 414.4119924676808 3584.5 415.0552017434357 3563.5588235294117 415.5494572921736 3542.6176470588234 416.1926665679284 3521.676470588235 416.7952520999514 3500.735294117647 417.46554387152736 3479.794117647059 418.17645938683535 3458.8529411764707 418.6910268074392 3437.9117647058824 419.3342360831942 3416.970588235294 419.9300509912617 3396.029411764706 420.2753528129827 3375.0882352941176 420.8779383450056 3354.1470588235293 421.5753126124029 3333.205882352941 422.2523750079343 3312.264705882353 422.8888136597339 3291.323529411765 423.47785794384623 3270.3823529411766 424.1007553477352 3249.4411764705883 424.7642764953557 3228.5 425.4345682669318 3228.5 426.6939043226202Z" fill="#005aa6" opacity="0.9" />
		</g>
		<g>
			<rect x="4372" y="431" width="22.9995" height="23" fill="#e62d39" />
		</g>
		<g>
			<text fill="#595959" font-family="Verdana,Open Sans,DejaVu Sans,sans-serif" font-weight="400" font-size="41" transform="matrix(1 0 0 1 4404.56 454)">Smartphone</text>
		</g>
		<g>
			<rect x="4372" y="508" width="22.9995" height="23" fill="#f6a118" />
		</g>
		<g>
			<text fill="#595959" font-family="Verdana,Open Sans,DejaVu Sans,sans-serif" font-weight="400" font-size="41" transform="matrix(1 0 0 1 4404.56 531)">Tablet</text>
		</g>
		<g>
			<rect x="4372" y="585" width="22.9995" height="23" fill="#55c0e9" />
		</g>
		<g>
			<text fill="#595959" font-family="Verdana,Open Sans,DejaVu Sans,sans-serif" font-weight="400" font-size="41" transform="matrix(1 0 0 1 4404.56 608)">Other</text>
		</g>
		<g>
			<rect x="4372" y="662" width="22.9995" height="23" fill="#fdd5a4" />
		</g>
		<g>
			<text fill="#595959" font-family="Verdana,Open Sans,DejaVu Sans,sans-serif" font-weight="400" font-size="41" transform="matrix(1 0 0 1 4404.56 685)">Tv</text>
		</g>
		<g>
			<rect x="4372" y="739" width="22.9995" height="23" fill="#005aa6" />
		</g>
		<g>
			<text fill="#595959" font-family="Verdana,Open Sans,DejaVu Sans,sans-serif" font-weight="400" font-size="41" transform="matrix(1 0 0 1 4404.56 762)">Desktop</text>
		</g>
	</g>
</svg>
