<svg width="1763" height="1046"
    xmlns="http://www.w3.org/2000/svg"
	xmlns:xlink="http://www.w3.org/1999/xlink" xml:space="preserve" overflow="hidden">
	<defs>
		<clipPath id="clip0">
			<rect x="2917" y="346" width="1763" height="1046"/>
		</clipPath>
	</defs>
	<g clip-path="url(#clip0)" transform="translate(-2917 -346)">
		<rect x="2918" y="347" width="1760" height="1043" fill="#FFFFFF" />
		<g>
			<path d="
			M3228.5 974.532 4296.5 974.532
			M3228.5 910.53 4296.5 910.53
			M3228.5 846.528 4296.5 846.528
			M3228.5 781.526 4296.5 781.526
			M3228.5 717.524 4296.5 717.524
			M3228.5 653.522 4296.5 653.522
			M3228.5 589.52 4296.5 589.52
			M3228.5 525.517 4296.5 525.517
			M3228.5 461.515 4296.5 461.515
			M3228.5 397.5 4296.5 397.5" stroke="#D9D9D9" stroke-width="3.4375" stroke-linejoin="round" stroke-miterlimit="10" fill="none" />
		</g>
		<g>
			<path d="M 1038.5 4296.5 1038.5" stroke="#D9D9D9" stroke-width="3.4375" stroke-linejoin="round" stroke-miterlimit="10" fill="none" fill-rule="evenodd" />
		</g>
		<g>
			<text fill="#595959" font-family="Verdana,sans-serif" font-weight="400" font-size="41" transform="matrix(6.12323e-17 -1 1 6.12323e-17 3244.5 1225)">06-Nov</text>
		</g>
		<g>
			<text fill="#595959" font-family="Verdana,sans-serif" font-weight="400" font-size="41" transform="matrix(6.12323e-17 -1 1 6.12323e-17 3366.557142857143 1223)">04-Dec</text>
		</g>
		<g>
			<text fill="#595959" font-family="Verdana,sans-serif" font-weight="400" font-size="41" transform="matrix(6.12323e-17 -1 1 6.12323e-17 3488.614285714286 1210)">01-Jan</text>
		</g>
		<g>
			<text fill="#595959" font-family="Verdana,sans-serif" font-weight="400" font-size="41" transform="matrix(6.12323e-17 -1 1 6.12323e-17 3610.671428571429 1210)">29-Jan</text>
		</g>
		<g>
			<text fill="#595959" font-family="Verdana,sans-serif" font-weight="400" font-size="41" transform="matrix(6.12323e-17 -1 1 6.12323e-17 3732.7285714285713 1216)">26-Feb</text>
		</g>
		<g>
			<text fill="#595959" font-family="Verdana,sans-serif" font-weight="400" font-size="41" transform="matrix(6.12323e-17 -1 1 6.12323e-17 3854.785714285714 1223)">25-Mar</text>
		</g>
		<g>
			<text fill="#595959" font-family="Verdana,sans-serif" font-weight="400" font-size="41" transform="matrix(6.12323e-17 -1 1 6.12323e-17 3980.342857142857 1216)">22-Apr</text>
		</g>
		<g>
			<text fill="#595959" font-family="Verdana,sans-serif" font-weight="400" font-size="41" transform="matrix(6.12323e-17 -1 1 6.12323e-17 4102.4 1228)">20-May</text>
		</g>
		<g>
			<text fill="#595959" font-family="Verdana,sans-serif" font-weight="400" font-size="41" transform="matrix(6.12323e-17 -1 1 6.12323e-17 4220.457142857143 1209)">17-Jun</text>
		</g>
		<g>
			<text fill="#595959" font-family="Verdana,sans-serif" font-weight="400" font-size="41" transform="matrix(1 0 0 1 3123.5 1050)">0%</text>
		</g>
		<g>
			<text fill="#595959" font-family="Verdana,sans-serif" font-weight="400" font-size="41" transform="matrix(1 0 0 1 3097.5 922)">20%</text>
		</g>
		<g>
			<text fill="#595959" font-family="Verdana,sans-serif" font-weight="400" font-size="41" transform="matrix(1 0 0 1 3096.5 794)">40%</text>
		</g>
		<g>
			<text fill="#595959" font-family="Verdana,sans-serif" font-weight="400" font-size="41" transform="matrix(1 0 0 1 3097.5 666)">60%</text>
		</g>
		<g>
			<text fill="#595959" font-family="Verdana,sans-serif" font-weight="400" font-size="41" transform="matrix(1 0 0 1 3097.5 538)">80%</text>
		</g>
		<g>
			<text fill="#595959" font-family="Verdana,sans-serif" font-weight="400" font-size="41" transform="matrix(1 0 0 1 3074.5 410)">100%</text>
		</g>
		<g>
			<text fill="#595959" font-family="Verdana,sans-serif" font-weight="400" font-size="41" transform="matrix(1 0 0 1 3544.5 1321)">Week Commencing</text>
		</g>
		<g>
			<text fill="#595959" font-family="Verdana,sans-serif" font-weight="400" font-size="46" transform="matrix(6.12323e-17 -1 1 6.12323e-17 3019.73 965.25)">Requests (% of Total)</text>
		</g>
		<rect x="2918.5" y="347.5" width="1760" height="1043" stroke="#D9D9D9" stroke-width="3.4375" stroke-linejoin="round" stroke-miterlimit="10" fill="none" />
		<g>
			<path d="M3228.5 1038 3259.0142857142855 1038 3289.5285714285715 1038 3320.042857142857 1038 3350.557142857143 1038 3381.0714285714284 1038 3411.5857142857144 1038 3442.1 1038 3472.614285714286 1038 3503.1285714285714 1038 3533.6428571428573 1038 3564.157142857143 1038 3594.671428571429 1038 3625.1857142857143 1038 3655.7 1038 3686.214285714286 1038 3716.7285714285713 1038 3747.2428571428572 1038 3777.7571428571428 1038 3808.2714285714287 1038 3838.785714285714 1038 3869.3 1038 3899.8142857142857 1038 3930.328571428571 1038 3960.842857142857 1038 3991.357142857143 1038 4021.8714285714286 1038 4052.385714285714 1038 4082.9 1038 4113.414285714286 1038 4143.928571428572 1038 4174.442857142857 1038 4204.957142857143 1038 4235.471428571429 1038 4265.9857142857145 1038 4296.5 1038 4296.5 627.5176878063296 4265.9857142857145 626.3963136974012 4235.471428571429 625.2428890685153 4204.957142857143 624.0667377001988 4174.442857142857 622.80172023452 4143.928571428572 632.4054355541638 4113.414285714286 630.9533026623258 4082.9 630.0731822124889 4052.385714285714 629.6411395703622 4021.8714285714286 629.3637077507597 3991.357142857143 629.112232069277 3960.842857142857 628.7712194186788 3930.328571428571 629.1405060461395 3899.8142857142857 630.4544284738802 3869.3 631.6183228637996 3838.785714285714 647.4118241208081 3808.2714285714287 648.3895796632379 3777.7571428571428 621.5001438018157 3747.2428571428572 620.7479883324611 3716.7285714285713 618.9772962489769 3686.214285714286 616.6754829613407 3655.7 614.5117939817052 3625.1857142857143 615.2796120230914 3594.671428571429 615.9275087100596 3564.157142857143 616.3813797093885 3533.6428571428573 616.3755182018299 3503.1285714285714 569.065986327317 3472.614285714286 568.8533275368973 3442.1 570.4200135868562 3411.5857142857144 571.2367304637471 3381.0714285714284 574.6430294813756 3350.557142857143 573.9159777926823 3320.042857142857 571.940753677543 3289.5285714285715 571.7928428278394 3259.0142857142855 571.6102570585995 3228.5 570.6431995209241 3228.5 1038Z" fill="#e62d39" opacity="0.9" />
		</g>
		<g>
			<path d="M3228.5 570.6431995209241 3259.0142857142855 571.6102570585995 3289.5285714285715 571.7928428278394 3320.042857142857 571.940753677543 3350.557142857143 573.9159777926823 3381.0714285714284 574.6430294813756 3411.5857142857144 571.2367304637471 3442.1 570.4200135868562 3472.614285714286 568.8533275368973 3503.1285714285714 569.065986327317 3533.6428571428573 616.3755182018299 3564.157142857143 616.3813797093885 3594.671428571429 615.9275087100596 3625.1857142857143 615.2796120230914 3655.7 614.5117939817052 3686.214285714286 616.6754829613407 3716.7285714285713 618.9772962489769 3747.2428571428572 620.7479883324611 3777.7571428571428 621.5001438018157 3808.2714285714287 648.3895796632379 3838.785714285714 647.4118241208081 3869.3 631.6183228637996 3899.8142857142857 630.4544284738802 3930.328571428571 629.1405060461395 3960.842857142857 628.7712194186788 3991.357142857143 629.112232069277 4021.8714285714286 629.3637077507597 4052.385714285714 629.6411395703622 4082.9 630.0731822124889 4113.414285714286 630.9533026623258 4143.928571428572 632.4054355541638 4174.442857142857 622.80172023452 4204.957142857143 624.0667377001988 4235.471428571429 625.2428890685153 4265.9857142857145 626.3963136974012 4296.5 627.5176878063296 4296.5 545.0068552240035 4265.9857142857145 543.5872074138473 4235.471428571429 542.2071477253921 4204.957142857143 540.7523658360859 4174.442857142857 539.1846046453284 4143.928571428572 550.69398337688 4113.414285714286 549.0305649530324 4082.9 547.8419869340069 4052.385714285714 547.2972215888882 4021.8714285714286 546.9206806705122 3991.357142857143 546.5765460991323 3960.842857142857 546.1401156456737 3930.328571428571 546.162084159149 3899.8142857142857 547.0193242259644 3869.3 547.5943073684911 3838.785714285714 565.6397555577983 3808.2714285714287 566.0005705781988 3777.7571428571428 541.8846686674905 3747.2428571428572 541.0539314470215 3716.7285714285713 539.8778029714027 3686.214285714286 538.0311425357806 3655.7 536.4270145966814 3625.1857142857143 536.7106293649022 3594.671428571429 536.9764016245806 3564.157142857143 535.7941999215749 3533.6428571428573 535.7525782888524 3503.1285714285714 509.06513243323207 3472.614285714286 509.44212806241245 3442.1 509.38220585337143 3411.5857142857144 509.60866877735396 3381.0714285714284 511.9603578529975 3350.557142857143 511.0153758579769 3320.042857142857 509.7472741468517 3289.5285714285715 509.176439393107 3259.0142857142855 508.6338001891333 3228.5 508.14325383903014 3228.5 570.6431995209241Z" fill="#005aa6" opacity="0.9" />
		</g>
		<g>
			<path d="M3228.5 508.14325383903014 3259.0142857142855 508.6338001891333 3289.5285714285715 509.176439393107 3320.042857142857 509.7472741468517 3350.557142857143 511.0153758579769 3381.0714285714284 511.9603578529975 3411.5857142857144 509.60866877735396 3442.1 509.38220585337143 3472.614285714286 509.44212806241245 3503.1285714285714 509.06513243323207 3533.6428571428573 535.7525782888524 3564.157142857143 535.7941999215749 3594.671428571429 536.9764016245806 3625.1857142857143 536.7106293649022 3655.7 536.4270145966814 3686.214285714286 538.0311425357806 3716.7285714285713 539.8778029714027 3747.2428571428572 541.0539314470215 3777.7571428571428 541.8846686674905 3808.2714285714287 566.0005705781988 3838.785714285714 565.6397555577983 3869.3 547.5943073684911 3899.8142857142857 547.0193242259644 3930.328571428571 546.162084159149 3960.842857142857 546.1401156456737 3991.357142857143 546.5765460991323 4021.8714285714286 546.9206806705122 4052.385714285714 547.2972215888882 4082.9 547.8419869340069 4113.414285714286 549.0305649530324 4143.928571428572 550.69398337688 4174.442857142857 539.1846046453284 4204.957142857143 540.7523658360859 4235.471428571429 542.2071477253921 4265.9857142857145 543.5872074138473 4296.5 545.0068552240035 4296.5 521.1207351787452 4265.9857142857145 519.5911430965305 4235.471428571429 518.1357144384516 4204.957142857143 516.5996074824589 4174.442857142857 514.9659833917357 4143.928571428572 527.0438985976282 4113.414285714286 525.3024251103315 4082.9 523.9562890822376 4052.385714285714 523.2798263552974 4021.8714285714286 522.7674371524068 3991.357142857143 522.2747415869658 3960.842857142857 521.7061803820658 3930.328571428571 521.4815581773842 3899.8142857142857 522.0175391594702 3869.3 522.2390966744398 3838.785714285714 540.7792433621357 3808.2714285714287 540.7347903265445 3777.7571428571428 520.8422961076436 3747.2428571428572 519.941244366186 3716.7285714285713 518.8725186340012 3686.214285714286 517.1348567955661 3655.7 515.650021587989 3625.1857142857143 515.7382849108784 3594.671428571429 515.8356026961703 3564.157142857143 514.2250429205485 3533.6428571428573 514.175265377396 3503.1285714285714 492.9059942279181 3472.614285714286 493.0966047321476 3442.1 492.88332734476376 3411.5857142857144 492.95479515937706 3381.0714285714284 494.7801665319999 3350.557142857143 493.78468973551225 3320.042857142857 492.5320066774311 3289.5285714285715 491.93197908298504 3259.0142857142855 491.34916929089724 3228.5 490.7876094955426 3228.5 508.14325383903014Z" fill="#55c0e9" opacity="0.9" />
		</g>
		<g>
			<path d="M3228.5 490.7876094955426 3259.0142857142855 491.34916929089724 3289.5285714285715 491.93197908298504 3320.042857142857 492.5320066774311 3350.557142857143 493.78468973551225 3381.0714285714284 494.7801665319999 3411.5857142857144 492.95479515937706 3442.1 492.88332734476376 3472.614285714286 493.0966047321476 3503.1285714285714 492.9059942279181 3533.6428571428573 514.175265377396 3564.157142857143 514.2250429205485 3594.671428571429 515.8356026961703 3625.1857142857143 515.7382849108784 3655.7 515.650021587989 3686.214285714286 517.1348567955661 3716.7285714285713 518.8725186340012 3747.2428571428572 519.941244366186 3777.7571428571428 520.8422961076436 3808.2714285714287 540.7347903265445 3838.785714285714 540.7792433621357 3869.3 522.2390966744398 3899.8142857142857 522.0175391594702 3930.328571428571 521.4815581773842 3960.842857142857 521.7061803820658 3991.357142857143 522.2747415869658 4021.8714285714286 522.7674371524068 4052.385714285714 523.2798263552974 4082.9 523.9562890822376 4113.414285714286 525.3024251103315 4143.928571428572 527.0438985976282 4174.442857142857 514.9659833917357 4204.957142857143 516.5996074824589 4235.471428571429 518.1357144384516 4265.9857142857145 519.5911430965305 4296.5 521.1207351787452 4296.5 504.3173344906431 4265.9857142857145 502.8338970689489 4235.471428571429 501.4426511937707 4204.957142857143 499.97387766322737 4174.442857142857 498.4242329984132 4143.928571428572 510.99365573350235 4113.414285714286 509.31973026750774 4082.9 508.0481610967102 4052.385714285714 507.46130800445246 4021.8714285714286 507.0233752398185 3991.357142857143 506.60822161328986 3960.842857142857 506.1065487459215 3930.328571428571 505.9043627233751 3899.8142857142857 506.4216643610348 3869.3 506.6484163233015 3838.785714285714 525.7580510881946 3808.2714285714287 525.7315703546495 3777.7571428571428 502.94320923041516 3747.2428571428572 502.107038956447 3716.7285714285713 501.18268987180403 3686.214285714286 499.5661579814509 3655.7 498.2407663238116 3625.1857142857143 498.34179455703446 3594.671428571429 498.4409678079612 3564.157142857143 496.7688079778267 3533.6428571428573 496.7252878979315 3503.1285714285714 467.1119991855256 3472.614285714286 467.30287783529656 3442.1 467.12354601368946 3411.5857142857144 467.18090658715477 3381.0714285714284 468.4609806530692 3350.557142857143 467.6706174617695 3320.042857142857 466.5807912489142 3289.5285714285715 466.04765597528194 3259.0142857142855 465.50683076275004 3228.5 465.1003985575009 3228.5 490.7876094955426Z" fill="#f6a118" opacity="0.9" />
		</g>
		<g>
			<path d="M3228.5 465.1003985575009 3259.0142857142855 465.50683076275004 3289.5285714285715 466.04765597528194 3320.042857142857 466.5807912489142 3350.557142857143 467.6706174617695 3381.0714285714284 468.4609806530692 3411.5857142857144 467.18090658715477 3442.1 467.12354601368946 3472.614285714286 467.30287783529656 3503.1285714285714 467.1119991855256 3533.6428571428573 496.7252878979315 3564.157142857143 496.7688079778267 3594.671428571429 498.4409678079612 3625.1857142857143 498.34179455703446 3655.7 498.2407663238116 3686.214285714286 499.5661579814509 3716.7285714285713 501.18268987180403 3747.2428571428572 502.107038956447 3777.7571428571428 502.94320923041516 3808.2714285714287 525.7315703546495 3838.785714285714 525.7580510881946 3869.3 506.6484163233015 3899.8142857142857 506.4216643610348 3930.328571428571 505.9043627233751 3960.842857142857 506.1065487459215 3991.357142857143 506.60822161328986 4021.8714285714286 507.0233752398185 4052.385714285714 507.46130800445246 4082.9 508.0481610967102 4113.414285714286 509.31973026750774 4143.928571428572 510.99365573350235 4174.442857142857 498.4242329984132 4204.957142857143 499.97387766322737 4235.471428571429 501.4426511937707 4265.9857142857145 502.8338970689489 4296.5 504.3173344906431 4296.5 491.08339968159794 4265.9857142857145 489.589994805443 4235.471428571429 488.205911277506 4204.957142857143 486.75823132244886 4174.442857142857 485.3927174126073 4143.928571428572 498.4720025363811 4113.414285714286 497.0382614705632 4082.9 495.82345643600064 4052.385714285714 495.20191899296304 4021.8714285714286 494.71994133496287 3991.357142857143 494.25306019687616 3960.842857142857 493.7747398235285 3930.328571428571 493.46369672124194 3899.8142857142857 493.7814105421057 3869.3 493.8307143677906 3838.785714285714 513.2062038257327 3808.2714285714287 513.0191600354991 3777.7571428571428 492.37221825805364 3747.2428571428572 491.90854325848505 3716.7285714285713 491.3515350353937 3686.214285714286 490.22585688768174 3655.7 489.18947576032576 3625.1857142857143 489.22333619864025 3594.671428571429 489.223179567103 3564.157142857143 489.59463668666535 3533.6428571428573 489.6274021960388 3503.1285714285714 465.84397535618723 3472.614285714286 466.0407574120686 3442.1 465.8767979346657 3411.5857142857144 465.9500572477321 3381.0714285714284 467.2202695247198 3350.557142857143 466.45583538595343 3320.042857142857 465.39864568725244 3289.5285714285715 464.88886642683036 3259.0142857142855 464.365762498016 3228.5 463.97855376512575 3228.5 465.1003985575009Z" fill="#fdd5a4" opacity="0.9" />
		</g>
		<g>
			<path d="M3228.5 463.97855376512575 3259.0142857142855 464.365762498016 3289.5285714285715 464.88886642683036 3320.042857142857 465.39864568725244 3350.557142857143 466.45583538595343 3381.0714285714284 467.2202695247198 3411.5857142857144 465.9500572477321 3442.1 465.8767979346657 3472.614285714286 466.0407574120686 3503.1285714285714 465.84397535618723 3533.6428571428573 489.6274021960388 3564.157142857143 489.59463668666535 3594.671428571429 489.223179567103 3625.1857142857143 489.22333619864025 3655.7 489.18947576032576 3686.214285714286 490.22585688768174 3716.7285714285713 491.3515350353937 3747.2428571428572 491.90854325848505 3777.7571428571428 492.37221825805364 3808.2714285714287 513.0191600354991 3838.785714285714 513.2062038257327 3869.3 493.8307143677906 3899.8142857142857 493.7814105421057 3930.328571428571 493.46369672124194 3960.842857142857 493.7747398235285 3991.357142857143 494.25306019687616 4021.8714285714286 494.71994133496287 4052.385714285714 495.20191899296304 4082.9 495.82345643600064 4113.414285714286 497.0382614705632 4143.928571428572 498.4720025363811 4174.442857142857 485.3927174126073 4204.957142857143 486.75823132244886 4235.471428571429 488.205911277506 4265.9857142857145 489.589994805443 4296.5 491.08339968159794 4296.5 398 4265.9857142857145 397.9999999999999 4235.471428571429 397.9999999999999 4204.957142857143 398.00000000000006 4174.442857142857 398 4143.928571428572 398 4113.414285714286 397.9999999999999 4082.9 398.0000000000001 4052.385714285714 397.9999999999999 4021.8714285714286 398 3991.357142857143 398 3960.842857142857 397.99999999999994 3930.328571428571 398 3899.8142857142857 397.9999999999999 3869.3 398.0000000000001 3838.785714285714 398.0000000000001 3808.2714285714287 398 3777.7571428571428 397.9999999999999 3747.2428571428572 398.0000000000001 3716.7285714285713 398 3686.214285714286 397.99999999999994 3655.7 398 3625.1857142857143 398 3594.671428571429 397.99999999999994 3564.157142857143 398.0000000000001 3533.6428571428573 397.9999999999999 3503.1285714285714 397.9999999999999 3472.614285714286 398 3442.1 397.9999999999999 3411.5857142857144 397.99999999999994 3381.0714285714284 397.9999999999999 3350.557142857143 397.99999999999994 3320.042857142857 398 3289.5285714285715 398.00000000000006 3259.0142857142855 397.99999999999983 3228.5 398.0000000000001 3228.5 463.97855376512575Z" fill="#393d41" opacity="0.9" />
		</g>
		<g>
			<rect x="4372" y="431" width="22.9995" height="23" fill="#e62d39" />
		</g>
		<g>
			<text fill="#595959" font-family="Verdana,sans-serif" font-weight="400" font-size="41" transform="matrix(1 0 0 1 4404.56 454)">Smartphone</text>
		</g>
		<g>
			<rect x="4372" y="508" width="22.9995" height="23" fill="#005aa6" />
		</g>
		<g>
			<text fill="#595959" font-family="Verdana,sans-serif" font-weight="400" font-size="41" transform="matrix(1 0 0 1 4404.56 531)">Desktop</text>
		</g>
		<g>
			<rect x="4372" y="585" width="22.9995" height="23" fill="#55c0e9" />
		</g>
		<g>
			<text fill="#595959" font-family="Verdana,sans-serif" font-weight="400" font-size="41" transform="matrix(1 0 0 1 4404.56 608)">Other</text>
		</g>
		<g>
			<rect x="4372" y="662" width="22.9995" height="23" fill="#f6a118" />
		</g>
		<g>
			<text fill="#595959" font-family="Verdana,sans-serif" font-weight="400" font-size="41" transform="matrix(1 0 0 1 4404.56 685)">Tablet</text>
		</g>
		<g>
			<rect x="4372" y="739" width="22.9995" height="23" fill="#fdd5a4" />
		</g>
		<g>
			<text fill="#595959" font-family="Verdana,sans-serif" font-weight="400" font-size="41" transform="matrix(1 0 0 1 4404.56 762)">Tv</text>
		</g>
		<g>
			<rect x="4372" y="816" width="22.9995" height="23" fill="#393d41" />
		</g>
		<g>
			<text fill="#595959" font-family="Verdana,sans-serif" font-weight="400" font-size="41" transform="matrix(1 0 0 1 4404.56 839)">Unclassified</text>
		</g>
	</g>
</svg>
