<svg width="1763" height="1046"
    xmlns="http://www.w3.org/2000/svg"
	xmlns:xlink="http://www.w3.org/1999/xlink" xml:space="preserve" overflow="hidden">
	<defs>
		<clipPath id="clip0">
			<rect x="2917" y="346" width="1763" height="1046"/>
		</clipPath>
	</defs>
	<g clip-path="url(#clip0)" transform="translate(-2917 -346)">
		<rect x="2918" y="347" width="1760" height="1043" fill="#FFFFFF" />
		<g>
			<path d="
			M3228.5 974.532 4296.5 974.532
			M3228.5 910.53 4296.5 910.53
			M3228.5 846.528 4296.5 846.528
			M3228.5 781.526 4296.5 781.526
			M3228.5 717.524 4296.5 717.524
			M3228.5 653.522 4296.5 653.522
			M3228.5 589.52 4296.5 589.52
			M3228.5 525.517 4296.5 525.517
			M3228.5 461.515 4296.5 461.515
			M3228.5 397.5 4296.5 397.5" stroke="#D9D9D9" stroke-width="3.4375" stroke-linejoin="round" stroke-miterlimit="10" fill="none" />
		</g>
		<g>
			<path d="M 1038.5 4296.5 1038.5" stroke="#D9D9D9" stroke-width="3.4375" stroke-linejoin="round" stroke-miterlimit="10" fill="none" fill-rule="evenodd" />
		</g>
		<g>
			<text fill="#595959" font-family="Verdana,Open Sans,DejaVu Sans,sans-serif" font-weight="400" font-size="41" transform="matrix(6.12323e-17 -1 1 6.12323e-17 3248.269287109375 1204.42333984375)">23-Sep</text>
		</g>
		<g>
			<text fill="#595959" font-family="Verdana,Open Sans,DejaVu Sans,sans-serif" font-weight="400" font-size="41" transform="matrix(6.12323e-17 -1 1 6.12323e-17 3330.748370735013 1201.1401290893555)">21-Oct</text>
		</g>
		<g>
			<text fill="#595959" font-family="Verdana,Open Sans,DejaVu Sans,sans-serif" font-weight="400" font-size="41" transform="matrix(6.12323e-17 -1 1 6.12323e-17 3417.9120246731504 1209.70849609375)">18-Nov</text>
		</g>
		<g>
			<text fill="#595959" font-family="Verdana,Open Sans,DejaVu Sans,sans-serif" font-weight="400" font-size="41" transform="matrix(6.12323e-17 -1 1 6.12323e-17 3505.0956981425384 1207.1259765625)">23-Dec</text>
		</g>
		<g>
			<text fill="#595959" font-family="Verdana,Open Sans,DejaVu Sans,sans-serif" font-weight="400" font-size="41" transform="matrix(6.12323e-17 -1 1 6.12323e-17 3595.952955596301 1191.6909103393555)">20-Jan</text>
		</g>
		<g>
			<text fill="#595959" font-family="Verdana,Open Sans,DejaVu Sans,sans-serif" font-weight="400" font-size="41" transform="matrix(6.12323e-17 -1 1 6.12323e-17 3680.193757971939 1201.3203125)">17-Feb</text>
		</g>
		<g>
			<text fill="#595959" font-family="Verdana,Open Sans,DejaVu Sans,sans-serif" font-weight="400" font-size="41" transform="matrix(6.12323e-17 -1 1 6.12323e-17 3766.4365134725767 1210.2890625)">17-Mar</text>
		</g>
		<g>
			<text fill="#595959" font-family="Verdana,Open Sans,DejaVu Sans,sans-serif" font-weight="400" font-size="41" transform="matrix(6.12323e-17 -1 1 6.12323e-17 3858.424874441964 1201.5405197143555)">14-Apr</text>
		</g>
		<g>
			<text fill="#595959" font-family="Verdana,Open Sans,DejaVu Sans,sans-serif" font-weight="400" font-size="41" transform="matrix(6.12323e-17 -1 1 6.12323e-17 3945.738674864477 1214.75341796875)">12-May</text>
		</g>
		<g>
			<text fill="#595959" font-family="Verdana,Open Sans,DejaVu Sans,sans-serif" font-weight="400" font-size="41" transform="matrix(6.12323e-17 -1 1 6.12323e-17 4031.8513034119896 1192.2914962768555)">16-Jun</text>
		</g>
		<g>
			<text fill="#595959" font-family="Verdana,Open Sans,DejaVu Sans,sans-serif" font-weight="400" font-size="41" transform="matrix(6.12323e-17 -1 1 6.12323e-17 4119.765689772003 1177.2768478393555)">14-Jul</text>
		</g>
		<g>
			<text fill="#595959" font-family="Verdana,Open Sans,DejaVu Sans,sans-serif" font-weight="400" font-size="41" transform="matrix(6.12323e-17 -1 1 6.12323e-17 4207.1395487882655 1206.90576171875)">11-Aug</text>
		</g>
		<g>
			<text fill="#595959" font-family="Verdana,Open Sans,DejaVu Sans,sans-serif" font-weight="400" font-size="41" transform="matrix(6.12323e-17 -1 1 6.12323e-17 4294.4933882732785 1204.38330078125)">08-Sep</text>
		</g>
		<g>
			<text fill="#595959" font-family="Verdana,Open Sans,DejaVu Sans,sans-serif" font-weight="400" font-size="41" transform="matrix(1 0 0 1 3135.4482421875 1050)">0%</text>
		</g>
		<g>
			<text fill="#595959" font-family="Verdana,Open Sans,DejaVu Sans,sans-serif" font-weight="400" font-size="41" transform="matrix(1 0 0 1 3111.96533203125 922)">20%</text>
		</g>
		<g>
			<text fill="#595959" font-family="Verdana,Open Sans,DejaVu Sans,sans-serif" font-weight="400" font-size="41" transform="matrix(1 0 0 1 3110.82421875 794)">40%</text>
		</g>
		<g>
			<text fill="#595959" font-family="Verdana,Open Sans,DejaVu Sans,sans-serif" font-weight="400" font-size="41" transform="matrix(1 0 0 1 3112.3056640625 666)">60%</text>
		</g>
		<g>
			<text fill="#595959" font-family="Verdana,Open Sans,DejaVu Sans,sans-serif" font-weight="400" font-size="41" transform="matrix(1 0 0 1 3112.04541015625 538)">80%</text>
		</g>
		<g>
			<text fill="#595959" font-family="Verdana,Open Sans,DejaVu Sans,sans-serif" font-weight="400" font-size="41" transform="matrix(1 0 0 1 3090.2841796875 410)">100%</text>
		</g>
		<g>
			<text fill="#595959" font-family="Verdana,Open Sans,DejaVu Sans,sans-serif" font-weight="400" font-size="41" transform="matrix(1 0 0 1 3556.97119140625 1321)">Week Commencing</text>
		</g>
		<g>
			<text fill="#595959" font-family="Verdana,Open Sans,DejaVu Sans,sans-serif" font-weight="400" font-size="46" transform="matrix(6.12323e-17 -1 1 6.12323e-17 3019.73 936.7665710449219)">Requests (% of Total)</text>
		</g>
		<rect x="2918.5" y="347.5" width="1760" height="1043" stroke="#D9D9D9" stroke-width="3.4375" stroke-linejoin="round" stroke-miterlimit="10" fill="none" />
		<g>
			<path d="M3228.5 1038 3250.295918367347 1038 3272.091836734694 1038 3293.887755102041 1038 3315.683673469388 1038 3337.4795918367345 1038 3359.2755102040815 1038 3381.0714285714284 1038 3402.8673469387754 1038 3424.6632653061224 1038 3446.4591836734694 1038 3468.2551020408164 1038 3490.0510204081634 1038 3511.8469387755104 1038 3533.6428571428573 1038 3555.4387755102043 1038 3577.234693877551 1038 3599.030612244898 1038 3620.826530612245 1038 3642.622448979592 1038 3664.418367346939 1038 3686.214285714286 1038 3708.0102040816328 1038 3729.8061224489797 1038 3751.6020408163267 1038 3773.3979591836733 1038 3795.1938775510203 1038 3816.9897959183672 1038 3838.785714285714 1038 3860.581632653061 1038 3882.377551020408 1038 3904.173469387755 1038 3925.969387755102 1038 3947.765306122449 1038 3969.5612244897957 1038 3991.357142857143 1038 4013.1530612244896 1038 4034.9489795918366 1038 4056.7448979591836 1038 4078.5408163265306 1038 4100.336734693878 1038 4122.132653061224 1038 4143.928571428572 1038 4165.724489795918 1038 4187.5204081632655 1038 4209.316326530612 1038 4231.1122448979595 1038 4252.908163265306 1038 4274.7040816326535 1038 4296.5 1038 4296.5 519.0934355637311 4274.7040816326535 520.9052457535156 4252.908163265306 521.6318852573548 4231.1122448979595 521.6184156458323 4209.316326530612 522.2681085366032 4187.5204081632655 527.8351358448251 4165.724489795918 527.8182060044346 4143.928571428572 527.8171189568005 4122.132653061224 527.8195281696414 4100.336734693878 527.7185125063723 4078.5408163265306 528.1749639028288 4056.7448979591836 526.0738068609967 4034.9489795918366 526.0690930129186 4013.1530612244896 526.4517905907722 3991.357142857143 526.966587562726 3969.5612244897957 527.7344479046612 3947.765306122449 528.0922596265774 3925.969387755102 528.3637575953018 3904.173469387755 528.4473950245434 3882.377551020408 528.3817437118579 3860.581632653061 528.3209049784523 3838.785714285714 528.6035113858115 3816.9897959183672 529.0722280244075 3795.1938775510203 529.4214956662862 3773.3979591836733 529.807429199031 3751.6020408163267 533.5058286789898 3729.8061224489797 533.4031264720519 3708.0102040816328 533.4021762961523 3686.214285714286 533.7756525096236 3664.418367346939 533.8956466575289 3642.622448979592 533.9572095457534 3620.826530612245 533.4841990448925 3599.030612244898 533.4528010722697 3577.234693877551 533.722746014736 3555.4387755102043 533.7853664259474 3533.6428571428573 533.8294455926118 3511.8469387755104 533.7499584959044 3490.0510204081634 533.5577242345337 3468.2551020408164 533.3794235575219 3446.4591836734694 533.1839579715512 3424.6632653061224 532.7385960569093 3402.8673469387754 532.9945218339117 3381.0714285714284 533.5883597667535 3359.2755102040815 534.4892592748513 3337.4795918367345 535.2648007319358 3315.683673469388 642.4592997578948 3293.887755102041 641.7348258019537 3272.091836734694 641.0274072878076 3250.295918367347 640.0328656683237 3228.5 638.7439704461906 3228.5 1038Z" fill="#e62d39" opacity="0.9" />
		</g>
		<g>
			<path d="M3228.5 638.7439704461906 3250.295918367347 640.0328656683237 3272.091836734694 641.0274072878076 3293.887755102041 641.7348258019537 3315.683673469388 642.4592997578948 3337.4795918367345 535.2648007319358 3359.2755102040815 534.4892592748513 3381.0714285714284 533.5883597667535 3402.8673469387754 532.9945218339117 3424.6632653061224 532.7385960569093 3446.4591836734694 533.1839579715512 3468.2551020408164 533.3794235575219 3490.0510204081634 533.5577242345337 3511.8469387755104 533.7499584959044 3533.6428571428573 533.8294455926118 3555.4387755102043 533.7853664259474 3577.234693877551 533.722746014736 3599.030612244898 533.4528010722697 3620.826530612245 533.4841990448925 3642.622448979592 533.9572095457534 3664.418367346939 533.8956466575289 3686.214285714286 533.7756525096236 3708.0102040816328 533.4021762961523 3729.8061224489797 533.4031264720519 3751.6020408163267 533.5058286789898 3773.3979591836733 529.807429199031 3795.1938775510203 529.4214956662862 3816.9897959183672 529.0722280244075 3838.785714285714 528.6035113858115 3860.581632653061 528.3209049784523 3882.377551020408 528.3817437118579 3904.173469387755 528.4473950245434 3925.969387755102 528.3637575953018 3947.765306122449 528.0922596265774 3969.5612244897957 527.7344479046612 3991.357142857143 526.966587562726 4013.1530612244896 526.4517905907722 4034.9489795918366 526.0690930129186 4056.7448979591836 526.0738068609967 4078.5408163265306 528.1749639028288 4100.336734693878 527.7185125063723 4122.132653061224 527.8195281696414 4143.928571428572 527.8171189568005 4165.724489795918 527.8182060044346 4187.5204081632655 527.8351358448251 4209.316326530612 522.2681085366032 4231.1122448979595 521.6184156458323 4252.908163265306 521.6318852573548 4274.7040816326535 520.9052457535156 4296.5 519.0934355637311 4296.5 438.939493870515 4274.7040816326535 439.76778884064066 4252.908163265306 440.12172845279287 4231.1122448979595 440.1025942817036 4209.316326530612 440.43245647629897 4187.5204081632655 446.0049434709254 4165.724489795918 445.99448025532104 4143.928571428572 445.9906298366525 4122.132653061224 445.9850763388172 4100.336734693878 446.00044835106377 4078.5408163265306 445.48995832347725 4056.7448979591836 440.7320769519542 4034.9489795918366 440.71015435347675 4013.1530612244896 440.79849020545294 3991.357142857143 441.02669160650083 3969.5612244897957 441.4805241599953 3947.765306122449 441.7146387359797 3925.969387755102 441.87434560441795 3904.173469387755 442.00506484989137 3882.377551020408 442.0536403247141 3860.581632653061 442.1004848135459 3838.785714285714 442.29078701208255 3816.9897959183672 442.5177613549289 3795.1938775510203 442.75370380577044 3773.3979591836733 443.0039649820596 3751.6020408163267 447.2266118196212 3729.8061224489797 447.3367564362345 3708.0102040816328 447.478410212555 3686.214285714286 447.7812344269998 3664.418367346939 447.9735867247491 3642.622448979592 448.11744019003095 3620.826530612245 447.90712750570685 3599.030612244898 447.65114758474357 3577.234693877551 447.63691579979616 3555.4387755102043 447.6548818464415 3533.6428571428573 447.68514400974766 3511.8469387755104 447.6730658977694 3490.0510204081634 447.6266609249292 3468.2551020408164 447.6323779302626 3446.4591836734694 447.6574339250563 3424.6632653061224 447.5983732210459 3402.8673469387754 447.82372841614773 3381.0714285714284 448.23400972704667 3359.2755102040815 448.85972838125235 3337.4795918367345 449.3446349967366 3315.683673469388 564.013087594675 3293.887755102041 563.0569322713101 3272.091836734694 562.1201699126104 3250.295918367347 560.9592369816268 3228.5 559.5178863272408 3228.5 638.7439704461906Z" fill="#005aa6" opacity="0.9" />
		</g>
		<g>
			<path d="M3228.5 559.5178863272408 3250.295918367347 560.9592369816268 3272.091836734694 562.1201699126104 3293.887755102041 563.0569322713101 3315.683673469388 564.013087594675 3337.4795918367345 449.3446349967366 3359.2755102040815 448.85972838125235 3381.0714285714284 448.23400972704667 3402.8673469387754 447.82372841614773 3424.6632653061224 447.5983732210459 3446.4591836734694 447.6574339250563 3468.2551020408164 447.6323779302626 3490.0510204081634 447.6266609249292 3511.8469387755104 447.6730658977694 3533.6428571428573 447.68514400974766 3555.4387755102043 447.6548818464415 3577.234693877551 447.63691579979616 3599.030612244898 447.65114758474357 3620.826530612245 447.90712750570685 3642.622448979592 448.11744019003095 3664.418367346939 447.9735867247491 3686.214285714286 447.7812344269998 3708.0102040816328 447.478410212555 3729.8061224489797 447.3367564362345 3751.6020408163267 447.2266118196212 3773.3979591836733 443.0039649820596 3795.1938775510203 442.75370380577044 3816.9897959183672 442.5177613549289 3838.785714285714 442.29078701208255 3860.581632653061 442.1004848135459 3882.377551020408 442.0536403247141 3904.173469387755 442.00506484989137 3925.969387755102 441.87434560441795 3947.765306122449 441.7146387359797 3969.5612244897957 441.4805241599953 3991.357142857143 441.02669160650083 4013.1530612244896 440.79849020545294 4034.9489795918366 440.71015435347675 4056.7448979591836 440.7320769519542 4078.5408163265306 445.48995832347725 4100.336734693878 446.00044835106377 4122.132653061224 445.9850763388172 4143.928571428572 445.9906298366525 4165.724489795918 445.99448025532104 4187.5204081632655 446.0049434709254 4209.316326530612 440.43245647629897 4231.1122448979595 440.1025942817036 4252.908163265306 440.12172845279287 4274.7040816326535 439.76778884064066 4296.5 438.939493870515 4296.5 424.0558120196192 4274.7040816326535 424.7181344913808 4252.908163265306 425.0236349944547 4231.1122448979595 425.0035344441698 4209.316326530612 425.28465904377634 4187.5204081632655 430.8274530925998 4165.724489795918 430.81817356835387 4143.928571428572 430.8139007331268 4122.132653061224 430.8069864095142 4100.336734693878 430.9020970833825 4078.5408163265306 430.23142599790555 4056.7448979591836 425.0017650883845 4034.9489795918366 424.9767523660499 4013.1530612244896 425.0257701995382 3991.357142857143 425.20583580775155 3969.5612244897957 425.4986687976815 3947.765306122449 425.6867840212037 3925.969387755102 425.8119685721377 3904.173469387755 425.9104888133743 3882.377551020408 425.92679886960804 3860.581632653061 425.94362826788443 3838.785714285714 426.1140510532148 3816.9897959183672 426.3120783472338 3795.1938775510203 426.5518003809951 3773.3979591836733 426.81320471249694 3751.6020408163267 431.1686011749783 3729.8061224489797 431.3401421096995 3708.0102040816328 431.5247092372164 3686.214285714286 431.81676347027957 3664.418367346939 431.99440912392726 3642.622448979592 432.1329946808099 3620.826530612245 432.00359297169024 3599.030612244898 431.84731630596053 3577.234693877551 431.8659139096981 3555.4387755102043 431.93242137634724 3533.6428571428573 431.9599475077045 3511.8469387755104 431.9558731937295 3490.0510204081634 431.9405589448202 3468.2551020408164 431.96727576259724 3446.4591836734694 432.02029212049626 3424.6632653061224 431.97528739378606 3402.8673469387754 432.15561530771527 3381.0714285714284 432.4754364071281 3359.2755102040815 433.0084053536388 3337.4795918367345 433.3913361237896 3315.683673469388 540.8290503164301 3293.887755102041 539.7717503889384 3272.091836734694 538.7148538649283 3250.295918367347 537.4631522646897 3228.5 535.9474999414622 3228.5 559.5178863272408Z" fill="#55c0e9" opacity="0.9" />
		</g>
		<g>
			<path d="M3228.5 535.9474999414622 3250.295918367347 537.4631522646897 3272.091836734694 538.7148538649283 3293.887755102041 539.7717503889384 3315.683673469388 540.8290503164301 3337.4795918367345 433.3913361237896 3359.2755102040815 433.0084053536388 3381.0714285714284 432.4754364071281 3402.8673469387754 432.15561530771527 3424.6632653061224 431.97528739378606 3446.4591836734694 432.02029212049626 3468.2551020408164 431.96727576259724 3490.0510204081634 431.9405589448202 3511.8469387755104 431.9558731937295 3533.6428571428573 431.9599475077045 3555.4387755102043 431.93242137634724 3577.234693877551 431.8659139096981 3599.030612244898 431.84731630596053 3620.826530612245 432.00359297169024 3642.622448979592 432.1329946808099 3664.418367346939 431.99440912392726 3686.214285714286 431.81676347027957 3708.0102040816328 431.5247092372164 3729.8061224489797 431.3401421096995 3751.6020408163267 431.1686011749783 3773.3979591836733 426.81320471249694 3795.1938775510203 426.5518003809951 3816.9897959183672 426.3120783472338 3838.785714285714 426.1140510532148 3860.581632653061 425.94362826788443 3882.377551020408 425.92679886960804 3904.173469387755 425.9104888133743 3925.969387755102 425.8119685721377 3947.765306122449 425.6867840212037 3969.5612244897957 425.4986687976815 3991.357142857143 425.20583580775155 4013.1530612244896 425.0257701995382 4034.9489795918366 424.9767523660499 4056.7448979591836 425.0017650883845 4078.5408163265306 430.23142599790555 4100.336734693878 430.9020970833825 4122.132653061224 430.8069864095142 4143.928571428572 430.8139007331268 4165.724489795918 430.81817356835387 4187.5204081632655 430.8274530925998 4209.316326530612 425.28465904377634 4231.1122448979595 425.0035344441698 4252.908163265306 425.0236349944547 4274.7040816326535 424.7181344913808 4296.5 424.0558120196192 4296.5 410.7016436985356 4274.7040816326535 410.9789161674267 4252.908163265306 411.1035757536376 4231.1122448979595 411.0839891917173 4209.316326530612 411.22347657579 4187.5204081632655 416.32051328878225 4165.724489795918 416.3159617889731 4143.928571428572 416.31921689377526 4122.132653061224 416.31736632943614 4100.336734693878 416.3210682719641 4078.5408163265306 415.85243189703715 4056.7448979591836 410.86025631578275 4034.9489795918366 410.8513168557256 4013.1530612244896 410.8010080993925 3991.357142857143 410.8532595598375 3969.5612244897957 410.9689719408518 3947.765306122449 411.04822058755076 3925.969387755102 411.09796238059005 3904.173469387755 411.13309600464333 3882.377551020408 411.08525540240214 3860.581632653061 411.0502804931489 3838.785714285714 411.15507042479464 3816.9897959183672 411.2715831935364 3795.1938775510203 411.39453051492376 3773.3979591836733 411.52533019336687 3751.6020408163267 415.89173436048446 3729.8061224489797 415.95861191477786 3708.0102040816328 416.055066900616 3686.214285714286 416.2345639289736 3664.418367346939 416.4071449754411 3642.622448979592 416.47817812627426 3620.826530612245 416.34836086389726 3599.030612244898 416.1564242259188 3577.234693877551 416.1235996870702 3555.4387755102043 416.0562889706207 3533.6428571428573 416.0954395000898 3511.8469387755104 416.0465069983401 3490.0510204081634 416.000160121671 3468.2551020408164 416.0062420628137 3446.4591836734694 416.05161909433286 3424.6632653061224 415.99893833884835 3402.8673469387754 416.12431960001913 3381.0714285714284 416.33420162951643 3359.2755102040815 416.71311285195446 3337.4795918367345 416.98069451994184 3315.683673469388 523.7363657522843 3293.887755102041 522.5716439040438 3272.091836734694 521.4074163425901 3250.295918367347 520.0402408469882 3228.5 518.4759534407176 3228.5 535.9474999414622Z" fill="#f6a118" opacity="0.9" />
		</g>
		<g>
			<path d="M3228.5 518.4759534407176 3250.295918367347 520.0402408469882 3272.091836734694 521.4074163425901 3293.887755102041 522.5716439040438 3315.683673469388 523.7363657522843 3337.4795918367345 416.98069451994184 3359.2755102040815 416.71311285195446 3381.0714285714284 416.33420162951643 3402.8673469387754 416.12431960001913 3424.6632653061224 415.99893833884835 3446.4591836734694 416.05161909433286 3468.2551020408164 416.0062420628137 3490.0510204081634 416.000160121671 3511.8469387755104 416.0465069983401 3533.6428571428573 416.0954395000898 3555.4387755102043 416.0562889706207 3577.234693877551 416.1235996870702 3599.030612244898 416.1564242259188 3620.826530612245 416.34836086389726 3642.622448979592 416.47817812627426 3664.418367346939 416.4071449754411 3686.214285714286 416.2345639289736 3708.0102040816328 416.055066900616 3729.8061224489797 415.95861191477786 3751.6020408163267 415.89173436048446 3773.3979591836733 411.52533019336687 3795.1938775510203 411.39453051492376 3816.9897959183672 411.2715831935364 3838.785714285714 411.15507042479464 3860.581632653061 411.0502804931489 3882.377551020408 411.08525540240214 3904.173469387755 411.13309600464333 3925.969387755102 411.09796238059005 3947.765306122449 411.04822058755076 3969.5612244897957 410.9689719408518 3991.357142857143 410.8532595598375 4013.1530612244896 410.8010080993925 4034.9489795918366 410.8513168557256 4056.7448979591836 410.86025631578275 4078.5408163265306 415.85243189703715 4100.336734693878 416.3210682719641 4122.132653061224 416.31736632943614 4143.928571428572 416.31921689377526 4165.724489795918 416.3159617889731 4187.5204081632655 416.32051328878225 4209.316326530612 411.22347657579 4231.1122448979595 411.0839891917173 4252.908163265306 411.1035757536376 4274.7040816326535 410.9789161674267 4296.5 410.7016436985356 4296.5 402.75682438501997 4274.7040816326535 402.64364301985916 4252.908163265306 402.6213127942401 4231.1122448979595 402.6374941256268 4209.316326530612 402.6382934643876 4187.5204081632655 407.18303418872716 4165.724489795918 407.1809148990988 4143.928571428572 407.1872998554764 4122.132653061224 407.1917111103271 4100.336734693878 407.1621562125779 4078.5408163265306 406.9309868112197 4056.7448979591836 402.3499262788061 4034.9489795918366 402.3497550933614 4013.1530612244896 402.31710391583925 3991.357142857143 402.31377839166817 3969.5612244897957 402.32705082967294 3947.765306122449 402.3105155472352 3925.969387755102 402.3328782432905 3904.173469387755 402.29313148871324 3882.377551020408 402.27347913416367 3860.581632653061 402.24951221526595 3838.785714285714 402.264400535425 3816.9897959183672 402.2771754039698 3795.1938775510203 402.3026796088189 3773.3979591836733 402.31237144781545 3751.6020408163267 406.6903311154683 3729.8061224489797 406.6504534424193 3708.0102040816328 406.63653513437157 3686.214285714286 406.73881659701254 3664.418367346939 406.7913155812626 3642.622448979592 406.7895314471883 3620.826530612245 406.7538978821639 3599.030612244898 406.6419996355151 3577.234693877551 406.66475151485594 3555.4387755102043 406.64954838762975 3533.6428571428573 406.6900606081659 3511.8469387755104 406.67423043388266 3490.0510204081634 406.6442240275461 3468.2551020408164 406.6769627823681 3446.4591836734694 406.7486576922467 3424.6632653061224 406.88204596503937 3402.8673469387754 407.2984950463532 3381.0714285714284 407.42058087187377 3359.2755102040815 407.6496849699309 3337.4795918367345 407.85452807822685 3315.683673469388 510.457001187623 3293.887755102041 509.25430348013276 3272.091836734694 508.03326088042445 3250.295918367347 506.6178498444704 3228.5 505.0214210075742 3228.5 518.4759534407176Z" fill="#fdd5a4" opacity="0.9" />
		</g>
		<g>
			<path d="M3228.5 505.0214210075742 3250.295918367347 506.6178498444704 3272.091836734694 508.03326088042445 3293.887755102041 509.25430348013276 3315.683673469388 510.457001187623 3337.4795918367345 407.85452807822685 3359.2755102040815 407.6496849699309 3381.0714285714284 407.42058087187377 3402.8673469387754 407.2984950463532 3424.6632653061224 406.88204596503937 3446.4591836734694 406.7486576922467 3468.2551020408164 406.6769627823681 3490.0510204081634 406.6442240275461 3511.8469387755104 406.67423043388266 3533.6428571428573 406.6900606081659 3555.4387755102043 406.64954838762975 3577.234693877551 406.66475151485594 3599.030612244898 406.6419996355151 3620.826530612245 406.7538978821639 3642.622448979592 406.7895314471883 3664.418367346939 406.7913155812626 3686.214285714286 406.73881659701254 3708.0102040816328 406.63653513437157 3729.8061224489797 406.6504534424193 3751.6020408163267 406.6903311154683 3773.3979591836733 402.31237144781545 3795.1938775510203 402.3026796088189 3816.9897959183672 402.2771754039698 3838.785714285714 402.264400535425 3860.581632653061 402.24951221526595 3882.377551020408 402.27347913416367 3904.173469387755 402.29313148871324 3925.969387755102 402.3328782432905 3947.765306122449 402.3105155472352 3969.5612244897957 402.32705082967294 3991.357142857143 402.31377839166817 4013.1530612244896 402.31710391583925 4034.9489795918366 402.3497550933614 4056.7448979591836 402.3499262788061 4078.5408163265306 406.9309868112197 4100.336734693878 407.1621562125779 4122.132653061224 407.1917111103271 4143.928571428572 407.1872998554764 4165.724489795918 407.1809148990988 4187.5204081632655 407.18303418872716 4209.316326530612 402.6382934643876 4231.1122448979595 402.6374941256268 4252.908163265306 402.6213127942401 4274.7040816326535 402.64364301985916 4296.5 402.75682438501997 4296.5 398 4274.7040816326535 398 4252.908163265306 397.99999999999994 4231.1122448979595 398.00000000000006 4209.316326530612 397.99999999999994 4187.5204081632655 397.9999999999999 4165.724489795918 398.0000000000001 4143.928571428572 397.99999999999994 4122.132653061224 398 4100.336734693878 398 4078.5408163265306 398 4056.7448979591836 398 4034.9489795918366 398 4013.1530612244896 398.00000000000006 3991.357142857143 398 3969.5612244897957 398.0000000000001 3947.765306122449 398.0000000000001 3925.969387755102 398 3904.173469387755 398 3882.377551020408 398.00000000000006 3860.581632653061 398.0000000000001 3838.785714285714 398 3816.9897959183672 397.99999999999994 3795.1938775510203 398 3773.3979591836733 397.99999999999994 3751.6020408163267 398 3729.8061224489797 398 3708.0102040816328 398 3686.214285714286 398.0000000000001 3664.418367346939 398.00000000000006 3642.622448979592 398 3620.826530612245 398 3599.030612244898 398 3577.234693877551 398 3555.4387755102043 397.99999999999994 3533.6428571428573 398 3511.8469387755104 398.0000000000001 3490.0510204081634 398.00000000000006 3468.2551020408164 398 3446.4591836734694 397.9999999999999 3424.6632653061224 398 3402.8673469387754 397.99999999999994 3381.0714285714284 398.0000000000001 3359.2755102040815 397.99999999999994 3337.4795918367345 398.00000000000006 3315.683673469388 398 3293.887755102041 397.9999999999999 3272.091836734694 398 3250.295918367347 397.99999999999983 3228.5 398.0000000000001 3228.5 505.0214210075742Z" fill="#393d41" opacity="0.9" />
		</g>
		<g>
			<rect x="4372" y="431" width="22.9995" height="23" fill="#e62d39" />
		</g>
		<g>
			<text fill="#595959" font-family="Verdana,Open Sans,DejaVu Sans,sans-serif" font-weight="400" font-size="41" transform="matrix(1 0 0 1 4404.56 454)">Smartphone</text>
		</g>
		<g>
			<rect x="4372" y="508" width="22.9995" height="23" fill="#005aa6" />
		</g>
		<g>
			<text fill="#595959" font-family="Verdana,Open Sans,DejaVu Sans,sans-serif" font-weight="400" font-size="41" transform="matrix(1 0 0 1 4404.56 531)">Desktop</text>
		</g>
		<g>
			<rect x="4372" y="585" width="22.9995" height="23" fill="#55c0e9" />
		</g>
		<g>
			<text fill="#595959" font-family="Verdana,Open Sans,DejaVu Sans,sans-serif" font-weight="400" font-size="41" transform="matrix(1 0 0 1 4404.56 608)">Other</text>
		</g>
		<g>
			<rect x="4372" y="662" width="22.9995" height="23" fill="#f6a118" />
		</g>
		<g>
			<text fill="#595959" font-family="Verdana,Open Sans,DejaVu Sans,sans-serif" font-weight="400" font-size="41" transform="matrix(1 0 0 1 4404.56 685)">Tablet</text>
		</g>
		<g>
			<rect x="4372" y="739" width="22.9995" height="23" fill="#fdd5a4" />
		</g>
		<g>
			<text fill="#595959" font-family="Verdana,Open Sans,DejaVu Sans,sans-serif" font-weight="400" font-size="41" transform="matrix(1 0 0 1 4404.56 762)">Tv</text>
		</g>
		<g>
			<rect x="4372" y="816" width="22.9995" height="23" fill="#393d41" />
		</g>
		<g>
			<text fill="#595959" font-family="Verdana,Open Sans,DejaVu Sans,sans-serif" font-weight="400" font-size="41" transform="matrix(1 0 0 1 4404.56 839)">Unclassified</text>
		</g>
	</g>
</svg>
