<svg width="1763" height="1046"
    xmlns="http://www.w3.org/2000/svg"
	xmlns:xlink="http://www.w3.org/1999/xlink" xml:space="preserve" overflow="hidden">
	<defs>
		<clipPath id="clip0">
			<rect x="2917" y="346" width="1763" height="1046"/>
		</clipPath>
	</defs>
	<g clip-path="url(#clip0)" transform="translate(-2917 -346)">
		<rect x="2918" y="347" width="1760" height="1043" fill="#FFFFFF" />
		<g>
			<path d="
			M3228.5 974.532 4296.5 974.532
			M3228.5 910.53 4296.5 910.53
			M3228.5 846.528 4296.5 846.528
			M3228.5 781.526 4296.5 781.526
			M3228.5 717.524 4296.5 717.524
			M3228.5 653.522 4296.5 653.522
			M3228.5 589.52 4296.5 589.52
			M3228.5 525.517 4296.5 525.517
			M3228.5 461.515 4296.5 461.515
			M3228.5 397.5 4296.5 397.5" stroke="#D9D9D9" stroke-width="3.4375" stroke-linejoin="round" stroke-miterlimit="10" fill="none" />
		</g>
		<g>
			<path d="M 1038.5 4296.5 1038.5" stroke="#D9D9D9" stroke-width="3.4375" stroke-linejoin="round" stroke-miterlimit="10" fill="none" fill-rule="evenodd" />
		</g>
		<g>
			<text fill="#595959" font-family="Verdana,Open Sans,DejaVu Sans,sans-serif" font-weight="400" font-size="41" transform="matrix(6.12323e-17 -1 1 6.12323e-17 3243.544677734375 1209.70849609375)">18-Nov</text>
		</g>
		<g>
			<text fill="#595959" font-family="Verdana,Open Sans,DejaVu Sans,sans-serif" font-weight="400" font-size="41" transform="matrix(6.12323e-17 -1 1 6.12323e-17 3330.728351203763 1207.1259765625)">23-Dec</text>
		</g>
		<g>
			<text fill="#595959" font-family="Verdana,Open Sans,DejaVu Sans,sans-serif" font-weight="400" font-size="41" transform="matrix(6.12323e-17 -1 1 6.12323e-17 3421.5856086575254 1191.6909103393555)">20-Jan</text>
		</g>
		<g>
			<text fill="#595959" font-family="Verdana,Open Sans,DejaVu Sans,sans-serif" font-weight="400" font-size="41" transform="matrix(6.12323e-17 -1 1 6.12323e-17 3505.8264110331634 1201.3203125)">17-Feb</text>
		</g>
		<g>
			<text fill="#595959" font-family="Verdana,Open Sans,DejaVu Sans,sans-serif" font-weight="400" font-size="41" transform="matrix(6.12323e-17 -1 1 6.12323e-17 3592.069166533801 1210.2890625)">17-Mar</text>
		</g>
		<g>
			<text fill="#595959" font-family="Verdana,Open Sans,DejaVu Sans,sans-serif" font-weight="400" font-size="41" transform="matrix(6.12323e-17 -1 1 6.12323e-17 3684.057527503189 1201.5405197143555)">14-Apr</text>
		</g>
		<g>
			<text fill="#595959" font-family="Verdana,Open Sans,DejaVu Sans,sans-serif" font-weight="400" font-size="41" transform="matrix(6.12323e-17 -1 1 6.12323e-17 3771.3713279257017 1214.75341796875)">12-May</text>
		</g>
		<g>
			<text fill="#595959" font-family="Verdana,Open Sans,DejaVu Sans,sans-serif" font-weight="400" font-size="41" transform="matrix(6.12323e-17 -1 1 6.12323e-17 3857.483956473214 1192.2914962768555)">16-Jun</text>
		</g>
		<g>
			<text fill="#595959" font-family="Verdana,Open Sans,DejaVu Sans,sans-serif" font-weight="400" font-size="41" transform="matrix(6.12323e-17 -1 1 6.12323e-17 3945.398342833227 1177.2768478393555)">14-Jul</text>
		</g>
		<g>
			<text fill="#595959" font-family="Verdana,Open Sans,DejaVu Sans,sans-serif" font-weight="400" font-size="41" transform="matrix(6.12323e-17 -1 1 6.12323e-17 4032.7722018494896 1206.90576171875)">11-Aug</text>
		</g>
		<g>
			<text fill="#595959" font-family="Verdana,Open Sans,DejaVu Sans,sans-serif" font-weight="400" font-size="41" transform="matrix(6.12323e-17 -1 1 6.12323e-17 4120.126041334503 1204.38330078125)">08-Sep</text>
		</g>
		<g>
			<text fill="#595959" font-family="Verdana,Open Sans,DejaVu Sans,sans-serif" font-weight="400" font-size="41" transform="matrix(6.12323e-17 -1 1 6.12323e-17 4202.5851054288905 1201.1000900268555)">06-Oct</text>
		</g>
		<g>
			<text fill="#595959" font-family="Verdana,Open Sans,DejaVu Sans,sans-serif" font-weight="400" font-size="41" transform="matrix(6.12323e-17 -1 1 6.12323e-17 4289.7687788982785 1211.43017578125)">03-Nov</text>
		</g>
		<g>
			<text fill="#595959" font-family="Verdana,Open Sans,DejaVu Sans,sans-serif" font-weight="400" font-size="41" transform="matrix(1 0 0 1 3135.4482421875 1050)">0%</text>
		</g>
		<g>
			<text fill="#595959" font-family="Verdana,Open Sans,DejaVu Sans,sans-serif" font-weight="400" font-size="41" transform="matrix(1 0 0 1 3111.96533203125 922)">20%</text>
		</g>
		<g>
			<text fill="#595959" font-family="Verdana,Open Sans,DejaVu Sans,sans-serif" font-weight="400" font-size="41" transform="matrix(1 0 0 1 3110.82421875 794)">40%</text>
		</g>
		<g>
			<text fill="#595959" font-family="Verdana,Open Sans,DejaVu Sans,sans-serif" font-weight="400" font-size="41" transform="matrix(1 0 0 1 3112.3056640625 666)">60%</text>
		</g>
		<g>
			<text fill="#595959" font-family="Verdana,Open Sans,DejaVu Sans,sans-serif" font-weight="400" font-size="41" transform="matrix(1 0 0 1 3112.04541015625 538)">80%</text>
		</g>
		<g>
			<text fill="#595959" font-family="Verdana,Open Sans,DejaVu Sans,sans-serif" font-weight="400" font-size="41" transform="matrix(1 0 0 1 3090.2841796875 410)">100%</text>
		</g>
		<g>
			<text fill="#595959" font-family="Verdana,Open Sans,DejaVu Sans,sans-serif" font-weight="400" font-size="41" transform="matrix(1 0 0 1 3556.97119140625 1321)">Week Commencing</text>
		</g>
		<g>
			<text fill="#595959" font-family="Verdana,Open Sans,DejaVu Sans,sans-serif" font-weight="400" font-size="46" transform="matrix(6.12323e-17 -1 1 6.12323e-17 3019.73 936.7665710449219)">Requests (% of Total)</text>
		</g>
		<rect x="2918.5" y="347.5" width="1760" height="1043" stroke="#D9D9D9" stroke-width="3.4375" stroke-linejoin="round" stroke-miterlimit="10" fill="none" />
		<g>
			<path d="M3228.5 1038 3250.295918367347 1038 3272.091836734694 1038 3293.887755102041 1038 3315.683673469388 1038 3337.4795918367345 1038 3359.2755102040815 1038 3381.0714285714284 1038 3402.8673469387754 1038 3424.6632653061224 1038 3446.4591836734694 1038 3468.2551020408164 1038 3490.0510204081634 1038 3511.8469387755104 1038 3533.6428571428573 1038 3555.4387755102043 1038 3577.234693877551 1038 3599.030612244898 1038 3620.826530612245 1038 3642.622448979592 1038 3664.418367346939 1038 3686.214285714286 1038 3708.0102040816328 1038 3729.8061224489797 1038 3751.6020408163267 1038 3773.3979591836733 1038 3795.1938775510203 1038 3816.9897959183672 1038 3838.785714285714 1038 3860.581632653061 1038 3882.377551020408 1038 3904.173469387755 1038 3925.969387755102 1038 3947.765306122449 1038 3969.5612244897957 1038 3991.357142857143 1038 4013.1530612244896 1038 4034.9489795918366 1038 4056.7448979591836 1038 4078.5408163265306 1038 4100.336734693878 1038 4122.132653061224 1038 4143.928571428572 1038 4165.724489795918 1038 4187.5204081632655 1038 4209.316326530612 1038 4231.1122448979595 1038 4252.908163265306 1038 4274.7040816326535 1038 4296.5 1038 4296.5 515.125626744456 4274.7040816326535 517.3539587629043 4252.908163265306 517.3728872760798 4231.1122448979595 517.3795154992906 4209.316326530612 517.3746698568546 4187.5204081632655 518.2845849198919 4165.724489795918 518.2786881359634 4143.928571428572 518.6674644160128 4122.132653061224 519.0934355637311 4100.336734693878 520.9052457535156 4078.5408163265306 521.6318852573548 4056.7448979591836 521.6184156458323 4034.9489795918366 522.2681085366032 4013.1530612244896 527.8351358448251 3991.357142857143 527.8182060044346 3969.5612244897957 527.8171189568005 3947.765306122449 527.8195281696414 3925.969387755102 527.7185125063723 3904.173469387755 528.1749639028288 3882.377551020408 526.0738068609967 3860.581632653061 526.0690930129186 3838.785714285714 526.4517905907722 3816.9897959183672 526.966587562726 3795.1938775510203 527.7344479046612 3773.3979591836733 528.0922596265774 3751.6020408163267 528.3637575953018 3729.8061224489797 528.4473950245434 3708.0102040816328 528.3817437118579 3686.214285714286 528.3209049784523 3664.418367346939 528.6035113858115 3642.622448979592 529.0722280244075 3620.826530612245 529.4214956662862 3599.030612244898 529.807429199031 3577.234693877551 533.5058286789898 3555.4387755102043 533.4031264720519 3533.6428571428573 533.4021762961523 3511.8469387755104 533.7756525096236 3490.0510204081634 533.8956466575289 3468.2551020408164 533.9572095457534 3446.4591836734694 533.4841990448925 3424.6632653061224 533.4528010722697 3402.8673469387754 533.722746014736 3381.0714285714284 533.7853664259474 3359.2755102040815 533.8294455926118 3337.4795918367345 533.7499584959044 3315.683673469388 533.5577242345337 3293.887755102041 533.3794235575219 3272.091836734694 533.1839579715512 3250.295918367347 532.7385960569093 3228.5 532.9945218339117 3228.5 1038Z" fill="#e62d39" opacity="0.9" />
		</g>
		<g>
			<path d="M3228.5 532.9945218339117 3250.295918367347 532.7385960569093 3272.091836734694 533.1839579715512 3293.887755102041 533.3794235575219 3315.683673469388 533.5577242345337 3337.4795918367345 533.7499584959044 3359.2755102040815 533.8294455926118 3381.0714285714284 533.7853664259474 3402.8673469387754 533.722746014736 3424.6632653061224 533.4528010722697 3446.4591836734694 533.4841990448925 3468.2551020408164 533.9572095457534 3490.0510204081634 533.8956466575289 3511.8469387755104 533.7756525096236 3533.6428571428573 533.4021762961523 3555.4387755102043 533.4031264720519 3577.234693877551 533.5058286789898 3599.030612244898 529.807429199031 3620.826530612245 529.4214956662862 3642.622448979592 529.0722280244075 3664.418367346939 528.6035113858115 3686.214285714286 528.3209049784523 3708.0102040816328 528.3817437118579 3729.8061224489797 528.4473950245434 3751.6020408163267 528.3637575953018 3773.3979591836733 528.0922596265774 3795.1938775510203 527.7344479046612 3816.9897959183672 526.966587562726 3838.785714285714 526.4517905907722 3860.581632653061 526.0690930129186 3882.377551020408 526.0738068609967 3904.173469387755 528.1749639028288 3925.969387755102 527.7185125063723 3947.765306122449 527.8195281696414 3969.5612244897957 527.8171189568005 3991.357142857143 527.8182060044346 4013.1530612244896 527.8351358448251 4034.9489795918366 522.2681085366032 4056.7448979591836 521.6184156458323 4078.5408163265306 521.6318852573548 4100.336734693878 520.9052457535156 4122.132653061224 519.0934355637311 4143.928571428572 518.6674644160128 4165.724489795918 518.2786881359634 4187.5204081632655 518.2845849198919 4209.316326530612 517.3746698568546 4231.1122448979595 517.3795154992906 4252.908163265306 517.3728872760798 4274.7040816326535 517.3539587629043 4296.5 515.125626744456 4296.5 436.8606414580909 4274.7040816326535 437.9222955771362 4252.908163265306 437.9259398239807 4231.1122448979595 437.9087165382534 4209.316326530612 437.90716134158686 4187.5204081632655 438.3816771158473 4165.724489795918 438.3811488943986 4143.928571428572 438.6583696725575 4122.132653061224 438.939493870515 4100.336734693878 439.76778884064066 4078.5408163265306 440.12172845279287 4056.7448979591836 440.1025942817036 4034.9489795918366 440.43245647629897 4013.1530612244896 446.0049434709254 3991.357142857143 445.99448025532104 3969.5612244897957 445.9906298366525 3947.765306122449 445.9850763388172 3925.969387755102 446.00044835106377 3904.173469387755 445.48995832347725 3882.377551020408 440.7320769519542 3860.581632653061 440.71015435347675 3838.785714285714 440.79849020545294 3816.9897959183672 441.02669160650083 3795.1938775510203 441.4805241599953 3773.3979591836733 441.7146387359797 3751.6020408163267 441.87434560441795 3729.8061224489797 442.00506484989137 3708.0102040816328 442.0536403247141 3686.214285714286 442.1004848135459 3664.418367346939 442.29078701208255 3642.622448979592 442.5177613549289 3620.826530612245 442.75370380577044 3599.030612244898 443.0039649820596 3577.234693877551 447.2266118196212 3555.4387755102043 447.3367564362345 3533.6428571428573 447.478410212555 3511.8469387755104 447.7812344269998 3490.0510204081634 447.9735867247491 3468.2551020408164 448.11744019003095 3446.4591836734694 447.90712750570685 3424.6632653061224 447.65114758474357 3402.8673469387754 447.63691579979616 3381.0714285714284 447.6548818464415 3359.2755102040815 447.68514400974766 3337.4795918367345 447.6730658977694 3315.683673469388 447.6266609249292 3293.887755102041 447.6323779302626 3272.091836734694 447.6574339250563 3250.295918367347 447.5983732210459 3228.5 447.82372841614773 3228.5 532.9945218339117Z" fill="#005aa6" opacity="0.9" />
		</g>
		<g>
			<path d="M3228.5 447.82372841614773 3250.295918367347 447.5983732210459 3272.091836734694 447.6574339250563 3293.887755102041 447.6323779302626 3315.683673469388 447.6266609249292 3337.4795918367345 447.6730658977694 3359.2755102040815 447.68514400974766 3381.0714285714284 447.6548818464415 3402.8673469387754 447.63691579979616 3424.6632653061224 447.65114758474357 3446.4591836734694 447.90712750570685 3468.2551020408164 448.11744019003095 3490.0510204081634 447.9735867247491 3511.8469387755104 447.7812344269998 3533.6428571428573 447.478410212555 3555.4387755102043 447.3367564362345 3577.234693877551 447.2266118196212 3599.030612244898 443.0039649820596 3620.826530612245 442.75370380577044 3642.622448979592 442.5177613549289 3664.418367346939 442.29078701208255 3686.214285714286 442.1004848135459 3708.0102040816328 442.0536403247141 3729.8061224489797 442.00506484989137 3751.6020408163267 441.87434560441795 3773.3979591836733 441.7146387359797 3795.1938775510203 441.4805241599953 3816.9897959183672 441.02669160650083 3838.785714285714 440.79849020545294 3860.581632653061 440.71015435347675 3882.377551020408 440.7320769519542 3904.173469387755 445.48995832347725 3925.969387755102 446.00044835106377 3947.765306122449 445.9850763388172 3969.5612244897957 445.9906298366525 3991.357142857143 445.99448025532104 4013.1530612244896 446.0049434709254 4034.9489795918366 440.43245647629897 4056.7448979591836 440.1025942817036 4078.5408163265306 440.12172845279287 4100.336734693878 439.76778884064066 4122.132653061224 438.939493870515 4143.928571428572 438.6583696725575 4165.724489795918 438.3811488943986 4187.5204081632655 438.3816771158473 4209.316326530612 437.90716134158686 4231.1122448979595 437.9087165382534 4252.908163265306 437.9259398239807 4274.7040816326535 437.9222955771362 4296.5 436.8606414580909 4296.5 422.2371615504225 4274.7040816326535 423.16774393881434 4252.908163265306 423.167665092679 4231.1122448979595 423.14655140370303 4209.316326530612 423.1457070138017 4187.5204081632655 423.56516266700936 4165.724489795918 423.5655214379781 4143.928571428572 423.8109003038261 4122.132653061224 424.0558120196192 4100.336734693878 424.7181344913808 4078.5408163265306 425.0236349944547 4056.7448979591836 425.0035344441698 4034.9489795918366 425.28465904377634 4013.1530612244896 430.8274530925998 3991.357142857143 430.81817356835387 3969.5612244897957 430.8139007331268 3947.765306122449 430.8069864095142 3925.969387755102 430.9020970833825 3904.173469387755 430.23142599790555 3882.377551020408 425.0017650883845 3860.581632653061 424.9767523660499 3838.785714285714 425.0257701995382 3816.9897959183672 425.20583580775155 3795.1938775510203 425.4986687976815 3773.3979591836733 425.6867840212037 3751.6020408163267 425.8119685721377 3729.8061224489797 425.9104888133743 3708.0102040816328 425.92679886960804 3686.214285714286 425.94362826788443 3664.418367346939 426.1140510532148 3642.622448979592 426.3120783472338 3620.826530612245 426.5518003809951 3599.030612244898 426.81320471249694 3577.234693877551 431.1686011749783 3555.4387755102043 431.3401421096995 3533.6428571428573 431.5247092372164 3511.8469387755104 431.81676347027957 3490.0510204081634 431.99440912392726 3468.2551020408164 432.1329946808099 3446.4591836734694 432.00359297169024 3424.6632653061224 431.84731630596053 3402.8673469387754 431.8659139096981 3381.0714285714284 431.93242137634724 3359.2755102040815 431.9599475077045 3337.4795918367345 431.9558731937295 3315.683673469388 431.9405589448202 3293.887755102041 431.96727576259724 3272.091836734694 432.02029212049626 3250.295918367347 431.97528739378606 3228.5 432.15561530771527 3228.5 447.82372841614773Z" fill="#55c0e9" opacity="0.9" />
		</g>
		<g>
			<path d="M3228.5 432.15561530771527 3250.295918367347 431.97528739378606 3272.091836734694 432.02029212049626 3293.887755102041 431.96727576259724 3315.683673469388 431.9405589448202 3337.4795918367345 431.9558731937295 3359.2755102040815 431.9599475077045 3381.0714285714284 431.93242137634724 3402.8673469387754 431.8659139096981 3424.6632653061224 431.84731630596053 3446.4591836734694 432.00359297169024 3468.2551020408164 432.1329946808099 3490.0510204081634 431.99440912392726 3511.8469387755104 431.81676347027957 3533.6428571428573 431.5247092372164 3555.4387755102043 431.3401421096995 3577.234693877551 431.1686011749783 3599.030612244898 426.81320471249694 3620.826530612245 426.5518003809951 3642.622448979592 426.3120783472338 3664.418367346939 426.1140510532148 3686.214285714286 425.94362826788443 3708.0102040816328 425.92679886960804 3729.8061224489797 425.9104888133743 3751.6020408163267 425.8119685721377 3773.3979591836733 425.6867840212037 3795.1938775510203 425.4986687976815 3816.9897959183672 425.20583580775155 3838.785714285714 425.0257701995382 3860.581632653061 424.9767523660499 3882.377551020408 425.0017650883845 3904.173469387755 430.23142599790555 3925.969387755102 430.9020970833825 3947.765306122449 430.8069864095142 3969.5612244897957 430.8139007331268 3991.357142857143 430.81817356835387 4013.1530612244896 430.8274530925998 4034.9489795918366 425.28465904377634 4056.7448979591836 425.0035344441698 4078.5408163265306 425.0236349944547 4100.336734693878 424.7181344913808 4122.132653061224 424.0558120196192 4143.928571428572 423.8109003038261 4165.724489795918 423.5655214379781 4187.5204081632655 423.56516266700936 4209.316326530612 423.1457070138017 4231.1122448979595 423.14655140370303 4252.908163265306 423.167665092679 4274.7040816326535 423.16774393881434 4296.5 422.2371615504225 4296.5 410.02158135972263 4274.7040816326535 410.3831921847201 4252.908163265306 410.3816258742522 4231.1122448979595 410.3693732840644 4209.316326530612 410.36817686183286 4187.5204081632655 410.49749865569987 4165.724489795918 410.49874026393246 4143.928571428572 410.5976679252191 4122.132653061224 410.7016436985356 4100.336734693878 410.9789161674267 4078.5408163265306 411.1035757536376 4056.7448979591836 411.0839891917173 4034.9489795918366 411.22347657579 4013.1530612244896 416.32051328878225 3991.357142857143 416.3159617889731 3969.5612244897957 416.31921689377526 3947.765306122449 416.31736632943614 3925.969387755102 416.3210682719641 3904.173469387755 415.85243189703715 3882.377551020408 410.86025631578275 3860.581632653061 410.8513168557256 3838.785714285714 410.8010080993925 3816.9897959183672 410.8532595598375 3795.1938775510203 410.9689719408518 3773.3979591836733 411.04822058755076 3751.6020408163267 411.09796238059005 3729.8061224489797 411.13309600464333 3708.0102040816328 411.08525540240214 3686.214285714286 411.0502804931489 3664.418367346939 411.15507042479464 3642.622448979592 411.2715831935364 3620.826530612245 411.39453051492376 3599.030612244898 411.52533019336687 3577.234693877551 415.89173436048446 3555.4387755102043 415.95861191477786 3533.6428571428573 416.055066900616 3511.8469387755104 416.2345639289736 3490.0510204081634 416.4071449754411 3468.2551020408164 416.47817812627426 3446.4591836734694 416.34836086389726 3424.6632653061224 416.1564242259188 3402.8673469387754 416.1235996870702 3381.0714285714284 416.0562889706207 3359.2755102040815 416.0954395000898 3337.4795918367345 416.0465069983401 3315.683673469388 416.000160121671 3293.887755102041 416.0062420628137 3272.091836734694 416.05161909433286 3250.295918367347 415.99893833884835 3228.5 416.12431960001913 3228.5 432.15561530771527Z" fill="#f6a118" opacity="0.9" />
		</g>
		<g>
			<path d="M3228.5 416.12431960001913 3250.295918367347 415.99893833884835 3272.091836734694 416.05161909433286 3293.887755102041 416.0062420628137 3315.683673469388 416.000160121671 3337.4795918367345 416.0465069983401 3359.2755102040815 416.0954395000898 3381.0714285714284 416.0562889706207 3402.8673469387754 416.1235996870702 3424.6632653061224 416.1564242259188 3446.4591836734694 416.34836086389726 3468.2551020408164 416.47817812627426 3490.0510204081634 416.4071449754411 3511.8469387755104 416.2345639289736 3533.6428571428573 416.055066900616 3555.4387755102043 415.95861191477786 3577.234693877551 415.89173436048446 3599.030612244898 411.52533019336687 3620.826530612245 411.39453051492376 3642.622448979592 411.2715831935364 3664.418367346939 411.15507042479464 3686.214285714286 411.0502804931489 3708.0102040816328 411.08525540240214 3729.8061224489797 411.13309600464333 3751.6020408163267 411.09796238059005 3773.3979591836733 411.04822058755076 3795.1938775510203 410.9689719408518 3816.9897959183672 410.8532595598375 3838.785714285714 410.8010080993925 3860.581632653061 410.8513168557256 3882.377551020408 410.86025631578275 3904.173469387755 415.85243189703715 3925.969387755102 416.3210682719641 3947.765306122449 416.31736632943614 3969.5612244897957 416.31921689377526 3991.357142857143 416.3159617889731 4013.1530612244896 416.32051328878225 4034.9489795918366 411.22347657579 4056.7448979591836 411.0839891917173 4078.5408163265306 411.1035757536376 4100.336734693878 410.9789161674267 4122.132653061224 410.7016436985356 4143.928571428572 410.5976679252191 4165.724489795918 410.49874026393246 4187.5204081632655 410.49749865569987 4209.316326530612 410.36817686183286 4231.1122448979595 410.3693732840644 4252.908163265306 410.3816258742522 4274.7040816326535 410.3831921847201 4296.5 410.02158135972263 4296.5 403.0276937585125 4274.7040816326535 402.88697047759695 4252.908163265306 402.8853442705775 4231.1122448979595 402.8987404525652 4209.316326530612 402.9002345633593 4187.5204081632655 402.80439160515203 4165.724489795918 402.8071737793706 4143.928571428572 402.7885058788081 4122.132653061224 402.75682438501997 4100.336734693878 402.64364301985916 4078.5408163265306 402.6213127942401 4056.7448979591836 402.6374941256268 4034.9489795918366 402.6382934643876 4013.1530612244896 407.18303418872716 3991.357142857143 407.1809148990988 3969.5612244897957 407.1872998554764 3947.765306122449 407.1917111103271 3925.969387755102 407.1621562125779 3904.173469387755 406.9309868112197 3882.377551020408 402.3499262788061 3860.581632653061 402.3497550933614 3838.785714285714 402.31710391583925 3816.9897959183672 402.31377839166817 3795.1938775510203 402.32705082967294 3773.3979591836733 402.3105155472352 3751.6020408163267 402.3328782432905 3729.8061224489797 402.29313148871324 3708.0102040816328 402.27347913416367 3686.214285714286 402.24951221526595 3664.418367346939 402.264400535425 3642.622448979592 402.2771754039698 3620.826530612245 402.3026796088189 3599.030612244898 402.31237144781545 3577.234693877551 406.6903311154683 3555.4387755102043 406.6504534424193 3533.6428571428573 406.63653513437157 3511.8469387755104 406.73881659701254 3490.0510204081634 406.7913155812626 3468.2551020408164 406.7895314471883 3446.4591836734694 406.7538978821639 3424.6632653061224 406.6419996355151 3402.8673469387754 406.66475151485594 3381.0714285714284 406.64954838762975 3359.2755102040815 406.6900606081659 3337.4795918367345 406.67423043388266 3315.683673469388 406.6442240275461 3293.887755102041 406.6769627823681 3272.091836734694 406.7486576922467 3250.295918367347 406.88204596503937 3228.5 407.2984950463532 3228.5 416.12431960001913Z" fill="#fdd5a4" opacity="0.9" />
		</g>
		<g>
			<path d="M3228.5 407.2984950463532 3250.295918367347 406.88204596503937 3272.091836734694 406.7486576922467 3293.887755102041 406.6769627823681 3315.683673469388 406.6442240275461 3337.4795918367345 406.67423043388266 3359.2755102040815 406.6900606081659 3381.0714285714284 406.64954838762975 3402.8673469387754 406.66475151485594 3424.6632653061224 406.6419996355151 3446.4591836734694 406.7538978821639 3468.2551020408164 406.7895314471883 3490.0510204081634 406.7913155812626 3511.8469387755104 406.73881659701254 3533.6428571428573 406.63653513437157 3555.4387755102043 406.6504534424193 3577.234693877551 406.6903311154683 3599.030612244898 402.31237144781545 3620.826530612245 402.3026796088189 3642.622448979592 402.2771754039698 3664.418367346939 402.264400535425 3686.214285714286 402.24951221526595 3708.0102040816328 402.27347913416367 3729.8061224489797 402.29313148871324 3751.6020408163267 402.3328782432905 3773.3979591836733 402.3105155472352 3795.1938775510203 402.32705082967294 3816.9897959183672 402.31377839166817 3838.785714285714 402.31710391583925 3860.581632653061 402.3497550933614 3882.377551020408 402.3499262788061 3904.173469387755 406.9309868112197 3925.969387755102 407.1621562125779 3947.765306122449 407.1917111103271 3969.5612244897957 407.1872998554764 3991.357142857143 407.1809148990988 4013.1530612244896 407.18303418872716 4034.9489795918366 402.6382934643876 4056.7448979591836 402.6374941256268 4078.5408163265306 402.6213127942401 4100.336734693878 402.64364301985916 4122.132653061224 402.75682438501997 4143.928571428572 402.7885058788081 4165.724489795918 402.8071737793706 4187.5204081632655 402.80439160515203 4209.316326530612 402.9002345633593 4231.1122448979595 402.8987404525652 4252.908163265306 402.8853442705775 4274.7040816326535 402.88697047759695 4296.5 403.0276937585125 4296.5 398 4274.7040816326535 397.9999999999999 4252.908163265306 398.00000000000006 4231.1122448979595 398.0000000000001 4209.316326530612 398.00000000000006 4187.5204081632655 398 4165.724489795918 397.99999999999994 4143.928571428572 398 4122.132653061224 398 4100.336734693878 398 4078.5408163265306 397.99999999999994 4056.7448979591836 398.00000000000006 4034.9489795918366 397.99999999999994 4013.1530612244896 397.9999999999999 3991.357142857143 398.0000000000001 3969.5612244897957 397.99999999999994 3947.765306122449 398 3925.969387755102 398 3904.173469387755 398 3882.377551020408 398 3860.581632653061 398 3838.785714285714 398.00000000000006 3816.9897959183672 398 3795.1938775510203 398.0000000000001 3773.3979591836733 398.0000000000001 3751.6020408163267 398 3729.8061224489797 398 3708.0102040816328 398.00000000000006 3686.214285714286 398.0000000000001 3664.418367346939 398 3642.622448979592 397.99999999999994 3620.826530612245 398 3599.030612244898 397.99999999999994 3577.234693877551 398 3555.4387755102043 398 3533.6428571428573 398 3511.8469387755104 398.0000000000001 3490.0510204081634 398.00000000000006 3468.2551020408164 398 3446.4591836734694 398 3424.6632653061224 398 3402.8673469387754 398 3381.0714285714284 397.99999999999994 3359.2755102040815 398 3337.4795918367345 398.0000000000001 3315.683673469388 398.00000000000006 3293.887755102041 398 3272.091836734694 397.9999999999999 3250.295918367347 398 3228.5 397.99999999999994 3228.5 407.2984950463532Z" fill="#393d41" opacity="0.9" />
		</g>
		<g>
			<rect x="4372" y="431" width="22.9995" height="23" fill="#e62d39" />
		</g>
		<g>
			<text fill="#595959" font-family="Verdana,Open Sans,DejaVu Sans,sans-serif" font-weight="400" font-size="41" transform="matrix(1 0 0 1 4404.56 454)">Smartphone</text>
		</g>
		<g>
			<rect x="4372" y="508" width="22.9995" height="23" fill="#005aa6" />
		</g>
		<g>
			<text fill="#595959" font-family="Verdana,Open Sans,DejaVu Sans,sans-serif" font-weight="400" font-size="41" transform="matrix(1 0 0 1 4404.56 531)">Desktop</text>
		</g>
		<g>
			<rect x="4372" y="585" width="22.9995" height="23" fill="#55c0e9" />
		</g>
		<g>
			<text fill="#595959" font-family="Verdana,Open Sans,DejaVu Sans,sans-serif" font-weight="400" font-size="41" transform="matrix(1 0 0 1 4404.56 608)">Other</text>
		</g>
		<g>
			<rect x="4372" y="662" width="22.9995" height="23" fill="#f6a118" />
		</g>
		<g>
			<text fill="#595959" font-family="Verdana,Open Sans,DejaVu Sans,sans-serif" font-weight="400" font-size="41" transform="matrix(1 0 0 1 4404.56 685)">Tablet</text>
		</g>
		<g>
			<rect x="4372" y="739" width="22.9995" height="23" fill="#fdd5a4" />
		</g>
		<g>
			<text fill="#595959" font-family="Verdana,Open Sans,DejaVu Sans,sans-serif" font-weight="400" font-size="41" transform="matrix(1 0 0 1 4404.56 762)">Tv</text>
		</g>
		<g>
			<rect x="4372" y="816" width="22.9995" height="23" fill="#393d41" />
		</g>
		<g>
			<text fill="#595959" font-family="Verdana,Open Sans,DejaVu Sans,sans-serif" font-weight="400" font-size="41" transform="matrix(1 0 0 1 4404.56 839)">Unclassified</text>
		</g>
	</g>
</svg>
