<svg width="1763" height="1046"
    xmlns="http://www.w3.org/2000/svg"
	xmlns:xlink="http://www.w3.org/1999/xlink" xml:space="preserve" overflow="hidden">
	<defs>
		<clipPath id="clip0">
			<rect x="2917" y="346" width="1763" height="1046"/>
		</clipPath>
	</defs>
	<g clip-path="url(#clip0)" transform="translate(-2917 -346)">
		<rect x="2918" y="347" width="1760" height="1043" fill="#FFFFFF" />
		<g>
			<path d="
			M3228.5 974.532 4296.5 974.532
			M3228.5 910.53 4296.5 910.53
			M3228.5 846.528 4296.5 846.528
			M3228.5 781.526 4296.5 781.526
			M3228.5 717.524 4296.5 717.524
			M3228.5 653.522 4296.5 653.522
			M3228.5 589.52 4296.5 589.52
			M3228.5 525.517 4296.5 525.517
			M3228.5 461.515 4296.5 461.515
			M3228.5 397.5 4296.5 397.5" stroke="#D9D9D9" stroke-width="3.4375" stroke-linejoin="round" stroke-miterlimit="10" fill="none" />
		</g>
		<g>
			<path d="M 1038.5 4296.5 1038.5" stroke="#D9D9D9" stroke-width="3.4375" stroke-linejoin="round" stroke-miterlimit="10" fill="none" fill-rule="evenodd" />
		</g>
		<g>
			<text fill="#595959" font-family="Verdana,Open Sans,DejaVu Sans,sans-serif" font-weight="400" font-size="41" transform="matrix(6.12323e-17 -1 1 6.12323e-17 3247.21826171875 1194.1733322143555)">30-Jun</text>
		</g>
		<g>
			<text fill="#595959" font-family="Verdana,Open Sans,DejaVu Sans,sans-serif" font-weight="400" font-size="41" transform="matrix(6.12323e-17 -1 1 6.12323e-17 3330.082801231971 1179.0385665893555)">28-Jul</text>
		</g>
		<g>
			<text fill="#595959" font-family="Verdana,Open Sans,DejaVu Sans,sans-serif" font-weight="400" font-size="41" transform="matrix(6.12323e-17 -1 1 6.12323e-17 3412.5769794170674 1208.66748046875)">25-Aug</text>
		</g>
		<g>
			<text fill="#595959" font-family="Verdana,Open Sans,DejaVu Sans,sans-serif" font-weight="400" font-size="41" transform="matrix(6.12323e-17 -1 1 6.12323e-17 3494.7308255709136 1204.42333984375)">22-Sep</text>
		</g>
		<g>
			<text fill="#595959" font-family="Verdana,Open Sans,DejaVu Sans,sans-serif" font-weight="400" font-size="41" transform="matrix(6.12323e-17 -1 1 6.12323e-17 3572.1800818810098 1201.1401290893555)">20-Oct</text>
		</g>
		<g>
			<text fill="#595959" font-family="Verdana,Open Sans,DejaVu Sans,sans-serif" font-weight="400" font-size="41" transform="matrix(6.12323e-17 -1 1 6.12323e-17 3654.103703425481 1209.70849609375)">17-Nov</text>
		</g>
		<g>
			<text fill="#595959" font-family="Verdana,Open Sans,DejaVu Sans,sans-serif" font-weight="400" font-size="41" transform="matrix(6.12323e-17 -1 1 6.12323e-17 3736.257549579327 1205.3642578125)">15-Dec</text>
		</g>
		<g>
			<text fill="#595959" font-family="Verdana,Open Sans,DejaVu Sans,sans-serif" font-weight="400" font-size="41" transform="matrix(6.12323e-17 -1 1 6.12323e-17 3822.275165264423 1189.9291915893555)">12-Jan</text>
		</g>
		<g>
			<text fill="#595959" font-family="Verdana,Open Sans,DejaVu Sans,sans-serif" font-weight="400" font-size="41" transform="matrix(6.12323e-17 -1 1 6.12323e-17 3901.5061598557695 1203.0419921875)">09-Feb</text>
		</g>
		<g>
			<text fill="#595959" font-family="Verdana,Open Sans,DejaVu Sans,sans-serif" font-weight="400" font-size="41" transform="matrix(6.12323e-17 -1 1 6.12323e-17 3982.9493126502402 1212.0107421875)">09-Mar</text>
		</g>
		<g>
			<text fill="#595959" font-family="Verdana,Open Sans,DejaVu Sans,sans-serif" font-weight="400" font-size="41" transform="matrix(6.12323e-17 -1 1 6.12323e-17 4069.827768179087 1203.2621994018555)">06-Apr</text>
		</g>
		<g>
			<text fill="#595959" font-family="Verdana,Open Sans,DejaVu Sans,sans-serif" font-weight="400" font-size="41" transform="matrix(6.12323e-17 -1 1 6.12323e-17 4151.981614332933 1216.47509765625)">04-May</text>
		</g>
		<g>
			<text fill="#595959" font-family="Verdana,Open Sans,DejaVu Sans,sans-serif" font-weight="400" font-size="41" transform="matrix(6.12323e-17 -1 1 6.12323e-17 4233.064415564904 1194.0131759643555)">01-Jun</text>
		</g>
		<g>
			<text fill="#595959" font-family="Verdana,Open Sans,DejaVu Sans,sans-serif" font-weight="400" font-size="41" transform="matrix(6.12323e-17 -1 1 6.12323e-17 4315.1982421875 1194.0532150268555)">29-Jun</text>
		</g>
		<g>
			<text fill="#595959" font-family="Verdana,Open Sans,DejaVu Sans,sans-serif" font-weight="400" font-size="41" transform="matrix(1 0 0 1 3169.14111328125 1050)">0</text>
		</g>
		<g>
			<text fill="#595959" font-family="Verdana,Open Sans,DejaVu Sans,sans-serif" font-weight="400" font-size="41" transform="matrix(1 0 0 1 3067.0014724731445 922)">18,926</text>
		</g>
		<g>
			<text fill="#595959" font-family="Verdana,Open Sans,DejaVu Sans,sans-serif" font-weight="400" font-size="41" transform="matrix(1 0 0 1 3065.3198318481445 794)">37,852</text>
		</g>
		<g>
			<text fill="#595959" font-family="Verdana,Open Sans,DejaVu Sans,sans-serif" font-weight="400" font-size="41" transform="matrix(1 0 0 1 3066.1005935668945 666)">56,779</text>
		</g>
		<g>
			<text fill="#595959" font-family="Verdana,Open Sans,DejaVu Sans,sans-serif" font-weight="400" font-size="41" transform="matrix(1 0 0 1 3065.4799880981445 538)">75,705</text>
		</g>
		<g>
			<text fill="#595959" font-family="Verdana,Open Sans,DejaVu Sans,sans-serif" font-weight="400" font-size="41" transform="matrix(1 0 0 1 3072.4868240356445 410)">94,631</text>
		</g>
		<g>
			<text fill="#595959" font-family="Verdana,Open Sans,DejaVu Sans,sans-serif" font-weight="400" font-size="41" transform="matrix(1 0 0 1 3556.97119140625 1321)">Week Commencing</text>
		</g>
		<g>
			<text fill="#595959" font-family="Verdana,Open Sans,DejaVu Sans,sans-serif" font-weight="400" font-size="46" transform="matrix(6.12323e-17 -1 1 6.12323e-17 3019.73 1028.5532531738281)">Number of Hardware Profiles</text>
		</g>
		<rect x="2918.5" y="347.5" width="1760" height="1043" stroke="#D9D9D9" stroke-width="3.4375" stroke-linejoin="round" stroke-miterlimit="10" fill="none" />
		<g>
			<path d="M3228.5 1038 3249.0384615384614 1038 3269.576923076923 1038 3290.1153846153848 1038 3310.653846153846 1038 3331.1923076923076 1038 3351.730769230769 1038 3372.269230769231 1038 3392.8076923076924 1038 3413.346153846154 1038 3433.8846153846152 1038 3454.423076923077 1038 3474.9615384615386 1038 3495.5 1038 3516.0384615384614 1038 3536.576923076923 1038 3557.1153846153848 1038 3577.653846153846 1038 3598.1923076923076 1038 3618.7307692307695 1038 3639.269230769231 1038 3659.8076923076924 1038 3680.346153846154 1038 3700.8846153846152 1038 3721.423076923077 1038 3741.9615384615386 1038 3762.5 1038 3783.0384615384614 1038 3803.576923076923 1038 3824.1153846153848 1038 3844.653846153846 1038 3865.1923076923076 1038 3885.7307692307695 1038 3906.269230769231 1038 3926.8076923076924 1038 3947.346153846154 1038 3967.8846153846152 1038 3988.423076923077 1038 4008.9615384615386 1038 4029.5 1038 4050.038461538462 1038 4070.576923076923 1038 4091.1153846153848 1038 4111.653846153846 1038 4132.192307692308 1038 4152.7307692307695 1038 4173.2692307692305 1038 4193.807692307692 1038 4214.346153846154 1038 4234.884615384615 1038 4255.423076923077 1038 4275.961538461539 1038 4296.5 1038 4296.5 693.5412074267417 4275.961538461539 693.865836776532 4255.423076923077 694.0890194545127 4234.884615384615 694.231044795046 4214.346153846154 694.3933594699411 4193.807692307692 694.6097790364679 4173.2692307692305 694.8870666060805 4152.7307692307695 695.0629075038835 4132.192307692308 695.2184590673246 4111.653846153846 695.5971933087466 4091.1153846153848 695.888007101267 4070.576923076923 696.1450053365177 4050.038461538462 696.3140831228667 4029.5 696.5305026893935 4008.9615384615386 696.8889475964536 3988.423076923077 697.3082605065993 3967.8846153846152 697.5787849647579 3947.346153846154 697.7884414198306 3926.8076923076924 698.0386765436274 3906.269230769231 698.3092010017858 3885.7307692307695 698.457989453773 3865.1923076923076 698.7082245775697 3844.653846153846 698.9314072555505 3824.1153846153848 699.3169046084264 3803.576923076923 699.5739028436769 3783.0384615384614 699.8782428591053 3762.5 699.9796895309148 3741.9615384615386 700.1014255370861 3721.423076923077 700.317845103613 3700.8846153846152 700.5748433388635 3680.346153846154 700.7777366824824 3659.8076923076924 700.9806300261014 3639.269230769231 701.1767602582663 3618.7307692307695 701.3526011560693 3598.1923076923076 701.5284420538724 3577.653846153846 701.785440289123 3557.1153846153848 702.0762540816434 3536.576923076923 702.3061998710782 3516.0384615384614 702.5564349948747 3495.5 702.887827456119 3474.9615384615386 703.2868510319029 3454.423076923077 703.6385328275089 3433.8846153846152 703.9496359543912 3413.346153846154 704.2539759698195 3392.8076923076924 704.4501062019845 3372.269230769231 704.7679724403208 3351.730769230769 705.0317337870254 3331.1923076923076 705.3428369139076 3310.653846153846 705.7283342667836 3290.1153846153848 706.01238494785 3269.576923076923 706.2761462945546 3249.0384615384614 706.6007756443448 3228.5 706.9118787712272 3228.5 1038Z" fill="#e62d39" opacity="0.9" />
		</g>
		<g>
			<path d="M3228.5 706.9118787712272 3249.0384615384614 706.6007756443448 3269.576923076923 706.2761462945546 3290.1153846153848 706.01238494785 3310.653846153846 705.7283342667836 3331.1923076923076 705.3428369139076 3351.730769230769 705.0317337870254 3372.269230769231 704.7679724403208 3392.8076923076924 704.4501062019845 3413.346153846154 704.2539759698195 3433.8846153846152 703.9496359543912 3454.423076923077 703.6385328275089 3474.9615384615386 703.2868510319029 3495.5 702.887827456119 3516.0384615384614 702.5564349948747 3536.576923076923 702.3061998710782 3557.1153846153848 702.0762540816434 3577.653846153846 701.785440289123 3598.1923076923076 701.5284420538724 3618.7307692307695 701.3526011560693 3639.269230769231 701.1767602582663 3659.8076923076924 700.9806300261014 3680.346153846154 700.7777366824824 3700.8846153846152 700.5748433388635 3721.423076923077 700.317845103613 3741.9615384615386 700.1014255370861 3762.5 699.9796895309148 3783.0384615384614 699.8782428591053 3803.576923076923 699.5739028436769 3824.1153846153848 699.3169046084264 3844.653846153846 698.9314072555505 3865.1923076923076 698.7082245775697 3885.7307692307695 698.457989453773 3906.269230769231 698.3092010017858 3926.8076923076924 698.0386765436274 3947.346153846154 697.7884414198306 3967.8846153846152 697.5787849647579 3988.423076923077 697.3082605065993 4008.9615384615386 696.8889475964536 4029.5 696.5305026893935 4050.038461538462 696.3140831228667 4070.576923076923 696.1450053365177 4091.1153846153848 695.888007101267 4111.653846153846 695.5971933087466 4132.192307692308 695.2184590673246 4152.7307692307695 695.0629075038835 4173.2692307692305 694.8870666060805 4193.807692307692 694.6097790364679 4214.346153846154 694.3933594699411 4234.884615384615 694.231044795046 4255.423076923077 694.0890194545127 4275.961538461539 693.865836776532 4296.5 693.5412074267417 4296.5 529.9077257980999 4275.961538461539 530.3540911540615 4255.423076923077 530.6584311694899 4234.884615384615 530.9086662932866 4214.346153846154 531.1521383056291 4193.807692307692 531.4361889866956 4173.2692307692305 531.9028436770192 4152.7307692307695 532.1666050237237 4132.192307692308 532.4438925933362 4111.653846153846 532.8767317263898 4091.1153846153848 533.2351766334499 4070.576923076923 533.5530428717863 4050.038461538462 533.7626993268591 4029.5 533.9994082277477 4008.9615384615386 534.4254842493474 3988.423076923077 534.8583233824011 3967.8846153846152 535.1626633978295 3947.346153846154 535.4331878559879 3926.8076923076924 535.7375278714164 3906.269230769231 536.0553941097526 3885.7307692307695 536.2447612304636 3865.1923076923076 536.5558643573459 3844.653846153846 536.8534412613203 3824.1153846153848 537.3809639547294 3803.576923076923 537.7055933045195 3783.0384615384614 538.1519586604811 3762.5 538.3277995582843 3741.9615384615386 538.4698248988175 3721.423076923077 538.7606386913379 3700.8846153846152 539.1258467098519 3680.346153846154 539.4031342794644 3659.8076923076924 539.6871849605309 3639.269230769231 539.9509463072354 3618.7307692307695 540.2349969883019 3598.1923076923076 540.5325738922763 3577.653846153846 540.9383605795141 3557.1153846153848 541.3644366011138 3536.576923076923 541.7702232883516 3516.0384615384614 542.1692468641353 3495.5 542.6697171117287 3474.9615384615386 543.1904766936839 3454.423076923077 543.6436051610995 3433.8846153846152 544.0832074056069 3413.346153846154 544.4889940928447 3392.8076923076924 544.7121767708255 3372.269230769231 545.0909110122475 3351.730769230769 545.5034608109393 3331.1923076923076 545.9904048356245 3310.653846153846 546.5449799748496 3290.1153846153848 546.9575297735414 3269.576923076923 547.4580000211347 3249.0384615384614 547.9178916000042 3228.5 548.4048356246896 3228.5 706.9118787712272Z" fill="#f6a118" opacity="0.9" />
		</g>
		<g>
			<path d="M3228.5 548.4048356246896 3249.0384615384614 547.9178916000042 3269.576923076923 547.4580000211347 3290.1153846153848 546.9575297735414 3310.653846153846 546.5449799748496 3331.1923076923076 545.9904048356245 3351.730769230769 545.5034608109393 3372.269230769231 545.0909110122475 3392.8076923076924 544.7121767708255 3413.346153846154 544.4889940928447 3433.8846153846152 544.0832074056069 3454.423076923077 543.6436051610995 3474.9615384615386 543.1904766936839 3495.5 542.6697171117287 3516.0384615384614 542.1692468641353 3536.576923076923 541.7702232883516 3557.1153846153848 541.3644366011138 3577.653846153846 540.9383605795141 3598.1923076923076 540.5325738922763 3618.7307692307695 540.2349969883019 3639.269230769231 539.9509463072354 3659.8076923076924 539.6871849605309 3680.346153846154 539.4031342794644 3700.8846153846152 539.1258467098519 3721.423076923077 538.7606386913379 3741.9615384615386 538.4698248988175 3762.5 538.3277995582843 3783.0384615384614 538.1519586604811 3803.576923076923 537.7055933045195 3824.1153846153848 537.3809639547294 3844.653846153846 536.8534412613203 3865.1923076923076 536.5558643573459 3885.7307692307695 536.2447612304636 3906.269230769231 536.0553941097526 3926.8076923076924 535.7375278714164 3947.346153846154 535.4331878559879 3967.8846153846152 535.1626633978295 3988.423076923077 534.8583233824011 4008.9615384615386 534.4254842493474 4029.5 533.9994082277477 4050.038461538462 533.7626993268591 4070.576923076923 533.5530428717863 4091.1153846153848 533.2351766334499 4111.653846153846 532.8767317263898 4132.192307692308 532.4438925933362 4152.7307692307695 532.1666050237237 4173.2692307692305 531.9028436770192 4193.807692307692 531.4361889866956 4214.346153846154 531.1521383056291 4234.884615384615 530.9086662932866 4255.423076923077 530.6584311694899 4275.961538461539 530.3540911540615 4296.5 529.9077257980999 4296.5 455.95310204901136 4275.961538461539 456.45357229660465 4255.423076923077 456.7782016463949 4234.884615384615 457.06225232746147 4214.346153846154 457.3192505627119 4193.807692307692 457.61006435523234 4173.2692307692305 458.0970083799178 4152.7307692307695 458.4081115068001 4132.192307692308 458.6921621878665 4111.653846153846 459.152053766736 4091.1153846153848 459.524024896704 4070.576923076923 459.86894358085624 4050.038461538462 460.07860003592907 4029.5 460.32207204827165 4008.9615384615386 460.7616742927793 3988.423076923077 461.19451342583295 3967.8846153846152 461.4988534412614 3947.346153846154 461.76937789941974 3926.8076923076924 462.0872441377562 3906.269230769231 462.41863659900025 3885.7307692307695 462.62152994261925 3865.1923076923076 462.9326330695015 3844.653846153846 463.25049930783786 3824.1153846153848 463.81183755851674 3803.576923076923 464.14323001976084 3783.0384615384614 464.6031215986303 3762.5 464.78572560788746 3741.9615384615386 464.9277509484207 3721.423076923077 465.2591434096649 3700.8846153846152 465.6716932083566 3680.346153846154 466.00308566960086 3659.8076923076924 466.3074256850292 3639.269230769231 466.5779501431877 3618.7307692307695 466.89581638152396 3598.1923076923076 467.2407350656762 3577.653846153846 467.74796842472335 3557.1153846153848 468.2213862265008 3536.576923076923 468.6745146939164 3516.0384615384614 469.12088004987777 3495.5 469.7363231921886 3474.9615384615386 470.29766144286754 3454.423076923077 470.777842356099 3433.8846153846152 471.25802326933024 3413.346153846154 471.6773361794759 3392.8076923076924 471.9275713032726 3372.269230769231 472.3604104363263 3351.730769230769 472.8541175724656 3331.1923076923076 473.36811404296674 3310.653846153846 473.9429785165537 3290.1153846153848 474.3690545381534 3269.576923076923 474.9033403430165 3249.0384615384614 475.4038105906098 3228.5 475.9042808382031 3228.5 548.4048356246896Z" fill="#55c0e9" opacity="0.9" />
		</g>
		<g>
			<path d="M3228.5 475.9042808382031 3249.0384615384614 475.4038105906098 3269.576923076923 474.9033403430165 3290.1153846153848 474.3690545381534 3310.653846153846 473.9429785165537 3331.1923076923076 473.36811404296674 3351.730769230769 472.8541175724656 3372.269230769231 472.3604104363263 3392.8076923076924 471.9275713032726 3413.346153846154 471.6773361794759 3433.8846153846152 471.25802326933024 3454.423076923077 470.777842356099 3474.9615384615386 470.29766144286754 3495.5 469.7363231921886 3516.0384615384614 469.12088004987777 3536.576923076923 468.6745146939164 3557.1153846153848 468.2213862265008 3577.653846153846 467.74796842472335 3598.1923076923076 467.2407350656762 3618.7307692307695 466.89581638152396 3639.269230769231 466.5779501431877 3659.8076923076924 466.3074256850292 3680.346153846154 466.00308566960086 3700.8846153846152 465.6716932083566 3721.423076923077 465.2591434096649 3741.9615384615386 464.9277509484207 3762.5 464.78572560788746 3783.0384615384614 464.6031215986303 3803.576923076923 464.14323001976084 3824.1153846153848 463.81183755851674 3844.653846153846 463.25049930783786 3865.1923076923076 462.9326330695015 3885.7307692307695 462.62152994261925 3906.269230769231 462.41863659900025 3926.8076923076924 462.0872441377562 3947.346153846154 461.76937789941974 3967.8846153846152 461.4988534412614 3988.423076923077 461.19451342583295 4008.9615384615386 460.7616742927793 4029.5 460.32207204827165 4050.038461538462 460.07860003592907 4070.576923076923 459.86894358085624 4091.1153846153848 459.524024896704 4111.653846153846 459.152053766736 4132.192307692308 458.6921621878665 4152.7307692307695 458.4081115068001 4173.2692307692305 458.0970083799178 4193.807692307692 457.61006435523234 4214.346153846154 457.3192505627119 4234.884615384615 457.06225232746147 4255.423076923077 456.7782016463949 4275.961538461539 456.45357229660465 4296.5 455.95310204901136 4296.5 399.27146495334506 4275.961538461539 399.9815916560112 4255.423076923077 400.48206190360446 4234.884615384615 400.8675592564805 4214.346153846154 401.32068772389584 4193.807692307692 401.71294818822577 4173.2692307692305 402.3824962221682 4152.7307692307695 402.8423878010377 4132.192307692308 403.30227937990713 4111.653846153846 403.9921167482114 4091.1153846153848 404.71576967378553 4070.576923076923 405.2771079244646 4050.038461538462 405.73023639188006 4029.5 406.14278619057177 4008.9615384615386 406.6297302152571 3988.423076923077 407.3128044721074 3967.8846153846152 407.779459162431 3947.346153846154 408.1649565153067 3926.8076923076924 408.78716276907153 3906.269230769231 409.4567108030137 3885.7307692307695 409.9368917162452 3865.1923076923076 410.5929135272796 3844.653846153846 411.0460419946952 3824.1153846153848 411.7764580317232 3803.576923076923 412.2363496105926 3783.0384615384614 412.8179771956334 3762.5 413.06144920797624 3741.9615384615386 413.2643425515951 3721.423076923077 413.70394479610275 3700.8846153846152 414.2179412666039 3680.346153846154 414.60343861947985 3659.8076923076924 415.04304086398747 3639.269230769231 415.43530132831734 3618.7307692307695 415.86814046137096 3598.1923076923076 416.36184759751035 3577.653846153846 417.0043431856368 3557.1153846153848 417.49805032177613 3536.576923076923 418.1405459099027 3516.0384615384614 418.7424628293052 3495.5 419.41201086324776 3474.9615384615386 420.1221375659139 3454.423076923077 420.6361340364151 3433.8846153846152 421.2786296245415 3413.346153846154 421.87378343249026 3392.8076923076924 422.2187021166424 3372.269230769231 422.8206190360452 3351.730769230769 423.5172195158034 3331.1923076923076 424.19353066119965 3310.653846153846 424.8292631378723 3290.1153846153848 425.4176538343671 3269.576923076923 426.0398600881317 3249.0384615384614 426.70264501062013 3228.5 427.3721930445625 3228.5 475.9042808382031Z" fill="#fdd5a4" opacity="0.9" />
		</g>
		<g>
			<path d="M3228.5 427.3721930445625 3249.0384615384614 426.70264501062013 3269.576923076923 426.0398600881317 3290.1153846153848 425.4176538343671 3310.653846153846 424.8292631378723 3331.1923076923076 424.19353066119965 3351.730769230769 423.5172195158034 3372.269230769231 422.8206190360452 3392.8076923076924 422.2187021166424 3413.346153846154 421.87378343249026 3433.8846153846152 421.2786296245415 3454.423076923077 420.6361340364151 3474.9615384615386 420.1221375659139 3495.5 419.41201086324776 3516.0384615384614 418.7424628293052 3536.576923076923 418.1405459099027 3557.1153846153848 417.49805032177613 3577.653846153846 417.0043431856368 3598.1923076923076 416.36184759751035 3618.7307692307695 415.86814046137096 3639.269230769231 415.43530132831734 3659.8076923076924 415.04304086398747 3680.346153846154 414.60343861947985 3700.8846153846152 414.2179412666039 3721.423076923077 413.70394479610275 3741.9615384615386 413.2643425515951 3762.5 413.06144920797624 3783.0384615384614 412.8179771956334 3803.576923076923 412.2363496105926 3824.1153846153848 411.7764580317232 3844.653846153846 411.0460419946952 3865.1923076923076 410.5929135272796 3885.7307692307695 409.9368917162452 3906.269230769231 409.4567108030137 3926.8076923076924 408.78716276907153 3947.346153846154 408.1649565153067 3967.8846153846152 407.779459162431 3988.423076923077 407.3128044721074 4008.9615384615386 406.6297302152571 4029.5 406.14278619057177 4050.038461538462 405.73023639188006 4070.576923076923 405.2771079244646 4091.1153846153848 404.71576967378553 4111.653846153846 403.9921167482114 4132.192307692308 403.30227937990713 4152.7307692307695 402.8423878010377 4173.2692307692305 402.3824962221682 4193.807692307692 401.71294818822577 4214.346153846154 401.32068772389584 4234.884615384615 400.8675592564805 4255.423076923077 400.48206190360446 4275.961538461539 399.9815916560112 4296.5 399.27146495334506 4296.5 397.99999999999994 4275.961538461539 398.71012670266606 4255.423076923077 399.21059695025934 4234.884615384615 399.5960943031354 4214.346153846154 400.0492227705507 4193.807692307692 400.44148323488065 4173.2692307692305 401.11103126882307 4152.7307692307695 401.5709228476926 4132.192307692308 402.030814426562 4111.653846153846 402.7206517948663 4091.1153846153848 403.4443047204404 4070.576923076923 404.00564297111947 4050.038461538462 404.45877143853494 4029.5 404.87132123722665 4008.9615384615386 405.358265261912 3988.423076923077 406.0413395187623 3967.8846153846152 406.5079942090859 3947.346153846154 406.8934915619616 3926.8076923076924 407.5156978157264 3906.269230769231 408.1852458496686 3885.7307692307695 408.6654267629001 3865.1923076923076 409.3214485739345 3844.653846153846 409.7745770413501 3824.1153846153848 410.5049930783781 3803.576923076923 410.96488465724747 3783.0384615384614 411.54651224228826 3762.5 411.7899842546311 3741.9615384615386 411.99287759825 3721.423076923077 412.43247984275763 3700.8846153846152 412.94647631325876 3680.346153846154 413.3454998890427 3659.8076923076924 413.7851021335503 3639.269230769231 414.1773625978802 3618.7307692307695 414.6102017309338 3598.1923076923076 415.1039088670732 3577.653846153846 415.74640445519964 3557.1153846153848 416.240111591339 3536.576923076923 416.88260717946554 3516.0384615384614 417.48452409886806 3495.5 418.1540721328106 3474.9615384615386 418.8641988354767 3454.423076923077 419.37819530597795 3433.8846153846152 420.02069089410435 3413.346153846154 420.6158447020531 3392.8076923076924 420.96076338620526 3372.269230769231 421.562680305608 3351.730769230769 422.25928078536623 3331.1923076923076 422.9355919307625 3310.653846153846 423.57132440743516 3290.1153846153848 424.15971510392995 3269.576923076923 424.78192135769456 3249.0384615384614 425.44470628018297 3228.5 426.11425431412533 3228.5 427.3721930445625Z" fill="#005aa6" opacity="0.9" />
		</g>
		<g>
			<rect x="4372" y="431" width="22.9995" height="23" fill="#e62d39" />
		</g>
		<g>
			<text fill="#595959" font-family="Verdana,Open Sans,DejaVu Sans,sans-serif" font-weight="400" font-size="41" transform="matrix(1 0 0 1 4404.56 454)">Smartphone</text>
		</g>
		<g>
			<rect x="4372" y="508" width="22.9995" height="23" fill="#f6a118" />
		</g>
		<g>
			<text fill="#595959" font-family="Verdana,Open Sans,DejaVu Sans,sans-serif" font-weight="400" font-size="41" transform="matrix(1 0 0 1 4404.56 531)">Tablet</text>
		</g>
		<g>
			<rect x="4372" y="585" width="22.9995" height="23" fill="#55c0e9" />
		</g>
		<g>
			<text fill="#595959" font-family="Verdana,Open Sans,DejaVu Sans,sans-serif" font-weight="400" font-size="41" transform="matrix(1 0 0 1 4404.56 608)">Other</text>
		</g>
		<g>
			<rect x="4372" y="662" width="22.9995" height="23" fill="#fdd5a4" />
		</g>
		<g>
			<text fill="#595959" font-family="Verdana,Open Sans,DejaVu Sans,sans-serif" font-weight="400" font-size="41" transform="matrix(1 0 0 1 4404.56 685)">Tv</text>
		</g>
		<g>
			<rect x="4372" y="739" width="22.9995" height="23" fill="#005aa6" />
		</g>
		<g>
			<text fill="#595959" font-family="Verdana,Open Sans,DejaVu Sans,sans-serif" font-weight="400" font-size="41" transform="matrix(1 0 0 1 4404.56 762)">Desktop</text>
		</g>
	</g>
</svg>
