<svg width="1763" height="1046"
    xmlns="http://www.w3.org/2000/svg"
	xmlns:xlink="http://www.w3.org/1999/xlink" xml:space="preserve" overflow="hidden">
	<defs>
		<clipPath id="clip0">
			<rect x="2917" y="346" width="1763" height="1046"/>
		</clipPath>
	</defs>
	<g clip-path="url(#clip0)" transform="translate(-2917 -346)">
		<rect x="2918" y="347" width="1760" height="1043" fill="#FFFFFF" />
		<g>
			<path d="
			M3228.5 974.532 4296.5 974.532
			M3228.5 910.53 4296.5 910.53
			M3228.5 846.528 4296.5 846.528
			M3228.5 781.526 4296.5 781.526
			M3228.5 717.524 4296.5 717.524
			M3228.5 653.522 4296.5 653.522
			M3228.5 589.52 4296.5 589.52
			M3228.5 525.517 4296.5 525.517
			M3228.5 461.515 4296.5 461.515
			M3228.5 397.5 4296.5 397.5" stroke="#D9D9D9" stroke-width="3.4375" stroke-linejoin="round" stroke-miterlimit="10" fill="none" />
		</g>
		<g>
			<path d="M 1038.5 4296.5 1038.5" stroke="#D9D9D9" stroke-width="3.4375" stroke-linejoin="round" stroke-miterlimit="10" fill="none" fill-rule="evenodd" />
		</g>
		<g>
			<text fill="#595959" font-family="Verdana,Open Sans,DejaVu Sans,sans-serif" font-weight="400" font-size="41" transform="matrix(6.12323e-17 -1 1 6.12323e-17 3248.269287109375 1214.75341796875)">19-May</text>
		</g>
		<g>
			<text fill="#595959" font-family="Verdana,Open Sans,DejaVu Sans,sans-serif" font-weight="400" font-size="41" transform="matrix(6.12323e-17 -1 1 6.12323e-17 3332.6382421875 1194.0532150268555)">23-Jun</text>
		</g>
		<g>
			<text fill="#595959" font-family="Verdana,Open Sans,DejaVu Sans,sans-serif" font-weight="400" font-size="41" transform="matrix(6.12323e-17 -1 1 6.12323e-17 3418.808955078125 1179.0385665893555)">21-Jul</text>
		</g>
		<g>
			<text fill="#595959" font-family="Verdana,Open Sans,DejaVu Sans,sans-serif" font-weight="400" font-size="41" transform="matrix(6.12323e-17 -1 1 6.12323e-17 3504.589287109375 1206.90576171875)">18-Aug</text>
		</g>
		<g>
			<text fill="#595959" font-family="Verdana,Open Sans,DejaVu Sans,sans-serif" font-weight="400" font-size="41" transform="matrix(6.12323e-17 -1 1 6.12323e-17 3590.029287109375 1202.66162109375)">15-Sep</text>
		</g>
		<g>
			<text fill="#595959" font-family="Verdana,Open Sans,DejaVu Sans,sans-serif" font-weight="400" font-size="41" transform="matrix(6.12323e-17 -1 1 6.12323e-17 3670.764697265625 1199.3784103393555)">13-Oct</text>
		</g>
		<g>
			<text fill="#595959" font-family="Verdana,Open Sans,DejaVu Sans,sans-serif" font-weight="400" font-size="41" transform="matrix(6.12323e-17 -1 1 6.12323e-17 3756.204697265625 1209.70849609375)">10-Nov</text>
		</g>
		<g>
			<text fill="#595959" font-family="Verdana,Open Sans,DejaVu Sans,sans-serif" font-weight="400" font-size="41" transform="matrix(6.12323e-17 -1 1 6.12323e-17 3841.644697265625 1207.0859375)">08-Dec</text>
		</g>
		<g>
			<text fill="#595959" font-family="Verdana,Open Sans,DejaVu Sans,sans-serif" font-weight="400" font-size="41" transform="matrix(6.12323e-17 -1 1 6.12323e-17 3930.73826171875 1191.6508712768555)">05-Jan</text>
		</g>
		<g>
			<text fill="#595959" font-family="Verdana,Open Sans,DejaVu Sans,sans-serif" font-weight="400" font-size="41" transform="matrix(6.12323e-17 -1 1 6.12323e-17 4013.235390625 1203.0419921875)">02-Feb</text>
		</g>
		<g>
			<text fill="#595959" font-family="Verdana,Open Sans,DejaVu Sans,sans-serif" font-weight="400" font-size="41" transform="matrix(6.12323e-17 -1 1 6.12323e-17 4097.964697265625 1212.0107421875)">02-Mar</text>
		</g>
		<g>
			<text fill="#595959" font-family="Verdana,Open Sans,DejaVu Sans,sans-serif" font-weight="400" font-size="41" transform="matrix(6.12323e-17 -1 1 6.12323e-17 4183.404697265625 1212.1708984375)">30-Mar</text>
		</g>
		<g>
			<text fill="#595959" font-family="Verdana,Open Sans,DejaVu Sans,sans-serif" font-weight="400" font-size="41" transform="matrix(6.12323e-17 -1 1 6.12323e-17 4273.549287109375 1203.3022384643555)">27-Apr</text>
		</g>
		<g>
			<text fill="#595959" font-family="Verdana,Open Sans,DejaVu Sans,sans-serif" font-weight="400" font-size="41" transform="matrix(1 0 0 1 3169.14111328125 1050)">0</text>
		</g>
		<g>
			<text fill="#595959" font-family="Verdana,Open Sans,DejaVu Sans,sans-serif" font-weight="400" font-size="41" transform="matrix(1 0 0 1 3074.1284255981445 922)">18,821</text>
		</g>
		<g>
			<text fill="#595959" font-family="Verdana,Open Sans,DejaVu Sans,sans-serif" font-weight="400" font-size="41" transform="matrix(1 0 0 1 3072.2465896606445 794)">37,641</text>
		</g>
		<g>
			<text fill="#595959" font-family="Verdana,Open Sans,DejaVu Sans,sans-serif" font-weight="400" font-size="41" transform="matrix(1 0 0 1 3066.1005935668945 666)">56,462</text>
		</g>
		<g>
			<text fill="#595959" font-family="Verdana,Open Sans,DejaVu Sans,sans-serif" font-weight="400" font-size="41" transform="matrix(1 0 0 1 3065.3198318481445 538)">75,282</text>
		</g>
		<g>
			<text fill="#595959" font-family="Verdana,Open Sans,DejaVu Sans,sans-serif" font-weight="400" font-size="41" transform="matrix(1 0 0 1 3065.7602615356445 410)">94,103</text>
		</g>
		<g>
			<text fill="#595959" font-family="Verdana,Open Sans,DejaVu Sans,sans-serif" font-weight="400" font-size="41" transform="matrix(1 0 0 1 3556.97119140625 1321)">Week Commencing</text>
		</g>
		<g>
			<text fill="#595959" font-family="Verdana,Open Sans,DejaVu Sans,sans-serif" font-weight="400" font-size="46" transform="matrix(6.12323e-17 -1 1 6.12323e-17 3019.73 1028.5532531738281)">Number of Hardware Profiles</text>
		</g>
		<rect x="2918.5" y="347.5" width="1760" height="1043" stroke="#D9D9D9" stroke-width="3.4375" stroke-linejoin="round" stroke-miterlimit="10" fill="none" />
		<g>
			<path d="M3228.5 1038 3249.86 1038 3271.22 1038 3292.58 1038 3313.94 1038 3335.3 1038 3356.66 1038 3378.02 1038 3399.38 1038 3420.74 1038 3442.1 1038 3463.46 1038 3484.82 1038 3506.18 1038 3527.54 1038 3548.9 1038 3570.26 1038 3591.62 1038 3612.98 1038 3634.34 1038 3655.7 1038 3677.06 1038 3698.42 1038 3719.7799999999997 1038 3741.14 1038 3762.5 1038 3783.86 1038 3805.2200000000003 1038 3826.58 1038 3847.94 1038 3869.3 1038 3890.66 1038 3912.02 1038 3933.38 1038 3954.74 1038 3976.1 1038 3997.46 1038 4018.8199999999997 1038 4040.18 1038 4061.54 1038 4082.9 1038 4104.26 1038 4125.62 1038 4146.98 1038 4168.34 1038 4189.7 1038 4211.0599999999995 1038 4232.42 1038 4253.78 1038 4275.139999999999 1038 4296.5 1038 4296.5 693.1387309650065 4275.139999999999 693.295155308545 4253.78 693.676014579769 4232.42 693.9684600916017 4211.0599999999995 694.226900311361 4189.7 694.3969267717289 4168.34 694.6145606409998 4146.98 694.9750167369797 4125.62 695.396682358692 4104.26 695.6687246952807 4082.9 695.879557506137 4061.54 696.1311966674814 4040.18 696.40323900407 4018.8199999999997 696.5528622891937 3997.46 696.8045014505383 3976.1 697.0289363782239 3954.74 697.4165967078627 3933.38 697.6750369276219 3912.02 697.981084556284 3890.66 698.0831004325048 3869.3 698.2055194839697 3847.94 698.4231533532407 3826.58 698.6815935729999 3805.2200000000003 698.8856253254413 3783.86 699.0896570778827 3762.5 699.2868877719095 3741.14 699.4637152906921 3719.7799999999997 699.6405428094747 3698.42 699.8989830292339 3677.06 700.1914285410667 3655.7 700.4226645271671 3634.34 700.6743036885116 3612.98 701.0075555508326 3591.62 701.4088179973008 3570.26 701.762473034866 3548.9 702.075321721943 3527.54 702.3813693506052 3506.18 702.5786000446319 3484.82 702.8982497901236 3463.46 703.1634910682975 3442.1 703.4763397553745 3420.74 703.8640000850132 3399.38 704.1496445384313 3378.02 704.4148858166052 3356.66 704.7413366205116 3335.3 705.0541853075886 3313.94 705.3398297610065 3292.58 705.7002858569865 3271.22 706.142354653943 3249.86 706.6796382687055 3228.5 707.0400943646855 3228.5 1038Z" fill="#e62d39" opacity="0.9" />
		</g>
		<g>
			<path d="M3228.5 707.0400943646855 3249.86 706.6796382687055 3271.22 706.142354653943 3292.58 705.7002858569865 3313.94 705.3398297610065 3335.3 705.0541853075886 3356.66 704.7413366205116 3378.02 704.4148858166052 3399.38 704.1496445384313 3420.74 703.8640000850132 3442.1 703.4763397553745 3463.46 703.1634910682975 3484.82 702.8982497901236 3506.18 702.5786000446319 3527.54 702.3813693506052 3548.9 702.075321721943 3570.26 701.762473034866 3591.62 701.4088179973008 3612.98 701.0075555508326 3634.34 700.6743036885116 3655.7 700.4226645271671 3677.06 700.1914285410667 3698.42 699.8989830292339 3719.7799999999997 699.6405428094747 3741.14 699.4637152906921 3762.5 699.2868877719095 3783.86 699.0896570778827 3805.2200000000003 698.8856253254413 3826.58 698.6815935729999 3847.94 698.4231533532407 3869.3 698.2055194839697 3890.66 698.0831004325048 3912.02 697.981084556284 3933.38 697.6750369276219 3954.74 697.4165967078627 3976.1 697.0289363782239 3997.46 696.8045014505383 4018.8199999999997 696.5528622891937 4040.18 696.40323900407 4061.54 696.1311966674814 4082.9 695.879557506137 4104.26 695.6687246952807 4125.62 695.396682358692 4146.98 694.9750167369797 4168.34 694.6145606409998 4189.7 694.3969267717289 4211.0599999999995 694.226900311361 4232.42 693.9684600916017 4253.78 693.676014579769 4275.139999999999 693.295155308545 4296.5 693.1387309650065 4296.5 529.328437988162 4275.139999999999 529.6072813831654 4253.78 530.0425491217071 4232.42 530.403005217687 4211.0599999999995 530.7226549631787 4189.7 530.9334877740349 4168.34 531.1715248185499 4146.98 531.599991498677 4125.62 532.0352592372187 4104.26 532.341306865881 4082.9 532.6133492024697 4061.54 532.9193968311318 4040.18 533.2390465766234 4018.8199999999997 533.4294762122355 3997.46 533.7423248993125 3976.1 534.04157146956 3954.74 534.5720540259078 3933.38 534.8985048298142 3912.02 535.3473746851853 3890.66 535.524202203968 3869.3 535.6670244306771 3847.94 535.9594699425098 3826.58 536.3267270969045 3805.2200000000003 536.6055704919079 3783.86 536.8912149453258 3762.5 537.1564562234998 3741.14 537.4421006769178 3719.7799999999997 537.7413472471653 3698.42 538.1494107520483 3677.06 538.5778774321753 3655.7 538.9859409370583 3634.34 539.3872033835266 3612.98 539.8904817062156 3591.62 540.4141632041486 3570.26 540.8698341179346 3548.9 541.3119029148912 3527.54 541.719966419774 3506.18 541.9444013474597 3484.82 542.3252606186838 3463.46 542.7401251819815 3442.1 543.229801387841 3420.74 543.7874881778476 3399.38 544.2023527411453 3378.02 544.7056310638343 3356.66 545.168103036035 3335.3 545.6577792418946 3313.94 546.147455447754 3292.58 546.6779380041019 3271.22 547.2560279693528 3249.86 548.1197623880216 3228.5 548.6094385938811 3228.5 707.0400943646855Z" fill="#f6a118" opacity="0.9" />
		</g>
		<g>
			<path d="M3228.5 548.6094385938811 3249.86 548.1197623880216 3271.22 547.2560279693528 3292.58 546.6779380041019 3313.94 546.147455447754 3335.3 545.6577792418946 3356.66 545.168103036035 3378.02 544.7056310638343 3399.38 544.2023527411453 3420.74 543.7874881778476 3442.1 543.229801387841 3463.46 542.7401251819815 3484.82 542.3252606186838 3506.18 541.9444013474597 3527.54 541.719966419774 3548.9 541.3119029148912 3570.26 540.8698341179346 3591.62 540.4141632041486 3612.98 539.8904817062156 3634.34 539.3872033835266 3655.7 538.9859409370583 3677.06 538.5778774321753 3698.42 538.1494107520483 3719.7799999999997 537.7413472471653 3741.14 537.4421006769178 3762.5 537.1564562234998 3783.86 536.8912149453258 3805.2200000000003 536.6055704919079 3826.58 536.3267270969045 3847.94 535.9594699425098 3869.3 535.6670244306771 3890.66 535.524202203968 3912.02 535.3473746851853 3933.38 534.8985048298142 3954.74 534.5720540259078 3976.1 534.04157146956 3997.46 533.7423248993125 4018.8199999999997 533.4294762122355 4040.18 533.2390465766234 4061.54 532.9193968311318 4082.9 532.6133492024697 4104.26 532.341306865881 4125.62 532.0352592372187 4146.98 531.599991498677 4168.34 531.1715248185499 4189.7 530.9334877740349 4211.0599999999995 530.7226549631787 4232.42 530.403005217687 4253.78 530.0425491217071 4275.139999999999 529.6072813831654 4296.5 529.328437988162 4296.5 455.1560949172716 4275.139999999999 455.44173937068973 4253.78 455.9042113428903 4232.42 456.2782695556996 4211.0599999999995 456.62512353485016 4189.7 456.8359563457064 4168.34 457.0807944486361 4146.98 457.52286324559265 4125.62 457.95813098413436 4104.26 458.2641786127967 4082.9 458.5362209493854 4061.54 458.8558706948769 4040.18 459.1891225571979 4018.8199999999997 459.3931543096394 3997.46 459.7060029967164 3976.1 460.0256527422081 3954.74 460.5901405906295 3933.38 460.92339245295057 3912.02 461.38586442515106 3890.66 461.5694930023485 3869.3 461.7123152290576 3847.94 462.04556709137864 3826.58 462.4604316546763 3805.2200000000003 462.7936835169974 3783.86 463.0997311456595 3762.5 463.3717734822483 3741.14 463.69142322773973 3719.7799999999997 464.0382772068903 3698.42 464.548356587994 3677.06 465.02443067702404 3655.7 465.4801015908101 3634.34 465.9289714461814 3612.98 466.54786776192054 3591.62 467.11235561034187 3570.26 467.5952307577867 3548.9 468.0781059052316 3527.54 468.4997715269438 3506.18 468.7514106882884 3484.82 469.1866784268302 3463.46 469.6831556911045 3442.1 470.20003613062283 3420.74 470.77812609587363 3399.38 471.2065927760008 3378.02 471.74387639076326 3356.66 472.24715471345223 3335.3 472.7504330361413 3313.94 473.2945177093185 3292.58 473.8590055577399 3271.22 474.4711008150644 3249.86 475.4300500515393 3228.5 475.97413472471646 3228.5 548.6094385938811Z" fill="#55c0e9" opacity="0.9" />
		</g>
		<g>
			<path d="M3228.5 475.97413472471646 3249.86 475.4300500515393 3271.22 474.4711008150644 3292.58 473.8590055577399 3313.94 473.2945177093185 3335.3 472.7504330361413 3356.66 472.24715471345223 3378.02 471.74387639076326 3399.38 471.2065927760008 3420.74 470.77812609587363 3442.1 470.20003613062283 3463.46 469.6831556911045 3484.82 469.1866784268302 3506.18 468.7514106882884 3527.54 468.4997715269438 3548.9 468.0781059052316 3570.26 467.5952307577867 3591.62 467.11235561034187 3612.98 466.54786776192054 3634.34 465.9289714461814 3655.7 465.4801015908101 3677.06 465.02443067702404 3698.42 464.548356587994 3719.7799999999997 464.0382772068903 3741.14 463.69142322773973 3762.5 463.3717734822483 3783.86 463.0997311456595 3805.2200000000003 462.7936835169974 3826.58 462.4604316546763 3847.94 462.04556709137864 3869.3 461.7123152290576 3890.66 461.5694930023485 3912.02 461.38586442515106 3933.38 460.92339245295057 3954.74 460.5901405906295 3976.1 460.0256527422081 3997.46 459.7060029967164 4018.8199999999997 459.3931543096394 4040.18 459.1891225571979 4061.54 458.8558706948769 4082.9 458.5362209493854 4104.26 458.2641786127967 4125.62 457.95813098413436 4146.98 457.52286324559265 4168.34 457.0807944486361 4189.7 456.8359563457064 4211.0599999999995 456.62512353485016 4232.42 456.2782695556996 4253.78 455.9042113428903 4275.139999999999 455.44173937068973 4296.5 455.1560949172716 4296.5 399.2785989819667 4275.139999999999 399.7410709541674 4253.78 400.4347789124683 4232.42 401.1624921628428 4211.0599999999995 401.7269800112643 4189.7 402.1826509250503 4168.34 402.5975154883479 4146.98 403.0871916942075 4125.62 403.77409859409363 4104.26 404.24337162470914 4082.9 404.63103195434803 4061.54 405.25672932850176 4040.18 405.93003411155854 4018.8199999999997 406.4129092590034 3997.46 407.0726119252309 3976.1 407.5282828390169 3954.74 408.2627971478062 3933.38 408.7252691200069 3912.02 409.31016014367225 3890.66 409.55499824660217 3869.3 409.75902999904366 3847.94 410.20109879600017 3826.58 410.71797923551856 3805.2200000000003 411.1056395651574 3783.86 411.54770836211384 3762.5 411.94216975016747 3741.14 412.3774374887091 3719.7799999999997 412.8739147529834 3698.42 413.52001530238147 3677.06 414.01649256665564 3655.7 414.6625931160537 3634.34 415.26788731496345 3612.98 415.94119209802034 3591.62 416.6553032315654 3570.26 417.1721836710838 3548.9 417.8182842204819 3527.54 418.4167773609767 3506.18 418.76363134012735 3484.82 419.36892553903704 3463.46 420.0694345557528 3442.1 420.74954039722434 3420.74 421.38883988820754 3399.38 421.98053197028787 3378.02 422.60622934444166 3356.66 423.2727330690838 3335.3 423.9460378521408 3313.94 424.6057405183681 3292.58 425.3062495350839 3271.22 425.99995749338495 3249.86 427.21054589120433 3228.5 427.89065173267585 3228.5 475.97413472471646Z" fill="#fdd5a4" opacity="0.9" />
		</g>
		<g>
			<path d="M3228.5 427.89065173267585 3249.86 427.21054589120433 3271.22 425.99995749338495 3292.58 425.3062495350839 3313.94 424.6057405183681 3335.3 423.9460378521408 3356.66 423.2727330690838 3378.02 422.60622934444166 3399.38 421.98053197028787 3420.74 421.38883988820754 3442.1 420.74954039722434 3463.46 420.0694345557528 3484.82 419.36892553903704 3506.18 418.76363134012735 3527.54 418.4167773609767 3548.9 417.8182842204819 3570.26 417.1721836710838 3591.62 416.6553032315654 3612.98 415.94119209802034 3634.34 415.26788731496345 3655.7 414.6625931160537 3677.06 414.01649256665564 3698.42 413.52001530238147 3719.7799999999997 412.8739147529834 3741.14 412.3774374887091 3762.5 411.94216975016747 3783.86 411.54770836211384 3805.2200000000003 411.1056395651574 3826.58 410.71797923551856 3847.94 410.20109879600017 3869.3 409.75902999904366 3890.66 409.55499824660217 3912.02 409.31016014367225 3933.38 408.7252691200069 3954.74 408.2627971478062 3976.1 407.5282828390169 3997.46 407.0726119252309 4018.8199999999997 406.4129092590034 4040.18 405.93003411155854 4061.54 405.25672932850176 4082.9 404.63103195434803 4104.26 404.24337162470914 4125.62 403.77409859409363 4146.98 403.0871916942075 4168.34 402.5975154883479 4189.7 402.1826509250503 4211.0599999999995 401.7269800112643 4232.42 401.1624921628428 4253.78 400.4347789124683 4275.139999999999 399.7410709541674 4296.5 399.2785989819667 4296.5 398.0000000000001 4275.139999999999 398.46247197220083 4253.78 399.1561799305017 4232.42 399.8838931808762 4211.0599999999995 400.4483810292977 4189.7 400.90405194308374 4168.34 401.3189165063813 4146.98 401.8085927122409 4125.62 402.49549961212705 4104.26 402.96477264274256 4082.9 403.35243297238145 4061.54 403.9781303465352 4040.18 404.65143512959196 4018.8199999999997 405.13431027703683 3997.46 405.7940129432643 3976.1 406.24968385705034 3954.74 406.98419816583964 3933.38 407.4466701380403 3912.02 408.03156116170567 3890.66 408.2763992646356 3869.3 408.4804310170771 3847.94 408.9224998140336 3826.58 409.439380253552 3805.2200000000003 409.8406427000202 3783.86 410.2827114969767 3762.5 410.6771728850303 3741.14 411.11244062357196 3719.7799999999997 411.60891788784625 3698.42 412.2550184372443 3677.06 412.7514957015185 3655.7 413.39759625091654 3634.34 414.0028904498263 3612.98 414.6761952328832 3591.62 415.39030636642826 3570.26 415.90718680594665 3548.9 416.55328735534476 3527.54 417.15178049583955 3506.18 417.4986344749902 3484.82 418.1039286738999 3463.46 418.80443769061566 3442.1 419.4845435320872 3420.74 420.1238430230704 3399.38 420.7155351051507 3378.02 421.3412324793045 3356.66 422.00773620394665 3335.3 422.68104098700366 3313.94 423.34074365323096 3292.58 424.04125266994674 3271.22 424.7349606282478 3249.86 425.94554902606717 3228.5 426.6256548675387 3228.5 427.89065173267585Z" fill="#005aa6" opacity="0.9" />
		</g>
		<g>
			<rect x="4372" y="431" width="22.9995" height="23" fill="#e62d39" />
		</g>
		<g>
			<text fill="#595959" font-family="Verdana,Open Sans,DejaVu Sans,sans-serif" font-weight="400" font-size="41" transform="matrix(1 0 0 1 4404.56 454)">Smartphone</text>
		</g>
		<g>
			<rect x="4372" y="508" width="22.9995" height="23" fill="#f6a118" />
		</g>
		<g>
			<text fill="#595959" font-family="Verdana,Open Sans,DejaVu Sans,sans-serif" font-weight="400" font-size="41" transform="matrix(1 0 0 1 4404.56 531)">Tablet</text>
		</g>
		<g>
			<rect x="4372" y="585" width="22.9995" height="23" fill="#55c0e9" />
		</g>
		<g>
			<text fill="#595959" font-family="Verdana,Open Sans,DejaVu Sans,sans-serif" font-weight="400" font-size="41" transform="matrix(1 0 0 1 4404.56 608)">Other</text>
		</g>
		<g>
			<rect x="4372" y="662" width="22.9995" height="23" fill="#fdd5a4" />
		</g>
		<g>
			<text fill="#595959" font-family="Verdana,Open Sans,DejaVu Sans,sans-serif" font-weight="400" font-size="41" transform="matrix(1 0 0 1 4404.56 685)">Tv</text>
		</g>
		<g>
			<rect x="4372" y="739" width="22.9995" height="23" fill="#005aa6" />
		</g>
		<g>
			<text fill="#595959" font-family="Verdana,Open Sans,DejaVu Sans,sans-serif" font-weight="400" font-size="41" transform="matrix(1 0 0 1 4404.56 762)">Desktop</text>
		</g>
	</g>
</svg>
