<svg width="1763" height="1046"
    xmlns="http://www.w3.org/2000/svg"
	xmlns:xlink="http://www.w3.org/1999/xlink" xml:space="preserve" overflow="hidden">
	<defs>
		<clipPath id="clip0">
			<rect x="2917" y="346" width="1763" height="1046"/>
		</clipPath>
	</defs>
	<g clip-path="url(#clip0)" transform="translate(-2917 -346)">
		<rect x="2918" y="347" width="1760" height="1043" fill="#FFFFFF" />
		<g>
			<path d="
			M3228.5 974.532 4296.5 974.532
			M3228.5 910.53 4296.5 910.53
			M3228.5 846.528 4296.5 846.528
			M3228.5 781.526 4296.5 781.526
			M3228.5 717.524 4296.5 717.524
			M3228.5 653.522 4296.5 653.522
			M3228.5 589.52 4296.5 589.52
			M3228.5 525.517 4296.5 525.517
			M3228.5 461.515 4296.5 461.515
			M3228.5 397.5 4296.5 397.5" stroke="#D9D9D9" stroke-width="3.4375" stroke-linejoin="round" stroke-miterlimit="10" fill="none" />
		</g>
		<g>
			<path d="M 1038.5 4296.5 1038.5" stroke="#D9D9D9" stroke-width="3.4375" stroke-linejoin="round" stroke-miterlimit="10" fill="none" fill-rule="evenodd" />
		</g>
		<g>
			<text fill="#595959" font-family="Verdana,Open Sans,DejaVu Sans,sans-serif" font-weight="400" font-size="41" transform="matrix(6.12323e-17 -1 1 6.12323e-17 3248.269287109375 1204.42333984375)">23-Sep</text>
		</g>
		<g>
			<text fill="#595959" font-family="Verdana,Open Sans,DejaVu Sans,sans-serif" font-weight="400" font-size="41" transform="matrix(6.12323e-17 -1 1 6.12323e-17 3330.748370735013 1201.1401290893555)">21-Oct</text>
		</g>
		<g>
			<text fill="#595959" font-family="Verdana,Open Sans,DejaVu Sans,sans-serif" font-weight="400" font-size="41" transform="matrix(6.12323e-17 -1 1 6.12323e-17 3417.9120246731504 1209.70849609375)">18-Nov</text>
		</g>
		<g>
			<text fill="#595959" font-family="Verdana,Open Sans,DejaVu Sans,sans-serif" font-weight="400" font-size="41" transform="matrix(6.12323e-17 -1 1 6.12323e-17 3505.0956981425384 1207.1259765625)">23-Dec</text>
		</g>
		<g>
			<text fill="#595959" font-family="Verdana,Open Sans,DejaVu Sans,sans-serif" font-weight="400" font-size="41" transform="matrix(6.12323e-17 -1 1 6.12323e-17 3595.952955596301 1191.6909103393555)">20-Jan</text>
		</g>
		<g>
			<text fill="#595959" font-family="Verdana,Open Sans,DejaVu Sans,sans-serif" font-weight="400" font-size="41" transform="matrix(6.12323e-17 -1 1 6.12323e-17 3680.193757971939 1201.3203125)">17-Feb</text>
		</g>
		<g>
			<text fill="#595959" font-family="Verdana,Open Sans,DejaVu Sans,sans-serif" font-weight="400" font-size="41" transform="matrix(6.12323e-17 -1 1 6.12323e-17 3766.4365134725767 1210.2890625)">17-Mar</text>
		</g>
		<g>
			<text fill="#595959" font-family="Verdana,Open Sans,DejaVu Sans,sans-serif" font-weight="400" font-size="41" transform="matrix(6.12323e-17 -1 1 6.12323e-17 3858.424874441964 1201.5405197143555)">14-Apr</text>
		</g>
		<g>
			<text fill="#595959" font-family="Verdana,Open Sans,DejaVu Sans,sans-serif" font-weight="400" font-size="41" transform="matrix(6.12323e-17 -1 1 6.12323e-17 3945.738674864477 1214.75341796875)">12-May</text>
		</g>
		<g>
			<text fill="#595959" font-family="Verdana,Open Sans,DejaVu Sans,sans-serif" font-weight="400" font-size="41" transform="matrix(6.12323e-17 -1 1 6.12323e-17 4031.8513034119896 1192.2914962768555)">16-Jun</text>
		</g>
		<g>
			<text fill="#595959" font-family="Verdana,Open Sans,DejaVu Sans,sans-serif" font-weight="400" font-size="41" transform="matrix(6.12323e-17 -1 1 6.12323e-17 4119.765689772003 1177.2768478393555)">14-Jul</text>
		</g>
		<g>
			<text fill="#595959" font-family="Verdana,Open Sans,DejaVu Sans,sans-serif" font-weight="400" font-size="41" transform="matrix(6.12323e-17 -1 1 6.12323e-17 4207.1395487882655 1206.90576171875)">11-Aug</text>
		</g>
		<g>
			<text fill="#595959" font-family="Verdana,Open Sans,DejaVu Sans,sans-serif" font-weight="400" font-size="41" transform="matrix(6.12323e-17 -1 1 6.12323e-17 4294.4933882732785 1204.38330078125)">08-Sep</text>
		</g>
		<g>
			<text fill="#595959" font-family="Verdana,Open Sans,DejaVu Sans,sans-serif" font-weight="400" font-size="41" transform="matrix(1 0 0 1 3169.14111328125 1050)">0</text>
		</g>
		<g>
			<text fill="#595959" font-family="Verdana,Open Sans,DejaVu Sans,sans-serif" font-weight="400" font-size="41" transform="matrix(1 0 0 1 3065.8203201293945 922)">18,294</text>
		</g>
		<g>
			<text fill="#595959" font-family="Verdana,Open Sans,DejaVu Sans,sans-serif" font-weight="400" font-size="41" transform="matrix(1 0 0 1 3065.2397537231445 794)">36,588</text>
		</g>
		<g>
			<text fill="#595959" font-family="Verdana,Open Sans,DejaVu Sans,sans-serif" font-weight="400" font-size="41" transform="matrix(1 0 0 1 3066.1005935668945 666)">54,882</text>
		</g>
		<g>
			<text fill="#595959" font-family="Verdana,Open Sans,DejaVu Sans,sans-serif" font-weight="400" font-size="41" transform="matrix(1 0 0 1 3065.1196365356445 538)">73,176</text>
		</g>
		<g>
			<text fill="#595959" font-family="Verdana,Open Sans,DejaVu Sans,sans-serif" font-weight="400" font-size="41" transform="matrix(1 0 0 1 3065.3999099731445 410)">91,470</text>
		</g>
		<g>
			<text fill="#595959" font-family="Verdana,Open Sans,DejaVu Sans,sans-serif" font-weight="400" font-size="41" transform="matrix(1 0 0 1 3556.97119140625 1321)">Week Commencing</text>
		</g>
		<g>
			<text fill="#595959" font-family="Verdana,Open Sans,DejaVu Sans,sans-serif" font-weight="400" font-size="46" transform="matrix(6.12323e-17 -1 1 6.12323e-17 3019.73 1028.5532531738281)">Number of Hardware Profiles</text>
		</g>
		<rect x="2918.5" y="347.5" width="1760" height="1043" stroke="#D9D9D9" stroke-width="3.4375" stroke-linejoin="round" stroke-miterlimit="10" fill="none" />
		<g>
			<path d="M3228.5 1038 3250.295918367347 1038 3272.091836734694 1038 3293.887755102041 1038 3315.683673469388 1038 3337.4795918367345 1038 3359.2755102040815 1038 3381.0714285714284 1038 3402.8673469387754 1038 3424.6632653061224 1038 3446.4591836734694 1038 3468.2551020408164 1038 3490.0510204081634 1038 3511.8469387755104 1038 3533.6428571428573 1038 3555.4387755102043 1038 3577.234693877551 1038 3599.030612244898 1038 3620.826530612245 1038 3642.622448979592 1038 3664.418367346939 1038 3686.214285714286 1038 3708.0102040816328 1038 3729.8061224489797 1038 3751.6020408163267 1038 3773.3979591836733 1038 3795.1938775510203 1038 3816.9897959183672 1038 3838.785714285714 1038 3860.581632653061 1038 3882.377551020408 1038 3904.173469387755 1038 3925.969387755102 1038 3947.765306122449 1038 3969.5612244897957 1038 3991.357142857143 1038 4013.1530612244896 1038 4034.9489795918366 1038 4056.7448979591836 1038 4078.5408163265306 1038 4100.336734693878 1038 4122.132653061224 1038 4143.928571428572 1038 4165.724489795918 1038 4187.5204081632655 1038 4209.316326530612 1038 4231.1122448979595 1038 4252.908163265306 1038 4274.7040816326535 1038 4296.5 1038 4296.5 692.0837433038155 4274.7040816326535 692.4055974636493 4252.908163265306 692.7204547939216 4231.1122448979595 692.9233628512081 4209.316326530612 693.2522138406034 4187.5204081632655 693.525090193506 4165.724489795918 693.84694435334 4143.928571428572 694.2457636383514 4122.132653061224 694.5396304799388 4100.336734693878 694.8125068328413 4078.5408163265306 695.1483546517984 4056.7448979591836 695.4702088116322 4034.9489795918366 695.7640756532196 4013.1530612244896 696.1349076199847 3991.357142857143 696.589701541489 3969.5612244897957 697.1424510768559 3947.765306122449 697.5132830436208 3925.969387755102 697.8421340330162 3904.173469387755 698.2269596589045 3882.377551020408 698.5977916256696 3860.581632653061 698.9056521263802 3838.785714285714 699.2624904340221 3816.9897959183672 699.6123319121023 3795.1938775510203 699.9131955832513 3773.3979591836733 700.2420465726468 3751.6020408163267 700.626872198535 3729.8061224489797 700.9697168470536 3708.0102040816328 701.3265551546956 3686.214285714286 701.620421996283 3664.418367346939 702.0122444517328 3642.622448979592 702.3690827593747 3620.826530612245 702.7609052148246 3599.030612244898 703.1037498633432 3577.234693877551 703.4046135344922 3555.4387755102043 703.6914835465179 3533.6428571428573 703.9643598994205 3511.8469387755104 704.1602711271455 3490.0510204081634 704.3421886957473 3468.2551020408164 704.6150650486499 3446.4591836734694 704.9928938449765 3424.6632653061224 705.3707226413032 3402.8673469387754 705.6855799715754 3381.0714285714284 705.9444626653548 3359.2755102040815 706.1683612113261 3337.4795918367345 706.4342407346671 3315.683673469388 706.7770853831857 3293.887755102041 707.1269268612659 3272.091836734694 707.4487810210999 3250.295918367347 707.7356510331256 3228.5 707.9175686017273 3228.5 1038Z" fill="#e62d39" opacity="0.9" />
		</g>
		<g>
			<path d="M3228.5 707.9175686017273 3250.295918367347 707.7356510331256 3272.091836734694 707.4487810210999 3293.887755102041 707.1269268612659 3315.683673469388 706.7770853831857 3337.4795918367345 706.4342407346671 3359.2755102040815 706.1683612113261 3381.0714285714284 705.9444626653548 3402.8673469387754 705.6855799715754 3424.6632653061224 705.3707226413032 3446.4591836734694 704.9928938449765 3468.2551020408164 704.6150650486499 3490.0510204081634 704.3421886957473 3511.8469387755104 704.1602711271455 3533.6428571428573 703.9643598994205 3555.4387755102043 703.6914835465179 3577.234693877551 703.4046135344922 3599.030612244898 703.1037498633432 3620.826530612245 702.7609052148246 3642.622448979592 702.3690827593747 3664.418367346939 702.0122444517328 3686.214285714286 701.620421996283 3708.0102040816328 701.3265551546956 3729.8061224489797 700.9697168470536 3751.6020408163267 700.626872198535 3773.3979591836733 700.2420465726468 3795.1938775510203 699.9131955832513 3816.9897959183672 699.6123319121023 3838.785714285714 699.2624904340221 3860.581632653061 698.9056521263802 3882.377551020408 698.5977916256696 3904.173469387755 698.2269596589045 3925.969387755102 697.8421340330162 3947.765306122449 697.5132830436208 3969.5612244897957 697.1424510768559 3991.357142857143 696.589701541489 4013.1530612244896 696.1349076199847 4034.9489795918366 695.7640756532196 4056.7448979591836 695.4702088116322 4078.5408163265306 695.1483546517984 4100.336734693878 694.8125068328413 4122.132653061224 694.5396304799388 4143.928571428572 694.2457636383514 4165.724489795918 693.84694435334 4187.5204081632655 693.525090193506 4209.316326530612 693.2522138406034 4231.1122448979595 692.9233628512081 4252.908163265306 692.7204547939216 4274.7040816326535 692.4055974636493 4296.5 692.0837433038155 4296.5 526.5597463649284 4274.7040816326535 527.0145402864327 4252.908163265306 527.4343500601291 4231.1122448979595 527.6652454356621 4209.316326530612 528.0570678911117 4187.5204081632655 528.4838744943697 4165.724489795918 528.9876462228053 4143.928571428572 529.561386246857 4122.132653061224 529.9881928501147 4100.336734693878 530.5059582376736 4078.5408163265306 530.9817426478627 4056.7448979591836 531.4855143762983 4034.9489795918366 531.9892861047338 4013.1530612244896 532.5350388105389 3991.357142857143 533.1297693232755 3969.5612244897957 534.0183666775993 3947.765306122449 534.5221384060347 3925.969387755102 534.9559418388542 3904.173469387755 535.4177325899202 3882.377551020408 535.9075106592326 3860.581632653061 536.306329944244 3838.785714285714 536.8520826500492 3816.9897959183672 537.3558543784847 3795.1938775510203 537.8246419591122 3773.3979591836733 538.3354105171095 3751.6020408163267 538.839182245545 3729.8061224489797 539.2869793374877 3708.0102040816328 539.7417732589921 3686.214285714286 540.133595714442 3664.418367346939 540.5953864655079 3642.622448979592 541.0921613643818 3620.826530612245 541.5889362632557 3599.030612244898 541.9947523778288 3577.234693877551 542.4495462993332 3555.4387755102043 542.8973433912757 3533.6428571428573 543.3241499945336 3511.8469387755104 543.5620421996283 3490.0510204081634 543.7719470864765 3468.2551020408164 544.1637695419263 3446.4591836734694 544.5835793156226 3424.6632653061224 545.1503225101127 3402.8673469387754 545.5491417951241 3381.0714285714284 545.9549579096972 3359.2755102040815 546.3257898764622 3337.4795918367345 546.8015742866514 3315.683673469388 547.2633650377173 3293.887755102041 547.6971684705368 3272.091836734694 548.1519623920412 3250.295918367347 548.5857658248606 3228.5 548.8936263255712 3228.5 707.9175686017273Z" fill="#f6a118" opacity="0.9" />
		</g>
		<g>
			<path d="M3228.5 548.8936263255712 3250.295918367347 548.5857658248606 3272.091836734694 548.1519623920412 3293.887755102041 547.6971684705368 3315.683673469388 547.2633650377173 3337.4795918367345 546.8015742866514 3359.2755102040815 546.3257898764622 3381.0714285714284 545.9549579096972 3402.8673469387754 545.5491417951241 3424.6632653061224 545.1503225101127 3446.4591836734694 544.5835793156226 3468.2551020408164 544.1637695419263 3490.0510204081634 543.7719470864765 3511.8469387755104 543.5620421996283 3533.6428571428573 543.3241499945336 3555.4387755102043 542.8973433912757 3577.234693877551 542.4495462993332 3599.030612244898 541.9947523778288 3620.826530612245 541.5889362632557 3642.622448979592 541.0921613643818 3664.418367346939 540.5953864655079 3686.214285714286 540.133595714442 3708.0102040816328 539.7417732589921 3729.8061224489797 539.2869793374877 3751.6020408163267 538.839182245545 3773.3979591836733 538.3354105171095 3795.1938775510203 537.8246419591122 3816.9897959183672 537.3558543784847 3838.785714285714 536.8520826500492 3860.581632653061 536.306329944244 3882.377551020408 535.9075106592326 3904.173469387755 535.4177325899202 3925.969387755102 534.9559418388542 3947.765306122449 534.5221384060347 3969.5612244897957 534.0183666775993 3991.357142857143 533.1297693232755 4013.1530612244896 532.5350388105389 4034.9489795918366 531.9892861047338 4056.7448979591836 531.4855143762983 4078.5408163265306 530.9817426478627 4100.336734693878 530.5059582376736 4122.132653061224 529.9881928501147 4143.928571428572 529.561386246857 4165.724489795918 528.9876462228053 4187.5204081632655 528.4838744943697 4209.316326530612 528.0570678911117 4231.1122448979595 527.6652454356621 4252.908163265306 527.4343500601291 4274.7040816326535 527.0145402864327 4296.5 526.5597463649284 4296.5 451.17590466819723 4274.7040816326535 451.6726795670712 4252.908163265306 452.1064829998908 4231.1122448979595 452.3653656936702 4209.316326530612 452.8131627856127 4187.5204081632655 453.3239313436099 4165.724489795918 453.85569039029195 4143.928571428572 454.4504209030284 4122.132653061224 454.8912211654094 4100.336734693878 455.4439707007762 4078.5408163265306 455.961736088335 4056.7448979591836 456.4795014758938 4034.9489795918366 457.0392478408221 4013.1530612244896 457.6199846944353 3991.357142857143 458.24969935497984 3969.5612244897957 459.2362523231661 3947.765306122449 459.7959986880944 3925.969387755102 460.2857767574067 3904.173469387755 460.7685579971576 3882.377551020408 461.328304362086 3860.581632653061 461.7551109653438 3838.785714285714 462.32185415983383 3816.9897959183672 462.88859735432374 3795.1938775510203 463.3783754236361 3773.3979591836733 463.896140811195 3751.6020408163267 464.42090302831525 3729.8061224489797 464.903684268066 3708.0102040816328 465.37946867825525 3686.214285714286 465.827265770198 3664.418367346939 466.3310374986335 3642.622448979592 466.83480922706906 3620.826530612245 467.34557778506615 3599.030612244898 467.7653875587625 3577.234693877551 468.269159287198 3555.4387755102043 468.7589373565103 3533.6428571428573 469.22772493713774 3511.8469387755104 469.47261397179403 3490.0510204081634 469.6965125177655 3468.2551020408164 470.1303159505849 3446.4591836734694 470.56411938340443 3424.6632653061224 471.1868372143873 3402.8673469387754 471.59965015852197 3381.0714285714284 472.0404504209031 3359.2755102040815 472.4952443424073 3337.4795918367345 472.99901607084297 3315.683673469388 473.4957909697169 3293.887755102041 473.95758172078274 3272.091836734694 474.45435661965683 3250.295918367347 474.94413468896903 3228.5 475.28697933748765 3228.5 548.8936263255712Z" fill="#55c0e9" opacity="0.9" />
		</g>
		<g>
			<path d="M3228.5 475.28697933748765 3250.295918367347 474.94413468896903 3272.091836734694 474.45435661965683 3293.887755102041 473.95758172078274 3315.683673469388 473.4957909697169 3337.4795918367345 472.99901607084297 3359.2755102040815 472.4952443424073 3381.0714285714284 472.0404504209031 3402.8673469387754 471.59965015852197 3424.6632653061224 471.1868372143873 3446.4591836734694 470.56411938340443 3468.2551020408164 470.1303159505849 3490.0510204081634 469.6965125177655 3511.8469387755104 469.47261397179403 3533.6428571428573 469.22772493713774 3555.4387755102043 468.7589373565103 3577.234693877551 468.269159287198 3599.030612244898 467.7653875587625 3620.826530612245 467.34557778506615 3642.622448979592 466.83480922706906 3664.418367346939 466.3310374986335 3686.214285714286 465.827265770198 3708.0102040816328 465.37946867825525 3729.8061224489797 464.903684268066 3751.6020408163267 464.42090302831525 3773.3979591836733 463.896140811195 3795.1938775510203 463.3783754236361 3816.9897959183672 462.88859735432374 3838.785714285714 462.32185415983383 3860.581632653061 461.7551109653438 3882.377551020408 461.328304362086 3904.173469387755 460.7685579971576 3925.969387755102 460.2857767574067 3947.765306122449 459.7959986880944 3969.5612244897957 459.2362523231661 3991.357142857143 458.24969935497984 4013.1530612244896 457.6199846944353 4034.9489795918366 457.0392478408221 4056.7448979591836 456.4795014758938 4078.5408163265306 455.961736088335 4100.336734693878 455.4439707007762 4122.132653061224 454.8912211654094 4143.928571428572 454.4504209030284 4165.724489795918 453.85569039029195 4187.5204081632655 453.3239313436099 4209.316326530612 452.8131627856127 4231.1122448979595 452.3653656936702 4252.908163265306 452.1064829998908 4274.7040816326535 451.6726795670712 4296.5 451.17590466819723 4296.5 399.3014102984585 4274.7040816326535 399.966109106811 4252.908163265306 400.58183010823234 4231.1122448979595 400.9386684158742 4209.316326530612 401.56138624685684 4187.5204081632655 402.28205969170216 4165.724489795918 402.98174264786275 4143.928571428572 403.6394446266536 4122.132653061224 404.2481687985131 4100.336734693878 404.89187711818084 4078.5408163265306 405.57756641521814 4056.7448979591836 406.27025254181706 4034.9489795918366 406.94894500929263 4013.1530612244896 407.66961845413795 3991.357142857143 408.3832950694217 3969.5612244897957 409.6287307313874 3947.765306122449 410.32841368754777 3925.969387755102 411.03509347326985 3904.173469387755 411.62282715644477 3882.377551020408 412.30851645348207 3860.581632653061 412.81928501147917 3838.785714285714 413.52596479720125 3816.9897959183672 414.2746255602929 3795.1938775510203 414.9533180277686 3773.3979591836733 415.61801683612117 3751.6020408163267 416.3246966218432 3729.8061224489797 417.0103859188805 3708.0102040816328 417.7380561932875 3686.214285714286 418.4307423198864 3664.418367346939 419.1374221056085 3642.622448979592 419.8441018913306 3620.826530612245 420.5367880179294 3599.030612244898 421.15950584891226 3577.234693877551 421.8801792937576 3555.4387755102043 422.5728654203563 3533.6428571428573 423.27954520607835 3511.8469387755104 423.5664152181043 3490.0510204081634 423.8672788892534 3468.2551020408164 424.53897452716734 3446.4591836734694 425.2316606537663 3424.6632653061224 426.442112167924 3402.8673469387754 427.0928173171532 3381.0714285714284 427.7575161255057 3359.2755102040815 428.44320542254286 3337.4795918367345 429.1288947195803 3315.683673469388 429.82857767574075 3293.887755102041 430.51426697277793 3272.091836734694 431.19995626981535 3250.295918367347 431.87864873729086 3228.5 432.40341095441124 3228.5 475.28697933748765Z" fill="#fdd5a4" opacity="0.9" />
		</g>
		<g>
			<path d="M3228.5 432.40341095441124 3250.295918367347 431.87864873729086 3272.091836734694 431.19995626981535 3293.887755102041 430.51426697277793 3315.683673469388 429.82857767574075 3337.4795918367345 429.1288947195803 3359.2755102040815 428.44320542254286 3381.0714285714284 427.7575161255057 3402.8673469387754 427.0928173171532 3424.6632653061224 426.442112167924 3446.4591836734694 425.2316606537663 3468.2551020408164 424.53897452716734 3490.0510204081634 423.8672788892534 3511.8469387755104 423.5664152181043 3533.6428571428573 423.27954520607835 3555.4387755102043 422.5728654203563 3577.234693877551 421.8801792937576 3599.030612244898 421.15950584891226 3620.826530612245 420.5367880179294 3642.622448979592 419.8441018913306 3664.418367346939 419.1374221056085 3686.214285714286 418.4307423198864 3708.0102040816328 417.7380561932875 3729.8061224489797 417.0103859188805 3751.6020408163267 416.3246966218432 3773.3979591836733 415.61801683612117 3795.1938775510203 414.9533180277686 3816.9897959183672 414.2746255602929 3838.785714285714 413.52596479720125 3860.581632653061 412.81928501147917 3882.377551020408 412.30851645348207 3904.173469387755 411.62282715644477 3925.969387755102 411.03509347326985 3947.765306122449 410.32841368754777 3969.5612244897957 409.6287307313874 3991.357142857143 408.3832950694217 4013.1530612244896 407.66961845413795 4034.9489795918366 406.94894500929263 4056.7448979591836 406.27025254181706 4078.5408163265306 405.57756641521814 4100.336734693878 404.89187711818084 4122.132653061224 404.2481687985131 4143.928571428572 403.6394446266536 4165.724489795918 402.98174264786275 4187.5204081632655 402.28205969170216 4209.316326530612 401.56138624685684 4231.1122448979595 400.9386684158742 4252.908163265306 400.58183010823234 4274.7040816326535 399.966109106811 4296.5 399.3014102984585 4296.5 398 4274.7040816326535 398.6646988083525 4252.908163265306 399.28041980977383 4231.1122448979595 399.6372581174157 4209.316326530612 400.25997594839833 4187.5204081632655 400.98064939324365 4165.724489795918 401.68033234940424 4143.928571428572 402.3380343281951 4122.132653061224 402.9467585000546 4100.336734693878 403.59046681972234 4078.5408163265306 404.27615611675964 4056.7448979591836 404.96884224335855 4034.9489795918366 405.6475347108341 4013.1530612244896 406.36820815567944 3991.357142857143 407.0818847709632 3969.5612244897957 408.3273204329289 3947.765306122449 409.02700338908926 3925.969387755102 409.73368317481135 3904.173469387755 410.32141685798626 3882.377551020408 411.00710615502356 3860.581632653061 411.51787471302066 3838.785714285714 412.22455449874275 3816.9897959183672 412.9732152618344 3795.1938775510203 413.6519077293101 3773.3979591836733 414.31660653766266 3751.6020408163267 415.0232863233847 3729.8061224489797 415.708975620422 3708.0102040816328 416.436645894829 3686.214285714286 417.1293320214279 3664.418367346939 417.83601180715 3642.622448979592 418.5426915928721 3620.826530612245 419.2353777194709 3599.030612244898 419.85809555045375 3577.234693877551 420.5787689952991 3555.4387755102043 421.2714551218978 3533.6428571428573 421.97813490761985 3511.8469387755104 422.2650049196458 3490.0510204081634 422.5658685907949 3468.2551020408164 423.23756422870883 3446.4591836734694 423.9302503553078 3424.6632653061224 425.1407018694655 3402.8673469387754 425.7914070186947 3381.0714285714284 426.45610582704717 3359.2755102040815 427.14179512408435 3337.4795918367345 427.8344812506834 3315.683673469388 428.54116103640547 3293.887755102041 429.22685033344266 3272.091836734694 429.91253963048007 3250.295918367347 430.5912320979556 3228.5 431.11599431507597 3228.5 432.40341095441124Z" fill="#005aa6" opacity="0.9" />
		</g>
		<g>
			<rect x="4372" y="431" width="22.9995" height="23" fill="#e62d39" />
		</g>
		<g>
			<text fill="#595959" font-family="Verdana,Open Sans,DejaVu Sans,sans-serif" font-weight="400" font-size="41" transform="matrix(1 0 0 1 4404.56 454)">Smartphone</text>
		</g>
		<g>
			<rect x="4372" y="508" width="22.9995" height="23" fill="#f6a118" />
		</g>
		<g>
			<text fill="#595959" font-family="Verdana,Open Sans,DejaVu Sans,sans-serif" font-weight="400" font-size="41" transform="matrix(1 0 0 1 4404.56 531)">Tablet</text>
		</g>
		<g>
			<rect x="4372" y="585" width="22.9995" height="23" fill="#55c0e9" />
		</g>
		<g>
			<text fill="#595959" font-family="Verdana,Open Sans,DejaVu Sans,sans-serif" font-weight="400" font-size="41" transform="matrix(1 0 0 1 4404.56 608)">Other</text>
		</g>
		<g>
			<rect x="4372" y="662" width="22.9995" height="23" fill="#fdd5a4" />
		</g>
		<g>
			<text fill="#595959" font-family="Verdana,Open Sans,DejaVu Sans,sans-serif" font-weight="400" font-size="41" transform="matrix(1 0 0 1 4404.56 685)">Tv</text>
		</g>
		<g>
			<rect x="4372" y="739" width="22.9995" height="23" fill="#005aa6" />
		</g>
		<g>
			<text fill="#595959" font-family="Verdana,Open Sans,DejaVu Sans,sans-serif" font-weight="400" font-size="41" transform="matrix(1 0 0 1 4404.56 762)">Desktop</text>
		</g>
	</g>
</svg>
