<svg width="1763" height="1046"
    xmlns="http://www.w3.org/2000/svg"
	xmlns:xlink="http://www.w3.org/1999/xlink" xml:space="preserve" overflow="hidden">
	<defs>
		<clipPath id="clip0">
			<rect x="2917" y="346" width="1763" height="1046"/>
		</clipPath>
	</defs>
	<g clip-path="url(#clip0)" transform="translate(-2917 -346)">
		<rect x="2918" y="347" width="1760" height="1043" fill="#FFFFFF" />
		<g>
			<path d="
			M3228.5 974.532 4296.5 974.532
			M3228.5 910.53 4296.5 910.53
			M3228.5 846.528 4296.5 846.528
			M3228.5 781.526 4296.5 781.526
			M3228.5 717.524 4296.5 717.524
			M3228.5 653.522 4296.5 653.522
			M3228.5 589.52 4296.5 589.52
			M3228.5 525.517 4296.5 525.517
			M3228.5 461.515 4296.5 461.515
			M3228.5 397.5 4296.5 397.5" stroke="#D9D9D9" stroke-width="3.4375" stroke-linejoin="round" stroke-miterlimit="10" fill="none" />
		</g>
		<g>
			<path d="M 1038.5 4296.5 1038.5" stroke="#D9D9D9" stroke-width="3.4375" stroke-linejoin="round" stroke-miterlimit="10" fill="none" fill-rule="evenodd" />
		</g>
		<g>
			<text fill="#595959" font-family="Verdana,Open Sans,DejaVu Sans,sans-serif" font-weight="400" font-size="41" transform="matrix(6.12323e-17 -1 1 6.12323e-17 3243.564697265625 1207.0859375)">09-Dec</text>
		</g>
		<g>
			<text fill="#595959" font-family="Verdana,Open Sans,DejaVu Sans,sans-serif" font-weight="400" font-size="41" transform="matrix(6.12323e-17 -1 1 6.12323e-17 3334.401935188138 1191.6508712768555)">06-Jan</text>
		</g>
		<g>
			<text fill="#595959" font-family="Verdana,Open Sans,DejaVu Sans,sans-serif" font-weight="400" font-size="41" transform="matrix(6.12323e-17 -1 1 6.12323e-17 3418.6427375637754 1203.0419921875)">03-Feb</text>
		</g>
		<g>
			<text fill="#595959" font-family="Verdana,Open Sans,DejaVu Sans,sans-serif" font-weight="400" font-size="41" transform="matrix(6.12323e-17 -1 1 6.12323e-17 3505.1157176737884 1212.0107421875)">03-Mar</text>
		</g>
		<g>
			<text fill="#595959" font-family="Verdana,Open Sans,DejaVu Sans,sans-serif" font-weight="400" font-size="41" transform="matrix(6.12323e-17 -1 1 6.12323e-17 3592.279371611926 1212.1708984375)">31-Mar</text>
		</g>
		<g>
			<text fill="#595959" font-family="Verdana,Open Sans,DejaVu Sans,sans-serif" font-weight="400" font-size="41" transform="matrix(6.12323e-17 -1 1 6.12323e-17 3684.187654456314 1203.3022384643555)">28-Apr</text>
		</g>
		<g>
			<text fill="#595959" font-family="Verdana,Open Sans,DejaVu Sans,sans-serif" font-weight="400" font-size="41" transform="matrix(6.12323e-17 -1 1 6.12323e-17 3771.3713279257017 1216.51513671875)">26-May</text>
		</g>
		<g>
			<text fill="#595959" font-family="Verdana,Open Sans,DejaVu Sans,sans-serif" font-weight="400" font-size="41" transform="matrix(6.12323e-17 -1 1 6.12323e-17 3857.503976004464 1194.1733322143555)">30-Jun</text>
		</g>
		<g>
			<text fill="#595959" font-family="Verdana,Open Sans,DejaVu Sans,sans-serif" font-weight="400" font-size="41" transform="matrix(6.12323e-17 -1 1 6.12323e-17 3945.398342833227 1179.0385665893555)">28-Jul</text>
		</g>
		<g>
			<text fill="#595959" font-family="Verdana,Open Sans,DejaVu Sans,sans-serif" font-weight="400" font-size="41" transform="matrix(6.12323e-17 -1 1 6.12323e-17 4032.9223483338646 1208.66748046875)">25-Aug</text>
		</g>
		<g>
			<text fill="#595959" font-family="Verdana,Open Sans,DejaVu Sans,sans-serif" font-weight="400" font-size="41" transform="matrix(6.12323e-17 -1 1 6.12323e-17 4120.106021803253 1204.42333984375)">22-Sep</text>
		</g>
		<g>
			<text fill="#595959" font-family="Verdana,Open Sans,DejaVu Sans,sans-serif" font-weight="400" font-size="41" transform="matrix(6.12323e-17 -1 1 6.12323e-17 4202.5851054288905 1201.1401290893555)">20-Oct</text>
		</g>
		<g>
			<text fill="#595959" font-family="Verdana,Open Sans,DejaVu Sans,sans-serif" font-weight="400" font-size="41" transform="matrix(6.12323e-17 -1 1 6.12323e-17 4289.5385542889035 1209.70849609375)">17-Nov</text>
		</g>
		<g>
			<text fill="#595959" font-family="Verdana,Open Sans,DejaVu Sans,sans-serif" font-weight="400" font-size="41" transform="matrix(1 0 0 1 3169.14111328125 1050)">0</text>
		</g>
		<g>
			<text fill="#595959" font-family="Verdana,Open Sans,DejaVu Sans,sans-serif" font-weight="400" font-size="41" transform="matrix(1 0 0 1 3067.2016677856445 922)">18,459</text>
		</g>
		<g>
			<text fill="#595959" font-family="Verdana,Open Sans,DejaVu Sans,sans-serif" font-weight="400" font-size="41" transform="matrix(1 0 0 1 3065.3198318481445 794)">36,919</text>
		</g>
		<g>
			<text fill="#595959" font-family="Verdana,Open Sans,DejaVu Sans,sans-serif" font-weight="400" font-size="41" transform="matrix(1 0 0 1 3066.0205154418945 666)">55,378</text>
		</g>
		<g>
			<text fill="#595959" font-family="Verdana,Open Sans,DejaVu Sans,sans-serif" font-weight="400" font-size="41" transform="matrix(1 0 0 1 3065.2397537231445 538)">73,838</text>
		</g>
		<g>
			<text fill="#595959" font-family="Verdana,Open Sans,DejaVu Sans,sans-serif" font-weight="400" font-size="41" transform="matrix(1 0 0 1 3065.4399490356445 410)">92,297</text>
		</g>
		<g>
			<text fill="#595959" font-family="Verdana,Open Sans,DejaVu Sans,sans-serif" font-weight="400" font-size="41" transform="matrix(1 0 0 1 3556.97119140625 1321)">Week Commencing</text>
		</g>
		<g>
			<text fill="#595959" font-family="Verdana,Open Sans,DejaVu Sans,sans-serif" font-weight="400" font-size="46" transform="matrix(6.12323e-17 -1 1 6.12323e-17 3019.73 1028.5532531738281)">Number of Hardware Profiles</text>
		</g>
		<rect x="2918.5" y="347.5" width="1760" height="1043" stroke="#D9D9D9" stroke-width="3.4375" stroke-linejoin="round" stroke-miterlimit="10" fill="none" />
		<g>
			<path d="M3228.5 1038 3250.295918367347 1038 3272.091836734694 1038 3293.887755102041 1038 3315.683673469388 1038 3337.4795918367345 1038 3359.2755102040815 1038 3381.0714285714284 1038 3402.8673469387754 1038 3424.6632653061224 1038 3446.4591836734694 1038 3468.2551020408164 1038 3490.0510204081634 1038 3511.8469387755104 1038 3533.6428571428573 1038 3555.4387755102043 1038 3577.234693877551 1038 3599.030612244898 1038 3620.826530612245 1038 3642.622448979592 1038 3664.418367346939 1038 3686.214285714286 1038 3708.0102040816328 1038 3729.8061224489797 1038 3751.6020408163267 1038 3773.3979591836733 1038 3795.1938775510203 1038 3816.9897959183672 1038 3838.785714285714 1038 3860.581632653061 1038 3882.377551020408 1038 3904.173469387755 1038 3925.969387755102 1038 3947.765306122449 1038 3969.5612244897957 1038 3991.357142857143 1038 4013.1530612244896 1038 4034.9489795918366 1038 4056.7448979591836 1038 4078.5408163265306 1038 4100.336734693878 1038 4122.132653061224 1038 4143.928571428572 1038 4165.724489795918 1038 4187.5204081632655 1038 4209.316326530612 1038 4231.1122448979595 1038 4252.908163265306 1038 4274.7040816326535 1038 4296.5 1038 4296.5 692.4581080641841 4274.7040816326535 692.6591980237711 4252.908163265306 692.8394855737456 4231.1122448979595 693.0197731237201 4209.316326530612 693.2832703121445 4187.5204081632655 693.5814381832563 4165.724489795918 693.8171988255306 4143.928571428572 694.0737618774175 4122.132653061224 694.4135345677541 4100.336734693878 694.8226486234655 4078.5408163265306 695.1832237234146 4056.7448979591836 695.5021940041388 4034.9489795918366 695.8142301483256 4013.1530612244896 696.0153201079125 3991.357142857143 696.3412245251742 3969.5612244897957 696.611655850136 3947.765306122449 696.9306261308602 3925.969387755102 697.3258719134967 3904.173469387755 697.617105648071 3882.377551020408 697.8875369730328 3860.581632653061 698.220375526832 3838.785714285714 698.5393458075561 3816.9897959183672 698.8305795421303 3795.1938775510203 699.1980887786169 3773.3979591836733 699.6488076535531 3751.6020408163267 700.1966044400143 3729.8061224489797 700.5641136765009 3708.0102040816328 700.8900180937626 3686.214285714286 701.2713956033241 3664.418367346939 701.6389048398106 3642.622448979592 701.9440068474598 3620.826530612245 702.2976478108715 3599.030612244898 702.6443546377456 3577.234693877551 702.9425225088573 3555.4387755102043 703.268426926119 3533.6428571428573 703.6498044356805 3511.8469387755104 703.9895771260171 3490.0510204081634 704.3432180894288 3468.2551020408164 704.634451824003 3446.4591836734694 705.022763470102 3424.6632653061224 705.3764044335136 3402.8673469387754 705.7647160796125 3381.0714285714284 706.1044887699493 3359.2755102040815 706.402656641061 3337.4795918367345 706.6869562390978 3315.683673469388 706.9573875640594 3293.887755102041 707.1515433871091 3272.091836734694 707.3318309370836 3250.295918367347 707.6022622620453 3228.5 707.9767056350695 3228.5 1038Z" fill="#e62d39" opacity="0.9" />
		</g>
		<g>
			<path d="M3228.5 707.9767056350695 3250.295918367347 707.6022622620453 3272.091836734694 707.3318309370836 3293.887755102041 707.1515433871091 3315.683673469388 706.9573875640594 3337.4795918367345 706.6869562390978 3359.2755102040815 706.402656641061 3381.0714285714284 706.1044887699493 3402.8673469387754 705.7647160796125 3424.6632653061224 705.3764044335136 3446.4591836734694 705.022763470102 3468.2551020408164 704.634451824003 3490.0510204081634 704.3432180894288 3511.8469387755104 703.9895771260171 3533.6428571428573 703.6498044356805 3555.4387755102043 703.268426926119 3577.234693877551 702.9425225088573 3599.030612244898 702.6443546377456 3620.826530612245 702.2976478108715 3642.622448979592 701.9440068474598 3664.418367346939 701.6389048398106 3686.214285714286 701.2713956033241 3708.0102040816328 700.8900180937626 3729.8061224489797 700.5641136765009 3751.6020408163267 700.1966044400143 3773.3979591836733 699.6488076535531 3795.1938775510203 699.1980887786169 3816.9897959183672 698.8305795421303 3838.785714285714 698.5393458075561 3860.581632653061 698.220375526832 3882.377551020408 697.8875369730328 3904.173469387755 697.617105648071 3925.969387755102 697.3258719134967 3947.765306122449 696.9306261308602 3969.5612244897957 696.611655850136 3991.357142857143 696.3412245251742 4013.1530612244896 696.0153201079125 4034.9489795918366 695.8142301483256 4056.7448979591836 695.5021940041388 4078.5408163265306 695.1832237234146 4100.336734693878 694.8226486234655 4122.132653061224 694.4135345677541 4143.928571428572 694.0737618774175 4165.724489795918 693.8171988255306 4187.5204081632655 693.5814381832563 4209.316326530612 693.2832703121445 4231.1122448979595 693.0197731237201 4252.908163265306 692.8394855737456 4274.7040816326535 692.6591980237711 4296.5 692.4581080641841 4296.5 527.0858857817698 4274.7040816326535 527.3563171067315 4252.908163265306 527.6475508413058 4231.1122448979595 527.952652848955 4209.316326530612 528.368701041204 4187.5204081632655 528.8055516430654 4165.724489795918 529.2215998353142 4143.928571428572 529.6307138910257 4122.132653061224 530.1438399947995 4100.336734693878 530.6777685081855 4078.5408163265306 531.1423556561967 4056.7448979591836 531.5930745311332 4034.9489795918366 532.0091227233822 4013.1530612244896 532.2379492291191 3991.357142857143 532.6262608752181 3969.5612244897957 533.0492432040045 3947.765306122449 533.5485010347032 3925.969387755102 534.1171002307768 3904.173469387755 534.5400825595632 3882.377551020408 535.0532086633368 3860.581632653061 535.5247299478857 3838.785714285714 536.0239877785843 3816.9897959183672 536.5232456092831 3795.1938775510203 537.0641082592067 3773.3979591836733 537.6535098648926 3751.6020408163267 538.534145205153 3729.8061224489797 539.0334030358517 3708.0102040816328 539.4633195011756 3686.214285714286 539.9209725126494 3664.418367346939 540.4063620702732 3642.622448979592 540.8016078529097 3620.826530612245 541.3424705028333 3599.030612244898 541.841728333532 3577.234693877551 542.3063154815434 3555.4387755102043 542.8125074487796 3533.6428571428573 543.3117652794782 3511.8469387755104 543.7555500178771 3490.0510204081634 544.2062688928136 3468.2551020408164 544.5945805389125 3446.4591836734694 545.0522335503863 3424.6632653061224 545.5445572445476 3402.8673469387754 546.0368809387087 3381.0714285714284 546.4390608578829 3359.2755102040815 546.8897797328191 3337.4795918367345 547.333564471218 3315.683673469388 547.7565468000043 3293.887755102041 547.9923074422788 3272.091836734694 548.2003315384032 3250.295918367347 548.5886431845022 3228.5 549.0046913767512 3228.5 707.9767056350695Z" fill="#f6a118" opacity="0.9" />
		</g>
		<g>
			<path d="M3228.5 549.0046913767512 3250.295918367347 548.5886431845022 3272.091836734694 548.2003315384032 3293.887755102041 547.9923074422788 3315.683673469388 547.7565468000043 3337.4795918367345 547.333564471218 3359.2755102040815 546.8897797328191 3381.0714285714284 546.4390608578829 3402.8673469387754 546.0368809387087 3424.6632653061224 545.5445572445476 3446.4591836734694 545.0522335503863 3468.2551020408164 544.5945805389125 3490.0510204081634 544.2062688928136 3511.8469387755104 543.7555500178771 3533.6428571428573 543.3117652794782 3555.4387755102043 542.8125074487796 3577.234693877551 542.3063154815434 3599.030612244898 541.841728333532 3620.826530612245 541.3424705028333 3642.622448979592 540.8016078529097 3664.418367346939 540.4063620702732 3686.214285714286 539.9209725126494 3708.0102040816328 539.4633195011756 3729.8061224489797 539.0334030358517 3751.6020408163267 538.534145205153 3773.3979591836733 537.6535098648926 3795.1938775510203 537.0641082592067 3816.9897959183672 536.5232456092831 3838.785714285714 536.0239877785843 3860.581632653061 535.5247299478857 3882.377551020408 535.0532086633368 3904.173469387755 534.5400825595632 3925.969387755102 534.1171002307768 3947.765306122449 533.5485010347032 3969.5612244897957 533.0492432040045 3991.357142857143 532.6262608752181 4013.1530612244896 532.2379492291191 4034.9489795918366 532.0091227233822 4056.7448979591836 531.5930745311332 4078.5408163265306 531.1423556561967 4100.336734693878 530.6777685081855 4122.132653061224 530.1438399947995 4143.928571428572 529.6307138910257 4165.724489795918 529.2215998353142 4187.5204081632655 528.8055516430654 4209.316326530612 528.368701041204 4231.1122448979595 527.952652848955 4252.908163265306 527.6475508413058 4274.7040816326535 527.3563171067315 4296.5 527.0858857817698 4296.5 451.85050435008725 4274.7040816326535 452.12786981158644 4252.908163265306 452.4537742288482 4231.1122448979595 452.8074151922598 4209.316326530612 453.32747543257096 4187.5204081632655 453.81286499019484 4165.724489795918 454.277452138206 4143.928571428572 454.73510514967984 4122.132653061224 455.3661115745908 4100.336734693878 455.94164490720175 4078.5408163265306 456.4339686013629 4056.7448979591836 456.92629229552426 4034.9489795918366 457.35620876084823 4013.1530612244896 457.612771812735 3991.357142857143 458.0565565511339 3969.5612244897957 458.5627485183701 3947.765306122449 459.08974289521876 3925.969387755102 459.6791445009048 3904.173469387755 460.11599510276614 3882.377551020408 460.6637918892271 3860.581632653061 461.1769179930009 3838.785714285714 461.69004409677456 3816.9897959183672 462.24477501977316 3795.1938775510203 462.8203083523842 3773.3979591836733 463.44438064075746 3751.6020408163267 464.4220938925426 3729.8061224489797 464.97682481554125 3708.0102040816328 465.462214373165 3686.214285714286 465.9406697942512 3664.418367346939 466.4954007172498 3642.622448979592 466.91838304603624 3620.826530612245 467.4800481055723 3599.030612244898 468.0417131651084 3577.234693877551 468.52710272273214 3555.4387755102043 469.0402288265058 3533.6428571428573 469.5602890668169 3511.8469387755104 470.0387444879032 3490.0510204081634 470.51026577245216 3468.2551020408164 470.95405051085095 3446.4591836734694 471.4533083415496 3424.6632653061224 471.9525661722484 3402.8673469387754 472.4587581394845 3381.0714285714284 472.87480633173357 3359.2755102040815 473.3740641624322 3337.4795918367345 473.85945372005597 3315.683673469388 474.32404086806724 3293.887755102041 474.56673564687924 3272.091836734694 474.7886280160786 3250.295918367347 475.21854448140243 3228.5 475.6484609467264 3228.5 549.0046913767512Z" fill="#55c0e9" opacity="0.9" />
		</g>
		<g>
			<path d="M3228.5 475.6484609467264 3250.295918367347 475.21854448140243 3272.091836734694 474.7886280160786 3293.887755102041 474.56673564687924 3315.683673469388 474.32404086806724 3337.4795918367345 473.85945372005597 3359.2755102040815 473.3740641624322 3381.0714285714284 472.87480633173357 3402.8673469387754 472.4587581394845 3424.6632653061224 471.9525661722484 3446.4591836734694 471.4533083415496 3468.2551020408164 470.95405051085095 3490.0510204081634 470.51026577245216 3511.8469387755104 470.0387444879032 3533.6428571428573 469.5602890668169 3555.4387755102043 469.0402288265058 3577.234693877551 468.52710272273214 3599.030612244898 468.0417131651084 3620.826530612245 467.4800481055723 3642.622448979592 466.91838304603624 3664.418367346939 466.4954007172498 3686.214285714286 465.9406697942512 3708.0102040816328 465.462214373165 3729.8061224489797 464.97682481554125 3751.6020408163267 464.4220938925426 3773.3979591836733 463.44438064075746 3795.1938775510203 462.8203083523842 3816.9897959183672 462.24477501977316 3838.785714285714 461.69004409677456 3860.581632653061 461.1769179930009 3882.377551020408 460.6637918892271 3904.173469387755 460.11599510276614 3925.969387755102 459.6791445009048 3947.765306122449 459.08974289521876 3969.5612244897957 458.5627485183701 3991.357142857143 458.0565565511339 4013.1530612244896 457.612771812735 4034.9489795918366 457.35620876084823 4056.7448979591836 456.92629229552426 4078.5408163265306 456.4339686013629 4100.336734693878 455.94164490720175 4122.132653061224 455.3661115745908 4143.928571428572 454.73510514967984 4165.724489795918 454.277452138206 4187.5204081632655 453.81286499019484 4209.316326530612 453.32747543257096 4231.1122448979595 452.8074151922598 4252.908163265306 452.4537742288482 4274.7040816326535 452.12786981158644 4296.5 451.85050435008725 4296.5 399.28974939597174 4274.7040816326535 399.6919293151456 4252.908163265306 400.1357140535446 4231.1122448979595 400.64190602078077 4209.316326530612 401.30064899184157 4187.5204081632655 401.80684095907793 4165.724489795918 402.46558393013856 4143.928571428572 403.0827220819745 4122.132653061224 403.7692015991853 4100.336734693878 404.4972859356209 4078.5408163265306 405.02428031246944 4056.7448979591836 405.68302328353036 4034.9489795918366 406.29322729882887 4013.1530612244896 406.6468682622404 3991.357142857143 407.26400641407633 3969.5612244897957 407.97822247743704 3947.765306122449 408.67163613118527 3925.969387755102 409.32344496570863 3904.173469387755 409.92671484446953 3882.377551020408 410.5646554059178 3860.581632653061 411.2442007865912 3838.785714285714 411.93068030380186 3816.9897959183672 412.60329154793766 3795.1938775510203 413.31750761129837 3773.3979591836733 414.0247895381214 3751.6020408163267 415.25906584179336 3729.8061224489797 415.9524794955417 3708.0102040816328 416.6528272858274 3686.214285714286 417.2352947549758 3664.418367346939 417.9148401356491 3642.622448979592 418.4210321028853 3620.826530612245 419.121379893171 3599.030612244898 419.86333250268166 3577.234693877551 420.53594374681745 3555.4387755102043 421.19468671787826 3533.6428571428573 421.89503450816386 3511.8469387755104 422.57457988883715 3490.0510204081634 423.29573008873547 3468.2551020408164 423.98220960594614 3446.4591836734694 424.68255739623174 3424.6632653061224 425.3829051865176 3402.8673469387754 426.0693847037282 3381.0714285714284 426.68652285556425 3359.2755102040815 427.40073891892484 3337.4795918367345 428.0872184361356 3315.683673469388 428.78756622642123 3293.887755102041 429.07186582445814 3272.091836734694 429.37003369556976 3250.295918367347 430.03571080316806 3228.5 430.72219032037884 3228.5 475.6484609467264Z" fill="#fdd5a4" opacity="0.9" />
		</g>
		<g>
			<path d="M3228.5 430.72219032037884 3250.295918367347 430.03571080316806 3272.091836734694 429.37003369556976 3293.887755102041 429.07186582445814 3315.683673469388 428.78756622642123 3337.4795918367345 428.0872184361356 3359.2755102040815 427.40073891892484 3381.0714285714284 426.68652285556425 3402.8673469387754 426.0693847037282 3424.6632653061224 425.3829051865176 3446.4591836734694 424.68255739623174 3468.2551020408164 423.98220960594614 3490.0510204081634 423.29573008873547 3511.8469387755104 422.57457988883715 3533.6428571428573 421.89503450816386 3555.4387755102043 421.19468671787826 3577.234693877551 420.53594374681745 3599.030612244898 419.86333250268166 3620.826530612245 419.121379893171 3642.622448979592 418.4210321028853 3664.418367346939 417.9148401356491 3686.214285714286 417.2352947549758 3708.0102040816328 416.6528272858274 3729.8061224489797 415.9524794955417 3751.6020408163267 415.25906584179336 3773.3979591836733 414.0247895381214 3795.1938775510203 413.31750761129837 3816.9897959183672 412.60329154793766 3838.785714285714 411.93068030380186 3860.581632653061 411.2442007865912 3882.377551020408 410.5646554059178 3904.173469387755 409.92671484446953 3925.969387755102 409.32344496570863 3947.765306122449 408.67163613118527 3969.5612244897957 407.97822247743704 3991.357142857143 407.26400641407633 4013.1530612244896 406.6468682622404 4034.9489795918366 406.29322729882887 4056.7448979591836 405.68302328353036 4078.5408163265306 405.02428031246944 4100.336734693878 404.4972859356209 4122.132653061224 403.7692015991853 4143.928571428572 403.0827220819745 4165.724489795918 402.46558393013856 4187.5204081632655 401.80684095907793 4209.316326530612 401.30064899184157 4231.1122448979595 400.64190602078077 4252.908163265306 400.1357140535446 4274.7040816326535 399.6919293151456 4296.5 399.28974939597174 4296.5 398.00000000000006 4274.7040816326535 398.40217991917393 4252.908163265306 398.8459646575729 4231.1122448979595 399.3521566248091 4209.316326530612 400.0108995958699 4187.5204081632655 400.51709156310625 4165.724489795918 401.1758345341669 4143.928571428572 401.7929726860028 4122.132653061224 402.4794522032136 4100.336734693878 403.2075365396492 4078.5408163265306 403.73453091649776 4056.7448979591836 404.3932738875587 4034.9489795918366 405.0034779028572 4013.1530612244896 405.3571188662687 3991.357142857143 405.97425701810465 3969.5612244897957 406.68847308146536 3947.765306122449 407.3818867352136 3925.969387755102 408.03369556973695 3904.173469387755 408.63696544849785 3882.377551020408 409.2749060099461 3860.581632653061 409.9544513906195 3838.785714285714 410.6409309078302 3816.9897959183672 411.313542151966 3795.1938775510203 412.0277582153267 3773.3979591836733 412.7350401421497 3751.6020408163267 413.9693164458217 3729.8061224489797 414.66273009957 3708.0102040816328 415.36307788985573 3686.214285714286 415.94554535900414 3664.418367346939 416.62509073967743 3642.622448979592 417.1312827069136 3620.826530612245 417.83163049719934 3599.030612244898 418.57358310671 3577.234693877551 419.24619435084577 3555.4387755102043 419.9049373219066 3533.6428571428573 420.6052851121922 3511.8469387755104 421.28483049286547 3490.0510204081634 422.0059806927638 3468.2551020408164 422.69246020997446 3446.4591836734694 423.39280800026006 3424.6632653061224 424.0931557905459 3402.8673469387754 424.7796353077565 3381.0714285714284 425.39677345959257 3359.2755102040815 426.11098952295316 3337.4795918367345 426.7974690401639 3315.683673469388 427.49781683044955 3293.887755102041 427.78211642848646 3272.091836734694 428.0802842995981 3250.295918367347 428.7459614071964 3228.5 429.43244092440716 3228.5 430.72219032037884Z" fill="#005aa6" opacity="0.9" />
		</g>
		<g>
			<rect x="4372" y="431" width="22.9995" height="23" fill="#e62d39" />
		</g>
		<g>
			<text fill="#595959" font-family="Verdana,Open Sans,DejaVu Sans,sans-serif" font-weight="400" font-size="41" transform="matrix(1 0 0 1 4404.56 454)">Smartphone</text>
		</g>
		<g>
			<rect x="4372" y="508" width="22.9995" height="23" fill="#f6a118" />
		</g>
		<g>
			<text fill="#595959" font-family="Verdana,Open Sans,DejaVu Sans,sans-serif" font-weight="400" font-size="41" transform="matrix(1 0 0 1 4404.56 531)">Tablet</text>
		</g>
		<g>
			<rect x="4372" y="585" width="22.9995" height="23" fill="#55c0e9" />
		</g>
		<g>
			<text fill="#595959" font-family="Verdana,Open Sans,DejaVu Sans,sans-serif" font-weight="400" font-size="41" transform="matrix(1 0 0 1 4404.56 608)">Other</text>
		</g>
		<g>
			<rect x="4372" y="662" width="22.9995" height="23" fill="#fdd5a4" />
		</g>
		<g>
			<text fill="#595959" font-family="Verdana,Open Sans,DejaVu Sans,sans-serif" font-weight="400" font-size="41" transform="matrix(1 0 0 1 4404.56 685)">Tv</text>
		</g>
		<g>
			<rect x="4372" y="739" width="22.9995" height="23" fill="#005aa6" />
		</g>
		<g>
			<text fill="#595959" font-family="Verdana,Open Sans,DejaVu Sans,sans-serif" font-weight="400" font-size="41" transform="matrix(1 0 0 1 4404.56 762)">Desktop</text>
		</g>
	</g>
</svg>
