<svg width="1763" height="1046"
    xmlns="http://www.w3.org/2000/svg"
	xmlns:xlink="http://www.w3.org/1999/xlink" xml:space="preserve" overflow="hidden">
	<defs>
		<clipPath id="clip0">
			<rect x="2917" y="346" width="1763" height="1046"/>
		</clipPath>
	</defs>
	<g clip-path="url(#clip0)" transform="translate(-2917 -346)">
		<rect x="2918" y="347" width="1760" height="1043" fill="#FFFFFF" />
		<g>
			<path d="
			M3228.5 974.532 4296.5 974.532
			M3228.5 910.53 4296.5 910.53
			M3228.5 846.528 4296.5 846.528
			M3228.5 781.526 4296.5 781.526
			M3228.5 717.524 4296.5 717.524
			M3228.5 653.522 4296.5 653.522
			M3228.5 589.52 4296.5 589.52
			M3228.5 525.517 4296.5 525.517
			M3228.5 461.515 4296.5 461.515
			M3228.5 397.5 4296.5 397.5" stroke="#D9D9D9" stroke-width="3.4375" stroke-linejoin="round" stroke-miterlimit="10" fill="none" />
		</g>
		<g>
			<path d="M 1038.5 4296.5 1038.5" stroke="#D9D9D9" stroke-width="3.4375" stroke-linejoin="round" stroke-miterlimit="10" fill="none" fill-rule="evenodd" />
		</g>
		<g>
			<text fill="#595959" font-family="Verdana,Open Sans,DejaVu Sans,sans-serif" font-weight="400" font-size="41" transform="matrix(6.12323e-17 -1 1 6.12323e-17 3243.544677734375 1205.3642578125)">16-Dec</text>
		</g>
		<g>
			<text fill="#595959" font-family="Verdana,Open Sans,DejaVu Sans,sans-serif" font-weight="400" font-size="41" transform="matrix(6.12323e-17 -1 1 6.12323e-17 3332.6382421875 1189.9291915893555)">13-Jan</text>
		</g>
		<g>
			<text fill="#595959" font-family="Verdana,Open Sans,DejaVu Sans,sans-serif" font-weight="400" font-size="41" transform="matrix(6.12323e-17 -1 1 6.12323e-17 3415.155390625 1201.3203125)">10-Feb</text>
		</g>
		<g>
			<text fill="#595959" font-family="Verdana,Open Sans,DejaVu Sans,sans-serif" font-weight="400" font-size="41" transform="matrix(6.12323e-17 -1 1 6.12323e-17 3499.884697265625 1210.2890625)">10-Mar</text>
		</g>
		<g>
			<text fill="#595959" font-family="Verdana,Open Sans,DejaVu Sans,sans-serif" font-weight="400" font-size="41" transform="matrix(6.12323e-17 -1 1 6.12323e-17 3590.049306640625 1203.2621994018555)">07-Apr</text>
		</g>
		<g>
			<text fill="#595959" font-family="Verdana,Open Sans,DejaVu Sans,sans-serif" font-weight="400" font-size="41" transform="matrix(6.12323e-17 -1 1 6.12323e-17 3675.489306640625 1216.47509765625)">05-May</text>
		</g>
		<g>
			<text fill="#595959" font-family="Verdana,Open Sans,DejaVu Sans,sans-serif" font-weight="400" font-size="41" transform="matrix(6.12323e-17 -1 1 6.12323e-17 3759.85826171875 1194.0131759643555)">09-Jun</text>
		</g>
		<g>
			<text fill="#595959" font-family="Verdana,Open Sans,DejaVu Sans,sans-serif" font-weight="400" font-size="41" transform="matrix(6.12323e-17 -1 1 6.12323e-17 3846.008955078125 1178.9985275268555)">07-Jul</text>
		</g>
		<g>
			<text fill="#595959" font-family="Verdana,Open Sans,DejaVu Sans,sans-serif" font-weight="400" font-size="41" transform="matrix(6.12323e-17 -1 1 6.12323e-17 3931.809306640625 1208.62744140625)">04-Aug</text>
		</g>
		<g>
			<text fill="#595959" font-family="Verdana,Open Sans,DejaVu Sans,sans-serif" font-weight="400" font-size="41" transform="matrix(6.12323e-17 -1 1 6.12323e-17 4017.249306640625 1204.38330078125)">01-Sep</text>
		</g>
		<g>
			<text fill="#595959" font-family="Verdana,Open Sans,DejaVu Sans,sans-serif" font-weight="400" font-size="41" transform="matrix(6.12323e-17 -1 1 6.12323e-17 4102.669287109375 1204.42333984375)">29-Sep</text>
		</g>
		<g>
			<text fill="#595959" font-family="Verdana,Open Sans,DejaVu Sans,sans-serif" font-weight="400" font-size="41" transform="matrix(6.12323e-17 -1 1 6.12323e-17 4183.404697265625 1201.1401290893555)">27-Oct</text>
		</g>
		<g>
			<text fill="#595959" font-family="Verdana,Open Sans,DejaVu Sans,sans-serif" font-weight="400" font-size="41" transform="matrix(6.12323e-17 -1 1 6.12323e-17 4268.824677734375 1211.47021484375)">24-Nov</text>
		</g>
		<g>
			<text fill="#595959" font-family="Verdana,Open Sans,DejaVu Sans,sans-serif" font-weight="400" font-size="41" transform="matrix(1 0 0 1 3169.14111328125 1050)">0</text>
		</g>
		<g>
			<text fill="#595959" font-family="Verdana,Open Sans,DejaVu Sans,sans-serif" font-weight="400" font-size="41" transform="matrix(1 0 0 1 3065.8203201293945 922)">18,484</text>
		</g>
		<g>
			<text fill="#595959" font-family="Verdana,Open Sans,DejaVu Sans,sans-serif" font-weight="400" font-size="41" transform="matrix(1 0 0 1 3065.2397537231445 794)">36,968</text>
		</g>
		<g>
			<text fill="#595959" font-family="Verdana,Open Sans,DejaVu Sans,sans-serif" font-weight="400" font-size="41" transform="matrix(1 0 0 1 3066.3007888793945 666)">55,453</text>
		</g>
		<g>
			<text fill="#595959" font-family="Verdana,Open Sans,DejaVu Sans,sans-serif" font-weight="400" font-size="41" transform="matrix(1 0 0 1 3065.1997146606445 538)">73,937</text>
		</g>
		<g>
			<text fill="#595959" font-family="Verdana,Open Sans,DejaVu Sans,sans-serif" font-weight="400" font-size="41" transform="matrix(1 0 0 1 3072.4868240356445 410)">92,421</text>
		</g>
		<g>
			<text fill="#595959" font-family="Verdana,Open Sans,DejaVu Sans,sans-serif" font-weight="400" font-size="41" transform="matrix(1 0 0 1 3556.97119140625 1321)">Week Commencing</text>
		</g>
		<g>
			<text fill="#595959" font-family="Verdana,Open Sans,DejaVu Sans,sans-serif" font-weight="400" font-size="46" transform="matrix(6.12323e-17 -1 1 6.12323e-17 3019.73 1028.5532531738281)">Number of Hardware Profiles</text>
		</g>
		<rect x="2918.5" y="347.5" width="1760" height="1043" stroke="#D9D9D9" stroke-width="3.4375" stroke-linejoin="round" stroke-miterlimit="10" fill="none" />
		<g>
			<path d="M3228.5 1038 3249.86 1038 3271.22 1038 3292.58 1038 3313.94 1038 3335.3 1038 3356.66 1038 3378.02 1038 3399.38 1038 3420.74 1038 3442.1 1038 3463.46 1038 3484.82 1038 3506.18 1038 3527.54 1038 3548.9 1038 3570.26 1038 3591.62 1038 3612.98 1038 3634.34 1038 3655.7 1038 3677.06 1038 3698.42 1038 3719.7799999999997 1038 3741.14 1038 3762.5 1038 3783.86 1038 3805.2200000000003 1038 3826.58 1038 3847.94 1038 3869.3 1038 3890.66 1038 3912.02 1038 3933.38 1038 3954.74 1038 3976.1 1038 3997.46 1038 4018.8199999999997 1038 4040.18 1038 4061.54 1038 4082.9 1038 4104.26 1038 4125.62 1038 4146.98 1038 4168.34 1038 4189.7 1038 4211.0599999999995 1038 4232.42 1038 4253.78 1038 4275.139999999999 1038 4296.5 1038 4296.5 692.5062269397647 4275.139999999999 692.7139719327859 4253.78 692.9217169258069 4232.42 693.1225370857272 4211.0599999999995 693.3025827463455 4189.7 693.4826284069638 4168.34 693.7457720647905 4146.98 694.0435398881207 4125.62 694.2789842135445 4104.26 694.5352030382705 4082.9 694.8745198602048 4061.54 695.2830850131463 4040.18 695.6431763343828 4018.8199999999997 695.9617186570151 3997.46 696.2733361465467 3976.1 696.4741563064672 3954.74 696.7996234622001 3933.38 697.0696919531275 3912.02 697.3882342757598 3890.66 697.7829497624998 3869.3 698.0737927527293 3847.94 698.3438612436566 3826.58 698.6762532324904 3805.2200000000003 698.9947955551227 3783.86 699.2856385453522 3762.5 699.6526546996895 3741.14 700.1027688512352 3719.7799999999997 700.6498306661906 3698.42 701.0168468205278 3677.06 701.3423139762608 3655.7 701.7231797967994 3634.34 702.0901959511366 3612.98 702.3948886075675 3591.62 702.7480550957034 3570.26 703.0942967507385 3548.9 703.3920645740686 3527.54 703.7175317298016 3506.18 704.0983975503402 3484.82 704.4377143722747 3463.46 704.7908808604104 3442.1 705.08172385064 3420.74 705.4695145042792 3399.38 705.8226809924151 3378.02 706.2104716460544 3356.66 706.5497884679888 3335.3 706.847556291319 3313.94 707.1314744484478 3292.58 707.4015429393753 3271.22 707.5954382661948 3249.86 707.7754839268132 3228.5 708.0455524177405 3228.5 1038Z" fill="#e62d39" opacity="0.9" />
		</g>
		<g>
			<path d="M3228.5 708.0455524177405 3249.86 707.7754839268132 3271.22 707.5954382661948 3292.58 707.4015429393753 3313.94 707.1314744484478 3335.3 706.847556291319 3356.66 706.5497884679888 3378.02 706.2104716460544 3399.38 705.8226809924151 3420.74 705.4695145042792 3442.1 705.08172385064 3463.46 704.7908808604104 3484.82 704.4377143722747 3506.18 704.0983975503402 3527.54 703.7175317298016 3548.9 703.3920645740686 3570.26 703.0942967507385 3591.62 702.7480550957034 3612.98 702.3948886075675 3634.34 702.0901959511366 3655.7 701.7231797967994 3677.06 701.3423139762608 3698.42 701.0168468205278 3719.7799999999997 700.6498306661906 3741.14 700.1027688512352 3762.5 699.6526546996895 3783.86 699.2856385453522 3805.2200000000003 698.9947955551227 3826.58 698.6762532324904 3847.94 698.3438612436566 3869.3 698.0737927527293 3890.66 697.7829497624998 3912.02 697.3882342757598 3933.38 697.0696919531275 3954.74 696.7996234622001 3976.1 696.4741563064672 3997.46 696.2733361465467 4018.8199999999997 695.9617186570151 4040.18 695.6431763343828 4061.54 695.2830850131463 4082.9 694.8745198602048 4104.26 694.5352030382705 4125.62 694.2789842135445 4146.98 694.0435398881207 4168.34 693.7457720647905 4189.7 693.4826284069638 4211.0599999999995 693.3025827463455 4232.42 693.1225370857272 4253.78 692.9217169258069 4275.139999999999 692.7139719327859 4296.5 692.5062269397647 4296.5 527.1966111598013 4275.139999999999 527.4805293169302 4253.78 527.7713723071596 4232.42 528.041440798087 4211.0599999999995 528.3322837883164 4189.7 528.6369764447475 4168.34 529.0524664307895 4146.98 529.4887309161338 4125.62 529.9042209021759 4104.26 530.3127860551174 4082.9 530.8252237045692 4061.54 531.3584358533233 4040.18 531.8223996710703 4018.8199999999997 532.272513822616 3997.46 532.6880038086581 3976.1 532.9165233009815 3954.74 533.3043139546206 3933.38 533.7267287737635 3912.02 534.2253167570141 3890.66 534.7931530712716 3869.3 535.2155678904145 3847.94 535.7280055398664 3826.58 536.1988941907141 3805.2200000000003 536.6974821739647 3783.86 537.1960701572152 3762.5 537.7362071390701 3741.14 538.3248179526299 3719.7799999999997 539.2042717564191 3698.42 539.7028597396695 3677.06 540.1321993919131 3655.7 540.5892383765594 3634.34 541.0739766936085 3612.98 541.4686921803486 3591.62 542.0088291622035 3570.26 542.5074171454539 3548.9 542.971380963201 3527.54 543.4768937795523 3506.18 543.9754817628027 3484.82 544.4186710812478 3463.46 544.8687852327934 3442.1 545.2565758864326 3420.74 545.713614871079 3399.38 546.2052780212289 3378.02 546.6969411713787 3356.66 547.0985814912194 3335.3 547.5486956427651 3313.94 547.99188496121 3292.58 548.414299780353 3271.22 548.6497441057768 3249.86 548.8574890987979 3228.5 549.2452797524372 3228.5 708.0455524177405Z" fill="#f6a118" opacity="0.9" />
		</g>
		<g>
			<path d="M3228.5 549.2452797524372 3249.86 548.8574890987979 3271.22 548.6497441057768 3292.58 548.414299780353 3313.94 547.99188496121 3335.3 547.5486956427651 3356.66 547.0985814912194 3378.02 546.6969411713787 3399.38 546.2052780212289 3420.74 545.713614871079 3442.1 545.2565758864326 3463.46 544.8687852327934 3484.82 544.4186710812478 3506.18 543.9754817628027 3527.54 543.4768937795523 3548.9 542.971380963201 3570.26 542.5074171454539 3591.62 542.0088291622035 3612.98 541.4686921803486 3634.34 541.0739766936085 3655.7 540.5892383765594 3677.06 540.1321993919131 3698.42 539.7028597396695 3719.7799999999997 539.2042717564191 3741.14 538.3248179526299 3762.5 537.7362071390701 3783.86 537.1960701572152 3805.2200000000003 536.6974821739647 3826.58 536.1988941907141 3847.94 535.7280055398664 3869.3 535.2155678904145 3890.66 534.7931530712716 3912.02 534.2253167570141 3933.38 533.7267287737635 3954.74 533.3043139546206 3976.1 532.9165233009815 3997.46 532.6880038086581 4018.8199999999997 532.272513822616 4040.18 531.8223996710703 4061.54 531.3584358533233 4082.9 530.8252237045692 4104.26 530.3127860551174 4125.62 529.9042209021759 4146.98 529.4887309161338 4168.34 529.0524664307895 4189.7 528.6369764447475 4211.0599999999995 528.3322837883164 4232.42 528.041440798087 4253.78 527.7713723071596 4275.139999999999 527.4805293169302 4296.5 527.1966111598013 4296.5 451.9859988530744 4275.139999999999 452.325315675009 4253.78 452.6369331645405 4232.42 452.9139264885686 4211.0599999999995 453.2393936443016 4189.7 453.5925601324375 4168.34 454.1119226149901 4146.98 454.5966609320393 4125.62 455.06062474978626 4104.26 455.5176637344327 4082.9 456.14782354659644 4061.54 456.72258469395473 4040.18 457.2142478441046 4018.8199999999997 457.7059109942545 3997.46 458.135250646498 3976.1 458.3914694712241 3954.74 458.83465878966894 3933.38 459.34017160602025 3912.02 459.8664589216736 3890.66 460.4550697352332 3869.3 460.89133422057756 3847.94 461.438396035533 3826.58 461.9508336849849 3805.2200000000003 462.46327133443685 3783.86 463.017257982493 3762.5 463.5920191298514 3741.14 464.21525410891473 3719.7799999999997 465.1916555761137 3698.42 465.7456422241698 3677.06 466.230380541219 3655.7 466.70819402516736 3634.34 467.26218067322355 3612.98 467.68459549236644 3591.62 468.24550697352345 3570.26 468.80641845468017 3548.9 469.29115677172933 3527.54 469.8035944211813 3506.18 470.3229569037339 3484.82 470.80077038768246 3463.46 471.2716590385302 3442.1 471.71484835697504 3420.74 472.21343634022566 3399.38 472.7120243234762 3378.02 473.21753713982747 3356.66 473.63302712586955 3335.3 474.13161510912016 3313.94 474.6163534261692 3292.58 475.08031724391645 3271.22 475.322686402441 3249.86 475.5442810616635 3228.5 475.97362071390705 3228.5 549.2452797524372Z" fill="#55c0e9" opacity="0.9" />
		</g>
		<g>
			<path d="M3228.5 475.97362071390705 3249.86 475.5442810616635 3271.22 475.322686402441 3292.58 475.08031724391645 3313.94 474.6163534261692 3335.3 474.13161510912016 3356.66 473.63302712586955 3378.02 473.21753713982747 3399.38 472.7120243234762 3420.74 472.21343634022566 3442.1 471.71484835697504 3463.46 471.2716590385302 3484.82 470.80077038768246 3506.18 470.3229569037339 3527.54 469.8035944211813 3548.9 469.29115677172933 3570.26 468.80641845468017 3591.62 468.24550697352345 3612.98 467.68459549236644 3634.34 467.26218067322355 3655.7 466.70819402516736 3677.06 466.230380541219 3698.42 465.7456422241698 3719.7799999999997 465.1916555761137 3741.14 464.21525410891473 3762.5 463.5920191298514 3783.86 463.017257982493 3805.2200000000003 462.46327133443685 3826.58 461.9508336849849 3847.94 461.438396035533 3869.3 460.89133422057756 3890.66 460.4550697352332 3912.02 459.8664589216736 3933.38 459.34017160602025 3954.74 458.83465878966894 3976.1 458.3914694712241 3997.46 458.135250646498 4018.8199999999997 457.7059109942545 4040.18 457.2142478441046 4061.54 456.72258469395473 4082.9 456.14782354659644 4104.26 455.5176637344327 4125.62 455.06062474978626 4146.98 454.5966609320393 4168.34 454.1119226149901 4189.7 453.5925601324375 4211.0599999999995 453.2393936443016 4232.42 452.9139264885686 4253.78 452.6369331645405 4275.139999999999 452.325315675009 4296.5 451.9859988530744 4296.5 399.3018686229319 4275.139999999999 399.69658410967213 4253.78 400.14669826121764 4232.42 400.54833858105843 4211.0599999999995 400.9915278995033 4189.7 401.49704071585467 4168.34 402.1548998604213 4146.98 402.66041267677264 4125.62 403.31827182133924 4104.26 403.9345819673018 4082.9 404.6201404442712 4061.54 405.34724791984496 4040.18 405.8735352354983 4018.8199999999997 406.5313943800651 3997.46 407.1407796929268 3976.1 407.4939461810628 3954.74 408.1102563270252 3933.38 408.82351413639753 3912.02 409.51599744646774 3890.66 410.1669317579337 3869.3 410.7693922376949 3847.94 411.40647688295945 3826.58 412.0851105268282 3805.2200000000003 412.7706690037977 3783.86 413.4423778145658 3762.5 414.1556356239382 3741.14 414.86196860021 3719.7799999999997 416.09458889213494 3698.42 416.7870722022051 3677.06 417.4864803453761 3655.7 418.06816632583497 3634.34 418.7467999697038 3612.98 419.2523127860551 3591.62 419.95172092922616 3570.26 420.6926780710011 3548.9 421.36438688176924 3527.54 422.02224602633595 3506.18 422.7216541695068 3484.82 423.40028781337577 3463.46 424.12047045584876 3442.1 424.8060289328182 3420.74 425.50543707598916 3399.38 426.2048452191601 3378.02 426.8904036961296 3356.66 427.50671384209204 3335.3 428.21997165146445 3313.94 428.90553012843384 3292.58 429.60493827160496 3271.22 429.8888564287337 3249.86 430.18662425206395 3228.5 430.85140822973136 3228.5 475.97362071390705Z" fill="#fdd5a4" opacity="0.9" />
		</g>
		<g>
			<path d="M3228.5 430.85140822973136 3249.86 430.18662425206395 3271.22 429.8888564287337 3292.58 429.60493827160496 3313.94 428.90553012843384 3335.3 428.21997165146445 3356.66 427.50671384209204 3378.02 426.8904036961296 3399.38 426.2048452191601 3420.74 425.50543707598916 3442.1 424.8060289328182 3463.46 424.12047045584876 3484.82 423.40028781337577 3506.18 422.7216541695068 3527.54 422.02224602633595 3548.9 421.36438688176924 3570.26 420.6926780710011 3591.62 419.95172092922616 3612.98 419.2523127860551 3634.34 418.7467999697038 3655.7 418.06816632583497 3677.06 417.4864803453761 3698.42 416.7870722022051 3719.7799999999997 416.09458889213494 3741.14 414.86196860021 3762.5 414.1556356239382 3783.86 413.4423778145658 3805.2200000000003 412.7706690037977 3826.58 412.0851105268282 3847.94 411.40647688295945 3869.3 410.7693922376949 3890.66 410.1669317579337 3912.02 409.51599744646774 3933.38 408.82351413639753 3954.74 408.1102563270252 3976.1 407.4939461810628 3997.46 407.1407796929268 4018.8199999999997 406.5313943800651 4040.18 405.8735352354983 4061.54 405.34724791984496 4082.9 404.6201404442712 4104.26 403.9345819673018 4125.62 403.31827182133924 4146.98 402.66041267677264 4168.34 402.1548998604213 4189.7 401.49704071585467 4211.0599999999995 400.9915278995033 4232.42 400.54833858105843 4253.78 400.14669826121764 4275.139999999999 399.69658410967213 4296.5 399.3018686229319 4296.5 397.9999999999999 4275.139999999999 398.4085651529415 4253.78 398.858679304487 4232.42 399.2603196243278 4211.0599999999995 399.70350894277266 4189.7 400.209021759124 4168.34 400.8668809036907 4146.98 401.372393720042 4125.62 402.0302528646086 4104.26 402.6465630105712 4082.9 403.3321214875406 4061.54 404.0592289631143 4040.18 404.58551627876767 4018.8199999999997 405.24337542333444 3997.46 405.85276073619616 3976.1 406.2059272243322 3954.74 406.82223737029454 3933.38 407.5354951796669 3912.02 408.2279784897371 3890.66 408.87891280120306 3869.3 409.48137328096425 3847.94 410.1184579262288 3826.58 410.79709157009756 3805.2200000000003 411.48265004706707 3783.86 412.1543588578352 3762.5 412.8676166672076 3741.14 413.57394964347935 3719.7799999999997 414.8065699354043 3698.42 415.49905324547444 3677.06 416.19846138864546 3655.7 416.7801473691043 3634.34 417.45878101297313 3612.98 417.96429382932445 3591.62 418.6637019724955 3570.26 419.4046591142705 3548.9 420.0763679250386 3527.54 420.7342270696053 3506.18 421.43363521277615 3484.82 422.11226885664513 3463.46 422.8324514991181 3442.1 423.51800997608757 3420.74 424.2174181192585 3399.38 424.9168262624295 3378.02 425.602384739399 3356.66 426.2186948853614 3335.3 426.9319526947338 3313.94 427.6175111717032 3292.58 428.3169193148743 3271.22 428.60083747200304 3249.86 428.8986052953333 3228.5 429.5633892730007 3228.5 430.85140822973136Z" fill="#005aa6" opacity="0.9" />
		</g>
		<g>
			<rect x="4372" y="431" width="22.9995" height="23" fill="#e62d39" />
		</g>
		<g>
			<text fill="#595959" font-family="Verdana,Open Sans,DejaVu Sans,sans-serif" font-weight="400" font-size="41" transform="matrix(1 0 0 1 4404.56 454)">Smartphone</text>
		</g>
		<g>
			<rect x="4372" y="508" width="22.9995" height="23" fill="#f6a118" />
		</g>
		<g>
			<text fill="#595959" font-family="Verdana,Open Sans,DejaVu Sans,sans-serif" font-weight="400" font-size="41" transform="matrix(1 0 0 1 4404.56 531)">Tablet</text>
		</g>
		<g>
			<rect x="4372" y="585" width="22.9995" height="23" fill="#55c0e9" />
		</g>
		<g>
			<text fill="#595959" font-family="Verdana,Open Sans,DejaVu Sans,sans-serif" font-weight="400" font-size="41" transform="matrix(1 0 0 1 4404.56 608)">Other</text>
		</g>
		<g>
			<rect x="4372" y="662" width="22.9995" height="23" fill="#fdd5a4" />
		</g>
		<g>
			<text fill="#595959" font-family="Verdana,Open Sans,DejaVu Sans,sans-serif" font-weight="400" font-size="41" transform="matrix(1 0 0 1 4404.56 685)">Tv</text>
		</g>
		<g>
			<rect x="4372" y="739" width="22.9995" height="23" fill="#005aa6" />
		</g>
		<g>
			<text fill="#595959" font-family="Verdana,Open Sans,DejaVu Sans,sans-serif" font-weight="400" font-size="41" transform="matrix(1 0 0 1 4404.56 762)">Desktop</text>
		</g>
	</g>
</svg>
