<svg width="1763" height="1046"
    xmlns="http://www.w3.org/2000/svg"
	xmlns:xlink="http://www.w3.org/1999/xlink" xml:space="preserve" overflow="hidden">
	<defs>
		<clipPath id="clip0">
			<rect x="2917" y="346" width="1763" height="1046"/>
		</clipPath>
	</defs>
	<g clip-path="url(#clip0)" transform="translate(-2917 -346)">
		<rect x="2918" y="347" width="1760" height="1043" fill="#FFFFFF" />
		<g>
			<path d="
			M3228.5 974.532 4296.5 974.532
			M3228.5 910.53 4296.5 910.53
			M3228.5 846.528 4296.5 846.528
			M3228.5 781.526 4296.5 781.526
			M3228.5 717.524 4296.5 717.524
			M3228.5 653.522 4296.5 653.522
			M3228.5 589.52 4296.5 589.52
			M3228.5 525.517 4296.5 525.517
			M3228.5 461.515 4296.5 461.515
			M3228.5 397.5 4296.5 397.5" stroke="#D9D9D9" stroke-width="3.4375" stroke-linejoin="round" stroke-miterlimit="10" fill="none" />
		</g>
		<g>
			<path d="M 1038.5 4296.5 1038.5" stroke="#D9D9D9" stroke-width="3.4375" stroke-linejoin="round" stroke-miterlimit="10" fill="none" fill-rule="evenodd" />
		</g>
		<g>
			<text fill="#595959" font-family="Verdana,sans-serif" font-weight="400" font-size="41" transform="matrix(6.12323e-17 -1 1 6.12323e-17 3244.5 1227)">06-Nov</text>
		</g>
		<g>
			<text fill="#595959" font-family="Verdana,sans-serif" font-weight="400" font-size="41" transform="matrix(6.12323e-17 -1 1 6.12323e-17 3337.3695652173915 1226)">20-Nov</text>
		</g>
		<g>
			<text fill="#595959" font-family="Verdana,sans-serif" font-weight="400" font-size="41" transform="matrix(6.12323e-17 -1 1 6.12323e-17 3430.2391304347825 1225)">04-Dec</text>
		</g>
		<g>
			<text fill="#595959" font-family="Verdana,sans-serif" font-weight="400" font-size="41" transform="matrix(6.12323e-17 -1 1 6.12323e-17 3523.108695652174 1222)">18-Dec</text>
		</g>
		<g>
			<text fill="#595959" font-family="Verdana,sans-serif" font-weight="400" font-size="41" transform="matrix(6.12323e-17 -1 1 6.12323e-17 3615.978260869565 1212)">01-Jan</text>
		</g>
		<g>
			<text fill="#595959" font-family="Verdana,sans-serif" font-weight="400" font-size="41" transform="matrix(6.12323e-17 -1 1 6.12323e-17 3708.3478260869565 1209)">15-Jan</text>
		</g>
		<g>
			<text fill="#595959" font-family="Verdana,sans-serif" font-weight="400" font-size="41" transform="matrix(6.12323e-17 -1 1 6.12323e-17 3801.717391304348 1211)">29-Jan</text>
		</g>
		<g>
			<text fill="#595959" font-family="Verdana,sans-serif" font-weight="400" font-size="41" transform="matrix(6.12323e-17 -1 1 6.12323e-17 3894.586956521739 1216)">12-Feb</text>
		</g>
		<g>
			<text fill="#595959" font-family="Verdana,sans-serif" font-weight="400" font-size="41" transform="matrix(6.12323e-17 -1 1 6.12323e-17 3987.4565217391305 1218)">26-Feb</text>
		</g>
		<g>
			<text fill="#595959" font-family="Verdana,sans-serif" font-weight="400" font-size="41" transform="matrix(6.12323e-17 -1 1 6.12323e-17 4079.8260869565215 1222)">11-Mar</text>
		</g>
		<g>
			<text fill="#595959" font-family="Verdana,sans-serif" font-weight="400" font-size="41" transform="matrix(6.12323e-17 -1 1 6.12323e-17 4173.195652173913 1225)">25-Mar</text>
		</g>
		<g>
			<text fill="#595959" font-family="Verdana,sans-serif" font-weight="400" font-size="41" transform="matrix(6.12323e-17 -1 1 6.12323e-17 4269.565217391304 1218)">08-Apr</text>
		</g>
		<g>
			<text fill="#595959" font-family="Verdana,sans-serif" font-weight="400" font-size="41" transform="matrix(1 0 0 1 3167.5 1050)">0</text>
		</g>
		<g>
			<text fill="#595959" font-family="Verdana,sans-serif" font-weight="400" font-size="41" transform="matrix(1 0 0 1 3139.5 922)">47</text>
		</g>
		<g>
			<text fill="#595959" font-family="Verdana,sans-serif" font-weight="400" font-size="41" transform="matrix(1 0 0 1 3140.5 794)">93</text>
		</g>
		<g>
			<text fill="#595959" font-family="Verdana,sans-serif" font-weight="400" font-size="41" transform="matrix(1 0 0 1 3117.5 666)">140</text>
		</g>
		<g>
			<text fill="#595959" font-family="Verdana,sans-serif" font-weight="400" font-size="41" transform="matrix(1 0 0 1 3116.5 538)">186</text>
		</g>
		<g>
			<text fill="#595959" font-family="Verdana,sans-serif" font-weight="400" font-size="41" transform="matrix(1 0 0 1 3115.5 410)">233</text>
		</g>
		<g>
			<text fill="#595959" font-family="Verdana,sans-serif" font-weight="400" font-size="41" transform="matrix(1 0 0 1 3541.5 1321)">Week Commencing</text>
		</g>
		<g>
			<text fill="#595959" font-family="Verdana,sans-serif" font-weight="400" font-size="46" transform="matrix(6.12323e-17 -1 1 6.12323e-17 3019.73 1029.25)">Number of Crawler Profiles</text>
		</g>
		<rect x="2918.5" y="347.5" width="1760" height="1043" stroke="#D9D9D9" stroke-width="3.4375" stroke-linejoin="round" stroke-miterlimit="10" fill="none" />
		<g>
			<path d="M3228.5 1038 3274.9347826086955 1038 3321.3695652173915 1038 3367.804347826087 1038 3414.2391304347825 1038 3460.673913043478 1038 3507.108695652174 1038 3553.5434782608695 1038 3599.978260869565 1038 3646.413043478261 1038 3692.8478260869565 1038 3739.282608695652 1038 3785.717391304348 1038 3832.1521739130435 1038 3878.586956521739 1038 3925.021739130435 1038 3971.4565217391305 1038 4017.891304347826 1038 4064.3260869565215 1038 4110.760869565217 1038 4157.195652173913 1038 4203.630434782609 1038 4250.065217391304 1038 4296.5 1038 4296.5 400.7467811158798 4250.065217391304 411.7339055793991 4203.630434782609 411.7339055793991 4157.195652173913 425.4678111587983 4110.760869565217 452.93562231759654 4064.3260869565215 458.42918454935625 4017.891304347826 463.92274678111585 3971.4565217391305 477.65665236051507 3925.021739130435 480.40343347639487 3878.586956521739 480.40343347639487 3832.1521739130435 483.15021459227466 3785.717391304348 488.6437768240344 3739.282608695652 502.3776824034335 3692.8478260869565 505.1244635193133 3646.413043478261 505.1244635193133 3599.978260869565 510.618025751073 3553.5434782608695 510.618025751073 3507.108695652174 510.618025751073 3460.673913043478 510.618025751073 3414.2391304347825 510.618025751073 3367.804347826087 513.3648068669528 3321.3695652173915 513.3648068669528 3274.9347826086955 513.3648068669528 3228.5 513.3648068669528 3228.5 1038Z" fill="#005aa6" opacity="0.9" />
		</g>
		<g>
			<path d="M3228.5 513.3648068669528 3274.9347826086955 513.3648068669528 3321.3695652173915 513.3648068669528 3367.804347826087 513.3648068669528 3414.2391304347825 510.618025751073 3460.673913043478 510.618025751073 3507.108695652174 510.618025751073 3553.5434782608695 510.618025751073 3599.978260869565 510.618025751073 3646.413043478261 505.1244635193133 3692.8478260869565 505.1244635193133 3739.282608695652 502.3776824034335 3785.717391304348 488.6437768240344 3832.1521739130435 483.15021459227466 3878.586956521739 480.40343347639487 3925.021739130435 480.40343347639487 3971.4565217391305 477.65665236051507 4017.891304347826 463.92274678111585 4064.3260869565215 458.42918454935625 4110.760869565217 452.93562231759654 4157.195652173913 425.4678111587983 4203.630434782609 411.7339055793991 4250.065217391304 411.7339055793991 4296.5 400.7467811158798 4296.5 397.99999999999994 4250.065217391304 408.98712446351925 4203.630434782609 408.98712446351925 4157.195652173913 422.72103004291847 4110.760869565217 450.1888412017167 4064.3260869565215 455.6824034334764 4017.891304347826 461.175965665236 3971.4565217391305 474.9098712446352 3925.021739130435 477.656652360515 3878.586956521739 477.656652360515 3832.1521739130435 480.4034334763948 3785.717391304348 485.8969957081545 3739.282608695652 499.6309012875536 3692.8478260869565 502.3776824034334 3646.413043478261 502.3776824034334 3599.978260869565 507.87124463519314 3553.5434782608695 507.87124463519314 3507.108695652174 507.87124463519314 3460.673913043478 507.87124463519314 3414.2391304347825 507.87124463519314 3367.804347826087 510.61802575107293 3321.3695652173915 510.61802575107293 3274.9347826086955 510.61802575107293 3228.5 510.61802575107293 3228.5 513.3648068669528Z" fill="#e62d39" opacity="0.9" />
		</g>
		<g>
			<rect x="4372" y="431" width="22.9995" height="23" fill="#005aa6" />
		</g>
		<g>
			<text fill="#595959" font-family="Verdana,sans-serif" font-weight="400" font-size="41" transform="matrix(1 0 0 1 4404.56 454)">Crawler</text>
		</g>
		<g>
			<rect x="4372" y="508" width="22.9995" height="23" fill="#e62d39" />
		</g>
		<g>
			<text fill="#595959" font-family="Verdana,sans-serif" font-weight="400" font-size="41" transform="matrix(1 0 0 1 4404.56 531)">Non-Crawler</text>
		</g>
	</g>
</svg>
