<svg width="1763" height="1046"
    xmlns="http://www.w3.org/2000/svg"
	xmlns:xlink="http://www.w3.org/1999/xlink" xml:space="preserve" overflow="hidden">
	<defs>
		<clipPath id="clip0">
			<rect x="2917" y="346" width="1763" height="1046"/>
		</clipPath>
	</defs>
	<g clip-path="url(#clip0)" transform="translate(-2917 -346)">
		<rect x="2918" y="347" width="1760" height="1043" fill="#FFFFFF" />
		<g>
			<path d="
			M3228.5 974.532 4296.5 974.532
			M3228.5 910.53 4296.5 910.53
			M3228.5 846.528 4296.5 846.528
			M3228.5 781.526 4296.5 781.526
			M3228.5 717.524 4296.5 717.524
			M3228.5 653.522 4296.5 653.522
			M3228.5 589.52 4296.5 589.52
			M3228.5 525.517 4296.5 525.517
			M3228.5 461.515 4296.5 461.515
			M3228.5 397.5 4296.5 397.5" stroke="#D9D9D9" stroke-width="3.4375" stroke-linejoin="round" stroke-miterlimit="10" fill="none" />
		</g>
		<g>
			<path d="M 1038.5 4296.5 1038.5" stroke="#D9D9D9" stroke-width="3.4375" stroke-linejoin="round" stroke-miterlimit="10" fill="none" fill-rule="evenodd" />
		</g>
		<g>
			<text fill="#595959" font-family="Verdana,sans-serif" font-weight="400" font-size="41" transform="matrix(6.12323e-17 -1 1 6.12323e-17 3244.5 1211)">03-Jun</text>
		</g>
		<g>
			<text fill="#595959" font-family="Verdana,sans-serif" font-weight="400" font-size="41" transform="matrix(6.12323e-17 -1 1 6.12323e-17 3329.94 1197)">01-Jul</text>
		</g>
		<g>
			<text fill="#595959" font-family="Verdana,sans-serif" font-weight="400" font-size="41" transform="matrix(6.12323e-17 -1 1 6.12323e-17 3415.38 1196)">29-Jul</text>
		</g>
		<g>
			<text fill="#595959" font-family="Verdana,sans-serif" font-weight="400" font-size="41" transform="matrix(6.12323e-17 -1 1 6.12323e-17 3504.32 1221)">26-Aug</text>
		</g>
		<g>
			<text fill="#595959" font-family="Verdana,sans-serif" font-weight="400" font-size="41" transform="matrix(6.12323e-17 -1 1 6.12323e-17 3589.76 1221)">23-Sep</text>
		</g>
		<g>
			<text fill="#595959" font-family="Verdana,sans-serif" font-weight="400" font-size="41" transform="matrix(6.12323e-17 -1 1 6.12323e-17 3671.7 1215)">21-Oct</text>
		</g>
		<g>
			<text fill="#595959" font-family="Verdana,sans-serif" font-weight="400" font-size="41" transform="matrix(6.12323e-17 -1 1 6.12323e-17 3757.14 1222)">18-Nov</text>
		</g>
		<g>
			<text fill="#595959" font-family="Verdana,sans-serif" font-weight="400" font-size="41" transform="matrix(6.12323e-17 -1 1 6.12323e-17 3842.58 1222)">23-Dec</text>
		</g>
		<g>
			<text fill="#595959" font-family="Verdana,sans-serif" font-weight="400" font-size="41" transform="matrix(6.12323e-17 -1 1 6.12323e-17 3928.02 1210)">20-Jan</text>
		</g>
		<g>
			<text fill="#595959" font-family="Verdana,sans-serif" font-weight="400" font-size="41" transform="matrix(6.12323e-17 -1 1 6.12323e-17 4013.46 1214)">17-Feb</text>
		</g>
		<g>
			<text fill="#595959" font-family="Verdana,sans-serif" font-weight="400" font-size="41" transform="matrix(6.12323e-17 -1 1 6.12323e-17 4098.4 1221)">17-Mar</text>
		</g>
		<g>
			<text fill="#595959" font-family="Verdana,sans-serif" font-weight="400" font-size="41" transform="matrix(6.12323e-17 -1 1 6.12323e-17 4187.84 1214)">14-Apr</text>
		</g>
		<g>
			<text fill="#595959" font-family="Verdana,sans-serif" font-weight="400" font-size="41" transform="matrix(6.12323e-17 -1 1 6.12323e-17 4273.28 1226)">12-May</text>
		</g>
		<g>
			<text fill="#595959" font-family="Verdana,sans-serif" font-weight="400" font-size="41" transform="matrix(1 0 0 1 3167.5 1050)">0</text>
		</g>
		<g>
			<text fill="#595959" font-family="Verdana,sans-serif" font-weight="400" font-size="41" transform="matrix(1 0 0 1 3140.5 922)">64</text>
		</g>
		<g>
			<text fill="#595959" font-family="Verdana,sans-serif" font-weight="400" font-size="41" transform="matrix(1 0 0 1 3117.5 794)">128</text>
		</g>
		<g>
			<text fill="#595959" font-family="Verdana,sans-serif" font-weight="400" font-size="41" transform="matrix(1 0 0 1 3118.5 666)">193</text>
		</g>
		<g>
			<text fill="#595959" font-family="Verdana,sans-serif" font-weight="400" font-size="41" transform="matrix(1 0 0 1 3115.5 538)">257</text>
		</g>
		<g>
			<text fill="#595959" font-family="Verdana,sans-serif" font-weight="400" font-size="41" transform="matrix(1 0 0 1 3117.5 410)">321</text>
		</g>
		<g>
			<text fill="#595959" font-family="Verdana,sans-serif" font-weight="400" font-size="41" transform="matrix(1 0 0 1 3544.5 1321)">Week Commencing</text>
		</g>
		<g>
			<text fill="#595959" font-family="Verdana,sans-serif" font-weight="400" font-size="46" transform="matrix(6.12323e-17 -1 1 6.12323e-17 3019.73 1024.75)">Number of Crawler Profiles</text>
		</g>
		<rect x="2918.5" y="347.5" width="1760" height="1043" stroke="#D9D9D9" stroke-width="3.4375" stroke-linejoin="round" stroke-miterlimit="10" fill="none" />
		<g>
			<path d="M3228.5 1038 3249.86 1038 3271.22 1038 3292.58 1038 3313.94 1038 3335.3 1038 3356.66 1038 3378.02 1038 3399.38 1038 3420.74 1038 3442.1 1038 3463.46 1038 3484.82 1038 3506.18 1038 3527.54 1038 3548.9 1038 3570.26 1038 3591.62 1038 3612.98 1038 3634.34 1038 3655.7 1038 3677.06 1038 3698.42 1038 3719.7799999999997 1038 3741.14 1038 3762.5 1038 3783.86 1038 3805.2200000000003 1038 3826.58 1038 3847.94 1038 3869.3 1038 3890.66 1038 3912.02 1038 3933.38 1038 3954.74 1038 3976.1 1038 3997.46 1038 4018.8199999999997 1038 4040.18 1038 4061.54 1038 4082.9 1038 4104.26 1038 4125.62 1038 4146.98 1038 4168.34 1038 4189.7 1038 4211.0599999999995 1038 4232.42 1038 4253.78 1038 4275.139999999999 1038 4296.5 1038 4296.5 399.993769470405 4275.139999999999 401.98753894080994 4253.78 407.9688473520249 4232.42 409.96261682242994 4211.0599999999995 411.95638629283485 4189.7 413.9501557632399 4168.34 413.9501557632399 4146.98 413.9501557632399 4125.62 415.9439252336449 4104.26 415.9439252336449 4082.9 415.9439252336449 4061.54 417.9376947040498 4040.18 417.9376947040498 4018.8199999999997 419.93146417445485 3997.46 419.93146417445485 3976.1 421.92523364485976 3954.74 423.9190031152648 3933.38 425.9127725856698 3912.02 425.9127725856698 3890.66 429.90031152647975 3869.3 431.8940809968848 3847.94 431.8940809968848 3826.58 431.8940809968848 3805.2200000000003 435.8816199376947 3783.86 437.87538940809964 3762.5 443.8566978193146 3741.14 451.8317757009346 3719.7799999999997 463.79439252336454 3698.42 469.7757009345794 3677.06 469.7757009345794 3655.7 467.7819314641745 3634.34 471.7694704049844 3612.98 477.7507788161994 3591.62 485.72585669781927 3570.26 485.72585669781927 3548.9 487.7196261682243 3527.54 497.6884735202492 3506.18 501.67601246105914 3484.82 505.6635514018692 3463.46 505.6635514018692 3442.1 509.65109034267914 3420.74 509.65109034267914 3399.38 511.64485981308417 3378.02 513.6386292834891 3356.66 521.6137071651091 3335.3 527.5950155763239 3313.94 535.5700934579439 3292.58 541.5514018691589 3271.22 551.5202492211838 3249.86 555.5077881619937 3228.5 555.5077881619937 3228.5 1038Z" fill="#005aa6" opacity="0.9" />
		</g>
		<g>
			<path d="M3228.5 555.5077881619937 3249.86 555.5077881619937 3271.22 551.5202492211838 3292.58 541.5514018691589 3313.94 535.5700934579439 3335.3 527.5950155763239 3356.66 521.6137071651091 3378.02 513.6386292834891 3399.38 511.64485981308417 3420.74 509.65109034267914 3442.1 509.65109034267914 3463.46 505.6635514018692 3484.82 505.6635514018692 3506.18 501.67601246105914 3527.54 497.6884735202492 3548.9 487.7196261682243 3570.26 485.72585669781927 3591.62 485.72585669781927 3612.98 477.7507788161994 3634.34 471.7694704049844 3655.7 467.7819314641745 3677.06 469.7757009345794 3698.42 469.7757009345794 3719.7799999999997 463.79439252336454 3741.14 451.8317757009346 3762.5 443.8566978193146 3783.86 437.87538940809964 3805.2200000000003 435.8816199376947 3826.58 431.8940809968848 3847.94 431.8940809968848 3869.3 431.8940809968848 3890.66 429.90031152647975 3912.02 425.9127725856698 3933.38 425.9127725856698 3954.74 423.9190031152648 3976.1 421.92523364485976 3997.46 419.93146417445485 4018.8199999999997 419.93146417445485 4040.18 417.9376947040498 4061.54 417.9376947040498 4082.9 415.9439252336449 4104.26 415.9439252336449 4125.62 415.9439252336449 4146.98 413.9501557632399 4168.34 413.9501557632399 4189.7 413.9501557632399 4211.0599999999995 411.95638629283485 4232.42 409.96261682242994 4253.78 407.9688473520249 4275.139999999999 401.98753894080994 4296.5 399.993769470405 4296.5 398.00000000000006 4275.139999999999 399.99376947040497 4253.78 405.97507788161994 4232.42 407.96884735202497 4211.0599999999995 409.9626168224299 4189.7 411.9563862928349 4168.34 411.9563862928349 4146.98 411.9563862928349 4125.62 413.95015576323993 4104.26 413.95015576323993 4082.9 413.95015576323993 4061.54 415.94392523364485 4040.18 415.94392523364485 4018.8199999999997 417.9376947040499 3997.46 417.9376947040499 3976.1 419.9314641744548 3954.74 421.9252336448598 3933.38 423.91900311526484 3912.02 423.91900311526484 3890.66 427.9065420560748 3869.3 429.9003115264798 3847.94 429.9003115264798 3826.58 429.9003115264798 3805.2200000000003 433.88785046728975 3783.86 435.88161993769467 3762.5 441.86292834890963 3741.14 449.83800623052963 3719.7799999999997 461.80062305295957 3698.42 467.7819314641744 3677.06 467.7819314641744 3655.7 465.7881619937695 3634.34 469.77570093457945 3612.98 475.7570093457944 3591.62 483.7320872274143 3570.26 483.7320872274143 3548.9 485.7258566978193 3527.54 495.69470404984423 3506.18 499.6822429906542 3484.82 503.66978193146423 3463.46 503.66978193146423 3442.1 507.65732087227417 3420.74 507.65732087227417 3399.38 509.6510903426792 3378.02 511.6448598130841 3356.66 519.619937694704 3335.3 525.6012461059189 3313.94 533.5763239875389 3292.58 539.5576323987539 3271.22 549.5264797507788 3249.86 553.5140186915887 3228.5 553.5140186915887 3228.5 555.5077881619937Z" fill="#e62d39" opacity="0.9" />
		</g>
		<g>
			<rect x="4372" y="431" width="22.9995" height="23" fill="#005aa6" />
		</g>
		<g>
			<text fill="#595959" font-family="Verdana,sans-serif" font-weight="400" font-size="41" transform="matrix(1 0 0 1 4404.56 454)">Crawler</text>
		</g>
		<g>
			<rect x="4372" y="508" width="22.9995" height="23" fill="#e62d39" />
		</g>
		<g>
			<text fill="#595959" font-family="Verdana,sans-serif" font-weight="400" font-size="41" transform="matrix(1 0 0 1 4404.56 531)">Non-Crawler</text>
		</g>
	</g>
</svg>
