<svg width="1763" height="1046"
    xmlns="http://www.w3.org/2000/svg"
	xmlns:xlink="http://www.w3.org/1999/xlink" xml:space="preserve" overflow="hidden">
	<defs>
		<clipPath id="clip0">
			<rect x="2917" y="346" width="1763" height="1046"/>
		</clipPath>
	</defs>
	<g clip-path="url(#clip0)" transform="translate(-2917 -346)">
		<rect x="2918" y="347" width="1760" height="1043" fill="#FFFFFF" />
		<g>
			<path d="
			M3228.5 974.532 4296.5 974.532
			M3228.5 910.53 4296.5 910.53
			M3228.5 846.528 4296.5 846.528
			M3228.5 781.526 4296.5 781.526
			M3228.5 717.524 4296.5 717.524
			M3228.5 653.522 4296.5 653.522
			M3228.5 589.52 4296.5 589.52
			M3228.5 525.517 4296.5 525.517
			M3228.5 461.515 4296.5 461.515
			M3228.5 397.5 4296.5 397.5" stroke="#D9D9D9" stroke-width="3.4375" stroke-linejoin="round" stroke-miterlimit="10" fill="none" />
		</g>
		<g>
			<path d="M 1038.5 4296.5 1038.5" stroke="#D9D9D9" stroke-width="3.4375" stroke-linejoin="round" stroke-miterlimit="10" fill="none" fill-rule="evenodd" />
		</g>
		<g>
			<text fill="#595959" font-family="Verdana,Open Sans,DejaVu Sans,sans-serif" font-weight="400" font-size="41" transform="matrix(6.12323e-17 -1 1 6.12323e-17 3243.564697265625 1207.24609375)">30-Dec</text>
		</g>
		<g>
			<text fill="#595959" font-family="Verdana,Open Sans,DejaVu Sans,sans-serif" font-weight="400" font-size="41" transform="matrix(6.12323e-17 -1 1 6.12323e-17 3332.6382421875 1191.6909103393555)">27-Jan</text>
		</g>
		<g>
			<text fill="#595959" font-family="Verdana,Open Sans,DejaVu Sans,sans-serif" font-weight="400" font-size="41" transform="matrix(6.12323e-17 -1 1 6.12323e-17 3415.155390625 1203.08203125)">24-Feb</text>
		</g>
		<g>
			<text fill="#595959" font-family="Verdana,Open Sans,DejaVu Sans,sans-serif" font-weight="400" font-size="41" transform="matrix(6.12323e-17 -1 1 6.12323e-17 3499.864677734375 1212.05078125)">24-Mar</text>
		</g>
		<g>
			<text fill="#595959" font-family="Verdana,Open Sans,DejaVu Sans,sans-serif" font-weight="400" font-size="41" transform="matrix(6.12323e-17 -1 1 6.12323e-17 3590.029287109375 1203.3022384643555)">21-Apr</text>
		</g>
		<g>
			<text fill="#595959" font-family="Verdana,Open Sans,DejaVu Sans,sans-serif" font-weight="400" font-size="41" transform="matrix(6.12323e-17 -1 1 6.12323e-17 3675.469287109375 1214.75341796875)">19-May</text>
		</g>
		<g>
			<text fill="#595959" font-family="Verdana,Open Sans,DejaVu Sans,sans-serif" font-weight="400" font-size="41" transform="matrix(6.12323e-17 -1 1 6.12323e-17 3759.8382421875 1194.0532150268555)">23-Jun</text>
		</g>
		<g>
			<text fill="#595959" font-family="Verdana,Open Sans,DejaVu Sans,sans-serif" font-weight="400" font-size="41" transform="matrix(6.12323e-17 -1 1 6.12323e-17 3846.008955078125 1179.0385665893555)">21-Jul</text>
		</g>
		<g>
			<text fill="#595959" font-family="Verdana,Open Sans,DejaVu Sans,sans-serif" font-weight="400" font-size="41" transform="matrix(6.12323e-17 -1 1 6.12323e-17 3931.789287109375 1206.90576171875)">18-Aug</text>
		</g>
		<g>
			<text fill="#595959" font-family="Verdana,Open Sans,DejaVu Sans,sans-serif" font-weight="400" font-size="41" transform="matrix(6.12323e-17 -1 1 6.12323e-17 4017.229287109375 1202.66162109375)">15-Sep</text>
		</g>
		<g>
			<text fill="#595959" font-family="Verdana,Open Sans,DejaVu Sans,sans-serif" font-weight="400" font-size="41" transform="matrix(6.12323e-17 -1 1 6.12323e-17 4097.964697265625 1199.3784103393555)">13-Oct</text>
		</g>
		<g>
			<text fill="#595959" font-family="Verdana,Open Sans,DejaVu Sans,sans-serif" font-weight="400" font-size="41" transform="matrix(6.12323e-17 -1 1 6.12323e-17 4183.404697265625 1209.70849609375)">10-Nov</text>
		</g>
		<g>
			<text fill="#595959" font-family="Verdana,Open Sans,DejaVu Sans,sans-serif" font-weight="400" font-size="41" transform="matrix(6.12323e-17 -1 1 6.12323e-17 4268.844697265625 1207.0859375)">08-Dec</text>
		</g>
		<g>
			<text fill="#595959" font-family="Verdana,Open Sans,DejaVu Sans,sans-serif" font-weight="400" font-size="41" transform="matrix(1 0 0 1 3169.14111328125 1050)">0</text>
		</g>
		<g>
			<text fill="#595959" font-family="Verdana,Open Sans,DejaVu Sans,sans-serif" font-weight="400" font-size="41" transform="matrix(1 0 0 1 3146.15869140625 922)">69</text>
		</g>
		<g>
			<text fill="#595959" font-family="Verdana,Open Sans,DejaVu Sans,sans-serif" font-weight="400" font-size="41" transform="matrix(1 0 0 1 3124.05712890625 794)">138</text>
		</g>
		<g>
			<text fill="#595959" font-family="Verdana,Open Sans,DejaVu Sans,sans-serif" font-weight="400" font-size="41" transform="matrix(1 0 0 1 3122.17529296875 666)">206</text>
		</g>
		<g>
			<text fill="#595959" font-family="Verdana,Open Sans,DejaVu Sans,sans-serif" font-weight="400" font-size="41" transform="matrix(1 0 0 1 3122.53564453125 538)">275</text>
		</g>
		<g>
			<text fill="#595959" font-family="Verdana,Open Sans,DejaVu Sans,sans-serif" font-weight="400" font-size="41" transform="matrix(1 0 0 1 3120.8740234375 410)">344</text>
		</g>
		<g>
			<text fill="#595959" font-family="Verdana,Open Sans,DejaVu Sans,sans-serif" font-weight="400" font-size="41" transform="matrix(1 0 0 1 3556.97119140625 1321)">Week Commencing</text>
		</g>
		<g>
			<text fill="#595959" font-family="Verdana,Open Sans,DejaVu Sans,sans-serif" font-weight="400" font-size="46" transform="matrix(6.12323e-17 -1 1 6.12323e-17 3019.73 1005.4858093261719)">Number of Crawler Profiles</text>
		</g>
		<rect x="2918.5" y="347.5" width="1760" height="1043" stroke="#D9D9D9" stroke-width="3.4375" stroke-linejoin="round" stroke-miterlimit="10" fill="none" />
		<g>
			<path d="M3228.5 1038 3249.86 1038 3271.22 1038 3292.58 1038 3313.94 1038 3335.3 1038 3356.66 1038 3378.02 1038 3399.38 1038 3420.74 1038 3442.1 1038 3463.46 1038 3484.82 1038 3506.18 1038 3527.54 1038 3548.9 1038 3570.26 1038 3591.62 1038 3612.98 1038 3634.34 1038 3655.7 1038 3677.06 1038 3698.42 1038 3719.7799999999997 1038 3741.14 1038 3762.5 1038 3783.86 1038 3805.2200000000003 1038 3826.58 1038 3847.94 1038 3869.3 1038 3890.66 1038 3912.02 1038 3933.38 1038 3954.74 1038 3976.1 1038 3997.46 1038 4018.8199999999997 1038 4040.18 1038 4061.54 1038 4082.9 1038 4104.26 1038 4125.62 1038 4146.98 1038 4168.34 1038 4189.7 1038 4211.0599999999995 1038 4232.42 1038 4253.78 1038 4275.139999999999 1038 4296.5 1038 4296.5 399.8604651162791 4275.139999999999 401.7209302325582 4253.78 403.5813953488372 4232.42 409.1627906976744 4211.0599999999995 409.1627906976744 4189.7 409.1627906976744 4168.34 411.0232558139535 4146.98 414.7441860465117 4125.62 414.7441860465117 4104.26 414.7441860465117 4082.9 416.6046511627907 4061.54 416.6046511627907 4040.18 416.6046511627907 4018.8199999999997 424.04651162790697 3997.46 424.04651162790697 3976.1 424.04651162790697 3954.74 424.04651162790697 3933.38 424.04651162790697 3912.02 424.04651162790697 3890.66 424.04651162790697 3869.3 424.04651162790697 3847.94 424.04651162790697 3826.58 425.90697674418607 3805.2200000000003 425.90697674418607 3783.86 427.76744186046517 3762.5 427.76744186046517 3741.14 437.06976744186045 3719.7799999999997 438.93023255813955 3698.42 438.93023255813955 3677.06 442.65116279069764 3655.7 444.51162790697674 3634.34 450.09302325581393 3612.98 451.95348837209303 3591.62 453.81395348837214 3570.26 455.6744186046511 3548.9 455.6744186046511 3527.54 455.6744186046511 3506.18 457.5348837209302 3484.82 457.5348837209302 3463.46 457.5348837209302 3442.1 459.3953488372093 3420.74 459.3953488372093 3399.38 461.2558139534884 3378.02 461.2558139534884 3356.66 463.1162790697674 3335.3 464.9767441860465 3313.94 466.8372093023256 3292.58 466.8372093023256 3271.22 470.5581395348837 3249.86 472.4186046511628 3228.5 472.4186046511628 3228.5 1038Z" fill="#005aa6" opacity="0.9" />
		</g>
		<g>
			<path d="M3228.5 472.4186046511628 3249.86 472.4186046511628 3271.22 470.5581395348837 3292.58 466.8372093023256 3313.94 466.8372093023256 3335.3 464.9767441860465 3356.66 463.1162790697674 3378.02 461.2558139534884 3399.38 461.2558139534884 3420.74 459.3953488372093 3442.1 459.3953488372093 3463.46 457.5348837209302 3484.82 457.5348837209302 3506.18 457.5348837209302 3527.54 455.6744186046511 3548.9 455.6744186046511 3570.26 455.6744186046511 3591.62 453.81395348837214 3612.98 451.95348837209303 3634.34 450.09302325581393 3655.7 444.51162790697674 3677.06 442.65116279069764 3698.42 438.93023255813955 3719.7799999999997 438.93023255813955 3741.14 437.06976744186045 3762.5 427.76744186046517 3783.86 427.76744186046517 3805.2200000000003 425.90697674418607 3826.58 425.90697674418607 3847.94 424.04651162790697 3869.3 424.04651162790697 3890.66 424.04651162790697 3912.02 424.04651162790697 3933.38 424.04651162790697 3954.74 424.04651162790697 3976.1 424.04651162790697 3997.46 424.04651162790697 4018.8199999999997 424.04651162790697 4040.18 416.6046511627907 4061.54 416.6046511627907 4082.9 416.6046511627907 4104.26 414.7441860465117 4125.62 414.7441860465117 4146.98 414.7441860465117 4168.34 411.0232558139535 4189.7 409.1627906976744 4211.0599999999995 409.1627906976744 4232.42 409.1627906976744 4253.78 403.5813953488372 4275.139999999999 401.7209302325582 4296.5 399.8604651162791 4296.5 398.00000000000006 4275.139999999999 399.86046511627916 4253.78 401.72093023255815 4232.42 407.30232558139534 4211.0599999999995 407.30232558139534 4189.7 407.30232558139534 4168.34 409.16279069767444 4146.98 412.88372093023264 4125.62 412.88372093023264 4104.26 412.88372093023264 4082.9 414.74418604651163 4061.54 414.74418604651163 4040.18 414.74418604651163 4018.8199999999997 422.1860465116279 3997.46 422.1860465116279 3976.1 422.1860465116279 3954.74 422.1860465116279 3933.38 422.1860465116279 3912.02 422.1860465116279 3890.66 422.1860465116279 3869.3 422.1860465116279 3847.94 422.1860465116279 3826.58 424.046511627907 3805.2200000000003 424.046511627907 3783.86 425.9069767441861 3762.5 425.9069767441861 3741.14 435.2093023255814 3719.7799999999997 437.0697674418605 3698.42 437.0697674418605 3677.06 440.7906976744186 3655.7 442.6511627906977 3634.34 448.2325581395349 3612.98 450.093023255814 3591.62 451.9534883720931 3570.26 453.8139534883721 3548.9 453.8139534883721 3527.54 453.8139534883721 3506.18 455.6744186046512 3484.82 455.6744186046512 3463.46 455.6744186046512 3442.1 457.5348837209303 3420.74 457.5348837209303 3399.38 459.3953488372094 3378.02 459.3953488372094 3356.66 461.25581395348837 3335.3 463.1162790697675 3313.94 464.9767441860466 3292.58 464.9767441860466 3271.22 468.69767441860466 3249.86 470.55813953488376 3228.5 470.55813953488376 3228.5 472.4186046511628Z" fill="#e62d39" opacity="0.9" />
		</g>
		<g>
			<rect x="4372" y="431" width="22.9995" height="23" fill="#005aa6" />
		</g>
		<g>
			<text fill="#595959" font-family="Verdana,Open Sans,DejaVu Sans,sans-serif" font-weight="400" font-size="41" transform="matrix(1 0 0 1 4404.56 454)">Crawler</text>
		</g>
		<g>
			<rect x="4372" y="508" width="22.9995" height="23" fill="#e62d39" />
		</g>
		<g>
			<text fill="#595959" font-family="Verdana,Open Sans,DejaVu Sans,sans-serif" font-weight="400" font-size="41" transform="matrix(1 0 0 1 4404.56 531)">Non-Crawler</text>
		</g>
	</g>
</svg>
