<svg width="1763" height="1046"
    xmlns="http://www.w3.org/2000/svg"
	xmlns:xlink="http://www.w3.org/1999/xlink" xml:space="preserve" overflow="hidden">
	<defs>
		<clipPath id="clip0">
			<rect x="2917" y="346" width="1763" height="1046"/>
		</clipPath>
	</defs>
	<g clip-path="url(#clip0)" transform="translate(-2917 -346)">
		<rect x="2918" y="347" width="1760" height="1043" fill="#FFFFFF" />
		<g>
			<path d="
			M3228.5 974.532 4296.5 974.532
			M3228.5 910.53 4296.5 910.53
			M3228.5 846.528 4296.5 846.528
			M3228.5 781.526 4296.5 781.526
			M3228.5 717.524 4296.5 717.524
			M3228.5 653.522 4296.5 653.522
			M3228.5 589.52 4296.5 589.52
			M3228.5 525.517 4296.5 525.517
			M3228.5 461.515 4296.5 461.515
			M3228.5 397.5 4296.5 397.5" stroke="#D9D9D9" stroke-width="3.4375" stroke-linejoin="round" stroke-miterlimit="10" fill="none" />
		</g>
		<g>
			<path d="M 1038.5 4296.5 1038.5" stroke="#D9D9D9" stroke-width="3.4375" stroke-linejoin="round" stroke-miterlimit="10" fill="none" fill-rule="evenodd" />
		</g>
		<g>
			<text fill="#595959" font-family="Verdana,sans-serif" font-weight="400" font-size="41" transform="matrix(6.12323e-17 -1 1 6.12323e-17 3244.5 1225)">06-Nov</text>
		</g>
		<g>
			<text fill="#595959" font-family="Verdana,sans-serif" font-weight="400" font-size="41" transform="matrix(6.12323e-17 -1 1 6.12323e-17 3315.7 1224)">20-Nov</text>
		</g>
		<g>
			<text fill="#595959" font-family="Verdana,sans-serif" font-weight="400" font-size="41" transform="matrix(6.12323e-17 -1 1 6.12323e-17 3386.9 1223)">04-Dec</text>
		</g>
		<g>
			<text fill="#595959" font-family="Verdana,sans-serif" font-weight="400" font-size="41" transform="matrix(6.12323e-17 -1 1 6.12323e-17 3458.1 1220)">18-Dec</text>
		</g>
		<g>
			<text fill="#595959" font-family="Verdana,sans-serif" font-weight="400" font-size="41" transform="matrix(6.12323e-17 -1 1 6.12323e-17 3529.3 1210)">01-Jan</text>
		</g>
		<g>
			<text fill="#595959" font-family="Verdana,sans-serif" font-weight="400" font-size="41" transform="matrix(6.12323e-17 -1 1 6.12323e-17 3600 1207)">15-Jan</text>
		</g>
		<g>
			<text fill="#595959" font-family="Verdana,sans-serif" font-weight="400" font-size="41" transform="matrix(6.12323e-17 -1 1 6.12323e-17 3671.7 1210)">29-Jan</text>
		</g>
		<g>
			<text fill="#595959" font-family="Verdana,sans-serif" font-weight="400" font-size="41" transform="matrix(6.12323e-17 -1 1 6.12323e-17 3742.9 1214)">12-Feb</text>
		</g>
		<g>
			<text fill="#595959" font-family="Verdana,sans-serif" font-weight="400" font-size="41" transform="matrix(6.12323e-17 -1 1 6.12323e-17 3814.1 1216)">26-Feb</text>
		</g>
		<g>
			<text fill="#595959" font-family="Verdana,sans-serif" font-weight="400" font-size="41" transform="matrix(6.12323e-17 -1 1 6.12323e-17 3884.8 1221)">11-Mar</text>
		</g>
		<g>
			<text fill="#595959" font-family="Verdana,sans-serif" font-weight="400" font-size="41" transform="matrix(6.12323e-17 -1 1 6.12323e-17 3956.5 1223)">25-Mar</text>
		</g>
		<g>
			<text fill="#595959" font-family="Verdana,sans-serif" font-weight="400" font-size="41" transform="matrix(6.12323e-17 -1 1 6.12323e-17 4031.2 1217)">08-Apr</text>
		</g>
		<g>
			<text fill="#595959" font-family="Verdana,sans-serif" font-weight="400" font-size="41" transform="matrix(6.12323e-17 -1 1 6.12323e-17 4102.4 1216)">22-Apr</text>
		</g>
		<g>
			<text fill="#595959" font-family="Verdana,sans-serif" font-weight="400" font-size="41" transform="matrix(6.12323e-17 -1 1 6.12323e-17 4173.6 1228)">06-May</text>
		</g>
		<g>
			<text fill="#595959" font-family="Verdana,sans-serif" font-weight="400" font-size="41" transform="matrix(6.12323e-17 -1 1 6.12323e-17 4244.8 1228)">20-May</text>
		</g>
		<g>
			<text fill="#595959" font-family="Verdana,sans-serif" font-weight="400" font-size="41" transform="matrix(6.12323e-17 -1 1 6.12323e-17 4312.5 1211)">03-Jun</text>
		</g>
		<g>
			<text fill="#595959" font-family="Verdana,sans-serif" font-weight="400" font-size="41" transform="matrix(1 0 0 1 3167.5 1050)">0</text>
		</g>
		<g>
			<text fill="#595959" font-family="Verdana,sans-serif" font-weight="400" font-size="41" transform="matrix(1 0 0 1 3140.5 922)">49</text>
		</g>
		<g>
			<text fill="#595959" font-family="Verdana,sans-serif" font-weight="400" font-size="41" transform="matrix(1 0 0 1 3140.5 794)">97</text>
		</g>
		<g>
			<text fill="#595959" font-family="Verdana,sans-serif" font-weight="400" font-size="41" transform="matrix(1 0 0 1 3117.5 666)">146</text>
		</g>
		<g>
			<text fill="#595959" font-family="Verdana,sans-serif" font-weight="400" font-size="41" transform="matrix(1 0 0 1 3117.5 538)">194</text>
		</g>
		<g>
			<text fill="#595959" font-family="Verdana,sans-serif" font-weight="400" font-size="41" transform="matrix(1 0 0 1 3116.5 410)">243</text>
		</g>
		<g>
			<text fill="#595959" font-family="Verdana,sans-serif" font-weight="400" font-size="41" transform="matrix(1 0 0 1 3544.5 1321)">Week Commencing</text>
		</g>
		<g>
			<text fill="#595959" font-family="Verdana,sans-serif" font-weight="400" font-size="46" transform="matrix(6.12323e-17 -1 1 6.12323e-17 3019.73 1024.75)">Number of Crawler Profiles</text>
		</g>
		<rect x="2918.5" y="347.5" width="1760" height="1043" stroke="#D9D9D9" stroke-width="3.4375" stroke-linejoin="round" stroke-miterlimit="10" fill="none" />
		<g>
			<path d="M3228.5 1038 3264.1 1038 3299.7 1038 3335.3 1038 3370.9 1038 3406.5 1038 3442.1 1038 3477.7 1038 3513.3 1038 3548.9 1038 3584.5 1038 3620.1 1038 3655.7 1038 3691.3 1038 3726.9 1038 3762.5 1038 3798.1 1038 3833.7 1038 3869.3 1038 3904.9 1038 3940.5 1038 3976.1 1038 4011.7 1038 4047.3 1038 4082.9 1038 4118.5 1038 4154.1 1038 4189.7 1038 4225.3 1038 4260.9 1038 4296.5 1038 4296.5 400.63374485596705 4260.9 400.63374485596705 4225.3 403.2674897119341 4189.7 408.5349794238683 4154.1 419.06995884773664 4118.5 424.33744855967075 4082.9 426.9711934156379 4047.3 426.9711934156379 4011.7 437.5061728395061 3976.1 437.5061728395061 3940.5 450.6748971193416 3904.9 477.01234567901236 3869.3 482.27983539094646 3833.7 487.5473251028807 3798.1 500.71604938271605 3762.5 503.3497942386831 3726.9 503.3497942386831 3691.3 505.98353909465015 3655.7 511.2510288065844 3620.1 524.4197530864197 3584.5 527.0534979423869 3548.9 527.0534979423869 3513.3 532.320987654321 3477.7 532.320987654321 3442.1 532.320987654321 3406.5 532.320987654321 3370.9 532.320987654321 3335.3 534.9547325102881 3299.7 534.9547325102881 3264.1 534.9547325102881 3228.5 534.9547325102881 3228.5 1038Z" fill="#005aa6" opacity="0.9" />
		</g>
		<g>
			<path d="M3228.5 534.9547325102881 3264.1 534.9547325102881 3299.7 534.9547325102881 3335.3 534.9547325102881 3370.9 532.320987654321 3406.5 532.320987654321 3442.1 532.320987654321 3477.7 532.320987654321 3513.3 532.320987654321 3548.9 527.0534979423869 3584.5 527.0534979423869 3620.1 524.4197530864197 3655.7 511.2510288065844 3691.3 505.98353909465015 3726.9 503.3497942386831 3762.5 503.3497942386831 3798.1 500.71604938271605 3833.7 487.5473251028807 3869.3 482.27983539094646 3904.9 477.01234567901236 3940.5 450.6748971193416 3976.1 437.5061728395061 4011.7 437.5061728395061 4047.3 426.9711934156379 4082.9 426.9711934156379 4118.5 424.33744855967075 4154.1 419.06995884773664 4189.7 408.5349794238683 4225.3 403.2674897119341 4260.9 400.63374485596705 4296.5 400.63374485596705 4296.5 398 4260.9 398 4225.3 400.63374485596705 4189.7 405.90123456790127 4154.1 416.4362139917696 4118.5 421.7037037037037 4082.9 424.33744855967086 4047.3 424.33744855967086 4011.7 434.87242798353907 3976.1 434.87242798353907 3940.5 448.04115226337456 3904.9 474.3786008230453 3869.3 479.6460905349794 3833.7 484.9135802469136 3798.1 498.082304526749 3762.5 500.71604938271605 3726.9 500.71604938271605 3691.3 503.3497942386831 3655.7 508.6172839506173 3620.1 521.7860082304527 3584.5 524.4197530864199 3548.9 524.4197530864199 3513.3 529.687242798354 3477.7 529.687242798354 3442.1 529.687242798354 3406.5 529.687242798354 3370.9 529.687242798354 3335.3 532.320987654321 3299.7 532.320987654321 3264.1 532.320987654321 3228.5 532.320987654321 3228.5 534.9547325102881Z" fill="#e62d39" opacity="0.9" />
		</g>
		<g>
			<rect x="4372" y="431" width="22.9995" height="23" fill="#005aa6" />
		</g>
		<g>
			<text fill="#595959" font-family="Verdana,sans-serif" font-weight="400" font-size="41" transform="matrix(1 0 0 1 4404.56 454)">Crawler</text>
		</g>
		<g>
			<rect x="4372" y="508" width="22.9995" height="23" fill="#e62d39" />
		</g>
		<g>
			<text fill="#595959" font-family="Verdana,sans-serif" font-weight="400" font-size="41" transform="matrix(1 0 0 1 4404.56 531)">Non-Crawler</text>
		</g>
	</g>
</svg>
