<svg width="1763" height="1046"
    xmlns="http://www.w3.org/2000/svg"
	xmlns:xlink="http://www.w3.org/1999/xlink" xml:space="preserve" overflow="hidden">
	<defs>
		<clipPath id="clip0">
			<rect x="2917" y="346" width="1763" height="1046"/>
		</clipPath>
	</defs>
	<g clip-path="url(#clip0)" transform="translate(-2917 -346)">
		<rect x="2918" y="347" width="1760" height="1043" fill="#FFFFFF" />
		<g>
			<path d="
			M3228.5 974.532 4296.5 974.532
			M3228.5 910.53 4296.5 910.53
			M3228.5 846.528 4296.5 846.528
			M3228.5 781.526 4296.5 781.526
			M3228.5 717.524 4296.5 717.524
			M3228.5 653.522 4296.5 653.522
			M3228.5 589.52 4296.5 589.52
			M3228.5 525.517 4296.5 525.517
			M3228.5 461.515 4296.5 461.515
			M3228.5 397.5 4296.5 397.5" stroke="#D9D9D9" stroke-width="3.4375" stroke-linejoin="round" stroke-miterlimit="10" fill="none" />
		</g>
		<g>
			<path d="M 1038.5 4296.5 1038.5" stroke="#D9D9D9" stroke-width="3.4375" stroke-linejoin="round" stroke-miterlimit="10" fill="none" fill-rule="evenodd" />
		</g>
		<g>
			<text fill="#595959" font-family="Verdana,sans-serif" font-weight="400" font-size="41" transform="matrix(6.12323e-17 -1 1 6.12323e-17 3244.5 1225)">06-Nov</text>
		</g>
		<g>
			<text fill="#595959" font-family="Verdana,sans-serif" font-weight="400" font-size="41" transform="matrix(6.12323e-17 -1 1 6.12323e-17 3351.3 1223)">04-Dec</text>
		</g>
		<g>
			<text fill="#595959" font-family="Verdana,sans-serif" font-weight="400" font-size="41" transform="matrix(6.12323e-17 -1 1 6.12323e-17 3458.1 1210)">01-Jan</text>
		</g>
		<g>
			<text fill="#595959" font-family="Verdana,sans-serif" font-weight="400" font-size="41" transform="matrix(6.12323e-17 -1 1 6.12323e-17 3564.9 1210)">29-Jan</text>
		</g>
		<g>
			<text fill="#595959" font-family="Verdana,sans-serif" font-weight="400" font-size="41" transform="matrix(6.12323e-17 -1 1 6.12323e-17 3671.7 1216)">26-Feb</text>
		</g>
		<g>
			<text fill="#595959" font-family="Verdana,sans-serif" font-weight="400" font-size="41" transform="matrix(6.12323e-17 -1 1 6.12323e-17 3778.5 1223)">25-Mar</text>
		</g>
		<g>
			<text fill="#595959" font-family="Verdana,sans-serif" font-weight="400" font-size="41" transform="matrix(6.12323e-17 -1 1 6.12323e-17 3888.8 1216)">22-Apr</text>
		</g>
		<g>
			<text fill="#595959" font-family="Verdana,sans-serif" font-weight="400" font-size="41" transform="matrix(6.12323e-17 -1 1 6.12323e-17 3995.6 1228)">20-May</text>
		</g>
		<g>
			<text fill="#595959" font-family="Verdana,sans-serif" font-weight="400" font-size="41" transform="matrix(6.12323e-17 -1 1 6.12323e-17 4098.4 1209)">17-Jun</text>
		</g>
		<g>
			<text fill="#595959" font-family="Verdana,sans-serif" font-weight="400" font-size="41" transform="matrix(6.12323e-17 -1 1 6.12323e-17 4205.7 1194)">15-Jul</text>
		</g>
		<g>
			<text fill="#595959" font-family="Verdana,sans-serif" font-weight="400" font-size="41" transform="matrix(6.12323e-17 -1 1 6.12323e-17 4316 1218)">12-Aug</text>
		</g>
		<g>
			<text fill="#595959" font-family="Verdana,sans-serif" font-weight="400" font-size="41" transform="matrix(1 0 0 1 3167.5 1050)">0</text>
		</g>
		<g>
			<text fill="#595959" font-family="Verdana,sans-serif" font-weight="400" font-size="41" transform="matrix(1 0 0 1 3142.5 922)">53</text>
		</g>
		<g>
			<text fill="#595959" font-family="Verdana,sans-serif" font-weight="400" font-size="41" transform="matrix(1 0 0 1 3117.5 794)">106</text>
		</g>
		<g>
			<text fill="#595959" font-family="Verdana,sans-serif" font-weight="400" font-size="41" transform="matrix(1 0 0 1 3118.5 666)">160</text>
		</g>
		<g>
			<text fill="#595959" font-family="Verdana,sans-serif" font-weight="400" font-size="41" transform="matrix(1 0 0 1 3116.5 538)">213</text>
		</g>
		<g>
			<text fill="#595959" font-family="Verdana,sans-serif" font-weight="400" font-size="41" transform="matrix(1 0 0 1 3115.5 410)">266</text>
		</g>
		<g>
			<text fill="#595959" font-family="Verdana,sans-serif" font-weight="400" font-size="41" transform="matrix(1 0 0 1 3544.5 1321)">Week Commencing</text>
		</g>
		<g>
			<text fill="#595959" font-family="Verdana,sans-serif" font-weight="400" font-size="46" transform="matrix(6.12323e-17 -1 1 6.12323e-17 3019.73 1024.75)">Number of Crawler Profiles</text>
		</g>
		<rect x="2918.5" y="347.5" width="1760" height="1043" stroke="#D9D9D9" stroke-width="3.4375" stroke-linejoin="round" stroke-miterlimit="10" fill="none" />
		<g>
			<path d="M3228.5 1038 3255.2 1038 3281.9 1038 3308.6 1038 3335.3 1038 3362 1038 3388.7 1038 3415.4 1038 3442.1 1038 3468.8 1038 3495.5 1038 3522.2 1038 3548.9 1038 3575.6 1038 3602.3 1038 3629 1038 3655.7 1038 3682.4 1038 3709.1 1038 3735.8 1038 3762.5 1038 3789.2 1038 3815.9 1038 3842.6 1038 3869.3 1038 3896 1038 3922.7 1038 3949.4 1038 3976.1 1038 4002.8 1038 4029.5 1038 4056.2 1038 4082.9 1038 4109.6 1038 4136.3 1038 4163 1038 4189.7 1038 4216.4 1038 4243.1 1038 4269.8 1038 4296.5 1038 4296.5 400.406015037594 4269.8 400.406015037594 4243.1 402.812030075188 4216.4 405.21804511278197 4189.7 414.8421052631579 4163 422.0601503759399 4136.3 431.68421052631584 4109.6 438.9022556390978 4082.9 450.93233082706774 4056.2 455.7443609022557 4029.5 455.7443609022557 4002.8 455.7443609022557 3976.1 458.1503759398497 3949.4 462.9624060150376 3922.7 472.5864661654135 3896 477.3984962406015 3869.3 479.8045112781955 3842.6 479.8045112781955 3815.9 489.42857142857144 3789.2 489.42857142857144 3762.5 501.4586466165414 3735.8 525.5187969924813 3709.1 530.3308270676691 3682.4 535.1428571428571 3655.7 547.172932330827 3629 549.578947368421 3602.3 549.578947368421 3575.6 551.984962406015 3548.9 556.796992481203 3522.2 568.827067669173 3495.5 571.2330827067669 3468.8 571.2330827067669 3442.1 576.0451127819549 3415.4 576.0451127819549 3388.7 576.0451127819549 3362 576.0451127819549 3335.3 576.0451127819549 3308.6 578.4511278195489 3281.9 578.4511278195489 3255.2 578.4511278195489 3228.5 578.4511278195489 3228.5 1038Z" fill="#005aa6" opacity="0.9" />
		</g>
		<g>
			<path d="M3228.5 578.4511278195489 3255.2 578.4511278195489 3281.9 578.4511278195489 3308.6 578.4511278195489 3335.3 576.0451127819549 3362 576.0451127819549 3388.7 576.0451127819549 3415.4 576.0451127819549 3442.1 576.0451127819549 3468.8 571.2330827067669 3495.5 571.2330827067669 3522.2 568.827067669173 3548.9 556.796992481203 3575.6 551.984962406015 3602.3 549.578947368421 3629 549.578947368421 3655.7 547.172932330827 3682.4 535.1428571428571 3709.1 530.3308270676691 3735.8 525.5187969924813 3762.5 501.4586466165414 3789.2 489.42857142857144 3815.9 489.42857142857144 3842.6 479.8045112781955 3869.3 479.8045112781955 3896 477.3984962406015 3922.7 472.5864661654135 3949.4 462.9624060150376 3976.1 458.1503759398497 4002.8 455.7443609022557 4029.5 455.7443609022557 4056.2 455.7443609022557 4082.9 450.93233082706774 4109.6 438.9022556390978 4136.3 431.68421052631584 4163 422.0601503759399 4189.7 414.8421052631579 4216.4 405.21804511278197 4243.1 402.812030075188 4269.8 400.406015037594 4296.5 400.406015037594 4296.5 398 4269.8 398 4243.1 400.406015037594 4216.4 402.812030075188 4189.7 412.43609022556393 4163 419.6541353383459 4136.3 429.27819548872185 4109.6 436.4962406015038 4082.9 448.52631578947376 4056.2 453.33834586466173 4029.5 453.33834586466173 4002.8 453.33834586466173 3976.1 455.7443609022557 3949.4 460.5563909774436 3922.7 470.18045112781954 3896 474.9924812030075 3869.3 477.3984962406015 3842.6 477.3984962406015 3815.9 487.02255639097746 3789.2 487.02255639097746 3762.5 499.0526315789474 3735.8 523.1127819548873 3709.1 527.9248120300751 3682.4 532.7368421052631 3655.7 544.7669172932331 3629 547.172932330827 3602.3 547.172932330827 3575.6 549.578947368421 3548.9 554.390977443609 3522.2 566.421052631579 3495.5 568.827067669173 3468.8 568.827067669173 3442.1 573.6390977443609 3415.4 573.6390977443609 3388.7 573.6390977443609 3362 573.6390977443609 3335.3 573.6390977443609 3308.6 576.0451127819549 3281.9 576.0451127819549 3255.2 576.0451127819549 3228.5 576.0451127819549 3228.5 578.4511278195489Z" fill="#e62d39" opacity="0.9" />
		</g>
		<g>
			<rect x="4372" y="431" width="22.9995" height="23" fill="#005aa6" />
		</g>
		<g>
			<text fill="#595959" font-family="Verdana,sans-serif" font-weight="400" font-size="41" transform="matrix(1 0 0 1 4404.56 454)">Crawler</text>
		</g>
		<g>
			<rect x="4372" y="508" width="22.9995" height="23" fill="#e62d39" />
		</g>
		<g>
			<text fill="#595959" font-family="Verdana,sans-serif" font-weight="400" font-size="41" transform="matrix(1 0 0 1 4404.56 531)">Non-Crawler</text>
		</g>
	</g>
</svg>
