<svg width="1763" height="1046"
    xmlns="http://www.w3.org/2000/svg"
	xmlns:xlink="http://www.w3.org/1999/xlink" xml:space="preserve" overflow="hidden">
	<defs>
		<clipPath id="clip0">
			<rect x="2917" y="346" width="1763" height="1046"/>
		</clipPath>
	</defs>
	<g clip-path="url(#clip0)" transform="translate(-2917 -346)">
		<rect x="2918" y="347" width="1760" height="1043" fill="#FFFFFF" />
		<g>
			<path d="
			M3228.5 974.532 4296.5 974.532
			M3228.5 910.53 4296.5 910.53
			M3228.5 846.528 4296.5 846.528
			M3228.5 781.526 4296.5 781.526
			M3228.5 717.524 4296.5 717.524
			M3228.5 653.522 4296.5 653.522
			M3228.5 589.52 4296.5 589.52
			M3228.5 525.517 4296.5 525.517
			M3228.5 461.515 4296.5 461.515
			M3228.5 397.5 4296.5 397.5" stroke="#D9D9D9" stroke-width="3.4375" stroke-linejoin="round" stroke-miterlimit="10" fill="none" />
		</g>
		<g>
			<path d="M 1038.5 4296.5 1038.5" stroke="#D9D9D9" stroke-width="3.4375" stroke-linejoin="round" stroke-miterlimit="10" fill="none" fill-rule="evenodd" />
		</g>
		<g>
			<text fill="#595959" font-family="Verdana,sans-serif" font-weight="400" font-size="41" transform="matrix(6.12323e-17 -1 1 6.12323e-17 3244.5 1227)">06-Nov</text>
		</g>
		<g>
			<text fill="#595959" font-family="Verdana,sans-serif" font-weight="400" font-size="41" transform="matrix(6.12323e-17 -1 1 6.12323e-17 3341.590909090909 1226)">20-Nov</text>
		</g>
		<g>
			<text fill="#595959" font-family="Verdana,sans-serif" font-weight="400" font-size="41" transform="matrix(6.12323e-17 -1 1 6.12323e-17 3438.681818181818 1225)">04-Dec</text>
		</g>
		<g>
			<text fill="#595959" font-family="Verdana,sans-serif" font-weight="400" font-size="41" transform="matrix(6.12323e-17 -1 1 6.12323e-17 3535.772727272727 1222)">18-Dec</text>
		</g>
		<g>
			<text fill="#595959" font-family="Verdana,sans-serif" font-weight="400" font-size="41" transform="matrix(6.12323e-17 -1 1 6.12323e-17 3632.8636363636365 1212)">01-Jan</text>
		</g>
		<g>
			<text fill="#595959" font-family="Verdana,sans-serif" font-weight="400" font-size="41" transform="matrix(6.12323e-17 -1 1 6.12323e-17 3729.4545454545455 1209)">15-Jan</text>
		</g>
		<g>
			<text fill="#595959" font-family="Verdana,sans-serif" font-weight="400" font-size="41" transform="matrix(6.12323e-17 -1 1 6.12323e-17 3827.0454545454545 1211)">29-Jan</text>
		</g>
		<g>
			<text fill="#595959" font-family="Verdana,sans-serif" font-weight="400" font-size="41" transform="matrix(6.12323e-17 -1 1 6.12323e-17 3924.1363636363635 1216)">12-Feb</text>
		</g>
		<g>
			<text fill="#595959" font-family="Verdana,sans-serif" font-weight="400" font-size="41" transform="matrix(6.12323e-17 -1 1 6.12323e-17 4021.227272727273 1218)">26-Feb</text>
		</g>
		<g>
			<text fill="#595959" font-family="Verdana,sans-serif" font-weight="400" font-size="41" transform="matrix(6.12323e-17 -1 1 6.12323e-17 4117.818181818182 1222)">11-Mar</text>
		</g>
		<g>
			<text fill="#595959" font-family="Verdana,sans-serif" font-weight="400" font-size="41" transform="matrix(6.12323e-17 -1 1 6.12323e-17 4215.409090909091 1225)">25-Mar</text>
		</g>
		<g>
			<text fill="#595959" font-family="Verdana,sans-serif" font-weight="400" font-size="41" transform="matrix(6.12323e-17 -1 1 6.12323e-17 4316 1218)">08-Apr</text>
		</g>
		<g>
			<text fill="#595959" font-family="Verdana,sans-serif" font-weight="400" font-size="41" transform="matrix(1 0 0 1 3167.5 1050)">0</text>
		</g>
		<g>
			<text fill="#595959" font-family="Verdana,sans-serif" font-weight="400" font-size="41" transform="matrix(1 0 0 1 3139.5 922)">46</text>
		</g>
		<g>
			<text fill="#595959" font-family="Verdana,sans-serif" font-weight="400" font-size="41" transform="matrix(1 0 0 1 3140.5 794)">92</text>
		</g>
		<g>
			<text fill="#595959" font-family="Verdana,sans-serif" font-weight="400" font-size="41" transform="matrix(1 0 0 1 3117.5 666)">137</text>
		</g>
		<g>
			<text fill="#595959" font-family="Verdana,sans-serif" font-weight="400" font-size="41" transform="matrix(1 0 0 1 3117.5 538)">183</text>
		</g>
		<g>
			<text fill="#595959" font-family="Verdana,sans-serif" font-weight="400" font-size="41" transform="matrix(1 0 0 1 3115.5 410)">229</text>
		</g>
		<g>
			<text fill="#595959" font-family="Verdana,sans-serif" font-weight="400" font-size="41" transform="matrix(1 0 0 1 3541.5 1321)">Week Commencing</text>
		</g>
		<g>
			<text fill="#595959" font-family="Verdana,sans-serif" font-weight="400" font-size="46" transform="matrix(6.12323e-17 -1 1 6.12323e-17 3019.73 1029.25)">Number of Crawler Profiles</text>
		</g>
		<rect x="2918.5" y="347.5" width="1760" height="1043" stroke="#D9D9D9" stroke-width="3.4375" stroke-linejoin="round" stroke-miterlimit="10" fill="none" />
		<g>
			<path d="M3228.5 1038 3277.0454545454545 1038 3325.590909090909 1038 3374.1363636363635 1038 3422.681818181818 1038 3471.227272727273 1038 3519.772727272727 1038 3568.318181818182 1038 3616.8636363636365 1038 3665.409090909091 1038 3713.9545454545455 1038 3762.5 1038 3811.0454545454545 1038 3859.590909090909 1038 3908.1363636363635 1038 3956.681818181818 1038 4005.227272727273 1038 4053.772727272727 1038 4102.318181818182 1038 4150.863636363636 1038 4199.409090909091 1038 4247.954545454546 1038 4296.5 1038 4296.5 400.79475982532756 4247.954545454546 400.79475982532756 4199.409090909091 414.76855895196513 4150.863636363636 442.71615720524017 4102.318181818182 448.3056768558952 4053.772727272727 453.8951965065503 4005.227272727273 467.86899563318775 3956.681818181818 470.6637554585153 3908.1363636363635 470.6637554585153 3859.590909090909 473.45851528384287 3811.0454545454545 479.0480349344979 3762.5 493.02183406113545 3713.9545454545455 495.8165938864629 3665.409090909091 495.8165938864629 3616.8636363636365 501.4061135371179 3568.318181818182 501.4061135371179 3519.772727272727 501.4061135371179 3471.227272727273 501.4061135371179 3422.681818181818 501.4061135371179 3374.1363636363635 504.20087336244546 3325.590909090909 504.20087336244546 3277.0454545454545 504.20087336244546 3228.5 504.20087336244546 3228.5 1038Z" fill="#005aa6" opacity="0.9" />
		</g>
		<g>
			<path d="M3228.5 504.20087336244546 3277.0454545454545 504.20087336244546 3325.590909090909 504.20087336244546 3374.1363636363635 504.20087336244546 3422.681818181818 501.4061135371179 3471.227272727273 501.4061135371179 3519.772727272727 501.4061135371179 3568.318181818182 501.4061135371179 3616.8636363636365 501.4061135371179 3665.409090909091 495.8165938864629 3713.9545454545455 495.8165938864629 3762.5 493.02183406113545 3811.0454545454545 479.0480349344979 3859.590909090909 473.45851528384287 3908.1363636363635 470.6637554585153 3956.681818181818 470.6637554585153 4005.227272727273 467.86899563318775 4053.772727272727 453.8951965065503 4102.318181818182 448.3056768558952 4150.863636363636 442.71615720524017 4199.409090909091 414.76855895196513 4247.954545454546 400.79475982532756 4296.5 400.79475982532756 4296.5 398.00000000000006 4247.954545454546 398.00000000000006 4199.409090909091 411.97379912663763 4150.863636363636 439.92139737991266 4102.318181818182 445.51091703056767 4053.772727272727 451.1004366812228 4005.227272727273 465.07423580786025 3956.681818181818 467.8689956331878 3908.1363636363635 467.8689956331878 3859.590909090909 470.66375545851537 3811.0454545454545 476.2532751091704 3762.5 490.22707423580795 3713.9545454545455 493.0218340611354 3665.409090909091 493.0218340611354 3616.8636363636365 498.6113537117904 3568.318181818182 498.6113537117904 3519.772727272727 498.6113537117904 3471.227272727273 498.6113537117904 3422.681818181818 498.6113537117904 3374.1363636363635 501.40611353711796 3325.590909090909 501.40611353711796 3277.0454545454545 501.40611353711796 3228.5 501.40611353711796 3228.5 504.20087336244546Z" fill="#e62d39" opacity="0.9" />
		</g>
		<g>
			<rect x="4372" y="431" width="22.9995" height="23" fill="#005aa6" />
		</g>
		<g>
			<text fill="#595959" font-family="Verdana,sans-serif" font-weight="400" font-size="41" transform="matrix(1 0 0 1 4404.56 454)">Crawler</text>
		</g>
		<g>
			<rect x="4372" y="508" width="22.9995" height="23" fill="#e62d39" />
		</g>
		<g>
			<text fill="#595959" font-family="Verdana,sans-serif" font-weight="400" font-size="41" transform="matrix(1 0 0 1 4404.56 531)">Non-Crawler</text>
		</g>
	</g>
</svg>
