<svg width="1763" height="1046"
    xmlns="http://www.w3.org/2000/svg"
	xmlns:xlink="http://www.w3.org/1999/xlink" xml:space="preserve" overflow="hidden">
	<defs>
		<clipPath id="clip0">
			<rect x="2917" y="346" width="1763" height="1046"/>
		</clipPath>
	</defs>
	<g clip-path="url(#clip0)" transform="translate(-2917 -346)">
		<rect x="2918" y="347" width="1760" height="1043" fill="#FFFFFF" />
		<g>
			<path d="
			M3228.5 974.532 4296.5 974.532
			M3228.5 910.53 4296.5 910.53
			M3228.5 846.528 4296.5 846.528
			M3228.5 781.526 4296.5 781.526
			M3228.5 717.524 4296.5 717.524
			M3228.5 653.522 4296.5 653.522
			M3228.5 589.52 4296.5 589.52
			M3228.5 525.517 4296.5 525.517
			M3228.5 461.515 4296.5 461.515
			M3228.5 397.5 4296.5 397.5" stroke="#D9D9D9" stroke-width="3.4375" stroke-linejoin="round" stroke-miterlimit="10" fill="none" />
		</g>
		<g>
			<path d="M 1038.5 4296.5 1038.5" stroke="#D9D9D9" stroke-width="3.4375" stroke-linejoin="round" stroke-miterlimit="10" fill="none" fill-rule="evenodd" />
		</g>
		<g>
			<text fill="#595959" font-family="Verdana,Open Sans,DejaVu Sans,sans-serif" font-weight="400" font-size="41" transform="matrix(6.12323e-17 -1 1 6.12323e-17 3243.564697265625 1201.1401290893555)">21-Oct</text>
		</g>
		<g>
			<text fill="#595959" font-family="Verdana,Open Sans,DejaVu Sans,sans-serif" font-weight="400" font-size="41" transform="matrix(6.12323e-17 -1 1 6.12323e-17 3328.984677734375 1209.70849609375)">18-Nov</text>
		</g>
		<g>
			<text fill="#595959" font-family="Verdana,Open Sans,DejaVu Sans,sans-serif" font-weight="400" font-size="41" transform="matrix(6.12323e-17 -1 1 6.12323e-17 3414.424677734375 1207.1259765625)">23-Dec</text>
		</g>
		<g>
			<text fill="#595959" font-family="Verdana,Open Sans,DejaVu Sans,sans-serif" font-weight="400" font-size="41" transform="matrix(6.12323e-17 -1 1 6.12323e-17 3503.53826171875 1191.6909103393555)">20-Jan</text>
		</g>
		<g>
			<text fill="#595959" font-family="Verdana,Open Sans,DejaVu Sans,sans-serif" font-weight="400" font-size="41" transform="matrix(6.12323e-17 -1 1 6.12323e-17 3586.035390625 1201.3203125)">17-Feb</text>
		</g>
		<g>
			<text fill="#595959" font-family="Verdana,Open Sans,DejaVu Sans,sans-serif" font-weight="400" font-size="41" transform="matrix(6.12323e-17 -1 1 6.12323e-17 3670.53447265625 1210.2890625)">17-Mar</text>
		</g>
		<g>
			<text fill="#595959" font-family="Verdana,Open Sans,DejaVu Sans,sans-serif" font-weight="400" font-size="41" transform="matrix(6.12323e-17 -1 1 6.12323e-17 3760.77916015625 1201.5405197143555)">14-Apr</text>
		</g>
		<g>
			<text fill="#595959" font-family="Verdana,Open Sans,DejaVu Sans,sans-serif" font-weight="400" font-size="41" transform="matrix(6.12323e-17 -1 1 6.12323e-17 3846.349287109375 1214.75341796875)">12-May</text>
		</g>
		<g>
			<text fill="#595959" font-family="Verdana,Open Sans,DejaVu Sans,sans-serif" font-weight="400" font-size="41" transform="matrix(6.12323e-17 -1 1 6.12323e-17 3930.7182421875 1192.2914962768555)">16-Jun</text>
		</g>
		<g>
			<text fill="#595959" font-family="Verdana,Open Sans,DejaVu Sans,sans-serif" font-weight="400" font-size="41" transform="matrix(6.12323e-17 -1 1 6.12323e-17 4016.888955078125 1177.2768478393555)">14-Jul</text>
		</g>
		<g>
			<text fill="#595959" font-family="Verdana,Open Sans,DejaVu Sans,sans-serif" font-weight="400" font-size="41" transform="matrix(6.12323e-17 -1 1 6.12323e-17 4102.519140625 1206.90576171875)">11-Aug</text>
		</g>
		<g>
			<text fill="#595959" font-family="Verdana,Open Sans,DejaVu Sans,sans-serif" font-weight="400" font-size="41" transform="matrix(6.12323e-17 -1 1 6.12323e-17 4188.129306640625 1204.38330078125)">08-Sep</text>
		</g>
		<g>
			<text fill="#595959" font-family="Verdana,Open Sans,DejaVu Sans,sans-serif" font-weight="400" font-size="41" transform="matrix(6.12323e-17 -1 1 6.12323e-17 4268.844697265625 1201.1000900268555)">06-Oct</text>
		</g>
		<g>
			<text fill="#595959" font-family="Verdana,Open Sans,DejaVu Sans,sans-serif" font-weight="400" font-size="41" transform="matrix(1 0 0 1 3169.14111328125 1050)">0</text>
		</g>
		<g>
			<text fill="#595959" font-family="Verdana,Open Sans,DejaVu Sans,sans-serif" font-weight="400" font-size="41" transform="matrix(1 0 0 1 3146.03857421875 922)">67</text>
		</g>
		<g>
			<text fill="#595959" font-family="Verdana,Open Sans,DejaVu Sans,sans-serif" font-weight="400" font-size="41" transform="matrix(1 0 0 1 3122.755859375 794)">134</text>
		</g>
		<g>
			<text fill="#595959" font-family="Verdana,Open Sans,DejaVu Sans,sans-serif" font-weight="400" font-size="41" transform="matrix(1 0 0 1 3122.37548828125 666)">202</text>
		</g>
		<g>
			<text fill="#595959" font-family="Verdana,Open Sans,DejaVu Sans,sans-serif" font-weight="400" font-size="41" transform="matrix(1 0 0 1 3122.37548828125 538)">269</text>
		</g>
		<g>
			<text fill="#595959" font-family="Verdana,Open Sans,DejaVu Sans,sans-serif" font-weight="400" font-size="41" transform="matrix(1 0 0 1 3122.05517578125 410)">336</text>
		</g>
		<g>
			<text fill="#595959" font-family="Verdana,Open Sans,DejaVu Sans,sans-serif" font-weight="400" font-size="41" transform="matrix(1 0 0 1 3556.97119140625 1321)">Week Commencing</text>
		</g>
		<g>
			<text fill="#595959" font-family="Verdana,Open Sans,DejaVu Sans,sans-serif" font-weight="400" font-size="46" transform="matrix(6.12323e-17 -1 1 6.12323e-17 3019.73 1005.4858093261719)">Number of Crawler Profiles</text>
		</g>
		<rect x="2918.5" y="347.5" width="1760" height="1043" stroke="#D9D9D9" stroke-width="3.4375" stroke-linejoin="round" stroke-miterlimit="10" fill="none" />
		<g>
			<path d="M3228.5 1038 3249.86 1038 3271.22 1038 3292.58 1038 3313.94 1038 3335.3 1038 3356.66 1038 3378.02 1038 3399.38 1038 3420.74 1038 3442.1 1038 3463.46 1038 3484.82 1038 3506.18 1038 3527.54 1038 3548.9 1038 3570.26 1038 3591.62 1038 3612.98 1038 3634.34 1038 3655.7 1038 3677.06 1038 3698.42 1038 3719.7799999999997 1038 3741.14 1038 3762.5 1038 3783.86 1038 3805.2200000000003 1038 3826.58 1038 3847.94 1038 3869.3 1038 3890.66 1038 3912.02 1038 3933.38 1038 3954.74 1038 3976.1 1038 3997.46 1038 4018.8199999999997 1038 4040.18 1038 4061.54 1038 4082.9 1038 4104.26 1038 4125.62 1038 4146.98 1038 4168.34 1038 4189.7 1038 4211.0599999999995 1038 4232.42 1038 4253.78 1038 4275.139999999999 1038 4296.5 1038 4296.5 399.9047619047619 4275.139999999999 401.80952380952385 4253.78 401.80952380952385 4232.42 401.80952380952385 4211.0599999999995 409.42857142857144 4189.7 409.42857142857144 4168.34 409.42857142857144 4146.98 409.42857142857144 4125.62 409.42857142857144 4104.26 409.42857142857144 4082.9 409.42857142857144 4061.54 409.42857142857144 4040.18 409.42857142857144 4018.8199999999997 411.33333333333337 3997.46 411.33333333333337 3976.1 413.2380952380953 3954.74 413.2380952380953 3933.38 422.7619047619048 3912.02 424.66666666666674 3890.66 424.66666666666674 3869.3 428.4761904761905 3847.94 430.3809523809524 3826.58 436.0952380952381 3805.2200000000003 438 3783.86 439.9047619047619 3762.5 441.80952380952385 3741.14 441.80952380952385 3719.7799999999997 441.80952380952385 3698.42 443.7142857142858 3677.06 443.7142857142858 3655.7 443.7142857142858 3634.34 445.6190476190477 3612.98 445.6190476190477 3591.62 447.5238095238095 3570.26 447.5238095238095 3548.9 449.42857142857144 3527.54 451.33333333333337 3506.18 453.2380952380953 3484.82 453.2380952380953 3463.46 457.04761904761904 3442.1 458.95238095238096 3420.74 458.95238095238096 3399.38 458.95238095238096 3378.02 462.7619047619048 3356.66 464.66666666666674 3335.3 470.3809523809524 3313.94 478 3292.58 489.42857142857144 3271.22 495.1428571428572 3249.86 495.1428571428572 3228.5 493.2380952380953 3228.5 1038Z" fill="#005aa6" opacity="0.9" />
		</g>
		<g>
			<path d="M3228.5 493.2380952380953 3249.86 495.1428571428572 3271.22 495.1428571428572 3292.58 489.42857142857144 3313.94 478 3335.3 470.3809523809524 3356.66 464.66666666666674 3378.02 462.7619047619048 3399.38 458.95238095238096 3420.74 458.95238095238096 3442.1 458.95238095238096 3463.46 457.04761904761904 3484.82 453.2380952380953 3506.18 453.2380952380953 3527.54 451.33333333333337 3548.9 449.42857142857144 3570.26 447.5238095238095 3591.62 447.5238095238095 3612.98 445.6190476190477 3634.34 445.6190476190477 3655.7 443.7142857142858 3677.06 443.7142857142858 3698.42 443.7142857142858 3719.7799999999997 441.80952380952385 3741.14 441.80952380952385 3762.5 441.80952380952385 3783.86 439.9047619047619 3805.2200000000003 438 3826.58 436.0952380952381 3847.94 430.3809523809524 3869.3 428.4761904761905 3890.66 424.66666666666674 3912.02 424.66666666666674 3933.38 422.7619047619048 3954.74 413.2380952380953 3976.1 413.2380952380953 3997.46 411.33333333333337 4018.8199999999997 411.33333333333337 4040.18 409.42857142857144 4061.54 409.42857142857144 4082.9 409.42857142857144 4104.26 409.42857142857144 4125.62 409.42857142857144 4146.98 409.42857142857144 4168.34 409.42857142857144 4189.7 409.42857142857144 4211.0599999999995 409.42857142857144 4232.42 401.80952380952385 4253.78 401.80952380952385 4275.139999999999 401.80952380952385 4296.5 399.9047619047619 4296.5 398 4275.139999999999 399.9047619047619 4253.78 399.9047619047619 4232.42 399.9047619047619 4211.0599999999995 407.5238095238095 4189.7 407.5238095238095 4168.34 407.5238095238095 4146.98 407.5238095238095 4125.62 407.5238095238095 4104.26 407.5238095238095 4082.9 407.5238095238095 4061.54 407.5238095238095 4040.18 407.5238095238095 4018.8199999999997 409.42857142857144 3997.46 409.42857142857144 3976.1 411.33333333333337 3954.74 411.33333333333337 3933.38 420.8571428571429 3912.02 422.7619047619048 3890.66 422.7619047619048 3869.3 426.57142857142856 3847.94 428.4761904761905 3826.58 434.19047619047615 3805.2200000000003 436.0952380952381 3783.86 438 3762.5 439.9047619047619 3741.14 439.9047619047619 3719.7799999999997 439.9047619047619 3698.42 441.80952380952385 3677.06 441.80952380952385 3655.7 441.80952380952385 3634.34 443.7142857142858 3612.98 443.7142857142858 3591.62 445.6190476190476 3570.26 445.6190476190476 3548.9 447.5238095238095 3527.54 449.42857142857144 3506.18 451.33333333333337 3484.82 451.33333333333337 3463.46 455.1428571428571 3442.1 457.04761904761904 3420.74 457.04761904761904 3399.38 457.04761904761904 3378.02 460.8571428571429 3356.66 462.7619047619048 3335.3 468.4761904761905 3313.94 476.0952380952381 3292.58 487.5238095238095 3271.22 493.2380952380953 3249.86 493.2380952380953 3228.5 491.33333333333337 3228.5 493.2380952380953Z" fill="#e62d39" opacity="0.9" />
		</g>
		<g>
			<rect x="4372" y="431" width="22.9995" height="23" fill="#005aa6" />
		</g>
		<g>
			<text fill="#595959" font-family="Verdana,Open Sans,DejaVu Sans,sans-serif" font-weight="400" font-size="41" transform="matrix(1 0 0 1 4404.56 454)">Crawler</text>
		</g>
		<g>
			<rect x="4372" y="508" width="22.9995" height="23" fill="#e62d39" />
		</g>
		<g>
			<text fill="#595959" font-family="Verdana,Open Sans,DejaVu Sans,sans-serif" font-weight="400" font-size="41" transform="matrix(1 0 0 1 4404.56 531)">Non-Crawler</text>
		</g>
	</g>
</svg>
