<svg width="1763" height="1046"
    xmlns="http://www.w3.org/2000/svg"
	xmlns:xlink="http://www.w3.org/1999/xlink" xml:space="preserve" overflow="hidden">
	<defs>
		<clipPath id="clip0">
			<rect x="2917" y="346" width="1763" height="1046"/>
		</clipPath>
	</defs>
	<g clip-path="url(#clip0)" transform="translate(-2917 -346)">
		<rect x="2918" y="347" width="1760" height="1043" fill="#FFFFFF" />
		<g>
			<path d="
			M3228.5 974.532 4296.5 974.532
			M3228.5 910.53 4296.5 910.53
			M3228.5 846.528 4296.5 846.528
			M3228.5 781.526 4296.5 781.526
			M3228.5 717.524 4296.5 717.524
			M3228.5 653.522 4296.5 653.522
			M3228.5 589.52 4296.5 589.52
			M3228.5 525.517 4296.5 525.517
			M3228.5 461.515 4296.5 461.515
			M3228.5 397.5 4296.5 397.5" stroke="#D9D9D9" stroke-width="3.4375" stroke-linejoin="round" stroke-miterlimit="10" fill="none" />
		</g>
		<g>
			<path d="M 1038.5 4296.5 1038.5" stroke="#D9D9D9" stroke-width="3.4375" stroke-linejoin="round" stroke-miterlimit="10" fill="none" fill-rule="evenodd" />
		</g>
		<g>
			<text fill="#595959" font-family="Verdana,Open Sans,DejaVu Sans,sans-serif" font-weight="400" font-size="41" transform="matrix(6.12323e-17 -1 1 6.12323e-17 3243.544677734375 1207.1259765625)">23-Dec</text>
		</g>
		<g>
			<text fill="#595959" font-family="Verdana,Open Sans,DejaVu Sans,sans-serif" font-weight="400" font-size="41" transform="matrix(6.12323e-17 -1 1 6.12323e-17 3332.65826171875 1191.6909103393555)">20-Jan</text>
		</g>
		<g>
			<text fill="#595959" font-family="Verdana,Open Sans,DejaVu Sans,sans-serif" font-weight="400" font-size="41" transform="matrix(6.12323e-17 -1 1 6.12323e-17 3415.155390625 1201.3203125)">17-Feb</text>
		</g>
		<g>
			<text fill="#595959" font-family="Verdana,Open Sans,DejaVu Sans,sans-serif" font-weight="400" font-size="41" transform="matrix(6.12323e-17 -1 1 6.12323e-17 3499.65447265625 1210.2890625)">17-Mar</text>
		</g>
		<g>
			<text fill="#595959" font-family="Verdana,Open Sans,DejaVu Sans,sans-serif" font-weight="400" font-size="41" transform="matrix(6.12323e-17 -1 1 6.12323e-17 3589.89916015625 1201.5405197143555)">14-Apr</text>
		</g>
		<g>
			<text fill="#595959" font-family="Verdana,Open Sans,DejaVu Sans,sans-serif" font-weight="400" font-size="41" transform="matrix(6.12323e-17 -1 1 6.12323e-17 3675.469287109375 1214.75341796875)">12-May</text>
		</g>
		<g>
			<text fill="#595959" font-family="Verdana,Open Sans,DejaVu Sans,sans-serif" font-weight="400" font-size="41" transform="matrix(6.12323e-17 -1 1 6.12323e-17 3759.8382421875 1192.2914962768555)">16-Jun</text>
		</g>
		<g>
			<text fill="#595959" font-family="Verdana,Open Sans,DejaVu Sans,sans-serif" font-weight="400" font-size="41" transform="matrix(6.12323e-17 -1 1 6.12323e-17 3846.008955078125 1177.2768478393555)">14-Jul</text>
		</g>
		<g>
			<text fill="#595959" font-family="Verdana,Open Sans,DejaVu Sans,sans-serif" font-weight="400" font-size="41" transform="matrix(6.12323e-17 -1 1 6.12323e-17 3931.639140625 1206.90576171875)">11-Aug</text>
		</g>
		<g>
			<text fill="#595959" font-family="Verdana,Open Sans,DejaVu Sans,sans-serif" font-weight="400" font-size="41" transform="matrix(6.12323e-17 -1 1 6.12323e-17 4017.249306640625 1204.38330078125)">08-Sep</text>
		</g>
		<g>
			<text fill="#595959" font-family="Verdana,Open Sans,DejaVu Sans,sans-serif" font-weight="400" font-size="41" transform="matrix(6.12323e-17 -1 1 6.12323e-17 4097.964697265625 1201.1000900268555)">06-Oct</text>
		</g>
		<g>
			<text fill="#595959" font-family="Verdana,Open Sans,DejaVu Sans,sans-serif" font-weight="400" font-size="41" transform="matrix(6.12323e-17 -1 1 6.12323e-17 4183.404697265625 1211.43017578125)">03-Nov</text>
		</g>
		<g>
			<text fill="#595959" font-family="Verdana,Open Sans,DejaVu Sans,sans-serif" font-weight="400" font-size="41" transform="matrix(6.12323e-17 -1 1 6.12323e-17 4268.844697265625 1207.0859375)">01-Dec</text>
		</g>
		<g>
			<text fill="#595959" font-family="Verdana,Open Sans,DejaVu Sans,sans-serif" font-weight="400" font-size="41" transform="matrix(1 0 0 1 3135.4482421875 1050)">0%</text>
		</g>
		<g>
			<text fill="#595959" font-family="Verdana,Open Sans,DejaVu Sans,sans-serif" font-weight="400" font-size="41" transform="matrix(1 0 0 1 3111.96533203125 922)">20%</text>
		</g>
		<g>
			<text fill="#595959" font-family="Verdana,Open Sans,DejaVu Sans,sans-serif" font-weight="400" font-size="41" transform="matrix(1 0 0 1 3110.82421875 794)">40%</text>
		</g>
		<g>
			<text fill="#595959" font-family="Verdana,Open Sans,DejaVu Sans,sans-serif" font-weight="400" font-size="41" transform="matrix(1 0 0 1 3112.3056640625 666)">60%</text>
		</g>
		<g>
			<text fill="#595959" font-family="Verdana,Open Sans,DejaVu Sans,sans-serif" font-weight="400" font-size="41" transform="matrix(1 0 0 1 3112.04541015625 538)">80%</text>
		</g>
		<g>
			<text fill="#595959" font-family="Verdana,Open Sans,DejaVu Sans,sans-serif" font-weight="400" font-size="41" transform="matrix(1 0 0 1 3090.2841796875 410)">100%</text>
		</g>
		<g>
			<text fill="#595959" font-family="Verdana,Open Sans,DejaVu Sans,sans-serif" font-weight="400" font-size="41" transform="matrix(1 0 0 1 3556.97119140625 1321)">Week Commencing</text>
		</g>
		<g>
			<text fill="#595959" font-family="Verdana,Open Sans,DejaVu Sans,sans-serif" font-weight="400" font-size="46" transform="matrix(6.12323e-17 -1 1 6.12323e-17 3019.73 936.7665710449219)">Requests (% of Total)</text>
		</g>
		<rect x="2918.5" y="347.5" width="1760" height="1043" stroke="#D9D9D9" stroke-width="3.4375" stroke-linejoin="round" stroke-miterlimit="10" fill="none" />
		<g>
			<path d="M3228.5 1038 3249.86 1038 3271.22 1038 3292.58 1038 3313.94 1038 3335.3 1038 3356.66 1038 3378.02 1038 3399.38 1038 3420.74 1038 3442.1 1038 3463.46 1038 3484.82 1038 3506.18 1038 3527.54 1038 3548.9 1038 3570.26 1038 3591.62 1038 3612.98 1038 3634.34 1038 3655.7 1038 3677.06 1038 3698.42 1038 3719.7799999999997 1038 3741.14 1038 3762.5 1038 3783.86 1038 3805.2200000000003 1038 3826.58 1038 3847.94 1038 3869.3 1038 3890.66 1038 3912.02 1038 3933.38 1038 3954.74 1038 3976.1 1038 3997.46 1038 4018.8199999999997 1038 4040.18 1038 4061.54 1038 4082.9 1038 4104.26 1038 4125.62 1038 4146.98 1038 4168.34 1038 4189.7 1038 4211.0599999999995 1038 4232.42 1038 4253.78 1038 4275.139999999999 1038 4296.5 1038 4296.5 438.66009075050135 4275.139999999999 438.6550093538849 4253.78 438.8753603320732 4232.42 440.072777946987 4211.0599999999995 439.54649540853677 4189.7 439.7648762802967 4168.34 440.0929578933227 4146.98 440.1107731424996 4125.62 440.17666153343987 4104.26 440.17259352262283 4082.9 440.3280263296216 4061.54 440.34799215358134 4040.18 440.40616975209355 4018.8199999999997 440.40760550465325 3997.46 440.94196380839696 3976.1 441.17078340782746 3954.74 441.17336955313306 3933.38 441.3391880005887 3912.02 441.48654078274615 3890.66 441.48316478044603 3869.3 441.484756503997 3847.94 441.489616515065 3826.58 441.29796426599523 3805.2200000000003 441.72595383903854 3783.86 442.8417422387853 3762.5 442.854171965349 3741.14 442.95845521922934 3719.7799999999997 442.9731674669964 3698.42 443.09587998074596 3677.06 442.9453880046191 3655.7 442.7539759175269 3634.34 442.4035157162202 3612.98 442.11056785584276 3591.62 441.83280494374446 3570.26 441.70333243098173 3548.9 441.6626940555466 3527.54 441.6573661278967 3506.18 441.5375979828307 3484.82 441.406683369976 3463.46 441.167209213907 3442.1 441.0289316920836 3420.74 441.03561787240676 3399.38 441.06205687573333 3378.02 441.14123809544583 3356.66 441.04668014176025 3335.3 441.3325461823914 3313.94 441.50673382811704 3292.58 441.5263210359809 3271.22 441.5338725099368 3249.86 441.5429030927178 3228.5 441.47417224977323 3228.5 1038Z" fill="#e62d39" opacity="0.9" />
		</g>
		<g>
			<path d="M3228.5 441.47417224977323 3249.86 441.5429030927178 3271.22 441.5338725099368 3292.58 441.5263210359809 3313.94 441.50673382811704 3335.3 441.3325461823914 3356.66 441.04668014176025 3378.02 441.14123809544583 3399.38 441.06205687573333 3420.74 441.03561787240676 3442.1 441.0289316920836 3463.46 441.167209213907 3484.82 441.406683369976 3506.18 441.5375979828307 3527.54 441.6573661278967 3548.9 441.6626940555466 3570.26 441.70333243098173 3591.62 441.83280494374446 3612.98 442.11056785584276 3634.34 442.4035157162202 3655.7 442.7539759175269 3677.06 442.9453880046191 3698.42 443.09587998074596 3719.7799999999997 442.9731674669964 3741.14 442.95845521922934 3762.5 442.854171965349 3783.86 442.8417422387853 3805.2200000000003 441.72595383903854 3826.58 441.29796426599523 3847.94 441.489616515065 3869.3 441.484756503997 3890.66 441.48316478044603 3912.02 441.48654078274615 3933.38 441.3391880005887 3954.74 441.17336955313306 3976.1 441.17078340782746 3997.46 440.94196380839696 4018.8199999999997 440.40760550465325 4040.18 440.40616975209355 4061.54 440.34799215358134 4082.9 440.3280263296216 4104.26 440.17259352262283 4125.62 440.17666153343987 4146.98 440.1107731424996 4168.34 440.0929578933227 4189.7 439.7648762802967 4211.0599999999995 439.54649540853677 4232.42 440.072777946987 4253.78 438.8753603320732 4275.139999999999 438.6550093538849 4296.5 438.66009075050135 4296.5 398 4275.139999999999 398.00000000000006 4253.78 398 4232.42 398 4211.0599999999995 398 4189.7 398.00000000000006 4168.34 398 4146.98 398 4125.62 398.00000000000006 4104.26 398 4082.9 398.00000000000006 4061.54 398.00000000000006 4040.18 398.0000000000001 4018.8199999999997 398 3997.46 398 3976.1 398 3954.74 397.99999999999994 3933.38 398 3912.02 398 3890.66 397.99999999999994 3869.3 398 3847.94 398 3826.58 397.99999999999994 3805.2200000000003 398 3783.86 398 3762.5 397.99999999999994 3741.14 398.00000000000006 3719.7799999999997 398 3698.42 398 3677.06 398.00000000000006 3655.7 397.99999999999994 3634.34 398 3612.98 398.00000000000006 3591.62 398 3570.26 398 3548.9 398 3527.54 398 3506.18 398.00000000000006 3484.82 398 3463.46 398 3442.1 398 3420.74 398 3399.38 397.99999999999994 3378.02 398 3356.66 398.00000000000006 3335.3 397.99999999999994 3313.94 398.00000000000006 3292.58 398 3271.22 398 3249.86 398 3228.5 398 3228.5 441.47417224977323Z" fill="#005aa6" opacity="0.9" />
		</g>
		<g>
			<rect x="4372" y="431" width="22.9995" height="23" fill="#e62d39" />
		</g>
		<g>
			<text fill="#595959" font-family="Verdana,Open Sans,DejaVu Sans,sans-serif" font-weight="400" font-size="41" transform="matrix(1 0 0 1 4404.56 454)">Non-Crawler</text>
		</g>
		<g>
			<rect x="4372" y="508" width="22.9995" height="23" fill="#005aa6" />
		</g>
		<g>
			<text fill="#595959" font-family="Verdana,Open Sans,DejaVu Sans,sans-serif" font-weight="400" font-size="41" transform="matrix(1 0 0 1 4404.56 531)">Crawler</text>
		</g>
	</g>
</svg>
