<svg width="1763" height="1046"
    xmlns="http://www.w3.org/2000/svg"
	xmlns:xlink="http://www.w3.org/1999/xlink" xml:space="preserve" overflow="hidden">
	<defs>
		<clipPath id="clip0">
			<rect x="2917" y="346" width="1763" height="1046"/>
		</clipPath>
	</defs>
	<g clip-path="url(#clip0)" transform="translate(-2917 -346)">
		<rect x="2918" y="347" width="1760" height="1043" fill="#FFFFFF" />
		<g>
			<path d="
			M3228.5 974.532 4296.5 974.532
			M3228.5 910.53 4296.5 910.53
			M3228.5 846.528 4296.5 846.528
			M3228.5 781.526 4296.5 781.526
			M3228.5 717.524 4296.5 717.524
			M3228.5 653.522 4296.5 653.522
			M3228.5 589.52 4296.5 589.52
			M3228.5 525.517 4296.5 525.517
			M3228.5 461.515 4296.5 461.515
			M3228.5 397.5 4296.5 397.5" stroke="#D9D9D9" stroke-width="3.4375" stroke-linejoin="round" stroke-miterlimit="10" fill="none" />
		</g>
		<g>
			<path d="M 1038.5 4296.5 1038.5" stroke="#D9D9D9" stroke-width="3.4375" stroke-linejoin="round" stroke-miterlimit="10" fill="none" fill-rule="evenodd" />
		</g>
		<g>
			<text fill="#595959" font-family="Verdana,sans-serif" font-weight="400" font-size="41" transform="matrix(6.12323e-17 -1 1 6.12323e-17 3244.5 1225)">06-Nov</text>
		</g>
		<g>
			<text fill="#595959" font-family="Verdana,sans-serif" font-weight="400" font-size="41" transform="matrix(6.12323e-17 -1 1 6.12323e-17 3366.557142857143 1223)">04-Dec</text>
		</g>
		<g>
			<text fill="#595959" font-family="Verdana,sans-serif" font-weight="400" font-size="41" transform="matrix(6.12323e-17 -1 1 6.12323e-17 3488.614285714286 1210)">01-Jan</text>
		</g>
		<g>
			<text fill="#595959" font-family="Verdana,sans-serif" font-weight="400" font-size="41" transform="matrix(6.12323e-17 -1 1 6.12323e-17 3610.671428571429 1210)">29-Jan</text>
		</g>
		<g>
			<text fill="#595959" font-family="Verdana,sans-serif" font-weight="400" font-size="41" transform="matrix(6.12323e-17 -1 1 6.12323e-17 3732.7285714285713 1216)">26-Feb</text>
		</g>
		<g>
			<text fill="#595959" font-family="Verdana,sans-serif" font-weight="400" font-size="41" transform="matrix(6.12323e-17 -1 1 6.12323e-17 3854.785714285714 1223)">25-Mar</text>
		</g>
		<g>
			<text fill="#595959" font-family="Verdana,sans-serif" font-weight="400" font-size="41" transform="matrix(6.12323e-17 -1 1 6.12323e-17 3980.342857142857 1216)">22-Apr</text>
		</g>
		<g>
			<text fill="#595959" font-family="Verdana,sans-serif" font-weight="400" font-size="41" transform="matrix(6.12323e-17 -1 1 6.12323e-17 4102.4 1228)">20-May</text>
		</g>
		<g>
			<text fill="#595959" font-family="Verdana,sans-serif" font-weight="400" font-size="41" transform="matrix(6.12323e-17 -1 1 6.12323e-17 4220.457142857143 1209)">17-Jun</text>
		</g>
		<g>
			<text fill="#595959" font-family="Verdana,sans-serif" font-weight="400" font-size="41" transform="matrix(1 0 0 1 3167.5 1050)">0</text>
		</g>
		<g>
			<text fill="#595959" font-family="Verdana,sans-serif" font-weight="400" font-size="41" transform="matrix(1 0 0 1 3143.5 922)">51</text>
		</g>
		<g>
			<text fill="#595959" font-family="Verdana,sans-serif" font-weight="400" font-size="41" transform="matrix(1 0 0 1 3118.5 794)">103</text>
		</g>
		<g>
			<text fill="#595959" font-family="Verdana,sans-serif" font-weight="400" font-size="41" transform="matrix(1 0 0 1 3117.5 666)">154</text>
		</g>
		<g>
			<text fill="#595959" font-family="Verdana,sans-serif" font-weight="400" font-size="41" transform="matrix(1 0 0 1 3115.5 538)">206</text>
		</g>
		<g>
			<text fill="#595959" font-family="Verdana,sans-serif" font-weight="400" font-size="41" transform="matrix(1 0 0 1 3115.5 410)">257</text>
		</g>
		<g>
			<text fill="#595959" font-family="Verdana,sans-serif" font-weight="400" font-size="41" transform="matrix(1 0 0 1 3544.5 1321)">Week Commencing</text>
		</g>
		<g>
			<text fill="#595959" font-family="Verdana,sans-serif" font-weight="400" font-size="46" transform="matrix(6.12323e-17 -1 1 6.12323e-17 3019.73 1024.75)">Number of Crawler Profiles</text>
		</g>
		<rect x="2918.5" y="347.5" width="1760" height="1043" stroke="#D9D9D9" stroke-width="3.4375" stroke-linejoin="round" stroke-miterlimit="10" fill="none" />
		<g>
			<path d="M3228.5 1038 3259.0142857142855 1038 3289.5285714285715 1038 3320.042857142857 1038 3350.557142857143 1038 3381.0714285714284 1038 3411.5857142857144 1038 3442.1 1038 3472.614285714286 1038 3503.1285714285714 1038 3533.6428571428573 1038 3564.157142857143 1038 3594.671428571429 1038 3625.1857142857143 1038 3655.7 1038 3686.214285714286 1038 3716.7285714285713 1038 3747.2428571428572 1038 3777.7571428571428 1038 3808.2714285714287 1038 3838.785714285714 1038 3869.3 1038 3899.8142857142857 1038 3930.328571428571 1038 3960.842857142857 1038 3991.357142857143 1038 4021.8714285714286 1038 4052.385714285714 1038 4082.9 1038 4113.414285714286 1038 4143.928571428572 1038 4174.442857142857 1038 4204.957142857143 1038 4235.471428571429 1038 4265.9857142857145 1038 4296.5 1038 4296.5 400.49027237354085 4265.9857142857145 410.45136186770424 4235.471428571429 417.9221789883269 4204.957142857143 430.3735408560311 4174.442857142857 435.3540856031128 4143.928571428572 435.3540856031128 4113.414285714286 435.3540856031128 4082.9 437.84435797665367 4052.385714285714 442.82490272373536 4021.8714285714286 452.78599221789887 3991.357142857143 457.76653696498056 3960.842857142857 460.2568093385214 3930.328571428571 460.2568093385214 3899.8142857142857 470.2178988326848 3869.3 470.2178988326848 3838.785714285714 482.66926070038915 3808.2714285714287 507.5719844357976 3777.7571428571428 512.5525291828794 3747.2428571428572 517.5330739299611 3716.7285714285713 529.9844357976654 3686.214285714286 532.4747081712062 3655.7 532.4747081712062 3625.1857142857143 534.964980544747 3594.671428571429 539.9455252918287 3564.157142857143 552.3968871595331 3533.6428571428573 554.8871595330739 3503.1285714285714 554.8871595330739 3472.614285714286 559.8677042801556 3442.1 559.8677042801556 3411.5857142857144 559.8677042801556 3381.0714285714284 559.8677042801556 3350.557142857143 559.8677042801556 3320.042857142857 562.3579766536965 3289.5285714285715 562.3579766536965 3259.0142857142855 562.3579766536965 3228.5 562.3579766536965 3228.5 1038Z" fill="#005aa6" opacity="0.9" />
		</g>
		<g>
			<path d="M3228.5 562.3579766536965 3259.0142857142855 562.3579766536965 3289.5285714285715 562.3579766536965 3320.042857142857 562.3579766536965 3350.557142857143 559.8677042801556 3381.0714285714284 559.8677042801556 3411.5857142857144 559.8677042801556 3442.1 559.8677042801556 3472.614285714286 559.8677042801556 3503.1285714285714 554.8871595330739 3533.6428571428573 554.8871595330739 3564.157142857143 552.3968871595331 3594.671428571429 539.9455252918287 3625.1857142857143 534.964980544747 3655.7 532.4747081712062 3686.214285714286 532.4747081712062 3716.7285714285713 529.9844357976654 3747.2428571428572 517.5330739299611 3777.7571428571428 512.5525291828794 3808.2714285714287 507.5719844357976 3838.785714285714 482.66926070038915 3869.3 470.2178988326848 3899.8142857142857 470.2178988326848 3930.328571428571 460.2568093385214 3960.842857142857 460.2568093385214 3991.357142857143 457.76653696498056 4021.8714285714286 452.78599221789887 4052.385714285714 442.82490272373536 4082.9 437.84435797665367 4113.414285714286 435.3540856031128 4143.928571428572 435.3540856031128 4174.442857142857 435.3540856031128 4204.957142857143 430.3735408560311 4235.471428571429 417.9221789883269 4265.9857142857145 410.45136186770424 4296.5 400.49027237354085 4296.5 398 4265.9857142857145 407.9610894941634 4235.471428571429 415.43190661478604 4204.957142857143 427.8832684824903 4174.442857142857 432.863813229572 4143.928571428572 432.863813229572 4113.414285714286 432.863813229572 4082.9 435.3540856031128 4052.385714285714 440.3346303501945 4021.8714285714286 450.295719844358 3991.357142857143 455.2762645914397 3960.842857142857 457.76653696498056 3930.328571428571 457.76653696498056 3899.8142857142857 467.72762645914395 3869.3 467.72762645914395 3838.785714285714 480.1789883268483 3808.2714285714287 505.08171206225677 3777.7571428571428 510.0622568093386 3747.2428571428572 515.0428015564203 3716.7285714285713 527.4941634241245 3686.214285714286 529.9844357976654 3655.7 529.9844357976654 3625.1857142857143 532.4747081712062 3594.671428571429 537.4552529182879 3564.157142857143 549.9066147859922 3533.6428571428573 552.3968871595331 3503.1285714285714 552.3968871595331 3472.614285714286 557.3774319066148 3442.1 557.3774319066148 3411.5857142857144 557.3774319066148 3381.0714285714284 557.3774319066148 3350.557142857143 557.3774319066148 3320.042857142857 559.8677042801556 3289.5285714285715 559.8677042801556 3259.0142857142855 559.8677042801556 3228.5 559.8677042801556 3228.5 562.3579766536965Z" fill="#e62d39" opacity="0.9" />
		</g>
		<g>
			<rect x="4372" y="431" width="22.9995" height="23" fill="#005aa6" />
		</g>
		<g>
			<text fill="#595959" font-family="Verdana,sans-serif" font-weight="400" font-size="41" transform="matrix(1 0 0 1 4404.56 454)">Crawler</text>
		</g>
		<g>
			<rect x="4372" y="508" width="22.9995" height="23" fill="#e62d39" />
		</g>
		<g>
			<text fill="#595959" font-family="Verdana,sans-serif" font-weight="400" font-size="41" transform="matrix(1 0 0 1 4404.56 531)">Non-Crawler</text>
		</g>
	</g>
</svg>
