<svg width="1763" height="1046"
    xmlns="http://www.w3.org/2000/svg"
	xmlns:xlink="http://www.w3.org/1999/xlink" xml:space="preserve" overflow="hidden">
	<defs>
		<clipPath id="clip0">
			<rect x="2917" y="346" width="1763" height="1046"/>
		</clipPath>
	</defs>
	<g clip-path="url(#clip0)" transform="translate(-2917 -346)">
		<rect x="2918" y="347" width="1760" height="1043" fill="#FFFFFF" />
		<g>
			<path d="
			M3228.5 974.532 4296.5 974.532
			M3228.5 910.53 4296.5 910.53
			M3228.5 846.528 4296.5 846.528
			M3228.5 781.526 4296.5 781.526
			M3228.5 717.524 4296.5 717.524
			M3228.5 653.522 4296.5 653.522
			M3228.5 589.52 4296.5 589.52
			M3228.5 525.517 4296.5 525.517
			M3228.5 461.515 4296.5 461.515
			M3228.5 397.5 4296.5 397.5" stroke="#D9D9D9" stroke-width="3.4375" stroke-linejoin="round" stroke-miterlimit="10" fill="none" />
		</g>
		<g>
			<path d="M 1038.5 4296.5 1038.5" stroke="#D9D9D9" stroke-width="3.4375" stroke-linejoin="round" stroke-miterlimit="10" fill="none" fill-rule="evenodd" />
		</g>
		<g>
			<text fill="#595959" font-family="Verdana,Open Sans,DejaVu Sans,sans-serif" font-weight="400" font-size="41" transform="matrix(6.12323e-17 -1 1 6.12323e-17 3247.1982421875 1191.6909103393555)">27-Jan</text>
		</g>
		<g>
			<text fill="#595959" font-family="Verdana,Open Sans,DejaVu Sans,sans-serif" font-weight="400" font-size="41" transform="matrix(6.12323e-17 -1 1 6.12323e-17 3329.715390625 1203.08203125)">24-Feb</text>
		</g>
		<g>
			<text fill="#595959" font-family="Verdana,Open Sans,DejaVu Sans,sans-serif" font-weight="400" font-size="41" transform="matrix(6.12323e-17 -1 1 6.12323e-17 3414.424677734375 1212.05078125)">24-Mar</text>
		</g>
		<g>
			<text fill="#595959" font-family="Verdana,Open Sans,DejaVu Sans,sans-serif" font-weight="400" font-size="41" transform="matrix(6.12323e-17 -1 1 6.12323e-17 3504.589287109375 1203.3022384643555)">21-Apr</text>
		</g>
		<g>
			<text fill="#595959" font-family="Verdana,Open Sans,DejaVu Sans,sans-serif" font-weight="400" font-size="41" transform="matrix(6.12323e-17 -1 1 6.12323e-17 3590.029287109375 1214.75341796875)">19-May</text>
		</g>
		<g>
			<text fill="#595959" font-family="Verdana,Open Sans,DejaVu Sans,sans-serif" font-weight="400" font-size="41" transform="matrix(6.12323e-17 -1 1 6.12323e-17 3674.3982421875 1194.0532150268555)">23-Jun</text>
		</g>
		<g>
			<text fill="#595959" font-family="Verdana,Open Sans,DejaVu Sans,sans-serif" font-weight="400" font-size="41" transform="matrix(6.12323e-17 -1 1 6.12323e-17 3760.568955078125 1179.0385665893555)">21-Jul</text>
		</g>
		<g>
			<text fill="#595959" font-family="Verdana,Open Sans,DejaVu Sans,sans-serif" font-weight="400" font-size="41" transform="matrix(6.12323e-17 -1 1 6.12323e-17 3846.349287109375 1206.90576171875)">18-Aug</text>
		</g>
		<g>
			<text fill="#595959" font-family="Verdana,Open Sans,DejaVu Sans,sans-serif" font-weight="400" font-size="41" transform="matrix(6.12323e-17 -1 1 6.12323e-17 3931.789287109375 1202.66162109375)">15-Sep</text>
		</g>
		<g>
			<text fill="#595959" font-family="Verdana,Open Sans,DejaVu Sans,sans-serif" font-weight="400" font-size="41" transform="matrix(6.12323e-17 -1 1 6.12323e-17 4012.524697265625 1199.3784103393555)">13-Oct</text>
		</g>
		<g>
			<text fill="#595959" font-family="Verdana,Open Sans,DejaVu Sans,sans-serif" font-weight="400" font-size="41" transform="matrix(6.12323e-17 -1 1 6.12323e-17 4097.964697265625 1209.70849609375)">10-Nov</text>
		</g>
		<g>
			<text fill="#595959" font-family="Verdana,Open Sans,DejaVu Sans,sans-serif" font-weight="400" font-size="41" transform="matrix(6.12323e-17 -1 1 6.12323e-17 4183.404697265625 1207.0859375)">08-Dec</text>
		</g>
		<g>
			<text fill="#595959" font-family="Verdana,Open Sans,DejaVu Sans,sans-serif" font-weight="400" font-size="41" transform="matrix(6.12323e-17 -1 1 6.12323e-17 4272.49826171875 1191.6508712768555)">05-Jan</text>
		</g>
		<g>
			<text fill="#595959" font-family="Verdana,Open Sans,DejaVu Sans,sans-serif" font-weight="400" font-size="41" transform="matrix(1 0 0 1 3169.14111328125 1050)">0</text>
		</g>
		<g>
			<text fill="#595959" font-family="Verdana,Open Sans,DejaVu Sans,sans-serif" font-weight="400" font-size="41" transform="matrix(1 0 0 1 3146.15869140625 922)">69</text>
		</g>
		<g>
			<text fill="#595959" font-family="Verdana,Open Sans,DejaVu Sans,sans-serif" font-weight="400" font-size="41" transform="matrix(1 0 0 1 3124.13720703125 794)">139</text>
		</g>
		<g>
			<text fill="#595959" font-family="Verdana,Open Sans,DejaVu Sans,sans-serif" font-weight="400" font-size="41" transform="matrix(1 0 0 1 3122.29541015625 666)">208</text>
		</g>
		<g>
			<text fill="#595959" font-family="Verdana,Open Sans,DejaVu Sans,sans-serif" font-weight="400" font-size="41" transform="matrix(1 0 0 1 3122.29541015625 538)">278</text>
		</g>
		<g>
			<text fill="#595959" font-family="Verdana,Open Sans,DejaVu Sans,sans-serif" font-weight="400" font-size="41" transform="matrix(1 0 0 1 3122.13525390625 410)">347</text>
		</g>
		<g>
			<text fill="#595959" font-family="Verdana,Open Sans,DejaVu Sans,sans-serif" font-weight="400" font-size="41" transform="matrix(1 0 0 1 3556.97119140625 1321)">Week Commencing</text>
		</g>
		<g>
			<text fill="#595959" font-family="Verdana,Open Sans,DejaVu Sans,sans-serif" font-weight="400" font-size="46" transform="matrix(6.12323e-17 -1 1 6.12323e-17 3019.73 1005.4858093261719)">Number of Crawler Profiles</text>
		</g>
		<rect x="2918.5" y="347.5" width="1760" height="1043" stroke="#D9D9D9" stroke-width="3.4375" stroke-linejoin="round" stroke-miterlimit="10" fill="none" />
		<g>
			<path d="M3228.5 1038 3249.86 1038 3271.22 1038 3292.58 1038 3313.94 1038 3335.3 1038 3356.66 1038 3378.02 1038 3399.38 1038 3420.74 1038 3442.1 1038 3463.46 1038 3484.82 1038 3506.18 1038 3527.54 1038 3548.9 1038 3570.26 1038 3591.62 1038 3612.98 1038 3634.34 1038 3655.7 1038 3677.06 1038 3698.42 1038 3719.7799999999997 1038 3741.14 1038 3762.5 1038 3783.86 1038 3805.2200000000003 1038 3826.58 1038 3847.94 1038 3869.3 1038 3890.66 1038 3912.02 1038 3933.38 1038 3954.74 1038 3976.1 1038 3997.46 1038 4018.8199999999997 1038 4040.18 1038 4061.54 1038 4082.9 1038 4104.26 1038 4125.62 1038 4146.98 1038 4168.34 1038 4189.7 1038 4211.0599999999995 1038 4232.42 1038 4253.78 1038 4275.139999999999 1038 4296.5 1038 4296.5 399.8443804034582 4275.139999999999 399.8443804034582 4253.78 399.8443804034582 4232.42 401.68876080691643 4211.0599999999995 405.37752161383287 4189.7 407.2219020172911 4168.34 409.0662824207493 4146.98 414.59942363112395 4125.62 414.59942363112395 4104.26 414.59942363112395 4082.9 416.4438040345822 4061.54 420.1325648414986 4040.18 420.1325648414986 4018.8199999999997 420.1325648414986 3997.46 421.9769452449568 3976.1 421.9769452449568 3954.74 421.9769452449568 3933.38 429.3544668587897 3912.02 429.3544668587897 3890.66 429.3544668587897 3869.3 429.3544668587897 3847.94 429.3544668587897 3826.58 429.3544668587897 3805.2200000000003 429.3544668587897 3783.86 429.3544668587897 3762.5 429.3544668587897 3741.14 431.1988472622479 3719.7799999999997 431.1988472622479 3698.42 433.0432276657061 3677.06 433.0432276657061 3655.7 442.2651296829971 3634.34 444.1095100864553 3612.98 444.1095100864553 3591.62 447.79827089337175 3570.26 449.64265129682997 3548.9 455.1757925072046 3527.54 457.02017291066284 3506.18 458.86455331412105 3484.82 460.70893371757927 3463.46 460.70893371757927 3442.1 460.70893371757927 3420.74 462.5533141210375 3399.38 462.5533141210375 3378.02 462.5533141210375 3356.66 464.3976945244957 3335.3 464.3976945244957 3313.94 466.2420749279539 3292.58 466.2420749279539 3271.22 468.08645533141214 3249.86 469.93083573487036 3228.5 471.7752161383286 3228.5 1038Z" fill="#005aa6" opacity="0.9" />
		</g>
		<g>
			<path d="M3228.5 471.7752161383286 3249.86 469.93083573487036 3271.22 468.08645533141214 3292.58 466.2420749279539 3313.94 466.2420749279539 3335.3 464.3976945244957 3356.66 464.3976945244957 3378.02 462.5533141210375 3399.38 462.5533141210375 3420.74 462.5533141210375 3442.1 460.70893371757927 3463.46 460.70893371757927 3484.82 460.70893371757927 3506.18 458.86455331412105 3527.54 457.02017291066284 3548.9 455.1757925072046 3570.26 449.64265129682997 3591.62 447.79827089337175 3612.98 444.1095100864553 3634.34 444.1095100864553 3655.7 442.2651296829971 3677.06 433.0432276657061 3698.42 433.0432276657061 3719.7799999999997 431.1988472622479 3741.14 431.1988472622479 3762.5 429.3544668587897 3783.86 429.3544668587897 3805.2200000000003 429.3544668587897 3826.58 429.3544668587897 3847.94 429.3544668587897 3869.3 429.3544668587897 3890.66 429.3544668587897 3912.02 429.3544668587897 3933.38 429.3544668587897 3954.74 421.9769452449568 3976.1 421.9769452449568 3997.46 421.9769452449568 4018.8199999999997 420.1325648414986 4040.18 420.1325648414986 4061.54 420.1325648414986 4082.9 416.4438040345822 4104.26 414.59942363112395 4125.62 414.59942363112395 4146.98 414.59942363112395 4168.34 409.0662824207493 4189.7 407.2219020172911 4211.0599999999995 405.37752161383287 4232.42 401.68876080691643 4253.78 399.8443804034582 4275.139999999999 399.8443804034582 4296.5 399.8443804034582 4296.5 398 4275.139999999999 398 4253.78 398 4232.42 399.8443804034582 4211.0599999999995 403.53314121037465 4189.7 405.37752161383287 4168.34 407.2219020172911 4146.98 412.75504322766574 4125.62 412.75504322766574 4104.26 412.75504322766574 4082.9 414.59942363112395 4061.54 418.2881844380404 4040.18 418.2881844380404 4018.8199999999997 418.2881844380404 3997.46 420.1325648414986 3976.1 420.1325648414986 3954.74 420.1325648414986 3933.38 427.5100864553315 3912.02 427.5100864553315 3890.66 427.5100864553315 3869.3 427.5100864553315 3847.94 427.5100864553315 3826.58 427.5100864553315 3805.2200000000003 427.5100864553315 3783.86 427.5100864553315 3762.5 427.5100864553315 3741.14 429.3544668587897 3719.7799999999997 429.3544668587897 3698.42 431.1988472622479 3677.06 431.1988472622479 3655.7 440.4207492795389 3634.34 442.2651296829971 3612.98 442.2651296829971 3591.62 445.95389048991353 3570.26 447.79827089337175 3548.9 453.3314121037464 3527.54 455.1757925072046 3506.18 457.02017291066284 3484.82 458.86455331412105 3463.46 458.86455331412105 3442.1 458.86455331412105 3420.74 460.70893371757927 3399.38 460.70893371757927 3378.02 460.70893371757927 3356.66 462.5533141210375 3335.3 462.5533141210375 3313.94 464.3976945244957 3292.58 464.3976945244957 3271.22 466.2420749279539 3249.86 468.08645533141214 3228.5 469.93083573487036 3228.5 471.7752161383286Z" fill="#e62d39" opacity="0.9" />
		</g>
		<g>
			<rect x="4372" y="431" width="22.9995" height="23" fill="#005aa6" />
		</g>
		<g>
			<text fill="#595959" font-family="Verdana,Open Sans,DejaVu Sans,sans-serif" font-weight="400" font-size="41" transform="matrix(1 0 0 1 4404.56 454)">Crawler</text>
		</g>
		<g>
			<rect x="4372" y="508" width="22.9995" height="23" fill="#e62d39" />
		</g>
		<g>
			<text fill="#595959" font-family="Verdana,Open Sans,DejaVu Sans,sans-serif" font-weight="400" font-size="41" transform="matrix(1 0 0 1 4404.56 531)">Non-Crawler</text>
		</g>
	</g>
</svg>
