<svg width="1763" height="1046"
    xmlns="http://www.w3.org/2000/svg"
	xmlns:xlink="http://www.w3.org/1999/xlink" xml:space="preserve" overflow="hidden">
	<defs>
		<clipPath id="clip0">
			<rect x="2917" y="346" width="1763" height="1046"/>
		</clipPath>
	</defs>
	<g clip-path="url(#clip0)" transform="translate(-2917 -346)">
		<rect x="2918" y="347" width="1760" height="1043" fill="#FFFFFF" />
		<g>
			<path d="
			M3228.5 974.532 4296.5 974.532
			M3228.5 910.53 4296.5 910.53
			M3228.5 846.528 4296.5 846.528
			M3228.5 781.526 4296.5 781.526
			M3228.5 717.524 4296.5 717.524
			M3228.5 653.522 4296.5 653.522
			M3228.5 589.52 4296.5 589.52
			M3228.5 525.517 4296.5 525.517
			M3228.5 461.515 4296.5 461.515
			M3228.5 397.5 4296.5 397.5" stroke="#D9D9D9" stroke-width="3.4375" stroke-linejoin="round" stroke-miterlimit="10" fill="none" />
		</g>
		<g>
			<path d="M 1038.5 4296.5 1038.5" stroke="#D9D9D9" stroke-width="3.4375" stroke-linejoin="round" stroke-miterlimit="10" fill="none" fill-rule="evenodd" />
		</g>
		<g>
			<text fill="#595959" font-family="Verdana,Open Sans,DejaVu Sans,sans-serif" font-weight="400" font-size="41" transform="matrix(6.12323e-17 -1 1 6.12323e-17 3248.269287109375 1214.75341796875)">19-May</text>
		</g>
		<g>
			<text fill="#595959" font-family="Verdana,Open Sans,DejaVu Sans,sans-serif" font-weight="400" font-size="41" transform="matrix(6.12323e-17 -1 1 6.12323e-17 3332.6382421875 1194.0532150268555)">23-Jun</text>
		</g>
		<g>
			<text fill="#595959" font-family="Verdana,Open Sans,DejaVu Sans,sans-serif" font-weight="400" font-size="41" transform="matrix(6.12323e-17 -1 1 6.12323e-17 3418.808955078125 1179.0385665893555)">21-Jul</text>
		</g>
		<g>
			<text fill="#595959" font-family="Verdana,Open Sans,DejaVu Sans,sans-serif" font-weight="400" font-size="41" transform="matrix(6.12323e-17 -1 1 6.12323e-17 3504.589287109375 1206.90576171875)">18-Aug</text>
		</g>
		<g>
			<text fill="#595959" font-family="Verdana,Open Sans,DejaVu Sans,sans-serif" font-weight="400" font-size="41" transform="matrix(6.12323e-17 -1 1 6.12323e-17 3590.029287109375 1202.66162109375)">15-Sep</text>
		</g>
		<g>
			<text fill="#595959" font-family="Verdana,Open Sans,DejaVu Sans,sans-serif" font-weight="400" font-size="41" transform="matrix(6.12323e-17 -1 1 6.12323e-17 3670.764697265625 1199.3784103393555)">13-Oct</text>
		</g>
		<g>
			<text fill="#595959" font-family="Verdana,Open Sans,DejaVu Sans,sans-serif" font-weight="400" font-size="41" transform="matrix(6.12323e-17 -1 1 6.12323e-17 3756.204697265625 1209.70849609375)">10-Nov</text>
		</g>
		<g>
			<text fill="#595959" font-family="Verdana,Open Sans,DejaVu Sans,sans-serif" font-weight="400" font-size="41" transform="matrix(6.12323e-17 -1 1 6.12323e-17 3841.644697265625 1207.0859375)">08-Dec</text>
		</g>
		<g>
			<text fill="#595959" font-family="Verdana,Open Sans,DejaVu Sans,sans-serif" font-weight="400" font-size="41" transform="matrix(6.12323e-17 -1 1 6.12323e-17 3930.73826171875 1191.6508712768555)">05-Jan</text>
		</g>
		<g>
			<text fill="#595959" font-family="Verdana,Open Sans,DejaVu Sans,sans-serif" font-weight="400" font-size="41" transform="matrix(6.12323e-17 -1 1 6.12323e-17 4013.235390625 1203.0419921875)">02-Feb</text>
		</g>
		<g>
			<text fill="#595959" font-family="Verdana,Open Sans,DejaVu Sans,sans-serif" font-weight="400" font-size="41" transform="matrix(6.12323e-17 -1 1 6.12323e-17 4097.964697265625 1212.0107421875)">02-Mar</text>
		</g>
		<g>
			<text fill="#595959" font-family="Verdana,Open Sans,DejaVu Sans,sans-serif" font-weight="400" font-size="41" transform="matrix(6.12323e-17 -1 1 6.12323e-17 4183.404697265625 1212.1708984375)">30-Mar</text>
		</g>
		<g>
			<text fill="#595959" font-family="Verdana,Open Sans,DejaVu Sans,sans-serif" font-weight="400" font-size="41" transform="matrix(6.12323e-17 -1 1 6.12323e-17 4273.549287109375 1203.3022384643555)">27-Apr</text>
		</g>
		<g>
			<text fill="#595959" font-family="Verdana,Open Sans,DejaVu Sans,sans-serif" font-weight="400" font-size="41" transform="matrix(1 0 0 1 3135.4482421875 1050)">0%</text>
		</g>
		<g>
			<text fill="#595959" font-family="Verdana,Open Sans,DejaVu Sans,sans-serif" font-weight="400" font-size="41" transform="matrix(1 0 0 1 3111.96533203125 922)">20%</text>
		</g>
		<g>
			<text fill="#595959" font-family="Verdana,Open Sans,DejaVu Sans,sans-serif" font-weight="400" font-size="41" transform="matrix(1 0 0 1 3110.82421875 794)">40%</text>
		</g>
		<g>
			<text fill="#595959" font-family="Verdana,Open Sans,DejaVu Sans,sans-serif" font-weight="400" font-size="41" transform="matrix(1 0 0 1 3112.3056640625 666)">60%</text>
		</g>
		<g>
			<text fill="#595959" font-family="Verdana,Open Sans,DejaVu Sans,sans-serif" font-weight="400" font-size="41" transform="matrix(1 0 0 1 3112.04541015625 538)">80%</text>
		</g>
		<g>
			<text fill="#595959" font-family="Verdana,Open Sans,DejaVu Sans,sans-serif" font-weight="400" font-size="41" transform="matrix(1 0 0 1 3090.2841796875 410)">100%</text>
		</g>
		<g>
			<text fill="#595959" font-family="Verdana,Open Sans,DejaVu Sans,sans-serif" font-weight="400" font-size="41" transform="matrix(1 0 0 1 3556.97119140625 1321)">Week Commencing</text>
		</g>
		<g>
			<text fill="#595959" font-family="Verdana,Open Sans,DejaVu Sans,sans-serif" font-weight="400" font-size="46" transform="matrix(6.12323e-17 -1 1 6.12323e-17 3019.73 936.7665710449219)">Requests (% of Total)</text>
		</g>
		<rect x="2918.5" y="347.5" width="1760" height="1043" stroke="#D9D9D9" stroke-width="3.4375" stroke-linejoin="round" stroke-miterlimit="10" fill="none" />
		<g>
			<path d="M3228.5 1038 3249.86 1038 3271.22 1038 3292.58 1038 3313.94 1038 3335.3 1038 3356.66 1038 3378.02 1038 3399.38 1038 3420.74 1038 3442.1 1038 3463.46 1038 3484.82 1038 3506.18 1038 3527.54 1038 3548.9 1038 3570.26 1038 3591.62 1038 3612.98 1038 3634.34 1038 3655.7 1038 3677.06 1038 3698.42 1038 3719.7799999999997 1038 3741.14 1038 3762.5 1038 3783.86 1038 3805.2200000000003 1038 3826.58 1038 3847.94 1038 3869.3 1038 3890.66 1038 3912.02 1038 3933.38 1038 3954.74 1038 3976.1 1038 3997.46 1038 4018.8199999999997 1038 4040.18 1038 4061.54 1038 4082.9 1038 4104.26 1038 4125.62 1038 4146.98 1038 4168.34 1038 4189.7 1038 4211.0599999999995 1038 4232.42 1038 4253.78 1038 4275.139999999999 1038 4296.5 1038 4296.5 437.41933993409225 4275.139999999999 437.77571312198756 4253.78 437.9538782171219 4232.42 438.04589818914667 4211.0599999999995 438.30346732909925 4189.7 437.9330255815296 4168.34 437.830120525933 4146.98 437.4274922428566 4125.62 437.5327918592636 4104.26 437.70848432679963 4082.9 437.8791578329525 4061.54 438.2569100073033 4040.18 438.25416567656384 4018.8199999999997 438.2284066200755 3997.46 438.4018523571715 3976.1 438.2585045087485 3954.74 438.1419455028754 3933.38 438.1490336079519 3912.02 438.2753528850003 3890.66 438.3712938024157 3869.3 438.93844580645873 3847.94 438.66009075050135 3826.58 438.6550093538849 3805.2200000000003 438.8753603320732 3783.86 440.072777946987 3762.5 439.54649540853677 3741.14 439.7648762802967 3719.7799999999997 440.0929578933227 3698.42 440.1107731424996 3677.06 440.17666153343987 3655.7 440.17259352262283 3634.34 440.3280263296216 3612.98 440.34799215358134 3591.62 440.40616975209355 3570.26 440.40760550465325 3548.9 440.94196380839696 3527.54 441.17078340782746 3506.18 441.17336955313306 3484.82 441.3391880005887 3463.46 441.48654078274615 3442.1 441.48316478044603 3420.74 441.484756503997 3399.38 441.489616515065 3378.02 441.29796426599523 3356.66 441.72595383903854 3335.3 442.8417422387853 3313.94 442.854171965349 3292.58 442.95845521922934 3271.22 442.9731674669964 3249.86 443.09587998074596 3228.5 442.9453880046191 3228.5 1038Z" fill="#e62d39" opacity="0.9" />
		</g>
		<g>
			<path d="M3228.5 442.9453880046191 3249.86 443.09587998074596 3271.22 442.9731674669964 3292.58 442.95845521922934 3313.94 442.854171965349 3335.3 442.8417422387853 3356.66 441.72595383903854 3378.02 441.29796426599523 3399.38 441.489616515065 3420.74 441.484756503997 3442.1 441.48316478044603 3463.46 441.48654078274615 3484.82 441.3391880005887 3506.18 441.17336955313306 3527.54 441.17078340782746 3548.9 440.94196380839696 3570.26 440.40760550465325 3591.62 440.40616975209355 3612.98 440.34799215358134 3634.34 440.3280263296216 3655.7 440.17259352262283 3677.06 440.17666153343987 3698.42 440.1107731424996 3719.7799999999997 440.0929578933227 3741.14 439.7648762802967 3762.5 439.54649540853677 3783.86 440.072777946987 3805.2200000000003 438.8753603320732 3826.58 438.6550093538849 3847.94 438.66009075050135 3869.3 438.93844580645873 3890.66 438.3712938024157 3912.02 438.2753528850003 3933.38 438.1490336079519 3954.74 438.1419455028754 3976.1 438.2585045087485 3997.46 438.4018523571715 4018.8199999999997 438.2284066200755 4040.18 438.25416567656384 4061.54 438.2569100073033 4082.9 437.8791578329525 4104.26 437.70848432679963 4125.62 437.5327918592636 4146.98 437.4274922428566 4168.34 437.830120525933 4189.7 437.9330255815296 4211.0599999999995 438.30346732909925 4232.42 438.04589818914667 4253.78 437.9538782171219 4275.139999999999 437.77571312198756 4296.5 437.41933993409225 4296.5 397.99999999999994 4275.139999999999 398 4253.78 398 4232.42 398 4211.0599999999995 398 4189.7 398.00000000000006 4168.34 398 4146.98 398 4125.62 398 4104.26 397.99999999999994 4082.9 398 4061.54 397.99999999999994 4040.18 398 4018.8199999999997 398 3997.46 398.00000000000006 3976.1 398 3954.74 397.99999999999994 3933.38 398 3912.02 398.00000000000006 3890.66 398 3869.3 398 3847.94 398 3826.58 398.00000000000006 3805.2200000000003 398 3783.86 398 3762.5 398 3741.14 398.00000000000006 3719.7799999999997 398 3698.42 398 3677.06 398.00000000000006 3655.7 398 3634.34 398.00000000000006 3612.98 398.00000000000006 3591.62 398.0000000000001 3570.26 398 3548.9 398 3527.54 398 3506.18 397.99999999999994 3484.82 398 3463.46 398 3442.1 397.99999999999994 3420.74 398 3399.38 398 3378.02 397.99999999999994 3356.66 398 3335.3 398 3313.94 397.99999999999994 3292.58 398.00000000000006 3271.22 398 3249.86 398 3228.5 398.00000000000006 3228.5 442.9453880046191Z" fill="#005aa6" opacity="0.9" />
		</g>
		<g>
			<rect x="4372" y="431" width="22.9995" height="23" fill="#e62d39" />
		</g>
		<g>
			<text fill="#595959" font-family="Verdana,Open Sans,DejaVu Sans,sans-serif" font-weight="400" font-size="41" transform="matrix(1 0 0 1 4404.56 454)">Non-Crawler</text>
		</g>
		<g>
			<rect x="4372" y="508" width="22.9995" height="23" fill="#005aa6" />
		</g>
		<g>
			<text fill="#595959" font-family="Verdana,Open Sans,DejaVu Sans,sans-serif" font-weight="400" font-size="41" transform="matrix(1 0 0 1 4404.56 531)">Crawler</text>
		</g>
	</g>
</svg>
