<svg width="1763" height="1046"
    xmlns="http://www.w3.org/2000/svg"
	xmlns:xlink="http://www.w3.org/1999/xlink" xml:space="preserve" overflow="hidden">
	<defs>
		<clipPath id="clip0">
			<rect x="2917" y="346" width="1763" height="1046"/>
		</clipPath>
	</defs>
	<g clip-path="url(#clip0)" transform="translate(-2917 -346)">
		<rect x="2918" y="347" width="1760" height="1043" fill="#FFFFFF" />
		<g>
			<path d="
			M3228.5 974.532 4296.5 974.532
			M3228.5 910.53 4296.5 910.53
			M3228.5 846.528 4296.5 846.528
			M3228.5 781.526 4296.5 781.526
			M3228.5 717.524 4296.5 717.524
			M3228.5 653.522 4296.5 653.522
			M3228.5 589.52 4296.5 589.52
			M3228.5 525.517 4296.5 525.517
			M3228.5 461.515 4296.5 461.515
			M3228.5 397.5 4296.5 397.5" stroke="#D9D9D9" stroke-width="3.4375" stroke-linejoin="round" stroke-miterlimit="10" fill="none" />
		</g>
		<g>
			<path d="M 1038.5 4296.5 1038.5" stroke="#D9D9D9" stroke-width="3.4375" stroke-linejoin="round" stroke-miterlimit="10" fill="none" fill-rule="evenodd" />
		</g>
		<g>
			<text fill="#595959" font-family="Verdana,sans-serif" font-weight="400" font-size="41" transform="matrix(6.12323e-17 -1 1 6.12323e-17 3244.5 1225)">06-Nov</text>
		</g>
		<g>
			<text fill="#595959" font-family="Verdana,sans-serif" font-weight="400" font-size="41" transform="matrix(6.12323e-17 -1 1 6.12323e-17 3370.1470588235293 1223)">04-Dec</text>
		</g>
		<g>
			<text fill="#595959" font-family="Verdana,sans-serif" font-weight="400" font-size="41" transform="matrix(6.12323e-17 -1 1 6.12323e-17 3495.794117647059 1210)">01-Jan</text>
		</g>
		<g>
			<text fill="#595959" font-family="Verdana,sans-serif" font-weight="400" font-size="41" transform="matrix(6.12323e-17 -1 1 6.12323e-17 3621.4411764705883 1210)">29-Jan</text>
		</g>
		<g>
			<text fill="#595959" font-family="Verdana,sans-serif" font-weight="400" font-size="41" transform="matrix(6.12323e-17 -1 1 6.12323e-17 3747.0882352941176 1216)">26-Feb</text>
		</g>
		<g>
			<text fill="#595959" font-family="Verdana,sans-serif" font-weight="400" font-size="41" transform="matrix(6.12323e-17 -1 1 6.12323e-17 3872.735294117647 1223)">25-Mar</text>
		</g>
		<g>
			<text fill="#595959" font-family="Verdana,sans-serif" font-weight="400" font-size="41" transform="matrix(6.12323e-17 -1 1 6.12323e-17 4001.8823529411766 1216)">22-Apr</text>
		</g>
		<g>
			<text fill="#595959" font-family="Verdana,sans-serif" font-weight="400" font-size="41" transform="matrix(6.12323e-17 -1 1 6.12323e-17 4127.529411764706 1228)">20-May</text>
		</g>
		<g>
			<text fill="#595959" font-family="Verdana,sans-serif" font-weight="400" font-size="41" transform="matrix(6.12323e-17 -1 1 6.12323e-17 4249.176470588235 1209)">17-Jun</text>
		</g>
		<g>
			<text fill="#595959" font-family="Verdana,sans-serif" font-weight="400" font-size="41" transform="matrix(1 0 0 1 3123.5 1050)">0%</text>
		</g>
		<g>
			<text fill="#595959" font-family="Verdana,sans-serif" font-weight="400" font-size="41" transform="matrix(1 0 0 1 3097.5 922)">20%</text>
		</g>
		<g>
			<text fill="#595959" font-family="Verdana,sans-serif" font-weight="400" font-size="41" transform="matrix(1 0 0 1 3096.5 794)">40%</text>
		</g>
		<g>
			<text fill="#595959" font-family="Verdana,sans-serif" font-weight="400" font-size="41" transform="matrix(1 0 0 1 3097.5 666)">60%</text>
		</g>
		<g>
			<text fill="#595959" font-family="Verdana,sans-serif" font-weight="400" font-size="41" transform="matrix(1 0 0 1 3097.5 538)">80%</text>
		</g>
		<g>
			<text fill="#595959" font-family="Verdana,sans-serif" font-weight="400" font-size="41" transform="matrix(1 0 0 1 3074.5 410)">100%</text>
		</g>
		<g>
			<text fill="#595959" font-family="Verdana,sans-serif" font-weight="400" font-size="41" transform="matrix(1 0 0 1 3544.5 1321)">Week Commencing</text>
		</g>
		<g>
			<text fill="#595959" font-family="Verdana,sans-serif" font-weight="400" font-size="46" transform="matrix(6.12323e-17 -1 1 6.12323e-17 3019.73 965.25)">Requests (% of Total)</text>
		</g>
		<rect x="2918.5" y="347.5" width="1760" height="1043" stroke="#D9D9D9" stroke-width="3.4375" stroke-linejoin="round" stroke-miterlimit="10" fill="none" />
		<g>
			<path d="M3228.5 1038 3259.9117647058824 1038 3291.323529411765 1038 3322.735294117647 1038 3354.1470588235293 1038 3385.5588235294117 1038 3416.970588235294 1038 3448.3823529411766 1038 3479.794117647059 1038 3511.205882352941 1038 3542.6176470588234 1038 3574.029411764706 1038 3605.4411764705883 1038 3636.8529411764707 1038 3668.264705882353 1038 3699.676470588235 1038 3731.0882352941176 1038 3762.5 1038 3793.9117647058824 1038 3825.323529411765 1038 3856.735294117647 1038 3888.1470588235293 1038 3919.5588235294117 1038 3950.970588235294 1038 3982.3823529411766 1038 4013.7941176470586 1038 4045.205882352941 1038 4076.6176470588234 1038 4108.029411764706 1038 4139.441176470588 1038 4170.85294117647 1038 4202.264705882353 1038 4233.676470588235 1038 4265.088235294117 1038 4296.5 1038 4296.5 572.8940388940463 4265.088235294117 572.4651830343407 4233.676470588235 572.6325422225004 4202.264705882353 571.5082651331143 4170.85294117647 572.2322344669446 4139.441176470588 572.7455283998808 4108.029411764706 573.7260592446937 4076.6176470588234 574.7878423335366 4045.205882352941 575.6290427379265 4013.7941176470586 575.9687876322813 3982.3823529411766 576.8727971406818 3950.970588235294 578.2473295586981 3919.5588235294117 579.8301495425726 3888.1470588235293 581.4258071436993 3856.735294117647 583.4353029706369 3825.323529411765 585.2297796683877 3793.9117647058824 569.3763139485983 3762.5 569.4920790789085 3731.0882352941176 568.4210223578364 3699.676470588235 567.328661211755 3668.264705882353 566.161104092279 3636.8529411764707 566.5630760901624 3605.4411764705883 566.9371867374394 3574.029411764706 565.7434322908556 3542.6176470588234 565.3329344965637 3511.205882352941 567.1306424721515 3479.794117647059 546.6361313386333 3448.3823529411766 547.2360643741254 3416.970588235294 547.9846296844262 3385.5588235294117 551.0672526834712 3354.1470588235293 550.9210452859504 3322.735294117647 550.9050574683862 3291.323529411765 550.8533354714161 3259.9117647058824 550.7560734149703 3228.5 551.2665692392751 3228.5 1038Z" fill="#e62d39" opacity="0.9" />
		</g>
		<g>
			<path d="M3228.5 551.2665692392751 3259.9117647058824 550.7560734149703 3291.323529411765 550.8533354714161 3322.735294117647 550.9050574683862 3354.1470588235293 550.9210452859504 3385.5588235294117 551.0672526834712 3416.970588235294 547.9846296844262 3448.3823529411766 547.2360643741254 3479.794117647059 546.6361313386333 3511.205882352941 567.1306424721515 3542.6176470588234 565.3329344965637 3574.029411764706 565.7434322908556 3605.4411764705883 566.9371867374394 3636.8529411764707 566.5630760901624 3668.264705882353 566.161104092279 3699.676470588235 567.328661211755 3731.0882352941176 568.4210223578364 3762.5 569.4920790789085 3793.9117647058824 569.3763139485983 3825.323529411765 585.2297796683877 3856.735294117647 583.4353029706369 3888.1470588235293 581.4258071436993 3919.5588235294117 579.8301495425726 3950.970588235294 578.2473295586981 3982.3823529411766 576.8727971406818 4013.7941176470586 575.9687876322813 4045.205882352941 575.6290427379265 4076.6176470588234 574.7878423335366 4108.029411764706 573.7260592446937 4139.441176470588 572.7455283998808 4170.85294117647 572.2322344669446 4202.264705882353 571.5082651331143 4233.676470588235 572.6325422225004 4265.088235294117 572.4651830343407 4296.5 572.8940388940463 4296.5 398 4265.088235294117 398 4233.676470588235 398 4202.264705882353 397.99999999999994 4170.85294117647 398.0000000000001 4139.441176470588 398 4108.029411764706 398 4076.6176470588234 398.00000000000006 4045.205882352941 398 4013.7941176470586 398 3982.3823529411766 397.99999999999994 3950.970588235294 397.99999999999994 3919.5588235294117 398.0000000000001 3888.1470588235293 398 3856.735294117647 398 3825.323529411765 398 3793.9117647058824 398 3762.5 398.00000000000006 3731.0882352941176 398.00000000000006 3699.676470588235 398 3668.264705882353 398.00000000000006 3636.8529411764707 397.99999999999994 3605.4411764705883 398 3574.029411764706 398 3542.6176470588234 397.99999999999994 3511.205882352941 398.00000000000006 3479.794117647059 398 3448.3823529411766 398.0000000000001 3416.970588235294 398 3385.5588235294117 398 3354.1470588235293 398 3322.735294117647 398 3291.323529411765 398 3259.9117647058824 398 3228.5 398 3228.5 551.2665692392751Z" fill="#005aa6" opacity="0.9" />
		</g>
		<g>
			<rect x="4372" y="431" width="22.9995" height="23" fill="#e62d39" />
		</g>
		<g>
			<text fill="#595959" font-family="Verdana,sans-serif" font-weight="400" font-size="41" transform="matrix(1 0 0 1 4404.56 454)">Non-Crawler</text>
		</g>
		<g>
			<rect x="4372" y="508" width="22.9995" height="23" fill="#005aa6" />
		</g>
		<g>
			<text fill="#595959" font-family="Verdana,sans-serif" font-weight="400" font-size="41" transform="matrix(1 0 0 1 4404.56 531)">Crawler</text>
		</g>
	</g>
</svg>
