<svg width="1763" height="1046"
    xmlns="http://www.w3.org/2000/svg"
	xmlns:xlink="http://www.w3.org/1999/xlink" xml:space="preserve" overflow="hidden">
	<defs>
		<clipPath id="clip0">
			<rect x="2917" y="346" width="1763" height="1046"/>
		</clipPath>
	</defs>
	<g clip-path="url(#clip0)" transform="translate(-2917 -346)">
		<rect x="2918" y="347" width="1760" height="1043" fill="#FFFFFF" />
		<g>
			<path d="
			M3228.5 974.532 4296.5 974.532
			M3228.5 910.53 4296.5 910.53
			M3228.5 846.528 4296.5 846.528
			M3228.5 781.526 4296.5 781.526
			M3228.5 717.524 4296.5 717.524
			M3228.5 653.522 4296.5 653.522
			M3228.5 589.52 4296.5 589.52
			M3228.5 525.517 4296.5 525.517
			M3228.5 461.515 4296.5 461.515
			M3228.5 397.5 4296.5 397.5" stroke="#D9D9D9" stroke-width="3.4375" stroke-linejoin="round" stroke-miterlimit="10" fill="none" />
		</g>
		<g>
			<path d="M 1038.5 4296.5 1038.5" stroke="#D9D9D9" stroke-width="3.4375" stroke-linejoin="round" stroke-miterlimit="10" fill="none" fill-rule="evenodd" />
		</g>
		<g>
			<text fill="#595959" font-family="Verdana,Open Sans,DejaVu Sans,sans-serif" font-weight="400" font-size="41" transform="matrix(6.12323e-17 -1 1 6.12323e-17 3247.928955078125 1179.0385665893555)">22-Jul</text>
		</g>
		<g>
			<text fill="#595959" font-family="Verdana,Open Sans,DejaVu Sans,sans-serif" font-weight="400" font-size="41" transform="matrix(6.12323e-17 -1 1 6.12323e-17 3333.709287109375 1206.90576171875)">19-Aug</text>
		</g>
		<g>
			<text fill="#595959" font-family="Verdana,Open Sans,DejaVu Sans,sans-serif" font-weight="400" font-size="41" transform="matrix(6.12323e-17 -1 1 6.12323e-17 3419.149287109375 1202.66162109375)">16-Sep</text>
		</g>
		<g>
			<text fill="#595959" font-family="Verdana,Open Sans,DejaVu Sans,sans-serif" font-weight="400" font-size="41" transform="matrix(6.12323e-17 -1 1 6.12323e-17 3499.884697265625 1199.3784103393555)">14-Oct</text>
		</g>
		<g>
			<text fill="#595959" font-family="Verdana,Open Sans,DejaVu Sans,sans-serif" font-weight="400" font-size="41" transform="matrix(6.12323e-17 -1 1 6.12323e-17 3585.09447265625 1209.70849609375)">11-Nov</text>
		</g>
		<g>
			<text fill="#595959" font-family="Verdana,Open Sans,DejaVu Sans,sans-serif" font-weight="400" font-size="41" transform="matrix(6.12323e-17 -1 1 6.12323e-17 3670.744677734375 1205.3642578125)">16-Dec</text>
		</g>
		<g>
			<text fill="#595959" font-family="Verdana,Open Sans,DejaVu Sans,sans-serif" font-weight="400" font-size="41" transform="matrix(6.12323e-17 -1 1 6.12323e-17 3759.8382421875 1189.9291915893555)">13-Jan</text>
		</g>
		<g>
			<text fill="#595959" font-family="Verdana,Open Sans,DejaVu Sans,sans-serif" font-weight="400" font-size="41" transform="matrix(6.12323e-17 -1 1 6.12323e-17 3842.355390625 1201.3203125)">10-Feb</text>
		</g>
		<g>
			<text fill="#595959" font-family="Verdana,Open Sans,DejaVu Sans,sans-serif" font-weight="400" font-size="41" transform="matrix(6.12323e-17 -1 1 6.12323e-17 3927.084697265625 1210.2890625)">10-Mar</text>
		</g>
		<g>
			<text fill="#595959" font-family="Verdana,Open Sans,DejaVu Sans,sans-serif" font-weight="400" font-size="41" transform="matrix(6.12323e-17 -1 1 6.12323e-17 4017.249306640625 1203.2621994018555)">07-Apr</text>
		</g>
		<g>
			<text fill="#595959" font-family="Verdana,Open Sans,DejaVu Sans,sans-serif" font-weight="400" font-size="41" transform="matrix(6.12323e-17 -1 1 6.12323e-17 4102.689306640625 1216.47509765625)">05-May</text>
		</g>
		<g>
			<text fill="#595959" font-family="Verdana,Open Sans,DejaVu Sans,sans-serif" font-weight="400" font-size="41" transform="matrix(6.12323e-17 -1 1 6.12323e-17 4187.05826171875 1194.0131759643555)">09-Jun</text>
		</g>
		<g>
			<text fill="#595959" font-family="Verdana,Open Sans,DejaVu Sans,sans-serif" font-weight="400" font-size="41" transform="matrix(6.12323e-17 -1 1 6.12323e-17 4273.208955078125 1178.9985275268555)">07-Jul</text>
		</g>
		<g>
			<text fill="#595959" font-family="Verdana,Open Sans,DejaVu Sans,sans-serif" font-weight="400" font-size="41" transform="matrix(1 0 0 1 3135.4482421875 1050)">0%</text>
		</g>
		<g>
			<text fill="#595959" font-family="Verdana,Open Sans,DejaVu Sans,sans-serif" font-weight="400" font-size="41" transform="matrix(1 0 0 1 3111.96533203125 922)">20%</text>
		</g>
		<g>
			<text fill="#595959" font-family="Verdana,Open Sans,DejaVu Sans,sans-serif" font-weight="400" font-size="41" transform="matrix(1 0 0 1 3110.82421875 794)">40%</text>
		</g>
		<g>
			<text fill="#595959" font-family="Verdana,Open Sans,DejaVu Sans,sans-serif" font-weight="400" font-size="41" transform="matrix(1 0 0 1 3112.3056640625 666)">60%</text>
		</g>
		<g>
			<text fill="#595959" font-family="Verdana,Open Sans,DejaVu Sans,sans-serif" font-weight="400" font-size="41" transform="matrix(1 0 0 1 3112.04541015625 538)">80%</text>
		</g>
		<g>
			<text fill="#595959" font-family="Verdana,Open Sans,DejaVu Sans,sans-serif" font-weight="400" font-size="41" transform="matrix(1 0 0 1 3090.2841796875 410)">100%</text>
		</g>
		<g>
			<text fill="#595959" font-family="Verdana,Open Sans,DejaVu Sans,sans-serif" font-weight="400" font-size="41" transform="matrix(1 0 0 1 3556.97119140625 1321)">Week Commencing</text>
		</g>
		<g>
			<text fill="#595959" font-family="Verdana,Open Sans,DejaVu Sans,sans-serif" font-weight="400" font-size="46" transform="matrix(6.12323e-17 -1 1 6.12323e-17 3019.73 936.7665710449219)">Requests (% of Total)</text>
		</g>
		<rect x="2918.5" y="347.5" width="1760" height="1043" stroke="#D9D9D9" stroke-width="3.4375" stroke-linejoin="round" stroke-miterlimit="10" fill="none" />
		<g>
			<path d="M3228.5 1038 3249.86 1038 3271.22 1038 3292.58 1038 3313.94 1038 3335.3 1038 3356.66 1038 3378.02 1038 3399.38 1038 3420.74 1038 3442.1 1038 3463.46 1038 3484.82 1038 3506.18 1038 3527.54 1038 3548.9 1038 3570.26 1038 3591.62 1038 3612.98 1038 3634.34 1038 3655.7 1038 3677.06 1038 3698.42 1038 3719.7799999999997 1038 3741.14 1038 3762.5 1038 3783.86 1038 3805.2200000000003 1038 3826.58 1038 3847.94 1038 3869.3 1038 3890.66 1038 3912.02 1038 3933.38 1038 3954.74 1038 3976.1 1038 3997.46 1038 4018.8199999999997 1038 4040.18 1038 4061.54 1038 4082.9 1038 4104.26 1038 4125.62 1038 4146.98 1038 4168.34 1038 4189.7 1038 4211.0599999999995 1038 4232.42 1038 4253.78 1038 4275.139999999999 1038 4296.5 1038 4296.5 441.489616515065 4275.139999999999 441.29796426599523 4253.78 441.72595383903854 4232.42 442.8417422387853 4211.0599999999995 442.854171965349 4189.7 442.95845521922934 4168.34 442.9731674669964 4146.98 443.09587998074596 4125.62 442.9453880046191 4104.26 442.7539759175269 4082.9 442.4035157162202 4061.54 442.11056785584276 4040.18 441.83280494374446 4018.8199999999997 441.70333243098173 3997.46 441.6626940555466 3976.1 441.6573661278967 3954.74 441.5375979828307 3933.38 441.406683369976 3912.02 441.167209213907 3890.66 441.0289316920836 3869.3 441.03561787240676 3847.94 441.06205687573333 3826.58 441.14123809544583 3805.2200000000003 441.04668014176025 3783.86 441.3325461823914 3762.5 441.50673382811704 3741.14 441.5263210359809 3719.7799999999997 441.5338725099368 3698.42 441.5429030927178 3677.06 441.47417224977323 3655.7 441.4594945700171 3634.34 441.38808556766435 3612.98 441.3288056085928 3591.62 441.47308833726333 3570.26 441.645038932872 3548.9 441.9852131881347 3527.54 442.33307896966517 3506.18 566.5721783366624 3484.82 567.1308685788513 3463.46 567.5130485279316 3442.1 568.0135171374827 3420.74 568.6966145549849 3399.38 569.582505337425 3378.02 569.9559975833151 3356.66 570.7071585028136 3335.3 571.2237275515587 3313.94 571.9035338843237 3292.58 572.0631883952817 3271.22 572.5486893796854 3249.86 572.9112818795618 3228.5 572.7332415748011 3228.5 1038Z" fill="#e62d39" opacity="0.9" />
		</g>
		<g>
			<path d="M3228.5 572.7332415748011 3249.86 572.9112818795618 3271.22 572.5486893796854 3292.58 572.0631883952817 3313.94 571.9035338843237 3335.3 571.2237275515587 3356.66 570.7071585028136 3378.02 569.9559975833151 3399.38 569.582505337425 3420.74 568.6966145549849 3442.1 568.0135171374827 3463.46 567.5130485279316 3484.82 567.1308685788513 3506.18 566.5721783366624 3527.54 442.33307896966517 3548.9 441.9852131881347 3570.26 441.645038932872 3591.62 441.47308833726333 3612.98 441.3288056085928 3634.34 441.38808556766435 3655.7 441.4594945700171 3677.06 441.47417224977323 3698.42 441.5429030927178 3719.7799999999997 441.5338725099368 3741.14 441.5263210359809 3762.5 441.50673382811704 3783.86 441.3325461823914 3805.2200000000003 441.04668014176025 3826.58 441.14123809544583 3847.94 441.06205687573333 3869.3 441.03561787240676 3890.66 441.0289316920836 3912.02 441.167209213907 3933.38 441.406683369976 3954.74 441.5375979828307 3976.1 441.6573661278967 3997.46 441.6626940555466 4018.8199999999997 441.70333243098173 4040.18 441.83280494374446 4061.54 442.11056785584276 4082.9 442.4035157162202 4104.26 442.7539759175269 4125.62 442.9453880046191 4146.98 443.09587998074596 4168.34 442.9731674669964 4189.7 442.95845521922934 4211.0599999999995 442.854171965349 4232.42 442.8417422387853 4253.78 441.72595383903854 4275.139999999999 441.29796426599523 4296.5 441.489616515065 4296.5 398 4275.139999999999 397.99999999999994 4253.78 398 4232.42 398 4211.0599999999995 397.99999999999994 4189.7 398.00000000000006 4168.34 398 4146.98 398 4125.62 398.00000000000006 4104.26 397.99999999999994 4082.9 398 4061.54 398.00000000000006 4040.18 398 4018.8199999999997 398 3997.46 398 3976.1 398 3954.74 398.00000000000006 3933.38 398 3912.02 398 3890.66 398 3869.3 398 3847.94 397.99999999999994 3826.58 398 3805.2200000000003 398.00000000000006 3783.86 397.99999999999994 3762.5 398.00000000000006 3741.14 398 3719.7799999999997 398 3698.42 398 3677.06 398 3655.7 398.00000000000006 3634.34 398 3612.98 398 3591.62 398 3570.26 397.99999999999994 3548.9 398 3527.54 398 3506.18 398 3484.82 398 3463.46 398 3442.1 398 3420.74 398 3399.38 398 3378.02 398.00000000000006 3356.66 398 3335.3 398 3313.94 398 3292.58 398.00000000000006 3271.22 398 3249.86 397.99999999999994 3228.5 398 3228.5 572.7332415748011Z" fill="#005aa6" opacity="0.9" />
		</g>
		<g>
			<rect x="4372" y="431" width="22.9995" height="23" fill="#e62d39" />
		</g>
		<g>
			<text fill="#595959" font-family="Verdana,Open Sans,DejaVu Sans,sans-serif" font-weight="400" font-size="41" transform="matrix(1 0 0 1 4404.56 454)">Non-Crawler</text>
		</g>
		<g>
			<rect x="4372" y="508" width="22.9995" height="23" fill="#005aa6" />
		</g>
		<g>
			<text fill="#595959" font-family="Verdana,Open Sans,DejaVu Sans,sans-serif" font-weight="400" font-size="41" transform="matrix(1 0 0 1 4404.56 531)">Crawler</text>
		</g>
	</g>
</svg>
