<svg width="1763" height="1046"
    xmlns="http://www.w3.org/2000/svg"
	xmlns:xlink="http://www.w3.org/1999/xlink" xml:space="preserve" overflow="hidden">
	<defs>
		<clipPath id="clip0">
			<rect x="2917" y="346" width="1763" height="1046"/>
		</clipPath>
	</defs>
	<g clip-path="url(#clip0)" transform="translate(-2917 -346)">
		<rect x="2918" y="347" width="1760" height="1043" fill="#FFFFFF" />
		<g>
			<path d="
			M3228.5 974.532 4296.5 974.532
			M3228.5 910.53 4296.5 910.53
			M3228.5 846.528 4296.5 846.528
			M3228.5 781.526 4296.5 781.526
			M3228.5 717.524 4296.5 717.524
			M3228.5 653.522 4296.5 653.522
			M3228.5 589.52 4296.5 589.52
			M3228.5 525.517 4296.5 525.517
			M3228.5 461.515 4296.5 461.515
			M3228.5 397.5 4296.5 397.5" stroke="#D9D9D9" stroke-width="3.4375" stroke-linejoin="round" stroke-miterlimit="10" fill="none" />
		</g>
		<g>
			<path d="M 1038.5 4296.5 1038.5" stroke="#D9D9D9" stroke-width="3.4375" stroke-linejoin="round" stroke-miterlimit="10" fill="none" fill-rule="evenodd" />
		</g>
		<g>
			<text fill="#595959" font-family="Verdana,Open Sans,DejaVu Sans,sans-serif" font-weight="400" font-size="41" transform="matrix(6.12323e-17 -1 1 6.12323e-17 3248.269287109375 1206.90576171875)">12-Aug</text>
		</g>
		<g>
			<text fill="#595959" font-family="Verdana,Open Sans,DejaVu Sans,sans-serif" font-weight="400" font-size="41" transform="matrix(6.12323e-17 -1 1 6.12323e-17 3335.472980110013 1204.38330078125)">09-Sep</text>
		</g>
		<g>
			<text fill="#595959" font-family="Verdana,Open Sans,DejaVu Sans,sans-serif" font-weight="400" font-size="41" transform="matrix(6.12323e-17 -1 1 6.12323e-17 3417.9320442044004 1201.1000900268555)">07-Oct</text>
		</g>
		<g>
			<text fill="#595959" font-family="Verdana,Open Sans,DejaVu Sans,sans-serif" font-weight="400" font-size="41" transform="matrix(6.12323e-17 -1 1 6.12323e-17 3505.1157176737884 1211.43017578125)">04-Nov</text>
		</g>
		<g>
			<text fill="#595959" font-family="Verdana,Open Sans,DejaVu Sans,sans-serif" font-weight="400" font-size="41" transform="matrix(6.12323e-17 -1 1 6.12323e-17 3592.299391143176 1207.0859375)">09-Dec</text>
		</g>
		<g>
			<text fill="#595959" font-family="Verdana,Open Sans,DejaVu Sans,sans-serif" font-weight="400" font-size="41" transform="matrix(6.12323e-17 -1 1 6.12323e-17 3683.136629065689 1191.6508712768555)">06-Jan</text>
		</g>
		<g>
			<text fill="#595959" font-family="Verdana,Open Sans,DejaVu Sans,sans-serif" font-weight="400" font-size="41" transform="matrix(6.12323e-17 -1 1 6.12323e-17 3767.3774314413267 1203.0419921875)">03-Feb</text>
		</g>
		<g>
			<text fill="#595959" font-family="Verdana,Open Sans,DejaVu Sans,sans-serif" font-weight="400" font-size="41" transform="matrix(6.12323e-17 -1 1 6.12323e-17 3853.850411551339 1212.0107421875)">03-Mar</text>
		</g>
		<g>
			<text fill="#595959" font-family="Verdana,Open Sans,DejaVu Sans,sans-serif" font-weight="400" font-size="41" transform="matrix(6.12323e-17 -1 1 6.12323e-17 3941.014065489477 1212.1708984375)">31-Mar</text>
		</g>
		<g>
			<text fill="#595959" font-family="Verdana,Open Sans,DejaVu Sans,sans-serif" font-weight="400" font-size="41" transform="matrix(6.12323e-17 -1 1 6.12323e-17 4032.9223483338646 1203.3022384643555)">28-Apr</text>
		</g>
		<g>
			<text fill="#595959" font-family="Verdana,Open Sans,DejaVu Sans,sans-serif" font-weight="400" font-size="41" transform="matrix(6.12323e-17 -1 1 6.12323e-17 4120.106021803253 1216.51513671875)">26-May</text>
		</g>
		<g>
			<text fill="#595959" font-family="Verdana,Open Sans,DejaVu Sans,sans-serif" font-weight="400" font-size="41" transform="matrix(6.12323e-17 -1 1 6.12323e-17 4206.2386698820155 1194.1733322143555)">30-Jun</text>
		</g>
		<g>
			<text fill="#595959" font-family="Verdana,Open Sans,DejaVu Sans,sans-serif" font-weight="400" font-size="41" transform="matrix(6.12323e-17 -1 1 6.12323e-17 4294.1330367107785 1179.0385665893555)">28-Jul</text>
		</g>
		<g>
			<text fill="#595959" font-family="Verdana,Open Sans,DejaVu Sans,sans-serif" font-weight="400" font-size="41" transform="matrix(1 0 0 1 3135.4482421875 1050)">0%</text>
		</g>
		<g>
			<text fill="#595959" font-family="Verdana,Open Sans,DejaVu Sans,sans-serif" font-weight="400" font-size="41" transform="matrix(1 0 0 1 3111.96533203125 922)">20%</text>
		</g>
		<g>
			<text fill="#595959" font-family="Verdana,Open Sans,DejaVu Sans,sans-serif" font-weight="400" font-size="41" transform="matrix(1 0 0 1 3110.82421875 794)">40%</text>
		</g>
		<g>
			<text fill="#595959" font-family="Verdana,Open Sans,DejaVu Sans,sans-serif" font-weight="400" font-size="41" transform="matrix(1 0 0 1 3112.3056640625 666)">60%</text>
		</g>
		<g>
			<text fill="#595959" font-family="Verdana,Open Sans,DejaVu Sans,sans-serif" font-weight="400" font-size="41" transform="matrix(1 0 0 1 3112.04541015625 538)">80%</text>
		</g>
		<g>
			<text fill="#595959" font-family="Verdana,Open Sans,DejaVu Sans,sans-serif" font-weight="400" font-size="41" transform="matrix(1 0 0 1 3090.2841796875 410)">100%</text>
		</g>
		<g>
			<text fill="#595959" font-family="Verdana,Open Sans,DejaVu Sans,sans-serif" font-weight="400" font-size="41" transform="matrix(1 0 0 1 3556.97119140625 1321)">Week Commencing</text>
		</g>
		<g>
			<text fill="#595959" font-family="Verdana,Open Sans,DejaVu Sans,sans-serif" font-weight="400" font-size="46" transform="matrix(6.12323e-17 -1 1 6.12323e-17 3019.73 936.7665710449219)">Requests (% of Total)</text>
		</g>
		<rect x="2918.5" y="347.5" width="1760" height="1043" stroke="#D9D9D9" stroke-width="3.4375" stroke-linejoin="round" stroke-miterlimit="10" fill="none" />
		<g>
			<path d="M3228.5 1038 3250.295918367347 1038 3272.091836734694 1038 3293.887755102041 1038 3315.683673469388 1038 3337.4795918367345 1038 3359.2755102040815 1038 3381.0714285714284 1038 3402.8673469387754 1038 3424.6632653061224 1038 3446.4591836734694 1038 3468.2551020408164 1038 3490.0510204081634 1038 3511.8469387755104 1038 3533.6428571428573 1038 3555.4387755102043 1038 3577.234693877551 1038 3599.030612244898 1038 3620.826530612245 1038 3642.622448979592 1038 3664.418367346939 1038 3686.214285714286 1038 3708.0102040816328 1038 3729.8061224489797 1038 3751.6020408163267 1038 3773.3979591836733 1038 3795.1938775510203 1038 3816.9897959183672 1038 3838.785714285714 1038 3860.581632653061 1038 3882.377551020408 1038 3904.173469387755 1038 3925.969387755102 1038 3947.765306122449 1038 3969.5612244897957 1038 3991.357142857143 1038 4013.1530612244896 1038 4034.9489795918366 1038 4056.7448979591836 1038 4078.5408163265306 1038 4100.336734693878 1038 4122.132653061224 1038 4143.928571428572 1038 4165.724489795918 1038 4187.5204081632655 1038 4209.316326530612 1038 4231.1122448979595 1038 4252.908163265306 1038 4274.7040816326535 1038 4296.5 1038 4296.5 441.48316478044603 4274.7040816326535 441.484756503997 4252.908163265306 441.489616515065 4231.1122448979595 441.29796426599523 4209.316326530612 441.72595383903854 4187.5204081632655 442.8417422387853 4165.724489795918 442.854171965349 4143.928571428572 442.95845521922934 4122.132653061224 442.9731674669964 4100.336734693878 443.09587998074596 4078.5408163265306 442.9453880046191 4056.7448979591836 442.7539759175269 4034.9489795918366 442.4035157162202 4013.1530612244896 442.11056785584276 3991.357142857143 441.83280494374446 3969.5612244897957 441.70333243098173 3947.765306122449 441.6626940555466 3925.969387755102 441.6573661278967 3904.173469387755 441.5375979828307 3882.377551020408 441.406683369976 3860.581632653061 441.167209213907 3838.785714285714 441.0289316920836 3816.9897959183672 441.03561787240676 3795.1938775510203 441.06205687573333 3773.3979591836733 441.14123809544583 3751.6020408163267 441.04668014176025 3729.8061224489797 441.3325461823914 3708.0102040816328 441.50673382811704 3686.214285714286 441.5263210359809 3664.418367346939 441.5338725099368 3642.622448979592 441.5429030927178 3620.826530612245 441.47417224977323 3599.030612244898 441.4594945700171 3577.234693877551 441.38808556766435 3555.4387755102043 441.3288056085928 3533.6428571428573 441.47308833726333 3511.8469387755104 441.645038932872 3490.0510204081634 441.9852131881347 3468.2551020408164 442.33307896966517 3446.4591836734694 566.5721783366624 3424.6632653061224 567.1308685788513 3402.8673469387754 567.5130485279316 3381.0714285714284 568.0135171374827 3359.2755102040815 568.6966145549849 3337.4795918367345 569.582505337425 3315.683673469388 569.9559975833151 3293.887755102041 570.7071585028136 3272.091836734694 571.2237275515587 3250.295918367347 571.9035338843237 3228.5 572.0631883952817 3228.5 1038Z" fill="#e62d39" opacity="0.9" />
		</g>
		<g>
			<path d="M3228.5 572.0631883952817 3250.295918367347 571.9035338843237 3272.091836734694 571.2237275515587 3293.887755102041 570.7071585028136 3315.683673469388 569.9559975833151 3337.4795918367345 569.582505337425 3359.2755102040815 568.6966145549849 3381.0714285714284 568.0135171374827 3402.8673469387754 567.5130485279316 3424.6632653061224 567.1308685788513 3446.4591836734694 566.5721783366624 3468.2551020408164 442.33307896966517 3490.0510204081634 441.9852131881347 3511.8469387755104 441.645038932872 3533.6428571428573 441.47308833726333 3555.4387755102043 441.3288056085928 3577.234693877551 441.38808556766435 3599.030612244898 441.4594945700171 3620.826530612245 441.47417224977323 3642.622448979592 441.5429030927178 3664.418367346939 441.5338725099368 3686.214285714286 441.5263210359809 3708.0102040816328 441.50673382811704 3729.8061224489797 441.3325461823914 3751.6020408163267 441.04668014176025 3773.3979591836733 441.14123809544583 3795.1938775510203 441.06205687573333 3816.9897959183672 441.03561787240676 3838.785714285714 441.0289316920836 3860.581632653061 441.167209213907 3882.377551020408 441.406683369976 3904.173469387755 441.5375979828307 3925.969387755102 441.6573661278967 3947.765306122449 441.6626940555466 3969.5612244897957 441.70333243098173 3991.357142857143 441.83280494374446 4013.1530612244896 442.11056785584276 4034.9489795918366 442.4035157162202 4056.7448979591836 442.7539759175269 4078.5408163265306 442.9453880046191 4100.336734693878 443.09587998074596 4122.132653061224 442.9731674669964 4143.928571428572 442.95845521922934 4165.724489795918 442.854171965349 4187.5204081632655 442.8417422387853 4209.316326530612 441.72595383903854 4231.1122448979595 441.29796426599523 4252.908163265306 441.489616515065 4274.7040816326535 441.484756503997 4296.5 441.48316478044603 4296.5 397.99999999999994 4274.7040816326535 398 4252.908163265306 398 4231.1122448979595 397.99999999999994 4209.316326530612 398 4187.5204081632655 398 4165.724489795918 397.99999999999994 4143.928571428572 398.00000000000006 4122.132653061224 398 4100.336734693878 398 4078.5408163265306 398.00000000000006 4056.7448979591836 397.99999999999994 4034.9489795918366 398 4013.1530612244896 398.00000000000006 3991.357142857143 398 3969.5612244897957 398 3947.765306122449 398 3925.969387755102 398 3904.173469387755 398.00000000000006 3882.377551020408 398 3860.581632653061 398 3838.785714285714 398 3816.9897959183672 398 3795.1938775510203 397.99999999999994 3773.3979591836733 398 3751.6020408163267 398.00000000000006 3729.8061224489797 397.99999999999994 3708.0102040816328 398.00000000000006 3686.214285714286 398 3664.418367346939 398 3642.622448979592 398 3620.826530612245 398 3599.030612244898 398.00000000000006 3577.234693877551 398 3555.4387755102043 398 3533.6428571428573 398 3511.8469387755104 397.99999999999994 3490.0510204081634 398 3468.2551020408164 398 3446.4591836734694 398 3424.6632653061224 398 3402.8673469387754 398 3381.0714285714284 398 3359.2755102040815 398 3337.4795918367345 398 3315.683673469388 398.00000000000006 3293.887755102041 398 3272.091836734694 398 3250.295918367347 398 3228.5 398.00000000000006 3228.5 572.0631883952817Z" fill="#005aa6" opacity="0.9" />
		</g>
		<g>
			<rect x="4372" y="431" width="22.9995" height="23" fill="#e62d39" />
		</g>
		<g>
			<text fill="#595959" font-family="Verdana,Open Sans,DejaVu Sans,sans-serif" font-weight="400" font-size="41" transform="matrix(1 0 0 1 4404.56 454)">Non-Crawler</text>
		</g>
		<g>
			<rect x="4372" y="508" width="22.9995" height="23" fill="#005aa6" />
		</g>
		<g>
			<text fill="#595959" font-family="Verdana,Open Sans,DejaVu Sans,sans-serif" font-weight="400" font-size="41" transform="matrix(1 0 0 1 4404.56 531)">Crawler</text>
		</g>
	</g>
</svg>
