<svg width="1763" height="1046"
    xmlns="http://www.w3.org/2000/svg"
	xmlns:xlink="http://www.w3.org/1999/xlink" xml:space="preserve" overflow="hidden">
	<defs>
		<clipPath id="clip0">
			<rect x="2917" y="346" width="1763" height="1046"/>
		</clipPath>
	</defs>
	<g clip-path="url(#clip0)" transform="translate(-2917 -346)">
		<rect x="2918" y="347" width="1760" height="1043" fill="#FFFFFF" />
		<g>
			<path d="
			M3228.5 974.532 4296.5 974.532
			M3228.5 910.53 4296.5 910.53
			M3228.5 846.528 4296.5 846.528
			M3228.5 781.526 4296.5 781.526
			M3228.5 717.524 4296.5 717.524
			M3228.5 653.522 4296.5 653.522
			M3228.5 589.52 4296.5 589.52
			M3228.5 525.517 4296.5 525.517
			M3228.5 461.515 4296.5 461.515
			M3228.5 397.5 4296.5 397.5" stroke="#D9D9D9" stroke-width="3.4375" stroke-linejoin="round" stroke-miterlimit="10" fill="none" />
		</g>
		<g>
			<path d="M 1038.5 4296.5 1038.5" stroke="#D9D9D9" stroke-width="3.4375" stroke-linejoin="round" stroke-miterlimit="10" fill="none" fill-rule="evenodd" />
		</g>
		<g>
			<text fill="#595959" font-family="Verdana,sans-serif" font-weight="400" font-size="41" transform="matrix(6.12323e-17 -1 1 6.12323e-17 3244.5 1225)">06-Nov</text>
		</g>
		<g>
			<text fill="#595959" font-family="Verdana,sans-serif" font-weight="400" font-size="41" transform="matrix(6.12323e-17 -1 1 6.12323e-17 3348.6951219512193 1223)">04-Dec</text>
		</g>
		<g>
			<text fill="#595959" font-family="Verdana,sans-serif" font-weight="400" font-size="41" transform="matrix(6.12323e-17 -1 1 6.12323e-17 3452.890243902439 1210)">01-Jan</text>
		</g>
		<g>
			<text fill="#595959" font-family="Verdana,sans-serif" font-weight="400" font-size="41" transform="matrix(6.12323e-17 -1 1 6.12323e-17 3557.0853658536585 1210)">29-Jan</text>
		</g>
		<g>
			<text fill="#595959" font-family="Verdana,sans-serif" font-weight="400" font-size="41" transform="matrix(6.12323e-17 -1 1 6.12323e-17 3661.2804878048782 1216)">26-Feb</text>
		</g>
		<g>
			<text fill="#595959" font-family="Verdana,sans-serif" font-weight="400" font-size="41" transform="matrix(6.12323e-17 -1 1 6.12323e-17 3765.4756097560976 1223)">25-Mar</text>
		</g>
		<g>
			<text fill="#595959" font-family="Verdana,sans-serif" font-weight="400" font-size="41" transform="matrix(6.12323e-17 -1 1 6.12323e-17 3873.170731707317 1216)">22-Apr</text>
		</g>
		<g>
			<text fill="#595959" font-family="Verdana,sans-serif" font-weight="400" font-size="41" transform="matrix(6.12323e-17 -1 1 6.12323e-17 3977.3658536585363 1228)">20-May</text>
		</g>
		<g>
			<text fill="#595959" font-family="Verdana,sans-serif" font-weight="400" font-size="41" transform="matrix(6.12323e-17 -1 1 6.12323e-17 4077.560975609756 1209)">17-Jun</text>
		</g>
		<g>
			<text fill="#595959" font-family="Verdana,sans-serif" font-weight="400" font-size="41" transform="matrix(6.12323e-17 -1 1 6.12323e-17 4182.256097560976 1194)">15-Jul</text>
		</g>
		<g>
			<text fill="#595959" font-family="Verdana,sans-serif" font-weight="400" font-size="41" transform="matrix(6.12323e-17 -1 1 6.12323e-17 4289.951219512195 1218)">12-Aug</text>
		</g>
		<g>
			<text fill="#595959" font-family="Verdana,sans-serif" font-weight="400" font-size="41" transform="matrix(1 0 0 1 3167.5 1050)">0</text>
		</g>
		<g>
			<text fill="#595959" font-family="Verdana,sans-serif" font-weight="400" font-size="41" transform="matrix(1 0 0 1 3141.5 922)">54</text>
		</g>
		<g>
			<text fill="#595959" font-family="Verdana,sans-serif" font-weight="400" font-size="41" transform="matrix(1 0 0 1 3117.5 794)">107</text>
		</g>
		<g>
			<text fill="#595959" font-family="Verdana,sans-serif" font-weight="400" font-size="41" transform="matrix(1 0 0 1 3119.5 666)">161</text>
		</g>
		<g>
			<text fill="#595959" font-family="Verdana,sans-serif" font-weight="400" font-size="41" transform="matrix(1 0 0 1 3115.5 538)">214</text>
		</g>
		<g>
			<text fill="#595959" font-family="Verdana,sans-serif" font-weight="400" font-size="41" transform="matrix(1 0 0 1 3115.5 410)">268</text>
		</g>
		<g>
			<text fill="#595959" font-family="Verdana,sans-serif" font-weight="400" font-size="41" transform="matrix(1 0 0 1 3544.5 1321)">Week Commencing</text>
		</g>
		<g>
			<text fill="#595959" font-family="Verdana,sans-serif" font-weight="400" font-size="46" transform="matrix(6.12323e-17 -1 1 6.12323e-17 3019.73 1024.75)">Number of Crawler Profiles</text>
		</g>
		<rect x="2918.5" y="347.5" width="1760" height="1043" stroke="#D9D9D9" stroke-width="3.4375" stroke-linejoin="round" stroke-miterlimit="10" fill="none" />
		<g>
			<path d="M3228.5 1038 3254.548780487805 1038 3280.5975609756097 1038 3306.6463414634145 1038 3332.6951219512193 1038 3358.743902439024 1038 3384.7926829268295 1038 3410.8414634146343 1038 3436.890243902439 1038 3462.939024390244 1038 3488.987804878049 1038 3515.0365853658536 1038 3541.0853658536585 1038 3567.1341463414633 1038 3593.182926829268 1038 3619.231707317073 1038 3645.2804878048782 1038 3671.329268292683 1038 3697.378048780488 1038 3723.4268292682927 1038 3749.4756097560976 1038 3775.5243902439024 1038 3801.5731707317073 1038 3827.621951219512 1038 3853.670731707317 1038 3879.7195121951218 1038 3905.7682926829266 1038 3931.8170731707314 1038 3957.8658536585363 1038 3983.9146341463415 1038 4009.9634146341464 1038 4036.012195121951 1038 4062.060975609756 1038 4088.109756097561 1038 4114.158536585366 1038 4140.207317073171 1038 4166.256097560976 1038 4192.304878048781 1038 4218.3536585365855 1038 4244.40243902439 1038 4270.451219512195 1038 4296.5 1038 4296.5 400.3880597014926 4270.451219512195 405.1641791044776 4244.40243902439 405.1641791044776 4218.3536585365855 407.5522388059702 4192.304878048781 409.9402985074628 4166.256097560976 419.4925373134329 4140.207317073171 426.6567164179105 4114.158536585366 436.2089552238806 4088.109756097561 443.3731343283582 4062.060975609756 455.313432835821 4036.012195121951 460.08955223880605 4009.9634146341464 460.08955223880605 3983.9146341463415 460.08955223880605 3957.8658536585363 462.4776119402985 3931.8170731707314 467.2537313432837 3905.7682926829266 476.80597014925377 3879.7195121951218 481.5820895522388 3853.670731707317 483.9701492537314 3827.621951219512 483.9701492537314 3801.5731707317073 493.5223880597016 3775.5243902439024 493.5223880597016 3749.4756097560976 505.46268656716427 3723.4268292682927 529.3432835820896 3697.378048780488 534.1194029850747 3671.329268292683 538.8955223880598 3645.2804878048782 550.8358208955224 3619.231707317073 553.223880597015 3593.182926829268 553.223880597015 3567.1341463414633 555.6119402985075 3541.0853658536585 560.3880597014926 3515.0365853658536 572.3283582089553 3488.987804878049 574.7164179104478 3462.939024390244 574.7164179104478 3436.890243902439 579.4925373134329 3410.8414634146343 579.4925373134329 3384.7926829268295 579.4925373134329 3358.743902439024 579.4925373134329 3332.6951219512193 579.4925373134329 3306.6463414634145 581.8805970149253 3280.5975609756097 581.8805970149253 3254.548780487805 581.8805970149253 3228.5 581.8805970149253 3228.5 1038Z" fill="#005aa6" opacity="0.9" />
		</g>
		<g>
			<path d="M3228.5 581.8805970149253 3254.548780487805 581.8805970149253 3280.5975609756097 581.8805970149253 3306.6463414634145 581.8805970149253 3332.6951219512193 579.4925373134329 3358.743902439024 579.4925373134329 3384.7926829268295 579.4925373134329 3410.8414634146343 579.4925373134329 3436.890243902439 579.4925373134329 3462.939024390244 574.7164179104478 3488.987804878049 574.7164179104478 3515.0365853658536 572.3283582089553 3541.0853658536585 560.3880597014926 3567.1341463414633 555.6119402985075 3593.182926829268 553.223880597015 3619.231707317073 553.223880597015 3645.2804878048782 550.8358208955224 3671.329268292683 538.8955223880598 3697.378048780488 534.1194029850747 3723.4268292682927 529.3432835820896 3749.4756097560976 505.46268656716427 3775.5243902439024 493.5223880597016 3801.5731707317073 493.5223880597016 3827.621951219512 483.9701492537314 3853.670731707317 483.9701492537314 3879.7195121951218 481.5820895522388 3905.7682926829266 476.80597014925377 3931.8170731707314 467.2537313432837 3957.8658536585363 462.4776119402985 3983.9146341463415 460.08955223880605 4009.9634146341464 460.08955223880605 4036.012195121951 460.08955223880605 4062.060975609756 455.313432835821 4088.109756097561 443.3731343283582 4114.158536585366 436.2089552238806 4140.207317073171 426.6567164179105 4166.256097560976 419.4925373134329 4192.304878048781 409.9402985074628 4218.3536585365855 407.5522388059702 4244.40243902439 405.1641791044776 4270.451219512195 405.1641791044776 4296.5 400.3880597014926 4296.5 398.00000000000006 4270.451219512195 402.7761194029851 4244.40243902439 402.7761194029851 4218.3536585365855 405.1641791044777 4192.304878048781 407.55223880597026 4166.256097560976 417.10447761194035 4140.207317073171 424.268656716418 4114.158536585366 433.82089552238807 4088.109756097561 440.9850746268657 4062.060975609756 452.9253731343285 4036.012195121951 457.7014925373135 4009.9634146341464 457.7014925373135 3983.9146341463415 457.7014925373135 3957.8658536585363 460.089552238806 3931.8170731707314 464.86567164179115 3905.7682926829266 474.41791044776124 3879.7195121951218 479.1940298507463 3853.670731707317 481.58208955223887 3827.621951219512 481.58208955223887 3801.5731707317073 491.1343283582091 3775.5243902439024 491.1343283582091 3749.4756097560976 503.07462686567175 3723.4268292682927 526.955223880597 3697.378048780488 531.7313432835821 3671.329268292683 536.5074626865672 3645.2804878048782 548.4477611940298 3619.231707317073 550.8358208955224 3593.182926829268 550.8358208955224 3567.1341463414633 553.223880597015 3541.0853658536585 558 3515.0365853658536 569.9402985074627 3488.987804878049 572.3283582089553 3462.939024390244 572.3283582089553 3436.890243902439 577.1044776119403 3410.8414634146343 577.1044776119403 3384.7926829268295 577.1044776119403 3358.743902439024 577.1044776119403 3332.6951219512193 577.1044776119403 3306.6463414634145 579.4925373134328 3280.5975609756097 579.4925373134328 3254.548780487805 579.4925373134328 3228.5 579.4925373134328 3228.5 581.8805970149253Z" fill="#e62d39" opacity="0.9" />
		</g>
		<g>
			<rect x="4372" y="431" width="22.9995" height="23" fill="#005aa6" />
		</g>
		<g>
			<text fill="#595959" font-family="Verdana,sans-serif" font-weight="400" font-size="41" transform="matrix(1 0 0 1 4404.56 454)">Crawler</text>
		</g>
		<g>
			<rect x="4372" y="508" width="22.9995" height="23" fill="#e62d39" />
		</g>
		<g>
			<text fill="#595959" font-family="Verdana,sans-serif" font-weight="400" font-size="41" transform="matrix(1 0 0 1 4404.56 531)">Non-Crawler</text>
		</g>
	</g>
</svg>
