<svg width="1763" height="1046"
    xmlns="http://www.w3.org/2000/svg"
	xmlns:xlink="http://www.w3.org/1999/xlink" xml:space="preserve" overflow="hidden">
	<defs>
		<clipPath id="clip0">
			<rect x="2917" y="346" width="1763" height="1046"/>
		</clipPath>
	</defs>
	<g clip-path="url(#clip0)" transform="translate(-2917 -346)">
		<rect x="2918" y="347" width="1760" height="1043" fill="#FFFFFF" />
		<g>
			<path d="
			M3228.5 974.532 4296.5 974.532
			M3228.5 910.53 4296.5 910.53
			M3228.5 846.528 4296.5 846.528
			M3228.5 781.526 4296.5 781.526
			M3228.5 717.524 4296.5 717.524
			M3228.5 653.522 4296.5 653.522
			M3228.5 589.52 4296.5 589.52
			M3228.5 525.517 4296.5 525.517
			M3228.5 461.515 4296.5 461.515
			M3228.5 397.5 4296.5 397.5" stroke="#D9D9D9" stroke-width="3.4375" stroke-linejoin="round" stroke-miterlimit="10" fill="none" />
		</g>
		<g>
			<path d="M 1038.5 4296.5 1038.5" stroke="#D9D9D9" stroke-width="3.4375" stroke-linejoin="round" stroke-miterlimit="10" fill="none" fill-rule="evenodd" />
		</g>
		<g>
			<text fill="#595959" font-family="Verdana,sans-serif" font-weight="400" font-size="41" transform="matrix(6.12323e-17 -1 1 6.12323e-17 3244.5 1225)">06-Nov</text>
		</g>
		<g>
			<text fill="#595959" font-family="Verdana,sans-serif" font-weight="400" font-size="41" transform="matrix(6.12323e-17 -1 1 6.12323e-17 3343.8488372093025 1223)">04-Dec</text>
		</g>
		<g>
			<text fill="#595959" font-family="Verdana,sans-serif" font-weight="400" font-size="41" transform="matrix(6.12323e-17 -1 1 6.12323e-17 3443.1976744186045 1210)">01-Jan</text>
		</g>
		<g>
			<text fill="#595959" font-family="Verdana,sans-serif" font-weight="400" font-size="41" transform="matrix(6.12323e-17 -1 1 6.12323e-17 3542.546511627907 1210)">29-Jan</text>
		</g>
		<g>
			<text fill="#595959" font-family="Verdana,sans-serif" font-weight="400" font-size="41" transform="matrix(6.12323e-17 -1 1 6.12323e-17 3641.8953488372094 1216)">26-Feb</text>
		</g>
		<g>
			<text fill="#595959" font-family="Verdana,sans-serif" font-weight="400" font-size="41" transform="matrix(6.12323e-17 -1 1 6.12323e-17 3741.2441860465115 1223)">25-Mar</text>
		</g>
		<g>
			<text fill="#595959" font-family="Verdana,sans-serif" font-weight="400" font-size="41" transform="matrix(6.12323e-17 -1 1 6.12323e-17 3844.093023255814 1216)">22-Apr</text>
		</g>
		<g>
			<text fill="#595959" font-family="Verdana,sans-serif" font-weight="400" font-size="41" transform="matrix(6.12323e-17 -1 1 6.12323e-17 3943.4418604651164 1228)">20-May</text>
		</g>
		<g>
			<text fill="#595959" font-family="Verdana,sans-serif" font-weight="400" font-size="41" transform="matrix(6.12323e-17 -1 1 6.12323e-17 4038.790697674419 1209)">17-Jun</text>
		</g>
		<g>
			<text fill="#595959" font-family="Verdana,sans-serif" font-weight="400" font-size="41" transform="matrix(6.12323e-17 -1 1 6.12323e-17 4138.639534883721 1194)">15-Jul</text>
		</g>
		<g>
			<text fill="#595959" font-family="Verdana,sans-serif" font-weight="400" font-size="41" transform="matrix(6.12323e-17 -1 1 6.12323e-17 4241.488372093023 1218)">12-Aug</text>
		</g>
		<g>
			<text fill="#595959" font-family="Verdana,sans-serif" font-weight="400" font-size="41" transform="matrix(1 0 0 1 3123.5 1050)">0%</text>
		</g>
		<g>
			<text fill="#595959" font-family="Verdana,sans-serif" font-weight="400" font-size="41" transform="matrix(1 0 0 1 3097.5 922)">20%</text>
		</g>
		<g>
			<text fill="#595959" font-family="Verdana,sans-serif" font-weight="400" font-size="41" transform="matrix(1 0 0 1 3096.5 794)">40%</text>
		</g>
		<g>
			<text fill="#595959" font-family="Verdana,sans-serif" font-weight="400" font-size="41" transform="matrix(1 0 0 1 3097.5 666)">60%</text>
		</g>
		<g>
			<text fill="#595959" font-family="Verdana,sans-serif" font-weight="400" font-size="41" transform="matrix(1 0 0 1 3097.5 538)">80%</text>
		</g>
		<g>
			<text fill="#595959" font-family="Verdana,sans-serif" font-weight="400" font-size="41" transform="matrix(1 0 0 1 3074.5 410)">100%</text>
		</g>
		<g>
			<text fill="#595959" font-family="Verdana,sans-serif" font-weight="400" font-size="41" transform="matrix(1 0 0 1 3544.5 1321)">Week Commencing</text>
		</g>
		<g>
			<text fill="#595959" font-family="Verdana,sans-serif" font-weight="400" font-size="46" transform="matrix(6.12323e-17 -1 1 6.12323e-17 3019.73 965.25)">Requests (% of Total)</text>
		</g>
		<rect x="2918.5" y="347.5" width="1760" height="1043" stroke="#D9D9D9" stroke-width="3.4375" stroke-linejoin="round" stroke-miterlimit="10" fill="none" />
		<g>
			<path d="M3228.5 1038 3253.3372093023254 1038 3278.1744186046512 1038 3303.0116279069766 1038 3327.8488372093025 1038 3352.686046511628 1038 3377.5232558139533 1038 3402.360465116279 1038 3427.1976744186045 1038 3452.0348837209303 1038 3476.8720930232557 1038 3501.7093023255816 1038 3526.546511627907 1038 3551.383720930233 1038 3576.220930232558 1038 3601.0581395348836 1038 3625.8953488372094 1038 3650.732558139535 1038 3675.5697674418607 1038 3700.406976744186 1038 3725.2441860465115 1038 3750.0813953488373 1038 3774.9186046511627 1038 3799.7558139534885 1038 3824.593023255814 1038 3849.4302325581393 1038 3874.267441860465 1038 3899.104651162791 1038 3923.9418604651164 1038 3948.779069767442 1038 3973.6162790697676 1038 3998.453488372093 1038 4023.290697674419 1038 4048.1279069767443 1038 4072.9651162790697 1038 4097.802325581395 1038 4122.639534883721 1038 4147.476744186047 1038 4172.313953488372 1038 4197.1511627906975 1038 4221.988372093023 1038 4246.825581395349 1038 4271.662790697675 1038 4296.5 1038 4296.5 570.7071585028136 4271.662790697675 571.2237275515587 4246.825581395349 571.9035338843237 4221.988372093023 572.0631883952817 4197.1511627906975 572.5486893796854 4172.313953488372 572.9112818795618 4147.476744186047 572.7332415748011 4122.639534883721 572.862060937991 4097.802325581395 572.9365512268143 4072.9651162790697 572.8940388940463 4048.1279069767443 572.4651830343407 4023.290697674419 572.6325422225004 3998.453488372093 571.5082651331143 3973.6162790697676 572.2322344669446 3948.779069767442 572.7455283998808 3923.9418604651164 573.7260592446937 3899.104651162791 574.7878423335366 3874.267441860465 575.6290427379265 3849.4302325581393 575.9687876322813 3824.593023255814 576.8727971406818 3799.7558139534885 578.2473295586981 3774.9186046511627 579.8301495425726 3750.0813953488373 581.4258071436993 3725.2441860465115 583.4353029706369 3700.406976744186 585.2297796683877 3675.5697674418607 569.3763139485983 3650.732558139535 569.4920790789085 3625.8953488372094 568.4210223578364 3601.0581395348836 567.328661211755 3576.220930232558 566.161104092279 3551.383720930233 566.5630760901624 3526.546511627907 566.9371867374394 3501.7093023255816 565.7434322908556 3476.8720930232557 565.3329344965637 3452.0348837209303 567.1306424721515 3427.1976744186045 546.6361313386333 3402.360465116279 547.2360643741254 3377.5232558139533 547.9846296844262 3352.686046511628 551.0672526834712 3327.8488372093025 550.9210452859504 3303.0116279069766 550.9050574683862 3278.1744186046512 550.8533354714161 3253.3372093023254 550.7560734149703 3228.5 551.2665692392751 3228.5 1038Z" fill="#e62d39" opacity="0.9" />
		</g>
		<g>
			<path d="M3228.5 551.2665692392751 3253.3372093023254 550.7560734149703 3278.1744186046512 550.8533354714161 3303.0116279069766 550.9050574683862 3327.8488372093025 550.9210452859504 3352.686046511628 551.0672526834712 3377.5232558139533 547.9846296844262 3402.360465116279 547.2360643741254 3427.1976744186045 546.6361313386333 3452.0348837209303 567.1306424721515 3476.8720930232557 565.3329344965637 3501.7093023255816 565.7434322908556 3526.546511627907 566.9371867374394 3551.383720930233 566.5630760901624 3576.220930232558 566.161104092279 3601.0581395348836 567.328661211755 3625.8953488372094 568.4210223578364 3650.732558139535 569.4920790789085 3675.5697674418607 569.3763139485983 3700.406976744186 585.2297796683877 3725.2441860465115 583.4353029706369 3750.0813953488373 581.4258071436993 3774.9186046511627 579.8301495425726 3799.7558139534885 578.2473295586981 3824.593023255814 576.8727971406818 3849.4302325581393 575.9687876322813 3874.267441860465 575.6290427379265 3899.104651162791 574.7878423335366 3923.9418604651164 573.7260592446937 3948.779069767442 572.7455283998808 3973.6162790697676 572.2322344669446 3998.453488372093 571.5082651331143 4023.290697674419 572.6325422225004 4048.1279069767443 572.4651830343407 4072.9651162790697 572.8940388940463 4097.802325581395 572.9365512268143 4122.639534883721 572.862060937991 4147.476744186047 572.7332415748011 4172.313953488372 572.9112818795618 4197.1511627906975 572.5486893796854 4221.988372093023 572.0631883952817 4246.825581395349 571.9035338843237 4271.662790697675 571.2237275515587 4296.5 570.7071585028136 4296.5 398 4271.662790697675 398 4246.825581395349 398 4221.988372093023 398.00000000000006 4197.1511627906975 398 4172.313953488372 397.99999999999994 4147.476744186047 398 4122.639534883721 397.99999999999994 4097.802325581395 398.00000000000006 4072.9651162790697 398 4048.1279069767443 398 4023.290697674419 398 3998.453488372093 397.99999999999994 3973.6162790697676 398.0000000000001 3948.779069767442 398 3923.9418604651164 398 3899.104651162791 398.00000000000006 3874.267441860465 398 3849.4302325581393 398 3824.593023255814 397.99999999999994 3799.7558139534885 397.99999999999994 3774.9186046511627 398.0000000000001 3750.0813953488373 398 3725.2441860465115 398 3700.406976744186 398 3675.5697674418607 398 3650.732558139535 398.00000000000006 3625.8953488372094 398.00000000000006 3601.0581395348836 398 3576.220930232558 398.00000000000006 3551.383720930233 397.99999999999994 3526.546511627907 398 3501.7093023255816 398 3476.8720930232557 397.99999999999994 3452.0348837209303 398.00000000000006 3427.1976744186045 398 3402.360465116279 398.0000000000001 3377.5232558139533 398 3352.686046511628 398 3327.8488372093025 398 3303.0116279069766 398 3278.1744186046512 398 3253.3372093023254 398 3228.5 398 3228.5 551.2665692392751Z" fill="#005aa6" opacity="0.9" />
		</g>
		<g>
			<rect x="4372" y="431" width="22.9995" height="23" fill="#e62d39" />
		</g>
		<g>
			<text fill="#595959" font-family="Verdana,sans-serif" font-weight="400" font-size="41" transform="matrix(1 0 0 1 4404.56 454)">Non-Crawler</text>
		</g>
		<g>
			<rect x="4372" y="508" width="22.9995" height="23" fill="#005aa6" />
		</g>
		<g>
			<text fill="#595959" font-family="Verdana,sans-serif" font-weight="400" font-size="41" transform="matrix(1 0 0 1 4404.56 531)">Crawler</text>
		</g>
	</g>
</svg>
