<svg width="1763" height="1046"
    xmlns="http://www.w3.org/2000/svg"
	xmlns:xlink="http://www.w3.org/1999/xlink" xml:space="preserve" overflow="hidden">
	<defs>
		<clipPath id="clip0">
			<rect x="2917" y="346" width="1763" height="1046"/>
		</clipPath>
	</defs>
	<g clip-path="url(#clip0)" transform="translate(-2917 -346)">
		<rect x="2918" y="347" width="1760" height="1043" fill="#FFFFFF" />
		<g>
			<path d="
			M3228.5 974.532 4296.5 974.532
			M3228.5 910.53 4296.5 910.53
			M3228.5 846.528 4296.5 846.528
			M3228.5 781.526 4296.5 781.526
			M3228.5 717.524 4296.5 717.524
			M3228.5 653.522 4296.5 653.522
			M3228.5 589.52 4296.5 589.52
			M3228.5 525.517 4296.5 525.517
			M3228.5 461.515 4296.5 461.515
			M3228.5 397.5 4296.5 397.5" stroke="#D9D9D9" stroke-width="3.4375" stroke-linejoin="round" stroke-miterlimit="10" fill="none" />
		</g>
		<g>
			<path d="M 1038.5 4296.5 1038.5" stroke="#D9D9D9" stroke-width="3.4375" stroke-linejoin="round" stroke-miterlimit="10" fill="none" fill-rule="evenodd" />
		</g>
		<g>
			<text fill="#595959" font-family="Verdana,sans-serif" font-weight="400" font-size="41" transform="matrix(6.12323e-17 -1 1 6.12323e-17 3244.5 1225)">06-Nov</text>
		</g>
		<g>
			<text fill="#595959" font-family="Verdana,sans-serif" font-weight="400" font-size="41" transform="matrix(6.12323e-17 -1 1 6.12323e-17 3351.3 1223)">04-Dec</text>
		</g>
		<g>
			<text fill="#595959" font-family="Verdana,sans-serif" font-weight="400" font-size="41" transform="matrix(6.12323e-17 -1 1 6.12323e-17 3458.1 1210)">01-Jan</text>
		</g>
		<g>
			<text fill="#595959" font-family="Verdana,sans-serif" font-weight="400" font-size="41" transform="matrix(6.12323e-17 -1 1 6.12323e-17 3564.9 1210)">29-Jan</text>
		</g>
		<g>
			<text fill="#595959" font-family="Verdana,sans-serif" font-weight="400" font-size="41" transform="matrix(6.12323e-17 -1 1 6.12323e-17 3671.7 1216)">26-Feb</text>
		</g>
		<g>
			<text fill="#595959" font-family="Verdana,sans-serif" font-weight="400" font-size="41" transform="matrix(6.12323e-17 -1 1 6.12323e-17 3778.5 1223)">25-Mar</text>
		</g>
		<g>
			<text fill="#595959" font-family="Verdana,sans-serif" font-weight="400" font-size="41" transform="matrix(6.12323e-17 -1 1 6.12323e-17 3888.8 1216)">22-Apr</text>
		</g>
		<g>
			<text fill="#595959" font-family="Verdana,sans-serif" font-weight="400" font-size="41" transform="matrix(6.12323e-17 -1 1 6.12323e-17 3995.6 1228)">20-May</text>
		</g>
		<g>
			<text fill="#595959" font-family="Verdana,sans-serif" font-weight="400" font-size="41" transform="matrix(6.12323e-17 -1 1 6.12323e-17 4098.4 1209)">17-Jun</text>
		</g>
		<g>
			<text fill="#595959" font-family="Verdana,sans-serif" font-weight="400" font-size="41" transform="matrix(6.12323e-17 -1 1 6.12323e-17 4205.7 1194)">15-Jul</text>
		</g>
		<g>
			<text fill="#595959" font-family="Verdana,sans-serif" font-weight="400" font-size="41" transform="matrix(6.12323e-17 -1 1 6.12323e-17 4316 1218)">12-Aug</text>
		</g>
		<g>
			<text fill="#595959" font-family="Verdana,sans-serif" font-weight="400" font-size="41" transform="matrix(1 0 0 1 3123.5 1050)">0%</text>
		</g>
		<g>
			<text fill="#595959" font-family="Verdana,sans-serif" font-weight="400" font-size="41" transform="matrix(1 0 0 1 3097.5 922)">20%</text>
		</g>
		<g>
			<text fill="#595959" font-family="Verdana,sans-serif" font-weight="400" font-size="41" transform="matrix(1 0 0 1 3096.5 794)">40%</text>
		</g>
		<g>
			<text fill="#595959" font-family="Verdana,sans-serif" font-weight="400" font-size="41" transform="matrix(1 0 0 1 3097.5 666)">60%</text>
		</g>
		<g>
			<text fill="#595959" font-family="Verdana,sans-serif" font-weight="400" font-size="41" transform="matrix(1 0 0 1 3097.5 538)">80%</text>
		</g>
		<g>
			<text fill="#595959" font-family="Verdana,sans-serif" font-weight="400" font-size="41" transform="matrix(1 0 0 1 3074.5 410)">100%</text>
		</g>
		<g>
			<text fill="#595959" font-family="Verdana,sans-serif" font-weight="400" font-size="41" transform="matrix(1 0 0 1 3544.5 1321)">Week Commencing</text>
		</g>
		<g>
			<text fill="#595959" font-family="Verdana,sans-serif" font-weight="400" font-size="46" transform="matrix(6.12323e-17 -1 1 6.12323e-17 3019.73 965.25)">Requests (% of Total)</text>
		</g>
		<rect x="2918.5" y="347.5" width="1760" height="1043" stroke="#D9D9D9" stroke-width="3.4375" stroke-linejoin="round" stroke-miterlimit="10" fill="none" />
		<g>
			<path d="M3228.5 1038 3255.2 1038 3281.9 1038 3308.6 1038 3335.3 1038 3362 1038 3388.7 1038 3415.4 1038 3442.1 1038 3468.8 1038 3495.5 1038 3522.2 1038 3548.9 1038 3575.6 1038 3602.3 1038 3629 1038 3655.7 1038 3682.4 1038 3709.1 1038 3735.8 1038 3762.5 1038 3789.2 1038 3815.9 1038 3842.6 1038 3869.3 1038 3896 1038 3922.7 1038 3949.4 1038 3976.1 1038 4002.8 1038 4029.5 1038 4056.2 1038 4082.9 1038 4109.6 1038 4136.3 1038 4163 1038 4189.7 1038 4216.4 1038 4243.1 1038 4269.8 1038 4296.5 1038 4296.5 572.0631883952817 4269.8 572.5486893796854 4243.1 572.9112818795618 4216.4 572.7332415748011 4189.7 572.862060937991 4163 572.9365512268143 4136.3 572.8940388940463 4109.6 572.4651830343407 4082.9 572.6325422225004 4056.2 571.5082651331143 4029.5 572.2322344669446 4002.8 572.7455283998808 3976.1 573.7260592446937 3949.4 574.7878423335366 3922.7 575.6290427379265 3896 575.9687876322813 3869.3 576.8727971406818 3842.6 578.2473295586981 3815.9 579.8301495425726 3789.2 581.4258071436993 3762.5 583.4353029706369 3735.8 585.2297796683877 3709.1 569.3763139485983 3682.4 569.4920790789085 3655.7 568.4210223578364 3629 567.328661211755 3602.3 566.161104092279 3575.6 566.5630760901624 3548.9 566.9371867374394 3522.2 565.7434322908556 3495.5 565.3329344965637 3468.8 567.1306424721515 3442.1 546.6361313386333 3415.4 547.2360643741254 3388.7 547.9846296844262 3362 551.0672526834712 3335.3 550.9210452859504 3308.6 550.9050574683862 3281.9 550.8533354714161 3255.2 550.7560734149703 3228.5 551.2665692392751 3228.5 1038Z" fill="#e62d39" opacity="0.9" />
		</g>
		<g>
			<path d="M3228.5 551.2665692392751 3255.2 550.7560734149703 3281.9 550.8533354714161 3308.6 550.9050574683862 3335.3 550.9210452859504 3362 551.0672526834712 3388.7 547.9846296844262 3415.4 547.2360643741254 3442.1 546.6361313386333 3468.8 567.1306424721515 3495.5 565.3329344965637 3522.2 565.7434322908556 3548.9 566.9371867374394 3575.6 566.5630760901624 3602.3 566.161104092279 3629 567.328661211755 3655.7 568.4210223578364 3682.4 569.4920790789085 3709.1 569.3763139485983 3735.8 585.2297796683877 3762.5 583.4353029706369 3789.2 581.4258071436993 3815.9 579.8301495425726 3842.6 578.2473295586981 3869.3 576.8727971406818 3896 575.9687876322813 3922.7 575.6290427379265 3949.4 574.7878423335366 3976.1 573.7260592446937 4002.8 572.7455283998808 4029.5 572.2322344669446 4056.2 571.5082651331143 4082.9 572.6325422225004 4109.6 572.4651830343407 4136.3 572.8940388940463 4163 572.9365512268143 4189.7 572.862060937991 4216.4 572.7332415748011 4243.1 572.9112818795618 4269.8 572.5486893796854 4296.5 572.0631883952817 4296.5 398.00000000000006 4269.8 398 4243.1 397.99999999999994 4216.4 398 4189.7 397.99999999999994 4163 398.00000000000006 4136.3 398 4109.6 398 4082.9 398 4056.2 397.99999999999994 4029.5 398.0000000000001 4002.8 398 3976.1 398 3949.4 398.00000000000006 3922.7 398 3896 398 3869.3 397.99999999999994 3842.6 397.99999999999994 3815.9 398.0000000000001 3789.2 398 3762.5 398 3735.8 398 3709.1 398 3682.4 398.00000000000006 3655.7 398.00000000000006 3629 398 3602.3 398.00000000000006 3575.6 397.99999999999994 3548.9 398 3522.2 398 3495.5 397.99999999999994 3468.8 398.00000000000006 3442.1 398 3415.4 398.0000000000001 3388.7 398 3362 398 3335.3 398 3308.6 398 3281.9 398 3255.2 398 3228.5 398 3228.5 551.2665692392751Z" fill="#005aa6" opacity="0.9" />
		</g>
		<g>
			<rect x="4372" y="431" width="22.9995" height="23" fill="#e62d39" />
		</g>
		<g>
			<text fill="#595959" font-family="Verdana,sans-serif" font-weight="400" font-size="41" transform="matrix(1 0 0 1 4404.56 454)">Non-Crawler</text>
		</g>
		<g>
			<rect x="4372" y="508" width="22.9995" height="23" fill="#005aa6" />
		</g>
		<g>
			<text fill="#595959" font-family="Verdana,sans-serif" font-weight="400" font-size="41" transform="matrix(1 0 0 1 4404.56 531)">Crawler</text>
		</g>
	</g>
</svg>
