<svg width="1763" height="1046"
    xmlns="http://www.w3.org/2000/svg"
	xmlns:xlink="http://www.w3.org/1999/xlink" xml:space="preserve" overflow="hidden">
	<defs>
		<clipPath id="clip0">
			<rect x="2917" y="346" width="1763" height="1046"/>
		</clipPath>
	</defs>
	<g clip-path="url(#clip0)" transform="translate(-2917 -346)">
		<rect x="2918" y="347" width="1760" height="1043" fill="#FFFFFF" />
		<g>
			<path d="
			M3228.5 974.532 4296.5 974.532
			M3228.5 910.53 4296.5 910.53
			M3228.5 846.528 4296.5 846.528
			M3228.5 781.526 4296.5 781.526
			M3228.5 717.524 4296.5 717.524
			M3228.5 653.522 4296.5 653.522
			M3228.5 589.52 4296.5 589.52
			M3228.5 525.517 4296.5 525.517
			M3228.5 461.515 4296.5 461.515
			M3228.5 397.5 4296.5 397.5" stroke="#D9D9D9" stroke-width="3.4375" stroke-linejoin="round" stroke-miterlimit="10" fill="none" />
		</g>
		<g>
			<path d="M 1038.5 4296.5 1038.5" stroke="#D9D9D9" stroke-width="3.4375" stroke-linejoin="round" stroke-miterlimit="10" fill="none" fill-rule="evenodd" />
		</g>
		<g>
			<text fill="#595959" font-family="Verdana,Open Sans,DejaVu Sans,sans-serif" font-weight="400" font-size="41" transform="matrix(6.12323e-17 -1 1 6.12323e-17 3247.928955078125 1178.9985275268555)">07-Jul</text>
		</g>
		<g>
			<text fill="#595959" font-family="Verdana,Open Sans,DejaVu Sans,sans-serif" font-weight="400" font-size="41" transform="matrix(6.12323e-17 -1 1 6.12323e-17 3330.443152794471 1208.62744140625)">04-Aug</text>
		</g>
		<g>
			<text fill="#595959" font-family="Verdana,Open Sans,DejaVu Sans,sans-serif" font-weight="400" font-size="41" transform="matrix(6.12323e-17 -1 1 6.12323e-17 3412.5969989483174 1204.38330078125)">01-Sep</text>
		</g>
		<g>
			<text fill="#595959" font-family="Verdana,Open Sans,DejaVu Sans,sans-serif" font-weight="400" font-size="41" transform="matrix(6.12323e-17 -1 1 6.12323e-17 3494.7308255709136 1204.42333984375)">29-Sep</text>
		</g>
		<g>
			<text fill="#595959" font-family="Verdana,Open Sans,DejaVu Sans,sans-serif" font-weight="400" font-size="41" transform="matrix(6.12323e-17 -1 1 6.12323e-17 3572.1800818810098 1201.1401290893555)">27-Oct</text>
		</g>
		<g>
			<text fill="#595959" font-family="Verdana,Open Sans,DejaVu Sans,sans-serif" font-weight="400" font-size="41" transform="matrix(6.12323e-17 -1 1 6.12323e-17 3654.313908503606 1211.47021484375)">24-Nov</text>
		</g>
		<g>
			<text fill="#595959" font-family="Verdana,Open Sans,DejaVu Sans,sans-serif" font-weight="400" font-size="41" transform="matrix(6.12323e-17 -1 1 6.12323e-17 3736.467754657452 1207.1259765625)">22-Dec</text>
		</g>
		<g>
			<text fill="#595959" font-family="Verdana,Open Sans,DejaVu Sans,sans-serif" font-weight="400" font-size="41" transform="matrix(6.12323e-17 -1 1 6.12323e-17 3822.275165264423 1189.9291915893555)">19-Jan</text>
		</g>
		<g>
			<text fill="#595959" font-family="Verdana,Open Sans,DejaVu Sans,sans-serif" font-weight="400" font-size="41" transform="matrix(6.12323e-17 -1 1 6.12323e-17 3901.5061598557695 1201.3203125)">16-Feb</text>
		</g>
		<g>
			<text fill="#595959" font-family="Verdana,Open Sans,DejaVu Sans,sans-serif" font-weight="400" font-size="41" transform="matrix(6.12323e-17 -1 1 6.12323e-17 3982.9292931189902 1210.2890625)">16-Mar</text>
		</g>
		<g>
			<text fill="#595959" font-family="Verdana,Open Sans,DejaVu Sans,sans-serif" font-weight="400" font-size="41" transform="matrix(6.12323e-17 -1 1 6.12323e-17 4069.807748647837 1201.5405197143555)">13-Apr</text>
		</g>
		<g>
			<text fill="#595959" font-family="Verdana,Open Sans,DejaVu Sans,sans-serif" font-weight="400" font-size="41" transform="matrix(6.12323e-17 -1 1 6.12323e-17 4151.751389723558 1214.75341796875)">11-May</text>
		</g>
		<g>
			<text fill="#595959" font-family="Verdana,Open Sans,DejaVu Sans,sans-serif" font-weight="400" font-size="41" transform="matrix(6.12323e-17 -1 1 6.12323e-17 4233.064415564904 1194.0131759643555)">08-Jun</text>
		</g>
		<g>
			<text fill="#595959" font-family="Verdana,Open Sans,DejaVu Sans,sans-serif" font-weight="400" font-size="41" transform="matrix(6.12323e-17 -1 1 6.12323e-17 4315.928955078125 1178.9985275268555)">06-Jul</text>
		</g>
		<g>
			<text fill="#595959" font-family="Verdana,Open Sans,DejaVu Sans,sans-serif" font-weight="400" font-size="41" transform="matrix(1 0 0 1 3135.4482421875 1050)">0%</text>
		</g>
		<g>
			<text fill="#595959" font-family="Verdana,Open Sans,DejaVu Sans,sans-serif" font-weight="400" font-size="41" transform="matrix(1 0 0 1 3111.96533203125 922)">20%</text>
		</g>
		<g>
			<text fill="#595959" font-family="Verdana,Open Sans,DejaVu Sans,sans-serif" font-weight="400" font-size="41" transform="matrix(1 0 0 1 3110.82421875 794)">40%</text>
		</g>
		<g>
			<text fill="#595959" font-family="Verdana,Open Sans,DejaVu Sans,sans-serif" font-weight="400" font-size="41" transform="matrix(1 0 0 1 3112.3056640625 666)">60%</text>
		</g>
		<g>
			<text fill="#595959" font-family="Verdana,Open Sans,DejaVu Sans,sans-serif" font-weight="400" font-size="41" transform="matrix(1 0 0 1 3112.04541015625 538)">80%</text>
		</g>
		<g>
			<text fill="#595959" font-family="Verdana,Open Sans,DejaVu Sans,sans-serif" font-weight="400" font-size="41" transform="matrix(1 0 0 1 3090.2841796875 410)">100%</text>
		</g>
		<g>
			<text fill="#595959" font-family="Verdana,Open Sans,DejaVu Sans,sans-serif" font-weight="400" font-size="41" transform="matrix(1 0 0 1 3556.97119140625 1321)">Week Commencing</text>
		</g>
		<g>
			<text fill="#595959" font-family="Verdana,Open Sans,DejaVu Sans,sans-serif" font-weight="400" font-size="46" transform="matrix(6.12323e-17 -1 1 6.12323e-17 3019.73 936.7665710449219)">Requests (% of Total)</text>
		</g>
		<rect x="2918.5" y="347.5" width="1760" height="1043" stroke="#D9D9D9" stroke-width="3.4375" stroke-linejoin="round" stroke-miterlimit="10" fill="none" />
		<g>
			<path d="M3228.5 1038 3249.0384615384614 1038 3269.576923076923 1038 3290.1153846153848 1038 3310.653846153846 1038 3331.1923076923076 1038 3351.730769230769 1038 3372.269230769231 1038 3392.8076923076924 1038 3413.346153846154 1038 3433.8846153846152 1038 3454.423076923077 1038 3474.9615384615386 1038 3495.5 1038 3516.0384615384614 1038 3536.576923076923 1038 3557.1153846153848 1038 3577.653846153846 1038 3598.1923076923076 1038 3618.7307692307695 1038 3639.269230769231 1038 3659.8076923076924 1038 3680.346153846154 1038 3700.8846153846152 1038 3721.423076923077 1038 3741.9615384615386 1038 3762.5 1038 3783.0384615384614 1038 3803.576923076923 1038 3824.1153846153848 1038 3844.653846153846 1038 3865.1923076923076 1038 3885.7307692307695 1038 3906.269230769231 1038 3926.8076923076924 1038 3947.346153846154 1038 3967.8846153846152 1038 3988.423076923077 1038 4008.9615384615386 1038 4029.5 1038 4050.038461538462 1038 4070.576923076923 1038 4091.1153846153848 1038 4111.653846153846 1038 4132.192307692308 1038 4152.7307692307695 1038 4173.2692307692305 1038 4193.807692307692 1038 4214.346153846154 1038 4234.884615384615 1038 4255.423076923077 1038 4275.961538461539 1038 4296.5 1038 4296.5 437.90844715550884 4275.961538461539 437.9084623056291 4255.423076923077 437.6239137141273 4234.884615384615 437.6049218138388 4214.346153846154 437.66539534758147 4193.807692307692 437.23330094896914 4173.2692307692305 437.2252678895536 4152.7307692307695 437.2266571256755 4132.192307692308 437.41933993409225 4111.653846153846 437.77571312198756 4091.1153846153848 437.9538782171219 4070.576923076923 438.04589818914667 4050.038461538462 438.30346732909925 4029.5 437.9330255815296 4008.9615384615386 437.830120525933 3988.423076923077 437.4274922428566 3967.8846153846152 437.5327918592636 3947.346153846154 437.70848432679963 3926.8076923076924 437.8791578329525 3906.269230769231 438.2569100073033 3885.7307692307695 438.25416567656384 3865.1923076923076 438.2284066200755 3844.653846153846 438.4018523571715 3824.1153846153848 438.2585045087485 3803.576923076923 438.1419455028754 3783.0384615384614 438.1490336079519 3762.5 438.2753528850003 3741.9615384615386 438.3712938024157 3721.423076923077 438.93844580645873 3700.8846153846152 438.66009075050135 3680.346153846154 438.6550093538849 3659.8076923076924 438.8753603320732 3639.269230769231 440.072777946987 3618.7307692307695 439.54649540853677 3598.1923076923076 439.7648762802967 3577.653846153846 440.0929578933227 3557.1153846153848 440.1107731424996 3536.576923076923 440.17666153343987 3516.0384615384614 440.17259352262283 3495.5 440.3280263296216 3474.9615384615386 440.34799215358134 3454.423076923077 440.40616975209355 3433.8846153846152 440.40760550465325 3413.346153846154 440.94196380839696 3392.8076923076924 441.17078340782746 3372.269230769231 441.17336955313306 3351.730769230769 441.3391880005887 3331.1923076923076 441.48654078274615 3310.653846153846 441.48316478044603 3290.1153846153848 441.484756503997 3269.576923076923 441.489616515065 3249.0384615384614 441.29796426599523 3228.5 441.72595383903854 3228.5 1038Z" fill="#e62d39" opacity="0.9" />
		</g>
		<g>
			<path d="M3228.5 441.72595383903854 3249.0384615384614 441.29796426599523 3269.576923076923 441.489616515065 3290.1153846153848 441.484756503997 3310.653846153846 441.48316478044603 3331.1923076923076 441.48654078274615 3351.730769230769 441.3391880005887 3372.269230769231 441.17336955313306 3392.8076923076924 441.17078340782746 3413.346153846154 440.94196380839696 3433.8846153846152 440.40760550465325 3454.423076923077 440.40616975209355 3474.9615384615386 440.34799215358134 3495.5 440.3280263296216 3516.0384615384614 440.17259352262283 3536.576923076923 440.17666153343987 3557.1153846153848 440.1107731424996 3577.653846153846 440.0929578933227 3598.1923076923076 439.7648762802967 3618.7307692307695 439.54649540853677 3639.269230769231 440.072777946987 3659.8076923076924 438.8753603320732 3680.346153846154 438.6550093538849 3700.8846153846152 438.66009075050135 3721.423076923077 438.93844580645873 3741.9615384615386 438.3712938024157 3762.5 438.2753528850003 3783.0384615384614 438.1490336079519 3803.576923076923 438.1419455028754 3824.1153846153848 438.2585045087485 3844.653846153846 438.4018523571715 3865.1923076923076 438.2284066200755 3885.7307692307695 438.25416567656384 3906.269230769231 438.2569100073033 3926.8076923076924 437.8791578329525 3947.346153846154 437.70848432679963 3967.8846153846152 437.5327918592636 3988.423076923077 437.4274922428566 4008.9615384615386 437.830120525933 4029.5 437.9330255815296 4050.038461538462 438.30346732909925 4070.576923076923 438.04589818914667 4091.1153846153848 437.9538782171219 4111.653846153846 437.77571312198756 4132.192307692308 437.41933993409225 4152.7307692307695 437.2266571256755 4173.2692307692305 437.2252678895536 4193.807692307692 437.23330094896914 4214.346153846154 437.66539534758147 4234.884615384615 437.6049218138388 4255.423076923077 437.6239137141273 4275.961538461539 437.9084623056291 4296.5 437.90844715550884 4296.5 397.99999999999994 4275.961538461539 398 4255.423076923077 398.00000000000006 4234.884615384615 398 4214.346153846154 398 4193.807692307692 397.99999999999994 4173.2692307692305 397.99999999999994 4152.7307692307695 398.00000000000006 4132.192307692308 397.99999999999994 4111.653846153846 398 4091.1153846153848 398 4070.576923076923 398 4050.038461538462 398 4029.5 398.00000000000006 4008.9615384615386 398 3988.423076923077 398 3967.8846153846152 398 3947.346153846154 397.99999999999994 3926.8076923076924 398 3906.269230769231 397.99999999999994 3885.7307692307695 398 3865.1923076923076 398 3844.653846153846 398.00000000000006 3824.1153846153848 398 3803.576923076923 397.99999999999994 3783.0384615384614 398 3762.5 398.00000000000006 3741.9615384615386 398 3721.423076923077 398 3700.8846153846152 398 3680.346153846154 398.00000000000006 3659.8076923076924 398 3639.269230769231 398 3618.7307692307695 398 3598.1923076923076 398.00000000000006 3577.653846153846 398 3557.1153846153848 398 3536.576923076923 398.00000000000006 3516.0384615384614 398 3495.5 398.00000000000006 3474.9615384615386 398.00000000000006 3454.423076923077 398.0000000000001 3433.8846153846152 398 3413.346153846154 398 3392.8076923076924 398 3372.269230769231 397.99999999999994 3351.730769230769 398 3331.1923076923076 398 3310.653846153846 397.99999999999994 3290.1153846153848 398 3269.576923076923 398 3249.0384615384614 397.99999999999994 3228.5 398 3228.5 441.72595383903854Z" fill="#005aa6" opacity="0.9" />
		</g>
		<g>
			<rect x="4372" y="431" width="22.9995" height="23" fill="#e62d39" />
		</g>
		<g>
			<text fill="#595959" font-family="Verdana,Open Sans,DejaVu Sans,sans-serif" font-weight="400" font-size="41" transform="matrix(1 0 0 1 4404.56 454)">Non-Crawler</text>
		</g>
		<g>
			<rect x="4372" y="508" width="22.9995" height="23" fill="#005aa6" />
		</g>
		<g>
			<text fill="#595959" font-family="Verdana,Open Sans,DejaVu Sans,sans-serif" font-weight="400" font-size="41" transform="matrix(1 0 0 1 4404.56 531)">Crawler</text>
		</g>
	</g>
</svg>
