<svg width="1763" height="1046"
    xmlns="http://www.w3.org/2000/svg"
	xmlns:xlink="http://www.w3.org/1999/xlink" xml:space="preserve" overflow="hidden">
	<defs>
		<clipPath id="clip0">
			<rect x="2917" y="346" width="1763" height="1046"/>
		</clipPath>
	</defs>
	<g clip-path="url(#clip0)" transform="translate(-2917 -346)">
		<rect x="2918" y="347" width="1760" height="1043" fill="#FFFFFF" />
		<g>
			<path d="
			M3228.5 974.532 4296.5 974.532
			M3228.5 910.53 4296.5 910.53
			M3228.5 846.528 4296.5 846.528
			M3228.5 781.526 4296.5 781.526
			M3228.5 717.524 4296.5 717.524
			M3228.5 653.522 4296.5 653.522
			M3228.5 589.52 4296.5 589.52
			M3228.5 525.517 4296.5 525.517
			M3228.5 461.515 4296.5 461.515
			M3228.5 397.5 4296.5 397.5" stroke="#D9D9D9" stroke-width="3.4375" stroke-linejoin="round" stroke-miterlimit="10" fill="none" />
		</g>
		<g>
			<path d="M 1038.5 4296.5 1038.5" stroke="#D9D9D9" stroke-width="3.4375" stroke-linejoin="round" stroke-miterlimit="10" fill="none" fill-rule="evenodd" />
		</g>
		<g>
			<text fill="#595959" font-family="Verdana,sans-serif" font-weight="400" font-size="41" transform="matrix(6.12323e-17 -1 1 6.12323e-17 3244.5 1225)">06-Nov</text>
		</g>
		<g>
			<text fill="#595959" font-family="Verdana,sans-serif" font-weight="400" font-size="41" transform="matrix(6.12323e-17 -1 1 6.12323e-17 3311.25 1224)">20-Nov</text>
		</g>
		<g>
			<text fill="#595959" font-family="Verdana,sans-serif" font-weight="400" font-size="41" transform="matrix(6.12323e-17 -1 1 6.12323e-17 3378 1223)">04-Dec</text>
		</g>
		<g>
			<text fill="#595959" font-family="Verdana,sans-serif" font-weight="400" font-size="41" transform="matrix(6.12323e-17 -1 1 6.12323e-17 3444.75 1220)">18-Dec</text>
		</g>
		<g>
			<text fill="#595959" font-family="Verdana,sans-serif" font-weight="400" font-size="41" transform="matrix(6.12323e-17 -1 1 6.12323e-17 3511.5 1210)">01-Jan</text>
		</g>
		<g>
			<text fill="#595959" font-family="Verdana,sans-serif" font-weight="400" font-size="41" transform="matrix(6.12323e-17 -1 1 6.12323e-17 3577.75 1207)">15-Jan</text>
		</g>
		<g>
			<text fill="#595959" font-family="Verdana,sans-serif" font-weight="400" font-size="41" transform="matrix(6.12323e-17 -1 1 6.12323e-17 3645 1210)">29-Jan</text>
		</g>
		<g>
			<text fill="#595959" font-family="Verdana,sans-serif" font-weight="400" font-size="41" transform="matrix(6.12323e-17 -1 1 6.12323e-17 3711.75 1214)">12-Feb</text>
		</g>
		<g>
			<text fill="#595959" font-family="Verdana,sans-serif" font-weight="400" font-size="41" transform="matrix(6.12323e-17 -1 1 6.12323e-17 3778.5 1216)">26-Feb</text>
		</g>
		<g>
			<text fill="#595959" font-family="Verdana,sans-serif" font-weight="400" font-size="41" transform="matrix(6.12323e-17 -1 1 6.12323e-17 3844.75 1221)">11-Mar</text>
		</g>
		<g>
			<text fill="#595959" font-family="Verdana,sans-serif" font-weight="400" font-size="41" transform="matrix(6.12323e-17 -1 1 6.12323e-17 3912 1223)">25-Mar</text>
		</g>
		<g>
			<text fill="#595959" font-family="Verdana,sans-serif" font-weight="400" font-size="41" transform="matrix(6.12323e-17 -1 1 6.12323e-17 3982.25 1217)">08-Apr</text>
		</g>
		<g>
			<text fill="#595959" font-family="Verdana,sans-serif" font-weight="400" font-size="41" transform="matrix(6.12323e-17 -1 1 6.12323e-17 4049 1216)">22-Apr</text>
		</g>
		<g>
			<text fill="#595959" font-family="Verdana,sans-serif" font-weight="400" font-size="41" transform="matrix(6.12323e-17 -1 1 6.12323e-17 4115.75 1228)">06-May</text>
		</g>
		<g>
			<text fill="#595959" font-family="Verdana,sans-serif" font-weight="400" font-size="41" transform="matrix(6.12323e-17 -1 1 6.12323e-17 4182.5 1228)">20-May</text>
		</g>
		<g>
			<text fill="#595959" font-family="Verdana,sans-serif" font-weight="400" font-size="41" transform="matrix(6.12323e-17 -1 1 6.12323e-17 4245.75 1211)">03-Jun</text>
		</g>
		<g>
			<text fill="#595959" font-family="Verdana,sans-serif" font-weight="400" font-size="41" transform="matrix(6.12323e-17 -1 1 6.12323e-17 4312 1209)">17-Jun</text>
		</g>
		<g>
			<text fill="#595959" font-family="Verdana,sans-serif" font-weight="400" font-size="41" transform="matrix(1 0 0 1 3167.5 1050)">0</text>
		</g>
		<g>
			<text fill="#595959" font-family="Verdana,sans-serif" font-weight="400" font-size="41" transform="matrix(1 0 0 1 3140.5 922)">49</text>
		</g>
		<g>
			<text fill="#595959" font-family="Verdana,sans-serif" font-weight="400" font-size="41" transform="matrix(1 0 0 1 3140.5 794)">98</text>
		</g>
		<g>
			<text fill="#595959" font-family="Verdana,sans-serif" font-weight="400" font-size="41" transform="matrix(1 0 0 1 3117.5 666)">147</text>
		</g>
		<g>
			<text fill="#595959" font-family="Verdana,sans-serif" font-weight="400" font-size="41" transform="matrix(1 0 0 1 3117.5 538)">196</text>
		</g>
		<g>
			<text fill="#595959" font-family="Verdana,sans-serif" font-weight="400" font-size="41" transform="matrix(1 0 0 1 3115.5 410)">245</text>
		</g>
		<g>
			<text fill="#595959" font-family="Verdana,sans-serif" font-weight="400" font-size="41" transform="matrix(1 0 0 1 3544.5 1321)">Week Commencing</text>
		</g>
		<g>
			<text fill="#595959" font-family="Verdana,sans-serif" font-weight="400" font-size="46" transform="matrix(6.12323e-17 -1 1 6.12323e-17 3019.73 1024.75)">Number of Crawler Profiles</text>
		</g>
		<rect x="2918.5" y="347.5" width="1760" height="1043" stroke="#D9D9D9" stroke-width="3.4375" stroke-linejoin="round" stroke-miterlimit="10" fill="none" />
		<g>
			<path d="M3228.5 1038 3261.875 1038 3295.25 1038 3328.625 1038 3362 1038 3395.375 1038 3428.75 1038 3462.125 1038 3495.5 1038 3528.875 1038 3562.25 1038 3595.625 1038 3629 1038 3662.375 1038 3695.75 1038 3729.125 1038 3762.5 1038 3795.875 1038 3829.25 1038 3862.625 1038 3896 1038 3929.375 1038 3962.75 1038 3996.125 1038 4029.5 1038 4062.875 1038 4096.25 1038 4129.625 1038 4163 1038 4196.375 1038 4229.75 1038 4263.125 1038 4296.5 1038 4296.5 400.6122448979593 4263.125 405.8367346938776 4229.75 405.8367346938776 4196.375 405.8367346938776 4163 408.44897959183675 4129.625 413.6734693877552 4096.25 424.1224489795919 4062.875 429.34693877551024 4029.5 431.9591836734694 3996.125 431.9591836734694 3962.75 442.40816326530614 3929.375 442.40816326530614 3896 455.46938775510205 3862.625 481.59183673469397 3829.25 486.8163265306123 3795.875 492.0408163265306 3762.5 505.1020408163266 3729.125 507.7142857142858 3695.75 507.7142857142858 3662.375 510.32653061224494 3629 515.5510204081633 3595.625 528.6122448979593 3562.25 531.2244897959184 3528.875 531.2244897959184 3495.5 536.4489795918367 3462.125 536.4489795918367 3428.75 536.4489795918367 3395.375 536.4489795918367 3362 536.4489795918367 3328.625 539.0612244897959 3295.25 539.0612244897959 3261.875 539.0612244897959 3228.5 539.0612244897959 3228.5 1038Z" fill="#005aa6" opacity="0.9" />
		</g>
		<g>
			<path d="M3228.5 539.0612244897959 3261.875 539.0612244897959 3295.25 539.0612244897959 3328.625 539.0612244897959 3362 536.4489795918367 3395.375 536.4489795918367 3428.75 536.4489795918367 3462.125 536.4489795918367 3495.5 536.4489795918367 3528.875 531.2244897959184 3562.25 531.2244897959184 3595.625 528.6122448979593 3629 515.5510204081633 3662.375 510.32653061224494 3695.75 507.7142857142858 3729.125 507.7142857142858 3762.5 505.1020408163266 3795.875 492.0408163265306 3829.25 486.8163265306123 3862.625 481.59183673469397 3896 455.46938775510205 3929.375 442.40816326530614 3962.75 442.40816326530614 3996.125 431.9591836734694 4029.5 431.9591836734694 4062.875 429.34693877551024 4096.25 424.1224489795919 4129.625 413.6734693877552 4163 408.44897959183675 4196.375 405.8367346938776 4229.75 405.8367346938776 4263.125 405.8367346938776 4296.5 400.6122448979593 4296.5 398.0000000000001 4263.125 403.22448979591843 4229.75 403.22448979591843 4196.375 403.22448979591843 4163 405.8367346938776 4129.625 411.061224489796 4096.25 421.51020408163276 4062.875 426.7346938775511 4029.5 429.34693877551024 3996.125 429.34693877551024 3962.75 439.795918367347 3929.375 439.795918367347 3896 452.8571428571429 3862.625 478.9795918367348 3829.25 484.20408163265313 3795.875 489.42857142857144 3762.5 502.48979591836746 3729.125 505.1020408163266 3695.75 505.1020408163266 3662.375 507.7142857142858 3629 512.9387755102041 3595.625 526.0000000000001 3562.25 528.6122448979593 3528.875 528.6122448979593 3495.5 533.8367346938776 3462.125 533.8367346938776 3428.75 533.8367346938776 3395.375 533.8367346938776 3362 533.8367346938776 3328.625 536.4489795918367 3295.25 536.4489795918367 3261.875 536.4489795918367 3228.5 536.4489795918367 3228.5 539.0612244897959Z" fill="#e62d39" opacity="0.9" />
		</g>
		<g>
			<rect x="4372" y="431" width="22.9995" height="23" fill="#005aa6" />
		</g>
		<g>
			<text fill="#595959" font-family="Verdana,sans-serif" font-weight="400" font-size="41" transform="matrix(1 0 0 1 4404.56 454)">Crawler</text>
		</g>
		<g>
			<rect x="4372" y="508" width="22.9995" height="23" fill="#e62d39" />
		</g>
		<g>
			<text fill="#595959" font-family="Verdana,sans-serif" font-weight="400" font-size="41" transform="matrix(1 0 0 1 4404.56 531)">Non-Crawler</text>
		</g>
	</g>
</svg>
