<svg width="1763" height="1046"
    xmlns="http://www.w3.org/2000/svg"
	xmlns:xlink="http://www.w3.org/1999/xlink" xml:space="preserve" overflow="hidden">
	<defs>
		<clipPath id="clip0">
			<rect x="2917" y="346" width="1763" height="1046"/>
		</clipPath>
	</defs>
	<g clip-path="url(#clip0)" transform="translate(-2917 -346)">
		<rect x="2918" y="347" width="1760" height="1043" fill="#FFFFFF" />
		<g>
			<path d="
			M3228.5 974.532 4296.5 974.532
			M3228.5 910.53 4296.5 910.53
			M3228.5 846.528 4296.5 846.528
			M3228.5 781.526 4296.5 781.526
			M3228.5 717.524 4296.5 717.524
			M3228.5 653.522 4296.5 653.522
			M3228.5 589.52 4296.5 589.52
			M3228.5 525.517 4296.5 525.517
			M3228.5 461.515 4296.5 461.515
			M3228.5 397.5 4296.5 397.5" stroke="#D9D9D9" stroke-width="3.4375" stroke-linejoin="round" stroke-miterlimit="10" fill="none" />
		</g>
		<g>
			<path d="M 1038.5 4296.5 1038.5" stroke="#D9D9D9" stroke-width="3.4375" stroke-linejoin="round" stroke-miterlimit="10" fill="none" fill-rule="evenodd" />
		</g>
		<g>
			<text fill="#595959" font-family="Verdana,sans-serif" font-weight="400" font-size="41" transform="matrix(6.12323e-17 -1 1 6.12323e-17 3244.5 1222)">25-Dec</text>
		</g>
		<g>
			<text fill="#595959" font-family="Verdana,sans-serif" font-weight="400" font-size="41" transform="matrix(6.12323e-17 -1 1 6.12323e-17 3329.94 1210)">22-Jan</text>
		</g>
		<g>
			<text fill="#595959" font-family="Verdana,sans-serif" font-weight="400" font-size="41" transform="matrix(6.12323e-17 -1 1 6.12323e-17 3415.38 1214)">19-Feb</text>
		</g>
		<g>
			<text fill="#595959" font-family="Verdana,sans-serif" font-weight="400" font-size="41" transform="matrix(6.12323e-17 -1 1 6.12323e-17 3500.82 1221)">18-Mar</text>
		</g>
		<g>
			<text fill="#595959" font-family="Verdana,sans-serif" font-weight="400" font-size="41" transform="matrix(6.12323e-17 -1 1 6.12323e-17 3589.76 1214)">15-Apr</text>
		</g>
		<g>
			<text fill="#595959" font-family="Verdana,sans-serif" font-weight="400" font-size="41" transform="matrix(6.12323e-17 -1 1 6.12323e-17 3675.2 1226)">13-May</text>
		</g>
		<g>
			<text fill="#595959" font-family="Verdana,sans-serif" font-weight="400" font-size="41" transform="matrix(6.12323e-17 -1 1 6.12323e-17 3757.14 1209)">10-Jun</text>
		</g>
		<g>
			<text fill="#595959" font-family="Verdana,sans-serif" font-weight="400" font-size="41" transform="matrix(6.12323e-17 -1 1 6.12323e-17 3842.58 1197)">08-Jul</text>
		</g>
		<g>
			<text fill="#595959" font-family="Verdana,sans-serif" font-weight="400" font-size="41" transform="matrix(6.12323e-17 -1 1 6.12323e-17 3931.52 1221)">05-Aug</text>
		</g>
		<g>
			<text fill="#595959" font-family="Verdana,sans-serif" font-weight="400" font-size="41" transform="matrix(6.12323e-17 -1 1 6.12323e-17 4016.96 1222)">02-Sep</text>
		</g>
		<g>
			<text fill="#595959" font-family="Verdana,sans-serif" font-weight="400" font-size="41" transform="matrix(6.12323e-17 -1 1 6.12323e-17 4102.4 1221)">30-Sep</text>
		</g>
		<g>
			<text fill="#595959" font-family="Verdana,sans-serif" font-weight="400" font-size="41" transform="matrix(6.12323e-17 -1 1 6.12323e-17 4184.34 1215)">28-Oct</text>
		</g>
		<g>
			<text fill="#595959" font-family="Verdana,sans-serif" font-weight="400" font-size="41" transform="matrix(6.12323e-17 -1 1 6.12323e-17 4269.78 1224)">25-Nov</text>
		</g>
		<g>
			<text fill="#595959" font-family="Verdana,sans-serif" font-weight="400" font-size="41" transform="matrix(1 0 0 1 3167.5 1050)">0</text>
		</g>
		<g>
			<text fill="#595959" font-family="Verdana,sans-serif" font-weight="400" font-size="41" transform="matrix(1 0 0 1 3142.5 922)">61</text>
		</g>
		<g>
			<text fill="#595959" font-family="Verdana,sans-serif" font-weight="400" font-size="41" transform="matrix(1 0 0 1 3119.5 794)">121</text>
		</g>
		<g>
			<text fill="#595959" font-family="Verdana,sans-serif" font-weight="400" font-size="41" transform="matrix(1 0 0 1 3118.5 666)">182</text>
		</g>
		<g>
			<text fill="#595959" font-family="Verdana,sans-serif" font-weight="400" font-size="41" transform="matrix(1 0 0 1 3115.5 538)">242</text>
		</g>
		<g>
			<text fill="#595959" font-family="Verdana,sans-serif" font-weight="400" font-size="41" transform="matrix(1 0 0 1 3116.5 410)">303</text>
		</g>
		<g>
			<text fill="#595959" font-family="Verdana,sans-serif" font-weight="400" font-size="41" transform="matrix(1 0 0 1 3544.5 1321)">Week Commencing</text>
		</g>
		<g>
			<text fill="#595959" font-family="Verdana,sans-serif" font-weight="400" font-size="46" transform="matrix(6.12323e-17 -1 1 6.12323e-17 3019.73 1024.75)">Number of Crawler Profiles</text>
		</g>
		<rect x="2918.5" y="347.5" width="1760" height="1043" stroke="#D9D9D9" stroke-width="3.4375" stroke-linejoin="round" stroke-miterlimit="10" fill="none" />
		<g>
			<path d="M3228.5 1038 3249.86 1038 3271.22 1038 3292.58 1038 3313.94 1038 3335.3 1038 3356.66 1038 3378.02 1038 3399.38 1038 3420.74 1038 3442.1 1038 3463.46 1038 3484.82 1038 3506.18 1038 3527.54 1038 3548.9 1038 3570.26 1038 3591.62 1038 3612.98 1038 3634.34 1038 3655.7 1038 3677.06 1038 3698.42 1038 3719.7799999999997 1038 3741.14 1038 3762.5 1038 3783.86 1038 3805.2200000000003 1038 3826.58 1038 3847.94 1038 3869.3 1038 3890.66 1038 3912.02 1038 3933.38 1038 3954.74 1038 3976.1 1038 3997.46 1038 4018.8199999999997 1038 4040.18 1038 4061.54 1038 4082.9 1038 4104.26 1038 4125.62 1038 4146.98 1038 4168.34 1038 4189.7 1038 4211.0599999999995 1038 4232.42 1038 4253.78 1038 4275.139999999999 1038 4296.5 1038 4296.5 400.11221122112215 4275.139999999999 402.2244224422443 4253.78 408.56105610561065 4232.42 417.009900990099 4211.0599999999995 429.6831683168317 4189.7 436.01980198019805 4168.34 436.01980198019805 4146.98 433.907590759076 4125.62 438.1320132013202 4104.26 444.46864686468655 4082.9 452.9174917491749 4061.54 452.9174917491749 4040.18 455.0297029702971 4018.8199999999997 465.5907590759076 3997.46 469.8151815181519 3976.1 474.0396039603961 3954.74 474.0396039603961 3933.38 478.2640264026403 3912.02 478.2640264026403 3890.66 480.37623762376245 3869.3 482.4884488448845 3847.94 490.937293729373 3826.58 497.2739273927393 3805.2200000000003 505.7227722772278 3783.86 512.0594059405942 3762.5 522.6204620462047 3741.14 526.8448844884489 3719.7799999999997 526.8448844884489 3698.42 526.8448844884489 3677.06 528.9570957095709 3655.7 533.1815181518152 3634.34 541.6303630363036 3612.98 545.8547854785479 3591.62 547.9669966996701 3570.26 547.9669966996701 3548.9 556.4158415841584 3527.54 556.4158415841584 3506.18 566.976897689769 3484.82 588.0990099009902 3463.46 592.3234323432343 3442.1 596.5478547854786 3420.74 607.1089108910892 3399.38 609.2211221122113 3378.02 609.2211221122113 3356.66 611.3333333333334 3335.3 615.5577557755776 3313.94 626.1188118811881 3292.58 628.2310231023102 3271.22 628.2310231023102 3249.86 632.4554455445545 3228.5 632.4554455445545 3228.5 1038Z" fill="#005aa6" opacity="0.9" />
		</g>
		<g>
			<path d="M3228.5 632.4554455445545 3249.86 632.4554455445545 3271.22 628.2310231023102 3292.58 628.2310231023102 3313.94 626.1188118811881 3335.3 615.5577557755776 3356.66 611.3333333333334 3378.02 609.2211221122113 3399.38 609.2211221122113 3420.74 607.1089108910892 3442.1 596.5478547854786 3463.46 592.3234323432343 3484.82 588.0990099009902 3506.18 566.976897689769 3527.54 556.4158415841584 3548.9 556.4158415841584 3570.26 547.9669966996701 3591.62 547.9669966996701 3612.98 545.8547854785479 3634.34 541.6303630363036 3655.7 533.1815181518152 3677.06 528.9570957095709 3698.42 526.8448844884489 3719.7799999999997 526.8448844884489 3741.14 526.8448844884489 3762.5 522.6204620462047 3783.86 512.0594059405942 3805.2200000000003 505.7227722772278 3826.58 497.2739273927393 3847.94 490.937293729373 3869.3 482.4884488448845 3890.66 480.37623762376245 3912.02 478.2640264026403 3933.38 478.2640264026403 3954.74 474.0396039603961 3976.1 474.0396039603961 3997.46 469.8151815181519 4018.8199999999997 465.5907590759076 4040.18 455.0297029702971 4061.54 452.9174917491749 4082.9 452.9174917491749 4104.26 444.46864686468655 4125.62 438.1320132013202 4146.98 433.907590759076 4168.34 436.01980198019805 4189.7 436.01980198019805 4211.0599999999995 429.6831683168317 4232.42 417.009900990099 4253.78 408.56105610561065 4275.139999999999 402.2244224422443 4296.5 400.11221122112215 4296.5 398.00000000000006 4275.139999999999 400.1122112211222 4253.78 406.44884488448855 4232.42 414.89768976897693 4211.0599999999995 427.5709570957096 4189.7 433.90759075907596 4168.34 433.90759075907596 4146.98 431.7953795379539 4125.62 436.0198019801981 4104.26 442.35643564356445 4082.9 450.80528052805283 4061.54 450.80528052805283 4040.18 452.917491749175 4018.8199999999997 463.4785478547855 3997.46 467.7029702970298 3976.1 471.927392739274 3954.74 471.927392739274 3933.38 476.1518151815182 3912.02 476.1518151815182 3890.66 478.26402640264035 3869.3 480.3762376237624 3847.94 488.8250825082509 3826.58 495.16171617161723 3805.2200000000003 503.6105610561057 3783.86 509.94719471947207 3762.5 520.5082508250825 3741.14 524.7326732673267 3719.7799999999997 524.7326732673267 3698.42 524.7326732673267 3677.06 526.8448844884488 3655.7 531.0693069306931 3634.34 539.5181518151815 3612.98 543.7425742574258 3591.62 545.8547854785479 3570.26 545.8547854785479 3548.9 554.3036303630363 3527.54 554.3036303630363 3506.18 564.8646864686468 3484.82 585.986798679868 3463.46 590.2112211221122 3442.1 594.4356435643565 3420.74 604.996699669967 3399.38 607.1089108910892 3378.02 607.1089108910892 3356.66 609.2211221122112 3335.3 613.4455445544554 3313.94 624.0066006600659 3292.58 626.1188118811881 3271.22 626.1188118811881 3249.86 630.3432343234324 3228.5 630.3432343234324 3228.5 632.4554455445545Z" fill="#e62d39" opacity="0.9" />
		</g>
		<g>
			<rect x="4372" y="431" width="22.9995" height="23" fill="#005aa6" />
		</g>
		<g>
			<text fill="#595959" font-family="Verdana,sans-serif" font-weight="400" font-size="41" transform="matrix(1 0 0 1 4404.56 454)">Crawler</text>
		</g>
		<g>
			<rect x="4372" y="508" width="22.9995" height="23" fill="#e62d39" />
		</g>
		<g>
			<text fill="#595959" font-family="Verdana,sans-serif" font-weight="400" font-size="41" transform="matrix(1 0 0 1 4404.56 531)">Non-Crawler</text>
		</g>
	</g>
</svg>
