<svg width="1763" height="1046"
    xmlns="http://www.w3.org/2000/svg"
	xmlns:xlink="http://www.w3.org/1999/xlink" xml:space="preserve" overflow="hidden">
	<defs>
		<clipPath id="clip0">
			<rect x="2917" y="346" width="1763" height="1046"/>
		</clipPath>
	</defs>
	<g clip-path="url(#clip0)" transform="translate(-2917 -346)">
		<rect x="2918" y="347" width="1760" height="1043" fill="#FFFFFF" />
		<g>
			<path d="
			M3228.5 974.532 4296.5 974.532
			M3228.5 910.53 4296.5 910.53
			M3228.5 846.528 4296.5 846.528
			M3228.5 781.526 4296.5 781.526
			M3228.5 717.524 4296.5 717.524
			M3228.5 653.522 4296.5 653.522
			M3228.5 589.52 4296.5 589.52
			M3228.5 525.517 4296.5 525.517
			M3228.5 461.515 4296.5 461.515
			M3228.5 397.5 4296.5 397.5" stroke="#D9D9D9" stroke-width="3.4375" stroke-linejoin="round" stroke-miterlimit="10" fill="none" />
		</g>
		<g>
			<path d="M 1038.5 4296.5 1038.5" stroke="#D9D9D9" stroke-width="3.4375" stroke-linejoin="round" stroke-miterlimit="10" fill="none" fill-rule="evenodd" />
		</g>
		<g>
			<text fill="#595959" font-family="Verdana,Open Sans,DejaVu Sans,sans-serif" font-weight="400" font-size="41" transform="matrix(6.12323e-17 -1 1 6.12323e-17 3243.33447265625 1210.2890625)">17-Mar</text>
		</g>
		<g>
			<text fill="#595959" font-family="Verdana,Open Sans,DejaVu Sans,sans-serif" font-weight="400" font-size="41" transform="matrix(6.12323e-17 -1 1 6.12323e-17 3333.57916015625 1201.5405197143555)">14-Apr</text>
		</g>
		<g>
			<text fill="#595959" font-family="Verdana,Open Sans,DejaVu Sans,sans-serif" font-weight="400" font-size="41" transform="matrix(6.12323e-17 -1 1 6.12323e-17 3419.149287109375 1214.75341796875)">12-May</text>
		</g>
		<g>
			<text fill="#595959" font-family="Verdana,Open Sans,DejaVu Sans,sans-serif" font-weight="400" font-size="41" transform="matrix(6.12323e-17 -1 1 6.12323e-17 3503.5182421875 1192.2914962768555)">16-Jun</text>
		</g>
		<g>
			<text fill="#595959" font-family="Verdana,Open Sans,DejaVu Sans,sans-serif" font-weight="400" font-size="41" transform="matrix(6.12323e-17 -1 1 6.12323e-17 3589.688955078125 1177.2768478393555)">14-Jul</text>
		</g>
		<g>
			<text fill="#595959" font-family="Verdana,Open Sans,DejaVu Sans,sans-serif" font-weight="400" font-size="41" transform="matrix(6.12323e-17 -1 1 6.12323e-17 3675.319140625 1206.90576171875)">11-Aug</text>
		</g>
		<g>
			<text fill="#595959" font-family="Verdana,Open Sans,DejaVu Sans,sans-serif" font-weight="400" font-size="41" transform="matrix(6.12323e-17 -1 1 6.12323e-17 3760.929306640625 1204.38330078125)">08-Sep</text>
		</g>
		<g>
			<text fill="#595959" font-family="Verdana,Open Sans,DejaVu Sans,sans-serif" font-weight="400" font-size="41" transform="matrix(6.12323e-17 -1 1 6.12323e-17 3841.644697265625 1201.1000900268555)">06-Oct</text>
		</g>
		<g>
			<text fill="#595959" font-family="Verdana,Open Sans,DejaVu Sans,sans-serif" font-weight="400" font-size="41" transform="matrix(6.12323e-17 -1 1 6.12323e-17 3927.084697265625 1211.43017578125)">03-Nov</text>
		</g>
		<g>
			<text fill="#595959" font-family="Verdana,Open Sans,DejaVu Sans,sans-serif" font-weight="400" font-size="41" transform="matrix(6.12323e-17 -1 1 6.12323e-17 4012.524697265625 1207.0859375)">01-Dec</text>
		</g>
		<g>
			<text fill="#595959" font-family="Verdana,Open Sans,DejaVu Sans,sans-serif" font-weight="400" font-size="41" transform="matrix(6.12323e-17 -1 1 6.12323e-17 4097.944677734375 1207.1259765625)">29-Dec</text>
		</g>
		<g>
			<text fill="#595959" font-family="Verdana,Open Sans,DejaVu Sans,sans-serif" font-weight="400" font-size="41" transform="matrix(6.12323e-17 -1 1 6.12323e-17 4187.0382421875 1191.6909103393555)">26-Jan</text>
		</g>
		<g>
			<text fill="#595959" font-family="Verdana,Open Sans,DejaVu Sans,sans-serif" font-weight="400" font-size="41" transform="matrix(6.12323e-17 -1 1 6.12323e-17 4269.555390625 1203.08203125)">23-Feb</text>
		</g>
		<g>
			<text fill="#595959" font-family="Verdana,Open Sans,DejaVu Sans,sans-serif" font-weight="400" font-size="41" transform="matrix(1 0 0 1 3169.14111328125 1050)">0</text>
		</g>
		<g>
			<text fill="#595959" font-family="Verdana,Open Sans,DejaVu Sans,sans-serif" font-weight="400" font-size="41" transform="matrix(1 0 0 1 3144.31689453125 922)">74</text>
		</g>
		<g>
			<text fill="#595959" font-family="Verdana,Open Sans,DejaVu Sans,sans-serif" font-weight="400" font-size="41" transform="matrix(1 0 0 1 3124.05712890625 794)">148</text>
		</g>
		<g>
			<text fill="#595959" font-family="Verdana,Open Sans,DejaVu Sans,sans-serif" font-weight="400" font-size="41" transform="matrix(1 0 0 1 3129.3022499084473 666)">221</text>
		</g>
		<g>
			<text fill="#595959" font-family="Verdana,Open Sans,DejaVu Sans,sans-serif" font-weight="400" font-size="41" transform="matrix(1 0 0 1 3122.53564453125 538)">295</text>
		</g>
		<g>
			<text fill="#595959" font-family="Verdana,Open Sans,DejaVu Sans,sans-serif" font-weight="400" font-size="41" transform="matrix(1 0 0 1 3122.25537109375 410)">369</text>
		</g>
		<g>
			<text fill="#595959" font-family="Verdana,Open Sans,DejaVu Sans,sans-serif" font-weight="400" font-size="41" transform="matrix(1 0 0 1 3556.97119140625 1321)">Week Commencing</text>
		</g>
		<g>
			<text fill="#595959" font-family="Verdana,Open Sans,DejaVu Sans,sans-serif" font-weight="400" font-size="46" transform="matrix(6.12323e-17 -1 1 6.12323e-17 3019.73 1005.4858093261719)">Number of Crawler Profiles</text>
		</g>
		<rect x="2918.5" y="347.5" width="1760" height="1043" stroke="#D9D9D9" stroke-width="3.4375" stroke-linejoin="round" stroke-miterlimit="10" fill="none" />
		<g>
			<path d="M3228.5 1038 3249.86 1038 3271.22 1038 3292.58 1038 3313.94 1038 3335.3 1038 3356.66 1038 3378.02 1038 3399.38 1038 3420.74 1038 3442.1 1038 3463.46 1038 3484.82 1038 3506.18 1038 3527.54 1038 3548.9 1038 3570.26 1038 3591.62 1038 3612.98 1038 3634.34 1038 3655.7 1038 3677.06 1038 3698.42 1038 3719.7799999999997 1038 3741.14 1038 3762.5 1038 3783.86 1038 3805.2200000000003 1038 3826.58 1038 3847.94 1038 3869.3 1038 3890.66 1038 3912.02 1038 3933.38 1038 3954.74 1038 3976.1 1038 3997.46 1038 4018.8199999999997 1038 4040.18 1038 4061.54 1038 4082.9 1038 4104.26 1038 4125.62 1038 4146.98 1038 4168.34 1038 4189.7 1038 4211.0599999999995 1038 4232.42 1038 4253.78 1038 4275.139999999999 1038 4296.5 1038 4296.5 399.7344173441734 4275.139999999999 403.20325203252025 4253.78 406.6720867208671 4232.42 403.20325203252025 4211.0599999999995 411.8753387533875 4189.7 434.42276422764223 4168.34 436.1571815718157 4146.98 437.8915989159891 4125.62 437.8915989159891 4104.26 437.8915989159891 4082.9 439.6260162601626 4061.54 443.0948509485095 4040.18 444.82926829268285 4018.8199999999997 446.56368563685635 3997.46 451.7669376693766 3976.1 451.7669376693766 3954.74 451.7669376693766 3933.38 453.5013550135501 3912.02 456.97018970189697 3890.66 456.97018970189697 3869.3 456.97018970189697 3847.94 458.70460704607046 3826.58 458.70460704607046 3805.2200000000003 458.70460704607046 3783.86 465.6422764227642 3762.5 465.6422764227642 3741.14 465.6422764227642 3719.7799999999997 465.6422764227642 3698.42 465.6422764227642 3677.06 465.6422764227642 3655.7 465.6422764227642 3634.34 465.6422764227642 3612.98 465.6422764227642 3591.62 467.3766937669376 3570.26 467.3766937669376 3548.9 469.1111111111111 3527.54 469.1111111111111 3506.18 477.7831978319783 3484.82 479.5176151761517 3463.46 479.5176151761517 3442.1 482.9864498644986 3420.74 484.7208672086721 3399.38 489.92411924119233 3378.02 491.6585365853658 3356.66 493.3929539295393 3335.3 495.1273712737127 3313.94 495.1273712737127 3292.58 495.1273712737127 3271.22 496.8617886178862 3249.86 496.8617886178862 3228.5 496.8617886178862 3228.5 1038Z" fill="#005aa6" opacity="0.9" />
		</g>
		<g>
			<path d="M3228.5 496.8617886178862 3249.86 496.8617886178862 3271.22 496.8617886178862 3292.58 495.1273712737127 3313.94 495.1273712737127 3335.3 495.1273712737127 3356.66 493.3929539295393 3378.02 491.6585365853658 3399.38 489.92411924119233 3420.74 484.7208672086721 3442.1 482.9864498644986 3463.46 479.5176151761517 3484.82 479.5176151761517 3506.18 477.7831978319783 3527.54 469.1111111111111 3548.9 469.1111111111111 3570.26 467.3766937669376 3591.62 467.3766937669376 3612.98 465.6422764227642 3634.34 465.6422764227642 3655.7 465.6422764227642 3677.06 465.6422764227642 3698.42 465.6422764227642 3719.7799999999997 465.6422764227642 3741.14 465.6422764227642 3762.5 465.6422764227642 3783.86 465.6422764227642 3805.2200000000003 458.70460704607046 3826.58 458.70460704607046 3847.94 458.70460704607046 3869.3 456.97018970189697 3890.66 456.97018970189697 3912.02 456.97018970189697 3933.38 453.5013550135501 3954.74 451.7669376693766 3976.1 451.7669376693766 3997.46 451.7669376693766 4018.8199999999997 446.56368563685635 4040.18 444.82926829268285 4061.54 443.0948509485095 4082.9 439.6260162601626 4104.26 437.8915989159891 4125.62 437.8915989159891 4146.98 437.8915989159891 4168.34 436.1571815718157 4189.7 434.42276422764223 4211.0599999999995 411.8753387533875 4232.42 403.20325203252025 4253.78 406.6720867208671 4275.139999999999 403.20325203252025 4296.5 399.7344173441734 4296.5 397.99999999999994 4275.139999999999 401.4688346883468 4253.78 403.20325203252025 4232.42 399.7344173441734 4211.0599999999995 410.14092140921406 4189.7 432.6883468834688 4168.34 434.4227642276423 4146.98 436.15718157181567 4125.62 436.15718157181567 4104.26 436.15718157181567 4082.9 437.89159891598916 4061.54 441.36043360433604 4040.18 443.0948509485094 4018.8199999999997 444.8292682926829 3997.46 450.03252032520317 3976.1 450.03252032520317 3954.74 450.03252032520317 3933.38 451.76693766937666 3912.02 455.23577235772353 3890.66 455.23577235772353 3869.3 455.23577235772353 3847.94 456.970189701897 3826.58 456.970189701897 3805.2200000000003 456.970189701897 3783.86 463.9078590785908 3762.5 463.9078590785908 3741.14 463.9078590785908 3719.7799999999997 463.9078590785908 3698.42 463.9078590785908 3677.06 463.9078590785908 3655.7 463.9078590785908 3634.34 463.9078590785908 3612.98 463.9078590785908 3591.62 465.64227642276416 3570.26 465.64227642276416 3548.9 467.37669376693765 3527.54 467.37669376693765 3506.18 476.0487804878049 3484.82 477.78319783197827 3463.46 477.78319783197827 3442.1 481.25203252032514 3420.74 482.98644986449864 3399.38 488.1897018970189 3378.02 489.9241192411924 3356.66 491.6585365853659 3335.3 493.39295392953926 3313.94 493.39295392953926 3292.58 493.39295392953926 3271.22 495.12737127371275 3249.86 495.12737127371275 3228.5 495.12737127371275 3228.5 496.8617886178862Z" fill="#e62d39" opacity="0.9" />
		</g>
		<g>
			<rect x="4372" y="431" width="22.9995" height="23" fill="#005aa6" />
		</g>
		<g>
			<text fill="#595959" font-family="Verdana,Open Sans,DejaVu Sans,sans-serif" font-weight="400" font-size="41" transform="matrix(1 0 0 1 4404.56 454)">Crawler</text>
		</g>
		<g>
			<rect x="4372" y="508" width="22.9995" height="23" fill="#e62d39" />
		</g>
		<g>
			<text fill="#595959" font-family="Verdana,Open Sans,DejaVu Sans,sans-serif" font-weight="400" font-size="41" transform="matrix(1 0 0 1 4404.56 531)">Non-Crawler</text>
		</g>
	</g>
</svg>
