<svg width="1763" height="1046"
    xmlns="http://www.w3.org/2000/svg"
	xmlns:xlink="http://www.w3.org/1999/xlink" xml:space="preserve" overflow="hidden">
	<defs>
		<clipPath id="clip0">
			<rect x="2917" y="346" width="1763" height="1046"/>
		</clipPath>
	</defs>
	<g clip-path="url(#clip0)" transform="translate(-2917 -346)">
		<rect x="2918" y="347" width="1760" height="1043" fill="#FFFFFF" />
		<g>
			<path d="
			M3228.5 974.532 4296.5 974.532
			M3228.5 910.53 4296.5 910.53
			M3228.5 846.528 4296.5 846.528
			M3228.5 781.526 4296.5 781.526
			M3228.5 717.524 4296.5 717.524
			M3228.5 653.522 4296.5 653.522
			M3228.5 589.52 4296.5 589.52
			M3228.5 525.517 4296.5 525.517
			M3228.5 461.515 4296.5 461.515
			M3228.5 397.5 4296.5 397.5" stroke="#D9D9D9" stroke-width="3.4375" stroke-linejoin="round" stroke-miterlimit="10" fill="none" />
		</g>
		<g>
			<path d="M 1038.5 4296.5 1038.5" stroke="#D9D9D9" stroke-width="3.4375" stroke-linejoin="round" stroke-miterlimit="10" fill="none" fill-rule="evenodd" />
		</g>
		<g>
			<text fill="#595959" font-family="Verdana,Open Sans,DejaVu Sans,sans-serif" font-weight="400" font-size="41" transform="matrix(6.12323e-17 -1 1 6.12323e-17 3247.21826171875 1194.1733322143555)">30-Jun</text>
		</g>
		<g>
			<text fill="#595959" font-family="Verdana,Open Sans,DejaVu Sans,sans-serif" font-weight="400" font-size="41" transform="matrix(6.12323e-17 -1 1 6.12323e-17 3330.082801231971 1179.0385665893555)">28-Jul</text>
		</g>
		<g>
			<text fill="#595959" font-family="Verdana,Open Sans,DejaVu Sans,sans-serif" font-weight="400" font-size="41" transform="matrix(6.12323e-17 -1 1 6.12323e-17 3412.5769794170674 1208.66748046875)">25-Aug</text>
		</g>
		<g>
			<text fill="#595959" font-family="Verdana,Open Sans,DejaVu Sans,sans-serif" font-weight="400" font-size="41" transform="matrix(6.12323e-17 -1 1 6.12323e-17 3494.7308255709136 1204.42333984375)">22-Sep</text>
		</g>
		<g>
			<text fill="#595959" font-family="Verdana,Open Sans,DejaVu Sans,sans-serif" font-weight="400" font-size="41" transform="matrix(6.12323e-17 -1 1 6.12323e-17 3572.1800818810098 1201.1401290893555)">20-Oct</text>
		</g>
		<g>
			<text fill="#595959" font-family="Verdana,Open Sans,DejaVu Sans,sans-serif" font-weight="400" font-size="41" transform="matrix(6.12323e-17 -1 1 6.12323e-17 3654.103703425481 1209.70849609375)">17-Nov</text>
		</g>
		<g>
			<text fill="#595959" font-family="Verdana,Open Sans,DejaVu Sans,sans-serif" font-weight="400" font-size="41" transform="matrix(6.12323e-17 -1 1 6.12323e-17 3736.257549579327 1205.3642578125)">15-Dec</text>
		</g>
		<g>
			<text fill="#595959" font-family="Verdana,Open Sans,DejaVu Sans,sans-serif" font-weight="400" font-size="41" transform="matrix(6.12323e-17 -1 1 6.12323e-17 3822.275165264423 1189.9291915893555)">12-Jan</text>
		</g>
		<g>
			<text fill="#595959" font-family="Verdana,Open Sans,DejaVu Sans,sans-serif" font-weight="400" font-size="41" transform="matrix(6.12323e-17 -1 1 6.12323e-17 3901.5061598557695 1203.0419921875)">09-Feb</text>
		</g>
		<g>
			<text fill="#595959" font-family="Verdana,Open Sans,DejaVu Sans,sans-serif" font-weight="400" font-size="41" transform="matrix(6.12323e-17 -1 1 6.12323e-17 3982.9493126502402 1212.0107421875)">09-Mar</text>
		</g>
		<g>
			<text fill="#595959" font-family="Verdana,Open Sans,DejaVu Sans,sans-serif" font-weight="400" font-size="41" transform="matrix(6.12323e-17 -1 1 6.12323e-17 4069.827768179087 1203.2621994018555)">06-Apr</text>
		</g>
		<g>
			<text fill="#595959" font-family="Verdana,Open Sans,DejaVu Sans,sans-serif" font-weight="400" font-size="41" transform="matrix(6.12323e-17 -1 1 6.12323e-17 4151.981614332933 1216.47509765625)">04-May</text>
		</g>
		<g>
			<text fill="#595959" font-family="Verdana,Open Sans,DejaVu Sans,sans-serif" font-weight="400" font-size="41" transform="matrix(6.12323e-17 -1 1 6.12323e-17 4233.064415564904 1194.0131759643555)">01-Jun</text>
		</g>
		<g>
			<text fill="#595959" font-family="Verdana,Open Sans,DejaVu Sans,sans-serif" font-weight="400" font-size="41" transform="matrix(6.12323e-17 -1 1 6.12323e-17 4315.1982421875 1194.0532150268555)">29-Jun</text>
		</g>
		<g>
			<text fill="#595959" font-family="Verdana,Open Sans,DejaVu Sans,sans-serif" font-weight="400" font-size="41" transform="matrix(1 0 0 1 3135.4482421875 1050)">0%</text>
		</g>
		<g>
			<text fill="#595959" font-family="Verdana,Open Sans,DejaVu Sans,sans-serif" font-weight="400" font-size="41" transform="matrix(1 0 0 1 3111.96533203125 922)">20%</text>
		</g>
		<g>
			<text fill="#595959" font-family="Verdana,Open Sans,DejaVu Sans,sans-serif" font-weight="400" font-size="41" transform="matrix(1 0 0 1 3110.82421875 794)">40%</text>
		</g>
		<g>
			<text fill="#595959" font-family="Verdana,Open Sans,DejaVu Sans,sans-serif" font-weight="400" font-size="41" transform="matrix(1 0 0 1 3112.3056640625 666)">60%</text>
		</g>
		<g>
			<text fill="#595959" font-family="Verdana,Open Sans,DejaVu Sans,sans-serif" font-weight="400" font-size="41" transform="matrix(1 0 0 1 3112.04541015625 538)">80%</text>
		</g>
		<g>
			<text fill="#595959" font-family="Verdana,Open Sans,DejaVu Sans,sans-serif" font-weight="400" font-size="41" transform="matrix(1 0 0 1 3090.2841796875 410)">100%</text>
		</g>
		<g>
			<text fill="#595959" font-family="Verdana,Open Sans,DejaVu Sans,sans-serif" font-weight="400" font-size="41" transform="matrix(1 0 0 1 3556.97119140625 1321)">Week Commencing</text>
		</g>
		<g>
			<text fill="#595959" font-family="Verdana,Open Sans,DejaVu Sans,sans-serif" font-weight="400" font-size="46" transform="matrix(6.12323e-17 -1 1 6.12323e-17 3019.73 936.7665710449219)">Requests (% of Total)</text>
		</g>
		<rect x="2918.5" y="347.5" width="1760" height="1043" stroke="#D9D9D9" stroke-width="3.4375" stroke-linejoin="round" stroke-miterlimit="10" fill="none" />
		<g>
			<path d="M3228.5 1038 3249.0384615384614 1038 3269.576923076923 1038 3290.1153846153848 1038 3310.653846153846 1038 3331.1923076923076 1038 3351.730769230769 1038 3372.269230769231 1038 3392.8076923076924 1038 3413.346153846154 1038 3433.8846153846152 1038 3454.423076923077 1038 3474.9615384615386 1038 3495.5 1038 3516.0384615384614 1038 3536.576923076923 1038 3557.1153846153848 1038 3577.653846153846 1038 3598.1923076923076 1038 3618.7307692307695 1038 3639.269230769231 1038 3659.8076923076924 1038 3680.346153846154 1038 3700.8846153846152 1038 3721.423076923077 1038 3741.9615384615386 1038 3762.5 1038 3783.0384615384614 1038 3803.576923076923 1038 3824.1153846153848 1038 3844.653846153846 1038 3865.1923076923076 1038 3885.7307692307695 1038 3906.269230769231 1038 3926.8076923076924 1038 3947.346153846154 1038 3967.8846153846152 1038 3988.423076923077 1038 4008.9615384615386 1038 4029.5 1038 4050.038461538462 1038 4070.576923076923 1038 4091.1153846153848 1038 4111.653846153846 1038 4132.192307692308 1038 4152.7307692307695 1038 4173.2692307692305 1038 4193.807692307692 1038 4214.346153846154 1038 4234.884615384615 1038 4255.423076923077 1038 4275.961538461539 1038 4296.5 1038 4296.5 437.9084623056291 4275.961538461539 437.6239137141273 4255.423076923077 437.6049218138388 4234.884615384615 437.66539534758147 4214.346153846154 437.23330094896914 4193.807692307692 437.2252678895536 4173.2692307692305 437.2266571256755 4152.7307692307695 437.41933993409225 4132.192307692308 437.77571312198756 4111.653846153846 437.9538782171219 4091.1153846153848 438.04589818914667 4070.576923076923 438.30346732909925 4050.038461538462 437.9330255815296 4029.5 437.830120525933 4008.9615384615386 437.4274922428566 3988.423076923077 437.5327918592636 3967.8846153846152 437.70848432679963 3947.346153846154 437.8791578329525 3926.8076923076924 438.2569100073033 3906.269230769231 438.25416567656384 3885.7307692307695 438.2284066200755 3865.1923076923076 438.4018523571715 3844.653846153846 438.2585045087485 3824.1153846153848 438.1419455028754 3803.576923076923 438.1490336079519 3783.0384615384614 438.2753528850003 3762.5 438.3712938024157 3741.9615384615386 438.93844580645873 3721.423076923077 438.66009075050135 3700.8846153846152 438.6550093538849 3680.346153846154 438.8753603320732 3659.8076923076924 440.072777946987 3639.269230769231 439.54649540853677 3618.7307692307695 439.7648762802967 3598.1923076923076 440.0929578933227 3577.653846153846 440.1107731424996 3557.1153846153848 440.17666153343987 3536.576923076923 440.17259352262283 3516.0384615384614 440.3280263296216 3495.5 440.34799215358134 3474.9615384615386 440.40616975209355 3454.423076923077 440.40760550465325 3433.8846153846152 440.94196380839696 3413.346153846154 441.17078340782746 3392.8076923076924 441.17336955313306 3372.269230769231 441.3391880005887 3351.730769230769 441.48654078274615 3331.1923076923076 441.48316478044603 3310.653846153846 441.484756503997 3290.1153846153848 441.489616515065 3269.576923076923 441.29796426599523 3249.0384615384614 441.72595383903854 3228.5 442.8417422387853 3228.5 1038Z" fill="#e62d39" opacity="0.9" />
		</g>
		<g>
			<path d="M3228.5 442.8417422387853 3249.0384615384614 441.72595383903854 3269.576923076923 441.29796426599523 3290.1153846153848 441.489616515065 3310.653846153846 441.484756503997 3331.1923076923076 441.48316478044603 3351.730769230769 441.48654078274615 3372.269230769231 441.3391880005887 3392.8076923076924 441.17336955313306 3413.346153846154 441.17078340782746 3433.8846153846152 440.94196380839696 3454.423076923077 440.40760550465325 3474.9615384615386 440.40616975209355 3495.5 440.34799215358134 3516.0384615384614 440.3280263296216 3536.576923076923 440.17259352262283 3557.1153846153848 440.17666153343987 3577.653846153846 440.1107731424996 3598.1923076923076 440.0929578933227 3618.7307692307695 439.7648762802967 3639.269230769231 439.54649540853677 3659.8076923076924 440.072777946987 3680.346153846154 438.8753603320732 3700.8846153846152 438.6550093538849 3721.423076923077 438.66009075050135 3741.9615384615386 438.93844580645873 3762.5 438.3712938024157 3783.0384615384614 438.2753528850003 3803.576923076923 438.1490336079519 3824.1153846153848 438.1419455028754 3844.653846153846 438.2585045087485 3865.1923076923076 438.4018523571715 3885.7307692307695 438.2284066200755 3906.269230769231 438.25416567656384 3926.8076923076924 438.2569100073033 3947.346153846154 437.8791578329525 3967.8846153846152 437.70848432679963 3988.423076923077 437.5327918592636 4008.9615384615386 437.4274922428566 4029.5 437.830120525933 4050.038461538462 437.9330255815296 4070.576923076923 438.30346732909925 4091.1153846153848 438.04589818914667 4111.653846153846 437.9538782171219 4132.192307692308 437.77571312198756 4152.7307692307695 437.41933993409225 4173.2692307692305 437.2266571256755 4193.807692307692 437.2252678895536 4214.346153846154 437.23330094896914 4234.884615384615 437.66539534758147 4255.423076923077 437.6049218138388 4275.961538461539 437.6239137141273 4296.5 437.9084623056291 4296.5 398 4275.961538461539 398.00000000000006 4255.423076923077 398 4234.884615384615 398 4214.346153846154 397.99999999999994 4193.807692307692 397.99999999999994 4173.2692307692305 398.00000000000006 4152.7307692307695 397.99999999999994 4132.192307692308 398 4111.653846153846 398 4091.1153846153848 398 4070.576923076923 398 4050.038461538462 398.00000000000006 4029.5 398 4008.9615384615386 398 3988.423076923077 398 3967.8846153846152 397.99999999999994 3947.346153846154 398 3926.8076923076924 397.99999999999994 3906.269230769231 398 3885.7307692307695 398 3865.1923076923076 398.00000000000006 3844.653846153846 398 3824.1153846153848 397.99999999999994 3803.576923076923 398 3783.0384615384614 398.00000000000006 3762.5 398 3741.9615384615386 398 3721.423076923077 398 3700.8846153846152 398.00000000000006 3680.346153846154 398 3659.8076923076924 398 3639.269230769231 398 3618.7307692307695 398.00000000000006 3598.1923076923076 398 3577.653846153846 398 3557.1153846153848 398.00000000000006 3536.576923076923 398 3516.0384615384614 398.00000000000006 3495.5 398.00000000000006 3474.9615384615386 398.0000000000001 3454.423076923077 398 3433.8846153846152 398 3413.346153846154 398 3392.8076923076924 397.99999999999994 3372.269230769231 398 3351.730769230769 398 3331.1923076923076 397.99999999999994 3310.653846153846 398 3290.1153846153848 398 3269.576923076923 397.99999999999994 3249.0384615384614 398 3228.5 398 3228.5 442.8417422387853Z" fill="#005aa6" opacity="0.9" />
		</g>
		<g>
			<rect x="4372" y="431" width="22.9995" height="23" fill="#e62d39" />
		</g>
		<g>
			<text fill="#595959" font-family="Verdana,Open Sans,DejaVu Sans,sans-serif" font-weight="400" font-size="41" transform="matrix(1 0 0 1 4404.56 454)">Non-Crawler</text>
		</g>
		<g>
			<rect x="4372" y="508" width="22.9995" height="23" fill="#005aa6" />
		</g>
		<g>
			<text fill="#595959" font-family="Verdana,Open Sans,DejaVu Sans,sans-serif" font-weight="400" font-size="41" transform="matrix(1 0 0 1 4404.56 531)">Crawler</text>
		</g>
	</g>
</svg>
