<svg width="1763" height="1046"
    xmlns="http://www.w3.org/2000/svg"
	xmlns:xlink="http://www.w3.org/1999/xlink" xml:space="preserve" overflow="hidden">
	<defs>
		<clipPath id="clip0">
			<rect x="2917" y="346" width="1763" height="1046"/>
		</clipPath>
	</defs>
	<g clip-path="url(#clip0)" transform="translate(-2917 -346)">
		<rect x="2918" y="347" width="1760" height="1043" fill="#FFFFFF" />
		<g>
			<path d="
			M3228.5 974.532 4296.5 974.532
			M3228.5 910.53 4296.5 910.53
			M3228.5 846.528 4296.5 846.528
			M3228.5 781.526 4296.5 781.526
			M3228.5 717.524 4296.5 717.524
			M3228.5 653.522 4296.5 653.522
			M3228.5 589.52 4296.5 589.52
			M3228.5 525.517 4296.5 525.517
			M3228.5 461.515 4296.5 461.515
			M3228.5 397.5 4296.5 397.5" stroke="#D9D9D9" stroke-width="3.4375" stroke-linejoin="round" stroke-miterlimit="10" fill="none" />
		</g>
		<g>
			<path d="M 1038.5 4296.5 1038.5" stroke="#D9D9D9" stroke-width="3.4375" stroke-linejoin="round" stroke-miterlimit="10" fill="none" fill-rule="evenodd" />
		</g>
		<g>
			<text fill="#595959" font-family="Verdana,sans-serif" font-weight="400" font-size="41" transform="matrix(6.12323e-17 -1 1 6.12323e-17 3244.5 1225)">06-Nov</text>
		</g>
		<g>
			<text fill="#595959" font-family="Verdana,sans-serif" font-weight="400" font-size="41" transform="matrix(6.12323e-17 -1 1 6.12323e-17 3359.9594594594596 1223)">04-Dec</text>
		</g>
		<g>
			<text fill="#595959" font-family="Verdana,sans-serif" font-weight="400" font-size="41" transform="matrix(6.12323e-17 -1 1 6.12323e-17 3475.4189189189187 1210)">01-Jan</text>
		</g>
		<g>
			<text fill="#595959" font-family="Verdana,sans-serif" font-weight="400" font-size="41" transform="matrix(6.12323e-17 -1 1 6.12323e-17 3590.8783783783783 1210)">29-Jan</text>
		</g>
		<g>
			<text fill="#595959" font-family="Verdana,sans-serif" font-weight="400" font-size="41" transform="matrix(6.12323e-17 -1 1 6.12323e-17 3706.337837837838 1216)">26-Feb</text>
		</g>
		<g>
			<text fill="#595959" font-family="Verdana,sans-serif" font-weight="400" font-size="41" transform="matrix(6.12323e-17 -1 1 6.12323e-17 3821.7972972972975 1223)">25-Mar</text>
		</g>
		<g>
			<text fill="#595959" font-family="Verdana,sans-serif" font-weight="400" font-size="41" transform="matrix(6.12323e-17 -1 1 6.12323e-17 3940.7567567567567 1216)">22-Apr</text>
		</g>
		<g>
			<text fill="#595959" font-family="Verdana,sans-serif" font-weight="400" font-size="41" transform="matrix(6.12323e-17 -1 1 6.12323e-17 4056.2162162162163 1228)">20-May</text>
		</g>
		<g>
			<text fill="#595959" font-family="Verdana,sans-serif" font-weight="400" font-size="41" transform="matrix(6.12323e-17 -1 1 6.12323e-17 4167.675675675676 1209)">17-Jun</text>
		</g>
		<g>
			<text fill="#595959" font-family="Verdana,sans-serif" font-weight="400" font-size="41" transform="matrix(6.12323e-17 -1 1 6.12323e-17 4283.635135135135 1194)">15-Jul</text>
		</g>
		<g>
			<text fill="#595959" font-family="Verdana,sans-serif" font-weight="400" font-size="41" transform="matrix(1 0 0 1 3123.5 1050)">0%</text>
		</g>
		<g>
			<text fill="#595959" font-family="Verdana,sans-serif" font-weight="400" font-size="41" transform="matrix(1 0 0 1 3097.5 922)">20%</text>
		</g>
		<g>
			<text fill="#595959" font-family="Verdana,sans-serif" font-weight="400" font-size="41" transform="matrix(1 0 0 1 3096.5 794)">40%</text>
		</g>
		<g>
			<text fill="#595959" font-family="Verdana,sans-serif" font-weight="400" font-size="41" transform="matrix(1 0 0 1 3097.5 666)">60%</text>
		</g>
		<g>
			<text fill="#595959" font-family="Verdana,sans-serif" font-weight="400" font-size="41" transform="matrix(1 0 0 1 3097.5 538)">80%</text>
		</g>
		<g>
			<text fill="#595959" font-family="Verdana,sans-serif" font-weight="400" font-size="41" transform="matrix(1 0 0 1 3074.5 410)">100%</text>
		</g>
		<g>
			<text fill="#595959" font-family="Verdana,sans-serif" font-weight="400" font-size="41" transform="matrix(1 0 0 1 3544.5 1321)">Week Commencing</text>
		</g>
		<g>
			<text fill="#595959" font-family="Verdana,sans-serif" font-weight="400" font-size="46" transform="matrix(6.12323e-17 -1 1 6.12323e-17 3019.73 965.25)">Requests (% of Total)</text>
		</g>
		<rect x="2918.5" y="347.5" width="1760" height="1043" stroke="#D9D9D9" stroke-width="3.4375" stroke-linejoin="round" stroke-miterlimit="10" fill="none" />
		<g>
			<path d="M3228.5 1038 3257.364864864865 1038 3286.2297297297296 1038 3315.0945945945946 1038 3343.9594594594596 1038 3372.824324324324 1038 3401.689189189189 1038 3430.554054054054 1038 3459.4189189189187 1038 3488.2837837837837 1038 3517.1486486486488 1038 3546.0135135135133 1038 3574.8783783783783 1038 3603.7432432432433 1038 3632.608108108108 1038 3661.472972972973 1038 3690.337837837838 1038 3719.2027027027025 1038 3748.0675675675675 1038 3776.9324324324325 1038 3805.7972972972975 1038 3834.662162162162 1038 3863.527027027027 1038 3892.3918918918916 1038 3921.2567567567567 1038 3950.1216216216217 1038 3978.9864864864867 1038 4007.8513513513512 1038 4036.7162162162163 1038 4065.581081081081 1038 4094.445945945946 1038 4123.310810810811 1038 4152.175675675676 1038 4181.040540540541 1038 4209.905405405405 1038 4238.77027027027 1038 4267.635135135135 1038 4296.5 1038 4296.5 572.7332415748011 4267.635135135135 572.862060937991 4238.77027027027 572.9365512268143 4209.905405405405 572.8940388940463 4181.040540540541 572.4651830343407 4152.175675675676 572.6325422225004 4123.310810810811 571.5082651331143 4094.445945945946 572.2322344669446 4065.581081081081 572.7455283998808 4036.7162162162163 573.7260592446937 4007.8513513513512 574.7878423335366 3978.9864864864867 575.6290427379265 3950.1216216216217 575.9687876322813 3921.2567567567567 576.8727971406818 3892.3918918918916 578.2473295586981 3863.527027027027 579.8301495425726 3834.662162162162 581.4258071436993 3805.7972972972975 583.4353029706369 3776.9324324324325 585.2297796683877 3748.0675675675675 569.3763139485983 3719.2027027027025 569.4920790789085 3690.337837837838 568.4210223578364 3661.472972972973 567.328661211755 3632.608108108108 566.161104092279 3603.7432432432433 566.5630760901624 3574.8783783783783 566.9371867374394 3546.0135135135133 565.7434322908556 3517.1486486486488 565.3329344965637 3488.2837837837837 567.1306424721515 3459.4189189189187 546.6361313386333 3430.554054054054 547.2360643741254 3401.689189189189 547.9846296844262 3372.824324324324 551.0672526834712 3343.9594594594596 550.9210452859504 3315.0945945945946 550.9050574683862 3286.2297297297296 550.8533354714161 3257.364864864865 550.7560734149703 3228.5 551.2665692392751 3228.5 1038Z" fill="#e62d39" opacity="0.9" />
		</g>
		<g>
			<path d="M3228.5 551.2665692392751 3257.364864864865 550.7560734149703 3286.2297297297296 550.8533354714161 3315.0945945945946 550.9050574683862 3343.9594594594596 550.9210452859504 3372.824324324324 551.0672526834712 3401.689189189189 547.9846296844262 3430.554054054054 547.2360643741254 3459.4189189189187 546.6361313386333 3488.2837837837837 567.1306424721515 3517.1486486486488 565.3329344965637 3546.0135135135133 565.7434322908556 3574.8783783783783 566.9371867374394 3603.7432432432433 566.5630760901624 3632.608108108108 566.161104092279 3661.472972972973 567.328661211755 3690.337837837838 568.4210223578364 3719.2027027027025 569.4920790789085 3748.0675675675675 569.3763139485983 3776.9324324324325 585.2297796683877 3805.7972972972975 583.4353029706369 3834.662162162162 581.4258071436993 3863.527027027027 579.8301495425726 3892.3918918918916 578.2473295586981 3921.2567567567567 576.8727971406818 3950.1216216216217 575.9687876322813 3978.9864864864867 575.6290427379265 4007.8513513513512 574.7878423335366 4036.7162162162163 573.7260592446937 4065.581081081081 572.7455283998808 4094.445945945946 572.2322344669446 4123.310810810811 571.5082651331143 4152.175675675676 572.6325422225004 4181.040540540541 572.4651830343407 4209.905405405405 572.8940388940463 4238.77027027027 572.9365512268143 4267.635135135135 572.862060937991 4296.5 572.7332415748011 4296.5 398 4267.635135135135 397.99999999999994 4238.77027027027 398.00000000000006 4209.905405405405 398 4181.040540540541 398 4152.175675675676 398 4123.310810810811 397.99999999999994 4094.445945945946 398.0000000000001 4065.581081081081 398 4036.7162162162163 398 4007.8513513513512 398.00000000000006 3978.9864864864867 398 3950.1216216216217 398 3921.2567567567567 397.99999999999994 3892.3918918918916 397.99999999999994 3863.527027027027 398.0000000000001 3834.662162162162 398 3805.7972972972975 398 3776.9324324324325 398 3748.0675675675675 398 3719.2027027027025 398.00000000000006 3690.337837837838 398.00000000000006 3661.472972972973 398 3632.608108108108 398.00000000000006 3603.7432432432433 397.99999999999994 3574.8783783783783 398 3546.0135135135133 398 3517.1486486486488 397.99999999999994 3488.2837837837837 398.00000000000006 3459.4189189189187 398 3430.554054054054 398.0000000000001 3401.689189189189 398 3372.824324324324 398 3343.9594594594596 398 3315.0945945945946 398 3286.2297297297296 398 3257.364864864865 398 3228.5 398 3228.5 551.2665692392751Z" fill="#005aa6" opacity="0.9" />
		</g>
		<g>
			<rect x="4372" y="431" width="22.9995" height="23" fill="#e62d39" />
		</g>
		<g>
			<text fill="#595959" font-family="Verdana,sans-serif" font-weight="400" font-size="41" transform="matrix(1 0 0 1 4404.56 454)">Non-Crawler</text>
		</g>
		<g>
			<rect x="4372" y="508" width="22.9995" height="23" fill="#005aa6" />
		</g>
		<g>
			<text fill="#595959" font-family="Verdana,sans-serif" font-weight="400" font-size="41" transform="matrix(1 0 0 1 4404.56 531)">Crawler</text>
		</g>
	</g>
</svg>
