<svg width="1763" height="1046"
    xmlns="http://www.w3.org/2000/svg"
	xmlns:xlink="http://www.w3.org/1999/xlink" xml:space="preserve" overflow="hidden">
	<defs>
		<clipPath id="clip0">
			<rect x="2917" y="346" width="1763" height="1046"/>
		</clipPath>
	</defs>
	<g clip-path="url(#clip0)" transform="translate(-2917 -346)">
		<rect x="2918" y="347" width="1760" height="1043" fill="#FFFFFF" />
		<g>
			<path d="
			M3228.5 974.532 4296.5 974.532
			M3228.5 910.53 4296.5 910.53
			M3228.5 846.528 4296.5 846.528
			M3228.5 781.526 4296.5 781.526
			M3228.5 717.524 4296.5 717.524
			M3228.5 653.522 4296.5 653.522
			M3228.5 589.52 4296.5 589.52
			M3228.5 525.517 4296.5 525.517
			M3228.5 461.515 4296.5 461.515
			M3228.5 397.5 4296.5 397.5" stroke="#D9D9D9" stroke-width="3.4375" stroke-linejoin="round" stroke-miterlimit="10" fill="none" />
		</g>
		<g>
			<path d="M 1038.5 4296.5 1038.5" stroke="#D9D9D9" stroke-width="3.4375" stroke-linejoin="round" stroke-miterlimit="10" fill="none" fill-rule="evenodd" />
		</g>
		<g>
			<text fill="#595959" font-family="Verdana,Open Sans,DejaVu Sans,sans-serif" font-weight="400" font-size="41" transform="matrix(6.12323e-17 -1 1 6.12323e-17 3247.928955078125 1178.9985275268555)">07-Jul</text>
		</g>
		<g>
			<text fill="#595959" font-family="Verdana,Open Sans,DejaVu Sans,sans-serif" font-weight="400" font-size="41" transform="matrix(6.12323e-17 -1 1 6.12323e-17 3330.443152794471 1208.62744140625)">04-Aug</text>
		</g>
		<g>
			<text fill="#595959" font-family="Verdana,Open Sans,DejaVu Sans,sans-serif" font-weight="400" font-size="41" transform="matrix(6.12323e-17 -1 1 6.12323e-17 3412.5969989483174 1204.38330078125)">01-Sep</text>
		</g>
		<g>
			<text fill="#595959" font-family="Verdana,Open Sans,DejaVu Sans,sans-serif" font-weight="400" font-size="41" transform="matrix(6.12323e-17 -1 1 6.12323e-17 3494.7308255709136 1204.42333984375)">29-Sep</text>
		</g>
		<g>
			<text fill="#595959" font-family="Verdana,Open Sans,DejaVu Sans,sans-serif" font-weight="400" font-size="41" transform="matrix(6.12323e-17 -1 1 6.12323e-17 3572.1800818810098 1201.1401290893555)">27-Oct</text>
		</g>
		<g>
			<text fill="#595959" font-family="Verdana,Open Sans,DejaVu Sans,sans-serif" font-weight="400" font-size="41" transform="matrix(6.12323e-17 -1 1 6.12323e-17 3654.313908503606 1211.47021484375)">24-Nov</text>
		</g>
		<g>
			<text fill="#595959" font-family="Verdana,Open Sans,DejaVu Sans,sans-serif" font-weight="400" font-size="41" transform="matrix(6.12323e-17 -1 1 6.12323e-17 3736.467754657452 1207.1259765625)">22-Dec</text>
		</g>
		<g>
			<text fill="#595959" font-family="Verdana,Open Sans,DejaVu Sans,sans-serif" font-weight="400" font-size="41" transform="matrix(6.12323e-17 -1 1 6.12323e-17 3822.275165264423 1189.9291915893555)">19-Jan</text>
		</g>
		<g>
			<text fill="#595959" font-family="Verdana,Open Sans,DejaVu Sans,sans-serif" font-weight="400" font-size="41" transform="matrix(6.12323e-17 -1 1 6.12323e-17 3901.5061598557695 1201.3203125)">16-Feb</text>
		</g>
		<g>
			<text fill="#595959" font-family="Verdana,Open Sans,DejaVu Sans,sans-serif" font-weight="400" font-size="41" transform="matrix(6.12323e-17 -1 1 6.12323e-17 3982.9292931189902 1210.2890625)">16-Mar</text>
		</g>
		<g>
			<text fill="#595959" font-family="Verdana,Open Sans,DejaVu Sans,sans-serif" font-weight="400" font-size="41" transform="matrix(6.12323e-17 -1 1 6.12323e-17 4069.807748647837 1201.5405197143555)">13-Apr</text>
		</g>
		<g>
			<text fill="#595959" font-family="Verdana,Open Sans,DejaVu Sans,sans-serif" font-weight="400" font-size="41" transform="matrix(6.12323e-17 -1 1 6.12323e-17 4151.751389723558 1214.75341796875)">11-May</text>
		</g>
		<g>
			<text fill="#595959" font-family="Verdana,Open Sans,DejaVu Sans,sans-serif" font-weight="400" font-size="41" transform="matrix(6.12323e-17 -1 1 6.12323e-17 4233.064415564904 1194.0131759643555)">08-Jun</text>
		</g>
		<g>
			<text fill="#595959" font-family="Verdana,Open Sans,DejaVu Sans,sans-serif" font-weight="400" font-size="41" transform="matrix(6.12323e-17 -1 1 6.12323e-17 4315.928955078125 1178.9985275268555)">06-Jul</text>
		</g>
		<g>
			<text fill="#595959" font-family="Verdana,Open Sans,DejaVu Sans,sans-serif" font-weight="400" font-size="41" transform="matrix(1 0 0 1 3169.14111328125 1050)">0</text>
		</g>
		<g>
			<text fill="#595959" font-family="Verdana,Open Sans,DejaVu Sans,sans-serif" font-weight="400" font-size="41" transform="matrix(1 0 0 1 3152.8251953125 922)">81</text>
		</g>
		<g>
			<text fill="#595959" font-family="Verdana,Open Sans,DejaVu Sans,sans-serif" font-weight="400" font-size="41" transform="matrix(1 0 0 1 3131.0639686584473 794)">161</text>
		</g>
		<g>
			<text fill="#595959" font-family="Verdana,Open Sans,DejaVu Sans,sans-serif" font-weight="400" font-size="41" transform="matrix(1 0 0 1 3122.37548828125 666)">242</text>
		</g>
		<g>
			<text fill="#595959" font-family="Verdana,Open Sans,DejaVu Sans,sans-serif" font-weight="400" font-size="41" transform="matrix(1 0 0 1 3122.25537109375 538)">322</text>
		</g>
		<g>
			<text fill="#595959" font-family="Verdana,Open Sans,DejaVu Sans,sans-serif" font-weight="400" font-size="41" transform="matrix(1 0 0 1 3121.4345703125 410)">403</text>
		</g>
		<g>
			<text fill="#595959" font-family="Verdana,Open Sans,DejaVu Sans,sans-serif" font-weight="400" font-size="41" transform="matrix(1 0 0 1 3556.97119140625 1321)">Week Commencing</text>
		</g>
		<g>
			<text fill="#595959" font-family="Verdana,Open Sans,DejaVu Sans,sans-serif" font-weight="400" font-size="46" transform="matrix(6.12323e-17 -1 1 6.12323e-17 3019.73 1005.4858093261719)">Number of Crawler Profiles</text>
		</g>
		<rect x="2918.5" y="347.5" width="1760" height="1043" stroke="#D9D9D9" stroke-width="3.4375" stroke-linejoin="round" stroke-miterlimit="10" fill="none" />
		<g>
			<path d="M3228.5 1038 3249.0384615384614 1038 3269.576923076923 1038 3290.1153846153848 1038 3310.653846153846 1038 3331.1923076923076 1038 3351.730769230769 1038 3372.269230769231 1038 3392.8076923076924 1038 3413.346153846154 1038 3433.8846153846152 1038 3454.423076923077 1038 3474.9615384615386 1038 3495.5 1038 3516.0384615384614 1038 3536.576923076923 1038 3557.1153846153848 1038 3577.653846153846 1038 3598.1923076923076 1038 3618.7307692307695 1038 3639.269230769231 1038 3659.8076923076924 1038 3680.346153846154 1038 3700.8846153846152 1038 3721.423076923077 1038 3741.9615384615386 1038 3762.5 1038 3783.0384615384614 1038 3803.576923076923 1038 3824.1153846153848 1038 3844.653846153846 1038 3865.1923076923076 1038 3885.7307692307695 1038 3906.269230769231 1038 3926.8076923076924 1038 3947.346153846154 1038 3967.8846153846152 1038 3988.423076923077 1038 4008.9615384615386 1038 4029.5 1038 4050.038461538462 1038 4070.576923076923 1038 4091.1153846153848 1038 4111.653846153846 1038 4132.192307692308 1038 4152.7307692307695 1038 4173.2692307692305 1038 4193.807692307692 1038 4214.346153846154 1038 4234.884615384615 1038 4255.423076923077 1038 4275.961538461539 1038 4296.5 1038 4296.5 399.5880893300248 4275.961538461539 399.5880893300248 4255.423076923077 401.1761786600496 4234.884615384615 404.35235732009926 4214.346153846154 404.35235732009926 4193.807692307692 423.40942928039703 4173.2692307692305 428.1736972704714 4152.7307692307695 428.1736972704714 4132.192307692308 428.1736972704714 4111.653846153846 428.1736972704714 4091.1153846153848 428.1736972704714 4070.576923076923 431.3498759305211 4050.038461538462 437.70223325062034 4029.5 437.70223325062034 4008.9615384615386 437.70223325062034 3988.423076923077 453.5831265508684 3967.8846153846152 453.5831265508684 3947.346153846154 453.5831265508684 3926.8076923076924 456.7593052109181 3906.269230769231 459.9354838709677 3885.7307692307695 456.7593052109181 3865.1923076923076 464.69975186104216 3844.653846153846 485.3449131513647 3824.1153846153848 486.9330024813895 3803.576923076923 488.5210918114144 3783.0384615384614 488.5210918114144 3762.5 488.5210918114144 3741.9615384615386 490.1091811414392 3721.423076923077 493.28535980148877 3700.8846153846152 494.87344913151367 3680.346153846154 496.46153846153845 3659.8076923076924 501.2258064516128 3639.269230769231 501.2258064516128 3618.7307692307695 501.2258064516128 3598.1923076923076 502.8138957816377 3577.653846153846 505.9900744416873 3557.1153846153848 505.9900744416873 3536.576923076923 505.9900744416873 3516.0384615384614 507.57816377171207 3495.5 507.57816377171207 3474.9615384615386 507.57816377171207 3454.423076923077 513.9305210918113 3433.8846153846152 513.9305210918113 3413.346153846154 513.9305210918113 3392.8076923076924 513.9305210918113 3372.269230769231 513.9305210918113 3351.730769230769 513.9305210918113 3331.1923076923076 513.9305210918113 3310.653846153846 513.9305210918113 3290.1153846153848 513.9305210918113 3269.576923076923 515.5186104218362 3249.0384615384614 515.5186104218362 3228.5 517.106699751861 3228.5 1038Z" fill="#005aa6" opacity="0.9" />
		</g>
		<g>
			<path d="M3228.5 517.106699751861 3249.0384615384614 515.5186104218362 3269.576923076923 515.5186104218362 3290.1153846153848 513.9305210918113 3310.653846153846 513.9305210918113 3331.1923076923076 513.9305210918113 3351.730769230769 513.9305210918113 3372.269230769231 513.9305210918113 3392.8076923076924 513.9305210918113 3413.346153846154 513.9305210918113 3433.8846153846152 513.9305210918113 3454.423076923077 513.9305210918113 3474.9615384615386 507.57816377171207 3495.5 507.57816377171207 3516.0384615384614 507.57816377171207 3536.576923076923 505.9900744416873 3557.1153846153848 505.9900744416873 3577.653846153846 505.9900744416873 3598.1923076923076 502.8138957816377 3618.7307692307695 501.2258064516128 3639.269230769231 501.2258064516128 3659.8076923076924 501.2258064516128 3680.346153846154 496.46153846153845 3700.8846153846152 494.87344913151367 3721.423076923077 493.28535980148877 3741.9615384615386 490.1091811414392 3762.5 488.5210918114144 3783.0384615384614 488.5210918114144 3803.576923076923 488.5210918114144 3824.1153846153848 486.9330024813895 3844.653846153846 485.3449131513647 3865.1923076923076 464.69975186104216 3885.7307692307695 456.7593052109181 3906.269230769231 459.9354838709677 3926.8076923076924 456.7593052109181 3947.346153846154 453.5831265508684 3967.8846153846152 453.5831265508684 3988.423076923077 453.5831265508684 4008.9615384615386 437.70223325062034 4029.5 437.70223325062034 4050.038461538462 437.70223325062034 4070.576923076923 431.3498759305211 4091.1153846153848 428.1736972704714 4111.653846153846 428.1736972704714 4132.192307692308 428.1736972704714 4152.7307692307695 428.1736972704714 4173.2692307692305 428.1736972704714 4193.807692307692 423.40942928039703 4214.346153846154 404.35235732009926 4234.884615384615 404.35235732009926 4255.423076923077 401.1761786600496 4275.961538461539 399.5880893300248 4296.5 399.5880893300248 4296.5 398 4275.961538461539 398 4255.423076923077 399.5880893300248 4234.884615384615 402.7642679900745 4214.346153846154 402.7642679900745 4193.807692307692 421.82133995037225 4173.2692307692305 426.5856079404466 4152.7307692307695 426.5856079404466 4132.192307692308 426.5856079404466 4111.653846153846 426.5856079404466 4091.1153846153848 426.5856079404466 4070.576923076923 429.7617866004963 4050.038461538462 436.11414392059555 4029.5 436.11414392059555 4008.9615384615386 436.11414392059555 3988.423076923077 451.99503722084364 3967.8846153846152 451.99503722084364 3947.346153846154 451.99503722084364 3926.8076923076924 455.1712158808933 3906.269230769231 456.75930521091806 3885.7307692307695 453.5831265508685 3865.1923076923076 463.1116625310174 3844.653846153846 483.75682382133994 3824.1153846153848 485.3449131513647 3803.576923076923 486.9330024813896 3783.0384615384614 486.9330024813896 3762.5 486.9330024813896 3741.9615384615386 488.5210918114144 3721.423076923077 491.697270471464 3700.8846153846152 493.2853598014889 3680.346153846154 494.87344913151367 3659.8076923076924 499.637717121588 3639.269230769231 499.637717121588 3618.7307692307695 499.637717121588 3598.1923076923076 501.2258064516129 3577.653846153846 504.4019851116625 3557.1153846153848 504.4019851116625 3536.576923076923 504.4019851116625 3516.0384615384614 505.9900744416873 3495.5 505.9900744416873 3474.9615384615386 505.9900744416873 3454.423076923077 512.3424317617865 3433.8846153846152 512.3424317617865 3413.346153846154 512.3424317617865 3392.8076923076924 512.3424317617865 3372.269230769231 512.3424317617865 3351.730769230769 512.3424317617865 3331.1923076923076 512.3424317617865 3310.653846153846 512.3424317617865 3290.1153846153848 512.3424317617865 3269.576923076923 513.9305210918114 3249.0384615384614 513.9305210918114 3228.5 515.5186104218362 3228.5 517.106699751861Z" fill="#e62d39" opacity="0.9" />
		</g>
		<g>
			<rect x="4372" y="431" width="22.9995" height="23" fill="#005aa6" />
		</g>
		<g>
			<text fill="#595959" font-family="Verdana,Open Sans,DejaVu Sans,sans-serif" font-weight="400" font-size="41" transform="matrix(1 0 0 1 4404.56 454)">Crawler</text>
		</g>
		<g>
			<rect x="4372" y="508" width="22.9995" height="23" fill="#e62d39" />
		</g>
		<g>
			<text fill="#595959" font-family="Verdana,Open Sans,DejaVu Sans,sans-serif" font-weight="400" font-size="41" transform="matrix(1 0 0 1 4404.56 531)">Non-Crawler</text>
		</g>
	</g>
</svg>
