<svg width="1763" height="1046"
    xmlns="http://www.w3.org/2000/svg"
	xmlns:xlink="http://www.w3.org/1999/xlink" xml:space="preserve" overflow="hidden">
	<defs>
		<clipPath id="clip0">
			<rect x="2917" y="346" width="1763" height="1046"/>
		</clipPath>
	</defs>
	<g clip-path="url(#clip0)" transform="translate(-2917 -346)">
		<rect x="2918" y="347" width="1760" height="1043" fill="#FFFFFF" />
		<g>
			<path d="
			M3228.5 974.532 4296.5 974.532
			M3228.5 910.53 4296.5 910.53
			M3228.5 846.528 4296.5 846.528
			M3228.5 781.526 4296.5 781.526
			M3228.5 717.524 4296.5 717.524
			M3228.5 653.522 4296.5 653.522
			M3228.5 589.52 4296.5 589.52
			M3228.5 525.517 4296.5 525.517
			M3228.5 461.515 4296.5 461.515
			M3228.5 397.5 4296.5 397.5" stroke="#D9D9D9" stroke-width="3.4375" stroke-linejoin="round" stroke-miterlimit="10" fill="none" />
		</g>
		<g>
			<path d="M 1038.5 4296.5 1038.5" stroke="#D9D9D9" stroke-width="3.4375" stroke-linejoin="round" stroke-miterlimit="10" fill="none" fill-rule="evenodd" />
		</g>
		<g>
			<text fill="#595959" font-family="Verdana,sans-serif" font-weight="400" font-size="41" transform="matrix(6.12323e-17 -1 1 6.12323e-17 3248 1228)">27-May</text>
		</g>
		<g>
			<text fill="#595959" font-family="Verdana,sans-serif" font-weight="400" font-size="41" transform="matrix(6.12323e-17 -1 1 6.12323e-17 3329.94 1211)">24-Jun</text>
		</g>
		<g>
			<text fill="#595959" font-family="Verdana,sans-serif" font-weight="400" font-size="41" transform="matrix(6.12323e-17 -1 1 6.12323e-17 3415.38 1196)">22-Jul</text>
		</g>
		<g>
			<text fill="#595959" font-family="Verdana,sans-serif" font-weight="400" font-size="41" transform="matrix(6.12323e-17 -1 1 6.12323e-17 3504.32 1218)">19-Aug</text>
		</g>
		<g>
			<text fill="#595959" font-family="Verdana,sans-serif" font-weight="400" font-size="41" transform="matrix(6.12323e-17 -1 1 6.12323e-17 3589.76 1219)">16-Sep</text>
		</g>
		<g>
			<text fill="#595959" font-family="Verdana,sans-serif" font-weight="400" font-size="41" transform="matrix(6.12323e-17 -1 1 6.12323e-17 3671.7 1213)">14-Oct</text>
		</g>
		<g>
			<text fill="#595959" font-family="Verdana,sans-serif" font-weight="400" font-size="41" transform="matrix(6.12323e-17 -1 1 6.12323e-17 3756.64 1222)">11-Nov</text>
		</g>
		<g>
			<text fill="#595959" font-family="Verdana,sans-serif" font-weight="400" font-size="41" transform="matrix(6.12323e-17 -1 1 6.12323e-17 3842.08 1220)">16-Dec</text>
		</g>
		<g>
			<text fill="#595959" font-family="Verdana,sans-serif" font-weight="400" font-size="41" transform="matrix(6.12323e-17 -1 1 6.12323e-17 3928.02 1207)">13-Jan</text>
		</g>
		<g>
			<text fill="#595959" font-family="Verdana,sans-serif" font-weight="400" font-size="41" transform="matrix(6.12323e-17 -1 1 6.12323e-17 4013.46 1214)">10-Feb</text>
		</g>
		<g>
			<text fill="#595959" font-family="Verdana,sans-serif" font-weight="400" font-size="41" transform="matrix(6.12323e-17 -1 1 6.12323e-17 4098.9 1221)">10-Mar</text>
		</g>
		<g>
			<text fill="#595959" font-family="Verdana,sans-serif" font-weight="400" font-size="41" transform="matrix(6.12323e-17 -1 1 6.12323e-17 4187.84 1217)">07-Apr</text>
		</g>
		<g>
			<text fill="#595959" font-family="Verdana,sans-serif" font-weight="400" font-size="41" transform="matrix(6.12323e-17 -1 1 6.12323e-17 4273.28 1228)">05-May</text>
		</g>
		<g>
			<text fill="#595959" font-family="Verdana,sans-serif" font-weight="400" font-size="41" transform="matrix(1 0 0 1 3123.5 1050)">0%</text>
		</g>
		<g>
			<text fill="#595959" font-family="Verdana,sans-serif" font-weight="400" font-size="41" transform="matrix(1 0 0 1 3097.5 922)">20%</text>
		</g>
		<g>
			<text fill="#595959" font-family="Verdana,sans-serif" font-weight="400" font-size="41" transform="matrix(1 0 0 1 3096.5 794)">40%</text>
		</g>
		<g>
			<text fill="#595959" font-family="Verdana,sans-serif" font-weight="400" font-size="41" transform="matrix(1 0 0 1 3097.5 666)">60%</text>
		</g>
		<g>
			<text fill="#595959" font-family="Verdana,sans-serif" font-weight="400" font-size="41" transform="matrix(1 0 0 1 3097.5 538)">80%</text>
		</g>
		<g>
			<text fill="#595959" font-family="Verdana,sans-serif" font-weight="400" font-size="41" transform="matrix(1 0 0 1 3074.5 410)">100%</text>
		</g>
		<g>
			<text fill="#595959" font-family="Verdana,sans-serif" font-weight="400" font-size="41" transform="matrix(1 0 0 1 3544.5 1321)">Week Commencing</text>
		</g>
		<g>
			<text fill="#595959" font-family="Verdana,sans-serif" font-weight="400" font-size="46" transform="matrix(6.12323e-17 -1 1 6.12323e-17 3019.73 965.25)">Requests (% of Total)</text>
		</g>
		<rect x="2918.5" y="347.5" width="1760" height="1043" stroke="#D9D9D9" stroke-width="3.4375" stroke-linejoin="round" stroke-miterlimit="10" fill="none" />
		<g>
			<path d="M3228.5 1038 3249.86 1038 3271.22 1038 3292.58 1038 3313.94 1038 3335.3 1038 3356.66 1038 3378.02 1038 3399.38 1038 3420.74 1038 3442.1 1038 3463.46 1038 3484.82 1038 3506.18 1038 3527.54 1038 3548.9 1038 3570.26 1038 3591.62 1038 3612.98 1038 3634.34 1038 3655.7 1038 3677.06 1038 3698.42 1038 3719.7799999999997 1038 3741.14 1038 3762.5 1038 3783.86 1038 3805.2200000000003 1038 3826.58 1038 3847.94 1038 3869.3 1038 3890.66 1038 3912.02 1038 3933.38 1038 3954.74 1038 3976.1 1038 3997.46 1038 4018.8199999999997 1038 4040.18 1038 4061.54 1038 4082.9 1038 4104.26 1038 4125.62 1038 4146.98 1038 4168.34 1038 4189.7 1038 4211.0599999999995 1038 4232.42 1038 4253.78 1038 4275.139999999999 1038 4296.5 1038 4296.5 442.9453880046191 4275.139999999999 442.7539759175269 4253.78 442.4035157162202 4232.42 442.11056785584276 4211.0599999999995 441.83280494374446 4189.7 441.70333243098173 4168.34 441.6626940555466 4146.98 441.6573661278967 4125.62 441.5375979828307 4104.26 441.406683369976 4082.9 441.167209213907 4061.54 441.0289316920836 4040.18 441.03561787240676 4018.8199999999997 441.06205687573333 3997.46 441.14123809544583 3976.1 441.04668014176025 3954.74 441.3325461823914 3933.38 441.50673382811704 3912.02 441.5263210359809 3890.66 441.5338725099368 3869.3 441.5429030927178 3847.94 441.47417224977323 3826.58 441.4594945700171 3805.2200000000003 441.38808556766435 3783.86 441.3288056085928 3762.5 441.47308833726333 3741.14 441.645038932872 3719.7799999999997 441.9852131881347 3698.42 442.33307896966517 3677.06 566.5721783366624 3655.7 567.1308685788513 3634.34 567.5130485279316 3612.98 568.0135171374827 3591.62 568.6966145549849 3570.26 569.582505337425 3548.9 569.9559975833151 3527.54 570.7071585028136 3506.18 571.2237275515587 3484.82 571.9035338843237 3463.46 572.0631883952817 3442.1 572.5486893796854 3420.74 572.9112818795618 3399.38 572.7332415748011 3378.02 572.862060937991 3356.66 572.9365512268143 3335.3 572.8940388940463 3313.94 572.4651830343407 3292.58 572.6325422225004 3271.22 571.5082651331143 3249.86 572.2322344669446 3228.5 572.7455283998808 3228.5 1038Z" fill="#e62d39" opacity="0.9" />
		</g>
		<g>
			<path d="M3228.5 572.7455283998808 3249.86 572.2322344669446 3271.22 571.5082651331143 3292.58 572.6325422225004 3313.94 572.4651830343407 3335.3 572.8940388940463 3356.66 572.9365512268143 3378.02 572.862060937991 3399.38 572.7332415748011 3420.74 572.9112818795618 3442.1 572.5486893796854 3463.46 572.0631883952817 3484.82 571.9035338843237 3506.18 571.2237275515587 3527.54 570.7071585028136 3548.9 569.9559975833151 3570.26 569.582505337425 3591.62 568.6966145549849 3612.98 568.0135171374827 3634.34 567.5130485279316 3655.7 567.1308685788513 3677.06 566.5721783366624 3698.42 442.33307896966517 3719.7799999999997 441.9852131881347 3741.14 441.645038932872 3762.5 441.47308833726333 3783.86 441.3288056085928 3805.2200000000003 441.38808556766435 3826.58 441.4594945700171 3847.94 441.47417224977323 3869.3 441.5429030927178 3890.66 441.5338725099368 3912.02 441.5263210359809 3933.38 441.50673382811704 3954.74 441.3325461823914 3976.1 441.04668014176025 3997.46 441.14123809544583 4018.8199999999997 441.06205687573333 4040.18 441.03561787240676 4061.54 441.0289316920836 4082.9 441.167209213907 4104.26 441.406683369976 4125.62 441.5375979828307 4146.98 441.6573661278967 4168.34 441.6626940555466 4189.7 441.70333243098173 4211.0599999999995 441.83280494374446 4232.42 442.11056785584276 4253.78 442.4035157162202 4275.139999999999 442.7539759175269 4296.5 442.9453880046191 4296.5 398.00000000000006 4275.139999999999 397.99999999999994 4253.78 398 4232.42 398.00000000000006 4211.0599999999995 398 4189.7 398 4168.34 398 4146.98 398 4125.62 398.00000000000006 4104.26 398 4082.9 398 4061.54 398 4040.18 398 4018.8199999999997 397.99999999999994 3997.46 398 3976.1 398.00000000000006 3954.74 397.99999999999994 3933.38 398.00000000000006 3912.02 398 3890.66 398 3869.3 398 3847.94 398 3826.58 398.00000000000006 3805.2200000000003 398 3783.86 398 3762.5 398 3741.14 397.99999999999994 3719.7799999999997 398 3698.42 398 3677.06 398 3655.7 398 3634.34 398 3612.98 398 3591.62 398 3570.26 398 3548.9 398.00000000000006 3527.54 398 3506.18 398 3484.82 398 3463.46 398.00000000000006 3442.1 398 3420.74 397.99999999999994 3399.38 398 3378.02 397.99999999999994 3356.66 398.00000000000006 3335.3 398 3313.94 398 3292.58 398 3271.22 397.99999999999994 3249.86 398.0000000000001 3228.5 398 3228.5 572.7455283998808Z" fill="#005aa6" opacity="0.9" />
		</g>
		<g>
			<rect x="4372" y="431" width="22.9995" height="23" fill="#e62d39" />
		</g>
		<g>
			<text fill="#595959" font-family="Verdana,sans-serif" font-weight="400" font-size="41" transform="matrix(1 0 0 1 4404.56 454)">Non-Crawler</text>
		</g>
		<g>
			<rect x="4372" y="508" width="22.9995" height="23" fill="#005aa6" />
		</g>
		<g>
			<text fill="#595959" font-family="Verdana,sans-serif" font-weight="400" font-size="41" transform="matrix(1 0 0 1 4404.56 531)">Crawler</text>
		</g>
	</g>
</svg>
