<svg width="1763" height="1046"
    xmlns="http://www.w3.org/2000/svg"
	xmlns:xlink="http://www.w3.org/1999/xlink" xml:space="preserve" overflow="hidden">
	<defs>
		<clipPath id="clip0">
			<rect x="2917" y="346" width="1763" height="1046"/>
		</clipPath>
	</defs>
	<g clip-path="url(#clip0)" transform="translate(-2917 -346)">
		<rect x="2918" y="347" width="1760" height="1043" fill="#FFFFFF" />
		<g>
			<path d="
			M3228.5 974.532 4296.5 974.532
			M3228.5 910.53 4296.5 910.53
			M3228.5 846.528 4296.5 846.528
			M3228.5 781.526 4296.5 781.526
			M3228.5 717.524 4296.5 717.524
			M3228.5 653.522 4296.5 653.522
			M3228.5 589.52 4296.5 589.52
			M3228.5 525.517 4296.5 525.517
			M3228.5 461.515 4296.5 461.515
			M3228.5 397.5 4296.5 397.5" stroke="#D9D9D9" stroke-width="3.4375" stroke-linejoin="round" stroke-miterlimit="10" fill="none" />
		</g>
		<g>
			<path d="M 1038.5 4296.5 1038.5" stroke="#D9D9D9" stroke-width="3.4375" stroke-linejoin="round" stroke-miterlimit="10" fill="none" fill-rule="evenodd" />
		</g>
		<g>
			<text fill="#595959" font-family="Verdana,sans-serif" font-weight="400" font-size="41" transform="matrix(6.12323e-17 -1 1 6.12323e-17 3244.5 1225)">06-Nov</text>
		</g>
		<g>
			<text fill="#595959" font-family="Verdana,sans-serif" font-weight="400" font-size="41" transform="matrix(6.12323e-17 -1 1 6.12323e-17 3356.9210526315787 1223)">04-Dec</text>
		</g>
		<g>
			<text fill="#595959" font-family="Verdana,sans-serif" font-weight="400" font-size="41" transform="matrix(6.12323e-17 -1 1 6.12323e-17 3469.342105263158 1210)">01-Jan</text>
		</g>
		<g>
			<text fill="#595959" font-family="Verdana,sans-serif" font-weight="400" font-size="41" transform="matrix(6.12323e-17 -1 1 6.12323e-17 3581.7631578947367 1210)">29-Jan</text>
		</g>
		<g>
			<text fill="#595959" font-family="Verdana,sans-serif" font-weight="400" font-size="41" transform="matrix(6.12323e-17 -1 1 6.12323e-17 3694.184210526316 1216)">26-Feb</text>
		</g>
		<g>
			<text fill="#595959" font-family="Verdana,sans-serif" font-weight="400" font-size="41" transform="matrix(6.12323e-17 -1 1 6.12323e-17 3806.6052631578946 1223)">25-Mar</text>
		</g>
		<g>
			<text fill="#595959" font-family="Verdana,sans-serif" font-weight="400" font-size="41" transform="matrix(6.12323e-17 -1 1 6.12323e-17 3922.5263157894738 1216)">22-Apr</text>
		</g>
		<g>
			<text fill="#595959" font-family="Verdana,sans-serif" font-weight="400" font-size="41" transform="matrix(6.12323e-17 -1 1 6.12323e-17 4034.9473684210525 1228)">20-May</text>
		</g>
		<g>
			<text fill="#595959" font-family="Verdana,sans-serif" font-weight="400" font-size="41" transform="matrix(6.12323e-17 -1 1 6.12323e-17 4143.368421052632 1209)">17-Jun</text>
		</g>
		<g>
			<text fill="#595959" font-family="Verdana,sans-serif" font-weight="400" font-size="41" transform="matrix(6.12323e-17 -1 1 6.12323e-17 4256.289473684211 1194)">15-Jul</text>
		</g>
		<g>
			<text fill="#595959" font-family="Verdana,sans-serif" font-weight="400" font-size="41" transform="matrix(1 0 0 1 3167.5 1050)">0</text>
		</g>
		<g>
			<text fill="#595959" font-family="Verdana,sans-serif" font-weight="400" font-size="41" transform="matrix(1 0 0 1 3142.5 922)">53</text>
		</g>
		<g>
			<text fill="#595959" font-family="Verdana,sans-serif" font-weight="400" font-size="41" transform="matrix(1 0 0 1 3117.5 794)">106</text>
		</g>
		<g>
			<text fill="#595959" font-family="Verdana,sans-serif" font-weight="400" font-size="41" transform="matrix(1 0 0 1 3118.5 666)">159</text>
		</g>
		<g>
			<text fill="#595959" font-family="Verdana,sans-serif" font-weight="400" font-size="41" transform="matrix(1 0 0 1 3115.5 538)">212</text>
		</g>
		<g>
			<text fill="#595959" font-family="Verdana,sans-serif" font-weight="400" font-size="41" transform="matrix(1 0 0 1 3115.5 410)">265</text>
		</g>
		<g>
			<text fill="#595959" font-family="Verdana,sans-serif" font-weight="400" font-size="41" transform="matrix(1 0 0 1 3544.5 1321)">Week Commencing</text>
		</g>
		<g>
			<text fill="#595959" font-family="Verdana,sans-serif" font-weight="400" font-size="46" transform="matrix(6.12323e-17 -1 1 6.12323e-17 3019.73 1024.75)">Number of Crawler Profiles</text>
		</g>
		<rect x="2918.5" y="347.5" width="1760" height="1043" stroke="#D9D9D9" stroke-width="3.4375" stroke-linejoin="round" stroke-miterlimit="10" fill="none" />
		<g>
			<path d="M3228.5 1038 3256.6052631578946 1038 3284.7105263157896 1038 3312.815789473684 1038 3340.9210526315787 1038 3369.0263157894738 1038 3397.1315789473683 1038 3425.2368421052633 1038 3453.342105263158 1038 3481.4473684210525 1038 3509.5526315789475 1038 3537.657894736842 1038 3565.7631578947367 1038 3593.8684210526317 1038 3621.9736842105262 1038 3650.078947368421 1038 3678.184210526316 1038 3706.2894736842104 1038 3734.3947368421054 1038 3762.5 1038 3790.6052631578946 1038 3818.7105263157896 1038 3846.815789473684 1038 3874.921052631579 1038 3903.0263157894738 1038 3931.1315789473683 1038 3959.2368421052633 1038 3987.342105263158 1038 4015.4473684210525 1038 4043.5526315789475 1038 4071.657894736842 1038 4099.763157894737 1038 4127.868421052632 1038 4155.973684210527 1038 4184.078947368421 1038 4212.184210526316 1038 4240.289473684211 1038 4268.394736842105 1038 4296.5 1038 4296.5 400.41509433962267 4268.394736842105 402.83018867924534 4240.289473684211 412.4905660377359 4212.184210526316 419.7358490566038 4184.078947368421 429.39622641509436 4155.973684210527 436.64150943396226 4127.868421052632 448.7169811320755 4099.763157894737 453.5471698113208 4071.657894736842 453.5471698113208 4043.5526315789475 453.5471698113208 4015.4473684210525 455.9622641509434 3987.342105263158 460.7924528301887 3959.2368421052633 470.4528301886793 3931.1315789473683 475.2830188679245 3903.0263157894738 477.6981132075472 3874.921052631579 477.6981132075472 3846.815789473684 487.35849056603774 3818.7105263157896 487.35849056603774 3790.6052631578946 499.433962264151 3762.5 523.5849056603773 3734.3947368421054 528.4150943396227 3706.2894736842104 533.2452830188679 3678.184210526316 545.3207547169811 3650.078947368421 547.7358490566038 3621.9736842105262 547.7358490566038 3593.8684210526317 550.1509433962265 3565.7631578947367 554.9811320754717 3537.657894736842 567.0566037735849 3509.5526315789475 569.4716981132076 3481.4473684210525 569.4716981132076 3453.342105263158 574.3018867924528 3425.2368421052633 574.3018867924528 3397.1315789473683 574.3018867924528 3369.0263157894738 574.3018867924528 3340.9210526315787 574.3018867924528 3312.815789473684 576.7169811320755 3284.7105263157896 576.7169811320755 3256.6052631578946 576.7169811320755 3228.5 576.7169811320755 3228.5 1038Z" fill="#005aa6" opacity="0.9" />
		</g>
		<g>
			<path d="M3228.5 576.7169811320755 3256.6052631578946 576.7169811320755 3284.7105263157896 576.7169811320755 3312.815789473684 576.7169811320755 3340.9210526315787 574.3018867924528 3369.0263157894738 574.3018867924528 3397.1315789473683 574.3018867924528 3425.2368421052633 574.3018867924528 3453.342105263158 574.3018867924528 3481.4473684210525 569.4716981132076 3509.5526315789475 569.4716981132076 3537.657894736842 567.0566037735849 3565.7631578947367 554.9811320754717 3593.8684210526317 550.1509433962265 3621.9736842105262 547.7358490566038 3650.078947368421 547.7358490566038 3678.184210526316 545.3207547169811 3706.2894736842104 533.2452830188679 3734.3947368421054 528.4150943396227 3762.5 523.5849056603773 3790.6052631578946 499.433962264151 3818.7105263157896 487.35849056603774 3846.815789473684 487.35849056603774 3874.921052631579 477.6981132075472 3903.0263157894738 477.6981132075472 3931.1315789473683 475.2830188679245 3959.2368421052633 470.4528301886793 3987.342105263158 460.7924528301887 4015.4473684210525 455.9622641509434 4043.5526315789475 453.5471698113208 4071.657894736842 453.5471698113208 4099.763157894737 453.5471698113208 4127.868421052632 448.7169811320755 4155.973684210527 436.64150943396226 4184.078947368421 429.39622641509436 4212.184210526316 419.7358490566038 4240.289473684211 412.4905660377359 4268.394736842105 402.83018867924534 4296.5 400.41509433962267 4296.5 398 4268.394736842105 400.41509433962267 4240.289473684211 410.07547169811323 4212.184210526316 417.3207547169811 4184.078947368421 426.9811320754717 4155.973684210527 434.2264150943396 4127.868421052632 446.3018867924528 4099.763157894737 451.13207547169816 4071.657894736842 451.13207547169816 4043.5526315789475 451.13207547169816 4015.4473684210525 453.5471698113207 3987.342105263158 458.37735849056605 3959.2368421052633 468.0377358490566 3931.1315789473683 472.86792452830184 3903.0263157894738 475.2830188679245 3874.921052631579 475.2830188679245 3846.815789473684 484.9433962264151 3818.7105263157896 484.9433962264151 3790.6052631578946 497.0188679245283 3762.5 521.1698113207547 3734.3947368421054 526 3706.2894736842104 530.8301886792452 3678.184210526316 542.9056603773585 3650.078947368421 545.3207547169811 3621.9736842105262 545.3207547169811 3593.8684210526317 547.7358490566038 3565.7631578947367 552.566037735849 3537.657894736842 564.6415094339623 3509.5526315789475 567.0566037735849 3481.4473684210525 567.0566037735849 3453.342105263158 571.8867924528302 3425.2368421052633 571.8867924528302 3397.1315789473683 571.8867924528302 3369.0263157894738 571.8867924528302 3340.9210526315787 571.8867924528302 3312.815789473684 574.3018867924528 3284.7105263157896 574.3018867924528 3256.6052631578946 574.3018867924528 3228.5 574.3018867924528 3228.5 576.7169811320755Z" fill="#e62d39" opacity="0.9" />
		</g>
		<g>
			<rect x="4372" y="431" width="22.9995" height="23" fill="#005aa6" />
		</g>
		<g>
			<text fill="#595959" font-family="Verdana,sans-serif" font-weight="400" font-size="41" transform="matrix(1 0 0 1 4404.56 454)">Crawler</text>
		</g>
		<g>
			<rect x="4372" y="508" width="22.9995" height="23" fill="#e62d39" />
		</g>
		<g>
			<text fill="#595959" font-family="Verdana,sans-serif" font-weight="400" font-size="41" transform="matrix(1 0 0 1 4404.56 531)">Non-Crawler</text>
		</g>
	</g>
</svg>
