<svg width="1763" height="1046"
    xmlns="http://www.w3.org/2000/svg"
	xmlns:xlink="http://www.w3.org/1999/xlink" xml:space="preserve" overflow="hidden">
	<defs>
		<clipPath id="clip0">
			<rect x="2917" y="346" width="1763" height="1046"/>
		</clipPath>
	</defs>
	<g clip-path="url(#clip0)" transform="translate(-2917 -346)">
		<rect x="2918" y="347" width="1760" height="1043" fill="#FFFFFF" />
		<g>
			<path d="
			M3228.5 974.532 4296.5 974.532
			M3228.5 910.53 4296.5 910.53
			M3228.5 846.528 4296.5 846.528
			M3228.5 781.526 4296.5 781.526
			M3228.5 717.524 4296.5 717.524
			M3228.5 653.522 4296.5 653.522
			M3228.5 589.52 4296.5 589.52
			M3228.5 525.517 4296.5 525.517
			M3228.5 461.515 4296.5 461.515
			M3228.5 397.5 4296.5 397.5" stroke="#D9D9D9" stroke-width="3.4375" stroke-linejoin="round" stroke-miterlimit="10" fill="none" />
		</g>
		<g>
			<path d="M 1038.5 4296.5 1038.5" stroke="#D9D9D9" stroke-width="3.4375" stroke-linejoin="round" stroke-miterlimit="10" fill="none" fill-rule="evenodd" />
		</g>
		<g>
			<text fill="#595959" font-family="Verdana,sans-serif" font-weight="400" font-size="41" transform="matrix(6.12323e-17 -1 1 6.12323e-17 3244.5 1225)">06-Nov</text>
		</g>
		<g>
			<text fill="#595959" font-family="Verdana,sans-serif" font-weight="400" font-size="41" transform="matrix(6.12323e-17 -1 1 6.12323e-17 3354.0384615384614 1223)">04-Dec</text>
		</g>
		<g>
			<text fill="#595959" font-family="Verdana,sans-serif" font-weight="400" font-size="41" transform="matrix(6.12323e-17 -1 1 6.12323e-17 3463.576923076923 1210)">01-Jan</text>
		</g>
		<g>
			<text fill="#595959" font-family="Verdana,sans-serif" font-weight="400" font-size="41" transform="matrix(6.12323e-17 -1 1 6.12323e-17 3573.1153846153848 1210)">29-Jan</text>
		</g>
		<g>
			<text fill="#595959" font-family="Verdana,sans-serif" font-weight="400" font-size="41" transform="matrix(6.12323e-17 -1 1 6.12323e-17 3682.653846153846 1216)">26-Feb</text>
		</g>
		<g>
			<text fill="#595959" font-family="Verdana,sans-serif" font-weight="400" font-size="41" transform="matrix(6.12323e-17 -1 1 6.12323e-17 3792.1923076923076 1223)">25-Mar</text>
		</g>
		<g>
			<text fill="#595959" font-family="Verdana,sans-serif" font-weight="400" font-size="41" transform="matrix(6.12323e-17 -1 1 6.12323e-17 3905.230769230769 1216)">22-Apr</text>
		</g>
		<g>
			<text fill="#595959" font-family="Verdana,sans-serif" font-weight="400" font-size="41" transform="matrix(6.12323e-17 -1 1 6.12323e-17 4014.7692307692305 1228)">20-May</text>
		</g>
		<g>
			<text fill="#595959" font-family="Verdana,sans-serif" font-weight="400" font-size="41" transform="matrix(6.12323e-17 -1 1 6.12323e-17 4120.307692307692 1209)">17-Jun</text>
		</g>
		<g>
			<text fill="#595959" font-family="Verdana,sans-serif" font-weight="400" font-size="41" transform="matrix(6.12323e-17 -1 1 6.12323e-17 4230.346153846154 1194)">15-Jul</text>
		</g>
		<g>
			<text fill="#595959" font-family="Verdana,sans-serif" font-weight="400" font-size="41" transform="matrix(1 0 0 1 3123.5 1050)">0%</text>
		</g>
		<g>
			<text fill="#595959" font-family="Verdana,sans-serif" font-weight="400" font-size="41" transform="matrix(1 0 0 1 3097.5 922)">20%</text>
		</g>
		<g>
			<text fill="#595959" font-family="Verdana,sans-serif" font-weight="400" font-size="41" transform="matrix(1 0 0 1 3096.5 794)">40%</text>
		</g>
		<g>
			<text fill="#595959" font-family="Verdana,sans-serif" font-weight="400" font-size="41" transform="matrix(1 0 0 1 3097.5 666)">60%</text>
		</g>
		<g>
			<text fill="#595959" font-family="Verdana,sans-serif" font-weight="400" font-size="41" transform="matrix(1 0 0 1 3097.5 538)">80%</text>
		</g>
		<g>
			<text fill="#595959" font-family="Verdana,sans-serif" font-weight="400" font-size="41" transform="matrix(1 0 0 1 3074.5 410)">100%</text>
		</g>
		<g>
			<text fill="#595959" font-family="Verdana,sans-serif" font-weight="400" font-size="41" transform="matrix(1 0 0 1 3544.5 1321)">Week Commencing</text>
		</g>
		<g>
			<text fill="#595959" font-family="Verdana,sans-serif" font-weight="400" font-size="46" transform="matrix(6.12323e-17 -1 1 6.12323e-17 3019.73 965.25)">Requests (% of Total)</text>
		</g>
		<rect x="2918.5" y="347.5" width="1760" height="1043" stroke="#D9D9D9" stroke-width="3.4375" stroke-linejoin="round" stroke-miterlimit="10" fill="none" />
		<g>
			<path d="M3228.5 1038 3255.8846153846152 1038 3283.269230769231 1038 3310.653846153846 1038 3338.0384615384614 1038 3365.423076923077 1038 3392.8076923076924 1038 3420.1923076923076 1038 3447.576923076923 1038 3474.9615384615386 1038 3502.346153846154 1038 3529.730769230769 1038 3557.1153846153848 1038 3584.5 1038 3611.8846153846152 1038 3639.269230769231 1038 3666.653846153846 1038 3694.0384615384614 1038 3721.423076923077 1038 3748.8076923076924 1038 3776.1923076923076 1038 3803.576923076923 1038 3830.9615384615386 1038 3858.346153846154 1038 3885.730769230769 1038 3913.1153846153848 1038 3940.5 1038 3967.8846153846152 1038 3995.2692307692305 1038 4022.653846153846 1038 4050.0384615384614 1038 4077.423076923077 1038 4104.807692307692 1038 4132.192307692308 1038 4159.576923076923 1038 4186.961538461538 1038 4214.346153846154 1038 4241.7307692307695 1038 4269.115384615385 1038 4296.5 1038 4296.5 572.5486893796854 4269.115384615385 572.9112818795618 4241.7307692307695 572.7332415748011 4214.346153846154 572.862060937991 4186.961538461538 572.9365512268143 4159.576923076923 572.8940388940463 4132.192307692308 572.4651830343407 4104.807692307692 572.6325422225004 4077.423076923077 571.5082651331143 4050.0384615384614 572.2322344669446 4022.653846153846 572.7455283998808 3995.2692307692305 573.7260592446937 3967.8846153846152 574.7878423335366 3940.5 575.6290427379265 3913.1153846153848 575.9687876322813 3885.730769230769 576.8727971406818 3858.346153846154 578.2473295586981 3830.9615384615386 579.8301495425726 3803.576923076923 581.4258071436993 3776.1923076923076 583.4353029706369 3748.8076923076924 585.2297796683877 3721.423076923077 569.3763139485983 3694.0384615384614 569.4920790789085 3666.653846153846 568.4210223578364 3639.269230769231 567.328661211755 3611.8846153846152 566.161104092279 3584.5 566.5630760901624 3557.1153846153848 566.9371867374394 3529.730769230769 565.7434322908556 3502.346153846154 565.3329344965637 3474.9615384615386 567.1306424721515 3447.576923076923 546.6361313386333 3420.1923076923076 547.2360643741254 3392.8076923076924 547.9846296844262 3365.423076923077 551.0672526834712 3338.0384615384614 550.9210452859504 3310.653846153846 550.9050574683862 3283.269230769231 550.8533354714161 3255.8846153846152 550.7560734149703 3228.5 551.2665692392751 3228.5 1038Z" fill="#e62d39" opacity="0.9" />
		</g>
		<g>
			<path d="M3228.5 551.2665692392751 3255.8846153846152 550.7560734149703 3283.269230769231 550.8533354714161 3310.653846153846 550.9050574683862 3338.0384615384614 550.9210452859504 3365.423076923077 551.0672526834712 3392.8076923076924 547.9846296844262 3420.1923076923076 547.2360643741254 3447.576923076923 546.6361313386333 3474.9615384615386 567.1306424721515 3502.346153846154 565.3329344965637 3529.730769230769 565.7434322908556 3557.1153846153848 566.9371867374394 3584.5 566.5630760901624 3611.8846153846152 566.161104092279 3639.269230769231 567.328661211755 3666.653846153846 568.4210223578364 3694.0384615384614 569.4920790789085 3721.423076923077 569.3763139485983 3748.8076923076924 585.2297796683877 3776.1923076923076 583.4353029706369 3803.576923076923 581.4258071436993 3830.9615384615386 579.8301495425726 3858.346153846154 578.2473295586981 3885.730769230769 576.8727971406818 3913.1153846153848 575.9687876322813 3940.5 575.6290427379265 3967.8846153846152 574.7878423335366 3995.2692307692305 573.7260592446937 4022.653846153846 572.7455283998808 4050.0384615384614 572.2322344669446 4077.423076923077 571.5082651331143 4104.807692307692 572.6325422225004 4132.192307692308 572.4651830343407 4159.576923076923 572.8940388940463 4186.961538461538 572.9365512268143 4214.346153846154 572.862060937991 4241.7307692307695 572.7332415748011 4269.115384615385 572.9112818795618 4296.5 572.5486893796854 4296.5 398 4269.115384615385 397.99999999999994 4241.7307692307695 398 4214.346153846154 397.99999999999994 4186.961538461538 398.00000000000006 4159.576923076923 398 4132.192307692308 398 4104.807692307692 398 4077.423076923077 397.99999999999994 4050.0384615384614 398.0000000000001 4022.653846153846 398 3995.2692307692305 398 3967.8846153846152 398.00000000000006 3940.5 398 3913.1153846153848 398 3885.730769230769 397.99999999999994 3858.346153846154 397.99999999999994 3830.9615384615386 398.0000000000001 3803.576923076923 398 3776.1923076923076 398 3748.8076923076924 398 3721.423076923077 398 3694.0384615384614 398.00000000000006 3666.653846153846 398.00000000000006 3639.269230769231 398 3611.8846153846152 398.00000000000006 3584.5 397.99999999999994 3557.1153846153848 398 3529.730769230769 398 3502.346153846154 397.99999999999994 3474.9615384615386 398.00000000000006 3447.576923076923 398 3420.1923076923076 398.0000000000001 3392.8076923076924 398 3365.423076923077 398 3338.0384615384614 398 3310.653846153846 398 3283.269230769231 398 3255.8846153846152 398 3228.5 398 3228.5 551.2665692392751Z" fill="#005aa6" opacity="0.9" />
		</g>
		<g>
			<rect x="4372" y="431" width="22.9995" height="23" fill="#e62d39" />
		</g>
		<g>
			<text fill="#595959" font-family="Verdana,sans-serif" font-weight="400" font-size="41" transform="matrix(1 0 0 1 4404.56 454)">Non-Crawler</text>
		</g>
		<g>
			<rect x="4372" y="508" width="22.9995" height="23" fill="#005aa6" />
		</g>
		<g>
			<text fill="#595959" font-family="Verdana,sans-serif" font-weight="400" font-size="41" transform="matrix(1 0 0 1 4404.56 531)">Crawler</text>
		</g>
	</g>
</svg>
