<svg width="1763" height="1046"
    xmlns="http://www.w3.org/2000/svg"
	xmlns:xlink="http://www.w3.org/1999/xlink" xml:space="preserve" overflow="hidden">
	<defs>
		<clipPath id="clip0">
			<rect x="2917" y="346" width="1763" height="1046"/>
		</clipPath>
	</defs>
	<g clip-path="url(#clip0)" transform="translate(-2917 -346)">
		<rect x="2918" y="347" width="1760" height="1043" fill="#FFFFFF" />
		<g>
			<path d="
			M3228.5 974.532 4296.5 974.532
			M3228.5 910.53 4296.5 910.53
			M3228.5 846.528 4296.5 846.528
			M3228.5 781.526 4296.5 781.526
			M3228.5 717.524 4296.5 717.524
			M3228.5 653.522 4296.5 653.522
			M3228.5 589.52 4296.5 589.52
			M3228.5 525.517 4296.5 525.517
			M3228.5 461.515 4296.5 461.515
			M3228.5 397.5 4296.5 397.5" stroke="#D9D9D9" stroke-width="3.4375" stroke-linejoin="round" stroke-miterlimit="10" fill="none" />
		</g>
		<g>
			<path d="M 1038.5 4296.5 1038.5" stroke="#D9D9D9" stroke-width="3.4375" stroke-linejoin="round" stroke-miterlimit="10" fill="none" fill-rule="evenodd" />
		</g>
		<g>
			<text fill="#595959" font-family="Verdana,sans-serif" font-weight="400" font-size="41" transform="matrix(6.12323e-17 -1 1 6.12323e-17 3244 1207)">15-Jan</text>
		</g>
		<g>
			<text fill="#595959" font-family="Verdana,sans-serif" font-weight="400" font-size="41" transform="matrix(6.12323e-17 -1 1 6.12323e-17 3329.94 1214)">12-Feb</text>
		</g>
		<g>
			<text fill="#595959" font-family="Verdana,sans-serif" font-weight="400" font-size="41" transform="matrix(6.12323e-17 -1 1 6.12323e-17 3414.88 1221)">11-Mar</text>
		</g>
		<g>
			<text fill="#595959" font-family="Verdana,sans-serif" font-weight="400" font-size="41" transform="matrix(6.12323e-17 -1 1 6.12323e-17 3504.32 1217)">08-Apr</text>
		</g>
		<g>
			<text fill="#595959" font-family="Verdana,sans-serif" font-weight="400" font-size="41" transform="matrix(6.12323e-17 -1 1 6.12323e-17 3589.76 1228)">06-May</text>
		</g>
		<g>
			<text fill="#595959" font-family="Verdana,sans-serif" font-weight="400" font-size="41" transform="matrix(6.12323e-17 -1 1 6.12323e-17 3671.7 1211)">03-Jun</text>
		</g>
		<g>
			<text fill="#595959" font-family="Verdana,sans-serif" font-weight="400" font-size="41" transform="matrix(6.12323e-17 -1 1 6.12323e-17 3757.14 1197)">01-Jul</text>
		</g>
		<g>
			<text fill="#595959" font-family="Verdana,sans-serif" font-weight="400" font-size="41" transform="matrix(6.12323e-17 -1 1 6.12323e-17 3842.58 1196)">29-Jul</text>
		</g>
		<g>
			<text fill="#595959" font-family="Verdana,sans-serif" font-weight="400" font-size="41" transform="matrix(6.12323e-17 -1 1 6.12323e-17 3931.52 1221)">26-Aug</text>
		</g>
		<g>
			<text fill="#595959" font-family="Verdana,sans-serif" font-weight="400" font-size="41" transform="matrix(6.12323e-17 -1 1 6.12323e-17 4016.96 1221)">23-Sep</text>
		</g>
		<g>
			<text fill="#595959" font-family="Verdana,sans-serif" font-weight="400" font-size="41" transform="matrix(6.12323e-17 -1 1 6.12323e-17 4098.9 1215)">21-Oct</text>
		</g>
		<g>
			<text fill="#595959" font-family="Verdana,sans-serif" font-weight="400" font-size="41" transform="matrix(6.12323e-17 -1 1 6.12323e-17 4184.34 1222)">18-Nov</text>
		</g>
		<g>
			<text fill="#595959" font-family="Verdana,sans-serif" font-weight="400" font-size="41" transform="matrix(6.12323e-17 -1 1 6.12323e-17 4269.78 1222)">23-Dec</text>
		</g>
		<g>
			<text fill="#595959" font-family="Verdana,sans-serif" font-weight="400" font-size="41" transform="matrix(1 0 0 1 3123.5 1050)">0%</text>
		</g>
		<g>
			<text fill="#595959" font-family="Verdana,sans-serif" font-weight="400" font-size="41" transform="matrix(1 0 0 1 3097.5 922)">20%</text>
		</g>
		<g>
			<text fill="#595959" font-family="Verdana,sans-serif" font-weight="400" font-size="41" transform="matrix(1 0 0 1 3096.5 794)">40%</text>
		</g>
		<g>
			<text fill="#595959" font-family="Verdana,sans-serif" font-weight="400" font-size="41" transform="matrix(1 0 0 1 3097.5 666)">60%</text>
		</g>
		<g>
			<text fill="#595959" font-family="Verdana,sans-serif" font-weight="400" font-size="41" transform="matrix(1 0 0 1 3097.5 538)">80%</text>
		</g>
		<g>
			<text fill="#595959" font-family="Verdana,sans-serif" font-weight="400" font-size="41" transform="matrix(1 0 0 1 3074.5 410)">100%</text>
		</g>
		<g>
			<text fill="#595959" font-family="Verdana,sans-serif" font-weight="400" font-size="41" transform="matrix(1 0 0 1 3544.5 1321)">Week Commencing</text>
		</g>
		<g>
			<text fill="#595959" font-family="Verdana,sans-serif" font-weight="400" font-size="46" transform="matrix(6.12323e-17 -1 1 6.12323e-17 3019.73 965.25)">Requests (% of Total)</text>
		</g>
		<rect x="2918.5" y="347.5" width="1760" height="1043" stroke="#D9D9D9" stroke-width="3.4375" stroke-linejoin="round" stroke-miterlimit="10" fill="none" />
		<g>
			<path d="M3228.5 1038 3249.86 1038 3271.22 1038 3292.58 1038 3313.94 1038 3335.3 1038 3356.66 1038 3378.02 1038 3399.38 1038 3420.74 1038 3442.1 1038 3463.46 1038 3484.82 1038 3506.18 1038 3527.54 1038 3548.9 1038 3570.26 1038 3591.62 1038 3612.98 1038 3634.34 1038 3655.7 1038 3677.06 1038 3698.42 1038 3719.7799999999997 1038 3741.14 1038 3762.5 1038 3783.86 1038 3805.2200000000003 1038 3826.58 1038 3847.94 1038 3869.3 1038 3890.66 1038 3912.02 1038 3933.38 1038 3954.74 1038 3976.1 1038 3997.46 1038 4018.8199999999997 1038 4040.18 1038 4061.54 1038 4082.9 1038 4104.26 1038 4125.62 1038 4146.98 1038 4168.34 1038 4189.7 1038 4211.0599999999995 1038 4232.42 1038 4253.78 1038 4275.139999999999 1038 4296.5 1038 4296.5 441.5338725099368 4275.139999999999 441.5429030927178 4253.78 441.47417224977323 4232.42 441.4594945700171 4211.0599999999995 441.38808556766435 4189.7 441.3288056085928 4168.34 441.47308833726333 4146.98 441.645038932872 4125.62 441.9852131881347 4104.26 442.33307896966517 4082.9 566.5721783366624 4061.54 567.1308685788513 4040.18 567.5130485279316 4018.8199999999997 568.0135171374827 3997.46 568.6966145549849 3976.1 569.582505337425 3954.74 569.9559975833151 3933.38 570.7071585028136 3912.02 571.2237275515587 3890.66 571.9035338843237 3869.3 572.0631883952817 3847.94 572.5486893796854 3826.58 572.9112818795618 3805.2200000000003 572.7332415748011 3783.86 572.862060937991 3762.5 572.9365512268143 3741.14 572.8940388940463 3719.7799999999997 572.4651830343407 3698.42 572.6325422225004 3677.06 571.5082651331143 3655.7 572.2322344669446 3634.34 572.7455283998808 3612.98 573.7260592446937 3591.62 574.7878423335366 3570.26 575.6290427379265 3548.9 575.9687876322813 3527.54 576.8727971406818 3506.18 578.2473295586981 3484.82 579.8301495425726 3463.46 581.4258071436993 3442.1 583.4353029706369 3420.74 585.2297796683877 3399.38 569.3763139485983 3378.02 569.4920790789085 3356.66 568.4210223578364 3335.3 567.328661211755 3313.94 566.161104092279 3292.58 566.5630760901624 3271.22 566.9371867374394 3249.86 565.7434322908556 3228.5 565.3329344965637 3228.5 1038Z" fill="#e62d39" opacity="0.9" />
		</g>
		<g>
			<path d="M3228.5 565.3329344965637 3249.86 565.7434322908556 3271.22 566.9371867374394 3292.58 566.5630760901624 3313.94 566.161104092279 3335.3 567.328661211755 3356.66 568.4210223578364 3378.02 569.4920790789085 3399.38 569.3763139485983 3420.74 585.2297796683877 3442.1 583.4353029706369 3463.46 581.4258071436993 3484.82 579.8301495425726 3506.18 578.2473295586981 3527.54 576.8727971406818 3548.9 575.9687876322813 3570.26 575.6290427379265 3591.62 574.7878423335366 3612.98 573.7260592446937 3634.34 572.7455283998808 3655.7 572.2322344669446 3677.06 571.5082651331143 3698.42 572.6325422225004 3719.7799999999997 572.4651830343407 3741.14 572.8940388940463 3762.5 572.9365512268143 3783.86 572.862060937991 3805.2200000000003 572.7332415748011 3826.58 572.9112818795618 3847.94 572.5486893796854 3869.3 572.0631883952817 3890.66 571.9035338843237 3912.02 571.2237275515587 3933.38 570.7071585028136 3954.74 569.9559975833151 3976.1 569.582505337425 3997.46 568.6966145549849 4018.8199999999997 568.0135171374827 4040.18 567.5130485279316 4061.54 567.1308685788513 4082.9 566.5721783366624 4104.26 442.33307896966517 4125.62 441.9852131881347 4146.98 441.645038932872 4168.34 441.47308833726333 4189.7 441.3288056085928 4211.0599999999995 441.38808556766435 4232.42 441.4594945700171 4253.78 441.47417224977323 4275.139999999999 441.5429030927178 4296.5 441.5338725099368 4296.5 398 4275.139999999999 398 4253.78 398 4232.42 398.00000000000006 4211.0599999999995 398 4189.7 398 4168.34 398 4146.98 397.99999999999994 4125.62 398 4104.26 398 4082.9 398 4061.54 398 4040.18 398 4018.8199999999997 398 3997.46 398 3976.1 398 3954.74 398.00000000000006 3933.38 398 3912.02 398 3890.66 398 3869.3 398.00000000000006 3847.94 398 3826.58 397.99999999999994 3805.2200000000003 398 3783.86 397.99999999999994 3762.5 398.00000000000006 3741.14 398 3719.7799999999997 398 3698.42 398 3677.06 397.99999999999994 3655.7 398.0000000000001 3634.34 398 3612.98 398 3591.62 398.00000000000006 3570.26 398 3548.9 398 3527.54 397.99999999999994 3506.18 397.99999999999994 3484.82 398.0000000000001 3463.46 398 3442.1 398 3420.74 398 3399.38 398 3378.02 398.00000000000006 3356.66 398.00000000000006 3335.3 398 3313.94 398.00000000000006 3292.58 397.99999999999994 3271.22 398 3249.86 398 3228.5 397.99999999999994 3228.5 565.3329344965637Z" fill="#005aa6" opacity="0.9" />
		</g>
		<g>
			<rect x="4372" y="431" width="22.9995" height="23" fill="#e62d39" />
		</g>
		<g>
			<text fill="#595959" font-family="Verdana,sans-serif" font-weight="400" font-size="41" transform="matrix(1 0 0 1 4404.56 454)">Non-Crawler</text>
		</g>
		<g>
			<rect x="4372" y="508" width="22.9995" height="23" fill="#005aa6" />
		</g>
		<g>
			<text fill="#595959" font-family="Verdana,sans-serif" font-weight="400" font-size="41" transform="matrix(1 0 0 1 4404.56 531)">Crawler</text>
		</g>
	</g>
</svg>
