<svg width="1763" height="1046"
    xmlns="http://www.w3.org/2000/svg"
	xmlns:xlink="http://www.w3.org/1999/xlink" xml:space="preserve" overflow="hidden">
	<defs>
		<clipPath id="clip0">
			<rect x="2917" y="346" width="1763" height="1046"/>
		</clipPath>
	</defs>
	<g clip-path="url(#clip0)" transform="translate(-2917 -346)">
		<rect x="2918" y="347" width="1760" height="1043" fill="#FFFFFF" />
		<g>
			<path d="
			M3228.5 974.532 4296.5 974.532
			M3228.5 910.53 4296.5 910.53
			M3228.5 846.528 4296.5 846.528
			M3228.5 781.526 4296.5 781.526
			M3228.5 717.524 4296.5 717.524
			M3228.5 653.522 4296.5 653.522
			M3228.5 589.52 4296.5 589.52
			M3228.5 525.517 4296.5 525.517
			M3228.5 461.515 4296.5 461.515
			M3228.5 397.5 4296.5 397.5" stroke="#D9D9D9" stroke-width="3.4375" stroke-linejoin="round" stroke-miterlimit="10" fill="none" />
		</g>
		<g>
			<path d="M 1038.5 4296.5 1038.5" stroke="#D9D9D9" stroke-width="3.4375" stroke-linejoin="round" stroke-miterlimit="10" fill="none" fill-rule="evenodd" />
		</g>
		<g>
			<text fill="#595959" font-family="Verdana,Open Sans,DejaVu Sans,sans-serif" font-weight="400" font-size="41" transform="matrix(6.12323e-17 -1 1 6.12323e-17 3243.564697265625 1207.0859375)">09-Dec</text>
		</g>
		<g>
			<text fill="#595959" font-family="Verdana,Open Sans,DejaVu Sans,sans-serif" font-weight="400" font-size="41" transform="matrix(6.12323e-17 -1 1 6.12323e-17 3334.401935188138 1191.6508712768555)">06-Jan</text>
		</g>
		<g>
			<text fill="#595959" font-family="Verdana,Open Sans,DejaVu Sans,sans-serif" font-weight="400" font-size="41" transform="matrix(6.12323e-17 -1 1 6.12323e-17 3418.6427375637754 1203.0419921875)">03-Feb</text>
		</g>
		<g>
			<text fill="#595959" font-family="Verdana,Open Sans,DejaVu Sans,sans-serif" font-weight="400" font-size="41" transform="matrix(6.12323e-17 -1 1 6.12323e-17 3505.1157176737884 1212.0107421875)">03-Mar</text>
		</g>
		<g>
			<text fill="#595959" font-family="Verdana,Open Sans,DejaVu Sans,sans-serif" font-weight="400" font-size="41" transform="matrix(6.12323e-17 -1 1 6.12323e-17 3592.279371611926 1212.1708984375)">31-Mar</text>
		</g>
		<g>
			<text fill="#595959" font-family="Verdana,Open Sans,DejaVu Sans,sans-serif" font-weight="400" font-size="41" transform="matrix(6.12323e-17 -1 1 6.12323e-17 3684.187654456314 1203.3022384643555)">28-Apr</text>
		</g>
		<g>
			<text fill="#595959" font-family="Verdana,Open Sans,DejaVu Sans,sans-serif" font-weight="400" font-size="41" transform="matrix(6.12323e-17 -1 1 6.12323e-17 3771.3713279257017 1216.51513671875)">26-May</text>
		</g>
		<g>
			<text fill="#595959" font-family="Verdana,Open Sans,DejaVu Sans,sans-serif" font-weight="400" font-size="41" transform="matrix(6.12323e-17 -1 1 6.12323e-17 3857.503976004464 1194.1733322143555)">30-Jun</text>
		</g>
		<g>
			<text fill="#595959" font-family="Verdana,Open Sans,DejaVu Sans,sans-serif" font-weight="400" font-size="41" transform="matrix(6.12323e-17 -1 1 6.12323e-17 3945.398342833227 1179.0385665893555)">28-Jul</text>
		</g>
		<g>
			<text fill="#595959" font-family="Verdana,Open Sans,DejaVu Sans,sans-serif" font-weight="400" font-size="41" transform="matrix(6.12323e-17 -1 1 6.12323e-17 4032.9223483338646 1208.66748046875)">25-Aug</text>
		</g>
		<g>
			<text fill="#595959" font-family="Verdana,Open Sans,DejaVu Sans,sans-serif" font-weight="400" font-size="41" transform="matrix(6.12323e-17 -1 1 6.12323e-17 4120.106021803253 1204.42333984375)">22-Sep</text>
		</g>
		<g>
			<text fill="#595959" font-family="Verdana,Open Sans,DejaVu Sans,sans-serif" font-weight="400" font-size="41" transform="matrix(6.12323e-17 -1 1 6.12323e-17 4202.5851054288905 1201.1401290893555)">20-Oct</text>
		</g>
		<g>
			<text fill="#595959" font-family="Verdana,Open Sans,DejaVu Sans,sans-serif" font-weight="400" font-size="41" transform="matrix(6.12323e-17 -1 1 6.12323e-17 4289.5385542889035 1209.70849609375)">17-Nov</text>
		</g>
		<g>
			<text fill="#595959" font-family="Verdana,Open Sans,DejaVu Sans,sans-serif" font-weight="400" font-size="41" transform="matrix(1 0 0 1 3135.4482421875 1050)">0%</text>
		</g>
		<g>
			<text fill="#595959" font-family="Verdana,Open Sans,DejaVu Sans,sans-serif" font-weight="400" font-size="41" transform="matrix(1 0 0 1 3111.96533203125 922)">20%</text>
		</g>
		<g>
			<text fill="#595959" font-family="Verdana,Open Sans,DejaVu Sans,sans-serif" font-weight="400" font-size="41" transform="matrix(1 0 0 1 3110.82421875 794)">40%</text>
		</g>
		<g>
			<text fill="#595959" font-family="Verdana,Open Sans,DejaVu Sans,sans-serif" font-weight="400" font-size="41" transform="matrix(1 0 0 1 3112.3056640625 666)">60%</text>
		</g>
		<g>
			<text fill="#595959" font-family="Verdana,Open Sans,DejaVu Sans,sans-serif" font-weight="400" font-size="41" transform="matrix(1 0 0 1 3112.04541015625 538)">80%</text>
		</g>
		<g>
			<text fill="#595959" font-family="Verdana,Open Sans,DejaVu Sans,sans-serif" font-weight="400" font-size="41" transform="matrix(1 0 0 1 3090.2841796875 410)">100%</text>
		</g>
		<g>
			<text fill="#595959" font-family="Verdana,Open Sans,DejaVu Sans,sans-serif" font-weight="400" font-size="41" transform="matrix(1 0 0 1 3556.97119140625 1321)">Week Commencing</text>
		</g>
		<g>
			<text fill="#595959" font-family="Verdana,Open Sans,DejaVu Sans,sans-serif" font-weight="400" font-size="46" transform="matrix(6.12323e-17 -1 1 6.12323e-17 3019.73 936.7665710449219)">Requests (% of Total)</text>
		</g>
		<rect x="2918.5" y="347.5" width="1760" height="1043" stroke="#D9D9D9" stroke-width="3.4375" stroke-linejoin="round" stroke-miterlimit="10" fill="none" />
		<g>
			<path d="M3228.5 1038 3250.295918367347 1038 3272.091836734694 1038 3293.887755102041 1038 3315.683673469388 1038 3337.4795918367345 1038 3359.2755102040815 1038 3381.0714285714284 1038 3402.8673469387754 1038 3424.6632653061224 1038 3446.4591836734694 1038 3468.2551020408164 1038 3490.0510204081634 1038 3511.8469387755104 1038 3533.6428571428573 1038 3555.4387755102043 1038 3577.234693877551 1038 3599.030612244898 1038 3620.826530612245 1038 3642.622448979592 1038 3664.418367346939 1038 3686.214285714286 1038 3708.0102040816328 1038 3729.8061224489797 1038 3751.6020408163267 1038 3773.3979591836733 1038 3795.1938775510203 1038 3816.9897959183672 1038 3838.785714285714 1038 3860.581632653061 1038 3882.377551020408 1038 3904.173469387755 1038 3925.969387755102 1038 3947.765306122449 1038 3969.5612244897957 1038 3991.357142857143 1038 4013.1530612244896 1038 4034.9489795918366 1038 4056.7448979591836 1038 4078.5408163265306 1038 4100.336734693878 1038 4122.132653061224 1038 4143.928571428572 1038 4165.724489795918 1038 4187.5204081632655 1038 4209.316326530612 1038 4231.1122448979595 1038 4252.908163265306 1038 4274.7040816326535 1038 4296.5 1038 4296.5 440.072777946987 4274.7040816326535 439.54649540853677 4252.908163265306 439.7648762802967 4231.1122448979595 440.0929578933227 4209.316326530612 440.1107731424996 4187.5204081632655 440.17666153343987 4165.724489795918 440.17259352262283 4143.928571428572 440.3280263296216 4122.132653061224 440.34799215358134 4100.336734693878 440.40616975209355 4078.5408163265306 440.40760550465325 4056.7448979591836 440.94196380839696 4034.9489795918366 441.17078340782746 4013.1530612244896 441.17336955313306 3991.357142857143 441.3391880005887 3969.5612244897957 441.48654078274615 3947.765306122449 441.48316478044603 3925.969387755102 441.484756503997 3904.173469387755 441.489616515065 3882.377551020408 441.29796426599523 3860.581632653061 441.72595383903854 3838.785714285714 442.8417422387853 3816.9897959183672 442.854171965349 3795.1938775510203 442.95845521922934 3773.3979591836733 442.9731674669964 3751.6020408163267 443.09587998074596 3729.8061224489797 442.9453880046191 3708.0102040816328 442.7539759175269 3686.214285714286 442.4035157162202 3664.418367346939 442.11056785584276 3642.622448979592 441.83280494374446 3620.826530612245 441.70333243098173 3599.030612244898 441.6626940555466 3577.234693877551 441.6573661278967 3555.4387755102043 441.5375979828307 3533.6428571428573 441.406683369976 3511.8469387755104 441.167209213907 3490.0510204081634 441.0289316920836 3468.2551020408164 441.03561787240676 3446.4591836734694 441.06205687573333 3424.6632653061224 441.14123809544583 3402.8673469387754 441.04668014176025 3381.0714285714284 441.3325461823914 3359.2755102040815 441.50673382811704 3337.4795918367345 441.5263210359809 3315.683673469388 441.5338725099368 3293.887755102041 441.5429030927178 3272.091836734694 441.47417224977323 3250.295918367347 441.4594945700171 3228.5 441.38808556766435 3228.5 1038Z" fill="#e62d39" opacity="0.9" />
		</g>
		<g>
			<path d="M3228.5 441.38808556766435 3250.295918367347 441.4594945700171 3272.091836734694 441.47417224977323 3293.887755102041 441.5429030927178 3315.683673469388 441.5338725099368 3337.4795918367345 441.5263210359809 3359.2755102040815 441.50673382811704 3381.0714285714284 441.3325461823914 3402.8673469387754 441.04668014176025 3424.6632653061224 441.14123809544583 3446.4591836734694 441.06205687573333 3468.2551020408164 441.03561787240676 3490.0510204081634 441.0289316920836 3511.8469387755104 441.167209213907 3533.6428571428573 441.406683369976 3555.4387755102043 441.5375979828307 3577.234693877551 441.6573661278967 3599.030612244898 441.6626940555466 3620.826530612245 441.70333243098173 3642.622448979592 441.83280494374446 3664.418367346939 442.11056785584276 3686.214285714286 442.4035157162202 3708.0102040816328 442.7539759175269 3729.8061224489797 442.9453880046191 3751.6020408163267 443.09587998074596 3773.3979591836733 442.9731674669964 3795.1938775510203 442.95845521922934 3816.9897959183672 442.854171965349 3838.785714285714 442.8417422387853 3860.581632653061 441.72595383903854 3882.377551020408 441.29796426599523 3904.173469387755 441.489616515065 3925.969387755102 441.484756503997 3947.765306122449 441.48316478044603 3969.5612244897957 441.48654078274615 3991.357142857143 441.3391880005887 4013.1530612244896 441.17336955313306 4034.9489795918366 441.17078340782746 4056.7448979591836 440.94196380839696 4078.5408163265306 440.40760550465325 4100.336734693878 440.40616975209355 4122.132653061224 440.34799215358134 4143.928571428572 440.3280263296216 4165.724489795918 440.17259352262283 4187.5204081632655 440.17666153343987 4209.316326530612 440.1107731424996 4231.1122448979595 440.0929578933227 4252.908163265306 439.7648762802967 4274.7040816326535 439.54649540853677 4296.5 440.072777946987 4296.5 398 4274.7040816326535 398 4252.908163265306 398.00000000000006 4231.1122448979595 398 4209.316326530612 398 4187.5204081632655 398.00000000000006 4165.724489795918 398 4143.928571428572 398.00000000000006 4122.132653061224 398.00000000000006 4100.336734693878 398.0000000000001 4078.5408163265306 398 4056.7448979591836 398 4034.9489795918366 398 4013.1530612244896 397.99999999999994 3991.357142857143 398 3969.5612244897957 398 3947.765306122449 397.99999999999994 3925.969387755102 398 3904.173469387755 398 3882.377551020408 397.99999999999994 3860.581632653061 398 3838.785714285714 398 3816.9897959183672 397.99999999999994 3795.1938775510203 398.00000000000006 3773.3979591836733 398 3751.6020408163267 398 3729.8061224489797 398.00000000000006 3708.0102040816328 397.99999999999994 3686.214285714286 398 3664.418367346939 398.00000000000006 3642.622448979592 398 3620.826530612245 398 3599.030612244898 398 3577.234693877551 398 3555.4387755102043 398.00000000000006 3533.6428571428573 398 3511.8469387755104 398 3490.0510204081634 398 3468.2551020408164 398 3446.4591836734694 397.99999999999994 3424.6632653061224 398 3402.8673469387754 398.00000000000006 3381.0714285714284 397.99999999999994 3359.2755102040815 398.00000000000006 3337.4795918367345 398 3315.683673469388 398 3293.887755102041 398 3272.091836734694 398 3250.295918367347 398.00000000000006 3228.5 398 3228.5 441.38808556766435Z" fill="#005aa6" opacity="0.9" />
		</g>
		<g>
			<rect x="4372" y="431" width="22.9995" height="23" fill="#e62d39" />
		</g>
		<g>
			<text fill="#595959" font-family="Verdana,Open Sans,DejaVu Sans,sans-serif" font-weight="400" font-size="41" transform="matrix(1 0 0 1 4404.56 454)">Non-Crawler</text>
		</g>
		<g>
			<rect x="4372" y="508" width="22.9995" height="23" fill="#005aa6" />
		</g>
		<g>
			<text fill="#595959" font-family="Verdana,Open Sans,DejaVu Sans,sans-serif" font-weight="400" font-size="41" transform="matrix(1 0 0 1 4404.56 531)">Crawler</text>
		</g>
	</g>
</svg>
