<svg width="1763" height="1046"
    xmlns="http://www.w3.org/2000/svg"
	xmlns:xlink="http://www.w3.org/1999/xlink" xml:space="preserve" overflow="hidden">
	<defs>
		<clipPath id="clip0">
			<rect x="2917" y="346" width="1763" height="1046"/>
		</clipPath>
	</defs>
	<g clip-path="url(#clip0)" transform="translate(-2917 -346)">
		<rect x="2918" y="347" width="1760" height="1043" fill="#FFFFFF" />
		<g>
			<path d="
			M3228.5 974.532 4296.5 974.532
			M3228.5 910.53 4296.5 910.53
			M3228.5 846.528 4296.5 846.528
			M3228.5 781.526 4296.5 781.526
			M3228.5 717.524 4296.5 717.524
			M3228.5 653.522 4296.5 653.522
			M3228.5 589.52 4296.5 589.52
			M3228.5 525.517 4296.5 525.517
			M3228.5 461.515 4296.5 461.515
			M3228.5 397.5 4296.5 397.5" stroke="#D9D9D9" stroke-width="3.4375" stroke-linejoin="round" stroke-miterlimit="10" fill="none" />
		</g>
		<g>
			<path d="M 1038.5 4296.5 1038.5" stroke="#D9D9D9" stroke-width="3.4375" stroke-linejoin="round" stroke-miterlimit="10" fill="none" fill-rule="evenodd" />
		</g>
		<g>
			<text fill="#595959" font-family="Verdana,Open Sans,DejaVu Sans,sans-serif" font-weight="400" font-size="41" transform="matrix(6.12323e-17 -1 1 6.12323e-17 3247.928955078125 1179.0385665893555)">29-Jul</text>
		</g>
		<g>
			<text fill="#595959" font-family="Verdana,Open Sans,DejaVu Sans,sans-serif" font-weight="400" font-size="41" transform="matrix(6.12323e-17 -1 1 6.12323e-17 3333.709287109375 1208.66748046875)">26-Aug</text>
		</g>
		<g>
			<text fill="#595959" font-family="Verdana,Open Sans,DejaVu Sans,sans-serif" font-weight="400" font-size="41" transform="matrix(6.12323e-17 -1 1 6.12323e-17 3419.149287109375 1204.42333984375)">23-Sep</text>
		</g>
		<g>
			<text fill="#595959" font-family="Verdana,Open Sans,DejaVu Sans,sans-serif" font-weight="400" font-size="41" transform="matrix(6.12323e-17 -1 1 6.12323e-17 3499.884697265625 1201.1401290893555)">21-Oct</text>
		</g>
		<g>
			<text fill="#595959" font-family="Verdana,Open Sans,DejaVu Sans,sans-serif" font-weight="400" font-size="41" transform="matrix(6.12323e-17 -1 1 6.12323e-17 3585.304677734375 1209.70849609375)">18-Nov</text>
		</g>
		<g>
			<text fill="#595959" font-family="Verdana,Open Sans,DejaVu Sans,sans-serif" font-weight="400" font-size="41" transform="matrix(6.12323e-17 -1 1 6.12323e-17 3670.744677734375 1207.1259765625)">23-Dec</text>
		</g>
		<g>
			<text fill="#595959" font-family="Verdana,Open Sans,DejaVu Sans,sans-serif" font-weight="400" font-size="41" transform="matrix(6.12323e-17 -1 1 6.12323e-17 3759.85826171875 1191.6909103393555)">20-Jan</text>
		</g>
		<g>
			<text fill="#595959" font-family="Verdana,Open Sans,DejaVu Sans,sans-serif" font-weight="400" font-size="41" transform="matrix(6.12323e-17 -1 1 6.12323e-17 3842.355390625 1201.3203125)">17-Feb</text>
		</g>
		<g>
			<text fill="#595959" font-family="Verdana,Open Sans,DejaVu Sans,sans-serif" font-weight="400" font-size="41" transform="matrix(6.12323e-17 -1 1 6.12323e-17 3926.85447265625 1210.2890625)">17-Mar</text>
		</g>
		<g>
			<text fill="#595959" font-family="Verdana,Open Sans,DejaVu Sans,sans-serif" font-weight="400" font-size="41" transform="matrix(6.12323e-17 -1 1 6.12323e-17 4017.09916015625 1201.5405197143555)">14-Apr</text>
		</g>
		<g>
			<text fill="#595959" font-family="Verdana,Open Sans,DejaVu Sans,sans-serif" font-weight="400" font-size="41" transform="matrix(6.12323e-17 -1 1 6.12323e-17 4102.669287109375 1214.75341796875)">12-May</text>
		</g>
		<g>
			<text fill="#595959" font-family="Verdana,Open Sans,DejaVu Sans,sans-serif" font-weight="400" font-size="41" transform="matrix(6.12323e-17 -1 1 6.12323e-17 4187.0382421875 1192.2914962768555)">16-Jun</text>
		</g>
		<g>
			<text fill="#595959" font-family="Verdana,Open Sans,DejaVu Sans,sans-serif" font-weight="400" font-size="41" transform="matrix(6.12323e-17 -1 1 6.12323e-17 4273.208955078125 1177.2768478393555)">14-Jul</text>
		</g>
		<g>
			<text fill="#595959" font-family="Verdana,Open Sans,DejaVu Sans,sans-serif" font-weight="400" font-size="41" transform="matrix(1 0 0 1 3135.4482421875 1050)">0%</text>
		</g>
		<g>
			<text fill="#595959" font-family="Verdana,Open Sans,DejaVu Sans,sans-serif" font-weight="400" font-size="41" transform="matrix(1 0 0 1 3111.96533203125 922)">20%</text>
		</g>
		<g>
			<text fill="#595959" font-family="Verdana,Open Sans,DejaVu Sans,sans-serif" font-weight="400" font-size="41" transform="matrix(1 0 0 1 3110.82421875 794)">40%</text>
		</g>
		<g>
			<text fill="#595959" font-family="Verdana,Open Sans,DejaVu Sans,sans-serif" font-weight="400" font-size="41" transform="matrix(1 0 0 1 3112.3056640625 666)">60%</text>
		</g>
		<g>
			<text fill="#595959" font-family="Verdana,Open Sans,DejaVu Sans,sans-serif" font-weight="400" font-size="41" transform="matrix(1 0 0 1 3112.04541015625 538)">80%</text>
		</g>
		<g>
			<text fill="#595959" font-family="Verdana,Open Sans,DejaVu Sans,sans-serif" font-weight="400" font-size="41" transform="matrix(1 0 0 1 3090.2841796875 410)">100%</text>
		</g>
		<g>
			<text fill="#595959" font-family="Verdana,Open Sans,DejaVu Sans,sans-serif" font-weight="400" font-size="41" transform="matrix(1 0 0 1 3556.97119140625 1321)">Week Commencing</text>
		</g>
		<g>
			<text fill="#595959" font-family="Verdana,Open Sans,DejaVu Sans,sans-serif" font-weight="400" font-size="46" transform="matrix(6.12323e-17 -1 1 6.12323e-17 3019.73 936.7665710449219)">Requests (% of Total)</text>
		</g>
		<rect x="2918.5" y="347.5" width="1760" height="1043" stroke="#D9D9D9" stroke-width="3.4375" stroke-linejoin="round" stroke-miterlimit="10" fill="none" />
		<g>
			<path d="M3228.5 1038 3249.86 1038 3271.22 1038 3292.58 1038 3313.94 1038 3335.3 1038 3356.66 1038 3378.02 1038 3399.38 1038 3420.74 1038 3442.1 1038 3463.46 1038 3484.82 1038 3506.18 1038 3527.54 1038 3548.9 1038 3570.26 1038 3591.62 1038 3612.98 1038 3634.34 1038 3655.7 1038 3677.06 1038 3698.42 1038 3719.7799999999997 1038 3741.14 1038 3762.5 1038 3783.86 1038 3805.2200000000003 1038 3826.58 1038 3847.94 1038 3869.3 1038 3890.66 1038 3912.02 1038 3933.38 1038 3954.74 1038 3976.1 1038 3997.46 1038 4018.8199999999997 1038 4040.18 1038 4061.54 1038 4082.9 1038 4104.26 1038 4125.62 1038 4146.98 1038 4168.34 1038 4189.7 1038 4211.0599999999995 1038 4232.42 1038 4253.78 1038 4275.139999999999 1038 4296.5 1038 4296.5 441.484756503997 4275.139999999999 441.489616515065 4253.78 441.29796426599523 4232.42 441.72595383903854 4211.0599999999995 442.8417422387853 4189.7 442.854171965349 4168.34 442.95845521922934 4146.98 442.9731674669964 4125.62 443.09587998074596 4104.26 442.9453880046191 4082.9 442.7539759175269 4061.54 442.4035157162202 4040.18 442.11056785584276 4018.8199999999997 441.83280494374446 3997.46 441.70333243098173 3976.1 441.6626940555466 3954.74 441.6573661278967 3933.38 441.5375979828307 3912.02 441.406683369976 3890.66 441.167209213907 3869.3 441.0289316920836 3847.94 441.03561787240676 3826.58 441.06205687573333 3805.2200000000003 441.14123809544583 3783.86 441.04668014176025 3762.5 441.3325461823914 3741.14 441.50673382811704 3719.7799999999997 441.5263210359809 3698.42 441.5338725099368 3677.06 441.5429030927178 3655.7 441.47417224977323 3634.34 441.4594945700171 3612.98 441.38808556766435 3591.62 441.3288056085928 3570.26 441.47308833726333 3548.9 441.645038932872 3527.54 441.9852131881347 3506.18 442.33307896966517 3484.82 566.5721783366624 3463.46 567.1308685788513 3442.1 567.5130485279316 3420.74 568.0135171374827 3399.38 568.6966145549849 3378.02 569.582505337425 3356.66 569.9559975833151 3335.3 570.7071585028136 3313.94 571.2237275515587 3292.58 571.9035338843237 3271.22 572.0631883952817 3249.86 572.5486893796854 3228.5 572.9112818795618 3228.5 1038Z" fill="#e62d39" opacity="0.9" />
		</g>
		<g>
			<path d="M3228.5 572.9112818795618 3249.86 572.5486893796854 3271.22 572.0631883952817 3292.58 571.9035338843237 3313.94 571.2237275515587 3335.3 570.7071585028136 3356.66 569.9559975833151 3378.02 569.582505337425 3399.38 568.6966145549849 3420.74 568.0135171374827 3442.1 567.5130485279316 3463.46 567.1308685788513 3484.82 566.5721783366624 3506.18 442.33307896966517 3527.54 441.9852131881347 3548.9 441.645038932872 3570.26 441.47308833726333 3591.62 441.3288056085928 3612.98 441.38808556766435 3634.34 441.4594945700171 3655.7 441.47417224977323 3677.06 441.5429030927178 3698.42 441.5338725099368 3719.7799999999997 441.5263210359809 3741.14 441.50673382811704 3762.5 441.3325461823914 3783.86 441.04668014176025 3805.2200000000003 441.14123809544583 3826.58 441.06205687573333 3847.94 441.03561787240676 3869.3 441.0289316920836 3890.66 441.167209213907 3912.02 441.406683369976 3933.38 441.5375979828307 3954.74 441.6573661278967 3976.1 441.6626940555466 3997.46 441.70333243098173 4018.8199999999997 441.83280494374446 4040.18 442.11056785584276 4061.54 442.4035157162202 4082.9 442.7539759175269 4104.26 442.9453880046191 4125.62 443.09587998074596 4146.98 442.9731674669964 4168.34 442.95845521922934 4189.7 442.854171965349 4211.0599999999995 442.8417422387853 4232.42 441.72595383903854 4253.78 441.29796426599523 4275.139999999999 441.489616515065 4296.5 441.484756503997 4296.5 398 4275.139999999999 398 4253.78 397.99999999999994 4232.42 398 4211.0599999999995 398 4189.7 397.99999999999994 4168.34 398.00000000000006 4146.98 398 4125.62 398 4104.26 398.00000000000006 4082.9 397.99999999999994 4061.54 398 4040.18 398.00000000000006 4018.8199999999997 398 3997.46 398 3976.1 398 3954.74 398 3933.38 398.00000000000006 3912.02 398 3890.66 398 3869.3 398 3847.94 398 3826.58 397.99999999999994 3805.2200000000003 398 3783.86 398.00000000000006 3762.5 397.99999999999994 3741.14 398.00000000000006 3719.7799999999997 398 3698.42 398 3677.06 398 3655.7 398 3634.34 398.00000000000006 3612.98 398 3591.62 398 3570.26 398 3548.9 397.99999999999994 3527.54 398 3506.18 398 3484.82 398 3463.46 398 3442.1 398 3420.74 398 3399.38 398 3378.02 398 3356.66 398.00000000000006 3335.3 398 3313.94 398 3292.58 398 3271.22 398.00000000000006 3249.86 398 3228.5 397.99999999999994 3228.5 572.9112818795618Z" fill="#005aa6" opacity="0.9" />
		</g>
		<g>
			<rect x="4372" y="431" width="22.9995" height="23" fill="#e62d39" />
		</g>
		<g>
			<text fill="#595959" font-family="Verdana,Open Sans,DejaVu Sans,sans-serif" font-weight="400" font-size="41" transform="matrix(1 0 0 1 4404.56 454)">Non-Crawler</text>
		</g>
		<g>
			<rect x="4372" y="508" width="22.9995" height="23" fill="#005aa6" />
		</g>
		<g>
			<text fill="#595959" font-family="Verdana,Open Sans,DejaVu Sans,sans-serif" font-weight="400" font-size="41" transform="matrix(1 0 0 1 4404.56 531)">Crawler</text>
		</g>
	</g>
</svg>
