<svg width="1763" height="1046"
    xmlns="http://www.w3.org/2000/svg"
	xmlns:xlink="http://www.w3.org/1999/xlink" xml:space="preserve" overflow="hidden">
	<defs>
		<clipPath id="clip0">
			<rect x="2917" y="346" width="1763" height="1046"/>
		</clipPath>
	</defs>
	<g clip-path="url(#clip0)" transform="translate(-2917 -346)">
		<rect x="2918" y="347" width="1760" height="1043" fill="#FFFFFF" />
		<g>
			<path d="
			M3228.5 974.532 4296.5 974.532
			M3228.5 910.53 4296.5 910.53
			M3228.5 846.528 4296.5 846.528
			M3228.5 781.526 4296.5 781.526
			M3228.5 717.524 4296.5 717.524
			M3228.5 653.522 4296.5 653.522
			M3228.5 589.52 4296.5 589.52
			M3228.5 525.517 4296.5 525.517
			M3228.5 461.515 4296.5 461.515
			M3228.5 397.5 4296.5 397.5" stroke="#D9D9D9" stroke-width="3.4375" stroke-linejoin="round" stroke-miterlimit="10" fill="none" />
		</g>
		<g>
			<path d="M 1038.5 4296.5 1038.5" stroke="#D9D9D9" stroke-width="3.4375" stroke-linejoin="round" stroke-miterlimit="10" fill="none" fill-rule="evenodd" />
		</g>
		<g>
			<text fill="#595959" font-family="Verdana,Open Sans,DejaVu Sans,sans-serif" font-weight="400" font-size="41" transform="matrix(6.12323e-17 -1 1 6.12323e-17 3247.928955078125 1179.0385665893555)">21-Jul</text>
		</g>
		<g>
			<text fill="#595959" font-family="Verdana,Open Sans,DejaVu Sans,sans-serif" font-weight="400" font-size="41" transform="matrix(6.12323e-17 -1 1 6.12323e-17 3330.423133263221 1206.90576171875)">18-Aug</text>
		</g>
		<g>
			<text fill="#595959" font-family="Verdana,Open Sans,DejaVu Sans,sans-serif" font-weight="400" font-size="41" transform="matrix(6.12323e-17 -1 1 6.12323e-17 3412.5769794170674 1202.66162109375)">15-Sep</text>
		</g>
		<g>
			<text fill="#595959" font-family="Verdana,Open Sans,DejaVu Sans,sans-serif" font-weight="400" font-size="41" transform="matrix(6.12323e-17 -1 1 6.12323e-17 3490.0262357271636 1199.3784103393555)">13-Oct</text>
		</g>
		<g>
			<text fill="#595959" font-family="Verdana,Open Sans,DejaVu Sans,sans-serif" font-weight="400" font-size="41" transform="matrix(6.12323e-17 -1 1 6.12323e-17 3572.1800818810098 1209.70849609375)">10-Nov</text>
		</g>
		<g>
			<text fill="#595959" font-family="Verdana,Open Sans,DejaVu Sans,sans-serif" font-weight="400" font-size="41" transform="matrix(6.12323e-17 -1 1 6.12323e-17 3654.333928034856 1207.0859375)">08-Dec</text>
		</g>
		<g>
			<text fill="#595959" font-family="Verdana,Open Sans,DejaVu Sans,sans-serif" font-weight="400" font-size="41" transform="matrix(6.12323e-17 -1 1 6.12323e-17 3740.141338641827 1191.6508712768555)">05-Jan</text>
		</g>
		<g>
			<text fill="#595959" font-family="Verdana,Open Sans,DejaVu Sans,sans-serif" font-weight="400" font-size="41" transform="matrix(6.12323e-17 -1 1 6.12323e-17 3819.352313701923 1203.0419921875)">02-Feb</text>
		</g>
		<g>
			<text fill="#595959" font-family="Verdana,Open Sans,DejaVu Sans,sans-serif" font-weight="400" font-size="41" transform="matrix(6.12323e-17 -1 1 6.12323e-17 3900.7954664963945 1212.0107421875)">02-Mar</text>
		</g>
		<g>
			<text fill="#595959" font-family="Verdana,Open Sans,DejaVu Sans,sans-serif" font-weight="400" font-size="41" transform="matrix(6.12323e-17 -1 1 6.12323e-17 3982.9493126502402 1212.1708984375)">30-Mar</text>
		</g>
		<g>
			<text fill="#595959" font-family="Verdana,Open Sans,DejaVu Sans,sans-serif" font-weight="400" font-size="41" transform="matrix(6.12323e-17 -1 1 6.12323e-17 4069.807748647837 1203.3022384643555)">27-Apr</text>
		</g>
		<g>
			<text fill="#595959" font-family="Verdana,Open Sans,DejaVu Sans,sans-serif" font-weight="400" font-size="41" transform="matrix(6.12323e-17 -1 1 6.12323e-17 4151.961594801683 1216.51513671875)">25-May</text>
		</g>
		<g>
			<text fill="#595959" font-family="Verdana,Open Sans,DejaVu Sans,sans-serif" font-weight="400" font-size="41" transform="matrix(6.12323e-17 -1 1 6.12323e-17 4233.044396033654 1194.0532150268555)">22-Jun</text>
		</g>
		<g>
			<text fill="#595959" font-family="Verdana,Open Sans,DejaVu Sans,sans-serif" font-weight="400" font-size="41" transform="matrix(6.12323e-17 -1 1 6.12323e-17 4315.928955078125 1179.0385665893555)">20-Jul</text>
		</g>
		<g>
			<text fill="#595959" font-family="Verdana,Open Sans,DejaVu Sans,sans-serif" font-weight="400" font-size="41" transform="matrix(1 0 0 1 3169.14111328125 1050)">0</text>
		</g>
		<g>
			<text fill="#595959" font-family="Verdana,Open Sans,DejaVu Sans,sans-serif" font-weight="400" font-size="41" transform="matrix(1 0 0 1 3152.8251953125 922)">81</text>
		</g>
		<g>
			<text fill="#595959" font-family="Verdana,Open Sans,DejaVu Sans,sans-serif" font-weight="400" font-size="41" transform="matrix(1 0 0 1 3124.13720703125 794)">162</text>
		</g>
		<g>
			<text fill="#595959" font-family="Verdana,Open Sans,DejaVu Sans,sans-serif" font-weight="400" font-size="41" transform="matrix(1 0 0 1 3122.57568359375 666)">243</text>
		</g>
		<g>
			<text fill="#595959" font-family="Verdana,Open Sans,DejaVu Sans,sans-serif" font-weight="400" font-size="41" transform="matrix(1 0 0 1 3120.8740234375 538)">324</text>
		</g>
		<g>
			<text fill="#595959" font-family="Verdana,Open Sans,DejaVu Sans,sans-serif" font-weight="400" font-size="41" transform="matrix(1 0 0 1 3121.39453125 410)">405</text>
		</g>
		<g>
			<text fill="#595959" font-family="Verdana,Open Sans,DejaVu Sans,sans-serif" font-weight="400" font-size="41" transform="matrix(1 0 0 1 3556.97119140625 1321)">Week Commencing</text>
		</g>
		<g>
			<text fill="#595959" font-family="Verdana,Open Sans,DejaVu Sans,sans-serif" font-weight="400" font-size="46" transform="matrix(6.12323e-17 -1 1 6.12323e-17 3019.73 1005.4858093261719)">Number of Crawler Profiles</text>
		</g>
		<rect x="2918.5" y="347.5" width="1760" height="1043" stroke="#D9D9D9" stroke-width="3.4375" stroke-linejoin="round" stroke-miterlimit="10" fill="none" />
		<g>
			<path d="M3228.5 1038 3249.0384615384614 1038 3269.576923076923 1038 3290.1153846153848 1038 3310.653846153846 1038 3331.1923076923076 1038 3351.730769230769 1038 3372.269230769231 1038 3392.8076923076924 1038 3413.346153846154 1038 3433.8846153846152 1038 3454.423076923077 1038 3474.9615384615386 1038 3495.5 1038 3516.0384615384614 1038 3536.576923076923 1038 3557.1153846153848 1038 3577.653846153846 1038 3598.1923076923076 1038 3618.7307692307695 1038 3639.269230769231 1038 3659.8076923076924 1038 3680.346153846154 1038 3700.8846153846152 1038 3721.423076923077 1038 3741.9615384615386 1038 3762.5 1038 3783.0384615384614 1038 3803.576923076923 1038 3824.1153846153848 1038 3844.653846153846 1038 3865.1923076923076 1038 3885.7307692307695 1038 3906.269230769231 1038 3926.8076923076924 1038 3947.346153846154 1038 3967.8846153846152 1038 3988.423076923077 1038 4008.9615384615386 1038 4029.5 1038 4050.038461538462 1038 4070.576923076923 1038 4091.1153846153848 1038 4111.653846153846 1038 4132.192307692308 1038 4152.7307692307695 1038 4173.2692307692305 1038 4193.807692307692 1038 4214.346153846154 1038 4234.884615384615 1038 4255.423076923077 1038 4275.961538461539 1038 4296.5 1038 4296.5 399.58024691358025 4275.961538461539 402.74074074074076 4255.423076923077 402.74074074074076 4234.884615384615 402.74074074074076 4214.346153846154 404.320987654321 4193.807692307692 407.4814814814815 4173.2692307692305 407.4814814814815 4152.7307692307695 426.44444444444446 4132.192307692308 431.1851851851852 4111.653846153846 431.1851851851852 4091.1153846153848 431.1851851851852 4070.576923076923 431.1851851851852 4050.038461538462 431.1851851851852 4029.5 434.3456790123457 4008.9615384615386 440.66666666666674 3988.423076923077 440.66666666666674 3967.8846153846152 440.66666666666674 3947.346153846154 456.46913580246917 3926.8076923076924 456.46913580246917 3906.269230769231 456.46913580246917 3885.7307692307695 459.6296296296297 3865.1923076923076 462.7901234567902 3844.653846153846 459.6296296296297 3824.1153846153848 467.53086419753095 3803.576923076923 488.07407407407413 3783.0384615384614 489.6543209876544 3762.5 491.23456790123464 3741.9615384615386 491.23456790123464 3721.423076923077 491.23456790123464 3700.8846153846152 492.8148148148149 3680.346153846154 495.9753086419753 3659.8076923076924 497.55555555555554 3639.269230769231 499.1358024691358 3618.7307692307695 503.87654320987656 3598.1923076923076 503.87654320987656 3577.653846153846 503.87654320987656 3557.1153846153848 505.4567901234568 3536.576923076923 508.6172839506173 3516.0384615384614 508.6172839506173 3495.5 508.6172839506173 3474.9615384615386 510.1975308641976 3454.423076923077 510.1975308641976 3433.8846153846152 510.1975308641976 3413.346153846154 516.5185185185186 3392.8076923076924 516.5185185185186 3372.269230769231 516.5185185185186 3351.730769230769 516.5185185185186 3331.1923076923076 516.5185185185186 3310.653846153846 516.5185185185186 3290.1153846153848 516.5185185185186 3269.576923076923 516.5185185185186 3249.0384615384614 516.5185185185186 3228.5 518.0987654320988 3228.5 1038Z" fill="#005aa6" opacity="0.9" />
		</g>
		<g>
			<path d="M3228.5 518.0987654320988 3249.0384615384614 516.5185185185186 3269.576923076923 516.5185185185186 3290.1153846153848 516.5185185185186 3310.653846153846 516.5185185185186 3331.1923076923076 516.5185185185186 3351.730769230769 516.5185185185186 3372.269230769231 516.5185185185186 3392.8076923076924 516.5185185185186 3413.346153846154 516.5185185185186 3433.8846153846152 510.1975308641976 3454.423076923077 510.1975308641976 3474.9615384615386 510.1975308641976 3495.5 508.6172839506173 3516.0384615384614 508.6172839506173 3536.576923076923 508.6172839506173 3557.1153846153848 505.4567901234568 3577.653846153846 503.87654320987656 3598.1923076923076 503.87654320987656 3618.7307692307695 503.87654320987656 3639.269230769231 499.1358024691358 3659.8076923076924 497.55555555555554 3680.346153846154 495.9753086419753 3700.8846153846152 492.8148148148149 3721.423076923077 491.23456790123464 3741.9615384615386 491.23456790123464 3762.5 491.23456790123464 3783.0384615384614 489.6543209876544 3803.576923076923 488.07407407407413 3824.1153846153848 467.53086419753095 3844.653846153846 459.6296296296297 3865.1923076923076 462.7901234567902 3885.7307692307695 459.6296296296297 3906.269230769231 456.46913580246917 3926.8076923076924 456.46913580246917 3947.346153846154 456.46913580246917 3967.8846153846152 440.66666666666674 3988.423076923077 440.66666666666674 4008.9615384615386 440.66666666666674 4029.5 434.3456790123457 4050.038461538462 431.1851851851852 4070.576923076923 431.1851851851852 4091.1153846153848 431.1851851851852 4111.653846153846 431.1851851851852 4132.192307692308 431.1851851851852 4152.7307692307695 426.44444444444446 4173.2692307692305 407.4814814814815 4193.807692307692 407.4814814814815 4214.346153846154 404.320987654321 4234.884615384615 402.74074074074076 4255.423076923077 402.74074074074076 4275.961538461539 402.74074074074076 4296.5 399.58024691358025 4296.5 398 4275.961538461539 401.1604938271605 4255.423076923077 401.1604938271605 4234.884615384615 401.1604938271605 4214.346153846154 402.74074074074076 4193.807692307692 405.90123456790127 4173.2692307692305 405.90123456790127 4152.7307692307695 424.8641975308642 4132.192307692308 429.60493827160496 4111.653846153846 429.60493827160496 4091.1153846153848 429.60493827160496 4070.576923076923 429.60493827160496 4050.038461538462 429.60493827160496 4029.5 432.7654320987655 4008.9615384615386 439.0864197530865 3988.423076923077 439.0864197530865 3967.8846153846152 439.0864197530865 3947.346153846154 454.8888888888889 3926.8076923076924 454.8888888888889 3906.269230769231 454.8888888888889 3885.7307692307695 458.0493827160494 3865.1923076923076 459.6296296296297 3844.653846153846 456.46913580246917 3824.1153846153848 465.9506172839507 3803.576923076923 486.4938271604939 3783.0384615384614 488.07407407407413 3762.5 489.6543209876544 3741.9615384615386 489.6543209876544 3721.423076923077 489.6543209876544 3700.8846153846152 491.23456790123464 3680.346153846154 494.39506172839504 3659.8076923076924 495.9753086419753 3639.269230769231 497.55555555555554 3618.7307692307695 502.2962962962963 3598.1923076923076 502.2962962962963 3577.653846153846 502.2962962962963 3557.1153846153848 503.87654320987656 3536.576923076923 507.03703703703707 3516.0384615384614 507.03703703703707 3495.5 507.03703703703707 3474.9615384615386 508.6172839506173 3454.423076923077 508.6172839506173 3433.8846153846152 508.6172839506173 3413.346153846154 514.9382716049383 3392.8076923076924 514.9382716049383 3372.269230769231 514.9382716049383 3351.730769230769 514.9382716049383 3331.1923076923076 514.9382716049383 3310.653846153846 514.9382716049383 3290.1153846153848 514.9382716049383 3269.576923076923 514.9382716049383 3249.0384615384614 514.9382716049383 3228.5 516.5185185185186 3228.5 518.0987654320988Z" fill="#e62d39" opacity="0.9" />
		</g>
		<g>
			<rect x="4372" y="431" width="22.9995" height="23" fill="#005aa6" />
		</g>
		<g>
			<text fill="#595959" font-family="Verdana,Open Sans,DejaVu Sans,sans-serif" font-weight="400" font-size="41" transform="matrix(1 0 0 1 4404.56 454)">Crawler</text>
		</g>
		<g>
			<rect x="4372" y="508" width="22.9995" height="23" fill="#e62d39" />
		</g>
		<g>
			<text fill="#595959" font-family="Verdana,Open Sans,DejaVu Sans,sans-serif" font-weight="400" font-size="41" transform="matrix(1 0 0 1 4404.56 531)">Non-Crawler</text>
		</g>
	</g>
</svg>
