<svg width="1763" height="1046"
    xmlns="http://www.w3.org/2000/svg"
	xmlns:xlink="http://www.w3.org/1999/xlink" xml:space="preserve" overflow="hidden">
	<defs>
		<clipPath id="clip0">
			<rect x="2917" y="346" width="1763" height="1046"/>
		</clipPath>
	</defs>
	<g clip-path="url(#clip0)" transform="translate(-2917 -346)">
		<rect x="2918" y="347" width="1760" height="1043" fill="#FFFFFF" />
		<g>
			<path d="
			M3228.5 974.532 4296.5 974.532
			M3228.5 910.53 4296.5 910.53
			M3228.5 846.528 4296.5 846.528
			M3228.5 781.526 4296.5 781.526
			M3228.5 717.524 4296.5 717.524
			M3228.5 653.522 4296.5 653.522
			M3228.5 589.52 4296.5 589.52
			M3228.5 525.517 4296.5 525.517
			M3228.5 461.515 4296.5 461.515
			M3228.5 397.5 4296.5 397.5" stroke="#D9D9D9" stroke-width="3.4375" stroke-linejoin="round" stroke-miterlimit="10" fill="none" />
		</g>
		<g>
			<path d="M 1038.5 4296.5 1038.5" stroke="#D9D9D9" stroke-width="3.4375" stroke-linejoin="round" stroke-miterlimit="10" fill="none" fill-rule="evenodd" />
		</g>
		<g>
			<text fill="#595959" font-family="Verdana,Open Sans,DejaVu Sans,sans-serif" font-weight="400" font-size="41" transform="matrix(6.12323e-17 -1 1 6.12323e-17 3243.544677734375 1212.1708984375)">31-Mar</text>
		</g>
		<g>
			<text fill="#595959" font-family="Verdana,Open Sans,DejaVu Sans,sans-serif" font-weight="400" font-size="41" transform="matrix(6.12323e-17 -1 1 6.12323e-17 3332.033992991728 1203.3022384643555)">28-Apr</text>
		</g>
		<g>
			<text fill="#595959" font-family="Verdana,Open Sans,DejaVu Sans,sans-serif" font-weight="400" font-size="41" transform="matrix(6.12323e-17 -1 1 6.12323e-17 3415.798698874081 1216.51513671875)">26-May</text>
		</g>
		<g>
			<text fill="#595959" font-family="Verdana,Open Sans,DejaVu Sans,sans-serif" font-weight="400" font-size="41" transform="matrix(6.12323e-17 -1 1 6.12323e-17 3498.512379365809 1194.1733322143555)">30-Jun</text>
		</g>
		<g>
			<text fill="#595959" font-family="Verdana,Open Sans,DejaVu Sans,sans-serif" font-weight="400" font-size="41" transform="matrix(6.12323e-17 -1 1 6.12323e-17 3582.9877786075367 1179.0385665893555)">28-Jul</text>
		</g>
		<g>
			<text fill="#595959" font-family="Verdana,Open Sans,DejaVu Sans,sans-serif" font-weight="400" font-size="41" transform="matrix(6.12323e-17 -1 1 6.12323e-17 3667.09281652114 1208.66748046875)">25-Aug</text>
		</g>
		<g>
			<text fill="#595959" font-family="Verdana,Open Sans,DejaVu Sans,sans-serif" font-weight="400" font-size="41" transform="matrix(6.12323e-17 -1 1 6.12323e-17 3750.8575224034926 1204.42333984375)">22-Sep</text>
		</g>
		<g>
			<text fill="#595959" font-family="Verdana,Open Sans,DejaVu Sans,sans-serif" font-weight="400" font-size="41" transform="matrix(6.12323e-17 -1 1 6.12323e-17 3829.9176384420957 1201.1401290893555)">20-Oct</text>
		</g>
		<g>
			<text fill="#595959" font-family="Verdana,Open Sans,DejaVu Sans,sans-serif" font-weight="400" font-size="41" transform="matrix(6.12323e-17 -1 1 6.12323e-17 3913.4521197150734 1209.70849609375)">17-Nov</text>
		</g>
		<g>
			<text fill="#595959" font-family="Verdana,Open Sans,DejaVu Sans,sans-serif" font-weight="400" font-size="41" transform="matrix(6.12323e-17 -1 1 6.12323e-17 3997.2168255974266 1205.3642578125)">15-Dec</text>
		</g>
		<g>
			<text fill="#595959" font-family="Verdana,Open Sans,DejaVu Sans,sans-serif" font-weight="400" font-size="41" transform="matrix(6.12323e-17 -1 1 6.12323e-17 4084.8453010110293 1189.9291915893555)">12-Jan</text>
		</g>
		<g>
			<text fill="#595959" font-family="Verdana,Open Sans,DejaVu Sans,sans-serif" font-weight="400" font-size="41" transform="matrix(6.12323e-17 -1 1 6.12323e-17 4165.687155330882 1203.0419921875)">09-Feb</text>
		</g>
		<g>
			<text fill="#595959" font-family="Verdana,Open Sans,DejaVu Sans,sans-serif" font-weight="400" font-size="41" transform="matrix(6.12323e-17 -1 1 6.12323e-17 4248.74116785386 1212.0107421875)">09-Mar</text>
		</g>
		<g>
			<text fill="#595959" font-family="Verdana,Open Sans,DejaVu Sans,sans-serif" font-weight="400" font-size="41" transform="matrix(1 0 0 1 3169.14111328125 1050)">0</text>
		</g>
		<g>
			<text fill="#595959" font-family="Verdana,Open Sans,DejaVu Sans,sans-serif" font-weight="400" font-size="41" transform="matrix(1 0 0 1 3145.498046875 922)">76</text>
		</g>
		<g>
			<text fill="#595959" font-family="Verdana,Open Sans,DejaVu Sans,sans-serif" font-weight="400" font-size="41" transform="matrix(1 0 0 1 3124.13720703125 794)">152</text>
		</g>
		<g>
			<text fill="#595959" font-family="Verdana,Open Sans,DejaVu Sans,sans-serif" font-weight="400" font-size="41" transform="matrix(1 0 0 1 3122.25537109375 666)">227</text>
		</g>
		<g>
			<text fill="#595959" font-family="Verdana,Open Sans,DejaVu Sans,sans-serif" font-weight="400" font-size="41" transform="matrix(1 0 0 1 3122.45556640625 538)">303</text>
		</g>
		<g>
			<text fill="#595959" font-family="Verdana,Open Sans,DejaVu Sans,sans-serif" font-weight="400" font-size="41" transform="matrix(1 0 0 1 3122.25537109375 410)">379</text>
		</g>
		<g>
			<text fill="#595959" font-family="Verdana,Open Sans,DejaVu Sans,sans-serif" font-weight="400" font-size="41" transform="matrix(1 0 0 1 3556.97119140625 1321)">Week Commencing</text>
		</g>
		<g>
			<text fill="#595959" font-family="Verdana,Open Sans,DejaVu Sans,sans-serif" font-weight="400" font-size="46" transform="matrix(6.12323e-17 -1 1 6.12323e-17 3019.73 1005.4858093261719)">Number of Crawler Profiles</text>
		</g>
		<rect x="2918.5" y="347.5" width="1760" height="1043" stroke="#D9D9D9" stroke-width="3.4375" stroke-linejoin="round" stroke-miterlimit="10" fill="none" />
		<g>
			<path d="M3228.5 1038 3249.4411764705883 1038 3270.3823529411766 1038 3291.323529411765 1038 3312.264705882353 1038 3333.205882352941 1038 3354.1470588235293 1038 3375.0882352941176 1038 3396.029411764706 1038 3416.970588235294 1038 3437.9117647058824 1038 3458.8529411764707 1038 3479.794117647059 1038 3500.735294117647 1038 3521.676470588235 1038 3542.6176470588234 1038 3563.5588235294117 1038 3584.5 1038 3605.4411764705883 1038 3626.3823529411766 1038 3647.323529411765 1038 3668.264705882353 1038 3689.205882352941 1038 3710.1470588235293 1038 3731.0882352941176 1038 3752.029411764706 1038 3772.970588235294 1038 3793.9117647058824 1038 3814.8529411764707 1038 3835.7941176470586 1038 3856.735294117647 1038 3877.676470588235 1038 3898.6176470588234 1038 3919.5588235294117 1038 3940.5 1038 3961.4411764705883 1038 3982.3823529411766 1038 4003.323529411765 1038 4024.264705882353 1038 4045.2058823529414 1038 4066.1470588235293 1038 4087.0882352941176 1038 4108.029411764706 1038 4128.970588235294 1038 4149.911764705882 1038 4170.85294117647 1038 4191.794117647059 1038 4212.735294117647 1038 4233.676470588235 1038 4254.617647058823 1038 4275.558823529412 1038 4296.5 1038 4296.5 399.688654353562 4275.558823529412 416.57519788918205 4254.617647058823 416.57519788918205 4233.676470588235 416.57519788918205 4212.735294117647 419.9525065963061 4191.794117647059 423.3298153034301 4170.85294117647 419.9525065963061 4149.911764705882 428.39577836411604 4128.970588235294 450.3482849604221 4108.029411764706 452.03693931398413 4087.0882352941176 453.72559366754615 4066.1470588235293 453.72559366754615 4045.2058823529414 453.72559366754615 4024.264705882353 455.41424802110816 4003.323529411765 458.7915567282322 3982.3823529411766 460.4802110817942 3961.4411764705883 462.1688654353562 3940.5 467.23482849604216 3919.5588235294117 467.23482849604216 3898.6176470588234 467.23482849604216 3877.676470588235 468.92348284960417 3856.735294117647 472.3007915567282 3835.7941176470586 472.3007915567282 3814.8529411764707 472.3007915567282 3793.9117647058824 473.9894459102902 3772.970588235294 473.9894459102902 3752.029411764706 473.9894459102902 3731.0882352941176 480.7440633245383 3710.1470588235293 480.7440633245383 3689.205882352941 480.7440633245383 3668.264705882353 480.7440633245383 3647.323529411765 480.7440633245383 3626.3823529411766 480.7440633245383 3605.4411764705883 480.7440633245383 3584.5 480.7440633245383 3563.5588235294117 480.7440633245383 3542.6176470588234 482.4327176781003 3521.676470588235 482.4327176781003 3500.735294117647 484.1213720316623 3479.794117647059 484.1213720316623 3458.8529411764707 492.56464379947226 3437.9117647058824 494.2532981530343 3416.970588235294 494.2532981530343 3396.029411764706 497.6306068601583 3375.0882352941176 499.3192612137203 3354.1470588235293 504.38522427440637 3333.205882352941 506.07387862796827 3312.264705882353 507.7625329815303 3291.323529411765 509.4511873350923 3270.3823529411766 509.4511873350923 3249.4411764705883 509.4511873350923 3228.5 511.1398416886543 3228.5 1038Z" fill="#005aa6" opacity="0.9" />
		</g>
		<g>
			<path d="M3228.5 511.1398416886543 3249.4411764705883 509.4511873350923 3270.3823529411766 509.4511873350923 3291.323529411765 509.4511873350923 3312.264705882353 507.7625329815303 3333.205882352941 506.07387862796827 3354.1470588235293 504.38522427440637 3375.0882352941176 499.3192612137203 3396.029411764706 497.6306068601583 3416.970588235294 494.2532981530343 3437.9117647058824 494.2532981530343 3458.8529411764707 492.56464379947226 3479.794117647059 484.1213720316623 3500.735294117647 484.1213720316623 3521.676470588235 482.4327176781003 3542.6176470588234 482.4327176781003 3563.5588235294117 480.7440633245383 3584.5 480.7440633245383 3605.4411764705883 480.7440633245383 3626.3823529411766 480.7440633245383 3647.323529411765 480.7440633245383 3668.264705882353 480.7440633245383 3689.205882352941 480.7440633245383 3710.1470588235293 480.7440633245383 3731.0882352941176 480.7440633245383 3752.029411764706 473.9894459102902 3772.970588235294 473.9894459102902 3793.9117647058824 473.9894459102902 3814.8529411764707 472.3007915567282 3835.7941176470586 472.3007915567282 3856.735294117647 472.3007915567282 3877.676470588235 468.92348284960417 3898.6176470588234 467.23482849604216 3919.5588235294117 467.23482849604216 3940.5 467.23482849604216 3961.4411764705883 462.1688654353562 3982.3823529411766 460.4802110817942 4003.323529411765 458.7915567282322 4024.264705882353 455.41424802110816 4045.2058823529414 453.72559366754615 4066.1470588235293 453.72559366754615 4087.0882352941176 453.72559366754615 4108.029411764706 452.03693931398413 4128.970588235294 450.3482849604221 4149.911764705882 428.39577836411604 4170.85294117647 419.9525065963061 4191.794117647059 423.3298153034301 4212.735294117647 419.9525065963061 4233.676470588235 416.57519788918205 4254.617647058823 416.57519788918205 4275.558823529412 416.57519788918205 4296.5 399.688654353562 4296.5 398 4275.558823529412 414.88654353562004 4254.617647058823 414.88654353562004 4233.676470588235 414.88654353562004 4212.735294117647 418.26385224274406 4191.794117647059 419.9525065963061 4170.85294117647 416.57519788918205 4149.911764705882 426.707124010554 4128.970588235294 448.6596306068601 4108.029411764706 450.3482849604221 4087.0882352941176 452.03693931398413 4066.1470588235293 452.03693931398413 4045.2058823529414 452.03693931398413 4024.264705882353 453.72559366754615 4003.323529411765 457.1029023746702 3982.3823529411766 458.7915567282322 3961.4411764705883 460.4802110817942 3940.5 465.54617414248014 3919.5588235294117 465.54617414248014 3898.6176470588234 465.54617414248014 3877.676470588235 467.23482849604216 3856.735294117647 470.6121372031662 3835.7941176470586 470.6121372031662 3814.8529411764707 470.6121372031662 3793.9117647058824 472.3007915567282 3772.970588235294 472.3007915567282 3752.029411764706 472.3007915567282 3731.0882352941176 479.05540897097626 3710.1470588235293 479.05540897097626 3689.205882352941 479.05540897097626 3668.264705882353 479.05540897097626 3647.323529411765 479.05540897097626 3626.3823529411766 479.05540897097626 3605.4411764705883 479.05540897097626 3584.5 479.05540897097626 3563.5588235294117 479.05540897097626 3542.6176470588234 480.7440633245383 3521.676470588235 480.7440633245383 3500.735294117647 482.4327176781003 3479.794117647059 482.4327176781003 3458.8529411764707 490.87598944591025 3437.9117647058824 492.56464379947226 3416.970588235294 492.56464379947226 3396.029411764706 495.9419525065963 3375.0882352941176 497.6306068601583 3354.1470588235293 502.69656992084435 3333.205882352941 504.38522427440626 3312.264705882353 506.07387862796827 3291.323529411765 507.7625329815303 3270.3823529411766 507.7625329815303 3249.4411764705883 507.7625329815303 3228.5 509.4511873350923 3228.5 511.1398416886543Z" fill="#e62d39" opacity="0.9" />
		</g>
		<g>
			<rect x="4372" y="431" width="22.9995" height="23" fill="#005aa6" />
		</g>
		<g>
			<text fill="#595959" font-family="Verdana,Open Sans,DejaVu Sans,sans-serif" font-weight="400" font-size="41" transform="matrix(1 0 0 1 4404.56 454)">Crawler</text>
		</g>
		<g>
			<rect x="4372" y="508" width="22.9995" height="23" fill="#e62d39" />
		</g>
		<g>
			<text fill="#595959" font-family="Verdana,Open Sans,DejaVu Sans,sans-serif" font-weight="400" font-size="41" transform="matrix(1 0 0 1 4404.56 531)">Non-Crawler</text>
		</g>
	</g>
</svg>
