<svg width="1763" height="1046"
    xmlns="http://www.w3.org/2000/svg"
	xmlns:xlink="http://www.w3.org/1999/xlink" xml:space="preserve" overflow="hidden">
	<defs>
		<clipPath id="clip0">
			<rect x="2917" y="346" width="1763" height="1046"/>
		</clipPath>
	</defs>
	<g clip-path="url(#clip0)" transform="translate(-2917 -346)">
		<rect x="2918" y="347" width="1760" height="1043" fill="#FFFFFF" />
		<g>
			<path d="
			M3228.5 974.532 4296.5 974.532
			M3228.5 910.53 4296.5 910.53
			M3228.5 846.528 4296.5 846.528
			M3228.5 781.526 4296.5 781.526
			M3228.5 717.524 4296.5 717.524
			M3228.5 653.522 4296.5 653.522
			M3228.5 589.52 4296.5 589.52
			M3228.5 525.517 4296.5 525.517
			M3228.5 461.515 4296.5 461.515
			M3228.5 397.5 4296.5 397.5" stroke="#D9D9D9" stroke-width="3.4375" stroke-linejoin="round" stroke-miterlimit="10" fill="none" />
		</g>
		<g>
			<path d="M 1038.5 4296.5 1038.5" stroke="#D9D9D9" stroke-width="3.4375" stroke-linejoin="round" stroke-miterlimit="10" fill="none" fill-rule="evenodd" />
		</g>
		<g>
			<text fill="#595959" font-family="Verdana,Open Sans,DejaVu Sans,sans-serif" font-weight="400" font-size="41" transform="matrix(6.12323e-17 -1 1 6.12323e-17 3247.21826171875 1194.0131759643555)">09-Jun</text>
		</g>
		<g>
			<text fill="#595959" font-family="Verdana,Open Sans,DejaVu Sans,sans-serif" font-weight="400" font-size="41" transform="matrix(6.12323e-17 -1 1 6.12323e-17 3331.693660960478 1178.9985275268555)">07-Jul</text>
		</g>
		<g>
			<text fill="#595959" font-family="Verdana,Open Sans,DejaVu Sans,sans-serif" font-weight="400" font-size="41" transform="matrix(6.12323e-17 -1 1 6.12323e-17 3415.818718405331 1208.62744140625)">04-Aug</text>
		</g>
		<g>
			<text fill="#595959" font-family="Verdana,Open Sans,DejaVu Sans,sans-serif" font-weight="400" font-size="41" transform="matrix(6.12323e-17 -1 1 6.12323e-17 3499.583424287684 1204.38330078125)">01-Sep</text>
		</g>
		<g>
			<text fill="#595959" font-family="Verdana,Open Sans,DejaVu Sans,sans-serif" font-weight="400" font-size="41" transform="matrix(6.12323e-17 -1 1 6.12323e-17 3583.3281106387867 1204.42333984375)">29-Sep</text>
		</g>
		<g>
			<text fill="#595959" font-family="Verdana,Open Sans,DejaVu Sans,sans-serif" font-weight="400" font-size="41" transform="matrix(6.12323e-17 -1 1 6.12323e-17 3662.38822667739 1201.1401290893555)">27-Oct</text>
		</g>
		<g>
			<text fill="#595959" font-family="Verdana,Open Sans,DejaVu Sans,sans-serif" font-weight="400" font-size="41" transform="matrix(6.12323e-17 -1 1 6.12323e-17 3746.1329130284926 1211.47021484375)">24-Nov</text>
		</g>
		<g>
			<text fill="#595959" font-family="Verdana,Open Sans,DejaVu Sans,sans-serif" font-weight="400" font-size="41" transform="matrix(6.12323e-17 -1 1 6.12323e-17 3829.8976189108457 1207.1259765625)">22-Dec</text>
		</g>
		<g>
			<text fill="#595959" font-family="Verdana,Open Sans,DejaVu Sans,sans-serif" font-weight="400" font-size="41" transform="matrix(6.12323e-17 -1 1 6.12323e-17 3917.3158892463234 1189.9291915893555)">19-Jan</text>
		</g>
		<g>
			<text fill="#595959" font-family="Verdana,Open Sans,DejaVu Sans,sans-serif" font-weight="400" font-size="41" transform="matrix(6.12323e-17 -1 1 6.12323e-17 3998.1577435661766 1201.3203125)">16-Feb</text>
		</g>
		<g>
			<text fill="#595959" font-family="Verdana,Open Sans,DejaVu Sans,sans-serif" font-weight="400" font-size="41" transform="matrix(6.12323e-17 -1 1 6.12323e-17 4081.1917365579043 1210.2890625)">16-Mar</text>
		</g>
		<g>
			<text fill="#595959" font-family="Verdana,Open Sans,DejaVu Sans,sans-serif" font-weight="400" font-size="41" transform="matrix(6.12323e-17 -1 1 6.12323e-17 4169.681051815257 1201.5405197143555)">13-Apr</text>
		</g>
		<g>
			<text fill="#595959" font-family="Verdana,Open Sans,DejaVu Sans,sans-serif" font-weight="400" font-size="41" transform="matrix(6.12323e-17 -1 1 6.12323e-17 4253.235552619485 1214.75341796875)">11-May</text>
		</g>
		<g>
			<text fill="#595959" font-family="Verdana,Open Sans,DejaVu Sans,sans-serif" font-weight="400" font-size="41" transform="matrix(1 0 0 1 3135.4482421875 1050)">0%</text>
		</g>
		<g>
			<text fill="#595959" font-family="Verdana,Open Sans,DejaVu Sans,sans-serif" font-weight="400" font-size="41" transform="matrix(1 0 0 1 3111.96533203125 922)">20%</text>
		</g>
		<g>
			<text fill="#595959" font-family="Verdana,Open Sans,DejaVu Sans,sans-serif" font-weight="400" font-size="41" transform="matrix(1 0 0 1 3110.82421875 794)">40%</text>
		</g>
		<g>
			<text fill="#595959" font-family="Verdana,Open Sans,DejaVu Sans,sans-serif" font-weight="400" font-size="41" transform="matrix(1 0 0 1 3112.3056640625 666)">60%</text>
		</g>
		<g>
			<text fill="#595959" font-family="Verdana,Open Sans,DejaVu Sans,sans-serif" font-weight="400" font-size="41" transform="matrix(1 0 0 1 3112.04541015625 538)">80%</text>
		</g>
		<g>
			<text fill="#595959" font-family="Verdana,Open Sans,DejaVu Sans,sans-serif" font-weight="400" font-size="41" transform="matrix(1 0 0 1 3090.2841796875 410)">100%</text>
		</g>
		<g>
			<text fill="#595959" font-family="Verdana,Open Sans,DejaVu Sans,sans-serif" font-weight="400" font-size="41" transform="matrix(1 0 0 1 3556.97119140625 1321)">Week Commencing</text>
		</g>
		<g>
			<text fill="#595959" font-family="Verdana,Open Sans,DejaVu Sans,sans-serif" font-weight="400" font-size="46" transform="matrix(6.12323e-17 -1 1 6.12323e-17 3019.73 936.7665710449219)">Requests (% of Total)</text>
		</g>
		<rect x="2918.5" y="347.5" width="1760" height="1043" stroke="#D9D9D9" stroke-width="3.4375" stroke-linejoin="round" stroke-miterlimit="10" fill="none" />
		<g>
			<path d="M3228.5 1038 3249.4411764705883 1038 3270.3823529411766 1038 3291.323529411765 1038 3312.264705882353 1038 3333.205882352941 1038 3354.1470588235293 1038 3375.0882352941176 1038 3396.029411764706 1038 3416.970588235294 1038 3437.9117647058824 1038 3458.8529411764707 1038 3479.794117647059 1038 3500.735294117647 1038 3521.676470588235 1038 3542.6176470588234 1038 3563.5588235294117 1038 3584.5 1038 3605.4411764705883 1038 3626.3823529411766 1038 3647.323529411765 1038 3668.264705882353 1038 3689.205882352941 1038 3710.1470588235293 1038 3731.0882352941176 1038 3752.029411764706 1038 3772.970588235294 1038 3793.9117647058824 1038 3814.8529411764707 1038 3835.7941176470586 1038 3856.735294117647 1038 3877.676470588235 1038 3898.6176470588234 1038 3919.5588235294117 1038 3940.5 1038 3961.4411764705883 1038 3982.3823529411766 1038 4003.323529411765 1038 4024.264705882353 1038 4045.2058823529414 1038 4066.1470588235293 1038 4087.0882352941176 1038 4108.029411764706 1038 4128.970588235294 1038 4149.911764705882 1038 4170.85294117647 1038 4191.794117647059 1038 4212.735294117647 1038 4233.676470588235 1038 4254.617647058823 1038 4275.558823529412 1038 4296.5 1038 4296.5 437.23330094896914 4275.558823529412 437.2252678895536 4254.617647058823 437.2266571256755 4233.676470588235 437.41933993409225 4212.735294117647 437.77571312198756 4191.794117647059 437.9538782171219 4170.85294117647 438.04589818914667 4149.911764705882 438.30346732909925 4128.970588235294 437.9330255815296 4108.029411764706 437.830120525933 4087.0882352941176 437.4274922428566 4066.1470588235293 437.5327918592636 4045.2058823529414 437.70848432679963 4024.264705882353 437.8791578329525 4003.323529411765 438.2569100073033 3982.3823529411766 438.25416567656384 3961.4411764705883 438.2284066200755 3940.5 438.4018523571715 3919.5588235294117 438.2585045087485 3898.6176470588234 438.1419455028754 3877.676470588235 438.1490336079519 3856.735294117647 438.2753528850003 3835.7941176470586 438.3712938024157 3814.8529411764707 438.93844580645873 3793.9117647058824 438.66009075050135 3772.970588235294 438.6550093538849 3752.029411764706 438.8753603320732 3731.0882352941176 440.072777946987 3710.1470588235293 439.54649540853677 3689.205882352941 439.7648762802967 3668.264705882353 440.0929578933227 3647.323529411765 440.1107731424996 3626.3823529411766 440.17666153343987 3605.4411764705883 440.17259352262283 3584.5 440.3280263296216 3563.5588235294117 440.34799215358134 3542.6176470588234 440.40616975209355 3521.676470588235 440.40760550465325 3500.735294117647 440.94196380839696 3479.794117647059 441.17078340782746 3458.8529411764707 441.17336955313306 3437.9117647058824 441.3391880005887 3416.970588235294 441.48654078274615 3396.029411764706 441.48316478044603 3375.0882352941176 441.484756503997 3354.1470588235293 441.489616515065 3333.205882352941 441.29796426599523 3312.264705882353 441.72595383903854 3291.323529411765 442.8417422387853 3270.3823529411766 442.854171965349 3249.4411764705883 442.95845521922934 3228.5 442.9731674669964 3228.5 1038Z" fill="#e62d39" opacity="0.9" />
		</g>
		<g>
			<path d="M3228.5 442.9731674669964 3249.4411764705883 442.95845521922934 3270.3823529411766 442.854171965349 3291.323529411765 442.8417422387853 3312.264705882353 441.72595383903854 3333.205882352941 441.29796426599523 3354.1470588235293 441.489616515065 3375.0882352941176 441.484756503997 3396.029411764706 441.48316478044603 3416.970588235294 441.48654078274615 3437.9117647058824 441.3391880005887 3458.8529411764707 441.17336955313306 3479.794117647059 441.17078340782746 3500.735294117647 440.94196380839696 3521.676470588235 440.40760550465325 3542.6176470588234 440.40616975209355 3563.5588235294117 440.34799215358134 3584.5 440.3280263296216 3605.4411764705883 440.17259352262283 3626.3823529411766 440.17666153343987 3647.323529411765 440.1107731424996 3668.264705882353 440.0929578933227 3689.205882352941 439.7648762802967 3710.1470588235293 439.54649540853677 3731.0882352941176 440.072777946987 3752.029411764706 438.8753603320732 3772.970588235294 438.6550093538849 3793.9117647058824 438.66009075050135 3814.8529411764707 438.93844580645873 3835.7941176470586 438.3712938024157 3856.735294117647 438.2753528850003 3877.676470588235 438.1490336079519 3898.6176470588234 438.1419455028754 3919.5588235294117 438.2585045087485 3940.5 438.4018523571715 3961.4411764705883 438.2284066200755 3982.3823529411766 438.25416567656384 4003.323529411765 438.2569100073033 4024.264705882353 437.8791578329525 4045.2058823529414 437.70848432679963 4066.1470588235293 437.5327918592636 4087.0882352941176 437.4274922428566 4108.029411764706 437.830120525933 4128.970588235294 437.9330255815296 4149.911764705882 438.30346732909925 4170.85294117647 438.04589818914667 4191.794117647059 437.9538782171219 4212.735294117647 437.77571312198756 4233.676470588235 437.41933993409225 4254.617647058823 437.2266571256755 4275.558823529412 437.2252678895536 4296.5 437.23330094896914 4296.5 397.99999999999994 4275.558823529412 397.99999999999994 4254.617647058823 398.00000000000006 4233.676470588235 397.99999999999994 4212.735294117647 398 4191.794117647059 398 4170.85294117647 398 4149.911764705882 398 4128.970588235294 398.00000000000006 4108.029411764706 398 4087.0882352941176 398 4066.1470588235293 398 4045.2058823529414 397.99999999999994 4024.264705882353 398 4003.323529411765 397.99999999999994 3982.3823529411766 398 3961.4411764705883 398 3940.5 398.00000000000006 3919.5588235294117 398 3898.6176470588234 397.99999999999994 3877.676470588235 398 3856.735294117647 398.00000000000006 3835.7941176470586 398 3814.8529411764707 398 3793.9117647058824 398 3772.970588235294 398.00000000000006 3752.029411764706 398 3731.0882352941176 398 3710.1470588235293 398 3689.205882352941 398.00000000000006 3668.264705882353 398 3647.323529411765 398 3626.3823529411766 398.00000000000006 3605.4411764705883 398 3584.5 398.00000000000006 3563.5588235294117 398.00000000000006 3542.6176470588234 398.0000000000001 3521.676470588235 398 3500.735294117647 398 3479.794117647059 398 3458.8529411764707 397.99999999999994 3437.9117647058824 398 3416.970588235294 398 3396.029411764706 397.99999999999994 3375.0882352941176 398 3354.1470588235293 398 3333.205882352941 397.99999999999994 3312.264705882353 398 3291.323529411765 398 3270.3823529411766 397.99999999999994 3249.4411764705883 398.00000000000006 3228.5 398 3228.5 442.9731674669964Z" fill="#005aa6" opacity="0.9" />
		</g>
		<g>
			<rect x="4372" y="431" width="22.9995" height="23" fill="#e62d39" />
		</g>
		<g>
			<text fill="#595959" font-family="Verdana,Open Sans,DejaVu Sans,sans-serif" font-weight="400" font-size="41" transform="matrix(1 0 0 1 4404.56 454)">Non-Crawler</text>
		</g>
		<g>
			<rect x="4372" y="508" width="22.9995" height="23" fill="#005aa6" />
		</g>
		<g>
			<text fill="#595959" font-family="Verdana,Open Sans,DejaVu Sans,sans-serif" font-weight="400" font-size="41" transform="matrix(1 0 0 1 4404.56 531)">Crawler</text>
		</g>
	</g>
</svg>
