<svg width="1763" height="1046"
    xmlns="http://www.w3.org/2000/svg"
	xmlns:xlink="http://www.w3.org/1999/xlink" xml:space="preserve" overflow="hidden">
	<defs>
		<clipPath id="clip0">
			<rect x="2917" y="346" width="1763" height="1046"/>
		</clipPath>
	</defs>
	<g clip-path="url(#clip0)" transform="translate(-2917 -346)">
		<rect x="2918" y="347" width="1760" height="1043" fill="#FFFFFF" />
		<g>
			<path d="
			M3228.5 974.532 4296.5 974.532
			M3228.5 910.53 4296.5 910.53
			M3228.5 846.528 4296.5 846.528
			M3228.5 781.526 4296.5 781.526
			M3228.5 717.524 4296.5 717.524
			M3228.5 653.522 4296.5 653.522
			M3228.5 589.52 4296.5 589.52
			M3228.5 525.517 4296.5 525.517
			M3228.5 461.515 4296.5 461.515
			M3228.5 397.5 4296.5 397.5" stroke="#D9D9D9" stroke-width="3.4375" stroke-linejoin="round" stroke-miterlimit="10" fill="none" />
		</g>
		<g>
			<path d="M 1038.5 4296.5 1038.5" stroke="#D9D9D9" stroke-width="3.4375" stroke-linejoin="round" stroke-miterlimit="10" fill="none" fill-rule="evenodd" />
		</g>
		<g>
			<text fill="#595959" font-family="Verdana,Open Sans,DejaVu Sans,sans-serif" font-weight="400" font-size="41" transform="matrix(6.12323e-17 -1 1 6.12323e-17 3244.275390625 1203.0419921875)">03-Feb</text>
		</g>
		<g>
			<text fill="#595959" font-family="Verdana,Open Sans,DejaVu Sans,sans-serif" font-weight="400" font-size="41" transform="matrix(6.12323e-17 -1 1 6.12323e-17 3329.004697265625 1212.0107421875)">03-Mar</text>
		</g>
		<g>
			<text fill="#595959" font-family="Verdana,Open Sans,DejaVu Sans,sans-serif" font-weight="400" font-size="41" transform="matrix(6.12323e-17 -1 1 6.12323e-17 3414.424677734375 1212.1708984375)">31-Mar</text>
		</g>
		<g>
			<text fill="#595959" font-family="Verdana,Open Sans,DejaVu Sans,sans-serif" font-weight="400" font-size="41" transform="matrix(6.12323e-17 -1 1 6.12323e-17 3504.589287109375 1203.3022384643555)">28-Apr</text>
		</g>
		<g>
			<text fill="#595959" font-family="Verdana,Open Sans,DejaVu Sans,sans-serif" font-weight="400" font-size="41" transform="matrix(6.12323e-17 -1 1 6.12323e-17 3590.029287109375 1216.51513671875)">26-May</text>
		</g>
		<g>
			<text fill="#595959" font-family="Verdana,Open Sans,DejaVu Sans,sans-serif" font-weight="400" font-size="41" transform="matrix(6.12323e-17 -1 1 6.12323e-17 3674.41826171875 1194.1733322143555)">30-Jun</text>
		</g>
		<g>
			<text fill="#595959" font-family="Verdana,Open Sans,DejaVu Sans,sans-serif" font-weight="400" font-size="41" transform="matrix(6.12323e-17 -1 1 6.12323e-17 3760.568955078125 1179.0385665893555)">28-Jul</text>
		</g>
		<g>
			<text fill="#595959" font-family="Verdana,Open Sans,DejaVu Sans,sans-serif" font-weight="400" font-size="41" transform="matrix(6.12323e-17 -1 1 6.12323e-17 3846.349287109375 1208.66748046875)">25-Aug</text>
		</g>
		<g>
			<text fill="#595959" font-family="Verdana,Open Sans,DejaVu Sans,sans-serif" font-weight="400" font-size="41" transform="matrix(6.12323e-17 -1 1 6.12323e-17 3931.789287109375 1204.42333984375)">22-Sep</text>
		</g>
		<g>
			<text fill="#595959" font-family="Verdana,Open Sans,DejaVu Sans,sans-serif" font-weight="400" font-size="41" transform="matrix(6.12323e-17 -1 1 6.12323e-17 4012.524697265625 1201.1401290893555)">20-Oct</text>
		</g>
		<g>
			<text fill="#595959" font-family="Verdana,Open Sans,DejaVu Sans,sans-serif" font-weight="400" font-size="41" transform="matrix(6.12323e-17 -1 1 6.12323e-17 4097.73447265625 1209.70849609375)">17-Nov</text>
		</g>
		<g>
			<text fill="#595959" font-family="Verdana,Open Sans,DejaVu Sans,sans-serif" font-weight="400" font-size="41" transform="matrix(6.12323e-17 -1 1 6.12323e-17 4183.17447265625 1205.3642578125)">15-Dec</text>
		</g>
		<g>
			<text fill="#595959" font-family="Verdana,Open Sans,DejaVu Sans,sans-serif" font-weight="400" font-size="41" transform="matrix(6.12323e-17 -1 1 6.12323e-17 4272.4782421875 1189.9291915893555)">12-Jan</text>
		</g>
		<g>
			<text fill="#595959" font-family="Verdana,Open Sans,DejaVu Sans,sans-serif" font-weight="400" font-size="41" transform="matrix(1 0 0 1 3169.14111328125 1050)">0</text>
		</g>
		<g>
			<text fill="#595959" font-family="Verdana,Open Sans,DejaVu Sans,sans-serif" font-weight="400" font-size="41" transform="matrix(1 0 0 1 3145.5380859375 922)">70</text>
		</g>
		<g>
			<text fill="#595959" font-family="Verdana,Open Sans,DejaVu Sans,sans-serif" font-weight="400" font-size="41" transform="matrix(1 0 0 1 3124.13720703125 794)">139</text>
		</g>
		<g>
			<text fill="#595959" font-family="Verdana,Open Sans,DejaVu Sans,sans-serif" font-weight="400" font-size="41" transform="matrix(1 0 0 1 3122.37548828125 666)">209</text>
		</g>
		<g>
			<text fill="#595959" font-family="Verdana,Open Sans,DejaVu Sans,sans-serif" font-weight="400" font-size="41" transform="matrix(1 0 0 1 3122.29541015625 538)">278</text>
		</g>
		<g>
			<text fill="#595959" font-family="Verdana,Open Sans,DejaVu Sans,sans-serif" font-weight="400" font-size="41" transform="matrix(1 0 0 1 3122.17529296875 410)">348</text>
		</g>
		<g>
			<text fill="#595959" font-family="Verdana,Open Sans,DejaVu Sans,sans-serif" font-weight="400" font-size="41" transform="matrix(1 0 0 1 3556.97119140625 1321)">Week Commencing</text>
		</g>
		<g>
			<text fill="#595959" font-family="Verdana,Open Sans,DejaVu Sans,sans-serif" font-weight="400" font-size="46" transform="matrix(6.12323e-17 -1 1 6.12323e-17 3019.73 1005.4858093261719)">Number of Crawler Profiles</text>
		</g>
		<rect x="2918.5" y="347.5" width="1760" height="1043" stroke="#D9D9D9" stroke-width="3.4375" stroke-linejoin="round" stroke-miterlimit="10" fill="none" />
		<g>
			<path d="M3228.5 1038 3249.86 1038 3271.22 1038 3292.58 1038 3313.94 1038 3335.3 1038 3356.66 1038 3378.02 1038 3399.38 1038 3420.74 1038 3442.1 1038 3463.46 1038 3484.82 1038 3506.18 1038 3527.54 1038 3548.9 1038 3570.26 1038 3591.62 1038 3612.98 1038 3634.34 1038 3655.7 1038 3677.06 1038 3698.42 1038 3719.7799999999997 1038 3741.14 1038 3762.5 1038 3783.86 1038 3805.2200000000003 1038 3826.58 1038 3847.94 1038 3869.3 1038 3890.66 1038 3912.02 1038 3933.38 1038 3954.74 1038 3976.1 1038 3997.46 1038 4018.8199999999997 1038 4040.18 1038 4061.54 1038 4082.9 1038 4104.26 1038 4125.62 1038 4146.98 1038 4168.34 1038 4189.7 1038 4211.0599999999995 1038 4232.42 1038 4253.78 1038 4275.139999999999 1038 4296.5 1038 4296.5 399.8390804597701 4275.139999999999 401.67816091954023 4253.78 401.67816091954023 4232.42 401.67816091954023 4211.0599999999995 403.51724137931035 4189.7 407.1954022988506 4168.34 409.0344827586207 4146.98 410.8735632183908 4125.62 416.39080459770116 4104.26 416.39080459770116 4082.9 416.39080459770116 4061.54 418.2298850574713 4040.18 421.9080459770115 4018.8199999999997 421.9080459770115 3997.46 421.9080459770115 3976.1 423.7471264367816 3954.74 423.7471264367816 3933.38 423.7471264367816 3912.02 431.1034482758621 3890.66 431.1034482758621 3869.3 431.1034482758621 3847.94 431.1034482758621 3826.58 431.1034482758621 3805.2200000000003 431.1034482758621 3783.86 431.1034482758621 3762.5 431.1034482758621 3741.14 431.1034482758621 3719.7799999999997 432.9425287356322 3698.42 432.9425287356322 3677.06 434.7816091954023 3655.7 434.7816091954023 3634.34 443.9770114942529 3612.98 445.816091954023 3591.62 445.816091954023 3570.26 449.49425287356325 3548.9 451.33333333333337 3527.54 456.8505747126437 3506.18 458.68965517241384 3484.82 460.52873563218395 3463.46 462.36781609195407 3442.1 462.36781609195407 3420.74 462.36781609195407 3399.38 464.2068965517242 3378.02 464.2068965517242 3356.66 464.2068965517242 3335.3 466.0459770114943 3313.94 466.0459770114943 3292.58 467.8850574712644 3271.22 467.8850574712644 3249.86 469.72413793103453 3228.5 471.56321839080465 3228.5 1038Z" fill="#005aa6" opacity="0.9" />
		</g>
		<g>
			<path d="M3228.5 471.56321839080465 3249.86 469.72413793103453 3271.22 467.8850574712644 3292.58 467.8850574712644 3313.94 466.0459770114943 3335.3 466.0459770114943 3356.66 464.2068965517242 3378.02 464.2068965517242 3399.38 464.2068965517242 3420.74 462.36781609195407 3442.1 462.36781609195407 3463.46 462.36781609195407 3484.82 460.52873563218395 3506.18 458.68965517241384 3527.54 456.8505747126437 3548.9 451.33333333333337 3570.26 449.49425287356325 3591.62 445.816091954023 3612.98 445.816091954023 3634.34 443.9770114942529 3655.7 434.7816091954023 3677.06 434.7816091954023 3698.42 432.9425287356322 3719.7799999999997 432.9425287356322 3741.14 431.1034482758621 3762.5 431.1034482758621 3783.86 431.1034482758621 3805.2200000000003 431.1034482758621 3826.58 431.1034482758621 3847.94 431.1034482758621 3869.3 431.1034482758621 3890.66 431.1034482758621 3912.02 431.1034482758621 3933.38 423.7471264367816 3954.74 423.7471264367816 3976.1 423.7471264367816 3997.46 421.9080459770115 4018.8199999999997 421.9080459770115 4040.18 421.9080459770115 4061.54 418.2298850574713 4082.9 416.39080459770116 4104.26 416.39080459770116 4125.62 416.39080459770116 4146.98 410.8735632183908 4168.34 409.0344827586207 4189.7 407.1954022988506 4211.0599999999995 403.51724137931035 4232.42 401.67816091954023 4253.78 401.67816091954023 4275.139999999999 401.67816091954023 4296.5 399.8390804597701 4296.5 398 4275.139999999999 399.8390804597701 4253.78 399.8390804597701 4232.42 399.8390804597701 4211.0599999999995 401.67816091954023 4189.7 405.35632183908046 4168.34 407.1954022988506 4146.98 409.0344827586207 4125.62 414.55172413793105 4104.26 414.55172413793105 4082.9 414.55172413793105 4061.54 416.39080459770116 4040.18 420.0689655172414 4018.8199999999997 420.0689655172414 3997.46 420.0689655172414 3976.1 421.9080459770115 3954.74 421.9080459770115 3933.38 421.9080459770115 3912.02 429.264367816092 3890.66 429.264367816092 3869.3 429.264367816092 3847.94 429.264367816092 3826.58 429.264367816092 3805.2200000000003 429.264367816092 3783.86 429.264367816092 3762.5 429.264367816092 3741.14 429.264367816092 3719.7799999999997 431.1034482758621 3698.42 431.1034482758621 3677.06 432.9425287356322 3655.7 432.9425287356322 3634.34 442.1379310344828 3612.98 443.9770114942529 3591.62 443.9770114942529 3570.26 447.65517241379314 3548.9 449.49425287356325 3527.54 455.0114942528736 3506.18 456.8505747126437 3484.82 458.68965517241384 3463.46 460.52873563218395 3442.1 460.52873563218395 3420.74 460.52873563218395 3399.38 462.36781609195407 3378.02 462.36781609195407 3356.66 462.36781609195407 3335.3 464.2068965517242 3313.94 464.2068965517242 3292.58 466.0459770114943 3271.22 466.0459770114943 3249.86 467.8850574712644 3228.5 469.72413793103453 3228.5 471.56321839080465Z" fill="#e62d39" opacity="0.9" />
		</g>
		<g>
			<rect x="4372" y="431" width="22.9995" height="23" fill="#005aa6" />
		</g>
		<g>
			<text fill="#595959" font-family="Verdana,Open Sans,DejaVu Sans,sans-serif" font-weight="400" font-size="41" transform="matrix(1 0 0 1 4404.56 454)">Crawler</text>
		</g>
		<g>
			<rect x="4372" y="508" width="22.9995" height="23" fill="#e62d39" />
		</g>
		<g>
			<text fill="#595959" font-family="Verdana,Open Sans,DejaVu Sans,sans-serif" font-weight="400" font-size="41" transform="matrix(1 0 0 1 4404.56 531)">Non-Crawler</text>
		</g>
	</g>
</svg>
