<svg width="1763" height="1046"
    xmlns="http://www.w3.org/2000/svg"
	xmlns:xlink="http://www.w3.org/1999/xlink" xml:space="preserve" overflow="hidden">
	<defs>
		<clipPath id="clip0">
			<rect x="2917" y="346" width="1763" height="1046"/>
		</clipPath>
	</defs>
	<g clip-path="url(#clip0)" transform="translate(-2917 -346)">
		<rect x="2918" y="347" width="1760" height="1043" fill="#FFFFFF" />
		<g>
			<path d="
			M3228.5 974.532 4296.5 974.532
			M3228.5 910.53 4296.5 910.53
			M3228.5 846.528 4296.5 846.528
			M3228.5 781.526 4296.5 781.526
			M3228.5 717.524 4296.5 717.524
			M3228.5 653.522 4296.5 653.522
			M3228.5 589.52 4296.5 589.52
			M3228.5 525.517 4296.5 525.517
			M3228.5 461.515 4296.5 461.515
			M3228.5 397.5 4296.5 397.5" stroke="#D9D9D9" stroke-width="3.4375" stroke-linejoin="round" stroke-miterlimit="10" fill="none" />
		</g>
		<g>
			<path d="M 1038.5 4296.5 1038.5" stroke="#D9D9D9" stroke-width="3.4375" stroke-linejoin="round" stroke-miterlimit="10" fill="none" fill-rule="evenodd" />
		</g>
		<g>
			<text fill="#595959" font-family="Verdana,sans-serif" font-weight="400" font-size="41" transform="matrix(6.12323e-17 -1 1 6.12323e-17 3244.5 1210)">29-Jan</text>
		</g>
		<g>
			<text fill="#595959" font-family="Verdana,sans-serif" font-weight="400" font-size="41" transform="matrix(6.12323e-17 -1 1 6.12323e-17 3328.264705882353 1216)">26-Feb</text>
		</g>
		<g>
			<text fill="#595959" font-family="Verdana,sans-serif" font-weight="400" font-size="41" transform="matrix(6.12323e-17 -1 1 6.12323e-17 3412.029411764706 1223)">25-Mar</text>
		</g>
		<g>
			<text fill="#595959" font-family="Verdana,sans-serif" font-weight="400" font-size="41" transform="matrix(6.12323e-17 -1 1 6.12323e-17 3499.294117647059 1216)">22-Apr</text>
		</g>
		<g>
			<text fill="#595959" font-family="Verdana,sans-serif" font-weight="400" font-size="41" transform="matrix(6.12323e-17 -1 1 6.12323e-17 3583.0588235294117 1228)">20-May</text>
		</g>
		<g>
			<text fill="#595959" font-family="Verdana,sans-serif" font-weight="400" font-size="41" transform="matrix(6.12323e-17 -1 1 6.12323e-17 3662.823529411765 1209)">17-Jun</text>
		</g>
		<g>
			<text fill="#595959" font-family="Verdana,sans-serif" font-weight="400" font-size="41" transform="matrix(6.12323e-17 -1 1 6.12323e-17 3747.0882352941176 1194)">15-Jul</text>
		</g>
		<g>
			<text fill="#595959" font-family="Verdana,sans-serif" font-weight="400" font-size="41" transform="matrix(6.12323e-17 -1 1 6.12323e-17 3834.3529411764707 1218)">12-Aug</text>
		</g>
		<g>
			<text fill="#595959" font-family="Verdana,sans-serif" font-weight="400" font-size="41" transform="matrix(6.12323e-17 -1 1 6.12323e-17 3918.1176470588234 1222)">09-Sep</text>
		</g>
		<g>
			<text fill="#595959" font-family="Verdana,sans-serif" font-weight="400" font-size="41" transform="matrix(6.12323e-17 -1 1 6.12323e-17 3998.3823529411766 1215)">07-Oct</text>
		</g>
		<g>
			<text fill="#595959" font-family="Verdana,sans-serif" font-weight="400" font-size="41" transform="matrix(6.12323e-17 -1 1 6.12323e-17 4082.1470588235293 1225)">04-Nov</text>
		</g>
		<g>
			<text fill="#595959" font-family="Verdana,sans-serif" font-weight="400" font-size="41" transform="matrix(6.12323e-17 -1 1 6.12323e-17 4165.911764705882 1223)">09-Dec</text>
		</g>
		<g>
			<text fill="#595959" font-family="Verdana,sans-serif" font-weight="400" font-size="41" transform="matrix(6.12323e-17 -1 1 6.12323e-17 4249.676470588235 1210)">06-Jan</text>
		</g>
		<g>
			<text fill="#595959" font-family="Verdana,sans-serif" font-weight="400" font-size="41" transform="matrix(1 0 0 1 3167.5 1050)">0</text>
		</g>
		<g>
			<text fill="#595959" font-family="Verdana,sans-serif" font-weight="400" font-size="41" transform="matrix(1 0 0 1 3141.5 922)">62</text>
		</g>
		<g>
			<text fill="#595959" font-family="Verdana,sans-serif" font-weight="400" font-size="41" transform="matrix(1 0 0 1 3118.5 794)">123</text>
		</g>
		<g>
			<text fill="#595959" font-family="Verdana,sans-serif" font-weight="400" font-size="41" transform="matrix(1 0 0 1 3118.5 666)">185</text>
		</g>
		<g>
			<text fill="#595959" font-family="Verdana,sans-serif" font-weight="400" font-size="41" transform="matrix(1 0 0 1 3115.5 538)">246</text>
		</g>
		<g>
			<text fill="#595959" font-family="Verdana,sans-serif" font-weight="400" font-size="41" transform="matrix(1 0 0 1 3115.5 410)">308</text>
		</g>
		<g>
			<text fill="#595959" font-family="Verdana,sans-serif" font-weight="400" font-size="41" transform="matrix(1 0 0 1 3544.5 1321)">Week Commencing</text>
		</g>
		<g>
			<text fill="#595959" font-family="Verdana,sans-serif" font-weight="400" font-size="46" transform="matrix(6.12323e-17 -1 1 6.12323e-17 3019.73 1024.75)">Number of Crawler Profiles</text>
		</g>
		<rect x="2918.5" y="347.5" width="1760" height="1043" stroke="#D9D9D9" stroke-width="3.4375" stroke-linejoin="round" stroke-miterlimit="10" fill="none" />
		<g>
			<path d="M3228.5 1038 3249.4411764705883 1038 3270.3823529411766 1038 3291.323529411765 1038 3312.264705882353 1038 3333.205882352941 1038 3354.1470588235293 1038 3375.0882352941176 1038 3396.029411764706 1038 3416.970588235294 1038 3437.9117647058824 1038 3458.8529411764707 1038 3479.794117647059 1038 3500.735294117647 1038 3521.676470588235 1038 3542.6176470588234 1038 3563.5588235294117 1038 3584.5 1038 3605.4411764705883 1038 3626.3823529411766 1038 3647.323529411765 1038 3668.264705882353 1038 3689.205882352941 1038 3710.1470588235293 1038 3731.0882352941176 1038 3752.029411764706 1038 3772.970588235294 1038 3793.9117647058824 1038 3814.8529411764707 1038 3835.7941176470586 1038 3856.735294117647 1038 3877.676470588235 1038 3898.6176470588234 1038 3919.5588235294117 1038 3940.5 1038 3961.4411764705883 1038 3982.3823529411766 1038 4003.323529411765 1038 4024.264705882353 1038 4045.2058823529414 1038 4066.1470588235293 1038 4087.0882352941176 1038 4108.029411764706 1038 4128.970588235294 1038 4149.911764705882 1038 4170.85294117647 1038 4191.794117647059 1038 4212.735294117647 1038 4233.676470588235 1038 4254.617647058823 1038 4275.558823529412 1038 4296.5 1038 4296.5 400.07792207792215 4275.558823529412 400.07792207792215 4254.617647058823 404.23376623376635 4233.676470588235 406.3116883116884 4212.735294117647 406.3116883116884 4191.794117647059 406.3116883116884 4170.85294117647 410.4675324675326 4149.911764705882 412.5454545454546 4128.970588235294 418.77922077922085 4108.029411764706 427.0909090909091 4087.0882352941176 439.5584415584416 4066.1470588235293 445.7922077922078 4045.2058823529414 445.7922077922078 4024.264705882353 443.7142857142858 4003.323529411765 447.87012987013 3982.3823529411766 454.1038961038962 3961.4411764705883 462.4155844155845 3940.5 462.4155844155845 3919.5588235294117 464.4935064935065 3898.6176470588234 474.88311688311694 3877.676470588235 479.03896103896113 3856.735294117647 483.1948051948052 3835.7941176470586 483.1948051948052 3814.8529411764707 487.3506493506494 3793.9117647058824 487.3506493506494 3772.970588235294 489.42857142857144 3752.029411764706 491.5064935064936 3731.0882352941176 499.81818181818187 3710.1470588235293 506.0519480519481 3689.205882352941 514.3636363636364 3668.264705882353 520.5974025974026 3647.323529411765 530.987012987013 3626.3823529411766 535.1428571428571 3605.4411764705883 535.1428571428571 3584.5 535.1428571428571 3563.5588235294117 537.2207792207793 3542.6176470588234 541.3766233766235 3521.676470588235 549.6883116883117 3500.735294117647 553.8441558441559 3479.794117647059 555.922077922078 3458.8529411764707 555.922077922078 3437.9117647058824 564.2337662337663 3416.970588235294 564.2337662337663 3396.029411764706 574.6233766233767 3375.0882352941176 595.4025974025974 3354.1470588235293 599.5584415584416 3333.205882352941 603.7142857142858 3312.264705882353 614.1038961038962 3291.323529411765 616.1818181818182 3270.3823529411766 616.1818181818182 3249.4411764705883 618.2597402597403 3228.5 622.4155844155845 3228.5 1038Z" fill="#005aa6" opacity="0.9" />
		</g>
		<g>
			<path d="M3228.5 622.4155844155845 3249.4411764705883 618.2597402597403 3270.3823529411766 616.1818181818182 3291.323529411765 616.1818181818182 3312.264705882353 614.1038961038962 3333.205882352941 603.7142857142858 3354.1470588235293 599.5584415584416 3375.0882352941176 595.4025974025974 3396.029411764706 574.6233766233767 3416.970588235294 564.2337662337663 3437.9117647058824 564.2337662337663 3458.8529411764707 555.922077922078 3479.794117647059 555.922077922078 3500.735294117647 553.8441558441559 3521.676470588235 549.6883116883117 3542.6176470588234 541.3766233766235 3563.5588235294117 537.2207792207793 3584.5 535.1428571428571 3605.4411764705883 535.1428571428571 3626.3823529411766 535.1428571428571 3647.323529411765 530.987012987013 3668.264705882353 520.5974025974026 3689.205882352941 514.3636363636364 3710.1470588235293 506.0519480519481 3731.0882352941176 499.81818181818187 3752.029411764706 491.5064935064936 3772.970588235294 489.42857142857144 3793.9117647058824 487.3506493506494 3814.8529411764707 487.3506493506494 3835.7941176470586 483.1948051948052 3856.735294117647 483.1948051948052 3877.676470588235 479.03896103896113 3898.6176470588234 474.88311688311694 3919.5588235294117 464.4935064935065 3940.5 462.4155844155845 3961.4411764705883 462.4155844155845 3982.3823529411766 454.1038961038962 4003.323529411765 447.87012987013 4024.264705882353 443.7142857142858 4045.2058823529414 445.7922077922078 4066.1470588235293 445.7922077922078 4087.0882352941176 439.5584415584416 4108.029411764706 427.0909090909091 4128.970588235294 418.77922077922085 4149.911764705882 412.5454545454546 4170.85294117647 410.4675324675326 4191.794117647059 406.3116883116884 4212.735294117647 406.3116883116884 4233.676470588235 406.3116883116884 4254.617647058823 404.23376623376635 4275.558823529412 400.07792207792215 4296.5 400.07792207792215 4296.5 398.00000000000006 4275.558823529412 398.00000000000006 4254.617647058823 402.15584415584425 4233.676470588235 404.2337662337663 4212.735294117647 404.2337662337663 4191.794117647059 404.2337662337663 4170.85294117647 408.3896103896105 4149.911764705882 410.4675324675325 4128.970588235294 416.70129870129875 4108.029411764706 425.012987012987 4087.0882352941176 437.4805194805195 4066.1470588235293 443.7142857142857 4045.2058823529414 443.7142857142857 4024.264705882353 441.6363636363637 4003.323529411765 445.7922077922079 3982.3823529411766 452.0259740259741 3961.4411764705883 460.3376623376624 3940.5 460.3376623376624 3919.5588235294117 462.4155844155844 3898.6176470588234 472.80519480519484 3877.676470588235 476.96103896103904 3856.735294117647 481.1168831168831 3835.7941176470586 481.1168831168831 3814.8529411764707 485.2727272727273 3793.9117647058824 485.2727272727273 3772.970588235294 487.35064935064935 3752.029411764706 489.4285714285715 3731.0882352941176 497.7402597402598 3710.1470588235293 503.974025974026 3689.205882352941 512.2857142857143 3668.264705882353 518.5194805194806 3647.323529411765 528.909090909091 3626.3823529411766 533.0649350649351 3605.4411764705883 533.0649350649351 3584.5 533.0649350649351 3563.5588235294117 535.1428571428572 3542.6176470588234 539.2987012987014 3521.676470588235 547.6103896103897 3500.735294117647 551.7662337662339 3479.794117647059 553.8441558441559 3458.8529411764707 553.8441558441559 3437.9117647058824 562.1558441558443 3416.970588235294 562.1558441558443 3396.029411764706 572.5454545454546 3375.0882352941176 593.3246753246754 3354.1470588235293 597.4805194805195 3333.205882352941 601.6363636363637 3312.264705882353 612.0259740259742 3291.323529411765 614.1038961038962 3270.3823529411766 614.1038961038962 3249.4411764705883 616.1818181818182 3228.5 620.3376623376624 3228.5 622.4155844155845Z" fill="#e62d39" opacity="0.9" />
		</g>
		<g>
			<rect x="4372" y="431" width="22.9995" height="23" fill="#005aa6" />
		</g>
		<g>
			<text fill="#595959" font-family="Verdana,sans-serif" font-weight="400" font-size="41" transform="matrix(1 0 0 1 4404.56 454)">Crawler</text>
		</g>
		<g>
			<rect x="4372" y="508" width="22.9995" height="23" fill="#e62d39" />
		</g>
		<g>
			<text fill="#595959" font-family="Verdana,sans-serif" font-weight="400" font-size="41" transform="matrix(1 0 0 1 4404.56 531)">Non-Crawler</text>
		</g>
	</g>
</svg>
