<svg width="1763" height="1046"
    xmlns="http://www.w3.org/2000/svg"
	xmlns:xlink="http://www.w3.org/1999/xlink" xml:space="preserve" overflow="hidden">
	<defs>
		<clipPath id="clip0">
			<rect x="2917" y="346" width="1763" height="1046"/>
		</clipPath>
	</defs>
	<g clip-path="url(#clip0)" transform="translate(-2917 -346)">
		<rect x="2918" y="347" width="1760" height="1043" fill="#FFFFFF" />
		<g>
			<path d="
			M3228.5 974.532 4296.5 974.532
			M3228.5 910.53 4296.5 910.53
			M3228.5 846.528 4296.5 846.528
			M3228.5 781.526 4296.5 781.526
			M3228.5 717.524 4296.5 717.524
			M3228.5 653.522 4296.5 653.522
			M3228.5 589.52 4296.5 589.52
			M3228.5 525.517 4296.5 525.517
			M3228.5 461.515 4296.5 461.515
			M3228.5 397.5 4296.5 397.5" stroke="#D9D9D9" stroke-width="3.4375" stroke-linejoin="round" stroke-miterlimit="10" fill="none" />
		</g>
		<g>
			<path d="M 1038.5 4296.5 1038.5" stroke="#D9D9D9" stroke-width="3.4375" stroke-linejoin="round" stroke-miterlimit="10" fill="none" fill-rule="evenodd" />
		</g>
		<g>
			<text fill="#595959" font-family="Verdana,sans-serif" font-weight="400" font-size="41" transform="matrix(6.12323e-17 -1 1 6.12323e-17 3244.5 1227)">06-Nov</text>
		</g>
		<g>
			<text fill="#595959" font-family="Verdana,sans-serif" font-weight="400" font-size="41" transform="matrix(6.12323e-17 -1 1 6.12323e-17 3346.214285714286 1226)">20-Nov</text>
		</g>
		<g>
			<text fill="#595959" font-family="Verdana,sans-serif" font-weight="400" font-size="41" transform="matrix(6.12323e-17 -1 1 6.12323e-17 3447.9285714285716 1225)">04-Dec</text>
		</g>
		<g>
			<text fill="#595959" font-family="Verdana,sans-serif" font-weight="400" font-size="41" transform="matrix(6.12323e-17 -1 1 6.12323e-17 3549.642857142857 1222)">18-Dec</text>
		</g>
		<g>
			<text fill="#595959" font-family="Verdana,sans-serif" font-weight="400" font-size="41" transform="matrix(6.12323e-17 -1 1 6.12323e-17 3651.3571428571427 1212)">01-Jan</text>
		</g>
		<g>
			<text fill="#595959" font-family="Verdana,sans-serif" font-weight="400" font-size="41" transform="matrix(6.12323e-17 -1 1 6.12323e-17 3752.5714285714284 1209)">15-Jan</text>
		</g>
		<g>
			<text fill="#595959" font-family="Verdana,sans-serif" font-weight="400" font-size="41" transform="matrix(6.12323e-17 -1 1 6.12323e-17 3854.785714285714 1211)">29-Jan</text>
		</g>
		<g>
			<text fill="#595959" font-family="Verdana,sans-serif" font-weight="400" font-size="41" transform="matrix(6.12323e-17 -1 1 6.12323e-17 3956.5 1216)">12-Feb</text>
		</g>
		<g>
			<text fill="#595959" font-family="Verdana,sans-serif" font-weight="400" font-size="41" transform="matrix(6.12323e-17 -1 1 6.12323e-17 4058.214285714286 1218)">26-Feb</text>
		</g>
		<g>
			<text fill="#595959" font-family="Verdana,sans-serif" font-weight="400" font-size="41" transform="matrix(6.12323e-17 -1 1 6.12323e-17 4159.428571428572 1222)">11-Mar</text>
		</g>
		<g>
			<text fill="#595959" font-family="Verdana,sans-serif" font-weight="400" font-size="41" transform="matrix(6.12323e-17 -1 1 6.12323e-17 4261.642857142857 1225)">25-Mar</text>
		</g>
		<g>
			<text fill="#595959" font-family="Verdana,sans-serif" font-weight="400" font-size="41" transform="matrix(1 0 0 1 3123.5 1050)">0%</text>
		</g>
		<g>
			<text fill="#595959" font-family="Verdana,sans-serif" font-weight="400" font-size="41" transform="matrix(1 0 0 1 3097.5 922)">20%</text>
		</g>
		<g>
			<text fill="#595959" font-family="Verdana,sans-serif" font-weight="400" font-size="41" transform="matrix(1 0 0 1 3095.5 794)">40%</text>
		</g>
		<g>
			<text fill="#595959" font-family="Verdana,sans-serif" font-weight="400" font-size="41" transform="matrix(1 0 0 1 3096.5 666)">60%</text>
		</g>
		<g>
			<text fill="#595959" font-family="Verdana,sans-serif" font-weight="400" font-size="41" transform="matrix(1 0 0 1 3096.5 538)">80%</text>
		</g>
		<g>
			<text fill="#595959" font-family="Verdana,sans-serif" font-weight="400" font-size="41" transform="matrix(1 0 0 1 3073.5 410)">100%</text>
		</g>
		<g>
			<text fill="#595959" font-family="Verdana,sans-serif" font-weight="400" font-size="41" transform="matrix(1 0 0 1 3541.5 1321)">Week Commencing</text>
		</g>
		<g>
			<text fill="#595959" font-family="Verdana,sans-serif" font-weight="400" font-size="46" transform="matrix(6.12323e-17 -1 1 6.12323e-17 3019.73 968.75)">Requests (% of Total)</text>
		</g>
		<rect x="2918.5" y="347.5" width="1760" height="1043" stroke="#D9D9D9" stroke-width="3.4375" stroke-linejoin="round" stroke-miterlimit="10" fill="none" />
		<g>
			<path d="M3228.5 1038 3279.3571428571427 1038 3330.214285714286 1038 3381.0714285714284 1038 3431.9285714285716 1038 3482.785714285714 1038 3533.642857142857 1038 3584.5 1038 3635.3571428571427 1038 3686.214285714286 1038 3737.0714285714284 1038 3787.9285714285716 1038 3838.785714285714 1038 3889.642857142857 1038 3940.5 1038 3991.3571428571427 1038 4042.214285714286 1038 4093.0714285714284 1038 4143.928571428572 1038 4194.785714285714 1038 4245.642857142857 1038 4296.5 1038 4296.5 581.4258071436993 4245.642857142857 583.4353029706369 4194.785714285714 585.2297796683877 4143.928571428572 569.3763139485983 4093.0714285714284 569.4920790789085 4042.214285714286 568.4210223578364 3991.3571428571427 567.328661211755 3940.5 566.161104092279 3889.642857142857 566.5630760901624 3838.785714285714 566.9371867374394 3787.9285714285716 565.7434322908556 3737.0714285714284 565.3329344965637 3686.214285714286 567.1306424721515 3635.3571428571427 546.6361313386333 3584.5 547.2360643741254 3533.642857142857 547.9846296844262 3482.785714285714 551.0672526834712 3431.9285714285716 550.9210452859504 3381.0714285714284 550.9050574683862 3330.214285714286 550.8533354714161 3279.3571428571427 550.7560734149703 3228.5 551.2665692392751 3228.5 1038Z" fill="#e62d39" opacity="0.9" />
		</g>
		<g>
			<path d="M3228.5 551.2665692392751 3279.3571428571427 550.7560734149703 3330.214285714286 550.8533354714161 3381.0714285714284 550.9050574683862 3431.9285714285716 550.9210452859504 3482.785714285714 551.0672526834712 3533.642857142857 547.9846296844262 3584.5 547.2360643741254 3635.3571428571427 546.6361313386333 3686.214285714286 567.1306424721515 3737.0714285714284 565.3329344965637 3787.9285714285716 565.7434322908556 3838.785714285714 566.9371867374394 3889.642857142857 566.5630760901624 3940.5 566.161104092279 3991.3571428571427 567.328661211755 4042.214285714286 568.4210223578364 4093.0714285714284 569.4920790789085 4143.928571428572 569.3763139485983 4194.785714285714 585.2297796683877 4245.642857142857 583.4353029706369 4296.5 581.4258071436993 4296.5 398 4245.642857142857 398 4194.785714285714 398 4143.928571428572 398 4093.0714285714284 398.00000000000006 4042.214285714286 398.00000000000006 3991.3571428571427 398 3940.5 398.00000000000006 3889.642857142857 397.99999999999994 3838.785714285714 398 3787.9285714285716 398 3737.0714285714284 397.99999999999994 3686.214285714286 398.00000000000006 3635.3571428571427 398 3584.5 398.0000000000001 3533.642857142857 398 3482.785714285714 398 3431.9285714285716 398 3381.0714285714284 398 3330.214285714286 398 3279.3571428571427 398 3228.5 398 3228.5 551.2665692392751Z" fill="#005aa6" opacity="0.9" />
		</g>
		<g>
			<rect x="4372" y="431" width="22.9995" height="23" fill="#e62d39" />
		</g>
		<g>
			<text fill="#595959" font-family="Verdana,sans-serif" font-weight="400" font-size="41" transform="matrix(1 0 0 1 4404.56 454)">Non-Crawler</text>
		</g>
		<g>
			<rect x="4372" y="508" width="22.9995" height="23" fill="#005aa6" />
		</g>
		<g>
			<text fill="#595959" font-family="Verdana,sans-serif" font-weight="400" font-size="41" transform="matrix(1 0 0 1 4404.56 531)">Crawler</text>
		</g>
	</g>
</svg>
