<svg width="1763" height="1046"
    xmlns="http://www.w3.org/2000/svg"
	xmlns:xlink="http://www.w3.org/1999/xlink" xml:space="preserve" overflow="hidden">
	<defs>
		<clipPath id="clip0">
			<rect x="2917" y="346" width="1763" height="1046"/>
		</clipPath>
	</defs>
	<g clip-path="url(#clip0)" transform="translate(-2917 -346)">
		<rect x="2918" y="347" width="1760" height="1043" fill="#FFFFFF" />
		<g>
			<path d="
			M3228.5 974.532 4296.5 974.532
			M3228.5 910.53 4296.5 910.53
			M3228.5 846.528 4296.5 846.528
			M3228.5 781.526 4296.5 781.526
			M3228.5 717.524 4296.5 717.524
			M3228.5 653.522 4296.5 653.522
			M3228.5 589.52 4296.5 589.52
			M3228.5 525.517 4296.5 525.517
			M3228.5 461.515 4296.5 461.515
			M3228.5 397.5 4296.5 397.5" stroke="#D9D9D9" stroke-width="3.4375" stroke-linejoin="round" stroke-miterlimit="10" fill="none" />
		</g>
		<g>
			<path d="M 1038.5 4296.5 1038.5" stroke="#D9D9D9" stroke-width="3.4375" stroke-linejoin="round" stroke-miterlimit="10" fill="none" fill-rule="evenodd" />
		</g>
		<g>
			<text fill="#595959" font-family="Verdana,sans-serif" font-weight="400" font-size="41" transform="matrix(6.12323e-17 -1 1 6.12323e-17 3244.5 1225)">06-Nov</text>
		</g>
		<g>
			<text fill="#595959" font-family="Verdana,sans-serif" font-weight="400" font-size="41" transform="matrix(6.12323e-17 -1 1 6.12323e-17 3354.0384615384614 1223)">04-Dec</text>
		</g>
		<g>
			<text fill="#595959" font-family="Verdana,sans-serif" font-weight="400" font-size="41" transform="matrix(6.12323e-17 -1 1 6.12323e-17 3463.576923076923 1210)">01-Jan</text>
		</g>
		<g>
			<text fill="#595959" font-family="Verdana,sans-serif" font-weight="400" font-size="41" transform="matrix(6.12323e-17 -1 1 6.12323e-17 3573.1153846153848 1210)">29-Jan</text>
		</g>
		<g>
			<text fill="#595959" font-family="Verdana,sans-serif" font-weight="400" font-size="41" transform="matrix(6.12323e-17 -1 1 6.12323e-17 3682.653846153846 1216)">26-Feb</text>
		</g>
		<g>
			<text fill="#595959" font-family="Verdana,sans-serif" font-weight="400" font-size="41" transform="matrix(6.12323e-17 -1 1 6.12323e-17 3792.1923076923076 1223)">25-Mar</text>
		</g>
		<g>
			<text fill="#595959" font-family="Verdana,sans-serif" font-weight="400" font-size="41" transform="matrix(6.12323e-17 -1 1 6.12323e-17 3905.230769230769 1216)">22-Apr</text>
		</g>
		<g>
			<text fill="#595959" font-family="Verdana,sans-serif" font-weight="400" font-size="41" transform="matrix(6.12323e-17 -1 1 6.12323e-17 4014.7692307692305 1228)">20-May</text>
		</g>
		<g>
			<text fill="#595959" font-family="Verdana,sans-serif" font-weight="400" font-size="41" transform="matrix(6.12323e-17 -1 1 6.12323e-17 4120.307692307692 1209)">17-Jun</text>
		</g>
		<g>
			<text fill="#595959" font-family="Verdana,sans-serif" font-weight="400" font-size="41" transform="matrix(6.12323e-17 -1 1 6.12323e-17 4230.346153846154 1194)">15-Jul</text>
		</g>
		<g>
			<text fill="#595959" font-family="Verdana,sans-serif" font-weight="400" font-size="41" transform="matrix(1 0 0 1 3167.5 1050)">0</text>
		</g>
		<g>
			<text fill="#595959" font-family="Verdana,sans-serif" font-weight="400" font-size="41" transform="matrix(1 0 0 1 3142.5 922)">53</text>
		</g>
		<g>
			<text fill="#595959" font-family="Verdana,sans-serif" font-weight="400" font-size="41" transform="matrix(1 0 0 1 3117.5 794)">106</text>
		</g>
		<g>
			<text fill="#595959" font-family="Verdana,sans-serif" font-weight="400" font-size="41" transform="matrix(1 0 0 1 3118.5 666)">160</text>
		</g>
		<g>
			<text fill="#595959" font-family="Verdana,sans-serif" font-weight="400" font-size="41" transform="matrix(1 0 0 1 3116.5 538)">213</text>
		</g>
		<g>
			<text fill="#595959" font-family="Verdana,sans-serif" font-weight="400" font-size="41" transform="matrix(1 0 0 1 3115.5 410)">266</text>
		</g>
		<g>
			<text fill="#595959" font-family="Verdana,sans-serif" font-weight="400" font-size="41" transform="matrix(1 0 0 1 3544.5 1321)">Week Commencing</text>
		</g>
		<g>
			<text fill="#595959" font-family="Verdana,sans-serif" font-weight="400" font-size="46" transform="matrix(6.12323e-17 -1 1 6.12323e-17 3019.73 1024.75)">Number of Crawler Profiles</text>
		</g>
		<rect x="2918.5" y="347.5" width="1760" height="1043" stroke="#D9D9D9" stroke-width="3.4375" stroke-linejoin="round" stroke-miterlimit="10" fill="none" />
		<g>
			<path d="M3228.5 1038 3255.8846153846152 1038 3283.269230769231 1038 3310.653846153846 1038 3338.0384615384614 1038 3365.423076923077 1038 3392.8076923076924 1038 3420.1923076923076 1038 3447.576923076923 1038 3474.9615384615386 1038 3502.346153846154 1038 3529.730769230769 1038 3557.1153846153848 1038 3584.5 1038 3611.8846153846152 1038 3639.269230769231 1038 3666.653846153846 1038 3694.0384615384614 1038 3721.423076923077 1038 3748.8076923076924 1038 3776.1923076923076 1038 3803.576923076923 1038 3830.9615384615386 1038 3858.346153846154 1038 3885.730769230769 1038 3913.1153846153848 1038 3940.5 1038 3967.8846153846152 1038 3995.2692307692305 1038 4022.653846153846 1038 4050.0384615384614 1038 4077.423076923077 1038 4104.807692307692 1038 4132.192307692308 1038 4159.576923076923 1038 4186.961538461538 1038 4214.346153846154 1038 4241.7307692307695 1038 4269.115384615385 1038 4296.5 1038 4296.5 400.406015037594 4269.115384615385 402.812030075188 4241.7307692307695 405.21804511278197 4214.346153846154 414.8421052631579 4186.961538461538 422.0601503759399 4159.576923076923 431.68421052631584 4132.192307692308 438.9022556390978 4104.807692307692 450.93233082706774 4077.423076923077 455.7443609022557 4050.0384615384614 455.7443609022557 4022.653846153846 455.7443609022557 3995.2692307692305 458.1503759398497 3967.8846153846152 462.9624060150376 3940.5 472.5864661654135 3913.1153846153848 477.3984962406015 3885.730769230769 479.8045112781955 3858.346153846154 479.8045112781955 3830.9615384615386 489.42857142857144 3803.576923076923 489.42857142857144 3776.1923076923076 501.4586466165414 3748.8076923076924 525.5187969924813 3721.423076923077 530.3308270676691 3694.0384615384614 535.1428571428571 3666.653846153846 547.172932330827 3639.269230769231 549.578947368421 3611.8846153846152 549.578947368421 3584.5 551.984962406015 3557.1153846153848 556.796992481203 3529.730769230769 568.827067669173 3502.346153846154 571.2330827067669 3474.9615384615386 571.2330827067669 3447.576923076923 576.0451127819549 3420.1923076923076 576.0451127819549 3392.8076923076924 576.0451127819549 3365.423076923077 576.0451127819549 3338.0384615384614 576.0451127819549 3310.653846153846 578.4511278195489 3283.269230769231 578.4511278195489 3255.8846153846152 578.4511278195489 3228.5 578.4511278195489 3228.5 1038Z" fill="#005aa6" opacity="0.9" />
		</g>
		<g>
			<path d="M3228.5 578.4511278195489 3255.8846153846152 578.4511278195489 3283.269230769231 578.4511278195489 3310.653846153846 578.4511278195489 3338.0384615384614 576.0451127819549 3365.423076923077 576.0451127819549 3392.8076923076924 576.0451127819549 3420.1923076923076 576.0451127819549 3447.576923076923 576.0451127819549 3474.9615384615386 571.2330827067669 3502.346153846154 571.2330827067669 3529.730769230769 568.827067669173 3557.1153846153848 556.796992481203 3584.5 551.984962406015 3611.8846153846152 549.578947368421 3639.269230769231 549.578947368421 3666.653846153846 547.172932330827 3694.0384615384614 535.1428571428571 3721.423076923077 530.3308270676691 3748.8076923076924 525.5187969924813 3776.1923076923076 501.4586466165414 3803.576923076923 489.42857142857144 3830.9615384615386 489.42857142857144 3858.346153846154 479.8045112781955 3885.730769230769 479.8045112781955 3913.1153846153848 477.3984962406015 3940.5 472.5864661654135 3967.8846153846152 462.9624060150376 3995.2692307692305 458.1503759398497 4022.653846153846 455.7443609022557 4050.0384615384614 455.7443609022557 4077.423076923077 455.7443609022557 4104.807692307692 450.93233082706774 4132.192307692308 438.9022556390978 4159.576923076923 431.68421052631584 4186.961538461538 422.0601503759399 4214.346153846154 414.8421052631579 4241.7307692307695 405.21804511278197 4269.115384615385 402.812030075188 4296.5 400.406015037594 4296.5 398 4269.115384615385 400.406015037594 4241.7307692307695 402.812030075188 4214.346153846154 412.43609022556393 4186.961538461538 419.6541353383459 4159.576923076923 429.27819548872185 4132.192307692308 436.4962406015038 4104.807692307692 448.52631578947376 4077.423076923077 453.33834586466173 4050.0384615384614 453.33834586466173 4022.653846153846 453.33834586466173 3995.2692307692305 455.7443609022557 3967.8846153846152 460.5563909774436 3940.5 470.18045112781954 3913.1153846153848 474.9924812030075 3885.730769230769 477.3984962406015 3858.346153846154 477.3984962406015 3830.9615384615386 487.02255639097746 3803.576923076923 487.02255639097746 3776.1923076923076 499.0526315789474 3748.8076923076924 523.1127819548873 3721.423076923077 527.9248120300751 3694.0384615384614 532.7368421052631 3666.653846153846 544.7669172932331 3639.269230769231 547.172932330827 3611.8846153846152 547.172932330827 3584.5 549.578947368421 3557.1153846153848 554.390977443609 3529.730769230769 566.421052631579 3502.346153846154 568.827067669173 3474.9615384615386 568.827067669173 3447.576923076923 573.6390977443609 3420.1923076923076 573.6390977443609 3392.8076923076924 573.6390977443609 3365.423076923077 573.6390977443609 3338.0384615384614 573.6390977443609 3310.653846153846 576.0451127819549 3283.269230769231 576.0451127819549 3255.8846153846152 576.0451127819549 3228.5 576.0451127819549 3228.5 578.4511278195489Z" fill="#e62d39" opacity="0.9" />
		</g>
		<g>
			<rect x="4372" y="431" width="22.9995" height="23" fill="#005aa6" />
		</g>
		<g>
			<text fill="#595959" font-family="Verdana,sans-serif" font-weight="400" font-size="41" transform="matrix(1 0 0 1 4404.56 454)">Crawler</text>
		</g>
		<g>
			<rect x="4372" y="508" width="22.9995" height="23" fill="#e62d39" />
		</g>
		<g>
			<text fill="#595959" font-family="Verdana,sans-serif" font-weight="400" font-size="41" transform="matrix(1 0 0 1 4404.56 531)">Non-Crawler</text>
		</g>
	</g>
</svg>
