<svg width="1763" height="1046"
    xmlns="http://www.w3.org/2000/svg"
	xmlns:xlink="http://www.w3.org/1999/xlink" xml:space="preserve" overflow="hidden">
	<defs>
		<clipPath id="clip0">
			<rect x="2917" y="346" width="1763" height="1046"/>
		</clipPath>
	</defs>
	<g clip-path="url(#clip0)" transform="translate(-2917 -346)">
		<rect x="2918" y="347" width="1760" height="1043" fill="#FFFFFF" />
		<g>
			<path d="
			M3228.5 974.532 4296.5 974.532
			M3228.5 910.53 4296.5 910.53
			M3228.5 846.528 4296.5 846.528
			M3228.5 781.526 4296.5 781.526
			M3228.5 717.524 4296.5 717.524
			M3228.5 653.522 4296.5 653.522
			M3228.5 589.52 4296.5 589.52
			M3228.5 525.517 4296.5 525.517
			M3228.5 461.515 4296.5 461.515
			M3228.5 397.5 4296.5 397.5" stroke="#D9D9D9" stroke-width="3.4375" stroke-linejoin="round" stroke-miterlimit="10" fill="none" />
		</g>
		<g>
			<path d="M 1038.5 4296.5 1038.5" stroke="#D9D9D9" stroke-width="3.4375" stroke-linejoin="round" stroke-miterlimit="10" fill="none" fill-rule="evenodd" />
		</g>
		<g>
			<text fill="#595959" font-family="Verdana,sans-serif" font-weight="400" font-size="41" transform="matrix(6.12323e-17 -1 1 6.12323e-17 3244.5 1225)">06-Nov</text>
		</g>
		<g>
			<text fill="#595959" font-family="Verdana,sans-serif" font-weight="400" font-size="41" transform="matrix(6.12323e-17 -1 1 6.12323e-17 3346.214285714286 1223)">04-Dec</text>
		</g>
		<g>
			<text fill="#595959" font-family="Verdana,sans-serif" font-weight="400" font-size="41" transform="matrix(6.12323e-17 -1 1 6.12323e-17 3447.9285714285716 1210)">01-Jan</text>
		</g>
		<g>
			<text fill="#595959" font-family="Verdana,sans-serif" font-weight="400" font-size="41" transform="matrix(6.12323e-17 -1 1 6.12323e-17 3549.642857142857 1210)">29-Jan</text>
		</g>
		<g>
			<text fill="#595959" font-family="Verdana,sans-serif" font-weight="400" font-size="41" transform="matrix(6.12323e-17 -1 1 6.12323e-17 3651.3571428571427 1216)">26-Feb</text>
		</g>
		<g>
			<text fill="#595959" font-family="Verdana,sans-serif" font-weight="400" font-size="41" transform="matrix(6.12323e-17 -1 1 6.12323e-17 3753.0714285714284 1223)">25-Mar</text>
		</g>
		<g>
			<text fill="#595959" font-family="Verdana,sans-serif" font-weight="400" font-size="41" transform="matrix(6.12323e-17 -1 1 6.12323e-17 3858.285714285714 1216)">22-Apr</text>
		</g>
		<g>
			<text fill="#595959" font-family="Verdana,sans-serif" font-weight="400" font-size="41" transform="matrix(6.12323e-17 -1 1 6.12323e-17 3960 1228)">20-May</text>
		</g>
		<g>
			<text fill="#595959" font-family="Verdana,sans-serif" font-weight="400" font-size="41" transform="matrix(6.12323e-17 -1 1 6.12323e-17 4057.714285714286 1209)">17-Jun</text>
		</g>
		<g>
			<text fill="#595959" font-family="Verdana,sans-serif" font-weight="400" font-size="41" transform="matrix(6.12323e-17 -1 1 6.12323e-17 4159.928571428572 1194)">15-Jul</text>
		</g>
		<g>
			<text fill="#595959" font-family="Verdana,sans-serif" font-weight="400" font-size="41" transform="matrix(6.12323e-17 -1 1 6.12323e-17 4265.142857142857 1218)">12-Aug</text>
		</g>
		<g>
			<text fill="#595959" font-family="Verdana,sans-serif" font-weight="400" font-size="41" transform="matrix(1 0 0 1 3167.5 1050)">0</text>
		</g>
		<g>
			<text fill="#595959" font-family="Verdana,sans-serif" font-weight="400" font-size="41" transform="matrix(1 0 0 1 3141.5 922)">54</text>
		</g>
		<g>
			<text fill="#595959" font-family="Verdana,sans-serif" font-weight="400" font-size="41" transform="matrix(1 0 0 1 3117.5 794)">107</text>
		</g>
		<g>
			<text fill="#595959" font-family="Verdana,sans-serif" font-weight="400" font-size="41" transform="matrix(1 0 0 1 3119.5 666)">161</text>
		</g>
		<g>
			<text fill="#595959" font-family="Verdana,sans-serif" font-weight="400" font-size="41" transform="matrix(1 0 0 1 3115.5 538)">214</text>
		</g>
		<g>
			<text fill="#595959" font-family="Verdana,sans-serif" font-weight="400" font-size="41" transform="matrix(1 0 0 1 3115.5 410)">268</text>
		</g>
		<g>
			<text fill="#595959" font-family="Verdana,sans-serif" font-weight="400" font-size="41" transform="matrix(1 0 0 1 3544.5 1321)">Week Commencing</text>
		</g>
		<g>
			<text fill="#595959" font-family="Verdana,sans-serif" font-weight="400" font-size="46" transform="matrix(6.12323e-17 -1 1 6.12323e-17 3019.73 1024.75)">Number of Crawler Profiles</text>
		</g>
		<rect x="2918.5" y="347.5" width="1760" height="1043" stroke="#D9D9D9" stroke-width="3.4375" stroke-linejoin="round" stroke-miterlimit="10" fill="none" />
		<g>
			<path d="M3228.5 1038 3253.9285714285716 1038 3279.3571428571427 1038 3304.785714285714 1038 3330.214285714286 1038 3355.6428571428573 1038 3381.0714285714284 1038 3406.5 1038 3431.9285714285716 1038 3457.3571428571427 1038 3482.785714285714 1038 3508.214285714286 1038 3533.642857142857 1038 3559.0714285714284 1038 3584.5 1038 3609.9285714285716 1038 3635.3571428571427 1038 3660.785714285714 1038 3686.214285714286 1038 3711.642857142857 1038 3737.0714285714284 1038 3762.5 1038 3787.9285714285716 1038 3813.3571428571427 1038 3838.785714285714 1038 3864.214285714286 1038 3889.642857142857 1038 3915.0714285714284 1038 3940.5 1038 3965.9285714285716 1038 3991.3571428571427 1038 4016.785714285714 1038 4042.214285714286 1038 4067.642857142857 1038 4093.0714285714284 1038 4118.5 1038 4143.928571428572 1038 4169.357142857143 1038 4194.785714285714 1038 4220.214285714285 1038 4245.642857142857 1038 4271.071428571428 1038 4296.5 1038 4296.5 400.3880597014926 4271.071428571428 400.3880597014926 4245.642857142857 405.1641791044776 4220.214285714285 405.1641791044776 4194.785714285714 407.5522388059702 4169.357142857143 409.9402985074628 4143.928571428572 419.4925373134329 4118.5 426.6567164179105 4093.0714285714284 436.2089552238806 4067.642857142857 443.3731343283582 4042.214285714286 455.313432835821 4016.785714285714 460.08955223880605 3991.3571428571427 460.08955223880605 3965.9285714285716 460.08955223880605 3940.5 462.4776119402985 3915.0714285714284 467.2537313432837 3889.642857142857 476.80597014925377 3864.214285714286 481.5820895522388 3838.785714285714 483.9701492537314 3813.3571428571427 483.9701492537314 3787.9285714285716 493.5223880597016 3762.5 493.5223880597016 3737.0714285714284 505.46268656716427 3711.642857142857 529.3432835820896 3686.214285714286 534.1194029850747 3660.785714285714 538.8955223880598 3635.3571428571427 550.8358208955224 3609.9285714285716 553.223880597015 3584.5 553.223880597015 3559.0714285714284 555.6119402985075 3533.642857142857 560.3880597014926 3508.214285714286 572.3283582089553 3482.785714285714 574.7164179104478 3457.3571428571427 574.7164179104478 3431.9285714285716 579.4925373134329 3406.5 579.4925373134329 3381.0714285714284 579.4925373134329 3355.6428571428573 579.4925373134329 3330.214285714286 579.4925373134329 3304.785714285714 581.8805970149253 3279.3571428571427 581.8805970149253 3253.9285714285716 581.8805970149253 3228.5 581.8805970149253 3228.5 1038Z" fill="#005aa6" opacity="0.9" />
		</g>
		<g>
			<path d="M3228.5 581.8805970149253 3253.9285714285716 581.8805970149253 3279.3571428571427 581.8805970149253 3304.785714285714 581.8805970149253 3330.214285714286 579.4925373134329 3355.6428571428573 579.4925373134329 3381.0714285714284 579.4925373134329 3406.5 579.4925373134329 3431.9285714285716 579.4925373134329 3457.3571428571427 574.7164179104478 3482.785714285714 574.7164179104478 3508.214285714286 572.3283582089553 3533.642857142857 560.3880597014926 3559.0714285714284 555.6119402985075 3584.5 553.223880597015 3609.9285714285716 553.223880597015 3635.3571428571427 550.8358208955224 3660.785714285714 538.8955223880598 3686.214285714286 534.1194029850747 3711.642857142857 529.3432835820896 3737.0714285714284 505.46268656716427 3762.5 493.5223880597016 3787.9285714285716 493.5223880597016 3813.3571428571427 483.9701492537314 3838.785714285714 483.9701492537314 3864.214285714286 481.5820895522388 3889.642857142857 476.80597014925377 3915.0714285714284 467.2537313432837 3940.5 462.4776119402985 3965.9285714285716 460.08955223880605 3991.3571428571427 460.08955223880605 4016.785714285714 460.08955223880605 4042.214285714286 455.313432835821 4067.642857142857 443.3731343283582 4093.0714285714284 436.2089552238806 4118.5 426.6567164179105 4143.928571428572 419.4925373134329 4169.357142857143 409.9402985074628 4194.785714285714 407.5522388059702 4220.214285714285 405.1641791044776 4245.642857142857 405.1641791044776 4271.071428571428 400.3880597014926 4296.5 400.3880597014926 4296.5 398.00000000000006 4271.071428571428 398.00000000000006 4245.642857142857 402.7761194029851 4220.214285714285 402.7761194029851 4194.785714285714 405.1641791044777 4169.357142857143 407.55223880597026 4143.928571428572 417.10447761194035 4118.5 424.268656716418 4093.0714285714284 433.82089552238807 4067.642857142857 440.9850746268657 4042.214285714286 452.9253731343285 4016.785714285714 457.7014925373135 3991.3571428571427 457.7014925373135 3965.9285714285716 457.7014925373135 3940.5 460.089552238806 3915.0714285714284 464.86567164179115 3889.642857142857 474.41791044776124 3864.214285714286 479.1940298507463 3838.785714285714 481.58208955223887 3813.3571428571427 481.58208955223887 3787.9285714285716 491.1343283582091 3762.5 491.1343283582091 3737.0714285714284 503.07462686567175 3711.642857142857 526.955223880597 3686.214285714286 531.7313432835821 3660.785714285714 536.5074626865672 3635.3571428571427 548.4477611940298 3609.9285714285716 550.8358208955224 3584.5 550.8358208955224 3559.0714285714284 553.223880597015 3533.642857142857 558 3508.214285714286 569.9402985074627 3482.785714285714 572.3283582089553 3457.3571428571427 572.3283582089553 3431.9285714285716 577.1044776119403 3406.5 577.1044776119403 3381.0714285714284 577.1044776119403 3355.6428571428573 577.1044776119403 3330.214285714286 577.1044776119403 3304.785714285714 579.4925373134328 3279.3571428571427 579.4925373134328 3253.9285714285716 579.4925373134328 3228.5 579.4925373134328 3228.5 581.8805970149253Z" fill="#e62d39" opacity="0.9" />
		</g>
		<g>
			<rect x="4372" y="431" width="22.9995" height="23" fill="#005aa6" />
		</g>
		<g>
			<text fill="#595959" font-family="Verdana,sans-serif" font-weight="400" font-size="41" transform="matrix(1 0 0 1 4404.56 454)">Crawler</text>
		</g>
		<g>
			<rect x="4372" y="508" width="22.9995" height="23" fill="#e62d39" />
		</g>
		<g>
			<text fill="#595959" font-family="Verdana,sans-serif" font-weight="400" font-size="41" transform="matrix(1 0 0 1 4404.56 531)">Non-Crawler</text>
		</g>
	</g>
</svg>
