<svg width="1763" height="1046"
    xmlns="http://www.w3.org/2000/svg"
	xmlns:xlink="http://www.w3.org/1999/xlink" xml:space="preserve" overflow="hidden">
	<defs>
		<clipPath id="clip0">
			<rect x="2917" y="346" width="1763" height="1046"/>
		</clipPath>
	</defs>
	<g clip-path="url(#clip0)" transform="translate(-2917 -346)">
		<rect x="2918" y="347" width="1760" height="1043" fill="#FFFFFF" />
		<g>
			<path d="
			M3228.5 974.532 4296.5 974.532
			M3228.5 910.53 4296.5 910.53
			M3228.5 846.528 4296.5 846.528
			M3228.5 781.526 4296.5 781.526
			M3228.5 717.524 4296.5 717.524
			M3228.5 653.522 4296.5 653.522
			M3228.5 589.52 4296.5 589.52
			M3228.5 525.517 4296.5 525.517
			M3228.5 461.515 4296.5 461.515
			M3228.5 397.5 4296.5 397.5" stroke="#D9D9D9" stroke-width="3.4375" stroke-linejoin="round" stroke-miterlimit="10" fill="none" />
		</g>
		<g>
			<path d="M 1038.5 4296.5 1038.5" stroke="#D9D9D9" stroke-width="3.4375" stroke-linejoin="round" stroke-miterlimit="10" fill="none" fill-rule="evenodd" />
		</g>
		<g>
			<text fill="#595959" font-family="Verdana,Open Sans,DejaVu Sans,sans-serif" font-weight="400" font-size="41" transform="matrix(6.12323e-17 -1 1 6.12323e-17 3247.928955078125 1178.9985275268555)">01-Jul</text>
		</g>
		<g>
			<text fill="#595959" font-family="Verdana,Open Sans,DejaVu Sans,sans-serif" font-weight="400" font-size="41" transform="matrix(6.12323e-17 -1 1 6.12323e-17 3335.112628547513 1179.0385665893555)">29-Jul</text>
		</g>
		<g>
			<text fill="#595959" font-family="Verdana,Open Sans,DejaVu Sans,sans-serif" font-weight="400" font-size="41" transform="matrix(6.12323e-17 -1 1 6.12323e-17 3422.6366340481504 1208.66748046875)">26-Aug</text>
		</g>
		<g>
			<text fill="#595959" font-family="Verdana,Open Sans,DejaVu Sans,sans-serif" font-weight="400" font-size="41" transform="matrix(6.12323e-17 -1 1 6.12323e-17 3509.8203075175384 1204.42333984375)">23-Sep</text>
		</g>
		<g>
			<text fill="#595959" font-family="Verdana,Open Sans,DejaVu Sans,sans-serif" font-weight="400" font-size="41" transform="matrix(6.12323e-17 -1 1 6.12323e-17 3592.299391143176 1201.1401290893555)">21-Oct</text>
		</g>
		<g>
			<text fill="#595959" font-family="Verdana,Open Sans,DejaVu Sans,sans-serif" font-weight="400" font-size="41" transform="matrix(6.12323e-17 -1 1 6.12323e-17 3679.463045081314 1209.70849609375)">18-Nov</text>
		</g>
		<g>
			<text fill="#595959" font-family="Verdana,Open Sans,DejaVu Sans,sans-serif" font-weight="400" font-size="41" transform="matrix(6.12323e-17 -1 1 6.12323e-17 3766.6467185507017 1207.1259765625)">23-Dec</text>
		</g>
		<g>
			<text fill="#595959" font-family="Verdana,Open Sans,DejaVu Sans,sans-serif" font-weight="400" font-size="41" transform="matrix(6.12323e-17 -1 1 6.12323e-17 3857.503976004464 1191.6909103393555)">20-Jan</text>
		</g>
		<g>
			<text fill="#595959" font-family="Verdana,Open Sans,DejaVu Sans,sans-serif" font-weight="400" font-size="41" transform="matrix(6.12323e-17 -1 1 6.12323e-17 3941.744778380102 1201.3203125)">17-Feb</text>
		</g>
		<g>
			<text fill="#595959" font-family="Verdana,Open Sans,DejaVu Sans,sans-serif" font-weight="400" font-size="41" transform="matrix(6.12323e-17 -1 1 6.12323e-17 4027.9875338807396 1210.2890625)">17-Mar</text>
		</g>
		<g>
			<text fill="#595959" font-family="Verdana,Open Sans,DejaVu Sans,sans-serif" font-weight="400" font-size="41" transform="matrix(6.12323e-17 -1 1 6.12323e-17 4119.975894850128 1201.5405197143555)">14-Apr</text>
		</g>
		<g>
			<text fill="#595959" font-family="Verdana,Open Sans,DejaVu Sans,sans-serif" font-weight="400" font-size="41" transform="matrix(6.12323e-17 -1 1 6.12323e-17 4207.2896952726405 1214.75341796875)">12-May</text>
		</g>
		<g>
			<text fill="#595959" font-family="Verdana,Open Sans,DejaVu Sans,sans-serif" font-weight="400" font-size="41" transform="matrix(6.12323e-17 -1 1 6.12323e-17 4293.4023238201535 1192.2914962768555)">16-Jun</text>
		</g>
		<g>
			<text fill="#595959" font-family="Verdana,Open Sans,DejaVu Sans,sans-serif" font-weight="400" font-size="41" transform="matrix(1 0 0 1 3169.14111328125 1050)">0</text>
		</g>
		<g>
			<text fill="#595959" font-family="Verdana,Open Sans,DejaVu Sans,sans-serif" font-weight="400" font-size="41" transform="matrix(1 0 0 1 3146.31884765625 922)">65</text>
		</g>
		<g>
			<text fill="#595959" font-family="Verdana,Open Sans,DejaVu Sans,sans-serif" font-weight="400" font-size="41" transform="matrix(1 0 0 1 3123.97705078125 794)">130</text>
		</g>
		<g>
			<text fill="#595959" font-family="Verdana,Open Sans,DejaVu Sans,sans-serif" font-weight="400" font-size="41" transform="matrix(1 0 0 1 3122.755859375 666)">194</text>
		</g>
		<g>
			<text fill="#595959" font-family="Verdana,Open Sans,DejaVu Sans,sans-serif" font-weight="400" font-size="41" transform="matrix(1 0 0 1 3122.37548828125 538)">259</text>
		</g>
		<g>
			<text fill="#595959" font-family="Verdana,Open Sans,DejaVu Sans,sans-serif" font-weight="400" font-size="41" transform="matrix(1 0 0 1 3120.8740234375 410)">324</text>
		</g>
		<g>
			<text fill="#595959" font-family="Verdana,Open Sans,DejaVu Sans,sans-serif" font-weight="400" font-size="41" transform="matrix(1 0 0 1 3556.97119140625 1321)">Week Commencing</text>
		</g>
		<g>
			<text fill="#595959" font-family="Verdana,Open Sans,DejaVu Sans,sans-serif" font-weight="400" font-size="46" transform="matrix(6.12323e-17 -1 1 6.12323e-17 3019.73 1005.4858093261719)">Number of Crawler Profiles</text>
		</g>
		<rect x="2918.5" y="347.5" width="1760" height="1043" stroke="#D9D9D9" stroke-width="3.4375" stroke-linejoin="round" stroke-miterlimit="10" fill="none" />
		<g>
			<path d="M3228.5 1038 3250.295918367347 1038 3272.091836734694 1038 3293.887755102041 1038 3315.683673469388 1038 3337.4795918367345 1038 3359.2755102040815 1038 3381.0714285714284 1038 3402.8673469387754 1038 3424.6632653061224 1038 3446.4591836734694 1038 3468.2551020408164 1038 3490.0510204081634 1038 3511.8469387755104 1038 3533.6428571428573 1038 3555.4387755102043 1038 3577.234693877551 1038 3599.030612244898 1038 3620.826530612245 1038 3642.622448979592 1038 3664.418367346939 1038 3686.214285714286 1038 3708.0102040816328 1038 3729.8061224489797 1038 3751.6020408163267 1038 3773.3979591836733 1038 3795.1938775510203 1038 3816.9897959183672 1038 3838.785714285714 1038 3860.581632653061 1038 3882.377551020408 1038 3904.173469387755 1038 3925.969387755102 1038 3947.765306122449 1038 3969.5612244897957 1038 3991.357142857143 1038 4013.1530612244896 1038 4034.9489795918366 1038 4056.7448979591836 1038 4078.5408163265306 1038 4100.336734693878 1038 4122.132653061224 1038 4143.928571428572 1038 4165.724489795918 1038 4187.5204081632655 1038 4209.316326530612 1038 4231.1122448979595 1038 4252.908163265306 1038 4274.7040816326535 1038 4296.5 1038 4296.5 399.9753086419753 4274.7040816326535 401.9506172839507 4252.908163265306 401.9506172839507 4231.1122448979595 405.90123456790127 4209.316326530612 407.87654320987656 4187.5204081632655 413.80246913580254 4165.724489795918 415.7777777777778 4143.928571428572 417.7530864197531 4122.132653061224 419.7283950617284 4100.336734693878 419.7283950617284 4078.5408163265306 419.7283950617284 4056.7448979591836 421.7037037037037 4034.9489795918366 421.7037037037037 4013.1530612244896 421.7037037037037 3991.357142857143 423.6790123456791 3969.5612244897957 423.6790123456791 3947.765306122449 425.6543209876544 3925.969387755102 425.6543209876544 3904.173469387755 427.6296296296297 3882.377551020408 429.60493827160496 3860.581632653061 431.58024691358025 3838.785714285714 431.58024691358025 3816.9897959183672 435.53086419753095 3795.1938775510203 437.50617283950623 3773.3979591836733 437.50617283950623 3751.6020408163267 437.50617283950623 3729.8061224489797 441.4567901234568 3708.0102040816328 443.4320987654321 3686.214285714286 449.3580246913581 3664.418367346939 457.25925925925924 3642.622448979592 469.1111111111111 3620.826530612245 475.03703703703707 3599.030612244898 475.03703703703707 3577.234693877551 473.0617283950618 3555.4387755102043 477.01234567901236 3533.6428571428573 482.93827160493834 3511.8469387755104 490.8395061728395 3490.0510204081634 490.8395061728395 3468.2551020408164 492.8148148148149 3446.4591836734694 502.69135802469134 3424.6632653061224 506.64197530864203 3402.8673469387754 510.5925925925926 3381.0714285714284 510.5925925925926 3359.2755102040815 514.5432098765432 3337.4795918367345 514.5432098765432 3315.683673469388 516.5185185185186 3293.887755102041 518.4938271604939 3272.091836734694 526.3950617283951 3250.295918367347 532.320987654321 3228.5 540.2222222222222 3228.5 1038Z" fill="#005aa6" opacity="0.9" />
		</g>
		<g>
			<path d="M3228.5 540.2222222222222 3250.295918367347 532.320987654321 3272.091836734694 526.3950617283951 3293.887755102041 518.4938271604939 3315.683673469388 516.5185185185186 3337.4795918367345 514.5432098765432 3359.2755102040815 514.5432098765432 3381.0714285714284 510.5925925925926 3402.8673469387754 510.5925925925926 3424.6632653061224 506.64197530864203 3446.4591836734694 502.69135802469134 3468.2551020408164 492.8148148148149 3490.0510204081634 490.8395061728395 3511.8469387755104 490.8395061728395 3533.6428571428573 482.93827160493834 3555.4387755102043 477.01234567901236 3577.234693877551 473.0617283950618 3599.030612244898 475.03703703703707 3620.826530612245 475.03703703703707 3642.622448979592 469.1111111111111 3664.418367346939 457.25925925925924 3686.214285714286 449.3580246913581 3708.0102040816328 443.4320987654321 3729.8061224489797 441.4567901234568 3751.6020408163267 437.50617283950623 3773.3979591836733 437.50617283950623 3795.1938775510203 437.50617283950623 3816.9897959183672 435.53086419753095 3838.785714285714 431.58024691358025 3860.581632653061 431.58024691358025 3882.377551020408 429.60493827160496 3904.173469387755 427.6296296296297 3925.969387755102 425.6543209876544 3947.765306122449 425.6543209876544 3969.5612244897957 423.6790123456791 3991.357142857143 423.6790123456791 4013.1530612244896 421.7037037037037 4034.9489795918366 421.7037037037037 4056.7448979591836 421.7037037037037 4078.5408163265306 419.7283950617284 4100.336734693878 419.7283950617284 4122.132653061224 419.7283950617284 4143.928571428572 417.7530864197531 4165.724489795918 415.7777777777778 4187.5204081632655 413.80246913580254 4209.316326530612 407.87654320987656 4231.1122448979595 405.90123456790127 4252.908163265306 401.9506172839507 4274.7040816326535 401.9506172839507 4296.5 399.9753086419753 4296.5 398 4274.7040816326535 399.9753086419754 4252.908163265306 399.9753086419754 4231.1122448979595 403.925925925926 4209.316326530612 405.90123456790127 4187.5204081632655 411.82716049382725 4165.724489795918 413.80246913580254 4143.928571428572 415.7777777777778 4122.132653061224 417.7530864197531 4100.336734693878 417.7530864197531 4078.5408163265306 417.7530864197531 4056.7448979591836 419.7283950617284 4034.9489795918366 419.7283950617284 4013.1530612244896 419.7283950617284 3991.357142857143 421.7037037037038 3969.5612244897957 421.7037037037038 3947.765306122449 423.6790123456791 3925.969387755102 423.6790123456791 3904.173469387755 425.6543209876544 3882.377551020408 427.6296296296297 3860.581632653061 429.60493827160496 3838.785714285714 429.60493827160496 3816.9897959183672 433.55555555555566 3795.1938775510203 435.53086419753095 3773.3979591836733 435.53086419753095 3751.6020408163267 435.53086419753095 3729.8061224489797 439.4814814814815 3708.0102040816328 441.4567901234568 3686.214285714286 447.3827160493828 3664.418367346939 455.28395061728395 3642.622448979592 467.1358024691358 3620.826530612245 473.0617283950618 3599.030612244898 473.0617283950618 3577.234693877551 471.0864197530865 3555.4387755102043 475.03703703703707 3533.6428571428573 480.96296296296305 3511.8469387755104 488.8641975308642 3490.0510204081634 488.8641975308642 3468.2551020408164 490.8395061728396 3446.4591836734694 500.71604938271605 3424.6632653061224 504.66666666666674 3402.8673469387754 508.6172839506173 3381.0714285714284 508.6172839506173 3359.2755102040815 512.5679012345679 3337.4795918367345 512.5679012345679 3315.683673469388 514.5432098765433 3293.887755102041 516.5185185185186 3272.091836734694 524.4197530864199 3250.295918367347 530.3456790123457 3228.5 538.2469135802469 3228.5 540.2222222222222Z" fill="#e62d39" opacity="0.9" />
		</g>
		<g>
			<rect x="4372" y="431" width="22.9995" height="23" fill="#005aa6" />
		</g>
		<g>
			<text fill="#595959" font-family="Verdana,Open Sans,DejaVu Sans,sans-serif" font-weight="400" font-size="41" transform="matrix(1 0 0 1 4404.56 454)">Crawler</text>
		</g>
		<g>
			<rect x="4372" y="508" width="22.9995" height="23" fill="#e62d39" />
		</g>
		<g>
			<text fill="#595959" font-family="Verdana,Open Sans,DejaVu Sans,sans-serif" font-weight="400" font-size="41" transform="matrix(1 0 0 1 4404.56 531)">Non-Crawler</text>
		</g>
	</g>
</svg>
