<svg width="1763" height="1046"
    xmlns="http://www.w3.org/2000/svg"
	xmlns:xlink="http://www.w3.org/1999/xlink" xml:space="preserve" overflow="hidden">
	<defs>
		<clipPath id="clip0">
			<rect x="2917" y="346" width="1763" height="1046"/>
		</clipPath>
	</defs>
	<g clip-path="url(#clip0)" transform="translate(-2917 -346)">
		<rect x="2918" y="347" width="1760" height="1043" fill="#FFFFFF" />
		<g>
			<path d="
			M3228.5 974.532 4296.5 974.532
			M3228.5 910.53 4296.5 910.53
			M3228.5 846.528 4296.5 846.528
			M3228.5 781.526 4296.5 781.526
			M3228.5 717.524 4296.5 717.524
			M3228.5 653.522 4296.5 653.522
			M3228.5 589.52 4296.5 589.52
			M3228.5 525.517 4296.5 525.517
			M3228.5 461.515 4296.5 461.515
			M3228.5 397.5 4296.5 397.5" stroke="#D9D9D9" stroke-width="3.4375" stroke-linejoin="round" stroke-miterlimit="10" fill="none" />
		</g>
		<g>
			<path d="M 1038.5 4296.5 1038.5" stroke="#D9D9D9" stroke-width="3.4375" stroke-linejoin="round" stroke-miterlimit="10" fill="none" fill-rule="evenodd" />
		</g>
		<g>
			<text fill="#595959" font-family="Verdana,Open Sans,DejaVu Sans,sans-serif" font-weight="400" font-size="41" transform="matrix(6.12323e-17 -1 1 6.12323e-17 3243.564697265625 1201.1000900268555)">07-Oct</text>
		</g>
		<g>
			<text fill="#595959" font-family="Verdana,Open Sans,DejaVu Sans,sans-serif" font-weight="400" font-size="41" transform="matrix(6.12323e-17 -1 1 6.12323e-17 3329.004697265625 1211.43017578125)">04-Nov</text>
		</g>
		<g>
			<text fill="#595959" font-family="Verdana,Open Sans,DejaVu Sans,sans-serif" font-weight="400" font-size="41" transform="matrix(6.12323e-17 -1 1 6.12323e-17 3414.444697265625 1207.0859375)">09-Dec</text>
		</g>
		<g>
			<text fill="#595959" font-family="Verdana,Open Sans,DejaVu Sans,sans-serif" font-weight="400" font-size="41" transform="matrix(6.12323e-17 -1 1 6.12323e-17 3503.53826171875 1191.6508712768555)">06-Jan</text>
		</g>
		<g>
			<text fill="#595959" font-family="Verdana,Open Sans,DejaVu Sans,sans-serif" font-weight="400" font-size="41" transform="matrix(6.12323e-17 -1 1 6.12323e-17 3586.035390625 1203.0419921875)">03-Feb</text>
		</g>
		<g>
			<text fill="#595959" font-family="Verdana,Open Sans,DejaVu Sans,sans-serif" font-weight="400" font-size="41" transform="matrix(6.12323e-17 -1 1 6.12323e-17 3670.764697265625 1212.0107421875)">03-Mar</text>
		</g>
		<g>
			<text fill="#595959" font-family="Verdana,Open Sans,DejaVu Sans,sans-serif" font-weight="400" font-size="41" transform="matrix(6.12323e-17 -1 1 6.12323e-17 3756.184677734375 1212.1708984375)">31-Mar</text>
		</g>
		<g>
			<text fill="#595959" font-family="Verdana,Open Sans,DejaVu Sans,sans-serif" font-weight="400" font-size="41" transform="matrix(6.12323e-17 -1 1 6.12323e-17 3846.349287109375 1203.3022384643555)">28-Apr</text>
		</g>
		<g>
			<text fill="#595959" font-family="Verdana,Open Sans,DejaVu Sans,sans-serif" font-weight="400" font-size="41" transform="matrix(6.12323e-17 -1 1 6.12323e-17 3931.789287109375 1216.51513671875)">26-May</text>
		</g>
		<g>
			<text fill="#595959" font-family="Verdana,Open Sans,DejaVu Sans,sans-serif" font-weight="400" font-size="41" transform="matrix(6.12323e-17 -1 1 6.12323e-17 4016.17826171875 1194.1733322143555)">30-Jun</text>
		</g>
		<g>
			<text fill="#595959" font-family="Verdana,Open Sans,DejaVu Sans,sans-serif" font-weight="400" font-size="41" transform="matrix(6.12323e-17 -1 1 6.12323e-17 4102.328955078125 1179.0385665893555)">28-Jul</text>
		</g>
		<g>
			<text fill="#595959" font-family="Verdana,Open Sans,DejaVu Sans,sans-serif" font-weight="400" font-size="41" transform="matrix(6.12323e-17 -1 1 6.12323e-17 4188.109287109375 1208.66748046875)">25-Aug</text>
		</g>
		<g>
			<text fill="#595959" font-family="Verdana,Open Sans,DejaVu Sans,sans-serif" font-weight="400" font-size="41" transform="matrix(6.12323e-17 -1 1 6.12323e-17 4273.549287109375 1204.42333984375)">22-Sep</text>
		</g>
		<g>
			<text fill="#595959" font-family="Verdana,Open Sans,DejaVu Sans,sans-serif" font-weight="400" font-size="41" transform="matrix(1 0 0 1 3169.14111328125 1050)">0</text>
		</g>
		<g>
			<text fill="#595959" font-family="Verdana,Open Sans,DejaVu Sans,sans-serif" font-weight="400" font-size="41" transform="matrix(1 0 0 1 3146.03857421875 922)">67</text>
		</g>
		<g>
			<text fill="#595959" font-family="Verdana,Open Sans,DejaVu Sans,sans-serif" font-weight="400" font-size="41" transform="matrix(1 0 0 1 3122.755859375 794)">134</text>
		</g>
		<g>
			<text fill="#595959" font-family="Verdana,Open Sans,DejaVu Sans,sans-serif" font-weight="400" font-size="41" transform="matrix(1 0 0 1 3129.3022499084473 666)">201</text>
		</g>
		<g>
			<text fill="#595959" font-family="Verdana,Open Sans,DejaVu Sans,sans-serif" font-weight="400" font-size="41" transform="matrix(1 0 0 1 3122.29541015625 538)">268</text>
		</g>
		<g>
			<text fill="#595959" font-family="Verdana,Open Sans,DejaVu Sans,sans-serif" font-weight="400" font-size="41" transform="matrix(1 0 0 1 3122.41552734375 410)">335</text>
		</g>
		<g>
			<text fill="#595959" font-family="Verdana,Open Sans,DejaVu Sans,sans-serif" font-weight="400" font-size="41" transform="matrix(1 0 0 1 3556.97119140625 1321)">Week Commencing</text>
		</g>
		<g>
			<text fill="#595959" font-family="Verdana,Open Sans,DejaVu Sans,sans-serif" font-weight="400" font-size="46" transform="matrix(6.12323e-17 -1 1 6.12323e-17 3019.73 1005.4858093261719)">Number of Crawler Profiles</text>
		</g>
		<rect x="2918.5" y="347.5" width="1760" height="1043" stroke="#D9D9D9" stroke-width="3.4375" stroke-linejoin="round" stroke-miterlimit="10" fill="none" />
		<g>
			<path d="M3228.5 1038 3249.86 1038 3271.22 1038 3292.58 1038 3313.94 1038 3335.3 1038 3356.66 1038 3378.02 1038 3399.38 1038 3420.74 1038 3442.1 1038 3463.46 1038 3484.82 1038 3506.18 1038 3527.54 1038 3548.9 1038 3570.26 1038 3591.62 1038 3612.98 1038 3634.34 1038 3655.7 1038 3677.06 1038 3698.42 1038 3719.7799999999997 1038 3741.14 1038 3762.5 1038 3783.86 1038 3805.2200000000003 1038 3826.58 1038 3847.94 1038 3869.3 1038 3890.66 1038 3912.02 1038 3933.38 1038 3954.74 1038 3976.1 1038 3997.46 1038 4018.8199999999997 1038 4040.18 1038 4061.54 1038 4082.9 1038 4104.26 1038 4125.62 1038 4146.98 1038 4168.34 1038 4189.7 1038 4211.0599999999995 1038 4232.42 1038 4253.78 1038 4275.139999999999 1038 4296.5 1038 4296.5 399.91044776119406 4275.139999999999 399.91044776119406 4253.78 407.5522388059702 4232.42 407.5522388059702 4211.0599999999995 407.5522388059702 4189.7 407.5522388059702 4168.34 407.5522388059702 4146.98 407.5522388059702 4125.62 407.5522388059702 4104.26 407.5522388059702 4082.9 407.5522388059702 4061.54 409.46268656716416 4040.18 409.46268656716416 4018.8199999999997 411.3731343283582 3997.46 411.3731343283582 3976.1 420.9253731343284 3954.74 422.8358208955224 3933.38 422.8358208955224 3912.02 426.6567164179105 3890.66 428.56716417910445 3869.3 434.29850746268653 3847.94 436.2089552238806 3826.58 438.11940298507466 3805.2200000000003 440.0298507462687 3783.86 440.0298507462687 3762.5 440.0298507462687 3741.14 441.94029850746267 3719.7799999999997 441.94029850746267 3698.42 441.94029850746267 3677.06 443.85074626865674 3655.7 443.85074626865674 3634.34 445.7611940298508 3612.98 445.7611940298508 3591.62 447.67164179104475 3570.26 449.5820895522388 3548.9 451.4925373134329 3527.54 451.4925373134329 3506.18 455.3134328358209 3484.82 457.22388059701495 3463.46 457.22388059701495 3442.1 457.22388059701495 3420.74 461.04477611940297 3399.38 462.95522388059703 3378.02 468.6865671641791 3356.66 476.32835820895525 3335.3 487.7910447761194 3313.94 493.5223880597015 3292.58 493.5223880597015 3271.22 491.6119402985074 3249.86 495.43283582089555 3228.5 501.1641791044776 3228.5 1038Z" fill="#005aa6" opacity="0.9" />
		</g>
		<g>
			<path d="M3228.5 501.1641791044776 3249.86 495.43283582089555 3271.22 491.6119402985074 3292.58 493.5223880597015 3313.94 493.5223880597015 3335.3 487.7910447761194 3356.66 476.32835820895525 3378.02 468.6865671641791 3399.38 462.95522388059703 3420.74 461.04477611940297 3442.1 457.22388059701495 3463.46 457.22388059701495 3484.82 457.22388059701495 3506.18 455.3134328358209 3527.54 451.4925373134329 3548.9 451.4925373134329 3570.26 449.5820895522388 3591.62 447.67164179104475 3612.98 445.7611940298508 3634.34 445.7611940298508 3655.7 443.85074626865674 3677.06 443.85074626865674 3698.42 441.94029850746267 3719.7799999999997 441.94029850746267 3741.14 441.94029850746267 3762.5 440.0298507462687 3783.86 440.0298507462687 3805.2200000000003 440.0298507462687 3826.58 438.11940298507466 3847.94 436.2089552238806 3869.3 434.29850746268653 3890.66 428.56716417910445 3912.02 426.6567164179105 3933.38 422.8358208955224 3954.74 422.8358208955224 3976.1 420.9253731343284 3997.46 411.3731343283582 4018.8199999999997 411.3731343283582 4040.18 409.46268656716416 4061.54 409.46268656716416 4082.9 407.5522388059702 4104.26 407.5522388059702 4125.62 407.5522388059702 4146.98 407.5522388059702 4168.34 407.5522388059702 4189.7 407.5522388059702 4211.0599999999995 407.5522388059702 4232.42 407.5522388059702 4253.78 407.5522388059702 4275.139999999999 399.91044776119406 4296.5 399.91044776119406 4296.5 398.00000000000006 4275.139999999999 398.00000000000006 4253.78 405.6417910447762 4232.42 405.6417910447762 4211.0599999999995 405.6417910447762 4189.7 405.6417910447762 4168.34 405.6417910447762 4146.98 405.6417910447762 4125.62 405.6417910447762 4104.26 405.6417910447762 4082.9 405.6417910447762 4061.54 407.55223880597015 4040.18 407.55223880597015 4018.8199999999997 409.4626865671642 3997.46 409.4626865671642 3976.1 419.0149253731344 3954.74 420.92537313432837 3933.38 420.92537313432837 3912.02 424.7462686567165 3890.66 426.65671641791045 3869.3 432.3880597014925 3847.94 434.2985074626866 3826.58 436.20895522388065 3805.2200000000003 438.1194029850747 3783.86 438.1194029850747 3762.5 438.1194029850747 3741.14 440.02985074626866 3719.7799999999997 440.02985074626866 3698.42 440.02985074626866 3677.06 441.9402985074627 3655.7 441.9402985074627 3634.34 443.8507462686568 3612.98 443.8507462686568 3591.62 445.76119402985074 3570.26 447.6716417910448 3548.9 449.58208955223887 3527.54 449.58208955223887 3506.18 453.4029850746269 3484.82 455.31343283582095 3463.46 455.31343283582095 3442.1 455.31343283582095 3420.74 459.13432835820896 3399.38 461.044776119403 3378.02 466.7761194029851 3356.66 474.41791044776124 3335.3 485.8805970149254 3313.94 491.6119402985075 3292.58 491.6119402985075 3271.22 489.7014925373134 3249.86 493.52238805970154 3228.5 499.2537313432836 3228.5 501.1641791044776Z" fill="#e62d39" opacity="0.9" />
		</g>
		<g>
			<rect x="4372" y="431" width="22.9995" height="23" fill="#005aa6" />
		</g>
		<g>
			<text fill="#595959" font-family="Verdana,Open Sans,DejaVu Sans,sans-serif" font-weight="400" font-size="41" transform="matrix(1 0 0 1 4404.56 454)">Crawler</text>
		</g>
		<g>
			<rect x="4372" y="508" width="22.9995" height="23" fill="#e62d39" />
		</g>
		<g>
			<text fill="#595959" font-family="Verdana,Open Sans,DejaVu Sans,sans-serif" font-weight="400" font-size="41" transform="matrix(1 0 0 1 4404.56 531)">Non-Crawler</text>
		</g>
	</g>
</svg>
