<svg width="1763" height="1046"
    xmlns="http://www.w3.org/2000/svg"
	xmlns:xlink="http://www.w3.org/1999/xlink" xml:space="preserve" overflow="hidden">
	<defs>
		<clipPath id="clip0">
			<rect x="2917" y="346" width="1763" height="1046"/>
		</clipPath>
	</defs>
	<g clip-path="url(#clip0)" transform="translate(-2917 -346)">
		<rect x="2918" y="347" width="1760" height="1043" fill="#FFFFFF" />
		<g>
			<path d="
			M3228.5 974.532 4296.5 974.532
			M3228.5 910.53 4296.5 910.53
			M3228.5 846.528 4296.5 846.528
			M3228.5 781.526 4296.5 781.526
			M3228.5 717.524 4296.5 717.524
			M3228.5 653.522 4296.5 653.522
			M3228.5 589.52 4296.5 589.52
			M3228.5 525.517 4296.5 525.517
			M3228.5 461.515 4296.5 461.515
			M3228.5 397.5 4296.5 397.5" stroke="#D9D9D9" stroke-width="3.4375" stroke-linejoin="round" stroke-miterlimit="10" fill="none" />
		</g>
		<g>
			<path d="M 1038.5 4296.5 1038.5" stroke="#D9D9D9" stroke-width="3.4375" stroke-linejoin="round" stroke-miterlimit="10" fill="none" fill-rule="evenodd" />
		</g>
		<g>
			<text fill="#595959" font-family="Verdana,Open Sans,DejaVu Sans,sans-serif" font-weight="400" font-size="41" transform="matrix(6.12323e-17 -1 1 6.12323e-17 3247.928955078125 1179.0385665893555)">22-Jul</text>
		</g>
		<g>
			<text fill="#595959" font-family="Verdana,Open Sans,DejaVu Sans,sans-serif" font-weight="400" font-size="41" transform="matrix(6.12323e-17 -1 1 6.12323e-17 3335.452960578763 1206.90576171875)">19-Aug</text>
		</g>
		<g>
			<text fill="#595959" font-family="Verdana,Open Sans,DejaVu Sans,sans-serif" font-weight="400" font-size="41" transform="matrix(6.12323e-17 -1 1 6.12323e-17 3422.6366340481504 1202.66162109375)">16-Sep</text>
		</g>
		<g>
			<text fill="#595959" font-family="Verdana,Open Sans,DejaVu Sans,sans-serif" font-weight="400" font-size="41" transform="matrix(6.12323e-17 -1 1 6.12323e-17 3505.1157176737884 1199.3784103393555)">14-Oct</text>
		</g>
		<g>
			<text fill="#595959" font-family="Verdana,Open Sans,DejaVu Sans,sans-serif" font-weight="400" font-size="41" transform="matrix(6.12323e-17 -1 1 6.12323e-17 3592.069166533801 1209.70849609375)">11-Nov</text>
		</g>
		<g>
			<text fill="#595959" font-family="Verdana,Open Sans,DejaVu Sans,sans-serif" font-weight="400" font-size="41" transform="matrix(6.12323e-17 -1 1 6.12323e-17 3679.463045081314 1205.3642578125)">16-Dec</text>
		</g>
		<g>
			<text fill="#595959" font-family="Verdana,Open Sans,DejaVu Sans,sans-serif" font-weight="400" font-size="41" transform="matrix(6.12323e-17 -1 1 6.12323e-17 3770.3002830038267 1189.9291915893555)">13-Jan</text>
		</g>
		<g>
			<text fill="#595959" font-family="Verdana,Open Sans,DejaVu Sans,sans-serif" font-weight="400" font-size="41" transform="matrix(6.12323e-17 -1 1 6.12323e-17 3854.561104910714 1201.3203125)">10-Feb</text>
		</g>
		<g>
			<text fill="#595959" font-family="Verdana,Open Sans,DejaVu Sans,sans-serif" font-weight="400" font-size="41" transform="matrix(6.12323e-17 -1 1 6.12323e-17 3941.034085020727 1210.2890625)">10-Mar</text>
		</g>
		<g>
			<text fill="#595959" font-family="Verdana,Open Sans,DejaVu Sans,sans-serif" font-weight="400" font-size="41" transform="matrix(6.12323e-17 -1 1 6.12323e-17 4032.9423678651146 1203.2621994018555)">07-Apr</text>
		</g>
		<g>
			<text fill="#595959" font-family="Verdana,Open Sans,DejaVu Sans,sans-serif" font-weight="400" font-size="41" transform="matrix(6.12323e-17 -1 1 6.12323e-17 4120.126041334503 1216.47509765625)">05-May</text>
		</g>
		<g>
			<text fill="#595959" font-family="Verdana,Open Sans,DejaVu Sans,sans-serif" font-weight="400" font-size="41" transform="matrix(6.12323e-17 -1 1 6.12323e-17 4206.2386698820155 1194.0131759643555)">09-Jun</text>
		</g>
		<g>
			<text fill="#595959" font-family="Verdana,Open Sans,DejaVu Sans,sans-serif" font-weight="400" font-size="41" transform="matrix(6.12323e-17 -1 1 6.12323e-17 4294.1330367107785 1178.9985275268555)">07-Jul</text>
		</g>
		<g>
			<text fill="#595959" font-family="Verdana,Open Sans,DejaVu Sans,sans-serif" font-weight="400" font-size="41" transform="matrix(1 0 0 1 3169.14111328125 1050)">0</text>
		</g>
		<g>
			<text fill="#595959" font-family="Verdana,Open Sans,DejaVu Sans,sans-serif" font-weight="400" font-size="41" transform="matrix(1 0 0 1 3145.95849609375 922)">66</text>
		</g>
		<g>
			<text fill="#595959" font-family="Verdana,Open Sans,DejaVu Sans,sans-serif" font-weight="400" font-size="41" transform="matrix(1 0 0 1 3124.13720703125 794)">132</text>
		</g>
		<g>
			<text fill="#595959" font-family="Verdana,Open Sans,DejaVu Sans,sans-serif" font-weight="400" font-size="41" transform="matrix(1 0 0 1 3124.05712890625 666)">198</text>
		</g>
		<g>
			<text fill="#595959" font-family="Verdana,Open Sans,DejaVu Sans,sans-serif" font-weight="400" font-size="41" transform="matrix(1 0 0 1 3120.994140625 538)">264</text>
		</g>
		<g>
			<text fill="#595959" font-family="Verdana,Open Sans,DejaVu Sans,sans-serif" font-weight="400" font-size="41" transform="matrix(1 0 0 1 3122.09521484375 410)">330</text>
		</g>
		<g>
			<text fill="#595959" font-family="Verdana,Open Sans,DejaVu Sans,sans-serif" font-weight="400" font-size="41" transform="matrix(1 0 0 1 3556.97119140625 1321)">Week Commencing</text>
		</g>
		<g>
			<text fill="#595959" font-family="Verdana,Open Sans,DejaVu Sans,sans-serif" font-weight="400" font-size="46" transform="matrix(6.12323e-17 -1 1 6.12323e-17 3019.73 1005.4858093261719)">Number of Crawler Profiles</text>
		</g>
		<rect x="2918.5" y="347.5" width="1760" height="1043" stroke="#D9D9D9" stroke-width="3.4375" stroke-linejoin="round" stroke-miterlimit="10" fill="none" />
		<g>
			<path d="M3228.5 1038 3250.295918367347 1038 3272.091836734694 1038 3293.887755102041 1038 3315.683673469388 1038 3337.4795918367345 1038 3359.2755102040815 1038 3381.0714285714284 1038 3402.8673469387754 1038 3424.6632653061224 1038 3446.4591836734694 1038 3468.2551020408164 1038 3490.0510204081634 1038 3511.8469387755104 1038 3533.6428571428573 1038 3555.4387755102043 1038 3577.234693877551 1038 3599.030612244898 1038 3620.826530612245 1038 3642.622448979592 1038 3664.418367346939 1038 3686.214285714286 1038 3708.0102040816328 1038 3729.8061224489797 1038 3751.6020408163267 1038 3773.3979591836733 1038 3795.1938775510203 1038 3816.9897959183672 1038 3838.785714285714 1038 3860.581632653061 1038 3882.377551020408 1038 3904.173469387755 1038 3925.969387755102 1038 3947.765306122449 1038 3969.5612244897957 1038 3991.357142857143 1038 4013.1530612244896 1038 4034.9489795918366 1038 4056.7448979591836 1038 4078.5408163265306 1038 4100.336734693878 1038 4122.132653061224 1038 4143.928571428572 1038 4165.724489795918 1038 4187.5204081632655 1038 4209.316326530612 1038 4231.1122448979595 1038 4252.908163265306 1038 4274.7040816326535 1038 4296.5 1038 4296.5 399.9393939393939 4274.7040816326535 401.8787878787879 4252.908163265306 401.8787878787879 4231.1122448979595 411.5757575757575 4209.316326530612 413.5151515151515 4187.5204081632655 413.5151515151515 4165.724489795918 417.3939393939394 4143.928571428572 419.33333333333337 4122.132653061224 425.1515151515151 4100.336734693878 427.0909090909091 4078.5408163265306 429.030303030303 4056.7448979591836 430.969696969697 4034.9489795918366 430.969696969697 4013.1530612244896 430.969696969697 3991.357142857143 432.9090909090909 3969.5612244897957 432.9090909090909 3947.765306122449 432.9090909090909 3925.969387755102 434.8484848484849 3904.173469387755 434.8484848484849 3882.377551020408 436.78787878787875 3860.581632653061 436.78787878787875 3838.785714285714 438.72727272727275 3816.9897959183672 440.66666666666663 3795.1938775510203 442.6060606060606 3773.3979591836733 442.6060606060606 3751.6020408163267 446.4848484848485 3729.8061224489797 448.4242424242424 3708.0102040816328 448.4242424242424 3686.214285714286 448.4242424242424 3664.418367346939 452.30303030303025 3642.622448979592 454.24242424242425 3620.826530612245 460.060606060606 3599.030612244898 467.81818181818176 3577.234693877551 479.4545454545455 3555.4387755102043 485.27272727272725 3533.6428571428573 485.27272727272725 3511.8469387755104 483.33333333333337 3490.0510204081634 487.21212121212125 3468.2551020408164 493.030303030303 3446.4591836734694 500.78787878787875 3424.6632653061224 500.78787878787875 3402.8673469387754 502.72727272727275 3381.0714285714284 512.4242424242424 3359.2755102040815 516.3030303030303 3337.4795918367345 520.1818181818181 3315.683673469388 520.1818181818181 3293.887755102041 524.060606060606 3272.091836734694 524.060606060606 3250.295918367347 526 3228.5 527.939393939394 3228.5 1038Z" fill="#005aa6" opacity="0.9" />
		</g>
		<g>
			<path d="M3228.5 527.939393939394 3250.295918367347 526 3272.091836734694 524.060606060606 3293.887755102041 524.060606060606 3315.683673469388 520.1818181818181 3337.4795918367345 520.1818181818181 3359.2755102040815 516.3030303030303 3381.0714285714284 512.4242424242424 3402.8673469387754 502.72727272727275 3424.6632653061224 500.78787878787875 3446.4591836734694 500.78787878787875 3468.2551020408164 493.030303030303 3490.0510204081634 487.21212121212125 3511.8469387755104 483.33333333333337 3533.6428571428573 485.27272727272725 3555.4387755102043 485.27272727272725 3577.234693877551 479.4545454545455 3599.030612244898 467.81818181818176 3620.826530612245 460.060606060606 3642.622448979592 454.24242424242425 3664.418367346939 452.30303030303025 3686.214285714286 448.4242424242424 3708.0102040816328 448.4242424242424 3729.8061224489797 448.4242424242424 3751.6020408163267 446.4848484848485 3773.3979591836733 442.6060606060606 3795.1938775510203 442.6060606060606 3816.9897959183672 440.66666666666663 3838.785714285714 438.72727272727275 3860.581632653061 436.78787878787875 3882.377551020408 436.78787878787875 3904.173469387755 434.8484848484849 3925.969387755102 434.8484848484849 3947.765306122449 432.9090909090909 3969.5612244897957 432.9090909090909 3991.357142857143 432.9090909090909 4013.1530612244896 430.969696969697 4034.9489795918366 430.969696969697 4056.7448979591836 430.969696969697 4078.5408163265306 429.030303030303 4100.336734693878 427.0909090909091 4122.132653061224 425.1515151515151 4143.928571428572 419.33333333333337 4165.724489795918 417.3939393939394 4187.5204081632655 413.5151515151515 4209.316326530612 413.5151515151515 4231.1122448979595 411.5757575757575 4252.908163265306 401.8787878787879 4274.7040816326535 401.8787878787879 4296.5 399.9393939393939 4296.5 397.99999999999994 4274.7040816326535 399.93939393939394 4252.908163265306 399.93939393939394 4231.1122448979595 409.63636363636357 4209.316326530612 411.57575757575756 4187.5204081632655 411.57575757575756 4165.724489795918 415.45454545454544 4143.928571428572 417.39393939393943 4122.132653061224 423.2121212121212 4100.336734693878 425.1515151515152 4078.5408163265306 427.09090909090907 4056.7448979591836 429.03030303030306 4034.9489795918366 429.03030303030306 4013.1530612244896 429.03030303030306 3991.357142857143 430.96969696969694 3969.5612244897957 430.96969696969694 3947.765306122449 430.96969696969694 3925.969387755102 432.90909090909093 3904.173469387755 432.90909090909093 3882.377551020408 434.8484848484848 3860.581632653061 434.8484848484848 3838.785714285714 436.7878787878788 3816.9897959183672 438.7272727272727 3795.1938775510203 440.6666666666667 3773.3979591836733 440.6666666666667 3751.6020408163267 444.54545454545456 3729.8061224489797 446.48484848484844 3708.0102040816328 446.48484848484844 3686.214285714286 446.48484848484844 3664.418367346939 450.3636363636363 3642.622448979592 452.3030303030303 3620.826530612245 458.12121212121207 3599.030612244898 465.8787878787878 3577.234693877551 477.51515151515156 3555.4387755102043 483.3333333333333 3533.6428571428573 483.3333333333333 3511.8469387755104 481.39393939393943 3490.0510204081634 485.2727272727273 3468.2551020408164 491.09090909090907 3446.4591836734694 498.8484848484848 3424.6632653061224 498.8484848484848 3402.8673469387754 500.7878787878788 3381.0714285714284 510.48484848484844 3359.2755102040815 514.3636363636363 3337.4795918367345 518.2424242424241 3315.683673469388 518.2424242424241 3293.887755102041 522.121212121212 3272.091836734694 522.121212121212 3250.295918367347 524.060606060606 3228.5 526 3228.5 527.939393939394Z" fill="#e62d39" opacity="0.9" />
		</g>
		<g>
			<rect x="4372" y="431" width="22.9995" height="23" fill="#005aa6" />
		</g>
		<g>
			<text fill="#595959" font-family="Verdana,Open Sans,DejaVu Sans,sans-serif" font-weight="400" font-size="41" transform="matrix(1 0 0 1 4404.56 454)">Crawler</text>
		</g>
		<g>
			<rect x="4372" y="508" width="22.9995" height="23" fill="#e62d39" />
		</g>
		<g>
			<text fill="#595959" font-family="Verdana,Open Sans,DejaVu Sans,sans-serif" font-weight="400" font-size="41" transform="matrix(1 0 0 1 4404.56 531)">Non-Crawler</text>
		</g>
	</g>
</svg>
