<svg width="1763" height="1046"
    xmlns="http://www.w3.org/2000/svg"
	xmlns:xlink="http://www.w3.org/1999/xlink" xml:space="preserve" overflow="hidden">
	<defs>
		<clipPath id="clip0">
			<rect x="2917" y="346" width="1763" height="1046"/>
		</clipPath>
	</defs>
	<g clip-path="url(#clip0)" transform="translate(-2917 -346)">
		<rect x="2918" y="347" width="1760" height="1043" fill="#FFFFFF" />
		<g>
			<path d="
			M3228.5 974.532 4296.5 974.532
			M3228.5 910.53 4296.5 910.53
			M3228.5 846.528 4296.5 846.528
			M3228.5 781.526 4296.5 781.526
			M3228.5 717.524 4296.5 717.524
			M3228.5 653.522 4296.5 653.522
			M3228.5 589.52 4296.5 589.52
			M3228.5 525.517 4296.5 525.517
			M3228.5 461.515 4296.5 461.515
			M3228.5 397.5 4296.5 397.5" stroke="#D9D9D9" stroke-width="3.4375" stroke-linejoin="round" stroke-miterlimit="10" fill="none" />
		</g>
		<g>
			<path d="M 1038.5 4296.5 1038.5" stroke="#D9D9D9" stroke-width="3.4375" stroke-linejoin="round" stroke-miterlimit="10" fill="none" fill-rule="evenodd" />
		</g>
		<g>
			<text fill="#595959" font-family="Verdana,sans-serif" font-weight="400" font-size="41" transform="matrix(6.12323e-17 -1 1 6.12323e-17 3248 1228)">06-May</text>
		</g>
		<g>
			<text fill="#595959" font-family="Verdana,sans-serif" font-weight="400" font-size="41" transform="matrix(6.12323e-17 -1 1 6.12323e-17 3328.264705882353 1211)">03-Jun</text>
		</g>
		<g>
			<text fill="#595959" font-family="Verdana,sans-serif" font-weight="400" font-size="41" transform="matrix(6.12323e-17 -1 1 6.12323e-17 3412.029411764706 1197)">01-Jul</text>
		</g>
		<g>
			<text fill="#595959" font-family="Verdana,sans-serif" font-weight="400" font-size="41" transform="matrix(6.12323e-17 -1 1 6.12323e-17 3495.794117647059 1196)">29-Jul</text>
		</g>
		<g>
			<text fill="#595959" font-family="Verdana,sans-serif" font-weight="400" font-size="41" transform="matrix(6.12323e-17 -1 1 6.12323e-17 3583.0588235294117 1221)">26-Aug</text>
		</g>
		<g>
			<text fill="#595959" font-family="Verdana,sans-serif" font-weight="400" font-size="41" transform="matrix(6.12323e-17 -1 1 6.12323e-17 3666.823529411765 1221)">23-Sep</text>
		</g>
		<g>
			<text fill="#595959" font-family="Verdana,sans-serif" font-weight="400" font-size="41" transform="matrix(6.12323e-17 -1 1 6.12323e-17 3747.0882352941176 1215)">21-Oct</text>
		</g>
		<g>
			<text fill="#595959" font-family="Verdana,sans-serif" font-weight="400" font-size="41" transform="matrix(6.12323e-17 -1 1 6.12323e-17 3830.8529411764707 1222)">18-Nov</text>
		</g>
		<g>
			<text fill="#595959" font-family="Verdana,sans-serif" font-weight="400" font-size="41" transform="matrix(6.12323e-17 -1 1 6.12323e-17 3914.6176470588234 1222)">23-Dec</text>
		</g>
		<g>
			<text fill="#595959" font-family="Verdana,sans-serif" font-weight="400" font-size="41" transform="matrix(6.12323e-17 -1 1 6.12323e-17 3998.3823529411766 1210)">20-Jan</text>
		</g>
		<g>
			<text fill="#595959" font-family="Verdana,sans-serif" font-weight="400" font-size="41" transform="matrix(6.12323e-17 -1 1 6.12323e-17 4082.1470588235293 1214)">17-Feb</text>
		</g>
		<g>
			<text fill="#595959" font-family="Verdana,sans-serif" font-weight="400" font-size="41" transform="matrix(6.12323e-17 -1 1 6.12323e-17 4165.411764705882 1221)">17-Mar</text>
		</g>
		<g>
			<text fill="#595959" font-family="Verdana,sans-serif" font-weight="400" font-size="41" transform="matrix(6.12323e-17 -1 1 6.12323e-17 4253.176470588235 1214)">14-Apr</text>
		</g>
		<g>
			<text fill="#595959" font-family="Verdana,sans-serif" font-weight="400" font-size="41" transform="matrix(1 0 0 1 3167.5 1050)">0</text>
		</g>
		<g>
			<text fill="#595959" font-family="Verdana,sans-serif" font-weight="400" font-size="41" transform="matrix(1 0 0 1 3141.5 922)">63</text>
		</g>
		<g>
			<text fill="#595959" font-family="Verdana,sans-serif" font-weight="400" font-size="41" transform="matrix(1 0 0 1 3117.5 794)">126</text>
		</g>
		<g>
			<text fill="#595959" font-family="Verdana,sans-serif" font-weight="400" font-size="41" transform="matrix(1 0 0 1 3118.5 666)">190</text>
		</g>
		<g>
			<text fill="#595959" font-family="Verdana,sans-serif" font-weight="400" font-size="41" transform="matrix(1 0 0 1 3116.5 538)">253</text>
		</g>
		<g>
			<text fill="#595959" font-family="Verdana,sans-serif" font-weight="400" font-size="41" transform="matrix(1 0 0 1 3115.5 410)">316</text>
		</g>
		<g>
			<text fill="#595959" font-family="Verdana,sans-serif" font-weight="400" font-size="41" transform="matrix(1 0 0 1 3544.5 1321)">Week Commencing</text>
		</g>
		<g>
			<text fill="#595959" font-family="Verdana,sans-serif" font-weight="400" font-size="46" transform="matrix(6.12323e-17 -1 1 6.12323e-17 3019.73 1024.75)">Number of Crawler Profiles</text>
		</g>
		<rect x="2918.5" y="347.5" width="1760" height="1043" stroke="#D9D9D9" stroke-width="3.4375" stroke-linejoin="round" stroke-miterlimit="10" fill="none" />
		<g>
			<path d="M3228.5 1038 3249.4411764705883 1038 3270.3823529411766 1038 3291.323529411765 1038 3312.264705882353 1038 3333.205882352941 1038 3354.1470588235293 1038 3375.0882352941176 1038 3396.029411764706 1038 3416.970588235294 1038 3437.9117647058824 1038 3458.8529411764707 1038 3479.794117647059 1038 3500.735294117647 1038 3521.676470588235 1038 3542.6176470588234 1038 3563.5588235294117 1038 3584.5 1038 3605.4411764705883 1038 3626.3823529411766 1038 3647.323529411765 1038 3668.264705882353 1038 3689.205882352941 1038 3710.1470588235293 1038 3731.0882352941176 1038 3752.029411764706 1038 3772.970588235294 1038 3793.9117647058824 1038 3814.8529411764707 1038 3835.7941176470586 1038 3856.735294117647 1038 3877.676470588235 1038 3898.6176470588234 1038 3919.5588235294117 1038 3940.5 1038 3961.4411764705883 1038 3982.3823529411766 1038 4003.323529411765 1038 4024.264705882353 1038 4045.2058823529414 1038 4066.1470588235293 1038 4087.0882352941176 1038 4108.029411764706 1038 4128.970588235294 1038 4149.911764705882 1038 4170.85294117647 1038 4191.794117647059 1038 4212.735294117647 1038 4233.676470588235 1038 4254.617647058823 1038 4275.558823529412 1038 4296.5 1038 4296.5 400.02531645569616 4275.558823529412 402.0506329113923 4254.617647058823 404.0759493670886 4233.676470588235 404.0759493670886 4212.735294117647 404.0759493670886 4191.794117647059 406.10126582278474 4170.85294117647 406.10126582278474 4149.911764705882 406.10126582278474 4128.970588235294 408.126582278481 4108.029411764706 408.126582278481 4087.0882352941176 410.15189873417717 4066.1470588235293 410.15189873417717 4045.2058823529414 412.1772151898733 4024.264705882353 414.2025316455696 4003.323529411765 416.22784810126575 3982.3823529411766 416.22784810126575 3961.4411764705883 420.2784810126582 3940.5 422.30379746835433 3919.5588235294117 422.30379746835433 3898.6176470588234 422.30379746835433 3877.676470588235 426.35443037974676 3856.735294117647 428.37974683544303 3835.7941176470586 434.4556962025316 3814.8529411764707 442.55696202531647 3793.9117647058824 454.70886075949363 3772.970588235294 460.7848101265822 3752.029411764706 460.7848101265822 3731.0882352941176 458.75949367088606 3710.1470588235293 462.8101265822785 3689.205882352941 468.88607594936707 3668.264705882353 476.9873417721518 3647.323529411765 476.9873417721518 3626.3823529411766 479.0126582278481 3605.4411764705883 489.1392405063291 3584.5 493.1898734177215 3563.5588235294117 497.24050632911394 3542.6176470588234 497.24050632911394 3521.676470588235 501.29113924050625 3500.735294117647 501.29113924050625 3479.794117647059 503.3164556962025 3458.8529411764707 505.3417721518987 3437.9117647058824 513.4430379746835 3416.970588235294 519.5189873417721 3396.029411764706 527.620253164557 3375.0882352941176 533.6962025316456 3354.1470588235293 543.8227848101266 3333.205882352941 547.873417721519 3312.264705882353 547.873417721519 3291.323529411765 547.873417721519 3270.3823529411766 549.8987341772151 3249.4411764705883 553.9493670886076 3228.5 562.0506329113923 3228.5 1038Z" fill="#005aa6" opacity="0.9" />
		</g>
		<g>
			<path d="M3228.5 562.0506329113923 3249.4411764705883 553.9493670886076 3270.3823529411766 549.8987341772151 3291.323529411765 547.873417721519 3312.264705882353 547.873417721519 3333.205882352941 547.873417721519 3354.1470588235293 543.8227848101266 3375.0882352941176 533.6962025316456 3396.029411764706 527.620253164557 3416.970588235294 519.5189873417721 3437.9117647058824 513.4430379746835 3458.8529411764707 505.3417721518987 3479.794117647059 503.3164556962025 3500.735294117647 501.29113924050625 3521.676470588235 501.29113924050625 3542.6176470588234 497.24050632911394 3563.5588235294117 497.24050632911394 3584.5 493.1898734177215 3605.4411764705883 489.1392405063291 3626.3823529411766 479.0126582278481 3647.323529411765 476.9873417721518 3668.264705882353 476.9873417721518 3689.205882352941 468.88607594936707 3710.1470588235293 462.8101265822785 3731.0882352941176 458.75949367088606 3752.029411764706 460.7848101265822 3772.970588235294 460.7848101265822 3793.9117647058824 454.70886075949363 3814.8529411764707 442.55696202531647 3835.7941176470586 434.4556962025316 3856.735294117647 428.37974683544303 3877.676470588235 426.35443037974676 3898.6176470588234 422.30379746835433 3919.5588235294117 422.30379746835433 3940.5 422.30379746835433 3961.4411764705883 420.2784810126582 3982.3823529411766 416.22784810126575 4003.323529411765 416.22784810126575 4024.264705882353 414.2025316455696 4045.2058823529414 412.1772151898733 4066.1470588235293 410.15189873417717 4087.0882352941176 410.15189873417717 4108.029411764706 408.126582278481 4128.970588235294 408.126582278481 4149.911764705882 406.10126582278474 4170.85294117647 406.10126582278474 4191.794117647059 406.10126582278474 4212.735294117647 404.0759493670886 4233.676470588235 404.0759493670886 4254.617647058823 404.0759493670886 4275.558823529412 402.0506329113923 4296.5 400.02531645569616 4296.5 397.99999999999994 4275.558823529412 400.0253164556961 4254.617647058823 402.05063291139237 4233.676470588235 402.05063291139237 4212.735294117647 402.05063291139237 4191.794117647059 404.0759493670885 4170.85294117647 404.0759493670885 4149.911764705882 404.0759493670885 4128.970588235294 406.1012658227848 4108.029411764706 406.1012658227848 4087.0882352941176 408.12658227848095 4066.1470588235293 408.12658227848095 4045.2058823529414 410.1518987341771 4024.264705882353 412.1772151898734 4003.323529411765 414.20253164556954 3982.3823529411766 414.20253164556954 3961.4411764705883 418.25316455696196 3940.5 420.2784810126581 3919.5588235294117 420.2784810126581 3898.6176470588234 420.2784810126581 3877.676470588235 424.32911392405055 3856.735294117647 426.3544303797468 3835.7941176470586 432.4303797468354 3814.8529411764707 440.53164556962025 3793.9117647058824 452.6835443037974 3772.970588235294 458.759493670886 3752.029411764706 458.759493670886 3731.0882352941176 456.73417721518985 3710.1470588235293 460.7848101265823 3689.205882352941 466.86075949367086 3668.264705882353 474.9620253164556 3647.323529411765 474.9620253164556 3626.3823529411766 476.98734177215186 3605.4411764705883 487.1139240506329 3584.5 491.1645569620253 3563.5588235294117 495.2151898734177 3542.6176470588234 495.2151898734177 3521.676470588235 499.26582278481004 3500.735294117647 499.26582278481004 3479.794117647059 501.2911392405063 3458.8529411764707 503.31645569620247 3437.9117647058824 511.4177215189873 3416.970588235294 517.493670886076 3396.029411764706 525.5949367088608 3375.0882352941176 531.6708860759494 3354.1470588235293 541.7974683544304 3333.205882352941 545.8481012658228 3312.264705882353 545.8481012658228 3291.323529411765 545.8481012658228 3270.3823529411766 547.873417721519 3249.4411764705883 551.9240506329114 3228.5 560.0253164556962 3228.5 562.0506329113923Z" fill="#e62d39" opacity="0.9" />
		</g>
		<g>
			<rect x="4372" y="431" width="22.9995" height="23" fill="#005aa6" />
		</g>
		<g>
			<text fill="#595959" font-family="Verdana,sans-serif" font-weight="400" font-size="41" transform="matrix(1 0 0 1 4404.56 454)">Crawler</text>
		</g>
		<g>
			<rect x="4372" y="508" width="22.9995" height="23" fill="#e62d39" />
		</g>
		<g>
			<text fill="#595959" font-family="Verdana,sans-serif" font-weight="400" font-size="41" transform="matrix(1 0 0 1 4404.56 531)">Non-Crawler</text>
		</g>
	</g>
</svg>
