<svg width="1763" height="1046"
    xmlns="http://www.w3.org/2000/svg"
	xmlns:xlink="http://www.w3.org/1999/xlink" xml:space="preserve" overflow="hidden">
	<defs>
		<clipPath id="clip0">
			<rect x="2917" y="346" width="1763" height="1046"/>
		</clipPath>
	</defs>
	<g clip-path="url(#clip0)" transform="translate(-2917 -346)">
		<rect x="2918" y="347" width="1760" height="1043" fill="#FFFFFF" />
		<g>
			<path d="
			M3228.5 974.532 4296.5 974.532
			M3228.5 910.53 4296.5 910.53
			M3228.5 846.528 4296.5 846.528
			M3228.5 781.526 4296.5 781.526
			M3228.5 717.524 4296.5 717.524
			M3228.5 653.522 4296.5 653.522
			M3228.5 589.52 4296.5 589.52
			M3228.5 525.517 4296.5 525.517
			M3228.5 461.515 4296.5 461.515
			M3228.5 397.5 4296.5 397.5" stroke="#D9D9D9" stroke-width="3.4375" stroke-linejoin="round" stroke-miterlimit="10" fill="none" />
		</g>
		<g>
			<path d="M 1038.5 4296.5 1038.5" stroke="#D9D9D9" stroke-width="3.4375" stroke-linejoin="round" stroke-miterlimit="10" fill="none" fill-rule="evenodd" />
		</g>
		<g>
			<text fill="#595959" font-family="Verdana,Open Sans,DejaVu Sans,sans-serif" font-weight="400" font-size="41" transform="matrix(6.12323e-17 -1 1 6.12323e-17 3247.21826171875 1191.6508712768555)">06-Jan</text>
		</g>
		<g>
			<text fill="#595959" font-family="Verdana,Open Sans,DejaVu Sans,sans-serif" font-weight="400" font-size="41" transform="matrix(6.12323e-17 -1 1 6.12323e-17 3328.040096507353 1203.0419921875)">03-Feb</text>
		</g>
		<g>
			<text fill="#595959" font-family="Verdana,Open Sans,DejaVu Sans,sans-serif" font-weight="400" font-size="41" transform="matrix(6.12323e-17 -1 1 6.12323e-17 3411.094109030331 1212.0107421875)">03-Mar</text>
		</g>
		<g>
			<text fill="#595959" font-family="Verdana,Open Sans,DejaVu Sans,sans-serif" font-weight="400" font-size="41" transform="matrix(6.12323e-17 -1 1 6.12323e-17 3494.838795381434 1212.1708984375)">31-Mar</text>
		</g>
		<g>
			<text fill="#595959" font-family="Verdana,Open Sans,DejaVu Sans,sans-serif" font-weight="400" font-size="41" transform="matrix(6.12323e-17 -1 1 6.12323e-17 3583.3281106387867 1203.3022384643555)">28-Apr</text>
		</g>
		<g>
			<text fill="#595959" font-family="Verdana,Open Sans,DejaVu Sans,sans-serif" font-weight="400" font-size="41" transform="matrix(6.12323e-17 -1 1 6.12323e-17 3667.09281652114 1216.51513671875)">26-May</text>
		</g>
		<g>
			<text fill="#595959" font-family="Verdana,Open Sans,DejaVu Sans,sans-serif" font-weight="400" font-size="41" transform="matrix(6.12323e-17 -1 1 6.12323e-17 3749.8064970128676 1194.1733322143555)">30-Jun</text>
		</g>
		<g>
			<text fill="#595959" font-family="Verdana,Open Sans,DejaVu Sans,sans-serif" font-weight="400" font-size="41" transform="matrix(6.12323e-17 -1 1 6.12323e-17 3834.2818962545957 1179.0385665893555)">28-Jul</text>
		</g>
		<g>
			<text fill="#595959" font-family="Verdana,Open Sans,DejaVu Sans,sans-serif" font-weight="400" font-size="41" transform="matrix(6.12323e-17 -1 1 6.12323e-17 3918.3869341681984 1208.66748046875)">25-Aug</text>
		</g>
		<g>
			<text fill="#595959" font-family="Verdana,Open Sans,DejaVu Sans,sans-serif" font-weight="400" font-size="41" transform="matrix(6.12323e-17 -1 1 6.12323e-17 4002.1516400505516 1204.42333984375)">22-Sep</text>
		</g>
		<g>
			<text fill="#595959" font-family="Verdana,Open Sans,DejaVu Sans,sans-serif" font-weight="400" font-size="41" transform="matrix(6.12323e-17 -1 1 6.12323e-17 4081.2117560891543 1201.1401290893555)">20-Oct</text>
		</g>
		<g>
			<text fill="#595959" font-family="Verdana,Open Sans,DejaVu Sans,sans-serif" font-weight="400" font-size="41" transform="matrix(6.12323e-17 -1 1 6.12323e-17 4164.746237362132 1209.70849609375)">17-Nov</text>
		</g>
		<g>
			<text fill="#595959" font-family="Verdana,Open Sans,DejaVu Sans,sans-serif" font-weight="400" font-size="41" transform="matrix(6.12323e-17 -1 1 6.12323e-17 4248.510943244485 1205.3642578125)">15-Dec</text>
		</g>
		<g>
			<text fill="#595959" font-family="Verdana,Open Sans,DejaVu Sans,sans-serif" font-weight="400" font-size="41" transform="matrix(1 0 0 1 3169.14111328125 1050)">0</text>
		</g>
		<g>
			<text fill="#595959" font-family="Verdana,Open Sans,DejaVu Sans,sans-serif" font-weight="400" font-size="41" transform="matrix(1 0 0 1 3146.15869140625 922)">69</text>
		</g>
		<g>
			<text fill="#595959" font-family="Verdana,Open Sans,DejaVu Sans,sans-serif" font-weight="400" font-size="41" transform="matrix(1 0 0 1 3124.13720703125 794)">139</text>
		</g>
		<g>
			<text fill="#595959" font-family="Verdana,Open Sans,DejaVu Sans,sans-serif" font-weight="400" font-size="41" transform="matrix(1 0 0 1 3122.29541015625 666)">208</text>
		</g>
		<g>
			<text fill="#595959" font-family="Verdana,Open Sans,DejaVu Sans,sans-serif" font-weight="400" font-size="41" transform="matrix(1 0 0 1 3122.29541015625 538)">278</text>
		</g>
		<g>
			<text fill="#595959" font-family="Verdana,Open Sans,DejaVu Sans,sans-serif" font-weight="400" font-size="41" transform="matrix(1 0 0 1 3122.13525390625 410)">347</text>
		</g>
		<g>
			<text fill="#595959" font-family="Verdana,Open Sans,DejaVu Sans,sans-serif" font-weight="400" font-size="41" transform="matrix(1 0 0 1 3556.97119140625 1321)">Week Commencing</text>
		</g>
		<g>
			<text fill="#595959" font-family="Verdana,Open Sans,DejaVu Sans,sans-serif" font-weight="400" font-size="46" transform="matrix(6.12323e-17 -1 1 6.12323e-17 3019.73 1005.4858093261719)">Number of Crawler Profiles</text>
		</g>
		<rect x="2918.5" y="347.5" width="1760" height="1043" stroke="#D9D9D9" stroke-width="3.4375" stroke-linejoin="round" stroke-miterlimit="10" fill="none" />
		<g>
			<path d="M3228.5 1038 3249.4411764705883 1038 3270.3823529411766 1038 3291.323529411765 1038 3312.264705882353 1038 3333.205882352941 1038 3354.1470588235293 1038 3375.0882352941176 1038 3396.029411764706 1038 3416.970588235294 1038 3437.9117647058824 1038 3458.8529411764707 1038 3479.794117647059 1038 3500.735294117647 1038 3521.676470588235 1038 3542.6176470588234 1038 3563.5588235294117 1038 3584.5 1038 3605.4411764705883 1038 3626.3823529411766 1038 3647.323529411765 1038 3668.264705882353 1038 3689.205882352941 1038 3710.1470588235293 1038 3731.0882352941176 1038 3752.029411764706 1038 3772.970588235294 1038 3793.9117647058824 1038 3814.8529411764707 1038 3835.7941176470586 1038 3856.735294117647 1038 3877.676470588235 1038 3898.6176470588234 1038 3919.5588235294117 1038 3940.5 1038 3961.4411764705883 1038 3982.3823529411766 1038 4003.323529411765 1038 4024.264705882353 1038 4045.2058823529414 1038 4066.1470588235293 1038 4087.0882352941176 1038 4108.029411764706 1038 4128.970588235294 1038 4149.911764705882 1038 4170.85294117647 1038 4191.794117647059 1038 4212.735294117647 1038 4233.676470588235 1038 4254.617647058823 1038 4275.558823529412 1038 4296.5 1038 4296.5 399.8443804034582 4275.558823529412 401.68876080691643 4254.617647058823 405.37752161383287 4233.676470588235 407.2219020172911 4212.735294117647 409.0662824207493 4191.794117647059 414.59942363112395 4170.85294117647 414.59942363112395 4149.911764705882 414.59942363112395 4128.970588235294 416.4438040345822 4108.029411764706 420.1325648414986 4087.0882352941176 420.1325648414986 4066.1470588235293 420.1325648414986 4045.2058823529414 421.9769452449568 4024.264705882353 421.9769452449568 4003.323529411765 421.9769452449568 3982.3823529411766 429.3544668587897 3961.4411764705883 429.3544668587897 3940.5 429.3544668587897 3919.5588235294117 429.3544668587897 3898.6176470588234 429.3544668587897 3877.676470588235 429.3544668587897 3856.735294117647 429.3544668587897 3835.7941176470586 429.3544668587897 3814.8529411764707 429.3544668587897 3793.9117647058824 431.1988472622479 3772.970588235294 431.1988472622479 3752.029411764706 433.0432276657061 3731.0882352941176 433.0432276657061 3710.1470588235293 442.2651296829971 3689.205882352941 444.1095100864553 3668.264705882353 444.1095100864553 3647.323529411765 447.79827089337175 3626.3823529411766 449.64265129682997 3605.4411764705883 455.1757925072046 3584.5 457.02017291066284 3563.5588235294117 458.86455331412105 3542.6176470588234 460.70893371757927 3521.676470588235 460.70893371757927 3500.735294117647 460.70893371757927 3479.794117647059 462.5533141210375 3458.8529411764707 462.5533141210375 3437.9117647058824 462.5533141210375 3416.970588235294 464.3976945244957 3396.029411764706 464.3976945244957 3375.0882352941176 466.2420749279539 3354.1470588235293 466.2420749279539 3333.205882352941 468.08645533141214 3312.264705882353 469.93083573487036 3291.323529411765 471.7752161383286 3270.3823529411766 471.7752161383286 3249.4411764705883 475.463976945245 3228.5 477.3083573487032 3228.5 1038Z" fill="#005aa6" opacity="0.9" />
		</g>
		<g>
			<path d="M3228.5 477.3083573487032 3249.4411764705883 475.463976945245 3270.3823529411766 471.7752161383286 3291.323529411765 471.7752161383286 3312.264705882353 469.93083573487036 3333.205882352941 468.08645533141214 3354.1470588235293 466.2420749279539 3375.0882352941176 466.2420749279539 3396.029411764706 464.3976945244957 3416.970588235294 464.3976945244957 3437.9117647058824 462.5533141210375 3458.8529411764707 462.5533141210375 3479.794117647059 462.5533141210375 3500.735294117647 460.70893371757927 3521.676470588235 460.70893371757927 3542.6176470588234 460.70893371757927 3563.5588235294117 458.86455331412105 3584.5 457.02017291066284 3605.4411764705883 455.1757925072046 3626.3823529411766 449.64265129682997 3647.323529411765 447.79827089337175 3668.264705882353 444.1095100864553 3689.205882352941 444.1095100864553 3710.1470588235293 442.2651296829971 3731.0882352941176 433.0432276657061 3752.029411764706 433.0432276657061 3772.970588235294 431.1988472622479 3793.9117647058824 431.1988472622479 3814.8529411764707 429.3544668587897 3835.7941176470586 429.3544668587897 3856.735294117647 429.3544668587897 3877.676470588235 429.3544668587897 3898.6176470588234 429.3544668587897 3919.5588235294117 429.3544668587897 3940.5 429.3544668587897 3961.4411764705883 429.3544668587897 3982.3823529411766 429.3544668587897 4003.323529411765 421.9769452449568 4024.264705882353 421.9769452449568 4045.2058823529414 421.9769452449568 4066.1470588235293 420.1325648414986 4087.0882352941176 420.1325648414986 4108.029411764706 420.1325648414986 4128.970588235294 416.4438040345822 4149.911764705882 414.59942363112395 4170.85294117647 414.59942363112395 4191.794117647059 414.59942363112395 4212.735294117647 409.0662824207493 4233.676470588235 407.2219020172911 4254.617647058823 405.37752161383287 4275.558823529412 401.68876080691643 4296.5 399.8443804034582 4296.5 398 4275.558823529412 399.8443804034582 4254.617647058823 403.53314121037465 4233.676470588235 405.37752161383287 4212.735294117647 407.2219020172911 4191.794117647059 412.75504322766574 4170.85294117647 412.75504322766574 4149.911764705882 412.75504322766574 4128.970588235294 414.59942363112395 4108.029411764706 418.2881844380404 4087.0882352941176 418.2881844380404 4066.1470588235293 418.2881844380404 4045.2058823529414 420.1325648414986 4024.264705882353 420.1325648414986 4003.323529411765 420.1325648414986 3982.3823529411766 427.5100864553315 3961.4411764705883 427.5100864553315 3940.5 427.5100864553315 3919.5588235294117 427.5100864553315 3898.6176470588234 427.5100864553315 3877.676470588235 427.5100864553315 3856.735294117647 427.5100864553315 3835.7941176470586 427.5100864553315 3814.8529411764707 427.5100864553315 3793.9117647058824 429.3544668587897 3772.970588235294 429.3544668587897 3752.029411764706 431.1988472622479 3731.0882352941176 431.1988472622479 3710.1470588235293 440.4207492795389 3689.205882352941 442.2651296829971 3668.264705882353 442.2651296829971 3647.323529411765 445.95389048991353 3626.3823529411766 447.79827089337175 3605.4411764705883 453.3314121037464 3584.5 455.1757925072046 3563.5588235294117 457.02017291066284 3542.6176470588234 458.86455331412105 3521.676470588235 458.86455331412105 3500.735294117647 458.86455331412105 3479.794117647059 460.70893371757927 3458.8529411764707 460.70893371757927 3437.9117647058824 460.70893371757927 3416.970588235294 462.5533141210375 3396.029411764706 462.5533141210375 3375.0882352941176 464.3976945244957 3354.1470588235293 464.3976945244957 3333.205882352941 466.2420749279539 3312.264705882353 468.08645533141214 3291.323529411765 469.93083573487036 3270.3823529411766 469.93083573487036 3249.4411764705883 473.6195965417868 3228.5 475.463976945245 3228.5 477.3083573487032Z" fill="#e62d39" opacity="0.9" />
		</g>
		<g>
			<rect x="4372" y="431" width="22.9995" height="23" fill="#005aa6" />
		</g>
		<g>
			<text fill="#595959" font-family="Verdana,Open Sans,DejaVu Sans,sans-serif" font-weight="400" font-size="41" transform="matrix(1 0 0 1 4404.56 454)">Crawler</text>
		</g>
		<g>
			<rect x="4372" y="508" width="22.9995" height="23" fill="#e62d39" />
		</g>
		<g>
			<text fill="#595959" font-family="Verdana,Open Sans,DejaVu Sans,sans-serif" font-weight="400" font-size="41" transform="matrix(1 0 0 1 4404.56 531)">Non-Crawler</text>
		</g>
	</g>
</svg>
