<svg width="1763" height="1046"
    xmlns="http://www.w3.org/2000/svg"
	xmlns:xlink="http://www.w3.org/1999/xlink" xml:space="preserve" overflow="hidden">
	<defs>
		<clipPath id="clip0">
			<rect x="2917" y="346" width="1763" height="1046"/>
		</clipPath>
	</defs>
	<g clip-path="url(#clip0)" transform="translate(-2917 -346)">
		<rect x="2918" y="347" width="1760" height="1043" fill="#FFFFFF" />
		<g>
			<path d="
			M3228.5 974.532 4296.5 974.532
			M3228.5 910.53 4296.5 910.53
			M3228.5 846.528 4296.5 846.528
			M3228.5 781.526 4296.5 781.526
			M3228.5 717.524 4296.5 717.524
			M3228.5 653.522 4296.5 653.522
			M3228.5 589.52 4296.5 589.52
			M3228.5 525.517 4296.5 525.517
			M3228.5 461.515 4296.5 461.515
			M3228.5 397.5 4296.5 397.5" stroke="#D9D9D9" stroke-width="3.4375" stroke-linejoin="round" stroke-miterlimit="10" fill="none" />
		</g>
		<g>
			<path d="M 1038.5 4296.5 1038.5" stroke="#D9D9D9" stroke-width="3.4375" stroke-linejoin="round" stroke-miterlimit="10" fill="none" fill-rule="evenodd" />
		</g>
		<g>
			<text fill="#595959" font-family="Verdana,sans-serif" font-weight="400" font-size="41" transform="matrix(6.12323e-17 -1 1 6.12323e-17 3244.5 1222)">25-Dec</text>
		</g>
		<g>
			<text fill="#595959" font-family="Verdana,sans-serif" font-weight="400" font-size="41" transform="matrix(6.12323e-17 -1 1 6.12323e-17 3328.264705882353 1210)">22-Jan</text>
		</g>
		<g>
			<text fill="#595959" font-family="Verdana,sans-serif" font-weight="400" font-size="41" transform="matrix(6.12323e-17 -1 1 6.12323e-17 3412.029411764706 1214)">19-Feb</text>
		</g>
		<g>
			<text fill="#595959" font-family="Verdana,sans-serif" font-weight="400" font-size="41" transform="matrix(6.12323e-17 -1 1 6.12323e-17 3495.794117647059 1221)">18-Mar</text>
		</g>
		<g>
			<text fill="#595959" font-family="Verdana,sans-serif" font-weight="400" font-size="41" transform="matrix(6.12323e-17 -1 1 6.12323e-17 3583.0588235294117 1214)">15-Apr</text>
		</g>
		<g>
			<text fill="#595959" font-family="Verdana,sans-serif" font-weight="400" font-size="41" transform="matrix(6.12323e-17 -1 1 6.12323e-17 3666.823529411765 1226)">13-May</text>
		</g>
		<g>
			<text fill="#595959" font-family="Verdana,sans-serif" font-weight="400" font-size="41" transform="matrix(6.12323e-17 -1 1 6.12323e-17 3747.0882352941176 1209)">10-Jun</text>
		</g>
		<g>
			<text fill="#595959" font-family="Verdana,sans-serif" font-weight="400" font-size="41" transform="matrix(6.12323e-17 -1 1 6.12323e-17 3830.8529411764707 1197)">08-Jul</text>
		</g>
		<g>
			<text fill="#595959" font-family="Verdana,sans-serif" font-weight="400" font-size="41" transform="matrix(6.12323e-17 -1 1 6.12323e-17 3918.1176470588234 1221)">05-Aug</text>
		</g>
		<g>
			<text fill="#595959" font-family="Verdana,sans-serif" font-weight="400" font-size="41" transform="matrix(6.12323e-17 -1 1 6.12323e-17 4001.8823529411766 1222)">02-Sep</text>
		</g>
		<g>
			<text fill="#595959" font-family="Verdana,sans-serif" font-weight="400" font-size="41" transform="matrix(6.12323e-17 -1 1 6.12323e-17 4085.6470588235293 1221)">30-Sep</text>
		</g>
		<g>
			<text fill="#595959" font-family="Verdana,sans-serif" font-weight="400" font-size="41" transform="matrix(6.12323e-17 -1 1 6.12323e-17 4165.911764705882 1215)">28-Oct</text>
		</g>
		<g>
			<text fill="#595959" font-family="Verdana,sans-serif" font-weight="400" font-size="41" transform="matrix(6.12323e-17 -1 1 6.12323e-17 4249.676470588235 1224)">25-Nov</text>
		</g>
		<g>
			<text fill="#595959" font-family="Verdana,sans-serif" font-weight="400" font-size="41" transform="matrix(1 0 0 1 3167.5 1050)">0</text>
		</g>
		<g>
			<text fill="#595959" font-family="Verdana,sans-serif" font-weight="400" font-size="41" transform="matrix(1 0 0 1 3142.5 922)">61</text>
		</g>
		<g>
			<text fill="#595959" font-family="Verdana,sans-serif" font-weight="400" font-size="41" transform="matrix(1 0 0 1 3118.5 794)">122</text>
		</g>
		<g>
			<text fill="#595959" font-family="Verdana,sans-serif" font-weight="400" font-size="41" transform="matrix(1 0 0 1 3118.5 666)">183</text>
		</g>
		<g>
			<text fill="#595959" font-family="Verdana,sans-serif" font-weight="400" font-size="41" transform="matrix(1 0 0 1 3115.5 538)">244</text>
		</g>
		<g>
			<text fill="#595959" font-family="Verdana,sans-serif" font-weight="400" font-size="41" transform="matrix(1 0 0 1 3116.5 410)">305</text>
		</g>
		<g>
			<text fill="#595959" font-family="Verdana,sans-serif" font-weight="400" font-size="41" transform="matrix(1 0 0 1 3544.5 1321)">Week Commencing</text>
		</g>
		<g>
			<text fill="#595959" font-family="Verdana,sans-serif" font-weight="400" font-size="46" transform="matrix(6.12323e-17 -1 1 6.12323e-17 3019.73 1024.75)">Number of Crawler Profiles</text>
		</g>
		<rect x="2918.5" y="347.5" width="1760" height="1043" stroke="#D9D9D9" stroke-width="3.4375" stroke-linejoin="round" stroke-miterlimit="10" fill="none" />
		<g>
			<path d="M3228.5 1038 3249.4411764705883 1038 3270.3823529411766 1038 3291.323529411765 1038 3312.264705882353 1038 3333.205882352941 1038 3354.1470588235293 1038 3375.0882352941176 1038 3396.029411764706 1038 3416.970588235294 1038 3437.9117647058824 1038 3458.8529411764707 1038 3479.794117647059 1038 3500.735294117647 1038 3521.676470588235 1038 3542.6176470588234 1038 3563.5588235294117 1038 3584.5 1038 3605.4411764705883 1038 3626.3823529411766 1038 3647.323529411765 1038 3668.264705882353 1038 3689.205882352941 1038 3710.1470588235293 1038 3731.0882352941176 1038 3752.029411764706 1038 3772.970588235294 1038 3793.9117647058824 1038 3814.8529411764707 1038 3835.7941176470586 1038 3856.735294117647 1038 3877.676470588235 1038 3898.6176470588234 1038 3919.5588235294117 1038 3940.5 1038 3961.4411764705883 1038 3982.3823529411766 1038 4003.323529411765 1038 4024.264705882353 1038 4045.2058823529414 1038 4066.1470588235293 1038 4087.0882352941176 1038 4108.029411764706 1038 4128.970588235294 1038 4149.911764705882 1038 4170.85294117647 1038 4191.794117647059 1038 4212.735294117647 1038 4233.676470588235 1038 4254.617647058823 1038 4275.558823529412 1038 4296.5 1038 4296.5 400.0983606557377 4275.558823529412 404.29508196721304 4254.617647058823 406.39344262295083 4233.676470588235 412.68852459016387 4212.735294117647 421.0819672131147 4191.794117647059 433.672131147541 4170.85294117647 439.96721311475403 4149.911764705882 439.96721311475403 4128.970588235294 437.86885245901635 4108.029411764706 442.0655737704918 4087.0882352941176 448.36065573770486 4066.1470588235293 456.7540983606557 4045.2058823529414 456.7540983606557 4024.264705882353 458.85245901639337 4003.323529411765 469.344262295082 3982.3823529411766 473.54098360655735 3961.4411764705883 477.7377049180327 3940.5 477.7377049180327 3919.5588235294117 481.9344262295082 3898.6176470588234 481.9344262295082 3877.676470588235 484.03278688524586 3856.735294117647 486.13114754098353 3835.7941176470586 494.52459016393436 3814.8529411764707 500.8196721311475 3793.9117647058824 509.21311475409834 3772.970588235294 515.5081967213115 3752.029411764706 526 3731.0882352941176 530.1967213114754 3710.1470588235293 530.1967213114754 3689.205882352941 530.1967213114754 3668.264705882353 532.295081967213 3647.323529411765 536.4918032786885 3626.3823529411766 544.8852459016393 3605.4411764705883 549.0819672131147 3584.5 551.1803278688524 3563.5588235294117 551.1803278688524 3542.6176470588234 559.5737704918033 3521.676470588235 559.5737704918033 3500.735294117647 570.0655737704917 3479.794117647059 591.0491803278688 3458.8529411764707 595.2459016393443 3437.9117647058824 599.4426229508197 3416.970588235294 609.9344262295082 3396.029411764706 612.0327868852459 3375.0882352941176 612.0327868852459 3354.1470588235293 614.1311475409836 3333.205882352941 618.327868852459 3312.264705882353 628.8196721311475 3291.323529411765 630.9180327868853 3270.3823529411766 630.9180327868853 3249.4411764705883 635.1147540983607 3228.5 635.1147540983607 3228.5 1038Z" fill="#005aa6" opacity="0.9" />
		</g>
		<g>
			<path d="M3228.5 635.1147540983607 3249.4411764705883 635.1147540983607 3270.3823529411766 630.9180327868853 3291.323529411765 630.9180327868853 3312.264705882353 628.8196721311475 3333.205882352941 618.327868852459 3354.1470588235293 614.1311475409836 3375.0882352941176 612.0327868852459 3396.029411764706 612.0327868852459 3416.970588235294 609.9344262295082 3437.9117647058824 599.4426229508197 3458.8529411764707 595.2459016393443 3479.794117647059 591.0491803278688 3500.735294117647 570.0655737704917 3521.676470588235 559.5737704918033 3542.6176470588234 559.5737704918033 3563.5588235294117 551.1803278688524 3584.5 551.1803278688524 3605.4411764705883 549.0819672131147 3626.3823529411766 544.8852459016393 3647.323529411765 536.4918032786885 3668.264705882353 532.295081967213 3689.205882352941 530.1967213114754 3710.1470588235293 530.1967213114754 3731.0882352941176 530.1967213114754 3752.029411764706 526 3772.970588235294 515.5081967213115 3793.9117647058824 509.21311475409834 3814.8529411764707 500.8196721311475 3835.7941176470586 494.52459016393436 3856.735294117647 486.13114754098353 3877.676470588235 484.03278688524586 3898.6176470588234 481.9344262295082 3919.5588235294117 481.9344262295082 3940.5 477.7377049180327 3961.4411764705883 477.7377049180327 3982.3823529411766 473.54098360655735 4003.323529411765 469.344262295082 4024.264705882353 458.85245901639337 4045.2058823529414 456.7540983606557 4066.1470588235293 456.7540983606557 4087.0882352941176 448.36065573770486 4108.029411764706 442.0655737704918 4128.970588235294 437.86885245901635 4149.911764705882 439.96721311475403 4170.85294117647 439.96721311475403 4191.794117647059 433.672131147541 4212.735294117647 421.0819672131147 4233.676470588235 412.68852459016387 4254.617647058823 406.39344262295083 4275.558823529412 404.29508196721304 4296.5 400.0983606557377 4296.5 398 4275.558823529412 402.19672131147536 4254.617647058823 404.29508196721315 4233.676470588235 410.5901639344262 4212.735294117647 418.983606557377 4191.794117647059 431.5737704918033 4170.85294117647 437.86885245901635 4149.911764705882 437.86885245901635 4128.970588235294 435.7704918032787 4108.029411764706 439.96721311475414 4087.0882352941176 446.2622950819672 4066.1470588235293 454.655737704918 4045.2058823529414 454.655737704918 4024.264705882353 456.7540983606557 4003.323529411765 467.2459016393443 3982.3823529411766 471.44262295081967 3961.4411764705883 475.639344262295 3940.5 475.639344262295 3919.5588235294117 479.8360655737705 3898.6176470588234 479.8360655737705 3877.676470588235 481.9344262295082 3856.735294117647 484.03278688524586 3835.7941176470586 492.4262295081967 3814.8529411764707 498.72131147540983 3793.9117647058824 507.11475409836066 3772.970588235294 513.4098360655738 3752.029411764706 523.9016393442623 3731.0882352941176 528.0983606557377 3710.1470588235293 528.0983606557377 3689.205882352941 528.0983606557377 3668.264705882353 530.1967213114754 3647.323529411765 534.3934426229508 3626.3823529411766 542.7868852459017 3605.4411764705883 546.983606557377 3584.5 549.0819672131147 3563.5588235294117 549.0819672131147 3542.6176470588234 557.4754098360656 3521.676470588235 557.4754098360656 3500.735294117647 567.967213114754 3479.794117647059 588.9508196721312 3458.8529411764707 593.1475409836066 3437.9117647058824 597.344262295082 3416.970588235294 607.8360655737705 3396.029411764706 609.9344262295082 3375.0882352941176 609.9344262295082 3354.1470588235293 612.032786885246 3333.205882352941 616.2295081967213 3312.264705882353 626.7213114754098 3291.323529411765 628.8196721311476 3270.3823529411766 628.8196721311476 3249.4411764705883 633.016393442623 3228.5 633.016393442623 3228.5 635.1147540983607Z" fill="#e62d39" opacity="0.9" />
		</g>
		<g>
			<rect x="4372" y="431" width="22.9995" height="23" fill="#005aa6" />
		</g>
		<g>
			<text fill="#595959" font-family="Verdana,sans-serif" font-weight="400" font-size="41" transform="matrix(1 0 0 1 4404.56 454)">Crawler</text>
		</g>
		<g>
			<rect x="4372" y="508" width="22.9995" height="23" fill="#e62d39" />
		</g>
		<g>
			<text fill="#595959" font-family="Verdana,sans-serif" font-weight="400" font-size="41" transform="matrix(1 0 0 1 4404.56 531)">Non-Crawler</text>
		</g>
	</g>
</svg>
