<svg width="1763" height="1046"
    xmlns="http://www.w3.org/2000/svg"
	xmlns:xlink="http://www.w3.org/1999/xlink" xml:space="preserve" overflow="hidden">
	<defs>
		<clipPath id="clip0">
			<rect x="2917" y="346" width="1763" height="1046"/>
		</clipPath>
	</defs>
	<g clip-path="url(#clip0)" transform="translate(-2917 -346)">
		<rect x="2918" y="347" width="1760" height="1043" fill="#FFFFFF" />
		<g>
			<path d="
			M3228.5 974.532 4296.5 974.532
			M3228.5 910.53 4296.5 910.53
			M3228.5 846.528 4296.5 846.528
			M3228.5 781.526 4296.5 781.526
			M3228.5 717.524 4296.5 717.524
			M3228.5 653.522 4296.5 653.522
			M3228.5 589.52 4296.5 589.52
			M3228.5 525.517 4296.5 525.517
			M3228.5 461.515 4296.5 461.515
			M3228.5 397.5 4296.5 397.5" stroke="#D9D9D9" stroke-width="3.4375" stroke-linejoin="round" stroke-miterlimit="10" fill="none" />
		</g>
		<g>
			<path d="M 1038.5 4296.5 1038.5" stroke="#D9D9D9" stroke-width="3.4375" stroke-linejoin="round" stroke-miterlimit="10" fill="none" fill-rule="evenodd" />
		</g>
		<g>
			<text fill="#595959" font-family="Verdana,sans-serif" font-weight="400" font-size="41" transform="matrix(6.12323e-17 -1 1 6.12323e-17 3244.5 1210)">22-Jan</text>
		</g>
		<g>
			<text fill="#595959" font-family="Verdana,sans-serif" font-weight="400" font-size="41" transform="matrix(6.12323e-17 -1 1 6.12323e-17 3328.264705882353 1214)">19-Feb</text>
		</g>
		<g>
			<text fill="#595959" font-family="Verdana,sans-serif" font-weight="400" font-size="41" transform="matrix(6.12323e-17 -1 1 6.12323e-17 3412.029411764706 1221)">18-Mar</text>
		</g>
		<g>
			<text fill="#595959" font-family="Verdana,sans-serif" font-weight="400" font-size="41" transform="matrix(6.12323e-17 -1 1 6.12323e-17 3499.294117647059 1214)">15-Apr</text>
		</g>
		<g>
			<text fill="#595959" font-family="Verdana,sans-serif" font-weight="400" font-size="41" transform="matrix(6.12323e-17 -1 1 6.12323e-17 3583.0588235294117 1226)">13-May</text>
		</g>
		<g>
			<text fill="#595959" font-family="Verdana,sans-serif" font-weight="400" font-size="41" transform="matrix(6.12323e-17 -1 1 6.12323e-17 3663.323529411765 1209)">10-Jun</text>
		</g>
		<g>
			<text fill="#595959" font-family="Verdana,sans-serif" font-weight="400" font-size="41" transform="matrix(6.12323e-17 -1 1 6.12323e-17 3747.0882352941176 1197)">08-Jul</text>
		</g>
		<g>
			<text fill="#595959" font-family="Verdana,sans-serif" font-weight="400" font-size="41" transform="matrix(6.12323e-17 -1 1 6.12323e-17 3834.3529411764707 1221)">05-Aug</text>
		</g>
		<g>
			<text fill="#595959" font-family="Verdana,sans-serif" font-weight="400" font-size="41" transform="matrix(6.12323e-17 -1 1 6.12323e-17 3918.1176470588234 1222)">02-Sep</text>
		</g>
		<g>
			<text fill="#595959" font-family="Verdana,sans-serif" font-weight="400" font-size="41" transform="matrix(6.12323e-17 -1 1 6.12323e-17 4001.8823529411766 1221)">30-Sep</text>
		</g>
		<g>
			<text fill="#595959" font-family="Verdana,sans-serif" font-weight="400" font-size="41" transform="matrix(6.12323e-17 -1 1 6.12323e-17 4082.1470588235293 1215)">28-Oct</text>
		</g>
		<g>
			<text fill="#595959" font-family="Verdana,sans-serif" font-weight="400" font-size="41" transform="matrix(6.12323e-17 -1 1 6.12323e-17 4165.911764705882 1224)">25-Nov</text>
		</g>
		<g>
			<text fill="#595959" font-family="Verdana,sans-serif" font-weight="400" font-size="41" transform="matrix(6.12323e-17 -1 1 6.12323e-17 4249.676470588235 1222)">30-Dec</text>
		</g>
		<g>
			<text fill="#595959" font-family="Verdana,sans-serif" font-weight="400" font-size="41" transform="matrix(1 0 0 1 3167.5 1050)">0</text>
		</g>
		<g>
			<text fill="#595959" font-family="Verdana,sans-serif" font-weight="400" font-size="41" transform="matrix(1 0 0 1 3141.5 922)">62</text>
		</g>
		<g>
			<text fill="#595959" font-family="Verdana,sans-serif" font-weight="400" font-size="41" transform="matrix(1 0 0 1 3118.5 794)">123</text>
		</g>
		<g>
			<text fill="#595959" font-family="Verdana,sans-serif" font-weight="400" font-size="41" transform="matrix(1 0 0 1 3118.5 666)">185</text>
		</g>
		<g>
			<text fill="#595959" font-family="Verdana,sans-serif" font-weight="400" font-size="41" transform="matrix(1 0 0 1 3115.5 538)">246</text>
		</g>
		<g>
			<text fill="#595959" font-family="Verdana,sans-serif" font-weight="400" font-size="41" transform="matrix(1 0 0 1 3115.5 410)">308</text>
		</g>
		<g>
			<text fill="#595959" font-family="Verdana,sans-serif" font-weight="400" font-size="41" transform="matrix(1 0 0 1 3544.5 1321)">Week Commencing</text>
		</g>
		<g>
			<text fill="#595959" font-family="Verdana,sans-serif" font-weight="400" font-size="46" transform="matrix(6.12323e-17 -1 1 6.12323e-17 3019.73 1024.75)">Number of Crawler Profiles</text>
		</g>
		<rect x="2918.5" y="347.5" width="1760" height="1043" stroke="#D9D9D9" stroke-width="3.4375" stroke-linejoin="round" stroke-miterlimit="10" fill="none" />
		<g>
			<path d="M3228.5 1038 3249.4411764705883 1038 3270.3823529411766 1038 3291.323529411765 1038 3312.264705882353 1038 3333.205882352941 1038 3354.1470588235293 1038 3375.0882352941176 1038 3396.029411764706 1038 3416.970588235294 1038 3437.9117647058824 1038 3458.8529411764707 1038 3479.794117647059 1038 3500.735294117647 1038 3521.676470588235 1038 3542.6176470588234 1038 3563.5588235294117 1038 3584.5 1038 3605.4411764705883 1038 3626.3823529411766 1038 3647.323529411765 1038 3668.264705882353 1038 3689.205882352941 1038 3710.1470588235293 1038 3731.0882352941176 1038 3752.029411764706 1038 3772.970588235294 1038 3793.9117647058824 1038 3814.8529411764707 1038 3835.7941176470586 1038 3856.735294117647 1038 3877.676470588235 1038 3898.6176470588234 1038 3919.5588235294117 1038 3940.5 1038 3961.4411764705883 1038 3982.3823529411766 1038 4003.323529411765 1038 4024.264705882353 1038 4045.2058823529414 1038 4066.1470588235293 1038 4087.0882352941176 1038 4108.029411764706 1038 4128.970588235294 1038 4149.911764705882 1038 4170.85294117647 1038 4191.794117647059 1038 4212.735294117647 1038 4233.676470588235 1038 4254.617647058823 1038 4275.558823529412 1038 4296.5 1038 4296.5 400.07792207792215 4275.558823529412 404.23376623376635 4254.617647058823 406.3116883116884 4233.676470588235 406.3116883116884 4212.735294117647 406.3116883116884 4191.794117647059 410.4675324675326 4170.85294117647 412.5454545454546 4149.911764705882 418.77922077922085 4128.970588235294 427.0909090909091 4108.029411764706 439.5584415584416 4087.0882352941176 445.7922077922078 4066.1470588235293 445.7922077922078 4045.2058823529414 443.7142857142858 4024.264705882353 447.87012987013 4003.323529411765 454.1038961038962 3982.3823529411766 462.4155844155845 3961.4411764705883 462.4155844155845 3940.5 464.4935064935065 3919.5588235294117 474.88311688311694 3898.6176470588234 479.03896103896113 3877.676470588235 483.1948051948052 3856.735294117647 483.1948051948052 3835.7941176470586 487.3506493506494 3814.8529411764707 487.3506493506494 3793.9117647058824 489.42857142857144 3772.970588235294 491.5064935064936 3752.029411764706 499.81818181818187 3731.0882352941176 506.0519480519481 3710.1470588235293 514.3636363636364 3689.205882352941 520.5974025974026 3668.264705882353 530.987012987013 3647.323529411765 535.1428571428571 3626.3823529411766 535.1428571428571 3605.4411764705883 535.1428571428571 3584.5 537.2207792207793 3563.5588235294117 541.3766233766235 3542.6176470588234 549.6883116883117 3521.676470588235 553.8441558441559 3500.735294117647 555.922077922078 3479.794117647059 555.922077922078 3458.8529411764707 564.2337662337663 3437.9117647058824 564.2337662337663 3416.970588235294 574.6233766233767 3396.029411764706 595.4025974025974 3375.0882352941176 599.5584415584416 3354.1470588235293 603.7142857142858 3333.205882352941 614.1038961038962 3312.264705882353 616.1818181818182 3291.323529411765 616.1818181818182 3270.3823529411766 618.2597402597403 3249.4411764705883 622.4155844155845 3228.5 632.8051948051948 3228.5 1038Z" fill="#005aa6" opacity="0.9" />
		</g>
		<g>
			<path d="M3228.5 632.8051948051948 3249.4411764705883 622.4155844155845 3270.3823529411766 618.2597402597403 3291.323529411765 616.1818181818182 3312.264705882353 616.1818181818182 3333.205882352941 614.1038961038962 3354.1470588235293 603.7142857142858 3375.0882352941176 599.5584415584416 3396.029411764706 595.4025974025974 3416.970588235294 574.6233766233767 3437.9117647058824 564.2337662337663 3458.8529411764707 564.2337662337663 3479.794117647059 555.922077922078 3500.735294117647 555.922077922078 3521.676470588235 553.8441558441559 3542.6176470588234 549.6883116883117 3563.5588235294117 541.3766233766235 3584.5 537.2207792207793 3605.4411764705883 535.1428571428571 3626.3823529411766 535.1428571428571 3647.323529411765 535.1428571428571 3668.264705882353 530.987012987013 3689.205882352941 520.5974025974026 3710.1470588235293 514.3636363636364 3731.0882352941176 506.0519480519481 3752.029411764706 499.81818181818187 3772.970588235294 491.5064935064936 3793.9117647058824 489.42857142857144 3814.8529411764707 487.3506493506494 3835.7941176470586 487.3506493506494 3856.735294117647 483.1948051948052 3877.676470588235 483.1948051948052 3898.6176470588234 479.03896103896113 3919.5588235294117 474.88311688311694 3940.5 464.4935064935065 3961.4411764705883 462.4155844155845 3982.3823529411766 462.4155844155845 4003.323529411765 454.1038961038962 4024.264705882353 447.87012987013 4045.2058823529414 443.7142857142858 4066.1470588235293 445.7922077922078 4087.0882352941176 445.7922077922078 4108.029411764706 439.5584415584416 4128.970588235294 427.0909090909091 4149.911764705882 418.77922077922085 4170.85294117647 412.5454545454546 4191.794117647059 410.4675324675326 4212.735294117647 406.3116883116884 4233.676470588235 406.3116883116884 4254.617647058823 406.3116883116884 4275.558823529412 404.23376623376635 4296.5 400.07792207792215 4296.5 398.00000000000006 4275.558823529412 402.15584415584425 4254.617647058823 404.2337662337663 4233.676470588235 404.2337662337663 4212.735294117647 404.2337662337663 4191.794117647059 408.3896103896105 4170.85294117647 410.4675324675325 4149.911764705882 416.70129870129875 4128.970588235294 425.012987012987 4108.029411764706 437.4805194805195 4087.0882352941176 443.7142857142857 4066.1470588235293 443.7142857142857 4045.2058823529414 441.6363636363637 4024.264705882353 445.7922077922079 4003.323529411765 452.0259740259741 3982.3823529411766 460.3376623376624 3961.4411764705883 460.3376623376624 3940.5 462.4155844155844 3919.5588235294117 472.80519480519484 3898.6176470588234 476.96103896103904 3877.676470588235 481.1168831168831 3856.735294117647 481.1168831168831 3835.7941176470586 485.2727272727273 3814.8529411764707 485.2727272727273 3793.9117647058824 487.35064935064935 3772.970588235294 489.4285714285715 3752.029411764706 497.7402597402598 3731.0882352941176 503.974025974026 3710.1470588235293 512.2857142857143 3689.205882352941 518.5194805194806 3668.264705882353 528.909090909091 3647.323529411765 533.0649350649351 3626.3823529411766 533.0649350649351 3605.4411764705883 533.0649350649351 3584.5 535.1428571428572 3563.5588235294117 539.2987012987014 3542.6176470588234 547.6103896103897 3521.676470588235 551.7662337662339 3500.735294117647 553.8441558441559 3479.794117647059 553.8441558441559 3458.8529411764707 562.1558441558443 3437.9117647058824 562.1558441558443 3416.970588235294 572.5454545454546 3396.029411764706 593.3246753246754 3375.0882352941176 597.4805194805195 3354.1470588235293 601.6363636363637 3333.205882352941 612.0259740259742 3312.264705882353 614.1038961038962 3291.323529411765 614.1038961038962 3270.3823529411766 616.1818181818182 3249.4411764705883 620.3376623376624 3228.5 630.7272727272727 3228.5 632.8051948051948Z" fill="#e62d39" opacity="0.9" />
		</g>
		<g>
			<rect x="4372" y="431" width="22.9995" height="23" fill="#005aa6" />
		</g>
		<g>
			<text fill="#595959" font-family="Verdana,sans-serif" font-weight="400" font-size="41" transform="matrix(1 0 0 1 4404.56 454)">Crawler</text>
		</g>
		<g>
			<rect x="4372" y="508" width="22.9995" height="23" fill="#e62d39" />
		</g>
		<g>
			<text fill="#595959" font-family="Verdana,sans-serif" font-weight="400" font-size="41" transform="matrix(1 0 0 1 4404.56 531)">Non-Crawler</text>
		</g>
	</g>
</svg>
