<svg width="1763" height="1046"
    xmlns="http://www.w3.org/2000/svg"
	xmlns:xlink="http://www.w3.org/1999/xlink" xml:space="preserve" overflow="hidden">
	<defs>
		<clipPath id="clip0">
			<rect x="2917" y="346" width="1763" height="1046"/>
		</clipPath>
	</defs>
	<g clip-path="url(#clip0)" transform="translate(-2917 -346)">
		<rect x="2918" y="347" width="1760" height="1043" fill="#FFFFFF" />
		<g>
			<path d="
			M3228.5 974.532 4296.5 974.532
			M3228.5 910.53 4296.5 910.53
			M3228.5 846.528 4296.5 846.528
			M3228.5 781.526 4296.5 781.526
			M3228.5 717.524 4296.5 717.524
			M3228.5 653.522 4296.5 653.522
			M3228.5 589.52 4296.5 589.52
			M3228.5 525.517 4296.5 525.517
			M3228.5 461.515 4296.5 461.515
			M3228.5 397.5 4296.5 397.5" stroke="#D9D9D9" stroke-width="3.4375" stroke-linejoin="round" stroke-miterlimit="10" fill="none" />
		</g>
		<g>
			<path d="M 1038.5 4296.5 1038.5" stroke="#D9D9D9" stroke-width="3.4375" stroke-linejoin="round" stroke-miterlimit="10" fill="none" fill-rule="evenodd" />
		</g>
		<g>
			<text fill="#595959" font-family="Verdana,sans-serif" font-weight="400" font-size="41" transform="matrix(6.12323e-17 -1 1 6.12323e-17 3244.5 1217)">05-Feb</text>
		</g>
		<g>
			<text fill="#595959" font-family="Verdana,sans-serif" font-weight="400" font-size="41" transform="matrix(6.12323e-17 -1 1 6.12323e-17 3328.264705882353 1223)">04-Mar</text>
		</g>
		<g>
			<text fill="#595959" font-family="Verdana,sans-serif" font-weight="400" font-size="41" transform="matrix(6.12323e-17 -1 1 6.12323e-17 3415.529411764706 1217)">01-Apr</text>
		</g>
		<g>
			<text fill="#595959" font-family="Verdana,sans-serif" font-weight="400" font-size="41" transform="matrix(6.12323e-17 -1 1 6.12323e-17 3499.294117647059 1216)">29-Apr</text>
		</g>
		<g>
			<text fill="#595959" font-family="Verdana,sans-serif" font-weight="400" font-size="41" transform="matrix(6.12323e-17 -1 1 6.12323e-17 3583.0588235294117 1228)">27-May</text>
		</g>
		<g>
			<text fill="#595959" font-family="Verdana,sans-serif" font-weight="400" font-size="41" transform="matrix(6.12323e-17 -1 1 6.12323e-17 3663.323529411765 1211)">24-Jun</text>
		</g>
		<g>
			<text fill="#595959" font-family="Verdana,sans-serif" font-weight="400" font-size="41" transform="matrix(6.12323e-17 -1 1 6.12323e-17 3747.0882352941176 1196)">22-Jul</text>
		</g>
		<g>
			<text fill="#595959" font-family="Verdana,sans-serif" font-weight="400" font-size="41" transform="matrix(6.12323e-17 -1 1 6.12323e-17 3834.3529411764707 1218)">19-Aug</text>
		</g>
		<g>
			<text fill="#595959" font-family="Verdana,sans-serif" font-weight="400" font-size="41" transform="matrix(6.12323e-17 -1 1 6.12323e-17 3918.1176470588234 1219)">16-Sep</text>
		</g>
		<g>
			<text fill="#595959" font-family="Verdana,sans-serif" font-weight="400" font-size="41" transform="matrix(6.12323e-17 -1 1 6.12323e-17 3998.3823529411766 1213)">14-Oct</text>
		</g>
		<g>
			<text fill="#595959" font-family="Verdana,sans-serif" font-weight="400" font-size="41" transform="matrix(6.12323e-17 -1 1 6.12323e-17 4081.6470588235293 1222)">11-Nov</text>
		</g>
		<g>
			<text fill="#595959" font-family="Verdana,sans-serif" font-weight="400" font-size="41" transform="matrix(6.12323e-17 -1 1 6.12323e-17 4165.411764705882 1220)">16-Dec</text>
		</g>
		<g>
			<text fill="#595959" font-family="Verdana,sans-serif" font-weight="400" font-size="41" transform="matrix(6.12323e-17 -1 1 6.12323e-17 4249.676470588235 1207)">13-Jan</text>
		</g>
		<g>
			<text fill="#595959" font-family="Verdana,sans-serif" font-weight="400" font-size="41" transform="matrix(1 0 0 1 3167.5 1050)">0</text>
		</g>
		<g>
			<text fill="#595959" font-family="Verdana,sans-serif" font-weight="400" font-size="41" transform="matrix(1 0 0 1 3141.5 922)">62</text>
		</g>
		<g>
			<text fill="#595959" font-family="Verdana,sans-serif" font-weight="400" font-size="41" transform="matrix(1 0 0 1 3117.5 794)">124</text>
		</g>
		<g>
			<text fill="#595959" font-family="Verdana,sans-serif" font-weight="400" font-size="41" transform="matrix(1 0 0 1 3118.5 666)">185</text>
		</g>
		<g>
			<text fill="#595959" font-family="Verdana,sans-serif" font-weight="400" font-size="41" transform="matrix(1 0 0 1 3115.5 538)">247</text>
		</g>
		<g>
			<text fill="#595959" font-family="Verdana,sans-serif" font-weight="400" font-size="41" transform="matrix(1 0 0 1 3115.5 410)">309</text>
		</g>
		<g>
			<text fill="#595959" font-family="Verdana,sans-serif" font-weight="400" font-size="41" transform="matrix(1 0 0 1 3544.5 1321)">Week Commencing</text>
		</g>
		<g>
			<text fill="#595959" font-family="Verdana,sans-serif" font-weight="400" font-size="46" transform="matrix(6.12323e-17 -1 1 6.12323e-17 3019.73 1024.75)">Number of Crawler Profiles</text>
		</g>
		<rect x="2918.5" y="347.5" width="1760" height="1043" stroke="#D9D9D9" stroke-width="3.4375" stroke-linejoin="round" stroke-miterlimit="10" fill="none" />
		<g>
			<path d="M3228.5 1038 3249.4411764705883 1038 3270.3823529411766 1038 3291.323529411765 1038 3312.264705882353 1038 3333.205882352941 1038 3354.1470588235293 1038 3375.0882352941176 1038 3396.029411764706 1038 3416.970588235294 1038 3437.9117647058824 1038 3458.8529411764707 1038 3479.794117647059 1038 3500.735294117647 1038 3521.676470588235 1038 3542.6176470588234 1038 3563.5588235294117 1038 3584.5 1038 3605.4411764705883 1038 3626.3823529411766 1038 3647.323529411765 1038 3668.264705882353 1038 3689.205882352941 1038 3710.1470588235293 1038 3731.0882352941176 1038 3752.029411764706 1038 3772.970588235294 1038 3793.9117647058824 1038 3814.8529411764707 1038 3835.7941176470586 1038 3856.735294117647 1038 3877.676470588235 1038 3898.6176470588234 1038 3919.5588235294117 1038 3940.5 1038 3961.4411764705883 1038 3982.3823529411766 1038 4003.323529411765 1038 4024.264705882353 1038 4045.2058823529414 1038 4066.1470588235293 1038 4087.0882352941176 1038 4108.029411764706 1038 4128.970588235294 1038 4149.911764705882 1038 4170.85294117647 1038 4191.794117647059 1038 4212.735294117647 1038 4233.676470588235 1038 4254.617647058823 1038 4275.558823529412 1038 4296.5 1038 4296.5 400.07119741100325 4275.558823529412 402.1423948220065 4254.617647058823 402.1423948220065 4233.676470588235 406.284789644013 4212.735294117647 408.35598705501627 4191.794117647059 408.35598705501627 4170.85294117647 408.35598705501627 4149.911764705882 412.49838187702267 4128.970588235294 414.5695792880259 4108.029411764706 420.7831715210357 4087.0882352941176 429.0679611650486 4066.1470588235293 441.495145631068 4045.2058823529414 447.70873786407776 4024.264705882353 447.70873786407776 4003.323529411765 445.6375404530745 3982.3823529411766 449.7799352750809 3961.4411764705883 455.99352750809066 3940.5 464.27831715210357 3919.5588235294117 464.27831715210357 3898.6176470588234 466.3495145631068 3877.676470588235 476.705501618123 3856.735294117647 480.8478964401295 3835.7941176470586 484.990291262136 3814.8529411764707 484.990291262136 3793.9117647058824 489.1326860841424 3772.970588235294 489.1326860841424 3752.029411764706 491.20388349514565 3731.0882352941176 493.2750809061489 3710.1470588235293 501.5598705501618 3689.205882352941 507.77346278317157 3668.264705882353 516.0582524271845 3647.323529411765 522.2718446601942 3626.3823529411766 532.6278317152104 3605.4411764705883 536.7702265372169 3584.5 536.7702265372169 3563.5588235294117 536.7702265372169 3542.6176470588234 538.8414239482202 3521.676470588235 542.9838187702267 3500.735294117647 551.2686084142395 3479.794117647059 555.411003236246 3458.8529411764707 557.4822006472492 3437.9117647058824 557.4822006472492 3416.970588235294 565.7669902912621 3396.029411764706 565.7669902912621 3375.0882352941176 576.1229773462783 3354.1470588235293 596.8349514563107 3333.205882352941 600.9773462783172 3312.264705882353 605.1197411003236 3291.323529411765 615.4757281553398 3270.3823529411766 617.5469255663431 3249.4411764705883 617.5469255663431 3228.5 619.6181229773463 3228.5 1038Z" fill="#005aa6" opacity="0.9" />
		</g>
		<g>
			<path d="M3228.5 619.6181229773463 3249.4411764705883 617.5469255663431 3270.3823529411766 617.5469255663431 3291.323529411765 615.4757281553398 3312.264705882353 605.1197411003236 3333.205882352941 600.9773462783172 3354.1470588235293 596.8349514563107 3375.0882352941176 576.1229773462783 3396.029411764706 565.7669902912621 3416.970588235294 565.7669902912621 3437.9117647058824 557.4822006472492 3458.8529411764707 557.4822006472492 3479.794117647059 555.411003236246 3500.735294117647 551.2686084142395 3521.676470588235 542.9838187702267 3542.6176470588234 538.8414239482202 3563.5588235294117 536.7702265372169 3584.5 536.7702265372169 3605.4411764705883 536.7702265372169 3626.3823529411766 532.6278317152104 3647.323529411765 522.2718446601942 3668.264705882353 516.0582524271845 3689.205882352941 507.77346278317157 3710.1470588235293 501.5598705501618 3731.0882352941176 493.2750809061489 3752.029411764706 491.20388349514565 3772.970588235294 489.1326860841424 3793.9117647058824 489.1326860841424 3814.8529411764707 484.990291262136 3835.7941176470586 484.990291262136 3856.735294117647 480.8478964401295 3877.676470588235 476.705501618123 3898.6176470588234 466.3495145631068 3919.5588235294117 464.27831715210357 3940.5 464.27831715210357 3961.4411764705883 455.99352750809066 3982.3823529411766 449.7799352750809 4003.323529411765 445.6375404530745 4024.264705882353 447.70873786407776 4045.2058823529414 447.70873786407776 4066.1470588235293 441.495145631068 4087.0882352941176 429.0679611650486 4108.029411764706 420.7831715210357 4128.970588235294 414.5695792880259 4149.911764705882 412.49838187702267 4170.85294117647 408.35598705501627 4191.794117647059 408.35598705501627 4212.735294117647 408.35598705501627 4233.676470588235 406.284789644013 4254.617647058823 402.1423948220065 4275.558823529412 402.1423948220065 4296.5 400.07119741100325 4296.5 398 4275.558823529412 400.07119741100325 4254.617647058823 400.07119741100325 4233.676470588235 404.21359223300976 4212.735294117647 406.284789644013 4191.794117647059 406.284789644013 4170.85294117647 406.284789644013 4149.911764705882 410.4271844660194 4128.970588235294 412.49838187702267 4108.029411764706 418.71197411003243 4087.0882352941176 426.99676375404533 4066.1470588235293 439.42394822006474 4045.2058823529414 445.6375404530745 4024.264705882353 445.6375404530745 4003.323529411765 443.56634304207125 3982.3823529411766 447.70873786407765 3961.4411764705883 453.9223300970874 3940.5 462.2071197411003 3919.5588235294117 462.2071197411003 3898.6176470588234 464.27831715210357 3877.676470588235 474.6343042071197 3856.735294117647 478.77669902912623 3835.7941176470586 482.91909385113274 3814.8529411764707 482.91909385113274 3793.9117647058824 487.06148867313914 3772.970588235294 487.06148867313914 3752.029411764706 489.1326860841424 3731.0882352941176 491.20388349514565 3710.1470588235293 499.48867313915855 3689.205882352941 505.7022653721683 3668.264705882353 513.9870550161812 3647.323529411765 520.200647249191 3626.3823529411766 530.5566343042071 3605.4411764705883 534.6990291262136 3584.5 534.6990291262136 3563.5588235294117 534.6990291262136 3542.6176470588234 536.7702265372169 3521.676470588235 540.9126213592234 3500.735294117647 549.1974110032362 3479.794117647059 553.3398058252427 3458.8529411764707 555.411003236246 3437.9117647058824 555.411003236246 3416.970588235294 563.6957928802589 3396.029411764706 563.6957928802589 3375.0882352941176 574.051779935275 3354.1470588235293 594.7637540453075 3333.205882352941 598.906148867314 3312.264705882353 603.0485436893204 3291.323529411765 613.4045307443365 3270.3823529411766 615.4757281553399 3249.4411764705883 615.4757281553399 3228.5 617.546925566343 3228.5 619.6181229773463Z" fill="#e62d39" opacity="0.9" />
		</g>
		<g>
			<rect x="4372" y="431" width="22.9995" height="23" fill="#005aa6" />
		</g>
		<g>
			<text fill="#595959" font-family="Verdana,sans-serif" font-weight="400" font-size="41" transform="matrix(1 0 0 1 4404.56 454)">Crawler</text>
		</g>
		<g>
			<rect x="4372" y="508" width="22.9995" height="23" fill="#e62d39" />
		</g>
		<g>
			<text fill="#595959" font-family="Verdana,sans-serif" font-weight="400" font-size="41" transform="matrix(1 0 0 1 4404.56 531)">Non-Crawler</text>
		</g>
	</g>
</svg>
