<svg width="1763" height="1046"
    xmlns="http://www.w3.org/2000/svg"
	xmlns:xlink="http://www.w3.org/1999/xlink" xml:space="preserve" overflow="hidden">
	<defs>
		<clipPath id="clip0">
			<rect x="2917" y="346" width="1763" height="1046"/>
		</clipPath>
	</defs>
	<g clip-path="url(#clip0)" transform="translate(-2917 -346)">
		<rect x="2918" y="347" width="1760" height="1043" fill="#FFFFFF" />
		<g>
			<path d="
			M3228.5 974.532 4296.5 974.532
			M3228.5 910.53 4296.5 910.53
			M3228.5 846.528 4296.5 846.528
			M3228.5 781.526 4296.5 781.526
			M3228.5 717.524 4296.5 717.524
			M3228.5 653.522 4296.5 653.522
			M3228.5 589.52 4296.5 589.52
			M3228.5 525.517 4296.5 525.517
			M3228.5 461.515 4296.5 461.515
			M3228.5 397.5 4296.5 397.5" stroke="#D9D9D9" stroke-width="3.4375" stroke-linejoin="round" stroke-miterlimit="10" fill="none" />
		</g>
		<g>
			<path d="M 1038.5 4296.5 1038.5" stroke="#D9D9D9" stroke-width="3.4375" stroke-linejoin="round" stroke-miterlimit="10" fill="none" fill-rule="evenodd" />
		</g>
		<g>
			<text fill="#595959" font-family="Verdana,sans-serif" font-weight="400" font-size="41" transform="matrix(6.12323e-17 -1 1 6.12323e-17 3244.5 1227)">06-Nov</text>
		</g>
		<g>
			<text fill="#595959" font-family="Verdana,sans-serif" font-weight="400" font-size="41" transform="matrix(6.12323e-17 -1 1 6.12323e-17 3337.3695652173915 1226)">20-Nov</text>
		</g>
		<g>
			<text fill="#595959" font-family="Verdana,sans-serif" font-weight="400" font-size="41" transform="matrix(6.12323e-17 -1 1 6.12323e-17 3430.2391304347825 1225)">04-Dec</text>
		</g>
		<g>
			<text fill="#595959" font-family="Verdana,sans-serif" font-weight="400" font-size="41" transform="matrix(6.12323e-17 -1 1 6.12323e-17 3523.108695652174 1222)">18-Dec</text>
		</g>
		<g>
			<text fill="#595959" font-family="Verdana,sans-serif" font-weight="400" font-size="41" transform="matrix(6.12323e-17 -1 1 6.12323e-17 3615.978260869565 1212)">01-Jan</text>
		</g>
		<g>
			<text fill="#595959" font-family="Verdana,sans-serif" font-weight="400" font-size="41" transform="matrix(6.12323e-17 -1 1 6.12323e-17 3708.3478260869565 1209)">15-Jan</text>
		</g>
		<g>
			<text fill="#595959" font-family="Verdana,sans-serif" font-weight="400" font-size="41" transform="matrix(6.12323e-17 -1 1 6.12323e-17 3801.717391304348 1211)">29-Jan</text>
		</g>
		<g>
			<text fill="#595959" font-family="Verdana,sans-serif" font-weight="400" font-size="41" transform="matrix(6.12323e-17 -1 1 6.12323e-17 3894.586956521739 1216)">12-Feb</text>
		</g>
		<g>
			<text fill="#595959" font-family="Verdana,sans-serif" font-weight="400" font-size="41" transform="matrix(6.12323e-17 -1 1 6.12323e-17 3987.4565217391305 1218)">26-Feb</text>
		</g>
		<g>
			<text fill="#595959" font-family="Verdana,sans-serif" font-weight="400" font-size="41" transform="matrix(6.12323e-17 -1 1 6.12323e-17 4079.8260869565215 1222)">11-Mar</text>
		</g>
		<g>
			<text fill="#595959" font-family="Verdana,sans-serif" font-weight="400" font-size="41" transform="matrix(6.12323e-17 -1 1 6.12323e-17 4173.195652173913 1225)">25-Mar</text>
		</g>
		<g>
			<text fill="#595959" font-family="Verdana,sans-serif" font-weight="400" font-size="41" transform="matrix(6.12323e-17 -1 1 6.12323e-17 4269.565217391304 1218)">08-Apr</text>
		</g>
		<g>
			<text fill="#595959" font-family="Verdana,sans-serif" font-weight="400" font-size="41" transform="matrix(1 0 0 1 3123.5 1050)">0%</text>
		</g>
		<g>
			<text fill="#595959" font-family="Verdana,sans-serif" font-weight="400" font-size="41" transform="matrix(1 0 0 1 3097.5 922)">20%</text>
		</g>
		<g>
			<text fill="#595959" font-family="Verdana,sans-serif" font-weight="400" font-size="41" transform="matrix(1 0 0 1 3095.5 794)">40%</text>
		</g>
		<g>
			<text fill="#595959" font-family="Verdana,sans-serif" font-weight="400" font-size="41" transform="matrix(1 0 0 1 3096.5 666)">60%</text>
		</g>
		<g>
			<text fill="#595959" font-family="Verdana,sans-serif" font-weight="400" font-size="41" transform="matrix(1 0 0 1 3096.5 538)">80%</text>
		</g>
		<g>
			<text fill="#595959" font-family="Verdana,sans-serif" font-weight="400" font-size="41" transform="matrix(1 0 0 1 3073.5 410)">100%</text>
		</g>
		<g>
			<text fill="#595959" font-family="Verdana,sans-serif" font-weight="400" font-size="41" transform="matrix(1 0 0 1 3541.5 1321)">Week Commencing</text>
		</g>
		<g>
			<text fill="#595959" font-family="Verdana,sans-serif" font-weight="400" font-size="46" transform="matrix(6.12323e-17 -1 1 6.12323e-17 3019.73 968.75)">Requests (% of Total)</text>
		</g>
		<rect x="2918.5" y="347.5" width="1760" height="1043" stroke="#D9D9D9" stroke-width="3.4375" stroke-linejoin="round" stroke-miterlimit="10" fill="none" />
		<g>
			<path d="M3228.5 1038 3274.9347826086955 1038 3321.3695652173915 1038 3367.804347826087 1038 3414.2391304347825 1038 3460.673913043478 1038 3507.108695652174 1038 3553.5434782608695 1038 3599.978260869565 1038 3646.413043478261 1038 3692.8478260869565 1038 3739.282608695652 1038 3785.717391304348 1038 3832.1521739130435 1038 3878.586956521739 1038 3925.021739130435 1038 3971.4565217391305 1038 4017.891304347826 1038 4064.3260869565215 1038 4110.760869565217 1038 4157.195652173913 1038 4203.630434782609 1038 4250.065217391304 1038 4296.5 1038 4296.5 578.2473295586981 4250.065217391304 579.8301495425726 4203.630434782609 581.4258071436993 4157.195652173913 583.4353029706369 4110.760869565217 585.2297796683877 4064.3260869565215 569.3763139485983 4017.891304347826 569.4920790789085 3971.4565217391305 568.4210223578364 3925.021739130435 567.328661211755 3878.586956521739 566.161104092279 3832.1521739130435 566.5630760901624 3785.717391304348 566.9371867374394 3739.282608695652 565.7434322908556 3692.8478260869565 565.3329344965637 3646.413043478261 567.1306424721515 3599.978260869565 546.6361313386333 3553.5434782608695 547.2360643741254 3507.108695652174 547.9846296844262 3460.673913043478 551.0672526834712 3414.2391304347825 550.9210452859504 3367.804347826087 550.9050574683862 3321.3695652173915 550.8533354714161 3274.9347826086955 550.7560734149703 3228.5 551.2665692392751 3228.5 1038Z" fill="#e62d39" opacity="0.9" />
		</g>
		<g>
			<path d="M3228.5 551.2665692392751 3274.9347826086955 550.7560734149703 3321.3695652173915 550.8533354714161 3367.804347826087 550.9050574683862 3414.2391304347825 550.9210452859504 3460.673913043478 551.0672526834712 3507.108695652174 547.9846296844262 3553.5434782608695 547.2360643741254 3599.978260869565 546.6361313386333 3646.413043478261 567.1306424721515 3692.8478260869565 565.3329344965637 3739.282608695652 565.7434322908556 3785.717391304348 566.9371867374394 3832.1521739130435 566.5630760901624 3878.586956521739 566.161104092279 3925.021739130435 567.328661211755 3971.4565217391305 568.4210223578364 4017.891304347826 569.4920790789085 4064.3260869565215 569.3763139485983 4110.760869565217 585.2297796683877 4157.195652173913 583.4353029706369 4203.630434782609 581.4258071436993 4250.065217391304 579.8301495425726 4296.5 578.2473295586981 4296.5 397.99999999999994 4250.065217391304 398.0000000000001 4203.630434782609 398 4157.195652173913 398 4110.760869565217 398 4064.3260869565215 398 4017.891304347826 398.00000000000006 3971.4565217391305 398.00000000000006 3925.021739130435 398 3878.586956521739 398.00000000000006 3832.1521739130435 397.99999999999994 3785.717391304348 398 3739.282608695652 398 3692.8478260869565 397.99999999999994 3646.413043478261 398.00000000000006 3599.978260869565 398 3553.5434782608695 398.0000000000001 3507.108695652174 398 3460.673913043478 398 3414.2391304347825 398 3367.804347826087 398 3321.3695652173915 398 3274.9347826086955 398 3228.5 398 3228.5 551.2665692392751Z" fill="#005aa6" opacity="0.9" />
		</g>
		<g>
			<rect x="4372" y="431" width="22.9995" height="23" fill="#e62d39" />
		</g>
		<g>
			<text fill="#595959" font-family="Verdana,sans-serif" font-weight="400" font-size="41" transform="matrix(1 0 0 1 4404.56 454)">Non-Crawler</text>
		</g>
		<g>
			<rect x="4372" y="508" width="22.9995" height="23" fill="#005aa6" />
		</g>
		<g>
			<text fill="#595959" font-family="Verdana,sans-serif" font-weight="400" font-size="41" transform="matrix(1 0 0 1 4404.56 531)">Crawler</text>
		</g>
	</g>
</svg>
