<svg width="1763" height="1046"
    xmlns="http://www.w3.org/2000/svg"
	xmlns:xlink="http://www.w3.org/1999/xlink" xml:space="preserve" overflow="hidden">
	<defs>
		<clipPath id="clip0">
			<rect x="2917" y="346" width="1763" height="1046"/>
		</clipPath>
	</defs>
	<g clip-path="url(#clip0)" transform="translate(-2917 -346)">
		<rect x="2918" y="347" width="1760" height="1043" fill="#FFFFFF" />
		<g>
			<path d="
			M3228.5 974.532 4296.5 974.532
			M3228.5 910.53 4296.5 910.53
			M3228.5 846.528 4296.5 846.528
			M3228.5 781.526 4296.5 781.526
			M3228.5 717.524 4296.5 717.524
			M3228.5 653.522 4296.5 653.522
			M3228.5 589.52 4296.5 589.52
			M3228.5 525.517 4296.5 525.517
			M3228.5 461.515 4296.5 461.515
			M3228.5 397.5 4296.5 397.5" stroke="#D9D9D9" stroke-width="3.4375" stroke-linejoin="round" stroke-miterlimit="10" fill="none" />
		</g>
		<g>
			<path d="M 1038.5 4296.5 1038.5" stroke="#D9D9D9" stroke-width="3.4375" stroke-linejoin="round" stroke-miterlimit="10" fill="none" fill-rule="evenodd" />
		</g>
		<g>
			<text fill="#595959" font-family="Verdana,sans-serif" font-weight="400" font-size="41" transform="matrix(6.12323e-17 -1 1 6.12323e-17 3244.5 1225)">06-Nov</text>
		</g>
		<g>
			<text fill="#595959" font-family="Verdana,sans-serif" font-weight="400" font-size="41" transform="matrix(6.12323e-17 -1 1 6.12323e-17 3370.1470588235293 1223)">04-Dec</text>
		</g>
		<g>
			<text fill="#595959" font-family="Verdana,sans-serif" font-weight="400" font-size="41" transform="matrix(6.12323e-17 -1 1 6.12323e-17 3495.794117647059 1210)">01-Jan</text>
		</g>
		<g>
			<text fill="#595959" font-family="Verdana,sans-serif" font-weight="400" font-size="41" transform="matrix(6.12323e-17 -1 1 6.12323e-17 3621.4411764705883 1210)">29-Jan</text>
		</g>
		<g>
			<text fill="#595959" font-family="Verdana,sans-serif" font-weight="400" font-size="41" transform="matrix(6.12323e-17 -1 1 6.12323e-17 3747.0882352941176 1216)">26-Feb</text>
		</g>
		<g>
			<text fill="#595959" font-family="Verdana,sans-serif" font-weight="400" font-size="41" transform="matrix(6.12323e-17 -1 1 6.12323e-17 3872.735294117647 1223)">25-Mar</text>
		</g>
		<g>
			<text fill="#595959" font-family="Verdana,sans-serif" font-weight="400" font-size="41" transform="matrix(6.12323e-17 -1 1 6.12323e-17 4001.8823529411766 1216)">22-Apr</text>
		</g>
		<g>
			<text fill="#595959" font-family="Verdana,sans-serif" font-weight="400" font-size="41" transform="matrix(6.12323e-17 -1 1 6.12323e-17 4127.529411764706 1228)">20-May</text>
		</g>
		<g>
			<text fill="#595959" font-family="Verdana,sans-serif" font-weight="400" font-size="41" transform="matrix(6.12323e-17 -1 1 6.12323e-17 4249.176470588235 1209)">17-Jun</text>
		</g>
		<g>
			<text fill="#595959" font-family="Verdana,sans-serif" font-weight="400" font-size="41" transform="matrix(1 0 0 1 3167.5 1050)">0</text>
		</g>
		<g>
			<text fill="#595959" font-family="Verdana,sans-serif" font-weight="400" font-size="41" transform="matrix(1 0 0 1 3143.5 922)">51</text>
		</g>
		<g>
			<text fill="#595959" font-family="Verdana,sans-serif" font-weight="400" font-size="41" transform="matrix(1 0 0 1 3119.5 794)">101</text>
		</g>
		<g>
			<text fill="#595959" font-family="Verdana,sans-serif" font-weight="400" font-size="41" transform="matrix(1 0 0 1 3118.5 666)">152</text>
		</g>
		<g>
			<text fill="#595959" font-family="Verdana,sans-serif" font-weight="400" font-size="41" transform="matrix(1 0 0 1 3115.5 538)">202</text>
		</g>
		<g>
			<text fill="#595959" font-family="Verdana,sans-serif" font-weight="400" font-size="41" transform="matrix(1 0 0 1 3116.5 410)">253</text>
		</g>
		<g>
			<text fill="#595959" font-family="Verdana,sans-serif" font-weight="400" font-size="41" transform="matrix(1 0 0 1 3544.5 1321)">Week Commencing</text>
		</g>
		<g>
			<text fill="#595959" font-family="Verdana,sans-serif" font-weight="400" font-size="46" transform="matrix(6.12323e-17 -1 1 6.12323e-17 3019.73 1024.75)">Number of Crawler Profiles</text>
		</g>
		<rect x="2918.5" y="347.5" width="1760" height="1043" stroke="#D9D9D9" stroke-width="3.4375" stroke-linejoin="round" stroke-miterlimit="10" fill="none" />
		<g>
			<path d="M3228.5 1038 3259.9117647058824 1038 3291.323529411765 1038 3322.735294117647 1038 3354.1470588235293 1038 3385.5588235294117 1038 3416.970588235294 1038 3448.3823529411766 1038 3479.794117647059 1038 3511.205882352941 1038 3542.6176470588234 1038 3574.029411764706 1038 3605.4411764705883 1038 3636.8529411764707 1038 3668.264705882353 1038 3699.676470588235 1038 3731.0882352941176 1038 3762.5 1038 3793.9117647058824 1038 3825.323529411765 1038 3856.735294117647 1038 3888.1470588235293 1038 3919.5588235294117 1038 3950.970588235294 1038 3982.3823529411766 1038 4013.7941176470586 1038 4045.205882352941 1038 4076.6176470588234 1038 4108.029411764706 1038 4139.441176470588 1038 4170.85294117647 1038 4202.264705882353 1038 4233.676470588235 1038 4265.088235294117 1038 4296.5 1038 4296.5 400.52964426877475 4265.088235294117 408.11857707509876 4233.676470588235 420.76679841897237 4202.264705882353 425.82608695652175 4170.85294117647 425.82608695652175 4139.441176470588 425.82608695652175 4108.029411764706 428.3557312252964 4076.6176470588234 433.4150197628459 4045.205882352941 443.53359683794463 4013.7941176470586 448.592885375494 3982.3823529411766 451.12252964426875 3950.970588235294 451.12252964426875 3919.5588235294117 461.2411067193676 3888.1470588235293 461.2411067193676 3856.735294117647 473.8893280632411 3825.323529411765 499.1857707509881 3793.9117647058824 504.2450592885375 3762.5 509.304347826087 3731.0882352941176 521.9525691699605 3699.676470588235 524.4822134387351 3668.264705882353 524.4822134387351 3636.8529411764707 527.0118577075099 3605.4411764705883 532.0711462450593 3574.029411764706 544.7193675889328 3542.6176470588234 547.2490118577075 3511.205882352941 547.2490118577075 3479.794117647059 552.3083003952569 3448.3823529411766 552.3083003952569 3416.970588235294 552.3083003952569 3385.5588235294117 552.3083003952569 3354.1470588235293 552.3083003952569 3322.735294117647 554.8379446640316 3291.323529411765 554.8379446640316 3259.9117647058824 554.8379446640316 3228.5 554.8379446640316 3228.5 1038Z" fill="#005aa6" opacity="0.9" />
		</g>
		<g>
			<path d="M3228.5 554.8379446640316 3259.9117647058824 554.8379446640316 3291.323529411765 554.8379446640316 3322.735294117647 554.8379446640316 3354.1470588235293 552.3083003952569 3385.5588235294117 552.3083003952569 3416.970588235294 552.3083003952569 3448.3823529411766 552.3083003952569 3479.794117647059 552.3083003952569 3511.205882352941 547.2490118577075 3542.6176470588234 547.2490118577075 3574.029411764706 544.7193675889328 3605.4411764705883 532.0711462450593 3636.8529411764707 527.0118577075099 3668.264705882353 524.4822134387351 3699.676470588235 524.4822134387351 3731.0882352941176 521.9525691699605 3762.5 509.304347826087 3793.9117647058824 504.2450592885375 3825.323529411765 499.1857707509881 3856.735294117647 473.8893280632411 3888.1470588235293 461.2411067193676 3919.5588235294117 461.2411067193676 3950.970588235294 451.12252964426875 3982.3823529411766 451.12252964426875 4013.7941176470586 448.592885375494 4045.205882352941 443.53359683794463 4076.6176470588234 433.4150197628459 4108.029411764706 428.3557312252964 4139.441176470588 425.82608695652175 4170.85294117647 425.82608695652175 4202.264705882353 425.82608695652175 4233.676470588235 420.76679841897237 4265.088235294117 408.11857707509876 4296.5 400.52964426877475 4296.5 398.00000000000006 4265.088235294117 405.58893280632407 4233.676470588235 418.2371541501977 4202.264705882353 423.29644268774706 4170.85294117647 423.29644268774706 4139.441176470588 423.29644268774706 4108.029411764706 425.8260869565217 4076.6176470588234 430.8853754940712 4045.205882352941 441.00395256916994 4013.7941176470586 446.0632411067193 3982.3823529411766 448.59288537549406 3950.970588235294 448.59288537549406 3919.5588235294117 458.71146245059293 3888.1470588235293 458.71146245059293 3856.735294117647 471.35968379446643 3825.323529411765 496.65612648221344 3793.9117647058824 501.7154150197628 3762.5 506.7747035573123 3731.0882352941176 519.4229249011858 3699.676470588235 521.9525691699604 3668.264705882353 521.9525691699604 3636.8529411764707 524.4822134387351 3605.4411764705883 529.5415019762845 3574.029411764706 542.189723320158 3542.6176470588234 544.7193675889328 3511.205882352941 544.7193675889328 3479.794117647059 549.7786561264821 3448.3823529411766 549.7786561264821 3416.970588235294 549.7786561264821 3385.5588235294117 549.7786561264821 3354.1470588235293 549.7786561264821 3322.735294117647 552.3083003952569 3291.323529411765 552.3083003952569 3259.9117647058824 552.3083003952569 3228.5 552.3083003952569 3228.5 554.8379446640316Z" fill="#e62d39" opacity="0.9" />
		</g>
		<g>
			<rect x="4372" y="431" width="22.9995" height="23" fill="#005aa6" />
		</g>
		<g>
			<text fill="#595959" font-family="Verdana,sans-serif" font-weight="400" font-size="41" transform="matrix(1 0 0 1 4404.56 454)">Crawler</text>
		</g>
		<g>
			<rect x="4372" y="508" width="22.9995" height="23" fill="#e62d39" />
		</g>
		<g>
			<text fill="#595959" font-family="Verdana,sans-serif" font-weight="400" font-size="41" transform="matrix(1 0 0 1 4404.56 531)">Non-Crawler</text>
		</g>
	</g>
</svg>
