<svg width="1763" height="1046"
    xmlns="http://www.w3.org/2000/svg"
	xmlns:xlink="http://www.w3.org/1999/xlink" xml:space="preserve" overflow="hidden">
	<defs>
		<clipPath id="clip0">
			<rect x="2917" y="346" width="1763" height="1046"/>
		</clipPath>
	</defs>
	<g clip-path="url(#clip0)" transform="translate(-2917 -346)">
		<rect x="2918" y="347" width="1760" height="1043" fill="#FFFFFF" />
		<g>
			<path d="
			M3228.5 974.532 4296.5 974.532
			M3228.5 910.53 4296.5 910.53
			M3228.5 846.528 4296.5 846.528
			M3228.5 781.526 4296.5 781.526
			M3228.5 717.524 4296.5 717.524
			M3228.5 653.522 4296.5 653.522
			M3228.5 589.52 4296.5 589.52
			M3228.5 525.517 4296.5 525.517
			M3228.5 461.515 4296.5 461.515
			M3228.5 397.5 4296.5 397.5" stroke="#D9D9D9" stroke-width="3.4375" stroke-linejoin="round" stroke-miterlimit="10" fill="none" />
		</g>
		<g>
			<path d="M 1038.5 4296.5 1038.5" stroke="#D9D9D9" stroke-width="3.4375" stroke-linejoin="round" stroke-miterlimit="10" fill="none" fill-rule="evenodd" />
		</g>
		<g>
			<text fill="#595959" font-family="Verdana,sans-serif" font-weight="400" font-size="41" transform="matrix(6.12323e-17 -1 1 6.12323e-17 3248 1216)">22-Apr</text>
		</g>
		<g>
			<text fill="#595959" font-family="Verdana,sans-serif" font-weight="400" font-size="41" transform="matrix(6.12323e-17 -1 1 6.12323e-17 3331.764705882353 1228)">20-May</text>
		</g>
		<g>
			<text fill="#595959" font-family="Verdana,sans-serif" font-weight="400" font-size="41" transform="matrix(6.12323e-17 -1 1 6.12323e-17 3411.529411764706 1209)">17-Jun</text>
		</g>
		<g>
			<text fill="#595959" font-family="Verdana,sans-serif" font-weight="400" font-size="41" transform="matrix(6.12323e-17 -1 1 6.12323e-17 3495.794117647059 1194)">15-Jul</text>
		</g>
		<g>
			<text fill="#595959" font-family="Verdana,sans-serif" font-weight="400" font-size="41" transform="matrix(6.12323e-17 -1 1 6.12323e-17 3583.0588235294117 1218)">12-Aug</text>
		</g>
		<g>
			<text fill="#595959" font-family="Verdana,sans-serif" font-weight="400" font-size="41" transform="matrix(6.12323e-17 -1 1 6.12323e-17 3666.823529411765 1222)">09-Sep</text>
		</g>
		<g>
			<text fill="#595959" font-family="Verdana,sans-serif" font-weight="400" font-size="41" transform="matrix(6.12323e-17 -1 1 6.12323e-17 3747.0882352941176 1215)">07-Oct</text>
		</g>
		<g>
			<text fill="#595959" font-family="Verdana,sans-serif" font-weight="400" font-size="41" transform="matrix(6.12323e-17 -1 1 6.12323e-17 3830.8529411764707 1225)">04-Nov</text>
		</g>
		<g>
			<text fill="#595959" font-family="Verdana,sans-serif" font-weight="400" font-size="41" transform="matrix(6.12323e-17 -1 1 6.12323e-17 3914.6176470588234 1223)">09-Dec</text>
		</g>
		<g>
			<text fill="#595959" font-family="Verdana,sans-serif" font-weight="400" font-size="41" transform="matrix(6.12323e-17 -1 1 6.12323e-17 3998.3823529411766 1210)">06-Jan</text>
		</g>
		<g>
			<text fill="#595959" font-family="Verdana,sans-serif" font-weight="400" font-size="41" transform="matrix(6.12323e-17 -1 1 6.12323e-17 4082.1470588235293 1217)">03-Feb</text>
		</g>
		<g>
			<text fill="#595959" font-family="Verdana,sans-serif" font-weight="400" font-size="41" transform="matrix(6.12323e-17 -1 1 6.12323e-17 4165.911764705882 1223)">03-Mar</text>
		</g>
		<g>
			<text fill="#595959" font-family="Verdana,sans-serif" font-weight="400" font-size="41" transform="matrix(6.12323e-17 -1 1 6.12323e-17 4249.676470588235 1223)">31-Mar</text>
		</g>
		<g>
			<text fill="#595959" font-family="Verdana,sans-serif" font-weight="400" font-size="41" transform="matrix(1 0 0 1 3167.5 1050)">0</text>
		</g>
		<g>
			<text fill="#595959" font-family="Verdana,sans-serif" font-weight="400" font-size="41" transform="matrix(1 0 0 1 3141.5 922)">63</text>
		</g>
		<g>
			<text fill="#595959" font-family="Verdana,sans-serif" font-weight="400" font-size="41" transform="matrix(1 0 0 1 3117.5 794)">126</text>
		</g>
		<g>
			<text fill="#595959" font-family="Verdana,sans-serif" font-weight="400" font-size="41" transform="matrix(1 0 0 1 3117.5 666)">188</text>
		</g>
		<g>
			<text fill="#595959" font-family="Verdana,sans-serif" font-weight="400" font-size="41" transform="matrix(1 0 0 1 3117.5 538)">251</text>
		</g>
		<g>
			<text fill="#595959" font-family="Verdana,sans-serif" font-weight="400" font-size="41" transform="matrix(1 0 0 1 3115.5 410)">314</text>
		</g>
		<g>
			<text fill="#595959" font-family="Verdana,sans-serif" font-weight="400" font-size="41" transform="matrix(1 0 0 1 3544.5 1321)">Week Commencing</text>
		</g>
		<g>
			<text fill="#595959" font-family="Verdana,sans-serif" font-weight="400" font-size="46" transform="matrix(6.12323e-17 -1 1 6.12323e-17 3019.73 1024.75)">Number of Crawler Profiles</text>
		</g>
		<rect x="2918.5" y="347.5" width="1760" height="1043" stroke="#D9D9D9" stroke-width="3.4375" stroke-linejoin="round" stroke-miterlimit="10" fill="none" />
		<g>
			<path d="M3228.5 1038 3249.4411764705883 1038 3270.3823529411766 1038 3291.323529411765 1038 3312.264705882353 1038 3333.205882352941 1038 3354.1470588235293 1038 3375.0882352941176 1038 3396.029411764706 1038 3416.970588235294 1038 3437.9117647058824 1038 3458.8529411764707 1038 3479.794117647059 1038 3500.735294117647 1038 3521.676470588235 1038 3542.6176470588234 1038 3563.5588235294117 1038 3584.5 1038 3605.4411764705883 1038 3626.3823529411766 1038 3647.323529411765 1038 3668.264705882353 1038 3689.205882352941 1038 3710.1470588235293 1038 3731.0882352941176 1038 3752.029411764706 1038 3772.970588235294 1038 3793.9117647058824 1038 3814.8529411764707 1038 3835.7941176470586 1038 3856.735294117647 1038 3877.676470588235 1038 3898.6176470588234 1038 3919.5588235294117 1038 3940.5 1038 3961.4411764705883 1038 3982.3823529411766 1038 4003.323529411765 1038 4024.264705882353 1038 4045.2058823529414 1038 4066.1470588235293 1038 4087.0882352941176 1038 4108.029411764706 1038 4128.970588235294 1038 4149.911764705882 1038 4170.85294117647 1038 4191.794117647059 1038 4212.735294117647 1038 4233.676470588235 1038 4254.617647058823 1038 4275.558823529412 1038 4296.5 1038 4296.5 400.03821656050957 4275.558823529412 400.03821656050957 4254.617647058823 400.03821656050957 4233.676470588235 402.07643312101914 4212.735294117647 402.07643312101914 4191.794117647059 402.07643312101914 4170.85294117647 404.1146496815287 4149.911764705882 404.1146496815287 4128.970588235294 406.1528662420383 4108.029411764706 406.1528662420383 4087.0882352941176 408.1910828025477 4066.1470588235293 410.2292993630573 4045.2058823529414 412.26751592356686 4024.264705882353 412.26751592356686 4003.323529411765 416.343949044586 3982.3823529411766 418.38216560509557 3961.4411764705883 418.38216560509557 3940.5 418.38216560509557 3919.5588235294117 422.4585987261147 3898.6176470588234 424.49681528662416 3877.676470588235 430.61146496815286 3856.735294117647 438.76433121019113 3835.7941176470586 450.9936305732484 3814.8529411764707 457.1082802547771 3793.9117647058824 457.1082802547771 3772.970588235294 455.07006369426756 3752.029411764706 459.1464968152866 3731.0882352941176 465.2611464968153 3710.1470588235293 473.41401273885356 3689.205882352941 473.41401273885356 3668.264705882353 475.452229299363 3647.323529411765 485.64331210191085 3626.3823529411766 489.71974522293 3605.4411764705883 493.796178343949 3584.5 493.796178343949 3563.5588235294117 497.87261146496814 3542.6176470588234 497.87261146496814 3521.676470588235 499.9108280254777 3500.735294117647 501.9490445859873 3479.794117647059 510.10191082802544 3458.8529411764707 516.2165605095541 3437.9117647058824 524.3694267515924 3416.970588235294 530.484076433121 3396.029411764706 540.6751592356688 3375.0882352941176 544.751592356688 3354.1470588235293 544.751592356688 3333.205882352941 544.751592356688 3312.264705882353 546.7898089171974 3291.323529411765 550.8662420382166 3270.3823529411766 559.0191082802548 3249.4411764705883 563.0955414012739 3228.5 565.1337579617834 3228.5 1038Z" fill="#005aa6" opacity="0.9" />
		</g>
		<g>
			<path d="M3228.5 565.1337579617834 3249.4411764705883 563.0955414012739 3270.3823529411766 559.0191082802548 3291.323529411765 550.8662420382166 3312.264705882353 546.7898089171974 3333.205882352941 544.751592356688 3354.1470588235293 544.751592356688 3375.0882352941176 544.751592356688 3396.029411764706 540.6751592356688 3416.970588235294 530.484076433121 3437.9117647058824 524.3694267515924 3458.8529411764707 516.2165605095541 3479.794117647059 510.10191082802544 3500.735294117647 501.9490445859873 3521.676470588235 499.9108280254777 3542.6176470588234 497.87261146496814 3563.5588235294117 497.87261146496814 3584.5 493.796178343949 3605.4411764705883 493.796178343949 3626.3823529411766 489.71974522293 3647.323529411765 485.64331210191085 3668.264705882353 475.452229299363 3689.205882352941 473.41401273885356 3710.1470588235293 473.41401273885356 3731.0882352941176 465.2611464968153 3752.029411764706 459.1464968152866 3772.970588235294 455.07006369426756 3793.9117647058824 457.1082802547771 3814.8529411764707 457.1082802547771 3835.7941176470586 450.9936305732484 3856.735294117647 438.76433121019113 3877.676470588235 430.61146496815286 3898.6176470588234 424.49681528662416 3919.5588235294117 422.4585987261147 3940.5 418.38216560509557 3961.4411764705883 418.38216560509557 3982.3823529411766 418.38216560509557 4003.323529411765 416.343949044586 4024.264705882353 412.26751592356686 4045.2058823529414 412.26751592356686 4066.1470588235293 410.2292993630573 4087.0882352941176 408.1910828025477 4108.029411764706 406.1528662420383 4128.970588235294 406.1528662420383 4149.911764705882 404.1146496815287 4170.85294117647 404.1146496815287 4191.794117647059 402.07643312101914 4212.735294117647 402.07643312101914 4233.676470588235 402.07643312101914 4254.617647058823 400.03821656050957 4275.558823529412 400.03821656050957 4296.5 400.03821656050957 4296.5 398 4275.558823529412 398 4254.617647058823 398 4233.676470588235 400.03821656050957 4212.735294117647 400.03821656050957 4191.794117647059 400.03821656050957 4170.85294117647 402.07643312101914 4149.911764705882 402.07643312101914 4128.970588235294 404.1146496815287 4108.029411764706 404.1146496815287 4087.0882352941176 406.15286624203816 4066.1470588235293 408.1910828025477 4045.2058823529414 410.2292993630573 4024.264705882353 410.2292993630573 4003.323529411765 414.30573248407643 3982.3823529411766 416.343949044586 3961.4411764705883 416.343949044586 3940.5 416.343949044586 3919.5588235294117 420.42038216560513 3898.6176470588234 422.4585987261146 3877.676470588235 428.5732484076433 3856.735294117647 436.72611464968156 3835.7941176470586 448.95541401273886 3814.8529411764707 455.07006369426756 3793.9117647058824 455.07006369426756 3772.970588235294 453.031847133758 3752.029411764706 457.108280254777 3731.0882352941176 463.2229299363057 3710.1470588235293 471.375796178344 3689.205882352941 471.375796178344 3668.264705882353 473.41401273885344 3647.323529411765 483.6050955414013 3626.3823529411766 487.6815286624204 3605.4411764705883 491.75796178343944 3584.5 491.75796178343944 3563.5588235294117 495.8343949044586 3542.6176470588234 495.8343949044586 3521.676470588235 497.87261146496814 3500.735294117647 499.9108280254777 3479.794117647059 508.06369426751587 3458.8529411764707 514.1783439490446 3437.9117647058824 522.3312101910828 3416.970588235294 528.4458598726114 3396.029411764706 538.6369426751593 3375.0882352941176 542.7133757961784 3354.1470588235293 542.7133757961784 3333.205882352941 542.7133757961784 3312.264705882353 544.7515923566879 3291.323529411765 548.828025477707 3270.3823529411766 556.9808917197453 3249.4411764705883 561.0573248407643 3228.5 563.0955414012739 3228.5 565.1337579617834Z" fill="#e62d39" opacity="0.9" />
		</g>
		<g>
			<rect x="4372" y="431" width="22.9995" height="23" fill="#005aa6" />
		</g>
		<g>
			<text fill="#595959" font-family="Verdana,sans-serif" font-weight="400" font-size="41" transform="matrix(1 0 0 1 4404.56 454)">Crawler</text>
		</g>
		<g>
			<rect x="4372" y="508" width="22.9995" height="23" fill="#e62d39" />
		</g>
		<g>
			<text fill="#595959" font-family="Verdana,sans-serif" font-weight="400" font-size="41" transform="matrix(1 0 0 1 4404.56 531)">Non-Crawler</text>
		</g>
	</g>
</svg>
