<svg width="1763" height="1046"
    xmlns="http://www.w3.org/2000/svg"
	xmlns:xlink="http://www.w3.org/1999/xlink" xml:space="preserve" overflow="hidden">
	<defs>
		<clipPath id="clip0">
			<rect x="2917" y="346" width="1763" height="1046"/>
		</clipPath>
	</defs>
	<g clip-path="url(#clip0)" transform="translate(-2917 -346)">
		<rect x="2918" y="347" width="1760" height="1043" fill="#FFFFFF" />
		<g>
			<path d="
			M3228.5 974.532 4296.5 974.532
			M3228.5 910.53 4296.5 910.53
			M3228.5 846.528 4296.5 846.528
			M3228.5 781.526 4296.5 781.526
			M3228.5 717.524 4296.5 717.524
			M3228.5 653.522 4296.5 653.522
			M3228.5 589.52 4296.5 589.52
			M3228.5 525.517 4296.5 525.517
			M3228.5 461.515 4296.5 461.515
			M3228.5 397.5 4296.5 397.5" stroke="#D9D9D9" stroke-width="3.4375" stroke-linejoin="round" stroke-miterlimit="10" fill="none" />
		</g>
		<g>
			<path d="M 1038.5 4296.5 1038.5" stroke="#D9D9D9" stroke-width="3.4375" stroke-linejoin="round" stroke-miterlimit="10" fill="none" fill-rule="evenodd" />
		</g>
		<g>
			<text fill="#595959" font-family="Verdana,sans-serif" font-weight="400" font-size="41" transform="matrix(6.12323e-17 -1 1 6.12323e-17 3244.5 1221)">18-Mar</text>
		</g>
		<g>
			<text fill="#595959" font-family="Verdana,sans-serif" font-weight="400" font-size="41" transform="matrix(6.12323e-17 -1 1 6.12323e-17 3331.764705882353 1214)">15-Apr</text>
		</g>
		<g>
			<text fill="#595959" font-family="Verdana,sans-serif" font-weight="400" font-size="41" transform="matrix(6.12323e-17 -1 1 6.12323e-17 3415.529411764706 1226)">13-May</text>
		</g>
		<g>
			<text fill="#595959" font-family="Verdana,sans-serif" font-weight="400" font-size="41" transform="matrix(6.12323e-17 -1 1 6.12323e-17 3495.794117647059 1209)">10-Jun</text>
		</g>
		<g>
			<text fill="#595959" font-family="Verdana,sans-serif" font-weight="400" font-size="41" transform="matrix(6.12323e-17 -1 1 6.12323e-17 3579.5588235294117 1197)">08-Jul</text>
		</g>
		<g>
			<text fill="#595959" font-family="Verdana,sans-serif" font-weight="400" font-size="41" transform="matrix(6.12323e-17 -1 1 6.12323e-17 3666.823529411765 1221)">05-Aug</text>
		</g>
		<g>
			<text fill="#595959" font-family="Verdana,sans-serif" font-weight="400" font-size="41" transform="matrix(6.12323e-17 -1 1 6.12323e-17 3750.5882352941176 1222)">02-Sep</text>
		</g>
		<g>
			<text fill="#595959" font-family="Verdana,sans-serif" font-weight="400" font-size="41" transform="matrix(6.12323e-17 -1 1 6.12323e-17 3834.3529411764707 1221)">30-Sep</text>
		</g>
		<g>
			<text fill="#595959" font-family="Verdana,sans-serif" font-weight="400" font-size="41" transform="matrix(6.12323e-17 -1 1 6.12323e-17 3914.6176470588234 1215)">28-Oct</text>
		</g>
		<g>
			<text fill="#595959" font-family="Verdana,sans-serif" font-weight="400" font-size="41" transform="matrix(6.12323e-17 -1 1 6.12323e-17 3998.3823529411766 1224)">25-Nov</text>
		</g>
		<g>
			<text fill="#595959" font-family="Verdana,sans-serif" font-weight="400" font-size="41" transform="matrix(6.12323e-17 -1 1 6.12323e-17 4082.1470588235293 1222)">30-Dec</text>
		</g>
		<g>
			<text fill="#595959" font-family="Verdana,sans-serif" font-weight="400" font-size="41" transform="matrix(6.12323e-17 -1 1 6.12323e-17 4165.911764705882 1210)">27-Jan</text>
		</g>
		<g>
			<text fill="#595959" font-family="Verdana,sans-serif" font-weight="400" font-size="41" transform="matrix(6.12323e-17 -1 1 6.12323e-17 4249.676470588235 1216)">24-Feb</text>
		</g>
		<g>
			<text fill="#595959" font-family="Verdana,sans-serif" font-weight="400" font-size="41" transform="matrix(1 0 0 1 3167.5 1050)">0</text>
		</g>
		<g>
			<text fill="#595959" font-family="Verdana,sans-serif" font-weight="400" font-size="41" transform="matrix(1 0 0 1 3141.5 922)">63</text>
		</g>
		<g>
			<text fill="#595959" font-family="Verdana,sans-serif" font-weight="400" font-size="41" transform="matrix(1 0 0 1 3118.5 794)">125</text>
		</g>
		<g>
			<text fill="#595959" font-family="Verdana,sans-serif" font-weight="400" font-size="41" transform="matrix(1 0 0 1 3117.5 666)">188</text>
		</g>
		<g>
			<text fill="#595959" font-family="Verdana,sans-serif" font-weight="400" font-size="41" transform="matrix(1 0 0 1 3115.5 538)">250</text>
		</g>
		<g>
			<text fill="#595959" font-family="Verdana,sans-serif" font-weight="400" font-size="41" transform="matrix(1 0 0 1 3116.5 410)">313</text>
		</g>
		<g>
			<text fill="#595959" font-family="Verdana,sans-serif" font-weight="400" font-size="41" transform="matrix(1 0 0 1 3544.5 1321)">Week Commencing</text>
		</g>
		<g>
			<text fill="#595959" font-family="Verdana,sans-serif" font-weight="400" font-size="46" transform="matrix(6.12323e-17 -1 1 6.12323e-17 3019.73 1024.75)">Number of Crawler Profiles</text>
		</g>
		<rect x="2918.5" y="347.5" width="1760" height="1043" stroke="#D9D9D9" stroke-width="3.4375" stroke-linejoin="round" stroke-miterlimit="10" fill="none" />
		<g>
			<path d="M3228.5 1038 3249.4411764705883 1038 3270.3823529411766 1038 3291.323529411765 1038 3312.264705882353 1038 3333.205882352941 1038 3354.1470588235293 1038 3375.0882352941176 1038 3396.029411764706 1038 3416.970588235294 1038 3437.9117647058824 1038 3458.8529411764707 1038 3479.794117647059 1038 3500.735294117647 1038 3521.676470588235 1038 3542.6176470588234 1038 3563.5588235294117 1038 3584.5 1038 3605.4411764705883 1038 3626.3823529411766 1038 3647.323529411765 1038 3668.264705882353 1038 3689.205882352941 1038 3710.1470588235293 1038 3731.0882352941176 1038 3752.029411764706 1038 3772.970588235294 1038 3793.9117647058824 1038 3814.8529411764707 1038 3835.7941176470586 1038 3856.735294117647 1038 3877.676470588235 1038 3898.6176470588234 1038 3919.5588235294117 1038 3940.5 1038 3961.4411764705883 1038 3982.3823529411766 1038 4003.323529411765 1038 4024.264705882353 1038 4045.2058823529414 1038 4066.1470588235293 1038 4087.0882352941176 1038 4108.029411764706 1038 4128.970588235294 1038 4149.911764705882 1038 4170.85294117647 1038 4191.794117647059 1038 4212.735294117647 1038 4233.676470588235 1038 4254.617647058823 1038 4275.558823529412 1038 4296.5 1038 4296.5 400.0447284345048 4275.558823529412 402.0894568690096 4254.617647058823 402.0894568690096 4233.676470588235 404.1341853035144 4212.735294117647 404.1341853035144 4191.794117647059 406.1789137380192 4170.85294117647 408.223642172524 4149.911764705882 410.2683706070288 4128.970588235294 410.2683706070288 4108.029411764706 414.3578274760383 4087.0882352941176 416.40255591054313 4066.1470588235293 416.40255591054313 4045.2058823529414 416.40255591054313 4024.264705882353 420.49201277955274 4003.323529411765 422.53674121405754 3982.3823529411766 428.67092651757196 3961.4411764705883 436.84984025559106 3940.5 449.1182108626199 3919.5588235294117 455.2523961661342 3898.6176470588234 455.2523961661342 3877.676470588235 453.2076677316294 3856.735294117647 457.297124600639 3835.7941176470586 463.4313099041534 3814.8529411764707 471.6102236421725 3793.9117647058824 471.6102236421725 3772.970588235294 473.6549520766773 3752.029411764706 483.87859424920134 3731.0882352941176 487.96805111821084 3710.1470588235293 492.05750798722045 3689.205882352941 492.05750798722045 3668.264705882353 496.14696485623006 3647.323529411765 496.14696485623006 3626.3823529411766 498.19169329073486 3605.4411764705883 500.23642172523967 3584.5 508.41533546325877 3563.5588235294117 514.5495207667732 3542.6176470588234 522.7284345047924 3521.676470588235 528.8626198083067 3500.735294117647 539.0862619808306 3479.794117647059 543.1757188498402 3458.8529411764707 543.1757188498402 3437.9117647058824 543.1757188498402 3416.970588235294 545.220447284345 3396.029411764706 549.3099041533546 3375.0882352941176 557.4888178913739 3354.1470588235293 561.5782747603835 3333.205882352941 563.6230031948883 3312.264705882353 563.6230031948883 3291.323529411765 571.8019169329074 3270.3823529411766 571.8019169329074 3249.4411764705883 582.0255591054313 3228.5 602.4728434504793 3228.5 1038Z" fill="#005aa6" opacity="0.9" />
		</g>
		<g>
			<path d="M3228.5 602.4728434504793 3249.4411764705883 582.0255591054313 3270.3823529411766 571.8019169329074 3291.323529411765 571.8019169329074 3312.264705882353 563.6230031948883 3333.205882352941 563.6230031948883 3354.1470588235293 561.5782747603835 3375.0882352941176 557.4888178913739 3396.029411764706 549.3099041533546 3416.970588235294 545.220447284345 3437.9117647058824 543.1757188498402 3458.8529411764707 543.1757188498402 3479.794117647059 543.1757188498402 3500.735294117647 539.0862619808306 3521.676470588235 528.8626198083067 3542.6176470588234 522.7284345047924 3563.5588235294117 514.5495207667732 3584.5 508.41533546325877 3605.4411764705883 500.23642172523967 3626.3823529411766 498.19169329073486 3647.323529411765 496.14696485623006 3668.264705882353 496.14696485623006 3689.205882352941 492.05750798722045 3710.1470588235293 492.05750798722045 3731.0882352941176 487.96805111821084 3752.029411764706 483.87859424920134 3772.970588235294 473.6549520766773 3793.9117647058824 471.6102236421725 3814.8529411764707 471.6102236421725 3835.7941176470586 463.4313099041534 3856.735294117647 457.297124600639 3877.676470588235 453.2076677316294 3898.6176470588234 455.2523961661342 3919.5588235294117 455.2523961661342 3940.5 449.1182108626199 3961.4411764705883 436.84984025559106 3982.3823529411766 428.67092651757196 4003.323529411765 422.53674121405754 4024.264705882353 420.49201277955274 4045.2058823529414 416.40255591054313 4066.1470588235293 416.40255591054313 4087.0882352941176 416.40255591054313 4108.029411764706 414.3578274760383 4128.970588235294 410.2683706070288 4149.911764705882 410.2683706070288 4170.85294117647 408.223642172524 4191.794117647059 406.1789137380192 4212.735294117647 404.1341853035144 4233.676470588235 404.1341853035144 4254.617647058823 402.0894568690096 4275.558823529412 402.0894568690096 4296.5 400.0447284345048 4296.5 398 4275.558823529412 400.0447284345048 4254.617647058823 400.0447284345048 4233.676470588235 402.0894568690096 4212.735294117647 402.0894568690096 4191.794117647059 404.1341853035144 4170.85294117647 406.1789137380192 4149.911764705882 408.223642172524 4128.970588235294 408.223642172524 4108.029411764706 412.3130990415335 4087.0882352941176 414.3578274760383 4066.1470588235293 414.3578274760383 4045.2058823529414 414.3578274760383 4024.264705882353 418.44728434504793 4003.323529411765 420.49201277955274 3982.3823529411766 426.62619808306715 3961.4411764705883 434.80511182108626 3940.5 447.0734824281151 3919.5588235294117 453.2076677316294 3898.6176470588234 453.2076677316294 3877.676470588235 451.1629392971246 3856.735294117647 455.2523961661342 3835.7941176470586 461.3865814696486 3814.8529411764707 469.5654952076677 3793.9117647058824 469.5654952076677 3772.970588235294 471.6102236421725 3752.029411764706 481.83386581469654 3731.0882352941176 485.92332268370603 3710.1470588235293 490.01277955271564 3689.205882352941 490.01277955271564 3668.264705882353 494.10223642172525 3647.323529411765 494.10223642172525 3626.3823529411766 496.14696485623006 3605.4411764705883 498.19169329073486 3584.5 506.37060702875397 3563.5588235294117 512.5047923322684 3542.6176470588234 520.6837060702876 3521.676470588235 526.8178913738019 3500.735294117647 537.0415335463258 3479.794117647059 541.1309904153354 3458.8529411764707 541.1309904153354 3437.9117647058824 541.1309904153354 3416.970588235294 543.1757188498402 3396.029411764706 547.2651757188498 3375.0882352941176 555.444089456869 3354.1470588235293 559.5335463258787 3333.205882352941 561.5782747603835 3312.264705882353 561.5782747603835 3291.323529411765 569.7571884984026 3270.3823529411766 569.7571884984026 3249.4411764705883 579.9808306709265 3228.5 600.4281150159745 3228.5 602.4728434504793Z" fill="#e62d39" opacity="0.9" />
		</g>
		<g>
			<rect x="4372" y="431" width="22.9995" height="23" fill="#005aa6" />
		</g>
		<g>
			<text fill="#595959" font-family="Verdana,sans-serif" font-weight="400" font-size="41" transform="matrix(1 0 0 1 4404.56 454)">Crawler</text>
		</g>
		<g>
			<rect x="4372" y="508" width="22.9995" height="23" fill="#e62d39" />
		</g>
		<g>
			<text fill="#595959" font-family="Verdana,sans-serif" font-weight="400" font-size="41" transform="matrix(1 0 0 1 4404.56 531)">Non-Crawler</text>
		</g>
	</g>
</svg>
