<svg width="1763" height="1046"
    xmlns="http://www.w3.org/2000/svg"
	xmlns:xlink="http://www.w3.org/1999/xlink" xml:space="preserve" overflow="hidden">
	<defs>
		<clipPath id="clip0">
			<rect x="2917" y="346" width="1763" height="1046"/>
		</clipPath>
	</defs>
	<g clip-path="url(#clip0)" transform="translate(-2917 -346)">
		<rect x="2918" y="347" width="1760" height="1043" fill="#FFFFFF" />
		<g>
			<path d="
			M3228.5 974.532 4296.5 974.532
			M3228.5 910.53 4296.5 910.53
			M3228.5 846.528 4296.5 846.528
			M3228.5 781.526 4296.5 781.526
			M3228.5 717.524 4296.5 717.524
			M3228.5 653.522 4296.5 653.522
			M3228.5 589.52 4296.5 589.52
			M3228.5 525.517 4296.5 525.517
			M3228.5 461.515 4296.5 461.515
			M3228.5 397.5 4296.5 397.5" stroke="#D9D9D9" stroke-width="3.4375" stroke-linejoin="round" stroke-miterlimit="10" fill="none" />
		</g>
		<g>
			<path d="M 1038.5 4296.5 1038.5" stroke="#D9D9D9" stroke-width="3.4375" stroke-linejoin="round" stroke-miterlimit="10" fill="none" fill-rule="evenodd" />
		</g>
		<g>
			<text fill="#595959" font-family="Verdana,Open Sans,DejaVu Sans,sans-serif" font-weight="400" font-size="41" transform="matrix(6.12323e-17 -1 1 6.12323e-17 3247.928955078125 1179.0385665893555)">22-Jul</text>
		</g>
		<g>
			<text fill="#595959" font-family="Verdana,Open Sans,DejaVu Sans,sans-serif" font-weight="400" font-size="41" transform="matrix(6.12323e-17 -1 1 6.12323e-17 3333.709287109375 1206.90576171875)">19-Aug</text>
		</g>
		<g>
			<text fill="#595959" font-family="Verdana,Open Sans,DejaVu Sans,sans-serif" font-weight="400" font-size="41" transform="matrix(6.12323e-17 -1 1 6.12323e-17 3419.149287109375 1202.66162109375)">16-Sep</text>
		</g>
		<g>
			<text fill="#595959" font-family="Verdana,Open Sans,DejaVu Sans,sans-serif" font-weight="400" font-size="41" transform="matrix(6.12323e-17 -1 1 6.12323e-17 3499.884697265625 1199.3784103393555)">14-Oct</text>
		</g>
		<g>
			<text fill="#595959" font-family="Verdana,Open Sans,DejaVu Sans,sans-serif" font-weight="400" font-size="41" transform="matrix(6.12323e-17 -1 1 6.12323e-17 3585.09447265625 1209.70849609375)">11-Nov</text>
		</g>
		<g>
			<text fill="#595959" font-family="Verdana,Open Sans,DejaVu Sans,sans-serif" font-weight="400" font-size="41" transform="matrix(6.12323e-17 -1 1 6.12323e-17 3670.744677734375 1205.3642578125)">16-Dec</text>
		</g>
		<g>
			<text fill="#595959" font-family="Verdana,Open Sans,DejaVu Sans,sans-serif" font-weight="400" font-size="41" transform="matrix(6.12323e-17 -1 1 6.12323e-17 3759.8382421875 1189.9291915893555)">13-Jan</text>
		</g>
		<g>
			<text fill="#595959" font-family="Verdana,Open Sans,DejaVu Sans,sans-serif" font-weight="400" font-size="41" transform="matrix(6.12323e-17 -1 1 6.12323e-17 3842.355390625 1201.3203125)">10-Feb</text>
		</g>
		<g>
			<text fill="#595959" font-family="Verdana,Open Sans,DejaVu Sans,sans-serif" font-weight="400" font-size="41" transform="matrix(6.12323e-17 -1 1 6.12323e-17 3927.084697265625 1210.2890625)">10-Mar</text>
		</g>
		<g>
			<text fill="#595959" font-family="Verdana,Open Sans,DejaVu Sans,sans-serif" font-weight="400" font-size="41" transform="matrix(6.12323e-17 -1 1 6.12323e-17 4017.249306640625 1203.2621994018555)">07-Apr</text>
		</g>
		<g>
			<text fill="#595959" font-family="Verdana,Open Sans,DejaVu Sans,sans-serif" font-weight="400" font-size="41" transform="matrix(6.12323e-17 -1 1 6.12323e-17 4102.689306640625 1216.47509765625)">05-May</text>
		</g>
		<g>
			<text fill="#595959" font-family="Verdana,Open Sans,DejaVu Sans,sans-serif" font-weight="400" font-size="41" transform="matrix(6.12323e-17 -1 1 6.12323e-17 4187.05826171875 1194.0131759643555)">09-Jun</text>
		</g>
		<g>
			<text fill="#595959" font-family="Verdana,Open Sans,DejaVu Sans,sans-serif" font-weight="400" font-size="41" transform="matrix(6.12323e-17 -1 1 6.12323e-17 4273.208955078125 1178.9985275268555)">07-Jul</text>
		</g>
		<g>
			<text fill="#595959" font-family="Verdana,Open Sans,DejaVu Sans,sans-serif" font-weight="400" font-size="41" transform="matrix(1 0 0 1 3169.14111328125 1050)">0</text>
		</g>
		<g>
			<text fill="#595959" font-family="Verdana,Open Sans,DejaVu Sans,sans-serif" font-weight="400" font-size="41" transform="matrix(1 0 0 1 3145.95849609375 922)">66</text>
		</g>
		<g>
			<text fill="#595959" font-family="Verdana,Open Sans,DejaVu Sans,sans-serif" font-weight="400" font-size="41" transform="matrix(1 0 0 1 3124.13720703125 794)">132</text>
		</g>
		<g>
			<text fill="#595959" font-family="Verdana,Open Sans,DejaVu Sans,sans-serif" font-weight="400" font-size="41" transform="matrix(1 0 0 1 3124.05712890625 666)">198</text>
		</g>
		<g>
			<text fill="#595959" font-family="Verdana,Open Sans,DejaVu Sans,sans-serif" font-weight="400" font-size="41" transform="matrix(1 0 0 1 3120.994140625 538)">264</text>
		</g>
		<g>
			<text fill="#595959" font-family="Verdana,Open Sans,DejaVu Sans,sans-serif" font-weight="400" font-size="41" transform="matrix(1 0 0 1 3122.09521484375 410)">330</text>
		</g>
		<g>
			<text fill="#595959" font-family="Verdana,Open Sans,DejaVu Sans,sans-serif" font-weight="400" font-size="41" transform="matrix(1 0 0 1 3556.97119140625 1321)">Week Commencing</text>
		</g>
		<g>
			<text fill="#595959" font-family="Verdana,Open Sans,DejaVu Sans,sans-serif" font-weight="400" font-size="46" transform="matrix(6.12323e-17 -1 1 6.12323e-17 3019.73 1005.4858093261719)">Number of Crawler Profiles</text>
		</g>
		<rect x="2918.5" y="347.5" width="1760" height="1043" stroke="#D9D9D9" stroke-width="3.4375" stroke-linejoin="round" stroke-miterlimit="10" fill="none" />
		<g>
			<path d="M3228.5 1038 3249.86 1038 3271.22 1038 3292.58 1038 3313.94 1038 3335.3 1038 3356.66 1038 3378.02 1038 3399.38 1038 3420.74 1038 3442.1 1038 3463.46 1038 3484.82 1038 3506.18 1038 3527.54 1038 3548.9 1038 3570.26 1038 3591.62 1038 3612.98 1038 3634.34 1038 3655.7 1038 3677.06 1038 3698.42 1038 3719.7799999999997 1038 3741.14 1038 3762.5 1038 3783.86 1038 3805.2200000000003 1038 3826.58 1038 3847.94 1038 3869.3 1038 3890.66 1038 3912.02 1038 3933.38 1038 3954.74 1038 3976.1 1038 3997.46 1038 4018.8199999999997 1038 4040.18 1038 4061.54 1038 4082.9 1038 4104.26 1038 4125.62 1038 4146.98 1038 4168.34 1038 4189.7 1038 4211.0599999999995 1038 4232.42 1038 4253.78 1038 4275.139999999999 1038 4296.5 1038 4296.5 399.9393939393939 4275.139999999999 399.9393939393939 4253.78 401.8787878787879 4232.42 401.8787878787879 4211.0599999999995 411.5757575757575 4189.7 413.5151515151515 4168.34 413.5151515151515 4146.98 417.3939393939394 4125.62 419.33333333333337 4104.26 425.1515151515151 4082.9 427.0909090909091 4061.54 429.030303030303 4040.18 430.969696969697 4018.8199999999997 430.969696969697 3997.46 430.969696969697 3976.1 432.9090909090909 3954.74 432.9090909090909 3933.38 432.9090909090909 3912.02 434.8484848484849 3890.66 434.8484848484849 3869.3 436.78787878787875 3847.94 436.78787878787875 3826.58 438.72727272727275 3805.2200000000003 440.66666666666663 3783.86 442.6060606060606 3762.5 442.6060606060606 3741.14 446.4848484848485 3719.7799999999997 448.4242424242424 3698.42 448.4242424242424 3677.06 448.4242424242424 3655.7 452.30303030303025 3634.34 454.24242424242425 3612.98 460.060606060606 3591.62 467.81818181818176 3570.26 479.4545454545455 3548.9 485.27272727272725 3527.54 485.27272727272725 3506.18 483.33333333333337 3484.82 487.21212121212125 3463.46 493.030303030303 3442.1 500.78787878787875 3420.74 500.78787878787875 3399.38 502.72727272727275 3378.02 512.4242424242424 3356.66 516.3030303030303 3335.3 520.1818181818181 3313.94 520.1818181818181 3292.58 524.060606060606 3271.22 524.060606060606 3249.86 526 3228.5 527.939393939394 3228.5 1038Z" fill="#005aa6" opacity="0.9" />
		</g>
		<g>
			<path d="M3228.5 527.939393939394 3249.86 526 3271.22 524.060606060606 3292.58 524.060606060606 3313.94 520.1818181818181 3335.3 520.1818181818181 3356.66 516.3030303030303 3378.02 512.4242424242424 3399.38 502.72727272727275 3420.74 500.78787878787875 3442.1 500.78787878787875 3463.46 493.030303030303 3484.82 487.21212121212125 3506.18 483.33333333333337 3527.54 485.27272727272725 3548.9 485.27272727272725 3570.26 479.4545454545455 3591.62 467.81818181818176 3612.98 460.060606060606 3634.34 454.24242424242425 3655.7 452.30303030303025 3677.06 448.4242424242424 3698.42 448.4242424242424 3719.7799999999997 448.4242424242424 3741.14 446.4848484848485 3762.5 442.6060606060606 3783.86 442.6060606060606 3805.2200000000003 440.66666666666663 3826.58 438.72727272727275 3847.94 436.78787878787875 3869.3 436.78787878787875 3890.66 434.8484848484849 3912.02 434.8484848484849 3933.38 432.9090909090909 3954.74 432.9090909090909 3976.1 432.9090909090909 3997.46 430.969696969697 4018.8199999999997 430.969696969697 4040.18 430.969696969697 4061.54 429.030303030303 4082.9 427.0909090909091 4104.26 425.1515151515151 4125.62 419.33333333333337 4146.98 417.3939393939394 4168.34 413.5151515151515 4189.7 413.5151515151515 4211.0599999999995 411.5757575757575 4232.42 401.8787878787879 4253.78 401.8787878787879 4275.139999999999 399.9393939393939 4296.5 399.9393939393939 4296.5 397.99999999999994 4275.139999999999 397.99999999999994 4253.78 399.93939393939394 4232.42 399.93939393939394 4211.0599999999995 409.63636363636357 4189.7 411.57575757575756 4168.34 411.57575757575756 4146.98 415.45454545454544 4125.62 417.39393939393943 4104.26 423.2121212121212 4082.9 425.1515151515152 4061.54 427.09090909090907 4040.18 429.03030303030306 4018.8199999999997 429.03030303030306 3997.46 429.03030303030306 3976.1 430.96969696969694 3954.74 430.96969696969694 3933.38 430.96969696969694 3912.02 432.90909090909093 3890.66 432.90909090909093 3869.3 434.8484848484848 3847.94 434.8484848484848 3826.58 436.7878787878788 3805.2200000000003 438.7272727272727 3783.86 440.6666666666667 3762.5 440.6666666666667 3741.14 444.54545454545456 3719.7799999999997 446.48484848484844 3698.42 446.48484848484844 3677.06 446.48484848484844 3655.7 450.3636363636363 3634.34 452.3030303030303 3612.98 458.12121212121207 3591.62 465.8787878787878 3570.26 477.51515151515156 3548.9 483.3333333333333 3527.54 483.3333333333333 3506.18 481.39393939393943 3484.82 485.2727272727273 3463.46 491.09090909090907 3442.1 498.8484848484848 3420.74 498.8484848484848 3399.38 500.7878787878788 3378.02 510.48484848484844 3356.66 514.3636363636363 3335.3 518.2424242424241 3313.94 518.2424242424241 3292.58 522.121212121212 3271.22 522.121212121212 3249.86 524.060606060606 3228.5 526 3228.5 527.939393939394Z" fill="#e62d39" opacity="0.9" />
		</g>
		<g>
			<rect x="4372" y="431" width="22.9995" height="23" fill="#005aa6" />
		</g>
		<g>
			<text fill="#595959" font-family="Verdana,Open Sans,DejaVu Sans,sans-serif" font-weight="400" font-size="41" transform="matrix(1 0 0 1 4404.56 454)">Crawler</text>
		</g>
		<g>
			<rect x="4372" y="508" width="22.9995" height="23" fill="#e62d39" />
		</g>
		<g>
			<text fill="#595959" font-family="Verdana,Open Sans,DejaVu Sans,sans-serif" font-weight="400" font-size="41" transform="matrix(1 0 0 1 4404.56 531)">Non-Crawler</text>
		</g>
	</g>
</svg>
