<svg width="1763" height="1046"
    xmlns="http://www.w3.org/2000/svg"
	xmlns:xlink="http://www.w3.org/1999/xlink" xml:space="preserve" overflow="hidden">
	<defs>
		<clipPath id="clip0">
			<rect x="2917" y="346" width="1763" height="1046"/>
		</clipPath>
	</defs>
	<g clip-path="url(#clip0)" transform="translate(-2917 -346)">
		<rect x="2918" y="347" width="1760" height="1043" fill="#FFFFFF" />
		<g>
			<path d="
			M3228.5 974.532 4296.5 974.532
			M3228.5 910.53 4296.5 910.53
			M3228.5 846.528 4296.5 846.528
			M3228.5 781.526 4296.5 781.526
			M3228.5 717.524 4296.5 717.524
			M3228.5 653.522 4296.5 653.522
			M3228.5 589.52 4296.5 589.52
			M3228.5 525.517 4296.5 525.517
			M3228.5 461.515 4296.5 461.515
			M3228.5 397.5 4296.5 397.5" stroke="#D9D9D9" stroke-width="3.4375" stroke-linejoin="round" stroke-miterlimit="10" fill="none" />
		</g>
		<g>
			<path d="M 1038.5 4296.5 1038.5" stroke="#D9D9D9" stroke-width="3.4375" stroke-linejoin="round" stroke-miterlimit="10" fill="none" fill-rule="evenodd" />
		</g>
		<g>
			<text fill="#595959" font-family="Verdana,Open Sans,DejaVu Sans,sans-serif" font-weight="400" font-size="41" transform="matrix(6.12323e-17 -1 1 6.12323e-17 3247.928955078125 1178.9985275268555)">08-Jul</text>
		</g>
		<g>
			<text fill="#595959" font-family="Verdana,Open Sans,DejaVu Sans,sans-serif" font-weight="400" font-size="41" transform="matrix(6.12323e-17 -1 1 6.12323e-17 3335.472980110013 1208.62744140625)">05-Aug</text>
		</g>
		<g>
			<text fill="#595959" font-family="Verdana,Open Sans,DejaVu Sans,sans-serif" font-weight="400" font-size="41" transform="matrix(6.12323e-17 -1 1 6.12323e-17 3422.6566535794004 1204.38330078125)">02-Sep</text>
		</g>
		<g>
			<text fill="#595959" font-family="Verdana,Open Sans,DejaVu Sans,sans-serif" font-weight="400" font-size="41" transform="matrix(6.12323e-17 -1 1 6.12323e-17 3509.8403270487884 1204.54345703125)">30-Sep</text>
		</g>
		<g>
			<text fill="#595959" font-family="Verdana,Open Sans,DejaVu Sans,sans-serif" font-weight="400" font-size="41" transform="matrix(6.12323e-17 -1 1 6.12323e-17 3592.299391143176 1201.1401290893555)">28-Oct</text>
		</g>
		<g>
			<text fill="#595959" font-family="Verdana,Open Sans,DejaVu Sans,sans-serif" font-weight="400" font-size="41" transform="matrix(6.12323e-17 -1 1 6.12323e-17 3679.463045081314 1211.47021484375)">25-Nov</text>
		</g>
		<g>
			<text fill="#595959" font-family="Verdana,Open Sans,DejaVu Sans,sans-serif" font-weight="400" font-size="41" transform="matrix(6.12323e-17 -1 1 6.12323e-17 3766.6667380819517 1207.24609375)">30-Dec</text>
		</g>
		<g>
			<text fill="#595959" font-family="Verdana,Open Sans,DejaVu Sans,sans-serif" font-weight="400" font-size="41" transform="matrix(6.12323e-17 -1 1 6.12323e-17 3857.483956473214 1191.6909103393555)">27-Jan</text>
		</g>
		<g>
			<text fill="#595959" font-family="Verdana,Open Sans,DejaVu Sans,sans-serif" font-weight="400" font-size="41" transform="matrix(6.12323e-17 -1 1 6.12323e-17 3941.744778380102 1203.08203125)">24-Feb</text>
		</g>
		<g>
			<text fill="#595959" font-family="Verdana,Open Sans,DejaVu Sans,sans-serif" font-weight="400" font-size="41" transform="matrix(6.12323e-17 -1 1 6.12323e-17 4028.1977389588646 1212.05078125)">24-Mar</text>
		</g>
		<g>
			<text fill="#595959" font-family="Verdana,Open Sans,DejaVu Sans,sans-serif" font-weight="400" font-size="41" transform="matrix(6.12323e-17 -1 1 6.12323e-17 4120.106021803253 1203.3022384643555)">21-Apr</text>
		</g>
		<g>
			<text fill="#595959" font-family="Verdana,Open Sans,DejaVu Sans,sans-serif" font-weight="400" font-size="41" transform="matrix(6.12323e-17 -1 1 6.12323e-17 4207.2896952726405 1214.75341796875)">19-May</text>
		</g>
		<g>
			<text fill="#595959" font-family="Verdana,Open Sans,DejaVu Sans,sans-serif" font-weight="400" font-size="41" transform="matrix(6.12323e-17 -1 1 6.12323e-17 4293.4023238201535 1194.0532150268555)">23-Jun</text>
		</g>
		<g>
			<text fill="#595959" font-family="Verdana,Open Sans,DejaVu Sans,sans-serif" font-weight="400" font-size="41" transform="matrix(1 0 0 1 3169.14111328125 1050)">0</text>
		</g>
		<g>
			<text fill="#595959" font-family="Verdana,Open Sans,DejaVu Sans,sans-serif" font-weight="400" font-size="41" transform="matrix(1 0 0 1 3145.95849609375 922)">66</text>
		</g>
		<g>
			<text fill="#595959" font-family="Verdana,Open Sans,DejaVu Sans,sans-serif" font-weight="400" font-size="41" transform="matrix(1 0 0 1 3124.13720703125 794)">132</text>
		</g>
		<g>
			<text fill="#595959" font-family="Verdana,Open Sans,DejaVu Sans,sans-serif" font-weight="400" font-size="41" transform="matrix(1 0 0 1 3124.01708984375 666)">197</text>
		</g>
		<g>
			<text fill="#595959" font-family="Verdana,Open Sans,DejaVu Sans,sans-serif" font-weight="400" font-size="41" transform="matrix(1 0 0 1 3122.57568359375 538)">263</text>
		</g>
		<g>
			<text fill="#595959" font-family="Verdana,Open Sans,DejaVu Sans,sans-serif" font-weight="400" font-size="41" transform="matrix(1 0 0 1 3122.25537109375 410)">329</text>
		</g>
		<g>
			<text fill="#595959" font-family="Verdana,Open Sans,DejaVu Sans,sans-serif" font-weight="400" font-size="41" transform="matrix(1 0 0 1 3556.97119140625 1321)">Week Commencing</text>
		</g>
		<g>
			<text fill="#595959" font-family="Verdana,Open Sans,DejaVu Sans,sans-serif" font-weight="400" font-size="46" transform="matrix(6.12323e-17 -1 1 6.12323e-17 3019.73 1005.4858093261719)">Number of Crawler Profiles</text>
		</g>
		<rect x="2918.5" y="347.5" width="1760" height="1043" stroke="#D9D9D9" stroke-width="3.4375" stroke-linejoin="round" stroke-miterlimit="10" fill="none" />
		<g>
			<path d="M3228.5 1038 3250.295918367347 1038 3272.091836734694 1038 3293.887755102041 1038 3315.683673469388 1038 3337.4795918367345 1038 3359.2755102040815 1038 3381.0714285714284 1038 3402.8673469387754 1038 3424.6632653061224 1038 3446.4591836734694 1038 3468.2551020408164 1038 3490.0510204081634 1038 3511.8469387755104 1038 3533.6428571428573 1038 3555.4387755102043 1038 3577.234693877551 1038 3599.030612244898 1038 3620.826530612245 1038 3642.622448979592 1038 3664.418367346939 1038 3686.214285714286 1038 3708.0102040816328 1038 3729.8061224489797 1038 3751.6020408163267 1038 3773.3979591836733 1038 3795.1938775510203 1038 3816.9897959183672 1038 3838.785714285714 1038 3860.581632653061 1038 3882.377551020408 1038 3904.173469387755 1038 3925.969387755102 1038 3947.765306122449 1038 3969.5612244897957 1038 3991.357142857143 1038 4013.1530612244896 1038 4034.9489795918366 1038 4056.7448979591836 1038 4078.5408163265306 1038 4100.336734693878 1038 4122.132653061224 1038 4143.928571428572 1038 4165.724489795918 1038 4187.5204081632655 1038 4209.316326530612 1038 4231.1122448979595 1038 4252.908163265306 1038 4274.7040816326535 1038 4296.5 1038 4296.5 399.94528875379933 4274.7040816326535 409.67173252279633 4252.908163265306 411.6170212765958 4231.1122448979595 411.6170212765958 4209.316326530612 415.50759878419456 4187.5204081632655 417.4528875379939 4165.724489795918 423.2887537993921 4143.928571428572 425.23404255319144 4122.132653061224 427.1793313069909 4100.336734693878 429.1246200607902 4078.5408163265306 429.1246200607902 4056.7448979591836 429.1246200607902 4034.9489795918366 431.06990881458967 4013.1530612244896 431.06990881458967 3991.357142857143 431.06990881458967 3969.5612244897957 433.015197568389 3947.765306122449 433.015197568389 3925.969387755102 434.96048632218844 3904.173469387755 434.96048632218844 3882.377551020408 436.9057750759878 3860.581632653061 438.8510638297872 3838.785714285714 440.79635258358667 3816.9897959183672 440.79635258358667 3795.1938775510203 444.68693009118545 3773.3979591836733 446.6322188449848 3751.6020408163267 446.6322188449848 3729.8061224489797 446.6322188449848 3708.0102040816328 450.52279635258355 3686.214285714286 452.468085106383 3664.418367346939 458.3039513677811 3642.622448979592 466.08510638297867 3620.826530612245 477.7568389057751 3599.030612244898 483.5927051671732 3577.234693877551 483.5927051671732 3555.4387755102043 481.6474164133739 3533.6428571428573 485.53799392097267 3511.8469387755104 491.3738601823708 3490.0510204081634 499.15501519756833 3468.2551020408164 499.15501519756833 3446.4591836734694 501.1003039513678 3424.6632653061224 510.8267477203648 3402.8673469387754 514.7173252279636 3381.0714285714284 518.6079027355623 3359.2755102040815 518.6079027355623 3337.4795918367345 522.4984802431611 3315.683673469388 522.4984802431611 3293.887755102041 524.4437689969604 3272.091836734694 526.3890577507599 3250.295918367347 534.1702127659574 3228.5 540.0060790273556 3228.5 1038Z" fill="#005aa6" opacity="0.9" />
		</g>
		<g>
			<path d="M3228.5 540.0060790273556 3250.295918367347 534.1702127659574 3272.091836734694 526.3890577507599 3293.887755102041 524.4437689969604 3315.683673469388 522.4984802431611 3337.4795918367345 522.4984802431611 3359.2755102040815 518.6079027355623 3381.0714285714284 518.6079027355623 3402.8673469387754 514.7173252279636 3424.6632653061224 510.8267477203648 3446.4591836734694 501.1003039513678 3468.2551020408164 499.15501519756833 3490.0510204081634 499.15501519756833 3511.8469387755104 491.3738601823708 3533.6428571428573 485.53799392097267 3555.4387755102043 481.6474164133739 3577.234693877551 483.5927051671732 3599.030612244898 483.5927051671732 3620.826530612245 477.7568389057751 3642.622448979592 466.08510638297867 3664.418367346939 458.3039513677811 3686.214285714286 452.468085106383 3708.0102040816328 450.52279635258355 3729.8061224489797 446.6322188449848 3751.6020408163267 446.6322188449848 3773.3979591836733 446.6322188449848 3795.1938775510203 444.68693009118545 3816.9897959183672 440.79635258358667 3838.785714285714 440.79635258358667 3860.581632653061 438.8510638297872 3882.377551020408 436.9057750759878 3904.173469387755 434.96048632218844 3925.969387755102 434.96048632218844 3947.765306122449 433.015197568389 3969.5612244897957 433.015197568389 3991.357142857143 431.06990881458967 4013.1530612244896 431.06990881458967 4034.9489795918366 431.06990881458967 4056.7448979591836 429.1246200607902 4078.5408163265306 429.1246200607902 4100.336734693878 429.1246200607902 4122.132653061224 427.1793313069909 4143.928571428572 425.23404255319144 4165.724489795918 423.2887537993921 4187.5204081632655 417.4528875379939 4209.316326530612 415.50759878419456 4231.1122448979595 411.6170212765958 4252.908163265306 411.6170212765958 4274.7040816326535 409.67173252279633 4296.5 399.94528875379933 4296.5 397.99999999999994 4274.7040816326535 407.72644376899694 4252.908163265306 409.6717325227964 4231.1122448979595 409.6717325227964 4209.316326530612 413.56231003039517 4187.5204081632655 415.5075987841945 4165.724489795918 421.3434650455927 4143.928571428572 423.28875379939205 4122.132653061224 425.2340425531915 4100.336734693878 427.17933130699083 4078.5408163265306 427.17933130699083 4056.7448979591836 427.17933130699083 4034.9489795918366 429.1246200607903 4013.1530612244896 429.1246200607903 3991.357142857143 429.1246200607903 3969.5612244897957 431.0699088145896 3947.765306122449 431.0699088145896 3925.969387755102 433.01519756838906 3904.173469387755 433.01519756838906 3882.377551020408 434.9604863221884 3860.581632653061 436.90577507598783 3838.785714285714 438.8510638297873 3816.9897959183672 438.8510638297873 3795.1938775510203 442.74164133738606 3773.3979591836733 444.6869300911854 3751.6020408163267 444.6869300911854 3729.8061224489797 444.6869300911854 3708.0102040816328 448.57750759878417 3686.214285714286 450.5227963525836 3664.418367346939 456.3586626139817 3642.622448979592 464.1398176291793 3620.826530612245 475.8115501519757 3599.030612244898 481.64741641337383 3577.234693877551 481.64741641337383 3555.4387755102043 479.7021276595745 3533.6428571428573 483.5927051671733 3511.8469387755104 489.4285714285714 3490.0510204081634 497.20972644376894 3468.2551020408164 497.20972644376894 3446.4591836734694 499.1550151975684 3424.6632653061224 508.8814589665654 3402.8673469387754 512.7720364741641 3381.0714285714284 516.6626139817629 3359.2755102040815 516.6626139817629 3337.4795918367345 520.5531914893617 3315.683673469388 520.5531914893617 3293.887755102041 522.498480243161 3272.091836734694 524.4437689969604 3250.295918367347 532.224924012158 3228.5 538.0607902735561 3228.5 540.0060790273556Z" fill="#e62d39" opacity="0.9" />
		</g>
		<g>
			<rect x="4372" y="431" width="22.9995" height="23" fill="#005aa6" />
		</g>
		<g>
			<text fill="#595959" font-family="Verdana,Open Sans,DejaVu Sans,sans-serif" font-weight="400" font-size="41" transform="matrix(1 0 0 1 4404.56 454)">Crawler</text>
		</g>
		<g>
			<rect x="4372" y="508" width="22.9995" height="23" fill="#e62d39" />
		</g>
		<g>
			<text fill="#595959" font-family="Verdana,Open Sans,DejaVu Sans,sans-serif" font-weight="400" font-size="41" transform="matrix(1 0 0 1 4404.56 531)">Non-Crawler</text>
		</g>
	</g>
</svg>
