<svg width="1763" height="1046"
    xmlns="http://www.w3.org/2000/svg"
	xmlns:xlink="http://www.w3.org/1999/xlink" xml:space="preserve" overflow="hidden">
	<defs>
		<clipPath id="clip0">
			<rect x="2917" y="346" width="1763" height="1046"/>
		</clipPath>
	</defs>
	<g clip-path="url(#clip0)" transform="translate(-2917 -346)">
		<rect x="2918" y="347" width="1760" height="1043" fill="#FFFFFF" />
		<g>
			<path d="
			M3228.5 974.532 4296.5 974.532
			M3228.5 910.53 4296.5 910.53
			M3228.5 846.528 4296.5 846.528
			M3228.5 781.526 4296.5 781.526
			M3228.5 717.524 4296.5 717.524
			M3228.5 653.522 4296.5 653.522
			M3228.5 589.52 4296.5 589.52
			M3228.5 525.517 4296.5 525.517
			M3228.5 461.515 4296.5 461.515
			M3228.5 397.5 4296.5 397.5" stroke="#D9D9D9" stroke-width="3.4375" stroke-linejoin="round" stroke-miterlimit="10" fill="none" />
		</g>
		<g>
			<path d="M 1038.5 4296.5 1038.5" stroke="#D9D9D9" stroke-width="3.4375" stroke-linejoin="round" stroke-miterlimit="10" fill="none" fill-rule="evenodd" />
		</g>
		<g>
			<text fill="#595959" font-family="Verdana,sans-serif" font-weight="400" font-size="41" transform="matrix(6.12323e-17 -1 1 6.12323e-17 3244.5 1225)">06-Nov</text>
		</g>
		<g>
			<text fill="#595959" font-family="Verdana,sans-serif" font-weight="400" font-size="41" transform="matrix(6.12323e-17 -1 1 6.12323e-17 3346.214285714286 1223)">04-Dec</text>
		</g>
		<g>
			<text fill="#595959" font-family="Verdana,sans-serif" font-weight="400" font-size="41" transform="matrix(6.12323e-17 -1 1 6.12323e-17 3447.9285714285716 1210)">01-Jan</text>
		</g>
		<g>
			<text fill="#595959" font-family="Verdana,sans-serif" font-weight="400" font-size="41" transform="matrix(6.12323e-17 -1 1 6.12323e-17 3549.642857142857 1210)">29-Jan</text>
		</g>
		<g>
			<text fill="#595959" font-family="Verdana,sans-serif" font-weight="400" font-size="41" transform="matrix(6.12323e-17 -1 1 6.12323e-17 3651.3571428571427 1216)">26-Feb</text>
		</g>
		<g>
			<text fill="#595959" font-family="Verdana,sans-serif" font-weight="400" font-size="41" transform="matrix(6.12323e-17 -1 1 6.12323e-17 3753.0714285714284 1223)">25-Mar</text>
		</g>
		<g>
			<text fill="#595959" font-family="Verdana,sans-serif" font-weight="400" font-size="41" transform="matrix(6.12323e-17 -1 1 6.12323e-17 3858.285714285714 1216)">22-Apr</text>
		</g>
		<g>
			<text fill="#595959" font-family="Verdana,sans-serif" font-weight="400" font-size="41" transform="matrix(6.12323e-17 -1 1 6.12323e-17 3960 1228)">20-May</text>
		</g>
		<g>
			<text fill="#595959" font-family="Verdana,sans-serif" font-weight="400" font-size="41" transform="matrix(6.12323e-17 -1 1 6.12323e-17 4057.714285714286 1209)">17-Jun</text>
		</g>
		<g>
			<text fill="#595959" font-family="Verdana,sans-serif" font-weight="400" font-size="41" transform="matrix(6.12323e-17 -1 1 6.12323e-17 4159.928571428572 1194)">15-Jul</text>
		</g>
		<g>
			<text fill="#595959" font-family="Verdana,sans-serif" font-weight="400" font-size="41" transform="matrix(6.12323e-17 -1 1 6.12323e-17 4265.142857142857 1218)">12-Aug</text>
		</g>
		<g>
			<text fill="#595959" font-family="Verdana,sans-serif" font-weight="400" font-size="41" transform="matrix(1 0 0 1 3123.5 1050)">0%</text>
		</g>
		<g>
			<text fill="#595959" font-family="Verdana,sans-serif" font-weight="400" font-size="41" transform="matrix(1 0 0 1 3097.5 922)">20%</text>
		</g>
		<g>
			<text fill="#595959" font-family="Verdana,sans-serif" font-weight="400" font-size="41" transform="matrix(1 0 0 1 3096.5 794)">40%</text>
		</g>
		<g>
			<text fill="#595959" font-family="Verdana,sans-serif" font-weight="400" font-size="41" transform="matrix(1 0 0 1 3097.5 666)">60%</text>
		</g>
		<g>
			<text fill="#595959" font-family="Verdana,sans-serif" font-weight="400" font-size="41" transform="matrix(1 0 0 1 3097.5 538)">80%</text>
		</g>
		<g>
			<text fill="#595959" font-family="Verdana,sans-serif" font-weight="400" font-size="41" transform="matrix(1 0 0 1 3074.5 410)">100%</text>
		</g>
		<g>
			<text fill="#595959" font-family="Verdana,sans-serif" font-weight="400" font-size="41" transform="matrix(1 0 0 1 3544.5 1321)">Week Commencing</text>
		</g>
		<g>
			<text fill="#595959" font-family="Verdana,sans-serif" font-weight="400" font-size="46" transform="matrix(6.12323e-17 -1 1 6.12323e-17 3019.73 965.25)">Requests (% of Total)</text>
		</g>
		<rect x="2918.5" y="347.5" width="1760" height="1043" stroke="#D9D9D9" stroke-width="3.4375" stroke-linejoin="round" stroke-miterlimit="10" fill="none" />
		<g>
			<path d="M3228.5 1038 3253.9285714285716 1038 3279.3571428571427 1038 3304.785714285714 1038 3330.214285714286 1038 3355.6428571428573 1038 3381.0714285714284 1038 3406.5 1038 3431.9285714285716 1038 3457.3571428571427 1038 3482.785714285714 1038 3508.214285714286 1038 3533.642857142857 1038 3559.0714285714284 1038 3584.5 1038 3609.9285714285716 1038 3635.3571428571427 1038 3660.785714285714 1038 3686.214285714286 1038 3711.642857142857 1038 3737.0714285714284 1038 3762.5 1038 3787.9285714285716 1038 3813.3571428571427 1038 3838.785714285714 1038 3864.214285714286 1038 3889.642857142857 1038 3915.0714285714284 1038 3940.5 1038 3965.9285714285716 1038 3991.3571428571427 1038 4016.785714285714 1038 4042.214285714286 1038 4067.642857142857 1038 4093.0714285714284 1038 4118.5 1038 4143.928571428572 1038 4169.357142857143 1038 4194.785714285714 1038 4220.214285714285 1038 4245.642857142857 1038 4271.071428571428 1038 4296.5 1038 4296.5 571.2237275515587 4271.071428571428 571.9035338843237 4245.642857142857 572.0631883952817 4220.214285714285 572.5486893796854 4194.785714285714 572.9112818795618 4169.357142857143 572.7332415748011 4143.928571428572 572.862060937991 4118.5 572.9365512268143 4093.0714285714284 572.8940388940463 4067.642857142857 572.4651830343407 4042.214285714286 572.6325422225004 4016.785714285714 571.5082651331143 3991.3571428571427 572.2322344669446 3965.9285714285716 572.7455283998808 3940.5 573.7260592446937 3915.0714285714284 574.7878423335366 3889.642857142857 575.6290427379265 3864.214285714286 575.9687876322813 3838.785714285714 576.8727971406818 3813.3571428571427 578.2473295586981 3787.9285714285716 579.8301495425726 3762.5 581.4258071436993 3737.0714285714284 583.4353029706369 3711.642857142857 585.2297796683877 3686.214285714286 569.3763139485983 3660.785714285714 569.4920790789085 3635.3571428571427 568.4210223578364 3609.9285714285716 567.328661211755 3584.5 566.161104092279 3559.0714285714284 566.5630760901624 3533.642857142857 566.9371867374394 3508.214285714286 565.7434322908556 3482.785714285714 565.3329344965637 3457.3571428571427 567.1306424721515 3431.9285714285716 546.6361313386333 3406.5 547.2360643741254 3381.0714285714284 547.9846296844262 3355.6428571428573 551.0672526834712 3330.214285714286 550.9210452859504 3304.785714285714 550.9050574683862 3279.3571428571427 550.8533354714161 3253.9285714285716 550.7560734149703 3228.5 551.2665692392751 3228.5 1038Z" fill="#e62d39" opacity="0.9" />
		</g>
		<g>
			<path d="M3228.5 551.2665692392751 3253.9285714285716 550.7560734149703 3279.3571428571427 550.8533354714161 3304.785714285714 550.9050574683862 3330.214285714286 550.9210452859504 3355.6428571428573 551.0672526834712 3381.0714285714284 547.9846296844262 3406.5 547.2360643741254 3431.9285714285716 546.6361313386333 3457.3571428571427 567.1306424721515 3482.785714285714 565.3329344965637 3508.214285714286 565.7434322908556 3533.642857142857 566.9371867374394 3559.0714285714284 566.5630760901624 3584.5 566.161104092279 3609.9285714285716 567.328661211755 3635.3571428571427 568.4210223578364 3660.785714285714 569.4920790789085 3686.214285714286 569.3763139485983 3711.642857142857 585.2297796683877 3737.0714285714284 583.4353029706369 3762.5 581.4258071436993 3787.9285714285716 579.8301495425726 3813.3571428571427 578.2473295586981 3838.785714285714 576.8727971406818 3864.214285714286 575.9687876322813 3889.642857142857 575.6290427379265 3915.0714285714284 574.7878423335366 3940.5 573.7260592446937 3965.9285714285716 572.7455283998808 3991.3571428571427 572.2322344669446 4016.785714285714 571.5082651331143 4042.214285714286 572.6325422225004 4067.642857142857 572.4651830343407 4093.0714285714284 572.8940388940463 4118.5 572.9365512268143 4143.928571428572 572.862060937991 4169.357142857143 572.7332415748011 4194.785714285714 572.9112818795618 4220.214285714285 572.5486893796854 4245.642857142857 572.0631883952817 4271.071428571428 571.9035338843237 4296.5 571.2237275515587 4296.5 398 4271.071428571428 398 4245.642857142857 398.00000000000006 4220.214285714285 398 4194.785714285714 397.99999999999994 4169.357142857143 398 4143.928571428572 397.99999999999994 4118.5 398.00000000000006 4093.0714285714284 398 4067.642857142857 398 4042.214285714286 398 4016.785714285714 397.99999999999994 3991.3571428571427 398.0000000000001 3965.9285714285716 398 3940.5 398 3915.0714285714284 398.00000000000006 3889.642857142857 398 3864.214285714286 398 3838.785714285714 397.99999999999994 3813.3571428571427 397.99999999999994 3787.9285714285716 398.0000000000001 3762.5 398 3737.0714285714284 398 3711.642857142857 398 3686.214285714286 398 3660.785714285714 398.00000000000006 3635.3571428571427 398.00000000000006 3609.9285714285716 398 3584.5 398.00000000000006 3559.0714285714284 397.99999999999994 3533.642857142857 398 3508.214285714286 398 3482.785714285714 397.99999999999994 3457.3571428571427 398.00000000000006 3431.9285714285716 398 3406.5 398.0000000000001 3381.0714285714284 398 3355.6428571428573 398 3330.214285714286 398 3304.785714285714 398 3279.3571428571427 398 3253.9285714285716 398 3228.5 398 3228.5 551.2665692392751Z" fill="#005aa6" opacity="0.9" />
		</g>
		<g>
			<rect x="4372" y="431" width="22.9995" height="23" fill="#e62d39" />
		</g>
		<g>
			<text fill="#595959" font-family="Verdana,sans-serif" font-weight="400" font-size="41" transform="matrix(1 0 0 1 4404.56 454)">Non-Crawler</text>
		</g>
		<g>
			<rect x="4372" y="508" width="22.9995" height="23" fill="#005aa6" />
		</g>
		<g>
			<text fill="#595959" font-family="Verdana,sans-serif" font-weight="400" font-size="41" transform="matrix(1 0 0 1 4404.56 531)">Crawler</text>
		</g>
	</g>
</svg>
