<svg width="1763" height="1046"
    xmlns="http://www.w3.org/2000/svg"
	xmlns:xlink="http://www.w3.org/1999/xlink" xml:space="preserve" overflow="hidden">
	<defs>
		<clipPath id="clip0">
			<rect x="2917" y="346" width="1763" height="1046"/>
		</clipPath>
	</defs>
	<g clip-path="url(#clip0)" transform="translate(-2917 -346)">
		<rect x="2918" y="347" width="1760" height="1043" fill="#FFFFFF" />
		<g>
			<path d="
			M3228.5 974.532 4296.5 974.532
			M3228.5 910.53 4296.5 910.53
			M3228.5 846.528 4296.5 846.528
			M3228.5 781.526 4296.5 781.526
			M3228.5 717.524 4296.5 717.524
			M3228.5 653.522 4296.5 653.522
			M3228.5 589.52 4296.5 589.52
			M3228.5 525.517 4296.5 525.517
			M3228.5 461.515 4296.5 461.515
			M3228.5 397.5 4296.5 397.5" stroke="#D9D9D9" stroke-width="3.4375" stroke-linejoin="round" stroke-miterlimit="10" fill="none" />
		</g>
		<g>
			<path d="M 1038.5 4296.5 1038.5" stroke="#D9D9D9" stroke-width="3.4375" stroke-linejoin="round" stroke-miterlimit="10" fill="none" fill-rule="evenodd" />
		</g>
		<g>
			<text fill="#595959" font-family="Verdana,Open Sans,DejaVu Sans,sans-serif" font-weight="400" font-size="41" transform="matrix(6.12323e-17 -1 1 6.12323e-17 3243.544677734375 1207.1259765625)">23-Dec</text>
		</g>
		<g>
			<text fill="#595959" font-family="Verdana,Open Sans,DejaVu Sans,sans-serif" font-weight="400" font-size="41" transform="matrix(6.12323e-17 -1 1 6.12323e-17 3332.65826171875 1191.6909103393555)">20-Jan</text>
		</g>
		<g>
			<text fill="#595959" font-family="Verdana,Open Sans,DejaVu Sans,sans-serif" font-weight="400" font-size="41" transform="matrix(6.12323e-17 -1 1 6.12323e-17 3415.155390625 1201.3203125)">17-Feb</text>
		</g>
		<g>
			<text fill="#595959" font-family="Verdana,Open Sans,DejaVu Sans,sans-serif" font-weight="400" font-size="41" transform="matrix(6.12323e-17 -1 1 6.12323e-17 3499.65447265625 1210.2890625)">17-Mar</text>
		</g>
		<g>
			<text fill="#595959" font-family="Verdana,Open Sans,DejaVu Sans,sans-serif" font-weight="400" font-size="41" transform="matrix(6.12323e-17 -1 1 6.12323e-17 3589.89916015625 1201.5405197143555)">14-Apr</text>
		</g>
		<g>
			<text fill="#595959" font-family="Verdana,Open Sans,DejaVu Sans,sans-serif" font-weight="400" font-size="41" transform="matrix(6.12323e-17 -1 1 6.12323e-17 3675.469287109375 1214.75341796875)">12-May</text>
		</g>
		<g>
			<text fill="#595959" font-family="Verdana,Open Sans,DejaVu Sans,sans-serif" font-weight="400" font-size="41" transform="matrix(6.12323e-17 -1 1 6.12323e-17 3759.8382421875 1192.2914962768555)">16-Jun</text>
		</g>
		<g>
			<text fill="#595959" font-family="Verdana,Open Sans,DejaVu Sans,sans-serif" font-weight="400" font-size="41" transform="matrix(6.12323e-17 -1 1 6.12323e-17 3846.008955078125 1177.2768478393555)">14-Jul</text>
		</g>
		<g>
			<text fill="#595959" font-family="Verdana,Open Sans,DejaVu Sans,sans-serif" font-weight="400" font-size="41" transform="matrix(6.12323e-17 -1 1 6.12323e-17 3931.639140625 1206.90576171875)">11-Aug</text>
		</g>
		<g>
			<text fill="#595959" font-family="Verdana,Open Sans,DejaVu Sans,sans-serif" font-weight="400" font-size="41" transform="matrix(6.12323e-17 -1 1 6.12323e-17 4017.249306640625 1204.38330078125)">08-Sep</text>
		</g>
		<g>
			<text fill="#595959" font-family="Verdana,Open Sans,DejaVu Sans,sans-serif" font-weight="400" font-size="41" transform="matrix(6.12323e-17 -1 1 6.12323e-17 4097.964697265625 1201.1000900268555)">06-Oct</text>
		</g>
		<g>
			<text fill="#595959" font-family="Verdana,Open Sans,DejaVu Sans,sans-serif" font-weight="400" font-size="41" transform="matrix(6.12323e-17 -1 1 6.12323e-17 4183.404697265625 1211.43017578125)">03-Nov</text>
		</g>
		<g>
			<text fill="#595959" font-family="Verdana,Open Sans,DejaVu Sans,sans-serif" font-weight="400" font-size="41" transform="matrix(6.12323e-17 -1 1 6.12323e-17 4268.844697265625 1207.0859375)">01-Dec</text>
		</g>
		<g>
			<text fill="#595959" font-family="Verdana,Open Sans,DejaVu Sans,sans-serif" font-weight="400" font-size="41" transform="matrix(1 0 0 1 3169.14111328125 1050)">0</text>
		</g>
		<g>
			<text fill="#595959" font-family="Verdana,Open Sans,DejaVu Sans,sans-serif" font-weight="400" font-size="41" transform="matrix(1 0 0 1 3146.15869140625 922)">69</text>
		</g>
		<g>
			<text fill="#595959" font-family="Verdana,Open Sans,DejaVu Sans,sans-serif" font-weight="400" font-size="41" transform="matrix(1 0 0 1 3124.01708984375 794)">137</text>
		</g>
		<g>
			<text fill="#595959" font-family="Verdana,Open Sans,DejaVu Sans,sans-serif" font-weight="400" font-size="41" transform="matrix(1 0 0 1 3122.17529296875 666)">206</text>
		</g>
		<g>
			<text fill="#595959" font-family="Verdana,Open Sans,DejaVu Sans,sans-serif" font-weight="400" font-size="41" transform="matrix(1 0 0 1 3120.994140625 538)">274</text>
		</g>
		<g>
			<text fill="#595959" font-family="Verdana,Open Sans,DejaVu Sans,sans-serif" font-weight="400" font-size="41" transform="matrix(1 0 0 1 3122.45556640625 410)">343</text>
		</g>
		<g>
			<text fill="#595959" font-family="Verdana,Open Sans,DejaVu Sans,sans-serif" font-weight="400" font-size="41" transform="matrix(1 0 0 1 3556.97119140625 1321)">Week Commencing</text>
		</g>
		<g>
			<text fill="#595959" font-family="Verdana,Open Sans,DejaVu Sans,sans-serif" font-weight="400" font-size="46" transform="matrix(6.12323e-17 -1 1 6.12323e-17 3019.73 1005.4858093261719)">Number of Crawler Profiles</text>
		</g>
		<rect x="2918.5" y="347.5" width="1760" height="1043" stroke="#D9D9D9" stroke-width="3.4375" stroke-linejoin="round" stroke-miterlimit="10" fill="none" />
		<g>
			<path d="M3228.5 1038 3249.86 1038 3271.22 1038 3292.58 1038 3313.94 1038 3335.3 1038 3356.66 1038 3378.02 1038 3399.38 1038 3420.74 1038 3442.1 1038 3463.46 1038 3484.82 1038 3506.18 1038 3527.54 1038 3548.9 1038 3570.26 1038 3591.62 1038 3612.98 1038 3634.34 1038 3655.7 1038 3677.06 1038 3698.42 1038 3719.7799999999997 1038 3741.14 1038 3762.5 1038 3783.86 1038 3805.2200000000003 1038 3826.58 1038 3847.94 1038 3869.3 1038 3890.66 1038 3912.02 1038 3933.38 1038 3954.74 1038 3976.1 1038 3997.46 1038 4018.8199999999997 1038 4040.18 1038 4061.54 1038 4082.9 1038 4104.26 1038 4125.62 1038 4146.98 1038 4168.34 1038 4189.7 1038 4211.0599999999995 1038 4232.42 1038 4253.78 1038 4275.139999999999 1038 4296.5 1038 4296.5 399.86588921282805 4275.139999999999 401.731778425656 4253.78 407.3294460641399 4232.42 407.3294460641399 4211.0599999999995 407.3294460641399 4189.7 409.19533527696797 4168.34 412.92711370262396 4146.98 412.92711370262396 4125.62 412.92711370262396 4104.26 414.7930029154519 4082.9 414.7930029154519 4061.54 414.7930029154519 4040.18 422.25655976676387 4018.8199999999997 422.25655976676387 3997.46 422.25655976676387 3976.1 422.25655976676387 3954.74 422.25655976676387 3933.38 422.25655976676387 3912.02 422.25655976676387 3890.66 422.25655976676387 3869.3 422.25655976676387 3847.94 424.1224489795918 3826.58 424.1224489795918 3805.2200000000003 425.98833819241986 3783.86 425.98833819241986 3762.5 435.3177842565598 3741.14 437.1836734693878 3719.7799999999997 437.1836734693878 3698.42 440.9154518950438 3677.06 442.78134110787175 3655.7 448.3790087463557 3634.34 450.24489795918373 3612.98 452.11078717201167 3591.62 453.9766763848397 3570.26 453.9766763848397 3548.9 453.9766763848397 3527.54 455.84256559766766 3506.18 455.84256559766766 3484.82 455.84256559766766 3463.46 457.7084548104957 3442.1 457.7084548104957 3420.74 459.57434402332365 3399.38 459.57434402332365 3378.02 461.4402332361516 3356.66 463.30612244897964 3335.3 465.1720116618076 3313.94 465.1720116618076 3292.58 468.90379008746356 3271.22 470.7696793002916 3249.86 470.7696793002916 3228.5 470.7696793002916 3228.5 1038Z" fill="#005aa6" opacity="0.9" />
		</g>
		<g>
			<path d="M3228.5 470.7696793002916 3249.86 470.7696793002916 3271.22 470.7696793002916 3292.58 468.90379008746356 3313.94 465.1720116618076 3335.3 465.1720116618076 3356.66 463.30612244897964 3378.02 461.4402332361516 3399.38 459.57434402332365 3420.74 459.57434402332365 3442.1 457.7084548104957 3463.46 457.7084548104957 3484.82 455.84256559766766 3506.18 455.84256559766766 3527.54 455.84256559766766 3548.9 453.9766763848397 3570.26 453.9766763848397 3591.62 453.9766763848397 3612.98 452.11078717201167 3634.34 450.24489795918373 3655.7 448.3790087463557 3677.06 442.78134110787175 3698.42 440.9154518950438 3719.7799999999997 437.1836734693878 3741.14 437.1836734693878 3762.5 435.3177842565598 3783.86 425.98833819241986 3805.2200000000003 425.98833819241986 3826.58 424.1224489795918 3847.94 424.1224489795918 3869.3 422.25655976676387 3890.66 422.25655976676387 3912.02 422.25655976676387 3933.38 422.25655976676387 3954.74 422.25655976676387 3976.1 422.25655976676387 3997.46 422.25655976676387 4018.8199999999997 422.25655976676387 4040.18 422.25655976676387 4061.54 414.7930029154519 4082.9 414.7930029154519 4104.26 414.7930029154519 4125.62 412.92711370262396 4146.98 412.92711370262396 4168.34 412.92711370262396 4189.7 409.19533527696797 4211.0599999999995 407.3294460641399 4232.42 407.3294460641399 4253.78 407.3294460641399 4275.139999999999 401.731778425656 4296.5 399.86588921282805 4296.5 398.00000000000006 4275.139999999999 399.865889212828 4253.78 405.4635568513119 4232.42 405.4635568513119 4211.0599999999995 405.4635568513119 4189.7 407.32944606414 4168.34 411.06122448979596 4146.98 411.06122448979596 4125.62 411.06122448979596 4104.26 412.9271137026239 4082.9 412.9271137026239 4061.54 412.9271137026239 4040.18 420.3906705539359 4018.8199999999997 420.3906705539359 3997.46 420.3906705539359 3976.1 420.3906705539359 3954.74 420.3906705539359 3933.38 420.3906705539359 3912.02 420.3906705539359 3890.66 420.3906705539359 3869.3 420.3906705539359 3847.94 422.2565597667638 3826.58 422.2565597667638 3805.2200000000003 424.12244897959187 3783.86 424.12244897959187 3762.5 433.4518950437318 3741.14 435.31778425655983 3719.7799999999997 435.31778425655983 3698.42 439.0495626822158 3677.06 440.91545189504376 3655.7 446.5131195335277 3634.34 448.37900874635574 3612.98 450.2448979591837 3591.62 452.1107871720117 3570.26 452.1107871720117 3548.9 452.1107871720117 3527.54 453.97667638483966 3506.18 453.97667638483966 3484.82 453.97667638483966 3463.46 455.8425655976677 3442.1 455.8425655976677 3420.74 457.70845481049565 3399.38 457.70845481049565 3378.02 459.5743440233236 3356.66 461.44023323615164 3335.3 463.3061224489796 3313.94 463.3061224489796 3292.58 467.03790087463557 3271.22 468.9037900874636 3249.86 468.9037900874636 3228.5 468.9037900874636 3228.5 470.7696793002916Z" fill="#e62d39" opacity="0.9" />
		</g>
		<g>
			<rect x="4372" y="431" width="22.9995" height="23" fill="#005aa6" />
		</g>
		<g>
			<text fill="#595959" font-family="Verdana,Open Sans,DejaVu Sans,sans-serif" font-weight="400" font-size="41" transform="matrix(1 0 0 1 4404.56 454)">Crawler</text>
		</g>
		<g>
			<rect x="4372" y="508" width="22.9995" height="23" fill="#e62d39" />
		</g>
		<g>
			<text fill="#595959" font-family="Verdana,Open Sans,DejaVu Sans,sans-serif" font-weight="400" font-size="41" transform="matrix(1 0 0 1 4404.56 531)">Non-Crawler</text>
		</g>
	</g>
</svg>
