<svg width="1763" height="1046"
    xmlns="http://www.w3.org/2000/svg"
	xmlns:xlink="http://www.w3.org/1999/xlink" xml:space="preserve" overflow="hidden">
	<defs>
		<clipPath id="clip0">
			<rect x="2917" y="346" width="1763" height="1046"/>
		</clipPath>
	</defs>
	<g clip-path="url(#clip0)" transform="translate(-2917 -346)">
		<rect x="2918" y="347" width="1760" height="1043" fill="#FFFFFF" />
		<g>
			<path d="
			M3228.5 974.532 4296.5 974.532
			M3228.5 910.53 4296.5 910.53
			M3228.5 846.528 4296.5 846.528
			M3228.5 781.526 4296.5 781.526
			M3228.5 717.524 4296.5 717.524
			M3228.5 653.522 4296.5 653.522
			M3228.5 589.52 4296.5 589.52
			M3228.5 525.517 4296.5 525.517
			M3228.5 461.515 4296.5 461.515
			M3228.5 397.5 4296.5 397.5" stroke="#D9D9D9" stroke-width="3.4375" stroke-linejoin="round" stroke-miterlimit="10" fill="none" />
		</g>
		<g>
			<path d="M 1038.5 4296.5 1038.5" stroke="#D9D9D9" stroke-width="3.4375" stroke-linejoin="round" stroke-miterlimit="10" fill="none" fill-rule="evenodd" />
		</g>
		<g>
			<text fill="#595959" font-family="Verdana,sans-serif" font-weight="400" font-size="41" transform="matrix(6.12323e-17 -1 1 6.12323e-17 3244.5 1225)">06-Nov</text>
		</g>
		<g>
			<text fill="#595959" font-family="Verdana,sans-serif" font-weight="400" font-size="41" transform="matrix(6.12323e-17 -1 1 6.12323e-17 3363.1666666666665 1223)">04-Dec</text>
		</g>
		<g>
			<text fill="#595959" font-family="Verdana,sans-serif" font-weight="400" font-size="41" transform="matrix(6.12323e-17 -1 1 6.12323e-17 3481.8333333333335 1210)">01-Jan</text>
		</g>
		<g>
			<text fill="#595959" font-family="Verdana,sans-serif" font-weight="400" font-size="41" transform="matrix(6.12323e-17 -1 1 6.12323e-17 3600.5 1210)">29-Jan</text>
		</g>
		<g>
			<text fill="#595959" font-family="Verdana,sans-serif" font-weight="400" font-size="41" transform="matrix(6.12323e-17 -1 1 6.12323e-17 3719.1666666666665 1216)">26-Feb</text>
		</g>
		<g>
			<text fill="#595959" font-family="Verdana,sans-serif" font-weight="400" font-size="41" transform="matrix(6.12323e-17 -1 1 6.12323e-17 3837.8333333333335 1223)">25-Mar</text>
		</g>
		<g>
			<text fill="#595959" font-family="Verdana,sans-serif" font-weight="400" font-size="41" transform="matrix(6.12323e-17 -1 1 6.12323e-17 3960 1216)">22-Apr</text>
		</g>
		<g>
			<text fill="#595959" font-family="Verdana,sans-serif" font-weight="400" font-size="41" transform="matrix(6.12323e-17 -1 1 6.12323e-17 4078.666666666667 1228)">20-May</text>
		</g>
		<g>
			<text fill="#595959" font-family="Verdana,sans-serif" font-weight="400" font-size="41" transform="matrix(6.12323e-17 -1 1 6.12323e-17 4193.333333333333 1209)">17-Jun</text>
		</g>
		<g>
			<text fill="#595959" font-family="Verdana,sans-serif" font-weight="400" font-size="41" transform="matrix(6.12323e-17 -1 1 6.12323e-17 4312.5 1194)">15-Jul</text>
		</g>
		<g>
			<text fill="#595959" font-family="Verdana,sans-serif" font-weight="400" font-size="41" transform="matrix(1 0 0 1 3167.5 1050)">0</text>
		</g>
		<g>
			<text fill="#595959" font-family="Verdana,sans-serif" font-weight="400" font-size="41" transform="matrix(1 0 0 1 3142.5 922)">52</text>
		</g>
		<g>
			<text fill="#595959" font-family="Verdana,sans-serif" font-weight="400" font-size="41" transform="matrix(1 0 0 1 3117.5 794)">104</text>
		</g>
		<g>
			<text fill="#595959" font-family="Verdana,sans-serif" font-weight="400" font-size="41" transform="matrix(1 0 0 1 3117.5 666)">156</text>
		</g>
		<g>
			<text fill="#595959" font-family="Verdana,sans-serif" font-weight="400" font-size="41" transform="matrix(1 0 0 1 3115.5 538)">208</text>
		</g>
		<g>
			<text fill="#595959" font-family="Verdana,sans-serif" font-weight="400" font-size="41" transform="matrix(1 0 0 1 3115.5 410)">260</text>
		</g>
		<g>
			<text fill="#595959" font-family="Verdana,sans-serif" font-weight="400" font-size="41" transform="matrix(1 0 0 1 3544.5 1321)">Week Commencing</text>
		</g>
		<g>
			<text fill="#595959" font-family="Verdana,sans-serif" font-weight="400" font-size="46" transform="matrix(6.12323e-17 -1 1 6.12323e-17 3019.73 1024.75)">Number of Crawler Profiles</text>
		</g>
		<rect x="2918.5" y="347.5" width="1760" height="1043" stroke="#D9D9D9" stroke-width="3.4375" stroke-linejoin="round" stroke-miterlimit="10" fill="none" />
		<g>
			<path d="M3228.5 1038 3258.1666666666665 1038 3287.8333333333335 1038 3317.5 1038 3347.1666666666665 1038 3376.8333333333335 1038 3406.5 1038 3436.1666666666665 1038 3465.8333333333335 1038 3495.5 1038 3525.1666666666665 1038 3554.8333333333335 1038 3584.5 1038 3614.1666666666665 1038 3643.8333333333335 1038 3673.5 1038 3703.1666666666665 1038 3732.8333333333335 1038 3762.5 1038 3792.166666666667 1038 3821.8333333333335 1038 3851.5 1038 3881.166666666667 1038 3910.8333333333335 1038 3940.5 1038 3970.166666666667 1038 3999.8333333333335 1038 4029.5 1038 4059.166666666667 1038 4088.8333333333335 1038 4118.5 1038 4148.166666666667 1038 4177.833333333333 1038 4207.5 1038 4237.166666666667 1038 4266.833333333334 1038 4296.5 1038 4296.5 400.46153846153845 4266.833333333334 407.8461538461538 4237.166666666667 417.6923076923076 4207.5 425.0769230769231 4177.833333333333 437.38461538461536 4148.166666666667 442.30769230769226 4118.5 442.30769230769226 4088.8333333333335 442.30769230769226 4059.166666666667 444.7692307692307 4029.5 449.6923076923076 3999.8333333333335 459.53846153846155 3970.166666666667 464.46153846153845 3940.5 466.9230769230769 3910.8333333333335 466.9230769230769 3881.166666666667 476.7692307692307 3851.5 476.7692307692307 3821.8333333333335 489.0769230769231 3792.166666666667 513.6923076923076 3762.5 518.6153846153846 3732.8333333333335 523.5384615384615 3703.1666666666665 535.8461538461538 3673.5 538.3076923076923 3643.8333333333335 538.3076923076923 3614.1666666666665 540.7692307692307 3584.5 545.6923076923076 3554.8333333333335 558 3525.1666666666665 560.4615384615385 3495.5 560.4615384615385 3465.8333333333335 565.3846153846154 3436.1666666666665 565.3846153846154 3406.5 565.3846153846154 3376.8333333333335 565.3846153846154 3347.1666666666665 565.3846153846154 3317.5 567.8461538461538 3287.8333333333335 567.8461538461538 3258.1666666666665 567.8461538461538 3228.5 567.8461538461538 3228.5 1038Z" fill="#005aa6" opacity="0.9" />
		</g>
		<g>
			<path d="M3228.5 567.8461538461538 3258.1666666666665 567.8461538461538 3287.8333333333335 567.8461538461538 3317.5 567.8461538461538 3347.1666666666665 565.3846153846154 3376.8333333333335 565.3846153846154 3406.5 565.3846153846154 3436.1666666666665 565.3846153846154 3465.8333333333335 565.3846153846154 3495.5 560.4615384615385 3525.1666666666665 560.4615384615385 3554.8333333333335 558 3584.5 545.6923076923076 3614.1666666666665 540.7692307692307 3643.8333333333335 538.3076923076923 3673.5 538.3076923076923 3703.1666666666665 535.8461538461538 3732.8333333333335 523.5384615384615 3762.5 518.6153846153846 3792.166666666667 513.6923076923076 3821.8333333333335 489.0769230769231 3851.5 476.7692307692307 3881.166666666667 476.7692307692307 3910.8333333333335 466.9230769230769 3940.5 466.9230769230769 3970.166666666667 464.46153846153845 3999.8333333333335 459.53846153846155 4029.5 449.6923076923076 4059.166666666667 444.7692307692307 4088.8333333333335 442.30769230769226 4118.5 442.30769230769226 4148.166666666667 442.30769230769226 4177.833333333333 437.38461538461536 4207.5 425.0769230769231 4237.166666666667 417.6923076923076 4266.833333333334 407.8461538461538 4296.5 400.46153846153845 4296.5 398 4266.833333333334 405.38461538461536 4237.166666666667 415.23076923076917 4207.5 422.61538461538464 4177.833333333333 434.9230769230769 4148.166666666667 439.8461538461538 4118.5 439.8461538461538 4088.8333333333335 439.8461538461538 4059.166666666667 442.30769230769226 4029.5 447.23076923076917 3999.8333333333335 457.0769230769231 3970.166666666667 462 3940.5 464.46153846153845 3910.8333333333335 464.46153846153845 3881.166666666667 474.30769230769226 3851.5 474.30769230769226 3821.8333333333335 486.61538461538464 3792.166666666667 511.23076923076917 3762.5 516.1538461538462 3732.8333333333335 521.0769230769231 3703.1666666666665 533.3846153846154 3673.5 535.8461538461538 3643.8333333333335 535.8461538461538 3614.1666666666665 538.3076923076923 3584.5 543.2307692307692 3554.8333333333335 555.5384615384615 3525.1666666666665 558 3495.5 558 3465.8333333333335 562.9230769230769 3436.1666666666665 562.9230769230769 3406.5 562.9230769230769 3376.8333333333335 562.9230769230769 3347.1666666666665 562.9230769230769 3317.5 565.3846153846154 3287.8333333333335 565.3846153846154 3258.1666666666665 565.3846153846154 3228.5 565.3846153846154 3228.5 567.8461538461538Z" fill="#e62d39" opacity="0.9" />
		</g>
		<g>
			<rect x="4372" y="431" width="22.9995" height="23" fill="#005aa6" />
		</g>
		<g>
			<text fill="#595959" font-family="Verdana,sans-serif" font-weight="400" font-size="41" transform="matrix(1 0 0 1 4404.56 454)">Crawler</text>
		</g>
		<g>
			<rect x="4372" y="508" width="22.9995" height="23" fill="#e62d39" />
		</g>
		<g>
			<text fill="#595959" font-family="Verdana,sans-serif" font-weight="400" font-size="41" transform="matrix(1 0 0 1 4404.56 531)">Non-Crawler</text>
		</g>
	</g>
</svg>
