<svg width="1763" height="1046"
    xmlns="http://www.w3.org/2000/svg"
	xmlns:xlink="http://www.w3.org/1999/xlink" xml:space="preserve" overflow="hidden">
	<defs>
		<clipPath id="clip0">
			<rect x="2917" y="346" width="1763" height="1046"/>
		</clipPath>
	</defs>
	<g clip-path="url(#clip0)" transform="translate(-2917 -346)">
		<rect x="2918" y="347" width="1760" height="1043" fill="#FFFFFF" />
		<g>
			<path d="
			M3228.5 974.532 4296.5 974.532
			M3228.5 910.53 4296.5 910.53
			M3228.5 846.528 4296.5 846.528
			M3228.5 781.526 4296.5 781.526
			M3228.5 717.524 4296.5 717.524
			M3228.5 653.522 4296.5 653.522
			M3228.5 589.52 4296.5 589.52
			M3228.5 525.517 4296.5 525.517
			M3228.5 461.515 4296.5 461.515
			M3228.5 397.5 4296.5 397.5" stroke="#D9D9D9" stroke-width="3.4375" stroke-linejoin="round" stroke-miterlimit="10" fill="none" />
		</g>
		<g>
			<path d="M 1038.5 4296.5 1038.5" stroke="#D9D9D9" stroke-width="3.4375" stroke-linejoin="round" stroke-miterlimit="10" fill="none" fill-rule="evenodd" />
		</g>
		<g>
			<text fill="#595959" font-family="Verdana,sans-serif" font-weight="400" font-size="41" transform="matrix(6.12323e-17 -1 1 6.12323e-17 3244.5 1227)">06-Nov</text>
		</g>
		<g>
			<text fill="#595959" font-family="Verdana,sans-serif" font-weight="400" font-size="41" transform="matrix(6.12323e-17 -1 1 6.12323e-17 3341.590909090909 1226)">20-Nov</text>
		</g>
		<g>
			<text fill="#595959" font-family="Verdana,sans-serif" font-weight="400" font-size="41" transform="matrix(6.12323e-17 -1 1 6.12323e-17 3438.681818181818 1225)">04-Dec</text>
		</g>
		<g>
			<text fill="#595959" font-family="Verdana,sans-serif" font-weight="400" font-size="41" transform="matrix(6.12323e-17 -1 1 6.12323e-17 3535.772727272727 1222)">18-Dec</text>
		</g>
		<g>
			<text fill="#595959" font-family="Verdana,sans-serif" font-weight="400" font-size="41" transform="matrix(6.12323e-17 -1 1 6.12323e-17 3632.8636363636365 1212)">01-Jan</text>
		</g>
		<g>
			<text fill="#595959" font-family="Verdana,sans-serif" font-weight="400" font-size="41" transform="matrix(6.12323e-17 -1 1 6.12323e-17 3729.4545454545455 1209)">15-Jan</text>
		</g>
		<g>
			<text fill="#595959" font-family="Verdana,sans-serif" font-weight="400" font-size="41" transform="matrix(6.12323e-17 -1 1 6.12323e-17 3827.0454545454545 1211)">29-Jan</text>
		</g>
		<g>
			<text fill="#595959" font-family="Verdana,sans-serif" font-weight="400" font-size="41" transform="matrix(6.12323e-17 -1 1 6.12323e-17 3924.1363636363635 1216)">12-Feb</text>
		</g>
		<g>
			<text fill="#595959" font-family="Verdana,sans-serif" font-weight="400" font-size="41" transform="matrix(6.12323e-17 -1 1 6.12323e-17 4021.227272727273 1218)">26-Feb</text>
		</g>
		<g>
			<text fill="#595959" font-family="Verdana,sans-serif" font-weight="400" font-size="41" transform="matrix(6.12323e-17 -1 1 6.12323e-17 4117.818181818182 1222)">11-Mar</text>
		</g>
		<g>
			<text fill="#595959" font-family="Verdana,sans-serif" font-weight="400" font-size="41" transform="matrix(6.12323e-17 -1 1 6.12323e-17 4215.409090909091 1225)">25-Mar</text>
		</g>
		<g>
			<text fill="#595959" font-family="Verdana,sans-serif" font-weight="400" font-size="41" transform="matrix(6.12323e-17 -1 1 6.12323e-17 4316 1218)">08-Apr</text>
		</g>
		<g>
			<text fill="#595959" font-family="Verdana,sans-serif" font-weight="400" font-size="41" transform="matrix(1 0 0 1 3123.5 1050)">0%</text>
		</g>
		<g>
			<text fill="#595959" font-family="Verdana,sans-serif" font-weight="400" font-size="41" transform="matrix(1 0 0 1 3097.5 922)">20%</text>
		</g>
		<g>
			<text fill="#595959" font-family="Verdana,sans-serif" font-weight="400" font-size="41" transform="matrix(1 0 0 1 3095.5 794)">40%</text>
		</g>
		<g>
			<text fill="#595959" font-family="Verdana,sans-serif" font-weight="400" font-size="41" transform="matrix(1 0 0 1 3096.5 666)">60%</text>
		</g>
		<g>
			<text fill="#595959" font-family="Verdana,sans-serif" font-weight="400" font-size="41" transform="matrix(1 0 0 1 3096.5 538)">80%</text>
		</g>
		<g>
			<text fill="#595959" font-family="Verdana,sans-serif" font-weight="400" font-size="41" transform="matrix(1 0 0 1 3073.5 410)">100%</text>
		</g>
		<g>
			<text fill="#595959" font-family="Verdana,sans-serif" font-weight="400" font-size="41" transform="matrix(1 0 0 1 3541.5 1321)">Week Commencing</text>
		</g>
		<g>
			<text fill="#595959" font-family="Verdana,sans-serif" font-weight="400" font-size="46" transform="matrix(6.12323e-17 -1 1 6.12323e-17 3019.73 968.75)">Requests (% of Total)</text>
		</g>
		<rect x="2918.5" y="347.5" width="1760" height="1043" stroke="#D9D9D9" stroke-width="3.4375" stroke-linejoin="round" stroke-miterlimit="10" fill="none" />
		<g>
			<path d="M3228.5 1038 3277.0454545454545 1038 3325.590909090909 1038 3374.1363636363635 1038 3422.681818181818 1038 3471.227272727273 1038 3519.772727272727 1038 3568.318181818182 1038 3616.8636363636365 1038 3665.409090909091 1038 3713.9545454545455 1038 3762.5 1038 3811.0454545454545 1038 3859.590909090909 1038 3908.1363636363635 1038 3956.681818181818 1038 4005.227272727273 1038 4053.772727272727 1038 4102.318181818182 1038 4150.863636363636 1038 4199.409090909091 1038 4247.954545454546 1038 4296.5 1038 4296.5 579.8301495425726 4247.954545454546 581.4258071436993 4199.409090909091 583.4353029706369 4150.863636363636 585.2297796683877 4102.318181818182 569.3763139485983 4053.772727272727 569.4920790789085 4005.227272727273 568.4210223578364 3956.681818181818 567.328661211755 3908.1363636363635 566.161104092279 3859.590909090909 566.5630760901624 3811.0454545454545 566.9371867374394 3762.5 565.7434322908556 3713.9545454545455 565.3329344965637 3665.409090909091 567.1306424721515 3616.8636363636365 546.6361313386333 3568.318181818182 547.2360643741254 3519.772727272727 547.9846296844262 3471.227272727273 551.0672526834712 3422.681818181818 550.9210452859504 3374.1363636363635 550.9050574683862 3325.590909090909 550.8533354714161 3277.0454545454545 550.7560734149703 3228.5 551.2665692392751 3228.5 1038Z" fill="#e62d39" opacity="0.9" />
		</g>
		<g>
			<path d="M3228.5 551.2665692392751 3277.0454545454545 550.7560734149703 3325.590909090909 550.8533354714161 3374.1363636363635 550.9050574683862 3422.681818181818 550.9210452859504 3471.227272727273 551.0672526834712 3519.772727272727 547.9846296844262 3568.318181818182 547.2360643741254 3616.8636363636365 546.6361313386333 3665.409090909091 567.1306424721515 3713.9545454545455 565.3329344965637 3762.5 565.7434322908556 3811.0454545454545 566.9371867374394 3859.590909090909 566.5630760901624 3908.1363636363635 566.161104092279 3956.681818181818 567.328661211755 4005.227272727273 568.4210223578364 4053.772727272727 569.4920790789085 4102.318181818182 569.3763139485983 4150.863636363636 585.2297796683877 4199.409090909091 583.4353029706369 4247.954545454546 581.4258071436993 4296.5 579.8301495425726 4296.5 398.0000000000001 4247.954545454546 398 4199.409090909091 398 4150.863636363636 398 4102.318181818182 398 4053.772727272727 398.00000000000006 4005.227272727273 398.00000000000006 3956.681818181818 398 3908.1363636363635 398.00000000000006 3859.590909090909 397.99999999999994 3811.0454545454545 398 3762.5 398 3713.9545454545455 397.99999999999994 3665.409090909091 398.00000000000006 3616.8636363636365 398 3568.318181818182 398.0000000000001 3519.772727272727 398 3471.227272727273 398 3422.681818181818 398 3374.1363636363635 398 3325.590909090909 398 3277.0454545454545 398 3228.5 398 3228.5 551.2665692392751Z" fill="#005aa6" opacity="0.9" />
		</g>
		<g>
			<rect x="4372" y="431" width="22.9995" height="23" fill="#e62d39" />
		</g>
		<g>
			<text fill="#595959" font-family="Verdana,sans-serif" font-weight="400" font-size="41" transform="matrix(1 0 0 1 4404.56 454)">Non-Crawler</text>
		</g>
		<g>
			<rect x="4372" y="508" width="22.9995" height="23" fill="#005aa6" />
		</g>
		<g>
			<text fill="#595959" font-family="Verdana,sans-serif" font-weight="400" font-size="41" transform="matrix(1 0 0 1 4404.56 531)">Crawler</text>
		</g>
	</g>
</svg>
