<svg width="1763" height="1046"
    xmlns="http://www.w3.org/2000/svg"
	xmlns:xlink="http://www.w3.org/1999/xlink" xml:space="preserve" overflow="hidden">
	<defs>
		<clipPath id="clip0">
			<rect x="2917" y="346" width="1763" height="1046"/>
		</clipPath>
	</defs>
	<g clip-path="url(#clip0)" transform="translate(-2917 -346)">
		<rect x="2918" y="347" width="1760" height="1043" fill="#FFFFFF" />
		<g>
			<path d="
			M3228.5 974.532 4296.5 974.532
			M3228.5 910.53 4296.5 910.53
			M3228.5 846.528 4296.5 846.528
			M3228.5 781.526 4296.5 781.526
			M3228.5 717.524 4296.5 717.524
			M3228.5 653.522 4296.5 653.522
			M3228.5 589.52 4296.5 589.52
			M3228.5 525.517 4296.5 525.517
			M3228.5 461.515 4296.5 461.515
			M3228.5 397.5 4296.5 397.5" stroke="#D9D9D9" stroke-width="3.4375" stroke-linejoin="round" stroke-miterlimit="10" fill="none" />
		</g>
		<g>
			<path d="M 1038.5 4296.5 1038.5" stroke="#D9D9D9" stroke-width="3.4375" stroke-linejoin="round" stroke-miterlimit="10" fill="none" fill-rule="evenodd" />
		</g>
		<g>
			<text fill="#595959" font-family="Verdana,sans-serif" font-weight="400" font-size="41" transform="matrix(6.12323e-17 -1 1 6.12323e-17 3244.5 1225)">06-Nov</text>
		</g>
		<g>
			<text fill="#595959" font-family="Verdana,sans-serif" font-weight="400" font-size="41" transform="matrix(6.12323e-17 -1 1 6.12323e-17 3318.155172413793 1224)">20-Nov</text>
		</g>
		<g>
			<text fill="#595959" font-family="Verdana,sans-serif" font-weight="400" font-size="41" transform="matrix(6.12323e-17 -1 1 6.12323e-17 3391.810344827586 1223)">04-Dec</text>
		</g>
		<g>
			<text fill="#595959" font-family="Verdana,sans-serif" font-weight="400" font-size="41" transform="matrix(6.12323e-17 -1 1 6.12323e-17 3465.4655172413795 1220)">18-Dec</text>
		</g>
		<g>
			<text fill="#595959" font-family="Verdana,sans-serif" font-weight="400" font-size="41" transform="matrix(6.12323e-17 -1 1 6.12323e-17 3539.1206896551726 1210)">01-Jan</text>
		</g>
		<g>
			<text fill="#595959" font-family="Verdana,sans-serif" font-weight="400" font-size="41" transform="matrix(6.12323e-17 -1 1 6.12323e-17 3612.2758620689656 1207)">15-Jan</text>
		</g>
		<g>
			<text fill="#595959" font-family="Verdana,sans-serif" font-weight="400" font-size="41" transform="matrix(6.12323e-17 -1 1 6.12323e-17 3686.4310344827586 1210)">29-Jan</text>
		</g>
		<g>
			<text fill="#595959" font-family="Verdana,sans-serif" font-weight="400" font-size="41" transform="matrix(6.12323e-17 -1 1 6.12323e-17 3760.0862068965516 1214)">12-Feb</text>
		</g>
		<g>
			<text fill="#595959" font-family="Verdana,sans-serif" font-weight="400" font-size="41" transform="matrix(6.12323e-17 -1 1 6.12323e-17 3833.741379310345 1216)">26-Feb</text>
		</g>
		<g>
			<text fill="#595959" font-family="Verdana,sans-serif" font-weight="400" font-size="41" transform="matrix(6.12323e-17 -1 1 6.12323e-17 3906.896551724138 1221)">11-Mar</text>
		</g>
		<g>
			<text fill="#595959" font-family="Verdana,sans-serif" font-weight="400" font-size="41" transform="matrix(6.12323e-17 -1 1 6.12323e-17 3981.051724137931 1223)">25-Mar</text>
		</g>
		<g>
			<text fill="#595959" font-family="Verdana,sans-serif" font-weight="400" font-size="41" transform="matrix(6.12323e-17 -1 1 6.12323e-17 4058.206896551724 1217)">08-Apr</text>
		</g>
		<g>
			<text fill="#595959" font-family="Verdana,sans-serif" font-weight="400" font-size="41" transform="matrix(6.12323e-17 -1 1 6.12323e-17 4131.862068965517 1216)">22-Apr</text>
		</g>
		<g>
			<text fill="#595959" font-family="Verdana,sans-serif" font-weight="400" font-size="41" transform="matrix(6.12323e-17 -1 1 6.12323e-17 4205.517241379311 1228)">06-May</text>
		</g>
		<g>
			<text fill="#595959" font-family="Verdana,sans-serif" font-weight="400" font-size="41" transform="matrix(6.12323e-17 -1 1 6.12323e-17 4279.172413793103 1228)">20-May</text>
		</g>
		<g>
			<text fill="#595959" font-family="Verdana,sans-serif" font-weight="400" font-size="41" transform="matrix(1 0 0 1 3123.5 1050)">0%</text>
		</g>
		<g>
			<text fill="#595959" font-family="Verdana,sans-serif" font-weight="400" font-size="41" transform="matrix(1 0 0 1 3097.5 922)">20%</text>
		</g>
		<g>
			<text fill="#595959" font-family="Verdana,sans-serif" font-weight="400" font-size="41" transform="matrix(1 0 0 1 3096.5 794)">40%</text>
		</g>
		<g>
			<text fill="#595959" font-family="Verdana,sans-serif" font-weight="400" font-size="41" transform="matrix(1 0 0 1 3097.5 666)">60%</text>
		</g>
		<g>
			<text fill="#595959" font-family="Verdana,sans-serif" font-weight="400" font-size="41" transform="matrix(1 0 0 1 3097.5 538)">80%</text>
		</g>
		<g>
			<text fill="#595959" font-family="Verdana,sans-serif" font-weight="400" font-size="41" transform="matrix(1 0 0 1 3074.5 410)">100%</text>
		</g>
		<g>
			<text fill="#595959" font-family="Verdana,sans-serif" font-weight="400" font-size="41" transform="matrix(1 0 0 1 3544.5 1321)">Week Commencing</text>
		</g>
		<g>
			<text fill="#595959" font-family="Verdana,sans-serif" font-weight="400" font-size="46" transform="matrix(6.12323e-17 -1 1 6.12323e-17 3019.73 965.25)">Requests (% of Total)</text>
		</g>
		<rect x="2918.5" y="347.5" width="1760" height="1043" stroke="#D9D9D9" stroke-width="3.4375" stroke-linejoin="round" stroke-miterlimit="10" fill="none" />
		<g>
			<path d="M3228.5 1038 3265.3275862068967 1038 3302.155172413793 1038 3338.9827586206898 1038 3375.810344827586 1038 3412.637931034483 1038 3449.4655172413795 1038 3486.293103448276 1038 3523.1206896551726 1038 3559.948275862069 1038 3596.7758620689656 1038 3633.6034482758623 1038 3670.4310344827586 1038 3707.2586206896553 1038 3744.0862068965516 1038 3780.9137931034484 1038 3817.741379310345 1038 3854.5689655172414 1038 3891.396551724138 1038 3928.2241379310344 1038 3965.051724137931 1038 4001.879310344828 1038 4038.706896551724 1038 4075.534482758621 1038 4112.362068965517 1038 4149.189655172414 1038 4186.017241379311 1038 4222.8448275862065 1038 4259.672413793103 1038 4296.5 1038 4296.5 572.7455283998808 4259.672413793103 573.7260592446937 4222.8448275862065 574.7878423335366 4186.017241379311 575.6290427379265 4149.189655172414 575.9687876322813 4112.362068965517 576.8727971406818 4075.534482758621 578.2473295586981 4038.706896551724 579.8301495425726 4001.879310344828 581.4258071436993 3965.051724137931 583.4353029706369 3928.2241379310344 585.2297796683877 3891.396551724138 569.3763139485983 3854.5689655172414 569.4920790789085 3817.741379310345 568.4210223578364 3780.9137931034484 567.328661211755 3744.0862068965516 566.161104092279 3707.2586206896553 566.5630760901624 3670.4310344827586 566.9371867374394 3633.6034482758623 565.7434322908556 3596.7758620689656 565.3329344965637 3559.948275862069 567.1306424721515 3523.1206896551726 546.6361313386333 3486.293103448276 547.2360643741254 3449.4655172413795 547.9846296844262 3412.637931034483 551.0672526834712 3375.810344827586 550.9210452859504 3338.9827586206898 550.9050574683862 3302.155172413793 550.8533354714161 3265.3275862068967 550.7560734149703 3228.5 551.2665692392751 3228.5 1038Z" fill="#e62d39" opacity="0.9" />
		</g>
		<g>
			<path d="M3228.5 551.2665692392751 3265.3275862068967 550.7560734149703 3302.155172413793 550.8533354714161 3338.9827586206898 550.9050574683862 3375.810344827586 550.9210452859504 3412.637931034483 551.0672526834712 3449.4655172413795 547.9846296844262 3486.293103448276 547.2360643741254 3523.1206896551726 546.6361313386333 3559.948275862069 567.1306424721515 3596.7758620689656 565.3329344965637 3633.6034482758623 565.7434322908556 3670.4310344827586 566.9371867374394 3707.2586206896553 566.5630760901624 3744.0862068965516 566.161104092279 3780.9137931034484 567.328661211755 3817.741379310345 568.4210223578364 3854.5689655172414 569.4920790789085 3891.396551724138 569.3763139485983 3928.2241379310344 585.2297796683877 3965.051724137931 583.4353029706369 4001.879310344828 581.4258071436993 4038.706896551724 579.8301495425726 4075.534482758621 578.2473295586981 4112.362068965517 576.8727971406818 4149.189655172414 575.9687876322813 4186.017241379311 575.6290427379265 4222.8448275862065 574.7878423335366 4259.672413793103 573.7260592446937 4296.5 572.7455283998808 4296.5 398 4259.672413793103 398 4222.8448275862065 398.00000000000006 4186.017241379311 398 4149.189655172414 398 4112.362068965517 397.99999999999994 4075.534482758621 397.99999999999994 4038.706896551724 398.0000000000001 4001.879310344828 398 3965.051724137931 398 3928.2241379310344 398 3891.396551724138 398 3854.5689655172414 398.00000000000006 3817.741379310345 398.00000000000006 3780.9137931034484 398 3744.0862068965516 398.00000000000006 3707.2586206896553 397.99999999999994 3670.4310344827586 398 3633.6034482758623 398 3596.7758620689656 397.99999999999994 3559.948275862069 398.00000000000006 3523.1206896551726 398 3486.293103448276 398.0000000000001 3449.4655172413795 398 3412.637931034483 398 3375.810344827586 398 3338.9827586206898 398 3302.155172413793 398 3265.3275862068967 398 3228.5 398 3228.5 551.2665692392751Z" fill="#005aa6" opacity="0.9" />
		</g>
		<g>
			<rect x="4372" y="431" width="22.9995" height="23" fill="#e62d39" />
		</g>
		<g>
			<text fill="#595959" font-family="Verdana,sans-serif" font-weight="400" font-size="41" transform="matrix(1 0 0 1 4404.56 454)">Non-Crawler</text>
		</g>
		<g>
			<rect x="4372" y="508" width="22.9995" height="23" fill="#005aa6" />
		</g>
		<g>
			<text fill="#595959" font-family="Verdana,sans-serif" font-weight="400" font-size="41" transform="matrix(1 0 0 1 4404.56 531)">Crawler</text>
		</g>
	</g>
</svg>
