<svg width="1763" height="1046"
    xmlns="http://www.w3.org/2000/svg"
	xmlns:xlink="http://www.w3.org/1999/xlink" xml:space="preserve" overflow="hidden">
	<defs>
		<clipPath id="clip0">
			<rect x="2917" y="346" width="1763" height="1046"/>
		</clipPath>
	</defs>
	<g clip-path="url(#clip0)" transform="translate(-2917 -346)">
		<rect x="2918" y="347" width="1760" height="1043" fill="#FFFFFF" />
		<g>
			<path d="
			M3228.5 974.532 4296.5 974.532
			M3228.5 910.53 4296.5 910.53
			M3228.5 846.528 4296.5 846.528
			M3228.5 781.526 4296.5 781.526
			M3228.5 717.524 4296.5 717.524
			M3228.5 653.522 4296.5 653.522
			M3228.5 589.52 4296.5 589.52
			M3228.5 525.517 4296.5 525.517
			M3228.5 461.515 4296.5 461.515
			M3228.5 397.5 4296.5 397.5" stroke="#D9D9D9" stroke-width="3.4375" stroke-linejoin="round" stroke-miterlimit="10" fill="none" />
		</g>
		<g>
			<path d="M 1038.5 4296.5 1038.5" stroke="#D9D9D9" stroke-width="3.4375" stroke-linejoin="round" stroke-miterlimit="10" fill="none" fill-rule="evenodd" />
		</g>
		<g>
			<text fill="#595959" font-family="Verdana,sans-serif" font-weight="400" font-size="41" transform="matrix(6.12323e-17 -1 1 6.12323e-17 3244.5 1225)">06-Nov</text>
		</g>
		<g>
			<text fill="#595959" font-family="Verdana,sans-serif" font-weight="400" font-size="41" transform="matrix(6.12323e-17 -1 1 6.12323e-17 3326.653846153846 1224)">20-Nov</text>
		</g>
		<g>
			<text fill="#595959" font-family="Verdana,sans-serif" font-weight="400" font-size="41" transform="matrix(6.12323e-17 -1 1 6.12323e-17 3408.8076923076924 1223)">04-Dec</text>
		</g>
		<g>
			<text fill="#595959" font-family="Verdana,sans-serif" font-weight="400" font-size="41" transform="matrix(6.12323e-17 -1 1 6.12323e-17 3490.9615384615386 1220)">18-Dec</text>
		</g>
		<g>
			<text fill="#595959" font-family="Verdana,sans-serif" font-weight="400" font-size="41" transform="matrix(6.12323e-17 -1 1 6.12323e-17 3573.1153846153848 1210)">01-Jan</text>
		</g>
		<g>
			<text fill="#595959" font-family="Verdana,sans-serif" font-weight="400" font-size="41" transform="matrix(6.12323e-17 -1 1 6.12323e-17 3654.769230769231 1207)">15-Jan</text>
		</g>
		<g>
			<text fill="#595959" font-family="Verdana,sans-serif" font-weight="400" font-size="41" transform="matrix(6.12323e-17 -1 1 6.12323e-17 3737.423076923077 1210)">29-Jan</text>
		</g>
		<g>
			<text fill="#595959" font-family="Verdana,sans-serif" font-weight="400" font-size="41" transform="matrix(6.12323e-17 -1 1 6.12323e-17 3819.576923076923 1214)">12-Feb</text>
		</g>
		<g>
			<text fill="#595959" font-family="Verdana,sans-serif" font-weight="400" font-size="41" transform="matrix(6.12323e-17 -1 1 6.12323e-17 3901.7307692307695 1216)">26-Feb</text>
		</g>
		<g>
			<text fill="#595959" font-family="Verdana,sans-serif" font-weight="400" font-size="41" transform="matrix(6.12323e-17 -1 1 6.12323e-17 3983.3846153846152 1221)">11-Mar</text>
		</g>
		<g>
			<text fill="#595959" font-family="Verdana,sans-serif" font-weight="400" font-size="41" transform="matrix(6.12323e-17 -1 1 6.12323e-17 4066.038461538462 1223)">25-Mar</text>
		</g>
		<g>
			<text fill="#595959" font-family="Verdana,sans-serif" font-weight="400" font-size="41" transform="matrix(6.12323e-17 -1 1 6.12323e-17 4151.692307692308 1217)">08-Apr</text>
		</g>
		<g>
			<text fill="#595959" font-family="Verdana,sans-serif" font-weight="400" font-size="41" transform="matrix(6.12323e-17 -1 1 6.12323e-17 4233.846153846154 1216)">22-Apr</text>
		</g>
		<g>
			<text fill="#595959" font-family="Verdana,sans-serif" font-weight="400" font-size="41" transform="matrix(6.12323e-17 -1 1 6.12323e-17 4316 1228)">06-May</text>
		</g>
		<g>
			<text fill="#595959" font-family="Verdana,sans-serif" font-weight="400" font-size="41" transform="matrix(1 0 0 1 3167.5 1050)">0</text>
		</g>
		<g>
			<text fill="#595959" font-family="Verdana,sans-serif" font-weight="400" font-size="41" transform="matrix(1 0 0 1 3139.5 922)">47</text>
		</g>
		<g>
			<text fill="#595959" font-family="Verdana,sans-serif" font-weight="400" font-size="41" transform="matrix(1 0 0 1 3140.5 794)">94</text>
		</g>
		<g>
			<text fill="#595959" font-family="Verdana,sans-serif" font-weight="400" font-size="41" transform="matrix(1 0 0 1 3118.5 666)">142</text>
		</g>
		<g>
			<text fill="#595959" font-family="Verdana,sans-serif" font-weight="400" font-size="41" transform="matrix(1 0 0 1 3118.5 538)">189</text>
		</g>
		<g>
			<text fill="#595959" font-family="Verdana,sans-serif" font-weight="400" font-size="41" transform="matrix(1 0 0 1 3115.5 410)">236</text>
		</g>
		<g>
			<text fill="#595959" font-family="Verdana,sans-serif" font-weight="400" font-size="41" transform="matrix(1 0 0 1 3544.5 1321)">Week Commencing</text>
		</g>
		<g>
			<text fill="#595959" font-family="Verdana,sans-serif" font-weight="400" font-size="46" transform="matrix(6.12323e-17 -1 1 6.12323e-17 3019.73 1024.75)">Number of Crawler Profiles</text>
		</g>
		<rect x="2918.5" y="347.5" width="1760" height="1043" stroke="#D9D9D9" stroke-width="3.4375" stroke-linejoin="round" stroke-miterlimit="10" fill="none" />
		<g>
			<path d="M3228.5 1038 3269.576923076923 1038 3310.653846153846 1038 3351.730769230769 1038 3392.8076923076924 1038 3433.8846153846152 1038 3474.9615384615386 1038 3516.0384615384614 1038 3557.1153846153848 1038 3598.1923076923076 1038 3639.269230769231 1038 3680.346153846154 1038 3721.423076923077 1038 3762.5 1038 3803.576923076923 1038 3844.653846153846 1038 3885.7307692307695 1038 3926.8076923076924 1038 3967.8846153846152 1038 4008.9615384615386 1038 4050.038461538462 1038 4091.1153846153848 1038 4132.192307692308 1038 4173.2692307692305 1038 4214.346153846154 1038 4255.423076923077 1038 4296.5 1038 4296.5 400.7118644067797 4255.423076923077 406.13559322033905 4214.346153846154 408.84745762711873 4173.2692307692305 408.84745762711873 4132.192307692308 419.69491525423734 4091.1153846153848 419.69491525423734 4050.038461538462 433.25423728813564 4008.9615384615386 460.37288135593224 3967.8846153846152 465.7966101694916 3926.8076923076924 471.22033898305085 3885.7307692307695 484.77966101694915 3844.653846153846 487.49152542372883 3803.576923076923 487.49152542372883 3762.5 490.2033898305085 3721.423076923077 495.6271186440679 3680.346153846154 509.1864406779662 3639.269230769231 511.89830508474574 3598.1923076923076 511.89830508474574 3557.1153846153848 517.3220338983051 3516.0384615384614 517.3220338983051 3474.9615384615386 517.3220338983051 3433.8846153846152 517.3220338983051 3392.8076923076924 517.3220338983051 3351.730769230769 520.0338983050848 3310.653846153846 520.0338983050848 3269.576923076923 520.0338983050848 3228.5 520.0338983050848 3228.5 1038Z" fill="#005aa6" opacity="0.9" />
		</g>
		<g>
			<path d="M3228.5 520.0338983050848 3269.576923076923 520.0338983050848 3310.653846153846 520.0338983050848 3351.730769230769 520.0338983050848 3392.8076923076924 517.3220338983051 3433.8846153846152 517.3220338983051 3474.9615384615386 517.3220338983051 3516.0384615384614 517.3220338983051 3557.1153846153848 517.3220338983051 3598.1923076923076 511.89830508474574 3639.269230769231 511.89830508474574 3680.346153846154 509.1864406779662 3721.423076923077 495.6271186440679 3762.5 490.2033898305085 3803.576923076923 487.49152542372883 3844.653846153846 487.49152542372883 3885.7307692307695 484.77966101694915 3926.8076923076924 471.22033898305085 3967.8846153846152 465.7966101694916 4008.9615384615386 460.37288135593224 4050.038461538462 433.25423728813564 4091.1153846153848 419.69491525423734 4132.192307692308 419.69491525423734 4173.2692307692305 408.84745762711873 4214.346153846154 408.84745762711873 4255.423076923077 406.13559322033905 4296.5 400.7118644067797 4296.5 398 4255.423076923077 403.42372881355936 4214.346153846154 406.13559322033905 4173.2692307692305 406.13559322033905 4132.192307692308 416.98305084745766 4091.1153846153848 416.98305084745766 4050.038461538462 430.54237288135596 4008.9615384615386 457.66101694915255 3967.8846153846152 463.0847457627119 3926.8076923076924 468.50847457627117 3885.7307692307695 482.06779661016947 3844.653846153846 484.77966101694915 3803.576923076923 484.77966101694915 3762.5 487.49152542372883 3721.423076923077 492.9152542372882 3680.346153846154 506.4745762711865 3639.269230769231 509.18644067796606 3598.1923076923076 509.18644067796606 3557.1153846153848 514.6101694915254 3516.0384615384614 514.6101694915254 3474.9615384615386 514.6101694915254 3433.8846153846152 514.6101694915254 3392.8076923076924 514.6101694915254 3351.730769230769 517.3220338983051 3310.653846153846 517.3220338983051 3269.576923076923 517.3220338983051 3228.5 517.3220338983051 3228.5 520.0338983050848Z" fill="#e62d39" opacity="0.9" />
		</g>
		<g>
			<rect x="4372" y="431" width="22.9995" height="23" fill="#005aa6" />
		</g>
		<g>
			<text fill="#595959" font-family="Verdana,sans-serif" font-weight="400" font-size="41" transform="matrix(1 0 0 1 4404.56 454)">Crawler</text>
		</g>
		<g>
			<rect x="4372" y="508" width="22.9995" height="23" fill="#e62d39" />
		</g>
		<g>
			<text fill="#595959" font-family="Verdana,sans-serif" font-weight="400" font-size="41" transform="matrix(1 0 0 1 4404.56 531)">Non-Crawler</text>
		</g>
	</g>
</svg>
