<svg width="1763" height="1046"
    xmlns="http://www.w3.org/2000/svg"
	xmlns:xlink="http://www.w3.org/1999/xlink" xml:space="preserve" overflow="hidden">
	<defs>
		<clipPath id="clip0">
			<rect x="2917" y="346" width="1763" height="1046"/>
		</clipPath>
	</defs>
	<g clip-path="url(#clip0)" transform="translate(-2917 -346)">
		<rect x="2918" y="347" width="1760" height="1043" fill="#FFFFFF" />
		<g>
			<path d="
			M3228.5 974.532 4296.5 974.532
			M3228.5 910.53 4296.5 910.53
			M3228.5 846.528 4296.5 846.528
			M3228.5 781.526 4296.5 781.526
			M3228.5 717.524 4296.5 717.524
			M3228.5 653.522 4296.5 653.522
			M3228.5 589.52 4296.5 589.52
			M3228.5 525.517 4296.5 525.517
			M3228.5 461.515 4296.5 461.515
			M3228.5 397.5 4296.5 397.5" stroke="#D9D9D9" stroke-width="3.4375" stroke-linejoin="round" stroke-miterlimit="10" fill="none" />
		</g>
		<g>
			<path d="M 1038.5 4296.5 1038.5" stroke="#D9D9D9" stroke-width="3.4375" stroke-linejoin="round" stroke-miterlimit="10" fill="none" fill-rule="evenodd" />
		</g>
		<g>
			<text fill="#595959" font-family="Verdana,Open Sans,DejaVu Sans,sans-serif" font-weight="400" font-size="41" transform="matrix(6.12323e-17 -1 1 6.12323e-17 3247.21826171875 1194.1733322143555)">30-Jun</text>
		</g>
		<g>
			<text fill="#595959" font-family="Verdana,Open Sans,DejaVu Sans,sans-serif" font-weight="400" font-size="41" transform="matrix(6.12323e-17 -1 1 6.12323e-17 3331.693660960478 1179.0385665893555)">28-Jul</text>
		</g>
		<g>
			<text fill="#595959" font-family="Verdana,Open Sans,DejaVu Sans,sans-serif" font-weight="400" font-size="41" transform="matrix(6.12323e-17 -1 1 6.12323e-17 3415.798698874081 1208.66748046875)">25-Aug</text>
		</g>
		<g>
			<text fill="#595959" font-family="Verdana,Open Sans,DejaVu Sans,sans-serif" font-weight="400" font-size="41" transform="matrix(6.12323e-17 -1 1 6.12323e-17 3499.563404756434 1204.42333984375)">22-Sep</text>
		</g>
		<g>
			<text fill="#595959" font-family="Verdana,Open Sans,DejaVu Sans,sans-serif" font-weight="400" font-size="41" transform="matrix(6.12323e-17 -1 1 6.12323e-17 3578.6235207950367 1201.1401290893555)">20-Oct</text>
		</g>
		<g>
			<text fill="#595959" font-family="Verdana,Open Sans,DejaVu Sans,sans-serif" font-weight="400" font-size="41" transform="matrix(6.12323e-17 -1 1 6.12323e-17 3662.158002068015 1209.70849609375)">17-Nov</text>
		</g>
		<g>
			<text fill="#595959" font-family="Verdana,Open Sans,DejaVu Sans,sans-serif" font-weight="400" font-size="41" transform="matrix(6.12323e-17 -1 1 6.12323e-17 3745.9227079503676 1205.3642578125)">15-Dec</text>
		</g>
		<g>
			<text fill="#595959" font-family="Verdana,Open Sans,DejaVu Sans,sans-serif" font-weight="400" font-size="41" transform="matrix(6.12323e-17 -1 1 6.12323e-17 3833.5511833639707 1189.9291915893555)">12-Jan</text>
		</g>
		<g>
			<text fill="#595959" font-family="Verdana,Open Sans,DejaVu Sans,sans-serif" font-weight="400" font-size="41" transform="matrix(6.12323e-17 -1 1 6.12323e-17 3914.3930376838234 1203.0419921875)">09-Feb</text>
		</g>
		<g>
			<text fill="#595959" font-family="Verdana,Open Sans,DejaVu Sans,sans-serif" font-weight="400" font-size="41" transform="matrix(6.12323e-17 -1 1 6.12323e-17 3997.4470502068016 1212.0107421875)">09-Mar</text>
		</g>
		<g>
			<text fill="#595959" font-family="Verdana,Open Sans,DejaVu Sans,sans-serif" font-weight="400" font-size="41" transform="matrix(6.12323e-17 -1 1 6.12323e-17 4085.9363654641543 1203.2621994018555)">06-Apr</text>
		</g>
		<g>
			<text fill="#595959" font-family="Verdana,Open Sans,DejaVu Sans,sans-serif" font-weight="400" font-size="41" transform="matrix(6.12323e-17 -1 1 6.12323e-17 4169.701071346507 1216.47509765625)">04-May</text>
		</g>
		<g>
			<text fill="#595959" font-family="Verdana,Open Sans,DejaVu Sans,sans-serif" font-weight="400" font-size="41" transform="matrix(6.12323e-17 -1 1 6.12323e-17 4252.394732306985 1194.0131759643555)">01-Jun</text>
		</g>
		<g>
			<text fill="#595959" font-family="Verdana,Open Sans,DejaVu Sans,sans-serif" font-weight="400" font-size="41" transform="matrix(1 0 0 1 3169.14111328125 1050)">0</text>
		</g>
		<g>
			<text fill="#595959" font-family="Verdana,Open Sans,DejaVu Sans,sans-serif" font-weight="400" font-size="41" transform="matrix(1 0 0 1 3145.73828125 922)">80</text>
		</g>
		<g>
			<text fill="#595959" font-family="Verdana,Open Sans,DejaVu Sans,sans-serif" font-weight="400" font-size="41" transform="matrix(1 0 0 1 3131.0639686584473 794)">161</text>
		</g>
		<g>
			<text fill="#595959" font-family="Verdana,Open Sans,DejaVu Sans,sans-serif" font-weight="400" font-size="41" transform="matrix(1 0 0 1 3129.3022499084473 666)">241</text>
		</g>
		<g>
			<text fill="#595959" font-family="Verdana,Open Sans,DejaVu Sans,sans-serif" font-weight="400" font-size="41" transform="matrix(1 0 0 1 3122.25537109375 538)">322</text>
		</g>
		<g>
			<text fill="#595959" font-family="Verdana,Open Sans,DejaVu Sans,sans-serif" font-weight="400" font-size="41" transform="matrix(1 0 0 1 3121.234375 410)">402</text>
		</g>
		<g>
			<text fill="#595959" font-family="Verdana,Open Sans,DejaVu Sans,sans-serif" font-weight="400" font-size="41" transform="matrix(1 0 0 1 3556.97119140625 1321)">Week Commencing</text>
		</g>
		<g>
			<text fill="#595959" font-family="Verdana,Open Sans,DejaVu Sans,sans-serif" font-weight="400" font-size="46" transform="matrix(6.12323e-17 -1 1 6.12323e-17 3019.73 1005.4858093261719)">Number of Crawler Profiles</text>
		</g>
		<rect x="2918.5" y="347.5" width="1760" height="1043" stroke="#D9D9D9" stroke-width="3.4375" stroke-linejoin="round" stroke-miterlimit="10" fill="none" />
		<g>
			<path d="M3228.5 1038 3249.4411764705883 1038 3270.3823529411766 1038 3291.323529411765 1038 3312.264705882353 1038 3333.205882352941 1038 3354.1470588235293 1038 3375.0882352941176 1038 3396.029411764706 1038 3416.970588235294 1038 3437.9117647058824 1038 3458.8529411764707 1038 3479.794117647059 1038 3500.735294117647 1038 3521.676470588235 1038 3542.6176470588234 1038 3563.5588235294117 1038 3584.5 1038 3605.4411764705883 1038 3626.3823529411766 1038 3647.323529411765 1038 3668.264705882353 1038 3689.205882352941 1038 3710.1470588235293 1038 3731.0882352941176 1038 3752.029411764706 1038 3772.970588235294 1038 3793.9117647058824 1038 3814.8529411764707 1038 3835.7941176470586 1038 3856.735294117647 1038 3877.676470588235 1038 3898.6176470588234 1038 3919.5588235294117 1038 3940.5 1038 3961.4411764705883 1038 3982.3823529411766 1038 4003.323529411765 1038 4024.264705882353 1038 4045.2058823529414 1038 4066.1470588235293 1038 4087.0882352941176 1038 4108.029411764706 1038 4128.970588235294 1038 4149.911764705882 1038 4170.85294117647 1038 4191.794117647059 1038 4212.735294117647 1038 4233.676470588235 1038 4254.617647058823 1038 4275.558823529412 1038 4296.5 1038 4296.5 399.59203980099494 4275.558823529412 402.77611940298505 4254.617647058823 402.77611940298505 4233.676470588235 421.88059701492534 4212.735294117647 426.6567164179104 4191.794117647059 426.6567164179104 4170.85294117647 426.6567164179104 4149.911764705882 426.6567164179104 4128.970588235294 426.6567164179104 4108.029411764706 429.8407960199005 4087.0882352941176 436.2089552238806 4066.1470588235293 436.2089552238806 4045.2058823529414 436.2089552238806 4024.264705882353 452.1293532338308 4003.323529411765 452.1293532338308 3982.3823529411766 452.1293532338308 3961.4411764705883 455.3134328358209 3940.5 458.4975124378109 3919.5588235294117 455.3134328358209 3898.6176470588234 463.27363184079604 3877.676470588235 483.9701492537313 3856.735294117647 485.56218905472633 3835.7941176470586 487.1542288557214 3814.8529411764707 487.1542288557214 3793.9117647058824 487.1542288557214 3772.970588235294 488.74626865671644 3752.029411764706 491.93034825870643 3731.0882352941176 493.5223880597015 3710.1470588235293 495.11442786069654 3689.205882352941 499.8905472636816 3668.264705882353 499.8905472636816 3647.323529411765 499.8905472636816 3626.3823529411766 501.48258706467664 3605.4411764705883 504.66666666666663 3584.5 504.66666666666663 3563.5588235294117 504.66666666666663 3542.6176470588234 506.2587064676617 3521.676470588235 506.2587064676617 3500.735294117647 506.2587064676617 3479.794117647059 512.6268656716418 3458.8529411764707 512.6268656716418 3437.9117647058824 512.6268656716418 3416.970588235294 512.6268656716418 3396.029411764706 512.6268656716418 3375.0882352941176 512.6268656716418 3354.1470588235293 512.6268656716418 3333.205882352941 512.6268656716418 3312.264705882353 512.6268656716418 3291.323529411765 514.2189054726368 3270.3823529411766 514.2189054726368 3249.4411764705883 515.8109452736318 3228.5 515.8109452736318 3228.5 1038Z" fill="#005aa6" opacity="0.9" />
		</g>
		<g>
			<path d="M3228.5 515.8109452736318 3249.4411764705883 515.8109452736318 3270.3823529411766 514.2189054726368 3291.323529411765 514.2189054726368 3312.264705882353 512.6268656716418 3333.205882352941 512.6268656716418 3354.1470588235293 512.6268656716418 3375.0882352941176 512.6268656716418 3396.029411764706 512.6268656716418 3416.970588235294 512.6268656716418 3437.9117647058824 512.6268656716418 3458.8529411764707 512.6268656716418 3479.794117647059 512.6268656716418 3500.735294117647 506.2587064676617 3521.676470588235 506.2587064676617 3542.6176470588234 506.2587064676617 3563.5588235294117 504.66666666666663 3584.5 504.66666666666663 3605.4411764705883 504.66666666666663 3626.3823529411766 501.48258706467664 3647.323529411765 499.8905472636816 3668.264705882353 499.8905472636816 3689.205882352941 499.8905472636816 3710.1470588235293 495.11442786069654 3731.0882352941176 493.5223880597015 3752.029411764706 491.93034825870643 3772.970588235294 488.74626865671644 3793.9117647058824 487.1542288557214 3814.8529411764707 487.1542288557214 3835.7941176470586 487.1542288557214 3856.735294117647 485.56218905472633 3877.676470588235 483.9701492537313 3898.6176470588234 463.27363184079604 3919.5588235294117 455.3134328358209 3940.5 458.4975124378109 3961.4411764705883 455.3134328358209 3982.3823529411766 452.1293532338308 4003.323529411765 452.1293532338308 4024.264705882353 452.1293532338308 4045.2058823529414 436.2089552238806 4066.1470588235293 436.2089552238806 4087.0882352941176 436.2089552238806 4108.029411764706 429.8407960199005 4128.970588235294 426.6567164179104 4149.911764705882 426.6567164179104 4170.85294117647 426.6567164179104 4191.794117647059 426.6567164179104 4212.735294117647 426.6567164179104 4233.676470588235 421.88059701492534 4254.617647058823 402.77611940298505 4275.558823529412 402.77611940298505 4296.5 399.59203980099494 4296.5 397.9999999999999 4275.558823529412 401.18407960199 4254.617647058823 401.18407960199 4233.676470588235 420.2885572139303 4212.735294117647 425.06467661691534 4191.794117647059 425.06467661691534 4170.85294117647 425.06467661691534 4149.911764705882 425.06467661691534 4128.970588235294 425.06467661691534 4108.029411764706 428.24875621890544 4087.0882352941176 434.61691542288554 4066.1470588235293 434.61691542288554 4045.2058823529414 434.61691542288554 4024.264705882353 450.53731343283573 4003.323529411765 450.53731343283573 3982.3823529411766 450.53731343283573 3961.4411764705883 453.72139303482584 3940.5 455.31343283582083 3919.5588235294117 452.12935323383084 3898.6176470588234 461.681592039801 3877.676470588235 482.3781094527362 3856.735294117647 483.9701492537313 3835.7941176470586 485.56218905472633 3814.8529411764707 485.56218905472633 3793.9117647058824 485.56218905472633 3772.970588235294 487.1542288557214 3752.029411764706 490.3383084577114 3731.0882352941176 491.93034825870643 3710.1470588235293 493.5223880597015 3689.205882352941 498.29850746268653 3668.264705882353 498.29850746268653 3647.323529411765 498.29850746268653 3626.3823529411766 499.8905472636816 3605.4411764705883 503.0746268656716 3584.5 503.0746268656716 3563.5588235294117 503.0746268656716 3542.6176470588234 504.66666666666663 3521.676470588235 504.66666666666663 3500.735294117647 504.66666666666663 3479.794117647059 511.0348258706467 3458.8529411764707 511.0348258706467 3437.9117647058824 511.0348258706467 3416.970588235294 511.0348258706467 3396.029411764706 511.0348258706467 3375.0882352941176 511.0348258706467 3354.1470588235293 511.0348258706467 3333.205882352941 511.0348258706467 3312.264705882353 511.0348258706467 3291.323529411765 512.6268656716418 3270.3823529411766 512.6268656716418 3249.4411764705883 514.2189054726367 3228.5 514.2189054726367 3228.5 515.8109452736318Z" fill="#e62d39" opacity="0.9" />
		</g>
		<g>
			<rect x="4372" y="431" width="22.9995" height="23" fill="#005aa6" />
		</g>
		<g>
			<text fill="#595959" font-family="Verdana,Open Sans,DejaVu Sans,sans-serif" font-weight="400" font-size="41" transform="matrix(1 0 0 1 4404.56 454)">Crawler</text>
		</g>
		<g>
			<rect x="4372" y="508" width="22.9995" height="23" fill="#e62d39" />
		</g>
		<g>
			<text fill="#595959" font-family="Verdana,Open Sans,DejaVu Sans,sans-serif" font-weight="400" font-size="41" transform="matrix(1 0 0 1 4404.56 531)">Non-Crawler</text>
		</g>
	</g>
</svg>
