<svg width="1763" height="1046"
    xmlns="http://www.w3.org/2000/svg"
	xmlns:xlink="http://www.w3.org/1999/xlink" xml:space="preserve" overflow="hidden">
	<defs>
		<clipPath id="clip0">
			<rect x="2917" y="346" width="1763" height="1046"/>
		</clipPath>
	</defs>
	<g clip-path="url(#clip0)" transform="translate(-2917 -346)">
		<rect x="2918" y="347" width="1760" height="1043" fill="#FFFFFF" />
		<g>
			<path d="
			M3228.5 974.532 4296.5 974.532
			M3228.5 910.53 4296.5 910.53
			M3228.5 846.528 4296.5 846.528
			M3228.5 781.526 4296.5 781.526
			M3228.5 717.524 4296.5 717.524
			M3228.5 653.522 4296.5 653.522
			M3228.5 589.52 4296.5 589.52
			M3228.5 525.517 4296.5 525.517
			M3228.5 461.515 4296.5 461.515
			M3228.5 397.5 4296.5 397.5" stroke="#D9D9D9" stroke-width="3.4375" stroke-linejoin="round" stroke-miterlimit="10" fill="none" />
		</g>
		<g>
			<path d="M 1038.5 4296.5 1038.5" stroke="#D9D9D9" stroke-width="3.4375" stroke-linejoin="round" stroke-miterlimit="10" fill="none" fill-rule="evenodd" />
		</g>
		<g>
			<text fill="#595959" font-family="Verdana,Open Sans,DejaVu Sans,sans-serif" font-weight="400" font-size="41" transform="matrix(6.12323e-17 -1 1 6.12323e-17 3243.544677734375 1205.3642578125)">16-Dec</text>
		</g>
		<g>
			<text fill="#595959" font-family="Verdana,Open Sans,DejaVu Sans,sans-serif" font-weight="400" font-size="41" transform="matrix(6.12323e-17 -1 1 6.12323e-17 3332.6382421875 1189.9291915893555)">13-Jan</text>
		</g>
		<g>
			<text fill="#595959" font-family="Verdana,Open Sans,DejaVu Sans,sans-serif" font-weight="400" font-size="41" transform="matrix(6.12323e-17 -1 1 6.12323e-17 3415.155390625 1201.3203125)">10-Feb</text>
		</g>
		<g>
			<text fill="#595959" font-family="Verdana,Open Sans,DejaVu Sans,sans-serif" font-weight="400" font-size="41" transform="matrix(6.12323e-17 -1 1 6.12323e-17 3499.884697265625 1210.2890625)">10-Mar</text>
		</g>
		<g>
			<text fill="#595959" font-family="Verdana,Open Sans,DejaVu Sans,sans-serif" font-weight="400" font-size="41" transform="matrix(6.12323e-17 -1 1 6.12323e-17 3590.049306640625 1203.2621994018555)">07-Apr</text>
		</g>
		<g>
			<text fill="#595959" font-family="Verdana,Open Sans,DejaVu Sans,sans-serif" font-weight="400" font-size="41" transform="matrix(6.12323e-17 -1 1 6.12323e-17 3675.489306640625 1216.47509765625)">05-May</text>
		</g>
		<g>
			<text fill="#595959" font-family="Verdana,Open Sans,DejaVu Sans,sans-serif" font-weight="400" font-size="41" transform="matrix(6.12323e-17 -1 1 6.12323e-17 3759.85826171875 1194.0131759643555)">09-Jun</text>
		</g>
		<g>
			<text fill="#595959" font-family="Verdana,Open Sans,DejaVu Sans,sans-serif" font-weight="400" font-size="41" transform="matrix(6.12323e-17 -1 1 6.12323e-17 3846.008955078125 1178.9985275268555)">07-Jul</text>
		</g>
		<g>
			<text fill="#595959" font-family="Verdana,Open Sans,DejaVu Sans,sans-serif" font-weight="400" font-size="41" transform="matrix(6.12323e-17 -1 1 6.12323e-17 3931.809306640625 1208.62744140625)">04-Aug</text>
		</g>
		<g>
			<text fill="#595959" font-family="Verdana,Open Sans,DejaVu Sans,sans-serif" font-weight="400" font-size="41" transform="matrix(6.12323e-17 -1 1 6.12323e-17 4017.249306640625 1204.38330078125)">01-Sep</text>
		</g>
		<g>
			<text fill="#595959" font-family="Verdana,Open Sans,DejaVu Sans,sans-serif" font-weight="400" font-size="41" transform="matrix(6.12323e-17 -1 1 6.12323e-17 4102.669287109375 1204.42333984375)">29-Sep</text>
		</g>
		<g>
			<text fill="#595959" font-family="Verdana,Open Sans,DejaVu Sans,sans-serif" font-weight="400" font-size="41" transform="matrix(6.12323e-17 -1 1 6.12323e-17 4183.404697265625 1201.1401290893555)">27-Oct</text>
		</g>
		<g>
			<text fill="#595959" font-family="Verdana,Open Sans,DejaVu Sans,sans-serif" font-weight="400" font-size="41" transform="matrix(6.12323e-17 -1 1 6.12323e-17 4268.824677734375 1211.47021484375)">24-Nov</text>
		</g>
		<g>
			<text fill="#595959" font-family="Verdana,Open Sans,DejaVu Sans,sans-serif" font-weight="400" font-size="41" transform="matrix(1 0 0 1 3135.4482421875 1050)">0%</text>
		</g>
		<g>
			<text fill="#595959" font-family="Verdana,Open Sans,DejaVu Sans,sans-serif" font-weight="400" font-size="41" transform="matrix(1 0 0 1 3111.96533203125 922)">20%</text>
		</g>
		<g>
			<text fill="#595959" font-family="Verdana,Open Sans,DejaVu Sans,sans-serif" font-weight="400" font-size="41" transform="matrix(1 0 0 1 3110.82421875 794)">40%</text>
		</g>
		<g>
			<text fill="#595959" font-family="Verdana,Open Sans,DejaVu Sans,sans-serif" font-weight="400" font-size="41" transform="matrix(1 0 0 1 3112.3056640625 666)">60%</text>
		</g>
		<g>
			<text fill="#595959" font-family="Verdana,Open Sans,DejaVu Sans,sans-serif" font-weight="400" font-size="41" transform="matrix(1 0 0 1 3112.04541015625 538)">80%</text>
		</g>
		<g>
			<text fill="#595959" font-family="Verdana,Open Sans,DejaVu Sans,sans-serif" font-weight="400" font-size="41" transform="matrix(1 0 0 1 3090.2841796875 410)">100%</text>
		</g>
		<g>
			<text fill="#595959" font-family="Verdana,Open Sans,DejaVu Sans,sans-serif" font-weight="400" font-size="41" transform="matrix(1 0 0 1 3556.97119140625 1321)">Week Commencing</text>
		</g>
		<g>
			<text fill="#595959" font-family="Verdana,Open Sans,DejaVu Sans,sans-serif" font-weight="400" font-size="46" transform="matrix(6.12323e-17 -1 1 6.12323e-17 3019.73 936.7665710449219)">Requests (% of Total)</text>
		</g>
		<rect x="2918.5" y="347.5" width="1760" height="1043" stroke="#D9D9D9" stroke-width="3.4375" stroke-linejoin="round" stroke-miterlimit="10" fill="none" />
		<g>
			<path d="M3228.5 1038 3249.86 1038 3271.22 1038 3292.58 1038 3313.94 1038 3335.3 1038 3356.66 1038 3378.02 1038 3399.38 1038 3420.74 1038 3442.1 1038 3463.46 1038 3484.82 1038 3506.18 1038 3527.54 1038 3548.9 1038 3570.26 1038 3591.62 1038 3612.98 1038 3634.34 1038 3655.7 1038 3677.06 1038 3698.42 1038 3719.7799999999997 1038 3741.14 1038 3762.5 1038 3783.86 1038 3805.2200000000003 1038 3826.58 1038 3847.94 1038 3869.3 1038 3890.66 1038 3912.02 1038 3933.38 1038 3954.74 1038 3976.1 1038 3997.46 1038 4018.8199999999997 1038 4040.18 1038 4061.54 1038 4082.9 1038 4104.26 1038 4125.62 1038 4146.98 1038 4168.34 1038 4189.7 1038 4211.0599999999995 1038 4232.42 1038 4253.78 1038 4275.139999999999 1038 4296.5 1038 4296.5 438.6550093538849 4275.139999999999 438.8753603320732 4253.78 440.072777946987 4232.42 439.54649540853677 4211.0599999999995 439.7648762802967 4189.7 440.0929578933227 4168.34 440.1107731424996 4146.98 440.17666153343987 4125.62 440.17259352262283 4104.26 440.3280263296216 4082.9 440.34799215358134 4061.54 440.40616975209355 4040.18 440.40760550465325 4018.8199999999997 440.94196380839696 3997.46 441.17078340782746 3976.1 441.17336955313306 3954.74 441.3391880005887 3933.38 441.48654078274615 3912.02 441.48316478044603 3890.66 441.484756503997 3869.3 441.489616515065 3847.94 441.29796426599523 3826.58 441.72595383903854 3805.2200000000003 442.8417422387853 3783.86 442.854171965349 3762.5 442.95845521922934 3741.14 442.9731674669964 3719.7799999999997 443.09587998074596 3698.42 442.9453880046191 3677.06 442.7539759175269 3655.7 442.4035157162202 3634.34 442.11056785584276 3612.98 441.83280494374446 3591.62 441.70333243098173 3570.26 441.6626940555466 3548.9 441.6573661278967 3527.54 441.5375979828307 3506.18 441.406683369976 3484.82 441.167209213907 3463.46 441.0289316920836 3442.1 441.03561787240676 3420.74 441.06205687573333 3399.38 441.14123809544583 3378.02 441.04668014176025 3356.66 441.3325461823914 3335.3 441.50673382811704 3313.94 441.5263210359809 3292.58 441.5338725099368 3271.22 441.5429030927178 3249.86 441.47417224977323 3228.5 441.4594945700171 3228.5 1038Z" fill="#e62d39" opacity="0.9" />
		</g>
		<g>
			<path d="M3228.5 441.4594945700171 3249.86 441.47417224977323 3271.22 441.5429030927178 3292.58 441.5338725099368 3313.94 441.5263210359809 3335.3 441.50673382811704 3356.66 441.3325461823914 3378.02 441.04668014176025 3399.38 441.14123809544583 3420.74 441.06205687573333 3442.1 441.03561787240676 3463.46 441.0289316920836 3484.82 441.167209213907 3506.18 441.406683369976 3527.54 441.5375979828307 3548.9 441.6573661278967 3570.26 441.6626940555466 3591.62 441.70333243098173 3612.98 441.83280494374446 3634.34 442.11056785584276 3655.7 442.4035157162202 3677.06 442.7539759175269 3698.42 442.9453880046191 3719.7799999999997 443.09587998074596 3741.14 442.9731674669964 3762.5 442.95845521922934 3783.86 442.854171965349 3805.2200000000003 442.8417422387853 3826.58 441.72595383903854 3847.94 441.29796426599523 3869.3 441.489616515065 3890.66 441.484756503997 3912.02 441.48316478044603 3933.38 441.48654078274615 3954.74 441.3391880005887 3976.1 441.17336955313306 3997.46 441.17078340782746 4018.8199999999997 440.94196380839696 4040.18 440.40760550465325 4061.54 440.40616975209355 4082.9 440.34799215358134 4104.26 440.3280263296216 4125.62 440.17259352262283 4146.98 440.17666153343987 4168.34 440.1107731424996 4189.7 440.0929578933227 4211.0599999999995 439.7648762802967 4232.42 439.54649540853677 4253.78 440.072777946987 4275.139999999999 438.8753603320732 4296.5 438.6550093538849 4296.5 398.00000000000006 4275.139999999999 398 4253.78 398 4232.42 398 4211.0599999999995 398.00000000000006 4189.7 398 4168.34 398 4146.98 398.00000000000006 4125.62 398 4104.26 398.00000000000006 4082.9 398.00000000000006 4061.54 398.0000000000001 4040.18 398 4018.8199999999997 398 3997.46 398 3976.1 397.99999999999994 3954.74 398 3933.38 398 3912.02 397.99999999999994 3890.66 398 3869.3 398 3847.94 397.99999999999994 3826.58 398 3805.2200000000003 398 3783.86 397.99999999999994 3762.5 398.00000000000006 3741.14 398 3719.7799999999997 398 3698.42 398.00000000000006 3677.06 397.99999999999994 3655.7 398 3634.34 398.00000000000006 3612.98 398 3591.62 398 3570.26 398 3548.9 398 3527.54 398.00000000000006 3506.18 398 3484.82 398 3463.46 398 3442.1 398 3420.74 397.99999999999994 3399.38 398 3378.02 398.00000000000006 3356.66 397.99999999999994 3335.3 398.00000000000006 3313.94 398 3292.58 398 3271.22 398 3249.86 398 3228.5 398.00000000000006 3228.5 441.4594945700171Z" fill="#005aa6" opacity="0.9" />
		</g>
		<g>
			<rect x="4372" y="431" width="22.9995" height="23" fill="#e62d39" />
		</g>
		<g>
			<text fill="#595959" font-family="Verdana,Open Sans,DejaVu Sans,sans-serif" font-weight="400" font-size="41" transform="matrix(1 0 0 1 4404.56 454)">Non-Crawler</text>
		</g>
		<g>
			<rect x="4372" y="508" width="22.9995" height="23" fill="#005aa6" />
		</g>
		<g>
			<text fill="#595959" font-family="Verdana,Open Sans,DejaVu Sans,sans-serif" font-weight="400" font-size="41" transform="matrix(1 0 0 1 4404.56 531)">Crawler</text>
		</g>
	</g>
</svg>
