<svg width="1763" height="1046"
    xmlns="http://www.w3.org/2000/svg"
	xmlns:xlink="http://www.w3.org/1999/xlink" xml:space="preserve" overflow="hidden">
	<defs>
		<clipPath id="clip0">
			<rect x="2917" y="346" width="1763" height="1046"/>
		</clipPath>
	</defs>
	<g clip-path="url(#clip0)" transform="translate(-2917 -346)">
		<rect x="2918" y="347" width="1760" height="1043" fill="#FFFFFF" />
		<g>
			<path d="
			M3228.5 974.532 4296.5 974.532
			M3228.5 910.53 4296.5 910.53
			M3228.5 846.528 4296.5 846.528
			M3228.5 781.526 4296.5 781.526
			M3228.5 717.524 4296.5 717.524
			M3228.5 653.522 4296.5 653.522
			M3228.5 589.52 4296.5 589.52
			M3228.5 525.517 4296.5 525.517
			M3228.5 461.515 4296.5 461.515
			M3228.5 397.5 4296.5 397.5" stroke="#D9D9D9" stroke-width="3.4375" stroke-linejoin="round" stroke-miterlimit="10" fill="none" />
		</g>
		<g>
			<path d="M 1038.5 4296.5 1038.5" stroke="#D9D9D9" stroke-width="3.4375" stroke-linejoin="round" stroke-miterlimit="10" fill="none" fill-rule="evenodd" />
		</g>
		<g>
			<text fill="#595959" font-family="Verdana,sans-serif" font-weight="400" font-size="41" transform="matrix(6.12323e-17 -1 1 6.12323e-17 3244.5 1214)">19-Feb</text>
		</g>
		<g>
			<text fill="#595959" font-family="Verdana,sans-serif" font-weight="400" font-size="41" transform="matrix(6.12323e-17 -1 1 6.12323e-17 3328.264705882353 1221)">18-Mar</text>
		</g>
		<g>
			<text fill="#595959" font-family="Verdana,sans-serif" font-weight="400" font-size="41" transform="matrix(6.12323e-17 -1 1 6.12323e-17 3415.529411764706 1214)">15-Apr</text>
		</g>
		<g>
			<text fill="#595959" font-family="Verdana,sans-serif" font-weight="400" font-size="41" transform="matrix(6.12323e-17 -1 1 6.12323e-17 3499.294117647059 1226)">13-May</text>
		</g>
		<g>
			<text fill="#595959" font-family="Verdana,sans-serif" font-weight="400" font-size="41" transform="matrix(6.12323e-17 -1 1 6.12323e-17 3579.5588235294117 1209)">10-Jun</text>
		</g>
		<g>
			<text fill="#595959" font-family="Verdana,sans-serif" font-weight="400" font-size="41" transform="matrix(6.12323e-17 -1 1 6.12323e-17 3663.323529411765 1197)">08-Jul</text>
		</g>
		<g>
			<text fill="#595959" font-family="Verdana,sans-serif" font-weight="400" font-size="41" transform="matrix(6.12323e-17 -1 1 6.12323e-17 3750.5882352941176 1221)">05-Aug</text>
		</g>
		<g>
			<text fill="#595959" font-family="Verdana,sans-serif" font-weight="400" font-size="41" transform="matrix(6.12323e-17 -1 1 6.12323e-17 3834.3529411764707 1222)">02-Sep</text>
		</g>
		<g>
			<text fill="#595959" font-family="Verdana,sans-serif" font-weight="400" font-size="41" transform="matrix(6.12323e-17 -1 1 6.12323e-17 3918.1176470588234 1221)">30-Sep</text>
		</g>
		<g>
			<text fill="#595959" font-family="Verdana,sans-serif" font-weight="400" font-size="41" transform="matrix(6.12323e-17 -1 1 6.12323e-17 3998.3823529411766 1215)">28-Oct</text>
		</g>
		<g>
			<text fill="#595959" font-family="Verdana,sans-serif" font-weight="400" font-size="41" transform="matrix(6.12323e-17 -1 1 6.12323e-17 4082.1470588235293 1224)">25-Nov</text>
		</g>
		<g>
			<text fill="#595959" font-family="Verdana,sans-serif" font-weight="400" font-size="41" transform="matrix(6.12323e-17 -1 1 6.12323e-17 4165.911764705882 1222)">30-Dec</text>
		</g>
		<g>
			<text fill="#595959" font-family="Verdana,sans-serif" font-weight="400" font-size="41" transform="matrix(6.12323e-17 -1 1 6.12323e-17 4249.676470588235 1210)">27-Jan</text>
		</g>
		<g>
			<text fill="#595959" font-family="Verdana,sans-serif" font-weight="400" font-size="41" transform="matrix(1 0 0 1 3167.5 1050)">0</text>
		</g>
		<g>
			<text fill="#595959" font-family="Verdana,sans-serif" font-weight="400" font-size="41" transform="matrix(1 0 0 1 3141.5 922)">62</text>
		</g>
		<g>
			<text fill="#595959" font-family="Verdana,sans-serif" font-weight="400" font-size="41" transform="matrix(1 0 0 1 3117.5 794)">124</text>
		</g>
		<g>
			<text fill="#595959" font-family="Verdana,sans-serif" font-weight="400" font-size="41" transform="matrix(1 0 0 1 3117.5 666)">187</text>
		</g>
		<g>
			<text fill="#595959" font-family="Verdana,sans-serif" font-weight="400" font-size="41" transform="matrix(1 0 0 1 3115.5 538)">249</text>
		</g>
		<g>
			<text fill="#595959" font-family="Verdana,sans-serif" font-weight="400" font-size="41" transform="matrix(1 0 0 1 3117.5 410)">311</text>
		</g>
		<g>
			<text fill="#595959" font-family="Verdana,sans-serif" font-weight="400" font-size="41" transform="matrix(1 0 0 1 3544.5 1321)">Week Commencing</text>
		</g>
		<g>
			<text fill="#595959" font-family="Verdana,sans-serif" font-weight="400" font-size="46" transform="matrix(6.12323e-17 -1 1 6.12323e-17 3019.73 1024.75)">Number of Crawler Profiles</text>
		</g>
		<rect x="2918.5" y="347.5" width="1760" height="1043" stroke="#D9D9D9" stroke-width="3.4375" stroke-linejoin="round" stroke-miterlimit="10" fill="none" />
		<g>
			<path d="M3228.5 1038 3249.4411764705883 1038 3270.3823529411766 1038 3291.323529411765 1038 3312.264705882353 1038 3333.205882352941 1038 3354.1470588235293 1038 3375.0882352941176 1038 3396.029411764706 1038 3416.970588235294 1038 3437.9117647058824 1038 3458.8529411764707 1038 3479.794117647059 1038 3500.735294117647 1038 3521.676470588235 1038 3542.6176470588234 1038 3563.5588235294117 1038 3584.5 1038 3605.4411764705883 1038 3626.3823529411766 1038 3647.323529411765 1038 3668.264705882353 1038 3689.205882352941 1038 3710.1470588235293 1038 3731.0882352941176 1038 3752.029411764706 1038 3772.970588235294 1038 3793.9117647058824 1038 3814.8529411764707 1038 3835.7941176470586 1038 3856.735294117647 1038 3877.676470588235 1038 3898.6176470588234 1038 3919.5588235294117 1038 3940.5 1038 3961.4411764705883 1038 3982.3823529411766 1038 4003.323529411765 1038 4024.264705882353 1038 4045.2058823529414 1038 4066.1470588235293 1038 4087.0882352941176 1038 4108.029411764706 1038 4128.970588235294 1038 4149.911764705882 1038 4170.85294117647 1038 4191.794117647059 1038 4212.735294117647 1038 4233.676470588235 1038 4254.617647058823 1038 4275.558823529412 1038 4296.5 1038 4296.5 400.0578778135049 4275.558823529412 402.11575562700966 4254.617647058823 404.17363344051455 4233.676470588235 406.2315112540193 4212.735294117647 406.2315112540193 4191.794117647059 410.347266881029 4170.85294117647 412.40514469453376 4149.911764705882 412.40514469453376 4128.970588235294 412.40514469453376 4108.029411764706 416.5209003215434 4087.0882352941176 418.5787781350483 4066.1470588235293 424.75241157556275 4045.2058823529414 432.98392282958207 4024.264705882353 445.33118971061094 4003.323529411765 451.5048231511255 3982.3823529411766 451.5048231511255 3961.4411764705883 449.4469453376206 3940.5 453.56270096463027 3919.5588235294117 459.7363344051447 3898.6176470588234 467.967845659164 3877.676470588235 467.967845659164 3856.735294117647 470.0257234726688 3835.7941176470586 480.315112540193 3814.8529411764707 484.43086816720256 3793.9117647058824 488.5466237942122 3772.970588235294 488.5466237942122 3752.029411764706 492.6623794212219 3731.0882352941176 492.6623794212219 3710.1470588235293 494.7202572347268 3689.205882352941 496.77813504823155 3668.264705882353 505.00964630225087 3647.323529411765 511.1832797427653 3626.3823529411766 519.4147909967846 3605.4411764705883 525.5884244372991 3584.5 535.8778135048232 3563.5588235294117 539.9935691318328 3542.6176470588234 539.9935691318328 3521.676470588235 539.9935691318328 3500.735294117647 542.0514469453376 3479.794117647059 546.1672025723474 3458.8529411764707 554.3987138263666 3437.9117647058824 558.5144694533763 3416.970588235294 560.572347266881 3396.029411764706 560.572347266881 3375.0882352941176 568.8038585209003 3354.1470588235293 568.8038585209003 3333.205882352941 579.0932475884244 3312.264705882353 599.6720257234726 3291.323529411765 603.7877813504824 3270.3823529411766 607.903536977492 3249.4411764705883 618.1929260450161 3228.5 620.250803858521 3228.5 1038Z" fill="#005aa6" opacity="0.9" />
		</g>
		<g>
			<path d="M3228.5 620.250803858521 3249.4411764705883 618.1929260450161 3270.3823529411766 607.903536977492 3291.323529411765 603.7877813504824 3312.264705882353 599.6720257234726 3333.205882352941 579.0932475884244 3354.1470588235293 568.8038585209003 3375.0882352941176 568.8038585209003 3396.029411764706 560.572347266881 3416.970588235294 560.572347266881 3437.9117647058824 558.5144694533763 3458.8529411764707 554.3987138263666 3479.794117647059 546.1672025723474 3500.735294117647 542.0514469453376 3521.676470588235 539.9935691318328 3542.6176470588234 539.9935691318328 3563.5588235294117 539.9935691318328 3584.5 535.8778135048232 3605.4411764705883 525.5884244372991 3626.3823529411766 519.4147909967846 3647.323529411765 511.1832797427653 3668.264705882353 505.00964630225087 3689.205882352941 496.77813504823155 3710.1470588235293 494.7202572347268 3731.0882352941176 492.6623794212219 3752.029411764706 492.6623794212219 3772.970588235294 488.5466237942122 3793.9117647058824 488.5466237942122 3814.8529411764707 484.43086816720256 3835.7941176470586 480.315112540193 3856.735294117647 470.0257234726688 3877.676470588235 467.967845659164 3898.6176470588234 467.967845659164 3919.5588235294117 459.7363344051447 3940.5 453.56270096463027 3961.4411764705883 449.4469453376206 3982.3823529411766 451.5048231511255 4003.323529411765 451.5048231511255 4024.264705882353 445.33118971061094 4045.2058823529414 432.98392282958207 4066.1470588235293 424.75241157556275 4087.0882352941176 418.5787781350483 4108.029411764706 416.5209003215434 4128.970588235294 412.40514469453376 4149.911764705882 412.40514469453376 4170.85294117647 412.40514469453376 4191.794117647059 410.347266881029 4212.735294117647 406.2315112540193 4233.676470588235 406.2315112540193 4254.617647058823 404.17363344051455 4275.558823529412 402.11575562700966 4296.5 400.0578778135049 4296.5 398.00000000000006 4275.558823529412 400.05787781350483 4254.617647058823 402.1157556270097 4233.676470588235 404.1736334405145 4212.735294117647 404.1736334405145 4191.794117647059 408.28938906752416 4170.85294117647 410.34726688102893 4149.911764705882 410.34726688102893 4128.970588235294 410.34726688102893 4108.029411764706 414.4630225080386 4087.0882352941176 416.5209003215435 4066.1470588235293 422.6945337620579 4045.2058823529414 430.92604501607724 4024.264705882353 443.2733118971061 4003.323529411765 449.44694533762066 3982.3823529411766 449.44694533762066 3961.4411764705883 447.3890675241158 3940.5 451.50482315112544 3919.5588235294117 457.6784565916399 3898.6176470588234 465.9099678456592 3877.676470588235 465.9099678456592 3856.735294117647 467.96784565916397 3835.7941176470586 478.2572347266882 3814.8529411764707 482.37299035369773 3793.9117647058824 486.4887459807074 3772.970588235294 486.4887459807074 3752.029411764706 490.60450160771705 3731.0882352941176 490.60450160771705 3710.1470588235293 492.66237942122194 3689.205882352941 494.7202572347267 3668.264705882353 502.95176848874604 3647.323529411765 509.1254019292605 3626.3823529411766 517.3569131832799 3605.4411764705883 523.5305466237943 3584.5 533.8199356913184 3563.5588235294117 537.935691318328 3542.6176470588234 537.935691318328 3521.676470588235 537.935691318328 3500.735294117647 539.9935691318328 3479.794117647059 544.1093247588426 3458.8529411764707 552.3408360128618 3437.9117647058824 556.4565916398715 3416.970588235294 558.5144694533763 3396.029411764706 558.5144694533763 3375.0882352941176 566.7459807073956 3354.1470588235293 566.7459807073956 3333.205882352941 577.0353697749197 3312.264705882353 597.6141479099679 3291.323529411765 601.7299035369776 3270.3823529411766 605.8456591639872 3249.4411764705883 616.1350482315113 3228.5 618.1929260450162 3228.5 620.250803858521Z" fill="#e62d39" opacity="0.9" />
		</g>
		<g>
			<rect x="4372" y="431" width="22.9995" height="23" fill="#005aa6" />
		</g>
		<g>
			<text fill="#595959" font-family="Verdana,sans-serif" font-weight="400" font-size="41" transform="matrix(1 0 0 1 4404.56 454)">Crawler</text>
		</g>
		<g>
			<rect x="4372" y="508" width="22.9995" height="23" fill="#e62d39" />
		</g>
		<g>
			<text fill="#595959" font-family="Verdana,sans-serif" font-weight="400" font-size="41" transform="matrix(1 0 0 1 4404.56 531)">Non-Crawler</text>
		</g>
	</g>
</svg>
