<svg width="1763" height="1046"
    xmlns="http://www.w3.org/2000/svg"
	xmlns:xlink="http://www.w3.org/1999/xlink" xml:space="preserve" overflow="hidden">
	<defs>
		<clipPath id="clip0">
			<rect x="2917" y="346" width="1763" height="1046"/>
		</clipPath>
	</defs>
	<g clip-path="url(#clip0)" transform="translate(-2917 -346)">
		<rect x="2918" y="347" width="1760" height="1043" fill="#FFFFFF" />
		<g>
			<path d="
			M3228.5 974.532 4296.5 974.532
			M3228.5 910.53 4296.5 910.53
			M3228.5 846.528 4296.5 846.528
			M3228.5 781.526 4296.5 781.526
			M3228.5 717.524 4296.5 717.524
			M3228.5 653.522 4296.5 653.522
			M3228.5 589.52 4296.5 589.52
			M3228.5 525.517 4296.5 525.517
			M3228.5 461.515 4296.5 461.515
			M3228.5 397.5 4296.5 397.5" stroke="#D9D9D9" stroke-width="3.4375" stroke-linejoin="round" stroke-miterlimit="10" fill="none" />
		</g>
		<g>
			<path d="M 1038.5 4296.5 1038.5" stroke="#D9D9D9" stroke-width="3.4375" stroke-linejoin="round" stroke-miterlimit="10" fill="none" fill-rule="evenodd" />
		</g>
		<g>
			<text fill="#595959" font-family="Verdana,Open Sans,DejaVu Sans,sans-serif" font-weight="400" font-size="41" transform="matrix(6.12323e-17 -1 1 6.12323e-17 3243.564697265625 1201.1401290893555)">21-Oct</text>
		</g>
		<g>
			<text fill="#595959" font-family="Verdana,Open Sans,DejaVu Sans,sans-serif" font-weight="400" font-size="41" transform="matrix(6.12323e-17 -1 1 6.12323e-17 3328.984677734375 1209.70849609375)">18-Nov</text>
		</g>
		<g>
			<text fill="#595959" font-family="Verdana,Open Sans,DejaVu Sans,sans-serif" font-weight="400" font-size="41" transform="matrix(6.12323e-17 -1 1 6.12323e-17 3414.424677734375 1207.1259765625)">23-Dec</text>
		</g>
		<g>
			<text fill="#595959" font-family="Verdana,Open Sans,DejaVu Sans,sans-serif" font-weight="400" font-size="41" transform="matrix(6.12323e-17 -1 1 6.12323e-17 3503.53826171875 1191.6909103393555)">20-Jan</text>
		</g>
		<g>
			<text fill="#595959" font-family="Verdana,Open Sans,DejaVu Sans,sans-serif" font-weight="400" font-size="41" transform="matrix(6.12323e-17 -1 1 6.12323e-17 3586.035390625 1201.3203125)">17-Feb</text>
		</g>
		<g>
			<text fill="#595959" font-family="Verdana,Open Sans,DejaVu Sans,sans-serif" font-weight="400" font-size="41" transform="matrix(6.12323e-17 -1 1 6.12323e-17 3670.53447265625 1210.2890625)">17-Mar</text>
		</g>
		<g>
			<text fill="#595959" font-family="Verdana,Open Sans,DejaVu Sans,sans-serif" font-weight="400" font-size="41" transform="matrix(6.12323e-17 -1 1 6.12323e-17 3760.77916015625 1201.5405197143555)">14-Apr</text>
		</g>
		<g>
			<text fill="#595959" font-family="Verdana,Open Sans,DejaVu Sans,sans-serif" font-weight="400" font-size="41" transform="matrix(6.12323e-17 -1 1 6.12323e-17 3846.349287109375 1214.75341796875)">12-May</text>
		</g>
		<g>
			<text fill="#595959" font-family="Verdana,Open Sans,DejaVu Sans,sans-serif" font-weight="400" font-size="41" transform="matrix(6.12323e-17 -1 1 6.12323e-17 3930.7182421875 1192.2914962768555)">16-Jun</text>
		</g>
		<g>
			<text fill="#595959" font-family="Verdana,Open Sans,DejaVu Sans,sans-serif" font-weight="400" font-size="41" transform="matrix(6.12323e-17 -1 1 6.12323e-17 4016.888955078125 1177.2768478393555)">14-Jul</text>
		</g>
		<g>
			<text fill="#595959" font-family="Verdana,Open Sans,DejaVu Sans,sans-serif" font-weight="400" font-size="41" transform="matrix(6.12323e-17 -1 1 6.12323e-17 4102.519140625 1206.90576171875)">11-Aug</text>
		</g>
		<g>
			<text fill="#595959" font-family="Verdana,Open Sans,DejaVu Sans,sans-serif" font-weight="400" font-size="41" transform="matrix(6.12323e-17 -1 1 6.12323e-17 4188.129306640625 1204.38330078125)">08-Sep</text>
		</g>
		<g>
			<text fill="#595959" font-family="Verdana,Open Sans,DejaVu Sans,sans-serif" font-weight="400" font-size="41" transform="matrix(6.12323e-17 -1 1 6.12323e-17 4268.844697265625 1201.1000900268555)">06-Oct</text>
		</g>
		<g>
			<text fill="#595959" font-family="Verdana,Open Sans,DejaVu Sans,sans-serif" font-weight="400" font-size="41" transform="matrix(1 0 0 1 3135.4482421875 1050)">0%</text>
		</g>
		<g>
			<text fill="#595959" font-family="Verdana,Open Sans,DejaVu Sans,sans-serif" font-weight="400" font-size="41" transform="matrix(1 0 0 1 3111.96533203125 922)">20%</text>
		</g>
		<g>
			<text fill="#595959" font-family="Verdana,Open Sans,DejaVu Sans,sans-serif" font-weight="400" font-size="41" transform="matrix(1 0 0 1 3110.82421875 794)">40%</text>
		</g>
		<g>
			<text fill="#595959" font-family="Verdana,Open Sans,DejaVu Sans,sans-serif" font-weight="400" font-size="41" transform="matrix(1 0 0 1 3112.3056640625 666)">60%</text>
		</g>
		<g>
			<text fill="#595959" font-family="Verdana,Open Sans,DejaVu Sans,sans-serif" font-weight="400" font-size="41" transform="matrix(1 0 0 1 3112.04541015625 538)">80%</text>
		</g>
		<g>
			<text fill="#595959" font-family="Verdana,Open Sans,DejaVu Sans,sans-serif" font-weight="400" font-size="41" transform="matrix(1 0 0 1 3090.2841796875 410)">100%</text>
		</g>
		<g>
			<text fill="#595959" font-family="Verdana,Open Sans,DejaVu Sans,sans-serif" font-weight="400" font-size="41" transform="matrix(1 0 0 1 3556.97119140625 1321)">Week Commencing</text>
		</g>
		<g>
			<text fill="#595959" font-family="Verdana,Open Sans,DejaVu Sans,sans-serif" font-weight="400" font-size="46" transform="matrix(6.12323e-17 -1 1 6.12323e-17 3019.73 936.7665710449219)">Requests (% of Total)</text>
		</g>
		<rect x="2918.5" y="347.5" width="1760" height="1043" stroke="#D9D9D9" stroke-width="3.4375" stroke-linejoin="round" stroke-miterlimit="10" fill="none" />
		<g>
			<path d="M3228.5 1038 3249.86 1038 3271.22 1038 3292.58 1038 3313.94 1038 3335.3 1038 3356.66 1038 3378.02 1038 3399.38 1038 3420.74 1038 3442.1 1038 3463.46 1038 3484.82 1038 3506.18 1038 3527.54 1038 3548.9 1038 3570.26 1038 3591.62 1038 3612.98 1038 3634.34 1038 3655.7 1038 3677.06 1038 3698.42 1038 3719.7799999999997 1038 3741.14 1038 3762.5 1038 3783.86 1038 3805.2200000000003 1038 3826.58 1038 3847.94 1038 3869.3 1038 3890.66 1038 3912.02 1038 3933.38 1038 3954.74 1038 3976.1 1038 3997.46 1038 4018.8199999999997 1038 4040.18 1038 4061.54 1038 4082.9 1038 4104.26 1038 4125.62 1038 4146.98 1038 4168.34 1038 4189.7 1038 4211.0599999999995 1038 4232.42 1038 4253.78 1038 4275.139999999999 1038 4296.5 1038 4296.5 440.17666153343987 4275.139999999999 440.17259352262283 4253.78 440.3280263296216 4232.42 440.34799215358134 4211.0599999999995 440.40616975209355 4189.7 440.40760550465325 4168.34 440.94196380839696 4146.98 441.17078340782746 4125.62 441.17336955313306 4104.26 441.3391880005887 4082.9 441.48654078274615 4061.54 441.48316478044603 4040.18 441.484756503997 4018.8199999999997 441.489616515065 3997.46 441.29796426599523 3976.1 441.72595383903854 3954.74 442.8417422387853 3933.38 442.854171965349 3912.02 442.95845521922934 3890.66 442.9731674669964 3869.3 443.09587998074596 3847.94 442.9453880046191 3826.58 442.7539759175269 3805.2200000000003 442.4035157162202 3783.86 442.11056785584276 3762.5 441.83280494374446 3741.14 441.70333243098173 3719.7799999999997 441.6626940555466 3698.42 441.6573661278967 3677.06 441.5375979828307 3655.7 441.406683369976 3634.34 441.167209213907 3612.98 441.0289316920836 3591.62 441.03561787240676 3570.26 441.06205687573333 3548.9 441.14123809544583 3527.54 441.04668014176025 3506.18 441.3325461823914 3484.82 441.50673382811704 3463.46 441.5263210359809 3442.1 441.5338725099368 3420.74 441.5429030927178 3399.38 441.47417224977323 3378.02 441.4594945700171 3356.66 441.38808556766435 3335.3 441.3288056085928 3313.94 441.47308833726333 3292.58 441.645038932872 3271.22 441.9852131881347 3249.86 442.33307896966517 3228.5 566.5721783366624 3228.5 1038Z" fill="#e62d39" opacity="0.9" />
		</g>
		<g>
			<path d="M3228.5 566.5721783366624 3249.86 442.33307896966517 3271.22 441.9852131881347 3292.58 441.645038932872 3313.94 441.47308833726333 3335.3 441.3288056085928 3356.66 441.38808556766435 3378.02 441.4594945700171 3399.38 441.47417224977323 3420.74 441.5429030927178 3442.1 441.5338725099368 3463.46 441.5263210359809 3484.82 441.50673382811704 3506.18 441.3325461823914 3527.54 441.04668014176025 3548.9 441.14123809544583 3570.26 441.06205687573333 3591.62 441.03561787240676 3612.98 441.0289316920836 3634.34 441.167209213907 3655.7 441.406683369976 3677.06 441.5375979828307 3698.42 441.6573661278967 3719.7799999999997 441.6626940555466 3741.14 441.70333243098173 3762.5 441.83280494374446 3783.86 442.11056785584276 3805.2200000000003 442.4035157162202 3826.58 442.7539759175269 3847.94 442.9453880046191 3869.3 443.09587998074596 3890.66 442.9731674669964 3912.02 442.95845521922934 3933.38 442.854171965349 3954.74 442.8417422387853 3976.1 441.72595383903854 3997.46 441.29796426599523 4018.8199999999997 441.489616515065 4040.18 441.484756503997 4061.54 441.48316478044603 4082.9 441.48654078274615 4104.26 441.3391880005887 4125.62 441.17336955313306 4146.98 441.17078340782746 4168.34 440.94196380839696 4189.7 440.40760550465325 4211.0599999999995 440.40616975209355 4232.42 440.34799215358134 4253.78 440.3280263296216 4275.139999999999 440.17259352262283 4296.5 440.17666153343987 4296.5 398.00000000000006 4275.139999999999 398 4253.78 398.00000000000006 4232.42 398.00000000000006 4211.0599999999995 398.0000000000001 4189.7 398 4168.34 398 4146.98 398 4125.62 397.99999999999994 4104.26 398 4082.9 398 4061.54 397.99999999999994 4040.18 398 4018.8199999999997 398 3997.46 397.99999999999994 3976.1 398 3954.74 398 3933.38 397.99999999999994 3912.02 398.00000000000006 3890.66 398 3869.3 398 3847.94 398.00000000000006 3826.58 397.99999999999994 3805.2200000000003 398 3783.86 398.00000000000006 3762.5 398 3741.14 398 3719.7799999999997 398 3698.42 398 3677.06 398.00000000000006 3655.7 398 3634.34 398 3612.98 398 3591.62 398 3570.26 397.99999999999994 3548.9 398 3527.54 398.00000000000006 3506.18 397.99999999999994 3484.82 398.00000000000006 3463.46 398 3442.1 398 3420.74 398 3399.38 398 3378.02 398.00000000000006 3356.66 398 3335.3 398 3313.94 398 3292.58 397.99999999999994 3271.22 398 3249.86 398 3228.5 398 3228.5 566.5721783366624Z" fill="#005aa6" opacity="0.9" />
		</g>
		<g>
			<rect x="4372" y="431" width="22.9995" height="23" fill="#e62d39" />
		</g>
		<g>
			<text fill="#595959" font-family="Verdana,Open Sans,DejaVu Sans,sans-serif" font-weight="400" font-size="41" transform="matrix(1 0 0 1 4404.56 454)">Non-Crawler</text>
		</g>
		<g>
			<rect x="4372" y="508" width="22.9995" height="23" fill="#005aa6" />
		</g>
		<g>
			<text fill="#595959" font-family="Verdana,Open Sans,DejaVu Sans,sans-serif" font-weight="400" font-size="41" transform="matrix(1 0 0 1 4404.56 531)">Crawler</text>
		</g>
	</g>
</svg>
