<svg width="1763" height="1046"
    xmlns="http://www.w3.org/2000/svg"
	xmlns:xlink="http://www.w3.org/1999/xlink" xml:space="preserve" overflow="hidden">
	<defs>
		<clipPath id="clip0">
			<rect x="2917" y="346" width="1763" height="1046"/>
		</clipPath>
	</defs>
	<g clip-path="url(#clip0)" transform="translate(-2917 -346)">
		<rect x="2918" y="347" width="1760" height="1043" fill="#FFFFFF" />
		<g>
			<path d="
			M3228.5 974.532 4296.5 974.532
			M3228.5 910.53 4296.5 910.53
			M3228.5 846.528 4296.5 846.528
			M3228.5 781.526 4296.5 781.526
			M3228.5 717.524 4296.5 717.524
			M3228.5 653.522 4296.5 653.522
			M3228.5 589.52 4296.5 589.52
			M3228.5 525.517 4296.5 525.517
			M3228.5 461.515 4296.5 461.515
			M3228.5 397.5 4296.5 397.5" stroke="#D9D9D9" stroke-width="3.4375" stroke-linejoin="round" stroke-miterlimit="10" fill="none" />
		</g>
		<g>
			<path d="M 1038.5 4296.5 1038.5" stroke="#D9D9D9" stroke-width="3.4375" stroke-linejoin="round" stroke-miterlimit="10" fill="none" fill-rule="evenodd" />
		</g>
		<g>
			<text fill="#595959" font-family="Verdana,Open Sans,DejaVu Sans,sans-serif" font-weight="400" font-size="41" transform="matrix(6.12323e-17 -1 1 6.12323e-17 3248.269287109375 1203.3022384643555)">21-Apr</text>
		</g>
		<g>
			<text fill="#595959" font-family="Verdana,Open Sans,DejaVu Sans,sans-serif" font-weight="400" font-size="41" transform="matrix(6.12323e-17 -1 1 6.12323e-17 3333.709287109375 1214.75341796875)">19-May</text>
		</g>
		<g>
			<text fill="#595959" font-family="Verdana,Open Sans,DejaVu Sans,sans-serif" font-weight="400" font-size="41" transform="matrix(6.12323e-17 -1 1 6.12323e-17 3418.0782421875 1194.0532150268555)">23-Jun</text>
		</g>
		<g>
			<text fill="#595959" font-family="Verdana,Open Sans,DejaVu Sans,sans-serif" font-weight="400" font-size="41" transform="matrix(6.12323e-17 -1 1 6.12323e-17 3504.248955078125 1179.0385665893555)">21-Jul</text>
		</g>
		<g>
			<text fill="#595959" font-family="Verdana,Open Sans,DejaVu Sans,sans-serif" font-weight="400" font-size="41" transform="matrix(6.12323e-17 -1 1 6.12323e-17 3590.029287109375 1206.90576171875)">18-Aug</text>
		</g>
		<g>
			<text fill="#595959" font-family="Verdana,Open Sans,DejaVu Sans,sans-serif" font-weight="400" font-size="41" transform="matrix(6.12323e-17 -1 1 6.12323e-17 3675.469287109375 1202.66162109375)">15-Sep</text>
		</g>
		<g>
			<text fill="#595959" font-family="Verdana,Open Sans,DejaVu Sans,sans-serif" font-weight="400" font-size="41" transform="matrix(6.12323e-17 -1 1 6.12323e-17 3756.204697265625 1199.3784103393555)">13-Oct</text>
		</g>
		<g>
			<text fill="#595959" font-family="Verdana,Open Sans,DejaVu Sans,sans-serif" font-weight="400" font-size="41" transform="matrix(6.12323e-17 -1 1 6.12323e-17 3841.644697265625 1209.70849609375)">10-Nov</text>
		</g>
		<g>
			<text fill="#595959" font-family="Verdana,Open Sans,DejaVu Sans,sans-serif" font-weight="400" font-size="41" transform="matrix(6.12323e-17 -1 1 6.12323e-17 3927.084697265625 1207.0859375)">08-Dec</text>
		</g>
		<g>
			<text fill="#595959" font-family="Verdana,Open Sans,DejaVu Sans,sans-serif" font-weight="400" font-size="41" transform="matrix(6.12323e-17 -1 1 6.12323e-17 4016.17826171875 1191.6508712768555)">05-Jan</text>
		</g>
		<g>
			<text fill="#595959" font-family="Verdana,Open Sans,DejaVu Sans,sans-serif" font-weight="400" font-size="41" transform="matrix(6.12323e-17 -1 1 6.12323e-17 4098.675390625 1203.0419921875)">02-Feb</text>
		</g>
		<g>
			<text fill="#595959" font-family="Verdana,Open Sans,DejaVu Sans,sans-serif" font-weight="400" font-size="41" transform="matrix(6.12323e-17 -1 1 6.12323e-17 4183.404697265625 1212.0107421875)">02-Mar</text>
		</g>
		<g>
			<text fill="#595959" font-family="Verdana,Open Sans,DejaVu Sans,sans-serif" font-weight="400" font-size="41" transform="matrix(6.12323e-17 -1 1 6.12323e-17 4268.844697265625 1212.1708984375)">30-Mar</text>
		</g>
		<g>
			<text fill="#595959" font-family="Verdana,Open Sans,DejaVu Sans,sans-serif" font-weight="400" font-size="41" transform="matrix(1 0 0 1 3169.14111328125 1050)">0</text>
		</g>
		<g>
			<text fill="#595959" font-family="Verdana,Open Sans,DejaVu Sans,sans-serif" font-weight="400" font-size="41" transform="matrix(1 0 0 1 3145.498046875 922)">76</text>
		</g>
		<g>
			<text fill="#595959" font-family="Verdana,Open Sans,DejaVu Sans,sans-serif" font-weight="400" font-size="41" transform="matrix(1 0 0 1 3124.13720703125 794)">152</text>
		</g>
		<g>
			<text fill="#595959" font-family="Verdana,Open Sans,DejaVu Sans,sans-serif" font-weight="400" font-size="41" transform="matrix(1 0 0 1 3122.25537109375 666)">227</text>
		</g>
		<g>
			<text fill="#595959" font-family="Verdana,Open Sans,DejaVu Sans,sans-serif" font-weight="400" font-size="41" transform="matrix(1 0 0 1 3122.45556640625 538)">303</text>
		</g>
		<g>
			<text fill="#595959" font-family="Verdana,Open Sans,DejaVu Sans,sans-serif" font-weight="400" font-size="41" transform="matrix(1 0 0 1 3122.25537109375 410)">379</text>
		</g>
		<g>
			<text fill="#595959" font-family="Verdana,Open Sans,DejaVu Sans,sans-serif" font-weight="400" font-size="41" transform="matrix(1 0 0 1 3556.97119140625 1321)">Week Commencing</text>
		</g>
		<g>
			<text fill="#595959" font-family="Verdana,Open Sans,DejaVu Sans,sans-serif" font-weight="400" font-size="46" transform="matrix(6.12323e-17 -1 1 6.12323e-17 3019.73 1005.4858093261719)">Number of Crawler Profiles</text>
		</g>
		<rect x="2918.5" y="347.5" width="1760" height="1043" stroke="#D9D9D9" stroke-width="3.4375" stroke-linejoin="round" stroke-miterlimit="10" fill="none" />
		<g>
			<path d="M3228.5 1038 3249.86 1038 3271.22 1038 3292.58 1038 3313.94 1038 3335.3 1038 3356.66 1038 3378.02 1038 3399.38 1038 3420.74 1038 3442.1 1038 3463.46 1038 3484.82 1038 3506.18 1038 3527.54 1038 3548.9 1038 3570.26 1038 3591.62 1038 3612.98 1038 3634.34 1038 3655.7 1038 3677.06 1038 3698.42 1038 3719.7799999999997 1038 3741.14 1038 3762.5 1038 3783.86 1038 3805.2200000000003 1038 3826.58 1038 3847.94 1038 3869.3 1038 3890.66 1038 3912.02 1038 3933.38 1038 3954.74 1038 3976.1 1038 3997.46 1038 4018.8199999999997 1038 4040.18 1038 4061.54 1038 4082.9 1038 4104.26 1038 4125.62 1038 4146.98 1038 4168.34 1038 4189.7 1038 4211.0599999999995 1038 4232.42 1038 4253.78 1038 4275.139999999999 1038 4296.5 1038 4296.5 399.688654353562 4275.139999999999 399.688654353562 4253.78 399.688654353562 4232.42 416.57519788918205 4211.0599999999995 416.57519788918205 4189.7 416.57519788918205 4168.34 419.9525065963061 4146.98 423.3298153034301 4125.62 419.9525065963061 4104.26 428.39577836411604 4082.9 450.3482849604221 4061.54 452.03693931398413 4040.18 453.72559366754615 4018.8199999999997 453.72559366754615 3997.46 453.72559366754615 3976.1 455.41424802110816 3954.74 458.7915567282322 3933.38 460.4802110817942 3912.02 462.1688654353562 3890.66 467.23482849604216 3869.3 467.23482849604216 3847.94 467.23482849604216 3826.58 468.92348284960417 3805.2200000000003 472.3007915567282 3783.86 472.3007915567282 3762.5 472.3007915567282 3741.14 473.9894459102902 3719.7799999999997 473.9894459102902 3698.42 473.9894459102902 3677.06 480.7440633245383 3655.7 480.7440633245383 3634.34 480.7440633245383 3612.98 480.7440633245383 3591.62 480.7440633245383 3570.26 480.7440633245383 3548.9 480.7440633245383 3527.54 480.7440633245383 3506.18 480.7440633245383 3484.82 482.4327176781003 3463.46 482.4327176781003 3442.1 484.1213720316623 3420.74 484.1213720316623 3399.38 492.56464379947226 3378.02 494.2532981530343 3356.66 494.2532981530343 3335.3 497.6306068601583 3313.94 499.3192612137203 3292.58 504.38522427440637 3271.22 506.07387862796827 3249.86 507.7625329815303 3228.5 509.4511873350923 3228.5 1038Z" fill="#005aa6" opacity="0.9" />
		</g>
		<g>
			<path d="M3228.5 509.4511873350923 3249.86 507.7625329815303 3271.22 506.07387862796827 3292.58 504.38522427440637 3313.94 499.3192612137203 3335.3 497.6306068601583 3356.66 494.2532981530343 3378.02 494.2532981530343 3399.38 492.56464379947226 3420.74 484.1213720316623 3442.1 484.1213720316623 3463.46 482.4327176781003 3484.82 482.4327176781003 3506.18 480.7440633245383 3527.54 480.7440633245383 3548.9 480.7440633245383 3570.26 480.7440633245383 3591.62 480.7440633245383 3612.98 480.7440633245383 3634.34 480.7440633245383 3655.7 480.7440633245383 3677.06 480.7440633245383 3698.42 473.9894459102902 3719.7799999999997 473.9894459102902 3741.14 473.9894459102902 3762.5 472.3007915567282 3783.86 472.3007915567282 3805.2200000000003 472.3007915567282 3826.58 468.92348284960417 3847.94 467.23482849604216 3869.3 467.23482849604216 3890.66 467.23482849604216 3912.02 462.1688654353562 3933.38 460.4802110817942 3954.74 458.7915567282322 3976.1 455.41424802110816 3997.46 453.72559366754615 4018.8199999999997 453.72559366754615 4040.18 453.72559366754615 4061.54 452.03693931398413 4082.9 450.3482849604221 4104.26 428.39577836411604 4125.62 419.9525065963061 4146.98 423.3298153034301 4168.34 419.9525065963061 4189.7 416.57519788918205 4211.0599999999995 416.57519788918205 4232.42 416.57519788918205 4253.78 399.688654353562 4275.139999999999 399.688654353562 4296.5 399.688654353562 4296.5 398 4275.139999999999 398 4253.78 398 4232.42 414.88654353562004 4211.0599999999995 414.88654353562004 4189.7 414.88654353562004 4168.34 418.26385224274406 4146.98 419.9525065963061 4125.62 416.57519788918205 4104.26 426.707124010554 4082.9 448.6596306068601 4061.54 450.3482849604221 4040.18 452.03693931398413 4018.8199999999997 452.03693931398413 3997.46 452.03693931398413 3976.1 453.72559366754615 3954.74 457.1029023746702 3933.38 458.7915567282322 3912.02 460.4802110817942 3890.66 465.54617414248014 3869.3 465.54617414248014 3847.94 465.54617414248014 3826.58 467.23482849604216 3805.2200000000003 470.6121372031662 3783.86 470.6121372031662 3762.5 470.6121372031662 3741.14 472.3007915567282 3719.7799999999997 472.3007915567282 3698.42 472.3007915567282 3677.06 479.05540897097626 3655.7 479.05540897097626 3634.34 479.05540897097626 3612.98 479.05540897097626 3591.62 479.05540897097626 3570.26 479.05540897097626 3548.9 479.05540897097626 3527.54 479.05540897097626 3506.18 479.05540897097626 3484.82 480.7440633245383 3463.46 480.7440633245383 3442.1 482.4327176781003 3420.74 482.4327176781003 3399.38 490.87598944591025 3378.02 492.56464379947226 3356.66 492.56464379947226 3335.3 495.9419525065963 3313.94 497.6306068601583 3292.58 502.69656992084435 3271.22 504.38522427440626 3249.86 506.07387862796827 3228.5 507.7625329815303 3228.5 509.4511873350923Z" fill="#e62d39" opacity="0.9" />
		</g>
		<g>
			<rect x="4372" y="431" width="22.9995" height="23" fill="#005aa6" />
		</g>
		<g>
			<text fill="#595959" font-family="Verdana,Open Sans,DejaVu Sans,sans-serif" font-weight="400" font-size="41" transform="matrix(1 0 0 1 4404.56 454)">Crawler</text>
		</g>
		<g>
			<rect x="4372" y="508" width="22.9995" height="23" fill="#e62d39" />
		</g>
		<g>
			<text fill="#595959" font-family="Verdana,Open Sans,DejaVu Sans,sans-serif" font-weight="400" font-size="41" transform="matrix(1 0 0 1 4404.56 531)">Non-Crawler</text>
		</g>
	</g>
</svg>
