<svg width="1763" height="1046"
    xmlns="http://www.w3.org/2000/svg"
	xmlns:xlink="http://www.w3.org/1999/xlink" xml:space="preserve" overflow="hidden">
	<defs>
		<clipPath id="clip0">
			<rect x="2917" y="346" width="1763" height="1046"/>
		</clipPath>
	</defs>
	<g clip-path="url(#clip0)" transform="translate(-2917 -346)">
		<rect x="2918" y="347" width="1760" height="1043" fill="#FFFFFF" />
		<g>
			<path d="
			M3228.5 974.532 4296.5 974.532
			M3228.5 910.53 4296.5 910.53
			M3228.5 846.528 4296.5 846.528
			M3228.5 781.526 4296.5 781.526
			M3228.5 717.524 4296.5 717.524
			M3228.5 653.522 4296.5 653.522
			M3228.5 589.52 4296.5 589.52
			M3228.5 525.517 4296.5 525.517
			M3228.5 461.515 4296.5 461.515
			M3228.5 397.5 4296.5 397.5" stroke="#D9D9D9" stroke-width="3.4375" stroke-linejoin="round" stroke-miterlimit="10" fill="none" />
		</g>
		<g>
			<path d="M 1038.5 4296.5 1038.5" stroke="#D9D9D9" stroke-width="3.4375" stroke-linejoin="round" stroke-miterlimit="10" fill="none" fill-rule="evenodd" />
		</g>
		<g>
			<text fill="#595959" font-family="Verdana,Open Sans,DejaVu Sans,sans-serif" font-weight="400" font-size="41" transform="matrix(6.12323e-17 -1 1 6.12323e-17 3243.544677734375 1205.3642578125)">16-Dec</text>
		</g>
		<g>
			<text fill="#595959" font-family="Verdana,Open Sans,DejaVu Sans,sans-serif" font-weight="400" font-size="41" transform="matrix(6.12323e-17 -1 1 6.12323e-17 3332.6382421875 1189.9291915893555)">13-Jan</text>
		</g>
		<g>
			<text fill="#595959" font-family="Verdana,Open Sans,DejaVu Sans,sans-serif" font-weight="400" font-size="41" transform="matrix(6.12323e-17 -1 1 6.12323e-17 3415.155390625 1201.3203125)">10-Feb</text>
		</g>
		<g>
			<text fill="#595959" font-family="Verdana,Open Sans,DejaVu Sans,sans-serif" font-weight="400" font-size="41" transform="matrix(6.12323e-17 -1 1 6.12323e-17 3499.884697265625 1210.2890625)">10-Mar</text>
		</g>
		<g>
			<text fill="#595959" font-family="Verdana,Open Sans,DejaVu Sans,sans-serif" font-weight="400" font-size="41" transform="matrix(6.12323e-17 -1 1 6.12323e-17 3590.049306640625 1203.2621994018555)">07-Apr</text>
		</g>
		<g>
			<text fill="#595959" font-family="Verdana,Open Sans,DejaVu Sans,sans-serif" font-weight="400" font-size="41" transform="matrix(6.12323e-17 -1 1 6.12323e-17 3675.489306640625 1216.47509765625)">05-May</text>
		</g>
		<g>
			<text fill="#595959" font-family="Verdana,Open Sans,DejaVu Sans,sans-serif" font-weight="400" font-size="41" transform="matrix(6.12323e-17 -1 1 6.12323e-17 3759.85826171875 1194.0131759643555)">09-Jun</text>
		</g>
		<g>
			<text fill="#595959" font-family="Verdana,Open Sans,DejaVu Sans,sans-serif" font-weight="400" font-size="41" transform="matrix(6.12323e-17 -1 1 6.12323e-17 3846.008955078125 1178.9985275268555)">07-Jul</text>
		</g>
		<g>
			<text fill="#595959" font-family="Verdana,Open Sans,DejaVu Sans,sans-serif" font-weight="400" font-size="41" transform="matrix(6.12323e-17 -1 1 6.12323e-17 3931.809306640625 1208.62744140625)">04-Aug</text>
		</g>
		<g>
			<text fill="#595959" font-family="Verdana,Open Sans,DejaVu Sans,sans-serif" font-weight="400" font-size="41" transform="matrix(6.12323e-17 -1 1 6.12323e-17 4017.249306640625 1204.38330078125)">01-Sep</text>
		</g>
		<g>
			<text fill="#595959" font-family="Verdana,Open Sans,DejaVu Sans,sans-serif" font-weight="400" font-size="41" transform="matrix(6.12323e-17 -1 1 6.12323e-17 4102.669287109375 1204.42333984375)">29-Sep</text>
		</g>
		<g>
			<text fill="#595959" font-family="Verdana,Open Sans,DejaVu Sans,sans-serif" font-weight="400" font-size="41" transform="matrix(6.12323e-17 -1 1 6.12323e-17 4183.404697265625 1201.1401290893555)">27-Oct</text>
		</g>
		<g>
			<text fill="#595959" font-family="Verdana,Open Sans,DejaVu Sans,sans-serif" font-weight="400" font-size="41" transform="matrix(6.12323e-17 -1 1 6.12323e-17 4268.824677734375 1211.47021484375)">24-Nov</text>
		</g>
		<g>
			<text fill="#595959" font-family="Verdana,Open Sans,DejaVu Sans,sans-serif" font-weight="400" font-size="41" transform="matrix(1 0 0 1 3169.14111328125 1050)">0</text>
		</g>
		<g>
			<text fill="#595959" font-family="Verdana,Open Sans,DejaVu Sans,sans-serif" font-weight="400" font-size="41" transform="matrix(1 0 0 1 3146.07861328125 922)">68</text>
		</g>
		<g>
			<text fill="#595959" font-family="Verdana,Open Sans,DejaVu Sans,sans-serif" font-weight="400" font-size="41" transform="matrix(1 0 0 1 3124.01708984375 794)">137</text>
		</g>
		<g>
			<text fill="#595959" font-family="Verdana,Open Sans,DejaVu Sans,sans-serif" font-weight="400" font-size="41" transform="matrix(1 0 0 1 3122.53564453125 666)">205</text>
		</g>
		<g>
			<text fill="#595959" font-family="Verdana,Open Sans,DejaVu Sans,sans-serif" font-weight="400" font-size="41" transform="matrix(1 0 0 1 3120.994140625 538)">274</text>
		</g>
		<g>
			<text fill="#595959" font-family="Verdana,Open Sans,DejaVu Sans,sans-serif" font-weight="400" font-size="41" transform="matrix(1 0 0 1 3122.25537109375 410)">342</text>
		</g>
		<g>
			<text fill="#595959" font-family="Verdana,Open Sans,DejaVu Sans,sans-serif" font-weight="400" font-size="41" transform="matrix(1 0 0 1 3556.97119140625 1321)">Week Commencing</text>
		</g>
		<g>
			<text fill="#595959" font-family="Verdana,Open Sans,DejaVu Sans,sans-serif" font-weight="400" font-size="46" transform="matrix(6.12323e-17 -1 1 6.12323e-17 3019.73 1005.4858093261719)">Number of Crawler Profiles</text>
		</g>
		<rect x="2918.5" y="347.5" width="1760" height="1043" stroke="#D9D9D9" stroke-width="3.4375" stroke-linejoin="round" stroke-miterlimit="10" fill="none" />
		<g>
			<path d="M3228.5 1038 3249.86 1038 3271.22 1038 3292.58 1038 3313.94 1038 3335.3 1038 3356.66 1038 3378.02 1038 3399.38 1038 3420.74 1038 3442.1 1038 3463.46 1038 3484.82 1038 3506.18 1038 3527.54 1038 3548.9 1038 3570.26 1038 3591.62 1038 3612.98 1038 3634.34 1038 3655.7 1038 3677.06 1038 3698.42 1038 3719.7799999999997 1038 3741.14 1038 3762.5 1038 3783.86 1038 3805.2200000000003 1038 3826.58 1038 3847.94 1038 3869.3 1038 3890.66 1038 3912.02 1038 3933.38 1038 3954.74 1038 3976.1 1038 3997.46 1038 4018.8199999999997 1038 4040.18 1038 4061.54 1038 4082.9 1038 4104.26 1038 4125.62 1038 4146.98 1038 4168.34 1038 4189.7 1038 4211.0599999999995 1038 4232.42 1038 4253.78 1038 4275.139999999999 1038 4296.5 1038 4296.5 399.8713450292398 4275.139999999999 405.48538011695905 4253.78 405.48538011695905 4232.42 405.48538011695905 4211.0599999999995 407.35672514619887 4189.7 411.0994152046784 4168.34 411.0994152046784 4146.98 411.0994152046784 4125.62 412.9707602339182 4104.26 412.9707602339182 4082.9 412.9707602339182 4061.54 420.45614035087726 4040.18 420.45614035087726 4018.8199999999997 420.45614035087726 3997.46 420.45614035087726 3976.1 420.45614035087726 3954.74 420.45614035087726 3933.38 420.45614035087726 3912.02 420.45614035087726 3890.66 420.45614035087726 3869.3 422.32748538011697 3847.94 422.32748538011697 3826.58 424.1988304093568 3805.2200000000003 424.1988304093568 3783.86 433.55555555555554 3762.5 435.42690058479536 3741.14 435.42690058479536 3719.7799999999997 439.1695906432749 3698.42 441.0409356725147 3677.06 446.65497076023394 3655.7 448.52631578947376 3634.34 450.39766081871346 3612.98 452.2690058479533 3591.62 452.2690058479533 3570.26 452.2690058479533 3548.9 454.140350877193 3527.54 454.140350877193 3506.18 454.140350877193 3484.82 456.0116959064328 3463.46 456.0116959064328 3442.1 457.8830409356725 3420.74 457.8830409356725 3399.38 459.75438596491233 3378.02 461.62573099415204 3356.66 463.49707602339186 3335.3 463.49707602339186 3313.94 467.2397660818714 3292.58 469.1111111111111 3271.22 469.1111111111111 3249.86 469.1111111111111 3228.5 472.8538011695907 3228.5 1038Z" fill="#005aa6" opacity="0.9" />
		</g>
		<g>
			<path d="M3228.5 472.8538011695907 3249.86 469.1111111111111 3271.22 469.1111111111111 3292.58 469.1111111111111 3313.94 467.2397660818714 3335.3 463.49707602339186 3356.66 463.49707602339186 3378.02 461.62573099415204 3399.38 459.75438596491233 3420.74 457.8830409356725 3442.1 457.8830409356725 3463.46 456.0116959064328 3484.82 456.0116959064328 3506.18 454.140350877193 3527.54 454.140350877193 3548.9 454.140350877193 3570.26 452.2690058479533 3591.62 452.2690058479533 3612.98 452.2690058479533 3634.34 450.39766081871346 3655.7 448.52631578947376 3677.06 446.65497076023394 3698.42 441.0409356725147 3719.7799999999997 439.1695906432749 3741.14 435.42690058479536 3762.5 435.42690058479536 3783.86 433.55555555555554 3805.2200000000003 424.1988304093568 3826.58 424.1988304093568 3847.94 422.32748538011697 3869.3 422.32748538011697 3890.66 420.45614035087726 3912.02 420.45614035087726 3933.38 420.45614035087726 3954.74 420.45614035087726 3976.1 420.45614035087726 3997.46 420.45614035087726 4018.8199999999997 420.45614035087726 4040.18 420.45614035087726 4061.54 420.45614035087726 4082.9 412.9707602339182 4104.26 412.9707602339182 4125.62 412.9707602339182 4146.98 411.0994152046784 4168.34 411.0994152046784 4189.7 411.0994152046784 4211.0599999999995 407.35672514619887 4232.42 405.48538011695905 4253.78 405.48538011695905 4275.139999999999 405.48538011695905 4296.5 399.8713450292398 4296.5 398.00000000000006 4275.139999999999 403.6140350877193 4253.78 403.6140350877193 4232.42 403.6140350877193 4211.0599999999995 405.4853801169591 4189.7 409.22807017543863 4168.34 409.22807017543863 4146.98 409.22807017543863 4125.62 411.09941520467845 4104.26 411.09941520467845 4082.9 411.09941520467845 4061.54 418.5847953216375 4040.18 418.5847953216375 4018.8199999999997 418.5847953216375 3997.46 418.5847953216375 3976.1 418.5847953216375 3954.74 418.5847953216375 3933.38 418.5847953216375 3912.02 418.5847953216375 3890.66 418.5847953216375 3869.3 420.4561403508772 3847.94 420.4561403508772 3826.58 422.327485380117 3805.2200000000003 422.327485380117 3783.86 431.6842105263158 3762.5 433.5555555555556 3741.14 433.5555555555556 3719.7799999999997 437.2982456140351 3698.42 439.16959064327494 3677.06 444.7836257309942 3655.7 446.654970760234 3634.34 448.5263157894737 3612.98 450.3976608187135 3591.62 450.3976608187135 3570.26 450.3976608187135 3548.9 452.2690058479532 3527.54 452.2690058479532 3506.18 452.2690058479532 3484.82 454.14035087719304 3463.46 454.14035087719304 3442.1 456.01169590643275 3420.74 456.01169590643275 3399.38 457.88304093567257 3378.02 459.7543859649123 3356.66 461.6257309941521 3335.3 461.6257309941521 3313.94 465.3684210526316 3292.58 467.2397660818713 3271.22 467.2397660818713 3249.86 467.2397660818713 3228.5 470.98245614035096 3228.5 472.8538011695907Z" fill="#e62d39" opacity="0.9" />
		</g>
		<g>
			<rect x="4372" y="431" width="22.9995" height="23" fill="#005aa6" />
		</g>
		<g>
			<text fill="#595959" font-family="Verdana,Open Sans,DejaVu Sans,sans-serif" font-weight="400" font-size="41" transform="matrix(1 0 0 1 4404.56 454)">Crawler</text>
		</g>
		<g>
			<rect x="4372" y="508" width="22.9995" height="23" fill="#e62d39" />
		</g>
		<g>
			<text fill="#595959" font-family="Verdana,Open Sans,DejaVu Sans,sans-serif" font-weight="400" font-size="41" transform="matrix(1 0 0 1 4404.56 531)">Non-Crawler</text>
		</g>
	</g>
</svg>
