<svg width="1763" height="1046"
    xmlns="http://www.w3.org/2000/svg"
	xmlns:xlink="http://www.w3.org/1999/xlink" xml:space="preserve" overflow="hidden">
	<defs>
		<clipPath id="clip0">
			<rect x="2917" y="346" width="1763" height="1046"/>
		</clipPath>
	</defs>
	<g clip-path="url(#clip0)" transform="translate(-2917 -346)">
		<rect x="2918" y="347" width="1760" height="1043" fill="#FFFFFF" />
		<g>
			<path d="
			M3228.5 974.532 4296.5 974.532
			M3228.5 910.53 4296.5 910.53
			M3228.5 846.528 4296.5 846.528
			M3228.5 781.526 4296.5 781.526
			M3228.5 717.524 4296.5 717.524
			M3228.5 653.522 4296.5 653.522
			M3228.5 589.52 4296.5 589.52
			M3228.5 525.517 4296.5 525.517
			M3228.5 461.515 4296.5 461.515
			M3228.5 397.5 4296.5 397.5" stroke="#D9D9D9" stroke-width="3.4375" stroke-linejoin="round" stroke-miterlimit="10" fill="none" />
		</g>
		<g>
			<path d="M 1038.5 4296.5 1038.5" stroke="#D9D9D9" stroke-width="3.4375" stroke-linejoin="round" stroke-miterlimit="10" fill="none" fill-rule="evenodd" />
		</g>
		<g>
			<text fill="#595959" font-family="Verdana,sans-serif" font-weight="400" font-size="41" transform="matrix(6.12323e-17 -1 1 6.12323e-17 3244.5 1227)">06-Nov</text>
		</g>
		<g>
			<text fill="#595959" font-family="Verdana,sans-serif" font-weight="400" font-size="41" transform="matrix(6.12323e-17 -1 1 6.12323e-17 3363.1666666666665 1226)">20-Nov</text>
		</g>
		<g>
			<text fill="#595959" font-family="Verdana,sans-serif" font-weight="400" font-size="41" transform="matrix(6.12323e-17 -1 1 6.12323e-17 3481.8333333333335 1225)">04-Dec</text>
		</g>
		<g>
			<text fill="#595959" font-family="Verdana,sans-serif" font-weight="400" font-size="41" transform="matrix(6.12323e-17 -1 1 6.12323e-17 3600.5 1222)">18-Dec</text>
		</g>
		<g>
			<text fill="#595959" font-family="Verdana,sans-serif" font-weight="400" font-size="41" transform="matrix(6.12323e-17 -1 1 6.12323e-17 3719.1666666666665 1212)">01-Jan</text>
		</g>
		<g>
			<text fill="#595959" font-family="Verdana,sans-serif" font-weight="400" font-size="41" transform="matrix(6.12323e-17 -1 1 6.12323e-17 3837.3333333333335 1209)">15-Jan</text>
		</g>
		<g>
			<text fill="#595959" font-family="Verdana,sans-serif" font-weight="400" font-size="41" transform="matrix(6.12323e-17 -1 1 6.12323e-17 3956.5 1211)">29-Jan</text>
		</g>
		<g>
			<text fill="#595959" font-family="Verdana,sans-serif" font-weight="400" font-size="41" transform="matrix(6.12323e-17 -1 1 6.12323e-17 4075.166666666667 1216)">12-Feb</text>
		</g>
		<g>
			<text fill="#595959" font-family="Verdana,sans-serif" font-weight="400" font-size="41" transform="matrix(6.12323e-17 -1 1 6.12323e-17 4193.833333333333 1218)">26-Feb</text>
		</g>
		<g>
			<text fill="#595959" font-family="Verdana,sans-serif" font-weight="400" font-size="41" transform="matrix(6.12323e-17 -1 1 6.12323e-17 4312 1222)">11-Mar</text>
		</g>
		<g>
			<text fill="#595959" font-family="Verdana,sans-serif" font-weight="400" font-size="41" transform="matrix(1 0 0 1 3167.5 1050)">0</text>
		</g>
		<g>
			<text fill="#595959" font-family="Verdana,sans-serif" font-weight="400" font-size="41" transform="matrix(1 0 0 1 3139.5 922)">42</text>
		</g>
		<g>
			<text fill="#595959" font-family="Verdana,sans-serif" font-weight="400" font-size="41" transform="matrix(1 0 0 1 3140.5 794)">85</text>
		</g>
		<g>
			<text fill="#595959" font-family="Verdana,sans-serif" font-weight="400" font-size="41" transform="matrix(1 0 0 1 3117.5 666)">127</text>
		</g>
		<g>
			<text fill="#595959" font-family="Verdana,sans-serif" font-weight="400" font-size="41" transform="matrix(1 0 0 1 3117.5 538)">170</text>
		</g>
		<g>
			<text fill="#595959" font-family="Verdana,sans-serif" font-weight="400" font-size="41" transform="matrix(1 0 0 1 3114.5 410)">212</text>
		</g>
		<g>
			<text fill="#595959" font-family="Verdana,sans-serif" font-weight="400" font-size="41" transform="matrix(1 0 0 1 3541.5 1321)">Week Commencing</text>
		</g>
		<g>
			<text fill="#595959" font-family="Verdana,sans-serif" font-weight="400" font-size="46" transform="matrix(6.12323e-17 -1 1 6.12323e-17 3019.73 1029.25)">Number of Crawler Profiles</text>
		</g>
		<rect x="2918.5" y="347.5" width="1760" height="1043" stroke="#D9D9D9" stroke-width="3.4375" stroke-linejoin="round" stroke-miterlimit="10" fill="none" />
		<g>
			<path d="M3228.5 1038 3287.8333333333335 1038 3347.1666666666665 1038 3406.5 1038 3465.8333333333335 1038 3525.1666666666665 1038 3584.5 1038 3643.8333333333335 1038 3703.1666666666665 1038 3762.5 1038 3821.8333333333335 1038 3881.166666666667 1038 3940.5 1038 3999.8333333333335 1038 4059.166666666667 1038 4118.5 1038 4177.833333333333 1038 4237.166666666667 1038 4296.5 1038 4296.5 401.0188679245283 4237.166666666667 407.0566037735848 4177.833333333333 422.15094339622635 4118.5 425.16981132075466 4059.166666666667 425.16981132075466 3999.8333333333335 428.18867924528297 3940.5 434.2264150943396 3881.166666666667 449.3207547169811 3821.8333333333335 452.33962264150944 3762.5 452.33962264150944 3703.1666666666665 458.37735849056594 3643.8333333333335 458.37735849056594 3584.5 458.37735849056594 3525.1666666666665 458.37735849056594 3465.8333333333335 458.37735849056594 3406.5 461.39622641509425 3347.1666666666665 461.39622641509425 3287.8333333333335 461.39622641509425 3228.5 461.39622641509425 3228.5 1038Z" fill="#005aa6" opacity="0.9" />
		</g>
		<g>
			<path d="M3228.5 461.39622641509425 3287.8333333333335 461.39622641509425 3347.1666666666665 461.39622641509425 3406.5 461.39622641509425 3465.8333333333335 458.37735849056594 3525.1666666666665 458.37735849056594 3584.5 458.37735849056594 3643.8333333333335 458.37735849056594 3703.1666666666665 458.37735849056594 3762.5 452.33962264150944 3821.8333333333335 452.33962264150944 3881.166666666667 449.3207547169811 3940.5 434.2264150943396 3999.8333333333335 428.18867924528297 4059.166666666667 425.16981132075466 4118.5 425.16981132075466 4177.833333333333 422.15094339622635 4237.166666666667 407.0566037735848 4296.5 401.0188679245283 4296.5 398 4237.166666666667 404.0377358490565 4177.833333333333 419.13207547169804 4118.5 422.15094339622635 4059.166666666667 422.15094339622635 3999.8333333333335 425.16981132075466 3940.5 431.2075471698113 3881.166666666667 446.3018867924528 3821.8333333333335 449.3207547169811 3762.5 449.3207547169811 3703.1666666666665 455.35849056603763 3643.8333333333335 455.35849056603763 3584.5 455.35849056603763 3525.1666666666665 455.35849056603763 3465.8333333333335 455.35849056603763 3406.5 458.37735849056594 3347.1666666666665 458.37735849056594 3287.8333333333335 458.37735849056594 3228.5 458.37735849056594 3228.5 461.39622641509425Z" fill="#e62d39" opacity="0.9" />
		</g>
		<g>
			<rect x="4372" y="431" width="22.9995" height="23" fill="#005aa6" />
		</g>
		<g>
			<text fill="#595959" font-family="Verdana,sans-serif" font-weight="400" font-size="41" transform="matrix(1 0 0 1 4404.56 454)">Crawler</text>
		</g>
		<g>
			<rect x="4372" y="508" width="22.9995" height="23" fill="#e62d39" />
		</g>
		<g>
			<text fill="#595959" font-family="Verdana,sans-serif" font-weight="400" font-size="41" transform="matrix(1 0 0 1 4404.56 531)">Non-Crawler</text>
		</g>
	</g>
</svg>
