<svg width="1763" height="1046"
    xmlns="http://www.w3.org/2000/svg"
	xmlns:xlink="http://www.w3.org/1999/xlink" xml:space="preserve" overflow="hidden">
	<defs>
		<clipPath id="clip0">
			<rect x="2917" y="346" width="1763" height="1046"/>
		</clipPath>
	</defs>
	<g clip-path="url(#clip0)" transform="translate(-2917 -346)">
		<rect x="2918" y="347" width="1760" height="1043" fill="#FFFFFF" />
		<g>
			<path d="
			M3228.5 974.532 4296.5 974.532
			M3228.5 910.53 4296.5 910.53
			M3228.5 846.528 4296.5 846.528
			M3228.5 781.526 4296.5 781.526
			M3228.5 717.524 4296.5 717.524
			M3228.5 653.522 4296.5 653.522
			M3228.5 589.52 4296.5 589.52
			M3228.5 525.517 4296.5 525.517
			M3228.5 461.515 4296.5 461.515
			M3228.5 397.5 4296.5 397.5" stroke="#D9D9D9" stroke-width="3.4375" stroke-linejoin="round" stroke-miterlimit="10" fill="none" />
		</g>
		<g>
			<path d="M 1038.5 4296.5 1038.5" stroke="#D9D9D9" stroke-width="3.4375" stroke-linejoin="round" stroke-miterlimit="10" fill="none" fill-rule="evenodd" />
		</g>
		<g>
			<text fill="#595959" font-family="Verdana,sans-serif" font-weight="400" font-size="41" transform="matrix(6.12323e-17 -1 1 6.12323e-17 3244 1221)">11-Mar</text>
		</g>
		<g>
			<text fill="#595959" font-family="Verdana,sans-serif" font-weight="400" font-size="41" transform="matrix(6.12323e-17 -1 1 6.12323e-17 3331.764705882353 1217)">08-Apr</text>
		</g>
		<g>
			<text fill="#595959" font-family="Verdana,sans-serif" font-weight="400" font-size="41" transform="matrix(6.12323e-17 -1 1 6.12323e-17 3415.529411764706 1228)">06-May</text>
		</g>
		<g>
			<text fill="#595959" font-family="Verdana,sans-serif" font-weight="400" font-size="41" transform="matrix(6.12323e-17 -1 1 6.12323e-17 3495.794117647059 1211)">03-Jun</text>
		</g>
		<g>
			<text fill="#595959" font-family="Verdana,sans-serif" font-weight="400" font-size="41" transform="matrix(6.12323e-17 -1 1 6.12323e-17 3579.5588235294117 1197)">01-Jul</text>
		</g>
		<g>
			<text fill="#595959" font-family="Verdana,sans-serif" font-weight="400" font-size="41" transform="matrix(6.12323e-17 -1 1 6.12323e-17 3663.323529411765 1196)">29-Jul</text>
		</g>
		<g>
			<text fill="#595959" font-family="Verdana,sans-serif" font-weight="400" font-size="41" transform="matrix(6.12323e-17 -1 1 6.12323e-17 3750.5882352941176 1221)">26-Aug</text>
		</g>
		<g>
			<text fill="#595959" font-family="Verdana,sans-serif" font-weight="400" font-size="41" transform="matrix(6.12323e-17 -1 1 6.12323e-17 3834.3529411764707 1221)">23-Sep</text>
		</g>
		<g>
			<text fill="#595959" font-family="Verdana,sans-serif" font-weight="400" font-size="41" transform="matrix(6.12323e-17 -1 1 6.12323e-17 3914.6176470588234 1215)">21-Oct</text>
		</g>
		<g>
			<text fill="#595959" font-family="Verdana,sans-serif" font-weight="400" font-size="41" transform="matrix(6.12323e-17 -1 1 6.12323e-17 3998.3823529411766 1222)">18-Nov</text>
		</g>
		<g>
			<text fill="#595959" font-family="Verdana,sans-serif" font-weight="400" font-size="41" transform="matrix(6.12323e-17 -1 1 6.12323e-17 4082.1470588235293 1222)">23-Dec</text>
		</g>
		<g>
			<text fill="#595959" font-family="Verdana,sans-serif" font-weight="400" font-size="41" transform="matrix(6.12323e-17 -1 1 6.12323e-17 4165.911764705882 1210)">20-Jan</text>
		</g>
		<g>
			<text fill="#595959" font-family="Verdana,sans-serif" font-weight="400" font-size="41" transform="matrix(6.12323e-17 -1 1 6.12323e-17 4249.676470588235 1214)">17-Feb</text>
		</g>
		<g>
			<text fill="#595959" font-family="Verdana,sans-serif" font-weight="400" font-size="41" transform="matrix(1 0 0 1 3167.5 1050)">0</text>
		</g>
		<g>
			<text fill="#595959" font-family="Verdana,sans-serif" font-weight="400" font-size="41" transform="matrix(1 0 0 1 3141.5 922)">62</text>
		</g>
		<g>
			<text fill="#595959" font-family="Verdana,sans-serif" font-weight="400" font-size="41" transform="matrix(1 0 0 1 3118.5 794)">125</text>
		</g>
		<g>
			<text fill="#595959" font-family="Verdana,sans-serif" font-weight="400" font-size="41" transform="matrix(1 0 0 1 3117.5 666)">187</text>
		</g>
		<g>
			<text fill="#595959" font-family="Verdana,sans-serif" font-weight="400" font-size="41" transform="matrix(1 0 0 1 3115.5 538)">250</text>
		</g>
		<g>
			<text fill="#595959" font-family="Verdana,sans-serif" font-weight="400" font-size="41" transform="matrix(1 0 0 1 3115.5 410)">312</text>
		</g>
		<g>
			<text fill="#595959" font-family="Verdana,sans-serif" font-weight="400" font-size="41" transform="matrix(1 0 0 1 3544.5 1321)">Week Commencing</text>
		</g>
		<g>
			<text fill="#595959" font-family="Verdana,sans-serif" font-weight="400" font-size="46" transform="matrix(6.12323e-17 -1 1 6.12323e-17 3019.73 1024.75)">Number of Crawler Profiles</text>
		</g>
		<rect x="2918.5" y="347.5" width="1760" height="1043" stroke="#D9D9D9" stroke-width="3.4375" stroke-linejoin="round" stroke-miterlimit="10" fill="none" />
		<g>
			<path d="M3228.5 1038 3249.4411764705883 1038 3270.3823529411766 1038 3291.323529411765 1038 3312.264705882353 1038 3333.205882352941 1038 3354.1470588235293 1038 3375.0882352941176 1038 3396.029411764706 1038 3416.970588235294 1038 3437.9117647058824 1038 3458.8529411764707 1038 3479.794117647059 1038 3500.735294117647 1038 3521.676470588235 1038 3542.6176470588234 1038 3563.5588235294117 1038 3584.5 1038 3605.4411764705883 1038 3626.3823529411766 1038 3647.323529411765 1038 3668.264705882353 1038 3689.205882352941 1038 3710.1470588235293 1038 3731.0882352941176 1038 3752.029411764706 1038 3772.970588235294 1038 3793.9117647058824 1038 3814.8529411764707 1038 3835.7941176470586 1038 3856.735294117647 1038 3877.676470588235 1038 3898.6176470588234 1038 3919.5588235294117 1038 3940.5 1038 3961.4411764705883 1038 3982.3823529411766 1038 4003.323529411765 1038 4024.264705882353 1038 4045.2058823529414 1038 4066.1470588235293 1038 4087.0882352941176 1038 4108.029411764706 1038 4128.970588235294 1038 4149.911764705882 1038 4170.85294117647 1038 4191.794117647059 1038 4212.735294117647 1038 4233.676470588235 1038 4254.617647058823 1038 4275.558823529412 1038 4296.5 1038 4296.5 400.0512820512821 4275.558823529412 400.0512820512821 4254.617647058823 402.1025641025642 4233.676470588235 402.1025641025642 4212.735294117647 404.1538461538462 4191.794117647059 406.2051282051283 4170.85294117647 408.2564102564103 4149.911764705882 408.2564102564103 4128.970588235294 412.35897435897436 4108.029411764706 414.41025641025647 4087.0882352941176 414.41025641025647 4066.1470588235293 414.41025641025647 4045.2058823529414 418.51282051282055 4024.264705882353 420.56410256410265 4003.323529411765 426.71794871794873 3982.3823529411766 434.923076923077 3961.4411764705883 447.2307692307693 3940.5 453.3846153846155 3919.5588235294117 453.3846153846155 3898.6176470588234 451.33333333333337 3877.676470588235 455.43589743589746 3856.735294117647 461.58974358974365 3835.7941176470586 469.7948717948718 3814.8529411764707 469.7948717948718 3793.9117647058824 471.8461538461539 3772.970588235294 482.1025641025642 3752.029411764706 486.2051282051283 3731.0882352941176 490.3076923076924 3710.1470588235293 490.3076923076924 3689.205882352941 494.41025641025647 3668.264705882353 494.41025641025647 3647.323529411765 496.46153846153857 3626.3823529411766 498.51282051282055 3605.4411764705883 506.71794871794873 3584.5 512.8717948717949 3563.5588235294117 521.0769230769231 3542.6176470588234 527.2307692307693 3521.676470588235 537.4871794871796 3500.735294117647 541.5897435897436 3479.794117647059 541.5897435897436 3458.8529411764707 541.5897435897436 3437.9117647058824 543.6410256410256 3416.970588235294 547.7435897435898 3396.029411764706 555.948717948718 3375.0882352941176 560.0512820512821 3354.1470588235293 562.1025641025642 3333.205882352941 562.1025641025642 3312.264705882353 570.3076923076924 3291.323529411765 570.3076923076924 3270.3823529411766 580.5641025641025 3249.4411764705883 601.0769230769231 3228.5 605.1794871794873 3228.5 1038Z" fill="#005aa6" opacity="0.9" />
		</g>
		<g>
			<path d="M3228.5 605.1794871794873 3249.4411764705883 601.0769230769231 3270.3823529411766 580.5641025641025 3291.323529411765 570.3076923076924 3312.264705882353 570.3076923076924 3333.205882352941 562.1025641025642 3354.1470588235293 562.1025641025642 3375.0882352941176 560.0512820512821 3396.029411764706 555.948717948718 3416.970588235294 547.7435897435898 3437.9117647058824 543.6410256410256 3458.8529411764707 541.5897435897436 3479.794117647059 541.5897435897436 3500.735294117647 541.5897435897436 3521.676470588235 537.4871794871796 3542.6176470588234 527.2307692307693 3563.5588235294117 521.0769230769231 3584.5 512.8717948717949 3605.4411764705883 506.71794871794873 3626.3823529411766 498.51282051282055 3647.323529411765 496.46153846153857 3668.264705882353 494.41025641025647 3689.205882352941 494.41025641025647 3710.1470588235293 490.3076923076924 3731.0882352941176 490.3076923076924 3752.029411764706 486.2051282051283 3772.970588235294 482.1025641025642 3793.9117647058824 471.8461538461539 3814.8529411764707 469.7948717948718 3835.7941176470586 469.7948717948718 3856.735294117647 461.58974358974365 3877.676470588235 455.43589743589746 3898.6176470588234 451.33333333333337 3919.5588235294117 453.3846153846155 3940.5 453.3846153846155 3961.4411764705883 447.2307692307693 3982.3823529411766 434.923076923077 4003.323529411765 426.71794871794873 4024.264705882353 420.56410256410265 4045.2058823529414 418.51282051282055 4066.1470588235293 414.41025641025647 4087.0882352941176 414.41025641025647 4108.029411764706 414.41025641025647 4128.970588235294 412.35897435897436 4149.911764705882 408.2564102564103 4170.85294117647 408.2564102564103 4191.794117647059 406.2051282051283 4212.735294117647 404.1538461538462 4233.676470588235 402.1025641025642 4254.617647058823 402.1025641025642 4275.558823529412 400.0512820512821 4296.5 400.0512820512821 4296.5 398.00000000000006 4275.558823529412 398.00000000000006 4254.617647058823 400.05128205128216 4233.676470588235 400.05128205128216 4212.735294117647 402.10256410256414 4191.794117647059 404.15384615384625 4170.85294117647 406.20512820512823 4149.911764705882 406.20512820512823 4128.970588235294 410.3076923076923 4108.029411764706 412.3589743589744 4087.0882352941176 412.3589743589744 4066.1470588235293 412.3589743589744 4045.2058823529414 416.4615384615385 4024.264705882353 418.5128205128206 4003.323529411765 424.6666666666667 3982.3823529411766 432.871794871795 3961.4411764705883 445.17948717948724 3940.5 451.3333333333334 3919.5588235294117 451.3333333333334 3898.6176470588234 449.2820512820513 3877.676470588235 453.3846153846154 3856.735294117647 459.5384615384616 3835.7941176470586 467.7435897435898 3814.8529411764707 467.7435897435898 3793.9117647058824 469.7948717948719 3772.970588235294 480.05128205128216 3752.029411764706 484.15384615384625 3731.0882352941176 488.25641025641033 3710.1470588235293 488.25641025641033 3689.205882352941 492.3589743589744 3668.264705882353 492.3589743589744 3647.323529411765 494.4102564102565 3626.3823529411766 496.4615384615385 3605.4411764705883 504.6666666666667 3584.5 510.8205128205129 3563.5588235294117 519.025641025641 3542.6176470588234 525.1794871794872 3521.676470588235 535.4358974358975 3500.735294117647 539.5384615384615 3479.794117647059 539.5384615384615 3458.8529411764707 539.5384615384615 3437.9117647058824 541.5897435897435 3416.970588235294 545.6923076923077 3396.029411764706 553.8974358974359 3375.0882352941176 558 3354.1470588235293 560.0512820512821 3333.205882352941 560.0512820512821 3312.264705882353 568.2564102564103 3291.323529411765 568.2564102564103 3270.3823529411766 578.5128205128204 3249.4411764705883 599.025641025641 3228.5 603.1282051282052 3228.5 605.1794871794873Z" fill="#e62d39" opacity="0.9" />
		</g>
		<g>
			<rect x="4372" y="431" width="22.9995" height="23" fill="#005aa6" />
		</g>
		<g>
			<text fill="#595959" font-family="Verdana,sans-serif" font-weight="400" font-size="41" transform="matrix(1 0 0 1 4404.56 454)">Crawler</text>
		</g>
		<g>
			<rect x="4372" y="508" width="22.9995" height="23" fill="#e62d39" />
		</g>
		<g>
			<text fill="#595959" font-family="Verdana,sans-serif" font-weight="400" font-size="41" transform="matrix(1 0 0 1 4404.56 531)">Non-Crawler</text>
		</g>
	</g>
</svg>
