<svg width="1763" height="1046"
    xmlns="http://www.w3.org/2000/svg"
	xmlns:xlink="http://www.w3.org/1999/xlink" xml:space="preserve" overflow="hidden">
	<defs>
		<clipPath id="clip0">
			<rect x="2917" y="346" width="1763" height="1046"/>
		</clipPath>
	</defs>
	<g clip-path="url(#clip0)" transform="translate(-2917 -346)">
		<rect x="2918" y="347" width="1760" height="1043" fill="#FFFFFF" />
		<g>
			<path d="
			M3228.5 974.532 4296.5 974.532
			M3228.5 910.53 4296.5 910.53
			M3228.5 846.528 4296.5 846.528
			M3228.5 781.526 4296.5 781.526
			M3228.5 717.524 4296.5 717.524
			M3228.5 653.522 4296.5 653.522
			M3228.5 589.52 4296.5 589.52
			M3228.5 525.517 4296.5 525.517
			M3228.5 461.515 4296.5 461.515
			M3228.5 397.5 4296.5 397.5" stroke="#D9D9D9" stroke-width="3.4375" stroke-linejoin="round" stroke-miterlimit="10" fill="none" />
		</g>
		<g>
			<path d="M 1038.5 4296.5 1038.5" stroke="#D9D9D9" stroke-width="3.4375" stroke-linejoin="round" stroke-miterlimit="10" fill="none" fill-rule="evenodd" />
		</g>
		<g>
			<text fill="#595959" font-family="Verdana,Open Sans,DejaVu Sans,sans-serif" font-weight="400" font-size="41" transform="matrix(6.12323e-17 -1 1 6.12323e-17 3247.1982421875 1192.2914962768555)">16-Jun</text>
		</g>
		<g>
			<text fill="#595959" font-family="Verdana,Open Sans,DejaVu Sans,sans-serif" font-weight="400" font-size="41" transform="matrix(6.12323e-17 -1 1 6.12323e-17 3331.693660960478 1177.2768478393555)">14-Jul</text>
		</g>
		<g>
			<text fill="#595959" font-family="Verdana,Open Sans,DejaVu Sans,sans-serif" font-weight="400" font-size="41" transform="matrix(6.12323e-17 -1 1 6.12323e-17 3415.648552389706 1206.90576171875)">11-Aug</text>
		</g>
		<g>
			<text fill="#595959" font-family="Verdana,Open Sans,DejaVu Sans,sans-serif" font-weight="400" font-size="41" transform="matrix(6.12323e-17 -1 1 6.12323e-17 3499.583424287684 1204.38330078125)">08-Sep</text>
		</g>
		<g>
			<text fill="#595959" font-family="Verdana,Open Sans,DejaVu Sans,sans-serif" font-weight="400" font-size="41" transform="matrix(6.12323e-17 -1 1 6.12323e-17 3578.6235207950367 1201.1000900268555)">06-Oct</text>
		</g>
		<g>
			<text fill="#595959" font-family="Verdana,Open Sans,DejaVu Sans,sans-serif" font-weight="400" font-size="41" transform="matrix(6.12323e-17 -1 1 6.12323e-17 3662.38822667739 1211.43017578125)">03-Nov</text>
		</g>
		<g>
			<text fill="#595959" font-family="Verdana,Open Sans,DejaVu Sans,sans-serif" font-weight="400" font-size="41" transform="matrix(6.12323e-17 -1 1 6.12323e-17 3746.1529325597426 1207.0859375)">01-Dec</text>
		</g>
		<g>
			<text fill="#595959" font-family="Verdana,Open Sans,DejaVu Sans,sans-serif" font-weight="400" font-size="41" transform="matrix(6.12323e-17 -1 1 6.12323e-17 3829.8976189108457 1207.1259765625)">29-Dec</text>
		</g>
		<g>
			<text fill="#595959" font-family="Verdana,Open Sans,DejaVu Sans,sans-serif" font-weight="400" font-size="41" transform="matrix(6.12323e-17 -1 1 6.12323e-17 3917.3158892463234 1191.6909103393555)">26-Jan</text>
		</g>
		<g>
			<text fill="#595959" font-family="Verdana,Open Sans,DejaVu Sans,sans-serif" font-weight="400" font-size="41" transform="matrix(6.12323e-17 -1 1 6.12323e-17 3998.1577435661766 1203.08203125)">23-Feb</text>
		</g>
		<g>
			<text fill="#595959" font-family="Verdana,Open Sans,DejaVu Sans,sans-serif" font-weight="400" font-size="41" transform="matrix(6.12323e-17 -1 1 6.12323e-17 4081.1917365579043 1212.05078125)">23-Mar</text>
		</g>
		<g>
			<text fill="#595959" font-family="Verdana,Open Sans,DejaVu Sans,sans-serif" font-weight="400" font-size="41" transform="matrix(6.12323e-17 -1 1 6.12323e-17 4169.701071346507 1203.3022384643555)">20-Apr</text>
		</g>
		<g>
			<text fill="#595959" font-family="Verdana,Open Sans,DejaVu Sans,sans-serif" font-weight="400" font-size="41" transform="matrix(6.12323e-17 -1 1 6.12323e-17 4253.44575769761 1214.75341796875)">18-May</text>
		</g>
		<g>
			<text fill="#595959" font-family="Verdana,Open Sans,DejaVu Sans,sans-serif" font-weight="400" font-size="41" transform="matrix(1 0 0 1 3169.14111328125 1050)">0</text>
		</g>
		<g>
			<text fill="#595959" font-family="Verdana,Open Sans,DejaVu Sans,sans-serif" font-weight="400" font-size="41" transform="matrix(1 0 0 1 3145.73828125 922)">80</text>
		</g>
		<g>
			<text fill="#595959" font-family="Verdana,Open Sans,DejaVu Sans,sans-serif" font-weight="400" font-size="41" transform="matrix(1 0 0 1 3123.97705078125 794)">160</text>
		</g>
		<g>
			<text fill="#595959" font-family="Verdana,Open Sans,DejaVu Sans,sans-serif" font-weight="400" font-size="41" transform="matrix(1 0 0 1 3122.21533203125 666)">240</text>
		</g>
		<g>
			<text fill="#595959" font-family="Verdana,Open Sans,DejaVu Sans,sans-serif" font-weight="400" font-size="41" transform="matrix(1 0 0 1 3122.09521484375 538)">320</text>
		</g>
		<g>
			<text fill="#595959" font-family="Verdana,Open Sans,DejaVu Sans,sans-serif" font-weight="400" font-size="41" transform="matrix(1 0 0 1 3121.07421875 410)">400</text>
		</g>
		<g>
			<text fill="#595959" font-family="Verdana,Open Sans,DejaVu Sans,sans-serif" font-weight="400" font-size="41" transform="matrix(1 0 0 1 3556.97119140625 1321)">Week Commencing</text>
		</g>
		<g>
			<text fill="#595959" font-family="Verdana,Open Sans,DejaVu Sans,sans-serif" font-weight="400" font-size="46" transform="matrix(6.12323e-17 -1 1 6.12323e-17 3019.73 1005.4858093261719)">Number of Crawler Profiles</text>
		</g>
		<rect x="2918.5" y="347.5" width="1760" height="1043" stroke="#D9D9D9" stroke-width="3.4375" stroke-linejoin="round" stroke-miterlimit="10" fill="none" />
		<g>
			<path d="M3228.5 1038 3249.4411764705883 1038 3270.3823529411766 1038 3291.323529411765 1038 3312.264705882353 1038 3333.205882352941 1038 3354.1470588235293 1038 3375.0882352941176 1038 3396.029411764706 1038 3416.970588235294 1038 3437.9117647058824 1038 3458.8529411764707 1038 3479.794117647059 1038 3500.735294117647 1038 3521.676470588235 1038 3542.6176470588234 1038 3563.5588235294117 1038 3584.5 1038 3605.4411764705883 1038 3626.3823529411766 1038 3647.323529411765 1038 3668.264705882353 1038 3689.205882352941 1038 3710.1470588235293 1038 3731.0882352941176 1038 3752.029411764706 1038 3772.970588235294 1038 3793.9117647058824 1038 3814.8529411764707 1038 3835.7941176470586 1038 3856.735294117647 1038 3877.676470588235 1038 3898.6176470588234 1038 3919.5588235294117 1038 3940.5 1038 3961.4411764705883 1038 3982.3823529411766 1038 4003.323529411765 1038 4024.264705882353 1038 4045.2058823529414 1038 4066.1470588235293 1038 4087.0882352941176 1038 4108.029411764706 1038 4128.970588235294 1038 4149.911764705882 1038 4170.85294117647 1038 4191.794117647059 1038 4212.735294117647 1038 4233.676470588235 1038 4254.617647058823 1038 4275.558823529412 1038 4296.5 1038 4296.5 399.5999999999999 4275.558823529412 418.79999999999995 4254.617647058823 423.5999999999999 4233.676470588235 423.5999999999999 4212.735294117647 423.5999999999999 4191.794117647059 423.5999999999999 4170.85294117647 423.5999999999999 4149.911764705882 426.79999999999995 4128.970588235294 433.19999999999993 4108.029411764706 433.19999999999993 4087.0882352941176 433.19999999999993 4066.1470588235293 449.19999999999993 4045.2058823529414 449.19999999999993 4024.264705882353 449.19999999999993 4003.323529411765 452.4 3982.3823529411766 455.6 3961.4411764705883 452.4 3940.5 460.4 3919.5588235294117 481.19999999999993 3898.6176470588234 482.79999999999995 3877.676470588235 484.4 3856.735294117647 484.4 3835.7941176470586 484.4 3814.8529411764707 486 3793.9117647058824 489.19999999999993 3772.970588235294 490.79999999999995 3752.029411764706 492.4 3731.0882352941176 497.19999999999993 3710.1470588235293 497.19999999999993 3689.205882352941 497.19999999999993 3668.264705882353 498.79999999999995 3647.323529411765 502 3626.3823529411766 502 3605.4411764705883 502 3584.5 503.6 3563.5588235294117 503.6 3542.6176470588234 503.6 3521.676470588235 510 3500.735294117647 510 3479.794117647059 510 3458.8529411764707 510 3437.9117647058824 510 3416.970588235294 510 3396.029411764706 510 3375.0882352941176 510 3354.1470588235293 510 3333.205882352941 511.6 3312.264705882353 511.6 3291.323529411765 513.1999999999999 3270.3823529411766 513.1999999999999 3249.4411764705883 521.1999999999999 3228.5 522.8 3228.5 1038Z" fill="#005aa6" opacity="0.9" />
		</g>
		<g>
			<path d="M3228.5 522.8 3249.4411764705883 521.1999999999999 3270.3823529411766 513.1999999999999 3291.323529411765 513.1999999999999 3312.264705882353 511.6 3333.205882352941 511.6 3354.1470588235293 510 3375.0882352941176 510 3396.029411764706 510 3416.970588235294 510 3437.9117647058824 510 3458.8529411764707 510 3479.794117647059 510 3500.735294117647 510 3521.676470588235 510 3542.6176470588234 503.6 3563.5588235294117 503.6 3584.5 503.6 3605.4411764705883 502 3626.3823529411766 502 3647.323529411765 502 3668.264705882353 498.79999999999995 3689.205882352941 497.19999999999993 3710.1470588235293 497.19999999999993 3731.0882352941176 497.19999999999993 3752.029411764706 492.4 3772.970588235294 490.79999999999995 3793.9117647058824 489.19999999999993 3814.8529411764707 486 3835.7941176470586 484.4 3856.735294117647 484.4 3877.676470588235 484.4 3898.6176470588234 482.79999999999995 3919.5588235294117 481.19999999999993 3940.5 460.4 3961.4411764705883 452.4 3982.3823529411766 455.6 4003.323529411765 452.4 4024.264705882353 449.19999999999993 4045.2058823529414 449.19999999999993 4066.1470588235293 449.19999999999993 4087.0882352941176 433.19999999999993 4108.029411764706 433.19999999999993 4128.970588235294 433.19999999999993 4149.911764705882 426.79999999999995 4170.85294117647 423.5999999999999 4191.794117647059 423.5999999999999 4212.735294117647 423.5999999999999 4233.676470588235 423.5999999999999 4254.617647058823 423.5999999999999 4275.558823529412 418.79999999999995 4296.5 399.5999999999999 4296.5 397.9999999999999 4275.558823529412 417.19999999999993 4254.617647058823 421.9999999999999 4233.676470588235 421.9999999999999 4212.735294117647 421.9999999999999 4191.794117647059 421.9999999999999 4170.85294117647 421.9999999999999 4149.911764705882 425.19999999999993 4128.970588235294 431.5999999999999 4108.029411764706 431.5999999999999 4087.0882352941176 431.5999999999999 4066.1470588235293 447.5999999999999 4045.2058823529414 447.5999999999999 4024.264705882353 447.5999999999999 4003.323529411765 450.79999999999995 3982.3823529411766 452.40000000000003 3961.4411764705883 449.2 3940.5 458.79999999999995 3919.5588235294117 479.5999999999999 3898.6176470588234 481.19999999999993 3877.676470588235 482.79999999999995 3856.735294117647 482.79999999999995 3835.7941176470586 482.79999999999995 3814.8529411764707 484.4 3793.9117647058824 487.5999999999999 3772.970588235294 489.19999999999993 3752.029411764706 490.79999999999995 3731.0882352941176 495.5999999999999 3710.1470588235293 495.5999999999999 3689.205882352941 495.5999999999999 3668.264705882353 497.19999999999993 3647.323529411765 500.4 3626.3823529411766 500.4 3605.4411764705883 500.4 3584.5 502 3563.5588235294117 502 3542.6176470588234 502 3521.676470588235 508.4 3500.735294117647 508.4 3479.794117647059 508.4 3458.8529411764707 508.4 3437.9117647058824 508.4 3416.970588235294 508.4 3396.029411764706 508.4 3375.0882352941176 508.4 3354.1470588235293 508.4 3333.205882352941 510 3312.264705882353 510 3291.323529411765 511.5999999999999 3270.3823529411766 511.5999999999999 3249.4411764705883 519.5999999999999 3228.5 521.1999999999999 3228.5 522.8Z" fill="#e62d39" opacity="0.9" />
		</g>
		<g>
			<rect x="4372" y="431" width="22.9995" height="23" fill="#005aa6" />
		</g>
		<g>
			<text fill="#595959" font-family="Verdana,Open Sans,DejaVu Sans,sans-serif" font-weight="400" font-size="41" transform="matrix(1 0 0 1 4404.56 454)">Crawler</text>
		</g>
		<g>
			<rect x="4372" y="508" width="22.9995" height="23" fill="#e62d39" />
		</g>
		<g>
			<text fill="#595959" font-family="Verdana,Open Sans,DejaVu Sans,sans-serif" font-weight="400" font-size="41" transform="matrix(1 0 0 1 4404.56 531)">Non-Crawler</text>
		</g>
	</g>
</svg>
