<svg width="1763" height="1046"
    xmlns="http://www.w3.org/2000/svg"
	xmlns:xlink="http://www.w3.org/1999/xlink" xml:space="preserve" overflow="hidden">
	<defs>
		<clipPath id="clip0">
			<rect x="2917" y="346" width="1763" height="1046"/>
		</clipPath>
	</defs>
	<g clip-path="url(#clip0)" transform="translate(-2917 -346)">
		<rect x="2918" y="347" width="1760" height="1043" fill="#FFFFFF" />
		<g>
			<path d="
			M3228.5 974.532 4296.5 974.532
			M3228.5 910.53 4296.5 910.53
			M3228.5 846.528 4296.5 846.528
			M3228.5 781.526 4296.5 781.526
			M3228.5 717.524 4296.5 717.524
			M3228.5 653.522 4296.5 653.522
			M3228.5 589.52 4296.5 589.52
			M3228.5 525.517 4296.5 525.517
			M3228.5 461.515 4296.5 461.515
			M3228.5 397.5 4296.5 397.5" stroke="#D9D9D9" stroke-width="3.4375" stroke-linejoin="round" stroke-miterlimit="10" fill="none" />
		</g>
		<g>
			<path d="M 1038.5 4296.5 1038.5" stroke="#D9D9D9" stroke-width="3.4375" stroke-linejoin="round" stroke-miterlimit="10" fill="none" fill-rule="evenodd" />
		</g>
		<g>
			<text fill="#595959" font-family="Verdana,sans-serif" font-weight="400" font-size="41" transform="matrix(6.12323e-17 -1 1 6.12323e-17 3244.5 1227)">06-Nov</text>
		</g>
		<g>
			<text fill="#595959" font-family="Verdana,sans-serif" font-weight="400" font-size="41" transform="matrix(6.12323e-17 -1 1 6.12323e-17 3346.214285714286 1226)">20-Nov</text>
		</g>
		<g>
			<text fill="#595959" font-family="Verdana,sans-serif" font-weight="400" font-size="41" transform="matrix(6.12323e-17 -1 1 6.12323e-17 3447.9285714285716 1225)">04-Dec</text>
		</g>
		<g>
			<text fill="#595959" font-family="Verdana,sans-serif" font-weight="400" font-size="41" transform="matrix(6.12323e-17 -1 1 6.12323e-17 3549.642857142857 1222)">18-Dec</text>
		</g>
		<g>
			<text fill="#595959" font-family="Verdana,sans-serif" font-weight="400" font-size="41" transform="matrix(6.12323e-17 -1 1 6.12323e-17 3651.3571428571427 1212)">01-Jan</text>
		</g>
		<g>
			<text fill="#595959" font-family="Verdana,sans-serif" font-weight="400" font-size="41" transform="matrix(6.12323e-17 -1 1 6.12323e-17 3752.5714285714284 1209)">15-Jan</text>
		</g>
		<g>
			<text fill="#595959" font-family="Verdana,sans-serif" font-weight="400" font-size="41" transform="matrix(6.12323e-17 -1 1 6.12323e-17 3854.785714285714 1211)">29-Jan</text>
		</g>
		<g>
			<text fill="#595959" font-family="Verdana,sans-serif" font-weight="400" font-size="41" transform="matrix(6.12323e-17 -1 1 6.12323e-17 3956.5 1216)">12-Feb</text>
		</g>
		<g>
			<text fill="#595959" font-family="Verdana,sans-serif" font-weight="400" font-size="41" transform="matrix(6.12323e-17 -1 1 6.12323e-17 4058.214285714286 1218)">26-Feb</text>
		</g>
		<g>
			<text fill="#595959" font-family="Verdana,sans-serif" font-weight="400" font-size="41" transform="matrix(6.12323e-17 -1 1 6.12323e-17 4159.428571428572 1222)">11-Mar</text>
		</g>
		<g>
			<text fill="#595959" font-family="Verdana,sans-serif" font-weight="400" font-size="41" transform="matrix(6.12323e-17 -1 1 6.12323e-17 4261.642857142857 1225)">25-Mar</text>
		</g>
		<g>
			<text fill="#595959" font-family="Verdana,sans-serif" font-weight="400" font-size="41" transform="matrix(1 0 0 1 3167.5 1050)">0</text>
		</g>
		<g>
			<text fill="#595959" font-family="Verdana,sans-serif" font-weight="400" font-size="41" transform="matrix(1 0 0 1 3139.5 922)">46</text>
		</g>
		<g>
			<text fill="#595959" font-family="Verdana,sans-serif" font-weight="400" font-size="41" transform="matrix(1 0 0 1 3140.5 794)">92</text>
		</g>
		<g>
			<text fill="#595959" font-family="Verdana,sans-serif" font-weight="400" font-size="41" transform="matrix(1 0 0 1 3117.5 666)">137</text>
		</g>
		<g>
			<text fill="#595959" font-family="Verdana,sans-serif" font-weight="400" font-size="41" transform="matrix(1 0 0 1 3117.5 538)">183</text>
		</g>
		<g>
			<text fill="#595959" font-family="Verdana,sans-serif" font-weight="400" font-size="41" transform="matrix(1 0 0 1 3115.5 410)">229</text>
		</g>
		<g>
			<text fill="#595959" font-family="Verdana,sans-serif" font-weight="400" font-size="41" transform="matrix(1 0 0 1 3541.5 1321)">Week Commencing</text>
		</g>
		<g>
			<text fill="#595959" font-family="Verdana,sans-serif" font-weight="400" font-size="46" transform="matrix(6.12323e-17 -1 1 6.12323e-17 3019.73 1029.25)">Number of Crawler Profiles</text>
		</g>
		<rect x="2918.5" y="347.5" width="1760" height="1043" stroke="#D9D9D9" stroke-width="3.4375" stroke-linejoin="round" stroke-miterlimit="10" fill="none" />
		<g>
			<path d="M3228.5 1038 3279.3571428571427 1038 3330.214285714286 1038 3381.0714285714284 1038 3431.9285714285716 1038 3482.785714285714 1038 3533.642857142857 1038 3584.5 1038 3635.3571428571427 1038 3686.214285714286 1038 3737.0714285714284 1038 3787.9285714285716 1038 3838.785714285714 1038 3889.642857142857 1038 3940.5 1038 3991.3571428571427 1038 4042.214285714286 1038 4093.0714285714284 1038 4143.928571428572 1038 4194.785714285714 1038 4245.642857142857 1038 4296.5 1038 4296.5 400.79475982532756 4245.642857142857 414.76855895196513 4194.785714285714 442.71615720524017 4143.928571428572 448.3056768558952 4093.0714285714284 453.8951965065503 4042.214285714286 467.86899563318775 3991.3571428571427 470.6637554585153 3940.5 470.6637554585153 3889.642857142857 473.45851528384287 3838.785714285714 479.0480349344979 3787.9285714285716 493.02183406113545 3737.0714285714284 495.8165938864629 3686.214285714286 495.8165938864629 3635.3571428571427 501.4061135371179 3584.5 501.4061135371179 3533.642857142857 501.4061135371179 3482.785714285714 501.4061135371179 3431.9285714285716 501.4061135371179 3381.0714285714284 504.20087336244546 3330.214285714286 504.20087336244546 3279.3571428571427 504.20087336244546 3228.5 504.20087336244546 3228.5 1038Z" fill="#005aa6" opacity="0.9" />
		</g>
		<g>
			<path d="M3228.5 504.20087336244546 3279.3571428571427 504.20087336244546 3330.214285714286 504.20087336244546 3381.0714285714284 504.20087336244546 3431.9285714285716 501.4061135371179 3482.785714285714 501.4061135371179 3533.642857142857 501.4061135371179 3584.5 501.4061135371179 3635.3571428571427 501.4061135371179 3686.214285714286 495.8165938864629 3737.0714285714284 495.8165938864629 3787.9285714285716 493.02183406113545 3838.785714285714 479.0480349344979 3889.642857142857 473.45851528384287 3940.5 470.6637554585153 3991.3571428571427 470.6637554585153 4042.214285714286 467.86899563318775 4093.0714285714284 453.8951965065503 4143.928571428572 448.3056768558952 4194.785714285714 442.71615720524017 4245.642857142857 414.76855895196513 4296.5 400.79475982532756 4296.5 398.00000000000006 4245.642857142857 411.97379912663763 4194.785714285714 439.92139737991266 4143.928571428572 445.51091703056767 4093.0714285714284 451.1004366812228 4042.214285714286 465.07423580786025 3991.3571428571427 467.8689956331878 3940.5 467.8689956331878 3889.642857142857 470.66375545851537 3838.785714285714 476.2532751091704 3787.9285714285716 490.22707423580795 3737.0714285714284 493.0218340611354 3686.214285714286 493.0218340611354 3635.3571428571427 498.6113537117904 3584.5 498.6113537117904 3533.642857142857 498.6113537117904 3482.785714285714 498.6113537117904 3431.9285714285716 498.6113537117904 3381.0714285714284 501.40611353711796 3330.214285714286 501.40611353711796 3279.3571428571427 501.40611353711796 3228.5 501.40611353711796 3228.5 504.20087336244546Z" fill="#e62d39" opacity="0.9" />
		</g>
		<g>
			<rect x="4372" y="431" width="22.9995" height="23" fill="#005aa6" />
		</g>
		<g>
			<text fill="#595959" font-family="Verdana,sans-serif" font-weight="400" font-size="41" transform="matrix(1 0 0 1 4404.56 454)">Crawler</text>
		</g>
		<g>
			<rect x="4372" y="508" width="22.9995" height="23" fill="#e62d39" />
		</g>
		<g>
			<text fill="#595959" font-family="Verdana,sans-serif" font-weight="400" font-size="41" transform="matrix(1 0 0 1 4404.56 531)">Non-Crawler</text>
		</g>
	</g>
</svg>
