<svg width="1763" height="1046"
    xmlns="http://www.w3.org/2000/svg"
	xmlns:xlink="http://www.w3.org/1999/xlink" xml:space="preserve" overflow="hidden">
	<defs>
		<clipPath id="clip0">
			<rect x="2917" y="346" width="1763" height="1046"/>
		</clipPath>
	</defs>
	<g clip-path="url(#clip0)" transform="translate(-2917 -346)">
		<rect x="2918" y="347" width="1760" height="1043" fill="#FFFFFF" />
		<g>
			<path d="
			M3228.5 974.532 4296.5 974.532
			M3228.5 910.53 4296.5 910.53
			M3228.5 846.528 4296.5 846.528
			M3228.5 781.526 4296.5 781.526
			M3228.5 717.524 4296.5 717.524
			M3228.5 653.522 4296.5 653.522
			M3228.5 589.52 4296.5 589.52
			M3228.5 525.517 4296.5 525.517
			M3228.5 461.515 4296.5 461.515
			M3228.5 397.5 4296.5 397.5" stroke="#D9D9D9" stroke-width="3.4375" stroke-linejoin="round" stroke-miterlimit="10" fill="none" />
		</g>
		<g>
			<path d="M 1038.5 4296.5 1038.5" stroke="#D9D9D9" stroke-width="3.4375" stroke-linejoin="round" stroke-miterlimit="10" fill="none" fill-rule="evenodd" />
		</g>
		<g>
			<text fill="#595959" font-family="Verdana,sans-serif" font-weight="400" font-size="41" transform="matrix(6.12323e-17 -1 1 6.12323e-17 3248 1217)">08-Apr</text>
		</g>
		<g>
			<text fill="#595959" font-family="Verdana,sans-serif" font-weight="400" font-size="41" transform="matrix(6.12323e-17 -1 1 6.12323e-17 3331.764705882353 1228)">06-May</text>
		</g>
		<g>
			<text fill="#595959" font-family="Verdana,sans-serif" font-weight="400" font-size="41" transform="matrix(6.12323e-17 -1 1 6.12323e-17 3412.029411764706 1211)">03-Jun</text>
		</g>
		<g>
			<text fill="#595959" font-family="Verdana,sans-serif" font-weight="400" font-size="41" transform="matrix(6.12323e-17 -1 1 6.12323e-17 3495.794117647059 1197)">01-Jul</text>
		</g>
		<g>
			<text fill="#595959" font-family="Verdana,sans-serif" font-weight="400" font-size="41" transform="matrix(6.12323e-17 -1 1 6.12323e-17 3579.5588235294117 1196)">29-Jul</text>
		</g>
		<g>
			<text fill="#595959" font-family="Verdana,sans-serif" font-weight="400" font-size="41" transform="matrix(6.12323e-17 -1 1 6.12323e-17 3666.823529411765 1221)">26-Aug</text>
		</g>
		<g>
			<text fill="#595959" font-family="Verdana,sans-serif" font-weight="400" font-size="41" transform="matrix(6.12323e-17 -1 1 6.12323e-17 3750.5882352941176 1221)">23-Sep</text>
		</g>
		<g>
			<text fill="#595959" font-family="Verdana,sans-serif" font-weight="400" font-size="41" transform="matrix(6.12323e-17 -1 1 6.12323e-17 3830.8529411764707 1215)">21-Oct</text>
		</g>
		<g>
			<text fill="#595959" font-family="Verdana,sans-serif" font-weight="400" font-size="41" transform="matrix(6.12323e-17 -1 1 6.12323e-17 3914.6176470588234 1222)">18-Nov</text>
		</g>
		<g>
			<text fill="#595959" font-family="Verdana,sans-serif" font-weight="400" font-size="41" transform="matrix(6.12323e-17 -1 1 6.12323e-17 3998.3823529411766 1222)">23-Dec</text>
		</g>
		<g>
			<text fill="#595959" font-family="Verdana,sans-serif" font-weight="400" font-size="41" transform="matrix(6.12323e-17 -1 1 6.12323e-17 4082.1470588235293 1210)">20-Jan</text>
		</g>
		<g>
			<text fill="#595959" font-family="Verdana,sans-serif" font-weight="400" font-size="41" transform="matrix(6.12323e-17 -1 1 6.12323e-17 4165.911764705882 1214)">17-Feb</text>
		</g>
		<g>
			<text fill="#595959" font-family="Verdana,sans-serif" font-weight="400" font-size="41" transform="matrix(6.12323e-17 -1 1 6.12323e-17 4249.176470588235 1221)">17-Mar</text>
		</g>
		<g>
			<text fill="#595959" font-family="Verdana,sans-serif" font-weight="400" font-size="41" transform="matrix(1 0 0 1 3123.5 1050)">0%</text>
		</g>
		<g>
			<text fill="#595959" font-family="Verdana,sans-serif" font-weight="400" font-size="41" transform="matrix(1 0 0 1 3097.5 922)">20%</text>
		</g>
		<g>
			<text fill="#595959" font-family="Verdana,sans-serif" font-weight="400" font-size="41" transform="matrix(1 0 0 1 3096.5 794)">40%</text>
		</g>
		<g>
			<text fill="#595959" font-family="Verdana,sans-serif" font-weight="400" font-size="41" transform="matrix(1 0 0 1 3097.5 666)">60%</text>
		</g>
		<g>
			<text fill="#595959" font-family="Verdana,sans-serif" font-weight="400" font-size="41" transform="matrix(1 0 0 1 3097.5 538)">80%</text>
		</g>
		<g>
			<text fill="#595959" font-family="Verdana,sans-serif" font-weight="400" font-size="41" transform="matrix(1 0 0 1 3074.5 410)">100%</text>
		</g>
		<g>
			<text fill="#595959" font-family="Verdana,sans-serif" font-weight="400" font-size="41" transform="matrix(1 0 0 1 3544.5 1321)">Week Commencing</text>
		</g>
		<g>
			<text fill="#595959" font-family="Verdana,sans-serif" font-weight="400" font-size="46" transform="matrix(6.12323e-17 -1 1 6.12323e-17 3019.73 965.25)">Requests (% of Total)</text>
		</g>
		<rect x="2918.5" y="347.5" width="1760" height="1043" stroke="#D9D9D9" stroke-width="3.4375" stroke-linejoin="round" stroke-miterlimit="10" fill="none" />
		<g>
			<path d="M3228.5 1038 3249.4411764705883 1038 3270.3823529411766 1038 3291.323529411765 1038 3312.264705882353 1038 3333.205882352941 1038 3354.1470588235293 1038 3375.0882352941176 1038 3396.029411764706 1038 3416.970588235294 1038 3437.9117647058824 1038 3458.8529411764707 1038 3479.794117647059 1038 3500.735294117647 1038 3521.676470588235 1038 3542.6176470588234 1038 3563.5588235294117 1038 3584.5 1038 3605.4411764705883 1038 3626.3823529411766 1038 3647.323529411765 1038 3668.264705882353 1038 3689.205882352941 1038 3710.1470588235293 1038 3731.0882352941176 1038 3752.029411764706 1038 3772.970588235294 1038 3793.9117647058824 1038 3814.8529411764707 1038 3835.7941176470586 1038 3856.735294117647 1038 3877.676470588235 1038 3898.6176470588234 1038 3919.5588235294117 1038 3940.5 1038 3961.4411764705883 1038 3982.3823529411766 1038 4003.323529411765 1038 4024.264705882353 1038 4045.2058823529414 1038 4066.1470588235293 1038 4087.0882352941176 1038 4108.029411764706 1038 4128.970588235294 1038 4149.911764705882 1038 4170.85294117647 1038 4191.794117647059 1038 4212.735294117647 1038 4233.676470588235 1038 4254.617647058823 1038 4275.558823529412 1038 4296.5 1038 4296.5 441.6626940555466 4275.558823529412 441.6573661278967 4254.617647058823 441.5375979828307 4233.676470588235 441.406683369976 4212.735294117647 441.167209213907 4191.794117647059 441.0289316920836 4170.85294117647 441.03561787240676 4149.911764705882 441.06205687573333 4128.970588235294 441.14123809544583 4108.029411764706 441.04668014176025 4087.0882352941176 441.3325461823914 4066.1470588235293 441.50673382811704 4045.2058823529414 441.5263210359809 4024.264705882353 441.5338725099368 4003.323529411765 441.5429030927178 3982.3823529411766 441.47417224977323 3961.4411764705883 441.4594945700171 3940.5 441.38808556766435 3919.5588235294117 441.3288056085928 3898.6176470588234 441.47308833726333 3877.676470588235 441.645038932872 3856.735294117647 441.9852131881347 3835.7941176470586 442.33307896966517 3814.8529411764707 566.5721783366624 3793.9117647058824 567.1308685788513 3772.970588235294 567.5130485279316 3752.029411764706 568.0135171374827 3731.0882352941176 568.6966145549849 3710.1470588235293 569.582505337425 3689.205882352941 569.9559975833151 3668.264705882353 570.7071585028136 3647.323529411765 571.2237275515587 3626.3823529411766 571.9035338843237 3605.4411764705883 572.0631883952817 3584.5 572.5486893796854 3563.5588235294117 572.9112818795618 3542.6176470588234 572.7332415748011 3521.676470588235 572.862060937991 3500.735294117647 572.9365512268143 3479.794117647059 572.8940388940463 3458.8529411764707 572.4651830343407 3437.9117647058824 572.6325422225004 3416.970588235294 571.5082651331143 3396.029411764706 572.2322344669446 3375.0882352941176 572.7455283998808 3354.1470588235293 573.7260592446937 3333.205882352941 574.7878423335366 3312.264705882353 575.6290427379265 3291.323529411765 575.9687876322813 3270.3823529411766 576.8727971406818 3249.4411764705883 578.2473295586981 3228.5 579.8301495425726 3228.5 1038Z" fill="#e62d39" opacity="0.9" />
		</g>
		<g>
			<path d="M3228.5 579.8301495425726 3249.4411764705883 578.2473295586981 3270.3823529411766 576.8727971406818 3291.323529411765 575.9687876322813 3312.264705882353 575.6290427379265 3333.205882352941 574.7878423335366 3354.1470588235293 573.7260592446937 3375.0882352941176 572.7455283998808 3396.029411764706 572.2322344669446 3416.970588235294 571.5082651331143 3437.9117647058824 572.6325422225004 3458.8529411764707 572.4651830343407 3479.794117647059 572.8940388940463 3500.735294117647 572.9365512268143 3521.676470588235 572.862060937991 3542.6176470588234 572.7332415748011 3563.5588235294117 572.9112818795618 3584.5 572.5486893796854 3605.4411764705883 572.0631883952817 3626.3823529411766 571.9035338843237 3647.323529411765 571.2237275515587 3668.264705882353 570.7071585028136 3689.205882352941 569.9559975833151 3710.1470588235293 569.582505337425 3731.0882352941176 568.6966145549849 3752.029411764706 568.0135171374827 3772.970588235294 567.5130485279316 3793.9117647058824 567.1308685788513 3814.8529411764707 566.5721783366624 3835.7941176470586 442.33307896966517 3856.735294117647 441.9852131881347 3877.676470588235 441.645038932872 3898.6176470588234 441.47308833726333 3919.5588235294117 441.3288056085928 3940.5 441.38808556766435 3961.4411764705883 441.4594945700171 3982.3823529411766 441.47417224977323 4003.323529411765 441.5429030927178 4024.264705882353 441.5338725099368 4045.2058823529414 441.5263210359809 4066.1470588235293 441.50673382811704 4087.0882352941176 441.3325461823914 4108.029411764706 441.04668014176025 4128.970588235294 441.14123809544583 4149.911764705882 441.06205687573333 4170.85294117647 441.03561787240676 4191.794117647059 441.0289316920836 4212.735294117647 441.167209213907 4233.676470588235 441.406683369976 4254.617647058823 441.5375979828307 4275.558823529412 441.6573661278967 4296.5 441.6626940555466 4296.5 398 4275.558823529412 398 4254.617647058823 398.00000000000006 4233.676470588235 398 4212.735294117647 398 4191.794117647059 398 4170.85294117647 398 4149.911764705882 397.99999999999994 4128.970588235294 398 4108.029411764706 398.00000000000006 4087.0882352941176 397.99999999999994 4066.1470588235293 398.00000000000006 4045.2058823529414 398 4024.264705882353 398 4003.323529411765 398 3982.3823529411766 398 3961.4411764705883 398.00000000000006 3940.5 398 3919.5588235294117 398 3898.6176470588234 398 3877.676470588235 397.99999999999994 3856.735294117647 398 3835.7941176470586 398 3814.8529411764707 398 3793.9117647058824 398 3772.970588235294 398 3752.029411764706 398 3731.0882352941176 398 3710.1470588235293 398 3689.205882352941 398.00000000000006 3668.264705882353 398 3647.323529411765 398 3626.3823529411766 398 3605.4411764705883 398.00000000000006 3584.5 398 3563.5588235294117 397.99999999999994 3542.6176470588234 398 3521.676470588235 397.99999999999994 3500.735294117647 398.00000000000006 3479.794117647059 398 3458.8529411764707 398 3437.9117647058824 398 3416.970588235294 397.99999999999994 3396.029411764706 398.0000000000001 3375.0882352941176 398 3354.1470588235293 398 3333.205882352941 398.00000000000006 3312.264705882353 398 3291.323529411765 398 3270.3823529411766 397.99999999999994 3249.4411764705883 397.99999999999994 3228.5 398.0000000000001 3228.5 579.8301495425726Z" fill="#005aa6" opacity="0.9" />
		</g>
		<g>
			<rect x="4372" y="431" width="22.9995" height="23" fill="#e62d39" />
		</g>
		<g>
			<text fill="#595959" font-family="Verdana,sans-serif" font-weight="400" font-size="41" transform="matrix(1 0 0 1 4404.56 454)">Non-Crawler</text>
		</g>
		<g>
			<rect x="4372" y="508" width="22.9995" height="23" fill="#005aa6" />
		</g>
		<g>
			<text fill="#595959" font-family="Verdana,sans-serif" font-weight="400" font-size="41" transform="matrix(1 0 0 1 4404.56 531)">Crawler</text>
		</g>
	</g>
</svg>
