<svg width="1763" height="1046"
    xmlns="http://www.w3.org/2000/svg"
	xmlns:xlink="http://www.w3.org/1999/xlink" xml:space="preserve" overflow="hidden">
	<defs>
		<clipPath id="clip0">
			<rect x="2917" y="346" width="1763" height="1046"/>
		</clipPath>
	</defs>
	<g clip-path="url(#clip0)" transform="translate(-2917 -346)">
		<rect x="2918" y="347" width="1760" height="1043" fill="#FFFFFF" />
		<g>
			<path d="
			M3228.5 974.532 4296.5 974.532
			M3228.5 910.53 4296.5 910.53
			M3228.5 846.528 4296.5 846.528
			M3228.5 781.526 4296.5 781.526
			M3228.5 717.524 4296.5 717.524
			M3228.5 653.522 4296.5 653.522
			M3228.5 589.52 4296.5 589.52
			M3228.5 525.517 4296.5 525.517
			M3228.5 461.515 4296.5 461.515
			M3228.5 397.5 4296.5 397.5" stroke="#D9D9D9" stroke-width="3.4375" stroke-linejoin="round" stroke-miterlimit="10" fill="none" />
		</g>
		<g>
			<path d="M 1038.5 4296.5 1038.5" stroke="#D9D9D9" stroke-width="3.4375" stroke-linejoin="round" stroke-miterlimit="10" fill="none" fill-rule="evenodd" />
		</g>
		<g>
			<text fill="#595959" font-family="Verdana,sans-serif" font-weight="400" font-size="41" transform="matrix(6.12323e-17 -1 1 6.12323e-17 3244.5 1225)">06-Nov</text>
		</g>
		<g>
			<text fill="#595959" font-family="Verdana,sans-serif" font-weight="400" font-size="41" transform="matrix(6.12323e-17 -1 1 6.12323e-17 3366.557142857143 1223)">04-Dec</text>
		</g>
		<g>
			<text fill="#595959" font-family="Verdana,sans-serif" font-weight="400" font-size="41" transform="matrix(6.12323e-17 -1 1 6.12323e-17 3488.614285714286 1210)">01-Jan</text>
		</g>
		<g>
			<text fill="#595959" font-family="Verdana,sans-serif" font-weight="400" font-size="41" transform="matrix(6.12323e-17 -1 1 6.12323e-17 3610.671428571429 1210)">29-Jan</text>
		</g>
		<g>
			<text fill="#595959" font-family="Verdana,sans-serif" font-weight="400" font-size="41" transform="matrix(6.12323e-17 -1 1 6.12323e-17 3732.7285714285713 1216)">26-Feb</text>
		</g>
		<g>
			<text fill="#595959" font-family="Verdana,sans-serif" font-weight="400" font-size="41" transform="matrix(6.12323e-17 -1 1 6.12323e-17 3854.785714285714 1223)">25-Mar</text>
		</g>
		<g>
			<text fill="#595959" font-family="Verdana,sans-serif" font-weight="400" font-size="41" transform="matrix(6.12323e-17 -1 1 6.12323e-17 3980.342857142857 1216)">22-Apr</text>
		</g>
		<g>
			<text fill="#595959" font-family="Verdana,sans-serif" font-weight="400" font-size="41" transform="matrix(6.12323e-17 -1 1 6.12323e-17 4102.4 1228)">20-May</text>
		</g>
		<g>
			<text fill="#595959" font-family="Verdana,sans-serif" font-weight="400" font-size="41" transform="matrix(6.12323e-17 -1 1 6.12323e-17 4220.457142857143 1209)">17-Jun</text>
		</g>
		<g>
			<text fill="#595959" font-family="Verdana,sans-serif" font-weight="400" font-size="41" transform="matrix(1 0 0 1 3123.5 1050)">0%</text>
		</g>
		<g>
			<text fill="#595959" font-family="Verdana,sans-serif" font-weight="400" font-size="41" transform="matrix(1 0 0 1 3097.5 922)">20%</text>
		</g>
		<g>
			<text fill="#595959" font-family="Verdana,sans-serif" font-weight="400" font-size="41" transform="matrix(1 0 0 1 3096.5 794)">40%</text>
		</g>
		<g>
			<text fill="#595959" font-family="Verdana,sans-serif" font-weight="400" font-size="41" transform="matrix(1 0 0 1 3097.5 666)">60%</text>
		</g>
		<g>
			<text fill="#595959" font-family="Verdana,sans-serif" font-weight="400" font-size="41" transform="matrix(1 0 0 1 3097.5 538)">80%</text>
		</g>
		<g>
			<text fill="#595959" font-family="Verdana,sans-serif" font-weight="400" font-size="41" transform="matrix(1 0 0 1 3074.5 410)">100%</text>
		</g>
		<g>
			<text fill="#595959" font-family="Verdana,sans-serif" font-weight="400" font-size="41" transform="matrix(1 0 0 1 3544.5 1321)">Week Commencing</text>
		</g>
		<g>
			<text fill="#595959" font-family="Verdana,sans-serif" font-weight="400" font-size="46" transform="matrix(6.12323e-17 -1 1 6.12323e-17 3019.73 965.25)">Requests (% of Total)</text>
		</g>
		<rect x="2918.5" y="347.5" width="1760" height="1043" stroke="#D9D9D9" stroke-width="3.4375" stroke-linejoin="round" stroke-miterlimit="10" fill="none" />
		<g>
			<path d="M3228.5 1038 3259.0142857142855 1038 3289.5285714285715 1038 3320.042857142857 1038 3350.557142857143 1038 3381.0714285714284 1038 3411.5857142857144 1038 3442.1 1038 3472.614285714286 1038 3503.1285714285714 1038 3533.6428571428573 1038 3564.157142857143 1038 3594.671428571429 1038 3625.1857142857143 1038 3655.7 1038 3686.214285714286 1038 3716.7285714285713 1038 3747.2428571428572 1038 3777.7571428571428 1038 3808.2714285714287 1038 3838.785714285714 1038 3869.3 1038 3899.8142857142857 1038 3930.328571428571 1038 3960.842857142857 1038 3991.357142857143 1038 4021.8714285714286 1038 4052.385714285714 1038 4082.9 1038 4113.414285714286 1038 4143.928571428572 1038 4174.442857142857 1038 4204.957142857143 1038 4235.471428571429 1038 4265.9857142857145 1038 4296.5 1038 4296.5 572.9365512268143 4265.9857142857145 572.8940388940463 4235.471428571429 572.4651830343407 4204.957142857143 572.6325422225004 4174.442857142857 571.5082651331143 4143.928571428572 572.2322344669446 4113.414285714286 572.7455283998808 4082.9 573.7260592446937 4052.385714285714 574.7878423335366 4021.8714285714286 575.6290427379265 3991.357142857143 575.9687876322813 3960.842857142857 576.8727971406818 3930.328571428571 578.2473295586981 3899.8142857142857 579.8301495425726 3869.3 581.4258071436993 3838.785714285714 583.4353029706369 3808.2714285714287 585.2297796683877 3777.7571428571428 569.3763139485983 3747.2428571428572 569.4920790789085 3716.7285714285713 568.4210223578364 3686.214285714286 567.328661211755 3655.7 566.161104092279 3625.1857142857143 566.5630760901624 3594.671428571429 566.9371867374394 3564.157142857143 565.7434322908556 3533.6428571428573 565.3329344965637 3503.1285714285714 567.1306424721515 3472.614285714286 546.6361313386333 3442.1 547.2360643741254 3411.5857142857144 547.9846296844262 3381.0714285714284 551.0672526834712 3350.557142857143 550.9210452859504 3320.042857142857 550.9050574683862 3289.5285714285715 550.8533354714161 3259.0142857142855 550.7560734149703 3228.5 551.2665692392751 3228.5 1038Z" fill="#e62d39" opacity="0.9" />
		</g>
		<g>
			<path d="M3228.5 551.2665692392751 3259.0142857142855 550.7560734149703 3289.5285714285715 550.8533354714161 3320.042857142857 550.9050574683862 3350.557142857143 550.9210452859504 3381.0714285714284 551.0672526834712 3411.5857142857144 547.9846296844262 3442.1 547.2360643741254 3472.614285714286 546.6361313386333 3503.1285714285714 567.1306424721515 3533.6428571428573 565.3329344965637 3564.157142857143 565.7434322908556 3594.671428571429 566.9371867374394 3625.1857142857143 566.5630760901624 3655.7 566.161104092279 3686.214285714286 567.328661211755 3716.7285714285713 568.4210223578364 3747.2428571428572 569.4920790789085 3777.7571428571428 569.3763139485983 3808.2714285714287 585.2297796683877 3838.785714285714 583.4353029706369 3869.3 581.4258071436993 3899.8142857142857 579.8301495425726 3930.328571428571 578.2473295586981 3960.842857142857 576.8727971406818 3991.357142857143 575.9687876322813 4021.8714285714286 575.6290427379265 4052.385714285714 574.7878423335366 4082.9 573.7260592446937 4113.414285714286 572.7455283998808 4143.928571428572 572.2322344669446 4174.442857142857 571.5082651331143 4204.957142857143 572.6325422225004 4235.471428571429 572.4651830343407 4265.9857142857145 572.8940388940463 4296.5 572.9365512268143 4296.5 398.00000000000006 4265.9857142857145 398 4235.471428571429 398 4204.957142857143 398 4174.442857142857 397.99999999999994 4143.928571428572 398.0000000000001 4113.414285714286 398 4082.9 398 4052.385714285714 398.00000000000006 4021.8714285714286 398 3991.357142857143 398 3960.842857142857 397.99999999999994 3930.328571428571 397.99999999999994 3899.8142857142857 398.0000000000001 3869.3 398 3838.785714285714 398 3808.2714285714287 398 3777.7571428571428 398 3747.2428571428572 398.00000000000006 3716.7285714285713 398.00000000000006 3686.214285714286 398 3655.7 398.00000000000006 3625.1857142857143 397.99999999999994 3594.671428571429 398 3564.157142857143 398 3533.6428571428573 397.99999999999994 3503.1285714285714 398.00000000000006 3472.614285714286 398 3442.1 398.0000000000001 3411.5857142857144 398 3381.0714285714284 398 3350.557142857143 398 3320.042857142857 398 3289.5285714285715 398 3259.0142857142855 398 3228.5 398 3228.5 551.2665692392751Z" fill="#005aa6" opacity="0.9" />
		</g>
		<g>
			<rect x="4372" y="431" width="22.9995" height="23" fill="#e62d39" />
		</g>
		<g>
			<text fill="#595959" font-family="Verdana,sans-serif" font-weight="400" font-size="41" transform="matrix(1 0 0 1 4404.56 454)">Non-Crawler</text>
		</g>
		<g>
			<rect x="4372" y="508" width="22.9995" height="23" fill="#005aa6" />
		</g>
		<g>
			<text fill="#595959" font-family="Verdana,sans-serif" font-weight="400" font-size="41" transform="matrix(1 0 0 1 4404.56 531)">Crawler</text>
		</g>
	</g>
</svg>
