<svg width="1763" height="1046"
    xmlns="http://www.w3.org/2000/svg"
	xmlns:xlink="http://www.w3.org/1999/xlink" xml:space="preserve" overflow="hidden">
	<defs>
		<clipPath id="clip0">
			<rect x="2917" y="346" width="1763" height="1046"/>
		</clipPath>
	</defs>
	<g clip-path="url(#clip0)" transform="translate(-2917 -346)">
		<rect x="2918" y="347" width="1760" height="1043" fill="#FFFFFF" />
		<g>
			<path d="
			M3228.5 974.532 4296.5 974.532
			M3228.5 910.53 4296.5 910.53
			M3228.5 846.528 4296.5 846.528
			M3228.5 781.526 4296.5 781.526
			M3228.5 717.524 4296.5 717.524
			M3228.5 653.522 4296.5 653.522
			M3228.5 589.52 4296.5 589.52
			M3228.5 525.517 4296.5 525.517
			M3228.5 461.515 4296.5 461.515
			M3228.5 397.5 4296.5 397.5" stroke="#D9D9D9" stroke-width="3.4375" stroke-linejoin="round" stroke-miterlimit="10" fill="none" />
		</g>
		<g>
			<path d="M 1038.5 4296.5 1038.5" stroke="#D9D9D9" stroke-width="3.4375" stroke-linejoin="round" stroke-miterlimit="10" fill="none" fill-rule="evenodd" />
		</g>
		<g>
			<text fill="#595959" font-family="Verdana,sans-serif" font-weight="400" font-size="41" transform="matrix(6.12323e-17 -1 1 6.12323e-17 3244.5 1225)">06-Nov</text>
		</g>
		<g>
			<text fill="#595959" font-family="Verdana,sans-serif" font-weight="400" font-size="41" transform="matrix(6.12323e-17 -1 1 6.12323e-17 3343.8488372093025 1223)">04-Dec</text>
		</g>
		<g>
			<text fill="#595959" font-family="Verdana,sans-serif" font-weight="400" font-size="41" transform="matrix(6.12323e-17 -1 1 6.12323e-17 3443.1976744186045 1210)">01-Jan</text>
		</g>
		<g>
			<text fill="#595959" font-family="Verdana,sans-serif" font-weight="400" font-size="41" transform="matrix(6.12323e-17 -1 1 6.12323e-17 3542.546511627907 1210)">29-Jan</text>
		</g>
		<g>
			<text fill="#595959" font-family="Verdana,sans-serif" font-weight="400" font-size="41" transform="matrix(6.12323e-17 -1 1 6.12323e-17 3641.8953488372094 1216)">26-Feb</text>
		</g>
		<g>
			<text fill="#595959" font-family="Verdana,sans-serif" font-weight="400" font-size="41" transform="matrix(6.12323e-17 -1 1 6.12323e-17 3741.2441860465115 1223)">25-Mar</text>
		</g>
		<g>
			<text fill="#595959" font-family="Verdana,sans-serif" font-weight="400" font-size="41" transform="matrix(6.12323e-17 -1 1 6.12323e-17 3844.093023255814 1216)">22-Apr</text>
		</g>
		<g>
			<text fill="#595959" font-family="Verdana,sans-serif" font-weight="400" font-size="41" transform="matrix(6.12323e-17 -1 1 6.12323e-17 3943.4418604651164 1228)">20-May</text>
		</g>
		<g>
			<text fill="#595959" font-family="Verdana,sans-serif" font-weight="400" font-size="41" transform="matrix(6.12323e-17 -1 1 6.12323e-17 4038.790697674419 1209)">17-Jun</text>
		</g>
		<g>
			<text fill="#595959" font-family="Verdana,sans-serif" font-weight="400" font-size="41" transform="matrix(6.12323e-17 -1 1 6.12323e-17 4138.639534883721 1194)">15-Jul</text>
		</g>
		<g>
			<text fill="#595959" font-family="Verdana,sans-serif" font-weight="400" font-size="41" transform="matrix(6.12323e-17 -1 1 6.12323e-17 4241.488372093023 1218)">12-Aug</text>
		</g>
		<g>
			<text fill="#595959" font-family="Verdana,sans-serif" font-weight="400" font-size="41" transform="matrix(1 0 0 1 3167.5 1050)">0</text>
		</g>
		<g>
			<text fill="#595959" font-family="Verdana,sans-serif" font-weight="400" font-size="41" transform="matrix(1 0 0 1 3141.5 922)">54</text>
		</g>
		<g>
			<text fill="#595959" font-family="Verdana,sans-serif" font-weight="400" font-size="41" transform="matrix(1 0 0 1 3117.5 794)">108</text>
		</g>
		<g>
			<text fill="#595959" font-family="Verdana,sans-serif" font-weight="400" font-size="41" transform="matrix(1 0 0 1 3118.5 666)">162</text>
		</g>
		<g>
			<text fill="#595959" font-family="Verdana,sans-serif" font-weight="400" font-size="41" transform="matrix(1 0 0 1 3115.5 538)">216</text>
		</g>
		<g>
			<text fill="#595959" font-family="Verdana,sans-serif" font-weight="400" font-size="41" transform="matrix(1 0 0 1 3115.5 410)">270</text>
		</g>
		<g>
			<text fill="#595959" font-family="Verdana,sans-serif" font-weight="400" font-size="41" transform="matrix(1 0 0 1 3544.5 1321)">Week Commencing</text>
		</g>
		<g>
			<text fill="#595959" font-family="Verdana,sans-serif" font-weight="400" font-size="46" transform="matrix(6.12323e-17 -1 1 6.12323e-17 3019.73 1024.75)">Number of Crawler Profiles</text>
		</g>
		<rect x="2918.5" y="347.5" width="1760" height="1043" stroke="#D9D9D9" stroke-width="3.4375" stroke-linejoin="round" stroke-miterlimit="10" fill="none" />
		<g>
			<path d="M3228.5 1038 3253.3372093023254 1038 3278.1744186046512 1038 3303.0116279069766 1038 3327.8488372093025 1038 3352.686046511628 1038 3377.5232558139533 1038 3402.360465116279 1038 3427.1976744186045 1038 3452.0348837209303 1038 3476.8720930232557 1038 3501.7093023255816 1038 3526.546511627907 1038 3551.383720930233 1038 3576.220930232558 1038 3601.0581395348836 1038 3625.8953488372094 1038 3650.732558139535 1038 3675.5697674418607 1038 3700.406976744186 1038 3725.2441860465115 1038 3750.0813953488373 1038 3774.9186046511627 1038 3799.7558139534885 1038 3824.593023255814 1038 3849.4302325581393 1038 3874.267441860465 1038 3899.104651162791 1038 3923.9418604651164 1038 3948.779069767442 1038 3973.6162790697676 1038 3998.453488372093 1038 4023.290697674419 1038 4048.1279069767443 1038 4072.9651162790697 1038 4097.802325581395 1038 4122.639534883721 1038 4147.476744186047 1038 4172.313953488372 1038 4197.1511627906975 1038 4221.988372093023 1038 4246.825581395349 1038 4271.662790697675 1038 4296.5 1038 4296.5 400.37037037037044 4271.662790697675 405.1111111111112 4246.825581395349 405.1111111111112 4221.988372093023 409.85185185185185 4197.1511627906975 409.85185185185185 4172.313953488372 412.2222222222223 4147.476744186047 414.5925925925926 4122.639534883721 424.07407407407413 4097.802325581395 431.1851851851852 4072.9651162790697 440.66666666666674 4048.1279069767443 447.7777777777778 4023.290697674419 459.6296296296297 3998.453488372093 464.37037037037044 3973.6162790697676 464.37037037037044 3948.779069767442 464.37037037037044 3923.9418604651164 466.74074074074076 3899.104651162791 471.4814814814815 3874.267441860465 480.96296296296305 3849.4302325581393 485.7037037037037 3824.593023255814 488.07407407407413 3799.7558139534885 488.07407407407413 3774.9186046511627 497.55555555555554 3750.0813953488373 497.55555555555554 3725.2441860465115 509.4074074074074 3700.406976744186 533.1111111111111 3675.5697674418607 537.851851851852 3650.732558139535 542.5925925925926 3625.8953488372094 554.4444444444445 3601.0581395348836 556.8148148148148 3576.220930232558 556.8148148148148 3551.383720930233 559.1851851851852 3526.546511627907 563.925925925926 3501.7093023255816 575.7777777777778 3476.8720930232557 578.1481481481482 3452.0348837209303 578.1481481481482 3427.1976744186045 582.8888888888889 3402.360465116279 582.8888888888889 3377.5232558139533 582.8888888888889 3352.686046511628 582.8888888888889 3327.8488372093025 582.8888888888889 3303.0116279069766 585.2592592592594 3278.1744186046512 585.2592592592594 3253.3372093023254 585.2592592592594 3228.5 585.2592592592594 3228.5 1038Z" fill="#005aa6" opacity="0.9" />
		</g>
		<g>
			<path d="M3228.5 585.2592592592594 3253.3372093023254 585.2592592592594 3278.1744186046512 585.2592592592594 3303.0116279069766 585.2592592592594 3327.8488372093025 582.8888888888889 3352.686046511628 582.8888888888889 3377.5232558139533 582.8888888888889 3402.360465116279 582.8888888888889 3427.1976744186045 582.8888888888889 3452.0348837209303 578.1481481481482 3476.8720930232557 578.1481481481482 3501.7093023255816 575.7777777777778 3526.546511627907 563.925925925926 3551.383720930233 559.1851851851852 3576.220930232558 556.8148148148148 3601.0581395348836 556.8148148148148 3625.8953488372094 554.4444444444445 3650.732558139535 542.5925925925926 3675.5697674418607 537.851851851852 3700.406976744186 533.1111111111111 3725.2441860465115 509.4074074074074 3750.0813953488373 497.55555555555554 3774.9186046511627 497.55555555555554 3799.7558139534885 488.07407407407413 3824.593023255814 488.07407407407413 3849.4302325581393 485.7037037037037 3874.267441860465 480.96296296296305 3899.104651162791 471.4814814814815 3923.9418604651164 466.74074074074076 3948.779069767442 464.37037037037044 3973.6162790697676 464.37037037037044 3998.453488372093 464.37037037037044 4023.290697674419 459.6296296296297 4048.1279069767443 447.7777777777778 4072.9651162790697 440.66666666666674 4097.802325581395 431.1851851851852 4122.639534883721 424.07407407407413 4147.476744186047 414.5925925925926 4172.313953488372 412.2222222222223 4197.1511627906975 409.85185185185185 4221.988372093023 409.85185185185185 4246.825581395349 405.1111111111112 4271.662790697675 405.1111111111112 4296.5 400.37037037037044 4296.5 398.00000000000006 4271.662790697675 402.7407407407408 4246.825581395349 402.7407407407408 4221.988372093023 407.48148148148147 4197.1511627906975 407.48148148148147 4172.313953488372 409.8518518518519 4147.476744186047 412.22222222222223 4122.639534883721 421.70370370370375 4097.802325581395 428.81481481481484 4072.9651162790697 438.29629629629636 4048.1279069767443 445.40740740740745 4023.290697674419 457.2592592592593 3998.453488372093 462.00000000000006 3973.6162790697676 462.00000000000006 3948.779069767442 462.00000000000006 3923.9418604651164 464.3703703703704 3899.104651162791 469.11111111111114 3874.267441860465 478.59259259259267 3849.4302325581393 483.3333333333333 3824.593023255814 485.70370370370375 3799.7558139534885 485.70370370370375 3774.9186046511627 495.18518518518516 3750.0813953488373 495.18518518518516 3725.2441860465115 507.037037037037 3700.406976744186 530.7407407407408 3675.5697674418607 535.4814814814816 3650.732558139535 540.2222222222223 3625.8953488372094 552.0740740740741 3601.0581395348836 554.4444444444445 3576.220930232558 554.4444444444445 3551.383720930233 556.8148148148149 3526.546511627907 561.5555555555557 3501.7093023255816 573.4074074074075 3476.8720930232557 575.7777777777778 3452.0348837209303 575.7777777777778 3427.1976744186045 580.5185185185186 3402.360465116279 580.5185185185186 3377.5232558139533 580.5185185185186 3352.686046511628 580.5185185185186 3327.8488372093025 580.5185185185186 3303.0116279069766 582.888888888889 3278.1744186046512 582.888888888889 3253.3372093023254 582.888888888889 3228.5 582.888888888889 3228.5 585.2592592592594Z" fill="#e62d39" opacity="0.9" />
		</g>
		<g>
			<rect x="4372" y="431" width="22.9995" height="23" fill="#005aa6" />
		</g>
		<g>
			<text fill="#595959" font-family="Verdana,sans-serif" font-weight="400" font-size="41" transform="matrix(1 0 0 1 4404.56 454)">Crawler</text>
		</g>
		<g>
			<rect x="4372" y="508" width="22.9995" height="23" fill="#e62d39" />
		</g>
		<g>
			<text fill="#595959" font-family="Verdana,sans-serif" font-weight="400" font-size="41" transform="matrix(1 0 0 1 4404.56 531)">Non-Crawler</text>
		</g>
	</g>
</svg>
