<svg width="1763" height="1046"
    xmlns="http://www.w3.org/2000/svg"
	xmlns:xlink="http://www.w3.org/1999/xlink" xml:space="preserve" overflow="hidden">
	<defs>
		<clipPath id="clip0">
			<rect x="2917" y="346" width="1763" height="1046"/>
		</clipPath>
	</defs>
	<g clip-path="url(#clip0)" transform="translate(-2917 -346)">
		<rect x="2918" y="347" width="1760" height="1043" fill="#FFFFFF" />
		<g>
			<path d="
			M3228.5 974.532 4296.5 974.532
			M3228.5 910.53 4296.5 910.53
			M3228.5 846.528 4296.5 846.528
			M3228.5 781.526 4296.5 781.526
			M3228.5 717.524 4296.5 717.524
			M3228.5 653.522 4296.5 653.522
			M3228.5 589.52 4296.5 589.52
			M3228.5 525.517 4296.5 525.517
			M3228.5 461.515 4296.5 461.515
			M3228.5 397.5 4296.5 397.5" stroke="#D9D9D9" stroke-width="3.4375" stroke-linejoin="round" stroke-miterlimit="10" fill="none" />
		</g>
		<g>
			<path d="M 1038.5 4296.5 1038.5" stroke="#D9D9D9" stroke-width="3.4375" stroke-linejoin="round" stroke-miterlimit="10" fill="none" fill-rule="evenodd" />
		</g>
		<g>
			<text fill="#595959" font-family="Verdana,Open Sans,DejaVu Sans,sans-serif" font-weight="400" font-size="41" transform="matrix(6.12323e-17 -1 1 6.12323e-17 3243.544677734375 1212.1708984375)">31-Mar</text>
		</g>
		<g>
			<text fill="#595959" font-family="Verdana,Open Sans,DejaVu Sans,sans-serif" font-weight="400" font-size="41" transform="matrix(6.12323e-17 -1 1 6.12323e-17 3332.033992991728 1203.3022384643555)">28-Apr</text>
		</g>
		<g>
			<text fill="#595959" font-family="Verdana,Open Sans,DejaVu Sans,sans-serif" font-weight="400" font-size="41" transform="matrix(6.12323e-17 -1 1 6.12323e-17 3415.798698874081 1216.51513671875)">26-May</text>
		</g>
		<g>
			<text fill="#595959" font-family="Verdana,Open Sans,DejaVu Sans,sans-serif" font-weight="400" font-size="41" transform="matrix(6.12323e-17 -1 1 6.12323e-17 3498.512379365809 1194.1733322143555)">30-Jun</text>
		</g>
		<g>
			<text fill="#595959" font-family="Verdana,Open Sans,DejaVu Sans,sans-serif" font-weight="400" font-size="41" transform="matrix(6.12323e-17 -1 1 6.12323e-17 3582.9877786075367 1179.0385665893555)">28-Jul</text>
		</g>
		<g>
			<text fill="#595959" font-family="Verdana,Open Sans,DejaVu Sans,sans-serif" font-weight="400" font-size="41" transform="matrix(6.12323e-17 -1 1 6.12323e-17 3667.09281652114 1208.66748046875)">25-Aug</text>
		</g>
		<g>
			<text fill="#595959" font-family="Verdana,Open Sans,DejaVu Sans,sans-serif" font-weight="400" font-size="41" transform="matrix(6.12323e-17 -1 1 6.12323e-17 3750.8575224034926 1204.42333984375)">22-Sep</text>
		</g>
		<g>
			<text fill="#595959" font-family="Verdana,Open Sans,DejaVu Sans,sans-serif" font-weight="400" font-size="41" transform="matrix(6.12323e-17 -1 1 6.12323e-17 3829.9176384420957 1201.1401290893555)">20-Oct</text>
		</g>
		<g>
			<text fill="#595959" font-family="Verdana,Open Sans,DejaVu Sans,sans-serif" font-weight="400" font-size="41" transform="matrix(6.12323e-17 -1 1 6.12323e-17 3913.4521197150734 1209.70849609375)">17-Nov</text>
		</g>
		<g>
			<text fill="#595959" font-family="Verdana,Open Sans,DejaVu Sans,sans-serif" font-weight="400" font-size="41" transform="matrix(6.12323e-17 -1 1 6.12323e-17 3997.2168255974266 1205.3642578125)">15-Dec</text>
		</g>
		<g>
			<text fill="#595959" font-family="Verdana,Open Sans,DejaVu Sans,sans-serif" font-weight="400" font-size="41" transform="matrix(6.12323e-17 -1 1 6.12323e-17 4084.8453010110293 1189.9291915893555)">12-Jan</text>
		</g>
		<g>
			<text fill="#595959" font-family="Verdana,Open Sans,DejaVu Sans,sans-serif" font-weight="400" font-size="41" transform="matrix(6.12323e-17 -1 1 6.12323e-17 4165.687155330882 1203.0419921875)">09-Feb</text>
		</g>
		<g>
			<text fill="#595959" font-family="Verdana,Open Sans,DejaVu Sans,sans-serif" font-weight="400" font-size="41" transform="matrix(6.12323e-17 -1 1 6.12323e-17 4248.74116785386 1212.0107421875)">09-Mar</text>
		</g>
		<g>
			<text fill="#595959" font-family="Verdana,Open Sans,DejaVu Sans,sans-serif" font-weight="400" font-size="41" transform="matrix(1 0 0 1 3135.4482421875 1050)">0%</text>
		</g>
		<g>
			<text fill="#595959" font-family="Verdana,Open Sans,DejaVu Sans,sans-serif" font-weight="400" font-size="41" transform="matrix(1 0 0 1 3111.96533203125 922)">20%</text>
		</g>
		<g>
			<text fill="#595959" font-family="Verdana,Open Sans,DejaVu Sans,sans-serif" font-weight="400" font-size="41" transform="matrix(1 0 0 1 3110.82421875 794)">40%</text>
		</g>
		<g>
			<text fill="#595959" font-family="Verdana,Open Sans,DejaVu Sans,sans-serif" font-weight="400" font-size="41" transform="matrix(1 0 0 1 3112.3056640625 666)">60%</text>
		</g>
		<g>
			<text fill="#595959" font-family="Verdana,Open Sans,DejaVu Sans,sans-serif" font-weight="400" font-size="41" transform="matrix(1 0 0 1 3112.04541015625 538)">80%</text>
		</g>
		<g>
			<text fill="#595959" font-family="Verdana,Open Sans,DejaVu Sans,sans-serif" font-weight="400" font-size="41" transform="matrix(1 0 0 1 3090.2841796875 410)">100%</text>
		</g>
		<g>
			<text fill="#595959" font-family="Verdana,Open Sans,DejaVu Sans,sans-serif" font-weight="400" font-size="41" transform="matrix(1 0 0 1 3556.97119140625 1321)">Week Commencing</text>
		</g>
		<g>
			<text fill="#595959" font-family="Verdana,Open Sans,DejaVu Sans,sans-serif" font-weight="400" font-size="46" transform="matrix(6.12323e-17 -1 1 6.12323e-17 3019.73 936.7665710449219)">Requests (% of Total)</text>
		</g>
		<rect x="2918.5" y="347.5" width="1760" height="1043" stroke="#D9D9D9" stroke-width="3.4375" stroke-linejoin="round" stroke-miterlimit="10" fill="none" />
		<g>
			<path d="M3228.5 1038 3249.4411764705883 1038 3270.3823529411766 1038 3291.323529411765 1038 3312.264705882353 1038 3333.205882352941 1038 3354.1470588235293 1038 3375.0882352941176 1038 3396.029411764706 1038 3416.970588235294 1038 3437.9117647058824 1038 3458.8529411764707 1038 3479.794117647059 1038 3500.735294117647 1038 3521.676470588235 1038 3542.6176470588234 1038 3563.5588235294117 1038 3584.5 1038 3605.4411764705883 1038 3626.3823529411766 1038 3647.323529411765 1038 3668.264705882353 1038 3689.205882352941 1038 3710.1470588235293 1038 3731.0882352941176 1038 3752.029411764706 1038 3772.970588235294 1038 3793.9117647058824 1038 3814.8529411764707 1038 3835.7941176470586 1038 3856.735294117647 1038 3877.676470588235 1038 3898.6176470588234 1038 3919.5588235294117 1038 3940.5 1038 3961.4411764705883 1038 3982.3823529411766 1038 4003.323529411765 1038 4024.264705882353 1038 4045.2058823529414 1038 4066.1470588235293 1038 4087.0882352941176 1038 4108.029411764706 1038 4128.970588235294 1038 4149.911764705882 1038 4170.85294117647 1038 4191.794117647059 1038 4212.735294117647 1038 4233.676470588235 1038 4254.617647058823 1038 4275.558823529412 1038 4296.5 1038 4296.5 437.830120525933 4275.558823529412 437.4274922428566 4254.617647058823 437.5327918592636 4233.676470588235 437.70848432679963 4212.735294117647 437.8791578329525 4191.794117647059 438.2569100073033 4170.85294117647 438.25416567656384 4149.911764705882 438.2284066200755 4128.970588235294 438.4018523571715 4108.029411764706 438.2585045087485 4087.0882352941176 438.1419455028754 4066.1470588235293 438.1490336079519 4045.2058823529414 438.2753528850003 4024.264705882353 438.3712938024157 4003.323529411765 438.93844580645873 3982.3823529411766 438.66009075050135 3961.4411764705883 438.6550093538849 3940.5 438.8753603320732 3919.5588235294117 440.072777946987 3898.6176470588234 439.54649540853677 3877.676470588235 439.7648762802967 3856.735294117647 440.0929578933227 3835.7941176470586 440.1107731424996 3814.8529411764707 440.17666153343987 3793.9117647058824 440.17259352262283 3772.970588235294 440.3280263296216 3752.029411764706 440.34799215358134 3731.0882352941176 440.40616975209355 3710.1470588235293 440.40760550465325 3689.205882352941 440.94196380839696 3668.264705882353 441.17078340782746 3647.323529411765 441.17336955313306 3626.3823529411766 441.3391880005887 3605.4411764705883 441.48654078274615 3584.5 441.48316478044603 3563.5588235294117 441.484756503997 3542.6176470588234 441.489616515065 3521.676470588235 441.29796426599523 3500.735294117647 441.72595383903854 3479.794117647059 442.8417422387853 3458.8529411764707 442.854171965349 3437.9117647058824 442.95845521922934 3416.970588235294 442.9731674669964 3396.029411764706 443.09587998074596 3375.0882352941176 442.9453880046191 3354.1470588235293 442.7539759175269 3333.205882352941 442.4035157162202 3312.264705882353 442.11056785584276 3291.323529411765 441.83280494374446 3270.3823529411766 441.70333243098173 3249.4411764705883 441.6626940555466 3228.5 441.6573661278967 3228.5 1038Z" fill="#e62d39" opacity="0.9" />
		</g>
		<g>
			<path d="M3228.5 441.6573661278967 3249.4411764705883 441.6626940555466 3270.3823529411766 441.70333243098173 3291.323529411765 441.83280494374446 3312.264705882353 442.11056785584276 3333.205882352941 442.4035157162202 3354.1470588235293 442.7539759175269 3375.0882352941176 442.9453880046191 3396.029411764706 443.09587998074596 3416.970588235294 442.9731674669964 3437.9117647058824 442.95845521922934 3458.8529411764707 442.854171965349 3479.794117647059 442.8417422387853 3500.735294117647 441.72595383903854 3521.676470588235 441.29796426599523 3542.6176470588234 441.489616515065 3563.5588235294117 441.484756503997 3584.5 441.48316478044603 3605.4411764705883 441.48654078274615 3626.3823529411766 441.3391880005887 3647.323529411765 441.17336955313306 3668.264705882353 441.17078340782746 3689.205882352941 440.94196380839696 3710.1470588235293 440.40760550465325 3731.0882352941176 440.40616975209355 3752.029411764706 440.34799215358134 3772.970588235294 440.3280263296216 3793.9117647058824 440.17259352262283 3814.8529411764707 440.17666153343987 3835.7941176470586 440.1107731424996 3856.735294117647 440.0929578933227 3877.676470588235 439.7648762802967 3898.6176470588234 439.54649540853677 3919.5588235294117 440.072777946987 3940.5 438.8753603320732 3961.4411764705883 438.6550093538849 3982.3823529411766 438.66009075050135 4003.323529411765 438.93844580645873 4024.264705882353 438.3712938024157 4045.2058823529414 438.2753528850003 4066.1470588235293 438.1490336079519 4087.0882352941176 438.1419455028754 4108.029411764706 438.2585045087485 4128.970588235294 438.4018523571715 4149.911764705882 438.2284066200755 4170.85294117647 438.25416567656384 4191.794117647059 438.2569100073033 4212.735294117647 437.8791578329525 4233.676470588235 437.70848432679963 4254.617647058823 437.5327918592636 4275.558823529412 437.4274922428566 4296.5 437.830120525933 4296.5 398 4275.558823529412 398 4254.617647058823 398 4233.676470588235 397.99999999999994 4212.735294117647 398 4191.794117647059 397.99999999999994 4170.85294117647 398 4149.911764705882 398 4128.970588235294 398.00000000000006 4108.029411764706 398 4087.0882352941176 397.99999999999994 4066.1470588235293 398 4045.2058823529414 398.00000000000006 4024.264705882353 398 4003.323529411765 398 3982.3823529411766 398 3961.4411764705883 398.00000000000006 3940.5 398 3919.5588235294117 398 3898.6176470588234 398 3877.676470588235 398.00000000000006 3856.735294117647 398 3835.7941176470586 398 3814.8529411764707 398.00000000000006 3793.9117647058824 398 3772.970588235294 398.00000000000006 3752.029411764706 398.00000000000006 3731.0882352941176 398.0000000000001 3710.1470588235293 398 3689.205882352941 398 3668.264705882353 398 3647.323529411765 397.99999999999994 3626.3823529411766 398 3605.4411764705883 398 3584.5 397.99999999999994 3563.5588235294117 398 3542.6176470588234 398 3521.676470588235 397.99999999999994 3500.735294117647 398 3479.794117647059 398 3458.8529411764707 397.99999999999994 3437.9117647058824 398.00000000000006 3416.970588235294 398 3396.029411764706 398 3375.0882352941176 398.00000000000006 3354.1470588235293 397.99999999999994 3333.205882352941 398 3312.264705882353 398.00000000000006 3291.323529411765 398 3270.3823529411766 398 3249.4411764705883 398 3228.5 398 3228.5 441.6573661278967Z" fill="#005aa6" opacity="0.9" />
		</g>
		<g>
			<rect x="4372" y="431" width="22.9995" height="23" fill="#e62d39" />
		</g>
		<g>
			<text fill="#595959" font-family="Verdana,Open Sans,DejaVu Sans,sans-serif" font-weight="400" font-size="41" transform="matrix(1 0 0 1 4404.56 454)">Non-Crawler</text>
		</g>
		<g>
			<rect x="4372" y="508" width="22.9995" height="23" fill="#005aa6" />
		</g>
		<g>
			<text fill="#595959" font-family="Verdana,Open Sans,DejaVu Sans,sans-serif" font-weight="400" font-size="41" transform="matrix(1 0 0 1 4404.56 531)">Crawler</text>
		</g>
	</g>
</svg>
