<svg width="1763" height="1046"
    xmlns="http://www.w3.org/2000/svg"
	xmlns:xlink="http://www.w3.org/1999/xlink" xml:space="preserve" overflow="hidden">
	<defs>
		<clipPath id="clip0">
			<rect x="2917" y="346" width="1763" height="1046"/>
		</clipPath>
	</defs>
	<g clip-path="url(#clip0)" transform="translate(-2917 -346)">
		<rect x="2918" y="347" width="1760" height="1043" fill="#FFFFFF" />
		<g>
			<path d="
			M3228.5 974.532 4296.5 974.532
			M3228.5 910.53 4296.5 910.53
			M3228.5 846.528 4296.5 846.528
			M3228.5 781.526 4296.5 781.526
			M3228.5 717.524 4296.5 717.524
			M3228.5 653.522 4296.5 653.522
			M3228.5 589.52 4296.5 589.52
			M3228.5 525.517 4296.5 525.517
			M3228.5 461.515 4296.5 461.515
			M3228.5 397.5 4296.5 397.5" stroke="#D9D9D9" stroke-width="3.4375" stroke-linejoin="round" stroke-miterlimit="10" fill="none" />
		</g>
		<g>
			<path d="M 1038.5 4296.5 1038.5" stroke="#D9D9D9" stroke-width="3.4375" stroke-linejoin="round" stroke-miterlimit="10" fill="none" fill-rule="evenodd" />
		</g>
		<g>
			<text fill="#595959" font-family="Verdana,sans-serif" font-weight="400" font-size="41" transform="matrix(6.12323e-17 -1 1 6.12323e-17 3244.5 1210)">22-Jan</text>
		</g>
		<g>
			<text fill="#595959" font-family="Verdana,sans-serif" font-weight="400" font-size="41" transform="matrix(6.12323e-17 -1 1 6.12323e-17 3329.94 1214)">19-Feb</text>
		</g>
		<g>
			<text fill="#595959" font-family="Verdana,sans-serif" font-weight="400" font-size="41" transform="matrix(6.12323e-17 -1 1 6.12323e-17 3415.38 1221)">18-Mar</text>
		</g>
		<g>
			<text fill="#595959" font-family="Verdana,sans-serif" font-weight="400" font-size="41" transform="matrix(6.12323e-17 -1 1 6.12323e-17 3504.32 1214)">15-Apr</text>
		</g>
		<g>
			<text fill="#595959" font-family="Verdana,sans-serif" font-weight="400" font-size="41" transform="matrix(6.12323e-17 -1 1 6.12323e-17 3589.76 1226)">13-May</text>
		</g>
		<g>
			<text fill="#595959" font-family="Verdana,sans-serif" font-weight="400" font-size="41" transform="matrix(6.12323e-17 -1 1 6.12323e-17 3671.7 1209)">10-Jun</text>
		</g>
		<g>
			<text fill="#595959" font-family="Verdana,sans-serif" font-weight="400" font-size="41" transform="matrix(6.12323e-17 -1 1 6.12323e-17 3757.14 1197)">08-Jul</text>
		</g>
		<g>
			<text fill="#595959" font-family="Verdana,sans-serif" font-weight="400" font-size="41" transform="matrix(6.12323e-17 -1 1 6.12323e-17 3846.08 1221)">05-Aug</text>
		</g>
		<g>
			<text fill="#595959" font-family="Verdana,sans-serif" font-weight="400" font-size="41" transform="matrix(6.12323e-17 -1 1 6.12323e-17 3931.52 1222)">02-Sep</text>
		</g>
		<g>
			<text fill="#595959" font-family="Verdana,sans-serif" font-weight="400" font-size="41" transform="matrix(6.12323e-17 -1 1 6.12323e-17 4016.96 1221)">30-Sep</text>
		</g>
		<g>
			<text fill="#595959" font-family="Verdana,sans-serif" font-weight="400" font-size="41" transform="matrix(6.12323e-17 -1 1 6.12323e-17 4098.9 1215)">28-Oct</text>
		</g>
		<g>
			<text fill="#595959" font-family="Verdana,sans-serif" font-weight="400" font-size="41" transform="matrix(6.12323e-17 -1 1 6.12323e-17 4184.34 1224)">25-Nov</text>
		</g>
		<g>
			<text fill="#595959" font-family="Verdana,sans-serif" font-weight="400" font-size="41" transform="matrix(6.12323e-17 -1 1 6.12323e-17 4269.78 1222)">30-Dec</text>
		</g>
		<g>
			<text fill="#595959" font-family="Verdana,sans-serif" font-weight="400" font-size="41" transform="matrix(1 0 0 1 3167.5 1050)">0</text>
		</g>
		<g>
			<text fill="#595959" font-family="Verdana,sans-serif" font-weight="400" font-size="41" transform="matrix(1 0 0 1 3142.5 922)">61</text>
		</g>
		<g>
			<text fill="#595959" font-family="Verdana,sans-serif" font-weight="400" font-size="41" transform="matrix(1 0 0 1 3118.5 794)">122</text>
		</g>
		<g>
			<text fill="#595959" font-family="Verdana,sans-serif" font-weight="400" font-size="41" transform="matrix(1 0 0 1 3117.5 666)">184</text>
		</g>
		<g>
			<text fill="#595959" font-family="Verdana,sans-serif" font-weight="400" font-size="41" transform="matrix(1 0 0 1 3115.5 538)">245</text>
		</g>
		<g>
			<text fill="#595959" font-family="Verdana,sans-serif" font-weight="400" font-size="41" transform="matrix(1 0 0 1 3115.5 410)">306</text>
		</g>
		<g>
			<text fill="#595959" font-family="Verdana,sans-serif" font-weight="400" font-size="41" transform="matrix(1 0 0 1 3544.5 1321)">Week Commencing</text>
		</g>
		<g>
			<text fill="#595959" font-family="Verdana,sans-serif" font-weight="400" font-size="46" transform="matrix(6.12323e-17 -1 1 6.12323e-17 3019.73 1024.75)">Number of Crawler Profiles</text>
		</g>
		<rect x="2918.5" y="347.5" width="1760" height="1043" stroke="#D9D9D9" stroke-width="3.4375" stroke-linejoin="round" stroke-miterlimit="10" fill="none" />
		<g>
			<path d="M3228.5 1038 3249.86 1038 3271.22 1038 3292.58 1038 3313.94 1038 3335.3 1038 3356.66 1038 3378.02 1038 3399.38 1038 3420.74 1038 3442.1 1038 3463.46 1038 3484.82 1038 3506.18 1038 3527.54 1038 3548.9 1038 3570.26 1038 3591.62 1038 3612.98 1038 3634.34 1038 3655.7 1038 3677.06 1038 3698.42 1038 3719.7799999999997 1038 3741.14 1038 3762.5 1038 3783.86 1038 3805.2200000000003 1038 3826.58 1038 3847.94 1038 3869.3 1038 3890.66 1038 3912.02 1038 3933.38 1038 3954.74 1038 3976.1 1038 3997.46 1038 4018.8199999999997 1038 4040.18 1038 4061.54 1038 4082.9 1038 4104.26 1038 4125.62 1038 4146.98 1038 4168.34 1038 4189.7 1038 4211.0599999999995 1038 4232.42 1038 4253.78 1038 4275.139999999999 1038 4296.5 1038 4296.5 400.09150326797385 4275.139999999999 402.1830065359477 4253.78 402.1830065359477 4232.42 402.1830065359477 4211.0599999999995 406.3660130718954 4189.7 408.45751633986924 4168.34 414.7320261437908 4146.98 423.0980392156862 4125.62 435.6470588235294 4104.26 441.92156862745094 4082.9 441.92156862745094 4061.54 439.8300653594771 4040.18 444.0130718954248 4018.8199999999997 450.28758169934633 3997.46 458.65359477124184 3976.1 458.65359477124184 3954.74 460.7450980392157 3933.38 471.20261437908493 3912.02 475.38562091503263 3890.66 479.56862745098033 3869.3 479.56862745098033 3847.94 483.751633986928 3826.58 483.751633986928 3805.2200000000003 485.8431372549019 3783.86 487.93464052287584 3762.5 496.30065359477123 3741.14 502.5751633986928 3719.7799999999997 510.9411764705882 3698.42 517.2156862745097 3677.06 527.6732026143791 3655.7 531.8562091503268 3634.34 531.8562091503268 3612.98 531.8562091503268 3591.62 533.9477124183006 3570.26 538.1307189542483 3548.9 546.4967320261437 3527.54 550.6797385620914 3506.18 552.7712418300653 3484.82 552.7712418300653 3463.46 561.1372549019608 3442.1 561.1372549019608 3420.74 571.59477124183 3399.38 592.5098039215686 3378.02 596.6928104575163 3356.66 600.875816993464 3335.3 611.3333333333333 3313.94 613.4248366013071 3292.58 613.4248366013071 3271.22 615.516339869281 3249.86 619.6993464052287 3228.5 630.156862745098 3228.5 1038Z" fill="#005aa6" opacity="0.9" />
		</g>
		<g>
			<path d="M3228.5 630.156862745098 3249.86 619.6993464052287 3271.22 615.516339869281 3292.58 613.4248366013071 3313.94 613.4248366013071 3335.3 611.3333333333333 3356.66 600.875816993464 3378.02 596.6928104575163 3399.38 592.5098039215686 3420.74 571.59477124183 3442.1 561.1372549019608 3463.46 561.1372549019608 3484.82 552.7712418300653 3506.18 552.7712418300653 3527.54 550.6797385620914 3548.9 546.4967320261437 3570.26 538.1307189542483 3591.62 533.9477124183006 3612.98 531.8562091503268 3634.34 531.8562091503268 3655.7 531.8562091503268 3677.06 527.6732026143791 3698.42 517.2156862745097 3719.7799999999997 510.9411764705882 3741.14 502.5751633986928 3762.5 496.30065359477123 3783.86 487.93464052287584 3805.2200000000003 485.8431372549019 3826.58 483.751633986928 3847.94 483.751633986928 3869.3 479.56862745098033 3890.66 479.56862745098033 3912.02 475.38562091503263 3933.38 471.20261437908493 3954.74 460.7450980392157 3976.1 458.65359477124184 3997.46 458.65359477124184 4018.8199999999997 450.28758169934633 4040.18 444.0130718954248 4061.54 439.8300653594771 4082.9 441.92156862745094 4104.26 441.92156862745094 4125.62 435.6470588235294 4146.98 423.0980392156862 4168.34 414.7320261437908 4189.7 408.45751633986924 4211.0599999999995 406.3660130718954 4232.42 402.1830065359477 4253.78 402.1830065359477 4275.139999999999 402.1830065359477 4296.5 400.09150326797385 4296.5 398 4275.139999999999 400.09150326797385 4253.78 400.09150326797385 4232.42 400.09150326797385 4211.0599999999995 404.27450980392155 4189.7 406.3660130718954 4168.34 412.64052287581694 4146.98 421.00653594771234 4125.62 433.55555555555554 4104.26 439.8300653594771 4082.9 439.8300653594771 4061.54 437.73856209150324 4040.18 441.92156862745094 4018.8199999999997 448.1960784313725 3997.46 456.562091503268 3976.1 456.562091503268 3954.74 458.65359477124184 3933.38 469.1111111111111 3912.02 473.2941176470588 3890.66 477.4771241830065 3869.3 477.4771241830065 3847.94 481.6601307189542 3826.58 481.6601307189542 3805.2200000000003 483.751633986928 3783.86 485.843137254902 3762.5 494.2091503267974 3741.14 500.48366013071893 3719.7799999999997 508.8496732026143 3698.42 515.1241830065359 3677.06 525.5816993464052 3655.7 529.7647058823529 3634.34 529.7647058823529 3612.98 529.7647058823529 3591.62 531.8562091503268 3570.26 536.0392156862745 3548.9 544.4052287581699 3527.54 548.5882352941176 3506.18 550.6797385620914 3484.82 550.6797385620914 3463.46 559.0457516339869 3442.1 559.0457516339869 3420.74 569.5032679738562 3399.38 590.4183006535948 3378.02 594.6013071895425 3356.66 598.7843137254902 3335.3 609.2418300653594 3313.94 611.3333333333333 3292.58 611.3333333333333 3271.22 613.4248366013071 3249.86 617.6078431372548 3228.5 628.0653594771242 3228.5 630.156862745098Z" fill="#e62d39" opacity="0.9" />
		</g>
		<g>
			<rect x="4372" y="431" width="22.9995" height="23" fill="#005aa6" />
		</g>
		<g>
			<text fill="#595959" font-family="Verdana,sans-serif" font-weight="400" font-size="41" transform="matrix(1 0 0 1 4404.56 454)">Crawler</text>
		</g>
		<g>
			<rect x="4372" y="508" width="22.9995" height="23" fill="#e62d39" />
		</g>
		<g>
			<text fill="#595959" font-family="Verdana,sans-serif" font-weight="400" font-size="41" transform="matrix(1 0 0 1 4404.56 531)">Non-Crawler</text>
		</g>
	</g>
</svg>
