<svg width="1763" height="1046"
    xmlns="http://www.w3.org/2000/svg"
	xmlns:xlink="http://www.w3.org/1999/xlink" xml:space="preserve" overflow="hidden">
	<defs>
		<clipPath id="clip0">
			<rect x="2917" y="346" width="1763" height="1046"/>
		</clipPath>
	</defs>
	<g clip-path="url(#clip0)" transform="translate(-2917 -346)">
		<rect x="2918" y="347" width="1760" height="1043" fill="#FFFFFF" />
		<g>
			<path d="
			M3228.5 974.532 4296.5 974.532
			M3228.5 910.53 4296.5 910.53
			M3228.5 846.528 4296.5 846.528
			M3228.5 781.526 4296.5 781.526
			M3228.5 717.524 4296.5 717.524
			M3228.5 653.522 4296.5 653.522
			M3228.5 589.52 4296.5 589.52
			M3228.5 525.517 4296.5 525.517
			M3228.5 461.515 4296.5 461.515
			M3228.5 397.5 4296.5 397.5" stroke="#D9D9D9" stroke-width="3.4375" stroke-linejoin="round" stroke-miterlimit="10" fill="none" />
		</g>
		<g>
			<path d="M 1038.5 4296.5 1038.5" stroke="#D9D9D9" stroke-width="3.4375" stroke-linejoin="round" stroke-miterlimit="10" fill="none" fill-rule="evenodd" />
		</g>
		<g>
			<text fill="#595959" font-family="Verdana,Open Sans,DejaVu Sans,sans-serif" font-weight="400" font-size="41" transform="matrix(6.12323e-17 -1 1 6.12323e-17 3243.564697265625 1201.1401290893555)">21-Oct</text>
		</g>
		<g>
			<text fill="#595959" font-family="Verdana,Open Sans,DejaVu Sans,sans-serif" font-weight="400" font-size="41" transform="matrix(6.12323e-17 -1 1 6.12323e-17 3330.728351203763 1209.70849609375)">18-Nov</text>
		</g>
		<g>
			<text fill="#595959" font-family="Verdana,Open Sans,DejaVu Sans,sans-serif" font-weight="400" font-size="41" transform="matrix(6.12323e-17 -1 1 6.12323e-17 3417.9120246731504 1207.1259765625)">23-Dec</text>
		</g>
		<g>
			<text fill="#595959" font-family="Verdana,Open Sans,DejaVu Sans,sans-serif" font-weight="400" font-size="41" transform="matrix(6.12323e-17 -1 1 6.12323e-17 3508.7692821269134 1191.6909103393555)">20-Jan</text>
		</g>
		<g>
			<text fill="#595959" font-family="Verdana,Open Sans,DejaVu Sans,sans-serif" font-weight="400" font-size="41" transform="matrix(6.12323e-17 -1 1 6.12323e-17 3593.010084502551 1201.3203125)">17-Feb</text>
		</g>
		<g>
			<text fill="#595959" font-family="Verdana,Open Sans,DejaVu Sans,sans-serif" font-weight="400" font-size="41" transform="matrix(6.12323e-17 -1 1 6.12323e-17 3679.252840003189 1210.2890625)">17-Mar</text>
		</g>
		<g>
			<text fill="#595959" font-family="Verdana,Open Sans,DejaVu Sans,sans-serif" font-weight="400" font-size="41" transform="matrix(6.12323e-17 -1 1 6.12323e-17 3771.2412009725767 1201.5405197143555)">14-Apr</text>
		</g>
		<g>
			<text fill="#595959" font-family="Verdana,Open Sans,DejaVu Sans,sans-serif" font-weight="400" font-size="41" transform="matrix(6.12323e-17 -1 1 6.12323e-17 3858.555001395089 1214.75341796875)">12-May</text>
		</g>
		<g>
			<text fill="#595959" font-family="Verdana,Open Sans,DejaVu Sans,sans-serif" font-weight="400" font-size="41" transform="matrix(6.12323e-17 -1 1 6.12323e-17 3944.667629942602 1192.2914962768555)">16-Jun</text>
		</g>
		<g>
			<text fill="#595959" font-family="Verdana,Open Sans,DejaVu Sans,sans-serif" font-weight="400" font-size="41" transform="matrix(6.12323e-17 -1 1 6.12323e-17 4032.5820163026146 1177.2768478393555)">14-Jul</text>
		</g>
		<g>
			<text fill="#595959" font-family="Verdana,Open Sans,DejaVu Sans,sans-serif" font-weight="400" font-size="41" transform="matrix(6.12323e-17 -1 1 6.12323e-17 4119.955875318878 1206.90576171875)">11-Aug</text>
		</g>
		<g>
			<text fill="#595959" font-family="Verdana,Open Sans,DejaVu Sans,sans-serif" font-weight="400" font-size="41" transform="matrix(6.12323e-17 -1 1 6.12323e-17 4207.3097148038905 1204.38330078125)">08-Sep</text>
		</g>
		<g>
			<text fill="#595959" font-family="Verdana,Open Sans,DejaVu Sans,sans-serif" font-weight="400" font-size="41" transform="matrix(6.12323e-17 -1 1 6.12323e-17 4289.7687788982785 1201.1000900268555)">06-Oct</text>
		</g>
		<g>
			<text fill="#595959" font-family="Verdana,Open Sans,DejaVu Sans,sans-serif" font-weight="400" font-size="41" transform="matrix(1 0 0 1 3169.14111328125 1050)">0</text>
		</g>
		<g>
			<text fill="#595959" font-family="Verdana,Open Sans,DejaVu Sans,sans-serif" font-weight="400" font-size="41" transform="matrix(1 0 0 1 3146.03857421875 922)">67</text>
		</g>
		<g>
			<text fill="#595959" font-family="Verdana,Open Sans,DejaVu Sans,sans-serif" font-weight="400" font-size="41" transform="matrix(1 0 0 1 3122.755859375 794)">134</text>
		</g>
		<g>
			<text fill="#595959" font-family="Verdana,Open Sans,DejaVu Sans,sans-serif" font-weight="400" font-size="41" transform="matrix(1 0 0 1 3129.3022499084473 666)">201</text>
		</g>
		<g>
			<text fill="#595959" font-family="Verdana,Open Sans,DejaVu Sans,sans-serif" font-weight="400" font-size="41" transform="matrix(1 0 0 1 3122.29541015625 538)">268</text>
		</g>
		<g>
			<text fill="#595959" font-family="Verdana,Open Sans,DejaVu Sans,sans-serif" font-weight="400" font-size="41" transform="matrix(1 0 0 1 3122.41552734375 410)">335</text>
		</g>
		<g>
			<text fill="#595959" font-family="Verdana,Open Sans,DejaVu Sans,sans-serif" font-weight="400" font-size="41" transform="matrix(1 0 0 1 3556.97119140625 1321)">Week Commencing</text>
		</g>
		<g>
			<text fill="#595959" font-family="Verdana,Open Sans,DejaVu Sans,sans-serif" font-weight="400" font-size="46" transform="matrix(6.12323e-17 -1 1 6.12323e-17 3019.73 1005.4858093261719)">Number of Crawler Profiles</text>
		</g>
		<rect x="2918.5" y="347.5" width="1760" height="1043" stroke="#D9D9D9" stroke-width="3.4375" stroke-linejoin="round" stroke-miterlimit="10" fill="none" />
		<g>
			<path d="M3228.5 1038 3250.295918367347 1038 3272.091836734694 1038 3293.887755102041 1038 3315.683673469388 1038 3337.4795918367345 1038 3359.2755102040815 1038 3381.0714285714284 1038 3402.8673469387754 1038 3424.6632653061224 1038 3446.4591836734694 1038 3468.2551020408164 1038 3490.0510204081634 1038 3511.8469387755104 1038 3533.6428571428573 1038 3555.4387755102043 1038 3577.234693877551 1038 3599.030612244898 1038 3620.826530612245 1038 3642.622448979592 1038 3664.418367346939 1038 3686.214285714286 1038 3708.0102040816328 1038 3729.8061224489797 1038 3751.6020408163267 1038 3773.3979591836733 1038 3795.1938775510203 1038 3816.9897959183672 1038 3838.785714285714 1038 3860.581632653061 1038 3882.377551020408 1038 3904.173469387755 1038 3925.969387755102 1038 3947.765306122449 1038 3969.5612244897957 1038 3991.357142857143 1038 4013.1530612244896 1038 4034.9489795918366 1038 4056.7448979591836 1038 4078.5408163265306 1038 4100.336734693878 1038 4122.132653061224 1038 4143.928571428572 1038 4165.724489795918 1038 4187.5204081632655 1038 4209.316326530612 1038 4231.1122448979595 1038 4252.908163265306 1038 4274.7040816326535 1038 4296.5 1038 4296.5 399.91044776119406 4274.7040816326535 399.91044776119406 4252.908163265306 399.91044776119406 4231.1122448979595 407.5522388059702 4209.316326530612 407.5522388059702 4187.5204081632655 407.5522388059702 4165.724489795918 407.5522388059702 4143.928571428572 407.5522388059702 4122.132653061224 407.5522388059702 4100.336734693878 407.5522388059702 4078.5408163265306 407.5522388059702 4056.7448979591836 407.5522388059702 4034.9489795918366 409.46268656716416 4013.1530612244896 409.46268656716416 3991.357142857143 411.3731343283582 3969.5612244897957 411.3731343283582 3947.765306122449 420.9253731343284 3925.969387755102 422.8358208955224 3904.173469387755 422.8358208955224 3882.377551020408 426.6567164179105 3860.581632653061 428.56716417910445 3838.785714285714 434.29850746268653 3816.9897959183672 436.2089552238806 3795.1938775510203 438.11940298507466 3773.3979591836733 440.0298507462687 3751.6020408163267 440.0298507462687 3729.8061224489797 440.0298507462687 3708.0102040816328 441.94029850746267 3686.214285714286 441.94029850746267 3664.418367346939 441.94029850746267 3642.622448979592 443.85074626865674 3620.826530612245 443.85074626865674 3599.030612244898 445.7611940298508 3577.234693877551 445.7611940298508 3555.4387755102043 447.67164179104475 3533.6428571428573 449.5820895522388 3511.8469387755104 451.4925373134329 3490.0510204081634 451.4925373134329 3468.2551020408164 455.3134328358209 3446.4591836734694 457.22388059701495 3424.6632653061224 457.22388059701495 3402.8673469387754 457.22388059701495 3381.0714285714284 461.04477611940297 3359.2755102040815 462.95522388059703 3337.4795918367345 468.6865671641791 3315.683673469388 476.32835820895525 3293.887755102041 487.7910447761194 3272.091836734694 493.5223880597015 3250.295918367347 493.5223880597015 3228.5 491.6119402985074 3228.5 1038Z" fill="#005aa6" opacity="0.9" />
		</g>
		<g>
			<path d="M3228.5 491.6119402985074 3250.295918367347 493.5223880597015 3272.091836734694 493.5223880597015 3293.887755102041 487.7910447761194 3315.683673469388 476.32835820895525 3337.4795918367345 468.6865671641791 3359.2755102040815 462.95522388059703 3381.0714285714284 461.04477611940297 3402.8673469387754 457.22388059701495 3424.6632653061224 457.22388059701495 3446.4591836734694 457.22388059701495 3468.2551020408164 455.3134328358209 3490.0510204081634 451.4925373134329 3511.8469387755104 451.4925373134329 3533.6428571428573 449.5820895522388 3555.4387755102043 447.67164179104475 3577.234693877551 445.7611940298508 3599.030612244898 445.7611940298508 3620.826530612245 443.85074626865674 3642.622448979592 443.85074626865674 3664.418367346939 441.94029850746267 3686.214285714286 441.94029850746267 3708.0102040816328 441.94029850746267 3729.8061224489797 440.0298507462687 3751.6020408163267 440.0298507462687 3773.3979591836733 440.0298507462687 3795.1938775510203 438.11940298507466 3816.9897959183672 436.2089552238806 3838.785714285714 434.29850746268653 3860.581632653061 428.56716417910445 3882.377551020408 426.6567164179105 3904.173469387755 422.8358208955224 3925.969387755102 422.8358208955224 3947.765306122449 420.9253731343284 3969.5612244897957 411.3731343283582 3991.357142857143 411.3731343283582 4013.1530612244896 409.46268656716416 4034.9489795918366 409.46268656716416 4056.7448979591836 407.5522388059702 4078.5408163265306 407.5522388059702 4100.336734693878 407.5522388059702 4122.132653061224 407.5522388059702 4143.928571428572 407.5522388059702 4165.724489795918 407.5522388059702 4187.5204081632655 407.5522388059702 4209.316326530612 407.5522388059702 4231.1122448979595 407.5522388059702 4252.908163265306 399.91044776119406 4274.7040816326535 399.91044776119406 4296.5 399.91044776119406 4296.5 398.00000000000006 4274.7040816326535 398.00000000000006 4252.908163265306 398.00000000000006 4231.1122448979595 405.6417910447762 4209.316326530612 405.6417910447762 4187.5204081632655 405.6417910447762 4165.724489795918 405.6417910447762 4143.928571428572 405.6417910447762 4122.132653061224 405.6417910447762 4100.336734693878 405.6417910447762 4078.5408163265306 405.6417910447762 4056.7448979591836 405.6417910447762 4034.9489795918366 407.55223880597015 4013.1530612244896 407.55223880597015 3991.357142857143 409.4626865671642 3969.5612244897957 409.4626865671642 3947.765306122449 419.0149253731344 3925.969387755102 420.92537313432837 3904.173469387755 420.92537313432837 3882.377551020408 424.7462686567165 3860.581632653061 426.65671641791045 3838.785714285714 432.3880597014925 3816.9897959183672 434.2985074626866 3795.1938775510203 436.20895522388065 3773.3979591836733 438.1194029850747 3751.6020408163267 438.1194029850747 3729.8061224489797 438.1194029850747 3708.0102040816328 440.02985074626866 3686.214285714286 440.02985074626866 3664.418367346939 440.02985074626866 3642.622448979592 441.9402985074627 3620.826530612245 441.9402985074627 3599.030612244898 443.8507462686568 3577.234693877551 443.8507462686568 3555.4387755102043 445.76119402985074 3533.6428571428573 447.6716417910448 3511.8469387755104 449.58208955223887 3490.0510204081634 449.58208955223887 3468.2551020408164 453.4029850746269 3446.4591836734694 455.31343283582095 3424.6632653061224 455.31343283582095 3402.8673469387754 455.31343283582095 3381.0714285714284 459.13432835820896 3359.2755102040815 461.044776119403 3337.4795918367345 466.7761194029851 3315.683673469388 474.41791044776124 3293.887755102041 485.8805970149254 3272.091836734694 491.6119402985075 3250.295918367347 491.6119402985075 3228.5 489.7014925373134 3228.5 491.6119402985074Z" fill="#e62d39" opacity="0.9" />
		</g>
		<g>
			<rect x="4372" y="431" width="22.9995" height="23" fill="#005aa6" />
		</g>
		<g>
			<text fill="#595959" font-family="Verdana,Open Sans,DejaVu Sans,sans-serif" font-weight="400" font-size="41" transform="matrix(1 0 0 1 4404.56 454)">Crawler</text>
		</g>
		<g>
			<rect x="4372" y="508" width="22.9995" height="23" fill="#e62d39" />
		</g>
		<g>
			<text fill="#595959" font-family="Verdana,Open Sans,DejaVu Sans,sans-serif" font-weight="400" font-size="41" transform="matrix(1 0 0 1 4404.56 531)">Non-Crawler</text>
		</g>
	</g>
</svg>
