<svg width="1763" height="1046"
    xmlns="http://www.w3.org/2000/svg"
	xmlns:xlink="http://www.w3.org/1999/xlink" xml:space="preserve" overflow="hidden">
	<defs>
		<clipPath id="clip0">
			<rect x="2917" y="346" width="1763" height="1046"/>
		</clipPath>
	</defs>
	<g clip-path="url(#clip0)" transform="translate(-2917 -346)">
		<rect x="2918" y="347" width="1760" height="1043" fill="#FFFFFF" />
		<g>
			<path d="
			M3228.5 974.532 4296.5 974.532
			M3228.5 910.53 4296.5 910.53
			M3228.5 846.528 4296.5 846.528
			M3228.5 781.526 4296.5 781.526
			M3228.5 717.524 4296.5 717.524
			M3228.5 653.522 4296.5 653.522
			M3228.5 589.52 4296.5 589.52
			M3228.5 525.517 4296.5 525.517
			M3228.5 461.515 4296.5 461.515
			M3228.5 397.5 4296.5 397.5" stroke="#D9D9D9" stroke-width="3.4375" stroke-linejoin="round" stroke-miterlimit="10" fill="none" />
		</g>
		<g>
			<path d="M 1038.5 4296.5 1038.5" stroke="#D9D9D9" stroke-width="3.4375" stroke-linejoin="round" stroke-miterlimit="10" fill="none" fill-rule="evenodd" />
		</g>
		<g>
			<text fill="#595959" font-family="Verdana,Open Sans,DejaVu Sans,sans-serif" font-weight="400" font-size="41" transform="matrix(6.12323e-17 -1 1 6.12323e-17 3248.269287109375 1206.90576171875)">12-Aug</text>
		</g>
		<g>
			<text fill="#595959" font-family="Verdana,Open Sans,DejaVu Sans,sans-serif" font-weight="400" font-size="41" transform="matrix(6.12323e-17 -1 1 6.12323e-17 3335.472980110013 1204.38330078125)">09-Sep</text>
		</g>
		<g>
			<text fill="#595959" font-family="Verdana,Open Sans,DejaVu Sans,sans-serif" font-weight="400" font-size="41" transform="matrix(6.12323e-17 -1 1 6.12323e-17 3417.9320442044004 1201.1000900268555)">07-Oct</text>
		</g>
		<g>
			<text fill="#595959" font-family="Verdana,Open Sans,DejaVu Sans,sans-serif" font-weight="400" font-size="41" transform="matrix(6.12323e-17 -1 1 6.12323e-17 3505.1157176737884 1211.43017578125)">04-Nov</text>
		</g>
		<g>
			<text fill="#595959" font-family="Verdana,Open Sans,DejaVu Sans,sans-serif" font-weight="400" font-size="41" transform="matrix(6.12323e-17 -1 1 6.12323e-17 3592.299391143176 1207.0859375)">09-Dec</text>
		</g>
		<g>
			<text fill="#595959" font-family="Verdana,Open Sans,DejaVu Sans,sans-serif" font-weight="400" font-size="41" transform="matrix(6.12323e-17 -1 1 6.12323e-17 3683.136629065689 1191.6508712768555)">06-Jan</text>
		</g>
		<g>
			<text fill="#595959" font-family="Verdana,Open Sans,DejaVu Sans,sans-serif" font-weight="400" font-size="41" transform="matrix(6.12323e-17 -1 1 6.12323e-17 3767.3774314413267 1203.0419921875)">03-Feb</text>
		</g>
		<g>
			<text fill="#595959" font-family="Verdana,Open Sans,DejaVu Sans,sans-serif" font-weight="400" font-size="41" transform="matrix(6.12323e-17 -1 1 6.12323e-17 3853.850411551339 1212.0107421875)">03-Mar</text>
		</g>
		<g>
			<text fill="#595959" font-family="Verdana,Open Sans,DejaVu Sans,sans-serif" font-weight="400" font-size="41" transform="matrix(6.12323e-17 -1 1 6.12323e-17 3941.014065489477 1212.1708984375)">31-Mar</text>
		</g>
		<g>
			<text fill="#595959" font-family="Verdana,Open Sans,DejaVu Sans,sans-serif" font-weight="400" font-size="41" transform="matrix(6.12323e-17 -1 1 6.12323e-17 4032.9223483338646 1203.3022384643555)">28-Apr</text>
		</g>
		<g>
			<text fill="#595959" font-family="Verdana,Open Sans,DejaVu Sans,sans-serif" font-weight="400" font-size="41" transform="matrix(6.12323e-17 -1 1 6.12323e-17 4120.106021803253 1216.51513671875)">26-May</text>
		</g>
		<g>
			<text fill="#595959" font-family="Verdana,Open Sans,DejaVu Sans,sans-serif" font-weight="400" font-size="41" transform="matrix(6.12323e-17 -1 1 6.12323e-17 4206.2386698820155 1194.1733322143555)">30-Jun</text>
		</g>
		<g>
			<text fill="#595959" font-family="Verdana,Open Sans,DejaVu Sans,sans-serif" font-weight="400" font-size="41" transform="matrix(6.12323e-17 -1 1 6.12323e-17 4294.1330367107785 1179.0385665893555)">28-Jul</text>
		</g>
		<g>
			<text fill="#595959" font-family="Verdana,Open Sans,DejaVu Sans,sans-serif" font-weight="400" font-size="41" transform="matrix(1 0 0 1 3169.14111328125 1050)">0</text>
		</g>
		<g>
			<text fill="#595959" font-family="Verdana,Open Sans,DejaVu Sans,sans-serif" font-weight="400" font-size="41" transform="matrix(1 0 0 1 3145.95849609375 922)">66</text>
		</g>
		<g>
			<text fill="#595959" font-family="Verdana,Open Sans,DejaVu Sans,sans-serif" font-weight="400" font-size="41" transform="matrix(1 0 0 1 3124.13720703125 794)">132</text>
		</g>
		<g>
			<text fill="#595959" font-family="Verdana,Open Sans,DejaVu Sans,sans-serif" font-weight="400" font-size="41" transform="matrix(1 0 0 1 3124.13720703125 666)">199</text>
		</g>
		<g>
			<text fill="#595959" font-family="Verdana,Open Sans,DejaVu Sans,sans-serif" font-weight="400" font-size="41" transform="matrix(1 0 0 1 3122.53564453125 538)">265</text>
		</g>
		<g>
			<text fill="#595959" font-family="Verdana,Open Sans,DejaVu Sans,sans-serif" font-weight="400" font-size="41" transform="matrix(1 0 0 1 3129.1821327209473 410)">331</text>
		</g>
		<g>
			<text fill="#595959" font-family="Verdana,Open Sans,DejaVu Sans,sans-serif" font-weight="400" font-size="41" transform="matrix(1 0 0 1 3556.97119140625 1321)">Week Commencing</text>
		</g>
		<g>
			<text fill="#595959" font-family="Verdana,Open Sans,DejaVu Sans,sans-serif" font-weight="400" font-size="46" transform="matrix(6.12323e-17 -1 1 6.12323e-17 3019.73 1005.4858093261719)">Number of Crawler Profiles</text>
		</g>
		<rect x="2918.5" y="347.5" width="1760" height="1043" stroke="#D9D9D9" stroke-width="3.4375" stroke-linejoin="round" stroke-miterlimit="10" fill="none" />
		<g>
			<path d="M3228.5 1038 3250.295918367347 1038 3272.091836734694 1038 3293.887755102041 1038 3315.683673469388 1038 3337.4795918367345 1038 3359.2755102040815 1038 3381.0714285714284 1038 3402.8673469387754 1038 3424.6632653061224 1038 3446.4591836734694 1038 3468.2551020408164 1038 3490.0510204081634 1038 3511.8469387755104 1038 3533.6428571428573 1038 3555.4387755102043 1038 3577.234693877551 1038 3599.030612244898 1038 3620.826530612245 1038 3642.622448979592 1038 3664.418367346939 1038 3686.214285714286 1038 3708.0102040816328 1038 3729.8061224489797 1038 3751.6020408163267 1038 3773.3979591836733 1038 3795.1938775510203 1038 3816.9897959183672 1038 3838.785714285714 1038 3860.581632653061 1038 3882.377551020408 1038 3904.173469387755 1038 3925.969387755102 1038 3947.765306122449 1038 3969.5612244897957 1038 3991.357142857143 1038 4013.1530612244896 1038 4034.9489795918366 1038 4056.7448979591836 1038 4078.5408163265306 1038 4100.336734693878 1038 4122.132653061224 1038 4143.928571428572 1038 4165.724489795918 1038 4187.5204081632655 1038 4209.316326530612 1038 4231.1122448979595 1038 4252.908163265306 1038 4274.7040816326535 1038 4296.5 1038 4296.5 399.93353474320236 4274.7040816326535 399.93353474320236 4252.908163265306 401.86706948640483 4231.1122448979595 401.86706948640483 4209.316326530612 403.8006042296072 4187.5204081632655 403.8006042296072 4165.724489795918 413.4682779456193 4143.928571428572 415.4018126888217 4122.132653061224 415.4018126888217 4100.336734693878 419.2688821752265 4078.5408163265306 421.202416918429 4056.7448979591836 427.00302114803617 4034.9489795918366 428.93655589123864 4013.1530612244896 430.870090634441 3991.357142857143 432.80362537764347 3969.5612244897957 432.80362537764347 3947.765306122449 432.80362537764347 3925.969387755102 434.73716012084594 3904.173469387755 434.73716012084594 3882.377551020408 434.73716012084594 3860.581632653061 436.6706948640483 3838.785714285714 436.6706948640483 3816.9897959183672 438.6042296072508 3795.1938775510203 438.6042296072508 3773.3979591836733 440.53776435045313 3751.6020408163267 442.4712990936556 3729.8061224489797 444.40483383685796 3708.0102040816328 444.40483383685796 3686.214285714286 448.2719033232628 3664.418367346939 450.20543806646526 3642.622448979592 450.20543806646526 3620.826530612245 450.20543806646526 3599.030612244898 454.0725075528701 3577.234693877551 456.00604229607245 3555.4387755102043 461.80664652567975 3533.6428571428573 469.5407854984894 3511.8469387755104 481.1419939577039 3490.0510204081634 486.9425981873111 3468.2551020408164 486.9425981873111 3446.4591836734694 485.00906344410873 3424.6632653061224 488.87613293051356 3402.8673469387754 494.67673716012087 3381.0714285714284 502.4108761329305 3359.2755102040815 502.4108761329305 3337.4795918367345 504.3444108761329 3315.683673469388 514.012084592145 3293.887755102041 517.8791540785498 3272.091836734694 521.7462235649547 3250.295918367347 521.7462235649547 3228.5 525.6132930513595 3228.5 1038Z" fill="#005aa6" opacity="0.9" />
		</g>
		<g>
			<path d="M3228.5 525.6132930513595 3250.295918367347 521.7462235649547 3272.091836734694 521.7462235649547 3293.887755102041 517.8791540785498 3315.683673469388 514.012084592145 3337.4795918367345 504.3444108761329 3359.2755102040815 502.4108761329305 3381.0714285714284 502.4108761329305 3402.8673469387754 494.67673716012087 3424.6632653061224 488.87613293051356 3446.4591836734694 485.00906344410873 3468.2551020408164 486.9425981873111 3490.0510204081634 486.9425981873111 3511.8469387755104 481.1419939577039 3533.6428571428573 469.5407854984894 3555.4387755102043 461.80664652567975 3577.234693877551 456.00604229607245 3599.030612244898 454.0725075528701 3620.826530612245 450.20543806646526 3642.622448979592 450.20543806646526 3664.418367346939 450.20543806646526 3686.214285714286 448.2719033232628 3708.0102040816328 444.40483383685796 3729.8061224489797 444.40483383685796 3751.6020408163267 442.4712990936556 3773.3979591836733 440.53776435045313 3795.1938775510203 438.6042296072508 3816.9897959183672 438.6042296072508 3838.785714285714 436.6706948640483 3860.581632653061 436.6706948640483 3882.377551020408 434.73716012084594 3904.173469387755 434.73716012084594 3925.969387755102 434.73716012084594 3947.765306122449 432.80362537764347 3969.5612244897957 432.80362537764347 3991.357142857143 432.80362537764347 4013.1530612244896 430.870090634441 4034.9489795918366 428.93655589123864 4056.7448979591836 427.00302114803617 4078.5408163265306 421.202416918429 4100.336734693878 419.2688821752265 4122.132653061224 415.4018126888217 4143.928571428572 415.4018126888217 4165.724489795918 413.4682779456193 4187.5204081632655 403.8006042296072 4209.316326530612 403.8006042296072 4231.1122448979595 401.86706948640483 4252.908163265306 401.86706948640483 4274.7040816326535 399.93353474320236 4296.5 399.93353474320236 4296.5 397.99999999999994 4274.7040816326535 397.99999999999994 4252.908163265306 399.9335347432024 4231.1122448979595 399.9335347432024 4209.316326530612 401.8670694864048 4187.5204081632655 401.8670694864048 4165.724489795918 411.5347432024169 4143.928571428572 413.46827794561926 4122.132653061224 413.46827794561926 4100.336734693878 417.3353474320241 4078.5408163265306 419.26888217522657 4056.7448979591836 425.06948640483375 4034.9489795918366 427.0030211480362 4013.1530612244896 428.9365558912386 3991.357142857143 430.87009063444106 3969.5612244897957 430.87009063444106 3947.765306122449 430.87009063444106 3925.969387755102 432.8036253776435 3904.173469387755 432.8036253776435 3882.377551020408 432.8036253776435 3860.581632653061 434.7371601208459 3838.785714285714 434.7371601208459 3816.9897959183672 436.67069486404836 3795.1938775510203 436.67069486404836 3773.3979591836733 438.6042296072507 3751.6020408163267 440.5377643504532 3729.8061224489797 442.47129909365555 3708.0102040816328 442.47129909365555 3686.214285714286 446.3383685800604 3664.418367346939 448.27190332326285 3642.622448979592 448.27190332326285 3620.826530612245 448.27190332326285 3599.030612244898 452.1389728096677 3577.234693877551 454.07250755287004 3555.4387755102043 459.87311178247734 3533.6428571428573 467.607250755287 3511.8469387755104 479.2084592145015 3490.0510204081634 485.0090634441087 3468.2551020408164 485.0090634441087 3446.4591836734694 483.0755287009063 3424.6632653061224 486.94259818731115 3402.8673469387754 492.74320241691845 3381.0714285714284 500.4773413897281 3359.2755102040815 500.4773413897281 3337.4795918367345 502.41087613293047 3315.683673469388 512.0785498489425 3293.887755102041 515.9456193353474 3272.091836734694 519.8126888217522 3250.295918367347 519.8126888217522 3228.5 523.679758308157 3228.5 525.6132930513595Z" fill="#e62d39" opacity="0.9" />
		</g>
		<g>
			<rect x="4372" y="431" width="22.9995" height="23" fill="#005aa6" />
		</g>
		<g>
			<text fill="#595959" font-family="Verdana,Open Sans,DejaVu Sans,sans-serif" font-weight="400" font-size="41" transform="matrix(1 0 0 1 4404.56 454)">Crawler</text>
		</g>
		<g>
			<rect x="4372" y="508" width="22.9995" height="23" fill="#e62d39" />
		</g>
		<g>
			<text fill="#595959" font-family="Verdana,Open Sans,DejaVu Sans,sans-serif" font-weight="400" font-size="41" transform="matrix(1 0 0 1 4404.56 531)">Non-Crawler</text>
		</g>
	</g>
</svg>
