<svg width="1763" height="1046"
    xmlns="http://www.w3.org/2000/svg"
	xmlns:xlink="http://www.w3.org/1999/xlink" xml:space="preserve" overflow="hidden">
	<defs>
		<clipPath id="clip0">
			<rect x="2917" y="346" width="1763" height="1046"/>
		</clipPath>
	</defs>
	<g clip-path="url(#clip0)" transform="translate(-2917 -346)">
		<rect x="2918" y="347" width="1760" height="1043" fill="#FFFFFF" />
		<g>
			<path d="
			M3228.5 974.532 4296.5 974.532
			M3228.5 910.53 4296.5 910.53
			M3228.5 846.528 4296.5 846.528
			M3228.5 781.526 4296.5 781.526
			M3228.5 717.524 4296.5 717.524
			M3228.5 653.522 4296.5 653.522
			M3228.5 589.52 4296.5 589.52
			M3228.5 525.517 4296.5 525.517
			M3228.5 461.515 4296.5 461.515
			M3228.5 397.5 4296.5 397.5" stroke="#D9D9D9" stroke-width="3.4375" stroke-linejoin="round" stroke-miterlimit="10" fill="none" />
		</g>
		<g>
			<path d="M 1038.5 4296.5 1038.5" stroke="#D9D9D9" stroke-width="3.4375" stroke-linejoin="round" stroke-miterlimit="10" fill="none" fill-rule="evenodd" />
		</g>
		<g>
			<text fill="#595959" font-family="Verdana,sans-serif" font-weight="400" font-size="41" transform="matrix(6.12323e-17 -1 1 6.12323e-17 3244.5 1225)">06-Nov</text>
		</g>
		<g>
			<text fill="#595959" font-family="Verdana,sans-serif" font-weight="400" font-size="41" transform="matrix(6.12323e-17 -1 1 6.12323e-17 3318.155172413793 1224)">20-Nov</text>
		</g>
		<g>
			<text fill="#595959" font-family="Verdana,sans-serif" font-weight="400" font-size="41" transform="matrix(6.12323e-17 -1 1 6.12323e-17 3391.810344827586 1223)">04-Dec</text>
		</g>
		<g>
			<text fill="#595959" font-family="Verdana,sans-serif" font-weight="400" font-size="41" transform="matrix(6.12323e-17 -1 1 6.12323e-17 3465.4655172413795 1220)">18-Dec</text>
		</g>
		<g>
			<text fill="#595959" font-family="Verdana,sans-serif" font-weight="400" font-size="41" transform="matrix(6.12323e-17 -1 1 6.12323e-17 3539.1206896551726 1210)">01-Jan</text>
		</g>
		<g>
			<text fill="#595959" font-family="Verdana,sans-serif" font-weight="400" font-size="41" transform="matrix(6.12323e-17 -1 1 6.12323e-17 3612.2758620689656 1207)">15-Jan</text>
		</g>
		<g>
			<text fill="#595959" font-family="Verdana,sans-serif" font-weight="400" font-size="41" transform="matrix(6.12323e-17 -1 1 6.12323e-17 3686.4310344827586 1210)">29-Jan</text>
		</g>
		<g>
			<text fill="#595959" font-family="Verdana,sans-serif" font-weight="400" font-size="41" transform="matrix(6.12323e-17 -1 1 6.12323e-17 3760.0862068965516 1214)">12-Feb</text>
		</g>
		<g>
			<text fill="#595959" font-family="Verdana,sans-serif" font-weight="400" font-size="41" transform="matrix(6.12323e-17 -1 1 6.12323e-17 3833.741379310345 1216)">26-Feb</text>
		</g>
		<g>
			<text fill="#595959" font-family="Verdana,sans-serif" font-weight="400" font-size="41" transform="matrix(6.12323e-17 -1 1 6.12323e-17 3906.896551724138 1221)">11-Mar</text>
		</g>
		<g>
			<text fill="#595959" font-family="Verdana,sans-serif" font-weight="400" font-size="41" transform="matrix(6.12323e-17 -1 1 6.12323e-17 3981.051724137931 1223)">25-Mar</text>
		</g>
		<g>
			<text fill="#595959" font-family="Verdana,sans-serif" font-weight="400" font-size="41" transform="matrix(6.12323e-17 -1 1 6.12323e-17 4058.206896551724 1217)">08-Apr</text>
		</g>
		<g>
			<text fill="#595959" font-family="Verdana,sans-serif" font-weight="400" font-size="41" transform="matrix(6.12323e-17 -1 1 6.12323e-17 4131.862068965517 1216)">22-Apr</text>
		</g>
		<g>
			<text fill="#595959" font-family="Verdana,sans-serif" font-weight="400" font-size="41" transform="matrix(6.12323e-17 -1 1 6.12323e-17 4205.517241379311 1228)">06-May</text>
		</g>
		<g>
			<text fill="#595959" font-family="Verdana,sans-serif" font-weight="400" font-size="41" transform="matrix(6.12323e-17 -1 1 6.12323e-17 4279.172413793103 1228)">20-May</text>
		</g>
		<g>
			<text fill="#595959" font-family="Verdana,sans-serif" font-weight="400" font-size="41" transform="matrix(1 0 0 1 3167.5 1050)">0</text>
		</g>
		<g>
			<text fill="#595959" font-family="Verdana,sans-serif" font-weight="400" font-size="41" transform="matrix(1 0 0 1 3140.5 922)">49</text>
		</g>
		<g>
			<text fill="#595959" font-family="Verdana,sans-serif" font-weight="400" font-size="41" transform="matrix(1 0 0 1 3140.5 794)">97</text>
		</g>
		<g>
			<text fill="#595959" font-family="Verdana,sans-serif" font-weight="400" font-size="41" transform="matrix(1 0 0 1 3117.5 666)">146</text>
		</g>
		<g>
			<text fill="#595959" font-family="Verdana,sans-serif" font-weight="400" font-size="41" transform="matrix(1 0 0 1 3117.5 538)">194</text>
		</g>
		<g>
			<text fill="#595959" font-family="Verdana,sans-serif" font-weight="400" font-size="41" transform="matrix(1 0 0 1 3116.5 410)">243</text>
		</g>
		<g>
			<text fill="#595959" font-family="Verdana,sans-serif" font-weight="400" font-size="41" transform="matrix(1 0 0 1 3544.5 1321)">Week Commencing</text>
		</g>
		<g>
			<text fill="#595959" font-family="Verdana,sans-serif" font-weight="400" font-size="46" transform="matrix(6.12323e-17 -1 1 6.12323e-17 3019.73 1024.75)">Number of Crawler Profiles</text>
		</g>
		<rect x="2918.5" y="347.5" width="1760" height="1043" stroke="#D9D9D9" stroke-width="3.4375" stroke-linejoin="round" stroke-miterlimit="10" fill="none" />
		<g>
			<path d="M3228.5 1038 3265.3275862068967 1038 3302.155172413793 1038 3338.9827586206898 1038 3375.810344827586 1038 3412.637931034483 1038 3449.4655172413795 1038 3486.293103448276 1038 3523.1206896551726 1038 3559.948275862069 1038 3596.7758620689656 1038 3633.6034482758623 1038 3670.4310344827586 1038 3707.2586206896553 1038 3744.0862068965516 1038 3780.9137931034484 1038 3817.741379310345 1038 3854.5689655172414 1038 3891.396551724138 1038 3928.2241379310344 1038 3965.051724137931 1038 4001.879310344828 1038 4038.706896551724 1038 4075.534482758621 1038 4112.362068965517 1038 4149.189655172414 1038 4186.017241379311 1038 4222.8448275862065 1038 4259.672413793103 1038 4296.5 1038 4296.5 400.63374485596705 4259.672413793103 403.2674897119341 4222.8448275862065 408.5349794238683 4186.017241379311 419.06995884773664 4149.189655172414 424.33744855967075 4112.362068965517 426.9711934156379 4075.534482758621 426.9711934156379 4038.706896551724 437.5061728395061 4001.879310344828 437.5061728395061 3965.051724137931 450.6748971193416 3928.2241379310344 477.01234567901236 3891.396551724138 482.27983539094646 3854.5689655172414 487.5473251028807 3817.741379310345 500.71604938271605 3780.9137931034484 503.3497942386831 3744.0862068965516 503.3497942386831 3707.2586206896553 505.98353909465015 3670.4310344827586 511.2510288065844 3633.6034482758623 524.4197530864197 3596.7758620689656 527.0534979423869 3559.948275862069 527.0534979423869 3523.1206896551726 532.320987654321 3486.293103448276 532.320987654321 3449.4655172413795 532.320987654321 3412.637931034483 532.320987654321 3375.810344827586 532.320987654321 3338.9827586206898 534.9547325102881 3302.155172413793 534.9547325102881 3265.3275862068967 534.9547325102881 3228.5 534.9547325102881 3228.5 1038Z" fill="#005aa6" opacity="0.9" />
		</g>
		<g>
			<path d="M3228.5 534.9547325102881 3265.3275862068967 534.9547325102881 3302.155172413793 534.9547325102881 3338.9827586206898 534.9547325102881 3375.810344827586 532.320987654321 3412.637931034483 532.320987654321 3449.4655172413795 532.320987654321 3486.293103448276 532.320987654321 3523.1206896551726 532.320987654321 3559.948275862069 527.0534979423869 3596.7758620689656 527.0534979423869 3633.6034482758623 524.4197530864197 3670.4310344827586 511.2510288065844 3707.2586206896553 505.98353909465015 3744.0862068965516 503.3497942386831 3780.9137931034484 503.3497942386831 3817.741379310345 500.71604938271605 3854.5689655172414 487.5473251028807 3891.396551724138 482.27983539094646 3928.2241379310344 477.01234567901236 3965.051724137931 450.6748971193416 4001.879310344828 437.5061728395061 4038.706896551724 437.5061728395061 4075.534482758621 426.9711934156379 4112.362068965517 426.9711934156379 4149.189655172414 424.33744855967075 4186.017241379311 419.06995884773664 4222.8448275862065 408.5349794238683 4259.672413793103 403.2674897119341 4296.5 400.63374485596705 4296.5 398 4259.672413793103 400.63374485596705 4222.8448275862065 405.90123456790127 4186.017241379311 416.4362139917696 4149.189655172414 421.7037037037037 4112.362068965517 424.33744855967086 4075.534482758621 424.33744855967086 4038.706896551724 434.87242798353907 4001.879310344828 434.87242798353907 3965.051724137931 448.04115226337456 3928.2241379310344 474.3786008230453 3891.396551724138 479.6460905349794 3854.5689655172414 484.9135802469136 3817.741379310345 498.082304526749 3780.9137931034484 500.71604938271605 3744.0862068965516 500.71604938271605 3707.2586206896553 503.3497942386831 3670.4310344827586 508.6172839506173 3633.6034482758623 521.7860082304527 3596.7758620689656 524.4197530864199 3559.948275862069 524.4197530864199 3523.1206896551726 529.687242798354 3486.293103448276 529.687242798354 3449.4655172413795 529.687242798354 3412.637931034483 529.687242798354 3375.810344827586 529.687242798354 3338.9827586206898 532.320987654321 3302.155172413793 532.320987654321 3265.3275862068967 532.320987654321 3228.5 532.320987654321 3228.5 534.9547325102881Z" fill="#e62d39" opacity="0.9" />
		</g>
		<g>
			<rect x="4372" y="431" width="22.9995" height="23" fill="#005aa6" />
		</g>
		<g>
			<text fill="#595959" font-family="Verdana,sans-serif" font-weight="400" font-size="41" transform="matrix(1 0 0 1 4404.56 454)">Crawler</text>
		</g>
		<g>
			<rect x="4372" y="508" width="22.9995" height="23" fill="#e62d39" />
		</g>
		<g>
			<text fill="#595959" font-family="Verdana,sans-serif" font-weight="400" font-size="41" transform="matrix(1 0 0 1 4404.56 531)">Non-Crawler</text>
		</g>
	</g>
</svg>
