<svg width="1763" height="1046"
    xmlns="http://www.w3.org/2000/svg"
	xmlns:xlink="http://www.w3.org/1999/xlink" xml:space="preserve" overflow="hidden">
	<defs>
		<clipPath id="clip0">
			<rect x="2917" y="346" width="1763" height="1046"/>
		</clipPath>
	</defs>
	<g clip-path="url(#clip0)" transform="translate(-2917 -346)">
		<rect x="2918" y="347" width="1760" height="1043" fill="#FFFFFF" />
		<g>
			<path d="
			M3228.5 974.532 4296.5 974.532
			M3228.5 910.53 4296.5 910.53
			M3228.5 846.528 4296.5 846.528
			M3228.5 781.526 4296.5 781.526
			M3228.5 717.524 4296.5 717.524
			M3228.5 653.522 4296.5 653.522
			M3228.5 589.52 4296.5 589.52
			M3228.5 525.517 4296.5 525.517
			M3228.5 461.515 4296.5 461.515
			M3228.5 397.5 4296.5 397.5" stroke="#D9D9D9" stroke-width="3.4375" stroke-linejoin="round" stroke-miterlimit="10" fill="none" />
		</g>
		<g>
			<path d="M 1038.5 4296.5 1038.5" stroke="#D9D9D9" stroke-width="3.4375" stroke-linejoin="round" stroke-miterlimit="10" fill="none" fill-rule="evenodd" />
		</g>
		<g>
			<text fill="#595959" font-family="Verdana,Open Sans,DejaVu Sans,sans-serif" font-weight="400" font-size="41" transform="matrix(6.12323e-17 -1 1 6.12323e-17 3247.928955078125 1179.0385665893555)">29-Jul</text>
		</g>
		<g>
			<text fill="#595959" font-family="Verdana,Open Sans,DejaVu Sans,sans-serif" font-weight="400" font-size="41" transform="matrix(6.12323e-17 -1 1 6.12323e-17 3333.709287109375 1208.66748046875)">26-Aug</text>
		</g>
		<g>
			<text fill="#595959" font-family="Verdana,Open Sans,DejaVu Sans,sans-serif" font-weight="400" font-size="41" transform="matrix(6.12323e-17 -1 1 6.12323e-17 3419.149287109375 1204.42333984375)">23-Sep</text>
		</g>
		<g>
			<text fill="#595959" font-family="Verdana,Open Sans,DejaVu Sans,sans-serif" font-weight="400" font-size="41" transform="matrix(6.12323e-17 -1 1 6.12323e-17 3499.884697265625 1201.1401290893555)">21-Oct</text>
		</g>
		<g>
			<text fill="#595959" font-family="Verdana,Open Sans,DejaVu Sans,sans-serif" font-weight="400" font-size="41" transform="matrix(6.12323e-17 -1 1 6.12323e-17 3585.304677734375 1209.70849609375)">18-Nov</text>
		</g>
		<g>
			<text fill="#595959" font-family="Verdana,Open Sans,DejaVu Sans,sans-serif" font-weight="400" font-size="41" transform="matrix(6.12323e-17 -1 1 6.12323e-17 3670.744677734375 1207.1259765625)">23-Dec</text>
		</g>
		<g>
			<text fill="#595959" font-family="Verdana,Open Sans,DejaVu Sans,sans-serif" font-weight="400" font-size="41" transform="matrix(6.12323e-17 -1 1 6.12323e-17 3759.85826171875 1191.6909103393555)">20-Jan</text>
		</g>
		<g>
			<text fill="#595959" font-family="Verdana,Open Sans,DejaVu Sans,sans-serif" font-weight="400" font-size="41" transform="matrix(6.12323e-17 -1 1 6.12323e-17 3842.355390625 1201.3203125)">17-Feb</text>
		</g>
		<g>
			<text fill="#595959" font-family="Verdana,Open Sans,DejaVu Sans,sans-serif" font-weight="400" font-size="41" transform="matrix(6.12323e-17 -1 1 6.12323e-17 3926.85447265625 1210.2890625)">17-Mar</text>
		</g>
		<g>
			<text fill="#595959" font-family="Verdana,Open Sans,DejaVu Sans,sans-serif" font-weight="400" font-size="41" transform="matrix(6.12323e-17 -1 1 6.12323e-17 4017.09916015625 1201.5405197143555)">14-Apr</text>
		</g>
		<g>
			<text fill="#595959" font-family="Verdana,Open Sans,DejaVu Sans,sans-serif" font-weight="400" font-size="41" transform="matrix(6.12323e-17 -1 1 6.12323e-17 4102.669287109375 1214.75341796875)">12-May</text>
		</g>
		<g>
			<text fill="#595959" font-family="Verdana,Open Sans,DejaVu Sans,sans-serif" font-weight="400" font-size="41" transform="matrix(6.12323e-17 -1 1 6.12323e-17 4187.0382421875 1192.2914962768555)">16-Jun</text>
		</g>
		<g>
			<text fill="#595959" font-family="Verdana,Open Sans,DejaVu Sans,sans-serif" font-weight="400" font-size="41" transform="matrix(6.12323e-17 -1 1 6.12323e-17 4273.208955078125 1177.2768478393555)">14-Jul</text>
		</g>
		<g>
			<text fill="#595959" font-family="Verdana,Open Sans,DejaVu Sans,sans-serif" font-weight="400" font-size="41" transform="matrix(1 0 0 1 3169.14111328125 1050)">0</text>
		</g>
		<g>
			<text fill="#595959" font-family="Verdana,Open Sans,DejaVu Sans,sans-serif" font-weight="400" font-size="41" transform="matrix(1 0 0 1 3145.95849609375 922)">66</text>
		</g>
		<g>
			<text fill="#595959" font-family="Verdana,Open Sans,DejaVu Sans,sans-serif" font-weight="400" font-size="41" transform="matrix(1 0 0 1 3124.13720703125 794)">132</text>
		</g>
		<g>
			<text fill="#595959" font-family="Verdana,Open Sans,DejaVu Sans,sans-serif" font-weight="400" font-size="41" transform="matrix(1 0 0 1 3124.13720703125 666)">199</text>
		</g>
		<g>
			<text fill="#595959" font-family="Verdana,Open Sans,DejaVu Sans,sans-serif" font-weight="400" font-size="41" transform="matrix(1 0 0 1 3122.53564453125 538)">265</text>
		</g>
		<g>
			<text fill="#595959" font-family="Verdana,Open Sans,DejaVu Sans,sans-serif" font-weight="400" font-size="41" transform="matrix(1 0 0 1 3129.1821327209473 410)">331</text>
		</g>
		<g>
			<text fill="#595959" font-family="Verdana,Open Sans,DejaVu Sans,sans-serif" font-weight="400" font-size="41" transform="matrix(1 0 0 1 3556.97119140625 1321)">Week Commencing</text>
		</g>
		<g>
			<text fill="#595959" font-family="Verdana,Open Sans,DejaVu Sans,sans-serif" font-weight="400" font-size="46" transform="matrix(6.12323e-17 -1 1 6.12323e-17 3019.73 1005.4858093261719)">Number of Crawler Profiles</text>
		</g>
		<rect x="2918.5" y="347.5" width="1760" height="1043" stroke="#D9D9D9" stroke-width="3.4375" stroke-linejoin="round" stroke-miterlimit="10" fill="none" />
		<g>
			<path d="M3228.5 1038 3249.86 1038 3271.22 1038 3292.58 1038 3313.94 1038 3335.3 1038 3356.66 1038 3378.02 1038 3399.38 1038 3420.74 1038 3442.1 1038 3463.46 1038 3484.82 1038 3506.18 1038 3527.54 1038 3548.9 1038 3570.26 1038 3591.62 1038 3612.98 1038 3634.34 1038 3655.7 1038 3677.06 1038 3698.42 1038 3719.7799999999997 1038 3741.14 1038 3762.5 1038 3783.86 1038 3805.2200000000003 1038 3826.58 1038 3847.94 1038 3869.3 1038 3890.66 1038 3912.02 1038 3933.38 1038 3954.74 1038 3976.1 1038 3997.46 1038 4018.8199999999997 1038 4040.18 1038 4061.54 1038 4082.9 1038 4104.26 1038 4125.62 1038 4146.98 1038 4168.34 1038 4189.7 1038 4211.0599999999995 1038 4232.42 1038 4253.78 1038 4275.139999999999 1038 4296.5 1038 4296.5 399.93353474320236 4275.139999999999 401.86706948640483 4253.78 401.86706948640483 4232.42 403.8006042296072 4211.0599999999995 403.8006042296072 4189.7 413.4682779456193 4168.34 415.4018126888217 4146.98 415.4018126888217 4125.62 419.2688821752265 4104.26 421.202416918429 4082.9 427.00302114803617 4061.54 428.93655589123864 4040.18 430.870090634441 4018.8199999999997 432.80362537764347 3997.46 432.80362537764347 3976.1 432.80362537764347 3954.74 434.73716012084594 3933.38 434.73716012084594 3912.02 434.73716012084594 3890.66 436.6706948640483 3869.3 436.6706948640483 3847.94 438.6042296072508 3826.58 438.6042296072508 3805.2200000000003 440.53776435045313 3783.86 442.4712990936556 3762.5 444.40483383685796 3741.14 444.40483383685796 3719.7799999999997 448.2719033232628 3698.42 450.20543806646526 3677.06 450.20543806646526 3655.7 450.20543806646526 3634.34 454.0725075528701 3612.98 456.00604229607245 3591.62 461.80664652567975 3570.26 469.5407854984894 3548.9 481.1419939577039 3527.54 486.9425981873111 3506.18 486.9425981873111 3484.82 485.00906344410873 3463.46 488.87613293051356 3442.1 494.67673716012087 3420.74 502.4108761329305 3399.38 502.4108761329305 3378.02 504.3444108761329 3356.66 514.012084592145 3335.3 517.8791540785498 3313.94 521.7462235649547 3292.58 521.7462235649547 3271.22 525.6132930513595 3249.86 525.6132930513595 3228.5 527.546827794562 3228.5 1038Z" fill="#005aa6" opacity="0.9" />
		</g>
		<g>
			<path d="M3228.5 527.546827794562 3249.86 525.6132930513595 3271.22 525.6132930513595 3292.58 521.7462235649547 3313.94 521.7462235649547 3335.3 517.8791540785498 3356.66 514.012084592145 3378.02 504.3444108761329 3399.38 502.4108761329305 3420.74 502.4108761329305 3442.1 494.67673716012087 3463.46 488.87613293051356 3484.82 485.00906344410873 3506.18 486.9425981873111 3527.54 486.9425981873111 3548.9 481.1419939577039 3570.26 469.5407854984894 3591.62 461.80664652567975 3612.98 456.00604229607245 3634.34 454.0725075528701 3655.7 450.20543806646526 3677.06 450.20543806646526 3698.42 450.20543806646526 3719.7799999999997 448.2719033232628 3741.14 444.40483383685796 3762.5 444.40483383685796 3783.86 442.4712990936556 3805.2200000000003 440.53776435045313 3826.58 438.6042296072508 3847.94 438.6042296072508 3869.3 436.6706948640483 3890.66 436.6706948640483 3912.02 434.73716012084594 3933.38 434.73716012084594 3954.74 434.73716012084594 3976.1 432.80362537764347 3997.46 432.80362537764347 4018.8199999999997 432.80362537764347 4040.18 430.870090634441 4061.54 428.93655589123864 4082.9 427.00302114803617 4104.26 421.202416918429 4125.62 419.2688821752265 4146.98 415.4018126888217 4168.34 415.4018126888217 4189.7 413.4682779456193 4211.0599999999995 403.8006042296072 4232.42 403.8006042296072 4253.78 401.86706948640483 4275.139999999999 401.86706948640483 4296.5 399.93353474320236 4296.5 397.99999999999994 4275.139999999999 399.9335347432024 4253.78 399.9335347432024 4232.42 401.8670694864048 4211.0599999999995 401.8670694864048 4189.7 411.5347432024169 4168.34 413.46827794561926 4146.98 413.46827794561926 4125.62 417.3353474320241 4104.26 419.26888217522657 4082.9 425.06948640483375 4061.54 427.0030211480362 4040.18 428.9365558912386 4018.8199999999997 430.87009063444106 3997.46 430.87009063444106 3976.1 430.87009063444106 3954.74 432.8036253776435 3933.38 432.8036253776435 3912.02 432.8036253776435 3890.66 434.7371601208459 3869.3 434.7371601208459 3847.94 436.67069486404836 3826.58 436.67069486404836 3805.2200000000003 438.6042296072507 3783.86 440.5377643504532 3762.5 442.47129909365555 3741.14 442.47129909365555 3719.7799999999997 446.3383685800604 3698.42 448.27190332326285 3677.06 448.27190332326285 3655.7 448.27190332326285 3634.34 452.1389728096677 3612.98 454.07250755287004 3591.62 459.87311178247734 3570.26 467.607250755287 3548.9 479.2084592145015 3527.54 485.0090634441087 3506.18 485.0090634441087 3484.82 483.0755287009063 3463.46 486.94259818731115 3442.1 492.74320241691845 3420.74 500.4773413897281 3399.38 500.4773413897281 3378.02 502.41087613293047 3356.66 512.0785498489425 3335.3 515.9456193353474 3313.94 519.8126888217522 3292.58 519.8126888217522 3271.22 523.679758308157 3249.86 523.679758308157 3228.5 525.6132930513595 3228.5 527.546827794562Z" fill="#e62d39" opacity="0.9" />
		</g>
		<g>
			<rect x="4372" y="431" width="22.9995" height="23" fill="#005aa6" />
		</g>
		<g>
			<text fill="#595959" font-family="Verdana,Open Sans,DejaVu Sans,sans-serif" font-weight="400" font-size="41" transform="matrix(1 0 0 1 4404.56 454)">Crawler</text>
		</g>
		<g>
			<rect x="4372" y="508" width="22.9995" height="23" fill="#e62d39" />
		</g>
		<g>
			<text fill="#595959" font-family="Verdana,Open Sans,DejaVu Sans,sans-serif" font-weight="400" font-size="41" transform="matrix(1 0 0 1 4404.56 531)">Non-Crawler</text>
		</g>
	</g>
</svg>
