<svg width="1763" height="1046"
    xmlns="http://www.w3.org/2000/svg"
	xmlns:xlink="http://www.w3.org/1999/xlink" xml:space="preserve" overflow="hidden">
	<defs>
		<clipPath id="clip0">
			<rect x="2917" y="346" width="1763" height="1046"/>
		</clipPath>
	</defs>
	<g clip-path="url(#clip0)" transform="translate(-2917 -346)">
		<rect x="2918" y="347" width="1760" height="1043" fill="#FFFFFF" />
		<g>
			<path d="
			M3228.5 974.532 4296.5 974.532
			M3228.5 910.53 4296.5 910.53
			M3228.5 846.528 4296.5 846.528
			M3228.5 781.526 4296.5 781.526
			M3228.5 717.524 4296.5 717.524
			M3228.5 653.522 4296.5 653.522
			M3228.5 589.52 4296.5 589.52
			M3228.5 525.517 4296.5 525.517
			M3228.5 461.515 4296.5 461.515
			M3228.5 397.5 4296.5 397.5" stroke="#D9D9D9" stroke-width="3.4375" stroke-linejoin="round" stroke-miterlimit="10" fill="none" />
		</g>
		<g>
			<path d="M 1038.5 4296.5 1038.5" stroke="#D9D9D9" stroke-width="3.4375" stroke-linejoin="round" stroke-miterlimit="10" fill="none" fill-rule="evenodd" />
		</g>
		<g>
			<text fill="#595959" font-family="Verdana,sans-serif" font-weight="400" font-size="41" transform="matrix(6.12323e-17 -1 1 6.12323e-17 3244 1207)">15-Jan</text>
		</g>
		<g>
			<text fill="#595959" font-family="Verdana,sans-serif" font-weight="400" font-size="41" transform="matrix(6.12323e-17 -1 1 6.12323e-17 3329.94 1214)">12-Feb</text>
		</g>
		<g>
			<text fill="#595959" font-family="Verdana,sans-serif" font-weight="400" font-size="41" transform="matrix(6.12323e-17 -1 1 6.12323e-17 3414.88 1221)">11-Mar</text>
		</g>
		<g>
			<text fill="#595959" font-family="Verdana,sans-serif" font-weight="400" font-size="41" transform="matrix(6.12323e-17 -1 1 6.12323e-17 3504.32 1217)">08-Apr</text>
		</g>
		<g>
			<text fill="#595959" font-family="Verdana,sans-serif" font-weight="400" font-size="41" transform="matrix(6.12323e-17 -1 1 6.12323e-17 3589.76 1228)">06-May</text>
		</g>
		<g>
			<text fill="#595959" font-family="Verdana,sans-serif" font-weight="400" font-size="41" transform="matrix(6.12323e-17 -1 1 6.12323e-17 3671.7 1211)">03-Jun</text>
		</g>
		<g>
			<text fill="#595959" font-family="Verdana,sans-serif" font-weight="400" font-size="41" transform="matrix(6.12323e-17 -1 1 6.12323e-17 3757.14 1197)">01-Jul</text>
		</g>
		<g>
			<text fill="#595959" font-family="Verdana,sans-serif" font-weight="400" font-size="41" transform="matrix(6.12323e-17 -1 1 6.12323e-17 3842.58 1196)">29-Jul</text>
		</g>
		<g>
			<text fill="#595959" font-family="Verdana,sans-serif" font-weight="400" font-size="41" transform="matrix(6.12323e-17 -1 1 6.12323e-17 3931.52 1221)">26-Aug</text>
		</g>
		<g>
			<text fill="#595959" font-family="Verdana,sans-serif" font-weight="400" font-size="41" transform="matrix(6.12323e-17 -1 1 6.12323e-17 4016.96 1221)">23-Sep</text>
		</g>
		<g>
			<text fill="#595959" font-family="Verdana,sans-serif" font-weight="400" font-size="41" transform="matrix(6.12323e-17 -1 1 6.12323e-17 4098.9 1215)">21-Oct</text>
		</g>
		<g>
			<text fill="#595959" font-family="Verdana,sans-serif" font-weight="400" font-size="41" transform="matrix(6.12323e-17 -1 1 6.12323e-17 4184.34 1222)">18-Nov</text>
		</g>
		<g>
			<text fill="#595959" font-family="Verdana,sans-serif" font-weight="400" font-size="41" transform="matrix(6.12323e-17 -1 1 6.12323e-17 4269.78 1222)">23-Dec</text>
		</g>
		<g>
			<text fill="#595959" font-family="Verdana,sans-serif" font-weight="400" font-size="41" transform="matrix(1 0 0 1 3167.5 1050)">0</text>
		</g>
		<g>
			<text fill="#595959" font-family="Verdana,sans-serif" font-weight="400" font-size="41" transform="matrix(1 0 0 1 3142.5 922)">61</text>
		</g>
		<g>
			<text fill="#595959" font-family="Verdana,sans-serif" font-weight="400" font-size="41" transform="matrix(1 0 0 1 3118.5 794)">122</text>
		</g>
		<g>
			<text fill="#595959" font-family="Verdana,sans-serif" font-weight="400" font-size="41" transform="matrix(1 0 0 1 3118.5 666)">183</text>
		</g>
		<g>
			<text fill="#595959" font-family="Verdana,sans-serif" font-weight="400" font-size="41" transform="matrix(1 0 0 1 3115.5 538)">244</text>
		</g>
		<g>
			<text fill="#595959" font-family="Verdana,sans-serif" font-weight="400" font-size="41" transform="matrix(1 0 0 1 3116.5 410)">305</text>
		</g>
		<g>
			<text fill="#595959" font-family="Verdana,sans-serif" font-weight="400" font-size="41" transform="matrix(1 0 0 1 3544.5 1321)">Week Commencing</text>
		</g>
		<g>
			<text fill="#595959" font-family="Verdana,sans-serif" font-weight="400" font-size="46" transform="matrix(6.12323e-17 -1 1 6.12323e-17 3019.73 1024.75)">Number of Crawler Profiles</text>
		</g>
		<rect x="2918.5" y="347.5" width="1760" height="1043" stroke="#D9D9D9" stroke-width="3.4375" stroke-linejoin="round" stroke-miterlimit="10" fill="none" />
		<g>
			<path d="M3228.5 1038 3249.86 1038 3271.22 1038 3292.58 1038 3313.94 1038 3335.3 1038 3356.66 1038 3378.02 1038 3399.38 1038 3420.74 1038 3442.1 1038 3463.46 1038 3484.82 1038 3506.18 1038 3527.54 1038 3548.9 1038 3570.26 1038 3591.62 1038 3612.98 1038 3634.34 1038 3655.7 1038 3677.06 1038 3698.42 1038 3719.7799999999997 1038 3741.14 1038 3762.5 1038 3783.86 1038 3805.2200000000003 1038 3826.58 1038 3847.94 1038 3869.3 1038 3890.66 1038 3912.02 1038 3933.38 1038 3954.74 1038 3976.1 1038 3997.46 1038 4018.8199999999997 1038 4040.18 1038 4061.54 1038 4082.9 1038 4104.26 1038 4125.62 1038 4146.98 1038 4168.34 1038 4189.7 1038 4211.0599999999995 1038 4232.42 1038 4253.78 1038 4275.139999999999 1038 4296.5 1038 4296.5 400.0983606557377 4275.139999999999 400.0983606557377 4253.78 400.0983606557377 4232.42 404.29508196721304 4211.0599999999995 406.39344262295083 4189.7 412.68852459016387 4168.34 421.0819672131147 4146.98 433.672131147541 4125.62 439.96721311475403 4104.26 439.96721311475403 4082.9 437.86885245901635 4061.54 442.0655737704918 4040.18 448.36065573770486 4018.8199999999997 456.7540983606557 3997.46 456.7540983606557 3976.1 458.85245901639337 3954.74 469.344262295082 3933.38 473.54098360655735 3912.02 477.7377049180327 3890.66 477.7377049180327 3869.3 481.9344262295082 3847.94 481.9344262295082 3826.58 484.03278688524586 3805.2200000000003 486.13114754098353 3783.86 494.52459016393436 3762.5 500.8196721311475 3741.14 509.21311475409834 3719.7799999999997 515.5081967213115 3698.42 526 3677.06 530.1967213114754 3655.7 530.1967213114754 3634.34 530.1967213114754 3612.98 532.295081967213 3591.62 536.4918032786885 3570.26 544.8852459016393 3548.9 549.0819672131147 3527.54 551.1803278688524 3506.18 551.1803278688524 3484.82 559.5737704918033 3463.46 559.5737704918033 3442.1 570.0655737704917 3420.74 591.0491803278688 3399.38 595.2459016393443 3378.02 599.4426229508197 3356.66 609.9344262295082 3335.3 612.0327868852459 3313.94 612.0327868852459 3292.58 614.1311475409836 3271.22 618.327868852459 3249.86 628.8196721311475 3228.5 630.9180327868853 3228.5 1038Z" fill="#005aa6" opacity="0.9" />
		</g>
		<g>
			<path d="M3228.5 630.9180327868853 3249.86 628.8196721311475 3271.22 618.327868852459 3292.58 614.1311475409836 3313.94 612.0327868852459 3335.3 612.0327868852459 3356.66 609.9344262295082 3378.02 599.4426229508197 3399.38 595.2459016393443 3420.74 591.0491803278688 3442.1 570.0655737704917 3463.46 559.5737704918033 3484.82 559.5737704918033 3506.18 551.1803278688524 3527.54 551.1803278688524 3548.9 549.0819672131147 3570.26 544.8852459016393 3591.62 536.4918032786885 3612.98 532.295081967213 3634.34 530.1967213114754 3655.7 530.1967213114754 3677.06 530.1967213114754 3698.42 526 3719.7799999999997 515.5081967213115 3741.14 509.21311475409834 3762.5 500.8196721311475 3783.86 494.52459016393436 3805.2200000000003 486.13114754098353 3826.58 484.03278688524586 3847.94 481.9344262295082 3869.3 481.9344262295082 3890.66 477.7377049180327 3912.02 477.7377049180327 3933.38 473.54098360655735 3954.74 469.344262295082 3976.1 458.85245901639337 3997.46 456.7540983606557 4018.8199999999997 456.7540983606557 4040.18 448.36065573770486 4061.54 442.0655737704918 4082.9 437.86885245901635 4104.26 439.96721311475403 4125.62 439.96721311475403 4146.98 433.672131147541 4168.34 421.0819672131147 4189.7 412.68852459016387 4211.0599999999995 406.39344262295083 4232.42 404.29508196721304 4253.78 400.0983606557377 4275.139999999999 400.0983606557377 4296.5 400.0983606557377 4296.5 398 4275.139999999999 398 4253.78 398 4232.42 402.19672131147536 4211.0599999999995 404.29508196721315 4189.7 410.5901639344262 4168.34 418.983606557377 4146.98 431.5737704918033 4125.62 437.86885245901635 4104.26 437.86885245901635 4082.9 435.7704918032787 4061.54 439.96721311475414 4040.18 446.2622950819672 4018.8199999999997 454.655737704918 3997.46 454.655737704918 3976.1 456.7540983606557 3954.74 467.2459016393443 3933.38 471.44262295081967 3912.02 475.639344262295 3890.66 475.639344262295 3869.3 479.8360655737705 3847.94 479.8360655737705 3826.58 481.9344262295082 3805.2200000000003 484.03278688524586 3783.86 492.4262295081967 3762.5 498.72131147540983 3741.14 507.11475409836066 3719.7799999999997 513.4098360655738 3698.42 523.9016393442623 3677.06 528.0983606557377 3655.7 528.0983606557377 3634.34 528.0983606557377 3612.98 530.1967213114754 3591.62 534.3934426229508 3570.26 542.7868852459017 3548.9 546.983606557377 3527.54 549.0819672131147 3506.18 549.0819672131147 3484.82 557.4754098360656 3463.46 557.4754098360656 3442.1 567.967213114754 3420.74 588.9508196721312 3399.38 593.1475409836066 3378.02 597.344262295082 3356.66 607.8360655737705 3335.3 609.9344262295082 3313.94 609.9344262295082 3292.58 612.032786885246 3271.22 616.2295081967213 3249.86 626.7213114754098 3228.5 628.8196721311476 3228.5 630.9180327868853Z" fill="#e62d39" opacity="0.9" />
		</g>
		<g>
			<rect x="4372" y="431" width="22.9995" height="23" fill="#005aa6" />
		</g>
		<g>
			<text fill="#595959" font-family="Verdana,sans-serif" font-weight="400" font-size="41" transform="matrix(1 0 0 1 4404.56 454)">Crawler</text>
		</g>
		<g>
			<rect x="4372" y="508" width="22.9995" height="23" fill="#e62d39" />
		</g>
		<g>
			<text fill="#595959" font-family="Verdana,sans-serif" font-weight="400" font-size="41" transform="matrix(1 0 0 1 4404.56 531)">Non-Crawler</text>
		</g>
	</g>
</svg>
