<svg width="1763" height="1046"
    xmlns="http://www.w3.org/2000/svg"
	xmlns:xlink="http://www.w3.org/1999/xlink" xml:space="preserve" overflow="hidden">
	<defs>
		<clipPath id="clip0">
			<rect x="2917" y="346" width="1763" height="1046"/>
		</clipPath>
	</defs>
	<g clip-path="url(#clip0)" transform="translate(-2917 -346)">
		<rect x="2918" y="347" width="1760" height="1043" fill="#FFFFFF" />
		<g>
			<path d="
			M3228.5 974.532 4296.5 974.532
			M3228.5 910.53 4296.5 910.53
			M3228.5 846.528 4296.5 846.528
			M3228.5 781.526 4296.5 781.526
			M3228.5 717.524 4296.5 717.524
			M3228.5 653.522 4296.5 653.522
			M3228.5 589.52 4296.5 589.52
			M3228.5 525.517 4296.5 525.517
			M3228.5 461.515 4296.5 461.515
			M3228.5 397.5 4296.5 397.5" stroke="#D9D9D9" stroke-width="3.4375" stroke-linejoin="round" stroke-miterlimit="10" fill="none" />
		</g>
		<g>
			<path d="M 1038.5 4296.5 1038.5" stroke="#D9D9D9" stroke-width="3.4375" stroke-linejoin="round" stroke-miterlimit="10" fill="none" fill-rule="evenodd" />
		</g>
		<g>
			<text fill="#595959" font-family="Verdana,sans-serif" font-weight="400" font-size="41" transform="matrix(6.12323e-17 -1 1 6.12323e-17 3244.5 1223)">04-Mar</text>
		</g>
		<g>
			<text fill="#595959" font-family="Verdana,sans-serif" font-weight="400" font-size="41" transform="matrix(6.12323e-17 -1 1 6.12323e-17 3331.764705882353 1217)">01-Apr</text>
		</g>
		<g>
			<text fill="#595959" font-family="Verdana,sans-serif" font-weight="400" font-size="41" transform="matrix(6.12323e-17 -1 1 6.12323e-17 3415.529411764706 1216)">29-Apr</text>
		</g>
		<g>
			<text fill="#595959" font-family="Verdana,sans-serif" font-weight="400" font-size="41" transform="matrix(6.12323e-17 -1 1 6.12323e-17 3499.294117647059 1228)">27-May</text>
		</g>
		<g>
			<text fill="#595959" font-family="Verdana,sans-serif" font-weight="400" font-size="41" transform="matrix(6.12323e-17 -1 1 6.12323e-17 3579.5588235294117 1211)">24-Jun</text>
		</g>
		<g>
			<text fill="#595959" font-family="Verdana,sans-serif" font-weight="400" font-size="41" transform="matrix(6.12323e-17 -1 1 6.12323e-17 3663.323529411765 1196)">22-Jul</text>
		</g>
		<g>
			<text fill="#595959" font-family="Verdana,sans-serif" font-weight="400" font-size="41" transform="matrix(6.12323e-17 -1 1 6.12323e-17 3750.5882352941176 1218)">19-Aug</text>
		</g>
		<g>
			<text fill="#595959" font-family="Verdana,sans-serif" font-weight="400" font-size="41" transform="matrix(6.12323e-17 -1 1 6.12323e-17 3834.3529411764707 1219)">16-Sep</text>
		</g>
		<g>
			<text fill="#595959" font-family="Verdana,sans-serif" font-weight="400" font-size="41" transform="matrix(6.12323e-17 -1 1 6.12323e-17 3914.6176470588234 1213)">14-Oct</text>
		</g>
		<g>
			<text fill="#595959" font-family="Verdana,sans-serif" font-weight="400" font-size="41" transform="matrix(6.12323e-17 -1 1 6.12323e-17 3997.8823529411766 1222)">11-Nov</text>
		</g>
		<g>
			<text fill="#595959" font-family="Verdana,sans-serif" font-weight="400" font-size="41" transform="matrix(6.12323e-17 -1 1 6.12323e-17 4081.6470588235293 1220)">16-Dec</text>
		</g>
		<g>
			<text fill="#595959" font-family="Verdana,sans-serif" font-weight="400" font-size="41" transform="matrix(6.12323e-17 -1 1 6.12323e-17 4165.911764705882 1207)">13-Jan</text>
		</g>
		<g>
			<text fill="#595959" font-family="Verdana,sans-serif" font-weight="400" font-size="41" transform="matrix(6.12323e-17 -1 1 6.12323e-17 4249.676470588235 1214)">10-Feb</text>
		</g>
		<g>
			<text fill="#595959" font-family="Verdana,sans-serif" font-weight="400" font-size="41" transform="matrix(1 0 0 1 3167.5 1050)">0</text>
		</g>
		<g>
			<text fill="#595959" font-family="Verdana,sans-serif" font-weight="400" font-size="41" transform="matrix(1 0 0 1 3141.5 922)">62</text>
		</g>
		<g>
			<text fill="#595959" font-family="Verdana,sans-serif" font-weight="400" font-size="41" transform="matrix(1 0 0 1 3118.5 794)">125</text>
		</g>
		<g>
			<text fill="#595959" font-family="Verdana,sans-serif" font-weight="400" font-size="41" transform="matrix(1 0 0 1 3117.5 666)">187</text>
		</g>
		<g>
			<text fill="#595959" font-family="Verdana,sans-serif" font-weight="400" font-size="41" transform="matrix(1 0 0 1 3115.5 538)">250</text>
		</g>
		<g>
			<text fill="#595959" font-family="Verdana,sans-serif" font-weight="400" font-size="41" transform="matrix(1 0 0 1 3115.5 410)">312</text>
		</g>
		<g>
			<text fill="#595959" font-family="Verdana,sans-serif" font-weight="400" font-size="41" transform="matrix(1 0 0 1 3544.5 1321)">Week Commencing</text>
		</g>
		<g>
			<text fill="#595959" font-family="Verdana,sans-serif" font-weight="400" font-size="46" transform="matrix(6.12323e-17 -1 1 6.12323e-17 3019.73 1024.75)">Number of Crawler Profiles</text>
		</g>
		<rect x="2918.5" y="347.5" width="1760" height="1043" stroke="#D9D9D9" stroke-width="3.4375" stroke-linejoin="round" stroke-miterlimit="10" fill="none" />
		<g>
			<path d="M3228.5 1038 3249.4411764705883 1038 3270.3823529411766 1038 3291.323529411765 1038 3312.264705882353 1038 3333.205882352941 1038 3354.1470588235293 1038 3375.0882352941176 1038 3396.029411764706 1038 3416.970588235294 1038 3437.9117647058824 1038 3458.8529411764707 1038 3479.794117647059 1038 3500.735294117647 1038 3521.676470588235 1038 3542.6176470588234 1038 3563.5588235294117 1038 3584.5 1038 3605.4411764705883 1038 3626.3823529411766 1038 3647.323529411765 1038 3668.264705882353 1038 3689.205882352941 1038 3710.1470588235293 1038 3731.0882352941176 1038 3752.029411764706 1038 3772.970588235294 1038 3793.9117647058824 1038 3814.8529411764707 1038 3835.7941176470586 1038 3856.735294117647 1038 3877.676470588235 1038 3898.6176470588234 1038 3919.5588235294117 1038 3940.5 1038 3961.4411764705883 1038 3982.3823529411766 1038 4003.323529411765 1038 4024.264705882353 1038 4045.2058823529414 1038 4066.1470588235293 1038 4087.0882352941176 1038 4108.029411764706 1038 4128.970588235294 1038 4149.911764705882 1038 4170.85294117647 1038 4191.794117647059 1038 4212.735294117647 1038 4233.676470588235 1038 4254.617647058823 1038 4275.558823529412 1038 4296.5 1038 4296.5 400.0512820512821 4275.558823529412 402.1025641025642 4254.617647058823 402.1025641025642 4233.676470588235 404.1538461538462 4212.735294117647 406.2051282051283 4191.794117647059 408.2564102564103 4170.85294117647 408.2564102564103 4149.911764705882 412.35897435897436 4128.970588235294 414.41025641025647 4108.029411764706 414.41025641025647 4087.0882352941176 414.41025641025647 4066.1470588235293 418.51282051282055 4045.2058823529414 420.56410256410265 4024.264705882353 426.71794871794873 4003.323529411765 434.923076923077 3982.3823529411766 447.2307692307693 3961.4411764705883 453.3846153846155 3940.5 453.3846153846155 3919.5588235294117 451.33333333333337 3898.6176470588234 455.43589743589746 3877.676470588235 461.58974358974365 3856.735294117647 469.7948717948718 3835.7941176470586 469.7948717948718 3814.8529411764707 471.8461538461539 3793.9117647058824 482.1025641025642 3772.970588235294 486.2051282051283 3752.029411764706 490.3076923076924 3731.0882352941176 490.3076923076924 3710.1470588235293 494.41025641025647 3689.205882352941 494.41025641025647 3668.264705882353 496.46153846153857 3647.323529411765 498.51282051282055 3626.3823529411766 506.71794871794873 3605.4411764705883 512.8717948717949 3584.5 521.0769230769231 3563.5588235294117 527.2307692307693 3542.6176470588234 537.4871794871796 3521.676470588235 541.5897435897436 3500.735294117647 541.5897435897436 3479.794117647059 541.5897435897436 3458.8529411764707 543.6410256410256 3437.9117647058824 547.7435897435898 3416.970588235294 555.948717948718 3396.029411764706 560.0512820512821 3375.0882352941176 562.1025641025642 3354.1470588235293 562.1025641025642 3333.205882352941 570.3076923076924 3312.264705882353 570.3076923076924 3291.323529411765 580.5641025641025 3270.3823529411766 601.0769230769231 3249.4411764705883 605.1794871794873 3228.5 609.2820512820513 3228.5 1038Z" fill="#005aa6" opacity="0.9" />
		</g>
		<g>
			<path d="M3228.5 609.2820512820513 3249.4411764705883 605.1794871794873 3270.3823529411766 601.0769230769231 3291.323529411765 580.5641025641025 3312.264705882353 570.3076923076924 3333.205882352941 570.3076923076924 3354.1470588235293 562.1025641025642 3375.0882352941176 562.1025641025642 3396.029411764706 560.0512820512821 3416.970588235294 555.948717948718 3437.9117647058824 547.7435897435898 3458.8529411764707 543.6410256410256 3479.794117647059 541.5897435897436 3500.735294117647 541.5897435897436 3521.676470588235 541.5897435897436 3542.6176470588234 537.4871794871796 3563.5588235294117 527.2307692307693 3584.5 521.0769230769231 3605.4411764705883 512.8717948717949 3626.3823529411766 506.71794871794873 3647.323529411765 498.51282051282055 3668.264705882353 496.46153846153857 3689.205882352941 494.41025641025647 3710.1470588235293 494.41025641025647 3731.0882352941176 490.3076923076924 3752.029411764706 490.3076923076924 3772.970588235294 486.2051282051283 3793.9117647058824 482.1025641025642 3814.8529411764707 471.8461538461539 3835.7941176470586 469.7948717948718 3856.735294117647 469.7948717948718 3877.676470588235 461.58974358974365 3898.6176470588234 455.43589743589746 3919.5588235294117 451.33333333333337 3940.5 453.3846153846155 3961.4411764705883 453.3846153846155 3982.3823529411766 447.2307692307693 4003.323529411765 434.923076923077 4024.264705882353 426.71794871794873 4045.2058823529414 420.56410256410265 4066.1470588235293 418.51282051282055 4087.0882352941176 414.41025641025647 4108.029411764706 414.41025641025647 4128.970588235294 414.41025641025647 4149.911764705882 412.35897435897436 4170.85294117647 408.2564102564103 4191.794117647059 408.2564102564103 4212.735294117647 406.2051282051283 4233.676470588235 404.1538461538462 4254.617647058823 402.1025641025642 4275.558823529412 402.1025641025642 4296.5 400.0512820512821 4296.5 398.00000000000006 4275.558823529412 400.05128205128216 4254.617647058823 400.05128205128216 4233.676470588235 402.10256410256414 4212.735294117647 404.15384615384625 4191.794117647059 406.20512820512823 4170.85294117647 406.20512820512823 4149.911764705882 410.3076923076923 4128.970588235294 412.3589743589744 4108.029411764706 412.3589743589744 4087.0882352941176 412.3589743589744 4066.1470588235293 416.4615384615385 4045.2058823529414 418.5128205128206 4024.264705882353 424.6666666666667 4003.323529411765 432.871794871795 3982.3823529411766 445.17948717948724 3961.4411764705883 451.3333333333334 3940.5 451.3333333333334 3919.5588235294117 449.2820512820513 3898.6176470588234 453.3846153846154 3877.676470588235 459.5384615384616 3856.735294117647 467.7435897435898 3835.7941176470586 467.7435897435898 3814.8529411764707 469.7948717948719 3793.9117647058824 480.05128205128216 3772.970588235294 484.15384615384625 3752.029411764706 488.25641025641033 3731.0882352941176 488.25641025641033 3710.1470588235293 492.3589743589744 3689.205882352941 492.3589743589744 3668.264705882353 494.4102564102565 3647.323529411765 496.4615384615385 3626.3823529411766 504.6666666666667 3605.4411764705883 510.8205128205129 3584.5 519.025641025641 3563.5588235294117 525.1794871794872 3542.6176470588234 535.4358974358975 3521.676470588235 539.5384615384615 3500.735294117647 539.5384615384615 3479.794117647059 539.5384615384615 3458.8529411764707 541.5897435897435 3437.9117647058824 545.6923076923077 3416.970588235294 553.8974358974359 3396.029411764706 558 3375.0882352941176 560.0512820512821 3354.1470588235293 560.0512820512821 3333.205882352941 568.2564102564103 3312.264705882353 568.2564102564103 3291.323529411765 578.5128205128204 3270.3823529411766 599.025641025641 3249.4411764705883 603.1282051282052 3228.5 607.2307692307692 3228.5 609.2820512820513Z" fill="#e62d39" opacity="0.9" />
		</g>
		<g>
			<rect x="4372" y="431" width="22.9995" height="23" fill="#005aa6" />
		</g>
		<g>
			<text fill="#595959" font-family="Verdana,sans-serif" font-weight="400" font-size="41" transform="matrix(1 0 0 1 4404.56 454)">Crawler</text>
		</g>
		<g>
			<rect x="4372" y="508" width="22.9995" height="23" fill="#e62d39" />
		</g>
		<g>
			<text fill="#595959" font-family="Verdana,sans-serif" font-weight="400" font-size="41" transform="matrix(1 0 0 1 4404.56 531)">Non-Crawler</text>
		</g>
	</g>
</svg>
