<svg width="1763" height="1046"
    xmlns="http://www.w3.org/2000/svg"
	xmlns:xlink="http://www.w3.org/1999/xlink" xml:space="preserve" overflow="hidden">
	<defs>
		<clipPath id="clip0">
			<rect x="2917" y="346" width="1763" height="1046"/>
		</clipPath>
	</defs>
	<g clip-path="url(#clip0)" transform="translate(-2917 -346)">
		<rect x="2918" y="347" width="1760" height="1043" fill="#FFFFFF" />
		<g>
			<path d="
			M3228.5 974.532 4296.5 974.532
			M3228.5 910.53 4296.5 910.53
			M3228.5 846.528 4296.5 846.528
			M3228.5 781.526 4296.5 781.526
			M3228.5 717.524 4296.5 717.524
			M3228.5 653.522 4296.5 653.522
			M3228.5 589.52 4296.5 589.52
			M3228.5 525.517 4296.5 525.517
			M3228.5 461.515 4296.5 461.515
			M3228.5 397.5 4296.5 397.5" stroke="#D9D9D9" stroke-width="3.4375" stroke-linejoin="round" stroke-miterlimit="10" fill="none" />
		</g>
		<g>
			<path d="M 1038.5 4296.5 1038.5" stroke="#D9D9D9" stroke-width="3.4375" stroke-linejoin="round" stroke-miterlimit="10" fill="none" fill-rule="evenodd" />
		</g>
		<g>
			<text fill="#595959" font-family="Verdana,sans-serif" font-weight="400" font-size="41" transform="matrix(6.12323e-17 -1 1 6.12323e-17 3244.5 1210)">01-Jan</text>
		</g>
		<g>
			<text fill="#595959" font-family="Verdana,sans-serif" font-weight="400" font-size="41" transform="matrix(6.12323e-17 -1 1 6.12323e-17 3328.264705882353 1210)">29-Jan</text>
		</g>
		<g>
			<text fill="#595959" font-family="Verdana,sans-serif" font-weight="400" font-size="41" transform="matrix(6.12323e-17 -1 1 6.12323e-17 3412.029411764706 1216)">26-Feb</text>
		</g>
		<g>
			<text fill="#595959" font-family="Verdana,sans-serif" font-weight="400" font-size="41" transform="matrix(6.12323e-17 -1 1 6.12323e-17 3495.794117647059 1223)">25-Mar</text>
		</g>
		<g>
			<text fill="#595959" font-family="Verdana,sans-serif" font-weight="400" font-size="41" transform="matrix(6.12323e-17 -1 1 6.12323e-17 3583.0588235294117 1216)">22-Apr</text>
		</g>
		<g>
			<text fill="#595959" font-family="Verdana,sans-serif" font-weight="400" font-size="41" transform="matrix(6.12323e-17 -1 1 6.12323e-17 3666.823529411765 1228)">20-May</text>
		</g>
		<g>
			<text fill="#595959" font-family="Verdana,sans-serif" font-weight="400" font-size="41" transform="matrix(6.12323e-17 -1 1 6.12323e-17 3746.5882352941176 1209)">17-Jun</text>
		</g>
		<g>
			<text fill="#595959" font-family="Verdana,sans-serif" font-weight="400" font-size="41" transform="matrix(6.12323e-17 -1 1 6.12323e-17 3830.8529411764707 1194)">15-Jul</text>
		</g>
		<g>
			<text fill="#595959" font-family="Verdana,sans-serif" font-weight="400" font-size="41" transform="matrix(6.12323e-17 -1 1 6.12323e-17 3918.1176470588234 1218)">12-Aug</text>
		</g>
		<g>
			<text fill="#595959" font-family="Verdana,sans-serif" font-weight="400" font-size="41" transform="matrix(6.12323e-17 -1 1 6.12323e-17 4001.8823529411766 1222)">09-Sep</text>
		</g>
		<g>
			<text fill="#595959" font-family="Verdana,sans-serif" font-weight="400" font-size="41" transform="matrix(6.12323e-17 -1 1 6.12323e-17 4082.1470588235293 1215)">07-Oct</text>
		</g>
		<g>
			<text fill="#595959" font-family="Verdana,sans-serif" font-weight="400" font-size="41" transform="matrix(6.12323e-17 -1 1 6.12323e-17 4165.911764705882 1225)">04-Nov</text>
		</g>
		<g>
			<text fill="#595959" font-family="Verdana,sans-serif" font-weight="400" font-size="41" transform="matrix(6.12323e-17 -1 1 6.12323e-17 4249.676470588235 1223)">09-Dec</text>
		</g>
		<g>
			<text fill="#595959" font-family="Verdana,sans-serif" font-weight="400" font-size="41" transform="matrix(1 0 0 1 3123.5 1050)">0%</text>
		</g>
		<g>
			<text fill="#595959" font-family="Verdana,sans-serif" font-weight="400" font-size="41" transform="matrix(1 0 0 1 3097.5 922)">20%</text>
		</g>
		<g>
			<text fill="#595959" font-family="Verdana,sans-serif" font-weight="400" font-size="41" transform="matrix(1 0 0 1 3096.5 794)">40%</text>
		</g>
		<g>
			<text fill="#595959" font-family="Verdana,sans-serif" font-weight="400" font-size="41" transform="matrix(1 0 0 1 3097.5 666)">60%</text>
		</g>
		<g>
			<text fill="#595959" font-family="Verdana,sans-serif" font-weight="400" font-size="41" transform="matrix(1 0 0 1 3097.5 538)">80%</text>
		</g>
		<g>
			<text fill="#595959" font-family="Verdana,sans-serif" font-weight="400" font-size="41" transform="matrix(1 0 0 1 3074.5 410)">100%</text>
		</g>
		<g>
			<text fill="#595959" font-family="Verdana,sans-serif" font-weight="400" font-size="41" transform="matrix(1 0 0 1 3544.5 1321)">Week Commencing</text>
		</g>
		<g>
			<text fill="#595959" font-family="Verdana,sans-serif" font-weight="400" font-size="46" transform="matrix(6.12323e-17 -1 1 6.12323e-17 3019.73 965.25)">Requests (% of Total)</text>
		</g>
		<rect x="2918.5" y="347.5" width="1760" height="1043" stroke="#D9D9D9" stroke-width="3.4375" stroke-linejoin="round" stroke-miterlimit="10" fill="none" />
		<g>
			<path d="M3228.5 1038 3249.4411764705883 1038 3270.3823529411766 1038 3291.323529411765 1038 3312.264705882353 1038 3333.205882352941 1038 3354.1470588235293 1038 3375.0882352941176 1038 3396.029411764706 1038 3416.970588235294 1038 3437.9117647058824 1038 3458.8529411764707 1038 3479.794117647059 1038 3500.735294117647 1038 3521.676470588235 1038 3542.6176470588234 1038 3563.5588235294117 1038 3584.5 1038 3605.4411764705883 1038 3626.3823529411766 1038 3647.323529411765 1038 3668.264705882353 1038 3689.205882352941 1038 3710.1470588235293 1038 3731.0882352941176 1038 3752.029411764706 1038 3772.970588235294 1038 3793.9117647058824 1038 3814.8529411764707 1038 3835.7941176470586 1038 3856.735294117647 1038 3877.676470588235 1038 3898.6176470588234 1038 3919.5588235294117 1038 3940.5 1038 3961.4411764705883 1038 3982.3823529411766 1038 4003.323529411765 1038 4024.264705882353 1038 4045.2058823529414 1038 4066.1470588235293 1038 4087.0882352941176 1038 4108.029411764706 1038 4128.970588235294 1038 4149.911764705882 1038 4170.85294117647 1038 4191.794117647059 1038 4212.735294117647 1038 4233.676470588235 1038 4254.617647058823 1038 4275.558823529412 1038 4296.5 1038 4296.5 441.5429030927178 4275.558823529412 441.47417224977323 4254.617647058823 441.4594945700171 4233.676470588235 441.38808556766435 4212.735294117647 441.3288056085928 4191.794117647059 441.47308833726333 4170.85294117647 441.645038932872 4149.911764705882 441.9852131881347 4128.970588235294 442.33307896966517 4108.029411764706 566.5721783366624 4087.0882352941176 567.1308685788513 4066.1470588235293 567.5130485279316 4045.2058823529414 568.0135171374827 4024.264705882353 568.6966145549849 4003.323529411765 569.582505337425 3982.3823529411766 569.9559975833151 3961.4411764705883 570.7071585028136 3940.5 571.2237275515587 3919.5588235294117 571.9035338843237 3898.6176470588234 572.0631883952817 3877.676470588235 572.5486893796854 3856.735294117647 572.9112818795618 3835.7941176470586 572.7332415748011 3814.8529411764707 572.862060937991 3793.9117647058824 572.9365512268143 3772.970588235294 572.8940388940463 3752.029411764706 572.4651830343407 3731.0882352941176 572.6325422225004 3710.1470588235293 571.5082651331143 3689.205882352941 572.2322344669446 3668.264705882353 572.7455283998808 3647.323529411765 573.7260592446937 3626.3823529411766 574.7878423335366 3605.4411764705883 575.6290427379265 3584.5 575.9687876322813 3563.5588235294117 576.8727971406818 3542.6176470588234 578.2473295586981 3521.676470588235 579.8301495425726 3500.735294117647 581.4258071436993 3479.794117647059 583.4353029706369 3458.8529411764707 585.2297796683877 3437.9117647058824 569.3763139485983 3416.970588235294 569.4920790789085 3396.029411764706 568.4210223578364 3375.0882352941176 567.328661211755 3354.1470588235293 566.161104092279 3333.205882352941 566.5630760901624 3312.264705882353 566.9371867374394 3291.323529411765 565.7434322908556 3270.3823529411766 565.3329344965637 3249.4411764705883 567.1306424721515 3228.5 546.6361313386333 3228.5 1038Z" fill="#e62d39" opacity="0.9" />
		</g>
		<g>
			<path d="M3228.5 546.6361313386333 3249.4411764705883 567.1306424721515 3270.3823529411766 565.3329344965637 3291.323529411765 565.7434322908556 3312.264705882353 566.9371867374394 3333.205882352941 566.5630760901624 3354.1470588235293 566.161104092279 3375.0882352941176 567.328661211755 3396.029411764706 568.4210223578364 3416.970588235294 569.4920790789085 3437.9117647058824 569.3763139485983 3458.8529411764707 585.2297796683877 3479.794117647059 583.4353029706369 3500.735294117647 581.4258071436993 3521.676470588235 579.8301495425726 3542.6176470588234 578.2473295586981 3563.5588235294117 576.8727971406818 3584.5 575.9687876322813 3605.4411764705883 575.6290427379265 3626.3823529411766 574.7878423335366 3647.323529411765 573.7260592446937 3668.264705882353 572.7455283998808 3689.205882352941 572.2322344669446 3710.1470588235293 571.5082651331143 3731.0882352941176 572.6325422225004 3752.029411764706 572.4651830343407 3772.970588235294 572.8940388940463 3793.9117647058824 572.9365512268143 3814.8529411764707 572.862060937991 3835.7941176470586 572.7332415748011 3856.735294117647 572.9112818795618 3877.676470588235 572.5486893796854 3898.6176470588234 572.0631883952817 3919.5588235294117 571.9035338843237 3940.5 571.2237275515587 3961.4411764705883 570.7071585028136 3982.3823529411766 569.9559975833151 4003.323529411765 569.582505337425 4024.264705882353 568.6966145549849 4045.2058823529414 568.0135171374827 4066.1470588235293 567.5130485279316 4087.0882352941176 567.1308685788513 4108.029411764706 566.5721783366624 4128.970588235294 442.33307896966517 4149.911764705882 441.9852131881347 4170.85294117647 441.645038932872 4191.794117647059 441.47308833726333 4212.735294117647 441.3288056085928 4233.676470588235 441.38808556766435 4254.617647058823 441.4594945700171 4275.558823529412 441.47417224977323 4296.5 441.5429030927178 4296.5 398 4275.558823529412 398 4254.617647058823 398.00000000000006 4233.676470588235 398 4212.735294117647 398 4191.794117647059 398 4170.85294117647 397.99999999999994 4149.911764705882 398 4128.970588235294 398 4108.029411764706 398 4087.0882352941176 398 4066.1470588235293 398 4045.2058823529414 398 4024.264705882353 398 4003.323529411765 398 3982.3823529411766 398.00000000000006 3961.4411764705883 398 3940.5 398 3919.5588235294117 398 3898.6176470588234 398.00000000000006 3877.676470588235 398 3856.735294117647 397.99999999999994 3835.7941176470586 398 3814.8529411764707 397.99999999999994 3793.9117647058824 398.00000000000006 3772.970588235294 398 3752.029411764706 398 3731.0882352941176 398 3710.1470588235293 397.99999999999994 3689.205882352941 398.0000000000001 3668.264705882353 398 3647.323529411765 398 3626.3823529411766 398.00000000000006 3605.4411764705883 398 3584.5 398 3563.5588235294117 397.99999999999994 3542.6176470588234 397.99999999999994 3521.676470588235 398.0000000000001 3500.735294117647 398 3479.794117647059 398 3458.8529411764707 398 3437.9117647058824 398 3416.970588235294 398.00000000000006 3396.029411764706 398.00000000000006 3375.0882352941176 398 3354.1470588235293 398.00000000000006 3333.205882352941 397.99999999999994 3312.264705882353 398 3291.323529411765 398 3270.3823529411766 397.99999999999994 3249.4411764705883 398.00000000000006 3228.5 398 3228.5 546.6361313386333Z" fill="#005aa6" opacity="0.9" />
		</g>
		<g>
			<rect x="4372" y="431" width="22.9995" height="23" fill="#e62d39" />
		</g>
		<g>
			<text fill="#595959" font-family="Verdana,sans-serif" font-weight="400" font-size="41" transform="matrix(1 0 0 1 4404.56 454)">Non-Crawler</text>
		</g>
		<g>
			<rect x="4372" y="508" width="22.9995" height="23" fill="#005aa6" />
		</g>
		<g>
			<text fill="#595959" font-family="Verdana,sans-serif" font-weight="400" font-size="41" transform="matrix(1 0 0 1 4404.56 531)">Crawler</text>
		</g>
	</g>
</svg>
