<svg width="1763" height="1046"
    xmlns="http://www.w3.org/2000/svg"
	xmlns:xlink="http://www.w3.org/1999/xlink" xml:space="preserve" overflow="hidden">
	<defs>
		<clipPath id="clip0">
			<rect x="2917" y="346" width="1763" height="1046"/>
		</clipPath>
	</defs>
	<g clip-path="url(#clip0)" transform="translate(-2917 -346)">
		<rect x="2918" y="347" width="1760" height="1043" fill="#FFFFFF" />
		<g>
			<path d="
			M3228.5 974.532 4296.5 974.532
			M3228.5 910.53 4296.5 910.53
			M3228.5 846.528 4296.5 846.528
			M3228.5 781.526 4296.5 781.526
			M3228.5 717.524 4296.5 717.524
			M3228.5 653.522 4296.5 653.522
			M3228.5 589.52 4296.5 589.52
			M3228.5 525.517 4296.5 525.517
			M3228.5 461.515 4296.5 461.515
			M3228.5 397.5 4296.5 397.5" stroke="#D9D9D9" stroke-width="3.4375" stroke-linejoin="round" stroke-miterlimit="10" fill="none" />
		</g>
		<g>
			<path d="M 1038.5 4296.5 1038.5" stroke="#D9D9D9" stroke-width="3.4375" stroke-linejoin="round" stroke-miterlimit="10" fill="none" fill-rule="evenodd" />
		</g>
		<g>
			<text fill="#595959" font-family="Verdana,sans-serif" font-weight="400" font-size="41" transform="matrix(6.12323e-17 -1 1 6.12323e-17 3244.5 1225)">06-Nov</text>
		</g>
		<g>
			<text fill="#595959" font-family="Verdana,sans-serif" font-weight="400" font-size="41" transform="matrix(6.12323e-17 -1 1 6.12323e-17 3323.6111111111113 1224)">20-Nov</text>
		</g>
		<g>
			<text fill="#595959" font-family="Verdana,sans-serif" font-weight="400" font-size="41" transform="matrix(6.12323e-17 -1 1 6.12323e-17 3402.722222222222 1223)">04-Dec</text>
		</g>
		<g>
			<text fill="#595959" font-family="Verdana,sans-serif" font-weight="400" font-size="41" transform="matrix(6.12323e-17 -1 1 6.12323e-17 3481.8333333333335 1220)">18-Dec</text>
		</g>
		<g>
			<text fill="#595959" font-family="Verdana,sans-serif" font-weight="400" font-size="41" transform="matrix(6.12323e-17 -1 1 6.12323e-17 3560.9444444444443 1210)">01-Jan</text>
		</g>
		<g>
			<text fill="#595959" font-family="Verdana,sans-serif" font-weight="400" font-size="41" transform="matrix(6.12323e-17 -1 1 6.12323e-17 3639.5555555555557 1207)">15-Jan</text>
		</g>
		<g>
			<text fill="#595959" font-family="Verdana,sans-serif" font-weight="400" font-size="41" transform="matrix(6.12323e-17 -1 1 6.12323e-17 3719.1666666666665 1210)">29-Jan</text>
		</g>
		<g>
			<text fill="#595959" font-family="Verdana,sans-serif" font-weight="400" font-size="41" transform="matrix(6.12323e-17 -1 1 6.12323e-17 3798.277777777778 1214)">12-Feb</text>
		</g>
		<g>
			<text fill="#595959" font-family="Verdana,sans-serif" font-weight="400" font-size="41" transform="matrix(6.12323e-17 -1 1 6.12323e-17 3877.3888888888887 1216)">26-Feb</text>
		</g>
		<g>
			<text fill="#595959" font-family="Verdana,sans-serif" font-weight="400" font-size="41" transform="matrix(6.12323e-17 -1 1 6.12323e-17 3956 1221)">11-Mar</text>
		</g>
		<g>
			<text fill="#595959" font-family="Verdana,sans-serif" font-weight="400" font-size="41" transform="matrix(6.12323e-17 -1 1 6.12323e-17 4035.6111111111113 1223)">25-Mar</text>
		</g>
		<g>
			<text fill="#595959" font-family="Verdana,sans-serif" font-weight="400" font-size="41" transform="matrix(6.12323e-17 -1 1 6.12323e-17 4118.222222222223 1217)">08-Apr</text>
		</g>
		<g>
			<text fill="#595959" font-family="Verdana,sans-serif" font-weight="400" font-size="41" transform="matrix(6.12323e-17 -1 1 6.12323e-17 4197.333333333333 1216)">22-Apr</text>
		</g>
		<g>
			<text fill="#595959" font-family="Verdana,sans-serif" font-weight="400" font-size="41" transform="matrix(6.12323e-17 -1 1 6.12323e-17 4276.444444444444 1228)">06-May</text>
		</g>
		<g>
			<text fill="#595959" font-family="Verdana,sans-serif" font-weight="400" font-size="41" transform="matrix(1 0 0 1 3123.5 1050)">0%</text>
		</g>
		<g>
			<text fill="#595959" font-family="Verdana,sans-serif" font-weight="400" font-size="41" transform="matrix(1 0 0 1 3097.5 922)">20%</text>
		</g>
		<g>
			<text fill="#595959" font-family="Verdana,sans-serif" font-weight="400" font-size="41" transform="matrix(1 0 0 1 3096.5 794)">40%</text>
		</g>
		<g>
			<text fill="#595959" font-family="Verdana,sans-serif" font-weight="400" font-size="41" transform="matrix(1 0 0 1 3097.5 666)">60%</text>
		</g>
		<g>
			<text fill="#595959" font-family="Verdana,sans-serif" font-weight="400" font-size="41" transform="matrix(1 0 0 1 3097.5 538)">80%</text>
		</g>
		<g>
			<text fill="#595959" font-family="Verdana,sans-serif" font-weight="400" font-size="41" transform="matrix(1 0 0 1 3074.5 410)">100%</text>
		</g>
		<g>
			<text fill="#595959" font-family="Verdana,sans-serif" font-weight="400" font-size="41" transform="matrix(1 0 0 1 3544.5 1321)">Week Commencing</text>
		</g>
		<g>
			<text fill="#595959" font-family="Verdana,sans-serif" font-weight="400" font-size="46" transform="matrix(6.12323e-17 -1 1 6.12323e-17 3019.73 965.25)">Requests (% of Total)</text>
		</g>
		<rect x="2918.5" y="347.5" width="1760" height="1043" stroke="#D9D9D9" stroke-width="3.4375" stroke-linejoin="round" stroke-miterlimit="10" fill="none" />
		<g>
			<path d="M3228.5 1038 3268.0555555555557 1038 3307.6111111111113 1038 3347.1666666666665 1038 3386.722222222222 1038 3426.277777777778 1038 3465.8333333333335 1038 3505.3888888888887 1038 3544.9444444444443 1038 3584.5 1038 3624.0555555555557 1038 3663.6111111111113 1038 3703.1666666666665 1038 3742.722222222222 1038 3782.277777777778 1038 3821.8333333333335 1038 3861.3888888888887 1038 3900.9444444444443 1038 3940.5 1038 3980.0555555555557 1038 4019.6111111111113 1038 4059.166666666667 1038 4098.722222222223 1038 4138.277777777777 1038 4177.833333333333 1038 4217.388888888889 1038 4256.944444444444 1038 4296.5 1038 4296.5 574.7878423335366 4256.944444444444 575.6290427379265 4217.388888888889 575.9687876322813 4177.833333333333 576.8727971406818 4138.277777777777 578.2473295586981 4098.722222222223 579.8301495425726 4059.166666666667 581.4258071436993 4019.6111111111113 583.4353029706369 3980.0555555555557 585.2297796683877 3940.5 569.3763139485983 3900.9444444444443 569.4920790789085 3861.3888888888887 568.4210223578364 3821.8333333333335 567.328661211755 3782.277777777778 566.161104092279 3742.722222222222 566.5630760901624 3703.1666666666665 566.9371867374394 3663.6111111111113 565.7434322908556 3624.0555555555557 565.3329344965637 3584.5 567.1306424721515 3544.9444444444443 546.6361313386333 3505.3888888888887 547.2360643741254 3465.8333333333335 547.9846296844262 3426.277777777778 551.0672526834712 3386.722222222222 550.9210452859504 3347.1666666666665 550.9050574683862 3307.6111111111113 550.8533354714161 3268.0555555555557 550.7560734149703 3228.5 551.2665692392751 3228.5 1038Z" fill="#e62d39" opacity="0.9" />
		</g>
		<g>
			<path d="M3228.5 551.2665692392751 3268.0555555555557 550.7560734149703 3307.6111111111113 550.8533354714161 3347.1666666666665 550.9050574683862 3386.722222222222 550.9210452859504 3426.277777777778 551.0672526834712 3465.8333333333335 547.9846296844262 3505.3888888888887 547.2360643741254 3544.9444444444443 546.6361313386333 3584.5 567.1306424721515 3624.0555555555557 565.3329344965637 3663.6111111111113 565.7434322908556 3703.1666666666665 566.9371867374394 3742.722222222222 566.5630760901624 3782.277777777778 566.161104092279 3821.8333333333335 567.328661211755 3861.3888888888887 568.4210223578364 3900.9444444444443 569.4920790789085 3940.5 569.3763139485983 3980.0555555555557 585.2297796683877 4019.6111111111113 583.4353029706369 4059.166666666667 581.4258071436993 4098.722222222223 579.8301495425726 4138.277777777777 578.2473295586981 4177.833333333333 576.8727971406818 4217.388888888889 575.9687876322813 4256.944444444444 575.6290427379265 4296.5 574.7878423335366 4296.5 398.00000000000006 4256.944444444444 398 4217.388888888889 398 4177.833333333333 397.99999999999994 4138.277777777777 397.99999999999994 4098.722222222223 398.0000000000001 4059.166666666667 398 4019.6111111111113 398 3980.0555555555557 398 3940.5 398 3900.9444444444443 398.00000000000006 3861.3888888888887 398.00000000000006 3821.8333333333335 398 3782.277777777778 398.00000000000006 3742.722222222222 397.99999999999994 3703.1666666666665 398 3663.6111111111113 398 3624.0555555555557 397.99999999999994 3584.5 398.00000000000006 3544.9444444444443 398 3505.3888888888887 398.0000000000001 3465.8333333333335 398 3426.277777777778 398 3386.722222222222 398 3347.1666666666665 398 3307.6111111111113 398 3268.0555555555557 398 3228.5 398 3228.5 551.2665692392751Z" fill="#005aa6" opacity="0.9" />
		</g>
		<g>
			<rect x="4372" y="431" width="22.9995" height="23" fill="#e62d39" />
		</g>
		<g>
			<text fill="#595959" font-family="Verdana,sans-serif" font-weight="400" font-size="41" transform="matrix(1 0 0 1 4404.56 454)">Non-Crawler</text>
		</g>
		<g>
			<rect x="4372" y="508" width="22.9995" height="23" fill="#005aa6" />
		</g>
		<g>
			<text fill="#595959" font-family="Verdana,sans-serif" font-weight="400" font-size="41" transform="matrix(1 0 0 1 4404.56 531)">Crawler</text>
		</g>
	</g>
</svg>
