<svg width="1763" height="1046"
    xmlns="http://www.w3.org/2000/svg"
	xmlns:xlink="http://www.w3.org/1999/xlink" xml:space="preserve" overflow="hidden">
	<defs>
		<clipPath id="clip0">
			<rect x="2917" y="346" width="1763" height="1046"/>
		</clipPath>
	</defs>
	<g clip-path="url(#clip0)" transform="translate(-2917 -346)">
		<rect x="2918" y="347" width="1760" height="1043" fill="#FFFFFF" />
		<g>
			<path d="
			M3228.5 974.532 4296.5 974.532
			M3228.5 910.53 4296.5 910.53
			M3228.5 846.528 4296.5 846.528
			M3228.5 781.526 4296.5 781.526
			M3228.5 717.524 4296.5 717.524
			M3228.5 653.522 4296.5 653.522
			M3228.5 589.52 4296.5 589.52
			M3228.5 525.517 4296.5 525.517
			M3228.5 461.515 4296.5 461.515
			M3228.5 397.5 4296.5 397.5" stroke="#D9D9D9" stroke-width="3.4375" stroke-linejoin="round" stroke-miterlimit="10" fill="none" />
		</g>
		<g>
			<path d="M 1038.5 4296.5 1038.5" stroke="#D9D9D9" stroke-width="3.4375" stroke-linejoin="round" stroke-miterlimit="10" fill="none" fill-rule="evenodd" />
		</g>
		<g>
			<text fill="#595959" font-family="Verdana,Open Sans,DejaVu Sans,sans-serif" font-weight="400" font-size="41" transform="matrix(6.12323e-17 -1 1 6.12323e-17 3243.564697265625 1201.1000900268555)">07-Oct</text>
		</g>
		<g>
			<text fill="#595959" font-family="Verdana,Open Sans,DejaVu Sans,sans-serif" font-weight="400" font-size="41" transform="matrix(6.12323e-17 -1 1 6.12323e-17 3330.748370735013 1211.43017578125)">04-Nov</text>
		</g>
		<g>
			<text fill="#595959" font-family="Verdana,Open Sans,DejaVu Sans,sans-serif" font-weight="400" font-size="41" transform="matrix(6.12323e-17 -1 1 6.12323e-17 3417.9320442044004 1207.0859375)">09-Dec</text>
		</g>
		<g>
			<text fill="#595959" font-family="Verdana,Open Sans,DejaVu Sans,sans-serif" font-weight="400" font-size="41" transform="matrix(6.12323e-17 -1 1 6.12323e-17 3508.7692821269134 1191.6508712768555)">06-Jan</text>
		</g>
		<g>
			<text fill="#595959" font-family="Verdana,Open Sans,DejaVu Sans,sans-serif" font-weight="400" font-size="41" transform="matrix(6.12323e-17 -1 1 6.12323e-17 3593.010084502551 1203.0419921875)">03-Feb</text>
		</g>
		<g>
			<text fill="#595959" font-family="Verdana,Open Sans,DejaVu Sans,sans-serif" font-weight="400" font-size="41" transform="matrix(6.12323e-17 -1 1 6.12323e-17 3679.483064612564 1212.0107421875)">03-Mar</text>
		</g>
		<g>
			<text fill="#595959" font-family="Verdana,Open Sans,DejaVu Sans,sans-serif" font-weight="400" font-size="41" transform="matrix(6.12323e-17 -1 1 6.12323e-17 3766.6467185507017 1212.1708984375)">31-Mar</text>
		</g>
		<g>
			<text fill="#595959" font-family="Verdana,Open Sans,DejaVu Sans,sans-serif" font-weight="400" font-size="41" transform="matrix(6.12323e-17 -1 1 6.12323e-17 3858.555001395089 1203.3022384643555)">28-Apr</text>
		</g>
		<g>
			<text fill="#595959" font-family="Verdana,Open Sans,DejaVu Sans,sans-serif" font-weight="400" font-size="41" transform="matrix(6.12323e-17 -1 1 6.12323e-17 3945.738674864477 1216.51513671875)">26-May</text>
		</g>
		<g>
			<text fill="#595959" font-family="Verdana,Open Sans,DejaVu Sans,sans-serif" font-weight="400" font-size="41" transform="matrix(6.12323e-17 -1 1 6.12323e-17 4031.8713229432396 1194.1733322143555)">30-Jun</text>
		</g>
		<g>
			<text fill="#595959" font-family="Verdana,Open Sans,DejaVu Sans,sans-serif" font-weight="400" font-size="41" transform="matrix(6.12323e-17 -1 1 6.12323e-17 4119.765689772003 1179.0385665893555)">28-Jul</text>
		</g>
		<g>
			<text fill="#595959" font-family="Verdana,Open Sans,DejaVu Sans,sans-serif" font-weight="400" font-size="41" transform="matrix(6.12323e-17 -1 1 6.12323e-17 4207.2896952726405 1208.66748046875)">25-Aug</text>
		</g>
		<g>
			<text fill="#595959" font-family="Verdana,Open Sans,DejaVu Sans,sans-serif" font-weight="400" font-size="41" transform="matrix(6.12323e-17 -1 1 6.12323e-17 4294.4733687420285 1204.42333984375)">22-Sep</text>
		</g>
		<g>
			<text fill="#595959" font-family="Verdana,Open Sans,DejaVu Sans,sans-serif" font-weight="400" font-size="41" transform="matrix(1 0 0 1 3135.4482421875 1050)">0%</text>
		</g>
		<g>
			<text fill="#595959" font-family="Verdana,Open Sans,DejaVu Sans,sans-serif" font-weight="400" font-size="41" transform="matrix(1 0 0 1 3111.96533203125 922)">20%</text>
		</g>
		<g>
			<text fill="#595959" font-family="Verdana,Open Sans,DejaVu Sans,sans-serif" font-weight="400" font-size="41" transform="matrix(1 0 0 1 3110.82421875 794)">40%</text>
		</g>
		<g>
			<text fill="#595959" font-family="Verdana,Open Sans,DejaVu Sans,sans-serif" font-weight="400" font-size="41" transform="matrix(1 0 0 1 3112.3056640625 666)">60%</text>
		</g>
		<g>
			<text fill="#595959" font-family="Verdana,Open Sans,DejaVu Sans,sans-serif" font-weight="400" font-size="41" transform="matrix(1 0 0 1 3112.04541015625 538)">80%</text>
		</g>
		<g>
			<text fill="#595959" font-family="Verdana,Open Sans,DejaVu Sans,sans-serif" font-weight="400" font-size="41" transform="matrix(1 0 0 1 3090.2841796875 410)">100%</text>
		</g>
		<g>
			<text fill="#595959" font-family="Verdana,Open Sans,DejaVu Sans,sans-serif" font-weight="400" font-size="41" transform="matrix(1 0 0 1 3556.97119140625 1321)">Week Commencing</text>
		</g>
		<g>
			<text fill="#595959" font-family="Verdana,Open Sans,DejaVu Sans,sans-serif" font-weight="400" font-size="46" transform="matrix(6.12323e-17 -1 1 6.12323e-17 3019.73 936.7665710449219)">Requests (% of Total)</text>
		</g>
		<rect x="2918.5" y="347.5" width="1760" height="1043" stroke="#D9D9D9" stroke-width="3.4375" stroke-linejoin="round" stroke-miterlimit="10" fill="none" />
		<g>
			<path d="M3228.5 1038 3250.295918367347 1038 3272.091836734694 1038 3293.887755102041 1038 3315.683673469388 1038 3337.4795918367345 1038 3359.2755102040815 1038 3381.0714285714284 1038 3402.8673469387754 1038 3424.6632653061224 1038 3446.4591836734694 1038 3468.2551020408164 1038 3490.0510204081634 1038 3511.8469387755104 1038 3533.6428571428573 1038 3555.4387755102043 1038 3577.234693877551 1038 3599.030612244898 1038 3620.826530612245 1038 3642.622448979592 1038 3664.418367346939 1038 3686.214285714286 1038 3708.0102040816328 1038 3729.8061224489797 1038 3751.6020408163267 1038 3773.3979591836733 1038 3795.1938775510203 1038 3816.9897959183672 1038 3838.785714285714 1038 3860.581632653061 1038 3882.377551020408 1038 3904.173469387755 1038 3925.969387755102 1038 3947.765306122449 1038 3969.5612244897957 1038 3991.357142857143 1038 4013.1530612244896 1038 4034.9489795918366 1038 4056.7448979591836 1038 4078.5408163265306 1038 4100.336734693878 1038 4122.132653061224 1038 4143.928571428572 1038 4165.724489795918 1038 4187.5204081632655 1038 4209.316326530612 1038 4231.1122448979595 1038 4252.908163265306 1038 4274.7040816326535 1038 4296.5 1038 4296.5 440.34799215358134 4274.7040816326535 440.40616975209355 4252.908163265306 440.40760550465325 4231.1122448979595 440.94196380839696 4209.316326530612 441.17078340782746 4187.5204081632655 441.17336955313306 4165.724489795918 441.3391880005887 4143.928571428572 441.48654078274615 4122.132653061224 441.48316478044603 4100.336734693878 441.484756503997 4078.5408163265306 441.489616515065 4056.7448979591836 441.29796426599523 4034.9489795918366 441.72595383903854 4013.1530612244896 442.8417422387853 3991.357142857143 442.854171965349 3969.5612244897957 442.95845521922934 3947.765306122449 442.9731674669964 3925.969387755102 443.09587998074596 3904.173469387755 442.9453880046191 3882.377551020408 442.7539759175269 3860.581632653061 442.4035157162202 3838.785714285714 442.11056785584276 3816.9897959183672 441.83280494374446 3795.1938775510203 441.70333243098173 3773.3979591836733 441.6626940555466 3751.6020408163267 441.6573661278967 3729.8061224489797 441.5375979828307 3708.0102040816328 441.406683369976 3686.214285714286 441.167209213907 3664.418367346939 441.0289316920836 3642.622448979592 441.03561787240676 3620.826530612245 441.06205687573333 3599.030612244898 441.14123809544583 3577.234693877551 441.04668014176025 3555.4387755102043 441.3325461823914 3533.6428571428573 441.50673382811704 3511.8469387755104 441.5263210359809 3490.0510204081634 441.5338725099368 3468.2551020408164 441.5429030927178 3446.4591836734694 441.47417224977323 3424.6632653061224 441.4594945700171 3402.8673469387754 441.38808556766435 3381.0714285714284 441.3288056085928 3359.2755102040815 441.47308833726333 3337.4795918367345 441.645038932872 3315.683673469388 441.9852131881347 3293.887755102041 442.33307896966517 3272.091836734694 566.5721783366624 3250.295918367347 567.1308685788513 3228.5 567.5130485279316 3228.5 1038Z" fill="#e62d39" opacity="0.9" />
		</g>
		<g>
			<path d="M3228.5 567.5130485279316 3250.295918367347 567.1308685788513 3272.091836734694 566.5721783366624 3293.887755102041 442.33307896966517 3315.683673469388 441.9852131881347 3337.4795918367345 441.645038932872 3359.2755102040815 441.47308833726333 3381.0714285714284 441.3288056085928 3402.8673469387754 441.38808556766435 3424.6632653061224 441.4594945700171 3446.4591836734694 441.47417224977323 3468.2551020408164 441.5429030927178 3490.0510204081634 441.5338725099368 3511.8469387755104 441.5263210359809 3533.6428571428573 441.50673382811704 3555.4387755102043 441.3325461823914 3577.234693877551 441.04668014176025 3599.030612244898 441.14123809544583 3620.826530612245 441.06205687573333 3642.622448979592 441.03561787240676 3664.418367346939 441.0289316920836 3686.214285714286 441.167209213907 3708.0102040816328 441.406683369976 3729.8061224489797 441.5375979828307 3751.6020408163267 441.6573661278967 3773.3979591836733 441.6626940555466 3795.1938775510203 441.70333243098173 3816.9897959183672 441.83280494374446 3838.785714285714 442.11056785584276 3860.581632653061 442.4035157162202 3882.377551020408 442.7539759175269 3904.173469387755 442.9453880046191 3925.969387755102 443.09587998074596 3947.765306122449 442.9731674669964 3969.5612244897957 442.95845521922934 3991.357142857143 442.854171965349 4013.1530612244896 442.8417422387853 4034.9489795918366 441.72595383903854 4056.7448979591836 441.29796426599523 4078.5408163265306 441.489616515065 4100.336734693878 441.484756503997 4122.132653061224 441.48316478044603 4143.928571428572 441.48654078274615 4165.724489795918 441.3391880005887 4187.5204081632655 441.17336955313306 4209.316326530612 441.17078340782746 4231.1122448979595 440.94196380839696 4252.908163265306 440.40760550465325 4274.7040816326535 440.40616975209355 4296.5 440.34799215358134 4296.5 398.00000000000006 4274.7040816326535 398.0000000000001 4252.908163265306 398 4231.1122448979595 398 4209.316326530612 398 4187.5204081632655 397.99999999999994 4165.724489795918 398 4143.928571428572 398 4122.132653061224 397.99999999999994 4100.336734693878 398 4078.5408163265306 398 4056.7448979591836 397.99999999999994 4034.9489795918366 398 4013.1530612244896 398 3991.357142857143 397.99999999999994 3969.5612244897957 398.00000000000006 3947.765306122449 398 3925.969387755102 398 3904.173469387755 398.00000000000006 3882.377551020408 397.99999999999994 3860.581632653061 398 3838.785714285714 398.00000000000006 3816.9897959183672 398 3795.1938775510203 398 3773.3979591836733 398 3751.6020408163267 398 3729.8061224489797 398.00000000000006 3708.0102040816328 398 3686.214285714286 398 3664.418367346939 398 3642.622448979592 398 3620.826530612245 397.99999999999994 3599.030612244898 398 3577.234693877551 398.00000000000006 3555.4387755102043 397.99999999999994 3533.6428571428573 398.00000000000006 3511.8469387755104 398 3490.0510204081634 398 3468.2551020408164 398 3446.4591836734694 398 3424.6632653061224 398.00000000000006 3402.8673469387754 398 3381.0714285714284 398 3359.2755102040815 398 3337.4795918367345 397.99999999999994 3315.683673469388 398 3293.887755102041 398 3272.091836734694 398 3250.295918367347 398 3228.5 398 3228.5 567.5130485279316Z" fill="#005aa6" opacity="0.9" />
		</g>
		<g>
			<rect x="4372" y="431" width="22.9995" height="23" fill="#e62d39" />
		</g>
		<g>
			<text fill="#595959" font-family="Verdana,Open Sans,DejaVu Sans,sans-serif" font-weight="400" font-size="41" transform="matrix(1 0 0 1 4404.56 454)">Non-Crawler</text>
		</g>
		<g>
			<rect x="4372" y="508" width="22.9995" height="23" fill="#005aa6" />
		</g>
		<g>
			<text fill="#595959" font-family="Verdana,Open Sans,DejaVu Sans,sans-serif" font-weight="400" font-size="41" transform="matrix(1 0 0 1 4404.56 531)">Crawler</text>
		</g>
	</g>
</svg>
