<svg width="1763" height="1046"
    xmlns="http://www.w3.org/2000/svg"
	xmlns:xlink="http://www.w3.org/1999/xlink" xml:space="preserve" overflow="hidden">
	<defs>
		<clipPath id="clip0">
			<rect x="2917" y="346" width="1763" height="1046"/>
		</clipPath>
	</defs>
	<g clip-path="url(#clip0)" transform="translate(-2917 -346)">
		<rect x="2918" y="347" width="1760" height="1043" fill="#FFFFFF" />
		<g>
			<path d="
			M3228.5 974.532 4296.5 974.532
			M3228.5 910.53 4296.5 910.53
			M3228.5 846.528 4296.5 846.528
			M3228.5 781.526 4296.5 781.526
			M3228.5 717.524 4296.5 717.524
			M3228.5 653.522 4296.5 653.522
			M3228.5 589.52 4296.5 589.52
			M3228.5 525.517 4296.5 525.517
			M3228.5 461.515 4296.5 461.515
			M3228.5 397.5 4296.5 397.5" stroke="#D9D9D9" stroke-width="3.4375" stroke-linejoin="round" stroke-miterlimit="10" fill="none" />
		</g>
		<g>
			<path d="M 1038.5 4296.5 1038.5" stroke="#D9D9D9" stroke-width="3.4375" stroke-linejoin="round" stroke-miterlimit="10" fill="none" fill-rule="evenodd" />
		</g>
		<g>
			<text fill="#595959" font-family="Verdana,Open Sans,DejaVu Sans,sans-serif" font-weight="400" font-size="41" transform="matrix(6.12323e-17 -1 1 6.12323e-17 3248.289306640625 1216.47509765625)">05-May</text>
		</g>
		<g>
			<text fill="#595959" font-family="Verdana,Open Sans,DejaVu Sans,sans-serif" font-weight="400" font-size="41" transform="matrix(6.12323e-17 -1 1 6.12323e-17 3332.65826171875 1194.0131759643555)">09-Jun</text>
		</g>
		<g>
			<text fill="#595959" font-family="Verdana,Open Sans,DejaVu Sans,sans-serif" font-weight="400" font-size="41" transform="matrix(6.12323e-17 -1 1 6.12323e-17 3418.808955078125 1178.9985275268555)">07-Jul</text>
		</g>
		<g>
			<text fill="#595959" font-family="Verdana,Open Sans,DejaVu Sans,sans-serif" font-weight="400" font-size="41" transform="matrix(6.12323e-17 -1 1 6.12323e-17 3504.609306640625 1208.62744140625)">04-Aug</text>
		</g>
		<g>
			<text fill="#595959" font-family="Verdana,Open Sans,DejaVu Sans,sans-serif" font-weight="400" font-size="41" transform="matrix(6.12323e-17 -1 1 6.12323e-17 3590.049306640625 1204.38330078125)">01-Sep</text>
		</g>
		<g>
			<text fill="#595959" font-family="Verdana,Open Sans,DejaVu Sans,sans-serif" font-weight="400" font-size="41" transform="matrix(6.12323e-17 -1 1 6.12323e-17 3675.469287109375 1204.42333984375)">29-Sep</text>
		</g>
		<g>
			<text fill="#595959" font-family="Verdana,Open Sans,DejaVu Sans,sans-serif" font-weight="400" font-size="41" transform="matrix(6.12323e-17 -1 1 6.12323e-17 3756.204697265625 1201.1401290893555)">27-Oct</text>
		</g>
		<g>
			<text fill="#595959" font-family="Verdana,Open Sans,DejaVu Sans,sans-serif" font-weight="400" font-size="41" transform="matrix(6.12323e-17 -1 1 6.12323e-17 3841.624677734375 1211.47021484375)">24-Nov</text>
		</g>
		<g>
			<text fill="#595959" font-family="Verdana,Open Sans,DejaVu Sans,sans-serif" font-weight="400" font-size="41" transform="matrix(6.12323e-17 -1 1 6.12323e-17 3927.064677734375 1207.1259765625)">22-Dec</text>
		</g>
		<g>
			<text fill="#595959" font-family="Verdana,Open Sans,DejaVu Sans,sans-serif" font-weight="400" font-size="41" transform="matrix(6.12323e-17 -1 1 6.12323e-17 4016.1582421875 1189.9291915893555)">19-Jan</text>
		</g>
		<g>
			<text fill="#595959" font-family="Verdana,Open Sans,DejaVu Sans,sans-serif" font-weight="400" font-size="41" transform="matrix(6.12323e-17 -1 1 6.12323e-17 4098.675390625 1201.3203125)">16-Feb</text>
		</g>
		<g>
			<text fill="#595959" font-family="Verdana,Open Sans,DejaVu Sans,sans-serif" font-weight="400" font-size="41" transform="matrix(6.12323e-17 -1 1 6.12323e-17 4183.384677734375 1210.2890625)">16-Mar</text>
		</g>
		<g>
			<text fill="#595959" font-family="Verdana,Open Sans,DejaVu Sans,sans-serif" font-weight="400" font-size="41" transform="matrix(6.12323e-17 -1 1 6.12323e-17 4273.549287109375 1201.5405197143555)">13-Apr</text>
		</g>
		<g>
			<text fill="#595959" font-family="Verdana,Open Sans,DejaVu Sans,sans-serif" font-weight="400" font-size="41" transform="matrix(1 0 0 1 3169.14111328125 1050)">0</text>
		</g>
		<g>
			<text fill="#595959" font-family="Verdana,Open Sans,DejaVu Sans,sans-serif" font-weight="400" font-size="41" transform="matrix(1 0 0 1 3145.578125 922)">77</text>
		</g>
		<g>
			<text fill="#595959" font-family="Verdana,Open Sans,DejaVu Sans,sans-serif" font-weight="400" font-size="41" transform="matrix(1 0 0 1 3122.755859375 794)">154</text>
		</g>
		<g>
			<text fill="#595959" font-family="Verdana,Open Sans,DejaVu Sans,sans-serif" font-weight="400" font-size="41" transform="matrix(1 0 0 1 3129.3022499084473 666)">231</text>
		</g>
		<g>
			<text fill="#595959" font-family="Verdana,Open Sans,DejaVu Sans,sans-serif" font-weight="400" font-size="41" transform="matrix(1 0 0 1 3122.17529296875 538)">308</text>
		</g>
		<g>
			<text fill="#595959" font-family="Verdana,Open Sans,DejaVu Sans,sans-serif" font-weight="400" font-size="41" transform="matrix(1 0 0 1 3122.41552734375 410)">385</text>
		</g>
		<g>
			<text fill="#595959" font-family="Verdana,Open Sans,DejaVu Sans,sans-serif" font-weight="400" font-size="41" transform="matrix(1 0 0 1 3556.97119140625 1321)">Week Commencing</text>
		</g>
		<g>
			<text fill="#595959" font-family="Verdana,Open Sans,DejaVu Sans,sans-serif" font-weight="400" font-size="46" transform="matrix(6.12323e-17 -1 1 6.12323e-17 3019.73 1005.4858093261719)">Number of Crawler Profiles</text>
		</g>
		<rect x="2918.5" y="347.5" width="1760" height="1043" stroke="#D9D9D9" stroke-width="3.4375" stroke-linejoin="round" stroke-miterlimit="10" fill="none" />
		<g>
			<path d="M3228.5 1038 3249.86 1038 3271.22 1038 3292.58 1038 3313.94 1038 3335.3 1038 3356.66 1038 3378.02 1038 3399.38 1038 3420.74 1038 3442.1 1038 3463.46 1038 3484.82 1038 3506.18 1038 3527.54 1038 3548.9 1038 3570.26 1038 3591.62 1038 3612.98 1038 3634.34 1038 3655.7 1038 3677.06 1038 3698.42 1038 3719.7799999999997 1038 3741.14 1038 3762.5 1038 3783.86 1038 3805.2200000000003 1038 3826.58 1038 3847.94 1038 3869.3 1038 3890.66 1038 3912.02 1038 3933.38 1038 3954.74 1038 3976.1 1038 3997.46 1038 4018.8199999999997 1038 4040.18 1038 4061.54 1038 4082.9 1038 4104.26 1038 4125.62 1038 4146.98 1038 4168.34 1038 4189.7 1038 4211.0599999999995 1038 4232.42 1038 4253.78 1038 4275.139999999999 1038 4296.5 1038 4296.5 399.6623376623377 4275.139999999999 402.9870129870129 4253.78 409.6363636363636 4232.42 409.6363636363636 4211.0599999999995 409.6363636363636 4189.7 426.25974025974017 4168.34 426.25974025974017 4146.98 426.25974025974017 4125.62 429.5844155844155 4104.26 432.9090909090909 4082.9 429.5844155844155 4061.54 437.8961038961039 4040.18 459.5064935064935 4018.8199999999997 461.16883116883116 3997.46 462.83116883116884 3976.1 462.83116883116884 3954.74 462.83116883116884 3933.38 464.4935064935064 3912.02 467.81818181818176 3890.66 469.48051948051943 3869.3 471.1428571428571 3847.94 476.12987012987014 3826.58 476.12987012987014 3805.2200000000003 476.12987012987014 3783.86 477.7922077922077 3762.5 481.11688311688306 3741.14 481.11688311688306 3719.7799999999997 481.11688311688306 3698.42 482.77922077922074 3677.06 482.77922077922074 3655.7 482.77922077922074 3634.34 489.42857142857144 3612.98 489.42857142857144 3591.62 489.42857142857144 3570.26 489.42857142857144 3548.9 489.42857142857144 3527.54 489.42857142857144 3506.18 489.42857142857144 3484.82 489.42857142857144 3463.46 489.42857142857144 3442.1 491.090909090909 3420.74 491.090909090909 3399.38 492.7532467532467 3378.02 492.7532467532467 3356.66 501.06493506493507 3335.3 502.72727272727275 3313.94 502.72727272727275 3292.58 506.051948051948 3271.22 507.71428571428567 3249.86 512.7012987012987 3228.5 514.3636363636364 3228.5 1038Z" fill="#005aa6" opacity="0.9" />
		</g>
		<g>
			<path d="M3228.5 514.3636363636364 3249.86 512.7012987012987 3271.22 507.71428571428567 3292.58 506.051948051948 3313.94 502.72727272727275 3335.3 502.72727272727275 3356.66 501.06493506493507 3378.02 492.7532467532467 3399.38 492.7532467532467 3420.74 491.090909090909 3442.1 491.090909090909 3463.46 489.42857142857144 3484.82 489.42857142857144 3506.18 489.42857142857144 3527.54 489.42857142857144 3548.9 489.42857142857144 3570.26 489.42857142857144 3591.62 489.42857142857144 3612.98 489.42857142857144 3634.34 489.42857142857144 3655.7 482.77922077922074 3677.06 482.77922077922074 3698.42 482.77922077922074 3719.7799999999997 481.11688311688306 3741.14 481.11688311688306 3762.5 481.11688311688306 3783.86 477.7922077922077 3805.2200000000003 476.12987012987014 3826.58 476.12987012987014 3847.94 476.12987012987014 3869.3 471.1428571428571 3890.66 469.48051948051943 3912.02 467.81818181818176 3933.38 464.4935064935064 3954.74 462.83116883116884 3976.1 462.83116883116884 3997.46 462.83116883116884 4018.8199999999997 461.16883116883116 4040.18 459.5064935064935 4061.54 437.8961038961039 4082.9 429.5844155844155 4104.26 432.9090909090909 4125.62 429.5844155844155 4146.98 426.25974025974017 4168.34 426.25974025974017 4189.7 426.25974025974017 4211.0599999999995 409.6363636363636 4232.42 409.6363636363636 4253.78 409.6363636363636 4275.139999999999 402.9870129870129 4296.5 399.6623376623377 4296.5 398 4275.139999999999 401.32467532467524 4253.78 407.97402597402595 4232.42 407.97402597402595 4211.0599999999995 407.97402597402595 4189.7 424.5974025974025 4168.34 424.5974025974025 4146.98 424.5974025974025 4125.62 427.92207792207785 4104.26 429.5844155844156 4082.9 426.2597402597402 4061.54 436.23376623376623 4040.18 457.8441558441558 4018.8199999999997 459.5064935064935 3997.46 461.16883116883116 3976.1 461.16883116883116 3954.74 461.16883116883116 3933.38 462.8311688311687 3912.02 466.1558441558441 3890.66 467.81818181818176 3869.3 469.48051948051943 3847.94 474.46753246753246 3826.58 474.46753246753246 3805.2200000000003 474.46753246753246 3783.86 476.12987012987 3762.5 479.4545454545454 3741.14 479.4545454545454 3719.7799999999997 479.4545454545454 3698.42 481.11688311688306 3677.06 481.11688311688306 3655.7 481.11688311688306 3634.34 487.76623376623377 3612.98 487.76623376623377 3591.62 487.76623376623377 3570.26 487.76623376623377 3548.9 487.76623376623377 3527.54 487.76623376623377 3506.18 487.76623376623377 3484.82 487.76623376623377 3463.46 487.76623376623377 3442.1 489.42857142857133 3420.74 489.42857142857133 3399.38 491.090909090909 3378.02 491.090909090909 3356.66 499.4025974025974 3335.3 501.06493506493507 3313.94 501.06493506493507 3292.58 504.3896103896103 3271.22 506.051948051948 3249.86 511.038961038961 3228.5 512.7012987012987 3228.5 514.3636363636364Z" fill="#e62d39" opacity="0.9" />
		</g>
		<g>
			<rect x="4372" y="431" width="22.9995" height="23" fill="#005aa6" />
		</g>
		<g>
			<text fill="#595959" font-family="Verdana,Open Sans,DejaVu Sans,sans-serif" font-weight="400" font-size="41" transform="matrix(1 0 0 1 4404.56 454)">Crawler</text>
		</g>
		<g>
			<rect x="4372" y="508" width="22.9995" height="23" fill="#e62d39" />
		</g>
		<g>
			<text fill="#595959" font-family="Verdana,Open Sans,DejaVu Sans,sans-serif" font-weight="400" font-size="41" transform="matrix(1 0 0 1 4404.56 531)">Non-Crawler</text>
		</g>
	</g>
</svg>
