<svg width="1763" height="1046"
    xmlns="http://www.w3.org/2000/svg"
	xmlns:xlink="http://www.w3.org/1999/xlink" xml:space="preserve" overflow="hidden">
	<defs>
		<clipPath id="clip0">
			<rect x="2917" y="346" width="1763" height="1046"/>
		</clipPath>
	</defs>
	<g clip-path="url(#clip0)" transform="translate(-2917 -346)">
		<rect x="2918" y="347" width="1760" height="1043" fill="#FFFFFF" />
		<g>
			<path d="
			M3228.5 974.532 4296.5 974.532
			M3228.5 910.53 4296.5 910.53
			M3228.5 846.528 4296.5 846.528
			M3228.5 781.526 4296.5 781.526
			M3228.5 717.524 4296.5 717.524
			M3228.5 653.522 4296.5 653.522
			M3228.5 589.52 4296.5 589.52
			M3228.5 525.517 4296.5 525.517
			M3228.5 461.515 4296.5 461.515
			M3228.5 397.5 4296.5 397.5" stroke="#D9D9D9" stroke-width="3.4375" stroke-linejoin="round" stroke-miterlimit="10" fill="none" />
		</g>
		<g>
			<path d="M 1038.5 4296.5 1038.5" stroke="#D9D9D9" stroke-width="3.4375" stroke-linejoin="round" stroke-miterlimit="10" fill="none" fill-rule="evenodd" />
		</g>
		<g>
			<text fill="#595959" font-family="Verdana,Open Sans,DejaVu Sans,sans-serif" font-weight="400" font-size="41" transform="matrix(6.12323e-17 -1 1 6.12323e-17 3247.928955078125 1178.9985275268555)">08-Jul</text>
		</g>
		<g>
			<text fill="#595959" font-family="Verdana,Open Sans,DejaVu Sans,sans-serif" font-weight="400" font-size="41" transform="matrix(6.12323e-17 -1 1 6.12323e-17 3335.472980110013 1208.62744140625)">05-Aug</text>
		</g>
		<g>
			<text fill="#595959" font-family="Verdana,Open Sans,DejaVu Sans,sans-serif" font-weight="400" font-size="41" transform="matrix(6.12323e-17 -1 1 6.12323e-17 3422.6566535794004 1204.38330078125)">02-Sep</text>
		</g>
		<g>
			<text fill="#595959" font-family="Verdana,Open Sans,DejaVu Sans,sans-serif" font-weight="400" font-size="41" transform="matrix(6.12323e-17 -1 1 6.12323e-17 3509.8403270487884 1204.54345703125)">30-Sep</text>
		</g>
		<g>
			<text fill="#595959" font-family="Verdana,Open Sans,DejaVu Sans,sans-serif" font-weight="400" font-size="41" transform="matrix(6.12323e-17 -1 1 6.12323e-17 3592.299391143176 1201.1401290893555)">28-Oct</text>
		</g>
		<g>
			<text fill="#595959" font-family="Verdana,Open Sans,DejaVu Sans,sans-serif" font-weight="400" font-size="41" transform="matrix(6.12323e-17 -1 1 6.12323e-17 3679.463045081314 1211.47021484375)">25-Nov</text>
		</g>
		<g>
			<text fill="#595959" font-family="Verdana,Open Sans,DejaVu Sans,sans-serif" font-weight="400" font-size="41" transform="matrix(6.12323e-17 -1 1 6.12323e-17 3766.6667380819517 1207.24609375)">30-Dec</text>
		</g>
		<g>
			<text fill="#595959" font-family="Verdana,Open Sans,DejaVu Sans,sans-serif" font-weight="400" font-size="41" transform="matrix(6.12323e-17 -1 1 6.12323e-17 3857.483956473214 1191.6909103393555)">27-Jan</text>
		</g>
		<g>
			<text fill="#595959" font-family="Verdana,Open Sans,DejaVu Sans,sans-serif" font-weight="400" font-size="41" transform="matrix(6.12323e-17 -1 1 6.12323e-17 3941.744778380102 1203.08203125)">24-Feb</text>
		</g>
		<g>
			<text fill="#595959" font-family="Verdana,Open Sans,DejaVu Sans,sans-serif" font-weight="400" font-size="41" transform="matrix(6.12323e-17 -1 1 6.12323e-17 4028.1977389588646 1212.05078125)">24-Mar</text>
		</g>
		<g>
			<text fill="#595959" font-family="Verdana,Open Sans,DejaVu Sans,sans-serif" font-weight="400" font-size="41" transform="matrix(6.12323e-17 -1 1 6.12323e-17 4120.106021803253 1203.3022384643555)">21-Apr</text>
		</g>
		<g>
			<text fill="#595959" font-family="Verdana,Open Sans,DejaVu Sans,sans-serif" font-weight="400" font-size="41" transform="matrix(6.12323e-17 -1 1 6.12323e-17 4207.2896952726405 1214.75341796875)">19-May</text>
		</g>
		<g>
			<text fill="#595959" font-family="Verdana,Open Sans,DejaVu Sans,sans-serif" font-weight="400" font-size="41" transform="matrix(6.12323e-17 -1 1 6.12323e-17 4293.4023238201535 1194.0532150268555)">23-Jun</text>
		</g>
		<g>
			<text fill="#595959" font-family="Verdana,Open Sans,DejaVu Sans,sans-serif" font-weight="400" font-size="41" transform="matrix(1 0 0 1 3135.4482421875 1050)">0%</text>
		</g>
		<g>
			<text fill="#595959" font-family="Verdana,Open Sans,DejaVu Sans,sans-serif" font-weight="400" font-size="41" transform="matrix(1 0 0 1 3111.96533203125 922)">20%</text>
		</g>
		<g>
			<text fill="#595959" font-family="Verdana,Open Sans,DejaVu Sans,sans-serif" font-weight="400" font-size="41" transform="matrix(1 0 0 1 3110.82421875 794)">40%</text>
		</g>
		<g>
			<text fill="#595959" font-family="Verdana,Open Sans,DejaVu Sans,sans-serif" font-weight="400" font-size="41" transform="matrix(1 0 0 1 3112.3056640625 666)">60%</text>
		</g>
		<g>
			<text fill="#595959" font-family="Verdana,Open Sans,DejaVu Sans,sans-serif" font-weight="400" font-size="41" transform="matrix(1 0 0 1 3112.04541015625 538)">80%</text>
		</g>
		<g>
			<text fill="#595959" font-family="Verdana,Open Sans,DejaVu Sans,sans-serif" font-weight="400" font-size="41" transform="matrix(1 0 0 1 3090.2841796875 410)">100%</text>
		</g>
		<g>
			<text fill="#595959" font-family="Verdana,Open Sans,DejaVu Sans,sans-serif" font-weight="400" font-size="41" transform="matrix(1 0 0 1 3556.97119140625 1321)">Week Commencing</text>
		</g>
		<g>
			<text fill="#595959" font-family="Verdana,Open Sans,DejaVu Sans,sans-serif" font-weight="400" font-size="46" transform="matrix(6.12323e-17 -1 1 6.12323e-17 3019.73 936.7665710449219)">Requests (% of Total)</text>
		</g>
		<rect x="2918.5" y="347.5" width="1760" height="1043" stroke="#D9D9D9" stroke-width="3.4375" stroke-linejoin="round" stroke-miterlimit="10" fill="none" />
		<g>
			<path d="M3228.5 1038 3250.295918367347 1038 3272.091836734694 1038 3293.887755102041 1038 3315.683673469388 1038 3337.4795918367345 1038 3359.2755102040815 1038 3381.0714285714284 1038 3402.8673469387754 1038 3424.6632653061224 1038 3446.4591836734694 1038 3468.2551020408164 1038 3490.0510204081634 1038 3511.8469387755104 1038 3533.6428571428573 1038 3555.4387755102043 1038 3577.234693877551 1038 3599.030612244898 1038 3620.826530612245 1038 3642.622448979592 1038 3664.418367346939 1038 3686.214285714286 1038 3708.0102040816328 1038 3729.8061224489797 1038 3751.6020408163267 1038 3773.3979591836733 1038 3795.1938775510203 1038 3816.9897959183672 1038 3838.785714285714 1038 3860.581632653061 1038 3882.377551020408 1038 3904.173469387755 1038 3925.969387755102 1038 3947.765306122449 1038 3969.5612244897957 1038 3991.357142857143 1038 4013.1530612244896 1038 4034.9489795918366 1038 4056.7448979591836 1038 4078.5408163265306 1038 4100.336734693878 1038 4122.132653061224 1038 4143.928571428572 1038 4165.724489795918 1038 4187.5204081632655 1038 4209.316326530612 1038 4231.1122448979595 1038 4252.908163265306 1038 4274.7040816326535 1038 4296.5 1038 4296.5 442.8417422387853 4274.7040816326535 442.854171965349 4252.908163265306 442.95845521922934 4231.1122448979595 442.9731674669964 4209.316326530612 443.09587998074596 4187.5204081632655 442.9453880046191 4165.724489795918 442.7539759175269 4143.928571428572 442.4035157162202 4122.132653061224 442.11056785584276 4100.336734693878 441.83280494374446 4078.5408163265306 441.70333243098173 4056.7448979591836 441.6626940555466 4034.9489795918366 441.6573661278967 4013.1530612244896 441.5375979828307 3991.357142857143 441.406683369976 3969.5612244897957 441.167209213907 3947.765306122449 441.0289316920836 3925.969387755102 441.03561787240676 3904.173469387755 441.06205687573333 3882.377551020408 441.14123809544583 3860.581632653061 441.04668014176025 3838.785714285714 441.3325461823914 3816.9897959183672 441.50673382811704 3795.1938775510203 441.5263210359809 3773.3979591836733 441.5338725099368 3751.6020408163267 441.5429030927178 3729.8061224489797 441.47417224977323 3708.0102040816328 441.4594945700171 3686.214285714286 441.38808556766435 3664.418367346939 441.3288056085928 3642.622448979592 441.47308833726333 3620.826530612245 441.645038932872 3599.030612244898 441.9852131881347 3577.234693877551 442.33307896966517 3555.4387755102043 566.5721783366624 3533.6428571428573 567.1308685788513 3511.8469387755104 567.5130485279316 3490.0510204081634 568.0135171374827 3468.2551020408164 568.6966145549849 3446.4591836734694 569.582505337425 3424.6632653061224 569.9559975833151 3402.8673469387754 570.7071585028136 3381.0714285714284 571.2237275515587 3359.2755102040815 571.9035338843237 3337.4795918367345 572.0631883952817 3315.683673469388 572.5486893796854 3293.887755102041 572.9112818795618 3272.091836734694 572.7332415748011 3250.295918367347 572.862060937991 3228.5 572.9365512268143 3228.5 1038Z" fill="#e62d39" opacity="0.9" />
		</g>
		<g>
			<path d="M3228.5 572.9365512268143 3250.295918367347 572.862060937991 3272.091836734694 572.7332415748011 3293.887755102041 572.9112818795618 3315.683673469388 572.5486893796854 3337.4795918367345 572.0631883952817 3359.2755102040815 571.9035338843237 3381.0714285714284 571.2237275515587 3402.8673469387754 570.7071585028136 3424.6632653061224 569.9559975833151 3446.4591836734694 569.582505337425 3468.2551020408164 568.6966145549849 3490.0510204081634 568.0135171374827 3511.8469387755104 567.5130485279316 3533.6428571428573 567.1308685788513 3555.4387755102043 566.5721783366624 3577.234693877551 442.33307896966517 3599.030612244898 441.9852131881347 3620.826530612245 441.645038932872 3642.622448979592 441.47308833726333 3664.418367346939 441.3288056085928 3686.214285714286 441.38808556766435 3708.0102040816328 441.4594945700171 3729.8061224489797 441.47417224977323 3751.6020408163267 441.5429030927178 3773.3979591836733 441.5338725099368 3795.1938775510203 441.5263210359809 3816.9897959183672 441.50673382811704 3838.785714285714 441.3325461823914 3860.581632653061 441.04668014176025 3882.377551020408 441.14123809544583 3904.173469387755 441.06205687573333 3925.969387755102 441.03561787240676 3947.765306122449 441.0289316920836 3969.5612244897957 441.167209213907 3991.357142857143 441.406683369976 4013.1530612244896 441.5375979828307 4034.9489795918366 441.6573661278967 4056.7448979591836 441.6626940555466 4078.5408163265306 441.70333243098173 4100.336734693878 441.83280494374446 4122.132653061224 442.11056785584276 4143.928571428572 442.4035157162202 4165.724489795918 442.7539759175269 4187.5204081632655 442.9453880046191 4209.316326530612 443.09587998074596 4231.1122448979595 442.9731674669964 4252.908163265306 442.95845521922934 4274.7040816326535 442.854171965349 4296.5 442.8417422387853 4296.5 398 4274.7040816326535 397.99999999999994 4252.908163265306 398.00000000000006 4231.1122448979595 398 4209.316326530612 398 4187.5204081632655 398.00000000000006 4165.724489795918 397.99999999999994 4143.928571428572 398 4122.132653061224 398.00000000000006 4100.336734693878 398 4078.5408163265306 398 4056.7448979591836 398 4034.9489795918366 398 4013.1530612244896 398.00000000000006 3991.357142857143 398 3969.5612244897957 398 3947.765306122449 398 3925.969387755102 398 3904.173469387755 397.99999999999994 3882.377551020408 398 3860.581632653061 398.00000000000006 3838.785714285714 397.99999999999994 3816.9897959183672 398.00000000000006 3795.1938775510203 398 3773.3979591836733 398 3751.6020408163267 398 3729.8061224489797 398 3708.0102040816328 398.00000000000006 3686.214285714286 398 3664.418367346939 398 3642.622448979592 398 3620.826530612245 397.99999999999994 3599.030612244898 398 3577.234693877551 398 3555.4387755102043 398 3533.6428571428573 398 3511.8469387755104 398 3490.0510204081634 398 3468.2551020408164 398 3446.4591836734694 398 3424.6632653061224 398.00000000000006 3402.8673469387754 398 3381.0714285714284 398 3359.2755102040815 398 3337.4795918367345 398.00000000000006 3315.683673469388 398 3293.887755102041 397.99999999999994 3272.091836734694 398 3250.295918367347 397.99999999999994 3228.5 398.00000000000006 3228.5 572.9365512268143Z" fill="#005aa6" opacity="0.9" />
		</g>
		<g>
			<rect x="4372" y="431" width="22.9995" height="23" fill="#e62d39" />
		</g>
		<g>
			<text fill="#595959" font-family="Verdana,Open Sans,DejaVu Sans,sans-serif" font-weight="400" font-size="41" transform="matrix(1 0 0 1 4404.56 454)">Non-Crawler</text>
		</g>
		<g>
			<rect x="4372" y="508" width="22.9995" height="23" fill="#005aa6" />
		</g>
		<g>
			<text fill="#595959" font-family="Verdana,Open Sans,DejaVu Sans,sans-serif" font-weight="400" font-size="41" transform="matrix(1 0 0 1 4404.56 531)">Crawler</text>
		</g>
	</g>
</svg>
