<svg width="1763" height="1046"
    xmlns="http://www.w3.org/2000/svg"
	xmlns:xlink="http://www.w3.org/1999/xlink" xml:space="preserve" overflow="hidden">
	<defs>
		<clipPath id="clip0">
			<rect x="2917" y="346" width="1763" height="1046"/>
		</clipPath>
	</defs>
	<g clip-path="url(#clip0)" transform="translate(-2917 -346)">
		<rect x="2918" y="347" width="1760" height="1043" fill="#FFFFFF" />
		<g>
			<path d="
			M3228.5 974.532 4296.5 974.532
			M3228.5 910.53 4296.5 910.53
			M3228.5 846.528 4296.5 846.528
			M3228.5 781.526 4296.5 781.526
			M3228.5 717.524 4296.5 717.524
			M3228.5 653.522 4296.5 653.522
			M3228.5 589.52 4296.5 589.52
			M3228.5 525.517 4296.5 525.517
			M3228.5 461.515 4296.5 461.515
			M3228.5 397.5 4296.5 397.5" stroke="#D9D9D9" stroke-width="3.4375" stroke-linejoin="round" stroke-miterlimit="10" fill="none" />
		</g>
		<g>
			<path d="M 1038.5 4296.5 1038.5" stroke="#D9D9D9" stroke-width="3.4375" stroke-linejoin="round" stroke-miterlimit="10" fill="none" fill-rule="evenodd" />
		</g>
		<g>
			<text fill="#595959" font-family="Verdana,sans-serif" font-weight="400" font-size="41" transform="matrix(6.12323e-17 -1 1 6.12323e-17 3244.5 1210)">01-Jan</text>
		</g>
		<g>
			<text fill="#595959" font-family="Verdana,sans-serif" font-weight="400" font-size="41" transform="matrix(6.12323e-17 -1 1 6.12323e-17 3328.264705882353 1210)">29-Jan</text>
		</g>
		<g>
			<text fill="#595959" font-family="Verdana,sans-serif" font-weight="400" font-size="41" transform="matrix(6.12323e-17 -1 1 6.12323e-17 3412.029411764706 1216)">26-Feb</text>
		</g>
		<g>
			<text fill="#595959" font-family="Verdana,sans-serif" font-weight="400" font-size="41" transform="matrix(6.12323e-17 -1 1 6.12323e-17 3495.794117647059 1223)">25-Mar</text>
		</g>
		<g>
			<text fill="#595959" font-family="Verdana,sans-serif" font-weight="400" font-size="41" transform="matrix(6.12323e-17 -1 1 6.12323e-17 3583.0588235294117 1216)">22-Apr</text>
		</g>
		<g>
			<text fill="#595959" font-family="Verdana,sans-serif" font-weight="400" font-size="41" transform="matrix(6.12323e-17 -1 1 6.12323e-17 3666.823529411765 1228)">20-May</text>
		</g>
		<g>
			<text fill="#595959" font-family="Verdana,sans-serif" font-weight="400" font-size="41" transform="matrix(6.12323e-17 -1 1 6.12323e-17 3746.5882352941176 1209)">17-Jun</text>
		</g>
		<g>
			<text fill="#595959" font-family="Verdana,sans-serif" font-weight="400" font-size="41" transform="matrix(6.12323e-17 -1 1 6.12323e-17 3830.8529411764707 1194)">15-Jul</text>
		</g>
		<g>
			<text fill="#595959" font-family="Verdana,sans-serif" font-weight="400" font-size="41" transform="matrix(6.12323e-17 -1 1 6.12323e-17 3918.1176470588234 1218)">12-Aug</text>
		</g>
		<g>
			<text fill="#595959" font-family="Verdana,sans-serif" font-weight="400" font-size="41" transform="matrix(6.12323e-17 -1 1 6.12323e-17 4001.8823529411766 1222)">09-Sep</text>
		</g>
		<g>
			<text fill="#595959" font-family="Verdana,sans-serif" font-weight="400" font-size="41" transform="matrix(6.12323e-17 -1 1 6.12323e-17 4082.1470588235293 1215)">07-Oct</text>
		</g>
		<g>
			<text fill="#595959" font-family="Verdana,sans-serif" font-weight="400" font-size="41" transform="matrix(6.12323e-17 -1 1 6.12323e-17 4165.911764705882 1225)">04-Nov</text>
		</g>
		<g>
			<text fill="#595959" font-family="Verdana,sans-serif" font-weight="400" font-size="41" transform="matrix(6.12323e-17 -1 1 6.12323e-17 4249.676470588235 1223)">09-Dec</text>
		</g>
		<g>
			<text fill="#595959" font-family="Verdana,sans-serif" font-weight="400" font-size="41" transform="matrix(1 0 0 1 3167.5 1050)">0</text>
		</g>
		<g>
			<text fill="#595959" font-family="Verdana,sans-serif" font-weight="400" font-size="41" transform="matrix(1 0 0 1 3142.5 922)">61</text>
		</g>
		<g>
			<text fill="#595959" font-family="Verdana,sans-serif" font-weight="400" font-size="41" transform="matrix(1 0 0 1 3118.5 794)">122</text>
		</g>
		<g>
			<text fill="#595959" font-family="Verdana,sans-serif" font-weight="400" font-size="41" transform="matrix(1 0 0 1 3118.5 666)">183</text>
		</g>
		<g>
			<text fill="#595959" font-family="Verdana,sans-serif" font-weight="400" font-size="41" transform="matrix(1 0 0 1 3115.5 538)">244</text>
		</g>
		<g>
			<text fill="#595959" font-family="Verdana,sans-serif" font-weight="400" font-size="41" transform="matrix(1 0 0 1 3116.5 410)">305</text>
		</g>
		<g>
			<text fill="#595959" font-family="Verdana,sans-serif" font-weight="400" font-size="41" transform="matrix(1 0 0 1 3544.5 1321)">Week Commencing</text>
		</g>
		<g>
			<text fill="#595959" font-family="Verdana,sans-serif" font-weight="400" font-size="46" transform="matrix(6.12323e-17 -1 1 6.12323e-17 3019.73 1024.75)">Number of Crawler Profiles</text>
		</g>
		<rect x="2918.5" y="347.5" width="1760" height="1043" stroke="#D9D9D9" stroke-width="3.4375" stroke-linejoin="round" stroke-miterlimit="10" fill="none" />
		<g>
			<path d="M3228.5 1038 3249.4411764705883 1038 3270.3823529411766 1038 3291.323529411765 1038 3312.264705882353 1038 3333.205882352941 1038 3354.1470588235293 1038 3375.0882352941176 1038 3396.029411764706 1038 3416.970588235294 1038 3437.9117647058824 1038 3458.8529411764707 1038 3479.794117647059 1038 3500.735294117647 1038 3521.676470588235 1038 3542.6176470588234 1038 3563.5588235294117 1038 3584.5 1038 3605.4411764705883 1038 3626.3823529411766 1038 3647.323529411765 1038 3668.264705882353 1038 3689.205882352941 1038 3710.1470588235293 1038 3731.0882352941176 1038 3752.029411764706 1038 3772.970588235294 1038 3793.9117647058824 1038 3814.8529411764707 1038 3835.7941176470586 1038 3856.735294117647 1038 3877.676470588235 1038 3898.6176470588234 1038 3919.5588235294117 1038 3940.5 1038 3961.4411764705883 1038 3982.3823529411766 1038 4003.323529411765 1038 4024.264705882353 1038 4045.2058823529414 1038 4066.1470588235293 1038 4087.0882352941176 1038 4108.029411764706 1038 4128.970588235294 1038 4149.911764705882 1038 4170.85294117647 1038 4191.794117647059 1038 4212.735294117647 1038 4233.676470588235 1038 4254.617647058823 1038 4275.558823529412 1038 4296.5 1038 4296.5 400.0983606557377 4275.558823529412 400.0983606557377 4254.617647058823 404.29508196721304 4233.676470588235 406.39344262295083 4212.735294117647 412.68852459016387 4191.794117647059 421.0819672131147 4170.85294117647 433.672131147541 4149.911764705882 439.96721311475403 4128.970588235294 439.96721311475403 4108.029411764706 437.86885245901635 4087.0882352941176 442.0655737704918 4066.1470588235293 448.36065573770486 4045.2058823529414 456.7540983606557 4024.264705882353 456.7540983606557 4003.323529411765 458.85245901639337 3982.3823529411766 469.344262295082 3961.4411764705883 473.54098360655735 3940.5 477.7377049180327 3919.5588235294117 477.7377049180327 3898.6176470588234 481.9344262295082 3877.676470588235 481.9344262295082 3856.735294117647 484.03278688524586 3835.7941176470586 486.13114754098353 3814.8529411764707 494.52459016393436 3793.9117647058824 500.8196721311475 3772.970588235294 509.21311475409834 3752.029411764706 515.5081967213115 3731.0882352941176 526 3710.1470588235293 530.1967213114754 3689.205882352941 530.1967213114754 3668.264705882353 530.1967213114754 3647.323529411765 532.295081967213 3626.3823529411766 536.4918032786885 3605.4411764705883 544.8852459016393 3584.5 549.0819672131147 3563.5588235294117 551.1803278688524 3542.6176470588234 551.1803278688524 3521.676470588235 559.5737704918033 3500.735294117647 559.5737704918033 3479.794117647059 570.0655737704917 3458.8529411764707 591.0491803278688 3437.9117647058824 595.2459016393443 3416.970588235294 599.4426229508197 3396.029411764706 609.9344262295082 3375.0882352941176 612.0327868852459 3354.1470588235293 612.0327868852459 3333.205882352941 614.1311475409836 3312.264705882353 618.327868852459 3291.323529411765 628.8196721311475 3270.3823529411766 630.9180327868853 3249.4411764705883 630.9180327868853 3228.5 635.1147540983607 3228.5 1038Z" fill="#005aa6" opacity="0.9" />
		</g>
		<g>
			<path d="M3228.5 635.1147540983607 3249.4411764705883 630.9180327868853 3270.3823529411766 630.9180327868853 3291.323529411765 628.8196721311475 3312.264705882353 618.327868852459 3333.205882352941 614.1311475409836 3354.1470588235293 612.0327868852459 3375.0882352941176 612.0327868852459 3396.029411764706 609.9344262295082 3416.970588235294 599.4426229508197 3437.9117647058824 595.2459016393443 3458.8529411764707 591.0491803278688 3479.794117647059 570.0655737704917 3500.735294117647 559.5737704918033 3521.676470588235 559.5737704918033 3542.6176470588234 551.1803278688524 3563.5588235294117 551.1803278688524 3584.5 549.0819672131147 3605.4411764705883 544.8852459016393 3626.3823529411766 536.4918032786885 3647.323529411765 532.295081967213 3668.264705882353 530.1967213114754 3689.205882352941 530.1967213114754 3710.1470588235293 530.1967213114754 3731.0882352941176 526 3752.029411764706 515.5081967213115 3772.970588235294 509.21311475409834 3793.9117647058824 500.8196721311475 3814.8529411764707 494.52459016393436 3835.7941176470586 486.13114754098353 3856.735294117647 484.03278688524586 3877.676470588235 481.9344262295082 3898.6176470588234 481.9344262295082 3919.5588235294117 477.7377049180327 3940.5 477.7377049180327 3961.4411764705883 473.54098360655735 3982.3823529411766 469.344262295082 4003.323529411765 458.85245901639337 4024.264705882353 456.7540983606557 4045.2058823529414 456.7540983606557 4066.1470588235293 448.36065573770486 4087.0882352941176 442.0655737704918 4108.029411764706 437.86885245901635 4128.970588235294 439.96721311475403 4149.911764705882 439.96721311475403 4170.85294117647 433.672131147541 4191.794117647059 421.0819672131147 4212.735294117647 412.68852459016387 4233.676470588235 406.39344262295083 4254.617647058823 404.29508196721304 4275.558823529412 400.0983606557377 4296.5 400.0983606557377 4296.5 398 4275.558823529412 398 4254.617647058823 402.19672131147536 4233.676470588235 404.29508196721315 4212.735294117647 410.5901639344262 4191.794117647059 418.983606557377 4170.85294117647 431.5737704918033 4149.911764705882 437.86885245901635 4128.970588235294 437.86885245901635 4108.029411764706 435.7704918032787 4087.0882352941176 439.96721311475414 4066.1470588235293 446.2622950819672 4045.2058823529414 454.655737704918 4024.264705882353 454.655737704918 4003.323529411765 456.7540983606557 3982.3823529411766 467.2459016393443 3961.4411764705883 471.44262295081967 3940.5 475.639344262295 3919.5588235294117 475.639344262295 3898.6176470588234 479.8360655737705 3877.676470588235 479.8360655737705 3856.735294117647 481.9344262295082 3835.7941176470586 484.03278688524586 3814.8529411764707 492.4262295081967 3793.9117647058824 498.72131147540983 3772.970588235294 507.11475409836066 3752.029411764706 513.4098360655738 3731.0882352941176 523.9016393442623 3710.1470588235293 528.0983606557377 3689.205882352941 528.0983606557377 3668.264705882353 528.0983606557377 3647.323529411765 530.1967213114754 3626.3823529411766 534.3934426229508 3605.4411764705883 542.7868852459017 3584.5 546.983606557377 3563.5588235294117 549.0819672131147 3542.6176470588234 549.0819672131147 3521.676470588235 557.4754098360656 3500.735294117647 557.4754098360656 3479.794117647059 567.967213114754 3458.8529411764707 588.9508196721312 3437.9117647058824 593.1475409836066 3416.970588235294 597.344262295082 3396.029411764706 607.8360655737705 3375.0882352941176 609.9344262295082 3354.1470588235293 609.9344262295082 3333.205882352941 612.032786885246 3312.264705882353 616.2295081967213 3291.323529411765 626.7213114754098 3270.3823529411766 628.8196721311476 3249.4411764705883 628.8196721311476 3228.5 633.016393442623 3228.5 635.1147540983607Z" fill="#e62d39" opacity="0.9" />
		</g>
		<g>
			<rect x="4372" y="431" width="22.9995" height="23" fill="#005aa6" />
		</g>
		<g>
			<text fill="#595959" font-family="Verdana,sans-serif" font-weight="400" font-size="41" transform="matrix(1 0 0 1 4404.56 454)">Crawler</text>
		</g>
		<g>
			<rect x="4372" y="508" width="22.9995" height="23" fill="#e62d39" />
		</g>
		<g>
			<text fill="#595959" font-family="Verdana,sans-serif" font-weight="400" font-size="41" transform="matrix(1 0 0 1 4404.56 531)">Non-Crawler</text>
		</g>
	</g>
</svg>
