<svg width="1763" height="1046"
    xmlns="http://www.w3.org/2000/svg"
	xmlns:xlink="http://www.w3.org/1999/xlink" xml:space="preserve" overflow="hidden">
	<defs>
		<clipPath id="clip0">
			<rect x="2917" y="346" width="1763" height="1046"/>
		</clipPath>
	</defs>
	<g clip-path="url(#clip0)" transform="translate(-2917 -346)">
		<rect x="2918" y="347" width="1760" height="1043" fill="#FFFFFF" />
		<g>
			<path d="
			M3228.5 974.532 4296.5 974.532
			M3228.5 910.53 4296.5 910.53
			M3228.5 846.528 4296.5 846.528
			M3228.5 781.526 4296.5 781.526
			M3228.5 717.524 4296.5 717.524
			M3228.5 653.522 4296.5 653.522
			M3228.5 589.52 4296.5 589.52
			M3228.5 525.517 4296.5 525.517
			M3228.5 461.515 4296.5 461.515
			M3228.5 397.5 4296.5 397.5" stroke="#D9D9D9" stroke-width="3.4375" stroke-linejoin="round" stroke-miterlimit="10" fill="none" />
		</g>
		<g>
			<path d="M 1038.5 4296.5 1038.5" stroke="#D9D9D9" stroke-width="3.4375" stroke-linejoin="round" stroke-miterlimit="10" fill="none" fill-rule="evenodd" />
		</g>
		<g>
			<text fill="#595959" font-family="Verdana,sans-serif" font-weight="400" font-size="41" transform="matrix(6.12323e-17 -1 1 6.12323e-17 3244.5 1217)">05-Feb</text>
		</g>
		<g>
			<text fill="#595959" font-family="Verdana,sans-serif" font-weight="400" font-size="41" transform="matrix(6.12323e-17 -1 1 6.12323e-17 3328.264705882353 1223)">04-Mar</text>
		</g>
		<g>
			<text fill="#595959" font-family="Verdana,sans-serif" font-weight="400" font-size="41" transform="matrix(6.12323e-17 -1 1 6.12323e-17 3415.529411764706 1217)">01-Apr</text>
		</g>
		<g>
			<text fill="#595959" font-family="Verdana,sans-serif" font-weight="400" font-size="41" transform="matrix(6.12323e-17 -1 1 6.12323e-17 3499.294117647059 1216)">29-Apr</text>
		</g>
		<g>
			<text fill="#595959" font-family="Verdana,sans-serif" font-weight="400" font-size="41" transform="matrix(6.12323e-17 -1 1 6.12323e-17 3583.0588235294117 1228)">27-May</text>
		</g>
		<g>
			<text fill="#595959" font-family="Verdana,sans-serif" font-weight="400" font-size="41" transform="matrix(6.12323e-17 -1 1 6.12323e-17 3663.323529411765 1211)">24-Jun</text>
		</g>
		<g>
			<text fill="#595959" font-family="Verdana,sans-serif" font-weight="400" font-size="41" transform="matrix(6.12323e-17 -1 1 6.12323e-17 3747.0882352941176 1196)">22-Jul</text>
		</g>
		<g>
			<text fill="#595959" font-family="Verdana,sans-serif" font-weight="400" font-size="41" transform="matrix(6.12323e-17 -1 1 6.12323e-17 3834.3529411764707 1218)">19-Aug</text>
		</g>
		<g>
			<text fill="#595959" font-family="Verdana,sans-serif" font-weight="400" font-size="41" transform="matrix(6.12323e-17 -1 1 6.12323e-17 3918.1176470588234 1219)">16-Sep</text>
		</g>
		<g>
			<text fill="#595959" font-family="Verdana,sans-serif" font-weight="400" font-size="41" transform="matrix(6.12323e-17 -1 1 6.12323e-17 3998.3823529411766 1213)">14-Oct</text>
		</g>
		<g>
			<text fill="#595959" font-family="Verdana,sans-serif" font-weight="400" font-size="41" transform="matrix(6.12323e-17 -1 1 6.12323e-17 4081.6470588235293 1222)">11-Nov</text>
		</g>
		<g>
			<text fill="#595959" font-family="Verdana,sans-serif" font-weight="400" font-size="41" transform="matrix(6.12323e-17 -1 1 6.12323e-17 4165.411764705882 1220)">16-Dec</text>
		</g>
		<g>
			<text fill="#595959" font-family="Verdana,sans-serif" font-weight="400" font-size="41" transform="matrix(6.12323e-17 -1 1 6.12323e-17 4249.676470588235 1207)">13-Jan</text>
		</g>
		<g>
			<text fill="#595959" font-family="Verdana,sans-serif" font-weight="400" font-size="41" transform="matrix(1 0 0 1 3123.5 1050)">0%</text>
		</g>
		<g>
			<text fill="#595959" font-family="Verdana,sans-serif" font-weight="400" font-size="41" transform="matrix(1 0 0 1 3097.5 922)">20%</text>
		</g>
		<g>
			<text fill="#595959" font-family="Verdana,sans-serif" font-weight="400" font-size="41" transform="matrix(1 0 0 1 3096.5 794)">40%</text>
		</g>
		<g>
			<text fill="#595959" font-family="Verdana,sans-serif" font-weight="400" font-size="41" transform="matrix(1 0 0 1 3097.5 666)">60%</text>
		</g>
		<g>
			<text fill="#595959" font-family="Verdana,sans-serif" font-weight="400" font-size="41" transform="matrix(1 0 0 1 3097.5 538)">80%</text>
		</g>
		<g>
			<text fill="#595959" font-family="Verdana,sans-serif" font-weight="400" font-size="41" transform="matrix(1 0 0 1 3074.5 410)">100%</text>
		</g>
		<g>
			<text fill="#595959" font-family="Verdana,sans-serif" font-weight="400" font-size="41" transform="matrix(1 0 0 1 3544.5 1321)">Week Commencing</text>
		</g>
		<g>
			<text fill="#595959" font-family="Verdana,sans-serif" font-weight="400" font-size="46" transform="matrix(6.12323e-17 -1 1 6.12323e-17 3019.73 965.25)">Requests (% of Total)</text>
		</g>
		<rect x="2918.5" y="347.5" width="1760" height="1043" stroke="#D9D9D9" stroke-width="3.4375" stroke-linejoin="round" stroke-miterlimit="10" fill="none" />
		<g>
			<path d="M3228.5 1038 3249.4411764705883 1038 3270.3823529411766 1038 3291.323529411765 1038 3312.264705882353 1038 3333.205882352941 1038 3354.1470588235293 1038 3375.0882352941176 1038 3396.029411764706 1038 3416.970588235294 1038 3437.9117647058824 1038 3458.8529411764707 1038 3479.794117647059 1038 3500.735294117647 1038 3521.676470588235 1038 3542.6176470588234 1038 3563.5588235294117 1038 3584.5 1038 3605.4411764705883 1038 3626.3823529411766 1038 3647.323529411765 1038 3668.264705882353 1038 3689.205882352941 1038 3710.1470588235293 1038 3731.0882352941176 1038 3752.029411764706 1038 3772.970588235294 1038 3793.9117647058824 1038 3814.8529411764707 1038 3835.7941176470586 1038 3856.735294117647 1038 3877.676470588235 1038 3898.6176470588234 1038 3919.5588235294117 1038 3940.5 1038 3961.4411764705883 1038 3982.3823529411766 1038 4003.323529411765 1038 4024.264705882353 1038 4045.2058823529414 1038 4066.1470588235293 1038 4087.0882352941176 1038 4108.029411764706 1038 4128.970588235294 1038 4149.911764705882 1038 4170.85294117647 1038 4191.794117647059 1038 4212.735294117647 1038 4233.676470588235 1038 4254.617647058823 1038 4275.558823529412 1038 4296.5 1038 4296.5 441.04668014176025 4275.558823529412 441.3325461823914 4254.617647058823 441.50673382811704 4233.676470588235 441.5263210359809 4212.735294117647 441.5338725099368 4191.794117647059 441.5429030927178 4170.85294117647 441.47417224977323 4149.911764705882 441.4594945700171 4128.970588235294 441.38808556766435 4108.029411764706 441.3288056085928 4087.0882352941176 441.47308833726333 4066.1470588235293 441.645038932872 4045.2058823529414 441.9852131881347 4024.264705882353 442.33307896966517 4003.323529411765 566.5721783366624 3982.3823529411766 567.1308685788513 3961.4411764705883 567.5130485279316 3940.5 568.0135171374827 3919.5588235294117 568.6966145549849 3898.6176470588234 569.582505337425 3877.676470588235 569.9559975833151 3856.735294117647 570.7071585028136 3835.7941176470586 571.2237275515587 3814.8529411764707 571.9035338843237 3793.9117647058824 572.0631883952817 3772.970588235294 572.5486893796854 3752.029411764706 572.9112818795618 3731.0882352941176 572.7332415748011 3710.1470588235293 572.862060937991 3689.205882352941 572.9365512268143 3668.264705882353 572.8940388940463 3647.323529411765 572.4651830343407 3626.3823529411766 572.6325422225004 3605.4411764705883 571.5082651331143 3584.5 572.2322344669446 3563.5588235294117 572.7455283998808 3542.6176470588234 573.7260592446937 3521.676470588235 574.7878423335366 3500.735294117647 575.6290427379265 3479.794117647059 575.9687876322813 3458.8529411764707 576.8727971406818 3437.9117647058824 578.2473295586981 3416.970588235294 579.8301495425726 3396.029411764706 581.4258071436993 3375.0882352941176 583.4353029706369 3354.1470588235293 585.2297796683877 3333.205882352941 569.3763139485983 3312.264705882353 569.4920790789085 3291.323529411765 568.4210223578364 3270.3823529411766 567.328661211755 3249.4411764705883 566.161104092279 3228.5 566.5630760901624 3228.5 1038Z" fill="#e62d39" opacity="0.9" />
		</g>
		<g>
			<path d="M3228.5 566.5630760901624 3249.4411764705883 566.161104092279 3270.3823529411766 567.328661211755 3291.323529411765 568.4210223578364 3312.264705882353 569.4920790789085 3333.205882352941 569.3763139485983 3354.1470588235293 585.2297796683877 3375.0882352941176 583.4353029706369 3396.029411764706 581.4258071436993 3416.970588235294 579.8301495425726 3437.9117647058824 578.2473295586981 3458.8529411764707 576.8727971406818 3479.794117647059 575.9687876322813 3500.735294117647 575.6290427379265 3521.676470588235 574.7878423335366 3542.6176470588234 573.7260592446937 3563.5588235294117 572.7455283998808 3584.5 572.2322344669446 3605.4411764705883 571.5082651331143 3626.3823529411766 572.6325422225004 3647.323529411765 572.4651830343407 3668.264705882353 572.8940388940463 3689.205882352941 572.9365512268143 3710.1470588235293 572.862060937991 3731.0882352941176 572.7332415748011 3752.029411764706 572.9112818795618 3772.970588235294 572.5486893796854 3793.9117647058824 572.0631883952817 3814.8529411764707 571.9035338843237 3835.7941176470586 571.2237275515587 3856.735294117647 570.7071585028136 3877.676470588235 569.9559975833151 3898.6176470588234 569.582505337425 3919.5588235294117 568.6966145549849 3940.5 568.0135171374827 3961.4411764705883 567.5130485279316 3982.3823529411766 567.1308685788513 4003.323529411765 566.5721783366624 4024.264705882353 442.33307896966517 4045.2058823529414 441.9852131881347 4066.1470588235293 441.645038932872 4087.0882352941176 441.47308833726333 4108.029411764706 441.3288056085928 4128.970588235294 441.38808556766435 4149.911764705882 441.4594945700171 4170.85294117647 441.47417224977323 4191.794117647059 441.5429030927178 4212.735294117647 441.5338725099368 4233.676470588235 441.5263210359809 4254.617647058823 441.50673382811704 4275.558823529412 441.3325461823914 4296.5 441.04668014176025 4296.5 398.00000000000006 4275.558823529412 397.99999999999994 4254.617647058823 398.00000000000006 4233.676470588235 398 4212.735294117647 398 4191.794117647059 398 4170.85294117647 398 4149.911764705882 398.00000000000006 4128.970588235294 398 4108.029411764706 398 4087.0882352941176 398 4066.1470588235293 397.99999999999994 4045.2058823529414 398 4024.264705882353 398 4003.323529411765 398 3982.3823529411766 398 3961.4411764705883 398 3940.5 398 3919.5588235294117 398 3898.6176470588234 398 3877.676470588235 398.00000000000006 3856.735294117647 398 3835.7941176470586 398 3814.8529411764707 398 3793.9117647058824 398.00000000000006 3772.970588235294 398 3752.029411764706 397.99999999999994 3731.0882352941176 398 3710.1470588235293 397.99999999999994 3689.205882352941 398.00000000000006 3668.264705882353 398 3647.323529411765 398 3626.3823529411766 398 3605.4411764705883 397.99999999999994 3584.5 398.0000000000001 3563.5588235294117 398 3542.6176470588234 398 3521.676470588235 398.00000000000006 3500.735294117647 398 3479.794117647059 398 3458.8529411764707 397.99999999999994 3437.9117647058824 397.99999999999994 3416.970588235294 398.0000000000001 3396.029411764706 398 3375.0882352941176 398 3354.1470588235293 398 3333.205882352941 398 3312.264705882353 398.00000000000006 3291.323529411765 398.00000000000006 3270.3823529411766 398 3249.4411764705883 398.00000000000006 3228.5 397.99999999999994 3228.5 566.5630760901624Z" fill="#005aa6" opacity="0.9" />
		</g>
		<g>
			<rect x="4372" y="431" width="22.9995" height="23" fill="#e62d39" />
		</g>
		<g>
			<text fill="#595959" font-family="Verdana,sans-serif" font-weight="400" font-size="41" transform="matrix(1 0 0 1 4404.56 454)">Non-Crawler</text>
		</g>
		<g>
			<rect x="4372" y="508" width="22.9995" height="23" fill="#005aa6" />
		</g>
		<g>
			<text fill="#595959" font-family="Verdana,sans-serif" font-weight="400" font-size="41" transform="matrix(1 0 0 1 4404.56 531)">Crawler</text>
		</g>
	</g>
</svg>
