<svg width="1763" height="1046"
    xmlns="http://www.w3.org/2000/svg"
	xmlns:xlink="http://www.w3.org/1999/xlink" xml:space="preserve" overflow="hidden">
	<defs>
		<clipPath id="clip0">
			<rect x="2917" y="346" width="1763" height="1046"/>
		</clipPath>
	</defs>
	<g clip-path="url(#clip0)" transform="translate(-2917 -346)">
		<rect x="2918" y="347" width="1760" height="1043" fill="#FFFFFF" />
		<g>
			<path d="
			M3228.5 974.532 4296.5 974.532
			M3228.5 910.53 4296.5 910.53
			M3228.5 846.528 4296.5 846.528
			M3228.5 781.526 4296.5 781.526
			M3228.5 717.524 4296.5 717.524
			M3228.5 653.522 4296.5 653.522
			M3228.5 589.52 4296.5 589.52
			M3228.5 525.517 4296.5 525.517
			M3228.5 461.515 4296.5 461.515
			M3228.5 397.5 4296.5 397.5" stroke="#D9D9D9" stroke-width="3.4375" stroke-linejoin="round" stroke-miterlimit="10" fill="none" />
		</g>
		<g>
			<path d="M 1038.5 4296.5 1038.5" stroke="#D9D9D9" stroke-width="3.4375" stroke-linejoin="round" stroke-miterlimit="10" fill="none" fill-rule="evenodd" />
		</g>
		<g>
			<text fill="#595959" font-family="Verdana,sans-serif" font-weight="400" font-size="41" transform="matrix(6.12323e-17 -1 1 6.12323e-17 3244.5 1225)">06-Nov</text>
		</g>
		<g>
			<text fill="#595959" font-family="Verdana,sans-serif" font-weight="400" font-size="41" transform="matrix(6.12323e-17 -1 1 6.12323e-17 3356.9210526315787 1223)">04-Dec</text>
		</g>
		<g>
			<text fill="#595959" font-family="Verdana,sans-serif" font-weight="400" font-size="41" transform="matrix(6.12323e-17 -1 1 6.12323e-17 3469.342105263158 1210)">01-Jan</text>
		</g>
		<g>
			<text fill="#595959" font-family="Verdana,sans-serif" font-weight="400" font-size="41" transform="matrix(6.12323e-17 -1 1 6.12323e-17 3581.7631578947367 1210)">29-Jan</text>
		</g>
		<g>
			<text fill="#595959" font-family="Verdana,sans-serif" font-weight="400" font-size="41" transform="matrix(6.12323e-17 -1 1 6.12323e-17 3694.184210526316 1216)">26-Feb</text>
		</g>
		<g>
			<text fill="#595959" font-family="Verdana,sans-serif" font-weight="400" font-size="41" transform="matrix(6.12323e-17 -1 1 6.12323e-17 3806.6052631578946 1223)">25-Mar</text>
		</g>
		<g>
			<text fill="#595959" font-family="Verdana,sans-serif" font-weight="400" font-size="41" transform="matrix(6.12323e-17 -1 1 6.12323e-17 3922.5263157894738 1216)">22-Apr</text>
		</g>
		<g>
			<text fill="#595959" font-family="Verdana,sans-serif" font-weight="400" font-size="41" transform="matrix(6.12323e-17 -1 1 6.12323e-17 4034.9473684210525 1228)">20-May</text>
		</g>
		<g>
			<text fill="#595959" font-family="Verdana,sans-serif" font-weight="400" font-size="41" transform="matrix(6.12323e-17 -1 1 6.12323e-17 4143.368421052632 1209)">17-Jun</text>
		</g>
		<g>
			<text fill="#595959" font-family="Verdana,sans-serif" font-weight="400" font-size="41" transform="matrix(6.12323e-17 -1 1 6.12323e-17 4256.289473684211 1194)">15-Jul</text>
		</g>
		<g>
			<text fill="#595959" font-family="Verdana,sans-serif" font-weight="400" font-size="41" transform="matrix(1 0 0 1 3123.5 1050)">0%</text>
		</g>
		<g>
			<text fill="#595959" font-family="Verdana,sans-serif" font-weight="400" font-size="41" transform="matrix(1 0 0 1 3097.5 922)">20%</text>
		</g>
		<g>
			<text fill="#595959" font-family="Verdana,sans-serif" font-weight="400" font-size="41" transform="matrix(1 0 0 1 3096.5 794)">40%</text>
		</g>
		<g>
			<text fill="#595959" font-family="Verdana,sans-serif" font-weight="400" font-size="41" transform="matrix(1 0 0 1 3097.5 666)">60%</text>
		</g>
		<g>
			<text fill="#595959" font-family="Verdana,sans-serif" font-weight="400" font-size="41" transform="matrix(1 0 0 1 3097.5 538)">80%</text>
		</g>
		<g>
			<text fill="#595959" font-family="Verdana,sans-serif" font-weight="400" font-size="41" transform="matrix(1 0 0 1 3074.5 410)">100%</text>
		</g>
		<g>
			<text fill="#595959" font-family="Verdana,sans-serif" font-weight="400" font-size="41" transform="matrix(1 0 0 1 3544.5 1321)">Week Commencing</text>
		</g>
		<g>
			<text fill="#595959" font-family="Verdana,sans-serif" font-weight="400" font-size="46" transform="matrix(6.12323e-17 -1 1 6.12323e-17 3019.73 965.25)">Requests (% of Total)</text>
		</g>
		<rect x="2918.5" y="347.5" width="1760" height="1043" stroke="#D9D9D9" stroke-width="3.4375" stroke-linejoin="round" stroke-miterlimit="10" fill="none" />
		<g>
			<path d="M3228.5 1038 3256.6052631578946 1038 3284.7105263157896 1038 3312.815789473684 1038 3340.9210526315787 1038 3369.0263157894738 1038 3397.1315789473683 1038 3425.2368421052633 1038 3453.342105263158 1038 3481.4473684210525 1038 3509.5526315789475 1038 3537.657894736842 1038 3565.7631578947367 1038 3593.8684210526317 1038 3621.9736842105262 1038 3650.078947368421 1038 3678.184210526316 1038 3706.2894736842104 1038 3734.3947368421054 1038 3762.5 1038 3790.6052631578946 1038 3818.7105263157896 1038 3846.815789473684 1038 3874.921052631579 1038 3903.0263157894738 1038 3931.1315789473683 1038 3959.2368421052633 1038 3987.342105263158 1038 4015.4473684210525 1038 4043.5526315789475 1038 4071.657894736842 1038 4099.763157894737 1038 4127.868421052632 1038 4155.973684210527 1038 4184.078947368421 1038 4212.184210526316 1038 4240.289473684211 1038 4268.394736842105 1038 4296.5 1038 4296.5 572.9112818795618 4268.394736842105 572.7332415748011 4240.289473684211 572.862060937991 4212.184210526316 572.9365512268143 4184.078947368421 572.8940388940463 4155.973684210527 572.4651830343407 4127.868421052632 572.6325422225004 4099.763157894737 571.5082651331143 4071.657894736842 572.2322344669446 4043.5526315789475 572.7455283998808 4015.4473684210525 573.7260592446937 3987.342105263158 574.7878423335366 3959.2368421052633 575.6290427379265 3931.1315789473683 575.9687876322813 3903.0263157894738 576.8727971406818 3874.921052631579 578.2473295586981 3846.815789473684 579.8301495425726 3818.7105263157896 581.4258071436993 3790.6052631578946 583.4353029706369 3762.5 585.2297796683877 3734.3947368421054 569.3763139485983 3706.2894736842104 569.4920790789085 3678.184210526316 568.4210223578364 3650.078947368421 567.328661211755 3621.9736842105262 566.161104092279 3593.8684210526317 566.5630760901624 3565.7631578947367 566.9371867374394 3537.657894736842 565.7434322908556 3509.5526315789475 565.3329344965637 3481.4473684210525 567.1306424721515 3453.342105263158 546.6361313386333 3425.2368421052633 547.2360643741254 3397.1315789473683 547.9846296844262 3369.0263157894738 551.0672526834712 3340.9210526315787 550.9210452859504 3312.815789473684 550.9050574683862 3284.7105263157896 550.8533354714161 3256.6052631578946 550.7560734149703 3228.5 551.2665692392751 3228.5 1038Z" fill="#e62d39" opacity="0.9" />
		</g>
		<g>
			<path d="M3228.5 551.2665692392751 3256.6052631578946 550.7560734149703 3284.7105263157896 550.8533354714161 3312.815789473684 550.9050574683862 3340.9210526315787 550.9210452859504 3369.0263157894738 551.0672526834712 3397.1315789473683 547.9846296844262 3425.2368421052633 547.2360643741254 3453.342105263158 546.6361313386333 3481.4473684210525 567.1306424721515 3509.5526315789475 565.3329344965637 3537.657894736842 565.7434322908556 3565.7631578947367 566.9371867374394 3593.8684210526317 566.5630760901624 3621.9736842105262 566.161104092279 3650.078947368421 567.328661211755 3678.184210526316 568.4210223578364 3706.2894736842104 569.4920790789085 3734.3947368421054 569.3763139485983 3762.5 585.2297796683877 3790.6052631578946 583.4353029706369 3818.7105263157896 581.4258071436993 3846.815789473684 579.8301495425726 3874.921052631579 578.2473295586981 3903.0263157894738 576.8727971406818 3931.1315789473683 575.9687876322813 3959.2368421052633 575.6290427379265 3987.342105263158 574.7878423335366 4015.4473684210525 573.7260592446937 4043.5526315789475 572.7455283998808 4071.657894736842 572.2322344669446 4099.763157894737 571.5082651331143 4127.868421052632 572.6325422225004 4155.973684210527 572.4651830343407 4184.078947368421 572.8940388940463 4212.184210526316 572.9365512268143 4240.289473684211 572.862060937991 4268.394736842105 572.7332415748011 4296.5 572.9112818795618 4296.5 397.99999999999994 4268.394736842105 398 4240.289473684211 397.99999999999994 4212.184210526316 398.00000000000006 4184.078947368421 398 4155.973684210527 398 4127.868421052632 398 4099.763157894737 397.99999999999994 4071.657894736842 398.0000000000001 4043.5526315789475 398 4015.4473684210525 398 3987.342105263158 398.00000000000006 3959.2368421052633 398 3931.1315789473683 398 3903.0263157894738 397.99999999999994 3874.921052631579 397.99999999999994 3846.815789473684 398.0000000000001 3818.7105263157896 398 3790.6052631578946 398 3762.5 398 3734.3947368421054 398 3706.2894736842104 398.00000000000006 3678.184210526316 398.00000000000006 3650.078947368421 398 3621.9736842105262 398.00000000000006 3593.8684210526317 397.99999999999994 3565.7631578947367 398 3537.657894736842 398 3509.5526315789475 397.99999999999994 3481.4473684210525 398.00000000000006 3453.342105263158 398 3425.2368421052633 398.0000000000001 3397.1315789473683 398 3369.0263157894738 398 3340.9210526315787 398 3312.815789473684 398 3284.7105263157896 398 3256.6052631578946 398 3228.5 398 3228.5 551.2665692392751Z" fill="#005aa6" opacity="0.9" />
		</g>
		<g>
			<rect x="4372" y="431" width="22.9995" height="23" fill="#e62d39" />
		</g>
		<g>
			<text fill="#595959" font-family="Verdana,sans-serif" font-weight="400" font-size="41" transform="matrix(1 0 0 1 4404.56 454)">Non-Crawler</text>
		</g>
		<g>
			<rect x="4372" y="508" width="22.9995" height="23" fill="#005aa6" />
		</g>
		<g>
			<text fill="#595959" font-family="Verdana,sans-serif" font-weight="400" font-size="41" transform="matrix(1 0 0 1 4404.56 531)">Crawler</text>
		</g>
	</g>
</svg>
