<svg width="1763" height="1046"
    xmlns="http://www.w3.org/2000/svg"
	xmlns:xlink="http://www.w3.org/1999/xlink" xml:space="preserve" overflow="hidden">
	<defs>
		<clipPath id="clip0">
			<rect x="2917" y="346" width="1763" height="1046"/>
		</clipPath>
	</defs>
	<g clip-path="url(#clip0)" transform="translate(-2917 -346)">
		<rect x="2918" y="347" width="1760" height="1043" fill="#FFFFFF" />
		<g>
			<path d="
			M3228.5 974.532 4296.5 974.532
			M3228.5 910.53 4296.5 910.53
			M3228.5 846.528 4296.5 846.528
			M3228.5 781.526 4296.5 781.526
			M3228.5 717.524 4296.5 717.524
			M3228.5 653.522 4296.5 653.522
			M3228.5 589.52 4296.5 589.52
			M3228.5 525.517 4296.5 525.517
			M3228.5 461.515 4296.5 461.515
			M3228.5 397.5 4296.5 397.5" stroke="#D9D9D9" stroke-width="3.4375" stroke-linejoin="round" stroke-miterlimit="10" fill="none" />
		</g>
		<g>
			<path d="M 1038.5 4296.5 1038.5" stroke="#D9D9D9" stroke-width="3.4375" stroke-linejoin="round" stroke-miterlimit="10" fill="none" fill-rule="evenodd" />
		</g>
		<g>
			<text fill="#595959" font-family="Verdana,sans-serif" font-weight="400" font-size="41" transform="matrix(6.12323e-17 -1 1 6.12323e-17 3244.5 1216)">26-Feb</text>
		</g>
		<g>
			<text fill="#595959" font-family="Verdana,sans-serif" font-weight="400" font-size="41" transform="matrix(6.12323e-17 -1 1 6.12323e-17 3328.264705882353 1223)">25-Mar</text>
		</g>
		<g>
			<text fill="#595959" font-family="Verdana,sans-serif" font-weight="400" font-size="41" transform="matrix(6.12323e-17 -1 1 6.12323e-17 3415.529411764706 1216)">22-Apr</text>
		</g>
		<g>
			<text fill="#595959" font-family="Verdana,sans-serif" font-weight="400" font-size="41" transform="matrix(6.12323e-17 -1 1 6.12323e-17 3499.294117647059 1228)">20-May</text>
		</g>
		<g>
			<text fill="#595959" font-family="Verdana,sans-serif" font-weight="400" font-size="41" transform="matrix(6.12323e-17 -1 1 6.12323e-17 3579.0588235294117 1209)">17-Jun</text>
		</g>
		<g>
			<text fill="#595959" font-family="Verdana,sans-serif" font-weight="400" font-size="41" transform="matrix(6.12323e-17 -1 1 6.12323e-17 3663.323529411765 1194)">15-Jul</text>
		</g>
		<g>
			<text fill="#595959" font-family="Verdana,sans-serif" font-weight="400" font-size="41" transform="matrix(6.12323e-17 -1 1 6.12323e-17 3750.5882352941176 1218)">12-Aug</text>
		</g>
		<g>
			<text fill="#595959" font-family="Verdana,sans-serif" font-weight="400" font-size="41" transform="matrix(6.12323e-17 -1 1 6.12323e-17 3834.3529411764707 1222)">09-Sep</text>
		</g>
		<g>
			<text fill="#595959" font-family="Verdana,sans-serif" font-weight="400" font-size="41" transform="matrix(6.12323e-17 -1 1 6.12323e-17 3914.6176470588234 1215)">07-Oct</text>
		</g>
		<g>
			<text fill="#595959" font-family="Verdana,sans-serif" font-weight="400" font-size="41" transform="matrix(6.12323e-17 -1 1 6.12323e-17 3998.3823529411766 1225)">04-Nov</text>
		</g>
		<g>
			<text fill="#595959" font-family="Verdana,sans-serif" font-weight="400" font-size="41" transform="matrix(6.12323e-17 -1 1 6.12323e-17 4082.1470588235293 1223)">09-Dec</text>
		</g>
		<g>
			<text fill="#595959" font-family="Verdana,sans-serif" font-weight="400" font-size="41" transform="matrix(6.12323e-17 -1 1 6.12323e-17 4165.911764705882 1210)">06-Jan</text>
		</g>
		<g>
			<text fill="#595959" font-family="Verdana,sans-serif" font-weight="400" font-size="41" transform="matrix(6.12323e-17 -1 1 6.12323e-17 4249.676470588235 1217)">03-Feb</text>
		</g>
		<g>
			<text fill="#595959" font-family="Verdana,sans-serif" font-weight="400" font-size="41" transform="matrix(1 0 0 1 3167.5 1050)">0</text>
		</g>
		<g>
			<text fill="#595959" font-family="Verdana,sans-serif" font-weight="400" font-size="41" transform="matrix(1 0 0 1 3141.5 922)">62</text>
		</g>
		<g>
			<text fill="#595959" font-family="Verdana,sans-serif" font-weight="400" font-size="41" transform="matrix(1 0 0 1 3117.5 794)">124</text>
		</g>
		<g>
			<text fill="#595959" font-family="Verdana,sans-serif" font-weight="400" font-size="41" transform="matrix(1 0 0 1 3117.5 666)">187</text>
		</g>
		<g>
			<text fill="#595959" font-family="Verdana,sans-serif" font-weight="400" font-size="41" transform="matrix(1 0 0 1 3115.5 538)">249</text>
		</g>
		<g>
			<text fill="#595959" font-family="Verdana,sans-serif" font-weight="400" font-size="41" transform="matrix(1 0 0 1 3117.5 410)">311</text>
		</g>
		<g>
			<text fill="#595959" font-family="Verdana,sans-serif" font-weight="400" font-size="41" transform="matrix(1 0 0 1 3544.5 1321)">Week Commencing</text>
		</g>
		<g>
			<text fill="#595959" font-family="Verdana,sans-serif" font-weight="400" font-size="46" transform="matrix(6.12323e-17 -1 1 6.12323e-17 3019.73 1024.75)">Number of Crawler Profiles</text>
		</g>
		<rect x="2918.5" y="347.5" width="1760" height="1043" stroke="#D9D9D9" stroke-width="3.4375" stroke-linejoin="round" stroke-miterlimit="10" fill="none" />
		<g>
			<path d="M3228.5 1038 3249.4411764705883 1038 3270.3823529411766 1038 3291.323529411765 1038 3312.264705882353 1038 3333.205882352941 1038 3354.1470588235293 1038 3375.0882352941176 1038 3396.029411764706 1038 3416.970588235294 1038 3437.9117647058824 1038 3458.8529411764707 1038 3479.794117647059 1038 3500.735294117647 1038 3521.676470588235 1038 3542.6176470588234 1038 3563.5588235294117 1038 3584.5 1038 3605.4411764705883 1038 3626.3823529411766 1038 3647.323529411765 1038 3668.264705882353 1038 3689.205882352941 1038 3710.1470588235293 1038 3731.0882352941176 1038 3752.029411764706 1038 3772.970588235294 1038 3793.9117647058824 1038 3814.8529411764707 1038 3835.7941176470586 1038 3856.735294117647 1038 3877.676470588235 1038 3898.6176470588234 1038 3919.5588235294117 1038 3940.5 1038 3961.4411764705883 1038 3982.3823529411766 1038 4003.323529411765 1038 4024.264705882353 1038 4045.2058823529414 1038 4066.1470588235293 1038 4087.0882352941176 1038 4108.029411764706 1038 4128.970588235294 1038 4149.911764705882 1038 4170.85294117647 1038 4191.794117647059 1038 4212.735294117647 1038 4233.676470588235 1038 4254.617647058823 1038 4275.558823529412 1038 4296.5 1038 4296.5 400.0578778135049 4275.558823529412 400.0578778135049 4254.617647058823 402.11575562700966 4233.676470588235 404.17363344051455 4212.735294117647 406.2315112540193 4191.794117647059 406.2315112540193 4170.85294117647 410.347266881029 4149.911764705882 412.40514469453376 4128.970588235294 412.40514469453376 4108.029411764706 412.40514469453376 4087.0882352941176 416.5209003215434 4066.1470588235293 418.5787781350483 4045.2058823529414 424.75241157556275 4024.264705882353 432.98392282958207 4003.323529411765 445.33118971061094 3982.3823529411766 451.5048231511255 3961.4411764705883 451.5048231511255 3940.5 449.4469453376206 3919.5588235294117 453.56270096463027 3898.6176470588234 459.7363344051447 3877.676470588235 467.967845659164 3856.735294117647 467.967845659164 3835.7941176470586 470.0257234726688 3814.8529411764707 480.315112540193 3793.9117647058824 484.43086816720256 3772.970588235294 488.5466237942122 3752.029411764706 488.5466237942122 3731.0882352941176 492.6623794212219 3710.1470588235293 492.6623794212219 3689.205882352941 494.7202572347268 3668.264705882353 496.77813504823155 3647.323529411765 505.00964630225087 3626.3823529411766 511.1832797427653 3605.4411764705883 519.4147909967846 3584.5 525.5884244372991 3563.5588235294117 535.8778135048232 3542.6176470588234 539.9935691318328 3521.676470588235 539.9935691318328 3500.735294117647 539.9935691318328 3479.794117647059 542.0514469453376 3458.8529411764707 546.1672025723474 3437.9117647058824 554.3987138263666 3416.970588235294 558.5144694533763 3396.029411764706 560.572347266881 3375.0882352941176 560.572347266881 3354.1470588235293 568.8038585209003 3333.205882352941 568.8038585209003 3312.264705882353 579.0932475884244 3291.323529411765 599.6720257234726 3270.3823529411766 603.7877813504824 3249.4411764705883 607.903536977492 3228.5 618.1929260450161 3228.5 1038Z" fill="#005aa6" opacity="0.9" />
		</g>
		<g>
			<path d="M3228.5 618.1929260450161 3249.4411764705883 607.903536977492 3270.3823529411766 603.7877813504824 3291.323529411765 599.6720257234726 3312.264705882353 579.0932475884244 3333.205882352941 568.8038585209003 3354.1470588235293 568.8038585209003 3375.0882352941176 560.572347266881 3396.029411764706 560.572347266881 3416.970588235294 558.5144694533763 3437.9117647058824 554.3987138263666 3458.8529411764707 546.1672025723474 3479.794117647059 542.0514469453376 3500.735294117647 539.9935691318328 3521.676470588235 539.9935691318328 3542.6176470588234 539.9935691318328 3563.5588235294117 535.8778135048232 3584.5 525.5884244372991 3605.4411764705883 519.4147909967846 3626.3823529411766 511.1832797427653 3647.323529411765 505.00964630225087 3668.264705882353 496.77813504823155 3689.205882352941 494.7202572347268 3710.1470588235293 492.6623794212219 3731.0882352941176 492.6623794212219 3752.029411764706 488.5466237942122 3772.970588235294 488.5466237942122 3793.9117647058824 484.43086816720256 3814.8529411764707 480.315112540193 3835.7941176470586 470.0257234726688 3856.735294117647 467.967845659164 3877.676470588235 467.967845659164 3898.6176470588234 459.7363344051447 3919.5588235294117 453.56270096463027 3940.5 449.4469453376206 3961.4411764705883 451.5048231511255 3982.3823529411766 451.5048231511255 4003.323529411765 445.33118971061094 4024.264705882353 432.98392282958207 4045.2058823529414 424.75241157556275 4066.1470588235293 418.5787781350483 4087.0882352941176 416.5209003215434 4108.029411764706 412.40514469453376 4128.970588235294 412.40514469453376 4149.911764705882 412.40514469453376 4170.85294117647 410.347266881029 4191.794117647059 406.2315112540193 4212.735294117647 406.2315112540193 4233.676470588235 404.17363344051455 4254.617647058823 402.11575562700966 4275.558823529412 400.0578778135049 4296.5 400.0578778135049 4296.5 398.00000000000006 4275.558823529412 398.00000000000006 4254.617647058823 400.05787781350483 4233.676470588235 402.1157556270097 4212.735294117647 404.1736334405145 4191.794117647059 404.1736334405145 4170.85294117647 408.28938906752416 4149.911764705882 410.34726688102893 4128.970588235294 410.34726688102893 4108.029411764706 410.34726688102893 4087.0882352941176 414.4630225080386 4066.1470588235293 416.5209003215435 4045.2058823529414 422.6945337620579 4024.264705882353 430.92604501607724 4003.323529411765 443.2733118971061 3982.3823529411766 449.44694533762066 3961.4411764705883 449.44694533762066 3940.5 447.3890675241158 3919.5588235294117 451.50482315112544 3898.6176470588234 457.6784565916399 3877.676470588235 465.9099678456592 3856.735294117647 465.9099678456592 3835.7941176470586 467.96784565916397 3814.8529411764707 478.2572347266882 3793.9117647058824 482.37299035369773 3772.970588235294 486.4887459807074 3752.029411764706 486.4887459807074 3731.0882352941176 490.60450160771705 3710.1470588235293 490.60450160771705 3689.205882352941 492.66237942122194 3668.264705882353 494.7202572347267 3647.323529411765 502.95176848874604 3626.3823529411766 509.1254019292605 3605.4411764705883 517.3569131832799 3584.5 523.5305466237943 3563.5588235294117 533.8199356913184 3542.6176470588234 537.935691318328 3521.676470588235 537.935691318328 3500.735294117647 537.935691318328 3479.794117647059 539.9935691318328 3458.8529411764707 544.1093247588426 3437.9117647058824 552.3408360128618 3416.970588235294 556.4565916398715 3396.029411764706 558.5144694533763 3375.0882352941176 558.5144694533763 3354.1470588235293 566.7459807073956 3333.205882352941 566.7459807073956 3312.264705882353 577.0353697749197 3291.323529411765 597.6141479099679 3270.3823529411766 601.7299035369776 3249.4411764705883 605.8456591639872 3228.5 616.1350482315113 3228.5 618.1929260450161Z" fill="#e62d39" opacity="0.9" />
		</g>
		<g>
			<rect x="4372" y="431" width="22.9995" height="23" fill="#005aa6" />
		</g>
		<g>
			<text fill="#595959" font-family="Verdana,sans-serif" font-weight="400" font-size="41" transform="matrix(1 0 0 1 4404.56 454)">Crawler</text>
		</g>
		<g>
			<rect x="4372" y="508" width="22.9995" height="23" fill="#e62d39" />
		</g>
		<g>
			<text fill="#595959" font-family="Verdana,sans-serif" font-weight="400" font-size="41" transform="matrix(1 0 0 1 4404.56 531)">Non-Crawler</text>
		</g>
	</g>
</svg>
