<svg width="1763" height="1046"
    xmlns="http://www.w3.org/2000/svg"
	xmlns:xlink="http://www.w3.org/1999/xlink" xml:space="preserve" overflow="hidden">
	<defs>
		<clipPath id="clip0">
			<rect x="2917" y="346" width="1763" height="1046"/>
		</clipPath>
	</defs>
	<g clip-path="url(#clip0)" transform="translate(-2917 -346)">
		<rect x="2918" y="347" width="1760" height="1043" fill="#FFFFFF" />
		<g>
			<path d="
			M3228.5 974.532 4296.5 974.532
			M3228.5 910.53 4296.5 910.53
			M3228.5 846.528 4296.5 846.528
			M3228.5 781.526 4296.5 781.526
			M3228.5 717.524 4296.5 717.524
			M3228.5 653.522 4296.5 653.522
			M3228.5 589.52 4296.5 589.52
			M3228.5 525.517 4296.5 525.517
			M3228.5 461.515 4296.5 461.515
			M3228.5 397.5 4296.5 397.5" stroke="#D9D9D9" stroke-width="3.4375" stroke-linejoin="round" stroke-miterlimit="10" fill="none" />
		</g>
		<g>
			<path d="M 1038.5 4296.5 1038.5" stroke="#D9D9D9" stroke-width="3.4375" stroke-linejoin="round" stroke-miterlimit="10" fill="none" fill-rule="evenodd" />
		</g>
		<g>
			<text fill="#595959" font-family="Verdana,sans-serif" font-weight="400" font-size="41" transform="matrix(6.12323e-17 -1 1 6.12323e-17 3244.5 1225)">06-Nov</text>
		</g>
		<g>
			<text fill="#595959" font-family="Verdana,sans-serif" font-weight="400" font-size="41" transform="matrix(6.12323e-17 -1 1 6.12323e-17 3326.653846153846 1224)">20-Nov</text>
		</g>
		<g>
			<text fill="#595959" font-family="Verdana,sans-serif" font-weight="400" font-size="41" transform="matrix(6.12323e-17 -1 1 6.12323e-17 3408.8076923076924 1223)">04-Dec</text>
		</g>
		<g>
			<text fill="#595959" font-family="Verdana,sans-serif" font-weight="400" font-size="41" transform="matrix(6.12323e-17 -1 1 6.12323e-17 3490.9615384615386 1220)">18-Dec</text>
		</g>
		<g>
			<text fill="#595959" font-family="Verdana,sans-serif" font-weight="400" font-size="41" transform="matrix(6.12323e-17 -1 1 6.12323e-17 3573.1153846153848 1210)">01-Jan</text>
		</g>
		<g>
			<text fill="#595959" font-family="Verdana,sans-serif" font-weight="400" font-size="41" transform="matrix(6.12323e-17 -1 1 6.12323e-17 3654.769230769231 1207)">15-Jan</text>
		</g>
		<g>
			<text fill="#595959" font-family="Verdana,sans-serif" font-weight="400" font-size="41" transform="matrix(6.12323e-17 -1 1 6.12323e-17 3737.423076923077 1210)">29-Jan</text>
		</g>
		<g>
			<text fill="#595959" font-family="Verdana,sans-serif" font-weight="400" font-size="41" transform="matrix(6.12323e-17 -1 1 6.12323e-17 3819.576923076923 1214)">12-Feb</text>
		</g>
		<g>
			<text fill="#595959" font-family="Verdana,sans-serif" font-weight="400" font-size="41" transform="matrix(6.12323e-17 -1 1 6.12323e-17 3901.7307692307695 1216)">26-Feb</text>
		</g>
		<g>
			<text fill="#595959" font-family="Verdana,sans-serif" font-weight="400" font-size="41" transform="matrix(6.12323e-17 -1 1 6.12323e-17 3983.3846153846152 1221)">11-Mar</text>
		</g>
		<g>
			<text fill="#595959" font-family="Verdana,sans-serif" font-weight="400" font-size="41" transform="matrix(6.12323e-17 -1 1 6.12323e-17 4066.038461538462 1223)">25-Mar</text>
		</g>
		<g>
			<text fill="#595959" font-family="Verdana,sans-serif" font-weight="400" font-size="41" transform="matrix(6.12323e-17 -1 1 6.12323e-17 4151.692307692308 1217)">08-Apr</text>
		</g>
		<g>
			<text fill="#595959" font-family="Verdana,sans-serif" font-weight="400" font-size="41" transform="matrix(6.12323e-17 -1 1 6.12323e-17 4233.846153846154 1216)">22-Apr</text>
		</g>
		<g>
			<text fill="#595959" font-family="Verdana,sans-serif" font-weight="400" font-size="41" transform="matrix(6.12323e-17 -1 1 6.12323e-17 4316 1228)">06-May</text>
		</g>
		<g>
			<text fill="#595959" font-family="Verdana,sans-serif" font-weight="400" font-size="41" transform="matrix(1 0 0 1 3123.5 1050)">0%</text>
		</g>
		<g>
			<text fill="#595959" font-family="Verdana,sans-serif" font-weight="400" font-size="41" transform="matrix(1 0 0 1 3097.5 922)">20%</text>
		</g>
		<g>
			<text fill="#595959" font-family="Verdana,sans-serif" font-weight="400" font-size="41" transform="matrix(1 0 0 1 3096.5 794)">40%</text>
		</g>
		<g>
			<text fill="#595959" font-family="Verdana,sans-serif" font-weight="400" font-size="41" transform="matrix(1 0 0 1 3097.5 666)">60%</text>
		</g>
		<g>
			<text fill="#595959" font-family="Verdana,sans-serif" font-weight="400" font-size="41" transform="matrix(1 0 0 1 3097.5 538)">80%</text>
		</g>
		<g>
			<text fill="#595959" font-family="Verdana,sans-serif" font-weight="400" font-size="41" transform="matrix(1 0 0 1 3074.5 410)">100%</text>
		</g>
		<g>
			<text fill="#595959" font-family="Verdana,sans-serif" font-weight="400" font-size="41" transform="matrix(1 0 0 1 3544.5 1321)">Week Commencing</text>
		</g>
		<g>
			<text fill="#595959" font-family="Verdana,sans-serif" font-weight="400" font-size="46" transform="matrix(6.12323e-17 -1 1 6.12323e-17 3019.73 965.25)">Requests (% of Total)</text>
		</g>
		<rect x="2918.5" y="347.5" width="1760" height="1043" stroke="#D9D9D9" stroke-width="3.4375" stroke-linejoin="round" stroke-miterlimit="10" fill="none" />
		<g>
			<path d="M3228.5 1038 3269.576923076923 1038 3310.653846153846 1038 3351.730769230769 1038 3392.8076923076924 1038 3433.8846153846152 1038 3474.9615384615386 1038 3516.0384615384614 1038 3557.1153846153848 1038 3598.1923076923076 1038 3639.269230769231 1038 3680.346153846154 1038 3721.423076923077 1038 3762.5 1038 3803.576923076923 1038 3844.653846153846 1038 3885.7307692307695 1038 3926.8076923076924 1038 3967.8846153846152 1038 4008.9615384615386 1038 4050.038461538462 1038 4091.1153846153848 1038 4132.192307692308 1038 4173.2692307692305 1038 4214.346153846154 1038 4255.423076923077 1038 4296.5 1038 4296.5 575.6290427379265 4255.423076923077 575.9687876322813 4214.346153846154 576.8727971406818 4173.2692307692305 578.2473295586981 4132.192307692308 579.8301495425726 4091.1153846153848 581.4258071436993 4050.038461538462 583.4353029706369 4008.9615384615386 585.2297796683877 3967.8846153846152 569.3763139485983 3926.8076923076924 569.4920790789085 3885.7307692307695 568.4210223578364 3844.653846153846 567.328661211755 3803.576923076923 566.161104092279 3762.5 566.5630760901624 3721.423076923077 566.9371867374394 3680.346153846154 565.7434322908556 3639.269230769231 565.3329344965637 3598.1923076923076 567.1306424721515 3557.1153846153848 546.6361313386333 3516.0384615384614 547.2360643741254 3474.9615384615386 547.9846296844262 3433.8846153846152 551.0672526834712 3392.8076923076924 550.9210452859504 3351.730769230769 550.9050574683862 3310.653846153846 550.8533354714161 3269.576923076923 550.7560734149703 3228.5 551.2665692392751 3228.5 1038Z" fill="#e62d39" opacity="0.9" />
		</g>
		<g>
			<path d="M3228.5 551.2665692392751 3269.576923076923 550.7560734149703 3310.653846153846 550.8533354714161 3351.730769230769 550.9050574683862 3392.8076923076924 550.9210452859504 3433.8846153846152 551.0672526834712 3474.9615384615386 547.9846296844262 3516.0384615384614 547.2360643741254 3557.1153846153848 546.6361313386333 3598.1923076923076 567.1306424721515 3639.269230769231 565.3329344965637 3680.346153846154 565.7434322908556 3721.423076923077 566.9371867374394 3762.5 566.5630760901624 3803.576923076923 566.161104092279 3844.653846153846 567.328661211755 3885.7307692307695 568.4210223578364 3926.8076923076924 569.4920790789085 3967.8846153846152 569.3763139485983 4008.9615384615386 585.2297796683877 4050.038461538462 583.4353029706369 4091.1153846153848 581.4258071436993 4132.192307692308 579.8301495425726 4173.2692307692305 578.2473295586981 4214.346153846154 576.8727971406818 4255.423076923077 575.9687876322813 4296.5 575.6290427379265 4296.5 398 4255.423076923077 398 4214.346153846154 397.99999999999994 4173.2692307692305 397.99999999999994 4132.192307692308 398.0000000000001 4091.1153846153848 398 4050.038461538462 398 4008.9615384615386 398 3967.8846153846152 398 3926.8076923076924 398.00000000000006 3885.7307692307695 398.00000000000006 3844.653846153846 398 3803.576923076923 398.00000000000006 3762.5 397.99999999999994 3721.423076923077 398 3680.346153846154 398 3639.269230769231 397.99999999999994 3598.1923076923076 398.00000000000006 3557.1153846153848 398 3516.0384615384614 398.0000000000001 3474.9615384615386 398 3433.8846153846152 398 3392.8076923076924 398 3351.730769230769 398 3310.653846153846 398 3269.576923076923 398 3228.5 398 3228.5 551.2665692392751Z" fill="#005aa6" opacity="0.9" />
		</g>
		<g>
			<rect x="4372" y="431" width="22.9995" height="23" fill="#e62d39" />
		</g>
		<g>
			<text fill="#595959" font-family="Verdana,sans-serif" font-weight="400" font-size="41" transform="matrix(1 0 0 1 4404.56 454)">Non-Crawler</text>
		</g>
		<g>
			<rect x="4372" y="508" width="22.9995" height="23" fill="#005aa6" />
		</g>
		<g>
			<text fill="#595959" font-family="Verdana,sans-serif" font-weight="400" font-size="41" transform="matrix(1 0 0 1 4404.56 531)">Crawler</text>
		</g>
	</g>
</svg>
