<svg width="1763" height="1046"
    xmlns="http://www.w3.org/2000/svg"
	xmlns:xlink="http://www.w3.org/1999/xlink" xml:space="preserve" overflow="hidden">
	<defs>
		<clipPath id="clip0">
			<rect x="2917" y="346" width="1763" height="1046"/>
		</clipPath>
	</defs>
	<g clip-path="url(#clip0)" transform="translate(-2917 -346)">
		<rect x="2918" y="347" width="1760" height="1043" fill="#FFFFFF" />
		<g>
			<path d="
			M3228.5 974.532 4296.5 974.532
			M3228.5 910.53 4296.5 910.53
			M3228.5 846.528 4296.5 846.528
			M3228.5 781.526 4296.5 781.526
			M3228.5 717.524 4296.5 717.524
			M3228.5 653.522 4296.5 653.522
			M3228.5 589.52 4296.5 589.52
			M3228.5 525.517 4296.5 525.517
			M3228.5 461.515 4296.5 461.515
			M3228.5 397.5 4296.5 397.5" stroke="#D9D9D9" stroke-width="3.4375" stroke-linejoin="round" stroke-miterlimit="10" fill="none" />
		</g>
		<g>
			<path d="M 1038.5 4296.5 1038.5" stroke="#D9D9D9" stroke-width="3.4375" stroke-linejoin="round" stroke-miterlimit="10" fill="none" fill-rule="evenodd" />
		</g>
		<g>
			<text fill="#595959" font-family="Verdana,sans-serif" font-weight="400" font-size="41" transform="matrix(6.12323e-17 -1 1 6.12323e-17 3244.5 1210)">22-Jan</text>
		</g>
		<g>
			<text fill="#595959" font-family="Verdana,sans-serif" font-weight="400" font-size="41" transform="matrix(6.12323e-17 -1 1 6.12323e-17 3329.94 1214)">19-Feb</text>
		</g>
		<g>
			<text fill="#595959" font-family="Verdana,sans-serif" font-weight="400" font-size="41" transform="matrix(6.12323e-17 -1 1 6.12323e-17 3415.38 1221)">18-Mar</text>
		</g>
		<g>
			<text fill="#595959" font-family="Verdana,sans-serif" font-weight="400" font-size="41" transform="matrix(6.12323e-17 -1 1 6.12323e-17 3504.32 1214)">15-Apr</text>
		</g>
		<g>
			<text fill="#595959" font-family="Verdana,sans-serif" font-weight="400" font-size="41" transform="matrix(6.12323e-17 -1 1 6.12323e-17 3589.76 1226)">13-May</text>
		</g>
		<g>
			<text fill="#595959" font-family="Verdana,sans-serif" font-weight="400" font-size="41" transform="matrix(6.12323e-17 -1 1 6.12323e-17 3671.7 1209)">10-Jun</text>
		</g>
		<g>
			<text fill="#595959" font-family="Verdana,sans-serif" font-weight="400" font-size="41" transform="matrix(6.12323e-17 -1 1 6.12323e-17 3757.14 1197)">08-Jul</text>
		</g>
		<g>
			<text fill="#595959" font-family="Verdana,sans-serif" font-weight="400" font-size="41" transform="matrix(6.12323e-17 -1 1 6.12323e-17 3846.08 1221)">05-Aug</text>
		</g>
		<g>
			<text fill="#595959" font-family="Verdana,sans-serif" font-weight="400" font-size="41" transform="matrix(6.12323e-17 -1 1 6.12323e-17 3931.52 1222)">02-Sep</text>
		</g>
		<g>
			<text fill="#595959" font-family="Verdana,sans-serif" font-weight="400" font-size="41" transform="matrix(6.12323e-17 -1 1 6.12323e-17 4016.96 1221)">30-Sep</text>
		</g>
		<g>
			<text fill="#595959" font-family="Verdana,sans-serif" font-weight="400" font-size="41" transform="matrix(6.12323e-17 -1 1 6.12323e-17 4098.9 1215)">28-Oct</text>
		</g>
		<g>
			<text fill="#595959" font-family="Verdana,sans-serif" font-weight="400" font-size="41" transform="matrix(6.12323e-17 -1 1 6.12323e-17 4184.34 1224)">25-Nov</text>
		</g>
		<g>
			<text fill="#595959" font-family="Verdana,sans-serif" font-weight="400" font-size="41" transform="matrix(6.12323e-17 -1 1 6.12323e-17 4269.78 1222)">30-Dec</text>
		</g>
		<g>
			<text fill="#595959" font-family="Verdana,sans-serif" font-weight="400" font-size="41" transform="matrix(1 0 0 1 3123.5 1050)">0%</text>
		</g>
		<g>
			<text fill="#595959" font-family="Verdana,sans-serif" font-weight="400" font-size="41" transform="matrix(1 0 0 1 3097.5 922)">20%</text>
		</g>
		<g>
			<text fill="#595959" font-family="Verdana,sans-serif" font-weight="400" font-size="41" transform="matrix(1 0 0 1 3096.5 794)">40%</text>
		</g>
		<g>
			<text fill="#595959" font-family="Verdana,sans-serif" font-weight="400" font-size="41" transform="matrix(1 0 0 1 3097.5 666)">60%</text>
		</g>
		<g>
			<text fill="#595959" font-family="Verdana,sans-serif" font-weight="400" font-size="41" transform="matrix(1 0 0 1 3097.5 538)">80%</text>
		</g>
		<g>
			<text fill="#595959" font-family="Verdana,sans-serif" font-weight="400" font-size="41" transform="matrix(1 0 0 1 3074.5 410)">100%</text>
		</g>
		<g>
			<text fill="#595959" font-family="Verdana,sans-serif" font-weight="400" font-size="41" transform="matrix(1 0 0 1 3544.5 1321)">Week Commencing</text>
		</g>
		<g>
			<text fill="#595959" font-family="Verdana,sans-serif" font-weight="400" font-size="46" transform="matrix(6.12323e-17 -1 1 6.12323e-17 3019.73 965.25)">Requests (% of Total)</text>
		</g>
		<rect x="2918.5" y="347.5" width="1760" height="1043" stroke="#D9D9D9" stroke-width="3.4375" stroke-linejoin="round" stroke-miterlimit="10" fill="none" />
		<g>
			<path d="M3228.5 1038 3249.86 1038 3271.22 1038 3292.58 1038 3313.94 1038 3335.3 1038 3356.66 1038 3378.02 1038 3399.38 1038 3420.74 1038 3442.1 1038 3463.46 1038 3484.82 1038 3506.18 1038 3527.54 1038 3548.9 1038 3570.26 1038 3591.62 1038 3612.98 1038 3634.34 1038 3655.7 1038 3677.06 1038 3698.42 1038 3719.7799999999997 1038 3741.14 1038 3762.5 1038 3783.86 1038 3805.2200000000003 1038 3826.58 1038 3847.94 1038 3869.3 1038 3890.66 1038 3912.02 1038 3933.38 1038 3954.74 1038 3976.1 1038 3997.46 1038 4018.8199999999997 1038 4040.18 1038 4061.54 1038 4082.9 1038 4104.26 1038 4125.62 1038 4146.98 1038 4168.34 1038 4189.7 1038 4211.0599999999995 1038 4232.42 1038 4253.78 1038 4275.139999999999 1038 4296.5 1038 4296.5 441.5263210359809 4275.139999999999 441.5338725099368 4253.78 441.5429030927178 4232.42 441.47417224977323 4211.0599999999995 441.4594945700171 4189.7 441.38808556766435 4168.34 441.3288056085928 4146.98 441.47308833726333 4125.62 441.645038932872 4104.26 441.9852131881347 4082.9 442.33307896966517 4061.54 566.5721783366624 4040.18 567.1308685788513 4018.8199999999997 567.5130485279316 3997.46 568.0135171374827 3976.1 568.6966145549849 3954.74 569.582505337425 3933.38 569.9559975833151 3912.02 570.7071585028136 3890.66 571.2237275515587 3869.3 571.9035338843237 3847.94 572.0631883952817 3826.58 572.5486893796854 3805.2200000000003 572.9112818795618 3783.86 572.7332415748011 3762.5 572.862060937991 3741.14 572.9365512268143 3719.7799999999997 572.8940388940463 3698.42 572.4651830343407 3677.06 572.6325422225004 3655.7 571.5082651331143 3634.34 572.2322344669446 3612.98 572.7455283998808 3591.62 573.7260592446937 3570.26 574.7878423335366 3548.9 575.6290427379265 3527.54 575.9687876322813 3506.18 576.8727971406818 3484.82 578.2473295586981 3463.46 579.8301495425726 3442.1 581.4258071436993 3420.74 583.4353029706369 3399.38 585.2297796683877 3378.02 569.3763139485983 3356.66 569.4920790789085 3335.3 568.4210223578364 3313.94 567.328661211755 3292.58 566.161104092279 3271.22 566.5630760901624 3249.86 566.9371867374394 3228.5 565.7434322908556 3228.5 1038Z" fill="#e62d39" opacity="0.9" />
		</g>
		<g>
			<path d="M3228.5 565.7434322908556 3249.86 566.9371867374394 3271.22 566.5630760901624 3292.58 566.161104092279 3313.94 567.328661211755 3335.3 568.4210223578364 3356.66 569.4920790789085 3378.02 569.3763139485983 3399.38 585.2297796683877 3420.74 583.4353029706369 3442.1 581.4258071436993 3463.46 579.8301495425726 3484.82 578.2473295586981 3506.18 576.8727971406818 3527.54 575.9687876322813 3548.9 575.6290427379265 3570.26 574.7878423335366 3591.62 573.7260592446937 3612.98 572.7455283998808 3634.34 572.2322344669446 3655.7 571.5082651331143 3677.06 572.6325422225004 3698.42 572.4651830343407 3719.7799999999997 572.8940388940463 3741.14 572.9365512268143 3762.5 572.862060937991 3783.86 572.7332415748011 3805.2200000000003 572.9112818795618 3826.58 572.5486893796854 3847.94 572.0631883952817 3869.3 571.9035338843237 3890.66 571.2237275515587 3912.02 570.7071585028136 3933.38 569.9559975833151 3954.74 569.582505337425 3976.1 568.6966145549849 3997.46 568.0135171374827 4018.8199999999997 567.5130485279316 4040.18 567.1308685788513 4061.54 566.5721783366624 4082.9 442.33307896966517 4104.26 441.9852131881347 4125.62 441.645038932872 4146.98 441.47308833726333 4168.34 441.3288056085928 4189.7 441.38808556766435 4211.0599999999995 441.4594945700171 4232.42 441.47417224977323 4253.78 441.5429030927178 4275.139999999999 441.5338725099368 4296.5 441.5263210359809 4296.5 398 4275.139999999999 398 4253.78 398 4232.42 398 4211.0599999999995 398.00000000000006 4189.7 398 4168.34 398 4146.98 398 4125.62 397.99999999999994 4104.26 398 4082.9 398 4061.54 398 4040.18 398 4018.8199999999997 398 3997.46 398 3976.1 398 3954.74 398 3933.38 398.00000000000006 3912.02 398 3890.66 398 3869.3 398 3847.94 398.00000000000006 3826.58 398 3805.2200000000003 397.99999999999994 3783.86 398 3762.5 397.99999999999994 3741.14 398.00000000000006 3719.7799999999997 398 3698.42 398 3677.06 398 3655.7 397.99999999999994 3634.34 398.0000000000001 3612.98 398 3591.62 398 3570.26 398.00000000000006 3548.9 398 3527.54 398 3506.18 397.99999999999994 3484.82 397.99999999999994 3463.46 398.0000000000001 3442.1 398 3420.74 398 3399.38 398 3378.02 398 3356.66 398.00000000000006 3335.3 398.00000000000006 3313.94 398 3292.58 398.00000000000006 3271.22 397.99999999999994 3249.86 398 3228.5 398 3228.5 565.7434322908556Z" fill="#005aa6" opacity="0.9" />
		</g>
		<g>
			<rect x="4372" y="431" width="22.9995" height="23" fill="#e62d39" />
		</g>
		<g>
			<text fill="#595959" font-family="Verdana,sans-serif" font-weight="400" font-size="41" transform="matrix(1 0 0 1 4404.56 454)">Non-Crawler</text>
		</g>
		<g>
			<rect x="4372" y="508" width="22.9995" height="23" fill="#005aa6" />
		</g>
		<g>
			<text fill="#595959" font-family="Verdana,sans-serif" font-weight="400" font-size="41" transform="matrix(1 0 0 1 4404.56 531)">Crawler</text>
		</g>
	</g>
</svg>
