<svg width="1763" height="1046"
    xmlns="http://www.w3.org/2000/svg"
	xmlns:xlink="http://www.w3.org/1999/xlink" xml:space="preserve" overflow="hidden">
	<defs>
		<clipPath id="clip0">
			<rect x="2917" y="346" width="1763" height="1046"/>
		</clipPath>
	</defs>
	<g clip-path="url(#clip0)" transform="translate(-2917 -346)">
		<rect x="2918" y="347" width="1760" height="1043" fill="#FFFFFF" />
		<g>
			<path d="
			M3228.5 974.532 4296.5 974.532
			M3228.5 910.53 4296.5 910.53
			M3228.5 846.528 4296.5 846.528
			M3228.5 781.526 4296.5 781.526
			M3228.5 717.524 4296.5 717.524
			M3228.5 653.522 4296.5 653.522
			M3228.5 589.52 4296.5 589.52
			M3228.5 525.517 4296.5 525.517
			M3228.5 461.515 4296.5 461.515
			M3228.5 397.5 4296.5 397.5" stroke="#D9D9D9" stroke-width="3.4375" stroke-linejoin="round" stroke-miterlimit="10" fill="none" />
		</g>
		<g>
			<path d="M 1038.5 4296.5 1038.5" stroke="#D9D9D9" stroke-width="3.4375" stroke-linejoin="round" stroke-miterlimit="10" fill="none" fill-rule="evenodd" />
		</g>
		<g>
			<text fill="#595959" font-family="Verdana,sans-serif" font-weight="400" font-size="41" transform="matrix(6.12323e-17 -1 1 6.12323e-17 3244.5 1225)">06-Nov</text>
		</g>
		<g>
			<text fill="#595959" font-family="Verdana,sans-serif" font-weight="400" font-size="41" transform="matrix(6.12323e-17 -1 1 6.12323e-17 3313.4032258064517 1224)">20-Nov</text>
		</g>
		<g>
			<text fill="#595959" font-family="Verdana,sans-serif" font-weight="400" font-size="41" transform="matrix(6.12323e-17 -1 1 6.12323e-17 3382.3064516129034 1223)">04-Dec</text>
		</g>
		<g>
			<text fill="#595959" font-family="Verdana,sans-serif" font-weight="400" font-size="41" transform="matrix(6.12323e-17 -1 1 6.12323e-17 3451.2096774193546 1220)">18-Dec</text>
		</g>
		<g>
			<text fill="#595959" font-family="Verdana,sans-serif" font-weight="400" font-size="41" transform="matrix(6.12323e-17 -1 1 6.12323e-17 3520.1129032258063 1210)">01-Jan</text>
		</g>
		<g>
			<text fill="#595959" font-family="Verdana,sans-serif" font-weight="400" font-size="41" transform="matrix(6.12323e-17 -1 1 6.12323e-17 3588.516129032258 1207)">15-Jan</text>
		</g>
		<g>
			<text fill="#595959" font-family="Verdana,sans-serif" font-weight="400" font-size="41" transform="matrix(6.12323e-17 -1 1 6.12323e-17 3657.9193548387098 1210)">29-Jan</text>
		</g>
		<g>
			<text fill="#595959" font-family="Verdana,sans-serif" font-weight="400" font-size="41" transform="matrix(6.12323e-17 -1 1 6.12323e-17 3726.8225806451615 1214)">12-Feb</text>
		</g>
		<g>
			<text fill="#595959" font-family="Verdana,sans-serif" font-weight="400" font-size="41" transform="matrix(6.12323e-17 -1 1 6.12323e-17 3795.7258064516127 1216)">26-Feb</text>
		</g>
		<g>
			<text fill="#595959" font-family="Verdana,sans-serif" font-weight="400" font-size="41" transform="matrix(6.12323e-17 -1 1 6.12323e-17 3864.1290322580644 1221)">11-Mar</text>
		</g>
		<g>
			<text fill="#595959" font-family="Verdana,sans-serif" font-weight="400" font-size="41" transform="matrix(6.12323e-17 -1 1 6.12323e-17 3933.532258064516 1223)">25-Mar</text>
		</g>
		<g>
			<text fill="#595959" font-family="Verdana,sans-serif" font-weight="400" font-size="41" transform="matrix(6.12323e-17 -1 1 6.12323e-17 4005.935483870968 1217)">08-Apr</text>
		</g>
		<g>
			<text fill="#595959" font-family="Verdana,sans-serif" font-weight="400" font-size="41" transform="matrix(6.12323e-17 -1 1 6.12323e-17 4074.8387096774195 1216)">22-Apr</text>
		</g>
		<g>
			<text fill="#595959" font-family="Verdana,sans-serif" font-weight="400" font-size="41" transform="matrix(6.12323e-17 -1 1 6.12323e-17 4143.741935483871 1228)">06-May</text>
		</g>
		<g>
			<text fill="#595959" font-family="Verdana,sans-serif" font-weight="400" font-size="41" transform="matrix(6.12323e-17 -1 1 6.12323e-17 4212.645161290323 1228)">20-May</text>
		</g>
		<g>
			<text fill="#595959" font-family="Verdana,sans-serif" font-weight="400" font-size="41" transform="matrix(6.12323e-17 -1 1 6.12323e-17 4278.048387096775 1211)">03-Jun</text>
		</g>
		<g>
			<text fill="#595959" font-family="Verdana,sans-serif" font-weight="400" font-size="41" transform="matrix(1 0 0 1 3123.5 1050)">0%</text>
		</g>
		<g>
			<text fill="#595959" font-family="Verdana,sans-serif" font-weight="400" font-size="41" transform="matrix(1 0 0 1 3097.5 922)">20%</text>
		</g>
		<g>
			<text fill="#595959" font-family="Verdana,sans-serif" font-weight="400" font-size="41" transform="matrix(1 0 0 1 3096.5 794)">40%</text>
		</g>
		<g>
			<text fill="#595959" font-family="Verdana,sans-serif" font-weight="400" font-size="41" transform="matrix(1 0 0 1 3097.5 666)">60%</text>
		</g>
		<g>
			<text fill="#595959" font-family="Verdana,sans-serif" font-weight="400" font-size="41" transform="matrix(1 0 0 1 3097.5 538)">80%</text>
		</g>
		<g>
			<text fill="#595959" font-family="Verdana,sans-serif" font-weight="400" font-size="41" transform="matrix(1 0 0 1 3074.5 410)">100%</text>
		</g>
		<g>
			<text fill="#595959" font-family="Verdana,sans-serif" font-weight="400" font-size="41" transform="matrix(1 0 0 1 3544.5 1321)">Week Commencing</text>
		</g>
		<g>
			<text fill="#595959" font-family="Verdana,sans-serif" font-weight="400" font-size="46" transform="matrix(6.12323e-17 -1 1 6.12323e-17 3019.73 965.25)">Requests (% of Total)</text>
		</g>
		<rect x="2918.5" y="347.5" width="1760" height="1043" stroke="#D9D9D9" stroke-width="3.4375" stroke-linejoin="round" stroke-miterlimit="10" fill="none" />
		<g>
			<path d="M3228.5 1038 3262.951612903226 1038 3297.4032258064517 1038 3331.8548387096776 1038 3366.3064516129034 1038 3400.758064516129 1038 3435.2096774193546 1038 3469.6612903225805 1038 3504.1129032258063 1038 3538.564516129032 1038 3573.016129032258 1038 3607.467741935484 1038 3641.9193548387098 1038 3676.3709677419356 1038 3710.8225806451615 1038 3745.2741935483873 1038 3779.7258064516127 1038 3814.177419354839 1038 3848.6290322580644 1038 3883.0806451612902 1038 3917.532258064516 1038 3951.983870967742 1038 3986.435483870968 1038 4020.8870967741937 1038 4055.3387096774195 1038 4089.7903225806454 1038 4124.241935483871 1038 4158.693548387097 1038 4193.145161290323 1038 4227.596774193548 1038 4262.048387096775 1038 4296.5 1038 4296.5 571.5082651331143 4262.048387096775 572.2322344669446 4227.596774193548 572.7455283998808 4193.145161290323 573.7260592446937 4158.693548387097 574.7878423335366 4124.241935483871 575.6290427379265 4089.7903225806454 575.9687876322813 4055.3387096774195 576.8727971406818 4020.8870967741937 578.2473295586981 3986.435483870968 579.8301495425726 3951.983870967742 581.4258071436993 3917.532258064516 583.4353029706369 3883.0806451612902 585.2297796683877 3848.6290322580644 569.3763139485983 3814.177419354839 569.4920790789085 3779.7258064516127 568.4210223578364 3745.2741935483873 567.328661211755 3710.8225806451615 566.161104092279 3676.3709677419356 566.5630760901624 3641.9193548387098 566.9371867374394 3607.467741935484 565.7434322908556 3573.016129032258 565.3329344965637 3538.564516129032 567.1306424721515 3504.1129032258063 546.6361313386333 3469.6612903225805 547.2360643741254 3435.2096774193546 547.9846296844262 3400.758064516129 551.0672526834712 3366.3064516129034 550.9210452859504 3331.8548387096776 550.9050574683862 3297.4032258064517 550.8533354714161 3262.951612903226 550.7560734149703 3228.5 551.2665692392751 3228.5 1038Z" fill="#e62d39" opacity="0.9" />
		</g>
		<g>
			<path d="M3228.5 551.2665692392751 3262.951612903226 550.7560734149703 3297.4032258064517 550.8533354714161 3331.8548387096776 550.9050574683862 3366.3064516129034 550.9210452859504 3400.758064516129 551.0672526834712 3435.2096774193546 547.9846296844262 3469.6612903225805 547.2360643741254 3504.1129032258063 546.6361313386333 3538.564516129032 567.1306424721515 3573.016129032258 565.3329344965637 3607.467741935484 565.7434322908556 3641.9193548387098 566.9371867374394 3676.3709677419356 566.5630760901624 3710.8225806451615 566.161104092279 3745.2741935483873 567.328661211755 3779.7258064516127 568.4210223578364 3814.177419354839 569.4920790789085 3848.6290322580644 569.3763139485983 3883.0806451612902 585.2297796683877 3917.532258064516 583.4353029706369 3951.983870967742 581.4258071436993 3986.435483870968 579.8301495425726 4020.8870967741937 578.2473295586981 4055.3387096774195 576.8727971406818 4089.7903225806454 575.9687876322813 4124.241935483871 575.6290427379265 4158.693548387097 574.7878423335366 4193.145161290323 573.7260592446937 4227.596774193548 572.7455283998808 4262.048387096775 572.2322344669446 4296.5 571.5082651331143 4296.5 397.99999999999994 4262.048387096775 398.0000000000001 4227.596774193548 398 4193.145161290323 398 4158.693548387097 398.00000000000006 4124.241935483871 398 4089.7903225806454 398 4055.3387096774195 397.99999999999994 4020.8870967741937 397.99999999999994 3986.435483870968 398.0000000000001 3951.983870967742 398 3917.532258064516 398 3883.0806451612902 398 3848.6290322580644 398 3814.177419354839 398.00000000000006 3779.7258064516127 398.00000000000006 3745.2741935483873 398 3710.8225806451615 398.00000000000006 3676.3709677419356 397.99999999999994 3641.9193548387098 398 3607.467741935484 398 3573.016129032258 397.99999999999994 3538.564516129032 398.00000000000006 3504.1129032258063 398 3469.6612903225805 398.0000000000001 3435.2096774193546 398 3400.758064516129 398 3366.3064516129034 398 3331.8548387096776 398 3297.4032258064517 398 3262.951612903226 398 3228.5 398 3228.5 551.2665692392751Z" fill="#005aa6" opacity="0.9" />
		</g>
		<g>
			<rect x="4372" y="431" width="22.9995" height="23" fill="#e62d39" />
		</g>
		<g>
			<text fill="#595959" font-family="Verdana,sans-serif" font-weight="400" font-size="41" transform="matrix(1 0 0 1 4404.56 454)">Non-Crawler</text>
		</g>
		<g>
			<rect x="4372" y="508" width="22.9995" height="23" fill="#005aa6" />
		</g>
		<g>
			<text fill="#595959" font-family="Verdana,sans-serif" font-weight="400" font-size="41" transform="matrix(1 0 0 1 4404.56 531)">Crawler</text>
		</g>
	</g>
</svg>
