<svg width="1763" height="1046"
    xmlns="http://www.w3.org/2000/svg"
	xmlns:xlink="http://www.w3.org/1999/xlink" xml:space="preserve" overflow="hidden">
	<defs>
		<clipPath id="clip0">
			<rect x="2917" y="346" width="1763" height="1046"/>
		</clipPath>
	</defs>
	<g clip-path="url(#clip0)" transform="translate(-2917 -346)">
		<rect x="2918" y="347" width="1760" height="1043" fill="#FFFFFF" />
		<g>
			<path d="
			M3228.5 974.532 4296.5 974.532
			M3228.5 910.53 4296.5 910.53
			M3228.5 846.528 4296.5 846.528
			M3228.5 781.526 4296.5 781.526
			M3228.5 717.524 4296.5 717.524
			M3228.5 653.522 4296.5 653.522
			M3228.5 589.52 4296.5 589.52
			M3228.5 525.517 4296.5 525.517
			M3228.5 461.515 4296.5 461.515
			M3228.5 397.5 4296.5 397.5" stroke="#D9D9D9" stroke-width="3.4375" stroke-linejoin="round" stroke-miterlimit="10" fill="none" />
		</g>
		<g>
			<path d="M 1038.5 4296.5 1038.5" stroke="#D9D9D9" stroke-width="3.4375" stroke-linejoin="round" stroke-miterlimit="10" fill="none" fill-rule="evenodd" />
		</g>
		<g>
			<text fill="#595959" font-family="Verdana,sans-serif" font-weight="400" font-size="41" transform="matrix(6.12323e-17 -1 1 6.12323e-17 3248 1226)">13-May</text>
		</g>
		<g>
			<text fill="#595959" font-family="Verdana,sans-serif" font-weight="400" font-size="41" transform="matrix(6.12323e-17 -1 1 6.12323e-17 3328.264705882353 1209)">10-Jun</text>
		</g>
		<g>
			<text fill="#595959" font-family="Verdana,sans-serif" font-weight="400" font-size="41" transform="matrix(6.12323e-17 -1 1 6.12323e-17 3412.029411764706 1197)">08-Jul</text>
		</g>
		<g>
			<text fill="#595959" font-family="Verdana,sans-serif" font-weight="400" font-size="41" transform="matrix(6.12323e-17 -1 1 6.12323e-17 3499.294117647059 1221)">05-Aug</text>
		</g>
		<g>
			<text fill="#595959" font-family="Verdana,sans-serif" font-weight="400" font-size="41" transform="matrix(6.12323e-17 -1 1 6.12323e-17 3583.0588235294117 1222)">02-Sep</text>
		</g>
		<g>
			<text fill="#595959" font-family="Verdana,sans-serif" font-weight="400" font-size="41" transform="matrix(6.12323e-17 -1 1 6.12323e-17 3666.823529411765 1221)">30-Sep</text>
		</g>
		<g>
			<text fill="#595959" font-family="Verdana,sans-serif" font-weight="400" font-size="41" transform="matrix(6.12323e-17 -1 1 6.12323e-17 3747.0882352941176 1215)">28-Oct</text>
		</g>
		<g>
			<text fill="#595959" font-family="Verdana,sans-serif" font-weight="400" font-size="41" transform="matrix(6.12323e-17 -1 1 6.12323e-17 3830.8529411764707 1224)">25-Nov</text>
		</g>
		<g>
			<text fill="#595959" font-family="Verdana,sans-serif" font-weight="400" font-size="41" transform="matrix(6.12323e-17 -1 1 6.12323e-17 3914.6176470588234 1222)">30-Dec</text>
		</g>
		<g>
			<text fill="#595959" font-family="Verdana,sans-serif" font-weight="400" font-size="41" transform="matrix(6.12323e-17 -1 1 6.12323e-17 3998.3823529411766 1210)">27-Jan</text>
		</g>
		<g>
			<text fill="#595959" font-family="Verdana,sans-serif" font-weight="400" font-size="41" transform="matrix(6.12323e-17 -1 1 6.12323e-17 4082.1470588235293 1216)">24-Feb</text>
		</g>
		<g>
			<text fill="#595959" font-family="Verdana,sans-serif" font-weight="400" font-size="41" transform="matrix(6.12323e-17 -1 1 6.12323e-17 4165.911764705882 1223)">24-Mar</text>
		</g>
		<g>
			<text fill="#595959" font-family="Verdana,sans-serif" font-weight="400" font-size="41" transform="matrix(6.12323e-17 -1 1 6.12323e-17 4253.176470588235 1216)">21-Apr</text>
		</g>
		<g>
			<text fill="#595959" font-family="Verdana,sans-serif" font-weight="400" font-size="41" transform="matrix(1 0 0 1 3167.5 1050)">0</text>
		</g>
		<g>
			<text fill="#595959" font-family="Verdana,sans-serif" font-weight="400" font-size="41" transform="matrix(1 0 0 1 3141.5 922)">63</text>
		</g>
		<g>
			<text fill="#595959" font-family="Verdana,sans-serif" font-weight="400" font-size="41" transform="matrix(1 0 0 1 3117.5 794)">127</text>
		</g>
		<g>
			<text fill="#595959" font-family="Verdana,sans-serif" font-weight="400" font-size="41" transform="matrix(1 0 0 1 3118.5 666)">190</text>
		</g>
		<g>
			<text fill="#595959" font-family="Verdana,sans-serif" font-weight="400" font-size="41" transform="matrix(1 0 0 1 3115.5 538)">254</text>
		</g>
		<g>
			<text fill="#595959" font-family="Verdana,sans-serif" font-weight="400" font-size="41" transform="matrix(1 0 0 1 3115.5 410)">317</text>
		</g>
		<g>
			<text fill="#595959" font-family="Verdana,sans-serif" font-weight="400" font-size="41" transform="matrix(1 0 0 1 3544.5 1321)">Week Commencing</text>
		</g>
		<g>
			<text fill="#595959" font-family="Verdana,sans-serif" font-weight="400" font-size="46" transform="matrix(6.12323e-17 -1 1 6.12323e-17 3019.73 1024.75)">Number of Crawler Profiles</text>
		</g>
		<rect x="2918.5" y="347.5" width="1760" height="1043" stroke="#D9D9D9" stroke-width="3.4375" stroke-linejoin="round" stroke-miterlimit="10" fill="none" />
		<g>
			<path d="M3228.5 1038 3249.4411764705883 1038 3270.3823529411766 1038 3291.323529411765 1038 3312.264705882353 1038 3333.205882352941 1038 3354.1470588235293 1038 3375.0882352941176 1038 3396.029411764706 1038 3416.970588235294 1038 3437.9117647058824 1038 3458.8529411764707 1038 3479.794117647059 1038 3500.735294117647 1038 3521.676470588235 1038 3542.6176470588234 1038 3563.5588235294117 1038 3584.5 1038 3605.4411764705883 1038 3626.3823529411766 1038 3647.323529411765 1038 3668.264705882353 1038 3689.205882352941 1038 3710.1470588235293 1038 3731.0882352941176 1038 3752.029411764706 1038 3772.970588235294 1038 3793.9117647058824 1038 3814.8529411764707 1038 3835.7941176470586 1038 3856.735294117647 1038 3877.676470588235 1038 3898.6176470588234 1038 3919.5588235294117 1038 3940.5 1038 3961.4411764705883 1038 3982.3823529411766 1038 4003.323529411765 1038 4024.264705882353 1038 4045.2058823529414 1038 4066.1470588235293 1038 4087.0882352941176 1038 4108.029411764706 1038 4128.970588235294 1038 4149.911764705882 1038 4170.85294117647 1038 4191.794117647059 1038 4212.735294117647 1038 4233.676470588235 1038 4254.617647058823 1038 4275.558823529412 1038 4296.5 1038 4296.5 400.01892744479494 4275.558823529412 402.03785488959 4254.617647058823 404.05678233438493 4233.676470588235 406.0757097791799 4212.735294117647 406.0757097791799 4191.794117647059 406.0757097791799 4170.85294117647 408.0946372239748 4149.911764705882 408.0946372239748 4128.970588235294 408.0946372239748 4108.029411764706 410.11356466876975 4087.0882352941176 410.11356466876975 4066.1470588235293 412.1324921135647 4045.2058823529414 412.1324921135647 4024.264705882353 414.15141955835963 4003.323529411765 416.1703470031546 3982.3823529411766 418.1892744479495 3961.4411764705883 418.1892744479495 3940.5 422.2271293375395 3919.5588235294117 424.24605678233445 3898.6176470588234 424.24605678233445 3877.676470588235 424.24605678233445 3856.735294117647 428.28391167192433 3835.7941176470586 430.30283911671927 3814.8529411764707 436.3596214511041 3793.9117647058824 444.43533123028396 3772.970588235294 456.5488958990536 3752.029411764706 462.60567823343854 3731.0882352941176 462.60567823343854 3710.1470588235293 460.5867507886436 3689.205882352941 464.6246056782335 3668.264705882353 470.6813880126183 3647.323529411765 478.7570977917982 3626.3823529411766 478.7570977917982 3605.4411764705883 480.7760252365931 3584.5 490.8706624605678 3563.5588235294117 494.9085173501578 3542.6176470588234 498.9463722397477 3521.676470588235 498.9463722397477 3500.735294117647 502.98422712933757 3479.794117647059 502.98422712933757 3458.8529411764707 505.0031545741325 3437.9117647058824 507.02208201892745 3416.970588235294 515.0977917981073 3396.029411764706 521.1545741324921 3375.0882352941176 529.2302839116719 3354.1470588235293 535.2870662460568 3333.205882352941 545.3817034700317 3312.264705882353 549.4195583596215 3291.323529411765 549.4195583596215 3270.3823529411766 549.4195583596215 3249.4411764705883 551.4384858044164 3228.5 555.4763406940064 3228.5 1038Z" fill="#005aa6" opacity="0.9" />
		</g>
		<g>
			<path d="M3228.5 555.4763406940064 3249.4411764705883 551.4384858044164 3270.3823529411766 549.4195583596215 3291.323529411765 549.4195583596215 3312.264705882353 549.4195583596215 3333.205882352941 545.3817034700317 3354.1470588235293 535.2870662460568 3375.0882352941176 529.2302839116719 3396.029411764706 521.1545741324921 3416.970588235294 515.0977917981073 3437.9117647058824 507.02208201892745 3458.8529411764707 505.0031545741325 3479.794117647059 502.98422712933757 3500.735294117647 502.98422712933757 3521.676470588235 498.9463722397477 3542.6176470588234 498.9463722397477 3563.5588235294117 494.9085173501578 3584.5 490.8706624605678 3605.4411764705883 480.7760252365931 3626.3823529411766 478.7570977917982 3647.323529411765 478.7570977917982 3668.264705882353 470.6813880126183 3689.205882352941 464.6246056782335 3710.1470588235293 460.5867507886436 3731.0882352941176 462.60567823343854 3752.029411764706 462.60567823343854 3772.970588235294 456.5488958990536 3793.9117647058824 444.43533123028396 3814.8529411764707 436.3596214511041 3835.7941176470586 430.30283911671927 3856.735294117647 428.28391167192433 3877.676470588235 424.24605678233445 3898.6176470588234 424.24605678233445 3919.5588235294117 424.24605678233445 3940.5 422.2271293375395 3961.4411764705883 418.1892744479495 3982.3823529411766 418.1892744479495 4003.323529411765 416.1703470031546 4024.264705882353 414.15141955835963 4045.2058823529414 412.1324921135647 4066.1470588235293 412.1324921135647 4087.0882352941176 410.11356466876975 4108.029411764706 410.11356466876975 4128.970588235294 408.0946372239748 4149.911764705882 408.0946372239748 4170.85294117647 408.0946372239748 4191.794117647059 406.0757097791799 4212.735294117647 406.0757097791799 4233.676470588235 406.0757097791799 4254.617647058823 404.05678233438493 4275.558823529412 402.03785488959 4296.5 400.01892744479494 4296.5 398 4275.558823529412 400.01892744479505 4254.617647058823 402.03785488959 4233.676470588235 404.05678233438493 4212.735294117647 404.05678233438493 4191.794117647059 404.05678233438493 4170.85294117647 406.0757097791799 4149.911764705882 406.0757097791799 4128.970588235294 406.0757097791799 4108.029411764706 408.0946372239748 4087.0882352941176 408.0946372239748 4066.1470588235293 410.11356466876975 4045.2058823529414 410.11356466876975 4024.264705882353 412.1324921135647 4003.323529411765 414.15141955835963 3982.3823529411766 416.1703470031546 3961.4411764705883 416.1703470031546 3940.5 420.20820189274457 3919.5588235294117 422.2271293375395 3898.6176470588234 422.2271293375395 3877.676470588235 422.2271293375395 3856.735294117647 426.2649842271294 3835.7941176470586 428.28391167192433 3814.8529411764707 434.34069400630915 3793.9117647058824 442.416403785489 3772.970588235294 454.52996845425866 3752.029411764706 460.5867507886436 3731.0882352941176 460.5867507886436 3710.1470588235293 458.56782334384866 3689.205882352941 462.60567823343854 3668.264705882353 468.66246056782336 3647.323529411765 476.73817034700323 3626.3823529411766 476.73817034700323 3605.4411764705883 478.7570977917982 3584.5 488.8517350157729 3563.5588235294117 492.88958990536287 3542.6176470588234 496.92744479495275 3521.676470588235 496.92744479495275 3500.735294117647 500.96529968454263 3479.794117647059 500.96529968454263 3458.8529411764707 502.98422712933757 3437.9117647058824 505.0031545741325 3416.970588235294 513.0788643533124 3396.029411764706 519.1356466876972 3375.0882352941176 527.211356466877 3354.1470588235293 533.2681388012619 3333.205882352941 543.3627760252367 3312.264705882353 547.4006309148266 3291.323529411765 547.4006309148266 3270.3823529411766 547.4006309148266 3249.4411764705883 549.4195583596214 3228.5 553.4574132492114 3228.5 555.4763406940064Z" fill="#e62d39" opacity="0.9" />
		</g>
		<g>
			<rect x="4372" y="431" width="22.9995" height="23" fill="#005aa6" />
		</g>
		<g>
			<text fill="#595959" font-family="Verdana,sans-serif" font-weight="400" font-size="41" transform="matrix(1 0 0 1 4404.56 454)">Crawler</text>
		</g>
		<g>
			<rect x="4372" y="508" width="22.9995" height="23" fill="#e62d39" />
		</g>
		<g>
			<text fill="#595959" font-family="Verdana,sans-serif" font-weight="400" font-size="41" transform="matrix(1 0 0 1 4404.56 531)">Non-Crawler</text>
		</g>
	</g>
</svg>
