<svg width="1763" height="1046"
    xmlns="http://www.w3.org/2000/svg"
	xmlns:xlink="http://www.w3.org/1999/xlink" xml:space="preserve" overflow="hidden">
	<defs>
		<clipPath id="clip0">
			<rect x="2917" y="346" width="1763" height="1046"/>
		</clipPath>
	</defs>
	<g clip-path="url(#clip0)" transform="translate(-2917 -346)">
		<rect x="2918" y="347" width="1760" height="1043" fill="#FFFFFF" />
		<g>
			<path d="
			M3228.5 974.532 4296.5 974.532
			M3228.5 910.53 4296.5 910.53
			M3228.5 846.528 4296.5 846.528
			M3228.5 781.526 4296.5 781.526
			M3228.5 717.524 4296.5 717.524
			M3228.5 653.522 4296.5 653.522
			M3228.5 589.52 4296.5 589.52
			M3228.5 525.517 4296.5 525.517
			M3228.5 461.515 4296.5 461.515
			M3228.5 397.5 4296.5 397.5" stroke="#D9D9D9" stroke-width="3.4375" stroke-linejoin="round" stroke-miterlimit="10" fill="none" />
		</g>
		<g>
			<path d="M 1038.5 4296.5 1038.5" stroke="#D9D9D9" stroke-width="3.4375" stroke-linejoin="round" stroke-miterlimit="10" fill="none" fill-rule="evenodd" />
		</g>
		<g>
			<text fill="#595959" font-family="Verdana,Open Sans,DejaVu Sans,sans-serif" font-weight="400" font-size="41" transform="matrix(6.12323e-17 -1 1 6.12323e-17 3244.275390625 1203.08203125)">24-Feb</text>
		</g>
		<g>
			<text fill="#595959" font-family="Verdana,Open Sans,DejaVu Sans,sans-serif" font-weight="400" font-size="41" transform="matrix(6.12323e-17 -1 1 6.12323e-17 3327.309383616728 1212.05078125)">24-Mar</text>
		</g>
		<g>
			<text fill="#595959" font-family="Verdana,Open Sans,DejaVu Sans,sans-serif" font-weight="400" font-size="41" transform="matrix(6.12323e-17 -1 1 6.12323e-17 3415.798698874081 1203.3022384643555)">21-Apr</text>
		</g>
		<g>
			<text fill="#595959" font-family="Verdana,Open Sans,DejaVu Sans,sans-serif" font-weight="400" font-size="41" transform="matrix(6.12323e-17 -1 1 6.12323e-17 3499.563404756434 1214.75341796875)">19-May</text>
		</g>
		<g>
			<text fill="#595959" font-family="Verdana,Open Sans,DejaVu Sans,sans-serif" font-weight="400" font-size="41" transform="matrix(6.12323e-17 -1 1 6.12323e-17 3582.2570657169117 1194.0532150268555)">23-Jun</text>
		</g>
		<g>
			<text fill="#595959" font-family="Verdana,Open Sans,DejaVu Sans,sans-serif" font-weight="400" font-size="41" transform="matrix(6.12323e-17 -1 1 6.12323e-17 3666.75248448989 1179.0385665893555)">21-Jul</text>
		</g>
		<g>
			<text fill="#595959" font-family="Verdana,Open Sans,DejaVu Sans,sans-serif" font-weight="400" font-size="41" transform="matrix(6.12323e-17 -1 1 6.12323e-17 3750.8575224034926 1206.90576171875)">18-Aug</text>
		</g>
		<g>
			<text fill="#595959" font-family="Verdana,Open Sans,DejaVu Sans,sans-serif" font-weight="400" font-size="41" transform="matrix(6.12323e-17 -1 1 6.12323e-17 3834.6222282858457 1202.66162109375)">15-Sep</text>
		</g>
		<g>
			<text fill="#595959" font-family="Verdana,Open Sans,DejaVu Sans,sans-serif" font-weight="400" font-size="41" transform="matrix(6.12323e-17 -1 1 6.12323e-17 3913.6823443244484 1199.3784103393555)">13-Oct</text>
		</g>
		<g>
			<text fill="#595959" font-family="Verdana,Open Sans,DejaVu Sans,sans-serif" font-weight="400" font-size="41" transform="matrix(6.12323e-17 -1 1 6.12323e-17 3997.4470502068016 1209.70849609375)">10-Nov</text>
		</g>
		<g>
			<text fill="#595959" font-family="Verdana,Open Sans,DejaVu Sans,sans-serif" font-weight="400" font-size="41" transform="matrix(6.12323e-17 -1 1 6.12323e-17 4081.2117560891543 1207.0859375)">08-Dec</text>
		</g>
		<g>
			<text fill="#595959" font-family="Verdana,Open Sans,DejaVu Sans,sans-serif" font-weight="400" font-size="41" transform="matrix(6.12323e-17 -1 1 6.12323e-17 4168.630026424632 1191.6508712768555)">05-Jan</text>
		</g>
		<g>
			<text fill="#595959" font-family="Verdana,Open Sans,DejaVu Sans,sans-serif" font-weight="400" font-size="41" transform="matrix(6.12323e-17 -1 1 6.12323e-17 4249.451861213235 1203.0419921875)">02-Feb</text>
		</g>
		<g>
			<text fill="#595959" font-family="Verdana,Open Sans,DejaVu Sans,sans-serif" font-weight="400" font-size="41" transform="matrix(1 0 0 1 3135.4482421875 1050)">0%</text>
		</g>
		<g>
			<text fill="#595959" font-family="Verdana,Open Sans,DejaVu Sans,sans-serif" font-weight="400" font-size="41" transform="matrix(1 0 0 1 3111.96533203125 922)">20%</text>
		</g>
		<g>
			<text fill="#595959" font-family="Verdana,Open Sans,DejaVu Sans,sans-serif" font-weight="400" font-size="41" transform="matrix(1 0 0 1 3110.82421875 794)">40%</text>
		</g>
		<g>
			<text fill="#595959" font-family="Verdana,Open Sans,DejaVu Sans,sans-serif" font-weight="400" font-size="41" transform="matrix(1 0 0 1 3112.3056640625 666)">60%</text>
		</g>
		<g>
			<text fill="#595959" font-family="Verdana,Open Sans,DejaVu Sans,sans-serif" font-weight="400" font-size="41" transform="matrix(1 0 0 1 3112.04541015625 538)">80%</text>
		</g>
		<g>
			<text fill="#595959" font-family="Verdana,Open Sans,DejaVu Sans,sans-serif" font-weight="400" font-size="41" transform="matrix(1 0 0 1 3090.2841796875 410)">100%</text>
		</g>
		<g>
			<text fill="#595959" font-family="Verdana,Open Sans,DejaVu Sans,sans-serif" font-weight="400" font-size="41" transform="matrix(1 0 0 1 3556.97119140625 1321)">Week Commencing</text>
		</g>
		<g>
			<text fill="#595959" font-family="Verdana,Open Sans,DejaVu Sans,sans-serif" font-weight="400" font-size="46" transform="matrix(6.12323e-17 -1 1 6.12323e-17 3019.73 936.7665710449219)">Requests (% of Total)</text>
		</g>
		<rect x="2918.5" y="347.5" width="1760" height="1043" stroke="#D9D9D9" stroke-width="3.4375" stroke-linejoin="round" stroke-miterlimit="10" fill="none" />
		<g>
			<path d="M3228.5 1038 3249.4411764705883 1038 3270.3823529411766 1038 3291.323529411765 1038 3312.264705882353 1038 3333.205882352941 1038 3354.1470588235293 1038 3375.0882352941176 1038 3396.029411764706 1038 3416.970588235294 1038 3437.9117647058824 1038 3458.8529411764707 1038 3479.794117647059 1038 3500.735294117647 1038 3521.676470588235 1038 3542.6176470588234 1038 3563.5588235294117 1038 3584.5 1038 3605.4411764705883 1038 3626.3823529411766 1038 3647.323529411765 1038 3668.264705882353 1038 3689.205882352941 1038 3710.1470588235293 1038 3731.0882352941176 1038 3752.029411764706 1038 3772.970588235294 1038 3793.9117647058824 1038 3814.8529411764707 1038 3835.7941176470586 1038 3856.735294117647 1038 3877.676470588235 1038 3898.6176470588234 1038 3919.5588235294117 1038 3940.5 1038 3961.4411764705883 1038 3982.3823529411766 1038 4003.323529411765 1038 4024.264705882353 1038 4045.2058823529414 1038 4066.1470588235293 1038 4087.0882352941176 1038 4108.029411764706 1038 4128.970588235294 1038 4149.911764705882 1038 4170.85294117647 1038 4191.794117647059 1038 4212.735294117647 1038 4233.676470588235 1038 4254.617647058823 1038 4275.558823529412 1038 4296.5 1038 4296.5 438.2569100073033 4275.558823529412 438.25416567656384 4254.617647058823 438.2284066200755 4233.676470588235 438.4018523571715 4212.735294117647 438.2585045087485 4191.794117647059 438.1419455028754 4170.85294117647 438.1490336079519 4149.911764705882 438.2753528850003 4128.970588235294 438.3712938024157 4108.029411764706 438.93844580645873 4087.0882352941176 438.66009075050135 4066.1470588235293 438.6550093538849 4045.2058823529414 438.8753603320732 4024.264705882353 440.072777946987 4003.323529411765 439.54649540853677 3982.3823529411766 439.7648762802967 3961.4411764705883 440.0929578933227 3940.5 440.1107731424996 3919.5588235294117 440.17666153343987 3898.6176470588234 440.17259352262283 3877.676470588235 440.3280263296216 3856.735294117647 440.34799215358134 3835.7941176470586 440.40616975209355 3814.8529411764707 440.40760550465325 3793.9117647058824 440.94196380839696 3772.970588235294 441.17078340782746 3752.029411764706 441.17336955313306 3731.0882352941176 441.3391880005887 3710.1470588235293 441.48654078274615 3689.205882352941 441.48316478044603 3668.264705882353 441.484756503997 3647.323529411765 441.489616515065 3626.3823529411766 441.29796426599523 3605.4411764705883 441.72595383903854 3584.5 442.8417422387853 3563.5588235294117 442.854171965349 3542.6176470588234 442.95845521922934 3521.676470588235 442.9731674669964 3500.735294117647 443.09587998074596 3479.794117647059 442.9453880046191 3458.8529411764707 442.7539759175269 3437.9117647058824 442.4035157162202 3416.970588235294 442.11056785584276 3396.029411764706 441.83280494374446 3375.0882352941176 441.70333243098173 3354.1470588235293 441.6626940555466 3333.205882352941 441.6573661278967 3312.264705882353 441.5375979828307 3291.323529411765 441.406683369976 3270.3823529411766 441.167209213907 3249.4411764705883 441.0289316920836 3228.5 441.03561787240676 3228.5 1038Z" fill="#e62d39" opacity="0.9" />
		</g>
		<g>
			<path d="M3228.5 441.03561787240676 3249.4411764705883 441.0289316920836 3270.3823529411766 441.167209213907 3291.323529411765 441.406683369976 3312.264705882353 441.5375979828307 3333.205882352941 441.6573661278967 3354.1470588235293 441.6626940555466 3375.0882352941176 441.70333243098173 3396.029411764706 441.83280494374446 3416.970588235294 442.11056785584276 3437.9117647058824 442.4035157162202 3458.8529411764707 442.7539759175269 3479.794117647059 442.9453880046191 3500.735294117647 443.09587998074596 3521.676470588235 442.9731674669964 3542.6176470588234 442.95845521922934 3563.5588235294117 442.854171965349 3584.5 442.8417422387853 3605.4411764705883 441.72595383903854 3626.3823529411766 441.29796426599523 3647.323529411765 441.489616515065 3668.264705882353 441.484756503997 3689.205882352941 441.48316478044603 3710.1470588235293 441.48654078274615 3731.0882352941176 441.3391880005887 3752.029411764706 441.17336955313306 3772.970588235294 441.17078340782746 3793.9117647058824 440.94196380839696 3814.8529411764707 440.40760550465325 3835.7941176470586 440.40616975209355 3856.735294117647 440.34799215358134 3877.676470588235 440.3280263296216 3898.6176470588234 440.17259352262283 3919.5588235294117 440.17666153343987 3940.5 440.1107731424996 3961.4411764705883 440.0929578933227 3982.3823529411766 439.7648762802967 4003.323529411765 439.54649540853677 4024.264705882353 440.072777946987 4045.2058823529414 438.8753603320732 4066.1470588235293 438.6550093538849 4087.0882352941176 438.66009075050135 4108.029411764706 438.93844580645873 4128.970588235294 438.3712938024157 4149.911764705882 438.2753528850003 4170.85294117647 438.1490336079519 4191.794117647059 438.1419455028754 4212.735294117647 438.2585045087485 4233.676470588235 438.4018523571715 4254.617647058823 438.2284066200755 4275.558823529412 438.25416567656384 4296.5 438.2569100073033 4296.5 397.99999999999994 4275.558823529412 398 4254.617647058823 398 4233.676470588235 398.00000000000006 4212.735294117647 398 4191.794117647059 397.99999999999994 4170.85294117647 398 4149.911764705882 398.00000000000006 4128.970588235294 398 4108.029411764706 398 4087.0882352941176 398 4066.1470588235293 398.00000000000006 4045.2058823529414 398 4024.264705882353 398 4003.323529411765 398 3982.3823529411766 398.00000000000006 3961.4411764705883 398 3940.5 398 3919.5588235294117 398.00000000000006 3898.6176470588234 398 3877.676470588235 398.00000000000006 3856.735294117647 398.00000000000006 3835.7941176470586 398.0000000000001 3814.8529411764707 398 3793.9117647058824 398 3772.970588235294 398 3752.029411764706 397.99999999999994 3731.0882352941176 398 3710.1470588235293 398 3689.205882352941 397.99999999999994 3668.264705882353 398 3647.323529411765 398 3626.3823529411766 397.99999999999994 3605.4411764705883 398 3584.5 398 3563.5588235294117 397.99999999999994 3542.6176470588234 398.00000000000006 3521.676470588235 398 3500.735294117647 398 3479.794117647059 398.00000000000006 3458.8529411764707 397.99999999999994 3437.9117647058824 398 3416.970588235294 398.00000000000006 3396.029411764706 398 3375.0882352941176 398 3354.1470588235293 398 3333.205882352941 398 3312.264705882353 398.00000000000006 3291.323529411765 398 3270.3823529411766 398 3249.4411764705883 398 3228.5 398 3228.5 441.03561787240676Z" fill="#005aa6" opacity="0.9" />
		</g>
		<g>
			<rect x="4372" y="431" width="22.9995" height="23" fill="#e62d39" />
		</g>
		<g>
			<text fill="#595959" font-family="Verdana,Open Sans,DejaVu Sans,sans-serif" font-weight="400" font-size="41" transform="matrix(1 0 0 1 4404.56 454)">Non-Crawler</text>
		</g>
		<g>
			<rect x="4372" y="508" width="22.9995" height="23" fill="#005aa6" />
		</g>
		<g>
			<text fill="#595959" font-family="Verdana,Open Sans,DejaVu Sans,sans-serif" font-weight="400" font-size="41" transform="matrix(1 0 0 1 4404.56 531)">Crawler</text>
		</g>
	</g>
</svg>
