<svg width="1763" height="1046"
    xmlns="http://www.w3.org/2000/svg"
	xmlns:xlink="http://www.w3.org/1999/xlink" xml:space="preserve" overflow="hidden">
	<defs>
		<clipPath id="clip0">
			<rect x="2917" y="346" width="1763" height="1046"/>
		</clipPath>
	</defs>
	<g clip-path="url(#clip0)" transform="translate(-2917 -346)">
		<rect x="2918" y="347" width="1760" height="1043" fill="#FFFFFF" />
		<g>
			<path d="
			M3228.5 974.532 4296.5 974.532
			M3228.5 910.53 4296.5 910.53
			M3228.5 846.528 4296.5 846.528
			M3228.5 781.526 4296.5 781.526
			M3228.5 717.524 4296.5 717.524
			M3228.5 653.522 4296.5 653.522
			M3228.5 589.52 4296.5 589.52
			M3228.5 525.517 4296.5 525.517
			M3228.5 461.515 4296.5 461.515
			M3228.5 397.5 4296.5 397.5" stroke="#D9D9D9" stroke-width="3.4375" stroke-linejoin="round" stroke-miterlimit="10" fill="none" />
		</g>
		<g>
			<path d="M 1038.5 4296.5 1038.5" stroke="#D9D9D9" stroke-width="3.4375" stroke-linejoin="round" stroke-miterlimit="10" fill="none" fill-rule="evenodd" />
		</g>
		<g>
			<text fill="#595959" font-family="Verdana,sans-serif" font-weight="400" font-size="41" transform="matrix(6.12323e-17 -1 1 6.12323e-17 3248 1214)">15-Apr</text>
		</g>
		<g>
			<text fill="#595959" font-family="Verdana,sans-serif" font-weight="400" font-size="41" transform="matrix(6.12323e-17 -1 1 6.12323e-17 3331.764705882353 1226)">13-May</text>
		</g>
		<g>
			<text fill="#595959" font-family="Verdana,sans-serif" font-weight="400" font-size="41" transform="matrix(6.12323e-17 -1 1 6.12323e-17 3412.029411764706 1209)">10-Jun</text>
		</g>
		<g>
			<text fill="#595959" font-family="Verdana,sans-serif" font-weight="400" font-size="41" transform="matrix(6.12323e-17 -1 1 6.12323e-17 3495.794117647059 1197)">08-Jul</text>
		</g>
		<g>
			<text fill="#595959" font-family="Verdana,sans-serif" font-weight="400" font-size="41" transform="matrix(6.12323e-17 -1 1 6.12323e-17 3583.0588235294117 1221)">05-Aug</text>
		</g>
		<g>
			<text fill="#595959" font-family="Verdana,sans-serif" font-weight="400" font-size="41" transform="matrix(6.12323e-17 -1 1 6.12323e-17 3666.823529411765 1222)">02-Sep</text>
		</g>
		<g>
			<text fill="#595959" font-family="Verdana,sans-serif" font-weight="400" font-size="41" transform="matrix(6.12323e-17 -1 1 6.12323e-17 3750.5882352941176 1221)">30-Sep</text>
		</g>
		<g>
			<text fill="#595959" font-family="Verdana,sans-serif" font-weight="400" font-size="41" transform="matrix(6.12323e-17 -1 1 6.12323e-17 3830.8529411764707 1215)">28-Oct</text>
		</g>
		<g>
			<text fill="#595959" font-family="Verdana,sans-serif" font-weight="400" font-size="41" transform="matrix(6.12323e-17 -1 1 6.12323e-17 3914.6176470588234 1224)">25-Nov</text>
		</g>
		<g>
			<text fill="#595959" font-family="Verdana,sans-serif" font-weight="400" font-size="41" transform="matrix(6.12323e-17 -1 1 6.12323e-17 3998.3823529411766 1222)">30-Dec</text>
		</g>
		<g>
			<text fill="#595959" font-family="Verdana,sans-serif" font-weight="400" font-size="41" transform="matrix(6.12323e-17 -1 1 6.12323e-17 4082.1470588235293 1210)">27-Jan</text>
		</g>
		<g>
			<text fill="#595959" font-family="Verdana,sans-serif" font-weight="400" font-size="41" transform="matrix(6.12323e-17 -1 1 6.12323e-17 4165.911764705882 1216)">24-Feb</text>
		</g>
		<g>
			<text fill="#595959" font-family="Verdana,sans-serif" font-weight="400" font-size="41" transform="matrix(6.12323e-17 -1 1 6.12323e-17 4249.676470588235 1223)">24-Mar</text>
		</g>
		<g>
			<text fill="#595959" font-family="Verdana,sans-serif" font-weight="400" font-size="41" transform="matrix(1 0 0 1 3123.5 1050)">0%</text>
		</g>
		<g>
			<text fill="#595959" font-family="Verdana,sans-serif" font-weight="400" font-size="41" transform="matrix(1 0 0 1 3097.5 922)">20%</text>
		</g>
		<g>
			<text fill="#595959" font-family="Verdana,sans-serif" font-weight="400" font-size="41" transform="matrix(1 0 0 1 3096.5 794)">40%</text>
		</g>
		<g>
			<text fill="#595959" font-family="Verdana,sans-serif" font-weight="400" font-size="41" transform="matrix(1 0 0 1 3097.5 666)">60%</text>
		</g>
		<g>
			<text fill="#595959" font-family="Verdana,sans-serif" font-weight="400" font-size="41" transform="matrix(1 0 0 1 3097.5 538)">80%</text>
		</g>
		<g>
			<text fill="#595959" font-family="Verdana,sans-serif" font-weight="400" font-size="41" transform="matrix(1 0 0 1 3074.5 410)">100%</text>
		</g>
		<g>
			<text fill="#595959" font-family="Verdana,sans-serif" font-weight="400" font-size="41" transform="matrix(1 0 0 1 3544.5 1321)">Week Commencing</text>
		</g>
		<g>
			<text fill="#595959" font-family="Verdana,sans-serif" font-weight="400" font-size="46" transform="matrix(6.12323e-17 -1 1 6.12323e-17 3019.73 965.25)">Requests (% of Total)</text>
		</g>
		<rect x="2918.5" y="347.5" width="1760" height="1043" stroke="#D9D9D9" stroke-width="3.4375" stroke-linejoin="round" stroke-miterlimit="10" fill="none" />
		<g>
			<path d="M3228.5 1038 3249.4411764705883 1038 3270.3823529411766 1038 3291.323529411765 1038 3312.264705882353 1038 3333.205882352941 1038 3354.1470588235293 1038 3375.0882352941176 1038 3396.029411764706 1038 3416.970588235294 1038 3437.9117647058824 1038 3458.8529411764707 1038 3479.794117647059 1038 3500.735294117647 1038 3521.676470588235 1038 3542.6176470588234 1038 3563.5588235294117 1038 3584.5 1038 3605.4411764705883 1038 3626.3823529411766 1038 3647.323529411765 1038 3668.264705882353 1038 3689.205882352941 1038 3710.1470588235293 1038 3731.0882352941176 1038 3752.029411764706 1038 3772.970588235294 1038 3793.9117647058824 1038 3814.8529411764707 1038 3835.7941176470586 1038 3856.735294117647 1038 3877.676470588235 1038 3898.6176470588234 1038 3919.5588235294117 1038 3940.5 1038 3961.4411764705883 1038 3982.3823529411766 1038 4003.323529411765 1038 4024.264705882353 1038 4045.2058823529414 1038 4066.1470588235293 1038 4087.0882352941176 1038 4108.029411764706 1038 4128.970588235294 1038 4149.911764705882 1038 4170.85294117647 1038 4191.794117647059 1038 4212.735294117647 1038 4233.676470588235 1038 4254.617647058823 1038 4275.558823529412 1038 4296.5 1038 4296.5 441.70333243098173 4275.558823529412 441.6626940555466 4254.617647058823 441.6573661278967 4233.676470588235 441.5375979828307 4212.735294117647 441.406683369976 4191.794117647059 441.167209213907 4170.85294117647 441.0289316920836 4149.911764705882 441.03561787240676 4128.970588235294 441.06205687573333 4108.029411764706 441.14123809544583 4087.0882352941176 441.04668014176025 4066.1470588235293 441.3325461823914 4045.2058823529414 441.50673382811704 4024.264705882353 441.5263210359809 4003.323529411765 441.5338725099368 3982.3823529411766 441.5429030927178 3961.4411764705883 441.47417224977323 3940.5 441.4594945700171 3919.5588235294117 441.38808556766435 3898.6176470588234 441.3288056085928 3877.676470588235 441.47308833726333 3856.735294117647 441.645038932872 3835.7941176470586 441.9852131881347 3814.8529411764707 442.33307896966517 3793.9117647058824 566.5721783366624 3772.970588235294 567.1308685788513 3752.029411764706 567.5130485279316 3731.0882352941176 568.0135171374827 3710.1470588235293 568.6966145549849 3689.205882352941 569.582505337425 3668.264705882353 569.9559975833151 3647.323529411765 570.7071585028136 3626.3823529411766 571.2237275515587 3605.4411764705883 571.9035338843237 3584.5 572.0631883952817 3563.5588235294117 572.5486893796854 3542.6176470588234 572.9112818795618 3521.676470588235 572.7332415748011 3500.735294117647 572.862060937991 3479.794117647059 572.9365512268143 3458.8529411764707 572.8940388940463 3437.9117647058824 572.4651830343407 3416.970588235294 572.6325422225004 3396.029411764706 571.5082651331143 3375.0882352941176 572.2322344669446 3354.1470588235293 572.7455283998808 3333.205882352941 573.7260592446937 3312.264705882353 574.7878423335366 3291.323529411765 575.6290427379265 3270.3823529411766 575.9687876322813 3249.4411764705883 576.8727971406818 3228.5 578.2473295586981 3228.5 1038Z" fill="#e62d39" opacity="0.9" />
		</g>
		<g>
			<path d="M3228.5 578.2473295586981 3249.4411764705883 576.8727971406818 3270.3823529411766 575.9687876322813 3291.323529411765 575.6290427379265 3312.264705882353 574.7878423335366 3333.205882352941 573.7260592446937 3354.1470588235293 572.7455283998808 3375.0882352941176 572.2322344669446 3396.029411764706 571.5082651331143 3416.970588235294 572.6325422225004 3437.9117647058824 572.4651830343407 3458.8529411764707 572.8940388940463 3479.794117647059 572.9365512268143 3500.735294117647 572.862060937991 3521.676470588235 572.7332415748011 3542.6176470588234 572.9112818795618 3563.5588235294117 572.5486893796854 3584.5 572.0631883952817 3605.4411764705883 571.9035338843237 3626.3823529411766 571.2237275515587 3647.323529411765 570.7071585028136 3668.264705882353 569.9559975833151 3689.205882352941 569.582505337425 3710.1470588235293 568.6966145549849 3731.0882352941176 568.0135171374827 3752.029411764706 567.5130485279316 3772.970588235294 567.1308685788513 3793.9117647058824 566.5721783366624 3814.8529411764707 442.33307896966517 3835.7941176470586 441.9852131881347 3856.735294117647 441.645038932872 3877.676470588235 441.47308833726333 3898.6176470588234 441.3288056085928 3919.5588235294117 441.38808556766435 3940.5 441.4594945700171 3961.4411764705883 441.47417224977323 3982.3823529411766 441.5429030927178 4003.323529411765 441.5338725099368 4024.264705882353 441.5263210359809 4045.2058823529414 441.50673382811704 4066.1470588235293 441.3325461823914 4087.0882352941176 441.04668014176025 4108.029411764706 441.14123809544583 4128.970588235294 441.06205687573333 4149.911764705882 441.03561787240676 4170.85294117647 441.0289316920836 4191.794117647059 441.167209213907 4212.735294117647 441.406683369976 4233.676470588235 441.5375979828307 4254.617647058823 441.6573661278967 4275.558823529412 441.6626940555466 4296.5 441.70333243098173 4296.5 398 4275.558823529412 398 4254.617647058823 398 4233.676470588235 398.00000000000006 4212.735294117647 398 4191.794117647059 398 4170.85294117647 398 4149.911764705882 398 4128.970588235294 397.99999999999994 4108.029411764706 398 4087.0882352941176 398.00000000000006 4066.1470588235293 397.99999999999994 4045.2058823529414 398.00000000000006 4024.264705882353 398 4003.323529411765 398 3982.3823529411766 398 3961.4411764705883 398 3940.5 398.00000000000006 3919.5588235294117 398 3898.6176470588234 398 3877.676470588235 398 3856.735294117647 397.99999999999994 3835.7941176470586 398 3814.8529411764707 398 3793.9117647058824 398 3772.970588235294 398 3752.029411764706 398 3731.0882352941176 398 3710.1470588235293 398 3689.205882352941 398 3668.264705882353 398.00000000000006 3647.323529411765 398 3626.3823529411766 398 3605.4411764705883 398 3584.5 398.00000000000006 3563.5588235294117 398 3542.6176470588234 397.99999999999994 3521.676470588235 398 3500.735294117647 397.99999999999994 3479.794117647059 398.00000000000006 3458.8529411764707 398 3437.9117647058824 398 3416.970588235294 398 3396.029411764706 397.99999999999994 3375.0882352941176 398.0000000000001 3354.1470588235293 398 3333.205882352941 398 3312.264705882353 398.00000000000006 3291.323529411765 398 3270.3823529411766 398 3249.4411764705883 397.99999999999994 3228.5 397.99999999999994 3228.5 578.2473295586981Z" fill="#005aa6" opacity="0.9" />
		</g>
		<g>
			<rect x="4372" y="431" width="22.9995" height="23" fill="#e62d39" />
		</g>
		<g>
			<text fill="#595959" font-family="Verdana,sans-serif" font-weight="400" font-size="41" transform="matrix(1 0 0 1 4404.56 454)">Non-Crawler</text>
		</g>
		<g>
			<rect x="4372" y="508" width="22.9995" height="23" fill="#005aa6" />
		</g>
		<g>
			<text fill="#595959" font-family="Verdana,sans-serif" font-weight="400" font-size="41" transform="matrix(1 0 0 1 4404.56 531)">Crawler</text>
		</g>
	</g>
</svg>
