<svg width="1763" height="1046"
    xmlns="http://www.w3.org/2000/svg"
	xmlns:xlink="http://www.w3.org/1999/xlink" xml:space="preserve" overflow="hidden">
	<defs>
		<clipPath id="clip0">
			<rect x="2917" y="346" width="1763" height="1046"/>
		</clipPath>
	</defs>
	<g clip-path="url(#clip0)" transform="translate(-2917 -346)">
		<rect x="2918" y="347" width="1760" height="1043" fill="#FFFFFF" />
		<g>
			<path d="
			M3228.5 974.532 4296.5 974.532
			M3228.5 910.53 4296.5 910.53
			M3228.5 846.528 4296.5 846.528
			M3228.5 781.526 4296.5 781.526
			M3228.5 717.524 4296.5 717.524
			M3228.5 653.522 4296.5 653.522
			M3228.5 589.52 4296.5 589.52
			M3228.5 525.517 4296.5 525.517
			M3228.5 461.515 4296.5 461.515
			M3228.5 397.5 4296.5 397.5" stroke="#D9D9D9" stroke-width="3.4375" stroke-linejoin="round" stroke-miterlimit="10" fill="none" />
		</g>
		<g>
			<path d="M 1038.5 4296.5 1038.5" stroke="#D9D9D9" stroke-width="3.4375" stroke-linejoin="round" stroke-miterlimit="10" fill="none" fill-rule="evenodd" />
		</g>
		<g>
			<text fill="#595959" font-family="Verdana,sans-serif" font-weight="400" font-size="41" transform="matrix(6.12323e-17 -1 1 6.12323e-17 3244.5 1214)">12-Feb</text>
		</g>
		<g>
			<text fill="#595959" font-family="Verdana,sans-serif" font-weight="400" font-size="41" transform="matrix(6.12323e-17 -1 1 6.12323e-17 3327.764705882353 1221)">11-Mar</text>
		</g>
		<g>
			<text fill="#595959" font-family="Verdana,sans-serif" font-weight="400" font-size="41" transform="matrix(6.12323e-17 -1 1 6.12323e-17 3415.529411764706 1217)">08-Apr</text>
		</g>
		<g>
			<text fill="#595959" font-family="Verdana,sans-serif" font-weight="400" font-size="41" transform="matrix(6.12323e-17 -1 1 6.12323e-17 3499.294117647059 1228)">06-May</text>
		</g>
		<g>
			<text fill="#595959" font-family="Verdana,sans-serif" font-weight="400" font-size="41" transform="matrix(6.12323e-17 -1 1 6.12323e-17 3579.5588235294117 1211)">03-Jun</text>
		</g>
		<g>
			<text fill="#595959" font-family="Verdana,sans-serif" font-weight="400" font-size="41" transform="matrix(6.12323e-17 -1 1 6.12323e-17 3663.323529411765 1197)">01-Jul</text>
		</g>
		<g>
			<text fill="#595959" font-family="Verdana,sans-serif" font-weight="400" font-size="41" transform="matrix(6.12323e-17 -1 1 6.12323e-17 3747.0882352941176 1196)">29-Jul</text>
		</g>
		<g>
			<text fill="#595959" font-family="Verdana,sans-serif" font-weight="400" font-size="41" transform="matrix(6.12323e-17 -1 1 6.12323e-17 3834.3529411764707 1221)">26-Aug</text>
		</g>
		<g>
			<text fill="#595959" font-family="Verdana,sans-serif" font-weight="400" font-size="41" transform="matrix(6.12323e-17 -1 1 6.12323e-17 3918.1176470588234 1221)">23-Sep</text>
		</g>
		<g>
			<text fill="#595959" font-family="Verdana,sans-serif" font-weight="400" font-size="41" transform="matrix(6.12323e-17 -1 1 6.12323e-17 3998.3823529411766 1215)">21-Oct</text>
		</g>
		<g>
			<text fill="#595959" font-family="Verdana,sans-serif" font-weight="400" font-size="41" transform="matrix(6.12323e-17 -1 1 6.12323e-17 4082.1470588235293 1222)">18-Nov</text>
		</g>
		<g>
			<text fill="#595959" font-family="Verdana,sans-serif" font-weight="400" font-size="41" transform="matrix(6.12323e-17 -1 1 6.12323e-17 4165.911764705882 1222)">23-Dec</text>
		</g>
		<g>
			<text fill="#595959" font-family="Verdana,sans-serif" font-weight="400" font-size="41" transform="matrix(6.12323e-17 -1 1 6.12323e-17 4249.676470588235 1210)">20-Jan</text>
		</g>
		<g>
			<text fill="#595959" font-family="Verdana,sans-serif" font-weight="400" font-size="41" transform="matrix(1 0 0 1 3167.5 1050)">0</text>
		</g>
		<g>
			<text fill="#595959" font-family="Verdana,sans-serif" font-weight="400" font-size="41" transform="matrix(1 0 0 1 3141.5 922)">62</text>
		</g>
		<g>
			<text fill="#595959" font-family="Verdana,sans-serif" font-weight="400" font-size="41" transform="matrix(1 0 0 1 3117.5 794)">124</text>
		</g>
		<g>
			<text fill="#595959" font-family="Verdana,sans-serif" font-weight="400" font-size="41" transform="matrix(1 0 0 1 3117.5 666)">186</text>
		</g>
		<g>
			<text fill="#595959" font-family="Verdana,sans-serif" font-weight="400" font-size="41" transform="matrix(1 0 0 1 3115.5 538)">248</text>
		</g>
		<g>
			<text fill="#595959" font-family="Verdana,sans-serif" font-weight="400" font-size="41" transform="matrix(1 0 0 1 3115.5 410)">310</text>
		</g>
		<g>
			<text fill="#595959" font-family="Verdana,sans-serif" font-weight="400" font-size="41" transform="matrix(1 0 0 1 3544.5 1321)">Week Commencing</text>
		</g>
		<g>
			<text fill="#595959" font-family="Verdana,sans-serif" font-weight="400" font-size="46" transform="matrix(6.12323e-17 -1 1 6.12323e-17 3019.73 1024.75)">Number of Crawler Profiles</text>
		</g>
		<rect x="2918.5" y="347.5" width="1760" height="1043" stroke="#D9D9D9" stroke-width="3.4375" stroke-linejoin="round" stroke-miterlimit="10" fill="none" />
		<g>
			<path d="M3228.5 1038 3249.4411764705883 1038 3270.3823529411766 1038 3291.323529411765 1038 3312.264705882353 1038 3333.205882352941 1038 3354.1470588235293 1038 3375.0882352941176 1038 3396.029411764706 1038 3416.970588235294 1038 3437.9117647058824 1038 3458.8529411764707 1038 3479.794117647059 1038 3500.735294117647 1038 3521.676470588235 1038 3542.6176470588234 1038 3563.5588235294117 1038 3584.5 1038 3605.4411764705883 1038 3626.3823529411766 1038 3647.323529411765 1038 3668.264705882353 1038 3689.205882352941 1038 3710.1470588235293 1038 3731.0882352941176 1038 3752.029411764706 1038 3772.970588235294 1038 3793.9117647058824 1038 3814.8529411764707 1038 3835.7941176470586 1038 3856.735294117647 1038 3877.676470588235 1038 3898.6176470588234 1038 3919.5588235294117 1038 3940.5 1038 3961.4411764705883 1038 3982.3823529411766 1038 4003.323529411765 1038 4024.264705882353 1038 4045.2058823529414 1038 4066.1470588235293 1038 4087.0882352941176 1038 4108.029411764706 1038 4128.970588235294 1038 4149.911764705882 1038 4170.85294117647 1038 4191.794117647059 1038 4212.735294117647 1038 4233.676470588235 1038 4254.617647058823 1038 4275.558823529412 1038 4296.5 1038 4296.5 400.0645161290323 4275.558823529412 402.1290322580645 4254.617647058823 404.1935483870968 4233.676470588235 404.1935483870968 4212.735294117647 408.32258064516134 4191.794117647059 410.38709677419354 4170.85294117647 410.38709677419354 4149.911764705882 410.38709677419354 4128.970588235294 414.51612903225805 4108.029411764706 416.58064516129036 4087.0882352941176 422.7741935483871 4066.1470588235293 431.0322580645161 4045.2058823529414 443.41935483870975 4024.264705882353 449.61290322580646 4003.323529411765 449.61290322580646 3982.3823529411766 447.54838709677426 3961.4411764705883 451.6774193548388 3940.5 457.8709677419355 3919.5588235294117 466.1290322580645 3898.6176470588234 466.1290322580645 3877.676470588235 468.1935483870968 3856.735294117647 478.51612903225805 3835.7941176470586 482.64516129032256 3814.8529411764707 486.7741935483871 3793.9117647058824 486.7741935483871 3772.970588235294 490.9032258064516 3752.029411764706 490.9032258064516 3731.0882352941176 492.9677419354839 3710.1470588235293 495.0322580645161 3689.205882352941 503.2903225806451 3668.264705882353 509.48387096774195 3647.323529411765 517.741935483871 3626.3823529411766 523.9354838709678 3605.4411764705883 534.258064516129 3584.5 538.3870967741935 3563.5588235294117 538.3870967741935 3542.6176470588234 538.3870967741935 3521.676470588235 540.4516129032259 3500.735294117647 544.5806451612904 3479.794117647059 552.8387096774194 3458.8529411764707 556.9677419354839 3437.9117647058824 559.0322580645161 3416.970588235294 559.0322580645161 3396.029411764706 567.2903225806451 3375.0882352941176 567.2903225806451 3354.1470588235293 577.6129032258065 3333.205882352941 598.258064516129 3312.264705882353 602.3870967741935 3291.323529411765 606.516129032258 3270.3823529411766 616.8387096774194 3249.4411764705883 618.9032258064517 3228.5 618.9032258064517 3228.5 1038Z" fill="#005aa6" opacity="0.9" />
		</g>
		<g>
			<path d="M3228.5 618.9032258064517 3249.4411764705883 618.9032258064517 3270.3823529411766 616.8387096774194 3291.323529411765 606.516129032258 3312.264705882353 602.3870967741935 3333.205882352941 598.258064516129 3354.1470588235293 577.6129032258065 3375.0882352941176 567.2903225806451 3396.029411764706 567.2903225806451 3416.970588235294 559.0322580645161 3437.9117647058824 559.0322580645161 3458.8529411764707 556.9677419354839 3479.794117647059 552.8387096774194 3500.735294117647 544.5806451612904 3521.676470588235 540.4516129032259 3542.6176470588234 538.3870967741935 3563.5588235294117 538.3870967741935 3584.5 538.3870967741935 3605.4411764705883 534.258064516129 3626.3823529411766 523.9354838709678 3647.323529411765 517.741935483871 3668.264705882353 509.48387096774195 3689.205882352941 503.2903225806451 3710.1470588235293 495.0322580645161 3731.0882352941176 492.9677419354839 3752.029411764706 490.9032258064516 3772.970588235294 490.9032258064516 3793.9117647058824 486.7741935483871 3814.8529411764707 486.7741935483871 3835.7941176470586 482.64516129032256 3856.735294117647 478.51612903225805 3877.676470588235 468.1935483870968 3898.6176470588234 466.1290322580645 3919.5588235294117 466.1290322580645 3940.5 457.8709677419355 3961.4411764705883 451.6774193548388 3982.3823529411766 447.54838709677426 4003.323529411765 449.61290322580646 4024.264705882353 449.61290322580646 4045.2058823529414 443.41935483870975 4066.1470588235293 431.0322580645161 4087.0882352941176 422.7741935483871 4108.029411764706 416.58064516129036 4128.970588235294 414.51612903225805 4149.911764705882 410.38709677419354 4170.85294117647 410.38709677419354 4191.794117647059 410.38709677419354 4212.735294117647 408.32258064516134 4233.676470588235 404.1935483870968 4254.617647058823 404.1935483870968 4275.558823529412 402.1290322580645 4296.5 400.0645161290323 4296.5 398.00000000000006 4275.558823529412 400.06451612903226 4254.617647058823 402.12903225806457 4233.676470588235 402.12903225806457 4212.735294117647 406.2580645161291 4191.794117647059 408.3225806451613 4170.85294117647 408.3225806451613 4149.911764705882 408.3225806451613 4128.970588235294 412.4516129032258 4108.029411764706 414.5161290322581 4087.0882352941176 420.7096774193548 4066.1470588235293 428.96774193548384 4045.2058823529414 441.3548387096775 4024.264705882353 447.5483870967742 4003.323529411765 447.5483870967742 3982.3823529411766 445.483870967742 3961.4411764705883 449.6129032258065 3940.5 455.80645161290323 3919.5588235294117 464.06451612903226 3898.6176470588234 464.06451612903226 3877.676470588235 466.12903225806457 3856.735294117647 476.4516129032258 3835.7941176470586 480.5806451612903 3814.8529411764707 484.7096774193548 3793.9117647058824 484.7096774193548 3772.970588235294 488.83870967741933 3752.029411764706 488.83870967741933 3731.0882352941176 490.90322580645164 3710.1470588235293 492.96774193548384 3689.205882352941 501.22580645161287 3668.264705882353 507.4193548387097 3647.323529411765 515.6774193548387 3626.3823529411766 521.8709677419355 3605.4411764705883 532.1935483870967 3584.5 536.3225806451612 3563.5588235294117 536.3225806451612 3542.6176470588234 536.3225806451612 3521.676470588235 538.3870967741935 3500.735294117647 542.516129032258 3479.794117647059 550.7741935483871 3458.8529411764707 554.9032258064516 3437.9117647058824 556.9677419354838 3416.970588235294 556.9677419354838 3396.029411764706 565.2258064516128 3375.0882352941176 565.2258064516128 3354.1470588235293 575.5483870967741 3333.205882352941 596.1935483870967 3312.264705882353 600.3225806451612 3291.323529411765 604.4516129032257 3270.3823529411766 614.7741935483871 3249.4411764705883 616.8387096774194 3228.5 616.8387096774194 3228.5 618.9032258064517Z" fill="#e62d39" opacity="0.9" />
		</g>
		<g>
			<rect x="4372" y="431" width="22.9995" height="23" fill="#005aa6" />
		</g>
		<g>
			<text fill="#595959" font-family="Verdana,sans-serif" font-weight="400" font-size="41" transform="matrix(1 0 0 1 4404.56 454)">Crawler</text>
		</g>
		<g>
			<rect x="4372" y="508" width="22.9995" height="23" fill="#e62d39" />
		</g>
		<g>
			<text fill="#595959" font-family="Verdana,sans-serif" font-weight="400" font-size="41" transform="matrix(1 0 0 1 4404.56 531)">Non-Crawler</text>
		</g>
	</g>
</svg>
