<svg width="1763" height="1046"
    xmlns="http://www.w3.org/2000/svg"
	xmlns:xlink="http://www.w3.org/1999/xlink" xml:space="preserve" overflow="hidden">
	<defs>
		<clipPath id="clip0">
			<rect x="2917" y="346" width="1763" height="1046"/>
		</clipPath>
	</defs>
	<g clip-path="url(#clip0)" transform="translate(-2917 -346)">
		<rect x="2918" y="347" width="1760" height="1043" fill="#FFFFFF" />
		<g>
			<path d="
			M3228.5 974.532 4296.5 974.532
			M3228.5 910.53 4296.5 910.53
			M3228.5 846.528 4296.5 846.528
			M3228.5 781.526 4296.5 781.526
			M3228.5 717.524 4296.5 717.524
			M3228.5 653.522 4296.5 653.522
			M3228.5 589.52 4296.5 589.52
			M3228.5 525.517 4296.5 525.517
			M3228.5 461.515 4296.5 461.515
			M3228.5 397.5 4296.5 397.5" stroke="#D9D9D9" stroke-width="3.4375" stroke-linejoin="round" stroke-miterlimit="10" fill="none" />
		</g>
		<g>
			<path d="M 1038.5 4296.5 1038.5" stroke="#D9D9D9" stroke-width="3.4375" stroke-linejoin="round" stroke-miterlimit="10" fill="none" fill-rule="evenodd" />
		</g>
		<g>
			<text fill="#595959" font-family="Verdana,Open Sans,DejaVu Sans,sans-serif" font-weight="400" font-size="41" transform="matrix(6.12323e-17 -1 1 6.12323e-17 3244.275390625 1201.3203125)">17-Feb</text>
		</g>
		<g>
			<text fill="#595959" font-family="Verdana,Open Sans,DejaVu Sans,sans-serif" font-weight="400" font-size="41" transform="matrix(6.12323e-17 -1 1 6.12323e-17 3328.77447265625 1210.2890625)">17-Mar</text>
		</g>
		<g>
			<text fill="#595959" font-family="Verdana,Open Sans,DejaVu Sans,sans-serif" font-weight="400" font-size="41" transform="matrix(6.12323e-17 -1 1 6.12323e-17 3419.01916015625 1201.5405197143555)">14-Apr</text>
		</g>
		<g>
			<text fill="#595959" font-family="Verdana,Open Sans,DejaVu Sans,sans-serif" font-weight="400" font-size="41" transform="matrix(6.12323e-17 -1 1 6.12323e-17 3504.589287109375 1214.75341796875)">12-May</text>
		</g>
		<g>
			<text fill="#595959" font-family="Verdana,Open Sans,DejaVu Sans,sans-serif" font-weight="400" font-size="41" transform="matrix(6.12323e-17 -1 1 6.12323e-17 3588.9582421875 1192.2914962768555)">16-Jun</text>
		</g>
		<g>
			<text fill="#595959" font-family="Verdana,Open Sans,DejaVu Sans,sans-serif" font-weight="400" font-size="41" transform="matrix(6.12323e-17 -1 1 6.12323e-17 3675.128955078125 1177.2768478393555)">14-Jul</text>
		</g>
		<g>
			<text fill="#595959" font-family="Verdana,Open Sans,DejaVu Sans,sans-serif" font-weight="400" font-size="41" transform="matrix(6.12323e-17 -1 1 6.12323e-17 3760.759140625 1206.90576171875)">11-Aug</text>
		</g>
		<g>
			<text fill="#595959" font-family="Verdana,Open Sans,DejaVu Sans,sans-serif" font-weight="400" font-size="41" transform="matrix(6.12323e-17 -1 1 6.12323e-17 3846.369306640625 1204.38330078125)">08-Sep</text>
		</g>
		<g>
			<text fill="#595959" font-family="Verdana,Open Sans,DejaVu Sans,sans-serif" font-weight="400" font-size="41" transform="matrix(6.12323e-17 -1 1 6.12323e-17 3927.084697265625 1201.1000900268555)">06-Oct</text>
		</g>
		<g>
			<text fill="#595959" font-family="Verdana,Open Sans,DejaVu Sans,sans-serif" font-weight="400" font-size="41" transform="matrix(6.12323e-17 -1 1 6.12323e-17 4012.524697265625 1211.43017578125)">03-Nov</text>
		</g>
		<g>
			<text fill="#595959" font-family="Verdana,Open Sans,DejaVu Sans,sans-serif" font-weight="400" font-size="41" transform="matrix(6.12323e-17 -1 1 6.12323e-17 4097.964697265625 1207.0859375)">01-Dec</text>
		</g>
		<g>
			<text fill="#595959" font-family="Verdana,Open Sans,DejaVu Sans,sans-serif" font-weight="400" font-size="41" transform="matrix(6.12323e-17 -1 1 6.12323e-17 4183.384677734375 1207.1259765625)">29-Dec</text>
		</g>
		<g>
			<text fill="#595959" font-family="Verdana,Open Sans,DejaVu Sans,sans-serif" font-weight="400" font-size="41" transform="matrix(6.12323e-17 -1 1 6.12323e-17 4272.4782421875 1191.6909103393555)">26-Jan</text>
		</g>
		<g>
			<text fill="#595959" font-family="Verdana,Open Sans,DejaVu Sans,sans-serif" font-weight="400" font-size="41" transform="matrix(1 0 0 1 3169.14111328125 1050)">0</text>
		</g>
		<g>
			<text fill="#595959" font-family="Verdana,Open Sans,DejaVu Sans,sans-serif" font-weight="400" font-size="41" transform="matrix(1 0 0 1 3145.6982421875 922)">72</text>
		</g>
		<g>
			<text fill="#595959" font-family="Verdana,Open Sans,DejaVu Sans,sans-serif" font-weight="400" font-size="41" transform="matrix(1 0 0 1 3124.29736328125 794)">145</text>
		</g>
		<g>
			<text fill="#595959" font-family="Verdana,Open Sans,DejaVu Sans,sans-serif" font-weight="400" font-size="41" transform="matrix(1 0 0 1 3122.25537109375 666)">217</text>
		</g>
		<g>
			<text fill="#595959" font-family="Verdana,Open Sans,DejaVu Sans,sans-serif" font-weight="400" font-size="41" transform="matrix(1 0 0 1 3122.21533203125 538)">290</text>
		</g>
		<g>
			<text fill="#595959" font-family="Verdana,Open Sans,DejaVu Sans,sans-serif" font-weight="400" font-size="41" transform="matrix(1 0 0 1 3122.25537109375 410)">362</text>
		</g>
		<g>
			<text fill="#595959" font-family="Verdana,Open Sans,DejaVu Sans,sans-serif" font-weight="400" font-size="41" transform="matrix(1 0 0 1 3556.97119140625 1321)">Week Commencing</text>
		</g>
		<g>
			<text fill="#595959" font-family="Verdana,Open Sans,DejaVu Sans,sans-serif" font-weight="400" font-size="46" transform="matrix(6.12323e-17 -1 1 6.12323e-17 3019.73 1005.4858093261719)">Number of Crawler Profiles</text>
		</g>
		<rect x="2918.5" y="347.5" width="1760" height="1043" stroke="#D9D9D9" stroke-width="3.4375" stroke-linejoin="round" stroke-miterlimit="10" fill="none" />
		<g>
			<path d="M3228.5 1038 3249.86 1038 3271.22 1038 3292.58 1038 3313.94 1038 3335.3 1038 3356.66 1038 3378.02 1038 3399.38 1038 3420.74 1038 3442.1 1038 3463.46 1038 3484.82 1038 3506.18 1038 3527.54 1038 3548.9 1038 3570.26 1038 3591.62 1038 3612.98 1038 3634.34 1038 3655.7 1038 3677.06 1038 3698.42 1038 3719.7799999999997 1038 3741.14 1038 3762.5 1038 3783.86 1038 3805.2200000000003 1038 3826.58 1038 3847.94 1038 3869.3 1038 3890.66 1038 3912.02 1038 3933.38 1038 3954.74 1038 3976.1 1038 3997.46 1038 4018.8199999999997 1038 4040.18 1038 4061.54 1038 4082.9 1038 4104.26 1038 4125.62 1038 4146.98 1038 4168.34 1038 4189.7 1038 4211.0599999999995 1038 4232.42 1038 4253.78 1038 4275.139999999999 1038 4296.5 1038 4296.5 399.767955801105 4275.139999999999 422.7513812154697 4253.78 424.5193370165746 4232.42 426.2872928176796 4211.0599999999995 426.2872928176796 4189.7 426.2872928176796 4168.34 428.0552486187845 4146.98 431.59116022099454 4125.62 433.35911602209944 4104.26 435.12707182320446 4082.9 440.4309392265194 4061.54 440.4309392265194 4040.18 440.4309392265194 4018.8199999999997 442.1988950276243 3997.46 445.7348066298342 3976.1 445.7348066298342 3954.74 445.7348066298342 3933.38 447.50276243093924 3912.02 447.50276243093924 3890.66 447.50276243093924 3869.3 454.5745856353591 3847.94 454.5745856353591 3826.58 454.5745856353591 3805.2200000000003 454.5745856353591 3783.86 454.5745856353591 3762.5 454.5745856353591 3741.14 454.5745856353591 3719.7799999999997 454.5745856353591 3698.42 454.5745856353591 3677.06 456.3425414364641 3655.7 456.3425414364641 3634.34 458.1104972375691 3612.98 458.1104972375691 3591.62 466.950276243094 3570.26 468.7182320441989 3548.9 468.7182320441989 3527.54 472.2541436464089 3506.18 474.0220994475138 3484.82 479.32596685082876 3463.46 481.0939226519338 3442.1 482.8618784530387 3420.74 484.6298342541437 3399.38 484.6298342541437 3378.02 484.6298342541437 3356.66 486.3977900552486 3335.3 486.3977900552486 3313.94 486.3977900552486 3292.58 488.1657458563536 3271.22 488.1657458563536 3249.86 489.93370165745864 3228.5 489.93370165745864 3228.5 1038Z" fill="#005aa6" opacity="0.9" />
		</g>
		<g>
			<path d="M3228.5 489.93370165745864 3249.86 489.93370165745864 3271.22 488.1657458563536 3292.58 488.1657458563536 3313.94 486.3977900552486 3335.3 486.3977900552486 3356.66 486.3977900552486 3378.02 484.6298342541437 3399.38 484.6298342541437 3420.74 484.6298342541437 3442.1 482.8618784530387 3463.46 481.0939226519338 3484.82 479.32596685082876 3506.18 474.0220994475138 3527.54 472.2541436464089 3548.9 468.7182320441989 3570.26 468.7182320441989 3591.62 466.950276243094 3612.98 458.1104972375691 3634.34 458.1104972375691 3655.7 456.3425414364641 3677.06 456.3425414364641 3698.42 454.5745856353591 3719.7799999999997 454.5745856353591 3741.14 454.5745856353591 3762.5 454.5745856353591 3783.86 454.5745856353591 3805.2200000000003 454.5745856353591 3826.58 454.5745856353591 3847.94 454.5745856353591 3869.3 454.5745856353591 3890.66 447.50276243093924 3912.02 447.50276243093924 3933.38 447.50276243093924 3954.74 445.7348066298342 3976.1 445.7348066298342 3997.46 445.7348066298342 4018.8199999999997 442.1988950276243 4040.18 440.4309392265194 4061.54 440.4309392265194 4082.9 440.4309392265194 4104.26 435.12707182320446 4125.62 433.35911602209944 4146.98 431.59116022099454 4168.34 428.0552486187845 4189.7 426.2872928176796 4211.0599999999995 426.2872928176796 4232.42 426.2872928176796 4253.78 424.5193370165746 4275.139999999999 422.7513812154697 4296.5 399.767955801105 4296.5 398.00000000000006 4275.139999999999 420.9834254143647 4253.78 422.7513812154696 4232.42 424.51933701657464 4211.0599999999995 424.51933701657464 4189.7 424.51933701657464 4168.34 426.28729281767954 4146.98 429.8232044198896 4125.62 431.5911602209945 4104.26 433.3591160220995 4082.9 438.66298342541444 4061.54 438.66298342541444 4040.18 438.66298342541444 4018.8199999999997 440.43093922651934 3997.46 443.96685082872926 3976.1 443.96685082872926 3954.74 443.96685082872926 3933.38 445.7348066298343 3912.02 445.7348066298343 3890.66 445.7348066298343 3869.3 452.8066298342541 3847.94 452.8066298342541 3826.58 452.8066298342541 3805.2200000000003 452.8066298342541 3783.86 452.8066298342541 3762.5 452.8066298342541 3741.14 452.8066298342541 3719.7799999999997 452.8066298342541 3698.42 452.8066298342541 3677.06 454.57458563535914 3655.7 454.57458563535914 3634.34 456.34254143646416 3612.98 456.34254143646416 3591.62 465.182320441989 3570.26 466.9502762430939 3548.9 466.9502762430939 3527.54 470.48618784530396 3506.18 472.25414364640886 3484.82 477.5580110497238 3463.46 479.3259668508288 3442.1 481.0939226519337 3420.74 482.86187845303874 3399.38 482.86187845303874 3378.02 482.86187845303874 3356.66 484.62983425414365 3335.3 484.62983425414365 3313.94 484.62983425414365 3292.58 486.39779005524866 3271.22 486.39779005524866 3249.86 488.1657458563537 3228.5 488.1657458563537 3228.5 489.93370165745864Z" fill="#e62d39" opacity="0.9" />
		</g>
		<g>
			<rect x="4372" y="431" width="22.9995" height="23" fill="#005aa6" />
		</g>
		<g>
			<text fill="#595959" font-family="Verdana,Open Sans,DejaVu Sans,sans-serif" font-weight="400" font-size="41" transform="matrix(1 0 0 1 4404.56 454)">Crawler</text>
		</g>
		<g>
			<rect x="4372" y="508" width="22.9995" height="23" fill="#e62d39" />
		</g>
		<g>
			<text fill="#595959" font-family="Verdana,Open Sans,DejaVu Sans,sans-serif" font-weight="400" font-size="41" transform="matrix(1 0 0 1 4404.56 531)">Non-Crawler</text>
		</g>
	</g>
</svg>
