<svg width="1763" height="1046"
    xmlns="http://www.w3.org/2000/svg"
	xmlns:xlink="http://www.w3.org/1999/xlink" xml:space="preserve" overflow="hidden">
	<defs>
		<clipPath id="clip0">
			<rect x="2917" y="346" width="1763" height="1046"/>
		</clipPath>
	</defs>
	<g clip-path="url(#clip0)" transform="translate(-2917 -346)">
		<rect x="2918" y="347" width="1760" height="1043" fill="#FFFFFF" />
		<g>
			<path d="
			M3228.5 974.532 4296.5 974.532
			M3228.5 910.53 4296.5 910.53
			M3228.5 846.528 4296.5 846.528
			M3228.5 781.526 4296.5 781.526
			M3228.5 717.524 4296.5 717.524
			M3228.5 653.522 4296.5 653.522
			M3228.5 589.52 4296.5 589.52
			M3228.5 525.517 4296.5 525.517
			M3228.5 461.515 4296.5 461.515
			M3228.5 397.5 4296.5 397.5" stroke="#D9D9D9" stroke-width="3.4375" stroke-linejoin="round" stroke-miterlimit="10" fill="none" />
		</g>
		<g>
			<path d="M 1038.5 4296.5 1038.5" stroke="#D9D9D9" stroke-width="3.4375" stroke-linejoin="round" stroke-miterlimit="10" fill="none" fill-rule="evenodd" />
		</g>
		<g>
			<text fill="#595959" font-family="Verdana,sans-serif" font-weight="400" font-size="41" transform="matrix(6.12323e-17 -1 1 6.12323e-17 3244.5 1225)">06-Nov</text>
		</g>
		<g>
			<text fill="#595959" font-family="Verdana,sans-serif" font-weight="400" font-size="41" transform="matrix(6.12323e-17 -1 1 6.12323e-17 3373.9545454545455 1223)">04-Dec</text>
		</g>
		<g>
			<text fill="#595959" font-family="Verdana,sans-serif" font-weight="400" font-size="41" transform="matrix(6.12323e-17 -1 1 6.12323e-17 3503.409090909091 1210)">01-Jan</text>
		</g>
		<g>
			<text fill="#595959" font-family="Verdana,sans-serif" font-weight="400" font-size="41" transform="matrix(6.12323e-17 -1 1 6.12323e-17 3632.8636363636365 1210)">29-Jan</text>
		</g>
		<g>
			<text fill="#595959" font-family="Verdana,sans-serif" font-weight="400" font-size="41" transform="matrix(6.12323e-17 -1 1 6.12323e-17 3762.318181818182 1216)">26-Feb</text>
		</g>
		<g>
			<text fill="#595959" font-family="Verdana,sans-serif" font-weight="400" font-size="41" transform="matrix(6.12323e-17 -1 1 6.12323e-17 3891.7727272727275 1223)">25-Mar</text>
		</g>
		<g>
			<text fill="#595959" font-family="Verdana,sans-serif" font-weight="400" font-size="41" transform="matrix(6.12323e-17 -1 1 6.12323e-17 4024.727272727273 1216)">22-Apr</text>
		</g>
		<g>
			<text fill="#595959" font-family="Verdana,sans-serif" font-weight="400" font-size="41" transform="matrix(6.12323e-17 -1 1 6.12323e-17 4154.181818181818 1228)">20-May</text>
		</g>
		<g>
			<text fill="#595959" font-family="Verdana,sans-serif" font-weight="400" font-size="41" transform="matrix(6.12323e-17 -1 1 6.12323e-17 4279.636363636364 1209)">17-Jun</text>
		</g>
		<g>
			<text fill="#595959" font-family="Verdana,sans-serif" font-weight="400" font-size="41" transform="matrix(1 0 0 1 3167.5 1050)">0</text>
		</g>
		<g>
			<text fill="#595959" font-family="Verdana,sans-serif" font-weight="400" font-size="41" transform="matrix(1 0 0 1 3142.5 922)">50</text>
		</g>
		<g>
			<text fill="#595959" font-family="Verdana,sans-serif" font-weight="400" font-size="41" transform="matrix(1 0 0 1 3118.5 794)">100</text>
		</g>
		<g>
			<text fill="#595959" font-family="Verdana,sans-serif" font-weight="400" font-size="41" transform="matrix(1 0 0 1 3118.5 666)">150</text>
		</g>
		<g>
			<text fill="#595959" font-family="Verdana,sans-serif" font-weight="400" font-size="41" transform="matrix(1 0 0 1 3115.5 538)">200</text>
		</g>
		<g>
			<text fill="#595959" font-family="Verdana,sans-serif" font-weight="400" font-size="41" transform="matrix(1 0 0 1 3115.5 410)">250</text>
		</g>
		<g>
			<text fill="#595959" font-family="Verdana,sans-serif" font-weight="400" font-size="41" transform="matrix(1 0 0 1 3544.5 1321)">Week Commencing</text>
		</g>
		<g>
			<text fill="#595959" font-family="Verdana,sans-serif" font-weight="400" font-size="46" transform="matrix(6.12323e-17 -1 1 6.12323e-17 3019.73 1024.75)">Number of Crawler Profiles</text>
		</g>
		<rect x="2918.5" y="347.5" width="1760" height="1043" stroke="#D9D9D9" stroke-width="3.4375" stroke-linejoin="round" stroke-miterlimit="10" fill="none" />
		<g>
			<path d="M3228.5 1038 3260.8636363636365 1038 3293.2272727272725 1038 3325.590909090909 1038 3357.9545454545455 1038 3390.318181818182 1038 3422.681818181818 1038 3455.0454545454545 1038 3487.409090909091 1038 3519.7727272727275 1038 3552.1363636363635 1038 3584.5 1038 3616.8636363636365 1038 3649.227272727273 1038 3681.590909090909 1038 3713.9545454545455 1038 3746.318181818182 1038 3778.681818181818 1038 3811.0454545454545 1038 3843.409090909091 1038 3875.7727272727275 1038 3908.136363636364 1038 3940.5 1038 3972.8636363636365 1038 4005.227272727273 1038 4037.590909090909 1038 4069.9545454545455 1038 4102.318181818182 1038 4134.681818181818 1038 4167.045454545455 1038 4199.409090909091 1038 4231.772727272727 1038 4264.136363636364 1038 4296.5 1038 4296.5 400.55999999999995 4264.136363636364 413.36 4231.772727272727 418.48 4199.409090909091 418.48 4167.045454545455 418.48 4134.681818181818 421.03999999999996 4102.318181818182 426.15999999999997 4069.9545454545455 436.4 4037.590909090909 441.52 4005.227272727273 444.08000000000004 3972.8636363636365 444.08000000000004 3940.5 454.31999999999994 3908.136363636364 454.31999999999994 3875.7727272727275 467.12 3843.409090909091 492.72 3811.0454545454545 497.84000000000003 3778.681818181818 502.96000000000004 3746.318181818182 515.76 3713.9545454545455 518.3199999999999 3681.590909090909 518.3199999999999 3649.227272727273 520.88 3616.8636363636365 526 3584.5 538.8 3552.1363636363635 541.36 3519.7727272727275 541.36 3487.409090909091 546.48 3455.0454545454545 546.48 3422.681818181818 546.48 3390.318181818182 546.48 3357.9545454545455 546.48 3325.590909090909 549.04 3293.2272727272725 549.04 3260.8636363636365 549.04 3228.5 549.04 3228.5 1038Z" fill="#005aa6" opacity="0.9" />
		</g>
		<g>
			<path d="M3228.5 549.04 3260.8636363636365 549.04 3293.2272727272725 549.04 3325.590909090909 549.04 3357.9545454545455 546.48 3390.318181818182 546.48 3422.681818181818 546.48 3455.0454545454545 546.48 3487.409090909091 546.48 3519.7727272727275 541.36 3552.1363636363635 541.36 3584.5 538.8 3616.8636363636365 526 3649.227272727273 520.88 3681.590909090909 518.3199999999999 3713.9545454545455 518.3199999999999 3746.318181818182 515.76 3778.681818181818 502.96000000000004 3811.0454545454545 497.84000000000003 3843.409090909091 492.72 3875.7727272727275 467.12 3908.136363636364 454.31999999999994 3940.5 454.31999999999994 3972.8636363636365 444.08000000000004 4005.227272727273 444.08000000000004 4037.590909090909 441.52 4069.9545454545455 436.4 4102.318181818182 426.15999999999997 4134.681818181818 421.03999999999996 4167.045454545455 418.48 4199.409090909091 418.48 4231.772727272727 418.48 4264.136363636364 413.36 4296.5 400.55999999999995 4296.5 397.99999999999994 4264.136363636364 410.8 4231.772727272727 415.92 4199.409090909091 415.92 4167.045454545455 415.92 4134.681818181818 418.47999999999996 4102.318181818182 423.59999999999997 4069.9545454545455 433.84 4037.590909090909 438.96 4005.227272727273 441.52000000000004 3972.8636363636365 441.52000000000004 3940.5 451.75999999999993 3908.136363636364 451.75999999999993 3875.7727272727275 464.56 3843.409090909091 490.16 3811.0454545454545 495.28000000000003 3778.681818181818 500.40000000000003 3746.318181818182 513.2 3713.9545454545455 515.76 3681.590909090909 515.76 3649.227272727273 518.32 3616.8636363636365 523.44 3584.5 536.24 3552.1363636363635 538.8000000000001 3519.7727272727275 538.8000000000001 3487.409090909091 543.9200000000001 3455.0454545454545 543.9200000000001 3422.681818181818 543.9200000000001 3390.318181818182 543.9200000000001 3357.9545454545455 543.9200000000001 3325.590909090909 546.48 3293.2272727272725 546.48 3260.8636363636365 546.48 3228.5 546.48 3228.5 549.04Z" fill="#e62d39" opacity="0.9" />
		</g>
		<g>
			<rect x="4372" y="431" width="22.9995" height="23" fill="#005aa6" />
		</g>
		<g>
			<text fill="#595959" font-family="Verdana,sans-serif" font-weight="400" font-size="41" transform="matrix(1 0 0 1 4404.56 454)">Crawler</text>
		</g>
		<g>
			<rect x="4372" y="508" width="22.9995" height="23" fill="#e62d39" />
		</g>
		<g>
			<text fill="#595959" font-family="Verdana,sans-serif" font-weight="400" font-size="41" transform="matrix(1 0 0 1 4404.56 531)">Non-Crawler</text>
		</g>
	</g>
</svg>
