<svg width="1763" height="1046"
    xmlns="http://www.w3.org/2000/svg"
	xmlns:xlink="http://www.w3.org/1999/xlink" xml:space="preserve" overflow="hidden">
	<defs>
		<clipPath id="clip0">
			<rect x="2917" y="346" width="1763" height="1046"/>
		</clipPath>
	</defs>
	<g clip-path="url(#clip0)" transform="translate(-2917 -346)">
		<rect x="2918" y="347" width="1760" height="1043" fill="#FFFFFF" />
		<g>
			<path d="
			M3228.5 974.532 4296.5 974.532
			M3228.5 910.53 4296.5 910.53
			M3228.5 846.528 4296.5 846.528
			M3228.5 781.526 4296.5 781.526
			M3228.5 717.524 4296.5 717.524
			M3228.5 653.522 4296.5 653.522
			M3228.5 589.52 4296.5 589.52
			M3228.5 525.517 4296.5 525.517
			M3228.5 461.515 4296.5 461.515
			M3228.5 397.5 4296.5 397.5" stroke="#D9D9D9" stroke-width="3.4375" stroke-linejoin="round" stroke-miterlimit="10" fill="none" />
		</g>
		<g>
			<path d="M 1038.5 4296.5 1038.5" stroke="#D9D9D9" stroke-width="3.4375" stroke-linejoin="round" stroke-miterlimit="10" fill="none" fill-rule="evenodd" />
		</g>
		<g>
			<text fill="#595959" font-family="Verdana,sans-serif" font-weight="400" font-size="41" transform="matrix(6.12323e-17 -1 1 6.12323e-17 3244.5 1225)">06-Nov</text>
		</g>
		<g>
			<text fill="#595959" font-family="Verdana,sans-serif" font-weight="400" font-size="41" transform="matrix(6.12323e-17 -1 1 6.12323e-17 3348.6951219512193 1223)">04-Dec</text>
		</g>
		<g>
			<text fill="#595959" font-family="Verdana,sans-serif" font-weight="400" font-size="41" transform="matrix(6.12323e-17 -1 1 6.12323e-17 3452.890243902439 1210)">01-Jan</text>
		</g>
		<g>
			<text fill="#595959" font-family="Verdana,sans-serif" font-weight="400" font-size="41" transform="matrix(6.12323e-17 -1 1 6.12323e-17 3557.0853658536585 1210)">29-Jan</text>
		</g>
		<g>
			<text fill="#595959" font-family="Verdana,sans-serif" font-weight="400" font-size="41" transform="matrix(6.12323e-17 -1 1 6.12323e-17 3661.2804878048782 1216)">26-Feb</text>
		</g>
		<g>
			<text fill="#595959" font-family="Verdana,sans-serif" font-weight="400" font-size="41" transform="matrix(6.12323e-17 -1 1 6.12323e-17 3765.4756097560976 1223)">25-Mar</text>
		</g>
		<g>
			<text fill="#595959" font-family="Verdana,sans-serif" font-weight="400" font-size="41" transform="matrix(6.12323e-17 -1 1 6.12323e-17 3873.170731707317 1216)">22-Apr</text>
		</g>
		<g>
			<text fill="#595959" font-family="Verdana,sans-serif" font-weight="400" font-size="41" transform="matrix(6.12323e-17 -1 1 6.12323e-17 3977.3658536585363 1228)">20-May</text>
		</g>
		<g>
			<text fill="#595959" font-family="Verdana,sans-serif" font-weight="400" font-size="41" transform="matrix(6.12323e-17 -1 1 6.12323e-17 4077.560975609756 1209)">17-Jun</text>
		</g>
		<g>
			<text fill="#595959" font-family="Verdana,sans-serif" font-weight="400" font-size="41" transform="matrix(6.12323e-17 -1 1 6.12323e-17 4182.256097560976 1194)">15-Jul</text>
		</g>
		<g>
			<text fill="#595959" font-family="Verdana,sans-serif" font-weight="400" font-size="41" transform="matrix(6.12323e-17 -1 1 6.12323e-17 4289.951219512195 1218)">12-Aug</text>
		</g>
		<g>
			<text fill="#595959" font-family="Verdana,sans-serif" font-weight="400" font-size="41" transform="matrix(1 0 0 1 3123.5 1050)">0%</text>
		</g>
		<g>
			<text fill="#595959" font-family="Verdana,sans-serif" font-weight="400" font-size="41" transform="matrix(1 0 0 1 3097.5 922)">20%</text>
		</g>
		<g>
			<text fill="#595959" font-family="Verdana,sans-serif" font-weight="400" font-size="41" transform="matrix(1 0 0 1 3096.5 794)">40%</text>
		</g>
		<g>
			<text fill="#595959" font-family="Verdana,sans-serif" font-weight="400" font-size="41" transform="matrix(1 0 0 1 3097.5 666)">60%</text>
		</g>
		<g>
			<text fill="#595959" font-family="Verdana,sans-serif" font-weight="400" font-size="41" transform="matrix(1 0 0 1 3097.5 538)">80%</text>
		</g>
		<g>
			<text fill="#595959" font-family="Verdana,sans-serif" font-weight="400" font-size="41" transform="matrix(1 0 0 1 3074.5 410)">100%</text>
		</g>
		<g>
			<text fill="#595959" font-family="Verdana,sans-serif" font-weight="400" font-size="41" transform="matrix(1 0 0 1 3544.5 1321)">Week Commencing</text>
		</g>
		<g>
			<text fill="#595959" font-family="Verdana,sans-serif" font-weight="400" font-size="46" transform="matrix(6.12323e-17 -1 1 6.12323e-17 3019.73 965.25)">Requests (% of Total)</text>
		</g>
		<rect x="2918.5" y="347.5" width="1760" height="1043" stroke="#D9D9D9" stroke-width="3.4375" stroke-linejoin="round" stroke-miterlimit="10" fill="none" />
		<g>
			<path d="M3228.5 1038 3254.548780487805 1038 3280.5975609756097 1038 3306.6463414634145 1038 3332.6951219512193 1038 3358.743902439024 1038 3384.7926829268295 1038 3410.8414634146343 1038 3436.890243902439 1038 3462.939024390244 1038 3488.987804878049 1038 3515.0365853658536 1038 3541.0853658536585 1038 3567.1341463414633 1038 3593.182926829268 1038 3619.231707317073 1038 3645.2804878048782 1038 3671.329268292683 1038 3697.378048780488 1038 3723.4268292682927 1038 3749.4756097560976 1038 3775.5243902439024 1038 3801.5731707317073 1038 3827.621951219512 1038 3853.670731707317 1038 3879.7195121951218 1038 3905.7682926829266 1038 3931.8170731707314 1038 3957.8658536585363 1038 3983.9146341463415 1038 4009.9634146341464 1038 4036.012195121951 1038 4062.060975609756 1038 4088.109756097561 1038 4114.158536585366 1038 4140.207317073171 1038 4166.256097560976 1038 4192.304878048781 1038 4218.3536585365855 1038 4244.40243902439 1038 4270.451219512195 1038 4296.5 1038 4296.5 571.9035338843237 4270.451219512195 572.0631883952817 4244.40243902439 572.5486893796854 4218.3536585365855 572.9112818795618 4192.304878048781 572.7332415748011 4166.256097560976 572.862060937991 4140.207317073171 572.9365512268143 4114.158536585366 572.8940388940463 4088.109756097561 572.4651830343407 4062.060975609756 572.6325422225004 4036.012195121951 571.5082651331143 4009.9634146341464 572.2322344669446 3983.9146341463415 572.7455283998808 3957.8658536585363 573.7260592446937 3931.8170731707314 574.7878423335366 3905.7682926829266 575.6290427379265 3879.7195121951218 575.9687876322813 3853.670731707317 576.8727971406818 3827.621951219512 578.2473295586981 3801.5731707317073 579.8301495425726 3775.5243902439024 581.4258071436993 3749.4756097560976 583.4353029706369 3723.4268292682927 585.2297796683877 3697.378048780488 569.3763139485983 3671.329268292683 569.4920790789085 3645.2804878048782 568.4210223578364 3619.231707317073 567.328661211755 3593.182926829268 566.161104092279 3567.1341463414633 566.5630760901624 3541.0853658536585 566.9371867374394 3515.0365853658536 565.7434322908556 3488.987804878049 565.3329344965637 3462.939024390244 567.1306424721515 3436.890243902439 546.6361313386333 3410.8414634146343 547.2360643741254 3384.7926829268295 547.9846296844262 3358.743902439024 551.0672526834712 3332.6951219512193 550.9210452859504 3306.6463414634145 550.9050574683862 3280.5975609756097 550.8533354714161 3254.548780487805 550.7560734149703 3228.5 551.2665692392751 3228.5 1038Z" fill="#e62d39" opacity="0.9" />
		</g>
		<g>
			<path d="M3228.5 551.2665692392751 3254.548780487805 550.7560734149703 3280.5975609756097 550.8533354714161 3306.6463414634145 550.9050574683862 3332.6951219512193 550.9210452859504 3358.743902439024 551.0672526834712 3384.7926829268295 547.9846296844262 3410.8414634146343 547.2360643741254 3436.890243902439 546.6361313386333 3462.939024390244 567.1306424721515 3488.987804878049 565.3329344965637 3515.0365853658536 565.7434322908556 3541.0853658536585 566.9371867374394 3567.1341463414633 566.5630760901624 3593.182926829268 566.161104092279 3619.231707317073 567.328661211755 3645.2804878048782 568.4210223578364 3671.329268292683 569.4920790789085 3697.378048780488 569.3763139485983 3723.4268292682927 585.2297796683877 3749.4756097560976 583.4353029706369 3775.5243902439024 581.4258071436993 3801.5731707317073 579.8301495425726 3827.621951219512 578.2473295586981 3853.670731707317 576.8727971406818 3879.7195121951218 575.9687876322813 3905.7682926829266 575.6290427379265 3931.8170731707314 574.7878423335366 3957.8658536585363 573.7260592446937 3983.9146341463415 572.7455283998808 4009.9634146341464 572.2322344669446 4036.012195121951 571.5082651331143 4062.060975609756 572.6325422225004 4088.109756097561 572.4651830343407 4114.158536585366 572.8940388940463 4140.207317073171 572.9365512268143 4166.256097560976 572.862060937991 4192.304878048781 572.7332415748011 4218.3536585365855 572.9112818795618 4244.40243902439 572.5486893796854 4270.451219512195 572.0631883952817 4296.5 571.9035338843237 4296.5 398 4270.451219512195 398.00000000000006 4244.40243902439 398 4218.3536585365855 397.99999999999994 4192.304878048781 398 4166.256097560976 397.99999999999994 4140.207317073171 398.00000000000006 4114.158536585366 398 4088.109756097561 398 4062.060975609756 398 4036.012195121951 397.99999999999994 4009.9634146341464 398.0000000000001 3983.9146341463415 398 3957.8658536585363 398 3931.8170731707314 398.00000000000006 3905.7682926829266 398 3879.7195121951218 398 3853.670731707317 397.99999999999994 3827.621951219512 397.99999999999994 3801.5731707317073 398.0000000000001 3775.5243902439024 398 3749.4756097560976 398 3723.4268292682927 398 3697.378048780488 398 3671.329268292683 398.00000000000006 3645.2804878048782 398.00000000000006 3619.231707317073 398 3593.182926829268 398.00000000000006 3567.1341463414633 397.99999999999994 3541.0853658536585 398 3515.0365853658536 398 3488.987804878049 397.99999999999994 3462.939024390244 398.00000000000006 3436.890243902439 398 3410.8414634146343 398.0000000000001 3384.7926829268295 398 3358.743902439024 398 3332.6951219512193 398 3306.6463414634145 398 3280.5975609756097 398 3254.548780487805 398 3228.5 398 3228.5 551.2665692392751Z" fill="#005aa6" opacity="0.9" />
		</g>
		<g>
			<rect x="4372" y="431" width="22.9995" height="23" fill="#e62d39" />
		</g>
		<g>
			<text fill="#595959" font-family="Verdana,sans-serif" font-weight="400" font-size="41" transform="matrix(1 0 0 1 4404.56 454)">Non-Crawler</text>
		</g>
		<g>
			<rect x="4372" y="508" width="22.9995" height="23" fill="#005aa6" />
		</g>
		<g>
			<text fill="#595959" font-family="Verdana,sans-serif" font-weight="400" font-size="41" transform="matrix(1 0 0 1 4404.56 531)">Crawler</text>
		</g>
	</g>
</svg>
