<svg width="1763" height="1046"
    xmlns="http://www.w3.org/2000/svg"
	xmlns:xlink="http://www.w3.org/1999/xlink" xml:space="preserve" overflow="hidden">
	<defs>
		<clipPath id="clip0">
			<rect x="2917" y="346" width="1763" height="1046"/>
		</clipPath>
	</defs>
	<g clip-path="url(#clip0)" transform="translate(-2917 -346)">
		<rect x="2918" y="347" width="1760" height="1043" fill="#FFFFFF" />
		<g>
			<path d="
			M3228.5 974.532 4296.5 974.532
			M3228.5 910.53 4296.5 910.53
			M3228.5 846.528 4296.5 846.528
			M3228.5 781.526 4296.5 781.526
			M3228.5 717.524 4296.5 717.524
			M3228.5 653.522 4296.5 653.522
			M3228.5 589.52 4296.5 589.52
			M3228.5 525.517 4296.5 525.517
			M3228.5 461.515 4296.5 461.515
			M3228.5 397.5 4296.5 397.5" stroke="#D9D9D9" stroke-width="3.4375" stroke-linejoin="round" stroke-miterlimit="10" fill="none" />
		</g>
		<g>
			<path d="M 1038.5 4296.5 1038.5" stroke="#D9D9D9" stroke-width="3.4375" stroke-linejoin="round" stroke-miterlimit="10" fill="none" fill-rule="evenodd" />
		</g>
		<g>
			<text fill="#595959" font-family="Verdana,sans-serif" font-weight="400" font-size="41" transform="matrix(6.12323e-17 -1 1 6.12323e-17 3244.5 1227)">06-Nov</text>
		</g>
		<g>
			<text fill="#595959" font-family="Verdana,sans-serif" font-weight="400" font-size="41" transform="matrix(6.12323e-17 -1 1 6.12323e-17 3356.9210526315787 1226)">20-Nov</text>
		</g>
		<g>
			<text fill="#595959" font-family="Verdana,sans-serif" font-weight="400" font-size="41" transform="matrix(6.12323e-17 -1 1 6.12323e-17 3469.342105263158 1225)">04-Dec</text>
		</g>
		<g>
			<text fill="#595959" font-family="Verdana,sans-serif" font-weight="400" font-size="41" transform="matrix(6.12323e-17 -1 1 6.12323e-17 3581.7631578947367 1222)">18-Dec</text>
		</g>
		<g>
			<text fill="#595959" font-family="Verdana,sans-serif" font-weight="400" font-size="41" transform="matrix(6.12323e-17 -1 1 6.12323e-17 3694.184210526316 1212)">01-Jan</text>
		</g>
		<g>
			<text fill="#595959" font-family="Verdana,sans-serif" font-weight="400" font-size="41" transform="matrix(6.12323e-17 -1 1 6.12323e-17 3806.1052631578946 1209)">15-Jan</text>
		</g>
		<g>
			<text fill="#595959" font-family="Verdana,sans-serif" font-weight="400" font-size="41" transform="matrix(6.12323e-17 -1 1 6.12323e-17 3919.0263157894738 1211)">29-Jan</text>
		</g>
		<g>
			<text fill="#595959" font-family="Verdana,sans-serif" font-weight="400" font-size="41" transform="matrix(6.12323e-17 -1 1 6.12323e-17 4031.4473684210525 1216)">12-Feb</text>
		</g>
		<g>
			<text fill="#595959" font-family="Verdana,sans-serif" font-weight="400" font-size="41" transform="matrix(6.12323e-17 -1 1 6.12323e-17 4143.868421052632 1218)">26-Feb</text>
		</g>
		<g>
			<text fill="#595959" font-family="Verdana,sans-serif" font-weight="400" font-size="41" transform="matrix(6.12323e-17 -1 1 6.12323e-17 4255.789473684211 1222)">11-Mar</text>
		</g>
		<g>
			<text fill="#595959" font-family="Verdana,sans-serif" font-weight="400" font-size="41" transform="matrix(1 0 0 1 3167.5 1050)">0</text>
		</g>
		<g>
			<text fill="#595959" font-family="Verdana,sans-serif" font-weight="400" font-size="41" transform="matrix(1 0 0 1 3140.5 922)">43</text>
		</g>
		<g>
			<text fill="#595959" font-family="Verdana,sans-serif" font-weight="400" font-size="41" transform="matrix(1 0 0 1 3140.5 794)">86</text>
		</g>
		<g>
			<text fill="#595959" font-family="Verdana,sans-serif" font-weight="400" font-size="41" transform="matrix(1 0 0 1 3117.5 666)">128</text>
		</g>
		<g>
			<text fill="#595959" font-family="Verdana,sans-serif" font-weight="400" font-size="41" transform="matrix(1 0 0 1 3119.5 538)">171</text>
		</g>
		<g>
			<text fill="#595959" font-family="Verdana,sans-serif" font-weight="400" font-size="41" transform="matrix(1 0 0 1 3114.5 410)">214</text>
		</g>
		<g>
			<text fill="#595959" font-family="Verdana,sans-serif" font-weight="400" font-size="41" transform="matrix(1 0 0 1 3541.5 1321)">Week Commencing</text>
		</g>
		<g>
			<text fill="#595959" font-family="Verdana,sans-serif" font-weight="400" font-size="46" transform="matrix(6.12323e-17 -1 1 6.12323e-17 3019.73 1029.25)">Number of Crawler Profiles</text>
		</g>
		<rect x="2918.5" y="347.5" width="1760" height="1043" stroke="#D9D9D9" stroke-width="3.4375" stroke-linejoin="round" stroke-miterlimit="10" fill="none" />
		<g>
			<path d="M3228.5 1038 3284.7105263157896 1038 3340.9210526315787 1038 3397.1315789473683 1038 3453.342105263158 1038 3509.5526315789475 1038 3565.7631578947367 1038 3621.9736842105262 1038 3678.184210526316 1038 3734.3947368421054 1038 3790.6052631578946 1038 3846.815789473684 1038 3903.0263157894738 1038 3959.2368421052633 1038 4015.4473684210525 1038 4071.657894736842 1038 4127.868421052632 1038 4184.078947368421 1038 4240.289473684211 1038 4296.5 1038 4296.5 400.9906542056075 4240.289473684211 406.97196261682245 4184.078947368421 412.9532710280374 4127.868421052632 427.90654205607484 4071.657894736842 430.8971962616822 4015.4473684210525 430.8971962616822 3959.2368421052633 433.8878504672897 3903.0263157894738 439.86915887850466 3846.815789473684 454.8224299065421 3790.6052631578946 457.81308411214957 3734.3947368421054 457.81308411214957 3678.184210526316 463.79439252336454 3621.9736842105262 463.79439252336454 3565.7631578947367 463.79439252336454 3509.5526315789475 463.79439252336454 3453.342105263158 463.79439252336454 3397.1315789473683 466.785046728972 3340.9210526315787 466.785046728972 3284.7105263157896 466.785046728972 3228.5 466.785046728972 3228.5 1038Z" fill="#005aa6" opacity="0.9" />
		</g>
		<g>
			<path d="M3228.5 466.785046728972 3284.7105263157896 466.785046728972 3340.9210526315787 466.785046728972 3397.1315789473683 466.785046728972 3453.342105263158 463.79439252336454 3509.5526315789475 463.79439252336454 3565.7631578947367 463.79439252336454 3621.9736842105262 463.79439252336454 3678.184210526316 463.79439252336454 3734.3947368421054 457.81308411214957 3790.6052631578946 457.81308411214957 3846.815789473684 454.8224299065421 3903.0263157894738 439.86915887850466 3959.2368421052633 433.8878504672897 4015.4473684210525 430.8971962616822 4071.657894736842 430.8971962616822 4127.868421052632 427.90654205607484 4184.078947368421 412.9532710280374 4240.289473684211 406.97196261682245 4296.5 400.9906542056075 4296.5 398 4240.289473684211 403.98130841121497 4184.078947368421 409.96261682242994 4127.868421052632 424.91588785046736 4071.657894736842 427.9065420560747 4015.4473684210525 427.9065420560747 3959.2368421052633 430.8971962616822 3903.0263157894738 436.8785046728972 3846.815789473684 451.8317757009346 3790.6052631578946 454.8224299065421 3734.3947368421054 454.8224299065421 3678.184210526316 460.80373831775705 3621.9736842105262 460.80373831775705 3565.7631578947367 460.80373831775705 3509.5526315789475 460.80373831775705 3453.342105263158 460.80373831775705 3397.1315789473683 463.79439252336454 3340.9210526315787 463.79439252336454 3284.7105263157896 463.79439252336454 3228.5 463.79439252336454 3228.5 466.785046728972Z" fill="#e62d39" opacity="0.9" />
		</g>
		<g>
			<rect x="4372" y="431" width="22.9995" height="23" fill="#005aa6" />
		</g>
		<g>
			<text fill="#595959" font-family="Verdana,sans-serif" font-weight="400" font-size="41" transform="matrix(1 0 0 1 4404.56 454)">Crawler</text>
		</g>
		<g>
			<rect x="4372" y="508" width="22.9995" height="23" fill="#e62d39" />
		</g>
		<g>
			<text fill="#595959" font-family="Verdana,sans-serif" font-weight="400" font-size="41" transform="matrix(1 0 0 1 4404.56 531)">Non-Crawler</text>
		</g>
	</g>
</svg>
