<svg width="1763" height="1046"
    xmlns="http://www.w3.org/2000/svg"
	xmlns:xlink="http://www.w3.org/1999/xlink" xml:space="preserve" overflow="hidden">
	<defs>
		<clipPath id="clip0">
			<rect x="2917" y="346" width="1763" height="1046"/>
		</clipPath>
	</defs>
	<g clip-path="url(#clip0)" transform="translate(-2917 -346)">
		<rect x="2918" y="347" width="1760" height="1043" fill="#FFFFFF" />
		<g>
			<path d="
			M3228.5 974.532 4296.5 974.532
			M3228.5 910.53 4296.5 910.53
			M3228.5 846.528 4296.5 846.528
			M3228.5 781.526 4296.5 781.526
			M3228.5 717.524 4296.5 717.524
			M3228.5 653.522 4296.5 653.522
			M3228.5 589.52 4296.5 589.52
			M3228.5 525.517 4296.5 525.517
			M3228.5 461.515 4296.5 461.515
			M3228.5 397.5 4296.5 397.5" stroke="#D9D9D9" stroke-width="3.4375" stroke-linejoin="round" stroke-miterlimit="10" fill="none" />
		</g>
		<g>
			<path d="M 1038.5 4296.5 1038.5" stroke="#D9D9D9" stroke-width="3.4375" stroke-linejoin="round" stroke-miterlimit="10" fill="none" fill-rule="evenodd" />
		</g>
		<g>
			<text fill="#595959" font-family="Verdana,sans-serif" font-weight="400" font-size="41" transform="matrix(6.12323e-17 -1 1 6.12323e-17 3244.5 1225)">06-Nov</text>
		</g>
		<g>
			<text fill="#595959" font-family="Verdana,sans-serif" font-weight="400" font-size="41" transform="matrix(6.12323e-17 -1 1 6.12323e-17 3320.785714285714 1224)">20-Nov</text>
		</g>
		<g>
			<text fill="#595959" font-family="Verdana,sans-serif" font-weight="400" font-size="41" transform="matrix(6.12323e-17 -1 1 6.12323e-17 3397.0714285714284 1223)">04-Dec</text>
		</g>
		<g>
			<text fill="#595959" font-family="Verdana,sans-serif" font-weight="400" font-size="41" transform="matrix(6.12323e-17 -1 1 6.12323e-17 3473.357142857143 1220)">18-Dec</text>
		</g>
		<g>
			<text fill="#595959" font-family="Verdana,sans-serif" font-weight="400" font-size="41" transform="matrix(6.12323e-17 -1 1 6.12323e-17 3549.6428571428573 1210)">01-Jan</text>
		</g>
		<g>
			<text fill="#595959" font-family="Verdana,sans-serif" font-weight="400" font-size="41" transform="matrix(6.12323e-17 -1 1 6.12323e-17 3625.4285714285716 1207)">15-Jan</text>
		</g>
		<g>
			<text fill="#595959" font-family="Verdana,sans-serif" font-weight="400" font-size="41" transform="matrix(6.12323e-17 -1 1 6.12323e-17 3702.214285714286 1210)">29-Jan</text>
		</g>
		<g>
			<text fill="#595959" font-family="Verdana,sans-serif" font-weight="400" font-size="41" transform="matrix(6.12323e-17 -1 1 6.12323e-17 3778.5 1214)">12-Feb</text>
		</g>
		<g>
			<text fill="#595959" font-family="Verdana,sans-serif" font-weight="400" font-size="41" transform="matrix(6.12323e-17 -1 1 6.12323e-17 3854.785714285714 1216)">26-Feb</text>
		</g>
		<g>
			<text fill="#595959" font-family="Verdana,sans-serif" font-weight="400" font-size="41" transform="matrix(6.12323e-17 -1 1 6.12323e-17 3930.5714285714284 1221)">11-Mar</text>
		</g>
		<g>
			<text fill="#595959" font-family="Verdana,sans-serif" font-weight="400" font-size="41" transform="matrix(6.12323e-17 -1 1 6.12323e-17 4007.357142857143 1223)">25-Mar</text>
		</g>
		<g>
			<text fill="#595959" font-family="Verdana,sans-serif" font-weight="400" font-size="41" transform="matrix(6.12323e-17 -1 1 6.12323e-17 4087.1428571428573 1217)">08-Apr</text>
		</g>
		<g>
			<text fill="#595959" font-family="Verdana,sans-serif" font-weight="400" font-size="41" transform="matrix(6.12323e-17 -1 1 6.12323e-17 4163.428571428572 1216)">22-Apr</text>
		</g>
		<g>
			<text fill="#595959" font-family="Verdana,sans-serif" font-weight="400" font-size="41" transform="matrix(6.12323e-17 -1 1 6.12323e-17 4239.714285714286 1228)">06-May</text>
		</g>
		<g>
			<text fill="#595959" font-family="Verdana,sans-serif" font-weight="400" font-size="41" transform="matrix(6.12323e-17 -1 1 6.12323e-17 4316 1228)">20-May</text>
		</g>
		<g>
			<text fill="#595959" font-family="Verdana,sans-serif" font-weight="400" font-size="41" transform="matrix(1 0 0 1 3123.5 1050)">0%</text>
		</g>
		<g>
			<text fill="#595959" font-family="Verdana,sans-serif" font-weight="400" font-size="41" transform="matrix(1 0 0 1 3097.5 922)">20%</text>
		</g>
		<g>
			<text fill="#595959" font-family="Verdana,sans-serif" font-weight="400" font-size="41" transform="matrix(1 0 0 1 3096.5 794)">40%</text>
		</g>
		<g>
			<text fill="#595959" font-family="Verdana,sans-serif" font-weight="400" font-size="41" transform="matrix(1 0 0 1 3097.5 666)">60%</text>
		</g>
		<g>
			<text fill="#595959" font-family="Verdana,sans-serif" font-weight="400" font-size="41" transform="matrix(1 0 0 1 3097.5 538)">80%</text>
		</g>
		<g>
			<text fill="#595959" font-family="Verdana,sans-serif" font-weight="400" font-size="41" transform="matrix(1 0 0 1 3074.5 410)">100%</text>
		</g>
		<g>
			<text fill="#595959" font-family="Verdana,sans-serif" font-weight="400" font-size="41" transform="matrix(1 0 0 1 3544.5 1321)">Week Commencing</text>
		</g>
		<g>
			<text fill="#595959" font-family="Verdana,sans-serif" font-weight="400" font-size="46" transform="matrix(6.12323e-17 -1 1 6.12323e-17 3019.73 965.25)">Requests (% of Total)</text>
		</g>
		<rect x="2918.5" y="347.5" width="1760" height="1043" stroke="#D9D9D9" stroke-width="3.4375" stroke-linejoin="round" stroke-miterlimit="10" fill="none" />
		<g>
			<path d="M3228.5 1038 3266.6428571428573 1038 3304.785714285714 1038 3342.9285714285716 1038 3381.0714285714284 1038 3419.214285714286 1038 3457.357142857143 1038 3495.5 1038 3533.6428571428573 1038 3571.785714285714 1038 3609.9285714285716 1038 3648.0714285714284 1038 3686.214285714286 1038 3724.357142857143 1038 3762.5 1038 3800.6428571428573 1038 3838.785714285714 1038 3876.9285714285716 1038 3915.0714285714284 1038 3953.214285714286 1038 3991.357142857143 1038 4029.5 1038 4067.6428571428573 1038 4105.785714285715 1038 4143.928571428572 1038 4182.071428571428 1038 4220.214285714286 1038 4258.357142857143 1038 4296.5 1038 4296.5 573.7260592446937 4258.357142857143 574.7878423335366 4220.214285714286 575.6290427379265 4182.071428571428 575.9687876322813 4143.928571428572 576.8727971406818 4105.785714285715 578.2473295586981 4067.6428571428573 579.8301495425726 4029.5 581.4258071436993 3991.357142857143 583.4353029706369 3953.214285714286 585.2297796683877 3915.0714285714284 569.3763139485983 3876.9285714285716 569.4920790789085 3838.785714285714 568.4210223578364 3800.6428571428573 567.328661211755 3762.5 566.161104092279 3724.357142857143 566.5630760901624 3686.214285714286 566.9371867374394 3648.0714285714284 565.7434322908556 3609.9285714285716 565.3329344965637 3571.785714285714 567.1306424721515 3533.6428571428573 546.6361313386333 3495.5 547.2360643741254 3457.357142857143 547.9846296844262 3419.214285714286 551.0672526834712 3381.0714285714284 550.9210452859504 3342.9285714285716 550.9050574683862 3304.785714285714 550.8533354714161 3266.6428571428573 550.7560734149703 3228.5 551.2665692392751 3228.5 1038Z" fill="#e62d39" opacity="0.9" />
		</g>
		<g>
			<path d="M3228.5 551.2665692392751 3266.6428571428573 550.7560734149703 3304.785714285714 550.8533354714161 3342.9285714285716 550.9050574683862 3381.0714285714284 550.9210452859504 3419.214285714286 551.0672526834712 3457.357142857143 547.9846296844262 3495.5 547.2360643741254 3533.6428571428573 546.6361313386333 3571.785714285714 567.1306424721515 3609.9285714285716 565.3329344965637 3648.0714285714284 565.7434322908556 3686.214285714286 566.9371867374394 3724.357142857143 566.5630760901624 3762.5 566.161104092279 3800.6428571428573 567.328661211755 3838.785714285714 568.4210223578364 3876.9285714285716 569.4920790789085 3915.0714285714284 569.3763139485983 3953.214285714286 585.2297796683877 3991.357142857143 583.4353029706369 4029.5 581.4258071436993 4067.6428571428573 579.8301495425726 4105.785714285715 578.2473295586981 4143.928571428572 576.8727971406818 4182.071428571428 575.9687876322813 4220.214285714286 575.6290427379265 4258.357142857143 574.7878423335366 4296.5 573.7260592446937 4296.5 398 4258.357142857143 398.00000000000006 4220.214285714286 398 4182.071428571428 398 4143.928571428572 397.99999999999994 4105.785714285715 397.99999999999994 4067.6428571428573 398.0000000000001 4029.5 398 3991.357142857143 398 3953.214285714286 398 3915.0714285714284 398 3876.9285714285716 398.00000000000006 3838.785714285714 398.00000000000006 3800.6428571428573 398 3762.5 398.00000000000006 3724.357142857143 397.99999999999994 3686.214285714286 398 3648.0714285714284 398 3609.9285714285716 397.99999999999994 3571.785714285714 398.00000000000006 3533.6428571428573 398 3495.5 398.0000000000001 3457.357142857143 398 3419.214285714286 398 3381.0714285714284 398 3342.9285714285716 398 3304.785714285714 398 3266.6428571428573 398 3228.5 398 3228.5 551.2665692392751Z" fill="#005aa6" opacity="0.9" />
		</g>
		<g>
			<rect x="4372" y="431" width="22.9995" height="23" fill="#e62d39" />
		</g>
		<g>
			<text fill="#595959" font-family="Verdana,sans-serif" font-weight="400" font-size="41" transform="matrix(1 0 0 1 4404.56 454)">Non-Crawler</text>
		</g>
		<g>
			<rect x="4372" y="508" width="22.9995" height="23" fill="#005aa6" />
		</g>
		<g>
			<text fill="#595959" font-family="Verdana,sans-serif" font-weight="400" font-size="41" transform="matrix(1 0 0 1 4404.56 531)">Crawler</text>
		</g>
	</g>
</svg>
