<svg width="1763" height="1046"
    xmlns="http://www.w3.org/2000/svg"
	xmlns:xlink="http://www.w3.org/1999/xlink" xml:space="preserve" overflow="hidden">
	<defs>
		<clipPath id="clip0">
			<rect x="2917" y="346" width="1763" height="1046"/>
		</clipPath>
	</defs>
	<g clip-path="url(#clip0)" transform="translate(-2917 -346)">
		<rect x="2918" y="347" width="1760" height="1043" fill="#FFFFFF" />
		<g>
			<path d="
			M3228.5 974.532 4296.5 974.532
			M3228.5 910.53 4296.5 910.53
			M3228.5 846.528 4296.5 846.528
			M3228.5 781.526 4296.5 781.526
			M3228.5 717.524 4296.5 717.524
			M3228.5 653.522 4296.5 653.522
			M3228.5 589.52 4296.5 589.52
			M3228.5 525.517 4296.5 525.517
			M3228.5 461.515 4296.5 461.515
			M3228.5 397.5 4296.5 397.5" stroke="#D9D9D9" stroke-width="3.4375" stroke-linejoin="round" stroke-miterlimit="10" fill="none" />
		</g>
		<g>
			<path d="M 1038.5 4296.5 1038.5" stroke="#D9D9D9" stroke-width="3.4375" stroke-linejoin="round" stroke-miterlimit="10" fill="none" fill-rule="evenodd" />
		</g>
		<g>
			<text fill="#595959" font-family="Verdana,Open Sans,DejaVu Sans,sans-serif" font-weight="400" font-size="41" transform="matrix(6.12323e-17 -1 1 6.12323e-17 3248.269287109375 1203.3022384643555)">28-Apr</text>
		</g>
		<g>
			<text fill="#595959" font-family="Verdana,Open Sans,DejaVu Sans,sans-serif" font-weight="400" font-size="41" transform="matrix(6.12323e-17 -1 1 6.12323e-17 3333.709287109375 1216.51513671875)">26-May</text>
		</g>
		<g>
			<text fill="#595959" font-family="Verdana,Open Sans,DejaVu Sans,sans-serif" font-weight="400" font-size="41" transform="matrix(6.12323e-17 -1 1 6.12323e-17 3418.09826171875 1194.1733322143555)">30-Jun</text>
		</g>
		<g>
			<text fill="#595959" font-family="Verdana,Open Sans,DejaVu Sans,sans-serif" font-weight="400" font-size="41" transform="matrix(6.12323e-17 -1 1 6.12323e-17 3504.248955078125 1179.0385665893555)">28-Jul</text>
		</g>
		<g>
			<text fill="#595959" font-family="Verdana,Open Sans,DejaVu Sans,sans-serif" font-weight="400" font-size="41" transform="matrix(6.12323e-17 -1 1 6.12323e-17 3590.029287109375 1208.66748046875)">25-Aug</text>
		</g>
		<g>
			<text fill="#595959" font-family="Verdana,Open Sans,DejaVu Sans,sans-serif" font-weight="400" font-size="41" transform="matrix(6.12323e-17 -1 1 6.12323e-17 3675.469287109375 1204.42333984375)">22-Sep</text>
		</g>
		<g>
			<text fill="#595959" font-family="Verdana,Open Sans,DejaVu Sans,sans-serif" font-weight="400" font-size="41" transform="matrix(6.12323e-17 -1 1 6.12323e-17 3756.204697265625 1201.1401290893555)">20-Oct</text>
		</g>
		<g>
			<text fill="#595959" font-family="Verdana,Open Sans,DejaVu Sans,sans-serif" font-weight="400" font-size="41" transform="matrix(6.12323e-17 -1 1 6.12323e-17 3841.41447265625 1209.70849609375)">17-Nov</text>
		</g>
		<g>
			<text fill="#595959" font-family="Verdana,Open Sans,DejaVu Sans,sans-serif" font-weight="400" font-size="41" transform="matrix(6.12323e-17 -1 1 6.12323e-17 3926.85447265625 1205.3642578125)">15-Dec</text>
		</g>
		<g>
			<text fill="#595959" font-family="Verdana,Open Sans,DejaVu Sans,sans-serif" font-weight="400" font-size="41" transform="matrix(6.12323e-17 -1 1 6.12323e-17 4016.1582421875 1189.9291915893555)">12-Jan</text>
		</g>
		<g>
			<text fill="#595959" font-family="Verdana,Open Sans,DejaVu Sans,sans-serif" font-weight="400" font-size="41" transform="matrix(6.12323e-17 -1 1 6.12323e-17 4098.675390625 1203.0419921875)">09-Feb</text>
		</g>
		<g>
			<text fill="#595959" font-family="Verdana,Open Sans,DejaVu Sans,sans-serif" font-weight="400" font-size="41" transform="matrix(6.12323e-17 -1 1 6.12323e-17 4183.404697265625 1212.0107421875)">09-Mar</text>
		</g>
		<g>
			<text fill="#595959" font-family="Verdana,Open Sans,DejaVu Sans,sans-serif" font-weight="400" font-size="41" transform="matrix(6.12323e-17 -1 1 6.12323e-17 4273.569306640625 1203.2621994018555)">06-Apr</text>
		</g>
		<g>
			<text fill="#595959" font-family="Verdana,Open Sans,DejaVu Sans,sans-serif" font-weight="400" font-size="41" transform="matrix(1 0 0 1 3169.14111328125 1050)">0</text>
		</g>
		<g>
			<text fill="#595959" font-family="Verdana,Open Sans,DejaVu Sans,sans-serif" font-weight="400" font-size="41" transform="matrix(1 0 0 1 3145.578125 922)">77</text>
		</g>
		<g>
			<text fill="#595959" font-family="Verdana,Open Sans,DejaVu Sans,sans-serif" font-weight="400" font-size="41" transform="matrix(1 0 0 1 3124.33740234375 794)">153</text>
		</g>
		<g>
			<text fill="#595959" font-family="Verdana,Open Sans,DejaVu Sans,sans-serif" font-weight="400" font-size="41" transform="matrix(1 0 0 1 3122.21533203125 666)">230</text>
		</g>
		<g>
			<text fill="#595959" font-family="Verdana,Open Sans,DejaVu Sans,sans-serif" font-weight="400" font-size="41" transform="matrix(1 0 0 1 3122.05517578125 538)">306</text>
		</g>
		<g>
			<text fill="#595959" font-family="Verdana,Open Sans,DejaVu Sans,sans-serif" font-weight="400" font-size="41" transform="matrix(1 0 0 1 3122.45556640625 410)">383</text>
		</g>
		<g>
			<text fill="#595959" font-family="Verdana,Open Sans,DejaVu Sans,sans-serif" font-weight="400" font-size="41" transform="matrix(1 0 0 1 3556.97119140625 1321)">Week Commencing</text>
		</g>
		<g>
			<text fill="#595959" font-family="Verdana,Open Sans,DejaVu Sans,sans-serif" font-weight="400" font-size="46" transform="matrix(6.12323e-17 -1 1 6.12323e-17 3019.73 1005.4858093261719)">Number of Crawler Profiles</text>
		</g>
		<rect x="2918.5" y="347.5" width="1760" height="1043" stroke="#D9D9D9" stroke-width="3.4375" stroke-linejoin="round" stroke-miterlimit="10" fill="none" />
		<g>
			<path d="M3228.5 1038 3249.86 1038 3271.22 1038 3292.58 1038 3313.94 1038 3335.3 1038 3356.66 1038 3378.02 1038 3399.38 1038 3420.74 1038 3442.1 1038 3463.46 1038 3484.82 1038 3506.18 1038 3527.54 1038 3548.9 1038 3570.26 1038 3591.62 1038 3612.98 1038 3634.34 1038 3655.7 1038 3677.06 1038 3698.42 1038 3719.7799999999997 1038 3741.14 1038 3762.5 1038 3783.86 1038 3805.2200000000003 1038 3826.58 1038 3847.94 1038 3869.3 1038 3890.66 1038 3912.02 1038 3933.38 1038 3954.74 1038 3976.1 1038 3997.46 1038 4018.8199999999997 1038 4040.18 1038 4061.54 1038 4082.9 1038 4104.26 1038 4125.62 1038 4146.98 1038 4168.34 1038 4189.7 1038 4211.0599999999995 1038 4232.42 1038 4253.78 1038 4275.139999999999 1038 4296.5 1038 4296.5 399.6710182767624 4275.139999999999 406.355091383812 4253.78 406.355091383812 4232.42 406.355091383812 4211.0599999999995 423.06527415143603 4189.7 423.06527415143603 4168.34 423.06527415143603 4146.98 426.4073107049609 4125.62 429.7493472584857 4104.26 426.4073107049609 4082.9 434.7624020887729 4061.54 456.48563968668407 4040.18 458.1566579634465 4018.8199999999997 459.8276762402089 3997.46 459.8276762402089 3976.1 459.8276762402089 3954.74 461.49869451697134 3933.38 464.8407310704961 3912.02 466.5117493472585 3890.66 468.1827676240209 3869.3 473.1958224543081 3847.94 473.1958224543081 3826.58 473.1958224543081 3805.2200000000003 474.8668407310705 3783.86 478.20887728459536 3762.5 478.20887728459536 3741.14 478.20887728459536 3719.7799999999997 479.8798955613578 3698.42 479.8798955613578 3677.06 479.8798955613578 3655.7 486.56396866840737 3634.34 486.56396866840737 3612.98 486.56396866840737 3591.62 486.56396866840737 3570.26 486.56396866840737 3548.9 486.56396866840737 3527.54 486.56396866840737 3506.18 486.56396866840737 3484.82 486.56396866840737 3463.46 488.2349869451698 3442.1 488.2349869451698 3420.74 489.9060052219321 3399.38 489.9060052219321 3378.02 498.2610966057441 3356.66 499.93211488250654 3335.3 499.93211488250654 3313.94 503.2741514360314 3292.58 504.9451697127938 3271.22 509.958224543081 3249.86 511.6292428198434 3228.5 513.3002610966058 3228.5 1038Z" fill="#005aa6" opacity="0.9" />
		</g>
		<g>
			<path d="M3228.5 513.3002610966058 3249.86 511.6292428198434 3271.22 509.958224543081 3292.58 504.9451697127938 3313.94 503.2741514360314 3335.3 499.93211488250654 3356.66 499.93211488250654 3378.02 498.2610966057441 3399.38 489.9060052219321 3420.74 489.9060052219321 3442.1 488.2349869451698 3463.46 488.2349869451698 3484.82 486.56396866840737 3506.18 486.56396866840737 3527.54 486.56396866840737 3548.9 486.56396866840737 3570.26 486.56396866840737 3591.62 486.56396866840737 3612.98 486.56396866840737 3634.34 486.56396866840737 3655.7 486.56396866840737 3677.06 479.8798955613578 3698.42 479.8798955613578 3719.7799999999997 479.8798955613578 3741.14 478.20887728459536 3762.5 478.20887728459536 3783.86 478.20887728459536 3805.2200000000003 474.8668407310705 3826.58 473.1958224543081 3847.94 473.1958224543081 3869.3 473.1958224543081 3890.66 468.1827676240209 3912.02 466.5117493472585 3933.38 464.8407310704961 3954.74 461.49869451697134 3976.1 459.8276762402089 3997.46 459.8276762402089 4018.8199999999997 459.8276762402089 4040.18 458.1566579634465 4061.54 456.48563968668407 4082.9 434.7624020887729 4104.26 426.4073107049609 4125.62 429.7493472584857 4146.98 426.4073107049609 4168.34 423.06527415143603 4189.7 423.06527415143603 4211.0599999999995 423.06527415143603 4232.42 406.355091383812 4253.78 406.355091383812 4275.139999999999 406.355091383812 4296.5 399.6710182767624 4296.5 398 4275.139999999999 404.6840731070496 4253.78 404.6840731070496 4232.42 404.6840731070496 4211.0599999999995 421.3942558746736 4189.7 421.3942558746736 4168.34 421.3942558746736 4146.98 424.73629242819845 4125.62 426.40731070496093 4104.26 423.0652741514361 4082.9 433.09138381201046 4061.54 454.81462140992164 4040.18 456.48563968668407 4018.8199999999997 458.1566579634465 3997.46 458.1566579634465 3976.1 458.1566579634465 3954.74 459.8276762402089 3933.38 463.16971279373365 3912.02 464.8407310704961 3890.66 466.5117493472585 3869.3 471.52480417754566 3847.94 471.52480417754566 3826.58 471.52480417754566 3805.2200000000003 473.1958224543081 3783.86 476.53785900783294 3762.5 476.53785900783294 3741.14 476.53785900783294 3719.7799999999997 478.20887728459536 3698.42 478.20887728459536 3677.06 478.20887728459536 3655.7 484.89295039164494 3634.34 484.89295039164494 3612.98 484.89295039164494 3591.62 484.89295039164494 3570.26 484.89295039164494 3548.9 484.89295039164494 3527.54 484.89295039164494 3506.18 484.89295039164494 3484.82 484.89295039164494 3463.46 486.56396866840737 3442.1 486.56396866840737 3420.74 488.2349869451697 3399.38 488.2349869451697 3378.02 496.5900783289817 3356.66 498.2610966057441 3335.3 498.2610966057441 3313.94 501.60313315926896 3292.58 503.2741514360314 3271.22 508.28720626631855 3249.86 509.958224543081 3228.5 511.6292428198434 3228.5 513.3002610966058Z" fill="#e62d39" opacity="0.9" />
		</g>
		<g>
			<rect x="4372" y="431" width="22.9995" height="23" fill="#005aa6" />
		</g>
		<g>
			<text fill="#595959" font-family="Verdana,Open Sans,DejaVu Sans,sans-serif" font-weight="400" font-size="41" transform="matrix(1 0 0 1 4404.56 454)">Crawler</text>
		</g>
		<g>
			<rect x="4372" y="508" width="22.9995" height="23" fill="#e62d39" />
		</g>
		<g>
			<text fill="#595959" font-family="Verdana,Open Sans,DejaVu Sans,sans-serif" font-weight="400" font-size="41" transform="matrix(1 0 0 1 4404.56 531)">Non-Crawler</text>
		</g>
	</g>
</svg>
