<svg width="1763" height="1046"
    xmlns="http://www.w3.org/2000/svg"
	xmlns:xlink="http://www.w3.org/1999/xlink" xml:space="preserve" overflow="hidden">
	<defs>
		<clipPath id="clip0">
			<rect x="2917" y="346" width="1763" height="1046"/>
		</clipPath>
	</defs>
	<g clip-path="url(#clip0)" transform="translate(-2917 -346)">
		<rect x="2918" y="347" width="1760" height="1043" fill="#FFFFFF" />
		<g>
			<path d="
			M3228.5 974.532 4296.5 974.532
			M3228.5 910.53 4296.5 910.53
			M3228.5 846.528 4296.5 846.528
			M3228.5 781.526 4296.5 781.526
			M3228.5 717.524 4296.5 717.524
			M3228.5 653.522 4296.5 653.522
			M3228.5 589.52 4296.5 589.52
			M3228.5 525.517 4296.5 525.517
			M3228.5 461.515 4296.5 461.515
			M3228.5 397.5 4296.5 397.5" stroke="#D9D9D9" stroke-width="3.4375" stroke-linejoin="round" stroke-miterlimit="10" fill="none" />
		</g>
		<g>
			<path d="M 1038.5 4296.5 1038.5" stroke="#D9D9D9" stroke-width="3.4375" stroke-linejoin="round" stroke-miterlimit="10" fill="none" fill-rule="evenodd" />
		</g>
		<g>
			<text fill="#595959" font-family="Verdana,sans-serif" font-weight="400" font-size="41" transform="matrix(6.12323e-17 -1 1 6.12323e-17 3244.5 1225)">06-Nov</text>
		</g>
		<g>
			<text fill="#595959" font-family="Verdana,sans-serif" font-weight="400" font-size="41" transform="matrix(6.12323e-17 -1 1 6.12323e-17 3359.9594594594596 1223)">04-Dec</text>
		</g>
		<g>
			<text fill="#595959" font-family="Verdana,sans-serif" font-weight="400" font-size="41" transform="matrix(6.12323e-17 -1 1 6.12323e-17 3475.4189189189187 1210)">01-Jan</text>
		</g>
		<g>
			<text fill="#595959" font-family="Verdana,sans-serif" font-weight="400" font-size="41" transform="matrix(6.12323e-17 -1 1 6.12323e-17 3590.8783783783783 1210)">29-Jan</text>
		</g>
		<g>
			<text fill="#595959" font-family="Verdana,sans-serif" font-weight="400" font-size="41" transform="matrix(6.12323e-17 -1 1 6.12323e-17 3706.337837837838 1216)">26-Feb</text>
		</g>
		<g>
			<text fill="#595959" font-family="Verdana,sans-serif" font-weight="400" font-size="41" transform="matrix(6.12323e-17 -1 1 6.12323e-17 3821.7972972972975 1223)">25-Mar</text>
		</g>
		<g>
			<text fill="#595959" font-family="Verdana,sans-serif" font-weight="400" font-size="41" transform="matrix(6.12323e-17 -1 1 6.12323e-17 3940.7567567567567 1216)">22-Apr</text>
		</g>
		<g>
			<text fill="#595959" font-family="Verdana,sans-serif" font-weight="400" font-size="41" transform="matrix(6.12323e-17 -1 1 6.12323e-17 4056.2162162162163 1228)">20-May</text>
		</g>
		<g>
			<text fill="#595959" font-family="Verdana,sans-serif" font-weight="400" font-size="41" transform="matrix(6.12323e-17 -1 1 6.12323e-17 4167.675675675676 1209)">17-Jun</text>
		</g>
		<g>
			<text fill="#595959" font-family="Verdana,sans-serif" font-weight="400" font-size="41" transform="matrix(6.12323e-17 -1 1 6.12323e-17 4283.635135135135 1194)">15-Jul</text>
		</g>
		<g>
			<text fill="#595959" font-family="Verdana,sans-serif" font-weight="400" font-size="41" transform="matrix(1 0 0 1 3167.5 1050)">0</text>
		</g>
		<g>
			<text fill="#595959" font-family="Verdana,sans-serif" font-weight="400" font-size="41" transform="matrix(1 0 0 1 3142.5 922)">53</text>
		</g>
		<g>
			<text fill="#595959" font-family="Verdana,sans-serif" font-weight="400" font-size="41" transform="matrix(1 0 0 1 3117.5 794)">106</text>
		</g>
		<g>
			<text fill="#595959" font-family="Verdana,sans-serif" font-weight="400" font-size="41" transform="matrix(1 0 0 1 3117.5 666)">158</text>
		</g>
		<g>
			<text fill="#595959" font-family="Verdana,sans-serif" font-weight="400" font-size="41" transform="matrix(1 0 0 1 3117.5 538)">211</text>
		</g>
		<g>
			<text fill="#595959" font-family="Verdana,sans-serif" font-weight="400" font-size="41" transform="matrix(1 0 0 1 3115.5 410)">264</text>
		</g>
		<g>
			<text fill="#595959" font-family="Verdana,sans-serif" font-weight="400" font-size="41" transform="matrix(1 0 0 1 3544.5 1321)">Week Commencing</text>
		</g>
		<g>
			<text fill="#595959" font-family="Verdana,sans-serif" font-weight="400" font-size="46" transform="matrix(6.12323e-17 -1 1 6.12323e-17 3019.73 1024.75)">Number of Crawler Profiles</text>
		</g>
		<rect x="2918.5" y="347.5" width="1760" height="1043" stroke="#D9D9D9" stroke-width="3.4375" stroke-linejoin="round" stroke-miterlimit="10" fill="none" />
		<g>
			<path d="M3228.5 1038 3257.364864864865 1038 3286.2297297297296 1038 3315.0945945945946 1038 3343.9594594594596 1038 3372.824324324324 1038 3401.689189189189 1038 3430.554054054054 1038 3459.4189189189187 1038 3488.2837837837837 1038 3517.1486486486488 1038 3546.0135135135133 1038 3574.8783783783783 1038 3603.7432432432433 1038 3632.608108108108 1038 3661.472972972973 1038 3690.337837837838 1038 3719.2027027027025 1038 3748.0675675675675 1038 3776.9324324324325 1038 3805.7972972972975 1038 3834.662162162162 1038 3863.527027027027 1038 3892.3918918918916 1038 3921.2567567567567 1038 3950.1216216216217 1038 3978.9864864864867 1038 4007.8513513513512 1038 4036.7162162162163 1038 4065.581081081081 1038 4094.445945945946 1038 4123.310810810811 1038 4152.175675675676 1038 4181.040540540541 1038 4209.905405405405 1038 4238.77027027027 1038 4267.635135135135 1038 4296.5 1038 4296.5 400.4242424242424 4267.635135135135 410.1212121212121 4238.77027027027 417.3939393939394 4209.905405405405 427.0909090909091 4181.040540540541 434.3636363636364 4152.175675675676 446.4848484848485 4123.310810810811 451.33333333333337 4094.445945945946 451.33333333333337 4065.581081081081 451.33333333333337 4036.7162162162163 453.75757575757575 4007.8513513513512 458.6060606060606 3978.9864864864867 468.30303030303025 3950.1216216216217 473.1515151515151 3921.2567567567567 475.5757575757575 3892.3918918918916 475.5757575757575 3863.527027027027 485.27272727272725 3834.662162162162 485.27272727272725 3805.7972972972975 497.3939393939394 3776.9324324324325 521.6363636363636 3748.0675675675675 526.4848484848485 3719.2027027027025 531.3333333333333 3690.337837837838 543.4545454545455 3661.472972972973 545.8787878787879 3632.608108108108 545.8787878787879 3603.7432432432433 548.3030303030303 3574.8783783783783 553.1515151515151 3546.0135135135133 565.2727272727273 3517.1486486486488 567.6969696969697 3488.2837837837837 567.6969696969697 3459.4189189189187 572.5454545454545 3430.554054054054 572.5454545454545 3401.689189189189 572.5454545454545 3372.824324324324 572.5454545454545 3343.9594594594596 572.5454545454545 3315.0945945945946 574.969696969697 3286.2297297297296 574.969696969697 3257.364864864865 574.969696969697 3228.5 574.969696969697 3228.5 1038Z" fill="#005aa6" opacity="0.9" />
		</g>
		<g>
			<path d="M3228.5 574.969696969697 3257.364864864865 574.969696969697 3286.2297297297296 574.969696969697 3315.0945945945946 574.969696969697 3343.9594594594596 572.5454545454545 3372.824324324324 572.5454545454545 3401.689189189189 572.5454545454545 3430.554054054054 572.5454545454545 3459.4189189189187 572.5454545454545 3488.2837837837837 567.6969696969697 3517.1486486486488 567.6969696969697 3546.0135135135133 565.2727272727273 3574.8783783783783 553.1515151515151 3603.7432432432433 548.3030303030303 3632.608108108108 545.8787878787879 3661.472972972973 545.8787878787879 3690.337837837838 543.4545454545455 3719.2027027027025 531.3333333333333 3748.0675675675675 526.4848484848485 3776.9324324324325 521.6363636363636 3805.7972972972975 497.3939393939394 3834.662162162162 485.27272727272725 3863.527027027027 485.27272727272725 3892.3918918918916 475.5757575757575 3921.2567567567567 475.5757575757575 3950.1216216216217 473.1515151515151 3978.9864864864867 468.30303030303025 4007.8513513513512 458.6060606060606 4036.7162162162163 453.75757575757575 4065.581081081081 451.33333333333337 4094.445945945946 451.33333333333337 4123.310810810811 451.33333333333337 4152.175675675676 446.4848484848485 4181.040540540541 434.3636363636364 4209.905405405405 427.0909090909091 4238.77027027027 417.3939393939394 4267.635135135135 410.1212121212121 4296.5 400.4242424242424 4296.5 397.99999999999994 4267.635135135135 407.6969696969697 4238.77027027027 414.96969696969694 4209.905405405405 424.6666666666667 4181.040540540541 431.93939393939394 4152.175675675676 444.06060606060606 4123.310810810811 448.90909090909093 4094.445945945946 448.90909090909093 4065.581081081081 448.90909090909093 4036.7162162162163 451.3333333333333 4007.8513513513512 456.1818181818182 3978.9864864864867 465.8787878787878 3950.1216216216217 470.7272727272727 3921.2567567567567 473.15151515151507 3892.3918918918916 473.15151515151507 3863.527027027027 482.8484848484848 3834.662162162162 482.8484848484848 3805.7972972972975 494.96969696969694 3776.9324324324325 519.2121212121212 3748.0675675675675 524.0606060606061 3719.2027027027025 528.9090909090909 3690.337837837838 541.0303030303031 3661.472972972973 543.4545454545455 3632.608108108108 543.4545454545455 3603.7432432432433 545.8787878787879 3574.8783783783783 550.7272727272727 3546.0135135135133 562.8484848484849 3517.1486486486488 565.2727272727274 3488.2837837837837 565.2727272727274 3459.4189189189187 570.1212121212121 3430.554054054054 570.1212121212121 3401.689189189189 570.1212121212121 3372.824324324324 570.1212121212121 3343.9594594594596 570.1212121212121 3315.0945945945946 572.5454545454546 3286.2297297297296 572.5454545454546 3257.364864864865 572.5454545454546 3228.5 572.5454545454546 3228.5 574.969696969697Z" fill="#e62d39" opacity="0.9" />
		</g>
		<g>
			<rect x="4372" y="431" width="22.9995" height="23" fill="#005aa6" />
		</g>
		<g>
			<text fill="#595959" font-family="Verdana,sans-serif" font-weight="400" font-size="41" transform="matrix(1 0 0 1 4404.56 454)">Crawler</text>
		</g>
		<g>
			<rect x="4372" y="508" width="22.9995" height="23" fill="#e62d39" />
		</g>
		<g>
			<text fill="#595959" font-family="Verdana,sans-serif" font-weight="400" font-size="41" transform="matrix(1 0 0 1 4404.56 531)">Non-Crawler</text>
		</g>
	</g>
</svg>
