<svg width="1763" height="1046"
    xmlns="http://www.w3.org/2000/svg"
	xmlns:xlink="http://www.w3.org/1999/xlink" xml:space="preserve" overflow="hidden">
	<defs>
		<clipPath id="clip0">
			<rect x="2917" y="346" width="1763" height="1046"/>
		</clipPath>
	</defs>
	<g clip-path="url(#clip0)" transform="translate(-2917 -346)">
		<rect x="2918" y="347" width="1760" height="1043" fill="#FFFFFF" />
		<g>
			<path d="
			M3228.5 974.532 4296.5 974.532
			M3228.5 910.53 4296.5 910.53
			M3228.5 846.528 4296.5 846.528
			M3228.5 781.526 4296.5 781.526
			M3228.5 717.524 4296.5 717.524
			M3228.5 653.522 4296.5 653.522
			M3228.5 589.52 4296.5 589.52
			M3228.5 525.517 4296.5 525.517
			M3228.5 461.515 4296.5 461.515
			M3228.5 397.5 4296.5 397.5" stroke="#D9D9D9" stroke-width="3.4375" stroke-linejoin="round" stroke-miterlimit="10" fill="none" />
		</g>
		<g>
			<path d="M 1038.5 4296.5 1038.5" stroke="#D9D9D9" stroke-width="3.4375" stroke-linejoin="round" stroke-miterlimit="10" fill="none" fill-rule="evenodd" />
		</g>
		<g>
			<text fill="#595959" font-family="Verdana,Open Sans,DejaVu Sans,sans-serif" font-weight="400" font-size="41" transform="matrix(6.12323e-17 -1 1 6.12323e-17 3247.21826171875 1194.0131759643555)">09-Jun</text>
		</g>
		<g>
			<text fill="#595959" font-family="Verdana,Open Sans,DejaVu Sans,sans-serif" font-weight="400" font-size="41" transform="matrix(6.12323e-17 -1 1 6.12323e-17 3331.693660960478 1178.9985275268555)">07-Jul</text>
		</g>
		<g>
			<text fill="#595959" font-family="Verdana,Open Sans,DejaVu Sans,sans-serif" font-weight="400" font-size="41" transform="matrix(6.12323e-17 -1 1 6.12323e-17 3415.818718405331 1208.62744140625)">04-Aug</text>
		</g>
		<g>
			<text fill="#595959" font-family="Verdana,Open Sans,DejaVu Sans,sans-serif" font-weight="400" font-size="41" transform="matrix(6.12323e-17 -1 1 6.12323e-17 3499.583424287684 1204.38330078125)">01-Sep</text>
		</g>
		<g>
			<text fill="#595959" font-family="Verdana,Open Sans,DejaVu Sans,sans-serif" font-weight="400" font-size="41" transform="matrix(6.12323e-17 -1 1 6.12323e-17 3583.3281106387867 1204.42333984375)">29-Sep</text>
		</g>
		<g>
			<text fill="#595959" font-family="Verdana,Open Sans,DejaVu Sans,sans-serif" font-weight="400" font-size="41" transform="matrix(6.12323e-17 -1 1 6.12323e-17 3662.38822667739 1201.1401290893555)">27-Oct</text>
		</g>
		<g>
			<text fill="#595959" font-family="Verdana,Open Sans,DejaVu Sans,sans-serif" font-weight="400" font-size="41" transform="matrix(6.12323e-17 -1 1 6.12323e-17 3746.1329130284926 1211.47021484375)">24-Nov</text>
		</g>
		<g>
			<text fill="#595959" font-family="Verdana,Open Sans,DejaVu Sans,sans-serif" font-weight="400" font-size="41" transform="matrix(6.12323e-17 -1 1 6.12323e-17 3829.8976189108457 1207.1259765625)">22-Dec</text>
		</g>
		<g>
			<text fill="#595959" font-family="Verdana,Open Sans,DejaVu Sans,sans-serif" font-weight="400" font-size="41" transform="matrix(6.12323e-17 -1 1 6.12323e-17 3917.3158892463234 1189.9291915893555)">19-Jan</text>
		</g>
		<g>
			<text fill="#595959" font-family="Verdana,Open Sans,DejaVu Sans,sans-serif" font-weight="400" font-size="41" transform="matrix(6.12323e-17 -1 1 6.12323e-17 3998.1577435661766 1201.3203125)">16-Feb</text>
		</g>
		<g>
			<text fill="#595959" font-family="Verdana,Open Sans,DejaVu Sans,sans-serif" font-weight="400" font-size="41" transform="matrix(6.12323e-17 -1 1 6.12323e-17 4081.1917365579043 1210.2890625)">16-Mar</text>
		</g>
		<g>
			<text fill="#595959" font-family="Verdana,Open Sans,DejaVu Sans,sans-serif" font-weight="400" font-size="41" transform="matrix(6.12323e-17 -1 1 6.12323e-17 4169.681051815257 1201.5405197143555)">13-Apr</text>
		</g>
		<g>
			<text fill="#595959" font-family="Verdana,Open Sans,DejaVu Sans,sans-serif" font-weight="400" font-size="41" transform="matrix(6.12323e-17 -1 1 6.12323e-17 4253.235552619485 1214.75341796875)">11-May</text>
		</g>
		<g>
			<text fill="#595959" font-family="Verdana,Open Sans,DejaVu Sans,sans-serif" font-weight="400" font-size="41" transform="matrix(1 0 0 1 3169.14111328125 1050)">0</text>
		</g>
		<g>
			<text fill="#595959" font-family="Verdana,Open Sans,DejaVu Sans,sans-serif" font-weight="400" font-size="41" transform="matrix(1 0 0 1 3145.6181640625 922)">78</text>
		</g>
		<g>
			<text fill="#595959" font-family="Verdana,Open Sans,DejaVu Sans,sans-serif" font-weight="400" font-size="41" transform="matrix(1 0 0 1 3124.29736328125 794)">155</text>
		</g>
		<g>
			<text fill="#595959" font-family="Verdana,Open Sans,DejaVu Sans,sans-serif" font-weight="400" font-size="41" transform="matrix(1 0 0 1 3122.57568359375 666)">233</text>
		</g>
		<g>
			<text fill="#595959" font-family="Verdana,Open Sans,DejaVu Sans,sans-serif" font-weight="400" font-size="41" transform="matrix(1 0 0 1 3122.09521484375 538)">310</text>
		</g>
		<g>
			<text fill="#595959" font-family="Verdana,Open Sans,DejaVu Sans,sans-serif" font-weight="400" font-size="41" transform="matrix(1 0 0 1 3122.17529296875 410)">388</text>
		</g>
		<g>
			<text fill="#595959" font-family="Verdana,Open Sans,DejaVu Sans,sans-serif" font-weight="400" font-size="41" transform="matrix(1 0 0 1 3556.97119140625 1321)">Week Commencing</text>
		</g>
		<g>
			<text fill="#595959" font-family="Verdana,Open Sans,DejaVu Sans,sans-serif" font-weight="400" font-size="46" transform="matrix(6.12323e-17 -1 1 6.12323e-17 3019.73 1005.4858093261719)">Number of Crawler Profiles</text>
		</g>
		<rect x="2918.5" y="347.5" width="1760" height="1043" stroke="#D9D9D9" stroke-width="3.4375" stroke-linejoin="round" stroke-miterlimit="10" fill="none" />
		<g>
			<path d="M3228.5 1038 3249.4411764705883 1038 3270.3823529411766 1038 3291.323529411765 1038 3312.264705882353 1038 3333.205882352941 1038 3354.1470588235293 1038 3375.0882352941176 1038 3396.029411764706 1038 3416.970588235294 1038 3437.9117647058824 1038 3458.8529411764707 1038 3479.794117647059 1038 3500.735294117647 1038 3521.676470588235 1038 3542.6176470588234 1038 3563.5588235294117 1038 3584.5 1038 3605.4411764705883 1038 3626.3823529411766 1038 3647.323529411765 1038 3668.264705882353 1038 3689.205882352941 1038 3710.1470588235293 1038 3731.0882352941176 1038 3752.029411764706 1038 3772.970588235294 1038 3793.9117647058824 1038 3814.8529411764707 1038 3835.7941176470586 1038 3856.735294117647 1038 3877.676470588235 1038 3898.6176470588234 1038 3919.5588235294117 1038 3940.5 1038 3961.4411764705883 1038 3982.3823529411766 1038 4003.323529411765 1038 4024.264705882353 1038 4045.2058823529414 1038 4066.1470588235293 1038 4087.0882352941176 1038 4108.029411764706 1038 4128.970588235294 1038 4149.911764705882 1038 4170.85294117647 1038 4191.794117647059 1038 4212.735294117647 1038 4233.676470588235 1038 4254.617647058823 1038 4275.558823529412 1038 4296.5 1038 4296.5 399.64948453608247 4275.558823529412 404.5979381443299 4254.617647058823 404.5979381443299 4233.676470588235 404.5979381443299 4212.735294117647 404.5979381443299 4191.794117647059 404.5979381443299 4170.85294117647 407.8969072164949 4149.911764705882 414.4948453608248 4128.970588235294 414.4948453608248 4108.029411764706 414.4948453608248 4087.0882352941176 430.9896907216495 4066.1470588235293 430.9896907216495 4045.2058823529414 430.9896907216495 4024.264705882353 434.2886597938144 4003.323529411765 437.58762886597947 3982.3823529411766 434.2886597938144 3961.4411764705883 442.5360824742269 3940.5 463.97938144329896 3919.5588235294117 465.62886597938143 3898.6176470588234 467.2783505154639 3877.676470588235 467.2783505154639 3856.735294117647 467.2783505154639 3835.7941176470586 468.92783505154637 3814.8529411764707 472.2268041237114 3793.9117647058824 473.8762886597939 3772.970588235294 475.52577319587635 3752.029411764706 480.47422680412376 3731.0882352941176 480.47422680412376 3710.1470588235293 480.47422680412376 3689.205882352941 482.1237113402062 3668.264705882353 485.42268041237116 3647.323529411765 485.42268041237116 3626.3823529411766 485.42268041237116 3605.4411764705883 487.07216494845363 3584.5 487.07216494845363 3563.5588235294117 487.07216494845363 3542.6176470588234 493.6701030927835 3521.676470588235 493.6701030927835 3500.735294117647 493.6701030927835 3479.794117647059 493.6701030927835 3458.8529411764707 493.6701030927835 3437.9117647058824 493.6701030927835 3416.970588235294 493.6701030927835 3396.029411764706 493.6701030927835 3375.0882352941176 493.6701030927835 3354.1470588235293 495.319587628866 3333.205882352941 495.319587628866 3312.264705882353 496.96907216494844 3291.323529411765 496.96907216494844 3270.3823529411766 505.2164948453609 3249.4411764705883 506.86597938144337 3228.5 506.86597938144337 3228.5 1038Z" fill="#005aa6" opacity="0.9" />
		</g>
		<g>
			<path d="M3228.5 506.86597938144337 3249.4411764705883 506.86597938144337 3270.3823529411766 505.2164948453609 3291.323529411765 496.96907216494844 3312.264705882353 496.96907216494844 3333.205882352941 495.319587628866 3354.1470588235293 495.319587628866 3375.0882352941176 493.6701030927835 3396.029411764706 493.6701030927835 3416.970588235294 493.6701030927835 3437.9117647058824 493.6701030927835 3458.8529411764707 493.6701030927835 3479.794117647059 493.6701030927835 3500.735294117647 493.6701030927835 3521.676470588235 493.6701030927835 3542.6176470588234 493.6701030927835 3563.5588235294117 487.07216494845363 3584.5 487.07216494845363 3605.4411764705883 487.07216494845363 3626.3823529411766 485.42268041237116 3647.323529411765 485.42268041237116 3668.264705882353 485.42268041237116 3689.205882352941 482.1237113402062 3710.1470588235293 480.47422680412376 3731.0882352941176 480.47422680412376 3752.029411764706 480.47422680412376 3772.970588235294 475.52577319587635 3793.9117647058824 473.8762886597939 3814.8529411764707 472.2268041237114 3835.7941176470586 468.92783505154637 3856.735294117647 467.2783505154639 3877.676470588235 467.2783505154639 3898.6176470588234 467.2783505154639 3919.5588235294117 465.62886597938143 3940.5 463.97938144329896 3961.4411764705883 442.5360824742269 3982.3823529411766 434.2886597938144 4003.323529411765 437.58762886597947 4024.264705882353 434.2886597938144 4045.2058823529414 430.9896907216495 4066.1470588235293 430.9896907216495 4087.0882352941176 430.9896907216495 4108.029411764706 414.4948453608248 4128.970588235294 414.4948453608248 4149.911764705882 414.4948453608248 4170.85294117647 407.8969072164949 4191.794117647059 404.5979381443299 4212.735294117647 404.5979381443299 4233.676470588235 404.5979381443299 4254.617647058823 404.5979381443299 4275.558823529412 404.5979381443299 4296.5 399.64948453608247 4296.5 398 4275.558823529412 402.9484536082474 4254.617647058823 402.9484536082474 4233.676470588235 402.9484536082474 4212.735294117647 402.9484536082474 4191.794117647059 402.9484536082474 4170.85294117647 406.24742268041246 4149.911764705882 412.84536082474233 4128.970588235294 412.84536082474233 4108.029411764706 412.84536082474233 4087.0882352941176 429.340206185567 4066.1470588235293 429.340206185567 4045.2058823529414 429.340206185567 4024.264705882353 432.63917525773195 4003.323529411765 434.28865979381453 3982.3823529411766 430.9896907216495 3961.4411764705883 440.8865979381444 3940.5 462.3298969072165 3919.5588235294117 463.97938144329896 3898.6176470588234 465.62886597938143 3877.676470588235 465.62886597938143 3856.735294117647 465.62886597938143 3835.7941176470586 467.2783505154639 3814.8529411764707 470.57731958762895 3793.9117647058824 472.2268041237114 3772.970588235294 473.8762886597939 3752.029411764706 478.8247422680413 3731.0882352941176 478.8247422680413 3710.1470588235293 478.8247422680413 3689.205882352941 480.47422680412376 3668.264705882353 483.7731958762887 3647.323529411765 483.7731958762887 3626.3823529411766 483.7731958762887 3605.4411764705883 485.42268041237116 3584.5 485.42268041237116 3563.5588235294117 485.42268041237116 3542.6176470588234 492.02061855670104 3521.676470588235 492.02061855670104 3500.735294117647 492.02061855670104 3479.794117647059 492.02061855670104 3458.8529411764707 492.02061855670104 3437.9117647058824 492.02061855670104 3416.970588235294 492.02061855670104 3396.029411764706 492.02061855670104 3375.0882352941176 492.02061855670104 3354.1470588235293 493.6701030927835 3333.205882352941 493.6701030927835 3312.264705882353 495.319587628866 3291.323529411765 495.319587628866 3270.3823529411766 503.56701030927843 3249.4411764705883 505.2164948453609 3228.5 505.2164948453609 3228.5 506.86597938144337Z" fill="#e62d39" opacity="0.9" />
		</g>
		<g>
			<rect x="4372" y="431" width="22.9995" height="23" fill="#005aa6" />
		</g>
		<g>
			<text fill="#595959" font-family="Verdana,Open Sans,DejaVu Sans,sans-serif" font-weight="400" font-size="41" transform="matrix(1 0 0 1 4404.56 454)">Crawler</text>
		</g>
		<g>
			<rect x="4372" y="508" width="22.9995" height="23" fill="#e62d39" />
		</g>
		<g>
			<text fill="#595959" font-family="Verdana,Open Sans,DejaVu Sans,sans-serif" font-weight="400" font-size="41" transform="matrix(1 0 0 1 4404.56 531)">Non-Crawler</text>
		</g>
	</g>
</svg>
