<svg width="1763" height="1046"
    xmlns="http://www.w3.org/2000/svg"
	xmlns:xlink="http://www.w3.org/1999/xlink" xml:space="preserve" overflow="hidden">
	<defs>
		<clipPath id="clip0">
			<rect x="2917" y="346" width="1763" height="1046"/>
		</clipPath>
	</defs>
	<g clip-path="url(#clip0)" transform="translate(-2917 -346)">
		<rect x="2918" y="347" width="1760" height="1043" fill="#FFFFFF" />
		<g>
			<path d="
			M3228.5 974.532 4296.5 974.532
			M3228.5 910.53 4296.5 910.53
			M3228.5 846.528 4296.5 846.528
			M3228.5 781.526 4296.5 781.526
			M3228.5 717.524 4296.5 717.524
			M3228.5 653.522 4296.5 653.522
			M3228.5 589.52 4296.5 589.52
			M3228.5 525.517 4296.5 525.517
			M3228.5 461.515 4296.5 461.515
			M3228.5 397.5 4296.5 397.5" stroke="#D9D9D9" stroke-width="3.4375" stroke-linejoin="round" stroke-miterlimit="10" fill="none" />
		</g>
		<g>
			<path d="M 1038.5 4296.5 1038.5" stroke="#D9D9D9" stroke-width="3.4375" stroke-linejoin="round" stroke-miterlimit="10" fill="none" fill-rule="evenodd" />
		</g>
		<g>
			<text fill="#595959" font-family="Verdana,sans-serif" font-weight="400" font-size="41" transform="matrix(6.12323e-17 -1 1 6.12323e-17 3248 1228)">27-May</text>
		</g>
		<g>
			<text fill="#595959" font-family="Verdana,sans-serif" font-weight="400" font-size="41" transform="matrix(6.12323e-17 -1 1 6.12323e-17 3329.94 1211)">24-Jun</text>
		</g>
		<g>
			<text fill="#595959" font-family="Verdana,sans-serif" font-weight="400" font-size="41" transform="matrix(6.12323e-17 -1 1 6.12323e-17 3415.38 1196)">22-Jul</text>
		</g>
		<g>
			<text fill="#595959" font-family="Verdana,sans-serif" font-weight="400" font-size="41" transform="matrix(6.12323e-17 -1 1 6.12323e-17 3504.32 1218)">19-Aug</text>
		</g>
		<g>
			<text fill="#595959" font-family="Verdana,sans-serif" font-weight="400" font-size="41" transform="matrix(6.12323e-17 -1 1 6.12323e-17 3589.76 1219)">16-Sep</text>
		</g>
		<g>
			<text fill="#595959" font-family="Verdana,sans-serif" font-weight="400" font-size="41" transform="matrix(6.12323e-17 -1 1 6.12323e-17 3671.7 1213)">14-Oct</text>
		</g>
		<g>
			<text fill="#595959" font-family="Verdana,sans-serif" font-weight="400" font-size="41" transform="matrix(6.12323e-17 -1 1 6.12323e-17 3756.64 1222)">11-Nov</text>
		</g>
		<g>
			<text fill="#595959" font-family="Verdana,sans-serif" font-weight="400" font-size="41" transform="matrix(6.12323e-17 -1 1 6.12323e-17 3842.08 1220)">16-Dec</text>
		</g>
		<g>
			<text fill="#595959" font-family="Verdana,sans-serif" font-weight="400" font-size="41" transform="matrix(6.12323e-17 -1 1 6.12323e-17 3928.02 1207)">13-Jan</text>
		</g>
		<g>
			<text fill="#595959" font-family="Verdana,sans-serif" font-weight="400" font-size="41" transform="matrix(6.12323e-17 -1 1 6.12323e-17 4013.46 1214)">10-Feb</text>
		</g>
		<g>
			<text fill="#595959" font-family="Verdana,sans-serif" font-weight="400" font-size="41" transform="matrix(6.12323e-17 -1 1 6.12323e-17 4098.9 1221)">10-Mar</text>
		</g>
		<g>
			<text fill="#595959" font-family="Verdana,sans-serif" font-weight="400" font-size="41" transform="matrix(6.12323e-17 -1 1 6.12323e-17 4187.84 1217)">07-Apr</text>
		</g>
		<g>
			<text fill="#595959" font-family="Verdana,sans-serif" font-weight="400" font-size="41" transform="matrix(6.12323e-17 -1 1 6.12323e-17 4273.28 1228)">05-May</text>
		</g>
		<g>
			<text fill="#595959" font-family="Verdana,sans-serif" font-weight="400" font-size="41" transform="matrix(1 0 0 1 3167.5 1050)">0</text>
		</g>
		<g>
			<text fill="#595959" font-family="Verdana,sans-serif" font-weight="400" font-size="41" transform="matrix(1 0 0 1 3140.5 922)">64</text>
		</g>
		<g>
			<text fill="#595959" font-family="Verdana,sans-serif" font-weight="400" font-size="41" transform="matrix(1 0 0 1 3117.5 794)">128</text>
		</g>
		<g>
			<text fill="#595959" font-family="Verdana,sans-serif" font-weight="400" font-size="41" transform="matrix(1 0 0 1 3118.5 666)">192</text>
		</g>
		<g>
			<text fill="#595959" font-family="Verdana,sans-serif" font-weight="400" font-size="41" transform="matrix(1 0 0 1 3115.5 538)">256</text>
		</g>
		<g>
			<text fill="#595959" font-family="Verdana,sans-serif" font-weight="400" font-size="41" transform="matrix(1 0 0 1 3115.5 410)">320</text>
		</g>
		<g>
			<text fill="#595959" font-family="Verdana,sans-serif" font-weight="400" font-size="41" transform="matrix(1 0 0 1 3544.5 1321)">Week Commencing</text>
		</g>
		<g>
			<text fill="#595959" font-family="Verdana,sans-serif" font-weight="400" font-size="46" transform="matrix(6.12323e-17 -1 1 6.12323e-17 3019.73 1024.75)">Number of Crawler Profiles</text>
		</g>
		<rect x="2918.5" y="347.5" width="1760" height="1043" stroke="#D9D9D9" stroke-width="3.4375" stroke-linejoin="round" stroke-miterlimit="10" fill="none" />
		<g>
			<path d="M3228.5 1038 3249.86 1038 3271.22 1038 3292.58 1038 3313.94 1038 3335.3 1038 3356.66 1038 3378.02 1038 3399.38 1038 3420.74 1038 3442.1 1038 3463.46 1038 3484.82 1038 3506.18 1038 3527.54 1038 3548.9 1038 3570.26 1038 3591.62 1038 3612.98 1038 3634.34 1038 3655.7 1038 3677.06 1038 3698.42 1038 3719.7799999999997 1038 3741.14 1038 3762.5 1038 3783.86 1038 3805.2200000000003 1038 3826.58 1038 3847.94 1038 3869.3 1038 3890.66 1038 3912.02 1038 3933.38 1038 3954.74 1038 3976.1 1038 3997.46 1038 4018.8199999999997 1038 4040.18 1038 4061.54 1038 4082.9 1038 4104.26 1038 4125.62 1038 4146.98 1038 4168.34 1038 4189.7 1038 4211.0599999999995 1038 4232.42 1038 4253.78 1038 4275.139999999999 1038 4296.5 1038 4296.5 400 4275.139999999999 406 4253.78 408 4232.42 410 4211.0599999999995 412 4189.7 412 4168.34 412 4146.98 414 4125.62 414 4104.26 414 4082.9 416 4061.54 416 4040.18 418 4018.8199999999997 418 3997.46 420 3976.1 422 3954.74 424 3933.38 424 3912.02 428 3890.66 430 3869.3 430 3847.94 430 3826.58 434 3805.2200000000003 436 3783.86 442 3762.5 450 3741.14 462 3719.7799999999997 468 3698.42 468 3677.06 466 3655.7 470 3634.34 476 3612.98 484 3591.62 484 3570.26 486 3548.9 496 3527.54 500 3506.18 504 3484.82 504 3463.46 508 3442.1 508 3420.74 510 3399.38 512 3378.02 520 3356.66 526 3335.3 534 3313.94 540 3292.58 550 3271.22 554 3249.86 554 3228.5 554 3228.5 1038Z" fill="#005aa6" opacity="0.9" />
		</g>
		<g>
			<path d="M3228.5 554 3249.86 554 3271.22 554 3292.58 550 3313.94 540 3335.3 534 3356.66 526 3378.02 520 3399.38 512 3420.74 510 3442.1 508 3463.46 508 3484.82 504 3506.18 504 3527.54 500 3548.9 496 3570.26 486 3591.62 484 3612.98 484 3634.34 476 3655.7 470 3677.06 466 3698.42 468 3719.7799999999997 468 3741.14 462 3762.5 450 3783.86 442 3805.2200000000003 436 3826.58 434 3847.94 430 3869.3 430 3890.66 430 3912.02 428 3933.38 424 3954.74 424 3976.1 422 3997.46 420 4018.8199999999997 418 4040.18 418 4061.54 416 4082.9 416 4104.26 414 4125.62 414 4146.98 414 4168.34 412 4189.7 412 4211.0599999999995 412 4232.42 410 4253.78 408 4275.139999999999 406 4296.5 400 4296.5 398 4275.139999999999 404 4253.78 406 4232.42 408 4211.0599999999995 410 4189.7 410 4168.34 410 4146.98 412 4125.62 412 4104.26 412 4082.9 414 4061.54 414 4040.18 416 4018.8199999999997 416 3997.46 418 3976.1 420 3954.74 422 3933.38 422 3912.02 426 3890.66 428 3869.3 428 3847.94 428 3826.58 432 3805.2200000000003 434 3783.86 440 3762.5 448 3741.14 460 3719.7799999999997 466 3698.42 466 3677.06 464 3655.7 468 3634.34 474 3612.98 482 3591.62 482 3570.26 484 3548.9 494 3527.54 498 3506.18 502 3484.82 502 3463.46 506 3442.1 506 3420.74 508 3399.38 510 3378.02 518 3356.66 524 3335.3 532 3313.94 538 3292.58 548 3271.22 552 3249.86 552 3228.5 552 3228.5 554Z" fill="#e62d39" opacity="0.9" />
		</g>
		<g>
			<rect x="4372" y="431" width="22.9995" height="23" fill="#005aa6" />
		</g>
		<g>
			<text fill="#595959" font-family="Verdana,sans-serif" font-weight="400" font-size="41" transform="matrix(1 0 0 1 4404.56 454)">Crawler</text>
		</g>
		<g>
			<rect x="4372" y="508" width="22.9995" height="23" fill="#e62d39" />
		</g>
		<g>
			<text fill="#595959" font-family="Verdana,sans-serif" font-weight="400" font-size="41" transform="matrix(1 0 0 1 4404.56 531)">Non-Crawler</text>
		</g>
	</g>
</svg>
