<svg width="1763" height="1046"
    xmlns="http://www.w3.org/2000/svg"
	xmlns:xlink="http://www.w3.org/1999/xlink" xml:space="preserve" overflow="hidden">
	<defs>
		<clipPath id="clip0">
			<rect x="2917" y="346" width="1763" height="1046"/>
		</clipPath>
	</defs>
	<g clip-path="url(#clip0)" transform="translate(-2917 -346)">
		<rect x="2918" y="347" width="1760" height="1043" fill="#FFFFFF" />
		<g>
			<path d="
			M3228.5 974.532 4296.5 974.532
			M3228.5 910.53 4296.5 910.53
			M3228.5 846.528 4296.5 846.528
			M3228.5 781.526 4296.5 781.526
			M3228.5 717.524 4296.5 717.524
			M3228.5 653.522 4296.5 653.522
			M3228.5 589.52 4296.5 589.52
			M3228.5 525.517 4296.5 525.517
			M3228.5 461.515 4296.5 461.515
			M3228.5 397.5 4296.5 397.5" stroke="#D9D9D9" stroke-width="3.4375" stroke-linejoin="round" stroke-miterlimit="10" fill="none" />
		</g>
		<g>
			<path d="M 1038.5 4296.5 1038.5" stroke="#D9D9D9" stroke-width="3.4375" stroke-linejoin="round" stroke-miterlimit="10" fill="none" fill-rule="evenodd" />
		</g>
		<g>
			<text fill="#595959" font-family="Verdana,Open Sans,DejaVu Sans,sans-serif" font-weight="400" font-size="41" transform="matrix(6.12323e-17 -1 1 6.12323e-17 3243.564697265625 1207.0859375)">09-Dec</text>
		</g>
		<g>
			<text fill="#595959" font-family="Verdana,Open Sans,DejaVu Sans,sans-serif" font-weight="400" font-size="41" transform="matrix(6.12323e-17 -1 1 6.12323e-17 3334.401935188138 1191.6508712768555)">06-Jan</text>
		</g>
		<g>
			<text fill="#595959" font-family="Verdana,Open Sans,DejaVu Sans,sans-serif" font-weight="400" font-size="41" transform="matrix(6.12323e-17 -1 1 6.12323e-17 3418.6427375637754 1203.0419921875)">03-Feb</text>
		</g>
		<g>
			<text fill="#595959" font-family="Verdana,Open Sans,DejaVu Sans,sans-serif" font-weight="400" font-size="41" transform="matrix(6.12323e-17 -1 1 6.12323e-17 3505.1157176737884 1212.0107421875)">03-Mar</text>
		</g>
		<g>
			<text fill="#595959" font-family="Verdana,Open Sans,DejaVu Sans,sans-serif" font-weight="400" font-size="41" transform="matrix(6.12323e-17 -1 1 6.12323e-17 3592.279371611926 1212.1708984375)">31-Mar</text>
		</g>
		<g>
			<text fill="#595959" font-family="Verdana,Open Sans,DejaVu Sans,sans-serif" font-weight="400" font-size="41" transform="matrix(6.12323e-17 -1 1 6.12323e-17 3684.187654456314 1203.3022384643555)">28-Apr</text>
		</g>
		<g>
			<text fill="#595959" font-family="Verdana,Open Sans,DejaVu Sans,sans-serif" font-weight="400" font-size="41" transform="matrix(6.12323e-17 -1 1 6.12323e-17 3771.3713279257017 1216.51513671875)">26-May</text>
		</g>
		<g>
			<text fill="#595959" font-family="Verdana,Open Sans,DejaVu Sans,sans-serif" font-weight="400" font-size="41" transform="matrix(6.12323e-17 -1 1 6.12323e-17 3857.503976004464 1194.1733322143555)">30-Jun</text>
		</g>
		<g>
			<text fill="#595959" font-family="Verdana,Open Sans,DejaVu Sans,sans-serif" font-weight="400" font-size="41" transform="matrix(6.12323e-17 -1 1 6.12323e-17 3945.398342833227 1179.0385665893555)">28-Jul</text>
		</g>
		<g>
			<text fill="#595959" font-family="Verdana,Open Sans,DejaVu Sans,sans-serif" font-weight="400" font-size="41" transform="matrix(6.12323e-17 -1 1 6.12323e-17 4032.9223483338646 1208.66748046875)">25-Aug</text>
		</g>
		<g>
			<text fill="#595959" font-family="Verdana,Open Sans,DejaVu Sans,sans-serif" font-weight="400" font-size="41" transform="matrix(6.12323e-17 -1 1 6.12323e-17 4120.106021803253 1204.42333984375)">22-Sep</text>
		</g>
		<g>
			<text fill="#595959" font-family="Verdana,Open Sans,DejaVu Sans,sans-serif" font-weight="400" font-size="41" transform="matrix(6.12323e-17 -1 1 6.12323e-17 4202.5851054288905 1201.1401290893555)">20-Oct</text>
		</g>
		<g>
			<text fill="#595959" font-family="Verdana,Open Sans,DejaVu Sans,sans-serif" font-weight="400" font-size="41" transform="matrix(6.12323e-17 -1 1 6.12323e-17 4289.5385542889035 1209.70849609375)">17-Nov</text>
		</g>
		<g>
			<text fill="#595959" font-family="Verdana,Open Sans,DejaVu Sans,sans-serif" font-weight="400" font-size="41" transform="matrix(1 0 0 1 3169.14111328125 1050)">0</text>
		</g>
		<g>
			<text fill="#595959" font-family="Verdana,Open Sans,DejaVu Sans,sans-serif" font-weight="400" font-size="41" transform="matrix(1 0 0 1 3146.07861328125 922)">68</text>
		</g>
		<g>
			<text fill="#595959" font-family="Verdana,Open Sans,DejaVu Sans,sans-serif" font-weight="400" font-size="41" transform="matrix(1 0 0 1 3123.93701171875 794)">136</text>
		</g>
		<g>
			<text fill="#595959" font-family="Verdana,Open Sans,DejaVu Sans,sans-serif" font-weight="400" font-size="41" transform="matrix(1 0 0 1 3122.57568359375 666)">203</text>
		</g>
		<g>
			<text fill="#595959" font-family="Verdana,Open Sans,DejaVu Sans,sans-serif" font-weight="400" font-size="41" transform="matrix(1 0 0 1 3129.3022499084473 538)">271</text>
		</g>
		<g>
			<text fill="#595959" font-family="Verdana,Open Sans,DejaVu Sans,sans-serif" font-weight="400" font-size="41" transform="matrix(1 0 0 1 3122.25537109375 410)">339</text>
		</g>
		<g>
			<text fill="#595959" font-family="Verdana,Open Sans,DejaVu Sans,sans-serif" font-weight="400" font-size="41" transform="matrix(1 0 0 1 3556.97119140625 1321)">Week Commencing</text>
		</g>
		<g>
			<text fill="#595959" font-family="Verdana,Open Sans,DejaVu Sans,sans-serif" font-weight="400" font-size="46" transform="matrix(6.12323e-17 -1 1 6.12323e-17 3019.73 1005.4858093261719)">Number of Crawler Profiles</text>
		</g>
		<rect x="2918.5" y="347.5" width="1760" height="1043" stroke="#D9D9D9" stroke-width="3.4375" stroke-linejoin="round" stroke-miterlimit="10" fill="none" />
		<g>
			<path d="M3228.5 1038 3250.295918367347 1038 3272.091836734694 1038 3293.887755102041 1038 3315.683673469388 1038 3337.4795918367345 1038 3359.2755102040815 1038 3381.0714285714284 1038 3402.8673469387754 1038 3424.6632653061224 1038 3446.4591836734694 1038 3468.2551020408164 1038 3490.0510204081634 1038 3511.8469387755104 1038 3533.6428571428573 1038 3555.4387755102043 1038 3577.234693877551 1038 3599.030612244898 1038 3620.826530612245 1038 3642.622448979592 1038 3664.418367346939 1038 3686.214285714286 1038 3708.0102040816328 1038 3729.8061224489797 1038 3751.6020408163267 1038 3773.3979591836733 1038 3795.1938775510203 1038 3816.9897959183672 1038 3838.785714285714 1038 3860.581632653061 1038 3882.377551020408 1038 3904.173469387755 1038 3925.969387755102 1038 3947.765306122449 1038 3969.5612244897957 1038 3991.357142857143 1038 4013.1530612244896 1038 4034.9489795918366 1038 4056.7448979591836 1038 4078.5408163265306 1038 4100.336734693878 1038 4122.132653061224 1038 4143.928571428572 1038 4165.724489795918 1038 4187.5204081632655 1038 4209.316326530612 1038 4231.1122448979595 1038 4252.908163265306 1038 4274.7040816326535 1038 4296.5 1038 4296.5 399.8879056047198 4274.7040816326535 399.8879056047198 4252.908163265306 401.77581120943955 4231.1122448979595 405.5516224188791 4209.316326530612 405.5516224188791 4187.5204081632655 405.5516224188791 4165.724489795918 407.4395280235989 4143.928571428572 407.4395280235989 4122.132653061224 407.4395280235989 4100.336734693878 414.9911504424779 4078.5408163265306 414.9911504424779 4056.7448979591836 414.9911504424779 4034.9489795918366 414.9911504424779 4013.1530612244896 414.9911504424779 3991.357142857143 414.9911504424779 3969.5612244897957 414.9911504424779 3947.765306122449 414.9911504424779 3925.969387755102 414.9911504424779 3904.173469387755 416.87905604719765 3882.377551020408 416.87905604719765 3860.581632653061 418.7669616519174 3838.785714285714 418.7669616519174 3816.9897959183672 428.2064896755162 3795.1938775510203 430.094395280236 3773.3979591836733 430.094395280236 3751.6020408163267 433.8702064896755 3729.8061224489797 435.7581120943953 3708.0102040816328 441.42182890855463 3686.214285714286 443.3097345132743 3664.418367346939 445.19764011799407 3642.622448979592 447.08554572271385 3620.826530612245 447.08554572271385 3599.030612244898 447.08554572271385 3577.234693877551 448.9734513274336 3555.4387755102043 448.9734513274336 3533.6428571428573 448.9734513274336 3511.8469387755104 450.8613569321534 3490.0510204081634 450.8613569321534 3468.2551020408164 452.7492625368732 3446.4591836734694 452.7492625368732 3424.6632653061224 454.63716814159295 3402.8673469387754 456.5250737463127 3381.0714285714284 458.4129793510325 3359.2755102040815 458.4129793510325 3337.4795918367345 462.18879056047194 3315.683673469388 464.0766961651917 3293.887755102041 464.0766961651917 3272.091836734694 464.0766961651917 3250.295918367347 467.8525073746313 3228.5 469.74041297935105 3228.5 1038Z" fill="#005aa6" opacity="0.9" />
		</g>
		<g>
			<path d="M3228.5 469.74041297935105 3250.295918367347 467.8525073746313 3272.091836734694 464.0766961651917 3293.887755102041 464.0766961651917 3315.683673469388 464.0766961651917 3337.4795918367345 462.18879056047194 3359.2755102040815 458.4129793510325 3381.0714285714284 458.4129793510325 3402.8673469387754 456.5250737463127 3424.6632653061224 454.63716814159295 3446.4591836734694 452.7492625368732 3468.2551020408164 452.7492625368732 3490.0510204081634 450.8613569321534 3511.8469387755104 450.8613569321534 3533.6428571428573 448.9734513274336 3555.4387755102043 448.9734513274336 3577.234693877551 448.9734513274336 3599.030612244898 447.08554572271385 3620.826530612245 447.08554572271385 3642.622448979592 447.08554572271385 3664.418367346939 445.19764011799407 3686.214285714286 443.3097345132743 3708.0102040816328 441.42182890855463 3729.8061224489797 435.7581120943953 3751.6020408163267 433.8702064896755 3773.3979591836733 430.094395280236 3795.1938775510203 430.094395280236 3816.9897959183672 428.2064896755162 3838.785714285714 418.7669616519174 3860.581632653061 418.7669616519174 3882.377551020408 416.87905604719765 3904.173469387755 416.87905604719765 3925.969387755102 414.9911504424779 3947.765306122449 414.9911504424779 3969.5612244897957 414.9911504424779 3991.357142857143 414.9911504424779 4013.1530612244896 414.9911504424779 4034.9489795918366 414.9911504424779 4056.7448979591836 414.9911504424779 4078.5408163265306 414.9911504424779 4100.336734693878 414.9911504424779 4122.132653061224 407.4395280235989 4143.928571428572 407.4395280235989 4165.724489795918 407.4395280235989 4187.5204081632655 405.5516224188791 4209.316326530612 405.5516224188791 4231.1122448979595 405.5516224188791 4252.908163265306 401.77581120943955 4274.7040816326535 399.8879056047198 4296.5 399.8879056047198 4296.5 398 4274.7040816326535 398 4252.908163265306 399.8879056047198 4231.1122448979595 403.66371681415933 4209.316326530612 403.66371681415933 4187.5204081632655 403.66371681415933 4165.724489795918 405.5516224188791 4143.928571428572 405.5516224188791 4122.132653061224 405.5516224188791 4100.336734693878 413.1032448377581 4078.5408163265306 413.1032448377581 4056.7448979591836 413.1032448377581 4034.9489795918366 413.1032448377581 4013.1530612244896 413.1032448377581 3991.357142857143 413.1032448377581 3969.5612244897957 413.1032448377581 3947.765306122449 413.1032448377581 3925.969387755102 413.1032448377581 3904.173469387755 414.9911504424779 3882.377551020408 414.9911504424779 3860.581632653061 416.87905604719765 3838.785714285714 416.87905604719765 3816.9897959183672 426.3185840707964 3795.1938775510203 428.2064896755162 3773.3979591836733 428.2064896755162 3751.6020408163267 431.98230088495575 3729.8061224489797 433.8702064896755 3708.0102040816328 439.53392330383485 3686.214285714286 441.4218289085545 3664.418367346939 443.3097345132743 3642.622448979592 445.19764011799407 3620.826530612245 445.19764011799407 3599.030612244898 445.19764011799407 3577.234693877551 447.08554572271385 3555.4387755102043 447.08554572271385 3533.6428571428573 447.08554572271385 3511.8469387755104 448.9734513274336 3490.0510204081634 448.9734513274336 3468.2551020408164 450.8613569321534 3446.4591836734694 450.8613569321534 3424.6632653061224 452.7492625368732 3402.8673469387754 454.63716814159295 3381.0714285714284 456.5250737463127 3359.2755102040815 456.5250737463127 3337.4795918367345 460.30088495575217 3315.683673469388 462.18879056047194 3293.887755102041 462.18879056047194 3272.091836734694 462.18879056047194 3250.295918367347 465.9646017699115 3228.5 467.8525073746313 3228.5 469.74041297935105Z" fill="#e62d39" opacity="0.9" />
		</g>
		<g>
			<rect x="4372" y="431" width="22.9995" height="23" fill="#005aa6" />
		</g>
		<g>
			<text fill="#595959" font-family="Verdana,Open Sans,DejaVu Sans,sans-serif" font-weight="400" font-size="41" transform="matrix(1 0 0 1 4404.56 454)">Crawler</text>
		</g>
		<g>
			<rect x="4372" y="508" width="22.9995" height="23" fill="#e62d39" />
		</g>
		<g>
			<text fill="#595959" font-family="Verdana,Open Sans,DejaVu Sans,sans-serif" font-weight="400" font-size="41" transform="matrix(1 0 0 1 4404.56 531)">Non-Crawler</text>
		</g>
	</g>
</svg>
