<svg width="1763" height="1046"
    xmlns="http://www.w3.org/2000/svg"
	xmlns:xlink="http://www.w3.org/1999/xlink" xml:space="preserve" overflow="hidden">
	<defs>
		<clipPath id="clip0">
			<rect x="2917" y="346" width="1763" height="1046"/>
		</clipPath>
	</defs>
	<g clip-path="url(#clip0)" transform="translate(-2917 -346)">
		<rect x="2918" y="347" width="1760" height="1043" fill="#FFFFFF" />
		<g>
			<path d="
			M3228.5 974.532 4296.5 974.532
			M3228.5 910.53 4296.5 910.53
			M3228.5 846.528 4296.5 846.528
			M3228.5 781.526 4296.5 781.526
			M3228.5 717.524 4296.5 717.524
			M3228.5 653.522 4296.5 653.522
			M3228.5 589.52 4296.5 589.52
			M3228.5 525.517 4296.5 525.517
			M3228.5 461.515 4296.5 461.515
			M3228.5 397.5 4296.5 397.5" stroke="#D9D9D9" stroke-width="3.4375" stroke-linejoin="round" stroke-miterlimit="10" fill="none" />
		</g>
		<g>
			<path d="M 1038.5 4296.5 1038.5" stroke="#D9D9D9" stroke-width="3.4375" stroke-linejoin="round" stroke-miterlimit="10" fill="none" fill-rule="evenodd" />
		</g>
		<g>
			<text fill="#595959" font-family="Verdana,sans-serif" font-weight="400" font-size="41" transform="matrix(6.12323e-17 -1 1 6.12323e-17 3244.5 1225)">06-Nov</text>
		</g>
		<g>
			<text fill="#595959" font-family="Verdana,sans-serif" font-weight="400" font-size="41" transform="matrix(6.12323e-17 -1 1 6.12323e-17 3363.1666666666665 1223)">04-Dec</text>
		</g>
		<g>
			<text fill="#595959" font-family="Verdana,sans-serif" font-weight="400" font-size="41" transform="matrix(6.12323e-17 -1 1 6.12323e-17 3481.8333333333335 1210)">01-Jan</text>
		</g>
		<g>
			<text fill="#595959" font-family="Verdana,sans-serif" font-weight="400" font-size="41" transform="matrix(6.12323e-17 -1 1 6.12323e-17 3600.5 1210)">29-Jan</text>
		</g>
		<g>
			<text fill="#595959" font-family="Verdana,sans-serif" font-weight="400" font-size="41" transform="matrix(6.12323e-17 -1 1 6.12323e-17 3719.1666666666665 1216)">26-Feb</text>
		</g>
		<g>
			<text fill="#595959" font-family="Verdana,sans-serif" font-weight="400" font-size="41" transform="matrix(6.12323e-17 -1 1 6.12323e-17 3837.8333333333335 1223)">25-Mar</text>
		</g>
		<g>
			<text fill="#595959" font-family="Verdana,sans-serif" font-weight="400" font-size="41" transform="matrix(6.12323e-17 -1 1 6.12323e-17 3960 1216)">22-Apr</text>
		</g>
		<g>
			<text fill="#595959" font-family="Verdana,sans-serif" font-weight="400" font-size="41" transform="matrix(6.12323e-17 -1 1 6.12323e-17 4078.666666666667 1228)">20-May</text>
		</g>
		<g>
			<text fill="#595959" font-family="Verdana,sans-serif" font-weight="400" font-size="41" transform="matrix(6.12323e-17 -1 1 6.12323e-17 4193.333333333333 1209)">17-Jun</text>
		</g>
		<g>
			<text fill="#595959" font-family="Verdana,sans-serif" font-weight="400" font-size="41" transform="matrix(6.12323e-17 -1 1 6.12323e-17 4312.5 1194)">15-Jul</text>
		</g>
		<g>
			<text fill="#595959" font-family="Verdana,sans-serif" font-weight="400" font-size="41" transform="matrix(1 0 0 1 3123.5 1050)">0%</text>
		</g>
		<g>
			<text fill="#595959" font-family="Verdana,sans-serif" font-weight="400" font-size="41" transform="matrix(1 0 0 1 3097.5 922)">20%</text>
		</g>
		<g>
			<text fill="#595959" font-family="Verdana,sans-serif" font-weight="400" font-size="41" transform="matrix(1 0 0 1 3096.5 794)">40%</text>
		</g>
		<g>
			<text fill="#595959" font-family="Verdana,sans-serif" font-weight="400" font-size="41" transform="matrix(1 0 0 1 3097.5 666)">60%</text>
		</g>
		<g>
			<text fill="#595959" font-family="Verdana,sans-serif" font-weight="400" font-size="41" transform="matrix(1 0 0 1 3097.5 538)">80%</text>
		</g>
		<g>
			<text fill="#595959" font-family="Verdana,sans-serif" font-weight="400" font-size="41" transform="matrix(1 0 0 1 3074.5 410)">100%</text>
		</g>
		<g>
			<text fill="#595959" font-family="Verdana,sans-serif" font-weight="400" font-size="41" transform="matrix(1 0 0 1 3544.5 1321)">Week Commencing</text>
		</g>
		<g>
			<text fill="#595959" font-family="Verdana,sans-serif" font-weight="400" font-size="46" transform="matrix(6.12323e-17 -1 1 6.12323e-17 3019.73 965.25)">Requests (% of Total)</text>
		</g>
		<rect x="2918.5" y="347.5" width="1760" height="1043" stroke="#D9D9D9" stroke-width="3.4375" stroke-linejoin="round" stroke-miterlimit="10" fill="none" />
		<g>
			<path d="M3228.5 1038 3258.1666666666665 1038 3287.8333333333335 1038 3317.5 1038 3347.1666666666665 1038 3376.8333333333335 1038 3406.5 1038 3436.1666666666665 1038 3465.8333333333335 1038 3495.5 1038 3525.1666666666665 1038 3554.8333333333335 1038 3584.5 1038 3614.1666666666665 1038 3643.8333333333335 1038 3673.5 1038 3703.1666666666665 1038 3732.8333333333335 1038 3762.5 1038 3792.166666666667 1038 3821.8333333333335 1038 3851.5 1038 3881.166666666667 1038 3910.8333333333335 1038 3940.5 1038 3970.166666666667 1038 3999.8333333333335 1038 4029.5 1038 4059.166666666667 1038 4088.8333333333335 1038 4118.5 1038 4148.166666666667 1038 4177.833333333333 1038 4207.5 1038 4237.166666666667 1038 4266.833333333334 1038 4296.5 1038 4296.5 572.862060937991 4266.833333333334 572.9365512268143 4237.166666666667 572.8940388940463 4207.5 572.4651830343407 4177.833333333333 572.6325422225004 4148.166666666667 571.5082651331143 4118.5 572.2322344669446 4088.8333333333335 572.7455283998808 4059.166666666667 573.7260592446937 4029.5 574.7878423335366 3999.8333333333335 575.6290427379265 3970.166666666667 575.9687876322813 3940.5 576.8727971406818 3910.8333333333335 578.2473295586981 3881.166666666667 579.8301495425726 3851.5 581.4258071436993 3821.8333333333335 583.4353029706369 3792.166666666667 585.2297796683877 3762.5 569.3763139485983 3732.8333333333335 569.4920790789085 3703.1666666666665 568.4210223578364 3673.5 567.328661211755 3643.8333333333335 566.161104092279 3614.1666666666665 566.5630760901624 3584.5 566.9371867374394 3554.8333333333335 565.7434322908556 3525.1666666666665 565.3329344965637 3495.5 567.1306424721515 3465.8333333333335 546.6361313386333 3436.1666666666665 547.2360643741254 3406.5 547.9846296844262 3376.8333333333335 551.0672526834712 3347.1666666666665 550.9210452859504 3317.5 550.9050574683862 3287.8333333333335 550.8533354714161 3258.1666666666665 550.7560734149703 3228.5 551.2665692392751 3228.5 1038Z" fill="#e62d39" opacity="0.9" />
		</g>
		<g>
			<path d="M3228.5 551.2665692392751 3258.1666666666665 550.7560734149703 3287.8333333333335 550.8533354714161 3317.5 550.9050574683862 3347.1666666666665 550.9210452859504 3376.8333333333335 551.0672526834712 3406.5 547.9846296844262 3436.1666666666665 547.2360643741254 3465.8333333333335 546.6361313386333 3495.5 567.1306424721515 3525.1666666666665 565.3329344965637 3554.8333333333335 565.7434322908556 3584.5 566.9371867374394 3614.1666666666665 566.5630760901624 3643.8333333333335 566.161104092279 3673.5 567.328661211755 3703.1666666666665 568.4210223578364 3732.8333333333335 569.4920790789085 3762.5 569.3763139485983 3792.166666666667 585.2297796683877 3821.8333333333335 583.4353029706369 3851.5 581.4258071436993 3881.166666666667 579.8301495425726 3910.8333333333335 578.2473295586981 3940.5 576.8727971406818 3970.166666666667 575.9687876322813 3999.8333333333335 575.6290427379265 4029.5 574.7878423335366 4059.166666666667 573.7260592446937 4088.8333333333335 572.7455283998808 4118.5 572.2322344669446 4148.166666666667 571.5082651331143 4177.833333333333 572.6325422225004 4207.5 572.4651830343407 4237.166666666667 572.8940388940463 4266.833333333334 572.9365512268143 4296.5 572.862060937991 4296.5 397.99999999999994 4266.833333333334 398.00000000000006 4237.166666666667 398 4207.5 398 4177.833333333333 398 4148.166666666667 397.99999999999994 4118.5 398.0000000000001 4088.8333333333335 398 4059.166666666667 398 4029.5 398.00000000000006 3999.8333333333335 398 3970.166666666667 398 3940.5 397.99999999999994 3910.8333333333335 397.99999999999994 3881.166666666667 398.0000000000001 3851.5 398 3821.8333333333335 398 3792.166666666667 398 3762.5 398 3732.8333333333335 398.00000000000006 3703.1666666666665 398.00000000000006 3673.5 398 3643.8333333333335 398.00000000000006 3614.1666666666665 397.99999999999994 3584.5 398 3554.8333333333335 398 3525.1666666666665 397.99999999999994 3495.5 398.00000000000006 3465.8333333333335 398 3436.1666666666665 398.0000000000001 3406.5 398 3376.8333333333335 398 3347.1666666666665 398 3317.5 398 3287.8333333333335 398 3258.1666666666665 398 3228.5 398 3228.5 551.2665692392751Z" fill="#005aa6" opacity="0.9" />
		</g>
		<g>
			<rect x="4372" y="431" width="22.9995" height="23" fill="#e62d39" />
		</g>
		<g>
			<text fill="#595959" font-family="Verdana,sans-serif" font-weight="400" font-size="41" transform="matrix(1 0 0 1 4404.56 454)">Non-Crawler</text>
		</g>
		<g>
			<rect x="4372" y="508" width="22.9995" height="23" fill="#005aa6" />
		</g>
		<g>
			<text fill="#595959" font-family="Verdana,sans-serif" font-weight="400" font-size="41" transform="matrix(1 0 0 1 4404.56 531)">Crawler</text>
		</g>
	</g>
</svg>
