<svg width="1763" height="1046"
    xmlns="http://www.w3.org/2000/svg"
	xmlns:xlink="http://www.w3.org/1999/xlink" xml:space="preserve" overflow="hidden">
	<defs>
		<clipPath id="clip0">
			<rect x="2917" y="346" width="1763" height="1046"/>
		</clipPath>
	</defs>
	<g clip-path="url(#clip0)" transform="translate(-2917 -346)">
		<rect x="2918" y="347" width="1760" height="1043" fill="#FFFFFF" />
		<g>
			<path d="
			M3228.5 974.532 4296.5 974.532
			M3228.5 910.53 4296.5 910.53
			M3228.5 846.528 4296.5 846.528
			M3228.5 781.526 4296.5 781.526
			M3228.5 717.524 4296.5 717.524
			M3228.5 653.522 4296.5 653.522
			M3228.5 589.52 4296.5 589.52
			M3228.5 525.517 4296.5 525.517
			M3228.5 461.515 4296.5 461.515
			M3228.5 397.5 4296.5 397.5" stroke="#D9D9D9" stroke-width="3.4375" stroke-linejoin="round" stroke-miterlimit="10" fill="none" />
		</g>
		<g>
			<path d="M 1038.5 4296.5 1038.5" stroke="#D9D9D9" stroke-width="3.4375" stroke-linejoin="round" stroke-miterlimit="10" fill="none" fill-rule="evenodd" />
		</g>
		<g>
			<text fill="#595959" font-family="Verdana,sans-serif" font-weight="400" font-size="41" transform="matrix(6.12323e-17 -1 1 6.12323e-17 3244.5 1225)">06-Nov</text>
		</g>
		<g>
			<text fill="#595959" font-family="Verdana,sans-serif" font-weight="400" font-size="41" transform="matrix(6.12323e-17 -1 1 6.12323e-17 3313.4032258064517 1224)">20-Nov</text>
		</g>
		<g>
			<text fill="#595959" font-family="Verdana,sans-serif" font-weight="400" font-size="41" transform="matrix(6.12323e-17 -1 1 6.12323e-17 3382.3064516129034 1223)">04-Dec</text>
		</g>
		<g>
			<text fill="#595959" font-family="Verdana,sans-serif" font-weight="400" font-size="41" transform="matrix(6.12323e-17 -1 1 6.12323e-17 3451.2096774193546 1220)">18-Dec</text>
		</g>
		<g>
			<text fill="#595959" font-family="Verdana,sans-serif" font-weight="400" font-size="41" transform="matrix(6.12323e-17 -1 1 6.12323e-17 3520.1129032258063 1210)">01-Jan</text>
		</g>
		<g>
			<text fill="#595959" font-family="Verdana,sans-serif" font-weight="400" font-size="41" transform="matrix(6.12323e-17 -1 1 6.12323e-17 3588.516129032258 1207)">15-Jan</text>
		</g>
		<g>
			<text fill="#595959" font-family="Verdana,sans-serif" font-weight="400" font-size="41" transform="matrix(6.12323e-17 -1 1 6.12323e-17 3657.9193548387098 1210)">29-Jan</text>
		</g>
		<g>
			<text fill="#595959" font-family="Verdana,sans-serif" font-weight="400" font-size="41" transform="matrix(6.12323e-17 -1 1 6.12323e-17 3726.8225806451615 1214)">12-Feb</text>
		</g>
		<g>
			<text fill="#595959" font-family="Verdana,sans-serif" font-weight="400" font-size="41" transform="matrix(6.12323e-17 -1 1 6.12323e-17 3795.7258064516127 1216)">26-Feb</text>
		</g>
		<g>
			<text fill="#595959" font-family="Verdana,sans-serif" font-weight="400" font-size="41" transform="matrix(6.12323e-17 -1 1 6.12323e-17 3864.1290322580644 1221)">11-Mar</text>
		</g>
		<g>
			<text fill="#595959" font-family="Verdana,sans-serif" font-weight="400" font-size="41" transform="matrix(6.12323e-17 -1 1 6.12323e-17 3933.532258064516 1223)">25-Mar</text>
		</g>
		<g>
			<text fill="#595959" font-family="Verdana,sans-serif" font-weight="400" font-size="41" transform="matrix(6.12323e-17 -1 1 6.12323e-17 4005.935483870968 1217)">08-Apr</text>
		</g>
		<g>
			<text fill="#595959" font-family="Verdana,sans-serif" font-weight="400" font-size="41" transform="matrix(6.12323e-17 -1 1 6.12323e-17 4074.8387096774195 1216)">22-Apr</text>
		</g>
		<g>
			<text fill="#595959" font-family="Verdana,sans-serif" font-weight="400" font-size="41" transform="matrix(6.12323e-17 -1 1 6.12323e-17 4143.741935483871 1228)">06-May</text>
		</g>
		<g>
			<text fill="#595959" font-family="Verdana,sans-serif" font-weight="400" font-size="41" transform="matrix(6.12323e-17 -1 1 6.12323e-17 4212.645161290323 1228)">20-May</text>
		</g>
		<g>
			<text fill="#595959" font-family="Verdana,sans-serif" font-weight="400" font-size="41" transform="matrix(6.12323e-17 -1 1 6.12323e-17 4278.048387096775 1211)">03-Jun</text>
		</g>
		<g>
			<text fill="#595959" font-family="Verdana,sans-serif" font-weight="400" font-size="41" transform="matrix(1 0 0 1 3167.5 1050)">0</text>
		</g>
		<g>
			<text fill="#595959" font-family="Verdana,sans-serif" font-weight="400" font-size="41" transform="matrix(1 0 0 1 3140.5 922)">49</text>
		</g>
		<g>
			<text fill="#595959" font-family="Verdana,sans-serif" font-weight="400" font-size="41" transform="matrix(1 0 0 1 3140.5 794)">97</text>
		</g>
		<g>
			<text fill="#595959" font-family="Verdana,sans-serif" font-weight="400" font-size="41" transform="matrix(1 0 0 1 3117.5 666)">146</text>
		</g>
		<g>
			<text fill="#595959" font-family="Verdana,sans-serif" font-weight="400" font-size="41" transform="matrix(1 0 0 1 3117.5 538)">194</text>
		</g>
		<g>
			<text fill="#595959" font-family="Verdana,sans-serif" font-weight="400" font-size="41" transform="matrix(1 0 0 1 3116.5 410)">243</text>
		</g>
		<g>
			<text fill="#595959" font-family="Verdana,sans-serif" font-weight="400" font-size="41" transform="matrix(1 0 0 1 3544.5 1321)">Week Commencing</text>
		</g>
		<g>
			<text fill="#595959" font-family="Verdana,sans-serif" font-weight="400" font-size="46" transform="matrix(6.12323e-17 -1 1 6.12323e-17 3019.73 1024.75)">Number of Crawler Profiles</text>
		</g>
		<rect x="2918.5" y="347.5" width="1760" height="1043" stroke="#D9D9D9" stroke-width="3.4375" stroke-linejoin="round" stroke-miterlimit="10" fill="none" />
		<g>
			<path d="M3228.5 1038 3262.951612903226 1038 3297.4032258064517 1038 3331.8548387096776 1038 3366.3064516129034 1038 3400.758064516129 1038 3435.2096774193546 1038 3469.6612903225805 1038 3504.1129032258063 1038 3538.564516129032 1038 3573.016129032258 1038 3607.467741935484 1038 3641.9193548387098 1038 3676.3709677419356 1038 3710.8225806451615 1038 3745.2741935483873 1038 3779.7258064516127 1038 3814.177419354839 1038 3848.6290322580644 1038 3883.0806451612902 1038 3917.532258064516 1038 3951.983870967742 1038 3986.435483870968 1038 4020.8870967741937 1038 4055.3387096774195 1038 4089.7903225806454 1038 4124.241935483871 1038 4158.693548387097 1038 4193.145161290323 1038 4227.596774193548 1038 4262.048387096775 1038 4296.5 1038 4296.5 400.63374485596705 4262.048387096775 400.63374485596705 4227.596774193548 400.63374485596705 4193.145161290323 403.2674897119341 4158.693548387097 408.5349794238683 4124.241935483871 419.06995884773664 4089.7903225806454 424.33744855967075 4055.3387096774195 426.9711934156379 4020.8870967741937 426.9711934156379 3986.435483870968 437.5061728395061 3951.983870967742 437.5061728395061 3917.532258064516 450.6748971193416 3883.0806451612902 477.01234567901236 3848.6290322580644 482.27983539094646 3814.177419354839 487.5473251028807 3779.7258064516127 500.71604938271605 3745.2741935483873 503.3497942386831 3710.8225806451615 503.3497942386831 3676.3709677419356 505.98353909465015 3641.9193548387098 511.2510288065844 3607.467741935484 524.4197530864197 3573.016129032258 527.0534979423869 3538.564516129032 527.0534979423869 3504.1129032258063 532.320987654321 3469.6612903225805 532.320987654321 3435.2096774193546 532.320987654321 3400.758064516129 532.320987654321 3366.3064516129034 532.320987654321 3331.8548387096776 534.9547325102881 3297.4032258064517 534.9547325102881 3262.951612903226 534.9547325102881 3228.5 534.9547325102881 3228.5 1038Z" fill="#005aa6" opacity="0.9" />
		</g>
		<g>
			<path d="M3228.5 534.9547325102881 3262.951612903226 534.9547325102881 3297.4032258064517 534.9547325102881 3331.8548387096776 534.9547325102881 3366.3064516129034 532.320987654321 3400.758064516129 532.320987654321 3435.2096774193546 532.320987654321 3469.6612903225805 532.320987654321 3504.1129032258063 532.320987654321 3538.564516129032 527.0534979423869 3573.016129032258 527.0534979423869 3607.467741935484 524.4197530864197 3641.9193548387098 511.2510288065844 3676.3709677419356 505.98353909465015 3710.8225806451615 503.3497942386831 3745.2741935483873 503.3497942386831 3779.7258064516127 500.71604938271605 3814.177419354839 487.5473251028807 3848.6290322580644 482.27983539094646 3883.0806451612902 477.01234567901236 3917.532258064516 450.6748971193416 3951.983870967742 437.5061728395061 3986.435483870968 437.5061728395061 4020.8870967741937 426.9711934156379 4055.3387096774195 426.9711934156379 4089.7903225806454 424.33744855967075 4124.241935483871 419.06995884773664 4158.693548387097 408.5349794238683 4193.145161290323 403.2674897119341 4227.596774193548 400.63374485596705 4262.048387096775 400.63374485596705 4296.5 400.63374485596705 4296.5 398 4262.048387096775 398 4227.596774193548 398 4193.145161290323 400.63374485596705 4158.693548387097 405.90123456790127 4124.241935483871 416.4362139917696 4089.7903225806454 421.7037037037037 4055.3387096774195 424.33744855967086 4020.8870967741937 424.33744855967086 3986.435483870968 434.87242798353907 3951.983870967742 434.87242798353907 3917.532258064516 448.04115226337456 3883.0806451612902 474.3786008230453 3848.6290322580644 479.6460905349794 3814.177419354839 484.9135802469136 3779.7258064516127 498.082304526749 3745.2741935483873 500.71604938271605 3710.8225806451615 500.71604938271605 3676.3709677419356 503.3497942386831 3641.9193548387098 508.6172839506173 3607.467741935484 521.7860082304527 3573.016129032258 524.4197530864199 3538.564516129032 524.4197530864199 3504.1129032258063 529.687242798354 3469.6612903225805 529.687242798354 3435.2096774193546 529.687242798354 3400.758064516129 529.687242798354 3366.3064516129034 529.687242798354 3331.8548387096776 532.320987654321 3297.4032258064517 532.320987654321 3262.951612903226 532.320987654321 3228.5 532.320987654321 3228.5 534.9547325102881Z" fill="#e62d39" opacity="0.9" />
		</g>
		<g>
			<rect x="4372" y="431" width="22.9995" height="23" fill="#005aa6" />
		</g>
		<g>
			<text fill="#595959" font-family="Verdana,sans-serif" font-weight="400" font-size="41" transform="matrix(1 0 0 1 4404.56 454)">Crawler</text>
		</g>
		<g>
			<rect x="4372" y="508" width="22.9995" height="23" fill="#e62d39" />
		</g>
		<g>
			<text fill="#595959" font-family="Verdana,sans-serif" font-weight="400" font-size="41" transform="matrix(1 0 0 1 4404.56 531)">Non-Crawler</text>
		</g>
	</g>
</svg>
