<svg width="1763" height="1046"
    xmlns="http://www.w3.org/2000/svg"
	xmlns:xlink="http://www.w3.org/1999/xlink" xml:space="preserve" overflow="hidden">
	<defs>
		<clipPath id="clip0">
			<rect x="2917" y="346" width="1763" height="1046"/>
		</clipPath>
	</defs>
	<g clip-path="url(#clip0)" transform="translate(-2917 -346)">
		<rect x="2918" y="347" width="1760" height="1043" fill="#FFFFFF" />
		<g>
			<path d="
			M3228.5 974.532 4296.5 974.532
			M3228.5 910.53 4296.5 910.53
			M3228.5 846.528 4296.5 846.528
			M3228.5 781.526 4296.5 781.526
			M3228.5 717.524 4296.5 717.524
			M3228.5 653.522 4296.5 653.522
			M3228.5 589.52 4296.5 589.52
			M3228.5 525.517 4296.5 525.517
			M3228.5 461.515 4296.5 461.515
			M3228.5 397.5 4296.5 397.5" stroke="#D9D9D9" stroke-width="3.4375" stroke-linejoin="round" stroke-miterlimit="10" fill="none" />
		</g>
		<g>
			<path d="M 1038.5 4296.5 1038.5" stroke="#D9D9D9" stroke-width="3.4375" stroke-linejoin="round" stroke-miterlimit="10" fill="none" fill-rule="evenodd" />
		</g>
		<g>
			<text fill="#595959" font-family="Verdana,Open Sans,DejaVu Sans,sans-serif" font-weight="400" font-size="41" transform="matrix(6.12323e-17 -1 1 6.12323e-17 3248.269287109375 1204.42333984375)">23-Sep</text>
		</g>
		<g>
			<text fill="#595959" font-family="Verdana,Open Sans,DejaVu Sans,sans-serif" font-weight="400" font-size="41" transform="matrix(6.12323e-17 -1 1 6.12323e-17 3330.748370735013 1201.1401290893555)">21-Oct</text>
		</g>
		<g>
			<text fill="#595959" font-family="Verdana,Open Sans,DejaVu Sans,sans-serif" font-weight="400" font-size="41" transform="matrix(6.12323e-17 -1 1 6.12323e-17 3417.9120246731504 1209.70849609375)">18-Nov</text>
		</g>
		<g>
			<text fill="#595959" font-family="Verdana,Open Sans,DejaVu Sans,sans-serif" font-weight="400" font-size="41" transform="matrix(6.12323e-17 -1 1 6.12323e-17 3505.0956981425384 1207.1259765625)">23-Dec</text>
		</g>
		<g>
			<text fill="#595959" font-family="Verdana,Open Sans,DejaVu Sans,sans-serif" font-weight="400" font-size="41" transform="matrix(6.12323e-17 -1 1 6.12323e-17 3595.952955596301 1191.6909103393555)">20-Jan</text>
		</g>
		<g>
			<text fill="#595959" font-family="Verdana,Open Sans,DejaVu Sans,sans-serif" font-weight="400" font-size="41" transform="matrix(6.12323e-17 -1 1 6.12323e-17 3680.193757971939 1201.3203125)">17-Feb</text>
		</g>
		<g>
			<text fill="#595959" font-family="Verdana,Open Sans,DejaVu Sans,sans-serif" font-weight="400" font-size="41" transform="matrix(6.12323e-17 -1 1 6.12323e-17 3766.4365134725767 1210.2890625)">17-Mar</text>
		</g>
		<g>
			<text fill="#595959" font-family="Verdana,Open Sans,DejaVu Sans,sans-serif" font-weight="400" font-size="41" transform="matrix(6.12323e-17 -1 1 6.12323e-17 3858.424874441964 1201.5405197143555)">14-Apr</text>
		</g>
		<g>
			<text fill="#595959" font-family="Verdana,Open Sans,DejaVu Sans,sans-serif" font-weight="400" font-size="41" transform="matrix(6.12323e-17 -1 1 6.12323e-17 3945.738674864477 1214.75341796875)">12-May</text>
		</g>
		<g>
			<text fill="#595959" font-family="Verdana,Open Sans,DejaVu Sans,sans-serif" font-weight="400" font-size="41" transform="matrix(6.12323e-17 -1 1 6.12323e-17 4031.8513034119896 1192.2914962768555)">16-Jun</text>
		</g>
		<g>
			<text fill="#595959" font-family="Verdana,Open Sans,DejaVu Sans,sans-serif" font-weight="400" font-size="41" transform="matrix(6.12323e-17 -1 1 6.12323e-17 4119.765689772003 1177.2768478393555)">14-Jul</text>
		</g>
		<g>
			<text fill="#595959" font-family="Verdana,Open Sans,DejaVu Sans,sans-serif" font-weight="400" font-size="41" transform="matrix(6.12323e-17 -1 1 6.12323e-17 4207.1395487882655 1206.90576171875)">11-Aug</text>
		</g>
		<g>
			<text fill="#595959" font-family="Verdana,Open Sans,DejaVu Sans,sans-serif" font-weight="400" font-size="41" transform="matrix(6.12323e-17 -1 1 6.12323e-17 4294.4933882732785 1204.38330078125)">08-Sep</text>
		</g>
		<g>
			<text fill="#595959" font-family="Verdana,Open Sans,DejaVu Sans,sans-serif" font-weight="400" font-size="41" transform="matrix(1 0 0 1 3169.14111328125 1050)">0</text>
		</g>
		<g>
			<text fill="#595959" font-family="Verdana,Open Sans,DejaVu Sans,sans-serif" font-weight="400" font-size="41" transform="matrix(1 0 0 1 3145.95849609375 922)">66</text>
		</g>
		<g>
			<text fill="#595959" font-family="Verdana,Open Sans,DejaVu Sans,sans-serif" font-weight="400" font-size="41" transform="matrix(1 0 0 1 3124.13720703125 794)">132</text>
		</g>
		<g>
			<text fill="#595959" font-family="Verdana,Open Sans,DejaVu Sans,sans-serif" font-weight="400" font-size="41" transform="matrix(1 0 0 1 3124.13720703125 666)">199</text>
		</g>
		<g>
			<text fill="#595959" font-family="Verdana,Open Sans,DejaVu Sans,sans-serif" font-weight="400" font-size="41" transform="matrix(1 0 0 1 3122.53564453125 538)">265</text>
		</g>
		<g>
			<text fill="#595959" font-family="Verdana,Open Sans,DejaVu Sans,sans-serif" font-weight="400" font-size="41" transform="matrix(1 0 0 1 3129.1821327209473 410)">331</text>
		</g>
		<g>
			<text fill="#595959" font-family="Verdana,Open Sans,DejaVu Sans,sans-serif" font-weight="400" font-size="41" transform="matrix(1 0 0 1 3556.97119140625 1321)">Week Commencing</text>
		</g>
		<g>
			<text fill="#595959" font-family="Verdana,Open Sans,DejaVu Sans,sans-serif" font-weight="400" font-size="46" transform="matrix(6.12323e-17 -1 1 6.12323e-17 3019.73 1005.4858093261719)">Number of Crawler Profiles</text>
		</g>
		<rect x="2918.5" y="347.5" width="1760" height="1043" stroke="#D9D9D9" stroke-width="3.4375" stroke-linejoin="round" stroke-miterlimit="10" fill="none" />
		<g>
			<path d="M3228.5 1038 3250.295918367347 1038 3272.091836734694 1038 3293.887755102041 1038 3315.683673469388 1038 3337.4795918367345 1038 3359.2755102040815 1038 3381.0714285714284 1038 3402.8673469387754 1038 3424.6632653061224 1038 3446.4591836734694 1038 3468.2551020408164 1038 3490.0510204081634 1038 3511.8469387755104 1038 3533.6428571428573 1038 3555.4387755102043 1038 3577.234693877551 1038 3599.030612244898 1038 3620.826530612245 1038 3642.622448979592 1038 3664.418367346939 1038 3686.214285714286 1038 3708.0102040816328 1038 3729.8061224489797 1038 3751.6020408163267 1038 3773.3979591836733 1038 3795.1938775510203 1038 3816.9897959183672 1038 3838.785714285714 1038 3860.581632653061 1038 3882.377551020408 1038 3904.173469387755 1038 3925.969387755102 1038 3947.765306122449 1038 3969.5612244897957 1038 3991.357142857143 1038 4013.1530612244896 1038 4034.9489795918366 1038 4056.7448979591836 1038 4078.5408163265306 1038 4100.336734693878 1038 4122.132653061224 1038 4143.928571428572 1038 4165.724489795918 1038 4187.5204081632655 1038 4209.316326530612 1038 4231.1122448979595 1038 4252.908163265306 1038 4274.7040816326535 1038 4296.5 1038 4296.5 399.93353474320236 4274.7040816326535 399.93353474320236 4252.908163265306 399.93353474320236 4231.1122448979595 399.93353474320236 4209.316326530612 399.93353474320236 4187.5204081632655 399.93353474320236 4165.724489795918 399.93353474320236 4143.928571428572 399.93353474320236 4122.132653061224 401.86706948640483 4100.336734693878 401.86706948640483 4078.5408163265306 403.8006042296072 4056.7448979591836 403.8006042296072 4034.9489795918366 413.4682779456193 4013.1530612244896 415.4018126888217 3991.357142857143 415.4018126888217 3969.5612244897957 419.2688821752265 3947.765306122449 421.202416918429 3925.969387755102 427.00302114803617 3904.173469387755 428.93655589123864 3882.377551020408 430.870090634441 3860.581632653061 432.80362537764347 3838.785714285714 432.80362537764347 3816.9897959183672 432.80362537764347 3795.1938775510203 434.73716012084594 3773.3979591836733 434.73716012084594 3751.6020408163267 434.73716012084594 3729.8061224489797 436.6706948640483 3708.0102040816328 436.6706948640483 3686.214285714286 438.6042296072508 3664.418367346939 438.6042296072508 3642.622448979592 440.53776435045313 3620.826530612245 442.4712990936556 3599.030612244898 444.40483383685796 3577.234693877551 444.40483383685796 3555.4387755102043 448.2719033232628 3533.6428571428573 450.20543806646526 3511.8469387755104 450.20543806646526 3490.0510204081634 450.20543806646526 3468.2551020408164 454.0725075528701 3446.4591836734694 456.00604229607245 3424.6632653061224 461.80664652567975 3402.8673469387754 469.5407854984894 3381.0714285714284 481.1419939577039 3359.2755102040815 486.9425981873111 3337.4795918367345 486.9425981873111 3315.683673469388 485.00906344410873 3293.887755102041 488.87613293051356 3272.091836734694 494.67673716012087 3250.295918367347 502.4108761329305 3228.5 502.4108761329305 3228.5 1038Z" fill="#005aa6" opacity="0.9" />
		</g>
		<g>
			<path d="M3228.5 502.4108761329305 3250.295918367347 502.4108761329305 3272.091836734694 494.67673716012087 3293.887755102041 488.87613293051356 3315.683673469388 485.00906344410873 3337.4795918367345 486.9425981873111 3359.2755102040815 486.9425981873111 3381.0714285714284 481.1419939577039 3402.8673469387754 469.5407854984894 3424.6632653061224 461.80664652567975 3446.4591836734694 456.00604229607245 3468.2551020408164 454.0725075528701 3490.0510204081634 450.20543806646526 3511.8469387755104 450.20543806646526 3533.6428571428573 450.20543806646526 3555.4387755102043 448.2719033232628 3577.234693877551 444.40483383685796 3599.030612244898 444.40483383685796 3620.826530612245 442.4712990936556 3642.622448979592 440.53776435045313 3664.418367346939 438.6042296072508 3686.214285714286 438.6042296072508 3708.0102040816328 436.6706948640483 3729.8061224489797 436.6706948640483 3751.6020408163267 434.73716012084594 3773.3979591836733 434.73716012084594 3795.1938775510203 434.73716012084594 3816.9897959183672 432.80362537764347 3838.785714285714 432.80362537764347 3860.581632653061 432.80362537764347 3882.377551020408 430.870090634441 3904.173469387755 428.93655589123864 3925.969387755102 427.00302114803617 3947.765306122449 421.202416918429 3969.5612244897957 419.2688821752265 3991.357142857143 415.4018126888217 4013.1530612244896 415.4018126888217 4034.9489795918366 413.4682779456193 4056.7448979591836 403.8006042296072 4078.5408163265306 403.8006042296072 4100.336734693878 401.86706948640483 4122.132653061224 401.86706948640483 4143.928571428572 399.93353474320236 4165.724489795918 399.93353474320236 4187.5204081632655 399.93353474320236 4209.316326530612 399.93353474320236 4231.1122448979595 399.93353474320236 4252.908163265306 399.93353474320236 4274.7040816326535 399.93353474320236 4296.5 399.93353474320236 4296.5 397.99999999999994 4274.7040816326535 397.99999999999994 4252.908163265306 397.99999999999994 4231.1122448979595 397.99999999999994 4209.316326530612 397.99999999999994 4187.5204081632655 397.99999999999994 4165.724489795918 397.99999999999994 4143.928571428572 397.99999999999994 4122.132653061224 399.9335347432024 4100.336734693878 399.9335347432024 4078.5408163265306 401.8670694864048 4056.7448979591836 401.8670694864048 4034.9489795918366 411.5347432024169 4013.1530612244896 413.46827794561926 3991.357142857143 413.46827794561926 3969.5612244897957 417.3353474320241 3947.765306122449 419.26888217522657 3925.969387755102 425.06948640483375 3904.173469387755 427.0030211480362 3882.377551020408 428.9365558912386 3860.581632653061 430.87009063444106 3838.785714285714 430.87009063444106 3816.9897959183672 430.87009063444106 3795.1938775510203 432.8036253776435 3773.3979591836733 432.8036253776435 3751.6020408163267 432.8036253776435 3729.8061224489797 434.7371601208459 3708.0102040816328 434.7371601208459 3686.214285714286 436.67069486404836 3664.418367346939 436.67069486404836 3642.622448979592 438.6042296072507 3620.826530612245 440.5377643504532 3599.030612244898 442.47129909365555 3577.234693877551 442.47129909365555 3555.4387755102043 446.3383685800604 3533.6428571428573 448.27190332326285 3511.8469387755104 448.27190332326285 3490.0510204081634 448.27190332326285 3468.2551020408164 452.1389728096677 3446.4591836734694 454.07250755287004 3424.6632653061224 459.87311178247734 3402.8673469387754 467.607250755287 3381.0714285714284 479.2084592145015 3359.2755102040815 485.0090634441087 3337.4795918367345 485.0090634441087 3315.683673469388 483.0755287009063 3293.887755102041 486.94259818731115 3272.091836734694 492.74320241691845 3250.295918367347 500.4773413897281 3228.5 500.4773413897281 3228.5 502.4108761329305Z" fill="#e62d39" opacity="0.9" />
		</g>
		<g>
			<rect x="4372" y="431" width="22.9995" height="23" fill="#005aa6" />
		</g>
		<g>
			<text fill="#595959" font-family="Verdana,Open Sans,DejaVu Sans,sans-serif" font-weight="400" font-size="41" transform="matrix(1 0 0 1 4404.56 454)">Crawler</text>
		</g>
		<g>
			<rect x="4372" y="508" width="22.9995" height="23" fill="#e62d39" />
		</g>
		<g>
			<text fill="#595959" font-family="Verdana,Open Sans,DejaVu Sans,sans-serif" font-weight="400" font-size="41" transform="matrix(1 0 0 1 4404.56 531)">Non-Crawler</text>
		</g>
	</g>
</svg>
