<svg width="1763" height="1046"
    xmlns="http://www.w3.org/2000/svg"
	xmlns:xlink="http://www.w3.org/1999/xlink" xml:space="preserve" overflow="hidden">
	<defs>
		<clipPath id="clip0">
			<rect x="2917" y="346" width="1763" height="1046"/>
		</clipPath>
	</defs>
	<g clip-path="url(#clip0)" transform="translate(-2917 -346)">
		<rect x="2918" y="347" width="1760" height="1043" fill="#FFFFFF" />
		<g>
			<path d="
			M3228.5 974.532 4296.5 974.532
			M3228.5 910.53 4296.5 910.53
			M3228.5 846.528 4296.5 846.528
			M3228.5 781.526 4296.5 781.526
			M3228.5 717.524 4296.5 717.524
			M3228.5 653.522 4296.5 653.522
			M3228.5 589.52 4296.5 589.52
			M3228.5 525.517 4296.5 525.517
			M3228.5 461.515 4296.5 461.515
			M3228.5 397.5 4296.5 397.5" stroke="#D9D9D9" stroke-width="3.4375" stroke-linejoin="round" stroke-miterlimit="10" fill="none" />
		</g>
		<g>
			<path d="M 1038.5 4296.5 1038.5" stroke="#D9D9D9" stroke-width="3.4375" stroke-linejoin="round" stroke-miterlimit="10" fill="none" fill-rule="evenodd" />
		</g>
		<g>
			<text fill="#595959" font-family="Verdana,Open Sans,DejaVu Sans,sans-serif" font-weight="400" font-size="41" transform="matrix(6.12323e-17 -1 1 6.12323e-17 3243.564697265625 1207.0859375)">09-Dec</text>
		</g>
		<g>
			<text fill="#595959" font-family="Verdana,Open Sans,DejaVu Sans,sans-serif" font-weight="400" font-size="41" transform="matrix(6.12323e-17 -1 1 6.12323e-17 3332.65826171875 1191.6508712768555)">06-Jan</text>
		</g>
		<g>
			<text fill="#595959" font-family="Verdana,Open Sans,DejaVu Sans,sans-serif" font-weight="400" font-size="41" transform="matrix(6.12323e-17 -1 1 6.12323e-17 3415.155390625 1203.0419921875)">03-Feb</text>
		</g>
		<g>
			<text fill="#595959" font-family="Verdana,Open Sans,DejaVu Sans,sans-serif" font-weight="400" font-size="41" transform="matrix(6.12323e-17 -1 1 6.12323e-17 3499.884697265625 1212.0107421875)">03-Mar</text>
		</g>
		<g>
			<text fill="#595959" font-family="Verdana,Open Sans,DejaVu Sans,sans-serif" font-weight="400" font-size="41" transform="matrix(6.12323e-17 -1 1 6.12323e-17 3585.304677734375 1212.1708984375)">31-Mar</text>
		</g>
		<g>
			<text fill="#595959" font-family="Verdana,Open Sans,DejaVu Sans,sans-serif" font-weight="400" font-size="41" transform="matrix(6.12323e-17 -1 1 6.12323e-17 3675.469287109375 1203.3022384643555)">28-Apr</text>
		</g>
		<g>
			<text fill="#595959" font-family="Verdana,Open Sans,DejaVu Sans,sans-serif" font-weight="400" font-size="41" transform="matrix(6.12323e-17 -1 1 6.12323e-17 3760.909287109375 1216.51513671875)">26-May</text>
		</g>
		<g>
			<text fill="#595959" font-family="Verdana,Open Sans,DejaVu Sans,sans-serif" font-weight="400" font-size="41" transform="matrix(6.12323e-17 -1 1 6.12323e-17 3845.29826171875 1194.1733322143555)">30-Jun</text>
		</g>
		<g>
			<text fill="#595959" font-family="Verdana,Open Sans,DejaVu Sans,sans-serif" font-weight="400" font-size="41" transform="matrix(6.12323e-17 -1 1 6.12323e-17 3931.448955078125 1179.0385665893555)">28-Jul</text>
		</g>
		<g>
			<text fill="#595959" font-family="Verdana,Open Sans,DejaVu Sans,sans-serif" font-weight="400" font-size="41" transform="matrix(6.12323e-17 -1 1 6.12323e-17 4017.229287109375 1208.66748046875)">25-Aug</text>
		</g>
		<g>
			<text fill="#595959" font-family="Verdana,Open Sans,DejaVu Sans,sans-serif" font-weight="400" font-size="41" transform="matrix(6.12323e-17 -1 1 6.12323e-17 4102.669287109375 1204.42333984375)">22-Sep</text>
		</g>
		<g>
			<text fill="#595959" font-family="Verdana,Open Sans,DejaVu Sans,sans-serif" font-weight="400" font-size="41" transform="matrix(6.12323e-17 -1 1 6.12323e-17 4183.404697265625 1201.1401290893555)">20-Oct</text>
		</g>
		<g>
			<text fill="#595959" font-family="Verdana,Open Sans,DejaVu Sans,sans-serif" font-weight="400" font-size="41" transform="matrix(6.12323e-17 -1 1 6.12323e-17 4268.61447265625 1209.70849609375)">17-Nov</text>
		</g>
		<g>
			<text fill="#595959" font-family="Verdana,Open Sans,DejaVu Sans,sans-serif" font-weight="400" font-size="41" transform="matrix(1 0 0 1 3169.14111328125 1050)">0</text>
		</g>
		<g>
			<text fill="#595959" font-family="Verdana,Open Sans,DejaVu Sans,sans-serif" font-weight="400" font-size="41" transform="matrix(1 0 0 1 3146.07861328125 922)">68</text>
		</g>
		<g>
			<text fill="#595959" font-family="Verdana,Open Sans,DejaVu Sans,sans-serif" font-weight="400" font-size="41" transform="matrix(1 0 0 1 3123.93701171875 794)">136</text>
		</g>
		<g>
			<text fill="#595959" font-family="Verdana,Open Sans,DejaVu Sans,sans-serif" font-weight="400" font-size="41" transform="matrix(1 0 0 1 3122.57568359375 666)">203</text>
		</g>
		<g>
			<text fill="#595959" font-family="Verdana,Open Sans,DejaVu Sans,sans-serif" font-weight="400" font-size="41" transform="matrix(1 0 0 1 3129.3022499084473 538)">271</text>
		</g>
		<g>
			<text fill="#595959" font-family="Verdana,Open Sans,DejaVu Sans,sans-serif" font-weight="400" font-size="41" transform="matrix(1 0 0 1 3122.25537109375 410)">339</text>
		</g>
		<g>
			<text fill="#595959" font-family="Verdana,Open Sans,DejaVu Sans,sans-serif" font-weight="400" font-size="41" transform="matrix(1 0 0 1 3556.97119140625 1321)">Week Commencing</text>
		</g>
		<g>
			<text fill="#595959" font-family="Verdana,Open Sans,DejaVu Sans,sans-serif" font-weight="400" font-size="46" transform="matrix(6.12323e-17 -1 1 6.12323e-17 3019.73 1005.4858093261719)">Number of Crawler Profiles</text>
		</g>
		<rect x="2918.5" y="347.5" width="1760" height="1043" stroke="#D9D9D9" stroke-width="3.4375" stroke-linejoin="round" stroke-miterlimit="10" fill="none" />
		<g>
			<path d="M3228.5 1038 3249.86 1038 3271.22 1038 3292.58 1038 3313.94 1038 3335.3 1038 3356.66 1038 3378.02 1038 3399.38 1038 3420.74 1038 3442.1 1038 3463.46 1038 3484.82 1038 3506.18 1038 3527.54 1038 3548.9 1038 3570.26 1038 3591.62 1038 3612.98 1038 3634.34 1038 3655.7 1038 3677.06 1038 3698.42 1038 3719.7799999999997 1038 3741.14 1038 3762.5 1038 3783.86 1038 3805.2200000000003 1038 3826.58 1038 3847.94 1038 3869.3 1038 3890.66 1038 3912.02 1038 3933.38 1038 3954.74 1038 3976.1 1038 3997.46 1038 4018.8199999999997 1038 4040.18 1038 4061.54 1038 4082.9 1038 4104.26 1038 4125.62 1038 4146.98 1038 4168.34 1038 4189.7 1038 4211.0599999999995 1038 4232.42 1038 4253.78 1038 4275.139999999999 1038 4296.5 1038 4296.5 399.8879056047198 4275.139999999999 399.8879056047198 4253.78 399.8879056047198 4232.42 401.77581120943955 4211.0599999999995 405.5516224188791 4189.7 405.5516224188791 4168.34 405.5516224188791 4146.98 407.4395280235989 4125.62 407.4395280235989 4104.26 407.4395280235989 4082.9 414.9911504424779 4061.54 414.9911504424779 4040.18 414.9911504424779 4018.8199999999997 414.9911504424779 3997.46 414.9911504424779 3976.1 414.9911504424779 3954.74 414.9911504424779 3933.38 414.9911504424779 3912.02 414.9911504424779 3890.66 416.87905604719765 3869.3 416.87905604719765 3847.94 418.7669616519174 3826.58 418.7669616519174 3805.2200000000003 428.2064896755162 3783.86 430.094395280236 3762.5 430.094395280236 3741.14 433.8702064896755 3719.7799999999997 435.7581120943953 3698.42 441.42182890855463 3677.06 443.3097345132743 3655.7 445.19764011799407 3634.34 447.08554572271385 3612.98 447.08554572271385 3591.62 447.08554572271385 3570.26 448.9734513274336 3548.9 448.9734513274336 3527.54 448.9734513274336 3506.18 450.8613569321534 3484.82 450.8613569321534 3463.46 452.7492625368732 3442.1 452.7492625368732 3420.74 454.63716814159295 3399.38 456.5250737463127 3378.02 458.4129793510325 3356.66 458.4129793510325 3335.3 462.18879056047194 3313.94 464.0766961651917 3292.58 464.0766961651917 3271.22 464.0766961651917 3249.86 467.8525073746313 3228.5 469.74041297935105 3228.5 1038Z" fill="#005aa6" opacity="0.9" />
		</g>
		<g>
			<path d="M3228.5 469.74041297935105 3249.86 467.8525073746313 3271.22 464.0766961651917 3292.58 464.0766961651917 3313.94 464.0766961651917 3335.3 462.18879056047194 3356.66 458.4129793510325 3378.02 458.4129793510325 3399.38 456.5250737463127 3420.74 454.63716814159295 3442.1 452.7492625368732 3463.46 452.7492625368732 3484.82 450.8613569321534 3506.18 450.8613569321534 3527.54 448.9734513274336 3548.9 448.9734513274336 3570.26 448.9734513274336 3591.62 447.08554572271385 3612.98 447.08554572271385 3634.34 447.08554572271385 3655.7 445.19764011799407 3677.06 443.3097345132743 3698.42 441.42182890855463 3719.7799999999997 435.7581120943953 3741.14 433.8702064896755 3762.5 430.094395280236 3783.86 430.094395280236 3805.2200000000003 428.2064896755162 3826.58 418.7669616519174 3847.94 418.7669616519174 3869.3 416.87905604719765 3890.66 416.87905604719765 3912.02 414.9911504424779 3933.38 414.9911504424779 3954.74 414.9911504424779 3976.1 414.9911504424779 3997.46 414.9911504424779 4018.8199999999997 414.9911504424779 4040.18 414.9911504424779 4061.54 414.9911504424779 4082.9 414.9911504424779 4104.26 407.4395280235989 4125.62 407.4395280235989 4146.98 407.4395280235989 4168.34 405.5516224188791 4189.7 405.5516224188791 4211.0599999999995 405.5516224188791 4232.42 401.77581120943955 4253.78 399.8879056047198 4275.139999999999 399.8879056047198 4296.5 399.8879056047198 4296.5 398 4275.139999999999 398 4253.78 398 4232.42 399.8879056047198 4211.0599999999995 403.66371681415933 4189.7 403.66371681415933 4168.34 403.66371681415933 4146.98 405.5516224188791 4125.62 405.5516224188791 4104.26 405.5516224188791 4082.9 413.1032448377581 4061.54 413.1032448377581 4040.18 413.1032448377581 4018.8199999999997 413.1032448377581 3997.46 413.1032448377581 3976.1 413.1032448377581 3954.74 413.1032448377581 3933.38 413.1032448377581 3912.02 413.1032448377581 3890.66 414.9911504424779 3869.3 414.9911504424779 3847.94 416.87905604719765 3826.58 416.87905604719765 3805.2200000000003 426.3185840707964 3783.86 428.2064896755162 3762.5 428.2064896755162 3741.14 431.98230088495575 3719.7799999999997 433.8702064896755 3698.42 439.53392330383485 3677.06 441.4218289085545 3655.7 443.3097345132743 3634.34 445.19764011799407 3612.98 445.19764011799407 3591.62 445.19764011799407 3570.26 447.08554572271385 3548.9 447.08554572271385 3527.54 447.08554572271385 3506.18 448.9734513274336 3484.82 448.9734513274336 3463.46 450.8613569321534 3442.1 450.8613569321534 3420.74 452.7492625368732 3399.38 454.63716814159295 3378.02 456.5250737463127 3356.66 456.5250737463127 3335.3 460.30088495575217 3313.94 462.18879056047194 3292.58 462.18879056047194 3271.22 462.18879056047194 3249.86 465.9646017699115 3228.5 467.8525073746313 3228.5 469.74041297935105Z" fill="#e62d39" opacity="0.9" />
		</g>
		<g>
			<rect x="4372" y="431" width="22.9995" height="23" fill="#005aa6" />
		</g>
		<g>
			<text fill="#595959" font-family="Verdana,Open Sans,DejaVu Sans,sans-serif" font-weight="400" font-size="41" transform="matrix(1 0 0 1 4404.56 454)">Crawler</text>
		</g>
		<g>
			<rect x="4372" y="508" width="22.9995" height="23" fill="#e62d39" />
		</g>
		<g>
			<text fill="#595959" font-family="Verdana,Open Sans,DejaVu Sans,sans-serif" font-weight="400" font-size="41" transform="matrix(1 0 0 1 4404.56 531)">Non-Crawler</text>
		</g>
	</g>
</svg>
