<svg width="1763" height="1046"
    xmlns="http://www.w3.org/2000/svg"
	xmlns:xlink="http://www.w3.org/1999/xlink" xml:space="preserve" overflow="hidden">
	<defs>
		<clipPath id="clip0">
			<rect x="2917" y="346" width="1763" height="1046"/>
		</clipPath>
	</defs>
	<g clip-path="url(#clip0)" transform="translate(-2917 -346)">
		<rect x="2918" y="347" width="1760" height="1043" fill="#FFFFFF" />
		<g>
			<path d="
			M3228.5 974.532 4296.5 974.532
			M3228.5 910.53 4296.5 910.53
			M3228.5 846.528 4296.5 846.528
			M3228.5 781.526 4296.5 781.526
			M3228.5 717.524 4296.5 717.524
			M3228.5 653.522 4296.5 653.522
			M3228.5 589.52 4296.5 589.52
			M3228.5 525.517 4296.5 525.517
			M3228.5 461.515 4296.5 461.515
			M3228.5 397.5 4296.5 397.5" stroke="#D9D9D9" stroke-width="3.4375" stroke-linejoin="round" stroke-miterlimit="10" fill="none" />
		</g>
		<g>
			<path d="M 1038.5 4296.5 1038.5" stroke="#D9D9D9" stroke-width="3.4375" stroke-linejoin="round" stroke-miterlimit="10" fill="none" fill-rule="evenodd" />
		</g>
		<g>
			<text fill="#595959" font-family="Verdana,Open Sans,DejaVu Sans,sans-serif" font-weight="400" font-size="41" transform="matrix(6.12323e-17 -1 1 6.12323e-17 3247.21826171875 1194.1733322143555)">30-Jun</text>
		</g>
		<g>
			<text fill="#595959" font-family="Verdana,Open Sans,DejaVu Sans,sans-serif" font-weight="400" font-size="41" transform="matrix(6.12323e-17 -1 1 6.12323e-17 3331.693660960478 1179.0385665893555)">28-Jul</text>
		</g>
		<g>
			<text fill="#595959" font-family="Verdana,Open Sans,DejaVu Sans,sans-serif" font-weight="400" font-size="41" transform="matrix(6.12323e-17 -1 1 6.12323e-17 3415.798698874081 1208.66748046875)">25-Aug</text>
		</g>
		<g>
			<text fill="#595959" font-family="Verdana,Open Sans,DejaVu Sans,sans-serif" font-weight="400" font-size="41" transform="matrix(6.12323e-17 -1 1 6.12323e-17 3499.563404756434 1204.42333984375)">22-Sep</text>
		</g>
		<g>
			<text fill="#595959" font-family="Verdana,Open Sans,DejaVu Sans,sans-serif" font-weight="400" font-size="41" transform="matrix(6.12323e-17 -1 1 6.12323e-17 3578.6235207950367 1201.1401290893555)">20-Oct</text>
		</g>
		<g>
			<text fill="#595959" font-family="Verdana,Open Sans,DejaVu Sans,sans-serif" font-weight="400" font-size="41" transform="matrix(6.12323e-17 -1 1 6.12323e-17 3662.158002068015 1209.70849609375)">17-Nov</text>
		</g>
		<g>
			<text fill="#595959" font-family="Verdana,Open Sans,DejaVu Sans,sans-serif" font-weight="400" font-size="41" transform="matrix(6.12323e-17 -1 1 6.12323e-17 3745.9227079503676 1205.3642578125)">15-Dec</text>
		</g>
		<g>
			<text fill="#595959" font-family="Verdana,Open Sans,DejaVu Sans,sans-serif" font-weight="400" font-size="41" transform="matrix(6.12323e-17 -1 1 6.12323e-17 3833.5511833639707 1189.9291915893555)">12-Jan</text>
		</g>
		<g>
			<text fill="#595959" font-family="Verdana,Open Sans,DejaVu Sans,sans-serif" font-weight="400" font-size="41" transform="matrix(6.12323e-17 -1 1 6.12323e-17 3914.3930376838234 1203.0419921875)">09-Feb</text>
		</g>
		<g>
			<text fill="#595959" font-family="Verdana,Open Sans,DejaVu Sans,sans-serif" font-weight="400" font-size="41" transform="matrix(6.12323e-17 -1 1 6.12323e-17 3997.4470502068016 1212.0107421875)">09-Mar</text>
		</g>
		<g>
			<text fill="#595959" font-family="Verdana,Open Sans,DejaVu Sans,sans-serif" font-weight="400" font-size="41" transform="matrix(6.12323e-17 -1 1 6.12323e-17 4085.9363654641543 1203.2621994018555)">06-Apr</text>
		</g>
		<g>
			<text fill="#595959" font-family="Verdana,Open Sans,DejaVu Sans,sans-serif" font-weight="400" font-size="41" transform="matrix(6.12323e-17 -1 1 6.12323e-17 4169.701071346507 1216.47509765625)">04-May</text>
		</g>
		<g>
			<text fill="#595959" font-family="Verdana,Open Sans,DejaVu Sans,sans-serif" font-weight="400" font-size="41" transform="matrix(6.12323e-17 -1 1 6.12323e-17 4252.394732306985 1194.0131759643555)">01-Jun</text>
		</g>
		<g>
			<text fill="#595959" font-family="Verdana,Open Sans,DejaVu Sans,sans-serif" font-weight="400" font-size="41" transform="matrix(1 0 0 1 3135.4482421875 1050)">0%</text>
		</g>
		<g>
			<text fill="#595959" font-family="Verdana,Open Sans,DejaVu Sans,sans-serif" font-weight="400" font-size="41" transform="matrix(1 0 0 1 3111.96533203125 922)">20%</text>
		</g>
		<g>
			<text fill="#595959" font-family="Verdana,Open Sans,DejaVu Sans,sans-serif" font-weight="400" font-size="41" transform="matrix(1 0 0 1 3110.82421875 794)">40%</text>
		</g>
		<g>
			<text fill="#595959" font-family="Verdana,Open Sans,DejaVu Sans,sans-serif" font-weight="400" font-size="41" transform="matrix(1 0 0 1 3112.3056640625 666)">60%</text>
		</g>
		<g>
			<text fill="#595959" font-family="Verdana,Open Sans,DejaVu Sans,sans-serif" font-weight="400" font-size="41" transform="matrix(1 0 0 1 3112.04541015625 538)">80%</text>
		</g>
		<g>
			<text fill="#595959" font-family="Verdana,Open Sans,DejaVu Sans,sans-serif" font-weight="400" font-size="41" transform="matrix(1 0 0 1 3090.2841796875 410)">100%</text>
		</g>
		<g>
			<text fill="#595959" font-family="Verdana,Open Sans,DejaVu Sans,sans-serif" font-weight="400" font-size="41" transform="matrix(1 0 0 1 3556.97119140625 1321)">Week Commencing</text>
		</g>
		<g>
			<text fill="#595959" font-family="Verdana,Open Sans,DejaVu Sans,sans-serif" font-weight="400" font-size="46" transform="matrix(6.12323e-17 -1 1 6.12323e-17 3019.73 936.7665710449219)">Requests (% of Total)</text>
		</g>
		<rect x="2918.5" y="347.5" width="1760" height="1043" stroke="#D9D9D9" stroke-width="3.4375" stroke-linejoin="round" stroke-miterlimit="10" fill="none" />
		<g>
			<path d="M3228.5 1038 3249.4411764705883 1038 3270.3823529411766 1038 3291.323529411765 1038 3312.264705882353 1038 3333.205882352941 1038 3354.1470588235293 1038 3375.0882352941176 1038 3396.029411764706 1038 3416.970588235294 1038 3437.9117647058824 1038 3458.8529411764707 1038 3479.794117647059 1038 3500.735294117647 1038 3521.676470588235 1038 3542.6176470588234 1038 3563.5588235294117 1038 3584.5 1038 3605.4411764705883 1038 3626.3823529411766 1038 3647.323529411765 1038 3668.264705882353 1038 3689.205882352941 1038 3710.1470588235293 1038 3731.0882352941176 1038 3752.029411764706 1038 3772.970588235294 1038 3793.9117647058824 1038 3814.8529411764707 1038 3835.7941176470586 1038 3856.735294117647 1038 3877.676470588235 1038 3898.6176470588234 1038 3919.5588235294117 1038 3940.5 1038 3961.4411764705883 1038 3982.3823529411766 1038 4003.323529411765 1038 4024.264705882353 1038 4045.2058823529414 1038 4066.1470588235293 1038 4087.0882352941176 1038 4108.029411764706 1038 4128.970588235294 1038 4149.911764705882 1038 4170.85294117647 1038 4191.794117647059 1038 4212.735294117647 1038 4233.676470588235 1038 4254.617647058823 1038 4275.558823529412 1038 4296.5 1038 4296.5 437.6239137141273 4275.558823529412 437.6049218138388 4254.617647058823 437.66539534758147 4233.676470588235 437.23330094896914 4212.735294117647 437.2252678895536 4191.794117647059 437.2266571256755 4170.85294117647 437.41933993409225 4149.911764705882 437.77571312198756 4128.970588235294 437.9538782171219 4108.029411764706 438.04589818914667 4087.0882352941176 438.30346732909925 4066.1470588235293 437.9330255815296 4045.2058823529414 437.830120525933 4024.264705882353 437.4274922428566 4003.323529411765 437.5327918592636 3982.3823529411766 437.70848432679963 3961.4411764705883 437.8791578329525 3940.5 438.2569100073033 3919.5588235294117 438.25416567656384 3898.6176470588234 438.2284066200755 3877.676470588235 438.4018523571715 3856.735294117647 438.2585045087485 3835.7941176470586 438.1419455028754 3814.8529411764707 438.1490336079519 3793.9117647058824 438.2753528850003 3772.970588235294 438.3712938024157 3752.029411764706 438.93844580645873 3731.0882352941176 438.66009075050135 3710.1470588235293 438.6550093538849 3689.205882352941 438.8753603320732 3668.264705882353 440.072777946987 3647.323529411765 439.54649540853677 3626.3823529411766 439.7648762802967 3605.4411764705883 440.0929578933227 3584.5 440.1107731424996 3563.5588235294117 440.17666153343987 3542.6176470588234 440.17259352262283 3521.676470588235 440.3280263296216 3500.735294117647 440.34799215358134 3479.794117647059 440.40616975209355 3458.8529411764707 440.40760550465325 3437.9117647058824 440.94196380839696 3416.970588235294 441.17078340782746 3396.029411764706 441.17336955313306 3375.0882352941176 441.3391880005887 3354.1470588235293 441.48654078274615 3333.205882352941 441.48316478044603 3312.264705882353 441.484756503997 3291.323529411765 441.489616515065 3270.3823529411766 441.29796426599523 3249.4411764705883 441.72595383903854 3228.5 442.8417422387853 3228.5 1038Z" fill="#e62d39" opacity="0.9" />
		</g>
		<g>
			<path d="M3228.5 442.8417422387853 3249.4411764705883 441.72595383903854 3270.3823529411766 441.29796426599523 3291.323529411765 441.489616515065 3312.264705882353 441.484756503997 3333.205882352941 441.48316478044603 3354.1470588235293 441.48654078274615 3375.0882352941176 441.3391880005887 3396.029411764706 441.17336955313306 3416.970588235294 441.17078340782746 3437.9117647058824 440.94196380839696 3458.8529411764707 440.40760550465325 3479.794117647059 440.40616975209355 3500.735294117647 440.34799215358134 3521.676470588235 440.3280263296216 3542.6176470588234 440.17259352262283 3563.5588235294117 440.17666153343987 3584.5 440.1107731424996 3605.4411764705883 440.0929578933227 3626.3823529411766 439.7648762802967 3647.323529411765 439.54649540853677 3668.264705882353 440.072777946987 3689.205882352941 438.8753603320732 3710.1470588235293 438.6550093538849 3731.0882352941176 438.66009075050135 3752.029411764706 438.93844580645873 3772.970588235294 438.3712938024157 3793.9117647058824 438.2753528850003 3814.8529411764707 438.1490336079519 3835.7941176470586 438.1419455028754 3856.735294117647 438.2585045087485 3877.676470588235 438.4018523571715 3898.6176470588234 438.2284066200755 3919.5588235294117 438.25416567656384 3940.5 438.2569100073033 3961.4411764705883 437.8791578329525 3982.3823529411766 437.70848432679963 4003.323529411765 437.5327918592636 4024.264705882353 437.4274922428566 4045.2058823529414 437.830120525933 4066.1470588235293 437.9330255815296 4087.0882352941176 438.30346732909925 4108.029411764706 438.04589818914667 4128.970588235294 437.9538782171219 4149.911764705882 437.77571312198756 4170.85294117647 437.41933993409225 4191.794117647059 437.2266571256755 4212.735294117647 437.2252678895536 4233.676470588235 437.23330094896914 4254.617647058823 437.66539534758147 4275.558823529412 437.6049218138388 4296.5 437.6239137141273 4296.5 398.00000000000006 4275.558823529412 398 4254.617647058823 398 4233.676470588235 397.99999999999994 4212.735294117647 397.99999999999994 4191.794117647059 398.00000000000006 4170.85294117647 397.99999999999994 4149.911764705882 398 4128.970588235294 398 4108.029411764706 398 4087.0882352941176 398 4066.1470588235293 398.00000000000006 4045.2058823529414 398 4024.264705882353 398 4003.323529411765 398 3982.3823529411766 397.99999999999994 3961.4411764705883 398 3940.5 397.99999999999994 3919.5588235294117 398 3898.6176470588234 398 3877.676470588235 398.00000000000006 3856.735294117647 398 3835.7941176470586 397.99999999999994 3814.8529411764707 398 3793.9117647058824 398.00000000000006 3772.970588235294 398 3752.029411764706 398 3731.0882352941176 398 3710.1470588235293 398.00000000000006 3689.205882352941 398 3668.264705882353 398 3647.323529411765 398 3626.3823529411766 398.00000000000006 3605.4411764705883 398 3584.5 398 3563.5588235294117 398.00000000000006 3542.6176470588234 398 3521.676470588235 398.00000000000006 3500.735294117647 398.00000000000006 3479.794117647059 398.0000000000001 3458.8529411764707 398 3437.9117647058824 398 3416.970588235294 398 3396.029411764706 397.99999999999994 3375.0882352941176 398 3354.1470588235293 398 3333.205882352941 397.99999999999994 3312.264705882353 398 3291.323529411765 398 3270.3823529411766 397.99999999999994 3249.4411764705883 398 3228.5 398 3228.5 442.8417422387853Z" fill="#005aa6" opacity="0.9" />
		</g>
		<g>
			<rect x="4372" y="431" width="22.9995" height="23" fill="#e62d39" />
		</g>
		<g>
			<text fill="#595959" font-family="Verdana,Open Sans,DejaVu Sans,sans-serif" font-weight="400" font-size="41" transform="matrix(1 0 0 1 4404.56 454)">Non-Crawler</text>
		</g>
		<g>
			<rect x="4372" y="508" width="22.9995" height="23" fill="#005aa6" />
		</g>
		<g>
			<text fill="#595959" font-family="Verdana,Open Sans,DejaVu Sans,sans-serif" font-weight="400" font-size="41" transform="matrix(1 0 0 1 4404.56 531)">Crawler</text>
		</g>
	</g>
</svg>
