<svg width="1763" height="1046"
    xmlns="http://www.w3.org/2000/svg"
	xmlns:xlink="http://www.w3.org/1999/xlink" xml:space="preserve" overflow="hidden">
	<defs>
		<clipPath id="clip0">
			<rect x="2917" y="346" width="1763" height="1046"/>
		</clipPath>
	</defs>
	<g clip-path="url(#clip0)" transform="translate(-2917 -346)">
		<rect x="2918" y="347" width="1760" height="1043" fill="#FFFFFF" />
		<g>
			<path d="
			M3228.5 974.532 4296.5 974.532
			M3228.5 910.53 4296.5 910.53
			M3228.5 846.528 4296.5 846.528
			M3228.5 781.526 4296.5 781.526
			M3228.5 717.524 4296.5 717.524
			M3228.5 653.522 4296.5 653.522
			M3228.5 589.52 4296.5 589.52
			M3228.5 525.517 4296.5 525.517
			M3228.5 461.515 4296.5 461.515
			M3228.5 397.5 4296.5 397.5" stroke="#D9D9D9" stroke-width="3.4375" stroke-linejoin="round" stroke-miterlimit="10" fill="none" />
		</g>
		<g>
			<path d="M 1038.5 4296.5 1038.5" stroke="#D9D9D9" stroke-width="3.4375" stroke-linejoin="round" stroke-miterlimit="10" fill="none" fill-rule="evenodd" />
		</g>
		<g>
			<text fill="#595959" font-family="Verdana,sans-serif" font-weight="400" font-size="41" transform="matrix(6.12323e-17 -1 1 6.12323e-17 3244.5 1227)">06-Nov</text>
		</g>
		<g>
			<text fill="#595959" font-family="Verdana,sans-serif" font-weight="400" font-size="41" transform="matrix(6.12323e-17 -1 1 6.12323e-17 3329.94 1226)">20-Nov</text>
		</g>
		<g>
			<text fill="#595959" font-family="Verdana,sans-serif" font-weight="400" font-size="41" transform="matrix(6.12323e-17 -1 1 6.12323e-17 3415.38 1225)">04-Dec</text>
		</g>
		<g>
			<text fill="#595959" font-family="Verdana,sans-serif" font-weight="400" font-size="41" transform="matrix(6.12323e-17 -1 1 6.12323e-17 3500.82 1222)">18-Dec</text>
		</g>
		<g>
			<text fill="#595959" font-family="Verdana,sans-serif" font-weight="400" font-size="41" transform="matrix(6.12323e-17 -1 1 6.12323e-17 3586.26 1212)">01-Jan</text>
		</g>
		<g>
			<text fill="#595959" font-family="Verdana,sans-serif" font-weight="400" font-size="41" transform="matrix(6.12323e-17 -1 1 6.12323e-17 3671.2 1209)">15-Jan</text>
		</g>
		<g>
			<text fill="#595959" font-family="Verdana,sans-serif" font-weight="400" font-size="41" transform="matrix(6.12323e-17 -1 1 6.12323e-17 3757.14 1211)">29-Jan</text>
		</g>
		<g>
			<text fill="#595959" font-family="Verdana,sans-serif" font-weight="400" font-size="41" transform="matrix(6.12323e-17 -1 1 6.12323e-17 3842.58 1216)">12-Feb</text>
		</g>
		<g>
			<text fill="#595959" font-family="Verdana,sans-serif" font-weight="400" font-size="41" transform="matrix(6.12323e-17 -1 1 6.12323e-17 3928.02 1218)">26-Feb</text>
		</g>
		<g>
			<text fill="#595959" font-family="Verdana,sans-serif" font-weight="400" font-size="41" transform="matrix(6.12323e-17 -1 1 6.12323e-17 4012.96 1222)">11-Mar</text>
		</g>
		<g>
			<text fill="#595959" font-family="Verdana,sans-serif" font-weight="400" font-size="41" transform="matrix(6.12323e-17 -1 1 6.12323e-17 4098.9 1225)">25-Mar</text>
		</g>
		<g>
			<text fill="#595959" font-family="Verdana,sans-serif" font-weight="400" font-size="41" transform="matrix(6.12323e-17 -1 1 6.12323e-17 4187.84 1218)">08-Apr</text>
		</g>
		<g>
			<text fill="#595959" font-family="Verdana,sans-serif" font-weight="400" font-size="41" transform="matrix(6.12323e-17 -1 1 6.12323e-17 4273.28 1218)">22-Apr</text>
		</g>
		<g>
			<text fill="#595959" font-family="Verdana,sans-serif" font-weight="400" font-size="41" transform="matrix(1 0 0 1 3167.5 1050)">0</text>
		</g>
		<g>
			<text fill="#595959" font-family="Verdana,sans-serif" font-weight="400" font-size="41" transform="matrix(1 0 0 1 3139.5 922)">47</text>
		</g>
		<g>
			<text fill="#595959" font-family="Verdana,sans-serif" font-weight="400" font-size="41" transform="matrix(1 0 0 1 3139.5 794)">94</text>
		</g>
		<g>
			<text fill="#595959" font-family="Verdana,sans-serif" font-weight="400" font-size="41" transform="matrix(1 0 0 1 3117.5 666)">140</text>
		</g>
		<g>
			<text fill="#595959" font-family="Verdana,sans-serif" font-weight="400" font-size="41" transform="matrix(1 0 0 1 3117.5 538)">187</text>
		</g>
		<g>
			<text fill="#595959" font-family="Verdana,sans-serif" font-weight="400" font-size="41" transform="matrix(1 0 0 1 3114.5 410)">234</text>
		</g>
		<g>
			<text fill="#595959" font-family="Verdana,sans-serif" font-weight="400" font-size="41" transform="matrix(1 0 0 1 3541.5 1321)">Week Commencing</text>
		</g>
		<g>
			<text fill="#595959" font-family="Verdana,sans-serif" font-weight="400" font-size="46" transform="matrix(6.12323e-17 -1 1 6.12323e-17 3019.73 1029.25)">Number of Crawler Profiles</text>
		</g>
		<rect x="2918.5" y="347.5" width="1760" height="1043" stroke="#D9D9D9" stroke-width="3.4375" stroke-linejoin="round" stroke-miterlimit="10" fill="none" />
		<g>
			<path d="M3228.5 1038 3271.22 1038 3313.94 1038 3356.66 1038 3399.38 1038 3442.1 1038 3484.82 1038 3527.54 1038 3570.26 1038 3612.98 1038 3655.7 1038 3698.42 1038 3741.14 1038 3783.86 1038 3826.58 1038 3869.3 1038 3912.02 1038 3954.74 1038 3997.46 1038 4040.18 1038 4082.9 1038 4125.62 1038 4168.34 1038 4211.0599999999995 1038 4253.78 1038 4296.5 1038 4296.5 400.7350427350427 4253.78 403.47008547008545 4211.0599999999995 403.47008547008545 4168.34 414.41025641025635 4125.62 414.41025641025635 4082.9 428.0854700854701 4040.18 455.43589743589746 3997.46 460.9059829059829 3954.74 466.37606837606836 3912.02 480.051282051282 3869.3 482.7863247863248 3826.58 482.7863247863248 3783.86 485.52136752136755 3741.14 490.991452991453 3698.42 504.66666666666663 3655.7 507.40170940170935 3612.98 507.40170940170935 3570.26 512.8717948717949 3527.54 512.8717948717949 3484.82 512.8717948717949 3442.1 512.8717948717949 3399.38 512.8717948717949 3356.66 515.6068376068376 3313.94 515.6068376068376 3271.22 515.6068376068376 3228.5 515.6068376068376 3228.5 1038Z" fill="#005aa6" opacity="0.9" />
		</g>
		<g>
			<path d="M3228.5 515.6068376068376 3271.22 515.6068376068376 3313.94 515.6068376068376 3356.66 515.6068376068376 3399.38 512.8717948717949 3442.1 512.8717948717949 3484.82 512.8717948717949 3527.54 512.8717948717949 3570.26 512.8717948717949 3612.98 507.40170940170935 3655.7 507.40170940170935 3698.42 504.66666666666663 3741.14 490.991452991453 3783.86 485.52136752136755 3826.58 482.7863247863248 3869.3 482.7863247863248 3912.02 480.051282051282 3954.74 466.37606837606836 3997.46 460.9059829059829 4040.18 455.43589743589746 4082.9 428.0854700854701 4125.62 414.41025641025635 4168.34 414.41025641025635 4211.0599999999995 403.47008547008545 4253.78 403.47008547008545 4296.5 400.7350427350427 4296.5 398 4253.78 400.7350427350427 4211.0599999999995 400.7350427350427 4168.34 411.6752136752136 4125.62 411.6752136752136 4082.9 425.35042735042737 4040.18 452.70085470085473 3997.46 458.1709401709402 3954.74 463.64102564102564 3912.02 477.31623931623926 3869.3 480.0512820512821 3826.58 480.0512820512821 3783.86 482.7863247863248 3741.14 488.2564102564103 3698.42 501.9316239316239 3655.7 504.66666666666663 3612.98 504.66666666666663 3570.26 510.1367521367522 3527.54 510.1367521367522 3484.82 510.1367521367522 3442.1 510.1367521367522 3399.38 510.1367521367522 3356.66 512.8717948717949 3313.94 512.8717948717949 3271.22 512.8717948717949 3228.5 512.8717948717949 3228.5 515.6068376068376Z" fill="#e62d39" opacity="0.9" />
		</g>
		<g>
			<rect x="4372" y="431" width="22.9995" height="23" fill="#005aa6" />
		</g>
		<g>
			<text fill="#595959" font-family="Verdana,sans-serif" font-weight="400" font-size="41" transform="matrix(1 0 0 1 4404.56 454)">Crawler</text>
		</g>
		<g>
			<rect x="4372" y="508" width="22.9995" height="23" fill="#e62d39" />
		</g>
		<g>
			<text fill="#595959" font-family="Verdana,sans-serif" font-weight="400" font-size="41" transform="matrix(1 0 0 1 4404.56 531)">Non-Crawler</text>
		</g>
	</g>
</svg>
