<svg width="1763" height="1046"
    xmlns="http://www.w3.org/2000/svg"
	xmlns:xlink="http://www.w3.org/1999/xlink" xml:space="preserve" overflow="hidden">
	<defs>
		<clipPath id="clip0">
			<rect x="2917" y="346" width="1763" height="1046"/>
		</clipPath>
	</defs>
	<g clip-path="url(#clip0)" transform="translate(-2917 -346)">
		<rect x="2918" y="347" width="1760" height="1043" fill="#FFFFFF" />
		<g>
			<path d="
			M3228.5 974.532 4296.5 974.532
			M3228.5 910.53 4296.5 910.53
			M3228.5 846.528 4296.5 846.528
			M3228.5 781.526 4296.5 781.526
			M3228.5 717.524 4296.5 717.524
			M3228.5 653.522 4296.5 653.522
			M3228.5 589.52 4296.5 589.52
			M3228.5 525.517 4296.5 525.517
			M3228.5 461.515 4296.5 461.515
			M3228.5 397.5 4296.5 397.5" stroke="#D9D9D9" stroke-width="3.4375" stroke-linejoin="round" stroke-miterlimit="10" fill="none" />
		</g>
		<g>
			<path d="M 1038.5 4296.5 1038.5" stroke="#D9D9D9" stroke-width="3.4375" stroke-linejoin="round" stroke-miterlimit="10" fill="none" fill-rule="evenodd" />
		</g>
		<g>
			<text fill="#595959" font-family="Verdana,sans-serif" font-weight="400" font-size="41" transform="matrix(6.12323e-17 -1 1 6.12323e-17 3244.5 1225)">06-Nov</text>
		</g>
		<g>
			<text fill="#595959" font-family="Verdana,sans-serif" font-weight="400" font-size="41" transform="matrix(6.12323e-17 -1 1 6.12323e-17 3323.6111111111113 1224)">20-Nov</text>
		</g>
		<g>
			<text fill="#595959" font-family="Verdana,sans-serif" font-weight="400" font-size="41" transform="matrix(6.12323e-17 -1 1 6.12323e-17 3402.722222222222 1223)">04-Dec</text>
		</g>
		<g>
			<text fill="#595959" font-family="Verdana,sans-serif" font-weight="400" font-size="41" transform="matrix(6.12323e-17 -1 1 6.12323e-17 3481.8333333333335 1220)">18-Dec</text>
		</g>
		<g>
			<text fill="#595959" font-family="Verdana,sans-serif" font-weight="400" font-size="41" transform="matrix(6.12323e-17 -1 1 6.12323e-17 3560.9444444444443 1210)">01-Jan</text>
		</g>
		<g>
			<text fill="#595959" font-family="Verdana,sans-serif" font-weight="400" font-size="41" transform="matrix(6.12323e-17 -1 1 6.12323e-17 3639.5555555555557 1207)">15-Jan</text>
		</g>
		<g>
			<text fill="#595959" font-family="Verdana,sans-serif" font-weight="400" font-size="41" transform="matrix(6.12323e-17 -1 1 6.12323e-17 3719.1666666666665 1210)">29-Jan</text>
		</g>
		<g>
			<text fill="#595959" font-family="Verdana,sans-serif" font-weight="400" font-size="41" transform="matrix(6.12323e-17 -1 1 6.12323e-17 3798.277777777778 1214)">12-Feb</text>
		</g>
		<g>
			<text fill="#595959" font-family="Verdana,sans-serif" font-weight="400" font-size="41" transform="matrix(6.12323e-17 -1 1 6.12323e-17 3877.3888888888887 1216)">26-Feb</text>
		</g>
		<g>
			<text fill="#595959" font-family="Verdana,sans-serif" font-weight="400" font-size="41" transform="matrix(6.12323e-17 -1 1 6.12323e-17 3956 1221)">11-Mar</text>
		</g>
		<g>
			<text fill="#595959" font-family="Verdana,sans-serif" font-weight="400" font-size="41" transform="matrix(6.12323e-17 -1 1 6.12323e-17 4035.6111111111113 1223)">25-Mar</text>
		</g>
		<g>
			<text fill="#595959" font-family="Verdana,sans-serif" font-weight="400" font-size="41" transform="matrix(6.12323e-17 -1 1 6.12323e-17 4118.222222222223 1217)">08-Apr</text>
		</g>
		<g>
			<text fill="#595959" font-family="Verdana,sans-serif" font-weight="400" font-size="41" transform="matrix(6.12323e-17 -1 1 6.12323e-17 4197.333333333333 1216)">22-Apr</text>
		</g>
		<g>
			<text fill="#595959" font-family="Verdana,sans-serif" font-weight="400" font-size="41" transform="matrix(6.12323e-17 -1 1 6.12323e-17 4276.444444444444 1228)">06-May</text>
		</g>
		<g>
			<text fill="#595959" font-family="Verdana,sans-serif" font-weight="400" font-size="41" transform="matrix(1 0 0 1 3167.5 1050)">0</text>
		</g>
		<g>
			<text fill="#595959" font-family="Verdana,sans-serif" font-weight="400" font-size="41" transform="matrix(1 0 0 1 3139.5 922)">48</text>
		</g>
		<g>
			<text fill="#595959" font-family="Verdana,sans-serif" font-weight="400" font-size="41" transform="matrix(1 0 0 1 3140.5 794)">96</text>
		</g>
		<g>
			<text fill="#595959" font-family="Verdana,sans-serif" font-weight="400" font-size="41" transform="matrix(1 0 0 1 3117.5 666)">144</text>
		</g>
		<g>
			<text fill="#595959" font-family="Verdana,sans-serif" font-weight="400" font-size="41" transform="matrix(1 0 0 1 3118.5 538)">192</text>
		</g>
		<g>
			<text fill="#595959" font-family="Verdana,sans-serif" font-weight="400" font-size="41" transform="matrix(1 0 0 1 3115.5 410)">240</text>
		</g>
		<g>
			<text fill="#595959" font-family="Verdana,sans-serif" font-weight="400" font-size="41" transform="matrix(1 0 0 1 3544.5 1321)">Week Commencing</text>
		</g>
		<g>
			<text fill="#595959" font-family="Verdana,sans-serif" font-weight="400" font-size="46" transform="matrix(6.12323e-17 -1 1 6.12323e-17 3019.73 1024.75)">Number of Crawler Profiles</text>
		</g>
		<rect x="2918.5" y="347.5" width="1760" height="1043" stroke="#D9D9D9" stroke-width="3.4375" stroke-linejoin="round" stroke-miterlimit="10" fill="none" />
		<g>
			<path d="M3228.5 1038 3268.0555555555557 1038 3307.6111111111113 1038 3347.1666666666665 1038 3386.722222222222 1038 3426.277777777778 1038 3465.8333333333335 1038 3505.3888888888887 1038 3544.9444444444443 1038 3584.5 1038 3624.0555555555557 1038 3663.6111111111113 1038 3703.1666666666665 1038 3742.722222222222 1038 3782.277777777778 1038 3821.8333333333335 1038 3861.3888888888887 1038 3900.9444444444443 1038 3940.5 1038 3980.0555555555557 1038 4019.6111111111113 1038 4059.166666666667 1038 4098.722222222223 1038 4138.277777777777 1038 4177.833333333333 1038 4217.388888888889 1038 4256.944444444444 1038 4296.5 1038 4296.5 400.66666666666674 4256.944444444444 411.33333333333337 4217.388888888889 416.66666666666674 4177.833333333333 419.33333333333337 4138.277777777777 419.33333333333337 4098.722222222223 430 4059.166666666667 430 4019.6111111111113 443.33333333333337 3980.0555555555557 470 3940.5 475.33333333333337 3900.9444444444443 480.66666666666674 3861.3888888888887 494 3821.8333333333335 496.66666666666674 3782.277777777778 496.66666666666674 3742.722222222222 499.33333333333337 3703.1666666666665 504.66666666666674 3663.6111111111113 518 3624.0555555555557 520.6666666666667 3584.5 520.6666666666667 3544.9444444444443 526 3505.3888888888887 526 3465.8333333333335 526 3426.277777777778 526 3386.722222222222 526 3347.1666666666665 528.6666666666667 3307.6111111111113 528.6666666666667 3268.0555555555557 528.6666666666667 3228.5 528.6666666666667 3228.5 1038Z" fill="#005aa6" opacity="0.9" />
		</g>
		<g>
			<path d="M3228.5 528.6666666666667 3268.0555555555557 528.6666666666667 3307.6111111111113 528.6666666666667 3347.1666666666665 528.6666666666667 3386.722222222222 526 3426.277777777778 526 3465.8333333333335 526 3505.3888888888887 526 3544.9444444444443 526 3584.5 520.6666666666667 3624.0555555555557 520.6666666666667 3663.6111111111113 518 3703.1666666666665 504.66666666666674 3742.722222222222 499.33333333333337 3782.277777777778 496.66666666666674 3821.8333333333335 496.66666666666674 3861.3888888888887 494 3900.9444444444443 480.66666666666674 3940.5 475.33333333333337 3980.0555555555557 470 4019.6111111111113 443.33333333333337 4059.166666666667 430 4098.722222222223 430 4138.277777777777 419.33333333333337 4177.833333333333 419.33333333333337 4217.388888888889 416.66666666666674 4256.944444444444 411.33333333333337 4296.5 400.66666666666674 4296.5 398.00000000000006 4256.944444444444 408.6666666666667 4217.388888888889 414.00000000000006 4177.833333333333 416.6666666666667 4138.277777777777 416.6666666666667 4098.722222222223 427.3333333333333 4059.166666666667 427.3333333333333 4019.6111111111113 440.6666666666667 3980.0555555555557 467.3333333333333 3940.5 472.6666666666667 3900.9444444444443 478.00000000000006 3861.3888888888887 491.3333333333333 3821.8333333333335 494.00000000000006 3782.277777777778 494.00000000000006 3742.722222222222 496.6666666666667 3703.1666666666665 502.00000000000006 3663.6111111111113 515.3333333333334 3624.0555555555557 518.0000000000001 3584.5 518.0000000000001 3544.9444444444443 523.3333333333334 3505.3888888888887 523.3333333333334 3465.8333333333335 523.3333333333334 3426.277777777778 523.3333333333334 3386.722222222222 523.3333333333334 3347.1666666666665 526.0000000000001 3307.6111111111113 526.0000000000001 3268.0555555555557 526.0000000000001 3228.5 526.0000000000001 3228.5 528.6666666666667Z" fill="#e62d39" opacity="0.9" />
		</g>
		<g>
			<rect x="4372" y="431" width="22.9995" height="23" fill="#005aa6" />
		</g>
		<g>
			<text fill="#595959" font-family="Verdana,sans-serif" font-weight="400" font-size="41" transform="matrix(1 0 0 1 4404.56 454)">Crawler</text>
		</g>
		<g>
			<rect x="4372" y="508" width="22.9995" height="23" fill="#e62d39" />
		</g>
		<g>
			<text fill="#595959" font-family="Verdana,sans-serif" font-weight="400" font-size="41" transform="matrix(1 0 0 1 4404.56 531)">Non-Crawler</text>
		</g>
	</g>
</svg>
