<svg width="1763" height="1046"
    xmlns="http://www.w3.org/2000/svg"
	xmlns:xlink="http://www.w3.org/1999/xlink" xml:space="preserve" overflow="hidden">
	<defs>
		<clipPath id="clip0">
			<rect x="2917" y="346" width="1763" height="1046"/>
		</clipPath>
	</defs>
	<g clip-path="url(#clip0)" transform="translate(-2917 -346)">
		<rect x="2918" y="347" width="1760" height="1043" fill="#FFFFFF" />
		<g>
			<path d="
			M3228.5 974.532 4296.5 974.532
			M3228.5 910.53 4296.5 910.53
			M3228.5 846.528 4296.5 846.528
			M3228.5 781.526 4296.5 781.526
			M3228.5 717.524 4296.5 717.524
			M3228.5 653.522 4296.5 653.522
			M3228.5 589.52 4296.5 589.52
			M3228.5 525.517 4296.5 525.517
			M3228.5 461.515 4296.5 461.515
			M3228.5 397.5 4296.5 397.5" stroke="#D9D9D9" stroke-width="3.4375" stroke-linejoin="round" stroke-miterlimit="10" fill="none" />
		</g>
		<g>
			<path d="M 1038.5 4296.5 1038.5" stroke="#D9D9D9" stroke-width="3.4375" stroke-linejoin="round" stroke-miterlimit="10" fill="none" fill-rule="evenodd" />
		</g>
		<g>
			<text fill="#595959" font-family="Verdana,Open Sans,DejaVu Sans,sans-serif" font-weight="400" font-size="41" transform="matrix(6.12323e-17 -1 1 6.12323e-17 3247.21826171875 1191.6508712768555)">06-Jan</text>
		</g>
		<g>
			<text fill="#595959" font-family="Verdana,Open Sans,DejaVu Sans,sans-serif" font-weight="400" font-size="41" transform="matrix(6.12323e-17 -1 1 6.12323e-17 3329.715390625 1203.0419921875)">03-Feb</text>
		</g>
		<g>
			<text fill="#595959" font-family="Verdana,Open Sans,DejaVu Sans,sans-serif" font-weight="400" font-size="41" transform="matrix(6.12323e-17 -1 1 6.12323e-17 3414.444697265625 1212.0107421875)">03-Mar</text>
		</g>
		<g>
			<text fill="#595959" font-family="Verdana,Open Sans,DejaVu Sans,sans-serif" font-weight="400" font-size="41" transform="matrix(6.12323e-17 -1 1 6.12323e-17 3499.864677734375 1212.1708984375)">31-Mar</text>
		</g>
		<g>
			<text fill="#595959" font-family="Verdana,Open Sans,DejaVu Sans,sans-serif" font-weight="400" font-size="41" transform="matrix(6.12323e-17 -1 1 6.12323e-17 3590.029287109375 1203.3022384643555)">28-Apr</text>
		</g>
		<g>
			<text fill="#595959" font-family="Verdana,Open Sans,DejaVu Sans,sans-serif" font-weight="400" font-size="41" transform="matrix(6.12323e-17 -1 1 6.12323e-17 3675.469287109375 1216.51513671875)">26-May</text>
		</g>
		<g>
			<text fill="#595959" font-family="Verdana,Open Sans,DejaVu Sans,sans-serif" font-weight="400" font-size="41" transform="matrix(6.12323e-17 -1 1 6.12323e-17 3759.85826171875 1194.1733322143555)">30-Jun</text>
		</g>
		<g>
			<text fill="#595959" font-family="Verdana,Open Sans,DejaVu Sans,sans-serif" font-weight="400" font-size="41" transform="matrix(6.12323e-17 -1 1 6.12323e-17 3846.008955078125 1179.0385665893555)">28-Jul</text>
		</g>
		<g>
			<text fill="#595959" font-family="Verdana,Open Sans,DejaVu Sans,sans-serif" font-weight="400" font-size="41" transform="matrix(6.12323e-17 -1 1 6.12323e-17 3931.789287109375 1208.66748046875)">25-Aug</text>
		</g>
		<g>
			<text fill="#595959" font-family="Verdana,Open Sans,DejaVu Sans,sans-serif" font-weight="400" font-size="41" transform="matrix(6.12323e-17 -1 1 6.12323e-17 4017.229287109375 1204.42333984375)">22-Sep</text>
		</g>
		<g>
			<text fill="#595959" font-family="Verdana,Open Sans,DejaVu Sans,sans-serif" font-weight="400" font-size="41" transform="matrix(6.12323e-17 -1 1 6.12323e-17 4097.964697265625 1201.1401290893555)">20-Oct</text>
		</g>
		<g>
			<text fill="#595959" font-family="Verdana,Open Sans,DejaVu Sans,sans-serif" font-weight="400" font-size="41" transform="matrix(6.12323e-17 -1 1 6.12323e-17 4183.17447265625 1209.70849609375)">17-Nov</text>
		</g>
		<g>
			<text fill="#595959" font-family="Verdana,Open Sans,DejaVu Sans,sans-serif" font-weight="400" font-size="41" transform="matrix(6.12323e-17 -1 1 6.12323e-17 4268.61447265625 1205.3642578125)">15-Dec</text>
		</g>
		<g>
			<text fill="#595959" font-family="Verdana,Open Sans,DejaVu Sans,sans-serif" font-weight="400" font-size="41" transform="matrix(1 0 0 1 3169.14111328125 1050)">0</text>
		</g>
		<g>
			<text fill="#595959" font-family="Verdana,Open Sans,DejaVu Sans,sans-serif" font-weight="400" font-size="41" transform="matrix(1 0 0 1 3146.15869140625 922)">69</text>
		</g>
		<g>
			<text fill="#595959" font-family="Verdana,Open Sans,DejaVu Sans,sans-serif" font-weight="400" font-size="41" transform="matrix(1 0 0 1 3124.05712890625 794)">138</text>
		</g>
		<g>
			<text fill="#595959" font-family="Verdana,Open Sans,DejaVu Sans,sans-serif" font-weight="400" font-size="41" transform="matrix(1 0 0 1 3122.29541015625 666)">208</text>
		</g>
		<g>
			<text fill="#595959" font-family="Verdana,Open Sans,DejaVu Sans,sans-serif" font-weight="400" font-size="41" transform="matrix(1 0 0 1 3122.25537109375 538)">277</text>
		</g>
		<g>
			<text fill="#595959" font-family="Verdana,Open Sans,DejaVu Sans,sans-serif" font-weight="400" font-size="41" transform="matrix(1 0 0 1 3122.05517578125 410)">346</text>
		</g>
		<g>
			<text fill="#595959" font-family="Verdana,Open Sans,DejaVu Sans,sans-serif" font-weight="400" font-size="41" transform="matrix(1 0 0 1 3556.97119140625 1321)">Week Commencing</text>
		</g>
		<g>
			<text fill="#595959" font-family="Verdana,Open Sans,DejaVu Sans,sans-serif" font-weight="400" font-size="46" transform="matrix(6.12323e-17 -1 1 6.12323e-17 3019.73 1005.4858093261719)">Number of Crawler Profiles</text>
		</g>
		<rect x="2918.5" y="347.5" width="1760" height="1043" stroke="#D9D9D9" stroke-width="3.4375" stroke-linejoin="round" stroke-miterlimit="10" fill="none" />
		<g>
			<path d="M3228.5 1038 3249.86 1038 3271.22 1038 3292.58 1038 3313.94 1038 3335.3 1038 3356.66 1038 3378.02 1038 3399.38 1038 3420.74 1038 3442.1 1038 3463.46 1038 3484.82 1038 3506.18 1038 3527.54 1038 3548.9 1038 3570.26 1038 3591.62 1038 3612.98 1038 3634.34 1038 3655.7 1038 3677.06 1038 3698.42 1038 3719.7799999999997 1038 3741.14 1038 3762.5 1038 3783.86 1038 3805.2200000000003 1038 3826.58 1038 3847.94 1038 3869.3 1038 3890.66 1038 3912.02 1038 3933.38 1038 3954.74 1038 3976.1 1038 3997.46 1038 4018.8199999999997 1038 4040.18 1038 4061.54 1038 4082.9 1038 4104.26 1038 4125.62 1038 4146.98 1038 4168.34 1038 4189.7 1038 4211.0599999999995 1038 4232.42 1038 4253.78 1038 4275.139999999999 1038 4296.5 1038 4296.5 399.84971098265896 4275.139999999999 403.5491329479769 4253.78 405.39884393063585 4232.42 407.2485549132948 4211.0599999999995 412.7976878612717 4189.7 412.7976878612717 4168.34 412.7976878612717 4146.98 414.64739884393066 4125.62 418.3468208092486 4104.26 418.3468208092486 4082.9 418.3468208092486 4061.54 420.19653179190755 4040.18 420.19653179190755 4018.8199999999997 420.19653179190755 3997.46 427.5953757225434 3976.1 427.5953757225434 3954.74 427.5953757225434 3933.38 427.5953757225434 3912.02 427.5953757225434 3890.66 427.5953757225434 3869.3 427.5953757225434 3847.94 427.5953757225434 3826.58 427.5953757225434 3805.2200000000003 429.44508670520236 3783.86 429.44508670520236 3762.5 431.2947976878613 3741.14 431.2947976878613 3719.7799999999997 440.54335260115613 3698.42 442.3930635838151 3677.06 442.3930635838151 3655.7 446.092485549133 3634.34 447.94219653179186 3612.98 453.49132947976875 3591.62 455.3410404624277 3570.26 457.1907514450867 3548.9 459.04046242774564 3527.54 459.04046242774564 3506.18 459.04046242774564 3484.82 460.8901734104046 3463.46 460.8901734104046 3442.1 460.8901734104046 3420.74 462.73988439306356 3399.38 462.73988439306356 3378.02 464.5895953757225 3356.66 464.5895953757225 3335.3 466.4393063583815 3313.94 468.28901734104045 3292.58 470.1387283236994 3271.22 470.1387283236994 3249.86 473.83815028901734 3228.5 475.6878612716763 3228.5 1038Z" fill="#005aa6" opacity="0.9" />
		</g>
		<g>
			<path d="M3228.5 475.6878612716763 3249.86 473.83815028901734 3271.22 470.1387283236994 3292.58 470.1387283236994 3313.94 468.28901734104045 3335.3 466.4393063583815 3356.66 464.5895953757225 3378.02 464.5895953757225 3399.38 462.73988439306356 3420.74 462.73988439306356 3442.1 460.8901734104046 3463.46 460.8901734104046 3484.82 460.8901734104046 3506.18 459.04046242774564 3527.54 459.04046242774564 3548.9 459.04046242774564 3570.26 457.1907514450867 3591.62 455.3410404624277 3612.98 453.49132947976875 3634.34 447.94219653179186 3655.7 446.092485549133 3677.06 442.3930635838151 3698.42 442.3930635838151 3719.7799999999997 440.54335260115613 3741.14 431.2947976878613 3762.5 431.2947976878613 3783.86 429.44508670520236 3805.2200000000003 429.44508670520236 3826.58 427.5953757225434 3847.94 427.5953757225434 3869.3 427.5953757225434 3890.66 427.5953757225434 3912.02 427.5953757225434 3933.38 427.5953757225434 3954.74 427.5953757225434 3976.1 427.5953757225434 3997.46 427.5953757225434 4018.8199999999997 420.19653179190755 4040.18 420.19653179190755 4061.54 420.19653179190755 4082.9 418.3468208092486 4104.26 418.3468208092486 4125.62 418.3468208092486 4146.98 414.64739884393066 4168.34 412.7976878612717 4189.7 412.7976878612717 4211.0599999999995 412.7976878612717 4232.42 407.2485549132948 4253.78 405.39884393063585 4275.139999999999 403.5491329479769 4296.5 399.84971098265896 4296.5 398 4275.139999999999 401.6994219653179 4253.78 403.5491329479769 4232.42 405.39884393063585 4211.0599999999995 410.94797687861274 4189.7 410.94797687861274 4168.34 410.94797687861274 4146.98 412.7976878612717 4125.62 416.4971098265896 4104.26 416.4971098265896 4082.9 416.4971098265896 4061.54 418.3468208092486 4040.18 418.3468208092486 4018.8199999999997 418.3468208092486 3997.46 425.74566473988443 3976.1 425.74566473988443 3954.74 425.74566473988443 3933.38 425.74566473988443 3912.02 425.74566473988443 3890.66 425.74566473988443 3869.3 425.74566473988443 3847.94 425.74566473988443 3826.58 425.74566473988443 3805.2200000000003 427.5953757225434 3783.86 427.5953757225434 3762.5 429.44508670520236 3741.14 429.44508670520236 3719.7799999999997 438.69364161849717 3698.42 440.54335260115613 3677.06 440.54335260115613 3655.7 444.24277456647405 3634.34 446.0924855491329 3612.98 451.6416184971098 3591.62 453.49132947976875 3570.26 455.3410404624277 3548.9 457.1907514450867 3527.54 457.1907514450867 3506.18 457.1907514450867 3484.82 459.04046242774564 3463.46 459.04046242774564 3442.1 459.04046242774564 3420.74 460.8901734104046 3399.38 460.8901734104046 3378.02 462.73988439306356 3356.66 462.73988439306356 3335.3 464.5895953757225 3313.94 466.4393063583815 3292.58 468.28901734104045 3271.22 468.28901734104045 3249.86 471.9884393063584 3228.5 473.83815028901734 3228.5 475.6878612716763Z" fill="#e62d39" opacity="0.9" />
		</g>
		<g>
			<rect x="4372" y="431" width="22.9995" height="23" fill="#005aa6" />
		</g>
		<g>
			<text fill="#595959" font-family="Verdana,Open Sans,DejaVu Sans,sans-serif" font-weight="400" font-size="41" transform="matrix(1 0 0 1 4404.56 454)">Crawler</text>
		</g>
		<g>
			<rect x="4372" y="508" width="22.9995" height="23" fill="#e62d39" />
		</g>
		<g>
			<text fill="#595959" font-family="Verdana,Open Sans,DejaVu Sans,sans-serif" font-weight="400" font-size="41" transform="matrix(1 0 0 1 4404.56 531)">Non-Crawler</text>
		</g>
	</g>
</svg>
