<svg width="1763" height="1046"
    xmlns="http://www.w3.org/2000/svg"
	xmlns:xlink="http://www.w3.org/1999/xlink" xml:space="preserve" overflow="hidden">
	<defs>
		<clipPath id="clip0">
			<rect x="2917" y="346" width="1763" height="1046"/>
		</clipPath>
	</defs>
	<g clip-path="url(#clip0)" transform="translate(-2917 -346)">
		<rect x="2918" y="347" width="1760" height="1043" fill="#FFFFFF" />
		<g>
			<path d="
			M3228.5 974.532 4296.5 974.532
			M3228.5 910.53 4296.5 910.53
			M3228.5 846.528 4296.5 846.528
			M3228.5 781.526 4296.5 781.526
			M3228.5 717.524 4296.5 717.524
			M3228.5 653.522 4296.5 653.522
			M3228.5 589.52 4296.5 589.52
			M3228.5 525.517 4296.5 525.517
			M3228.5 461.515 4296.5 461.515
			M3228.5 397.5 4296.5 397.5" stroke="#D9D9D9" stroke-width="3.4375" stroke-linejoin="round" stroke-miterlimit="10" fill="none" />
		</g>
		<g>
			<path d="M 1038.5 4296.5 1038.5" stroke="#D9D9D9" stroke-width="3.4375" stroke-linejoin="round" stroke-miterlimit="10" fill="none" fill-rule="evenodd" />
		</g>
		<g>
			<text fill="#595959" font-family="Verdana,Open Sans,DejaVu Sans,sans-serif" font-weight="400" font-size="41" transform="matrix(6.12323e-17 -1 1 6.12323e-17 3244.275390625 1203.08203125)">24-Feb</text>
		</g>
		<g>
			<text fill="#595959" font-family="Verdana,Open Sans,DejaVu Sans,sans-serif" font-weight="400" font-size="41" transform="matrix(6.12323e-17 -1 1 6.12323e-17 3328.984677734375 1212.05078125)">24-Mar</text>
		</g>
		<g>
			<text fill="#595959" font-family="Verdana,Open Sans,DejaVu Sans,sans-serif" font-weight="400" font-size="41" transform="matrix(6.12323e-17 -1 1 6.12323e-17 3419.149287109375 1203.3022384643555)">21-Apr</text>
		</g>
		<g>
			<text fill="#595959" font-family="Verdana,Open Sans,DejaVu Sans,sans-serif" font-weight="400" font-size="41" transform="matrix(6.12323e-17 -1 1 6.12323e-17 3504.589287109375 1214.75341796875)">19-May</text>
		</g>
		<g>
			<text fill="#595959" font-family="Verdana,Open Sans,DejaVu Sans,sans-serif" font-weight="400" font-size="41" transform="matrix(6.12323e-17 -1 1 6.12323e-17 3588.9582421875 1194.0532150268555)">23-Jun</text>
		</g>
		<g>
			<text fill="#595959" font-family="Verdana,Open Sans,DejaVu Sans,sans-serif" font-weight="400" font-size="41" transform="matrix(6.12323e-17 -1 1 6.12323e-17 3675.128955078125 1179.0385665893555)">21-Jul</text>
		</g>
		<g>
			<text fill="#595959" font-family="Verdana,Open Sans,DejaVu Sans,sans-serif" font-weight="400" font-size="41" transform="matrix(6.12323e-17 -1 1 6.12323e-17 3760.909287109375 1206.90576171875)">18-Aug</text>
		</g>
		<g>
			<text fill="#595959" font-family="Verdana,Open Sans,DejaVu Sans,sans-serif" font-weight="400" font-size="41" transform="matrix(6.12323e-17 -1 1 6.12323e-17 3846.349287109375 1202.66162109375)">15-Sep</text>
		</g>
		<g>
			<text fill="#595959" font-family="Verdana,Open Sans,DejaVu Sans,sans-serif" font-weight="400" font-size="41" transform="matrix(6.12323e-17 -1 1 6.12323e-17 3927.084697265625 1199.3784103393555)">13-Oct</text>
		</g>
		<g>
			<text fill="#595959" font-family="Verdana,Open Sans,DejaVu Sans,sans-serif" font-weight="400" font-size="41" transform="matrix(6.12323e-17 -1 1 6.12323e-17 4012.524697265625 1209.70849609375)">10-Nov</text>
		</g>
		<g>
			<text fill="#595959" font-family="Verdana,Open Sans,DejaVu Sans,sans-serif" font-weight="400" font-size="41" transform="matrix(6.12323e-17 -1 1 6.12323e-17 4097.964697265625 1207.0859375)">08-Dec</text>
		</g>
		<g>
			<text fill="#595959" font-family="Verdana,Open Sans,DejaVu Sans,sans-serif" font-weight="400" font-size="41" transform="matrix(6.12323e-17 -1 1 6.12323e-17 4187.05826171875 1191.6508712768555)">05-Jan</text>
		</g>
		<g>
			<text fill="#595959" font-family="Verdana,Open Sans,DejaVu Sans,sans-serif" font-weight="400" font-size="41" transform="matrix(6.12323e-17 -1 1 6.12323e-17 4269.555390625 1203.0419921875)">02-Feb</text>
		</g>
		<g>
			<text fill="#595959" font-family="Verdana,Open Sans,DejaVu Sans,sans-serif" font-weight="400" font-size="41" transform="matrix(1 0 0 1 3169.14111328125 1050)">0</text>
		</g>
		<g>
			<text fill="#595959" font-family="Verdana,Open Sans,DejaVu Sans,sans-serif" font-weight="400" font-size="41" transform="matrix(1 0 0 1 3144.31689453125 922)">74</text>
		</g>
		<g>
			<text fill="#595959" font-family="Verdana,Open Sans,DejaVu Sans,sans-serif" font-weight="400" font-size="41" transform="matrix(1 0 0 1 3124.01708984375 794)">147</text>
		</g>
		<g>
			<text fill="#595959" font-family="Verdana,Open Sans,DejaVu Sans,sans-serif" font-weight="400" font-size="41" transform="matrix(1 0 0 1 3129.3022499084473 666)">221</text>
		</g>
		<g>
			<text fill="#595959" font-family="Verdana,Open Sans,DejaVu Sans,sans-serif" font-weight="400" font-size="41" transform="matrix(1 0 0 1 3120.994140625 538)">294</text>
		</g>
		<g>
			<text fill="#595959" font-family="Verdana,Open Sans,DejaVu Sans,sans-serif" font-weight="400" font-size="41" transform="matrix(1 0 0 1 3122.17529296875 410)">368</text>
		</g>
		<g>
			<text fill="#595959" font-family="Verdana,Open Sans,DejaVu Sans,sans-serif" font-weight="400" font-size="41" transform="matrix(1 0 0 1 3556.97119140625 1321)">Week Commencing</text>
		</g>
		<g>
			<text fill="#595959" font-family="Verdana,Open Sans,DejaVu Sans,sans-serif" font-weight="400" font-size="46" transform="matrix(6.12323e-17 -1 1 6.12323e-17 3019.73 1005.4858093261719)">Number of Crawler Profiles</text>
		</g>
		<rect x="2918.5" y="347.5" width="1760" height="1043" stroke="#D9D9D9" stroke-width="3.4375" stroke-linejoin="round" stroke-miterlimit="10" fill="none" />
		<g>
			<path d="M3228.5 1038 3249.86 1038 3271.22 1038 3292.58 1038 3313.94 1038 3335.3 1038 3356.66 1038 3378.02 1038 3399.38 1038 3420.74 1038 3442.1 1038 3463.46 1038 3484.82 1038 3506.18 1038 3527.54 1038 3548.9 1038 3570.26 1038 3591.62 1038 3612.98 1038 3634.34 1038 3655.7 1038 3677.06 1038 3698.42 1038 3719.7799999999997 1038 3741.14 1038 3762.5 1038 3783.86 1038 3805.2200000000003 1038 3826.58 1038 3847.94 1038 3869.3 1038 3890.66 1038 3912.02 1038 3933.38 1038 3954.74 1038 3976.1 1038 3997.46 1038 4018.8199999999997 1038 4040.18 1038 4061.54 1038 4082.9 1038 4104.26 1038 4125.62 1038 4146.98 1038 4168.34 1038 4189.7 1038 4211.0599999999995 1038 4232.42 1038 4253.78 1038 4275.139999999999 1038 4296.5 1038 4296.5 401.47826086956525 4275.139999999999 410.17391304347825 4253.78 432.78260869565224 4232.42 434.52173913043475 4211.0599999999995 436.2608695652174 4189.7 436.2608695652174 4168.34 436.2608695652174 4146.98 438 4125.62 441.47826086956525 4104.26 443.21739130434787 4082.9 444.9565217391305 4061.54 450.17391304347825 4040.18 450.17391304347825 4018.8199999999997 450.17391304347825 3997.46 451.9130434782609 3976.1 455.3913043478261 3954.74 455.3913043478261 3933.38 455.3913043478261 3912.02 457.13043478260875 3890.66 457.13043478260875 3869.3 457.13043478260875 3847.94 464.0869565217391 3826.58 464.0869565217391 3805.2200000000003 464.0869565217391 3783.86 464.0869565217391 3762.5 464.0869565217391 3741.14 464.0869565217391 3719.7799999999997 464.0869565217391 3698.42 464.0869565217391 3677.06 464.0869565217391 3655.7 465.82608695652175 3634.34 465.82608695652175 3612.98 467.5652173913044 3591.62 467.5652173913044 3570.26 476.2608695652174 3548.9 478 3527.54 478 3506.18 481.47826086956525 3484.82 483.21739130434787 3463.46 488.4347826086956 3442.1 490.17391304347825 3420.74 491.9130434782609 3399.38 493.6521739130435 3378.02 493.6521739130435 3356.66 493.6521739130435 3335.3 495.3913043478261 3313.94 495.3913043478261 3292.58 495.3913043478261 3271.22 497.13043478260875 3249.86 497.13043478260875 3228.5 498.86956521739137 3228.5 1038Z" fill="#005aa6" opacity="0.9" />
		</g>
		<g>
			<path d="M3228.5 498.86956521739137 3249.86 497.13043478260875 3271.22 497.13043478260875 3292.58 495.3913043478261 3313.94 495.3913043478261 3335.3 495.3913043478261 3356.66 493.6521739130435 3378.02 493.6521739130435 3399.38 493.6521739130435 3420.74 491.9130434782609 3442.1 490.17391304347825 3463.46 488.4347826086956 3484.82 483.21739130434787 3506.18 481.47826086956525 3527.54 478 3548.9 478 3570.26 476.2608695652174 3591.62 467.5652173913044 3612.98 467.5652173913044 3634.34 465.82608695652175 3655.7 465.82608695652175 3677.06 464.0869565217391 3698.42 464.0869565217391 3719.7799999999997 464.0869565217391 3741.14 464.0869565217391 3762.5 464.0869565217391 3783.86 464.0869565217391 3805.2200000000003 464.0869565217391 3826.58 464.0869565217391 3847.94 464.0869565217391 3869.3 457.13043478260875 3890.66 457.13043478260875 3912.02 457.13043478260875 3933.38 455.3913043478261 3954.74 455.3913043478261 3976.1 455.3913043478261 3997.46 451.9130434782609 4018.8199999999997 450.17391304347825 4040.18 450.17391304347825 4061.54 450.17391304347825 4082.9 444.9565217391305 4104.26 443.21739130434787 4125.62 441.47826086956525 4146.98 438 4168.34 436.2608695652174 4189.7 436.2608695652174 4211.0599999999995 436.2608695652174 4232.42 434.52173913043475 4253.78 432.78260869565224 4275.139999999999 410.17391304347825 4296.5 401.47826086956525 4296.5 398.00000000000006 4275.139999999999 408.4347826086956 4253.78 431.0434782608696 4232.42 432.78260869565213 4211.0599999999995 434.52173913043475 4189.7 434.52173913043475 4168.34 434.52173913043475 4146.98 436.2608695652174 4125.62 439.7391304347826 4104.26 441.47826086956525 4082.9 443.21739130434787 4061.54 448.4347826086956 4040.18 448.4347826086956 4018.8199999999997 448.4347826086956 3997.46 450.17391304347825 3976.1 453.6521739130435 3954.74 453.6521739130435 3933.38 453.6521739130435 3912.02 455.3913043478261 3890.66 455.3913043478261 3869.3 455.3913043478261 3847.94 462.3478260869565 3826.58 462.3478260869565 3805.2200000000003 462.3478260869565 3783.86 462.3478260869565 3762.5 462.3478260869565 3741.14 462.3478260869565 3719.7799999999997 462.3478260869565 3698.42 462.3478260869565 3677.06 462.3478260869565 3655.7 464.0869565217391 3634.34 464.0869565217391 3612.98 465.82608695652175 3591.62 465.82608695652175 3570.26 474.52173913043475 3548.9 476.2608695652174 3527.54 476.2608695652174 3506.18 479.7391304347826 3484.82 481.47826086956525 3463.46 486.695652173913 3442.1 488.4347826086956 3420.74 490.17391304347825 3399.38 491.9130434782609 3378.02 491.9130434782609 3356.66 491.9130434782609 3335.3 493.6521739130435 3313.94 493.6521739130435 3292.58 493.6521739130435 3271.22 495.3913043478261 3249.86 495.3913043478261 3228.5 497.13043478260875 3228.5 498.86956521739137Z" fill="#e62d39" opacity="0.9" />
		</g>
		<g>
			<rect x="4372" y="431" width="22.9995" height="23" fill="#005aa6" />
		</g>
		<g>
			<text fill="#595959" font-family="Verdana,Open Sans,DejaVu Sans,sans-serif" font-weight="400" font-size="41" transform="matrix(1 0 0 1 4404.56 454)">Crawler</text>
		</g>
		<g>
			<rect x="4372" y="508" width="22.9995" height="23" fill="#e62d39" />
		</g>
		<g>
			<text fill="#595959" font-family="Verdana,Open Sans,DejaVu Sans,sans-serif" font-weight="400" font-size="41" transform="matrix(1 0 0 1 4404.56 531)">Non-Crawler</text>
		</g>
	</g>
</svg>
