<svg width="1763" height="1046"
    xmlns="http://www.w3.org/2000/svg"
	xmlns:xlink="http://www.w3.org/1999/xlink" xml:space="preserve" overflow="hidden">
	<defs>
		<clipPath id="clip0">
			<rect x="2917" y="346" width="1763" height="1046"/>
		</clipPath>
	</defs>
	<g clip-path="url(#clip0)" transform="translate(-2917 -346)">
		<rect x="2918" y="347" width="1760" height="1043" fill="#FFFFFF" />
		<g>
			<path d="
			M3228.5 974.532 4296.5 974.532
			M3228.5 910.53 4296.5 910.53
			M3228.5 846.528 4296.5 846.528
			M3228.5 781.526 4296.5 781.526
			M3228.5 717.524 4296.5 717.524
			M3228.5 653.522 4296.5 653.522
			M3228.5 589.52 4296.5 589.52
			M3228.5 525.517 4296.5 525.517
			M3228.5 461.515 4296.5 461.515
			M3228.5 397.5 4296.5 397.5" stroke="#D9D9D9" stroke-width="3.4375" stroke-linejoin="round" stroke-miterlimit="10" fill="none" />
		</g>
		<g>
			<path d="M 1038.5 4296.5 1038.5" stroke="#D9D9D9" stroke-width="3.4375" stroke-linejoin="round" stroke-miterlimit="10" fill="none" fill-rule="evenodd" />
		</g>
		<g>
			<text fill="#595959" font-family="Verdana,sans-serif" font-weight="400" font-size="41" transform="matrix(6.12323e-17 -1 1 6.12323e-17 3244.5 1225)">06-Nov</text>
		</g>
		<g>
			<text fill="#595959" font-family="Verdana,sans-serif" font-weight="400" font-size="41" transform="matrix(6.12323e-17 -1 1 6.12323e-17 3373.9545454545455 1223)">04-Dec</text>
		</g>
		<g>
			<text fill="#595959" font-family="Verdana,sans-serif" font-weight="400" font-size="41" transform="matrix(6.12323e-17 -1 1 6.12323e-17 3503.409090909091 1210)">01-Jan</text>
		</g>
		<g>
			<text fill="#595959" font-family="Verdana,sans-serif" font-weight="400" font-size="41" transform="matrix(6.12323e-17 -1 1 6.12323e-17 3632.8636363636365 1210)">29-Jan</text>
		</g>
		<g>
			<text fill="#595959" font-family="Verdana,sans-serif" font-weight="400" font-size="41" transform="matrix(6.12323e-17 -1 1 6.12323e-17 3762.318181818182 1216)">26-Feb</text>
		</g>
		<g>
			<text fill="#595959" font-family="Verdana,sans-serif" font-weight="400" font-size="41" transform="matrix(6.12323e-17 -1 1 6.12323e-17 3891.7727272727275 1223)">25-Mar</text>
		</g>
		<g>
			<text fill="#595959" font-family="Verdana,sans-serif" font-weight="400" font-size="41" transform="matrix(6.12323e-17 -1 1 6.12323e-17 4024.727272727273 1216)">22-Apr</text>
		</g>
		<g>
			<text fill="#595959" font-family="Verdana,sans-serif" font-weight="400" font-size="41" transform="matrix(6.12323e-17 -1 1 6.12323e-17 4154.181818181818 1228)">20-May</text>
		</g>
		<g>
			<text fill="#595959" font-family="Verdana,sans-serif" font-weight="400" font-size="41" transform="matrix(6.12323e-17 -1 1 6.12323e-17 4279.636363636364 1209)">17-Jun</text>
		</g>
		<g>
			<text fill="#595959" font-family="Verdana,sans-serif" font-weight="400" font-size="41" transform="matrix(1 0 0 1 3123.5 1050)">0%</text>
		</g>
		<g>
			<text fill="#595959" font-family="Verdana,sans-serif" font-weight="400" font-size="41" transform="matrix(1 0 0 1 3097.5 922)">20%</text>
		</g>
		<g>
			<text fill="#595959" font-family="Verdana,sans-serif" font-weight="400" font-size="41" transform="matrix(1 0 0 1 3096.5 794)">40%</text>
		</g>
		<g>
			<text fill="#595959" font-family="Verdana,sans-serif" font-weight="400" font-size="41" transform="matrix(1 0 0 1 3097.5 666)">60%</text>
		</g>
		<g>
			<text fill="#595959" font-family="Verdana,sans-serif" font-weight="400" font-size="41" transform="matrix(1 0 0 1 3097.5 538)">80%</text>
		</g>
		<g>
			<text fill="#595959" font-family="Verdana,sans-serif" font-weight="400" font-size="41" transform="matrix(1 0 0 1 3074.5 410)">100%</text>
		</g>
		<g>
			<text fill="#595959" font-family="Verdana,sans-serif" font-weight="400" font-size="41" transform="matrix(1 0 0 1 3544.5 1321)">Week Commencing</text>
		</g>
		<g>
			<text fill="#595959" font-family="Verdana,sans-serif" font-weight="400" font-size="46" transform="matrix(6.12323e-17 -1 1 6.12323e-17 3019.73 965.25)">Requests (% of Total)</text>
		</g>
		<rect x="2918.5" y="347.5" width="1760" height="1043" stroke="#D9D9D9" stroke-width="3.4375" stroke-linejoin="round" stroke-miterlimit="10" fill="none" />
		<g>
			<path d="M3228.5 1038 3260.8636363636365 1038 3293.2272727272725 1038 3325.590909090909 1038 3357.9545454545455 1038 3390.318181818182 1038 3422.681818181818 1038 3455.0454545454545 1038 3487.409090909091 1038 3519.7727272727275 1038 3552.1363636363635 1038 3584.5 1038 3616.8636363636365 1038 3649.227272727273 1038 3681.590909090909 1038 3713.9545454545455 1038 3746.318181818182 1038 3778.681818181818 1038 3811.0454545454545 1038 3843.409090909091 1038 3875.7727272727275 1038 3908.136363636364 1038 3940.5 1038 3972.8636363636365 1038 4005.227272727273 1038 4037.590909090909 1038 4069.9545454545455 1038 4102.318181818182 1038 4134.681818181818 1038 4167.045454545455 1038 4199.409090909091 1038 4231.772727272727 1038 4264.136363636364 1038 4296.5 1038 4296.5 572.4651830343407 4264.136363636364 572.6325422225004 4231.772727272727 571.5082651331143 4199.409090909091 572.2322344669446 4167.045454545455 572.7455283998808 4134.681818181818 573.7260592446937 4102.318181818182 574.7878423335366 4069.9545454545455 575.6290427379265 4037.590909090909 575.9687876322813 4005.227272727273 576.8727971406818 3972.8636363636365 578.2473295586981 3940.5 579.8301495425726 3908.136363636364 581.4258071436993 3875.7727272727275 583.4353029706369 3843.409090909091 585.2297796683877 3811.0454545454545 569.3763139485983 3778.681818181818 569.4920790789085 3746.318181818182 568.4210223578364 3713.9545454545455 567.328661211755 3681.590909090909 566.161104092279 3649.227272727273 566.5630760901624 3616.8636363636365 566.9371867374394 3584.5 565.7434322908556 3552.1363636363635 565.3329344965637 3519.7727272727275 567.1306424721515 3487.409090909091 546.6361313386333 3455.0454545454545 547.2360643741254 3422.681818181818 547.9846296844262 3390.318181818182 551.0672526834712 3357.9545454545455 550.9210452859504 3325.590909090909 550.9050574683862 3293.2272727272725 550.8533354714161 3260.8636363636365 550.7560734149703 3228.5 551.2665692392751 3228.5 1038Z" fill="#e62d39" opacity="0.9" />
		</g>
		<g>
			<path d="M3228.5 551.2665692392751 3260.8636363636365 550.7560734149703 3293.2272727272725 550.8533354714161 3325.590909090909 550.9050574683862 3357.9545454545455 550.9210452859504 3390.318181818182 551.0672526834712 3422.681818181818 547.9846296844262 3455.0454545454545 547.2360643741254 3487.409090909091 546.6361313386333 3519.7727272727275 567.1306424721515 3552.1363636363635 565.3329344965637 3584.5 565.7434322908556 3616.8636363636365 566.9371867374394 3649.227272727273 566.5630760901624 3681.590909090909 566.161104092279 3713.9545454545455 567.328661211755 3746.318181818182 568.4210223578364 3778.681818181818 569.4920790789085 3811.0454545454545 569.3763139485983 3843.409090909091 585.2297796683877 3875.7727272727275 583.4353029706369 3908.136363636364 581.4258071436993 3940.5 579.8301495425726 3972.8636363636365 578.2473295586981 4005.227272727273 576.8727971406818 4037.590909090909 575.9687876322813 4069.9545454545455 575.6290427379265 4102.318181818182 574.7878423335366 4134.681818181818 573.7260592446937 4167.045454545455 572.7455283998808 4199.409090909091 572.2322344669446 4231.772727272727 571.5082651331143 4264.136363636364 572.6325422225004 4296.5 572.4651830343407 4296.5 398 4264.136363636364 398 4231.772727272727 397.99999999999994 4199.409090909091 398.0000000000001 4167.045454545455 398 4134.681818181818 398 4102.318181818182 398.00000000000006 4069.9545454545455 398 4037.590909090909 398 4005.227272727273 397.99999999999994 3972.8636363636365 397.99999999999994 3940.5 398.0000000000001 3908.136363636364 398 3875.7727272727275 398 3843.409090909091 398 3811.0454545454545 398 3778.681818181818 398.00000000000006 3746.318181818182 398.00000000000006 3713.9545454545455 398 3681.590909090909 398.00000000000006 3649.227272727273 397.99999999999994 3616.8636363636365 398 3584.5 398 3552.1363636363635 397.99999999999994 3519.7727272727275 398.00000000000006 3487.409090909091 398 3455.0454545454545 398.0000000000001 3422.681818181818 398 3390.318181818182 398 3357.9545454545455 398 3325.590909090909 398 3293.2272727272725 398 3260.8636363636365 398 3228.5 398 3228.5 551.2665692392751Z" fill="#005aa6" opacity="0.9" />
		</g>
		<g>
			<rect x="4372" y="431" width="22.9995" height="23" fill="#e62d39" />
		</g>
		<g>
			<text fill="#595959" font-family="Verdana,sans-serif" font-weight="400" font-size="41" transform="matrix(1 0 0 1 4404.56 454)">Non-Crawler</text>
		</g>
		<g>
			<rect x="4372" y="508" width="22.9995" height="23" fill="#005aa6" />
		</g>
		<g>
			<text fill="#595959" font-family="Verdana,sans-serif" font-weight="400" font-size="41" transform="matrix(1 0 0 1 4404.56 531)">Crawler</text>
		</g>
	</g>
</svg>
