<svg width="1763" height="1046"
    xmlns="http://www.w3.org/2000/svg"
	xmlns:xlink="http://www.w3.org/1999/xlink" xml:space="preserve" overflow="hidden">
	<defs>
		<clipPath id="clip0">
			<rect x="2917" y="346" width="1763" height="1046"/>
		</clipPath>
	</defs>
	<g clip-path="url(#clip0)" transform="translate(-2917 -346)">
		<rect x="2918" y="347" width="1760" height="1043" fill="#FFFFFF" />
		<g>
			<path d="
			M3228.5 974.532 4296.5 974.532
			M3228.5 910.53 4296.5 910.53
			M3228.5 846.528 4296.5 846.528
			M3228.5 781.526 4296.5 781.526
			M3228.5 717.524 4296.5 717.524
			M3228.5 653.522 4296.5 653.522
			M3228.5 589.52 4296.5 589.52
			M3228.5 525.517 4296.5 525.517
			M3228.5 461.515 4296.5 461.515
			M3228.5 397.5 4296.5 397.5" stroke="#D9D9D9" stroke-width="3.4375" stroke-linejoin="round" stroke-miterlimit="10" fill="none" />
		</g>
		<g>
			<path d="M 1038.5 4296.5 1038.5" stroke="#D9D9D9" stroke-width="3.4375" stroke-linejoin="round" stroke-miterlimit="10" fill="none" fill-rule="evenodd" />
		</g>
		<g>
			<text fill="#595959" font-family="Verdana,sans-serif" font-weight="400" font-size="41" transform="matrix(6.12323e-17 -1 1 6.12323e-17 3248 1216)">29-Apr</text>
		</g>
		<g>
			<text fill="#595959" font-family="Verdana,sans-serif" font-weight="400" font-size="41" transform="matrix(6.12323e-17 -1 1 6.12323e-17 3331.764705882353 1228)">27-May</text>
		</g>
		<g>
			<text fill="#595959" font-family="Verdana,sans-serif" font-weight="400" font-size="41" transform="matrix(6.12323e-17 -1 1 6.12323e-17 3412.029411764706 1211)">24-Jun</text>
		</g>
		<g>
			<text fill="#595959" font-family="Verdana,sans-serif" font-weight="400" font-size="41" transform="matrix(6.12323e-17 -1 1 6.12323e-17 3495.794117647059 1196)">22-Jul</text>
		</g>
		<g>
			<text fill="#595959" font-family="Verdana,sans-serif" font-weight="400" font-size="41" transform="matrix(6.12323e-17 -1 1 6.12323e-17 3583.0588235294117 1218)">19-Aug</text>
		</g>
		<g>
			<text fill="#595959" font-family="Verdana,sans-serif" font-weight="400" font-size="41" transform="matrix(6.12323e-17 -1 1 6.12323e-17 3666.823529411765 1219)">16-Sep</text>
		</g>
		<g>
			<text fill="#595959" font-family="Verdana,sans-serif" font-weight="400" font-size="41" transform="matrix(6.12323e-17 -1 1 6.12323e-17 3747.0882352941176 1213)">14-Oct</text>
		</g>
		<g>
			<text fill="#595959" font-family="Verdana,sans-serif" font-weight="400" font-size="41" transform="matrix(6.12323e-17 -1 1 6.12323e-17 3830.3529411764707 1222)">11-Nov</text>
		</g>
		<g>
			<text fill="#595959" font-family="Verdana,sans-serif" font-weight="400" font-size="41" transform="matrix(6.12323e-17 -1 1 6.12323e-17 3914.1176470588234 1220)">16-Dec</text>
		</g>
		<g>
			<text fill="#595959" font-family="Verdana,sans-serif" font-weight="400" font-size="41" transform="matrix(6.12323e-17 -1 1 6.12323e-17 3998.3823529411766 1207)">13-Jan</text>
		</g>
		<g>
			<text fill="#595959" font-family="Verdana,sans-serif" font-weight="400" font-size="41" transform="matrix(6.12323e-17 -1 1 6.12323e-17 4082.1470588235293 1214)">10-Feb</text>
		</g>
		<g>
			<text fill="#595959" font-family="Verdana,sans-serif" font-weight="400" font-size="41" transform="matrix(6.12323e-17 -1 1 6.12323e-17 4165.911764705882 1221)">10-Mar</text>
		</g>
		<g>
			<text fill="#595959" font-family="Verdana,sans-serif" font-weight="400" font-size="41" transform="matrix(6.12323e-17 -1 1 6.12323e-17 4253.176470588235 1217)">07-Apr</text>
		</g>
		<g>
			<text fill="#595959" font-family="Verdana,sans-serif" font-weight="400" font-size="41" transform="matrix(1 0 0 1 3167.5 1050)">0</text>
		</g>
		<g>
			<text fill="#595959" font-family="Verdana,sans-serif" font-weight="400" font-size="41" transform="matrix(1 0 0 1 3141.5 922)">63</text>
		</g>
		<g>
			<text fill="#595959" font-family="Verdana,sans-serif" font-weight="400" font-size="41" transform="matrix(1 0 0 1 3117.5 794)">126</text>
		</g>
		<g>
			<text fill="#595959" font-family="Verdana,sans-serif" font-weight="400" font-size="41" transform="matrix(1 0 0 1 3118.5 666)">189</text>
		</g>
		<g>
			<text fill="#595959" font-family="Verdana,sans-serif" font-weight="400" font-size="41" transform="matrix(1 0 0 1 3115.5 538)">252</text>
		</g>
		<g>
			<text fill="#595959" font-family="Verdana,sans-serif" font-weight="400" font-size="41" transform="matrix(1 0 0 1 3116.5 410)">315</text>
		</g>
		<g>
			<text fill="#595959" font-family="Verdana,sans-serif" font-weight="400" font-size="41" transform="matrix(1 0 0 1 3544.5 1321)">Week Commencing</text>
		</g>
		<g>
			<text fill="#595959" font-family="Verdana,sans-serif" font-weight="400" font-size="46" transform="matrix(6.12323e-17 -1 1 6.12323e-17 3019.73 1024.75)">Number of Crawler Profiles</text>
		</g>
		<rect x="2918.5" y="347.5" width="1760" height="1043" stroke="#D9D9D9" stroke-width="3.4375" stroke-linejoin="round" stroke-miterlimit="10" fill="none" />
		<g>
			<path d="M3228.5 1038 3249.4411764705883 1038 3270.3823529411766 1038 3291.323529411765 1038 3312.264705882353 1038 3333.205882352941 1038 3354.1470588235293 1038 3375.0882352941176 1038 3396.029411764706 1038 3416.970588235294 1038 3437.9117647058824 1038 3458.8529411764707 1038 3479.794117647059 1038 3500.735294117647 1038 3521.676470588235 1038 3542.6176470588234 1038 3563.5588235294117 1038 3584.5 1038 3605.4411764705883 1038 3626.3823529411766 1038 3647.323529411765 1038 3668.264705882353 1038 3689.205882352941 1038 3710.1470588235293 1038 3731.0882352941176 1038 3752.029411764706 1038 3772.970588235294 1038 3793.9117647058824 1038 3814.8529411764707 1038 3835.7941176470586 1038 3856.735294117647 1038 3877.676470588235 1038 3898.6176470588234 1038 3919.5588235294117 1038 3940.5 1038 3961.4411764705883 1038 3982.3823529411766 1038 4003.323529411765 1038 4024.264705882353 1038 4045.2058823529414 1038 4066.1470588235293 1038 4087.0882352941176 1038 4108.029411764706 1038 4128.970588235294 1038 4149.911764705882 1038 4170.85294117647 1038 4191.794117647059 1038 4212.735294117647 1038 4233.676470588235 1038 4254.617647058823 1038 4275.558823529412 1038 4296.5 1038 4296.5 400.031746031746 4275.558823529412 402.06349206349205 4254.617647058823 402.06349206349205 4233.676470588235 402.06349206349205 4212.735294117647 404.0952380952381 4191.794117647059 404.0952380952381 4170.85294117647 404.0952380952381 4149.911764705882 406.1269841269842 4128.970588235294 406.1269841269842 4108.029411764706 408.15873015873024 4087.0882352941176 408.15873015873024 4066.1470588235293 410.19047619047626 4045.2058823529414 412.2222222222223 4024.264705882353 414.2539682539683 4003.323529411765 414.2539682539683 3982.3823529411766 418.31746031746036 3961.4411764705883 420.3492063492064 3940.5 420.3492063492064 3919.5588235294117 420.3492063492064 3898.6176470588234 424.41269841269843 3877.676470588235 426.44444444444446 3856.735294117647 432.53968253968253 3835.7941176470586 440.66666666666674 3814.8529411764707 452.8571428571429 3793.9117647058824 458.95238095238096 3772.970588235294 458.95238095238096 3752.029411764706 456.92063492063494 3731.0882352941176 460.984126984127 3710.1470588235293 467.07936507936506 3689.205882352941 475.2063492063493 3668.264705882353 475.2063492063493 3647.323529411765 477.2380952380953 3626.3823529411766 487.3968253968254 3605.4411764705883 491.46031746031747 3584.5 495.5238095238095 3563.5588235294117 495.5238095238095 3542.6176470588234 499.58730158730157 3521.676470588235 499.58730158730157 3500.735294117647 501.6190476190477 3479.794117647059 503.65079365079373 3458.8529411764707 511.7777777777778 3437.9117647058824 517.8730158730159 3416.970588235294 526 3396.029411764706 532.0952380952381 3375.0882352941176 542.2539682539683 3354.1470588235293 546.3174603174604 3333.205882352941 546.3174603174604 3312.264705882353 546.3174603174604 3291.323529411765 548.3492063492064 3270.3823529411766 552.4126984126984 3249.4411764705883 560.5396825396826 3228.5 564.6031746031747 3228.5 1038Z" fill="#005aa6" opacity="0.9" />
		</g>
		<g>
			<path d="M3228.5 564.6031746031747 3249.4411764705883 560.5396825396826 3270.3823529411766 552.4126984126984 3291.323529411765 548.3492063492064 3312.264705882353 546.3174603174604 3333.205882352941 546.3174603174604 3354.1470588235293 546.3174603174604 3375.0882352941176 542.2539682539683 3396.029411764706 532.0952380952381 3416.970588235294 526 3437.9117647058824 517.8730158730159 3458.8529411764707 511.7777777777778 3479.794117647059 503.65079365079373 3500.735294117647 501.6190476190477 3521.676470588235 499.58730158730157 3542.6176470588234 499.58730158730157 3563.5588235294117 495.5238095238095 3584.5 495.5238095238095 3605.4411764705883 491.46031746031747 3626.3823529411766 487.3968253968254 3647.323529411765 477.2380952380953 3668.264705882353 475.2063492063493 3689.205882352941 475.2063492063493 3710.1470588235293 467.07936507936506 3731.0882352941176 460.984126984127 3752.029411764706 456.92063492063494 3772.970588235294 458.95238095238096 3793.9117647058824 458.95238095238096 3814.8529411764707 452.8571428571429 3835.7941176470586 440.66666666666674 3856.735294117647 432.53968253968253 3877.676470588235 426.44444444444446 3898.6176470588234 424.41269841269843 3919.5588235294117 420.3492063492064 3940.5 420.3492063492064 3961.4411764705883 420.3492063492064 3982.3823529411766 418.31746031746036 4003.323529411765 414.2539682539683 4024.264705882353 414.2539682539683 4045.2058823529414 412.2222222222223 4066.1470588235293 410.19047619047626 4087.0882352941176 408.15873015873024 4108.029411764706 408.15873015873024 4128.970588235294 406.1269841269842 4149.911764705882 406.1269841269842 4170.85294117647 404.0952380952381 4191.794117647059 404.0952380952381 4212.735294117647 404.0952380952381 4233.676470588235 402.06349206349205 4254.617647058823 402.06349206349205 4275.558823529412 402.06349206349205 4296.5 400.031746031746 4296.5 398 4275.558823529412 400.031746031746 4254.617647058823 400.031746031746 4233.676470588235 400.031746031746 4212.735294117647 402.06349206349205 4191.794117647059 402.06349206349205 4170.85294117647 402.06349206349205 4149.911764705882 404.0952380952382 4128.970588235294 404.0952380952382 4108.029411764706 406.1269841269842 4087.0882352941176 406.1269841269842 4066.1470588235293 408.15873015873024 4045.2058823529414 410.19047619047626 4024.264705882353 412.2222222222223 4003.323529411765 412.2222222222223 3982.3823529411766 416.28571428571433 3961.4411764705883 418.31746031746036 3940.5 418.31746031746036 3919.5588235294117 418.31746031746036 3898.6176470588234 422.3809523809524 3877.676470588235 424.41269841269843 3856.735294117647 430.5079365079365 3835.7941176470586 438.6349206349207 3814.8529411764707 450.82539682539687 3793.9117647058824 456.92063492063494 3772.970588235294 456.92063492063494 3752.029411764706 454.8888888888889 3731.0882352941176 458.95238095238096 3710.1470588235293 465.04761904761904 3689.205882352941 473.17460317460325 3668.264705882353 473.17460317460325 3647.323529411765 475.2063492063493 3626.3823529411766 485.3650793650794 3605.4411764705883 489.42857142857144 3584.5 493.4920634920635 3563.5588235294117 493.4920634920635 3542.6176470588234 497.55555555555554 3521.676470588235 497.55555555555554 3500.735294117647 499.5873015873017 3479.794117647059 501.6190476190477 3458.8529411764707 509.7460317460318 3437.9117647058824 515.8412698412699 3416.970588235294 523.968253968254 3396.029411764706 530.063492063492 3375.0882352941176 540.2222222222223 3354.1470588235293 544.2857142857143 3333.205882352941 544.2857142857143 3312.264705882353 544.2857142857143 3291.323529411765 546.3174603174604 3270.3823529411766 550.3809523809524 3249.4411764705883 558.5079365079366 3228.5 562.5714285714287 3228.5 564.6031746031747Z" fill="#e62d39" opacity="0.9" />
		</g>
		<g>
			<rect x="4372" y="431" width="22.9995" height="23" fill="#005aa6" />
		</g>
		<g>
			<text fill="#595959" font-family="Verdana,sans-serif" font-weight="400" font-size="41" transform="matrix(1 0 0 1 4404.56 454)">Crawler</text>
		</g>
		<g>
			<rect x="4372" y="508" width="22.9995" height="23" fill="#e62d39" />
		</g>
		<g>
			<text fill="#595959" font-family="Verdana,sans-serif" font-weight="400" font-size="41" transform="matrix(1 0 0 1 4404.56 531)">Non-Crawler</text>
		</g>
	</g>
</svg>
