<svg width="1763" height="1046"
    xmlns="http://www.w3.org/2000/svg"
	xmlns:xlink="http://www.w3.org/1999/xlink" xml:space="preserve" overflow="hidden">
	<defs>
		<clipPath id="clip0">
			<rect x="2917" y="346" width="1763" height="1046"/>
		</clipPath>
	</defs>
	<g clip-path="url(#clip0)" transform="translate(-2917 -346)">
		<rect x="2918" y="347" width="1760" height="1043" fill="#FFFFFF" />
		<g>
			<path d="
			M3228.5 974.532 4296.5 974.532
			M3228.5 910.53 4296.5 910.53
			M3228.5 846.528 4296.5 846.528
			M3228.5 781.526 4296.5 781.526
			M3228.5 717.524 4296.5 717.524
			M3228.5 653.522 4296.5 653.522
			M3228.5 589.52 4296.5 589.52
			M3228.5 525.517 4296.5 525.517
			M3228.5 461.515 4296.5 461.515
			M3228.5 397.5 4296.5 397.5" stroke="#D9D9D9" stroke-width="3.4375" stroke-linejoin="round" stroke-miterlimit="10" fill="none" />
		</g>
		<g>
			<path d="M 1038.5 4296.5 1038.5" stroke="#D9D9D9" stroke-width="3.4375" stroke-linejoin="round" stroke-miterlimit="10" fill="none" fill-rule="evenodd" />
		</g>
		<g>
			<text fill="#595959" font-family="Verdana,Open Sans,DejaVu Sans,sans-serif" font-weight="400" font-size="41" transform="matrix(6.12323e-17 -1 1 6.12323e-17 3243.544677734375 1209.70849609375)">18-Nov</text>
		</g>
		<g>
			<text fill="#595959" font-family="Verdana,Open Sans,DejaVu Sans,sans-serif" font-weight="400" font-size="41" transform="matrix(6.12323e-17 -1 1 6.12323e-17 3330.728351203763 1207.1259765625)">23-Dec</text>
		</g>
		<g>
			<text fill="#595959" font-family="Verdana,Open Sans,DejaVu Sans,sans-serif" font-weight="400" font-size="41" transform="matrix(6.12323e-17 -1 1 6.12323e-17 3421.5856086575254 1191.6909103393555)">20-Jan</text>
		</g>
		<g>
			<text fill="#595959" font-family="Verdana,Open Sans,DejaVu Sans,sans-serif" font-weight="400" font-size="41" transform="matrix(6.12323e-17 -1 1 6.12323e-17 3505.8264110331634 1201.3203125)">17-Feb</text>
		</g>
		<g>
			<text fill="#595959" font-family="Verdana,Open Sans,DejaVu Sans,sans-serif" font-weight="400" font-size="41" transform="matrix(6.12323e-17 -1 1 6.12323e-17 3592.069166533801 1210.2890625)">17-Mar</text>
		</g>
		<g>
			<text fill="#595959" font-family="Verdana,Open Sans,DejaVu Sans,sans-serif" font-weight="400" font-size="41" transform="matrix(6.12323e-17 -1 1 6.12323e-17 3684.057527503189 1201.5405197143555)">14-Apr</text>
		</g>
		<g>
			<text fill="#595959" font-family="Verdana,Open Sans,DejaVu Sans,sans-serif" font-weight="400" font-size="41" transform="matrix(6.12323e-17 -1 1 6.12323e-17 3771.3713279257017 1214.75341796875)">12-May</text>
		</g>
		<g>
			<text fill="#595959" font-family="Verdana,Open Sans,DejaVu Sans,sans-serif" font-weight="400" font-size="41" transform="matrix(6.12323e-17 -1 1 6.12323e-17 3857.483956473214 1192.2914962768555)">16-Jun</text>
		</g>
		<g>
			<text fill="#595959" font-family="Verdana,Open Sans,DejaVu Sans,sans-serif" font-weight="400" font-size="41" transform="matrix(6.12323e-17 -1 1 6.12323e-17 3945.398342833227 1177.2768478393555)">14-Jul</text>
		</g>
		<g>
			<text fill="#595959" font-family="Verdana,Open Sans,DejaVu Sans,sans-serif" font-weight="400" font-size="41" transform="matrix(6.12323e-17 -1 1 6.12323e-17 4032.7722018494896 1206.90576171875)">11-Aug</text>
		</g>
		<g>
			<text fill="#595959" font-family="Verdana,Open Sans,DejaVu Sans,sans-serif" font-weight="400" font-size="41" transform="matrix(6.12323e-17 -1 1 6.12323e-17 4120.126041334503 1204.38330078125)">08-Sep</text>
		</g>
		<g>
			<text fill="#595959" font-family="Verdana,Open Sans,DejaVu Sans,sans-serif" font-weight="400" font-size="41" transform="matrix(6.12323e-17 -1 1 6.12323e-17 4202.5851054288905 1201.1000900268555)">06-Oct</text>
		</g>
		<g>
			<text fill="#595959" font-family="Verdana,Open Sans,DejaVu Sans,sans-serif" font-weight="400" font-size="41" transform="matrix(6.12323e-17 -1 1 6.12323e-17 4289.7687788982785 1211.43017578125)">03-Nov</text>
		</g>
		<g>
			<text fill="#595959" font-family="Verdana,Open Sans,DejaVu Sans,sans-serif" font-weight="400" font-size="41" transform="matrix(1 0 0 1 3169.14111328125 1050)">0</text>
		</g>
		<g>
			<text fill="#595959" font-family="Verdana,Open Sans,DejaVu Sans,sans-serif" font-weight="400" font-size="41" transform="matrix(1 0 0 1 3146.07861328125 922)">68</text>
		</g>
		<g>
			<text fill="#595959" font-family="Verdana,Open Sans,DejaVu Sans,sans-serif" font-weight="400" font-size="41" transform="matrix(1 0 0 1 3124.29736328125 794)">135</text>
		</g>
		<g>
			<text fill="#595959" font-family="Verdana,Open Sans,DejaVu Sans,sans-serif" font-weight="400" font-size="41" transform="matrix(1 0 0 1 3122.57568359375 666)">203</text>
		</g>
		<g>
			<text fill="#595959" font-family="Verdana,Open Sans,DejaVu Sans,sans-serif" font-weight="400" font-size="41" transform="matrix(1 0 0 1 3122.21533203125 538)">270</text>
		</g>
		<g>
			<text fill="#595959" font-family="Verdana,Open Sans,DejaVu Sans,sans-serif" font-weight="400" font-size="41" transform="matrix(1 0 0 1 3122.17529296875 410)">338</text>
		</g>
		<g>
			<text fill="#595959" font-family="Verdana,Open Sans,DejaVu Sans,sans-serif" font-weight="400" font-size="41" transform="matrix(1 0 0 1 3556.97119140625 1321)">Week Commencing</text>
		</g>
		<g>
			<text fill="#595959" font-family="Verdana,Open Sans,DejaVu Sans,sans-serif" font-weight="400" font-size="46" transform="matrix(6.12323e-17 -1 1 6.12323e-17 3019.73 1005.4858093261719)">Number of Crawler Profiles</text>
		</g>
		<rect x="2918.5" y="347.5" width="1760" height="1043" stroke="#D9D9D9" stroke-width="3.4375" stroke-linejoin="round" stroke-miterlimit="10" fill="none" />
		<g>
			<path d="M3228.5 1038 3250.295918367347 1038 3272.091836734694 1038 3293.887755102041 1038 3315.683673469388 1038 3337.4795918367345 1038 3359.2755102040815 1038 3381.0714285714284 1038 3402.8673469387754 1038 3424.6632653061224 1038 3446.4591836734694 1038 3468.2551020408164 1038 3490.0510204081634 1038 3511.8469387755104 1038 3533.6428571428573 1038 3555.4387755102043 1038 3577.234693877551 1038 3599.030612244898 1038 3620.826530612245 1038 3642.622448979592 1038 3664.418367346939 1038 3686.214285714286 1038 3708.0102040816328 1038 3729.8061224489797 1038 3751.6020408163267 1038 3773.3979591836733 1038 3795.1938775510203 1038 3816.9897959183672 1038 3838.785714285714 1038 3860.581632653061 1038 3882.377551020408 1038 3904.173469387755 1038 3925.969387755102 1038 3947.765306122449 1038 3969.5612244897957 1038 3991.357142857143 1038 4013.1530612244896 1038 4034.9489795918366 1038 4056.7448979591836 1038 4078.5408163265306 1038 4100.336734693878 1038 4122.132653061224 1038 4143.928571428572 1038 4165.724489795918 1038 4187.5204081632655 1038 4209.316326530612 1038 4231.1122448979595 1038 4252.908163265306 1038 4274.7040816326535 1038 4296.5 1038 4296.5 399.89349112426044 4274.7040816326535 403.6804733727811 4252.908163265306 403.6804733727811 4231.1122448979595 403.6804733727811 4209.316326530612 405.5739644970414 4187.5204081632655 405.5739644970414 4165.724489795918 405.5739644970414 4143.928571428572 413.1479289940829 4122.132653061224 413.1479289940829 4100.336734693878 413.1479289940829 4078.5408163265306 413.1479289940829 4056.7448979591836 413.1479289940829 4034.9489795918366 413.1479289940829 4013.1530612244896 413.1479289940829 3991.357142857143 413.1479289940829 3969.5612244897957 413.1479289940829 3947.765306122449 415.04142011834324 3925.969387755102 415.04142011834324 3904.173469387755 416.93491124260356 3882.377551020408 416.93491124260356 3860.581632653061 426.4023668639054 3838.785714285714 428.2958579881657 3816.9897959183672 428.2958579881657 3795.1938775510203 432.0828402366865 3773.3979591836733 433.9763313609468 3751.6020408163267 439.6568047337279 3729.8061224489797 441.5502958579882 3708.0102040816328 443.4437869822485 3686.214285714286 445.33727810650896 3664.418367346939 445.33727810650896 3642.622448979592 445.33727810650896 3620.826530612245 447.2307692307693 3599.030612244898 447.2307692307693 3577.234693877551 447.2307692307693 3555.4387755102043 449.1242603550296 3533.6428571428573 449.1242603550296 3511.8469387755104 451.0177514792899 3490.0510204081634 451.0177514792899 3468.2551020408164 452.91124260355036 3446.4591836734694 454.8047337278107 3424.6632653061224 456.698224852071 3402.8673469387754 456.698224852071 3381.0714285714284 460.48520710059177 3359.2755102040815 462.3786982248521 3337.4795918367345 462.3786982248521 3315.683673469388 462.3786982248521 3293.887755102041 466.16568047337284 3272.091836734694 468.05917159763317 3250.295918367347 473.73964497041425 3228.5 481.31360946745565 3228.5 1038Z" fill="#005aa6" opacity="0.9" />
		</g>
		<g>
			<path d="M3228.5 481.31360946745565 3250.295918367347 473.73964497041425 3272.091836734694 468.05917159763317 3293.887755102041 466.16568047337284 3315.683673469388 462.3786982248521 3337.4795918367345 462.3786982248521 3359.2755102040815 462.3786982248521 3381.0714285714284 460.48520710059177 3402.8673469387754 456.698224852071 3424.6632653061224 456.698224852071 3446.4591836734694 454.8047337278107 3468.2551020408164 452.91124260355036 3490.0510204081634 451.0177514792899 3511.8469387755104 451.0177514792899 3533.6428571428573 449.1242603550296 3555.4387755102043 449.1242603550296 3577.234693877551 447.2307692307693 3599.030612244898 447.2307692307693 3620.826530612245 447.2307692307693 3642.622448979592 445.33727810650896 3664.418367346939 445.33727810650896 3686.214285714286 445.33727810650896 3708.0102040816328 443.4437869822485 3729.8061224489797 441.5502958579882 3751.6020408163267 439.6568047337279 3773.3979591836733 433.9763313609468 3795.1938775510203 432.0828402366865 3816.9897959183672 428.2958579881657 3838.785714285714 428.2958579881657 3860.581632653061 426.4023668639054 3882.377551020408 416.93491124260356 3904.173469387755 416.93491124260356 3925.969387755102 415.04142011834324 3947.765306122449 415.04142011834324 3969.5612244897957 413.1479289940829 3991.357142857143 413.1479289940829 4013.1530612244896 413.1479289940829 4034.9489795918366 413.1479289940829 4056.7448979591836 413.1479289940829 4078.5408163265306 413.1479289940829 4100.336734693878 413.1479289940829 4122.132653061224 413.1479289940829 4143.928571428572 413.1479289940829 4165.724489795918 405.5739644970414 4187.5204081632655 405.5739644970414 4209.316326530612 405.5739644970414 4231.1122448979595 403.6804733727811 4252.908163265306 403.6804733727811 4274.7040816326535 403.6804733727811 4296.5 399.89349112426044 4296.5 398.00000000000006 4274.7040816326535 401.7869822485207 4252.908163265306 401.7869822485207 4231.1122448979595 401.7869822485207 4209.316326530612 403.680473372781 4187.5204081632655 403.680473372781 4165.724489795918 403.680473372781 4143.928571428572 411.25443786982254 4122.132653061224 411.25443786982254 4100.336734693878 411.25443786982254 4078.5408163265306 411.25443786982254 4056.7448979591836 411.25443786982254 4034.9489795918366 411.25443786982254 4013.1530612244896 411.25443786982254 3991.357142857143 411.25443786982254 3969.5612244897957 411.25443786982254 3947.765306122449 413.14792899408286 3925.969387755102 413.14792899408286 3904.173469387755 415.0414201183432 3882.377551020408 415.0414201183432 3860.581632653061 424.508875739645 3838.785714285714 426.40236686390534 3816.9897959183672 426.40236686390534 3795.1938775510203 430.1893491124261 3773.3979591836733 432.0828402366864 3751.6020408163267 437.7633136094675 3729.8061224489797 439.6568047337278 3708.0102040816328 441.55029585798815 3686.214285714286 443.4437869822486 3664.418367346939 443.4437869822486 3642.622448979592 443.4437869822486 3620.826530612245 445.3372781065089 3599.030612244898 445.3372781065089 3577.234693877551 445.3372781065089 3555.4387755102043 447.2307692307692 3533.6428571428573 447.2307692307692 3511.8469387755104 449.12426035502955 3490.0510204081634 449.12426035502955 3468.2551020408164 451.01775147929 3446.4591836734694 452.9112426035503 3424.6632653061224 454.8047337278106 3402.8673469387754 454.8047337278106 3381.0714285714284 458.5917159763314 3359.2755102040815 460.4852071005917 3337.4795918367345 460.4852071005917 3315.683673469388 460.4852071005917 3293.887755102041 464.27218934911247 3272.091836734694 466.1656804733728 3250.295918367347 471.84615384615387 3228.5 479.42011834319527 3228.5 481.31360946745565Z" fill="#e62d39" opacity="0.9" />
		</g>
		<g>
			<rect x="4372" y="431" width="22.9995" height="23" fill="#005aa6" />
		</g>
		<g>
			<text fill="#595959" font-family="Verdana,Open Sans,DejaVu Sans,sans-serif" font-weight="400" font-size="41" transform="matrix(1 0 0 1 4404.56 454)">Crawler</text>
		</g>
		<g>
			<rect x="4372" y="508" width="22.9995" height="23" fill="#e62d39" />
		</g>
		<g>
			<text fill="#595959" font-family="Verdana,Open Sans,DejaVu Sans,sans-serif" font-weight="400" font-size="41" transform="matrix(1 0 0 1 4404.56 531)">Non-Crawler</text>
		</g>
	</g>
</svg>
