<svg width="1763" height="1046"
    xmlns="http://www.w3.org/2000/svg"
	xmlns:xlink="http://www.w3.org/1999/xlink" xml:space="preserve" overflow="hidden">
	<defs>
		<clipPath id="clip0">
			<rect x="2917" y="346" width="1763" height="1046"/>
		</clipPath>
	</defs>
	<g clip-path="url(#clip0)" transform="translate(-2917 -346)">
		<rect x="2918" y="347" width="1760" height="1043" fill="#FFFFFF" />
		<g>
			<path d="
			M3228.5 974.532 4296.5 974.532
			M3228.5 910.53 4296.5 910.53
			M3228.5 846.528 4296.5 846.528
			M3228.5 781.526 4296.5 781.526
			M3228.5 717.524 4296.5 717.524
			M3228.5 653.522 4296.5 653.522
			M3228.5 589.52 4296.5 589.52
			M3228.5 525.517 4296.5 525.517
			M3228.5 461.515 4296.5 461.515
			M3228.5 397.5 4296.5 397.5" stroke="#D9D9D9" stroke-width="3.4375" stroke-linejoin="round" stroke-miterlimit="10" fill="none" />
		</g>
		<g>
			<path d="M 1038.5 4296.5 1038.5" stroke="#D9D9D9" stroke-width="3.4375" stroke-linejoin="round" stroke-miterlimit="10" fill="none" fill-rule="evenodd" />
		</g>
		<g>
			<text fill="#595959" font-family="Verdana,Open Sans,DejaVu Sans,sans-serif" font-weight="400" font-size="41" transform="matrix(6.12323e-17 -1 1 6.12323e-17 3247.1982421875 1192.2914962768555)">16-Jun</text>
		</g>
		<g>
			<text fill="#595959" font-family="Verdana,Open Sans,DejaVu Sans,sans-serif" font-weight="400" font-size="41" transform="matrix(6.12323e-17 -1 1 6.12323e-17 3330.082801231971 1177.2768478393555)">14-Jul</text>
		</g>
		<g>
			<text fill="#595959" font-family="Verdana,Open Sans,DejaVu Sans,sans-serif" font-weight="400" font-size="41" transform="matrix(6.12323e-17 -1 1 6.12323e-17 3412.4268329326924 1206.90576171875)">11-Aug</text>
		</g>
		<g>
			<text fill="#595959" font-family="Verdana,Open Sans,DejaVu Sans,sans-serif" font-weight="400" font-size="41" transform="matrix(6.12323e-17 -1 1 6.12323e-17 3494.7508451021636 1204.38330078125)">08-Sep</text>
		</g>
		<g>
			<text fill="#595959" font-family="Verdana,Open Sans,DejaVu Sans,sans-serif" font-weight="400" font-size="41" transform="matrix(6.12323e-17 -1 1 6.12323e-17 3572.1800818810098 1201.1000900268555)">06-Oct</text>
		</g>
		<g>
			<text fill="#595959" font-family="Verdana,Open Sans,DejaVu Sans,sans-serif" font-weight="400" font-size="41" transform="matrix(6.12323e-17 -1 1 6.12323e-17 3654.333928034856 1211.43017578125)">03-Nov</text>
		</g>
		<g>
			<text fill="#595959" font-family="Verdana,Open Sans,DejaVu Sans,sans-serif" font-weight="400" font-size="41" transform="matrix(6.12323e-17 -1 1 6.12323e-17 3736.487774188702 1207.0859375)">01-Dec</text>
		</g>
		<g>
			<text fill="#595959" font-family="Verdana,Open Sans,DejaVu Sans,sans-serif" font-weight="400" font-size="41" transform="matrix(6.12323e-17 -1 1 6.12323e-17 3818.621600811298 1207.1259765625)">29-Dec</text>
		</g>
		<g>
			<text fill="#595959" font-family="Verdana,Open Sans,DejaVu Sans,sans-serif" font-weight="400" font-size="41" transform="matrix(6.12323e-17 -1 1 6.12323e-17 3904.4290114182695 1191.6909103393555)">26-Jan</text>
		</g>
		<g>
			<text fill="#595959" font-family="Verdana,Open Sans,DejaVu Sans,sans-serif" font-weight="400" font-size="41" transform="matrix(6.12323e-17 -1 1 6.12323e-17 3983.6600060096152 1203.08203125)">23-Feb</text>
		</g>
		<g>
			<text fill="#595959" font-family="Verdana,Open Sans,DejaVu Sans,sans-serif" font-weight="400" font-size="41" transform="matrix(6.12323e-17 -1 1 6.12323e-17 4065.083139272837 1212.05078125)">23-Mar</text>
		</g>
		<g>
			<text fill="#595959" font-family="Verdana,Open Sans,DejaVu Sans,sans-serif" font-weight="400" font-size="41" transform="matrix(6.12323e-17 -1 1 6.12323e-17 4151.981614332933 1203.3022384643555)">20-Apr</text>
		</g>
		<g>
			<text fill="#595959" font-family="Verdana,Open Sans,DejaVu Sans,sans-serif" font-weight="400" font-size="41" transform="matrix(6.12323e-17 -1 1 6.12323e-17 4234.115440955529 1214.75341796875)">18-May</text>
		</g>
		<g>
			<text fill="#595959" font-family="Verdana,Open Sans,DejaVu Sans,sans-serif" font-weight="400" font-size="41" transform="matrix(6.12323e-17 -1 1 6.12323e-17 4314.988037109375 1192.2914962768555)">15-Jun</text>
		</g>
		<g>
			<text fill="#595959" font-family="Verdana,Open Sans,DejaVu Sans,sans-serif" font-weight="400" font-size="41" transform="matrix(1 0 0 1 3169.14111328125 1050)">0</text>
		</g>
		<g>
			<text fill="#595959" font-family="Verdana,Open Sans,DejaVu Sans,sans-serif" font-weight="400" font-size="41" transform="matrix(1 0 0 1 3145.73828125 922)">80</text>
		</g>
		<g>
			<text fill="#595959" font-family="Verdana,Open Sans,DejaVu Sans,sans-serif" font-weight="400" font-size="41" transform="matrix(1 0 0 1 3123.97705078125 794)">160</text>
		</g>
		<g>
			<text fill="#595959" font-family="Verdana,Open Sans,DejaVu Sans,sans-serif" font-weight="400" font-size="41" transform="matrix(1 0 0 1 3122.21533203125 666)">240</text>
		</g>
		<g>
			<text fill="#595959" font-family="Verdana,Open Sans,DejaVu Sans,sans-serif" font-weight="400" font-size="41" transform="matrix(1 0 0 1 3122.09521484375 538)">320</text>
		</g>
		<g>
			<text fill="#595959" font-family="Verdana,Open Sans,DejaVu Sans,sans-serif" font-weight="400" font-size="41" transform="matrix(1 0 0 1 3121.07421875 410)">400</text>
		</g>
		<g>
			<text fill="#595959" font-family="Verdana,Open Sans,DejaVu Sans,sans-serif" font-weight="400" font-size="41" transform="matrix(1 0 0 1 3556.97119140625 1321)">Week Commencing</text>
		</g>
		<g>
			<text fill="#595959" font-family="Verdana,Open Sans,DejaVu Sans,sans-serif" font-weight="400" font-size="46" transform="matrix(6.12323e-17 -1 1 6.12323e-17 3019.73 1005.4858093261719)">Number of Crawler Profiles</text>
		</g>
		<rect x="2918.5" y="347.5" width="1760" height="1043" stroke="#D9D9D9" stroke-width="3.4375" stroke-linejoin="round" stroke-miterlimit="10" fill="none" />
		<g>
			<path d="M3228.5 1038 3249.0384615384614 1038 3269.576923076923 1038 3290.1153846153848 1038 3310.653846153846 1038 3331.1923076923076 1038 3351.730769230769 1038 3372.269230769231 1038 3392.8076923076924 1038 3413.346153846154 1038 3433.8846153846152 1038 3454.423076923077 1038 3474.9615384615386 1038 3495.5 1038 3516.0384615384614 1038 3536.576923076923 1038 3557.1153846153848 1038 3577.653846153846 1038 3598.1923076923076 1038 3618.7307692307695 1038 3639.269230769231 1038 3659.8076923076924 1038 3680.346153846154 1038 3700.8846153846152 1038 3721.423076923077 1038 3741.9615384615386 1038 3762.5 1038 3783.0384615384614 1038 3803.576923076923 1038 3824.1153846153848 1038 3844.653846153846 1038 3865.1923076923076 1038 3885.7307692307695 1038 3906.269230769231 1038 3926.8076923076924 1038 3947.346153846154 1038 3967.8846153846152 1038 3988.423076923077 1038 4008.9615384615386 1038 4029.5 1038 4050.038461538462 1038 4070.576923076923 1038 4091.1153846153848 1038 4111.653846153846 1038 4132.192307692308 1038 4152.7307692307695 1038 4173.2692307692305 1038 4193.807692307692 1038 4214.346153846154 1038 4234.884615384615 1038 4255.423076923077 1038 4275.961538461539 1038 4296.5 1038 4296.5 399.5999999999999 4275.961538461539 399.5999999999999 4255.423076923077 418.79999999999995 4234.884615384615 423.5999999999999 4214.346153846154 423.5999999999999 4193.807692307692 423.5999999999999 4173.2692307692305 423.5999999999999 4152.7307692307695 423.5999999999999 4132.192307692308 426.79999999999995 4111.653846153846 433.19999999999993 4091.1153846153848 433.19999999999993 4070.576923076923 433.19999999999993 4050.038461538462 449.19999999999993 4029.5 449.19999999999993 4008.9615384615386 449.19999999999993 3988.423076923077 452.4 3967.8846153846152 455.6 3947.346153846154 452.4 3926.8076923076924 460.4 3906.269230769231 481.19999999999993 3885.7307692307695 482.79999999999995 3865.1923076923076 484.4 3844.653846153846 484.4 3824.1153846153848 484.4 3803.576923076923 486 3783.0384615384614 489.19999999999993 3762.5 490.79999999999995 3741.9615384615386 492.4 3721.423076923077 497.19999999999993 3700.8846153846152 497.19999999999993 3680.346153846154 497.19999999999993 3659.8076923076924 498.79999999999995 3639.269230769231 502 3618.7307692307695 502 3598.1923076923076 502 3577.653846153846 503.6 3557.1153846153848 503.6 3536.576923076923 503.6 3516.0384615384614 510 3495.5 510 3474.9615384615386 510 3454.423076923077 510 3433.8846153846152 510 3413.346153846154 510 3392.8076923076924 510 3372.269230769231 510 3351.730769230769 510 3331.1923076923076 511.6 3310.653846153846 511.6 3290.1153846153848 513.1999999999999 3269.576923076923 513.1999999999999 3249.0384615384614 521.1999999999999 3228.5 522.8 3228.5 1038Z" fill="#005aa6" opacity="0.9" />
		</g>
		<g>
			<path d="M3228.5 522.8 3249.0384615384614 521.1999999999999 3269.576923076923 513.1999999999999 3290.1153846153848 513.1999999999999 3310.653846153846 511.6 3331.1923076923076 511.6 3351.730769230769 510 3372.269230769231 510 3392.8076923076924 510 3413.346153846154 510 3433.8846153846152 510 3454.423076923077 510 3474.9615384615386 510 3495.5 510 3516.0384615384614 510 3536.576923076923 503.6 3557.1153846153848 503.6 3577.653846153846 503.6 3598.1923076923076 502 3618.7307692307695 502 3639.269230769231 502 3659.8076923076924 498.79999999999995 3680.346153846154 497.19999999999993 3700.8846153846152 497.19999999999993 3721.423076923077 497.19999999999993 3741.9615384615386 492.4 3762.5 490.79999999999995 3783.0384615384614 489.19999999999993 3803.576923076923 486 3824.1153846153848 484.4 3844.653846153846 484.4 3865.1923076923076 484.4 3885.7307692307695 482.79999999999995 3906.269230769231 481.19999999999993 3926.8076923076924 460.4 3947.346153846154 452.4 3967.8846153846152 455.6 3988.423076923077 452.4 4008.9615384615386 449.19999999999993 4029.5 449.19999999999993 4050.038461538462 449.19999999999993 4070.576923076923 433.19999999999993 4091.1153846153848 433.19999999999993 4111.653846153846 433.19999999999993 4132.192307692308 426.79999999999995 4152.7307692307695 423.5999999999999 4173.2692307692305 423.5999999999999 4193.807692307692 423.5999999999999 4214.346153846154 423.5999999999999 4234.884615384615 423.5999999999999 4255.423076923077 418.79999999999995 4275.961538461539 399.5999999999999 4296.5 399.5999999999999 4296.5 397.9999999999999 4275.961538461539 397.9999999999999 4255.423076923077 417.19999999999993 4234.884615384615 421.9999999999999 4214.346153846154 421.9999999999999 4193.807692307692 421.9999999999999 4173.2692307692305 421.9999999999999 4152.7307692307695 421.9999999999999 4132.192307692308 425.19999999999993 4111.653846153846 431.5999999999999 4091.1153846153848 431.5999999999999 4070.576923076923 431.5999999999999 4050.038461538462 447.5999999999999 4029.5 447.5999999999999 4008.9615384615386 447.5999999999999 3988.423076923077 450.79999999999995 3967.8846153846152 452.40000000000003 3947.346153846154 449.2 3926.8076923076924 458.79999999999995 3906.269230769231 479.5999999999999 3885.7307692307695 481.19999999999993 3865.1923076923076 482.79999999999995 3844.653846153846 482.79999999999995 3824.1153846153848 482.79999999999995 3803.576923076923 484.4 3783.0384615384614 487.5999999999999 3762.5 489.19999999999993 3741.9615384615386 490.79999999999995 3721.423076923077 495.5999999999999 3700.8846153846152 495.5999999999999 3680.346153846154 495.5999999999999 3659.8076923076924 497.19999999999993 3639.269230769231 500.4 3618.7307692307695 500.4 3598.1923076923076 500.4 3577.653846153846 502 3557.1153846153848 502 3536.576923076923 502 3516.0384615384614 508.4 3495.5 508.4 3474.9615384615386 508.4 3454.423076923077 508.4 3433.8846153846152 508.4 3413.346153846154 508.4 3392.8076923076924 508.4 3372.269230769231 508.4 3351.730769230769 508.4 3331.1923076923076 510 3310.653846153846 510 3290.1153846153848 511.5999999999999 3269.576923076923 511.5999999999999 3249.0384615384614 519.5999999999999 3228.5 521.1999999999999 3228.5 522.8Z" fill="#e62d39" opacity="0.9" />
		</g>
		<g>
			<rect x="4372" y="431" width="22.9995" height="23" fill="#005aa6" />
		</g>
		<g>
			<text fill="#595959" font-family="Verdana,Open Sans,DejaVu Sans,sans-serif" font-weight="400" font-size="41" transform="matrix(1 0 0 1 4404.56 454)">Crawler</text>
		</g>
		<g>
			<rect x="4372" y="508" width="22.9995" height="23" fill="#e62d39" />
		</g>
		<g>
			<text fill="#595959" font-family="Verdana,Open Sans,DejaVu Sans,sans-serif" font-weight="400" font-size="41" transform="matrix(1 0 0 1 4404.56 531)">Non-Crawler</text>
		</g>
	</g>
</svg>
