<svg width="1763" height="1046"
    xmlns="http://www.w3.org/2000/svg"
	xmlns:xlink="http://www.w3.org/1999/xlink" xml:space="preserve" overflow="hidden">
	<defs>
		<clipPath id="clip0">
			<rect x="2917" y="346" width="1763" height="1046"/>
		</clipPath>
	</defs>
	<g clip-path="url(#clip0)" transform="translate(-2917 -346)">
		<rect x="2918" y="347" width="1760" height="1043" fill="#FFFFFF" />
		<g>
			<path d="
			M3228.5 974.532 4296.5 974.532
			M3228.5 910.53 4296.5 910.53
			M3228.5 846.528 4296.5 846.528
			M3228.5 781.526 4296.5 781.526
			M3228.5 717.524 4296.5 717.524
			M3228.5 653.522 4296.5 653.522
			M3228.5 589.52 4296.5 589.52
			M3228.5 525.517 4296.5 525.517
			M3228.5 461.515 4296.5 461.515
			M3228.5 397.5 4296.5 397.5" stroke="#D9D9D9" stroke-width="3.4375" stroke-linejoin="round" stroke-miterlimit="10" fill="none" />
		</g>
		<g>
			<path d="M 1038.5 4296.5 1038.5" stroke="#D9D9D9" stroke-width="3.4375" stroke-linejoin="round" stroke-miterlimit="10" fill="none" fill-rule="evenodd" />
		</g>
		<g>
			<text fill="#595959" font-family="Verdana,Open Sans,DejaVu Sans,sans-serif" font-weight="400" font-size="41" transform="matrix(6.12323e-17 -1 1 6.12323e-17 3243.544677734375 1212.1708984375)">31-Mar</text>
		</g>
		<g>
			<text fill="#595959" font-family="Verdana,Open Sans,DejaVu Sans,sans-serif" font-weight="400" font-size="41" transform="matrix(6.12323e-17 -1 1 6.12323e-17 3333.709287109375 1203.3022384643555)">28-Apr</text>
		</g>
		<g>
			<text fill="#595959" font-family="Verdana,Open Sans,DejaVu Sans,sans-serif" font-weight="400" font-size="41" transform="matrix(6.12323e-17 -1 1 6.12323e-17 3419.149287109375 1216.51513671875)">26-May</text>
		</g>
		<g>
			<text fill="#595959" font-family="Verdana,Open Sans,DejaVu Sans,sans-serif" font-weight="400" font-size="41" transform="matrix(6.12323e-17 -1 1 6.12323e-17 3503.53826171875 1194.1733322143555)">30-Jun</text>
		</g>
		<g>
			<text fill="#595959" font-family="Verdana,Open Sans,DejaVu Sans,sans-serif" font-weight="400" font-size="41" transform="matrix(6.12323e-17 -1 1 6.12323e-17 3589.688955078125 1179.0385665893555)">28-Jul</text>
		</g>
		<g>
			<text fill="#595959" font-family="Verdana,Open Sans,DejaVu Sans,sans-serif" font-weight="400" font-size="41" transform="matrix(6.12323e-17 -1 1 6.12323e-17 3675.469287109375 1208.66748046875)">25-Aug</text>
		</g>
		<g>
			<text fill="#595959" font-family="Verdana,Open Sans,DejaVu Sans,sans-serif" font-weight="400" font-size="41" transform="matrix(6.12323e-17 -1 1 6.12323e-17 3760.909287109375 1204.42333984375)">22-Sep</text>
		</g>
		<g>
			<text fill="#595959" font-family="Verdana,Open Sans,DejaVu Sans,sans-serif" font-weight="400" font-size="41" transform="matrix(6.12323e-17 -1 1 6.12323e-17 3841.644697265625 1201.1401290893555)">20-Oct</text>
		</g>
		<g>
			<text fill="#595959" font-family="Verdana,Open Sans,DejaVu Sans,sans-serif" font-weight="400" font-size="41" transform="matrix(6.12323e-17 -1 1 6.12323e-17 3926.85447265625 1209.70849609375)">17-Nov</text>
		</g>
		<g>
			<text fill="#595959" font-family="Verdana,Open Sans,DejaVu Sans,sans-serif" font-weight="400" font-size="41" transform="matrix(6.12323e-17 -1 1 6.12323e-17 4012.29447265625 1205.3642578125)">15-Dec</text>
		</g>
		<g>
			<text fill="#595959" font-family="Verdana,Open Sans,DejaVu Sans,sans-serif" font-weight="400" font-size="41" transform="matrix(6.12323e-17 -1 1 6.12323e-17 4101.5982421875 1189.9291915893555)">12-Jan</text>
		</g>
		<g>
			<text fill="#595959" font-family="Verdana,Open Sans,DejaVu Sans,sans-serif" font-weight="400" font-size="41" transform="matrix(6.12323e-17 -1 1 6.12323e-17 4184.115390625 1203.0419921875)">09-Feb</text>
		</g>
		<g>
			<text fill="#595959" font-family="Verdana,Open Sans,DejaVu Sans,sans-serif" font-weight="400" font-size="41" transform="matrix(6.12323e-17 -1 1 6.12323e-17 4268.844697265625 1212.0107421875)">09-Mar</text>
		</g>
		<g>
			<text fill="#595959" font-family="Verdana,Open Sans,DejaVu Sans,sans-serif" font-weight="400" font-size="41" transform="matrix(1 0 0 1 3169.14111328125 1050)">0</text>
		</g>
		<g>
			<text fill="#595959" font-family="Verdana,Open Sans,DejaVu Sans,sans-serif" font-weight="400" font-size="41" transform="matrix(1 0 0 1 3144.31689453125 922)">74</text>
		</g>
		<g>
			<text fill="#595959" font-family="Verdana,Open Sans,DejaVu Sans,sans-serif" font-weight="400" font-size="41" transform="matrix(1 0 0 1 3124.05712890625 794)">148</text>
		</g>
		<g>
			<text fill="#595959" font-family="Verdana,Open Sans,DejaVu Sans,sans-serif" font-weight="400" font-size="41" transform="matrix(1 0 0 1 3129.3022499084473 666)">221</text>
		</g>
		<g>
			<text fill="#595959" font-family="Verdana,Open Sans,DejaVu Sans,sans-serif" font-weight="400" font-size="41" transform="matrix(1 0 0 1 3122.53564453125 538)">295</text>
		</g>
		<g>
			<text fill="#595959" font-family="Verdana,Open Sans,DejaVu Sans,sans-serif" font-weight="400" font-size="41" transform="matrix(1 0 0 1 3122.25537109375 410)">369</text>
		</g>
		<g>
			<text fill="#595959" font-family="Verdana,Open Sans,DejaVu Sans,sans-serif" font-weight="400" font-size="41" transform="matrix(1 0 0 1 3556.97119140625 1321)">Week Commencing</text>
		</g>
		<g>
			<text fill="#595959" font-family="Verdana,Open Sans,DejaVu Sans,sans-serif" font-weight="400" font-size="46" transform="matrix(6.12323e-17 -1 1 6.12323e-17 3019.73 1005.4858093261719)">Number of Crawler Profiles</text>
		</g>
		<rect x="2918.5" y="347.5" width="1760" height="1043" stroke="#D9D9D9" stroke-width="3.4375" stroke-linejoin="round" stroke-miterlimit="10" fill="none" />
		<g>
			<path d="M3228.5 1038 3249.86 1038 3271.22 1038 3292.58 1038 3313.94 1038 3335.3 1038 3356.66 1038 3378.02 1038 3399.38 1038 3420.74 1038 3442.1 1038 3463.46 1038 3484.82 1038 3506.18 1038 3527.54 1038 3548.9 1038 3570.26 1038 3591.62 1038 3612.98 1038 3634.34 1038 3655.7 1038 3677.06 1038 3698.42 1038 3719.7799999999997 1038 3741.14 1038 3762.5 1038 3783.86 1038 3805.2200000000003 1038 3826.58 1038 3847.94 1038 3869.3 1038 3890.66 1038 3912.02 1038 3933.38 1038 3954.74 1038 3976.1 1038 3997.46 1038 4018.8199999999997 1038 4040.18 1038 4061.54 1038 4082.9 1038 4104.26 1038 4125.62 1038 4146.98 1038 4168.34 1038 4189.7 1038 4211.0599999999995 1038 4232.42 1038 4253.78 1038 4275.139999999999 1038 4296.5 1038 4296.5 399.7344173441734 4275.139999999999 399.7344173441734 4253.78 399.7344173441734 4232.42 403.20325203252025 4211.0599999999995 406.6720867208671 4189.7 403.20325203252025 4168.34 411.8753387533875 4146.98 434.42276422764223 4125.62 436.1571815718157 4104.26 437.8915989159891 4082.9 437.8915989159891 4061.54 437.8915989159891 4040.18 439.6260162601626 4018.8199999999997 443.0948509485095 3997.46 444.82926829268285 3976.1 446.56368563685635 3954.74 451.7669376693766 3933.38 451.7669376693766 3912.02 451.7669376693766 3890.66 453.5013550135501 3869.3 456.97018970189697 3847.94 456.97018970189697 3826.58 456.97018970189697 3805.2200000000003 458.70460704607046 3783.86 458.70460704607046 3762.5 458.70460704607046 3741.14 465.6422764227642 3719.7799999999997 465.6422764227642 3698.42 465.6422764227642 3677.06 465.6422764227642 3655.7 465.6422764227642 3634.34 465.6422764227642 3612.98 465.6422764227642 3591.62 465.6422764227642 3570.26 465.6422764227642 3548.9 467.3766937669376 3527.54 467.3766937669376 3506.18 469.1111111111111 3484.82 469.1111111111111 3463.46 477.7831978319783 3442.1 479.5176151761517 3420.74 479.5176151761517 3399.38 482.9864498644986 3378.02 484.7208672086721 3356.66 489.92411924119233 3335.3 491.6585365853658 3313.94 493.3929539295393 3292.58 495.1273712737127 3271.22 495.1273712737127 3249.86 495.1273712737127 3228.5 496.8617886178862 3228.5 1038Z" fill="#005aa6" opacity="0.9" />
		</g>
		<g>
			<path d="M3228.5 496.8617886178862 3249.86 495.1273712737127 3271.22 495.1273712737127 3292.58 495.1273712737127 3313.94 493.3929539295393 3335.3 491.6585365853658 3356.66 489.92411924119233 3378.02 484.7208672086721 3399.38 482.9864498644986 3420.74 479.5176151761517 3442.1 479.5176151761517 3463.46 477.7831978319783 3484.82 469.1111111111111 3506.18 469.1111111111111 3527.54 467.3766937669376 3548.9 467.3766937669376 3570.26 465.6422764227642 3591.62 465.6422764227642 3612.98 465.6422764227642 3634.34 465.6422764227642 3655.7 465.6422764227642 3677.06 465.6422764227642 3698.42 465.6422764227642 3719.7799999999997 465.6422764227642 3741.14 465.6422764227642 3762.5 458.70460704607046 3783.86 458.70460704607046 3805.2200000000003 458.70460704607046 3826.58 456.97018970189697 3847.94 456.97018970189697 3869.3 456.97018970189697 3890.66 453.5013550135501 3912.02 451.7669376693766 3933.38 451.7669376693766 3954.74 451.7669376693766 3976.1 446.56368563685635 3997.46 444.82926829268285 4018.8199999999997 443.0948509485095 4040.18 439.6260162601626 4061.54 437.8915989159891 4082.9 437.8915989159891 4104.26 437.8915989159891 4125.62 436.1571815718157 4146.98 434.42276422764223 4168.34 411.8753387533875 4189.7 403.20325203252025 4211.0599999999995 406.6720867208671 4232.42 403.20325203252025 4253.78 399.7344173441734 4275.139999999999 399.7344173441734 4296.5 399.7344173441734 4296.5 397.99999999999994 4275.139999999999 397.99999999999994 4253.78 397.99999999999994 4232.42 401.4688346883468 4211.0599999999995 403.20325203252025 4189.7 399.7344173441734 4168.34 410.14092140921406 4146.98 432.6883468834688 4125.62 434.4227642276423 4104.26 436.15718157181567 4082.9 436.15718157181567 4061.54 436.15718157181567 4040.18 437.89159891598916 4018.8199999999997 441.36043360433604 3997.46 443.0948509485094 3976.1 444.8292682926829 3954.74 450.03252032520317 3933.38 450.03252032520317 3912.02 450.03252032520317 3890.66 451.76693766937666 3869.3 455.23577235772353 3847.94 455.23577235772353 3826.58 455.23577235772353 3805.2200000000003 456.970189701897 3783.86 456.970189701897 3762.5 456.970189701897 3741.14 463.9078590785908 3719.7799999999997 463.9078590785908 3698.42 463.9078590785908 3677.06 463.9078590785908 3655.7 463.9078590785908 3634.34 463.9078590785908 3612.98 463.9078590785908 3591.62 463.9078590785908 3570.26 463.9078590785908 3548.9 465.64227642276416 3527.54 465.64227642276416 3506.18 467.37669376693765 3484.82 467.37669376693765 3463.46 476.0487804878049 3442.1 477.78319783197827 3420.74 477.78319783197827 3399.38 481.25203252032514 3378.02 482.98644986449864 3356.66 488.1897018970189 3335.3 489.9241192411924 3313.94 491.6585365853659 3292.58 493.39295392953926 3271.22 493.39295392953926 3249.86 493.39295392953926 3228.5 495.12737127371275 3228.5 496.8617886178862Z" fill="#e62d39" opacity="0.9" />
		</g>
		<g>
			<rect x="4372" y="431" width="22.9995" height="23" fill="#005aa6" />
		</g>
		<g>
			<text fill="#595959" font-family="Verdana,Open Sans,DejaVu Sans,sans-serif" font-weight="400" font-size="41" transform="matrix(1 0 0 1 4404.56 454)">Crawler</text>
		</g>
		<g>
			<rect x="4372" y="508" width="22.9995" height="23" fill="#e62d39" />
		</g>
		<g>
			<text fill="#595959" font-family="Verdana,Open Sans,DejaVu Sans,sans-serif" font-weight="400" font-size="41" transform="matrix(1 0 0 1 4404.56 531)">Non-Crawler</text>
		</g>
	</g>
</svg>
