<svg width="1763" height="1046"
    xmlns="http://www.w3.org/2000/svg"
	xmlns:xlink="http://www.w3.org/1999/xlink" xml:space="preserve" overflow="hidden">
	<defs>
		<clipPath id="clip0">
			<rect x="2917" y="346" width="1763" height="1046"/>
		</clipPath>
	</defs>
	<g clip-path="url(#clip0)" transform="translate(-2917 -346)">
		<rect x="2918" y="347" width="1760" height="1043" fill="#FFFFFF" />
		<g>
			<path d="
			M3228.5 974.532 4296.5 974.532
			M3228.5 910.53 4296.5 910.53
			M3228.5 846.528 4296.5 846.528
			M3228.5 781.526 4296.5 781.526
			M3228.5 717.524 4296.5 717.524
			M3228.5 653.522 4296.5 653.522
			M3228.5 589.52 4296.5 589.52
			M3228.5 525.517 4296.5 525.517
			M3228.5 461.515 4296.5 461.515
			M3228.5 397.5 4296.5 397.5" stroke="#D9D9D9" stroke-width="3.4375" stroke-linejoin="round" stroke-miterlimit="10" fill="none" />
		</g>
		<g>
			<path d="M 1038.5 4296.5 1038.5" stroke="#D9D9D9" stroke-width="3.4375" stroke-linejoin="round" stroke-miterlimit="10" fill="none" fill-rule="evenodd" />
		</g>
		<g>
			<text fill="#595959" font-family="Verdana,Open Sans,DejaVu Sans,sans-serif" font-weight="400" font-size="41" transform="matrix(6.12323e-17 -1 1 6.12323e-17 3244.275390625 1201.3203125)">17-Feb</text>
		</g>
		<g>
			<text fill="#595959" font-family="Verdana,Open Sans,DejaVu Sans,sans-serif" font-weight="400" font-size="41" transform="matrix(6.12323e-17 -1 1 6.12323e-17 3328.77447265625 1210.2890625)">17-Mar</text>
		</g>
		<g>
			<text fill="#595959" font-family="Verdana,Open Sans,DejaVu Sans,sans-serif" font-weight="400" font-size="41" transform="matrix(6.12323e-17 -1 1 6.12323e-17 3419.01916015625 1201.5405197143555)">14-Apr</text>
		</g>
		<g>
			<text fill="#595959" font-family="Verdana,Open Sans,DejaVu Sans,sans-serif" font-weight="400" font-size="41" transform="matrix(6.12323e-17 -1 1 6.12323e-17 3504.589287109375 1214.75341796875)">12-May</text>
		</g>
		<g>
			<text fill="#595959" font-family="Verdana,Open Sans,DejaVu Sans,sans-serif" font-weight="400" font-size="41" transform="matrix(6.12323e-17 -1 1 6.12323e-17 3588.9582421875 1192.2914962768555)">16-Jun</text>
		</g>
		<g>
			<text fill="#595959" font-family="Verdana,Open Sans,DejaVu Sans,sans-serif" font-weight="400" font-size="41" transform="matrix(6.12323e-17 -1 1 6.12323e-17 3675.128955078125 1177.2768478393555)">14-Jul</text>
		</g>
		<g>
			<text fill="#595959" font-family="Verdana,Open Sans,DejaVu Sans,sans-serif" font-weight="400" font-size="41" transform="matrix(6.12323e-17 -1 1 6.12323e-17 3760.759140625 1206.90576171875)">11-Aug</text>
		</g>
		<g>
			<text fill="#595959" font-family="Verdana,Open Sans,DejaVu Sans,sans-serif" font-weight="400" font-size="41" transform="matrix(6.12323e-17 -1 1 6.12323e-17 3846.369306640625 1204.38330078125)">08-Sep</text>
		</g>
		<g>
			<text fill="#595959" font-family="Verdana,Open Sans,DejaVu Sans,sans-serif" font-weight="400" font-size="41" transform="matrix(6.12323e-17 -1 1 6.12323e-17 3927.084697265625 1201.1000900268555)">06-Oct</text>
		</g>
		<g>
			<text fill="#595959" font-family="Verdana,Open Sans,DejaVu Sans,sans-serif" font-weight="400" font-size="41" transform="matrix(6.12323e-17 -1 1 6.12323e-17 4012.524697265625 1211.43017578125)">03-Nov</text>
		</g>
		<g>
			<text fill="#595959" font-family="Verdana,Open Sans,DejaVu Sans,sans-serif" font-weight="400" font-size="41" transform="matrix(6.12323e-17 -1 1 6.12323e-17 4097.964697265625 1207.0859375)">01-Dec</text>
		</g>
		<g>
			<text fill="#595959" font-family="Verdana,Open Sans,DejaVu Sans,sans-serif" font-weight="400" font-size="41" transform="matrix(6.12323e-17 -1 1 6.12323e-17 4183.384677734375 1207.1259765625)">29-Dec</text>
		</g>
		<g>
			<text fill="#595959" font-family="Verdana,Open Sans,DejaVu Sans,sans-serif" font-weight="400" font-size="41" transform="matrix(6.12323e-17 -1 1 6.12323e-17 4272.4782421875 1191.6909103393555)">26-Jan</text>
		</g>
		<g>
			<text fill="#595959" font-family="Verdana,Open Sans,DejaVu Sans,sans-serif" font-weight="400" font-size="41" transform="matrix(1 0 0 1 3135.4482421875 1050)">0%</text>
		</g>
		<g>
			<text fill="#595959" font-family="Verdana,Open Sans,DejaVu Sans,sans-serif" font-weight="400" font-size="41" transform="matrix(1 0 0 1 3111.96533203125 922)">20%</text>
		</g>
		<g>
			<text fill="#595959" font-family="Verdana,Open Sans,DejaVu Sans,sans-serif" font-weight="400" font-size="41" transform="matrix(1 0 0 1 3110.82421875 794)">40%</text>
		</g>
		<g>
			<text fill="#595959" font-family="Verdana,Open Sans,DejaVu Sans,sans-serif" font-weight="400" font-size="41" transform="matrix(1 0 0 1 3112.3056640625 666)">60%</text>
		</g>
		<g>
			<text fill="#595959" font-family="Verdana,Open Sans,DejaVu Sans,sans-serif" font-weight="400" font-size="41" transform="matrix(1 0 0 1 3112.04541015625 538)">80%</text>
		</g>
		<g>
			<text fill="#595959" font-family="Verdana,Open Sans,DejaVu Sans,sans-serif" font-weight="400" font-size="41" transform="matrix(1 0 0 1 3090.2841796875 410)">100%</text>
		</g>
		<g>
			<text fill="#595959" font-family="Verdana,Open Sans,DejaVu Sans,sans-serif" font-weight="400" font-size="41" transform="matrix(1 0 0 1 3556.97119140625 1321)">Week Commencing</text>
		</g>
		<g>
			<text fill="#595959" font-family="Verdana,Open Sans,DejaVu Sans,sans-serif" font-weight="400" font-size="46" transform="matrix(6.12323e-17 -1 1 6.12323e-17 3019.73 936.7665710449219)">Requests (% of Total)</text>
		</g>
		<rect x="2918.5" y="347.5" width="1760" height="1043" stroke="#D9D9D9" stroke-width="3.4375" stroke-linejoin="round" stroke-miterlimit="10" fill="none" />
		<g>
			<path d="M3228.5 1038 3249.86 1038 3271.22 1038 3292.58 1038 3313.94 1038 3335.3 1038 3356.66 1038 3378.02 1038 3399.38 1038 3420.74 1038 3442.1 1038 3463.46 1038 3484.82 1038 3506.18 1038 3527.54 1038 3548.9 1038 3570.26 1038 3591.62 1038 3612.98 1038 3634.34 1038 3655.7 1038 3677.06 1038 3698.42 1038 3719.7799999999997 1038 3741.14 1038 3762.5 1038 3783.86 1038 3805.2200000000003 1038 3826.58 1038 3847.94 1038 3869.3 1038 3890.66 1038 3912.02 1038 3933.38 1038 3954.74 1038 3976.1 1038 3997.46 1038 4018.8199999999997 1038 4040.18 1038 4061.54 1038 4082.9 1038 4104.26 1038 4125.62 1038 4146.98 1038 4168.34 1038 4189.7 1038 4211.0599999999995 1038 4232.42 1038 4253.78 1038 4275.139999999999 1038 4296.5 1038 4296.5 438.2284066200755 4275.139999999999 438.4018523571715 4253.78 438.2585045087485 4232.42 438.1419455028754 4211.0599999999995 438.1490336079519 4189.7 438.2753528850003 4168.34 438.3712938024157 4146.98 438.93844580645873 4125.62 438.66009075050135 4104.26 438.6550093538849 4082.9 438.8753603320732 4061.54 440.072777946987 4040.18 439.54649540853677 4018.8199999999997 439.7648762802967 3997.46 440.0929578933227 3976.1 440.1107731424996 3954.74 440.17666153343987 3933.38 440.17259352262283 3912.02 440.3280263296216 3890.66 440.34799215358134 3869.3 440.40616975209355 3847.94 440.40760550465325 3826.58 440.94196380839696 3805.2200000000003 441.17078340782746 3783.86 441.17336955313306 3762.5 441.3391880005887 3741.14 441.48654078274615 3719.7799999999997 441.48316478044603 3698.42 441.484756503997 3677.06 441.489616515065 3655.7 441.29796426599523 3634.34 441.72595383903854 3612.98 442.8417422387853 3591.62 442.854171965349 3570.26 442.95845521922934 3548.9 442.9731674669964 3527.54 443.09587998074596 3506.18 442.9453880046191 3484.82 442.7539759175269 3463.46 442.4035157162202 3442.1 442.11056785584276 3420.74 441.83280494374446 3399.38 441.70333243098173 3378.02 441.6626940555466 3356.66 441.6573661278967 3335.3 441.5375979828307 3313.94 441.406683369976 3292.58 441.167209213907 3271.22 441.0289316920836 3249.86 441.03561787240676 3228.5 441.06205687573333 3228.5 1038Z" fill="#e62d39" opacity="0.9" />
		</g>
		<g>
			<path d="M3228.5 441.06205687573333 3249.86 441.03561787240676 3271.22 441.0289316920836 3292.58 441.167209213907 3313.94 441.406683369976 3335.3 441.5375979828307 3356.66 441.6573661278967 3378.02 441.6626940555466 3399.38 441.70333243098173 3420.74 441.83280494374446 3442.1 442.11056785584276 3463.46 442.4035157162202 3484.82 442.7539759175269 3506.18 442.9453880046191 3527.54 443.09587998074596 3548.9 442.9731674669964 3570.26 442.95845521922934 3591.62 442.854171965349 3612.98 442.8417422387853 3634.34 441.72595383903854 3655.7 441.29796426599523 3677.06 441.489616515065 3698.42 441.484756503997 3719.7799999999997 441.48316478044603 3741.14 441.48654078274615 3762.5 441.3391880005887 3783.86 441.17336955313306 3805.2200000000003 441.17078340782746 3826.58 440.94196380839696 3847.94 440.40760550465325 3869.3 440.40616975209355 3890.66 440.34799215358134 3912.02 440.3280263296216 3933.38 440.17259352262283 3954.74 440.17666153343987 3976.1 440.1107731424996 3997.46 440.0929578933227 4018.8199999999997 439.7648762802967 4040.18 439.54649540853677 4061.54 440.072777946987 4082.9 438.8753603320732 4104.26 438.6550093538849 4125.62 438.66009075050135 4146.98 438.93844580645873 4168.34 438.3712938024157 4189.7 438.2753528850003 4211.0599999999995 438.1490336079519 4232.42 438.1419455028754 4253.78 438.2585045087485 4275.139999999999 438.4018523571715 4296.5 438.2284066200755 4296.5 398 4275.139999999999 398.00000000000006 4253.78 398 4232.42 397.99999999999994 4211.0599999999995 398 4189.7 398.00000000000006 4168.34 398 4146.98 398 4125.62 398 4104.26 398.00000000000006 4082.9 398 4061.54 398 4040.18 398 4018.8199999999997 398.00000000000006 3997.46 398 3976.1 398 3954.74 398.00000000000006 3933.38 398 3912.02 398.00000000000006 3890.66 398.00000000000006 3869.3 398.0000000000001 3847.94 398 3826.58 398 3805.2200000000003 398 3783.86 397.99999999999994 3762.5 398 3741.14 398 3719.7799999999997 397.99999999999994 3698.42 398 3677.06 398 3655.7 397.99999999999994 3634.34 398 3612.98 398 3591.62 397.99999999999994 3570.26 398.00000000000006 3548.9 398 3527.54 398 3506.18 398.00000000000006 3484.82 397.99999999999994 3463.46 398 3442.1 398.00000000000006 3420.74 398 3399.38 398 3378.02 398 3356.66 398 3335.3 398.00000000000006 3313.94 398 3292.58 398 3271.22 398 3249.86 398 3228.5 397.99999999999994 3228.5 441.06205687573333Z" fill="#005aa6" opacity="0.9" />
		</g>
		<g>
			<rect x="4372" y="431" width="22.9995" height="23" fill="#e62d39" />
		</g>
		<g>
			<text fill="#595959" font-family="Verdana,Open Sans,DejaVu Sans,sans-serif" font-weight="400" font-size="41" transform="matrix(1 0 0 1 4404.56 454)">Non-Crawler</text>
		</g>
		<g>
			<rect x="4372" y="508" width="22.9995" height="23" fill="#005aa6" />
		</g>
		<g>
			<text fill="#595959" font-family="Verdana,Open Sans,DejaVu Sans,sans-serif" font-weight="400" font-size="41" transform="matrix(1 0 0 1 4404.56 531)">Crawler</text>
		</g>
	</g>
</svg>
