<svg width="1763" height="1046"
    xmlns="http://www.w3.org/2000/svg"
	xmlns:xlink="http://www.w3.org/1999/xlink" xml:space="preserve" overflow="hidden">
	<defs>
		<clipPath id="clip0">
			<rect x="2917" y="346" width="1763" height="1046"/>
		</clipPath>
	</defs>
	<g clip-path="url(#clip0)" transform="translate(-2917 -346)">
		<rect x="2918" y="347" width="1760" height="1043" fill="#FFFFFF" />
		<g>
			<path d="
			M3228.5 974.532 4296.5 974.532
			M3228.5 910.53 4296.5 910.53
			M3228.5 846.528 4296.5 846.528
			M3228.5 781.526 4296.5 781.526
			M3228.5 717.524 4296.5 717.524
			M3228.5 653.522 4296.5 653.522
			M3228.5 589.52 4296.5 589.52
			M3228.5 525.517 4296.5 525.517
			M3228.5 461.515 4296.5 461.515
			M3228.5 397.5 4296.5 397.5" stroke="#D9D9D9" stroke-width="3.4375" stroke-linejoin="round" stroke-miterlimit="10" fill="none" />
		</g>
		<g>
			<path d="M 1038.5 4296.5 1038.5" stroke="#D9D9D9" stroke-width="3.4375" stroke-linejoin="round" stroke-miterlimit="10" fill="none" fill-rule="evenodd" />
		</g>
		<g>
			<text fill="#595959" font-family="Verdana,Open Sans,DejaVu Sans,sans-serif" font-weight="400" font-size="41" transform="matrix(6.12323e-17 -1 1 6.12323e-17 3244.275390625 1201.3203125)">10-Feb</text>
		</g>
		<g>
			<text fill="#595959" font-family="Verdana,Open Sans,DejaVu Sans,sans-serif" font-weight="400" font-size="41" transform="matrix(6.12323e-17 -1 1 6.12323e-17 3329.004697265625 1210.2890625)">10-Mar</text>
		</g>
		<g>
			<text fill="#595959" font-family="Verdana,Open Sans,DejaVu Sans,sans-serif" font-weight="400" font-size="41" transform="matrix(6.12323e-17 -1 1 6.12323e-17 3419.169306640625 1203.2621994018555)">07-Apr</text>
		</g>
		<g>
			<text fill="#595959" font-family="Verdana,Open Sans,DejaVu Sans,sans-serif" font-weight="400" font-size="41" transform="matrix(6.12323e-17 -1 1 6.12323e-17 3504.609306640625 1216.47509765625)">05-May</text>
		</g>
		<g>
			<text fill="#595959" font-family="Verdana,Open Sans,DejaVu Sans,sans-serif" font-weight="400" font-size="41" transform="matrix(6.12323e-17 -1 1 6.12323e-17 3588.97826171875 1194.0131759643555)">09-Jun</text>
		</g>
		<g>
			<text fill="#595959" font-family="Verdana,Open Sans,DejaVu Sans,sans-serif" font-weight="400" font-size="41" transform="matrix(6.12323e-17 -1 1 6.12323e-17 3675.128955078125 1178.9985275268555)">07-Jul</text>
		</g>
		<g>
			<text fill="#595959" font-family="Verdana,Open Sans,DejaVu Sans,sans-serif" font-weight="400" font-size="41" transform="matrix(6.12323e-17 -1 1 6.12323e-17 3760.929306640625 1208.62744140625)">04-Aug</text>
		</g>
		<g>
			<text fill="#595959" font-family="Verdana,Open Sans,DejaVu Sans,sans-serif" font-weight="400" font-size="41" transform="matrix(6.12323e-17 -1 1 6.12323e-17 3846.369306640625 1204.38330078125)">01-Sep</text>
		</g>
		<g>
			<text fill="#595959" font-family="Verdana,Open Sans,DejaVu Sans,sans-serif" font-weight="400" font-size="41" transform="matrix(6.12323e-17 -1 1 6.12323e-17 3931.789287109375 1204.42333984375)">29-Sep</text>
		</g>
		<g>
			<text fill="#595959" font-family="Verdana,Open Sans,DejaVu Sans,sans-serif" font-weight="400" font-size="41" transform="matrix(6.12323e-17 -1 1 6.12323e-17 4012.524697265625 1201.1401290893555)">27-Oct</text>
		</g>
		<g>
			<text fill="#595959" font-family="Verdana,Open Sans,DejaVu Sans,sans-serif" font-weight="400" font-size="41" transform="matrix(6.12323e-17 -1 1 6.12323e-17 4097.944677734375 1211.47021484375)">24-Nov</text>
		</g>
		<g>
			<text fill="#595959" font-family="Verdana,Open Sans,DejaVu Sans,sans-serif" font-weight="400" font-size="41" transform="matrix(6.12323e-17 -1 1 6.12323e-17 4183.384677734375 1207.1259765625)">22-Dec</text>
		</g>
		<g>
			<text fill="#595959" font-family="Verdana,Open Sans,DejaVu Sans,sans-serif" font-weight="400" font-size="41" transform="matrix(6.12323e-17 -1 1 6.12323e-17 4272.4782421875 1189.9291915893555)">19-Jan</text>
		</g>
		<g>
			<text fill="#595959" font-family="Verdana,Open Sans,DejaVu Sans,sans-serif" font-weight="400" font-size="41" transform="matrix(1 0 0 1 3169.14111328125 1050)">0</text>
		</g>
		<g>
			<text fill="#595959" font-family="Verdana,Open Sans,DejaVu Sans,sans-serif" font-weight="400" font-size="41" transform="matrix(1 0 0 1 3145.5380859375 922)">70</text>
		</g>
		<g>
			<text fill="#595959" font-family="Verdana,Open Sans,DejaVu Sans,sans-serif" font-weight="400" font-size="41" transform="matrix(1 0 0 1 3123.97705078125 794)">140</text>
		</g>
		<g>
			<text fill="#595959" font-family="Verdana,Open Sans,DejaVu Sans,sans-serif" font-weight="400" font-size="41" transform="matrix(1 0 0 1 3122.37548828125 666)">209</text>
		</g>
		<g>
			<text fill="#595959" font-family="Verdana,Open Sans,DejaVu Sans,sans-serif" font-weight="400" font-size="41" transform="matrix(1 0 0 1 3122.37548828125 538)">279</text>
		</g>
		<g>
			<text fill="#595959" font-family="Verdana,Open Sans,DejaVu Sans,sans-serif" font-weight="400" font-size="41" transform="matrix(1 0 0 1 3122.25537109375 410)">349</text>
		</g>
		<g>
			<text fill="#595959" font-family="Verdana,Open Sans,DejaVu Sans,sans-serif" font-weight="400" font-size="41" transform="matrix(1 0 0 1 3556.97119140625 1321)">Week Commencing</text>
		</g>
		<g>
			<text fill="#595959" font-family="Verdana,Open Sans,DejaVu Sans,sans-serif" font-weight="400" font-size="46" transform="matrix(6.12323e-17 -1 1 6.12323e-17 3019.73 1005.4858093261719)">Number of Crawler Profiles</text>
		</g>
		<rect x="2918.5" y="347.5" width="1760" height="1043" stroke="#D9D9D9" stroke-width="3.4375" stroke-linejoin="round" stroke-miterlimit="10" fill="none" />
		<g>
			<path d="M3228.5 1038 3249.86 1038 3271.22 1038 3292.58 1038 3313.94 1038 3335.3 1038 3356.66 1038 3378.02 1038 3399.38 1038 3420.74 1038 3442.1 1038 3463.46 1038 3484.82 1038 3506.18 1038 3527.54 1038 3548.9 1038 3570.26 1038 3591.62 1038 3612.98 1038 3634.34 1038 3655.7 1038 3677.06 1038 3698.42 1038 3719.7799999999997 1038 3741.14 1038 3762.5 1038 3783.86 1038 3805.2200000000003 1038 3826.58 1038 3847.94 1038 3869.3 1038 3890.66 1038 3912.02 1038 3933.38 1038 3954.74 1038 3976.1 1038 3997.46 1038 4018.8199999999997 1038 4040.18 1038 4061.54 1038 4082.9 1038 4104.26 1038 4125.62 1038 4146.98 1038 4168.34 1038 4189.7 1038 4211.0599999999995 1038 4232.42 1038 4253.78 1038 4275.139999999999 1038 4296.5 1038 4296.5 399.83381088825206 4275.139999999999 401.66762177650423 4253.78 403.5014326647564 4232.42 403.5014326647564 4211.0599999999995 403.5014326647564 4189.7 405.3352435530086 4168.34 409.0028653295128 4146.98 410.836676217765 4125.62 412.67048710601716 4104.26 418.17191977077357 4082.9 418.17191977077357 4061.54 418.17191977077357 4040.18 420.00573065902574 4018.8199999999997 423.6733524355301 3997.46 423.6733524355301 3976.1 423.6733524355301 3954.74 425.50716332378215 3933.38 425.50716332378215 3912.02 425.50716332378215 3890.66 432.84240687679085 3869.3 432.84240687679085 3847.94 432.84240687679085 3826.58 432.84240687679085 3805.2200000000003 432.84240687679085 3783.86 432.84240687679085 3762.5 432.84240687679085 3741.14 432.84240687679085 3719.7799999999997 432.84240687679085 3698.42 434.6762177650429 3677.06 434.6762177650429 3655.7 436.5100286532951 3634.34 436.5100286532951 3612.98 445.67908309455584 3591.62 447.512893982808 3570.26 447.512893982808 3548.9 451.18051575931224 3527.54 453.0143266475644 3506.18 458.51575931232094 3484.82 460.349570200573 3463.46 462.1833810888252 3442.1 464.01719197707735 3420.74 464.01719197707735 3399.38 464.01719197707735 3378.02 465.8510028653295 3356.66 465.8510028653295 3335.3 465.8510028653295 3313.94 467.6848137535816 3292.58 467.6848137535816 3271.22 469.51862464183375 3249.86 469.51862464183375 3228.5 471.3524355300859 3228.5 1038Z" fill="#005aa6" opacity="0.9" />
		</g>
		<g>
			<path d="M3228.5 471.3524355300859 3249.86 469.51862464183375 3271.22 469.51862464183375 3292.58 467.6848137535816 3313.94 467.6848137535816 3335.3 465.8510028653295 3356.66 465.8510028653295 3378.02 465.8510028653295 3399.38 464.01719197707735 3420.74 464.01719197707735 3442.1 464.01719197707735 3463.46 462.1833810888252 3484.82 460.349570200573 3506.18 458.51575931232094 3527.54 453.0143266475644 3548.9 451.18051575931224 3570.26 447.512893982808 3591.62 447.512893982808 3612.98 445.67908309455584 3634.34 436.5100286532951 3655.7 436.5100286532951 3677.06 434.6762177650429 3698.42 434.6762177650429 3719.7799999999997 432.84240687679085 3741.14 432.84240687679085 3762.5 432.84240687679085 3783.86 432.84240687679085 3805.2200000000003 432.84240687679085 3826.58 432.84240687679085 3847.94 432.84240687679085 3869.3 432.84240687679085 3890.66 432.84240687679085 3912.02 425.50716332378215 3933.38 425.50716332378215 3954.74 425.50716332378215 3976.1 423.6733524355301 3997.46 423.6733524355301 4018.8199999999997 423.6733524355301 4040.18 420.00573065902574 4061.54 418.17191977077357 4082.9 418.17191977077357 4104.26 418.17191977077357 4125.62 412.67048710601716 4146.98 410.836676217765 4168.34 409.0028653295128 4189.7 405.3352435530086 4211.0599999999995 403.5014326647564 4232.42 403.5014326647564 4253.78 403.5014326647564 4275.139999999999 401.66762177650423 4296.5 399.83381088825206 4296.5 397.9999999999999 4275.139999999999 399.83381088825206 4253.78 401.66762177650423 4232.42 401.66762177650423 4211.0599999999995 401.66762177650423 4189.7 403.5014326647564 4168.34 407.16905444126064 4146.98 409.0028653295128 4125.62 410.836676217765 4104.26 416.3381088825214 4082.9 416.3381088825214 4061.54 416.3381088825214 4040.18 418.17191977077357 4018.8199999999997 421.8395415472779 3997.46 421.8395415472779 3976.1 421.8395415472779 3954.74 423.67335243553 3933.38 423.67335243553 3912.02 423.67335243553 3890.66 431.0085959885387 3869.3 431.0085959885387 3847.94 431.0085959885387 3826.58 431.0085959885387 3805.2200000000003 431.0085959885387 3783.86 431.0085959885387 3762.5 431.0085959885387 3741.14 431.0085959885387 3719.7799999999997 431.0085959885387 3698.42 432.84240687679073 3677.06 432.84240687679073 3655.7 434.6762177650429 3634.34 434.6762177650429 3612.98 443.84527220630366 3591.62 445.67908309455584 3570.26 445.67908309455584 3548.9 449.34670487106007 3527.54 451.18051575931224 3506.18 456.68194842406876 3484.82 458.5157593123208 3463.46 460.349570200573 3442.1 462.1833810888252 3420.74 462.1833810888252 3399.38 462.1833810888252 3378.02 464.01719197707735 3356.66 464.01719197707735 3335.3 464.01719197707735 3313.94 465.8510028653294 3292.58 465.8510028653294 3271.22 467.6848137535816 3249.86 467.6848137535816 3228.5 469.51862464183375 3228.5 471.3524355300859Z" fill="#e62d39" opacity="0.9" />
		</g>
		<g>
			<rect x="4372" y="431" width="22.9995" height="23" fill="#005aa6" />
		</g>
		<g>
			<text fill="#595959" font-family="Verdana,Open Sans,DejaVu Sans,sans-serif" font-weight="400" font-size="41" transform="matrix(1 0 0 1 4404.56 454)">Crawler</text>
		</g>
		<g>
			<rect x="4372" y="508" width="22.9995" height="23" fill="#e62d39" />
		</g>
		<g>
			<text fill="#595959" font-family="Verdana,Open Sans,DejaVu Sans,sans-serif" font-weight="400" font-size="41" transform="matrix(1 0 0 1 4404.56 531)">Non-Crawler</text>
		</g>
	</g>
</svg>
