<svg width="1763" height="1046"
    xmlns="http://www.w3.org/2000/svg"
	xmlns:xlink="http://www.w3.org/1999/xlink" xml:space="preserve" overflow="hidden">
	<defs>
		<clipPath id="clip0">
			<rect x="2917" y="346" width="1763" height="1046"/>
		</clipPath>
	</defs>
	<g clip-path="url(#clip0)" transform="translate(-2917 -346)">
		<rect x="2918" y="347" width="1760" height="1043" fill="#FFFFFF" />
		<g>
			<path d="
			M3228.5 974.532 4296.5 974.532
			M3228.5 910.53 4296.5 910.53
			M3228.5 846.528 4296.5 846.528
			M3228.5 781.526 4296.5 781.526
			M3228.5 717.524 4296.5 717.524
			M3228.5 653.522 4296.5 653.522
			M3228.5 589.52 4296.5 589.52
			M3228.5 525.517 4296.5 525.517
			M3228.5 461.515 4296.5 461.515
			M3228.5 397.5 4296.5 397.5" stroke="#D9D9D9" stroke-width="3.4375" stroke-linejoin="round" stroke-miterlimit="10" fill="none" />
		</g>
		<g>
			<path d="M 1038.5 4296.5 1038.5" stroke="#D9D9D9" stroke-width="3.4375" stroke-linejoin="round" stroke-miterlimit="10" fill="none" fill-rule="evenodd" />
		</g>
		<g>
			<text fill="#595959" font-family="Verdana,Open Sans,DejaVu Sans,sans-serif" font-weight="400" font-size="41" transform="matrix(6.12323e-17 -1 1 6.12323e-17 3244.275390625 1203.0419921875)">03-Feb</text>
		</g>
		<g>
			<text fill="#595959" font-family="Verdana,Open Sans,DejaVu Sans,sans-serif" font-weight="400" font-size="41" transform="matrix(6.12323e-17 -1 1 6.12323e-17 3329.004697265625 1212.0107421875)">03-Mar</text>
		</g>
		<g>
			<text fill="#595959" font-family="Verdana,Open Sans,DejaVu Sans,sans-serif" font-weight="400" font-size="41" transform="matrix(6.12323e-17 -1 1 6.12323e-17 3414.424677734375 1212.1708984375)">31-Mar</text>
		</g>
		<g>
			<text fill="#595959" font-family="Verdana,Open Sans,DejaVu Sans,sans-serif" font-weight="400" font-size="41" transform="matrix(6.12323e-17 -1 1 6.12323e-17 3504.589287109375 1203.3022384643555)">28-Apr</text>
		</g>
		<g>
			<text fill="#595959" font-family="Verdana,Open Sans,DejaVu Sans,sans-serif" font-weight="400" font-size="41" transform="matrix(6.12323e-17 -1 1 6.12323e-17 3590.029287109375 1216.51513671875)">26-May</text>
		</g>
		<g>
			<text fill="#595959" font-family="Verdana,Open Sans,DejaVu Sans,sans-serif" font-weight="400" font-size="41" transform="matrix(6.12323e-17 -1 1 6.12323e-17 3674.41826171875 1194.1733322143555)">30-Jun</text>
		</g>
		<g>
			<text fill="#595959" font-family="Verdana,Open Sans,DejaVu Sans,sans-serif" font-weight="400" font-size="41" transform="matrix(6.12323e-17 -1 1 6.12323e-17 3760.568955078125 1179.0385665893555)">28-Jul</text>
		</g>
		<g>
			<text fill="#595959" font-family="Verdana,Open Sans,DejaVu Sans,sans-serif" font-weight="400" font-size="41" transform="matrix(6.12323e-17 -1 1 6.12323e-17 3846.349287109375 1208.66748046875)">25-Aug</text>
		</g>
		<g>
			<text fill="#595959" font-family="Verdana,Open Sans,DejaVu Sans,sans-serif" font-weight="400" font-size="41" transform="matrix(6.12323e-17 -1 1 6.12323e-17 3931.789287109375 1204.42333984375)">22-Sep</text>
		</g>
		<g>
			<text fill="#595959" font-family="Verdana,Open Sans,DejaVu Sans,sans-serif" font-weight="400" font-size="41" transform="matrix(6.12323e-17 -1 1 6.12323e-17 4012.524697265625 1201.1401290893555)">20-Oct</text>
		</g>
		<g>
			<text fill="#595959" font-family="Verdana,Open Sans,DejaVu Sans,sans-serif" font-weight="400" font-size="41" transform="matrix(6.12323e-17 -1 1 6.12323e-17 4097.73447265625 1209.70849609375)">17-Nov</text>
		</g>
		<g>
			<text fill="#595959" font-family="Verdana,Open Sans,DejaVu Sans,sans-serif" font-weight="400" font-size="41" transform="matrix(6.12323e-17 -1 1 6.12323e-17 4183.17447265625 1205.3642578125)">15-Dec</text>
		</g>
		<g>
			<text fill="#595959" font-family="Verdana,Open Sans,DejaVu Sans,sans-serif" font-weight="400" font-size="41" transform="matrix(6.12323e-17 -1 1 6.12323e-17 4272.4782421875 1189.9291915893555)">12-Jan</text>
		</g>
		<g>
			<text fill="#595959" font-family="Verdana,Open Sans,DejaVu Sans,sans-serif" font-weight="400" font-size="41" transform="matrix(1 0 0 1 3135.4482421875 1050)">0%</text>
		</g>
		<g>
			<text fill="#595959" font-family="Verdana,Open Sans,DejaVu Sans,sans-serif" font-weight="400" font-size="41" transform="matrix(1 0 0 1 3111.96533203125 922)">20%</text>
		</g>
		<g>
			<text fill="#595959" font-family="Verdana,Open Sans,DejaVu Sans,sans-serif" font-weight="400" font-size="41" transform="matrix(1 0 0 1 3110.82421875 794)">40%</text>
		</g>
		<g>
			<text fill="#595959" font-family="Verdana,Open Sans,DejaVu Sans,sans-serif" font-weight="400" font-size="41" transform="matrix(1 0 0 1 3112.3056640625 666)">60%</text>
		</g>
		<g>
			<text fill="#595959" font-family="Verdana,Open Sans,DejaVu Sans,sans-serif" font-weight="400" font-size="41" transform="matrix(1 0 0 1 3112.04541015625 538)">80%</text>
		</g>
		<g>
			<text fill="#595959" font-family="Verdana,Open Sans,DejaVu Sans,sans-serif" font-weight="400" font-size="41" transform="matrix(1 0 0 1 3090.2841796875 410)">100%</text>
		</g>
		<g>
			<text fill="#595959" font-family="Verdana,Open Sans,DejaVu Sans,sans-serif" font-weight="400" font-size="41" transform="matrix(1 0 0 1 3556.97119140625 1321)">Week Commencing</text>
		</g>
		<g>
			<text fill="#595959" font-family="Verdana,Open Sans,DejaVu Sans,sans-serif" font-weight="400" font-size="46" transform="matrix(6.12323e-17 -1 1 6.12323e-17 3019.73 936.7665710449219)">Requests (% of Total)</text>
		</g>
		<rect x="2918.5" y="347.5" width="1760" height="1043" stroke="#D9D9D9" stroke-width="3.4375" stroke-linejoin="round" stroke-miterlimit="10" fill="none" />
		<g>
			<path d="M3228.5 1038 3249.86 1038 3271.22 1038 3292.58 1038 3313.94 1038 3335.3 1038 3356.66 1038 3378.02 1038 3399.38 1038 3420.74 1038 3442.1 1038 3463.46 1038 3484.82 1038 3506.18 1038 3527.54 1038 3548.9 1038 3570.26 1038 3591.62 1038 3612.98 1038 3634.34 1038 3655.7 1038 3677.06 1038 3698.42 1038 3719.7799999999997 1038 3741.14 1038 3762.5 1038 3783.86 1038 3805.2200000000003 1038 3826.58 1038 3847.94 1038 3869.3 1038 3890.66 1038 3912.02 1038 3933.38 1038 3954.74 1038 3976.1 1038 3997.46 1038 4018.8199999999997 1038 4040.18 1038 4061.54 1038 4082.9 1038 4104.26 1038 4125.62 1038 4146.98 1038 4168.34 1038 4189.7 1038 4211.0599999999995 1038 4232.42 1038 4253.78 1038 4275.139999999999 1038 4296.5 1038 4296.5 438.2585045087485 4275.139999999999 438.1419455028754 4253.78 438.1490336079519 4232.42 438.2753528850003 4211.0599999999995 438.3712938024157 4189.7 438.93844580645873 4168.34 438.66009075050135 4146.98 438.6550093538849 4125.62 438.8753603320732 4104.26 440.072777946987 4082.9 439.54649540853677 4061.54 439.7648762802967 4040.18 440.0929578933227 4018.8199999999997 440.1107731424996 3997.46 440.17666153343987 3976.1 440.17259352262283 3954.74 440.3280263296216 3933.38 440.34799215358134 3912.02 440.40616975209355 3890.66 440.40760550465325 3869.3 440.94196380839696 3847.94 441.17078340782746 3826.58 441.17336955313306 3805.2200000000003 441.3391880005887 3783.86 441.48654078274615 3762.5 441.48316478044603 3741.14 441.484756503997 3719.7799999999997 441.489616515065 3698.42 441.29796426599523 3677.06 441.72595383903854 3655.7 442.8417422387853 3634.34 442.854171965349 3612.98 442.95845521922934 3591.62 442.9731674669964 3570.26 443.09587998074596 3548.9 442.9453880046191 3527.54 442.7539759175269 3506.18 442.4035157162202 3484.82 442.11056785584276 3463.46 441.83280494374446 3442.1 441.70333243098173 3420.74 441.6626940555466 3399.38 441.6573661278967 3378.02 441.5375979828307 3356.66 441.406683369976 3335.3 441.167209213907 3313.94 441.0289316920836 3292.58 441.03561787240676 3271.22 441.06205687573333 3249.86 441.14123809544583 3228.5 441.04668014176025 3228.5 1038Z" fill="#e62d39" opacity="0.9" />
		</g>
		<g>
			<path d="M3228.5 441.04668014176025 3249.86 441.14123809544583 3271.22 441.06205687573333 3292.58 441.03561787240676 3313.94 441.0289316920836 3335.3 441.167209213907 3356.66 441.406683369976 3378.02 441.5375979828307 3399.38 441.6573661278967 3420.74 441.6626940555466 3442.1 441.70333243098173 3463.46 441.83280494374446 3484.82 442.11056785584276 3506.18 442.4035157162202 3527.54 442.7539759175269 3548.9 442.9453880046191 3570.26 443.09587998074596 3591.62 442.9731674669964 3612.98 442.95845521922934 3634.34 442.854171965349 3655.7 442.8417422387853 3677.06 441.72595383903854 3698.42 441.29796426599523 3719.7799999999997 441.489616515065 3741.14 441.484756503997 3762.5 441.48316478044603 3783.86 441.48654078274615 3805.2200000000003 441.3391880005887 3826.58 441.17336955313306 3847.94 441.17078340782746 3869.3 440.94196380839696 3890.66 440.40760550465325 3912.02 440.40616975209355 3933.38 440.34799215358134 3954.74 440.3280263296216 3976.1 440.17259352262283 3997.46 440.17666153343987 4018.8199999999997 440.1107731424996 4040.18 440.0929578933227 4061.54 439.7648762802967 4082.9 439.54649540853677 4104.26 440.072777946987 4125.62 438.8753603320732 4146.98 438.6550093538849 4168.34 438.66009075050135 4189.7 438.93844580645873 4211.0599999999995 438.3712938024157 4232.42 438.2753528850003 4253.78 438.1490336079519 4275.139999999999 438.1419455028754 4296.5 438.2585045087485 4296.5 398 4275.139999999999 397.99999999999994 4253.78 398 4232.42 398.00000000000006 4211.0599999999995 398 4189.7 398 4168.34 398 4146.98 398.00000000000006 4125.62 398 4104.26 398 4082.9 398 4061.54 398.00000000000006 4040.18 398 4018.8199999999997 398 3997.46 398.00000000000006 3976.1 398 3954.74 398.00000000000006 3933.38 398.00000000000006 3912.02 398.0000000000001 3890.66 398 3869.3 398 3847.94 398 3826.58 397.99999999999994 3805.2200000000003 398 3783.86 398 3762.5 397.99999999999994 3741.14 398 3719.7799999999997 398 3698.42 397.99999999999994 3677.06 398 3655.7 398 3634.34 397.99999999999994 3612.98 398.00000000000006 3591.62 398 3570.26 398 3548.9 398.00000000000006 3527.54 397.99999999999994 3506.18 398 3484.82 398.00000000000006 3463.46 398 3442.1 398 3420.74 398 3399.38 398 3378.02 398.00000000000006 3356.66 398 3335.3 398 3313.94 398 3292.58 398 3271.22 397.99999999999994 3249.86 398 3228.5 398.00000000000006 3228.5 441.04668014176025Z" fill="#005aa6" opacity="0.9" />
		</g>
		<g>
			<rect x="4372" y="431" width="22.9995" height="23" fill="#e62d39" />
		</g>
		<g>
			<text fill="#595959" font-family="Verdana,Open Sans,DejaVu Sans,sans-serif" font-weight="400" font-size="41" transform="matrix(1 0 0 1 4404.56 454)">Non-Crawler</text>
		</g>
		<g>
			<rect x="4372" y="508" width="22.9995" height="23" fill="#005aa6" />
		</g>
		<g>
			<text fill="#595959" font-family="Verdana,Open Sans,DejaVu Sans,sans-serif" font-weight="400" font-size="41" transform="matrix(1 0 0 1 4404.56 531)">Crawler</text>
		</g>
	</g>
</svg>
