<svg width="1763" height="1046"
    xmlns="http://www.w3.org/2000/svg"
	xmlns:xlink="http://www.w3.org/1999/xlink" xml:space="preserve" overflow="hidden">
	<defs>
		<clipPath id="clip0">
			<rect x="2917" y="346" width="1763" height="1046"/>
		</clipPath>
	</defs>
	<g clip-path="url(#clip0)" transform="translate(-2917 -346)">
		<rect x="2918" y="347" width="1760" height="1043" fill="#FFFFFF" />
		<g>
			<path d="
			M3228.5 974.532 4296.5 974.532
			M3228.5 910.53 4296.5 910.53
			M3228.5 846.528 4296.5 846.528
			M3228.5 781.526 4296.5 781.526
			M3228.5 717.524 4296.5 717.524
			M3228.5 653.522 4296.5 653.522
			M3228.5 589.52 4296.5 589.52
			M3228.5 525.517 4296.5 525.517
			M3228.5 461.515 4296.5 461.515
			M3228.5 397.5 4296.5 397.5" stroke="#D9D9D9" stroke-width="3.4375" stroke-linejoin="round" stroke-miterlimit="10" fill="none" />
		</g>
		<g>
			<path d="M 1038.5 4296.5 1038.5" stroke="#D9D9D9" stroke-width="3.4375" stroke-linejoin="round" stroke-miterlimit="10" fill="none" fill-rule="evenodd" />
		</g>
		<g>
			<text fill="#595959" font-family="Verdana,Open Sans,DejaVu Sans,sans-serif" font-weight="400" font-size="41" transform="matrix(6.12323e-17 -1 1 6.12323e-17 3244.275390625 1203.08203125)">24-Feb</text>
		</g>
		<g>
			<text fill="#595959" font-family="Verdana,Open Sans,DejaVu Sans,sans-serif" font-weight="400" font-size="41" transform="matrix(6.12323e-17 -1 1 6.12323e-17 3327.309383616728 1212.05078125)">24-Mar</text>
		</g>
		<g>
			<text fill="#595959" font-family="Verdana,Open Sans,DejaVu Sans,sans-serif" font-weight="400" font-size="41" transform="matrix(6.12323e-17 -1 1 6.12323e-17 3415.798698874081 1203.3022384643555)">21-Apr</text>
		</g>
		<g>
			<text fill="#595959" font-family="Verdana,Open Sans,DejaVu Sans,sans-serif" font-weight="400" font-size="41" transform="matrix(6.12323e-17 -1 1 6.12323e-17 3499.563404756434 1214.75341796875)">19-May</text>
		</g>
		<g>
			<text fill="#595959" font-family="Verdana,Open Sans,DejaVu Sans,sans-serif" font-weight="400" font-size="41" transform="matrix(6.12323e-17 -1 1 6.12323e-17 3582.2570657169117 1194.0532150268555)">23-Jun</text>
		</g>
		<g>
			<text fill="#595959" font-family="Verdana,Open Sans,DejaVu Sans,sans-serif" font-weight="400" font-size="41" transform="matrix(6.12323e-17 -1 1 6.12323e-17 3666.75248448989 1179.0385665893555)">21-Jul</text>
		</g>
		<g>
			<text fill="#595959" font-family="Verdana,Open Sans,DejaVu Sans,sans-serif" font-weight="400" font-size="41" transform="matrix(6.12323e-17 -1 1 6.12323e-17 3750.8575224034926 1206.90576171875)">18-Aug</text>
		</g>
		<g>
			<text fill="#595959" font-family="Verdana,Open Sans,DejaVu Sans,sans-serif" font-weight="400" font-size="41" transform="matrix(6.12323e-17 -1 1 6.12323e-17 3834.6222282858457 1202.66162109375)">15-Sep</text>
		</g>
		<g>
			<text fill="#595959" font-family="Verdana,Open Sans,DejaVu Sans,sans-serif" font-weight="400" font-size="41" transform="matrix(6.12323e-17 -1 1 6.12323e-17 3913.6823443244484 1199.3784103393555)">13-Oct</text>
		</g>
		<g>
			<text fill="#595959" font-family="Verdana,Open Sans,DejaVu Sans,sans-serif" font-weight="400" font-size="41" transform="matrix(6.12323e-17 -1 1 6.12323e-17 3997.4470502068016 1209.70849609375)">10-Nov</text>
		</g>
		<g>
			<text fill="#595959" font-family="Verdana,Open Sans,DejaVu Sans,sans-serif" font-weight="400" font-size="41" transform="matrix(6.12323e-17 -1 1 6.12323e-17 4081.2117560891543 1207.0859375)">08-Dec</text>
		</g>
		<g>
			<text fill="#595959" font-family="Verdana,Open Sans,DejaVu Sans,sans-serif" font-weight="400" font-size="41" transform="matrix(6.12323e-17 -1 1 6.12323e-17 4168.630026424632 1191.6508712768555)">05-Jan</text>
		</g>
		<g>
			<text fill="#595959" font-family="Verdana,Open Sans,DejaVu Sans,sans-serif" font-weight="400" font-size="41" transform="matrix(6.12323e-17 -1 1 6.12323e-17 4249.451861213235 1203.0419921875)">02-Feb</text>
		</g>
		<g>
			<text fill="#595959" font-family="Verdana,Open Sans,DejaVu Sans,sans-serif" font-weight="400" font-size="41" transform="matrix(1 0 0 1 3169.14111328125 1050)">0</text>
		</g>
		<g>
			<text fill="#595959" font-family="Verdana,Open Sans,DejaVu Sans,sans-serif" font-weight="400" font-size="41" transform="matrix(1 0 0 1 3144.31689453125 922)">74</text>
		</g>
		<g>
			<text fill="#595959" font-family="Verdana,Open Sans,DejaVu Sans,sans-serif" font-weight="400" font-size="41" transform="matrix(1 0 0 1 3124.01708984375 794)">147</text>
		</g>
		<g>
			<text fill="#595959" font-family="Verdana,Open Sans,DejaVu Sans,sans-serif" font-weight="400" font-size="41" transform="matrix(1 0 0 1 3129.3022499084473 666)">221</text>
		</g>
		<g>
			<text fill="#595959" font-family="Verdana,Open Sans,DejaVu Sans,sans-serif" font-weight="400" font-size="41" transform="matrix(1 0 0 1 3120.994140625 538)">294</text>
		</g>
		<g>
			<text fill="#595959" font-family="Verdana,Open Sans,DejaVu Sans,sans-serif" font-weight="400" font-size="41" transform="matrix(1 0 0 1 3122.17529296875 410)">368</text>
		</g>
		<g>
			<text fill="#595959" font-family="Verdana,Open Sans,DejaVu Sans,sans-serif" font-weight="400" font-size="41" transform="matrix(1 0 0 1 3556.97119140625 1321)">Week Commencing</text>
		</g>
		<g>
			<text fill="#595959" font-family="Verdana,Open Sans,DejaVu Sans,sans-serif" font-weight="400" font-size="46" transform="matrix(6.12323e-17 -1 1 6.12323e-17 3019.73 1005.4858093261719)">Number of Crawler Profiles</text>
		</g>
		<rect x="2918.5" y="347.5" width="1760" height="1043" stroke="#D9D9D9" stroke-width="3.4375" stroke-linejoin="round" stroke-miterlimit="10" fill="none" />
		<g>
			<path d="M3228.5 1038 3249.4411764705883 1038 3270.3823529411766 1038 3291.323529411765 1038 3312.264705882353 1038 3333.205882352941 1038 3354.1470588235293 1038 3375.0882352941176 1038 3396.029411764706 1038 3416.970588235294 1038 3437.9117647058824 1038 3458.8529411764707 1038 3479.794117647059 1038 3500.735294117647 1038 3521.676470588235 1038 3542.6176470588234 1038 3563.5588235294117 1038 3584.5 1038 3605.4411764705883 1038 3626.3823529411766 1038 3647.323529411765 1038 3668.264705882353 1038 3689.205882352941 1038 3710.1470588235293 1038 3731.0882352941176 1038 3752.029411764706 1038 3772.970588235294 1038 3793.9117647058824 1038 3814.8529411764707 1038 3835.7941176470586 1038 3856.735294117647 1038 3877.676470588235 1038 3898.6176470588234 1038 3919.5588235294117 1038 3940.5 1038 3961.4411764705883 1038 3982.3823529411766 1038 4003.323529411765 1038 4024.264705882353 1038 4045.2058823529414 1038 4066.1470588235293 1038 4087.0882352941176 1038 4108.029411764706 1038 4128.970588235294 1038 4149.911764705882 1038 4170.85294117647 1038 4191.794117647059 1038 4212.735294117647 1038 4233.676470588235 1038 4254.617647058823 1038 4275.558823529412 1038 4296.5 1038 4296.5 404.9565217391305 4275.558823529412 401.47826086956525 4254.617647058823 410.17391304347825 4233.676470588235 432.78260869565224 4212.735294117647 434.52173913043475 4191.794117647059 436.2608695652174 4170.85294117647 436.2608695652174 4149.911764705882 436.2608695652174 4128.970588235294 438 4108.029411764706 441.47826086956525 4087.0882352941176 443.21739130434787 4066.1470588235293 444.9565217391305 4045.2058823529414 450.17391304347825 4024.264705882353 450.17391304347825 4003.323529411765 450.17391304347825 3982.3823529411766 451.9130434782609 3961.4411764705883 455.3913043478261 3940.5 455.3913043478261 3919.5588235294117 455.3913043478261 3898.6176470588234 457.13043478260875 3877.676470588235 457.13043478260875 3856.735294117647 457.13043478260875 3835.7941176470586 464.0869565217391 3814.8529411764707 464.0869565217391 3793.9117647058824 464.0869565217391 3772.970588235294 464.0869565217391 3752.029411764706 464.0869565217391 3731.0882352941176 464.0869565217391 3710.1470588235293 464.0869565217391 3689.205882352941 464.0869565217391 3668.264705882353 464.0869565217391 3647.323529411765 465.82608695652175 3626.3823529411766 465.82608695652175 3605.4411764705883 467.5652173913044 3584.5 467.5652173913044 3563.5588235294117 476.2608695652174 3542.6176470588234 478 3521.676470588235 478 3500.735294117647 481.47826086956525 3479.794117647059 483.21739130434787 3458.8529411764707 488.4347826086956 3437.9117647058824 490.17391304347825 3416.970588235294 491.9130434782609 3396.029411764706 493.6521739130435 3375.0882352941176 493.6521739130435 3354.1470588235293 493.6521739130435 3333.205882352941 495.3913043478261 3312.264705882353 495.3913043478261 3291.323529411765 495.3913043478261 3270.3823529411766 497.13043478260875 3249.4411764705883 497.13043478260875 3228.5 498.86956521739137 3228.5 1038Z" fill="#005aa6" opacity="0.9" />
		</g>
		<g>
			<path d="M3228.5 498.86956521739137 3249.4411764705883 497.13043478260875 3270.3823529411766 497.13043478260875 3291.323529411765 495.3913043478261 3312.264705882353 495.3913043478261 3333.205882352941 495.3913043478261 3354.1470588235293 493.6521739130435 3375.0882352941176 493.6521739130435 3396.029411764706 493.6521739130435 3416.970588235294 491.9130434782609 3437.9117647058824 490.17391304347825 3458.8529411764707 488.4347826086956 3479.794117647059 483.21739130434787 3500.735294117647 481.47826086956525 3521.676470588235 478 3542.6176470588234 478 3563.5588235294117 476.2608695652174 3584.5 467.5652173913044 3605.4411764705883 467.5652173913044 3626.3823529411766 465.82608695652175 3647.323529411765 465.82608695652175 3668.264705882353 464.0869565217391 3689.205882352941 464.0869565217391 3710.1470588235293 464.0869565217391 3731.0882352941176 464.0869565217391 3752.029411764706 464.0869565217391 3772.970588235294 464.0869565217391 3793.9117647058824 464.0869565217391 3814.8529411764707 464.0869565217391 3835.7941176470586 464.0869565217391 3856.735294117647 457.13043478260875 3877.676470588235 457.13043478260875 3898.6176470588234 457.13043478260875 3919.5588235294117 455.3913043478261 3940.5 455.3913043478261 3961.4411764705883 455.3913043478261 3982.3823529411766 451.9130434782609 4003.323529411765 450.17391304347825 4024.264705882353 450.17391304347825 4045.2058823529414 450.17391304347825 4066.1470588235293 444.9565217391305 4087.0882352941176 443.21739130434787 4108.029411764706 441.47826086956525 4128.970588235294 438 4149.911764705882 436.2608695652174 4170.85294117647 436.2608695652174 4191.794117647059 436.2608695652174 4212.735294117647 434.52173913043475 4233.676470588235 432.78260869565224 4254.617647058823 410.17391304347825 4275.558823529412 401.47826086956525 4296.5 404.9565217391305 4296.5 401.4782608695653 4275.558823529412 398.00000000000006 4254.617647058823 408.4347826086956 4233.676470588235 431.0434782608696 4212.735294117647 432.78260869565213 4191.794117647059 434.52173913043475 4170.85294117647 434.52173913043475 4149.911764705882 434.52173913043475 4128.970588235294 436.2608695652174 4108.029411764706 439.7391304347826 4087.0882352941176 441.47826086956525 4066.1470588235293 443.21739130434787 4045.2058823529414 448.4347826086956 4024.264705882353 448.4347826086956 4003.323529411765 448.4347826086956 3982.3823529411766 450.17391304347825 3961.4411764705883 453.6521739130435 3940.5 453.6521739130435 3919.5588235294117 453.6521739130435 3898.6176470588234 455.3913043478261 3877.676470588235 455.3913043478261 3856.735294117647 455.3913043478261 3835.7941176470586 462.3478260869565 3814.8529411764707 462.3478260869565 3793.9117647058824 462.3478260869565 3772.970588235294 462.3478260869565 3752.029411764706 462.3478260869565 3731.0882352941176 462.3478260869565 3710.1470588235293 462.3478260869565 3689.205882352941 462.3478260869565 3668.264705882353 462.3478260869565 3647.323529411765 464.0869565217391 3626.3823529411766 464.0869565217391 3605.4411764705883 465.82608695652175 3584.5 465.82608695652175 3563.5588235294117 474.52173913043475 3542.6176470588234 476.2608695652174 3521.676470588235 476.2608695652174 3500.735294117647 479.7391304347826 3479.794117647059 481.47826086956525 3458.8529411764707 486.695652173913 3437.9117647058824 488.4347826086956 3416.970588235294 490.17391304347825 3396.029411764706 491.9130434782609 3375.0882352941176 491.9130434782609 3354.1470588235293 491.9130434782609 3333.205882352941 493.6521739130435 3312.264705882353 493.6521739130435 3291.323529411765 493.6521739130435 3270.3823529411766 495.3913043478261 3249.4411764705883 495.3913043478261 3228.5 497.13043478260875 3228.5 498.86956521739137Z" fill="#e62d39" opacity="0.9" />
		</g>
		<g>
			<rect x="4372" y="431" width="22.9995" height="23" fill="#005aa6" />
		</g>
		<g>
			<text fill="#595959" font-family="Verdana,Open Sans,DejaVu Sans,sans-serif" font-weight="400" font-size="41" transform="matrix(1 0 0 1 4404.56 454)">Crawler</text>
		</g>
		<g>
			<rect x="4372" y="508" width="22.9995" height="23" fill="#e62d39" />
		</g>
		<g>
			<text fill="#595959" font-family="Verdana,Open Sans,DejaVu Sans,sans-serif" font-weight="400" font-size="41" transform="matrix(1 0 0 1 4404.56 531)">Non-Crawler</text>
		</g>
	</g>
</svg>
