<svg width="1763" height="1046"
    xmlns="http://www.w3.org/2000/svg"
	xmlns:xlink="http://www.w3.org/1999/xlink" xml:space="preserve" overflow="hidden">
	<defs>
		<clipPath id="clip0">
			<rect x="2917" y="346" width="1763" height="1046"/>
		</clipPath>
	</defs>
	<g clip-path="url(#clip0)" transform="translate(-2917 -346)">
		<rect x="2918" y="347" width="1760" height="1043" fill="#FFFFFF" />
		<g>
			<path d="
			M3228.5 974.532 4296.5 974.532
			M3228.5 910.53 4296.5 910.53
			M3228.5 846.528 4296.5 846.528
			M3228.5 781.526 4296.5 781.526
			M3228.5 717.524 4296.5 717.524
			M3228.5 653.522 4296.5 653.522
			M3228.5 589.52 4296.5 589.52
			M3228.5 525.517 4296.5 525.517
			M3228.5 461.515 4296.5 461.515
			M3228.5 397.5 4296.5 397.5" stroke="#D9D9D9" stroke-width="3.4375" stroke-linejoin="round" stroke-miterlimit="10" fill="none" />
		</g>
		<g>
			<path d="M 1038.5 4296.5 1038.5" stroke="#D9D9D9" stroke-width="3.4375" stroke-linejoin="round" stroke-miterlimit="10" fill="none" fill-rule="evenodd" />
		</g>
		<g>
			<text fill="#595959" font-family="Verdana,sans-serif" font-weight="400" font-size="41" transform="matrix(6.12323e-17 -1 1 6.12323e-17 3244.5 1217)">05-Feb</text>
		</g>
		<g>
			<text fill="#595959" font-family="Verdana,sans-serif" font-weight="400" font-size="41" transform="matrix(6.12323e-17 -1 1 6.12323e-17 3328.264705882353 1223)">04-Mar</text>
		</g>
		<g>
			<text fill="#595959" font-family="Verdana,sans-serif" font-weight="400" font-size="41" transform="matrix(6.12323e-17 -1 1 6.12323e-17 3415.529411764706 1217)">01-Apr</text>
		</g>
		<g>
			<text fill="#595959" font-family="Verdana,sans-serif" font-weight="400" font-size="41" transform="matrix(6.12323e-17 -1 1 6.12323e-17 3499.294117647059 1216)">29-Apr</text>
		</g>
		<g>
			<text fill="#595959" font-family="Verdana,sans-serif" font-weight="400" font-size="41" transform="matrix(6.12323e-17 -1 1 6.12323e-17 3583.0588235294117 1228)">27-May</text>
		</g>
		<g>
			<text fill="#595959" font-family="Verdana,sans-serif" font-weight="400" font-size="41" transform="matrix(6.12323e-17 -1 1 6.12323e-17 3663.323529411765 1211)">24-Jun</text>
		</g>
		<g>
			<text fill="#595959" font-family="Verdana,sans-serif" font-weight="400" font-size="41" transform="matrix(6.12323e-17 -1 1 6.12323e-17 3747.0882352941176 1196)">22-Jul</text>
		</g>
		<g>
			<text fill="#595959" font-family="Verdana,sans-serif" font-weight="400" font-size="41" transform="matrix(6.12323e-17 -1 1 6.12323e-17 3834.3529411764707 1218)">19-Aug</text>
		</g>
		<g>
			<text fill="#595959" font-family="Verdana,sans-serif" font-weight="400" font-size="41" transform="matrix(6.12323e-17 -1 1 6.12323e-17 3918.1176470588234 1219)">16-Sep</text>
		</g>
		<g>
			<text fill="#595959" font-family="Verdana,sans-serif" font-weight="400" font-size="41" transform="matrix(6.12323e-17 -1 1 6.12323e-17 3998.3823529411766 1213)">14-Oct</text>
		</g>
		<g>
			<text fill="#595959" font-family="Verdana,sans-serif" font-weight="400" font-size="41" transform="matrix(6.12323e-17 -1 1 6.12323e-17 4081.6470588235293 1222)">11-Nov</text>
		</g>
		<g>
			<text fill="#595959" font-family="Verdana,sans-serif" font-weight="400" font-size="41" transform="matrix(6.12323e-17 -1 1 6.12323e-17 4165.411764705882 1220)">16-Dec</text>
		</g>
		<g>
			<text fill="#595959" font-family="Verdana,sans-serif" font-weight="400" font-size="41" transform="matrix(6.12323e-17 -1 1 6.12323e-17 4249.676470588235 1207)">13-Jan</text>
		</g>
		<g>
			<text fill="#595959" font-family="Verdana,sans-serif" font-weight="400" font-size="41" transform="matrix(1 0 0 1 3167.5 1050)">0</text>
		</g>
		<g>
			<text fill="#595959" font-family="Verdana,sans-serif" font-weight="400" font-size="41" transform="matrix(1 0 0 1 3116.5 922)">393</text>
		</g>
		<g>
			<text fill="#595959" font-family="Verdana,sans-serif" font-weight="400" font-size="41" transform="matrix(1 0 0 1 3115.5 794)">786</text>
		</g>
		<g>
			<text fill="#595959" font-family="Verdana,sans-serif" font-weight="400" font-size="41" transform="matrix(1 0 0 1 3077.5 666)">1,180</text>
		</g>
		<g>
			<text fill="#595959" font-family="Verdana,sans-serif" font-weight="400" font-size="41" transform="matrix(1 0 0 1 3077.5 538)">1,573</text>
		</g>
		<g>
			<text fill="#595959" font-family="Verdana,sans-serif" font-weight="400" font-size="41" transform="matrix(1 0 0 1 3076.5 410)">1,966</text>
		</g>
		<g>
			<text fill="#595959" font-family="Verdana,sans-serif" font-weight="400" font-size="41" transform="matrix(1 0 0 1 3544.5 1321)">Week Commencing</text>
		</g>
		<g>
			<text fill="#595959" font-family="Verdana,sans-serif" font-weight="400" font-size="46" transform="matrix(6.12323e-17 -1 1 6.12323e-17 3019.73 970.75)">Number of OS Profiles</text>
		</g>
		<rect x="2918.5" y="347.5" width="1760" height="1043" stroke="#D9D9D9" stroke-width="3.4375" stroke-linejoin="round" stroke-miterlimit="10" fill="none" />
		<g>
			<path d="M3228.5 1038 3249.4411764705883 1038 3270.3823529411766 1038 3291.323529411765 1038 3312.264705882353 1038 3333.205882352941 1038 3354.1470588235293 1038 3375.0882352941176 1038 3396.029411764706 1038 3416.970588235294 1038 3437.9117647058824 1038 3458.8529411764707 1038 3479.794117647059 1038 3500.735294117647 1038 3521.676470588235 1038 3542.6176470588234 1038 3563.5588235294117 1038 3584.5 1038 3605.4411764705883 1038 3626.3823529411766 1038 3647.323529411765 1038 3668.264705882353 1038 3689.205882352941 1038 3710.1470588235293 1038 3731.0882352941176 1038 3752.029411764706 1038 3772.970588235294 1038 3793.9117647058824 1038 3814.8529411764707 1038 3835.7941176470586 1038 3856.735294117647 1038 3877.676470588235 1038 3898.6176470588234 1038 3919.5588235294117 1038 3940.5 1038 3961.4411764705883 1038 3982.3823529411766 1038 4003.323529411765 1038 4024.264705882353 1038 4045.2058823529414 1038 4066.1470588235293 1038 4087.0882352941176 1038 4108.029411764706 1038 4128.970588235294 1038 4149.911764705882 1038 4170.85294117647 1038 4191.794117647059 1038 4212.735294117647 1038 4233.676470588235 1038 4254.617647058823 1038 4275.558823529412 1038 4296.5 1038 4296.5 697.1658189216683 4275.558823529412 697.8168870803662 4254.617647058823 698.467955239064 4233.676470588235 698.793489318413 4212.735294117647 698.793489318413 4191.794117647059 698.793489318413 4170.85294117647 698.793489318413 4149.911764705882 699.444557477111 4128.970588235294 699.444557477111 4108.029411764706 700.0956256358088 4087.0882352941176 700.7466937945067 4066.1470588235293 701.0722278738556 4045.2058823529414 701.3977619532045 4024.264705882353 701.3977619532045 4003.323529411765 701.7232960325534 3982.3823529411766 701.7232960325534 3961.4411764705883 703.3509664292981 3940.5 703.676500508647 3919.5588235294117 704.6531027466938 3898.6176470588234 704.9786368260427 3877.676470588235 705.9552390640895 3856.735294117647 706.6063072227873 3835.7941176470586 706.6063072227873 3814.8529411764707 706.9318413021363 3793.9117647058824 706.9318413021363 3772.970588235294 707.2573753814852 3752.029411764706 707.2573753814852 3731.0882352941176 708.233977619532 3710.1470588235293 708.233977619532 3689.205882352941 708.5595116988809 3668.264705882353 711.4893184130214 3647.323529411765 711.4893184130214 3626.3823529411766 712.1403865717192 3605.4411764705883 713.116988809766 3584.5 713.768056968464 3563.5588235294117 715.0701932858597 3542.6176470588234 715.7212614445575 3521.676470588235 716.0467955239064 3500.735294117647 716.3723296032554 3479.794117647059 716.3723296032554 3458.8529411764707 716.6978636826043 3437.9117647058824 717.0233977619532 3416.970588235294 717.0233977619532 3396.029411764706 718 3375.0882352941176 718.9766022380468 3354.1470588235293 720.2787385554425 3333.205882352941 721.2553407934893 3312.264705882353 721.2553407934893 3291.323529411765 722.557477110885 3270.3823529411766 722.557477110885 3249.4411764705883 722.557477110885 3228.5 723.5340793489318 3228.5 1038Z" fill="#fdd5a4" opacity="0.9" />
		</g>
		<g>
			<path d="M3228.5 723.5340793489318 3249.4411764705883 722.557477110885 3270.3823529411766 722.557477110885 3291.323529411765 722.557477110885 3312.264705882353 721.2553407934893 3333.205882352941 721.2553407934893 3354.1470588235293 720.2787385554425 3375.0882352941176 718.9766022380468 3396.029411764706 718 3416.970588235294 717.0233977619532 3437.9117647058824 717.0233977619532 3458.8529411764707 716.6978636826043 3479.794117647059 716.3723296032554 3500.735294117647 716.3723296032554 3521.676470588235 716.0467955239064 3542.6176470588234 715.7212614445575 3563.5588235294117 715.0701932858597 3584.5 713.768056968464 3605.4411764705883 713.116988809766 3626.3823529411766 712.1403865717192 3647.323529411765 711.4893184130214 3668.264705882353 711.4893184130214 3689.205882352941 708.5595116988809 3710.1470588235293 708.233977619532 3731.0882352941176 708.233977619532 3752.029411764706 707.2573753814852 3772.970588235294 707.2573753814852 3793.9117647058824 706.9318413021363 3814.8529411764707 706.9318413021363 3835.7941176470586 706.6063072227873 3856.735294117647 706.6063072227873 3877.676470588235 705.9552390640895 3898.6176470588234 704.9786368260427 3919.5588235294117 704.6531027466938 3940.5 703.676500508647 3961.4411764705883 703.3509664292981 3982.3823529411766 701.7232960325534 4003.323529411765 701.7232960325534 4024.264705882353 701.3977619532045 4045.2058823529414 701.3977619532045 4066.1470588235293 701.0722278738556 4087.0882352941176 700.7466937945067 4108.029411764706 700.0956256358088 4128.970588235294 699.444557477111 4149.911764705882 699.444557477111 4170.85294117647 698.793489318413 4191.794117647059 698.793489318413 4212.735294117647 698.793489318413 4233.676470588235 698.793489318413 4254.617647058823 698.467955239064 4275.558823529412 697.8168870803662 4296.5 697.1658189216683 4296.5 551.9776195320447 4275.558823529412 552.6286876907426 4254.617647058823 553.6052899287894 4233.676470588235 553.9308240081383 4212.735294117647 554.5818921668362 4191.794117647059 554.5818921668362 4170.85294117647 554.5818921668362 4149.911764705882 555.884028484232 4128.970588235294 556.2095625635809 4108.029411764706 556.8606307222788 4087.0882352941176 558.8138351983723 4066.1470588235293 559.1393692777212 4045.2058823529414 559.4649033570702 4024.264705882353 560.441505595117 4003.323529411765 561.4181078331638 3982.3823529411766 561.4181078331638 3961.4411764705883 563.0457782299085 3940.5 564.0223804679553 3919.5588235294117 564.998982706002 3898.6176470588234 565.324516785351 3877.676470588235 566.9521871820956 3856.735294117647 567.6032553407935 3835.7941176470586 567.6032553407935 3814.8529411764707 567.9287894201424 3793.9117647058824 567.9287894201424 3772.970588235294 569.556459816887 3752.029411764706 571.1841302136316 3731.0882352941176 572.4862665310274 3710.1470588235293 572.4862665310274 3689.205882352941 572.8118006103763 3668.264705882353 575.7416073245167 3647.323529411765 575.7416073245167 3626.3823529411766 576.7182095625635 3605.4411764705883 578.6714140386571 3584.5 579.3224821973552 3563.5588235294117 580.6246185147509 3542.6176470588234 581.9267548321466 3521.676470588235 582.9033570701934 3500.735294117647 583.2288911495423 3479.794117647059 583.2288911495423 3458.8529411764707 583.8799593082401 3437.9117647058824 584.531027466938 3416.970588235294 584.531027466938 3396.029411764706 585.8331637843337 3375.0882352941176 588.1119023397762 3354.1470588235293 589.4140386571719 3333.205882352941 590.3906408952187 3312.264705882353 591.6927772126144 3291.323529411765 592.9949135300101 3270.3823529411766 592.9949135300101 3249.4411764705883 593.320447609359 3228.5 594.9481180061036 3228.5 723.5340793489318Z" fill="#e62d39" opacity="0.9" />
		</g>
		<g>
			<path d="M3228.5 594.9481180061036 3249.4411764705883 593.320447609359 3270.3823529411766 592.9949135300101 3291.323529411765 592.9949135300101 3312.264705882353 591.6927772126144 3333.205882352941 590.3906408952187 3354.1470588235293 589.4140386571719 3375.0882352941176 588.1119023397762 3396.029411764706 585.8331637843337 3416.970588235294 584.531027466938 3437.9117647058824 584.531027466938 3458.8529411764707 583.8799593082401 3479.794117647059 583.2288911495423 3500.735294117647 583.2288911495423 3521.676470588235 582.9033570701934 3542.6176470588234 581.9267548321466 3563.5588235294117 580.6246185147509 3584.5 579.3224821973552 3605.4411764705883 578.6714140386571 3626.3823529411766 576.7182095625635 3647.323529411765 575.7416073245167 3668.264705882353 575.7416073245167 3689.205882352941 572.8118006103763 3710.1470588235293 572.4862665310274 3731.0882352941176 572.4862665310274 3752.029411764706 571.1841302136316 3772.970588235294 569.556459816887 3793.9117647058824 567.9287894201424 3814.8529411764707 567.9287894201424 3835.7941176470586 567.6032553407935 3856.735294117647 567.6032553407935 3877.676470588235 566.9521871820956 3898.6176470588234 565.324516785351 3919.5588235294117 564.998982706002 3940.5 564.0223804679553 3961.4411764705883 563.0457782299085 3982.3823529411766 561.4181078331638 4003.323529411765 561.4181078331638 4024.264705882353 560.441505595117 4045.2058823529414 559.4649033570702 4066.1470588235293 559.1393692777212 4087.0882352941176 558.8138351983723 4108.029411764706 556.8606307222788 4128.970588235294 556.2095625635809 4149.911764705882 555.884028484232 4170.85294117647 554.5818921668362 4191.794117647059 554.5818921668362 4212.735294117647 554.5818921668362 4233.676470588235 553.9308240081383 4254.617647058823 553.6052899287894 4275.558823529412 552.6286876907426 4296.5 551.9776195320447 4296.5 490.77721261444555 4275.558823529412 491.4282807731434 4254.617647058823 492.4048830111902 4233.676470588235 492.7304170905391 4212.735294117647 493.38148524923696 4191.794117647059 493.38148524923696 4170.85294117647 493.38148524923696 4149.911764705882 494.6836215666328 4128.970588235294 495.0091556459817 4108.029411764706 495.66022380467956 4087.0882352941176 497.93896236012205 4066.1470588235293 498.264496439471 4045.2058823529414 498.5900305188199 4024.264705882353 499.5666327568667 4003.323529411765 500.5432349949136 3982.3823529411766 500.5432349949136 3961.4411764705883 502.1709053916582 3940.5 503.147507629705 3919.5588235294117 504.12410986775177 3898.6176470588234 504.4496439471007 3877.676470588235 506.07731434384533 3856.735294117647 506.7283825025432 3835.7941176470586 506.7283825025432 3814.8529411764707 507.0539165818921 3793.9117647058824 507.0539165818921 3772.970588235294 508.68158697863674 3752.029411764706 510.3092573753814 3731.0882352941176 511.6113936927771 3710.1470588235293 511.6113936927771 3689.205882352941 511.936927772126 3668.264705882353 514.8667344862665 3647.323529411765 514.8667344862665 3626.3823529411766 515.8433367243133 3605.4411764705883 517.7965412004069 3584.5 518.447609359105 3563.5588235294117 520.4008138351985 3542.6176470588234 521.7029501525942 3521.676470588235 522.679552390641 3500.735294117647 523.3306205493388 3479.794117647059 523.3306205493388 3458.8529411764707 523.9816887080367 3437.9117647058824 524.6327568667346 3416.970588235294 524.6327568667346 3396.029411764706 525.9348931841303 3375.0882352941176 528.2136317395727 3354.1470588235293 529.5157680569685 3333.205882352941 530.4923702950152 3312.264705882353 531.7945066124109 3291.323529411765 533.0966429298066 3270.3823529411766 533.0966429298066 3249.4411764705883 533.4221770091556 3228.5 535.0498474059002 3228.5 594.9481180061036Z" fill="#005aa6" opacity="0.9" />
		</g>
		<g>
			<path d="M3228.5 535.0498474059002 3249.4411764705883 533.4221770091556 3270.3823529411766 533.0966429298066 3291.323529411765 533.0966429298066 3312.264705882353 531.7945066124109 3333.205882352941 530.4923702950152 3354.1470588235293 529.5157680569685 3375.0882352941176 528.2136317395727 3396.029411764706 525.9348931841303 3416.970588235294 524.6327568667346 3437.9117647058824 524.6327568667346 3458.8529411764707 523.9816887080367 3479.794117647059 523.3306205493388 3500.735294117647 523.3306205493388 3521.676470588235 522.679552390641 3542.6176470588234 521.7029501525942 3563.5588235294117 520.4008138351985 3584.5 518.447609359105 3605.4411764705883 517.7965412004069 3626.3823529411766 515.8433367243133 3647.323529411765 514.8667344862665 3668.264705882353 514.8667344862665 3689.205882352941 511.936927772126 3710.1470588235293 511.6113936927771 3731.0882352941176 511.6113936927771 3752.029411764706 510.3092573753814 3772.970588235294 508.68158697863674 3793.9117647058824 507.0539165818921 3814.8529411764707 507.0539165818921 3835.7941176470586 506.7283825025432 3856.735294117647 506.7283825025432 3877.676470588235 506.07731434384533 3898.6176470588234 504.4496439471007 3919.5588235294117 504.12410986775177 3940.5 503.147507629705 3961.4411764705883 502.1709053916582 3982.3823529411766 500.5432349949136 4003.323529411765 500.5432349949136 4024.264705882353 499.5666327568667 4045.2058823529414 498.5900305188199 4066.1470588235293 498.264496439471 4087.0882352941176 497.93896236012205 4108.029411764706 495.66022380467956 4128.970588235294 495.0091556459817 4149.911764705882 494.6836215666328 4170.85294117647 493.38148524923696 4191.794117647059 493.38148524923696 4212.735294117647 493.38148524923696 4233.676470588235 492.7304170905391 4254.617647058823 492.4048830111902 4275.558823529412 491.4282807731434 4296.5 490.77721261444555 4296.5 439.3428280773143 4275.558823529412 439.9938962360122 4254.617647058823 440.97049847405896 4233.676470588235 441.2960325534079 4212.735294117647 441.94710071210574 4191.794117647059 441.94710071210574 4170.85294117647 441.94710071210574 4149.911764705882 444.22583926754834 4128.970588235294 444.55137334689726 4108.029411764706 445.2024415055951 4087.0882352941176 447.80671414038653 4066.1470588235293 447.80671414038653 4045.2058823529414 448.13224821973546 4024.264705882353 449.43438453713117 4003.323529411765 450.736520854527 3982.3823529411766 451.0620549338759 3961.4411764705883 453.0152594099695 3940.5 453.99186164801625 3919.5588235294117 454.96846388606303 3898.6176470588234 455.61953204476094 3877.676470588235 457.2472024415056 3856.735294117647 457.89827060020343 3835.7941176470586 457.89827060020343 3814.8529411764707 458.22380467955236 3793.9117647058824 457.8982706002034 3772.970588235294 460.50254323499485 3752.029411764706 462.78128179043733 3731.0882352941176 464.08341810783304 3710.1470588235293 464.08341810783304 3689.205882352941 464.08341810783304 3668.264705882353 467.01322482197355 3647.323529411765 467.01322482197355 3626.3823529411766 468.31536113936926 3605.4411764705883 470.59409969481175 3584.5 471.2451678535098 3563.5588235294117 473.1983723296034 3542.6176470588234 474.5005086469991 3521.676470588235 476.1281790437437 3500.735294117647 476.7792472024416 3479.794117647059 476.7792472024416 3458.8529411764707 477.43031536113944 3437.9117647058824 478.0813835198373 3416.970588235294 478.0813835198373 3396.029411764706 479.7090539165819 3375.0882352941176 482.63886063072226 3354.1470588235293 483.94099694811797 3333.205882352941 484.91759918616475 3312.264705882353 486.21973550356046 3291.323529411765 487.84740590030515 3270.3823529411766 488.1729399796541 3249.4411764705883 489.14954221770085 3228.5 491.1027466937944 3228.5 535.0498474059002Z" fill="#f6a118" opacity="0.9" />
		</g>
		<g>
			<path d="M3228.5 491.1027466937944 3249.4411764705883 489.14954221770085 3270.3823529411766 488.1729399796541 3291.323529411765 487.84740590030515 3312.264705882353 486.21973550356046 3333.205882352941 484.91759918616475 3354.1470588235293 483.94099694811797 3375.0882352941176 482.63886063072226 3396.029411764706 479.7090539165819 3416.970588235294 478.0813835198373 3437.9117647058824 478.0813835198373 3458.8529411764707 477.43031536113944 3479.794117647059 476.7792472024416 3500.735294117647 476.7792472024416 3521.676470588235 476.1281790437437 3542.6176470588234 474.5005086469991 3563.5588235294117 473.1983723296034 3584.5 471.2451678535098 3605.4411764705883 470.59409969481175 3626.3823529411766 468.31536113936926 3647.323529411765 467.01322482197355 3668.264705882353 467.01322482197355 3689.205882352941 464.08341810783304 3710.1470588235293 464.08341810783304 3731.0882352941176 464.08341810783304 3752.029411764706 462.78128179043733 3772.970588235294 460.50254323499485 3793.9117647058824 457.8982706002034 3814.8529411764707 458.22380467955236 3835.7941176470586 457.89827060020343 3856.735294117647 457.89827060020343 3877.676470588235 457.2472024415056 3898.6176470588234 455.61953204476094 3919.5588235294117 454.96846388606303 3940.5 453.99186164801625 3961.4411764705883 453.0152594099695 3982.3823529411766 451.0620549338759 4003.323529411765 450.736520854527 4024.264705882353 449.43438453713117 4045.2058823529414 448.13224821973546 4066.1470588235293 447.80671414038653 4087.0882352941176 447.80671414038653 4108.029411764706 445.2024415055951 4128.970588235294 444.55137334689726 4149.911764705882 444.22583926754834 4170.85294117647 441.94710071210574 4191.794117647059 441.94710071210574 4212.735294117647 441.94710071210574 4233.676470588235 441.2960325534079 4254.617647058823 440.97049847405896 4275.558823529412 439.9938962360122 4296.5 439.3428280773143 4296.5 411.997965412004 4275.558823529412 412.6490335707019 4254.617647058823 413.62563580874865 4233.676470588235 413.9511698880976 4212.735294117647 414.60223804679543 4191.794117647059 414.60223804679543 4170.85294117647 414.60223804679543 4149.911764705882 416.88097660223804 4128.970588235294 417.20651068158696 4108.029411764706 417.8575788402848 4087.0882352941176 420.46185147507623 4066.1470588235293 420.46185147507623 4045.2058823529414 420.78738555442516 4024.264705882353 422.08952187182086 4003.323529411765 423.3916581892167 3982.3823529411766 424.0427263479146 3961.4411764705883 425.99593082400816 3940.5 426.97253306205494 3919.5588235294117 427.9491353001017 3898.6176470588234 428.6002034587996 3877.676470588235 430.22787385554426 3856.735294117647 430.8789420142421 3835.7941176470586 430.8789420142421 3814.8529411764707 431.20447609359104 3793.9117647058824 430.87894201424206 3772.970588235294 433.4832146490335 3752.029411764706 435.761953204476 3731.0882352941176 437.0640895218717 3710.1470588235293 437.0640895218717 3689.205882352941 437.0640895218717 3668.264705882353 439.99389623601223 3647.323529411765 439.99389623601223 3626.3823529411766 441.29603255340794 3605.4411764705883 443.5747711088504 3584.5 444.2258392675485 3563.5588235294117 446.17904374364207 3542.6176470588234 447.4811800610378 3521.676470588235 449.1088504577824 3500.735294117647 449.75991861648026 3479.794117647059 450.0854526958292 3458.8529411764707 450.73652085452704 3437.9117647058824 451.3875890132249 3416.970588235294 451.3875890132249 3396.029411764706 453.01525940996953 3375.0882352941176 455.94506612410987 3354.1470588235293 457.2472024415056 3333.205882352941 458.22380467955236 3312.264705882353 459.52594099694807 3291.323529411765 461.15361139369276 3270.3823529411766 461.4791454730417 3249.4411764705883 462.45574771108846 3228.5 464.408952187182 3228.5 491.1027466937944Z" fill="#f48c7d" opacity="0.9" />
		</g>
		<g>
			<path d="M3228.5 464.408952187182 3249.4411764705883 462.45574771108846 3270.3823529411766 461.4791454730417 3291.323529411765 461.15361139369276 3312.264705882353 459.52594099694807 3333.205882352941 458.22380467955236 3354.1470588235293 457.2472024415056 3375.0882352941176 455.94506612410987 3396.029411764706 453.01525940996953 3416.970588235294 451.3875890132249 3437.9117647058824 451.3875890132249 3458.8529411764707 450.73652085452704 3479.794117647059 450.0854526958292 3500.735294117647 449.75991861648026 3521.676470588235 449.1088504577824 3542.6176470588234 447.4811800610378 3563.5588235294117 446.17904374364207 3584.5 444.2258392675485 3605.4411764705883 443.5747711088504 3626.3823529411766 441.29603255340794 3647.323529411765 439.99389623601223 3668.264705882353 439.99389623601223 3689.205882352941 437.0640895218717 3710.1470588235293 437.0640895218717 3731.0882352941176 437.0640895218717 3752.029411764706 435.761953204476 3772.970588235294 433.4832146490335 3793.9117647058824 430.87894201424206 3814.8529411764707 431.20447609359104 3835.7941176470586 430.8789420142421 3856.735294117647 430.8789420142421 3877.676470588235 430.22787385554426 3898.6176470588234 428.6002034587996 3919.5588235294117 427.9491353001017 3940.5 426.97253306205494 3961.4411764705883 425.99593082400816 3982.3823529411766 424.0427263479146 4003.323529411765 423.3916581892167 4024.264705882353 422.08952187182086 4045.2058823529414 420.78738555442516 4066.1470588235293 420.46185147507623 4087.0882352941176 420.46185147507623 4108.029411764706 417.8575788402848 4128.970588235294 417.20651068158696 4149.911764705882 416.88097660223804 4170.85294117647 414.60223804679543 4191.794117647059 414.60223804679543 4212.735294117647 414.60223804679543 4233.676470588235 413.9511698880976 4254.617647058823 413.62563580874865 4275.558823529412 412.6490335707019 4296.5 411.997965412004 4296.5 397.99999999999994 4275.558823529412 398.6510681586978 4254.617647058823 399.6276703967446 4233.676470588235 399.9532044760935 4212.735294117647 400.60427263479136 4191.794117647059 400.60427263479136 4170.85294117647 400.60427263479136 4149.911764705882 402.88301119023396 4128.970588235294 403.2085452695829 4108.029411764706 403.85961342828074 4087.0882352941176 406.46388606307215 4066.1470588235293 406.46388606307215 4045.2058823529414 406.7894201424211 4024.264705882353 406.1383519837232 4003.323529411765 407.44048830111905 3982.3823529411766 408.09155645981696 3961.4411764705883 410.0447609359105 3940.5 411.0213631739573 3919.5588235294117 411.9979654120041 3898.6176470588234 412.649033570702 3877.676470588235 414.2767039674466 3856.735294117647 414.9277721261445 3835.7941176470586 414.9277721261445 3814.8529411764707 415.2533062054934 3793.9117647058824 414.9277721261444 3772.970588235294 417.5320447609359 3752.029411764706 419.8107833163784 3731.0882352941176 421.1129196337741 3710.1470588235293 421.1129196337741 3689.205882352941 421.76398779247194 3668.264705882353 424.69379450661245 3647.323529411765 424.69379450661245 3626.3823529411766 425.99593082400816 3605.4411764705883 428.27466937945064 3584.5 428.6002034587998 3563.5588235294117 431.2044760935912 3542.6176470588234 432.5066124109869 3521.676470588235 434.13428280773155 3500.735294117647 434.7853509664294 3479.794117647059 435.11088504577833 3458.8529411764707 435.7619532044762 3437.9117647058824 436.41302136317404 3416.970588235294 436.41302136317404 3396.029411764706 438.0406917599187 3375.0882352941176 440.970498474059 3354.1470588235293 442.2726347914547 3333.205882352941 443.2492370295015 3312.264705882353 444.5513733468972 3291.323529411765 446.1790437436419 3270.3823529411766 446.5045778229908 3249.4411764705883 447.4811800610376 3228.5 449.43438453713117 3228.5 464.408952187182Z" fill="#55c0e9" opacity="0.9" />
		</g>
		<g>
			<rect x="4372" y="431" width="22.9995" height="23" fill="#fdd5a4" />
		</g>
		<g>
			<text fill="#595959" font-family="Verdana,sans-serif" font-weight="400" font-size="41" transform="matrix(1 0 0 1 4404.56 454)">Other</text>
		</g>
		<g>
			<rect x="4372" y="508" width="22.9995" height="23" fill="#e62d39" />
		</g>
		<g>
			<text fill="#595959" font-family="Verdana,sans-serif" font-weight="400" font-size="41" transform="matrix(1 0 0 1 4404.56 531)">iOS</text>
		</g>
		<g>
			<rect x="4372" y="585" width="22.9995" height="23" fill="#005aa6" />
		</g>
		<g>
			<text fill="#595959" font-family="Verdana,sans-serif" font-weight="400" font-size="41" transform="matrix(1 0 0 1 4404.56 608)">Android</text>
		</g>
		<g>
			<rect x="4372" y="662" width="22.9995" height="23" fill="#f6a118" />
		</g>
		<g>
			<text fill="#595959" font-family="Verdana,sans-serif" font-weight="400" font-size="41" transform="matrix(1 0 0 1 4404.56 685)">macOS</text>
		</g>
		<g>
			<rect x="4372" y="739" width="22.9995" height="23" fill="#f48c7d" />
		</g>
		<g>
			<text fill="#595959" font-family="Verdana,sans-serif" font-weight="400" font-size="41" transform="matrix(1 0 0 1 4404.56 762)">Linux</text>
		</g>
		<g>
			<rect x="4372" y="816" width="22.9995" height="23" fill="#55c0e9" />
		</g>
		<g>
			<text fill="#595959" font-family="Verdana,sans-serif" font-weight="400" font-size="41" transform="matrix(1 0 0 1 4404.56 839)">Windows</text>
		</g>
	</g>
</svg>
