<svg width="1763" height="1046"
    xmlns="http://www.w3.org/2000/svg"
	xmlns:xlink="http://www.w3.org/1999/xlink" xml:space="preserve" overflow="hidden">
	<defs>
		<clipPath id="clip0">
			<rect x="2917" y="346" width="1763" height="1046"/>
		</clipPath>
	</defs>
	<g clip-path="url(#clip0)" transform="translate(-2917 -346)">
		<rect x="2918" y="347" width="1760" height="1043" fill="#FFFFFF" />
		<g>
			<path d="
			M3228.5 974.532 4296.5 974.532
			M3228.5 910.53 4296.5 910.53
			M3228.5 846.528 4296.5 846.528
			M3228.5 781.526 4296.5 781.526
			M3228.5 717.524 4296.5 717.524
			M3228.5 653.522 4296.5 653.522
			M3228.5 589.52 4296.5 589.52
			M3228.5 525.517 4296.5 525.517
			M3228.5 461.515 4296.5 461.515
			M3228.5 397.5 4296.5 397.5" stroke="#D9D9D9" stroke-width="3.4375" stroke-linejoin="round" stroke-miterlimit="10" fill="none" />
		</g>
		<g>
			<path d="M 1038.5 4296.5 1038.5" stroke="#D9D9D9" stroke-width="3.4375" stroke-linejoin="round" stroke-miterlimit="10" fill="none" fill-rule="evenodd" />
		</g>
		<g>
			<text fill="#595959" font-family="Verdana,sans-serif" font-weight="400" font-size="41" transform="matrix(6.12323e-17 -1 1 6.12323e-17 3244.5 1217)">05-Feb</text>
		</g>
		<g>
			<text fill="#595959" font-family="Verdana,sans-serif" font-weight="400" font-size="41" transform="matrix(6.12323e-17 -1 1 6.12323e-17 3328.264705882353 1223)">04-Mar</text>
		</g>
		<g>
			<text fill="#595959" font-family="Verdana,sans-serif" font-weight="400" font-size="41" transform="matrix(6.12323e-17 -1 1 6.12323e-17 3415.529411764706 1217)">01-Apr</text>
		</g>
		<g>
			<text fill="#595959" font-family="Verdana,sans-serif" font-weight="400" font-size="41" transform="matrix(6.12323e-17 -1 1 6.12323e-17 3499.294117647059 1216)">29-Apr</text>
		</g>
		<g>
			<text fill="#595959" font-family="Verdana,sans-serif" font-weight="400" font-size="41" transform="matrix(6.12323e-17 -1 1 6.12323e-17 3583.0588235294117 1228)">27-May</text>
		</g>
		<g>
			<text fill="#595959" font-family="Verdana,sans-serif" font-weight="400" font-size="41" transform="matrix(6.12323e-17 -1 1 6.12323e-17 3663.323529411765 1211)">24-Jun</text>
		</g>
		<g>
			<text fill="#595959" font-family="Verdana,sans-serif" font-weight="400" font-size="41" transform="matrix(6.12323e-17 -1 1 6.12323e-17 3747.0882352941176 1196)">22-Jul</text>
		</g>
		<g>
			<text fill="#595959" font-family="Verdana,sans-serif" font-weight="400" font-size="41" transform="matrix(6.12323e-17 -1 1 6.12323e-17 3834.3529411764707 1218)">19-Aug</text>
		</g>
		<g>
			<text fill="#595959" font-family="Verdana,sans-serif" font-weight="400" font-size="41" transform="matrix(6.12323e-17 -1 1 6.12323e-17 3918.1176470588234 1219)">16-Sep</text>
		</g>
		<g>
			<text fill="#595959" font-family="Verdana,sans-serif" font-weight="400" font-size="41" transform="matrix(6.12323e-17 -1 1 6.12323e-17 3998.3823529411766 1213)">14-Oct</text>
		</g>
		<g>
			<text fill="#595959" font-family="Verdana,sans-serif" font-weight="400" font-size="41" transform="matrix(6.12323e-17 -1 1 6.12323e-17 4081.6470588235293 1222)">11-Nov</text>
		</g>
		<g>
			<text fill="#595959" font-family="Verdana,sans-serif" font-weight="400" font-size="41" transform="matrix(6.12323e-17 -1 1 6.12323e-17 4165.411764705882 1220)">16-Dec</text>
		</g>
		<g>
			<text fill="#595959" font-family="Verdana,sans-serif" font-weight="400" font-size="41" transform="matrix(6.12323e-17 -1 1 6.12323e-17 4249.676470588235 1207)">13-Jan</text>
		</g>
		<g>
			<text fill="#595959" font-family="Verdana,sans-serif" font-weight="400" font-size="41" transform="matrix(1 0 0 1 3123.5 1050)">0%</text>
		</g>
		<g>
			<text fill="#595959" font-family="Verdana,sans-serif" font-weight="400" font-size="41" transform="matrix(1 0 0 1 3097.5 922)">20%</text>
		</g>
		<g>
			<text fill="#595959" font-family="Verdana,sans-serif" font-weight="400" font-size="41" transform="matrix(1 0 0 1 3096.5 794)">40%</text>
		</g>
		<g>
			<text fill="#595959" font-family="Verdana,sans-serif" font-weight="400" font-size="41" transform="matrix(1 0 0 1 3097.5 666)">60%</text>
		</g>
		<g>
			<text fill="#595959" font-family="Verdana,sans-serif" font-weight="400" font-size="41" transform="matrix(1 0 0 1 3097.5 538)">80%</text>
		</g>
		<g>
			<text fill="#595959" font-family="Verdana,sans-serif" font-weight="400" font-size="41" transform="matrix(1 0 0 1 3074.5 410)">100%</text>
		</g>
		<g>
			<text fill="#595959" font-family="Verdana,sans-serif" font-weight="400" font-size="41" transform="matrix(1 0 0 1 3544.5 1321)">Week Commencing</text>
		</g>
		<g>
			<text fill="#595959" font-family="Verdana,sans-serif" font-weight="400" font-size="46" transform="matrix(6.12323e-17 -1 1 6.12323e-17 3019.73 965.25)">Requests (% of Total)</text>
		</g>
		<rect x="2918.5" y="347.5" width="1760" height="1043" stroke="#D9D9D9" stroke-width="3.4375" stroke-linejoin="round" stroke-miterlimit="10" fill="none" />
		<g>
			<path d="M3228.5 1038 3249.4411764705883 1038 3270.3823529411766 1038 3291.323529411765 1038 3312.264705882353 1038 3333.205882352941 1038 3354.1470588235293 1038 3375.0882352941176 1038 3396.029411764706 1038 3416.970588235294 1038 3437.9117647058824 1038 3458.8529411764707 1038 3479.794117647059 1038 3500.735294117647 1038 3521.676470588235 1038 3542.6176470588234 1038 3563.5588235294117 1038 3584.5 1038 3605.4411764705883 1038 3626.3823529411766 1038 3647.323529411765 1038 3668.264705882353 1038 3689.205882352941 1038 3710.1470588235293 1038 3731.0882352941176 1038 3752.029411764706 1038 3772.970588235294 1038 3793.9117647058824 1038 3814.8529411764707 1038 3835.7941176470586 1038 3856.735294117647 1038 3877.676470588235 1038 3898.6176470588234 1038 3919.5588235294117 1038 3940.5 1038 3961.4411764705883 1038 3982.3823529411766 1038 4003.323529411765 1038 4024.264705882353 1038 4045.2058823529414 1038 4066.1470588235293 1038 4087.0882352941176 1038 4108.029411764706 1038 4128.970588235294 1038 4149.911764705882 1038 4170.85294117647 1038 4191.794117647059 1038 4212.735294117647 1038 4233.676470588235 1038 4254.617647058823 1038 4275.558823529412 1038 4296.5 1038 4296.5 783.4831690555263 4275.558823529412 783.0196786229212 4254.617647058823 783.0275141890429 4233.676470588235 783.4492557109172 4212.735294117647 783.484387962271 4191.794117647059 783.2922413061176 4170.85294117647 783.1097274823168 4149.911764705882 783.0871417282395 4128.970588235294 782.9000115015447 4108.029411764706 782.5276373365637 4087.0882352941176 782.6753667196651 4066.1470588235293 783.1682641871979 4045.2058823529414 783.5277451200283 4024.264705882353 783.7165926175173 4003.323529411765 725.0579859810713 3982.3823529411766 723.964272691857 3961.4411764705883 722.9963838923263 3940.5 722.2500058248895 3919.5588235294117 721.3672257636031 3898.6176470588234 716.1347668638947 3877.676470588235 714.9315603533947 3856.735294117647 714.226459280052 3835.7941176470586 714.4105060971157 3814.8529411764707 713.9589728279007 3793.9117647058824 713.4392482120827 3772.970588235294 712.9526784937428 3752.029411764706 712.3235713382509 3731.0882352941176 712.0748666907585 3710.1470588235293 711.7892867662207 3689.205882352941 711.2928421961317 3668.264705882353 710.6616144923173 3647.323529411765 710.307171035662 3626.3823529411766 710.0229260904226 3605.4411764705883 709.5011500172373 3584.5 708.8529728655324 3563.5588235294117 708.5111643371398 3542.6176470588234 707.6773439344757 3521.676470588235 706.7867985338357 3500.735294117647 705.8245723100855 3479.794117647059 704.5432324401569 3458.8529411764707 703.4985064623488 3437.9117647058824 704.569443136712 3416.970588235294 703.1605263419694 3396.029411764706 701.7580858411745 3375.0882352941176 700.4865286297146 3354.1470588235293 707.5245129827832 3333.205882352941 729.2395570213952 3312.264705882353 728.9340901988301 3291.323529411765 728.9473274759466 3270.3823529411766 728.5904699830792 3249.4411764705883 728.3059690780326 3228.5 728.4979453773899 3228.5 1038Z" fill="#e62d39" opacity="0.9" />
		</g>
		<g>
			<path d="M3228.5 728.4979453773899 3249.4411764705883 728.3059690780326 3270.3823529411766 728.5904699830792 3291.323529411765 728.9473274759466 3312.264705882353 728.9340901988301 3333.205882352941 729.2395570213952 3354.1470588235293 707.5245129827832 3375.0882352941176 700.4865286297146 3396.029411764706 701.7580858411745 3416.970588235294 703.1605263419694 3437.9117647058824 704.569443136712 3458.8529411764707 703.4985064623488 3479.794117647059 704.5432324401569 3500.735294117647 705.8245723100855 3521.676470588235 706.7867985338357 3542.6176470588234 707.6773439344757 3563.5588235294117 708.5111643371398 3584.5 708.8529728655324 3605.4411764705883 709.5011500172373 3626.3823529411766 710.0229260904226 3647.323529411765 710.307171035662 3668.264705882353 710.6616144923173 3689.205882352941 711.2928421961317 3710.1470588235293 711.7892867662207 3731.0882352941176 712.0748666907585 3752.029411764706 712.3235713382509 3772.970588235294 712.9526784937428 3793.9117647058824 713.4392482120827 3814.8529411764707 713.9589728279007 3835.7941176470586 714.4105060971157 3856.735294117647 714.226459280052 3877.676470588235 714.9315603533947 3898.6176470588234 716.1347668638947 3919.5588235294117 721.3672257636031 3940.5 722.2500058248895 3961.4411764705883 722.9963838923263 3982.3823529411766 723.964272691857 4003.323529411765 725.0579859810713 4024.264705882353 783.7165926175173 4045.2058823529414 783.5277451200283 4066.1470588235293 783.1682641871979 4087.0882352941176 782.6753667196651 4108.029411764706 782.5276373365637 4128.970588235294 782.9000115015447 4149.911764705882 783.0871417282395 4170.85294117647 783.1097274823168 4191.794117647059 783.2922413061176 4212.735294117647 783.484387962271 4233.676470588235 783.4492557109172 4254.617647058823 783.0275141890429 4275.558823529412 783.0196786229212 4296.5 783.4831690555263 4296.5 531.0725093725604 4275.558823529412 531.2499409458121 4254.617647058823 531.6507006603789 4233.676470588235 531.7063634722977 4212.735294117647 531.7405716149474 4191.794117647059 531.5084515547419 4170.85294117647 531.1868422316874 4149.911764705882 530.9096071067931 4128.970588235294 530.6457625647856 4108.029411764706 530.2115588422516 4087.0882352941176 530.3749323864379 4066.1470588235293 530.816371903653 4045.2058823529414 531.5387166599613 4024.264705882353 532.190445140906 4003.323529411765 526.5102482737155 3982.3823529411766 525.3174753042879 3961.4411764705883 524.2802845879517 3940.5 523.1294380044525 3919.5588235294117 521.8575691422009 3898.6176470588234 514.1116307261946 3877.676470588235 512.993987230213 3856.735294117647 512.1677115640608 3835.7941176470586 502.45546819630397 3814.8529411764707 501.879791216212 3793.9117647058824 501.40460916879545 3772.970588235294 500.8004852626943 3752.029411764706 499.8853489758172 3731.0882352941176 498.7859305783681 3710.1470588235293 497.70686325871344 3689.205882352941 496.45662763490196 3668.264705882353 495.1622009511958 3647.323529411765 493.8933367325633 3626.3823529411766 492.86935877863715 3605.4411764705883 492.0646789770611 3584.5 491.29504574396447 3563.5588235294117 490.57523501016317 3542.6176470588234 490.03332941523763 3521.676470588235 489.72310243427995 3500.735294117647 489.48234403066954 3479.794117647059 489.1962201731323 3458.8529411764707 488.9387742360814 3437.9117647058824 492.7506429578374 3416.970588235294 492.8155417521196 3396.029411764706 493.0157563584153 3375.0882352941176 493.39321289046876 3354.1470588235293 506.9149616199791 3333.205882352941 511.364965996509 3312.264705882353 511.2846481599944 3291.323529411765 510.42831690773556 3270.3823529411766 509.62004963115277 3249.4411764705883 508.7614604393337 3228.5 509.353058075723 3228.5 728.4979453773899Z" fill="#005aa6" opacity="0.9" />
		</g>
		<g>
			<path d="M3228.5 509.353058075723 3249.4411764705883 508.7614604393337 3270.3823529411766 509.62004963115277 3291.323529411765 510.42831690773556 3312.264705882353 511.2846481599944 3333.205882352941 511.364965996509 3354.1470588235293 506.9149616199791 3375.0882352941176 493.39321289046876 3396.029411764706 493.0157563584153 3416.970588235294 492.8155417521196 3437.9117647058824 492.7506429578374 3458.8529411764707 488.9387742360814 3479.794117647059 489.1962201731323 3500.735294117647 489.48234403066954 3521.676470588235 489.72310243427995 3542.6176470588234 490.03332941523763 3563.5588235294117 490.57523501016317 3584.5 491.29504574396447 3605.4411764705883 492.0646789770611 3626.3823529411766 492.86935877863715 3647.323529411765 493.8933367325633 3668.264705882353 495.1622009511958 3689.205882352941 496.45662763490196 3710.1470588235293 497.70686325871344 3731.0882352941176 498.7859305783681 3752.029411764706 499.8853489758172 3772.970588235294 500.8004852626943 3793.9117647058824 501.40460916879545 3814.8529411764707 501.879791216212 3835.7941176470586 502.45546819630397 3856.735294117647 512.1677115640608 3877.676470588235 512.993987230213 3898.6176470588234 514.1116307261946 3919.5588235294117 521.8575691422009 3940.5 523.1294380044525 3961.4411764705883 524.2802845879517 3982.3823529411766 525.3174753042879 4003.323529411765 526.5102482737155 4024.264705882353 532.190445140906 4045.2058823529414 531.5387166599613 4066.1470588235293 530.816371903653 4087.0882352941176 530.3749323864379 4108.029411764706 530.2115588422516 4128.970588235294 530.6457625647856 4149.911764705882 530.9096071067931 4170.85294117647 531.1868422316874 4191.794117647059 531.5084515547419 4212.735294117647 531.7405716149474 4233.676470588235 531.7063634722977 4254.617647058823 531.6507006603789 4275.558823529412 531.2499409458121 4296.5 531.0725093725604 4296.5 487.52222153261033 4275.558823529412 487.70696592491663 4254.617647058823 488.01151049572456 4233.676470588235 487.963793616364 4212.735294117647 487.98949737367803 4191.794117647059 487.70292525839443 4170.85294117647 487.3692026626984 4149.911764705882 487.10721609649056 4128.970588235294 486.9097754632236 4108.029411764706 486.6466810104104 4087.0882352941176 486.8253712667305 4066.1470588235293 487.1725552495906 4045.2058823529414 487.81344975744275 4024.264705882353 488.4006750879141 4003.323529411765 478.7456085402515 3982.3823529411766 477.4222196163745 3961.4411764705883 476.2604646154135 3940.5 475.0060216232253 3919.5588235294117 473.64144749214375 3898.6176470588234 473.2844498106347 3877.676470588235 472.05917492318713 3856.735294117647 471.07663748656995 3835.7941176470586 461.2408535917636 3814.8529411764707 460.48443100573536 3793.9117647058824 459.76604736337003 3772.970588235294 458.9777407221724 3752.029411764706 457.90939966851295 3731.0882352941176 456.65452296321746 3710.1470588235293 455.36215838852235 3689.205882352941 453.9844912065713 3668.264705882353 452.5053589477677 3647.323529411765 451.07476537844235 3626.3823529411766 449.87375657582817 3605.4411764705883 448.9328850656446 3584.5 448.0557909288758 3563.5588235294117 447.2525039284088 3542.6176470588234 446.6761477523823 3521.676470588235 446.4456437459776 3500.735294117647 446.28136252321144 3479.794117647059 446.10487752564853 3458.8529411764707 445.9636538385128 3437.9117647058824 450.12178949359264 3416.970588235294 450.19759580620007 3396.029411764706 450.31641232434566 3375.0882352941176 450.53485482006914 3354.1470588235293 465.04034483521883 3333.205882352941 466.06050698928533 3312.264705882353 466.040310950835 3291.323529411765 465.54550807778793 3270.3823529411766 465.0596958871918 3249.4411764705883 464.56231790755743 3228.5 464.9559197775319 3228.5 509.353058075723Z" fill="#55c0e9" opacity="0.9" />
		</g>
		<g>
			<path d="M3228.5 464.9559197775319 3249.4411764705883 464.56231790755743 3270.3823529411766 465.0596958871918 3291.323529411765 465.54550807778793 3312.264705882353 466.040310950835 3333.205882352941 466.06050698928533 3354.1470588235293 465.04034483521883 3375.0882352941176 450.53485482006914 3396.029411764706 450.31641232434566 3416.970588235294 450.19759580620007 3437.9117647058824 450.12178949359264 3458.8529411764707 445.9636538385128 3479.794117647059 446.10487752564853 3500.735294117647 446.28136252321144 3521.676470588235 446.4456437459776 3542.6176470588234 446.6761477523823 3563.5588235294117 447.2525039284088 3584.5 448.0557909288758 3605.4411764705883 448.9328850656446 3626.3823529411766 449.87375657582817 3647.323529411765 451.07476537844235 3668.264705882353 452.5053589477677 3689.205882352941 453.9844912065713 3710.1470588235293 455.36215838852235 3731.0882352941176 456.65452296321746 3752.029411764706 457.90939966851295 3772.970588235294 458.9777407221724 3793.9117647058824 459.76604736337003 3814.8529411764707 460.48443100573536 3835.7941176470586 461.2408535917636 3856.735294117647 471.07663748656995 3877.676470588235 472.05917492318713 3898.6176470588234 473.2844498106347 3919.5588235294117 473.64144749214375 3940.5 475.0060216232253 3961.4411764705883 476.2604646154135 3982.3823529411766 477.4222196163745 4003.323529411765 478.7456085402515 4024.264705882353 488.4006750879141 4045.2058823529414 487.81344975744275 4066.1470588235293 487.1725552495906 4087.0882352941176 486.8253712667305 4108.029411764706 486.6466810104104 4128.970588235294 486.9097754632236 4149.911764705882 487.10721609649056 4170.85294117647 487.3692026626984 4191.794117647059 487.70292525839443 4212.735294117647 487.98949737367803 4233.676470588235 487.963793616364 4254.617647058823 488.01151049572456 4275.558823529412 487.70696592491663 4296.5 487.52222153261033 4296.5 475.01380165868784 4275.558823529412 475.19871497996326 4254.617647058823 475.4695361222136 4233.676470588235 475.3984900629857 4212.735294117647 475.42158037858417 4191.794117647059 475.17281446854633 4170.85294117647 474.89392113663916 4149.911764705882 474.6976120214667 4128.970588235294 474.5506870011159 4108.029411764706 474.3398551157786 4087.0882352941176 474.4972746166898 4066.1470588235293 474.8032929443811 4045.2058823529414 475.42643040944677 4024.264705882353 475.9837074966003 4003.323529411765 466.53633469676566 3982.3823529411766 465.2033179049321 3961.4411764705883 464.0399484926056 3940.5 462.7794187905808 3919.5588235294117 461.40786834513193 3898.6176470588234 460.8843773665021 3877.676470588235 459.6546822545587 3856.735294117647 458.6559421000703 3835.7941176470586 448.8413613772234 3814.8529411764707 448.0810719550874 3793.9117647058824 447.3247116817817 3772.970588235294 446.5310952275203 3752.029411764706 445.4598876638521 3731.0882352941176 444.211812869573 3710.1470588235293 442.9104603532568 3689.205882352941 441.5224522868679 3668.264705882353 440.02872439510173 3647.323529411765 438.5911754273753 3626.3823529411766 437.36935007449506 3605.4411764705883 436.4113820386986 3584.5 435.5243027869889 3563.5588235294117 434.7122259498071 3542.6176470588234 434.13110745861906 3521.676470588235 433.9141397981283 3500.735294117647 433.7506297603656 3479.794117647059 433.55919918545516 3458.8529411764707 433.40054840431145 3437.9117647058824 437.6127108681739 3416.970588235294 437.66723491500807 3396.029411764706 437.73656952866384 3375.0882352941176 437.87360524960343 3354.1470588235293 452.6366317106452 3333.205882352941 450.90613014226784 3312.264705882353 450.8850550677488 3291.323529411765 450.4868239386605 3270.3823529411766 450.086582389552 3249.4411764705883 449.68019116783887 3228.5 449.97158494345933 3228.5 464.9559197775319Z" fill="#f6a118" opacity="0.9" />
		</g>
		<g>
			<path d="M3228.5 449.97158494345933 3249.4411764705883 449.68019116783887 3270.3823529411766 450.086582389552 3291.323529411765 450.4868239386605 3312.264705882353 450.8850550677488 3333.205882352941 450.90613014226784 3354.1470588235293 452.6366317106452 3375.0882352941176 437.87360524960343 3396.029411764706 437.73656952866384 3416.970588235294 437.66723491500807 3437.9117647058824 437.6127108681739 3458.8529411764707 433.40054840431145 3479.794117647059 433.55919918545516 3500.735294117647 433.7506297603656 3521.676470588235 433.9141397981283 3542.6176470588234 434.13110745861906 3563.5588235294117 434.7122259498071 3584.5 435.5243027869889 3605.4411764705883 436.4113820386986 3626.3823529411766 437.36935007449506 3647.323529411765 438.5911754273753 3668.264705882353 440.02872439510173 3689.205882352941 441.5224522868679 3710.1470588235293 442.9104603532568 3731.0882352941176 444.211812869573 3752.029411764706 445.4598876638521 3772.970588235294 446.5310952275203 3793.9117647058824 447.3247116817817 3814.8529411764707 448.0810719550874 3835.7941176470586 448.8413613772234 3856.735294117647 458.6559421000703 3877.676470588235 459.6546822545587 3898.6176470588234 460.8843773665021 3919.5588235294117 461.40786834513193 3940.5 462.7794187905808 3961.4411764705883 464.0399484926056 3982.3823529411766 465.2033179049321 4003.323529411765 466.53633469676566 4024.264705882353 475.9837074966003 4045.2058823529414 475.42643040944677 4066.1470588235293 474.8032929443811 4087.0882352941176 474.4972746166898 4108.029411764706 474.3398551157786 4128.970588235294 474.5506870011159 4149.911764705882 474.6976120214667 4170.85294117647 474.89392113663916 4191.794117647059 475.17281446854633 4212.735294117647 475.42158037858417 4233.676470588235 475.3984900629857 4254.617647058823 475.4695361222136 4275.558823529412 475.19871497996326 4296.5 475.01380165868784 4296.5 469.25281227235195 4275.558823529412 469.45361176960154 4254.617647058823 469.73018322095714 4233.676470588235 469.6596614770044 4212.735294117647 469.68188908060466 4191.794117647059 469.43106409076864 4170.85294117647 469.15262240928087 4149.911764705882 468.95702207661526 4128.970588235294 468.84734356461763 4108.029411764706 468.7350335488471 4087.0882352941176 468.9078882196251 4066.1470588235293 469.2079498249524 4045.2058823529414 469.81130033797666 4024.264705882353 470.38342727342314 4003.323529411765 461.2444339081057 3982.3823529411766 459.946755992067 3961.4411764705883 458.8077681755944 3940.5 457.5593223229012 3919.5588235294117 456.2181048338814 3898.6176470588234 455.6431947463817 3877.676470588235 454.47972281760985 3856.735294117647 453.4905215300467 3835.7941176470586 443.69596259487105 3814.8529411764707 442.9470560831334 3793.9117647058824 442.18952771113993 3772.970588235294 441.4102737359516 3752.029411764706 440.35943056582056 3731.0882352941176 439.1354625729624 3710.1470588235293 437.84119270046506 3689.205882352941 436.45931716608146 3668.264705882353 434.9725271047773 3647.323529411765 433.5415615660502 3626.3823529411766 432.3203932157333 3605.4411764705883 431.3782566408658 3584.5 430.5117297264795 3563.5588235294117 429.7249311165208 3542.6176470588234 429.1613894967009 3521.676470588235 428.96097997032933 3500.735294117647 428.8105160166967 3479.794117647059 428.64236977976526 3458.8529411764707 428.50399955057856 3437.9117647058824 432.7535502158639 3416.970588235294 432.80627389640455 3396.029411764706 432.8676017835308 3375.0882352941176 432.98806566692065 3354.1470588235293 447.8607653758795 3333.205882352941 445.04971196915034 3312.264705882353 445.0840675736475 3291.323529411765 444.7823876121957 3270.3823529411766 444.47619554519974 3249.4411764705883 444.146022913635 3228.5 444.4117939256318 3228.5 449.97158494345933Z" fill="#fdd5a4" opacity="0.9" />
		</g>
		<g>
			<path d="M3228.5 444.4117939256318 3249.4411764705883 444.146022913635 3270.3823529411766 444.47619554519974 3291.323529411765 444.7823876121957 3312.264705882353 445.0840675736475 3333.205882352941 445.04971196915034 3354.1470588235293 447.8607653758795 3375.0882352941176 432.98806566692065 3396.029411764706 432.8676017835308 3416.970588235294 432.80627389640455 3437.9117647058824 432.7535502158639 3458.8529411764707 428.50399955057856 3479.794117647059 428.64236977976526 3500.735294117647 428.8105160166967 3521.676470588235 428.96097997032933 3542.6176470588234 429.1613894967009 3563.5588235294117 429.7249311165208 3584.5 430.5117297264795 3605.4411764705883 431.3782566408658 3626.3823529411766 432.3203932157333 3647.323529411765 433.5415615660502 3668.264705882353 434.9725271047773 3689.205882352941 436.45931716608146 3710.1470588235293 437.84119270046506 3731.0882352941176 439.1354625729624 3752.029411764706 440.35943056582056 3772.970588235294 441.4102737359516 3793.9117647058824 442.18952771113993 3814.8529411764707 442.9470560831334 3835.7941176470586 443.69596259487105 3856.735294117647 453.4905215300467 3877.676470588235 454.47972281760985 3898.6176470588234 455.6431947463817 3919.5588235294117 456.2181048338814 3940.5 457.5593223229012 3961.4411764705883 458.8077681755944 3982.3823529411766 459.946755992067 4003.323529411765 461.2444339081057 4024.264705882353 470.38342727342314 4045.2058823529414 469.81130033797666 4066.1470588235293 469.2079498249524 4087.0882352941176 468.9078882196251 4108.029411764706 468.7350335488471 4128.970588235294 468.84734356461763 4149.911764705882 468.95702207661526 4170.85294117647 469.15262240928087 4191.794117647059 469.43106409076864 4212.735294117647 469.68188908060466 4233.676470588235 469.6596614770044 4254.617647058823 469.73018322095714 4275.558823529412 469.45361176960154 4296.5 469.25281227235195 4296.5 464.4723890087734 4275.558823529412 464.6844034193931 4254.617647058823 464.9715947829817 4233.676470588235 464.9499237655363 4212.735294117647 464.9713870250645 4191.794117647059 464.7567393127636 4170.85294117647 464.5132259653092 4149.911764705882 464.3461599383072 4128.970588235294 464.26375937292056 4108.029411764706 464.2122032971037 4087.0882352941176 464.3963627005436 4066.1470588235293 464.69518296460524 4045.2058823529414 465.29095095509365 4024.264705882353 465.86857631542375 4003.323529411765 457.9426597886813 3982.3823529411766 456.6504617863283 3961.4411764705883 455.5173638999522 3940.5 454.27397669951574 3919.5588235294117 452.9422128623981 3898.6176470588234 452.3392658302522 3877.676470588235 451.1914920386467 3856.735294117647 450.1807388631146 3835.7941176470586 440.3988808972397 3814.8529411764707 439.6628015961259 3793.9117647058824 438.90968576505173 3772.970588235294 438.1368838719703 3752.029411764706 437.09878380068074 3731.0882352941176 435.88818645509696 3710.1470588235293 434.59694513524136 3689.205882352941 433.22158409139143 3668.264705882353 431.7348695488416 3647.323529411765 430.30784750779037 3626.3823529411766 429.09159001631633 3605.4411764705883 428.1595197737724 3584.5 427.30225741502903 3563.5588235294117 426.52676679830296 3542.6176470588234 425.97200661481094 3521.676470588235 425.7866796521752 3500.735294117647 425.65149111446993 3479.794117647059 425.49532897112516 3458.8529411764707 425.3719419226974 3437.9117647058824 429.64793603777895 3416.970588235294 429.7004140998976 3396.029411764706 429.76313464334123 3375.0882352941176 429.88054742773767 3354.1470588235293 444.82124955246854 3333.205882352941 441.7030292243726 3312.264705882353 441.7535822416807 3291.323529411765 441.49228637208546 3270.3823529411766 441.22475501262005 3249.4411764705883 440.9301919465814 3228.5 441.18998724924035 3228.5 444.4117939256318Z" fill="#f48c7d" opacity="0.9" />
		</g>
		<g>
			<path d="M3228.5 441.18998724924035 3249.4411764705883 440.9301919465814 3270.3823529411766 441.22475501262005 3291.323529411765 441.49228637208546 3312.264705882353 441.7535822416807 3333.205882352941 441.7030292243726 3354.1470588235293 444.82124955246854 3375.0882352941176 429.88054742773767 3396.029411764706 429.76313464334123 3416.970588235294 429.7004140998976 3437.9117647058824 429.64793603777895 3458.8529411764707 425.3719419226974 3479.794117647059 425.49532897112516 3500.735294117647 425.65149111446993 3521.676470588235 425.7866796521752 3542.6176470588234 425.97200661481094 3563.5588235294117 426.52676679830296 3584.5 427.30225741502903 3605.4411764705883 428.1595197737724 3626.3823529411766 429.09159001631633 3647.323529411765 430.30784750779037 3668.264705882353 431.7348695488416 3689.205882352941 433.22158409139143 3710.1470588235293 434.59694513524136 3731.0882352941176 435.88818645509696 3752.029411764706 437.09878380068074 3772.970588235294 438.1368838719703 3793.9117647058824 438.90968576505173 3814.8529411764707 439.6628015961259 3835.7941176470586 440.3988808972397 3856.735294117647 450.1807388631146 3877.676470588235 451.1914920386467 3898.6176470588234 452.3392658302522 3919.5588235294117 452.9422128623981 3940.5 454.27397669951574 3961.4411764705883 455.5173638999522 3982.3823529411766 456.6504617863283 4003.323529411765 457.9426597886813 4024.264705882353 465.86857631542375 4045.2058823529414 465.29095095509365 4066.1470588235293 464.69518296460524 4087.0882352941176 464.3963627005436 4108.029411764706 464.2122032971037 4128.970588235294 464.26375937292056 4149.911764705882 464.3461599383072 4170.85294117647 464.5132259653092 4191.794117647059 464.7567393127636 4212.735294117647 464.9713870250645 4233.676470588235 464.9499237655363 4254.617647058823 464.9715947829817 4275.558823529412 464.6844034193931 4296.5 464.4723890087734 4296.5 397.9999999999999 4275.558823529412 398 4254.617647058823 397.9999999999999 4233.676470588235 398 4212.735294117647 398.0000000000001 4191.794117647059 397.99999999999983 4170.85294117647 397.9999999999999 4149.911764705882 397.99999999999994 4128.970588235294 397.9999999999999 4108.029411764706 397.9999999999999 4087.0882352941176 397.99999999999994 4066.1470588235293 398 4045.2058823529414 397.99999999999994 4024.264705882353 398 4003.323529411765 397.9999999999999 3982.3823529411766 397.9999999999999 3961.4411764705883 397.9999999999998 3940.5 398 3919.5588235294117 398 3898.6176470588234 398.00000000000006 3877.676470588235 398.0000000000002 3856.735294117647 398 3835.7941176470586 397.99999999999994 3814.8529411764707 398 3793.9117647058824 398.0000000000001 3772.970588235294 398.00000000000006 3752.029411764706 397.99999999999994 3731.0882352941176 397.99999999999994 3710.1470588235293 398.00000000000006 3689.205882352941 397.99999999999994 3668.264705882353 398.00000000000017 3647.323529411765 397.99999999999994 3626.3823529411766 397.99999999999994 3605.4411764705883 398 3584.5 398 3563.5588235294117 398.00000000000017 3542.6176470588234 398 3521.676470588235 398.00000000000006 3500.735294117647 397.9999999999999 3479.794117647059 398 3458.8529411764707 397.99999999999994 3437.9117647058824 398.00000000000006 3416.970588235294 398.0000000000001 3396.029411764706 398.00000000000006 3375.0882352941176 398.00000000000006 3354.1470588235293 398.0000000000001 3333.205882352941 398.0000000000001 3312.264705882353 398 3291.323529411765 398 3270.3823529411766 397.99999999999994 3249.4411764705883 397.9999999999999 3228.5 398.0000000000001 3228.5 441.18998724924035Z" fill="#393d41" opacity="0.9" />
		</g>
		<g>
			<rect x="4372" y="431" width="22.9995" height="23" fill="#e62d39" />
		</g>
		<g>
			<text fill="#595959" font-family="Verdana,sans-serif" font-weight="400" font-size="41" transform="matrix(1 0 0 1 4404.56 454)">iOS</text>
		</g>
		<g>
			<rect x="4372" y="508" width="22.9995" height="23" fill="#005aa6" />
		</g>
		<g>
			<text fill="#595959" font-family="Verdana,sans-serif" font-weight="400" font-size="41" transform="matrix(1 0 0 1 4404.56 531)">Android</text>
		</g>
		<g>
			<rect x="4372" y="585" width="22.9995" height="23" fill="#55c0e9" />
		</g>
		<g>
			<text fill="#595959" font-family="Verdana,sans-serif" font-weight="400" font-size="41" transform="matrix(1 0 0 1 4404.56 608)">Windows</text>
		</g>
		<g>
			<rect x="4372" y="662" width="22.9995" height="23" fill="#f6a118" />
		</g>
		<g>
			<text fill="#595959" font-family="Verdana,sans-serif" font-weight="400" font-size="41" transform="matrix(1 0 0 1 4404.56 685)">macOS</text>
		</g>
		<g>
			<rect x="4372" y="739" width="22.9995" height="23" fill="#fdd5a4" />
		</g>
		<g>
			<text fill="#595959" font-family="Verdana,sans-serif" font-weight="400" font-size="41" transform="matrix(1 0 0 1 4404.56 762)">Other</text>
		</g>
		<g>
			<rect x="4372" y="816" width="22.9995" height="23" fill="#f48c7d" />
		</g>
		<g>
			<text fill="#595959" font-family="Verdana,sans-serif" font-weight="400" font-size="41" transform="matrix(1 0 0 1 4404.56 839)">Linux</text>
		</g>
		<g>
			<rect x="4372" y="893" width="22.9995" height="23" fill="#393d41" />
		</g>
		<g>
			<text fill="#595959" font-family="Verdana,sans-serif" font-weight="400" font-size="41" transform="matrix(1 0 0 1 4404.56 916)">Unclassified</text>
		</g>
	</g>
</svg>
